<svg version="1.1" xmlns="http://www.w3.org/2000/svg" xmlns:xlink="http://www.w3.org/1999/xlink" width="180.8166" height="369.90759" viewBox="0,0,180.8166,369.90759"><defs><linearGradient x1="291.23216" y1="133.83188" x2="313.81736" y2="347.51131" gradientUnits="userSpaceOnUse" id="color-1"><stop offset="0" stop-color="#2982c1"/><stop offset="1" stop-color="#000000"/></linearGradient><radialGradient cx="294.60401" cy="147.66811" r="17.40649" gradientUnits="userSpaceOnUse" id="color-2"><stop offset="0" stop-color="#922fd5"/><stop offset="1" stop-color="#7520a6"/></radialGradient><linearGradient x1="368.7426" y1="96.21797" x2="327.12321" y2="103.66447" gradientUnits="userSpaceOnUse" id="color-3"><stop offset="0" stop-color="#a636f3"/><stop offset="1" stop-color="#581b7d"/></linearGradient><linearGradient x1="206.79226" y1="130.28328" x2="248.41161" y2="122.83679" gradientUnits="userSpaceOnUse" id="color-4"><stop offset="0" stop-color="#a636f3"/><stop offset="1" stop-color="#581b7d"/></linearGradient><linearGradient x1="280.96763" y1="37.81699" x2="289.70263" y2="155.43773" gradientUnits="userSpaceOnUse" id="color-5"><stop offset="0" stop-color="#4c166c"/><stop offset="1" stop-color="#a636f3"/></linearGradient><radialGradient cx="240.65006" cy="69.75938" r="27.67334" gradientUnits="userSpaceOnUse" id="color-6"><stop offset="0" stop-color="#000000" stop-opacity="0.92549"/><stop offset="1" stop-color="#000000" stop-opacity="0"/></radialGradient><linearGradient x1="187.52028" y1="51.93155" x2="257.53145" y2="47.53032" gradientUnits="userSpaceOnUse" id="color-7"><stop offset="0" stop-color="#a636f3"/><stop offset="1" stop-color="#16031b"/></linearGradient><radialGradient cx="315.88595" cy="50.50584" r="27.1508" gradientUnits="userSpaceOnUse" id="color-8"><stop offset="0" stop-color="#000000" stop-opacity="0.92549"/><stop offset="1" stop-color="#000000" stop-opacity="0"/></radialGradient><linearGradient x1="359.37298" y1="18.30335" x2="292.0714" y2="38.46998" gradientUnits="userSpaceOnUse" id="color-9"><stop offset="0" stop-color="#a636f3"/><stop offset="1" stop-color="#16031b"/></linearGradient><radialGradient cx="252.48174" cy="92.67714" r="4.14909" gradientUnits="userSpaceOnUse" id="color-10"><stop offset="0" stop-color="#ffffff"/><stop offset="1" stop-color="#ffffff" stop-opacity="0"/></radialGradient><radialGradient cx="251.60472" cy="91.72614" r="2.44577" gradientUnits="userSpaceOnUse" id="color-11"><stop offset="0" stop-color="#ffffff"/><stop offset="1" stop-color="#ffffff" stop-opacity="0"/></radialGradient><radialGradient cx="253.61559" cy="93.6889" r="2.44577" gradientUnits="userSpaceOnUse" id="color-12"><stop offset="0" stop-color="#ffffff"/><stop offset="1" stop-color="#ffffff" stop-opacity="0"/></radialGradient><radialGradient cx="311.68084" cy="77.86795" r="4.14909" gradientUnits="userSpaceOnUse" id="color-13"><stop offset="0" stop-color="#ffffff"/><stop offset="1" stop-color="#ffffff" stop-opacity="0"/></radialGradient><radialGradient cx="312.40777" cy="76.7978" r="2.44577" gradientUnits="userSpaceOnUse" id="color-14"><stop offset="0" stop-color="#ffffff"/><stop offset="1" stop-color="#ffffff" stop-opacity="0"/></radialGradient><radialGradient cx="310.70889" cy="79.0361" r="2.44577" gradientUnits="userSpaceOnUse" id="color-15"><stop offset="0" stop-color="#ffffff"/><stop offset="1" stop-color="#ffffff" stop-opacity="0"/></radialGradient></defs><g transform="translate(-184.82961,22.39627)"><g stroke-miterlimit="10"><path d="M266.8436,343.16397c0,0 -5.06439,-43.06643 -10.01891,-85.19863c-0.79524,-6.76259 -10.40211,-32.12455 -10.40211,-32.12455c0,0 6.81402,1.61241 6.23338,-3.32532c-0.42494,-3.61356 -12.19347,-35.44295 -12.19347,-35.44295c0,0 8.08411,0.49796 7.43654,-5.00887c-0.50923,-4.33033 -11.51696,-30.44542 -11.51696,-30.44542l8.05656,2.65914c0,0 4.98145,-17.77883 14.5744,-18.26299c9.52659,-0.4808 32.15752,-1.14585 51.88125,-2.14132c21.3927,-1.07969 27.30053,12.75968 27.30053,12.75968l8.54757,-0.89187l-1.87671,36.35392l5.31765,6.6077l-1.6279,29.18955l5.20836,9.5739c0,0 -2.03904,21.17406 -1.29477,28.39494c4.62264,44.84805 9.44674,91.65044 9.44674,91.65044z" fill="url(#color-1)" stroke="#000000" stroke-width="0" stroke-linecap="butt"/><path d="M318.39808,147.71532c0.85028,10.18085 -8.86438,18.1363 -21.69833,17.76899c-12.83393,-0.36731 -23.92719,-8.91826 -24.77747,-19.09914c-0.85028,-10.18085 8.86436,-18.1363 21.69831,-17.76899c12.83393,0.36731 23.9272,8.91827 24.77748,19.09914z" fill="#f2f2f2" stroke="#000000" stroke-width="0" stroke-linecap="butt"/><path d="M312.07083,148.2443c0.60498,7.64734 -6.72477,13.58878 -16.37143,13.27058c-9.64667,-0.3182 -17.95724,-6.77553 -18.56223,-14.42288c-0.60498,-7.64734 6.72476,-13.58878 16.37142,-13.27058c9.64667,0.3182 17.95725,6.77554 18.56224,14.42288z" fill="url(#color-2)" stroke="#000000" stroke-width="0" stroke-linecap="butt"/><path d="M270.6852,222.97806l23.971,-14.41838l22.51994,14.80807l15.28275,-7.40404" fill="none" stroke="#ffffff" stroke-width="1.5" stroke-linecap="round"/><path d="M271.32975,231.29005l23.971,-14.41838l22.51995,14.80807l15.28275,-7.40404" fill="none" stroke="#ffffff" stroke-width="1.5" stroke-linecap="round"/><path d="M271.58385,239.21237l23.971,-14.41838l22.51995,14.80807l15.28275,-7.40404" fill="none" stroke="#ffffff" stroke-width="1.5" stroke-linecap="round"/><path d="M356.50729,242.58526l2.77501,0.86718l-0.01703,4.70735l-2.775,-0.86718l0.01703,-4.70735z" fill-opacity="0.23137" fill="#000000" stroke="none" stroke-width="0" stroke-linecap="butt"/><path d="M340.82964,67.37215c5.13024,-0.44715 8.15407,-3.64566 12.55991,-5.63588c0.67101,-0.30312 4.23108,-2.83183 4.87198,-2.26261c0.49417,0.43891 -0.50655,4.20072 -0.59567,4.84085c-0.30347,2.17938 -3.85068,14.34885 -3.57598,15.17435c1.01304,3.04433 9.31566,-3.5215 11.00625,-2.42023c1.54856,1.00873 -0.62687,5.93714 -0.98637,7.01954c-1.01715,3.06233 -5.63943,18.71006 -5.14604,20.93305c0.78528,3.53807 6.00646,6.72288 5.28456,11.71624c-0.35423,2.45029 -2.85997,-0.61071 -3.79317,-0.00974c-0.95041,0.61207 0.16753,5.07051 0.34079,6.0219c0.70614,3.87762 1.42637,8.2317 1.37092,12.21023c-0.0057,0.40982 0.15939,0.99987 -0.13993,1.21581c-0.74555,0.53786 -11.51092,-7.62287 -13.16049,-8.4762c-8.03009,-4.15396 -16.41769,-11.36481 -20.26751,-21.05931c-5.8161,-14.64589 -4.75116,-37.07162 11.95916,-38.53103z" fill="url(#color-3)" stroke="#000000" stroke-width="0" stroke-linecap="round"/><path d="M223.92121,94.06698c16.19996,-4.42885 24.68002,16.28909 24.09516,32.08022c-0.38714,10.45257 -5.86956,20.14503 -12.03523,26.83889c-1.26656,1.37508 -8.66811,12.78623 -9.54854,12.53928c-0.35348,-0.09914 -0.39499,-0.7113 -0.53704,-1.09469c-1.37893,-3.72189 -2.15369,-8.0662 -2.78282,-11.9576c-0.15437,-0.95478 -0.58995,-5.5353 -1.68777,-5.78089c-1.07791,-0.24116 -2.41333,3.50711 -3.56358,1.32599c-2.34403,-4.44479 1.50352,-9.25219 1.06206,-12.85177c-0.27738,-2.26166 -9.84214,-15.37103 -11.81985,-17.89753c-0.69904,-0.89301 -4.38819,-4.77213 -3.26843,-6.25828c1.22246,-1.62247 11.21929,1.66925 11.15666,-1.54513c-0.01699,-0.87163 -7.41087,-11.08353 -8.42303,-13.02752c-0.29728,-0.57099 -2.4928,-3.76093 -2.1745,-4.3452c0.41283,-0.75776 4.60377,0.38417 5.33582,0.43625c4.80664,0.34194 8.71672,2.29983 13.68996,0.93928z" fill="url(#color-4)" stroke="#000000" stroke-width="0" stroke-linecap="round"/><path d="M343.53595,88.7313c3.30061,31.47848 -19.51363,63.07291 -51.72494,66.52114c-32.21131,3.44822 -61.62192,-22.55553 -64.92252,-54.03402c-3.3006,-31.47847 20.13616,-59.79219 52.34747,-63.24039c32.21131,-3.44822 60.99941,19.2748 64.30001,50.75327z" fill="url(#color-5)" stroke="#000000" stroke-width="0" stroke-linecap="butt"/><path d="M299.13544,83.82112c0.52295,2.95573 -6.06114,6.64372 -14.706,8.23739c-8.64486,1.59367 -16.07685,0.48949 -16.5998,-2.46624c-0.52295,-2.95573 6.06115,-6.64372 14.70601,-8.23739c8.64486,-1.59367 16.07685,-0.48949 16.59982,2.46624z" fill-opacity="0.23137" fill="#000000" stroke="none" stroke-width="0" stroke-linecap="butt"/><path d="M249.97822,90.99557c-11.72454,9.38013 -25.40552,7.47646 -30.55732,-4.25198c-5.1518,-11.72844 0.17647,-28.8403 11.90101,-38.22043c11.72454,-9.38013 25.40552,-7.47646 30.55732,4.25198c5.1518,11.72844 -0.17647,28.84029 -11.90099,38.22043z" fill="url(#color-6)" stroke="#000000" stroke-width="0" stroke-linecap="butt"/><path d="M254.86421,65.02022l-12.34685,16.11753l-12.29941,10.56751l-17.32028,-0.00099l-22.5874,-39.98868l-5.48066,-42.0728l33.45318,39.43536l39.23732,-1.72685z" fill="url(#color-7)" stroke="#000000" stroke-width="0" stroke-linecap="round"/><path d="M290.74337,42.06736c0.91551,-12.57512 12.91441,-18.99125 26.80028,-14.33081c13.88587,4.66043 24.40041,18.63261 23.48488,31.20773c-0.91551,12.57512 -12.91442,18.99125 -26.80029,14.33081c-13.88587,-4.66043 -24.4004,-18.63261 -23.48487,-31.20772z" fill="url(#color-8)" stroke="#000000" stroke-width="0" stroke-linecap="butt"/><path d="M292.02237,38.29768l37.47203,-11.99789l18.306,-48.69606l8.87704,41.46512l-7.90402,45.44417l-16.28651,6.01389l-15.08964,-5.66708l-16.98512,-10.8695z" fill="url(#color-9)" stroke="#000000" stroke-width="0" stroke-linecap="round"/><path d="M268.96391,54.61774c0,0 -1.11047,1.14793 -2.42778,2.2324c-1.02119,0.8407 -2.16671,1.64325 -3.01551,1.84326c-0.79041,0.18625 -2.01728,-0.0761 -3.13665,-0.42515c-1.39985,-0.43652 -2.63165,-1.00863 -2.63165,-1.00863" fill="none" stroke-opacity="0.40392" stroke="#000000" stroke-width="2.5" stroke-linecap="round"/><path d="M300.40895,50.05305c0,0 -1.35661,0.8181 -2.89805,1.52063c-1.19497,0.54464 -2.501,1.01985 -3.37218,0.99067c-0.81126,-0.02716 -1.93551,-0.60207 -2.93447,-1.23262c-1.24924,-0.78853 -2.3025,-1.66401 -2.3025,-1.66401" fill="none" stroke-opacity="0.40392" stroke="#000000" stroke-width="2.5" stroke-linecap="round"/><path d="M283.76721,48.56437c0,0 -1.04934,1.20797 -2.30845,2.36397c-0.97609,0.89615 -2.07822,1.76109 -2.91527,2.00778c-0.77945,0.22971 -2.01776,0.03546 -3.15326,-0.25135c-1.41999,-0.35865 -2.67921,-0.86205 -2.67921,-0.86205" fill="none" stroke-opacity="0.40392" stroke="#000000" stroke-width="2.5" stroke-linecap="round"/><path d="M339.43364,87.13929c0,0 -0.86715,0.7305 -1.86516,1.33582c-0.7737,0.46926 -1.62606,0.86331 -2.21407,0.78347c-0.54756,-0.07436 -1.33657,-0.70925 -2.04438,-1.39189c-0.88514,-0.85367 -1.64327,-1.78196 -1.64327,-1.78196" fill="none" stroke-opacity="0.40392" stroke="#000000" stroke-width="2.5" stroke-linecap="round"/><path d="M341.50086,96.34046c0,0 -0.86715,0.7305 -1.86516,1.33583c-0.7737,0.46926 -1.62606,0.86331 -2.21407,0.78347c-0.54756,-0.07436 -1.33657,-0.70925 -2.04438,-1.39189c-0.88514,-0.85367 -1.64327,-1.78196 -1.64327,-1.78196" fill="none" stroke-opacity="0.40392" stroke="#000000" stroke-width="2.5" stroke-linecap="round"/><path d="M341.16763,105.9711c0,0 -0.86715,0.7305 -1.86516,1.33583c-0.7737,0.46926 -1.62605,0.86331 -2.21406,0.78346c-0.54757,-0.07433 -1.33658,-0.70924 -2.04438,-1.39188c-0.88514,-0.85367 -1.64327,-1.78196 -1.64327,-1.78196" fill="none" stroke-opacity="0.40392" stroke="#000000" stroke-width="2.5" stroke-linecap="round"/><path d="M237.80574,100.8394c0,0 -0.40332,1.13611 -0.95094,2.24612c-0.43793,0.88763 -0.96813,1.75856 -1.45821,2.01857c-0.5263,0.27921 -1.4592,0.20458 -2.34323,0.03192c-1.14035,-0.22272 -2.19936,-0.6086 -2.19936,-0.6086" fill="none" stroke-opacity="0.40392" stroke="#000000" stroke-width="2.5" stroke-linecap="round"/><path d="M240.11849,107.03973c0,0 -0.40332,1.13611 -0.95094,2.24611c-0.43793,0.88763 -0.96813,1.75856 -1.45822,2.01857c-0.5263,0.27921 -1.4592,0.20458 -2.34322,0.03192c-1.14035,-0.22274 -2.19936,-0.60862 -2.19936,-0.60862" fill="none" stroke-opacity="0.40392" stroke="#000000" stroke-width="2.5" stroke-linecap="round"/><path d="M241.88987,114.51968c0,0 -0.40332,1.13611 -0.95094,2.24611c-0.43793,0.88763 -0.96813,1.75856 -1.45822,2.01857c-0.5263,0.27921 -1.4592,0.20458 -2.34322,0.03192c-1.14035,-0.22274 -2.19936,-0.60862 -2.19936,-0.60862" fill="none" stroke-opacity="0.40392" stroke="#000000" stroke-width="2.5" stroke-linecap="round"/><path d="M282.30463,115.8133l4.67553,4.96875" fill="none" stroke="#000000" stroke-width="2.5" stroke-linecap="round"/><path d="M292.54989,120.57714l3.84339,-7.28457" fill="none" stroke="#000000" stroke-width="2.5" stroke-linecap="round"/><path d="M198.5258,25.74756c0,0 -5.75638,-11.60142 17.51146,-15.49526c4.82088,-0.80676 32.65415,3.44918 45.07312,4.51869c2.73113,0.2352 4.71677,0.31629 5.54824,0.15555c9.31501,-1.80082 47.88993,-5.03752 60.3614,-7.87647c19.95924,-4.54343 12.99214,-8.65533 12.99214,-8.65533" fill="none" stroke="#000000" stroke-width="2.5" stroke-linecap="round"/><path d="M337.38899,4.39647c0,0 -7.69215,8.49236 -29.27639,13.32564c-9.61407,2.15284 -34.04434,1.16772 -41.08977,2.52059c-4.40725,0.84628 -34.4777,-1.62949 -40.03405,-0.71848c-21.55531,3.53418 -22.95239,10.47861 -22.95239,10.47861" fill="none" stroke="#000000" stroke-width="2.5" stroke-linecap="round"/><path d="M335.90534,10.48547c0,0 -8.03185,8.52019 -30.16417,13.29375c-7.40707,1.59758 -32.09126,0.43754 -37.59914,1.52319c-6.18189,1.21849 -23.47273,0.76166 -31.49034,2.15851c-18.75613,3.26775 -28.81974,8.26873 -28.81974,8.26873" fill="none" stroke="#000000" stroke-width="2.5" stroke-linecap="round"/><path d="M262.70833,90.70126c0.44202,1.89902 -3.85531,4.57566 -9.59834,5.97847c-5.74304,1.4028 -10.75701,1.00055 -11.19902,-0.89846c-0.44202,-1.89902 3.85531,-4.57566 9.59834,-5.97847c5.74304,-1.4028 10.75701,-1.00055 11.19902,0.89846z" fill="#000000" stroke="#000000" stroke-width="2.5" stroke-linecap="butt"/><path d="M323.0815,75.14719c0.44202,1.89902 -3.85531,4.57566 -9.59833,5.97847c-5.74304,1.4028 -10.75701,1.00055 -11.19902,-0.89846c-0.44202,-1.89902 3.85531,-4.57566 9.59833,-5.97847c5.74304,-1.4028 10.75701,-1.00055 11.19902,0.89846z" fill="#000000" stroke="#000000" stroke-width="2.5" stroke-linecap="butt"/><g stroke="none" stroke-width="0" stroke-linecap="butt"><path d="M254.97779,92.63388c0.09616,1.29487 -0.89838,2.42423 -2.22138,2.52248c-1.323,0.09825 -2.47346,-0.87181 -2.56962,-2.16668c-0.09616,-1.29487 0.89838,-2.42423 2.22138,-2.52248c1.323,-0.09825 2.47346,0.87181 2.56962,2.16668z" fill="#ffffff"/><g><path d="M256.61944,92.36986c0.16829,2.26605 -1.5478,4.24061 -3.83299,4.41031c-2.28519,0.16971 -4.27412,-1.52971 -4.4424,-3.79575c-0.16829,-2.26605 1.5478,-4.24061 3.83299,-4.41031c2.28519,-0.16971 4.27412,1.52971 4.4424,3.79575z" fill="url(#color-10)"/><path d="M254.04377,91.54501c0.37726,5.07992 -0.40892,9.27911 -1.75597,9.37914c-1.34706,0.10004 -2.74488,-3.93696 -3.12214,-9.01688c-0.37726,-5.07992 0.40892,-9.27911 1.75597,-9.37914c1.34706,-0.10004 2.74488,3.93696 3.12214,9.01688z" fill="url(#color-11)"/><path d="M256.05463,93.50776c0.37726,5.07991 -0.40892,9.27911 -1.75597,9.37914c-1.34706,0.10004 -2.74488,-3.93697 -3.12214,-9.01688c-0.37726,-5.07991 0.40893,-9.27911 1.75597,-9.37914c1.34706,-0.10004 2.74488,3.93696 3.12214,9.01688z" fill="url(#color-12)"/></g></g><g stroke="none" stroke-width="0" stroke-linecap="butt"><path d="M311.42717,75.67137c1.32302,-0.09825 2.47347,0.87181 2.56963,2.16668c0.09616,1.29487 -0.89838,2.42423 -2.22139,2.52248c-1.32302,0.09825 -2.47347,-0.87181 -2.56963,-2.16668c-0.09616,-1.29487 0.89838,-2.42423 2.22139,-2.52248z" fill="#ffffff"/><g><path d="M311.37613,73.76488c2.28519,-0.16971 4.27412,1.52972 4.4424,3.79575c0.16829,2.26605 -1.5478,4.24061 -3.83299,4.41031c-2.28519,0.16971 -4.27412,-1.52972 -4.4424,-3.79575c-0.16829,-2.26605 1.54779,-4.24061 3.83299,-4.41031z" fill="url(#color-13)"/><path d="M311.72469,67.59979c1.34706,-0.10004 2.7449,3.93696 3.12216,9.01688c0.37726,5.07991 -0.40893,9.27911 -1.75599,9.37915c-1.34706,0.10004 -2.74488,-3.93696 -3.12214,-9.01688c-0.37726,-5.07991 0.40891,-9.27911 1.75597,-9.37914z" fill="url(#color-14)"/><path d="M310.02581,69.83809c1.34706,-0.10004 2.7449,3.93696 3.12216,9.01688c0.37726,5.07991 -0.40893,9.27911 -1.75599,9.37915c-1.34706,0.10004 -2.74488,-3.93696 -3.12214,-9.01688c-0.37726,-5.07991 0.40892,-9.27911 1.75597,-9.37914z" fill="url(#color-15)"/></g></g><path d="M321.06986,139.37527c0.10027,0.50012 0.28033,2.79248 -0.22681,3.19927c-1.11943,0.89793 -4.05209,-0.20145 -7.54817,0.11101c-5.1852,0.4634 -12.05476,2.22577 -19.69321,3.57173c-9.32714,1.64352 -14.56076,2.91124 -18.66014,3.42723c-2.54677,0.32057 -4.38636,2.87389 -4.63538,1.63177c-0.31151,-1.55381 -3.11891,-4.71125 0.66,-6.83053c2.50472,-1.4047 8.05617,-2.44733 13.04298,-3.94612c3.18486,-0.9572 5.57025,-2.54421 8.63872,-3.0849c7.04459,-1.24132 12.17436,-1.22838 16.87904,-1.03165c3.23545,0.13529 4.66736,0.73738 6.31684,1.33901c0.93638,0.34155 2.97157,0.44754 2.88426,1.0543c-0.2417,1.67955 2.32115,0.45549 2.34187,0.55887z" fill="#ffffff" stroke="#000000" stroke-width="2.5" stroke-linecap="butt"/><path d="M315.18445,138.78527l-3.58426,3.70747l-6.33303,-4.83372l-9.78428,9.07985l-9.33816,-7.09885l-8.33731,8.91276l-6.11046,-4.06442" fill="none" stroke="#000000" stroke-width="2.5" stroke-linecap="round"/><path d="M241.89099,99.17507l18.82418,-4.64993" fill="none" stroke="#000000" stroke-width="2.5" stroke-linecap="round"/><path d="M307.79457,83.15562l21.25103,-6.54172" fill="none" stroke="#000000" stroke-width="2.5" stroke-linecap="round"/><path d="M301.88077,81.88326l7.21321,4.94132" fill="none" stroke="#000000" stroke-width="2.5" stroke-linecap="round"/><path d="M262.51758,91.13931l-2.87931,9.62742" fill="none" stroke="#000000" stroke-width="2.5" stroke-linecap="round"/><path d="M262.26556,85.71178c0,0 -7.31306,3.96594 -11.32752,5.13046c-3.91352,1.13524 -12.58054,2.23152 -12.58054,2.23152" fill="none" stroke="#000000" stroke-width="2.5" stroke-linecap="round"/><path d="M323.48243,69.62307c0,0 -8.38665,5.02493 -12.38857,6.27371c-3.91404,1.22136 -11.36516,1.1385 -11.36516,1.1385" fill="none" stroke="#000000" stroke-width="2.5" stroke-linecap="round"/></g></g></svg>