<svg version="1.1" xmlns="http://www.w3.org/2000/svg" xmlns:xlink="http://www.w3.org/1999/xlink" width="35.125" height="35.12434" viewBox="0,0,35.125,35.12434"><g transform="translate(-302.43752,-162.43783)"><g data-paper-data="{&quot;isPaintingLayer&quot;:true}" stroke="none" stroke-miterlimit="10" stroke-dasharray="" stroke-dashoffset="0" style="mix-blend-mode: normal"><path d="M337.56251,169.8317v20.49804c0,4.00745 -3.22497,7.23243 -7.23242,7.23243h-20.5c-3.66107,0 -6.66147,-2.69385 -7.1543,-6.21484c0.7952,3.03475 3.54108,5.26367 6.83204,5.26367h20.0332c3.9166,0 7.07032,-3.15372 7.07032,-7.07031v-20.03321c0,-3.2976 -2.23906,-6.0451 -5.28321,-6.83398c3.52994,0.48496 6.23438,3.49081 6.23438,7.15821z" fill-opacity="0.29839" fill="#000000" fill-rule="evenodd" stroke-width="4.54219" stroke-linecap="round" stroke-linejoin="round"/><path d="M309.50719,162.43783h20.03378c3.9166,0 7.06966,3.15307 7.06966,7.06966v20.03379c0,3.91659 -3.15307,7.06966 -7.06966,7.06966h-20.03378c-3.91659,0 -7.06967,-3.15307 -7.06967,-7.06966v-20.03379c0,-3.91659 3.15308,-7.06966 7.06967,-7.06966z" fill="#ffe900" fill-rule="evenodd" stroke-width="4.43922" stroke-linecap="round" stroke-linejoin="round"/><path d="M312.4294,180.59453c-0.71151,0.23717 -0.94869,-0.47434 -0.94869,-0.47434l-0.23139,-0.70016c-0.78465,-1.5624 -1.72244,-3.05535 -2.31585,-4.7022c-0.40474,0.08454 -0.82275,0.1005 -1.23638,0.03051c-4.24811,-0.71893 -1.62391,-5.43729 1.49514,-5.49032c0,0 0.14799,0 0.3125,0.06574c0.16451,-0.06574 0.3125,-0.06574 0.3125,-0.06574l0.83541,0.07918c2.2761,1.32225 1.41131,3.66406 -0.33487,4.80034c0.56399,1.65354 1.53971,3.14749 2.31737,4.70847l0.26861,0.79984c0,0 0.23717,0.71152 -0.47434,0.94869zM309.50473,170.69227c-0.16451,0.06574 -0.3125,0.06574 -0.3125,0.06574c-1.44885,-0.03704 -3.48156,2.14675 -1.25486,2.50968c1.33296,0.21726 3.8323,-1.98934 2.04445,-2.58886l-0.16459,0.07918c0,0 -0.14799,0 -0.3125,-0.06574z" fill="#000000" fill-rule="nonzero" stroke-width="0.5" stroke-linecap="butt" stroke-linejoin="miter"/><path d="M327.06723,180.13301c0,-0.31779 0.13466,-0.50093 0.28986,-0.60647c0.75396,-2.1479 1.73852,-4.01498 2.75516,-6.03659l-0.09233,-0.00201l-0.98191,-0.47319l-0.83599,-0.70278l-0.3825,-1.12031l0.15947,-1.0406l0.45648,-0.92229l0.80686,-0.89676l0.77211,-0.05317c0.18795,-0.39585 0.67777,-0.39585 0.67777,-0.39585c1.84915,0 2.57103,0.48814 3.66454,1.82016l0.17198,-0.05733l0.16899,0.57827l0.04032,0.07349c0,0 0.22568,0.45136 -0.06343,0.79872l-0.19857,0.64511l-0.65198,0.81941l-0.92732,0.62091l-0.95938,0.31658l-0.24122,0.00234c-0.00833,0.19319 -0.0831,0.34275 -0.0831,0.34275c-1.10343,2.20686 -2.17333,4.16884 -2.95931,6.52676l-0.83652,0.51283c0,0 -0.75,0 -0.75,-0.75zM330.31723,169.75801l-0.42511,-0.07402l-0.19314,0.35324l-0.29352,0.57772l-0.09053,0.4594l0.1175,0.37969l0.414,0.29722l0.5181,0.27681l0.57769,-0.02006l0.75486,0.00968l0.54062,-0.18342l0.57268,-0.37909l0.34802,-0.43059l0.11326,-0.27926c-0.82319,-1.02947 -1.07092,-1.32259 -2.28908,-1.35841c-0.19619,0.37108 -0.66536,0.37108 -0.66536,0.37108z" fill="#000000" fill-rule="nonzero" stroke-width="0.5" stroke-linecap="butt" stroke-linejoin="miter"/><path d="M332.19223,190.25801c-0.75,0 -0.75,-0.75 -0.75,-0.75l0.0102,-0.2517c-0.04422,-0.27048 -0.08843,-0.54096 -0.13264,-0.81144c0,-6.43727 -7.16369,-6.93686 -12.25256,-6.93686c-4.05439,0 -7.29811,0.98782 -9.48247,4.63685c-0.57419,0.9592 -1.35607,2.14247 -1.15006,3.25708c0,0 0.10607,0.74246 -0.63639,0.84853c-0.74246,0.10607 -0.84853,-0.63639 -0.84853,-0.63639c-0.74999,-6.42174 7.01219,-9.60607 12.11746,-9.60607c5.86724,0 13.74744,0.94726 13.74744,8.31314c0.03911,0.22952 0.07824,0.45905 0.11736,0.68857l0.0102,0.4983c0,0 0,0.75 -0.75,0.75z" fill="#000000" fill-rule="nonzero" stroke-width="0.5" stroke-linecap="butt" stroke-linejoin="miter"/></g></g></svg>