<svg version="1.1" xmlns="http://www.w3.org/2000/svg" xmlns:xlink="http://www.w3.org/1999/xlink" width="34.17311" height="34.17311" viewBox="0,0,34.17311,34.17311"><g transform="translate(-302.91347,-162.91347)"><g data-paper-data="{&quot;isPaintingLayer&quot;:true}" stroke="none" stroke-miterlimit="10" stroke-dasharray="" stroke-dashoffset="0" style="mix-blend-mode: normal"><path d="M309.98314,162.91348h20.03378c3.9166,0 7.06966,3.15307 7.06966,7.06966v20.03379c0,3.91659 -3.15306,7.06966 -7.06966,7.06966h-20.03378c-3.91659,0 -7.06967,-3.15307 -7.06967,-7.06966v-20.03379c0,-3.91659 3.15308,-7.06966 7.06967,-7.06966z" fill="#999999" fill-rule="evenodd" stroke-width="4.43922" stroke-linecap="round" stroke-linejoin="round"/><path d="M310.88484,168.02189c0.79548,0 0.79548,0.79547 0.79548,0.79547l-0.04022,0.50788c0.90807,2.74713 1.32594,5.58535 2.05288,8.3495c3.38569,0.15103 6.76639,0.43003 10.17131,0.29124c0.27761,-0.01131 0.84248,-0.09515 1.49406,-0.17937c0.20756,-3.38413 0.68234,-6.57327 1.61813,-9.85067l0.07954,-0.41097c0,0 0.156,-0.78003 0.93603,-0.62402c0.78003,0.156 0.62403,0.93604 0.62403,0.93604l-0.10986,0.53602c-0.88117,3.08203 -1.3349,6.07703 -1.54327,9.24896c0.08405,-0.00507 0.16696,-0.00924 0.24831,-0.01235c0.04153,-0.05442 0.07344,-0.0851 0.07344,-0.0851c1.40346,-1.34948 2.5983,-3.02273 4.0252,-4.30708c0.57675,-0.51913 1.07036,-1.4696 1.84474,-1.41992c1.35488,0.08693 1.11401,4.13191 1.15859,4.88338c0.26369,4.44557 -0.36305,9.73559 -1.63298,14.01395c-1.35859,2.9069 -3.40148,-0.31611 -5.08191,-1.7811l-0.09563,-0.08337c0,0 -0.00117,-0.00101 -0.00335,-0.00301c-0.95185,0.06847 -1.96448,-0.06193 -2.68212,-0.08566c-4.78352,-0.15822 -9.51826,-0.56775 -14.31119,-0.56775h-0.3788c0,0 -0.2068,0 -0.40952,-0.10545c-0.93926,1.00002 -2.17789,1.89501 -2.31782,2.89171c0,0 -0.17257,0.77654 -0.94909,0.60397c-0.77653,-0.17256 -0.60397,-0.9491 -0.60397,-0.9491c0.00539,-0.02023 0.01097,-0.04032 0.01673,-0.06028l-0.02285,-0.00415l0.18344,-1.0037l0.09099,-1.10291l0.09238,-0.95843l-0.00236,-1.55275l-0.00148,-1.58883l-0.00991,-1.58882l-0.0496,-7.95459l0.54042,-2.35264l1.84504,1.6308c0.70941,1.3135 1.12506,2.26411 2.29624,3.21866c0,0 0.13495,0.11245 0.22517,0.29509c0.3301,0.00464 0.66008,0.01182 0.98996,0.02107c-0.64078,-2.58859 -1.06326,-5.2244 -1.91144,-7.78889l-0.04021,-1.00732c0,0 0,-0.79547 0.79548,-0.79547zM313.4809,179.80683c-0.76193,0.22858 -0.99051,-0.53335 -0.99051,-0.53335c-0.00558,-0.01872 -0.01114,-0.03744 -0.01669,-0.05617c-0.51675,-0.01695 -1.0337,-0.02945 -1.55093,-0.03558c0.00568,2.24492 0.45944,5.25074 -0.22901,7.40136c4.22112,0.00519 8.40132,0.18506 12.61486,0.46469c0.6633,0.04402 4.85295,0.66346 5.16098,-0.1749c0.29026,-0.79 -0.10359,-1.68112 -0.10417,-2.52275c-0.0606,-1.03652 -0.00753,-4.46225 -0.62005,-5.23124c-0.14022,-0.17604 -0.40088,0.22739 -0.62381,0.25826c-1.05584,0.14621 -2.12773,0.13544 -3.19278,0.17848c-3.31619,0.13401 -6.60962,-0.12311 -9.9067,-0.27606c-0.05011,0.20459 -0.19108,0.42224 -0.54118,0.52726zM331.13597,190.31223c1.10185,-3.71768 1.62282,-8.15765 1.68133,-12.03635c0.01556,-1.03105 -0.12819,-2.05835 -0.18746,-3.08781c-0.01677,-0.29135 0.03715,-0.85743 0.0935,-1.30621c-0.48426,1.56205 -2.47156,3.14146 -3.7693,4.27566c0.88981,1.36727 0.92252,4.80774 1.00163,6.14512c0.00061,0.50704 0.02801,3.12492 -0.10162,3.3541c-0.15638,0.27644 -0.36377,0.49152 -0.60744,0.65789c0.94103,0.98177 2.42388,2.62866 1.88937,1.99759zM309.18915,186.06799c0.63708,-1.96246 0.14262,-4.87541 0.14262,-6.92838l0.09623,-0.81717c0.00239,-0.04556 0.00754,-0.08829 0.01508,-0.12838c-0.75101,-0.70834 -1.22628,-1.40863 -1.70073,-2.24304l0.04235,6.79427l0.00993,1.59303l0.00148,1.59306l0.0006,1.62915l-0.04985,0.52716c0.59974,-0.57466 1.16994,-1.18079 1.44228,-2.0197z" fill="#000000" fill-rule="nonzero" stroke-width="0.5" stroke-linecap="butt" stroke-linejoin="miter"/><path d="M313.97857,179.24924c3.29708,0.15295 6.6745,0.40612 9.99069,0.27212c1.06505,-0.04304 2.14371,-0.02208 3.19956,-0.16828c0.22292,-0.03087 0.48373,-0.43402 0.62394,-0.25798c0.61252,0.76899 0.56463,4.2255 0.62523,5.26201c0.00059,0.84163 0.39082,1.74618 0.10056,2.53618c-0.30803,0.83836 -4.51005,0.23691 -5.17335,0.19289c-4.21354,-0.27963 -8.47991,-0.47908 -12.70103,-0.48428c0.68845,-2.15062 0.23609,-5.19743 0.23041,-7.44235c0.51724,0.00614 1.03599,0.01507 1.55274,0.03202c0.00554,0.01873 0.10397,0.08869 0.10956,0.10741c0,0 0.13562,0.71087 0.89754,0.48229c0.3501,-0.10503 0.49403,-0.32744 0.54414,-0.53203z" data-paper-data="{&quot;noHover&quot;:false,&quot;origItem&quot;:[&quot;Path&quot;,{&quot;applyMatrix&quot;:true,&quot;segments&quot;:[[[626.9618,359.61366],[0.70021,-0.21006],[-1.52385,0.45716]],[[624.98079,358.54696],[0,0],[-0.01117,-0.03744]],[[624.94741,358.43461],[0.01109,0.03746],[-1.03351,-0.0339]],[[621.84554,358.36345],[1.03447,0.01227],[0.01136,4.48984]],[[621.38753,373.16618],[1.3769,-4.30125],[8.44224,0.01039]],[[646.61725,374.09556],[-8.42708,-0.55925],[1.32659,0.08803]],[[656.9392,373.74576],[-0.61606,1.67671],[0.58052,-1.57999]],[[656.73085,368.70026],[0.00117,1.68327],[-0.1212,-2.07303]],[[655.49075,358.23778],[1.22504,1.53798],[-0.28043,-0.35207]],[[654.24314,358.75429],[0.44585,-0.06174],[-2.11169,0.29242]],[[647.85758,359.11125],[2.1301,-0.08607],[-6.63237,0.26801]],[[628.04417,358.55913],[6.59416,0.30591],[-0.10022,0.40918]]],&quot;closed&quot;:true}]}" fill="#ffc500" fill-rule="nonzero" stroke-width="0.5" stroke-linecap="butt" stroke-linejoin="miter"/><path d="M307.73924,188.14016l0.0496,-0.5272l-0.00376,-1.62972l-0.00839,-1.59503l-0.03218,-1.60834l-0.00982,-6.88134c0.47445,0.83442 0.96843,1.53531 1.71944,2.24365c-0.00754,0.04009 -0.01252,0.08286 -0.01491,0.12842l-0.09487,0.81749c0,2.05298 0.48916,5.06997 -0.14792,7.03243c-0.27234,0.83891 -0.85744,1.44499 -1.45718,2.01964z" data-paper-data="{&quot;noHover&quot;:false,&quot;origItem&quot;:[&quot;Path&quot;,{&quot;applyMatrix&quot;:true,&quot;segments&quot;:[[[618.37829,372.13597],[-0.54468,1.67782],[1.27416,-3.92492]],[[618.66353,358.2792],[0,4.10596],[0,0]],[[618.856,356.64486],[0,0],[0.00479,-0.09112]],[[618.88616,356.3881],[-0.01507,0.08018],[-1.50202,-1.41668]],[[615.4847,351.90201],[0.9489,1.66883],[0,0]],[615.56941,365.49056],[615.58927,368.67662],[615.59223,371.86274],[615.59342,375.12103],[[615.49373,376.17536],[0,0],[1.19947,-1.14932]]],&quot;closed&quot;:true}]}" fill="#ffc500" fill-rule="nonzero" stroke-width="0.5" stroke-linecap="butt" stroke-linejoin="miter"/><path d="M329.23294,188.36588c0.24367,-0.16637 0.47453,-0.4848 0.63091,-0.76125c0.12964,-0.22917 0.07124,-2.74633 0.07063,-3.25337c-0.07912,-1.33738 -0.11365,-4.87424 -1.00347,-6.2415c1.29775,-1.13421 3.31954,-2.71761 3.8038,-4.27966c-0.05635,0.44878 -0.1089,1.01519 -0.09213,1.30653c0.05928,1.02946 0.21374,2.0607 0.19818,3.09175c-0.05851,3.8787 -0.60142,8.41918 -1.70327,12.13686c0.53451,0.63107 -0.96364,-1.01759 -1.90467,-1.99936z" data-paper-data="{&quot;noHover&quot;:false,&quot;origItem&quot;:[&quot;Path&quot;,{&quot;applyMatrix&quot;:true,&quot;segments&quot;:[[[662.27195,380.62446],[1.06901,1.26214],[2.2037,-7.43536]],[[665.6346,356.55176],[-0.11702,7.75741],[0.03111,-2.06209]],[[665.25967,350.37615],[0.11855,2.05892],[-0.03355,-0.58269]],[[665.44667,347.76374],[-0.11269,0.89755],[-0.96853,3.1241]],[[657.90807,356.31506],[2.59549,-2.26841],[1.77962,2.73453]],[[659.91133,368.60529],[-0.15823,-2.67476],[0.00121,1.01407]],[[659.70809,375.31349],[0.25927,-0.45835],[-0.31276,0.55289]],[[658.4932,376.62927],[0.48734,-0.33274],[1.88206,1.96354]]],&quot;closed&quot;:true}]}" fill="#ffc500" fill-rule="nonzero" stroke-width="0.5" stroke-linecap="butt" stroke-linejoin="miter"/></g></g></svg>