<svg version="1.1" xmlns="http://www.w3.org/2000/svg" xmlns:xlink="http://www.w3.org/1999/xlink" width="189.35468" height="282.95228" viewBox="0,0,189.35468,282.95228"><defs><linearGradient x1="223.93327" y1="120.72198" x2="274.17259" y2="117.29738" gradientUnits="userSpaceOnUse" id="color-1"><stop offset="0" stop-color="#ffe23b"/><stop offset="1" stop-color="#631917"/></linearGradient><linearGradient x1="222.56314" y1="130.09475" x2="270.42617" y2="126.83214" gradientUnits="userSpaceOnUse" id="color-2"><stop offset="0" stop-color="#ffe23b"/><stop offset="1" stop-color="#631917"/></linearGradient><linearGradient x1="353.20302" y1="114.12918" x2="403.44234" y2="110.70459" gradientUnits="userSpaceOnUse" id="color-3"><stop offset="0" stop-color="#3c0000"/><stop offset="1" stop-color="#ffe23b"/></linearGradient><linearGradient x1="317.52254" y1="175.47685" x2="320.91438" y2="354.27706" gradientUnits="userSpaceOnUse" id="color-4"><stop offset="0" stop-color="#fbc74c"/><stop offset="1" stop-color="#fa954b"/></linearGradient><linearGradient x1="355.32268" y1="123.30313" x2="403.18572" y2="120.04052" gradientUnits="userSpaceOnUse" id="color-5"><stop offset="0" stop-color="#3c0000"/><stop offset="1" stop-color="#ffe23b"/></linearGradient><linearGradient x1="353.44458" y1="136.51447" x2="409.58559" y2="132.68758" gradientUnits="userSpaceOnUse" id="color-6"><stop offset="0" stop-color="#3c0000"/><stop offset="1" stop-color="#ffe23b"/></linearGradient><linearGradient x1="220.82993" y1="143.33528" x2="276.97094" y2="139.50839" gradientUnits="userSpaceOnUse" id="color-7"><stop offset="0" stop-color="#ffe23b"/><stop offset="1" stop-color="#631917"/></linearGradient><linearGradient x1="337.17985" y1="179.18476" x2="377.64886" y2="176.42617" gradientUnits="userSpaceOnUse" id="color-8"><stop offset="0" stop-color="#3c0000"/><stop offset="1" stop-color="#ffe23b"/></linearGradient><linearGradient x1="317.03461" y1="170.50878" x2="317.66256" y2="203.6113" gradientUnits="userSpaceOnUse" id="color-9"><stop offset="0" stop-color="#fbc74c"/><stop offset="1" stop-color="#fa8c4b"/></linearGradient><linearGradient x1="257.49472" y1="179.8088" x2="297.96374" y2="177.05021" gradientUnits="userSpaceOnUse" id="color-10"><stop offset="0" stop-color="#ffe23b"/><stop offset="1" stop-color="#631917"/></linearGradient><linearGradient x1="312.2439" y1="80.98404" x2="319.34067" y2="185.09466" gradientUnits="userSpaceOnUse" id="color-11"><stop offset="0" stop-color="#ceb037"/><stop offset="1" stop-color="#ffec7f"/></linearGradient><linearGradient x1="330.95221" y1="71.01068" x2="333.24834" y2="104.69519" gradientUnits="userSpaceOnUse" id="color-12"><stop offset="0" stop-color="#d0b23a"/><stop offset="1" stop-color="#dabf49"/></linearGradient><linearGradient x1="340.82855" y1="205.61872" x2="341.8348" y2="222.22909" gradientUnits="userSpaceOnUse" id="color-13"><stop offset="0" stop-color="#ffde00"/><stop offset="1" stop-color="#ff9500"/></linearGradient><linearGradient x1="340.82855" y1="205.61872" x2="341.8348" y2="222.22909" gradientUnits="userSpaceOnUse" id="color-14"><stop offset="0" stop-color="#000000" stop-opacity="0.22745"/><stop offset="1" stop-color="#000000" stop-opacity="0.58824"/></linearGradient><linearGradient x1="348.05259" y1="209.73" x2="349.05883" y2="226.34036" gradientUnits="userSpaceOnUse" id="color-15"><stop offset="0" stop-color="#ffce4e"/><stop offset="1" stop-color="#ff824f"/></linearGradient><linearGradient x1="348.05259" y1="209.73" x2="349.05883" y2="226.34036" gradientUnits="userSpaceOnUse" id="color-16"><stop offset="0" stop-color="#000000" stop-opacity="0.22745"/><stop offset="1" stop-color="#000000" stop-opacity="0.58824"/></linearGradient></defs><g transform="translate(-221.26246,-70.34167)"><g stroke-miterlimit="10"><path d="M263.9871,133.28556c0,0 -16.06604,-5.46743 -22.70554,-9.95716c-7.0348,-4.75703 -18.38599,-17.82955 -18.38599,-17.82955c0,0 8.58213,5.87166 14.43067,5.72022c9.40984,-0.24366 36.18316,-3.65063 36.18316,-3.65063z" fill="url(#color-1)" stroke="#000000" stroke-width="0" stroke-linecap="butt"/><path d="M255.37414,147.02779c0,0 -14.50388,-8.81181 -20.01559,-14.63089c-5.83987,-6.16554 -14.09609,-21.38312 -14.09609,-21.38312c0,0 7.1096,7.58835 12.85253,8.70503c9.23994,1.79664 36.11661,4.25904 36.11661,4.25904z" fill="url(#color-2)" stroke="#000000" stroke-width="0" stroke-linecap="butt"/><path d="M352.53984,104.40023c0,0 26.98799,-0.25771 36.34385,-1.29321c5.81498,-0.6436 13.52095,-7.62556 13.52095,-7.62556c0,0 -9.47224,14.49195 -15.79643,20.15962c-5.96883,5.34918 -21.14432,12.94621 -21.14432,12.94621z" fill="url(#color-3)" stroke="#000000" stroke-width="0" stroke-linecap="butt"/><path d="M271.26468,351.57963l-5.03724,-147.20673c0,0 6.49419,-25.82603 16.82304,-26.42727c10.25739,-0.59707 34.57789,-1.61516 55.81463,-2.85135c23.03375,-1.3408 30.72499,25.3965 30.72499,25.3965l3.14889,152.80317z" fill="url(#color-4)" stroke="#000000" stroke-width="0" stroke-linecap="butt"/><path d="M355.12811,120.44883c0,0 26.2939,-6.0868 35.20457,-9.12069c5.53828,-1.88566 11.55237,-10.3686 11.55237,-10.3686c0,0 -6.11481,16.1972 -11.06398,23.09816c-4.67107,6.51318 -17.84501,17.21169 -17.84501,17.21169z" fill="url(#color-5)" stroke="#000000" stroke-width="0" stroke-linecap="butt"/><path d="M361.62079,117.54307c0,0 23.05135,20.25671 31.76034,26.47774c5.41294,3.86659 17.23601,3.79994 17.23601,3.79994c0,0 -19.01652,5.08678 -28.67232,5.08869c-9.1132,0.00179 -27.72879,-5.07754 -27.72879,-5.07754z" fill="url(#color-6)" stroke="#000000" stroke-width="0" stroke-linecap="butt"/><path d="M277.7424,150.8258c0,0 -17.75413,7.5585 -26.78328,8.79339c-9.56673,1.3084 -29.09763,-1.15077 -29.09763,-1.15077c0,0 11.72275,-1.53836 16.56092,-6.10371c7.78424,-7.34531 27.87352,-30.54271 27.87352,-30.54271z" fill="url(#color-7)" stroke="#000000" stroke-width="0" stroke-linecap="butt"/><path d="M363.11789,149.86245c0,0 10.24188,16.3537 12.87355,25.07865c2.78833,9.24442 3.41365,28.91959 3.41365,28.91959c0,0 -3.35263,-11.33797 -8.6184,-15.40269c-8.47222,-6.53981 -34.52578,-22.75434 -34.52578,-22.75434z" fill="url(#color-8)" stroke="#000000" stroke-width="0" stroke-linecap="butt"/><path d="M291.2098,174.59975c10.59953,-4.33857 22.9442,-3.79311 34.37812,-4.01001c4.64488,-0.08811 10.51169,-1.11675 14.87371,0.5289c3.39351,1.28026 9.47168,1.15107 11.98944,3.66139c2.63124,2.62347 -1.70167,7.67232 -3.51776,9.34511c-6.13279,5.64891 -17.71784,17.2435 -25.8451,19.18394c-9.31805,2.22475 -23.73585,-11.79396 -31.35586,-16.82383c-1.39855,-0.92317 -10.16975,-4.71796 -10.5768,-5.52798c-0.77977,-1.55165 7.70467,-6.15129 9.24015,-6.69569z" fill="url(#color-9)" stroke="#000000" stroke-width="0" stroke-linecap="round"/><path d="M297.04479,163.5691c0,0 -23.61223,19.60002 -31.11865,27.22903c-4.66548,4.74168 -6.44853,16.42973 -6.44853,16.42973c0,0 -2.0504,-19.57803 -0.54233,-29.11532c1.42334,-9.00136 9.35128,-26.59362 9.35128,-26.59362z" fill="url(#color-10)" stroke="#000000" stroke-width="0" stroke-linecap="butt"/><path d="M370.34258,127.84512c1.90442,27.93808 -20.56125,55.17454 -50.74384,57.23195c-30.18259,2.05741 -56.6526,-21.84332 -58.55701,-49.78139c-1.90441,-27.93807 21.0196,-52.25422 51.20219,-54.31163c30.18259,-2.05741 56.19426,18.923 58.09867,46.86107z" fill="url(#color-11)" stroke="#000000" stroke-width="0" stroke-linecap="butt"/><path d="M331.47335,128.31737c0.18422,2.70257 -6.30346,5.34585 -14.49066,5.90394c-8.1872,0.55809 -14.97356,-1.18037 -15.15778,-3.88293c-0.18422,-2.70257 6.30346,-5.34585 14.49066,-5.90394c8.1872,-0.55809 14.97356,1.18037 15.15778,3.88293z" fill-opacity="0.18431" fill="#ff0505" stroke="none" stroke-width="0" stroke-linecap="butt"/><path d="M293.95934,126.78213c0.0805,1.18086 -2.15229,0.81581 -4.59951,0.98263c-2.44722,0.16682 -4.18217,0.80233 -4.26266,-0.37854c-0.0805,-1.18087 1.83812,-2.27339 4.28534,-2.44021c2.44722,-0.16682 4.49635,0.65524 4.57684,1.83611z" fill="#ffffff" stroke="#000000" stroke-width="2.5" stroke-linecap="butt"/><path d="M306.11169,84.78088c6.10469,-0.41613 11.49761,-1.46139 16.20535,-5.63851c2.21941,-1.96923 4.8216,-7.41991 7.84315,-8.05851c2.48793,-0.52582 3.20967,4.13696 5.43402,4.67551c4.13535,1.00125 10.75778,-1.95772 14.566,-3.37676c1.154,-0.43 4.75037,-2.48466 5.92367,-1.95401c2.05542,0.92965 -1.0114,6.94888 -1.69077,8.17611c-2.44813,4.42241 -2.52816,13.34234 -9.96986,19.40385c-4.69258,3.82226 -17.00533,5.58132 -19.88938,7.28066" fill="url(#color-12)" stroke="#000000" stroke-width="0" stroke-linecap="round"/><path d="M320.2805,185.7458l1.09261,18.00475l0.7688,119.71153l0.90238,27.77217" fill="none" stroke-opacity="0.61176" stroke="#000000" stroke-width="2.5" stroke-linecap="round"/><path d="M340.12429,129.46182l10.07662,-2.14731" fill="none" stroke="#000000" stroke-width="2.5" stroke-linecap="round"/><path d="M285.94095,173.01892l4.9662,-12.38208l27.99325,0.84424l26.95955,-4.55769l6.24446,11.74795z" fill="#000000" stroke="#000000" stroke-width="2.5" stroke-linecap="round"/><path d="M341.79676,129.62992l16.11915,-3.0321" fill="none" stroke="#000000" stroke-width="2.5" stroke-linecap="round"/><path d="M352.82315,124.36721l-4.10151,2.85735" fill="none" stroke="#000000" stroke-width="2.5" stroke-linecap="round"/><path d="M283.52107,131.8838l-8.32922,-2.43963" fill="none" stroke="#000000" stroke-width="2.5" stroke-linecap="round"/><path d="M277.21346,127.58786l3.43569,-0.01938" fill="none" stroke="#000000" stroke-width="2.5" stroke-linecap="round"/><path d="M289.06086,137.52097l7.20197,-7.79459" fill="none" stroke="#000000" stroke-width="2.5" stroke-linecap="round"/><path d="M334.75046,127.10284l7.40587,4.6507" fill="none" stroke="#000000" stroke-width="2.5" stroke-linecap="round"/><path d="M346.69028,132.08893l4.90329,-0.54905" fill="none" stroke="#000000" stroke-width="2.5" stroke-linecap="round"/><path d="M280.50324,134.88209l3.06636,0.86505l-0.9079,9.5931" fill="none" stroke="#000000" stroke-width="2.5" stroke-linecap="round"/><path d="M294.07305,109.16804c0,0 -3.00978,8.96178 -5.68,10.39267c-2.96377,1.58819 -11.31396,-1.28616 -11.31396,-1.28616" fill="none" stroke="#000000" stroke-width="2.5" stroke-linecap="round"/><path d="M346.75143,124.14173c0.0805,1.18086 -2.15229,0.81582 -4.59951,0.98264c-2.44722,0.16682 -4.18217,0.80233 -4.26266,-0.37854c-0.0805,-1.18087 1.83812,-2.27339 4.28534,-2.44021c2.44722,-0.16682 4.49635,0.65524 4.57684,1.83612z" fill="#ffffff" stroke="#000000" stroke-width="2.5" stroke-linecap="butt"/><path d="M349.80708,113.74663c0,0 -7.88291,3.98088 -11.03478,2.80958c-2.8397,-1.0553 -7.03776,-9.52576 -7.03776,-9.52576" fill="none" stroke="#000000" stroke-width="2.5" stroke-linecap="round"/><path d="M307.62021,124.10337l-2.33264,3.59603" fill="none" stroke="#000000" stroke-width="2.5" stroke-linecap="round"/><path d="M310.76425,129.2594l-0.33523,-4.91787" fill="none" stroke="#000000" stroke-width="2.5" stroke-linecap="round"/><path d="M315.72584,129.56563l0.84567,-6.50206" fill="none" stroke="#000000" stroke-width="2.5" stroke-linecap="round"/><path d="M322.08215,128.2731l-0.54905,-4.90329" fill="none" stroke="#000000" stroke-width="2.5" stroke-linecap="round"/><path d="M326.00875,122.8499l2.14301,3.07613" fill="none" stroke="#000000" stroke-width="2.5" stroke-linecap="round"/><path d="M357.41133,125.07455c0.1335,1.95853 -2.08312,3.70469 -4.95095,3.90018c-2.86784,0.19549 -5.3009,-1.23373 -5.43441,-3.19225c-0.1335,-1.95853 2.08312,-3.70469 4.95095,-3.90018c2.86784,-0.19549 5.3009,1.23373 5.43441,3.19225z" fill="#ffffff" stroke="#000000" stroke-width="2.5" stroke-linecap="butt"/><path d="M284.8238,129.98621c0.15789,2.31626 -2.21772,4.36462 -5.30608,4.57515c-3.08835,0.21051 -5.71996,-1.49652 -5.87785,-3.81279c-0.15789,-2.31626 2.21772,-4.36462 5.30608,-4.57515c3.08835,-0.21051 5.71996,1.49652 5.87785,3.81279z" fill="#ffffff" stroke="#000000" stroke-width="2.5" stroke-linecap="butt"/><path d="M346.32577,172.61024l1.19174,-4.91632l-1.52568,7.48387l-0.87489,-9.10158" fill="none" stroke="#000000" stroke-width="2.5" stroke-linecap="round"/><path d="M343.7698,168.71281l-0.29371,6.89094l-0.42008,-9.89603" fill="none" stroke="#000000" stroke-width="2.5" stroke-linecap="round"/><path d="M341.87565,178.25762l-0.58706,-8.61224l0.90373,5.7914" fill="none" stroke="#000000" stroke-width="2.5" stroke-linecap="round"/><path d="M340.54595,169.95048l0.33394,-2.56755" fill="none" stroke="#000000" stroke-width="2.5" stroke-linecap="round"/><path d="M337.79416,170.647l0.82327,-2.85538l0.22447,3.29292" fill="none" stroke="#000000" stroke-width="2.5" stroke-linecap="round"/><path d="M334.75455,170.85421l0.92688,-1.33558l0.17267,2.53301" fill="none" stroke="#000000" stroke-width="2.5" stroke-linecap="round"/><path d="M334.07529,168.35573l0.58706,8.61224l-1.71544,-6.4995" fill="none" stroke="#000000" stroke-width="2.5" stroke-linecap="round"/><path d="M331.46733,174.89546l1.12267,-5.92953l1.62322,12.61327" fill="none" stroke="#000000" stroke-width="2.5" stroke-linecap="round"/><path d="M329.07834,169.71425l1.45073,-1.1168l-0.29941,3.07415z" fill="none" stroke="#000000" stroke-width="2.5" stroke-linecap="round"/><path d="M325.89379,144.47308l1.3772,15.04044l-1.019,-9.78544" fill="none" stroke="#000000" stroke-width="2.5" stroke-linecap="round"/><path d="M329.34911,159.0199l-1.1864,3.24852l-1.19429,-2.03036" fill="none" stroke="#000000" stroke-width="2.5" stroke-linecap="round"/><path d="M333.76802,161.88632l-1.73566,-4.80914l-1.09088,4.64985l-1.035,-4.8569" fill="none" stroke="#000000" stroke-width="2.5" stroke-linecap="round"/><path d="M324.89868,135.03797l-0.26269,-3.85367" fill="none" stroke="#000000" stroke-width="2.5" stroke-linecap="round"/><path d="M323.21028,161.90208l-0.78019,-6.28211" fill="none" stroke="#000000" stroke-width="2.5" stroke-linecap="round"/><path d="M339.85911,158.30348l-0.54138,-2.77879" fill="none" stroke="#000000" stroke-width="2.5" stroke-linecap="round"/><path d="M342.44684,154.95943l1.71177,4.45881" fill="none" stroke="#000000" stroke-width="2.5" stroke-linecap="round"/><path d="M347.89288,157.40389l2.64337,2.6355" fill="none" stroke="#000000" stroke-width="2.5" stroke-linecap="round"/><path d="M351.04588,157.18897l1.43309,5.53369l0.05563,5.97954l-0.50961,2.85043l-1.43309,-5.53369l-1.76768,5.04794l-0.98723,-4.15624" fill="none" stroke="#000000" stroke-width="2.5" stroke-linecap="round"/><path d="M355.21786,166.75949l-0.33433,-4.90465l0.56526,3.12911" fill="none" stroke="#000000" stroke-width="2.5" stroke-linecap="round"/><path d="M292.41876,132.7137l-10.2748,-0.76005l13.28297,1.26672l-10.28771,3.49385l4.27459,-5.91266" fill="none" stroke="#000000" stroke-width="2.5" stroke-linecap="round"/><path d="M285.37698,133.54044l-0.89983,7.45252" fill="none" stroke="#000000" stroke-width="2.5" stroke-linecap="round"/><path d="M283.48967,152.32303l-2.14163,-10.7648" fill="none" stroke="#000000" stroke-width="2.5" stroke-linecap="round"/><path d="M286.74581,174.27461l-1.17828,-6.9589l-2.24504,-17.445" fill="none" stroke="#000000" stroke-width="2.5" stroke-linecap="round"/><path d="M287.96397,176.6553l-2.39644,-9.33959" fill="none" stroke="#000000" stroke-width="2.5" stroke-linecap="round"/><g stroke-width="2.5" stroke-linecap="butt"><path d="M332.19025,211.31384c-0.07675,-1.10874 -0.0336,-1.54031 0.22105,-2.21201c0.02929,-0.07726 0.05978,-0.15327 0.09145,-0.22803c0.00554,-0.01377 0.01114,-0.02738 0.01683,-0.04082c0.10887,-0.25751 0.23462,-0.49868 0.37493,-0.72335c0.40699,-0.66297 0.93262,-1.19325 1.56734,-1.57889c0.62874,-0.382 0.9529,-0.56216 1.98151,-0.64264c0.11376,-0.01147 0.22773,-0.01873 0.34166,-0.02178c0.85386,-0.04224 1.18087,0.04552 1.67067,0.27304c0.95134,0.35354 1.79039,1.0507 2.32416,2.10525l0.23603,0.46632l0.17801,-0.49141c0.40256,-1.11127 1.15132,-1.90462 2.05302,-2.37042c0.45875,-0.28498 0.77277,-0.41158 1.6255,-0.47272c0.11346,-0.01073 0.22749,-0.01728 0.34179,-0.01962c1.03082,-0.0443 1.37433,0.09543 2.04459,0.39873c0.67662,0.3062 1.26241,0.76915 1.74644,1.37812c0.16641,0.20611 0.32037,0.43034 0.45954,0.67283c0.00726,0.01265 0.01448,0.0255 0.02164,0.03851c0.04047,0.07038 0.07991,0.14216 0.11831,0.21531c0.33387,0.63604 0.4288,1.05925 0.48645,2.16915c0.00119,0.02289 0.0023,0.04573 0.00333,0.06851c0.06831,0.86286 0.02184,1.74332 -0.16273,2.39724c-0.51074,1.80936 -1.60902,3.23168 -4.22191,5.46759c-1.71357,1.46637 -3.61656,3.64323 -3.73878,3.94018c-0.06637,0.1612 -0.20144,0.16939 -0.28678,0.01738c-0.15718,-0.28003 -2.30903,-2.21124 -4.18708,-3.46004c-2.86369,-1.90414 -4.12561,-3.1835 -4.85104,-4.91797c-0.26218,-0.62686 -0.41459,-1.49528 -0.45093,-2.36007c-0.00173,-0.02274 -0.00338,-0.04554 -0.00497,-0.06841z" fill="url(#color-13)" stroke="url(#color-14)"/><path d="M339.41431,215.42511c-0.07675,-1.10874 -0.03362,-1.54032 0.22103,-2.21202c0.02929,-0.07726 0.05979,-0.15326 0.09145,-0.22801c0.00554,-0.01377 0.01113,-0.02737 0.01682,-0.04081c0.10887,-0.25751 0.23462,-0.49869 0.37493,-0.72337c0.40699,-0.66297 0.93262,-1.19324 1.56733,-1.57889c0.62874,-0.382 0.95289,-0.56216 1.9815,-0.64264c0.11376,-0.01147 0.22775,-0.01873 0.34167,-0.02177c0.85386,-0.04224 1.18087,0.04552 1.67067,0.27303c0.95134,0.35354 1.79039,1.05071 2.32416,2.10527l0.23603,0.46631l0.17801,-0.49139c0.40256,-1.11127 1.15132,-1.90463 2.05302,-2.37042c0.45875,-0.28498 0.77276,-0.41158 1.62549,-0.47272c0.11346,-0.01073 0.22749,-0.01728 0.34179,-0.01963c1.03082,-0.0443 1.37433,0.09543 2.0446,0.39874c0.67662,0.3062 1.26241,0.76913 1.74644,1.37812c0.16641,0.20611 0.32037,0.43034 0.45953,0.67284c0.00726,0.01265 0.01447,0.02549 0.02163,0.03849c0.04047,0.07038 0.07991,0.14216 0.11831,0.2153c0.33387,0.63604 0.42881,1.05926 0.48645,2.16915c0.00119,0.02289 0.0023,0.04573 0.00333,0.06851c0.06832,0.86285 0.02185,1.74332 -0.16273,2.39724c-0.51074,1.80936 -1.60902,3.23169 -4.22191,5.4676c-1.71357,1.46637 -3.61656,3.64323 -3.73878,3.94018c-0.06637,0.1612 -0.20145,0.16938 -0.28678,0.01737c-0.15718,-0.28003 -2.30901,-2.21124 -4.18707,-3.46004c-2.86369,-1.90414 -4.12562,-3.1835 -4.85106,-4.91797c-0.26218,-0.62686 -0.41459,-1.49527 -0.45093,-2.36007c-0.00173,-0.02274 -0.00338,-0.04554 -0.00497,-0.06841z" fill="url(#color-15)" stroke="url(#color-16)"/></g></g></g></svg>