<svg version="1.1" xmlns="http://www.w3.org/2000/svg" xmlns:xlink="http://www.w3.org/1999/xlink" width="201.18957" height="316.88459" viewBox="0,0,201.18957,316.88459"><defs><linearGradient x1="317.21457" y1="173.76154" x2="321.30045" y2="352.19219" gradientUnits="userSpaceOnUse" id="color-1"><stop offset="0" stop-color="#2b2b2b"/><stop offset="1" stop-color="#171717"/></linearGradient><linearGradient x1="317.04612" y1="168.28695" x2="317.75332" y2="199.17028" gradientUnits="userSpaceOnUse" id="color-2"><stop offset="0" stop-color="#6e6e6e"/><stop offset="1" stop-color="#ffffff"/></linearGradient><linearGradient x1="359.45422" y1="179.32566" x2="360.16802" y2="210.49745" gradientUnits="userSpaceOnUse" id="color-3"><stop offset="0" stop-color="#6e6e6e"/><stop offset="1" stop-color="#ffffff"/></linearGradient><linearGradient x1="274.2521" y1="183.06236" x2="274.96591" y2="214.23415" gradientUnits="userSpaceOnUse" id="color-4"><stop offset="0" stop-color="#6e6e6e"/><stop offset="1" stop-color="#ffffff"/></linearGradient><linearGradient x1="281.55939" y1="38.73674" x2="283.47146" y2="122.23668" gradientUnits="userSpaceOnUse" id="color-5"><stop offset="0" stop-color="#2d2d2d"/><stop offset="1" stop-color="#8c8c8c"/></linearGradient><linearGradient x1="349.12562" y1="36.36191" x2="351.03769" y2="119.86186" gradientUnits="userSpaceOnUse" id="color-6"><stop offset="0" stop-color="#1a1a1a"/><stop offset="1" stop-color="#8c8c8c"/></linearGradient><linearGradient x1="258.71463" y1="149.47743" x2="266.62655" y2="183.72965" gradientUnits="userSpaceOnUse" id="color-7"><stop offset="0" stop-color="#ababab"/><stop offset="1" stop-color="#ececec"/></linearGradient><radialGradient cx="317.60854" cy="167.09601" r="41.10423" gradientUnits="userSpaceOnUse" id="color-8"><stop offset="0" stop-color="#949494"/><stop offset="1" stop-color="#000000"/></radialGradient><radialGradient cx="288.47898" cy="126.87339" r="12.28059" gradientUnits="userSpaceOnUse" id="color-9"><stop offset="0" stop-color="#ffffff"/><stop offset="1" stop-color="#ffcece"/></radialGradient><linearGradient x1="288.39823" y1="120.19681" x2="288.68165" y2="132.57378" gradientUnits="userSpaceOnUse" id="color-10"><stop offset="0" stop-color="#000000"/><stop offset="1" stop-color="#505050"/></linearGradient><radialGradient cx="344.38982" cy="126.28431" r="12.2806" gradientUnits="userSpaceOnUse" id="color-11"><stop offset="0" stop-color="#ffffff"/><stop offset="1" stop-color="#ffb1b1"/></radialGradient><linearGradient x1="344.17461" y1="119.73382" x2="344.4647" y2="132.40183" gradientUnits="userSpaceOnUse" id="color-12"><stop offset="0" stop-color="#000000"/><stop offset="1" stop-color="#505050"/></linearGradient></defs><g transform="translate(-219.06567,-34.19494)"><g stroke-miterlimit="10"><path d="M274.76058,350.85214c0,0 -2.33589,-62.78925 -3.32376,-89.34303c-0.79469,-21.36141 -5.72457,-62.64295 -5.72457,-62.64295c0,0 9.52899,-21.10202 19.20794,-21.85477c9.61199,-0.74752 32.40425,-2.12227 52.30478,-3.66995c21.58445,-1.67865 30.79139,17.98232 30.79139,17.98232l1.87272,159.75578z" fill="url(#color-1)" stroke="#000000" stroke-width="0" stroke-linecap="butt"/><path d="M335.04733,183.32451c0.19529,8.5282 -7.54751,15.6226 -17.29403,15.84579c-9.74651,0.22319 -17.80593,-6.50936 -18.00122,-15.03756c-0.19529,-8.5282 7.54751,-15.6226 17.29403,-15.84579c9.74651,-0.22319 17.80593,6.50936 18.00122,15.03756z" fill="url(#color-2)" stroke="#000000" stroke-width="0" stroke-linecap="butt"/><path d="M366.4325,194.03845c0.19529,8.5282 1.70624,16.27648 -1.98681,16.36104c-3.69305,0.08456 -11.19161,-7.52659 -11.3869,-16.05479c-0.19529,-8.5282 -1.38476,-14.84088 2.30829,-14.92544c3.69305,-0.08456 10.87013,6.09099 11.06541,14.6192z" fill="url(#color-3)" stroke="#000000" stroke-width="0" stroke-linecap="butt"/><path d="M278.33925,182.96877c3.69305,-0.08456 2.79377,6.27593 2.98906,14.80414c0.19529,8.5282 -6.94701,16.47463 -10.64007,16.55919c-3.69305,0.08456 -2.53835,-7.72474 -2.73364,-16.25295c-0.19529,-8.5282 6.69159,-15.02582 10.38464,-15.11038z" fill="url(#color-4)" stroke="#000000" stroke-width="0" stroke-linecap="butt"/><path d="M266.28832,114.49147l-18.46545,-76.3468l69.13181,43.82662z" fill="url(#color-5)" stroke="#000000" stroke-width="0" stroke-linecap="butt"/><path d="M315.74645,81.17129l68.41713,-46.97634l-16.3153,77.14325z" fill="url(#color-6)" stroke="#000000" stroke-width="0" stroke-linecap="butt"/><path d="M277.58984,178.41703c-6.42475,1.48406 -13.17118,2.68701 -19.31516,5.05059c-2.58639,0.99498 -3.3372,6.23427 -3.3372,6.23427c0,0 -1.98104,-5.93861 -2.09534,-7.41923c-0.725,-9.39058 -3.02792,-28.32656 3.47912,-34.47464c1.08541,-1.02554 2.28718,-1.96486 3.56192,-2.8388c-6.11739,-0.24725 -5.17256,2.72053 -11.21806,3.36624c-2.75549,0.29432 -10.9393,0.00205 -10.9393,0.00205c0,0 -0.3825,-6.24861 -0.1111,-7.70864c1.7213,-9.25991 2.32205,-19.65741 10.19452,-23.9194c5.00753,-2.71097 11.32618,-3.7742 16.93114,-4.9266c6.59514,-22.71364 29.14408,-38.86481 55.15915,-37.68981c23.76906,1.07354 43.35255,16.29092 50.0049,36.61739c4.86939,0.75489 5.0616,4.25238 9.34107,6.32177c8.05931,3.89716 12.31179,12.39519 14.45514,21.5666c0.33794,1.44607 0.24187,7.70566 0.24187,7.70566c0,0 -4.27047,-1.2109 -7.03654,-1.37878c-4.65222,-0.28235 -4.46928,-2.53587 -9.18786,-2.1134c0.42211,0.27792 0.83394,0.56596 1.23393,0.86507c7.16929,5.36113 9.79229,22.78378 10.14919,32.19554c0.05628,1.48397 -1.23052,7.61061 -1.23052,7.61061c0,0 -3.1919,-3.5175 -5.87534,-4.20925c-6.37453,-1.64326 -13.21441,-2.06444 -19.76699,-2.80177c-1.53651,-0.17289 -7.88396,-0.33312 -8.89002,-1.28014c-0.16254,-0.15302 -0.2837,-0.38442 -0.37129,-0.67374c-9.98815,8.31135 -22.87286,13.2671 -36.77316,12.63927c-11.22167,-0.50683 -21.52736,-4.58136 -29.9842,-10.96454c-1.09358,1.02627 -7.14561,1.88316 -8.61985,2.2237z" fill="url(#color-7)" stroke="#000000" stroke-width="0" stroke-linecap="round"/><path d="M368.49564,104.8951c-0.12587,-5.4967 8.60524,-9.92483 13.0199,-10.95083c11.97168,-2.78229 28.19891,7.2445 37.48971,15.59889" fill="none" stroke="#000000" stroke-width="2.5" stroke-linecap="round"/><path d="M368.57442,108.33535c9.93754,-6.95883 35.10293,9.35962 41.76918,18.01509" fill="none" stroke="#000000" stroke-width="2.5" stroke-linecap="round"/><path d="M220.31568,99.53134c2.84376,-1.94722 5.81885,-7.61531 9.26793,-8.35266c10.1984,-2.18026 21.38176,5.59474 29.35537,10.81517c2.80851,1.83877 6.63971,4.01588 8.57405,6.77822" fill="none" stroke="#000000" stroke-width="2.5" stroke-linecap="round"/><path d="M231.38829,113.56992c1.1036,-1.7791 2.45784,-4.32416 4.3,-5.42714c2.20287,-1.31895 6.46837,-0.73724 8.91359,-0.51207c6.56937,0.60497 13.39534,0.70386 19.80514,2.15125" fill="none" stroke="#000000" stroke-width="2.5" stroke-linecap="round"/><path d="M331.33295,123.2148c0.06201,2.70813 -6.53841,5.0558 -14.74244,5.24366c-8.20405,0.18786 -14.905,-1.85521 -14.96702,-4.56335c-0.06201,-2.70813 6.53841,-5.0558 14.74244,-5.24366c8.20405,-0.18786 14.905,1.85521 14.96702,4.56335z" fill-opacity="0.18431" fill="#000000" stroke="none" stroke-width="0" stroke-linecap="butt"/><path d="M275.93706,142.79501c0,0 26.33998,1.47562 39.09665,1.0379c14.42601,-0.49502 43.06879,-3.85729 43.06879,-3.85729c0,0 -1.63272,18.88209 -4.13034,23.54326c-2.32336,4.33595 -9.53344,10.27364 -9.53344,10.27364c0,0 -5.55379,4.01677 -9.63688,5.58113c-4.5457,1.74161 -16.39873,4.39399 -16.39873,4.39399c0,0 -13.16151,-2.64477 -18.27944,-4.20713c-4.58886,-1.40086 -11.01445,-4.73547 -11.01445,-4.73547c0,0 -6.53641,-5.91841 -8.6651,-10.28015c-1.97087,-4.03836 -4.50705,-21.74986 -4.50705,-21.74986z" fill="url(#color-8)" stroke="#000000" stroke-width="2.5" stroke-linecap="round"/><path d="M301.36783,118.43957c0.15333,6.69556 -6.01691,12.26754 -12.7975,12.42281c-6.7806,0.15527 -12.40167,-5.14671 -12.555,-11.84227c-0.15333,-6.69558 5.21916,-12.2493 11.99976,-12.40457c6.7806,-0.15527 13.19941,5.12844 13.35274,11.82402z" fill="url(#color-9)" stroke="#000000" stroke-width="2.5" stroke-linecap="butt"/><path d="M298.62116,118.36016c0.12445,5.43475 -4.23637,9.94269 -9.74016,10.06872c-5.5038,0.12603 -10.0664,-4.17756 -10.19085,-9.61232c-0.12445,-5.43479 4.23637,-9.94272 9.74017,-10.06875c5.5038,-0.12603 10.06639,4.17757 10.19084,9.61235z" fill="#000000" stroke="#000000" stroke-width="0" stroke-linecap="butt"/><path d="M294.62074,118.10737c0.07827,3.41779 -2.66415,6.25273 -6.12536,6.33199c-3.46121,0.07926 -6.33051,-2.62717 -6.40876,-6.04496c-0.07827,-3.41781 2.66415,-6.25274 6.12535,-6.332c3.46121,-0.07926 6.33052,2.62716 6.40877,6.04498z" fill="url(#color-10)" stroke="#000000" stroke-width="0" stroke-linecap="butt"/><path d="M343.92593,106.02645c6.7806,-0.15527 12.40167,5.14671 12.555,11.8423c0.15333,6.69556 -5.21916,12.24928 -11.99976,12.40455c-6.7806,0.15527 -13.19941,-5.12844 -13.35274,-11.824c-0.15333,-6.69558 6.01691,-12.26757 12.7975,-12.42284z" fill="url(#color-11)" stroke="#000000" stroke-width="2.5" stroke-linecap="butt"/><path d="M343.60978,108.22064c5.63323,-0.12899 10.30311,4.27582 10.43049,9.8384c0.12738,5.56256 -4.336,10.1765 -9.96921,10.30549c-5.63323,0.12899 -10.30311,-4.27581 -10.43049,-9.83837c-0.12738,-5.5626 4.336,-10.17653 9.96921,-10.30552z" fill="#000000" stroke="#000000" stroke-width="0" stroke-linecap="butt"/><path d="M343.98834,111.59939c3.5426,-0.08112 6.47938,2.68894 6.55948,6.18712c0.0801,3.49817 -2.72679,6.39977 -6.26939,6.48089c-3.5426,0.08112 -6.47938,-2.68895 -6.55948,-6.18712c-0.0801,-3.49818 2.72679,-6.39977 6.26939,-6.48089z" fill="url(#color-12)" stroke="#000000" stroke-width="0" stroke-linecap="butt"/><path d="M292.44515,118.39552c0.05236,2.28664 -1.78243,4.18332 -4.09811,4.23635c-2.31569,0.05303 -4.23535,-1.75768 -4.28772,-4.04433c-0.05236,-2.28665 1.78242,-4.18334 4.0981,-4.23637c2.31569,-0.05303 4.23536,1.75769 4.28773,4.04435z" fill="#000000" stroke="#000000" stroke-width="0" stroke-linecap="butt"/><path d="M348.35233,117.64688c0.05236,2.28664 -1.78243,4.18332 -4.0981,4.23635c-2.31569,0.05303 -4.23535,-1.75768 -4.28772,-4.04433c-0.05236,-2.28665 1.78242,-4.18334 4.0981,-4.23637c2.31569,-0.05303 4.23535,1.75769 4.28772,4.04435z" fill="#000000" stroke="#000000" stroke-width="2.5" stroke-linecap="butt"/><path d="M277.56098,162.01859c2.67237,-0.06119 5.3284,0.04846 7.99052,-0.01246" fill="none" stroke="none" stroke-width="0" stroke-linecap="round"/><path d="M276.32435,148.7222c-0.04286,-1.87166 0.91338,-4.91204 2.46225,-3.27729c0.78212,0.82546 2.50543,13.98165 2.96954,14.13732c0.97941,0.32851 0.82235,-17.60359 2.95428,-14.91001c0.81802,1.03353 2.73962,17.4699 3.0678,17.55923c0.76376,0.20789 0.27465,-17.02666 2.09355,-16.70647c1.55046,0.27292 2.60856,14.56079 3.78333,15.27738c1.79104,1.09251 2.91475,-18.13885 4.88768,-17.55623c1.97543,0.58336 2.33303,17.541 3.81636,18.86009c1.62215,1.44254 2.16341,-15.40861 3.62068,-14.88743c1.63022,0.58302 2.28624,16.68876 3.84181,17.11348c2.10452,0.5746 1.7553,-18.82916 3.94764,-18.75404c2.17028,0.07436 3.25904,17.04461 4.74862,18.11904c2.0373,1.46949 1.99321,-17.14147 3.34285,-17.24494c1.209,-0.09271 2.24516,16.36032 3.40618,17.30399c1.896,1.54105 2.41505,-16.30683 3.82463,-16.61158c2.00802,-0.43413 2.44019,18.15283 3.97233,18.57528c0.88741,0.24468 3.16436,-22.42827 4.11891,-22.20254c1.5979,0.37788 2.67248,16.00607 3.94286,17.03748c1.93206,1.56863 1.63529,-15.66365 3.53406,-14.86508c1.23107,0.51774 1.73673,14.97224 3.11555,15.83585c1.92904,1.20822 3.19003,-18.64916 3.76137,-20.48198c0.14933,-0.47903 0.21777,-1.37587 0.55085,-1.33668c1.2017,0.14141 2.18369,13.76206 3.23304,14.79202c1.52904,1.50079 1.10972,-8.85677 1.60604,-8.62878c1.06211,0.48791 -1.51209,12.65673 -1.88491,12.95418c-4.54263,3.62433 -10.0711,6.38865 -15.15701,7.39481c-14.03645,2.77688 -28.79756,0.73535 -42.88092,-1.23313c-5.25083,-0.73394 -11.87008,-0.93126 -16.68357,-5.02275c-1.46982,-1.24936 -5.9159,-14.0691 -2.27543,-14.17049" fill="#ffffff" stroke="#000000" stroke-width="1.5" stroke-linecap="round"/><path d="M287.49338,162.13312c15.85959,3.8318 24.15993,8.09971 40.5962,5.36475c6.23221,-1.03703 15.41784,-1.29089 21.2166,-3.96711c0.63639,-0.2937 6.31697,-4.43941 6.74664,-3.77441c0.17853,0.2763 0.372,0.78435 0.22776,1.08113c-1.43535,2.95317 -4.59961,6.54379 -5.9096,9.57809c-0.13101,0.30347 -0.18528,0.6823 -0.43395,0.8897c-2.10691,1.7572 -1.31511,-4.52321 -2.36596,-4.45115c-0.31747,0.02176 -0.27944,0.60017 -0.3828,0.91519c-0.44699,1.36223 -2.00595,9.0325 -3.81807,9.01974c-2.22454,-0.01567 -1.57295,-7.09834 -2.93644,-7.22583c-1.82344,-0.17049 -2.70698,13.28787 -6.13737,10.99742c-1.97424,-1.31819 -2.97909,-4.7213 -3.50118,-6.94593c-0.09525,-0.40587 -0.39364,-4.96492 -0.56848,-4.95292c-0.94564,0.06487 -0.36174,1.94896 -0.57813,2.91514c-0.36796,1.64304 -1.12796,8.96669 -2.5629,9.84984c-2.32336,1.42995 -3.66073,-6.09193 -3.88241,-7.49334c-0.05203,-0.32894 -0.12447,1.62744 -0.44264,1.62267c-0.31817,-0.00476 -0.57044,-6.15146 -0.67955,-5.83858c-0.76776,2.20148 -1.26712,11.73049 -3.22983,13.06348c-1.43436,0.97417 -4.32385,-2.64681 -5.57496,-6.54824c-0.65453,-2.04108 -0.03298,-5.19966 -0.29782,-5.58172c-0.18717,-0.26998 -0.39465,-0.78404 -0.69791,-0.68379c-0.30326,0.10025 -0.13498,0.65126 -0.19404,0.97866c-0.11631,0.64463 0.44864,4.05829 -0.09891,6.2816c-0.6314,2.56376 -2.42422,3.92396 -3.24345,3.83764c-0.92927,-0.09791 -2.87817,-2.15896 -3.70695,-4.74553c-0.898,-2.8026 -0.64319,-6.17768 -0.74891,-7.13402c-0.03554,-0.3214 -0.66784,-3.90363 -0.97876,-3.84273c-0.0557,0.01091 0.06389,2.79156 0.06865,2.99922c0.03522,1.53976 0.22962,11.38069 -1.40448,11.70003c-0.93411,0.18255 -3.01844,-1.60056 -3.97356,-3.60168c-0.93535,-1.95971 -0.74934,-4.12941 -0.93675,-4.7845c-0.06058,-0.21177 -0.89872,-2.79789 -1.05862,-2.76459c-0.31196,0.06498 0.01534,0.66649 0.02268,0.99974c0.02738,1.24316 -0.11082,8.45096 -1.94485,8.43432c-2.13921,-0.01941 -4.58814,-8.75198 -4.91465,-10.53391c-0.06034,-0.32926 -0.47231,-3.9476 -0.89094,-3.86659c-0.31278,0.06053 0.01932,0.66804 -0.00983,0.9999c-0.1726,1.96504 1.88159,6.53121 -0.56551,7.00835c-4.05342,0.79035 -7.86723,-5.28758 -6.04183,-7.96477c0,0 -1.47383,-2.8465 -1.18221,-2.12604c0.56152,1.38729 0.9431,-1.61725 1.97496,0.26939c1.20739,2.20758 3.8794,8.84735 4.14019,8.19657c0.13868,-0.34606 -1.30232,-4.85737 -2.02563,-8.54853c-0.22401,-1.14315 2.92621,0.37338 2.92621,0.37338z" fill="#ffffff" stroke="#000000" stroke-width="1.5" stroke-linecap="round"/><path d="M302.41014,122.39624l-2.87223,10.15637" fill="none" stroke="#000000" stroke-width="2.5" stroke-linecap="round"/><path d="M302.57992,118.51135l-0.30994,9.06276" fill="none" stroke="#000000" stroke-width="2.5" stroke-linecap="round"/><path d="M303.92618,120.80912l1.10942,-8.04613" fill="none" stroke="#000000" stroke-width="2.5" stroke-linecap="round"/><path d="M303.37152,107.88517l1.80622,11.08417l-3.88683,-11.55399" fill="none" stroke="#000000" stroke-width="2.5" stroke-linecap="round"/><path d="M299.70379,105.89928l2.31156,10.55513" fill="none" stroke="#000000" stroke-width="2.5" stroke-linecap="round"/><path d="M334.16238,107.95628l-3.87701,11.47304" fill="none" stroke="#000000" stroke-width="2.5" stroke-linecap="round"/><path d="M327.06377,114.32844l8.36791,-7.43615" fill="none" stroke="#000000" stroke-width="2.5" stroke-linecap="round"/><path d="M330.50252,117.61322l1.91481,-6.77091" fill="none" stroke="#000000" stroke-width="2.5" stroke-linecap="round"/><path d="M332.09159,130.51349l-5.22127,-13.33456" fill="none" stroke="#000000" stroke-width="2.5" stroke-linecap="round"/><path d="M335.71196,130.43057l-5.62596,-8.40936" fill="none" stroke="#000000" stroke-width="2.5" stroke-linecap="round"/><path d="M331.96131,124.82435l8.21786,8.60874l-6.02472,-3.22557" fill="none" stroke="#000000" stroke-width="2.5" stroke-linecap="round"/><path d="M337.076,133.50412l8.24551,-1.48248l5.6773,-0.64747" fill="none" stroke="#000000" stroke-width="2.5" stroke-linecap="round"/><path d="M358.16848,128.10521l-1.99772,3.15054l-6.39979,2.99262" fill="none" stroke="#000000" stroke-width="2.5" stroke-linecap="round"/><path d="M290.72191,131.71955l7.19928,-1.97599" fill="none" stroke="#000000" stroke-width="2.5" stroke-linecap="round"/><path d="M288.16553,133.07173l4.61331,-1.91677" fill="none" stroke="#000000" stroke-width="2.5" stroke-linecap="round"/><path d="M285.84409,133.38365l-7.01174,-1.13311l-3.15054,-1.99772l4.1494,0.42245" fill="none" stroke="#000000" stroke-width="2.5" stroke-linecap="round"/></g></g></svg>