<svg version="1.1" xmlns="http://www.w3.org/2000/svg" xmlns:xlink="http://www.w3.org/1999/xlink" width="140.18358" height="318.88703" viewBox="0,0,140.18358,318.88703"><defs><linearGradient x1="367.78678" y1="136.07573" x2="370.76636" y2="196.44158" gradientUnits="userSpaceOnUse" id="color-1"><stop offset="0" stop-color="#13d927"/><stop offset="1" stop-color="#277516"/></linearGradient><linearGradient x1="352.01764" y1="142.91689" x2="355.06633" y2="204.68292" gradientUnits="userSpaceOnUse" id="color-2"><stop offset="0" stop-color="#13d927"/><stop offset="1" stop-color="#277516"/></linearGradient><linearGradient x1="341.69077" y1="153.33552" x2="344.44326" y2="209.10073" gradientUnits="userSpaceOnUse" id="color-3"><stop offset="0" stop-color="#13d927"/><stop offset="1" stop-color="#277516"/></linearGradient><linearGradient x1="330.64131" y1="145.9769" x2="333.42334" y2="202.34058" gradientUnits="userSpaceOnUse" id="color-4"><stop offset="0" stop-color="#13d927"/><stop offset="1" stop-color="#277516"/></linearGradient><linearGradient x1="286.23641" y1="128.03596" x2="289.22947" y2="188.67506" gradientUnits="userSpaceOnUse" id="color-5"><stop offset="0" stop-color="#13d927"/><stop offset="1" stop-color="#277516"/></linearGradient><linearGradient x1="302.97303" y1="140.79601" x2="306.03653" y2="202.86233" gradientUnits="userSpaceOnUse" id="color-6"><stop offset="0" stop-color="#13d927"/><stop offset="1" stop-color="#277516"/></linearGradient><linearGradient x1="314.52835" y1="155.26584" x2="317.28993" y2="211.21494" gradientUnits="userSpaceOnUse" id="color-7"><stop offset="0" stop-color="#13d927"/><stop offset="1" stop-color="#277516"/></linearGradient><linearGradient x1="325.04622" y1="151.85427" x2="327.83623" y2="208.3796" gradientUnits="userSpaceOnUse" id="color-8"><stop offset="0" stop-color="#13d927"/><stop offset="1" stop-color="#277516"/></linearGradient><linearGradient x1="326.46022" y1="161.64877" x2="324.26365" y2="355.3996" gradientUnits="userSpaceOnUse" id="color-9"><stop offset="0" stop-color="#4d9ebf"/><stop offset="1" stop-color="#9087d9"/></linearGradient><linearGradient x1="280.99722" y1="224.5602" x2="277.08976" y2="243.0518" gradientUnits="userSpaceOnUse" id="color-10"><stop offset="0" stop-color="#4d9ebf"/><stop offset="1" stop-color="#9087d9"/></linearGradient><linearGradient x1="281.62093" y1="221.08317" x2="280.41187" y2="233.97258" gradientUnits="userSpaceOnUse" id="color-11"><stop offset="0" stop-color="#4d9ebf"/><stop offset="1" stop-color="#9087d9"/></linearGradient><linearGradient x1="370.68374" y1="237.74125" x2="376.81688" y2="253.86975" gradientUnits="userSpaceOnUse" id="color-12"><stop offset="0" stop-color="#4d9ebf"/><stop offset="1" stop-color="#9087d9"/></linearGradient><linearGradient x1="369.64105" y1="234.66457" x2="372.40788" y2="246.5071" gradientUnits="userSpaceOnUse" id="color-13"><stop offset="0" stop-color="#4d9ebf"/><stop offset="1" stop-color="#9087d9"/></linearGradient><linearGradient x1="328.24807" y1="159.29074" x2="325.99488" y2="358.03589" gradientUnits="userSpaceOnUse" id="color-14"><stop offset="0" stop-color="#006927"/><stop offset="1" stop-color="#4c4c4c"/></linearGradient><linearGradient x1="328.96765" y1="73.03065" x2="327.78468" y2="177.37615" gradientUnits="userSpaceOnUse" id="color-15"><stop offset="0" stop-color="#47d90f"/><stop offset="1" stop-color="#53ff10"/></linearGradient><linearGradient x1="297.21269" y1="59.66612" x2="297.38638" y2="142.66422" gradientUnits="userSpaceOnUse" id="color-16"><stop offset="0" stop-color="#13d927"/><stop offset="1" stop-color="#277516"/></linearGradient><linearGradient x1="359.42817" y1="59.68289" x2="359.61372" y2="148.34713" gradientUnits="userSpaceOnUse" id="color-17"><stop offset="0" stop-color="#13d927"/><stop offset="1" stop-color="#277516"/></linearGradient><linearGradient x1="323.06462" y1="60.87169" x2="323.0903" y2="73.14561" gradientUnits="userSpaceOnUse" id="color-18"><stop offset="0" stop-color="#13d927"/><stop offset="1" stop-color="#277516"/></linearGradient><linearGradient x1="297.04668" y1="69.0346" x2="297.21224" y2="148.14909" gradientUnits="userSpaceOnUse" id="color-19"><stop offset="0" stop-color="#13d927"/><stop offset="1" stop-color="#277516"/></linearGradient><linearGradient x1="299.22348" y1="70.0026" x2="299.40225" y2="155.42628" gradientUnits="userSpaceOnUse" id="color-20"><stop offset="0" stop-color="#13d927"/><stop offset="1" stop-color="#277516"/></linearGradient><linearGradient x1="305.27558" y1="73.04311" x2="305.47189" y2="166.85329" gradientUnits="userSpaceOnUse" id="color-21"><stop offset="0" stop-color="#13d927"/><stop offset="1" stop-color="#277516"/></linearGradient><linearGradient x1="361.65305" y1="68.39226" x2="361.83686" y2="156.2266" gradientUnits="userSpaceOnUse" id="color-22"><stop offset="0" stop-color="#13d927"/><stop offset="1" stop-color="#277516"/></linearGradient><linearGradient x1="355.17323" y1="73.24838" x2="355.36213" y2="163.51755" gradientUnits="userSpaceOnUse" id="color-23"><stop offset="0" stop-color="#13d927"/><stop offset="1" stop-color="#277516"/></linearGradient><linearGradient x1="343.0018" y1="44.05734" x2="343.05642" y2="70.15891" gradientUnits="userSpaceOnUse" id="color-24"><stop offset="0" stop-color="#13d927"/><stop offset="1" stop-color="#277516"/></linearGradient><linearGradient x1="327.10839" y1="41.27084" x2="327.16677" y2="69.16526" gradientUnits="userSpaceOnUse" id="color-25"><stop offset="0" stop-color="#13d927"/><stop offset="1" stop-color="#277516"/></linearGradient></defs><g transform="translate(-260.98591,-40.07993)"><g stroke-miterlimit="10"><g stroke="#000000" stroke-width="2.5" stroke-linecap="butt"><path d="M367.7871,136.08218c5.66518,0.40376 10.92457,14.24153 11.74718,30.90755c0.82261,16.66601 -3.10307,29.84917 -8.76824,29.44542c-5.66518,-0.40376 -10.92457,-14.24154 -11.74718,-30.90755c-0.82261,-16.66601 3.10307,-29.84917 8.76825,-29.44541z" fill="url(#color-1)"/><path d="M364.42138,174.57527c0.84168,17.0523 -3.34688,30.52879 -9.3554,30.10056c-6.00852,-0.42823 -11.56172,-14.599 -12.40339,-31.65131c-0.84168,-17.0523 3.34689,-30.52879 9.35541,-30.10056c6.00852,0.42823 11.56171,14.599 12.40338,31.65131z" fill="url(#color-2)"/><path d="M351.14886,181.79413c0.75996,15.39675 -2.24234,27.6204 -6.70581,27.30228c-4.46347,-0.31811 -8.69791,-13.05752 -9.45787,-28.45427c-0.75996,-15.39675 2.24233,-27.62039 6.70581,-27.30228c4.46347,0.31811 8.69791,13.05752 9.45787,28.45426z" fill="url(#color-3)"/><path d="M339.6479,174.70151c0.76813,15.5623 -2.01878,27.93503 -6.22475,27.63528c-4.20597,-0.29975 -8.23827,-13.15849 -9.0064,-28.7208c-0.76813,-15.5623 2.01877,-27.93503 6.22474,-27.63528c4.20597,0.29975 8.23827,13.1585 9.0064,28.7208z" fill="url(#color-4)"/><path d="M298.1043,161.38924c0.82261,16.66601 -3.15396,28.81823 -8.88191,27.14274c-5.72795,-1.67549 -11.03822,-16.5442 -11.86083,-33.21022c-0.82261,-16.66601 3.15395,-28.81823 8.88189,-27.14274c5.72795,1.67549 11.03824,16.54421 11.86084,33.21022z" fill="url(#color-5)"/><path d="M302.98079,140.95323c6.0751,1.77704 11.68226,17.04124 12.52394,34.09354c0.84168,17.0523 -3.40085,29.43537 -9.47595,27.65833c-6.0751,-1.77704 -11.68225,-17.04124 -12.52393,-34.09354c-0.84168,-17.0523 3.40084,-29.43537 9.47594,-27.65833z" fill="url(#color-6)"/><path d="M307.73775,180.85016c-0.75996,-15.39675 2.28243,-26.80813 6.79536,-25.48804c4.51294,1.32008 8.78745,14.87175 9.54742,30.2685c0.75996,15.39675 -2.28242,26.80814 -6.79535,25.48805c-4.51293,-1.32008 -8.78746,-14.87175 -9.54742,-30.26849z" fill="url(#color-7)"/><path d="M325.0504,151.9389c4.25257,1.24393 8.32265,14.86806 9.09078,30.43036c0.76813,15.5623 -2.05655,27.16964 -6.30912,25.92571c-4.25257,-1.24393 -8.32265,-14.86805 -9.09078,-30.43036c-0.76813,-15.5623 2.05656,-27.16965 6.30913,-25.92572z" fill="url(#color-8)"/></g><path d="M272.40248,191.28671c0,0 7.55189,-27.75995 18.27041,-28.07753c10.64437,-0.31537 35.86971,-0.63252 57.90764,-1.28548c23.90274,-0.7082 31.01598,28.49677 31.01598,28.49677l-0.50884,52.07509c-7.14393,3.61031 -6.80377,7.30306 -9.15418,16.27136c-2.75933,10.52857 -2.84392,23.43598 -2.93951,33.72419c-0.15443,16.6218 -0.58336,33.89716 -3.42993,50.2629c-0.70806,4.07088 -1.25278,8.31191 -1.08691,12.49708l-73.13676,-3.57385c0.0963,-0.87409 0.15058,-1.76105 0.16076,-2.65884c0.01376,-1.21407 -0.05355,-2.41018 -0.19691,-3.58317c0.23032,-5.11562 -0.0462,-9.98309 -0.44499,-13.57678c-1.05673,-9.52304 -2.68947,-19.3987 -2.61425,-28.94418c0.1067,-13.54023 0.29879,-27.07966 0.46051,-40.61934c0.07925,-6.63509 2.83724,-13.20351 1.22543,-19.97621c-0.74489,-3.12995 -1.21683,-6.44205 -2.8221,-9.23035c-3.43394,-5.96466 -7.27444,-9.8258 -12.60942,-11.86917z" fill="url(#color-9)" stroke="#000000" stroke-width="2.5" stroke-linecap="butt"/><path d="M292.65724,237.745c-0.46288,2.19059 2.60013,3.27971 0.04751,4.04085c-3.3976,1.01308 -12.79099,1.18597 -15.32995,0.08785c-1.18527,-0.51264 -7.7721,-2.05977 -8.70349,-2.90341c-2.5627,-2.32124 -1.23084,-4.53879 -0.43945,-8.28395c1.07902,-5.10632 8.31888,-8.04928 12.76536,-6.12613c4.44647,1.92314 12.73903,8.07849 11.66003,13.18481z" fill="url(#color-10)" stroke="#000000" stroke-width="2.5" stroke-linecap="butt"/><path d="M293.08609,220.98266c-0.29613,3.15686 2.03841,12.87222 -2.01893,11.87183c-0.51725,-0.12753 -8.67644,-3.09195 -9.24799,-3.19755c-5.05488,-0.93399 -13.28138,-3.44504 -12.9475,-7.00436c0.33388,-3.55932 7.69438,-2.5034 12.74926,-1.56941c5.05488,0.93399 11.79904,-3.65982 11.46516,-0.1005z" fill="url(#color-11)" stroke="#000000" stroke-width="2.5" stroke-linecap="butt"/><path d="M370.68374,237.74125c4.1946,-3.60084 11.76087,-3.65707 13.45449,0.7967c1.24217,3.26655 2.83731,4.85855 0.56683,8.09331c-0.82518,1.17565 -7.19674,5.26539 -8.31486,6.22523c-2.39514,2.0561 -11.77001,5.61396 -15.27617,5.99216c-2.63416,0.28414 0.28391,-1.97108 -0.44263,-3.88172c-1.69362,-4.45376 5.81773,-13.62484 10.01234,-17.22569z" fill="url(#color-12)" stroke="#000000" stroke-width="2.5" stroke-linecap="butt"/><path d="M369.64105,234.66457c4.92039,-2.89639 12.12191,-6.82319 12.88595,-3.55297c0.76405,3.27022 -7.1234,8.93133 -12.04379,11.82773c-0.55634,0.32748 -8.32179,6.39531 -8.8214,6.72224c-3.919,2.5645 -2.77227,-7.64831 -3.44991,-10.54878c-0.76405,-3.27022 6.50875,-1.55184 11.42915,-4.44822z" fill="url(#color-13)" stroke="#000000" stroke-width="2.5" stroke-linecap="butt"/><path d="M293.2634,159.49722c0.61518,-2.15843 1.37727,2.26966 3.45314,1.54275c1.6822,-0.58905 9.59635,6.94836 9.90879,8.06903c0.94576,3.39232 -1.96719,17.21863 1.78896,17.55764c5.17724,0.46726 10.61531,-0.46659 15.74248,0.2795c4.18801,0.60942 8.12376,1.21729 12.42493,1.26608c1.91699,0.02174 7.92764,1.12934 9.44716,0.1071c0.76059,-0.51168 0.35054,-2.36023 0.46109,-3.07454c0.95384,-6.16325 -1.9683,-14.94221 5.48765,-14.86112c1.39966,0.01522 2.66602,-4.81193 4.0082,-4.43945c0.96281,0.2672 4.38196,0.05441 4.98519,0.81789c2.09878,2.65633 1.38446,14.97507 1.8379,18.18421c1.5613,11.04949 2.18168,21.05977 0.79519,32.11453c-2.05295,16.36862 3.06151,27.47721 4.57529,43.43345c1.56714,16.51874 -4.40793,38.23274 -4.59198,54.46636c-0.12573,11.09012 0.49207,22.57165 -0.87529,33.52146c-0.23978,1.92018 0.64404,8.04082 -1.22862,9.23486c-2.83338,1.8066 -10.36984,-0.53377 -13.57695,-0.58864c-13.58929,-0.23248 -27.20079,-1.44 -40.86383,-1.5949c-2.59444,-0.02941 -14.18734,0.12095 -15.10898,-2.11161c-1.63833,-3.96866 0.73049,-9.47675 -0.07855,-13.63392c-0.31842,-1.63619 -1.59186,-3.10482 -2.14735,-4.64159c-0.80962,-2.23981 -0.39574,-4.87951 -0.98429,-7.1583c-1.36734,-5.29406 1.02792,-11.42994 0.08017,-16.79258c-1.14576,-6.48302 -4.60716,-13.19178 -3.14518,-20.32682c1.30114,-6.35009 4.2918,-12.46624 4.69155,-19.04302c1.1023,-18.13492 0.99937,-36.3041 1.20557,-54.49198c0.0941,-8.29985 -1.26112,-46.64466 0.45209,-50.19362" fill="url(#color-14)" stroke="#000000" stroke-width="2.5" stroke-linecap="round"/><path d="M383.16658,124.35211c-0.31745,28.00111 -24.87256,53.36993 -55.12325,53.02698c-30.25069,-0.34295 -54.74166,-26.26783 -54.42421,-54.26893c0.31745,-28.0011 25.09784,-50.42246 55.34854,-50.07951c30.25069,0.34295 54.51638,23.32036 54.19893,51.32146z" fill="url(#color-15)" stroke="#000000" stroke-width="2.5" stroke-linecap="butt"/><path d="M294.06856,130.67036c-0.08056,7.10636 -2.98472,12.81842 -3.7272,18.43163c-1.33794,10.11513 -1.26263,17.79837 -4.78812,17.7584c-5.48189,-0.06215 -9.05707,-16.47453 -8.83132,-36.3867c0.11249,-9.92247 1.10735,-27.46022 14.82996,-39.21576c13.81558,-11.83519 37.8633,-17.88316 40.6135,-17.85198c3.64943,0.04137 -40.85621,28.32916 -39.25253,39.0064c0.80525,5.36131 1.23113,11.60183 1.15567,18.25802z" fill="#48d957" stroke="#000000" stroke-width="2.5" stroke-linecap="butt"/><g stroke-linecap="butt"><path d="M278.90243,108.44153c-2.61712,5.9528 -7.13508,9.83163 -9.77952,14.31705c-4.76533,8.08284 1.91023,20.66343 -1.07314,19.50491c-4.63895,-1.80143 -9.33453,-22.82195 -2.00131,-39.50181c3.65423,-8.31179 16.88478,-33.75352 32.76904,-39.26476c8.65558,-3.00315 24.65015,-5.1757 30.79091,-2.01724c5.20483,2.67707 1.15717,10.52717 2.22483,10.94179c3.08824,1.19925 -44.8998,10.79672 -47.36546,20.29105c-1.23807,4.76736 -3.11404,10.15334 -5.56537,15.72902z" fill="url(#color-16)" stroke="#000000" stroke-width="2.5"/><path d="M380.60821,93.37832c-2.05704,-5.83892 -14.87338,-10.37418 -29.76544,-14.91154c-8.54943,-2.60487 -22.5526,-3.1445 -21.36004,-3.49584c0.35031,-0.1032 -2.2881,-2.48895 -4.99545,-5.3865c-0.71795,-0.76838 -1.44075,-1.57275 -2.11395,-2.3801c-2.65712,-3.18658 -4.54153,-6.41943 -2.30522,-7.66803c2.85628,-1.59473 10.4197,4.09606 13.73764,4.273c8.40296,0.44811 30.26139,8.82929 38.75073,11.82165c17.51945,6.17536 19.90055,29.43386 24.35372,37.56706c8.9365,16.32151 -4.40404,34.01218 -9.31581,35.45919c-0.78109,0.23011 -0.16582,-9.24019 -0.07619,-10.05468c0.27286,-2.47942 7.62821,-7.75293 3.3815,-13.75942c-3.13079,-4.42816 -0.13578,-10.32725 -3.32508,-16.15216c-2.98726,-5.45591 -5.34054,-10.69757 -6.96641,-15.31263z" fill="url(#color-17)" stroke="#000000" stroke-width="2.5"/><path d="M316.15571,62.76915c-0.13502,-0.16483 -0.22796,-0.39012 -0.22861,-0.69807c-0.00237,-1.13321 1.24988,-1.11913 1.24988,-1.11913c2.88245,0.0324 8.14813,-0.68813 10.45183,1.37663c0.80469,0.72124 1.3957,1.99336 1.86177,3.37075l0.30195,0.03755c0.6264,0.06955 1.11455,0.55544 1.11577,1.13882c0.00099,0.47137 -0.3162,0.87194 -0.76833,1.03765c0.25191,0.95824 0.46539,1.85179 0.67122,2.52601c0.21566,0.70642 0.86653,1.56449 0.4146,2.16355c-0.80776,1.07075 -5.43163,0.42261 -6.66501,0.27116c-0.43209,-0.05686 -0.90214,-0.12432 -1.39388,-0.20609l-1.12894,0.18158c-0.51321,-0.32998 -1.30359,-0.50736 -1.82101,-0.83502c-1.68928,-0.4926 -3.27653,-1.21564 -4.18757,-2.30017c-1.53569,-1.82813 -1.8317,-5.33424 0.12631,-6.94526zM325.87149,63.9212c-0.00342,-0.00332 -0.00684,-0.00663 -0.01028,-0.00993c-0.53489,-0.51431 -1.58967,-0.74226 -2.80391,-0.82555c0.0388,0.03866 0.07473,0.07969 0.10752,0.12282c1.04032,0.07361 2.00527,0.30461 2.70668,0.71266zM317.85554,67.68536c-0.14226,-0.12927 -0.26904,-0.25635 -0.38109,-0.38115c0.09619,0.27024 0.21858,0.53016 0.36318,0.76845c-0.01791,-0.09644 -0.01975,-0.19541 -0.00242,-0.29702c0.00523,-0.03072 0.01204,-0.06081 0.02034,-0.09028z" fill="url(#color-18)" stroke="none" stroke-width="0.5"/><path d="M278.90671,110.48897c-2.61585,6.55771 -7.13299,10.83389 -9.77647,15.77589c-4.7636,8.90559 1.9146,22.75069 -1.06901,21.4784c-4.63932,-1.97831 -9.33933,-25.11904 -2.00966,-43.49385c3.65246,-9.15641 8.95978,-25.08173 24.84286,-31.16829c15.99069,-6.12781 38.60787,-3.30713 40.93536,-2.31463c3.08849,1.31701 -44.89741,11.93948 -47.36106,22.39667c-1.23705,5.25083 -3.11189,11.18356 -5.56203,17.32584z" fill="url(#color-19)" stroke="#000000" stroke-width="2.5"/><path d="M286.10829,121.17414c-1.31015,6.95041 -4.91741,12.01539 -6.56291,17.38069c-2.96522,9.66839 -4.23563,17.21288 -7.4,16.52592c-4.92039,-1.06817 -5.27799,-17.8115 -1.60693,-37.28669c1.82932,-9.70473 2.03901,-28.61458 16.43053,-37.61518c3.74509,-2.34222 7.40995,-6.66849 11.75957,-8.09665c12.47825,-4.09713 29.79257,-0.43242 31.62303,-0.03504c3.27562,0.71111 -41.68598,20.25942 -42.10297,31.01924c-0.20939,5.40279 -0.91316,11.59761 -2.14031,18.10773z" fill="url(#color-20)" stroke="#000000" stroke-width="2.5"/><path d="M295.22189,130.51903c0.01485,7.09422 -2.81748,12.79666 -3.48575,18.40032c-1.20422,10.09791 -1.02548,17.76801 -4.55754,17.7283c-5.49211,-0.06174 -9.29409,-16.44585 -9.33569,-36.32399c-0.02073,-9.90551 0.74003,-27.41333 14.32808,-39.14953c13.68011,-11.81573 37.68767,-17.85469 40.443,-17.82372c3.65623,0.0411 -40.54525,28.283 -38.79526,38.94189c0.87872,5.3521 1.38923,11.58192 1.40314,18.22673z" fill="url(#color-21)" stroke="#000000" stroke-width="2.5"/><path d="M373.96913,102.72049c-0.91696,-6.49217 -12.16035,-13.11705 -25.35188,-20.03694c-7.57317,-3.97266 -20.62455,-6.52083 -19.44404,-6.72582c1.26522,-0.21971 11.01118,-9.29358 19.42814,-7.50344c7.81023,1.6611 13.4421,9.90377 20.89156,14.27954c15.37346,9.03029 20.974,25.29548 23.74182,34.56255c5.55441,18.59691 -11.34353,38.23461 -16.20562,39.07888c-3.12689,0.54296 5.42407,-10.23041 1.51382,-19.50199c-2.16992,-5.1451 1.28874,-10.26838 -0.69355,-16.90534c-1.85671,-6.21653 -3.15548,-12.11606 -3.88024,-17.24744z" fill="url(#color-22)" stroke="#000000" stroke-width="2.5"/><path d="M367.05911,114.01908c1.08461,-6.19183 -8.88445,-15.78183 -20.85278,-26.25828c-6.87094,-6.01447 -20.08252,-12.47296 -18.74868,-12.28458c1.42956,0.2019 14.79483,-4.95215 23.26831,-0.65357c7.86266,3.98871 11.28622,13.26806 17.8957,19.60966c13.64,13.08717 14.47206,29.6483 14.49152,38.94972c0.01899,9.07297 -4.38855,12.01309 -7.04067,17.3292c-2.80409,5.62072 -3.93414,13.34933 -6.75744,12.95061c-3.53302,-0.49895 -1.75858,-6.43399 -3.00416,-16.10211c-0.69122,-5.36515 -0.56748,-9.97115 -0.58142,-16.63271c-0.01306,-6.23956 0.47234,-12.01395 1.32962,-16.90792z" fill="url(#color-23)" stroke="#000000" stroke-width="2.5"/><path d="M347.71679,59.77582c-3.95665,7.01549 -9.2629,11.50828 -11.85184,10.03496c-2.58894,-1.47333 -1.48017,-8.35486 2.47648,-15.37034c3.95665,-7.01549 9.26291,-11.50828 11.85184,-10.03495c2.58893,1.47332 1.48017,8.35486 -2.47648,15.37033z" fill="url(#color-24)" stroke="#000000" stroke-width="2.5"/><path d="M332.20069,53.50986c2.69666,7.67018 2.61591,14.65287 -0.18037,15.59628c-2.79629,0.9434 -7.2492,-4.50974 -9.94586,-12.17992c-2.69666,-7.67018 -2.61591,-14.65287 0.18037,-15.59628c2.79629,-0.9434 7.2492,4.50974 9.94586,12.17992z" fill="url(#color-25)" stroke="#000000" stroke-width="2.5"/></g><g stroke="#000000" stroke-width="2.5" stroke-linecap="butt"><path d="M373.6113,73.81891c5.56403,10.6478 7.01305,20.87933 3.23649,22.85278c-3.77656,1.97346 -11.3486,-5.0585 -16.91263,-15.7063c-5.56403,-10.6478 -7.01306,-20.87934 -3.2365,-22.8528c3.77656,-1.97346 11.34861,5.05852 16.91264,15.70632z" fill="#ff00e7"/><path d="M370.41605,84.19339c-10.59048,5.67237 -20.80669,7.22573 -22.81857,3.4695c-2.01188,-3.75623 4.94243,-11.39963 15.5329,-17.072c10.59048,-5.67237 20.80671,-7.22574 22.81858,-3.46951c2.01188,3.75623 -4.94244,11.39963 -15.53291,17.07201z" fill="#ff00e7"/><path d="M369.28471,70.09695c11.35959,3.91072 19.44392,10.34715 18.05687,14.37616c-1.38705,4.02902 -11.72024,4.12492 -23.07983,0.2142c-11.35959,-3.91072 -19.44393,-10.34716 -18.05688,-14.37617c1.38705,-4.02902 11.72025,-4.12491 23.07985,-0.21419z" fill="#ff00e7"/><path d="M374.09364,79.82906c-3.79461,11.3989 -10.14821,19.54848 -14.19116,18.20261c-4.04295,-1.34587 -4.2443,-11.67755 -0.4497,-23.07645c3.79461,-11.3989 10.14822,-19.54849 14.19118,-18.20263c4.04295,1.34587 4.24428,11.67756 0.44968,23.07645z" fill="#ff00e7"/><path d="M373.75518,80.84578c-1.2898,3.8745 -5.61284,5.92436 -9.6558,4.57849c-4.04296,-1.34587 -6.27484,-5.57782 -4.98504,-9.45233c1.2898,-3.8745 5.61284,-5.92436 9.6558,-4.57849c4.04296,1.34587 6.27484,5.57782 4.98504,9.45233z" fill="#ffe300"/></g><path d="M359.65615,117.54959c-0.02533,2.23472 -2.03422,4.02378 -4.48696,3.99597c-2.45274,-0.02781 -4.42054,-1.86195 -4.39521,-4.09667c0.02533,-2.23471 2.03422,-4.02378 4.48696,-3.99597c2.45274,0.02781 4.42054,1.86195 4.39521,4.09667z" fill="#ffffff" stroke="#000000" stroke-width="2.5" stroke-linecap="butt"/><path d="M307.47851,117.28772c-0.02533,2.23471 -2.03422,4.02378 -4.48696,3.99597c-2.45274,-0.02781 -4.42054,-1.86195 -4.39521,-4.09667c0.02533,-2.23472 2.03422,-4.02379 4.48696,-3.99598c2.45274,0.02781 4.42055,1.86196 4.39522,4.09668z" fill="#ffffff" stroke="#000000" stroke-width="2.5" stroke-linecap="butt"/><path d="M344.38233,121.74c-0.03071,2.70867 -6.70761,4.82906 -14.91327,4.73603c-8.20567,-0.09303 -14.83277,-2.36425 -14.80206,-5.07292c0.03071,-2.70867 6.70761,-4.82906 14.91327,-4.73603c8.20567,0.09303 14.83277,2.36425 14.80206,5.07291z" fill-opacity="0.18431" fill="#ff0505" stroke="none" stroke-width="0" stroke-linecap="butt"/><path d="M365.14423,111.38844c0.65448,1.06498 -0.4105,1.71945 -0.4105,1.71945l-0.63807,0.38314c-1.18746,0.55952 -3.14495,2.03876 -4.36782,2.22577c-1.52437,0.23313 -2.74632,-1.02033 -4.14008,-1.33125c0,0 -1.21583,-0.29026 -0.92557,-1.5061c0.29026,-1.21583 1.5061,-0.92557 1.5061,-0.92557c0.4953,0.12394 2.76916,1.41257 3.16534,1.29419c1.15469,-0.34501 2.54456,-1.47569 3.69631,-2.01852l0.39484,-0.25162c0,0 1.06497,-0.65448 1.71944,0.4105z" fill="#000000" stroke="none" stroke-width="0.5" stroke-linecap="butt"/><path d="M312.35279,110.9016c0.61436,1.08861 -0.47425,1.70296 -0.47425,1.70296l-0.22532,0.12716c-2.96616,1.65721 -5.40548,2.10319 -8.65754,1.19754c0,0 -1.20418,-0.33534 -0.86883,-1.53952c0.33534,-1.20418 1.53952,-0.86883 1.53952,-0.86883c2.60045,0.72419 4.34604,0.41144 6.75813,-0.96641l0.22533,-0.12716c0,0 1.0886,-0.61436 1.70296,0.47425z" fill="#000000" stroke="none" stroke-width="0.5" stroke-linecap="butt"/><path d="M358.92876,159.53544c-0.89385,0.8738 -1.76765,-0.02004 -1.76765,-0.02004l-0.52472,-0.54978c-0.18178,0.04232 -0.31678,0.04078 -0.31678,0.04078l-0.33159,-0.02803c-6.65698,1.25308 -12.99246,4.09688 -19.79567,4.69887c-3.33614,0.2952 -6.86979,-0.0718 -10.22067,-0.10979c-8.18594,-0.0928 -19.12569,0.46928 -26.48964,-3.31764c0,0 -0.25253,-0.12986 -0.45496,-0.38614c-0.18916,0.12067 -1.05524,0.59835 -1.70955,-0.29499c-0.73862,-1.00844 0.26982,-1.74705 0.26982,-1.74705c0.38794,-0.28413 0.77587,-0.56828 1.16381,-0.85241l1.22557,-0.46051c0,0 1.19026,-0.38182 1.57208,0.80845c0.15745,0.4908 0.04757,0.84416 -0.13593,1.08995c6.97945,3.16703 17.09606,2.57559 24.58714,2.66052c3.26686,0.03704 6.7228,0.40741 9.97421,0.11916c6.46312,-0.57298 12.51434,-3.22203 18.82616,-4.52222c0.03676,-0.16856 0.11819,-0.34916 0.26328,-0.53812c0.76129,-0.99143 1.75272,-0.23015 1.75272,-0.23015c0.3814,0.29285 0.76279,0.58571 1.14418,0.87858l0.98824,0.99293c0,0 0.87382,0.89385 -0.02004,1.76765z" fill="#000000" stroke="none" stroke-width="0.5" stroke-linecap="butt"/><path d="M288.50601,260.2784c0,-2.29731 3.01865,-5.66282 4.40268,-7.48363c1.42091,-1.86932 2.49577,-4.087 3.85408,-5.99861c2.95648,-4.16079 10.10737,-4.35054 13.98148,-5.00079c1.70881,-0.28682 7.97861,-2.25095 8.81733,-0.2129c2.00826,4.87995 -4.65862,7.90634 -7.59419,9.80213c-0.97761,0.63134 -1.75412,1.35397 -2.72423,1.78558c-0.24644,0.10965 -0.7518,0.16127 -0.70708,0.44049c0.07068,0.44131 4.09306,-1.27754 4.49392,-1.36194c2.18652,-0.46038 12.32353,-3.38756 13.38205,-1.65032c0.514,0.84357 0.31833,2.34624 0.31916,3.38869c0.00442,5.54673 -3.79988,4.81205 -7.58176,6.67157c-0.94459,0.46444 -2.00392,0.92303 -2.98202,1.16971c-0.25283,0.06376 -0.71934,-0.13523 -0.76003,0.15912c-0.05966,0.43163 4.82705,-0.479 5.27522,-0.55417c0.25351,-0.04252 0.50702,-0.08506 0.76053,-0.12759c4.24978,-0.71307 6.08259,-1.21515 6.40544,4.22845c0.23795,4.01218 0.29456,5.86213 -3.39062,7.38957c-1.64642,0.68241 -3.51181,1.57063 -5.1833,1.85634c-0.25351,0.04333 -0.69996,-0.16429 -0.76053,0.12873c-0.03124,0.15112 3.12684,1.22681 3.435,1.27569c2.30357,0.3654 4.03849,3.27684 3.3564,6.29497c-1.17945,5.21886 -5.21651,4.73919 -8.59005,6.79516c-7.14243,4.35289 -11.97256,5.22376 -18.97279,3.27918c-2.79181,-0.77553 -5.99766,-0.63677 -8.23062,-2.55549c-4.76977,-4.09854 -1.0087,-22.53022 -1.00611,-29.26443z" fill="#4ff110" stroke="#000000" stroke-width="2.5" stroke-linecap="round"/><path d="M363.68494,267.34163c0.00259,6.73422 3.76366,25.16589 -1.00611,29.26443c-2.23296,1.91872 -5.43881,1.77996 -8.23062,2.5555c-7.00023,1.94458 -11.83035,1.0737 -18.97279,-3.27919c-3.37354,-2.05597 -7.41061,-1.57629 -8.59005,-6.79515c-0.68209,-3.01813 1.05282,-5.92958 3.3564,-6.29498c0.30815,-0.04888 3.46623,-1.12457 3.435,-1.27569c-0.06056,-0.29303 -0.50701,-0.0854 -0.76052,-0.12874c-1.67149,-0.28571 -3.53688,-1.17393 -5.1833,-1.85634c-3.68518,-1.52744 -3.62857,-3.37739 -3.39061,-7.38957c0.32284,-5.4436 2.15566,-4.94151 6.40544,-4.22845c0.25351,0.04253 0.50702,0.08507 0.76053,0.12759c0.44817,0.07517 5.33488,0.9858 5.27522,0.55417c-0.04069,-0.29435 -0.5072,-0.09535 -0.76003,-0.15912c-0.97811,-0.24668 -2.03744,-0.70527 -2.98203,-1.16971c-3.78188,-1.85951 -7.58617,-1.12484 -7.58175,-6.67156c0.00083,-1.04246 -0.19484,-2.54512 0.31916,-3.38869c1.05851,-1.73725 11.19553,1.18993 13.38205,1.65031c0.40086,0.0844 4.42324,1.80325 4.49392,1.36194c0.04472,-0.27922 -0.46064,-0.33085 -0.70709,-0.44049c-0.9701,-0.43161 -1.74661,-1.15424 -2.72422,-1.78559c-2.93557,-1.89579 -9.60246,-4.92218 -7.59419,-9.80212c0.83873,-2.03805 7.10853,-0.07392 8.81734,0.2129c3.87411,0.65025 11.025,0.84001 13.98147,5.0008c1.3583,1.91161 2.43317,4.12929 3.85408,5.99861c1.38403,1.82081 4.40268,5.18632 4.40268,7.48363z" fill="#4ff110" stroke="#000000" stroke-width="2.5" stroke-linecap="round"/></g></g></svg>