<svg version="1.1" xmlns="http://www.w3.org/2000/svg" xmlns:xlink="http://www.w3.org/1999/xlink" width="142.10641" height="320.34706" viewBox="0,0,142.10641,320.34706"><defs><linearGradient x1="381.03955" y1="138.17937" x2="385.45786" y2="198.74713" gradientUnits="userSpaceOnUse" id="color-1"><stop offset="0" stop-color="#13d927"/><stop offset="1" stop-color="#277516"/></linearGradient><linearGradient x1="365.43353" y1="144.3084" x2="369.95432" y2="206.28103" gradientUnits="userSpaceOnUse" id="color-2"><stop offset="0" stop-color="#13d927"/><stop offset="1" stop-color="#277516"/></linearGradient><linearGradient x1="355.35503" y1="154.26716" x2="359.4366" y2="210.21889" gradientUnits="userSpaceOnUse" id="color-3"><stop offset="0" stop-color="#13d927"/><stop offset="1" stop-color="#277516"/></linearGradient><linearGradient x1="344.13023" y1="146.39628" x2="348.25561" y2="202.94848" gradientUnits="userSpaceOnUse" id="color-4"><stop offset="0" stop-color="#13d927"/><stop offset="1" stop-color="#277516"/></linearGradient><linearGradient x1="299.29796" y1="126.40937" x2="303.73624" y2="187.2513" gradientUnits="userSpaceOnUse" id="color-5"><stop offset="0" stop-color="#13d927"/><stop offset="1" stop-color="#277516"/></linearGradient><linearGradient x1="316.33861" y1="139.94711" x2="320.88137" y2="202.22104" gradientUnits="userSpaceOnUse" id="color-6"><stop offset="0" stop-color="#13d927"/><stop offset="1" stop-color="#277516"/></linearGradient><linearGradient x1="328.23875" y1="154.96006" x2="332.33379" y2="211.09631" gradientUnits="userSpaceOnUse" id="color-7"><stop offset="0" stop-color="#13d927"/><stop offset="1" stop-color="#277516"/></linearGradient><linearGradient x1="338.67526" y1="152.02474" x2="342.81246" y2="208.73914" gradientUnits="userSpaceOnUse" id="color-8"><stop offset="0" stop-color="#13d927"/><stop offset="1" stop-color="#277516"/></linearGradient><linearGradient x1="335.71595" y1="161.29069" x2="324.68271" y2="354.73959" gradientUnits="userSpaceOnUse" id="color-9"><stop offset="0" stop-color="#4d9ebf"/><stop offset="1" stop-color="#9087d9"/></linearGradient><linearGradient x1="287.43024" y1="222.06259" x2="282.68326" y2="240.35668" gradientUnits="userSpaceOnUse" id="color-10"><stop offset="0" stop-color="#4d9ebf"/><stop offset="1" stop-color="#9087d9"/></linearGradient><linearGradient x1="288.21192" y1="218.61764" x2="286.4161" y2="231.43846" gradientUnits="userSpaceOnUse" id="color-11"><stop offset="0" stop-color="#4d9ebf"/><stop offset="1" stop-color="#9087d9"/></linearGradient><linearGradient x1="376.42206" y1="239.32143" x2="381.81303" y2="255.71292" gradientUnits="userSpaceOnUse" id="color-12"><stop offset="0" stop-color="#4d9ebf"/><stop offset="1" stop-color="#9087d9"/></linearGradient><linearGradient x1="375.52081" y1="236.2004" x2="377.74451" y2="248.15682" gradientUnits="userSpaceOnUse" id="color-13"><stop offset="0" stop-color="#4d9ebf"/><stop offset="1" stop-color="#9087d9"/></linearGradient><linearGradient x1="337.6095" y1="159.01669" x2="326.29187" y2="357.4521" gradientUnits="userSpaceOnUse" id="color-14"><stop offset="0" stop-color="#006927"/><stop offset="1" stop-color="#4c4c4c"/></linearGradient><linearGradient x1="342.26354" y1="72.87922" x2="336.32153" y2="177.06212" gradientUnits="userSpaceOnUse" id="color-15"><stop offset="0" stop-color="#47d90f"/><stop offset="1" stop-color="#53ff10"/></linearGradient><linearGradient x1="311.87199" y1="58.11285" x2="311.50241" y2="141.18058" gradientUnits="userSpaceOnUse" id="color-16"><stop offset="0" stop-color="#13d927"/><stop offset="1" stop-color="#277516"/></linearGradient><linearGradient x1="374.02258" y1="60.96791" x2="373.62777" y2="149.70653" gradientUnits="userSpaceOnUse" id="color-17"><stop offset="0" stop-color="#13d927"/><stop offset="1" stop-color="#277516"/></linearGradient><linearGradient x1="337.68911" y1="60.49868" x2="337.63446" y2="72.7829" gradientUnits="userSpaceOnUse" id="color-18"><stop offset="0" stop-color="#13d927"/><stop offset="1" stop-color="#277516"/></linearGradient><linearGradient x1="311.64484" y1="67.48074" x2="311.29256" y2="146.66158" gradientUnits="userSpaceOnUse" id="color-19"><stop offset="0" stop-color="#13d927"/><stop offset="1" stop-color="#277516"/></linearGradient><linearGradient x1="313.81304" y1="68.54875" x2="313.43266" y2="154.0441" gradientUnits="userSpaceOnUse" id="color-20"><stop offset="0" stop-color="#13d927"/><stop offset="1" stop-color="#277516"/></linearGradient><linearGradient x1="319.83894" y1="71.86762" x2="319.42122" y2="165.7565" gradientUnits="userSpaceOnUse" id="color-21"><stop offset="0" stop-color="#13d927"/><stop offset="1" stop-color="#277516"/></linearGradient><linearGradient x1="376.18815" y1="69.78527" x2="375.79704" y2="157.69328" gradientUnits="userSpaceOnUse" id="color-22"><stop offset="0" stop-color="#13d927"/><stop offset="1" stop-color="#277516"/></linearGradient><linearGradient x1="369.68329" y1="74.34939" x2="369.28134" y2="164.69428" gradientUnits="userSpaceOnUse" id="color-23"><stop offset="0" stop-color="#13d927"/><stop offset="1" stop-color="#277516"/></linearGradient><linearGradient x1="357.71556" y1="44.58138" x2="357.59932" y2="70.70485" gradientUnits="userSpaceOnUse" id="color-24"><stop offset="0" stop-color="#13d927"/><stop offset="1" stop-color="#277516"/></linearGradient><linearGradient x1="341.85693" y1="41.06774" x2="341.73271" y2="68.98556" gradientUnits="userSpaceOnUse" id="color-25"><stop offset="0" stop-color="#13d927"/><stop offset="1" stop-color="#277516"/></linearGradient></defs><g transform="translate(-273.18875,-39.65546)"><g stroke-miterlimit="10"><g stroke="#000000" stroke-width="2.5" stroke-linecap="butt"><path d="M381.04002,138.18584c5.67477,0.66272 11.26393,14.75562 12.48376,31.47738c1.21982,16.72175 -2.39163,29.74017 -8.0664,29.07746c-5.67477,-0.66272 -11.26395,-14.75563 -12.48377,-31.47738c-1.21982,-16.72175 2.39163,-29.74017 8.06641,-29.07746z" fill="url(#color-1)"/><path d="M378.59175,176.5674c1.24809,17.10934 -2.61924,30.40941 -8.63794,29.70652c-6.0187,-0.70289 -11.9096,-15.14256 -13.1577,-32.25191c-1.24809,-17.10934 2.61925,-30.4094 8.63796,-29.70651c6.0187,0.70289 11.90959,15.14255 13.15769,32.2519z" fill="url(#color-2)"/><path d="M365.49134,183.18846c1.12692,15.44824 -1.58403,27.54824 -6.05505,27.02609c-4.47104,-0.52215 -9.00907,-13.4687 -10.136,-28.91694c-1.12692,-15.44824 1.58402,-27.54824 6.05505,-27.0261c4.47104,0.52215 9.00907,13.4687 10.136,28.91694z" fill="url(#color-3)"/><path d="M353.8214,175.56326c1.13904,15.61436 -1.35296,27.87342 -5.56606,27.38141c-4.2131,-0.49202 -8.55185,-13.54882 -9.69089,-29.16317c-1.13904,-15.61436 1.35296,-27.87342 5.56606,-27.38141c4.2131,0.49202 8.55185,13.54882 9.69089,29.16317z" fill="url(#color-4)"/><path d="M311.96072,160.34067c1.21982,16.72175 -2.4671,28.70578 -8.23495,26.76707c-5.76786,-1.9387 -11.43247,-17.06599 -12.6523,-33.78776c-1.21982,-16.72175 2.4671,-28.70578 8.23494,-26.76708c5.76786,1.9387 11.43248,17.066 12.65231,33.78776z" fill="url(#color-5)"/><path d="M316.35012,140.10486c6.11741,2.0562 12.08836,17.59296 13.33645,34.70231c1.24809,17.10934 -2.69929,29.31233 -8.8167,27.25612c-6.11741,-2.0562 -12.08835,-17.59296 -13.33644,-34.70231c-1.24809,-17.10934 2.69928,-29.31233 8.81669,-27.25611z" fill="url(#color-6)"/><path d="M322.05796,180.26246c-1.12692,-15.44824 1.64348,-26.73326 6.18785,-25.2058c4.54438,1.52747 9.14186,15.289 10.26878,30.73725c1.12692,15.44824 -1.64348,26.73327 -6.18785,25.20581c-4.54437,-1.52747 -9.14186,-15.289 -10.26878,-30.73725z" fill="url(#color-7)"/><path d="M338.68145,152.10965c4.2822,1.43934 8.67697,15.26409 9.81601,30.87845c1.13904,15.61436 -1.409,27.10547 -5.69119,25.66613c-4.2822,-1.43934 -8.67697,-15.26409 -9.81601,-30.87845c-1.13904,-15.61436 1.409,-27.10547 5.69119,-25.66613z" fill="url(#color-8)"/></g><path d="M280.36238,188.43165c0,0 8.81044,-27.38653 19.53229,-27.2148c10.64767,0.17056 35.86121,1.00453 57.90599,1.35762c23.91017,0.38298 29.68366,29.88206 29.68366,29.88206l-2.88399,51.99765c-7.3012,3.28063 -7.12985,6.98506 -9.88695,15.83681c-3.23678,10.39174 -3.91011,23.28184 -4.47496,33.55498c-0.91255,16.59745 -2.12915,33.83526 -5.71936,50.0541c-0.89304,4.03435 -1.63067,8.2461 -1.6559,12.43449l-72.89757,-6.90663c0.13607,-0.86879 0.23076,-1.75234 0.28189,-2.64874c0.06914,-1.21218 0.05645,-2.41012 -0.03325,-3.58843c0.46345,-5.09979 0.40928,-9.97481 0.17484,-13.58295c-0.62119,-9.56134 -1.80169,-19.50121 -1.29109,-29.0333c0.72429,-13.52126 1.53386,-27.03782 2.31308,-40.55604c0.38186,-6.62457 3.43663,-13.06033 2.13547,-19.89951c-0.60133,-3.16069 -0.92168,-6.49086 -2.39808,-9.34949c-3.15827,-6.11511 -6.81862,-10.14742 -12.05482,-12.43206z" fill="url(#color-9)" stroke="#000000" stroke-width="2.5" stroke-linecap="butt"/><path d="M298.47662,235.76559c-0.56233,2.16718 2.4478,3.39491 -0.13688,4.03881c-3.44028,0.85702 -12.83178,0.60121 -15.318,-0.6116c-1.16065,-0.56618 -7.67004,-2.4122 -8.56197,-3.29744c-2.45414,-2.43574 -1.0225,-4.59021 -0.06108,-8.29538c1.31085,-5.05177 8.67743,-7.66139 13.03155,-5.53739c4.35411,2.12398 12.35722,8.65123 11.04639,13.70302z" fill="url(#color-10)" stroke="#000000" stroke-width="2.5" stroke-linecap="butt"/><path d="M299.66972,219.04027c-0.43984,3.14007 1.44906,12.95181 -2.55843,11.76737c-0.51089,-0.151 -8.52635,-3.48455 -9.09248,-3.61611c-5.00701,-1.16362 -13.11039,-4.04735 -12.61448,-7.58773c0.49592,-3.54038 7.80056,-2.14977 12.80758,-0.98615c5.00701,1.16362 11.95372,-3.11774 11.4578,0.42264z" fill="url(#color-11)" stroke="#000000" stroke-width="2.5" stroke-linecap="butt"/><path d="M376.42206,239.32143c4.3545,-3.40574 11.91546,-3.11673 13.40414,1.40966c1.09185,3.31982 2.6127,4.98293 0.19702,8.11074c-0.87796,1.13677 -7.42945,4.9316 -8.5902,5.83942c-2.48645,1.9447 -12.01386,5.07117 -15.53363,5.28901c-2.64438,0.16368 0.37354,-1.95607 -0.26509,-3.89787c-1.48867,-4.52638 6.43324,-13.34525 10.78776,-16.75099z" fill="url(#color-12)" stroke="#000000" stroke-width="2.5" stroke-linecap="butt"/><path d="M375.52081,236.2004c5.0474,-2.6689 12.42056,-6.26309 13.03463,-2.96141c0.61407,3.30167 -7.52343,8.59707 -12.57083,11.26597c-0.5707,0.30177 -8.60489,6.00902 -9.11889,6.31281c-4.0319,2.38305 -2.42046,-7.76681 -2.96508,-10.69518c-0.61407,-3.30167 6.57277,-1.25329 11.62018,-3.92218z" fill="url(#color-13)" stroke="#000000" stroke-width="2.5" stroke-linecap="butt"/><path d="M302.65183,157.62694c0.71301,-2.12811 1.27229,2.33013 3.37917,1.69868c1.70732,-0.51169 9.26937,7.37891 9.53036,8.51267c0.79002,3.43193 -2.75067,17.11097 0.98612,17.62097c5.15053,0.70296 10.62554,0.01817 15.71334,0.99738c4.15585,0.79985 8.05977,1.58663 12.35424,1.83159c1.914,0.10917 7.86786,1.48983 9.43244,0.53797c0.78313,-0.47645 0.45785,-2.34178 0.60088,-3.05031c1.23402,-6.11332 -1.28459,-15.01645 6.15989,-14.5953c1.3975,0.07906 2.88277,-4.68529 4.20655,-4.25197c0.94961,0.31085 4.37491,0.25426 4.94269,1.04446c1.97541,2.74931 0.69985,15.02265 1.00642,18.24913c1.0556,11.10922 1.21866,21.13737 -0.67071,32.11737c-2.79756,16.25792 1.8048,27.58827 2.58908,43.59695c0.81192,16.57303 -6.14753,37.99184 -7.07196,54.20017c-0.63154,11.07283 -0.53816,22.57059 -2.40363,33.44663c-0.32714,1.90724 0.27655,8.06182 -1.64864,9.16919c-2.91285,1.67545 -10.33469,-1.00628 -13.53596,-1.20741c-13.56453,-0.85218 -27.10677,-2.67941 -40.74851,-3.45746c-2.5904,-0.14774 -14.17808,-0.52641 -14.99691,-2.79869c-1.45557,-4.03927 1.16205,-9.43355 0.54351,-13.62331c-0.24345,-1.649 -1.44855,-3.17421 -1.93337,-4.73472c-0.7066,-2.27441 -0.17272,-4.89248 -0.65671,-7.19575c-1.1244,-5.35093 1.54829,-11.37114 0.84617,-16.77144c-0.84881,-6.52854 -4.00054,-13.38824 -2.21459,-20.44915c1.58948,-6.28411 4.85604,-12.25746 5.55542,-18.80916c1.92846,-18.06575 2.65452,-36.22072 3.69025,-54.38026c0.47264,-8.28691 0.86813,-46.65364 2.74146,-50.12073" fill="url(#color-14)" stroke="#000000" stroke-width="2.5" stroke-linecap="round"/><path d="M394.06474,126.61981c-1.59454,27.95747 -27.28141,52.17968 -57.48497,50.45704c-30.20355,-1.72264 -53.48632,-28.73781 -51.89179,-56.69527c1.59454,-27.95746 27.372,-49.225 57.57554,-47.50236c30.20355,1.72264 53.39575,25.78312 51.80121,53.74059z" fill="url(#color-15)" stroke="#000000" stroke-width="2.5" stroke-linecap="butt"/><g stroke-linecap="butt"><path d="M293.26163,106.08921c-2.65334,5.83783 -7.19199,9.51344 -9.86303,13.88155c-4.81326,7.87145 1.77304,20.76593 -1.19965,19.47045c-4.62234,-2.0144 -9.17547,-23.26476 -1.74075,-39.62248c3.70481,-8.15125 17.08806,-33.00833 32.99184,-37.79902c8.66622,-2.61052 24.65835,-4.055 30.77205,-0.61405c5.1819,2.91652 1.08708,10.58779 2.15092,11.05142c3.07717,1.34103 -44.9237,8.7564 -47.44893,18.14531c-1.26797,4.71443 -3.17724,10.01882 -5.66249,15.48682z" fill="url(#color-16)" stroke="#000000" stroke-width="2.5"/><path d="M394.96008,95.65464c-2.01668,-5.93711 -14.79001,-11.06042 -29.63687,-16.28053c-8.52348,-2.99683 -22.50855,-4.17569 -21.31493,-4.47288c0.35061,-0.08729 -2.26943,-2.59519 -4.955,-5.6184c-0.71217,-0.80171 -1.42896,-1.63965 -2.09617,-2.47831c-2.6335,-3.31018 -4.49479,-6.63139 -2.25264,-7.77889c2.86375,-1.46561 10.38206,4.57445 13.69537,4.90289c8.39128,0.83179 30.1721,10.21638 38.63303,13.59825c17.4608,6.97918 19.68723,30.36361 24.08256,38.706c8.82041,16.74132 -4.62202,33.83655 -9.53814,35.06057c-0.78179,0.19465 -0.10518,-9.25462 -0.01032,-10.06562c0.28879,-2.46882 7.671,-7.41069 3.46801,-13.61539c-3.09855,-4.57427 -0.06807,-10.34113 -3.21593,-16.31586c-2.94846,-5.59624 -5.26498,-10.94917 -6.85896,-15.64183z" fill="url(#color-17)" stroke="#000000" stroke-width="2.5"/><path d="M330.77497,62.08237c-0.1338,-0.17112 -0.22518,-0.40082 -0.2238,-0.70902c0.00505,-1.13416 1.25589,-1.06294 1.25589,-1.06294c2.87924,0.16392 8.14415,-0.31693 10.43195,1.85447c0.79914,0.75849 1.38121,2.05852 1.83778,3.4582l0.30139,0.05135c0.62529,0.09818 1.10976,0.60671 1.10716,1.19057c-0.0021,0.47178 -0.32158,0.85816 -0.77432,1.00337c0.24537,0.97044 0.45278,1.87439 0.65399,2.55851c0.21082,0.71678 0.85539,1.60519 0.40002,2.18407c-0.81391,1.0347 -5.42875,0.17513 -6.65985,-0.03269c-0.43127,-0.07662 -0.90038,-0.16557 -1.39108,-0.26984l-1.12895,0.13021c-0.51052,-0.35364 -1.29892,-0.5672 -1.81365,-0.91871c-1.6843,-0.57004 -3.26517,-1.36602 -4.16816,-2.49292c-1.52213,-1.89955 -1.79489,-5.42178 0.17163,-6.94467zM340.47311,63.67851c-0.00338,-0.00348 -0.0068,-0.00694 -0.0102,-0.01041c-0.53096,-0.53909 -1.58316,-0.81533 -2.79559,-0.95407c0.0385,0.04045 0.07413,0.08315 0.10659,0.12782c1.03876,0.12112 2.00119,0.39631 2.69921,0.83666zM332.44088,67.07979c-0.14126,-0.13586 -0.26707,-0.26881 -0.3782,-0.39882c0.09433,0.27483 0.21488,0.54053 0.35776,0.78559c-0.01726,-0.09732 -0.01845,-0.19646 -0.00048,-0.29735c0.00543,-0.0305 0.01243,-0.0603 0.02092,-0.08941z" fill="url(#color-18)" stroke="none" stroke-width="0.5"/><path d="M293.25251,108.13837c-2.65604,6.44324 -7.19645,10.51654 -9.86952,15.34162c-4.81692,8.69489 1.76374,22.85496 -1.20843,21.4456c-4.62154,-2.19144 -9.16525,-25.56378 -1.72297,-43.61786c3.70857,-8.99659 9.11457,-24.69164 25.02093,-30.05813c16.01413,-5.40287 38.58931,-1.5483 40.90789,-0.44887c3.07666,1.45889 -44.92879,9.90014 -47.4583,20.2527c-1.27013,5.1983 -3.18183,11.0499 -5.6696,17.08498z" fill="url(#color-19)" stroke="#000000" stroke-width="2.5"/><path d="M300.37668,119.16c-1.35426,6.89581 -4.99092,11.79998 -6.6698,17.0942c-3.0254,9.54031 -4.34385,17.03244 -7.50043,16.20062c-4.90828,-1.29342 -5.15595,-18.06552 -1.36128,-37.38772c1.89091,-9.62848 2.22412,-28.54283 16.65956,-36.89357c3.75652,-2.17311 7.44587,-6.3354 11.80031,-7.56621c12.49206,-3.53092 29.76437,0.9264 31.59034,1.40758c3.26756,0.86107 -41.77514,18.37277 -42.26211,29.12155c-0.24452,5.39726 -0.98809,11.56457 -2.25656,18.02355z" fill="url(#color-20)" stroke="#000000" stroke-width="2.5"/><path d="M309.41964,128.92761c-0.03159,7.10017 -2.89828,12.67765 -3.60253,18.25498c-1.26904,10.05049 -1.14068,17.73443 -4.66879,17.53356c-5.48599,-0.31233 -9.17679,-16.88207 -9.08828,-36.77689c0.04411,-9.91382 0.91864,-27.39995 14.56933,-38.52499c13.74318,-11.20042 37.76526,-16.14865 40.51753,-15.99194c3.65216,0.20793 -40.68811,26.45434 -39.00968,37.20098c0.84278,5.39617 1.31201,11.65391 1.28241,18.30429z" fill="url(#color-21)" stroke="#000000" stroke-width="2.5"/><path d="M388.26679,104.70087c-0.87353,-6.53883 -12.06186,-13.68156 -25.19437,-21.20839c-7.5393,-4.32111 -20.56041,-7.46657 -19.37979,-7.61786c1.26535,-0.16215 11.06053,-8.79816 19.45701,-6.6227c7.79124,2.01865 13.36329,10.52436 20.77638,15.24323c15.29837,9.73834 20.78665,26.27112 23.49095,35.67135c5.42694,18.86413 -11.58191,37.74554 -16.44445,38.36862c-3.12719,0.40071 5.48537,-9.99057 1.63987,-19.44742c-2.134,-5.24793 1.35458,-10.21722 -0.58222,-16.94955c-1.8141,-6.30585 -3.07291,-12.26903 -3.76334,-17.43728z" fill="url(#color-22)" stroke="#000000" stroke-width="2.5"/><path d="M381.29003,115.69262c1.124,-6.14695 -8.77193,-16.19887 -20.65925,-27.22911c-6.82443,-6.33239 -19.98,-13.39839 -18.64878,-13.14903c1.42675,0.26725 14.81183,-4.28088 23.24836,0.40744c7.82836,4.35037 11.18765,13.7928 17.74876,20.44063c13.54017,13.71916 14.26298,30.33057 14.22157,39.63978c-0.0404,9.08058 -4.46258,11.82182 -7.14672,17.02089c-2.83794,5.49698 -4.01739,13.17978 -6.83514,12.65196c-3.52607,-0.66049 -1.71465,-6.519 -2.89568,-16.25112c-0.6554,-5.40068 -0.50164,-10.00445 -0.47197,-16.67161c0.02779,-6.24479 0.55046,-12.00133 1.43887,-16.85983z" fill="url(#color-23)" stroke="#000000" stroke-width="2.5"/><path d="M362.32278,60.52664c-3.99844,6.84019 -9.32856,11.09426 -11.90516,9.50174c-2.57661,-1.59254 -1.42395,-8.4286 2.57448,-15.26879c3.99844,-6.84019 9.32857,-11.09426 11.90516,-9.50173c2.5766,1.59253 1.42395,8.4286 -2.57448,15.26878z" fill="url(#color-24)" stroke="#000000" stroke-width="2.5"/><path d="M346.86383,53.54817c2.64367,7.7989 2.5173,14.78309 -0.28223,15.59966c-2.79955,0.81653 -7.21214,-4.8438 -9.8558,-12.64271c-2.64367,-7.7989 -2.5173,-14.78309 0.28223,-15.59966c2.79955,-0.81653 7.21214,4.8438 9.8558,12.64271z" fill="url(#color-25)" stroke="#000000" stroke-width="2.5"/></g><g stroke="#000000" stroke-width="2.5" stroke-linecap="butt"><path d="M386.82473,75.70331c5.07248,10.89055 6.05324,21.17753 2.19057,22.97664c-3.86265,1.79911 -11.106,-5.57095 -16.1785,-16.46149c-5.07248,-10.89055 -6.05324,-21.17754 -2.19058,-22.97666c3.86265,-1.79911 11.10601,5.57097 16.17851,16.46152z" fill="#ff00e7"/><path d="M383.15953,85.92123c-10.83822,5.18333 -21.11467,6.269 -22.95309,2.4249c-1.83842,-3.8441 5.45734,-11.16227 16.29555,-16.34562c10.83822,-5.18333 21.11469,-6.26901 22.9531,-2.42491c1.83842,3.8441 -5.45736,11.16229 -16.29556,16.34562z" fill="#ff00e7"/><path d="M382.67245,71.78786c11.16935,4.42487 18.95164,11.2234 17.38222,15.18496c-1.56941,3.96154 -11.89623,3.58595 -23.06558,-0.83893c-11.16935,-4.42487 -18.95165,-11.22341 -17.38223,-15.18497c1.56941,-3.96154 11.89624,-3.58594 23.06559,0.83894z" fill="#ff00e7"/><path d="M387.03239,81.72921c-4.31068,11.21392 -11.02945,19.06517 -15.0068,17.53626c-3.97735,-1.52891 -3.70715,-11.85902 0.60352,-23.07294c4.31068,-11.21392 11.02946,-19.06518 15.00682,-17.53627c3.97735,1.52891 3.70712,11.85903 -0.60354,23.07294z" fill="#ff00e7"/><path d="M386.6479,82.72944c-1.4652,3.81163 -5.87727,5.66214 -9.85463,4.13323c-3.97736,-1.52891 -6.01385,-5.85827 -4.54864,-9.66991c1.4652,-3.81163 5.87727,-5.66214 9.85463,-4.13323c3.97736,1.52891 6.01385,5.85827 4.54864,9.66991z" fill="#ffe300"/></g><path d="M370.88912,118.75182c-0.12725,2.23125 -2.21567,3.92679 -4.66458,3.78711c-2.44893,-0.13967 -4.33101,-2.06168 -4.20374,-4.29291c0.12725,-2.23124 2.21567,-3.92679 4.66458,-3.78711c2.44893,0.13967 4.33101,2.06168 4.20374,4.29291z" fill="#ffffff" stroke="#000000" stroke-width="2.5" stroke-linecap="butt"/><path d="M318.77774,116.10987c-0.12725,2.23124 -2.21567,3.92679 -4.66458,3.78711c-2.44893,-0.13967 -4.33101,-2.06168 -4.20374,-4.29291c0.12725,-2.23125 2.21567,-3.9268 4.66458,-3.78712c2.44893,0.13967 4.33101,2.06168 4.20374,4.29292z" fill="#ffffff" stroke="#000000" stroke-width="2.5" stroke-linecap="butt"/><path d="M355.44003,122.24109c-0.15424,2.70444 -6.92093,4.51803 -15.1138,4.05076c-8.19289,-0.46727 -14.70946,-3.03846 -14.55522,-5.7429c0.15424,-2.70444 6.92093,-4.51803 15.1138,-4.05076c8.19289,0.46727 14.70946,3.03846 14.55522,5.7429z" fill-opacity="0.18431" fill="#ff0505" stroke="none" stroke-width="0" stroke-linecap="butt"/><path d="M376.65256,112.84747c0.60521,1.09373 -0.48852,1.69893 -0.48852,1.69893l-0.65488,0.35364c-1.21174,0.50477 -3.23469,1.89317 -4.46482,2.0242c-1.53341,0.16336 -2.69691,-1.14455 -4.07504,-1.51873c0,0 -1.20131,-0.34542 -0.85589,-1.54675c0.34542,-1.20131 1.54675,-0.85589 1.54675,-0.85589c0.48913,0.14641 2.70183,1.53741 3.103,1.43724c1.16923,-0.29198 2.60923,-1.35807 3.78454,-1.8478l0.40591,-0.23335c0,0 1.09372,-0.60521 1.69892,0.48852z" fill="#000000" stroke="none" stroke-width="0.5" stroke-linecap="butt"/><path d="M323.93829,109.95277c0.56405,1.1155 -0.55144,1.67956 -0.55144,1.67956l-0.2309,0.11675c-3.03866,1.52017 -5.4958,1.8544 -8.70316,0.80133c0,0 -1.18762,-0.38993 -0.79769,-1.57756c0.38993,-1.18762 1.57756,-0.79769 1.57756,-0.79769c2.5647,0.84207 4.32275,0.60928 6.79519,-0.65709l0.2309,-0.11675c0,0 1.1155,-0.56405 1.67956,0.55144z" fill="#000000" stroke="none" stroke-width="0.5" stroke-linecap="butt"/><path d="M368.24708,160.66078c-0.93279,0.83212 -1.76489,-0.10066 -1.76489,-0.10066l-0.4991,-0.57314c-0.18352,0.03398 -0.31832,0.02629 -0.31832,0.02629l-0.32997,-0.04313c-6.70722,0.94809 -13.16583,3.49989 -19.98943,3.7909c-3.34613,0.1427 -6.85936,-0.38513 -10.20502,-0.57595c-8.17317,-0.46615 -19.12719,-0.40372 -26.31071,-4.52264c0,0 -0.24633,-0.14124 -0.43687,-0.4065c-0.19447,0.11192 -1.08143,0.54959 -1.69432,-0.37268c-0.69183,-1.04109 0.34924,-1.73293 0.34924,-1.73293c0.40049,-0.26614 0.80098,-0.53229 1.20148,-0.79843l1.2453,-0.40411c0,0 1.20643,-0.32712 1.53356,0.87932c0.13489,0.49747 0.00902,0.84545 -0.18551,1.08261c6.82771,3.48213 16.96076,3.35283 24.44017,3.77942c3.26176,0.18604 6.69721,0.71368 9.95839,0.57406c6.48253,-0.27753 12.6483,-2.64776 19.01288,-3.65866c0.04442,-0.16671 0.13399,-0.34341 0.28755,-0.52555c0.80573,-0.95567 1.76139,-0.14994 1.76139,-0.14994c0.36764,0.30994 0.73528,0.61991 1.10292,0.92986l0.94192,1.03699c0,0 0.83213,0.93278 -0.10066,1.76489z" fill="#000000" stroke="none" stroke-width="0.5" stroke-linecap="butt"/><path d="M298.13036,264.78331c-0.14311,-2.29285 2.66002,-5.83987 3.92794,-7.74335c1.3017,-1.9542 2.23632,-4.23455 3.47291,-6.22705c2.69154,-4.33688 9.81672,-4.97172 13.6428,-5.86205c1.68762,-0.39271 7.82289,-2.74361 8.78695,-0.76176c2.30836,4.74536 -4.15705,8.18119 -6.96882,10.25617c-0.93638,0.69102 -1.66637,1.46062 -2.6077,1.95182c-0.23914,0.12478 -0.7403,0.20779 -0.67827,0.48368c0.09803,0.43605 4.00553,-1.53003 4.40035,-1.63924c2.15359,-0.5957 12.08857,-4.14867 13.25325,-2.48074c0.56555,0.80992 0.46387,2.32184 0.52964,3.36222c0.34994,5.53568 -3.49273,5.03942 -7.15143,7.13091c-0.91382,0.52239 -1.94253,1.04607 -2.90337,1.3532c-0.24836,0.07939 -0.72637,-0.09015 -0.74864,0.20616c-0.03266,0.43451 4.78783,-0.77877 5.23045,-0.88171c0.25037,-0.05823 0.50074,-0.11647 0.7511,-0.17472c4.19711,-0.97642 5.99508,-1.5917 6.6564,3.82121c0.48743,3.98957 0.65917,5.83239 -2.9237,7.58643c-1.60071,0.78365 -3.40715,1.78635 -5.05759,2.17563c-0.25032,0.05904 -0.70883,-0.12037 -0.75103,0.17586c-0.02176,0.15278 3.1972,1.02965 3.5078,1.05924c2.32186,0.22119 4.23478,3.0189 3.74202,6.07366c-0.85205,5.2822 -4.91116,5.05495 -8.15007,7.31708c-6.8574,4.78937 -11.62389,5.95944 -18.73166,4.45471c-2.8347,-0.60011 -6.02568,-0.26191 -8.37383,-2.0378c-5.01582,-3.79345 -2.41025,-22.42363 -2.82717,-29.14492z" fill="#4ff110" stroke="#000000" stroke-width="2.5" stroke-linecap="round"/><path d="M373.60328,267.14958c0.42209,6.72097 5.32405,24.88256 0.81886,29.27027c-2.1091,2.0541 -5.31737,2.11531 -8.05544,3.06325c-6.8655,2.37688 -11.74049,1.80859 -19.14021,-2.09092c-3.49506,-1.84182 -7.49441,-1.11159 -8.99667,-6.24684c-0.86878,-2.96978 0.6814,-5.98365 2.95774,-6.49183c0.30451,-0.06798 3.38945,-1.33831 3.34886,-1.48719c-0.0787,-0.28868 -0.51135,-0.05365 -0.76707,-0.08111c-1.68604,-0.18103 -3.60314,-0.95132 -5.28887,-1.52984c-3.77317,-1.29491 -3.83192,-3.14479 -3.84436,-7.164c-0.01689,-5.45314 1.84364,-5.0662 6.12959,-4.61926c0.25567,0.02666 0.51133,0.05333 0.767,0.07997c0.45198,0.04711 5.38593,0.65155 5.29949,0.22448c-0.05895,-0.29124 -0.51216,-0.06357 -0.76847,-0.11147c-0.99157,-0.18527 -2.07742,-0.57698 -3.0491,-0.98168c-3.89037,-1.62031 -7.64151,-0.65007 -7.98263,-6.18631c-0.06411,-1.04048 -0.353,-2.52803 0.10744,-3.40199c0.94824,-1.79981 11.24791,0.4902 13.45886,0.81348c0.40534,0.05926 4.52698,1.52421 4.57003,1.07935c0.02724,-0.28146 -0.48036,-0.30151 -0.73315,-0.39559c-0.9951,-0.37034 -1.81513,-1.04319 -2.83017,-1.61241c-3.04797,-1.70924 -9.89043,-4.31444 -8.19006,-9.31001c0.71014,-2.08634 7.09012,-0.5166 8.81347,-0.33679c3.90709,0.40766 11.05592,0.15158 14.26584,4.12011c1.47475,1.82328 2.68568,3.9697 4.22027,5.74687c1.49477,1.73105 4.71721,4.90198 4.86032,7.19483z" fill="#4ff110" stroke="#000000" stroke-width="2.5" stroke-linecap="round"/></g></g></svg>