<svg version="1.1" xmlns="http://www.w3.org/2000/svg" xmlns:xlink="http://www.w3.org/1999/xlink" width="160.76123" height="324.93689" viewBox="0,0,160.76123,324.93689"><defs><linearGradient x1="317.70122" y1="169.98519" x2="312.50958" y2="348.75438" gradientUnits="userSpaceOnUse" id="color-1"><stop offset="0" stop-color="#2982c1"/><stop offset="1" stop-color="#000000"/></linearGradient><linearGradient x1="395.30587" y1="143.02161" x2="355.85127" y2="141.87581" gradientUnits="userSpaceOnUse" id="color-2"><stop offset="0" stop-color="#a636f3"/><stop offset="1" stop-color="#581b7d"/></linearGradient><linearGradient x1="240.84348" y1="143.05883" x2="280.29807" y2="144.20463" gradientUnits="userSpaceOnUse" id="color-3"><stop offset="0" stop-color="#a636f3"/><stop offset="1" stop-color="#581b7d"/></linearGradient><radialGradient cx="282.95422" cy="95.87704" r="25.84387" gradientUnits="userSpaceOnUse" id="color-4"><stop offset="0" stop-color="#000000" stop-opacity="0.92549"/><stop offset="1" stop-color="#000000" stop-opacity="0"/></radialGradient><linearGradient x1="237.61342" y1="70.26844" x2="302.4892" y2="79.37337" gradientUnits="userSpaceOnUse" id="color-5"><stop offset="0" stop-color="#a636f3"/><stop offset="1" stop-color="#16031b"/></linearGradient><radialGradient cx="355.34177" cy="92.83144" r="25.35587" gradientUnits="userSpaceOnUse" id="color-6"><stop offset="0" stop-color="#000000" stop-opacity="0.92549"/><stop offset="1" stop-color="#000000" stop-opacity="0"/></radialGradient><linearGradient x1="401.057" y1="72.45506" x2="335.76217" y2="77.7797" gradientUnits="userSpaceOnUse" id="color-7"><stop offset="0" stop-color="#a636f3"/><stop offset="1" stop-color="#16031b"/></linearGradient></defs><g transform="translate(-238.94154,-28.20971)"><g stroke-miterlimit="10"><path d="M269.1943,343.8563l2.32086,-147.27048c0,0 6.82672,-25.51079 15.84126,-25.6544c8.95217,-0.14261 30.15986,-0.08358 48.6943,-0.37885c20.10278,-0.32026 26.55267,17.04087 26.55267,17.04087l-5.19411,162.46488z" fill="url(#color-1)" stroke="#000000" stroke-width="2.5" stroke-linecap="butt"/><path d="M341.03869,182.45051c-0.49993,8.50828 -10.57937,14.83718 -22.51307,14.13599c-11.93369,-0.7012 -21.20259,-8.16694 -20.70266,-16.67523c0.49993,-8.50828 10.57935,-14.83718 22.51305,-14.13599c11.93369,0.7012 21.2026,8.16695 20.70267,16.67523z" fill="#f2f2f2" stroke="#000000" stroke-width="1.5" stroke-linecap="butt"/><path d="M335.38185,182.56658c-0.3756,6.39243 -7.94848,11.14744 -16.91448,10.62063c-8.96601,-0.52682 -15.92989,-6.13597 -15.55429,-12.52841c0.3756,-6.39243 7.94847,-11.14744 16.91447,-10.62063c8.96601,0.52682 15.9299,6.13598 15.5543,12.52841z" fill="#a636f3" stroke="#000000" stroke-width="2.5" stroke-linecap="butt"/><path d="M375.0665,112.3598c4.77684,0.55708 8.132,-1.70723 12.52964,-2.64768c0.66977,-0.14324 4.39247,-1.71636 4.8743,-1.09458c0.37152,0.47943 -1.23587,3.6168 -1.43512,4.16574c-0.6784,1.86888 -6.16186,11.96077 -6.06226,12.74099c0.3673,2.87729 9.17212,-1.38198 10.51669,-0.09539c1.2316,1.17848 -1.66522,5.12837 -2.19321,6.01782c-1.49382,2.51642 -8.60057,15.48139 -8.55779,17.53669c0.0681,3.27118 4.2604,7.05352 2.68174,11.33054c-0.77466,2.09879 -2.50486,-1.07024 -3.4693,-0.71255c-0.98225,0.36431 -0.77895,4.51024 -0.79532,5.38283c-0.06675,3.55644 -0.2082,7.53637 -0.99043,11.04061c-0.08057,0.36096 -0.03797,0.91284 -0.35158,1.04806c-0.78114,0.33678 -9.13201,-8.87008 -10.48462,-9.93001c-6.58451,-5.15974 -12.93416,-13.08622 -14.6747,-22.36454c-2.6295,-14.01716 2.46815,-33.62982 18.02793,-31.81789z" fill="url(#color-2)" stroke="#000000" stroke-width="2.5" stroke-linecap="round"/><path d="M263.17667,114.24513c15.63871,-0.9059 19.58958,18.96954 16.15106,32.81047c-2.27605,9.16168 -9.075,16.7063 -15.94785,21.47523c-1.41184,0.97966 -10.28296,9.68636 -11.04322,9.30482c-0.30524,-0.15318 -0.23068,-0.70165 -0.29017,-1.06668c-0.57754,-3.54372 -0.4878,-7.52515 -0.34804,-11.07947c0.03428,-0.87207 0.47785,-4.99922 -0.4816,-5.41991c-0.94205,-0.41308 -2.85322,2.65021 -3.50479,0.51001c-1.32779,-4.36142 3.07694,-7.89411 3.33477,-11.15582c0.162,-2.04936 -6.18038,-15.4049 -7.52564,-18.00377c-0.47549,-0.91859 -3.1382,-5.02994 -1.84029,-6.13496c1.41697,-1.20638 9.95976,3.55668 10.49343,0.70556c0.14471,-0.77312 -4.74384,-11.16622 -5.31263,-13.07133c-0.16707,-0.55957 -1.58967,-3.78493 -1.19096,-4.24199c0.5171,-0.59277 4.14223,1.19374 4.80256,1.3756c4.33564,1.19408 7.55375,3.64928 12.35486,3.37036z" fill="url(#color-3)" stroke="#000000" stroke-width="2.5" stroke-linecap="round"/><path d="M373.61599,131.73017c-2.7672,28.41981 -29.45316,52.09556 -59.56341,49.16377c-30.11024,-2.93179 -52.24264,-31.36093 -49.47544,-59.78073c2.7672,-28.4198 29.41965,-49.08193 59.52989,-46.15012c30.11024,2.93179 52.27617,28.34728 49.50897,56.76708z" fill="#a636f3" stroke="#000000" stroke-width="2.5" stroke-linecap="butt"/><path d="M333.52218,120.65434c-0.06488,2.70807 -6.76799,4.74405 -14.97183,4.54751c-8.20384,-0.19654 -14.80177,-2.55118 -14.73688,-5.25925c0.06488,-2.70807 6.768,-4.74405 14.97184,-4.54751c8.20384,0.19654 14.80177,2.55118 14.73689,5.25925z" fill-opacity="0.23137" fill="#000000" stroke="none" stroke-width="0" stroke-linecap="butt"/><path d="M298.40445,118.18972c-0.21657,2.22435 -2.37127,3.83483 -4.81262,3.59712c-2.44136,-0.23771 -4.24489,-2.23361 -4.02832,-4.45795c0.21657,-2.22436 2.37127,-3.83483 4.81262,-3.59712c2.44136,0.23771 4.24488,2.2336 4.02831,4.45796z" fill="#ffffff" stroke="#000000" stroke-width="2.5" stroke-linecap="butt"/><path d="M347.55757,119.6281c-0.21657,2.22436 -2.37127,3.83483 -4.81262,3.59712c-2.44136,-0.23771 -4.24488,-2.23361 -4.02831,-4.45795c0.21657,-2.22435 2.37126,-3.83482 4.81262,-3.59711c2.44136,0.23771 4.24489,2.2336 4.02832,4.45795z" fill="#ffffff" stroke="#000000" stroke-width="2.5" stroke-linecap="butt"/><path d="M287.5859,116.36769c-12.45362,6.11028 -24.62295,1.88968 -27.18096,-9.42699c-2.558,-11.31667 5.46398,-25.44402 17.91761,-31.5543c12.45362,-6.11028 24.62295,-1.88968 27.18095,9.42699c2.558,11.31667 -5.46398,25.44401 -17.9176,31.5543z" fill="url(#color-4)" stroke="#000000" stroke-width="0" stroke-linecap="butt"/><path d="M296.83278,94.3285l-14.26182,11.94644l-13.19799,7.0525l-15.84945,-3.21523l-13.31731,-39.51678l2.7201,-38.18312l23.3622,41.04449l36.2232,5.75631z" fill="url(#color-5)" stroke="#000000" stroke-width="2.5" stroke-linecap="round"/><path d="M333.8855,80.7111c3.14981,-10.93862 15.30954,-14.37967 27.1595,-7.68579c11.84997,6.69388 18.90284,20.98785 15.75303,31.92648c-3.14981,10.93862 -15.30955,14.37967 -27.15951,7.68579c-11.84997,-6.69388 -18.90283,-20.98785 -15.75302,-31.92647z" fill="url(#color-6)" stroke="#000000" stroke-width="0" stroke-linecap="butt"/><path d="M335.749,77.61841l36.4962,-3.64447l25.70477,-39.61954l0.49963,38.27662l-15.58815,38.67733l-16.00932,2.29001l-12.76646,-7.80652l-13.5445,-12.75398z" fill="url(#color-7)" stroke="#000000" stroke-width="2.5" stroke-linecap="round"/><path d="M311.64787,87.75588c0,0 -1.22724,0.80798 -2.63208,1.5215c-1.08906,0.55314 -2.28485,1.04951 -3.09836,1.06867c-0.75754,0.01784 -1.83199,-0.4416 -2.79216,-0.95768c-1.20074,-0.6454 -2.22275,-1.37939 -2.22275,-1.37939" fill="none" stroke-opacity="0.40392" stroke="#000000" stroke-width="2.5" stroke-linecap="round"/><path d="M341.26215,89.55923c0,0 -1.39184,0.47092 -2.93156,0.80546c-1.19363,0.25935 -2.47614,0.43676 -3.26799,0.24932c-0.73737,-0.17455 -1.66047,-0.89106 -2.45868,-1.63345c-0.99819,-0.9284 -1.80105,-1.89725 -1.80105,-1.89725" fill="none" stroke-opacity="0.40392" stroke="#000000" stroke-width="2.5" stroke-linecap="round"/><path d="M326.30719,85.15571c0,0 -1.18234,0.87235 -2.54708,1.65986c-1.05798,0.6105 -2.22555,1.17002 -3.03688,1.23259c-0.7555,0.05826 -1.85296,-0.34314 -2.83931,-0.80722c-1.23348,-0.58035 -2.29323,-1.25873 -2.29323,-1.25873" fill="none" stroke-opacity="0.40392" stroke="#000000" stroke-width="2.5" stroke-linecap="round"/><path d="M370.15471,129.56251c0,0 -0.92782,0.48438 -1.9524,0.83389c-0.79428,0.27095 -1.64671,0.46085 -2.17012,0.2812c-0.48739,-0.1673 -1.09267,-0.87458 -1.61487,-1.60896c-0.65303,-0.91837 -1.1761,-1.8791 -1.1761,-1.8791" fill="none" stroke-opacity="0.40392" stroke="#000000" stroke-width="2.5" stroke-linecap="round"/><path d="M370.35469,138.07422c0,0 -0.92782,0.48438 -1.9524,0.8339c-0.79428,0.27095 -1.64671,0.46085 -2.17012,0.2812c-0.48739,-0.1673 -1.09267,-0.87458 -1.61487,-1.60896c-0.65303,-0.91837 -1.1761,-1.8791 -1.1761,-1.8791" fill="none" stroke-opacity="0.40392" stroke="#000000" stroke-width="2.5" stroke-linecap="round"/><path d="M368.2791,146.51984c0,0 -0.92782,0.48438 -1.9524,0.8339c-0.79428,0.27095 -1.6467,0.46085 -2.17011,0.2812c-0.4874,-0.16729 -1.09268,-0.87457 -1.61488,-1.60895c-0.65303,-0.91837 -1.1761,-1.8791 -1.1761,-1.8791" fill="none" stroke-opacity="0.40392" stroke="#000000" stroke-width="2.5" stroke-linecap="round"/><path d="M274.63711,122.80445c0,0 -0.57794,0.92875 -1.28317,1.80768c-0.56394,0.70284 -1.20925,1.3738 -1.70553,1.51253c-0.53295,0.14897 -1.37291,-0.09008 -2.15014,-0.40667c-1.00257,-0.40838 -1.90072,-0.94578 -1.90072,-0.94578" fill="none" stroke-opacity="0.40392" stroke="#000000" stroke-width="2.5" stroke-linecap="round"/><path d="M275.6135,128.71086c0,0 -0.57794,0.92875 -1.28317,1.80767c-0.56394,0.70284 -1.20925,1.3738 -1.70554,1.51253c-0.53295,0.14897 -1.37291,-0.09008 -2.15013,-0.40667c-1.00257,-0.40839 -1.90072,-0.94579 -1.90072,-0.94579" fill="none" stroke-opacity="0.40392" stroke="#000000" stroke-width="2.5" stroke-linecap="round"/><path d="M275.85923,135.6472c0,0 -0.57794,0.92875 -1.28317,1.80767c-0.56394,0.70284 -1.20925,1.3738 -1.70554,1.51253c-0.53295,0.14897 -1.37291,-0.09008 -2.15013,-0.40667c-1.00257,-0.40839 -1.90072,-0.94579 -1.90072,-0.94579" fill="none" stroke-opacity="0.40392" stroke="#000000" stroke-width="2.5" stroke-linecap="round"/><path d="M312.22715,148.54409l3.36499,5.25696" fill="none" stroke="#000000" stroke-width="2.5" stroke-linecap="round"/><path d="M325.58298,148.93196l-4.85637,5.72173" fill="none" stroke="#000000" stroke-width="2.5" stroke-linecap="round"/><path d="M356.07773,152.0809l2.85883,0.94894l-23.29413,16.93047l-18.6452,-4.00514l-13.68021,3.9323l-24.92653,-16.31038l4.06266,-0.74793" fill="none" stroke="#000000" stroke-width="2.5" stroke-linecap="round"/><path d="M387.00044,51.27527c0,0 -47.1377,1.34922 -70.16462,0.99061c-21.73205,-0.33844 -64.33721,-3.08526 -64.33721,-3.08526" fill="none" stroke="#000000" stroke-width="2.5" stroke-linecap="round"/><path d="M383.49654,56.09022c0,0 -45.57608,1.30423 -67.30486,0.9394c-20.438,-0.34316 -59.43277,-3.06734 -59.43277,-3.06734" fill="none" stroke="#000000" stroke-width="2.5" stroke-linecap="round"/><path d="M381.01936,61.19377c0,0 -43.83738,0.765 -64.73377,0.51319c-19.63888,-0.23665 -57.10631,-1.98136 -57.10631,-1.98136" fill="none" stroke="#000000" stroke-width="2.5" stroke-linecap="round"/><path d="M287.55891,243.7545l24.1498,-11.37159l19.20144,12.95685l15.17683,-5.75886" fill="none" stroke="#ffffff" stroke-width="1.5" stroke-linecap="round"/><path d="M287.13853,250.70216l24.1498,-11.37159l19.20145,12.95686l15.17683,-5.75886" fill="none" stroke="#ffffff" stroke-width="1.5" stroke-linecap="round"/><path d="M286.4016,257.31435l24.1498,-11.37159l19.20145,12.95686l15.17683,-5.75886" fill="none" stroke="#ffffff" stroke-width="1.5" stroke-linecap="round"/><g><path d="M310.12466,259.32512c0,0 1.42836,-2.26614 4.83975,-4.40118c2.31981,-1.45187 1.24525,-2.33987 0.00821,-2.79834c-1.95111,-0.72311 -11.84501,-6.23307 -12.09515,-7.14816c-0.23892,-0.87401 5.3381,-3.44178 6.30275,-3.99715c4.70345,-2.70796 18.81068,-3.36648 24.16194,-4.27655c1.80886,-0.30761 6.14317,-1.25367 7.31428,-0.14035c1.59769,1.51885 1.70311,8.65193 1.97383,11.28924c0.52606,5.12484 -1.68037,10.99005 -2.32222,16.42578c-0.70078,5.93493 0.77946,10.96391 -1.9397,17.32257c-1.0963,2.56368 -1.06712,7.35561 -2.90422,9.60725c-7.59371,9.30719 -22.96635,14.80918 -32.18348,18.54239c-5.81324,2.35453 -17.04833,5.92181 -17.04833,5.92181l-7.66784,1.48836l-1.47754,-4.78212l11.51382,-15.57594c0,0 5.55442,-3.52762 5.53241,-3.76589c-0.00535,-0.05781 -4.11212,1.01714 -4.47651,1.14922c-2.64111,0.9573 -12.34129,3.07414 -12.34129,3.07414l0.80894,-11.34277c0,0 14.06985,-5.69814 16.00446,-6.48243c0.51407,-0.2084 4.40061,-1.45378 4.48864,-2.28527c0.07557,-0.71388 -5.40381,-0.47279 -6.07211,-0.41674c-5.20614,0.43653 -13.08849,-5.7279 -13.08849,-5.7279c0,0 10.10496,-5.92125 12.11785,-6.73651c16.84179,-6.8213 4.16882,-6.26047 18.55,-4.94345z" fill="#a636f3" stroke="#000000" stroke-width="2.5" stroke-linecap="round"/><path d="M312.07372,271.22928c4.31828,-1.54587 7.76371,-1.99719 7.69556,-1.00808c-0.06813,0.98912 -3.62403,3.04412 -7.94231,4.58998c-4.31828,1.54587 -7.76371,1.99719 -7.69556,1.00808c0.06813,-0.98912 3.62403,-3.04412 7.94231,-4.58998z" fill-opacity="0.23137" fill="#000000" stroke="none" stroke-width="0" stroke-linecap="butt"/><path d="M308.85326,286.64758c5.21454,-1.86671 9.39111,-2.64495 9.32864,-1.73826c-0.06246,0.90669 -4.3403,3.15498 -9.55483,5.02168c-5.21454,1.86671 -9.39111,2.64495 -9.32864,1.73826c0.06246,-0.90669 4.3403,-3.15498 9.55483,-5.02168z" fill-opacity="0.23137" fill="#000000" stroke="none" stroke-width="0" stroke-linecap="butt"/><path d="M323.31516,247.99037c1.14067,-0.40834 1.98714,0.39658 1.89061,1.79783c-0.09653,1.40125 -1.09949,2.86821 -2.24016,3.27654c-1.14067,0.40834 -1.98714,-0.39658 -1.8906,-1.79782c0.09653,-1.40125 1.09948,-2.86821 2.24016,-3.27654z" fill-opacity="0.23137" fill="#000000" stroke="none" stroke-width="0" stroke-linecap="butt"/><path d="M332.48772,261.32053c0,0 -1.0825,0.96278 -2.26928,1.81433c-0.92002,0.66013 -1.90271,1.2534 -2.49238,1.27949c-0.54911,0.02427 -1.20786,-0.51584 -1.77045,-1.12359c-0.70351,-0.76001 -1.25661,-1.62578 -1.25661,-1.62578" fill="none" stroke-opacity="0.40392" stroke="#000000" stroke-width="2.5" stroke-linecap="round"/><path d="M326.38685,269.13212c0,0 -1.0825,0.96276 -2.26928,1.81431c-0.92002,0.66013 -1.90274,1.25342 -2.4924,1.27951c-0.54911,0.02427 -1.20784,-0.51585 -1.77044,-1.1236c-0.70351,-0.76001 -1.25663,-1.62578 -1.25663,-1.62578" fill="none" stroke-opacity="0.40392" stroke="#000000" stroke-width="2.5" stroke-linecap="round"/><path d="M320.28598,276.94368c0,0 -1.0825,0.96276 -2.26928,1.81431c-0.92002,0.66013 -1.90273,1.2534 -2.4924,1.2795c-0.54911,0.02427 -1.20785,-0.51584 -1.77044,-1.12359c-0.70351,-0.76001 -1.25662,-1.62578 -1.25662,-1.62578" fill="none" stroke-opacity="0.40392" stroke="#000000" stroke-width="2.5" stroke-linecap="round"/></g><g><path d="M286.84672,285.5836c13.20948,5.8363 2.40542,-0.81133 13.81136,13.33366c1.36322,1.69057 7.31827,11.77564 7.31827,11.77564c0,0 -9.88452,1.55806 -14.22275,-1.35299c-0.55689,-0.37369 -5.2289,-3.2467 -5.50969,-2.58603c-0.32705,0.76953 2.46481,3.74638 2.81286,4.17829c1.30985,1.62548 10.83874,13.44196 10.83874,13.44196l-4.8041,10.30696c0,0 -7.44973,-6.56323 -9.29302,-8.68318c-0.25432,-0.29249 -3.32145,-3.2274 -3.35422,-3.17946c-0.135,0.19755 3.00575,5.97954 3.00575,5.97954l2.49549,19.20808l-3.61492,3.46181l-5.97877,-5.02646c0,0 -8.08657,-8.57674 -12.0235,-13.45915c-6.24218,-7.74129 -17.00508,-20.01933 -19.1201,-31.84365c-0.51167,-2.8606 1.84211,-7.03471 2.12952,-9.80811c0.71286,-6.87883 4.4501,-10.55509 6.72121,-16.08289c2.08007,-5.06284 3.00134,-11.26127 5.95115,-15.48493c1.51801,-2.17355 5.07591,-8.35686 7.21032,-8.9081c1.56451,-0.40406 4.89317,2.52874 6.3247,3.67648c4.23499,3.39547 16.24517,10.82533 19.0404,15.47745c0.57328,0.9541 4.20016,5.90813 3.56668,6.55596c-0.66325,0.67826 -11.98794,0.68695 -14.04462,0.371c-1.30397,-0.20033 -2.67463,0.05371 -1.35247,2.44982c1.9443,3.5236 2.09167,6.19828 2.09167,6.19828z" fill="#a636f3" stroke="#000000" stroke-width="2.5" stroke-linecap="round"/><path d="M284.07094,302.91194c-0.42102,0.89763 -3.21314,-1.1709 -6.23635,-4.62016c-3.02322,-3.44926 -5.13269,-6.9731 -4.71167,-7.87073c0.42102,-0.89763 3.21313,1.17089 6.23635,4.62015c3.02322,3.44926 5.1327,6.97311 4.71167,7.87074z" fill-opacity="0.23137" fill="#000000" stroke="none" stroke-width="0" stroke-linecap="butt"/><path d="M280.59403,319.11351c-0.38595,0.82282 -3.65825,-1.88667 -7.30894,-6.05182c-3.65068,-4.16515 -6.29726,-8.2087 -5.91131,-9.03152c0.38595,-0.82282 3.65825,1.88667 7.30894,6.05182c3.65068,4.16515 6.29725,8.20871 5.91131,9.03152z" fill-opacity="0.23137" fill="#000000" stroke="none" stroke-width="0" stroke-linecap="butt"/><path d="M281.19105,273.22002c-0.59647,1.27163 -1.72738,1.56389 -2.52595,0.65276c-0.79858,-0.91113 -0.96245,-2.68061 -0.36599,-3.95224c0.59647,-1.27163 1.72739,-1.56388 2.52595,-0.65275c0.79858,0.91113 0.96244,2.6806 0.36599,3.95223z" fill-opacity="0.23137" fill="#000000" stroke="none" stroke-width="0" stroke-linecap="butt"/><path d="M272.97144,280.54744c0,0 -0.90407,0.48799 -1.88823,0.81044c-0.78701,0.25784 -1.62521,0.40983 -2.09335,0.12183c-0.50271,-0.3093 -1.07335,-1.30531 -1.55675,-2.32929c-0.62354,-1.3209 -1.1019,-2.68836 -1.1019,-2.68836" fill="none" stroke-opacity="0.40392" stroke="#000000" stroke-width="2.5" stroke-linecap="round"/><path d="M274.50836,290.33923c0,0 -0.90408,0.48798 -1.88824,0.81043c-0.78701,0.25784 -1.6252,0.40987 -2.09334,0.12185c-0.50271,-0.3093 -1.07336,-1.30534 -1.55676,-2.32932c-0.62354,-1.3209 -1.1019,-2.68833 -1.1019,-2.68833" fill="none" stroke-opacity="0.40392" stroke="#000000" stroke-width="2.5" stroke-linecap="round"/><path d="M276.04528,300.13102c0,0 -0.90408,0.48798 -1.88824,0.81044c-0.78701,0.25784 -1.6252,0.40986 -2.09334,0.12184c-0.50271,-0.3093 -1.07337,-1.30532 -1.55676,-2.3293c-0.62354,-1.3209 -1.10189,-2.68834 -1.10189,-2.68834" fill="none" stroke-opacity="0.40392" stroke="#000000" stroke-width="2.5" stroke-linecap="round"/></g></g></g></svg>