<svg version="1.1" xmlns="http://www.w3.org/2000/svg" xmlns:xlink="http://www.w3.org/1999/xlink" width="167.71449" height="307.75314" viewBox="0,0,167.71449,307.75314"><defs><linearGradient x1="323.6384" y1="167.40034" x2="320.92548" y2="346.21213" gradientUnits="userSpaceOnUse" id="color-1"><stop offset="0" stop-color="#676767"/><stop offset="1" stop-color="#313131"/></linearGradient><linearGradient x1="355.0549" y1="168.93827" x2="352.31207" y2="349.7219" gradientUnits="userSpaceOnUse" id="color-2"><stop offset="0" stop-color="#2e2e2e"/><stop offset="1" stop-color="#2b2b2b"/></linearGradient><linearGradient x1="293.27496" y1="166.75215" x2="290.53212" y2="347.53578" gradientUnits="userSpaceOnUse" id="color-3"><stop offset="0" stop-color="#2e2e2e"/><stop offset="1" stop-color="#2b2b2b"/></linearGradient><linearGradient x1="325.00439" y1="167.17826" x2="324.58825" y2="194.60759" gradientUnits="userSpaceOnUse" id="color-4"><stop offset="0" stop-color="#575757"/><stop offset="1" stop-color="#9c9c9c"/></linearGradient><linearGradient x1="326.2156" y1="74.79162" x2="324.60096" y2="181.21498" gradientUnits="userSpaceOnUse" id="color-5"><stop offset="0" stop-color="#1a1a1a"/><stop offset="1" stop-color="#9c9c9c"/></linearGradient><radialGradient cx="361.03008" cy="98.33024" r="25.22465" gradientUnits="userSpaceOnUse" id="color-6"><stop offset="0" stop-color="#000000" stop-opacity="0.92549"/><stop offset="1" stop-color="#000000" stop-opacity="0"/></radialGradient><radialGradient cx="289.74738" cy="101.01477" r="25.35587" gradientUnits="userSpaceOnUse" id="color-7"><stop offset="0" stop-color="#000000" stop-opacity="0.92549"/><stop offset="1" stop-color="#000000" stop-opacity="0"/></radialGradient><linearGradient x1="281.78673" y1="40.57061" x2="284.03316" y2="125.73979" gradientUnits="userSpaceOnUse" id="color-8"><stop offset="0" stop-color="#9c9c9c"/><stop offset="1" stop-color="#2c2c2c"/></linearGradient><linearGradient x1="368.40654" y1="43.05654" x2="367.06764" y2="131.30561" gradientUnits="userSpaceOnUse" id="color-9"><stop offset="0" stop-color="#9c9c9c"/><stop offset="1" stop-color="#2c2c2c"/></linearGradient><linearGradient x1="288.98359" y1="184.30822" x2="288.66822" y2="205.0945" gradientUnits="userSpaceOnUse" id="color-10"><stop offset="0" stop-color="#878787"/><stop offset="1" stop-color="#848484"/></linearGradient><linearGradient x1="131.44021" y1="87.15982" x2="131.42125" y2="88.40968" gradientUnits="userSpaceOnUse" id="color-11"><stop offset="0" stop-color="#878787"/><stop offset="1" stop-color="#848484"/></linearGradient></defs><g transform="translate(-241.9595,-41.62112)"><g stroke-miterlimit="10"><path d="M273.9395,341.86022l0.10521,-147.29114c0,0 7.01385,-25.59475 16.8271,-25.85114c9.74536,-0.25461 32.83861,-0.46094 53.01524,-0.9881c21.88392,-0.57176 28.28981,26.40688 28.28981,26.40688l-2.08123,152.82143z" fill="url(#color-1)" stroke="#000000" stroke-width="0" stroke-linecap="butt"/><path d="M329.39828,349.37426l11.25321,-98.54957c0,0 -5.24112,-81.09368 4.93692,-80.03548c9.38399,0.97565 14.29594,-2.14491 18.82842,-1.67367c4.56407,0.47452 13.09844,30.05694 13.09844,30.05694l-3.22632,147.24379z" fill="url(#color-2)" stroke="#000000" stroke-width="0" stroke-linecap="butt"/><path d="M268.66566,343.56498l1.24206,-147.2739c0,0 9.42789,-29.3099 14.00424,-29.64574c4.54469,-0.33351 9.35971,2.93461 18.76898,2.2441c10.20546,-0.74895 2.50664,80.14841 2.50664,80.14841l8.25836,98.8456z" fill="url(#color-3)" stroke="#000000" stroke-width="0" stroke-linecap="butt"/><path d="M338.24284,181.09693c-0.11492,7.5744 -6.22828,13.62332 -13.65459,13.51066c-7.42631,-0.11267 -13.35336,-6.34427 -13.23844,-13.91867c0.11492,-7.5744 6.22828,-13.62332 13.65459,-13.51066c7.42631,0.11267 13.35336,6.34427 13.23844,13.91867z" fill="url(#color-4)" stroke="#000000" stroke-width="0" stroke-linecap="butt"/><path d="M380.01867,131.05675c-2.37298,28.45544 -28.7282,52.49883 -58.87619,49.98469c-30.14799,-2.51413 -52.67233,-30.63374 -50.29935,-59.08917c2.37298,-28.45543 28.73646,-49.48501 58.88445,-46.97087c30.14799,2.51413 52.66409,27.61992 50.29111,56.07534z" fill="url(#color-5)" stroke="#000000" stroke-width="0" stroke-linecap="butt"/><path d="M340.33678,127.93014c-0.04109,2.70853 -6.72607,4.8033 -14.93131,4.67881c-8.20526,-0.12449 -14.82359,-2.42111 -14.78251,-5.12964c0.04109,-2.70853 6.72607,-4.8033 14.93131,-4.67881c8.20526,0.12449 14.82359,2.42111 14.78251,5.12964z" fill-opacity="0.18431" fill="#000000" stroke="none" stroke-width="0" stroke-linecap="butt"/><path d="M280.1742,142.84922c0.51975,-0.08258 2.96747,0.09423 1.68034,1.42168c-0.28351,0.29239 -1.70098,0.13649 -1.95782,-0.09894c-0.39465,-0.36177 0.76807,-1.08436 0.47694,-1.53365c-0.18126,-0.27974 -0.5994,0.69298 -0.8683,0.49602c-0.2689,-0.19697 0.14065,-0.65166 0.21097,-0.97749z" fill="none" stroke="#000000" stroke-width="2.5" stroke-linecap="round"/><path d="M291.02123,144.35242c-2.64047,-0.90418 1.23129,-1.88407 1.44415,-0.77248c0.3797,1.9829 -4.38083,-0.83799 -0.15982,-0.77395" fill="none" stroke="#000000" stroke-width="2.5" stroke-linecap="round"/><path d="M285.66759,148.64713c4.51687,-0.60839 -0.3182,3.30044 -0.97682,1.86641c-0.28565,-0.62196 1.17956,-1.23703 0.8828,-1.85375z" fill="none" stroke="#000000" stroke-width="2.5" stroke-linecap="round"/><path d="M357.44264,145.8097c0.58238,-0.20441 1.92345,-0.52008 1.8493,0.09265c-0.00374,0.03093 -3.79667,0.95744 -1.95465,-1.42248" fill="none" stroke="#000000" stroke-width="2.5" stroke-linecap="round"/><path d="M366.48374,146.24391c0.96414,2.13029 -2.12626,0.99645 -0.00991,-0.02189z" fill="none" stroke="#000000" stroke-width="2.5" stroke-linecap="round"/><path d="M362.34322,151.9497c-0.31912,0.12994 -3.03044,1.08309 -2.20725,-0.6201c0.30922,-0.6398 2.66367,-0.77342 2.3358,0.57624c-0.14687,0.60456 -2.51694,1.31683 -1.11633,-0.49278z" fill="none" stroke="#000000" stroke-width="2.5" stroke-linecap="round"/><path d="M339.5233,83.02638c2.98576,-14.22484 15.03511,-18.90459 26.91297,-10.45248c11.87786,8.45211 19.08635,26.83539 16.10059,41.06024c-2.98576,14.22484 -15.03512,18.90459 -26.91299,10.45248c-11.87786,-8.45211 -19.08634,-26.83539 -16.10058,-41.06022z" fill="url(#color-6)" stroke="#000000" stroke-width="0" stroke-linecap="butt"/><path d="M311.77345,86.21738c2.61043,14.55638 -5.13481,32.98172 -17.29948,41.15411c-12.16467,8.17239 -24.14226,2.99712 -26.75269,-11.55928c-2.61043,-14.5564 5.13482,-32.98173 17.29949,-41.15413c12.16467,-8.17239 24.14225,-2.99711 26.75268,11.55929z" fill="url(#color-7)" stroke="#000000" stroke-width="0" stroke-linecap="butt"/><path d="M274.40035,125.99387l-32.44085,-84.37275l69.20699,38.96732c0,0 -4.81006,18.66639 -10.22814,25.3576c-6.60186,8.15317 -26.53801,20.04786 -26.53801,20.04786z" fill="url(#color-8)" stroke="#000000" stroke-width="0" stroke-linecap="butt"/><path d="M341.09351,80.5458l68.58048,-36.86316l-32.62521,87.77443c0,0 -18.9715,-16.98932 -25.21613,-25.83149c-5.6885,-8.0547 -10.73914,-25.07977 -10.73914,-25.07977z" fill="url(#color-9)" stroke="#000000" stroke-width="0" stroke-linecap="butt"/><path d="M305.7436,120.75784c-0.01605,2.23482 -2.01752,4.03218 -4.47034,4.01455c-2.45284,-0.01763 -4.42823,-1.8436 -4.41218,-4.0784c0.01605,-2.23482 2.01752,-4.03218 4.47034,-4.01455c2.45284,0.01763 4.42822,1.8436 4.41216,4.07841z" fill="#ffffff" stroke="#000000" stroke-width="2.5" stroke-linecap="butt"/><path d="M361.026,122.39822c-0.01605,2.23482 -2.01751,4.03218 -4.47034,4.01455c-2.45284,-0.01763 -4.42822,-1.8436 -4.41216,-4.0784c0.01605,-2.23482 2.01751,-4.03217 4.47034,-4.01454c2.45284,0.01763 4.42823,1.84359 4.41217,4.07839z" fill="#ffffff" stroke="#000000" stroke-width="2.5" stroke-linecap="butt"/><path d="M304.5357,124.85497l-6.50239,6.48828" fill="none" stroke="#000000" stroke-width="2.5" stroke-linecap="round"/><path d="M339.31238,222.48601l-29.39909,-2.17734" fill="none" stroke-opacity="0.45098" stroke="#000000" stroke-width="2.5" stroke-linecap="round"/><path d="M337.70363,233.42651l-29.42535,-0.44644" fill="none" stroke-opacity="0.45098" stroke="#000000" stroke-width="2.5" stroke-linecap="round"/><path d="M306.67393,243.63209l34.34271,-0.3446" fill="none" stroke-opacity="0.45098" stroke="#000000" stroke-width="2.5" stroke-linecap="round"/><path d="M339.67446,255.67479l-32.88715,-0.49896" fill="none" stroke-opacity="0.45098" stroke="#000000" stroke-width="2.5" stroke-linecap="round"/><path d="M309.48396,267.6244l28.56428,0.14482" fill="none" stroke-opacity="0.45098" stroke="#000000" stroke-width="2.5" stroke-linecap="round"/><path d="M336.4045,281.0176l-25.97668,0.47153" fill="none" stroke-opacity="0.45098" stroke="#000000" stroke-width="2.5" stroke-linecap="round"/><path d="M332.7501,293.65836l-19.91414,0.27496" fill="none" stroke-opacity="0.45098" stroke="#000000" stroke-width="2.5" stroke-linecap="round"/><path d="M313.55262,303.7549l18.17885,-0.01274" fill="none" stroke-opacity="0.45098" stroke="#000000" stroke-width="2.5" stroke-linecap="round"/><path d="M314.24736,315.01889l18.18323,-0.30123" fill="none" stroke-opacity="0.45098" stroke="#000000" stroke-width="2.5" stroke-linecap="round"/><path d="M340.05568,211.53238l-29.68758,-2.18171" fill="none" stroke-opacity="0.45098" stroke="#000000" stroke-width="2.5" stroke-linecap="round"/><path d="M311.09386,199.55097l26.52738,1.26812" fill="none" stroke-opacity="0.45098" stroke="#000000" stroke-width="2.5" stroke-linecap="round"/><path d="M344.63711,229.39345l-0.24433,-21.93353l29.70509,1.02779l-2.01539,18.72518" fill="none" stroke-opacity="0.45098" stroke="#000000" stroke-width="2.5" stroke-linecap="round"/><path d="M357.89862,230.17175l-1.40418,54.51469l-2.08621,61.42955" fill="none" stroke-opacity="0.45098" stroke="#000000" stroke-width="2.5" stroke-linecap="round"/><path d="M300.07622,194.87205c-0.08709,5.73998 -5.19462,10.31673 -11.408,10.22246c-6.21337,-0.09427 -11.17972,-4.82387 -11.09263,-10.56383c0.08709,-5.73998 5.19462,-10.31673 11.408,-10.22246c6.21337,0.09427 11.17972,4.82387 11.09263,10.56383z" fill="url(#color-10)" stroke="#000000" stroke-width="0" stroke-linecap="butt"/><path d="M255.29769,179.51031z" fill="url(#color-11)" stroke="#000000" stroke-width="2.5" stroke-linecap="butt"/><path d="M305.24376,116.07531l-13.89703,0.48363" fill="none" stroke="#000000" stroke-width="2.5" stroke-linecap="round"/><path d="M359.38635,117.86902l-11.50051,-1.84124" fill="none" stroke="#000000" stroke-width="2.5" stroke-linecap="round"/><path d="M350.8817,129.12954l-3.85662,-2.14196" fill="none" stroke="#000000" stroke-width="2.5" stroke-linecap="round"/><path d="M359.23254,128.00617l-10.27811,-0.01704" fill="none" stroke="#000000" stroke-width="2.5" stroke-linecap="round"/><path d="M292.17553,126.01651l9.16087,0.41678" fill="none" stroke="#000000" stroke-width="2.5" stroke-linecap="round"/><path d="M303.70162,173.90471l6.48232,-1.56836l16.00999,2.11796l13.78199,-2.08264l8.94389,0.96905" fill="none" stroke="#000000" stroke-width="2.5" stroke-linecap="round"/><path d="M283.05206,127.63396l-0.26087,4.05686l-2.34685,0.0958l-1.49746,-2.53927" fill="none" stroke="#000000" stroke-width="2.5" stroke-linecap="round"/><path d="M283.64378,134.99493l-0.84536,2.47888l-1.87426,-0.04831l-1.22937,-0.81315" fill="none" stroke="#000000" stroke-width="2.5" stroke-linecap="round"/></g></g></svg>