<svg version="1.1" xmlns="http://www.w3.org/2000/svg" xmlns:xlink="http://www.w3.org/1999/xlink" width="159.83104" height="312.60263" viewBox="0,0,159.83104,312.60263"><defs><linearGradient x1="412.14306" y1="123.97214" x2="371.223" y2="118.835" gradientUnits="userSpaceOnUse" id="color-1"><stop offset="0" stop-color="#ff8600"/><stop offset="1" stop-color="#562e0d"/></linearGradient><linearGradient x1="336.01533" y1="158.76743" x2="326.99284" y2="335.90233" gradientUnits="userSpaceOnUse" id="color-2"><stop offset="0" stop-color="#292929"/><stop offset="1" stop-color="#171717"/></linearGradient><linearGradient x1="331.27949" y1="276.20178" x2="329.99744" y2="301.30065" gradientUnits="userSpaceOnUse" id="color-3"><stop offset="0" stop-color="#10ff00"/><stop offset="1" stop-color="#025f00"/></linearGradient><linearGradient x1="266.02238" y1="289.01027" x2="281.30782" y2="289.64558" gradientUnits="userSpaceOnUse" id="color-4"><stop offset="0" stop-color="#ffffff"/><stop offset="1" stop-color="#929292"/></linearGradient><linearGradient x1="396.4855" y1="290.73821" x2="381.16505" y2="290.78826" gradientUnits="userSpaceOnUse" id="color-5"><stop offset="0" stop-color="#ffffff"/><stop offset="1" stop-color="#929292"/></linearGradient><linearGradient x1="302.30832" y1="298.53862" x2="289.65069" y2="288.21488" gradientUnits="userSpaceOnUse" id="color-6"><stop offset="0" stop-color="#ffffff"/><stop offset="1" stop-color="#929292"/></linearGradient><linearGradient x1="337.33041" y1="285.2303" x2="323.74343" y2="293.10079" gradientUnits="userSpaceOnUse" id="color-7"><stop offset="0" stop-color="#ffffff"/><stop offset="1" stop-color="#929292"/></linearGradient><linearGradient x1="373.17503" y1="298.2206" x2="360.28857" y2="292.37696" gradientUnits="userSpaceOnUse" id="color-8"><stop offset="0" stop-color="#ffffff"/><stop offset="1" stop-color="#929292"/></linearGradient><linearGradient x1="317.70009" y1="288.05677" x2="304.28343" y2="292.59282" gradientUnits="userSpaceOnUse" id="color-9"><stop offset="0" stop-color="#ffffff"/><stop offset="1" stop-color="#929292"/></linearGradient><linearGradient x1="340.71151" y1="287.8738" x2="353.63903" y2="292.9136" gradientUnits="userSpaceOnUse" id="color-10"><stop offset="0" stop-color="#ffffff"/><stop offset="1" stop-color="#929292"/></linearGradient><linearGradient x1="306.43305" y1="117.50523" x2="265.51301" y2="112.36809" gradientUnits="userSpaceOnUse" id="color-11"><stop offset="0" stop-color="#ff8600"/><stop offset="1" stop-color="#562e0d"/></linearGradient></defs><g transform="translate(-259.7529,-23.40792)"><g stroke-miterlimit="10"><path d="M371.27013,118.4599c2.41748,-19.01777 15.87403,-32.62681 26.32436,-31.29839c10.45035,1.32841 16.96228,17.82224 14.54481,36.83999c-2.41748,19.01775 -12.84892,33.35776 -23.29926,32.02935c-10.45034,-1.32842 -19.98736,-18.55322 -17.56989,-37.57097z" fill="url(#color-1)" stroke="#000000" stroke-width="2.5" stroke-linecap="butt"/><g stroke-width="2.5"><path d="M279.9777,334.74166l5.29427,-145.76726c0,0 7.94272,-25.79835 17.8031,-26.70914c9.79217,-0.90447 32.98239,-2.65491 53.25594,-4.52754c21.98907,-2.03109 27.46944,24.23823 27.46944,24.23823l-7.47277,151.37237z" fill="url(#color-2)" stroke="#000000" stroke-linecap="butt"/><path d="M359.27203,165.71429c-0.45823,8.99609 -10.65938,16.79772 -22.78494,17.42544c-12.12556,0.62773 -21.58379,-6.15618 -21.12557,-15.15225c0.45823,-8.99609 10.65938,-16.79772 22.78494,-17.42544c12.12556,-0.62773 21.58379,6.15618 21.12557,15.15225z" fill="#ffd300" stroke="#000000" stroke-linecap="butt"/><path d="M356.19309,203.38875l3.15906,-15.82463l5.73484,16.09832l-14.87868,-11.46496l20.80253,-2.54516z" fill="none" stroke-opacity="0.67059" stroke="#ffffff" stroke-linecap="round"/><path d="M305.09786,189.31381c10.26406,-6.74542 20.56497,4.85588 9.57529,13.09801c-4.9054,3.67899 -13.54997,2.15245 -15.72394,-3.16667c-2.34129,-5.72844 4.47497,-11.5913 9.61495,-10.52005" fill="none" stroke-opacity="0.67059" stroke="#ffffff" stroke-linecap="round"/><path d="M316.6078,196.38398c2.28106,-0.1178 7.84503,-1.26067 9.12815,1.19377c2.40445,4.59941 -6.39025,9.28138 -9.58658,9.84165c-6.28002,1.10079 -14.16706,1.04969 -19.6588,-1.45008c-4.45577,-2.02822 -4.36728,-7.339 1.36652,-7.63582" fill="none" stroke-opacity="0.67059" stroke="#ffffff" stroke-linecap="round"/><path d="M297.13445,240.7814c1.30034,-9.84308 0.47102,-22.10171 3.97225,-31.60447" fill="none" stroke-opacity="0.67059" stroke="#ffffff" stroke-linecap="round"/><path d="M317.30754,208.33823c2.04115,10.50696 1.99311,21.27828 3.82372,31.74952" fill="none" stroke-opacity="0.67059" stroke="#ffffff" stroke-linecap="round"/><path d="M306.04776,214.80314c0.01681,-0.33016 0.03364,-0.66034 0.05045,-0.99052" fill="none" stroke-opacity="0.67059" stroke="#ffffff" stroke-linecap="round"/><path d="M311.62788,212.54754c-0.03364,0.66034 -0.06727,1.32067 -0.1009,1.98101" fill="none" stroke-opacity="0.67059" stroke="#ffffff" stroke-linecap="round"/><path d="M313.65277,219.39798c-0.14146,1.91625 -0.56445,6.36152 -2.75978,7.38045c-4.24418,1.96987 -7.47302,-2.37107 -7.28894,-5.98497" fill="none" stroke-opacity="0.67059" stroke="#ffffff" stroke-linecap="round"/></g><g stroke="#000000" stroke-width="2.5" stroke-linecap="butt"><path d="M277.61896,300.29905c0,0 -3.2404,-8.1363 -3.02989,-12.2574c0.21666,-4.24169 4.31195,-12.84145 4.31195,-12.84145c0,0 35.08625,6.38168 52.30533,6.71096c17.68733,0.33822 52.45162,-4.70775 52.45162,-4.70775c0,0 2.01088,8.34876 1.79786,12.51898c-0.21433,4.19591 -3.07992,12.57987 -3.07992,12.57987c0,0 -31.87476,2.02621 -48.64227,1.70558c-18.05599,-0.34527 -56.11468,-3.70877 -56.11468,-3.70877z" fill="url(#color-3)"/><path d="M280.65931,298.68504l-14.63694,-9.67478l15.93394,-8.40416z" fill="url(#color-4)"/><path d="M381.44039,281.74165l15.04511,8.99655l-15.59578,9.09667z" fill="url(#color-5)"/><path d="M294.43717,281.17011l7.87114,17.36852l-17.44407,-3.27898z" fill="url(#color-6)"/><path d="M319.71872,285.23239l17.61169,-0.00208l-9.56227,15.7389z" fill="url(#color-7)"/><path d="M365.15188,283.82808l8.02316,14.39251l-17.74975,2.70527z" fill="url(#color-8)"/><path d="M300.31591,283.60491l17.38417,4.45188l-9.44913,13.52392z" fill="url(#color-9)"/><path d="M348.76195,301.73236l-8.05043,-13.85856l17.80461,-3.77897z" fill="url(#color-10)"/></g><path d="M392.89216,123.85336c-3.34274,28.35788 -30.50316,51.4878 -60.54779,47.94622c-30.04463,-3.54156 -51.59617,-32.41352 -48.25343,-60.77138c3.34274,-28.35787 30.40856,-48.47546 60.45319,-44.93387c30.04463,3.54156 51.69079,29.40117 48.34805,57.75903z" fill="#ffd300" stroke="#000000" stroke-width="2.5" stroke-linecap="butt"/><path d="M369.70274,113.44618c-0.1335,2.70555 -6.88608,4.57096 -15.0823,4.16651c-8.19623,-0.40445 -14.73234,-2.9256 -14.59882,-5.63115c0.1335,-2.70555 6.88608,-4.57096 15.0823,-4.16651c8.19623,0.40445 14.73234,2.9256 14.59882,5.63115z" fill-opacity="0.18431" fill="#ff0505" stroke="none" stroke-width="0" stroke-linecap="butt"/><path d="M403.61987,32.23401l11.53694,4.1614l-32.83522,7.52325l16.32812,5.05093l-18.77389,34.01495" fill="none" stroke="#000000" stroke-width="2.5" stroke-linecap="round"/><path d="M407.11332,31.42673c-0.10653,2.15896 -2.03624,3.81818 -4.31012,3.70597c-2.27387,-0.1122 -4.03085,-1.95334 -3.92432,-4.1123c0.10653,-2.15896 2.03624,-3.81818 4.31012,-3.70597c2.27387,0.1122 4.03085,1.95334 3.92432,4.1123z" fill="#ffd300" stroke="#000000" stroke-width="2.5" stroke-linecap="butt"/><path d="M303.13734,78.25932l-21.50873,-32.35505l15.85721,-6.37717l-33.34286,-4.79632l11.15546,-5.09647" fill="none" stroke="#000000" stroke-width="2.5" stroke-linecap="round"/><path d="M275.32309,24.69597c2.25693,-0.29891 4.31659,1.19592 4.6004,3.3388c0.28379,2.14288 -1.31574,4.12232 -3.57268,4.42122c-2.25693,0.29891 -4.3166,-1.19593 -4.60041,-3.3388c-0.28379,-2.14288 1.31575,-4.12232 3.57269,-4.42122z" fill="#ffd300" stroke="#000000" stroke-width="2.5" stroke-linecap="butt"/><path d="M325.50576,100.04732c0,0 4.21447,-5.41154 6.13244,-5.28683c1.97549,0.12845 3.76663,12.55267 3.76663,12.55267" fill="none" stroke="#000000" stroke-width="2.5" stroke-linecap="round"/><path d="M326.48815,112.14314l0.29407,-5.95934c0,0 1.94436,-1.09882 2.95335,-1.04903c1.26124,0.06224 4.02758,1.39352 4.02758,1.39352l-0.29407,5.95934c0,0 -2.56709,1.40945 -3.65122,1.35595c-1.22548,-0.06047 -3.32972,-1.70044 -3.32972,-1.70044z" fill="#000000" stroke="#000000" stroke-width="2.5" stroke-linecap="butt"/><path d="M376.0892,114.64706l0.29407,-5.95933c0,0 1.94437,-1.09882 2.95335,-1.04903c1.26124,0.06224 4.02758,1.39352 4.02758,1.39352l-0.29407,5.95933c0,0 -2.56709,1.40946 -3.65122,1.35596c-1.22548,-0.06047 -3.32972,-1.70045 -3.32972,-1.70045z" fill="#000000" stroke="#000000" stroke-width="2.5" stroke-linecap="butt"/><path d="M353.41644,159.38395c-0.25895,5.2477 -1.00064,9.47556 -1.6566,9.44319c-0.65596,-0.03237 -0.9778,-4.3127 -0.71885,-9.56041c0.25895,-5.2477 1.00064,-9.47556 1.6566,-9.44319c0.65596,0.03237 0.9778,4.3127 0.71885,9.56041z" fill="none" stroke="#000000" stroke-width="2.5" stroke-linecap="butt"/><path d="M265.56015,111.99298c2.41748,-19.01777 15.87403,-32.62681 26.32436,-31.29839c10.45035,1.32841 16.96228,17.82224 14.54481,36.83999c-2.41748,19.01775 -12.84892,33.35776 -23.29926,32.02935c-10.45034,-1.32842 -19.98736,-18.55322 -17.56989,-37.57097z" fill="url(#color-11)" stroke="#000000" stroke-width="2.5" stroke-linecap="butt"/></g></g></svg>