<svg version="1.1" xmlns="http://www.w3.org/2000/svg" xmlns:xlink="http://www.w3.org/1999/xlink" width="160.75469" height="322.22325" viewBox="0,0,160.75469,322.22325"><defs><linearGradient x1="320.17822" y1="171.42399" x2="320.17822" y2="350.26855" gradientUnits="userSpaceOnUse" id="color-1"><stop offset="0" stop-color="#2982c1"/><stop offset="1" stop-color="#000000"/></linearGradient><linearGradient x1="396.96745" y1="142.219" x2="357.49621" y2="142.219" gradientUnits="userSpaceOnUse" id="color-2"><stop offset="0" stop-color="#a636f3"/><stop offset="1" stop-color="#581b7d"/></linearGradient><linearGradient x1="243.05518" y1="147.70794" x2="282.52641" y2="147.70794" gradientUnits="userSpaceOnUse" id="color-3"><stop offset="0" stop-color="#a636f3"/><stop offset="1" stop-color="#581b7d"/></linearGradient><radialGradient cx="283.29459" cy="98.35573" r="25.84387" gradientUnits="userSpaceOnUse" id="color-4"><stop offset="0" stop-color="#000000" stop-opacity="0.92549"/><stop offset="1" stop-color="#000000" stop-opacity="0"/></radialGradient><linearGradient x1="237.22952" y1="74.07409" x2="302.34226" y2="81.29193" gradientUnits="userSpaceOnUse" id="color-5"><stop offset="0" stop-color="#a636f3"/><stop offset="1" stop-color="#16031b"/></linearGradient><radialGradient cx="355.56323" cy="93.21009" r="25.35587" gradientUnits="userSpaceOnUse" id="color-6"><stop offset="0" stop-color="#000000" stop-opacity="0.92549"/><stop offset="1" stop-color="#000000" stop-opacity="0"/></radialGradient><linearGradient x1="400.66769" y1="71.51522" x2="335.55495" y2="78.73307" gradientUnits="userSpaceOnUse" id="color-7"><stop offset="0" stop-color="#a636f3"/><stop offset="1" stop-color="#16031b"/></linearGradient></defs><g transform="translate(-238.57126,-29.34768)"><g stroke-miterlimit="10"><path d="M276.73901,346.62992l-1.9552,-147.27579c0,0 6.0833,-25.69821 15.08987,-26.10344c8.94426,-0.40242 30.14472,-0.95905 48.66278,-1.79223c20.08501,-0.90368 27.03616,16.2629 27.03616,16.2629l-0.47576,162.54719z" fill="url(#color-1)" stroke="#000000" stroke-width="2.5" stroke-linecap="butt"/><path d="M343.86771,183.2066c-0.25273,8.51921 -10.14421,15.13803 -22.09323,14.78356c-11.94902,-0.35448 -21.43073,-7.54801 -21.178,-16.06723c0.25273,-8.51921 10.14419,-15.13803 22.09321,-14.78356c11.94902,0.35448 21.43074,7.54802 21.17801,16.06723z" fill="#f2f2f2" stroke="#000000" stroke-width="1.5" stroke-linecap="butt"/><path d="M338.21662,183.48683c-0.18988,6.40064 -7.62153,11.37348 -16.59905,11.10716c-8.97752,-0.26633 -16.1013,-5.67096 -15.91142,-12.07161c0.18988,-6.40064 7.62152,-11.37348 16.59904,-11.10716c8.97752,0.26633 16.10131,5.67097 15.91143,12.07161z" fill="#a636f3" stroke="#000000" stroke-width="2.5" stroke-linecap="butt"/><path d="M375.84653,112.15764c4.791,0.41818 8.07901,-1.94257 12.4475,-3.01028c0.66533,-0.16262 4.3408,-1.84314 4.84047,-1.23561c0.38528,0.46844 -1.13036,3.65115 -1.31359,4.20564c-0.62386,1.88779 -5.81206,12.1346 -5.68985,12.9116c0.45067,2.86542 9.12814,-1.64765 10.50949,-0.40064c1.26529,1.14223 -1.51565,5.17455 -2.0176,6.07895c-1.42014,2.55872 -8.14754,15.72453 -8.04511,17.77772c0.16303,3.26782 4.46336,6.92687 3.00952,11.24792c-0.71341,2.12039 -2.53487,-0.99708 -3.48852,-0.61154c-0.97126,0.39267 -0.64769,4.53095 -0.63873,5.40365c0.03652,3.55688 0.01066,7.53924 -0.66952,11.06471c-0.07006,0.36315 -0.01146,0.91356 -0.32101,1.05782c-0.77103,0.35931 -9.38565,-8.60125 -10.76846,-9.62147c-6.73152,-4.96643 -13.30859,-12.70524 -15.31773,-21.92913c-3.03529,-13.93492 1.49088,-33.6873 17.0967,-32.32781z" fill="url(#color-2)" stroke="#000000" stroke-width="2.5" stroke-linecap="round"/><path d="M264.54253,118.2581c15.60582,-1.35949 20.13199,18.39288 17.0967,32.3278c-2.00914,9.22389 -8.58621,16.9627 -15.31773,21.92913c-1.38281,1.02023 -9.99744,9.98078 -10.76846,9.62147c-0.30956,-0.14425 -0.25095,-0.69466 -0.32101,-1.05781c-0.68017,-3.52546 -0.70604,-7.50782 -0.66952,-11.0647c0.00895,-0.8727 0.33253,-5.01098 -0.63873,-5.40365c-0.95364,-0.38556 -2.77509,2.73192 -3.48851,0.61153c-1.45384,-4.32104 2.84649,-7.9801 3.00952,-11.24792c0.10244,-2.0532 -6.62496,-15.219 -8.0451,-17.77772c-0.50196,-0.9044 -3.28289,-4.93672 -2.0176,-6.07895c1.38135,-1.247 10.05881,3.26606 10.50949,0.40065c0.12221,-0.777 -5.06598,-11.02381 -5.68984,-12.9116c-0.18324,-0.55448 -1.69887,-3.73719 -1.3136,-4.20563c0.49967,-0.60753 4.17514,1.07299 4.84047,1.23561c4.36848,1.06772 7.6565,3.42847 12.44749,3.01029z" fill="url(#color-3)" stroke="#000000" stroke-width="2.5" stroke-linecap="round"/><path d="M374.95893,131.56195c-1.94104,28.48816 -27.92848,52.9286 -58.11114,50.8721c-30.18266,-2.05649 -53.13099,-29.83117 -51.18995,-58.31932c1.94104,-28.48815 27.98246,-49.91526 58.16512,-47.85875c30.18266,2.05649 53.07703,26.81782 51.13599,55.30597z" fill="#a636f3" stroke="#000000" stroke-width="2.5" stroke-linecap="butt"/><path d="M334.5605,121.65466c0.01376,2.70881 -6.62742,4.93852 -14.83351,4.98021c-8.20609,0.04169 -14.86959,-2.12043 -14.88334,-4.82924c-0.01376,-2.70881 6.62743,-4.93852 14.83352,-4.98021c8.20609,-0.04169 14.86959,2.12043 14.88335,4.82924z" fill-opacity="0.23137" fill="#000000" stroke="none" stroke-width="0" stroke-linecap="butt"/><path d="M288.51914,118.70329c-12.271,6.46922 -24.55772,2.60366 -27.44316,-8.63399c-2.88543,-11.23765 4.72307,-25.59191 16.99408,-32.06113c12.271,-6.46922 24.55772,-2.60366 27.44315,8.63399c2.88543,11.23765 -4.72307,25.5919 -16.99407,32.06113z" fill="url(#color-4)" stroke="#000000" stroke-width="0" stroke-linecap="butt"/><path d="M297.12235,96.40497l-13.90902,12.35541l-12.9877,7.43265l-15.9361,-2.75378l-14.45882,-39.11354l1.61054,-38.24599l24.54383,40.34902l36.37503,4.70237z" fill="url(#color-5)" stroke="#000000" stroke-width="2.5" stroke-linecap="round"/><path d="M333.76416,81.7177c2.83095,-11.02545 14.88566,-14.81803 26.92495,-8.47096c12.03929,6.34707 19.50413,20.43028 16.67318,31.45573c-2.83095,11.02545 -14.88567,14.81803 -26.92496,8.47096c-12.03929,-6.34707 -19.50412,-20.43028 -16.67317,-31.45572z" fill="url(#color-6)" stroke="#000000" stroke-width="0" stroke-linecap="butt"/><path d="M335.5371,78.57221l36.37503,-4.70237l24.54383,-40.34902l1.61054,38.24599l-14.45882,39.11354l-15.9361,2.75378l-12.98769,-7.43264l-13.90902,-12.35542z" fill="url(#color-7)" stroke="#000000" stroke-width="2.5" stroke-linecap="round"/><path d="M311.7404,89.40505c0,0 -1.20327,0.84326 -2.5868,1.59726c-1.07254,0.58452 -2.25342,1.11539 -3.06603,1.15816c-0.7567,0.03982 -1.84404,-0.38823 -2.81878,-0.87622c-1.21897,-0.61027 -2.26186,-1.31428 -2.26186,-1.31428" fill="none" stroke-opacity="0.40392" stroke="#000000" stroke-width="2.5" stroke-linecap="round"/><path d="M341.39455,90.34798c0,0 -1.37758,0.51112 -2.90694,0.89022c-1.1856,0.29389 -2.46242,0.50846 -3.25938,0.34408c-0.74213,-0.15307 -1.68564,-0.84248 -2.50506,-1.56139c-1.02472,-0.89903 -1.85537,-1.84417 -1.85537,-1.84417" fill="none" stroke-opacity="0.40392" stroke="#000000" stroke-width="2.5" stroke-linecap="round"/><path d="M326.31807,86.38044c0,0 -1.15652,0.9063 -2.49782,1.7331c-1.03981,0.64095 -2.19065,1.23413 -2.99982,1.32023c-0.75349,0.08017 -1.86214,-0.28921 -2.86155,-0.72446c-1.24981,-0.5443 -2.3288,-1.19163 -2.3288,-1.19163" fill="none" stroke-opacity="0.40392" stroke="#000000" stroke-width="2.5" stroke-linecap="round"/><path d="M371.43618,129.49568c0,0 -0.91337,0.51111 -1.92737,0.89021c-0.78608,0.29389 -1.63264,0.50846 -2.16104,0.34408c-0.49204,-0.15308 -1.1176,-0.84249 -1.6609,-1.5614c-0.67941,-0.89903 -1.23015,-1.84417 -1.23015,-1.84417" fill="none" stroke-opacity="0.40392" stroke="#000000" stroke-width="2.5" stroke-linecap="round"/><path d="M371.88316,137.998c0,0 -0.91337,0.51111 -1.92737,0.89022c-0.78608,0.29389 -1.63264,0.50846 -2.16104,0.34408c-0.49204,-0.15308 -1.1176,-0.84249 -1.6609,-1.5614c-0.67941,-0.89903 -1.23015,-1.84417 -1.23015,-1.84417" fill="none" stroke-opacity="0.40392" stroke="#000000" stroke-width="2.5" stroke-linecap="round"/><path d="M370.05362,146.50029c0,0 -0.91337,0.51111 -1.92737,0.89022c-0.78608,0.29389 -1.63263,0.50846 -2.16103,0.34408c-0.49205,-0.15307 -1.11761,-0.84248 -1.66091,-1.56139c-0.67941,-0.89903 -1.23015,-1.84417 -1.23015,-1.84417" fill="none" stroke-opacity="0.40392" stroke="#000000" stroke-width="2.5" stroke-linecap="round"/><path d="M275.76266,125.51323c0,0 -0.55074,0.94514 -1.23015,1.84417c-0.5433,0.71891 -1.16886,1.40832 -1.6609,1.5614c-0.5284,0.16438 -1.37495,-0.05019 -2.16104,-0.34408c-1.014,-0.3791 -1.92737,-0.89021 -1.92737,-0.89021" fill="none" stroke-opacity="0.40392" stroke="#000000" stroke-width="2.5" stroke-linecap="round"/><path d="M276.91009,131.38881c0,0 -0.55074,0.94514 -1.23015,1.84416c-0.5433,0.71891 -1.16886,1.40832 -1.66091,1.5614c-0.5284,0.16438 -1.37495,-0.05019 -2.16103,-0.34408c-1.014,-0.37911 -1.92737,-0.89022 -1.92737,-0.89022" fill="none" stroke-opacity="0.40392" stroke="#000000" stroke-width="2.5" stroke-linecap="round"/><path d="M277.35707,138.31509c0,0 -0.55074,0.94514 -1.23015,1.84416c-0.5433,0.71891 -1.16886,1.40832 -1.66091,1.5614c-0.5284,0.16438 -1.37495,-0.05019 -2.16103,-0.34408c-1.014,-0.37911 -1.92737,-0.89022 -1.92737,-0.89022" fill="none" stroke-opacity="0.40392" stroke="#000000" stroke-width="2.5" stroke-linecap="round"/><path d="M314.08405,150.15081l3.51617,5.15706" fill="none" stroke="#000000" stroke-width="2.5" stroke-linecap="round"/><path d="M322.75728,156.0111l4.68823,-5.86029" fill="none" stroke="#000000" stroke-width="2.5" stroke-linecap="round"/><path d="M358.01882,152.41322l2.88517,0.57301l-22.79284,11.65131l-18.75361,-2.29206l-13.5603,2.86508l-25.3895,-10.31427l4.03924,-0.57301" fill="none" stroke="#000000" stroke-width="2.5" stroke-linecap="round"/><path d="M386.00223,50.75242c0,0 -47.07867,2.717 -70.10629,3.02699c-21.73272,0.29256 -64.39966,-1.21633 -64.39966,-1.21633" fill="none" stroke="#000000" stroke-width="2.5" stroke-linecap="round"/><path d="M382.63958,55.66706c0,0 -45.51901,2.6267 -67.24923,2.89278c-20.43935,0.25028 -59.49676,-1.34079 -59.49676,-1.34079" fill="none" stroke="#000000" stroke-width="2.5" stroke-linecap="round"/><path d="M380.31159,60.84037c0,0 -43.7967,2.03722 -64.69159,2.39212c-19.63747,0.33354 -57.13976,-0.3228 -57.13976,-0.3228" fill="none" stroke="#000000" stroke-width="2.5" stroke-linecap="round"/><path d="M292.19005,246.0372l23.80952,-12.06784l19.56947,12.394l15.00326,-6.197" fill="none" stroke="#ffffff" stroke-width="1.5" stroke-linecap="round"/><path d="M291.97153,252.99414l23.80952,-12.06784l19.56948,12.394l15.00326,-6.197" fill="none" stroke="#ffffff" stroke-width="1.5" stroke-linecap="round"/><path d="M291.42685,259.62493l23.80952,-12.06784l19.56948,12.394l15.00326,-6.197" fill="none" stroke="#ffffff" stroke-width="1.5" stroke-linecap="round"/><g><path d="M308.5277,257.40552c13.75183,-11.99726 1.51136,-3.02912 18.20931,-9.28549c1.9957,-0.74776 12.14404,-2.79763 12.14404,-2.79763c0,0 -7.15141,11.64733 -12.19448,15.13941c-0.64737,0.44827 -5.93966,4.3271 -5.81628,4.93572c0.14373,0.70889 3.97376,-1.04123 4.48345,-1.23203c1.91815,-0.71798 15.86779,-5.94507 15.86779,-5.94507l1.58325,9.96387c0,0 -9.48882,5.29186 -12.09941,6.37774c-0.36018,0.14981 -4.39014,2.22365 -4.39118,2.28154c-0.00429,0.2385 5.59332,-0.63398 5.59332,-0.63398l12.18943,5.89169l-1.08332,5.56271l-7.48765,4.35549c0,0 -11.06941,5.08977 -16.833,7.24923c-9.13841,3.4239 -24.3284,9.80944 -32.2992,6.8235c-1.92833,-0.72238 -2.24009,-5.20957 -3.47737,-6.7775c-3.06881,-3.88891 -2.00038,-9.68369 -3.09598,-14.6893c-1.00344,-4.58457 -3.54364,-8.39765 -3.40065,-13.56717c0.07358,-2.66029 -0.33084,-9.38616 1.09961,-11.998c1.0485,-1.91447 5.28839,-4.27885 7.05165,-5.34685c5.21639,-3.1595 18.8446,-13.11072 23.56483,-14.10971c0.96807,-0.20488 6.51938,-1.98876 6.35135,-0.99538c-0.17593,1.04004 -9.31033,13.58396 -11.13744,15.71898c-1.15843,1.35365 -2.12996,2.98585 0.20637,2.60147c3.43569,-0.56526 4.97154,0.47675 4.97154,0.47675z" fill="#a636f3" stroke="#000000" stroke-width="2.5" stroke-linecap="round"/><path d="M315.46742,268.28717c0.13576,0.87067 -3.21329,3.03037 -7.48028,4.8238c-4.267,1.79345 -7.83611,2.54149 -7.97186,1.67082c-0.13576,-0.87067 3.21327,-3.03036 7.48027,-4.8238c4.267,-1.79345 7.83612,-2.54149 7.97187,-1.67082z" fill-opacity="0.23137" fill="#000000" stroke="none" stroke-width="0" stroke-linecap="butt"/><path d="M321.24442,279.43751c0.12444,0.79813 -3.95168,3.20072 -9.10429,5.36641c-5.1526,2.16567 -9.43047,3.27428 -9.5549,2.47615c-0.12444,-0.79813 3.95168,-3.20072 9.10429,-5.3664c5.1526,-2.16567 9.43047,-3.27427 9.5549,-2.47616z" fill-opacity="0.23137" fill="#000000" stroke="none" stroke-width="0" stroke-linecap="butt"/><path d="M297.41392,258.09721c0.1923,1.23346 -0.56552,2.61742 -1.69264,3.09115c-1.12712,0.47373 -2.19676,-0.14212 -2.38907,-1.37558c-0.1923,-1.23346 0.56552,-2.61743 1.69264,-3.09115c1.12712,-0.47373 2.19675,0.14213 2.38907,1.37558z" fill-opacity="0.23137" fill="#000000" stroke="none" stroke-width="0" stroke-linecap="butt"/><path d="M294.66244,270.50057c0,0 -0.47107,1.22098 -1.09447,2.45605c-0.49852,0.98764 -1.09443,1.98429 -1.62478,2.3729c-0.56955,0.41729 -1.55769,0.60037 -2.49025,0.67425c-1.20294,0.09527 -2.3134,0.0088 -2.3134,0.0088" fill="none" stroke-opacity="0.40392" stroke="#000000" stroke-width="2.5" stroke-linecap="round"/><path d="M301.08999,273.21081c0,0 -0.47108,1.22098 -1.09448,2.45605c-0.49852,0.98764 -1.09441,1.9843 -1.62477,2.3729c-0.56955,0.41729 -1.55771,0.60037 -2.49027,0.67425c-1.20294,0.09527 -2.31338,0.0088 -2.31338,0.0088" fill="none" stroke-opacity="0.40392" stroke="#000000" stroke-width="2.5" stroke-linecap="round"/><path d="M307.51752,275.92105c0,0 -0.47108,1.22098 -1.09448,2.45605c-0.49852,0.98764 -1.09442,1.98429 -1.62477,2.37288c-0.56955,0.41729 -1.5577,0.60039 -2.49026,0.67426c-1.20294,0.09527 -2.31338,0.00879 -2.31338,0.00879" fill="none" stroke-opacity="0.40392" stroke="#000000" stroke-width="2.5" stroke-linecap="round"/></g><path d="M305.85731,165.60566l12.82465,-2.66172l19.84191,1.93579l23.22956,-10.64688l-41.37764,25.6493l-39.19987,-23.95547z" fill="#ffffff" stroke="#000000" stroke-width="2.5" stroke-linecap="round"/><path d="M302.89039,122.01985c-0.28321,4.15691 -3.07612,-4.01454 -7.63856,-4.3254c-4.56246,-0.31086 -9.16679,7.35657 -8.88358,3.19967c0.28321,-4.15693 4.21145,-7.27474 8.77389,-6.96388c4.56246,0.31086 8.03144,3.93269 7.74823,8.08962z" fill="#ffffff" stroke="#000000" stroke-width="2.5" stroke-linecap="butt"/><path d="M336.50597,121.81711c-0.28321,-4.15694 3.18576,-7.77877 7.74822,-8.08962c4.56245,-0.31086 8.49068,2.80694 8.77389,6.96388c0.28321,4.15689 -4.32111,-3.51053 -8.88357,-3.19967c-4.56245,0.31086 -7.35536,8.48231 -7.63857,4.3254z" fill="#ffffff" stroke="#000000" stroke-width="2.5" stroke-linecap="butt"/><g><path d="M338.26176,261.58711c0,0 1.53585,-1.04201 4.97154,-0.47675c2.33633,0.38438 1.3648,-1.24782 0.20637,-2.60147c-1.82711,-2.13502 -10.96152,-14.67894 -11.13745,-15.71899c-0.16803,-0.99337 5.38328,0.7905 6.35136,0.99538c4.72023,0.999 18.34843,10.95021 23.56482,14.10972c1.76326,1.068 6.00315,3.43238 7.05165,5.34685c1.43045,2.61185 1.02603,9.33771 1.09961,11.998c0.14299,5.16951 -2.39721,8.9826 -3.40065,13.56717c-1.0956,5.00561 -0.02717,10.80039 -3.09598,14.6893c-1.23727,1.56793 -1.54903,6.05512 -3.47736,6.7775c-7.9708,2.98595 -23.1608,-3.39959 -32.29921,-6.82349c-5.76358,-2.15946 -16.83299,-7.24923 -16.83299,-7.24923l-7.48765,-4.3555l-1.08332,-5.56271l12.18942,-5.8917c0,0 5.59762,0.87248 5.59332,0.63398c-0.00104,-0.05788 -4.031,-2.13172 -4.39118,-2.28153c-2.61059,-1.08588 -12.09941,-6.37774 -12.09941,-6.37774l1.58325,-9.96388c0,0 13.94964,5.22709 15.86779,5.94507c0.50969,0.19079 4.33972,1.94091 4.48345,1.23202c0.12339,-0.60862 -5.1689,-4.48746 -5.81628,-4.93572c-5.04308,-3.49208 -12.19448,-15.13941 -12.19448,-15.13941c0,0 10.14833,2.04987 12.14403,2.79763c16.69795,6.25637 4.45747,-2.71177 18.20931,9.28549z" fill="#a636f3" stroke="#000000" stroke-width="2.5" stroke-linecap="round"/><path d="M339.2939,274.13958c4.267,1.79345 7.61603,3.95313 7.48027,4.8238c-0.13576,0.87067 -3.70487,0.12263 -7.97187,-1.67082c-4.26698,-1.79343 -7.61603,-3.95313 -7.48028,-4.8238c0.13575,-0.87068 3.70488,-0.12263 7.97187,1.67082z" fill-opacity="0.23137" fill="#000000" stroke="none" stroke-width="0" stroke-linecap="butt"/><path d="M335.09993,286.09526c5.15261,2.16568 9.22872,4.56828 9.10429,5.3664c-0.12444,0.79813 -4.40231,-0.31049 -9.55491,-2.47616c-5.15261,-2.16568 -9.22872,-4.56828 -9.10429,-5.3664c0.12443,-0.79812 4.40231,0.31049 9.55491,2.47616z" fill-opacity="0.23137" fill="#000000" stroke="none" stroke-width="0" stroke-linecap="butt"/><path d="M351.76459,260.90323c1.12712,0.47372 1.88494,1.85769 1.69264,3.09115c-0.1923,1.23346 -1.26194,1.84931 -2.38906,1.37558c-1.12712,-0.47373 -1.88495,-1.85769 -1.69264,-3.09115c0.19232,-1.23345 1.26194,-1.84931 2.38907,-1.37558z" fill-opacity="0.23137" fill="#000000" stroke="none" stroke-width="0" stroke-linecap="butt"/><path d="M359.64991,280.19415c0,0 -1.11046,0.08647 -2.3134,-0.0088c-0.93256,-0.07387 -1.9207,-0.25696 -2.49025,-0.67425c-0.53035,-0.3886 -1.12627,-1.38525 -1.62479,-2.37289c-0.6234,-1.23507 -1.09447,-2.45605 -1.09447,-2.45605" fill="none" stroke-opacity="0.40392" stroke="#000000" stroke-width="2.5" stroke-linecap="round"/><path d="M353.22236,282.90441c0,0 -1.11044,0.08647 -2.31339,-0.0088c-0.93256,-0.07387 -1.92072,-0.25696 -2.49027,-0.67425c-0.53036,-0.3886 -1.12625,-1.38525 -1.62477,-2.3729c-0.6234,-1.23507 -1.09448,-2.45605 -1.09448,-2.45605" fill="none" stroke-opacity="0.40392" stroke="#000000" stroke-width="2.5" stroke-linecap="round"/><path d="M346.79481,285.61465c0,0 -1.11043,0.08648 -2.31338,-0.00879c-0.93255,-0.07387 -1.92072,-0.25697 -2.49026,-0.67426c-0.53036,-0.3886 -1.12626,-1.38524 -1.62477,-2.37288c-0.6234,-1.23507 -1.09447,-2.45605 -1.09447,-2.45605" fill="none" stroke-opacity="0.40392" stroke="#000000" stroke-width="2.5" stroke-linecap="round"/></g></g></g></svg>