<svg version="1.1" xmlns="http://www.w3.org/2000/svg" xmlns:xlink="http://www.w3.org/1999/xlink" width="139.93373" height="318.42183" viewBox="0,0,139.93373,318.42183"><defs><linearGradient x1="361.33524" y1="134.03067" x2="361.33524" y2="194.59382" gradientUnits="userSpaceOnUse" id="color-1"><stop offset="0" stop-color="#13d927"/><stop offset="1" stop-color="#277516"/></linearGradient><linearGradient x1="345.2809" y1="141.07452" x2="345.2809" y2="203.04243" gradientUnits="userSpaceOnUse" id="color-2"><stop offset="0" stop-color="#13d927"/><stop offset="1" stop-color="#277516"/></linearGradient><linearGradient x1="334.4751" y1="151.64859" x2="334.4751" y2="207.59606" gradientUnits="userSpaceOnUse" id="color-3"><stop offset="0" stop-color="#13d927"/><stop offset="1" stop-color="#277516"/></linearGradient><linearGradient x1="323.82366" y1="144.38556" x2="323.82366" y2="200.93346" gradientUnits="userSpaceOnUse" id="color-4"><stop offset="0" stop-color="#13d927"/><stop offset="1" stop-color="#277516"/></linearGradient><linearGradient x1="280.44608" y1="126.87322" x2="280.44608" y2="187.71052" gradientUnits="userSpaceOnUse" id="color-5"><stop offset="0" stop-color="#13d927"/><stop offset="1" stop-color="#277516"/></linearGradient><linearGradient x1="296.50041" y1="139.49463" x2="296.50041" y2="201.76383" gradientUnits="userSpaceOnUse" id="color-6"><stop offset="0" stop-color="#13d927"/><stop offset="1" stop-color="#277516"/></linearGradient><linearGradient x1="307.30621" y1="153.89039" x2="307.30621" y2="210.02236" gradientUnits="userSpaceOnUse" id="color-7"><stop offset="0" stop-color="#13d927"/><stop offset="1" stop-color="#277516"/></linearGradient><linearGradient x1="317.95765" y1="150.34803" x2="317.95765" y2="207.05811" gradientUnits="userSpaceOnUse" id="color-8"><stop offset="0" stop-color="#13d927"/><stop offset="1" stop-color="#277516"/></linearGradient><linearGradient x1="318.45428" y1="159.92783" x2="318.45428" y2="353.69111" gradientUnits="userSpaceOnUse" id="color-9"><stop offset="0" stop-color="#4d9ebf"/><stop offset="1" stop-color="#9087d9"/></linearGradient><linearGradient x1="273.70738" y1="223.3506" x2="270.0098" y2="241.88531" gradientUnits="userSpaceOnUse" id="color-10"><stop offset="0" stop-color="#4d9ebf"/><stop offset="1" stop-color="#9087d9"/></linearGradient><linearGradient x1="274.29164" y1="219.86673" x2="273.22877" y2="232.76901" gradientUnits="userSpaceOnUse" id="color-11"><stop offset="0" stop-color="#4d9ebf"/><stop offset="1" stop-color="#9087d9"/></linearGradient><linearGradient x1="363.53756" y1="235.51409" x2="369.85315" y2="251.57202" gradientUnits="userSpaceOnUse" id="color-12"><stop offset="0" stop-color="#4d9ebf"/><stop offset="1" stop-color="#9087d9"/></linearGradient><linearGradient x1="362.46006" y1="232.44943" x2="365.36097" y2="244.25983" gradientUnits="userSpaceOnUse" id="color-13"><stop offset="0" stop-color="#4d9ebf"/><stop offset="1" stop-color="#9087d9"/></linearGradient><linearGradient x1="320.21528" y1="157.54969" x2="320.21528" y2="356.3076" gradientUnits="userSpaceOnUse" id="color-14"><stop offset="0" stop-color="#006927"/><stop offset="1" stop-color="#4c4c4c"/></linearGradient><linearGradient x1="319.95694" y1="71.28698" x2="319.95694" y2="175.63919" gradientUnits="userSpaceOnUse" id="color-15"><stop offset="0" stop-color="#47d90f"/><stop offset="1" stop-color="#53ff10"/></linearGradient><linearGradient x1="287.84879" y1="58.31575" x2="287.84879" y2="141.46131" gradientUnits="userSpaceOnUse" id="color-16"><stop offset="0" stop-color="#13d927"/><stop offset="1" stop-color="#277516"/></linearGradient><linearGradient x1="349.9539" y1="57.63192" x2="349.9539" y2="146.45368" gradientUnits="userSpaceOnUse" id="color-17"><stop offset="0" stop-color="#13d927"/><stop offset="1" stop-color="#277516"/></linearGradient><linearGradient x1="313.65235" y1="59.23236" x2="313.65235" y2="71.52809" gradientUnits="userSpaceOnUse" id="color-18"><stop offset="0" stop-color="#13d927"/><stop offset="1" stop-color="#277516"/></linearGradient><linearGradient x1="287.6635" y1="67.70297" x2="287.6635" y2="146.95801" gradientUnits="userSpaceOnUse" id="color-19"><stop offset="0" stop-color="#13d927"/><stop offset="1" stop-color="#277516"/></linearGradient><linearGradient x1="289.83442" y1="68.6482" x2="289.83442" y2="154.22364" gradientUnits="userSpaceOnUse" id="color-20"><stop offset="0" stop-color="#13d927"/><stop offset="1" stop-color="#277516"/></linearGradient><linearGradient x1="295.86943" y1="71.62601" x2="295.86943" y2="165.60286" gradientUnits="userSpaceOnUse" id="color-21"><stop offset="0" stop-color="#13d927"/><stop offset="1" stop-color="#277516"/></linearGradient><linearGradient x1="352.15664" y1="66.33193" x2="352.15664" y2="154.3223" gradientUnits="userSpaceOnUse" id="color-22"><stop offset="0" stop-color="#13d927"/><stop offset="1" stop-color="#277516"/></linearGradient><linearGradient x1="345.67816" y1="71.26975" x2="345.67816" y2="161.6993" gradientUnits="userSpaceOnUse" id="color-23"><stop offset="0" stop-color="#13d927"/><stop offset="1" stop-color="#277516"/></linearGradient><linearGradient x1="333.5893" y1="42.16323" x2="333.5893" y2="68.31118" gradientUnits="userSpaceOnUse" id="color-24"><stop offset="0" stop-color="#13d927"/><stop offset="1" stop-color="#277516"/></linearGradient><linearGradient x1="317.7299" y1="39.55069" x2="317.7299" y2="67.49467" gradientUnits="userSpaceOnUse" id="color-25"><stop offset="0" stop-color="#13d927"/><stop offset="1" stop-color="#277516"/></linearGradient></defs><g transform="translate(-251.55338,-38.41455)"><g stroke-miterlimit="10"><g stroke="#000000" stroke-width="2.5" stroke-linecap="butt"><path d="M361.33524,134.03713c5.62686,0.34187 10.18832,14.17364 10.18832,30.89413c0,16.72048 -4.56147,29.99797 -10.18832,29.6561c-5.62686,-0.34187 -10.18833,-14.17365 -10.18833,-30.89413c0,-16.72048 4.56147,-29.99797 10.18833,-29.6561z" fill="url(#color-1)"/><path d="M356.0867,172.715c0,17.10804 -4.83792,30.68292 -10.8058,30.32033c-5.96788,-0.36259 -10.80581,-14.52534 -10.80581,-31.63339c0,-17.10804 4.83793,-30.68291 10.80581,-30.32032c5.96788,0.36259 10.8058,14.52534 10.8058,31.63338z" fill="url(#color-2)"/><path d="M342.50227,180.11004c0,15.44707 -3.59389,27.75104 -8.02717,27.48168c-4.43328,-0.26935 -8.02717,-13.01003 -8.02717,-28.4571c0,-15.44707 3.59388,-27.75104 8.02717,-27.48169c4.43328,0.26935 8.02717,13.01003 8.02717,28.4571z" fill="url(#color-3)"/><path d="M331.38772,173.11908c0,15.61317 -3.38654,28.06438 -7.56406,27.81057c-4.17752,-0.25381 -7.56406,-13.11654 -7.56406,-28.72971c0,-15.61317 3.38654,-28.06438 7.56406,-27.81057c4.17752,0.25381 7.56406,13.11654 7.56406,28.72971z" fill="url(#color-4)"/><path d="M290.6344,160.22108c0,16.72048 -4.56147,28.96366 -10.18833,27.3459c-5.62686,-1.61776 -10.18832,-16.48384 -10.18832,-33.20433c0,-16.72048 4.56147,-28.96366 10.18832,-27.3459c5.62686,1.61776 10.18833,16.48385 10.18833,33.20433z" fill="url(#color-5)"/><path d="M296.50041,139.65238c5.96788,1.71581 10.80581,16.97556 10.80581,34.0836c0,17.10804 -4.83793,29.58592 -10.80581,27.87011c-5.96788,-1.71581 -10.8058,-16.97556 -10.8058,-34.0836c0,-17.10804 4.83792,-29.58592 10.8058,-27.87011z" fill="url(#color-6)"/><path d="M299.27904,179.6485c0,-15.44707 3.59389,-26.93612 8.02717,-25.66152c4.43329,1.2746 8.02717,14.83019 8.02717,30.27726c0,15.44707 -3.59389,26.93613 -8.02717,25.66153c-4.43328,-1.2746 -8.02717,-14.83019 -8.02717,-30.27726z" fill="url(#color-7)"/><path d="M317.95765,150.43293c4.17752,1.20107 7.56406,14.83169 7.56406,30.44486c0,15.61317 -3.38654,27.29649 -7.56406,26.09542c-4.17752,-1.20107 -7.56406,-14.83169 -7.56406,-30.44486c0,-15.61317 3.38654,-27.29649 7.56406,-26.09542z" fill="url(#color-8)"/></g><path d="M264.73599,190.17669c0,0 7.23671,-27.84378 17.95094,-28.28285c10.64011,-0.43602 35.86023,-1.03911 57.88934,-1.94186c23.89318,-0.97913 31.33704,28.14333 31.33704,28.14333l0.08153,52.07751c-7.10255,3.69106 -6.72054,7.37972 -8.96913,16.37409c-2.6398,10.55918 -2.57806,23.46672 -2.55701,33.75535c0.03401,16.62248 -0.19905,33.9016 -2.85991,50.29855c-0.66187,4.07865 -1.15848,8.32558 -0.94517,12.5086l-73.17257,-2.74451c0.08638,-0.87513 0.13061,-1.76264 0.13061,-2.66049c0,-1.21415 -0.08087,-2.40942 -0.23752,-3.58071c0.17231,-5.1179 -0.15937,-9.98193 -0.59887,-13.57087c-1.16462,-9.51045 -2.9092,-19.36697 -2.9422,-28.91268c-0.04681,-13.54057 -0.00821,-27.0813 0,-40.62195c0.00403,-6.63556 2.68738,-13.23483 0.99889,-19.98882c-0.78033,-3.12131 -1.28978,-6.42784 -2.92656,-9.19776c-3.50134,-5.92535 -7.38536,-9.7427 -12.74316,-11.72546z" fill="url(#color-9)" stroke="#000000" stroke-width="2.5" stroke-linecap="butt"/><path d="M285.51612,236.40237c-0.43802,2.19569 2.63714,3.25003 0.09332,4.04005c-3.3859,1.05153 -12.77672,1.3309 -15.32797,0.26163c-1.191,-0.49917 -7.79495,-1.97153 -8.73584,-2.80456c-2.58885,-2.29204 -1.28221,-4.52454 -0.53333,-8.27844c1.02106,-5.11822 8.2271,-8.14307 12.69509,-6.27045c4.46799,1.87261 12.82979,7.93356 11.80874,13.05178z" fill="url(#color-10)" stroke="#000000" stroke-width="2.5" stroke-linecap="butt"/><path d="M285.75492,219.63625c-0.26032,3.16002 2.18421,12.84829 -1.88422,11.89396c-0.51866,-0.12166 -8.71093,-2.99339 -9.28364,-3.09251c-5.06515,-0.87662 -13.31958,-3.29426 -13.02607,-6.85713c0.29351,-3.56287 7.6655,-2.59046 12.73065,-1.71384c5.06515,0.87662 11.75679,-3.79334 11.46328,-0.23047z" fill="url(#color-11)" stroke="#000000" stroke-width="2.5" stroke-linecap="butt"/><path d="M363.53756,235.51409c4.15351,-3.64816 11.71866,-3.79016 13.46266,0.64412c1.27912,3.25226 2.8922,4.82607 0.65854,8.08636c-0.8118,1.18493 -7.13658,5.34664 -8.24375,6.31909c-2.37168,2.08312 -11.70561,5.74703 -15.20726,6.16495c-2.63077,0.31399 0.26155,-1.97417 -0.48661,-3.87645c-1.744,-4.43427 5.6629,-13.68991 9.81642,-17.33808z" fill="url(#color-12)" stroke="#000000" stroke-width="2.5" stroke-linecap="butt"/><path d="M362.46006,232.44943c4.88724,-2.95198 12.04378,-6.96017 12.84485,-3.69882c0.80107,3.26135 -7.02169,9.01151 -11.90893,11.9635c-0.55259,0.33377 -8.24876,6.48924 -8.74463,6.82181c-3.88967,2.60876 -2.85879,-7.61639 -3.56927,-10.50899c-0.80107,-3.26135 6.49074,-1.62552 11.37799,-4.5775z" fill="url(#color-13)" stroke="#000000" stroke-width="2.5" stroke-linecap="butt"/><path d="M285.2352,158.15275c0.59067,-2.16526 1.40291,2.2539 3.47041,1.50351c1.67541,-0.60808 9.6745,6.83912 9.99962,7.95618c0.98415,3.38138 -1.77187,17.23983 1.98789,17.53623c5.1822,0.40854 10.60934,-0.5869 15.74464,0.10102c4.19465,0.56191 8.13704,1.12512 12.43849,1.12514c1.91711,0.00001 7.93993,1.0394 9.44777,0c0.75474,-0.52027 0.32376,-2.36405 0.42621,-3.07957c0.88391,-6.17367 -2.13756,-14.91894 5.31882,-14.92238c1.39974,-0.00065 2.6113,-4.84184 3.95762,-4.4846c0.96578,0.25627 4.38229,0.00473 4.99414,0.76132c2.12876,2.63237 1.55413,14.95842 2.04393,18.16221c1.68646,11.03108 2.42028,21.03368 1.1592,32.10345c-1.86726,16.39084 3.3728,27.44074 5.06737,43.37879c1.7543,16.49991 -3.97423,38.28025 -3.97423,54.51492c0,11.09083 0.74792,22.56462 -0.49522,33.52923c-0.218,1.92278 0.73515,8.033 -1.12386,9.24819c-2.81272,1.8386 -10.37523,-0.41618 -13.58275,-0.43469c-13.59105,-0.07841 -27.21536,-1.13155 -40.87928,-1.13155c-2.59461,0 -14.18505,0.28177 -15.13194,-1.9402c-1.68321,-3.94983 0.62301,-9.48442 -0.23311,-13.63215c-0.33695,-1.63247 -1.62695,-3.08658 -2.19983,-4.61695c-0.83496,-2.23049 -0.45103,-4.87471 -1.06538,-7.14668c-1.42727,-5.27822 0.89828,-11.44086 -0.1102,-16.79241c-1.21918,-6.46961 -4.75641,-13.13871 -3.37541,-20.28986c1.22907,-6.36443 4.1502,-12.51409 4.47537,-19.09498c0.89664,-18.14625 0.58775,-36.3131 0.58775,-54.50215c0,-8.30038 -1.78982,-46.62737 -0.11695,-50.19552" fill="url(#color-14)" stroke="#000000" stroke-width="2.5" stroke-linecap="round"/><path d="M374.73418,121.99072c0,28.00291 -24.26594,53.64847 -54.51858,53.64847c-30.25264,0 -55.03592,-25.64557 -55.03592,-53.64847c0,-28.0029 24.52462,-50.70374 54.77726,-50.70374c30.25264,0 54.77725,22.70084 54.77725,50.70374z" fill="url(#color-15)" stroke="#000000" stroke-width="2.5" stroke-linecap="butt"/><path d="M276.63559,120.05954c-1.32234,6.97768 -4.93379,12.09239 -6.58758,17.48588c-2.98016,9.71919 -4.26407,17.29156 -7.4214,16.639c-4.90944,-1.01468 -5.23142,-17.78412 -1.52619,-37.33571c1.84635,-9.7428 5.82425,-26.8245 20.20906,-36.00338c14.48227,-9.24107 37.13055,-11.00848 39.59356,-10.49942c3.26833,0.6755 -41.65437,20.76533 -42.0931,31.54921c-0.2203,5.41487 -0.93577,11.62877 -2.17434,18.16443z" fill="#48d957" stroke="#000000" stroke-width="2.5" stroke-linecap="butt"/><path d="M285.71351,129.31862c0,7.10682 -2.83922,12.85143 -3.51801,18.4727c-1.22318,10.12965 -1.06078,17.81154 -4.58649,17.81154c-5.48224,0 -9.24325,-16.37079 -9.24325,-36.28424c0,-9.92311 0.79598,-27.47101 14.38445,-39.38136c13.68053,-11.99105 37.65813,-18.31124 40.40851,-18.31124c3.64966,0 -40.53243,28.7905 -38.80781,39.44887c0.86598,5.35184 1.36258,11.58713 1.36258,18.24374z" fill="#48d957" stroke="#000000" stroke-width="2.5" stroke-linecap="butt"/><g stroke-linecap="butt"><path d="M269.46911,107.38516c-2.62491,5.99299 -7.14297,9.92968 -9.79209,14.45296c-4.77376,8.15106 1.86368,20.67911 -1.11198,19.5521c-4.62696,-1.75243 -9.2703,-22.75792 -1.91524,-39.55038c3.66511,-8.3679 16.92535,-34.00443 32.79295,-39.70446c8.6465,-3.10603 24.61724,-5.46261 30.74052,-2.36762c5.19001,2.62328 1.13313,10.53309 2.19803,10.93643c3.08026,1.16663 -44.84273,11.32178 -47.32385,20.86097c-1.24583,4.78988 -3.12973,10.20668 -5.58836,15.82001z" fill="url(#color-16)" stroke="#000000" stroke-width="2.5"/><path d="M371.02599,91.1495c-2.04119,-5.82627 -14.82533,-10.22536 -29.6815,-14.60319c-8.52883,-2.51328 -22.50604,-2.89619 -21.31486,-3.26159c0.3499,-0.10733 -2.27884,-2.46767 -4.97534,-5.33994c-0.71507,-0.76168 -1.43491,-1.55936 -2.10523,-2.36058c-2.64575,-3.1624 -4.52007,-6.37984 -2.28511,-7.65587c2.85455,-1.62977 10.39267,3.98609 13.70435,4.12599c8.38712,0.35429 30.18928,8.5044 38.65731,11.40655c17.47548,5.98918 19.80377,29.26274 24.23206,37.36043c8.88656,16.25025 -4.46729,34.123 -9.37337,35.62793c-0.78019,0.23932 -0.14622,-9.25495 -0.05505,-10.07192c0.27755,-2.48696 7.63088,-7.85279 3.40425,-13.82227c-3.11599,-4.40087 -0.11397,-10.34431 -3.28544,-16.14379c-2.97057,-5.43209 -5.30872,-10.65669 -6.92207,-15.26175z" fill="url(#color-17)" stroke="#000000" stroke-width="2.5"/><path d="M306.75173,61.21104c-0.13444,-0.16361 -0.22675,-0.38826 -0.22675,-0.69675c0,-1.13522 1.25,-1.13522 1.25,-1.13522c2.87727,0 8.13512,-0.78113 10.43042,1.26141c0.80176,0.71348 1.38906,1.98123 1.85143,3.35586l0.30134,0.03421c0.62514,0.06262 1.11141,0.54389 1.11141,1.12831c0,0.47221 -0.31746,0.87707 -0.76913,1.04817c0.24946,0.95713 0.46069,1.84988 0.66475,2.523c0.2138,0.70526 0.86173,1.55755 0.40935,2.16278c-0.80856,1.08177 -5.42288,0.48454 -6.65376,0.34671c-0.4312,-0.0521 -0.90028,-0.11439 -1.39098,-0.19077l-1.12731,0.19462c-0.51161,-0.32479 -1.30022,-0.49359 -1.81604,-0.81601c-1.68526,-0.47447 -3.26818,-1.18093 -4.17534,-2.25715c-1.52915,-1.81413 -1.81731,-5.32322 0.1406,-6.95919zM316.44788,62.25575c-0.0034,-0.00329 -0.00682,-0.00656 -0.01024,-0.00983c-0.53287,-0.50921 -1.5853,-0.72569 -2.79721,-0.79546c0.03865,0.03829 0.07443,0.07899 0.10707,0.12183c1.03832,0.06203 2.00108,0.28257 2.70039,0.68346zM308.43828,66.11696c-0.14174,-0.1279 -0.26802,-0.25378 -0.37962,-0.37754c0.09546,0.26964 0.21708,0.52865 0.36093,0.76574c-0.01768,-0.09641 -0.01931,-0.19554 -0.0018,-0.29753c0.00529,-0.03083 0.01215,-0.06105 0.02049,-0.09067z" fill="url(#color-18)" stroke="none" stroke-width="0.5"/><path d="M269.46911,109.43624c-2.62491,6.59897 -7.14297,10.93372 -9.79209,15.91438c-4.77376,8.97526 1.86368,22.77009 -1.11198,21.52911c-4.62696,-1.92963 -9.2703,-25.05909 -1.91524,-43.54952c3.66511,-9.21402 8.99629,-25.22778 24.86391,-31.50416c15.97513,-6.31892 38.54631,-3.74786 40.8676,-2.77978c3.08026,1.2846 -44.84273,12.46658 -47.32385,22.97033c-1.24583,5.27421 -3.12973,11.23873 -5.58836,17.41966z" fill="url(#color-19)" stroke="#000000" stroke-width="2.5"/><path d="M276.63559,120.05954c-1.32234,6.97768 -4.93379,12.09239 -6.58758,17.48588c-2.98016,9.71919 -4.26407,17.29156 -7.4214,16.639c-4.90944,-1.01468 -5.23142,-17.78412 -1.52619,-37.33571c1.84635,-9.7428 2.09517,-28.68905 16.47997,-37.86792c3.74334,-2.38861 7.41074,-6.76394 11.75563,-8.24366c12.46468,-4.24503 29.74063,-0.7687 31.56702,-0.39122c3.26833,0.6755 -41.65437,20.76533 -42.0931,31.54921c-0.2203,5.41487 -0.93577,11.62877 -2.17434,18.16443z" fill="url(#color-20)" stroke="#000000" stroke-width="2.5"/><path d="M285.71351,129.31862c0,7.10682 -2.83922,12.85143 -3.51801,18.4727c-1.22318,10.12965 -1.06078,17.81154 -4.58649,17.81154c-5.48224,0 -9.24325,-16.37079 -9.24325,-36.28424c0,-9.92311 0.79598,-27.47101 14.38445,-39.38136c13.68053,-11.99105 37.65813,-18.31124 40.40851,-18.31124c3.64966,0 -40.53243,28.7905 -38.80781,39.44887c0.86598,5.35184 1.36258,11.58713 1.36258,18.24374z" fill="url(#color-21)" stroke="#000000" stroke-width="2.5"/><path d="M364.37917,100.58325c-0.90177,-6.49353 -12.11138,-13.00372 -25.26506,-19.78751c-7.55144,-3.89453 -20.57435,-6.30031 -19.39551,-6.51896c1.26344,-0.23435 11.01106,-9.43431 19.40936,-7.73573c7.79291,1.57614 13.39757,9.77022 20.82468,14.06998c15.32733,8.87342 20.88396,25.10482 23.62752,34.3574c5.50571,18.56784 -11.40329,38.43118 -16.25852,39.33172c-3.12248,0.57915 5.43583,-10.30991 1.55188,-19.55414c-2.15533,-5.12993 1.3079,-10.30137 -0.65701,-16.92796c-1.84043,-6.20681 -3.12457,-12.10234 -3.83733,-17.23479z" fill="url(#color-22)" stroke="#000000" stroke-width="2.5"/><path d="M357.4578,111.97999c1.09562,-6.21519 -8.83572,-15.71019 -20.76094,-26.07072c-6.84619,-5.94792 -20.02085,-12.26925 -18.68977,-12.09556c1.4266,0.18616 14.77894,-5.12767 23.22841,-0.91678c7.84038,3.90735 11.23849,13.16485 17.823,19.44343c13.58847,12.95712 14.38446,29.5387 14.38446,38.85664c0,9.08909 -4.40586,12.08414 -7.06438,17.43968c-2.81086,5.66242 -3.95505,13.41766 -6.77251,13.05002c-3.52571,-0.46006 -1.74202,-6.42577 -2.9652,-16.09726c-0.67879,-5.36703 -0.54564,-9.98271 -0.54564,-16.65611c0,-6.25064 0.4966,-12.04089 1.36258,-16.95333z" fill="url(#color-23)" stroke="#000000" stroke-width="2.5"/><path d="M338.26309,57.85691c-3.96429,7.07267 -9.27051,11.63331 -11.85178,10.18649c-2.58127,-1.44683 -1.46009,-8.35323 2.5042,-15.4259c3.96429,-7.07267 9.27052,-11.63331 11.85178,-10.18648c2.58126,1.44682 1.46009,8.35323 -2.5042,15.42589z" fill="url(#color-24)" stroke="#000000" stroke-width="2.5"/><path d="M322.7876,51.7544c2.67586,7.65362 2.58066,14.64979 -0.21263,15.62639c-2.7933,0.97659 -7.22692,-4.43622 -9.90278,-12.08984c-2.67586,-7.65362 -2.58066,-14.64979 0.21263,-15.62639c2.7933,-0.97659 7.22692,4.43622 9.90278,12.08984z" fill="url(#color-25)" stroke="#000000" stroke-width="2.5"/></g><g stroke="#000000" stroke-width="2.5" stroke-linecap="butt"><path d="M364.60665,71.56909c5.68438,10.58404 7.2493,20.79849 3.49535,22.81462c-3.75394,2.01614 -11.40521,-4.92952 -17.08959,-15.51356c-5.68438,-10.58404 -7.2493,-20.7985 -3.49536,-22.81464c3.75394,-2.01614 11.40522,4.92954 17.0896,15.51358z" fill="#ff00e7"/><path d="M361.52922,81.97913c-10.52549,5.79207 -20.72344,7.46114 -22.77777,3.72796c-2.05433,-3.73318 4.81288,-11.45492 15.33837,-17.24699c10.52549,-5.79207 20.72346,-7.46115 22.77778,-3.72797c2.05433,3.73318 -4.8129,11.45493 -15.33838,17.247z" fill="#ff00e7"/><path d="M360.23815,67.89642c11.40319,3.78169 19.55997,10.12606 18.21868,14.17054c-1.34129,4.04448 -11.67273,4.25752 -23.07592,0.47583c-11.40319,-3.78169 -19.55998,-10.12607 -18.21869,-14.17055c1.34129,-4.04448 11.67274,-4.25751 23.07594,-0.47582z" fill="#ff00e7"/><path d="M365.1571,77.57339c-3.66514,11.44119 -9.92595,19.66227 -13.9839,18.36232c-4.05795,-1.29995 -4.37641,-11.62868 -0.71127,-23.06987c3.66514,-11.44119 9.92596,-19.66228 13.98392,-18.36233c4.05795,1.29995 4.37639,11.62869 0.71125,23.06987z" fill="#ff00e7"/><path d="M364.83019,78.59388c-1.24579,3.88887 -5.54532,5.98761 -9.60328,4.68766c-4.05796,-1.29995 -6.33767,-5.50633 -5.09188,-9.39521c1.24579,-3.88887 5.54532,-5.98761 9.60328,-4.68766c4.05796,1.29995 6.33767,5.50633 5.09188,9.39521z" fill="#ffe300"/></g><path d="M351.14815,115.45516c0,2.23487 -1.98847,4.04658 -4.44137,4.04658c-2.4529,0 -4.44137,-1.81172 -4.44137,-4.04658c0,-2.23486 1.98847,-4.04658 4.44137,-4.04658c2.4529,0 4.44137,1.81172 4.44137,4.04658z" fill="#ffffff" stroke="#000000" stroke-width="2.5" stroke-linecap="butt"/><path d="M298.97089,115.78481c0,2.23486 -1.98847,4.04658 -4.44137,4.04658c-2.4529,0 -4.44137,-1.81172 -4.44137,-4.04658c0,-2.23487 1.98847,-4.04659 4.44137,-4.04659c2.4529,0 4.44137,1.81172 4.44137,4.04659z" fill="#ffffff" stroke="#000000" stroke-width="2.5" stroke-linecap="butt"/><path d="M335.92281,119.81846c0,2.70884 -6.65243,4.90479 -14.85862,4.90479c-8.2062,0 -14.85862,-2.19595 -14.85862,-4.90479c0,-2.70884 6.65243,-4.90479 14.85862,-4.90479c8.2062,0 14.85862,2.19595 14.85862,4.90479z" fill-opacity="0.18431" fill="#ff0505" stroke="none" stroke-width="0" stroke-linecap="butt"/><path d="M356.56603,109.2322c0.66651,1.05749 -0.39098,1.72399 -0.39098,1.72399l-0.63368,0.39035c-1.18104,0.57295 -3.12164,2.07428 -4.34231,2.27514c-1.52163,0.2504 -2.75771,-0.98913 -4.15491,-1.28423c0,0 -1.21904,-0.27646 -0.94258,-1.49551c0.27646,-1.21904 1.49551,-0.94258 1.49551,-0.94258c0.49667,0.11832 2.78499,1.38108 3.17981,1.25822c1.1507,-0.35808 2.52767,-1.50444 3.67319,-2.06029l0.39196,-0.25608c0,0 1.05748,-0.66651 1.72398,0.39098z" fill="#000000" stroke="none" stroke-width="0.5" stroke-linecap="butt"/><path d="M303.77246,109.34385c0.62666,1.08157 -0.45491,1.70823 -0.45491,1.70823l-0.22387,0.12971c-2.94718,1.69073 -5.38129,2.16433 -8.64341,1.29561c0,0 -1.2079,-0.32167 -0.88623,-1.52957c0.32167,-1.2079 1.52957,-0.88623 1.52957,-0.88623c2.60849,0.69466 4.35043,0.36215 6.74674,-1.04296l0.22387,-0.12971c0,0 1.08157,-0.62666 1.70823,0.45491z" fill="#000000" stroke="none" stroke-width="0.5" stroke-linecap="butt"/><path d="M350.89677,157.44655c-0.88389,0.88388 -1.76776,0 -1.76776,0l-0.53092,-0.5438c-0.18129,0.04438 -0.3163,0.04437 -0.3163,0.04437l-0.33189,-0.02427c-6.64235,1.32847 -12.94518,4.2439 -19.74113,4.92298c-3.33258,0.333 -6.87016,0.00608 -10.22126,0.00608c-8.18646,0 -19.11914,0.68607 -26.52555,-3.01713c0,0 -0.25398,-0.12699 -0.45931,-0.38096c-0.18778,0.12281 -1.04838,0.61028 -1.71278,-0.27559c-0.75,-1 0.25,-1.75 0.25,-1.75c0.38469,-0.28851 0.76938,-0.57704 1.15407,-0.86555l1.22027,-0.47437c0,0 1.18585,-0.39529 1.58114,0.79057c0.163,0.48899 0.05714,0.84357 -0.12356,1.09142c7.0149,3.0877 17.12416,2.38162 24.61572,2.38162c3.26707,0 6.72698,0.33117 9.97492,0.00608c6.45621,-0.64621 12.47701,-3.36369 18.77369,-4.73535c0.03485,-0.16896 0.11422,-0.35048 0.25716,-0.54107c0.75,-1 1.75,-0.25 1.75,-0.25c0.38469,0.28851 0.76938,0.57703 1.15407,0.86555l0.99944,0.98167c0,0 0.88389,0.88388 0,1.76776z" fill="#000000" stroke="none" stroke-width="0.5" stroke-linecap="butt"/><path d="M287.85149,264.81302c-0.10921,-2.29471 2.74604,-5.79992 4.04194,-7.68446c1.33043,-1.93475 2.29866,-4.20104 3.56455,-6.17505c2.75534,-4.29663 9.88912,-4.8261 13.72794,-5.65979c1.69324,-0.36773 7.86258,-2.6277 8.79724,-0.63182c2.23798,4.77896 -4.27749,8.11886 -7.11962,10.15206c-0.94649,0.67711 -1.68777,1.43583 -2.63626,1.91307c-0.24095,0.12124 -0.74329,0.19683 -0.68535,0.47361c0.09158,0.43745 4.0277,-1.47067 4.4241,-1.57403c2.16216,-0.56381 12.14856,-3.96957 13.28846,-2.28461c0.55352,0.81818 0.4295,2.32844 0.47989,3.36968c0.26809,5.54025 -3.56682,4.98725 -7.25603,7.02445c-0.92144,0.50882 -1.95778,1.01725 -2.92305,1.31015c-0.24951,0.07571 -0.72495,-0.10088 -0.75161,0.19507c-0.03908,0.43398 4.79882,-0.70793 5.24291,-0.80432c0.2512,-0.05452 0.5024,-0.10906 0.7536,-0.1636c4.21108,-0.91429 6.01795,-1.50293 6.59921,3.91917c0.42842,3.99633 0.57291,5.8415 -3.03549,7.5424c-1.61212,0.75991 -3.43318,1.7358 -5.08919,2.10064c-0.25116,0.05533 -0.70698,-0.13083 -0.75355,0.16475c-0.02402,0.15244 3.18164,1.07678 3.49176,1.11095c2.31834,0.25547 4.1897,3.08115 3.65186,6.1283c-0.93001,5.26904 -4.98532,4.98182 -8.25731,7.19584c-6.92743,4.68751 -11.71069,5.78701 -18.79545,4.17741c-2.82552,-0.64194 -6.02115,-0.35093 -8.3428,-2.16133c-4.95922,-3.86716 -2.07862,-22.4568 -2.39616,-29.18352z" fill="#4ff110" stroke="#000000" stroke-width="2.5" stroke-linecap="round"/><path d="M351.68502,262.83735c0.32273,6.72648 4.95575,24.95852 0.38621,29.27918c-2.13922,2.02271 -5.34805,2.0365 -8.09983,2.94387c-6.89987,2.27516 -11.76593,1.63489 -19.10722,-2.37354c-3.46746,-1.89327 -7.47717,-1.22222 -8.90338,-6.37912c-0.8248,-2.9823 0.76975,-5.97292 3.05335,-6.44741c0.30548,-0.06347 3.40886,-1.28808 3.37047,-1.43754c-0.07443,-0.28981 -0.5105,-0.0612 -0.76578,-0.09243c-1.68318,-0.20593 -3.58869,-1.00446 -5.26569,-1.60784c-3.75363,-1.35053 -3.78502,-3.20107 -3.73807,-7.22003c0.0637,-5.4528 1.91831,-5.0384 6.19718,-4.52817c0.25525,0.03043 0.51049,0.06087 0.76573,0.09129c0.45124,0.05378 5.37572,0.73108 5.2956,0.30277c-0.05464,-0.29208 -0.51117,-0.07113 -0.76674,-0.12281c-0.98873,-0.1999 -2.06867,-0.60762 -3.03426,-1.02663c-3.866,-1.67763 -7.63106,-0.76293 -7.89034,-6.30359c-0.04873,-1.04131 -0.3156,-2.53298 0.15771,-3.40003c0.97473,-1.7856 11.23944,0.65636 13.44537,1.01228c0.40442,0.06525 4.50397,1.59094 4.55359,1.14677c0.0314,-0.28103 -0.47585,-0.30857 -0.72723,-0.40638c-0.98952,-0.385 -1.79952,-1.06991 -2.80603,-1.65406c-3.02237,-1.7541 -9.82559,-4.46013 -8.05158,-9.43003c0.74089,-2.07562 7.09698,-0.41176 8.81749,-0.20651c3.90064,0.46535 11.05247,0.31495 14.2034,4.33049c1.44764,1.84487 2.62672,4.00895 4.13488,5.80861c1.46902,1.75295 4.64425,4.97116 4.75346,7.26587z" fill="#4ff110" stroke="#000000" stroke-width="2.5" stroke-linecap="round"/></g></g></svg>