<svg version="1.1" xmlns="http://www.w3.org/2000/svg" xmlns:xlink="http://www.w3.org/1999/xlink" width="238.56787" height="342.20526" viewBox="0,0,238.56787,342.20526"><defs><linearGradient x1="400.22407" y1="91.22079" x2="401.6613" y2="134.33765" gradientUnits="userSpaceOnUse" id="color-1"><stop offset="0" stop-color="#4800ff"/><stop offset="1" stop-color="#0038ff"/></linearGradient><linearGradient x1="238.14517" y1="92.45063" x2="236.70794" y2="135.56749" gradientUnits="userSpaceOnUse" id="color-2"><stop offset="0" stop-color="#4800ff"/><stop offset="1" stop-color="#0038ff"/></linearGradient><linearGradient x1="223.13847" y1="351.55597" x2="223.38536" y2="32.75744" gradientUnits="userSpaceOnUse" id="color-3"><stop offset="0" stop-color="#ff0000"/><stop offset="0.333" stop-color="#ffff00"/><stop offset="0.5" stop-color="#00ff00"/><stop offset="0.666" stop-color="#00ffff"/><stop offset="0.833" stop-color="#0000ff"/><stop offset="1" stop-color="#ff00ff"/></linearGradient><linearGradient x1="322.08027" y1="162.06707" x2="323.25221" y2="340.27739" gradientUnits="userSpaceOnUse" id="color-4"><stop offset="0" stop-color="#ffffff"/><stop offset="1" stop-color="#5f5f5f"/></linearGradient><linearGradient x1="257.00748" y1="83.76277" x2="257.00748" y2="127.9618" gradientUnits="userSpaceOnUse" id="color-5"><stop offset="0" stop-color="#ffffff"/><stop offset="1" stop-color="#ffffff" stop-opacity="0"/></linearGradient><linearGradient x1="383.05084" y1="82.90551" x2="383.05084" y2="127.10453" gradientUnits="userSpaceOnUse" id="color-6"><stop offset="0" stop-color="#ffffff"/><stop offset="1" stop-color="#ffffff" stop-opacity="0"/></linearGradient><linearGradient x1="235.58092" y1="326.00149" x2="237.56241" y2="62.40032" gradientUnits="userSpaceOnUse" id="color-7"><stop offset="0" stop-color="#ff0000"/><stop offset="0.333" stop-color="#ffff00"/><stop offset="0.5" stop-color="#00ff00"/><stop offset="0.666" stop-color="#00ffff"/><stop offset="0.833" stop-color="#0000ff"/><stop offset="1" stop-color="#ff00ff"/></linearGradient></defs><g transform="translate(-198.99015,-8.89738)"><g stroke-miterlimit="10"><path d="M338.00961,73.39866c0,0 73.57198,26.94873 89.03857,32.61399c5.45003,1.9963 9.42494,8.94198 9.42494,8.94198c0,0 -3.20802,-3.92891 -9.78457,-2.48779c-9.53499,2.0894 -22.72278,5.18288 -30.11235,7.7999c-11.36913,4.02638 -30.35341,15.25219 -30.35341,15.25219z" fill="url(#color-1)" stroke="#000000" stroke-width="2.5" stroke-linecap="butt"/><path d="M272.14645,136.74877c0,0 -17.53189,-12.05241 -28.78594,-16.03803c-6.86356,-2.43073 -19.09171,-5.01694 -28.77349,-6.86312c-8.03851,-1.53283 -11.0601,0.70606 -11.0601,0.70606c0,0 3.67396,-5.8963 9.94082,-8.277c15.49417,-5.88603 80.70278,-30.65792 80.70278,-30.65792z" fill="url(#color-2)" stroke="#000000" stroke-width="2.5" stroke-linecap="butt"/><path d="M271.58622,337.79939l-3.28077,-147.27579c0,0 7.02525,-25.69821 17.67394,-26.10344c10.57502,-0.40242 35.64348,-0.95905 57.53784,-1.79223c23.74701,-0.90368 31.32395,25.97468 31.32395,25.97468l1.26281,152.83541z" fill="url(#color-3)" stroke="#000000" stroke-width="2.5" stroke-linecap="butt"/><path d="M270.35742,336.65142c0,0 -0.43403,-15.28139 -1.4502,-41.56944c-0.43617,-11.28374 -1.71881,-35.29669 -1.90397,-43.38941c-0.44815,-19.58685 -0.0038,-61.80465 -0.0038,-61.80465c0,0 7.2765,-25.60882 18.29633,-26.01264c3.15578,-0.11564 7.5588,-0.24406 12.7706,-0.38818c0.73994,0.98881 -2.46459,1.86355 -2.82082,3.75917c-0.41372,2.20157 1.95913,5.51384 2.23093,7.79591c0.25626,2.15156 3.02157,4.63352 4.13977,5.20587c2.28598,1.17009 6.14839,5.07147 8.77372,5.54236c2.5231,0.45255 15.96844,0.93311 18.57205,0.30532c4.69743,-1.13267 11.50445,-5.97043 12.59131,-10.72609c0.59601,-2.60793 5.34953,-4.25947 4.78345,-6.58043c-0.54145,-2.21999 -6.43224,-5.13366 -4.70533,-6.58491c1.07511,-0.03773 2.14487,-0.07607 3.20741,-0.115c24.57466,-0.90053 32.40883,25.88432 32.40883,25.88432c0,0 -1.51001,65.67355 -1.28424,92.78605c0.08652,10.38912 1.86864,26.83994 2.4239,38.14932c0.67203,13.68763 0.12863,21.36842 0.12863,21.36842c0,0 -42.65251,10.20851 -62.46954,9.54415c-14.6531,-0.49124 -45.68903,-13.17013 -45.68903,-13.17013z" fill="url(#color-4)" stroke="#000000" stroke-width="2.5" stroke-linecap="butt"/><path d="M259.7976,123.56711c-0.69033,0.94166 -3.09579,1.40246 -5.01149,1.97611c-0.31388,0.09399 -1.8601,0.60386 -2.62268,0.42726c-1.82889,-0.42355 -1.33578,-1.92723 -3.92527,-2.53979c-2.59512,-0.61391 -5.0499,-0.00979 -7.53088,-0.63079c-2.35931,-0.59054 -1.88226,-1.96368 -4.20585,-2.58426c-2.3314,-0.62266 -5.58,0.15265 -7.17004,-0.69451c-3.69161,-1.96685 -4.17668,-3.87849 1.64138,-3.86767" fill="#211fff" stroke-opacity="0.4902" stroke="#000000" stroke-width="2.5" stroke-linecap="round"/><path d="M409.48311,112.38469c5.78235,-0.7815 5.50907,0.86202 2.0543,2.97692c-1.48803,0.91093 -4.80207,0.70184 -7.05159,1.52577c-2.24198,0.82116 -1.61771,1.8921 -3.89848,2.6932c-2.39839,0.84241 -4.90462,0.66934 -7.41725,1.52105c-2.50718,0.84986 -1.85267,2.02648 -3.62442,2.61921c-0.73876,0.24715 -2.33151,0.03129 -2.6538,-0.00467c-1.96702,-0.21949 -4.40855,-0.28072 -5.19769,-0.96691" fill="#211fff" stroke-opacity="0.4902" stroke="#000000" stroke-width="2.5" stroke-linecap="round"/><path d="M275.03164,127.9618c0,0 -12.67614,-8.71429 -20.81319,-11.59602c-9.08288,-3.2167 -31.15924,-6.80999 -31.15924,-6.80999l67.89656,-25.79301z" fill="url(#color-5)" stroke-opacity="0.50196" stroke="#000000" stroke-width="2.5" stroke-linecap="butt"/><path d="M348.21994,82.90551l69.66178,25.79301c0,0 -22.65032,3.59329 -31.96934,6.80999c-8.34861,2.88174 -21.35431,11.59602 -21.35431,11.59602z" fill="url(#color-6)" stroke-opacity="0.50196" stroke="#000000" stroke-width="2.5" stroke-linecap="butt"/><path d="M374.10882,124.32758c-1.94104,28.48816 -27.92848,52.9286 -58.11114,50.8721c-30.18266,-2.05649 -53.13099,-29.83117 -51.18995,-58.31932c1.94104,-28.48815 27.98246,-49.91526 58.16512,-47.85875c30.18266,2.05649 53.07703,26.81782 51.13599,55.30597z" fill="url(#color-7)" stroke="#000000" stroke-width="2.5" stroke-linecap="butt"/><path d="M335.9719,154.83891l-16.26909,18.51378l-16.90076,-18.2273z" fill="#00eaff" stroke="#000000" stroke-width="2.5" stroke-linecap="butt"/><g stroke="#000000" stroke-width="2.5"><g stroke-linecap="butt"><path d="M289.32596,77.17537l30.65622,-53.60112l30.06705,53.93706c0,0 -2.31275,2.60192 -10.11568,4.18506c-6.60967,1.34104 -18.38117,1.70658 -23.32941,1.6792c-4.23775,-0.02344 -14.11399,-1.34219 -19.48716,-2.75733c-6.28566,-1.65547 -7.79102,-3.44285 -7.79102,-3.44285z" fill="#ffffff"/><path d="M321.17761,49.10465c-0.14265,3.56285 -3.03548,6.33991 -6.4613,6.20274c-3.42581,-0.13717 -6.08735,-3.13662 -5.94469,-6.69947c0.14265,-3.56285 3.03548,-6.33992 6.4613,-6.20275c3.42582,0.13717 6.08735,3.13662 5.94469,6.69949z" fill="#1dff00"/><path d="M337.98698,68.93425c-0.14265,3.56285 -3.03548,6.33993 -6.4613,6.20276c-3.42581,-0.13717 -6.08736,-3.13663 -5.9447,-6.69949c0.14265,-3.56285 3.03548,-6.33991 6.46131,-6.20274c3.42582,0.13717 6.08735,3.13662 5.94469,6.69947z" fill="#fa00ff"/><path d="M310.85893,74.061c-0.14265,3.56285 -3.03548,6.33992 -6.4613,6.20275c-3.42581,-0.13717 -6.08735,-3.13663 -5.94469,-6.69948c0.14265,-3.56285 3.03548,-6.33992 6.4613,-6.20275c3.42582,0.13717 6.08735,3.13662 5.94469,6.69948z" fill="#0007ff"/></g><path d="M303.29904,23.41087l30.50286,2.13441" fill="none" stroke-linecap="round"/><path d="M332.11508,33.46722l-11.99665,-8.24156l-0.30935,-15.07828" fill="none" stroke-linecap="round"/><path d="M319.2068,25.18917l-10.96708,5.95247" fill="none" stroke-linecap="round"/></g><path d="M359.52908,204.92219c-0.27116,1.22024 -1.4914,0.94907 -1.4914,0.94907l-1.70351,-0.38083c-0.87527,-0.08651 -1.75486,-0.18556 -2.63718,-0.28859c-0.07554,2.6977 -0.04359,5.38851 0.33168,8.04626l0.00312,1.47004c0,0 0,1.25 -1.25,1.25c-1.25,0 -1.25,-1.25 -1.25,-1.25l0.00313,-1.29348c-0.40227,-2.80394 -0.51844,-5.66673 -0.49724,-8.53595c-1.93293,-0.22338 -3.87142,-0.4249 -5.79917,-0.51583c-2.75436,4.88317 -5.82164,9.54017 -9.98394,13.25346c0,0 -0.63761,0.56677 -1.32756,0.23712c-0.13708,0.04944 -0.29888,0.07862 -0.48987,0.07862c-1.25,0 -1.25,-1.25 -1.25,-1.25l0.00621,-0.6652c-0.26801,-2.68253 -0.58338,-5.36145 -0.90668,-8.03837c-2.2205,0.52239 -4.43811,0.81427 -6.92201,0.86532c-1.47994,2.72396 -3.0691,5.34832 -4.9692,7.65151c0,0 -0.80023,0.96027 -1.76051,0.16004c-0.40539,-0.33783 -0.49703,-0.70417 -0.46757,-1.01476c-0.377,-0.37033 -0.37699,-0.93249 -0.37699,-0.93249l0.03732,-0.8812c-1.17575,-4.72902 -1.53085,-9.57639 -1.85976,-14.42494c-1.47614,0.24931 -2.94873,0.52367 -4.42037,0.80508c-1.64848,3.55415 -3.16223,7.16857 -4.34938,10.75106c0,0 -0.39528,1.18586 -1.58114,0.79057c-1.18586,-0.39529 -0.79057,-1.58114 -0.79057,-1.58114c1.04689,-3.12396 2.32394,-6.2708 3.71892,-9.38215c-0.96661,0.18571 -1.93358,0.3692 -2.90165,0.54537c0,0 -1.22983,0.2236 -1.45344,-1.00623c-0.0712,-0.3916 0.00496,-0.6812 0.14187,-0.89402c-0.51099,0.05523 -1.02144,0.10656 -1.53172,0.1525c-0.14979,4.47433 -0.52945,8.9919 0.10663,13.36917l0.01256,1.16375c0,0 0,1.25 -1.25,1.25c-1.25,0 -1.25,-1.25 -1.25,-1.25l0.01256,-0.81019c-0.61876,-4.39789 -0.35667,-9.03337 -0.24831,-13.54193c-1.04032,0.04711 -2.0826,0.06124 -3.13004,0.02975c-1.35435,2.80537 -2.54304,5.65599 -3.25168,8.50632c0,0 -0.30317,1.21268 -1.51585,0.90951c-1.21268,-0.30317 -0.90951,-1.51585 -0.90951,-1.51585c0.67993,-2.70603 1.76481,-5.41483 3.01401,-8.08459c-0.12563,-0.01394 -0.25137,-0.02867 -0.37723,-0.04422c0,0 -1.24035,-0.15505 -1.08531,-1.39539c0.15504,-1.24034 1.3954,-1.0853 1.3954,-1.0853c0.41182,0.05214 0.82236,0.09477 1.23183,0.12875c1.36656,-2.72279 2.83079,-5.39076 4.12946,-7.95813l0.36429,-1.63931c0.11471,-0.57199 0.61982,-1.00287 1.22557,-1.00287c0.6639,0 1.20691,0.51758 1.24755,1.17124l0.17739,2.48335l-0.35372,0.02527c0.40436,2.22433 0.51653,4.4942 0.50616,6.7846c1.13107,-0.10842 2.2629,-0.244 3.39983,-0.38769l0.54983,-0.00966c0,0 1.25,0 1.25,1.25c0,0.15798 -0.01997,0.29601 -0.05486,0.41658c0.6115,-0.11715 1.22284,-0.23529 1.8342,-0.35313c1.3965,-2.95931 2.87052,-5.86982 4.32296,-8.67999l0.56756,-1.32432c0.18473,-0.4596 0.63461,-0.78408 1.16028,-0.78408c0.55054,0 1.01796,0.35592 1.1847,0.85021l0.77961,2.14395l-0.01898,0.00691c0.0267,0.06704 0.05184,0.13481 0.07528,0.20339c0.52198,1.52702 0.53459,3.90528 0.52005,6.0794c0.48261,-0.06868 0.96576,-0.13357 1.44957,-0.19406l0.94462,-0.00965c0,0 1.25,0 1.25,1.25c0,1.25 -1.25,1.25 -1.25,1.25l-0.63453,-0.00965c-0.58666,0.07332 -1.17239,0.15321 -1.75733,0.23855c0.00488,0.19336 0.0117,0.3795 0.02104,0.55715c0.23064,4.38676 0.66122,8.88349 1.68729,13.16252c1.15801,-1.64845 2.19962,-3.42684 3.18842,-5.25697c0.0321,-0.44701 0.23552,-0.71633 0.46897,-0.87858c1.94144,-3.67837 3.71322,-7.51295 5.81974,-10.88363l0.76835,-1.34463c0.2122,-0.38786 0.62406,-0.65089 1.09734,-0.65089c0.60241,0 1.10529,0.42613 1.22364,0.99341l0.5565,2.4115l-0.26381,0.06088c0.76342,2.42252 1.25106,4.97172 1.60287,7.55531c0.64516,-0.20748 1.30275,-0.43466 1.98066,-0.68133l0.94991,-0.38064c0,0 1.1606,-0.46424 1.62484,0.69636c0.46424,1.1606 -0.69635,1.62483 -0.69635,1.62483l-1.02404,0.40893c-0.86653,0.31489 -1.7057,0.60021 -2.53057,0.85545c0.27295,2.54566 0.45898,5.09557 0.68998,7.5627c3.1827,-3.0746 5.68517,-6.76438 7.93191,-10.65255c-0.32442,-0.1498 -0.6623,-0.4618 -0.6623,-1.11168c0,-1.25 1.25,-1.25 1.25,-1.25c0.24431,0.00032 0.48887,0.00279 0.73363,0.00724c2.43104,-4.44378 4.64601,-9.03304 7.24891,-13.17471l0.55964,-1.11929c0.20043,-0.42281 0.63114,-0.7152 1.13014,-0.7152c0.69036,0 1.25,0.55964 1.25,1.25v2.5h-0.27521c0.4737,3.97939 0.21474,8.05158 0.0344,12.12652c0.98342,0.11501 1.96385,0.22701 2.93942,0.32563l1.8496,0.40875c0,0 1.22024,0.27116 0.94907,1.4914zM351.40648,195.50321c0.04549,-0.89294 0.00621,-1.72874 0.01885,-2.5269c-1.66649,2.92423 -3.22496,5.97012 -4.85178,8.97586c1.5031,0.10352 3.00997,0.25882 4.51394,0.42917c0.07128,-2.30752 0.20341,-4.60933 0.31899,-6.87813zM330.61672,202.42977c-0.17933,-1.52104 -0.5958,-2.8073 -0.62611,-4.1578c-1.5072,2.56488 -2.86829,5.30989 -4.27438,8.02509c1.85191,-0.1155 3.55392,-0.38469 5.26792,-0.80358c-0.12384,-1.02142 -0.24705,-2.04263 -0.36743,-3.0637zM314.40659,192.35404c-0.84949,1.6631 -1.70119,3.35697 -2.53287,5.07093c0.97224,-0.18019 1.94533,-0.35438 2.92001,-0.51752c-0.13081,-1.52774 -0.40847,-3.049 -0.38713,-4.55341zM299.22229,196.95331c-0.00041,-1.00207 -0.09739,-2.04142 -0.13288,-3.0646c-0.59746,1.13486 -1.20513,2.28328 -1.8001,3.44194c0.64551,-0.00063 1.2894,-0.01826 1.93246,-0.04942c0.00039,-0.10942 0.00056,-0.21874 0.00052,-0.32792z" fill-opacity="0.46667" fill="#000000" stroke="none" stroke-width="0.5" stroke-linecap="butt"/><path d="M302.31447,230.3123c0,1.25 -1.25,1.25 -1.25,1.25c-0.61336,0 -1.2861,0 -1.98911,0c0.12771,2.99856 0.0808,6.01362 0.0808,9.01451v0.1974c0,0 0,1.25 -1.25,1.25c-1.25,0 -1.25,-1.25 -1.25,-1.25v-0.1974c0,-2.92418 0.12196,-5.97957 0.05248,-9.01451c-1.45947,0 -2.9131,0 -4.13213,0c0,0 -0.88903,0 -1.16757,-0.74975c-0.3639,1.44687 -0.54967,2.9375 -0.54334,4.43462c0,0 0,1.25 -1.25,1.25c-1.25,0 -1.25,-1.25 -1.25,-1.25c0.01641,-4.49977 1.42784,-9.20066 4.43257,-12.64096c0.81849,-0.93714 2.32049,-3.24601 4.18601,-1.84518c1.39137,1.04479 1.33619,3.49292 1.56664,5.02767c0.1632,1.08683 0.28373,2.17854 0.37249,3.27361c0.38473,0 0.76946,0 1.15419,0h0.98697c0,0 1.25,0 1.25,1.25zM292.57651,229.0623c1.34152,0 2.68306,0 4.02458,0c-0.13894,-2.1059 -0.41366,-4.18139 -0.93125,-6.17464c-0.1356,-0.5222 -0.61469,0.88752 -0.94625,1.31314c-0.61637,0.79122 -0.95364,1.1112 -1.46073,2.00145c-0.55654,0.97706 -1.02173,2.00194 -1.3897,3.05896c0.3363,-0.1989 0.70335,-0.1989 0.70335,-0.1989z" fill-opacity="0.46667" fill="#000000" stroke="none" stroke-width="0.5" stroke-linecap="butt"/><path d="M316.13208,230.70709c0,1.25 -1.25,1.25 -1.25,1.25l-1.49054,-0.00315c-0.03489,0.00499 -0.06979,0.00987 -0.1047,0.01468c-0.01648,3.1901 -0.15769,6.37515 -0.11579,9.38069l0.00011,0.80666c0,0 0,1.25 -1.25,1.25c-1.25,0 -1.25,-1.25 -1.25,-1.25l0.00012,-0.7725c-0.041,-3.06638 -0.10965,-6.12948 -0.15428,-9.1953c-1.24241,0.03903 -2.49157,0.0152 -3.73666,-0.00759c-1.16411,2.86846 -2.22068,5.78238 -3.38258,8.49384c0,0 -0.4924,1.14893 -1.64133,0.65653c-1.14893,-0.4924 -0.65654,-1.64133 -0.65654,-1.64133c1.04971,-2.449 2.0181,-5.04402 3.05081,-7.62437c-0.35512,-0.12588 -0.78314,-0.4293 -0.78314,-1.16076c0,-1.25 1.25,-1.25 1.25,-1.25c0.17449,0 0.34918,0.00078 0.52405,0.00216c1.27971,-3.00833 2.71158,-5.9268 4.53319,-8.49328l0.75423,-1.31989c0.2122,-0.38786 0.62406,-0.6509 1.09734,-0.6509c0.69036,0 1.25,0.55964 1.25,1.25v1.77655h-0.18455c0.44452,2.33507 0.62232,4.77581 0.67668,7.241l1.61358,-0.00304c0,0 1.25,0 1.25,1.25zM310.47377,227.15544c-0.00068,-0.71106 -0.13537,-1.51314 -0.21204,-2.2957c-0.9006,1.53757 -1.69746,3.16796 -2.43487,4.83958c0.88763,0.01297 1.77567,0.01668 2.6601,-0.01302c-0.00763,-0.84325 -0.01238,-1.68683 -0.01319,-2.53086z" fill-opacity="0.46667" fill="#000000" stroke="none" stroke-width="0.5" stroke-linecap="butt"/><path d="M331.72623,231.49667c0,0.97135 -0.75481,1.18788 -1.09134,1.23615c-0.03359,2.0406 -0.09149,4.05115 -0.09617,5.97883l0.18797,1.29359c0,0 0.17678,1.23744 -1.06066,1.41422c-1.23744,0.17677 -1.41422,-1.06066 -1.41422,-1.06066l-0.20681,-1.46992c-0.00426,-1.99234 -0.01333,-3.99475 -0.03533,-5.99883c-1.62752,0.16456 -3.23388,0.29523 -4.854,0.3722c-1.56982,3.70206 -3.24711,7.3548 -5.20696,10.88254c0,0 -0.60706,1.0927 -1.69975,0.48564c-1.09269,-0.60706 -0.48564,-1.69975 -0.48564,-1.69975c1.73122,-3.11621 3.23215,-6.33243 4.6347,-9.59301c-0.1277,0.00079 -0.25559,0.00119 -0.3837,0.00119c0,0 -1.25,0 -1.25,-1.25c0,-1.25 1.25,-1.25 1.25,-1.25c0.48493,0 0.96641,-0.00593 1.44545,-0.01724c1.73183,-4.17397 3.35909,-8.39666 5.15371,-12.55334l0.09245,-0.07604l-0.03329,-0.02219l0.77883,-1.16824c0.22257,-0.34463 0.61005,-0.57276 1.05082,-0.57276c0.65308,0 1.18918,0.50083 1.24517,1.13938l0.19602,1.96019l-0.22873,0.02287c0.77546,3.4033 0.94657,7.07184 0.94382,10.71259c0.3469,0.05497 1.06767,0.28339 1.06767,1.23258zM327.81427,224.36607c-0.02474,-0.65509 -0.13789,-1.31679 -0.22635,-1.96537c-1.13175,2.76311 -2.22904,5.53955 -3.36326,8.29845c1.2471,-0.0794 2.49095,-0.18886 3.75011,-0.31846c-0.03433,-2.00951 -0.08508,-4.0172 -0.16051,-6.01462z" fill-opacity="0.46667" fill="#000000" stroke="none" stroke-width="0.5" stroke-linecap="butt"/><path d="M351.07089,231.29927c0,1.25 -1.25,1.25 -1.25,1.25l0.1775,-0.05754c-0.23179,0.07501 -0.46635,0.14653 -0.70335,0.21483c-0.06113,3.12949 -0.1967,6.22022 -0.20556,9.1156l0.37249,1.64178c0,0 0.27116,1.22023 -0.94907,1.4914c-1.22024,0.27116 -1.4914,-0.94907 -1.4914,-0.94907l-0.41709,-1.91132c-0.00824,-2.90924 -0.0608,-5.82062 -0.11098,-8.73333c-1.78078,0.3363 -3.62077,0.55864 -5.40132,0.75776c-1.76611,3.44701 -3.68887,6.77231 -5.85445,9.75876c0,0 -0.73521,1.01092 -1.74613,0.2757c-1.01092,-0.73522 -0.27571,-1.74613 -0.27571,-1.74613c1.87264,-2.56672 3.55866,-5.40529 5.1161,-8.36069c-0.20155,-0.16392 -0.36715,-0.42349 -0.41267,-0.83317c-0.13804,-1.24236 1.10431,-1.3804 1.10431,-1.3804c0.15453,-0.01698 0.31032,-0.03381 0.46724,-0.05059c2.1983,-4.41494 4.15071,-8.99739 6.04135,-13.25554l0.02052,-0.02148l-0.00812,-0.00405l0.77747,-1.55494c0.20043,-0.42281 0.63114,-0.7152 1.13015,-0.7152c0.66726,0 1.2124,0.52282 1.24813,1.18116l0.15537,2.486l-0.266,0.01663c0.58558,3.249 0.73976,6.71549 0.73475,10.18756l0.49647,-0.05373c0,0 1.25,0 1.25,1.25zM346.39689,224.97765c-0.00064,-0.7214 -0.04597,-1.40771 -0.07002,-2.07073c-1.24671,2.81926 -2.53625,5.71192 -3.91527,8.56043c1.3519,-0.15759 2.72364,-0.34678 4.04029,-0.61563c-0.0302,-1.95761 -0.05327,-3.91571 -0.055,-5.87407z" fill-opacity="0.46667" fill="#000000" stroke="none" stroke-width="0.5" stroke-linecap="butt"/><path d="M285.47816,114.61832c-0.33704,0.07293 -0.67325,0.14685 -1.00846,0.2211c-8.83508,2.953 12.5401,17.77559 18.63988,-0.66228c3.74249,-10.77353 -4.35268,-16.90359 -12.16418,-7.69887c0,0 -0.81349,0.94907 -1.76256,0.13558c-0.94907,-0.81349 -0.13558,-1.76256 -0.13558,-1.76256c9.63651,-11.14623 20.70349,-3.1136 16.43403,10.11642c-7.95841,23.71687 -36.18943,2.28786 -21.67892,-2.53757c3.15258,-0.70267 6.68418,-1.65896 9.94454,-1.45183c0.71534,0.04545 1.62338,-0.26365 2.13736,0.23595c0.77972,0.7579 1.00605,1.95957 1.21851,3.02598c0.99732,5.00578 -6.52929,9.96523 -10.15914,5.60655c-1.17746,-1.41388 -1.41566,-3.39997 -1.46548,-5.22846zM287.95896,114.11166c-0.00562,0.7627 0.00764,1.47164 0.20906,2.27921c1.06687,4.27761 5.44351,2.39009 6.23478,-0.92128c0.12032,-0.50353 0.45323,-1.74652 0.01969,-2.22723c-0.44481,-0.4932 -1.31714,0.17596 -1.97896,0.23169c-1.49768,0.12613 -2.99617,0.35702 -4.48458,0.63761z" fill="#000000" stroke="none" stroke-width="0.5" stroke-linecap="butt"/><path d="M337.33674,114.04993c1.22573,-0.24514 1.47087,0.98058 1.47087,0.98058l0.19454,1.02192c0.53914,1.67713 0.67525,2.30575 2.4637,2.66555c15.08637,-6.4767 -10.26662,-18.35426 -7.80572,-3.86789c2.63538,18.52415 18.61175,20.58047 18.61175,5.11379c0,-5.58321 0.16162,-14.94308 -3.45537,-19.58703c-1.68442,-2.16267 -9.21184,-3.12712 -8.35631,0.89174c0,0 0.17678,1.23744 -1.06066,1.41421c-1.23744,0.17678 -1.41422,-1.06066 -1.41422,-1.06066c-0.68661,-6.65658 9.41804,-7.21533 12.74074,-2.85885c4.01599,5.26548 4.04581,14.89034 4.04581,21.20059c0,18.26099 -20.44908,17.11507 -23.58235,-4.73149c-3.46646,-21.15826 33.57765,-3.06532 10.47839,5.97741c-3.18544,-0.73835 -3.98229,-1.28699 -5.03748,-4.3668l-0.27428,-1.3222c0,0 -0.24514,-1.22572 0.98058,-1.47087z" fill="#000000" stroke="none" stroke-width="0.5" stroke-linecap="butt"/></g></g></svg>