<svg version="1.1" xmlns="http://www.w3.org/2000/svg" xmlns:xlink="http://www.w3.org/1999/xlink" width="167.72441" height="307.17223" viewBox="0,0,167.72441,307.17223"><defs><linearGradient x1="318.81295" y1="164.53268" x2="317.27447" y2="343.35843" gradientUnits="userSpaceOnUse" id="color-1"><stop offset="0" stop-color="#676767"/><stop offset="1" stop-color="#313131"/></linearGradient><linearGradient x1="350.23887" y1="165.86424" x2="348.68344" y2="346.66199" gradientUnits="userSpaceOnUse" id="color-2"><stop offset="0" stop-color="#2e2e2e"/><stop offset="1" stop-color="#2b2b2b"/></linearGradient><linearGradient x1="288.44591" y1="164.08393" x2="286.89047" y2="344.88168" gradientUnits="userSpaceOnUse" id="color-3"><stop offset="0" stop-color="#2e2e2e"/><stop offset="1" stop-color="#2b2b2b"/></linearGradient><linearGradient x1="320.17746" y1="164.30164" x2="319.94147" y2="191.73311" gradientUnits="userSpaceOnUse" id="color-4"><stop offset="0" stop-color="#575757"/><stop offset="1" stop-color="#9c9c9c"/></linearGradient><linearGradient x1="320.78187" y1="71.90903" x2="319.86623" y2="178.3407" gradientUnits="userSpaceOnUse" id="color-5"><stop offset="0" stop-color="#1a1a1a"/><stop offset="1" stop-color="#9c9c9c"/></linearGradient><radialGradient cx="354.72977" cy="95.17829" r="24.08043" gradientUnits="userSpaceOnUse" id="color-6"><stop offset="0" stop-color="#000000" stop-opacity="0.92549"/><stop offset="1" stop-color="#000000" stop-opacity="0"/></radialGradient><radialGradient cx="284.48666" cy="98.37113" r="25.35587" gradientUnits="userSpaceOnUse" id="color-7"><stop offset="0" stop-color="#000000" stop-opacity="0.92549"/><stop offset="1" stop-color="#000000" stop-opacity="0"/></radialGradient><linearGradient x1="276.12921" y1="37.98056" x2="278.93495" y2="123.13315" gradientUnits="userSpaceOnUse" id="color-8"><stop offset="0" stop-color="#9c9c9c"/><stop offset="1" stop-color="#2c2c2c"/></linearGradient><linearGradient x1="362.76347" y1="39.89754" x2="362.00419" y2="128.1535" gradientUnits="userSpaceOnUse" id="color-9"><stop offset="0" stop-color="#9c9c9c"/><stop offset="1" stop-color="#2c2c2c"/></linearGradient><linearGradient x1="284.26993" y1="181.6678" x2="284.09109" y2="202.45571" gradientUnits="userSpaceOnUse" id="color-10"><stop offset="0" stop-color="#878787"/><stop offset="1" stop-color="#848484"/></linearGradient><linearGradient x1="126.09191" y1="85.55621" x2="126.08116" y2="86.80616" gradientUnits="userSpaceOnUse" id="color-11"><stop offset="0" stop-color="#878787"/><stop offset="1" stop-color="#848484"/></linearGradient></defs><g transform="translate(-236.30973,-39.29262)"><g stroke-miterlimit="10"><path d="M270.26093,339.31521l-0.86216,-147.28865c0,0 6.8456,-25.64027 16.65695,-25.9611c9.74347,-0.31861 32.83488,-0.6766 53.0076,-1.33627c21.87969,-0.71548 28.46263,26.22051 28.46263,26.22051l-1.07749,152.8318z" fill="url(#color-1)" stroke="#000000" stroke-width="0" stroke-linecap="butt"/><path d="M325.76786,346.46485l10.60572,-98.62135c0,0 -5.77361,-81.05751 4.41116,-80.06618c9.39019,0.91399 14.28154,-2.23875 18.81702,-1.7973c4.56709,0.44453 13.29557,29.97026 13.29557,29.97026l-2.25919,147.2618z" fill="url(#color-2)" stroke="#000000" stroke-width="0" stroke-linecap="butt"/><path d="M264.9984,341.05457l0.27478,-147.27888c0,0 9.23518,-29.37119 13.80923,-29.73708c4.5424,-0.36335 9.37878,2.87308 18.78331,2.12078c10.20032,-0.81596 3.03298,80.13022 3.03298,80.13022l8.90737,98.78923z" fill="url(#color-3)" stroke="#000000" stroke-width="0" stroke-linecap="butt"/><path d="M333.50704,178.13306c-0.06517,7.575 -6.13867,13.66393 -13.56557,13.60004c-7.42689,-0.0639 -13.39474,-6.25644 -13.32957,-13.83142c0.06517,-7.575 6.13867,-13.66393 13.56557,-13.60004c7.42689,0.0639 13.39474,6.25644 13.32957,13.83142z" fill="url(#color-4)" stroke="#000000" stroke-width="0" stroke-linecap="butt"/><path d="M374.95331,127.81959c-2.18605,28.47041 -28.38278,52.68637 -58.54663,50.3703c-30.16385,-2.31607 -52.87239,-30.28715 -50.68634,-58.75754c2.18605,-28.4704 28.41084,-49.67268 58.57469,-47.35659c30.16385,2.31607 52.84436,27.27344 50.65831,55.74383z" fill="url(#color-5)" stroke="#000000" stroke-width="0" stroke-linecap="butt"/><path d="M335.25175,124.95366c-0.0233,2.70874 -6.69438,4.84738 -14.90026,4.77678c-8.2059,-0.0706 -14.83918,-2.3237 -14.81588,-5.03244c0.0233,-2.70874 6.69438,-4.84738 14.90026,-4.77678c8.2059,0.0706 14.83918,2.3237 14.81588,5.03244z" fill-opacity="0.18431" fill="#000000" stroke="none" stroke-width="0" stroke-linecap="butt"/><path d="M275.18845,140.26756c0.5192,-0.086 2.96802,0.07474 1.68964,1.41062c-0.28158,0.29425 -1.70005,0.14766 -1.95843,-0.08608c-0.39702,-0.35917 0.76093,-1.08938 0.46686,-1.53675c-0.18309,-0.27855 -0.59483,0.69691 -0.86502,0.50171c-0.27019,-0.1952 0.13637,-0.65257 0.20454,-0.97885z" fill="none" stroke="#000000" stroke-width="2.5" stroke-linecap="round"/><path d="M286.04511,141.69948c-2.64635,-0.88682 1.21889,-1.89211 1.43904,-0.78195c0.39271,1.98037 -4.38624,-0.8092 -0.1649,-0.77288" fill="none" stroke="#000000" stroke-width="2.5" stroke-linecap="round"/><path d="M280.7198,146.02926c4.51277,-0.63804 -0.29652,3.30245 -0.96454,1.87278c-0.28973,-0.62007 1.17141,-1.24475 0.87061,-1.85951z" fill="none" stroke="#000000" stroke-width="2.5" stroke-linecap="round"/><path d="M352.47466,142.72049c0.58103,-0.20823 1.91999,-0.5327 1.84987,0.08051c-0.00354,0.03096 -3.7903,0.98236 -1.96395,-1.40961" fill="none" stroke="#000000" stroke-width="2.5" stroke-linecap="round"/><path d="M361.51841,143.09531c0.97811,2.12391 -2.11967,1.01039 -0.01005,-0.02183z" fill="none" stroke="#000000" stroke-width="2.5" stroke-linecap="round"/><path d="M357.41546,148.82817c-0.31826,0.13203 -3.02326,1.10297 -2.21128,-0.60559c0.30501,-0.64182 2.65854,-0.7909 2.33953,0.56089c-0.14289,0.60551 -2.50824,1.33333 -1.11954,-0.48544z" fill="none" stroke="#000000" stroke-width="2.5" stroke-linecap="round"/><path d="M334.1238,80.05499c2.78036,-14.24956 14.2599,-19.03018 25.64025,-10.67779c11.38035,8.35238 18.35203,26.67486 15.57167,40.92443c-2.78036,14.24956 -14.2599,19.03018 -25.64026,10.67779c-11.38035,-8.35238 -18.35203,-26.67486 -15.57166,-40.92441z" fill="url(#color-6)" stroke="#000000" stroke-width="0" stroke-linecap="butt"/><path d="M306.41507,83.4294c2.70598,14.53892 -4.91808,33.01473 -17.02882,41.26684c-12.11073,8.25211 -24.12205,3.15562 -26.82803,-11.38332c-2.70597,-14.53894 4.91809,-33.01474 17.02883,-41.26686c12.11073,-8.25211 24.12204,-3.15561 26.82802,11.38333z" fill="url(#color-7)" stroke="#000000" stroke-width="0" stroke-linecap="butt"/><path d="M269.30402,123.45049l-32.99429,-84.15787l69.46142,38.51194c0,0 -4.68736,18.69758 -10.06137,25.42422c-6.54817,8.19635 -26.40577,20.22172 -26.40577,20.22172z" fill="url(#color-8)" stroke="#000000" stroke-width="0" stroke-linecap="butt"/><path d="M335.69725,77.56538l68.33689,-37.31278l-32.04803,87.98681c0,0 -19.08267,-16.86435 -25.38524,-25.66532c-5.74128,-8.01717 -10.90362,-25.0087 -10.90362,-25.0087z" fill="url(#color-9)" stroke="#000000" stroke-width="0" stroke-linecap="butt"/><path d="M298.36729,119.81849c-0.00138,2.23488 -1.991,4.04534 -4.44388,4.04382c-2.4529,-0.00152 -4.44025,-1.81448 -4.43887,-4.04933c0.00138,-2.23488 1.991,-4.04534 4.44388,-4.04382c2.4529,0.00152 4.44024,1.81448 4.43885,4.04934z" fill="#ffffff" stroke="#000000" stroke-width="2.5" stroke-linecap="butt"/><path d="M351.87358,119.92293c-0.00138,2.23488 -1.99099,4.04534 -4.44388,4.04382c-2.4529,-0.00152 -4.44024,-1.81448 -4.43885,-4.04933c0.00138,-2.23488 1.99099,-4.04533 4.44388,-4.04381c2.4529,0.00152 4.44025,1.81447 4.43886,4.04932z" fill="#ffffff" stroke="#000000" stroke-width="2.5" stroke-linecap="butt"/><path d="M299.43124,122.11369l-6.45964,6.53084" fill="none" stroke="#000000" stroke-width="2.5" stroke-linecap="round"/><path d="M305.43563,217.53002l29.41275,1.9842" fill="none" stroke-opacity="0.45098" stroke="#000000" stroke-width="2.5" stroke-linecap="round"/><path d="M333.31153,230.46506l-29.42764,-0.25317" fill="none" stroke-opacity="0.45098" stroke="#000000" stroke-width="2.5" stroke-linecap="round"/><path d="M302.34952,240.87421l34.33971,-0.57015" fill="none" stroke-opacity="0.45098" stroke="#000000" stroke-width="2.5" stroke-linecap="round"/><path d="M335.42843,252.69991l-32.88972,-0.28296" fill="none" stroke-opacity="0.45098" stroke="#000000" stroke-width="2.5" stroke-linecap="round"/><path d="M305.31707,264.84754l28.56462,-0.04279" fill="none" stroke-opacity="0.45098" stroke="#000000" stroke-width="2.5" stroke-linecap="round"/><path d="M306.35196,278.70578l25.97302,-0.64213" fill="none" stroke-opacity="0.45098" stroke="#000000" stroke-width="2.5" stroke-linecap="round"/><path d="M308.84178,291.13389l19.9119,-0.40575" fill="none" stroke-opacity="0.45098" stroke="#000000" stroke-width="2.5" stroke-linecap="round"/><path d="M327.80131,300.81841l-18.17838,0.13213" fill="none" stroke-opacity="0.45098" stroke="#000000" stroke-width="2.5" stroke-linecap="round"/><path d="M310.39164,312.20973l18.18086,-0.42065" fill="none" stroke-opacity="0.45098" stroke="#000000" stroke-width="2.5" stroke-linecap="round"/><path d="M335.51972,208.55595l-29.70127,-1.98668" fill="none" stroke-opacity="0.45098" stroke="#000000" stroke-width="2.5" stroke-linecap="round"/><path d="M306.47984,196.76501l26.53514,1.09387" fill="none" stroke-opacity="0.45098" stroke="#000000" stroke-width="2.5" stroke-linecap="round"/><path d="M340.21837,226.38655l-0.38838,-21.93145l29.7112,0.83267l-1.89237,18.73802" fill="none" stroke-opacity="0.45098" stroke="#000000" stroke-width="2.5" stroke-linecap="round"/><path d="M353.4847,227.07773l-1.04612,54.52274l-1.68271,61.44193" fill="none" stroke-opacity="0.45098" stroke="#000000" stroke-width="2.5" stroke-linecap="round"/><path d="M295.43171,192.15855c-0.04939,5.74043 -5.12675,10.35062 -11.34061,10.29716c-6.21386,-0.05346 -11.21116,-4.75034 -11.16177,-10.49075c0.04939,-5.74043 5.12675,-10.35062 11.34061,-10.29716c6.21386,0.05346 11.21116,4.75034 11.16177,10.49075z" fill="url(#color-10)" stroke="#000000" stroke-width="0" stroke-linecap="butt"/><path d="M250.55325,177.09124z" fill="url(#color-11)" stroke="#000000" stroke-width="2.5" stroke-linecap="butt"/><path d="M300.08162,113.32957l-13.89355,0.5749" fill="none" stroke="#000000" stroke-width="2.5" stroke-linecap="round"/><path d="M342.72247,113.00198l11.51236,1.76567" fill="none" stroke="#000000" stroke-width="2.5" stroke-linecap="round"/><path d="M341.93371,123.96719l3.8706,2.11659" fill="none" stroke="#000000" stroke-width="2.5" stroke-linecap="round"/><path d="M354.1476,124.90559l-10.278,0.05047" fill="none" stroke="#000000" stroke-width="2.5" stroke-linecap="round"/><path d="M287.07897,123.35639l9.16341,0.35661" fill="none" stroke="#000000" stroke-width="2.5" stroke-linecap="round"/><path d="M298.91932,171.16786l6.47188,-1.6109l16.02355,2.01276l13.76802,-2.17311l8.95006,0.91029" fill="none" stroke="#000000" stroke-width="2.5" stroke-linecap="round"/><path d="M277.96632,125.03372l-0.23422,4.05849l-2.34617,0.11121l-1.51411,-2.52938" fill="none" stroke="#000000" stroke-width="2.5" stroke-linecap="round"/><path d="M278.60636,132.39065l-0.82906,2.48438l-1.87453,-0.036l-1.23469,-0.80506" fill="none" stroke="#000000" stroke-width="2.5" stroke-linecap="round"/></g></g></svg>