<svg version="1.1" xmlns="http://www.w3.org/2000/svg" xmlns:xlink="http://www.w3.org/1999/xlink" width="186.59692" height="328.69518" viewBox="0,0,186.59692,328.69518"><defs><linearGradient x1="329.09538" y1="64.25074" x2="390.90434" y2="66.58071" gradientUnits="userSpaceOnUse" id="color-1"><stop offset="0" stop-color="#000000"/><stop offset="1" stop-color="#d31b1b"/></linearGradient><linearGradient x1="224.63358" y1="75.6653" x2="290.09983" y2="78.13315" gradientUnits="userSpaceOnUse" id="color-2"><stop offset="0" stop-color="#d31b1b"/><stop offset="1" stop-color="#16031b"/></linearGradient><linearGradient x1="313.03125" y1="64.9684" x2="311.11817" y2="117.02801" gradientUnits="userSpaceOnUse" id="color-3"><stop offset="0" stop-color="#d31b1b"/><stop offset="1" stop-color="#670000"/></linearGradient><radialGradient cx="321.26303" cy="233.32036" r="33.17006" gradientUnits="userSpaceOnUse" id="color-4"><stop offset="0" stop-color="#ee2828"/><stop offset="1" stop-color="#500000"/></radialGradient><radialGradient cx="322.69245" cy="220.18687" r="28.48171" gradientUnits="userSpaceOnUse" id="color-5"><stop offset="0" stop-color="#ee2828"/><stop offset="1" stop-color="#500000"/></radialGradient></defs><g transform="translate(-224.17968,-20.64425)"><g stroke-miterlimit="10"><path d="M283.97015,348.05163l-12.72072,-148.62073c0,0 4.18761,-26.40876 13.14042,-27.48522c8.89087,-1.06901 29.99386,-3.20161 48.4014,-5.41488c19.96513,-2.40054 28.15312,14.4248 28.15312,14.4248l11.41311,164.22668z" fill="#000000" stroke="#000000" stroke-width="2.5" stroke-linecap="butt"/><path d="M333.35196,178.70453c0.27873,6.47946 -6.76934,12.05307 -15.7423,12.44903c-8.97296,0.39596 -16.47291,-4.53568 -16.75164,-11.01514c-0.27873,-6.47946 6.76932,-12.05307 15.74228,-12.44903c8.97296,-0.39596 16.47293,4.53569 16.75166,11.01514z" fill="#ee2828" stroke="#000000" stroke-width="2.5" stroke-linecap="butt"/><path d="M364.06322,95.99625c0.27139,8.43308 -29.30034,18.23361 -66.05029,21.89015c-36.74995,3.65653 -66.76168,-0.21562 -67.03307,-8.64868c-0.27138,-8.43306 29.30032,-18.23361 66.05029,-21.89013c36.74994,-3.65653 66.76169,0.21562 67.03308,8.64869z" fill="#580b0b" stroke="#000000" stroke-width="2.5" stroke-linecap="butt"/><path d="M328.78168,72.78756l36.17561,-6.12573l23.03056,-41.76039l3.02783,38.64945l-12.99832,40.13113l-15.82302,3.38578l-2.47111,-13.012l-12.38679,-14.49455z" fill="url(#color-1)" stroke="#000000" stroke-width="2.5" stroke-linecap="round"/><path d="M272.39997,86.77041l-10.73631,15.78738l-1.04203,13.20842l-16.09482,-1.60123l-17.28061,-38.43821l-1.19082,-38.75216l27.42896,38.93917l36.62152,2.05559z" fill="url(#color-2)" stroke="#000000" stroke-width="2.5" stroke-linecap="round"/><path d="M366.19845,123.53285c0.1476,28.92011 -23.98286,55.5327 -54.23509,55.69108c-30.25223,0.15838 -55.17036,-26.19744 -55.31795,-55.11754c-0.14759,-28.9201 24.25707,-52.49288 54.5093,-52.65123c30.25223,-0.15838 54.89618,23.15761 55.04377,52.07771z" fill="#ee2828" stroke="#000000" stroke-width="2.5" stroke-linecap="butt"/><path d="M323.28987,126.75411c0.014,2.74356 -6.62698,5.00246 -14.83306,5.04543c-8.20608,0.04296 -14.86978,-2.14629 -14.88377,-4.88985c-0.014,-2.74356 6.627,-5.00247 14.83308,-5.04543c8.20608,-0.04296 14.86978,2.14629 14.88378,4.88985z" fill-opacity="0.23137" fill="#000000" stroke="none" stroke-width="0" stroke-linecap="butt"/><path d="M367.05364,90.32336c-0.10699,4.09582 -0.53753,14.53835 -0.53753,14.53835l-54.54929,5.35097l-54.34484,4.79869c0,0 -0.95579,-10.97256 -0.85152,-14.96415c0.42435,-16.24621 25.4561,-31.59313 55.90995,-34.2783c30.45385,-2.68517 54.79759,8.30823 54.37324,24.55444zM326.5066,82.1149c-15.16822,1.33741 -27.63584,8.98131 -27.84721,17.07308c-0.05193,1.98809 0.42413,7.45322 0.42413,7.45322l27.06766,-2.3901l27.16949,-2.66517c0,0 0.21445,-5.20113 0.26775,-7.24113c0.21136,-8.09179 -11.91358,-13.5673 -27.08181,-12.22989z" fill="url(#color-3)" stroke="#000000" stroke-width="2.5" stroke-linecap="butt"/><path d="M296.6667,109.33973l61.24037,-5.78153" fill="none" stroke="#000000" stroke-width="2.5" stroke-linecap="round"/><path d="M320.30596,67.18349c0,0 3.59593,3.46132 4.53467,5.8693c0.98998,2.53938 1.25969,8.99377 1.25969,8.99377" fill="none" stroke-opacity="0.48235" stroke="#000000" stroke-width="2.5" stroke-linecap="round"/><path d="M273.9329,113.17069c0,0 -1.84543,-23.04613 5.37125,-30.55046c7.71706,-8.02467 39.53073,-16.1413 39.53073,-16.1413c0,0 21.09461,3.80063 28.94456,10.65201c6.24257,5.44847 14.44746,27.22025 14.44746,27.22025" fill="none" stroke-opacity="0.48235" stroke="#000000" stroke-width="2.5" stroke-linecap="round"/><path d="M323.15702,64.01617c0.01018,1.99752 -2.00108,3.62739 -4.4923,3.64043c-2.49122,0.01305 -4.51903,-1.59569 -4.52921,-3.5932c-0.01018,-1.99753 2.00108,-3.62739 4.4923,-3.64043c2.49122,-0.01304 4.51902,1.59569 4.52922,3.5932z" fill="#d31b1b" stroke="#000000" stroke-width="2.5" stroke-linecap="butt"/><path d="M289.13198,170.16053l51.91536,-3.95882" fill="none" stroke="#000000" stroke-width="2.5" stroke-linecap="round"/><path d="M347.17378,257.48603l-52.26653,-15.04159l-0.06898,25.66858l31.78512,-41.08913l21.0644,-28.49621" fill="none" stroke="url(#color-4)" stroke-width="2.5" stroke-linecap="round"/><path d="M293.83538,212.07334l57.71412,16.22706" fill="none" stroke="url(#color-5)" stroke-width="2.5" stroke-linecap="round"/><g><path d="M253.69848,215.23646c11.54305,1.85929 28.66647,2.4207 23.76959,19.79074c-1.14195,4.05071 -4.37457,5.74309 -6.23394,8.89587c-2.17227,3.68336 -0.239,9.11466 -1.87525,12.97985c-0.90434,2.13628 -3.52273,3.28255 -4.08707,5.70003c-0.51406,2.20209 0.47165,4.84236 -0.54064,7.0272c-2.38385,5.14513 -13.41489,6.8184 -18.13704,5.41532c-3.09062,-0.9183 -15.33017,-3.40038 -16.84802,-5.64453c-0.99624,-1.47295 -0.90204,-4.12685 -1.442,-5.84543c-0.80244,-2.55399 -2.17492,-4.96808 -2.87443,-7.53061c-2.03773,-7.46478 0.08751,-18.74237 1.99784,-26.04557c0.75687,-2.89352 2.94163,-5.38415 3.89252,-8.20815c0.99099,-2.94308 1.40722,-6.93673 3.81195,-9.22871c2.36257,-2.2518 15.32992,2.00923 18.48771,2.6773z" fill="#ee2828" stroke="#000000" stroke-width="2.5" stroke-linecap="round"/><path d="M260.61532,234.104c6.79553,1.09458 12.16237,2.88635 11.98719,4.00205c-0.17519,1.11569 -5.82607,1.13281 -12.62159,0.03823c-6.79553,-1.09458 -12.16238,-2.88637 -11.98719,-4.00205c0.17519,-1.11569 5.82607,-1.13281 12.6216,-0.03822z" fill-opacity="0.23137" fill="#000000" stroke="none" stroke-width="0" stroke-linecap="butt"/><path d="M255.53867,253.3536c5.42282,2.59113 9.34752,5.70357 8.76609,6.95184c-0.58143,1.24827 -5.44883,0.15965 -10.87165,-2.43148c-5.42282,-2.59113 -9.34752,-5.70358 -8.76609,-6.95184c0.58143,-1.24827 5.44883,-0.15965 10.87165,2.43148z" fill-opacity="0.23137" fill="#000000" stroke="none" stroke-width="0" stroke-linecap="butt"/><path d="M238.6298,228.6659c0.91516,0.14741 1.53905,1.0183 1.3935,1.94519c-0.14555,0.92689 -1.0054,1.55879 -1.92055,1.41138c-0.91516,-0.14741 -1.53905,-1.0183 -1.39351,-1.94519c0.14555,-0.92689 1.0054,-1.55879 1.92055,-1.41138z" fill-opacity="0.23137" fill="#000000" stroke="none" stroke-width="0" stroke-linecap="butt"/><path d="M234.56373,249.46948c0.80748,0.13006 1.3441,0.9869 1.19857,1.91379c-0.14555,0.92689 -0.91812,1.57285 -1.72561,1.44279c-0.80748,-0.13006 -1.34411,-0.9869 -1.19856,-1.91379c0.14555,-0.92689 0.91812,-1.57284 1.72561,-1.44277z" fill-opacity="0.23137" fill="#000000" stroke="none" stroke-width="0" stroke-linecap="butt"/></g><g><path d="M375.81737,237.97947c3.03473,-1.10432 15.28736,-7.14211 17.93753,-5.24328c2.69745,1.93271 3.66065,5.82944 5.04804,8.60516c1.33126,2.66341 3.83831,4.82371 4.98701,7.58315c2.89933,6.96483 6.55986,17.83553 5.57202,25.51387c-0.33912,2.63584 -1.36506,5.21902 -1.80727,7.86082c-0.29757,1.77768 0.16189,4.39274 -0.62137,5.99112c-1.19337,2.43526 -12.97079,6.60925 -15.90447,7.95196c-4.4824,2.05153 -15.63645,1.94088 -18.70691,-2.82034c-1.30384,-2.02182 -0.69208,-4.77477 -1.50497,-6.88353c-0.89238,-2.315 -3.64332,-3.08312 -4.83358,-5.07198c-2.15356,-3.59846 -0.98861,-9.24833 -3.64786,-12.59157c-2.27619,-2.86166 -5.71071,-4.08448 -7.40043,-7.93598c-7.24569,-16.51573 9.63286,-19.47228 20.80651,-22.93185z" fill="#ee2828" stroke="#000000" stroke-width="2.5" stroke-linecap="round"/><path d="M383.9992,255.93038c0.32741,1.08035 -4.73974,3.60722 -11.31781,5.64391c-6.57806,2.0367 -12.17606,2.81194 -12.50347,1.73159c-0.32741,-1.08035 4.73973,-3.60722 11.3178,-5.64391c6.57806,-2.0367 12.17607,-2.81196 12.50348,-1.73159z" fill-opacity="0.23137" fill="#000000" stroke="none" stroke-width="0" stroke-linecap="butt"/><path d="M389.60863,272.0818c0.74798,1.1547 -2.7089,4.78728 -7.72117,8.11362c-5.01226,3.32633 -9.68189,5.08679 -10.42987,3.9321c-0.74798,-1.1547 2.7089,-4.78728 7.72118,-8.11363c5.01227,-3.32633 9.68189,-5.0868 10.42986,-3.93211z" fill-opacity="0.23137" fill="#000000" stroke="none" stroke-width="0" stroke-linecap="butt"/><path d="M394.61247,250.32271c0.27201,0.89753 -0.22563,1.84748 -1.1115,2.12175c-0.88586,0.27428 -1.82451,-0.23096 -2.0965,-1.1285c-0.27201,-0.89753 0.22562,-1.84747 1.11148,-2.12175c0.88586,-0.27428 1.82451,0.23096 2.09652,1.12849z" fill-opacity="0.23137" fill="#000000" stroke="none" stroke-width="0" stroke-linecap="butt"/><path d="M401.32052,270.41371c0.27201,0.89753 -0.14113,1.82132 -0.92279,2.06333c-0.78164,0.24201 -1.63581,-0.28939 -1.90781,-1.18693c-0.27201,-0.89753 0.14113,-1.82131 0.92279,-2.06332c0.78164,-0.24201 1.63581,0.28939 1.90781,1.18692z" fill-opacity="0.23137" fill="#000000" stroke="none" stroke-width="0" stroke-linecap="butt"/></g><path d="M292.55441,127.25066l-1.44259,4.32776l-9.52106,6.05886l-9.52106,-6.92441" fill="none" stroke="#000000" stroke-width="2.5" stroke-linecap="round"/><path d="M349.68077,124.94254l-5.48182,6.63589l-10.38661,0.57703l-4.61627,-7.21293" fill="none" stroke="#000000" stroke-width="2.5" stroke-linecap="round"/></g></g></svg>