<svg version="1.1" xmlns="http://www.w3.org/2000/svg" xmlns:xlink="http://www.w3.org/1999/xlink" width="176.08302" height="308.49176" viewBox="0,0,176.08302,308.49176"><defs><linearGradient x1="383.25638" y1="113.38746" x2="342.16013" y2="116.84295" gradientUnits="userSpaceOnUse" id="color-1"><stop offset="0" stop-color="#ff8600"/><stop offset="1" stop-color="#562e0d"/></linearGradient><linearGradient x1="236.13091" y1="124.31302" x2="277.22715" y2="120.85753" gradientUnits="userSpaceOnUse" id="color-2"><stop offset="0" stop-color="#ff8600"/><stop offset="1" stop-color="#562e0d"/></linearGradient><linearGradient x1="310.99296" y1="160.37465" x2="325.97681" y2="338.5782" gradientUnits="userSpaceOnUse" id="color-3"><stop offset="0" stop-color="#141414"/><stop offset="1" stop-color="#020202"/></linearGradient><linearGradient x1="312.08601" y1="152.05958" x2="314.84176" y2="184.83382" gradientUnits="userSpaceOnUse" id="color-4"><stop offset="0" stop-color="#c46704"/><stop offset="1" stop-color="#ffd300"/></linearGradient><linearGradient x1="304.70559" y1="66.55709" x2="313.62353" y2="172.61843" gradientUnits="userSpaceOnUse" id="color-5"><stop offset="0" stop-color="#9c6400"/><stop offset="1" stop-color="#ffd300"/></linearGradient><linearGradient x1="321.87895" y1="273.45019" x2="323.99363" y2="298.60018" gradientUnits="userSpaceOnUse" id="color-6"><stop offset="0" stop-color="#0cb700"/><stop offset="1" stop-color="#012f00"/></linearGradient><linearGradient x1="255.68712" y1="293.18651" x2="271.69116" y2="292.18665" gradientUnits="userSpaceOnUse" id="color-7"><stop offset="0" stop-color="#ffffff"/><stop offset="1" stop-color="#929292"/></linearGradient><linearGradient x1="391.77596" y1="280.97071" x2="375.82964" y2="282.65734" gradientUnits="userSpaceOnUse" id="color-8"><stop offset="0" stop-color="#ffffff"/><stop offset="1" stop-color="#929292"/></linearGradient><linearGradient x1="294.78129" y1="298.80575" x2="280.18198" y2="289.86953" gradientUnits="userSpaceOnUse" id="color-9"><stop offset="0" stop-color="#ffffff"/><stop offset="1" stop-color="#929292"/></linearGradient><linearGradient x1="329.42069" y1="281.80138" x2="316.3543" y2="291.09652" gradientUnits="userSpaceOnUse" id="color-10"><stop offset="0" stop-color="#ffffff"/><stop offset="1" stop-color="#929292"/></linearGradient><linearGradient x1="368.53116" y1="290.91786" x2="354.3093" y2="286.47093" gradientUnits="userSpaceOnUse" id="color-11"><stop offset="0" stop-color="#ffffff"/><stop offset="1" stop-color="#929292"/></linearGradient><linearGradient x1="309.3681" y1="286.71539" x2="296.02077" y2="292.66923" gradientUnits="userSpaceOnUse" id="color-12"><stop offset="0" stop-color="#ffffff"/><stop offset="1" stop-color="#929292"/></linearGradient><linearGradient x1="333.30477" y1="284.07463" x2="347.45889" y2="287.71611" gradientUnits="userSpaceOnUse" id="color-13"><stop offset="0" stop-color="#ffffff"/><stop offset="1" stop-color="#929292"/></linearGradient><radialGradient cx="273.32366" cy="117.8481" r="42.50334" gradientUnits="userSpaceOnUse" id="color-14"><stop offset="0" stop-color="#603201"/><stop offset="1" stop-color="#321902"/></radialGradient><radialGradient cx="277.76098" cy="118.62389" r="43.17404" gradientUnits="userSpaceOnUse" id="color-15"><stop offset="0" stop-color="#000000"/><stop offset="1" stop-color="#ffffff" stop-opacity="0.01569"/></radialGradient><radialGradient cx="279.00182" cy="114.0646" r="33.73477" gradientUnits="userSpaceOnUse" id="color-16"><stop offset="0" stop-color="#000000" stop-opacity="0.22745"/><stop offset="1" stop-color="#000000"/></radialGradient><radialGradient cx="280.59265" cy="111.92567" r="8.4479" gradientUnits="userSpaceOnUse" id="color-17"><stop offset="0" stop-color="#ffffff"/><stop offset="1" stop-color="#5a5a5a"/></radialGradient><radialGradient cx="277.167" cy="111.94058" r="2.6136" gradientUnits="userSpaceOnUse" id="color-18"><stop offset="0" stop-color="#ffffff"/><stop offset="1" stop-color="#5a5a5a"/></radialGradient></defs><g transform="translate(-224.6982,-30.57218)"><g stroke-miterlimit="10"><path d="M342.1285,116.46623c-1.57664,-19.10586 8.76711,-35.20841 19.26586,-36.07476c10.49876,-0.86638 20.28779,13.91964 21.86444,33.02548c1.57662,19.10584 -5.6562,35.29649 -16.15494,36.16286c-10.49875,0.86635 -23.39869,-14.00778 -24.97532,-33.11362z" fill="url(#color-1)" stroke="#000000" stroke-width="0" stroke-linecap="butt"/><path d="M277.1954,120.4808c1.63589,19.10085 -8.59917,35.92025 -19.09518,36.81919c-10.49601,0.89892 -20.33088,-13.85662 -21.96677,-32.95749c-1.63589,-19.10085 5.54667,-35.31389 16.04269,-36.21281c10.49601,-0.89894 23.38341,13.25027 25.0193,32.35114z" fill="url(#color-2)" stroke="#000000" stroke-width="0" stroke-linecap="butt"/><path d="M276.77269,339.06395l-14.55289,-146.57184c0,0 4.73246,-26.18681 14.89297,-27.4478c10.09022,-1.25225 34.04023,-3.82463 54.93087,-6.4173c22.65836,-2.81205 31.99318,23.37626 31.99318,23.37626l13.05233,152.27724z" fill="url(#color-3)" stroke="#000000" stroke-width="0" stroke-linecap="butt"/><path d="M336.21017,166.53413c0.76098,9.05036 -8.80597,17.2434 -21.36841,18.29968c-12.56243,1.05629 -23.36318,-5.42419 -24.12416,-14.47454c-0.76098,-9.05036 8.80597,-17.2434 21.36841,-18.29968c12.56243,-1.05629 23.36318,5.42419 24.12416,14.47454z" fill="url(#color-4)" stroke="#000000" stroke-width="0" stroke-linecap="butt"/><path d="M363.8092,117.22559c0.45273,28.55062 -23.39554,55.08253 -53.64438,55.56218c-30.24884,0.47966 -55.44364,-25.27458 -55.89636,-53.82519c-0.45273,-28.55061 23.70181,-52.08432 53.95065,-52.56395c30.24884,-0.47966 55.13739,22.27635 55.59011,50.82696z" fill="url(#color-5)" stroke="#000000" stroke-width="0" stroke-linecap="butt"/><path d="M323.71754,110.08185c0.22697,2.69932 -6.21808,5.44493 -14.39542,6.1325c-8.17735,0.68757 -14.99036,-0.94326 -15.21733,-3.64258c-0.22697,-2.69932 6.21808,-5.44493 14.39542,-6.1325c8.17735,-0.68757 14.99036,0.94326 15.21733,3.64258z" fill-opacity="0.18431" fill="#ff0505" stroke="none" stroke-width="0" stroke-linecap="butt"/><path d="M338.18703,204.47662l1.11596,-16.00274l8.19947,15.96519l-17.09983,-10.99104l21.34982,-3.28661z" fill="none" stroke-opacity="0.67059" stroke="#ffffff" stroke-width="2.5" stroke-linecap="round"/><path d="M282.94812,192.13661c9.77804,-7.13456 22.1213,4.15417 11.79247,12.81728c-4.61043,3.8669 -13.83833,2.63751 -16.8387,-2.62781c-3.23127,-5.67052 3.07171,-11.79769 8.58105,-10.9024" fill="none" stroke-opacity="0.67059" stroke="#ffffff" stroke-width="2.5" stroke-linecap="round"/><path d="M295.92856,198.83251c2.36329,-0.19842 8.00999,-1.54156 9.68652,0.87822c3.14167,4.53448 -5.38778,9.54521 -8.64489,10.22013c-6.39946,1.32604 -14.63393,1.55176 -20.70696,-0.76575c-4.92741,-1.88033 -5.56652,-7.21675 0.37386,-7.71624" fill="none" stroke-opacity="0.67059" stroke="#ffffff" stroke-width="2.5" stroke-linecap="round"/><path d="M281.72932,244.10234c0.00082,-9.93053 -2.55259,-22.21205 -0.209,-31.87811" fill="none" stroke-opacity="0.67059" stroke="#ffffff" stroke-width="2.5" stroke-linecap="round"/><path d="M298.30488,210.81293c3.57632,10.47985 5.00966,21.29857 8.36142,31.74995" fill="none" stroke-opacity="0.67059" stroke="#ffffff" stroke-width="2.5" stroke-linecap="round"/><path d="M287.44948,217.70074c-0.02793,-0.33216 -0.05586,-0.66433 -0.08378,-0.99648" fill="none" stroke-opacity="0.67059" stroke="#ffffff" stroke-width="2.5" stroke-linecap="round"/><path d="M293.12739,217.23256c-0.05586,-0.66433 -0.11172,-1.32864 -0.16758,-1.99297" fill="none" stroke-opacity="0.67059" stroke="#ffffff" stroke-width="2.5" stroke-linecap="round"/><path d="M296.01557,222.04797c0.11635,1.92935 0.28732,6.40835 -1.86243,7.50871c-4.15605,2.12731 -8.1221,-2.11866 -8.4278,-5.75435" fill="none" stroke-opacity="0.67059" stroke="#ffffff" stroke-width="2.5" stroke-linecap="round"/><path d="M390.23636,49.17127l7.07028,10.02145l-31.22061,-12.65011l10.48707,13.49595l-34.87749,17.11829" fill="none" stroke="#000000" stroke-width="2.5" stroke-linecap="round"/><path d="M393.56196,50.51154c-1.32446,1.70828 -3.8567,1.96228 -5.65592,0.56732c-1.79921,-1.39496 -2.18409,-3.91065 -0.85962,-5.61893c1.32446,-1.70828 3.8567,-1.96228 5.65592,-0.56732c1.79921,1.39496 2.18409,3.91065 0.85962,5.61893z" fill="#a65807" stroke="#000000" stroke-width="0" stroke-linecap="butt"/><path d="M265.98403,85.41852l-19.93866,-33.34554l16.14373,-5.61242l-33.0757,-6.38355l11.38617,-4.55778" fill="none" stroke="#000000" stroke-width="2.5" stroke-linecap="round"/><path d="M240.76011,30.58769c2.26863,-0.19075 4.25455,1.40075 4.43566,3.55474c0.18111,2.15399 -1.51116,4.05476 -3.77979,4.24552c-2.26863,0.19075 -4.25456,-1.40076 -4.43567,-3.55474c-0.18111,-2.15399 1.51117,-4.05477 3.7798,-4.24552z" fill="#a65807" stroke="#000000" stroke-width="0" stroke-linecap="butt"/><path d="M269.31422,303.19779c0,0 -4.49252,-7.76229 -4.83973,-11.89179c-0.35738,-4.25034 2.72506,-13.25819 2.72506,-13.25819c0,0 37.41246,2.61148 55.38795,1.10005c18.46433,-1.55253 53.97086,-10.29525 53.97086,-10.29525c0,0 3.24142,8.10537 3.59277,12.28411c0.35352,4.20446 -1.47809,12.8659 -1.47809,12.8659c0,0 -32.91272,5.42457 -50.41681,6.89636c-18.84917,1.5849 -58.942,2.29884 -58.942,2.29884z" fill="url(#color-6)" stroke="#000000" stroke-width="0" stroke-linecap="butt"/><path d="M272.2583,301.26448l-16.57119,-8.07799l15.43691,-10.07771z" fill="url(#color-7)" stroke="#000000" stroke-width="0" stroke-linecap="butt"/><path d="M374.87295,273.61225l16.90301,7.35847l-14.98962,10.73171z" fill="url(#color-8)" stroke="#000000" stroke-width="0" stroke-linecap="butt"/><path d="M284.19788,282.33752l10.58342,16.46822l-18.61521,-1.40415z" fill="url(#color-9)" stroke="#000000" stroke-width="0" stroke-linecap="butt"/><path d="M311.08191,283.68498l18.33877,-1.8836l-7.79399,16.70665z" fill="url(#color-10)" stroke="#000000" stroke-width="0" stroke-linecap="butt"/><path d="M358.19848,277.4317l10.33268,13.48615l-18.11101,4.59229z" fill="url(#color-11)" stroke="#000000" stroke-width="0" stroke-linecap="butt"/><path d="M290.65407,284.13595l18.71403,2.57944l-7.9806,14.48717z" fill="url(#color-12)" stroke="#000000" stroke-width="0" stroke-linecap="butt"/><path d="M343.59246,297.02575l-10.2877,-12.95111l18.02056,-5.66818z" fill="url(#color-13)" stroke="#000000" stroke-width="0" stroke-linecap="butt"/><path d="M304.95585,67.3419c0,0 -8.45989,26.50748 -8.52421,35.34325c-0.07234,9.93634 -7.89444,24.15092 -8.80316,30.6686c-1.58036,11.33496 -5.58645,31.14014 -5.58645,31.14014c0,0 -13.35607,-9.37974 -17.33952,-15.00675c-4.94404,-6.98395 -13.18153,-28.17638 -13.18153,-28.17638c0,0 2.09299,-14.57609 7.28857,-24.66631c6.5606,-12.74118 21.30363,-25.60966 29.45852,-26.29535c1.66297,-0.13982 2.505,-1.64056 3.77454,-2.01319c2.84681,-0.83557 5.43526,-0.8056 7.16663,-1.1418c4.28122,-0.83132 5.74661,0.14776 5.74661,0.14776z" fill="url(#color-14)" stroke="#000000" stroke-width="0" stroke-linecap="butt"/><path d="M300.18749,74.08732c0,0 -7.63827,23.93313 -7.69636,31.91081c-0.06532,8.97135 -7.12775,21.80544 -7.94821,27.69014c-1.42689,10.23413 -5.0439,28.11588 -5.0439,28.11588c0,0 -12.05896,-8.46881 -15.65554,-13.54932c-4.46388,-6.30569 -11.90137,-25.43996 -11.90137,-25.43996c0,0 1.88972,-13.16049 6.58072,-22.27076c5.92346,-11.50378 19.23468,-23.12251 26.59758,-23.7416c1.50146,-0.12624 2.26172,-1.48123 3.40797,-1.81768c2.57034,-0.75442 4.9074,-0.72735 6.47063,-1.0309c3.86543,-0.75059 5.18851,0.13341 5.18851,0.13341z" fill="url(#color-15)" stroke="#000000" stroke-width="2.5" stroke-linecap="butt"/><path d="M296.52515,79.2652c0,0 -5.9683,18.70056 -6.01368,24.93405c-0.05103,7.00991 -5.5694,17.03805 -6.21048,21.63616c-1.11491,7.99661 -3.94114,21.96882 -3.94114,21.96882c0,0 -9.42248,-6.61724 -12.23273,-10.58699c-3.48794,-4.92705 -9.29934,-19.87794 -9.29934,-19.87794c0,0 1.47658,-10.28317 5.14196,-17.40164c4.62839,-8.98868 15.02933,-18.06716 20.78246,-18.5509c1.17319,-0.09865 1.76724,-1.15738 2.66286,-1.42027c2.00839,-0.58947 3.8345,-0.56833 5.05593,-0.80553c3.02033,-0.58649 4.05413,0.10424 4.05413,0.10424z" fill="url(#color-16)" stroke="#000000" stroke-width="2.5" stroke-linecap="butt"/><path d="M293.55288,85.12205c0,0 -3.8036,11.91788 -3.83253,15.89049c-0.03253,4.46742 -3.54938,10.85838 -3.95795,13.78875c-0.71054,5.09626 -2.72055,27.23253 -2.72055,27.23253c0,0 -11.62785,-16.9586 -13.41882,-19.48854c-2.22287,-3.14001 -0.09472,-13.15859 -0.09472,-13.15859c0,0 0.94102,-6.55348 3.27698,-11.09009c2.94968,-5.72849 9.57821,-11.51422 13.24469,-11.82251c0.74768,-0.06287 1.12626,-0.73761 1.69704,-0.90514c1.27994,-0.37567 2.44373,-0.3622 3.22215,-0.51336c1.92486,-0.37377 2.5837,0.06643 2.5837,0.06643z" fill="none" stroke="#000000" stroke-width="2.5" stroke-linecap="butt"/><path d="M329.66377,111.25577l12.44061,-0.42224" fill="none" stroke="#000000" stroke-width="2.5" stroke-linecap="round"/><path d="M329.91988,108.96214l7.93674,-0.19949" fill="none" stroke="#000000" stroke-width="2.5" stroke-linecap="round"/><path d="M330.94169,105.59211l5.99011,2.61536" fill="none" stroke="#000000" stroke-width="2.5" stroke-linecap="round"/><path d="M334.28899,118.04065l-6.45746,-6.3189" fill="none" stroke="#000000" stroke-width="2.5" stroke-linecap="round"/><path d="M289.17926,102.72955c0.24021,2.85685 0.14809,6.9912 -0.26372,11.32227c-0.88884,9.34792 -3.26698,19.61229 -7.00751,19.92681c-3.91564,0.32924 -9.89388,-7.93668 -11.6667,-15.93863c-0.70537,-3.18382 1.60719,-6.27645 1.39125,-8.84465c-0.75867,-9.02288 11.80945,-22.12439 17.28304,-22.58462c5.47359,-0.46023 -0.49501,7.09592 0.26366,16.1188z" fill="#000000" stroke="#000000" stroke-width="2.5" stroke-linecap="butt"/><path d="M288.1326,112.20208c-0.00018,4.67269 -3.88627,8.17191 -7.41733,8.17176c-3.53107,-0.00014 -7.58146,-3.06383 -7.58128,-7.73651c0.00018,-4.67269 4.05088,-9.18492 7.58194,-9.18478c3.53107,0.00014 7.41685,4.07685 7.41667,8.74953z" fill="url(#color-17)" stroke="none" stroke-width="0" stroke-linecap="butt"/><path d="M283.87184,111.11584c0.46624,4.7307 -1.71228,9.04194 -4.86586,9.6294c-3.15359,0.58747 -6.08804,-2.7713 -6.55428,-7.50199c-0.46624,-4.7307 1.71228,-9.04194 4.86586,-9.6294c3.15359,-0.58747 6.08804,2.7713 6.55428,7.50199z" fill="#000000" stroke="none" stroke-width="0" stroke-linecap="butt"/><path d="M279.77142,111.72159c0.12094,1.43838 -0.94705,2.70245 -2.38542,2.82339c-1.43838,0.12094 -2.70245,-0.94705 -2.82339,-2.38542c-0.12094,-1.43838 0.94705,-2.70245 2.38542,-2.82339c1.43838,-0.12094 2.70245,0.94705 2.82339,2.38542z" fill="url(#color-18)" stroke="none" stroke-width="0" stroke-linecap="butt"/><path d="M343.22639,109.27182c0.16495,1.39569 -0.9772,2.6779 -2.55105,2.8639c-1.57386,0.186 -2.98343,-0.79464 -3.14838,-2.19032c-0.16495,-1.39569 0.9772,-2.6779 2.55105,-2.8639c1.57386,-0.186 2.98343,0.79464 3.14838,2.19032z" fill="#ffffff" stroke="#000000" stroke-width="2.5" stroke-linecap="butt"/><path d="M284.90333,163.2676l5.37519,-8.88232l10.70714,1.65978l26.40214,-4.41193l12.57114,2.68475l1.26554,6.47853z" fill="#000000" stroke="#000000" stroke-width="2.5" stroke-linecap="round"/></g></g></svg>