<svg version="1.1" xmlns="http://www.w3.org/2000/svg" xmlns:xlink="http://www.w3.org/1999/xlink" width="183.10039" height="370.54838" viewBox="0,0,183.10039,370.54838"><defs><radialGradient cx="322.23429" cy="207.50865" r="33.16925" gradientUnits="userSpaceOnUse" id="color-1"><stop offset="0" stop-color="#ee2828"/><stop offset="1" stop-color="#500000"/></radialGradient><radialGradient cx="324.29683" cy="191.87542" r="28.48101" gradientUnits="userSpaceOnUse" id="color-2"><stop offset="0" stop-color="#ee2828"/><stop offset="1" stop-color="#500000"/></radialGradient><linearGradient x1="301.3703" y1="29.31726" x2="360.19317" y2="10.19899" gradientUnits="userSpaceOnUse" id="color-3"><stop offset="0" stop-color="#000000"/><stop offset="1" stop-color="#d31b1b"/></linearGradient><linearGradient x1="207.17339" y1="75.85997" x2="269.47689" y2="55.61048" gradientUnits="userSpaceOnUse" id="color-4"><stop offset="0" stop-color="#d31b1b"/><stop offset="1" stop-color="#16031b"/></linearGradient><linearGradient x1="285.1276" y1="42.89483" x2="326.0778" y2="141.12091" gradientUnits="userSpaceOnUse" id="color-5"><stop offset="0" stop-color="#190307"/><stop offset="1" stop-color="#ee2828"/></linearGradient><linearGradient x1="286.532" y1="35.51269" x2="302.43072" y2="84.42975" gradientUnits="userSpaceOnUse" id="color-6"><stop offset="0" stop-color="#d31b1b"/><stop offset="1" stop-color="#670000"/></linearGradient><radialGradient cx="277.27548" cy="92.02862" r="10.02727" gradientUnits="userSpaceOnUse" id="color-7"><stop offset="0" stop-color="#ffffff" stop-opacity="0.61176"/><stop offset="1" stop-color="#ffffff" stop-opacity="0"/></radialGradient><radialGradient cx="329.17315" cy="73.44493" r="10.02727" gradientUnits="userSpaceOnUse" id="color-8"><stop offset="0" stop-color="#ffffff" stop-opacity="0.61176"/><stop offset="1" stop-color="#ffffff" stop-opacity="0"/></radialGradient><radialGradient cx="328.54054" cy="72.76585" r="5.70896" gradientUnits="userSpaceOnUse" id="color-9"><stop offset="0" stop-color="#ffffff" stop-opacity="0.61176"/><stop offset="1" stop-color="#ffffff" stop-opacity="0"/></radialGradient><radialGradient cx="277.75442" cy="92.55281" r="5.70896" gradientUnits="userSpaceOnUse" id="color-10"><stop offset="0" stop-color="#ffffff" stop-opacity="0.61176"/><stop offset="1" stop-color="#ffffff" stop-opacity="0"/></radialGradient></defs><g transform="translate(-194.02529,27.43303)"><g stroke-miterlimit="10"><path d="M279.44235,343.11535l-2.24359,-72.37102l-5.26291,-11.9637l4.40885,-15.58563l-10.38131,-21.40451l9.56063,-5.06786l-19.10548,-32.60854l18.15238,1.86447l-19.54583,-24.40862l18.89817,3.51718l-10.65,-25.05464c0,0 13.75559,11.39815 15.12823,7.31855c2.45342,-7.29176 5.84044,-14.15548 9.97417,-14.587c8.93116,-0.93231 30.11021,-2.66173 48.60115,-4.592c20.0556,-2.09361 27.41964,18.32256 27.41964,18.32256l7.94678,-13.77183c0,0 -7.76411,24.15615 -7.68804,28.48102c0.05526,3.14136 10.8206,-11.92877 10.8206,-11.92877c0,0 -10.49008,30.71806 -10.41681,34.88344c0.07102,4.03761 12.06671,0.06199 12.06671,0.06199c0,0 -11.60385,26.25004 -11.49525,32.42458c0.08442,4.79942 8.22996,3.64767 8.22996,3.64767c0,0 -7.82125,19.58731 -7.7476,23.77356c0.07598,4.31896 4.06053,9.13601 4.06053,9.13601c0,0 -3.68531,12.19416 -3.61323,16.29186c0.67303,38.26096 1.29502,73.62015 1.29502,73.62015z" fill="#000000" stroke="#000000" stroke-width="0" stroke-linecap="butt"/><path d="M336.94822,142.73587c-0.03489,7.75086 -7.34338,14.13559 -16.32398,14.26073c-8.9806,0.12514 -16.23252,-6.05669 -16.19763,-13.80755c0.03489,-7.75086 7.34337,-14.13559 16.32397,-14.26073c8.9806,-0.12514 16.23253,6.05671 16.19764,13.80755z" fill="#ee2828" stroke="#000000" stroke-width="0" stroke-linecap="butt"/><path d="M346.9435,237.38025l-51.47231,-19.99413l-1.30988,30.65977l33.7309,-47.85088l22.4151,-33.2236" fill="none" stroke="url(#color-1)" stroke-width="2.5" stroke-linecap="round"/><path d="M295.86904,181.06472l56.8556,21.62143" fill="none" stroke="url(#color-2)" stroke-width="2.5" stroke-linecap="round"/><path d="M289.52252,149.32481l52.0059,-2.54369" fill="none" stroke="#000000" stroke-width="0" stroke-linecap="round"/><path d="M343.65873,44.47276c3.12116,7.7239 -21.31185,26.9891 -54.57265,43.03005c-33.2608,16.04094 -62.75421,22.78323 -65.87539,15.05933c-3.12115,-7.72389 21.31184,-26.98909 54.57266,-43.03003c33.2608,-16.04094 62.75422,-22.78325 65.8754,-15.05935z" fill="#580b0b" stroke="#000000" stroke-width="0" stroke-linecap="butt"/><path d="M302.6452,35.10456l31.88229,-18.13212l8.76085,-44.40546l14.64736,32.55092l1.43661,41.67569l-13.70505,8.58574l-6.7428,-11.21122l-16.5563,-9.17199z" fill="url(#color-3)" stroke="#000000" stroke-width="0" stroke-linecap="round"/><path d="M254.4625,67.47618l-4.714,18.3307l3.51115,12.60272l-15.65528,4.05643l-29.28934,-29.68269l-14.28974,-35.51271l38.98765,26.65343l35.08174,-10.70168z" fill="url(#color-4)" stroke="#000000" stroke-width="0" stroke-linecap="round"/><path d="M355.02303,69.26372c9.96841,26.75769 -2.30939,61.96841 -30.65865,72.52973c-28.34926,10.56132 -60.70252,-5.29191 -70.67091,-32.04958c-9.9684,-26.75768 3.60006,-59.24492 31.94933,-69.80623c28.34926,-10.56132 59.41186,2.56842 69.38026,29.3261z" fill="url(#color-5)" stroke="#000000" stroke-width="0" stroke-linecap="butt"/><path d="M317.69709,77.90905c0.94567,2.53841 -4.52159,6.91858 -12.21148,9.78341c-7.68989,2.86482 -14.69039,3.12943 -15.63604,0.59101c-0.94567,-2.53841 4.5216,-6.91858 12.21149,-9.78341c7.68989,-2.86482 14.69039,-3.12943 15.63606,-0.59101z" fill-opacity="0.23137" fill="#000000" stroke="none" stroke-width="0" stroke-linecap="butt"/><path d="M281.48536,90.05629c0.78021,2.09425 -0.4507,4.48618 -2.74927,5.34249c-2.29858,0.85632 -4.79442,-0.14723 -5.57462,-2.24147c-0.78021,-2.09426 0.4507,-4.48618 2.74927,-5.34249c2.29858,-0.85632 4.79441,0.14723 5.57462,2.24148z" fill="#ffffff" stroke="#000000" stroke-width="2.5" stroke-linecap="butt"/><path d="M332.26419,69.43788c0.78021,2.09426 -0.4507,4.48617 -2.74927,5.34249c-2.29858,0.85632 -4.79441,-0.14723 -5.57461,-2.24147c-0.78021,-2.09425 0.45069,-4.48616 2.74927,-5.34248c2.29858,-0.85632 4.79442,0.14722 5.57462,2.24147z" fill="#ffffff" stroke="#000000" stroke-width="2.5" stroke-linecap="butt"/><path d="M344.53817,38.18463c1.2917,3.83359 4.43685,13.66188 4.43685,13.66188l-49.39625,23.7392l-49.392,23.15686c0,0 -4.6269,-9.84237 -5.88572,-13.5784c-5.12361,-15.20607 13.16173,-38.04976 40.84145,-51.02281c27.67971,-12.97303 54.27206,-11.16279 59.39567,4.04328zM303.67951,44.53409c-13.78649,6.46151 -22.89391,17.83933 -20.34199,25.41305c0.62699,1.8608 2.93152,6.76302 2.93152,6.76302l24.60078,-11.53378l24.6029,-11.82384c0,0 -1.56651,-4.89518 -2.20985,-6.80458c-2.55193,-7.57373 -15.79683,-8.47536 -29.58334,-2.01385z" fill="url(#color-6)" stroke="#000000" stroke-width="0" stroke-linecap="butt"/><path d="M331.08062,58.26723l-46.16346,21.77641l55.53197,-26.44175" fill="none" stroke-opacity="0.48235" stroke="#000000" stroke-width="2.5" stroke-linecap="round"/><path d="M292.78275,32.82749c0,0 4.55262,1.97067 6.25244,3.87966c1.79259,2.01317 4.23964,7.90344 4.23964,7.90344" fill="none" stroke-opacity="0.48235" stroke="#000000" stroke-width="0" stroke-linecap="round"/><path d="M264.87508,91.42113c0,0 -9.56591,-20.72811 -5.34104,-30.1689c4.5178,-10.0954 31.62808,-28.57142 31.62808,-28.57142c0,0 21.09704,-3.73883 30.79592,-0.09009c7.71292,2.9016 22.81643,20.25913 22.81643,20.25913" fill="none" stroke-opacity="0.48235" stroke="#000000" stroke-width="0" stroke-linecap="round"/><path d="M294.38298,28.90994c0.68851,1.84818 -0.64583,4.05142 -2.98033,4.92112c-2.33452,0.86971 -4.78518,0.07652 -5.47369,-1.77163c-0.68851,-1.84818 0.64582,-4.05142 2.98034,-4.92112c2.33452,-0.86971 4.78516,-0.07652 5.47369,1.77164z" fill="#d31b1b" stroke="#000000" stroke-width="0" stroke-linecap="butt"/><path d="M314.02851,76.61714c0,0 -0.26886,-3.17377 3.65253,-4.68744c7.0111,-2.70629 29.31952,-11.31733 29.31952,-11.31733" fill="none" stroke="#000000" stroke-width="0" stroke-linecap="round"/><path d="M292.78275,32.82749c0,0 4.55262,1.97067 6.25244,3.87966c1.79259,2.01317 4.23964,7.90344 4.23964,7.90344" fill="none" stroke-opacity="0.48235" stroke="#000000" stroke-width="2.5" stroke-linecap="round"/><path d="M264.87508,91.42112c0,0 -9.56592,-20.72811 -5.34105,-30.1689c4.5178,-10.09539 31.62809,-28.57142 31.62809,-28.57142c0,0 21.09704,-3.73883 30.79592,-0.09009c7.71292,2.9016 22.81643,20.25913 22.81643,20.25913" fill="none" stroke-opacity="0.48235" stroke="#000000" stroke-width="2.5" stroke-linecap="round"/><path d="M284.66532,87.88128c1.18651,5.4093 -0.42443,12.88516 -5.24148,13.94177c-4.81705,1.0566 -11.0161,-4.70615 -12.20262,-10.11547c-1.18651,-5.4093 1.75663,-10.65097 6.57368,-11.70756c4.81705,-1.0566 9.6839,2.47196 10.87042,7.88127z" fill="url(#color-7)" stroke="none" stroke-width="0" stroke-linecap="butt"/><path d="M336.56299,69.29758c1.18651,5.4093 -1.75662,10.65097 -6.57366,11.70757c-4.81705,1.0566 -9.68389,-2.47197 -10.8704,-7.88127c-1.18651,-5.4093 1.75661,-10.65097 6.57367,-11.70758c4.81705,-1.0566 9.68391,2.47198 10.87042,7.88128z" fill="url(#color-8)" stroke="none" stroke-width="0" stroke-linecap="butt"/><path d="M332.17418,69.44242c0.67554,3.07975 -1.00012,6.06405 -3.74268,6.66563c-2.74256,0.60157 -5.51346,-1.4074 -6.18899,-4.48715c-0.67554,-3.07975 1.00011,-6.06405 3.74267,-6.66563c2.74256,-0.60157 5.51347,1.4074 6.189,4.48715z" fill="url(#color-9)" stroke="none" stroke-width="0" stroke-linecap="butt"/><path d="M281.38805,89.22937c0.67554,3.07975 0.33209,8.29825 -2.41046,8.89981c-2.74255,0.60156 -6.84565,-3.6416 -7.52119,-6.72135c-0.67554,-3.07975 1.00012,-6.06405 3.74267,-6.66563c2.74255,-0.60156 5.51345,1.40741 6.18898,4.48715z" fill="url(#color-10)" stroke="none" stroke-width="0" stroke-linecap="butt"/><path d="M307.15466,143.24001l-20.57275,-13.39577l1.52928,-12.91966l11.87293,1.91313l12.95402,-11.39223l20.16955,-0.87472l7.7319,-7.02005l4.73686,1.70369l-1.12278,20.57464l-5.1824,9.52622l-11.44657,8.31887z" fill="#ffffff" stroke-opacity="0.7098" stroke="#000000" stroke-width="2.5" stroke-linecap="round"/><path d="M325.75698,107.04038l-3.49954,32.94592l-17.5353,-25.24143l0.58393,25.86909l-14.99732,-23.61656" fill="none" stroke-opacity="0.50196" stroke="#000000" stroke-width="2.5" stroke-linecap="round"/><path d="M340.04842,100.08785l-1.29499,29.73538l-12.42127,-21.81822" fill="none" stroke-opacity="0.50196" stroke="#000000" stroke-width="2.5" stroke-linecap="round"/></g></g></svg>