<svg version="1.1" xmlns="http://www.w3.org/2000/svg" xmlns:xlink="http://www.w3.org/1999/xlink" width="232.80164" height="342.68866" viewBox="0,0,232.80164,342.68866"><defs><linearGradient x1="408.53619" y1="100.54965" x2="408.52612" y2="143.69046" gradientUnits="userSpaceOnUse" id="color-1"><stop offset="0" stop-color="#1e006b"/><stop offset="1" stop-color="#0038ff"/></linearGradient><linearGradient x1="246.50728" y1="96.34135" x2="243.62436" y2="139.38573" gradientUnits="userSpaceOnUse" id="color-2"><stop offset="0" stop-color="#210073"/><stop offset="1" stop-color="#0038ff"/></linearGradient><linearGradient x1="328.16593" y1="169.27692" x2="325.05513" y2="261.95142" gradientUnits="userSpaceOnUse" id="color-3"><stop offset="0" stop-color="#2dff00"/><stop offset="1" stop-color="#000000"/></linearGradient><linearGradient x1="327.66801" y1="170.67938" x2="322.86066" y2="348.8287" gradientUnits="userSpaceOnUse" id="color-4"><stop offset="0" stop-color="#dadada"/><stop offset="1" stop-color="#1a1a1a"/></linearGradient><linearGradient x1="265.65041" y1="88.29118" x2="264.16761" y2="132.46532" gradientUnits="userSpaceOnUse" id="color-5"><stop offset="0" stop-color="#ffffff"/><stop offset="1" stop-color="#ffffff" stop-opacity="0"/></linearGradient><linearGradient x1="391.6516" y1="91.66293" x2="390.16881" y2="135.83707" gradientUnits="userSpaceOnUse" id="color-6"><stop offset="0" stop-color="#ffffff"/><stop offset="1" stop-color="#ffffff" stop-opacity="0"/></linearGradient><linearGradient x1="236.10927" y1="329.67473" x2="246.93297" y2="66.28841" gradientUnits="userSpaceOnUse" id="color-7"><stop offset="0" stop-color="#ff0000"/><stop offset="0.333" stop-color="#ffff00"/><stop offset="0.5" stop-color="#00ff00"/><stop offset="0.666" stop-color="#00ffff"/><stop offset="0.833" stop-color="#0000ff"/><stop offset="1" stop-color="#ff00ff"/></linearGradient><linearGradient x1="328.56531" y1="75.51702" x2="324.9946" y2="181.89271" gradientUnits="userSpaceOnUse" id="color-8"><stop offset="0" stop-color="#000000" stop-opacity="0.39608"/><stop offset="1" stop-color="#000000" stop-opacity="0"/></linearGradient><linearGradient x1="330.31447" y1="30.23934" x2="328.3082" y2="90.0084" gradientUnits="userSpaceOnUse" id="color-9"><stop offset="0" stop-color="#5b5b5b"/><stop offset="1" stop-color="#ffffff"/></linearGradient></defs><g transform="translate(-211.16698,-15.57411)"><g stroke-miterlimit="10"><path d="M346.95466,80.65038c0,0 72.62649,29.40176 87.89431,35.58271c5.37999,2.17802 9.11965,9.25314 9.11965,9.25314c0,0 -3.07441,-4.03432 -9.6956,-2.81464c-9.59972,1.76834 -22.88387,4.41765 -30.35707,6.78529c-11.49781,3.6427 -30.84801,14.22531 -30.84801,14.22531z" fill="url(#color-1)" stroke="#000000" stroke-width="0" stroke-linecap="butt"/><path d="M279.00328,141.75524c0,0 -17.11768,-12.63379 -28.23169,-16.99471c-6.77815,-2.65962 -18.91265,-5.65461 -28.52705,-7.82456c-7.98257,-1.80165 -11.07756,0.33462 -11.07756,0.33462c0,0 3.8697,-5.76973 10.2129,-7.93884c15.68292,-5.36292 81.68587,-27.93324 81.68587,-27.93324z" fill="url(#color-2)" stroke="#000000" stroke-width="0" stroke-linecap="butt"/><path d="M274.52841,258.36766l1.2233,-56.45934c0,0 0.26564,-12.34806 1.21375,-13.23741c2.90811,-2.72781 8.12712,-16.4765 16.15845,-16.36545c10.57607,0.14623 37.26996,0.75348 59.16649,1.05623c23.74937,0.32837 22.90845,27.62474 22.90845,27.62474l3.7252,62.77322z" fill="url(#color-3)" stroke="#000000" stroke-width="0" stroke-linecap="butt"/><path d="M270.11727,343.43024c0,0 0.07888,-15.28735 -0.0548,-41.59471c-0.05737,-11.29202 -0.5337,-35.33448 -0.44727,-43.42885c0.20921,-19.59086 2.06964,-61.76999 2.06964,-61.76999c0,0 8.13152,-25.35029 19.15871,-25.38419c3.15788,-0.00971 7.56274,0.00966 12.77644,0.04047c0.70635,1.01308 -2.52572,1.77982 -2.94536,3.66242c-0.48734,2.18645 1.77305,5.57646 1.96814,7.86636c0.18394,2.15895 2.86442,4.73228 3.96279,5.34182c2.24544,1.24613 5.97479,5.27488 8.58284,5.83358c2.5065,0.53694 15.92816,1.46831 18.55135,0.92822c4.73278,-0.97445 11.69827,-5.58112 12.94405,-10.29765c0.68316,-2.58647 5.48942,-4.07759 5.00152,-6.41625c-0.46667,-2.2369 -6.25639,-5.34656 -4.48177,-6.73906c1.07577,-0.00164 2.14621,-0.00407 3.20946,-0.00733c24.59104,-0.07559 31.52223,26.95701 31.52223,26.95701c0,0 -3.7124,65.58593 -4.39631,92.69074c-0.26206,10.38617 0.96716,26.88752 1.14269,38.20916c0.21245,13.70247 -0.58831,21.36069 -0.58831,21.36069c0,0 -42.97097,8.77186 -62.75457,7.44304c-14.62837,-0.98255 -45.22148,-14.69549 -45.22148,-14.69549z" fill="url(#color-4)" stroke="#000000" stroke-width="0" stroke-linecap="butt"/><path d="M267.10359,128.16671c-0.72153,0.91797 -3.14109,1.29781 -5.07496,1.80687c-0.31685,0.08341 -1.87931,0.54111 -2.63554,0.33904c-1.81365,-0.48467 -1.27038,-1.97096 -3.83786,-2.67005c-2.57306,-0.70062 -5.04673,-0.1792 -7.50548,-0.88308c-2.33817,-0.66936 -1.81532,-2.02572 -4.11678,-2.72391c-2.3092,-0.70052 -5.58198,-0.03464 -7.1427,-0.93466c-3.62354,-2.08959 -4.04421,-4.01643 1.77021,-3.81043" fill="#211fff" stroke-opacity="0.4902" stroke="#000000" stroke-width="2.5" stroke-linecap="round"/><path d="M417.08002,122.01226c5.80531,-0.58708 5.47705,1.04635 1.95327,3.04416c-1.51775,0.8605 -4.82291,0.54034 -7.09881,1.28835c-2.26826,0.74549 -1.68028,1.83677 -3.98664,2.5609c-2.4253,0.76147 -4.92431,0.50442 -7.46411,1.27136c-2.53428,0.76527 -1.91961,1.96319 -3.71025,2.49614c-0.74663,0.22223 -2.33124,-0.04694 -2.65215,-0.0937c-1.95855,-0.28536 -4.39665,-0.42846 -5.16233,-1.14073" fill="#211fff" stroke-opacity="0.4902" stroke="#000000" stroke-width="2.5" stroke-linecap="round"/><path d="M282.18165,133.07001c0,0 -12.37666,-9.13464 -20.41245,-12.28774c-8.96985,-3.5196 -30.91324,-7.85149 -30.91324,-7.85149l68.72365,-23.50069z" fill="url(#color-5)" stroke-opacity="0.50196" stroke="#000000" stroke-width="0" stroke-linecap="butt"/><path d="M356.8403,90.49441l68.75726,28.11551c0,0 -22.75811,2.83139 -32.1798,5.73365c-8.44059,2.60004 -21.73132,10.8731 -21.73132,10.8731z" fill="url(#color-6)" stroke-opacity="0.50196" stroke="#000000" stroke-width="0" stroke-linecap="butt"/><path d="M381.32497,132.76168c-2.89567,28.40701 -29.68841,51.96185 -59.7851,48.89395c-30.09668,-3.06791 -52.10031,-31.59683 -49.20463,-60.00382c2.89567,-28.407 29.64128,-48.94841 59.73795,-45.88048c30.09668,3.06791 52.14746,28.58336 49.25179,56.99036z" fill="url(#color-7)" stroke="#000000" stroke-width="0" stroke-linecap="butt"/><path d="M381.32497,132.76168c-2.89567,28.40701 -29.68841,51.96185 -59.7851,48.89395c-30.09668,-3.06791 -52.10031,-31.59683 -49.20463,-60.00382c2.89567,-28.407 29.64128,-48.94841 59.73795,-45.88048c30.09668,3.06791 52.14746,28.58336 49.25179,56.99036z" fill="url(#color-8)" stroke="#000000" stroke-width="0" stroke-linecap="butt"/><g fill-opacity="0.46667" fill="#000000" stroke="none" stroke-width="0.5" stroke-linecap="butt"><path d="M300.86978,207.88046c0.9281,-0.33558 1.26368,0.59253 1.26368,0.59253l0.14957,0.66682c2.49463,0.67553 4.34723,-2.18208 2.87559,-4.34131c-0.73684,-1.08111 -2.28002,-1.31295 -2.98171,-2.34282c-2.13453,-3.13284 2.66921,-3.93394 4.68577,-3.67925c0,0 0.97817,0.1311 0.84707,1.10926c-0.13109,0.97817 -1.10926,0.84707 -1.10926,0.84707c-0.28983,-0.04174 -0.57668,-0.12544 -0.8695,-0.12525c-0.32071,0.00022 -0.64384,0.04405 -0.95378,0.12647c-2.32007,0.61681 -0.1775,0.82788 0.97144,1.8328c0.85734,0.74988 1.46814,1.538 1.75042,2.67445c1.09228,4.39743 -3.00699,6.90298 -6.6362,5.26938l-0.5856,-1.36645c0,0 -0.33558,-0.92811 0.59253,-1.26369z"/><path d="M317.66312,215.16909c-0.60078,-0.02016 -0.82335,-0.39398 -0.90555,-0.68314c-1.88965,-2.376 -3.76035,-5.62785 -3.94847,-8.70153c-0.16756,0.17853 -0.32747,0.36615 -0.47877,0.56379c0,0 -0.03423,0.04391 -0.09687,0.10272c0.07236,2.02274 0.08737,4.04964 0.17543,6.0613l0.06596,0.99525c0,0 0.0652,0.98476 -0.91955,1.04997c-0.98475,0.0652 -1.04997,-0.91955 -1.04997,-0.91955l-0.06734,-1.0178c-0.17709,-4.14198 -0.03301,-8.3629 -0.76884,-12.45957c0,0 -0.1743,-0.97141 0.79711,-1.14569c0.97141,-0.17429 1.1457,0.79711 1.1457,0.79711c0.2343,1.30717 0.38191,2.62535 0.47978,3.94905c1.45694,-1.26302 3.21158,-2.10879 5.04642,-2.85214l0.56787,-0.137c0,0 0.96494,-0.2071 1.17204,0.75784c0.2071,0.96494 -0.75783,1.17204 -0.75783,1.17204l-0.24139,0.0367c-1.16523,0.47137 -2.33645,0.98356 -3.38367,1.66096c0.28874,0.30223 0.27382,0.74689 0.27382,0.74689c-0.12081,2.83674 1.93448,6.16739 3.6947,8.31154l0.21888,0.75803c0,0 -0.03311,0.98635 -1.01947,0.95324z"/><path d="M321.88311,215.10989c-0.98636,-0.03311 -0.95325,-1.01948 -0.95325,-1.01948l0.01171,-0.20263c-0.22161,-3.34708 -0.60538,-6.78436 -1.15359,-10.08668c0,0 -0.16097,-0.97369 0.81272,-1.13468c0.97369,-0.16097 1.13468,0.81272 1.13468,0.81272c0.55437,3.36627 0.94988,6.86757 1.1757,10.27823l-0.00849,0.39925c0,0 -0.03311,0.98636 -1.01948,0.95325z"/><path d="M328.70723,213.93095c2.72519,-3.0587 -2.21241,-5.55401 -1.44922,-7.82075c0.41539,-1.23378 3.29751,-0.85351 3.26492,-2.55139c-0.04445,-2.31506 -1.93892,-1.78823 -3.5224,-0.95508c0,0 -0.05675,0.02908 -0.14878,0.05802c0.31223,3.73828 0.3829,7.57517 0.274,11.31022c0.50092,0.3034 0.76095,0.17964 1.5815,-0.04104zM328.6648,200.01734c7.12444,-0.82344 2.28397,6.50459 0.80246,6.80068c0.52576,0.5524 1.40505,1.66824 1.58746,2.27391c0.74635,2.47819 0.47851,4.64507 -1.31024,6.51836c-1.85505,0.57604 -2.56956,0.74853 -4.19638,-0.34234l-0.50952,-0.79883c0,0 -0.28161,-0.61388 0.12893,-1.05893c0.10094,-3.91235 -0.00827,-7.93578 -0.39495,-11.81476c0,0 -0.09755,-0.98207 0.88454,-1.07962c0.33408,-0.03318 0.56579,0.05857 0.72613,0.19409c0.72259,-0.33816 1.49289,-0.60139 2.28157,-0.69254z"/><path d="M334.47821,215.72009c-0.97837,0.1295 -1.10788,-0.84887 -1.10788,-0.84887l-0.0881,-0.76788c0.13741,-4.04414 -0.02951,-8.09631 0.10651,-12.14837c0,0 0.03311,-0.98635 1.01948,-0.95324c0.98636,0.03311 0.95324,1.01947 0.95324,1.01947c-0.13603,4.05252 0.0277,8.10333 -0.1065,12.14837l0.07214,0.44266c0,0 0.12949,0.97837 -0.84888,1.10787z"/><path d="M346.38652,218.14183c-0.98636,-0.03311 -0.95325,-1.01948 -0.95325,-1.01948l0.03927,-1.14444c0.10851,-0.93077 0.21535,-1.86873 0.30953,-2.81076c-0.45346,2.17201 -1.76283,3.90136 -4.50638,4.0967l-1.09023,-0.13965c0,0 -0.97335,-0.14135 -0.83554,-1.11355c-0.151,0.15698 -0.38175,0.27529 -0.73417,0.26346c-0.98636,-0.03311 -0.95325,-1.01947 -0.95325,-1.01947l0.00834,-0.10232c-0.26612,-4.04094 -0.1381,-7.99962 -0.00216,-12.04942c0,0 0.03311,-0.98635 1.01948,-0.95324c0.32665,0.01097 0.54151,0.12648 0.68278,0.2761c0.85173,-0.68391 1.91478,-1.27943 2.9809,-0.79865c1.69387,0.76387 2.31692,3.34565 2.83937,4.89902c0.44137,1.31227 0.75731,2.89761 0.78202,4.44315c0.17363,-2.41996 0.20865,-4.85052 -0.07891,-7.23923c0,0 -0.11725,-0.97992 0.86268,-1.09718c0.97992,-0.11726 1.09718,0.86267 1.09718,0.86267c0.4969,4.17623 0.07731,8.46957 -0.41335,12.63054l-0.0348,1.06252c0,0 -0.03311,0.98636 -1.01948,0.95325zM340.46912,215.17088l0.70873,0.12159c4.66064,-0.07966 2.47256,-7.3742 1.51589,-9.81624c-0.12234,-0.31231 -0.57246,-1.70186 -1.06748,-2.01346c-0.42652,-0.26848 -1.58209,0.98621 -1.71885,1.11657c0,0 -0.12484,0.11673 -0.31918,0.20109c-0.10897,3.42714 -0.17661,6.8044 0.05211,10.24153l-0.00513,0.29895c0,0 -0.00132,0.03941 -0.01131,0.1022c0.33646,-0.32609 0.84523,-0.25221 0.84523,-0.25221z"/><path d="M308.85422,216.79839c-0.03311,0.98636 -1.01948,0.95324 -1.01948,0.95324l-0.8271,-0.03068c-1.26493,0.05401 -2.53216,0.03614 -3.79937,-0.00525c-0.03508,3.99211 0.72461,7.90897 0.597,11.86856l0.06543,0.16442c0,0 0.2071,0.96494 -0.75784,1.17204c-0.96494,0.2071 -1.17203,-0.75784 -1.17203,-0.75784l-0.10828,-0.64485c0.13855,-3.95387 -0.63203,-7.8858 -0.5968,-11.879c-0.54371,-0.02265 -1.08721,-0.045 -1.63032,-0.06323c0,0 -0.98636,-0.03311 -0.95325,-1.01947c0.03311,-0.98636 1.01948,-0.95325 1.01948,-0.95325c2.41358,0.08101 4.83768,0.25159 7.2507,0.14587l0.9786,0.02994c0,0 0.98636,0.03311 0.95325,1.01948z"/><path d="M312.35284,218.26016c-7.31968,3.30008 1.32464,17.89261 2.61234,6.08941c0.19568,-1.47889 0.1444,-4.55547 -1.45264,-5.18688l-0.3625,-0.04092c0,0 -0.76013,-0.15306 -0.79719,-0.86161zM313.06087,217.20282c0.25443,-0.06123 0.47884,-0.01603 0.47884,-0.01603l0.83456,0.20012c2.43827,1.30337 2.85554,4.63231 2.55047,7.19986c-2.07252,16.7374 -16.64674,-2.66892 -5.26853,-8.17582c0,0 0.89704,-0.4115 1.30854,0.48553c0.05012,0.10928 0.08084,0.21135 0.09612,0.30635z"/><path d="M320.09934,232.67489c-0.94621,0.2805 -1.22672,-0.66571 -1.22672,-0.66571l-0.10895,-0.37772c-1.023,-4.77143 -0.21036,-9.57091 -0.04821,-14.40163c0,0 0.03311,-0.98636 1.01948,-0.95325c0.98636,0.03311 0.95324,1.01948 0.95324,1.01948c-0.1563,4.65644 -0.98208,9.32572 0.00537,13.9212l0.07149,0.23093c0,0 0.2805,0.94621 -0.66571,1.22672z"/><path d="M331.72682,230.13255c0.35811,0.91966 -0.56153,1.27776 -0.56153,1.27776l-0.84284,0.31805c-8.21755,1.88816 -6.69764,-8.40345 -5.59984,-13.46922c0,0 0.20901,-0.96452 1.17355,-0.7555c0.96453,0.20902 0.7555,1.17355 0.7555,1.17355c-0.75722,3.49422 -2.88952,12.63309 3.21562,11.13056l0.58179,-0.23672c0,0 0.91966,-0.35811 1.27776,0.56154z"/><path d="M340.97425,223.29974c-0.03311,0.98636 -1.01948,0.95325 -1.01948,0.95325l-0.59406,-0.03912c-1.71498,-0.41267 -3.56202,-0.32555 -5.33446,-0.36323c-0.04394,1.5605 0.28264,2.87799 0.62319,4.41031c0.10654,0.47934 0.19373,1.74529 0.83941,1.96732c0.78454,0.26978 1.69886,-0.15747 2.40616,-0.41655l0.12368,-0.10149c0,0 0.83907,-0.51959 1.35866,0.31949c0.51959,0.83907 -0.31948,1.35865 -0.31948,1.35865l-0.49169,0.27958c-1.19825,0.42849 -2.57011,0.92968 -3.84712,0.37785c-2.48576,-1.07415 -2.73178,-6.12973 -2.66291,-8.3424c0.05521,-1.77389 -0.2008,-4.3432 1.46763,-5.54792c1.50851,-1.08925 3.78023,-0.45127 5.36879,-0.00119c0,0 0.94888,0.27134 0.67754,1.22023c-0.27134,0.94888 -1.22024,0.67754 -1.22024,0.67754c-0.89092,-0.25745 -2.75377,-0.92888 -3.65967,-0.30425c-0.51012,0.35173 -0.65091,1.24275 -0.67871,2.12872c1.93526,0.05053 3.91635,-0.01873 5.80106,0.41594l0.20846,-0.01218c0,0 0.98636,0.03311 0.95325,1.01947z"/><path d="M345.7904,233.23597c-0.94621,0.2805 -1.22672,-0.66571 -1.22672,-0.66571l-0.09648,-0.32639c-1.07293,-3.96156 -1.78013,-7.97038 0.25483,-11.77068c0,0 0.47073,-0.86742 1.33814,-0.39671c0.86741,0.47073 0.3967,1.33815 0.3967,1.33815c-1.81499,3.29036 -1.01428,6.89274 -0.08471,10.31236l0.08394,0.28225c0,0 0.2805,0.94621 -0.6657,1.22672z"/><path d="M351.89819,220.69276c-0.17227,0.97176 -1.14403,0.79949 -1.14403,0.79949l-0.81806,-0.15276c-2.19664,-0.68848 -4.84892,-1.05181 -7.15234,-0.91236c0,0 -0.9853,0.05633 -1.04163,-0.92898c-0.05633,-0.9853 0.92898,-1.04163 0.92898,-1.04163c2.55032,-0.13837 5.40939,0.25229 7.84795,0.99719l0.57964,0.09501c0,0 0.97176,0.17227 0.79949,1.14404z"/></g><path d="M298.17171,82.79171l32.43719,-52.54249l28.24064,54.91539c0,0 -2.39874,2.52287 -10.25039,3.84334c-6.65094,1.11854 -18.42807,1.08897 -23.37261,0.8956c-4.23458,-0.1656 -14.06102,-1.81493 -19.38368,-3.40954c-6.22659,-1.86541 -7.67114,-3.70229 -7.67114,-3.70229z" fill="url(#color-9)" stroke="#000000" stroke-width="0" stroke-linecap="butt"/><path d="M330.94714,55.80535c-0.2621,3.55606 -3.24647,6.2345 -6.66575,5.98248c-3.41928,-0.25202 -5.9787,-3.33908 -5.71659,-6.89513c0.2621,-3.55606 3.24647,-6.23451 6.66575,-5.98249c3.41929,0.25202 5.9787,3.33908 5.71659,6.89515z" fill="#1dff00" stroke="#000000" stroke-width="0" stroke-linecap="butt"/><path d="M347.08181,76.18772c-0.2621,3.55606 -3.24647,6.23452 -6.66575,5.9825c-3.41928,-0.25202 -5.9787,-3.33909 -5.7166,-6.89515c0.2621,-3.55606 3.24647,-6.2345 6.66576,-5.98248c3.41929,0.25202 5.9787,3.33908 5.71659,6.89513z" fill="#fa00ff" stroke="#000000" stroke-width="0" stroke-linecap="butt"/><path d="M319.79702,80.40149c-0.2621,3.55606 -3.24647,6.23451 -6.66575,5.98249c-3.41928,-0.25202 -5.97869,-3.33909 -5.71659,-6.89514c0.2621,-3.55606 3.24647,-6.23451 6.66575,-5.98249c3.41929,0.25202 5.9787,3.33908 5.71659,6.89514z" fill="#0007ff" stroke="#000000" stroke-width="0" stroke-linecap="butt"/><path d="M344.35469,32.68276l-30.41408,-3.15653" fill="none" stroke="#000000" stroke-width="2.5" stroke-linecap="round"/><path d="M342.40307,40.54366l-11.71341,-8.63938l0.19668,-15.08017" fill="none" stroke="#000000" stroke-width="2.5" stroke-linecap="round"/><path d="M318.61915,37.41842l11.1606,-5.58119" fill="none" stroke="#000000" stroke-width="2.5" stroke-linecap="round"/><path d="M359.61752,122.45443c-0.07314,2.17913 -2.16396,3.87748 -4.66996,3.79336c-2.506,-0.08412 -4.47821,-1.91885 -4.40507,-4.09798c0.07314,-2.17913 2.54092,3.71837 5.04691,3.80248c2.506,0.08412 4.10126,-5.677 4.02812,-3.49786z" fill="#ffffff" stroke="#000000" stroke-width="2.5" stroke-linecap="butt"/><path d="M329.87274,171.17182l-5.05831,6.36017l-3.77879,-6.65681l5.3676,-9.29881z" fill="#000000" stroke="#000000" stroke-width="2.5" stroke-linecap="round"/></g></g></svg>