<svg version="1.1" xmlns="http://www.w3.org/2000/svg" xmlns:xlink="http://www.w3.org/1999/xlink" width="194.21381" height="309.18111" viewBox="0,0,194.21381,309.18111"><defs><linearGradient x1="311.40231" y1="181.31646" x2="334.62308" y2="358.64712" gradientUnits="userSpaceOnUse" id="color-1"><stop offset="0" stop-color="#060606"/><stop offset="1" stop-color="#212121"/></linearGradient><linearGradient x1="275.36016" y1="177.25821" x2="299.64582" y2="362.72115" gradientUnits="userSpaceOnUse" id="color-2"><stop offset="0" stop-color="#2e65d1"/><stop offset="1" stop-color="#002994"/></linearGradient><linearGradient x1="344.30764" y1="169.18692" x2="368.59333" y2="354.64991" gradientUnits="userSpaceOnUse" id="color-3"><stop offset="0" stop-color="#2d63d1"/><stop offset="1" stop-color="#002994"/></linearGradient><linearGradient x1="311.66237" y1="180.83213" x2="314.5844" y2="203.14684" gradientUnits="userSpaceOnUse" id="color-4"><stop offset="0" stop-color="#222222"/><stop offset="1" stop-color="#bebebe"/></linearGradient><linearGradient x1="260.30186" y1="97.38522" x2="312.78964" y2="189.97883" gradientUnits="userSpaceOnUse" id="color-5"><stop offset="0" stop-color="#1e1e1e"/><stop offset="1" stop-color="#bebebe"/></linearGradient><radialGradient cx="260.34709" cy="109.78763" r="82.17255" gradientUnits="userSpaceOnUse" id="color-6"><stop offset="0" stop-color="#717171"/><stop offset="1" stop-color="#4b4b4b"/></radialGradient><linearGradient x1="256.86815" y1="70.51927" x2="265.6972" y2="88.13929" gradientUnits="userSpaceOnUse" id="color-7"><stop offset="0" stop-color="#000000" stop-opacity="0.19216"/><stop offset="1" stop-color="#a9a9a9" stop-opacity="0.21961"/></linearGradient><linearGradient x1="260.70827" y1="76.61269" x2="267.34228" y2="89.85213" gradientUnits="userSpaceOnUse" id="color-8"><stop offset="0" stop-color="#000000" stop-opacity="0.19216"/><stop offset="1" stop-color="#a9a9a9" stop-opacity="0.21961"/></linearGradient><linearGradient x1="221.07633" y1="98.92967" x2="238.06355" y2="132.83085" gradientUnits="userSpaceOnUse" id="color-9"><stop offset="0" stop-color="#000000" stop-opacity="0.19216"/><stop offset="1" stop-color="#a9a9a9" stop-opacity="0.21961"/></linearGradient><linearGradient x1="259.84815" y1="81.85444" x2="273.21693" y2="108.53434" gradientUnits="userSpaceOnUse" id="color-10"><stop offset="0" stop-color="#000000" stop-opacity="0.19216"/><stop offset="1" stop-color="#a9a9a9" stop-opacity="0.21961"/></linearGradient><linearGradient x1="241.56894" y1="69.80665" x2="263.74763" y2="107.21867" gradientUnits="userSpaceOnUse" id="color-11"><stop offset="0" stop-color="#696969"/><stop offset="1" stop-color="#212121"/></linearGradient></defs><g transform="translate(-193.3291,-56.78388)"><g stroke-miterlimit="10"><path d="M291.07914,360.67937l-21.0606,-145.77528c0,0 2.69522,-26.27053 11.57292,-27.84172c8.81629,-1.56031 29.76503,-4.86485 48.01816,-8.09533c19.79766,-3.50382 28.91885,12.61493 28.91885,12.61493l20.63301,161.23304z" fill="url(#color-1)" stroke="#000000" stroke-width="0" stroke-linecap="butt" stroke-linejoin="miter"/><path d="M278.1411,361.69914l-20.56789,-140.27056c0,0 0.30069,-17.37917 4.60193,-18.36983c4.2715,-0.98381 22.92872,-19.50358 31.77236,-21.54045c9.59198,-2.20921 -6.15521,20.07826 -6.15521,20.07826c0,0 5.00355,30.17171 10.08265,58.74268c2.75262,15.48401 5.5274,30.49784 7.53997,39.98416c5.45384,25.70692 15.95707,59.55281 15.95707,59.55281c0,0 -24.885,5.75275 -32.56663,6.07666c-6.54632,0.27604 -10.66427,-4.25372 -10.66427,-4.25372z" fill="url(#color-2)" stroke="#000000" stroke-width="0" stroke-linecap="butt" stroke-linejoin="miter"/><path d="M348.68883,360.43399c0,0 0.93409,-36.21657 -0.58699,-62.73866c-1.59704,-27.84625 -8.77846,-100.56003 -8.77846,-100.56003c0,0 -19.41608,-14.99896 -10.39323,-16.64815c8.31893,-1.52052 30.12737,4.01331 34.1454,3.27888c4.04606,-0.73954 11.39039,18.45096 11.39039,18.45096l12.88224,143.06605c0,0 1.57135,5.97754 -4.21325,8.24456c-6.90309,2.70539 -34.44608,6.90638 -34.44608,6.90638z" fill="url(#color-3)" stroke="#000000" stroke-width="0" stroke-linecap="butt" stroke-linejoin="miter"/><path d="M326.1689,190.28125c0.8069,6.16205 -4.37967,11.92217 -11.58449,12.86561c-7.20486,0.94344 -13.69963,-3.28706 -14.50652,-9.44908c-0.8069,-6.16205 4.37967,-11.92217 11.58449,-12.86561c7.20486,-0.94344 13.69963,3.28706 14.50652,9.44908z" fill="url(#color-4)" stroke="#000000" stroke-width="0" stroke-linecap="butt" stroke-linejoin="miter"/><path d="M307.47266,244.17174l26.81055,-3.24371" fill="none" stroke="#ffffff" stroke-width="2.5" stroke-linecap="round" stroke-linejoin="miter"/><path d="M318.96075,231.9869l3.26561,24.9386" fill="none" stroke="#ffffff" stroke-width="2.5" stroke-linecap="round" stroke-linejoin="miter"/><path d="M328.86745,230.15564l-7.98478,10.39101" fill="none" stroke="#ffffff" stroke-width="2.5" stroke-linecap="round" stroke-linejoin="miter"/><path d="M329.53923,249.55961l-9.99101,-6.96911l-10.19727,-8.54418" fill="none" stroke="#ffffff" stroke-width="2.5" stroke-linecap="round" stroke-linejoin="miter"/><path d="M312.94473,253.33467l7.65352,-10.88167" fill="none" stroke="#ffffff" stroke-width="2.5" stroke-linecap="round" stroke-linejoin="miter"/><path d="M344.55174,239.82071l0.1876,-12.84117l14.87252,-0.61244l1.40938,10.76298" fill="none" stroke-opacity="0.46667" stroke="#000000" stroke-width="2.5" stroke-linecap="round" stroke-linejoin="miter"/><path d="M364.00103,355.72409l-9.60445,-112.0896" fill="none" stroke-opacity="0.46667" stroke="#000000" stroke-width="2.5" stroke-linecap="round" stroke-linejoin="miter"/><path d="M284.53888,250.51283l20.87522,110.4799" fill="none" stroke-opacity="0.46667" stroke="#000000" stroke-width="2.5" stroke-linecap="round" stroke-linejoin="miter"/><path d="M280.0418,250.83469l-2.02503,-9.34728l11.58487,-1.24999l2.7563,10.85361" fill="none" stroke-opacity="0.46667" stroke="#000000" stroke-width="2.5" stroke-linecap="round" stroke-linejoin="miter"/><path d="M335.18592,118.667c12.36007,25.74046 1.80491,59.81789 -25.46662,72.91315c-27.27152,13.09529 -60.93225,0.24947 -73.29232,-25.49098c-12.36006,-25.74045 -0.27196,-57.22305 26.99958,-70.3183c27.27152,-13.09529 59.39929,-2.84433 71.75937,22.89614z" fill="url(#color-5)" stroke="#000000" stroke-width="0" stroke-linecap="butt" stroke-linejoin="miter"/><path d="M294.34768,139.57566c14.19551,25.04226 17.97363,49.94587 17.97363,49.94587c0,0 -19.0623,-16.2396 -33.25781,-41.28185c-4.25328,-7.50321 -17.05063,-18.12764 -20.04031,-24.66927c-6.98851,-15.29131 -0.97687,-23.33012 1.97916,-25.00576c2.78754,-1.58015 13.75525,-0.58442 22.58863,11.88696c4.54124,6.41152 5.93673,20.62119 10.75671,29.12406z" fill-opacity="0.23529" fill="#000000" stroke="none" stroke-width="0" stroke-linecap="butt" stroke-linejoin="round"/><path d="M294.04714,122.27241c1.55178,2.22031 -2.64292,7.83112 -9.3692,12.53212c-6.72624,4.70099 -13.43691,6.71198 -14.98869,4.49164c-1.55178,-2.22031 2.64295,-7.83112 9.3692,-12.53211c6.72624,-4.70099 13.43691,-6.71196 14.98869,-4.49164z" fill-opacity="0.23137" fill="#000000" stroke="none" stroke-width="0" stroke-linecap="butt" stroke-linejoin="miter"/><path d="M263.44064,144.1709c1.14306,1.92044 0.36093,4.49427 -1.74686,5.74884c-2.1078,1.25456 -4.74313,0.71473 -5.88615,-1.20571c-1.14306,-1.92045 -0.36093,-4.49427 1.74686,-5.74884c2.1078,-1.25456 4.7431,-0.71474 5.88616,1.20572z" fill="#ffffff" stroke="#000000" stroke-width="2.5" stroke-linecap="butt" stroke-linejoin="miter"/><path d="M304.74757,113.13207c1.14307,1.92046 0.36094,4.49428 -1.74686,5.74885c-2.1078,1.25456 -4.74312,0.71472 -5.88616,-1.20572c-1.14306,-1.92044 -0.36094,-4.49427 1.74686,-5.74883c2.1078,-1.25456 4.74312,-0.71473 5.88616,1.2057z" fill="#ffffff" stroke="#000000" stroke-width="2.5" stroke-linecap="butt" stroke-linejoin="miter"/><path d="M256.14647,142.75097l2.12285,-2.89785l2.62653,-1.67716" fill="none" stroke="#000000" stroke-width="2.5" stroke-linecap="round" stroke-linejoin="miter"/><path d="M263.46236,148.0177l2.58841,-2.40866" fill="none" stroke="#000000" stroke-width="2.5" stroke-linecap="round" stroke-linejoin="miter"/><path d="M266.84855,144.02715l0.23694,-3.89984" fill="none" stroke="#000000" stroke-width="2.5" stroke-linecap="round" stroke-linejoin="miter"/><path d="M302.48017,121.19306l-3.9189,-0.60268l-6.59347,-2.6638" fill="none" stroke="#000000" stroke-width="2.5" stroke-linecap="round" stroke-linejoin="miter"/><path d="M257.39542,99.62779c21.43205,-12.14901 41.72786,-16.84353 45.33198,-10.4855c3.60412,6.35803 -10.84825,21.36095 -32.28029,33.50996c-21.43205,12.14901 -41.72787,16.84353 -45.33199,10.4855c-3.60412,-6.35803 10.84827,-21.36094 32.2803,-33.50996z" fill="#000000" stroke="none" stroke-width="0" stroke-linecap="butt" stroke-linejoin="miter"/><path d="M267.30483,109.15839l1.13646,-0.34968c1.38088,-0.48632 2.6759,-1.10301 4.02744,-1.64415c0.58171,-0.46856 1.17156,-0.9287 1.77308,-1.37661c0.9345,-0.84509 1.89935,-1.72684 2.89694,-2.59188c-1.79832,-2.142 -3.54455,-4.35596 -5.79433,-6.11951c-0.31319,0.11902 -0.66725,0.21892 -1.06425,0.29847c-0.56863,0.11394 -1.18126,0.16923 -1.81961,0.17129c7.90019,-1.51357 15.6714,-6.36867 22.46344,-11.27779c0.09203,0.41788 0.18147,0.83258 0.27129,1.24094c0.60766,0.44331 1.23467,0.86137 1.84587,1.3004l0,-0.00001c-0.25474,-0.5876 -0.4773,-1.21403 -0.66457,-1.73401c-0.4784,-0.2709 -0.95556,-0.5455 -1.43216,-0.82208c2.56579,-1.85507 4.99166,-3.71739 7.2317,-5.40957c1.80991,-1.36724 3.95636,-2.60919 6.0805,-3.92994c0.08672,0.18876 0.17053,0.37821 0.25117,0.5684c0.29926,0.4584 0.59855,0.91686 0.89797,1.37529l-0.07008,0.13879l0.11374,-0.05132l0.8878,1.96807c0.22325,0.49492 0.09774,1.05847 -0.27218,1.41467c0.27526,0.59576 0.54928,1.19288 0.8225,1.79123c0.44349,0.78995 0.87541,1.58489 1.2932,2.38525c0.15513,0.25301 0.30901,0.50671 0.46166,0.76098c0.8503,1.18967 1.68197,2.37321 2.50454,3.52058c0.35854,0.70283 0.73773,1.39091 1.12356,2.07359c0.09025,0.02687 0.1813,0.05296 0.27319,0.07815c1.14855,0.31507 2.0761,0.12607 3.10763,0.98151c1.71304,1.4206 2.85025,4.03864 4.0022,6.22746c0.21661,0.08237 0.41092,0.22482 0.55561,0.41823l0.83157,1.06726l-0.19758,0.15395l0.08782,0.17526c0.07543,0.15137 0.14969,0.30348 0.22282,0.45629c1.16285,1.28669 2.1537,2.86092 3.03944,4.54719c0.05434,-0.3944 0.29575,-0.7562 0.67858,-0.94802c0.6172,-0.30928 1.36826,-0.05963 1.67753,0.55757l0.81321,1.6229l-0.30461,0.15263c1.66194,2.33094 2.79129,5.15634 3.13909,8.03257c0.05802,0.08003 0.11613,0.16 0.17435,0.23992l-0.1265,0.20888c0.02239,0.24261 0.03915,0.48543 0.05013,0.72817l-0.00002,0c2.19578,3.3621 4.23776,6.83987 6.38595,10.39236c0.31262,0.51699 0.70484,1.09159 1.10586,1.70092c-0.47216,-2.49058 -0.96916,-4.98988 -1.74314,-7.34611c-1.54949,-4.71718 -4.69011,-9.14936 -7.56199,-13.08668c0,0 -0.73609,-1.01029 0.27419,-1.74638c1.01029,-0.73609 1.74638,0.27419 1.74638,0.27419c3.0016,4.12453 6.24414,8.75908 7.88539,13.68948c1.31985,3.96489 1.8774,8.32816 2.7782,12.40789l-0.0097,0.0716l0.01907,-0.00202l0.26078,2.45702c0.06657,0.51265 -0.19166,1.03383 -0.67996,1.2785c-0.5622,0.28171 -1.23543,0.09971 -1.58471,-0.40142l-1.1984,-1.65702l0.30917,-0.2236c-3.02749,-3.59628 -4.90511,-8.3483 -7.29918,-12.40199c1.58355,4.00515 3.17722,7.9894 3.77425,12.13371l0.2732,-0.09133l0.67243,2.01149c0.20606,0.58517 -0.05053,1.24608 -0.61971,1.5313c-0.6172,0.30928 -1.36826,0.05963 -1.67753,-0.55757l-0.67768,-1.35243c-1.46282,-2.91933 -2.75508,-5.88504 -4.05119,-8.8549c-0.09069,0.08909 -0.19663,0.16575 -0.3164,0.22576c-0.16533,0.08284 -0.34025,0.12559 -0.51373,0.1319c0.76015,1.68289 1.54518,3.35408 2.37303,5.00546c2.15631,4.30133 5.21789,8.86318 6.50433,13.58957l0.0722,0.09909l0.22586,-0.11317l0.72542,1.4477c0.30928,0.6172 0.05963,1.36826 -0.55757,1.67753c-0.56094,0.28107 -1.23243,0.10051 -1.58237,-0.39807l-0.94575,-1.29806c-3.06785,-3.94242 -6.3413,-7.72953 -9.27172,-11.78837c1.0937,3.12087 2.22702,6.23757 3.39097,9.37042c0.49168,0.96786 0.95747,1.94167 1.36661,2.93387c0.36168,0.72114 0.72323,1.44232 1.08464,2.16358l0.96723,1.93028c0.30928,0.6172 0.05963,1.36826 -0.55757,1.67753c-0.6172,0.30928 -1.36826,0.05963 -1.67753,-0.55757l-0.96723,-1.93028c-0.1225,-0.24449 -0.245,-0.48899 -0.36749,-0.73349c-1.59073,-1.71632 -2.62376,-5.23611 -3.50141,-6.98761c-3.02761,-6.04218 -6.05523,-12.08435 -9.08284,-18.12654c-0.19362,-0.09022 -0.3653,-0.23033 -0.4937,-0.41328l-0.9546,-1.3102l0.03528,-0.02571l-0.09254,-0.06013c-0.18025,-0.35781 -0.36475,-0.71221 -0.55185,-1.06408c-0.54911,-0.60527 -0.9484,-1.50057 -1.36029,-2.32567c0.52732,1.13055 1.10187,2.24007 1.66744,3.35755c0.0113,0.01973 0.01696,0.031 0.01696,0.031l-0.0009,0.00072c0.08116,0.16042 0.16211,0.32101 0.24271,0.48185l-1.23846,0.3187l-0.99664,0.80126c-0.08042,-0.16052 -0.16098,-0.32139 -0.24158,-0.48262l-0.00023,0.00005c0,0 -0.00186,-0.00371 -0.00515,-0.01083c-1.0454,-2.09141 -2.09989,-4.24453 -3.01549,-6.44738c-0.49314,0.48673 -1.14066,0.98496 -1.59443,0.80742c0.10219,0.22623 0.18793,0.45151 0.21447,0.59921c0.14743,0.82024 0.414,1.61493 0.59012,2.42948c0.57462,2.65783 1.13696,4.74443 1.05224,7.13483l0.27734,-0.01445l0.08014,1.53852c0.03412,0.46665 -0.19635,0.93344 -0.63048,1.17952c-0.36494,0.20686 -0.78979,0.21018 -1.14338,0.04619c0.17405,0.65897 0.29105,1.28407 0.35251,1.95089l0.23746,-0.04663l0.31492,1.60333c0.05116,0.23166 0.03415,0.47037 -0.04341,0.68847c2.3096,2.82595 4.44638,5.731 5.33517,9.19609l0.05526,0.07817l0.28555,-0.12242l12.97049,20.76356c0.2582,0.5808 -12.31304,-18.04474 -12.87749,-17.72478c-0.56814,0.32205 14.07933,22.80322 13.71572,22.27533l-16.3301,-24.02359c-3.28997,-3.44177 -6.32156,-6.93724 -9.594,-10.12553c2.2129,3.60966 3.99155,7.37353 5.5079,11.25907c0.33695,0.57212 0.67675,1.14179 1.02034,1.70824c2.09203,3.44904 4.93552,6.94944 6.83321,10.65656c0.31159,0.44831 0.62311,0.89631 0.93447,1.34405l0.03124,-0.02276l0.95283,1.30777c0.04547,0.06015 0.08613,0.12528 0.12114,0.19514c0.18065,0.36051 0.1706,0.7667 0.00801,1.10383c0.57829,1.0354 1.08802,2.09084 1.4828,3.17247c0.03528,0.04895 0.07058,0.09788 0.10588,0.14683l-0.00971,0.02067l0.01629,-0.0113l0.25714,0.37074l0.19548,-0.09795l0.72542,1.4477c0.30928,0.6172 0.05963,1.36826 -0.55757,1.67753c-0.56918,0.28521 -1.25219,0.0951 -1.59759,-0.42025l-1.07225,-1.54595c-1.32895,-1.84348 -2.65232,-3.69073 -3.99296,-5.52404c1.18361,2.52458 2.24128,5.11857 3.08027,7.83742l-0.00138,0.02128l0.00686,-0.00188l0.35712,1.30499c0.16793,0.56934 -0.09024,1.19457 -0.63957,1.46983c-0.47969,0.24037 -1.04026,0.14313 -1.41141,-0.2019l-1.0653,-0.9453l0.02383,-0.02685c-0.06363,-0.04628 -0.12559,-0.09515 -0.18566,-0.1469c-0.57722,-0.49741 -1.56025,-3.4815 -1.76741,-4.10846c-0.74212,-2.24597 -1.37692,-4.53331 -1.97467,-6.82665c-1.85721,-3.63727 -3.92114,-7.16343 -5.87125,-10.76911c-3.69341,-5.10384 -7.46602,-10.13831 -11.02356,-15.37278c-1.40336,-2.06487 -4.35191,-5.50322 -4.62572,-7.98678c-0.03698,-0.33539 -0.05722,-0.64703 -0.05925,-0.93497c-1.3554,-0.71132 -2.70473,-1.42255 -3.99526,-2.25033c-0.01788,-0.01148 -1.87269,-1.15612 -1.99175,-1.14694c-0.61078,0.04704 -0.28766,1.1937 -0.49821,1.76896c-0.19104,0.52194 -0.37856,1.19582 -0.62133,1.8737c-0.44961,1.25535 -1.08872,2.52443 -2.29054,2.86767c-0.46989,0.1342 -3.30481,-1.33673 -3.68171,-1.55458c-0.53161,-0.30728 -1.24748,-1.25648 -1.65898,-0.80072c-0.52113,0.57717 -0.61083,2.82677 -0.83703,3.52924c-0.61624,1.91364 -1.32664,2.99399 -2.79602,4.34116c-1.48941,1.51416 -2.47306,2.86822 -4.85751,2.37681c-0.64622,-0.13317 -1.31077,-1.59945 -1.67741,-1.0509c-0.36953,0.55286 -0.51857,1.7072 -0.71859,2.9408c0.05463,0.10903 0.10927,0.21806 0.1639,0.32709l0.60451,1.20643c0.30928,0.6172 0.05963,1.36826 -0.55757,1.67753c-0.36362,0.1822 -0.77371,0.17041 -1.11254,0.00377c-0.31825,0.56344 -0.74675,0.97955 -1.34528,1.13327c-0.77312,0.19855 -1.51759,-0.51087 -2.23297,-0.86499c-1.87363,-0.92753 -3.94222,-2.5719 -5.54184,-4.25763c0.5649,2.4146 0.90911,4.90365 0.83329,7.29827l0.4815,0.00597l-0.02984,2.41109c0.00248,0.43798 -0.22567,0.86436 -0.63378,1.09568c-0.17384,0.09855 -0.3613,0.1509 -0.54818,0.16097c4.0634,9.00909 12.97756,16.04939 14.70833,25.97962l0.21918,-0.09045l0.53267,1.29093c0.2483,0.57786 0.02708,1.26221 -0.53273,1.57954c-0.51751,0.29336 -1.1555,0.17734 -1.53991,-0.24463l-0.94166,-0.98939c-4.16195,-3.48508 -7.08178,-8.4664 -10.7304,-12.50779c-4.46726,-4.41622 -6.3313,-11.63616 -8.81402,-17.26091c-0.78624,-1.78127 -1.67795,-3.37662 -2.81164,-4.96118c-0.33999,-0.47521 -0.67478,-0.95412 -1.01183,-1.43143c-0.0796,-0.11271 -0.19547,-0.25865 -0.31713,-0.41588c-0.05767,0.40704 -0.16189,0.83771 -0.21947,1.13277c-0.3689,0.76326 -0.32751,1.95585 -1.1067,2.28981c-1.60953,0.68983 -3.52908,-1.66817 -4.66409,-3.7343c0.35164,2.68602 1.16589,5.21269 2.41683,7.61798c0.09474,0.15338 0.18271,0.3082 0.24947,0.46754c0.06389,0.11676 0.12881,0.23326 0.1948,0.34945l0.00219,0.04593c0.00299,0.00574 0.00599,0.01148 0.00897,0.01722l0.01543,-0.00683l0.10437,0.23623c1.22156,2.33611 2.48318,4.6542 3.70664,6.98001c0.3631,0.58029 0.7069,1.1696 1.02646,1.76845c1.48848,0.88748 2.96609,2.33886 3.96684,3.28123c3.44731,3.24614 7.74331,7.92249 10.37214,12.79894c0.51207,0.4766 1.02038,0.95721 1.52462,1.4421c2.87191,2.76173 5.96839,5.07034 7.67705,8.39733l0.42907,-0.21499l0.84632,1.689c0.30928,0.6172 0.05963,1.36826 -0.55757,1.67753c-0.37027,0.18554 -0.78872,0.16992 -1.13106,-0.00553l-1.19445,-0.59594c-5.42743,-2.70904 -10.40797,-6.089 -15.11998,-9.84002c4.06686,7.04175 8.38821,14.22725 13.86824,19.86714l0.02814,0.08856l0.02627,-0.01914l0.95283,1.30777c0.04547,0.06015 0.08613,0.12528 0.12114,0.19514c0.30928,0.6172 0.05963,1.36826 -0.55757,1.67753c-0.39406,0.19745 -0.84269,0.16709 -1.19606,-0.04132l-1.67371,-0.95448l0.01506,-0.02641c-0.05889,-0.02593 -0.11729,-0.05326 -0.17512,-0.0821c-0.67963,-0.3389 -2.00576,-2.32881 -2.51457,-2.99906c-1.52343,-2.00677 -3.05311,-3.98494 -4.50343,-6.04665c-5.57024,-7.91843 -11.29921,-15.85423 -17.219,-23.47792l0.32087,0.56607c0.34044,0.60057 0.12957,1.36341 -0.47101,1.70386c-0.60058,0.34044 -1.36342,0.12956 -1.70386,-0.47101l-0.77792,-1.37233c-1.27908,-2.25643 -2.55912,-4.51229 -3.83557,-6.7702c-2.37496,-5.52169 -4.92684,-12.11915 -3.26445,-18.22635c0.76324,-2.80391 2.17563,-5.4493 3.65661,-7.94568c0,0 0.29868,-0.50289 0.83144,-0.61635c0.18737,-0.30591 0.38166,-0.61315 0.58296,-0.92216c0.01039,-0.59289 0.5222,-0.94906 0.63723,-1.0217l0.36134,-0.60837c0.10772,-0.18925 0.26631,-0.35279 0.46952,-0.46797c0.24758,-0.14035 0.52277,-0.187 0.78456,-0.15126c2.43732,-2.16062 4.87436,-4.12271 7.93171,-5.38416c5.93565,-2.54494 12.10484,-4.55777 17.61661,-7.98026c0.87448,-0.543 1.71801,-1.12025 2.53954,-1.72205c0.66528,-1.30836 1.4186,-2.5795 2.24664,-3.83132l0.89835,-1.35004c0.11727,-0.18349 0.28401,-0.33871 0.49284,-0.44336c0.1233,-0.06179 0.25195,-0.10126 0.38136,-0.11996c0.24986,-0.23294 0.53903,-0.3222 0.53903,-0.3222zM239.5293,164.11538c-0.69532,-0.62939 -1.5842,-1.10508 -1.97222,-1.94362c-0.04061,-0.08778 -0.07594,-0.17711 -0.10673,-0.26774l-0.05182,0.02598l-0.60451,-1.20643c-0.30928,-0.6172 -0.05963,-1.36826 0.55757,-1.67753c0.20619,-0.10332 0.42733,-0.14426 0.64194,-0.12996c-0.02224,-0.48261 0.06139,-0.92535 0.39076,-1.23585c0.00468,-0.00442 0.0094,-0.00878 0.01413,-0.01311c-1.65849,-1.9452 -4.05661,-4.15871 -4.73452,-6.20353c-0.01994,-0.06012 -0.03838,-0.12056 -0.05546,-0.18129l-0.02133,0.00755l-0.72041,-2.03555c-0.2184,-0.58979 0.03754,-1.26194 0.61286,-1.55022c0.23942,-0.11998 0.49899,-0.15583 0.7451,-0.11877c-0.81738,-1.53306 -1.46193,-3.19875 -1.9071,-4.87814l-0.18372,0.66463l-0.20014,-0.05533c-0.34516,7.15013 2.71648,13.79141 4.22753,20.58316c0.11187,-0.26365 0.31441,-0.49043 0.59052,-0.62878c0.51933,-0.26023 1.13344,-0.12475 1.49939,0.29246l1.3102,1.42684l-0.13724,0.12602c0.3577,0.25014 0.71068,0.507 1.05961,0.7696c-0.3375,-0.58901 -0.66164,-1.18166 -0.9544,-1.77037zM287.18016,94.60686c-0.42674,0.14766 -0.88874,0.0499 -1.21768,-0.22962l-0.6301,-0.51306c-0.24679,0.57465 -0.59583,1.09823 -1.12683,1.52524c-0.72047,0.57935 -1.54294,0.87158 -2.42067,0.9558c0.14743,0.52122 0.28354,1.03954 0.4075,1.55101l0.18211,-0.08215l0.52389,1.16138c0.44152,-0.24722 0.88874,-0.47694 1.34183,-0.68595c1.43749,-0.66309 2.95208,-1.14763 4.47015,-1.62116c-0.53937,-0.68405 -1.06126,-1.42697 -1.53021,-2.06149zM287.88873,91.54242c1.88408,1.10249 3.74649,2.24637 5.59717,3.44689c0.2075,-0.09217 0.41347,-0.18779 0.61764,-0.2874c0.0143,-0.28852 0.04205,-0.58584 0.05639,-0.88666c-0.93036,-0.70737 -1.77934,-1.39582 -2.29653,-1.753c-0.23464,-0.16205 -0.46885,-0.32418 -0.70267,-0.4864c-1.15619,0.76868 -2.54788,-0.01954 -3.80939,-1.23019c0.07652,0.25759 0.16212,0.50787 0.26219,0.74599l-0.00854,0.14176l0.04061,-0.00734l0.01218,0.0674c0.07709,0.08296 0.15406,0.16594 0.23093,0.24895zM309.96783,110.58482c0.44613,-0.22355 0.96219,-0.15508 1.33079,0.13313l0.96398,0.72166c-0.2146,-0.56571 -0.40205,-1.13283 -0.55841,-1.70048c-0.07434,-0.10855 -0.14866,-0.2171 -0.22299,-0.32571l-0.14223,0.07126l-0.3179,-0.63443c-0.56342,-0.39367 -1.12383,-0.78032 -1.68114,-1.15501c-0.34971,-0.23512 -0.74636,-0.47494 -1.14586,-0.73001c0.56783,1.18297 1.1805,2.42886 1.66469,3.68111c0.03494,-0.02209 0.07133,-0.04265 0.10907,-0.06157zM254.61415,177.77801c-1.03607,-1.14455 -2.06229,-2.29474 -3.07691,-3.4531c-0.5199,0.07646 -0.96656,-0.25793 -0.96656,-0.25793l-0.77511,-0.60547c-0.59243,-0.29644 -1.16665,-0.62681 -1.72404,-0.98582c0.54629,0.49143 1.09568,0.9782 1.65138,1.45574c1.55573,1.33695 3.19434,2.62244 4.89123,3.84659zM318.74948,115.20208c0.05573,0.08031 0.11149,0.16065 0.1673,0.24097c0.67965,0.97816 1.3629,1.90575 2.02632,2.81263c-0.59285,-1.30987 -1.19342,-2.6165 -1.80625,-3.91804c-0.2718,-0.16133 -0.54304,-0.32611 -0.8137,-0.49385c0.14707,0.4506 0.28994,0.90304 0.42633,1.35828zM324.24779,118.76617c-0.13207,-0.39473 -0.26187,-0.7918 -0.39008,-1.19075c-0.20174,-0.3912 -0.40225,-0.78205 -0.60018,-1.17336c-0.17665,0.0199 -0.35442,0.00153 -0.5213,-0.05179c0.72331,1.65245 1.43069,3.31167 2.1388,4.97012c-0.20852,-0.92752 -0.38601,-1.83318 -0.62724,-2.55422zM297.74064,92.01616c-0.40943,-0.4532 -0.8175,-0.90749 -1.22421,-1.36292c0.06399,0.49519 0.11412,0.98932 0.14977,1.48131c0.27136,0.17759 0.54215,0.35641 0.81213,0.53708c0.04391,0.02938 0.08717,0.05959 0.12993,0.09052c0.11902,-0.07011 0.238,-0.14028 0.35697,-0.21039c-0.07983,-0.17734 -0.15496,-0.35818 -0.2246,-0.53562zM293.24493,132.31822c-0.46945,-1.02458 -0.9309,-2.05943 -1.38802,-3.1056c-0.23237,-0.12611 -0.46693,-0.2502 -0.70381,-0.37223c0.21992,0.38727 0.41922,0.68777 0.45226,0.74606c0.52897,0.93338 1.07469,1.83838 1.63956,2.73178zM280.32456,100.31694l0.01039,-0.01079l-0.03646,-0.01507c-0.47957,-0.52124 -0.97819,-1.00049 -1.49443,-1.4433c0.4862,0.58961 0.95397,1.21336 1.40494,1.87349c0.1016,-0.07435 0.20355,-0.14807 0.3058,-0.22113zM261.28376,182.10922c-0.34619,-0.40124 -0.68346,-0.80463 -1.00931,-1.19021c-0.03517,0.16774 -0.1045,0.32755 -0.20435,0.46839c0.40299,0.24427 0.80765,0.48492 1.21364,0.72181zM231.64667,138.72745c-0.14594,0.3125 -0.28265,0.62723 -0.40783,0.94356c0.16409,-0.03843 0.33201,-0.0425 0.49393,-0.01491c-0.03644,-0.31192 -0.06519,-0.62173 -0.08611,-0.92867zM248.02839,166.51375c0.13436,0.10769 0.26861,0.21552 0.40273,0.32351c-0.42889,-0.49374 -0.8655,-0.97735 -1.30876,-1.44816c0.29965,0.37662 0.60172,0.75146 0.90602,1.12464zM307.05702,128.94515c-0.01633,-0.08666 -0.03093,-0.17367 -0.04436,-0.26012l-0.08058,0.21379c0.0419,0.01498 0.08355,0.03041 0.12493,0.04633zM250.10764,142.85851c-0.013,-0.06414 -0.0258,-0.12843 -0.03837,-0.19283l-0.07867,0.0446c0.03936,0.04933 0.07837,0.09874 0.11705,0.14823zM236.60998,165.80896l0.13303,0.23468l-0.24887,-0.49667c0.00506,0.02807 0.01008,0.05616 0.01508,0.08423c0.03359,0.05926 0.06718,0.11849 0.10078,0.17776zM236.96462,166.37355l-0.02695,0.0135l0.03625,0.06395z" fill="#000000" stroke="none" stroke-width="0.5" stroke-linecap="butt" stroke-linejoin="miter"/><path d="M327.36503,62.11938c0,0 -4.29469,6.93677 -10.13941,15.914c-2.57706,3.95826 -3.49319,8.31463 -7.80238,12.64559c-2.22613,2.23736 -0.98517,5.2847 -3.57586,7.6566c-2.54907,2.33379 -8.92412,3.99031 -11.81131,6.41861c-2.5019,2.10427 -8.78231,4.9655 -11.52779,7.11592c-3.71108,2.90672 -3.98597,5.11694 -8.12148,8.05843c-4.08924,2.90857 -6.01717,6.18728 -10.11707,8.84205c-2.4937,1.61472 -7.17193,2.69067 -9.6395,4.20163c-1.22966,0.75294 -4.40297,1.00398 -5.62188,1.72977c-3.65772,2.17794 -5.31246,4.72011 -8.82281,6.63689c-1.78675,0.97561 -4.63067,-0.36832 -6.8195,0.73157c-2.23556,1.12335 -3.81921,4.69081 -5.93804,5.71305c-4.60027,2.21943 -8.28683,3.92573 -8.28683,3.92573c0,0 -14.36612,4.02762 -18.01506,4.84002c-4.69069,1.04433 -7.79701,0.90675 -7.79701,0.90675c0,0 5.91345,-7.47743 13.40492,-18.02825c1.67574,-2.36006 0.38148,-5.99211 1.77262,-8.70165c1.42571,-2.77691 5.54942,-4.634 8.34589,-7.26268c2.66901,-2.50887 5.72753,-7.35184 9.96625,-10.85217c6.71297,-5.5436 14.55057,-9.55772 14.55057,-9.55772c0,0 3.70823,-2.72984 5.62687,-4.09452c2.29007,-1.62888 6.56761,-3.34787 9.29761,-5.10146c8.75978,-5.62682 15.99184,-12.33034 23.42459,-16.72953c6.71032,-3.97159 14.07968,-5.92951 14.07968,-5.92951c0,0 2.43432,2.46629 3.87139,1.81734c1.26474,-0.57114 4.30034,-5.50753 4.30034,-5.50753c0,0 4.97698,-3.62357 7.03067,-1.49191c1.97256,2.04744 5.54944,1.67366 9.02584,0.55721c0.82183,-0.26392 0.66143,2.59655 1.4495,2.27178c3.77993,-1.55769 7.88917,-6.72595 7.88917,-6.72595z" fill="url(#color-6)" stroke="#000000" stroke-width="0" stroke-linecap="butt" stroke-linejoin="miter"/><path d="M317.01641,186.98317c1.16329,2.32156 -1.00379,1.03778 -4.57429,0.49803c-0.71198,-0.10763 -1.69902,-0.77915 -2.63303,-1.13339c-0.57622,-0.21854 -1.13226,-0.3163 -1.59109,-0.08638c-0.711,0.35627 -0.01836,2.30344 -0.34845,3.02608c-0.33621,0.73605 -1.69245,0.24946 -2.1279,0.81148c-2.10286,2.71397 -3.76656,4.63617 -4.8573,2.45942c-0.25475,-0.50839 -0.39106,-0.14408 -0.42013,-0.71483c-0.07332,-1.44003 -0.37032,-2.80073 0.77805,-4.51537c1.14509,-1.70976 3.73249,-3.77405 5.78731,-4.80368c2.585,-1.2953 6.32925,-2.76734 8.05545,-1.60956c1.56744,1.0513 1.19927,4.60714 1.93137,6.06821z" fill="#060606" stroke="none" stroke-width="0" stroke-linecap="butt" stroke-linejoin="miter"/><path d="M306.68496,191.84805c-1.11756,0.55999 -1.67753,-0.55757 -1.67753,-0.55757l-0.27398,-0.54678c-0.5686,-1.13473 -1.1279,-2.27232 -1.68194,-3.41147c-0.43562,-0.02163 -0.84734,-0.271 -1.05667,-0.68876l-0.63929,-1.27581c-0.19525,-0.38966 -0.39517,-0.78025 -0.59851,-1.17181c-0.33506,-0.382 -0.53569,-0.88903 -0.78904,-1.49689c-1.30964,-2.45643 -2.69399,-4.95556 -3.8626,-7.51818c-0.78889,-1.48523 -1.57273,-2.97442 -2.32952,-4.48476l-0.82193,-1.64032c-0.30928,-0.6172 -0.05963,-1.36826 0.55757,-1.67753c0.01284,-0.00644 0.02573,-0.01262 0.03867,-0.01858c-0.07182,-0.42627 -0.13117,-0.85463 -0.1769,-1.28514c0,0 -0.13193,-1.24302 1.11107,-1.37495c1.24302,-0.13192 1.37495,1.11108 1.37495,1.11108c0.08311,0.7839 0.21566,1.56149 0.38963,2.33305c0.04804,0.02549 0.09538,0.05279 0.14195,0.08201c1.15394,0.72424 2.26099,4.34557 2.90584,5.6325c2.62204,5.2328 5.04804,10.52936 7.6718,15.76558l0.27398,0.54678c0,0 0.55999,1.11756 -0.55757,1.67753z" fill="#000000" stroke="none" stroke-width="0.5" stroke-linecap="butt" stroke-linejoin="miter"/><path d="M317.07219,185.0409l-1.12884,1.22585c-0.75017,-1.49711 -1.50034,-2.99422 -2.25052,-4.49133c-0.10027,-0.05822 -0.19301,-0.13068 -0.27484,-0.21629l-0.89208,-0.89055l0.33284,-0.33342c-2.35529,-2.22114 -3.24654,-5.53851 -4.5142,-8.77817l-0.89416,-1.78447c-0.30928,-0.6172 -0.05963,-1.36826 0.55757,-1.67753c0.58009,-0.29068 1.2784,-0.08764 1.61707,0.45024l0.1386,0.21378c0.67736,0.03608 1.01661,0.71311 1.01661,0.71311c0.88985,1.77586 1.71297,3.57825 2.54616,5.37482c1.52043,2.78527 2.76221,5.84315 4.03099,8.5873c0.39096,0.2613 0.53223,0.71899 0.53223,0.71899l-0.12873,0.13979c0.13836,0.28923 0.27742,0.57407 0.41756,0.85375z" fill="#000000" stroke="none" stroke-width="0.5" stroke-linecap="butt" stroke-linejoin="miter"/><path d="M262.49184,146.42206c0.76828,0.98603 -0.21775,1.75431 -0.21775,1.75431l-0.34776,-0.19317c-0.06629,0.53402 -0.15337,1.0812 -0.24382,1.63549c0.54982,-0.12791 1.13583,0.1311 1.39985,0.65802c0.0416,0.08302 0.07309,0.16848 0.09493,0.25494l0.54193,1.98034l-0.22169,0.06066c0.43377,0.97652 0.77876,1.9649 1.2029,3.23232l0.54009,1.52606c0.2184,0.58979 -0.03755,1.26194 -0.61287,1.55022c-0.02348,0.01176 -0.04712,0.0227 -0.07094,0.03286c0.40144,0.9017 0.77883,1.82313 1.16277,2.73285c1.36407,1.69153 2.70784,3.41222 3.66792,5.30819c1.46173,2.91713 3.11656,5.81771 4.01497,8.97534c0.06092,0.21412 0.11083,0.42739 0.15326,0.63989c1.29121,2.34627 2.55972,4.70722 3.74666,7.11145c0.14616,0.64182 0.30234,1.30537 0.49092,1.96422c0.82349,0.97832 1.66771,1.94932 2.44408,3.00135c0.45585,0.61771 1.23409,1.58985 2.0189,2.67262c0.58275,0.32755 1.1473,0.67087 1.62353,1.12926c0.79192,0.76228 1.47644,2.2821 1.9818,3.29457l0.77122,1.11195c0.03808,0.05307 0.07248,0.10983 0.10268,0.17009c0.30928,0.6172 0.05963,1.36826 -0.55757,1.67753c-0.44613,0.22356 -0.96219,0.15508 -1.33079,-0.13313l-1.43797,-1.07653l0.01188,-0.01588c-0.02706,-0.01303 -0.05404,-0.02629 -0.08094,-0.03974c-1.40146,-0.70147 -2.45905,-2.5346 -3.39664,-4.30132c-0.92357,-0.69797 -1.84648,-1.45082 -2.63914,-2.56221c-0.79535,-1.11516 -1.34877,-2.41933 -1.7625,-3.7533c-1.34754,-1.62518 -2.62602,-3.28359 -3.48736,-5.32797c-0.57839,-1.37279 -0.59432,-2.69158 -0.86161,-4.05907c-2.55373,-4.69709 -5.16231,-9.35682 -7.56516,-14.1194c-2.11803,-2.40133 -4.30749,-4.82119 -4.79822,-7.84187c-0.80847,-0.89185 -0.49115,-2.5562 0.02328,-3.78056c0.16519,-1.36156 0.43211,-2.72371 0.59265,-4.01716l1.29217,-1.47094c0,0 0.98603,-0.76829 1.75431,0.21775z" fill="#000000" stroke="none" stroke-width="0.5" stroke-linecap="butt" stroke-linejoin="miter"/><path d="M268.474,140.21835c0.00759,0.7506 0.07282,3.55766 -0.07431,4.26463c-0.50908,2.44606 -0.72272,4.126 -3.63223,1.89716c-0.95716,-0.73323 -1.36529,-2.63185 -1.33897,-4.50539c-0.66644,-0.12068 -0.91868,-0.83341 -0.91868,-0.83341c-0.9167,-2.61882 -1.30014,-3.40914 1.16242,-4.99949l1.27581,-0.63929c0.6172,-0.30928 1.36827,-0.05962 1.67753,0.55757c0.1403,0.28 0.16558,0.58753 0.09371,0.86886l-0.15658,0.62859c0.47238,-0.0153 0.93316,0.23936 1.15878,0.68964c0.02368,0.04725 0.04408,0.09531 0.06129,0.14387l0.63338,1.71462l-0.07386,0.02728z" fill="#000000" stroke="none" stroke-width="0.5" stroke-linecap="butt" stroke-linejoin="miter"/><path d="" fill="url(#color-7)" stroke="none" stroke-width="0.5" stroke-linecap="butt" stroke-linejoin="miter"/><path d="" fill="url(#color-8)" stroke="none" stroke-width="0.5" stroke-linecap="butt" stroke-linejoin="miter"/><path d="M236.27239,97.53789c-2.76482,2.7754 -5.58292,5.50787 -7.90989,8.62352c0,0 -0.74913,1.00065 -1.74979,0.25151c-1.00065,-0.74913 -0.25151,-1.74979 -0.25151,-1.74979c3.87647,-5.16659 9.05369,-9.29381 13.15252,-14.28933l0.0579,-0.02737l-0.01634,-0.01632l1.15415,-1.15615c0.09683,-0.10164 0.21256,-0.18857 0.34528,-0.25508c0.6172,-0.30928 1.36826,-0.05963 1.67753,0.55757c0.19054,0.38027 0.16894,0.81136 -0.02009,1.15862l-0.38946,0.7372c0.45769,0.00046 0.89824,0.25322 1.11725,0.69029c0.17442,0.3481 0.17107,0.73878 0.02427,1.06877l-0.54378,1.24589l-0.12787,-0.0558l-0.01045,0.01832l-0.1709,-0.09746l-0.03893,-0.01699c-0.00216,0.00916 -0.00431,0.01832 -0.00649,0.02747l0.19434,0.124c-0.1251,0.18809 -0.25101,0.37544 -0.37768,0.56212c-1.05167,3.54297 -3.56691,6.58274 -5.66771,9.7408c-3.41934,5.14017 -7.37048,10.68288 -9.83682,16.3544c-1.65201,3.93312 -3.12522,7.57934 -4.15864,11.72825l-0.10493,0.32737c0,0 -0.39426,1.18619 -1.58045,0.79194c-1.18619,-0.39426 -0.79194,-1.58045 -0.79194,-1.58045l0.05144,-0.14308c1.06499,-4.27567 2.58487,-8.05736 4.28638,-12.10813c1.30065,-2.97012 2.9788,-5.74703 4.77298,-8.4615c-1.28547,1.66699 -2.53094,3.36738 -3.70418,5.12927c-3.92958,5.23503 -7.45908,11.50013 -7.98898,18.19515c-0.17434,2.20273 0.68177,4.43084 1.08548,6.56881c0,0 0.23143,1.22838 -0.99698,1.45982c-1.22838,0.23143 -1.45982,-0.99698 -1.45982,-0.99698c-0.44899,-2.38918 -1.30253,-4.76225 -1.12121,-7.22506c0.52546,-7.13736 4.2658,-13.85513 8.43939,-19.44392c2.75808,-4.14803 5.92172,-7.94903 9.06382,-11.77687c1.22961,-1.97072 2.45428,-3.94261 3.60209,-5.96077z" fill="url(#color-9)" stroke="none" stroke-width="0.5" stroke-linecap="butt" stroke-linejoin="miter"/><path d="M259.2509,114.57743c-0.88464,-0.88312 -0.00153,-1.76776 -0.00153,-1.76776l0.11524,0.02762c2.61894,-6.5429 5.86811,-12.75494 8.47714,-19.2816c-0.74892,1.55408 -1.51034,3.10105 -2.29749,4.63351c-2.19347,4.27033 -5.35857,8.0017 -7.60049,12.24946c0,0 -0.58391,1.10525 -1.68913,0.52134c-1.10525,-0.58391 -0.52134,-1.68913 -0.52134,-1.68913c2.2396,-4.23526 5.40683,-7.95795 7.58509,-12.21982c2.03542,-3.98238 3.9108,-8.0533 5.84071,-12.09705c1.07715,-2.56178 2.38288,-5.18567 3.23976,-7.80264l0.4691,-1.41135v0c0.1009,-0.30358 0.31761,-0.56866 0.62621,-0.72329c0.6172,-0.30928 1.36826,-0.05963 1.67753,0.55757c0.1391,0.27762 0.16514,0.58231 0.09551,0.8617l-0.58701,2.42235l-0.21387,-0.05183c-0.01392,0.03799 -0.0279,0.07597 -0.04194,0.11395c-0.70549,12.2442 -8.32362,23.7421 -12.73777,34.8433l-0.66793,0.81215c0,0 -0.88312,0.88464 -1.76776,0.00153z" fill="url(#color-10)" stroke="none" stroke-width="0.5" stroke-linecap="butt" stroke-linejoin="miter"/><path d="M258.24558,102.92934c0,0 -11.77632,-20.10425 -15.42348,-26.25647c-0.43383,-0.73181 -2.73183,0.45348 -4.14314,-0.33455c-3.35042,-1.87071 -6.99991,-5.57837 -6.99991,-5.57837c0,0 8.63642,2.54303 9.43911,1.68492c0.63771,-0.68175 0.16094,-2.37182 0.33681,-2.53346c0.15654,-0.14388 1.61301,0.34373 2.28538,-0.17754c1.19661,-0.92769 2.26708,-12.94998 2.26708,-12.94998c0,0 1.51725,6.18297 1.63605,10.93989c0.06736,2.69687 -1.58969,4.59874 -1.0601,5.4921c3.64715,6.15218 14.70257,25.72079 14.70257,25.72079c0,0 5.30869,-0.44179 5.35686,0.37862c0.02341,0.39898 -2.64446,-0.89454 -3.01831,1.43278c-0.24229,1.50837 6.32189,-0.87098 6.61121,0.17155c0.20038,0.72203 -5.85143,5.13306 -5.89847,5.17629c-0.10556,0.09702 0.34439,-2.05926 0.15172,0.87461c-0.15197,2.31433 0.81441,6.62411 0.57373,6.48016c-0.15507,-0.09276 -0.4469,0.41574 -0.55482,-0.42211c-0.31136,-2.41724 -2.01399,-4.65756 -2.01399,-4.65756c0,0 -2.659,0.25554 -3.87411,-0.67717c-0.57634,-0.44241 -7.76578,3.39612 -8.09598,2.79235c-0.65089,-1.19018 5.85898,-6.8482 5.73523,-7.00672c-0.72497,-0.92859 1.98656,-0.55013 1.98656,-0.55013z" fill="url(#color-11)" stroke="#000000" stroke-width="0" stroke-linecap="butt" stroke-linejoin="miter"/></g></g></svg>