<svg version="1.1" xmlns="http://www.w3.org/2000/svg" xmlns:xlink="http://www.w3.org/1999/xlink" width="34.17311" height="34.17311" viewBox="0,0,34.17311,34.17311"><g transform="translate(-302.91345,-162.91348)"><g data-paper-data="{&quot;isPaintingLayer&quot;:true}" stroke="none" stroke-miterlimit="10" stroke-dasharray="" stroke-dashoffset="0" style="mix-blend-mode: normal"><path d="M309.98311,162.91349h20.03379c3.9166,0 7.06966,3.15307 7.06966,7.06966v20.03379c0,3.91659 -3.15306,7.06966 -7.06966,7.06966h-20.03379c-3.91659,0 -7.06966,-3.15307 -7.06966,-7.06966v-20.03379c0,-3.91659 3.15307,-7.06966 7.06966,-7.06966z" fill="#babebf" fill-rule="evenodd" stroke-width="4.43922" stroke-linecap="round" stroke-linejoin="round"/><path d="M330.49487,189.66645c-2.21799,2.1926 -6.17651,3.15279 -9.13694,3.49971c-2.72542,-0.09407 -5.41172,-0.01935 -8.00313,-1.04175c-5.69,-2.24489 -7.50001,-8.95439 -5.60495,-14.38288c-0.33229,-0.24545 -0.61111,-0.51685 -0.80665,-0.81789c-1.32567,-2.04095 -0.46562,-4.92342 1.5038,-6.13514c3.878,-2.38601 9.30676,-1.27878 13.49934,-0.81357c0,0 0.07961,0.00885 0.18392,0.04678c2.42516,-0.15194 4.93131,-0.14852 7.30458,0.35374c1.37925,0.29379 3.63223,0.45746 4.67902,1.53569c1.74625,1.7987 -0.2888,3.97749 -2.30363,5.40659c2.58657,3.57653 1.76608,9.30258 -1.31536,12.34874zM313.94365,190.74483c2.37524,0.93505 4.85949,0.82448 7.35402,0.92254c5.6045,-0.66234 11.04143,-3.59609 10.44387,-9.98682c-0.12922,-1.38198 -0.36939,-2.45705 -1.19232,-3.54593l-0.00444,-0.00661c-0.40269,0.23173 -0.76454,0.41524 -1.04494,0.53849c-4.75444,2.08964 -12.49466,2.48282 -17.42117,0.90669c-0.80947,-0.26218 -1.96474,-0.60183 -3.00281,-1.07627c-1.53409,4.64578 0.02927,10.34315 4.86778,12.24791zM320.98787,171.37163c-3.77483,-0.47045 -8.37153,-1.2829 -11.77927,0.70912c-4.18556,2.4467 1.06304,5.33661 3.33058,6.06488c4.41283,1.4365 10.61644,0.89139 15.02654,-0.40349c1.75275,-0.51464 3.49354,-1.47981 4.74835,-2.83579c0.16823,-0.18179 1.34991,-1.46316 0.69195,-1.98394c-0.93916,-0.74336 -2.76775,-0.84231 -3.8836,-1.07986c-2.42251,-0.51937 -5.01154,-0.46557 -7.47217,-0.28492l-0.14387,0.00199c0,0 -0.29816,0 -0.51849,-0.18799z" fill="#000000" fill-rule="nonzero" stroke-width="0.5" stroke-linecap="butt" stroke-linejoin="miter"/></g></g></svg>