<svg version="1.1" xmlns="http://www.w3.org/2000/svg" xmlns:xlink="http://www.w3.org/1999/xlink" width="153.67497" height="310.84755" viewBox="0,0,153.67497,310.84755"><defs><linearGradient x1="309.9696" y1="170.82901" x2="319.48777" y2="348.07066" gradientUnits="userSpaceOnUse" id="color-1"><stop offset="0" stop-color="#353535"/><stop offset="1" stop-color="#565656"/></linearGradient><linearGradient x1="274.29624" y1="162.20348" x2="284.25091" y2="347.57331" gradientUnits="userSpaceOnUse" id="color-2"><stop offset="0" stop-color="#6c8dd1"/><stop offset="1" stop-color="#002994"/></linearGradient><linearGradient x1="343.75858" y1="163.14403" x2="353.71325" y2="348.51387" gradientUnits="userSpaceOnUse" id="color-3"><stop offset="0" stop-color="#6c8dd1"/><stop offset="1" stop-color="#002994"/></linearGradient><linearGradient x1="310.26658" y1="170.38656" x2="311.46431" y2="192.69005" gradientUnits="userSpaceOnUse" id="color-4"><stop offset="0" stop-color="#dadada"/><stop offset="1" stop-color="#bebebe"/></linearGradient><linearGradient x1="313.23158" y1="74.31232" x2="313.23158" y2="180.74793" gradientUnits="userSpaceOnUse" id="color-5"><stop offset="0" stop-color="#dadada"/><stop offset="1" stop-color="#bebebe"/></linearGradient><linearGradient x1="314.31923" y1="73.33866" x2="311.80907" y2="111.90893" gradientUnits="userSpaceOnUse" id="color-6"><stop offset="0" stop-color="#dadada"/><stop offset="1" stop-color="#bebebe"/></linearGradient><linearGradient x1="312.46691" y1="51.50153" x2="312.46691" y2="88.57445" gradientUnits="userSpaceOnUse" id="color-7"><stop offset="0" stop-color="#dadada"/><stop offset="1" stop-color="#bebebe"/></linearGradient></defs><g transform="translate(-236.22135,-42.03884)"><g stroke-miterlimit="10"><g stroke-width="2.5" stroke-linejoin="miter"><path d="M275.85491,344.46464l-9.79328,-145.95582c0,0 4.71563,-25.46788 13.70064,-25.86948c8.92285,-0.39881 30.09368,-0.95046 48.56739,-1.77617c20.03692,-0.89558 27.90168,16.11714 27.90168,16.11714l8.17506,161.09034z" fill="url(#color-1)" stroke="#000000" stroke-linecap="butt"/><path d="M262.85839,343.80193l-9.72555,-140.4832c0,0 1.63959,-17.03892 6.01051,-17.45894c4.34068,-0.41709 24.39615,-16.21483 33.38303,-17.07841c9.74733,-0.93665 -7.69302,18.93785 -7.69302,18.93785c0,0 2.67051,30.29202 5.53981,59.02078c1.55501,15.56952 3.16841,30.6799 4.44675,40.26058c3.46417,25.96263 11.34266,60.57273 11.34266,60.57273c0,0 -25.28968,2.45088 -32.98432,1.78075c-6.55742,-0.5711 -10.31986,-5.55214 -10.31986,-5.55214z" fill="url(#color-2)" stroke="#000000" stroke-linecap="butt"/><path d="M333.39394,351.63639c0,0 3.72377,-35.46796 4.24906,-61.72558c0.5515,-27.56858 -1.01487,-99.94472 -1.01487,-99.94472c0,0 -18.22996,-17.23706 -9.09404,-17.69663c8.42317,-0.4237 29.77123,7.82028 33.83963,7.61562c4.09675,-0.20608 9.95069,19.59646 9.95069,19.59646l1.83642,142.24125c0,0 1.10822,6.076 -4.84209,7.55937c-7.10087,1.7702 -34.92479,2.35423 -34.92479,2.35423z" fill="url(#color-3)" stroke="#000000" stroke-linecap="butt"/><path d="M324.02233,181.53831c0.33074,6.15894 -5.29167,11.15175 -12.55801,11.15175c-7.26635,0 -13.425,-4.9928 -13.75575,-11.15175c-0.33074,-6.15894 5.29167,-11.15175 12.55801,-11.15175c7.26635,0 13.425,4.9928 13.75575,11.15175z" fill="url(#color-4)" stroke="#000000" stroke-linecap="butt"/><path d="M301.20195,232.08801l27.01885,0.26238" fill="none" stroke="#ffffff" stroke-linecap="round"/><path d="M313.61122,221.59283l1.33857,24.92607" fill="none" stroke="#ffffff" stroke-linecap="round"/><path d="M323.64364,221.06806l-8.77318,9.18329" fill="none" stroke="#ffffff" stroke-linecap="round"/><path d="M322.81896,240.22178l-9.43839,-8.13377l-9.52293,-9.70805" fill="none" stroke="#ffffff" stroke-linecap="round"/><path d="M314.43957,232.08801l-8.48025,9.70805" fill="none" stroke="#ffffff" stroke-linecap="round"/><path d="M338.55869,232.58361l1.17694,-12.59423l14.8966,1.3119l0.5777,10.75757" fill="none" stroke="#000000" stroke-linecap="round"/><path d="M349.04533,348.97851l-0.95102,-111.38053" fill="none" stroke="#000000" stroke-linecap="round"/><path d="M290.14343,346.61709l-12.32832,-111.249" fill="none" stroke="#000000" stroke-linecap="round"/><path d="M273.30024,235.10571l-1.3015,-9.44566l11.6632,0.26238l1.91555,11.01995" fill="none" stroke="#000000" stroke-linecap="round"/></g><g stroke-linecap="butt"><path d="M367.88199,129.75478c-1.94104,28.48816 -27.92848,52.9286 -58.11114,50.8721c-30.18266,-2.05649 -53.13099,-29.83117 -51.18995,-58.31932c1.94104,-28.48815 27.98246,-49.91526 58.16512,-47.85875c30.18266,2.05649 53.07703,26.81782 51.13599,55.30597z" fill="url(#color-5)" stroke="#000000" stroke-width="2.5" stroke-linejoin="miter"/><path d="M322.04388,127.80524c0,28.78589 -8.99421,52.31392 -8.99421,52.31392c0,0 -8.57482,-23.52803 -8.57482,-52.31392c0,-8.62488 -5.89369,-24.1785 -5.26862,-31.34372c1.46112,-16.74899 10.65522,-20.77775 14.05314,-20.77775c3.20425,0 12.25457,6.27488 13.78901,21.48043c0.78885,7.81717 -5.00449,20.86704 -5.00449,30.64104z" fill-opacity="0.23529" fill="#000000" stroke="none" stroke-width="0" stroke-linejoin="round"/></g><path d="M327.48356,119.84749c0.01376,2.70881 -6.62742,4.93852 -14.83351,4.98021c-8.20609,0.04169 -14.86959,-2.12043 -14.88334,-4.82924c-0.01376,-2.70881 6.62743,-4.93852 14.83352,-4.98021c8.20609,-0.04169 14.86959,2.12043 14.88335,4.82924z" fill-opacity="0.23137" fill="#000000" stroke="none" stroke-width="0" stroke-linecap="butt" stroke-linejoin="miter"/><path d="M292.30908,118.40334c-0.15191,2.2297 -2.25895,3.90205 -4.70617,3.73531c-2.44723,-0.16674 -4.30794,-2.10944 -4.15603,-4.33913c0.15191,-2.22971 2.25895,-3.90205 4.70617,-3.73531c2.44723,0.16674 4.30793,2.10943 4.15602,4.33914z" fill="#ffffff" stroke="#000000" stroke-width="2.5" stroke-linecap="butt" stroke-linejoin="miter"/><path d="M341.48324,118.41426c-0.15191,2.22971 -2.25895,3.90205 -4.70617,3.73531c-2.44723,-0.16674 -4.30793,-2.10944 -4.15602,-4.33913c0.15191,-2.2297 2.25894,-3.90204 4.70617,-3.7353c2.44723,0.16674 4.30794,2.10943 4.15603,4.33913z" fill="#ffffff" stroke="#000000" stroke-width="2.5" stroke-linecap="butt" stroke-linejoin="miter"/><path d="M350.36993,114.81508l-3.36249,10.45249l-18.59258,0.62715l-1.97793,-11.49774l-27.69107,-0.20905l-1.18676,10.87059l-21.16389,0.4181l-3.16469,-10.0344" fill="none" stroke="#000000" stroke-width="2.5" stroke-linecap="round" stroke-linejoin="miter"/><path d="M279.50202,114.5828c0,0 5.29523,-1.87761 7.84694,-1.98248c2.53506,-0.10418 7.4137,1.35533 7.4137,1.35533" fill="none" stroke="#000000" stroke-width="2.5" stroke-linecap="round" stroke-linejoin="miter"/><path d="M330.92829,113.7466c0,0 4.57648,-1.51578 6.91119,-1.44395c2.18473,0.06722 6.67705,1.86205 6.67705,1.86205" fill="none" stroke="#000000" stroke-width="2.5" stroke-linecap="round" stroke-linejoin="miter"/><g stroke-linecap="butt" stroke-linejoin="miter"><path d="M388.64632,97.54269c-0.69316,10.65089 -35.09436,17.08288 -76.83725,14.36624c-41.74288,-2.71664 -75.02025,-13.55316 -74.32709,-24.20405c0.69316,-10.65089 35.09436,-17.08287 76.83725,-14.36623c41.74288,2.71664 75.02025,13.55315 74.32709,24.20404z" fill="url(#color-6)" stroke="#000000" stroke-width="2.5"/><path d="M373.8742,96.64204c-0.42452,6.52301 -29.55561,9.93748 -65.06612,7.62645c-35.51051,-2.31103 -63.95332,-9.47243 -63.5288,-15.99544c0.32782,-5.0372 17.77413,-8.22071 42.05733,-8.34542c-11.64268,0.99665 -19.18588,3.18601 -19.38052,6.17679c-0.34249,5.26254 22.19676,11.0136 50.34282,12.84535c28.14606,1.83175 51.24059,-0.94946 51.58308,-6.21199c0.01416,-0.21759 -0.0108,-0.436 -0.07364,-0.65495c2.7189,1.50863 4.164,3.05097 4.06585,4.55919z" fill-opacity="0.21961" fill="#000000" stroke="none" stroke-width="0"/></g><path d="M309.55463,88.57445c0,0 -1.32377,-25.83343 -1.32377,-31.92986c0,-0.72518 -4.51177,-1.31967 -5.9314,-2.65717c-3.37018,-3.1752 -5.55267,-7.70498 -5.55267,-7.70498c0,0 10.71889,6.72279 12.6907,6.64559c1.56655,-0.06133 2.35615,-1.4265 2.76467,-1.4265c0.36363,0 2.11892,1.17142 3.59452,1.23346c2.62613,0.11041 14.95192,-6.97005 14.95192,-6.97005c0,0 -3.22996,4.86048 -7.29147,7.98179c-2.30262,1.76959 -6.48942,2.01261 -6.48942,2.89787c0,6.09642 -1.58852,31.92986 -1.58852,31.92986c0,0 7.45362,5.92074 6.79473,6.47538c-0.67191,0.5656 -9.46143,-4.23471 -9.97176,-4.23471c-0.4386,0 -8.31718,4.13934 -8.84685,3.60811c-0.58464,-0.58637 6.19932,-5.84878 6.19932,-5.84878z" fill="url(#color-7)" stroke="#000000" stroke-width="2.5" stroke-linecap="butt" stroke-linejoin="miter"/><path d="M301.59219,172.57032l5.14359,-2.5718l9.42992,1.07158l7.28676,-0.85727l1.92885,3.00043z" fill="none" stroke="#000000" stroke-width="2.5" stroke-linecap="round" stroke-linejoin="miter"/></g></g></svg>