<svg version="1.1" xmlns="http://www.w3.org/2000/svg" xmlns:xlink="http://www.w3.org/1999/xlink" width="161.00219" height="327.41458" viewBox="0,0,161.00219,327.41458"><defs><linearGradient x1="294.28515" y1="165.83632" x2="321.30078" y2="343.59009" gradientUnits="userSpaceOnUse" id="color-1"><stop offset="0" stop-color="#2982c1"/><stop offset="1" stop-color="#000000"/></linearGradient><linearGradient x1="368.49918" y1="140.47188" x2="329.07624" y2="138.51982" gradientUnits="userSpaceOnUse" id="color-2"><stop offset="0" stop-color="#a636f3"/><stop offset="1" stop-color="#581b7d"/></linearGradient><linearGradient x1="214.06829" y1="137.3517" x2="253.49123" y2="139.30376" gradientUnits="userSpaceOnUse" id="color-3"><stop offset="0" stop-color="#a636f3"/><stop offset="1" stop-color="#581b7d"/></linearGradient><radialGradient cx="257.13468" cy="91.04056" r="25.84387" gradientUnits="userSpaceOnUse" id="color-4"><stop offset="0" stop-color="#000000" stop-opacity="0.92549"/><stop offset="1" stop-color="#000000" stop-opacity="0"/></radialGradient><linearGradient x1="212.32684" y1="64.5105" x2="277.00293" y2="74.93966" gradientUnits="userSpaceOnUse" id="color-5"><stop offset="0" stop-color="#a636f3"/><stop offset="1" stop-color="#16031b"/></linearGradient><radialGradient cx="329.56937" cy="89.47528" r="25.35587" gradientUnits="userSpaceOnUse" id="color-6"><stop offset="0" stop-color="#000000" stop-opacity="0.92549"/><stop offset="1" stop-color="#000000" stop-opacity="0"/></radialGradient><linearGradient x1="375.69156" y1="70.03763" x2="310.30153" y2="74.02646" gradientUnits="userSpaceOnUse" id="color-7"><stop offset="0" stop-color="#a636f3"/><stop offset="1" stop-color="#16031b"/></linearGradient></defs><g transform="translate(-213.64227,-22.54968)"><g stroke-miterlimit="10"><path d="M277.36188,342.05623l-24.19992,-146.2838c0,0 2.19442,-25.83312 11.12943,-26.66768c8.87319,-0.82877 29.96519,-2.39841 48.3361,-4.1143c19.92541,-1.86109 29.46168,14.86754 29.46168,14.86754l24.07859,161.57861z" fill="url(#color-1)" stroke="#000000" stroke-width="2.5" stroke-linecap="butt"/><path d="M319.72724,176.41134c1.03444,8.47937 -7.84585,15.53204 -19.83467,15.75259c-11.98882,0.22055 -22.54626,-6.47454 -23.5807,-14.95391c-1.03444,-8.47937 7.84583,-15.53204 19.83465,-15.75259c11.98882,-0.22055 22.54628,6.47454 23.58072,14.95391z" fill="#f2f2f2" stroke="#000000" stroke-width="1.5" stroke-linecap="butt"/><path d="M314.12498,176.96079c0.77719,6.37071 -5.89473,11.66951 -14.90215,11.83521c-9.00743,0.1657 -16.93943,-4.86444 -17.71662,-11.23515c-0.77719,-6.37071 5.89472,-11.6695 14.90215,-11.83521c9.00743,-0.1657 16.93943,4.86445 17.71663,11.23515z" fill="#a636f3" stroke="#000000" stroke-width="2.5" stroke-linecap="butt"/><path d="M277.59998,241.33628l21.95921,-13.13572l21.41916,11.3802l14.04992,-6.87849" fill="none" stroke="#ffffff" stroke-width="1.5" stroke-linecap="round"/><path d="M278.43259,248.26126l21.95921,-13.13572l21.41917,11.3802l14.04992,-6.87849" fill="none" stroke="#ffffff" stroke-width="1.5" stroke-linecap="round"/><path d="M278.89017,254.87772l21.95921,-13.13572l21.41917,11.3802l14.04992,-6.87849" fill="none" stroke="#ffffff" stroke-width="1.5" stroke-linecap="round"/><g><path d="M310.96657,255.84447c0,0 2.23385,-1.46202 6.06656,-1.87492c2.60632,-0.28079 2.11447,-1.61677 1.28977,-2.6251c-1.30075,-1.59038 -7.05172,-11.38655 -6.84146,-12.36304c0.20082,-0.93267 6.04363,-0.7409 7.10524,-0.81223c5.17628,-0.34784 17.27999,5.62062 22.17396,7.26431c1.65428,0.55563 5.71399,1.69066 6.18331,3.28341c0.64028,2.17291 -2.5417,8.9234 -3.52431,11.52746c-1.90941,5.06022 -6.44417,9.54012 -9.47314,14.34709c-3.30714,5.24842 -4.37435,10.66415 -9.56428,15.36821c-2.09247,1.89658 -4.26493,6.41204 -6.83407,7.66958c-10.61963,5.19802 -26.00245,3.18895 -35.4248,2.3924c-5.94267,-0.50238 -16.97713,-2.39709 -16.97713,-2.39709l-7.0971,-2.1821l0.95629,-5.18254l16.77303,-9.25685c0,0 6.26396,-0.72053 6.35478,-0.95465c0.02202,-0.05681 -3.90641,-0.96452 -4.27181,-1.01058c-2.64837,-0.33386 -11.73381,-2.8745 -11.73381,-2.8745l5.87685,-10.27839c0,0 14.38286,1.21647 16.36088,1.38299c0.5256,0.04425 4.34794,0.68902 4.80279,-0.05104c0.39051,-0.63537 -4.30397,-2.96738 -4.88875,-3.22678c-4.55547,-2.02081 -8.32358,-11.49257 -8.32358,-11.49257c0,0 11.16821,-0.84447 13.2259,-0.67049c17.21672,1.4556 6.35767,-3.93493 17.78486,4.01738z" fill="#a636f3" stroke="#000000" stroke-width="2.5" stroke-linecap="round"/><path d="M307.13964,267.93806c4.32128,0.56407 7.41056,1.74882 6.90009,2.64625c-0.51046,0.89743 -4.42737,1.16766 -8.74865,0.6036c-4.32128,-0.56407 -7.41056,-1.74882 -6.90009,-2.64625c0.51046,-0.89743 4.42737,-1.16766 8.74865,-0.6036z" fill-opacity="0.23137" fill="#000000" stroke="none" stroke-width="0" stroke-linecap="butt"/><path d="M297.37692,280.91925c5.21816,0.68113 9.06898,1.90017 8.60105,2.72281c-0.46792,0.82264 -5.07741,0.93736 -10.29555,0.25624c-5.21816,-0.68113 -9.06898,-1.90017 -8.60105,-2.72281c0.46792,-0.82264 5.07741,-0.93736 10.29555,-0.25624z" fill-opacity="0.23137" fill="#000000" stroke="none" stroke-width="0" stroke-linecap="butt"/><path d="M327.1979,251.35495c1.14147,0.14899 1.48059,1.30042 0.75743,2.57177c-0.72316,1.27134 -2.23475,2.18119 -3.3762,2.03219c-1.14147,-0.14899 -1.48059,-1.30042 -0.75743,-2.57176c0.72316,-1.27134 2.23474,-2.18121 3.3762,-2.0322z" fill-opacity="0.23137" fill="#000000" stroke="none" stroke-width="0" stroke-linecap="butt"/><path d="M328.76023,268.16112c0,0 -1.347,0.39904 -2.73021,0.64488c-1.07231,0.19058 -2.16639,0.28909 -2.67166,0.03826c-0.47049,-0.23359 -0.77399,-1.04861 -0.96601,-1.88225c-0.24012,-1.04251 -0.30591,-2.11412 -0.30591,-2.11412" fill="none" stroke-opacity="0.40392" stroke="#000000" stroke-width="2.5" stroke-linecap="round"/><path d="M320.07515,272.6511c0,0 -1.34698,0.39903 -2.7302,0.64487c-1.07231,0.19058 -2.16643,0.28911 -2.67169,0.03827c-0.47049,-0.23359 -0.77396,-1.04861 -0.96599,-1.88225c-0.24012,-1.04251 -0.30592,-2.11412 -0.30592,-2.11412" fill="none" stroke-opacity="0.40392" stroke="#000000" stroke-width="2.5" stroke-linecap="round"/><path d="M311.39007,277.14109c0,0 -1.34698,0.39904 -2.7302,0.64488c-1.07231,0.19058 -2.1664,0.28909 -2.67167,0.03826c-0.47049,-0.23359 -0.77397,-1.04861 -0.966,-1.88225c-0.24012,-1.04251 -0.30592,-2.11411 -0.30592,-2.11411" fill="none" stroke-opacity="0.40392" stroke="#000000" stroke-width="2.5" stroke-linecap="round"/></g><g><path d="M284.42077,282.88919c14.18127,4.776 2.24506,-0.98958 16.12901,12.16784c1.65938,1.57253 9.39416,11.12065 9.39416,11.12065c0,0 -9.54522,2.30461 -14.38157,-0.25035c-0.62083,-0.32798 -5.78213,-2.81957 -5.94233,-2.14257c-0.18659,0.78855 3.12443,3.52751 3.54815,3.92929c1.59462,1.51206 13.19358,12.50351 13.19358,12.50351l-2.92035,10.59426c0,0 -8.58665,-5.93938 -10.80054,-7.90104c-0.30545,-0.27065 -3.88256,-2.94687 -3.9065,-2.89679c-0.09864,0.20636 4.0641,5.70148 4.0641,5.70148l5.93786,18.86456l-2.9703,3.71196l-6.84786,-4.52769c0,0 -9.58212,-7.88806 -14.37438,-12.4296c-7.59835,-7.20082 -20.50704,-18.55544 -24.7377,-30.12386c-1.0235,-2.79869 0.56498,-7.12049 0.35149,-9.89402c-0.52949,-6.87915 2.52379,-10.81325 3.78644,-16.47169c1.15644,-5.18249 0.95656,-11.40262 3.12859,-15.81934c1.11775,-2.2729 3.54154,-8.68046 5.56402,-9.3912c1.48247,-0.52098 5.31916,2.13307 6.94876,3.16183c4.8209,3.04347 18.09685,9.4925 21.71276,13.89323c0.74159,0.90254 5.23854,5.53893 4.72544,6.23028c-0.53722,0.72382 -11.7929,1.60188 -13.8942,1.44632c-1.33227,-0.09863 -2.64903,0.25863 -0.90347,2.53428c2.56693,3.34645 3.19483,5.98867 3.19483,5.98867z" fill="#a636f3" stroke="#000000" stroke-width="2.5" stroke-linecap="round"/><path d="M284.78042,300.29357c-0.25695,0.92285 -3.40475,-0.91495 -7.03078,-4.10483c-3.62604,-3.18988 -6.3572,-6.52389 -6.10025,-7.44674c0.25695,-0.92285 3.40474,0.91494 7.03078,4.10482c3.62604,3.18988 6.35721,6.5239 6.10025,7.44675z" fill-opacity="0.23137" fill="#000000" stroke="none" stroke-width="0" stroke-linecap="butt"/><path d="M284.2403,316.63395c-0.23554,0.84595 -3.97604,-1.59089 -8.35466,-5.44282c-4.37863,-3.85193 -7.73722,-7.66031 -7.50168,-8.50625c0.23554,-0.84595 3.97604,1.59089 8.35466,5.44282c4.37863,3.85193 7.73722,7.66032 7.50168,8.50625z" fill-opacity="0.23137" fill="#000000" stroke="none" stroke-width="0" stroke-linecap="butt"/><path d="M276.57349,271.05761c-0.36403,1.30737 -1.43561,1.68413 -2.39342,0.84152c-0.95781,-0.84261 -1.43919,-2.58551 -1.07517,-3.89288c0.36403,-1.30737 1.43562,-1.68412 2.39343,-0.84151c0.95781,0.84261 1.43918,2.58551 1.07516,3.89287z" fill-opacity="0.23137" fill="#000000" stroke="none" stroke-width="0" stroke-linecap="butt"/><path d="M269.72167,278.95812c0,0 -0.81085,0.55354 -1.73111,0.94899c-0.73592,0.31623 -1.54177,0.53137 -2.05896,0.28158c-0.55539,-0.26826 -1.30189,-1.21258 -1.96672,-2.19135c-0.85758,-1.26258 -1.57922,-2.5825 -1.57922,-2.5825" fill="none" stroke-opacity="0.40392" stroke="#000000" stroke-width="2.5" stroke-linecap="round"/><path d="M273.01186,288.55448c0,0 -0.81085,0.55353 -1.73112,0.94899c-0.73592,0.31623 -1.54176,0.5314 -2.05895,0.2816c-0.55539,-0.26826 -1.30191,-1.21261 -1.96674,-2.19138c-0.85758,-1.26258 -1.57921,-2.58247 -1.57921,-2.58247" fill="none" stroke-opacity="0.40392" stroke="#000000" stroke-width="2.5" stroke-linecap="round"/><path d="M276.30202,298.15082c0,0 -0.81086,0.55353 -1.73112,0.949c-0.73592,0.31623 -1.54175,0.53139 -2.05894,0.28159c-0.55539,-0.26826 -1.30193,-1.21259 -1.96674,-2.19136c-0.85758,-1.26258 -1.5792,-2.58248 -1.5792,-2.58248" fill="none" stroke-opacity="0.40392" stroke="#000000" stroke-width="2.5" stroke-linecap="round"/></g><path d="M348.8908,109.40276c4.76445,0.6546 8.1652,-1.54064 12.58115,-2.391c0.67255,-0.12951 4.42665,-1.62621 4.89565,-0.99471c0.36164,0.48692 -1.30955,3.59078 -1.51997,4.13553c-0.71646,1.85463 -6.40507,11.83232 -6.32144,12.61441c0.30841,2.8842 9.19845,-1.1942 10.51645,0.11959c1.20725,1.20341 -1.7697,5.09326 -2.31576,5.97173c-1.54494,2.48536 -8.91523,15.30235 -8.91446,17.35809c0.00122,3.27188 4.11533,7.13913 2.44957,11.38299c-0.8174,2.08251 -2.48246,-1.12122 -3.45401,-0.78332c-0.98949,0.34415 -0.87098,4.49337 -0.90519,5.36545c-0.13943,3.55433 -0.3622,7.53054 -1.21591,11.01806c-0.08794,0.35924 -0.05663,0.91187 -0.37293,1.04065c-0.78786,0.32074 -8.94879,-9.0549 -10.27945,-10.14225c-6.47767,-5.29326 -12.66396,-13.34787 -14.21448,-22.65984c-2.34242,-14.06798 3.15507,-33.57235 18.67456,-31.44273z" fill="url(#color-2)" stroke="#000000" stroke-width="2.5" stroke-linecap="round"/><path d="M236.98581,109.00054c15.65395,-0.58604 19.19774,19.36601 15.47701,33.13377c-2.46285,9.11324 -9.4146,16.51731 -16.3835,21.14476c-1.43157,0.9506 -10.47881,9.47414 -11.23112,9.07714c-0.30205,-0.15938 -0.21629,-0.70622 -0.2683,-1.07239c-0.50499,-3.55479 -0.33388,-7.53355 -0.1215,-11.08427c0.0521,-0.87119 0.57994,-4.9884 -0.37071,-5.42863c-0.93341,-0.43225 -2.9068,2.59134 -3.51448,0.43826c-1.23836,-4.38766 3.23767,-7.82956 3.56211,-11.08532c0.20385,-2.04563 -5.86419,-15.52801 -7.15606,-18.15384c-0.45662,-0.92812 -3.03472,-5.09303 -1.7145,-6.17129c1.44133,-1.17715 9.88498,3.75952 10.47682,0.91991c0.16049,-0.77001 -4.51459,-11.26086 -5.04434,-13.1772c-0.15559,-0.56287 -1.51197,-3.81663 -1.104,-4.26545c0.5291,-0.58208 4.11696,1.27816 4.77344,1.47348c4.31033,1.28246 7.47758,3.80293 12.28338,3.6222z" fill="url(#color-3)" stroke="#000000" stroke-width="2.5" stroke-linecap="round"/><path d="M347.04464,128.73943c-3.34756,28.35731 -30.5119,51.48262 -60.55592,47.93595c-30.04402,-3.54666 -51.59067,-32.42227 -48.24312,-60.77956c3.34756,-28.3573 30.41679,-48.47031 60.46081,-44.92362c30.04402,3.54666 51.6858,29.40994 48.33825,57.76724z" fill="#a636f3" stroke="#000000" stroke-width="2.5" stroke-linecap="butt"/><path d="M307.18559,116.84635c-0.12022,2.70618 -6.86354,4.60472 -15.06166,4.24052c-8.19811,-0.36419 -14.74653,-2.85322 -14.6263,-5.55939c0.12022,-2.70618 6.86355,-4.60472 15.06167,-4.24052c8.19811,0.36419 14.74653,2.85322 14.62631,5.55939z" fill-opacity="0.23137" fill="#000000" stroke="none" stroke-width="0" stroke-linecap="butt"/><path d="M272.12559,113.6644c-0.262,2.21946 -2.44916,3.78556 -4.88515,3.498c-2.43599,-0.28756 -4.19835,-2.31991 -3.93635,-4.53936c0.26199,-2.21947 2.27376,3.20375 4.70975,3.49132c2.43599,0.28756 4.37374,-4.66941 4.11174,-2.44994z" fill="#ffffff" stroke="#000000" stroke-width="2.5" stroke-linecap="butt"/><path d="M321.23904,116.10723c-0.26199,2.21947 -2.44916,3.78556 -4.88515,3.498c-2.43599,-0.28756 -4.19834,-2.31991 -3.93634,-4.53935c0.262,-2.21946 1.8995,3.86796 4.33549,4.15553c2.43599,0.28756 4.74799,-5.33361 4.48601,-3.11415z" fill="#ffffff" stroke="#000000" stroke-width="2.5" stroke-linecap="butt"/><path d="M261.34655,111.6216c-12.57593,5.85444 -24.65644,1.38597 -26.98258,-9.98063c-2.32614,-11.3666 5.98294,-25.32701 18.55887,-31.18145c12.57593,-5.85444 24.65644,-1.38597 26.98257,9.98063c2.32614,11.3666 -5.98295,25.327 -18.55887,31.18145z" fill="url(#color-4)" stroke="#000000" stroke-width="0" stroke-linecap="butt"/><path d="M271.042,89.77604l-14.50304,11.65242l-13.33939,6.78125l-15.78041,-3.53853l-12.50676,-39.78074l3.50004,-38.11954l22.51832,41.51347l36.09796,6.49555z" fill="url(#color-5)" stroke="#000000" stroke-width="2.5" stroke-linecap="round"/><path d="M308.36534,76.91888c3.37275,-10.87195 15.60027,-14.06372 27.31093,-7.12902c11.71066,6.93471 18.46988,21.36986 15.09713,32.24181c-3.37275,10.87195 -15.60028,14.06373 -27.31094,7.12902c-11.71066,-6.93471 -18.46987,-21.36987 -15.09712,-32.2418z" fill="url(#color-6)" stroke="#000000" stroke-width="0" stroke-linecap="butt"/><path d="M310.29167,73.86494l36.56307,-2.89768l26.50927,-39.08583l-0.28289,38.27884l-16.37549,38.35062l-16.05279,1.96228l-12.60422,-8.06585l-13.28096,-13.02817z" fill="url(#color-7)" stroke="#000000" stroke-width="2.5" stroke-linecap="round"/><path d="M285.98835,83.50763c0,0 -1.2435,0.78272 -2.66263,1.46737c-1.10014,0.53076 -2.30583,1.00258 -3.11956,1.00511c-0.75774,0.00235 -1.82259,-0.47895 -2.772,-1.01455c-1.1873,-0.66981 -2.1941,-1.42453 -2.1941,-1.42453" fill="none" stroke-opacity="0.40392" stroke="#000000" stroke-width="2.5" stroke-linecap="round"/><path d="M315.55957,85.91596c0,0 -1.40117,0.44236 -2.9474,0.74536c-1.19869,0.2349 -2.48455,0.38606 -3.27241,0.18247c-0.73365,-0.18959 -1.64192,-0.92482 -2.42477,-1.68337c-0.979,-0.94861 -1.7619,-1.93367 -1.7619,-1.93367" fill="none" stroke-opacity="0.40392" stroke="#000000" stroke-width="2.5" stroke-linecap="round"/><path d="M300.69775,81.20766c0,0 -1.19993,0.84799 -2.58047,1.60745c-1.07023,0.58875 -2.24901,1.12429 -3.06145,1.17026c-0.75654,0.04281 -1.84556,-0.38095 -2.82222,-0.86509c-1.22136,-0.60544 -2.26702,-1.30534 -2.26702,-1.30534" fill="none" stroke-opacity="0.40392" stroke="#000000" stroke-width="2.5" stroke-linecap="round"/><path d="M343.62839,126.50146c0,0 -0.93753,0.46531 -1.96904,0.7938c-0.79965,0.25465 -1.65579,0.42709 -2.17541,0.23679c-0.48386,-0.17723 -1.07457,-0.89673 -1.58165,-1.64163c-0.63412,-0.93153 -1.13744,-1.90275 -1.13744,-1.90275" fill="none" stroke-opacity="0.40392" stroke="#000000" stroke-width="2.5" stroke-linecap="round"/><path d="M343.65433,135.01549c0,0 -0.93753,0.46531 -1.96904,0.79381c-0.79965,0.25465 -1.65579,0.42709 -2.17541,0.23679c-0.48386,-0.17723 -1.07457,-0.89673 -1.58165,-1.64163c-0.63412,-0.93153 -1.13744,-1.90275 -1.13744,-1.90275" fill="none" stroke-opacity="0.40392" stroke="#000000" stroke-width="2.5" stroke-linecap="round"/><path d="M341.40655,143.41692c0,0 -0.93753,0.46531 -1.96904,0.79381c-0.79965,0.25465 -1.65578,0.42709 -2.1754,0.23679c-0.48388,-0.17722 -1.07458,-0.89672 -1.58166,-1.64162c-0.63412,-0.93153 -1.13744,-1.90275 -1.13744,-1.90275" fill="none" stroke-opacity="0.40392" stroke="#000000" stroke-width="2.5" stroke-linecap="round"/><path d="M248.26889,117.79233c0,0 -0.59681,0.91675 -1.31985,1.78107c-0.57819,0.69116 -1.23708,1.34879 -1.73609,1.47735c-0.53588,0.13805 -1.37079,-0.11813 -2.14138,-0.45054c-0.99401,-0.42879 -1.88099,-0.98444 -1.88099,-0.98444" fill="none" stroke-opacity="0.40392" stroke="#000000" stroke-width="2.5" stroke-linecap="round"/><path d="M249.12434,123.71747c0,0 -0.59681,0.91675 -1.31985,1.78106c-0.57819,0.69116 -1.23708,1.34879 -1.7361,1.47735c-0.53588,0.13805 -1.37079,-0.11813 -2.14137,-0.45054c-0.99401,-0.4288 -1.88099,-0.98445 -1.88099,-0.98445" fill="none" stroke-opacity="0.40392" stroke="#000000" stroke-width="2.5" stroke-linecap="round"/><path d="M249.22823,130.65738c0,0 -0.59681,0.91675 -1.31985,1.78106c-0.57819,0.69116 -1.23708,1.34879 -1.7361,1.47735c-0.53588,0.13805 -1.37079,-0.11813 -2.14137,-0.45054c-0.99401,-0.4288 -1.88099,-0.98445 -1.88099,-0.98445" fill="none" stroke-opacity="0.40392" stroke="#000000" stroke-width="2.5" stroke-linecap="round"/><path d="M288.58176,149.61962l-3.25682,-5.32464" fill="none" stroke="#000000" stroke-width="2.5" stroke-linecap="round"/><path d="M298.67004,144.95577l-4.97231,5.62126" fill="none" stroke="#000000" stroke-width="2.5" stroke-linecap="round"/><path d="M329.09405,148.7274l2.83883,1.00718l-23.63534,16.45078l-18.55944,-4.38543l-13.75773,3.65184l-24.58792,-16.8165l4.0771,-0.66473" fill="none" stroke="#000000" stroke-width="2.5" stroke-linecap="round"/><path d="M227.63996,43.73135c0,0 6.93418,-11.02098 28.65478,-10.23839c23.01478,0.82923 105.77614,15.08197 105.77614,15.08197" fill="none" stroke="#000000" stroke-width="2.5" stroke-linecap="round"/><path d="M231.80164,48.5991c0,0 2.54919,-8.87111 22.97591,-8.11025c21.71678,0.80892 103.69174,12.82841 103.69174,12.82841" fill="none" stroke="#000000" stroke-width="2.5" stroke-linecap="round"/><path d="M234.10368,54.41069c0,0 3.41546,-6.46099 23.04539,-5.82295c20.88688,0.6789 98.73922,9.78136 98.73922,9.78136" fill="none" stroke="#000000" stroke-width="2.5" stroke-linecap="round"/></g></g></svg>