<svg version="1.1" xmlns="http://www.w3.org/2000/svg" xmlns:xlink="http://www.w3.org/1999/xlink" width="175.75466" height="454.59756" viewBox="0,0,175.75466,454.59756"><defs><linearGradient x1="303.29531" y1="150.84987" x2="302.76363" y2="178.97919" gradientUnits="userSpaceOnUse" id="color-1"><stop offset="0" stop-color="#ffffff"/><stop offset="1" stop-color="#2c2c2c"/></linearGradient><linearGradient x1="324.96281" y1="155.78918" x2="324.36467" y2="187.43432" gradientUnits="userSpaceOnUse" id="color-2"><stop offset="0" stop-color="#ffffff"/><stop offset="1" stop-color="#2c2c2c"/></linearGradient><linearGradient x1="326.54571" y1="187.21072" x2="325.53004" y2="240.94613" gradientUnits="userSpaceOnUse" id="color-3"><stop offset="0" stop-color="#717171"/><stop offset="1" stop-color="#2c2c2c"/></linearGradient><linearGradient x1="345.27379" y1="149.24616" x2="344.74211" y2="177.3755" gradientUnits="userSpaceOnUse" id="color-4"><stop offset="0" stop-color="#ffffff"/><stop offset="1" stop-color="#2c2c2c"/></linearGradient><linearGradient x1="305.12352" y1="63.79022" x2="305.84612" y2="70.74049" gradientUnits="userSpaceOnUse" id="color-5"><stop offset="0" stop-color="#a2a2a2"/><stop offset="1" stop-color="#7f7f7f"/></linearGradient></defs><g transform="translate(-221.74119,-14.35415)"><g stroke-miterlimit="10"><g fill="#000000" stroke="none" stroke-width="0.5" stroke-linecap="butt"><path d="M256.70534,100.66989c0.47886,-0.99681 0.96729,-1.98689 1.48359,-2.95773c0.86359,-1.62327 1.56008,-3.31619 2.26956,-5.00929c-1.26929,0.69411 -2.04337,1.91476 -1.9543,3.89123c-0.83206,0.84836 -1.7337,2.68359 -1.79885,4.07578zM342.3536,185.03319c-0.081,-0.24123 -0.12543,-0.51375 -0.15139,-0.79053c-0.29665,-1.28094 -0.80912,-2.5095 -1.16786,-3.7564c0.10244,0.98507 0.20492,1.97014 0.30759,2.95525c0.36362,3.48873 1.1856,7.02575 1.54553,10.4877c0.29683,2.85506 1.30106,6.66553 0.94115,9.44343l0.04029,0.00615l0.05031,0.49703c0,0.00003 0,0.00006 0,0.00008c0.01387,0.13697 -0.09081,0.2305 -0.23412,0.20901c-0.02182,-0.00327 -0.04327,-0.00902 -0.06401,-0.01691c1.0171,2.94031 1.61712,6.09794 2.44281,8.99607c1.00347,3.52217 1.59069,7.03226 2.8177,10.53797c0.57684,1.64813 1.33449,3.39368 1.71901,5.04754c0.11415,0.49098 0.15148,1.03821 0.19545,1.52296c0.01616,0.17817 0.08874,0.69139 0.15191,0.54206c0.19112,-0.45167 0.16234,-1.03779 0.19543,-1.60823l-0.08015,-0.01773l-0.01203,-0.48782c-0.00448,-0.12819 0.09754,-0.2137 0.23522,-0.19305c0.10559,0.01584 0.20274,0.08971 0.25241,0.18233l0.26713,0.47717c1.28635,2.30268 1.46346,4.70875 2.52498,7.01622c1.57062,3.42896 1.99564,7.08138 2.86373,10.57873c0.24178,0.97408 2.0764,5.69618 1.30203,6.22807c-0.0061,0.0042 -0.01219,0.00828 -0.01826,0.01227c0.32002,0.7348 0.61344,1.47759 0.85539,2.25014c1.46961,3.45564 3.0479,6.98885 4.14992,10.48441c0.52603,1.70593 2.12432,3.571 2.87323,5.22979c0.62343,1.38086 0.41946,3.68521 0.5271,5.07405c0.01984,2.43172 -1.1046,4.99389 -2.02219,7.05352c-0.31354,0.70378 -0.22073,1.62312 -0.74228,2.13857c-1.78019,2.64105 -3.38143,4.92706 -5.73238,7.06989c-2.10324,2.19171 -4.11822,4.62485 -5.9087,7.08418c-1.77479,2.42725 -4.6689,4.33127 -6.88528,6.28508c-2.03197,1.63983 -5.06618,4.24324 -8.34714,3.93858c-3.56585,-0.41436 -6.87603,0.23319 -10.60274,-0.32588c-3.58353,-0.5381 -7.1662,-1.51749 -10.8553,-2.06024c-3.63846,-0.5353 -7.17027,-0.63698 -10.83571,-1.19437c-3.28519,-0.49959 -8.0056,-2.45878 -10.21114,-5.33048c-2.54422,-3.46981 -6.82184,-2.63532 -9.75462,-2.06914c-0.7798,0.15028 -2.83321,1.02986 -3.6637,0.10219c-0.55086,-0.61532 -1.47089,-4.54476 -1.50367,-5.92428c-2.63542,1.19268 -3.09911,3.51779 -4.7081,5.42709l0.02652,0.01678l-0.19975,0.39626c-0.03485,0.07361 -0.11646,0.11528 -0.21713,0.10018c-0.14355,-0.02153 -0.27149,-0.15031 -0.28577,-0.28764c-0.00009,-0.00079 -0.00017,-0.00159 -0.00024,-0.00238l-0.04741,-0.49632l0.00065,0.00011l-0.00086,-0.00246c-0.14348,-1.89658 -0.36848,-4.65413 0.10693,-6.34122c0.5339,-1.85372 0.88632,-3.9282 0.88482,-5.98508c-0.00088,-1.19792 -0.53211,-2.62338 -0.30064,-3.75027c-2.27071,0.83804 -3.99671,3.70922 -6.06745,5.28143l0.02498,0.02209l-0.29512,0.32825c-0.04199,0.04751 -0.11013,0.07153 -0.19035,0.05949c-0.14355,-0.02153 -0.27149,-0.15031 -0.28577,-0.28764c-0.00007,-0.00072 -0.00015,-0.00146 -0.00022,-0.00218l-0.04778,-0.49641c-0.22287,-2.45641 0.47105,-5.81222 1.14489,-7.98626c0.59641,-1.9242 0.76394,-4.36391 0.50946,-6.55428c-0.02344,-0.20182 -0.21902,-2.19534 -0.34628,-2.2324c-0.2887,-0.08407 -0.36066,0.34519 -0.59985,0.43854c-2.69825,1.04107 -4.37437,3.42925 -6.87666,4.71744l0.04235,0.40817c0,0 0,0 0,0.00001c0.01425,0.13731 -0.09053,0.23115 -0.23407,0.20963c-0.14353,-0.02153 -0.27147,-0.1503 -0.28577,-0.28762v0l-0.05174,-0.49732l0.00016,0.00002l-0.00001,-0.00007h0.00005l-0.00005,-0.00005c-0.12034,-1.16344 -0.2297,-2.32266 -0.31643,-3.48062c-0.23392,-3.12322 0.44713,-7.0807 1.12592,-9.92737c0.50776,-2.12939 0.63545,-4.27308 0.69286,-6.55635c0.01791,-0.71218 -0.30712,-1.6838 -0.23638,-2.39158c-0.83601,0.83171 -2.32373,1.62751 -2.88914,2.6266c-0.30178,0.53323 -0.35741,1.13526 -0.57022,1.69293l0.09269,0.04601l-0.13554,0.43168c-0.02578,0.091 -0.11477,0.14558 -0.22778,0.12864c-0.14355,-0.02153 -0.27149,-0.15031 -0.28577,-0.28764c-0.00019,-0.00182 -0.00036,-0.00362 -0.0005,-0.00543l-0.04188,-0.495c-0.07349,-0.87093 -0.04492,-1.64418 0.0879,-2.45723c0.53424,-3.27023 0.86446,-6.53598 1.63681,-9.72057c0.55118,-2.27268 0.50275,-4.70235 0.88524,-7.01906c0.14853,-0.89963 0.68111,-1.67345 0.57068,-2.65143c-0.06783,-0.64744 -0.03638,-3.80668 -0.59091,-4.26303c-0.0756,-0.06222 -0.92765,0.51177 -0.98738,0.54594c-0.96018,0.54926 -1.49547,1.50762 -2.23663,2.25368c-0.22377,0.74153 -0.46999,1.47414 -0.6664,2.22615c-0.04129,0.15806 -0.28529,1.48856 -0.35531,1.50133c-1.78872,0.32617 -0.43865,-3.32274 0.05593,-3.65699c0.13678,-0.09133 0.32315,-0.29114 0.54532,-0.55056c0.17707,-0.63767 0.33609,-1.28302 0.42899,-1.9505c0.45549,-3.27298 1.76141,-6.09276 2.0894,-9.48942c0.61377,-2.1686 0.98854,-4.54078 0.97114,-6.9462c-0.00353,-0.48839 -0.21542,-1.11813 -0.22461,-1.639c-0.68412,0.88271 -2.08837,1.55392 -2.91935,2.29975c-0.74099,1.25277 -1.72755,2.41031 -2.38882,3.70401c-0.4711,0.92167 -0.53102,2.37527 -1.03229,3.35759c-0.03942,0.17963 -0.07965,0.3567 -0.12061,0.53062l-0.10503,0.44606c-0.02049,0.09906 -0.11258,0.15995 -0.23109,0.14217c-0.14329,-0.02149 -0.27104,-0.14987 -0.28568,-0.28692c0,-0.00003 -0.00001,-0.00006 -0.00001,-0.00009l-0.05318,-0.49745l0.11893,0.01752c-0.11911,-0.97664 0.16227,-2.00105 0.62596,-3.00073c0.11273,-0.69711 0.20908,-1.39467 0.28393,-2.06439c0.37516,-3.30503 1.31578,-6.39801 1.93208,-9.6112c0.40159,-2.08577 0.80451,-4.31962 1.02154,-6.47215c0.05293,-0.52489 -0.08873,-1.25694 -0.08897,-1.86887c-0.7396,1.45383 -2.05139,2.5242 -2.75213,3.9929c-0.47101,0.9872 -0.71829,2.27574 -1.37601,3.07027c0.00112,0.01077 0.00223,0.02153 0.00334,0.0323l0.05123,0.49722c0,0.00001 0,0.00002 0,0.00003c0.01415,0.13721 -0.09061,0.23097 -0.23408,0.20945c-0.14354,-0.02153 -0.27146,-0.15028 -0.28576,-0.2876l-0.05178,-0.49733l0.00055,0.00009l-0.00003,-0.00026c-0.1551,-1.50528 -0.35886,-3.01593 -0.29056,-4.47411c0.15679,-3.34783 0.04287,-6.7865 0.13476,-10.16571c-0.19087,-1.81633 -0.3522,-3.63039 -0.5808,-5.452c-0.03255,-0.2594 -0.01335,-1.60466 -0.15638,-1.77254c-0.28911,-0.33931 -0.35483,0.60173 -0.56966,0.8736c-0.11523,0.14582 -0.22563,0.242 -0.34566,0.32033l-0.327,0.30026c-0.04238,0.03899 -0.10518,0.05773 -0.17792,0.04681c-0.14354,-0.02153 -0.27149,-0.15031 -0.28577,-0.28764v0l-0.0517,-0.49732v0v-0.00001c-0.37118,-3.57411 -0.07991,-6.75701 0.22164,-10.17171c0.19241,-2.12168 -0.39854,-4.67336 -0.62995,-6.89676c-0.05053,-0.48557 -0.25325,-1.27165 -0.26485,-1.89802c-0.35562,0.42272 -0.70054,0.93642 -1.01171,1.46934c-0.07262,0.58061 -0.13884,1.16059 -0.2016,1.73667c-0.07079,0.64537 -0.17762,3.32748 -1.29048,1.96152c-0.6993,-0.85835 0.10164,-2.66116 0.99724,-4.06896c0.33847,-2.65041 0.81659,-5.30874 1.70261,-7.66378c1.11103,-2.9531 1.25978,-6.31956 2.38909,-9.32729c0.43479,-3.24826 1.42379,-6.35201 1.50039,-9.69892c0.03863,-1.6876 -0.45912,-1.65235 -1.04114,-0.97948c-0.0454,0.18114 -0.08989,0.36189 -0.13323,0.54226c-0.61038,1.39983 -0.92058,2.82515 -1.28639,4.3466l-0.02055,0.46299c-0.00326,0.12023 -0.10275,0.19872 -0.23528,0.17885c-0.13779,-0.02066 -0.2612,-0.14016 -0.28351,-0.27117l-0.0899,-0.49959l0.0782,0.00618c-0.48343,-1.74415 0.38319,-3.01117 1.25375,-4.29054c0.02663,-0.06342 0.05387,-0.12677 0.08171,-0.19004c0.72753,-3.07088 1.80456,-6.22748 2.08899,-9.42097c0.29152,-3.27296 0.7335,-6.391 0.79859,-9.72469c-2.66664,0.92938 -4.43972,3.28153 -6.85009,4.45564l0.02254,0.02601l-0.36383,0.25911c-0.04151,0.03011 -0.09796,0.04356 -0.16217,0.03393c-0.14354,-0.02153 -0.27149,-0.15031 -0.28577,-0.28764c-0.00101,-0.00974 -0.00142,-0.01925 -0.00126,-0.02853l0.00162,-0.48342l0.00491,0.0012l-0.00408,-0.01967c0.05487,-0.3137 0.10996,-0.62731 0.16532,-0.94082c0.5771,-3.19092 1.53098,-6.22423 2.67063,-9.23155c1.12733,-2.97481 2.51039,-5.80882 3.81637,-8.68127c0.83607,-1.61862 1.60616,-3.28193 2.39282,-4.93339c-0.22979,-0.06407 -0.24189,-0.28988 -0.24189,-0.28988l-0.00356,-0.06639c-0.07248,-1.40163 0.85715,-3.7155 1.82018,-4.55913c-0.24262,-2.17417 1.00383,-3.72409 2.80397,-4.45842c0.2201,-0.51807 0.4442,-1.03509 0.67745,-1.54908c0,0 0.09311,-0.20498 0.33715,-0.0589c0.24403,0.14607 0.15092,0.35104 0.15092,0.35104c-0.15341,0.33738 -0.30284,0.67612 -0.44975,1.01564c0.91825,-0.24911 1.93512,-0.30736 2.9493,-0.15402c0.29259,-0.54508 1.263,-0.62799 1.79405,-1.10034c1.83339,-1.63074 3.61,-2.77022 5.43173,-4.37568c2.2856,-1.90389 4.71761,-4.27124 7.60937,-5.36841c2.30125,-2.07944 5.08655,-3.62462 7.42382,-5.65556c0.85357,-0.6863 2.26548,-2.03169 3.39657,-2.30793c1.83099,-0.44716 4.00388,0.05947 5.87184,-0.42197c2.39411,0.05915 4.99642,-0.36145 7.25916,-0.62332c0.9409,-0.1089 2.19732,0.71171 2.76286,-0.08698c3.56315,-0.44589 6.23586,-1.53266 9.44896,-2.68301c1.95089,-0.69424 3.35288,-1.91098 5.05886,-2.88571c0.44411,-0.25374 1.15431,-0.53726 1.74289,0.02241c0.56953,0.54156 0.95822,1.84787 1.2445,2.54009c1.14538,3.53538 2.29722,7.00463 3.37638,10.54911c0.40864,1.34218 0.63952,2.64079 0.80671,3.93911c0.01772,0.03075 0.0302,0.06377 0.03596,0.09755l0.09004,0.49959c0.0354,0.19969 0.07434,0.40012 0.11637,0.6012c0.04721,0.16844 0.08655,0.34958 0.11946,0.53939c0.60564,2.59632 1.65186,5.28853 2.15717,7.89891c0.68538,3.54063 1.04352,6.99548 1.40765,10.50025c0.29528,2.84213 1.32968,6.72309 0.85076,9.45361l0.04037,0.01142l-0.02224,0.47773c-0.00349,0.11998 -0.10289,0.19826 -0.23526,0.1784c-0.08837,-0.01326 -0.17081,-0.06714 -0.22447,-0.13866l-0.34223,-0.44684l0.019,-0.01094l-0.06081,-0.05982c-0.11228,-0.74207 -0.33342,-1.42311 -0.57917,-2.08204c0.06572,0.75199 0.05467,1.50893 0.22293,2.24816c0.45715,2.00843 1.3446,4.00561 1.77864,6.03097c0.75531,3.52454 1.43158,7.04399 2.19031,10.56902c0.06413,0.61837 0.86699,4.97913 -0.3934,4.32049c-0.14192,-0.07416 -0.25592,-1.03204 -0.29212,-1.21054c-0.07259,-0.35791 -0.24482,-0.76652 -0.44609,-1.1932c0.17546,0.90754 0.34424,1.81538 0.6452,2.74475c1.14086,3.52307 2.18503,7.04415 3.17019,10.57324c0.97508,3.49298 1.03428,7.01674 1.76282,10.5225c0.31166,1.50439 0.36959,3.0205 0.51405,4.50719c0.01743,0.17932 0.13962,1.14467 -0.00804,1.18642c-0.43246,0.12229 -1.01483,-1.14457 -1.43615,-2.40417c0.35253,2.31973 0.89785,4.63907 1.14339,6.95678c0.36552,3.4707 1.63863,7.06551 2.00164,10.54101c0.2883,2.77298 1.28031,6.5296 0.96116,9.27027c0.0069,0.06008 0.01367,0.11916 0.02036,0.17717l-0.00111,0.00101l0.00124,0.00018l0.00004,0.00034l0.00071,0.0001l0.0517,0.49732v0c0.01428,0.13733 -0.09052,0.2312 -0.23407,0.20967c-0.14342,-0.02151 -0.27128,-0.1501 -0.28573,-0.28731c0,-0.00001 0,-0.00003 0,-0.00004l-0.05231,-0.49648c-0.01042,-0.09041 -0.02234,-0.18047 -0.03563,-0.27022zM251.07134,143.62505c0.10721,-0.44886 0.21701,-0.8907 0.33888,-1.32697c-0.17292,0.41306 -0.29504,0.78064 -0.33312,1.02293c-0.01577,0.10039 -0.01529,0.20209 -0.00575,0.30404zM248.01766,169.31287c-0.08462,0.18267 -0.16255,0.3602 -0.23277,0.52938c-0.1731,0.41707 -0.21223,0.79422 -0.15718,1.27964c0.02165,0.19094 0.17188,0.77141 0.13234,0.5787c-0.15674,-0.76423 0.15266,-1.42067 0.23276,-2.16123c0.00822,-0.07543 0.0165,-0.15094 0.02484,-0.22649zM257.36276,233.97301c-0.55748,0.40924 -0.76193,0.81015 -0.77642,1.64617c-0.0056,0.32311 0.17144,1.31975 0.20295,1.00422c0.09079,-0.90938 0.32346,-1.78036 0.57348,-2.65039zM343.18465,202.88993c-0.14805,-0.47176 -0.38912,-0.99517 -0.64858,-1.53072c0.16227,0.37813 0.32712,0.75242 0.48046,1.11856c0.05725,0.1367 0.11327,0.27411 0.16812,0.41216z"/><path d="M363.71258,94.70991c-0.31943,-1.95252 -1.32804,-2.98783 -2.71297,-3.40598c1.0426,1.51095 2.07243,3.02438 3.25149,4.43528c0.70497,0.84386 1.38662,1.71229 2.06029,2.58928c-0.35015,-1.34901 -1.61003,-2.95952 -2.59881,-3.61858zM299.87019,198.77811l0.05094,0.49662c0,0.00001 0,0.00003 0,0.00004c0.01408,0.13725 -0.08458,0.28939 -0.22052,0.33993c-0.13605,0.0506 -0.25791,-0.01972 -0.27219,-0.15705v0l-0.05172,-0.49732l0.00068,-0.00025l-0.00003,-0.00034l0.00118,-0.00043l-0.00129,-0.00076c-0.00539,-0.05814 -0.01092,-0.11736 -0.01652,-0.17756c-0.87612,-2.6164 -0.67811,-6.49676 -0.96641,-9.26972c-0.3597,-3.47586 0.14668,-7.25568 -0.20958,-10.72734c-0.23649,-2.31866 -0.17995,-4.70056 -0.31214,-7.0432c-0.15321,1.31933 -0.46253,2.6789 -0.91089,2.6482c-0.15308,-0.01048 -0.23209,-0.98032 -0.25193,-1.15939c-0.16447,-1.4846 -0.41965,-2.9802 -0.42413,-4.51653c-0.0082,-3.58066 -0.67516,-7.04123 -0.43948,-10.6601c0.23811,-3.65626 0.53562,-7.31685 0.92735,-10.99925c0.10334,-0.97141 0.08174,-1.89454 0.06677,-2.81878c-0.1092,0.45896 -0.19369,0.89425 -0.1911,1.25944c0.00129,0.18213 0.08678,1.14297 -0.03685,1.24474c-1.09796,0.90382 -1.20933,-3.52884 -1.27377,-4.14717c0.01738,-3.60573 -0.04482,-7.18902 -0.0307,-10.79355c0.00811,-2.07134 0.46574,-4.20837 0.49996,-6.26788c0.0126,-0.75803 -0.15394,-1.4965 -0.24431,-2.24593c-0.10496,0.69538 -0.18126,1.40735 -0.13848,2.15666l-0.04721,0.07104l0.02085,0.00679l-0.243,0.50769c-0.0378,0.08102 -0.1074,0.15072 -0.19115,0.18186c-0.12545,0.04666 -0.23883,-0.00948 -0.26693,-0.12619l-0.12005,-0.46294l0.03715,-0.01946c-1.03038,-2.57361 -0.81645,-6.58435 -1.11215,-9.42644c-0.36463,-3.50472 -0.72486,-6.95933 -0.78248,-10.56525c-0.04248,-2.6585 0.42755,-5.50836 0.48613,-8.17374c-0.00684,-0.19252 -0.0056,-0.37788 0.00595,-0.55242c-0.00023,-0.20543 -0.00336,-0.40958 -0.0098,-0.61228l-0.01465,-0.50744c-0.00132,-0.03424 0.0041,-0.06912 0.01512,-0.10286c-0.10347,-1.30495 -0.14466,-2.62327 -0.02086,-4.02081c0.32693,-3.69066 0.74048,-7.32267 1.13409,-11.01806c0.13776,-0.73631 0.2494,-2.09463 0.69535,-2.74177c0.46086,-0.66878 1.2142,-0.53744 1.70101,-0.38048c1.87,0.60295 3.49231,1.50526 5.5443,1.78333c3.38103,0.46479 6.22014,0.9785 9.79881,0.68187c0.71774,0.66527 1.77848,-0.39625 2.72166,-0.48323c2.26821,-0.2092 4.90139,-0.33291 7.23213,-0.8833c1.92705,0.08689 3.94925,-0.8559 5.83306,-0.79496c1.16372,0.03765 2.82219,1.06382 3.79869,1.55985c2.70508,1.5067 5.74866,2.44587 8.42846,4.00745c3.05561,0.47883 5.9226,2.29524 8.55096,3.68824c2.11302,1.19637 4.08607,1.94601 6.21569,3.16472c0.61686,0.353 1.58357,0.23453 1.98203,0.70776c0.96095,-0.35868 1.96805,-0.51086 2.9179,-0.45598c-0.21361,-0.30204 -0.42953,-0.60279 -0.64907,-0.90139c0,0 -0.13329,-0.18143 0.07548,-0.37459c0.20877,-0.19315 0.34205,-0.01171 0.34205,-0.01171c0.334,0.45501 0.65966,0.91487 0.98163,1.37659c1.91269,0.34831 3.45134,1.60867 3.66115,3.78625c1.11598,0.62749 2.50173,2.70062 2.71912,4.08719l0.01017,0.06569c0,0 0.03461,0.22348 -0.17709,0.33344c1.10957,1.45431 2.20535,2.92364 3.35651,4.33565c1.86894,2.54236 3.80541,5.03126 5.52058,7.71053c1.73392,2.70856 3.29138,5.48077 4.51255,8.48474c0.11867,0.29542 0.23711,0.59099 0.35533,0.88669l0.00005,0.02009l0.00456,-0.00218l0.10103,0.47275c0.00205,0.00905 0.00361,0.01843 0.00462,0.02816c0.01428,0.13733 -0.08444,0.28968 -0.22048,0.34028c-0.06084,0.02263 -0.11885,0.02108 -0.16567,0.00015l-0.40936,-0.17872l0.01671,-0.03009c-2.60035,-0.65316 -4.81937,-2.59025 -7.62014,-2.9512c0.74948,3.249 1.82342,6.20942 2.78199,9.35242c0.93529,3.06668 2.63864,5.93422 3.98232,8.78976c0.04026,0.05619 0.07995,0.11257 0.11906,0.16916c1.11513,1.07291 2.22385,2.13458 2.10956,3.94087l0.07526,-0.02214l0.01479,0.5074c0.00512,0.13279 -0.09108,0.27511 -0.22166,0.32369c-0.1256,0.04672 -0.2391,-0.00962 -0.26703,-0.12662l-0.11536,-0.44885c-0.67097,-1.41366 -1.26774,-2.74468 -2.15301,-3.98901c-0.07952,-0.1676 -0.16023,-0.33534 -0.24193,-0.50326c-0.70799,-0.53876 -1.20235,-0.47085 -0.81738,1.1727c0.76346,3.25958 2.36979,6.09349 3.46349,9.18284c1.72388,2.71109 2.56197,5.97495 4.25673,8.63634c1.35154,2.12241 2.36628,4.62553 3.24273,7.14962c1.16605,1.19346 2.32072,2.79295 1.81294,3.77679c-0.80806,1.56567 -1.46434,-1.03708 -1.66637,-1.65409c-0.17993,-0.55085 -0.36404,-1.10481 -0.55455,-1.65805c-0.41414,-0.4575 -0.85738,-0.88927 -1.29233,-1.2298c0.1175,0.61536 0.08083,1.42633 0.13127,1.91191c0.23093,2.22345 0.17752,4.84212 0.80227,6.87885c0.99755,3.27964 1.93734,6.33454 2.30934,9.90858l-0.00001,0.00001h0.00001l0.0517,0.49732v0c0.01428,0.13733 -0.08443,0.28967 -0.22048,0.34027c-0.06894,0.02563 -0.13424,0.02024 -0.18374,-0.00921l-0.38178,-0.22657c-0.13358,-0.05197 -0.2614,-0.12338 -0.40416,-0.24238c-0.26617,-0.22187 -0.52405,-1.12927 -0.73719,-0.73774c-0.10544,0.19371 0.19009,1.50624 0.2116,1.7668c0.15101,1.82968 0.36631,3.63812 0.55316,5.45487c0.78505,3.28804 1.38095,6.67659 2.22307,9.92057c0.36679,1.41295 0.47816,2.9332 0.63603,4.43819l0.00003,0.00027l0.00052,-0.0002l0.05163,0.49735c0.01425,0.13732 -0.08446,0.28964 -0.22049,0.34024c-0.13597,0.05057 -0.25777,-0.01964 -0.27216,-0.15681c0,-0.00001 0,-0.00002 0,-0.00003l-0.05215,-0.49712c-0.00113,-0.01077 -0.00225,-0.02153 -0.00338,-0.03229c-0.8071,-0.64222 -1.31414,-1.85234 -1.97816,-2.72154c-0.98788,-1.29314 -2.4918,-2.07076 -3.51466,-3.34136c0.12565,0.59889 0.13761,1.34443 0.29737,1.84721c0.65518,2.06184 1.50903,4.16504 2.33109,6.12358c1.26412,3.01769 2.82088,5.85104 3.8679,9.0082c0.21101,0.63999 0.44878,1.30281 0.70252,1.96183c0.65942,0.88293 1.14553,1.82754 1.22987,2.80779l0.11278,-0.04161l0.05028,0.49775c0,0.00003 0,0.00006 0.00001,0.00009c0.01387,0.13715 -0.08474,0.28906 -0.22056,0.33957c-0.11232,0.04177 -0.21497,0.00112 -0.25539,-0.09161l-0.19455,-0.4149c-0.07585,-0.16178 -0.15164,-0.32677 -0.22718,-0.49446c-0.69262,-0.85818 -1.05027,-2.26837 -1.7009,-3.07343c-0.91326,-1.13001 -2.11683,-2.05985 -3.09969,-3.13339c-0.96663,-0.55892 -2.47893,-0.92692 -3.33,-1.65002c0.09815,0.51162 0.02034,1.17148 0.11734,1.65016c0.47779,2.35756 1.33253,4.60192 2.37929,6.59788c1.0197,3.25654 2.87776,5.74737 3.9968,8.85665c0.22821,0.63411 0.5166,1.23294 0.82106,1.82054c0.27079,0.20818 0.49427,0.36536 0.64691,0.42661c0.55276,0.22537 2.62458,3.51851 0.80702,3.56727c-0.07115,0.0019 -0.58364,-1.24992 -0.65656,-1.39613c-0.34692,-0.69552 -0.73857,-1.3618 -1.11011,-2.04145c-0.87878,-0.57763 -1.59976,-1.40538 -2.6524,-1.74538c-0.06549,-0.02115 -1.01739,-0.40757 -1.07857,-0.33114c-0.44878,0.56067 0.23187,3.64587 0.29869,4.29341c0.09312,0.97978 0.7735,1.6275 1.10392,2.47732c0.85089,2.18849 1.3033,4.57614 2.31021,6.68683c1.41094,2.95761 2.40591,6.08558 3.60144,9.17597c0.29723,0.76833 0.48426,1.51917 0.5915,2.38659l0.06086,0.49303c0.00023,0.00179 0.00043,0.00359 0.00062,0.00541c0.01428,0.13733 -0.08444,0.28967 -0.22048,0.34027c-0.1071,0.03984 -0.20542,0.00473 -0.24936,-0.07903l-0.22145,-0.39458l0.08124,-0.0641c-0.32298,-0.50198 -0.50126,-1.07967 -0.90628,-1.53942c-0.75885,-0.86139 -2.37845,-1.33415 -3.36768,-1.97609c0.21485,0.6781 0.09663,1.6958 0.26066,2.38906c0.52587,2.22262 1.09182,4.29421 2.02676,6.2736c1.24987,2.64614 2.73045,6.37889 3.14402,9.48343c0.15333,1.15103 0.28478,2.30795 0.40634,3.47127l-0.00003,0.00006l0.00004,-0.00002v0.00008l0.00014,-0.00006l0.05166,0.49734v0c0.01427,0.13732 -0.08443,0.28967 -0.22048,0.34026c-0.13603,0.05059 -0.25787,-0.0197 -0.27219,-0.15699v0l-0.04253,-0.40815c-2.71377,-0.74588 -4.84531,-2.73818 -7.70001,-3.20193c-0.25329,-0.04215 -0.412,-0.44741 -0.67724,-0.30575c-0.11691,0.06245 0.10178,2.05355 0.12035,2.25588c0.20155,2.19587 0.86738,4.54894 1.84686,6.3093c1.10666,1.98892 2.47605,5.13021 2.76326,7.57993l0.05536,0.49561c0.00009,0.00072 0.00016,0.00145 0.00023,0.00218c0.01428,0.13733 -0.08444,0.28968 -0.22048,0.34028c-0.07605,0.02828 -0.14765,0.01879 -0.19851,-0.01907l-0.35633,-0.26051l0.0199,-0.02677c-2.34985,-1.11262 -4.62959,-3.56732 -7.02412,-3.92033c0.45835,1.05519 0.2317,2.55943 0.47726,3.73191c0.42165,2.01321 1.19328,3.97081 2.09709,5.67506c0.81229,1.5532 1.15937,4.29806 1.40911,6.18359l-0.00034,0.00259l0.00061,-0.00023l0.0557,0.49546c0.00009,0.00079 0.00017,0.00158 0.00025,0.00237c0.01428,0.13733 -0.08444,0.28968 -0.22048,0.34028c-0.09541,0.03548 -0.18385,0.0115 -0.23309,-0.05336l-0.27697,-0.34669l0.02249,-0.02189c-1.96733,-1.53747 -2.89942,-3.71747 -5.72382,-4.34249c0.25171,1.35674 0.15968,5.39142 -0.25281,6.10688c-0.6219,1.07867 -2.81232,0.64031 -3.60637,0.65366c-2.98653,0.04923 -7.34434,0.11256 -9.12036,4.03154c-1.56763,3.26398 -5.78406,6.15231 -8.89621,7.31703c-3.47238,1.29949 -6.90774,2.12554 -10.35826,3.39786c-3.49854,1.29003 -6.80313,2.98547 -10.19932,4.24923c-3.532,1.31375 -6.90458,1.361 -10.30894,2.50002c-3.14812,0.97307 -6.65299,-0.95049 -8.97883,-2.13723c-2.5709,-1.45609 -5.79478,-2.72404 -8.03093,-4.73428c-2.2581,-2.03841 -4.7305,-4.00501 -7.23962,-5.71718c-2.74146,-1.61338 -4.77873,-3.52112 -7.06414,-5.73948c-0.61642,-0.39713 -0.71472,-1.3159 -1.16633,-1.94013c-1.32166,-1.82681 -2.94911,-4.10287 -3.42993,-6.48667c-0.18036,-1.38128 -0.854,-3.59436 -0.52796,-5.07394c0.39166,-1.77738 1.5721,-3.93135 1.73594,-5.709c0.35937,-3.64749 1.17708,-7.42982 1.9044,-11.11386c0.07785,-0.8058 0.21219,-1.59306 0.37421,-2.37798c-0.00676,-0.00264 -0.01356,-0.00539 -0.02039,-0.00824c-0.86723,-0.36122 -0.04322,-5.35973 -0.007,-6.36271c0.13007,-3.60113 -0.20535,-7.26287 0.62631,-10.94158c0.56415,-2.47648 0.24252,-4.86753 1.02767,-7.38557l0.16326,-0.52192c0.02956,-0.10085 0.10944,-0.19313 0.20951,-0.23035c0.13048,-0.04853 0.24792,0.01416 0.2699,0.14053l0.08857,0.47986l-0.07479,0.03384c0.14972,0.55143 0.24214,1.13092 0.52208,1.53363c0.09256,0.13314 0.05801,-0.38404 0.03717,-0.56172c-0.05669,-0.48342 -0.13274,-1.02663 -0.12203,-1.53059c0.03607,-1.69759 0.41843,-3.56166 0.6439,-5.2932c0.4796,-3.68315 0.3322,-7.23897 0.58965,-10.89223c0.21184,-3.006 0.14947,-6.21952 0.53997,-9.30618c-0.01868,0.01198 -0.03849,0.02202 -0.05917,0.02971c-0.13583,0.05051 -0.2575,-0.01948 -0.27211,-0.15637c0,-0.00003 -0.00001,-0.00005 -0.00001,-0.00008l-0.05301,-0.49675l0.03817,-0.0143c-0.92367,-2.64446 -0.72477,-6.58001 -1.02161,-9.43507c-0.35993,-3.46195 -0.28315,-7.09239 -0.64498,-10.58131c-0.10217,-0.98515 -0.20452,-1.97025 -0.30692,-2.95532c-0.09456,1.29404 -0.34333,2.60173 -0.37014,3.9163c0.03153,0.27619 0.04411,0.55201 0.01446,0.80476c0.00545,0.09056 0.01232,0.18115 0.02073,0.27176zM380.5931,138.90962c-0.08711,-0.22926 -0.28224,-0.56388 -0.53643,-0.93253c0.209,0.40186 0.40735,0.81169 0.6046,1.22889c-0.01163,-0.10172 -0.03208,-0.20136 -0.06817,-0.29636zM389.00485,163.93274c0.23073,0.70825 0.66857,1.28699 0.67238,2.06713c0.00097,0.19671 0.02855,-0.40224 0.01047,-0.59355c-0.04599,-0.48637 -0.16187,-0.8474 -0.41706,-1.21993c-0.10352,-0.15112 -0.21631,-0.30882 -0.3367,-0.47018c0.02371,0.07224 0.04735,0.14441 0.0709,0.21654zM394.19647,231.3916c0.09573,0.3023 0.06398,-0.70945 -0.00797,-1.02449c-0.18615,-0.81518 -0.46871,-1.16544 -1.09846,-1.45126c0.42364,0.8 0.83051,1.60449 1.10642,2.47575zM302.78925,215.7142c0.07475,-0.38985 0.15907,-0.79004 0.24008,-1.19346c-0.14375,0.57748 -0.27198,1.13927 -0.31982,1.6314c0.02528,-0.14639 0.05183,-0.29238 0.07974,-0.43793z"/></g><path d="M260.52378,461.16386c0,0 6.20785,-54.6336 6.54985,-93.0366c0.41903,-47.05385 -4.21951,-168.64272 -4.21951,-168.64272c0,0 -4.38848,-17.54298 0.25259,-30.31483c3.60765,-9.92801 15.53584,-15.7508 20.81161,-16.0657c11.97935,-0.71502 40.36048,-1.70403 65.16233,-3.18444c13.41681,-0.80083 29.04324,-1.67612 34.27667,10.03225c5.25952,11.76676 0.09254,36.11953 0.09254,36.11953c0,0 -5.44844,113.92712 -6.29226,161.25935c-0.76144,42.71149 1.45106,110.2983 1.45106,110.2983z" fill="#000000" stroke="#000000" stroke-width="2.5" stroke-linecap="butt"/><path d="M294.8751,150.90462c0.91352,0.86592 2.22411,0.68836 3.30852,1.16346c0.87304,0.3825 1.37566,1.56165 2.22055,2.15525c2.60312,1.82897 5.83316,2.34741 8.6809,3.04436c0.75428,0.1846 5.21112,0.33621 5.47311,1.31524c0.12356,0.46178 -2.859,5.91522 -3.23786,6.55997c-3.63704,6.18953 -7.8162,11.58871 -13.58498,12.91727c-1.01501,0.23375 -5.56025,1.76103 -6.16887,0.28131c-0.4393,-1.06802 0.08903,-4.71019 0.11357,-6.00886c0.08488,-4.49057 0.10376,-9.56389 1.18297,-13.85415c0.62575,-2.48755 1.48274,-4.91089 1.53411,-7.6286z" fill="url(#color-1)" stroke="#000000" stroke-width="2.5" stroke-linecap="round"/><path d="M314.73886,159.86467c1.43822,-0.02299 2.0719,-1.20141 3.34693,-1.52115c4.67604,-1.17267 10.91903,-3.97975 15.34058,-1.66806c0.66372,0.34702 1.84334,1.21496 1.96162,2.34015c0.37473,3.56458 -3.47812,17.88402 -4.97057,21.38376c-0.87804,2.05896 -1.19757,4.71936 -2.72625,6.18242c-2.46224,2.35655 -5.1321,-0.77949 -6.94189,-2.10721c-1.01522,-0.74478 -2.06856,-1.07905 -2.71211,-2.54122c-1.61847,-3.67728 -4.04361,-18.80041 -3.62401,-23.2704z" fill="url(#color-2)" stroke="#000000" stroke-width="2.5" stroke-linecap="round"/><path d="M324.92609,187.25817c9.24031,3.58667 5.11329,11.48654 6.22612,22.07463c0.57088,5.43153 2.51617,10.42578 2.11145,16.21656c-0.40537,5.79998 -1.52436,14.20299 -6.68277,15.15087c-1.43118,0.26298 -5.12526,0.62063 -6.16121,-0.76182c-1.04228,-1.39088 -1.24282,-5.33161 -1.51367,-7.35458c-1.33802,-9.99398 0.13012,-18.37303 1.5674,-28.47603c0.64837,-4.55754 0.00594,-14.3807 3.70014,-16.89707z" fill="url(#color-3)" stroke="#000000" stroke-width="2.5" stroke-linecap="round"/><path d="M354.17198,149.24616c-0.05137,2.71772 0.71404,5.14105 1.24573,7.62861c0.91703,4.29027 0.74412,9.36357 0.65925,13.85415c-0.02454,1.29868 0.36609,4.94082 -0.11358,6.00885c-0.66457,1.47973 -5.15207,-0.04754 -6.15823,-0.2813c-5.71857,-1.32855 -9.69362,-6.72772 -13.09667,-12.91727c-0.35449,-0.64475 -3.13091,-6.09819 -2.98988,-6.55998c0.29899,-0.97903 4.76157,-1.13065 5.52283,-1.31524c2.8741,-0.69694 6.12372,-1.2154 8.79599,-3.04435c0.86732,-0.59362 1.41451,-1.77275 2.30202,-2.15524c1.10237,-0.4751 2.40626,-0.29755 3.3525,-1.16347z" fill="url(#color-4)" stroke="#000000" stroke-width="2.5" stroke-linecap="round"/><path d="M365.51374,116.47032c1.09521,28.78867 -21.49233,55.93297 -50.90296,56.90432c-29.41063,0.97135 -54.50715,-24.5981 -55.60235,-53.38674c-0.27465,-7.2195 4.67371,-10.81195 4.8999,-13.97718c0.64792,-9.06656 0.04802,-5.87204 19.50471,-6.06727c0.83682,-0.0084 4.86074,-8.78499 5.76936,-8.81501c7.77411,-0.25676 5.54582,-1.85392 15.59297,-2.76981c5.93833,-0.54134 9.17619,2.36566 16.17732,2.75033c6.61798,0.36362 17.03518,-1.83374 21.58146,-0.99054c5.16781,0.95847 8.49789,1.29562 12.15905,4.50136c2.33256,2.04242 2.63936,6.36959 4.41673,9.39797c2.60804,4.44366 6.23194,7.93462 6.40382,12.45257z" fill="#000000" stroke="#000000" stroke-width="2.5" stroke-linecap="butt"/><path d="M394.803,79.75788c1.19725,11.51557 -36.29358,24.84954 -83.7381,29.78224c-47.44452,4.93269 -86.87645,-0.40378 -88.0737,-11.91936c-1.19725,-11.51557 36.29358,-24.84957 83.7381,-29.78226c47.44452,-4.9327 86.87647,0.40379 88.07372,11.91939z" fill="#000000" stroke="#000000" stroke-width="2.5" stroke-linecap="butt"/><path d="M263.44302,93.41507c0,0 -17.13087,-38.08688 -5.94786,-57.20872c11.18301,-19.12183 28.88502,-19.02119 44.09178,-20.6022c14.96107,-1.55546 34.51562,-2.36037 46.42375,11.19153c11.90811,13.55191 5.94786,57.20873 5.94786,57.20873z" fill="#000000" stroke="#000000" stroke-width="2.5" stroke-linecap="butt"/><path d="M256.6135,75.85909l-0.72261,-6.95027c0,0 35.18507,-0.68026 51.84608,-2.41246c16.14446,-1.6785 46.61916,-7.82474 46.61916,-7.82474l0.7226,6.95027c0,0 -30.62454,6.16182 -46.99772,7.8641c-16.44821,1.71008 -51.46753,2.3731 -51.46753,2.3731z" fill="url(#color-5)" stroke="#000000" stroke-width="2.5" stroke-linecap="butt"/><path d="M281.23811,112.02442c0,0.25 -0.25,0.25 -0.25,0.25l-0.36662,-0.07322c-0.03252,-0.0361 -0.06262,-0.07299 -0.09038,-0.11061c-0.01149,0.13788 -0.02076,0.27708 -0.02794,0.41742c0.25007,0.75738 0.67971,1.47325 1.21642,2.10287c-0.2349,-1.26064 -0.22768,-2.62201 -0.12552,-3.94399c0.09758,-0.63634 0.23776,-1.19413 0.41887,-1.68145c-0.07239,0.0455 -0.1447,0.09249 -0.21695,0.14102c-0.8547,1.10763 -1.43924,2.22556 -0.82094,2.7212l0.01307,-0.07322c0,0 0.25,0 0.25,0.25zM293.98937,109.66557c0.33312,1.17136 0.11396,2.507 -0.86401,3.79889c-0.1105,0.14556 -0.22861,0.29214 -0.35368,0.43905c-0.24841,1.04956 -0.67175,2.04024 -1.24009,2.86654c-0.16578,0.24101 -0.34165,0.47122 -0.52665,0.6896c0.18594,-0.11491 0.37052,-0.23305 0.5525,-0.35471c0.28744,-0.35295 0.55715,-0.707 0.80808,-1.04946c1.68838,-2.41212 2.94793,-4.30087 1.62385,-6.38992zM284.60402,106.83818c-0.5382,0.21851 -0.99889,0.53926 -1.37882,0.99159c1.67217,-0.6335 3.42446,-0.68733 5.4517,-0.70659c0,0 0.25,0 0.25,0.25c0,0.25 -0.25,0.25 -0.25,0.25c-2.22496,-0.01711 -4.12478,0.0566 -5.94656,0.95983c-0.2914,0.56812 -0.50557,1.27294 -0.63956,2.1411c-0.11791,1.5402 -0.11574,3.15722 0.29557,4.57617c0.55938,0.51113 1.1855,0.93479 1.82206,1.23625c1.33843,0.38008 2.39867,0.46197 3.27973,0.25043c1.17333,-0.90139 2.06032,-2.36316 2.53214,-3.85621c0.67595,-2.09512 1.48142,-4.78857 0.05106,-6.03793c-0.16885,-0.05406 -0.33721,-0.10381 -0.50419,-0.14929c-1.39123,-0.05678 -2.78473,0.02534 -3.9344,0.02534c-0.3666,-0.00121 -0.70905,0.02252 -1.02873,0.06931zM291.80208,106.99635c0.16985,0.09899 0.33222,0.20538 0.4865,0.31855c1.77279,1.00651 3.17464,2.55579 3.18805,4.70953c0,0.22484 -0.0141,0.44349 -0.04122,0.65621c0.54519,-1.59214 0.53193,-3.22008 -0.84603,-4.39888c-0.75422,-0.67452 -1.72635,-1.06435 -2.7873,-1.28541zM293.35715,116.32971c-0.44451,0.40786 -0.93484,0.78268 -1.44655,1.13055c-0.15486,0.18847 -0.31432,0.37598 -0.47827,0.56092c0.5764,-0.42267 1.14253,-0.91117 1.71399,-1.42215c0.06931,-0.08694 0.13971,-0.17679 0.21083,-0.26932zM287.0825,119.36226c0.22795,-0.0474 0.45265,-0.10983 0.67339,-0.18643c0.26051,-0.12094 0.52213,-0.23661 0.78474,-0.34143c0.05112,-0.02717 0.10262,-0.0545 0.15446,-0.08202c0.93196,-0.52138 1.76226,-1.30281 2.42455,-2.26569c0.36274,-0.52736 0.66343,-1.12846 0.89252,-1.77097c-1.93809,1.90061 -4.85798,3.63448 -7.32281,3.63344c-0.04971,-0.00019 -0.09928,-0.00064 -0.1487,-0.00137c0.27244,0.17926 0.57251,0.34026 0.9027,0.48065c0.57549,0.27892 1.11982,0.45113 1.63915,0.53383zM283.7879,120.70701c-1.39288,-0.73274 -2.34784,-1.81833 -2.95256,-3.11818c-0.50572,-0.2448 -0.95696,-0.55331 -1.3404,-0.93204c0.21779,0.94173 0.60372,1.82075 1.19561,2.56771c0.99459,1.24598 2.03009,1.58828 3.09734,1.48252zM291.12828,110.76668c-0.15855,0.78248 -0.39302,1.57639 -0.63215,2.31759c-0.36052,1.09795 -0.92239,2.1698 -1.64486,3.04593c0.83043,-0.64326 1.49252,-1.68704 2.14638,-3.12364c0.055,-0.727 0.11553,-1.48694 0.13062,-2.23989zM278.77633,114.41151c0.01238,-0.74126 0.09805,-1.48712 0.2436,-2.21267c0.00609,-0.71885 0.08818,-1.46475 0.2394,-2.2318c0.37824,-1.12304 1.00063,-1.95869 1.77747,-2.57758c1.25694,-1.82934 2.80518,-2.77185 4.99283,-2.96158c-1.08932,-0.16586 -2.21857,-0.05461 -3.30857,0.43419c-2.81144,1.24699 -4.10793,5.02779 -4.13357,7.9018c-0.00568,0.61308 0.06006,1.16055 0.18884,1.64764zM285.61404,119.45419c-0.12484,-0.05221 -0.25093,-0.10912 -0.37829,-0.17089c-0.61485,-0.26544 -1.13396,-0.59586 -1.57064,-0.97859c-0.45579,-0.03912 -0.89525,-0.10458 -1.31375,-0.19866c0.26533,0.19772 0.55102,0.38608 0.85776,0.5646c0.80255,0.46848 1.61315,0.71904 2.40493,0.78354zM286.45593,117.39328c-0.7142,0.0011 -1.51502,-0.12766 -2.42317,-0.38862c-0.44871,-0.20977 -0.88733,-0.47191 -1.30209,-0.77712c0.19014,0.40958 0.42626,0.79395 0.71709,1.14481c0.01681,0.00689 0.03363,0.01364 0.05047,0.02024c1.07281,0.42412 2.07166,0.37117 2.95771,0.00069zM281.8227,118.32725c0.6477,0.94466 1.55892,1.71253 2.79366,2.21732c0.49136,-0.13878 0.98877,-0.3457 1.49138,-0.57822c-1.0327,0.01571 -2.10168,-0.25265 -3.15052,-0.86377c-0.41326,-0.24148 -0.79097,-0.50032 -1.13452,-0.77532zM287.84525,104.42822c0.00856,0.00063 0.01712,0.00127 0.02569,0.00192c1.18587,0.33847 2.01413,0.91514 2.58492,1.64791c0.10262,0.092 0.2031,0.1861 0.30131,0.28213c1.54431,0.17639 3.01639,0.59396 4.1576,1.54194c2.89882,2.48927 0.50707,6.65804 -1.40478,9.04004c-1.13742,1.02945 -2.27774,1.95834 -3.50892,2.49558c-1.50728,1.2802 -3.28671,2.11578 -5.28512,1.67992c-0.05757,-0.02114 -0.11453,-0.04278 -0.17089,-0.06492c-1.46936,0.3781 -2.88605,0.18646 -4.24583,-1.51702c-0.82976,-1.04714 -1.28376,-2.33115 -1.45007,-3.68829c-0.49752,-0.80244 -0.77339,-1.82105 -0.76164,-3.08819c0.02955,-3.07754 1.43445,-7.01996 4.43047,-8.35408c1.7787,-0.78419 3.65335,-0.66069 5.32726,0.02305zM289.8549,115.86128c0.94649,-0.66745 1.79975,-1.43515 2.45856,-2.19181c0.46176,-2.07167 0.20646,-4.3712 -1.03889,-5.97253c0.50164,1.63778 0.37105,3.61273 0.20745,5.43367c-0.4938,1.1334 -1.01932,2.04553 -1.62712,2.73068zM288.72003,119.30044c-0.0335,0.01709 -0.06711,0.03387 -0.10083,0.05035c0.38395,-0.06798 0.75572,-0.183 1.11858,-0.33593c0.23107,-0.19963 0.45531,-0.41017 0.67243,-0.628c-0.56514,0.32192 -1.12811,0.61985 -1.6593,0.90116c-0.0103,0.00413 -0.0206,0.00827 -0.03089,0.01242zM289.49349,105.93517c-0.54303,-0.40594 -1.1342,-0.75207 -1.75577,-1.01592c-2.41929,-0.1623 -4.09765,0.3487 -5.42675,1.69362c0.51256,-0.23634 1.05991,-0.41505 1.62596,-0.54879c0.04334,-0.0423 0.08348,-0.08178 0.12008,-0.11825c1.49464,-1.00057 3.55296,-0.72466 5.43648,-0.01066zM292.96177,112.82895c1.18788,-1.83246 0.71852,-3.68085 -0.6633,-4.87439c-0.13127,-0.08816 -0.2692,-0.17765 -0.41298,-0.26754c0.98009,1.44357 1.29104,3.32601 1.07628,5.14193zM287.36968,119.90193c-0.62387,0.29377 -1.23948,0.591 -1.84652,0.82828c1.10685,0.06896 2.14007,-0.28607 3.08387,-0.87402c-0.40013,0.06453 -0.81174,0.08255 -1.23736,0.04574zM281.4508,117.32222c0.48141,0.1878 1.00916,0.32085 1.57182,0.40628c-0.87034,-0.42355 -1.67744,-1.16243 -2.29856,-2.05176c0.09327,0.43289 0.21546,0.85152 0.36955,1.25159c0.11255,0.13419 0.23156,0.26552 0.35718,0.39389zM282.46856,116.80207c-0.21018,-0.38502 -0.37821,-0.79376 -0.51069,-1.2199c-0.58419,-0.55193 -1.09009,-1.19234 -1.4669,-1.88693c0.00707,0.2208 0.01967,0.4398 0.0381,0.65655c0.45133,0.96831 1.1486,1.8502 1.93949,2.45029zM293.05241,115.94312c1.11402,-1.03258 1.90798,-2.28743 1.92397,-3.86993c-0.20755,1.22631 -0.96774,2.48147 -1.92397,3.86993zM280.29052,116.69074c-0.47675,-0.69788 -0.81141,-1.45869 -1.01722,-2.27111c-0.0072,0.42219 0.01056,0.84263 0.05615,1.25606c0.26117,0.39929 0.58493,0.73551 0.96107,1.01505zM280.6408,109.37622c0.0411,-0.09871 0.08435,-0.19568 0.12981,-0.29083c-0.05571,0.103 -0.1065,0.2064 -0.15253,0.3101c0.00758,-0.00644 0.01515,-0.01287 0.02273,-0.01927zM280.03781,114.46384c-0.28216,-0.63464 -0.46587,-1.3022 -0.51861,-1.95897c0.02414,1.07516 0.23451,2.08028 0.6614,2.99395c-0.06324,-0.33797 -0.11049,-0.68351 -0.14278,-1.03498z" fill="#ffffff" stroke="none" stroke-width="0.5" stroke-linecap="butt"/><path d="M338.28431,112.43265c-0.91548,0.19005 -1.89223,0.18261 -2.90838,0.02404c-1.06364,0.46053 -2.178,0.74774 -3.33981,0.7477c-0.26817,-0.00612 -0.55484,-0.01866 -0.85511,-0.03904c1.91792,1.05061 4.18273,1.68474 5.91184,0.90761c0.65292,-0.26032 0.76249,-1.01233 1.09598,-1.53894zM328.59504,111.32884c0.95449,0.40402 2.04391,0.606 3.25606,0.6158c0.28359,-0.05156 0.5649,-0.1202 0.84266,-0.20635c-2.93748,-1.11989 -5.49284,-3.33096 -6.68552,-6.30567c-0.18037,-0.45093 -0.30988,-0.87666 -0.39292,-1.27922c0.20748,2.52613 0.94283,5.38485 2.70212,6.90936c0.08794,0.08788 0.18059,0.17671 0.27761,0.26608zM325.55021,102.42478c0.16293,-1.05483 0.71848,-1.91134 1.52948,-2.63287c0.87484,-1.88458 2.55955,-3.31462 4.86437,-3.31941c1.19504,0 2.27264,0.20928 3.19978,0.61326c1.66564,0.02552 3.30724,0.33604 4.53745,0.95949c-1.36916,-2.64217 -3.46426,-3.84482 -6.1537,-4.13444c-0.26965,-0.00759 -0.53369,-0.00907 -0.79205,-0.00327c-0.79226,0.17944 -1.55186,0.38572 -2.25235,0.59891c-1.30378,0.39676 -2.2867,0.99253 -3.01778,1.75706c-0.32134,0.41892 -0.61839,0.90616 -0.89078,1.47108c-0.21952,0.45457 -0.44905,0.96394 -0.67167,1.51014c-0.21593,0.86243 -0.32016,1.81035 -0.34691,2.82878c-0.00303,0.11492 -0.005,0.2321 -0.00585,0.35128zM334.97299,93.49756c3.18679,0.32144 6.33133,3.15079 7.37792,6.09127c1.25499,3.54357 0.81702,6.05596 -1.39735,9.07597c-0.48284,0.39789 -0.98387,0.81076 -1.50249,1.21811c1.03744,-0.30793 2.04341,-0.80725 3.01375,-1.57606c0.01975,-0.0156 0.03944,-0.03121 0.05906,-0.04683c1.45644,-2.57467 1.93274,-5.50327 1.76792,-8.4921c-0.11725,-2.1336 -1.07239,-4.07219 -2.43779,-5.67603c-0.44205,-0.16125 -0.896,-0.30108 -1.35335,-0.42304c-1.67433,-0.45512 -3.62333,-0.43192 -5.52768,-0.17129zM342.79574,94.47877c1.12924,1.53705 1.88881,3.32339 1.99532,5.26171c0.14574,2.66115 -0.20508,5.28062 -1.27094,7.65667c2.09738,-1.98783 3.17183,-4.27744 3.17183,-7.4031c0.00192,-2.83064 -1.70059,-4.50044 -3.89622,-5.51529zM335.26354,110.28544c2.31766,-2.01213 2.97952,-4.42725 2.98037,-7.62545c-0.16245,-2.5021 -1.33771,-4.23051 -3.21383,-5.08097c-1.65926,-0.0142 -3.33653,0.26183 -4.58618,0.80424c-1.13347,0.48577 -2.16248,1.0195 -2.94438,1.68089c-0.45867,1.02101 -0.66388,2.17965 -0.58584,3.28821c0.08078,1.1661 0.4336,2.13845 0.97444,2.96773c-0.20377,-1.04317 -0.17725,-2.17991 0.07065,-3.36933c0.67382,-3.21968 3.13092,-4.86455 6.26347,-4.86455c0,0 0.25,0 0.25,0.25c0,0.25 -0.25,0.25 -0.25,0.25c-2.8947,0 -5.15237,1.47106 -5.77399,4.46657c-0.3263,1.56548 -0.25279,3.02578 0.25539,4.28273c1.11282,1.15035 2.61863,1.98652 4.16497,2.72111c0.81035,0.1029 1.60916,0.18835 2.39495,0.22882zM328.07849,99.04287c0.64696,-0.4155 1.38287,-0.78251 2.16844,-1.11918c0.97208,-0.41195 2.16414,-0.67774 3.40862,-0.78529c-0.53408,-0.11008 -1.10611,-0.16589 -1.71149,-0.16589c-1.68883,-0.00398 -3.00244,0.84415 -3.86557,2.07036zM328.24019,111.71708c-1.65921,-0.75081 -2.93227,-2.08903 -3.7403,-4.04525c-0.80938,-2.00896 -0.41232,-4.61897 0.33672,-6.9538c-0.10005,0.24421 -0.19531,0.48798 -0.28575,0.7306c-1.13809,3.04992 -1.72175,6.79721 1.18212,9.02673c0.77922,0.5565 1.62805,0.97466 2.5072,1.24173zM328.86744,94.35354c0.41926,-0.24395 0.86347,-0.43253 1.33199,-0.57481c0.61021,-0.21435 1.25057,-0.36436 1.92065,-0.43831c0.26661,-0.00022 0.52882,0.0065 0.78651,0.02049c2.54675,-0.54534 5.37151,-0.79168 7.72292,-0.17517c0.17607,0.04695 0.35148,0.09657 0.52583,0.14901c-0.58948,-0.59073 -1.23241,-1.12534 -1.90221,-1.59512c-3.13019,-1.58131 -6.7532,-0.44385 -9.34498,1.66641c-0.3612,0.2934 -0.70815,0.61057 -1.04071,0.9475zM341.82282,109.36334c-1.07601,0.65953 -2.1939,1.0515 -3.34631,1.25854c-0.72421,0.52687 -1.47942,1.02118 -2.2642,1.43348c2.19165,0.16922 4.13203,-0.51121 5.5884,-2.66098c0.00739,-0.01034 0.01475,-0.02069 0.0221,-0.03105zM329.02402,108.90578c-0.30211,-0.40199 -0.54947,-0.83401 -0.74308,-1.29156c-1.03787,-1.10002 -1.74392,-2.46409 -1.86607,-4.2273c-0.0549,-0.80474 0.02763,-1.62673 0.23666,-2.41006c-0.74179,1.06128 -0.91964,2.4186 -0.17904,4.27008c0.56413,1.41385 1.45433,2.64585 2.55154,3.65884zM336.13777,97.63255c1.51773,1.03461 2.45942,2.73734 2.60587,5.0113c0.00081,3.16578 -0.64446,5.62223 -2.76617,7.66527c0.14955,0.00202 0.29861,0.00208 0.44715,-0.00004c0.07471,-0.02246 0.149,-0.04607 0.22285,-0.07083c1.29894,-0.9399 2.42511,-2.16026 3.28049,-3.37763c0.69364,-0.98353 1.18243,-2.08146 1.38869,-3.18373c-0.01056,-1.48677 -0.44691,-2.98992 -1.06435,-4.42046c-0.23247,-0.27374 -0.50204,-0.53308 -0.81097,-0.77484c-0.90469,-0.45934 -2.07035,-0.7389 -3.30358,-0.84904zM327.04846,110.40028c-1.61943,-2.2614 -2.05869,-5.80127 -1.99222,-8.3399c0.00366,-0.13934 0.00879,-0.27747 0.01546,-0.41435c-0.56912,2.0281 -0.80966,4.18992 -0.10967,5.83491c0.51064,1.23625 1.21162,2.20493 2.08644,2.91935zM337.8074,94.98478c0.9473,0.71648 1.74941,1.69107 2.38864,2.96954c0.17329,0.34657 0.33882,0.69872 0.49335,1.0552c1.11231,1.35975 1.41852,3.02944 1.12378,4.69421c0.00631,1.37276 -0.32819,2.73255 -1.16864,4.01655c-0.73,1.11524 -1.63435,1.92295 -2.6513,2.47459c0.08955,-0.01241 0.17888,-0.02592 0.26801,-0.04058c0.81588,-0.60034 1.59232,-1.23853 2.32906,-1.83306c2.081,-2.88814 2.48355,-5.1934 1.2893,-8.56548c-0.64931,-1.84334 -2.21231,-3.67703 -4.0722,-4.77096zM334.46614,112.27792c-0.16916,-0.03974 -0.33919,-0.08314 -0.51001,-0.12999c-0.65326,0.19109 -1.32644,0.2971 -2.01207,0.2971c-0.02052,0 -0.041,-0.00005 -0.06146,-0.00016c-0.56648,0.09844 -1.14107,0.13338 -1.71487,0.10755c0.0087,0.00578 0.01741,0.01155 0.02614,0.01732c0.68912,0.08307 1.32617,0.12275 1.84797,0.1347c0.83553,-0.00003 1.64369,-0.15828 2.4243,-0.42651zM328.03081,112.17403c-0.90977,-0.28368 -1.78778,-0.71992 -2.59541,-1.29689c-3.09584,-2.37614 -2.57255,-6.33506 -1.35298,-9.60333c0.47177,-1.26305 1.06878,-2.55033 1.78842,-3.77176c-0.51281,0.60324 -0.97725,1.24967 -1.3927,1.91517c-2.0398,3.26746 -2.04407,5.88121 -0.92436,9.48451c0.49093,1.77696 2.44046,2.75444 4.47704,3.27231zM340.71285,106.56926c-0.1177,0.19619 -0.2431,0.38933 -0.37577,0.57879c-0.49235,0.70071 -1.06917,1.39833 -1.71386,2.04626c0.59595,-0.4575 1.13596,-1.03443 1.60296,-1.74788c0.18893,-0.28863 0.35042,-0.58129 0.48666,-0.87717zM333.73302,110.66337c-0.33319,-0.03731 -0.66819,-0.08015 -1.00487,-0.12688c-1.15691,-0.53225 -2.28534,-1.13346 -3.26151,-1.86995c0.55189,0.71474 1.29653,1.32601 2.24375,1.80611c0.67878,0.11625 1.35675,0.18359 2.02263,0.19072zM327.25655,95.44746c0.69938,-0.90373 1.47848,-1.72949 2.3359,-2.42916c2.76019,-2.24737 6.59888,-3.39458 9.91763,-1.7076c0.95737,0.66793 1.85975,1.46237 2.63906,2.35993c2.76727,1.04749 5.04067,2.93211 5.04283,6.32343c0,3.70017 -1.46222,6.32545 -4.28033,8.59599c-0.2134,0.37089 -0.44658,0.73447 -0.70047,1.08989c-0.99792,1.47335 -2.22198,2.30998 -3.59468,2.67428c0.0179,0.01125 0.03598,0.02564 0.05406,0.04372c0.17678,0.17678 0,0.35355 0,0.35355l-0.06168,0.05376c-0.42088,0.63605 -0.53911,1.35987 -1.3136,1.7249c-2.18501,0.95479 -5.08068,-0.05402 -7.28259,-1.47928c-2.76415,-0.35559 -6.06845,-1.40036 -6.93638,-4.00077c-1.1612,-3.73681 -1.13621,-6.51149 0.9777,-9.89766c0.86607,-1.3873 1.93598,-2.68487 3.20255,-3.70498zM334.69518,111.35519c0.2115,-0.08962 0.42027,-0.18818 0.62602,-0.29479c-0.08618,0.01257 -0.17271,0.02395 -0.25955,0.03417c-0.07252,0.05571 -0.14635,0.11111 -0.22151,0.16622c-0.0481,0.03208 -0.09642,0.06355 -0.14496,0.0944zM332.38336,111.07321c0.34151,0.14707 0.68924,0.27851 1.04135,0.39376c0.209,-0.09086 0.41521,-0.19239 0.61804,-0.30478c-0.54674,0.00957 -1.10183,-0.02173 -1.65939,-0.08898zM337.39563,110.76355c-0.22834,0.01954 -0.4579,0.03304 -0.68863,0.04112c-0.60045,0.41294 -1.23433,0.76754 -1.89328,1.04031c0.16703,0.03624 0.33297,0.06862 0.49774,0.09692c0.71947,-0.32376 1.41424,-0.73017 2.08417,-1.17836z" fill="#ffffff" stroke="none" stroke-width="0.5" stroke-linecap="butt"/><path d="M302.21522,166.44389c0.07209,-0.02403 0.12957,-0.01884 0.17466,0.00002c-0.18652,-0.54564 -0.41901,-1.29933 -0.47616,-1.49026c-0.00182,-0.00607 -0.00367,-0.01225 -0.00554,-0.01855c0.01301,0.34074 0.00762,0.66727 -0.02482,0.97107c0.0253,0.10283 0.05058,0.20566 0.07585,0.30846l0.08681,0.67909c-0.17213,-0.13002 -0.32011,-0.2906 -0.44719,-0.47586l-0.10857,-0.02976c-0.02248,-0.08864 -0.04475,-0.17733 -0.06684,-0.26606c-0.30297,-0.59055 -0.4512,-1.35569 -0.51826,-2.16236c-0.32868,-1.38096 -0.66893,-2.74316 -1.12622,-4.03405c0,0 -0.07906,-0.23717 0.15811,-0.31623c0.23717,-0.07906 0.31623,0.15811 0.31623,0.15811c0.21204,0.69981 0.41481,1.41562 0.61123,2.14161c0.01438,-0.64276 0.04164,-1.23775 0.04092,-1.71109l0.00004,-0.00013h-0.00004l-0.00023,-0.49998c0,-0.00004 0,-0.00009 0,-0.00013c0,-0.13807 0.11193,-0.25 0.25,-0.25c0.12141,0 0.22261,0.08655 0.24526,0.20131l0.09386,0.42878l-0.04984,0.01091c0.72483,1.74406 0.62129,3.86524 1.18345,5.6638c0.05107,0.16338 0.69966,1.59142 0.4193,1.76279c-0.66326,0.40543 -0.7581,-0.1416 -0.89522,-0.4705l-0.09492,-0.28477c0,0 -0.07906,-0.23717 0.15811,-0.31623z" fill="#ffffff" stroke="none" stroke-width="0.5" stroke-linecap="butt"/><path d="M309.00805,169.14786c-0.18864,0.16406 -0.3527,-0.02458 -0.3527,-0.02458l-0.14818,-0.17623c-0.35247,-0.5902 -0.56981,-1.16229 -0.66909,-1.84476c-0.96361,-4.95475 -0.33379,-0.80886 -0.30416,1.44784c0.08889,0.21046 0.17768,0.41334 0.26447,0.60611l-0.00429,0.03803l0.01184,-0.00154l0.05143,0.39464c0.00173,0.01186 0.00262,0.02399 0.00262,0.03632c0,0.13807 -0.11193,0.25 -0.25,0.25c-0.06904,0 -0.13154,-0.02798 -0.17678,-0.07322l-0.28477,-0.28477l0.09401,-0.09401c-0.28235,-0.35131 -0.47588,-0.81356 -0.59687,-1.3153c-0.24191,-0.41174 -0.41938,-0.91196 -0.55624,-1.4485c-0.28153,-0.62095 -0.56981,-1.23831 -0.96554,-1.83154c0,0 -0.13868,-0.20801 0.06934,-0.34669c0.20801,-0.13868 0.34669,0.06934 0.34669,0.06934c0.07903,0.11862 0.15383,0.23822 0.22518,0.35863c-0.00535,-0.03823 -0.01063,-0.07637 -0.01585,-0.1144c-0.14013,-0.60588 -0.22721,-1.17088 -0.22295,-1.62594c-0.01644,-0.10065 -0.03346,-0.19735 -0.05132,-0.28951l0.02627,-0.02074l-0.02774,0.00095l-0.00352,-0.10327l-0.15625,-0.10417l0.1877,-0.28154c0.04451,-0.06893 0.12201,-0.11455 0.21016,-0.11455c0.13557,0 0.24593,0.10791 0.24989,0.24252l0.01122,0.32898c0.0107,0.05377 0.02484,0.11647 0.04197,0.18707c0.19987,0.27605 0.25945,0.69716 0.2912,1.06293c0.10416,0.36438 0.22103,0.7699 0.33604,1.1844c0.31997,-1.24381 1.06515,-1.45592 1.68929,1.7589c0.0868,0.61993 0.28261,1.13635 0.60479,1.67058l0.09671,0.10536c0,0 0.16406,0.18864 -0.02458,0.3527z" fill="#ffffff" stroke="none" stroke-width="0.5" stroke-linecap="butt"/><path d="M316.10191,169.35707c-0.20801,0.13868 -0.34669,-0.06934 -0.34669,-0.06934l-0.2107,-0.32284c-0.0944,-0.37352 -0.24021,-0.85202 -0.3494,-1.35131c-0.05119,0.62879 -0.062,1.26034 -0.03337,1.89921l0.21887,0.21887v0c0.04524,0.04524 0.07322,0.10774 0.07322,0.17678c0,0.13807 -0.11193,0.25 -0.25,0.25c-0.06904,0 -0.13154,-0.02798 -0.17678,-0.07322l-0.22518,-0.22518l0.207,0.34501c0.02392,0.03834 0.03774,0.08363 0.03774,0.13215c0,0.13807 -0.11193,0.25 -0.25,0.25c-0.08157,0 -0.15402,-0.03907 -0.19965,-0.09951l-0.25562,-0.33171l0.0376,-0.02898l-0.05395,-0.08992l0.03428,-0.02057l-0.05421,-0.02087c-0.00583,-0.03161 -0.01218,-0.0674 -0.01905,-0.107c-0.62507,-0.90759 -0.84246,-2.27623 -0.9956,-3.45817c-0.03948,-0.19838 -0.06876,-0.39301 -0.08593,-0.58073c-0.10583,-0.14572 -0.21897,-0.2373 -0.33944,-0.25508c0,0 -0.24254,-0.06063 -0.1819,-0.30317c0.06063,-0.24254 0.30317,-0.1819 0.30317,-0.1819c0.02332,0.00719 0.04634,0.01543 0.06906,0.02468v-0.06692c0,-0.13807 0.11193,-0.25 0.25,-0.25c0.11246,0 0.20758,0.07426 0.23899,0.17641l0.0931,0.2793l-0.0085,0.00283l0.01449,0.01815c0.02408,0.15973 0.06709,0.34938 0.12248,0.56016c0.12826,0.22652 0.23074,0.47969 0.3198,0.74697c0.12436,0.35238 0.228,0.73654 0.31513,1.11911c0.06056,0.22738 0.12314,0.45305 0.19417,0.67048c0.00934,-1.03548 0.30576,-2.40486 0.4181,-2.90531l0.03671,-0.34664c0.01182,-0.12708 0.11875,-0.22655 0.24891,-0.22655c0.12548,0 0.22937,0.09245 0.24727,0.21295l0.08152,0.48914l-0.08518,0.0142c0.25331,0.99662 0.22263,2.12921 0.45987,3.13511l0.169,0.2467c0,0 0.13868,0.20801 -0.06934,0.34669z" fill="#ffffff" stroke="none" stroke-width="0.5" stroke-linecap="butt"/><path d="M322.08527,167.60813c0.03497,-0.02284 0.08136,-0.03799 0.14291,-0.03799c0.25,0 0.25,0.25 0.25,0.25v0.75939c0,0.13807 -0.11193,0.25 -0.25,0.25c-0.1,0 -0.18628,-0.05871 -0.22626,-0.14354l-0.19158,-0.38521l0.00272,-0.00135l-0.00704,-0.0078c-0.23832,-0.59609 -0.77274,-1.86892 -0.89805,-2.80647c-0.22082,1.11833 -0.06783,2.38864 -0.20021,3.5436h0.06181v0.5c0,0.13807 -0.11193,0.25 -0.25,0.25c-0.10395,0 -0.19309,-0.06345 -0.23079,-0.15373l-0.20025,-0.45082l0.00911,-0.00405l-0.02009,-0.02557c-0.08084,-0.47891 -0.46541,-3.69596 -0.98183,-3.54246c0,0 -0.25,0 -0.25,-0.25c0,-0.25 0.25,-0.25 0.25,-0.25c0.61474,0.06218 0.93944,0.79137 1.13076,1.62816c0.09145,-0.89476 0.27516,-1.76389 0.4369,-2.17495l0.09671,-0.24036c0.03558,-0.0947 0.12697,-0.16208 0.2341,-0.16208c0.12733,0 0.23242,0.09519 0.24801,0.21828l0.07019,0.49134l-0.02575,0.00368c0.29933,0.90925 0.48813,1.8338 0.79865,2.74194z" fill="#ffffff" stroke="none" stroke-width="0.5" stroke-linecap="butt"/><path d="M329.2512,165.38211c0.04791,-0.05858 0.1489,-0.14077 0.30297,-0.06374c0.22361,0.1118 0.1118,0.33541 0.1118,0.33541l-0.06853,0.07804c-0.0003,0.30451 -0.02307,0.53199 -0.07317,0.76112l0.03193,0.00355l-0.05488,0.49394c-0.01236,0.12652 -0.11904,0.22539 -0.2488,0.22539c-0.09244,0 -0.17316,-0.05017 -0.21642,-0.12477l-0.18924,-0.31371l0.01899,-0.01146l-0.04392,-0.0443c-0.01671,-0.25407 -0.12588,-0.94551 -0.22778,-1.70938c-0.12482,0.96413 -0.31997,1.92733 -0.68855,2.70631l0.06981,0.03103l-0.20075,0.45169c-0.03772,0.09026 -0.12684,0.15368 -0.23077,0.15368c-0.11246,0 -0.20758,-0.07426 -0.23899,-0.17641l-0.0931,-0.2793l0.00225,-0.00075l-0.00455,-0.00653c-0.35728,-1.33962 -0.59549,-2.89843 -1.21814,-4.1366c0,0 -0.1118,-0.22361 0.1118,-0.33541c0.22361,-0.1118 0.33541,0.1118 0.33541,0.1118c0.53723,1.08006 0.79944,2.3772 1.09059,3.58464c0.05361,-1.47587 0.6615,-3.18643 0.80888,-4.62144v-0.46509c0,-0.13807 0.11193,-0.25 0.25,-0.25c0.13807,0 0.25,0.11193 0.25,0.25v0.41858c0.26472,0.88815 0.36242,1.95286 0.41314,2.93371z" fill="#ffffff" stroke="none" stroke-width="0.5" stroke-linecap="butt"/><path d="M334.52543,160.32677c0.02633,-0.07111 0.09487,-0.18055 0.26472,-0.15859c0.24794,0.03206 0.21587,0.28 0.21587,0.28l-0.0308,0.23813c-0.06748,0.51748 -0.08508,0.96855 -0.19253,1.43842h0.03554v0.28477c0,0.13807 -0.11193,0.25 -0.25,0.25c-0.10315,0 -0.1917,-0.06246 -0.2299,-0.15163l-0.19293,-0.42407l0.01538,-0.007l-0.03111,-0.03898c-0.04281,-0.93492 -0.34509,-1.94942 -0.44284,-2.89887c-0.22539,1.50757 -0.2357,3.40984 -0.87088,4.76905l0.09071,0.03888l-0.19469,0.45428c-0.03695,0.09192 -0.12692,0.15682 -0.23206,0.15682c-0.1373,0 -0.24874,-0.11067 -0.24999,-0.24767l-0.00378,-0.35476c-0.63339,-1.59 -0.28174,-3.50456 -0.83772,-5.16898c0,0 -0.07906,-0.23717 0.15811,-0.31623c0.23717,-0.07906 0.31623,0.15811 0.31623,0.15811c0.43713,1.31398 0.32513,2.7805 0.55598,4.12536c0.09539,-1.39497 0.65109,-3.14445 0.86017,-4.19025l0.09402,-0.47008c0.02099,-0.11685 0.12317,-0.20551 0.24605,-0.20551c0.09266,0 0.17355,0.05041 0.21673,0.12531l0.25489,0.42482l-0.08731,0.05239c0.30136,0.5503 0.44686,1.18578 0.52212,1.8363z" fill="#ffffff" stroke="none" stroke-width="0.5" stroke-linecap="butt"/><path d="M340.08238,156.46419c0.2414,0.00566 0.2414,0.2499 0.2414,0.2499l-0.00122,0.3094c-0.03035,0.15174 -0.06954,0.30193 -0.11596,0.44998h0.02226v0.28477c0,0.13807 -0.11193,0.25 -0.25,0.25c-0.12093,0 -0.22181,-0.08587 -0.24499,-0.19995l-0.05135,-0.2282c-0.03471,0.45782 -0.1014,0.9106 -0.24722,1.36063l0.06699,0.01914l-0.13584,0.47545c-0.02805,0.10739 -0.12572,0.18663 -0.2419,0.18663c-0.0998,0 -0.18594,-0.05848 -0.22603,-0.14304l-0.18223,-0.36446c-0.3558,-0.5383 -1.01477,-3.08117 -1.77498,-3.00467c0,0 -0.25,0 -0.25,-0.25c0,-0.25 0.25,-0.25 0.25,-0.25c1.20881,0.06047 1.55415,2.01666 2.07829,3.03078c-0.08873,-1.04378 0.1874,-2.67956 0.30207,-3.54044l0.02798,-0.39504c0.00806,-0.13079 0.11669,-0.23438 0.24952,-0.23438c0.13807,0 0.25,0.11193 0.25,0.25v0.37969h-0.02627l-0.00052,0.00729c0.12591,0.44196 0.21128,0.89833 0.26,1.35651z" fill="#ffffff" stroke="none" stroke-width="0.5" stroke-linecap="butt"/><path d="M343.68088,151.26869c-0.25,0 -0.25,-0.25 -0.25,-0.25v-0.47462c0,-0.34859 -0.09556,-0.82076 -0.15206,-1.27389c-0.06519,0.46119 -0.11036,0.9235 -0.20063,1.3809l0.05859,0.00527l-0.04458,0.49547c-0.01013,0.12877 -0.11784,0.23011 -0.24922,0.23011c-0.10294,0 -0.19134,-0.06221 -0.22967,-0.15108l-0.20575,-0.4495l0.0147,-0.00673l-0.03075,-0.0401c-0.02638,-0.6609 -0.15599,-1.19553 -0.45301,-1.78728c0,0 -0.1118,-0.22361 0.1118,-0.33541c0.22361,-0.1118 0.33541,0.1118 0.33541,0.1118c0.1233,0.24748 0.22389,0.48886 0.30136,0.73369c0.07927,-0.51291 0.22717,-1.02849 0.32969,-1.3858l0.01909,-0.01931l-0.00813,-0.0043l0.14497,-0.27402c0.04113,-0.08167 0.12573,-0.13769 0.22342,-0.13769c0.12977,0 0.23644,0.09887 0.2488,0.22539l0.05488,0.49394l-0.02979,0.00331c0.19097,0.70999 0.26087,1.36823 0.26087,2.18521v0.47462c0,0 0,0.25 -0.25,0.25z" fill="#ffffff" stroke="none" stroke-width="0.5" stroke-linecap="butt"/><path d="M299.38642,137.44388c-0.12965,0.84282 -0.22519,1.73948 -0.44956,2.51473c0.00022,0.04798 0.00033,0.09595 0.00033,0.14389v0.28477c0,0.13807 -0.11193,0.25 -0.25,0.25c-0.13807,0 -0.25,-0.11193 -0.25,-0.25v-0.28477c0,-0.16781 -0.00117,-0.33576 -0.00325,-0.5038c-0.0007,-0.02396 -0.00102,-0.04853 -0.00097,-0.07368c-0.01767,-1.26711 -0.08499,-2.53872 -0.0907,-3.789c0,0 0,-0.25 0.25,-0.25c0.25,0 0.25,0.25 0.25,0.25c-0.00252,0.46951 0.00676,0.94328 0.02038,1.41916c0.10869,-0.41369 0.20574,-0.74995 0.24481,-0.90337l0.09307,-0.46535c0.02099,-0.11685 0.12317,-0.20551 0.24605,-0.20551c0.08815,0 0.16565,0.04563 0.21016,0.11455l0.1877,0.28154l-0.09965,0.06643c0.32862,0.62668 0.23656,1.37942 0.23656,2.16056v0.5c0,0.13807 -0.11193,0.25 -0.25,0.25c-0.12368,0 -0.22638,-0.08981 -0.24645,-0.20778l-0.09242,-0.48682l0.07187,-0.01364c-0.04759,-0.16928 -0.07696,-0.34197 -0.07792,-0.51595z" fill="#ffffff" stroke="none" stroke-width="0.5" stroke-linecap="butt"/><path d="M302.93571,135.67174c-0.0476,-0.02551 -0.08598,-0.06599 -0.10885,-0.11515l-0.21767,-0.443l0.00962,-0.00473l-0.02255,-0.02688c-0.14682,-0.77368 -0.29315,-2.33316 -1.01021,-2.74504c0,0 -0.20801,-0.13868 -0.06934,-0.34669c0.13868,-0.20801 0.34669,-0.06934 0.34669,-0.06934c0.28596,0.20714 0.49606,0.5036 0.65582,0.84373l-0.00034,-0.25564c0,-0.00013 0,-0.00026 0,-0.00038c0,-0.13807 0.11193,-0.25 0.25,-0.25c0.12548,0 0.22937,0.09245 0.24727,0.21295l0.08152,0.48914l-0.0503,0.00838c0.26156,0.75593 0.37517,1.56027 0.4201,2.36823c0.02602,0.05859 0.02602,0.11392 0.02602,0.11392l-0.00614,0.22969c0.06519,0.14867 0.06545,0.31378 0.02783,0.47955l0.14613,0.05845l-0.18353,0.45883c-0.03545,0.09495 -0.12697,0.16256 -0.23428,0.16256c-0.13804,0 -0.24996,-0.11188 -0.25,-0.24992l-0.0001,-0.3087c-0.00071,-0.17088 -0.02375,-0.37946 -0.05768,-0.60997z" fill="#ffffff" stroke="none" stroke-width="0.5" stroke-linecap="butt"/><path d="M307.81671,132.16269c-0.22361,0.1118 -0.33541,-0.1118 -0.33541,-0.1118l-0.12109,-0.291c-0.00605,-0.14209 -0.01209,-0.28418 -0.01814,-0.42627c-0.31962,-4.42073 -0.27013,-1.86751 -0.41442,0.45312c0.01138,0.57471 -0.0169,1.12683 -0.0169,1.53205v0.32893c0,0.13807 -0.11193,0.25 -0.25,0.25c-0.13807,0 -0.25,-0.11193 -0.25,-0.25v-0.47462h0.00171c0.00003,-0.0014 0.00006,-0.0028 0.00008,-0.0042c-0.59265,-0.71491 -0.57458,-2.1727 -0.30397,-3.27248c-0.11162,-0.20916 -0.26032,-0.3465 -0.45769,-0.37264c0,0 -0.24254,-0.06063 -0.1819,-0.30317c0.06063,-0.24254 0.30317,-0.1819 0.30317,-0.1819c0.19963,0.06289 0.3655,0.16962 0.50316,0.30999c0.47204,-1.26666 1.28878,-1.5209 1.56588,1.95527c0.00619,0.14488 0.01238,0.28976 0.01856,0.43464l0.06876,0.08869c0,0 0.1118,0.22361 -0.1118,0.33541z" fill="#ffffff" stroke="none" stroke-width="0.5" stroke-linecap="butt"/><path d="M312.729,131.79642c0.16191,0.05045 0.16191,0.2376 0.16191,0.2376v0.28477c0,0.13807 -0.11193,0.25 -0.25,0.25c-0.11222,0 -0.20716,-0.07393 -0.23879,-0.17575l-0.11807,-0.35091c-0.06649,-0.19512 -0.15717,-0.62388 -0.23849,-1.14025c-0.01212,0.08464 -0.02502,0.16882 -0.03873,0.25244h0.02977v0.5c0,0.13807 -0.11193,0.25 -0.25,0.25c-0.08815,0 -0.16565,-0.04563 -0.21016,-0.11455l-0.1877,-0.28154l0.0243,-0.0162l-0.05556,-0.05003c-0.02375,-1.00115 0.30057,-2.63531 -0.34042,-3.43461c0,0 -0.15,-0.2 0.05,-0.35c0.2,-0.15 0.35,0.05 0.35,0.05c0.11772,0.16478 0.20828,0.34713 0.27738,0.54192c0.01951,-0.17664 0.03201,-0.34089 0.03201,-0.48684v-0.28477c0,-0.13807 0.11193,-0.25 0.25,-0.25c0.08815,0 0.16565,0.04563 0.21016,0.11455l0.1877,0.28154l-0.11181,0.07454c0.59734,1.11316 0.08347,2.87994 0.4665,4.09809z" fill="#ffffff" stroke="none" stroke-width="0.5" stroke-linecap="butt"/><path d="M317.50347,131.38691c0.00796,0.03525 0.01654,0.06656 0.02586,0.09342zM317.48801,131.30959c0.038,0.00193 0.24401,0.02286 0.24401,0.2498c0,0.25 -0.25,0.25 -0.25,0.25l-0.42702,-0.17094c-0.06383,-0.19773 -0.26788,-1.5249 -0.33326,-2.15558c-0.05747,0.36085 -0.19815,0.89732 -0.21614,0.9782c-0.13896,0.62474 -0.16423,1.25662 -0.31685,1.86252l0.00602,0.09012h0.01847v0.28477c0,0.13807 -0.11193,0.25 -0.25,0.25c-0.13313,0 -0.24195,-0.10406 -0.24957,-0.23527l-0.03001,-0.4491c-0.49498,-1.50628 0.06632,-3.27579 -0.96457,-4.63642c0,0 -0.15,-0.2 0.05,-0.35c0.2,-0.15 0.35,0.05 0.35,0.05c0.73914,0.9943 0.7163,2.12758 0.79042,3.25299c0.16791,-0.96956 0.4882,-1.94941 0.82553,-1.92883c0.65821,0.04015 0.62317,1.93047 0.75298,2.65774z" fill="#ffffff" stroke="none" stroke-width="0.5" stroke-linecap="butt"/><path d="M322.11337,130.38222c0.04761,-0.02591 0.11112,-0.03682 0.19388,-0.00924c0.23717,0.07906 0.15811,0.31623 0.15811,0.31623l-0.08925,0.26624l-0.09172,0.45858c-0.02099,0.11685 -0.12317,0.20551 -0.24605,0.20551c-0.1373,0 -0.24874,-0.11067 -0.24999,-0.24767l-0.00378,-0.35489c-0.13748,-0.35081 -0.25935,-0.97391 -0.33387,-1.63217c-0.06064,0.50431 -0.13795,1.00779 -0.23916,1.48473h0.03264v0.5c0,0.13807 -0.11193,0.25 -0.25,0.25c-0.11898,0 -0.21854,-0.08311 -0.2438,-0.19444l-0.09281,-0.37126c-0.30955,-1.06946 -0.26422,-2.91342 -1.07416,-3.68415c0,0 -0.17678,-0.17678 0,-0.35355c0.17678,-0.17678 0.35355,0 0.35355,0c0.4989,0.51776 0.70527,1.28273 0.85036,2.07107c0.12607,-0.64068 0.30858,-1.27873 0.3382,-1.73302l0.00519,-0.01195l-0.00343,-0.00057l0.08152,-0.48914c0.0179,-0.1205 0.12179,-0.21295 0.24727,-0.21295c0.11188,0 0.20659,0.07349 0.2385,0.17483l0.15943,0.46779l-0.0896,0.03054c0.34814,1.01052 0.1276,2.04182 0.34896,3.0695z" fill="#ffffff" stroke="none" stroke-width="0.5" stroke-linecap="butt"/><path d="M326.68958,132.18908c-0.25,0 -0.25,-0.25 -0.25,-0.25v-0.18985c0.01215,-2.26418 -0.21993,-1.34113 -0.54404,-0.1952c-0.00008,0.02721 -0.00012,0.05438 -0.00012,0.0815v0.5c0,0.13807 -0.11193,0.25 -0.25,0.25c-0.13807,0 -0.25,-0.11193 -0.25,-0.25v-0.5c0,-1.37201 0.15284,-2.95848 -0.70939,-4.10278c0,0 -0.15,-0.2 0.05,-0.35c0.2,-0.15 0.35,0.05 0.35,0.05c0.55417,0.74203 0.73587,1.62274 0.79188,2.52907c0.09116,-0.08566 0.19549,-0.14269 0.31241,-0.15984c0.73359,-0.10765 0.74736,1.73196 0.74925,2.14725v0.18985c0,0 0,0.25 -0.25,0.25z" fill="#ffffff" stroke="none" stroke-width="0.5" stroke-linecap="butt"/><path d="M331.35772,131.97284c-0.22361,0.1118 -0.33541,-0.1118 -0.33541,-0.1118l-0.12132,-0.30165c0,-0.20288 -0.04305,-0.55756 -0.05614,-0.9084c-0.09174,0.24206 -0.18567,0.47185 -0.30973,0.69539l0.08009,0.04004l-0.18742,0.37485c-0.04009,0.08456 -0.12623,0.14304 -0.22603,0.14304c-0.13807,0 -0.25,-0.11193 -0.25,-0.25v-0.26176c-0.22823,-0.92256 0.01303,-1.73132 -0.52755,-2.54219c0,0 -0.13868,-0.20801 0.06934,-0.34669c0.20801,-0.13868 0.34669,0.06934 0.34669,0.06934c0.42524,0.63786 0.4285,1.24828 0.48165,1.90671c0.10037,-0.24609 0.23347,-0.48652 0.32168,-0.70233l0.00386,-0.00493l-0.00134,-0.00063l0.20912,-0.44799c0.03873,-0.08794 0.12665,-0.14934 0.22891,-0.14934c0.12274,0 0.22482,0.08846 0.24598,0.2051l0.06596,0.32677l-0.07752,0.01565c0.14645,0.58835 0.08247,1.18483 0.08247,1.83736l0.06853,0.07804c0,0 0.1118,0.22361 -0.1118,0.33541z" fill="#ffffff" stroke="none" stroke-width="0.5" stroke-linecap="butt"/><path d="M335.42254,131.14493c-0.25,0 -0.25,-0.25 -0.25,-0.25v-0.09492c0,-0.08455 -0.00662,-0.17566 -0.0137,-0.26894c-0.11347,0.31006 -0.20243,0.64033 -0.31386,0.96182l0.08705,0.02176l-0.12,0.48c-0.02526,0.11133 -0.12483,0.19444 -0.2438,0.19444c-0.13807,0 -0.25,-0.11193 -0.25,-0.25v-0.28477c0,-0.56752 0.29035,-2.62946 -0.11662,-2.9557c0,0 -0.17678,-0.17678 0,-0.35355c0.17678,-0.17678 0.35355,0 0.35355,0c0.28814,0.31991 0.35785,0.90483 0.35364,1.52251c0.06318,-0.12045 0.12838,-0.22748 0.19111,-0.31408l0.08364,-0.25093c0.03142,-0.10216 0.12653,-0.17641 0.23899,-0.17641c0.13807,0 0.25,0.11193 0.25,0.25v0.37969h-0.05418c0.05234,0.33267 0.05418,0.6491 0.05418,1.04416v0.09492c0,0 0,0.25 -0.25,0.25z" fill="#ffffff" stroke="none" stroke-width="0.5" stroke-linecap="butt"/></g></g></svg>