<svg version="1.1" xmlns="http://www.w3.org/2000/svg" xmlns:xlink="http://www.w3.org/1999/xlink" width="34.17311" height="34.17311" viewBox="0,0,34.17311,34.17311"><g transform="translate(-302.91346,-162.9135)"><g data-paper-data="{&quot;isPaintingLayer&quot;:true}" stroke="none" stroke-miterlimit="10" stroke-dasharray="" stroke-dashoffset="0" style="mix-blend-mode: normal"><path d="M309.98312,162.9135h20.03379c3.9166,0 7.06966,3.15307 7.06966,7.06966v20.03379c0,3.91659 -3.15306,7.06966 -7.06966,7.06966h-20.03379c-3.91659,0 -7.06966,-3.15307 -7.06966,-7.06966v-20.03379c0,-3.91659 3.15307,-7.06966 7.06966,-7.06966z" fill="#babebf" fill-rule="evenodd" stroke-width="4.43922" stroke-linecap="round" stroke-linejoin="round"/><path d="M310.88484,168.02189c0.79548,0 0.79548,0.79548 0.79548,0.79548l-0.04021,0.50787c0.90807,2.74713 1.32594,5.58535 2.05287,8.34951c3.38569,0.15103 6.76639,0.43003 10.17131,0.29124c0.27761,-0.01131 0.84248,-0.09514 1.49406,-0.17937c0.20756,-3.38413 0.68234,-6.57328 1.61813,-9.85067l0.07954,-0.41097c0,0 0.15601,-0.78003 0.93603,-0.62402c0.78003,0.15601 0.62402,0.93603 0.62402,0.93603l-0.10986,0.53603c-0.88117,3.08203 -1.3349,6.07703 -1.54327,9.24896c0.08405,-0.00507 0.16696,-0.00924 0.24831,-0.01235c0.04153,-0.05442 0.07344,-0.08511 0.07344,-0.08511c1.40347,-1.34949 2.5983,-3.02274 4.0252,-4.30708c0.57675,-0.51913 1.07036,-1.4696 1.84474,-1.41992c1.35488,0.08692 1.11402,4.13191 1.15859,4.88338c0.26368,4.44558 -0.36305,9.73559 -1.63298,14.01395c-1.35859,2.9069 -3.40148,-0.31612 -5.08191,-1.78111l-0.09563,-0.08337c0,0 -0.00117,-0.00102 -0.00335,-0.00301c-0.95185,0.06846 -1.96448,-0.06192 -2.68211,-0.08566c-4.78353,-0.15822 -9.51826,-0.56776 -14.31119,-0.56776h-0.3788c0,0 -0.20681,0 -0.40953,-0.10545c-0.93927,1.00002 -2.17789,1.89501 -2.31782,2.89171c0,0 -0.17257,0.77654 -0.9491,0.60397c-0.77653,-0.17257 -0.60397,-0.9491 -0.60397,-0.9491c0.00539,-0.02023 0.01097,-0.04032 0.01673,-0.06028l-0.02284,-0.00415l0.18344,-1.0037l0.09099,-1.10291l0.09238,-0.95843l-0.00236,-1.55275l-0.00147,-1.58883l-0.00991,-1.58881l-0.0496,-7.9546l0.54042,-2.35264l1.84504,1.63079c0.70942,1.3135 1.12506,2.26411 2.29624,3.21866c0,0 0.13495,0.11245 0.22517,0.29509c0.3301,0.00464 0.66007,0.01183 0.98996,0.02108c-0.64078,-2.5886 -1.06325,-5.2244 -1.91144,-7.78889l-0.04021,-1.00732c0,0 0,-0.79548 0.79548,-0.79548zM313.4809,179.80683c-0.76193,0.22858 -0.99051,-0.53335 -0.99051,-0.53335c-0.00558,-0.01872 -0.01115,-0.03745 -0.01669,-0.05618c-0.51675,-0.01695 -1.0337,-0.02945 -1.55093,-0.03558c0.00568,2.24492 0.45945,5.25074 -0.229,7.40137c4.22112,0.0052 8.40131,0.18506 12.61486,0.46469c0.66329,0.04402 4.85295,0.66346 5.16098,-0.1749c0.29026,-0.79 -0.10359,-1.68112 -0.10418,-2.52275c-0.0606,-1.03651 -0.00753,-4.46225 -0.62005,-5.23124c-0.14022,-0.17603 -0.40088,0.22739 -0.62381,0.25826c-1.05584,0.14621 -2.12773,0.13544 -3.19278,0.17848c-3.31619,0.13401 -6.60963,-0.1231 -9.90671,-0.27606c-0.05011,0.20459 -0.19108,0.42223 -0.54118,0.52726zM331.13598,190.31223c1.10185,-3.71768 1.62282,-8.15764 1.68133,-12.03635c0.01555,-1.03105 -0.12819,-2.05834 -0.18747,-3.08781c-0.01677,-0.29135 0.03715,-0.85743 0.0935,-1.30621c-0.48426,1.56205 -2.47156,3.14146 -3.7693,4.27566c0.88981,1.36726 0.92252,4.80773 1.00163,6.14511c0.0006,0.50704 0.02802,3.12492 -0.10162,3.3541c-0.15638,0.27644 -0.36378,0.49152 -0.60745,0.65789c0.94103,0.98177 2.42388,2.62867 1.88938,1.9976zM309.18915,186.06798c0.63708,-1.96246 0.14262,-4.8754 0.14262,-6.92838l0.09624,-0.81717c0.0024,-0.04556 0.00754,-0.08829 0.01508,-0.12838c-0.75101,-0.70834 -1.22628,-1.40863 -1.70073,-2.24304l0.04236,6.79427l0.00993,1.59303l0.00148,1.59306l0.00059,1.62915l-0.04984,0.52716c0.59974,-0.57466 1.16994,-1.18079 1.44228,-2.0197z" fill="#000000" fill-rule="nonzero" stroke-width="0.5" stroke-linecap="butt" stroke-linejoin="miter"/><path d="M313.97858,179.24924c3.29708,0.15295 6.6745,0.40612 9.99068,0.27211c1.06505,-0.04304 2.14371,-0.02207 3.19956,-0.16828c0.22292,-0.03087 0.48373,-0.43402 0.62395,-0.25798c0.61252,0.76899 0.56463,4.2255 0.62523,5.26201c0.00058,0.84163 0.39082,1.74618 0.10056,2.53618c-0.30803,0.83836 -4.51006,0.23691 -5.17335,0.1929c-4.21354,-0.27963 -8.4799,-0.47908 -12.70102,-0.48428c0.68845,-2.15063 0.23609,-5.19742 0.23041,-7.44235c0.51724,0.00613 1.03599,0.01507 1.55274,0.03202c0.00554,0.01873 0.10397,0.08869 0.10956,0.10741c0,0 0.13561,0.71087 0.89754,0.48229c0.35011,-0.10503 0.49404,-0.32744 0.54414,-0.53203z" data-paper-data="{&quot;noHover&quot;:false,&quot;origItem&quot;:[&quot;Path&quot;,{&quot;applyMatrix&quot;:true,&quot;selected&quot;:true,&quot;segments&quot;:[[[313.4809,179.80683],[0.35011,-0.10503],[-0.76193,0.22858]],[[312.49039,179.27348],[0,0],[-0.00558,-0.01872]],[[312.4737,179.21731],[0.00554,0.01873],[-0.51675,-0.01695]],[[310.92277,179.18173],[0.51724,0.00613],[0.00568,2.24492]],[[310.69377,186.58309],[0.68845,-2.15063],[4.22112,0.0052]],[[323.30862,187.04778],[-4.21354,-0.27963],[0.66329,0.04402]],[[328.4696,186.87288],[-0.30803,0.83836],[0.29026,-0.79]],[[328.36543,184.35013],[0.00058,0.84163],[-0.0606,-1.03651]],[[327.74537,179.11889],[0.61252,0.76899],[-0.14022,-0.17603]],[[327.12157,179.37715],[0.22292,-0.03087],[-1.05584,0.14621]],[[323.92879,179.55563],[1.06505,-0.04304],[-3.31619,0.13401]],[[314.02208,179.27957],[3.29708,0.15295],[-0.05011,0.20459]]],&quot;closed&quot;:true}]}" fill="#ffc500" fill-rule="nonzero" stroke-width="0.5" stroke-linecap="butt" stroke-linejoin="miter"/><path d="M307.73924,188.14016l0.0496,-0.5272l-0.00376,-1.62972l-0.00839,-1.59503l-0.03219,-1.60835l-0.00982,-6.88134c0.47445,0.83442 0.96843,1.53531 1.71944,2.24365c-0.00754,0.04009 -0.01252,0.08286 -0.01491,0.12842l-0.09486,0.81749c0,2.05298 0.48916,5.06997 -0.14792,7.03243c-0.27234,0.83891 -0.85744,1.44498 -1.45718,2.01965z" data-paper-data="{&quot;noHover&quot;:false,&quot;origItem&quot;:[&quot;Path&quot;,{&quot;applyMatrix&quot;:true,&quot;selected&quot;:true,&quot;segments&quot;:[[[309.18915,186.06798],[-0.27234,0.83891],[0.63708,-1.96246]],[[309.33177,179.1396],[0,2.05298],[0,0]],[[309.428,178.32243],[0,0],[0.0024,-0.04556]],[[309.44308,178.19405],[-0.00754,0.04009],[-0.75101,-0.70834]],[[307.74235,175.951],[0.47445,0.83442],[0,0]],[307.7847,182.74528],[307.79464,184.33831],[307.79612,185.93137],[307.79671,187.56052],[[307.74687,188.08768],[0,0],[0.59974,-0.57466]]],&quot;closed&quot;:true}]}" fill="#ffc500" fill-rule="nonzero" stroke-width="0.5" stroke-linecap="butt" stroke-linejoin="miter"/><path d="M329.23293,188.36587c0.24367,-0.16637 0.47453,-0.4848 0.63091,-0.76125c0.12964,-0.22918 0.07124,-2.74633 0.07063,-3.25336c-0.07911,-1.33738 -0.11366,-4.87424 -1.00347,-6.2415c1.29774,-1.1342 3.31954,-2.71762 3.8038,-4.27966c-0.05635,0.44878 -0.1089,1.01519 -0.09213,1.30653c0.05927,1.02946 0.21374,2.06071 0.19819,3.09175c-0.05851,3.8787 -0.60143,8.41918 -1.70328,12.13686c0.53451,0.63107 -0.96364,-1.01759 -1.90467,-1.99936z" data-paper-data="{&quot;noHover&quot;:false,&quot;origItem&quot;:[&quot;Path&quot;,{&quot;applyMatrix&quot;:true,&quot;selected&quot;:true,&quot;segments&quot;:[[[331.13598,190.31223],[0.53451,0.63107],[1.10185,-3.71768]],[[332.8173,178.27588],[-0.05851,3.8787],[0.01555,-1.03105]],[[332.62984,175.18807],[0.05927,1.02946],[-0.01677,-0.29135]],[[332.72334,173.88187],[-0.05635,0.44878],[-0.48426,1.56205]],[[328.95404,178.15753],[1.29774,-1.1342],[0.88981,1.36726]],[[329.95567,184.30264],[-0.07911,-1.33738],[0.0006,0.50704]],[[329.85405,187.65674],[0.12964,-0.22918],[-0.15638,0.27644]],[[329.2466,188.31463],[0.24367,-0.16637],[0.94103,0.98177]]],&quot;closed&quot;:true}]}" fill="#ffc500" fill-rule="nonzero" stroke-width="0.5" stroke-linecap="butt" stroke-linejoin="miter"/></g></g></svg>