<svg version="1.1" xmlns="http://www.w3.org/2000/svg" xmlns:xlink="http://www.w3.org/1999/xlink" width="180.81174" height="323.28451" viewBox="0,0,180.81174,323.28451"><g transform="translate(-212.23175,-34.26194)"><g data-paper-data="{&quot;isPaintingLayer&quot;:true}" fill-rule="nonzero" stroke-linejoin="miter" stroke-miterlimit="10" stroke-dasharray="" stroke-dashoffset="0" style="mix-blend-mode: normal"><path d="M303.33775,247.64757c-7.43986,4.21763 -19.5876,2.67851 -27.75636,0.99064c-13.62492,-2.81525 -19.04833,-9.99778 -30.29201,-19.36982c-0.89304,-0.74439 -7.57715,1.89569 -8.47178,1.0782c-4.8968,-4.47457 -18.28776,-10.37265 -22.64863,-16.98704c-3.0026,-4.55422 2.2394,-9.58909 1.453,-14.16221c-0.81825,-4.75827 4.1078,-9.36764 5.15068,-13.57056c3.06417,-12.34892 8.3487,-22.19 18.57718,-29.90573c5.20122,-3.92349 16.3776,-10.82528 21.00053,-2.99262c1.23024,2.0844 1.64112,4.44887 0.80072,6.78899c-1.81556,5.05549 -9.13547,7.0828 -12.86391,10.63318c-5.55182,5.28665 -12.81636,11.91097 -13.1792,21.10279c-0.2578,6.53066 -9.60764,9.42572 -7.9856,14.68138c0.54809,1.7759 6.48015,2.55288 7.66436,4.25651c1.22245,1.75864 5.82868,-0.49778 7.52117,0.90396c11.85904,9.8218 30.81121,14.99444 44.55024,11.79458c8.11573,-1.89019 15.86399,-6.60036 24.59649,-5.19239c25.89007,4.17433 8.05882,25.88249 -6.87116,30.12922z" fill="#feed00" stroke="#000000" stroke-width="2" stroke-linecap="round"/><path d="M295.12249,245.05449c5.74117,-0.03522 13.51966,-1.09433 19.29915,-1.89103c6.30165,-0.86867 14.80978,0.18977 21.25472,0.27236c3.78588,0.04851 12.39083,-0.71126 15.36537,0.86741c1.92545,1.02189 1.7714,3.61777 2.22428,4.95996c1.68287,4.98757 0.65771,10.41015 2.34228,15.49535c1.98993,6.00705 -0.04349,12.10434 0.74476,18.24853c1.47354,11.4858 2.26103,23.14397 -2.42366,34.68887c-2.04858,5.04853 6.11483,11.2684 -2.78393,14.25665c-3.15115,1.05817 -11.02407,7.94801 -14.50975,7.90334c-5.05669,-0.0648 -11.13948,-5.09632 -17.31872,-6.26821c-7.86792,-1.49215 -18.32753,2.73423 -24.19363,1.12143c-2.93629,-0.8073 -6.76566,-4.10393 -8.27348,-6.05204c-1.89011,-2.44202 1.67494,-13.38788 1.9145,-16.63715c1.17812,-15.97872 0.45795,-24.80543 1.63447,-40.79821c0.38661,-5.25514 0.07711,-22.5452 3.30423,-26.18462z" fill="#3c2c1f" stroke="#000000" stroke-width="2" stroke-linecap="round"/><g stroke-width="2"><path d="M289.8799,224.59853c3.41749,-0.34302 9.40608,7.27245 6.37149,13.59427c-3.29946,6.8736 -7.35338,2.45807 -8.726,3.52571c-0.26433,0.20558 -1.97924,10.81705 -4.83549,13.15007c-5.27871,4.31174 -6.60985,-4.2075 -8.10109,-4.7013c-0.99303,-0.32882 -2.8068,6.26045 -5.07374,5.15613c-2.31154,-1.12603 -3.51643,-4.94839 -3.82527,-8.55192c-0.05791,-0.6757 0.4758,-5.06729 0.34881,-5.23986c-0.38669,-0.52546 -1.94603,1.81906 -2.38973,1.99607c-2.03146,0.81045 -2.80669,-3.99528 -3.01183,-6.18912c-1.25246,-13.39312 11.8564,-25.03759 18.98368,-23.23122c3.75946,0.95282 7.22904,7.35371 10.05791,10.77939z" fill="#feed00" stroke="#000000" stroke-linecap="round"/><path d="M273.69128,220.43393c2.99224,-2.36078 6.18113,-0.94774 7.12257,3.15612c0.42526,1.85378 0.36115,3.90639 -0.11278,5.81755c-0.57525,2.31975 -2.14781,1.65719 -3.78841,2.95157c-1.57202,1.24027 -2.86154,4.25763 -4.24158,3.61425c-1.24679,-0.58126 -2.24626,-1.88638 -2.69309,-3.83424c-0.94143,-4.10387 0.72106,-9.34447 3.7133,-11.70527z" fill="#ffa600" stroke="none" stroke-linecap="butt"/><path d="M292.014,230.60569c1.71956,-1.01525 3.36462,0.05775 3.67434,2.39661c0.30972,2.33886 -0.83318,5.05789 -2.55274,6.07314c-1.71956,1.01525 -3.36464,-0.05773 -3.67436,-2.39659c-0.30972,-2.33886 0.83318,-5.05789 2.55275,-6.07314z" fill="#ffa600" stroke="none" stroke-linecap="butt"/><path d="M280.0439,245.10024c1.69808,-1.00254 3.32237,0.05546 3.62796,2.36312c0.30559,2.30767 -0.82324,4.99114 -2.52131,5.99368c-1.69808,1.00254 -3.32237,-0.05546 -3.62796,-2.36312c-0.30559,-2.30767 0.82324,-4.99114 2.52131,-5.99368z" fill="#ffa600" stroke="none" stroke-linecap="butt"/><path d="M269.72812,243.88521c1.39715,-0.82489 2.77414,0.35187 3.07562,2.62835c0.30146,2.27649 -0.58678,4.79064 -1.98393,5.61553c-1.39715,0.82489 -2.77414,-0.35187 -3.07562,-2.62835c-0.30146,-2.27649 0.58678,-4.79064 1.98393,-5.61553z" fill="#ffa600" stroke="none" stroke-linecap="butt"/><path d="M262.79332,232.3944c0.94577,-0.55839 1.94346,0.73328 2.22838,2.88504c0.28496,2.15175 -0.25075,4.34874 -1.19651,4.90712c-0.94577,0.55839 -1.94346,-0.73328 -2.22838,-2.88504c-0.28496,-2.15175 0.25075,-4.34872 1.19651,-4.90712z" fill="#ffa600" stroke="none" stroke-linecap="butt"/></g><path d="M291.7652,205.63816c-1.73971,6.3267 -2.2413,17.88942 -6.3207,23.01771c-3.25345,4.08997 -22.15214,-2.415 -24.66229,-6.28574c-0.8731,-1.34634 4.02754,-18.19264 4.75313,-20.62169c5.56665,-18.63531 12.37256,-36.32322 19.26358,-54.56859c1.89182,-5.00901 6.27547,-8.38759 8.22767,-13.09237l1.1747,0.05974c13.00239,2.78381 24.66187,8.79743 38.53171,7.41511c5.55091,-0.55322 9.64751,-2.44287 13.72988,-6.23979c0.93338,-0.86812 3.62884,-2.94835 5.06597,-1.97083c3.23454,2.20011 5.08413,10.50274 6.76725,13.9797c6.94138,14.33917 11.57419,30.02253 14.66921,45.66153c0.9061,4.57845 -4.08705,15.46197 -5.27385,20.02629c-1.38993,5.34547 -4.4586,-3.34242 -8.62627,0.03185c-1.15984,0.93903 -4.37385,4.25987 -5.78163,2.32469c-1.96125,-2.69601 0.46723,-11.10701 0.46723,-11.10701c0,0 0.53397,16.02719 1.3325,23.97621c0.39165,3.89867 2.23892,10.33379 0.32685,14.07151c-1.4564,2.84697 -10.44065,3.603 -13.33175,3.88324c-11.69469,1.13356 -23.71338,-1.27529 -35.39935,-0.10383c-3.79832,0.38076 -13.43087,3.08474 -16.78347,1.2203c-1.78683,-0.99371 -0.77791,-6.47459 -0.75552,-8.22154c0.09855,-7.69095 -0.97828,-16.5382 0.62588,-24.05673" fill="#fffe8a" stroke="#000000" stroke-width="2" stroke-linecap="round"/><path d="M300.33153,125.88383c14.08813,-2.29069 27.77872,-4.66229 42.1382,-3.34892c3.0623,0.2801 13.75016,1.55726 12.87638,6.26962c-1.18758,6.40456 -7.52001,9.65726 -13.36442,10.98181c-10.53608,2.38786 -35.34592,2.89263 -44.72757,-2.73396c-6.67691,-4.00442 -4.82323,-11.48781 3.22439,-11.38469z" fill="#fffe8a" stroke="#000000" stroke-width="2" stroke-linecap="round"/><path d="M307.24656,176.81069c1.2334,0.52985 4.67397,0.31787 5.13552,1.86177c1.54804,5.17807 -2.51521,9.75208 -7.34926,8.65897c-3.21896,-0.72788 2.60941,-11.22291 2.60941,-11.22291c0,0 0.62649,-23.74071 3.28637,-35.20994" fill="#ffaf36" stroke="#000000" stroke-width="2" stroke-linecap="round"/><path d="M333.97488,177.75774c9.7254,-10.57902 8.11396,18.08091 -1.52232,9.89473c-5.21735,-4.43221 1.37413,-8.37706 1.91121,-10.88859c2.53509,-11.85491 -2.29583,-24.65109 1.4537,-36.65541" fill="#ffaf36" stroke="#000000" stroke-width="2" stroke-linecap="round"/><path d="M294.8337,208.29275c3.57769,-2.78772 7.98263,-2.20685 12.19816,-2.81754c13.59652,-1.96972 28.73808,-0.87814 42.23988,1.48924" fill="none" stroke="#000000" stroke-width="2" stroke-linecap="round"/><path d="M351.02075,237.84761c0.00878,-8.89933 -1.50369,-17.93809 0.09588,-26.83123" fill="none" stroke="#000000" stroke-width="2" stroke-linecap="round"/><path d="M295.2797,212.55358c-0.10911,8.51501 0.23599,16.97214 -0.07453,25.46645" fill="none" stroke="#000000" stroke-width="2" stroke-linecap="round"/><path d="M303.81924,135.74902c-2.60917,-0.95162 -4.35513,-3.54807 -6.74012,-5.02095" fill="none" stroke="#fcec41" stroke-width="2" stroke-linecap="round"/><path d="M346.66522,133.96537c1.64329,-1.06365 3.17774,-1.90205 5.0073,-2.60684" fill="none" stroke="#fcec41" stroke-width="2" stroke-linecap="round"/><path d="M318.27378,146.0429l-0.12281,9.58362" fill="none" stroke="#fcec41" stroke-width="2" stroke-linecap="round"/><path d="M321.67515,154.26899l0.0629,-4.9087" fill="none" stroke="#fcec41" stroke-width="2" stroke-linecap="round"/><path d="M325.24726,149.17148l0.6533,3.74894" fill="none" stroke="#fcec41" stroke-width="2" stroke-linecap="round"/><path d="M277.11349,226.93743l13.49136,-37.12204l-7.72896,36.69527z" fill="#fce541" stroke="#fcec41" stroke-width="2" stroke-linecap="round"/><path d="M277.11349,226.93743l13.49136,-37.12204l-7.72896,36.69527z" fill="#fce541" stroke="#fcec41" stroke-width="2" stroke-linecap="round"/><path d="M352.71437,211.93702l-6.87289,-30.11222l12.69125,25.31792z" fill="#fce541" stroke="#fcec41" stroke-width="2" stroke-linecap="round"/><path d="M320.3088,332.69637l1.68106,-76.73494" fill="none" stroke="#000000" stroke-width="2" stroke-linecap="round"/><path d="M322.61311,341.09932c-0.11109,8.66955 -9.02527,15.58455 -19.91037,15.44506c-10.88511,-0.13948 -19.61916,-7.2806 -19.50807,-15.95018c0.11109,-8.66955 9.02527,-15.58455 19.91037,-15.44506c10.88511,0.13948 19.61916,7.2806 19.50807,15.95018z" fill="#000000" stroke="#000000" stroke-width="2" stroke-linecap="butt"/><path d="M360.98744,336.32279c-0.11109,8.66956 -9.02527,15.58455 -19.91038,15.44506c-10.8851,-0.13948 -19.61916,-7.2806 -19.50807,-15.95018c0.11109,-8.66956 9.02527,-15.58455 19.91037,-15.44506c10.88511,0.13948 19.61917,7.2806 19.50808,15.95018z" fill="#000000" stroke="#000000" stroke-width="2" stroke-linecap="butt"/><g stroke-width="2" stroke-linecap="round"><path d="M303.08975,55.65274c-12.24441,5.45997 -13.08147,18.53932 -16.19722,29.87819c-0.34241,1.24611 -3.0833,12.21858 -4.37899,12.0881c-0.53795,-0.05417 -0.41342,-1.00047 -0.5791,-1.51512c-1.31882,-4.09651 -3.01901,-8.08224 -4.36795,-12.18464c-3.36651,-10.23806 -5.731,-20.83377 -7.99043,-31.3828c-0.64884,-3.02927 -2.71289,-9.9254 -1.56493,-12.84796c0.73562,-1.8728 1.34151,-1.09394 2.61524,-0.5928c6.54499,2.57508 12.95463,5.43924 19.37192,8.30976c4.71262,2.108 10.45579,4.01603 14.08859,7.81083z" fill="#feed00" stroke="#000000"/><path d="M296.85688,58.62229c-7.76916,4.32297 -7.55709,13.01202 -8.9521,20.68461c-0.15331,0.84321 -1.32211,8.2518 -2.18566,8.24141c-0.35854,-0.00432 -0.33161,-0.63672 -0.47117,-0.967c-1.11081,-2.62896 -2.46706,-5.16245 -3.59812,-7.79356c-2.82271,-6.56623 -5.00442,-13.42736 -7.114,-20.26376c-0.6058,-1.96315 -2.37266,-6.39793 -1.78527,-8.39569c0.3764,-1.28019 0.8222,-0.80111 1.69293,-0.54456c4.47417,1.31825 8.87583,2.83537 13.28292,4.35625c3.23641,1.11689 7.14188,2.04136 9.76363,4.33569z" fill="#ffa700" stroke="none"/></g><g stroke-width="2" stroke-linecap="round"><path d="M337.91649,55.30792c3.14761,-4.20601 8.6181,-6.79408 13.04144,-9.45613c6.02338,-3.62498 12.03992,-7.24272 18.22575,-10.58985c1.20383,-0.65139 1.71117,-1.49777 2.66773,0.27242c1.49273,2.76242 0.27714,9.85745 -0.00086,12.94292c-0.9681,10.74476 -2.03483,21.54854 -4.13945,32.11839c-0.84333,4.23535 -2.04938,8.39735 -2.86349,12.6232c-0.10227,0.53091 0.13569,1.45521 -0.39177,1.57399c-1.27043,0.28609 -5.31718,-10.27474 -5.80768,-11.47034c-4.46314,-10.87926 -6.87466,-23.76161 -19.68912,-27.70189z" fill="#feed00" stroke="#000000"/><path d="M344.83467,57.54767c2.32528,-2.59433 6.09041,-3.98399 9.16814,-5.4838c4.191,-2.04231 8.37708,-4.08024 12.65915,-5.92949c0.83335,-0.3599 1.21799,-0.88931 1.74634,0.336c0.8245,1.91213 -0.3935,6.52793 -0.75762,8.5499c-1.268,7.04125 -2.60459,14.11573 -4.61312,20.97494c-0.80482,2.74852 -1.84496,5.42731 -2.62994,8.17125c-0.09862,0.34472 0.00451,0.96924 -0.35086,1.01687c-0.85597,0.11469 -2.91148,-7.0984 -3.16557,-7.91689c-2.31197,-7.44778 -3.15147,-16.09876 -11.3861,-19.4512z" fill="#ffa700" stroke="none"/></g><path d="M319.15456,52.85786c10.43296,-0.337 22.89351,-1.74403 30.67868,6.24234c6.73439,6.90843 6.59107,13.31569 8.86706,21.72436c0.69902,2.58254 2.65657,4.44561 3.06564,7.32745c2.4802,17.47281 -5.51508,39.33055 -26.70504,42.29064c-17.74754,2.47922 -38.9222,-0.49267 -49.51407,-15.61328c-6.61382,-9.44167 -2.6106,-22.67034 0.2206,-32.2134c1.097,-3.69766 -0.16707,-7.93743 1.12942,-11.8305c5.07548,-15.24056 18.16919,-17.19849 32.6199,-17.66528z" fill="#feed00" stroke="#000000" stroke-width="2" stroke-linecap="round"/><path d="M358.39243,92.74588c4.2985,0.25118 15.65382,4.30699 11.45322,10.46709c-1.09294,1.60278 -7.13202,2.6066 -7.46153,3.81962c-0.24712,0.90968 1.12124,1.54009 1.47007,2.41581c0.93343,2.34328 1.60239,5.84699 1.32645,8.36639c-0.75915,6.93134 -10.94162,3.6999 -14.01843,0.86271" fill="#feed00" stroke="#000000" stroke-width="2" stroke-linecap="round"/><path d="M292.88908,123.37366c-2.88728,3.02983 -12.83998,6.91166 -14.04488,0.04378c-0.43796,-2.49633 0.00351,-6.03592 0.78377,-8.43453c0.2916,-0.89642 1.61641,-1.61382 1.3111,-2.50565c-0.40711,-1.18924 -6.49838,-1.80121 -7.69248,-3.33013c-4.58938,-5.87618 6.48051,-10.65635 10.75384,-11.18441" fill="#feed00" stroke="#000000" stroke-width="2" stroke-linecap="round"/><path d="M246.04791,78.26547c14.31764,-0.24757 25.32407,9.95716 37.12963,16.20649" fill="none" stroke="#000000" stroke-width="2" stroke-linecap="round"/><path d="M251.31829,92.33044c10.72179,-1.65054 21.80192,1.38973 32.25034,3.35996" fill="none" stroke="#000000" stroke-width="2" stroke-linecap="round"/><path d="M256.11475,100.09175c8.63221,-1.9055 17.74,-3.73583 26.5868,-4.0216" fill="none" stroke="#000000" stroke-width="2" stroke-linecap="round"/><path d="M361.31093,90.54122c8.10604,-8.6472 17.1695,-19.17962 29.80289,-19.60427" fill="none" stroke="#000000" stroke-width="2" stroke-linecap="round"/><path d="M358.70407,91.50475c10.7038,-8.18005 20.99062,-8.12738 33.33942,-4.79931" fill="none" stroke="#000000" stroke-width="2" stroke-linecap="round"/><path d="M362.26312,92.7967c8.48601,-3.71654 19.42545,-0.61358 27.26592,3.45706" fill="none" stroke="#000000" stroke-width="2" stroke-linecap="round"/><path d="M317.38693,102.8818c3.71807,-0.12009 7.62501,-0.48763 11.33106,-0.14658c0.47037,0.0433 1.26775,-0.18364 1.39065,0.27247c0.16097,0.59746 -6.37988,4.58515 -7.14863,4.55289c-1.72868,-0.07255 -4.43682,-3.36435 -5.15527,-4.69226z" fill="#000000" stroke="#000000" stroke-width="2" stroke-linecap="round"/><path d="M317.74809,84.20084c0.22852,7.07444 -5.23432,12.99186 -12.20157,13.21692c-6.96726,0.22505 -12.80057,-5.32748 -13.02909,-12.40192c-0.22852,-7.07444 5.23431,-12.99185 12.20155,-13.21691c6.96726,-0.22505 12.80059,5.32747 13.02911,12.40191z" fill="#ffffff" stroke="#000000" stroke-width="2" stroke-linecap="butt"/><path d="M352.78437,82.64639c0.22852,7.07444 -5.23431,12.99185 -12.20155,13.21691c-6.96726,0.22505 -12.80057,-5.32747 -13.02909,-12.40191c-0.22852,-7.07444 5.23431,-12.99185 12.20155,-13.21691c6.96726,-0.22505 12.80057,5.32747 13.02909,12.40191z" fill="#ffffff" stroke="#000000" stroke-width="2" stroke-linecap="butt"/><path d="M313.77259,84.32926c0.16323,5.05317 -3.64331,9.27681 -8.50212,9.43376c-4.85882,0.15695 -8.92999,-3.81222 -9.09322,-8.8654c-0.16323,-5.05317 3.64331,-9.27681 8.50212,-9.43376c4.85882,-0.15695 8.92999,3.81222 9.09322,8.8654z" fill="#ffffff" stroke="#000000" stroke-width="2" stroke-linecap="butt"/><path d="M348.94965,82.77026c0.16323,5.05317 -3.64331,9.27681 -8.50212,9.43376c-4.85882,0.15695 -8.92999,-3.81222 -9.09322,-8.8654c-0.16323,-5.05317 3.64331,-9.27681 8.50212,-9.43376c4.85882,-0.15695 8.92999,3.81222 9.09322,8.8654z" fill="#ffffff" stroke="#000000" stroke-width="2" stroke-linecap="butt"/><path d="M301.62824,59.48356c0.4811,-3.71407 4.15658,-4.99567 7.74311,-6.37945c0.39722,-0.15325 3.76221,-1.40075 3.66198,-1.89421c-0.18234,-0.8977 -5.43655,-0.07539 -4.81039,-2.06972c0.841,-2.67859 11.41783,-2.39959 13.68663,-2.4731c0.32677,-0.01059 4.19929,0.00576 4.24893,-0.14178c0.21269,-0.63221 -6.34404,-2.48882 -5.92724,-3.33198c0.2278,-0.46085 5.0135,0.95098 5.49208,1.11551c6.26987,2.15557 7.82439,5.91092 11.59275,10.2522" fill="#feed00" stroke="#000000" stroke-width="2" stroke-linecap="round"/><path d="M288.62064,76.674c-2.40768,-1.08512 -2.48844,-3.15136 -4.34979,-4.78052c-0.95033,-0.83178 -5.87632,-1.27725 -5.83678,-2.89376c0.05202,-2.1262 5.97458,-3.13843 7.27239,-3.69429c0.91366,-0.39133 -0.73302,-8.59913 7.71962,-3.4434" fill="#feed00" stroke="#000000" stroke-width="2" stroke-linecap="round"/><path d="M310.97147,124.74077c-0.71339,-0.53908 -1.63516,-1.26538 -1.74597,-1.35164c-0.38449,-0.29931 -0.87508,-0.62883 -1.38518,-0.98231c-0.38325,-0.07242 -0.78429,-0.13876 -1.11787,-0.24133c-0.11122,0.07802 -0.21886,0.15324 -0.32269,0.22522c-0.20255,0.14043 2.28725,2.63428 2.61337,2.68455c0.67228,0.10364 1.31357,-0.10714 1.95835,-0.3345zM307.24194,119.9267c0.10314,-0.05822 0.20741,-0.11622 0.31258,-0.174c0.01502,-0.0101 0.03019,-0.02023 0.0455,-0.03038c-0.05736,-0.07103 -0.12923,-0.17978 -0.20996,-0.31332c-0.01284,-0.01758 -0.02344,-0.03537 -0.03195,-0.05334c-0.04204,-0.07083 -0.08616,-0.14759 -0.13164,-0.22859c-0.03743,-0.04108 -0.07469,-0.08221 -0.11176,-0.12337c-0.14012,0.27828 -0.14576,0.56633 0.07588,0.85712c0.0165,0.02164 0.03361,0.04361 0.05134,0.06588zM309.86451,113.73196c-0.12304,0.06306 -0.24465,0.12379 -0.3647,0.18176c-0.14803,0.07149 -1.60338,0.66511 -2.54442,1.14625c0.03714,0.1398 0.10432,0.29749 0.19163,0.46606c0.02425,-0.01978 0.04943,-0.03941 0.07553,-0.05887c0.48249,-0.3596 1.37379,-0.38057 2.06068,-0.57086c0.11561,-0.02781 0.2324,-0.05676 0.35027,-0.08667c0.22517,-0.17725 0.45374,-0.34764 0.68894,-0.50707c0.02823,-0.0584 0.05828,-0.10191 0.09026,-0.12715c0.07677,-0.06059 0.20009,-0.11298 0.35994,-0.15835c1.17418,-0.69146 2.54682,-1.07177 4.47195,-0.68857c0.28381,-0.0575 0.56571,-0.10888 0.84461,-0.15248c0.02598,-0.02051 0.05341,-0.04048 0.08241,-0.05987c0.14448,-0.09661 0.32013,-0.16342 0.5138,-0.21303c-0.39048,-0.14649 -0.74891,-0.26542 -1.05466,-0.34915c-0.78529,-0.21504 -1.66286,0.27515 -2.45479,0.48051c-0.39836,0.10083 -1.88731,0.3753 -3.31142,0.69749zM323.33856,112.5174c0.46352,-0.0123 0.93292,-0.02208 1.4025,-0.02725c-0.39234,-0.15087 -0.77827,-0.2398 -1.11694,-0.09787c-0.09551,0.04003 -0.1907,0.08177 -0.28556,0.12511zM337.44174,121.59911c-1.13,0.21701 -2.68753,0.2207 -4.01917,0.2459c-0.63584,0.45307 -1.25568,0.88741 -1.36902,0.94032c-0.05137,0.22811 -0.1488,0.44071 -0.3146,0.62162c-0.14363,0.15672 -0.3409,0.31886 -0.57563,0.48332c0.55449,-0.12719 1.10531,-0.26478 1.66711,-0.37269c0.97985,-0.18819 5.12263,-0.6199 5.02379,-1.20094c-0.13934,-0.20575 -0.27438,-0.44991 -0.41249,-0.71754zM336.07601,115.61062c0.05571,0.08372 0.10933,0.16331 0.16144,0.23714c0.02441,0.03458 0.0693,0.0978 0.12913,0.18228c0.0112,0.00223 0.02249,0.00449 0.03389,0.00676c0.27281,-0.13092 0.92402,-0.23542 0.73245,-0.39876c-0.21011,-0.17915 -0.66791,-0.0455 -1.05692,-0.02742zM313.85774,111.598c2.19677,-0.29588 3.53208,0.22134 5.17231,1.04965c0.33157,-0.00467 0.68511,-0.01336 1.056,-0.02438c0.92193,-0.60663 1.86577,-1.11968 2.78793,-1.38805c0.07333,-0.02134 0.14999,-0.03947 0.22971,-0.05455c-2.69691,-0.46783 -5.51501,-0.78497 -7.49788,-0.24154c-0.57914,0.15872 -1.16498,0.38945 -1.74807,0.65887zM328.58969,112.19198c0.69317,0.23431 1.3594,0.47711 1.95182,0.69437c0.38417,0.08433 0.73873,0.18495 1.0565,0.3045c0.26899,0.02484 0.53076,0.05358 0.78227,0.0871c0.06217,-0.27425 0.01657,-0.5164 -0.31901,-0.65541c-0.97744,-0.4049 -2.31018,-0.25986 -3.45209,-0.42768c-0.00648,-0.00096 -0.01299,-0.00191 -0.01949,-0.00287zM326.04315,125.13998c-0.32389,-0.08374 -0.64371,-0.17983 -0.95939,-0.28563c-0.2242,0.05922 -0.44562,0.11158 -0.66351,0.15609c-0.60553,0.12369 -1.29485,0.16701 -2.03518,0.15316c0.44991,0.10501 0.89658,0.21374 1.33794,0.32821c0.33141,0.08596 0.61191,0.37409 0.95559,0.30957c0.5635,-0.10577 0.97887,-0.36689 1.36456,-0.6614zM337.51298,117.41708c-0.03213,0.04213 -0.06427,0.08449 -0.09645,0.12702c0.28465,0.42502 0.50787,0.78019 0.50945,0.85139c0.00243,0.11005 -0.01122,0.21272 -0.03892,0.30886c0.09094,0.12621 0.1783,0.25478 0.26256,0.38493c0.00583,-0.02525 0.01247,-0.05035 0.02015,-0.07527c0.13422,-0.43559 0.98853,-1.11654 0.35094,-1.31255c-0.32638,-0.10034 -0.6629,-0.19484 -1.00774,-0.28438zM336.81937,120.37045c-0.09614,-0.18119 -0.19704,-0.36322 -0.30427,-0.54294c-0.19542,0.08082 -0.39877,0.15645 -0.60143,0.23047c-0.18503,0.13438 -0.36107,0.26065 -0.51453,0.37014c0.17244,-0.01148 0.34399,-0.0221 0.51454,-0.03175c0.21584,-0.01221 0.55926,-0.00394 0.90569,-0.0259zM339.11362,120.81886c0.24828,0.48604 0.48171,0.94732 0.72523,1.34327c-0.63898,2.04789 -3.48629,1.98495 -6.42016,2.54843c-0.27537,0.05289 -3.86463,0.74679 -4.03444,0.75972c-0.40051,0.03049 -0.79592,0.03343 -1.18614,0.01277c-0.44009,0.21042 -0.84691,0.40442 -1.17198,0.57274c-0.64508,0.33401 -1.16021,0.84741 -1.97432,0.97187c-0.32346,0.04945 -3.57962,-0.71789 -3.89122,-0.78848c-1.32024,-0.2991 -3.3432,-0.57411 -5.17806,-0.97445c-0.15321,0.01559 -0.30645,0.03117 -0.45968,0.04676c-0.66172,0.06731 -1.66059,0.23858 -2.55644,0.21525c-0.0518,0.00922 -0.1032,0.01855 -0.15417,0.02799c-0.59912,0.11094 -4.03475,0.77787 -4.4393,0.70307c-0.73777,-0.13642 -1.02493,-0.71712 -1.50468,-1.09258c-1.14158,-0.89342 -3.38288,-2.10391 -2.22371,-3.37286c0.30453,-0.33337 0.70957,-0.66394 1.17984,-0.98985c-0.73685,-0.75995 -1.12215,-1.57256 -0.59711,-2.39733c0.03964,-0.06227 0.3731,-0.33931 0.78088,-0.66631c-0.2124,-0.24255 -0.41813,-0.47253 -0.61761,-0.68166c-0.42456,-0.4451 -1.13388,-0.83806 -1.22493,-1.35293c-0.07979,-0.45124 0.28171,-0.86375 0.83298,-1.23463c-0.00194,-0.02419 -0.00044,-0.04299 0.00489,-0.05572c0.33287,-0.7945 2.05671,-1.35014 3.82917,-1.76726c1.83067,-0.95149 3.94126,-2.31078 5.99129,-2.85639c3.66244,-0.97477 8.69101,0.37357 12.29692,0.90352c1.45203,0.2134 5.19366,0.39858 6.28166,1.00285c0.9714,0.53951 0.9359,1.29262 0.77398,1.99628c0.22941,0.09917 0.43545,0.22737 0.62205,0.37381c1.02137,0.20789 3.95846,0.79475 4.19403,1.11201c0.29821,0.40162 -0.3272,0.8272 -0.69578,1.24612c0.81456,0.17277 1.53196,0.33669 1.65123,0.40226c1.51354,0.83195 0.551,2.87458 -0.83442,3.99175zM321.72437,123.40069c-0.44655,0.04291 -0.89986,0.07923 -1.3481,0.11149c0.04186,0.00618 0.08371,0.01237 0.12558,0.01855c0.42287,-0.03812 0.84618,-0.07383 1.27006,-0.10637c-0.01586,-0.00789 -0.0317,-0.01578 -0.04753,-0.02367zM331.4415,119.50498c0.1469,0.16953 0.23332,0.34384 0.29031,0.52339c0.16409,-0.3145 0.26537,-0.68016 0.33537,-1.06346c-0.20352,0.16494 -0.41206,0.3475 -0.62567,0.54006zM330.97717,117.54829c0.09007,-0.12686 0.16895,-0.25806 0.23911,-0.39429c-0.20353,-0.02632 -0.4078,-0.05167 -0.61254,-0.07629c0.13755,0.15513 0.26318,0.31321 0.37344,0.47058zM334.36408,118.21054c0.02332,0.09957 0.0463,0.19738 0.06946,0.29288c0.13992,-0.15994 0.27509,-0.32322 0.40689,-0.48802c-0.00599,-0.01119 -0.01241,-0.02244 -0.01923,-0.03372c-0.12065,-0.07282 -0.24675,-0.13911 -0.37878,-0.19797c-0.02383,0.14186 -0.04992,0.2845 -0.07833,0.42683zM328.40955,123.64172c-0.37413,0.16375 -0.75015,0.32194 -1.12502,0.47058c0.06245,0.01181 0.12496,0.02293 0.1875,0.03332c0.35287,-0.19139 0.66459,-0.35513 0.93752,-0.5039z" data-paper-data="{&quot;index&quot;:null}" fill="#000000" stroke="none" stroke-width="0.5" stroke-linecap="butt"/><path d="M319.55436,70.5896l-1.09638,17.05856l-28.38984,-6.2217l3.25543,-12.55218" fill="#feed00" stroke="#000000" stroke-width="2" stroke-linecap="round"/><path d="M349.51607,66.93652l4.05871,12.31593l-27.92913,8.0409l-2.19498,-16.95224" data-paper-data="{&quot;index&quot;:null}" fill="#feed00" stroke="#000000" stroke-width="2" stroke-linecap="round"/><path d="M312.12872,84.37475l-0.50796,-15.72543l20.84533,-0.67334l0.50796,15.72543z" fill="#feed00" stroke="none" stroke-width="0" stroke-linecap="butt"/><path d="M347.54023,77.10503l-2.76522,-12.50433l6.07353,-1.3431l2.76522,12.50433z" fill="#feed00" stroke="none" stroke-width="0" stroke-linecap="butt"/><path d="M288.3477,78.77217l3.55096,-11.92299l5.61082,1.67105l-3.55096,11.92299z" fill="#feed00" stroke="none" stroke-width="0" stroke-linecap="butt"/><path d="M362.42979,204.79729c-0.89605,-2.53867 -2.12221,-5.84511 -4.18837,-7.56668c-4.87758,-4.0641 -12.64059,-4.59066 -17.45405,-0.2636c-0.34856,0.46998 -0.75086,0.90452 -1.0457,1.40994c-2.49415,4.27531 4.83007,0.47942 6.10323,2.01391c0.44674,0.53843 -0.08123,1.40235 -0.22742,2.08655c-0.25367,1.18729 -0.72575,2.65319 -1.09653,3.80486c-0.31768,0.98674 -1.43275,1.7965 -1.30089,2.8247c0.14798,1.15402 2.02429,1.47461 2.33264,2.59647c0.6137,2.23276 -1.68574,4.7858 -1.13475,7.29685c2.46606,1.88632 5.17251,4.30934 8.1284,5.30408c0.91436,0.3077 1.59572,-0.0427 2.57244,-0.22191c3.25143,-0.59655 6.16272,-1.38488 9.33262,-2.34339c0.87451,-0.26444 1.87519,-0.21232 2.65151,-0.69398c2.01028,-1.24726 2.49073,-4.19406 3.45967,-6.10914c0.89074,-2.63523 -1.25326,-4.21273 -2.72088,-6.21723c-0.55472,-0.75765 -0.63234,-2.32462 -1.57126,-2.33814c-0.7977,-0.01148 -1.61822,0.11638 -2.39209,-0.0775l-0.85517,-0.3447c0,0 -0.82732,-0.34155 -0.59342,-1.1611zM364.39982,204.37124l0.00657,0.0028c0.71788,0.22183 1.52457,-0.13673 2.25368,0.04485c1.46779,0.36556 2.02437,2.06758 2.80222,3.12774c2.01886,2.75162 4.05103,4.5171 2.95201,8.14509c-0.96121,1.90127 -1.3838,4.17793 -2.88851,5.76274c-2.59934,2.73769 -8.43256,3.69687 -12.11868,4.25232c-1.7403,0.26224 -3.64018,1.06294 -5.39698,0.52436c-3.31045,-1.0149 -6.70919,-3.88196 -9.28445,-6.16493c-0.24993,-0.89108 -0.78036,-2.22888 -0.60258,-3.25115c0.03695,-0.21248 1.63068,-4.17388 1.53033,-4.48496c-0.15017,-0.46554 -0.96797,-0.3507 -1.26977,-0.73566c-1.53669,-1.96013 -1.35352,-2.20791 -0.5928,-4.13923c0.66297,-1.68316 0.92104,-3.05414 1.54569,-4.77673c0.05172,-0.14262 0.15885,-0.34875 0.28372,-0.54666c-0.28658,0.0418 -0.60395,0.05182 -0.82417,0.07285c-1.36843,0.13062 -4.17741,0.92794 -5.178,-0.7352c-1.24972,-2.07724 0.59183,-4.35197 1.68775,-5.84602c5.56692,-5.01441 14.54945,-4.78171 20.23987,0.09097c2.3966,2.0522 3.82286,5.74746 4.8541,8.65679z" fill="#000000" stroke="none" stroke-width="0.5" stroke-linecap="butt"/><path d="M363.07147,205.94531l0.8559,0.34781c0.77386,0.19387 1.59482,0.06848 2.39252,0.07996c0.93892,0.01351 1.01702,1.59073 1.57174,2.34838c1.46762,2.0045 3.60721,3.59995 2.71647,6.23517c-0.96894,1.91508 -1.46143,4.87834 -3.47171,6.12559c-0.77633,0.48166 -1.78287,0.4341 -2.65738,0.69853c-3.1699,0.95851 -6.10958,1.75515 -9.36103,2.35169c-0.97673,0.1792 -1.66586,0.52888 -2.58021,0.22118c-2.95589,-0.99474 -5.68912,-3.43164 -8.15518,-5.31796c-0.55099,-2.51105 1.73695,-5.08196 1.12325,-7.31472c-0.30835,-1.12186 -2.18763,-1.45556 -2.33562,-2.60958c-0.13186,-1.0282 0.98365,-1.85032 1.30133,-2.83707c0.37078,-1.15168 0.84877,-2.63436 1.10244,-3.82164c0.14618,-0.68419 0.75661,-1.49209 0.30988,-2.03053c-1.27316,-1.53449 -8.67893,2.20385 -6.18477,-2.07146c0.29485,-0.50541 0.69984,-0.94391 1.04842,-1.41388c4.81346,-4.32706 12.62914,-3.81861 17.50672,0.24549c2.06617,1.72158 3.32495,5.0555 4.22099,7.59417c-0.2339,0.81954 0.59623,1.16885 0.59623,1.16885z" data-paper-data="{&quot;noHover&quot;:false,&quot;origItem&quot;:[&quot;Path&quot;,{&quot;applyMatrix&quot;:true,&quot;segments&quot;:[[[365.18698,208.6344],[-0.43084,0.73535],[-0.23483,-2.6819]],[[363.01734,200.26244],[1.57171,2.18234],[-3.71032,-5.15181]],[[346.18016,195.65563],[5.74026,-2.99036],[-0.45473,0.36824]],[[344.81596,196.76034],[0.41155,-0.41594],[-3.48128,3.51848]],[[350.22437,200.23227],[-0.85039,-1.80345],[0.29839,0.63281]],[[349.48393,202.19623],[0.31214,-0.62614],[-0.54167,1.08655]],[[347.47343,205.60757],[0.6462,-1.02287],[-0.55366,0.87638]],[[345.50937,208.01874],[0.12865,-1.02861],[-0.1444,1.15447]],[[347.12103,211.11478],[-0.01892,-1.16331],[0.03766,2.31526]],[[344.2029,217.89832],[0.09245,-2.56913],[1.9179,2.44158]],[[350.75225,225.06143],[-2.61455,-1.70027],[0.80877,0.52595]],[[353.29879,225.48787],[-0.99056,-0.06997],[3.29749,0.23291]],[[362.92095,225.54523],[-3.30877,0.13794],[0.91282,-0.03806]],[[365.66175,225.53422],[-0.8719,0.2729],[2.25776,-0.70668]],[[370.53527,220.48053],[-1.4158,1.61304],[1.51961,-2.32994]],[[369.45035,213.78127],[0.92153,2.3071],[-0.34831,-0.87202]],[[368.51164,211.12522],[0.9059,0.24717],[-0.76965,-0.21]],[[366.21441,210.4538],[0.70109,0.38068],[0,0]],[365.47218,209.90678]],&quot;closed&quot;:true}]}" fill="#feed00" stroke="none" stroke-width="0.5" stroke-linecap="butt"/></g></g></svg>