<svg version="1.1" xmlns="http://www.w3.org/2000/svg" xmlns:xlink="http://www.w3.org/1999/xlink" width="181.03509" height="370.85358" viewBox="0,0,181.03509,370.85358"><defs><radialGradient cx="325.22706" cy="203.10364" r="33.16925" gradientUnits="userSpaceOnUse" id="color-1"><stop offset="0" stop-color="#ee2828"/><stop offset="1" stop-color="#500000"/></radialGradient><radialGradient cx="327.50723" cy="187.50067" r="28.48101" gradientUnits="userSpaceOnUse" id="color-2"><stop offset="0" stop-color="#ee2828"/><stop offset="1" stop-color="#500000"/></radialGradient><linearGradient x1="306.84792" y1="24.63884" x2="365.93147" y2="6.34204" gradientUnits="userSpaceOnUse" id="color-3"><stop offset="0" stop-color="#000000"/><stop offset="1" stop-color="#d31b1b"/></linearGradient><linearGradient x1="212.01166" y1="69.86454" x2="274.59125" y2="50.48512" gradientUnits="userSpaceOnUse" id="color-4"><stop offset="0" stop-color="#d31b1b"/><stop offset="1" stop-color="#16031b"/></linearGradient><linearGradient x1="290.41762" y1="37.98878" x2="329.99521" y2="136.7759" gradientUnits="userSpaceOnUse" id="color-5"><stop offset="0" stop-color="#190307"/><stop offset="1" stop-color="#ee2828"/></linearGradient><linearGradient x1="291.92474" y1="30.62692" x2="307.14033" y2="79.76076" gradientUnits="userSpaceOnUse" id="color-6"><stop offset="0" stop-color="#d31b1b"/><stop offset="1" stop-color="#670000"/></linearGradient><radialGradient cx="281.88166" cy="87.00839" r="10.02727" gradientUnits="userSpaceOnUse" id="color-7"><stop offset="0" stop-color="#ffffff" stop-opacity="0.61176"/><stop offset="1" stop-color="#ffffff" stop-opacity="0"/></radialGradient><radialGradient cx="334.03322" cy="69.14962" r="10.02727" gradientUnits="userSpaceOnUse" id="color-8"><stop offset="0" stop-color="#ffffff" stop-opacity="0.61176"/><stop offset="1" stop-color="#ffffff" stop-opacity="0"/></radialGradient><radialGradient cx="333.41014" cy="68.46179" r="5.70896" gradientUnits="userSpaceOnUse" id="color-9"><stop offset="0" stop-color="#ffffff" stop-opacity="0.61176"/><stop offset="1" stop-color="#ffffff" stop-opacity="0"/></radialGradient><radialGradient cx="282.35325" cy="87.5392" r="5.70896" gradientUnits="userSpaceOnUse" id="color-10"><stop offset="0" stop-color="#ffffff" stop-opacity="0.61176"/><stop offset="1" stop-color="#ffffff" stop-opacity="0"/></radialGradient></defs><g transform="translate(-199.40251,31.52187)"><g stroke-miterlimit="10"><path d="M280.54981,338.10094l-1.23499,-72.39526l-5.0957,-12.03587l4.62558,-15.52269l-10.08206,-21.54708l9.63031,-4.93416l-18.64928,-32.87158l18.12464,2.11721l-19.20384,-24.67859l18.84733,3.78016l-10.29987,-25.2006c0,0 13.59544,11.58871 15.02479,7.52863c2.55478,-7.25687 6.03711,-14.07273 10.17645,-14.44661c8.94328,-0.80778 30.14437,-2.24193 48.66041,-3.91437c20.08282,-1.81396 27.16168,18.70283 27.16168,18.70283l8.1379,-13.65977c0,0 -8.09994,24.04562 -8.08413,28.37113c0.01148,3.14182 10.98576,-11.77684 10.98576,-11.77684c0,0 -10.91707,30.56891 -10.90185,34.73491c0.01476,4.03821 12.06467,0.23012 12.06467,0.23012c0,0 -11.96848,26.08581 -11.94592,32.26126c0.01754,4.80013 8.17834,3.76199 8.17834,3.76199c0,0 -8.09341,19.47643 -8.0781,23.6633c0.01579,4.3196 3.93284,9.1917 3.93284,9.1917c0,0 -3.85486,12.14163 -3.83988,16.23993c0.13986,38.26662 0.26911,73.63105 0.26911,73.63105z" fill="#000000" stroke="#000000" stroke-width="0" stroke-linecap="butt"/><path d="M340.84208,138.54217c-0.14288,7.74962 -7.53963,14.0319 -16.5211,14.0319c-8.98147,0 -16.14655,-6.28228 -16.00367,-14.0319c0.14288,-7.74962 7.53962,-14.0319 16.52109,-14.0319c8.98147,0 16.14656,6.2823 16.00368,14.0319z" fill="#ee2828" stroke="#000000" stroke-width="0" stroke-linecap="butt"/><path d="M349.51766,233.31663l-51.18873,-20.70938l-1.73695,30.63854l34.39435,-47.37625l22.87584,-32.90805" fill="none" stroke="url(#color-1)" stroke-width="2.5" stroke-linecap="round"/><path d="M299.23283,176.29492l56.54882,22.41153" fill="none" stroke="url(#color-2)" stroke-width="2.5" stroke-linecap="round"/><path d="M293.32917,144.46966l52.03629,-1.81882" fill="none" stroke="#000000" stroke-width="0" stroke-linecap="round"/><path d="M348.92108,40.3821c3.01324,7.76664 -21.68583,26.68953 -55.16691,42.26549c-33.48108,15.57594 -63.06557,21.90663 -66.07882,14.14c-3.01323,-7.76663 21.68582,-26.68952 55.16692,-42.26547c33.48108,-15.57594 63.06558,-21.90665 66.07883,-14.14001z" fill="#580b0b" stroke="#000000" stroke-width="0" stroke-linecap="butt"/><path d="M308.04206,30.44334l32.13184,-17.68613l9.37872,-44.27908l14.19239,32.75185l0.85578,41.69166l-13.82335,8.39395l-6.58593,-11.30408l-16.4269,-9.40179z" fill="url(#color-3)" stroke="#000000" stroke-width="0" stroke-linecap="round"/><path d="M259.41299,62.14047l-4.96895,18.26324l3.33521,12.65042l-15.71028,3.8379l-28.87291,-30.08791l-13.79354,-35.70837l38.61249,27.19408l35.22745,-10.21183z" fill="url(#color-4)" stroke="#000000" stroke-width="0" stroke-linecap="round"/><path d="M359.93885,65.32899c9.59461,26.89399 -3.1726,61.93022 -31.66626,72.09551c-28.49366,10.16529 -60.62289,-6.13719 -70.21749,-33.03116c-9.5946,-26.89398 4.4252,-59.18901 32.91887,-69.35429c28.49366,-10.16529 59.37031,3.39598 68.96491,30.28996z" fill="url(#color-5)" stroke="#000000" stroke-width="0" stroke-linecap="butt"/><path d="M322.49608,73.4534c0.91021,2.55134 -4.61755,6.85491 -12.34661,9.61231c-7.72906,2.7574 -14.73257,2.92444 -15.64276,0.37309c-0.91021,-2.55134 4.61756,-6.85491 12.34662,-9.61231c7.72906,-2.7574 14.73257,-2.92444 15.64278,-0.37309z" fill-opacity="0.23137" fill="#000000" stroke="none" stroke-width="0" stroke-linecap="butt"/><path d="M286.11861,85.09491c0.75095,2.10492 -0.51316,4.47946 -2.82344,5.30366c-2.31029,0.82421 -4.7919,-0.21402 -5.54285,-2.31893c-0.75095,-2.10493 0.51316,-4.47946 2.82344,-5.30366c2.31029,-0.82421 4.79189,0.21402 5.54285,2.31894z" fill="#ffffff" stroke="#000000" stroke-width="2.5" stroke-linecap="butt"/><path d="M337.1798,65.18603c0.75095,2.10493 -0.51316,4.47945 -2.82344,5.30366c-2.31029,0.82421 -4.79189,-0.21402 -5.54284,-2.31893c-0.75095,-2.10492 0.51315,-4.47944 2.82344,-5.30365c2.31029,-0.82421 4.7919,0.21401 5.54285,2.31893z" fill="#ffffff" stroke="#000000" stroke-width="2.5" stroke-linecap="butt"/><path d="M349.88805,34.10683c1.23816,3.85122 4.24606,13.72237 4.24606,13.72237l-49.72222,23.04863l-49.70986,22.46641c0,0 -4.48931,-9.90588 -5.69595,-13.65909c-4.91124,-15.27598 13.69062,-37.86268 41.54841,-50.44879c27.85778,-12.5861 54.42233,-10.40551 59.33357,4.87048zM308.94489,39.88637c-13.87518,6.26879 -23.14025,17.51861 -20.69411,25.12715c0.601,1.86936 2.837,6.80321 2.837,6.80321l24.7591,-11.18989l24.76526,-11.47989c0,0 -1.49815,-4.91653 -2.11482,-6.83471c-2.44615,-7.60855 -15.67721,-8.69464 -29.55241,-2.42585z" fill="url(#color-6)" stroke="#000000" stroke-width="0" stroke-linecap="butt"/><path d="M336.15199,53.99997l-46.4624,21.13108l55.895,-25.66543" fill="none" stroke-opacity="0.48235" stroke="#000000" stroke-width="2.5" stroke-linecap="round"/><path d="M298.2123,28.02908c0,0 4.52472,2.03391 6.19778,3.9664c1.76437,2.03795 4.12911,7.96175 4.12911,7.96175" fill="none" stroke-opacity="0.48235" stroke="#000000" stroke-width="0" stroke-linecap="round"/><path d="M269.49092,86.22818c0,0 -9.27617,-20.85938 -4.92016,-30.24039c4.65803,-10.03147 32.02311,-28.12796 32.02311,-28.12796c0,0 21.14709,-3.44451 30.79419,0.33901c7.67174,3.00879 22.53193,20.57508 22.53193,20.57508" fill="none" stroke-opacity="0.48235" stroke="#000000" stroke-width="0" stroke-linecap="round"/><path d="M299.86696,24.1342c0.66269,1.85759 -0.70222,4.04203 -3.04861,4.87912c-2.34641,0.8371 -4.78578,0.00984 -5.44847,-1.84773c-0.66269,-1.85759 0.70221,-4.04203 3.04862,-4.87912c2.34641,-0.8371 4.78576,-0.00984 5.44847,1.84774z" fill="#d31b1b" stroke="#000000" stroke-width="0" stroke-linecap="butt"/><path d="M318.84585,72.1105c0,0 -0.22461,-3.17721 3.71749,-4.63609c7.04813,-2.60834 29.47436,-10.90771 29.47436,-10.90771" fill="none" stroke="#000000" stroke-width="0" stroke-linecap="round"/><path d="M298.2123,28.02908c0,0 4.52472,2.03391 6.19778,3.9664c1.76437,2.03795 4.12911,7.96175 4.12911,7.96175" fill="none" stroke-opacity="0.48235" stroke="#000000" stroke-width="2.5" stroke-linecap="round"/><path d="M269.49092,86.22817c0,0 -9.27618,-20.85938 -4.92017,-30.24039c4.65803,-10.03146 32.02312,-28.12796 32.02312,-28.12796c0,0 21.14709,-3.44451 30.79419,0.33901c7.67174,3.00879 22.53193,20.57508 22.53193,20.57508" fill="none" stroke-opacity="0.48235" stroke="#000000" stroke-width="2.5" stroke-linecap="round"/><path d="M289.32857,82.96442c1.11102,5.42531 -0.60392,12.878 -5.43523,13.86738c-4.8313,0.98938 -10.94946,-4.85919 -12.06049,-10.28451c-1.11102,-5.42531 1.90486,-10.62546 6.73617,-11.61483c4.8313,-0.98938 9.64852,2.60665 10.75955,8.03197z" fill="url(#color-7)" stroke="none" stroke-width="0" stroke-linecap="butt"/><path d="M341.48013,65.10564c1.11102,5.42531 -1.90485,10.62546 -6.73615,11.61484c-4.8313,0.98938 -9.64851,-2.60666 -10.75953,-8.03197c-1.11102,-5.42531 1.90484,-10.62546 6.73616,-11.61485c4.8313,-0.98938 9.64853,2.60667 10.75955,8.03198z" fill="url(#color-8)" stroke="none" stroke-width="0" stroke-linecap="butt"/><path d="M337.08973,65.18931c0.63256,3.08886 -1.08452,6.04953 -3.83519,6.61283c-2.75068,0.5633 -5.49331,-1.48408 -6.12587,-4.57295c-0.63256,-3.08886 1.08451,-6.04953 3.83518,-6.61283c2.75068,-0.5633 5.49332,1.48409 6.12588,4.57295z" fill="url(#color-9)" stroke="none" stroke-width="0" stroke-linecap="butt"/><path d="M286.03283,84.26671c0.63256,3.08886 0.21643,8.30207 -2.53423,8.86536c-2.75067,0.56329 -6.79425,-3.73663 -7.42681,-6.82549c-0.63256,-3.08886 1.08452,-6.04953 3.83518,-6.61283c2.75067,-0.56329 5.4933,1.48409 6.12586,4.57295z" fill="url(#color-10)" stroke="none" stroke-width="0" stroke-linecap="butt"/><path d="M311.04438,138.63113l-20.3841,-13.68112l1.70915,-12.8971l11.84512,2.07838l13.1115,-11.21063l20.17978,-0.5936l7.82896,-6.91164l4.71266,1.76953l-1.40935,20.557l-5.31463,9.45309l-11.56137,8.15857z" fill="#ffffff" stroke-opacity="0.7098" stroke="#000000" stroke-width="2.5" stroke-linecap="round"/><path d="M330.14928,102.69421l-3.95825,32.89396l-17.1819,-25.48331l0.22343,25.87471l-14.6668,-23.82323" fill="none" stroke-opacity="0.50196" stroke="#000000" stroke-width="2.5" stroke-linecap="round"/><path d="M344.53621,95.94148l-1.70918,29.71445l-12.11606,-21.98917" fill="none" stroke-opacity="0.50196" stroke="#000000" stroke-width="2.5" stroke-linecap="round"/></g></g></svg>