<svg version="1.1" xmlns="http://www.w3.org/2000/svg" xmlns:xlink="http://www.w3.org/1999/xlink" width="35.12499" height="35.12434" viewBox="0,0,35.12499,35.12434"><g transform="translate(-302.43754,-162.43783)"><g data-paper-data="{&quot;isPaintingLayer&quot;:true}" stroke="none" stroke-miterlimit="10" stroke-dasharray="" stroke-dashoffset="0" style="mix-blend-mode: normal"><path d="M337.56251,169.8317v20.49804c0,4.00745 -3.22497,7.23243 -7.23242,7.23243h-20.5c-3.66107,0 -6.66147,-2.69385 -7.1543,-6.21484c0.7952,3.03475 3.54108,5.26367 6.83204,5.26367h20.0332c3.9166,0 7.07032,-3.15372 7.07032,-7.07031v-20.03321c0,-3.2976 -2.23906,-6.0451 -5.28321,-6.83398c3.52994,0.48496 6.23438,3.49081 6.23438,7.15821z" fill-opacity="0.29839" fill="#000000" fill-rule="evenodd" stroke-width="4.54219" stroke-linecap="round" stroke-linejoin="round"/><path d="M309.50721,162.43783h20.03378c3.9166,0 7.06966,3.15307 7.06966,7.06966v20.03379c0,3.91659 -3.15307,7.06966 -7.06966,7.06966h-20.03378c-3.91659,0 -7.06967,-3.15307 -7.06967,-7.06966v-20.03379c0,-3.91659 3.15308,-7.06966 7.06967,-7.06966z" fill="#0b00ff" fill-rule="evenodd" stroke-width="4.43922" stroke-linecap="round" stroke-linejoin="round"/><path d="M326.59942,188.53191l-0.4821,1.05757c-1.19815,1.98835 -3.80157,5.61962 -6.46341,5.86281c-0.77182,0.07052 -2.3111,-1.2822 -2.72015,-1.72843c-1.5401,-1.68009 -3.38863,-4.35304 -4.29683,-6.40539c0,0 -0.03062,-0.06999 -0.04998,-0.17507c-1.2679,-0.80605 -2.37428,-1.79283 -3.22216,-2.91999c-4.19283,-5.64734 -2.23527,-14.80268 4.51173,-17.66626c1.9433,-0.82478 4.1285,-0.79313 6.18804,-0.84462c0,0 0.3467,-0.00867 0.57448,0.22154l0.27537,-0.03056c4.12041,-0.51051 9.93423,-0.06884 11.36928,4.69692c0.6236,2.07097 0.31187,4.57437 0.07534,6.67589c-0.62932,3.78185 -1.97306,8.23909 -5.40257,10.47371c-0.10661,0.06947 -0.21435,0.13674 -0.32313,0.20184c0.09854,0.2886 -0.03392,0.58002 -0.03392,0.58002zM318.04766,192.71926c0.43911,0.48963 0.89561,1.37034 1.53912,1.23453c2.13908,-0.45143 4.18266,-3.37194 5.20326,-5.06312l0.03868,-0.08535c-3.15255,1.13975 -6.84217,0.82661 -9.99797,-0.49374c0.91595,1.5702 2.16247,3.23191 3.21692,4.40768zM319.58022,167.22282c-1.71276,0.0303 -3.52129,0.03758 -5.11766,0.71512c-5.81543,2.4682 -7.57761,10.5359 -3.89776,15.38547c3.20844,4.29162 10.75112,6.29441 15.60832,3.14744c3.0234,-1.95885 4.15236,-6.10423 4.7003,-9.40168c0.21325,-1.88636 0.52807,-4.18009 -0.02753,-6.04131c-1.18311,-3.96335 -6.44193,-4.05277 -9.7557,-3.63468l-0.83154,0.09232c0,0 -0.43637,0.04843 -0.67842,-0.26269z" fill="#000000" fill-rule="nonzero" stroke-width="0.5" stroke-linecap="butt" stroke-linejoin="miter"/></g></g></svg>