<svg version="1.1" xmlns="http://www.w3.org/2000/svg" xmlns:xlink="http://www.w3.org/1999/xlink" width="191.18277" height="310.69705" viewBox="0,0,191.18277,310.69705"><defs><linearGradient x1="314.51661" y1="183.53818" x2="330.24889" y2="361.68941" gradientUnits="userSpaceOnUse" id="color-1"><stop offset="0" stop-color="#060606"/><stop offset="1" stop-color="#212121"/></linearGradient><linearGradient x1="278.67734" y1="177.96569" x2="295.1311" y2="364.28684" gradientUnits="userSpaceOnUse" id="color-2"><stop offset="0" stop-color="#2e65d1"/><stop offset="1" stop-color="#002994"/></linearGradient><linearGradient x1="347.90356" y1="172.80513" x2="364.35734" y2="359.12633" gradientUnits="userSpaceOnUse" id="color-3"><stop offset="0" stop-color="#2d63d1"/><stop offset="1" stop-color="#002994"/></linearGradient><linearGradient x1="314.79684" y1="183.06523" x2="316.77654" y2="205.4832" gradientUnits="userSpaceOnUse" id="color-4"><stop offset="0" stop-color="#222222"/><stop offset="1" stop-color="#bebebe"/></linearGradient><linearGradient x1="266.99607" y1="97.52941" x2="315.53791" y2="192.25129" gradientUnits="userSpaceOnUse" id="color-5"><stop offset="0" stop-color="#1e1e1e"/><stop offset="1" stop-color="#bebebe"/></linearGradient><radialGradient cx="266.52153" cy="110.14486" r="82.17255" gradientUnits="userSpaceOnUse" id="color-6"><stop offset="0" stop-color="#717171"/><stop offset="1" stop-color="#4b4b4b"/></radialGradient><linearGradient x1="276.42893" y1="53.95733" x2="284.50812" y2="71.93354" gradientUnits="userSpaceOnUse" id="color-7"><stop offset="0" stop-color="#000000" stop-opacity="0.19216"/><stop offset="1" stop-color="#a9a9a9" stop-opacity="0.21961"/></linearGradient><linearGradient x1="280.00903" y1="60.20706" x2="286.07961" y2="73.71414" gradientUnits="userSpaceOnUse" id="color-8"><stop offset="0" stop-color="#000000" stop-opacity="0.19216"/><stop offset="1" stop-color="#a9a9a9" stop-opacity="0.21961"/></linearGradient><linearGradient x1="229.63988" y1="92.82921" x2="240.67597" y2="129.10675" gradientUnits="userSpaceOnUse" id="color-9"><stop offset="0" stop-color="#000000" stop-opacity="0.19216"/><stop offset="1" stop-color="#a9a9a9" stop-opacity="0.21961"/></linearGradient><linearGradient x1="270.76146" y1="82.30635" x2="279.44676" y2="110.85641" gradientUnits="userSpaceOnUse" id="color-10"><stop offset="0" stop-color="#000000" stop-opacity="0.19216"/><stop offset="1" stop-color="#a9a9a9" stop-opacity="0.21961"/></linearGradient><linearGradient x1="249.44118" y1="69.18642" x2="270.02467" y2="107.49925" gradientUnits="userSpaceOnUse" id="color-11"><stop offset="0" stop-color="#696969"/><stop offset="1" stop-color="#212121"/></linearGradient></defs><g transform="translate(-192.43373,-56.36212)"><g stroke-miterlimit="10"><path d="M286.658,361.8861l-14.90292,-146.53288c0,0 3.79915,-26.13372 12.73515,-27.32965c8.87418,-1.18765 29.9435,-3.60705 48.31648,-6.06597c19.92765,-2.66698 28.36195,13.82159 28.36195,13.82159l13.82474,161.95892z" fill="url(#color-1)" stroke="#000000" stroke-width="0" stroke-linecap="butt" stroke-linejoin="miter"/><path d="M273.68849,362.36011l-14.64246,-141.01229c0,0 1.03231,-17.35109 5.37145,-18.15973c4.30914,-0.80305 23.72973,-18.52069 32.6513,-20.18332c9.67651,-1.80331 -6.9953,19.80123 -6.9953,19.80123c0,0 3.7285,30.35566 7.59989,59.11518c2.0981,15.58619 4.23815,30.70356 5.84944,40.26622c4.36641,25.91379 13.43498,60.17197 13.43498,60.17197c0,0 -25.10519,4.69967 -32.79364,4.6998c-6.55214,0.00011 -10.47567,-4.69905 -10.47567,-4.69905z" fill="url(#color-2)" stroke="#000000" stroke-width="0" stroke-linecap="butt" stroke-linejoin="miter"/><path d="M344.22692,364.06705c0,0 2.45844,-36.1451 2.05563,-62.70772c-0.42294,-27.8888 -4.53581,-100.8405 -4.53581,-100.8405c0,0 -18.76721,-15.80332 -9.68291,-17.07107c8.37558,-1.16884 29.93163,5.2785 33.97703,4.71393c4.07361,-0.56849 10.60326,18.91427 10.60326,18.91427l6.8459,143.48164c0,0 1.31823,6.03841 -4.55671,8.05981c-7.0109,2.41228 -34.70637,5.44963 -34.70637,5.44963z" fill="url(#color-3)" stroke="#000000" stroke-width="0" stroke-linecap="butt" stroke-linejoin="miter"/><path d="M328.89257,193.11688c0.54668,6.19056 -4.87786,11.72715 -12.11602,12.36634c-7.2382,0.63919 -13.54905,-3.86107 -14.09572,-10.05161c-0.54668,-6.19056 4.87786,-11.72715 12.11602,-12.36634c7.2382,-0.63919 13.54905,3.86107 14.09572,10.05161z" fill="url(#color-4)" stroke="#000000" stroke-width="0" stroke-linecap="butt" stroke-linejoin="miter"/><path d="M334.86681,244.06044l-26.92337,2.11177" fill="none" stroke="#ffffff" stroke-width="2.5" stroke-linecap="round" stroke-linejoin="miter"/><path d="M319.93447,234.48197l2.21248,25.054" fill="none" stroke="#ffffff" stroke-width="2.5" stroke-linecap="round" stroke-linejoin="miter"/><path d="M329.9095,233.06954l-8.41529,10.04553" fill="none" stroke="#ffffff" stroke-width="2.5" stroke-linecap="round" stroke-linejoin="miter"/><path d="M329.76353,252.48458l-9.68866,-7.38368l-9.8284,-8.96604" fill="none" stroke="#ffffff" stroke-width="2.5" stroke-linecap="round" stroke-linejoin="miter"/><path d="M313.02478,255.55745l8.10499,-10.54971" fill="none" stroke="#ffffff" stroke-width="2.5" stroke-linecap="round" stroke-linejoin="miter"/><path d="M345.17286,243.38654l0.72821,-12.82188l14.88512,0.01443l0.95487,10.81278" fill="none" stroke-opacity="0.46667" stroke="#000000" stroke-width="2.5" stroke-linecap="round" stroke-linejoin="miter"/><path d="M359.72388,360.00616l-4.87553,-112.39463" fill="none" stroke-opacity="0.46667" stroke="#000000" stroke-width="2.5" stroke-linecap="round" stroke-linejoin="miter"/><path d="M284.76296,251.54187l16.20409,111.261" fill="none" stroke-opacity="0.46667" stroke="#000000" stroke-width="2.5" stroke-linecap="round" stroke-linejoin="miter"/><path d="M280.25632,251.67406l-1.62959,-9.42427l11.62723,-0.76101l2.29678,10.96006" fill="none" stroke-opacity="0.46667" stroke="#000000" stroke-width="2.5" stroke-linecap="round" stroke-linejoin="miter"/><path d="M340.91746,121.94589c11.2651,26.23814 -0.71579,59.84083 -28.5146,71.776c-27.79881,11.93519 -60.8887,-2.31678 -72.1538,-28.55491c-11.26509,-26.23813 2.1381,-57.18374 29.93693,-69.11889c27.79881,-11.93519 59.46638,-0.34034 70.73149,25.89781z" fill="url(#color-5)" stroke="#000000" stroke-width="0" stroke-linecap="butt" stroke-linejoin="miter"/><path d="M299.23493,141.11619c13.12832,25.61786 15.85433,50.65848 15.85433,50.65848c0,0 -18.36149,-17.02796 -31.48981,-42.64581c-3.93353,-7.67567 -16.2721,-18.82961 -18.98364,-25.49134c-6.33835,-15.57205 0.00649,-23.35056 3.03047,-24.90023c2.85161,-1.46136 13.76766,-0.00463 22.068,12.82768c4.2672,6.59708 5.06305,20.85291 9.52067,29.55122z" fill-opacity="0.23529" fill="#000000" stroke="none" stroke-width="0" stroke-linecap="butt" stroke-linejoin="round"/><path d="M299.66334,123.81563c1.4569,2.28369 -2.97037,7.71287 -9.88865,12.12644c-6.91824,4.41356 -13.70765,6.14016 -15.16455,3.85644c-1.4569,-2.28369 2.9704,-7.71287 9.88865,-12.12643c6.91824,-4.41356 13.70765,-6.14014 15.16455,-3.85644z" fill-opacity="0.23137" fill="#000000" stroke="none" stroke-width="0" stroke-linecap="butt" stroke-linejoin="miter"/><path d="M268.16179,144.40577c1.06117,1.96687 0.17134,4.50548 -1.98741,5.67017c-2.15876,1.16468 -4.76902,0.51435 -5.83015,-1.45252c-1.06117,-1.96688 -0.17134,-4.50548 1.98741,-5.67017c2.15876,-1.16468 4.76899,-0.51436 5.83016,1.45253z" fill="#ffffff" stroke="#000000" stroke-width="2.5" stroke-linecap="butt" stroke-linejoin="miter"/><path d="M310.73921,115.13403c1.06118,1.96689 0.17135,4.50549 -1.98741,5.67018c-2.15876,1.16468 -4.76901,0.51434 -5.83016,-1.45253c-1.06117,-1.96687 -0.17135,-4.50548 1.98741,-5.67016c2.15876,-1.16468 4.76901,-0.51435 5.83016,1.45251z" fill="#ffffff" stroke="#000000" stroke-width="2.5" stroke-linecap="butt" stroke-linejoin="miter"/><path d="M260.93389,142.67992l2.243,-2.80588l2.69483,-1.56506" fill="none" stroke="#000000" stroke-width="2.5" stroke-linecap="round" stroke-linejoin="miter"/><path d="M268.02149,148.25007l2.68755,-2.29752" fill="none" stroke="#000000" stroke-width="2.5" stroke-linecap="round" stroke-linejoin="miter"/><path d="M271.57273,144.40567l0.40096,-3.8864" fill="none" stroke="#000000" stroke-width="2.5" stroke-linecap="round" stroke-linejoin="miter"/><path d="M308.13435,123.09238l-3.89004,-0.76718l-6.47544,-2.93911" fill="none" stroke="#000000" stroke-width="2.5" stroke-linecap="round" stroke-linejoin="miter"/><path d="M263.99777,99.6476c21.92467,-11.23567 42.40017,-15.07131 45.73334,-8.56714c3.33317,6.50417 -11.73819,20.88515 -33.66285,32.12082c-21.92467,11.23567 -42.40018,15.07131 -45.73335,8.56714c-3.33317,-6.50417 11.73821,-20.88514 33.66286,-32.12082z" fill="#000000" stroke="none" stroke-width="0" stroke-linecap="butt" stroke-linejoin="miter"/><path d="M273.49703,109.58706l1.15018,-0.30151c1.40014,-0.42774 2.71998,-0.98934 4.09311,-1.47308c0.60093,-0.44365 1.20963,-0.87854 1.82948,-1.30072c0.96926,-0.80499 1.97039,-1.64532 3.00352,-2.46758c-1.70652,-2.21583 -3.35796,-4.50137 -5.53148,-6.3581c-0.31792,0.10573 -0.67588,0.19063 -1.07588,0.25339c-0.57292,0.08989 -1.18734,0.11933 -1.82521,0.09451c7.95692,-1.17953 15.9257,-5.70305 22.91845,-10.32179c0.07435,0.42138 0.14625,0.83948 0.21879,1.25126c0.58845,0.46851 1.1973,0.9126 1.78947,1.37698v-0.00001c-0.22977,-0.59781 -0.42575,-1.23305 -0.59096,-1.76046c-0.46657,-0.29081 -0.93174,-0.58526 -1.39627,-0.88166c2.64164,-1.74537 5.14378,-3.50388 7.4531,-5.10022c1.86588,-1.28981 4.06273,-2.44026 6.24061,-3.67039c0.07869,0.19224 0.15445,0.38506 0.22701,0.57847c0.27969,0.4706 0.55941,0.94125 0.83926,1.41189l-0.07586,0.13572l0.1158,-0.04648l0.80413,2.00371c0.20221,0.50388 0.05308,1.06165 -0.33151,1.40195c0.24993,0.60682 0.49856,1.21495 0.74634,1.82428c0.40983,0.80793 0.80789,1.62035 1.1916,2.43759c0.14434,0.25932 0.2874,0.51927 0.4292,0.77975c0.79945,1.22442 1.58054,2.44194 2.35406,3.62293c0.32862,0.71731 0.6785,1.42074 1.03524,2.11907c0.08904,0.03065 0.17891,0.06055 0.26966,0.08959c1.13426,0.36316 2.06895,0.21339 3.06354,1.11151c1.65169,1.49148 2.67764,4.15509 3.73639,6.39048c0.21295,0.09142 0.40109,0.24193 0.5375,0.44126l0.78589,1.10133l-0.20389,0.14549l0.08036,0.1788c0.06899,0.15441 0.13678,0.30951 0.20341,0.46527c1.10763,1.33452 2.03131,2.94908 2.84525,4.67116c0.0709,-0.39176 0.32733,-0.74307 0.7179,-0.9186c0.62968,-0.28301 1.36956,-0.00196 1.65256,0.62772l0.74414,1.65571l-0.31077,0.13967c1.5623,2.39886 2.57167,5.26931 2.79803,8.15764c0.0546,0.0824 0.10929,0.16475 0.16409,0.24705l-0.13518,0.20337c0.01215,0.24334 0.01867,0.48665 0.01942,0.72964h-0.00002c2.05224,3.45159 3.94595,7.01227 5.94263,10.65207c0.29057,0.5297 0.65825,1.1203 1.03325,1.74598c-0.36686,-2.50825 -0.75816,-5.02627 -1.43223,-7.413c-1.34946,-4.77825 -4.30064,-9.33876 -7.00417,-13.39353c0,0 -0.69289,-1.04039 0.34749,-1.73328c1.04039,-0.69289 1.73328,0.34749 1.73328,0.34749c2.82524,4.24728 5.86973,9.01427 7.30189,14.00941c1.15171,4.01696 1.52501,8.39983 2.2532,12.51388l-0.01271,0.07113l0.01914,-0.00122l0.15708,2.46582c0.04492,0.515 -0.23503,1.02484 -0.7332,1.24873c-0.57356,0.25778 -1.23853,0.04759 -1.5664,-0.4678l-1.12756,-1.70602l0.31831,-0.21038c-2.87335,-3.72059 -4.54919,-8.54746 -6.77042,-12.69838c1.41348,4.06828 2.83795,8.11611 3.25992,12.28189l0.2768,-0.07974l0.58712,2.03802c0.18123,0.59333 -0.10296,1.24285 -0.68365,1.50384c-0.62968,0.28301 -1.36956,0.00196 -1.65256,-0.62772l-0.62012,-1.37977c-1.33858,-2.97834 -2.5048,-5.99584 -3.67469,-9.01765c-0.09436,0.08519 -0.20344,0.15732 -0.32563,0.21224c-0.16867,0.0758 -0.34524,0.11115 -0.51883,0.11015c0.6886,1.71341 1.40256,3.41618 2.16013,5.10095c1.97326,4.38832 4.84001,9.07506 5.92627,13.85143l0.06796,0.10204l0.23043,-0.10356l0.66381,1.47697c0.28301,0.62968 0.00196,1.36956 -0.62772,1.65256c-0.57228,0.2572 -1.23557,0.04852 -1.5642,-0.46435l-0.89025,-1.33674c-2.8991,-4.06812 -6.01016,-7.98972 -8.76705,-12.16837c0.9613,3.16416 1.96236,6.32582 2.99335,9.50491c0.45048,0.98771 0.87485,1.98027 1.24184,2.98882c0.33099,0.73573 0.66185,1.4715 0.99256,2.20734l0.88508,1.9693c0.28301,0.62968 0.00196,1.36956 -0.62772,1.65256c-0.62968,0.28301 -1.36956,0.00196 -1.65256,-0.62772l-0.88508,-1.9693c-0.1121,-0.24943 -0.22419,-0.49887 -0.33627,-0.74832c-1.51704,-1.78179 -2.40093,-5.34196 -3.20404,-7.12887c-2.77047,-6.16432 -5.54095,-12.32863 -8.31142,-18.49296c-0.18965,-0.09829 -0.35528,-0.24551 -0.47586,-0.4337l-0.89858,-1.34924l0.03633,-0.0242l-0.08993,-0.06397c-0.16502,-0.36508 -0.33443,-0.72694 -0.50655,-1.08638c-0.52313,-0.62786 -0.88437,-1.53918 -1.26114,-2.38089c0.47924,1.15175 1.00656,2.28449 1.52457,3.42479c0.01046,0.02019 0.01564,0.03169 0.01564,0.03169l-0.00093,0.00068c0.07433,0.1637 0.14845,0.32755 0.2222,0.49164l-1.25078,0.26626l-1.0295,0.75858c-0.07359,-0.16376 -0.1473,-0.32788 -0.22104,-0.49237l-0.00023,0.00004c0,0 -0.0017,-0.00378 -0.00469,-0.01104c-0.9564,-2.13358 -1.91928,-4.3292 -2.7413,-6.56865c-0.5132,0.46553 -1.18113,0.93605 -1.62702,0.73956c0.09257,0.23033 0.16875,0.45902 0.18905,0.60771c0.11276,0.82572 0.34562,1.63093 0.48728,2.45218c0.46218,2.67967 0.93615,4.7881 0.75084,7.17281l0.2777,-0.00276l0.01528,1.54053c0.01444,0.46767 -0.23549,0.92434 -0.67959,1.15192c-0.37333,0.19131 -0.79794,0.17673 -1.14431,-0.002c0.14614,0.66571 0.23672,1.29519 0.27004,1.964l0.23921,-0.03659l0.24712,1.61517c0.04136,0.23361 0.01431,0.47139 -0.07236,0.68603c2.18854,2.92071 4.20109,5.91317 4.94316,9.41261l0.05192,0.08043l0.29045,-0.11029l12.08457,21.29136c0.23351,0.59116 -11.5422,-18.54727 -12.11963,-18.25136c-0.5812,0.29784 13.10653,23.37591 12.76548,22.83318l-15.30391,-24.68998c-3.14211,-3.57727 -6.02381,-7.1973 -9.15907,-10.52058c2.05892,3.69965 3.67749,7.53508 5.02886,11.48103c0.31256,0.5858 0.62807,1.16928 0.9475,1.74969c1.94493,3.53408 4.63848,7.15112 6.37837,10.93487c0.29243,0.46103 0.58481,0.92176 0.87704,1.38221l0.03217,-0.02142l0.89691,1.34674c0.0429,0.06201 0.08078,0.1288 0.11281,0.20007c0.16531,0.3678 0.13816,0.7732 -0.03848,1.10319c0.53417,1.05883 0.999,2.1348 1.34788,3.2321c0.03319,0.05039 0.0664,0.10077 0.0996,0.15116l-0.01057,0.02024l0.01675,-0.0106l0.2413,0.38124l0.19943,-0.08963l0.66381,1.47697c0.28301,0.62968 0.00196,1.36956 -0.62772,1.65256c-0.58069,0.26099 -1.25508,0.04228 -1.57847,-0.48716l-1.00619,-1.58973c-1.25014,-1.89781 -2.49454,-3.79915 -3.75679,-5.68729c1.07624,2.57219 2.02373,5.20842 2.74748,7.96019l-0.00227,0.0212l0.00693,-0.00159l0.30185,1.31887c0.1438,0.57591 -0.14047,1.18971 -0.7009,1.44159c-0.48939,0.21996 -1.04536,0.09919 -1.40166,-0.26116l-1.02455,-0.98932l0.02494,-0.02582c-0.06162,-0.04892 -0.12147,-0.10035 -0.17931,-0.15459c-0.55576,-0.52128 -1.41225,-3.54412 -1.59282,-4.17925c-0.64688,-2.27523 -1.18479,-4.58727 -1.68543,-6.90375c-1.70239,-3.71226 -3.61599,-7.32221 -5.41252,-11.00681c-3.4752,-5.25485 -7.03244,-10.44373 -10.36639,-15.82337c-1.31516,-2.12214 -4.11629,-5.68161 -4.28527,-8.1745c-0.02282,-0.33665 -0.02992,-0.64887 -0.01982,-0.93664c-1.32424,-0.76777 -2.64242,-1.53519 -3.89695,-2.41659c-0.01738,-0.01222 -1.82234,-1.23396 -1.94168,-1.2298c-0.61222,0.02128 -0.33767,1.18053 -0.57226,1.74641c-0.21285,0.51343 -0.42858,1.17882 -0.69969,1.84587c-0.50208,1.2353 -1.19406,2.47634 -2.40927,2.76867c-0.47512,0.11429 -3.24558,-1.47472 -3.61298,-1.70825c-0.5182,-0.3294 -1.19346,-1.3079 -1.62379,-0.86987c-0.54497,0.55471 -0.72933,2.79854 -0.98491,3.49086c-0.69628,1.88599 -1.45155,2.93547 -2.97636,4.21956c-1.55185,1.45009 -2.59165,2.76153 -4.95329,2.17014c-0.64004,-0.16027 -1.24225,-1.65323 -1.63167,-1.12061c-0.39248,0.53681 -0.59,1.68385 -0.8418,2.90793c0.04999,0.11123 0.09999,0.22247 0.14998,0.3337l0.55317,1.23082c0.28301,0.62968 0.00196,1.36956 -0.62772,1.65256c-0.37097,0.16673 -0.7802,0.13768 -1.11171,-0.04309c-0.3417,0.54954 -0.78734,0.94723 -1.39181,1.07561c-0.7808,0.16582 -1.49473,-0.57433 -2.19456,-0.95826c-1.83291,-1.00561 -3.83041,-2.73564 -5.35762,-4.48724c0.46271,2.43625 0.7018,4.93759 0.5252,7.32689l0.48082,0.02624l-0.13135,2.40769c-0.01597,0.4377 -0.26187,0.85409 -0.67936,1.06802c-0.17784,0.09114 -0.36733,0.13555 -0.55447,0.13774c3.6804,9.17222 12.29016,16.58167 13.60121,26.57598l0.22279,-0.08114l0.47783,1.31222c0.22374,0.5878 -0.0261,1.26223 -0.59878,1.5557c-0.52941,0.27131 -1.16194,0.12852 -1.52824,-0.30926l-0.89916,-1.02817c-4.01149,-3.65726 -6.71895,-8.75712 -10.19414,-12.94858c-4.27732,-4.60043 -5.83565,-11.89247 -8.0793,-17.61678c-0.71053,-1.8128 -1.53426,-3.44429 -2.60022,-5.07518c-0.31968,-0.48911 -0.634,-0.98169 -0.95065,-1.47277c-0.07478,-0.11596 -0.1844,-0.26665 -0.29933,-0.42887c-0.07476,0.40425 -0.19702,0.83015 -0.26698,1.12252c-0.40072,0.74705 -0.40959,1.94032 -1.20215,2.24117c-1.63715,0.62144 -3.4557,-1.81531 -4.50269,-3.9274c0.23821,2.69845 0.94534,5.25716 2.09387,7.713c0.0882,0.15723 0.16957,0.31562 0.22956,0.47763c0.05892,0.11935 0.11887,0.23848 0.17991,0.35734l0.00025,0.04598c0.00275,0.00586 0.0055,0.01172 0.00824,0.01758l0.0157,-0.00617l0.09433,0.24042c1.1221,2.38548 2.28498,4.75464 3.4094,7.12991c0.33834,0.59507 0.65702,1.19833 0.95107,1.81011c1.44979,0.94938 2.86496,2.4617 3.82514,3.44537c3.30755,3.38844 7.4028,8.24155 9.82394,13.22439c0.49154,0.49774 0.97916,0.99933 1.46254,1.50503c2.75306,2.88022 5.74957,5.31719 7.3166,8.71318l0.43774,-0.19673l0.77444,1.72314c0.28301,0.62968 0.00196,1.36956 -0.62772,1.65256c-0.37776,0.16978 -0.79518,0.13655 -1.12982,-0.05316l-1.16829,-0.64571c-5.30853,-2.9352 -10.14231,-6.52191 -14.69218,-10.46803c3.7667,7.20677 7.78162,14.56788 13.01928,20.43355l0.02439,0.08967l0.02705,-0.01802l0.89691,1.34674c0.0429,0.06201 0.08078,0.1288 0.11281,0.20007c0.28301,0.62968 0.00196,1.36956 -0.62772,1.65256c-0.40203,0.18068 -0.84898,0.13145 -1.19326,-0.09165l-1.63203,-1.02412l0.01616,-0.02575c-0.05775,-0.02839 -0.11494,-0.05815 -0.17151,-0.0894c-0.66476,-0.36722 -1.90591,-2.41121 -2.38604,-3.10229c-1.43757,-2.06915 -2.88258,-4.10998 -4.24479,-6.23094c-5.23183,-8.14598 -10.62152,-16.31601 -16.215,-24.18223l0.29675,0.57908c0.31485,0.61437 0.07204,1.36766 -0.54235,1.68251c-0.61438,0.31485 -1.36767,0.07203 -1.68251,-0.54235l-0.71944,-1.40387c-1.18292,-2.30829 -2.36682,-4.61606 -3.54706,-6.92572c-2.14032,-5.61681 -4.4121,-12.31588 -2.49399,-18.34766c0.88064,-2.76928 2.40318,-5.35284 3.98798,-7.78464c0,0 0.31959,-0.48987 0.85666,-0.58079c0.20009,-0.29775 0.40714,-0.59653 0.62128,-0.89679c0.03535,-0.59193 0.5617,-0.92623 0.67969,-0.99396l0.38664,-0.59261c0.11559,-0.18455 0.28093,-0.34126 0.48881,-0.44778c0.25327,-0.1298 0.53018,-0.16482 0.79023,-0.11809c2.52615,-2.05606 5.04365,-3.91378 8.15142,-5.04536c6.03756,-2.29272 12.28604,-4.04396 17.93705,-7.2313c0.89657,-0.50569 1.76366,-1.04691 2.60981,-1.61358c0.71979,-1.27918 1.52597,-2.51747 2.40599,-3.73331l0.95441,-1.31101c0.12489,-0.17839 0.29802,-0.32645 0.51107,-0.42221c0.12579,-0.05654 0.25599,-0.09056 0.38607,-0.10379c0.25945,-0.22221 0.55212,-0.29921 0.55212,-0.29921zM243.43175,163.32559c-0.6682,-0.65811 -1.53626,-1.17081 -1.88862,-2.02495c-0.03688,-0.08941 -0.06841,-0.18015 -0.09536,-0.272l-0.05287,0.02377l-0.55317,-1.23082c-0.28301,-0.62968 -0.00196,-1.36956 0.62772,-1.65256c0.21036,-0.09455 0.43303,-0.12614 0.64684,-0.10281c-0.0019,-0.48312 0.1003,-0.92194 0.44246,-1.2183c0.00486,-0.00422 0.00976,-0.00838 0.01467,-0.0125c-1.5751,-2.01332 -3.87788,-4.32586 -4.46907,-6.39741c-0.01739,-0.06091 -0.03327,-0.12207 -0.04778,-0.18346l-0.02163,0.00664l-0.63405,-2.06408c-0.19337,-0.59846 0.09065,-1.25924 0.6776,-1.52304c0.24426,-0.10979 0.50511,-0.13468 0.74944,-0.08729c-0.75209,-1.56612 -1.32592,-3.25748 -1.69998,-4.95413l-0.21155,0.6563l-0.19763,-0.06371c-0.64597,7.12925 2.13328,13.89357 3.35697,20.74293c0.12287,-0.25871 0.33478,-0.47675 0.61648,-0.60335c0.52983,-0.23813 1.13769,-0.07691 1.48574,0.35534l1.24895,1.48075l-0.14243,0.12013c0.34685,0.26498 0.6887,0.53648 1.02626,0.81354c-0.3124,-0.6027 -0.61129,-1.20848 -0.879,-1.80899zM293.96753,95.88544c-0.43258,0.12956 -0.89005,0.01243 -1.20693,-0.2807l-0.60793,-0.53914c-0.27077,0.56375 -0.64155,1.07216 -1.19006,1.47643c-0.74423,0.5485 -1.57828,0.80583 -2.45877,0.85301c0.12535,0.52697 0.23951,1.05056 0.34182,1.56679l0.18541,-0.07441l0.47452,1.18241c0.45154,-0.22841 0.90804,-0.43909 1.36953,-0.62883c1.46414,-0.60197 2.99779,-1.02229 4.53446,-1.43147c-0.51008,-0.70616 -1.00022,-1.4704 -1.44204,-2.1241zM294.80452,92.85356c1.83598,1.18086 3.64857,2.40215 5.44705,3.67954c0.2112,-0.08335 0.42101,-0.17021 0.6292,-0.26113c0.02644,-0.28766 0.06668,-0.58355 0.09368,-0.8835c-0.89975,-0.74592 -1.71898,-1.46951 -2.22067,-1.84816c-0.22761,-0.17179 -0.45478,-0.34364 -0.68156,-0.51556c-1.18754,0.71931 -2.5448,-0.12682 -3.7542,-1.38952c0.0656,0.26058 0.14059,0.51425 0.23054,0.75637l-0.0145,0.14127l0.04088,-0.00562l0.00933,0.06785c0.07353,0.08613 0.14694,0.17228 0.22024,0.25845zM316.06211,112.80888c0.45515,-0.20456 0.96787,-0.11442 1.324,0.18906l0.93273,0.76162c-0.19059,-0.57425 -0.35399,-1.14876 -0.4863,-1.72249c-0.0697,-0.11158 -0.13939,-0.22317 -0.20908,-0.33481l-0.1451,0.06521l-0.2909,-0.64725c-0.54634,-0.41705 -1.08997,-0.82696 -1.63101,-1.22478c-0.3395,-0.24964 -0.7257,-0.50595 -1.1141,-0.77762c0.51751,1.20583 1.07717,2.47642 1.50819,3.74795c0.03584,-0.0206 0.07306,-0.03961 0.11157,-0.05692zM257.92784,177.61136c-0.98695,-1.18717 -1.96382,-2.37955 -2.92876,-3.57961c-0.52266,0.0545 -0.95484,-0.29841 -0.95484,-0.29841l-0.74892,-0.63757c-0.57942,-0.32113 -1.13922,-0.67538 -1.68099,-1.05755c0.52511,0.514 1.05351,1.02347 1.58861,1.52399c1.49805,1.40128 3.08107,2.75464 4.7249,4.04916zM324.64152,117.79186c0.0523,0.08259 0.10463,0.1652 0.157,0.2478c0.63785,1.00591 1.28143,1.96145 1.90607,2.89547c-0.53716,-1.33367 -1.08217,-2.66444 -1.63965,-3.99063c-0.26476,-0.17263 -0.52882,-0.34869 -0.79218,-0.52768c0.12796,0.45639 0.25165,0.91445 0.36875,1.37503zM329.98486,121.58434c-0.11533,-0.39994 -0.22829,-0.80213 -0.33959,-1.20612c-0.18509,-0.39935 -0.36896,-0.7983 -0.55023,-1.19759c-0.17733,0.01244 -0.35417,-0.0134 -0.51866,-0.0737c0.65308,1.68144 1.28996,3.36898 1.9276,5.05578c-0.16927,-0.93548 -0.30847,-1.84781 -0.51912,-2.57837zM304.62774,93.74177c-0.38998,-0.47004 -0.77856,-0.94111 -1.16573,-1.41327c0.04308,0.49745 0.07236,0.99325 0.08726,1.4863c0.26364,0.18886 0.52666,0.37893 0.78879,0.5708c0.04263,0.0312 0.08458,0.06321 0.126,0.09591c0.12187,-0.06504 0.2437,-0.13013 0.36551,-0.19517c-0.07229,-0.18054 -0.13974,-0.36439 -0.20184,-0.5446zM298.43879,133.81875c-0.42589,-1.04344 -0.84335,-2.09681 -1.256,-3.1613c-0.22685,-0.13578 -0.45598,-0.26964 -0.68751,-0.40154c0.20342,0.39619 0.38988,0.70481 0.42044,0.76444c0.48919,0.95483 0.99632,1.88201 1.52306,2.7984zM286.87754,101.30175l0.01084,-0.01034l-0.03579,-0.01659c-0.45719,-0.54097 -0.93519,-1.0408 -1.43232,-1.50495c0.46094,0.60956 0.90203,1.25246 1.3248,1.93099c0.10464,-0.07001 0.20961,-0.13937 0.31484,-0.20806zM264.40914,182.2196c-0.32899,-0.41546 -0.64897,-0.8327 -0.95829,-1.23166c-0.0422,0.16611 -0.1182,0.32286 -0.22389,0.45937c0.39235,0.26102 0.78651,0.5185 1.18217,0.77228zM236.62526,137.62822c-0.15897,0.30608 -0.30881,0.61477 -0.4472,0.92555c0.16556,-0.03149 0.33351,-0.02848 0.49412,0.0059c-0.02327,-0.31318 -0.03895,-0.62392 -0.04692,-0.93147zM251.82229,166.07975c0.12971,0.11325 0.2593,0.22664 0.38875,0.34018c-0.40772,-0.51136 -0.82357,-1.01293 -1.24661,-1.50199c0.28352,0.3889 0.56954,0.77613 0.85785,1.1618zM312.38068,131.03034c-0.01267,-0.08727 -0.02359,-0.17482 -0.03337,-0.26176l-0.08951,0.21021c0.04123,0.01673 0.0822,0.0339 0.12287,0.05155zM254.89589,142.53306c-0.01029,-0.06463 -0.02037,-0.1294 -0.03022,-0.19427l-0.08048,0.04125c0.03725,0.05094 0.07414,0.10195 0.1107,0.15303zM240.44369,164.89472l0.12303,0.24007l-0.22773,-0.50671c0.00387,0.02826 0.00771,0.05653 0.01152,0.08479c0.03106,0.06062 0.06213,0.12121 0.0932,0.18185zM240.77424,165.47375l-0.02749,0.01235l0.03352,0.06542z" fill="#000000" stroke="none" stroke-width="0.5" stroke-linecap="butt" stroke-linejoin="miter"/><path d="M340.60927,74.44229c0,0 -5.40144,6.11454 -12.67436,13.9794c-3.20679,3.46779 -4.84339,7.6077 -9.82033,11.15119c-2.57109,1.83056 -1.86098,5.04334 -4.81408,6.94514c-2.90565,1.87123 -9.46861,2.43062 -12.72347,4.33807c-2.82051,1.65293 -9.49304,3.41576 -12.56141,5.07317c-4.14755,2.24032 -4.79068,4.37268 -9.36246,6.5758c-4.52062,2.17846 -6.97312,5.08571 -11.4615,7.0122c-2.72999,1.17175 -7.5226,1.44458 -10.20936,2.51846c-1.33889,0.53513 -4.50915,0.24824 -5.83288,0.75841c-3.97223,1.53092 -6.03141,3.75816 -9.8144,5.05647c-1.92552,0.66081 -4.50253,-1.14281 -6.84531,-0.4272c-2.39279,0.73087 -4.55455,3.98072 -6.81525,4.63157c-4.90831,1.41311 -8.82955,2.47427 -8.82955,2.47427c0,0 -14.83919,1.55103 -18.57282,1.73739c-4.79957,0.23957 -7.83836,-0.41912 -7.83836,-0.41912c0,0 7.08812,-6.3749 16.24925,-15.51359c2.04922,-2.04419 1.38504,-5.84231 3.21256,-8.27891c1.87295,-2.49719 6.25049,-3.63338 9.44967,-5.75363c3.05336,-2.02361 6.88371,-6.28242 11.65131,-9.01902c7.55059,-4.33406 15.9522,-6.97111 15.9522,-6.97111c0,0 4.11495,-2.06643 6.23599,-3.08855c2.53165,-1.22 7.03757,-2.19416 10.02387,-3.46301c9.58219,-4.07143 17.83977,-9.46144 25.90716,-12.54622c7.28327,-2.78494 14.87709,-3.474 14.87709,-3.474c0,0 1.98427,2.84099 3.51009,2.44328c1.34285,-0.35002 5.16633,-4.70476 5.16633,-4.70476c0,0 5.51608,-2.73376 7.1815,-0.28673c1.59963,2.35036 5.18837,2.58422 8.80313,2.0691c0.85454,-0.12177 0.21476,2.67085 1.04626,2.48342c3.98826,-0.89895 8.90909,-5.30147 8.90909,-5.30147z" fill="url(#color-6)" stroke="#000000" stroke-width="0" stroke-linecap="butt" stroke-linejoin="miter"/><path d="M319.88709,189.43629c1.06449,2.36849 -1.0466,0.99459 -4.59121,0.30495c-0.70682,-0.13752 -1.6647,-0.85001 -2.58296,-1.24327c-0.56651,-0.24261 -1.11794,-0.3637 -1.58604,-0.15331c-0.72537,0.32601 -0.11535,2.30062 -0.47558,3.00872c-0.36691,0.72124 -1.70145,0.17797 -2.16019,0.72115c-2.21529,2.623 -3.95846,4.47344 -4.95656,2.25268c-0.23311,-0.51867 -0.38465,-0.16042 -0.38965,-0.73189c-0.01261,-1.44184 -0.25204,-2.81384 0.96751,-4.4786c1.21608,-1.66002 3.88811,-3.61352 5.98447,-4.5557c2.63726,-1.18529 6.44018,-2.49834 8.11609,-1.26889c1.52178,1.11638 1.00419,4.65356 1.67411,6.14416z" fill="#060606" stroke="none" stroke-width="0" stroke-linecap="butt" stroke-linejoin="miter"/><path d="M309.35993,193.86176c-1.14015,0.51243 -1.65256,-0.62772 -1.65256,-0.62772l-0.25071,-0.55783c-0.52031,-1.15767 -1.03121,-2.3178 -1.53678,-3.47927c-0.43432,-0.03996 -0.83518,-0.30644 -1.02673,-0.73265l-0.58499,-1.3016c-0.17867,-0.39754 -0.36196,-0.7962 -0.54863,-1.19598c-0.31868,-0.39577 -0.49778,-0.9108 -0.7253,-1.52879c-1.20503,-2.5094 -2.48291,-5.06462 -3.54256,-7.67418c-0.72564,-1.51713 -1.44607,-3.03801 -2.13859,-4.57888l-0.75212,-1.67348c-0.28301,-0.62968 -0.00196,-1.36956 0.62772,-1.65256c0.0131,-0.00589 0.02624,-0.01153 0.03942,-0.01693c-0.0538,-0.42892 -0.09506,-0.8594 -0.12262,-1.29145c0,0 -0.07947,-1.24747 1.16799,-1.32694c1.24747,-0.07946 1.32694,1.168 1.32694,1.168c0.05002,0.7867 0.14971,1.56919 0.29103,2.34739c0.04692,0.02749 0.09307,0.05676 0.13837,0.08792c1.12242,0.77219 2.07598,4.43693 2.66606,5.74988c2.39935,5.33858 4.60014,10.73261 7.00106,16.07467l0.25071,0.55783c0,0 0.51243,1.14015 -0.62772,1.65256z" fill="#000000" stroke="none" stroke-width="0.5" stroke-linecap="butt" stroke-linejoin="miter"/><path d="M320.02461,187.49809l-1.17946,1.17722c-0.68646,-1.52737 -1.37291,-3.05475 -2.05938,-4.58212c-0.09773,-0.06239 -0.18734,-0.13869 -0.26549,-0.22767l-0.85378,-0.92733l0.34659,-0.31911c-2.25966,-2.31836 -3.01042,-5.67032 -4.14052,-8.96049l-0.81822,-1.82054c-0.28301,-0.62968 -0.00196,-1.36956 0.62772,-1.65256c0.59182,-0.26599 1.28096,-0.03373 1.59667,0.51794l0.12947,0.21943c0.67524,0.06457 0.98568,0.75529 0.98568,0.75529c0.81427,1.81176 1.56076,3.64721 2.31755,5.47728c1.40179,2.84683 2.51369,5.95429 3.66578,8.74944c0.37961,0.27753 0.50148,0.74077 0.50148,0.74077l-0.1345,0.13424c0.12606,0.2948 0.253,0.58524 0.38124,0.87058z" fill="#000000" stroke="none" stroke-width="0.5" stroke-linecap="butt" stroke-linejoin="miter"/><path d="M267.11903,146.61498c0.72607,1.01751 -0.29144,1.74358 -0.29144,1.74358l-0.33932,-0.20764c-0.08872,0.53075 -0.19877,1.07378 -0.31248,1.62377c0.55472,-0.10464 1.1293,0.17882 1.3709,0.71639c0.03807,0.0847 0.06593,0.17141 0.08411,0.25871l0.45805,2.00141l-0.22405,0.05127c0.39226,0.99392 0.69532,1.99595 1.06571,3.28011l0.47534,1.54745c0.19337,0.59846 -0.09066,1.25924 -0.67761,1.52304c-0.02395,0.01076 -0.04803,0.0207 -0.07226,0.02984c0.36311,0.91781 0.70136,1.85431 1.04665,2.77939c1.29163,1.74747 2.56174,3.52323 3.44112,5.45795c1.33758,2.9761 2.8688,5.9438 3.63343,9.13646c0.05185,0.2165 0.09273,0.43168 0.12618,0.64578c1.19126,2.39857 2.35922,4.81084 3.44385,7.26292c0.119,0.64741 0.2471,1.31694 0.40777,1.98315c0.78156,1.01213 1.58414,2.01782 2.31552,3.10161c0.42943,0.63636 1.16604,1.64041 1.90456,2.75527c0.56844,0.3518 1.11803,0.71859 1.57453,1.19663c0.75912,0.79495 1.37902,2.34225 1.8413,3.37511l0.72371,1.14344c0.03581,0.05463 0.06779,0.11278 0.09543,0.17426c0.28301,0.62968 0.00196,1.36956 -0.62772,1.65256c-0.45515,0.20457 -0.96787,0.11442 -1.324,-0.18906l-1.39136,-1.13613l0.01254,-0.01537c-0.02649,-0.01416 -0.05289,-0.02854 -0.07919,-0.04311c-1.37068,-0.75987 -2.35013,-2.63591 -3.21249,-4.44055c-0.89336,-0.73625 -1.78374,-1.52729 -2.5289,-2.67108c-0.74768,-1.14767 -1.24569,-2.47398 -1.60287,-3.82419c-1.2779,-1.68049 -2.48541,-3.39127 -3.25989,-5.47011c-0.52006,-1.39593 -0.48044,-2.71422 -0.68991,-4.09175c-2.35366,-4.80047 -4.76369,-9.56592 -6.96384,-14.42546c-2.01502,-2.4884 -4.10064,-4.99831 -4.46372,-8.03698c-0.77019,-0.92511 -0.38307,-2.57462 0.18247,-3.77623c0.22238,-1.3534 0.54643,-2.7031 0.7613,-3.98864l1.35297,-1.41522c0,0 1.01751,-0.72608 1.74358,0.29144z" fill="#000000" stroke="none" stroke-width="0.5" stroke-linecap="butt" stroke-linejoin="miter"/><path d="M273.35714,140.6687c-0.02403,0.75025 -0.07707,3.55757 -0.25384,4.25772c-0.61164,2.42245 -0.89584,4.0919 -3.7089,1.74251c-0.92543,-0.77289 -1.25324,-2.68701 -1.14805,-4.55778c-0.66077,-0.14864 -0.88277,-0.87136 -0.88277,-0.87136c-0.8056,-2.6551 -1.15542,-3.46087 1.37193,-4.9461l1.3016,-0.58499c0.62968,-0.28301 1.36957,-0.00195 1.65256,0.62772c0.12838,0.28566 0.14069,0.59398 0.05704,0.87204l-0.18291,0.62144c0.47261,0.00461 0.92225,0.27845 1.12871,0.73783c0.02167,0.04821 0.04003,0.09708 0.05518,0.14632l0.56061,1.73977l-0.07494,0.02415z" fill="#000000" stroke="none" stroke-width="0.5" stroke-linecap="butt" stroke-linejoin="miter"/><path d="" fill="url(#color-7)" stroke="none" stroke-width="0.5" stroke-linecap="butt" stroke-linejoin="miter"/><path d="" fill="url(#color-8)" stroke="none" stroke-width="0.5" stroke-linecap="butt" stroke-linejoin="miter"/><path d="M244.85331,94.01614c-3.19269,2.2702 -6.43066,4.48912 -9.24904,7.16845c0,0 -0.90693,0.86021 -1.76716,-0.04672c-0.86021,-0.90693 0.04672,-1.76716 0.04672,-1.76716c4.69111,-4.44007 10.48938,-7.63657 15.37086,-11.87056l0.06168,-0.01723l-0.01336,-0.01884l1.33235,-0.9453c0.11256,-0.08388 0.24127,-0.15008 0.38331,-0.19329c0.66047,-0.20093 1.35877,0.17162 1.55969,0.83208c0.12379,0.40693 0.0299,0.82822 -0.21491,1.1387l-0.50803,0.66109c0.45107,0.07752 0.84278,0.40085 0.98506,0.86857c0.11332,0.3725 0.04423,0.75704 -0.15604,1.05759l-0.74581,1.13653l-0.11665,-0.07654l-0.01338,0.0163l-0.15204,-0.12484l-0.03551,-0.0233c-0.00367,0.00867 -0.00734,0.01733 -0.01102,0.02598l0.17069,0.15495c-0.15499,0.16433 -0.31065,0.32782 -0.46694,0.4905c-1.63325,3.31529 -4.62443,5.88812 -7.22701,8.64734c-4.23605,4.49099 -9.06411,9.28923 -12.45024,14.46447c-2.29071,3.59878 -4.35686,6.94486 -6.07415,10.86051l-0.15855,0.30503c0,0 -0.58837,1.10286 -1.69124,0.5145c-1.10286,-0.58837 -0.5145,-1.69124 -0.5145,-1.69124l0.0748,-0.13238c1.76976,-4.03529 3.90472,-7.50705 6.26403,-11.21346c1.78221,-2.70869 3.904,-5.16338 6.12964,-7.53696c-1.54781,1.42673 -3.06182,2.89312 -4.51499,4.43229c-4.75499,4.49858 -9.28906,10.0799 -10.93875,16.59009c-0.54277,2.14192 -0.07407,4.48237 -0.03613,6.6578c0,0 0.02128,1.24981 -1.22856,1.2711c-1.24981,0.02128 -1.2711,-1.22856 -1.2711,-1.22856c-0.04027,-2.43067 -0.48202,-4.91358 0.11141,-7.31069c1.71981,-6.94696 6.53792,-12.93898 11.593,-17.74518c3.41718,-3.62437 7.17568,-6.83838 10.91748,-10.08247c1.5439,-1.73553 3.08313,-3.47304 4.55438,-5.26911z" fill="url(#color-9)" stroke="none" stroke-width="0.5" stroke-linecap="butt" stroke-linejoin="miter"/><path d="M264.66257,114.4615c-0.7233,-1.01947 0.29617,-1.74278 0.29617,-1.74278l0.10894,0.04663c3.68329,-6.00847 7.9321,-11.58469 11.60288,-17.57883c-0.99991,1.40578 -2.01095,2.80244 -3.04491,4.18048c-2.88122,3.84 -6.62944,6.98513 -9.55463,10.79472c0,0 -0.76169,0.99114 -1.7528,0.22946c-0.99114,-0.76169 -0.22946,-1.7528 -0.22946,-1.7528c2.92079,-3.79767 6.66964,-6.93387 9.53445,-10.76809c2.67694,-3.58277 5.21104,-7.27977 7.79431,-10.94081c1.49314,-2.34382 3.22206,-4.71037 4.50737,-7.14568l0.70006,-1.3122v0c0.15058,-0.28225 0.40883,-0.50706 0.73906,-0.60752c0.66047,-0.20093 1.35877,0.17162 1.55969,0.83208c0.09037,0.29708 0.06473,0.6018 -0.05095,0.86548l-0.98652,2.28891l-0.20209,-0.0871c-0.02012,0.0351 -0.04029,0.07019 -0.06053,0.10526c-2.75719,11.95057 -12.20265,22.00149 -18.42308,32.20088l-0.79515,0.68808c0,0 -1.01947,0.7233 -1.74278,-0.29617z" fill="url(#color-10)" stroke="none" stroke-width="0.5" stroke-linecap="butt" stroke-linejoin="miter"/><path d="M264.70814,102.98202c0,0 -10.91923,-20.58235 -14.30406,-26.8827c-0.40263,-0.74943 -2.7485,0.33803 -4.12538,-0.50873c-3.26867,-2.01015 -6.75878,-5.86821 -6.75878,-5.86821c0,0 8.52166,2.90448 9.35978,2.08093c0.66585,-0.65429 0.26068,-2.36294 0.4432,-2.51703c0.16246,-0.13716 1.5971,0.41135 2.29083,-0.08114c1.23462,-0.87647 2.81043,-12.84302 2.81043,-12.84302c0,0 1.25552,6.24138 1.17389,10.99908c-0.04627,2.69731 -1.78195,4.52771 -1.29045,5.44258c3.38483,6.30031 13.60635,26.31714 13.60635,26.31714c0,0 5.32259,-0.21783 5.33616,0.60388c0.00659,0.39961 -2.60444,-1.00511 -3.07597,1.3044c-0.3056,1.49683 6.35296,-0.60398 6.59812,0.44981c0.1698,0.72983 -6.06241,4.88209 -6.11123,4.9233c-0.10955,0.09249 0.43081,-2.04293 0.11475,0.88022c-0.2493,2.30588 0.53473,6.65253 0.30032,6.49857c-0.15103,-0.09921 -0.46401,0.39655 -0.53655,-0.4451c-0.20929,-2.42821 -1.81606,-4.73824 -1.81606,-4.73824c0,0 -2.6674,0.14334 -3.84216,-0.83972c-0.5572,-0.46629 -7.90191,3.06607 -8.20639,2.44893c-0.60019,-1.21653 6.14218,-6.59539 6.02521,-6.75898c-0.68522,-0.9583 2.00797,-0.46598 2.00797,-0.46598z" fill="url(#color-11)" stroke="#000000" stroke-width="0" stroke-linecap="butt" stroke-linejoin="miter"/></g></g></svg>