<svg version="1.1" xmlns="http://www.w3.org/2000/svg" xmlns:xlink="http://www.w3.org/1999/xlink" width="188.81834" height="282.53961" viewBox="0,0,188.81834,282.53961"><defs><linearGradient x1="236.58384" y1="113.5228" x2="286.9026" y2="115.45645" gradientUnits="userSpaceOnUse" id="color-1"><stop offset="0" stop-color="#ffe23b"/><stop offset="1" stop-color="#631917"/></linearGradient><linearGradient x1="234.22544" y1="122.69689" x2="282.16416" y2="124.53909" gradientUnits="userSpaceOnUse" id="color-2"><stop offset="0" stop-color="#ffe23b"/><stop offset="1" stop-color="#631917"/></linearGradient><linearGradient x1="365.82221" y1="120.70463" x2="416.14097" y2="122.63829" gradientUnits="userSpaceOnUse" id="color-3"><stop offset="0" stop-color="#3c0000"/><stop offset="1" stop-color="#ffe23b"/></linearGradient><linearGradient x1="323.30825" y1="177.29282" x2="316.44113" y2="355.99329" gradientUnits="userSpaceOnUse" id="color-4"><stop offset="0" stop-color="#fbc74c"/><stop offset="1" stop-color="#fa954b"/></linearGradient><linearGradient x1="366.95496" y1="130.05188" x2="414.89369" y2="131.89408" gradientUnits="userSpaceOnUse" id="color-5"><stop offset="0" stop-color="#3c0000"/><stop offset="1" stop-color="#ffe23b"/></linearGradient><linearGradient x1="363.68356" y1="142.98883" x2="419.91333" y2="145.14964" gradientUnits="userSpaceOnUse" id="color-6"><stop offset="0" stop-color="#3c0000"/><stop offset="1" stop-color="#ffe23b"/></linearGradient><linearGradient x1="231.095" y1="135.67826" x2="287.32479" y2="137.83906" gradientUnits="userSpaceOnUse" id="color-7"><stop offset="0" stop-color="#ffe23b"/><stop offset="1" stop-color="#631917"/></linearGradient><linearGradient x1="342.97641" y1="183.68908" x2="383.50943" y2="185.24669" gradientUnits="userSpaceOnUse" id="color-8"><stop offset="0" stop-color="#3c0000"/><stop offset="1" stop-color="#ffe23b"/></linearGradient><linearGradient x1="323.10602" y1="172.30494" x2="321.83466" y2="205.389" gradientUnits="userSpaceOnUse" id="color-9"><stop offset="0" stop-color="#fbc74c"/><stop offset="1" stop-color="#fa8c4b"/></linearGradient><linearGradient x1="263.67619" y1="175.84157" x2="304.2092" y2="177.39918" gradientUnits="userSpaceOnUse" id="color-10"><stop offset="0" stop-color="#ffe23b"/><stop offset="1" stop-color="#631917"/></linearGradient><linearGradient x1="328.61731" y1="83.39451" x2="324.61021" y2="187.66976" gradientUnits="userSpaceOnUse" id="color-11"><stop offset="0" stop-color="#ceb037"/><stop offset="1" stop-color="#ffec7f"/></linearGradient><linearGradient x1="348.27954" y1="75.46573" x2="346.98306" y2="109.20351" gradientUnits="userSpaceOnUse" id="color-12"><stop offset="0" stop-color="#d0b23a"/><stop offset="1" stop-color="#dabf49"/></linearGradient><linearGradient x1="347.78076" y1="211.16934" x2="344.82716" y2="227.54594" gradientUnits="userSpaceOnUse" id="color-13"><stop offset="0" stop-color="#ffde00"/><stop offset="1" stop-color="#ff9500"/></linearGradient><linearGradient x1="347.78076" y1="211.16934" x2="344.82716" y2="227.54594" gradientUnits="userSpaceOnUse" id="color-14"><stop offset="0" stop-color="#000000" stop-opacity="0.22745"/><stop offset="1" stop-color="#000000" stop-opacity="0.58824"/></linearGradient><linearGradient x1="353.82651" y1="216.87356" x2="350.87292" y2="233.25015" gradientUnits="userSpaceOnUse" id="color-15"><stop offset="0" stop-color="#ffce4e"/><stop offset="1" stop-color="#ff824f"/></linearGradient><linearGradient x1="353.82651" y1="216.87356" x2="350.87292" y2="233.25015" gradientUnits="userSpaceOnUse" id="color-16"><stop offset="0" stop-color="#000000" stop-opacity="0.22745"/><stop offset="1" stop-color="#000000" stop-opacity="0.58824"/></linearGradient></defs><g transform="translate(-230.51254,-75.44409)"><g stroke-miterlimit="10"><path d="M275.07576,130.27169c0,0 -15.39405,-7.14379 -21.51884,-12.31366c-6.48944,-5.47767 -16.38715,-19.68244 -16.38715,-19.68244c0,0 7.90957,6.75042 13.74108,7.22135c9.38246,0.75768 36.36622,0.21517 36.36622,0.21517z" fill="url(#color-1)" stroke="#000000" stroke-width="0" stroke-linecap="butt"/><path d="M265.0512,143.02083c0,0 -13.48533,-10.30322 -18.34744,-16.67508c-5.15159,-6.75122 -11.74391,-22.76 -11.74391,-22.76c0,0 6.26294,8.30091 11.85468,10.02155c8.9967,2.76838 35.45949,8.07298 35.45949,8.07298z" fill="url(#color-2)" stroke="#000000" stroke-width="0" stroke-linecap="butt"/><path d="M366.19667,110.96029c0,0 26.86255,2.61172 36.27548,2.57631c5.85045,-0.02201 14.25474,-6.14552 14.25474,-6.14552c0,0 -10.95864,13.4033 -17.84932,18.3668c-6.50347,4.68459 -22.40036,10.62593 -22.40036,10.62593z" fill="url(#color-3)" stroke="#000000" stroke-width="0" stroke-linecap="butt"/><path d="M267.02781,350.45312l3.41269,-147.25335c0,0 7.96451,-25.41112 18.31083,-25.41906c10.27475,-0.00788 34.61361,0.37038 55.88629,0.35405c23.07273,-0.01771 29.21806,27.11665 29.21806,27.11665l-5.61886,152.73229z" fill="url(#color-4)" stroke="#000000" stroke-width="0" stroke-linecap="butt"/><path d="M367.06482,127.19307c0,0 26.79184,-3.25812 35.97446,-5.32791c5.70731,-1.28644 12.58881,-9.08223 12.58881,-9.08223c0,0 -7.80143,15.45567 -13.45594,21.79162c-5.33676,5.97992 -19.57303,15.21786 -19.57303,15.21786z" fill="url(#color-5)" stroke="#000000" stroke-width="0" stroke-linecap="butt"/><path d="M373.82953,124.99373c0,0 20.76817,22.59164 28.76675,29.70293c4.97139,4.41992 16.7346,5.61006 16.7346,5.61006c0,0 -19.44941,3.03712 -29.05072,2.01291c-9.06178,-0.96666 -27.03219,-7.99548 -27.03219,-7.99548z" fill="url(#color-6)" stroke="#000000" stroke-width="0" stroke-linecap="butt"/><path d="M286.88919,149.17438c0,0 -18.45683,5.62899 -27.56608,5.89738c-9.6516,0.28435 -28.81057,-4.23641 -28.81057,-4.23641c0,0 11.81985,-0.28389 17.11578,-4.30925c8.52073,-6.47649 30.9614,-27.40768 30.9614,-27.40768z" fill="url(#color-7)" stroke="#000000" stroke-width="0" stroke-linecap="butt"/><path d="M371.88362,157.2892c0,0 8.446,17.34949 10.13558,26.30469c1.79016,9.48838 0.32108,29.1186 0.32108,29.1186c0,0 -2.12878,-11.63004 -6.93278,-16.23133c-7.72927,-7.40311 -31.91221,-26.2945 -31.91221,-26.2945z" fill="url(#color-8)" stroke="#000000" stroke-width="0" stroke-linecap="butt"/><path d="M297.08911,174.90824c10.83088,-3.72359 23.12397,-2.47112 34.5515,-2.03198c4.64229,0.17839 10.55843,-0.51211 14.8189,1.38097c3.31451,1.47276 9.39009,1.69233 11.75975,4.3429c2.47646,2.77005 -2.13884,7.56211 -4.04787,9.12801c-6.44664,5.28792 -18.67752,16.19909 -26.90268,17.67028c-9.4303,1.68674 -23.02045,-13.13569 -30.33948,-18.59426c-1.34331,-1.00185 -9.88245,-5.29338 -10.24239,-6.12541c-0.68951,-1.59382 8.04474,-5.69934 9.60891,-6.15479z" fill="url(#color-9)" stroke="#000000" stroke-width="0" stroke-linecap="round"/><path d="M304.72807,163.89677c0,0 -25.56139,16.9798 -33.83602,23.76791c-5.14295,4.21904 -8.15798,15.65142 -8.15798,15.65142c0,0 0.04173,-19.68507 2.55478,-29.00809c2.37184,-8.79913 12.12439,-25.4493 12.12439,-25.4493z" fill="url(#color-10)" stroke="#000000" stroke-width="0" stroke-linecap="butt"/><path d="M381.40714,136.16429c-1.07531,27.98226 -26.30813,52.6771 -56.53846,51.5154c-30.23033,-1.16169 -54.01054,-27.74002 -52.93524,-55.72227c1.07531,-27.98225 26.45354,-49.7246 56.68387,-48.56291c30.23033,1.16169 53.86514,24.78753 52.78984,52.76978z" fill="url(#color-11)" stroke="#000000" stroke-width="0" stroke-linecap="butt"/><path d="M342.70783,132.50331c-0.10402,2.70684 -6.83587,4.64572 -15.036,4.3306c-8.20015,-0.31512 -14.76334,-2.7649 -14.65932,-5.47174c0.10402,-2.70684 6.83587,-4.64572 15.036,-4.3306c8.20015,0.31512 14.76334,2.7649 14.65932,5.47174z" fill-opacity="0.18431" fill="#ff0505" stroke="none" stroke-width="0" stroke-linecap="butt"/><path d="M309.98002,127.44768c-0.08582,2.23321 -2.24957,1.17494 -4.70066,1.08075c-2.45109,-0.09419 -4.26135,0.81136 -4.17553,-1.42185c0.08582,-2.23322 2.14239,-3.96725 4.59348,-3.87306c2.45109,0.09419 4.36852,1.98093 4.28271,4.21415z" fill="#ffffff" stroke="#000000" stroke-width="2.5" stroke-linecap="butt"/><path d="M322.11634,86.51819c6.11435,0.23496 11.58781,-0.23128 16.71278,-3.88446c2.41611,-1.72223 5.5828,-6.86552 8.6551,-7.1794c2.52972,-0.25845 2.75186,4.45462 4.90639,5.2265c4.00553,1.43504 10.90491,-0.80343 14.84236,-1.80973c1.19316,-0.30494 4.98751,-1.96578 6.09778,-1.31345c1.94499,1.14281 -1.74412,6.80205 -2.55005,7.95013c-2.90423,4.13721 -3.93172,12.99813 -11.97542,18.2345c-5.07219,3.30194 -17.50215,3.74259 -20.55046,5.12582" fill="url(#color-12)" stroke="#000000" stroke-width="0" stroke-linecap="round"/><path d="M325.4728,187.70303l0.05833,18.03778l-6.09738,119.55861l-0.69172,27.77822" fill="none" stroke-opacity="0.61176" stroke="#000000" stroke-width="2.5" stroke-linecap="round"/><path d="M361.43591,133.49628l-10.24775,1.06432" fill="none" stroke="#000000" stroke-width="2.5" stroke-linecap="round"/><path d="M292.25887,171.24813l6.44407,-12.2354l27.78357,8.55749l27.32964,-7.06375l4.78431,12.66688z" fill="#ffffff" stroke="#000000" stroke-width="2.5" stroke-linecap="round"/><path d="M369.18338,133.6035l-16.35009,1.30197" fill="none" stroke="#000000" stroke-width="2.5" stroke-linecap="round"/><path d="M359.97458,133.24963l4.38193,-2.40531" fill="none" stroke="#000000" stroke-width="2.5" stroke-linecap="round"/><path d="M294.64808,130.95373l-8.0228,-3.31095" fill="none" stroke="#000000" stroke-width="2.5" stroke-linecap="round"/><path d="M292.251,126.35765l-3.4183,-0.34584" fill="none" stroke="#000000" stroke-width="2.5" stroke-linecap="round"/><path d="M307.54696,130.16256l-7.98951,6.98512" fill="none" stroke="#000000" stroke-width="2.5" stroke-linecap="round"/><path d="M346.09545,131.64391l6.86971,5.41138" fill="none" stroke="#000000" stroke-width="2.5" stroke-linecap="round"/><path d="M357.43779,137.87058l4.93387,-0.02488" fill="none" stroke="#000000" stroke-width="2.5" stroke-linecap="round"/><path d="M291.32872,133.61434l2.95707,1.18601l-1.9222,9.4423" fill="none" stroke="#000000" stroke-width="2.5" stroke-linecap="round"/><path d="M307.55427,109.48793c0,0 -3.94509,8.5912 -6.75226,9.73022c-3.11575,1.26424 -11.11322,-2.4812 -11.11322,-2.4812" fill="none" stroke="#000000" stroke-width="2.5" stroke-linecap="round"/><path d="M362.44639,130.15565c-0.08582,2.23321 -2.24957,1.17495 -4.70066,1.08076c-2.45109,-0.09419 -4.26135,0.81136 -4.17553,-1.42186c0.08582,-2.23322 2.14239,-3.96725 4.59348,-3.87306c2.45109,0.09419 4.36852,1.98093 4.28271,4.21415z" fill="#ffffff" stroke="#000000" stroke-width="2.5" stroke-linecap="butt"/><path d="M362.48614,119.96337c0,0 -8.26131,3.12064 -11.27086,1.62102c-2.71148,-1.3511 -5.98562,-10.21971 -5.98562,-10.21971" fill="none" stroke="#000000" stroke-width="2.5" stroke-linecap="round"/><path d="M316.73599,129.1061l2.70158,-3.32777" fill="none" stroke="#000000" stroke-width="2.5" stroke-linecap="round"/><path d="M322.01588,131.23927l0.18928,-4.92564" fill="none" stroke="#000000" stroke-width="2.5" stroke-linecap="round"/><path d="M328.44868,125.69566l-1.53184,6.37537" fill="none" stroke="#000000" stroke-width="2.5" stroke-linecap="round"/><path d="M333.37451,131.46129l-0.02488,-4.93387" fill="none" stroke="#000000" stroke-width="2.5" stroke-linecap="round"/><path d="M337.85519,126.48608l1.80398,3.28645" fill="none" stroke="#000000" stroke-width="2.5" stroke-linecap="round"/><path d="M368.84355,132.03524c-0.07538,1.96162 -2.46501,3.46235 -5.33738,3.35197c-2.87237,-0.11038 -5.13978,-1.79007 -5.0644,-3.75169c0.07538,-1.96162 2.46501,-3.46235 5.33738,-3.35197c2.87237,0.11038 5.13978,1.79007 5.0644,3.75169z" fill="#ffffff" stroke="#000000" stroke-width="2.5" stroke-linecap="butt"/><path d="M296.14509,129.20531c-0.08915,2.31993 -2.66899,4.10424 -5.76223,3.98537c-3.09324,-0.11887 -5.52854,-2.0959 -5.43938,-4.41583c0.08915,-2.31993 2.66899,-4.10424 5.76223,-3.98537c3.09324,0.11887 5.52854,2.0959 5.43938,4.41583z" fill="#ffffff" stroke="#000000" stroke-width="2.5" stroke-linecap="butt"/><path d="M352.76921,178.1237l1.70744,-4.76184l-2.31234,7.27936l0.09727,-9.14302" fill="none" stroke="#000000" stroke-width="2.5" stroke-linecap="round"/><path d="M350.64189,173.97672l-1.02434,6.82071l0.63393,-9.88463" fill="none" stroke="#000000" stroke-width="2.5" stroke-linecap="round"/><path d="M347.74415,183.2662l0.33148,-8.62586l0.28317,5.85464" fill="none" stroke="#000000" stroke-width="2.5" stroke-linecap="round"/><path d="M347.90967,172.34727l-0.6049,2.51752" fill="none" stroke="#000000" stroke-width="2.5" stroke-linecap="round"/><path d="M344.49455,175.26494l1.12205,-2.75172l-0.12674,3.29813" fill="none" stroke="#000000" stroke-width="2.5" stroke-linecap="round"/><path d="M341.45012,175.14796l1.06356,-1.22952l-0.09749,2.53702" fill="none" stroke="#000000" stroke-width="2.5" stroke-linecap="round"/><path d="M341.04022,172.59145l-0.33148,8.62586l-1.01503,-6.645" fill="none" stroke="#000000" stroke-width="2.5" stroke-linecap="round"/><path d="M337.75206,178.81699l1.74644,-5.77665l0.27364,12.71435" fill="none" stroke="#000000" stroke-width="2.5" stroke-linecap="round"/><path d="M335.92719,173.41126l1.5612,-0.95632l-0.6244,3.02492z" fill="none" stroke="#000000" stroke-width="2.5" stroke-linecap="round"/><path d="M335.44302,147.9746l-0.22892,15.10163l0.02666,-9.83832" fill="none" stroke="#000000" stroke-width="2.5" stroke-linecap="round"/><path d="M337.33291,162.80624l-1.5249,3.10404l-0.97176,-2.14578" fill="none" stroke="#000000" stroke-width="2.5" stroke-linecap="round"/><path d="M341.42218,166.12602l-1.21477,-4.96635l-1.57884,4.5076l-0.513,-4.93938" fill="none" stroke="#000000" stroke-width="2.5" stroke-linecap="round"/><path d="M335.4562,138.48717l0.14832,-3.85976" fill="none" stroke="#000000" stroke-width="2.5" stroke-linecap="round"/><path d="M330.92255,165.01973l-0.10818,-6.32945" fill="none" stroke="#000000" stroke-width="2.5" stroke-linecap="round"/><path d="M347.6165,160.39017l0.24302,2.82058" fill="none" stroke="#000000" stroke-width="2.5" stroke-linecap="round"/><path d="M352.01622,164.77611l-1.22825,-4.61547" fill="none" stroke="#000000" stroke-width="2.5" stroke-linecap="round"/><path d="M355.9434,163.17l2.34834,2.90149" fill="none" stroke="#000000" stroke-width="2.5" stroke-linecap="round"/><path d="M359.10138,163.29136l0.83692,5.65465l-0.58012,5.95159l-0.80964,2.78013l-0.83692,-5.65465l-2.2941,4.83151l-0.53996,-4.23761" fill="none" stroke="#000000" stroke-width="2.5" stroke-linecap="round"/><path d="M362.2327,173.25103l0.18877,-4.91241l0.22954,3.17146" fill="none" stroke="#000000" stroke-width="2.5" stroke-linecap="round"/><path d="M303.4072,132.72446l-10.13585,-1.84763l13.07314,2.67111l-10.60074,2.3808l4.87871,-5.42493" fill="none" stroke="#000000" stroke-width="2.5" stroke-linecap="round"/><path d="M294.63073,140.11291l1.68671,-7.3147" fill="none" stroke="#000000" stroke-width="2.5" stroke-linecap="round"/><path d="M291.45926,140.34244l0.98554,10.93144" fill="none" stroke="#000000" stroke-width="2.5" stroke-linecap="round"/><path d="M293.34975,173.44717l-0.43209,-7.04471l-0.37847,-17.5848" fill="none" stroke="#000000" stroke-width="2.5" stroke-linecap="round"/><path d="M294.30802,175.94384l-1.39037,-9.54137" fill="none" stroke="#000000" stroke-width="2.5" stroke-linecap="round"/><g stroke-width="2.5" stroke-linecap="butt"><path d="M338.03999,214.65818c0.18784,-1.0954 0.33191,-1.5045 0.7383,-2.09684c0.04674,-0.06813 0.09435,-0.13476 0.14282,-0.19991c0.00864,-0.01207 0.0173,-0.02397 0.02601,-0.03568c0.16672,-0.22442 0.34598,-0.42899 0.53548,-0.61407c0.55233,-0.54782 1.18854,-0.93863 1.89649,-1.16308c0.70128,-0.22234 1.05888,-0.32066 2.07731,-0.1554c0.11324,0.01578 0.22569,0.0357 0.33711,0.0597c0.8396,0.16105 1.13654,0.32371 1.55858,0.6607c0.84064,0.56866 1.49085,1.44459 1.75988,2.59551l0.11895,0.50893l0.28926,-0.43531c0.65413,-0.98442 1.56938,-1.57803 2.55571,-1.81718c0.51317,-0.16831 0.84823,-0.21699 1.6912,-0.07458c0.11277,0.01643 0.22511,0.03705 0.33672,0.06183c1.01202,0.20093 1.3127,0.41799 1.89213,0.87131c0.58492,0.45764 1.04451,1.04607 1.37065,1.7523c0.11291,0.23963 0.20941,0.49393 0.28724,0.76247c0.00406,0.01402 0.00803,0.0282 0.01191,0.04254c0.02267,0.07796 0.044,0.15703 0.06399,0.23719c0.17385,0.69699 0.16592,1.13064 -0.04075,2.22265c-0.00426,0.02252 -0.00859,0.04498 -0.01298,0.06736c-0.13785,0.85451 -0.39138,1.69896 -0.72547,2.29062c-0.92446,1.63707 -2.32817,2.75906 -5.39601,4.31304c-2.01195,1.01915 -4.37606,2.68376 -4.56509,2.94336c-0.10263,0.14092 -0.23581,0.1169 -0.28275,-0.05099c-0.08644,-0.30928 -1.72008,-2.69491 -3.24922,-4.35271c-2.33166,-2.52781 -3.25495,-4.06949 -3.54926,-5.92636c-0.10636,-0.6711 -0.04892,-1.55092 0.12045,-2.39974c0.0037,-0.0225 0.00749,-0.04505 0.01136,-0.06764z" fill="url(#color-13)" stroke="url(#color-14)"/><path d="M344.08577,220.3624c0.18784,-1.0954 0.33189,-1.50451 0.73828,-2.09686c0.04674,-0.06813 0.09436,-0.13475 0.14281,-0.19989c0.00864,-0.01207 0.0173,-0.02396 0.02601,-0.03567c0.16672,-0.22442 0.34598,-0.429 0.53548,-0.61408c0.55233,-0.54782 1.18853,-0.93861 1.89648,-1.16308c0.70128,-0.22234 1.05887,-0.32066 2.0773,-0.15541c0.11324,0.01578 0.22571,0.03571 0.33712,0.05971c0.8396,0.16105 1.13654,0.32371 1.55859,0.66069c0.84064,0.56866 1.49084,1.44459 1.75986,2.59552l0.11896,0.50893l0.28925,-0.43529c0.65413,-0.98442 1.56939,-1.57803 2.55572,-1.81718c0.51317,-0.16831 0.84822,-0.21699 1.69119,-0.07458c0.11277,0.01643 0.22512,0.03705 0.33673,0.06182c1.01202,0.20093 1.3127,0.41799 1.89213,0.87132c0.58492,0.45764 1.04451,1.04605 1.37066,1.7523c0.11291,0.23963 0.20942,0.49395 0.28723,0.76249c0.00406,0.01402 0.00803,0.02819 0.01191,0.04252c0.02267,0.07796 0.04399,0.15703 0.06399,0.23718c0.17385,0.69699 0.16593,1.13065 -0.04075,2.22266c-0.00426,0.02252 -0.00858,0.04497 -0.01297,0.06735c-0.13783,0.8545 -0.39138,1.69896 -0.72547,2.29062c-0.92446,1.63707 -2.32816,2.75906 -5.396,4.31304c-2.01195,1.01915 -4.37607,2.68377 -4.56511,2.94336c-0.10263,0.14092 -0.23581,0.11689 -0.28274,-0.051c-0.08644,-0.30928 -1.72007,-2.69491 -3.24921,-4.35271c-2.33166,-2.52781 -3.25495,-4.06949 -3.54927,-5.92637c-0.10636,-0.6711 -0.04893,-1.55092 0.12044,-2.39974c0.0037,-0.0225 0.0075,-0.04504 0.01137,-0.06763z" fill="url(#color-15)" stroke="url(#color-16)"/></g></g></g></svg>