<svg version="1.1" xmlns="http://www.w3.org/2000/svg" xmlns:xlink="http://www.w3.org/1999/xlink" width="172.46669" height="310.94544" viewBox="0,0,172.46669,310.94544"><defs><linearGradient x1="321.85295" y1="169.20606" x2="321.85295" y2="348.03843" gradientUnits="userSpaceOnUse" id="color-1"><stop offset="0" stop-color="#383838"/><stop offset="1" stop-color="#494949"/></linearGradient><linearGradient x1="353.28917" y1="170.26722" x2="353.28917" y2="351.07166" gradientUnits="userSpaceOnUse" id="color-2"><stop offset="0" stop-color="#666666"/><stop offset="1" stop-color="#4b4b4b"/></linearGradient><linearGradient x1="291.48318" y1="169.01856" x2="291.48318" y2="349.823" gradientUnits="userSpaceOnUse" id="color-3"><stop offset="0" stop-color="#666666"/><stop offset="1" stop-color="#4b4b4b"/></linearGradient><radialGradient cx="357.62499" cy="99.48381" r="24.61473" gradientUnits="userSpaceOnUse" id="color-4"><stop offset="0" stop-color="#000000" stop-opacity="0.92549"/><stop offset="1" stop-color="#000000" stop-opacity="0"/></radialGradient><radialGradient cx="286.95875" cy="103.34226" r="25.35587" gradientUnits="userSpaceOnUse" id="color-5"><stop offset="0" stop-color="#000000" stop-opacity="0.92549"/><stop offset="1" stop-color="#000000" stop-opacity="0"/></radialGradient><linearGradient x1="278.08208" y1="43.02583" x2="281.62029" y2="128.15113" gradientUnits="userSpaceOnUse" id="color-6"><stop offset="0" stop-color="#9c9c9c"/><stop offset="1" stop-color="#2c2c2c"/></linearGradient><linearGradient x1="364.72963" y1="44.19743" x2="364.72963" y2="132.45666" gradientUnits="userSpaceOnUse" id="color-7"><stop offset="0" stop-color="#9c9c9c"/><stop offset="1" stop-color="#2c2c2c"/></linearGradient><linearGradient x1="287.45863" y1="186.63771" x2="287.45863" y2="207.42639" gradientUnits="userSpaceOnUse" id="color-8"><stop offset="0" stop-color="#878787"/><stop offset="1" stop-color="#848484"/></linearGradient><linearGradient x1="128.45962" y1="91.89045" x2="128.45962" y2="93.14045" gradientUnits="userSpaceOnUse" id="color-9"><stop offset="0" stop-color="#878787"/><stop offset="1" stop-color="#848484"/></linearGradient></defs><g transform="translate(-235.82006,-41.49323)"><g stroke-miterlimit="10"><path d="M274.80636,344.3998l-2.12923,-147.27579c0,0 6.62477,-25.69821 16.43299,-26.10344c9.74037,-0.40242 32.82784,-0.95905 52.99415,-1.79223c21.87273,-0.90368 28.68715,25.97468 28.68715,25.97468l0.23734,152.83541z" fill="url(#color-1)" stroke="#000000" stroke-width="2.5" stroke-linecap="butt"/><path d="M330.37274,351.07166l9.75691,-98.70894c0,0 -6.47072,-81.00484 3.7222,-80.10116c9.39771,0.83318 14.26175,-2.36153 18.80086,-1.95911c4.57074,0.40523 13.55291,29.85478 13.55291,29.85478l-0.99224,147.27579z" fill="url(#color-2)" stroke="#000000" stroke-width="2.5" stroke-linecap="butt"/><path d="M269.55898,346.18437l-0.99224,-147.27579c0,0 8.98217,-29.44955 13.5529,-29.85478c4.53911,-0.40242 9.40315,2.79229 18.80086,1.95911c10.19292,-0.90368 3.72221,80.10116 3.72221,80.10116l9.75691,98.70894z" fill="url(#color-3)" stroke="#000000" stroke-width="2.5" stroke-linecap="butt"/><path d="M336.6635,182.67953c0,7.57528 -6.0209,13.71624 -13.44807,13.71624c-7.42717,0 -13.44807,-6.14097 -13.44807,-13.71624c0,-7.57528 6.0209,-13.71624 13.44807,-13.71624c7.42717,0 13.44807,6.14097 13.44807,13.71624z" fill="#9c9c9c" stroke="#000000" stroke-width="2.5" stroke-linecap="butt"/><path d="M377.6754,132.01136c-1.94104,28.48816 -27.92848,52.9286 -58.11114,50.8721c-30.18266,-2.05649 -53.13099,-29.83117 -51.18995,-58.31932c1.94104,-28.48815 27.98246,-49.91526 58.16512,-47.85875c30.18266,2.05649 53.07703,26.81782 51.13599,55.30597z" fill="#9c9c9c" stroke="#000000" stroke-width="2.5" stroke-linecap="butt"/><path d="M348.69391,126.74284c0,2.70884 -6.65243,4.90479 -14.85862,4.90479c-8.2062,0 -14.85862,-2.19595 -14.85862,-4.90479c0,-2.70884 6.65243,-4.90479 14.85862,-4.90479c8.2062,0 14.85862,2.19595 14.85862,4.90479z" fill-opacity="0.18431" fill="#000000" stroke="none" stroke-width="0" stroke-linecap="butt"/><path d="M317.33675,175.89107h26.92169" fill="none" stroke="#000000" stroke-width="2.5" stroke-linecap="round"/><path d="M286.25403,142.93879c0.51844,-0.09046 2.96856,0.0492 1.70172,1.39603c-0.27904,0.29666 -1.69872,0.16228 -1.9591,-0.06923c-0.40009,-0.35574 0.75153,-1.09588 0.45362,-1.54071c-0.18548,-0.27696 -0.58881,0.702 -0.86068,0.50913c-0.27186,-0.19287 0.13075,-0.65372 0.19612,-0.98058z" fill="none" stroke="#000000" stroke-width="2.5" stroke-linecap="round"/><path d="M297.12263,144.27726c-2.65388,-0.86402 1.20257,-1.90253 1.43226,-0.7943c0.40974,1.97691 -4.39304,-0.77143 -0.17154,-0.77143" fill="none" stroke="#000000" stroke-width="2.5" stroke-linecap="round"/><path d="M291.83476,148.65269c4.50712,-0.67684 -0.2681,3.30488 -0.94839,1.88101c-0.29505,-0.61755 1.16066,-1.25478 0.85458,-1.86693z" fill="none" stroke="#000000" stroke-width="2.5" stroke-linecap="round"/><path d="M356.00683,146.19034c0.57921,-0.21322 1.91534,-0.5492 1.85049,0.06459c-0.00327,0.03099 -3.78171,1.01493 -1.97601,-1.39267" fill="none" stroke="#000000" stroke-width="2.5" stroke-linecap="round"/><path d="M365.05347,146.48734c0.99634,2.11542 -2.1109,1.02859 -0.01024,-0.02174z" fill="none" stroke="#000000" stroke-width="2.5" stroke-linecap="round"/><path d="M360.99999,152.2553c-0.31712,0.13477 -3.01366,1.12894 -2.21641,-0.58655c0.29948,-0.64442 2.65164,-0.81374 2.34427,0.54074c-0.13768,0.60671 -2.49667,1.35486 -1.12368,-0.47579z" fill="none" stroke="#000000" stroke-width="2.5" stroke-linecap="round"/><path d="M336.4631,84.59801c2.7482,-14.281 14.45056,-19.19344 26.13794,-10.97223c11.68738,8.22121 18.93403,26.46285 16.18583,40.74386c-2.7482,14.281 -14.45056,19.19344 -26.13795,10.97223c-11.68738,-8.22121 -18.93402,-26.46285 -16.18582,-40.74384z" fill="url(#color-4)" stroke="#000000" stroke-width="0" stroke-linecap="butt"/><path d="M308.75782,88.21243c2.83095,14.51511 -4.63388,33.05582 -16.67317,41.41181c-12.03929,8.35599 -24.09401,3.36302 -26.92496,-11.15211c-2.83095,-14.51513 4.63389,-33.05583 16.67318,-41.41183c12.03929,-8.35599 24.094,-3.36301 26.92495,11.15212z" fill="url(#color-5)" stroke="#000000" stroke-width="0" stroke-linecap="butt"/><path d="M271.99245,128.55131l-33.71707,-83.87091l69.79016,37.91295c0,0 -4.52634,18.73721 -9.84228,25.50984c-6.47741,8.25238 -26.23082,20.44814 -26.23082,20.44814z" fill="url(#color-6)" stroke="#000000" stroke-width="2.5" stroke-linecap="butt"/><path d="M337.98846,82.09672l68.01336,-37.89929l-31.2899,88.25926c0,0 -19.22705,-16.69957 -25.6051,-25.44599c-5.81004,-7.96748 -11.11836,-24.91397 -11.11836,-24.91397z" fill="url(#color-7)" stroke="#000000" stroke-width="2.5" stroke-linecap="butt"/><path d="M315.24267,125.0353c0.01785,2.2348 -1.95612,4.06232 -4.40893,4.0819c-2.45283,0.01958 -4.45569,-1.77621 -4.47354,-4.011c-0.01785,-2.2348 1.95612,-4.06232 4.40893,-4.0819c2.45283,-0.01958 4.45568,1.77621 4.47352,4.01101z" fill="#ffffff" stroke="#000000" stroke-width="2.5" stroke-linecap="butt"/><path d="M360.51517,124.31355c0.01785,2.2348 -1.95611,4.06232 -4.40893,4.0819c-2.45283,0.01958 -4.45568,-1.77621 -4.47352,-4.011c-0.01785,-2.2348 1.95611,-4.06231 4.40893,-4.08189c2.45283,-0.01958 4.45569,1.7762 4.47353,4.01099z" fill="#ffffff" stroke="#000000" stroke-width="2.5" stroke-linecap="butt"/><path d="M315.0457,127.13832l-6.40322,6.58617" fill="none" stroke="#000000" stroke-width="2.5" stroke-linecap="round"/><path d="M315.22865,120.91805l-24.33224,-0.18294" fill="none" stroke="#000000" stroke-width="2.5" stroke-linecap="round"/><path d="M308.93206,222.31652l29.42873,1.7311" fill="none" stroke="#000000" stroke-width="2.5" stroke-linecap="round"/><path d="M307.48947,235.01127h29.42873" fill="none" stroke="#000000" stroke-width="2.5" stroke-linecap="round"/><path d="M340.38042,244.82085l-34.33353,0.86555" fill="none" stroke="#000000" stroke-width="2.5" stroke-linecap="round"/><path d="M306.33539,257.22708h32.89094" fill="none" stroke="#000000" stroke-width="2.5" stroke-linecap="round"/><path d="M337.78376,269.34479l-28.56319,0.28852" fill="none" stroke="#000000" stroke-width="2.5" stroke-linecap="round"/><path d="M336.34117,282.61658l-25.96653,0.86555" fill="none" stroke="#000000" stroke-width="2.5" stroke-linecap="round"/><path d="M332.87897,295.31133l-19.90768,0.57703" fill="none" stroke="#000000" stroke-width="2.5" stroke-linecap="round"/><path d="M313.83685,305.69793l18.17657,-0.28851" fill="none" stroke="#000000" stroke-width="2.5" stroke-linecap="round"/><path d="M332.87897,316.37305l-18.17657,0.57704" fill="none" stroke="#000000" stroke-width="2.5" stroke-linecap="round"/><path d="M309.22057,211.35287l29.71726,1.7311" fill="none" stroke="#000000" stroke-width="2.5" stroke-linecap="round"/><path d="M309.79761,201.54329l26.54357,0.86555" fill="none" stroke="#000000" stroke-width="2.5" stroke-linecap="round"/><path d="M343.7897,230.87349l-0.57704,-21.9273l29.71726,0.57704l-1.7311,18.7536" fill="none" stroke="#000000" stroke-width="2.5" stroke-linecap="round"/><path d="M357.06148,231.45052l-0.57703,54.52972l-1.15407,61.45413" fill="none" stroke="#000000" stroke-width="2.5" stroke-linecap="round"/><path d="M298.71024,197.03205c0,5.74064 -5.03752,10.39434 -11.25161,10.39434c-6.21409,0 -11.25161,-4.65371 -11.25161,-10.39434c0,-5.74064 5.03752,-10.39434 11.25161,-10.39434c6.21409,0 11.25161,4.65371 11.25161,10.39434z" fill="url(#color-8)" stroke="#000000" stroke-width="2.5" stroke-linecap="butt"/><path d="M253.70381,182.35138z" fill="url(#color-9)" stroke="#000000" stroke-width="2.5" stroke-linecap="butt"/></g></g></svg>