<svg version="1.1" xmlns="http://www.w3.org/2000/svg" xmlns:xlink="http://www.w3.org/1999/xlink" width="165.92171" height="320.39954" viewBox="0,0,165.92171,320.39954"><defs><linearGradient x1="388.37955" y1="119.52335" x2="347.23547" y2="122.35295" gradientUnits="userSpaceOnUse" id="color-1"><stop offset="0" stop-color="#ff8600"/><stop offset="1" stop-color="#562e0d"/></linearGradient><linearGradient x1="241.49911" y1="128.37277" x2="282.64318" y2="125.54316" gradientUnits="userSpaceOnUse" id="color-2"><stop offset="0" stop-color="#ff8600"/><stop offset="1" stop-color="#562e0d"/></linearGradient><linearGradient x1="315.80363" y1="165.56963" x2="328.07352" y2="343.98058" gradientUnits="userSpaceOnUse" id="color-3"><stop offset="0" stop-color="#292929"/><stop offset="1" stop-color="#171717"/></linearGradient><linearGradient x1="324.96736" y1="278.79774" x2="326.69902" y2="303.97701" gradientUnits="userSpaceOnUse" id="color-4"><stop offset="0" stop-color="#10ff00"/><stop offset="1" stop-color="#025f00"/></linearGradient><linearGradient x1="258.48282" y1="297.52434" x2="274.50024" y2="296.76818" gradientUnits="userSpaceOnUse" id="color-5"><stop offset="0" stop-color="#ffffff"/><stop offset="1" stop-color="#929292"/></linearGradient><linearGradient x1="394.74181" y1="287.38122" x2="378.77167" y2="288.82495" gradientUnits="userSpaceOnUse" id="color-6"><stop offset="0" stop-color="#ffffff"/><stop offset="1" stop-color="#929292"/></linearGradient><linearGradient x1="297.48695" y1="303.73793" x2="283.02532" y2="294.58058" gradientUnits="userSpaceOnUse" id="color-7"><stop offset="0" stop-color="#ffffff"/><stop offset="1" stop-color="#929292"/></linearGradient><linearGradient x1="332.38113" y1="287.26276" x2="319.17479" y2="296.35795" gradientUnits="userSpaceOnUse" id="color-8"><stop offset="0" stop-color="#ffffff"/><stop offset="1" stop-color="#929292"/></linearGradient><linearGradient x1="371.34832" y1="296.97342" x2="357.19579" y2="292.31056" gradientUnits="userSpaceOnUse" id="color-9"><stop offset="0" stop-color="#ffffff"/><stop offset="1" stop-color="#929292"/></linearGradient><linearGradient x1="312.25607" y1="291.87098" x2="298.81967" y2="297.62102" gradientUnits="userSpaceOnUse" id="color-10"><stop offset="0" stop-color="#ffffff"/><stop offset="1" stop-color="#929292"/></linearGradient><linearGradient x1="336.23016" y1="289.59485" x2="350.32722" y2="293.45132" gradientUnits="userSpaceOnUse" id="color-11"><stop offset="0" stop-color="#ffffff"/><stop offset="1" stop-color="#929292"/></linearGradient></defs><g transform="translate(-231.34337,-24.6057)"><g stroke-miterlimit="10"><path d="M347.20957,121.9758c-1.28567,-19.12764 9.30195,-35.07089 19.81267,-35.77736c10.51073,-0.70649 20.07359,14.2268 21.35926,33.35443c1.28566,19.12762 -6.19275,35.20632 -16.70347,35.91281c-10.51072,0.70647 -23.18278,-14.36228 -24.46845,-33.4899z" fill="url(#color-1)" stroke="#000000" stroke-width="2.5" stroke-linecap="butt"/><path d="M282.61717,125.16599c1.34499,19.12354 -9.14488,35.78521 -19.65335,36.5243c-10.50847,0.73907 -20.11763,-14.16446 -21.46262,-33.288c-1.34499,-19.12354 6.08349,-35.22538 16.59198,-35.96445c10.50847,-0.73909 23.17903,13.60462 24.52402,32.72818z" fill="url(#color-2)" stroke="#000000" stroke-width="2.5" stroke-linecap="butt"/><path d="M278.86771,343.7174l-12.32041,-146.77636c0,0 5.13047,-26.11175 15.309,-27.21795c10.10812,-1.09854 34.0945,-3.3061 55.02218,-5.58052c22.69853,-2.46686 31.63369,23.86049 31.63369,23.86049l10.73318,152.45827z" fill="url(#color-3)" stroke="#000000" stroke-width="2.5" stroke-linecap="butt"/><path d="M340.92417,172.11219c0.62315,9.06089 -9.0674,17.10738 -21.64445,17.97234c-12.57705,0.86496 -23.27791,-5.77914 -23.90106,-14.84003c-0.62315,-9.06089 9.0674,-17.10738 21.64445,-17.97234c12.57705,-0.86496 23.27791,5.77914 23.90106,14.84003z" fill="#ffd300" stroke="#000000" stroke-width="2.5" stroke-linecap="butt"/><path d="M369.27048,123.22941c0.01814,28.55421 -24.23118,54.72008 -54.48381,54.73929c-30.25263,0.01922 -55.05253,-26.11549 -55.07067,-54.66969c-0.01814,-28.5542 24.49178,-51.71754 54.74441,-51.73674c30.25263,-0.01922 54.79195,23.11295 54.81009,51.66715z" fill="#ffd300" stroke="#000000" stroke-width="2.5" stroke-linecap="butt"/><path d="M329.29219,115.4763c0.18586,2.70246 -6.30023,5.34966 -14.48708,5.9127c-8.18686,0.56303 -14.97427,-1.17131 -15.16013,-3.87376c-0.18586,-2.70246 6.30023,-5.34966 14.48708,-5.9127c8.18686,-0.56303 14.97427,1.17131 15.16013,3.87376z" fill-opacity="0.18431" fill="#ff0505" stroke="none" stroke-width="0" stroke-linecap="butt"/><path d="M342.32332,210.08037l1.35939,-15.9839l7.95553,16.08814l-16.93057,-11.25002l21.39737,-2.96129z" fill="none" stroke-opacity="0.67059" stroke="#ffffff" stroke-width="2.5" stroke-linecap="round"/><path d="M287.27862,196.90106c9.88549,-6.98491 22.05551,4.49037 11.59603,12.99528c-4.66874,3.79628 -13.87686,2.42658 -16.79675,-2.88379c-3.1446,-5.71904 3.25091,-11.74956 8.74599,-10.77054" fill="none" stroke-opacity="0.67059" stroke="#ffffff" stroke-width="2.5" stroke-linecap="round"/><path d="M300.15565,203.79374c2.36603,-0.16243 8.03253,-1.41947 9.67204,1.02555c3.07229,4.58177 -5.53243,9.4621 -8.79944,10.08737c-6.4189,1.22849 -14.65586,1.32884 -20.69291,-1.08082c-4.89822,-1.95511 -5.45604,-7.30064 0.49126,-7.70965" fill="none" stroke-opacity="0.67059" stroke="#ffffff" stroke-width="2.5" stroke-linecap="round"/><path d="M285.26906,248.84222c0.15197,-9.92936 -2.21423,-22.24832 0.2762,-31.8776" fill="none" stroke-opacity="0.67059" stroke="#ffffff" stroke-width="2.5" stroke-linecap="round"/><path d="M302.34935,215.80895c3.4164,10.53307 4.68492,21.37235 7.87722,31.87353" fill="none" stroke-opacity="0.67059" stroke="#ffffff" stroke-width="2.5" stroke-linecap="round"/><path d="M291.3904,222.53074c-0.02287,-0.33254 -0.04574,-0.6651 -0.06861,-0.99764" fill="none" stroke-opacity="0.67059" stroke="#ffffff" stroke-width="2.5" stroke-linecap="round"/><path d="M297.07476,222.14902c-0.04574,-0.6651 -0.09148,-1.33019 -0.13722,-1.99529" fill="none" stroke-opacity="0.67059" stroke="#ffffff" stroke-width="2.5" stroke-linecap="round"/><path d="M299.88932,227.00784c0.08696,1.93089 0.18976,6.41198 -1.97649,7.47949c-4.18795,2.0638 -8.08891,-2.24202 -8.33924,-5.88195" fill="none" stroke-opacity="0.67059" stroke="#ffffff" stroke-width="2.5" stroke-linecap="round"/><path d="M366.50429,30.69038l11.94654,2.77461l-31.72154,11.33558l16.8091,3.09405l-14.63993,35.98816" fill="none" stroke="#000000" stroke-width="2.5" stroke-linecap="round"/><path d="M369.87844,29.47753c0.14831,2.15649 -1.5727,4.0313 -3.84398,4.1875c-2.27127,0.1562 -4.23274,-1.46535 -4.38105,-3.62184c-0.14831,-2.15649 1.57269,-4.03129 3.84398,-4.1875c2.27127,-0.1562 4.23275,1.46535 4.38106,3.62183z" fill="#ffd300" stroke="#000000" stroke-width="2.5" stroke-linecap="butt"/><path d="M271.94073,89.93714l-19.42883,-33.64515l16.22728,-5.36606l-32.97471,-6.88622l11.45422,-4.38396" fill="none" stroke="#000000" stroke-width="2.5" stroke-linecap="round"/><path d="M247.55425,34.72877c2.27127,-0.1562 4.23273,1.46534 4.38104,3.62184c0.14831,2.1565 -1.5727,4.03129 -3.84397,4.1875c-2.27127,0.1562 -4.23274,-1.46535 -4.38105,-3.62184c-0.14831,-2.1565 1.57271,-4.03129 3.84398,-4.1875z" fill="#ffd300" stroke="#000000" stroke-width="2.5" stroke-linecap="butt"/><path d="M295.64697,113.21044c0,0 -4.24925,5.45598 -6.22613,5.35103c-1.91932,-0.1019 -5.46757,-5.97186 -5.46757,-5.97186" fill="none" stroke="#000000" stroke-width="2.5" stroke-linecap="round"/><path d="M344.72582,110.48089c0,0 -4.24925,5.45598 -6.22613,5.35103c-1.91932,-0.1019 -5.46757,-5.97186 -5.46757,-5.97186" fill="none" stroke="#000000" stroke-width="2.5" stroke-linecap="round"/><path d="M271.95597,307.74187c0,0 -4.37386,-7.82977 -4.65819,-11.96408c-0.29265,-4.25529 2.92653,-13.21519 2.92653,-13.21519c0,0 37.36838,3.18059 55.3648,1.94292c18.48581,-1.27133 54.1213,-9.47262 54.1213,-9.47262c0,0 3.11767,8.15377 3.40539,12.33736c0.28949,4.20935 -1.67373,12.84191 -1.67373,12.84191c0,0 -32.99146,4.92301 -50.51593,6.12822c-18.8711,1.29783 -58.97017,1.40148 -58.97017,1.40148z" fill="url(#color-4)" stroke="#000000" stroke-width="2.5" stroke-linecap="butt"/><path d="M274.92914,305.85361l-16.44633,-8.32927l15.5885,-9.84159z" fill="url(#color-5)" stroke="#000000" stroke-width="2.5" stroke-linecap="butt"/><path d="M377.95276,279.76634l16.78905,7.61488l-15.15122,10.50232z" fill="url(#color-6)" stroke="#000000" stroke-width="2.5" stroke-linecap="butt"/><path d="M287.15539,287.11054l10.33155,16.6274l-18.59168,-1.68731z" fill="url(#color-7)" stroke="#000000" stroke-width="2.5" stroke-linecap="butt"/><path d="M314.01581,288.86703l18.36532,-1.60427l-8.04735,16.5861z" fill="url(#color-8)" stroke="#000000" stroke-width="2.5" stroke-linecap="butt"/><path d="M361.22208,283.33157l10.12622,13.64186l-18.1788,4.31612z" fill="url(#color-9)" stroke="#000000" stroke-width="2.5" stroke-linecap="butt"/><path d="M293.58346,289.00702l18.6726,2.86396l-8.20018,14.36403z" fill="url(#color-10)" stroke="#000000" stroke-width="2.5" stroke-linecap="butt"/><path d="M346.31954,302.70104l-10.08939,-13.10619l18.10474,-5.39325z" fill="url(#color-11)" stroke="#000000" stroke-width="2.5" stroke-linecap="butt"/><path d="M318.10902,164.30245c0,4.45391 -1.25951,8.06452 -2.8132,8.06452c-1.55369,0 -2.8132,-3.61061 -2.8132,-8.06452c0,-4.45391 1.25951,-8.06452 2.8132,-8.06452c1.55369,0 2.8132,3.61061 2.8132,8.06452z" fill="none" stroke="#000000" stroke-width="2.5" stroke-linecap="butt"/></g></g></svg>