<svg version="1.1" xmlns="http://www.w3.org/2000/svg" xmlns:xlink="http://www.w3.org/1999/xlink" width="34.17311" height="34.17311" viewBox="0,0,34.17311,34.17311"><g transform="translate(-302.91346,-162.91346)"><g data-paper-data="{&quot;isPaintingLayer&quot;:true}" stroke="none" stroke-miterlimit="10" stroke-dasharray="" stroke-dashoffset="0" style="mix-blend-mode: normal"><path d="M309.98313,162.91346h20.03378c3.9166,0 7.06966,3.15307 7.06966,7.06966v20.03379c0,3.91659 -3.15306,7.06966 -7.06966,7.06966h-20.03378c-3.91659,0 -7.06967,-3.15307 -7.06967,-7.06966v-20.03379c0,-3.91659 3.15308,-7.06966 7.06967,-7.06966z" fill="#a7a7a7" fill-rule="evenodd" stroke-width="4.43922" stroke-linecap="round" stroke-linejoin="round"/><path d="M332.66431,189.28263c-0.74995,0.00827 -0.75823,-0.74168 -0.75823,-0.74168l-0.00592,-0.53847c-0.04985,-2.79596 -0.02223,-5.68305 -0.3413,-8.4576c-0.10915,-0.96432 -0.27429,-1.92375 -0.49102,-2.86971c-0.05707,-0.24909 -0.86785,-3.71404 -0.86861,-3.71428c-0.76187,-0.23456 -1.03373,1.22364 -1.64282,1.73791c-1.46417,1.23622 -3.01767,4.46638 -4.74915,5.17778c-0.53114,0.21823 -2.21414,-0.71202 -2.64721,-0.81577c-1.09181,-0.26157 -2.45034,0.99394 -3.43109,0.57529c-0.99364,-0.42416 -3.1688,-3.14278 -4.15703,-3.9129c-1.17709,-0.9173 -2.35659,-1.8129 -3.56285,-2.69064c-0.39168,-0.28501 -1.14228,-1.40096 -1.12751,-0.91679c0.17534,5.74628 -1.18622,11.69 -1.41359,17.48796c0,0 -0.02939,0.74942 -0.77881,0.72003c-0.74942,-0.02939 -0.72003,-0.77881 -0.72003,-0.77881c0.18594,-4.74154 0.85252,-9.36471 1.23666,-14.08517c0.07017,-0.86234 -0.03781,-3.85895 0.68308,-4.46853c1.59118,-1.34549 5.45331,2.65121 6.60509,3.54879c1.14329,0.89096 2.68523,3.06752 3.75514,3.68913c0.14651,0.08512 2.7,-0.74234 3.19461,-0.64129c0.69068,0.14111 1.33913,1.2258 1.93612,0.85089c2.02766,-1.27336 3.19511,-4.40086 5.36532,-5.86436c0.59171,-0.39903 1.17432,-1.24802 1.86196,-1.05699c0.68247,0.18959 0.7237,1.22012 1.02786,1.8598c0.8716,1.83305 1.18534,4.00334 1.41425,5.99777c0.31934,2.82432 0.29967,5.75538 0.35071,8.60067l0.00607,0.54874c0,0 0.00827,0.74995 -0.74168,0.75823z" fill="#000000" fill-rule="nonzero" stroke-width="0.5" stroke-linecap="butt" stroke-linejoin="miter"/></g></g></svg>