<svg version="1.1" xmlns="http://www.w3.org/2000/svg" xmlns:xlink="http://www.w3.org/1999/xlink" width="203.59789" height="321.22083" viewBox="0,0,203.59789,321.22083"><defs><linearGradient x1="334.02387" y1="62.78268" x2="395.7358" y2="66.93932" gradientUnits="userSpaceOnUse" id="color-1"><stop offset="0" stop-color="#000000"/><stop offset="1" stop-color="#d31b1b"/></linearGradient><linearGradient x1="229.2706" y1="70.90874" x2="294.63408" y2="75.31135" gradientUnits="userSpaceOnUse" id="color-2"><stop offset="0" stop-color="#d31b1b"/><stop offset="1" stop-color="#16031b"/></linearGradient><linearGradient x1="317.9457" y1="63.00824" x2="314.48903" y2="114.32781" gradientUnits="userSpaceOnUse" id="color-3"><stop offset="0" stop-color="#d31b1b"/><stop offset="1" stop-color="#670000"/></linearGradient><radialGradient cx="321.17925" cy="229.40027" r="33.16925" gradientUnits="userSpaceOnUse" id="color-4"><stop offset="0" stop-color="#ee2828"/><stop offset="1" stop-color="#500000"/></radialGradient><radialGradient cx="322.99766" cy="216.48193" r="28.48101" gradientUnits="userSpaceOnUse" id="color-5"><stop offset="0" stop-color="#ee2828"/><stop offset="1" stop-color="#500000"/></radialGradient></defs><g transform="translate(-218.584,-21.53826)"><g stroke-miterlimit="10"><path d="M280.49948,341.50674l-8.30583,-147.05439c0,0 4.9692,-25.93669 13.9499,-26.73002c8.91857,-0.78784 30.0753,-2.25839 48.54019,-3.88954c20.02734,-1.76917 27.71247,15.08161 27.71247,15.08161l6.53583,162.41644z" fill="#000000" stroke="#000000" stroke-width="2.5" stroke-linecap="butt"/><path d="M334.88302,175.86376c0.08638,6.40288 -7.12386,11.69164 -16.10451,11.81279c-8.98065,0.12115 -16.33092,-4.97119 -16.4173,-11.37406c-0.08638,-6.40288 7.12385,-11.69164 16.1045,-11.81279c8.98065,-0.12115 16.33093,4.9712 16.41731,11.37406z" fill="#ee2828" stroke="#000000" stroke-width="2.5" stroke-linecap="butt"/><path d="M368.03413,95.16267c0.02108,8.33066 -29.82804,17.11414 -66.66988,19.61849c-36.84183,2.50433 -66.72514,-2.21882 -66.74622,-10.54948c-0.02107,-8.33065 29.82803,-17.11414 66.66988,-19.61848c36.84183,-2.50433 66.72515,2.21882 66.74623,10.54948z" fill="#580b0b" stroke="#000000" stroke-width="2.5" stroke-linecap="butt"/><path d="M333.45705,71.19814l36.341,-4.95842l24.25908,-40.52085l1.87985,38.2337l-14.18302,39.2144l-15.91633,2.86594l-2.08397,-12.91564l-11.95119,-14.67671z" fill="url(#color-1)" stroke="#000000" stroke-width="2.5" stroke-linecap="round"/><path d="M276.68597,83.30352l-11.19983,15.25779l-1.43341,13.00393l-16.04005,-2.06385l-16.13245,-38.45349l-0.04063,-38.27986l26.26137,39.25281l36.544,3.12903z" fill="url(#color-2)" stroke="#000000" stroke-width="2.5" stroke-linecap="round"/><path d="M369.35146,122.4024c-0.71045,28.54537 -25.61952,54.08398 -55.86279,53.33127c-30.24327,-0.75271 -54.36825,-27.51171 -53.6578,-56.05707c0.71045,-28.54536 25.80342,-51.07578 56.0467,-50.32305c30.24327,0.75271 54.18436,24.50349 53.47391,53.04885z" fill="#ee2828" stroke="#000000" stroke-width="2.5" stroke-linecap="butt"/><path d="M330.067,116.4236c-0.0674,2.70801 -6.7724,4.73775 -14.97605,4.53358c-8.20365,-0.20417 -14.79938,-2.56496 -14.73198,-5.27296c0.0674,-2.70801 6.77241,-4.73775 14.97606,-4.53358c8.20365,0.20417 14.79938,2.56496 14.73199,5.27296z" fill-opacity="0.23137" fill="#000000" stroke="none" stroke-width="0" stroke-linecap="butt"/><path d="M293.35926,114.32121c-0.0556,2.23417 -2.08854,3.99586 -4.54068,3.93483c-2.45215,-0.06103 -4.39492,-1.92166 -4.33932,-4.15583c0.0556,-2.23418 2.08854,-3.99586 4.54068,-3.93483c2.45215,0.06103 4.39491,1.92165 4.33931,4.15584z" fill="#ffffff" stroke="#000000" stroke-width="2.5" stroke-linecap="butt"/><path d="M347.55013,115.74677c-0.0556,2.23418 -2.08854,3.99586 -4.54068,3.93483c-2.45215,-0.06103 -4.39491,-1.92166 -4.33931,-4.15583c0.0556,-2.23417 2.08853,-3.99585 4.54068,-3.93482c2.45215,0.06103 4.39492,1.92165 4.33932,4.15583z" fill="#ffffff" stroke="#000000" stroke-width="2.5" stroke-linecap="butt"/><path d="M371.19149,89.65402c-0.22845,4.0389 -0.9686,14.33158 -0.9686,14.33158l-54.68341,3.64173l-54.46266,3.10284c0,0 -0.62983,-10.85742 -0.4072,-14.79354c0.90613,-16.02045 26.38188,-30.41402 56.90164,-32.14891c30.51976,-1.7349 54.52636,9.84585 53.62023,25.8663zM330.90628,80.33484c-15.20105,0.8641 -27.88981,8.03315 -28.34114,16.01249c-0.11089,1.96046 0.20282,7.36824 0.20282,7.36824l27.12634,-1.54543l27.23629,-1.81385c0,0 0.36865,-5.12649 0.48245,-7.13815c0.45132,-7.97934 -11.50569,-13.74739 -26.70675,-12.88329z" fill="url(#color-3)" stroke="#000000" stroke-width="2.5" stroke-linecap="butt"/><path d="M361.6564,102.4405l-61.38423,3.8656" fill="none" stroke="#000000" stroke-width="2.5" stroke-linecap="round"/><path d="M325.15141,65.41288c0,0 3.49162,3.52398 4.35851,5.9286c0.9142,2.53584 0.99231,8.91371 0.99231,8.91371" fill="none" stroke-opacity="0.48235" stroke="#000000" stroke-width="2.5" stroke-linecap="round"/><path d="M277.43499,109.40374c0,0 -1.16088,-22.79943 6.27517,-29.98852c7.95165,-7.68758 39.99175,-14.74187 39.99175,-14.74187c0,0 20.97233,4.38465 28.61547,11.38206c6.07811,5.56461 13.63339,27.29747 13.63339,27.29747" fill="none" stroke-opacity="0.48235" stroke="#000000" stroke-width="2.5" stroke-linecap="round"/><path d="M328.09515,62.37275c-0.04908,1.97164 -2.10779,3.5197 -4.59827,3.45772c-2.49048,-0.06198 -4.46965,-1.71056 -4.42057,-3.68219c0.04908,-1.97164 2.10779,-3.5197 4.59828,-3.45772c2.49048,0.06198 4.46964,1.71056 4.42057,3.68219z" fill="#d31b1b" stroke="#000000" stroke-width="2.5" stroke-linecap="butt"/><path d="M328.56637,113.96443c0,0 0.9321,-3.04571 5.13513,-2.99057c7.51464,0.09858 31.42525,0.4123 31.42525,0.4123" fill="none" stroke="#000000" stroke-width="2.5" stroke-linecap="round"/><path d="M346.36138,254.02766l-51.79669,-16.41486l-0.83046,25.32997l32.98976,-39.59534l21.90029,-27.48966" fill="none" stroke="url(#color-4)" stroke-width="2.5" stroke-linecap="round"/><path d="M294.39433,207.60769l57.20664,17.74848" fill="none" stroke="url(#color-5)" stroke-width="2.5" stroke-linecap="round"/><g><path d="M249.30014,228.21921c11.48267,2.18175 28.58172,3.25032 23.17173,20.24547c-1.26161,3.9633 -4.54297,5.53634 -6.49504,8.59192c-2.28057,3.56979 -0.50931,8.98798 -2.25949,12.75333c-0.96731,2.0811 -3.61852,3.13366 -4.25432,5.50249c-0.57916,2.15778 0.32776,4.79304 -0.74888,6.91883c-2.53541,5.00605 -13.61112,6.32592 -18.28952,4.79935c-3.06198,-0.99913 -15.22237,-3.81642 -16.67296,-6.07676c-0.95209,-1.48357 -0.7792,-4.09984 -1.26794,-5.81213c-0.72632,-2.54461 -2.02654,-4.9683 -2.64972,-7.51823c-1.81535,-7.42814 0.64351,-18.494 2.76963,-25.64406c0.84236,-2.83283 3.10003,-5.22517 4.13428,-7.98357c1.07786,-2.87471 1.61238,-6.8035 4.08401,-8.99318c2.42831,-2.15129 15.26339,2.44353 18.39993,3.19773z" fill="#ee2828" stroke="#000000" stroke-width="2.5" stroke-linecap="round"/><path d="M255.65411,247.04719c6.75999,1.28442 12.07125,3.21397 11.86305,4.30977c-0.2082,1.0958 -5.85703,0.9429 -12.61702,-0.34152c-6.75999,-1.28442 -12.07126,-3.21397 -11.86306,-4.30977c0.2082,-1.0958 5.85704,-0.9429 12.61703,0.34152z" fill-opacity="0.23137" fill="#000000" stroke="none" stroke-width="0" stroke-linecap="butt"/><path d="M250.00868,265.89188c5.34349,2.7201 9.1741,5.90966 8.55589,7.1241c-0.6182,1.21443 -5.45112,-0.00615 -10.79461,-2.72625c-5.34349,-2.7201 -9.17409,-5.90967 -8.55588,-7.1241c0.6182,-1.21443 5.45111,0.00616 10.7946,2.72626z" fill-opacity="0.23137" fill="#000000" stroke="none" stroke-width="0" stroke-linecap="butt"/><path d="M233.83985,241.01978c0.91037,0.17297 1.50814,1.05118 1.33516,1.96155c-0.17297,0.91037 -1.05118,1.50814 -1.96155,1.33516c-0.91037,-0.17297 -1.50815,-1.05118 -1.33517,-1.96155c0.17297,-0.91037 1.05119,-1.50814 1.96156,-1.33516z" fill-opacity="0.23137" fill="#000000" stroke="none" stroke-width="0" stroke-linecap="butt"/><path d="M229.15844,261.42845c0.80326,0.15262 1.31421,1.01434 1.14125,1.9247c-0.17297,0.91037 -0.96437,1.52464 -1.76763,1.37202c-0.80326,-0.15262 -1.31421,-1.01435 -1.14125,-1.92471c0.17297,-0.91037 0.96437,-1.52463 1.76763,-1.37201z" fill-opacity="0.23137" fill="#000000" stroke="none" stroke-width="0" stroke-linecap="butt"/></g><g><path d="M390.00798,254.51274c3.11505,-0.83853 15.82151,-5.7779 18.30697,-3.69291c2.5298,2.12221 3.1701,6.03515 4.32511,8.87974c1.10829,2.72951 3.42967,5.06006 4.34814,7.86914c2.31823,7.09009 5.0747,18.08561 3.46038,25.56002c-0.55417,2.56583 -1.78854,5.0237 -2.44595,7.58698c-0.44237,1.72484 -0.19898,4.33549 -1.1107,5.8442c-1.38908,2.29865 -13.46906,5.44295 -16.50297,6.52431c-4.63552,1.65222 -15.7428,0.63159 -18.41233,-4.30424c-1.1336,-2.09596 -0.29808,-4.75474 -0.93524,-6.89611c-0.69946,-2.35081 -3.37812,-3.33148 -4.40121,-5.38572c-1.85111,-3.71677 -0.22666,-9.18077 -2.60268,-12.68774c-2.03377,-3.00181 -5.35638,-4.48577 -6.72444,-8.41359c-5.86647,-16.84304 11.19752,-18.37247 22.61717,-20.86318z" fill="#ee2828" stroke="#000000" stroke-width="2.5" stroke-linecap="round"/><path d="M396.6897,272.84448c0.23768,1.08978 -5.0196,3.16191 -11.74248,4.62821c-6.72288,1.46631 -12.36554,1.77153 -12.60323,0.68175c-0.23768,-1.08978 5.0196,-3.1619 11.74248,-4.6282c6.72288,-1.46631 12.36554,-1.77154 12.60323,-0.68175z" fill-opacity="0.23137" fill="#000000" stroke="none" stroke-width="0" stroke-linecap="butt"/><path d="M400.95532,289.19531c0.65074,1.19731 -3.09243,4.48905 -8.3606,7.3523c-5.26817,2.86325 -10.0664,4.21377 -10.71714,3.01646c-0.65074,-1.19731 3.09243,-4.48905 8.3606,-7.3523c5.26817,-2.86325 10.0664,-4.21377 10.71714,-3.01646z" fill-opacity="0.23137" fill="#000000" stroke="none" stroke-width="0" stroke-linecap="butt"/><path d="M407.72706,268.19432c0.19746,0.90537 -0.3764,1.79939 -1.28178,1.99685c-0.90537,0.19746 -1.79939,-0.37639 -1.99685,-1.28176c-0.19746,-0.90537 0.37639,-1.79939 1.28176,-1.99685c0.90537,-0.19746 1.7994,0.37639 1.99686,1.28176z" fill-opacity="0.23137" fill="#000000" stroke="none" stroke-width="0" stroke-linecap="butt"/><path d="M412.76444,288.51133c0.19746,0.90537 -0.29005,1.78056 -1.0889,1.9548c-0.79885,0.17423 -1.60654,-0.41847 -1.804,-1.32384c-0.19746,-0.90537 0.29005,-1.78055 1.0889,-1.95479c0.79885,-0.17423 1.60654,0.41846 1.804,1.32383z" fill-opacity="0.23137" fill="#000000" stroke="none" stroke-width="0" stroke-linecap="butt"/></g><path d="M286.83139,161.72838l8.54912,-4.23577l15.25751,0.65663l28.99799,-2.43136l9.74281,4.44464z" fill="#ffffff" stroke="#000000" stroke-width="2.5" stroke-linecap="round"/></g></g></svg>