<svg version="1.1" xmlns="http://www.w3.org/2000/svg" xmlns:xlink="http://www.w3.org/1999/xlink" width="167.72622" height="306.91045" viewBox="0,0,167.72622,306.91045"><defs><linearGradient x1="318.55939" y1="171.30426" x2="318.64511" y2="350.1366" gradientUnits="userSpaceOnUse" id="color-1"><stop offset="0" stop-color="#676767"/><stop offset="1" stop-color="#313131"/></linearGradient><linearGradient x1="349.99612" y1="172.35035" x2="350.08279" y2="353.15477" gradientUnits="userSpaceOnUse" id="color-2"><stop offset="0" stop-color="#2e2e2e"/><stop offset="1" stop-color="#2b2b2b"/></linearGradient><linearGradient x1="288.18953" y1="171.13132" x2="288.2762" y2="351.93574" gradientUnits="userSpaceOnUse" id="color-3"><stop offset="0" stop-color="#2e2e2e"/><stop offset="1" stop-color="#2b2b2b"/></linearGradient><linearGradient x1="319.92175" y1="171.06083" x2="319.93491" y2="198.49331" gradientUnits="userSpaceOnUse" id="color-4"><stop offset="0" stop-color="#575757"/><stop offset="1" stop-color="#9c9c9c"/></linearGradient><linearGradient x1="319.687" y1="78.66654" x2="319.73803" y2="185.10214" gradientUnits="userSpaceOnUse" id="color-5"><stop offset="0" stop-color="#1a1a1a"/><stop offset="1" stop-color="#9c9c9c"/></linearGradient><radialGradient cx="355.9985" cy="101.56166" r="26.54055" gradientUnits="userSpaceOnUse" id="color-6"><stop offset="0" stop-color="#000000" stop-opacity="0.92549"/><stop offset="1" stop-color="#000000" stop-opacity="0"/></radialGradient><radialGradient cx="283.63363" cy="105.45719" r="25.35587" gradientUnits="userSpaceOnUse" id="color-7"><stop offset="0" stop-color="#000000" stop-opacity="0.92549"/><stop offset="1" stop-color="#000000" stop-opacity="0"/></radialGradient><linearGradient x1="274.72804" y1="45.14502" x2="278.30704" y2="130.26861" gradientUnits="userSpaceOnUse" id="color-8"><stop offset="0" stop-color="#9c9c9c"/><stop offset="1" stop-color="#2c2c2c"/></linearGradient><linearGradient x1="361.37614" y1="46.27509" x2="361.41845" y2="134.53431" gradientUnits="userSpaceOnUse" id="color-9"><stop offset="0" stop-color="#9c9c9c"/><stop offset="1" stop-color="#2c2c2c"/></linearGradient><linearGradient x1="284.17343" y1="188.75239" x2="284.18339" y2="209.54107" gradientUnits="userSpaceOnUse" id="color-10"><stop offset="0" stop-color="#878787"/><stop offset="1" stop-color="#848484"/></linearGradient><linearGradient x1="125.12902" y1="94.08137" x2="125.12962" y2="95.33137" gradientUnits="userSpaceOnUse" id="color-11"><stop offset="0" stop-color="#878787"/><stop offset="1" stop-color="#848484"/></linearGradient></defs><g transform="translate(-234.92212,-46.2553)"><g stroke-miterlimit="10"><path d="M271.59678,346.52053l-2.19983,-147.27475c0,0 6.61245,-25.70138 16.42048,-26.11131c9.74018,-0.40709 32.82738,-0.97479 52.99328,-1.81764c21.87229,-0.91416 28.69959,25.96092 28.69959,25.96092l0.3106,152.83528z" fill="url(#color-1)" stroke="#000000" stroke-width="0" stroke-linecap="butt"/><path d="M327.16636,353.16575l9.70959,-98.7136c0,0 -6.50955,-81.00173 3.6838,-80.10294c9.3981,0.82867 14.26062,-2.36837 18.79992,-1.96812c4.57093,0.40303 13.56722,29.84828 13.56722,29.84828l-0.92164,147.27625z" fill="url(#color-2)" stroke="#000000" stroke-width="0" stroke-linecap="butt"/><path d="M266.35027,348.30762l-1.06285,-147.2753c0,0 8.96805,-29.45385 13.53858,-29.86127c4.53892,-0.40459 9.40449,2.78778 18.8018,1.9501c10.19249,-0.90857 3.76061,80.09936 3.76061,80.09936l9.80423,98.70426z" fill="url(#color-3)" stroke="#000000" stroke-width="0" stroke-linecap="butt"/><path d="M333.3764,184.77062c0.00363,7.57527 -6.01432,13.71912 -13.44149,13.72269c-7.42717,0.00356 -13.45101,-6.13452 -13.45464,-13.70979c-0.00363,-7.57527 6.01432,-13.71912 13.44149,-13.72269c7.42717,-0.00356 13.45101,6.13452 13.45464,13.70979z" fill="url(#color-4)" stroke="#000000" stroke-width="0" stroke-linecap="butt"/><path d="M374.36401,134.0828c-1.92738,28.48909 -27.9031,52.94198 -58.08674,50.89995c-30.18364,-2.04202 -53.14528,-29.8057 -51.2179,-58.29477c1.92738,-28.48908 27.95853,-49.92866 58.14217,-47.88663c30.18364,2.04202 53.08988,26.79237 51.1625,55.28145z" fill="url(#color-5)" stroke="#000000" stroke-width="0" stroke-linecap="butt"/><path d="M334.63805,131.57757c0.0013,2.70884 -6.65008,4.90797 -14.85627,4.91191c-8.2062,0.00393 -14.85967,-2.18883 -14.86097,-4.89767c-0.0013,-2.70884 6.65008,-4.90797 14.85627,-4.91191c8.2062,-0.00393 14.85967,2.18883 14.86097,4.89767z" fill-opacity="0.18431" fill="#000000" stroke="none" stroke-width="0" stroke-linecap="butt"/><path d="M274.71631,147.43634c0.51839,-0.09071 2.96858,0.04778 1.70239,1.39521c-0.2789,0.29679 -1.69864,0.1631 -1.95913,-0.06829c-0.40026,-0.35555 0.751,-1.09625 0.45288,-1.54093c-0.18562,-0.27687 -0.58848,0.70228 -0.86043,0.50955c-0.27195,-0.19274 0.13043,-0.65378 0.19565,-0.98067z" fill="none" stroke="#000000" stroke-width="2.5" stroke-linecap="round"/><path d="M285.58553,148.7696c-2.65429,-0.86275 1.20165,-1.90311 1.43188,-0.79499c0.41068,1.97672 -4.39341,-0.76933 -0.17191,-0.77135" fill="none" stroke="#000000" stroke-width="2.5" stroke-linecap="round"/><path d="M280.29976,153.14756c4.50679,-0.679 -0.26651,3.30501 -0.94749,1.88147c-0.29535,-0.61741 1.16005,-1.25533 0.85368,-1.86734z" fill="none" stroke="#000000" stroke-width="2.5" stroke-linecap="round"/><path d="M352.02162,149.18724c0.57911,-0.2135 1.91508,-0.55012 1.85052,0.0637c-0.00325,0.03099 -3.78122,1.01674 -1.97668,-1.39172" fill="none" stroke="#000000" stroke-width="2.5" stroke-linecap="round"/><path d="M361.0684,149.47991c0.99736,2.11494 -2.11041,1.0296 -0.01025,-0.02173z" fill="none" stroke="#000000" stroke-width="2.5" stroke-linecap="round"/><path d="M357.01768,155.2498c-0.31705,0.13492 -3.01312,1.13038 -2.21669,-0.58549c0.29917,-0.64457 2.65124,-0.81501 2.34453,0.53962c-0.13739,0.60678 -2.49602,1.35606 -1.12391,-0.47525z" fill="none" stroke="#000000" stroke-width="2.5" stroke-linecap="round"/><path d="M333.17505,86.68913c2.95757,-14.28272 15.57356,-19.2025 28.1786,-10.98861c12.60504,8.21389 20.42586,26.45098 17.46829,40.73371c-2.95757,14.28272 -15.57357,19.2025 -28.17861,10.98861c-12.60504,-8.21389 -20.42585,-26.45098 -17.46828,-40.73369z" fill="url(#color-6)" stroke="#000000" stroke-width="0" stroke-linecap="butt"/><path d="M305.42543,90.31692c2.83791,14.51375 -4.61803,33.05803 -16.65332,41.4198c-12.03529,8.36176 -24.0924,3.37457 -26.93031,-11.1392c-2.83791,-14.51377 4.61804,-33.05804 16.65333,-41.41982c12.03529,-8.36176 24.09239,-3.37456 26.9303,11.13921z" fill="url(#color-7)" stroke="#000000" stroke-width="0" stroke-linecap="butt"/><path d="M268.67939,130.67341l-33.75727,-83.85474l69.80833,37.87949c0,0 -4.51736,18.73938 -9.83005,25.51456c-6.47346,8.25548 -26.22102,20.46071 -26.22102,20.46071z" fill="url(#color-8)" stroke="#000000" stroke-width="0" stroke-linecap="butt"/><path d="M334.65315,84.18719l67.99519,-37.93189l-31.24759,88.27425c0,0 -19.23505,-16.69035 -25.61729,-25.43371c-5.81386,-7.96469 -11.13031,-24.90864 -11.13031,-24.90864z" fill="url(#color-9)" stroke="#000000" stroke-width="0" stroke-linecap="butt"/><path d="M335.09352,226.13789l-29.42956,-1.71699" fill="none" stroke-opacity="0.45098" stroke="#000000" stroke-width="2.5" stroke-linecap="round"/><path d="M333.65618,237.10223l-29.42873,0.01411" fill="none" stroke-opacity="0.45098" stroke="#000000" stroke-width="2.5" stroke-linecap="round"/><path d="M302.78999,247.79216l34.33312,-0.882" fill="none" stroke-opacity="0.45098" stroke="#000000" stroke-width="2.5" stroke-linecap="round"/><path d="M303.08401,259.33271l32.89093,-0.01577" fill="none" stroke-opacity="0.45098" stroke="#000000" stroke-width="2.5" stroke-linecap="round"/><path d="M334.5382,271.43534l-28.56305,0.30221" fill="none" stroke-opacity="0.45098" stroke="#000000" stroke-width="2.5" stroke-linecap="round"/><path d="M307.13586,285.58582l25.96612,-0.878" fill="none" stroke-opacity="0.45098" stroke="#000000" stroke-width="2.5" stroke-linecap="round"/><path d="M329.64585,297.40422l-19.9074,0.58657" fill="none" stroke-opacity="0.45098" stroke="#000000" stroke-width="2.5" stroke-linecap="round"/><path d="M310.60873,307.79996l18.17643,-0.29723" fill="none" stroke-opacity="0.45098" stroke="#000000" stroke-width="2.5" stroke-linecap="round"/><path d="M329.65595,318.46595l-18.17629,0.58575" fill="none" stroke-opacity="0.45098" stroke="#000000" stroke-width="2.5" stroke-linecap="round"/><path d="M335.66531,215.17398l-29.71809,-1.71685" fill="none" stroke-opacity="0.45098" stroke="#000000" stroke-width="2.5" stroke-linecap="round"/><path d="M306.51954,203.64727l26.54398,0.85283" fill="none" stroke-opacity="0.45098" stroke="#000000" stroke-width="2.5" stroke-linecap="round"/><path d="M340.5257,232.96116l-0.58755,-21.92702l29.71754,0.5628l-1.72211,18.75443" fill="none" stroke-opacity="0.45098" stroke="#000000" stroke-width="2.5" stroke-linecap="round"/><path d="M353.79776,233.53183l-0.55089,54.52999l-1.12461,61.45468" fill="none" stroke-opacity="0.45098" stroke="#000000" stroke-width="2.5" stroke-linecap="round"/><path d="M295.43003,199.14134c0.00275,5.74064 -5.03254,10.39676 -11.24662,10.39973c-6.21409,0.00298 -11.25384,-4.64832 -11.25659,-10.38894c-0.00275,-5.74064 5.03254,-10.39676 11.24662,-10.39973c6.21409,-0.00298 11.25384,4.64832 11.25659,10.38894z" fill="url(#color-10)" stroke="#000000" stroke-width="0" stroke-linecap="butt"/><path d="M250.41657,184.48225z" fill="url(#color-11)" stroke="#000000" stroke-width="2.5" stroke-linecap="butt"/><path d="M345.20044,132.6118l-3.88966,-2.08134l9.25889,-1.33224" fill="none" stroke="#000000" stroke-width="2.5" stroke-linecap="round"/><path d="M353.53269,131.35788l-10.27712,0.14381" fill="none" stroke="#000000" stroke-width="2.5" stroke-linecap="round"/><path d="M286.45275,130.41788l9.16627,0.27337" fill="none" stroke="#000000" stroke-width="2.5" stroke-linecap="round"/><path d="M298.72685,178.11984l6.45698,-1.66961l16.04117,1.86715l13.74771,-2.29806l8.95796,0.82897" fill="none" stroke="#000000" stroke-width="2.5" stroke-linecap="round"/><path d="M277.35571,132.1779l-0.19735,4.06045l-2.34506,0.13251l-1.53702,-2.51553" fill="none" stroke="#000000" stroke-width="2.5" stroke-linecap="round"/><path d="M278.06255,139.52871l-0.80646,2.49181l-1.87478,-0.01898l-1.24195,-0.79381" fill="none" stroke="#000000" stroke-width="2.5" stroke-linecap="round"/><path d="M289.6408,128.42527l9.15242,0.63778l-6.40006,6.58924" fill="none" stroke="#000000" stroke-width="2.5" stroke-linecap="round"/></g></g></svg>