<svg version="1.1" xmlns="http://www.w3.org/2000/svg" xmlns:xlink="http://www.w3.org/1999/xlink" width="152.6419" height="369.70539" viewBox="0,0,152.6419,369.70539"><g transform="translate(-230.36117,13.96721)"><g data-paper-data="{&quot;isPaintingLayer&quot;:true}" fill-rule="nonzero" stroke-width="2" stroke-linejoin="miter" stroke-miterlimit="10" stroke-dasharray="" stroke-dashoffset="0" style="mix-blend-mode: normal"><g><path d="M349.26347,198.10217c2.51652,-3.89096 5.62773,-11.18797 8.9317,-12.22647c6.26376,-1.96883 17.6164,11.59153 16.36891,26.94801c-0.20434,2.51544 -0.93738,8.02086 -2.70784,7.06062c-0.38668,-0.20974 -1.72635,-2.92411 -2.071,-2.32659c-0.11319,0.19624 0.30506,5.2455 0.24675,6.02034c-0.31099,4.1322 -1.40938,8.50243 -3.44693,9.76108c-1.99822,1.23436 -3.51312,-6.35661 -4.38671,-5.99374c-1.31188,0.54492 -2.57357,10.30516 -7.14932,5.27778c-2.47589,-2.72026 -3.85903,-14.92714 -4.08827,-15.16703c-1.19041,-1.2458 -4.79122,3.76346 -7.6044,-4.17576c-2.58733,-7.30192 2.74416,-15.95616 5.73402,-15.51211z" fill="#feed00" stroke="#000000" stroke-linecap="round"/><path d="M366.4398,206.71753c-0.41329,2.2295 -1.30348,3.71306 -2.40219,4.36198c-1.21613,0.7183 -2.31189,-2.76453 -3.67505,-4.21145c-1.42263,-1.51004 -2.80762,-0.77258 -3.28551,-3.44405c-0.39371,-2.20093 -0.42683,-4.55822 -0.03349,-6.68004c0.87076,-4.69726 3.68007,-6.27251 6.27478,-3.51838c2.5947,2.75413 3.99222,8.79466 3.12146,13.49192z" fill="#ffa600" stroke="none" stroke-linecap="butt"/><path d="M349.32152,211.6423c-0.29757,2.68039 -1.75068,3.88794 -3.24563,2.69719c-1.49494,-1.19077 -2.4656,-4.32896 -2.16803,-7.00934c0.29757,-2.68039 1.75068,-3.88794 3.24562,-2.69719c1.49494,1.19077 2.46561,4.32896 2.16804,7.00934z" fill="#ffa600" stroke="none" stroke-linecap="butt"/><path d="M359.61796,228.36601c-0.2936,2.64464 -1.72836,3.83531 -3.20461,2.65941c-1.47626,-1.17587 -2.43499,-4.27304 -2.14139,-6.91768c0.2936,-2.64464 1.72836,-3.83531 3.20461,-2.65942c1.47626,1.17587 2.43499,4.27304 2.14139,6.91768z" fill="#ffa600" stroke="none" stroke-linecap="butt"/><path d="M368.20169,226.68092c-0.28964,2.60891 -1.50909,3.93953 -2.72373,2.97203c-1.21464,-0.9675 -1.9645,-3.86675 -1.67486,-6.47565c0.28964,-2.60891 1.50909,-3.93953 2.72373,-2.97203c1.21464,0.9675 1.9645,3.86673 1.67486,6.47565z" fill="#ffa600" stroke="none" stroke-linecap="butt"/><path d="M373.72375,212.76699c-0.27375,2.46595 -1.16223,3.93407 -1.98445,3.27916c-0.82222,-0.65494 -1.26682,-3.18487 -0.99306,-5.65083c0.27375,-2.46595 1.16223,-3.93407 1.98445,-3.27916c0.82222,0.65494 1.26682,3.18487 0.99306,5.65083z" fill="#ffa600" stroke="none" stroke-linecap="butt"/></g><path d="M303.90527,232.19154c-6.83451,4.02304 -17.30429,0.96095 -24.29127,-1.84444c-21.13416,-8.4857 -46.36455,-30.7633 -48.25283,-62.94358c-1.27714,-21.76501 11.44991,-36.79983 24.25442,-47.1506c4.85781,-3.92691 15.17112,-10.61733 18.56241,-1.16845c0.90248,2.5145 1.06736,5.26126 0.14282,7.84599c-1.99734,5.58393 -8.54796,7.11621 -12.09062,10.77459c-10.70462,11.05426 -15.46243,27.73919 -8.48751,43.93211c7.38506,17.14512 23.82129,22.98363 37.81454,20.4878c7.23356,-1.29018 14.37737,-5.84314 21.87897,-3.29724c22.24073,7.54808 4.91104,30.44912 -8.45903,33.70213z" fill="#feed00" stroke="#000000" stroke-linecap="round"/><path d="M297.47812,226.86256c5.02886,-0.12489 11.83092,-1.45514 16.88481,-2.45473c5.51048,-1.0899 12.97547,0 18.62217,0c3.31697,0 10.84637,-0.99877 13.46979,0.76974c1.69816,1.14478 1.59235,4.12703 2.00414,5.66117c1.53018,5.70083 0.69301,11.94087 2.22576,17.75374c1.81061,6.86664 0.09778,13.89607 0.85725,20.93782c1.41974,13.16369 2.24045,26.53534 -1.73373,39.85746c-1.73788,5.82569 5.48307,12.84584 -2.27869,16.40717c-2.74852,1.26109 -9.56785,9.28625 -12.6218,9.28625c-4.43038,0 -9.81538,-5.68656 -15.24153,-6.94096c-6.90903,-1.59721 -16.0242,3.40841 -21.181,1.64326c-2.58125,-0.88356 -5.97278,-4.61167 -7.3155,-6.82585c-1.68314,-2.77556 1.31696,-15.39354 1.49035,-19.12713c0.85267,-18.36043 0.12272,-28.48264 0.97383,-46.85918c0.27968,-6.03843 -0.18552,-25.88236 2.60057,-30.10777z" fill="#3c2c1f" stroke="#000000" stroke-linecap="round"/><g><path d="M292.65601,203.45684c2.98986,-0.44405 8.32135,8.21019 5.73401,15.5121c-2.81317,7.93922 -6.41397,2.92996 -7.60439,4.17576c-0.22924,0.23989 -1.61238,12.44677 -4.08827,15.16703c-4.57574,5.0274 -5.83745,-4.73285 -7.14932,-5.27778c-0.87359,-0.36287 -2.38848,7.2281 -4.38671,5.99373c-2.03755,-1.25865 -3.13594,-5.62888 -3.44693,-9.76108c-0.05831,-0.77484 0.35992,-5.8241 0.24675,-6.02034c-0.34464,-0.59752 -1.6843,2.11685 -2.071,2.32659c-1.77046,0.96025 -2.5035,-4.54518 -2.70784,-7.06062c-1.24749,-15.35648 10.10514,-28.91683 16.36891,-26.948c3.30398,1.03852 6.41518,8.33551 8.93171,12.22647z" fill="#feed00" stroke="#000000" stroke-linecap="round"/><path d="M278.42805,198.91414c2.5947,-2.75413 5.40402,-1.1789 6.27479,3.51836c0.39334,2.12183 0.36021,4.47911 -0.03349,6.68004c-0.47788,2.67147 -1.86288,1.934 -3.28551,3.44405c-1.36317,1.44692 -2.45892,4.92973 -3.67505,4.21145c-1.09871,-0.64893 -1.9889,-2.13247 -2.40219,-4.36198c-0.87076,-4.69727 0.52675,-10.73778 3.12146,-13.49192z" fill="#ffa600" stroke="none" stroke-linecap="butt"/><path d="M294.5929,210.3215c1.49494,-1.19077 2.94805,0.01681 3.24562,2.69719c0.29757,2.68039 -0.67309,5.81856 -2.16803,7.00934c-1.49494,1.19077 -2.94807,-0.01678 -3.24563,-2.69717c-0.29757,-2.68039 0.67309,-5.81856 2.16804,-7.00934z" fill="#ffa600" stroke="none" stroke-linecap="butt"/><path d="M284.26982,227.13688c1.47626,-1.17587 2.91102,0.01479 3.20461,2.65942c0.2936,2.64464 -0.66513,5.74179 -2.14139,6.91766c-1.47626,1.17587 -2.91102,-0.01479 -3.20461,-2.65942c-0.2936,-2.64464 0.66513,-5.74179 2.14139,-6.91766z" fill="#ffa600" stroke="none" stroke-linecap="butt"/><path d="M275.21957,225.89382c1.21464,-0.9675 2.43409,0.36313 2.72374,2.97203c0.28964,2.60891 -0.46024,5.50815 -1.67488,6.47565c-1.21464,0.9675 -2.43409,-0.36313 -2.72374,-2.97203c-0.28964,-2.60891 0.46024,-5.50815 1.67488,-6.47565z" fill="#ffa600" stroke="none" stroke-linecap="butt"/><path d="M269.0157,212.80472c0.82222,-0.65494 1.71069,0.8132 1.98445,3.27916c0.27377,2.46595 -0.17084,4.99592 -0.99306,5.65083c-0.82222,0.65494 -1.71069,-0.8132 -1.98445,-3.27916c-0.27377,-2.46595 0.17084,-4.9959 0.99306,-5.65083z" fill="#ffa600" stroke="none" stroke-linecap="butt"/></g><path d="M294.0947,181.66316c-1.45296,7.28847 -1.76257,20.56949 -5.27855,26.51664c-2.80411,4.74302 -19.43235,-2.44649 -21.67469,-6.85306c-0.77995,-1.53272 3.32391,-20.94386 3.93226,-23.74301c4.6672,-21.47468 10.43062,-41.87999 16.26234,-62.9265c1.60101,-5.77803 5.40315,-9.72102 7.06047,-15.15069l1.02971,0.0513c11.42132,3.00446 21.70252,9.73642 33.83696,7.94552c4.85638,-0.71674 8.42379,-2.94626 11.95731,-7.36507c0.80789,-1.0103 3.14577,-3.43801 4.41566,-2.33698c2.85815,2.47809 4.57158,11.98205 6.08503,15.94873c6.24159,16.35884 10.47597,34.29473 13.36277,52.20231c0.84514,5.2426 5.1277,13.29714 4.13929,18.55429c-1.15757,6.15689 -9.03393,13.69143 -12.64693,17.62631c-1.00547,1.09505 -3.63394,5.54318 -4.88888,3.34236c-1.74832,-3.06609 -3.30882,-26.29601 -3.30882,-26.29601c0,0 0.64767,18.39089 1.43641,27.50438c0.38685,4.4698 2.07729,11.82996 0.44427,16.14888c-1.24385,3.28966 -9.10555,4.28972 -11.63501,4.65396c-10.23181,1.47332 -20.78721,-1.11517 -31.01095,0.40154c-3.32305,0.49297 -11.7308,3.73876 -14.6886,1.64775c-1.57642,-1.11446 -0.75412,-7.42119 -0.75412,-9.42698c0,-8.83043 -1.04262,-18.97098 0.27823,-27.62562" fill="#fffe8a" stroke="#000000" stroke-linecap="round"/><path d="M300.70354,89.98152c12.31547,-2.83688 24.28179,-5.76081 36.87541,-4.46432c2.68572,0.2765 12.06261,1.58542 11.35006,7.00793c-0.96843,7.36972 -6.47911,11.19687 -11.58394,12.80339c-9.20279,2.89618 -30.9305,3.84059 -39.21198,-2.48057c-5.89391,-4.49874 -4.35409,-13.11672 2.69676,-13.11672z" fill="#fffe8a" stroke="#000000" stroke-linecap="round"/><g stroke-linecap="round"><path d="M304.99222,7.98077c-10.8758,5.8113 -11.97868,20.78838 -15.02758,33.68387c-0.33506,1.41718 -3.04537,13.90613 -4.1762,13.70838c-0.4695,-0.0821 -0.3337,-1.16333 -0.46421,-1.76002c-1.03891,-4.74949 -2.41489,-9.38599 -3.48001,-14.14337c-2.65819,-11.87261 -4.42889,-24.11847 -6.10891,-36.30687c-0.48245,-3.50004 -2.09472,-11.48961 -1.00689,-14.80061c0.69709,-2.1217 1.20559,-1.20554 2.30671,-0.58329c5.65805,3.19741 11.18941,6.72151 16.72729,10.25319c4.06682,2.59354 9.04164,4.9958 12.11524,9.48486z" fill="#feed00" stroke="#000000"/><path d="M299.45063,11.1572c-6.92506,4.6725 -6.98512,14.65075 -8.42362,23.40308c-0.15809,0.96187 -1.39105,9.41965 -2.14689,9.37573c-0.31382,-0.01824 -0.27235,-0.7429 -0.38521,-1.12707c-0.89829,-3.05781 -2.01417,-6.01518 -2.93013,-9.07621c-2.28589,-7.63915 -4.00216,-15.59294 -5.65598,-23.51566c-0.47492,-2.2751 -1.89658,-7.42936 -1.32575,-9.69994c0.36579,-1.45502 0.74259,-0.88877 1.49776,-0.56212c3.88036,1.67848 7.6916,3.58248 11.50749,5.49099c2.80225,1.40155 6.19579,2.60711 8.42654,5.33695z" fill="#ffa700" stroke="none"/></g><g stroke-linecap="round"><path d="M335.49674,8.87595c2.87505,-4.70959 7.73829,-7.47654 11.68672,-10.36721c5.37668,-3.93629 10.74717,-7.86452 16.25824,-11.47595c1.07251,-0.70283 1.54068,-1.65521 2.32819,0.41148c1.22893,3.22511 -0.03614,11.32137 -0.36683,14.85154c-1.15159,12.29336 -2.3912,24.6508 -4.53299,36.70135c-0.85823,4.82867 -2.03198,9.55972 -2.86435,14.37856c-0.10457,0.60541 0.07765,1.67483 -0.38756,1.79158c-1.12049,0.2812 -4.36519,-11.987 -4.76086,-13.37709c-3.60028,-12.64901 -5.34748,-27.52046 -16.45656,-32.51677z" fill="#feed00" stroke="#000000"/><path d="M341.49105,11.70241c2.10943,-2.89072 5.44553,-4.34576 8.18285,-5.95266c3.72746,-2.18814 7.45049,-4.37144 11.25223,-6.33468c0.73987,-0.38209 1.09165,-0.9753 1.51961,0.45028c0.66786,2.22466 -0.52919,7.47599 -0.90521,9.78264c-1.30943,8.0326 -2.67986,16.10078 -4.63256,23.89705c-0.78245,3.124 -1.76898,6.15928 -2.53393,9.27875c-0.0961,0.3919 -0.02346,1.11234 -0.33598,1.15382c-0.75275,0.09988 -2.34856,-8.25309 -2.54789,-9.20169c-1.81374,-8.63177 -2.30414,-18.58959 -9.41968,-22.74163z" fill="#ffa700" stroke="none"/></g><path d="M319.13784,5.36918c9.14478,0 20.0952,-1.15267 26.68612,8.29998c5.70133,8.1768 5.39461,15.5236 7.14967,25.25663c0.53903,2.98929 2.20039,5.19965 2.47707,8.52163c1.6775,20.14139 -5.9415,44.92606 -24.57945,47.53727c-15.61011,2.18701 -34.06688,-2.00798 -42.91361,-19.75095c-5.52411,-11.07914 -1.64467,-26.11021 1.10428,-36.95562c1.06514,-4.20228 0.07822,-9.11413 1.32355,-13.53324c4.87522,-17.2999 16.39563,-19.06125 29.06208,-19.06125z" fill="#feed00" stroke="#000000" stroke-linecap="round"/><path d="M352.36688,52.5937c3.75672,0.44755 13.58488,5.52234 9.73255,12.43515c-1.00233,1.79863 -6.31862,2.72663 -6.64146,4.10632c-0.24211,1.03467 0.93821,1.80876 1.21889,2.82655c0.75105,2.72343 1.2377,6.76862 0.92482,9.64931c-0.86077,7.92534 -9.68528,3.83996 -12.29913,0.47034" fill="#feed00" stroke="#000000" stroke-linecap="round"/><path d="M294.14497,85.31015c-2.61384,3.36962 -11.43835,7.45498 -12.29913,-0.47034c-0.31288,-2.88069 0.17379,-6.92588 0.92484,-9.64929c0.28068,-1.01781 1.461,-1.79189 1.21889,-2.82656c-0.32283,-1.3797 -5.63913,-2.30769 -6.64146,-4.10633c-3.85233,-6.91282 5.97583,-11.9876 9.73255,-12.43514" fill="#feed00" stroke="#000000" stroke-linecap="round"/><path d="M254.40602,31.81386c12.54373,0.2466 21.89248,12.36414 32.05284,19.97262" fill="none" stroke="#000000" stroke-linecap="round"/><path d="M258.62303,48.14828c9.43483,-1.49654 19.05076,2.40276 28.14381,5.05081" fill="none" stroke="#000000" stroke-linecap="round"/><path d="M262.60335,57.23191c7.61238,-1.86655 15.63905,-3.62921 23.39352,-3.62921" fill="none" stroke="#000000" stroke-linecap="round"/><path d="M354.98472,50.17209c7.34234,-9.62192 15.57632,-21.37158 26.6503,-21.39059" fill="none" stroke="#000000" stroke-linecap="round"/><path d="M352.67487,51.18109c9.60376,-8.9896 18.60955,-8.54787 29.32821,-4.27132" fill="none" stroke="#000000" stroke-linecap="round"/><path d="M355.75468,52.79548c7.53558,-3.95007 17.02655,0.01595 23.77664,4.97747" fill="none" stroke="#000000" stroke-linecap="round"/><path d="M316.17521,62.70446c3.25899,0.00001 6.69036,-0.27691 9.92578,0.25179c0.41064,0.06712 1.11526,-0.16374 1.20997,0.36419c0.12405,0.69154 -5.716,5.02484 -6.38821,4.95932c-1.51161,-0.14732 -3.78978,-4.02493 -4.38131,-5.57529z" fill="#000000" stroke="#000000" stroke-linecap="round"/><path d="M317.01982,41.28207c0,8.12615 -4.9507,14.71371 -11.05769,14.71371c-6.10699,0 -11.05768,-6.58756 -11.05768,-14.71371c0,-8.12615 4.95069,-14.7137 11.05768,-14.7137c6.10699,0 11.05769,6.58755 11.05769,14.7137z" fill="#ffffff" stroke="#000000" stroke-linecap="butt"/><path d="M347.74204,40.79703c0,8.12615 -4.95069,14.7137 -11.05768,14.7137c-6.10699,0 -11.05768,-6.58755 -11.05768,-14.7137c0,-8.12615 4.95069,-14.7137 11.05768,-14.7137c6.10699,0 11.05768,6.58755 11.05768,14.7137z" fill="#ffffff" stroke="#000000" stroke-linecap="butt"/><path d="M313.53517,41.28207c0,5.8044 -3.45252,10.50979 -7.7114,10.50979c-4.25889,0 -7.7114,-4.70539 -7.7114,-10.50979c0,-5.8044 3.45252,-10.50979 7.7114,-10.50979c4.25889,0 7.7114,4.70539 7.7114,10.50979z" fill="#ffffff" stroke="#000000" stroke-linecap="butt"/><path d="M344.3808,40.79703c0,5.8044 -3.45252,10.50979 -7.7114,10.50979c-4.25889,0 -7.7114,-4.70539 -7.7114,-10.50979c0,-5.8044 3.45252,-10.50979 7.7114,-10.50979c4.25889,0 7.7114,4.70539 7.7114,10.50979z" fill="#ffffff" stroke="#000000" stroke-linecap="butt"/><path d="M303.60416,12.32233c0.52631,-4.24394 3.78086,-5.5783 6.96041,-7.03321c0.35215,-0.16113 3.33386,-1.46787 3.26006,-2.03782c-0.13427,-1.03684 -4.75818,-0.28802 -4.1535,-2.55323c0.81215,-3.04242 10.06548,-2.33025 12.05415,-2.3305c0.28642,-0.00003 3.6768,0.16226 3.72443,-0.0052c0.20412,-0.71755 -5.48453,-3.09098 -5.09573,-4.04303c0.2125,-0.52037 4.36299,1.27704 4.77739,1.48358c5.42902,2.70584 6.68396,7.0726 9.86081,12.19375" fill="#feed00" stroke="#000000" stroke-linecap="round"/><path d="M291.7283,31.56567c-2.07751,-1.33438 -2.08978,-3.70832 -3.67352,-5.64671c-0.8086,-0.98967 -5.10926,-1.68341 -5.02892,-3.53683c0.10569,-2.43781 5.32019,-3.3798 6.4723,-3.96953c0.81108,-0.41517 -0.39863,-9.89438 6.8568,-3.66506" fill="#feed00" stroke="#000000" stroke-linecap="round"/><path d="M307.33275,148.34235c1.08641,0.59011 4.09796,0.29614 4.51961,2.06172c1.41421,5.9215 -2.09385,11.23209 -6.34074,10.04836c-2.82797,-0.78823 2.15986,-12.92196 2.15986,-12.92196c0,0 0.28231,-27.26285 2.48362,-40.46832" fill="#ffaf36" stroke="#000000" stroke-linecap="round"/><path d="M330.75735,149.03634c8.40068,-12.28746 7.31077,20.63699 -1.22249,11.38125c-4.62014,-5.0113 1.10971,-9.63683 1.55199,-12.52789c2.08766,-13.64638 -2.28786,-28.26495 0.86198,-42.10072" fill="#ffaf36" stroke="#000000" stroke-linecap="round"/><path d="M296.81248,184.66541c3.10276,-3.25285 6.968,-2.65082 10.65395,-3.4139c11.88842,-2.46119 25.16466,-1.43082 37.01879,1.08825" fill="none" stroke="#000000" stroke-linecap="round"/><path d="M346.36404,217.76701c-0.09221,-10.2163 -1.51859,-20.57029 -0.2172,-30.80288" fill="none" stroke="#000000" stroke-linecap="round"/><path d="M297.25102,189.55016c0,9.77659 0.39724,19.48004 0.22058,29.23584" fill="none" stroke="#000000" stroke-linecap="round"/><path d="M303.86951,101.25518c-2.29631,-1.05405 -3.85491,-4.00902 -5.9607,-5.66476" fill="none" stroke="#fcec41" stroke-linecap="round"/><path d="M341.38252,98.57731c1.42757,-1.24521 2.76235,-2.23024 4.35713,-3.06623" fill="none" stroke="#fcec41" stroke-linecap="round"/><path d="M316.64723,112.8596v11.00352" fill="none" stroke="#fcec41" stroke-linecap="round"/><path d="M319.71916,122.25289v-5.63597" fill="none" stroke="#fcec41" stroke-linecap="round"/><path d="M323.40547,120.64261l-0.61438,-4.29406" fill="none" stroke="#fcec41" stroke-linecap="round"/><path d="M281.4989,206.32963l11.40172,-42.81346l-6.35865,42.23879z" fill="#fce541" stroke="#fcec41" stroke-linecap="round"/><path d="M281.4989,206.32963l11.40172,-42.81346l-6.35865,42.23879z" fill="#fce541" stroke="#fcec41" stroke-linecap="round"/><path d="M354.29448,201.14371l-6.35865,-34.46684l11.40172,28.87754z" fill="#fce541" stroke="#fcec41" stroke-linecap="round"/><path d="M320.52509,327.10238l0.61125,-88.11418" fill="none" stroke="#000000" stroke-linecap="round"/><path d="M322.63798,336.71482c0,9.95402 -7.73119,18.02337 -17.26809,18.02337c-9.5369,0 -17.26809,-8.06932 -17.26809,-18.02337c0,-9.95402 7.73119,-18.02337 17.26809,-18.02337c9.5369,0 17.26809,8.06932 17.26809,18.02337z" fill="#000000" stroke="#000000" stroke-linecap="butt"/><path d="M356.20024,330.66702c0,9.95403 -7.73119,18.02337 -17.2681,18.02337c-9.5369,0 -17.26809,-8.06932 -17.26809,-18.02337c0,-9.95403 7.73119,-18.02337 17.26809,-18.02337c9.5369,0 17.2681,8.06932 17.2681,18.02337z" fill="#000000" stroke="#000000" stroke-linecap="butt"/><path d="M312.54693,85.67969v-5.17786h17.4612v5.17786z" fill="none" stroke="#000000" stroke-linecap="butt"/><text transform="translate(279.23028,102.68585) scale(0.74029,0.74029)" font-size="40" xml:space="preserve" fill="#ff0000" fill-rule="nonzero" stroke="#000000" stroke-width="2" stroke-linecap="butt" stroke-linejoin="miter" stroke-miterlimit="10" stroke-dasharray="" stroke-dashoffset="0" font-family="Sans Serif" font-weight="normal" text-anchor="start" style="mix-blend-mode: normal"><tspan x="0" dy="0">sprun</tspan></text></g></g></svg>