<svg version="1.1" xmlns="http://www.w3.org/2000/svg" xmlns:xlink="http://www.w3.org/1999/xlink" width="207.93117" height="256.21837" viewBox="0,0,207.93117,256.21837"><g transform="translate(-135.58021,-66.09025)"><g stroke-miterlimit="10"><path d="M206.28503,179.60401l-53.87666,16.98776l29.81942,-48.77594z" fill="#ffe798" stroke="#000000" stroke-width="2.5" stroke-linecap="butt"/><path d="M194.99319,157.56869l-55.93265,-7.92577l47.9489,-31.13187z" fill="#ffe798" stroke="#000000" stroke-width="2.5" stroke-linecap="butt"/><path d="M294.20457,144.80492l29.81941,48.77594l-53.87666,-16.98776z" fill="#ffe798" stroke="#000000" stroke-width="2.5" stroke-linecap="butt"/><path d="M291.29338,116.33146l47.9489,31.13187l-55.93265,7.92577z" fill="#ffe798" stroke="#000000" stroke-width="2.5" stroke-linecap="butt"/><path d="M199.31274,287.46437c0,0 -2.29135,-9.26839 -0.89019,-21.58111c0.79182,-6.95811 3.16432,-26.82275 5.38011,-39.21692c2.89636,-16.20093 7.84528,-32.70554 9.37758,-42.93235c0.80683,-5.38487 -0.94402,-9.83444 -0.94402,-9.83444l53.93923,0.44564c0,0 -1.96876,3.82126 -0.79992,9.59895c2.31043,11.42066 9.10677,31.13345 13.17772,48.62309c2.50577,10.76532 4.76811,30.07347 5.54159,36.11457c1.62305,12.67659 -3.43617,18.78257 -3.43617,18.78257c0,0 14.75695,-2.4407 18.1938,2.46913c6.28561,8.97955 2.23965,28.01448 -4.52099,28.7888c-3.08486,0.35332 -26.8952,-1.17971 -37.44796,-7.30442c-12.82963,-7.44617 -11.13767,-22.26137 -15.57289,-20.36975c-4.87652,2.07984 -5.10188,16.48226 -14.06095,21.60693c-12.99992,7.43608 -36.64472,8.40356 -39.78951,8.40356c-4.22933,0 -10.61072,-17.17282 -5.85993,-26.81931c3.2133,-6.52463 17.71251,-6.77495 17.71251,-6.77495z" fill="#ffe798" stroke="#000000" stroke-width="2.5" stroke-linecap="butt"/><path d="M294.73417,133.24771c0,28.00291 -24.26594,53.64847 -54.51858,53.64847c-30.25264,0 -55.03592,-25.64557 -55.03592,-53.64847c0,-28.0029 24.52462,-50.70374 54.77726,-50.70374c30.25264,0 54.77725,22.70084 54.77725,50.70374z" fill="#ffe798" stroke="#000000" stroke-width="2.5" stroke-linecap="butt"/><path d="M255.92282,131.07548c0,2.70884 -6.65243,4.90479 -14.85862,4.90479c-8.2062,0 -14.85862,-2.19595 -14.85862,-4.90479c0,-2.70884 6.65243,-4.90479 14.85862,-4.90479c8.2062,0 14.85862,2.19595 14.85862,4.90479z" fill-opacity="0.18431" fill="#ff0505" stroke="none" stroke-width="0" stroke-linecap="butt"/><path d="M218.9709,127.04184c0,2.23486 -1.98847,4.04658 -4.44137,4.04658c-2.4529,0 -4.44137,-1.81172 -4.44137,-4.04658c0,-2.23487 1.98847,-4.04659 4.44137,-4.04659c2.4529,0 4.44137,1.81172 4.44137,4.04659z" fill="#ffffff" stroke="#000000" stroke-width="2.5" stroke-linecap="butt"/><path d="M271.14815,126.71219c0,2.23487 -1.98847,4.04658 -4.44137,4.04658c-2.4529,0 -4.44137,-1.81172 -4.44137,-4.04658c0,-2.23486 1.98847,-4.04658 4.44137,-4.04658c2.4529,0 4.44137,1.81172 4.44137,4.04658z" fill="#ffffff" stroke="#000000" stroke-width="2.5" stroke-linecap="butt"/><g fill="none" stroke="#000000" stroke-width="2.5" stroke-linecap="round"><path d="M283.90636,184.56048l-8.48197,5.01207l-24.6748,-12.08038"/><path d="M274.91034,189.95809l7.32533,12.20889"/><path d="M276.19548,188.80146l21.976,8.22493"/><path d="M290.20357,193.17096l4.11247,-5.52613"/><path d="M290.58912,193.94205l-3.59841,7.83939"/></g><g><path d="M141.6919,124.74044l200.56948,-16.98571" fill="none" stroke="#000000" stroke-width="2.5" stroke-linecap="round"/><path d="M247.27399,104.64588c2.13869,12.30283 0.05126,9.13679 -13.10271,10.597c-3.23309,0.3589 -8.24965,-1.00351 -12.74281,0.53326c-22.77376,7.78919 -43.39542,1.67882 -46.05977,-13.64791c-2.66435,-15.32672 16.58432,-22.2788 39.35808,-30.068c8.59303,-2.93903 17.90263,-4.37641 22.63799,-0.25149c7.81457,6.80719 8.2502,23.29351 9.90923,32.83713z" fill="#ba7245" stroke="#000000" stroke-width="2.5" stroke-linecap="butt"/><path d="M264.9039,69.04826c23.68678,2.26692 43.46035,2.9449 43.60629,18.57097c0.14593,15.62606 -18.9377,26.45578 -42.62448,24.18887c-4.67329,-0.44726 -9.33799,2.06587 -12.56652,2.47499c-13.13542,1.66454 -14.6095,5.25389 -14.72664,-7.28922c-0.07876,-8.43296 -3.16157,-27.40921 1.28765,-35.43241c3.79508,-6.84359 14.12003,-3.55672 25.0237,-2.5132z" fill="#ba7245" stroke="#000000" stroke-width="2.5" stroke-linecap="butt"/><path d="M268.04421,93.01345c0,11.07921 -12.99016,20.06069 -29.01433,20.06069c-16.02417,0 -29.01433,-8.98148 -29.01433,-20.06069c0,-11.07921 12.99016,-20.06069 29.01433,-20.06069c16.02417,0 29.01433,8.98148 29.01433,20.06069z" fill="#ba7245" stroke="none" stroke-width="0" stroke-linecap="butt"/></g><path d="M246.73956,171.95212c-0.44838,5.22641 -2.30974,9.33475 -4.15747,9.17623c-1.84772,-0.15852 -2.98212,-4.52387 -2.53374,-9.75028c0.44838,-5.22641 2.30974,-9.33475 4.15747,-9.17623c1.84772,0.15852 2.98212,4.52387 2.53374,9.75028z" fill="#000000" stroke="#000000" stroke-width="2.5" stroke-linecap="butt"/></g></g></svg>