<svg version="1.1" xmlns="http://www.w3.org/2000/svg" xmlns:xlink="http://www.w3.org/1999/xlink" width="141.26832" height="289.90687" viewBox="0,0,141.26832,289.90687"><defs><linearGradient x1="318.92569" y1="59.00333" x2="318.79056" y2="176.85221" gradientUnits="userSpaceOnUse" id="color-1"><stop offset="0" stop-color="#062be2"/><stop offset="1" stop-color="#02011e"/></linearGradient><linearGradient x1="316.8288" y1="160.01637" x2="316.61484" y2="346.6097" gradientUnits="userSpaceOnUse" id="color-2"><stop offset="0" stop-color="#0d1b5e"/><stop offset="1" stop-color="#000000"/></linearGradient><linearGradient x1="319.89166" y1="149.61276" x2="319.8443" y2="190.91154" gradientUnits="userSpaceOnUse" id="color-3"><stop offset="0" stop-color="#000000"/><stop offset="1" stop-color="#003fff"/></linearGradient><linearGradient x1="364.36951" y1="152.75033" x2="364.14461" y2="348.884" gradientUnits="userSpaceOnUse" id="color-4"><stop offset="0" stop-color="#051e9b"/><stop offset="1" stop-color="#04023c"/></linearGradient><linearGradient x1="276.84662" y1="148.6503" x2="276.62172" y2="344.78396" gradientUnits="userSpaceOnUse" id="color-5"><stop offset="0" stop-color="#0521ad"/><stop offset="1" stop-color="#04023c"/></linearGradient><linearGradient x1="318.96457" y1="82.05023" x2="318.85375" y2="178.68959" gradientUnits="userSpaceOnUse" id="color-6"><stop offset="0" stop-color="#000519"/><stop offset="1" stop-color="#2245f2"/></linearGradient><linearGradient x1="320.64172" y1="190.5559" x2="320.54882" y2="271.57794" gradientUnits="userSpaceOnUse" id="color-7"><stop offset="0" stop-color="#003fff"/><stop offset="1" stop-color="#060c2b"/></linearGradient></defs><g transform="translate(-249.83366,-59.00329)"><g stroke-miterlimit="10"><path d="M380.37836,117.99832c-0.03732,32.54307 -27.01124,70.59292 -60.98792,70.55396c-33.97668,-0.03896 -62.08986,-38.15197 -62.05254,-70.69504c0.03732,-32.54307 27.61112,-58.89287 61.5878,-58.85391c33.97668,0.03896 61.48997,26.45192 61.45267,58.99499z" fill="url(#color-1)" stroke="#000000" stroke-width="0" stroke-linecap="butt"/><path d="M266.10416,342.91314l-2.12199,-147.27832c0,0 -1.87059,-10.96328 1.77692,-20.54135c3.04349,-7.99195 11.14413,-14.86614 15.94443,-15.04495c10.48029,-0.3904 34.81865,1.08154 56.51688,0.27324c11.31939,-0.42167 23.50435,2.31859 28.42494,10.46334c5.30985,8.78909 2.90182,23.04978 2.90182,23.04978l0.08011,152.8356z" fill="url(#color-2)" stroke="#000000" stroke-width="2.5" stroke-linecap="butt"/><path d="M320.94231,191.9674l0.8254,152.55189" fill="none" stroke-opacity="0.52549" stroke="#ffffff" stroke-width="0.5" stroke-linecap="round"/><path d="M348.90575,232.01284l-25.51365,4.47225l-29.50466,-4.53534" fill="none" stroke-opacity="0.52549" stroke="#ffffff" stroke-width="0.5" stroke-linecap="round"/><path d="M351.89126,245.52077l-30.01743,6.46774l-30.50671,-3.03598" fill="none" stroke-opacity="0.52549" stroke="#ffffff" stroke-width="0.5" stroke-linecap="round"/><path d="M356.47528,170.30413c-0.01308,11.40434 -16.41331,20.6306 -36.63098,20.60742c-20.21765,-0.02318 -36.59671,-9.28703 -36.58363,-20.69138c0.01308,-11.40434 16.41332,-20.6306 36.63099,-20.60742c20.21765,0.02318 36.5967,9.28703 36.58362,20.69138z" fill="url(#color-3)" stroke="#000000" stroke-width="0" stroke-linecap="butt"/><path d="M343.18847,348.85997c0,0 18.74687,-18.71216 11.73703,-44.56254c-5.39434,-19.89278 -2.94237,-28.63537 -3.38969,-42.2106c-0.83768,-25.42227 -14.06457,-86.7354 -14.06457,-86.7354c0,0 9.88854,-17.58438 19.4711,-17.5734c6.61643,0.00758 14.6975,-25.75496 27.70695,39.31523c13.00945,65.07021 2.32383,151.8169 2.32383,151.8169z" fill="url(#color-4)" stroke="#000000" stroke-width="0" stroke-linecap="butt"/><path d="M253.79324,344.75779c0,0 -10.48666,-86.77097 2.67199,-151.81117c13.15864,-65.04018 21.1806,-39.25918 27.79704,-39.25159c9.58256,0.01098 19.43074,17.61801 19.43074,17.61801c0,0 -14.42298,86.89447 -14.93248,101.34975c-1.07151,30.40043 8.81736,72.14523 8.81736,72.14523z" fill="url(#color-5)" stroke="#000000" stroke-width="0" stroke-linecap="butt"/><path d="M371.98524,132.45066c-1.91487,25.86398 -27.18023,48.026 -56.49254,46.12516c-29.31232,-1.90082 -51.57163,-27.1447 -49.65676,-53.00867c0.86281,-11.65388 11.16607,-10.83142 19.01794,-13.5959c9.57412,-3.37085 16.32363,-8.81623 32.4283,-7.77187c10.95909,0.71067 25.25975,5.68898 33.92241,7.40405c14.50736,2.87223 21.97963,4.6531 20.78069,20.84723z" fill="url(#color-6)" stroke="#000000" stroke-width="0" stroke-linecap="butt"/><path d="M317.2752,271.57419c0,0 -6.52646,-18.12672 -6.51187,-30.85236c0.01621,-14.13368 6.60477,-50.16968 6.60477,-50.16968l6.54723,0.00751c0,0 8.13938,38.96099 8.12252,53.66205c-0.01322,11.52623 -8.21543,27.35998 -8.21543,27.35998z" fill="url(#color-7)" stroke="#000000" stroke-width="0" stroke-linecap="butt"/><path d="M264.56722,106.91191l12.44518,-1.57425" fill="none" stroke-opacity="0.37255" stroke="#000000" stroke-width="2.5" stroke-linecap="round"/><path d="M274.93175,100.30497l-9.00159,-0.01032" fill="none" stroke-opacity="0.37255" stroke="#000000" stroke-width="2.5" stroke-linecap="round"/><path d="M269.57873,95.20473l7.15013,-1.58032" fill="none" stroke-opacity="0.37255" stroke="#000000" stroke-width="2.5" stroke-linecap="round"/><path d="M365.429,96.05582l7.93984,2.39188" fill="none" stroke-opacity="0.37255" stroke="#000000" stroke-width="2.5" stroke-linecap="round"/><path d="M371.55289,102.81941l-3.17611,-0.79791" fill="none" stroke-opacity="0.37255" stroke="#000000" stroke-width="2.5" stroke-linecap="round"/><path d="M374.26732,108.95417l-3.97007,-1.06357" fill="none" stroke-opacity="0.37255" stroke="#000000" stroke-width="2.5" stroke-linecap="round"/><path d="M353.68936,119.72651c-0.003,2.61564 -2.21801,4.73349 -4.94737,4.73036c-2.72936,-0.00313 -4.93951,-2.12605 -4.9365,-4.74169c0.003,-2.61564 2.21801,-4.73349 4.94737,-4.73036c2.72936,0.00313 4.93951,2.12605 4.9365,4.74169z" fill="#ffffff" stroke="#000000" stroke-width="2.5" stroke-linecap="butt"/><path d="M342.77213,123.00862l4.93556,5.56535" fill="none" stroke="#000000" stroke-width="2.5" stroke-linecap="round"/><path d="M368.10643,117.06615l-38.50243,-3.13287" fill="none" stroke="#000000" stroke-width="2.5" stroke-linecap="round"/><path d="M328.16071,115.57893l0.41844,-5.76513" fill="none" stroke="#000000" stroke-width="2.5" stroke-linecap="round"/><path d="M325.27886,114.75198l-0.4071,-4.11876" fill="none" stroke="#000000" stroke-width="2.5" stroke-linecap="round"/><path d="M327.54014,118.04921l1.85252,0.61987" fill="none" stroke="#000000" stroke-width="2.5" stroke-linecap="round"/><path d="M314.68723,171.74627l0.77667,-16.80057l9.36321,1.39995l0.38833,19.49718z" fill="none" stroke="#000000" stroke-width="2.5" stroke-linecap="round"/></g></g></svg>