<svg version="1.1" xmlns="http://www.w3.org/2000/svg" xmlns:xlink="http://www.w3.org/1999/xlink" width="112.48383" height="313.02144" viewBox="0,0,112.48383,313.02144"><defs><linearGradient x1="320.41622" y1="177.45779" x2="320.41622" y2="203.28765" gradientUnits="userSpaceOnUse" id="color-1"><stop offset="0" stop-color="#44bb0a"/><stop offset="1" stop-color="#236a06"/></linearGradient><linearGradient x1="320.99559" y1="38.4406" x2="320.99559" y2="186.89624" gradientUnits="userSpaceOnUse" id="color-2"><stop offset="0" stop-color="#435d00"/><stop offset="1" stop-color="#44d20d"/></linearGradient><linearGradient x1="309.72467" y1="224.78998" x2="309.72467" y2="285.73809" gradientUnits="userSpaceOnUse" id="color-3"><stop offset="0" stop-color="#d6d6d6"/><stop offset="1" stop-color="#4b4b4b"/></linearGradient><linearGradient x1="321.79598" y1="226.6815" x2="321.79598" y2="287.01473" gradientUnits="userSpaceOnUse" id="color-4"><stop offset="0" stop-color="#d6d6d6"/><stop offset="1" stop-color="#4b4b4b"/></linearGradient><linearGradient x1="331.59675" y1="223.63106" x2="331.59675" y2="288.35049" gradientUnits="userSpaceOnUse" id="color-5"><stop offset="0" stop-color="#d6d6d6"/><stop offset="1" stop-color="#4b4b4b"/></linearGradient><linearGradient x1="321.50394" y1="123.69763" x2="321.50394" y2="173.28629" gradientUnits="userSpaceOnUse" id="color-6"><stop offset="0" stop-color="#4a4a4a"/><stop offset="1" stop-color="#bbbbbb"/></linearGradient></defs><g transform="translate(-264.17667,-38.4406)"><g stroke-miterlimit="10"><path d="M270.32301,347.82341l-2.26151,-147.27579c0,0 7.03635,-25.69821 17.45393,-26.10344c10.34551,-0.40242 34.86735,-0.95905 56.28654,-1.79223c23.23163,-0.90368 30.46941,25.97468 30.46941,25.97468l0.25208,152.83541z" fill="#000000" stroke="#000000" stroke-width="0" stroke-linecap="butt"/><path d="M339.95005,190.37272c0,7.13272 -8.7456,12.91493 -19.53383,12.91493c-10.78823,0 -19.53383,-5.78221 -19.53383,-12.91493c0,-7.13272 8.74559,-12.91493 19.53383,-12.91493c10.78823,0 19.53383,5.78221 19.53383,12.91493z" fill="url(#color-1)" stroke="#000000" stroke-width="2.5" stroke-linecap="butt"/><path d="M374.15719,130.36259c0,28.00291 -23.68891,56.53364 -53.94155,56.53364c-30.25264,0 -55.61295,-28.53074 -55.61295,-56.53364c0,-28.0029 24.52462,-50.70374 54.77726,-50.70374c30.25264,0 54.77725,22.70084 54.77725,50.70374z" fill="#53ff10" stroke="#000000" stroke-width="0" stroke-linecap="butt"/><path d="M265.072,133.09894l-0.89533,-61.16687l10.57761,4.64383l32.82583,-38.1353l22.12613,24.71981l23.02219,-18.78603l12.83847,32.9755l11.09359,-7.73971l-2.32191,61.9177l-15.99541,-24.50909l-78.68708,0.77398z" fill="#53ff10" stroke="#000000" stroke-width="0" stroke-linecap="round"/><path d="M267.03727,142.36346l-1.11534,-38.40259l107.68809,0.478l-2.23068,37.92459z" fill="#53ff10" stroke="none" stroke-width="0" stroke-linecap="butt"/><path d="M265.072,133.09894l-0.89533,-61.16687l10.57761,4.64383l32.82583,-38.1353l22.12613,24.71981l23.02219,-18.78603l12.83847,32.9755l11.09359,-7.73971l-2.32191,61.9177l-2.12994,-3.26362l-0.8293,14.09921h-104.34207l-0.35046,-12.06653z" fill="#53ff10" stroke="#000000" stroke-width="0" stroke-linecap="round"/><path d="M320.21565,186.89624c-30.25264,0 -55.61295,-28.53074 -55.61295,-56.53364c0,-1.93597 0.11721,-3.84659 0.34544,-5.72612l-0.77146,-52.70441l10.57761,4.64383l32.82583,-38.1353l22.12613,24.71981l23.02219,-18.78603l12.83847,32.9755l11.09359,-7.73971l-2.32191,61.9177l-0.18929,-0.29003c-0.49884,27.65974 -23.99648,55.65841 -53.93365,55.65841z" fill="url(#color-2)" stroke="#000000" stroke-width="0" stroke-linecap="butt"/><path d="M352.15792,108.46142c8.23814,0 14.91647,4.35045 14.91647,9.71701c0,5.36656 -6.67833,9.71701 -14.91647,9.71701c-8.23814,0 -14.91647,-4.35045 -14.91647,-9.71701c0,-5.36656 6.67833,-9.71701 14.91647,-9.71701z" fill="#000000" stroke="#000000" stroke-width="2.5" stroke-linecap="butt"/><path d="M335.59179,116.52251c0.10568,2.70678 -6.45602,5.16058 -14.65596,5.48072c-8.19995,0.32014 -14.93297,-1.61461 -15.03865,-4.32139c-0.10568,-2.70678 6.45601,-5.16058 14.65596,-5.48072c8.19995,-0.32014 14.93298,1.61462 15.03866,4.32139z" fill-opacity="0.18431" fill="#000000" stroke="none" stroke-width="0" stroke-linecap="butt"/><path d="M305.30657,117.44028c0,5.36656 -6.67833,9.71702 -14.91647,9.71702c-8.23814,0 -14.91647,-4.35046 -14.91647,-9.71702c0,-5.36656 6.67833,-9.71701 14.91647,-9.71701c8.23814,0 14.91647,4.35045 14.91647,9.71701z" fill="#000000" stroke="#000000" stroke-width="2.5" stroke-linecap="butt"/><path d="M360.55939,118.38361c0.30138,4.14687 -3.62721,7.74568 -8.77474,8.03816c-5.14754,0.29248 -9.56477,-2.83211 -9.86615,-6.97898c-0.30139,-4.14688 3.6272,-7.74569 8.77473,-8.03818c5.14754,-0.29248 9.56478,2.83213 9.86616,6.97899z" fill="#ffffff" stroke="#000000" stroke-width="2.5" stroke-linecap="butt"/><path d="M299.92458,117.83768c0.32175,4.14687 -3.87222,7.74568 -9.36748,8.03816c-5.49526,0.29248 -10.21089,-2.83211 -10.53263,-6.97898c-0.32175,-4.14688 3.87222,-7.74569 9.36748,-8.03817c5.49526,-0.29248 10.21089,2.83212 10.53263,6.97899z" fill="#ffffff" stroke="#000000" stroke-width="2.5" stroke-linecap="butt"/><path d="M305.34594,231.55094l5.06482,-6.76096l1.24827,3.53115l1.96054,11.40697l1.1845,6.34097l-1.49851,14.74315l-0.33459,9.70376l-1.46541,3.62479c0,0 -0.61526,8.11209 -3.64192,11.50113c-0.79532,0.89054 -1.12831,-4.69529 -1.12831,-4.69529l-0.57756,-9.00041l1.77416,-6.23614l-3.28668,-34.36874z" fill="url(#color-3)" stroke="#000000" stroke-width="2.5" stroke-linecap="round"/><path d="M319.67282,226.95733l4.36409,11.09777l0.59757,20.05677l0.29879,16.7588c0,0 -1.43225,6.11183 -2.41642,9.23553c-0.08459,0.26848 -1.13877,2.99587 -1.46784,2.90638c-0.11032,-0.02999 0,-2.36872 0,-2.59382c0,-2.87821 -0.90249,-8.95389 -0.90249,-8.95389l-1.48782,-48.78337z" fill="url(#color-4)" stroke="#000000" stroke-width="2.5" stroke-linecap="round"/><path d="M331.89959,224.2212l1.19112,3.00023l0.01452,1.94528l2.97337,9.88376l-1.79271,13.39632l1.49392,19.26009c0,0 -0.37028,9.84887 -3.4942,14.16856c-0.19659,0.27184 -0.70532,2.4533 -0.70789,2.45451c-0.20891,0.09826 -0.46967,-0.1776 -0.57855,-0.36905c-0.58744,-1.03297 -0.30546,-5.15203 -0.30546,-5.15203l-1.53542,-10.82092l-2.04335,-27.04908l0.62346,-12.25747l3.55959,-9.05034z" fill="url(#color-5)" stroke="#000000" stroke-width="2.5" stroke-linecap="round"/><path d="M295.27044,120.15908c0.15602,4.20359 -1.87775,7.85163 -4.54257,8.14812c-2.6648,0.29648 -4.95155,-2.87086 -5.10757,-7.07444c-0.15602,-4.20361 1.87774,-7.85164 4.54256,-8.14813c2.6648,-0.29648 4.95155,2.87087 5.10758,7.07445z" fill="#000000" stroke="#000000" stroke-width="2.5" stroke-linecap="butt"/><path d="M356.0225,121.07641c0.16464,4.3305 -1.98139,8.08868 -4.79327,8.39412c-2.81188,0.30544 -5.22483,-2.95752 -5.38946,-7.28803c-0.16464,-4.33052 1.98139,-8.08869 4.79326,-8.39413c2.81188,-0.30544 5.22484,2.95754 5.38947,7.28804z" fill="#000000" stroke="#000000" stroke-width="2.5" stroke-linecap="butt"/><path d="M269.0318,146.48439l0.47249,-25.67193l7.71733,8.03232l21.57702,9.76479l9.44979,-5.82737l14.01719,7.40234l12.75722,-6.61485l16.69463,5.51238l21.10454,-16.69463l-3.77992,26.61691l-7.1403,18.00484l-19.38879,5.73121l-20.7935,5.88051l-16.29625,-5.33461l-23.05721,-4.38715z" fill="url(#color-6)" stroke="#000000" stroke-width="2.5" stroke-linecap="round"/><path d="M368.62262,149.00127l-9.44979,3.93741l-61.42365,0.62999l-28.50687,-7.55983" fill="none" stroke="#000000" stroke-width="2.5" stroke-linecap="round"/><path d="M362.82037,162.10581c-4.29657,5.27358 -8.97914,8.74689 -15.22229,9.78358c-4.88984,0.44772 -5.87785,2.64343 -10.8845,2.5542c-0.60589,0.2111 -3.99126,3.00173 -4.68626,2.71884c-0.01929,-0.00786 -2.05098,0.71568 -2.07019,0.70702c-4.39591,-0.14231 -2.55342,1.15067 -6.82537,0.58042c-7.50144,-0.68063 -20.51225,-7.23628 -28,-7.31741c-0.7642,1.4167 -2.15814,4.33157 -4.18007,4.02006c-0.96598,-0.14882 -2.07319,-2.68943 -2.78588,-4.38979c-9.09348,-1.72454 -14.98013,-11.44395 -18.06169,-19.88015l-0.35729,-1.07044c0,0 -0.38747,-1.1624 0.75567,-1.56912c-0.4031,-0.21492 -0.73646,-0.47808 -0.96697,-0.80348c-0.55109,-0.77796 -0.19903,-3.61277 -0.19903,-4.60011c0,-4.77836 -0.40414,-9.63096 0.2422,-14.36195c0.18818,-1.37736 0.27334,-4.9536 2.70229,-4.75884c0.8169,0.0655 0.97769,1.31743 1.41548,2.01022c0.82096,1.29912 1.69416,2.02412 3.20228,2.55018c0,0 1.17474,0.42718 0.74756,1.60192c-0.02132,0.05863 -0.0445,0.11327 -0.0693,0.16416c0.00265,0.03594 0.00265,0.05657 0.00265,0.05657c-0.00485,3.74492 0.21886,7.75848 0.77372,11.46976c0.20338,1.36037 0.54497,2.71234 0.78291,4.06655c0.03018,0.17177 0.05989,0.42809 0.07334,0.69136c0.94071,-1.33617 3.19845,-3.53044 3.53829,-3.92623c1.85181,-2.59086 4.50352,-9.84157 8.50511,-8.59141c1.85516,0.57958 2.80582,2.89396 3.53016,4.41555c1.30429,2.73985 2.12457,5.60066 3.19144,8.44513c0.34657,0.92403 1.36043,2.44424 1.43304,3.59182c0.55445,-0.95712 2.10597,-1.6937 2.77434,-2.42192c2.87129,-3.12841 5.43949,-6.30022 8.57757,-9.20798c0.85431,-0.79161 2.83228,-3.76135 4.10234,-3.63602c2.04978,0.20228 3.59387,5.69095 4.35012,7.20345c0.80803,2.15475 1.96598,4.03886 3.21177,5.964c0.50365,0.7783 0.78357,2.72262 1.59659,2.2772c5.24895,-2.8757 10.18779,-8.48415 14.42399,-12.72034c0.60962,-0.43703 1.08017,-1.35691 1.82886,-1.3111c0.85756,0.05247 1.45433,0.93977 2.06009,1.54906c2.20612,2.21898 3.57041,6.45599 4.89826,9.24838c0.4248,0.89332 0.9256,1.74849 1.38969,2.62204c0.24797,0.46674 0.04939,1.96959 0.36224,1.54361c2.31016,-3.14563 6.10266,-5.5032 8.55932,-8.79322c2.07653,-2.76871 4.32028,-5.46895 6.27377,-8.31121c1.6397,-2.3857 2.74195,-4.96375 4.64442,-7.18694l0.10347,-0.43823c0,0 0.0491,-0.12275 0.15528,-0.27245c-0.0761,-0.23298 -0.07867,-0.52241 0.07157,-0.87297c0.4924,-1.14893 1.64133,-0.65654 1.64133,-0.65654l0.83261,0.35716c3.5631,1.9491 1.96892,6.59126 1.17934,9.98541c-0.21604,2.64741 0.09056,5.49914 -0.60303,8.08689c-0.66476,2.48018 -3.20283,6.11626 -5.79496,8.17422c0.0507,0.03967 0.10157,0.08469 0.15245,0.13556l-0.00002,0.00003c0.88388,0.88388 0,1.76777 0,1.76777l-0.1575,0.1575c-0.34419,0.34219 -0.68839,0.68437 -1.03258,1.02656c-0.21866,0.30614 -0.44232,0.61064 -0.67033,0.91365c0.1893,2.32267 -0.0306,4.83201 -1.5183,6.65802zM272.11854,149.02157l0.33507,1.00665c0.78575,2.1717 1.72719,4.23754 2.86351,6.11576l0.11486,-0.67354c0.48048,-1.9219 0.87867,-3.94762 1.67554,-5.76541c-0.64406,-0.14952 -1.28732,-0.29846 -1.9297,-0.4459c-1.02099,-0.10026 -2.16082,-0.22231 -3.17002,-0.47162c0.07709,0.13315 0.11073,0.23406 0.11073,0.23406zM317.7802,172.65153c1.3682,0.18222 5.40797,0.61149 6.82475,-0.05794c0.23859,-0.11274 2.52101,0.34181 2.75501,0.36369c1.9078,0.17837 -0.77324,-3.2652 1.15489,-3.17036c-0.58893,-1.07575 -1.0874,-2.21482 -1.47436,-2.89406c-1.4702,-2.07301 -3.25488,-7.49345 -4.15479,-9.87974c-0.06153,-0.16316 -0.15983,-0.40107 -0.24578,-0.64338c-0.10538,0.2082 -0.22105,0.41193 -0.29225,0.56513c-0.83904,1.80529 -1.89942,3.38187 -2.87619,5.12009c-0.5256,0.93534 -0.93483,6.56311 -1.63054,8.31216c-0.13705,0.34456 -0.1492,-1.77391 -0.32472,-1.57241c0.13518,0.0115 0.27035,0.02339 0.40551,0.03571zM347.27919,169.40981c1.83349,-0.30678 3.63392,-0.45461 5.36542,-0.77252c-0.64957,-0.8427 -1.34453,-2.07752 -1.55033,-2.44713c-1.35907,-2.44085 -2.93434,-7.84525 -3.81572,-10.48975c-0.12937,-0.38816 -0.31682,-0.76187 -0.4615,-1.12623c-0.72736,1.93914 -2.66024,4.64583 -3.23322,5.72003c-1.61277,3.02353 -3.16662,10.70074 -6.07941,12.33157c3.42903,-0.04772 6.41836,-2.91321 9.77476,-3.21597zM358.75154,165.9994c1.32745,-1.11213 2.81146,-5.52871 3.02293,-7.3742c-1.51672,1.77931 -2.53048,6.40563 -4.05059,8.13707c0.34801,-0.22751 0.69069,-0.48056 1.02766,-0.76287zM358.92597,154.81995c-3.14456,-0.25971 -6.28771,-0.34504 -9.42939,-0.31399c0.86551,2.05747 1.47743,4.26547 2.58854,6.34769c0.39047,0.73174 1.6815,5.82056 2.22394,6.22368c0.39445,0.29314 0.55247,-0.81462 0.86462,-1.19421c0.86369,-1.05025 1.22329,-4.9208 2.07011,-5.9979c1.39382,-1.77286 2.98599,-3.40503 4.43369,-5.1387c-0.70602,0.10539 -2.32658,0.07343 -2.7515,0.07343zM327.96203,155.85166c-0.75383,0.1065 -1.50618,0.1883 -2.25723,0.24823c1.01689,2.0622 2.19808,7.71819 3.44083,9.44451c0.60669,1.05881 1.40381,3.39881 2.35115,4.35603c0.29985,0.0081 0.59977,0.01521 0.89972,0.02133c0.23293,-0.21825 0.46846,-0.51907 0.69855,-0.66485c1.2772,-0.80919 2.65088,-1.24017 3.85814,-2.15047c3.49333,-2.63403 4.65222,-8.9939 6.74373,-12.42438c-5.24941,0.25471 -10.49451,0.73493 -15.73489,1.1696zM298.47202,154.91712c-0.10383,-0.20426 0.05253,0.46076 0.01736,0.68718c-0.06644,0.42779 -0.20985,0.84002 -0.31499,1.25997c-0.22982,0.91794 -0.533,1.81594 -0.80001,2.72376c-0.61459,2.0896 -0.69691,7.01655 -1.37897,9.06739c4.30399,0.02732 10.21573,3.68182 14.53197,3.66994c-3.86443,-2.56032 -9.97918,-13.32384 -12.05534,-17.40823zM277.85733,156.07679l-0.13718,0.84731c0,0 -0.1769,1.06138 -1.1872,1.05051c2.41312,3.30578 6.15209,8.72236 10.33035,9.92106c-2.1753,-4.84123 -4.29599,-13.2358 -7.15071,-17.58587c-0.04208,-0.00974 -0.08416,-0.01947 -0.12624,-0.02921c-0.91196,1.74188 -1.25372,3.89498 -1.72902,5.7962zM295.20495,153.537c-1.65898,-0.27642 -3.29904,-0.61977 -4.92924,-0.99526c-2.43773,-0.43399 -4.87233,-0.9458 -7.29932,-1.48786c1.71938,3.44997 2.75293,7.28906 4.4012,10.79109c0.57886,1.22987 1.75901,5.35693 2.37946,6.58661c1.20583,0.08705 2.41303,0.14404 3.62135,0.17911c0.91113,-2.74641 1.24729,-8.35209 2.06816,-11.13909c0.22215,-0.75422 0.43309,-2.74798 0.89412,-3.77828c-0.37914,-0.05089 -0.75772,-0.10299 -1.13573,-0.15631zM291.72351,172.28838c0.16382,-0.32717 0.40446,-0.79216 0.62779,-1.22011c-0.4182,-0.01533 -0.83626,-0.03348 -1.25419,-0.05477c0.1891,0.3465 0.54874,0.88982 0.6264,1.27487zM272.15848,128.16919c-0.00058,-0.00071 -0.0014,-0.0017 -0.00245,-0.00297c-0.13592,1.2726 -0.42416,2.74689 -0.43621,3.07512c-0.1413,3.84832 0.11668,7.74092 0.11668,11.5981c0,0.32662 -0.25448,2.40339 -0.22827,3.06178c0.7741,0.16619 1.54993,0.33771 2.32732,0.51288c0.95917,0.15088 1.91644,0.3067 2.87261,0.47414c-0.1406,-0.84467 -0.21227,-1.65329 -0.28978,-2.06734c-0.89714,-4.79199 -1.42358,-9.70107 -1.43845,-14.58846c-1.08982,-0.49194 -2.18352,-1.15597 -2.92145,-2.06324zM292.52538,139.30071c-0.20117,-0.42704 -1.57312,-3.84708 -2.64515,-3.16179c-2.14548,1.37149 -3.67688,5.72244 -5.16415,7.80574c-1.09497,1.27952 -2.17964,2.72702 -3.4932,3.8344c3.21546,0.73141 6.39854,1.59865 9.62299,2.33552c2.08801,0.36775 4.17787,0.67516 6.26628,0.8907c-1.81234,-3.77618 -2.79839,-7.90819 -4.58677,-11.70458zM353.16419,151.29269c2.83829,-0.25933 7.11617,0.11099 9.76679,-0.85637c1.49982,-0.54737 2.81281,-2.19395 3.6682,-3.45386c0.75252,-1.10838 1.83849,-2.15599 2.46301,-3.33526c1.29805,-2.45105 0.68565,-6.17154 0.91241,-8.84747c0.30012,-1.31038 1.66009,-5.5882 0.77883,-6.94072l-0.39425,0.85118c-1.84438,2.14797 -2.90015,4.67528 -4.49038,6.98775c-1.97176,2.86728 -4.23136,5.59064 -6.32595,8.38342c-2.00315,2.66038 -4.37769,5.22663 -7.00498,7.31021c0.20878,-0.03113 0.41754,-0.06406 0.62631,-0.09888zM302.81514,156.71896c2.20572,2.71482 4.89545,8.07278 7.87677,9.95384c0.81453,0.30843 2.31254,1.69283 3.03463,1.76684c0.47557,0.04874 1.64058,-1.18724 1.70029,-1.24386c1.92594,-1.82632 3.01076,-7.70338 4.19604,-10.08566c0.10481,-0.21067 0.23573,-0.54315 0.3907,-0.93039c-3.71235,-0.16383 -7.40272,-0.69289 -11.09164,-1.23907c-2.60484,-0.17199 -5.20518,-0.3946 -7.7885,-0.67054c0.66654,0.91531 1.27351,1.94642 1.68171,2.44884zM346.33567,150.85812c-1.26958,-2.38415 -2.43099,-4.85531 -3.70314,-7.25855c-0.47542,-0.89813 -2.3014,-5.23662 -2.42039,-4.10919c-3.24958,3.24958 -6.68729,6.33463 -10.14053,9.34913c-0.93355,0.81493 -3.26037,2.96462 -4.84377,3.77364c6.75061,-1.44497 13.53041,-0.66249 20.31605,-0.72849c0.25313,-0.34558 0.51628,-0.68809 0.79179,-1.02654zM321.12206,150.7986c-1.64721,-2.36479 -3.1881,-4.8948 -4.20163,-7.59754c-0.66849,-1.33698 -1.19607,-2.70063 -1.86219,-4.03554c-0.11352,-0.22749 -0.31561,-0.60453 -0.45686,-0.94415c-0.28276,0.38131 -0.7318,0.81919 -0.97722,1.08161c-1.33253,1.42486 -2.90655,2.59253 -4.28133,3.96732c-2.69061,2.69062 -4.72541,5.84042 -7.57412,8.17264c2.27643,0.26021 4.55102,0.60564 6.82696,0.94967c4.95454,0.32075 9.92709,0.46193 14.83899,0.50984c-1.11018,-0.22432 -1.68213,-1.19871 -2.31261,-2.10385z" fill="#000000" stroke="none" stroke-width="0.5" stroke-linecap="butt"/><path d="M271.97932,148.74642c1.00921,0.24931 2.18701,0.36337 3.208,0.46363c0.64238,0.14744 1.31007,0.30873 1.95413,0.45825c-0.79687,1.81779 -1.21502,3.92826 -1.6955,5.85016l-0.11872,0.6745c-1.13632,-1.87822 -2.12054,-4.03088 -2.90629,-6.20258l-0.3313,-1.0096c0,0 -0.03323,-0.1012 -0.11032,-0.23434z" fill="#ffffff" stroke="none" stroke-width="0.5" stroke-linecap="butt"/><path d="M296.38159,153.66456c-0.46103,1.0303 -0.6635,3.04497 -0.88564,3.79919c-0.82087,2.787 -1.18673,8.44648 -2.09786,11.19289c-1.20832,-0.03507 -2.43854,-0.08813 -3.64437,-0.17518c-0.62045,-1.22968 -1.82481,-5.3649 -2.40367,-6.59477c-1.64828,-3.50203 -2.68794,-7.4198 -4.40733,-10.86978c2.42699,0.54207 4.90051,1.04111 7.33824,1.4751c1.6302,0.3755 3.30264,0.73564 4.96162,1.01206c0.378,0.05332 0.75987,0.1096 1.139,0.16049z" fill="#ffffff" stroke="none" stroke-width="0.5" stroke-linecap="butt"/><path d="M301.09051,154.24446c2.58332,0.27594 5.21081,0.47675 7.81565,0.64874c3.68892,0.54618 7.44155,1.10431 11.1539,1.26814c-0.15497,0.38725 -0.28462,0.72332 -0.38943,0.93398c-1.18528,2.38228 -2.283,8.30998 -4.20894,10.1363c-0.05971,0.05662 -0.53118,6.39706 -1.00675,6.34832c-0.72209,-0.07401 -2.95436,-6.54906 -3.76889,-6.85749c-2.98132,-1.88106 -5.71141,-7.30771 -7.91713,-10.02253c-0.40821,-0.50242 -1.01186,-1.54014 -1.67839,-2.45546z" fill="#ffffff" stroke="none" stroke-width="0.5" stroke-linecap="butt"/><path d="M343.73814,154.65376c-2.09151,3.43048 -3.12779,12.12778 -6.62113,14.7618c-1.20726,0.9103 -2.05556,3.18281 -3.33276,3.992c-0.23009,0.14578 -1.17595,-3.65874 -1.40888,-3.44049c-0.29995,-0.00611 -0.6049,-0.01593 -0.90476,-0.02403c-0.94734,-0.95722 -1.76627,-3.32575 -2.37296,-4.38456c-1.24275,-1.72632 -2.42016,-7.41977 -3.43705,-9.48197c0.75104,-0.05993 1.50746,-0.14817 2.26129,-0.25467c5.24039,-0.43467 10.56684,-0.91337 15.81625,-1.16808z" fill="#ffffff" stroke="none" stroke-width="0.5" stroke-linecap="butt"/><path d="M361.71729,154.71628c-1.4477,1.73368 -3.03195,3.41091 -4.42576,5.18377c-0.84682,1.0771 -1.26734,4.98105 -2.13103,6.0313c-0.31215,0.37959 -0.47496,1.48578 -0.86941,1.19264c-0.54244,-0.40312 -1.86156,-5.51911 -2.25203,-6.25085c-1.11111,-2.08221 -1.71606,-4.34092 -2.58157,-6.39839c3.14168,-0.03106 6.35349,0.04517 9.49804,0.30488c0.42492,0 2.05572,0.04203 2.76174,-0.06336z" fill="#ffffff" stroke="none" stroke-width="0.5" stroke-linecap="butt"/><path d="M352.56879,151.35228c2.62728,-2.08358 4.99344,-4.65516 6.9966,-7.31554c2.09459,-2.79278 4.29565,-5.43682 6.26741,-8.3041c1.59023,-2.31247 2.65114,-4.83514 4.49552,-6.98311l0.45542,-0.93028c0.88126,1.35252 -0.46594,5.64471 -0.76605,6.9551c-0.22677,2.67593 0.38632,6.44602 -0.91173,8.89708c-0.62453,1.17927 -1.7269,2.24452 -2.47941,3.3529c-0.85539,1.25991 -2.19049,2.91436 -3.69031,3.46173c-2.65062,0.96737 -6.96347,0.58751 -9.80176,0.84685c-0.20877,0.03483 -0.3569,-0.01174 -0.56567,0.01938z" fill="#ffffff" stroke="none" stroke-width="0.5" stroke-linecap="butt"/><path d="M345.58662,151.9106c-6.78564,0.066 -13.65047,-0.71577 -20.40108,0.72921c1.58341,-0.80902 3.90788,-2.96285 4.84143,-3.77778c3.45324,-3.0145 6.96385,-6.16332 10.21343,-9.4129c0.11899,-1.12743 1.96399,3.23603 2.43941,4.13416c1.27215,2.40324 2.43163,4.91173 3.70121,7.29588c-0.27551,0.33845 -0.54127,0.68585 -0.7944,1.03143z" fill="#ffffff" stroke="none" stroke-width="0.5" stroke-linecap="butt"/><path d="M323.47606,152.9305c-4.9119,-0.0479 -9.95113,-0.174 -14.90567,-0.49475c-2.27594,-0.34403 -4.56918,-0.70874 -6.84561,-0.96895c2.8487,-2.33222 4.88654,-5.53464 7.57716,-8.22526c1.37478,-1.37479 2.99776,-2.56305 4.33029,-3.98791c0.24542,-0.26242 0.69954,-0.69919 0.9823,-1.0805c0.14125,0.33962 0.34813,0.71823 0.46165,0.94572c0.66612,1.33491 1.21965,2.72125 1.88814,4.05823c1.01353,2.70274 2.55315,5.28292 4.20036,7.64771c0.63048,0.90514 1.20121,1.8814 2.3114,2.10572z" fill="#ffffff" stroke="none" stroke-width="0.5" stroke-linecap="butt"/><path d="M297.14856,151.03955c-2.08841,-0.21554 -4.20234,-0.50878 -6.29035,-0.87652c-3.22445,-0.73687 -6.46396,-1.62896 -9.67942,-2.36038c1.31356,-1.10738 2.39254,-2.57381 3.4875,-3.85333c1.48727,-2.0833 3.07325,-6.48869 5.21873,-7.86018c1.07203,-0.68529 2.47028,2.74537 2.67145,3.17242c1.78838,3.79639 2.77973,8.0018 4.59208,11.77799z" fill="#ffffff" stroke="none" stroke-width="0.5" stroke-linecap="butt"/><path d="M275.08588,130.18278c0.01486,4.88739 0.55047,9.89378 1.44761,14.68577c0.07752,0.41405 0.14746,1.22318 0.28807,2.06786c-0.95617,-0.16744 -1.92836,-0.32147 -2.88753,-0.47235c-0.77739,-0.17517 -1.56651,-0.34891 -2.34061,-0.5151c-0.02621,-0.65839 0.22272,-2.73726 0.22272,-3.06387c0,-3.85718 -0.25601,-7.84193 -0.1147,-11.69025c0.01205,-0.32823 0.308,-1.80486 0.44391,-3.07746c0.00105,0.00127 0.00187,0.00225 0.00245,0.00296c0.73793,0.90727 1.84827,1.5705 2.93809,2.06244z" fill="#ffffff" stroke="none" stroke-width="0.5" stroke-linecap="butt"/></g></g></svg>