<svg version="1.1" xmlns="http://www.w3.org/2000/svg" xmlns:xlink="http://www.w3.org/1999/xlink" width="35.17311" height="35.17311" viewBox="0,0,35.17311,35.17311"><g transform="translate(-302.41347,-162.4135)"><g data-paper-data="{&quot;isPaintingLayer&quot;:true}" stroke-miterlimit="10" stroke-dasharray="" stroke-dashoffset="0" style="mix-blend-mode: normal"><path d="M309.98314,162.9135h20.03379c3.9166,0 7.06966,3.15307 7.06966,7.06966v20.03379c0,3.91659 -3.15306,7.06966 -7.06966,7.06966h-20.03379c-3.91659,0 -7.06966,-3.15307 -7.06966,-7.06966v-20.03379c0,-3.91659 3.15307,-7.06966 7.06966,-7.06966z" fill="#000000" fill-rule="evenodd" stroke="#ffffff" stroke-width="1" stroke-linecap="round" stroke-linejoin="round"/><path d="M309.98314,162.9135h20.03378c3.9166,0 7.06966,3.15307 7.06966,7.06966v20.03379c0,3.91659 -3.15306,7.06966 -7.06966,7.06966h-20.03378c-3.91659,0 -7.06967,-3.15307 -7.06967,-7.06966v-20.03379c0,-3.91659 3.15308,-7.06966 7.06967,-7.06966z" fill="#ffeb0f" fill-rule="evenodd" stroke="none" stroke-width="4.43922" stroke-linecap="round" stroke-linejoin="round"/><path d="M313.15523,171.68722c-0.83205,0.5547 -1.38675,-0.27735 -1.38675,-0.27735l-0.2073,-0.31576c-0.93982,-1.21189 -1.61124,-1.71276 -2.80475,-2.68455c-0.21624,-0.17607 -0.62117,-0.84403 -0.61673,-0.56521c0.02732,1.71593 -0.28917,3.39107 -0.28917,5.13582c0,0 0,1 -1,1c-1,0 -1,-1 -1,-1c0,-1.26743 -0.27111,-5.33329 0.71083,-6.36418c2.19914,-2.30876 5.33991,1.662 6.57852,3.25024l0.2927,0.43424c0,0 0.5547,0.83205 -0.27735,1.38675z" fill="#000000" fill-rule="nonzero" stroke="none" stroke-width="0.5" stroke-linecap="butt" stroke-linejoin="miter"/><path d="M332.10053,174.23017c-1,0 -1,-1 -1,-1v-0.5c0,-2.17662 0.69404,-5.55314 -2.00245,-3.46742c-0.53367,0.41279 -0.79745,0.8788 -1.18382,1.42366c0,0 -0.58124,0.81373 -1.39497,0.2325c-0.81373,-0.58124 -0.2325,-1.39497 -0.2325,-1.39497c1.13452,-1.57849 3.81444,-4.55643 5.90881,-2.61266c1.21161,1.12448 0.90493,4.33342 0.90493,5.8189v0.5c0,0 0,1 -1,1z" fill="#000000" fill-rule="nonzero" stroke="none" stroke-width="0.5" stroke-linecap="butt" stroke-linejoin="miter"/><path d="M314.10053,178.98017c0,-0.55228 0.44772,-1 1,-1c0.55228,0 1,0.44772 1,1c0,0.55228 -0.44772,1 -1,1c-0.55228,0 -1,-0.44772 -1,-1z" fill="#000000" fill-rule="nonzero" stroke="none" stroke-width="0.5" stroke-linecap="butt" stroke-linejoin="miter"/><path d="M322.10053,178.98017c0,-0.55228 0.44772,-1 1,-1c0.55228,0 1,0.44772 1,1c0,0.55228 -0.44772,1 -1,1c-0.55228,0 -1,-0.44772 -1,-1z" fill="#000000" fill-rule="nonzero" stroke="none" stroke-width="0.5" stroke-linecap="butt" stroke-linejoin="miter"/></g></g></svg>