<svg version="1.1" xmlns="http://www.w3.org/2000/svg" xmlns:xlink="http://www.w3.org/1999/xlink" width="217.30198" height="322.69123" viewBox="0,0,217.30198,322.69123"><g transform="translate(-223.47384,-35.06514)"><g data-paper-data="{&quot;isPaintingLayer&quot;:true}" fill-rule="nonzero" stroke-linejoin="miter" stroke-miterlimit="10" stroke-dasharray="" stroke-dashoffset="0" style="mix-blend-mode: normal"><path d="M304.6514,250.02203c-7.95138,3.14888 -19.76981,-0.05443 -27.62689,-2.85512c-23.76601,-8.4715 -51.6613,-29.15477 -52.55067,-57.25347c-0.60153,-19.00445 14.50158,-31.4319 29.50907,-39.77957c5.69358,-3.16697 17.7166,-8.45781 21.2126,-0.06138c0.93034,2.23443 1.01048,4.63299 -0.14528,6.8345c-2.49686,4.75604 -10.02672,5.7522 -14.21008,8.75319c-12.64061,9.06788 -18.72121,23.34132 -11.40367,37.79049c7.74784,15.29883 26.26076,21.22509 42.31528,19.77355c8.29909,-0.75036 16.62399,-4.34443 25.07808,-1.74304c25.06465,7.71258 4.40422,26.74791 -10.96943,28.89039z" fill="#feed00" stroke="#000000" stroke-width="2" stroke-linecap="round"/><path d="M297.53181,245.05426c5.73931,0.15015 13.54794,-0.65728 19.35014,-1.26697c6.32641,-0.66477 14.79593,0.6678 21.23485,0.95842c3.78234,0.17071 12.40733,-0.31085 15.32936,1.36303c1.89145,1.08352 1.65368,3.67307 2.06299,5.02918c1.52097,5.0393 0.32128,10.42596 1.84079,15.56289c1.79496,6.06816 -0.43425,12.09663 0.15522,18.26306c1.10195,11.52739 1.51265,23.2049 -3.54232,34.59254c-2.2105,4.97976 5.74784,11.45994 -3.24275,14.15934c-3.18367,0.95588 -11.27492,7.58796 -14.75734,7.43078c-5.05196,-0.22802 -10.96914,-5.4533 -17.10732,-6.82407c-7.81564,-1.74539 -18.40625,2.1411 -24.21722,0.33976c-2.9087,-0.90168 -6.62964,-4.32022 -8.07378,-6.31599c-1.81028,-2.50177 2.10629,-13.32683 2.45063,-16.56667c1.69338,-15.93235 1.25855,-24.77771 2.95078,-40.72417c0.55607,-5.23992 0.80494,-22.53096 4.14787,-26.06429z" fill="#3c2c1f" stroke="#000000" stroke-width="2" stroke-linecap="round"/><g stroke-width="2"><path d="M292.95237,224.43971c3.42678,-0.23251 9.16639,7.57233 5.92928,13.79289c-3.51965,6.76349 -7.42891,2.21939 -8.83528,3.24215c-0.27083,0.19694 -2.32743,10.74751 -5.25752,12.9871c-5.41516,4.13907 -6.47057,-4.4187 -7.94509,-4.96039c-0.9819,-0.36071 -3.00745,6.16657 -5.23756,4.98964c-2.27398,-1.20007 -3.35484,-5.05934 -3.54718,-8.67096c-0.03606,-0.67722 0.63915,-5.04929 0.5178,-5.22587c-0.36952,-0.53767 -2.00374,1.75528 -2.45293,1.91788c-2.05657,0.74444 -2.67624,-4.08381 -2.81045,-6.28313c-0.81941,-13.42657 12.65855,-24.64176 19.7238,-22.60622c3.72674,1.0737 6.98786,7.58327 9.70466,11.09849z" fill="#feed00" stroke="#000000" stroke-linecap="round"/><path d="M276.90665,219.75464c3.0669,-2.26295 6.20851,-0.74769 7.01696,3.38443c0.36519,1.86654 0.23484,3.91601 -0.30054,5.81088c-0.64984,2.29997 -2.20019,1.58698 -3.88173,2.82772c-1.61124,1.18887 -2.99751,4.16303 -4.35605,3.47543c-1.22737,-0.62121 -2.18419,-1.95792 -2.5679,-3.91919c-0.80845,-4.13212 1.02237,-9.31632 4.08927,-11.57928z" fill="#ffa600" stroke="none" stroke-linecap="butt"/><path d="M294.89142,230.51264c1.75144,-0.95921 3.361,0.16635 3.59505,2.51399c0.23405,2.34764 -0.99604,5.02835 -2.74748,5.98756c-1.75144,0.95921 -3.36102,-0.16633 -3.59507,-2.51397c-0.23405,-2.34764 0.99604,-5.02835 2.74749,-5.98756z" fill="#ffa600" stroke="none" stroke-linecap="butt"/><path d="M282.45961,244.61318c1.72956,-0.9472 3.31885,0.16269 3.54978,2.47902c0.23093,2.31633 -0.98395,4.96196 -2.7135,5.90916c-1.72956,0.9472 -3.31885,-0.16269 -3.54978,-2.47902c-0.23093,-2.31633 0.98395,-4.96196 2.7135,-5.90916z" fill="#ffa600" stroke="none" stroke-linecap="butt"/><path d="M272.18843,243.06574c1.42305,-0.77935 2.76133,0.44125 2.98916,2.72628c0.22781,2.28504 -0.74114,4.7692 -2.16419,5.54855c-1.42305,0.77935 -2.76133,-0.44125 -2.98916,-2.72628c-0.22781,-2.28504 0.74114,-4.7692 2.16419,-5.54855z" fill="#ffa600" stroke="none" stroke-linecap="butt"/><path d="M265.62823,231.35703c0.9633,-0.52757 1.91877,0.79564 2.13408,2.95548c0.21534,2.15983 -0.39102,4.33838 -1.35431,4.86593c-0.9633,0.52757 -1.91877,-0.79564 -2.13408,-2.95548c-0.21534,-2.15983 0.39102,-4.33836 1.35431,-4.86593z" fill="#ffa600" stroke="none" stroke-linecap="butt"/></g><path d="M295.44882,205.55009c-1.94306,6.26724 -2.81769,17.80773 -7.06053,22.80165c-3.3838,3.9828 -22.06262,-3.12892 -24.4465,-7.07868c-0.82918,-1.37383 4.61279,-18.05313 5.41642,-20.45749c6.16539,-18.44588 13.5388,-35.90484 21.01528,-53.91822c2.05255,-4.94532 6.54299,-8.18062 8.64607,-12.81992l1.17216,0.09763c12.90574,3.20214 24.36499,9.58905 38.27223,8.65523c5.56588,-0.37372 9.72135,-2.13013 13.92417,-5.79327c0.96092,-0.83753 3.72214,-2.82966 5.12696,-1.80625c3.16182,2.30339 4.7424,10.66141 6.31239,14.19089c6.47482,14.5558 10.59888,30.38055 13.18739,46.11132c0.75781,4.60532 -4.58411,15.32196 -5.91765,19.84558c-1.56178,5.29781 -4.34837,-3.48462 -8.6228,-0.24666c-1.18955,0.9011 -4.5091,4.11644 -5.85367,2.13682c-1.87319,-2.75792 0.82557,-11.08614 0.82557,-11.08614c0,0 0.01626,16.03607 0.55774,24.00673c0.26558,3.90928 1.90413,10.40069 -0.12762,14.07473c-1.54755,2.79847 -10.55153,3.26405 -13.45017,3.4508c-11.72519,0.75541 -23.65985,-2.04021 -35.37754,-1.24664c-3.80863,0.25793 -13.52346,2.64952 -16.81412,0.67781c-1.75382,-1.05088 -0.56847,-6.49633 -0.48969,-8.24165c0.3468,-7.68376 -0.44384,-16.56116 1.40222,-24.02398" fill="#fffe8a" stroke="#000000" stroke-width="2" stroke-linecap="round"/><path d="M306.58554,126.1139c14.15474,-1.83466 27.91476,-3.76303 42.22435,-1.98675c3.05166,0.37882 13.69272,2.00037 12.66725,6.68206c-1.39373,6.36288 -7.82787,9.40944 -13.712,10.54462c-10.60768,2.04646 -35.42088,1.74998 -44.61599,-4.17656c-6.54415,-4.2179 -4.44983,-11.63754 3.59026,-11.27466z" fill="#fffe8a" stroke="#000000" stroke-width="2" stroke-linecap="round"/><g stroke-width="2" stroke-linecap="round"><path d="M314.69637,54.98207c-12.6299,4.49693 -14.47572,17.4724 -18.45883,28.53643c-0.43773,1.21591 -4.01878,11.94362 -5.3005,11.71334c-0.53215,-0.0956 -0.33482,-1.02944 -0.46022,-1.55536c-0.99815,-4.18621 -2.38508,-8.29146 -3.41279,-12.48589c-2.56486,-10.4677 -4.10304,-21.21451 -5.54009,-31.90665c-0.41268,-3.07037 -1.93737,-10.10544 -0.56688,-12.9305c0.87822,-1.81031 1.42208,-0.98694 2.65325,-0.38882c6.3263,3.07341 12.4953,6.42457 18.67144,9.78267c4.53553,2.46606 10.11398,4.81242 13.4425,8.87674z" fill="#feed00" stroke="#000000"/><path d="M308.25256,57.46082c-8.08015,3.70934 -8.54052,12.38878 -10.52457,19.93054c-0.21804,0.82883 -1.95616,8.12487 -2.81631,8.04775c-0.35713,-0.03202 -0.28139,-0.66045 -0.39499,-1.00054c-0.90423,-2.70697 -2.06052,-5.33774 -2.98477,-8.04842c-2.30658,-6.76482 -3.95128,-13.7741 -5.52597,-20.75313c-0.4522,-2.00411 -1.87089,-6.56223 -1.1308,-8.50859c0.47425,-1.24726 0.88168,-0.73514 1.72997,-0.41204c4.35886,1.66023 8.63003,3.51314 12.90634,5.37021c3.14036,1.36377 6.96267,2.58744 9.39918,5.07761z" fill="#ffa700" stroke="none"/></g><g stroke-width="2" stroke-linecap="round"><path d="M349.44552,57.33099c3.46338,-3.95006 9.1176,-6.10741 13.73352,-8.4195c6.28562,-3.14842 12.56386,-6.29015 18.98997,-9.14899c1.25059,-0.55637 1.82185,-1.36098 2.63868,0.47787c1.27468,2.86956 -0.48584,9.84937 -1.00157,12.90411c-1.79596,10.63774 -3.69481,21.32671 -6.61036,31.7022c-1.16827,4.15747 -2.6925,8.21376 -3.83091,12.36401c-0.14302,0.52141 0.02277,1.46134 -0.51229,1.53899c-1.28874,0.18701 -4.50685,-10.65509 -4.90344,-11.88504c-3.60863,-11.19177 -5.01691,-24.22201 -17.48836,-29.14127z" fill="#feed00" stroke="#000000"/><path d="M356.16982,60.09892c2.51891,-2.40678 6.38021,-3.50118 9.56468,-4.75853c4.33636,-1.71216 8.66747,-3.42034 13.0797,-4.93297c0.85868,-0.29439 1.28311,-0.79247 1.71513,0.47002c0.67419,1.97015 -0.89704,6.47796 -1.41641,8.46573c-1.80861,6.92213 -3.68818,13.87209 -6.22103,20.55548c-1.01492,2.67806 -2.25906,5.26842 -3.25385,7.94345c-0.12498,0.33607 -0.07044,0.96669 -0.42843,0.9867c-0.86228,0.04817 -2.35394,-7.30226 -2.54398,-8.13794c-1.72921,-7.60424 -1.89733,-16.29423 -9.84811,-20.27331z" fill="#ffa700" stroke="none"/></g><path d="M330.92918,53.43764c10.42778,0.47065 22.95982,0.03124 30.1042,8.59563c6.18009,7.40844 5.54181,13.78543 7.16086,22.34491c0.49725,2.62885 2.3049,4.6377 2.48993,7.54254c1.12183,17.61226 -8.53949,38.7864 -29.89489,40.0993c-17.8861,1.09961 -38.76759,-3.50054 -48.15869,-19.39481c-5.86402,-9.92476 -0.84998,-22.80432 2.71058,-32.09992c1.37961,-3.60178 0.44713,-7.92659 2.04074,-11.70776c6.23864,-14.80251 19.44454,-15.74223 33.88808,-15.09033z" fill="#feed00" stroke="#000000" stroke-width="2" stroke-linecap="round"/><path d="M366.96558,96.24001c4.26621,0.58278 15.27396,5.50441 10.60965,11.32129c-1.21359,1.51348 -7.31221,2.04737 -7.73452,3.23128c-0.31671,0.88785 0.9988,1.62217 1.27889,2.52224c0.74946,2.40843 1.14553,5.95338 0.67561,8.4439c-1.29279,6.8519 -11.19493,2.84285 -14.04316,-0.22373" fill="#feed00" stroke="#000000" stroke-width="2" stroke-linecap="round"/><path d="M299.29026,121.71159c-3.11289,2.79753 -13.33593,5.89822 -14.00622,-1.04226c-0.24364,-2.52272 0.47018,-6.01758 1.43356,-8.34868c0.36004,-0.87119 1.73635,-1.48401 1.5009,-2.39678c-0.31394,-1.21715 -6.33966,-2.29825 -7.41198,-3.91492c-4.12132,-6.21342 7.28503,-10.12339 11.58639,-10.31947" fill="#feed00" stroke="#000000" stroke-width="2" stroke-linecap="round"/><path d="M256.07693,73.11682c14.29392,0.86017 24.4784,11.88533 35.76545,19.02873" fill="none" stroke="#000000" stroke-width="2" stroke-linecap="round"/><path d="M260.24408,87.54717c10.81731,-0.81662 21.62921,3.07123 31.89402,5.8434" fill="none" stroke="#000000" stroke-width="2" stroke-linecap="round"/><path d="M264.4261,95.65609c8.7537,-1.23238 17.97574,-2.35304 26.81815,-1.95395" fill="none" stroke="#000000" stroke-width="2" stroke-linecap="round"/><path d="M370.0458,94.2676c8.75035,-7.99458 18.60101,-17.79472 31.22941,-17.24132" fill="none" stroke="#000000" stroke-width="2" stroke-linecap="round"/><path d="M367.37225,95.02669c11.30421,-7.32798 21.55617,-6.48012 33.61069,-2.20724" fill="none" stroke="#000000" stroke-width="2" stroke-linecap="round"/><path d="M370.82075,96.58995c8.74795,-3.0493 19.41474,0.89018 26.91702,5.55483" fill="none" stroke="#000000" stroke-width="2" stroke-linecap="round"/><path d="M325.29915,103.17517c3.71623,0.16774 7.63989,0.10338 11.30848,0.72994c0.46562,0.07953 1.27816,-0.08508 1.36542,0.37917c0.1143,0.60812 -6.7153,4.07816 -7.47924,3.98655c-1.7179,-0.20599 -4.16342,-3.69732 -4.77704,-5.0768z" fill="#000000" stroke="#000000" stroke-width="2" stroke-linecap="round"/><path d="M312.94305,58.68843c0.76682,-3.66575 4.53039,-4.65934 8.21317,-5.76168c0.40788,-0.12208 3.85925,-1.10568 3.79748,-1.60541c-0.11238,-0.90911 -5.41445,-0.4955 -4.63596,-2.43545c1.04558,-2.60555 11.56918,-1.50962 13.83687,-1.40749c0.32661,0.01471 4.18628,0.33042 4.24717,0.18716c0.26093,-0.61387 -6.13262,-2.97187 -5.65188,-3.78028c0.26275,-0.44186 4.92496,1.33576 5.38939,1.5368c6.08444,2.63389 7.34396,6.49819 10.76538,11.11783" fill="#feed00" stroke="#000000" stroke-width="2" stroke-linecap="round"/><path d="M298.64527,74.8217c-2.31657,-1.26803 -2.23734,-3.33433 -3.96715,-5.10252c-0.88317,-0.90277 -5.75998,-1.72777 -5.59557,-3.33638c0.21626,-2.11581 6.19935,-2.6671 7.53625,-3.12096c0.94118,-0.31952 -0.06597,-8.63006 7.96275,-2.83624" fill="#feed00" stroke="#000000" stroke-width="2" stroke-linecap="round"/><path d="M311.8528,177.23746c1.21565,0.56939 4.66127,0.4686 5.07274,2.0266c1.38006,5.22535 -2.82874,9.66579 -7.62498,8.41719c-3.19378,-0.83142 2.97038,-11.13282 2.97038,-11.13282c0,0 1.39263,-23.70811 4.4214,-35.08549" fill="#ffaf36" stroke="#000000" stroke-width="2" stroke-linecap="round"/><path d="M338.53661,179.04694c10.06187,-10.25952 7.52599,18.33344 -1.84098,9.84042c-5.07154,-4.59834 1.64387,-8.32833 2.26175,-10.82121c2.9165,-11.76689 -1.49878,-24.71236 2.63636,-36.58937" fill="#ffaf36" stroke="#000000" stroke-width="2" stroke-linecap="round"/><path d="M298.43002,208.30236c3.66583,-2.67076 8.04972,-1.94798 12.28277,-2.42226c13.65302,-1.52973 28.75145,0.05012 42.16978,2.85217" fill="none" stroke="#000000" stroke-width="2" stroke-linecap="round"/><path d="M353.63361,239.65581c0.29609,-8.89441 -0.92378,-17.97729 0.96207,-26.81415" fill="none" stroke="#000000" stroke-width="2" stroke-linecap="round"/><path d="M298.73823,212.57537c-0.38396,8.50705 -0.31208,16.97091 -0.89667,25.45077" fill="none" stroke="#000000" stroke-width="2" stroke-linecap="round"/><path d="M309.75294,136.08655c-2.57709,-1.03536 -4.23831,-3.68683 -6.57451,-5.23594" fill="none" stroke="#fcec41" stroke-width="2" stroke-linecap="round"/><path d="M352.63417,135.6871c1.67677,-1.01004 3.23749,-1.79847 5.08885,-2.44382" fill="none" stroke="#fcec41" stroke-width="2" stroke-linecap="round"/><path d="M323.86761,146.84172l-0.43215,9.57466" fill="none" stroke="#fcec41" stroke-width="2" stroke-linecap="round"/><path d="M327.00163,155.17334l0.22134,-4.90411" fill="none" stroke="#fcec41" stroke-width="2" stroke-linecap="round"/><path d="M330.73645,150.19381l0.53193,3.76808" fill="none" stroke="#fcec41" stroke-width="2" stroke-linecap="round"/><path d="M280.11711,226.36523l14.68281,-36.66712l-8.90963,36.42661z" fill="#fce541" stroke="#fcec41" stroke-width="2" stroke-linecap="round"/><path d="M280.11711,226.36523l14.68281,-36.66712l-8.90963,36.42661z" fill="#fce541" stroke="#fcec41" stroke-width="2" stroke-linecap="round"/><path d="M356.16286,213.8134l-5.89714,-30.31841l11.86725,25.71446z" fill="#fce541" stroke="#fcec41" stroke-width="2" stroke-linecap="round"/><path d="M319.87549,333.46359l4.15756,-76.64067" fill="none" stroke="#000000" stroke-width="2" stroke-linecap="round"/><path d="M321.90731,341.93656c-0.39093,8.66144 -9.52371,15.28505 -20.39863,14.79421c-10.87493,-0.49083 -19.37388,-7.91021 -18.98295,-16.57168c0.39093,-8.66144 9.52371,-15.28505 20.39863,-14.79421c10.87493,0.49083 19.37388,7.91021 18.98295,16.57168z" fill="#000000" stroke="#000000" stroke-width="2" stroke-linecap="butt"/><path d="M360.41585,338.40143c-0.39093,8.66145 -9.52371,15.28505 -20.39864,14.79421c-10.87492,-0.49083 -19.37388,-7.91021 -18.98295,-16.57168c0.39093,-8.66145 9.52371,-15.28505 20.39863,-14.79421c10.87493,0.49083 19.37389,7.91021 18.98296,16.57168z" fill="#000000" stroke="#000000" stroke-width="2" stroke-linecap="butt"/><path d="M320.48544,124.08301l0.15999,-3.54466l19.3733,0.8744l-0.15999,3.54466z" fill="none" stroke="#000000" stroke-width="2" stroke-linecap="butt"/><path d="M367.14101,197.5497c1.78396,4.0688 5.93548,10.04998 5.09248,13.83556c-1.59816,7.17684 -17.89962,13.63426 -29.29244,6.48248c-1.86619,-1.17148 -5.80737,-4.02856 -4.16867,-5.4771c0.35792,-0.31636 3.15353,-0.65231 2.85863,-1.23426c-0.09685,-0.19112 -4.25799,-1.69304 -4.83517,-2.04913c-3.07801,-1.89911 -5.94772,-4.69679 -5.91165,-7.26776c0.03535,-2.52135 6.7352,-1.17217 6.88901,-2.20687c0.23097,-1.55381 -6.77511,-6.58012 -0.54765,-9.3504c3.36961,-1.49896 13.61584,1.75048 13.91846,1.60712c1.57151,-0.74446 -0.54426,-6.35291 7.07874,-6.20204c7.01107,0.13878 11.1121,8.91604 9.26628,11.81256z" fill="#feed00" stroke="#000000" stroke-width="2" stroke-linecap="round"/><path d="M300.75807,90.84833l23.3344,0.91884" fill="none" stroke="#000000" stroke-width="2" stroke-linecap="round"/><path d="M338.79285,92.24747l23.3344,0.91884" fill="none" stroke="#000000" stroke-width="2" stroke-linecap="round"/><path d="M404.61563,138.72629c0,1.59798 -0.92856,2.2674 -1.70655,2.54783c0.07043,2.03137 0.00738,4.09458 0.07432,6.16977l0.00143,0.74098c0,0 0,2.75 -2.75,2.75c-2.75,0 -2.75,-2.75 -2.75,-2.75l0.00143,-0.56365c-0.06583,-2.04076 0.07413,-4.10195 0.03831,-6.14493c-2.55016,0 -5.50934,0 -7.9383,0c-1.79215,2.71397 -2.63839,5.06013 -4.05338,8.953c0,0 -0.9398,2.58443 -3.52423,1.64463c-2.58443,-0.9398 -1.64464,-3.52423 -1.64464,-3.52423c1.0722,-2.94731 2.19873,-5.65217 3.55121,-8.19612c-0.27193,-0.3907 -0.4552,-0.91736 -0.4552,-1.6273c0,-2.75 2.75,-2.75 2.75,-2.75c0.1295,0 0.25899,0 0.38849,0c1.26725,-1.79523 2.72077,-3.52651 4.43403,-5.22876c1.76923,-1.75786 3.24749,-5.32706 5.69583,-4.85178c2.61104,0.50687 2.9581,4.43122 4.21444,6.77559c0.58625,1.09394 1.00059,2.20808 1.29357,3.3386c0.75059,0.11237 2.37923,0.60004 2.37923,2.71635zM395.84932,134.74647c-0.2188,-1.1161 0.89247,-2.63201 0.06418,-3.41142c-0.71729,-0.67496 -0.12964,2.03453 -0.61917,2.88918c-0.35861,0.62609 -0.79336,1.19993 -1.25965,1.75206c0.76423,0 1.52846,0 2.29269,0c-0.20862,-0.39497 -0.39325,-0.7973 -0.47804,-1.22982z" fill="#ffa600" stroke="none" stroke-width="0.5" stroke-linecap="butt"/><path d="M435.53468,159.12465c-2.45967,-1.22984 -1.22984,-3.68951 -1.22984,-3.68951l1.05763,-1.86564c-0.43831,-2.53955 -1.56041,-5.58804 -2.15945,-8.44544c-0.47699,0.72753 -0.95149,1.45665 -1.41493,2.19285c-0.87298,1.38676 -0.94358,3.90769 -2.5561,4.19916c-1.74477,0.31538 -3.11426,-1.75338 -4.4359,-2.93532c-1.36657,-1.22213 -2.49674,-2.70077 -3.54679,-4.2036c-0.6933,-0.99225 -0.80562,-2.36776 -1.65042,-3.23468c-0.302,-0.3099 -0.08211,0.87811 -0.26293,1.27124c-0.69894,1.51962 -1.35272,3.09276 -2.35885,4.42897l-2.59981,4.78306c-0.45771,0.88277 -1.37987,1.48595 -2.44291,1.48595c-1.47369,0 -2.67664,-1.15919 -2.74677,-2.61551c-0.1017,-1.83051 -0.50747,-9.1345 -0.60917,-10.96501c0,0 -0.15254,-2.74577 2.59322,-2.89831c2.74577,-0.15254 2.89831,2.59322 2.89831,2.59322c0.01475,0.26554 0.0295,0.53109 0.04426,0.79663c0.27223,-0.32066 0.57924,-0.66614 0.92487,-1.04224c1.34855,-1.46743 3.00839,-3.67121 4.97064,-3.32265c0.5421,0.0963 5.25031,4.81241 7.64986,7.6058c0.69506,-1.07605 1.56881,-2.06894 2.25184,-3.15058l2.22901,-3.48282c0.48449,-0.78391 1.35173,-1.30623 2.34097,-1.30623c1.20154,0 2.22311,0.77059 2.59745,1.84452l0.95593,2.54915l-0.02126,0.00797c0.02908,0.06025 0.05736,0.12096 0.08477,0.18218c1.84536,4.12128 2.32673,10.13661 2.67753,14.63413l-1.55163,3.35288c0,0 -1.22984,2.45967 -3.68951,1.22984z" fill="#ffa600" stroke="none" stroke-width="0.5" stroke-linecap="butt"/></g></g></svg>