<svg version="1.1" xmlns="http://www.w3.org/2000/svg" xmlns:xlink="http://www.w3.org/1999/xlink" width="136.99702" height="336.21962" viewBox="0,0,136.99702,336.21962"><defs><linearGradient x1="314.33812" y1="159.84405" x2="322.99551" y2="338.47566" gradientUnits="userSpaceOnUse" id="color-1"><stop offset="0" stop-color="#f2acec"/><stop offset="1" stop-color="#cea1ff"/></linearGradient><linearGradient x1="271.97946" y1="171.93455" x2="278.84681" y2="287.03083" gradientUnits="userSpaceOnUse" id="color-2"><stop offset="0" stop-color="#9b60f2"/><stop offset="1" stop-color="#8784ca"/></linearGradient><linearGradient x1="357.32842" y1="166.29725" x2="364.19577" y2="281.39353" gradientUnits="userSpaceOnUse" id="color-3"><stop offset="0" stop-color="#9b60f2"/><stop offset="1" stop-color="#8784ca"/></linearGradient></defs><g transform="translate(-252.0755,-11.8902)"><g stroke-miterlimit="10"><path d="M275.48065,337.66559l-11.26672,-143.78006c0,0 7.39829,-29.27075 17.2085,-30.26205c9.74235,-0.98442 32.8537,-2.92101 53.02409,-4.95916c21.87716,-2.21061 32.92392,27.14185 32.92392,27.14185l4.72068,149.74013z" fill="url(#color-1)" stroke="#000000" stroke-width="2.5" stroke-linecap="butt"/><path d="M338.95249,167.56242c0.58675,12.10674 -9.73998,22.56576 -23.06539,23.36083c-13.32542,0.79507 -24.60345,-8.37486 -25.1902,-20.4816c-0.58675,-12.10674 10.42519,-8.42733 23.75059,-9.2224c13.32542,-0.79507 23.91824,-5.76358 24.50499,6.34318z" fill="#f2caef" stroke-opacity="0.52549" stroke="#000000" stroke-width="1.5" stroke-linecap="butt"/><path d="M330.67298,167.76651c0.38037,7.84831 -6.63204,14.64743 -15.66267,15.18625c-9.03063,0.53882 -16.65974,-5.38669 -17.04011,-13.235c-0.38037,-7.84831 6.63205,-14.64743 15.66267,-15.18625c9.03063,-0.53882 16.65973,5.38669 17.04011,13.235z" fill="#f235e2" stroke="#000000" stroke-width="2.5" stroke-linecap="butt"/><path d="M275.32128,206.79066l1.91357,-5.05083" fill="none" stroke-opacity="0.15294" stroke="#000000" stroke-width="2.5" stroke-linecap="round"/><path d="M275.83957,230.2089l2.75779,6.00629" fill="none" stroke-opacity="0.15294" stroke="#000000" stroke-width="2.5" stroke-linecap="round"/><path d="M361.73808,195.77221l-1.98812,3.51258" fill="none" stroke-opacity="0.15294" stroke="#000000" stroke-width="2.5" stroke-linecap="round"/><path d="M358.7999,217.85399l0.89819,5.80871" fill="none" stroke-opacity="0.15294" stroke="#000000" stroke-width="2.5" stroke-linecap="round"/><path d="M344.03824,180.47558c0,0 1.98392,-1.89895 2.74313,-2.62564c0.53892,-0.51584 1.38221,-1.323 1.38221,-1.323" fill="none" stroke-opacity="0.15294" stroke="#000000" stroke-width="2.5" stroke-linecap="round"/><path d="M282.35497,180.14495l2.51923,1.08385" fill="none" stroke-opacity="0.15294" stroke="#000000" stroke-width="2.5" stroke-linecap="round"/><path d="M354.75983,185.38961l-1.84468,0.11007" fill="none" stroke-opacity="0.15294" stroke="#000000" stroke-width="2.5" stroke-linecap="round"/><path d="M347.41364,256.48398l1.6267,1.75419" fill="none" stroke-opacity="0.15294" stroke="#000000" stroke-width="2.5" stroke-linecap="round"/><path d="M295.80935,279.61821l-1.09559,2.84225" fill="none" stroke-opacity="0.15294" stroke="#000000" stroke-width="2.5" stroke-linecap="round"/><path d="M292.77805,176.96819l4.89845,-4.30181" fill="none" stroke-opacity="0.15294" stroke="#000000" stroke-width="2.5" stroke-linecap="round"/><path d="M300.43359,177.27513l-1.98517,8.32848" fill="none" stroke-opacity="0.15294" stroke="#000000" stroke-width="2.5" stroke-linecap="round"/><path d="M307.83622,182.94324l-1.33768,6.38053" fill="none" stroke-opacity="0.15294" stroke="#000000" stroke-width="2.5" stroke-linecap="round"/><path d="M316.84034,189.85229l-1.12427,-6.04271" fill="none" stroke-opacity="0.15294" stroke="#000000" stroke-width="2.5" stroke-linecap="round"/><path d="M324.80009,179.25803l3.10626,7.26096" fill="none" stroke-opacity="0.15294" stroke="#000000" stroke-width="2.5" stroke-linecap="round"/><path d="M334.75865,176.56361l-5.86652,-2.323" fill="none" stroke-opacity="0.15294" stroke="#000000" stroke-width="2.5" stroke-linecap="round"/><path d="M331.09298,169.52696l5.33845,-0.1276" fill="none" stroke-opacity="0.15294" stroke="#000000" stroke-width="2.5" stroke-linecap="round"/><path d="M256.3175,292.77996c0,0 -7.37921,-35.7499 1.03971,-82.25645c8.41893,-46.50655 15.48516,-44.91794 21.99667,-44.9976c7.18072,-0.08784 19.84228,4.78473 19.84228,4.78473l-4.23273,159.80749c0,0 -12.15543,16.3871 -18.09839,16.74169c-1.22333,0.073 -20.54754,-54.07987 -20.54754,-54.07987z" fill="url(#color-2)" stroke="#000000" stroke-width="2.5" stroke-linecap="butt"/><path d="M373.34409,340.55842c-6.0143,0.35885 -20.18911,-14.45722 -20.18911,-14.45722l-23.3699,-158.16054c0,0 12.14031,-6.3524 19.36645,-7.12417c6.5527,-0.69983 13.46328,-3.1224 27.48639,42.04513c14.02311,45.16753 10.88449,81.54498 10.88449,81.54498c0,0 -12.94032,56.07796 -14.17834,56.15182z" fill="url(#color-3)" stroke="#000000" stroke-width="2.5" stroke-linecap="butt"/><path d="M287.48808,69.27595c0.07499,19.75682 -1.00508,39.07968 -5.64885,49.11865c-2.65176,5.73262 -7.7798,7.13366 -11.20614,7.14666c-3.36102,0.01276 -7.05075,-0.11909 -9.71345,-5.63238c-4.80533,-9.94972 -7.49237,-30.53143 -7.56816,-50.50337c-0.04156,-10.94905 -2.18651,-22.26898 -0.57457,-30.91517c2.95762,-15.86426 11.32827,-25.32697 17.42957,-25.35014c5.35675,-0.02034 11.26022,3.36453 14.43774,16.06434c2.41414,9.64874 2.79301,26.67078 2.84388,40.07139z" fill="#f235e2" stroke="#000000" stroke-width="2.5" stroke-linecap="butt"/><path d="M283.67167,66.74838c0.09413,13.25916 -0.67811,26.22486 -4.13872,32.95319c-1.97614,3.84212 -5.81622,4.77251 -8.38379,4.77468c-2.51861,0.00211 -5.28381,-0.09347 -7.28976,-3.7986c-3.62007,-6.6866 -5.67318,-20.50435 -5.76834,-33.90788c-0.05216,-7.34811 -1.68128,-14.94915 -0.48995,-20.74861c2.18586,-10.641 7.52158,-9.74884 12.09364,-9.75266c4.01414,-0.00336 9.36331,-4.94701 11.76884,3.58209c1.82761,6.48001 2.14423,17.90441 2.20808,26.89779z" fill="#ff6fed" stroke="#000000" stroke-width="2.5" stroke-linecap="butt"/><path d="M335.46953,29.76764c3.79639,-12.52875 9.85871,-15.62009 15.20802,-15.33713c6.09282,0.3223 13.98944,10.18404 16.16567,26.17424c1.18606,8.71482 -1.51134,19.91596 -2.08969,30.84982c-1.05497,19.9442 -4.74788,40.3694 -10.0353,50.07155c-2.92983,5.3761 -6.62159,5.32687 -9.97793,5.14934c-3.42159,-0.18099 -8.47476,-1.83176 -10.84225,-7.68751c-4.14596,-10.25458 -4.27731,-29.60716 -3.23371,-49.33654c0.70785,-13.382 1.92088,-30.36498 4.80521,-39.88376z" fill="#f235e2" stroke="#000000" stroke-width="2.5" stroke-linecap="butt"/><path d="M337.9771,40.17255c2.8185,-8.30647 7.92025,-3.16306 11.92942,-2.96403c4.56641,0.2267 9.93923,-0.39428 11.60365,10.22187c0.90712,5.78592 -1.09063,13.21364 -1.50102,20.46847c-0.74858,13.23335 -3.47295,26.78036 -7.41471,33.20786c-2.1842,3.56157 -4.95076,3.52114 -7.46625,3.39626c-2.56439,-0.12731 -6.35452,-1.23345 -8.14096,-5.12448c-3.1284,-6.81397 -3.26756,-19.65721 -2.52704,-32.74801c0.50228,-8.8792 1.37554,-20.14707 3.51691,-26.45794z" fill="#ff6fed" stroke="#000000" stroke-width="2.5" stroke-linecap="butt"/><path d="M365.46398,114.11745c1.66786,27.9532 -21.02755,54.99852 -51.22648,56.80037c-30.19893,1.80185 -56.46567,-22.32209 -58.13353,-50.27528c-1.66786,-27.95319 21.46116,-52.07441 51.66009,-53.87627c30.19893,-1.80185 56.03207,19.398 57.69994,47.35118z" fill="#f235e2" stroke="#000000" stroke-width="2.5" stroke-linecap="butt"/><path d="M318.05936,106.92478c0.16134,2.70403 -6.34849,5.2923 -14.54011,5.78107c-8.19163,0.48877 -14.96303,-1.30707 -15.12437,-4.0111c-0.16134,-2.70403 6.34849,-5.2923 14.54011,-5.78107c8.19163,-0.48877 14.96303,1.30707 15.12437,4.0111z" fill-opacity="0.18431" fill="#ff0505" stroke="none" stroke-width="0" stroke-linecap="butt"/><g fill="#ff6fed" stroke="#000000" stroke-width="2.5"><path d="M310.1511,67.00493l27.5825,-5.67898l-1.82281,29.53791l-27.25088,-16.36365l-29.60992,10.20769l2.94383,-27.71444z" stroke-linecap="round"/><path d="M319.21042,72.73079c-0.40225,4.49515 -5.14806,7.58752 -10.60005,6.90704c-5.45199,-0.68048 -9.5456,-4.87616 -9.14335,-9.3713c0.40225,-4.49515 5.14805,-7.58751 10.60003,-6.90703c5.45199,0.68048 9.54561,4.87614 9.14336,9.37128z" stroke-linecap="butt"/></g><path d="M285.19073,241.45905l-24.87296,-1.98159" fill="none" stroke-opacity="0.29804" stroke="#000000" stroke-width="2.5" stroke-linecap="round"/><path d="M287.95649,217.28194l-2.39015,22.17431" fill="none" stroke-opacity="0.29804" stroke="#000000" stroke-width="2.5" stroke-linecap="round"/><path d="M284.19759,216.51604l-21.41959,-2.18764" fill="none" stroke-opacity="0.29804" stroke="#000000" stroke-width="2.5" stroke-linecap="round"/><path d="M260.61979,236.24133l1.72727,-16.68872" fill="none" stroke-opacity="0.29804" stroke="#000000" stroke-width="2.5" stroke-linecap="round"/><path d="M290.74814,189.39009l-3.92903,21.27594" fill="none" stroke-opacity="0.29804" stroke="#000000" stroke-width="2.5" stroke-linecap="round"/><path d="M267.06437,186.5949l-4.58074,22.80011" fill="none" stroke-opacity="0.29804" stroke="#000000" stroke-width="2.5" stroke-linecap="round"/><path d="M284.15813,186.81271l-10.69507,-0.84715" fill="none" stroke-opacity="0.29804" stroke="#000000" stroke-width="2.5" stroke-linecap="round"/><path d="M265.12486,298.71922l25.05195,-0.51683" fill="none" stroke-opacity="0.29804" stroke="#000000" stroke-width="2.5" stroke-linecap="round"/><path d="M290.13294,296.18512l-2.23764,-22.15877" fill="none" stroke-opacity="0.29804" stroke="#000000" stroke-width="2.5" stroke-linecap="round"/><path d="M284.01245,273.64334l-21.67367,-0.0306" fill="none" stroke-opacity="0.29804" stroke="#000000" stroke-width="2.5" stroke-linecap="round"/><path d="M264.75191,295.49002l-1.755,-16.6699" fill="none" stroke-opacity="0.29804" stroke="#000000" stroke-width="2.5" stroke-linecap="round"/><path d="M284.86792,246.17539l0.52655,21.42386" fill="none" stroke-opacity="0.29804" stroke="#000000" stroke-width="2.5" stroke-linecap="round"/><path d="M260.82505,245.76958l0.1975,22.99546" fill="none" stroke-opacity="0.29804" stroke="#000000" stroke-width="2.5" stroke-linecap="round"/><path d="M267.03319,244.51053l10.77102,-0.22707" fill="none" stroke-opacity="0.29804" stroke="#000000" stroke-width="2.5" stroke-linecap="round"/><path d="M348.50525,236.25398l24.46086,-4.92514" fill="none" stroke-opacity="0.29804" stroke="#000000" stroke-width="2.5" stroke-linecap="round"/><path d="M347.89416,234.31005l-5.00991,-21.73278" fill="none" stroke-opacity="0.29804" stroke="#000000" stroke-width="2.5" stroke-linecap="round"/><path d="M367.5329,206.65074l-21.00749,4.7191" fill="none" stroke-opacity="0.29804" stroke="#000000" stroke-width="2.5" stroke-linecap="round"/><path d="M372.28143,228.15157l-3.69946,-16.36493" fill="none" stroke-opacity="0.29804" stroke="#000000" stroke-width="2.5" stroke-linecap="round"/><path d="M336.7958,185.21526l6.43107,20.6578" fill="none" stroke-opacity="0.29804" stroke="#000000" stroke-width="2.5" stroke-linecap="round"/><path d="M359.97917,179.62369l7.25937,22.09366" fill="none" stroke-opacity="0.29804" stroke="#000000" stroke-width="2.5" stroke-linecap="round"/><path d="M343.0326,181.87257l10.51847,-2.11287" fill="none" stroke-opacity="0.29804" stroke="#000000" stroke-width="2.5" stroke-linecap="round"/><path d="M350.30186,293.18762l24.93567,-2.46574" fill="none" stroke-opacity="0.29804" stroke="#000000" stroke-width="2.5" stroke-linecap="round"/><path d="M349.69242,268.91181l0.41313,22.26763" fill="none" stroke-opacity="0.29804" stroke="#000000" stroke-width="2.5" stroke-linecap="round"/><path d="M375.01844,265.46224l-21.51626,2.60757" fill="none" stroke-opacity="0.29804" stroke="#000000" stroke-width="2.5" stroke-linecap="round"/><path d="M374.98419,270.71093l0.23964,16.76032" fill="none" stroke-opacity="0.29804" stroke="#000000" stroke-width="2.5" stroke-linecap="round"/><path d="M351.41127,262.23295l-2.02468,-21.33446" fill="none" stroke-opacity="0.29804" stroke="#000000" stroke-width="2.5" stroke-linecap="round"/><path d="M373.21063,237.63663l2.53827,22.8558" fill="none" stroke-opacity="0.29804" stroke="#000000" stroke-width="2.5" stroke-linecap="round"/><path d="M356.17521,238.18003l10.72161,-1.05531" fill="none" stroke-opacity="0.29804" stroke="#000000" stroke-width="2.5" stroke-linecap="round"/><path d="M310.77074,131.3807l-6.582,4.2775l-4.83922,-2.97448" fill="none" stroke="#000000" stroke-width="2.5" stroke-linecap="round"/><path d="M285.30918,105.64752l-6.723,6.25552l-5.37967,-3.93675" fill="none" stroke="#000000" stroke-width="2.5" stroke-linecap="round"/><path d="M333.00084,104.44011l-4.87338,4.54851l-7.41913,-5.41172" fill="none" stroke="#000000" stroke-width="2.5" stroke-linecap="round"/><path d="M302.35399,150.62824c1.12254,-0.30257 3.8486,0.56852 6.88259,0.00726c2.27962,-0.42172 5.19061,-2.34449 5.19061,-2.34449l-9.27746,14.10962l-8.9755,-12.82961c0,0 3.14808,1.87439 6.17976,1.05722z" fill="none" stroke="#000000" stroke-width="2.5" stroke-linecap="round"/></g></g></svg>