<svg version="1.1" xmlns="http://www.w3.org/2000/svg" xmlns:xlink="http://www.w3.org/1999/xlink" width="159.10399" height="348.99552" viewBox="0,0,159.10399,348.99552"><defs><linearGradient x1="310.04654" y1="238.7292" x2="317.05823" y2="311.48878" gradientUnits="userSpaceOnUse" id="color-1"><stop offset="0" stop-color="#545454"/><stop offset="1" stop-color="#2f2f2f"/></linearGradient><linearGradient x1="312.07433" y1="205.46642" x2="319.08602" y2="278.226" gradientUnits="userSpaceOnUse" id="color-2"><stop offset="0" stop-color="#545454"/><stop offset="1" stop-color="#2f2f2f"/></linearGradient><linearGradient x1="305.27023" y1="174.89865" x2="312.28184" y2="247.65822" gradientUnits="userSpaceOnUse" id="color-3"><stop offset="0" stop-color="#545454"/><stop offset="1" stop-color="#2f2f2f"/></linearGradient><linearGradient x1="305.58145" y1="178.19303" x2="322.79659" y2="356.83282" gradientUnits="userSpaceOnUse" id="color-4"><stop offset="0" stop-color="#41200e"/><stop offset="1" stop-color="#160a03"/></linearGradient><linearGradient x1="306.99944" y1="178.16525" x2="309.48437" y2="203.95151" gradientUnits="userSpaceOnUse" id="color-5"><stop offset="0" stop-color="#542a12"/><stop offset="1" stop-color="#c2551f"/></linearGradient><linearGradient x1="281.41122" y1="208.70123" x2="284.03072" y2="235.88341" gradientUnits="userSpaceOnUse" id="color-6"><stop offset="0" stop-color="#4e2710"/><stop offset="1" stop-color="#3a1a09"/></linearGradient><linearGradient x1="322.90176" y1="254.2832" x2="326.16909" y2="319.73646" gradientUnits="userSpaceOnUse" id="color-7"><stop offset="0" stop-color="#a14f20"/><stop offset="1" stop-color="#5b280f"/></linearGradient><linearGradient x1="291.91018" y1="270.19799" x2="295.18409" y2="335.78301" gradientUnits="userSpaceOnUse" id="color-8"><stop offset="0" stop-color="#a14f20"/><stop offset="1" stop-color="#5b280f"/></linearGradient><linearGradient x1="351.90913" y1="151.53062" x2="351.90913" y2="208.21164" gradientUnits="userSpaceOnUse" id="color-9"><stop offset="0" stop-color="#984c20"/><stop offset="1" stop-color="#c2551f"/></linearGradient><linearGradient x1="361.32488" y1="138.41708" x2="361.32488" y2="189.00626" gradientUnits="userSpaceOnUse" id="color-10"><stop offset="0" stop-color="#984c20"/><stop offset="1" stop-color="#c2551f"/></linearGradient><linearGradient x1="260.05054" y1="149.88527" x2="260.05054" y2="208.60296" gradientUnits="userSpaceOnUse" id="color-11"><stop offset="0" stop-color="#984c20"/><stop offset="1" stop-color="#c2551f"/></linearGradient><linearGradient x1="253.54632" y1="132.36724" x2="253.54632" y2="182.54775" gradientUnits="userSpaceOnUse" id="color-12"><stop offset="0" stop-color="#984c20"/><stop offset="1" stop-color="#c2551f"/></linearGradient><linearGradient x1="308.16758" y1="81.67868" x2="304.63275" y2="188.05559" gradientUnits="userSpaceOnUse" id="color-13"><stop offset="0" stop-color="#653215"/><stop offset="1" stop-color="#c2551f"/></linearGradient><linearGradient x1="265.7529" y1="16.98833" x2="292.94765" y2="98.41465" gradientUnits="userSpaceOnUse" id="color-14"><stop offset="0" stop-color="#3c3c3c"/><stop offset="1" stop-color="#767676"/></linearGradient></defs><g transform="translate(-227.65169,-6.37896)"><g stroke-miterlimit="10"><path d="M315.35609,311.56801l-70.39899,-6.05256c0,0 25.76346,-64.95538 65.08946,-66.78629c16.81637,-0.78292 33.38965,10.10351 46.85279,22.82248c-0.75754,1.75453 -1.70979,3.46013 -2.36005,4.61254c-0.03807,0.51089 -0.52657,1.69638 -0.19462,2.17806c0.60038,0.87118 3.62537,0.88947 4.54086,1.11217c1.37344,0.3341 1.94317,1.51923 2.60549,2.61898c0.31948,3.72583 1.22894,6.47432 -0.31786,9.87549c-0.93601,0.60482 -0.92283,1.6517 -1.593,2.39747c-1.73159,1.92692 -2.99993,3.80699 -2.81737,6.58052c0.18916,2.41682 6.54422,5.24778 8.57844,6.34412c2.20378,1.18773 4.41471,2.65818 6.3219,4.38029z" fill="url(#color-1)" stroke="#000000" stroke-width="0" stroke-linecap="butt"/><path d="M255.37826,301.22136l56.32336,-19.86728l45.06559,8.47688" fill="none" stroke="#000000" stroke-width="0" stroke-linecap="round"/><path d="M285.43522,303.92795l28.75706,-10.78255l36.66427,5.68373" fill="none" stroke="#000000" stroke-width="0" stroke-linecap="round"/><path d="M317.38388,278.30522l-70.39899,-6.05256c0,0 25.76346,-64.95538 65.08946,-66.78629c11.15731,-0.51945 22.20762,4.098 32.31354,10.97935c-2.87063,0.48031 -6.67121,0.80508 -8.38141,2.28595c2.20827,2.22575 6.25302,4.35553 8.98248,6.17557c2.96309,1.97583 6.00844,3.99921 9.14027,5.6709c1.86315,0.99323 4.06327,1.51557 5.92168,2.4611c-2.79087,-0.62951 -6.26656,1.4524 -8.20203,2.82659c-0.91489,0.80911 -3.4039,3.41769 -2.38318,4.95006c0.4818,0.72329 4.14703,0.71182 5.07735,0.98227c2.27993,0.66109 4.39838,1.61573 6.66058,2.29824c0.71838,0.21674 2.50835,0.91698 1.45065,1.55834c-2.86163,1.85524 -5.68895,3.81967 -8.01562,6.37105c-0.33385,0.3673 -2.32903,1.68273 -2.16764,2.24045c0.16411,0.56715 1.81845,0.48541 2.22627,0.49102c2.29803,0.03157 3.23508,-0.32979 3.40084,1.97108c0.19923,2.70516 -2.27155,7.15447 -3.55885,9.43584c-0.03807,0.51089 -0.52657,1.69638 -0.19462,2.17806c0.60038,0.87118 3.62537,0.88947 4.54086,1.11217c0.78662,0.19135 1.3096,0.66186 1.73733,1.23561z" fill="url(#color-2)" stroke="#000000" stroke-width="0" stroke-linecap="butt"/><path d="M257.40605,267.95858l56.32336,-19.86728l44.3414,8.34066" fill="none" stroke="#000000" stroke-width="0" stroke-linecap="round"/><path d="M287.46301,270.66515l28.75706,-10.78255l36.66427,5.68374" fill="none" stroke="#000000" stroke-width="0" stroke-linecap="round"/><path d="M310.57975,247.73747l-70.399,-6.05255c0,0 25.76346,-64.95538 65.08947,-66.78629c22.97843,-1.06981 45.50298,19.64866 60.2589,37.0586c-3.08055,0.58025 -6.10589,1.28945 -9.12733,2.10482c-3.32466,0.89977 -6.84432,1.11338 -10.19295,2.00491c-2.80195,0.77042 -8.09265,0.83793 -10.20232,2.6647c2.20827,2.22575 6.25302,4.35553 8.98248,6.17557c2.96309,1.97583 6.00844,3.99921 9.14027,5.6709c1.86315,0.99323 4.06327,1.51557 5.92168,2.4611c-2.79087,-0.62951 -6.26656,1.4524 -8.20203,2.82659c-0.91489,0.80911 -3.4039,3.41769 -2.38318,4.95006c0.01461,0.02193 0.03215,0.04319 0.05244,0.0638z" fill="url(#color-3)" stroke="#000000" stroke-width="0" stroke-linecap="butt"/><path d="M250.60187,237.3908l56.32339,-19.86727l37.58521,7.06982" fill="none" stroke="#000000" stroke-width="0" stroke-linecap="round"/><path d="M280.65888,240.09741l28.75706,-10.78254l36.66427,5.68374" fill="none" stroke="#000000" stroke-width="0" stroke-linecap="round"/><path d="M275.6997,355.37448l-16.29299,-147.01868c0,0 4.10871,-25.977 13.81539,-26.83552c9.63953,-0.85258 32.52621,-2.47664 52.48374,-4.24182c21.64628,-1.91455 31.00466,24.61963 31.00466,24.61963l14.94836,152.65982z" fill="url(#color-4)" stroke="#000000" stroke-width="0" stroke-linecap="butt"/><path d="M327.108,190.18004c0.6862,7.12069 -7.20415,13.28639 -17.62361,13.77149c-10.41945,0.4851 -19.42237,-4.8941 -20.10857,-12.01479c-0.6862,-7.12069 7.20415,-13.28639 17.62361,-13.77149c10.41945,-0.4851 19.42237,4.8941 20.10857,12.01479z" fill="url(#color-5)" stroke="#000000" stroke-width="0" stroke-linecap="butt"/><path d="M296.36533,221.65707c0.72335,7.50614 -4.79904,13.8755 -12.33458,14.22633c-7.53556,0.35084 -14.23072,-5.4497 -14.95407,-12.95586c-0.72335,-7.50614 4.79904,-13.8755 12.33458,-14.22633c7.53556,-0.35084 14.23072,5.4497 14.95407,12.95586z" fill="url(#color-6)" stroke="#ffffff" stroke-width="2.5" stroke-linecap="butt"/><path d="M278.51234,218.2489l-0.894,1.79102" fill="none" stroke="#ffffff" stroke-width="2.5" stroke-linecap="round"/><path d="M286.69216,219.61745l-0.73768,-1.61786" fill="none" stroke="#ffffff" stroke-width="2.5" stroke-linecap="round"/><path d="M275.207,228.44722l1.92849,-3.10302l11.24953,0.52133l2.82279,3.12971" fill="none" stroke="#ffffff" stroke-width="2.5" stroke-linecap="round"/><path d="M310.68336,272.02348c-1.52195,0.75857 -1.6177,-3.85142 -2.17111,-5.35835c-1.46047,-3.97684 -1.39904,-10.28658 3.26195,-12.10334c4.70769,-1.83497 16.33168,5.91562 21.11677,8.03923c3.11372,1.38186 6.04689,6.59573 8.18097,9.1188c2.27384,2.68831 5.80652,5.30028 6.85803,8.83352c0.90995,3.05758 1.05213,6.81705 0.94764,9.77078c-0.14778,4.1774 1.60515,8.79214 0.77616,12.90797c-1.2002,5.95881 -8.71912,12.50065 -14.26485,14.84686c-6.86022,2.90234 -16.02913,2.41252 -20.31082,-4.86062c-1.18323,-2.00992 0.1405,-4.89547 -0.99764,-6.74137c-1.46777,-2.38055 -5.95683,-2.26058 -6.50681,-7.22739c-0.18087,-1.63337 1.39781,-4.25591 0.95771,-5.80435c-0.9779,-3.44051 -7.17368,-5.25357 -8.61713,-8.69237c-1.77744,-4.23448 7.73827,-12.37299 11.24092,-13.46848z" fill="url(#color-7)" stroke="#000000" stroke-width="0" stroke-linecap="round"/><path d="M305.09098,287.15833c3.62338,1.05027 14.04774,9.06228 12.74787,13.31629c-1.05561,3.45465 -7.04305,5.34502 -7.63325,8.79547c-0.26563,1.55292 1.60691,4.15355 1.6099,5.78805c0.00909,4.97025 -4.49025,4.90731 -5.68923,7.30477c-0.92969,1.85903 0.71767,4.72572 -0.23865,6.74922c-3.46055,7.32227 -12.56782,7.92804 -19.7496,5.11479c-5.80567,-2.2742 -14.05507,-8.716 -15.92466,-14.65533c-1.29135,-4.10237 -0.05874,-8.73605 -0.67632,-12.90859c-0.43666,-2.95029 -0.71747,-6.70889 -0.15207,-9.77582c0.65334,-3.54406 3.8897,-6.19898 5.85953,-8.91421c1.84875,-2.54834 4.19336,-7.79569 7.14943,-9.21607c4.54281,-2.1828 15.28671,-10.07528 20.19743,-8.30134c4.862,1.75634 5.63314,8.06079 4.62102,12.05333c-0.38352,1.51288 0.03935,6.12077 -1.56684,5.38206z" fill="url(#color-8)" stroke="#000000" stroke-width="0" stroke-linecap="round"/><path d="M377.79661,293.20283l-17.2657,-3.27848" fill="none" stroke="#000000" stroke-width="0" stroke-linecap="round"/><path d="M363.51679,256.52821l17.96806,3.41185" fill="none" stroke="#000000" stroke-width="0" stroke-linecap="round"/><path d="M376.20657,229.37228l-23.94169,-4.54614" fill="none" stroke="#000000" stroke-width="0" stroke-linecap="round"/><path d="M347.62515,151.53062c0,0 11.74744,10.45558 15.71654,18.78595c2.06814,4.34062 4.42355,11.86216 6.44595,19.06587c-0.9232,0.00711 -2.27312,-0.67127 -2.70232,0.37577c-0.10417,0.25412 0.08883,1.30918 0.09815,1.6038c1.02973,1.85422 -0.56161,0.8047 -2.05841,0.67306l-0.00806,0.00635l0.00103,-0.00666l-0.01849,-0.00053l0.00293,-0.03934l-0.50345,0.02559c-0.13853,0.00693 -0.25948,0.12338 -0.27043,0.26062c-0.01054,0.13208 0.08461,0.23543 0.21516,0.23796l0.45017,0.01308c0.96388,1.61406 1.79701,3.73449 3.26379,4.94379c0.59087,0.48716 1.98306,0.77257 2.30732,1.30212c0.0185,1.34794 1.28342,2.80581 2.77569,4.09844c0.80515,3.24424 1.29083,5.33515 1.29083,5.33515c0,0 -14.52782,-19.55696 -22.51562,-23.79776c-7.04062,-3.7379 -22.92922,-0.32923 -22.92922,-0.32923z" fill="url(#color-9)" stroke="#000000" stroke-width="0" stroke-linecap="butt"/><path d="M346.75626,138.41708c0,0 14.12146,8.27274 20.00015,15.7078c2.69559,3.40925 6.18151,9.16598 9.48607,15.03045c-2.88634,0.20647 -5.81676,0.36309 -8.64882,0.82165c-0.6833,0.11194 -1.32427,0.02699 -1.99908,0.21025l-0.48372,0.07006c-0.12136,0.01538 -0.22136,0.11621 -0.2313,0.24076c-0.00759,0.0951 0.03931,0.17915 0.11462,0.2232l0.40847,0.24988l0.05843,-0.08953c1.34001,0.8175 3.81721,1.49607 5.92275,1.88232c-0.1745,0.10287 -0.30073,0.23392 -0.35302,0.39555c-0.62101,1.91937 1.7927,3.16515 3.44793,3.93812l-0.01515,0.00522c-0.09966,0.03184 -0.1764,0.12221 -0.18504,0.23052c-0.01047,0.13117 0.08274,0.24132 0.21116,0.25447l0.45793,0.052c0.58869,0.32152 0.95081,0.44875 1.45242,0.39381l-0.00003,0.05943l0.49987,-0.02619c0.01227,-0.00053 0.02437,-0.00192 0.03623,-0.00413c1.48674,0.37753 3.09791,0.58046 4.6301,0.86709c3.03626,5.74172 5.18945,10.07645 5.18945,10.07645c0,0 -18.99339,-16.63956 -27.93329,-19.49043c-7.87982,-2.51282 -22.9283,3.27097 -22.9283,3.27097z" fill="url(#color-10)" stroke="#000000" stroke-width="0" stroke-linecap="butt"/><path d="M283.48447,181.60479c0,0 -15.60142,-2.49725 -22.8625,1.68547c-8.23792,4.74544 -24.00535,25.3127 -24.00535,25.3127c0,0 8.24696,-28.30409 13.75694,-38.8573c4.50569,-8.6297 16.90049,-19.86039 16.90049,-19.86039z" fill="url(#color-11)" stroke="#000000" stroke-width="0" stroke-linecap="round"/><path d="M279.44096,166.94743c0,0 -14.62103,-5.98887 -22.64456,-3.57196c-9.10296,2.74206 -29.14471,19.17228 -29.14471,19.17228c0,0 14.48351,-25.67807 22.25466,-34.69688c6.35472,-7.37499 20.98378,-15.48363 20.98378,-15.48363z" fill="url(#color-12)" stroke="#000000" stroke-width="0" stroke-linecap="round"/><path d="M324.91488,78.85779l10.96427,5.34611l4.75868,59.97303l-55.70983,19.44809l-33.5933,-46.0192l4.79323,-12.80857" fill="none" stroke="#000000" stroke-width="2.5" stroke-linecap="round"/><path d="M360.94657,138.90555c-2.88609,28.40798 -29.6709,51.97186 -59.76861,48.9141c-30.09771,-3.05776 -52.11095,-31.57926 -49.22486,-59.98723c2.88609,-28.40797 29.62476,-48.95839 59.72248,-45.90061c30.09771,3.05776 52.1571,28.56578 49.27101,56.97375z" fill="url(#color-13)" stroke="#000000" stroke-width="0" stroke-linecap="butt"/><path d="M257.37731,109.71793l-23.39104,-82.12018c0,0 6.00276,-4.13532 14.35182,-7.67868c5.25195,-2.22895 11.9922,-5.1551 16.07265,-6.51789c4.04544,-1.35109 11.83109,-2.70949 17.34904,-4.08571c8.95458,-2.23334 15.75976,-2.93651 15.75976,-2.93651c0,0 -4.45694,5.79419 -2.04234,12.12489c0.12509,0.32795 6.84957,0.47893 6.97585,0.81004c0.58388,1.53085 -5.67312,3.48208 -5.09473,4.99857c0.43897,1.15091 7.71993,1.88438 8.12973,2.95881c0.65769,1.72437 -1.21053,5.05547 -0.2866,7.4779c0.36308,0.95193 -8.12245,2.53455 -8.38239,3.99799c-0.1076,0.60577 -0.51626,3.01646 -0.34843,3.45649c1.45064,3.80338 3.65842,3.97715 4.03825,6.29911c0.24074,1.47161 6.54205,2.98168 7.58777,5.72338c0.1368,0.35866 10.01659,5.11501 9.71011,5.34296c-4.76524,3.54419 3.03897,7.96772 4.37821,11.47902c3.17062,8.31288 5.4674,14.3347 5.4674,14.3347c0,0 -2.94254,5.8016 -11.6432,12.15598c-4.76239,3.47814 -14.63867,8.25366 -18.82706,9.70403c-5.15368,1.78464 -15.88165,4.18025 -23.67448,4.39242c-9.71533,0.2645 -16.13034,-1.91726 -16.13034,-1.91726z" fill="url(#color-14)" stroke="#000000" stroke-width="0" stroke-linecap="butt"/><path d="M280.06434,178.01814c0,0 1.25705,-2.49813 4.4434,-3.18315c3.83755,-0.82501 12.68913,-2.72797 12.68913,-2.72797l7.23773,2.30295l6.90977,-1.04451c0,0 9.46742,2.1926 13.81237,3.19887c3.88183,0.89902 5.53327,2.08097 5.53327,2.08097" fill="none" stroke="#000000" stroke-width="2.5" stroke-linecap="round"/><path d="M321.24339,130.5598c-0.08997,2.70735 -6.81165,4.68116 -15.01331,4.40862c-8.20167,-0.27254 -14.7775,-2.68821 -14.68753,-5.39556c0.08997,-2.70735 6.81165,-4.68116 15.01331,-4.40862c8.20167,0.27254 14.7775,2.68821 14.68753,5.39556z" fill-opacity="0.18431" fill="#000000" stroke="none" stroke-width="0" stroke-linecap="butt"/><path d="M284.44581,125.30119c-0.07423,2.23363 -2.12177,3.97831 -4.57331,3.89685c-2.45155,-0.08147 -4.37875,-1.95822 -4.30452,-4.19185c0.07423,-2.23364 2.12176,-3.97831 4.57331,-3.89686c2.45155,0.08147 4.37875,1.95822 4.30452,4.19186z" fill="#ffffff" stroke="#000000" stroke-width="2.5" stroke-linecap="butt"/><path d="M336.60525,126.70459c-0.07423,2.23364 -2.12177,3.97831 -4.57331,3.89685c-2.45155,-0.08147 -4.37875,-1.95822 -4.30452,-4.19185c0.07423,-2.23363 2.12177,-3.97831 4.57331,-3.89685c2.45155,0.08147 4.37875,1.95822 4.30452,4.19185z" fill="#ffffff" stroke="#000000" stroke-width="2.5" stroke-linecap="butt"/><path d="M273.3573,129.80719l10.64371,-0.07196" fill="none" stroke="#000000" stroke-width="2.5" stroke-linecap="round"/><path d="M281.86142,134.34631l3.57101,-4.98918" fill="none" stroke="#000000" stroke-width="2.5" stroke-linecap="round"/><path d="M285.7757,119.81678c0,0 -3.56119,0.98667 -5.3101,0.98379c-2.48197,-0.00409 -8.16818,-1.00601 -8.16818,-1.00601" fill="none" stroke="#000000" stroke-width="2.5" stroke-linecap="round"/><path d="M340.5637,122.67606c0,0 -5.33214,0.3569 -7.42299,0.16758c-2.70185,-0.24464 -7.43018,-1.51246 -7.43018,-1.51246" fill="none" stroke="#000000" stroke-width="2.5" stroke-linecap="round"/><path d="M325.24855,130.96399l12.55727,2.11989" fill="none" stroke="#000000" stroke-width="2.5" stroke-linecap="round"/><path d="M326.76047,132.43306l5.85367,3.17409" fill="none" stroke="#000000" stroke-width="2.5" stroke-linecap="round"/><path d="M339.00088,131.27908l2.32415,-1.62539" fill="none" stroke="#000000" stroke-width="2.5" stroke-linecap="round"/><path d="M266.90846,127.46463l2.52284,0.93514" fill="none" stroke="#000000" stroke-width="2.5" stroke-linecap="round"/><path d="M275.04451,126.7935c1.38007,2.41802 0.02279,4.97899 -2.60014,6.47602c-2.62293,1.49702 -5.51826,1.36321 -6.89832,-1.05481c-1.38007,-2.41802 -0.16924,-3.81219 2.45368,-5.30923c2.62293,-1.49702 5.66471,-2.53001 7.04478,-0.11199z" fill="#ffffff" stroke="#000000" stroke-width="2.5" stroke-linecap="butt"/><path d="M373.18463,166.38593c0.41921,-0.07053 0.84057,-0.08019 1.26256,-0.00252c0.05748,0.01058 0.11448,0.02273 0.17103,0.0363l0.00276,-0.03456l1.40667,0.11225c0.68817,0.05492 1.20152,0.6573 1.1466,1.34547c-0.02385,0.29886 -0.15095,0.56475 -0.3435,0.76544c0.0205,0.11509 0.02701,0.24391 0.01551,0.38807c-0.09944,1.24604 -1.34547,1.1466 -1.34547,1.1466c-1.05594,-0.08427 -2.20129,-0.23039 -3.36148,-0.32611c-0.49774,0.20184 -1.0182,0.38583 -1.51127,0.5494c1.02648,0.49066 1.87418,1.16628 2.24311,1.92384c0.18009,0.36981 0.40057,2.37098 0.62328,3.57658c0.81358,0.1292 1.78329,0.1851 2.68925,0.31826c0.7392,0.05649 2.49438,0.1974 2.59358,0.20532l1.64111,0.13096c0.68817,0.05492 1.20152,0.6573 1.1466,1.34547c-0.05064,0.63462 -0.56688,1.12057 -1.18661,1.14929l-1.64148,0.10234l-0.01399,-0.22445l-0.14451,-0.01153c-0.24305,-0.0194 -0.48421,-0.0411 -0.72417,-0.06263c-1.16587,0.16188 -2.39034,0.19079 -3.54651,0.02243c-0.55995,0.16548 -1.14424,0.47457 -1.614,0.19654c-0.4265,-0.25242 -0.71874,-0.5945 -0.92587,-0.99128c-0.55175,-0.29485 -1.04914,-0.66984 -1.4688,-1.13679c-1.08206,-1.20401 -1.01913,-3.26625 -1.93624,-4.60512c-1.13477,-0.02647 -2.37994,0.2382 -3.33949,-0.17949c-0.05322,-0.02317 -0.10586,-0.04739 -0.15796,-0.07259l-0.00866,0.02316l-1.57781,-0.59017c-0.52407,-0.18253 -0.88021,-0.70085 -0.834,-1.2799c0.03686,-0.46184 0.32029,-0.84494 0.71075,-1.03038l1.00578,-0.49929c0.23302,-0.65192 0.82123,-1.14708 1.55516,-1.52225c-0.54299,-0.36764 -1.00119,-0.80635 -1.28634,-1.26303c-0.68348,-1.09461 -0.85455,-2.31066 -1.02866,-3.54399c-0.75022,-1.11362 -1.32542,-2.34842 -1.68067,-3.70422l-0.40614,0.1164l-0.54572,-1.904c-0.04622,-0.14813 -0.06545,-0.30739 -0.05236,-0.47154c0.05492,-0.68817 0.6573,-1.20152 1.34547,-1.1466c0.29807,0.02379 0.56335,0.15029 0.76386,0.34198l1.09013,1.02451l-0.03199,0.03403l0.11919,0.0566c1.00175,1.42068 1.45264,1.78273 1.91094,3.4442c0.13979,0.50677 0.17804,1.14045 0.21348,1.79452c0.15323,0.22283 0.31126,0.43589 0.47683,0.63405c1.18311,1.41598 3.3865,2.577 5.47035,3.4039c0.07455,0.02152 0.14606,0.04973 0.21388,0.08387c0.30318,0.1175 0.60298,0.2278 0.89583,0.33066z" fill="#000000" stroke="none" stroke-width="0.5" stroke-linecap="butt"/><path d="M371.45562,197.98124c0.06023,0.13248 0.11724,0.26786 0.17223,0.40525c0.73592,0.98344 1.27666,1.99902 1.31644,2.92552c0.1017,0.13787 0.21225,0.26986 0.33349,0.3946l1.01192,1.01192c0.22621,0.22621 0.36612,0.53871 0.36612,0.88388c0,0.69036 -0.55964,1.25 -1.25,1.25c-0.34518,0 -0.65768,-0.13991 -0.88388,-0.36612v0l-1.17595,-1.17595l0.00772,-0.00772c-0.04718,-0.05271 -0.09313,-0.10558 -0.13793,-0.1586c-0.00702,-0.00556 -0.01402,-0.01115 -0.021,-0.01678c-0.26392,-0.21273 -0.44092,-0.49249 -0.58004,-0.80265c-0.52442,-0.82449 -0.86224,-1.68484 -1.24618,-2.5818c-0.39714,-0.51493 -0.83164,-1.01967 -1.28063,-1.51157c-1.03015,-0.05578 -3.03419,-0.0962 -3.21579,-0.23133c-2.51248,-1.86958 0.14351,-5.41071 1.63786,-6.66269c0,0 0.56557,-0.45246 1.1801,-0.23804c0.18517,-0.22736 0.43718,-0.38813 0.73636,-0.51292l-0.04828,-0.09656l1.38865,-0.69432c0.1737,-0.09145 0.37156,-0.14321 0.58151,-0.14321c0.69036,0 1.25,0.55964 1.25,1.25c0,0.07812 -0.00717,0.15457 -0.02088,0.22873l-0.23132,1.38791l-0.04056,-0.00676l0.01133,0.13808c-0.07474,0.16295 -0.20485,0.38136 -0.37486,0.62543c0.55414,0.52173 1.02802,1.08528 1.34485,2.3601l0.01701,1.14626c0,0 0,0.96532 -0.8483,1.19935zM369.25487,195.05541c-0.14882,0.10768 -0.29855,0.2018 -0.44664,0.27751c0.13698,0.1316 0.27863,0.26839 0.4233,0.40973c0.2037,0.08722 0.40091,0.19359 0.58916,0.31436l0.00024,-0.01038c0.0118,-0.40858 -0.23189,-0.71589 -0.56606,-0.99122z" fill="#000000" stroke="none" stroke-width="0.5" stroke-linecap="butt"/><path d="M342.83457,130.57928c2.3523,1.89406 3.3267,3.46263 1.58062,5.63116c-1.74608,2.16854 -4.62599,1.84149 -6.9783,-0.05257c-2.35232,-1.89406 -3.28627,-4.63788 -1.54018,-6.80642c1.74609,-2.16854 4.58555,-0.66624 6.93786,1.22782z" fill="#ffffff" stroke="#000000" stroke-width="2.5" stroke-linecap="butt"/><path d="M325.00395,84.5178l-5.18005,-13.12827l-6.38568,-7.77524l1.25772,-2.754l-16.29763,-10.38265l-5.6025,-11.08609l8.42532,-4.77688l2.23703,-5.27072l-10.84044,-3.97894l2.79387,-5.74526l-4.20783,0.70216l1.77214,-9.20013" fill="none" stroke-opacity="0.3451" stroke="#000000" stroke-width="2.5" stroke-linecap="round"/><path d="M322.02463,85.29398l-5.83862,-12.84893l-6.77146,-7.44169l1.11655,-2.81419l-16.80279,-9.54349l-6.15705,-10.78795l8.17244,-5.19767l1.96708,-5.3773l-11.02814,-3.42453l2.49916,-5.87945l-4.16685,0.91447l1.30368,-9.27812" fill="none" stroke-opacity="0.3451" stroke="#000000" stroke-width="2.5" stroke-linecap="round"/><path d="M303.50085,178.99466l-0.14364,6.13027" fill="none" stroke="#000000" stroke-width="2.5" stroke-linecap="round"/><path d="M310.81357,178.79392l-0.72329,4.10074" fill="none" stroke="#000000" stroke-width="2.5" stroke-linecap="round"/><path d="M297.59678,183.03227l0.00508,-4.5572" fill="none" stroke="#000000" stroke-width="2.5" stroke-linecap="round"/></g></g></svg>