<svg version="1.1" xmlns="http://www.w3.org/2000/svg" xmlns:xlink="http://www.w3.org/1999/xlink" width="231.11627" height="228.27429" viewBox="0,0,231.11627,228.27429"><g transform="translate(-128.84416,-115.29618)"><g stroke-miterlimit="10"><g stroke="none" stroke-width="0.5" stroke-linecap="butt"><path d="M235.24679,222.05801c-4.9441,1.16279 -9.61592,4.72665 -14.12395,7.0736c-1.77126,0.92214 -4.50064,1.24319 -5.75368,2.98809c-6.57666,2.66756 -7.57799,10.87247 -7.87168,18.56811c-0.04936,1.29363 -0.45586,2.52767 -0.55795,3.81554c-0.24945,3.14752 0.26225,6.68259 0.38219,9.85255c0.26444,6.98907 1.21955,13.54874 2.38631,20.38386c0.75901,4.44646 0.37469,9.65415 0.54644,14.19343c0.25373,6.70612 0.73632,13.32748 0.98992,20.03014c0.15336,4.05322 -0.0959,8.5131 0.6991,12.46896c0.08378,2.04866 0.22244,3.98818 0.4592,6.00289c0.05646,0.48051 -0.20126,2.84123 0.27701,3.23659c1.07018,0.88466 3.04399,0.42725 4.22877,0.38242c4.03442,-0.15265 6.2489,-0.80241 6.91363,-6.34451c-0.27527,-6.74712 -0.46003,-13.42515 -1.67211,-19.9557c-0.38348,-2.06615 -0.57642,-4.38228 -0.49415,-6.50506c0.02977,-0.76793 -0.22123,-1.73072 0.19844,-2.29125c0.62224,-0.83106 3.46431,-0.4833 4.38186,-0.51801c2.25387,-0.02321 4.74823,-0.79844 7.08259,-1.12499c6.46538,-0.90442 13.25065,-0.50437 19.76648,-0.7509c3.26269,-0.12345 6.48622,0.04126 9.74383,-0.08199c0.86194,-0.03261 3.44019,-0.518 4.10265,0.11735c0.4614,0.4425 0.91827,3.62093 0.97872,4.24787c0.39257,4.07232 0.31649,8.30014 0.47141,12.39464c0.1542,4.07554 0.22161,8.1591 0.68827,12.1827c0.07063,0.60899 0.19579,3.04816 0.41426,3.41318c0.21432,0.3581 3.29963,-0.05089 3.38547,-0.05414c3.37847,-0.12783 7.03054,0.23075 10.22891,-1.24672c4.11887,-10.58241 1.85004,-22.80665 1.38396,-34.11176c-0.47108,-12.45056 -2.53062,-24.26582 -4.39332,-36.44355c-0.04796,-2.14223 -0.92977,-4.05053 -1.16385,-6.24897c-0.9839,-9.24079 -3.57779,-17.42645 -5.3896,-26.32067c-0.71774,-3.79707 -3.58011,-4.56098 -6.25866,-5.43997c-5.0857,-1.66892 -10.99554,-3.8144 -16.26152,-3.65059c-4.39792,-1.61933 -9.91653,-0.46931 -14.47567,-0.29681l-1.1587,0.04384c0,0 -0.0529,0.002 -0.13461,-0.01018zM238.44753,219.50183c4.20865,-0.32481 8.92036,-0.9879 12.78996,0.43689c2.35981,-0.10674 4.4752,0.39774 6.70446,1.22929c5.56006,2.07397 15.62743,0.86746 17.48261,9.70059c1.77718,8.9852 4.4542,17.25284 5.43106,26.59239c0.23496,2.24643 1.0548,4.04933 1.16662,6.27675c1.8999,12.22161 3.93175,24.11475 4.40465,36.6136c0.04732,1.39534 0.41412,2.75228 0.61311,4.13007c0.65519,4.53658 0.64606,10.37936 0.07536,14.75437c-0.16409,1.25802 0.19364,2.55353 0.16765,3.83006c-0.09895,4.85805 -0.88455,9.08587 -2.8545,13.25159c-3.57208,2.08965 -7.57354,1.7203 -11.46778,1.86764c-1.45974,0.05523 -3.79406,0.607 -5.00041,-0.88357c-0.39485,-0.48787 -0.72543,-3.8251 -0.81597,-4.5673c-0.49987,-4.09753 -0.54962,-8.26761 -0.70669,-12.41899c-0.12998,-3.43524 -0.26225,-6.87041 -0.38993,-10.30573c-0.01709,-0.45976 -0.06417,-4.30739 -0.27834,-4.50639c-0.01844,-0.01713 -2.61174,0.37139 -2.84947,0.38039c-3.25835,0.12328 -6.48112,-0.04146 -9.74383,0.08199c-6.46499,0.24461 -13.21662,-0.17631 -19.6289,0.73965c-2.43123,0.34729 -4.85267,0.99943 -7.22017,1.13625c-0.8497,0.03215 -1.70316,0.22334 -2.54911,0.09645c-0.18274,-0.02741 -0.3609,-0.49913 -0.48461,-0.33389c-0.37179,0.49656 0.33512,1.32146 0.3609,2.00281c0.06052,1.59946 0.0986,3.0702 0.39175,4.64193c1.2559,6.73351 1.47447,13.66432 1.71985,20.6245c-0.36165,2.87932 -1.42438,6.89236 -3.82951,8.04417c-1.50522,0.72084 -3.34378,0.4783 -4.93693,0.53857c-1.67734,0.06346 -4.14764,0.51742 -5.56919,-0.96695c-1.71625,-1.7921 -1.32557,-8.20919 -1.41242,-10.74681c-0.80994,-4.0302 -0.56129,-8.57599 -0.71752,-12.70526c-0.25359,-6.70235 -0.73617,-13.32384 -0.98991,-20.03014c-0.16665,-4.40453 0.24701,-9.55836 -0.51504,-13.86103c-1.22625,-6.92373 -2.14945,-13.62593 -2.41772,-20.71626c-0.41588,-10.99177 -1.64157,-30.26313 8.92735,-34.34242c1.42606,-1.8362 4.17467,-2.1944 6.08006,-3.19324c5.52409,-2.89583 11.25115,-7.37572 17.44388,-7.61002c0,0 0.33331,-0.01261 0.61872,0.21803z" fill="#000000"/><path d="M235.37293,222.02112l1.15959,-0.04406c4.55914,-0.1725 10.08947,-1.32292 14.48739,0.29641c5.26597,-0.1638 11.18847,1.98635 16.27415,3.65527c2.67854,0.87899 5.54611,1.6467 6.26384,5.44375c1.81179,8.8942 4.41739,17.09565 5.40129,26.33643c0.23408,2.19843 1.11821,4.11258 1.16617,6.25481c1.8627,12.17773 3.92245,24.02912 4.39352,36.47968c0.46609,11.30509 2.72419,23.54774 -1.39466,34.13014c-3.19839,1.47746 -6.85564,1.12345 -10.23412,1.25127c-0.08585,0.00325 -3.17312,0.41361 -3.38744,0.0555c-0.21848,-0.36502 -0.38085,-2.88935 -0.45148,-3.49833c-0.46665,-4.02359 -0.53764,-8.10445 -0.69185,-12.18c-0.15492,-4.0945 -0.08405,-8.31694 -0.47663,-12.38925c-0.06044,-0.62694 -0.46017,-3.73904 -0.92157,-4.18156c-0.66245,-0.63533 -3.24363,-0.1463 -4.10557,-0.11368c-3.2576,0.12325 -6.49353,-0.03211 -9.75622,0.09134c-6.51584,0.24653 -13.33652,-0.15881 -19.80189,0.74562c-2.33435,0.32654 -4.8345,1.09594 -7.08836,1.11917c-0.91755,0.03472 -3.76196,-0.31618 -4.38421,0.51488c-0.41968,0.56053 -0.11077,1.46023 -0.14054,2.22818c-0.08228,2.12277 0.10745,4.43507 0.49093,6.50122c1.21208,6.53055 1.38906,13.20207 1.66432,19.9492c-0.66475,5.54211 -2.91643,6.27548 -6.95085,6.42813c-1.18478,0.04483 -3.16069,0.50057 -4.23086,-0.3841c-0.47827,-0.39536 -0.22148,-2.75692 -0.27795,-3.23743c-0.23675,-2.01471 -0.37727,-3.95603 -0.46105,-6.00469c-0.79499,-3.95586 -0.54993,-8.42072 -0.70329,-12.47395c-0.2536,-6.70266 -0.74316,-13.33752 -0.99689,-20.04364c-0.17175,-4.53929 0.20963,-9.76094 -0.54938,-14.2074c-1.16676,-6.83512 -2.12016,-13.41476 -2.3846,-20.40382c-0.11994,-3.16995 -0.62907,-6.71248 -0.37961,-9.86c0.10207,-1.28789 0.50986,-2.52467 0.55921,-3.8183c0.29369,-7.69565 1.30409,-15.91289 7.88075,-18.58049c1.25303,-1.74489 3.98647,-2.06931 5.75773,-2.99145c4.50805,-2.34694 9.1913,-5.91622 14.1354,-7.07902c0.08171,0.01217 0.13471,0.01014 0.13471,0.01014z" fill="#ffffff"/></g><path d="M245.88916,242.87005c0.18368,0.69665 0.25368,1.52224 0.26937,2.38568c0.26338,-1.22813 1.47329,-1.93051 2.31013,-2.61255c0,0 1.1212,-0.8463 1.81403,0.35566c0.10904,0.18915 0.17312,0.36951 0.20374,0.53913c0.06209,-0.11835 0.13722,-0.21863 0.21828,-0.30347c-0.48511,-0.9119 -0.51053,-2.12772 0.22314,-3.25173c0.46298,-0.70933 1.50763,-0.38785 2.26358,-0.57801c0.53286,-0.18213 0.98159,-0.25006 1.3536,-0.22795c-0.00884,-0.04948 -0.01542,-0.10011 -0.01962,-0.15178c-0.06532,-0.80275 0.46945,-1.55177 1.19441,-1.67294l0.24004,-0.04012c-0.13058,-0.43214 -0.17228,-0.88525 -0.08265,-1.31788c0.15142,-0.7308 0.96647,-0.95646 1.66788,-1.26864c0.46286,-0.56455 0.99801,-0.99814 1.54518,-1.17439c0.72228,-1.15385 1.92984,-2.16 2.95299,-2.67678c-0.34287,-1.13994 0.39179,-2.26066 1.57997,-3.35327c0.35783,-0.32905 0.99844,-0.53878 1.6508,-0.68429c0.30786,-0.15936 0.6401,-0.22785 0.97853,-0.18101c0.02298,-0.00364 0.04578,-0.00725 0.06837,-0.01079c0.18437,-0.45616 0.60739,-0.83704 1.13544,-1.14336l0.13418,-0.12513c0.59205,-0.37592 1.12084,-1.20774 1.77617,-1.1278c0.40092,0.04891 0.85535,0.14597 1.27391,0.31285c0.09403,-0.00631 0.18191,-0.00947 0.26246,-0.00952c0,0 1.31425,0.02254 1.21509,1.49236c-0.01692,0.25083 -0.06922,0.45821 -0.14435,0.62965c-0.33058,1.43177 -2.14111,3.05964 -3.49363,2.96275c0.07022,1.58209 -1.26282,2.77207 -2.68119,3.17206c0.72695,2.3846 -1.95701,5.17355 -4.28178,5.40439c0.0566,0.0936 0.10077,0.19809 0.12991,0.31582c0.56481,2.28242 -3.40702,5.11583 -5.36073,4.42599c-0.11234,0.2146 -0.22881,0.34677 -0.22881,0.34677l-1.24477,1.06701c-0.04619,0.0067 -0.09282,0.0154 -0.13982,0.02569c-0.14075,0.40822 -0.43485,0.74604 -0.80847,0.91002c-0.06765,0.14437 -0.16384,0.29276 -0.296,0.44274c-0.75682,0.85882 -1.48908,0.40246 -1.7567,0.18015c0.01738,0.54076 -0.14355,1.12636 -0.54809,1.72041c0.39788,0.19235 0.68699,0.6105 0.72973,1.13581c0.06532,0.80275 -0.46944,1.55178 -1.19441,1.67295l-1.32597,0.22162c-0.98727,0.16155 -1.98908,0.15783 -2.98839,0.191c0.15654,1.04142 0.27241,2.09494 0.36268,3.15418c0.96914,0.09439 1.86168,0.30852 2.94801,0.47964c1.23269,0.19417 2.57692,0.42943 3.50931,1.30645c2.04983,1.9281 2.14294,6.63457 0.7378,9.33545c-1.05119,2.02053 -3.51861,3.85576 -5.67798,4.93311c0.05983,1.38579 0.05404,2.77672 -0.04178,4.16971l0.12296,1.51121c0.06532,0.80275 -0.46945,1.55177 -1.19441,1.67294c-0.60098,0.10046 -1.14404,-0.26208 -1.3494,-0.84635l-0.61205,-1.62465l0.04235,-0.02212c-0.03557,-0.05959 -0.06994,-0.12019 -0.10301,-0.18194c-0.39085,-0.72989 -0.37657,-1.63577 -0.34395,-2.54393l-0.06941,-0.8531l0.02495,-0.00417c-0.00986,-0.01283 -0.0192,-0.02657 -0.02799,-0.04129c-0.01187,-0.01985 -0.02302,-0.03999 -0.03345,-0.06042c-0.9046,0.15652 -1.82154,0.23461 -2.6904,0.26539c-0.0591,0.0021 -0.11966,0.00781 -0.18113,0.0157c-0.45416,0.08971 -0.91666,0.17102 -1.38796,0.24629l-0.14908,-0.08911l-0.01156,0.08303l-1.45187,-0.15574c-0.59651,-0.04919 -1.07998,-0.55513 -1.13627,-1.24686c-0.06532,-0.80275 0.46945,-1.55176 1.19441,-1.67294c0.03875,-0.00647 0.07729,-0.01103 0.11549,-0.01373l1.56348,-0.12727l0.00021,0.01758c0.0193,-0.00708 0.03866,-0.01405 0.05803,-0.0209c0.59176,-0.20923 1.20752,-0.14842 1.82456,-0.10168c0.65784,-0.15486 1.29159,-0.33191 1.90482,-0.54422c-0.77013,-0.22006 -0.85098,-1.21387 -0.85098,-1.21387l-0.0543,-0.66739c-0.18072,-2.22107 -0.21454,-4.45817 -0.19174,-6.702c-1.4229,0.21082 -2.8168,0.23043 -3.91581,-1.0051c-0.54145,-0.60871 -1.00985,-1.40231 -1.10282,-2.27278c-0.0511,-0.47852 0.10906,-0.95665 0.30272,-1.42544c-0.06721,-1.67086 0.87853,-3.54651 2.08338,-4.76286c-0.26238,-0.17711 -0.50201,-0.39681 -0.70656,-0.65036c-0.10863,0.2028 -0.24171,0.38629 -0.41008,0.54186c-1.31956,1.21926 -2.90084,0.44705 -3.8422,-0.8681c-0.87143,-0.47604 -1.66006,-1.18415 -1.78852,-1.77152c-0.08461,-0.38687 -0.12932,-0.72684 -0.13947,-1.02807c-0.23515,0.04346 -0.47569,0.09853 -0.70458,0.12852c-0.61601,0.25084 -1.35183,0.1285 -1.99096,0.0251c-2.15833,-0.34919 -2.81856,-1.81274 -2.48809,-3.58873c-0.9808,1.1567 -2.73125,1.77639 -3.84716,1.05007c-1.11747,-0.72731 -1.49464,-1.75506 -1.39614,-2.79271c-0.20135,0.09513 -0.35927,0.12152 -0.35927,0.12152l-0.10709,-0.02167c-1.09309,0.65283 -3.6193,-0.48572 -4.10795,-1.39343c-0.31287,-0.58118 -0.49458,-1.04916 -0.572,-1.44524c-0.32031,0.05726 -0.64709,0.08511 -0.97137,0.08394c-0.42326,0.05239 -0.85047,0.00751 -1.25549,-0.15687c-1.86624,-0.47914 -3.18345,-2.04956 -1.8366,-4.6274c0.26704,-0.51109 0.68729,-0.93663 1.15749,-1.25276c0.37535,-0.4827 0.71752,-1.02913 1.23309,-1.24234c0.14244,-0.05891 0.29601,-0.11025 0.4571,-0.15259c0.38479,-0.37484 0.74909,-0.69307 1.04435,-0.93332c0,0 1.0997,-0.8823 1.82616,0.29346c0.30506,0.49374 0.28811,0.93571 0.16578,1.28235c0.20273,0.23357 0.35632,0.52643 0.4398,0.88716c0.65696,0.4761 1.06879,1.24315 0.97332,2.46421c0.11111,0.07463 0.22207,0.17666 0.33045,0.31252c0.10715,0.1343 0.18477,0.2678 0.23859,0.39851c0.02211,0.00403 0.0444,0.00822 0.06687,0.01256c0.4162,0.08038 0.66945,0.39177 0.8423,0.81717l0.25822,-0.1949l0.34724,0.60242l0.06511,0.04223l-0.02002,0.036l0.31897,0.55339l-0.06244,0.04711l0.2972,0.08477c-0.10036,0.31605 -0.16332,0.65976 -0.22063,1.00764c0.07958,0.10073 0.14833,0.2248 0.19935,0.37747c1.2236,-1.83939 3.63908,-2.95083 5.14894,-1.03154c0.01891,0.02402 0.03695,0.04921 0.05412,0.07544c0.21796,-0.62397 0.51965,-1.23183 0.85152,-1.79323c0,0 0.78369,-1.23214 1.84337,-0.43046c1.05967,0.80168 0.27596,2.03382 0.27596,2.03382c-0.05626,0.07786 -0.11818,0.15225 -0.18152,0.22577c0.57469,-0.13446 1.14284,-0.12235 1.5907,0.18478c0.77071,0.52854 0.88714,1.66558 0.63806,2.7689c0.23321,0.01567 0.48102,0.11204 0.704,0.36279c0.18927,0.10985 0.3696,0.29957 0.5155,0.6093c0.21104,0.44804 0.20087,0.8306 0.09943,1.13801c0.04653,0.09664 0.07875,0.19683 0.10036,0.29589c0.21882,-0.12552 0.44483,-0.25592 0.67184,-0.4007c0,0 0.96163,-0.53163 1.54342,0.28401c0.72975,0.26353 1.22527,0.97593 1.45308,1.83402l0.40051,0.30301c0.64689,-0.92082 2.15498,-1.82066 3.36819,-1.65857c-0.00577,-0.29796 0.00367,-0.51547 0.03651,-0.59669c-0.00589,-0.0797 -0.01206,-0.15947 -0.01854,-0.23924l0.01743,-0.04139l-0.0003,-0.02623l-0.01844,0.00122l0.00106,-1.47345c-0.00713,-0.75711 0.51028,-1.44016 1.19974,-1.5554c0.72496,-0.12117 1.36563,0.43137 1.43093,1.23412c0.00351,0.04293 0.00528,0.08567 0.0054,0.12819l0.02023,1.72176c0.00016,0.00199 0.00029,0.00401 0.00044,0.006zM247.21098,260.59425c0.00116,0.02508 0.00231,0.05017 0.00345,0.07522c0.30359,1.76178 0.59087,3.54456 0.80696,5.34138c0.74189,-0.56762 1.45903,-1.25182 2.16038,-2.08596c1.1533,-1.37171 2.19153,-2.21134 1.43083,-3.97999c-1.20555,-1.39553 -2.40672,-0.89522 -4.04807,-0.83957c-0.14105,0.00479 -0.28113,-0.00344 -0.42073,-0.01793c0.02224,0.50349 0.0441,1.00601 0.06717,1.50687zM246.18934,246.42398c-0.01268,-0.05335 -0.02381,-0.10592 -0.03347,-0.15773c-0.00124,0.06254 -0.00262,0.12509 -0.00416,0.18763c0.01183,-0.00966 0.02438,-0.01966 0.03762,-0.0299zM243.19076,254.18909l0.253,0.08049c0.01664,-0.65695 0.03234,-1.31389 0.04484,-1.97057c-0.9199,0.65371 -1.58642,1.45083 -0.29784,1.89009zM262.46614,234.7716c0.05269,-0.03539 0.10437,-0.0726 0.15485,-0.11183c0.26917,-0.2092 1.00001,-0.93547 0.71375,-0.7589c-0.51244,0.31609 -1.0587,0.55782 -1.60809,0.77l0.79677,-0.14304c0,0 -0.0138,0.09932 -0.05728,0.24375zM231.28518,243.39932c-0.08024,-0.04608 -0.15953,-0.09644 -0.23761,-0.14996c-0.01081,0.06055 -0.00831,0.10178 0.01099,0.11815c0.06299,0.05344 0.14194,0.05107 0.22661,0.03181z" fill="#ffe04b" stroke="#000000" stroke-width="1.5" stroke-linecap="butt"/><g stroke="none" stroke-width="0.5" stroke-linecap="butt"><path d="M188.29322,178.18745c-1.02508,-2.90193 -0.63051,-6.44566 -1.04645,-9.42077c-0.30145,-2.15616 -0.8629,-4.18345 -1.24213,-6.29988c-1.19611,-6.67523 -0.55153,-14.24139 -0.8083,-21.02765c-0.13211,-3.49169 -0.26422,-6.98337 -0.39633,-10.47504c-0.04202,-1.11055 -0.50143,-3.59651 -0.0303,-4.56173c1.20182,-2.46222 6.05505,-2.70961 8.27396,-2.96639c3.12622,-0.36178 7.26645,-2.54938 10.60154,-1.32323c0.96856,0.3561 1.60892,1.30009 2.48141,1.85116c2.48519,3.55485 2.37443,8.92938 2.53671,13.21862c0.27458,7.25724 0.88745,14.5517 1.16368,21.85264c0.16985,4.48919 0.00201,8.9566 0.17272,13.46835c0.01948,0.51475 -0.2643,3.75975 0.05264,4.1211c0.4651,0.53024 3.65544,-0.91674 4.23914,-1.05511c3.62976,-0.86043 8.03898,-1.00554 11.75786,-1.17021c3.11385,-0.09442 6.11461,-1.59617 9.23718,-2.02801c4.52701,-0.62606 9.23593,0.08728 13.76373,-0.51759c0.58698,-0.0784 3.21868,-1.11638 3.28034,-1.12822c2.79168,-0.53599 6.07645,-0.5823 8.92519,-0.69008c0.31752,0.07289 0.64964,0.33853 0.95256,0.21864c0.75081,-0.29712 -0.19125,-1.6056 -0.2169,-2.41265c-0.07948,-2.5002 0.5027,-4.52102 0.40373,-7.13661c-0.14506,-3.83384 -1.30804,-7.42509 -1.76621,-11.2213c-0.32423,-2.68637 0.01239,-5.61013 -0.62233,-8.24046c-0.55212,-2.28803 -1.20443,-4.48522 -1.3063,-6.9643c-0.16546,-4.37307 -0.33092,-8.74615 -0.49638,-13.11922c-0.02742,-0.7246 -0.19798,-3.68212 0.0991,-4.11255c0.95605,-1.38526 3.83326,-0.81444 5.19049,-0.99166c4.68756,-0.61202 9.58089,-1.03685 14.31254,-0.54261c1.39086,-0.04978 1.868,-0.15727 3.34716,0.27229c4.79127,1.39139 4.41183,5.93527 4.8929,9.97317c0.81194,6.81507 0.85817,13.71622 1.11793,20.58162c0.21573,5.70169 0.16744,11.55731 -0.02348,17.2666c-0.24059,7.19494 0.89039,14.54925 1.16349,21.76739c0.43698,11.5494 0.87396,23.09881 1.31094,34.64821c0.10894,2.8792 0.90259,5.56767 -1.5399,7.7615c-3.00039,2.69496 -7.3261,1.99145 -10.71392,3.29346c-5.85868,2.25163 -12.25168,3.53904 -18.70583,3.78324c-3.22324,0.11137 -6.44254,0.63797 -9.49086,1.348c-2.18181,0.5082 -4.6243,-0.06193 -6.83598,0.2745c-6.09532,0.92717 -12.42412,0.81281 -18.60685,1.04674c-6.18881,0.23416 -12.2845,0.80166 -18.48873,1.0364c-2.6434,0.10002 -4.70675,0.03599 -7.28259,-0.41373c-0.56667,-0.09893 -1.20976,0.19504 -1.72463,-0.06152c-2.75883,-1.37481 -2.8772,-6.1201 -2.98535,-8.69536c-0.11232,-3.51334 -0.70149,-7.17408 -1.68815,-10.36756c-0.74276,-2.40405 -0.02305,-5.48308 -0.34712,-7.96491c-0.64893,-4.9698 -1.38869,-9.83795 -1.57951,-14.88109c-0.17492,-4.6231 0.56371,-10.43913 -0.54249,-14.91129c-0.25428,-1.028 -0.66761,-2.03521 -0.78998,-3.08292zM191.21672,179.97462c0.07661,0.24971 0.14886,0.50009 0.20763,0.75235c1.09395,4.69655 0.4203,10.53513 0.603,15.36383c0.18785,4.96479 0.933,9.75119 1.55886,14.64488c0.27927,2.18361 -0.48941,5.43879 0.23837,7.50906c1.19026,3.38586 1.65853,7.34147 1.81753,11.05963c0.04193,1.26953 0.08577,6.08814 1.6368,6.62585c2.21786,0.7689 5.44486,0.32543 7.86321,0.23393c6.2045,-0.23475 12.29878,-0.80221 18.48874,-1.03641c6.10852,-0.23112 12.34637,-0.13913 18.37063,-1.02607c2.12076,-0.31225 4.54915,0.27752 6.61964,-0.23462c3.18117,-0.78686 6.5853,-1.27195 9.9434,-1.40852c7.35177,-0.27816 13.92187,-2.47187 20.82174,-4.13134c2.12935,-0.51212 7.25075,-0.97695 8.07064,-3.56851c0.35118,-1.11005 -0.19895,-3.46656 -0.24357,-4.6458c-0.43698,-11.5494 -0.87396,-23.09881 -1.31094,-34.64821c-0.27536,-7.27769 -1.3974,-14.68169 -1.16389,-21.93788c0.182,-5.65572 0.23754,-11.44902 0.02387,-17.09612c-0.25794,-6.81724 -0.3152,-13.66432 -1.10762,-20.43255c-0.54012,-4.61331 -0.18443,-8.31301 -5.9283,-8.0833c-4.61898,-0.48248 -9.36824,-0.05868 -13.94425,0.52652c-0.98597,0.12609 -1.98661,0.14159 -2.98002,0.10784c-0.18605,-0.00633 -0.49496,-0.27357 -0.55018,-0.09579c-0.23769,0.76514 0.38255,3.3791 0.41729,4.29723c0.14425,3.81243 0.28849,7.62484 0.43274,11.43728c0.07864,2.3065 0.71769,4.3007 1.22117,6.41494c0.65677,2.75796 0.34338,5.74946 0.68681,8.5536c0.57703,4.71143 1.73178,9.06777 1.87772,13.85921c0.03429,1.1262 -0.36609,2.22383 -0.57992,3.33009c-0.22607,1.1696 0.33071,2.39155 0.15824,3.57024c-0.11039,0.75447 -0.115,1.69589 -0.70804,2.17521c-0.63153,0.51042 -1.60757,0.23062 -2.41135,0.34593c-2.73231,0.10338 -5.87053,0.127 -8.54165,0.64453c-1.16505,0.22572 -2.19622,0.97754 -3.3711,1.14468c-4.54203,0.64616 -9.27802,-0.10273 -13.82028,0.52605c-3.22593,0.44659 -6.23949,1.90676 -9.47339,2.04865c-3.43669,0.10227 -7.7137,0.24763 -11.06579,1.04083c-1.34113,0.31734 -4.99509,2.01538 -6.47444,0.69774c-1.30013,-1.158 -0.94314,-4.39037 -1.00197,-5.94516c-0.17067,-4.51077 -0.00294,-8.98113 -0.17272,-13.46835c-0.29351,-7.75751 -0.9225,-15.47821 -1.21459,-23.1982c-0.10795,-2.85318 0.04546,-7.97817 -1.71812,-10.20141c-0.62067,-0.36721 -1.01704,-1.08224 -1.68254,-1.36001c-0.79102,-0.33016 -1.70799,0.15617 -2.56451,0.18858c-2.97504,0.11256 -5.29759,0.9137 -8.2727,1.31952c-0.65262,0.08903 -4.77041,0.78378 -5.04279,1.58101c-0.22902,0.67033 0.24246,2.64747 0.2716,3.41773c0.13211,3.49169 0.26422,6.98336 0.39633,10.47503c0.25166,6.65137 -0.43351,14.15619 0.7713,20.68884c0.3966,2.15042 0.95812,4.21 1.25848,6.40249c0.26066,1.90269 0.04415,4.48743 0.3339,6.75339c0.19613,0.24895 0.2606,0.51795 0.2606,0.51795l0.42194,1.78573c0.0028,0.10069 0.00946,0.20086 0.01945,0.30057c0.1419,0.29215 0.30736,0.56539 0.50041,0.81556c0,0 0.51637,0.71447 0.05264,1.36181z" fill="#000000"/><path d="M191.11605,178.61446c-0.19306,-0.25018 -0.35853,-0.52427 -0.50044,-0.81643c-0.00999,-0.09972 -0.01665,-0.20018 -0.01943,-0.30087l-0.42193,-1.78757c0,0 -0.06445,-0.26953 -0.26058,-0.51848c-0.28975,-2.26597 -0.0725,-4.85737 -0.33317,-6.76006c-0.30036,-2.19249 -0.86055,-4.25762 -1.25715,-6.40804c-1.20479,-6.53266 -0.5127,-14.05142 -0.76436,-20.70279c-0.13211,-3.49169 -0.26052,-6.98792 -0.39263,-10.4796c-0.02914,-0.77028 -0.49953,-2.74855 -0.27051,-3.41888c0.27236,-0.79723 4.39257,-1.49423 5.04519,-1.58325c2.97511,-0.40583 5.30178,-1.21026 8.27684,-1.32282c0.85654,-0.03241 1.7749,-0.51966 2.56591,-0.18952c0.66551,0.27777 1.11404,1.07356 1.7347,1.44076c1.76358,2.22325 1.61327,7.3461 1.72122,10.19928c0.29209,7.72 0.93334,15.42708 1.22685,23.1846c0.16978,4.48722 0.00837,8.93993 0.17904,13.4507c0.05883,1.55479 -0.29769,4.77752 1.00244,5.93552c1.47935,1.31763 5.03726,-0.37608 6.37839,-0.69343c3.35209,-0.79319 7.62906,-0.9413 11.06576,-1.04357c3.23391,-0.14189 6.26761,-1.64022 9.49354,-2.08681c4.54225,-0.62879 9.35302,0.1485 13.89505,-0.49768c1.17488,-0.16714 2.20581,-0.92001 3.37084,-1.14573c2.67112,-0.51752 5.80997,-0.53834 8.54229,-0.64172c0.80378,-0.11531 1.68533,0.18227 2.31686,-0.32815c0.59305,-0.47932 0.5984,-1.41738 0.7088,-2.17186c0.17247,-1.17871 -0.38251,-2.39514 -0.15643,-3.56474c0.21383,-1.10625 0.61605,-2.19978 0.58175,-3.326c-0.14594,-4.79144 -1.29045,-9.1342 -1.86747,-13.84563c-0.34344,-2.80414 -0.02469,-5.79136 -0.68147,-8.54932c-0.50348,-2.11423 -1.13864,-4.10605 -1.21728,-6.41253c-0.14425,-3.81243 -0.28416,-7.62271 -0.4284,-11.43513c-0.03474,-0.9181 -0.6535,-3.53148 -0.41581,-4.29662c0.05523,-0.17778 0.39968,0.00015 0.58572,0.00647c0.99342,0.03375 1.99592,0.01905 2.98189,-0.10704c4.57602,-0.58521 9.33262,-1.00487 13.95159,-0.5224c5.74386,-0.2297 5.39334,3.4741 5.93347,8.08741c0.79243,6.76824 0.85777,13.62485 1.11571,20.4421c0.21366,5.64709 0.16395,11.45327 -0.01806,17.10901c-0.23352,7.25619 0.88965,14.68152 1.165,21.95923c0.43698,11.5494 0.863,23.12197 1.29998,34.67138c0.04462,1.17924 0.59319,3.53749 0.242,4.64753c-0.81988,2.59156 -5.94561,3.0604 -8.07495,3.57253c-6.89988,1.65947 -13.48323,3.8609 -20.83499,4.13905c-3.35809,0.13657 -6.77005,0.62394 -9.95122,1.41081c-2.0705,0.51213 -4.50433,-0.07686 -6.62509,0.23539c-6.02426,0.88696 -12.27706,0.79386 -18.38558,1.02498c-6.18996,0.2342 -12.2962,0.7971 -18.5007,1.03186c-2.41834,0.0915 -5.64941,0.53249 -7.86726,-0.23641c-1.55104,-0.53771 -1.59781,-5.3585 -1.63974,-6.62802c-0.159,-3.71816 -0.63222,-7.67829 -1.82247,-11.06414c-0.72777,-2.07025 0.03773,-5.32915 -0.24154,-7.51276c-0.62586,-4.89369 -1.37727,-9.6908 -1.56512,-14.65558c-0.1827,-4.82871 0.48731,-10.68208 -0.60662,-15.37863c-0.05876,-0.25226 -0.13107,-0.50344 -0.20767,-0.75316c0.46374,-0.64735 -0.05272,-1.36322 -0.05272,-1.36322z" fill="#ffffff"/></g><g><path d="M236.64391,192.51805c1.00319,10.91857 -6.82766,20.65747 -17.49072,21.75241c-10.66307,1.09495 -20.12045,-6.86869 -21.12365,-17.78726c-0.39273,-4.27436 -1.53,-7.52933 1.95359,-9.1785c5.41499,-2.56351 17.00487,-2.54688 17.00487,-2.54688c0,0 10.93708,-2.35457 16.77645,-0.79749c3.56716,0.9512 2.49904,4.41715 2.87949,8.55772z" fill="#000000" stroke="none" stroke-width="0" stroke-linecap="butt"/><path d="M227.62179,188.94281l-0.39556,-4.3051l25.78609,-2.64787l0.39556,4.30511z" fill="#000000" stroke="none" stroke-width="0" stroke-linecap="butt"/><path d="M285.51468,187.49971c1.0032,10.91857 -6.82766,20.65746 -17.49072,21.75241c-10.66307,1.09495 -20.12044,-6.86869 -21.12365,-17.78726c-0.39273,-4.27436 -1.53,-7.52933 1.95359,-9.1785c5.41499,-2.56352 17.00487,-2.54687 17.00487,-2.54687c0,0 10.93707,-2.35457 16.77645,-0.79749c3.56715,0.9512 2.49904,4.41715 2.87949,8.55772z" fill="#000000" stroke="none" stroke-width="0" stroke-linecap="butt"/><path d="M206.62394,191.11957l-4.07159,4.47846" fill="none" stroke="#ffffff" stroke-width="1.5" stroke-linecap="round"/><path d="M202.83311,191.42315l-1.39982,1.6546" fill="none" stroke="#ffffff" stroke-width="1.5" stroke-linecap="round"/><path d="M204.81547,197.43438l4.94173,-4.67156" fill="none" stroke="#ffffff" stroke-width="1.5" stroke-linecap="round"/><path d="M212.45237,194.42264l-4.61942,5.46018" fill="none" stroke="#ffffff" stroke-width="1.5" stroke-linecap="round"/><path d="M211.96425,200.84765l3.07961,-3.64011" fill="none" stroke="#ffffff" stroke-width="1.5" stroke-linecap="round"/><path d="M217.34935,200.16343l-1.96582,2.15652" fill="none" stroke="#ffffff" stroke-width="1.5" stroke-linecap="round"/><path d="M219.61851,202.1597l-0.83383,1.1527" fill="none" stroke="#ffffff" stroke-width="1.5" stroke-linecap="round"/><path d="M225.50745,207.06213l1.52165,-2.29987" fill="none" stroke="#ffffff" stroke-width="1.5" stroke-linecap="round"/><path d="M229.3959,205.47354l-2.07552,3.12163" fill="none" stroke="#ffffff" stroke-width="1.5" stroke-linecap="round"/><path d="M249.2415,188.86644l2.52573,-2.81835" fill="none" stroke="#ffffff" stroke-width="1.5" stroke-linecap="round"/><path d="M251.52884,191.34252l3.25589,-2.84598" fill="none" stroke="#ffffff" stroke-width="1.5" stroke-linecap="round"/><path d="M255.62987,191.50768l-1.54587,1.66013" fill="none" stroke="#ffffff" stroke-width="1.5" stroke-linecap="round"/><path d="M257.85062,192.22447l-2.08157,2.96171" fill="none" stroke="#ffffff" stroke-width="1.5" stroke-linecap="round"/><path d="M259.3162,196.17312l1.38167,-2.13441" fill="none" stroke="#ffffff" stroke-width="1.5" stroke-linecap="round"/><path d="M266.62393,196.05678l-3.09172,3.32026" fill="none" stroke="#ffffff" stroke-width="1.5" stroke-linecap="round"/><path d="M262.94284,195.39525l-2.64757,3.46362" fill="none" stroke="#ffffff" stroke-width="1.5" stroke-linecap="round"/><path d="M274.60575,202.16134l1.08961,-2.12335" fill="none" stroke="#ffffff" stroke-width="1.5" stroke-linecap="round"/><path d="M278.50025,200.73269l-1.79557,2.79072" fill="none" stroke="#ffffff" stroke-width="1.5" stroke-linecap="round"/></g><path d="M251.60477,228.18196c0.2571,-1.22328 1.48038,-0.96617 1.48038,-0.96617l0.92401,0.19798c0.41678,0.12162 0.83355,0.24324 1.25032,0.36486c3.95344,1.38654 2.79478,4.23048 -0.58461,5.47545c-1.52404,0.56146 -3.63779,0.53956 -5.22792,0.24273c-1.12118,-0.20929 -2.5217,-0.01368 -3.31988,-0.8284c-1.9972,-2.03859 0.06926,-6.94854 2.01184,-8.22837c1.57434,-1.03723 4.99289,-0.56072 6.78098,-0.62837c0,0 1.24911,-0.04726 1.29637,1.20185c0.04726,1.24911 -1.20185,1.29637 -1.20185,1.29637c-1.05635,0.03997 -4.66437,-0.42571 -5.55088,0.25039c-0.90306,0.68872 -1.23352,1.85127 -1.33843,2.86628c-0.04934,0.47739 -0.73915,1.21867 -0.29838,1.40851c1.15066,0.49557 4.63281,0.59547 5.90427,0.10404c0.43564,-0.16837 0.85587,-0.54992 1.28854,-0.71755c-0.17963,-0.00954 -0.35301,-0.02469 -0.46041,-0.04301c-0.41678,-0.12162 -0.83355,-0.24325 -1.25032,-0.36487l-0.73788,-0.15132c0,0 -1.22328,-0.2571 -0.96617,-1.48038z" fill="#000000" stroke="none" stroke-width="0.5" stroke-linecap="butt"/><path d="M177.11486,291.06619c-0.48788,-1.10987 -1.22079,-2.06845 -2.21394,-2.80407c-1.34935,-0.00994 -2.79543,-0.13569 -3.80818,0.01616c-0.09697,0.06031 -1.32217,0.80386 -1.39941,0.92381c-0.64576,1.00285 -0.17776,3.209 -1.05846,4.06067c-1.13214,1.09481 -3.34644,0.19913 -4.61329,0.07198c-3.05374,-0.30651 -5.89537,-1.19273 -8.22692,-2.96952c-0.20434,2.82162 -0.4378,5.79787 1.23462,8.022c1.69369,2.14602 4.26332,4.56422 6.71215,5.66819c0.86859,0.39157 1.97929,1.33569 3.05201,1.0765c0.61446,-0.14846 1.15334,-2.44938 1.73649,-2.97912c1.37297,-1.24721 3.34482,-1.70274 4.97585,-2.51845c1.3591,-0.81184 3.22769,-1.08832 4.12688,-2.47926c0.86441,-1.33714 0.31389,-2.77688 0.06064,-4.16979c-0.01374,-0.07556 -0.02834,-0.15071 -0.0438,-0.22544c-0.22681,0.04514 -0.81314,0.0892 -1.03886,-0.58796c-0.23571,-0.70713 0.31505,-1.02103 0.50422,-1.1057zM179.72331,292.4259c0.57116,1.93654 0.49951,3.97061 -0.58526,5.69238c-1.12661,1.78817 -3.08486,2.06542 -4.77227,3.0827c-1.37256,0.68613 -4.42626,1.30994 -5.20412,2.79011c-0.612,1.16456 -0.17043,2.23915 -1.80307,2.83627c-1.53675,0.56205 -3.08546,-0.56271 -4.36395,-1.14829c-2.73748,-1.25382 -5.45929,-3.82479 -7.37818,-6.19735c-2.31492,-3.09358 -1.63588,-6.9803 -1.50455,-10.65853c-0.20667,-0.22692 -0.4074,-0.46369 -0.60186,-0.71062c-1.49316,-0.90068 -2.9556,-2.82091 -4.02022,-4.21546l-0.35888,-0.34925c-1.19518,0.02058 -2.39793,-0.03491 -3.56123,-0.03491c-2.60494,0 -5.50291,0.42068 -8.06021,0.18105c-1.29238,-0.12111 -2.57053,-0.34897 -3.29538,-1.57998c-0.5504,-0.93473 0.03234,-1.93989 -0.39871,-2.8379c-0.55858,-1.1637 -1.39436,-2.88344 -0.72508,-4.28694c0.43713,-0.91667 1.42934,-1.32656 1.85272,-2.40764c0.55308,-0.9218 0.86544,-2.12679 1.68524,-2.86208c1.88054,-1.6867 4.71522,-2.26835 6.9843,-3.15135c0.4115,-0.16013 0.8221,-0.32379 1.23241,-0.48867c-2.27989,0.75291 -4.89356,1.19813 -7.11855,1.47985c-1.04379,0.17138 -3.70475,0.66667 -4.64794,0.07876c-1.50198,-0.93623 -1.36626,-3.23921 -1.71868,-4.61785c-0.62003,-2.4255 -3.51417,-4.23134 -2.15817,-7.13638c0.85601,-1.8339 3.4888,-3.36627 4.91059,-4.77601c2.77024,-4.68999 9.70607,-4.65999 14.58935,-5.88173c2.74056,-0.68566 5.22322,-2.04135 8.00222,-2.60214c0,0 0.47726,-0.09545 0.79777,0.20676c2.32376,-0.49227 4.61405,-1.11645 6.76716,-2.17044c1.08859,-0.53288 1.68105,-1.54481 2.71113,-2.18616c2.54724,-1.58598 5.48746,-2.92792 7.88895,-4.68884c0.98251,0.10441 0.4944,-0.96262 0.00606,-1.63452c-1.2152,-1.67198 -2.74879,-3.20769 -4.43331,-4.43003c-1.67058,-1.21223 -3.3252,-2.48748 -4.96988,-3.68303c-0.9444,-0.6865 -1.94014,-1.03719 -2.66428,-2.10808c-0.97378,-1.44008 -1.59396,-3.13292 -2.57905,-4.61078c-0.74156,-1.01203 -2.10766,-1.75216 -2.52845,-3.01452c-0.44709,-1.34125 0.04104,-3.76401 1.29829,-4.56114c1.07127,-0.67921 3.16102,-0.32301 4.36981,-0.32301c3.14937,0 6.19834,-0.3708 9.26995,-0.3708c1.79949,0.03828 3.26307,-0.89433 5.07277,0.11459c1.8366,1.02392 2.4394,3.50658 3.90205,4.96751c2.57669,2.57365 5.90253,4.35354 9.00262,6.2311c5.33538,5.28531 10.70941,12.90147 10.72376,20.66407c0.67972,4.75802 0.29687,9.47925 0.73949,14.25102c0.13952,1.50415 1.21156,2.164 1.7807,3.43171c0.55714,1.24098 0.36715,2.85794 0.62949,4.16965c0.02777,7.66404 -2.7478,17.05695 -9.97852,20.74091c-1.2038,0.47781 -2.76854,0.28139 -3.82165,0.89083c-0.91231,0.52796 -1.48795,1.50336 -2.29805,2.15012c-2.79474,2.23123 -5.11357,5.04864 -8.66731,5.76503zM156.27139,244.55405c-2.44465,0.62222 -4.70026,1.79709 -7.15917,2.41138c-3.82688,0.95603 -8.28042,1.25635 -11.87881,2.90667c-0.8254,0.37855 -1.28189,1.62694 -1.71249,2.33555c-1.37522,1.38595 -3.77173,2.79765 -4.73016,4.49394c-0.98576,1.74467 1.8677,4.35609 2.2914,5.84155c0.20628,0.72321 0.04446,3.01478 0.8769,3.53971c0.46018,0.29018 2.91513,-0.19133 3.50961,-0.29204c4.11282,-0.50699 8.66939,-1.78436 12.33895,-3.62426c1.81122,-0.90813 3.72187,-1.62291 5.70442,-2.09542c0.4771,-0.11371 0.96222,-0.54298 1.42289,-0.37465c1.81093,0.66172 1.18949,2.67759 0.88551,3.93242c-1.53021,1.16811 -2.3701,0.8064 -4.10958,1.14262c-1.60761,0.31074 -3.17106,1.2717 -4.69936,1.82175c-3.54591,1.27619 -8.20513,1.95039 -11.18627,4.45333c-0.5933,0.49813 -0.88921,1.67586 -1.28115,2.32909c-0.42077,1.03264 -1.41602,1.62616 -1.85526,2.41273c-0.45544,0.81561 0.49246,2.12423 0.75811,2.75822c0.36859,0.87968 -0.03901,1.91873 0.34289,2.72408c0.32164,0.67828 2.02261,0.71376 2.64668,0.6448c2.36249,-0.26104 4.74523,-0.18975 7.13321,-0.18975c2.66403,0 5.51531,0.34927 7.96552,-0.84338c0.34823,-0.1695 1.53863,-1.44854 1.6815,-1.56296c2.16641,-1.73503 4.18776,-3.68347 6.58898,-5.07351c1.22993,-0.71199 1.18081,-1.39846 2.68484,-1.77276l0.51722,-0.29381c0,0 0.67091,-0.33545 1.09069,0.22302c0.4549,-0.20486 0.90727,-0.40713 1.35305,-0.60973c1.15512,-0.52499 2.1321,-1.23848 3.42979,-1.37187c2.25986,-0.23228 4.07662,0.75196 6.15764,1.16816c4.31857,2.53672 3.72459,7.38487 2.7765,11.77297c-0.29377,1.35969 -0.80255,3.8904 -2.20057,4.53258c-0.13047,0.05993 -0.27205,0.11067 -0.42301,0.15347c0.73591,0.79556 1.3765,1.71504 1.86584,2.69653c4.67833,-0.62945 6.71179,-5.60154 10.75535,-7.79175c1.26635,-0.68592 2.63316,-0.42516 3.9651,-0.96316c6.54248,-3.18886 8.90345,-12.16719 8.93218,-18.93448c-0.21859,-1.09294 -0.01171,-2.59822 -0.4829,-3.61711c-0.66496,-1.43788 -1.74412,-2.24804 -1.92728,-3.98425c-0.50381,-4.77572 -0.06196,-9.5283 -0.7437,-14.30043c0.01405,-7.27381 -5.0968,-14.38259 -10.04093,-19.38211c-3.17678,-1.88652 -6.54105,-3.74776 -9.16649,-6.37603c-1.23989,-1.24123 -2.01983,-3.84857 -3.51391,-4.67324c-1.34238,-0.74094 -2.81039,0.09419 -4.19719,0.11459c-3.06038,0 -6.12743,0.3708 -9.26995,0.3708c-0.7495,0 -2.74272,-0.35691 -3.41694,0.04779c-0.55586,0.33365 -0.73203,1.95504 -0.5557,2.48403c0.31575,0.94725 1.69998,1.77123 2.29193,2.54745c1.17533,1.76275 2.02241,4.70053 3.84122,5.88828c3.35694,2.19219 7.3988,4.5873 10.02528,7.78084c1.38194,1.6803 2.73374,4.52845 0.04449,5.46106c-2.27313,1.74839 -5.20823,3.0774 -7.68457,4.58111c-1.08658,0.6598 -1.68776,1.67214 -2.85083,2.26341c-2.50614,1.27404 -5.27692,1.93957 -8.00859,2.4859c0,0 -0.46274,0.09255 -0.78293,-0.19315zM175.34225,286.45507c0.55671,-0.02624 1.09232,-0.08615 1.58876,-0.21171c0.46799,-0.11837 1.05456,-2.86764 1.13662,-3.25418c0.72165,-3.39938 1.64194,-7.68289 -1.67308,-9.73331c-1.82689,-0.36538 -3.34414,-1.24753 -5.33709,-1.05662c-1.60547,0.15379 -3.27467,1.42658 -4.69675,2.13607c-1.6303,0.81337 -3.36866,1.48298 -4.88036,2.51999c-1.06454,0.73025 -1.90556,1.9319 -2.93066,2.75384c0,0 -0.49735,0.39788 -0.98818,0.10193c-0.41231,0.34192 -0.82618,0.68243 -1.24491,1.01702c-0.94159,0.7524 -0.87415,1.18754 -2.02648,1.77423c-0.93415,0.4756 -1.92804,0.74195 -2.95013,0.8873c0.87163,1.14996 1.99055,2.48236 3.12601,3.23824c0.78195,-0.36972 1.17293,0.41224 1.17293,0.41224l0.27974,0.77042c0,0.09428 -0.0008,0.18913 -0.00232,0.28448c2.26625,2.13212 5.01003,3.13536 8.28134,3.46126c0.40286,0.04014 2.8814,0.79185 3.17347,0.44277c0.48453,-0.5791 0.23971,-2.90782 0.79553,-3.72608c0.46125,-0.67905 1.61708,-1.26665 2.30857,-1.67178c0.69069,-0.12373 1.43336,-0.14935 2.1879,-0.14775c0.01012,-0.08414 0.03309,-0.1749 0.07216,-0.27256c0.33187,-0.82967 1.16154,-0.4978 1.16154,-0.4978c0.49141,0.19809 0.97634,0.45889 1.44539,0.77201zM150.50628,263.96452c0.89583,-0.27237 1.96221,-0.76238 2.86662,-0.94792c0.83972,-0.17227 2.22836,0.14702 2.93558,-0.34057c0.04069,-0.42035 0.51653,-1.45753 0.14391,-1.25876c-1.25785,0.67102 -2.73006,1.06757 -4.13908,1.47934c-1.7484,0.51094 -3.61766,1.52625 -5.27513,2.3033c1.14547,-0.45093 2.29713,-0.87937 3.46809,-1.23539z" fill="#000000" stroke="none" stroke-width="0.5" stroke-linecap="butt"/><path d="M176.64305,292.15683c0.22572,0.67716 0.81321,0.63591 1.04002,0.59076c0.01547,0.07473 0.0303,0.15054 0.04404,0.22611c0.25326,1.39291 0.80567,2.84578 -0.05874,4.18292c-0.89919,1.39094 -2.77082,1.68039 -4.12992,2.49223c-1.63103,0.81571 -3.6252,1.29094 -4.99816,2.53815c-0.58315,0.52973 -1.13274,2.83218 -1.74719,2.98065c-1.07273,0.25919 -2.19708,-0.68778 -3.06566,-1.07935c-2.44883,-1.10397 -5.03968,-3.54898 -6.73337,-5.695c-1.67241,-2.22412 -1.43478,-5.22416 -1.23044,-8.04579c2.33154,1.77679 5.18106,2.6535 8.2348,2.96001c1.26686,0.12716 3.52064,1.01825 4.65277,-0.07655c0.88071,-0.85167 0.40897,-3.05948 1.05473,-4.06232c0.07724,-0.11995 1.30587,-0.86199 1.40284,-0.92231c1.01274,-0.15185 2.46745,-0.02004 3.81681,-0.0101c0.99315,0.73561 1.73274,1.70288 2.22062,2.81274c-0.18917,0.08467 -0.73884,0.40072 -0.50313,1.10786z" fill="#ffffff" stroke="none" stroke-width="0.5" stroke-linecap="butt"/><path d="M173.93002,285.69638c0,0 -0.83122,-0.32852 -1.16309,0.50115c-0.03906,0.09766 -0.06257,0.18941 -0.07269,0.27354c-0.75454,-0.00159 -1.5007,0.0291 -2.19139,0.15284c-0.69149,0.40513 -1.85873,1.00188 -2.31998,1.68092c-0.55582,0.81827 -0.319,3.14991 -0.80352,3.729c-0.29207,0.34908 -2.78201,-0.40183 -3.18487,-0.44197c-3.27131,-0.3259 -6.0418,-1.3452 -8.30805,-3.47731c0.00152,-0.09536 0.0019,-0.19086 0.0019,-0.28515l-0.28108,-0.77276c0,0 -0.39219,-0.78451 -1.17414,-0.41479c-1.13546,-0.75588 -2.25707,-2.09899 -3.1287,-3.24895c1.02209,-0.14535 2.01585,-0.41374 2.95,-0.88934c1.15233,-0.58669 1.08532,-1.02872 2.02691,-1.78113c0.41873,-0.33459 0.83387,-0.68042 1.24619,-1.02235c0.49083,0.29595 0.98887,-0.10386 0.98887,-0.10386c1.0251,-0.82194 1.87941,-2.04026 2.94395,-2.77052c1.5117,-1.037 3.27601,-1.71225 4.90631,-2.52563c1.42207,-0.70948 3.10385,-1.97761 4.70932,-2.1314c1.99295,-0.19091 3.51986,0.6998 5.34675,1.06518c3.31502,2.05043 2.40225,6.35831 1.68059,9.75769c-0.08206,0.38654 -0.67051,3.14515 -1.1385,3.26352c-0.49644,0.12556 -1.03287,0.18762 -1.58958,0.21386c-0.46905,-0.31312 -0.95377,-0.57445 -1.44518,-0.77254z" fill="#ffffff" stroke="none" stroke-width="0.5" stroke-linecap="butt"/><path d="M157.02378,244.72863c2.73167,-0.54633 5.5263,-1.2284 8.03244,-2.50245c1.16307,-0.59127 1.77519,-1.60399 2.86177,-2.26379c2.47634,-1.5037 5.42536,-2.82801 7.69849,-4.5764c2.68925,-0.93261 1.30511,-3.71717 -0.07683,-5.39746c-2.62649,-3.19354 -6.65277,-5.58575 -10.0097,-7.77794c-1.81881,-1.18774 -2.66218,-4.12587 -3.83751,-5.88862c-0.59194,-0.77622 -1.97439,-1.60051 -2.29014,-2.54775c-0.17633,-0.52899 -0.01306,-2.22068 0.5428,-2.55433c0.67422,-0.4047 2.67048,-0.04817 3.41998,-0.04817c3.14252,0 6.21786,-0.37052 9.27824,-0.37052c1.3868,-0.0204 2.85833,-0.85481 4.20071,-0.11387c1.49408,0.82467 2.27814,3.43333 3.51803,4.67456c2.62544,2.62827 5.99895,4.49482 9.17574,6.38134c4.94413,4.99952 10.06711,12.12645 10.05307,19.40026c0.68173,4.77213 0.2409,9.53967 0.74471,14.31539c0.18316,1.73621 1.26164,2.54988 1.9266,3.98777c0.47119,1.01889 0.26341,2.52722 0.482,3.62016c-0.02873,6.76729 -2.40011,15.76098 -8.94259,18.94984c-1.33194,0.538 -2.70132,0.27926 -3.96767,0.96518c-4.04356,2.19021 -6.08726,7.16737 -10.7656,7.79682c-0.48934,-0.98149 -1.13079,-1.90071 -1.86671,-2.69627c0.15095,-0.04281 0.27277,-0.16224 0.40325,-0.22217c1.39802,-0.64218 1.90355,-3.17177 2.19732,-4.53145c0.94809,-4.3881 1.57124,-9.17105 -2.74733,-11.70777c-2.08102,-0.4162 -3.90617,-1.39752 -6.16603,-1.16524c-1.2977,0.13338 -2.28078,0.84763 -3.4359,1.37263c-0.44578,0.2026 -0.90041,0.40489 -1.35531,0.60975c-0.41978,-0.55847 -1.0925,-0.22311 -1.0925,-0.22311l-0.51802,0.29375c-1.50403,0.3743 -1.45857,1.06022 -2.6885,1.77221c-2.40123,1.39003 -4.42863,3.33667 -6.59503,5.0717c-0.14287,0.11442 -1.33426,1.39305 -1.68248,1.56255c-2.45021,1.19265 -5.30733,0.84017 -7.97136,0.84017c-2.38799,0 -4.77461,-0.07434 -7.13709,0.18671c-0.62408,0.06896 -2.32646,0.03212 -2.64811,-0.64616c-0.3819,-0.80534 0.02442,-1.84575 -0.34416,-2.72542c-0.26564,-0.63399 -1.215,-1.94434 -0.75956,-2.75995c0.43923,-0.78657 1.43406,-1.38066 1.85483,-2.41329c0.39194,-0.65323 0.74548,-1.87323 1.33879,-2.37136c2.98114,-2.50294 7.63768,-3.18047 11.18359,-4.45666c1.5283,-0.55004 3.08937,-1.5134 4.69697,-1.82413c1.73947,-0.33623 2.57531,0.0223 4.10552,-1.14581c0.30399,-1.25482 0.87934,-3.21663 -0.93159,-3.87835c-0.46067,-0.16833 -0.94693,0.25967 -1.42403,0.37338c-1.98255,0.47251 -3.89545,1.18436 -5.70666,2.09249c-3.66956,1.8399 -8.22838,3.11353 -12.3412,3.62052c-0.59448,0.10071 -3.05003,0.58102 -3.51021,0.29084c-0.83244,-0.52493 -0.672,-2.81982 -0.87828,-3.54302c-0.4237,-1.48546 -3.27873,-4.10287 -2.29297,-5.84754c0.95843,-1.69628 3.35448,-3.11214 4.7297,-4.49809c0.4306,-0.7086 0.88705,-1.95972 1.71245,-2.33827c3.59838,-1.65032 8.05266,-1.95699 11.87953,-2.91302c2.45892,-0.61429 4.71862,-1.79989 7.16327,-2.42212c0.32018,0.28569 0.78329,0.19253 0.78329,0.19253z" fill="#ffffff" stroke="none" stroke-width="0.5" stroke-linecap="butt"/><path d="M312.19397,283.76802c-0.22572,0.67716 -0.81205,0.63311 -1.03886,0.58796c-0.01547,0.07473 -0.03007,0.14988 -0.04381,0.22544c-0.25326,1.39291 -0.80377,2.83265 0.06063,4.16979c0.89919,1.39094 2.76778,1.66743 4.12688,2.47926c1.63103,0.81572 3.60289,1.27124 4.97585,2.51845c0.58314,0.52973 1.12203,2.83065 1.73649,2.97912c1.07273,0.25919 2.18343,-0.68493 3.05201,-1.0765c2.44883,-1.10397 5.01845,-3.52216 6.71215,-5.66818c1.67242,-2.22412 1.43896,-5.20037 1.23462,-8.02199c-2.33155,1.77679 -5.17317,2.66301 -8.22692,2.96952c-1.26685,0.12716 -3.48116,1.02283 -4.61329,-0.07198c-0.8807,-0.85167 -0.4127,-3.05782 -1.05846,-4.06067c-0.07724,-0.11995 -1.30244,-0.86349 -1.39941,-0.92381c-1.01274,-0.15185 -2.45882,-0.02611 -3.80818,-0.01617c-0.99316,0.73561 -1.72605,1.6942 -2.21394,2.80407c0.18917,0.08467 0.73994,0.39856 0.50423,1.10569zM300.41397,278.25701c-0.81011,-0.64676 -1.38574,-1.62216 -2.29805,-2.15012c-1.05311,-0.60944 -2.61785,-0.41301 -3.82165,-0.89082c-7.23072,-3.68396 -10.00629,-13.07687 -9.97852,-20.74091c0.26234,-1.31171 0.07236,-2.92867 0.62949,-4.16965c0.56914,-1.26772 1.64118,-1.92756 1.7807,-3.43171c0.44262,-4.77176 0.05978,-9.493 0.7395,-14.25102c0.01434,-7.7626 5.38837,-15.37876 10.72375,-20.66407c3.10009,-1.87756 6.42593,-3.65745 9.00261,-6.2311c1.46265,-1.46093 2.06545,-3.94359 3.90205,-4.96751c1.8097,-1.00892 3.27328,-0.07631 5.07277,-0.11459c3.07161,0 6.12057,0.3708 9.26995,0.3708c1.2088,0 3.29854,-0.3562 4.36982,0.323c1.25725,0.79712 1.74537,3.21989 1.29829,4.56114c-0.42079,1.26236 -1.78688,2.00249 -2.52845,3.01452c-0.98508,1.47786 -1.60527,3.17069 -2.57905,4.61077c-0.72414,1.0709 -1.71988,1.42157 -2.66428,2.10808c-1.64468,1.19555 -3.2993,2.4708 -4.96988,3.68304c-1.68451,1.22234 -3.21811,2.75805 -4.43331,4.43003c-0.48834,0.6719 -0.97644,1.73893 0.00606,1.63451c2.40149,1.76092 5.34171,3.10286 7.88895,4.68885c1.03008,0.64136 1.62255,1.65328 2.71114,2.18616c2.15311,1.05399 4.4434,1.67817 6.76716,2.17044c0.32051,-0.30222 0.79777,-0.20677 0.79777,-0.20677c2.779,0.56079 5.26166,1.91647 8.00222,2.60214c4.88327,1.22174 11.81911,1.19174 14.58934,5.88173c1.42179,1.40973 4.05458,2.94211 4.91059,4.776c1.35599,2.90504 -1.53814,4.71088 -2.15818,7.13638c-0.35242,1.37864 -0.2167,3.68161 -1.71868,4.61785c-0.94319,0.58792 -3.60416,0.09262 -4.64795,-0.07876c-2.225,-0.28172 -4.83866,-0.72694 -7.11855,-1.47985c0.41032,0.16487 0.82092,0.32853 1.23242,0.48866c2.26908,0.88301 5.10375,1.46465 6.98429,3.15135c0.8198,0.7353 1.13216,1.94029 1.68524,2.86208c0.42337,1.08108 1.41559,1.49098 1.85272,2.40765c0.66928,1.4035 -0.16651,3.12324 -0.72508,4.28694c-0.43104,0.89801 0.1517,1.90317 -0.3987,2.8379c-0.72485,1.23101 -2.00301,1.45887 -3.29539,1.57998c-2.5573,0.23964 -5.45528,-0.18105 -8.06021,-0.18105c-1.16329,0 -2.36604,0.0555 -3.56122,0.03492l-0.35889,0.34925c-1.06462,1.39455 -2.52706,3.31478 -4.02022,4.21546c-0.19446,0.24693 -0.39519,0.4837 -0.60186,0.71061c0.13133,3.67823 0.81036,7.56495 -1.50456,10.65854c-1.91889,2.37256 -4.64069,4.94353 -7.37817,6.19735c-1.27848,0.58557 -2.82719,1.71033 -4.36394,1.14828c-1.63264,-0.59712 -1.19106,-1.67171 -1.80307,-2.83627c-0.77786,-1.48017 -3.83156,-2.10398 -5.20412,-2.79011c-1.68742,-1.01729 -3.64567,-1.29453 -4.77227,-3.08271c-1.08477,-1.72177 -1.15643,-3.75584 -0.58526,-5.69238c-3.55374,-0.71638 -5.87257,-3.53379 -8.66731,-5.76503zM331.75028,236.34334c-2.73167,-0.54633 -5.50245,-1.21186 -8.00859,-2.4859c-1.16307,-0.59127 -1.76426,-1.60362 -2.85084,-2.26341c-2.47634,-1.5037 -5.41144,-2.83272 -7.68457,-4.58111c-2.68925,-0.93261 -1.33745,-3.78077 0.04449,-5.46106c2.62649,-3.19354 6.66835,-5.58864 10.02529,-7.78083c1.81881,-1.18775 2.66589,-4.12552 3.84122,-5.88827c0.59194,-0.77623 1.97618,-1.6002 2.29192,-2.54745c0.17633,-0.52899 0.00016,-2.15038 -0.5557,-2.48403c-0.67423,-0.40471 -2.66745,-0.04779 -3.41694,-0.04779c-3.14252,0 -6.20956,-0.3708 -9.26995,-0.3708c-1.3868,-0.0204 -2.8548,-0.85553 -4.19718,-0.11459c-1.49408,0.82468 -2.27402,3.43201 -3.51391,4.67324c-2.62544,2.62827 -5.9897,4.48951 -9.16649,6.37604c-4.94413,4.99953 -10.05498,12.10829 -10.04093,19.38211c-0.68174,4.77213 -0.23989,9.5247 -0.7437,14.30042c-0.18316,1.73621 -1.26233,2.54637 -1.92728,3.98426c-0.47119,1.01889 -0.26432,2.52417 -0.4829,3.6171c0.02873,6.76729 2.38969,15.74562 8.93217,18.93448c1.33194,0.538 2.69876,0.27724 3.9651,0.96317c4.04357,2.19021 6.07702,7.16229 10.75536,7.79174c0.48933,-0.98149 1.12992,-1.90097 1.86584,-2.69653c-0.15096,-0.0428 -0.29253,-0.09354 -0.42301,-0.15347c-1.39801,-0.64219 -1.90679,-3.17289 -2.20056,-4.53258c-0.94809,-4.3881 -1.54207,-9.23625 2.7765,-11.77297c2.08102,-0.4162 3.89778,-1.40044 6.15765,-1.16817c1.2977,0.13338 2.27467,0.84688 3.42979,1.37187c0.44579,0.2026 0.89816,0.40487 1.35306,0.60973c0.41978,-0.55847 1.09069,-0.22302 1.09069,-0.22302l0.51722,0.29381c1.50403,0.3743 1.4549,1.06077 2.68484,1.77276c2.40123,1.39003 4.42258,3.33848 6.58898,5.07351c0.14287,0.11442 1.33328,1.39346 1.6815,1.56296c2.45022,1.19265 5.30149,0.84338 7.96552,0.84338c2.38799,0 4.77073,-0.0713 7.13321,0.18975c0.62408,0.06895 2.32504,0.03348 2.64669,-0.6448c0.38189,-0.80534 -0.0257,-1.8444 0.34289,-2.72408c0.26564,-0.634 1.21354,-1.94262 0.75811,-2.75822c-0.43923,-0.78657 -1.43448,-1.3801 -1.85526,-2.41273c-0.39194,-0.65323 -0.68784,-1.83096 -1.28114,-2.32909c-2.98115,-2.50293 -7.64037,-3.17714 -11.18628,-4.45333c-1.52829,-0.55005 -3.09174,-1.511 -4.69935,-1.82174c-1.73947,-0.33622 -2.57936,0.02549 -4.10958,-1.14263c-0.30399,-1.25482 -0.92543,-3.2707 0.88551,-3.93241c0.46067,-0.16833 0.94579,0.26095 1.42289,0.37466c1.98255,0.4725 3.89321,1.18728 5.70442,2.09541c3.66956,1.8399 8.22613,3.11727 12.33895,3.62425c0.59448,0.10071 3.04943,0.58222 3.50961,0.29204c0.83245,-0.52493 0.67062,-2.8165 0.8769,-3.5397c0.4237,-1.48546 3.27717,-4.09689 2.2914,-5.84155c-0.95842,-1.69628 -3.35494,-3.10799 -4.73016,-4.49394c-0.43061,-0.70861 -0.88708,-1.957 -1.71249,-2.33555c-3.59839,-1.65031 -8.05194,-1.95063 -11.87881,-2.90667c-2.45892,-0.61429 -4.71452,-1.78916 -7.15918,-2.41138c-0.32018,0.28569 -0.78292,0.19315 -0.78292,0.19315zM314.90774,277.27921c0,0 0.82968,-0.33187 1.16155,0.4978c0.03906,0.09766 0.06203,0.18843 0.07215,0.27256c0.75454,-0.00159 1.49721,0.02402 2.1879,0.14776c0.6915,0.40513 1.84732,0.99272 2.30858,1.67178c0.55581,0.81826 0.31101,3.14698 0.79553,3.72608c0.29207,0.34908 2.7706,-0.40264 3.17346,-0.44277c3.27131,-0.3259 6.01509,-1.32914 8.28134,-3.46125c-0.00152,-0.09536 -0.00233,-0.1902 -0.00233,-0.28449l0.27974,-0.77041c0,0 0.39097,-0.78196 1.17293,-0.41224c1.13546,-0.75588 2.25437,-2.08828 3.12601,-3.23824c-1.02209,-0.14535 -2.01598,-0.4117 -2.95013,-0.8873c-1.15233,-0.58669 -1.08489,-1.02182 -2.02648,-1.77423c-0.41872,-0.33459 -0.8326,-0.6751 -1.24491,-1.01702c-0.49083,0.29595 -0.98818,-0.10192 -0.98818,-0.10192c-1.0251,-0.82194 -1.86612,-2.02359 -2.93066,-2.75385c-1.5117,-1.037 -3.25005,-1.70661 -4.88036,-2.51998c-1.42208,-0.70948 -3.09127,-1.98228 -4.69674,-2.13607c-1.99296,-0.19091 -3.51021,0.69124 -5.3371,1.05662c-3.31502,2.05043 -2.39474,6.33393 -1.67308,9.73332c0.08206,0.38654 0.66863,3.1358 1.13662,3.25417c0.49644,0.12557 1.03206,0.18548 1.58876,0.21171c0.46905,-0.31311 0.95398,-0.57392 1.44539,-0.77201zM341.76641,256.79605c-1.65747,-0.77705 -3.52674,-1.79235 -5.27513,-2.3033c-1.40903,-0.41177 -2.88123,-0.80832 -4.13908,-1.47934c-0.37261,-0.19877 0.10321,0.83841 0.14391,1.25876c0.70722,0.48759 2.09587,0.1683 2.93559,0.34057c0.90442,0.18554 1.9708,0.67555 2.86662,0.94792c1.17096,0.35602 2.32263,0.78446 3.4681,1.23539z" fill="#000000" stroke="none" stroke-width="0.5" stroke-linecap="butt"/><path d="M311.65841,282.64512c0.48789,-1.10987 1.22746,-2.07713 2.22062,-2.81274c1.34936,-0.00995 2.80407,-0.14176 3.81681,0.01009c0.09697,0.06032 1.3256,0.80235 1.40284,0.9223c0.64576,1.00285 0.17402,3.21065 1.05473,4.06232c1.13214,1.09481 3.38592,0.20371 4.65277,0.07656c3.05374,-0.30651 5.90326,-1.18322 8.2348,-2.96001c0.20434,2.82162 0.44197,5.82166 -1.23044,8.04579c-1.69369,2.14602 -4.28454,4.59103 -6.73337,5.695c-0.86858,0.39157 -1.99293,1.33855 -3.06566,1.07936c-0.61446,-0.14846 -1.16405,-2.45091 -1.74719,-2.98065c-1.37297,-1.24721 -3.36714,-1.72244 -4.99817,-2.53815c-1.3591,-0.81183 -3.23073,-1.10129 -4.12992,-2.49223c-0.86441,-1.33714 -0.312,-2.79001 -0.05874,-4.18292c0.01374,-0.07556 0.02858,-0.15138 0.04404,-0.22611c0.22681,0.04514 0.81429,0.0864 1.04001,-0.59076c0.23571,-0.70713 -0.31396,-1.02319 -0.50313,-1.10786z" fill="#ffffff" stroke="none" stroke-width="0.5" stroke-linecap="butt"/><path d="M313.4294,278.06506c-0.55671,-0.02623 -1.09314,-0.08829 -1.58958,-0.21386c-0.46799,-0.11837 -1.05645,-2.87698 -1.13851,-3.26352c-0.72166,-3.39938 -1.63443,-7.70726 1.68059,-9.75769c1.82689,-0.36538 3.35379,-1.25608 5.34674,-1.06518c1.60548,0.15379 3.28725,1.42192 4.70932,2.1314c1.6303,0.81337 3.39461,1.48863 4.90632,2.52562c1.06453,0.73025 1.91885,1.94858 2.94395,2.77051c0,0 0.49804,0.39982 0.98886,0.10387c0.41231,0.34193 0.82746,0.68775 1.24619,1.02234c0.9416,0.75241 0.87458,1.19444 2.02691,1.78113c0.93415,0.4756 1.92792,0.74398 2.95001,0.88934c-0.87163,1.14996 -1.99325,2.49307 -3.1287,3.24895c-0.78196,-0.36971 -1.17414,0.4148 -1.17414,0.4148l-0.28108,0.77276c0,0.09429 0.00038,0.18979 0.0019,0.28515c-2.26626,2.13211 -5.03674,3.15141 -8.30805,3.47731c-0.40287,0.04014 -2.8928,0.79105 -3.18487,0.44197c-0.48453,-0.5791 -0.24771,-2.91074 -0.80352,-3.72901c-0.46125,-0.67905 -1.62849,-1.2758 -2.31998,-1.68093c-0.69069,-0.12374 -1.43686,-0.15443 -2.1914,-0.15283c-0.01012,-0.08414 -0.03363,-0.17588 -0.07269,-0.27355c-0.33187,-0.82967 -1.16309,-0.50115 -1.16309,-0.50115c-0.49141,0.19809 -0.97613,0.45942 -1.44518,0.77254z" fill="#ffffff" stroke="none" stroke-width="0.5" stroke-linecap="butt"/><path d="M332.56411,236.13224c2.44466,0.62222 4.70435,1.80783 7.16327,2.42212c3.82687,0.95604 8.28115,1.2627 11.87954,2.91302c0.8254,0.37855 1.28184,1.62967 1.71245,2.33827c1.37522,1.38595 3.77128,2.8018 4.7297,4.49809c0.98576,1.74466 -1.86927,4.36207 -2.29297,5.84753c-0.20628,0.72321 -0.04583,3.0181 -0.87828,3.54303c-0.46018,0.29018 -2.91573,-0.19012 -3.51021,-0.29084c-4.11282,-0.50699 -8.67165,-1.78062 -12.3412,-3.62052c-1.81122,-0.90813 -3.72411,-1.61999 -5.70666,-2.09249c-0.4771,-0.1137 -0.96336,-0.54171 -1.42404,-0.37338c-1.81093,0.66171 -1.23558,2.62352 -0.9316,3.87834c1.53021,1.16812 2.36605,0.80959 4.10553,1.14582c1.60761,0.31074 3.16868,1.27409 4.69697,1.82413c3.54591,1.27619 8.20245,1.95372 11.18359,4.45666c0.5933,0.49813 0.94685,1.71814 1.33879,2.37137c0.42077,1.03264 1.41559,1.62672 1.85483,2.41329c0.45544,0.81561 -0.49391,2.12595 -0.75955,2.75995c-0.36859,0.87968 0.03773,1.92008 -0.34417,2.72542c-0.32164,0.67828 -2.02403,0.71512 -2.6481,0.64616c-2.36248,-0.26104 -4.74911,-0.18671 -7.13709,-0.18671c-2.66404,0 -5.52115,0.35248 -7.97136,-0.84017c-0.34823,-0.1695 -1.53962,-1.44813 -1.68249,-1.56255c-2.1664,-1.73503 -4.1938,-3.68167 -6.59503,-5.0717c-1.22994,-0.71199 -1.18447,-1.39791 -2.6885,-1.7722l-0.51802,-0.29375c0,0 -0.67271,-0.33536 -1.0925,0.22311c-0.4549,-0.20486 -0.90952,-0.40714 -1.35531,-0.60974c-1.15512,-0.52499 -2.13819,-1.23924 -3.43589,-1.37263c-2.25986,-0.23228 -4.08501,0.74904 -6.16603,1.16525c-4.31857,2.53672 -3.69542,7.31966 -2.74734,11.70776c0.29378,1.35969 0.79931,3.88927 2.19732,4.53146c0.13048,0.05993 0.25229,0.17936 0.40325,0.22217c-0.73592,0.79557 -1.37737,1.71479 -1.8667,2.69628c-4.67834,-0.62945 -6.72204,-5.60662 -10.7656,-7.79683c-1.26635,-0.68592 -2.63573,-0.42718 -3.96767,-0.96518c-6.54248,-3.18886 -8.91386,-12.18256 -8.94259,-18.94985c0.21859,-1.09294 0.01081,-2.60127 0.482,-3.62016c0.66496,-1.43788 1.74344,-2.25155 1.9266,-3.98776c0.5038,-4.77572 0.06297,-9.54326 0.74471,-14.31539c-0.01405,-7.27382 5.10893,-14.40074 10.05307,-19.40026c3.17678,-1.88653 6.5503,-3.75308 9.17574,-6.38135c1.23989,-1.24123 2.02395,-3.84988 3.51803,-4.67455c1.34238,-0.74094 2.81391,0.09347 4.20071,0.11387c3.06038,0 6.13572,0.37053 9.27824,0.37053c0.7495,0 2.74575,-0.35653 3.41998,0.04817c0.55586,0.33365 0.71913,2.02535 0.5428,2.55434c-0.31575,0.94725 -1.6982,1.77153 -2.29014,2.54775c-1.17533,1.76275 -2.0187,4.70087 -3.83751,5.88862c-3.35694,2.19219 -7.38322,4.58439 -10.0097,7.77793c-1.38194,1.6803 -2.76608,4.46486 -0.07683,5.39747c2.27313,1.74839 5.22215,3.07269 7.69849,4.57639c1.08657,0.6598 1.69869,1.67252 2.86176,2.26379c2.50614,1.27405 5.30077,1.95611 8.03244,2.50245c0,0 0.46311,0.09316 0.78329,-0.19253z" fill="#ffffff" stroke="none" stroke-width="0.5" stroke-linecap="butt"/></g></g></svg>