<svg version="1.1" xmlns="http://www.w3.org/2000/svg" xmlns:xlink="http://www.w3.org/1999/xlink" width="184.04788" height="292.61524" viewBox="0,0,184.04788,292.61524"><defs><linearGradient x1="319.6716" y1="104.15144" x2="319.6716" y2="132.1582" gradientUnits="userSpaceOnUse" id="color-1"><stop offset="0" stop-color="#7d542d"/><stop offset="1" stop-color="#000000"/></linearGradient><linearGradient x1="273.92924" y1="113.09781" x2="290.39122" y2="192.97764" gradientUnits="userSpaceOnUse" id="color-2"><stop offset="0" stop-color="#996237"/><stop offset="1" stop-color="#6f5927"/></linearGradient><linearGradient x1="366.15339" y1="115.20929" x2="350.63322" y2="197.05892" gradientUnits="userSpaceOnUse" id="color-3"><stop offset="0" stop-color="#996237"/><stop offset="1" stop-color="#6f5927"/></linearGradient><linearGradient x1="321.8687" y1="62.69014" x2="321.8687" y2="109.44236" gradientUnits="userSpaceOnUse" id="color-4"><stop offset="0" stop-color="#7d542d"/><stop offset="1" stop-color="#3b2815"/></linearGradient></defs><g transform="translate(-227.59839,-61.89568)"><g stroke-miterlimit="10"><path d="M409.1725,118.15482c0,7.73386 -40.07092,14.00338 -89.5009,14.00338c-49.42998,0 -89.5009,-6.26952 -89.5009,-14.00338c0,-2.87818 5.54975,-5.55356 15.06627,-7.77845c3.72565,-0.87103 8.05928,-1.67301 12.90589,-2.39109c16.03897,-2.37636 37.696,-3.83384 61.52874,-3.83384c49.42998,0 89.5009,6.26953 89.5009,14.00338z" fill="url(#color-1)" stroke="#000000" stroke-width="2.5" stroke-linecap="butt"/><path d="M270.5021,114.10094c8.29065,-0.24685 17.47465,0.03127 24.0358,3.15704c6.69416,3.18913 10.87745,8.96533 12.6164,15.03946c1.17014,4.08733 4.42341,7.7616 5.85839,11.62374c2.03066,5.46542 2.05959,11.1687 2.62924,16.99867c0.99494,10.18238 -11.33026,20.67109 -21.02818,27.43613c-1.62696,1.13491 -6.08623,5.40216 -8.00269,5.71321c-1.95442,0.31721 -3.63169,-4.97149 -3.9538,-6.03708c-1.73675,-5.74526 -2.02347,-11.89764 0.97354,-18.42329c0.57677,-1.25585 4.23779,-6.70733 3.05729,-7.6909c-0.68217,-0.56838 -4.38407,1.3926 -5.22767,1.7168c-5.163,1.98417 -10.23091,4.98168 -14.72075,7.8277c-0.73296,0.46462 -3.51839,3.40065 -4.5482,3.04991c-1.64198,-0.55926 0.41711,-6.3832 0.70397,-7.6465c1.74487,-7.68401 4.07146,-15.79673 9.05352,-23.16554c1.63758,-2.42206 3.40753,-4.92565 5.15748,-7.34892c0.19691,-0.27267 0.79068,-0.56175 0.64718,-0.79769c-0.45715,-0.75171 -6.51499,2.17548 -7.26866,2.56341c-4.7496,2.4447 -10.88759,4.76019 -15.27851,8.36027c-0.60696,0.49765 -5.64986,4.49175 -6.1236,4.51682c-0.36065,0.01909 -0.47204,-0.38031 -0.5386,-0.64759c-0.72545,-2.9133 0.9108,-7.17659 1.62873,-10.33801c1.96359,-8.64678 5.64665,-15.7886 14.61213,-22.35462c1.65548,-1.21243 2.38742,-2.32968 4.52187,-2.93192z" fill="url(#color-2)" stroke="#000000" stroke-width="2.5" stroke-linecap="round"/><path d="M370.78563,117.5665c2.13738,0.93283 2.8807,2.21216 4.54697,3.72083c9.02384,8.17042 12.78157,16.20898 14.84019,25.59263c0.75268,3.43084 2.43452,8.1508 1.74366,11.11846c-0.06338,0.27228 -0.17002,0.67745 -0.53021,0.60692c-0.47315,-0.09262 -5.5523,-5.00528 -6.16381,-5.61437c-4.42388,-4.40641 -10.57695,-7.70375 -15.34565,-10.94317c-0.7567,-0.51403 -6.83676,-4.4446 -7.28449,-3.71661c-0.14053,0.2285 0.45542,0.61604 0.65508,0.93082c1.77437,2.79747 3.56962,5.68234 5.23179,8.46284c5.05694,8.45927 7.47179,17.33103 9.30109,25.66983c0.30075,1.37094 2.42247,7.79413 0.78992,8.15376c-1.0239,0.22555 -3.83767,-3.25686 -4.57458,-3.84879c-4.514,-3.62584 -9.60674,-7.49211 -14.78284,-10.30414c-0.84575,-0.45948 -4.56317,-3.04281 -5.2376,-2.53942c-1.16709,0.87112 2.54937,7.1259 3.1394,8.52952c3.06592,7.29355 2.84991,13.73484 1.18193,19.5445c-0.30937,1.07753 -1.92318,6.41454 -3.87761,5.80714c-1.91647,-0.59559 -6.4162,-5.7144 -8.05309,-7.13743c-9.75718,-8.48247 -22.17927,-21.25504 -21.30234,-31.84277c0.50209,-6.06206 0.4659,-12.06626 2.43044,-17.54002c1.38826,-3.86802 4.59358,-7.28397 5.71493,-11.42627c1.66642,-6.1558 5.77609,-11.65606 12.42149,-14.07989c6.51335,-2.37568 15.67722,-1.38479 23.95536,0.03427z" fill="url(#color-3)" stroke="#000000" stroke-width="2.5" stroke-linecap="round"/><path d="M272.07617,349.57532l-2.18577,-147.27579c0,0 6.80068,-25.69821 16.86937,-26.10344c9.99903,-0.40242 33.69959,-0.95905 54.40142,-1.79223c22.45357,-0.90368 29.44894,25.97468 29.44894,25.97468l0.24364,152.83541z" fill="#7d5e41" stroke="#000000" stroke-width="2.5" stroke-linecap="butt"/><path d="M299.31626,182.0863l21.80597,-16.98402l20.18065,21.4875l-20.92336,18.30794z" fill="#f5c06a" stroke="#000000" stroke-width="2.5" stroke-linecap="butt"/><path d="M375.32626,134.94865c-1.94104,28.48816 -27.92848,52.9286 -58.11114,50.8721c-30.18266,-2.05649 -53.13099,-29.83117 -51.18995,-58.31932c1.94104,-28.48815 27.98246,-49.91526 58.16512,-47.85875c30.18266,2.05649 53.07703,26.81782 51.13599,55.30597z" fill="#f5c06a" stroke="#000000" stroke-width="2.5" stroke-linecap="butt"/><path d="M334.87549,125.98248c0.05472,2.70829 -6.552,5.03817 -14.75651,5.20393c-8.20452,0.16577 -14.89995,-1.89536 -14.95466,-4.60365c-0.05472,-2.70829 6.552,-5.03817 14.75651,-5.20393c8.20452,-0.16577 14.89995,1.89536 14.95466,4.60365z" fill-opacity="0.18431" fill="#520000" stroke="none" stroke-width="0" stroke-linecap="butt"/><path d="M374.14437,89.65903c0,5.15515 3.65593,16.38216 -0.50716,18.49516c-8.92836,4.53164 -32.15425,-4.34865 -52.08151,-4.34865c-20.46277,0 -41.85235,7.3486 -50.74588,2.38729c-3.80558,-2.12296 -2.47638,-11.67575 -2.47638,-16.5338c0,-10.68042 10.2814,-20.02854 25.65256,-25.16394c7.95976,-2.6593 14.89989,1.42797 24.86843,1.42797c8.07518,0 18.11228,-4.61314 24.95914,-2.81824c17.9275,4.6997 30.33081,14.82331 30.33081,26.55421z" fill="url(#color-4)" stroke="#000000" stroke-width="2.5" stroke-linecap="butt"/><path d="M296.48706,124.24917c0.1182,2.23173 -1.77167,4.14608 -4.22113,4.27582c-2.44947,0.12973 -4.53097,-1.57429 -4.64917,-3.80602c-0.1182,-2.23174 1.77167,-4.14609 4.22113,-4.27583c2.44947,-0.12973 4.53097,1.57429 4.64917,3.80603z" fill="#ffffff" stroke="#000000" stroke-width="2.5" stroke-linecap="butt"/><path d="M351.20845,124.74853c0.1182,2.23173 -1.77167,4.14608 -4.22113,4.27582c-2.44947,0.12973 -4.53097,-1.57429 -4.64917,-3.80602c-0.1182,-2.23174 1.77167,-4.14609 4.22113,-4.27583c2.44947,-0.12973 4.53097,1.57429 4.64917,3.80603z" fill="#ffffff" stroke="#000000" stroke-width="2.5" stroke-linecap="butt"/><path d="M270.77866,99.11678l31.88126,-3.777l13.34489,0.92133l4.85872,-1.84656l13.78616,-1.98501l7.10819,0.00012l-3.38138,1.08976l-9.24399,3.16881l-2.61383,0.81414l7.07091,-0.53912l10.0701,-1.16766l11.40961,-0.19512l6.22959,-0.29456l-2.71806,0.69938l-9.07154,2.29902l-0.68427,0.3773l5.20197,0.23596l16.4666,1.25539l4.50213,1.32283l0.97586,0.19606l-3.08091,0.02889l-11.37732,0.32563l-4.16469,0.08584l2.9445,0.55653l9.75698,2.98179l0.82438,0.32448l-1.03786,0.05067l-8.15996,-0.22792l-1.04603,-0.01739l-3.12386,-0.09404l4.08552,0.47084l9.25845,3.18026l0.81856,0.32801l-1.0457,0.00028l-10.80542,-1.94913l-34.05066,-7.50086l-9.25483,0.14579l-29.84379,0.94684l-15.17309,0.76744l-1.17445,-2.88964z" fill="#ffad00" stroke="#000000" stroke-width="2.5" stroke-linecap="round"/><path d="M410.39628,115.44583c0,2.69767 -4.46771,3.19368 -12.28389,2.65687c-15.61028,-1.0721 -44.57663,-6.2638 -77.98293,-6.2638c-50.13306,0 -91.28106,11.69233 -91.28106,3.60693c0,-8.0854 40.64088,-14.63989 90.77394,-14.63989c50.13306,0 90.77394,6.5545 90.77394,14.63989z" fill="#7d542d" stroke="#000000" stroke-width="2.5" stroke-linecap="butt"/><path d="M280.00432,122.79022c0,0 7.16927,-3.1404 11.77426,-3.21125c4.68081,-0.07201 16.08686,2.78261 16.08686,2.78261" fill="none" stroke="#000000" stroke-width="2.5" stroke-linecap="round"/><path d="M268.39812,92.389v-5.9493c0,0 34.46846,-2.06932 51.99172,-2.06932c17.73881,0 53.80238,2.06932 53.80238,2.06932v5.9493c0,0 -36.02173,-2.58665 -53.80238,-2.58665c-17.47889,0 -51.99172,2.58665 -51.99172,2.58665z" fill="#ffffff" stroke="#000000" stroke-width="2.5" stroke-linecap="butt"/><path d="M298.44678,177.46634h41.42205" fill="none" stroke="#000000" stroke-width="2.5" stroke-linecap="round"/><path d="M302.03452,173.55244l-6.52316,4.89237" fill="none" stroke="#000000" stroke-width="2.5" stroke-linecap="round"/><path d="M322.5545,205.51977l0.44131,146.51368" fill="none" stroke="#000000" stroke-width="2.5" stroke-linecap="round"/><path d="M330.49802,206.84369l-0.4413,7.50221" fill="none" stroke="#000000" stroke-width="2.5" stroke-linecap="round"/><path d="M330.93932,229.79162l0.4413,8.82612" fill="none" stroke="#000000" stroke-width="2.5" stroke-linecap="round"/><path d="M331.38063,267.30265v13.23919" fill="none" stroke="#000000" stroke-width="2.5" stroke-linecap="round"/><path d="M331.38063,299.51801l-0.4413,11.47396" fill="none" stroke="#000000" stroke-width="2.5" stroke-linecap="round"/><path d="M267.39122,307.90283v-17.21094c0,0 36.84968,3.97175 54.72198,3.97175c18.0194,0 52.95675,-3.97175 52.95675,-3.97175v17.21094c0,0 -34.39634,5.73698 -51.63283,5.73698c-18.55861,0 -56.0459,-5.73698 -56.0459,-5.73698z" fill="#624122" stroke="#000000" stroke-width="2.5" stroke-linecap="butt"/><path d="M347.66555,212.31098l-9.74333,0.82922l9.32872,5.38993l-3.10958,11.40177l9.32872,-7.04837l6.84106,6.84106l-0.62192,-10.15794l6.21914,-7.04836h-6.84106l-6.01184,-9.95064z" fill="#ffffff" stroke="#000000" stroke-width="2.5" stroke-linecap="round"/><path d="M350.62115,215.7318l2.53263,-10.22794l2.33781,10.22794l7.11086,-1.85077l-5.74713,4.48081l2.143,8.18234l-5.55231,-7.40307l-7.20826,8.08494l3.79895,-8.86421l-7.01344,-4.48081z" fill-opacity="0.33725" fill="#000000" stroke="#000000" stroke-width="0" stroke-linecap="round"/></g></g></svg>