<svg version="1.1" xmlns="http://www.w3.org/2000/svg" xmlns:xlink="http://www.w3.org/1999/xlink" width="202.82828" height="284.90611" viewBox="0,0,202.82828,284.90611"><defs><linearGradient x1="341.1584" y1="174.92721" x2="333.92524" y2="353.61324" gradientUnits="userSpaceOnUse" id="color-1"><stop offset="0" stop-color="#fbc74c"/><stop offset="1" stop-color="#fa954b"/></linearGradient><linearGradient x1="340.96638" y1="169.93892" x2="343.7023" y2="203.18526" gradientUnits="userSpaceOnUse" id="color-2"><stop offset="0" stop-color="#fbc74c"/><stop offset="1" stop-color="#fa8c4b"/></linearGradient></defs><g transform="translate(-234.22893,-72.14895)"><g stroke-miterlimit="10"><path d="M288.58165,128.0305c0,0 -15.37939,-7.17531 -21.49357,-12.35771c-6.47821,-5.49095 -16.3468,-19.71597 -16.3468,-19.71597c0,0 7.89572,6.76661 13.72626,7.24948c9.38088,0.7769 36.3657,0.28967 36.3657,0.28967z" fill="#ffe23b" stroke="#000000" stroke-width="2.5" stroke-linecap="butt"/><path d="M278.531,140.75907c0,0 -13.4642,-10.33082 -18.31325,-16.71262c-5.13775,-6.76176 -11.69727,-22.78401 -11.69727,-22.78401c0,0 6.24592,8.31372 11.83413,10.04581c8.99101,2.78681 35.44288,8.1456 35.44288,8.1456z" fill="#ffe23b" stroke="#000000" stroke-width="2.5" stroke-linecap="butt"/><path d="M374.22485,105.86233c0,0 26.85715,2.66674 36.27013,2.65061c5.85048,-0.01003 14.2673,-6.11631 14.2673,-6.11631c0,0 -10.98607,13.38082 -17.8869,18.3302c-6.51306,4.67126 -22.42208,10.58002 -22.42208,10.58002z" fill="#ffe23b" stroke="#000000" stroke-width="2.5" stroke-linecap="butt"/><path d="M284.52338,347.97186l3.71432,-147.24605c0,0 8.01654,-25.39475 18.36286,-25.38149c10.27475,0.01317 34.61278,0.44128 55.88545,0.46853c23.07271,0.02956 29.16245,27.17644 29.16245,27.17644l-5.9317,152.72046z" fill="url(#color-1)" stroke="#000000" stroke-width="2.5" stroke-linecap="butt"/><path d="M375.46196,122.11313c0,0 26.79846,-3.20324 35.9853,-5.25421c5.70993,-1.27475 12.60739,-9.05643 12.60739,-9.05643c0,0 -7.83307,15.43965 -13.50055,21.76401c-5.349,5.96898 -19.60416,15.17774 -19.60416,15.17774z" fill="#ffe23b" stroke="#000000" stroke-width="2.5" stroke-linecap="butt"/><path d="M381.82895,119.91137c0,0 20.72185,22.63413 28.70585,29.7618c4.96233,4.43009 16.72307,5.64433 16.72307,5.64433c0,0 -19.45559,2.99727 -29.05478,1.9534c-9.05978,-0.98522 -27.01576,-8.05083 -27.01576,-8.05083z" fill="#ffe23b" stroke="#000000" stroke-width="2.5" stroke-linecap="butt"/><path d="M300.35634,146.95735c0,0 -18.46833,5.59117 -27.5781,5.8409c-9.65216,0.26458 -28.80183,-4.29542 -28.80183,-4.29542c0,0 11.82041,-0.25968 17.12457,-4.27418c8.53398,-6.45903 31.01748,-27.3442 31.01748,-27.3442z" fill="#ffe23b" stroke="#000000" stroke-width="2.5" stroke-linecap="butt"/><path d="M379.81689,152.20279c0,0 8.41045,17.36675 10.08168,26.3254c1.77072,9.49203 0.26143,29.11919 0.26143,29.11919c0,0 -2.10495,-11.63438 -6.89952,-16.2455c-7.71409,-7.41893 -31.85829,-26.35981 -31.85829,-26.35981z" fill="#ffe23b" stroke="#000000" stroke-width="2.5" stroke-linecap="butt"/><path d="M315.38734,172.50687c10.32934,-3.72201 22.71577,-2.44047 34.14238,-1.97793c4.64192,0.1879 10.44657,-0.49505 14.91585,1.41536c3.47696,1.48625 9.55036,1.71819 12.22938,4.38636c2.79976,2.78843 -1.21415,7.59577 -2.92477,9.16591c-5.77663,5.30226 -10.56353,16.89347 -18.57186,18.3567c-9.18171,1.67762 -30.56679,-13.89226 -38.51138,-19.39159c-1.45813,-1.00933 -10.47592,-5.33807 -10.93478,-6.17492c-0.879,-1.60303 7.31741,-5.71276 8.8191,-6.16757z" fill="url(#color-2)" stroke="#000000" stroke-width="2.5" stroke-linecap="round"/><path d="M318.16503,161.71625c0,0 -25.59612,16.92741 -33.88463,23.69856c-5.15158,4.2085 -8.19002,15.63468 -8.19002,15.63468c0,0 0.08206,-19.68494 2.61419,-29.0028c2.38986,-8.79425 12.17649,-25.42441 12.17649,-25.42441z" fill="#ffe23b" stroke="#000000" stroke-width="2.5" stroke-linecap="butt"/><path d="M399.34142,133.91777c-1.13262,27.98 -26.41598,52.6231 -56.64386,51.39948c-30.22788,-1.22362 -53.95361,-27.8506 -52.82099,-55.83058c1.13262,-27.97999 26.55534,-49.67031 56.78323,-48.4467c30.22788,1.22362 53.81425,24.89782 52.68163,52.8778z" fill="#ffec7f" stroke="#000000" stroke-width="2.5" stroke-linecap="butt"/><path d="M360.64969,130.17752c-0.10956,2.70662 -6.84537,4.63171 -15.04484,4.2998c-8.19948,-0.33191 -14.75764,-2.79513 -14.64808,-5.50176c0.10956,-2.70662 6.84537,-4.63171 15.04484,-4.2998c8.19948,0.33191 14.75764,2.79513 14.64808,5.50176z" fill-opacity="0.18431" fill="#ff0505" stroke="none" stroke-width="0" stroke-linecap="butt"/><path d="M382.26674,125.49947c-0.09039,2.23304 -2.15051,3.96284 -4.60141,3.86363c-2.45089,-0.09921 -4.36446,-1.98988 -4.27407,-4.22291c0.09039,-2.23303 2.15051,-3.96284 4.60141,-3.86363c2.45089,0.09921 4.36446,1.98988 4.27407,4.22291z" fill="#ffffff" stroke="#000000" stroke-width="2.5" stroke-linecap="butt"/><path d="M328.87332,124.02985c-0.09039,2.23303 -2.15051,3.96284 -4.60141,3.86363c-2.45089,-0.09921 -4.36446,-1.98988 -4.27407,-4.22291c0.09039,-2.23304 2.15051,-3.96285 4.60141,-3.86364c2.45089,0.09921 4.36446,1.98988 4.27406,4.22292z" fill="#ffffff" stroke="#000000" stroke-width="2.5" stroke-linecap="butt"/><path d="M346.58792,84.41083c6.11385,0.24749 11.58826,-0.20754 16.7207,-3.85022c2.41963,-1.71728 5.59685,-6.85407 8.66979,-7.16166c2.53024,-0.25327 2.74273,4.46024 4.89568,5.23654c4.00258,1.44324 10.90654,-0.78109 14.84604,-1.77932c1.19378,-0.30249 4.99153,-1.95556 6.10046,-1.30095c1.94265,1.14679 -1.75805,6.79847 -2.56633,7.94489c-2.9127,4.13125 -3.95833,12.99005 -12.01275,18.20993c-5.07895,3.29155 -17.50978,3.70673 -20.56091,5.08371" fill="#ffec7f" stroke="#000000" stroke-width="2.5" stroke-linecap="round"/><path d="M343.30161,185.34183l8.09829,17.55907c0,0 3.80197,52.75946 2.73882,72.7989c-1.05079,19.80647 -5.1566,49.32309 -5.1566,49.32309l-12.75002,25.67942" fill="none" stroke-opacity="0.61176" stroke="#000000" stroke-width="2.5" stroke-linecap="round"/><path d="M369.12579,132.25218l10.24991,-1.04333" fill="none" stroke="#000000" stroke-width="2.5" stroke-linecap="round"/><path d="M311.21665,128.44979l10.13204,1.86839" fill="none" stroke="#000000" stroke-width="2.5" stroke-linecap="round"/><path d="M346.37748,174.35895c-0.19431,4.80024 -1.46365,8.64663 -2.83516,8.5911c-1.37151,-0.05551 -2.32579,-3.99191 -2.13148,-8.79216c0.19431,-4.80024 1.46366,-8.64661 2.83515,-8.59109c1.37151,0.05551 2.32579,3.99189 2.13148,8.79215z" fill="none" stroke="#000000" stroke-width="2.5" stroke-linecap="butt"/><g stroke="#000000" stroke-width="2.5" stroke-linecap="butt"><path d="M364.16073,209.70976c0.12063,-1.10173 0.22664,-1.51599 0.5432,-2.1233c0.03641,-0.06985 0.07358,-0.13824 0.11151,-0.20517c0.00675,-0.01239 0.01352,-0.0246 0.02033,-0.03664c0.13045,-0.23058 0.27185,-0.44178 0.42232,-0.63391c0.43829,-0.56834 0.95065,-0.98297 1.52736,-1.23409c0.57129,-0.24874 0.86304,-0.36055 1.70795,-0.23398c0.09386,0.01149 0.18721,0.02712 0.27983,0.04689c0.69731,0.12912 0.94723,0.28044 1.30575,0.60118c0.7109,0.5364 1.27441,1.38708 1.53219,2.52699l0.11399,0.50406l0.2249,-0.44595c0.50859,-1.00849 1.24468,-1.63635 2.05046,-1.91269c0.41787,-0.18762 0.69261,-0.24897 1.39212,-0.13859c0.0935,0.01214 0.18677,0.0285 0.27957,0.04902c0.84072,0.16246 1.09543,0.36797 1.58736,0.79901c0.49659,0.43515 0.89393,1.00574 1.18492,1.69912c0.10059,0.23518 0.18811,0.48565 0.26066,0.75105c0.00379,0.01385 0.00751,0.02787 0.01115,0.04204c0.02112,0.07705 0.04118,0.15525 0.06017,0.2346c0.16513,0.68991 0.17215,1.12354 0.03587,2.22259c-0.00281,0.02267 -0.00568,0.04527 -0.0086,0.06779c-0.08695,0.85912 -0.2696,1.71258 -0.52658,2.31646c-0.71109,1.67091 -1.8334,2.84528 -4.31436,4.51435c-1.62705,1.09463 -3.52432,2.84761 -3.67207,3.11417c-0.08021,0.1447 -0.19078,0.12574 -0.23472,-0.04024c-0.08094,-0.30578 -1.50248,-2.62782 -2.81513,-4.2265c-2.00154,-2.43767 -2.81101,-3.94327 -3.11172,-5.78766c-0.10867,-0.66658 -0.08881,-1.54795 0.02431,-2.40258c0.00235,-0.02263 0.00478,-0.0453 0.00726,-0.06802z" fill="#ffde00"/><path d="M369.32395,215.18088c0.12063,-1.10173 0.22663,-1.516 0.5432,-2.12331c0.03641,-0.06985 0.07358,-0.13824 0.11151,-0.20516c0.00675,-0.01239 0.01352,-0.0246 0.02033,-0.03663c0.13045,-0.23058 0.27186,-0.44179 0.42233,-0.63392c0.43829,-0.56834 0.95064,-0.98297 1.52735,-1.23409c0.57129,-0.24874 0.86304,-0.36055 1.70795,-0.23398c0.09386,0.01149 0.18722,0.02713 0.27983,0.0469c0.69731,0.12912 0.94723,0.28043 1.30575,0.60117c0.7109,0.5364 1.27441,1.38709 1.53219,2.52699l0.11399,0.50405l0.2249,-0.44594c0.50859,-1.00849 1.24468,-1.63635 2.05047,-1.91268c0.41787,-0.18762 0.69261,-0.24897 1.39211,-0.13859c0.0935,0.01214 0.18677,0.0285 0.27958,0.04902c0.84072,0.16246 1.09543,0.36797 1.58736,0.79901c0.49659,0.43515 0.89393,1.00574 1.18492,1.69912c0.10059,0.23518 0.18811,0.48566 0.26066,0.75106c0.00379,0.01385 0.0075,0.02787 0.01114,0.04204c0.02112,0.07705 0.04119,0.15525 0.06017,0.23459c0.16513,0.68991 0.17214,1.12355 0.03587,2.2226c-0.00281,0.02267 -0.00567,0.04526 -0.00859,0.06779c-0.08694,0.85911 -0.2696,1.71258 -0.52658,2.31646c-0.71109,1.67091 -1.8334,2.84527 -4.31436,4.51435c-1.62706,1.09464 -3.52432,2.84761 -3.67207,3.11418c-0.08021,0.1447 -0.19078,0.12574 -0.23472,-0.04025c-0.08094,-0.30578 -1.50248,-2.62781 -2.81512,-4.2265c-2.00154,-2.43767 -2.81101,-3.94327 -3.11172,-5.78766c-0.10867,-0.66658 -0.08881,-1.54795 0.02431,-2.40258c0.00235,-0.02263 0.00478,-0.04529 0.00726,-0.06802z" fill="#ffce4e"/></g></g></g></svg>