<svg version="1.1" xmlns="http://www.w3.org/2000/svg" xmlns:xlink="http://www.w3.org/1999/xlink" width="171.60385" height="311.63898" viewBox="0,0,171.60385,311.63898"><defs><linearGradient x1="316.27199" y1="181.42349" x2="326.54178" y2="359.97291" gradientUnits="userSpaceOnUse" id="color-1"><stop offset="0" stop-color="#060606"/><stop offset="1" stop-color="#212121"/></linearGradient><linearGradient x1="280.62016" y1="174.75619" x2="291.36092" y2="361.49379" gradientUnits="userSpaceOnUse" id="color-2"><stop offset="0" stop-color="#2e65d1"/><stop offset="1" stop-color="#002994"/></linearGradient><linearGradient x1="349.97194" y1="171.7178" x2="360.71272" y2="358.45546" gradientUnits="userSpaceOnUse" id="color-3"><stop offset="0" stop-color="#2d63d1"/><stop offset="1" stop-color="#002994"/></linearGradient><linearGradient x1="316.56657" y1="180.95934" x2="317.85889" y2="203.42742" gradientUnits="userSpaceOnUse" id="color-4"><stop offset="0" stop-color="#222222"/><stop offset="1" stop-color="#bebebe"/></linearGradient><linearGradient x1="271.40738" y1="93.99994" x2="317.02601" y2="190.16378" gradientUnits="userSpaceOnUse" id="color-5"><stop offset="0" stop-color="#1e1e1e"/><stop offset="1" stop-color="#bebebe"/></linearGradient><radialGradient cx="270.54752" cy="106.37302" r="82.17255" gradientUnits="userSpaceOnUse" id="color-6"><stop offset="0" stop-color="#717171"/><stop offset="1" stop-color="#4b4b4b"/></radialGradient><linearGradient x1="289.54847" y1="33.11461" x2="297.07343" y2="51.32978" gradientUnits="userSpaceOnUse" id="color-7"><stop offset="0" stop-color="#000000" stop-opacity="0.19216"/><stop offset="1" stop-color="#a9a9a9" stop-opacity="0.21961"/></linearGradient><linearGradient x1="292.93552" y1="39.47103" x2="298.58966" y2="53.15767" gradientUnits="userSpaceOnUse" id="color-8"><stop offset="0" stop-color="#000000" stop-opacity="0.19216"/><stop offset="1" stop-color="#a9a9a9" stop-opacity="0.21961"/></linearGradient><linearGradient x1="230.3943" y1="99.45879" x2="250.65634" y2="131.51038" gradientUnits="userSpaceOnUse" id="color-9"><stop offset="0" stop-color="#000000" stop-opacity="0.19216"/><stop offset="1" stop-color="#a9a9a9" stop-opacity="0.21961"/></linearGradient><linearGradient x1="267.28387" y1="78.62666" x2="283.2299" y2="103.85095" gradientUnits="userSpaceOnUse" id="color-10"><stop offset="0" stop-color="#000000" stop-opacity="0.19216"/><stop offset="1" stop-color="#a9a9a9" stop-opacity="0.21961"/></linearGradient><linearGradient x1="254.7286" y1="65.13269" x2="274.12928" y2="104.05784" gradientUnits="userSpaceOnUse" id="color-11"><stop offset="0" stop-color="#696969"/><stop offset="1" stop-color="#212121"/></linearGradient></defs><g transform="translate(-208.58143,-52.30019)"><g stroke-miterlimit="10"><path d="M282.96531,358.83472l-10.40899,-146.9205c0,0 4.5976,-26.00513 13.56603,-26.92688c8.90639,-0.91536 30.03991,-2.68847 48.47957,-4.58364c19.99997,-2.05553 27.92542,14.68357 27.92542,14.68357l8.85896,162.3063z" fill="url(#color-1)" stroke="#000000" stroke-width="0" stroke-linecap="butt" stroke-linejoin="miter"/><path d="M269.98736,358.91138l-10.3177,-141.39453c0,0 1.56313,-17.31134 5.92499,-17.98674c4.33171,-0.67072 24.28572,-17.78538 33.25402,-19.17405c9.72719,-1.50616 -7.59835,19.57774 -7.59835,19.57774c0,0 2.79724,30.45559 5.78618,59.32017c1.61986,15.64313 3.296,30.81894 4.61372,40.42645c3.57086,26.03534 11.58617,60.55514 11.58617,60.55514c0,0 -25.23732,3.92873 -32.92217,3.69343c-6.54907,-0.20052 -10.32687,-5.01762 -10.32687,-5.01762z" fill="url(#color-2)" stroke="#000000" stroke-width="0" stroke-linecap="butt" stroke-linejoin="miter"/><path d="M340.44045,362.77745c0,0 3.56407,-36.05287 3.97482,-62.61537c0.43123,-27.88867 -1.44588,-100.9321 -1.44588,-100.9321c0,0 -18.2745,-16.37057 -9.15564,-17.35956c8.40744,-0.91183 29.75596,6.19255 33.81675,5.75212c4.08911,-0.44349 10.01912,19.23008 10.01912,19.23008l2.44918,143.62398c0,0 1.13271,6.07594 -4.80137,7.9165c-7.08148,2.19647 -34.85697,4.38434 -34.85697,4.38434z" fill="url(#color-3)" stroke="#000000" stroke-width="0" stroke-linecap="butt" stroke-linejoin="miter"/><path d="M330.3479,191.4379c0.35686,6.2044 -5.23467,11.57229 -12.489,11.98954c-7.25438,0.41725 -13.42447,-4.27414 -13.78132,-10.47852c-0.35686,-6.2044 5.23467,-11.57229 12.489,-11.98954c7.25438,-0.41725 13.42447,4.27414 13.78132,10.47852z" fill="url(#color-4)" stroke="#000000" stroke-width="0" stroke-linecap="butt" stroke-linejoin="miter"/><path d="M307.784,243.82687l26.97541,-1.28637" fill="none" stroke="#ffffff" stroke-width="2.5" stroke-linecap="round" stroke-linejoin="miter"/><path d="M320.12738,232.50928l1.44427,25.11" fill="none" stroke="#ffffff" stroke-width="2.5" stroke-linecap="round" stroke-linejoin="miter"/><path d="M330.14098,231.40296l-8.71894,9.78314" fill="none" stroke="#ffffff" stroke-width="2.5" stroke-linecap="round" stroke-linejoin="miter"/><path d="M329.40057,250.80443l-9.45802,-7.67689l-9.54924,-9.26279" fill="none" stroke="#ffffff" stroke-width="2.5" stroke-linecap="round" stroke-linejoin="miter"/><path d="M312.57558,253.3633l8.42423,-10.29658" fill="none" stroke="#ffffff" stroke-width="2.5" stroke-linecap="round" stroke-linejoin="miter"/><path d="M345.08127,242.1825l1.12048,-12.79357l14.8777,0.47022l0.62333,10.83695" fill="none" stroke-opacity="0.46667" stroke="#000000" stroke-width="2.5" stroke-linecap="round" stroke-linejoin="miter"/><path d="M354.62285,246.70178l1.43164,112.49122" fill="none" stroke-opacity="0.46667" stroke="#000000" stroke-width="2.5" stroke-linecap="round" stroke-linejoin="miter"/><path d="M284.44997,248.48421l12.7896,111.70501" fill="none" stroke-opacity="0.46667" stroke="#000000" stroke-width="2.5" stroke-linecap="round" stroke-linejoin="miter"/><path d="M279.9414,248.47834l-1.34025,-9.46975l11.64508,-0.40462l1.9601,11.02525" fill="none" stroke-opacity="0.46667" stroke="#000000" stroke-width="2.5" stroke-linecap="round" stroke-linejoin="miter"/><path d="M344.54646,120.66849c10.45639,26.57078 -2.54782,59.79085 -30.69906,70.86921c-28.15124,11.07837 -60.78921,-4.18015 -71.24559,-30.75092c-10.45638,-26.57077 3.8881,-57.09146 32.03936,-68.16979c28.15124,-11.07837 59.44892,1.48072 69.90531,28.05151z" fill="url(#color-5)" stroke="#000000" stroke-width="0" stroke-linecap="butt" stroke-linejoin="miter"/><path d="M302.29647,138.55345c12.33773,26.00785 14.2957,51.1202 14.2957,51.1202c0,0 -17.83147,-17.58222 -30.1692,-43.59005c-3.69665,-7.79252 -15.68789,-19.31904 -18.19418,-26.06068c-5.85855,-15.75883 0.7215,-23.33941 3.79151,-24.79576c2.89502,-1.37336 13.76135,0.41695 21.66486,13.4974c4.06319,6.72465 4.42215,20.99817 8.61133,29.82889z" fill-opacity="0.23529" fill="#000000" stroke="none" stroke-width="0" stroke-linecap="butt" stroke-linejoin="round"/><path d="M303.25443,121.27412c1.38629,2.32723 -3.20515,7.6183 -10.25533,11.81796c-7.05014,4.19965 -13.88924,5.71754 -15.27553,3.39028c-1.38629,-2.32723 3.20518,-7.6183 10.25533,-11.81795c7.05014,-4.19965 13.88924,-5.71752 15.27553,-3.39028z" fill-opacity="0.23137" fill="#000000" stroke="none" stroke-width="0" stroke-linecap="butt" stroke-linejoin="miter"/><path d="M271.13717,140.89001c1.00045,1.99844 0.0333,4.50861 -2.1601,5.60666c-2.19341,1.09803 -4.78253,0.36808 -5.78294,-1.63036c-1.00045,-1.99845 -0.0333,-4.50861 2.1601,-5.60666c2.19341,-1.09803 4.7825,-0.36809 5.78295,1.63037z" fill="#ffffff" stroke="#000000" stroke-width="2.5" stroke-linecap="butt" stroke-linejoin="miter"/><path d="M314.59094,112.93574c1.00045,1.99846 0.03331,4.50862 -2.1601,5.60667c-2.19341,1.09803 -4.78252,0.36807 -5.78295,-1.63037c-1.00045,-1.99844 -0.03331,-4.50861 2.1601,-5.60665c2.19341,-1.09803 4.78252,-0.36808 5.78295,1.63035z" fill="#ffffff" stroke="#000000" stroke-width="2.5" stroke-linecap="butt" stroke-linejoin="miter"/><path d="M263.9655,138.94364l2.32787,-2.73588l2.74149,-1.48181" fill="none" stroke="#000000" stroke-width="2.5" stroke-linecap="round" stroke-linejoin="miter"/><path d="M270.87922,144.72821l2.75664,-2.21415" fill="none" stroke="#000000" stroke-width="2.5" stroke-linecap="round" stroke-linejoin="miter"/><path d="M274.54651,140.99435l0.51978,-3.8723" fill="none" stroke="#000000" stroke-width="2.5" stroke-linecap="round" stroke-linejoin="miter"/><path d="M311.74361,120.8106l-3.86472,-0.88594l-6.38241,-3.13601" fill="none" stroke="#000000" stroke-width="2.5" stroke-linecap="round" stroke-linejoin="miter"/><path d="M268.34563,96.02532c22.25843,-10.55905 42.84178,-13.76592 45.97423,-7.16274c3.13244,6.60318 -12.3722,20.51593 -34.63063,31.07498c-22.25843,10.55905 -42.84179,13.76592 -45.97424,7.16274c-3.13244,-6.60318 12.37222,-20.51591 34.63064,-31.07498z" fill="#000000" stroke="none" stroke-width="0" stroke-linecap="butt" stroke-linejoin="miter"/><path d="M277.53608,106.25099l1.15887,-0.26615c1.41258,-0.38467 2.749,-0.90559 4.1363,-1.34706c0.61423,-0.42504 1.23596,-0.84109 1.86845,-1.24409c0.99345,-0.77493 2.01985,-1.58421 3.07767,-2.37445c-1.63787,-2.26705 -3.21855,-4.60208 -5.3342,-6.5245c-0.32101,0.09595 -0.6814,0.16984 -1.08313,0.22033c-0.5754,0.0723 -1.19044,0.08292 -1.82725,0.03858c7.98931,-0.93533 16.09286,-5.21272 23.22376,-9.61517c0.06141,0.42346 0.12048,0.84356 0.18037,1.25737c0.57383,0.48631 1.16879,0.94883 1.74647,1.43113l0,-0.00001c-0.21136,-0.60457 -0.38779,-1.24551 -0.53678,-1.77773c-0.45745,-0.30496 -0.91338,-0.61352 -1.36862,-0.924c2.69385,-1.66366 5.24866,-3.34473 7.60578,-4.86961c1.9045,-1.23207 4.13555,-2.31471 6.35007,-3.47758c0.07277,0.19456 0.14259,0.38961 0.20919,0.58515c0.26515,0.47894 0.53033,0.95794 0.79563,1.43693l-0.07998,0.13333l0.11717,-0.04291l0.7424,2.02739c0.18669,0.50984 0.02055,1.06278 -0.37428,1.39114c0.23123,0.61419 0.46112,1.22965 0.69013,1.84628c0.3849,0.8201 0.75789,1.64433 1.1164,2.47293c0.13633,0.26362 0.27136,0.52783 0.40512,0.79253c0.76158,1.24833 1.50502,2.48919 2.24202,3.69331c0.3065,0.72704 0.63468,1.44085 0.96987,2.14978c0.08806,0.03336 0.17697,0.066 0.26679,0.09781c1.12261,0.39772 2.06145,0.27664 3.02807,1.2048c1.60525,1.54136 2.54915,4.23513 3.53896,6.50189c0.21005,0.0979 0.39349,0.2541 0.52374,0.45751l0.7518,1.12488l-0.20825,0.13918l0.07485,0.18118c0.06423,0.15645 0.12724,0.31355 0.18907,0.47128c1.06625,1.36781 1.94005,3.0099 2.70088,4.75609c0.08286,-0.38941 0.34993,-0.7327 0.74569,-0.89619c0.63805,-0.2636 1.36898,0.03998 1.63256,0.67803l0.69309,1.67772l-0.3149,0.13009c1.48811,2.44557 2.40911,5.34559 2.54693,8.23949c0.05205,0.08403 0.10419,0.16802 0.15645,0.25196l-0.14134,0.19914c0.00469,0.2436 0.00376,0.48699 -0.00293,0.72989l-0.00002,0c1.94559,3.51281 3.72938,7.12981 5.61367,10.82904c0.27421,0.53835 0.62364,1.13993 0.9793,1.7768c-0.28988,-2.51831 -0.6039,-5.04713 -1.20457,-7.45338c-1.20251,-4.81733 -4.01266,-9.46607 -6.59077,-13.60172c0,0 -0.66071,-1.06112 0.4004,-1.72183c1.06112,-0.66071 1.72183,0.4004 1.72183,0.4004c2.69386,4.3318 5.59095,9.18978 6.86949,14.22643c1.02817,4.05034 1.26709,8.44259 1.86896,12.57701l-0.01488,0.07071l0.01917,-0.00063l0.0815,2.46947c0.02913,0.51613 -0.2663,1.01716 -0.77109,1.22569c-0.58118,0.2401 -1.23941,0.00964 -1.55134,-0.51554l-1.07479,-1.73975l0.3246,-0.20053c-2.75808,-3.80683 -4.28533,-8.68275 -6.37841,-12.89974c1.28824,4.10965 2.5881,8.1992 2.88231,12.37595l0.27911,-0.07123l0.52444,2.05504c0.16298,0.5986 -0.14097,1.23911 -0.72938,1.4822c-0.63805,0.2636 -1.36898,-0.03998 -1.63256,-0.67803l-0.57758,-1.39811c-1.24675,-3.01793 -2.32003,-6.06973 -3.39684,-9.12594c-0.09692,0.08226 -0.20816,0.15102 -0.33198,0.20217c-0.17091,0.0706 -0.34848,0.10053 -0.52196,0.09421c0.63581,1.73369 1.2973,3.45753 2.00292,5.1647c1.83796,4.44668 4.55986,9.21901 5.49935,14.0264l0.0648,0.10407l0.23349,-0.09646l0.61827,1.4966c0.2636,0.63805 -0.03998,1.36898 -0.67803,1.63256c-0.57989,0.23956 -1.23648,0.01066 -1.54925,-0.51203l-0.8489,-1.36337c-2.77317,-4.15498 -5.76269,-8.17001 -8.39034,-12.43112c0.86396,3.19211 1.76774,6.38294 2.7009,9.59211c0.42002,1.00104 0.8138,2.00613 1.14974,3.02544c0.30831,0.74552 0.61648,1.49108 0.9245,2.2367l0.82436,1.99548c0.2636,0.63805 -0.03998,1.36898 -0.67803,1.63256c-0.63805,0.2636 -1.36898,-0.03998 -1.63256,-0.67803l-0.82436,-1.99548c-0.10441,-0.25275 -0.20881,-0.5055 -0.3132,-0.75827c-1.46177,-1.82741 -2.23623,-5.41297 -2.98425,-7.22364c-2.58042,-6.24626 -5.16084,-12.49252 -7.74126,-18.73879c-0.18655,-0.10405 -0.3476,-0.25627 -0.46236,-0.44807l-0.85684,-1.37612l0.03705,-0.02308l-0.08793,-0.06669c-0.15376,-0.36996 -0.31201,-0.73684 -0.47305,-1.10138c-0.50366,-0.64358 -0.83682,-1.56554 -1.18764,-2.41839c0.44375,1.16588 0.93614,2.31424 1.41899,3.46987c0.00984,0.0205 0.01466,0.03215 0.01466,0.03215l-0.00095,0.00065c0.06928,0.1659 0.13835,0.33194 0.20704,0.49821l-1.25835,0.22784l-1.05225,0.7267c-0.06854,-0.16594 -0.13719,-0.33224 -0.20586,-0.49891l-0.00023,0.00003c0,0 -0.00158,-0.00383 -0.00435,-0.01118c-0.89062,-2.16187 -1.78582,-4.38594 -2.53888,-6.64951c-0.52721,0.4496 -1.20924,0.89944 -1.6489,0.68939c0.08547,0.23306 0.15462,0.46397 0.17035,0.61321c0.08742,0.82879 0.29552,1.64075 0.41196,2.46595c0.37991,2.69257 0.7891,4.81452 0.53085,7.19244l0.27765,0.00574l-0.0319,1.54028c0.00011,0.46789 -0.26368,0.9167 -0.71454,1.13057c-0.37901,0.17979 -0.80298,0.15221 -1.14371,-0.03704c0.12569,0.66987 0.19695,1.30183 0.20977,1.97135l0.24022,-0.02925l0.19755,1.62198c0.03419,0.23477 -0.00013,0.47161 -0.09333,0.68349c2.09808,2.98636 4.01805,6.03904 4.65262,9.55956l0.04943,0.08198l0.29369,-0.10134l11.42695,21.65141c0.2153,0.59803 -10.96886,-18.892 -11.55508,-18.61391c-0.59005,0.2799 12.3846,23.76628 12.06033,23.21336l-14.54071,-25.14702c-3.0311,-3.67181 -5.8006,-7.37838 -8.83263,-10.7961c1.94467,3.76096 3.44504,7.64415 4.67494,11.62963c0.29448,0.5951 0.59197,1.18796 0.89348,1.77788c1.8358,3.59198 4.41733,7.2898 6.04055,11.12505c0.27818,0.46977 0.55631,0.93924 0.8343,1.40842l0.03281,-0.02042l0.85525,1.37357c0.04098,0.06329 0.0768,0.13121 0.10663,0.20343c0.15397,0.37269 0.11442,0.77707 -0.07224,1.10149c0.5015,1.07469 0.93316,2.16439 1.24828,3.27186c0.03163,0.05138 0.06328,0.10276 0.09492,0.15414l-0.01118,0.01991l0.01707,-0.01008l0.22951,0.38845l0.20208,-0.08348l0.61827,1.4966c0.2636,0.63805 -0.03998,1.36898 -0.67803,1.63256c-0.58841,0.24309 -1.25579,0.00383 -1.56281,-0.53527l-0.95704,-1.61979c-1.19144,-1.9352 -2.37704,-3.87375 -3.58088,-5.79966c0.99697,2.60394 1.8633,5.26795 2.50245,8.04059l-0.00292,0.02112l0.00698,-0.00138l0.26132,1.32749c0.1261,0.58004 -0.17683,1.18485 -0.74471,1.41945c-0.4959,0.20487 -1.04791,0.06713 -1.39301,-0.30396l-0.99378,-1.02023l0.02572,-0.02504c-0.06009,-0.05078 -0.11834,-0.10402 -0.17449,-0.16001c-0.53954,-0.53805 -1.30306,-3.5857 -1.4641,-4.22606c-0.57691,-2.29397 -1.04377,-4.6214 -1.47324,-6.95212c-1.58792,-3.76265 -3.39008,-7.4295 -5.07295,-11.16738c-3.31266,-5.3588 -6.70935,-10.65417 -9.87701,-16.13338c-1.24956,-2.16142 -3.94038,-5.80499 -4.03295,-8.30188c-0.0125,-0.33719 -0.01004,-0.64948 0.00887,-0.93681c-1.30011,-0.80796 -2.59417,-1.61538 -3.82112,-2.53478c-0.017,-0.01275 -1.7837,-1.28918 -1.90311,-1.28868c-0.61258,0.00252 -0.37366,1.16964 -0.62547,1.72807c-0.22847,0.50667 -0.46448,1.16514 -0.75588,1.82358c-0.53967,1.21935 -1.26933,2.43862 -2.49292,2.6936c-0.4784,0.09969 -3.1989,-1.57341 -3.55898,-1.81808c-0.50787,-0.34511 -1.15285,-1.34383 -1.59639,-0.91918c-0.5617,0.53776 -0.81468,2.7749 -1.09134,3.45906c-0.7537,1.86379 -1.54076,2.88965 -3.10417,4.12644c-1.59553,1.40189 -2.67499,2.68088 -5.01742,2.01745c-0.63483,-0.17979 -1.19104,-1.69049 -1.59659,-1.17005c-0.40873,0.52454 -0.64128,1.66499 -0.93045,2.88079c0.04656,0.11271 0.09313,0.22543 0.13969,0.33814l0.51522,1.24718c0.2636,0.63805 -0.03998,1.36898 -0.67803,1.63256c-0.3759,0.15529 -0.78405,0.11373 -1.10987,-0.07711c-0.35837,0.53882 -0.81598,0.92268 -1.42409,1.03249c-0.78551,0.14183 -1.47644,-0.61983 -2.16419,-1.02501c-1.80126,-1.06126 -3.74485,-2.85165 -5.21771,-4.64919c0.38789,2.44928 0.55028,4.95676 0.3006,7.33954l0.47979,0.04095l-0.20501,2.40254c-0.02937,0.43701 -0.2879,0.84567 -0.71174,1.04672c-0.18055,0.08565 -0.37131,0.12424 -0.55843,0.1207c3.39781,9.28062 11.77665,16.95023 12.78106,26.98l0.22517,-0.07428l0.43742,1.32624c0.20564,0.59438 -0.06474,1.26084 -0.64614,1.53664c-0.53747,0.25497 -1.16533,0.09288 -1.51805,-0.35591l-0.86726,-1.05522c-3.89762,-3.77838 -6.44765,-8.95875 -9.79287,-13.25466c-4.13445,-4.72925 -5.46876,-12.06558 -7.53607,-17.85591c-0.65469,-1.83371 -1.42807,-3.48965 -2.4436,-5.15242c-0.30455,-0.49867 -0.60364,-1.00064 -0.90511,-1.50119c-0.07119,-0.1182 -0.17615,-0.27217 -0.28606,-0.43783c-0.0871,0.40177 -0.22235,0.82373 -0.30123,1.11382c-0.42341,0.73443 -0.46881,1.92687 -1.27021,2.20331c-1.65541,0.57102 -3.39849,-1.92027 -4.38032,-4.06343c0.15547,2.70448 0.78392,5.28364 1.85671,7.7735c0.08334,0.15986 0.15983,0.32066 0.21483,0.48444c0.05524,0.1211 0.11151,0.24201 0.16888,0.36268l-0.00116,0.04597c0.00257,0.00594 0.00514,0.01188 0.0077,0.01782l0.01588,-0.00569l0.08692,0.2432c1.04853,2.41872 2.13832,4.82238 3.18948,7.23096c0.31996,0.60515 0.62002,1.21789 0.8952,1.83838c1.42004,0.99333 2.78824,2.54827 3.71785,3.56088c3.20224,3.48813 7.14697,8.46436 9.41439,13.519c0.47607,0.51256 0.9481,1.02884 1.41577,1.54911c2.66357,2.96317 5.58406,5.49075 7.04637,8.93313l0.44356,-0.18323l0.72131,1.74605c0.2636,0.63805 -0.03998,1.36898 -0.67803,1.63256c-0.38278,0.15813 -0.79899,0.11214 -1.12766,-0.08773l-1.14797,-0.68118c-5.21616,-3.09637 -9.93785,-6.82942 -14.36475,-10.91301c3.54426,7.31873 7.33189,14.79933 12.38749,20.82263l0.02163,0.09037l0.02759,-0.01718l0.85525,1.37357c0.04098,0.06329 0.0768,0.13121 0.10663,0.20343c0.2636,0.63805 -0.03998,1.36898 -0.67803,1.63256c-0.40737,0.16828 -0.85261,0.10539 -1.18989,-0.12815l-1.59991,-1.07361l0.01694,-0.02524c-0.05685,-0.03015 -0.11311,-0.06164 -0.16869,-0.09461c-0.6532,-0.3874 -1.83118,-2.46844 -2.28993,-3.1739c-1.37354,-2.1122 -2.75538,-4.19632 -4.052,-6.358c-4.97994,-8.30236 -10.11693,-16.6336 -15.46692,-24.6674l0.27888,0.5879c0.29589,0.62372 0.03013,1.36922 -0.59362,1.66511c-0.62373,0.29589 -1.36923,0.03012 -1.66511,-0.59362l-0.67612,-1.42524c-1.11168,-2.34343 -2.22436,-4.68637 -3.33333,-7.03109c-1.96733,-5.67971 -4.03291,-12.44521 -1.931,-18.41542c0.96502,-2.74102 2.56596,-5.27674 4.22448,-7.65887c0,0 0.33444,-0.47985 0.87404,-0.55429c0.20911,-0.29148 0.42522,-0.58378 0.64845,-0.87735c0.05346,-0.59057 0.5898,-0.9086 0.70981,-0.97268l0.4046,-0.58049c0.12119,-0.18092 0.29125,-0.3325 0.50229,-0.4326c0.25713,-0.12198 0.53498,-0.14851 0.79348,-0.09384c2.58792,-1.97774 5.16113,-3.7575 8.30209,-4.79339c6.10493,-2.10677 12.40411,-3.66586 18.15007,-6.67866c0.91163,-0.478 1.79489,-0.99241 2.658,-1.53291c0.75862,-1.25654 1.60234,-2.46956 2.51918,-3.65789l0.99411,-1.28117c0.13029,-0.17448 0.30788,-0.31717 0.52376,-0.40636c0.12746,-0.05266 0.25864,-0.08268 0.38907,-0.09192c0.26613,-0.21416 0.56102,-0.28216 0.56102,-0.28216zM245.83939,159.04371c-0.64773,-0.67826 -1.49969,-1.2173 -1.82573,-2.08183c-0.03412,-0.0905 -0.06286,-0.18216 -0.08699,-0.27479l-0.05357,0.02214l-0.51522,-1.24718c-0.2636,-0.63805 0.03998,-1.36898 0.67803,-1.63256c0.21316,-0.08806 0.43669,-0.11282 0.64968,-0.08296c0.01289,-0.48295 0.12848,-0.91844 0.47956,-1.20418c0.00499,-0.00407 0.01001,-0.00808 0.01505,-0.01204c-1.51271,-2.06061 -3.7436,-4.44257 -4.27108,-6.53126c-0.01552,-0.06141 -0.02952,-0.12303 -0.04214,-0.18484l-0.02182,0.00597l-0.57055,-2.08253c-0.17495,-0.6041 0.12917,-1.25587 0.72392,-1.50158c0.24751,-0.10226 0.509,-0.11915 0.75176,-0.0643c-0.70378,-1.58842 -1.22555,-3.29655 -1.54748,-5.00386l-0.23155,0.64951l-0.19559,-0.06973c-0.86397,7.10613 1.70685,13.95238 2.72023,20.836c0.13073,-0.25483 0.34922,-0.46628 0.63467,-0.58419c0.53687,-0.22179 1.13951,-0.04204 1.47416,0.40067l1.20302,1.5183l-0.14604,0.11571c0.33857,0.27548 0.67195,0.55732 1.00087,0.84458c-0.2938,-0.61198 -0.574,-1.22663 -0.8232,-1.83506zM298.41653,93.18262c-0.43634,0.11625 -0.89001,-0.01483 -1.19777,-0.31753l-0.59114,-0.5575c-0.28791,0.55519 -0.67408,1.05201 -1.23471,1.4393c-0.76068,0.52545 -1.60221,0.75712 -2.48374,0.77732c0.10916,0.53056 0.20723,1.0574 0.29368,1.57652l0.1876,-0.0687l0.43809,1.19639c0.45832,-0.21448 0.92106,-0.41108 1.38814,-0.5866c1.48189,-0.55685 3.02769,-0.93002 4.57617,-1.29195c-0.48822,-0.72145 -0.95473,-1.50034 -1.37632,-2.16726zM299.34597,90.17779c1.79896,1.23653 3.5733,2.51275 5.33183,3.84461c0.21365,-0.07684 0.42602,-0.15724 0.6369,-0.24174c0.03524,-0.28672 0.08452,-0.58123 0.12069,-0.88022c-0.87649,-0.77312 -1.67318,-1.52146 -2.16304,-1.91529c-0.22224,-0.17868 -0.44404,-0.3574 -0.66545,-0.53619c-1.20901,0.68261 -2.53972,-0.20468 -3.70989,-1.50382c0.05759,0.26247 0.12478,0.51831 0.20727,0.76307l-0.01882,0.14076l0.04103,-0.00437l0.00725,0.0681c0.07086,0.08834 0.1416,0.1767 0.21222,0.26507zM319.98254,110.77468c0.4612,-0.19053 0.97092,-0.08473 1.31759,0.22951l0.90897,0.78982c-0.17292,-0.57982 -0.31865,-1.15906 -0.43333,-1.73657c-0.06625,-0.11366 -0.13249,-0.22733 -0.19873,-0.34106l-0.14703,0.06074l-0.27094,-0.65585c-0.53331,-0.43358 -1.06414,-0.85995 -1.59274,-1.27415c-0.3317,-0.25992 -0.70987,-0.52793 -1.08977,-0.81137c0.48034,1.22111 1.00084,2.50824 1.39272,3.79237c0.03645,-0.01949 0.07424,-0.03735 0.11326,-0.05348zM259.89124,173.76666c-0.95014,-1.21683 -1.89004,-2.43857 -2.81778,-3.66761c-0.52408,0.03847 -0.94525,-0.32751 -0.94525,-0.32751l-0.72905,-0.6602c-0.56932,-0.33872 -1.11801,-0.70995 -1.64782,-1.10853c0.50912,0.52984 1.02168,1.05525 1.5412,1.57192c1.45444,1.44649 2.99528,2.84769 4.5987,4.19194zM328.40535,116.01803c0.04975,0.08415 0.09952,0.16833 0.14934,0.25249c0.60675,1.02497 1.22077,1.99977 1.81651,2.95248c-0.49607,-1.34949 -1.00008,-2.69633 -1.51669,-4.03897c-0.25935,-0.18066 -0.51789,-0.36472 -0.77565,-0.55169c0.11393,0.46009 0.22353,0.92173 0.32647,1.38568zM333.63005,119.97235c-0.10303,-0.40328 -0.20362,-0.80874 -0.3025,-1.21595c-0.17277,-0.40483 -0.34434,-0.80922 -0.5133,-1.21388c-0.17763,0.007 -0.35359,-0.02424 -0.51616,-0.08955c0.60129,1.70065 1.18619,3.4069 1.77188,5.11243c-0.14055,-0.94022 -0.25174,-1.85639 -0.43993,-2.59306zM309.13738,91.36638c-0.3754,-0.48176 -0.74938,-0.96451 -1.12191,-1.4483c0.02783,0.49854 0.04191,0.995 0.04171,1.48828c0.25773,0.19684 0.51481,0.39488 0.77094,0.59469c0.04165,0.03249 0.0826,0.06577 0.123,0.09972c0.1238,-0.06128 0.24757,-0.12261 0.37131,-0.18389c-0.06673,-0.18267 -0.12852,-0.3685 -0.18507,-0.55053zM301.72415,131.23506c-0.39374,-1.05599 -0.77875,-2.12165 -1.15861,-3.19828c-0.22259,-0.14266 -0.44751,-0.28348 -0.67489,-0.4224c0.19119,0.40223 0.36812,0.71642 0.39684,0.77696c0.45972,0.96936 0.93822,1.91164 1.43666,2.84372zM291.16402,98.37929l0.01115,-0.01l-0.03527,-0.01768c-0.44041,-0.55472 -0.90288,-1.06895 -1.38557,-1.5481c0.44206,0.62339 0.86326,1.27949 1.26505,1.97065c0.10673,-0.06677 0.21378,-0.13289 0.32106,-0.19832zM266.22839,178.5712c-0.31611,-0.42534 -0.62317,-0.85218 -0.92013,-1.26043c-0.04727,0.16474 -0.12803,0.31909 -0.23785,0.4523c0.38417,0.27291 0.77026,0.54234 1.15797,0.80812zM239.82296,133.14997c-0.16827,0.30107 -0.32749,0.60503 -0.47533,0.91142c0.16645,-0.02641 0.33423,-0.01825 0.49371,0.02103c-0.01367,-0.31375 -0.01983,-0.62482 -0.01838,-0.93247zM254.14166,162.0535c0.12618,0.11717 0.25224,0.23447 0.37815,0.35192c-0.39187,-0.5236 -0.79217,-1.03767 -1.20003,-1.53946c0.27148,0.3974 0.54551,0.79321 0.82187,1.18752zM315.74489,128.87486c-0.00999,-0.08762 -0.01823,-0.17546 -0.02534,-0.26266l-0.0959,0.20737c0.0407,0.01798 0.08112,0.0364 0.12123,0.05529zM257.93483,138.61197c-0.00831,-0.06491 -0.0164,-0.12996 -0.02426,-0.1951l-0.08171,0.03877c0.03567,0.05206 0.07098,0.10417 0.10596,0.15635zM242.80468,160.5206l0.11562,0.24372l-0.21211,-0.51345c0.003,0.02837 0.00598,0.05674 0.00892,0.0851c0.02919,0.06154 0.05839,0.12306 0.08759,0.18462zM243.11734,161.10948l-0.02786,0.0115l0.0315,0.06642z" fill="#000000" stroke="none" stroke-width="0.5" stroke-linecap="butt" stroke-linejoin="miter"/><path d="M332.5136,52.30019c0,0 -3.58638,7.32809 -8.51303,16.84017c-2.17226,4.19408 -2.65233,8.61979 -6.51128,13.35632c-1.99354,2.44688 -0.4568,5.35629 -2.79978,7.97318c-2.30533,2.57483 -8.48493,4.85474 -11.11736,7.55711c-2.28114,2.34177 -8.24721,5.81109 -10.76615,8.22291c-3.40487,3.26006 -3.45946,5.48663 -7.28323,8.82334c-3.78099,3.29936 -5.37464,6.75293 -9.19138,9.8008c-2.32147,1.85381 -6.8701,3.38791 -9.17585,5.1359c-1.14902,0.87105 -4.28185,1.43522 -5.42287,2.27819c-3.42397,2.52957 -4.81873,5.22317 -8.12193,7.47827c-1.68132,1.14782 -4.64438,0.09223 -6.71349,1.40354c-2.11327,1.33929 -3.33573,5.04608 -5.34286,6.27319c-4.35778,2.66423 -7.85717,4.72735 -7.85717,4.72735c0,0 -13.89647,5.43098 -17.44696,6.60086c-4.56416,1.50388 -7.66884,1.67469 -7.66884,1.67469c0,0 5.14362,-8.02645 11.55303,-19.26751c1.4337,-2.51446 -0.21399,-6.00043 0.90188,-8.83445c1.1436,-2.90449 5.06307,-5.16096 7.58537,-8.05374c2.40735,-2.76093 4.97106,-7.88307 8.84216,-11.78609c6.13078,-6.18134 13.53217,-10.95215 13.53217,-10.95215c0,0 3.41956,-3.08376 5.19357,-4.63179c2.11744,-1.84773 6.20365,-3.98202 8.74651,-5.99743c8.15928,-6.46692 14.69169,-13.85391 21.65208,-18.96777c6.28387,-4.61681 13.42303,-7.29514 13.42303,-7.29514c0,0 2.66667,2.213 4.03238,1.42488c1.20194,-0.69362 3.73359,-5.90644 3.73359,-5.90644c0,0 4.59353,-4.09878 6.84829,-2.18106c2.16568,1.84196 5.68793,1.11568 9.03665,-0.33967c0.79165,-0.34404 0.91541,2.51825 1.66742,2.11702c3.60703,-1.92448 7.18406,-7.4744 7.18406,-7.4744z" fill="url(#color-6)" stroke="#000000" stroke-width="0" stroke-linecap="butt" stroke-linejoin="miter"/><path d="M321.45935,187.48328c0.99147,2.39997 -1.07656,0.96208 -4.59839,0.16422c-0.70228,-0.1591 -1.63789,-0.90059 -2.54368,-1.32178c-0.55882,-0.25984 -1.10628,-0.39776 -1.5806,-0.2018c-0.73501,0.30365 -0.18574,2.29601 -0.56749,2.99275c-0.38882,0.70967 -1.7061,0.12579 -2.18126,0.65467c-2.29457,2.55394 -4.09358,4.35013 -5.02321,2.09985c-0.21712,-0.52556 -0.37956,-0.17212 -0.36706,-0.74348c0.03155,-1.44155 -0.16576,-2.82024 1.10419,-4.44687c1.26634,-1.622 3.99694,-3.49277 6.12116,-4.37032c2.67232,-1.10398 6.51366,-2.29997 8.15114,-1.01977c1.48688,1.16245 0.86122,4.68213 1.48519,6.19254z" fill="#060606" stroke="none" stroke-width="0" stroke-linecap="butt" stroke-linejoin="miter"/><path d="M310.80161,191.58432c-1.15531,0.47728 -1.63256,-0.67803 -1.63256,-0.67803l-0.23351,-0.56525c-0.48462,-1.17306 -0.95975,-2.34829 -1.42952,-3.5247c-0.43289,-0.05324 -0.8254,-0.33187 -1.00381,-0.76375l-0.54486,-1.3189c-0.16641,-0.40282 -0.33741,-0.80691 -0.51175,-1.21222c-0.30641,-0.40534 -0.46966,-0.92562 -0.67815,-1.55028c-1.12763,-2.54512 -2.32666,-5.13827 -3.30591,-7.77906c-0.67884,-1.53864 -1.35237,-3.08087 -1.99738,-4.64222l-0.70052,-1.69573c-0.2636,-0.63805 0.03998,-1.36898 0.67803,-1.63256c0.01327,-0.00549 0.02658,-0.01072 0.03992,-0.01571c-0.04064,-0.43037 -0.0687,-0.86191 -0.08302,-1.2946c0,0 -0.04123,-1.24932 1.20807,-1.29055c1.24932,-0.04122 1.29055,1.20808 1.29055,1.20808c0.02591,0.78786 0.10159,1.57304 0.21901,2.3552c0.04606,0.02891 0.09129,0.05958 0.13561,0.09212c1.09825,0.8062 1.93914,4.49842 2.48874,5.82882c2.23475,5.40955 4.26934,10.86844 6.50556,16.28151l0.23351,0.56525c0,0 0.47728,1.15531 -0.67803,1.63256z" fill="#000000" stroke="none" stroke-width="0.5" stroke-linecap="butt" stroke-linejoin="miter"/><path d="M321.65615,185.5502l-1.21495,1.14055c-0.63937,-1.54767 -1.27873,-3.09536 -1.91811,-4.64303c-0.09577,-0.06535 -0.18301,-0.14436 -0.25839,-0.23569l-0.82498,-0.95304l0.3562,-0.30835c-2.18761,-2.38647 -2.83538,-5.75984 -3.8642,-9.08307l-0.76209,-1.84474c-0.2636,-0.63805 0.03998,-1.36898 0.67803,-1.63256c0.59969,-0.24774 1.28139,0.00551 1.58006,0.56659l0.12269,0.22329c0.67295,0.08522 0.96209,0.78512 0.96209,0.78512c0.75841,1.83584 1.44835,3.69329 2.14875,5.54568c1.31396,2.88842 2.33019,6.02847 3.39615,8.85759c0.37093,0.28902 0.47856,0.75578 0.47856,0.75578l-0.13855,0.13006c0.11697,0.29852 0.23496,0.59271 0.3544,0.88185z" fill="#000000" stroke="none" stroke-width="0.5" stroke-linecap="butt" stroke-linejoin="miter"/><path d="M270.02725,143.06625c0.69457,1.03927 -0.34469,1.73384 -0.34469,1.73384l-0.3328,-0.21793c-0.10493,0.52778 -0.23156,1.06719 -0.36205,1.61344c0.55766,-0.08761 1.12329,0.21332 1.34832,0.75803c0.03546,0.08583 0.06065,0.17335 0.07615,0.26116l0.39655,2.0145l-0.22551,0.04439c0.36164,1.00547 0.63388,2.01631 0.96477,3.3112l0.42773,1.56128c0.17495,0.6041 -0.12918,1.25587 -0.72393,1.50158c-0.02427,0.01002 -0.04864,0.01922 -0.07314,0.02761c0.33484,0.9285 0.64425,1.87492 0.96105,2.81014c1.23752,1.7862 2.45266,3.60002 3.27238,5.56076c1.24582,3.01566 2.68545,6.02886 3.35196,9.24343c0.0452,0.21799 0.07947,0.43432 0.10635,0.64934c1.11726,2.43392 2.2108,4.88083 3.21984,7.36497c0.09912,0.65075 0.20666,1.32389 0.34685,1.99471c0.7502,1.03559 1.52161,2.06538 2.21946,3.17106c0.40974,0.64921 1.11526,1.67535 1.8193,2.8123c0.5574,0.36904 1.0955,0.75249 1.53715,1.24428c0.73442,0.81782 1.30665,2.38338 1.73709,3.42991l0.68836,1.16506c0.03412,0.0557 0.0643,0.1148 0.09005,0.1771c0.2636,0.63805 -0.03998,1.36898 -0.67803,1.63256c-0.4612,0.19054 -0.97092,0.08473 -1.31759,-0.22951l-1.35592,-1.1782l0.013,-0.01498c-0.02604,-0.01496 -0.05199,-0.03015 -0.07783,-0.04551c-1.34677,-0.80148 -2.26831,-2.70664 -3.07501,-4.53684c-0.8704,-0.76326 -1.73614,-1.58119 -2.44592,-2.74726c-0.71219,-1.17003 -1.16935,-2.51096 -1.48502,-3.87148c-1.22584,-1.71883 -2.3804,-3.46578 -3.09086,-5.56737c-0.47707,-1.4112 -0.3971,-2.72766 -0.56429,-4.11096c-2.20556,-4.87029 -4.46854,-9.7073 -6.51886,-14.63193c-1.93788,-2.54893 -3.94567,-5.12153 -4.21553,-8.16989c-0.7415,-0.94826 -0.30405,-2.58514 0.29802,-3.76887c0.26372,-1.34596 0.62894,-2.6851 0.88308,-3.96346l1.39567,-1.37313c0,0 1.03927,-0.69458 1.73384,0.34469z" fill="#000000" stroke="none" stroke-width="0.5" stroke-linecap="butt" stroke-linejoin="miter"/><path d="M276.44451,137.31378c-0.04699,0.74916 -0.18597,3.55354 -0.3841,4.24795c-0.68553,2.40259 -1.02072,4.06255 -3.76052,1.62812c-0.90133,-0.80086 -1.17037,-2.72413 -1.00795,-4.5908c-0.65591,-0.1688 -0.85567,-0.89798 -0.85567,-0.89798c-0.72392,-2.67852 -1.0489,-3.49463 1.52274,-4.90177l1.3189,-0.54486c0.63805,-0.2636 1.36899,0.03999 1.63256,0.67803c0.11957,0.28946 0.12244,0.59801 0.03031,0.87338l-0.20185,0.61555c0.47225,0.01908 0.91329,0.30656 1.10559,0.77205c0.02018,0.04885 0.03704,0.09826 0.05067,0.14794l0.50707,1.75612l-0.07564,0.02184z" fill="#000000" stroke="none" stroke-width="0.5" stroke-linecap="butt" stroke-linejoin="miter"/><path d="" fill="url(#color-7)" stroke="none" stroke-width="0.5" stroke-linecap="butt" stroke-linejoin="miter"/><path d="" fill="url(#color-8)" stroke="none" stroke-width="0.5" stroke-linecap="butt" stroke-linejoin="miter"/><path d="M245.37774,96.56847c-2.47628,3.03564 -5.00983,6.03384 -7.01669,9.36469c0,0 -0.64633,1.06994 -1.71627,0.42362c-1.06994,-0.64633 -0.42362,-1.71627 -0.42362,-1.71627c3.34557,-5.5252 8.08848,-10.14499 11.67226,-15.52198l0.05491,-0.03297l-0.01788,-0.01461l1.03393,-1.26479c0.08628,-0.11073 0.19283,-0.20869 0.31832,-0.28803c0.58353,-0.36889 1.35562,-0.19489 1.72451,0.38865c0.22728,0.35953 0.24849,0.79063 0.09478,1.15491l-0.31451,0.77215c0.45548,-0.04488 0.91891,0.16298 1.18014,0.57622c0.20805,0.32911 0.24342,0.7182 0.13003,1.06111l-0.41769,1.29363l-0.13277,-0.04287l-0.00858,0.01926l-0.17971,-0.08005l-0.04042,-0.01304c-0.00124,0.00933 -0.00247,0.01865 -0.00374,0.02798l0.20567,0.10414c-0.10585,0.19955 -0.21258,0.39847 -0.32013,0.59678c-0.69551,3.62973 -2.89724,6.90371 -4.67487,10.25435c-2.89331,5.45361 -6.27594,11.36048 -8.1683,17.24843c-1.25425,4.07743 -2.359,7.85165 -2.97634,12.08253l-0.07198,0.33615c0,0 -0.27481,1.21941 -1.49423,0.94461c-1.21941,-0.27481 -0.94461,-1.49423 -0.94461,-1.49423l0.03701,-0.14748c0.63619,-4.36014 1.77395,-8.2738 3.06582,-12.4732c1.00002,-3.08435 2.39482,-6.01386 3.91126,-8.8927c-1.11401,1.78614 -2.1849,3.60155 -3.17784,5.471c-3.39165,5.59856 -6.28314,12.1825 -6.14719,18.89707c0.04472,2.20917 1.11735,4.34151 1.73088,6.42898c0,0 0.35198,1.19942 -0.84746,1.55141c-1.19942,0.35198 -1.55141,-0.84746 -1.55141,-0.84746c-0.68346,-2.33295 -1.76788,-4.6098 -1.83144,-7.07845c-0.18418,-7.1543 2.87227,-14.20956 6.47168,-20.18431c2.33359,-4.40086 5.10512,-8.49656 7.85258,-12.61684c1.02833,-2.08284 2.05164,-4.16635 2.99388,-6.28828z" fill="url(#color-9)" stroke="none" stroke-width="0.5" stroke-linecap="butt" stroke-linejoin="miter"/><path d="M269.93123,111.24785c-0.96777,-0.79113 -0.17664,-1.75891 -0.17664,-1.75891l0.1174,0.01607c1.95789,-6.77015 4.57569,-13.27351 6.52533,-20.02653c-0.59128,1.62062 -1.1957,3.23541 -1.82717,4.83832c-1.75965,4.46662 -4.53953,8.49319 -6.34962,12.94215c0,0 -0.47155,1.15766 -1.62918,0.68611c-1.15766,-0.47155 -0.68611,-1.62918 -0.68611,-1.62918c1.80902,-4.4363 4.59188,-8.45443 6.33723,-12.91112c1.63089,-4.16442 3.09377,-8.40111 4.6136,-12.61615c0.81807,-2.65589 1.85745,-5.39622 2.45086,-8.0852l0.32698,-1.45088v0c0.07034,-0.31208 0.25972,-0.59733 0.55148,-0.78177c0.58353,-0.36889 1.35562,-0.19489 1.72451,0.38865c0.16592,0.26247 0.22201,0.56309 0.18041,0.848l-0.34415,2.46859l-0.21795,-0.03039c-0.01009,0.03918 -0.02023,0.07836 -0.03044,0.11754c0.51094,12.25386 -5.93068,24.44988 -9.2234,35.93376l-0.58419,0.87432c0,0 -0.79113,0.96777 -1.75891,0.17664z" fill="url(#color-10)" stroke="none" stroke-width="0.5" stroke-linecap="butt" stroke-linejoin="miter"/><path d="M268.95356,99.37993c0,0 -10.28386,-20.90705 -13.47419,-27.30809c-0.37949,-0.76141 -2.75756,0.25371 -4.10787,-0.63481c-3.20559,-2.1093 -6.57592,-6.07242 -6.57592,-6.07242c0,0 8.42873,3.16406 9.29167,2.36656c0.68557,-0.63359 0.33291,-2.35385 0.52007,-2.50228c0.16658,-0.13212 1.58376,0.46006 2.29224,-0.01096c1.26088,-0.83825 3.20237,-12.75094 3.20237,-12.75094c0,0 1.06382,6.2769 0.83654,11.02987c-0.12884,2.69463 -1.91976,4.47102 -1.4565,5.40051c3.19032,6.401 12.79412,26.72144 12.79412,26.72144c0,0 5.32676,-0.05475 5.31517,0.76699c-0.00565,0.39962 -2.57244,-1.08439 -3.11447,1.2096c-0.35129,1.48677 6.36848,-0.40916 6.58125,0.65164c0.14737,0.73469 -6.20906,4.69417 -6.25912,4.73386c-0.11233,0.08909 0.49316,-2.02878 0.08774,0.88332c-0.31979,2.29716 0.33077,6.66578 0.10119,6.50472c-0.14792,-0.10379 -0.47594,0.38216 -0.52267,-0.46132c-0.13484,-2.43348 -1.67012,-4.79163 -1.67012,-4.79163c0,0 -2.67054,0.0616 -3.81465,-0.95698c-0.54266,-0.48313 -7.99209,2.82267 -8.27753,2.1965c-0.56266,-1.23434 6.34126,-6.40422 6.22935,-6.57131c-0.65555,-0.97883 2.0213,-0.40428 2.0213,-0.40428z" fill="url(#color-11)" stroke="#000000" stroke-width="0" stroke-linecap="butt" stroke-linejoin="miter"/></g></g></svg>