<svg version="1.1" xmlns="http://www.w3.org/2000/svg" xmlns:xlink="http://www.w3.org/1999/xlink" width="180.7014" height="370.73775" viewBox="0,0,180.7014,370.73775"><defs><radialGradient cx="273.40536" cy="82.20281" r="6.90405" gradientUnits="userSpaceOnUse" id="color-1"><stop offset="0" stop-color="#1a1a1a"/><stop offset="1" stop-color="#ffffff"/></radialGradient><radialGradient cx="306.13" cy="86.95551" r="8.94704" gradientUnits="userSpaceOnUse" id="color-2"><stop offset="0" stop-color="#1a1a1a"/><stop offset="1" stop-color="#ffffff"/></radialGradient></defs><g transform="translate(-183.21486,-16.75468)"><g stroke-width="2" stroke-miterlimit="10"><path d="M239.51418,235.25849c5.78378,0.86169 13.85109,0.69598 19.84744,0.55998c6.53809,-0.14827 14.85558,2.59272 21.32045,3.72103c3.79757,0.6628 22.51156,26.29641 22.51156,26.29641l1.10429,6.88996l-4.38006,-0.76628l-3.42061,24.17268c0,0 -3.01386,30.86562 -10.36481,45.3429c-3.2145,6.33085 3.57677,15.82102 -6.05839,18.35249c-3.41191,0.8964 -12.90659,8.73318 -16.40304,8.12296c-5.07232,-0.88527 -10.04201,-8.47988 -15.99067,-11.00207c-7.57433,-3.21146 -24.5955,-2.34862 -24.5955,-2.34862l-6.94039,-9.28637l5.72768,-21.62797c0,0 6.12884,-32.62563 10.96685,-53.52093c1.58977,-6.86606 1.17305,-30.86656 5.25121,-35.15352z" fill="#3c2c1f" stroke="#000000" stroke-linecap="round"/><path d="M248.88179,355.93044l19.22541,-100.88474" fill="none" stroke="#000000" stroke-linecap="round"/><path d="M249.33708,363.76431c-2.09278,11.41047 -4.52119,20.98492 -15.43997,19.0793c-10.91876,-1.90565 -24.10037,-25.98023 -24.10037,-25.98023c0,0 12.64073,-19.11569 23.55949,-17.21003c10.91876,1.90565 18.07362,12.70047 15.98084,24.11098z" fill="#000000" stroke="#000000" stroke-linecap="butt"/><path d="M288.97665,367.14521c-2.0928,11.4105 -6.96636,21.01034 -17.88512,19.10468c-10.91874,-1.90564 -23.748,-14.59514 -21.65522,-26.00563c2.0928,-11.4105 12.64072,-19.11568 23.55949,-17.21003c10.91876,1.90565 18.07362,12.70048 15.98084,24.11098z" fill="#000000" stroke="#000000" stroke-linecap="butt"/><path d="M255.25916,228.78693c-8.2427,3.23168 -27.4901,-4.12027 -27.4901,-4.12027l-43.33005,-66.05483l32.9301,-43.24903l21.29524,0.65637l-0.71504,7.59882l-14.99105,9.25299l-14.59286,41.65459c0,0 24.58895,24.51129 40.82306,23.44483c8.39191,-0.5513 17.04659,-4.26554 25.31493,-1.08253c24.51391,9.43698 -2.45167,30.47083 -18.05997,32.32928z" fill="#feed00" stroke="#000000" stroke-linecap="round"/><g><path d="M301.56939,242.09008l19.34722,-4.55595l-0.45096,30.25693l-6.06891,4.61585l-1.02126,-3.06043l-9.82114,-17.45911l-8.08772,6.53532l-1.66391,-7.39147l-9.76166,0.78776l2.93846,-15.06108c0,0 -6.64802,0.72111 -5.79615,-7.51236c0.78352,-7.57255 20.36592,12.46984 20.36592,12.46984z" fill="#feed00" stroke="#000000" stroke-linecap="round"/><path d="M315.044,258.36199l-4.49286,2.47276l-1.77346,-5.5015l-1.73587,-4.64454l7.60843,-4.48239l8.04568,0.25865l-7.65193,11.89702z" fill="#ffa600" stroke="none" stroke-linecap="butt"/><path d="M288.03247,230.94716c0,0 -3.60652,2.40684 -4.57269,0.61453c-0.96614,-1.79233 -0.48533,-4.97342 1.07392,-7.10514c1.55925,-2.13173 3.60652,-2.40684 4.57269,-0.61453c0.96614,1.79233 -1.07391,7.10514 -1.07391,7.10514z" fill="#ffa600" stroke="none" stroke-linecap="butt"/><path d="M290.69383,250.56125l-4.51319,0.60362l1.05813,-7.0131l11.76506,22.11892z" fill="#ffa600" stroke="none" stroke-linecap="butt"/><path d="M300.23454,253.5832l-4.16939,1.12009l8.57851,16.32885l4.16939,-1.12009z" fill="#ffa600" stroke="none" stroke-linecap="butt"/><path d="M319.63553,267.30612l-3.55959,1.76613l1.63525,-5.33596l3.55961,-1.76614z" fill="#ffa600" stroke="none" stroke-linecap="butt"/></g><g><path d="M228.83151,218.53271c2.84092,-1.97777 11.922,2.7652 12.40398,10.53289c0.52403,8.44563 -5.25397,5.97391 -5.93069,7.69723c-0.13033,0.33185 7.56924,10.62401 6.21666,14.32137c-2.49972,6.83318 -9.48791,-0.82087 -9.48791,-0.82087l-1.89742,7.57869l-7.64191,-6.71355l-6.22144,-4.27212l2.80282,2.0079l-9.65757,-3.61261l5.13231,-32.29161c0,0 10.04374,3.88799 14.24768,5.95691z" fill="#feed00" stroke="#000000" stroke-linecap="round"/><path d="M212.48316,222.11745l7.85388,-0.25465l2.8055,5.86596l-1.86533,4.76129l-1.93385,5.64014l-4.28828,-2.54208l-2.57187,-13.47068z" fill="#ffa600" stroke="none" stroke-linecap="butt"/><path d="M233.71211,223.51308c1.00868,-1.837 2.99445,-1.55209 4.43533,0.63635c1.44086,2.18845 1.79119,5.4517 0.78248,7.28868c-1.00868,1.837 -2.99446,1.55211 -4.43533,-0.63633c-1.44086,-2.18845 -1.79121,-5.45169 -0.78249,-7.28868z" fill="#ffa600" stroke="none" stroke-linecap="butt"/><path d="M234.3116,242.59117c0,0 2.95607,-1.53416 4.37769,0.62507c1.42163,2.15925 1.76663,5.38024 0.77053,7.19426c-0.99611,1.81402 -4.37771,-0.62506 -4.37771,-0.62506z" fill="#ffa600" stroke="none" stroke-linecap="butt"/><path d="M220.7,247.44244l7.93575,0.0247l1.05536,6.55936l-4.02331,-1.15433z" fill="#ffa600" stroke="none" stroke-linecap="butt"/><path d="M208.84981,239.28054l3.40473,1.81612l1.39567,5.4749l-3.40472,-1.81611z" fill="#ffa600" stroke="none" stroke-linecap="butt"/></g><path d="M239.99371,199.83371c-2.47213,6.9063 -13.62963,25.68876 -13.62963,25.68876l-23.94629,-8.71059l11.78429,-23.13688l25.58286,-59.26929c0,0 7.24826,-8.8779 9.74543,-13.96754l1.16832,0.14866c12.6862,4.00346 23.65541,11.50074 37.69125,10.93691c5.61735,-0.22564 17.18618,20.68476 21.70946,16.75287c1.03418,-0.89897 3.9714,-3.02102 5.29615,-1.83441c2.98153,2.67067 5.15353,16.00383 5.15353,16.00383l9.39508,51.75209l2.64351,18.33553l-21.0362,16.38511l-5.94818,2.76084l3.81379,-26.30167l-6.08388,27.28972l-1.30036,15.65461c0,0 -18.11382,-19.45157 -21.03863,-19.34281c-11.83098,0.43989 -23.5764,-3.07811 -35.40304,-2.59552c-3.84404,0.15687 -9.8869,3.63518 -13.02537,1.32914c-1.67269,-1.22907 -3.93616,-8.39639 -3.71173,-10.33549c0.98802,-8.53681 0.93388,-18.44045 3.40826,-26.68018" fill="#fffe8a" stroke="#000000" stroke-linecap="round"/><path d="M258.81575,168.89464c1.17267,0.67501 4.63929,0.68057 4.92252,2.42801c0.94988,5.86066 -3.64413,10.65713 -8.35392,9.10415c-3.1362,-1.03412 3.90848,-12.28445 3.90848,-12.28445c0,0 3.37234,-26.3291 7.35975,-38.88363" fill="#ffaf36" stroke="#000000" stroke-linecap="round"/><path d="M285.44639,171.81935c10.95313,-11.07059 6.02654,20.65414 -2.66729,10.88517c-4.70709,-5.28919 2.34351,-9.2096 3.1713,-11.96197c3.9072,-12.99172 7.80588,-4.82261 12.94534,-17.89524" fill="#ffaf36" stroke="#000000" stroke-linecap="round"/><path d="M242.75657,202.99763c3.90168,-2.84616 8.24139,-1.89225 12.52941,-2.27531c13.83034,-1.2355 36.10424,23.7605 49.33826,27.33636" fill="none" stroke="#000000" stroke-linecap="round"/><path d="M298.15827,263.05032c1.03796,-9.88543 7.84308,-30.3612 7.84308,-30.3612" fill="none" stroke="#000000" stroke-linecap="round"/><path d="M242.71002,207.76213c-1.09391,9.45148 -6.37089,19.43223 -7.66387,28.8466" fill="none" stroke="#000000" stroke-linecap="round"/><path d="M218.2281,223.02978l22.43462,-40.85449l-16.6203,40.78416z" fill="#fce541" stroke="#fcec41" stroke-linecap="round"/><path d="M216.81928,216.8472l22.43462,-40.85449l-16.62029,40.78416z" fill="#fce541" stroke="#fcec41" stroke-linecap="round"/><path d="M311.38575,241.63844l1.25066,-34.49423l9.76892,29.01426z" fill="#fce541" stroke="#fcec41" stroke-linecap="round"/><path d="M260.94867,113.31789c14.23036,1.10422 35.34547,24.75837 48.98761,29.42867c2.90932,0.99599 12.99243,4.76324 11.02954,9.13554c-2.66776,5.94237 -9.58957,7.60611 -15.58146,7.51169c-10.80194,-0.17021 -42.27994,-28.26656 -50.0658,-35.95125c-5.5412,-5.46917 -1.97118,-12.30236 5.824,-10.29992z" fill="#fffe8a" stroke="#000000" stroke-linecap="round"/><g stroke-linecap="butt"><path d="M270.57379,53.1335l-4.25965,34.56576l-5.88751,14.08725l-0.04453,-2.22489l-0.15751,-17.77487l-12.16475,-46.38785l1.9433,-17.5046l1.95397,0.2864l11.47937,18.7958l7.93193,15.98994z" fill="#feed00" stroke="#000000"/><path d="M265.54996,54.49469l2.93374,25.44537l-3.45913,9.93001l-0.09889,-1.46135l-0.6587,-11.69661l-14.17808,-31.43336l0.74085,-11.74911l1.30278,-0.02572l8.18745,11.1266l5.75094,9.66688z" fill="#ffa700" stroke="none"/></g><g stroke-linecap="butt"><path d="M306.312,57.2436l9.24371,-12.59399c0,0 8.44703,-9.88833 12.7651,-14.53152c0.84032,-0.90363 1.22787,-1.95291 1.76207,0.0034c0.83362,3.05286 -0.75608,15.1298 -0.75608,15.1298l9.38663,39.96766l4.60658,37.81668l-0.35299,1.88618c0,0 -10.19585,-34.10529 -10.45296,-35.44498c-2.33949,-12.19027 -25.52548,-31.9908 -25.52548,-31.9908z" fill="#feed00" stroke="#000000"/><path d="M310.79202,59.04472l6.43038,-7.49309l8.78306,-8.42635l1.14427,0.18653l-1.004,10.08392l9.72143,26.99739c0,0 -1.54643,6.56217 -2.22977,9.86239c-0.08584,0.41459 -0.05357,1.13244 -0.2932,1.23011c-0.57716,0.23515 -1.52608,-7.95388 -1.64763,-8.88063c-1.1061,-8.43308 -20.47338,-23.3267 -20.47338,-23.3267z" fill="#ffa700" stroke="none"/></g><path d="M286.14689,51.89438l29.32709,10.95763c0,0 18.45061,16.11558 19.38526,24.77655c0.28706,2.66003 1.8835,7.71637 1.8835,7.71637c0,0 -18.35911,58.7751 -39.75133,58.38905c-17.91695,-0.3233 -39.69918,-43.94429 -39.69918,-43.94429l5.24953,-31.78354l-11.05685,-13.44271l34.97878,-12.35334z" fill="#feed00" stroke="#000000" stroke-linecap="butt"/><path d="M339.96163,121.94486c4.2065,0.9195 9.6777,12.12757 9.6777,12.12757l-21.98686,0.67343l1.07469,2.61579l0.00336,8.47087c0,0 -11.38522,1.94543 -13.98109,-1.3375" fill="#feed00" stroke="#000000" stroke-linecap="round"/><path d="M249.20614,117.30894l-13.87934,-2.15053l16.1119,-6.27475l1.68637,-2.27011l-21.0982,-6.42461l26.38911,-7.43358" fill="#feed00" stroke="#000000" stroke-linecap="round"/><path d="M209.98565,65.43798l48.16279,23.74091" fill="none" stroke="#000000" stroke-linecap="round"/><path d="M258.34442,90.44347l-45.34999,-10.28994" fill="none" stroke="#000000" stroke-linecap="round"/><path d="M257.42866,90.68311l-40.90894,-2.11434" fill="none" stroke="#000000" stroke-linecap="round"/><path d="M354.41569,80.85815l-11.22702,39.36495" fill="none" stroke="#000000" stroke-linecap="round"/><path d="M340.46331,120.76763c11.85012,-6.40777 12.40768,-24.18929 12.40768,-24.18929" fill="none" stroke="#000000" stroke-linecap="round"/><path d="M343.77686,122.59962l19.1394,-15.04909" fill="none" stroke="#000000" stroke-linecap="round"/><path d="M297.87624,125.55143c3.69118,0.46213 7.60758,0.70934 11.21489,1.62508c0.45783,0.11622 1.28088,0.01662 1.33102,0.48634c0.06567,0.61526 -7.01775,3.53237 -7.77203,3.38041c-1.69611,-0.34168 -3.85685,-4.01607 -4.35907,-5.43988z" fill="#000000" stroke="#000000" stroke-linecap="round"/><path d="M293.89898,84.43367c-0.8793,7.02332 -7.19936,12.01479 -14.11626,11.14885c-6.91691,-0.86597 -10.93203,-14.2848 -10.93203,-14.2848c0,0 7.19934,-12.01479 14.11622,-11.14883c6.91691,0.86597 11.81135,7.26147 10.93205,14.28479z" fill="#ffffff" stroke="#000000" stroke-linecap="butt"/><path d="M328.74802,88.37083c-0.8793,7.02332 0.05254,34.73735 -6.86435,33.8714c-6.91691,-0.86597 -19.06319,-29.98403 -18.18391,-37.00733c0.8793,-7.02332 7.19934,-12.0148 14.11622,-11.14885c6.91691,0.86597 11.81131,7.26148 10.93202,14.28479z" fill="#ffffff" stroke="#000000" stroke-linecap="butt"/><path d="M293.52445,84.09928c-0.43529,3.47692 -3.99961,8.36062 -7.3428,7.94206c-3.34319,-0.41855 -5.19926,-5.98086 -4.76399,-9.45779c0.43529,-3.47692 3.49837,-5.95622 6.84156,-5.53766c3.3432,0.41856 5.7005,3.57645 5.26522,7.05339z" fill="url(#color-1)" stroke="#000000" stroke-linecap="butt"/><path d="M327.56868,88.66707c-0.54671,4.36684 2.87699,33.60068 -1.32189,33.07501c-4.1989,-0.52567 -14.4304,-30.61182 -13.88367,-34.97869c0.54671,-4.36684 4.3938,-7.48075 8.5927,-6.95504c4.1989,0.52567 7.15958,4.49186 6.61287,8.85874z" fill="url(#color-2)" stroke="#000000" stroke-linecap="butt"/><path d="M267.81745,55.56804l8.6445,-5.09171l3.91291,-1.29898l-4.42805,-2.79568l13.90492,-0.30493l4.21893,0.52363l-5.33406,-4.21689l5.25043,1.95967l9.84913,11.93711" fill="#feed00" stroke="#000000" stroke-linecap="butt"/><path d="M266.3047,72.44957l-17.56998,-7.3351l-5.31314,-3.76993l7.76016,-2.51303l8.16272,-2.19536" fill="#feed00" stroke="#000000" stroke-linecap="butt"/><path d="M300.72909,151.92512c-2.31031,-1.54138 -10.64494,-27.1995 -12.61422,-29.19438" fill="none" stroke="#fcec41" stroke-linecap="round"/><path d="M275.18875,136.98488l-2.38459,9.28304" fill="none" stroke="#fcec41" stroke-linecap="round"/><path d="M274.9662,143.72698l1.22137,-4.75473" fill="none" stroke="#fcec41" stroke-linecap="round"/><path d="M281.75191,143.99224l0.25133,-3.79713" fill="none" stroke="#fcec41" stroke-linecap="round"/></g></g></svg>