<svg version="1.1" xmlns="http://www.w3.org/2000/svg" xmlns:xlink="http://www.w3.org/1999/xlink" width="139.53695" height="309.77635" viewBox="0,0,139.53695,309.77635"><defs><radialGradient cx="313.49593" cy="235.08999" r="89.41619" gradientUnits="userSpaceOnUse" id="color-1"><stop offset="0" stop-color="#bebebe"/><stop offset="1" stop-color="#dadada"/></radialGradient><linearGradient x1="319.17023" y1="170.7378" x2="319.17023" y2="236.45094" gradientUnits="userSpaceOnUse" id="color-2"><stop offset="0" stop-color="#fff800"/><stop offset="1" stop-color="#d97200"/></linearGradient><linearGradient x1="264.56559" y1="89.37035" x2="264.56559" y2="169.92481" gradientUnits="userSpaceOnUse" id="color-3"><stop offset="0" stop-color="#fff800"/><stop offset="1" stop-color="#d97200"/></linearGradient><linearGradient x1="374.72074" y1="88.53253" x2="374.72074" y2="169.08699" gradientUnits="userSpaceOnUse" id="color-4"><stop offset="0" stop-color="#fff800"/><stop offset="1" stop-color="#d97200"/></linearGradient><linearGradient x1="319.80956" y1="73.88935" x2="319.80956" y2="180.32497" gradientUnits="userSpaceOnUse" id="color-5"><stop offset="0" stop-color="#454545"/><stop offset="1" stop-color="#bebebe"/></linearGradient><linearGradient x1="318.20685" y1="98.92748" x2="318.20685" y2="134.61517" gradientUnits="userSpaceOnUse" id="color-6"><stop offset="0" stop-color="#f1de00"/><stop offset="1" stop-color="#f28f00"/></linearGradient><linearGradient x1="268.19172" y1="48.35627" x2="269.89209" y2="101.66244" gradientUnits="userSpaceOnUse" id="color-7"><stop offset="0" stop-color="#d97200"/><stop offset="1" stop-color="#fff800"/></linearGradient><linearGradient x1="370.70299" y1="47.85322" x2="369.00262" y2="101.68704" gradientUnits="userSpaceOnUse" id="color-8"><stop offset="0" stop-color="#d97200"/><stop offset="1" stop-color="#fff800"/></linearGradient><radialGradient cx="268.83445" cy="45.57307" r="7.8102" gradientUnits="userSpaceOnUse" id="color-9"><stop offset="0" stop-color="#ffffff"/><stop offset="1" stop-color="#cacaca"/></radialGradient><radialGradient cx="370.46915" cy="45.27802" r="7.8102" gradientUnits="userSpaceOnUse" id="color-10"><stop offset="0" stop-color="#ffffff"/><stop offset="1" stop-color="#cacaca"/></radialGradient><linearGradient x1="350.08215" y1="187.07071" x2="380.36707" y2="185.37078" gradientUnits="userSpaceOnUse" id="color-11"><stop offset="0" stop-color="#fff800"/><stop offset="1" stop-color="#d97200"/></linearGradient><linearGradient x1="288.9248" y1="186.85936" x2="258.70036" y2="185.15943" gradientUnits="userSpaceOnUse" id="color-12"><stop offset="0" stop-color="#fff800"/><stop offset="1" stop-color="#d97200"/></linearGradient></defs><g transform="translate(-249.32685,-38.26207)"><g stroke-miterlimit="10"><path d="M276.24005,344.39979l-1.9552,-147.27579c0,0 6.0833,-25.69821 15.08987,-26.10344c8.94426,-0.40242 30.14472,-0.95905 48.66278,-1.79223c20.08501,-0.90368 26.34246,25.97468 26.34246,25.97468l0.21794,152.83541z" fill="url(#color-1)" stroke="#000000" stroke-width="0" stroke-linecap="butt"/><path d="M287.5139,212.7462v-42.0084h63.31266v42.0084l-31.20624,23.70474z" fill="url(#color-2)" stroke="#000000" stroke-width="0" stroke-linecap="butt"/><g stroke="#000000" stroke-width="0"><path d="M259.22321,169.92481l-9.89636,-80.55446l21.26192,7.68826l9.21558,64.91282z" fill="url(#color-3)" stroke-linecap="butt"/><path d="M275.72284,157.82477l-7.86626,-55.4085" fill="none" stroke-linecap="round"/></g><g stroke="#000000" stroke-width="0"><path d="M360.57767,161.13362l7.25627,-64.91282l21.02986,-7.68827l-7.46491,80.55446z" fill="url(#color-4)" stroke-linecap="butt"/><path d="M364.53402,156.98697l6.19383,-55.4085" fill="none" stroke-linecap="round"/></g><path d="M374.45997,129.33182c-1.94104,28.48816 -27.92848,52.9286 -58.11114,50.8721c-30.18266,-2.05649 -53.13099,-29.83117 -51.18995,-58.31932c1.94104,-28.48815 27.98246,-49.91526 58.16512,-47.85875c30.18266,2.05649 53.07703,26.81782 51.13599,55.30597z" fill="url(#color-5)" stroke="#000000" stroke-width="0" stroke-linecap="butt"/><path d="M261.62784,130.46037v-27.92912c0,0 38.02003,-3.60376 56.93938,-3.60376c18.79922,0 56.21863,3.60376 56.21863,3.60376v27.92913c0,0 -36.80562,4.15481 -55.40518,4.15481c-19.10615,0 -57.75283,-4.15481 -57.75283,-4.15481z" fill="url(#color-6)" stroke="#000000" stroke-width="0" stroke-linecap="butt"/><path d="M277.58241,129.78006c0,0 -11.38436,-11.40598 -11.38436,-13.50238c0,-3.9378 11.38436,-11.11961 11.38436,-11.11961c0,0 26.3717,-3.07943 39.89684,-3.07943c13.9932,0 42.70597,3.07943 42.70597,3.07943c0,0 11.64911,6.39796 11.64911,10.0606c0,4.4064 -11.64911,14.56139 -11.64911,14.56139c0,0 -28.276,2.84256 -42.23221,2.84256c-13.56705,0 -40.37061,-2.84256 -40.37061,-2.84256z" fill="#000000" stroke="none" stroke-width="0" stroke-linecap="butt"/><path d="M265.86663,101.75652l-1.70037,-53.30617l8.0509,-0.18815l1.70038,53.30617z" fill="url(#color-7)" stroke="#000000" stroke-width="0" stroke-linecap="butt"/><path d="M364.97717,101.59203l1.70038,-53.83382l8.0509,0.19002l-1.70037,53.83381z" fill="url(#color-8)" stroke="#000000" stroke-width="0" stroke-linecap="butt"/><path d="M276.51228,45.57307c0,3.8748 -3.43748,7.01595 -7.67782,7.01595c-4.24034,0 -7.67782,-3.14115 -7.67782,-7.01595c0,-3.8748 3.43748,-7.01595 7.67782,-7.01595c4.24034,0 7.67782,3.14115 7.67782,7.01595z" fill="url(#color-9)" stroke="#000000" stroke-width="0" stroke-linecap="butt"/><path d="M378.14698,45.27802c0,3.8748 -3.43748,7.01594 -7.67783,7.01594c-4.24034,0 -7.67783,-3.14114 -7.67783,-7.01594c0,-3.8748 3.43748,-7.01595 7.67783,-7.01595c4.24034,0 7.67783,3.14115 7.67783,7.01595z" fill="url(#color-10)" stroke="#000000" stroke-width="0" stroke-linecap="butt"/><path d="M280.53118,160.86664l-4.02695,-27.47803" fill="none" stroke-opacity="0.2902" stroke="#000000" stroke-width="2.5" stroke-linecap="round"/><path d="M358.22765,164.41983l5.68511,-31.26809" fill="none" stroke-opacity="0.2902" stroke="#000000" stroke-width="2.5" stroke-linecap="round"/><path d="M292.62612,175.05389l9.36648,48.68848" fill="none" stroke-opacity="0.32157" stroke="#000000" stroke-width="2.5" stroke-linecap="round"/><path d="M337.12247,224.12495l8.0909,-48.5973" fill="none" stroke-opacity="0.32157" stroke="#000000" stroke-width="2.5" stroke-linecap="round"/><path d="M368.07697,201.23721l-19.36022,1.08671l2.7308,-30.50643l19.36022,-1.08671l9.57871,14.42313z" fill="url(#color-11)" stroke="#000000" stroke-width="0" stroke-linecap="butt"/><path d="M258.68867,184.94256l10.09188,-14.42313l19.32155,1.08671l1.6454,30.50643l-19.32155,-1.08671z" fill="url(#color-12)" stroke="#000000" stroke-width="0" stroke-linecap="butt"/><path d="M301.01106,97.9189l2.70054,-20.40408" fill="none" stroke-opacity="0.54902" stroke="#000000" stroke-width="2.5" stroke-linecap="round"/><path d="M332.55185,76.85136l5.10102,21.60432" fill="none" stroke-opacity="0.54902" stroke="#000000" stroke-width="2.5" stroke-linecap="round"/><path d="M318.70176,74.75094l0.12636,23.10462" fill="none" stroke-opacity="0.54902" stroke="#000000" stroke-width="2.5" stroke-linecap="round"/><path d="M298.78191,122.38359v-11.421h2.83365v11.421z" fill="#ffffff" stroke="none" stroke-width="0" stroke-linecap="butt"/><path d="M336.36284,122.08272v-11.421h2.83365v11.421z" fill="#ffffff" stroke="none" stroke-width="0" stroke-linecap="butt"/><path d="M303.25103,121.86729l-3.0283,3.60512" fill="none" stroke="#ffffff" stroke-width="2.5" stroke-linecap="round"/><path d="M277.00467,115.31958c0,1.84427 -1.52131,3.33935 -3.39794,3.33935c-1.87663,0 -3.39794,-1.49508 -3.39794,-3.33935c0,-1.84427 1.52131,-3.33935 3.39794,-3.33935c1.87663,0 3.39794,1.49508 3.39794,3.33935z" fill="#ff0000" stroke="none" stroke-width="0" stroke-linecap="butt"/><path d="M346.30333,171.98824c0,0 -22.63453,2.10689 -26.73371,2.10689c-4.09918,0 -24.70092,-2.2802 -24.70092,-2.2802c0,0 7.79618,-2.41511 13.57165,-4.19813c5.79993,-1.79057 11.63748,-4.14794 11.63748,-4.14794c0,0 6.97266,2.36854 12.27048,3.8725c6.88672,1.95502 13.95503,3.28591 13.95503,4.64687z" fill="#000000" stroke="none" stroke-width="0" stroke-linecap="butt"/></g></g></svg>