<svg version="1.1" xmlns="http://www.w3.org/2000/svg" xmlns:xlink="http://www.w3.org/1999/xlink" width="139.53695" height="309.77635" viewBox="0,0,139.53695,309.77635"><defs><radialGradient cx="313.89047" cy="234.30091" r="89.41619" gradientUnits="userSpaceOnUse" id="color-1"><stop offset="0" stop-color="#bebebe"/><stop offset="1" stop-color="#dadada"/></radialGradient><linearGradient x1="319.56477" y1="169.94872" x2="319.56477" y2="235.66186" gradientUnits="userSpaceOnUse" id="color-2"><stop offset="0" stop-color="#fff800"/><stop offset="1" stop-color="#d97200"/></linearGradient><linearGradient x1="264.96013" y1="88.58127" x2="264.96013" y2="169.13573" gradientUnits="userSpaceOnUse" id="color-3"><stop offset="0" stop-color="#fff800"/><stop offset="1" stop-color="#d97200"/></linearGradient><linearGradient x1="375.11528" y1="87.74345" x2="375.11528" y2="168.29791" gradientUnits="userSpaceOnUse" id="color-4"><stop offset="0" stop-color="#fff800"/><stop offset="1" stop-color="#d97200"/></linearGradient><linearGradient x1="320.2041" y1="73.10027" x2="320.2041" y2="179.53589" gradientUnits="userSpaceOnUse" id="color-5"><stop offset="0" stop-color="#454545"/><stop offset="1" stop-color="#bebebe"/></linearGradient><linearGradient x1="318.60139" y1="98.1384" x2="318.60139" y2="133.82609" gradientUnits="userSpaceOnUse" id="color-6"><stop offset="0" stop-color="#f1de00"/><stop offset="1" stop-color="#f28f00"/></linearGradient><linearGradient x1="268.58626" y1="47.56719" x2="270.28663" y2="100.87336" gradientUnits="userSpaceOnUse" id="color-7"><stop offset="0" stop-color="#d97200"/><stop offset="1" stop-color="#fff800"/></linearGradient><linearGradient x1="371.09753" y1="47.06414" x2="369.39716" y2="100.89796" gradientUnits="userSpaceOnUse" id="color-8"><stop offset="0" stop-color="#d97200"/><stop offset="1" stop-color="#fff800"/></linearGradient><radialGradient cx="269.22899" cy="44.78399" r="7.8102" gradientUnits="userSpaceOnUse" id="color-9"><stop offset="0" stop-color="#ffffff"/><stop offset="1" stop-color="#cacaca"/></radialGradient><radialGradient cx="370.86369" cy="44.48894" r="7.8102" gradientUnits="userSpaceOnUse" id="color-10"><stop offset="0" stop-color="#ffffff"/><stop offset="1" stop-color="#cacaca"/></radialGradient><linearGradient x1="350.47669" y1="186.28163" x2="380.76161" y2="184.5817" gradientUnits="userSpaceOnUse" id="color-11"><stop offset="0" stop-color="#fff800"/><stop offset="1" stop-color="#d97200"/></linearGradient><linearGradient x1="289.31934" y1="186.07028" x2="259.0949" y2="184.37035" gradientUnits="userSpaceOnUse" id="color-12"><stop offset="0" stop-color="#fff800"/><stop offset="1" stop-color="#d97200"/></linearGradient></defs><g transform="translate(-249.72139,-37.47299)"><g stroke-miterlimit="10"><path d="M276.63459,343.61071l-1.9552,-147.27579c0,0 6.0833,-25.69821 15.08987,-26.10344c8.94426,-0.40242 30.14472,-0.95905 48.66278,-1.79223c20.08501,-0.90368 26.34246,25.97468 26.34246,25.97468l0.21794,152.83541z" fill="url(#color-1)" stroke="#000000" stroke-width="0" stroke-linecap="butt"/><path d="M287.90844,211.95712v-42.0084h63.31266v42.0084l-31.20624,23.70474z" fill="url(#color-2)" stroke="#000000" stroke-width="0" stroke-linecap="butt"/><g stroke="#000000" stroke-width="0"><path d="M259.61775,169.13573l-9.89636,-80.55446l21.26192,7.68826l9.21558,64.91282z" fill="url(#color-3)" stroke-linecap="butt"/><path d="M276.11738,157.03569l-7.86626,-55.4085" fill="none" stroke-linecap="round"/></g><g stroke="#000000" stroke-width="0"><path d="M360.97221,160.34454l7.25627,-64.91282l21.02986,-7.68827l-7.46491,80.55446z" fill="url(#color-4)" stroke-linecap="butt"/><path d="M364.92856,156.19789l6.19383,-55.4085" fill="none" stroke-linecap="round"/></g><path d="M374.85451,128.54274c-1.94104,28.48816 -27.92848,52.9286 -58.11114,50.8721c-30.18266,-2.05649 -53.13099,-29.83117 -51.18995,-58.31932c1.94104,-28.48815 27.98246,-49.91526 58.16512,-47.85875c30.18266,2.05649 53.07703,26.81782 51.13599,55.30597z" fill="url(#color-5)" stroke="#000000" stroke-width="0" stroke-linecap="butt"/><path d="M262.02238,129.67129v-27.92912c0,0 38.02003,-3.60376 56.93938,-3.60376c18.79922,0 56.21863,3.60376 56.21863,3.60376v27.92913c0,0 -36.80562,4.15481 -55.40518,4.15481c-19.10615,0 -57.75283,-4.15481 -57.75283,-4.15481z" fill="url(#color-6)" stroke="#000000" stroke-width="0" stroke-linecap="butt"/><path d="M277.97695,128.99098c0,0 -11.38436,-11.40598 -11.38436,-13.50238c0,-3.9378 11.38436,-11.11961 11.38436,-11.11961c0,0 26.3717,-3.07943 39.89684,-3.07943c13.9932,0 42.70597,3.07943 42.70597,3.07943c0,0 11.64911,6.39796 11.64911,10.0606c0,4.4064 -11.64911,14.56139 -11.64911,14.56139c0,0 -28.276,2.84256 -42.23221,2.84256c-13.56705,0 -40.37061,-2.84256 -40.37061,-2.84256z" fill="#000000" stroke="none" stroke-width="0" stroke-linecap="butt"/><path d="M266.26117,100.96744l-1.70037,-53.30617l8.0509,-0.18815l1.70038,53.30617z" fill="url(#color-7)" stroke="#000000" stroke-width="0" stroke-linecap="butt"/><path d="M365.37171,100.80295l1.70038,-53.83382l8.0509,0.19002l-1.70037,53.83381z" fill="url(#color-8)" stroke="#000000" stroke-width="0" stroke-linecap="butt"/><path d="M276.90682,44.78399c0,3.8748 -3.43748,7.01595 -7.67782,7.01595c-4.24034,0 -7.67782,-3.14115 -7.67782,-7.01595c0,-3.8748 3.43748,-7.01595 7.67782,-7.01595c4.24034,0 7.67782,3.14115 7.67782,7.01595z" fill="url(#color-9)" stroke="#000000" stroke-width="0" stroke-linecap="butt"/><path d="M378.54152,44.48894c0,3.8748 -3.43748,7.01594 -7.67783,7.01594c-4.24034,0 -7.67783,-3.14114 -7.67783,-7.01594c0,-3.8748 3.43748,-7.01595 7.67783,-7.01595c4.24034,0 7.67783,3.14115 7.67783,7.01595z" fill="url(#color-10)" stroke="#000000" stroke-width="0" stroke-linecap="butt"/><path d="M280.92572,160.07756l-4.02695,-27.47803" fill="none" stroke-opacity="0.2902" stroke="#000000" stroke-width="2.5" stroke-linecap="round"/><path d="M358.62219,163.63075l5.68511,-31.26809" fill="none" stroke-opacity="0.2902" stroke="#000000" stroke-width="2.5" stroke-linecap="round"/><path d="M293.02066,174.26481l9.36648,48.68848" fill="none" stroke-opacity="0.32157" stroke="#000000" stroke-width="2.5" stroke-linecap="round"/><path d="M337.51701,223.33587l8.0909,-48.5973" fill="none" stroke-opacity="0.32157" stroke="#000000" stroke-width="2.5" stroke-linecap="round"/><path d="M368.47151,200.44813l-19.36022,1.08671l2.7308,-30.50643l19.36022,-1.08671l9.57871,14.42313z" fill="url(#color-11)" stroke="#000000" stroke-width="0" stroke-linecap="butt"/><path d="M259.08321,184.15348l10.09188,-14.42313l19.32155,1.08671l1.6454,30.50643l-19.32155,-1.08671z" fill="url(#color-12)" stroke="#000000" stroke-width="0" stroke-linecap="butt"/><path d="M301.4056,97.12982l2.70054,-20.40408" fill="none" stroke-opacity="0.54902" stroke="#000000" stroke-width="2.5" stroke-linecap="round"/><path d="M332.94639,76.06228l5.10102,21.60432" fill="none" stroke-opacity="0.54902" stroke="#000000" stroke-width="2.5" stroke-linecap="round"/><path d="M319.0963,73.96186l0.12636,23.10462" fill="none" stroke-opacity="0.54902" stroke="#000000" stroke-width="2.5" stroke-linecap="round"/><path d="M299.17645,121.59451v-11.421h2.83365v11.421z" fill="#ffffff" stroke="none" stroke-width="0" stroke-linecap="butt"/><path d="M336.75738,121.29364v-11.421h2.83365v11.421z" fill="#ffffff" stroke="none" stroke-width="0" stroke-linecap="butt"/><path d="M303.64557,121.07821l-3.0283,3.60512" fill="none" stroke="#ffffff" stroke-width="2.5" stroke-linecap="round"/><path d="M323.81862,168.78796c0,3.18568 -1.74319,5.76819 -3.89353,5.76819c-2.15034,0 -3.89352,-2.58251 -3.89352,-5.76819c0,-3.18568 1.74318,-5.76819 3.89352,-5.76819c2.15034,0 3.89353,2.58251 3.89353,5.76819z" fill="none" stroke="#000000" stroke-width="2.5" stroke-linecap="butt"/></g></g></svg>