<svg version="1.1" xmlns="http://www.w3.org/2000/svg" xmlns:xlink="http://www.w3.org/1999/xlink" width="232.39337" height="342.58613" viewBox="0,0,232.39337,342.58613"><defs><linearGradient x1="388.74828" y1="88.89547" x2="392.5833" y2="131.86549" gradientUnits="userSpaceOnUse" id="color-1"><stop offset="0" stop-color="#1e006b"/><stop offset="1" stop-color="#0038ff"/></linearGradient><linearGradient x1="227.20311" y1="99.13329" x2="228.16813" y2="142.26331" gradientUnits="userSpaceOnUse" id="color-2"><stop offset="0" stop-color="#210073"/><stop offset="1" stop-color="#0038ff"/></linearGradient><linearGradient x1="315.03738" y1="164.50052" x2="320.19884" y2="257.08346" gradientUnits="userSpaceOnUse" id="color-3"><stop offset="0" stop-color="#2dff00"/><stop offset="1" stop-color="#000000"/></linearGradient><linearGradient x1="314.66643" y1="165.94178" x2="325.75629" y2="343.81057" gradientUnits="userSpaceOnUse" id="color-4"><stop offset="0" stop-color="#dadada"/><stop offset="1" stop-color="#1a1a1a"/></linearGradient><linearGradient x1="245.55257" y1="89.40897" x2="248.01282" y2="133.53947" gradientUnits="userSpaceOnUse" id="color-5"><stop offset="0" stop-color="#ffffff"/><stop offset="1" stop-color="#ffffff" stop-opacity="0"/></linearGradient><linearGradient x1="371.35281" y1="81.53707" x2="373.81306" y2="125.66757" gradientUnits="userSpaceOnUse" id="color-6"><stop offset="0" stop-color="#ffffff"/><stop offset="1" stop-color="#ffffff" stop-opacity="0"/></linearGradient><linearGradient x1="237.643" y1="332.46479" x2="224.94856" y2="69.16201" gradientUnits="userSpaceOnUse" id="color-7"><stop offset="0" stop-color="#ff0000"/><stop offset="0.333" stop-color="#ffff00"/><stop offset="0.5" stop-color="#00ff00"/><stop offset="0.666" stop-color="#00ffff"/><stop offset="0.833" stop-color="#0000ff"/><stop offset="1" stop-color="#ff00ff"/></linearGradient><linearGradient x1="307.07855" y1="71.07819" x2="313.00308" y2="177.34877" gradientUnits="userSpaceOnUse" id="color-8"><stop offset="0" stop-color="#000000" stop-opacity="0.39608"/><stop offset="1" stop-color="#000000" stop-opacity="0"/></linearGradient><linearGradient x1="304.78524" y1="25.82479" x2="308.11404" y2="85.5348" gradientUnits="userSpaceOnUse" id="color-9"><stop offset="0" stop-color="#5b5b5b"/><stop offset="1" stop-color="#ffffff"/></linearGradient></defs><g transform="translate(-193.86885,-11.16198)"><g stroke-miterlimit="10"><path d="M325.63824,74.56403c0,0 74.95796,22.8117 90.71592,27.60726c5.5527,1.68984 9.90806,8.4035 9.90806,8.4035c0,0 -3.42174,-3.74425 -9.90788,-1.93929c-9.40391,2.61691 -22.39905,6.43966 -29.6315,9.46395c-11.12738,4.65298 -29.45737,16.9181 -29.45737,16.9181z" fill="url(#color-1)" stroke="#000000" stroke-width="0" stroke-linecap="butt"/><path d="M263.61744,141.47014c0,0 -18.17558,-11.05784 -29.63403,-14.41085c-6.98822,-2.04491 -19.34137,-3.94646 -29.11091,-5.25086c-8.11137,-1.08301 -11.00365,1.3206 -11.00365,1.3206c0,0 3.34005,-6.09166 9.46468,-8.8175c15.14251,-6.73936 78.87114,-35.10255 78.87114,-35.10255z" fill="url(#color-2)" stroke="#000000" stroke-width="0" stroke-linecap="butt"/><path d="M269.5538,258.01729l-3.81367,-56.34367c0,0 -0.83598,-12.32259 0.0291,-13.2929c2.65341,-2.97615 6.62626,-17.13527 14.63552,-17.74049c10.54701,-0.79697 37.18879,-2.57131 59.02516,-4.22136c23.68411,-1.78967 25.27942,25.47301 25.27942,25.47301l9.30522,62.19137z" fill="url(#color-3)" stroke="#000000" stroke-width="0" stroke-linecap="butt"/><path d="M272.74167,343.1345c0,0 -1.28397,-15.23355 -3.76184,-41.42428c-1.06358,-11.24197 -3.68086,-35.14628 -4.3162,-43.21614c-1.53772,-19.53154 -3.44404,-61.70862 -3.44404,-61.70862c0,0 5.83974,-25.97415 16.82002,-26.99074c3.14445,-0.29112 7.5335,-0.66443 12.7292,-1.09843c0.79383,0.94609 -2.35704,1.99785 -2.60721,3.91036c-0.29053,2.22119 2.26301,5.39624 2.66141,7.65963c0.37563,2.13396 3.2748,4.45814 4.42312,4.96736c2.34757,1.04103 6.42115,4.72137 9.06862,5.04539c2.54438,0.31141 15.99564,0.04282 18.56026,-0.72892c4.6271,-1.39239 11.15428,-6.60155 11.97473,-11.41034c0.44992,-2.63706 5.10414,-4.55063 4.40975,-6.83649c-0.66418,-2.18641 -6.70802,-4.76767 -5.06457,-6.3128c1.07134,-0.09751 2.1373,-0.19534 3.19604,-0.29335c24.48643,-2.26703 33.7994,24.04022 33.7994,24.04022c0,0 2.14791,65.65578 3.88251,92.71368c0.66468,10.36819 3.35974,26.69431 4.54365,37.95525c1.43288,13.629 1.31786,21.32812 1.31786,21.32812c0,0 -42.01814,12.56685 -61.84143,13.0066c-14.65772,0.32516 -46.35128,-10.60651 -46.35128,-10.60651z" fill="url(#color-4)" stroke="#000000" stroke-width="0" stroke-linecap="butt"/><path d="M250.55399,128.99629c-0.63685,0.97862 -3.01292,1.57261 -4.89372,2.252c-0.30816,0.11132 -1.8236,0.70646 -2.59483,0.57258c-1.84963,-0.32109 -1.44098,-1.84989 -4.06056,-2.31736c-2.62527,-0.4685 -5.04262,0.27132 -7.55432,-0.21062c-2.38852,-0.4583 -1.98865,-1.85587 -4.34318,-2.34614c-2.36245,-0.49192 -5.56285,0.46301 -7.19758,-0.29433c-3.79537,-1.75831 -4.38609,-3.63999 1.42355,-3.95304" fill="#211fff" stroke-opacity="0.4902" stroke="#000000" stroke-width="2.5" stroke-linecap="round"/><path d="M399.385,109.49925c5.72988,-1.10215 5.54851,0.55403 2.21682,2.85796c-1.43502,0.99234 -4.75556,0.96805 -6.95573,1.91592c-2.1928,0.94468 -1.50988,1.97921 -3.74252,2.90602c-2.34778,0.9746 -4.85976,0.94131 -7.32108,1.93156c-2.45599,0.9881 -1.737,2.12646 -3.47301,2.81689c-0.72386,0.28789 -2.32615,0.16102 -2.64994,0.14306c-1.97619,-0.10966 -4.41734,-0.03489 -5.24345,-0.67609" fill="#211fff" stroke-opacity="0.4902" stroke="#000000" stroke-width="2.5" stroke-linecap="round"/><path d="M266.00906,132.53619c0,0 -13.14155,-7.99518 -21.42639,-10.41951c-9.24785,-2.70613 -31.48999,-5.06501 -31.48999,-5.06501l66.35557,-29.53236z" fill="url(#color-5)" stroke-opacity="0.50196" stroke="#000000" stroke-width="0" stroke-linecap="butt"/><path d="M336.57591,83.47587l70.9895,21.87543c0,0 -22.41519,4.8485 -31.54071,8.57894c-8.17526,3.34198 -20.67573,12.76669 -20.67573,12.76669z" fill="url(#color-6)" stroke-opacity="0.50196" stroke="#000000" stroke-width="0" stroke-linecap="butt"/><path d="M364.73034,123.39266c-0.35229,28.55204 -24.93901,54.40113 -55.18935,54.02787c-30.25033,-0.37324 -54.70912,-26.82749 -54.35682,-55.37951c0.35229,-28.55203 25.16064,-51.39546 55.41098,-51.0222c30.25033,0.37324 54.48751,23.82181 54.13521,52.37384z" fill="url(#color-7)" stroke="#000000" stroke-width="0" stroke-linecap="butt"/><path d="M364.73034,123.39266c-0.35229,28.55204 -24.93901,54.40113 -55.18935,54.02787c-30.25033,-0.37324 -54.70912,-26.82749 -54.35682,-55.37951c0.35229,-28.55203 25.16064,-51.39546 55.41098,-51.0222c30.25033,0.37324 54.48751,23.82181 54.13521,52.37384z" fill="url(#color-8)" stroke="#000000" stroke-width="0" stroke-linecap="butt"/><g fill-opacity="0.46667" fill="#000000" stroke="none" stroke-width="0.5" stroke-linecap="butt"><path d="M291.29052,205.38329c0.8945,-0.41697 1.31146,0.47754 1.31146,0.47754l0.20841,0.65083c2.54491,0.4505 4.13545,-2.56085 2.47721,-4.58033c-0.83026,-1.01113 -2.38796,-1.10451 -3.17865,-2.06774c-2.40526,-2.93013 2.30796,-4.15619 4.3392,-4.08224c0,0 0.98595,0.04339 0.94257,1.02935c-0.04339,0.98595 -1.02935,0.94257 -1.02935,0.94257c-0.2924,-0.01575 -0.58556,-0.07355 -0.87721,-0.04726c-0.31941,0.0288 -0.63735,0.10127 -0.93871,0.21097c-2.25586,0.82114 -0.10301,0.84041 1.13093,1.73892c0.92077,0.67047 1.59938,1.40103 1.98183,2.5078c1.47986,4.28258 -2.37977,7.14352 -6.14015,5.83988l-0.70507,-1.30882c0,0 -0.41696,-0.89451 0.47754,-1.31147z"/><path d="M308.66664,211.14616c-0.60019,0.03346 -0.85519,-0.31903 -0.96284,-0.59972c-2.0939,-2.19813 -4.24698,-5.2703 -4.7083,-8.31497c-0.15098,0.19275 -0.29353,0.39388 -0.42661,0.60422c0,0 -0.03018,0.04678 -0.08733,0.11094c0.25236,2.00824 0.44796,4.02574 0.71496,6.02155l0.1544,0.98541c0,0 0.15271,0.97503 -0.82231,1.12774c-0.97502,0.15271 -1.12774,-0.82231 -1.12774,-0.82231l-0.15778,-1.00775c-0.54555,-4.1097 -0.77824,-8.32668 -1.87627,-12.34146c0,0 -0.26018,-0.952 0.69182,-1.21218c0.952,-0.26018 1.21218,0.69182 1.21218,0.69182c0.34987,1.28108 0.61438,2.58086 0.82985,3.89057c1.33858,-1.38784 3.01085,-2.38664 4.77213,-3.29057l0.55339,-0.18707c0,0 0.94264,-0.29228 1.23493,0.65036c0.29228,0.94264 -0.65035,1.23492 -0.65035,1.23492l-0.23716,0.05807c-1.11858,0.57335 -2.23949,1.18788 -3.22217,1.95592c0.31453,0.27529 0.3393,0.71951 0.3393,0.71951c0.13251,2.83621 2.47646,5.97043 4.42079,7.94917l0.28557,0.7355c0,0 0.05494,0.98538 -0.93044,1.04031z"/><path d="M312.86456,210.71106c-0.98539,0.05493 -1.04033,-0.93045 -1.04033,-0.93045l-0.0064,-0.20287c-0.51905,-3.314 -1.20765,-6.7034 -2.048,-9.94372c0,0 -0.24712,-0.95548 0.70835,-1.20259c0.95548,-0.24712 1.20259,0.70836 1.20259,0.70836c0.85219,3.30346 1.55819,6.75558 2.0871,10.13254l0.02712,0.39843c0,0 0.05494,0.98539 -0.93045,1.04032z"/><path d="M319.55644,208.9286c2.44173,-3.28941 -2.69862,-5.33472 -2.1405,-7.66046c0.30378,-1.26589 3.20831,-1.14402 3.02452,-2.83223c-0.25062,-2.30189 -2.09058,-1.60829 -3.59351,-0.63733c0,0 -0.05393,0.03403 -0.14302,0.07105c0.64417,3.69557 1.05653,7.5109 1.28096,11.24078c0.52596,0.25755 0.77394,0.1111 1.57155,-0.18183zM318.27409,195.07414c7.02269,-1.45515 2.85462,6.27514 1.40539,6.7021c0.57289,0.50334 1.54815,1.53637 1.78381,2.12337c0.96426,2.40181 0.89061,4.58394 -0.72405,6.6092c-1.79633,0.73909 -2.49262,0.97458 -4.21019,0.03303l-0.57869,-0.75025c0,0 -0.3352,-0.58633 0.03403,-1.0662c-0.24816,-3.90577 -0.71554,-7.90346 -1.4464,-11.73254c0,0 -0.18469,-0.96947 0.78479,-1.15416c0.3298,-0.06282 0.56876,0.00791 0.74055,0.1286c0.68957,-0.40122 1.43335,-0.73205 2.21076,-0.89313z"/><path d="M325.46392,210.19627c-0.96294,0.21618 -1.17913,-0.74676 -1.17913,-0.74676l-0.15619,-0.75697c-0.22358,-4.04029 -0.751,-8.06146 -0.97668,-12.10951c0,0 -0.05494,-0.98538 0.93045,-1.04031c0.98539,-0.05493 1.04032,0.93044 1.04032,0.93044c0.2257,4.04851 0.74982,8.06861 0.97668,12.10951l0.11131,0.43446c0,0 0.21617,0.96295 -0.74677,1.17913z"/><path d="M337.54069,211.54701c-0.98539,0.05493 -1.04033,-0.93045 -1.04033,-0.93045l-0.06289,-1.14339c0.02512,-0.93673 0.04794,-1.88048 0.05778,-2.82716c-0.25807,2.20379 -1.40809,4.04294 -4.12332,4.48203l-1.09834,-0.04193c0,0 -0.98208,-0.05404 -0.93147,-1.03465c-0.13641,0.16982 -0.35569,0.30822 -0.70777,0.32785c-0.98539,0.05493 -1.04033,-0.93044 -1.04033,-0.93044l-0.00081,-0.10266c-0.62523,-4.00114 -0.85053,-7.95548 -1.07609,-12.00127c0,0 -0.05494,-0.98538 0.93045,-1.04031c0.32633,-0.01819 0.55063,0.07772 0.70467,0.21415c0.78739,-0.7571 1.79312,-1.445 2.89785,-1.06116c1.75522,0.60987 2.6059,3.12584 3.26472,4.62645c0.55658,1.26771 1.01255,2.81857 1.17492,4.35576c-0.04274,-2.4258 -0.2245,-4.84981 -0.72382,-7.20339c0,0 -0.20412,-0.96558 0.76145,-1.16971c0.96558,-0.20413 1.1697,0.76144 1.1697,0.76144c0.86714,4.11532 0.83188,8.42897 0.71404,12.61712l0.06003,1.0614c0,0 0.05494,0.98539 -0.93045,1.04032zM331.38203,209.11528l0.71675,0.05795c4.635,-0.49474 1.80547,-7.56523 0.63495,-9.91228c-0.14969,-0.30017 -0.72187,-1.64407 -1.24269,-1.91031c-0.44875,-0.2294 -1.48789,1.1233 -1.61249,1.26532c0,0 -0.11394,0.12739 -0.29998,0.22874c0.19692,3.42321 0.43055,6.79305 0.96471,10.19613l0.02154,0.29821c0,0 0.0022,0.03936 -0.00216,0.1028c0.30606,-0.35478 0.81938,-0.32654 0.81938,-0.32654z"/><path d="M300.03802,213.55408c0.05493,0.98539 -0.93045,1.04031 -0.93045,1.04031l-0.82654,0.04317c-1.25509,0.16654 -2.51886,0.26168 -3.78472,0.33341c0.32086,3.97935 1.42664,7.81291 1.65245,11.76811l0.07982,0.15793c0,0 0.29229,0.94264 -0.65035,1.23493c-0.94264,0.29228 -1.23492,-0.65035 -1.23492,-0.65035l-0.16532,-0.63263c-0.2144,-3.95048 -1.33236,-7.79808 -1.65317,-11.77853c-0.54357,0.02591 -1.0869,0.05208 -1.62946,0.08233c0,0 -0.98539,0.05494 -1.04032,-0.93044c-0.05493,-0.98539 0.93045,-1.04033 0.93045,-1.04033c2.4112,-0.13442 4.84086,-0.18058 7.23484,-0.50095l0.97737,-0.05739c0,0 0.9854,-0.05494 1.04033,0.93045z"/><path d="M303.65299,214.69821c-6.99642,3.93934 2.9141,17.70333 3.14467,5.83235c0.06309,-1.49044 -0.2622,-4.55022 -1.90915,-5.03677l-0.3647,-0.00845c0,0 -0.77075,-0.0847 -0.87081,-0.78713zM304.26396,213.58197c0.24796,-0.08366 0.4755,-0.05865 0.4755,-0.05865l0.84908,0.12493c2.54473,1.08087 3.25705,4.35937 3.18202,6.94388c-0.5725,16.85551 -16.81837,-1.17461 -5.97625,-7.67371c0,0 0.8568,-0.48981 1.34661,0.36697c0.05966,0.10438 0.09936,0.2033 0.12304,0.29656z"/><path d="M312.65342,228.36515c-0.91744,0.36372 -1.28117,-0.55373 -1.28117,-0.55373l-0.14218,-0.3665c-1.4442,-4.66127 -1.06256,-9.51407 -1.33161,-14.34002c0,0 -0.05494,-0.98539 0.93045,-1.04032c0.98539,-0.05493 1.04032,0.93045 1.04032,0.93045c0.25934,4.65184 -0.14698,9.37614 1.24612,13.86532l0.09179,0.22364c0,0 0.36372,0.91745 -0.55372,1.28117z"/><path d="M324.00802,224.79658c0.43865,0.88407 -0.44541,1.32272 -0.44541,1.32272l-0.81114,0.3919c-8.01656,2.61306 -7.41997,-7.77305 -6.77804,-12.91652c0,0 0.12221,-0.97932 1.10154,-0.8571c0.97932,0.12223 0.85709,1.10154 0.85709,1.10154c-0.44278,3.5478 -1.75205,12.84035 4.19487,10.79965l0.55838,-0.28763c0,0 0.88407,-0.43865 1.32272,0.44543z"/><path d="M332.60966,217.16677c0.05493,0.98539 -0.93046,1.04032 -0.93046,1.04032l-0.59518,0.01399c-1.74493,-0.25817 -3.57687,-0.00678 -5.34562,0.11366c0.09532,1.55821 0.53803,2.84134 1.0138,4.33721c0.14884,0.46794 0.34852,1.72108 1.01141,1.88468c0.80547,0.19879 1.67808,-0.30825 2.35946,-0.62934l0.11413,-0.11211c0,0 0.78942,-0.5923 1.38173,0.19712c0.5923,0.78942 -0.19711,1.38171 -0.19711,1.38171l-0.46481,0.32229c-1.15529,0.53359 -2.47702,1.15505 -3.79813,0.71923c-2.57161,-0.84832 -3.26724,-5.86187 -3.39586,-8.07186c-0.10311,-1.77175 -0.5871,-4.30802 0.96731,-5.65666c1.40543,-1.21937 3.72496,-0.78639 5.34731,-0.47969c0,0 0.96929,0.18569 0.7836,1.15498c-0.18569,0.96929 -1.15499,0.7836 -1.15499,0.7836c-0.91031,-0.17702 -2.82561,-0.67975 -3.67222,0.02313c-0.47675,0.3958 -0.53755,1.29582 -0.48628,2.18074c1.93207,-0.12215 3.8991,-0.36771 5.81504,-0.10275l0.20655,-0.03071c0,0 0.98539,-0.05494 1.04032,0.93044z"/><path d="M338.29225,226.63421c-0.91744,0.36372 -1.28117,-0.55372 -1.28117,-0.55372l-0.12518,-0.3165c-1.42175,-3.85016 -2.48343,-7.77999 -0.79528,-11.74654c0,0 0.39154,-0.90593 1.29746,-0.51439c0.90592,0.39154 0.51439,1.29747 0.51439,1.29747c-1.5145,3.43903 -0.39591,6.95571 0.83475,10.27887l0.10876,0.27364c0,0 0.36372,0.91745 -0.55371,1.28117z"/><path d="M343.25777,213.59654c-0.08497,0.98325 -1.06821,0.89827 -1.06821,0.89827l-0.82842,-0.07924c-2.24926,-0.48996 -4.92336,-0.61545 -7.20519,-0.27125c0,0 -0.97637,0.14392 -1.12028,-0.83244c-0.14392,-0.97636 0.83244,-1.12028 0.83244,-1.12028c2.52783,-0.36512 5.41035,-0.23083 7.90559,0.29375l0.5858,0.04297c0,0 0.98325,0.08497 0.89827,1.06823z"/></g><path d="M277.45428,81.03283l27.62509,-55.22444l33.02274,52.17981c0,0 -2.16433,2.72662 -9.86704,4.74164c-6.52478,1.70687 -18.25768,2.72708 -23.19977,2.97518c-4.23248,0.21248 -14.16682,-0.55448 -19.61043,-1.66834c-6.36807,-1.30303 -7.97058,-3.00384 -7.97058,-3.00384z" fill="url(#color-9)" stroke="#000000" stroke-width="0" stroke-linecap="butt"/><path d="M307.69404,51.23267c0.05589,3.56526 -2.67787,6.49905 -6.10602,6.55278c-3.42813,0.05373 -6.25251,-2.79292 -6.30839,-6.35819c-0.05589,-3.56526 2.67788,-6.49905 6.10602,-6.55279c3.42814,-0.05373 6.2525,2.79292 6.30838,6.3582z" fill="#1dff00" stroke="#000000" stroke-width="0" stroke-linecap="butt"/><path d="M325.58113,70.09587c0.05589,3.56526 -2.67787,6.49906 -6.10602,6.5528c-3.42813,0.05373 -6.25252,-2.79293 -6.3084,-6.3582c-0.05589,-3.56526 2.67788,-6.49904 6.10603,-6.55278c3.42814,-0.05373 6.25251,2.79292 6.30838,6.35818z" fill="#fa00ff" stroke="#000000" stroke-width="0" stroke-linecap="butt"/><path d="M298.78049,76.7247c0.05589,3.56526 -2.67787,6.49906 -6.10602,6.55279c-3.42813,0.05373 -6.25251,-2.79293 -6.30839,-6.3582c-0.05589,-3.56526 2.67788,-6.49905 6.10602,-6.55279c3.42814,-0.05373 6.25251,2.79292 6.30838,6.35819z" fill="#0007ff" stroke="#000000" stroke-width="0" stroke-linecap="butt"/><path d="M318.98736,27.00712l-30.57437,-0.43322" fill="none" stroke="#000000" stroke-width="2.5" stroke-linecap="round"/><path d="M317.74413,35.01067l-12.4368,-7.56101l-1.14817,-15.03768" fill="none" stroke="#000000" stroke-width="2.5" stroke-linecap="round"/><path d="M304.39506,27.46397l-10.61874,6.55371" fill="none" stroke="#000000" stroke-width="2.5" stroke-linecap="round"/><path d="M344.99845,97.03808c0,0 -4.01223,34.98483 -6.08437,44.95435c-1.01948,4.90491 -5.62306,11.37247 -5.62306,11.37247l-9.46597,-4.00133l-11.61702,9.12382l-12.283,-9.28348l-6.61384,6.19583l-11.58832,-12.51033l-11.40748,-36.36373l13.92662,2.08093l22.76173,-7.41007l27.97238,5.87732l10.02235,-10.03577z" fill="#000000" stroke="#000000" stroke-width="2.5" stroke-linecap="round"/><path d="M273.71032,108.17425l12.3735,1.27237l22.55252,-6.12215l27.02842,5.91217l6.84027,-6.33208l-4.54305,23.02904l-2.46079,-15.77661l-4.92317,14.28095l-7.0094,-15.75566l-6.71225,14.72623l-6.4926,-14.86576l-5.76713,15.23176l-8.68468,-13.67204l-3.00842,12.36922l-9.13751,-10.36487l-4.07999,10.04329l-4.17324,-10.95223z" fill="#ffffff" stroke="#ffffff" stroke-width="1.5" stroke-linecap="round"/><path d="M294.54885,152.71065l-8.59539,-9.11089l6.8537,-2.86317l5.98604,4.29729l12.56079,-5.85763l13.74772,4.68039l11.51531,-4.53262l-3.04635,11.82311l-11.55483,-2.58725l-9.49863,7.36407l-11.68206,-7.69452z" fill="#ffffff" stroke="#ffffff" stroke-width="1.5" stroke-linecap="round"/></g></g></svg>