<svg version="1.1" xmlns="http://www.w3.org/2000/svg" xmlns:xlink="http://www.w3.org/1999/xlink" width="34.17311" height="34.17311" viewBox="0,0,34.17311,34.17311"><g transform="translate(-302.91346,-162.91346)"><g data-paper-data="{&quot;isPaintingLayer&quot;:true}" stroke="none" stroke-miterlimit="10" stroke-dasharray="" stroke-dashoffset="0" style="mix-blend-mode: normal"><path d="M309.98312,162.91347h20.03379c3.9166,0 7.06966,3.15307 7.06966,7.06966v20.03379c0,3.91659 -3.15306,7.06966 -7.06966,7.06966h-20.03379c-3.91659,0 -7.06966,-3.15307 -7.06966,-7.06966v-20.03379c0,-3.91659 3.15307,-7.06966 7.06966,-7.06966z" fill="#ffe900" fill-rule="evenodd" stroke-width="4.43922" stroke-linecap="round" stroke-linejoin="round"/><g fill="#000000" fill-rule="nonzero" stroke-width="0.5" stroke-linecap="butt" stroke-linejoin="miter"><path d="M323.90877,175.34649c-0.90729,0.11341 -1.02069,-0.79387 -1.02069,-0.79387l-0.12356,-1.00311c-0.33465,-1.3003 -1.59114,-3.84489 -1.72985,-5.64262c-0.20794,0.32667 -0.45751,0.6328 -0.66278,0.96075c-0.88194,1.40905 -1.44173,2.68066 -2.09677,4.20907c0,0 -0.36017,0.84042 -1.20059,0.48024c-0.84042,-0.36018 -0.48024,-1.20059 -0.48024,-1.20059c0.87333,-2.03775 1.74465,-4.32663 3.2102,-6.03055c0.46006,-0.53489 0.90201,-1.602 1.58034,-1.408c1.88412,0.53886 2.79324,6.78673 3.17632,8.29089l0.14147,1.1171c0,0 0.11342,0.90729 -0.79386,1.02069z"/><path d="M322.7491,187.80351c0.00631,-0.13256 0.07891,-0.8948 0.91374,-0.8948c0.91434,0 0.91434,0.91434 0.91434,0.91434l-0.04692,0.42166c-0.56499,1.68223 -2.4249,6.53333 -4.45204,6.8533c-0.63991,0.101 -0.98326,-0.84927 -1.41497,-1.3323c-1.46409,-1.63816 -2.51019,-3.90544 -3.04318,-5.98592c0,0 -0.22176,-0.88704 0.66528,-1.1088c0.88704,-0.22176 1.1088,0.66528 1.1088,0.66528c0.44916,1.85013 1.26893,2.99839 2.27945,4.6031c0.24764,0.39325 0.23218,1.75591 0.41813,1.33001c0.80718,-1.84879 1.98715,-3.52449 2.65736,-5.46587z"/><path d="M315.21326,176.70405c0.15098,0.90179 -0.7508,1.05278 -0.7508,1.05278l-0.99711,0.16511c-1.28528,0.38835 -3.77551,1.74943 -5.56592,1.96266c0.33502,0.1942 0.65125,0.43084 0.98744,0.62231c1.44446,0.82267 2.73822,1.32918 4.29251,1.92018c0,0 0.85465,0.32496 0.52968,1.17961c-0.32497,0.85465 -1.17961,0.52968 -1.17961,0.52968c-2.07226,-0.78796 -4.39535,-1.56348 -6.15865,-2.95701c-0.55354,-0.43746 -1.63807,-0.8347 -1.47241,-1.52051c0.46015,-1.90487 6.66489,-3.07266 8.15184,-3.51787l1.11026,-0.18774c0,0 0.90179,-0.15099 1.05278,0.7508z"/><path d="M327.7077,177.34543c-0.13272,-0.00081 -0.89731,-0.04168 -0.93197,-0.87579c-0.03797,-0.91356 0.87558,-0.95152 0.87558,-0.95152l0.42325,0.02937c1.70424,0.49464 6.62838,2.15151 7.03226,4.16361c0.12749,0.63517 -0.80771,1.01768 -1.2724,1.46907c-1.57595,1.53085 -3.79784,2.6702 -5.85439,3.28912c0,0 -0.87707,0.2584 -1.13547,-0.61867c-0.2584,-0.87706 0.61866,-1.13547 0.61866,-1.13547c1.82988,-0.52561 2.94311,-1.39234 4.50448,-2.46863c0.38263,-0.26376 1.74476,-0.30489 1.3115,-0.47299c-1.88072,-0.72971 -3.60397,-1.83908 -5.5715,-2.4281z"/><path d="M325.96254,179.92158c-0.7158,-0.56891 -0.14689,-1.28471 -0.14689,-1.28471l0.63027,-0.7901c0.69493,-1.14884 1.63393,-3.8269 2.82136,-5.18376c-0.37889,0.07998 -0.77222,0.11584 -1.15015,0.19862c-1.62381,0.35569 -2.92401,0.84538 -4.47435,1.4467c0,0 -0.85247,0.33064 -1.18311,-0.52182c-0.33064,-0.85246 0.52182,-1.18311 0.52182,-1.18311c2.06698,-0.8017 4.31198,-1.78053 6.55478,-1.92553c0.70405,-0.04551 1.7757,-0.47635 2.11168,0.14405c0.93319,1.7232 -2.89483,6.74403 -3.70153,8.07011l-0.69918,0.88265c0,0 -0.56891,0.71581 -1.28471,0.1469z"/><path d="M316.2507,187.80843c0.09913,-0.08823 0.69454,-0.56966 1.27862,0.02682c0.63971,0.65329 -0.01358,1.293 -0.01358,1.293l-0.3341,0.26148c-1.59724,0.77327 -6.36459,2.8384 -8.01148,1.61388c-0.51988,-0.38655 -0.08113,-1.29673 -0.03805,-1.94313c0.14612,-2.19221 1.0342,-4.52593 2.14779,-6.36232c0,0 0.47863,-0.77905 1.25769,-0.30042c0.77906,0.47863 0.30042,1.25769 0.30042,1.25769c-1.00765,1.61535 -1.25455,3.00444 -1.6941,4.84917c-0.10772,0.45208 -1.09216,1.3944 -0.65775,1.22928c1.88569,-0.71676 3.90852,-1.04607 5.76453,-1.92546z"/><path d="M318.90886,174.65848c-0.53869,0.73881 -1.2775,0.20012 -1.2775,0.20012l-0.81558,-0.59691c-1.17671,-0.64662 -3.89146,-1.47362 -5.29645,-2.60368c0.09564,0.37524 0.14781,0.76675 0.24622,1.14091c0.42282,1.60763 0.96607,2.88639 1.63126,4.41042c0,0 0.36576,0.838 -0.47224,1.20376c-0.83801,0.36576 -1.20376,-0.47224 -1.20376,-0.47224c-0.88684,-2.0319 -1.95806,-4.23433 -2.19607,-6.46918c-0.07471,-0.70156 -0.54967,-1.75439 0.05624,-2.11584c1.68296,-1.00394 6.85842,2.61228 8.21685,3.36321l0.91093,0.66193c0,0 0.73881,0.53868 0.20012,1.27749z"/><path d="M327.1922,184.03445c-0.09227,-0.09538 -0.59802,-0.67029 -0.0263,-1.27864c0.62617,-0.66629 1.29246,-0.04012 1.29246,-0.04012l0.27513,0.32295c0.83893,1.56375 3.10024,6.24123 1.94517,7.93755c-0.36462,0.53547 -1.29224,0.13492 -1.93986,0.11871c-2.19639,-0.05497 -4.56497,-0.84536 -6.44603,-1.88174c0,0 -0.79826,-0.44588 -0.35239,-1.24413c0.44588,-0.79826 1.24414,-0.35239 1.24414,-0.35239c1.6558,0.93971 3.05394,1.1287 4.91533,1.49129c0.45616,0.08885 1.43855,1.03331 1.25553,0.60613c-0.79444,-1.8543 -1.20746,-3.86171 -2.16317,-5.6796z"/></g></g></g></svg>