<svg version="1.1" xmlns="http://www.w3.org/2000/svg" xmlns:xlink="http://www.w3.org/1999/xlink" width="180.71893" height="380.33175" viewBox="0,0,180.71893,380.33175"><defs><linearGradient x1="347.41081" y1="133.2834" x2="325.87834" y2="346.42009" gradientUnits="userSpaceOnUse" id="color-1"><stop offset="0" stop-color="#2982c1"/><stop offset="1" stop-color="#000000"/></linearGradient><radialGradient cx="347.92512" cy="147.14085" r="17.40649" gradientUnits="userSpaceOnUse" id="color-2"><stop offset="0" stop-color="#922fd5"/><stop offset="1" stop-color="#7520a6"/></radialGradient><linearGradient x1="422.06392" y1="86.152" x2="380.43403" y2="93.53956" gradientUnits="userSpaceOnUse" id="color-3"><stop offset="0" stop-color="#a636f3"/><stop offset="1" stop-color="#581b7d"/></linearGradient><linearGradient x1="260.0655" y1="119.98793" x2="301.69533" y2="112.60039" gradientUnits="userSpaceOnUse" id="color-4"><stop offset="0" stop-color="#a636f3"/><stop offset="1" stop-color="#581b7d"/></linearGradient><linearGradient x1="334.37174" y1="27.62679" x2="342.94016" y2="145.25977" gradientUnits="userSpaceOnUse" id="color-5"><stop offset="0" stop-color="#4c166c"/><stop offset="1" stop-color="#a636f3"/></linearGradient><radialGradient cx="294.00898" cy="59.51204" r="27.67334" gradientUnits="userSpaceOnUse" id="color-6"><stop offset="0" stop-color="#000000" stop-opacity="0.92549"/><stop offset="1" stop-color="#000000" stop-opacity="0"/></radialGradient><linearGradient x1="240.9045" y1="41.60899" x2="310.92182" y2="37.30691" gradientUnits="userSpaceOnUse" id="color-7"><stop offset="0" stop-color="#a636f3"/><stop offset="1" stop-color="#16031b"/></linearGradient><radialGradient cx="369.27207" cy="40.36508" r="27.1508" gradientUnits="userSpaceOnUse" id="color-8"><stop offset="0" stop-color="#000000" stop-opacity="0.92549"/><stop offset="1" stop-color="#000000" stop-opacity="0"/></radialGradient><linearGradient x1="412.80465" y1="8.2242" x2="345.47458" y2="28.2955" gradientUnits="userSpaceOnUse" id="color-9"><stop offset="0" stop-color="#a636f3"/><stop offset="1" stop-color="#16031b"/></linearGradient><radialGradient cx="305.8082" cy="82.44653" r="4.14909" gradientUnits="userSpaceOnUse" id="color-10"><stop offset="0" stop-color="#ffffff"/><stop offset="1" stop-color="#ffffff" stop-opacity="0"/></radialGradient><radialGradient cx="304.93252" cy="81.4943" r="2.44577" gradientUnits="userSpaceOnUse" id="color-11"><stop offset="0" stop-color="#ffffff"/><stop offset="1" stop-color="#ffffff" stop-opacity="0"/></radialGradient><radialGradient cx="306.94059" cy="83.45988" r="2.44577" gradientUnits="userSpaceOnUse" id="color-12"><stop offset="0" stop-color="#ffffff"/><stop offset="1" stop-color="#ffffff" stop-opacity="0"/></radialGradient><radialGradient cx="365.02821" cy="67.7212" r="4.14909" gradientUnits="userSpaceOnUse" id="color-13"><stop offset="0" stop-color="#ffffff"/><stop offset="1" stop-color="#ffffff" stop-opacity="0"/></radialGradient><radialGradient cx="365.75665" cy="66.65207" r="2.44577" gradientUnits="userSpaceOnUse" id="color-14"><stop offset="0" stop-color="#ffffff"/><stop offset="1" stop-color="#ffffff" stop-opacity="0"/></radialGradient><radialGradient cx="364.05461" cy="68.88796" r="2.44577" gradientUnits="userSpaceOnUse" id="color-15"><stop offset="0" stop-color="#ffffff"/><stop offset="1" stop-color="#ffffff" stop-opacity="0"/></radialGradient></defs><g transform="translate(-238.27372,32.49177)"><g stroke-miterlimit="10"><path d="M279.82242,340.71068c0,0 3.82762,-42.97217 7.57221,-85.01215c0.60105,-6.74779 -3.76641,-32.24979 -3.76641,-32.24979c0,0 6.47822,1.80444 6.91708,-3.12249c0.32115,-3.60565 -4.87199,-35.60229 -4.87199,-35.60229c0,0 7.9778,0.73379 8.46724,-4.76099c0.38486,-4.32085 -5.22738,-30.61308 -5.22738,-30.61308l7.50415,2.88192c0,0 8.64919,-17.53114 18.3379,-17.72938c9.62169,-0.19685 32.38003,-0.19006 52.30066,-0.59765c21.60624,-0.44206 24.65477,13.49338 24.65477,13.49338l8.72794,-0.63449l-9.3801,36.09275l3.95136,6.72728l-7.65251,28.97627l3.22983,9.67346c0,0 -6.40892,20.99402 -7.15551,28.196c-4.63693,44.73066 -9.47592,91.41055 -9.47592,91.41055z" fill="url(#color-1)" stroke="#000000" stroke-width="0" stroke-linecap="butt"/><path d="M371.34764,148.07406c-1.2962,10.14472 -12.68016,17.71998 -25.42679,16.91983c-12.74662,-0.80015 -22.02904,-9.67271 -20.73284,-19.81745c1.2962,-10.14472 12.68014,-17.71998 25.42677,-16.91983c12.74662,0.80015 22.02905,9.67272 20.73285,19.81745z" fill="#f2f2f2" stroke="#000000" stroke-width="0" stroke-linecap="butt"/><path d="M365.2654,148.22942c-0.97386,7.62191 -9.52684,13.31335 -19.10362,12.71218c-9.57678,-0.60117 -16.55081,-7.26728 -15.57695,-14.88921c0.97386,-7.62191 9.52683,-13.31335 19.10361,-12.71218c9.57678,0.60117 16.55082,7.26729 15.57696,14.88921z" fill="url(#color-2)" stroke="#000000" stroke-width="0" stroke-linecap="butt"/><path d="M308.47119,221.31845l26.93682,-13.62914l19.45344,15.38905l16.80444,-6.91098" fill="none" stroke="#ffffff" stroke-width="1.5" stroke-linecap="round"/><path d="M307.39971,229.60243l26.93682,-13.62914l19.45345,15.38905l16.80444,-6.91098" fill="none" stroke="#ffffff" stroke-width="1.5" stroke-linecap="round"/><path d="M306.01836,237.48741l26.93682,-13.62914l19.45345,15.38905l16.80444,-6.91098" fill="none" stroke="#ffffff" stroke-width="1.5" stroke-linecap="round"/><path d="M390.20856,243.34817l2.5948,0.94419l-0.98871,4.6802l-2.59479,-0.94419l0.98871,-4.6802z" fill-opacity="0.23137" fill="#000000" stroke="none" stroke-width="0" stroke-linecap="butt"/><path d="M394.19184,57.26669c5.13087,-0.43989 8.15923,-3.63411 12.56787,-5.61808c0.67144,-0.30217 4.23509,-2.82584 4.87518,-2.25571c0.49355,0.4396 -0.51249,4.2 -0.60253,4.84c-0.30656,2.17895 -3.871,14.34338 -3.59746,15.16927c1.00873,3.04577 9.32064,-3.5083 11.00967,-2.40464c1.54713,1.01092 -0.63528,5.93624 -0.99631,7.01814c-1.02148,3.06089 -5.66592,18.70205 -5.17568,20.92574c0.78026,3.53918 5.99693,6.73138 5.26796,11.72371c-0.3577,2.44979 -2.85911,-0.61476 -3.79315,-0.01511c-0.95127,0.61072 0.16035,5.07074 0.33226,6.02237c0.70065,3.87861 1.4147,8.23371 1.35362,12.21216c-0.00628,0.40981 0.15798,1.0001 -0.14166,1.21561c-0.74631,0.5368 -11.50011,-7.63917 -13.14847,-8.49483c-8.0242,-4.16532 -16.40158,-11.38805 -20.23767,-21.08799c-5.79535,-14.65411 -4.69865,-37.07831 12.01371,-38.51406z" fill="url(#color-3)" stroke="#000000" stroke-width="0" stroke-linecap="round"/><path d="M277.24572,83.79592c16.20622,-4.40591 24.65693,16.32402 24.0497,32.11431c-0.40195,10.45201 -5.89809,20.1367 -12.07323,26.82181c-1.2685,1.37328 -8.68622,12.77394 -9.56629,12.52575c-0.35334,-0.09964 -0.39399,-0.71186 -0.53549,-1.09546c-1.37366,-3.72383 -2.14227,-8.06924 -2.76589,-11.96153c-0.15301,-0.95499 -0.58211,-5.53613 -1.67958,-5.78327c-1.07757,-0.24269 -2.41829,3.50369 -3.56546,1.32094c-2.33773,-4.4481 1.51663,-9.25005 1.08026,-12.85025c-0.27417,-2.26205 -9.82036,-15.38496 -11.7945,-17.91425c-0.69777,-0.894 -4.38142,-4.77833 -3.25957,-6.2629c1.22475,-1.62074 11.21691,1.68514 11.15883,-1.52932c-0.01576,-0.87164 -7.39516,-11.09401 -8.40457,-13.03943c-0.29647,-0.57141 -2.48748,-3.76446 -2.16834,-4.34828c0.4139,-0.75717 4.60322,0.39069 5.33519,0.4438c4.80616,0.34874 8.71346,2.31217 13.68862,0.95867z" fill="url(#color-4)" stroke="#000000" stroke-width="0" stroke-linecap="round"/><path d="M396.8679,78.62964c3.25602,31.48313 -19.60294,63.04521 -51.81909,66.44782c-32.21617,3.4026 -61.58992,-22.64278 -64.84593,-54.12591c-3.25602,-31.48312 20.22081,-59.76361 52.43698,-63.16619c32.21617,-3.4026 60.97206,19.36116 64.22806,50.84428z" fill="url(#color-5)" stroke="#000000" stroke-width="0" stroke-linecap="butt"/><path d="M352.47437,73.65659c0.51876,2.95646 -6.07055,6.63514 -14.71766,8.21655c-8.64711,1.58142 -16.07752,0.46672 -16.59629,-2.48974c-0.51876,-2.95646 6.07056,-6.63514 14.71767,-8.21656c8.64711,-1.58142 16.07752,-0.46672 16.59631,2.48974z" fill-opacity="0.23137" fill="#000000" stroke="none" stroke-width="0" stroke-linecap="butt"/><path d="M303.30704,80.7614c-11.73782,9.36352 -25.41608,7.44047 -30.55127,-4.29524c-5.13519,-11.73572 0.21731,-28.84002 11.95513,-38.20354c11.73782,-9.36352 25.41608,-7.44047 30.55127,4.29524c5.13519,11.73572 -0.21731,28.84001 -11.95511,38.20354z" fill="url(#color-6)" stroke="#000000" stroke-width="0" stroke-linecap="butt"/><path d="M308.22981,54.79302l-12.36966,16.10003l-12.31436,10.55007l-17.32026,-0.02552l-22.53075,-40.02063l-5.42107,-42.08052l33.39729,39.4827l39.23973,-1.67129z" fill="url(#color-7)" stroke="#000000" stroke-width="0" stroke-linecap="round"/><path d="M344.14146,31.89099c0.93332,-12.57381 12.9413,-18.97294 26.82055,-14.29284c13.87925,4.68009 24.374,18.66714 23.44066,31.24096c-0.93332,12.57381 -12.94131,18.97294 -26.82056,14.29284c-13.87925,-4.68009 -24.37399,-18.66715 -23.44065,-31.24095z" fill="url(#color-8)" stroke="#000000" stroke-width="0" stroke-linecap="butt"/><path d="M345.42578,28.12312l37.48898,-11.94481l18.37494,-48.67008l8.81831,41.47765l-7.96838,45.43293l-16.29501,5.99082l-15.08161,-5.68844l-16.96972,-10.89354z" fill="url(#color-9)" stroke="#000000" stroke-width="0" stroke-linecap="round"/><path d="M322.34424,44.41052c0,0 -1.1121,1.14636 -2.43094,2.22896c-1.02238,0.83925 -2.16903,1.64018 -3.01811,1.83899c-0.79067,0.18513 -2.01717,-0.07895 -3.13605,-0.42958c-1.39924,-0.4385 -2.63021,-1.01236 -2.63021,-1.01236" fill="none" stroke-opacity="0.40392" stroke="#000000" stroke-width="2.5" stroke-linecap="round"/><path d="M353.79572,39.89035c0,0 -1.35777,0.81617 -2.9002,1.51652c-1.19574,0.54294 -2.50244,1.0163 -3.37358,0.9859c-0.81122,-0.02831 -1.93466,-0.60481 -2.93272,-1.23677c-1.24812,-0.7903 -2.30014,-1.66727 -2.30014,-1.66727" fill="none" stroke-opacity="0.40392" stroke="#000000" stroke-width="2.5" stroke-linecap="round"/><path d="M337.15609,38.37812c0,0 -1.05104,1.20649 -2.3118,2.36069c-0.97736,0.89477 -2.08071,1.75814 -2.91811,2.00365c-0.77977,0.2286 -2.01781,0.03261 -3.1529,-0.25582c-1.41948,-0.36066 -2.67799,-0.86585 -2.67799,-0.86585" fill="none" stroke-opacity="0.40392" stroke="#000000" stroke-width="2.5" stroke-linecap="round"/><path d="M392.76786,77.03183c0,0 -0.86819,0.72927 -1.86705,1.33318c-0.77437,0.46816 -1.62728,0.86101 -2.21517,0.78033c-0.54745,-0.07513 -1.33556,-0.71115 -2.04241,-1.39478c-0.88394,-0.85493 -1.64074,-1.78429 -1.64074,-1.78429" fill="none" stroke-opacity="0.40392" stroke="#000000" stroke-width="2.5" stroke-linecap="round"/><path d="M394.82203,86.23592c0,0 -0.86819,0.72927 -1.86705,1.33319c-0.77437,0.46816 -1.62728,0.86101 -2.21517,0.78033c-0.54745,-0.07513 -1.33556,-0.71115 -2.04241,-1.39478c-0.88394,-0.85493 -1.64074,-1.78429 -1.64074,-1.78429" fill="none" stroke-opacity="0.40392" stroke="#000000" stroke-width="2.5" stroke-linecap="round"/><path d="M394.47517,95.86608c0,0 -0.86819,0.72927 -1.86705,1.33319c-0.77437,0.46816 -1.62727,0.861 -2.21516,0.78033c-0.54746,-0.0751 -1.33557,-0.71114 -2.04241,-1.39477c-0.88394,-0.85493 -1.64074,-1.78429 -1.64074,-1.78429" fill="none" stroke-opacity="0.40392" stroke="#000000" stroke-width="2.5" stroke-linecap="round"/><path d="M291.12063,90.58801c0,0 -0.40493,1.13554 -0.95412,2.24476c-0.43919,0.88701 -0.97062,1.75718 -1.46106,2.0165c-0.52669,0.27847 -1.45948,0.20251 -2.34328,0.0286c-1.14003,-0.22433 -2.1985,-0.61171 -2.1985,-0.61171" fill="none" stroke-opacity="0.40392" stroke="#000000" stroke-width="2.5" stroke-linecap="round"/><path d="M293.42461,96.7916c0,0 -0.40493,1.13554 -0.95412,2.24475c-0.43919,0.88701 -0.97062,1.75718 -1.46107,2.0165c-0.52669,0.27847 -1.45948,0.20251 -2.34327,0.0286c-1.14003,-0.22435 -2.1985,-0.61173 -2.1985,-0.61173" fill="none" stroke-opacity="0.40392" stroke="#000000" stroke-width="2.5" stroke-linecap="round"/><path d="M295.1854,104.27406c0,0 -0.40493,1.13554 -0.95412,2.24475c-0.43919,0.88701 -0.97062,1.75718 -1.46107,2.0165c-0.52669,0.27847 -1.45948,0.20251 -2.34327,0.0286c-1.14003,-0.22435 -2.1985,-0.61173 -2.1985,-0.61173" fill="none" stroke-opacity="0.40392" stroke="#000000" stroke-width="2.5" stroke-linecap="round"/><path d="M335.59828,105.62491l4.66848,4.97536" fill="none" stroke="#000000" stroke-width="2.5" stroke-linecap="round"/><path d="M349.69048,103.12413l-3.8537,7.27912" fill="none" stroke="#000000" stroke-width="2.5" stroke-linecap="round"/><path d="M393.43989,-12.15338c0,0 -4.62547,-5.9542 -20.41983,-2.32352c-15.09977,3.471 -41.11478,16.47942 -52.95705,18.75144c-10.4915,2.01286 -25.37973,8.85188 -38.7698,10.88538c-15.79432,2.39863 -29.37828,-0.16086 -29.37828,-0.16086" fill="none" stroke="#000000" stroke-width="2.5" stroke-linecap="round"/><path d="M390.84038,-5.7138c0,0 -47.51944,11.38882 -70.38853,15.74656c-5.34709,1.0189 -32.19968,10.26395 -39.07168,11.35668c-20.77308,3.30319 -23.92851,-1.68576 -23.92851,-1.68576" fill="none" stroke="#000000" stroke-width="2.5" stroke-linecap="round"/><path d="M389.34811,0.37308c0,0 -8.913,1.17838 -29.13052,5.56616c-9.90163,2.14894 -31.43058,7.74169 -38.65369,9.15479c-4.56661,0.89339 -28.65623,14.79324 -34.44898,15.81529c-20.40091,3.59946 -25.87581,-5.47348 -25.87581,-5.47348" fill="none" stroke="#000000" stroke-width="2.5" stroke-linecap="round"/><path d="M316.03756,80.48514c0.43932,1.89965 -3.86179,4.5702 -9.6068,5.96487c-5.74502,1.39467 -10.75842,0.98532 -11.19774,-0.91432c-0.43932,-1.89965 4.69909,-3.16175 10.4441,-4.55643c5.74502,-1.39467 9.92112,-2.39376 10.36044,-0.49413z" fill="#000000" stroke="#000000" stroke-width="2.5" stroke-linecap="butt"/><path d="M376.43271,65.01658c0.43932,1.89965 -3.86179,4.5702 -9.60679,5.96487c-5.74502,1.39467 -10.75842,0.98532 -11.19774,-0.91432c-0.43932,-1.89965 4.7124,-2.97905 10.4574,-4.37372c5.74502,-1.39467 9.90781,-2.57647 10.34713,-0.67683z" fill="#000000" stroke="#000000" stroke-width="2.5" stroke-linecap="butt"/><g stroke="none" stroke-width="0" stroke-linecap="butt"><path d="M308.30429,82.40679c0.09433,1.29501 -0.90181,2.42295 -2.22495,2.51934c-1.32313,0.09637 -2.47222,-0.87531 -2.56655,-2.17032c-0.09433,-1.29501 0.90181,-2.42295 2.22495,-2.51934c1.32313,-0.09637 2.47222,0.87531 2.56655,2.17032z" fill="#ffffff"/><g><path d="M309.94632,82.14511c0.16508,2.26629 -1.55381,4.23841 -3.83923,4.40488c-2.28542,0.16647 -4.27195,-1.53576 -4.43703,-3.80204c-0.16508,-2.26629 1.55381,-4.23841 3.83923,-4.40488c2.28542,-0.16647 4.27195,1.53576 4.43703,3.80204z" fill="url(#color-10)"/><path d="M307.37181,81.31662c0.37006,5.08045 -0.42206,9.27851 -1.76925,9.37665c-1.3472,0.09813 -2.7393,-3.94084 -3.10936,-9.02129c-0.37006,-5.08045 0.42206,-9.27851 1.76925,-9.37665c1.3472,-0.09813 2.7393,3.94084 3.10936,9.02129z" fill="url(#color-11)"/><path d="M309.37989,83.28221c0.37007,5.08044 -0.42206,9.27851 -1.76925,9.37665c-1.3472,0.09813 -2.7393,-3.94085 -3.10936,-9.02129c-0.37007,-5.08044 0.42207,-9.27852 1.76925,-9.37665c1.3472,-0.09813 2.7393,3.94084 3.10936,9.02129z" fill="url(#color-12)"/></g></g><g stroke="none" stroke-width="0" stroke-linecap="butt"><path d="M364.77765,65.52426c1.32315,-0.09638 2.47223,0.87531 2.56656,2.17032c0.09433,1.29501 -0.90181,2.42295 -2.22496,2.51934c-1.32315,0.09638 -2.47223,-0.87531 -2.56656,-2.17032c-0.09433,-1.29501 0.90181,-2.42295 2.22496,-2.51934z" fill="#ffffff"/><g><path d="M364.72931,63.61769c2.28542,-0.16647 4.27195,1.53577 4.43703,3.80204c0.16508,2.26629 -1.55381,4.23841 -3.83923,4.40488c-2.28542,0.16647 -4.27195,-1.53577 -4.43703,-3.80204c-0.16508,-2.26629 1.5538,-4.23841 3.83923,-4.40488z" fill="url(#color-13)"/><path d="M365.0866,57.45311c1.3472,-0.09813 2.73932,3.94084 3.10938,9.02129c0.37007,5.08044 -0.42207,9.27852 -1.76927,9.37665c-1.3472,0.09813 -2.7393,-3.94084 -3.10936,-9.02129c-0.37007,-5.08044 0.42205,-9.27851 1.76925,-9.37665z" fill="url(#color-14)"/><path d="M363.38456,59.689c1.3472,-0.09813 2.73932,3.94084 3.10938,9.02129c0.37007,5.08044 -0.42207,9.27852 -1.76927,9.37665c-1.3472,0.09813 -2.7393,-3.94084 -3.10936,-9.02129c-0.37007,-5.08044 0.42206,-9.27851 1.76925,-9.37665z" fill="url(#color-15)"/></g></g><path d="M368.88785,130.17412c0.10588,0.88748 0.36104,4.9156 -0.03747,5.55382c-0.87965,1.40881 -3.34516,-0.92733 -6.20862,-0.8784c-4.24694,0.07257 -9.81988,2.17391 -16.04522,3.43896c-7.60161,1.54473 -11.85089,3.0148 -15.20151,3.3334c-2.0816,0.19795 -3.47687,4.39485 -3.73982,2.19069c-0.32894,-2.75726 -2.78733,-8.66906 0.22467,-11.83261c1.9964,-2.09688 6.51783,-3.12877 10.55314,-5.03732c2.57719,-1.21891 4.46686,-3.65103 6.96765,-4.15923c5.74133,-1.1667 9.96487,-0.41544 13.84703,0.59637c2.6698,0.69583 3.87667,1.95048 5.26261,3.23528c0.78678,0.72936 2.46714,1.20354 2.42356,2.25058c-0.12062,2.89824 1.93206,1.12503 1.95394,1.30848z" fill="#ffffff" stroke="#000000" stroke-width="2.5" stroke-linecap="butt"/><path d="M364.01533,128.30792l-2.77768,5.96423l-5.43898,-9.33946l-7.63104,14.46391l-8.01853,-13.72136l-6.44764,14.37772l-5.21986,-7.96461" fill="none" stroke="#000000" stroke-width="2.5" stroke-linecap="round"/><path d="M295.20826,88.92946l18.83075,-4.62327" fill="none" stroke="#000000" stroke-width="2.5" stroke-linecap="round"/><path d="M361.13445,73.00335l21.26027,-6.51162" fill="none" stroke="#000000" stroke-width="2.5" stroke-linecap="round"/><path d="M355.22245,71.72261l7.20621,4.95153" fill="none" stroke="#000000" stroke-width="2.5" stroke-linecap="round"/><path d="M312.95326,90.54626l2.89294,-9.62333" fill="none" stroke="#000000" stroke-width="2.5" stroke-linecap="round"/><path d="M315.20791,74.50608c0,0 -5.80375,4.57994 -9.81986,5.73878c-3.91513,1.1297 -14.0986,1.58933 -14.0986,1.58933" fill="none" stroke="#000000" stroke-width="2.5" stroke-linecap="round"/><path d="M376.84258,58.70231c0,0 -8.39376,5.01305 -12.39745,6.25616c-3.91577,1.21582 -11.36677,1.12241 -11.36677,1.12241" fill="none" stroke="#000000" stroke-width="2.5" stroke-linecap="round"/></g></g></svg>