<svg version="1.1" xmlns="http://www.w3.org/2000/svg" xmlns:xlink="http://www.w3.org/1999/xlink" width="168.88755" height="327.01974" viewBox="0,0,168.88755,327.01974"><g transform="translate(-225.07698,-28.40991)"><g data-paper-data="{&quot;isPaintingLayer&quot;:true}" fill-rule="nonzero" stroke-width="2" stroke-linejoin="miter" stroke-miterlimit="10" stroke-dasharray="" stroke-dashoffset="0" style="mix-blend-mode: normal"><g><path d="M363.02663,213.96715c2.54883,-3.63883 5.50091,-10.29427 9.17315,-11.54165c6.96195,-2.36484 20.95133,8.20555 20.76287,21.65578c-0.03087,2.20319 -0.42329,7.05519 -2.51252,6.40809c-0.4563,-0.14135 -2.19633,-2.35508 -2.54022,-1.80067c-0.11294,0.18208 0.7667,4.51764 0.76247,5.19581c-0.02265,3.61666 -0.92122,7.5224 -3.1364,8.82786c-2.17241,1.28027 -4.50204,-5.14477 -5.46593,-4.73838c-1.44749,0.61027 -2.10015,9.20813 -7.70358,5.32775c-3.03195,-2.09963 -5.58138,-12.54208 -5.86114,-12.72609c-1.4528,-0.95564 -5.14453,3.7669 -8.97769,-2.82398c-3.52544,-6.06182 1.84161,-14.12739 5.27553,-14.05594z" fill="#feed00" stroke="#000000" stroke-linecap="round"/><path d="M383.23949,219.6375c-0.29126,1.9771 -1.1843,3.35726 -2.38116,4.03537c-1.32478,0.75061 -2.84909,-2.15524 -4.51434,-3.26719c-1.7379,-1.16046 -3.25308,-0.37552 -4.01014,-2.64246c-0.62371,-1.86766 -0.85009,-3.90876 -0.57288,-5.79037c0.61366,-4.1655 3.68069,-5.82653 6.8504,-3.70999c3.16971,2.11654 5.24178,7.20913 4.62812,11.37463z" fill="#ffa600" stroke="none" stroke-linecap="butt"/><path d="M364.17665,225.705c-0.12363,2.35604 -1.6786,3.55586 -3.47313,2.67992c-1.79452,-0.87596 -3.14905,-3.49601 -3.02542,-5.85204c0.12363,-2.35604 1.6786,-3.55586 3.47312,-2.67992c1.79452,0.87596 3.14907,3.49601 3.02543,5.85204z" fill="#ffa600" stroke="none" stroke-linecap="butt"/><path d="M377.21881,239.12993c-0.12198,2.32461 -1.65745,3.50787 -3.42954,2.64285c-1.7721,-0.865 -3.10979,-3.45072 -2.9878,-5.77533c0.12198,-2.32461 1.65745,-3.50787 3.42954,-2.64286c1.7721,0.865 3.10979,3.45072 2.9878,5.77533z" fill="#ffa600" stroke="none" stroke-linecap="butt"/><path d="M386.84041,236.76778c-0.12034,2.29321 -1.39987,3.57526 -2.85792,2.86354c-1.45805,-0.71171 -2.54249,-3.14769 -2.42215,-5.44089c0.12034,-2.29321 1.39987,-3.57526 2.85792,-2.86354c1.45805,0.71171 2.54248,3.14767 2.42215,5.44089z" fill="#ffa600" stroke="none" stroke-linecap="butt"/><path d="M392.00296,224.12026c-0.11373,2.16755 -1.00606,3.53413 -1.99305,3.05236c-0.98699,-0.48179 -1.69489,-2.62946 -1.58116,-4.79702c0.11373,-2.16755 1.00606,-3.53413 1.99305,-3.05236c0.98699,0.48179 1.69489,2.62946 1.58116,4.79702z" fill="#ffa600" stroke="none" stroke-linecap="butt"/></g><path d="M314.20046,248.29326c-7.4462,4.20642 -19.59161,2.64902 -27.75782,0.94885c-24.70107,-5.14266 -55.16223,-21.81786 -59.88491,-49.5311c-3.19417,-18.74375 10.06804,-33.11941 23.7933,-43.44051c5.20713,-3.91565 16.39388,-10.8006 21.00502,-2.96099c1.22709,2.08625 1.63442,4.45133 0.79049,6.79019c-1.82317,5.05275 -9.14612,7.06904 -12.87991,10.6138c-11.28215,10.71095 -15.35419,25.6817 -6.12987,38.99474c9.76674,14.09588 28.91606,17.43541 44.62137,13.80252c8.11857,-1.87797 15.87392,-6.57647 24.60428,-5.15535c25.88375,4.21331 8.01984,25.8946 -6.91652,30.11884z" fill="#feed00" stroke="#000000" stroke-linecap="round"/><path d="M306.46853,244.34553c5.70594,-0.63594 13.33086,-2.50339 18.99522,-3.90063c6.17611,-1.52347 14.74829,-1.36137 21.16649,-1.95381c3.77016,-0.34801 12.24833,-2.00426 15.37177,-0.7456c2.02183,0.81475 2.14033,3.41248 2.73121,4.6999c2.19566,4.78404 1.7437,10.28413 3.95126,15.16507c2.60775,5.76577 1.22368,12.04241 2.6507,18.07034c2.66763,11.26848 4.67102,22.78019 1.22044,34.75202c-1.50891,5.23521 7.26068,10.56648 -1.27643,14.46973c-3.02308,1.38217 -10.13161,9.05821 -13.60283,9.37863c-5.03569,0.46483 -11.61172,-3.90239 -17.87967,-4.42108c-7.98088,-0.66044 -17.94068,4.6375 -23.94336,3.64755c-3.00467,-0.49553 -7.15805,-3.37325 -8.86149,-5.15283c-2.13532,-2.23077 0.26446,-13.48966 0.16262,-16.74616c-0.5008,-16.01426 -2.14088,-24.71711 -2.64474,-40.74519c-0.16556,-5.26674 -2.28305,-22.42944 0.5454,-26.38663z" fill="#3c2c1f" stroke="#000000" stroke-linecap="round"/><g><path d="M299.11367,224.55066c3.36281,-0.69883 10.1156,6.24799 7.75937,12.85272c-2.5619,7.18119 -7.05572,3.21423 -8.30905,4.41966c-0.24136,0.23212 -0.83617,10.96479 -3.43255,13.58396c-4.79842,4.84056 -7.01393,-3.49255 -8.54867,-3.82755c-1.022,-0.22308 -2.13611,6.51984 -4.5062,5.65887c-2.4167,-0.8779 -4.01505,-4.55316 -4.69936,-8.10456c-0.12831,-0.66594 -0.05719,-5.08926 -0.20154,-5.24759c-0.43956,-0.4821 -1.74494,2.01275 -2.16768,2.23524c-1.93548,1.01862 -3.20945,-3.67957 -3.64309,-5.83988c-2.6474,-13.18846 9.17066,-26.14104 16.44786,-25.09058c3.83854,0.5541 7.95903,6.55668 11.13091,9.66745z" fill="#feed00" stroke="#000000" stroke-linecap="round"/><path d="M282.57809,222.10335c2.72871,-2.66101 6.04798,-1.5895 7.41379,2.39329c0.61696,1.79909 0.76803,3.84713 0.49675,5.7974c-0.32929,2.36722 -1.96256,1.87289 -3.45867,3.33188c-1.43357,1.398 -2.4002,4.53376 -3.83999,4.03835c-1.30078,-0.44757 -2.43137,-1.64091 -3.07962,-3.5313c-1.3658,-3.98279 -0.26096,-9.36861 2.46775,-12.02963z" fill="#ffa600" stroke="none" stroke-linecap="butt"/><path d="M301.86481,230.30146c1.60385,-1.18966 3.35218,-0.29473 3.90501,1.99887c0.55282,2.2936 -0.29921,5.11732 -1.90306,6.30697c-1.60385,1.18966 -3.3522,0.29475 -3.90502,-1.99885c-0.55282,-2.2936 0.29921,-5.11732 1.90307,-6.30697z" fill="#ffa600" stroke="none" stroke-linecap="butt"/><path d="M291.47756,245.96927c1.58381,-1.17477 3.30993,-0.29259 3.85537,1.97041c0.54545,2.263 -0.29631,5.04989 -1.88012,6.22466c-1.58381,1.17477 -3.30993,0.29259 -3.85537,-1.97041c-0.54545,-2.263 0.29631,-5.04989 1.88012,-6.22466z" fill="#ffa600" stroke="none" stroke-linecap="butt"/><path d="M281.09127,245.84063c1.30313,-0.96659 2.79573,0.05958 3.33382,2.292c0.53808,2.23243 -0.08213,4.82575 -1.38527,5.79234c-1.30313,0.96659 -2.79573,-0.05958 -3.33382,-2.292c-0.53808,-2.23243 0.08213,-4.82575 1.38527,-5.79234z" fill="#ffa600" stroke="none" stroke-linecap="butt"/><path d="M272.99185,235.13878c0.88212,-0.65432 2.00953,0.52584 2.51812,2.63595c0.50861,2.1101 0.2058,4.3511 -0.67633,5.0054c-0.88212,0.65432 -2.00953,-0.52584 -2.51812,-2.63595c-0.50861,-2.1101 -0.2058,-4.35108 0.67633,-5.0054z" fill="#ffa600" stroke="none" stroke-linecap="butt"/></g><path d="M299.00409,205.4971c-1.06795,6.47405 -0.35655,18.02574 -3.87679,23.55285c-2.8075,4.40803 -22.28323,-0.08314 -25.18473,-3.66988c-1.00922,-1.24757 2.10125,-18.51426 2.56861,-21.00592c3.58557,-19.1156 8.50275,-37.41871 13.44623,-56.28512c1.35716,-5.17951 5.36309,-8.99836 6.81214,-13.88163l1.1745,-0.06354c13.22234,1.40759 25.44722,6.16782 39.09619,3.34137c5.46252,-1.13118 9.33883,-3.43923 13.00136,-7.64259c0.83739,-0.96104 3.30032,-3.31198 4.83186,-2.49025c3.44705,1.84948 6.15549,9.91292 8.1933,13.1946c8.40409,13.53388 14.65298,28.64619 19.36791,43.87534c1.38034,4.45847 6.89288,10.9952 6.19033,15.65866c-0.8228,5.46159 -9.17207,12.823 -12.96367,16.61496c-1.05518,1.05528 -3.68664,5.18911 -5.28924,3.41191c-2.23267,-2.47592 -5.86621,-22.46052 -5.86621,-22.46052c0,0 2.20857,15.88326 3.83471,23.70505c0.79756,3.83626 3.30823,10.04269 1.79788,13.96001c-1.15041,2.98377 -10.00619,4.676 -12.85207,5.25731c-11.51181,2.35138 -23.71662,1.21373 -35.21578,3.60189c-3.7376,0.77622 -13.03422,4.47357 -16.56356,2.97027c-1.88103,-0.80123 -1.45131,-6.3576 -1.6119,-8.09731c-0.70698,-7.65902 -2.70392,-16.34497 -1.89551,-23.9901" fill="#fffe8a" stroke="#000000" stroke-linecap="round"/><path d="M299.17571,125.28423c13.77099,-3.75267 27.13815,-7.54421 41.55622,-7.74101c3.0748,-0.04196 13.83763,0.10951 13.46187,4.88745c-0.51071,6.49368 -6.4679,10.39131 -12.14157,12.32031c-10.22828,3.47752 -34.84901,6.57629 -44.76805,1.96256c-7.05937,-3.28357 -5.99913,-10.91988 2.01507,-11.65965z" fill="#fffe8a" stroke="#000000" stroke-linecap="round"/><g stroke-linecap="round"><path d="M297.48522,53.71143c-11.89648,6.18147 -11.95095,19.28745 -14.38399,30.79216c-0.26738,1.26434 -2.34811,12.38091 -3.64927,12.32803c-0.54022,-0.02195 -0.47243,-0.974 -0.66855,-1.47784c-1.56111,-4.01044 -3.49629,-7.88751 -5.08782,-11.90204c-3.97192,-10.01874 -6.96497,-20.45433 -9.85035,-30.8496c-0.82859,-2.98512 -3.3008,-9.74567 -2.32942,-12.73157c0.62246,-1.91338 1.27379,-1.1721 2.57517,-0.74793c6.68709,2.17962 13.25634,4.65588 19.8336,7.13804c4.8301,1.8228 10.67696,3.38444 14.5299,6.95552z" fill="#feed00" stroke="#000000"/><path d="M291.44081,57.04791c-7.49713,4.77923 -6.76652,13.44011 -7.70084,21.18231c-0.10268,0.85086 -0.82695,8.31602 -1.68958,8.35723c-0.35815,0.0171 -0.36904,-0.61578 -0.52807,-0.93714c-1.26583,-2.55793 -2.77095,-5.00591 -4.05713,-7.56477c-3.20981,-6.38594 -5.79737,-13.10453 -8.31145,-19.80274c-0.72195,-1.92346 -2.75051,-6.24482 -2.28348,-8.27409c0.29927,-1.30038 0.77289,-0.84878 1.65739,-0.64469c4.54491,1.0487 9.02931,2.30025 13.51936,3.55522c3.29733,0.92161 7.25104,1.6112 10.00513,3.74487z" fill="#ffa700" stroke="none"/></g><g stroke-linecap="round"><path d="M332.2292,51.28738c2.89081,-4.38648 8.19697,-7.29662 12.45344,-10.21809c5.79614,-3.97823 11.58589,-7.94882 17.56079,-11.65939c1.16278,-0.72212 1.61867,-1.59728 2.67923,0.11262c1.65504,2.66834 0.86533,9.82331 0.77209,12.91988c-0.3247,10.78339 -0.74432,21.6316 -2.21395,32.30828c-0.58889,4.27816 -1.54423,8.50475 -2.10453,12.77168c-0.07038,0.53607 0.22235,1.44451 -0.29707,1.59458c-1.25107,0.36145 -5.9213,-9.93886 -6.48232,-11.10303c-5.10488,-10.5933 -8.28144,-23.30864 -21.30834,-26.47661z" fill="#feed00" stroke="#000000"/><path d="M339.2688,53.10998c2.1662,-2.72857 5.84162,-4.3406 8.82428,-6.02153c4.06155,-2.28895 8.11845,-4.57324 12.28244,-6.67491c0.81036,-0.40903 1.16271,-0.96046 1.76329,0.23111c0.93722,1.85948 -0.00295,6.53978 -0.24567,8.57988c-0.84523,7.1044 -1.75695,14.24608 -3.35227,21.213c-0.63925,2.79167 -1.51755,5.52781 -2.13726,8.31372c-0.07786,0.35 0.06239,0.96724 -0.28951,1.03601c-0.8476,0.16561 -3.3302,-6.91186 -3.63271,-7.71371c-2.75262,-7.29642 -4.10726,-15.88182 -12.52741,-18.73651z" fill="#ffa700" stroke="none"/></g><path d="M313.35444,49.96216c10.39421,-0.95946 22.74849,-3.10812 30.99671,4.39907c7.13494,6.49392 7.37452,12.8983 10.14861,21.15605c0.852,2.53618 2.91732,4.27903 3.49777,7.13129c3.51925,17.2935 -3.15642,39.58971 -24.13178,43.80999c-17.56781,3.53468 -38.88215,1.83264 -50.35812,-12.62843c-7.16587,-9.02984 -3.95981,-22.47397 -1.70358,-32.16908c0.87422,-3.75658 -0.64079,-7.91329 0.42089,-11.87683c4.15625,-15.51646 17.10967,-18.25286 31.50671,-19.58181z" fill="#feed00" stroke="#000000" stroke-linecap="round"/><path d="M354.90439,87.43569c4.30583,-0.00597 15.88309,3.36446 12.05787,9.76442c-0.99528,1.66519 -6.96363,3.02787 -7.22011,4.2584c-0.19235,0.92282 1.21121,1.47038 1.61172,2.3237c1.0717,2.28335 1.94872,5.74086 1.82372,8.27224c-0.34385,6.96431 -10.70114,4.34673 -13.94188,1.69835" fill="#feed00" stroke="#000000" stroke-linecap="round"/><path d="M291.34704,121.92067c-2.70118,3.19686 -12.4043,7.66613 -14.0172,0.88246c-0.58626,-2.46572 -0.35696,-6.02536 0.27866,-8.46628c0.23755,-0.91224 1.51715,-1.70747 1.15912,-2.57948c-0.4774,-1.1628 -6.59435,-1.40991 -7.87763,-2.86479c-4.93212,-5.59161 5.83255,-11.02434 10.06671,-11.80666" fill="#feed00" stroke="#000000" stroke-linecap="round"/><path d="M241.89562,79.69035c14.2773,-1.10218 25.87351,8.42703 38.03121,13.96019" fill="none" stroke="#000000" stroke-linecap="round"/><path d="M247.99655,93.41546c10.60408,-2.2879 21.846,0.08524 32.39343,1.42798" fill="none" stroke="#000000" stroke-linecap="round"/><path d="M253.24796,100.87647c8.50301,-2.41762 17.48523,-4.78859 26.29918,-5.60218" fill="none" stroke="#000000" stroke-linecap="round"/><path d="M357.68602,85.06067c7.57516,-9.11586 15.99345,-20.17075 28.57893,-21.34911" fill="none" stroke="#000000" stroke-linecap="round"/><path d="M355.14136,86.17817c10.19618,-8.80469 20.46779,-9.36643 32.9933,-6.78177" fill="none" stroke="#000000" stroke-linecap="round"/><path d="M358.77121,87.25527c8.24891,-4.21669 19.35413,-1.77257 27.42371,1.82257" fill="none" stroke="#000000" stroke-linecap="round"/><path d="M314.5774,100.00237c3.70426,-0.34192 7.58228,-0.94212 11.30209,-0.82301c0.47212,0.01513 1.25452,-0.25903 1.40444,0.18893c0.19637,0.58678 -6.09467,4.95798 -6.86397,4.97168c-1.72993,0.03082 -4.62982,-3.09338 -5.42629,-4.37601z" fill="#000000" stroke="#000000" stroke-linecap="round"/><path d="M313.82228,81.33318c0.65059,7.04817 -4.12637,6.35987 -11.06775,7.00061c-6.94138,0.64074 -13.41861,2.36787 -14.0692,-4.6803c-0.65059,-7.04817 4.44909,-13.28126 11.39046,-13.92199c6.94138,-0.64074 13.0959,4.55351 13.74649,11.60168z" fill="#ffffff" stroke="#000000" stroke-linecap="butt"/><path d="M348.70319,77.68914c0.65059,7.04817 -4.52977,7.19845 -11.47114,7.83919c-6.94138,0.64074 -13.0152,1.52929 -13.66579,-5.51888c-0.65059,-7.04817 4.44909,-13.28126 11.39046,-13.92199c6.94138,-0.64074 13.09588,4.55351 13.74647,11.60168z" fill="#ffffff" stroke="#000000" stroke-linecap="butt"/><path d="M309.86155,81.69879c0.46471,5.03441 -3.10235,5.79343 -7.94312,6.24027c-4.84077,0.44684 -9.12216,0.41228 -9.58687,-4.62213c-0.46471,-5.03441 3.0828,-9.47783 7.92357,-9.92467c4.84077,-0.44684 9.14172,3.27212 9.60643,8.30653z" fill="#ffffff" stroke="#000000" stroke-linecap="butt"/><path d="M344.88272,78.0418c0.46471,5.03441 -3.34684,6.61734 -8.18761,7.06418c-4.84077,0.44684 -8.87768,-0.41163 -9.34239,-5.44604c-0.46471,-5.03441 3.0828,-9.47783 7.92357,-9.92467c4.84077,-0.44684 9.14172,3.27212 9.60643,8.30653z" fill="#ffffff" stroke="#000000" stroke-linecap="butt"/><path d="M296.25509,57.6227c0.25844,-3.73617 3.85082,-5.23498 7.34831,-6.83048c0.38736,-0.1767 3.67184,-1.62293 3.54233,-2.10953c-0.23562,-0.88521 -5.43135,0.24941 -4.92541,-1.77875c0.67953,-2.72403 11.25415,-3.07718 13.51451,-3.28605c0.32555,-0.03008 4.19214,-0.24503 4.23288,-0.39527c0.17456,-0.64378 -6.48135,-2.10551 -6.11565,-2.97206c0.19987,-0.47364 5.06134,0.64987 5.54889,0.78553c6.38741,1.77729 8.16343,5.4331 12.18432,9.54159" fill="#feed00" stroke="#000000" stroke-linecap="round"/><path d="M284.29732,75.55927c-2.46818,-0.9394 -2.6722,-2.99713 -4.62751,-4.51222c-0.99831,-0.77354 -5.94211,-0.92404 -5.99917,-2.54002c-0.07505,-2.12551 5.77649,-3.48963 7.03879,-4.12201c0.88866,-0.4452 -1.24525,-8.54 7.50021,-3.89827" fill="#feed00" stroke="#000000" stroke-linecap="round"/><path d="M311.38312,175.20759c1.28209,0.39784 4.68157,-0.17309 5.30219,1.31403c2.08151,4.9876 -1.48067,9.96177 -6.40258,9.38064c-3.27746,-0.38696 1.42041,-11.43439 1.42041,-11.43439c0,0 -1.86183,-23.67588 -0.41701,-35.36052" fill="#ffaf36" stroke="#000000" stroke-linecap="round"/><path d="M338.06375,173.35185c8.5647,-11.53884 9.96187,17.13233 -0.47831,9.99972c-5.6526,-3.86178 0.48979,-8.47488 0.76104,-11.02882c1.28034,-12.05514 -4.86339,-24.27539 -2.3909,-36.60623" fill="#ffaf36" stroke="#000000" stroke-linecap="round"/><path d="M302.33358,207.81593c3.26626,-3.14687 7.7078,-3.03025 11.83626,-4.07882c13.31567,-3.38201 28.48832,-3.88125 42.16374,-2.94007" fill="none" stroke="#000000" stroke-linecap="round"/><path d="M361.30545,231.32752c-0.92274,-8.85137 -3.37297,-17.68218 -2.713,-26.69389" fill="none" stroke="#000000" stroke-linecap="round"/><path d="M303.2231,212.00668c0.78273,8.47966 2.01112,16.85421 2.59139,25.33438" fill="none" stroke="#000000" stroke-linecap="round"/><path d="M303.67683,134.73019c-2.69444,-0.6733 -4.70257,-3.07275 -7.22863,-4.2879" fill="none" stroke="#fcec41" stroke-linecap="round"/><path d="M346.10078,128.47175c1.52293,-1.22981 2.96121,-2.22421 4.70695,-3.11662" fill="none" stroke="#fcec41" stroke-linecap="round"/><path d="M319.1294,143.45459l0.88096,9.54384" fill="none" stroke="#fcec41" stroke-linecap="round"/><path d="M322.92187,146.39118l0.45123,4.88832" fill="none" stroke="#fcec41" stroke-linecap="round"/><path d="M326.39204,145.8361l1.04211,3.65997" fill="none" stroke="#fcec41" stroke-linecap="round"/><path d="M286.66219,228.21294l9.5318,-38.33024l-3.84571,37.30268z" fill="#fce541" stroke="#fcec41" stroke-linecap="round"/><path d="M286.66219,228.21294l9.5318,-38.33024l-3.84571,37.30268z" fill="#fce541" stroke="#fcec41" stroke-linecap="round"/><path d="M368.98852,216.07736l-9.9869,-29.22745l15.2715,23.8505z" fill="#fce541" stroke="#fcec41" stroke-linecap="round"/><path d="M334.32993,252.38043l6.35981,76.48941" fill="none" stroke="#000000" stroke-linecap="round"/><path d="M343.8609,336.98545c0.79694,8.63356 -7.34451,16.4436 -18.18442,17.4442c-10.83992,1.0006 -20.27344,-5.18713 -21.07038,-13.82071c-0.79694,-8.63356 7.34451,-16.4436 18.18442,-17.4442c10.83992,-1.0006 20.27344,5.18713 21.07038,13.82071z" fill="#000000" stroke="#000000" stroke-linecap="butt"/><path d="M381.52452,328.21863c0.79694,8.63357 -7.34451,16.4436 -18.18443,17.4442c-10.83991,1.0006 -20.27344,-5.18713 -21.07038,-13.82071c-0.79694,-8.63357 7.34451,-16.4436 18.18442,-17.4442c10.83992,-1.0006 20.27345,5.18713 21.07039,13.82071z" fill="#000000" stroke="#000000" stroke-linecap="butt"/><path d="M313.02832,123.12805l-0.6173,-6.68744l19.31092,-1.78253l0.6173,6.68744c0,0 -6.56311,-5.00363 -9.79925,-4.70491c-3.20043,0.29542 -9.51168,6.48744 -9.51168,6.48744z" fill="none" stroke="#000000" stroke-linecap="butt"/></g></g></svg>