<svg version="1.1" xmlns="http://www.w3.org/2000/svg" xmlns:xlink="http://www.w3.org/1999/xlink" width="188.87364" height="282.40618" viewBox="0,0,188.87364,282.40618"><defs><linearGradient x1="233.93039" y1="116.41166" x2="284.26022" y2="118.03197" gradientUnits="userSpaceOnUse" id="color-1"><stop offset="0" stop-color="#ffe23b"/><stop offset="1" stop-color="#631917"/></linearGradient><linearGradient x1="231.62916" y1="125.60026" x2="279.57842" y2="127.14393" gradientUnits="userSpaceOnUse" id="color-2"><stop offset="0" stop-color="#ffe23b"/><stop offset="1" stop-color="#631917"/></linearGradient><linearGradient x1="363.21098" y1="122.78865" x2="413.5408" y2="124.40895" gradientUnits="userSpaceOnUse" id="color-3"><stop offset="0" stop-color="#3c0000"/><stop offset="1" stop-color="#ffe23b"/></linearGradient><linearGradient x1="321.05019" y1="179.64045" x2="315.29588" y2="358.38022" gradientUnits="userSpaceOnUse" id="color-4"><stop offset="0" stop-color="#fbc74c"/><stop offset="1" stop-color="#fa954b"/></linearGradient><linearGradient x1="364.40191" y1="132.12866" x2="412.35118" y2="133.67233" gradientUnits="userSpaceOnUse" id="color-5"><stop offset="0" stop-color="#3c0000"/><stop offset="1" stop-color="#ffe23b"/></linearGradient><linearGradient x1="361.21111" y1="145.08573" x2="417.45325" y2="146.89638" gradientUnits="userSpaceOnUse" id="color-6"><stop offset="0" stop-color="#3c0000"/><stop offset="1" stop-color="#ffe23b"/></linearGradient><linearGradient x1="228.57961" y1="138.60087" x2="284.82176" y2="140.41151" gradientUnits="userSpaceOnUse" id="color-7"><stop offset="0" stop-color="#ffe23b"/><stop offset="1" stop-color="#631917"/></linearGradient><linearGradient x1="340.75779" y1="185.91412" x2="381.29972" y2="187.21932" gradientUnits="userSpaceOnUse" id="color-8"><stop offset="0" stop-color="#3c0000"/><stop offset="1" stop-color="#ffe23b"/></linearGradient><linearGradient x1="320.8169" y1="174.65393" x2="319.75156" y2="207.74526" gradientUnits="userSpaceOnUse" id="color-9"><stop offset="0" stop-color="#fbc74c"/><stop offset="1" stop-color="#fa8c4b"/></linearGradient><linearGradient x1="261.41024" y1="178.56054" x2="301.95217" y2="179.86573" gradientUnits="userSpaceOnUse" id="color-10"><stop offset="0" stop-color="#ffe23b"/><stop offset="1" stop-color="#631917"/></linearGradient><linearGradient x1="325.77449" y1="85.71091" x2="322.41673" y2="190.00908" gradientUnits="userSpaceOnUse" id="color-11"><stop offset="0" stop-color="#ceb037"/><stop offset="1" stop-color="#ffec7f"/></linearGradient><linearGradient x1="345.38696" y1="77.65985" x2="344.30057" y2="111.40505" gradientUnits="userSpaceOnUse" id="color-12"><stop offset="0" stop-color="#d0b23a"/><stop offset="1" stop-color="#dabf49"/></linearGradient><linearGradient x1="345.69944" y1="211.60238" x2="343.69411" y2="228.12193" gradientUnits="userSpaceOnUse" id="color-13"><stop offset="0" stop-color="#ffde00"/><stop offset="1" stop-color="#ff9500"/></linearGradient><linearGradient x1="345.69944" y1="211.60238" x2="343.69411" y2="228.12193" gradientUnits="userSpaceOnUse" id="color-14"><stop offset="0" stop-color="#000000" stop-opacity="0.22745"/><stop offset="1" stop-color="#000000" stop-opacity="0.58824"/></linearGradient><linearGradient x1="352.06374" y1="216.94887" x2="350.05843" y2="233.4684" gradientUnits="userSpaceOnUse" id="color-15"><stop offset="0" stop-color="#ffce4e"/><stop offset="1" stop-color="#ff824f"/></linearGradient><linearGradient x1="352.06374" y1="216.94887" x2="350.05843" y2="233.4684" gradientUnits="userSpaceOnUse" id="color-16"><stop offset="0" stop-color="#000000" stop-opacity="0.22745"/><stop offset="1" stop-color="#000000" stop-opacity="0.58824"/></linearGradient></defs><g transform="translate(-228.09154,-77.64191)"><g stroke-miterlimit="10"><path d="M272.52585,132.92056c0,0 -15.43824,-7.0478 -21.59509,-12.17944c-6.52342,-5.43716 -16.50939,-19.58002 -16.50939,-19.58002c0,0 7.95145,6.70104 13.78577,7.13565c9.38699,0.69925 36.36686,-0.01127 36.36686,-0.01127z" fill="url(#color-1)" stroke="#000000" stroke-width="0" stroke-linecap="butt"/><path d="M262.58087,145.73186c0,0 -13.54923,-10.21906 -18.45092,-16.56052c-5.19353,-6.71901 -11.8854,-22.68643 -11.8854,-22.68643c0,0 6.3145,8.26175 11.91685,9.94754c9.01376,2.71231 35.50907,7.85203 35.50907,7.85203z" fill="url(#color-2)" stroke="#000000" stroke-width="0" stroke-linecap="butt"/><path d="M363.52475,113.04216c0,0 26.87829,2.44441 36.29082,2.35039c5.8502,-0.05844 14.2162,-6.23416 14.2162,-6.23416c0,0 -10.87496,13.47127 -17.73461,18.47758c-6.47418,4.725 -22.33377,10.7652 -22.33377,10.7652z" fill="url(#color-3)" stroke="#000000" stroke-width="0" stroke-linecap="butt"/><path d="M265.84903,353.14782l2.49575,-147.27174c0,0 7.80613,-25.46021 18.1522,-25.53257c10.2745,-0.07185 34.61524,0.15485 55.88741,0.00607c23.07217,-0.16137 29.38633,26.93419 29.38633,26.93419l-4.66775,152.76432z" fill="url(#color-4)" stroke="#000000" stroke-width="0" stroke-linecap="butt"/><path d="M364.49396,129.26922c0,0 26.77104,-3.42487 35.94059,-5.5518c5.69919,-1.32195 12.53202,-9.16044 12.53202,-9.16044c0,0 -7.70504,15.50395 -13.31999,21.87498c-5.29942,6.01304 -19.47789,15.33944 -19.47789,15.33944z" fill="url(#color-5)" stroke="#000000" stroke-width="0" stroke-linecap="butt"/><path d="M371.24484,127.02781c0,0 20.90844,22.46188 28.95114,29.52324c4.99881,4.38888 16.7692,5.50576 16.7692,5.50576c0,0 -19.43013,3.15816 -29.03763,2.19376c-9.06763,-0.91022 -27.08145,-7.827 -27.08145,-7.827z" fill="url(#color-6)" stroke="#000000" stroke-width="0" stroke-linecap="butt"/><path d="M284.45675,151.74932c0,0 -18.42143,5.74381 -27.52882,6.06891c-9.64964,0.34444 -28.83639,-4.05694 -28.83639,-4.05694c0,0 11.81785,-0.35748 17.08861,-4.41573c8.48024,-6.52942 30.79015,-27.59994 30.79015,-27.59994z" fill="url(#color-7)" stroke="#000000" stroke-width="0" stroke-linecap="butt"/><path d="M369.50006,159.33477c0,0 8.55386,17.29656 10.29917,26.24107c1.84921,9.47705 0.50238,29.11603 0.50238,29.11603c0,0 -2.20116,-11.61656 -7.03372,-16.18785c-7.77522,-7.35484 -32.07532,-26.09528 -32.07532,-26.09528z" fill="url(#color-8)" stroke="#000000" stroke-width="0" stroke-linecap="butt"/><path d="M294.81671,177.41918c10.80749,-3.79096 23.10813,-2.61505 34.53818,-2.24708c4.64331,0.14948 10.55504,-0.57784 14.82721,1.28867c3.32362,1.45209 9.40045,1.63382 11.78656,4.2696c2.49366,2.75458 -2.09171,7.57528 -3.99095,9.15304c-6.41359,5.32796 -18.57629,16.31507 -26.79213,17.83744c-9.41961,1.74543 -23.1018,-12.9921 -30.45467,-18.40499c-1.34952,-0.99347 -9.91522,-5.23174 -10.28033,-6.06152c-0.69942,-1.5895 8.00909,-5.74932 9.5704,-6.2145z" fill="url(#color-9)" stroke="#000000" stroke-width="0" stroke-linecap="round"/><path d="M302.38696,166.36035c0,0 -25.45517,17.13863 -33.68737,23.97814c-5.11658,4.25098 -8.06037,15.70191 -8.06037,15.70191c0,0 -0.08084,-19.68495 2.37411,-29.02344c2.31701,-8.81373 11.96569,-25.5243 11.96569,-25.5243z" fill="url(#color-10)" stroke="#000000" stroke-width="0" stroke-linecap="butt"/><path d="M378.89186,138.15096c-0.90105,27.98841 -25.97962,52.83988 -56.2166,51.86644c-30.23698,-0.97344 -54.18223,-27.40319 -53.28117,-55.39159c0.90105,-27.9884 26.14342,-49.88835 56.3804,-48.91491c30.23698,0.97344 54.01844,24.45166 53.11738,52.44006z" fill="url(#color-11)" stroke="#000000" stroke-width="0" stroke-linecap="butt"/><path d="M340.1705,134.73101c-0.08716,2.70744 -6.80681,4.68819 -15.00875,4.42414c-8.20195,-0.26405 -14.78027,-2.67292 -14.6931,-5.38036c0.08716,-2.70744 6.80681,-4.68819 15.00875,-4.42414c8.20195,0.26405 14.78027,2.67292 14.6931,5.38036z" fill-opacity="0.18431" fill="#ff0505" stroke="none" stroke-width="0" stroke-linecap="butt"/><path d="M303.32791,130.74048c-0.09378,2.91302 -2.25454,1.57206 -4.70617,1.49314c-2.45163,-0.07893 -4.26575,1.13406 -4.17197,-1.77895c0.09378,-2.91303 2.15725,-5.21053 4.60888,-5.1316c2.45163,0.07893 4.36304,2.50439 4.26926,5.41742z" fill="#ffffff" stroke="#000000" stroke-width="2.5" stroke-linecap="butt"/><path d="M319.29308,88.875c6.11569,0.19689 11.58614,-0.30343 16.68827,-3.98844c2.40533,-1.73724 5.53995,-6.90014 8.61023,-7.23315c2.52806,-0.2742 2.77955,4.4374 4.93884,5.19585c4.01439,1.41007 10.8997,-0.87131 14.83081,-1.90211c1.19124,-0.31236 4.97517,-1.9968 6.08948,-1.35139c1.95207,1.13068 -1.70173,6.81278 -2.5005,7.96585c-2.87841,4.15522 -3.85071,13.02236 -11.86165,18.30871c-5.05153,3.33346 -17.47851,3.8515 -20.51814,5.25368" fill="url(#color-12)" stroke="#000000" stroke-width="0" stroke-linecap="round"/><path d="M323.27951,190.03698l0.17064,18.03707l-5.35282,119.59426l-0.51874,27.78199" fill="none" stroke-opacity="0.61176" stroke="#000000" stroke-width="2.5" stroke-linecap="round"/><path d="M348.66349,136.73546l10.24092,-1.12811" fill="none" stroke="#000000" stroke-width="2.5" stroke-linecap="round"/><path d="M366.6524,135.66634l-16.34167,1.40375" fill="none" stroke="#000000" stroke-width="2.5" stroke-linecap="round"/><path d="M361.80844,132.93726l-4.36687,2.43255" fill="none" stroke="#000000" stroke-width="2.5" stroke-linecap="round"/><path d="M292.10204,133.48072l-8.04326,-3.26093" fill="none" stroke="#000000" stroke-width="2.5" stroke-linecap="round"/><path d="M289.67639,128.89965l-3.42039,-0.32455" fill="none" stroke="#000000" stroke-width="2.5" stroke-linecap="round"/><path d="M304.99574,132.60925l-7.94586,7.03473" fill="none" stroke="#000000" stroke-width="2.5" stroke-linecap="round"/><path d="M343.55271,133.85054l6.90327,5.3685" fill="none" stroke="#000000" stroke-width="2.5" stroke-linecap="round"/><path d="M354.9336,140.00647l4.93362,-0.0556" fill="none" stroke="#000000" stroke-width="2.5" stroke-linecap="round"/><path d="M288.79931,136.16194l2.9644,1.16757l-1.86337,9.45409" fill="none" stroke="#000000" stroke-width="2.5" stroke-linecap="round"/><path d="M304.87433,111.93497c0,0 -3.89152,8.6156 -6.69154,9.77208c-3.10782,1.28361 -11.12845,-2.41195 -11.12845,-2.41195" fill="none" stroke="#000000" stroke-width="2.5" stroke-linecap="round"/><path d="M355.57393,133.04733c-0.10107,3.13945 -2.25865,1.69979 -4.71028,1.62086c-2.45163,-0.07893 -4.26893,1.23279 -4.16786,-1.90668c0.10107,-3.13947 2.17045,-5.62052 4.62208,-5.5416c2.45163,0.07893 4.35713,2.68795 4.25606,5.82742z" fill="#ffffff" stroke="#000000" stroke-width="2.5" stroke-linecap="butt"/><path d="M359.87036,122.06817c0,0 -8.24173,3.17202 -11.26055,1.69116c-2.71984,-1.33419 -6.04914,-10.18224 -6.04914,-10.18224" fill="none" stroke="#000000" stroke-width="2.5" stroke-linecap="round"/><path d="M316.85883,128.15106l-2.68081,3.34453" fill="none" stroke="#000000" stroke-width="2.5" stroke-linecap="round"/><path d="M319.47109,133.59584l0.15861,-4.92673" fill="none" stroke="#000000" stroke-width="2.5" stroke-linecap="round"/><path d="M324.37713,134.39707l1.49212,-6.38479" fill="none" stroke="#000000" stroke-width="2.5" stroke-linecap="round"/><path d="M330.83087,133.74714l-0.0556,-4.93362" fill="none" stroke="#000000" stroke-width="2.5" stroke-linecap="round"/><path d="M335.28049,128.74412l1.82441,3.27515" fill="none" stroke="#000000" stroke-width="2.5" stroke-linecap="round"/><path d="M366.3028,134.10022c-0.06316,1.96206 -2.44341,3.47763 -5.31641,3.38513c-2.873,-0.09249 -5.15083,-1.75803 -5.08766,-3.72008c0.06316,-1.96206 2.44341,-3.47763 5.31641,-3.38513c2.873,0.09249 5.15083,1.75803 5.08766,3.72008z" fill="#ffffff" stroke="#000000" stroke-width="2.5" stroke-linecap="butt"/><path d="M293.58813,131.72301c-0.0747,2.32044 -2.64338,4.12078 -5.7373,4.02117c-3.09392,-0.09961 -5.54148,-2.06143 -5.46678,-4.38187c0.0747,-2.32044 2.64338,-4.12078 5.7373,-4.02118c3.09392,0.09961 5.54148,2.06144 5.46678,4.38188z" fill="#ffffff" stroke="#000000" stroke-width="2.5" stroke-linecap="butt"/><path d="M350.51575,180.28787l1.67776,-4.77238l-2.26697,7.29361l0.04034,-9.14345" fill="none" stroke="#000000" stroke-width="2.5" stroke-linecap="round"/><path d="M348.36265,176.15423l-0.98185,6.82695l0.57237,-9.88838" fill="none" stroke="#000000" stroke-width="2.5" stroke-linecap="round"/><path d="M345.5228,185.46156l0.27776,-8.62776l0.31962,5.85276" fill="none" stroke="#000000" stroke-width="2.5" stroke-linecap="round"/><path d="M345.03112,177.06306l0.58921,-2.52123" fill="none" stroke="#000000" stroke-width="2.5" stroke-linecap="round"/><path d="M342.22345,177.4807l1.1049,-2.75866l-0.1062,3.29885" fill="none" stroke="#000000" stroke-width="2.5" stroke-linecap="round"/><path d="M339.17835,177.38267l1.05588,-1.23611l-0.08169,2.53758" fill="none" stroke="#000000" stroke-width="2.5" stroke-linecap="round"/><path d="M335.5032,181.07466l1.71044,-5.78741l0.3528,12.71239" fill="none" stroke="#000000" stroke-width="2.5" stroke-linecap="round"/><path d="M333.64471,175.6804l1.55522,-0.96602l-0.60555,3.02875z" fill="none" stroke="#000000" stroke-width="2.5" stroke-linecap="round"/><path d="M333.00217,150.24724l-0.13488,15.10276l-0.0346,-9.8383" fill="none" stroke="#000000" stroke-width="2.5" stroke-linecap="round"/><path d="M334.98437,165.06683l-1.50554,3.11348l-0.9851,-2.13969" fill="none" stroke="#000000" stroke-width="2.5" stroke-linecap="round"/><path d="M335.75409,162.98364l0.54374,4.93609l1.55074,-4.51734l1.24567,4.95869l1.29948,4.13419l1.51142,-6.32662l-0.2576,8.00168" fill="none" stroke="#000000" stroke-width="2.5" stroke-linecap="round"/><path d="M333.08056,136.8993l-0.12429,3.86061" fill="none" stroke="#000000" stroke-width="2.5" stroke-linecap="round"/><path d="M328.44033,160.99154l0.14759,6.32866" fill="none" stroke="#000000" stroke-width="2.5" stroke-linecap="round"/><path d="M347.32033,165.52563l-0.37885,6.69002l-1.42818,-6.80986l-0.26058,-2.81901" fill="none" stroke="#000000" stroke-width="2.5" stroke-linecap="round"/><path d="M348.4227,162.3375l1.25697,4.60773" fill="none" stroke="#000000" stroke-width="2.5" stroke-linecap="round"/><path d="M353.59677,165.3147l2.36635,2.88681" fill="none" stroke="#000000" stroke-width="2.5" stroke-linecap="round"/><path d="M356.75544,165.4164l0.87211,5.64933l-0.54305,5.95509l-0.79232,2.78512l-0.87211,-5.64933l-2.26398,4.8457l-0.56634,-4.23416" fill="none" stroke="#000000" stroke-width="2.5" stroke-linecap="round"/><path d="M359.94872,175.35638l0.15819,-4.91349l0.24928,3.16997" fill="none" stroke="#000000" stroke-width="2.5" stroke-linecap="round"/><path d="M300.87201,135.19688l-10.14715,-1.78448l13.08952,2.58966l-10.58571,2.44676l4.84484,-5.4552" fill="none" stroke="#000000" stroke-width="2.5" stroke-linecap="round"/><path d="M293.78285,135.31477l-1.64113,7.32505" fill="none" stroke="#000000" stroke-width="2.5" stroke-linecap="round"/><path d="M290.02533,153.81419l-1.05359,-10.92509" fill="none" stroke="#000000" stroke-width="2.5" stroke-linecap="round"/><path d="M291.06832,175.98142l-0.47595,-7.04188l-0.48795,-17.58211" fill="none" stroke="#000000" stroke-width="2.5" stroke-linecap="round"/><path d="M290.59237,168.93954l1.44975,9.53252" fill="none" stroke="#000000" stroke-width="2.5" stroke-linecap="round"/><path d="M326.99803,173.75471c-0.10364,2.66587 -1.61117,4.78904 -3.36715,4.74222c-1.75599,-0.04682 -3.09548,-2.24588 -2.99184,-4.91175c0.10364,-2.66587 1.61117,-4.78904 3.36716,-4.74222c1.75599,0.04682 3.09548,2.24588 2.99184,4.91175z" fill="#ffffff" stroke="#000000" stroke-width="2.5" stroke-linecap="butt"/><path d="M328.36213,170.47324l-0.34204,5.54693" fill="none" stroke="#000000" stroke-width="2.5" stroke-linecap="round"/><path d="M330.27441,172.00602l0.53754,3.61362" fill="none" stroke="#000000" stroke-width="2.5" stroke-linecap="round"/><path d="M332.77679,175.51942l-0.32692,-5.07805" fill="none" stroke="#000000" stroke-width="2.5" stroke-linecap="round"/><path d="M334.96245,168.56063l-0.17874,5.55219" fill="none" stroke="#000000" stroke-width="2.5" stroke-linecap="round"/><path d="M336.33194,166.6431l2.4206,8.18567l-0.27776,8.62776l-1.05639,-6.63855" fill="none" stroke="#000000" stroke-width="2.5" stroke-linecap="round"/><path d="M344.19134,166.24224l1.28044,5.9261" fill="none" stroke="#000000" stroke-width="2.5" stroke-linecap="round"/><path d="M350.06519,171.66234l-1.63332,-5.12011" fill="none" stroke="#000000" stroke-width="2.5" stroke-linecap="round"/><path d="M351.36075,166.96346l0.60095,6.72157" fill="none" stroke="#000000" stroke-width="2.5" stroke-linecap="round"/><path d="M354.15853,176.53472l-1.77034,-5.94187" fill="none" stroke="#000000" stroke-width="2.5" stroke-linecap="round"/><g stroke-width="2.5" stroke-linecap="butt"><path d="M336.17582,215.64655c0.12442,-1.10441 0.24469,-1.52112 0.61628,-2.13589c0.04274,-0.07071 0.08643,-0.13998 0.13107,-0.2078c0.00793,-0.01255 0.01589,-0.02493 0.02391,-0.03712c0.15352,-0.23365 0.32069,-0.4482 0.49921,-0.6439c0.51986,-0.57872 1.1325,-1.00553 1.82634,-1.2704c0.68731,-0.26237 1.03865,-0.38112 2.06491,-0.27481c0.11396,0.00923 0.22737,0.02263 0.33999,0.04018c0.84748,0.11241 1.1533,0.25771 1.59405,0.56982c0.872,0.51929 1.57159,1.35631 1.90647,2.48982l0.14807,0.50124l0.2637,-0.45125c0.59634,-1.02046 1.47587,-1.66581 2.44679,-1.96138c0.50262,-0.19759 0.83432,-0.26549 1.6841,-0.17187c0.11353,0.00991 0.22687,0.02402 0.33972,0.04233c1.02191,0.1423 1.3346,0.34168 1.93918,0.76087c0.61032,0.42318 1.10303,0.98416 1.46932,1.67043c0.12652,0.23273 0.23752,0.48105 0.33068,0.74466c0.00486,0.01376 0.00965,0.02769 0.01434,0.04178c0.02712,0.07652 0.05297,0.15423 0.07755,0.23311c0.21371,0.68582 0.23078,1.11921 0.08735,2.22131c-0.00296,0.02273 -0.00598,0.04541 -0.00908,0.068c-0.0884,0.86103 -0.29286,1.71869 -0.59232,2.32861c-0.82863,1.68761 -2.16536,2.88859 -5.13859,4.61671c-1.9499,1.13336 -4.2142,2.93139 -4.38796,3.20144c-0.09434,0.14659 -0.22868,0.13029 -0.28521,-0.03462c-0.10411,-0.30378 -1.87247,-2.59135 -3.49456,-4.15831c-2.47341,-2.38929 -3.48396,-3.87523 -3.88475,-5.71206c-0.14485,-0.66385 -0.13818,-1.54553 -0.01799,-2.40269c0.0024,-0.02268 0.00489,-0.04541 0.00745,-0.06818z" fill="url(#color-13)" stroke="url(#color-14)"/><path d="M342.54015,220.99303c0.12442,-1.10441 0.24468,-1.52114 0.61627,-2.1359c0.04274,-0.07071 0.08644,-0.13996 0.13106,-0.20778c0.00793,-0.01255 0.01589,-0.02492 0.02391,-0.03711c0.15352,-0.23365 0.32069,-0.44822 0.49922,-0.64391c0.51986,-0.57872 1.13249,-1.00552 1.82633,-1.2704c0.68731,-0.26237 1.03864,-0.38113 2.0649,-0.27481c0.11396,0.00923 0.22739,0.02264 0.33999,0.04019c0.84748,0.11241 1.15331,0.25771 1.59406,0.56981c0.872,0.51929 1.57159,1.35632 1.90645,2.48983l0.14808,0.50123l0.2637,-0.45123c0.59634,-1.02046 1.47588,-1.66581 2.44679,-1.96138c0.50262,-0.19759 0.83431,-0.2655 1.68409,-0.17188c0.11353,0.00991 0.22688,0.02403 0.33973,0.04232c1.02191,0.1423 1.3346,0.34168 1.93919,0.76087c0.61032,0.42318 1.10303,0.98415 1.46932,1.67043c0.12652,0.23273 0.23752,0.48106 0.33068,0.74468c0.00486,0.01376 0.00964,0.02768 0.01434,0.04176c0.02712,0.07652 0.05296,0.15424 0.07754,0.23311c0.21371,0.68582 0.23078,1.11921 0.08735,2.22131c-0.00296,0.02273 -0.00597,0.04539 -0.00907,0.06799c-0.08838,0.86103 -0.29286,1.71869 -0.59232,2.32861c-0.82863,1.68761 -2.16536,2.88859 -5.13859,4.61671c-1.9499,1.13336 -4.21421,2.9314 -4.38797,3.20144c-0.09434,0.14659 -0.22868,0.13028 -0.2852,-0.03462c-0.10411,-0.30378 -1.87245,-2.59135 -3.49456,-4.15831c-2.47341,-2.38929 -3.48397,-3.87523 -3.88477,-5.71207c-0.14485,-0.66385 -0.13818,-1.54553 -0.01799,-2.4027c0.0024,-0.02268 0.00489,-0.0454 0.00745,-0.06818z" fill="url(#color-15)" stroke="url(#color-16)"/></g></g></g></svg>