<svg version="1.1" xmlns="http://www.w3.org/2000/svg" xmlns:xlink="http://www.w3.org/1999/xlink" width="194.34154" height="325.07201" viewBox="0,0,194.34154,325.07201"><g transform="translate(-187.44571,-33.663)"><g data-paper-data="{&quot;isPaintingLayer&quot;:true}" fill-rule="nonzero" stroke-linejoin="miter" stroke-miterlimit="10" stroke-dasharray="" stroke-dashoffset="0" style="mix-blend-mode: normal"><path d="M299.41517,251.19328c-7.6259,3.87112 -19.69003,1.77514 -27.77256,-0.28651c-24.44793,-6.23605 -54.13739,-24.24939 -57.62297,-52.14524c-2.35746,-18.86726 11.53093,-32.6389 25.70161,-42.33942c5.37611,-3.68021 16.85798,-10.06086 21.11591,-2.02395c1.1331,2.13876 1.43485,4.51961 0.48774,6.81862c-2.04607,4.96667 -9.45144,6.65531 -13.33917,10.03052c-11.74732,10.19863 -16.48109,24.97348 -7.85794,38.68356c9.13022,14.51627 28.11208,18.70409 43.96341,15.77322c8.19406,-1.51507 16.15067,-5.86403 24.8092,-4.05607c25.67078,5.36022 6.86035,26.22563 -8.2491,29.78146z" fill="#feed00" stroke="#000000" stroke-width="2" stroke-linecap="round"/><path d="M291.86645,246.90562c5.72858,-0.38156 13.429,-1.90807 19.14989,-3.05203c6.23775,-1.24731 14.79424,-0.70415 21.23243,-1.01058c3.78191,-0.18 12.32534,-1.45758 15.38972,-0.06126c1.98359,0.90386 1.98646,3.50429 2.5195,4.81671c1.98074,4.87695 1.28463,10.3515 3.27294,15.32579c2.34876,5.87604 0.68693,12.08492 1.84447,18.17035c2.16387,11.37597 3.65334,22.96538 -0.32622,34.77191c-1.74023,5.16293 6.78359,10.87891 -1.91865,14.39865c-3.08156,1.24636 -10.52442,8.59869 -14.00645,8.76442c-5.05138,0.24043 -11.42669,-4.41491 -17.66537,-5.21183c-7.94361,-1.01471 -18.12916,3.83507 -24.08188,2.57916c-2.97966,-0.62866 -7.00095,-3.68824 -8.62357,-5.54181c-2.03401,-2.32353 0.8641,-13.46456 0.90718,-16.72236c0.21187,-16.02069 -1.03957,-24.78787 -0.83015,-40.82249c0.06882,-5.26889 -1.28333,-22.50878 1.7183,-26.33627z" fill="#3c2c1f" stroke="#000000" stroke-width="2" stroke-linecap="round"/><g stroke-width="2"><path d="M285.39917,226.80324c3.39056,-0.5486 9.82774,6.69166 7.18012,13.18507c-2.87872,7.06015 -7.19168,2.89728 -8.49737,4.04578c-0.25144,0.22115 -1.32296,10.91676 -4.03324,13.41787c-5.00894,4.62238 -6.85168,-3.80101 -8.37,-4.20393c-1.01107,-0.2683 -2.42395,6.4184 -4.75339,5.45287c-2.37527,-0.98451 -3.8086,-4.72721 -4.3343,-8.30553c-0.09857,-0.67098 0.16919,-5.08677 0.03202,-5.25136c-0.41769,-0.50117 -1.83273,1.93316 -2.26494,2.13663c-1.97886,0.93154 -3.04264,-3.81865 -3.37978,-5.99612c-2.05827,-13.29315 10.32411,-25.70735 17.54739,-24.3343c3.8101,0.72426 7.65957,6.90414 10.68998,10.15288z" fill="#feed00" stroke="#000000" stroke-linecap="round"/><path d="M268.98877,223.623c2.84435,-2.53703 6.11269,-1.31896 7.30002,2.72062c0.53634,1.82474 0.59619,3.87748 0.23844,5.81376c-0.43424,2.35023 -2.04391,1.78376 -3.60342,3.17477c-1.49432,1.33286 -2.59944,4.42253 -4.01578,3.86359c-1.27958,-0.50498 -2.35599,-1.74742 -2.91953,-3.66476c-1.18733,-4.03959 0.15593,-9.37095 3.00028,-11.90799z" fill="#ffa600" stroke="none" stroke-linecap="butt"/><path d="M287.89184,232.6707c1.65517,-1.11715 3.36197,-0.14536 3.81225,2.17055c0.45027,2.31591 -0.52649,5.09895 -2.18166,6.2161c-1.65517,1.11715 -3.36199,0.14538 -3.81226,-2.17053c-0.45027,-2.31591 0.52649,-5.09895 2.18167,-6.2161z" fill="#ffa600" stroke="none" stroke-linecap="butt"/><path d="M276.8181,247.86108c1.63449,-1.10317 3.31966,-0.14511 3.76393,2.13991c0.44427,2.28502 -0.52059,5.03172 -2.15508,6.13489c-1.63449,1.10317 -3.31966,0.14511 -3.76393,-2.13991c-0.44427,-2.28502 0.52059,-5.03172 2.15508,-6.13489z" fill="#ffa600" stroke="none" stroke-linecap="butt"/><path d="M266.44781,247.27068c1.34483,-0.90768 2.79032,0.18385 3.2286,2.43799c0.43827,2.25415 -0.29666,4.81732 -1.64149,5.725c-1.34483,0.90768 -2.79032,-0.18385 -3.2286,-2.43799c-0.43827,-2.25415 0.29666,-4.81732 1.64149,-5.725z" fill="#ffa600" stroke="none" stroke-linecap="butt"/><path d="M258.83232,236.21923c0.91035,-0.61444 1.98416,0.61468 2.3984,2.74533c0.41426,2.13063 0.0121,4.35595 -0.89825,4.97038c-0.91035,0.61444 -1.98416,-0.61468 -2.3984,-2.74533c-0.41426,-2.13063 -0.01209,-4.35593 0.89825,-4.97038z" fill="#ffa600" stroke="none" stroke-linecap="butt"/></g><path d="M286.13702,207.76366c-1.3548,6.42015 -1.15782,17.99205 -4.92037,23.35715c-3.00075,4.27882 -22.25749,-1.07401 -24.99661,-4.78624c-0.95274,-1.29121 2.92252,-18.4025 3.50023,-20.87091c4.43211,-18.93724 10.15839,-37.00357 15.93599,-55.63147c1.58615,-5.11403 5.75795,-8.75095 7.42273,-13.56495l1.17617,-0.01125c13.14667,1.99421 25.14775,7.29338 38.90892,5.07671c5.50742,-0.88714 9.48254,-3.02052 13.32837,-7.05684c0.8793,-0.92285 3.44434,-3.16194 4.93782,-2.27291c3.36139,2.00094 5.70857,10.17685 7.59842,13.54591c7.79391,13.89423 13.36456,29.26948 17.39756,44.69325c1.1807,4.51544 -3.14668,15.6804 -4.05593,20.308c-1.06486,5.41959 -4.65215,-3.06731 -8.60863,0.55228c-1.10107,1.00731 -4.10885,4.51601 -5.63083,2.6693c-2.12035,-2.57276 -0.20379,-11.11497 -0.20379,-11.11497c0,0 1.50004,15.96577 2.77673,23.85213c0.62617,3.86793 2.85835,10.17988 1.17529,14.02615c-1.28197,2.92966 -10.20424,4.22639 -13.07316,4.68056c-11.60499,1.83712 -23.74713,0.15782 -35.34112,2.03225c-3.76843,0.60924 -13.22027,3.8895 -16.67927,2.23073c-1.84354,-0.88408 -1.16714,-6.41586 -1.25021,-8.16098c-0.36568,-7.68288 -1.97437,-16.44904 -0.82677,-24.05066" fill="#fffe8a" stroke="#000000" stroke-width="2" stroke-linecap="round"/><path d="M289.87562,127.63778c13.92425,-3.13655 27.4468,-6.32988 41.85936,-5.88531c3.07362,0.09482 13.81907,0.72478 13.2312,5.48128c-0.79898,6.46455 -6.92362,10.0934 -12.67746,11.76817c-10.37281,3.01922 -35.10698,5.02001 -44.81104,-0.03026c-6.90636,-3.59426 -5.50757,-11.17586 2.53159,-11.5585z" fill="#fffe8a" stroke="#000000" stroke-width="2" stroke-linecap="round"/><g stroke-width="2" stroke-linecap="round"><path d="M291.36972,56.06061c-12.15961,5.6463 -12.79686,18.7369 -15.73912,30.12203c-0.32334,1.2512 -2.89637,12.26424 -4.1939,12.15355c-0.53871,-0.04595 -0.42864,-0.99405 -0.60216,-1.5061c-1.38122,-4.07589 -3.14206,-8.03519 -4.55349,-12.11653c-3.52244,-10.18546 -6.04845,-20.74383 -8.46869,-31.25713c-0.69502,-3.01901 -2.86413,-9.88282 -1.76093,-12.82257c0.70694,-1.88381 1.32465,-1.1143 2.60589,-0.63267c6.58354,2.47484 13.03617,5.2408 19.49654,8.013c4.74426,2.0358 10.51589,3.85591 14.20621,7.5948z" fill="#feed00" stroke="#000000"/><path d="M285.18291,59.12498c-7.70225,4.44109 -7.35752,13.1259 -8.63522,20.81889c-0.14041,0.84545 -1.19596,8.27102 -2.05956,8.27382c-0.35856,0.00116 -0.34129,-0.63158 -0.48588,-0.9597c-1.15083,-2.61169 -2.54559,-5.12418 -3.7167,-7.73771c-2.92264,-6.52237 -5.20886,-13.34938 -7.42258,-20.15277c-0.6357,-1.95367 -2.47008,-6.36096 -1.91326,-8.36745c0.3568,-1.28579 0.80988,-0.81357 1.68442,-0.57035c4.49378,1.24978 8.91809,2.69952 13.34788,4.15293c3.25308,1.06734 7.17222,1.93207 9.82869,4.1861z" fill="#ffa700" stroke="none"/></g><g stroke-width="2" stroke-linecap="round"><path d="M326.18713,55.18407c3.08302,-4.25358 8.51335,-6.92488 12.89553,-9.65416c5.96733,-3.71653 11.92792,-7.42572 18.06193,-10.8669c1.19374,-0.6697 1.6881,-1.52372 2.67157,0.23166c1.53474,2.7393 0.42762,9.85207 0.19677,12.94143c-0.80392,10.75829 -1.70556,21.5771 -3.64854,32.17786c-0.77856,4.24774 -1.92092,8.42766 -2.67041,12.66545c-0.09415,0.53241 0.1579,1.45297 -0.36769,1.57979c-1.26591,0.30546 -5.47345,-10.19235 -5.98214,-11.38032c-4.62874,-10.80984 -7.23668,-23.65387 -20.10982,-27.39802z" fill="#feed00" stroke="#000000"/><path d="M333.13871,57.31791c2.2854,-2.62954 6.02887,-4.07653 9.08333,-5.62315c4.15933,-2.10607 8.3138,-4.20768 12.56713,-6.12209c0.82775,-0.37258 1.20427,-0.9078 1.75127,0.3093c0.8536,1.89932 -0.29378,6.53317 -0.62698,8.56047c-1.16033,7.05979 -2.38875,14.15385 -4.29231,21.04293c-0.76276,2.76049 -1.76188,5.45485 -2.50487,8.21045c-0.09335,0.34619 0.01931,0.96906 -0.3353,1.02211c-0.85412,0.12775 -3.01953,-7.05312 -3.28608,-7.86763c-2.42542,-7.41161 -3.39692,-16.04876 -11.68178,-19.27508z" fill="#ffa700" stroke="none"/></g><path d="M307.38998,53.02077c10.4266,-0.49627 22.86421,-2.0934 30.77041,5.77317c6.83909,6.8048 6.79362,13.2135 9.19774,21.58644c0.73837,2.57156 2.72414,4.40453 3.17717,7.27978c2.74671,17.4329 -4.91389,39.41017 -26.05619,42.69348c-17.70762,2.74992 -38.92518,0.1017 -49.7467,-14.85541c-6.75722,-9.33958 -2.95645,-22.62783 -0.2713,-32.21302c1.04041,-3.71398 -0.28824,-7.93396 0.94865,-11.84637c4.84217,-15.31628 17.90446,-17.47392 32.34637,-18.1613z" fill="#feed00" stroke="#000000" stroke-width="2" stroke-linecap="round"/><path d="M347.23233,92.305c4.30183,0.18552 15.71776,4.06747 11.61171,10.29099c-1.06834,1.61928 -7.09139,2.71519 -7.40234,3.9331c-0.2332,0.91335 1.14462,1.52279 1.50679,2.39308c0.9691,2.32875 1.69149,5.82185 1.45404,8.34516c-0.65322,6.94213 -10.88385,3.86654 -14.00362,1.07666" fill="#feed00" stroke="#000000" stroke-width="2" stroke-linecap="round"/><path d="M282.20428,123.9294c-2.84068,3.07357 -12.73295,7.10691 -14.04257,0.25823c-0.47603,-2.48935 -0.08865,-6.03527 0.65489,-8.44552c0.27788,-0.90077 1.59158,-1.63831 1.27269,-2.52538c-0.42522,-1.18288 -6.52512,-1.70177 -7.74243,-3.21228c-4.67857,-5.80541 6.31704,-10.75406 10.58181,-11.34731" fill="#feed00" stroke="#000000" stroke-width="2" stroke-linecap="round"/><path d="M234.6798,79.5417c14.31219,-0.46616 25.47315,9.56932 37.37276,15.63766" fill="none" stroke="#000000" stroke-width="2" stroke-linecap="round"/><path d="M240.16433,93.52456c10.69534,-1.81406 21.8206,1.05667 32.29788,2.86713" fill="none" stroke="#000000" stroke-width="2" stroke-linecap="round"/><path d="M245.07875,101.21172c8.60211,-2.03709 17.68089,-4.00627 26.5223,-4.42709" fill="none" stroke="#000000" stroke-width="2" stroke-linecap="round"/><path d="M350.11683,90.05604c7.97306,-8.76996 16.87464,-19.43955 29.50007,-20.05705" fill="none" stroke="#000000" stroke-width="2" stroke-linecap="round"/><path d="M347.52499,91.05926c10.57765,-8.34254 20.86408,-8.44694 33.26226,-5.30782" fill="none" stroke="#000000" stroke-width="2" stroke-linecap="round"/><path d="M351.10335,92.29672c8.42827,-3.84568 19.41381,-0.91012 27.31553,3.04032" fill="none" stroke="#000000" stroke-width="2" stroke-linecap="round"/><path d="M306.38638,103.06587c3.7158,-0.17685 7.61668,-0.604 11.32751,-0.31958c0.47098,0.03611 1.2648,-0.20298 1.39465,0.2512c0.17008,0.59494 -6.30913,4.68204 -7.07827,4.66151c-1.72959,-0.04614 -4.48767,-3.29621 -5.22631,-4.613z" fill="#000000" stroke="#000000" stroke-width="2" stroke-linecap="round"/><path d="M289.96687,59.9133c0.42434,-3.72098 4.07982,-5.05855 7.64479,-6.49694c0.39483,-0.1593 3.74038,-1.45804 3.63263,-1.94991c-0.19602,-0.89481 -5.43707,0.00763 -4.84143,-1.99602c0.8,-2.69112 11.37986,-2.57366 13.64727,-2.6818c0.32657,-0.01557 4.19889,-0.05836 4.24627,-0.20664c0.20301,-0.63538 -6.3813,-2.39166 -5.97743,-3.24108c0.22074,-0.46428 5.02743,0.87431 5.50847,1.03152c6.30205,2.05958 7.91374,5.79076 11.74795,10.074" fill="#feed00" stroke="#000000" stroke-width="2" stroke-linecap="round"/><path d="M277.22327,77.30037c-2.42397,-1.04823 -2.53627,-3.113 -4.42227,-4.71354c-0.96292,-0.81717 -5.89514,-1.18737 -5.88028,-2.8043c0.01955,-2.12674 5.92596,-3.2293 7.21513,-3.80491c0.90758,-0.40524 -0.86424,-8.58693 7.66615,-3.56087" fill="#feed00" stroke="#000000" stroke-width="2" stroke-linecap="round"/><path d="M299.85081,178.05463c1.26312,0.45446 4.68463,0.03527 5.2385,1.54852c1.85765,5.07523 -1.92222,9.88607 -6.81341,9.08663c-3.25701,-0.53233 1.9275,-11.35991 1.9275,-11.35991c0,0 -0.80709,-23.73526 1.15592,-35.34408" fill="#ffaf36" stroke="#000000" stroke-width="2" stroke-linecap="round"/><path d="M326.58758,177.38723c9.06937,-11.14654 9.19012,17.55839 -0.92253,9.96855c-5.47527,-4.10934 0.86619,-8.44471 1.25075,-10.98406c1.81518,-11.98627 -3.77902,-24.46765 -0.76062,-36.67634" fill="#ffaf36" stroke="#000000" stroke-width="2" stroke-linecap="round"/><path d="M289.3601,210.22827c3.40297,-2.99851 7.83493,-2.68448 12.00594,-3.54841c13.4529,-2.7865 28.63274,-2.61051 42.25277,-1.0621" fill="none" stroke="#000000" stroke-width="2" stroke-linecap="round"/><path d="M347.22804,236.33914c-0.5282,-8.88364 -2.58328,-17.81469 -1.52321,-26.78813" fill="none" stroke="#000000" stroke-width="2" stroke-linecap="round"/><path d="M290.06238,214.45443c0.40486,8.50608 1.2596,16.92698 1.46218,25.42455" fill="none" stroke="#000000" stroke-width="2" stroke-linecap="round"/><path d="M293.95221,137.27457c-2.66184,-0.79246 -4.56127,-3.27883 -7.03079,-4.60513" fill="none" stroke="#fcec41" stroke-width="2" stroke-linecap="round"/><path d="M336.61251,132.90894c1.57611,-1.16086 3.05719,-2.09032 4.84089,-2.90421" fill="none" stroke="#fcec41" stroke-width="2" stroke-linecap="round"/><path d="M309.00152,146.67753l0.45567,9.57357" fill="none" stroke="#fcec41" stroke-width="2" stroke-linecap="round"/><path d="M312.89303,154.68342l-0.23339,-4.90355" fill="none" stroke="#fcec41" stroke-width="2" stroke-linecap="round"/><path d="M316.15106,149.37965l0.87832,3.70269" fill="none" stroke="#fcec41" stroke-width="2" stroke-linecap="round"/><path d="M272.79714,229.90818l11.22695,-37.86843l-5.5008,37.09476z" fill="#fce541" stroke="#fcec41" stroke-width="2" stroke-linecap="round"/><path d="M272.79714,229.90818l11.22695,-37.86843l-5.5008,37.09476z" fill="#fce541" stroke="#fcec41" stroke-width="2" stroke-linecap="round"/><path d="M347.3552,210.37357l-8.67724,-29.64266l14.19574,24.50604z" fill="#fce541" stroke="#fcec41" stroke-width="2" stroke-linecap="round"/><path d="M322.29492,332.86815l-2.95195,-76.69656" fill="none" stroke="#000000" stroke-width="2" stroke-linecap="round"/><path d="M325.10203,341.11676c0.4122,8.66046 -8.06851,16.10071 -18.94219,16.61826c-10.87369,0.51755 -20.02271,-6.08358 -20.43491,-14.74406c-0.4122,-8.66046 8.06851,-16.10071 18.94219,-16.61826c10.87369,-0.51755 20.02271,6.08358 20.43491,14.74406z" fill="#000000" stroke="#000000" stroke-width="2" stroke-linecap="butt"/><path d="M363.11826,334.03354c0.4122,8.66047 -8.06851,16.10071 -18.9422,16.61826c-10.87368,0.51755 -20.02271,-6.08358 -20.43491,-14.74406c-0.4122,-8.66047 8.06851,-16.10071 18.94219,-16.61826c10.87369,-0.51755 20.02272,6.08358 20.43492,14.74406z" fill="#000000" stroke="#000000" stroke-width="2" stroke-linecap="butt"/><path d="M303.81041,126.09978l-0.31929,-6.70828l19.37109,-0.92199l0.31929,6.70828z" fill="none" stroke="#000000" stroke-width="2" stroke-linecap="butt"/><path d="M356.78135,193.16382c2.1528,3.88628 6.83995,9.45765 6.35086,13.30499c-0.92722,7.29393 -16.56123,15.23204 -28.56693,9.16514c-1.96658,-0.99378 -6.15523,-3.47391 -4.65759,-5.06787c0.32711,-0.34813 3.07964,-0.94131 2.73216,-1.49348c-0.11412,-0.18134 -4.39639,-1.29178 -5.00403,-1.59294c-3.24053,-1.60615 -6.3568,-4.12629 -6.55878,-6.68956c-0.19811,-2.5138 6.59784,-1.79036 6.65525,-2.83485c0.08621,-1.56851 -7.35491,-5.92498 -1.41051,-9.25961c3.21646,-1.80433 13.7194,0.48307 14.00746,0.31233c1.49589,-0.88668 -1.12977,-6.27529 6.47449,-6.83044c6.99384,-0.51056 11.88944,7.84957 10.31956,10.90445z" fill="#feed00" stroke="#000000" stroke-width="2" stroke-linecap="round"/><path d="M280.80997,93.06273l23.31931,-1.24427" fill="none" stroke="#000000" stroke-width="2" stroke-linecap="round"/><path d="M318.81104,90.93646l23.31931,-1.24427" fill="none" stroke="#000000" stroke-width="2" stroke-linecap="round"/><path d="M189.8961,150.26689c-2.73434,-0.29308 -2.44126,-3.02741 -2.44126,-3.02741l0.26373,-2.35468c1.07957,-5.39732 1.87115,-10.88461 3.05759,-16.25665c1.57732,-7.14189 4.10222,-14.12374 5.87754,-21.22766c0,0 0.66697,-2.66789 3.33486,-2.00092c2.66789,0.66697 2.00092,3.33486 2.00092,3.33486c-1.77159,7.0838 -4.2976,14.05026 -5.86414,21.17286c-1.16712,5.30655 -1.94756,10.72549 -3.01358,16.05615l-0.18825,1.8622c0,0 -0.29308,2.73433 -3.02742,2.44125z" fill="#ffa600" stroke="none" stroke-width="0.5" stroke-linecap="butt"/></g></g></svg>