<svg version="1.1" xmlns="http://www.w3.org/2000/svg" xmlns:xlink="http://www.w3.org/1999/xlink" width="172.46669" height="310.94544" viewBox="0,0,172.46669,310.94544"><defs><linearGradient x1="318.63752" y1="166.52653" x2="318.63752" y2="345.3589" gradientUnits="userSpaceOnUse" id="color-1"><stop offset="0" stop-color="#383838"/><stop offset="1" stop-color="#494949"/></linearGradient><linearGradient x1="350.07374" y1="167.58769" x2="350.07374" y2="348.39213" gradientUnits="userSpaceOnUse" id="color-2"><stop offset="0" stop-color="#666666"/><stop offset="1" stop-color="#4b4b4b"/></linearGradient><linearGradient x1="288.26775" y1="166.33903" x2="288.26775" y2="347.14347" gradientUnits="userSpaceOnUse" id="color-3"><stop offset="0" stop-color="#666666"/><stop offset="1" stop-color="#4b4b4b"/></linearGradient><radialGradient cx="353.84273" cy="96.80428" r="23.97306" gradientUnits="userSpaceOnUse" id="color-4"><stop offset="0" stop-color="#000000" stop-opacity="0.92549"/><stop offset="1" stop-color="#000000" stop-opacity="0"/></radialGradient><radialGradient cx="283.74332" cy="100.66273" r="25.35587" gradientUnits="userSpaceOnUse" id="color-5"><stop offset="0" stop-color="#000000" stop-opacity="0.92549"/><stop offset="1" stop-color="#000000" stop-opacity="0"/></radialGradient><linearGradient x1="274.86665" y1="40.3463" x2="278.40486" y2="125.4716" gradientUnits="userSpaceOnUse" id="color-6"><stop offset="0" stop-color="#9c9c9c"/><stop offset="1" stop-color="#2c2c2c"/></linearGradient><linearGradient x1="361.5142" y1="41.5179" x2="361.5142" y2="129.77714" gradientUnits="userSpaceOnUse" id="color-7"><stop offset="0" stop-color="#9c9c9c"/><stop offset="1" stop-color="#2c2c2c"/></linearGradient><linearGradient x1="284.24321" y1="183.95818" x2="284.24321" y2="204.74687" gradientUnits="userSpaceOnUse" id="color-8"><stop offset="0" stop-color="#878787"/><stop offset="1" stop-color="#848484"/></linearGradient></defs><g transform="translate(-232.60463,-38.8137)"><g stroke-miterlimit="10"><path d="M271.59093,341.72027l-2.12923,-147.27579c0,0 6.62477,-25.69821 16.43299,-26.10344c9.74037,-0.40242 32.82784,-0.95905 52.99415,-1.79223c21.87273,-0.90368 28.68715,25.97468 28.68715,25.97468l0.23734,152.83541z" fill="url(#color-1)" stroke="#000000" stroke-width="2.5" stroke-linecap="butt"/><path d="M327.15731,348.39213l9.75691,-98.70894c0,0 -6.47072,-81.00484 3.7222,-80.10116c9.39771,0.83318 14.26175,-2.36153 18.80086,-1.95911c4.57074,0.40523 13.55291,29.85478 13.55291,29.85478l-0.99224,147.27579z" fill="url(#color-2)" stroke="#000000" stroke-width="2.5" stroke-linecap="butt"/><path d="M266.34355,343.50484l-0.99224,-147.27579c0,0 8.98217,-29.44955 13.5529,-29.85478c4.53911,-0.40242 9.40315,2.79229 18.80086,1.95911c10.19292,-0.90368 3.72221,80.10116 3.72221,80.10116l9.75691,98.70894z" fill="url(#color-3)" stroke="#000000" stroke-width="2.5" stroke-linecap="butt"/><path d="M333.44807,180c0,7.57528 -6.0209,13.71624 -13.44807,13.71624c-7.42717,0 -13.44807,-6.14097 -13.44807,-13.71624c0,-7.57528 6.0209,-13.71624 13.44807,-13.71624c7.42717,0 13.44807,6.14097 13.44807,13.71624z" fill="#9c9c9c" stroke="#000000" stroke-width="2.5" stroke-linecap="butt"/><path d="M374.45997,129.33183c-1.94104,28.48816 -27.92848,52.9286 -58.11114,50.8721c-30.18266,-2.05649 -53.13099,-29.83117 -51.18995,-58.31932c1.94104,-28.48815 27.98246,-49.91526 58.16512,-47.85875c30.18266,2.05649 53.07703,26.81782 51.13599,55.30597z" fill="#9c9c9c" stroke="#000000" stroke-width="2.5" stroke-linecap="butt"/><path d="M324.51495,124.21566c0,2.70884 -6.65243,4.90479 -14.85862,4.90479c-8.2062,0 -14.85862,-2.19595 -14.85862,-4.90479c0,-2.70884 6.65243,-4.90479 14.85862,-4.90479c8.2062,0 14.85862,2.19595 14.85862,4.90479z" fill-opacity="0.18431" fill="#000000" stroke="none" stroke-width="0" stroke-linecap="butt"/><path d="M303.11661,171.887h26.92169" fill="none" stroke="#000000" stroke-width="2.5" stroke-linecap="round"/><path d="M271.80546,142.20897c0.51844,-0.09046 2.96856,0.0492 1.70172,1.39603c-0.27904,0.29666 -1.69872,0.16228 -1.9591,-0.06923c-0.40009,-0.35574 0.75153,-1.09588 0.45362,-1.54071c-0.18548,-0.27696 -0.58881,0.702 -0.86068,0.50913c-0.27186,-0.19287 0.13075,-0.65372 0.19612,-0.98058z" fill="none" stroke="#000000" stroke-width="2.5" stroke-linecap="round"/><path d="M282.67406,143.54744c-2.65388,-0.86402 1.20257,-1.90253 1.43226,-0.7943c0.40974,1.97691 -4.39304,-0.77143 -0.17154,-0.77143" fill="none" stroke="#000000" stroke-width="2.5" stroke-linecap="round"/><path d="M277.3862,147.92287c4.50712,-0.67684 -0.2681,3.30488 -0.94839,1.88101c-0.29505,-0.61755 1.16066,-1.25478 0.85458,-1.86693z" fill="none" stroke="#000000" stroke-width="2.5" stroke-linecap="round"/><path d="M343.3273,143.17687c0.57921,-0.18134 1.91534,-0.46708 1.85049,0.05493c-0.00327,0.02636 -3.78171,0.86317 -1.97601,-1.18443" fill="none" stroke="#000000" stroke-width="2.5" stroke-linecap="round"/><path d="M352.37394,143.42946c0.99634,1.79911 -2.1109,0.87479 -0.01024,-0.01849z" fill="none" stroke="#000000" stroke-width="2.5" stroke-linecap="round"/><path d="M348.32046,148.33496c-0.31712,0.11462 -3.01366,0.96013 -2.21641,-0.49885c0.29948,-0.54806 2.65164,-0.69206 2.34427,0.45989c-0.13768,0.51599 -2.49667,1.15227 -1.12368,-0.40465z" fill="none" stroke="#000000" stroke-width="2.5" stroke-linecap="round"/><path d="M333.23249,81.91848c2.67656,-14.281 14.07385,-19.19344 25.45656,-10.97223c11.38271,8.22121 18.44045,26.46285 15.76389,40.74386c-2.67656,14.281 -14.07386,19.19344 -25.45658,10.97223c-11.38271,-8.22121 -18.44044,-26.46285 -15.76388,-40.74384z" fill="url(#color-4)" stroke="#000000" stroke-width="0" stroke-linecap="butt"/><path d="M305.54239,85.5329c2.83095,14.51511 -4.63388,33.05582 -16.67317,41.41181c-12.03929,8.35599 -24.09401,3.36302 -26.92496,-11.15211c-2.83095,-14.51513 4.63389,-33.05583 16.67318,-41.41183c12.03929,-8.35599 24.094,-3.36301 26.92495,11.15212z" fill="url(#color-5)" stroke="#000000" stroke-width="0" stroke-linecap="butt"/><path d="M268.77702,125.87178l-33.71707,-83.87091l69.79016,37.91295c0,0 -4.52634,18.73721 -9.84228,25.50984c-6.47741,8.25238 -26.23082,20.44814 -26.23082,20.44814z" fill="url(#color-6)" stroke="#000000" stroke-width="2.5" stroke-linecap="butt"/><path d="M334.77303,79.41719l68.01336,-37.89929l-31.2899,88.25926c0,0 -19.22705,-16.69957 -25.6051,-25.44599c-5.81004,-7.96748 -11.11836,-24.91397 -11.11836,-24.91397z" fill="url(#color-7)" stroke="#000000" stroke-width="2.5" stroke-linecap="butt"/><path d="M285.44452,121.75547c0.01785,2.2348 -1.95612,4.06232 -4.40893,4.0819c-2.45283,0.01958 -4.45569,-1.77621 -4.47354,-4.011c-0.01785,-2.2348 1.95612,-4.06232 4.40893,-4.0819c2.45283,-0.01958 4.45568,1.77621 4.47352,4.01101z" fill="#ffffff" stroke="#000000" stroke-width="2.5" stroke-linecap="butt"/><path d="M338.80787,121.64338c0.01785,2.2348 -1.95611,4.06232 -4.40893,4.0819c-2.45283,0.01958 -4.45568,-1.77621 -4.47352,-4.011c-0.01785,-2.2348 1.95611,-4.06231 4.40893,-4.08189c2.45283,-0.01958 4.45569,1.7762 4.47353,4.01099z" fill="#ffffff" stroke="#000000" stroke-width="2.5" stroke-linecap="butt"/><path d="M294.67221,124.04144l-6.40322,6.58617" fill="none" stroke="#000000" stroke-width="2.5" stroke-linecap="round"/><path d="M301.80723,118.00411l-24.33224,-0.18294" fill="none" stroke="#000000" stroke-width="2.5" stroke-linecap="round"/><path d="M305.71663,219.63699l29.42873,1.7311" fill="none" stroke="#000000" stroke-width="2.5" stroke-linecap="round"/><path d="M304.27404,232.33174h29.42873" fill="none" stroke="#000000" stroke-width="2.5" stroke-linecap="round"/><path d="M337.16499,242.14132l-34.33353,0.86555" fill="none" stroke="#000000" stroke-width="2.5" stroke-linecap="round"/><path d="M303.11996,254.54755h32.89094" fill="none" stroke="#000000" stroke-width="2.5" stroke-linecap="round"/><path d="M306.00514,266.95378l28.56319,-0.28852" fill="none" stroke="#000000" stroke-width="2.5" stroke-linecap="round"/><path d="M333.12574,279.93705l-25.96653,0.86555" fill="none" stroke="#000000" stroke-width="2.5" stroke-linecap="round"/><path d="M309.75586,293.20883l19.90768,-0.57703" fill="none" stroke="#000000" stroke-width="2.5" stroke-linecap="round"/><path d="M328.79799,302.72989l-18.17657,0.28851" fill="none" stroke="#000000" stroke-width="2.5" stroke-linecap="round"/><path d="M311.48697,314.27057l18.17657,-0.57704" fill="none" stroke="#000000" stroke-width="2.5" stroke-linecap="round"/><path d="M306.00514,208.67334l29.71726,1.7311" fill="none" stroke="#000000" stroke-width="2.5" stroke-linecap="round"/><path d="M306.58218,198.86376l26.54357,0.86555" fill="none" stroke="#000000" stroke-width="2.5" stroke-linecap="round"/><path d="M340.57427,228.19396l-0.57704,-21.9273l29.71726,0.57704l-1.7311,18.7536" fill="none" stroke="#000000" stroke-width="2.5" stroke-linecap="round"/><path d="M353.84606,228.771l-0.57703,54.52971l-1.15407,61.45413" fill="none" stroke="#000000" stroke-width="2.5" stroke-linecap="round"/><path d="M295.49481,194.35252c0,5.74063 -5.03751,10.39435 -11.2516,10.39435c-6.21409,0 -11.25161,-4.65371 -11.25161,-10.39435c0,-5.74063 5.03752,-10.39434 11.25161,-10.39434c6.21409,0 11.2516,4.65371 11.2516,10.39434z" fill="url(#color-8)" stroke="#000000" stroke-width="2.5" stroke-linecap="butt"/></g></g></svg>