<svg version="1.1" xmlns="http://www.w3.org/2000/svg" xmlns:xlink="http://www.w3.org/1999/xlink" width="191.88065" height="321.85137" viewBox="0,0,191.88065,321.85137"><g transform="translate(-200.70911,-37.14792)"><g data-paper-data="{&quot;isPaintingLayer&quot;:true}" fill-rule="nonzero" stroke-linejoin="miter" stroke-miterlimit="10" stroke-dasharray="" stroke-dashoffset="0" style="mix-blend-mode: normal"><path d="M301.41053,251.24832c-7.82365,3.45406 -19.75712,0.71027 -27.71666,-1.78444c-24.07589,-7.54595 -52.75028,-27.13481 -54.72578,-55.17809c-1.33613,-18.96696 13.27502,-31.96927 27.94841,-40.89114c5.56683,-3.38481 17.37621,-9.13672 21.19435,-0.88179c1.01606,2.19678 1.18892,4.59044 0.11917,6.835c-2.31104,4.84906 -9.79673,6.13571 -13.8609,9.29625c-12.28042,9.55 -17.80441,24.04795 -9.93349,38.20328c8.33377,14.98771 27.06205,20.1935 43.04841,18.1221c8.26386,-1.07079 16.44352,-4.98415 24.9919,-2.7117c25.3442,6.73737 5.43547,26.55755 -9.84381,29.29304z" fill="#feed00" stroke="#000000" stroke-width="2" stroke-linecap="round"/><path d="M294.10413,246.55964c5.74082,-0.07194 13.51238,-1.18079 19.28666,-2.01444c6.29597,-0.90896 14.81069,0.09503 21.25604,0.13639c3.78611,0.0243 12.38603,-0.7905 15.37061,0.76911c1.93194,1.00955 1.79451,3.60636 2.25597,4.94563c1.71474,4.97671 0.72429,10.40573 2.44135,15.48004c2.02832,5.9942 0.03394,12.10438 0.86148,18.2434c1.54697,11.47614 2.40902,23.12904 -2.20171,34.70367c-2.01624,5.06153 6.18678,11.22905 -2.69267,14.27417c-3.14431,1.0783 -10.97299,8.01837 -14.4589,7.996c-5.05699,-0.03245 -11.17186,-5.02496 -17.35846,-6.15729c-7.87731,-1.4418 -18.30966,2.85141 -24.18595,1.27617c-2.9414,-0.78849 -6.79177,-4.06057 -8.31203,-5.99899c-1.90568,-2.42988 1.58926,-13.39833 1.80804,-16.64906c1.07588,-15.98592 0.29926,-24.80785 1.37346,-40.80783c0.35299,-5.2575 -0.0671,-22.54523 3.13666,-26.20522z" fill="#3c2c1f" stroke="#000000" stroke-width="2" stroke-linecap="round"/><g stroke-width="2"><path d="M353.37457,221.88827c2.89419,-3.37065 6.48623,-9.70365 10.2633,-10.58399c7.1607,-1.669 20.04322,10.2254 18.53347,23.59195c-0.2473,2.18949 -1.11478,6.97941 -3.13028,6.13006c-0.44019,-0.18552 -1.95417,-2.55958 -2.35091,-2.04165c-0.1303,0.17009 0.31888,4.57113 0.248,5.2456c-0.37807,3.59692 -1.65623,7.3954 -3.98902,8.47678c-2.28774,1.06052 -3.97448,-5.56242 -4.97366,-5.25275c-1.50048,0.46502 -2.99517,8.95708 -8.19,4.54466c-2.81087,-2.38752 -4.32142,-13.03 -4.58174,-13.24062c-1.35182,-1.09383 -5.48991,3.24293 -8.65661,-3.69284c-2.91247,-6.37902 3.22146,-13.87792 6.63172,-13.46925z" fill="#feed00" stroke="#000000" stroke-linecap="round"/><path d="M372.93212,229.51816c-0.4842,1.93889 -1.5086,3.22457 -2.76632,3.78175c-1.39215,0.61674 -2.62342,-2.42488 -4.1713,-3.69514c-1.61541,-1.32568 -3.2004,-0.69348 -3.73096,-3.02388c-0.43709,-1.91992 -0.46173,-3.9734 -0.00089,-5.81865c1.02017,-4.085 4.23563,-5.43649 7.18193,-3.0186c2.9463,2.41788 4.50771,7.6895 3.48754,11.7745z" fill="#ffa600" stroke="none" stroke-linecap="butt"/><path d="M353.36516,233.68233c-0.35463,2.33247 -2.02002,3.37363 -3.71976,2.32552c-1.69972,-1.04813 -2.79013,-3.78864 -2.43549,-6.1211c0.35463,-2.33247 2.02002,-3.37363 3.71975,-2.32552c1.69972,1.04813 2.79015,3.78864 2.4355,6.1211z" fill="#ffa600" stroke="none" stroke-linecap="butt"/><path d="M365.02443,248.32431c-0.3499,2.30136 -1.99426,3.32794 -3.67273,2.29291c-1.67848,-1.03501 -2.75551,-3.73971 -2.4056,-6.04107c0.3499,-2.30136 1.99426,-3.32794 3.67273,-2.29292c1.67848,1.03501 2.75551,3.73971 2.4056,6.04107z" fill="#ffa600" stroke="none" stroke-linecap="butt"/><path d="M374.83163,246.91944c-0.34519,2.27028 -1.74456,3.42033 -3.12558,2.56872c-1.38102,-0.8516 -2.22074,-3.38238 -1.87556,-5.65264c0.34519,-2.27028 1.74456,-3.42033 3.12558,-2.56872c1.38102,0.8516 2.22074,3.38236 1.87556,5.65264z" fill="#ffa600" stroke="none" stroke-linecap="butt"/><path d="M381.21248,234.84068c-0.32625,2.14587 -1.3486,3.41811 -2.28345,2.84165c-0.93485,-0.57648 -1.4282,-2.78334 -1.10194,-4.92923c0.32625,-2.14587 1.3486,-3.41811 2.28345,-2.84165c0.93485,0.57648 1.4282,2.78334 1.10194,4.92923z" fill="#ffa600" stroke="none" stroke-linecap="butt"/></g><g stroke-width="2"><path d="M288.73078,226.13763c3.41522,-0.36487 9.45241,7.21213 6.45832,13.55324c-3.25542,6.89456 -7.33752,2.50506 -8.70327,3.58145c-0.263,0.20726 -1.90999,10.82948 -4.75127,13.18074c-5.25102,4.34541 -6.63663,-4.16513 -8.131,-4.64938c-0.99512,-0.32246 -2.76669,6.27828 -5.04066,5.18848c-2.3187,-1.11122 -3.54801,-4.9258 -3.87989,-8.52727c-0.06222,-0.67533 0.44339,-5.07023 0.31529,-5.24199c-0.39005,-0.52297 -1.93435,1.83147 -2.37692,2.01132c-2.02623,0.82343 -2.83219,-3.97724 -3.05137,-6.16973c-1.33811,-13.38483 11.696,-25.11292 18.83468,-23.35217c3.76548,0.92876 7.27593,7.30732 10.12665,10.71482z" fill="#feed00" stroke="#000000" stroke-linecap="round"/><path d="M272.51587,222.07667c2.97708,-2.37988 6.17495,-0.98726 7.14261,3.11049c0.43711,1.85102 0.38613,3.90399 -0.07556,5.81816c-0.5604,2.32338 -2.13717,1.67089 -3.76946,2.97574c-1.56406,1.2503 -2.83425,4.27585 -4.21837,3.64131c-1.25048,-0.57328 -2.25829,-1.87198 -2.71757,-3.81694c-0.96767,-4.09777 0.66127,-9.34889 3.63835,-11.72877z" fill="#ffa600" stroke="none" stroke-linecap="butt"/><path d="M290.90327,232.13102c1.71303,-1.02623 3.36492,0.03624 3.6896,2.37306c0.32467,2.33683 -0.80081,5.06311 -2.51384,6.08935c-1.71303,1.02623 -3.36494,-0.03622 -3.68961,-2.37304c-0.32467,-2.33683 0.80081,-5.06311 2.51385,-6.08934z" fill="#ffa600" stroke="none" stroke-linecap="butt"/><path d="M279.02614,246.70184c1.69163,-1.01339 3.32266,0.0342 3.643,2.33987c0.32034,2.30567 -0.7913,4.9963 -2.48293,6.00969c-1.69163,1.01339 -3.32266,-0.0342 -3.643,-2.33987c-0.32034,-2.30567 0.7913,-4.9963 2.48293,-6.00969z" fill="#ffa600" stroke="none" stroke-linecap="butt"/><path d="M268.7028,245.55282c1.39183,-0.83381 2.77634,0.33412 3.09236,2.60863c0.31602,2.27451 -0.55612,4.7943 -1.94796,5.62811c-1.39183,0.83381 -2.77634,-0.33412 -3.09236,-2.60863c-0.31602,-2.27451 0.55612,-4.7943 1.94796,-5.62811z" fill="#ffa600" stroke="none" stroke-linecap="butt"/><path d="M261.69464,234.10661c0.94217,-0.56444 1.94811,0.72083 2.2468,2.87073c0.29871,2.14988 -0.22293,4.35025 -1.1651,4.91467c-0.94217,0.56444 -1.94811,-0.72083 -2.2468,-2.87073c-0.29871,-2.14988 0.22293,-4.35023 1.1651,-4.91467z" fill="#ffa600" stroke="none" stroke-linecap="butt"/></g><path d="M290.49475,207.16558c-1.6992,6.33771 -2.12682,17.90338 -6.17334,23.05767c-3.22723,4.1107 -22.16713,-2.27325 -24.70199,-6.12786c-0.8817,-1.34073 3.91108,-18.21803 4.62113,-20.65168c5.44733,-18.67054 12.13996,-36.40163 18.91412,-54.69069c1.85974,-5.02101 6.22169,-8.42757 8.14376,-13.14474l1.17506,0.05223c13.01993,2.70058 24.71765,8.6395 38.57836,7.16848c5.54726,-0.58871 9.63168,-2.50453 13.68969,-6.3275c0.92781,-0.87407 3.60991,-2.97151 5.05325,-2.00319c3.24854,2.17938 5.15121,10.47001 6.85654,13.93613c7.03295,14.29448 11.766,29.94789 14.961,45.56677c0.93537,4.57257 5.77864,11.61953 4.62105,16.19134c-1.3557,5.35425 -10.38818,11.85924 -14.53418,15.26012c-1.15381,0.94644 -4.1789,4.80156 -5.59903,2.87544c-1.97846,-2.68341 -3.62985,-22.9284 -3.62985,-22.9284c0,0 0.63649,16.02344 1.48584,23.96719c0.41658,3.89608 2.30497,10.31927 0.41685,14.06913c-1.43816,2.85623 -10.41739,3.66971 -13.30664,3.96844c-11.68721,1.20834 -23.72106,-1.12358 -35.39929,0.12261c-3.79581,0.40504 -13.41085,3.1706 -16.77532,1.32763c-1.79315,-0.98226 -0.81931,-6.46948 -0.8081,-8.21654c0.04935,-7.69142 -1.08405,-16.5316 0.47198,-24.06024" fill="#fffe8a" stroke="#000000" stroke-width="2" stroke-linecap="round"/><path d="M298.55075,127.35809c14.07318,-2.38076 27.74833,-4.83989 42.11592,-3.6184c3.06403,0.2605 13.75984,1.46927 12.91622,6.18712c-1.14658,6.41203 -7.45807,9.70517 -13.2939,11.06708c-10.52059,2.45521 -35.32669,3.11866 -44.74414,-2.4478c-6.70238,-3.96163 -4.89661,-11.45672 3.15149,-11.40508z" fill="#fffe8a" stroke="#000000" stroke-width="2" stroke-linecap="round"/><g stroke-width="2" stroke-linecap="round"><path d="M303.9043,55.96579c-12.44652,4.98206 -13.7891,18.01921 -17.34129,29.22902c-0.39037,1.23193 -3.55382,12.09012 -4.84348,11.90959c-0.53545,-0.07495 -0.37439,-1.01573 -0.52004,-1.5364c-1.15931,-4.14447 -2.70399,-8.19301 -3.89317,-12.34454c-2.9678,-10.36066 -4.9205,-21.03994 -6.77002,-31.6685c-0.53113,-3.05211 -2.32678,-10.02295 -1.06657,-12.8989c0.80754,-1.84293 1.38284,-1.04121 2.63623,-0.49115c6.44044,2.82642 12.73444,5.93647 19.03585,9.05317c4.62752,2.28879 10.29255,4.41764 13.77577,8.35017z" fill="#feed00" stroke="#000000"/><path d="M297.56118,58.69191c-7.93064,4.01908 -8.05496,12.70984 -9.74583,20.32269c-0.18582,0.83665 -1.64045,8.19445 -2.50294,8.15066c-0.3581,-0.01818 -0.30673,-0.64907 -0.43339,-0.98452c-1.00825,-2.66997 -2.26543,-5.25406 -3.29384,-7.92695c-2.5665,-6.67055 -4.48107,-13.61096 -6.32452,-20.52388c-0.52937,-1.98511 -2.1233,-6.48495 -1.45904,-8.45849c0.42566,-1.26466 0.85259,-0.7687 1.71273,-0.47864c4.41981,1.4904 8.75946,3.17672 13.10439,4.86701c3.19077,1.24129 7.05753,2.31621 9.58854,4.71027z" fill="#ffa700" stroke="none"/></g><g stroke-width="2" stroke-linecap="round"><path d="M338.71829,56.96893c3.30801,-4.08106 8.87455,-6.45549 13.3976,-8.94438c6.15915,-3.38918 12.31117,-6.77139 18.6219,-9.87663c1.22814,-0.60432 1.76785,-1.43042 2.65518,0.37546c1.38472,2.81812 -0.10452,9.8608 -0.50172,12.9332c-1.38317,10.69924 -2.86718,21.45365 -5.37924,31.93415c-1.0066,4.19955 -2.3728,8.31175 -3.34984,12.50293c-0.12274,0.52656 0.07928,1.45937 -0.45239,1.55765c-1.28054,0.23672 -4.91559,-10.4728 -5.35946,-11.68649c-4.03881,-11.04382 -5.95001,-24.00984 -18.60239,-28.44306z" fill="#feed00" stroke="#000000"/><path d="M345.54462,59.47471c2.42393,-2.50241 6.24002,-3.74533 9.37348,-5.12491c4.26689,-1.8786 8.5287,-3.75301 12.87912,-5.43517c0.84665,-0.32738 1.2515,-0.84151 1.73203,0.40333c0.74989,1.9426 -0.64582,6.50781 -1.08791,8.51418c-1.53953,6.98691 -3.14888,14.00436 -5.42134,20.78072c-0.91058,2.71531 -2.0536,5.35185 -2.94418,8.06336c-0.11189,0.34065 -0.033,0.96868 -0.38995,1.00253c-0.85978,0.08148 -2.63461,-7.20575 -2.85684,-8.03346c-2.02203,-7.53167 -2.52613,-16.20865 -10.62487,-19.87725z" fill="#ffa700" stroke="none"/></g><path d="M320.06437,53.92888c10.43819,0.06698 22.94385,-0.85681 30.41414,7.42485c6.46201,7.16386 6.07085,13.56077 8.01974,22.05123c0.59856,2.60765 2.48255,4.54508 2.77979,7.44059c1.80219,17.5557 -7.03294,39.08767 -28.32158,41.22556c-17.83018,1.79059 -38.87398,-1.99848 -48.8728,-17.51764c-6.2435,-9.69053 -1.73137,-22.75437 1.46701,-32.18074c1.23927,-3.65244 0.14022,-7.93796 1.58638,-11.77794c5.66144,-15.03274 18.82111,-16.48252 33.27907,-16.38975z" fill="#feed00" stroke="#000000" stroke-width="2" stroke-linecap="round"/><path d="M357.73015,95.1712c4.28556,0.41734 15.47543,4.90953 11.0396,10.90246c-1.15414,1.55928 -7.22755,2.32865 -7.60375,3.52802c-0.28213,0.89944 1.0608,1.58233 1.37548,2.47089c0.84205,2.37765 1.37493,5.90462 1.0017,8.41145c-1.02681,6.89677 -11.07661,3.27372 -14.04131,0.31959" fill="#feed00" stroke="#000000" stroke-width="2" stroke-linecap="round"/><path d="M291.09065,123.24125c-3.00236,2.91584 -13.09782,6.40961 -14.03605,-0.49975c-0.34103,-2.51141 0.23708,-6.03126 1.10958,-8.39788c0.32607,-0.88447 1.67765,-1.55006 1.40708,-2.45304c-0.36078,-1.2041 -6.42381,-2.05133 -7.55785,-3.62531c-4.35855,-6.04937 6.88802,-10.39759 11.17859,-10.75989" fill="#feed00" stroke="#000000" stroke-width="2" stroke-linecap="round"/><path d="M246.03013,76.35422c14.31649,0.30666 24.91979,10.92967 36.47467,17.63117" fill="none" stroke="#000000" stroke-width="2" stroke-linecap="round"/><path d="M250.75229,90.6126c10.77763,-1.2344 21.73182,2.23236 32.09616,4.60545" fill="none" stroke="#000000" stroke-width="2" stroke-linecap="round"/><path d="M255.24481,98.5537c8.69948,-1.57003 17.87128,-3.04654 26.72252,-2.98975" fill="none" stroke="#000000" stroke-width="2" stroke-linecap="round"/><path d="M360.73179,93.08112c8.43459,-8.32704 17.89884,-18.50085 30.53919,-18.4363" fill="none" stroke="#000000" stroke-width="2" stroke-linecap="round"/><path d="M358.08959,93.94306c11.01233,-7.75972 21.28941,-7.30901 33.50017,-3.50557" fill="none" stroke="#000000" stroke-width="2" stroke-linecap="round"/><path d="M361.59598,95.37177c8.62347,-3.38537 19.43464,0.13859 27.11172,4.50958" fill="none" stroke="#000000" stroke-width="2" stroke-linecap="round"/><path d="M316.36314,103.71273c3.71993,0.02388 7.63817,-0.1922 11.32825,0.29202c0.46835,0.06147 1.27391,-0.13445 1.37906,0.32607c0.13773,0.60324 -6.55254,4.33484 -7.31945,4.27285c-1.72458,-0.13939 -4.30331,-3.53353 -4.96983,-4.88824z" fill="#000000" stroke="#000000" stroke-width="2" stroke-linecap="round"/><path d="M317.44691,85.05978c-0.04542,7.07799 -5.73315,12.77957 -12.70389,12.73485c-6.97074,-0.04472 -12.58482,-5.81884 -12.5394,-12.89683c0.04542,-7.07799 5.73314,-12.77956 12.70387,-12.73484c6.97074,0.04472 12.58484,5.81883 12.53943,12.89682z" fill="#ffffff" stroke="#000000" stroke-width="2" stroke-linecap="butt"/><path d="M352.51711,84.86229c-0.04542,7.07799 -5.73314,12.77956 -12.70387,12.73484c-6.97074,-0.04472 -12.58482,-5.81883 -12.53941,-12.89682c0.04542,-7.07799 5.73314,-12.77956 12.70387,-12.73484c6.97074,0.04472 12.58482,5.81883 12.53941,12.89682z" fill="#ffffff" stroke="#000000" stroke-width="2" stroke-linecap="butt"/><path d="M313.46943,85.03426c-0.03244,5.0557 -3.99956,9.12888 -8.86081,9.09769c-4.86125,-0.03119 -8.77578,-4.15494 -8.74334,-9.21064c0.03244,-5.0557 3.99956,-9.12888 8.86081,-9.09769c4.86125,0.03119 8.77578,4.15494 8.74334,9.21064z" fill="#ffffff" stroke="#000000" stroke-width="2" stroke-linecap="butt"/><path d="M348.68047,84.83767c-0.03244,5.0557 -3.99956,9.12888 -8.86081,9.09769c-4.86125,-0.03119 -8.77578,-4.15494 -8.74334,-9.21064c0.03244,-5.0557 3.99956,-9.12888 8.86081,-9.09769c4.86125,0.03119 8.77578,4.15494 8.74334,9.21064z" fill="#ffffff" stroke="#000000" stroke-width="2" stroke-linecap="butt"/><path d="M302.29564,59.73718c0.62446,-3.69267 4.34679,-4.83108 7.98418,-6.07504c0.40285,-0.13777 3.81359,-1.25412 3.73254,-1.75109c-0.14746,-0.90408 -5.42956,-0.28571 -4.72669,-2.25432c0.94402,-2.64404 11.50214,-1.95596 13.77208,-1.94162c0.32693,0.00207 4.19592,0.16826 4.25123,0.02274c0.23699,-0.62351 -6.24297,-2.73245 -5.79387,-3.55884c0.24546,-0.45169 4.97294,1.14427 5.4448,1.32721c6.18176,2.39659 7.5898,6.20928 11.18734,10.69313" fill="#feed00" stroke="#000000" stroke-width="2" stroke-linecap="round"/><path d="M288.63256,76.4114c-2.36389,-1.17748 -2.36463,-3.2453 -4.16153,-4.94526c-0.91743,-0.86794 -5.82249,-1.50369 -5.72042,-3.11746c0.13427,-2.12259 6.09156,-2.90488 7.4099,-3.4101c0.92812,-0.35568 -0.39971,-8.62105 7.84709,-3.1421" fill="#feed00" stroke="#000000" stroke-width="2" stroke-linecap="round"/><path d="M305.7914,178.23968c1.23676,0.52194 4.67591,0.28796 5.14733,1.82888c1.58113,5.16806 -2.45278,9.76796 -7.29372,8.70581c-3.22355,-0.70727 2.53757,-11.23937 2.53757,-11.23937c0,0 0.47461,-23.74424 3.06106,-35.23025" fill="#ffaf36" stroke="#000000" stroke-width="2" stroke-linecap="round"/><path d="M332.52524,179.01573c9.65752,-10.64101 8.22945,18.02863 -1.459,9.90427c-5.2456,-4.39875 1.32053,-8.38568 1.84152,-10.90059c2.4592,-11.87089 -2.45347,-24.6359 1.2192,-36.66396" fill="#ffaf36" stroke="#000000" stroke-width="2" stroke-linecap="round"/><path d="M293.58018,209.80049c3.55979,-2.81055 7.96835,-2.25787 12.17989,-2.89552c13.58364,-2.05665 28.73187,-1.06195 42.24854,1.21901" fill="none" stroke="#000000" stroke-width="2" stroke-linecap="round"/><path d="M349.95515,238.99533c-0.04815,-8.8992 -1.6184,-17.92811 -0.07576,-26.8313" fill="none" stroke="#000000" stroke-width="2" stroke-linecap="round"/><path d="M294.05343,214.05838c-0.05464,8.51553 0.34455,16.97028 0.08838,25.46641" fill="none" stroke="#000000" stroke-width="2" stroke-linecap="round"/><path d="M302.1015,137.20078c-2.6152,-0.93491 -4.37773,-3.52015 -6.7721,-4.97773" fill="none" stroke="#fcec41" stroke-width="2" stroke-linecap="round"/><path d="M344.93519,135.14307c1.63645,-1.07414 3.16551,-1.92234 4.99052,-2.63882" fill="none" stroke="#fcec41" stroke-width="2" stroke-linecap="round"/><path d="M316.62159,147.40198l-0.0615,9.58422" fill="none" stroke="#fcec41" stroke-width="2" stroke-linecap="round"/><path d="M320.10701,150.69715l-0.0315,4.909" fill="none" stroke="#fcec41" stroke-width="2" stroke-linecap="round"/><path d="M324.29222,154.23056l-0.67728,-3.74468" fill="none" stroke="#fcec41" stroke-width="2" stroke-linecap="round"/><path d="M275.9796,228.55815l13.25362,-37.20758l-7.49406,36.74397z" fill="#fce541" stroke="#fcec41" stroke-width="2" stroke-linecap="round"/><path d="M275.9796,228.55815l13.25362,-37.20758l-7.49406,36.74397z" fill="#fce541" stroke="#fcec41" stroke-width="2" stroke-linecap="round"/><path d="M359.10015,224.57431l-7.06537,-30.06764l12.85295,25.23622z" fill="#fce541" stroke="#fcec41" stroke-width="2" stroke-linecap="round"/><path d="M319.85055,334.03862l1.19016,-76.74413" fill="none" stroke="#000000" stroke-width="2" stroke-linecap="round"/><path d="M322.20856,342.42665c-0.05563,8.67009 -8.9254,15.64196 -19.81116,15.57212c-10.88578,-0.06985 -19.66533,-7.15496 -19.6097,-15.82506c0.05563,-8.67009 8.9254,-15.64196 19.81116,-15.57212c10.88578,0.06985 19.66533,7.15496 19.6097,15.82506z" fill="#000000" stroke="#000000" stroke-width="2" stroke-linecap="butt"/><path d="M360.55156,337.40479c-0.05563,8.6701 -8.9254,15.64196 -19.81117,15.57212c-10.88577,-0.06985 -19.66533,-7.15496 -19.6097,-15.82506c0.05563,-8.6701 8.9254,-15.64196 19.81116,-15.57212c10.88578,0.06985 19.66534,7.15496 19.60971,15.82506z" fill="#000000" stroke="#000000" stroke-width="2" stroke-linecap="butt"/><path d="M307.01608,121.84199l0.09884,-8.31724l30.15194,0.10447l-0.09884,8.31724z" fill="none" stroke="#000000" stroke-width="2" stroke-linecap="butt"/><path d="M203.72467,143.24826c-2.7404,-0.22957 -2.51083,-2.96997 -2.51083,-2.96997l0.28132,-3.32934c-0.00428,-9.60909 -0.4039,-19.32972 0.00314,-28.92946c0.19303,-4.55235 1.1711,-9.21737 1.7477,-13.73407c0,0 0.34824,-2.72786 3.0761,-2.37962c2.72786,0.34824 2.37962,3.0761 2.37962,3.0761c-0.56114,4.39563 -1.53505,8.95669 -1.7145,13.38653c-0.38741,9.56296 0.00723,19.23862 0.00314,28.81029l-0.29572,3.55871c0,0 -0.22957,2.7404 -2.96997,2.51083z" fill="#ffa600" stroke="#000000" stroke-width="1" stroke-linecap="butt"/></g></g></svg>