<svg version="1.1" xmlns="http://www.w3.org/2000/svg" xmlns:xlink="http://www.w3.org/1999/xlink" width="180.1919" height="291.3755" viewBox="0,0,180.1919,291.3755"><defs><linearGradient x1="317.64691" y1="179.35644" x2="320.97361" y2="358.17006" gradientUnits="userSpaceOnUse" id="color-1"><stop offset="0" stop-color="#eca526"/><stop offset="1" stop-color="#a56d11"/></linearGradient><linearGradient x1="316.80152" y1="183.39583" x2="319.79999" y2="344.56649" gradientUnits="userSpaceOnUse" id="color-2"><stop offset="0" stop-color="#ffea00" stop-opacity="0.77647"/><stop offset="1" stop-color="#ffde00" stop-opacity="0.25098"/></linearGradient><linearGradient x1="316.90993" y1="181.16842" x2="320.23664" y2="359.98204" gradientUnits="userSpaceOnUse" id="color-3"><stop offset="0" stop-color="#705200"/><stop offset="1" stop-color="#8e5d0e"/></linearGradient><linearGradient x1="316.19316" y1="180.57681" x2="319.51986" y2="359.39043" gradientUnits="userSpaceOnUse" id="color-4"><stop offset="0" stop-color="#191919"/><stop offset="1" stop-color="#0d0d0d"/></linearGradient><linearGradient x1="272.07878" y1="80.25076" x2="272.64917" y2="110.91003" gradientUnits="userSpaceOnUse" id="color-5"><stop offset="0" stop-color="#ffea00" stop-opacity="0.77647"/><stop offset="1" stop-color="#ffde00" stop-opacity="0.25098"/></linearGradient><linearGradient x1="317.37278" y1="181.48602" x2="318.27491" y2="229.97625" gradientUnits="userSpaceOnUse" id="color-6"><stop offset="0" stop-color="#e19c23"/><stop offset="1" stop-color="#f0910c"/></linearGradient><linearGradient x1="356.01053" y1="78.17548" x2="356.58092" y2="108.83475" gradientUnits="userSpaceOnUse" id="color-7"><stop offset="0" stop-color="#ffea00" stop-opacity="0.77647"/><stop offset="1" stop-color="#ffde00" stop-opacity="0.25098"/></linearGradient><linearGradient x1="314.51447" y1="91.32184" x2="316.25181" y2="184.70568" gradientUnits="userSpaceOnUse" id="color-8"><stop offset="0" stop-color="#ffea00" stop-opacity="0.77647"/><stop offset="1" stop-color="#ffde00" stop-opacity="0.25098"/></linearGradient><linearGradient x1="314.13509" y1="109.31467" x2="314.44006" y2="125.70723" gradientUnits="userSpaceOnUse" id="color-9"><stop offset="0" stop-color="#f5a40a"/><stop offset="1" stop-color="#f5c60a"/></linearGradient><linearGradient x1="317.74195" y1="240.08466" x2="317.92541" y2="249.9457" gradientUnits="userSpaceOnUse" id="color-10"><stop offset="0" stop-color="#c6c6c6"/><stop offset="1" stop-color="#a1a1a1"/></linearGradient><linearGradient x1="318.62875" y1="261.53147" x2="318.84648" y2="273.23467" gradientUnits="userSpaceOnUse" id="color-11"><stop offset="0" stop-color="#c6c6c6"/><stop offset="1" stop-color="#a1a1a1"/></linearGradient><linearGradient x1="319.4224" y1="280.88427" x2="319.68448" y2="294.97147" gradientUnits="userSpaceOnUse" id="color-12"><stop offset="0" stop-color="#c6c6c6"/><stop offset="1" stop-color="#a1a1a1"/></linearGradient><linearGradient x1="395.81613" y1="189.58636" x2="397.05175" y2="256.00204" gradientUnits="userSpaceOnUse" id="color-13"><stop offset="0" stop-color="#f1c012"/><stop offset="1" stop-color="#f29811"/></linearGradient><linearGradient x1="322.66646" y1="204.8696" x2="335.62049" y2="270.02143" gradientUnits="userSpaceOnUse" id="color-14"><stop offset="0" stop-color="#f1c012"/><stop offset="1" stop-color="#f29811"/></linearGradient></defs><g transform="translate(-245.47918,-68.87775)"><g stroke-miterlimit="10"><path d="M272.16959,355.43876l-4.93312,-147.2095c0,0 6.3471,-25.82074 16.44444,-26.41389c10.02748,-0.58904 33.80285,-1.58809 54.56357,-2.80766c22.51745,-1.32276 30.63556,15.69576 30.63556,15.69576l2.48978,162.529z" fill="url(#color-1)" stroke="#000000" stroke-width="2.5" stroke-linecap="butt"/><path d="M279.36635,328.33993l-4.06075,-121.17713c0,0 1.45362,-5.91346 4.04715,-11.57374c2.32343,-5.07081 5.5617,-9.93841 9.48928,-10.16914c8.25423,-0.48487 27.82519,-1.30726 44.9146,-2.31116c18.53548,-1.08885 25.21799,12.92014 25.21799,12.92014l2.04949,133.78753c0,0 -2.47275,7.53944 -12.75628,11.67905c-7.55379,3.04075 -22.26267,3.0534 -28.40623,2.94231c-6.58442,-0.11905 -24.43839,-2.5124 -33.33299,-6.7457c-7.81529,-3.71961 -7.16225,-9.35216 -7.16225,-9.35216z" fill="url(#color-2)" stroke-opacity="0.47451" stroke="#000000" stroke-width="2.5" stroke-linecap="butt"/><path d="M268.23792,357.31018l-5.07692,-147.20682c0,0 6.7945,-25.82906 17.55421,-26.43454c10.68527,-0.60128 36.01981,-1.62934 58.14244,-2.87424c23.99458,-1.35024 32.6239,15.65877 32.6239,15.65877l2.45479,162.52965z" fill="url(#color-3)" stroke="#000000" stroke-width="2.5" stroke-linecap="butt"/><path d="M269.44115,358.0982l6.80751,-149.04491c0,0 8.78825,-25.66451 15.92844,-26.20264c7.0908,-0.53441 23.90539,-1.40396 38.58605,-2.51041c15.9229,-1.20007 28.36677,24.20722 28.36677,24.20722l14.51363,150.70478z" fill="url(#color-4)" stroke="#000000" stroke-width="2.5" stroke-linecap="butt"/><g stroke-width="2.5" stroke-linecap="butt"><path d="M246.80028,93.95215c-0.94432,-10.87305 7.6288,-20.49844 19.14858,-21.49892c11.51978,-1.00049 21.62394,7.0028 22.56825,17.87585c0.94431,10.87305 -7.62799,21.65038 -19.14777,22.65087c-11.51978,1.00048 -21.62474,-8.15475 -22.56905,-19.02778z" fill="#e39e23" stroke="#000000"/><path d="M256.63358,96.51409c-0.7118,-8.19575 5.75034,-15.45105 14.43357,-16.20517c8.68323,-0.75414 16.29942,5.27848 17.01121,13.47422c0.7118,8.19575 -5.74974,16.31935 -14.43297,17.07348c-8.68323,0.75413 -16.30001,-6.14679 -17.0118,-14.34253z" fill="url(#color-5)" stroke-opacity="0.45098" stroke="#000000"/></g><g stroke-width="2.5" stroke-linecap="round"><path d="M289.57891,188.43283c1.37028,0.57396 -1.59389,-0.86679 -0.42064,-2.84655c1.09595,-1.84933 2.96962,-2.77883 5.39374,-3.18199c7.44089,-1.23751 30.8176,-0.71587 38.84835,0.00774c3.14208,0.28312 9.24896,-1.16387 11.95741,0.22762c0.27899,0.14334 0.57399,0.35453 0.62667,0.61629c0.21853,1.08588 -2.09645,6.14765 -1.28402,9.34034c0.92861,3.64927 -1.29451,7.31912 -3.00696,10.66593c-3.87728,7.57772 -7.69555,14.55881 -15.209,20.28831c-3.45053,2.63126 -5.34062,7.34732 -11.51116,6.3071c-2.26696,-0.38216 -6.91101,-8.02297 -8.13508,-9.82163c-1.01765,-1.49537 -0.99134,-2.99923 -1.6297,-4.55384c-3.96508,-9.65631 -6.11883,-19.61779 -15.57748,-26.86639z" fill="url(#color-6)" stroke="#000000"/><path d="M299.33104,202.20629l10.86194,7.83505" fill="none" stroke-opacity="0.38039" stroke="#000000"/><path d="M331.20292,210.07347l9.58157,-7.93338" fill="none" stroke-opacity="0.38039" stroke="#000000"/><path d="M320.32984,194.0605l-0.62937,-3.51335" fill="none" stroke-opacity="0.38039" stroke="#000000"/></g><g stroke-width="2.5" stroke-linecap="butt"><path d="M381.78117,90.92713c-0.53923,10.90065 -10.29666,20.4254 -21.84568,19.8541c-11.54903,-0.5713 -20.51628,-11.02233 -19.97704,-21.92298c0.53923,-10.90065 10.33871,-19.27424 21.88773,-18.70292c11.54903,0.5713 20.47424,9.87115 19.935,20.7718z" fill="#e39e23" stroke="#000000"/><path d="M372.04995,93.85306c-0.40646,8.21655 -7.76127,15.396 -16.46655,14.96537c-8.70528,-0.43063 -15.46451,-8.30827 -15.05804,-16.52482c0.40646,-8.21655 7.79298,-14.52828 16.49825,-14.09764c8.70528,0.43063 15.43281,7.44055 15.02635,15.65709z" fill="url(#color-7)" stroke-opacity="0.45098" stroke="#000000"/></g><path d="M370.33052,135.93005c-1.41079,28.51934 -26.93912,53.43894 -57.15481,51.94423c-21.18761,-1.04811 -39.05396,-14.80579 -47.35252,-32.76651c-3.53603,-7.6531 -5.33491,-16.06931 -4.91338,-24.59053c1.41079,-28.51933 27.04914,-50.42713 57.26483,-48.9324c30.21569,1.4947 53.56669,25.82589 52.15589,54.34522z" fill="#e39e23" stroke="#000000" stroke-width="2.5" stroke-linecap="butt"/><path d="M357.55,132.16003c0.02062,1.10816 4.51433,3.93395 5.14393,7.82414c0.87049,5.37856 0.19547,12.04047 0.08938,12.67342c-2.51787,15.02429 -24.02711,31.62942 -46.23202,32.04253c-4.0138,0.07467 -23.24223,-3.41649 -32.93468,-10.88228c-12.32073,-9.49028 -15.05207,-23.55442 -15.07227,-24.69788c-0.03315,-1.87766 -0.13481,-6.28654 0.59412,-10.05694c0.683,-3.53284 4.73983,-6.32727 4.69987,-8.47502c-0.17348,-9.32455 3.39417,-22.35231 10.72262,-28.58234c7.26882,-6.17933 20.15776,-10.50156 31.38617,-10.71046c11.68976,-0.21748 25.88931,2.93393 33.49137,11.35019c7.06192,7.81827 7.9451,20.57011 8.11151,29.51464z" fill="url(#color-8)" stroke-opacity="0.45098" stroke="#000000" stroke-width="2.5" stroke-linecap="butt"/><path d="M262.05903,125.22518c0,0 -5.00874,-6.97872 -5.05018,-9.20647c-0.03125,-1.67989 5.53438,-5.7442 5.53438,-5.7442c0,0 1.24787,2.72117 4.62344,2.65837c9.53137,-0.17732 28.59438,-7.26861 48.50883,-7.63911c5.0374,-0.09372 10.12489,0.22591 15.01112,0.75807c14.81782,1.61383 27.78473,5.18238 31.89074,5.10599c2.96579,-0.05518 4.82619,-2.83417 4.82619,-2.83417c0,0 4.05342,4.80015 4.08467,6.48004c0.04145,2.22775 -3.19714,8.44511 -3.19714,8.44511c0,0 -34.29802,-5.24136 -52.19077,-4.90847c-17.50962,0.32575 -54.04124,6.88485 -54.04124,6.88485z" fill="url(#color-9)" stroke="#000000" stroke-width="2.5" stroke-linecap="butt"/><path d="M263.55679,115.73246c0,0 35.75933,-7.50087 52.65286,-7.71562c17.57916,-0.22346 50.84706,6.39994 50.84706,6.39994" fill="none" stroke-opacity="0.32157" stroke="#000000" stroke-width="2.5" stroke-linecap="round"/><path d="M309.03821,85.21304c0.67403,-4.0554 7.6726,-11.17415 12.08665,-9.9807c2.19392,0.59318 4.19925,2.84266 4.57108,4.95767c0.17226,0.97988 -0.34017,2.64416 -0.8926,3.84787c-0.15628,0.34054 -0.92515,0.94863 -0.64704,1.02624c0.27811,0.07761 0.61984,-0.63013 0.92168,-0.9496c1.34647,-1.42516 2.26917,-2.39773 4.06433,-3.28661c3.18224,-1.5757 7.34797,-2.97893 9.76454,-2.32792c4.33674,1.16827 2.15384,7.59564 -2.89321,11.5814" fill="#e39e23" stroke="#000000" stroke-width="2.5" stroke-linecap="round"/><path d="M366.45388,138.80791c3.98071,1.0269 10.45863,8.6225 8.88287,12.91496c-0.7832,2.13349 -3.1998,3.93393 -5.33927,4.11893c-0.9912,0.08571 -2.60417,-0.57064 -3.75482,-1.22644c-0.32553,-0.18553 -0.86389,-1.00474 -0.96558,-0.73451c-0.10169,0.27024 0.57337,0.67268 0.86516,1.00136c1.30166,1.46621 2.1896,2.4706 2.91771,4.33676c1.29071,3.3081 2.32339,7.5808 1.46308,9.93101c-1.54391,4.21766 -7.7552,1.47977 -11.28322,-3.8972" fill="#e39e23" stroke="#000000" stroke-width="2.5" stroke-linecap="round"/><path d="M271.83802,166.87882c-3.32559,5.50449 -9.43074,8.47151 -11.13046,4.3142c-0.94713,-2.31658 -0.07409,-6.62474 1.09268,-9.97856c0.65819,-1.89196 1.50817,-2.92867 2.75439,-4.44228c0.27936,-0.33931 0.93898,-0.76658 0.82731,-1.03285c-0.11167,-0.26627 -0.61919,0.5724 -0.93759,0.76991c-1.12547,0.69815 -2.7129,1.41404 -3.70661,1.36525c-2.14487,-0.10529 -4.62675,-1.81461 -5.48877,-3.91748c-1.73433,-4.23088 4.45657,-12.06216 8.39633,-13.23643" fill="#e39e23" stroke="#000000" stroke-width="2.5" stroke-linecap="round"/><path d="M322.03878,142.7307c0.02718,1.46094 -1.9921,4.409 -4.69166,4.45922c-2.69955,0.05022 -5.05711,-2.81642 -5.08429,-4.27735c-0.00389,-0.20913 -2.55415,-1.34578 -2.47302,-1.5425c0.48567,-1.17745 4.99866,-1.15066 7.31177,-1.19369c1.76554,-0.03285 6.99089,0.00897 7.86409,0.75221c0.46194,0.39319 -2.93631,1.29663 -2.92691,1.80211z" fill="#000000" stroke="#000000" stroke-width="2.5" stroke-linecap="butt"/><path d="M323.08928,244.91741c0.05066,2.72305 -2.26128,4.97429 -5.16388,5.02829c-2.90259,0.054 -5.29668,-2.10969 -5.34734,-4.83274c-0.05066,-2.72305 2.26128,-4.97429 5.16388,-5.02829c2.90259,-0.054 5.29668,2.10969 5.34734,4.83274z" fill="url(#color-10)" stroke="#000000" stroke-width="2.5" stroke-linecap="butt"/><path d="M324.15577,267.28228c0.06012,3.23175 -2.31693,5.89674 -5.30929,5.95241c-2.99236,0.05567 -5.46689,-2.51906 -5.52702,-5.75081c-0.06012,-3.23175 2.31693,-5.89674 5.30929,-5.95241c2.99236,-0.05567 5.46689,2.51906 5.52702,5.75081z" fill="url(#color-11)" stroke="#000000" stroke-width="2.5" stroke-linecap="butt"/><path d="M325.40505,287.81899c0.07237,3.89007 -2.48882,7.09234 -5.72057,7.15247c-3.23175,0.06012 -5.91028,-3.04466 -5.98265,-6.93474c-0.07237,-3.89007 2.48882,-7.09234 5.72057,-7.15247c3.23175,-0.06012 5.91028,3.04466 5.98265,6.93474z" fill="url(#color-12)" stroke="#000000" stroke-width="2.5" stroke-linecap="butt"/><g fill="#000000" stroke="#000000" stroke-width="2.5"><path d="M319.37742,193.59045l18.27424,-6.42636l1.49426,20.30211l-20.09046,-8.62876l-19.23655,9.70099l-0.56122,-19.16308z" stroke-linecap="round"/><path d="M326.08281,196.65388c0.1423,3.10119 -2.80595,5.64867 -6.58511,5.68997c-3.77916,0.0413 -6.95812,-2.43921 -7.10042,-5.54039c-0.1423,-3.10119 2.80595,-5.64866 6.58511,-5.68997c3.77916,-0.0413 6.95812,2.4392 7.10042,5.54038z" stroke-linecap="butt"/></g><g fill="#ffb701" stroke="#000000" stroke-width="2.5" stroke-linecap="butt"><path d="M390.80088,175.27911l23.17991,-16.61638l-7.46441,27.23431z"/><path d="M411.39065,182.99505c0,0 -4.36188,7.61666 -6.58352,11.49607c-2.27728,3.97655 -6.91738,12.07904 -6.91738,12.07904l-23.74786,-16.04486l17.25056,-21.0417z"/><path d="M340.08118,240.56183l36.15275,-59.15576l29.85945,20.17407c0,0 -14.04563,19.23636 -20.93899,28.67722c-6.72495,9.21024 -19.92842,27.29318 -19.92842,27.29318z"/></g><path d="M420.22105,206.58959c0.08124,0.05315 0.1611,0.09833 0.23873,0.13555c1.07001,1.93366 2.99463,3.3797 3.7113,5.91103c1.68924,5.96644 0.67912,9.78892 -0.35175,15.61686c-1.68312,5.25384 -2.73154,10.88628 -4.1491,16.2717c-0.89688,3.40729 -1.61482,7.22453 -4.75102,9.33357c-3.06851,2.06351 -7.41726,1.85488 -10.9165,2.01441c-2.01223,-1.06077 -3.84535,-1.09109 -6.00184,-1.57577c-3.76748,-0.84677 -7.33334,-2.34941 -11.03757,-3.33186c-3.36755,-0.89316 -6.79497,-1.36745 -9.30615,-4.04235c-2.35621,-2.50983 -1.5981,-6.78038 -3.4437,-9.62997c-1.79492,-4.2574 -4.93461,-7.41481 -5.86928,-11.85351c-0.18336,-0.87072 -1.0127,-3.48648 -0.45055,-4.44326c0.36446,-0.62031 1.35776,-0.52738 2.07321,-0.60307c1.84413,-0.19512 6.08,-0.12243 7.40445,-1.59726c1.4025,-1.56175 -0.39638,-4.82175 -0.48131,-6.49492c-0.01375,-0.27096 0.63173,-2.84035 0.64496,-2.89523c2.01892,-2.47802 6.39963,-0.53363 7.81768,-3.63877c0.70598,-1.5459 -2.24924,-5.24065 0.25287,-5.98028c1.95982,-0.57933 5.11182,-1.32386 7.09077,-0.27805c0.53359,0.28197 0.6554,1.16124 1.23642,1.32448c1.12132,0.31505 2.64162,0.78658 3.50323,0.00284c1.07202,-0.97512 -0.23711,-3.49371 -0.31737,-4.7189c-0.12736,-1.94404 2.27391,-3.43714 3.3001,-4.82746c2.75273,-0.43662 6.05522,-2.31983 8.9113,-1.86603c5.95042,0.94545 9.50757,5.30965 10.71069,11.04615c0.02824,0.1347 0.05713,0.26269 0.08519,0.38399c-0.83538,0.53228 -0.60891,1.61153 -0.60891,1.61153l0.2432,0.61562c-0.06322,0.50505 -0.06646,0.9708 -0.02353,1.40285c-0.14111,0.25118 -0.66365,1.35515 0.48449,2.10609z" fill="url(#color-13)" stroke="#000000" stroke-width="3" stroke-linecap="butt"/><path d="M348.19209,168.17826c0,0 -1.88222,1.66923 -10.11609,1.91668c-6.29178,0.18908 -18.53303,-1.05572 -23.14234,-0.9172c-4.65285,0.13982 -16.01079,2.40075 -21.67077,2.57084c-6.28619,0.18891 -6.65438,-1.71961 -6.65438,-1.71961" fill="none" stroke="#000000" stroke-width="2.5" stroke-linecap="round"/><path d="M284.38671,125.69364c0.05942,2.23408 -1.88022,4.098 -4.33224,4.1632c-2.45204,0.0652 -4.48796,-1.69302 -4.54737,-3.92709c-0.05942,-2.23408 1.88022,-4.098 4.33224,-4.1632c2.45204,-0.0652 4.48795,1.69302 4.54736,3.9271z" fill="#ffffff" stroke="#000000" stroke-width="2.5" stroke-linecap="butt"/><path d="M334.03213,124.18815c0.05942,2.23408 -1.88021,4.098 -4.33224,4.1632c-2.45204,0.0652 -4.48795,-1.69302 -4.54735,-3.92709c-0.05942,-2.23408 1.88021,-4.09799 4.33224,-4.16319c2.45204,-0.0652 4.48796,1.69301 4.54736,3.92708z" fill="#ffffff" stroke="#000000" stroke-width="2.5" stroke-linecap="butt"/><path d="M302.44817,226.68548c0.96162,-0.97849 0.21571,-1.94565 0.02428,-2.16097c-0.05017,-0.43126 -0.15266,-0.88561 -0.32211,-1.36557l0.10635,-0.65332c0,0 -0.00885,-1.10272 -0.93852,-1.44463c0.00155,-0.12449 0.00248,-0.25571 0.00135,-0.39332c-0.04769,-5.86112 2.49713,-10.88342 8.10912,-13.07588c2.69364,-1.05235 6.32173,0.0834 9.10425,-0.07696c1.29904,1.13954 3.96346,2.08631 4.25353,4.01279c0.18282,1.21413 -0.55919,3.95395 0.6961,4.67806c1.00891,0.582 2.3937,-0.20284 3.42207,-0.74973c0.53285,-0.28337 0.46439,-1.16839 0.92559,-1.55766c1.71045,-1.44372 4.94872,-1.38837 6.987,-1.24025c2.60229,0.18912 0.50282,4.42901 1.52218,5.78884c2.04752,2.73138 5.91291,-0.10237 8.41377,1.88819c0.02463,0.05079 1.20311,2.42347 1.24745,2.69113c0.27378,1.6528 -0.78863,5.22139 0.91461,6.44819c1.60846,1.15852 5.73142,0.18432 7.57475,-0.01826c0.71514,-0.0786 1.66578,-0.38118 2.15412,0.14715c0.75323,0.81492 0.5007,3.54735 0.50721,4.43714c0.03325,4.53592 -2.36101,8.29017 -3.20689,12.83238c-1.19557,3.17759 0.45569,7.18829 -1.3112,10.14279c-1.88309,3.14882 -5.13056,4.34301 -8.23023,5.93366c-3.40956,1.74967 -6.57302,3.97808 -10.07332,5.60868c-2.00356,0.93335 -3.78806,1.35383 -5.52784,2.81926c-3.45279,0.59026 -7.65705,1.72134 -11.09497,0.35954c-3.51378,-1.39183 -5.02912,-4.96821 -6.63188,-8.10591c-2.53325,-4.95933 -4.7585,-10.2387 -7.52316,-15.01284c-2.2498,-5.47412 -4.05174,-8.99332 -3.67351,-15.18274c0.16045,-2.62593 1.73249,-4.44909 2.3656,-6.56643c0.06792,-0.05292 0.1363,-0.11409 0.20433,-0.18334z" fill="url(#color-14)" stroke="#000000" stroke-width="3" stroke-linecap="butt"/></g></g></svg>