<svg version="1.1" xmlns="http://www.w3.org/2000/svg" xmlns:xlink="http://www.w3.org/1999/xlink" width="163.22703" height="310.26522" viewBox="0,0,163.22703,310.26522"><g transform="translate(-224.18912,-46.35558)"><g data-paper-data="{&quot;isPaintingLayer&quot;:true}" fill-rule="nonzero" stroke-width="2" stroke-linejoin="miter" stroke-miterlimit="10" stroke-dasharray="" stroke-dashoffset="0" style="mix-blend-mode: normal"><g><path d="M351.37603,224.30526c2.69335,-3.26198 6.02317,-9.37942 9.5593,-10.25004c6.70389,-1.65057 18.85425,9.71774 17.5191,22.59182c-0.2187,2.10881 -1.00325,6.72428 -2.89811,5.91926c-0.41385,-0.17583 -1.84765,-2.45142 -2.21652,-1.9505c-0.12114,0.16451 0.3265,4.39756 0.26409,5.04714c-0.33284,3.46422 -1.50841,7.12799 -3.68913,8.18318c-2.13863,1.03482 -3.75998,-5.32905 -4.69495,-5.02485c-1.40406,0.45683 -2.75441,8.63931 -7.65168,4.42462c-2.64986,-2.28053 -4.13019,-12.51414 -4.37554,-12.71526c-1.27406,-1.04442 -5.12788,3.15509 -8.13874,-3.50075c-2.76913,-6.12156 2.93698,-13.37682 6.13693,-13.00455z" fill="#feed00" stroke="#000000" stroke-linecap="round"/><path d="M369.75929,231.52793c-0.44233,1.86909 -1.39507,3.11283 -2.57098,3.65686c-1.30158,0.60218 -2.47434,-2.31764 -3.93328,-3.53066c-1.52259,-1.26594 -3.0049,-0.64769 -3.51637,-2.88731c-0.42137,-1.84514 -0.45682,-3.82137 -0.03584,-5.6002c0.93195,-3.93794 3.93866,-5.25855 6.71569,-2.94962c2.77702,2.30892 4.27274,7.37299 3.34079,11.31093z" fill="#ffa600" stroke="none" stroke-linecap="butt"/><path d="M351.43816,235.6566c-0.31848,2.2471 -1.87369,3.25945 -3.47369,2.26119c-1.59998,-0.99828 -2.63885,-3.62918 -2.32037,-5.87627c0.31848,-2.2471 1.87369,-3.25945 3.47368,-2.26119c1.59998,0.99828 2.63886,3.62918 2.32038,5.87627z" fill="#ffa600" stroke="none" stroke-linecap="butt"/><path d="M362.4581,249.6769c-0.31423,2.21713 -1.84981,3.21532 -3.42979,2.22951c-1.57999,-0.98579 -2.60609,-3.5823 -2.29186,-5.79942c0.31423,-2.21713 1.84981,-3.21532 3.42979,-2.22952c1.57999,0.98579 2.60609,3.5823 2.29186,5.79942z" fill="#ffa600" stroke="none" stroke-linecap="butt"/><path d="M371.64498,248.2642c-0.30999,2.18718 -1.61513,3.3027 -2.91512,2.49159c-1.29999,-0.8111 -2.10254,-3.24169 -1.79255,-5.42885c0.30999,-2.18718 1.61513,-3.3027 2.91512,-2.49159c1.29999,0.8111 2.10254,3.24166 1.79255,5.42885z" fill="#ffa600" stroke="none" stroke-linecap="butt"/><path d="M377.55506,236.59948c-0.29299,2.06732 -1.2439,3.29812 -2.12389,2.74907c-0.87999,-0.54907 -1.35584,-2.67003 -1.06284,-4.73737c0.29299,-2.06732 1.2439,-3.29812 2.12389,-2.74907c0.87999,0.54907 1.35584,2.67003 1.06284,4.73737z" fill="#ffa600" stroke="none" stroke-linecap="butt"/></g><path d="M302.83066,252.88402c-7.31475,3.37271 -18.52021,0.80561 -25.99814,-1.54629c-22.61919,-7.11397 -49.62244,-25.79037 -51.6434,-52.76864c-1.36688,-18.24666 12.25446,-30.85108 25.9587,-39.52863c5.19915,-3.29212 16.23715,-8.90102 19.86673,-0.97957c0.96589,2.10803 1.14236,4.41077 0.15286,6.57767c-2.13769,4.68127 -9.1486,5.96586 -12.94019,9.03286c-11.4568,9.26732 -16.54892,23.25511 -9.0839,36.83041c7.90398,14.37359 25.49513,19.26829 40.47164,17.17591c7.74184,-1.08162 15.38762,-4.89859 23.41633,-2.76424c23.80351,6.32792 5.25612,25.52697 -9.05342,28.25412z" fill="#feed00" stroke="#000000" stroke-linecap="round"/><path d="M295.95189,248.41648c5.38222,-0.1047 12.66224,-1.21992 18.07125,-2.05792c5.89768,-0.91372 13.88721,0 19.93069,0c3.55004,0 11.60851,-0.83732 14.41627,0.64531c1.81748,0.95973 1.70424,3.45989 2.14496,4.74604c1.6377,4.77928 0.74171,10.01061 2.38216,14.88382c1.93784,5.75664 0.10465,11.64974 0.91749,17.55319c1.5195,11.03576 2.39788,22.24586 -1.85555,33.41443c-1.86,4.88396 5.86835,10.76929 -2.43881,13.75492c-2.94165,1.05723 -10.24015,7.78511 -13.50869,7.78511c-4.74169,0 -10.50507,-4.76731 -16.3125,-5.81895c-7.39451,-1.33901 -17.15017,2.85744 -22.66932,1.37763c-2.76263,-0.74073 -6.39247,-3.86618 -7.82954,-5.72244c-1.80141,-2.32689 1.4095,-12.90515 1.59507,-16.03519c0.91258,-15.39244 0.13134,-23.87837 1.04226,-39.28431c0.29933,-5.0623 -0.19856,-21.69843 2.7833,-25.2408z" fill="#3c2c1f" stroke="#000000" stroke-linecap="round"/><g><path d="M290.79095,228.79434c3.19995,-0.37227 8.90606,6.883 6.13692,13.00454c-3.01084,6.65584 -6.86466,2.45633 -8.13873,3.50075c-0.24535,0.20112 -1.72568,10.43473 -4.37554,12.71526c-4.89726,4.21472 -6.24763,-3.96777 -7.65168,-4.42462c-0.93497,-0.30421 -2.55631,6.05967 -4.69495,5.02484c-2.18072,-1.05519 -3.35629,-4.71897 -3.68913,-8.18318c-0.06241,-0.64958 0.38521,-4.88263 0.26409,-5.04714c-0.36886,-0.50093 -1.80265,1.77465 -2.21652,1.9505c-1.89486,0.80502 -2.67941,-3.81044 -2.89811,-5.91926c-1.33515,-12.87408 10.8152,-24.24238 17.5191,-22.59181c3.53614,0.87064 6.86595,6.98806 9.55931,10.25004z" fill="#feed00" stroke="#000000" stroke-linecap="round"/><path d="M275.56324,224.98597c2.77702,-2.30892 5.78374,-0.98833 6.7157,2.94961c0.42098,1.77883 0.38552,3.75505 -0.03584,5.6002c-0.51146,2.23962 -1.99378,1.62136 -3.51637,2.88731c-1.45896,1.21303 -2.6317,4.13283 -3.93328,3.53066c-1.17591,-0.54403 -2.12865,-1.78776 -2.57098,-3.65686c-0.93195,-3.93795 0.56376,-9.002 3.34079,-11.31093z" fill="#ffa600" stroke="none" stroke-linecap="butt"/><path d="M292.86394,234.54931c1.59998,-0.99828 3.1552,0.0141 3.47368,2.26119c0.31848,2.2471 -0.72039,4.87798 -2.32037,5.87627c-1.59998,0.99828 -3.15522,-0.01406 -3.47369,-2.26116c-0.31848,-2.2471 0.72039,-4.87798 2.32038,-5.87627z" fill="#ffa600" stroke="none" stroke-linecap="butt"/><path d="M281.81549,248.64646c1.57999,-0.98579 3.11557,0.0124 3.42979,2.22952c0.31423,2.21713 -0.71187,4.81362 -2.29186,5.79941c-1.57999,0.98579 -3.11557,-0.0124 -3.42979,-2.22952c-0.31423,-2.21713 0.71187,-4.81362 2.29186,-5.79941z" fill="#ffa600" stroke="none" stroke-linecap="butt"/><path d="M272.12931,247.60434c1.29999,-0.8111 2.60513,0.30443 2.91513,2.49159c0.30999,2.18718 -0.49258,4.61775 -1.79257,5.42885c-1.29999,0.8111 -2.60513,-0.30443 -2.91513,-2.49159c-0.30999,-2.18718 0.49258,-4.61775 1.79257,-5.42885z" fill="#ffa600" stroke="none" stroke-linecap="butt"/><path d="M265.48951,236.63112c0.87999,-0.54907 1.83089,0.68175 2.12389,2.74907c0.29301,2.06732 -0.18284,4.18832 -1.06284,4.73737c-0.87999,0.54907 -1.83089,-0.68175 -2.12389,-2.74907c-0.29301,-2.06732 0.18284,-4.18831 1.06284,-4.73737z" fill="#ffa600" stroke="none" stroke-linecap="butt"/></g><path d="M292.33073,210.52364c-1.55505,6.11028 -1.88642,17.24439 -5.64946,22.23018c-3.00115,3.9763 -20.7978,-2.05101 -23.1977,-5.74525c-0.83475,-1.28495 3.55747,-17.55825 4.20857,-19.90492c4.99515,-18.00326 11.16355,-35.11003 17.40504,-52.75433c1.71351,-4.844 5.78281,-8.14961 7.55659,-12.70156l1.10206,0.043c12.22386,2.51878 23.22749,8.16252 36.21457,6.66112c5.19762,-0.60088 9.0157,-2.47 12.79751,-6.1745c0.86466,-0.84698 3.36681,-2.88225 4.72593,-1.95921c3.05898,2.0775 4.89281,10.04513 6.51261,13.37059c6.68017,13.71441 11.21208,28.75093 14.30173,43.76372c0.90453,4.39512 5.48801,11.14763 4.43014,15.55496c-1.23891,5.16162 -9.66871,11.47819 -13.53559,14.77698c-1.07612,0.91804 -3.88929,4.64712 -5.23241,2.80206c-1.87117,-2.57045 -3.54132,-22.04522 -3.54132,-22.04522c0,0 0.69318,15.41797 1.53734,23.05825c0.41403,3.74725 2.22325,9.91762 0.47549,13.53838c-1.33125,2.75788 -9.74537,3.59628 -12.45256,3.90164c-10.95077,1.23516 -22.24786,-0.9349 -33.18999,0.33663c-3.55655,0.41328 -12.55509,3.13438 -15.72072,1.38139c-1.68719,-0.9343 -0.80711,-6.22154 -0.80711,-7.90309c0,-7.40298 -1.11588,-15.90429 0.29778,-23.1599" fill="#fffe8a" stroke="#000000" stroke-linecap="round"/><path d="M299.40395,133.66249c13.18084,-2.37829 25.98799,-4.82956 39.46652,-3.74265c2.87444,0.2318 12.91021,1.32914 12.14759,5.87508c-1.03648,6.17839 -6.93438,9.38688 -12.39791,10.73371c-9.84944,2.42801 -33.10389,3.21976 -41.96728,-2.07958c-6.30806,-3.77151 -4.66004,-10.99638 2.88625,-10.99638z" fill="#fffe8a" stroke="#000000" stroke-linecap="round"/><g stroke-linecap="round"><path d="M303.99399,64.91729c-11.64001,4.8719 -12.82038,17.42791 -16.08352,28.23882c-0.3586,1.18809 -3.25936,11.65819 -4.46965,11.4924c-0.50249,-0.06882 -0.35715,-0.97527 -0.49683,-1.47551c-1.11191,-3.98173 -2.58458,-7.86873 -3.72454,-11.85707c-2.84497,-9.95338 -4.74009,-20.21968 -6.53816,-30.4378c-0.51635,-2.93426 -2.24191,-9.63229 -1.07764,-12.40806c0.74607,-1.77873 1.2903,-1.01066 2.46879,-0.489c6.05562,2.68054 11.97565,5.63497 17.90266,8.59574c4.35258,2.17429 9.67697,4.18822 12.96654,7.95162z" fill="#feed00" stroke="#000000"/><path d="M298.06301,67.58025c-7.41166,3.91718 -7.47594,12.28243 -9.01552,19.61994c-0.1692,0.80638 -1.48879,7.89695 -2.29774,7.86013c-0.33587,-0.01529 -0.29149,-0.62281 -0.41228,-0.94488c-0.96141,-2.56351 -2.1557,-5.04282 -3.13602,-7.60902c-2.44651,-6.40427 -4.28338,-13.07232 -6.05341,-19.71431c-0.50829,-1.90733 -2.02985,-6.22839 -1.41891,-8.13193c0.39149,-1.21981 0.79477,-0.7451 1.603,-0.47125c4.15302,1.40715 8.23206,3.00337 12.31608,4.60337c2.99915,1.17499 6.63115,2.18567 9.01865,4.47423z" fill="#ffa700" stroke="none"/></g><g stroke-linecap="round"><path d="M336.64196,65.66777c3.07707,-3.94828 8.28203,-6.26794 12.50791,-8.69134c5.75448,-3.29998 11.50234,-6.59321 17.40065,-9.62085c1.14787,-0.58922 1.64894,-1.38764 2.49178,0.34496c1.31528,2.70376 -0.03868,9.49125 -0.39261,12.45077c-1.23251,10.30611 -2.55922,20.66596 -4.85151,30.76852c-0.91854,4.04811 -2.17476,8.01437 -3.06562,12.05424c-0.11192,0.50754 0.08311,1.40409 -0.41479,1.50197c-1.19922,0.23574 -4.67192,-10.04929 -5.09539,-11.21466c-3.85326,-10.60428 -5.72323,-23.07173 -17.61291,-27.26038z" fill="#feed00" stroke="#000000"/><path d="M343.05747,68.03732c2.25765,-2.42343 5.82817,-3.64326 8.75783,-4.9904c3.98938,-1.83443 7.97401,-3.66479 12.04289,-5.31067c0.79186,-0.32033 1.16836,-0.81764 1.62639,0.37749c0.71479,1.86504 -0.56637,6.26749 -0.96882,8.20126c-1.40144,6.73412 -2.86817,13.49806 -4.95807,20.03406c-0.83743,2.619 -1.89328,5.16363 -2.71198,7.77882c-0.10285,0.32855 -0.02511,0.93253 -0.35959,0.9673c-0.80564,0.08373 -2.51359,-6.91897 -2.72692,-7.71422c-1.94119,-7.23643 -2.46604,-15.58455 -10.08157,-19.06541z" fill="#ffa700" stroke="none"/></g><path d="M319.13357,62.72787c9.78735,0 21.50722,-0.96634 28.56127,6.95828c6.10194,6.85501 5.77367,13.01418 7.65205,21.17386c0.57691,2.50606 2.355,4.35912 2.65113,7.1441c1.79537,16.88551 -6.35899,37.66369 -26.30657,39.85279c-16.70698,1.83347 -36.46065,-1.68339 -45.92901,-16.55818c-5.91227,-9.28818 -1.76024,-21.88945 1.18187,-30.98168c1.13998,-3.52298 0.08372,-7.64081 1.41655,-11.34557c5.21779,-14.50335 17.5477,-15.97996 31.10418,-15.97996z" fill="#feed00" stroke="#000000" stroke-linecap="round"/><path d="M354.69751,102.31847c4.02069,0.37521 14.53945,4.62965 10.41642,10.42498c-1.07276,1.50788 -6.76261,2.28586 -7.10813,3.44252c-0.25912,0.86741 1.00413,1.51637 1.30454,2.36964c0.80382,2.28318 1.32467,5.67446 0.9898,8.08948c-0.92125,6.6442 -10.36583,3.21922 -13.16335,0.39431" fill="#feed00" stroke="#000000" stroke-linecap="round"/><path d="M292.38453,129.74625c-2.79751,2.82492 -12.24209,6.24987 -13.16335,-0.39431c-0.33487,-2.41502 0.186,-5.8063 0.98983,-8.08947c0.3004,-0.85328 1.56366,-1.50222 1.30454,-2.36965c-0.34551,-1.15667 -6.03537,-1.93465 -7.10813,-3.44253c-4.12302,-5.79535 6.39573,-10.04979 10.41642,-10.42498" fill="#feed00" stroke="#000000" stroke-linecap="round"/><path d="M249.85326,84.89772c13.42514,0.20674 23.43079,10.36546 34.30509,16.74401" fill="none" stroke="#000000" stroke-linecap="round"/><path d="M254.36658,98.59165c10.09778,-1.25462 20.38939,2.01435 30.12138,4.23434" fill="none" stroke="#000000" stroke-linecap="round"/><path d="M258.62659,106.2069c8.14728,-1.56482 16.73796,-3.04255 25.03731,-3.04255" fill="none" stroke="#000000" stroke-linecap="round"/><path d="M357.4993,100.28831c7.85826,-8.06652 16.67082,-17.91683 28.52293,-17.93277" fill="none" stroke="#000000" stroke-linecap="round"/><path d="M355.02714,101.13421c10.27858,-7.53641 19.91718,-7.16609 31.38901,-3.58086" fill="none" stroke="#000000" stroke-linecap="round"/><path d="M358.32336,102.48763c8.06508,-3.31154 18.22295,0.01337 25.44735,4.17286" fill="none" stroke="#000000" stroke-linecap="round"/><path d="M315.96277,110.7948c3.48799,0.00001 7.16047,-0.23215 10.62323,0.21109c0.43949,0.05627 1.19363,-0.13727 1.29499,0.30531c0.13277,0.57975 -6.11764,4.21257 -6.83709,4.15764c-1.61783,-0.12351 -4.05608,-3.37429 -4.68917,-4.67404z" fill="#000000" stroke="#000000" stroke-linecap="round"/><path d="M316.86673,92.83538c0,6.81255 -5.29857,12.33521 -11.83468,12.33521c-6.53611,0 -11.83467,-5.52267 -11.83467,-12.33521c0,-6.81255 5.29856,-12.33521 11.83467,-12.33521c6.53611,0 11.83468,5.52266 11.83468,12.33521z" fill="#ffffff" stroke="#000000" stroke-linecap="butt"/><path d="M349.7477,92.42875c0,6.81255 -5.29856,12.33521 -11.83467,12.33521c-6.53611,0 -11.83467,-5.52266 -11.83467,-12.33521c0,-6.81255 5.29856,-12.33521 11.83467,-12.33521c6.53611,0 11.83467,5.52266 11.83467,12.33521z" fill="#ffffff" stroke="#000000" stroke-linecap="butt"/><path d="M313.13722,92.83538c0,4.86611 -3.69512,8.81087 -8.25325,8.81087c-4.55815,0 -8.25325,-3.94475 -8.25325,-8.81087c0,-4.86611 3.69512,-8.81087 8.25325,-8.81087c4.55815,0 8.25325,3.94475 8.25325,8.81087z" fill="#ffffff" stroke="#000000" stroke-linecap="butt"/><path d="M346.15027,92.42875c0,4.86611 -3.69512,8.81087 -8.25325,8.81087c-4.55815,0 -8.25325,-3.94475 -8.25325,-8.81087c0,-4.86611 3.69512,-8.81087 8.25325,-8.81087c4.55815,0 8.25325,3.94475 8.25325,8.81087z" fill="#ffffff" stroke="#000000" stroke-linecap="butt"/><path d="M302.50839,68.55703c0.56329,-3.5579 4.04653,-4.67656 7.4495,-5.89628c0.37689,-0.13508 3.56812,-1.23058 3.48913,-1.70841c-0.1437,-0.86923 -5.09252,-0.24146 -4.44535,-2.1405c0.86922,-2.55061 10.77275,-1.95356 12.90116,-1.95377c0.30655,-0.00002 3.93516,0.13603 3.98613,-0.00436c0.21846,-0.60155 -5.86991,-2.59131 -5.45379,-3.38946c0.22743,-0.43625 4.66956,1.0706 5.11308,1.24376c5.8105,2.26844 7.15362,5.9293 10.5537,10.22261" fill="#feed00" stroke="#000000" stroke-linecap="round"/><path d="M289.79805,84.68966c-2.22349,-1.11867 -2.23662,-3.10887 -3.93165,-4.73391c-0.86542,-0.82969 -5.46827,-1.41129 -5.38229,-2.9651c0.11312,-2.04374 5.69402,-2.83345 6.92709,-3.32785c0.86807,-0.34806 -0.42664,-8.29494 7.3386,-3.0726" fill="#feed00" stroke="#000000" stroke-linecap="round"/><path d="M306.49898,182.5892c1.16275,0.49472 4.38591,0.24827 4.83719,1.72844c1.51358,4.96428 -2.24098,9.41641 -6.78628,8.42402c-3.02668,-0.66081 2.31163,-10.83311 2.31163,-10.83311c0,0 0.30215,-22.85577 2.65814,-33.92655" fill="#ffaf36" stroke="#000000" stroke-linecap="round"/><path d="M331.56955,183.171c8.99097,-10.30118 7.82447,17.30099 -1.30839,9.54146c-4.94478,-4.20122 1.18769,-8.07902 1.66104,-10.50274c2.23435,-11.44042 -2.44862,-23.69588 0.92255,-35.29507" fill="#ffaf36" stroke="#000000" stroke-linecap="round"/><path d="M295.23948,213.04057c3.32078,-2.72703 7.45762,-2.22231 11.40257,-2.86203c12.72378,-2.06334 26.9329,-1.19953 39.61998,0.91233" fill="none" stroke="#000000" stroke-linecap="round"/><path d="M348.27287,240.79124c-0.09869,-8.56481 -1.6253,-17.24507 -0.23246,-25.82355" fill="none" stroke="#000000" stroke-linecap="round"/><path d="M295.70884,217.13569c0,8.19619 0.42515,16.33106 0.23608,24.50982" fill="none" stroke="#000000" stroke-linecap="round"/><path d="M302.79239,143.11374c-2.45766,-0.88366 -4.12578,-3.36095 -6.37954,-4.74904" fill="none" stroke="#fcec41" stroke-linecap="round"/><path d="M342.94131,140.86875c1.52788,-1.04392 2.95645,-1.86971 4.66329,-2.57057" fill="none" stroke="#fcec41" stroke-linecap="round"/><path d="M316.46795,162.06707v-9.22478" fill="none" stroke="#fcec41" stroke-linecap="round"/><path d="M319.75574,155.99223v4.72491" fill="none" stroke="#fcec41" stroke-linecap="round"/><path d="M323.04352,155.76725l0.65755,3.59992" fill="none" stroke="#fcec41" stroke-linecap="round"/><path d="M278.84987,231.20273l12.20288,-35.8926l-6.80545,35.41082z" fill="#fce541" stroke="#fcec41" stroke-linecap="round"/><path d="M278.84987,231.20273l12.20288,-35.8926l-6.80545,35.41082z" fill="#fce541" stroke="#fcec41" stroke-linecap="round"/><path d="M356.76055,226.85513l-6.80545,-28.89522l12.20288,24.20944z" fill="#fce541" stroke="#fcec41" stroke-linecap="round"/><path d="M320.6183,332.45238l0.6542,-73.87038" fill="none" stroke="#000000" stroke-linecap="round"/><path d="M322.87966,340.51094c0,8.34494 -8.27444,15.10986 -18.48146,15.10986c-10.20703,0 -18.48146,-6.76491 -18.48146,-15.10986c0,-8.34494 8.27444,-15.10986 18.48146,-15.10986c10.20703,0 18.48146,6.76491 18.48146,15.10986z" fill="#000000" stroke="#000000" stroke-linecap="butt"/><path d="M358.80023,335.44078c0,8.34494 -8.27444,15.10986 -18.48147,15.10986c-10.20703,0 -18.48146,-6.76491 -18.48146,-15.10986c0,-8.34494 8.27444,-15.10986 18.48146,-15.10986c10.20703,0 18.48147,6.76491 18.48147,15.10986z" fill="#000000" stroke="#000000" stroke-linecap="butt"/><path d="M312.07954,130.05605v-4.34085h18.68814v4.34085z" fill="none" stroke="#000000" stroke-linecap="butt"/></g></g></svg>