<svg version="1.1" xmlns="http://www.w3.org/2000/svg" xmlns:xlink="http://www.w3.org/1999/xlink" width="1178.30376" height="471.72666" viewBox="0,0,1178.30376,471.72666"><defs><linearGradient x1="319.99998" y1="-77.80785" x2="319.99998" y2="341.71175" gradientUnits="userSpaceOnUse" id="color-1"><stop offset="0" stop-color="#00eaff"/><stop offset="1" stop-color="#7bb3ff"/></linearGradient><linearGradient x1="319.99999" y1="180.32148" x2="319.99999" y2="393.91881" gradientUnits="userSpaceOnUse" id="color-2"><stop offset="0" stop-color="#70dc35"/><stop offset="1" stop-color="#30781c"/></linearGradient></defs><g transform="translate(269.15188,77.80785)"><g stroke-miterlimit="10"><path d="M848.7027,-77.80785v419.5196h-1057.40541v-419.5196z" fill="url(#color-1)" stroke="none" stroke-width="NaN" stroke-linecap="butt"/><path d="M148.89567,210.37569h4.04103" fill="none" stroke-opacity="0.32941" stroke="#000000" stroke-width="2" stroke-linecap="round"/><path d="M152.93669,180.3566l-44.45133,12.1231" fill="none" stroke-opacity="0.32941" stroke="#000000" stroke-width="2" stroke-linecap="round"/><path d="M96.36228,190.17054l47.33778,-8.65935" fill="none" stroke-opacity="0.32941" stroke="#000000" stroke-width="2" stroke-linecap="round"/><path d="M-50.84669,209.22111l40.4103,-5.19561" fill="none" stroke-opacity="0.32941" stroke="#000000" stroke-width="2" stroke-linecap="round"/><path d="M-33.52799,208.06653l34.06011,-2.30916" fill="none" stroke-opacity="0.32941" stroke="#000000" stroke-width="2" stroke-linecap="round"/><path d="M103.86704,199.40718l45.60592,-2.30916l-33.48283,7.50477" fill="none" stroke-opacity="0.32941" stroke="#000000" stroke-width="2" stroke-linecap="round"/><path d="M212.97487,197.09802l-79.08874,5.19561" fill="none" stroke-opacity="0.32941" stroke="#000000" stroke-width="2" stroke-linecap="round"/><path d="M184.68765,205.75737l35.79199,-8.08206" fill="none" stroke-opacity="0.32941" stroke="#000000" stroke-width="2" stroke-linecap="round"/><path d="M286.868,207.48924l-31.17366,7.50477" fill="none" stroke-opacity="0.32941" stroke="#000000" stroke-width="2" stroke-linecap="round"/><path d="M241.83937,216.72588l86.01622,-4.61832" fill="none" stroke-opacity="0.32941" stroke="#000000" stroke-width="2" stroke-linecap="round"/><path d="M352.67906,213.26214l-21.35973,6.35019" fill="none" stroke-opacity="0.32941" stroke="#000000" stroke-width="2" stroke-linecap="round"/><path d="M507.97009,210.95298l11.5458,3.46374" fill="none" stroke-opacity="0.32941" stroke="#000000" stroke-width="2" stroke-linecap="round"/><path d="M-269.15188,393.91881v-213.59732c0,0 106.32424,-34.06012 212.57629,-34.06012c61.82286,0 199.11288,32.39089 322.25382,36.55352c108.55271,3.6695 244.16495,-3.77731 347.07273,-4.44157c177.07891,-1.14302 296.40092,1.94817 296.40092,1.94817v213.59733z" fill="url(#color-2)" stroke="none" stroke-width="0" stroke-linecap="butt"/></g></g></svg>