<svg version="1.1" xmlns="http://www.w3.org/2000/svg" xmlns:xlink="http://www.w3.org/1999/xlink" width="218.42944" height="333.60296" viewBox="0,0,218.42944,333.60296"><defs><linearGradient x1="318.78222" y1="251.91492" x2="320.0137" y2="321.70587" gradientUnits="userSpaceOnUse" id="color-1"><stop offset="0" stop-color="#545454"/><stop offset="1" stop-color="#2f2f2f"/></linearGradient><linearGradient x1="323.63069" y1="220.16004" x2="324.86217" y2="289.95102" gradientUnits="userSpaceOnUse" id="color-2"><stop offset="0" stop-color="#545454"/><stop offset="1" stop-color="#2f2f2f"/></linearGradient><linearGradient x1="319.12353" y1="190.72827" x2="320.35501" y2="260.51923" gradientUnits="userSpaceOnUse" id="color-3"><stop offset="0" stop-color="#545454"/><stop offset="1" stop-color="#2f2f2f"/></linearGradient><linearGradient x1="319.17287" y1="193.88807" x2="322.19637" y2="365.23928" gradientUnits="userSpaceOnUse" id="color-4"><stop offset="0" stop-color="#4e2710"/><stop offset="1" stop-color="#3a1a09"/></linearGradient><linearGradient x1="320.64138" y1="193.90236" x2="321.07782" y2="218.63653" gradientUnits="userSpaceOnUse" id="color-5"><stop offset="0" stop-color="#e07130"/><stop offset="1" stop-color="#c2551f"/></linearGradient><linearGradient x1="291.65596" y1="222.37038" x2="292.11602" y2="248.44351" gradientUnits="userSpaceOnUse" id="color-6"><stop offset="0" stop-color="#4e2710"/><stop offset="1" stop-color="#3a1a09"/></linearGradient><linearGradient x1="376.74832" y1="172.22459" x2="365.43005" y2="220.53738" gradientUnits="userSpaceOnUse" id="color-7"><stop offset="0" stop-color="#e07130"/><stop offset="1" stop-color="#c2551f"/></linearGradient><linearGradient x1="375.59932" y1="154.74176" x2="376.47153" y2="204.17247" gradientUnits="userSpaceOnUse" id="color-8"><stop offset="0" stop-color="#e07130"/><stop offset="1" stop-color="#c2551f"/></linearGradient><linearGradient x1="261.62283" y1="173.04695" x2="274.63958" y2="220.99128" gradientUnits="userSpaceOnUse" id="color-9"><stop offset="0" stop-color="#e07130"/><stop offset="1" stop-color="#c2551f"/></linearGradient><linearGradient x1="263.96595" y1="152.63539" x2="264.83815" y2="202.06608" gradientUnits="userSpaceOnUse" id="color-10"><stop offset="0" stop-color="#e07130"/><stop offset="1" stop-color="#c2551f"/></linearGradient><linearGradient x1="315.88835" y1="101.40872" x2="317.68785" y2="203.39176" gradientUnits="userSpaceOnUse" id="color-11"><stop offset="0" stop-color="#e07130"/><stop offset="1" stop-color="#c2551f"/></linearGradient><linearGradient x1="323.26391" y1="37.69211" x2="314.39208" y2="119.54783" gradientUnits="userSpaceOnUse" id="color-12"><stop offset="0" stop-color="#a1a1a1"/><stop offset="1" stop-color="#767676"/></linearGradient></defs><g transform="translate(-203.88683,-32.14419)"><g stroke-miterlimit="10"><g stroke="#000000" stroke-width="2.5"><path d="M393.7612,311.6774l-75.51414,10.05521l-72.29526,-7.81725c0,0 32.014,-61.38247 72.83043,-62.00046c40.81644,-0.61799 74.97896,59.76252 74.97896,59.76252z" fill="url(#color-1)" stroke-linecap="butt"/><path d="M257.08298,310.10865l59.88457,-17.37863l64.156,13.14743" fill="none" stroke-linecap="round"/><path d="M287.93946,313.56335l30.62816,-9.48408l37.44244,6.49248" fill="none" stroke-linecap="round"/></g><g stroke="#000000" stroke-width="2.5"><path d="M398.60966,279.92253l-75.51414,10.05521l-72.29526,-7.81725c0,0 32.014,-61.38247 72.83043,-62.00046c40.81644,-0.61799 74.97896,59.76252 74.97896,59.76252z" fill="url(#color-2)" stroke-linecap="butt"/><path d="M261.93146,278.35379l59.88457,-17.37863l64.156,13.14743" fill="none" stroke-linecap="round"/><path d="M292.78792,281.80847l30.62816,-9.48408l37.44244,6.49249" fill="none" stroke-linecap="round"/></g><g stroke="#000000" stroke-width="2.5"><path d="M394.10249,250.49079l-75.51413,10.05521l-72.29527,-7.81725c0,0 32.014,-61.38247 72.83044,-62.00046c40.81644,-0.61799 74.97895,59.76252 74.97895,59.76252z" fill="url(#color-3)" stroke-linecap="butt"/><path d="M257.4243,248.92202l59.88458,-17.37862l64.156,13.14743" fill="none" stroke-linecap="round"/><path d="M288.28077,252.37673l30.62816,-9.48407l37.44244,6.49249" fill="none" stroke-linecap="round"/></g><path d="M273.61657,362.48747l-4.68582,-141.08149c0,0 6.39752,-24.72661 16.50571,-25.26803c10.03827,-0.53768 33.83855,-1.43152 54.62162,-2.54472c22.54168,-1.2074 30.02369,24.44013 30.02369,24.44013l2.82875,146.43807z" fill="url(#color-4)" stroke="#000000" stroke-width="2.5" stroke-linecap="butt"/><path d="M340.44069,205.97297c0.12052,6.83016 -8.54854,12.49982 -19.36289,12.66357c-10.81434,0.16373 -19.6788,-5.24046 -19.79932,-12.07062c-0.12052,-6.83016 8.54854,-12.49982 19.36289,-12.66357c10.81434,-0.16373 19.6788,5.24046 19.79932,12.07062z" fill="url(#color-5)" stroke="#000000" stroke-width="2.5" stroke-linecap="butt"/><path d="M306.04742,235.19253c0.12704,7.1999 -6.11025,13.13257 -13.93141,13.25099c-7.82115,0.11842 -14.26443,-5.62226 -14.39147,-12.82215c-0.12704,-7.1999 6.11025,-13.13257 13.93141,-13.25099c7.82115,-0.11842 14.26443,5.62226 14.39147,12.82215z" fill="url(#color-6)" stroke="#ffffff" stroke-width="2.5" stroke-linecap="butt"/><path d="M287.86851,231.41846l-1.0726,1.68721" fill="none" stroke="#ffffff" stroke-width="2.5" stroke-linecap="round"/><path d="M295.58466,231.39446l0.62896,1.56861" fill="none" stroke="#ffffff" stroke-width="2.5" stroke-linecap="round"/><path d="M283.68648,241.59742l2.05781,-3.03229l11.62186,0.17596l2.85471,2.92101" fill="none" stroke="#ffffff" stroke-width="2.5" stroke-linecap="round"/><path d="M344.20318,40.5048c0,0 -3.61458,1.48897 -13.80944,2.07801c-3.55453,0.20537 -14.85439,0.99429 -17.53502,1.01209c-4.33308,0.02878 -11.32362,-0.77379 -16.93931,-1.11816c-7.57835,-0.46471 -13.37559,-1.56243 -13.37559,-1.56243" fill="none" stroke="#000000" stroke-width="2.5" stroke-linecap="round"/><path d="M360.64664,168.98782c0,0 12.62475,10.9612 17.13467,19.30267c5.51516,10.20074 13.55149,37.45388 13.55149,37.45388c0,0 -15.95033,-19.96162 -24.38855,-24.64172c-7.43762,-4.12512 -23.61882,-1.98462 -23.61882,-1.98462z" fill="url(#color-7)" stroke="#000000" stroke-width="2.5" stroke-linecap="round"/><path d="M359.12505,154.99119c0,0 14.9903,8.00589 21.43469,15.17506c7.88082,8.76712 22.41388,33.60494 22.41388,33.60494c0,0 -20.44376,-16.06681 -29.81171,-18.84132c-8.25711,-2.44551 -23.48518,3.05637 -23.48518,3.05637z" fill="url(#color-8)" stroke="#000000" stroke-width="2.5" stroke-linecap="round"/><path d="M295.97673,198.91418c0,0 -16.24809,-1.64949 -23.53619,2.69859c-8.26859,4.93304 -23.50614,25.36688 -23.50614,25.36688c0,0 7.07052,-27.48188 12.22285,-37.84412c4.21322,-8.47355 16.4445,-19.81109 16.4445,-19.81109z" fill="url(#color-9)" stroke="#000000" stroke-width="2.5" stroke-linecap="round"/><path d="M291.04756,185.07732c0,0 -15.41404,-5.03793 -23.58045,-2.34375c-9.26505,3.05662 -29.13105,19.73377 -29.13105,19.73377c0,0 13.64901,-25.26453 21.2163,-34.26554c6.18802,-7.36043 20.88786,-15.81585 20.88786,-15.81585z" fill="url(#color-10)" stroke="#000000" stroke-width="2.5" stroke-linecap="round"/><path d="M353.18536,109.42105l8.84733,8.33533l-16.06052,55.69987l-61.043,-0.24397l-16.87646,-52.31403l9.09573,-10.03837" fill="none" stroke="#000000" stroke-width="2.5" stroke-linecap="round"/><path d="M373.35487,153.67592c-1.52612,27.32679 -27.99374,51.15181 -59.24877,49.65404c-31.25504,-1.49776 -55.46186,-27.75113 -53.93575,-55.07792c1.52612,-27.32678 28.10052,-48.26537 59.35555,-46.76759c31.25504,1.49776 55.3551,24.86469 53.82898,52.19147z" fill="url(#color-11)" stroke="#000000" stroke-width="2.5" stroke-linecap="butt"/><path d="M276.03453,115.4539l12.75525,-80.96793c0,0 7.41792,-1.25638 16.79876,-1.07361c5.90099,0.11498 13.502,0.20521 17.93024,0.61704c4.39023,0.4083 12.31282,2.27954 18.10315,3.24435c9.39662,1.5657 16.11615,3.62448 16.11615,3.62448l-5.07211,80.89252c0,0 -5.237,3.91503 -16.14174,6.05116c-5.9688,1.16922 -17.31326,1.46347 -21.8805,1.08581c-5.61982,-0.46472 -16.75862,-2.58526 -24.20186,-5.46122c-9.27948,-3.58548 -14.40735,-8.01261 -14.40735,-8.01261z" fill="url(#color-12)" stroke="#000000" stroke-width="2.5" stroke-linecap="butt"/><path d="M332.3709,148.04017c0.0458,2.59552 -6.79821,4.80379 -15.28649,4.93231c-8.48832,0.12852 -15.40655,-1.87138 -15.45236,-4.4669c-0.0458,-2.59552 6.79821,-4.80379 15.28649,-4.93231c8.48832,-0.12852 15.40655,1.87138 15.45236,4.4669z" fill-opacity="0.18431" fill="#000000" stroke="none" stroke-width="0" stroke-linecap="butt"/><path d="M337.11082,141.98224c4.81262,-1.65003 15.61262,-7.42913 17.63816,0.48233c1.36669,5.3381 -3.2674,13.09478 -10.2326,10.14953c-4.29729,-1.81713 -3.95961,-8.88635 1.00635,-9.48509c5.00138,-0.60303 4.11949,4.14947 -0.50907,4.03939" fill="none" stroke="#000000" stroke-width="2.5" stroke-linecap="round"/><path d="M284.82328,144.58215c2.37405,-5.10828 14.13913,-5.94067 15.12462,0.8848c1.01317,7.01724 -11.01413,12.65431 -16.2323,7.09752c-3.46749,-3.69251 4.11968,-8.33274 7.62877,-6.51437c3.42172,1.7731 -1.50507,3.61008 -3.18377,3.60713" fill="none" stroke="#000000" stroke-width="2.5" stroke-linecap="round"/><path d="M286.38985,185.32016c1.02108,-4.16298 10.09836,-3.60437 13.75728,-3.07961c2.95327,0.42355 5.87097,1.80024 8.93417,2.23642c8.88326,1.26492 17.9962,-0.52294 26.80134,0.66718c4.32985,0.58522 8.93492,-1.75506 13.36392,-0.80664c0.57356,0.12282 2.94879,2.23303 2.72375,2.7244c-0.18503,0.40403 -5.56169,-0.06789 -6.20487,-0.08339c-5.79069,-0.13959 -11.80788,-0.71127 -17.5706,-0.26223c-5.45362,0.42497 -11.03514,0.02683 -16.52483,-0.1055c-7.93159,-0.19119 -17.05,0.5551 -24.72545,-1.26346z" fill="#ffffff" stroke="#000000" stroke-width="2.5" stroke-linecap="round"/><path d="M283.02479,157.01982c0.0402,2.52558 1.34115,4.51012 1.25665,7.32304c-0.148,4.92677 -6.40483,10.56957 -10.96637,5.1199c-3.96014,-4.73118 5.08671,-13.17393 9.96483,-13.05635z" fill="#ffffff" stroke="#000000" stroke-width="2.5" stroke-linecap="round"/><path d="M307.53108,127.94278c-1.46228,5.73511 -18.12979,12.57249 -24.26107,12.24574c-3.38582,-0.18044 -8.37748,-0.90861 -9.72458,-4.28007" fill="none" stroke="#000000" stroke-width="2.5" stroke-linecap="round"/><path d="M233.25401,260.25923c1.96585,1.81784 2.02754,4.21578 3.88561,5.54047c0.338,0.24096 5.87294,2.79782 6.6183,4.84406c1.91876,5.26758 -1.04367,13.12162 -6.84535,13.66663c-1.91866,0.18025 -7.15442,-1.48939 -7.15442,-1.48939c0,0 -7.87288,-7.73318 -11.14595,-12.10997l-0.46417,-0.16298c2.43266,3.03226 9.11045,7.55031 9.11045,7.55031c0,0 2.59602,5.83651 1.41524,8.3719c-0.4835,1.03818 0.02352,1.69099 -0.08547,2.6928c-0.20301,1.86591 -4.51879,3.78813 -6.19915,3.85457c-8.95981,0.35425 -22.60462,-17.202 -15.06144,-22.04235l0.54694,0.28204c0.44967,-2.06228 -1.57944,-2.90105 -1.45846,-4.57115c0.41051,-5.66694 7.39195,-8.84239 10.007,-12.87609c1.22624,-1.89145 1.10526,-4.57633 2.51118,-6.3022c7.49678,-9.20285 24.42395,-25.16266 39.43439,-15.44958c1.29506,0.83802 3.54799,3.24387 5.01396,6.14182c2.45132,4.8458 3.73327,10.97571 2.20393,12.77983c-0.87391,1.03094 -4.21549,4.8148 -7.86812,5.08108c-4.36256,0.31804 -9.11272,-2.99716 -9.86424,-3.07405c-2.49804,-0.25558 10.05159,14.15174 9.5654,16.28673c-0.64859,2.84815 -9.54459,5.46881 -12.38373,1.67226" fill="#ce6026" stroke="#000000" stroke-width="2.5" stroke-linecap="round"/><path d="M381.02128,279.07908c-2.69073,3.88818 -11.68224,1.56394 -12.44038,-1.2609c-0.5683,-2.11751 11.41698,-16.93139 8.93042,-16.59322c-0.74809,0.10173 -5.36719,3.5722 -9.73924,3.3989c-3.66059,-0.1451 -7.14613,-3.81582 -8.05929,-4.81716c-1.59802,-1.75229 -0.55359,-7.92075 1.70906,-12.84466c1.35313,-2.94466 3.51173,-5.42361 4.7736,-6.30401c14.62579,-10.20419 32.15836,5.18457 40.0057,14.13315c1.47168,1.67819 1.45443,4.36534 2.75293,6.21497c2.76912,3.94446 9.86872,6.88659 10.49777,12.53629c0.18539,1.66502 -1.81004,2.57047 -1.28103,4.61654l0.53569,-0.29998c7.72524,4.58733 -5.23294,22.58442 -14.2007,22.52726c-1.68185,-0.01072 -6.06909,-1.7887 -6.34402,-3.64669c-0.1476,-0.99757 0.33388,-1.66675 -0.18939,-2.68825c-1.27793,-2.49465 1.09107,-8.41344 1.09107,-8.41344c0,0 6.49907,-4.7364 8.81309,-7.84733l-0.45758,0.17825c-3.10196,4.48242 -10.67122,12.47151 -10.67122,12.47151c0,0 -5.16793,1.84204 -7.09234,1.7255c-5.81903,-0.35244 -9.0828,-8.10331 -7.36867,-13.43108c0.66588,-2.06964 6.09855,-4.80823 6.42703,-5.06025c1.80574,-1.3854 1.77482,-3.78385 3.66921,-5.66567" fill="#ce6026" stroke="#000000" stroke-width="2.5" stroke-linecap="round"/><path d="M241.37781,147.05821l-9.0054,-27.91675" fill="none" stroke="#ffffff" stroke-width="2.5" stroke-linecap="round"/><path d="M245.88051,102.03121l-4.5027,-26.11567" fill="none" stroke="#ffffff" stroke-width="2.5" stroke-linecap="round"/><path d="M416.98318,82.21931l-18.01081,19.81189" fill="none" stroke="#ffffff" stroke-width="2.5" stroke-linecap="round"/><path d="M410.67939,129.04742l-13.5081,13.5081" fill="none" stroke="#ffffff" stroke-width="2.5" stroke-linecap="round"/></g></g></svg>