<svg version="1.1" xmlns="http://www.w3.org/2000/svg" xmlns:xlink="http://www.w3.org/1999/xlink" width="167.71192" height="307.6587" viewBox="0,0,167.71192,307.6587"><defs><linearGradient x1="317.91962" y1="167.36434" x2="319.81533" y2="346.18666" gradientUnits="userSpaceOnUse" id="color-1"><stop offset="0" stop-color="#676767"/><stop offset="1" stop-color="#313131"/></linearGradient><linearGradient x1="349.36532" y1="168.0922" x2="351.28194" y2="348.88648" gradientUnits="userSpaceOnUse" id="color-2"><stop offset="0" stop-color="#2e2e2e"/><stop offset="1" stop-color="#2b2b2b"/></linearGradient><linearGradient x1="287.54956" y1="167.49879" x2="289.46618" y2="348.29307" gradientUnits="userSpaceOnUse" id="color-3"><stop offset="0" stop-color="#2e2e2e"/><stop offset="1" stop-color="#2b2b2b"/></linearGradient><linearGradient x1="319.27944" y1="167.10714" x2="319.57025" y2="194.53808" gradientUnits="userSpaceOnUse" id="color-4"><stop offset="0" stop-color="#575757"/><stop offset="1" stop-color="#9c9c9c"/></linearGradient><linearGradient x1="318.10956" y1="74.71996" x2="319.23785" y2="181.14959" gradientUnits="userSpaceOnUse" id="color-5"><stop offset="0" stop-color="#1a1a1a"/><stop offset="1" stop-color="#9c9c9c"/></linearGradient><radialGradient cx="353.74375" cy="97.1959" r="25.53427" gradientUnits="userSpaceOnUse" id="color-6"><stop offset="0" stop-color="#000000" stop-opacity="0.92549"/><stop offset="1" stop-color="#000000" stop-opacity="0"/></radialGradient><radialGradient cx="282.32919" cy="101.87414" r="25.35587" gradientUnits="userSpaceOnUse" id="color-7"><stop offset="0" stop-color="#000000" stop-opacity="0.92549"/><stop offset="1" stop-color="#000000" stop-opacity="0"/></radialGradient><linearGradient x1="272.81363" y1="41.65519" x2="277.254" y2="126.7382" gradientUnits="userSpaceOnUse" id="color-8"><stop offset="0" stop-color="#9c9c9c"/><stop offset="1" stop-color="#2c2c2c"/></linearGradient><linearGradient x1="359.46873" y1="41.90822" x2="360.40433" y2="130.16249" gradientUnits="userSpaceOnUse" id="color-9"><stop offset="0" stop-color="#9c9c9c"/><stop offset="1" stop-color="#2c2c2c"/></linearGradient><linearGradient x1="283.712" y1="185.15961" x2="283.93237" y2="205.94712" gradientUnits="userSpaceOnUse" id="color-10"><stop offset="0" stop-color="#878787"/><stop offset="1" stop-color="#848484"/></linearGradient><linearGradient x1="123.71757" y1="92.10315" x2="123.73082" y2="93.35308" gradientUnits="userSpaceOnUse" id="color-11"><stop offset="0" stop-color="#878787"/><stop offset="1" stop-color="#848484"/></linearGradient></defs><g transform="translate(-233.02668,-41.47071)"><g stroke-miterlimit="10"><path d="M272.73281,343.04696l-3.69031,-147.24494c0,0 6.35198,-25.76699 16.15536,-26.27617c9.73556,-0.50565 32.81583,-1.30699 52.97217,-2.3539c21.86192,-1.13549 28.96088,25.66912 28.96088,25.66912l1.85746,152.82431z" fill="url(#color-1)" stroke="#000000" stroke-width="0" stroke-linecap="butt"/><path d="M328.3668,349.12941l8.70999,-98.80682c0,0 -7.32905,-80.9317 2.87288,-80.13612c9.40601,0.73351 14.23592,-2.51258 18.77904,-2.1583c4.57478,0.35675 13.86862,29.70943 13.86862,29.70943l0.56902,147.27803z" fill="url(#color-2)" stroke="#000000" stroke-width="0" stroke-linecap="butt"/><path d="M267.50465,344.88705l-2.55339,-147.257c0,0 8.66948,-29.54311 13.23566,-29.99677c4.53459,-0.45051 9.43222,2.69245 18.82057,1.7597c10.18277,-1.01168 4.57112,80.0572 4.57112,80.0572l10.80273,98.59997z" fill="url(#color-3)" stroke="#000000" stroke-width="0" stroke-linecap="butt"/><path d="M332.87216,180.68005c0.0803,7.57485 -5.87516,13.77929 -13.30191,13.85803c-7.42675,0.07873 -13.51241,-5.99807 -13.59271,-13.57291c-0.0803,-7.57485 5.87516,-13.77929 13.30191,-13.85803c7.42675,-0.07873 13.51241,5.99807 13.59271,13.57291z" fill="url(#color-4)" stroke="#000000" stroke-width="0" stroke-linecap="butt"/><path d="M373.34465,129.57998c-1.63894,28.50714 -27.36584,53.22168 -57.5686,51.48525c-30.20276,-1.73642 -53.44423,-29.26628 -51.80529,-57.7734c1.63894,-28.50713 27.45176,-50.20908 57.65452,-48.47264c30.20276,1.73642 53.35833,26.25367 51.71939,54.76079z" fill="url(#color-5)" stroke="#000000" stroke-width="0" stroke-linecap="butt"/><path d="M333.59537,127.47695c0.02872,2.70869 -6.60006,4.97503 -14.80579,5.06202c-8.20574,0.08699 -14.88106,-2.03832 -14.90978,-4.74701c-0.02872,-2.70869 6.60006,-4.97503 14.80579,-5.06202c8.20574,-0.08699 14.88106,2.03832 14.90978,4.74701z" fill-opacity="0.18431" fill="#000000" stroke="none" stroke-width="0" stroke-linecap="butt"/><path d="M273.83721,143.94139c0.51745,-0.09595 2.96891,0.01773 1.71642,1.37791c-0.27588,0.2996 -1.6969,0.18028 -1.95972,-0.04846c-0.40384,-0.35148 0.73987,-1.10379 0.43726,-1.54543c-0.18841,-0.27498 -0.58134,0.7082 -0.85523,0.51823c-0.27389,-0.18998 0.12381,-0.65507 0.18571,-0.9826z" fill="none" stroke="#000000" stroke-width="2.5" stroke-linecap="round"/><path d="M284.71937,145.16457c-2.66289,-0.83584 1.18233,-1.91517 1.42376,-0.80944c0.43067,1.97246 -4.40097,-0.72482 -0.17971,-0.76957" fill="none" stroke="#000000" stroke-width="2.5" stroke-linecap="round"/><path d="M279.47817,149.59581c4.49969,-0.72458 -0.23305,3.30754 -0.9284,1.89096c-0.30158,-0.61439 1.14729,-1.26701 0.83474,-1.87588z" fill="none" stroke="#000000" stroke-width="2.5" stroke-linecap="round"/><path d="M351.15628,144.90978c0.57692,-0.21935 1.90941,-0.56947 1.85107,0.04497c-0.00294,0.03102 -3.77074,1.05496 -1.99066,-1.37164" fill="none" stroke="#000000" stroke-width="2.5" stroke-linecap="round"/><path d="M360.20556,145.11087c1.01871,2.10474 -2.09988,1.05091 -0.01047,-0.02163z" fill="none" stroke="#000000" stroke-width="2.5" stroke-linecap="round"/><path d="M356.21345,150.92146c-0.31567,0.13812 -3.00152,1.16082 -2.2225,-0.56302c0.29263,-0.64756 2.64286,-0.8418 2.34987,0.51586c-0.13124,0.60814 -2.48217,1.38125 -1.12866,-0.46385z" fill="none" stroke="#000000" stroke-width="2.5" stroke-linecap="round"/><path d="M331.66735,82.60427c2.73061,-14.31829 14.82814,-19.39267 27.02059,-11.33392c12.19245,8.05875 19.8628,26.19891 17.13219,40.51721c-2.73061,14.31829 -14.82815,19.39267 -27.0206,11.33392c-12.19245,-8.05875 -19.86279,-26.19891 -17.13218,-40.51719z" fill="url(#color-6)" stroke="#000000" stroke-width="0" stroke-linecap="butt"/><path d="M303.96664,86.51408c2.98466,14.48428 -4.28321,33.10308 -16.23325,41.58623c-11.95004,8.48314 -24.05701,3.61824 -27.04167,-10.86606c-2.98466,-14.4843 4.28322,-33.10309 16.23326,-41.58625c11.95004,-8.48314 24.057,-3.61823 27.04166,10.86607z" fill="url(#color-7)" stroke="#000000" stroke-width="0" stroke-linecap="butt"/><path d="M267.63094,127.24042l-34.60425,-83.50878l70.18814,37.17101c0,0 -4.32746,18.78414 -9.57131,25.61274c-6.38957,8.32058 -26.01259,20.72505 -26.01259,20.72505z" fill="url(#color-8)" stroke="#000000" stroke-width="0" stroke-linecap="butt"/><path d="M333.13082,80.08885l67.60779,-38.61814l-30.35255,88.58599c0,0 -19.40299,-16.49481 -25.8734,-25.17313c-5.89417,-7.90544 -11.38184,-24.79471 -11.38184,-24.79471z" fill="url(#color-9)" stroke="#000000" stroke-width="0" stroke-linecap="butt"/><path d="M298.82885,121.19845c0.04154,2.23449 -1.91295,4.08283 -4.36541,4.12841c-2.45248,0.04558 -4.47427,-1.72888 -4.51581,-3.96335c-0.04154,-2.23449 1.91295,-4.08283 4.36541,-4.12841c2.45248,-0.04558 4.47426,1.72888 4.51579,3.96336z" fill="#ffffff" stroke="#000000" stroke-width="2.5" stroke-linecap="butt"/><path d="M354.13517,121.41374c0.04154,2.23449 -1.91294,4.08283 -4.36541,4.12841c-2.45248,0.04558 -4.47426,-1.72888 -4.51579,-3.96335c-0.04154,-2.23449 1.91294,-4.08282 4.36541,-4.1284c2.45248,-0.04558 4.47427,1.72887 4.5158,3.96334z" fill="#ffffff" stroke="#000000" stroke-width="2.5" stroke-linecap="butt"/><path d="M297.72693,125.32535l-6.33304,6.65368" fill="none" stroke="#000000" stroke-width="2.5" stroke-linecap="round"/><path d="M305.56245,220.60878l29.44543,1.41904" fill="none" stroke-opacity="0.45098" stroke="#000000" stroke-width="2.5" stroke-linecap="round"/><path d="M333.68159,233.00615l-29.42708,0.31196" fill="none" stroke-opacity="0.45098" stroke="#000000" stroke-width="2.5" stroke-linecap="round"/><path d="M302.92517,244.00793l34.32243,-1.22945" fill="none" stroke-opacity="0.45098" stroke="#000000" stroke-width="2.5" stroke-linecap="round"/><path d="M303.33597,255.54491l32.88909,-0.34866" fill="none" stroke-opacity="0.45098" stroke="#000000" stroke-width="2.5" stroke-linecap="round"/><path d="M306.35252,267.91986l28.55853,-0.59129" fill="none" stroke-opacity="0.45098" stroke="#000000" stroke-width="2.5" stroke-linecap="round"/><path d="M333.60924,280.61491l-25.9559,1.14076" fill="none" stroke-opacity="0.45098" stroke="#000000" stroke-width="2.5" stroke-linecap="round"/><path d="M330.28179,293.34564l-19.90044,0.78803" fill="none" stroke-opacity="0.45098" stroke="#000000" stroke-width="2.5" stroke-linecap="round"/><path d="M311.35086,303.93352l18.17249,-0.48118" fill="none" stroke-opacity="0.45098" stroke="#000000" stroke-width="2.5" stroke-linecap="round"/><path d="M330.50505,314.40618l-18.16943,0.76969" fill="none" stroke-opacity="0.45098" stroke="#000000" stroke-width="2.5" stroke-linecap="round"/><path d="M335.46867,211.05868l-29.73394,-1.41598" fill="none" stroke-opacity="0.45098" stroke="#000000" stroke-width="2.5" stroke-linecap="round"/><path d="M306.20773,199.82755l26.55125,0.58413" fill="none" stroke-opacity="0.45098" stroke="#000000" stroke-width="2.5" stroke-linecap="round"/><path d="M340.50884,228.79576l-0.80945,-21.91995l29.72171,0.26199l-1.5322,18.7709" fill="none" stroke-opacity="0.45098" stroke="#000000" stroke-width="2.5" stroke-linecap="round"/><path d="M353.786,229.23207l0.00105,54.53277l-0.50256,61.46291" fill="none" stroke-opacity="0.45098" stroke="#000000" stroke-width="2.5" stroke-linecap="round"/><path d="M295.07318,195.43409c0.06085,5.74032 -4.92705,10.44716 -11.14079,10.51303c-6.21374,0.06587 -11.30031,-4.53418 -11.36116,-10.27448c-0.06085,-5.74032 4.92705,-10.44716 11.14079,-10.51303c6.21374,-0.06587 11.30031,4.53418 11.36116,10.27448z" fill="url(#color-10)" stroke="#000000" stroke-width="0" stroke-linecap="butt"/><path d="M249.91366,181.23134z" fill="url(#color-11)" stroke="#000000" stroke-width="2.5" stroke-linecap="butt"/><path d="M298.20852,116.53036l-13.87995,0.84158" fill="none" stroke="#000000" stroke-width="2.5" stroke-linecap="round"/><path d="M340.83521,115.38402l11.54414,1.54428" fill="none" stroke="#000000" stroke-width="2.5" stroke-linecap="round"/><path d="M344.16769,128.40423l-3.91053,-2.04187" fill="none" stroke="#000000" stroke-width="2.5" stroke-linecap="round"/><path d="M342.21168,127.31386l10.27514,-0.24782" fill="none" stroke="#000000" stroke-width="2.5" stroke-linecap="round"/><path d="M285.4008,126.80501l9.16857,0.18058" fill="none" stroke="#000000" stroke-width="2.5" stroke-linecap="round"/><path d="M298.15707,174.3803l6.43975,-1.73488l16.05925,1.7047l13.72375,-2.43709l8.96589,0.73826" fill="none" stroke="#000000" stroke-width="2.5" stroke-linecap="round"/><path d="M276.32204,128.65702l-0.15624,4.06224l-2.3436,0.15624l-1.5624,-2.49984" fill="none" stroke="#000000" stroke-width="2.5" stroke-linecap="round"/><path d="M277.10324,136.0003l-0.7812,2.49984h-1.87488l-1.24992,-0.7812" fill="none" stroke="#000000" stroke-width="2.5" stroke-linecap="round"/></g></g></svg>