<svg version="1.1" xmlns="http://www.w3.org/2000/svg" xmlns:xlink="http://www.w3.org/1999/xlink" width="34.17311" height="34.17311" viewBox="0,0,34.17311,34.17311"><g transform="translate(-302.91346,-162.91346)"><g data-paper-data="{&quot;isPaintingLayer&quot;:true}" stroke="none" stroke-miterlimit="10" stroke-dasharray="" stroke-dashoffset="0" style="mix-blend-mode: normal"><path d="M309.98313,162.91346h20.03378c3.9166,0 7.06966,3.15307 7.06966,7.06966v20.03379c0,3.91659 -3.15306,7.06966 -7.06966,7.06966h-20.03378c-3.91659,0 -7.06967,-3.15307 -7.06967,-7.06966v-20.03379c0,-3.91659 3.15308,-7.06966 7.06967,-7.06966z" fill="#888888" fill-rule="evenodd" stroke-width="4.43922" stroke-linecap="round" stroke-linejoin="round"/><path d="M328.73675,188.65753c-0.23717,-0.71151 0.47434,-0.94869 0.47434,-0.94869l0.76551,-0.25499c2.23545,-0.6387 2.55515,-0.60813 0.50015,-2.70025c-0.325,-0.33088 -1.07062,-0.47558 -1.0282,-0.93744c0.05327,-0.57986 3.09362,-2.78085 3.76777,-2.85905c0.22372,-0.02595 -0.5036,0.04417 -0.6664,-0.11146c-0.36777,-0.35158 -0.77727,-0.75401 -1.26089,-0.89283c-0.39715,0.06146 -0.80125,0.05452 -1.21404,-0.07475c-1.10078,-0.34472 -1.21456,-1.04385 -2.52272,-0.83997c-2.41629,0.37658 -4.62167,1.5356 -7.05086,1.88036c-1.91939,-0.0448 -3.65798,-1.88573 -5.52438,-1.87366c-1.48271,0.00958 -2.34699,1.74657 -4.02704,1.20827c-0.37989,-0.12172 -0.7155,-0.25458 -1.02702,-0.38323c-0.00876,0.0124 -0.01407,0.01902 -0.01407,0.01902c-0.75928,0.94316 -2.15787,2.83853 -2.49174,3.81777c-0.04704,0.13797 0.27775,-0.12845 0.42262,-0.11233c0.27564,0.03066 1.76385,0.6567 1.80365,0.71382c1.43397,2.05795 -1.45964,2.03901 -1.33765,3.20133c0.08231,0.78431 1.45475,0.61864 2.13957,1.00971l0.4633,0.23036c0,0 0.67082,0.33541 0.33541,1.00623c-0.33541,0.67082 -1.00623,0.33541 -1.00623,0.33541l-0.5367,-0.26963c-0.7244,-0.41422 -2.66358,-1.04795 -2.86043,-1.99029c-0.12124,-0.58036 0.64765,-1.62401 1.0487,-2.03609c0.18588,-0.191 0.87724,-0.47311 0.61365,-0.51259c-3.53503,-0.52947 -2.01257,-3.33268 -0.44683,-5.44725c-0.14625,-0.24737 -0.09777,-0.53826 -0.09777,-0.53826c0.00343,-0.01849 0.00697,-0.03689 0.01064,-0.05522c-0.53491,-0.05801 -1.13474,0.00267 -1.90867,0.26503c0,0 -0.71152,0.23717 -0.94869,-0.47434c-0.23717,-0.71151 0.47434,-0.94868 0.47434,-0.94868c1.15741,-0.38038 2.07934,-0.44053 2.95927,-0.29241c0.55057,-0.93211 1.33094,-1.7239 1.86844,-2.72831c1.28822,-2.40724 4.38371,-6.48593 7.74487,-4.81359c0.73451,0.36545 1.37046,1.44632 1.87524,2.0773c0.13746,0.65949 1.30184,-1.58809 1.93093,-1.9403c0.96845,-0.5422 2.80897,-0.6902 3.88421,-0.45087c3.36382,0.74872 4.84445,4.76913 5.339,7.73638l0.0102,0.6233c0,0 0,0.05158 -0.01353,0.12769c0.08213,-0.0016 0.13684,0.00752 0.13684,0.00752c0.02901,0.00576 0.06036,0.01322 0.09384,0.02232c0.62376,-0.15363 1.32249,-0.52986 1.79956,-0.70338l-0.04704,0.01553c0,0 0.53033,-0.53033 1.06066,0c0.53033,0.53033 0,1.06067 0,1.06067l-0.44928,0.31581c-0.20206,0.05689 -0.40506,0.12769 -0.60926,0.20396c1.01495,0.68557 1.97066,1.63928 1.72869,2.46791c-0.06492,0.22232 -2.71742,1.56631 -3.63922,1.90106c0.27727,0.1387 0.65822,0.44733 0.80061,0.64717c0.4146,0.58188 1.88576,2.43569 1.44006,3.25668c-0.35381,0.65174 -2.35757,1.06208 -3.08026,1.26856l-0.73449,0.24501c0,0 -0.71151,0.23717 -0.94868,-0.47434zM329.70847,177.91866c-0.56528,-3.39167 -2.39937,-7.27304 -6.46289,-6.39336c-1.98525,0.42977 -1.97558,4.05292 -4.38297,1.73858c-2.71838,-3.39798 -5.47623,-0.54009 -7.12989,2.51371c-0.45351,0.8375 -1.23013,1.58894 -1.75836,2.42212c0.46444,0.17791 0.94604,0.39583 1.47215,0.63793c0.82814,0.38108 2.50679,-1.2952 3.47297,-1.29172c1.90692,0.00687 3.65155,1.96038 5.47561,1.87633c2.38509,-0.34347 4.56598,-1.5067 6.94914,-1.86964c1.0828,-0.1649 1.65915,0.15515 2.3602,0.51487z" fill="#000000" fill-rule="nonzero" stroke-width="0.5" stroke-linecap="butt" stroke-linejoin="miter"/></g></g></svg>