<svg version="1.1" xmlns="http://www.w3.org/2000/svg" xmlns:xlink="http://www.w3.org/1999/xlink" width="180.03514" height="316.31569" viewBox="0,0,180.03514,316.31569"><defs><linearGradient x1="314.08179" y1="54.12643" x2="315.58539" y2="118.53477" gradientUnits="userSpaceOnUse" id="color-1"><stop offset="0" stop-color="#ff8026"/><stop offset="1" stop-color="#b54b00"/></linearGradient><linearGradient x1="359.58924" y1="97.35551" x2="361.07761" y2="161.11091" gradientUnits="userSpaceOnUse" id="color-2"><stop offset="0" stop-color="#cecece"/><stop offset="1" stop-color="#595959"/></linearGradient><linearGradient x1="266.74809" y1="99.52287" x2="268.23645" y2="163.27827" gradientUnits="userSpaceOnUse" id="color-3"><stop offset="0" stop-color="#cecece"/><stop offset="1" stop-color="#595959"/></linearGradient><radialGradient cx="320.10514" cy="243.58451" r="35.63773" gradientUnits="userSpaceOnUse" id="color-4"><stop offset="0" stop-color="#ed8828"/><stop offset="1" stop-color="#4f2200"/></radialGradient></defs><g transform="translate(-226.11152,-30.37734)"><g stroke-miterlimit="10"><path d="M402.50993,134.90666c0.62486,10.20971 -2.02503,18.16405 -5.81098,26.23509c-1.42421,3.03622 -2.72596,7.04286 -5.27855,8.73879c-5.87427,3.90285 -16.15997,2.38387 -21.92979,-2.23184c-2.38441,-1.90747 -5.16669,-1.99067 -7.01427,-5.3742c-1.78043,-3.26056 -1.13892,-11.20137 -0.58908,-14.66373c0.25872,-1.62913 1.45048,-1.38798 2.09638,-2.4193c1.07573,-1.71766 2.23059,-5.65633 2.7382,-7.77965c0.48159,-2.01453 -0.2565,-4.80561 -0.10098,-6.94272c0.75229,-10.33804 -3.38402,-22.92569 -0.0989,-32.48288c1.88297,-5.478 4.51663,-10.16676 9.63274,-8.41384c2.40344,0.82349 3.35514,5.74751 3.51849,8.41626c0.49681,8.1173 0.40502,15.80294 0.26634,23.83719c-0.05218,3.02347 -0.09899,5.83303 0.09257,8.92336c0.02064,0.33295 -0.18093,1.00182 0.06269,0.9988c0.24363,-0.00301 -0.03641,-0.66605 -0.04784,-0.99898c-0.07324,-2.13527 -0.27683,-4.82704 -0.11774,-6.95075c0.48051,-6.41472 0.33111,-13.38417 2.16647,-19.25654c0.57307,-1.83358 1.34964,-4.72637 3.02088,-5.05499c2.22275,-0.43708 3.94191,3.25604 4.86553,5.5152c2.61125,6.3871 2.43265,14.64088 2.13756,21.5367c-0.01414,0.33042 0.0387,0.66595 0.0559,0.99895c0.0172,0.33299 0.03397,0.66601 0.04729,0.99899c0.09103,2.27832 -0.0857,4.6316 -0.23247,6.89957c-0.00566,0.08741 -0.02524,1.98077 -0.59575,1.65231c-0.17465,-0.10055 -0.22058,-3.60399 -0.24453,-3.99538c-0.22468,-3.67123 -1.0239,-9.65362 0.99289,-12.43969c0.6261,-0.86494 2.74061,-0.38954 3.59273,-0.40789c6.00301,-0.12928 6.15324,8.99708 6.53472,15.22999z" fill="#ffa000" stroke="#000000" stroke-width="2.5" stroke-linecap="round"/><path d="M255.33905,119.94121l-1.1949,-20.7506c0,0 5.17267,-22.29784 15.76552,-30.50749c10.59287,-8.20965 42.32482,-14.51357 42.32482,-14.51357c0,0 28.30469,4.61491 43.03397,14.46166c14.72928,9.84676 20.07848,27.72995 20.07848,27.72995l1.19491,20.75061l-8.58745,-1.17869c0,0 -5.97648,-19.84785 -17.5154,-30.6809c-11.53892,-10.83305 -21.97387,-15.3899 -38.24795,-15.44206c-16.27408,-0.05215 -23.90098,4.27559 -33.72958,15.2114c-9.82859,10.93581 -14.7047,32.93191 -14.7047,32.93191z" fill="url(#color-1)" stroke="#000000" stroke-width="2.5" stroke-linecap="butt"/><g stroke="#000000" stroke-width="2.5" stroke-linecap="butt"><path d="M366.52906,97.93496c11.96895,0.99938 22.00488,16.08166 22.41589,33.68724c0.411,17.60557 -8.95857,31.06755 -20.92752,30.06818c-11.96895,-0.99938 -22.00488,-16.08166 -22.41589,-33.68724c-0.411,-17.60557 8.95857,-31.06755 20.92752,-30.06818z" fill="#ff8026"/><path d="M359.58924,97.35551c8.61529,0.71936 16.34355,33.1802 16.34355,33.1802c0,0 -6.2399,31.29455 -14.85519,30.57519c-8.61529,-0.71935 -15.93254,-15.57464 -16.34354,-33.1802c-0.411,-17.60557 6.2399,-31.29455 14.85518,-30.57519z" fill="url(#color-2)"/></g><g stroke="#000000" stroke-width="2.5" stroke-linecap="butt"><path d="M282.15073,129.48439c0.411,17.60557 -8.9102,33.13975 -20.81947,34.69656c-11.90929,1.55681 -21.89683,-11.45328 -22.30784,-29.05886c-0.411,-17.60557 8.9102,-33.13974 20.81947,-34.69655c11.90929,-1.55681 21.89683,11.45328 22.30784,29.05886z" fill="#ff8026"/><path d="M283.01388,129.37156c0.411,17.60556 -6.20507,32.78613 -14.77742,33.90672c-8.57234,1.12059 -16.26576,-29.84868 -16.26576,-29.84868c0,0 6.20507,-32.78613 14.77741,-33.90672c8.57234,-1.1206 15.85478,12.24312 16.26577,29.84868z" fill="url(#color-3)"/></g><path d="M275.22827,345.42878l-6.36018,-147.04467c0,0 5.31005,-25.99831 14.29801,-26.88043c8.92577,-0.87602 30.09433,-2.55555 48.57412,-4.36927c20.0435,-1.96718 27.50326,14.8162 27.50326,14.8162l4.38787,162.43166z" fill="#000000" stroke="#000000" stroke-width="2.5" stroke-linecap="butt"/><path d="M331.78048,179.16931c0.00176,6.40516 -7.27575,11.76749 -16.25478,11.97711c-8.97902,0.20962 -16.25938,-4.81286 -16.26113,-11.21803c-0.00176,-6.40516 7.27574,-11.76749 16.25477,-11.97711c8.97902,-0.20962 16.25939,4.81287 16.26114,11.21803z" fill="#ffa000" stroke="#000000" stroke-width="2.5" stroke-linecap="butt"/><path d="M368.44377,126.86977c0.65355,27.99528 -23.00726,54.20019 -53.25165,54.90624c-30.2444,0.70605 -55.61946,-24.35413 -56.27301,-52.34941c-0.65355,-27.99527 23.33459,-51.26229 53.57899,-51.96835c30.2444,-0.70605 55.29213,21.41624 55.94568,49.41151z" fill="#ffa000" stroke="#000000" stroke-width="2.5" stroke-linecap="butt"/><path d="M329.59226,125.6039c0.06322,2.7081 -6.53615,5.05871 -14.74011,5.25023c-8.20396,0.19152 -14.90582,-1.84858 -14.96904,-4.55668c-0.06322,-2.7081 6.53615,-5.05871 14.74011,-5.25023c8.20396,-0.19152 14.90582,1.84858 14.96904,4.55668z" fill-opacity="0.18431" fill="#ff0505" stroke="none" stroke-width="0" stroke-linecap="butt"/><path d="M303.63306,128.64076c0,0 -4.08929,1.29701 -8.37384,2.29219c-2.54346,0.59077 -5.15573,1.07519 -7.02216,1.11877c-5.01049,0.11697 -14.66699,-2.70914 -14.66699,-2.70914" fill="none" stroke="#000000" stroke-width="2.5" stroke-linecap="round"/><path d="M355.90635,126.98451c0,0 -4.08929,1.29701 -8.37384,2.29219c-2.54346,0.59077 -5.15573,1.07519 -7.02216,1.11877c-5.01049,0.11697 -14.66699,-2.70914 -14.66699,-2.70914" fill="none" stroke="#000000" stroke-width="2.5" stroke-linecap="round"/><path d="M326.41993,96.36409c0,0 6.88731,-8.00757 10.49145,-8.09171c1.54436,-0.03605 4.60754,-0.158 6.71756,1.30083c3.16109,2.18552 5.22929,6.26706 5.22929,6.26706" fill="none" stroke="#000000" stroke-width="2.5" stroke-linecap="round"/><path d="M247.57778,52.34965c0.12612,5.40249 -4.29721,9.88773 -9.87977,10.01805c-5.58256,0.13032 -10.21038,-4.14362 -10.33649,-9.54611c-0.12612,-5.40249 4.29721,-9.88773 9.87977,-10.01805c5.58256,-0.13032 10.21038,4.14362 10.33649,9.54611z" fill="#ff8026" stroke="#000000" stroke-width="2.5" stroke-linecap="butt"/><path d="M404.89403,41.17344c0.12612,5.40249 -4.29721,9.88773 -9.87977,10.01805c-5.58256,0.13032 -10.21039,-4.14362 -10.3365,-9.54611c-0.12612,-5.40249 4.29722,-9.88772 9.87978,-10.01804c5.58256,-0.13032 10.21038,4.14362 10.33649,9.5461z" fill="#ff8026" stroke="#000000" stroke-width="2.5" stroke-linecap="butt"/><path d="M243.55962,61.90461l25.01973,37.58678" fill="none" stroke="#000000" stroke-width="2.5" stroke-linecap="round"/><path d="M361.221,98.95992l29.2359,-47.33579" fill="none" stroke="#000000" stroke-width="2.5" stroke-linecap="round"/><path d="M291.70045,278.2869l0.51709,-69.69879l24.00072,40.71569l26.21471,-2.22014l-0.33359,31.63484l-38.6643,-25.89996l45.43747,-28.39937" fill="none" stroke="url(#color-4)" stroke-width="2.5" stroke-linecap="round"/><path d="M315.31435,171.43687c0.08835,3.78468 -0.59257,6.87033 -1.52089,6.892c-0.92832,0.02168 -1.75248,-3.02885 -1.84084,-6.81353c-0.08835,-3.78468 0.59257,-6.87033 1.52089,-6.892c0.92832,-0.02168 1.75248,3.02885 1.84084,6.81353z" fill="none" stroke="#000000" stroke-width="2.5" stroke-linecap="butt"/></g></g></svg>