<svg version="1.1" xmlns="http://www.w3.org/2000/svg" xmlns:xlink="http://www.w3.org/1999/xlink" width="34.17311" height="34.17311" viewBox="0,0,34.17311,34.17311"><g transform="translate(-302.91345,-162.91344)"><g data-paper-data="{&quot;isPaintingLayer&quot;:true}" stroke="none" stroke-miterlimit="10" stroke-dasharray="" stroke-dashoffset="0" style="mix-blend-mode: normal"><path d="M309.98312,162.91345h20.03378c3.9166,0 7.06966,3.15307 7.06966,7.06966v20.03379c0,3.91659 -3.15306,7.06966 -7.06966,7.06966h-20.03378c-3.91659,0 -7.06967,-3.15307 -7.06967,-7.06966v-20.03379c0,-3.91659 3.15308,-7.06966 7.06967,-7.06966z" fill-opacity="0.09677" fill="#191919" fill-rule="evenodd" stroke-width="4.43922" stroke-linecap="round" stroke-linejoin="round"/><path d="M307.61945,169.02862c0.132,-0.52613 0.72413,-0.52613 0.72413,-0.52613h0.625c3.93989,0.00379 8.01734,-0.3376 11.93788,-0.71348c3.40209,-0.32271 6.86666,-0.3451 10.27254,-0.02874c1.14495,0.10635 2.35836,-0.09255 2.9495,1.26893c0.46556,1.07225 -0.01552,3.63024 -0.03509,4.82252c-0.06248,3.80632 0.03811,7.56335 0.14709,11.36746c0.13892,5.44441 -3.6028,6.7036 -8.31619,7.09428c-5.21808,0.43251 -10.62714,-0.1333 -15.80967,-0.7557c-1.19308,-0.19074 -3.02792,-0.10022 -3.91069,-1.09712c-0.91213,-1.03005 -0.38226,-3.94201 -0.37634,-5.19341c0.02463,-5.20539 0.62037,-10.38358 0.62014,-15.59807c0,0 0,-0.75 0.75,-0.75c0.18054,0 0.31762,0.04346 0.4217,0.10946z" fill="#000000" fill-rule="nonzero" stroke-width="0.5" stroke-linecap="butt" stroke-linejoin="miter"/><path d="M318.22546,177.35757c-0.74992,0.01097 -0.76089,-0.73895 -0.76089,-0.73895l-0.00339,-0.2314c-0.01458,-1.00281 0.28144,-2.99106 -0.34835,-3.88841c-0.42642,-0.60758 -0.95542,-0.28332 -1.48356,-0.22883c-1.90769,0.19679 -2.95202,2.64668 -2.91478,4.54601c0,0 0,0.75 -0.75,0.75c-0.75,0 -0.75,-0.75 -0.75,-0.75c0.042,-2.77904 3.7478,-9.22797 7.05999,-5.26616c0.96061,1.14901 0.66643,3.44947 0.68654,4.81545l0.00339,0.2314c0,0 0.01097,0.74992 -0.73895,0.76089z" fill="#ffffff" fill-rule="nonzero" stroke-width="0.5" stroke-linecap="butt" stroke-linejoin="miter"/><path d="M328.55807,177.25284c-0.74936,0.03109 -0.78044,-0.71827 -0.78044,-0.71827l-0.05786,-1.40232c-0.09745,-1.12208 -1.09377,-4.6371 -2.63537,-2.16496c-0.4679,0.75033 -0.40117,1.72261 -0.62309,2.57858c0,0 -0.18822,0.726 -0.91422,0.53778c-0.726,-0.18822 -0.53778,-0.91422 -0.53778,-0.91422c0.05895,-0.22739 0.74286,-2.91814 0.83525,-3.04642c2.66644,-3.70243 5.08086,0.26917 5.37147,2.90349l0.0603,1.4459c0,0 0.03109,0.74936 -0.71827,0.78044z" fill="#ffffff" fill-rule="nonzero" stroke-width="0.5" stroke-linecap="butt" stroke-linejoin="miter"/><path d="M328.92702,183.44825c0.55523,0.5042 0.05103,1.05943 0.05103,1.05943l-0.79777,0.8775c-3.53272,3.24189 -8.37089,3.40601 -12.86276,2.58695c-2.53647,-0.46251 -4.35855,-1.47839 -4.72431,-4.10236c0,0 -0.07463,-0.74628 0.67165,-0.82091c0.74628,-0.07463 0.82091,0.67165 0.82091,0.67165c0.07454,1.86239 1.75872,2.4781 3.49309,2.77455c3.95665,0.67629 8.41679,0.77315 11.53489,-2.16464l0.75385,-0.83115c0,0 0.5042,-0.55523 1.05943,-0.05103z" fill="#ffffff" fill-rule="nonzero" stroke-width="0.5" stroke-linecap="butt" stroke-linejoin="miter"/></g></g></svg>