<svg version="1.1" xmlns="http://www.w3.org/2000/svg" xmlns:xlink="http://www.w3.org/1999/xlink" width="200.22617" height="319.40514" viewBox="0,0,200.22617,319.40514"><defs><linearGradient x1="319.75457" y1="168.3002" x2="319.75457" y2="346.77762" gradientUnits="userSpaceOnUse" id="color-1"><stop offset="0" stop-color="#2b2b2b"/><stop offset="1" stop-color="#171717"/></linearGradient><linearGradient x1="287.19986" y1="32.49454" x2="287.19986" y2="116.01637" gradientUnits="userSpaceOnUse" id="color-2"><stop offset="0" stop-color="#ffffff"/><stop offset="1" stop-color="#8c8c8c"/></linearGradient><linearGradient x1="354.80275" y1="31.66712" x2="354.80275" y2="115.18895" gradientUnits="userSpaceOnUse" id="color-3"><stop offset="0" stop-color="#ffffff"/><stop offset="1" stop-color="#8c8c8c"/></linearGradient><linearGradient x1="383.7505" y1="112.22412" x2="385.74364" y2="147.32167" gradientUnits="userSpaceOnUse" id="color-4"><stop offset="0" stop-color="#ffffff"/><stop offset="1" stop-color="#ececec"/></linearGradient><linearGradient x1="378.97767" y1="140.71252" x2="374.24806" y2="175.54701" gradientUnits="userSpaceOnUse" id="color-5"><stop offset="0" stop-color="#ffffff"/><stop offset="1" stop-color="#ececec"/></linearGradient><linearGradient x1="255.20743" y1="111.39552" x2="253.21429" y2="146.49308" gradientUnits="userSpaceOnUse" id="color-6"><stop offset="0" stop-color="#ffffff"/><stop offset="1" stop-color="#ececec"/></linearGradient><linearGradient x1="261.43111" y1="141.85664" x2="268.55682" y2="176.281" gradientUnits="userSpaceOnUse" id="color-7"><stop offset="0" stop-color="#ffffff"/><stop offset="1" stop-color="#ececec"/></linearGradient><linearGradient x1="320.81128" y1="75.89275" x2="320.81128" y2="182.32838" gradientUnits="userSpaceOnUse" id="color-8"><stop offset="0" stop-color="#ffffff"/><stop offset="1" stop-color="#ececec"/></linearGradient><linearGradient x1="255.20743" y1="111.39552" x2="253.21429" y2="146.49308" gradientUnits="userSpaceOnUse" id="color-9"><stop offset="0" stop-color="#ffffff"/><stop offset="1" stop-color="#ececec"/></linearGradient><linearGradient x1="383.7505" y1="112.22412" x2="385.74364" y2="147.32167" gradientUnits="userSpaceOnUse" id="color-10"><stop offset="0" stop-color="#ffffff"/><stop offset="1" stop-color="#ececec"/></linearGradient><linearGradient x1="378.97767" y1="140.71252" x2="374.24806" y2="175.54701" gradientUnits="userSpaceOnUse" id="color-11"><stop offset="0" stop-color="#ffffff"/><stop offset="1" stop-color="#ececec"/></linearGradient><linearGradient x1="261.43111" y1="141.85664" x2="268.55682" y2="176.281" gradientUnits="userSpaceOnUse" id="color-12"><stop offset="0" stop-color="#ffffff"/><stop offset="1" stop-color="#ececec"/></linearGradient><linearGradient x1="261.74394" y1="141.85664" x2="268.86966" y2="176.281" gradientUnits="userSpaceOnUse" id="color-13"><stop offset="0" stop-color="#ffffff"/><stop offset="1" stop-color="#ececec"/></linearGradient></defs><g transform="translate(-223.33042,-28.65414)"><g stroke-miterlimit="10"><g stroke="#000000" stroke-width="2.5" stroke-linecap="butt"><path d="M273.25757,344.37249c0,0 -0.89785,-62.82627 -1.27756,-89.3957c-0.30546,-21.37401 -4.28899,-62.75758 -4.28899,-62.75758c0,0 10.00958,-20.87834 19.70323,-21.40931c9.62658,-0.52728 32.44435,-1.37988 52.37508,-2.47158c21.61722,-1.18407 30.37165,18.68252 30.37165,18.68252l-1.78505,159.75678z" fill="url(#color-1)"/><path d="M337.36374,178.2689c0,8.53044 -7.90318,15.44572 -17.65225,15.44572c-9.74907,0 -17.65225,-6.91528 -17.65225,-15.44572c0,-8.53044 7.90318,-15.44572 17.65225,-15.44572c9.74907,0 17.65225,6.91528 17.65225,15.44572z" fill="#ffffff"/><path d="M368.4954,189.69854c0,8.53044 1.33317,16.31127 -2.36084,16.31127c-3.69401,0 -11.01637,-7.78083 -11.01637,-16.31127c0,-8.53044 -1.04465,-14.86869 2.64937,-14.86869c3.69401,0 10.72784,6.33825 10.72784,14.86869z" fill="#ffffff"/><path d="M280.67866,176.61504c3.69401,0 2.64937,6.33825 2.64937,14.86869c0,8.53044 -7.32235,16.31127 -11.01637,16.31127c-3.69401,0 -2.36084,-7.78083 -2.36084,-16.31127c0,-8.53044 7.03382,-14.86869 10.72784,-14.86869z" fill="#ffffff"/></g><g stroke="#000000" stroke-width="2.5"><path d="M270.19854,116.01637l-17.39493,-83.52183l68.7925,52.17006z" fill="url(#color-2)" stroke-linecap="butt"/><path d="M320.4065,83.83718l68.7925,-52.17006l-17.39493,83.52183z" fill="url(#color-3)" stroke-linecap="butt"/><path d="M369.37664,113.0404c5.92744,1.12921 7.84527,4.48364 13.29649,7.27538c7.96798,4.08064 12.0248,12.67379 13.95763,21.89186c0.30475,1.45343 0.0654,7.70917 0.0654,7.70917c0,0 -4.24163,-1.30835 -7.00313,-1.5395c-6.55999,-0.54911 -8.36736,-2.31839 -14.95068,-1.94453c-1.54372,0.08766 -7.82788,0.99597 -8.97872,0.2314c-1.36179,-0.90471 -1.24067,-6.3275 -1.3264,-7.8162c-0.4472,-7.76545 0.52524,-18.36092 4.31831,-25.34803z" fill="url(#color-4)" stroke-linecap="round"/><path d="M364.71154,138.77556c5.60377,2.23774 12.23868,4.39257 17.05823,8.17166c7.04467,5.52385 8.586,16.22969 8.72735,25.64715c0.02229,1.48487 -1.40442,7.58044 -1.40442,7.58044c0,0 -3.11054,-3.58965 -5.77744,-4.34265c-6.33524,-1.78876 -13.16369,-2.36642 -19.69767,-3.25356c-1.53215,-0.20802 -7.87427,-0.51352 -8.85838,-1.48333c-1.16449,-1.14757 -0.01253,-6.44797 0.18691,-7.92574c1.04035,-7.70844 4.01346,-17.92459 9.06815,-24.06115z" fill="url(#color-5)" stroke-linecap="round"/><path d="M270.20238,112.67135c3.79307,6.98711 4.76552,17.58257 4.31832,25.34803c-0.08573,1.4887 0.03538,6.91149 -1.3264,7.8162c-1.15084,0.76457 -7.43501,-0.14373 -8.97873,-0.2314c-6.58331,-0.37385 -6.24521,2.46816 -12.8052,3.01726c-2.76151,0.23116 -10.93648,-0.24839 -10.93648,-0.24839c0,0 -0.23935,-6.25573 0.0654,-7.70916c1.93283,-9.21807 2.77146,-19.5991 10.73944,-23.67975c5.45122,-2.79174 12.37513,-3.64312 18.30257,-4.77234z" fill="url(#color-6)" stroke-linecap="round"/><path d="M276.24784,139.22223c5.46669,5.77256 9.13875,15.75882 10.70934,23.37692c0.3011,1.46045 1.81662,6.66857 0.73422,7.89387c-0.91474,1.03551 -7.22057,1.77857 -8.73468,2.09199c-6.45704,1.33659 -13.22925,2.38478 -19.42572,4.60709c-2.60849,0.93551 -3.47905,6.15623 -3.47905,6.15623c0,0 -1.84457,-5.98241 -1.92495,-7.46526c-0.50983,-9.40471 -1.69651,-21.61616 4.94956,-27.61366c4.54685,-4.10315 11.01698,-6.71136 16.4527,-9.33102z" fill="url(#color-7)" stroke-linecap="round"/><path d="M375.4617,131.33523c-1.94104,28.48816 -27.92848,52.9286 -58.11114,50.8721c-30.18266,-2.05649 -53.13099,-29.83117 -51.18995,-58.31932c1.94104,-28.48815 27.98246,-49.91526 58.16512,-47.85875c30.18266,2.05649 53.07703,26.81782 51.13599,55.30597z" fill="url(#color-8)" stroke-linecap="butt"/><path d="M264.21557,145.60418c-6.58331,-0.37385 -6.24521,2.46816 -12.8052,3.01726c-2.76151,0.23116 -10.93648,-0.24839 -10.93648,-0.24839c0,0 -0.23935,-6.25573 0.0654,-7.70916c1.93283,-9.21807 2.77146,-19.5991 10.73944,-23.67975c5.06828,-2.59562 11.40961,-3.51392 17.03949,-4.5377c7.1134,-22.5567 30.02617,-38.18743 56.00752,-36.41717c30.18266,2.05649 53.07703,26.81782 51.13599,55.30597h-0.00002c-1.94104,28.48816 -27.92848,52.9286 -58.11114,50.8721c-22.11977,-1.50713 -40.35405,-16.8272 -47.75362,-36.11805c-2.11933,-0.1235 -4.50838,-0.43552 -5.38137,-0.4851z" fill="url(#color-9)" stroke-linecap="round"/><path d="M382.67314,120.31578c7.96798,4.08064 12.0248,12.67379 13.95763,21.89186c0.30475,1.45343 0.0654,7.70917 0.0654,7.70917c0,0 -4.24163,-1.30835 -7.00313,-1.5395c-6.55999,-0.54911 -8.36736,-2.31839 -14.95068,-1.94453c-0.51265,0.02911 -1.54808,0.14872 -2.74469,0.26752c-8.3121,21.31474 -30.09118,37.18015 -54.6471,35.50703c-22.11977,-1.50713 -40.35405,-16.8272 -47.75362,-36.11805c-2.11933,-0.1235 -4.50838,-0.43552 -5.38137,-0.4851c-6.58331,-0.37385 -6.24521,2.46816 -12.8052,3.01726c-2.76151,0.23116 -10.93648,-0.24839 -10.93648,-0.24839c0,0 -0.23935,-6.25573 0.0654,-7.70916c1.93283,-9.21807 2.77146,-19.5991 10.73944,-23.67975c5.06828,-2.59562 11.40961,-3.51392 17.03949,-4.5377c7.1134,-22.5567 30.02617,-38.18743 56.00752,-36.41717c23.73825,1.6174 42.96824,17.27912 49.15351,37.75256c4.85083,0.86617 4.96292,4.36714 9.1939,6.53396z" fill="url(#color-10)" stroke-linecap="round"/><path d="M381.76977,146.94722c7.04467,5.52385 8.586,16.22969 8.72735,25.64715c0.02229,1.48487 -1.40442,7.58044 -1.40442,7.58044c0,0 -3.11054,-3.58965 -5.77744,-4.34265c-6.33524,-1.78876 -13.16369,-2.36642 -19.69767,-3.25356c-1.53215,-0.20802 -7.87427,-0.51352 -8.85838,-1.48333c-0.159,-0.1567 -0.27482,-0.39082 -0.35577,-0.68206c-10.1758,8.08052 -23.17059,12.73999 -37.05287,11.79412c-22.11977,-1.50713 -40.35405,-16.8272 -47.75362,-36.11805c-2.11933,-0.1235 -4.50838,-0.43552 -5.38137,-0.4851c-6.58331,-0.37385 -6.24521,2.46816 -12.8052,3.01726c-2.76151,0.23116 -10.93648,-0.24839 -10.93648,-0.24839c0,0 -0.23935,-6.25573 0.0654,-7.70916c1.93283,-9.21807 2.77146,-19.5991 10.73944,-23.67975c5.06828,-2.59562 11.40961,-3.51392 17.03949,-4.5377c7.1134,-22.5567 30.02617,-38.18743 56.00752,-36.41717c23.73825,1.6174 42.96824,17.27912 49.15351,37.75256c4.85083,0.86617 4.96292,4.36714 9.1939,6.53396c7.96798,4.08064 12.0248,12.67379 13.95763,21.89186c0.30475,1.45343 0.0654,7.70917 0.0654,7.70917c0,0 -4.24163,-1.30835 -7.00313,-1.5395c-4.64454,-0.38878 -4.41005,-2.63752 -9.13707,-2.32318c0.41564,0.28751 0.82076,0.5849 1.2138,0.89309z" fill="url(#color-11)" stroke-linecap="round"/><path d="M278.95672,172.58501c-6.45704,1.33659 -13.22925,2.38478 -19.42572,4.60709c-2.60849,0.93551 -3.47905,6.15623 -3.47905,6.15623c0,0 -1.84457,-5.98241 -1.92495,-7.46526c-0.50983,-9.40471 -1.69651,-21.61616 4.94956,-27.61366c1.10861,-1.00043 2.33156,-1.91199 3.62598,-2.75651c-6.11012,-0.38723 -5.23348,2.6014 -11.29219,3.10854c-2.76151,0.23116 -10.93648,-0.24839 -10.93648,-0.24839c0,0 -0.23935,-6.25573 0.0654,-7.70916c1.93283,-9.21807 2.77146,-19.5991 10.73944,-23.67975c5.06828,-2.59562 11.40961,-3.51392 17.03949,-4.5377c7.1134,-22.5567 30.02617,-38.18743 56.00752,-36.41717c23.73825,1.6174 42.96824,17.27912 49.15351,37.75256c4.85083,0.86617 4.96292,4.36714 9.1939,6.53396c7.96798,4.08064 12.0248,12.67379 13.95763,21.89186c0.30475,1.45343 0.0654,7.70917 0.0654,7.70917c0,0 -4.24163,-1.30835 -7.00313,-1.5395c-4.64454,-0.38878 -4.41005,-2.63752 -9.13707,-2.32318c0.41564,0.28751 0.82076,0.5849 1.2138,0.89309c7.04467,5.52385 8.586,16.22969 8.72735,25.64715c0.02229,1.48487 -1.40442,7.58044 -1.40442,7.58044c0,0 -3.11054,-3.58965 -5.77744,-4.34265c-6.33524,-1.78876 -13.16369,-2.36642 -19.69767,-3.25356c-1.53215,-0.20802 -7.87427,-0.51352 -8.85838,-1.48333c-0.159,-0.1567 -0.27482,-0.39082 -0.35577,-0.68206c-10.1758,8.08052 -23.17059,12.73999 -37.05287,11.79412c-11.20712,-0.7636 -21.41684,-5.07298 -29.72533,-11.6481c-1.11678,1.00097 -7.18685,1.71908 -8.6685,2.02578z" fill="url(#color-12)" stroke-linecap="round"/><path d="M279.26956,172.58501c-6.45704,1.33659 -13.22925,2.38478 -19.42572,4.60709c-2.60848,0.93551 -3.47904,6.15623 -3.47904,6.15623c0,0 -1.84457,-5.98241 -1.92495,-7.46526c-0.50983,-9.40471 -1.69652,-21.61616 4.94956,-27.61366c1.10861,-1.00043 2.33156,-1.91199 3.62597,-2.75651c-6.11012,-0.38723 -5.23348,2.6014 -11.29218,3.10854c-2.76151,0.23116 -10.93648,-0.24839 -10.93648,-0.24839c0,0 -0.23935,-6.25573 0.0654,-7.70916c1.93283,-9.21807 2.77146,-19.5991 10.73944,-23.67975c5.06828,-2.59562 11.4096,-3.51392 17.03948,-4.5377c7.1134,-22.5567 30.02617,-38.18743 56.00752,-36.41717c23.73825,1.6174 42.96825,17.27912 49.15351,37.75256c4.85083,0.86617 4.96292,4.36714 9.1939,6.53396c7.96798,4.08064 12.0248,12.67379 13.95763,21.89186c0.30475,1.45343 0.0654,7.70917 0.0654,7.70917c0,0 -4.24163,-1.30835 -7.00313,-1.5395c-4.64454,-0.38878 -4.41005,-2.63752 -9.13706,-2.32318c0.41564,0.28751 0.82076,0.5849 1.2138,0.89309c7.04467,5.52385 8.586,16.22969 8.72735,25.64715c0.02229,1.48487 -1.40442,7.58044 -1.40442,7.58044c0,0 -3.11054,-3.58965 -5.77744,-4.34265c-6.33524,-1.78876 -13.16369,-2.36642 -19.69767,-3.25356c-1.53215,-0.20802 -7.87427,-0.51352 -8.85838,-1.48333c-0.159,-0.1567 -0.27482,-0.39082 -0.35577,-0.68206c-10.1758,8.08052 -23.1706,12.73999 -37.05288,11.79412c-11.20712,-0.7636 -21.41683,-5.07298 -29.72533,-11.6481c-1.11678,1.00097 -7.18685,1.71908 -8.6685,2.02578z" fill="url(#color-13)" stroke-linecap="round"/><path d="M372.59876,108.76235c0,-5.49814 8.8302,-9.72523 13.26718,-10.64989c12.03224,-2.50749 27.34354,1.11586 36.44065,9.68075" fill="none" stroke-linecap="round"/><path d="M372.59876,112.2035c10.09425,-6.72951 34.19733,3.38848 40.66369,12.19429" fill="none" stroke-linecap="round"/><path d="M224.58042,97.32818c2.88759,-1.88161 5.99167,-4.80057 9.45672,-5.45877c10.24564,-1.94622 21.24807,6.08276 29.10009,11.48437c2.76568,1.90258 6.54603,4.16683 8.41663,6.97273" fill="none" stroke-linecap="round"/><path d="M235.32875,114.29609c1.14404,-1.75337 2.55619,-4.26676 4.42312,-5.32728c2.23248,-1.26818 6.48355,-0.58897 8.92297,-0.30788c6.5538,0.7552 13.37572,1.01034 19.7507,2.60408" fill="none" stroke-linecap="round"/></g><path d="M286.47255,156.73743l-5.68622,1.13725" fill="none" stroke="#000000" stroke-width="2.5" stroke-linecap="round"/><path d="M358.62159,159.70258l-18.87823,5.68622l-21.38016,-3.18428l-16.8312,3.86662l-17.51353,-7.9607" fill="none" stroke="#000000" stroke-width="2.5" stroke-linecap="round"/><path d="M334.34452,126.22647c0,2.70884 -6.65243,4.90479 -14.85862,4.90479c-8.2062,0 -14.85862,-2.19595 -14.85862,-4.90479c0,-2.70884 6.65243,-4.90479 14.85862,-4.90479c8.2062,0 14.85862,2.19595 14.85862,4.90479z" fill-opacity="0.18431" fill="#ff0505" stroke="none" stroke-width="0" stroke-linecap="butt"/><path d="M298.35181,122.73501c0,2.23486 -1.98847,4.04658 -4.44137,4.04658c-2.4529,0 -4.44137,-1.81172 -4.44137,-4.04658c0,-2.23487 1.98847,-4.04659 4.44137,-4.04659c2.4529,0 4.44137,1.81172 4.44137,4.04659z" fill="#ffffff" stroke="#000000" stroke-width="2.5" stroke-linecap="butt"/><path d="M348.13989,122.98097c0,2.23486 -1.98847,4.04658 -4.44137,4.04658c-2.4529,0 -4.44137,-1.81172 -4.44137,-4.04658c0,-2.23487 1.98847,-4.04659 4.44137,-4.04659c2.4529,0 4.44137,1.81172 4.44137,4.04659z" fill="#ffffff" stroke="#000000" stroke-width="2.5" stroke-linecap="butt"/><path d="M357.12135,156.61503l4.54898,2.72938" fill="none" stroke="#000000" stroke-width="2.5" stroke-linecap="round"/></g></g></svg>