<svg version="1.1" xmlns="http://www.w3.org/2000/svg" xmlns:xlink="http://www.w3.org/1999/xlink" width="35.17311" height="35.17311" viewBox="0,0,35.17311,35.17311"><g transform="translate(-222.41347,-162.41347)"><g data-paper-data="{&quot;isPaintingLayer&quot;:true}" stroke-miterlimit="10" stroke-dasharray="" stroke-dashoffset="0" style="mix-blend-mode: normal"><path d="M229.98314,162.91348h20.03379c3.9166,0 7.06966,3.15307 7.06966,7.06966v20.03379c0,3.91659 -3.15306,7.06966 -7.06966,7.06966h-20.03379c-3.91659,0 -7.06966,-3.15307 -7.06966,-7.06966v-20.03379c0,-3.91659 3.15307,-7.06966 7.06966,-7.06966z" fill="#000000" fill-rule="evenodd" stroke="#ffffff" stroke-width="1" stroke-linecap="round" stroke-linejoin="round"/><path d="M229.98315,162.91349h20.03378c3.9166,0 7.06966,3.15307 7.06966,7.06966v20.03379c0,3.91659 -3.15306,7.06966 -7.06966,7.06966h-20.03378c-3.91659,0 -7.06967,-3.15307 -7.06967,-7.06966v-20.03379c0,-3.91659 3.15308,-7.06966 7.06967,-7.06966z" fill="#ffffff" fill-rule="evenodd" stroke="none" stroke-width="4.43922" stroke-linecap="round" stroke-linejoin="round"/><path d="M255.06253,193.56254c-1.5,0 -1.5,-1.5 -1.5,-1.5v-0.25c0.00422,-5.09256 -0.37285,-10.168 -0.375,-15.25c-0.00055,-1.30919 0.67911,-5.35848 -0.45455,-5.80076c-2.83571,-1.50787 -1.62474,4.68116 -2.90296,5.9029c-0.47223,0.45137 -3.29235,0.77002 -4.04738,0.88162c-3.40012,0.50258 -6.74031,0.27598 -10.15777,0.38995c-1.52462,0.05085 -2.82214,0.51497 -4.16293,-0.85453c-1.49476,-1.52677 -0.93527,-5.52283 -1.20657,-7.46898c-0.54456,0.05488 -2.21043,-0.2512 -2.54867,0.05039c-0.47259,0.42138 -0.02362,1.26626 -0.01917,1.89942c0.01035,1.47485 -0.06334,2.96423 -0.00129,4.43766c0.24218,5.75122 0.53259,11.48314 0.87371,17.22426c0,0 0.08808,1.49741 -1.40933,1.5855c-1.49741,0.08809 -1.58549,-1.40932 -1.58549,-1.40932c-0.36449,-6.26324 -0.87493,-12.55482 -0.87759,-18.83809c-0.00084,-1.98472 -0.64004,-5.56519 0.98082,-7.10058c1.62396,-1.53833 4.6973,-0.63249 6.45133,-0.19961c1.06845,2.18611 1.14396,3.3166 1.4313,5.61445c0.08973,0.71757 -0.32514,1.59059 0.11213,2.16657c0.15859,0.2089 3.58704,-0.1058 3.64942,-0.10583c2.7053,-0.00106 5.34745,0.03958 8.02989,-0.35876c0.80962,-0.12023 1.81996,0.40093 2.45262,-0.11838c0.52111,-0.42774 -0.04001,-1.35117 0.02267,-2.02243c0.15093,-1.61649 0.04422,-2.71152 1.46887,-3.9697c2.12476,-1.87649 2.61583,-1.10003 4.8555,-0.35497c2.81636,2.26179 2.04695,5.05007 2.04545,8.44924c-0.00224,5.07785 0.37041,10.16125 0.375,15.25v0.25c0,0 0,1.5 -1.5,1.5z" fill="#000000" fill-rule="nonzero" stroke="none" stroke-width="0.5" stroke-linecap="butt" stroke-linejoin="miter"/></g></g></svg>