<svg version="1.1" xmlns="http://www.w3.org/2000/svg" xmlns:xlink="http://www.w3.org/1999/xlink" width="139.93172" height="315.4625" viewBox="0,0,139.93172,315.4625"><defs><linearGradient x1="352.53299" y1="134.46738" x2="352.70509" y2="194.75956" gradientUnits="userSpaceOnUse" id="color-1"><stop offset="0" stop-color="#13d927"/><stop offset="1" stop-color="#277516"/></linearGradient><linearGradient x1="336.49783" y1="142.01845" x2="336.67392" y2="203.70911" gradientUnits="userSpaceOnUse" id="color-2"><stop offset="0" stop-color="#13d927"/><stop offset="1" stop-color="#277516"/></linearGradient><linearGradient x1="325.72151" y1="152.90782" x2="325.88049" y2="208.60497" gradientUnits="userSpaceOnUse" id="color-3"><stop offset="0" stop-color="#13d927"/><stop offset="1" stop-color="#277516"/></linearGradient><linearGradient x1="315.04888" y1="146.03472" x2="315.20957" y2="202.32961" gradientUnits="userSpaceOnUse" id="color-4"><stop offset="0" stop-color="#13d927"/><stop offset="1" stop-color="#277516"/></linearGradient><linearGradient x1="271.61929" y1="130.05637" x2="271.79216" y2="190.62148" gradientUnits="userSpaceOnUse" id="color-5"><stop offset="0" stop-color="#13d927"/><stop offset="1" stop-color="#277516"/></linearGradient><linearGradient x1="287.71031" y1="142.08258" x2="287.88725" y2="204.07317" gradientUnits="userSpaceOnUse" id="color-6"><stop offset="0" stop-color="#13d927"/><stop offset="1" stop-color="#277516"/></linearGradient><linearGradient x1="298.55758" y1="156.05131" x2="298.71708" y2="211.93213" gradientUnits="userSpaceOnUse" id="color-7"><stop offset="0" stop-color="#13d927"/><stop offset="1" stop-color="#277516"/></linearGradient><linearGradient x1="309.19951" y1="152.16737" x2="309.36066" y2="208.62371" gradientUnits="userSpaceOnUse" id="color-8"><stop offset="0" stop-color="#13d927"/><stop offset="1" stop-color="#277516"/></linearGradient><linearGradient x1="313.42709" y1="161.1038" x2="319.95589" y2="353.9191" gradientUnits="userSpaceOnUse" id="color-9"><stop offset="0" stop-color="#4d9ebf"/><stop offset="1" stop-color="#9087d9"/></linearGradient><linearGradient x1="270.84261" y1="225.71748" x2="267.77165" y2="244.28556" gradientUnits="userSpaceOnUse" id="color-10"><stop offset="0" stop-color="#4d9ebf"/><stop offset="1" stop-color="#9087d9"/></linearGradient><linearGradient x1="271.30915" y1="222.23105" x2="270.68162" y2="235.10587" gradientUnits="userSpaceOnUse" id="color-11"><stop offset="0" stop-color="#4d9ebf"/><stop offset="1" stop-color="#9087d9"/></linearGradient><linearGradient x1="361.03163" y1="234.80776" x2="367.88471" y2="250.57524" gradientUnits="userSpaceOnUse" id="color-12"><stop offset="0" stop-color="#4d9ebf"/><stop offset="1" stop-color="#9087d9"/></linearGradient><linearGradient x1="359.85148" y1="231.79424" x2="363.14869" y2="243.44954" gradientUnits="userSpaceOnUse" id="color-13"><stop offset="0" stop-color="#4d9ebf"/><stop offset="1" stop-color="#9087d9"/></linearGradient><linearGradient x1="315.10696" y1="158.67821" x2="321.80404" y2="356.46371" gradientUnits="userSpaceOnUse" id="color-14"><stop offset="0" stop-color="#006927"/><stop offset="1" stop-color="#4c4c4c"/></linearGradient><linearGradient x1="311.94217" y1="72.84621" x2="315.45829" y2="176.68788" gradientUnits="userSpaceOnUse" id="color-15"><stop offset="0" stop-color="#47d90f"/><stop offset="1" stop-color="#53ff10"/></linearGradient><linearGradient x1="279.14031" y1="61.01936" x2="280.75655" y2="143.7742" gradientUnits="userSpaceOnUse" id="color-16"><stop offset="0" stop-color="#13d927"/><stop offset="1" stop-color="#277516"/></linearGradient><linearGradient x1="341.21464" y1="58.25494" x2="342.94123" y2="146.65931" gradientUnits="userSpaceOnUse" id="color-17"><stop offset="0" stop-color="#13d927"/><stop offset="1" stop-color="#277516"/></linearGradient><linearGradient x1="304.95442" y1="61.06588" x2="305.19343" y2="73.30383" gradientUnits="userSpaceOnUse" id="color-18"><stop offset="0" stop-color="#13d927"/><stop offset="1" stop-color="#277516"/></linearGradient><linearGradient x1="279.13755" y1="70.36869" x2="280.67816" y2="149.25129" gradientUnits="userSpaceOnUse" id="color-19"><stop offset="0" stop-color="#13d927"/><stop offset="1" stop-color="#277516"/></linearGradient><linearGradient x1="281.32622" y1="71.23663" x2="282.9897" y2="156.40993" gradientUnits="userSpaceOnUse" id="color-20"><stop offset="0" stop-color="#13d927"/><stop offset="1" stop-color="#277516"/></linearGradient><linearGradient x1="287.41743" y1="73.99796" x2="289.24422" y2="167.53319" gradientUnits="userSpaceOnUse" id="color-21"><stop offset="0" stop-color="#13d927"/><stop offset="1" stop-color="#277516"/></linearGradient><linearGradient x1="343.58588" y1="66.84016" x2="345.2963" y2="154.41705" gradientUnits="userSpaceOnUse" id="color-22"><stop offset="0" stop-color="#13d927"/><stop offset="1" stop-color="#277516"/></linearGradient><linearGradient x1="337.20521" y1="71.97215" x2="338.96305" y2="161.97675" gradientUnits="userSpaceOnUse" id="color-23"><stop offset="0" stop-color="#13d927"/><stop offset="1" stop-color="#277516"/></linearGradient><linearGradient x1="324.55396" y1="43.40802" x2="325.06224" y2="69.43309" gradientUnits="userSpaceOnUse" id="color-24"><stop offset="0" stop-color="#13d927"/><stop offset="1" stop-color="#277516"/></linearGradient><linearGradient x1="308.64823" y1="41.33988" x2="309.19143" y2="69.15255" gradientUnits="userSpaceOnUse" id="color-25"><stop offset="0" stop-color="#13d927"/><stop offset="1" stop-color="#277516"/></linearGradient></defs><g transform="translate(-244.071,-40.36579)"><g stroke-miterlimit="10"><g stroke="#000000" stroke-width="2.5" stroke-linecap="butt"><path d="M352.53301,134.47381c5.62812,0.15151 10.22912,13.76833 10.27664,30.41401c0.04752,16.64567 -4.47647,30.01682 -10.10458,29.8653c-5.62812,-0.15151 -10.22913,-13.76834 -10.27665,-30.41401c-0.04752,-16.64567 4.47647,-30.01682 10.10459,-29.8653z" fill="url(#color-1)"/><path d="M347.39411,173.15475c0.04861,17.0315 -4.75099,30.70799 -10.72021,30.54728c-5.96922,-0.1607 -10.84764,-14.09773 -10.89626,-31.12924c-0.04861,-17.0315 4.751,-30.70798 10.72022,-30.54727c5.96922,0.1607 10.84763,14.09773 10.89625,31.12923z" fill="url(#color-2)"/><path d="M333.82998,180.97256c0.04389,15.37795 -3.51522,27.74747 -7.9495,27.62809c-4.43427,-0.11937 -8.06456,-12.68245 -8.10845,-28.06041c-0.04389,-15.37795 3.51521,-27.74747 7.9495,-27.6281c4.43427,0.11937 8.06456,12.68245 8.10845,28.06041z" fill="url(#color-3)"/><path d="M322.69499,174.38586c0.04436,15.54331 -3.30697,28.05245 -7.48543,27.93997c-4.17846,-0.11249 -7.60172,-12.80402 -7.64609,-28.34733c-0.04436,-15.54331 3.30697,-28.05245 7.48543,-27.93997c4.17846,0.11249 7.60172,12.80402 7.64609,28.34733z" fill="url(#color-4)"/><path d="M281.90289,162.91314c0.04752,16.64567 -4.47941,28.98714 -10.11116,27.56545c-5.63175,-1.4217 -10.23569,-16.06819 -10.2832,-32.71388c-0.04752,-16.64567 4.47941,-28.98714 10.11115,-27.56545c5.63175,1.4217 10.2357,16.0682 10.28321,32.71387z" fill="url(#color-5)"/><path d="M287.71076,142.23962c5.97307,1.50787 10.85461,16.53699 10.90322,33.56849c0.04861,17.0315 -4.75411,29.61589 -10.72718,28.10802c-5.97307,-1.50787 -10.8546,-16.53699 -10.90321,-33.56849c-0.04861,-17.0315 4.7541,-29.61589 10.72717,-28.10802z" fill="url(#color-6)"/><path d="M290.60318,181.96354c-0.04389,-15.37795 3.51754,-26.93621 7.95467,-25.81607c4.43714,1.12013 8.06973,14.49447 8.11362,29.87242c0.04389,15.37795 -3.51754,26.93622 -7.95467,25.81608c-4.43713,-1.12013 -8.06973,-14.49447 -8.11362,-29.87242z" fill="url(#color-7)"/><path d="M309.19975,152.25188c4.18115,1.05551 7.6066,14.5115 7.65096,30.05481c0.04436,15.54331 -3.30915,27.288 -7.49031,26.23249c-4.18115,-1.05551 -7.6066,-14.5115 -7.65096,-30.05481c-0.04436,-15.54331 3.30915,-27.288 7.49031,-26.23249z" fill="url(#color-8)"/></g><path d="M260.75853,193.00686c0,0 6.29442,-27.95034 16.98777,-28.74671c10.61937,-0.79085 35.80485,-2.23709 57.79103,-3.87448c23.84662,-1.77593 32.26753,26.95432 32.26753,26.95432l1.83623,51.81998c-6.97414,3.91128 -6.46807,7.56909 -8.41232,16.59489c-2.28251,10.59608 -1.78589,23.43841 -1.41818,33.67599c0.59408,16.54001 0.94337,33.74242 -1.16349,50.14841c-0.52407,4.0809 -0.87729,8.32371 -0.52316,12.47911l-73.2235,-0.27622c0.05685,-0.87375 0.07115,-1.7584 0.04089,-2.65186c-0.04091,-1.20821 -0.16202,-2.39492 -0.35804,-3.55523c-0.00024,-5.09864 -0.49561,-9.92774 -1.05579,-13.48439c-1.48441,-9.42484 -3.56012,-19.17462 -3.91474,-28.67251c-0.50303,-13.47275 -0.9207,-26.94853 -1.36874,-40.42321c-0.21956,-6.60324 2.23991,-13.26024 0.3248,-19.92454c-0.88506,-3.07986 -1.50564,-6.35313 -3.23481,-9.05458c-3.69901,-5.77889 -7.70944,-9.44727 -13.13101,-11.24057z" fill="url(#color-9)" stroke="#000000" stroke-width="2.5" stroke-linecap="butt"/><path d="M283.08442,238.30923c-0.36379,2.19965 2.74515,3.14566 0.2294,4.01715c-3.34855,1.15998 -12.72462,1.75304 -15.31046,0.77459c-1.20714,-0.45678 -7.85694,-1.70038 -8.82539,-2.49775c-2.66461,-2.19398 -1.43394,-4.45939 -0.81197,-8.22005c0.84802,-5.12744 7.94805,-8.37924 12.4766,-6.66569c4.52856,1.71355 13.08982,7.46431 12.2418,12.59175z" fill="url(#color-10)" stroke="#000000" stroke-width="2.5" stroke-linecap="butt"/><path d="M282.75816,221.61713c-0.15369,3.15329 2.61589,12.71215 -1.48239,11.89897c-0.52246,-0.10367 -8.80684,-2.6865 -9.38256,-2.76593c-5.09181,-0.70239 -13.42301,-2.83129 -13.24972,-6.38657c0.17329,-3.55529 7.57385,-2.83495 12.66567,-2.13255c5.09181,0.70239 11.6223,-4.16922 11.44901,-0.61393z" fill="url(#color-11)" stroke="#000000" stroke-width="2.5" stroke-linecap="butt"/><path d="M361.03163,234.80776c4.02824,-3.76966 11.5843,-4.16477 13.47673,0.18931c1.38798,3.19345 3.05317,4.70543 0.93064,8.02471c-0.77142,1.20637 -6.95237,5.5599 -8.02615,6.56475c-2.30015,2.1525 -11.50532,6.11162 -14.9909,6.64498c-2.61869,0.40071 0.19489,-1.97329 -0.61695,-3.84117c-1.89242,-4.35407 5.19841,-13.81292 9.22663,-17.58258z" fill="url(#color-12)" stroke="#000000" stroke-width="2.5" stroke-linecap="butt"/><path d="M359.85148,231.79424c4.785,-3.10149 11.80242,-7.33017 12.71293,-4.11165c0.9105,3.21853 -6.71405,9.203 -11.49906,12.3045c-0.54104,0.35068 -8.02543,6.73423 -8.50981,7.08181c-3.79957,2.7265 -3.1138,-7.48321 -3.92135,-10.33783c-0.9105,-3.21853 6.43228,-1.83533 11.2173,-4.93683z" fill="url(#color-13)" stroke="#000000" stroke-width="2.5" stroke-linecap="butt"/><path d="M280.16706,160.45186c0.51738,-2.17449 1.47806,2.1958 3.5191,1.37972c1.65397,-0.66132 9.89945,6.48109 10.26203,7.58179c1.09752,3.33182 -1.18997,17.21493 2.57764,17.38375c5.19302,0.23269 10.58354,-0.93996 15.7391,-0.4277c4.21121,0.41843 8.17033,0.84663 12.46934,0.70234c1.91602,-0.06431 7.97045,0.76794 9.4424,-0.31697c0.73678,-0.54305 0.24392,-2.36335 0.3222,-3.0788c0.67539,-6.17311 -2.63903,-14.77423 4.813,-15.02781c1.39893,-0.0476 2.44667,-4.90576 3.80427,-4.59543c0.97386,0.22261 4.37996,-0.14232 5.01696,0.59005c2.21624,2.54808 2.05726,14.83309 2.65474,18.00478c2.05719,10.92053 3.12762,20.84958 2.24026,31.9075c-1.31391,16.37329 4.29549,27.19333 6.52612,42.99656c2.30926,16.36033 -2.68213,38.2263 -2.13511,54.38155c0.3737,11.03657 1.50781,22.42913 0.63482,33.3818c-0.15309,1.92069 1.0054,7.96903 -0.81161,9.24065c-2.74917,1.92397 -10.38337,-0.06607 -13.58968,0.02313c-13.58598,0.37794 -27.23804,-0.21297 -40.89419,0.24543c-2.59314,0.08705 -14.1675,0.75629 -15.18872,-1.42305c-1.81535,-3.87403 0.30308,-9.45892 -0.69232,-13.55763c-0.39177,-1.61318 -1.73003,-3.0169 -2.35415,-4.52056c-0.90965,-2.19156 -0.61502,-4.83573 -1.30558,-7.07598c-1.60431,-5.20452 0.51228,-11.41502 -0.67596,-16.70656c-1.43647,-6.39706 -5.19642,-12.91485 -4.05715,-20.07736c1.01392,-6.37453 3.72618,-12.59211 3.82943,-19.15171c0.28469,-18.08755 -0.63614,-36.15515 -1.24903,-54.25521c-0.27968,-8.25978 -3.3599,-46.33921 -1.8082,-49.94601" fill="url(#color-14)" stroke="#000000" stroke-width="2.5" stroke-linecap="round"/><path d="M368.39675,121.46417c0.94355,27.86591 -22.44449,54.2001 -52.67995,55.21504c-30.23547,1.01494 -55.86879,-23.67371 -56.81234,-51.5396c-0.94355,-27.8659 22.80225,-51.27845 53.03771,-52.29339c30.23547,-1.01494 55.51104,20.75206 56.45459,48.61796z" fill="url(#color-15)" stroke="#000000" stroke-width="2.5" stroke-linecap="butt"/><path d="M270.2888,122.83353c-1.08648,6.9879 -4.52353,12.19876 -5.99466,17.62134c-2.65098,9.77162 -3.67901,17.35001 -6.85654,16.80658c-4.94084,-0.84501 -5.82768,-17.52161 -2.78334,-37.10184c1.51702,-9.75707 4.9171,-26.88866 18.98446,-36.50522c14.16267,-9.68172 36.73854,-12.20031 39.2173,-11.77638c3.28924,0.56254 -40.93103,22.06119 -41.00616,32.80704c-0.03773,5.39577 -0.54341,11.60327 -1.56106,18.14851z" fill="#48d957" stroke="#000000" stroke-width="2.5" stroke-linecap="butt"/><g stroke-linecap="butt"><path d="M261.71965,110.47487c-2.50767,6.0529 -6.94793,10.12269 -9.50839,14.7136c-4.61397,8.27293 2.26513,20.5194 -0.7316,19.49753c-4.65972,-1.58894 -9.71007,-22.33994 -2.68351,-39.30026c3.50142,-8.45155 16.25959,-34.41253 32.01192,-40.61817c8.58369,-3.38155 24.50413,-6.26291 30.68584,-3.38793c5.23955,2.43681 1.33756,10.44557 2.41,10.81129c3.10207,1.05779 -44.61003,12.77317 -46.90502,22.35078c-1.15237,4.80917 -2.93044,10.26373 -5.27926,15.93317z" fill="url(#color-16)" stroke="#000000" stroke-width="2.5"/><path d="M362.93234,90.90799c-2.15387,-5.7304 -15.01993,-9.67988 -29.95702,-13.53867c-8.57529,-2.2153 -22.55601,-2.12744 -21.37226,-2.53109c0.34772,-0.11857 -2.32617,-2.37962 -5.07774,-5.14791c-0.72968,-0.73411 -1.46482,-1.50388 -2.15052,-2.27885c-2.70648,-3.05877 -4.64281,-6.1982 -2.43329,-7.54322c2.82207,-1.71789 10.46723,3.61866 13.7807,3.64678c8.39165,0.07122 30.3461,7.4515 38.86816,10.05589c17.58699,5.37468 20.36702,28.46076 24.95148,36.37181c9.19995,15.87572 -3.80272,34.11254 -8.67817,35.77501c-0.77532,0.26437 -0.32609,-9.20656 -0.25082,-10.02274c0.22913,-2.48458 7.47608,-8.07193 3.1346,-13.87154c-3.20066,-4.27564 -0.31501,-10.29187 -3.59833,-15.95769c-3.07533,-5.30689 -5.51437,-10.42849 -7.2168,-14.95778z" fill="url(#color-17)" stroke="#000000" stroke-width="2.5"/><path d="M298.09421,63.26679c-0.13759,-0.15833 -0.23424,-0.37883 -0.24023,-0.68586c-0.02207,-1.12988 1.22758,-1.17183 1.22758,-1.17183c2.87646,-0.09654 8.11765,-1.05041 10.45201,0.90551c0.8154,0.68322 1.42718,1.92531 1.91614,3.27797l0.30192,0.02394c0.62619,0.04135 1.12167,0.50405 1.13303,1.08572c0.00918,0.46999 -0.30032,0.8836 -0.74854,1.06905c0.268,0.94427 0.49652,1.82573 0.71361,2.48884c0.22744,0.69477 0.89177,1.52132 0.45128,2.13888c-0.78731,1.10381 -5.41193,0.66421 -6.64515,0.56833c-0.43209,-0.03739 -0.90225,-0.08364 -1.3943,-0.1432l-1.12321,0.23152c-0.51777,-0.3061 -1.30945,-0.44764 -1.83139,-0.75125c-1.694,-0.41569 -3.29022,-1.06572 -4.21804,-2.10644c-1.56399,-1.7543 -1.92028,-5.23723 0.00528,-6.9312zM307.80794,63.98126c-0.00347,-0.00316 -0.00694,-0.0063 -0.01043,-0.00944c-0.54262,-0.48893 -1.59896,-0.66909 -2.81188,-0.69787c0.03939,0.03682 0.07594,0.07612 0.10941,0.11766c1.03924,0.0269 2.00601,0.2141 2.71292,0.58964zM299.87565,68.09307c-0.14418,-0.12255 -0.27288,-0.2436 -0.38685,-0.36303c0.10068,0.26517 0.2273,0.51888 0.37571,0.75004c-0.01955,-0.09537 -0.02311,-0.19397 -0.00758,-0.29607c0.00469,-0.03086 0.01096,-0.06117 0.01873,-0.09093z" fill="url(#color-18)" stroke="none" stroke-width="0.5"/><path d="M261.75951,112.51631c-2.4959,6.65604 -6.92843,11.122 -9.47998,16.16814c-4.59795,9.09326 2.30578,22.60056 -0.69317,21.46525c-4.66317,-1.76532 -9.75481,-24.63029 -2.76125,-43.28061c3.48497,-9.29369 8.50336,-25.41108 24.24451,-32.19036c15.8478,-6.82524 38.46261,-5.02358 40.80207,-4.13794c3.10437,1.17521 -44.58778,13.9126 -46.86402,24.45024c-1.14296,5.29123 -2.91038,11.29093 -5.24817,17.52531z" fill="url(#color-19)" stroke="#000000" stroke-width="2.5"/><path d="M269.13048,122.84923c-1.18633,6.98925 -4.69734,12.20111 -6.24582,17.62475c-2.79039,9.77351 -3.92674,17.35337 -7.09587,16.80982c-4.92779,-0.84519 -5.57565,-17.52502 -2.25152,-37.10905c1.65644,-9.75896 1.5369,-28.62454 15.73922,-38.24292c3.69586,-2.50298 7.27717,-6.9808 11.59207,-8.59935c12.37865,-4.64331 29.71732,-1.76296 31.55053,-1.44855c3.28054,0.56266 -41.23899,22.06537 -41.46798,32.8133c-0.11498,5.39681 -0.70946,11.60552 -1.82063,18.15203z" fill="url(#color-20)" stroke="#000000" stroke-width="2.5"/><path d="M278.38584,131.76021c0.13815,7.07343 -2.58861,12.8863 -3.15794,18.50393c-1.02593,10.12309 -0.71425,17.76343 -4.23897,17.88172c-5.4807,0.18394 -9.55888,-15.98373 -9.94597,-35.8036c-0.1929,-9.87648 0.26175,-27.36863 13.61488,-39.67893c13.44359,-12.39372 37.29159,-19.48872 40.04119,-19.58101c3.64863,-0.12246 -39.96137,30.01519 -38.03005,40.5656c0.96977,5.29764 1.58743,11.48696 1.71683,18.11229z" fill="url(#color-21)" stroke="#000000" stroke-width="2.5"/><path d="M356.47078,100.52043c-1.02774,-6.43276 -12.36075,-12.53625 -25.64259,-18.84681c-7.62502,-3.62286 -20.69103,-5.58037 -19.51677,-5.83756c1.25853,-0.27564 10.82457,-9.75943 19.25352,-8.35061c7.82135,1.30726 13.58372,9.27478 21.09232,13.30514c15.49551,8.31745 21.36609,24.28613 24.28874,33.40318c5.8651,18.29585 -10.65302,38.63319 -15.48939,39.69241c-3.11034,0.68119 5.23388,-10.44385 1.17134,-19.51432c-2.25444,-5.03351 1.10729,-10.29684 -0.98588,-16.82637c-1.96056,-6.11589 -3.35894,-11.94064 -4.17127,-17.02504z" fill="url(#color-22)" stroke="#000000" stroke-width="2.5"/><path d="M349.7729,112.09585c0.9745,-6.22274 -9.13862,-15.3399 -21.26188,-25.25163c-6.95989,-5.69026 -20.25371,-11.53984 -18.91964,-11.41163c1.42982,0.13742 14.67511,-5.59945 23.20405,-1.69185c7.91413,3.62592 11.49124,12.72591 18.19594,18.75405c13.83652,12.4403 14.95461,28.91725 15.13574,38.19141c0.17668,9.04638 -4.16972,12.17518 -6.72339,17.59475c-2.7,5.73012 -3.69311,13.48731 -6.51693,13.21594c-3.53366,-0.3396 -1.86644,-6.33712 -3.27727,-15.92212c-0.78293,-5.31903 -0.73954,-9.9175 -0.86926,-16.55953c-0.1215,-6.22127 0.2624,-12.00097 1.03265,-16.91938z" fill="url(#color-23)" stroke="#000000" stroke-width="2.5"/><path d="M329.53149,58.87113c-3.82569,7.17244 -9.04177,11.88969 -11.65043,10.53628c-2.60867,-1.35342 -1.62206,-8.26499 2.20363,-15.43743c3.82569,-7.17244 9.04178,-11.88969 11.65043,-10.53627c2.60866,1.35341 1.62206,8.26499 -2.20363,15.43742z" fill="url(#color-24)" stroke="#000000" stroke-width="2.5"/><path d="M313.94174,53.31655c2.82389,7.52788 2.86471,14.49436 0.09119,15.56009c-2.77353,1.06572 -7.31112,-4.17289 -10.13501,-11.70076c-2.82389,-7.52788 -2.86471,-14.49436 -0.09119,-15.56009c2.77353,-1.06572 7.31112,4.17289 10.13501,11.70076z" fill="url(#color-25)" stroke="#000000" stroke-width="2.5"/></g><g stroke="#000000" stroke-width="2.5" stroke-linecap="butt"><path d="M356.57604,71.62899c6.03777,10.34155 7.94599,20.45353 4.2621,22.58574c-3.68387,2.13222 -11.56483,-4.52277 -17.60261,-14.86432c-6.03777,-10.34155 -7.94599,-20.45354 -4.26211,-22.58576c3.68387,-2.13222 11.56484,4.52279 17.60262,14.86434z" fill="#ff00e7"/><path d="M353.85111,82.09135c-10.32435,6.11685 -20.46027,8.11989 -22.63922,4.47389c-2.17895,-3.64599 4.42417,-11.56035 14.74853,-17.67719c10.32435,-6.11685 20.46029,-8.1199 22.63923,-4.4739c2.17895,3.64599 -4.42419,11.56036 -14.74854,17.6772z" fill="#ff00e7"/><path d="M352.08626,68.12085c11.52414,3.38062 19.89006,9.42031 18.68581,13.48999c-1.20425,4.06969 -11.52264,4.6283 -23.04679,1.24767c-11.52414,-3.38062 -19.89007,-9.42032 -18.68582,-13.49c1.20425,-4.06969 11.52265,-4.62829 23.04681,-1.24766z" fill="#ff00e7"/><path d="M357.32848,77.58544c-3.27755,11.50817 -9.2578,19.89908 -13.35725,18.74163c-4.09944,-1.15745 -4.76575,-11.42496 -1.4882,-22.93314c3.27755,-11.50817 9.25781,-19.89909 13.35726,-18.74164c4.09944,1.15745 4.76573,11.42498 1.48818,22.93314z" fill="#ff00e7"/><path d="M357.03615,78.61191c-1.11405,3.91164 -5.34042,6.14435 -9.43988,4.98691c-4.09945,-1.15745 -6.51961,-5.26676 -5.40555,-9.17841c1.11405,-3.91164 5.34042,-6.14435 9.43988,-4.98691c4.09945,1.15745 6.51961,5.26676 5.40555,9.17841z" fill="#ffe300"/></g><path d="M344.6039,115.75187c0.0753,2.22394 -1.851,4.0935 -4.3025,4.17579c-2.45151,0.08229 -4.4999,-1.65385 -4.5752,-3.87778c-0.0753,-2.22393 1.851,-4.0935 4.3025,-4.17579c2.45151,-0.08229 4.4999,1.65385 4.5752,3.87778z" fill="#ffffff" stroke="#000000" stroke-width="2.5" stroke-linecap="butt"/><path d="M292.46738,117.83039c0.0753,2.22393 -1.851,4.0935 -4.3025,4.17579c-2.45151,0.08229 -4.4999,-1.65385 -4.5752,-3.87778c-0.0753,-2.22394 1.851,-4.09351 4.3025,-4.1758c2.45151,-0.08229 4.4999,1.65385 4.5752,3.87779z" fill="#ffffff" stroke="#000000" stroke-width="2.5" stroke-linecap="butt"/><path d="M329.53423,120.60461c0.09127,2.69558 -6.48339,5.10398 -14.68492,5.37929c-8.20154,0.27531 -14.92417,-1.68671 -15.01544,-4.38231c-0.09127,-2.69558 6.48339,-5.10398 14.68492,-5.37929c8.20154,-0.27531 14.92417,1.68671 15.01544,4.38231z" fill-opacity="0.18431" fill="#ff0505" stroke="none" stroke-width="0" stroke-linecap="butt"/><path d="M349.80903,109.37758c0.70177,1.02996 -0.33267,1.72868 -0.33267,1.72868l-0.62017,0.4097c-1.16106,0.60977 -3.04997,2.16886 -4.26318,2.40968c-1.51233,0.30022 -2.78947,-0.89178 -4.19582,-1.13855c0,0 -1.22767,-0.23421 -0.99244,-1.45657c0.23523,-1.22235 1.4629,-0.98814 1.4629,-0.98814c0.50038,0.10108 2.82994,1.28089 3.2204,1.14538c1.13799,-0.39493 2.47554,-1.58188 3.60168,-2.17344l0.38311,-0.26798c0,0 1.03442,-0.69873 1.73618,0.33123z" fill="#000000" stroke="none" stroke-width="0.5" stroke-linecap="butt"/><path d="M297.0492,111.25985c0.66275,1.05525 -0.3971,1.71513 -0.3971,1.71513l-0.21937,0.13659c-2.88853,1.78133 -5.30531,2.33428 -8.59485,1.57925c0,0 -1.21805,-0.27957 -0.93727,-1.49235c0.28079,-1.21278 1.49884,-0.93321 1.49884,-0.93321c2.63042,0.60375 4.36017,0.21443 6.70777,-1.2642l0.21937,-0.13659c0,0 1.05984,-0.65988 1.72259,0.39538z" fill="#000000" stroke="none" stroke-width="0.5" stroke-linecap="butt"/><path d="M345.76755,157.54625c-0.85361,0.90921 -1.76675,0.05931 -1.76675,0.05931l-0.54895,-0.52333c-0.17969,0.05024 -0.31462,0.05476 -0.31462,0.05476l-0.33252,-0.01302c-6.59381,1.54482 -12.79483,4.65743 -19.56404,5.56119c-3.31947,0.44317 -6.86605,0.23654 -10.21526,0.34896c-8.18181,0.27465 -19.08517,1.32414 -26.61215,-2.11246c0,0 -0.25812,-0.11785 -0.47189,-0.36369c-0.18354,0.12851 -1.02722,0.64247 -1.72109,-0.21678c-0.78327,-0.96994 0.19089,-1.74983 0.19089,-1.74983c0.37475,-0.30001 0.7495,-0.60003 1.12425,-0.90004l1.2036,-0.51299c0,0 1.17186,-0.43314 1.60688,0.73366c0.17938,0.48113 0.08553,0.83752 -0.08671,1.09022c7.11496,2.83725 17.19468,1.79547 24.68199,1.54413c3.26521,-0.10961 6.73431,0.10387 9.96946,-0.3286c6.43077,-0.85965 12.35659,-3.76583 18.60347,-5.34202c0.02914,-0.16931 0.10235,-0.35259 0.23878,-0.54705c0.71588,-1.02027 1.74059,-0.30749 1.74059,-0.30749c0.3942,0.27419 0.78839,0.5484 1.18258,0.82259l1.03195,0.94334c0,0 0.91317,0.84991 0.05957,1.75911z" fill="#000000" stroke="none" stroke-width="0.5" stroke-linecap="butt"/><path d="M272.18442,267.04103c-0.0545,-2.29666 2.88345,-5.73284 4.22389,-7.58597c1.37615,-1.9025 2.3981,-4.14507 3.71067,-6.08836c2.85693,-4.22976 10.00131,-4.58911 13.8589,-5.33109c1.70152,-0.32728 7.92296,-2.43962 8.8098,-0.42203c2.12347,4.83093 -4.46973,8.01464 -7.35949,9.97954c-0.96236,0.65436 -1.72151,1.39521 -2.68109,1.84972c-0.24377,0.11546 -0.74777,0.17906 -0.69644,0.45714c0.08113,0.43951 4.0616,-1.37429 4.46034,-1.46817c2.17498,-0.51213 12.23969,-3.67898 13.33912,-1.96734c0.53387,0.83114 0.3739,2.33802 0.39947,3.38016c0.13601,5.54507 -3.68464,4.90085 -7.42134,6.84957c-0.9333,0.48673 -1.98146,0.97032 -2.95344,1.24013c-0.25124,0.06974 -0.72234,-0.11812 -0.75604,0.17711c-0.04941,0.43292 4.81433,-0.59339 5.26058,-0.67917c0.25243,-0.04852 0.50485,-0.09706 0.75729,-0.1456c4.23166,-0.81369 6.05205,-1.35912 6.50395,4.07529c0.33308,4.00541 0.43356,5.85349 -3.21434,7.46793c-1.62977,0.72128 -3.47356,1.6535 -5.1378,1.97879c-0.25241,0.04933 -0.70366,-0.14763 -0.75726,0.14675c-0.02764,0.15183 3.15508,1.15228 3.4643,1.19384c2.31159,0.31064 4.11509,3.1801 3.5048,6.21357c-1.05529,5.24538 -5.10261,4.86162 -8.42642,6.99705c-7.03715,4.52112 -11.84525,5.50634 -18.88965,3.72839c-2.80943,-0.70908 -6.01108,-0.49429 -8.28893,-2.3595c-4.86567,-3.98422 -1.54296,-22.49995 -1.70013,-29.23233z" fill="#4ff110" stroke="#000000" stroke-width="2.5" stroke-linecap="round"/><path d="M347.50977,272.31864c0.16236,6.73226 4.35966,25.06952 -0.31153,29.28007c-2.18681,1.97116 -5.39505,1.90849 -8.16768,2.75005c-6.95212,2.11011 -11.80154,1.35408 -19.04524,-2.82813c-3.42136,-1.97535 -7.44592,-1.40003 -8.74885,-6.58945c-0.75351,-3.0011 0.91185,-5.95289 3.2061,-6.37283c0.30691,-0.05618 3.43858,-1.20649 3.40377,-1.35683c-0.0675,-0.2915 -0.5089,-0.07335 -0.76336,-0.11065c-1.67779,-0.24597 -3.56374,-1.08968 -5.22589,-1.73284c-3.72038,-1.43958 -3.70767,-3.29035 -3.56498,-7.30705c0.1936,-5.44973 2.03781,-4.99126 6.30331,-4.37923c0.25445,0.03651 0.50889,0.07302 0.76334,0.10951c0.44983,0.06451 5.35677,0.85895 5.28688,0.42886c-0.04766,-0.29329 -0.50933,-0.08329 -0.76359,-0.14104c-0.98368,-0.2234 -2.0536,-0.65673 -3.00894,-1.09864c-3.82493,-1.76926 -7.61072,-0.94453 -7.7379,-6.48981c-0.0239,-1.04218 -0.25516,-2.53978 0.23867,-3.39531c1.017,-1.76187 11.22061,0.92398 13.41743,1.33236c0.40275,0.07487 4.46478,1.69781 4.52497,1.25494c0.03808,-0.2802 -0.46836,-0.31982 -0.71734,-0.42359c-0.98007,-0.40847 -1.77351,-1.11248 -2.76582,-1.72045c-2.97972,-1.82561 -9.71653,-4.69298 -7.82461,-9.61919c0.79014,-2.05738 7.10477,-0.24255 8.8199,0.00364c3.88844,0.55816 11.04183,0.5782 14.09619,4.66768c1.40328,1.87884 2.53045,4.0704 3.99531,5.90548c1.42684,1.78746 4.52449,5.08041 4.57899,7.37707z" fill="#4ff110" stroke="#000000" stroke-width="2.5" stroke-linecap="round"/></g></g></svg>