<svg version="1.1" xmlns="http://www.w3.org/2000/svg" xmlns:xlink="http://www.w3.org/1999/xlink" width="203.78299" height="359.55507" viewBox="0,0,203.78299,359.55507"><g transform="translate(-227.41946,-2.35892)"><g data-paper-data="{&quot;isPaintingLayer&quot;:true}" fill-rule="nonzero" stroke-width="2" stroke-linejoin="miter" stroke-miterlimit="10" stroke-dasharray="" stroke-dashoffset="0" style="mix-blend-mode: normal"><path d="M307.3919,237.62315c5.76147,-0.21849 49.86174,-7.58398 55.80492,-8.73243c6.48013,-1.25221 14.80934,-0.22133 21.2541,-0.31764c3.78577,-0.05658 11.6889,-0.68279 11.6889,-0.68279l-31.25792,13.08864l13.05115,9.32029l-2.68761,22.23547c0,0 -2.08899,28.16022 -8.95744,42.3851c-3.00352,6.22047 4.00882,13.55742 -5.47348,17.47435c-3.35779,1.38701 -12.54604,10.03146 -16.03162,10.08355c-5.05654,0.07557 -10.20695,-5.87554 -16.18037,-7.116c-7.60585,-1.57947 -24.46229,2.10755 -24.46229,2.10755l-7.15428,-7.12888l5.04997,-20.35134c0,0 5.12711,-30.26988 9.31607,-49.8127c1.37648,-6.42166 -9.29931,-17.99317 -5.37963,-22.53093z" fill="#3c2c1f" stroke="#000000" stroke-linecap="round"/><path d="M329.76444,334.24417l16.12561,-93.64716" fill="none" stroke="#000000" stroke-linecap="round"/><path d="M330.44447,341.18247c-1.74286,10.57789 -3.87212,19.56885 -14.75689,19.73152c-10.88478,0.16267 -24.66039,-19.14243 -24.66039,-19.14243c0,0 11.97959,-19.28485 22.86436,-19.44752c10.88478,-0.16267 18.29577,8.28052 16.55292,18.85843z" fill="#000000" stroke="#000000" stroke-linecap="butt"/><path d="M369.85752,337.42375c-1.74285,10.57791 -6.29649,20.01024 -17.18128,20.17291c-10.88477,0.16267 -23.97887,-9.00591 -22.23601,-19.58382c1.74285,-10.57791 11.97959,-19.28485 22.86436,-19.44752c10.88478,-0.16267 18.29578,8.28052 16.55293,18.85843z" fill="#000000" stroke="#000000" stroke-linecap="butt"/><path d="M357.7923,223.41776c-7.42986,4.23522 -27.75394,1.05633 -27.75394,1.05633l-79.06484,-52.87868l-0.03868,-61.71559l20.99339,-3.0423l0.81678,6.78707l-12.83871,10.66359l17.68477,57.20146c0,0 28.98336,17.3233 44.67448,13.62963c8.11124,-1.90939 15.84833,-6.63789 24.58413,-5.25059c25.89988,4.11306 27.10863,29.44318 12.18872,33.72524z" fill="#feed00" stroke="#000000" stroke-linecap="round"/><g><path d="M373.24702,207.81988l13.566,-12.85889l19.97198,25.01055l17.37547,6.56227l-2.54718,-1.79082l-2.76726,3.92181l-35.65628,15.94679l-5.48424,-4.71718l-7.68289,5.35754l30.19355,-18.53913c0,0 -5.12991,3.78679 -8.98856,-2.78919c-3.54889,-6.04812 -18.20513,-16.37429 -18.20513,-16.37429z" fill="#feed00" stroke="#000000" stroke-linecap="round"/><path d="M393.48169,213.41192l1.1975,6.19809l-4.52696,-3.24968l-7.58337,-4.78044l3.84232,-7.06992l6.83599,-3.73649l0.23453,12.63844z" fill="#ffa600" stroke="none" stroke-linecap="butt"/><path d="M397.86867,221.8512c0,0 -1.66481,3.56234 -3.46273,2.69335c-1.7979,-0.86901 -23.02572,-3.62829 -22.91122,-5.98479c0.1145,-2.35649 -1.89822,-5.71586 -0.10031,-4.84687c1.7979,0.86901 26.47426,8.1383 26.47426,8.1383z" fill="#ffa600" stroke="none" stroke-linecap="butt"/><path d="M374.85879,241.06136l-3.41928,2.65611l-3.01015,-5.76372l35.97337,-9.76297l-29.54395,12.87057z" fill="#ffa600" stroke="none" stroke-linecap="butt"/><path d="M418.1319,227.39467l-6.39665,1.60357l-30.1109,12.53832l2.84681,-2.87458z" fill="#ffa600" stroke="none" stroke-linecap="butt"/><path d="M400.66273,213.06983l1.58182,5.21359l21.46288,4.93537l-17.88194,-3.20456z" fill="#ffa600" stroke="none" stroke-linecap="butt"/></g><g><path d="M312.93856,220.80428c3.36008,-0.71185 -6.10105,12.18911 -8.4317,18.80292c-2.53407,7.19106 -7.04322,3.24153 -8.29187,4.45181c-0.24045,0.23305 12.82564,1.45973 10.23942,4.08893c-4.77964,4.85911 -8.56343,-3.79442 -8.56343,-3.79442l-4.48425,5.67627l-4.73072,-8.0863l-13.8412,4.26143l1.89775,2.58815l-7.72244,-6.17027l29.02833,-33.28795c0,0 11.54739,8.67934 14.7313,11.7778z" fill="#feed00" stroke="#000000" stroke-linecap="round"/><path d="M296.39361,218.42103l7.42299,2.36456l20.38235,5.93994l-6.99558,2.07423l-36.37841,11.16004l29.46083,-10.6262l-13.89216,-10.91258z" fill="#ffa600" stroke="none" stroke-linecap="butt"/><path d="M335.5751,226.68888c1.59923,-1.19586 3.35102,-0.30771 3.91272,1.98373c0.56169,2.29144 -36.38333,10.95427 -37.98257,12.15013c-1.59923,1.19586 -3.35104,0.30773 -3.91273,-1.98371c-0.56169,-2.29144 36.38333,-10.95427 37.98258,-12.15014z" fill="#ffa600" stroke="none" stroke-linecap="butt"/><path d="M293.20141,248.57717c0,0 12.87134,-10.15815 13.42555,-7.89728c0.55421,2.26087 -0.27675,5.051 -1.856,6.2319c-1.57925,1.18089 -3.86297,-1.95546 -3.86297,-1.95546z" fill="#ffa600" stroke="none" stroke-linecap="butt"/><path d="M278.75795,248.14422l16.96201,-7.22914l-1.36283,5.79766l-3.34267,-2.27907z" fill="#ffa600" stroke="none" stroke-linecap="butt"/><path d="M269.96021,242.48179l2.52831,2.62618l0.65694,-5.00799l30.02579,-9.73303z" fill="#ffa600" stroke="none" stroke-linecap="butt"/></g><path d="M313.62978,198.31596c-1.04287,6.47814 15.20302,27.14753 15.20302,27.14753l-45.06191,-3.71684l3.36183,-24.45104l-10.43541,-74.52004c0,0 5.32821,-9.01906 6.75834,-13.90791l1.17424,-0.06809c13.2277,1.35638 25.47091,6.06924 39.10884,3.18996c5.4581,-1.15232 9.32545,-3.47536 12.97167,-7.69287c0.83366,-0.96428 3.28746,-3.32474 4.82219,-2.50894c3.45418,1.83612 8.24433,13.16277 8.24433,13.16277l43.20124,61.9833l6.25091,15.63457l-17.33684,17.94685l-5.27599,3.43236l-1.51552,-23.71944l3.05189,27.12535l-14.38886,19.93328c0,0 -9.98801,4.71471 -12.83162,5.30703c-11.50262,2.39595 -23.71174,1.30555 -35.20157,3.73823c-3.73457,0.79069 0.60254,-4.9842 -2.9326,-6.47382c-1.88411,-0.79393 -15.09525,3.15628 -15.26258,1.4172c-0.73663,-7.65623 9.91056,-24.46824 10.68935,-32.11644" fill="#fffe8a" stroke="#000000" stroke-linecap="round"/><path d="M289.82721,99.91973c13.75635,-3.80597 27.10873,-7.64924 41.52594,-7.90187c3.07462,-0.05387 13.83795,0.05593 13.4807,4.83528c-0.48556,6.49561 -6.42761,10.41628 -12.09377,12.36723c-10.21473,3.51711 -34.82328,6.71119 -44.76012,2.1359c-7.07203,-3.25621 -6.04137,-10.89657 1.96991,-11.66736z" fill="#fffe8a" stroke="#000000" stroke-linecap="round"/><g stroke-linecap="butt"><path d="M284.85033,30.67475l-10.70139,35.83963l1.28718,13.65068l-0.53,-2.1613l-7.99233,-15.92708l5.21482,-51.48302l25.68342,-0.70575l1.9693,-0.14783l-12.30324,-0.96965l-1.88892,21.56753z" fill="#feed00" stroke="#000000"/><path d="M280.24574,33.10164l-5.6766,25.36692l2.74767,9.063l-4.3676,-0.02124l-3.20062,-11.26946l2.9575,-38.60373l1.71659,-9.47322l1.26561,-0.31002l6.85945,6.91329l-1.83684,18.02801z" fill="#ffa700" stroke="none"/></g><g stroke-linecap="butt"><path d="M330.18489,17.01723l9.82889,-12.15708c0,0 33.69527,5.30392 36.89341,-0.17117c0.62239,-1.06553 0.77108,-2.17416 1.72015,-0.38202c1.48105,2.79666 -4.9437,14.15853 -4.9437,14.15853l-29.43026,29.79601l0.71959,15.30727l0.06804,1.91773c0,0 -5.36195,-10.46343 -5.9058,-11.71446c-4.94869,-11.38359 -8.23713,-36.66619 -8.23713,-36.66619z" fill="#feed00" stroke="#000000"/><path d="M334.95035,17.79504l8.19916,-6.56441l26.82832,5.88662l1.15736,-0.06822l-18.87507,-5.97034l-11.83941,33.09623c0,0 -0.07395,6.74153 -0.01903,10.11131c0.0069,0.42334 0.19538,1.11677 -0.0171,1.26446c-0.51178,0.35569 -3.22851,-7.42762 -3.54981,-8.30537c-2.92352,-7.98707 -10.97518,-19.46389 -10.97518,-19.46389z" fill="#ffa700" stroke="none"/></g><path d="M309.33806,16.20731l21.45094,14.13175c0,0 7.42441,12.86965 10.23046,21.11659c0.86182,2.53286 3.52536,7.11769 3.52536,7.11769c0,0 0.94843,38.21851 -20.01043,42.51998c-17.55398,3.60268 -50.40664,-12.43334 -50.40664,-12.43334l-5.77966,-30.77912l0.3749,-11.87838l40.99322,-29.5564z" fill="#feed00" stroke="#000000" stroke-linecap="butt"/><path d="M341.45739,63.23882c4.30577,-0.02265 16.04713,8.33453 16.04713,8.33453l-7.20356,4.28632l1.6207,2.31745l1.85574,8.26511c0,0 -10.68423,4.38813 -13.9352,1.75232" fill="#feed00" stroke="#000000" stroke-linecap="round"/><path d="M281.98556,96.58652l-14.01368,0.93674l0.24588,-8.4673l1.14913,-2.58395l-7.88866,-2.83426l10.02092,-11.84556" fill="#feed00" stroke="#000000" stroke-linecap="round"/><path d="M228.41946,55.93112l42.03652,12.42969" fill="none" stroke="#000000" stroke-linecap="round"/><path d="M238.52503,68.2494l32.39872,1.30253" fill="none" stroke="#000000" stroke-linecap="round"/><path d="M243.80529,75.68999l26.27729,-5.70398" fill="none" stroke="#000000" stroke-linecap="round"/><path d="M372.72584,39.39342l-28.49604,21.45961" fill="none" stroke="#000000" stroke-linecap="round"/><path d="M341.68948,61.98039c10.16201,-8.8441 32.9668,-6.90948 32.9668,-6.90948" fill="none" stroke="#000000" stroke-linecap="round"/><path d="M345.32346,63.04342l27.43056,1.71637" fill="none" stroke="#000000" stroke-linecap="round"/><path d="M306.68561,94.12549c3.70291,-0.35626 7.57858,-0.97148 11.29882,-0.86677c0.47217,0.0133 1.25351,-0.26388 1.40516,0.18349c0.19864,0.58602 -6.07543,4.98154 -6.84466,4.99822c-1.7298,0.03751 -4.64177,-3.07543 -5.44319,-4.35497z" fill="#000000" stroke="#000000" stroke-linecap="round"/><path d="M294.99355,60.59361c0.54577,17.20444 2.11725,30.92565 -1.36446,32.35337c-3.48171,1.42771 -11.24392,-27.18319 -11.24392,-27.18319c0,0 1.83427,-32.30876 5.31598,-33.73647c3.48171,-1.42771 6.74664,11.36186 7.29241,28.5663z" fill="#ffffff" stroke="#000000" stroke-linecap="butt"/><path d="M289.22162,54.19641c0.38984,12.28888 2.81823,30.31909 0.39016,31.31473c-2.42807,0.99563 -8.79315,-15.42027 -9.18299,-27.70918c-0.38984,-12.28888 1.26248,-23.05813 3.69055,-24.05377c2.42807,-0.99563 4.71244,8.15931 5.10229,20.44822z" fill="#000000" stroke="#000000" stroke-linecap="butt"/><path d="M330.42454,60.82138c0.55289,17.26489 2.06909,31.03991 -1.48793,32.47359c-3.55702,1.43367 -10.84029,-10.01696 -11.39319,-27.28181c-0.55289,-17.26489 1.88244,-32.42303 5.43946,-33.85671c3.55702,-1.43367 6.88877,11.40008 7.44165,28.66494z" fill="#ffffff" stroke="#000000" stroke-linecap="butt"/><path d="M329.11664,54.50032c0.39492,12.33206 3.21638,31.09203 0.73578,32.09183c-2.4806,0.9998 -9.32389,-16.13913 -9.71882,-28.47121c-0.39492,-12.33206 1.29585,-23.13967 3.77645,-24.13947c2.4806,-0.9998 4.81167,8.18678 5.20658,20.51886z" fill="#000000" stroke="#000000" stroke-linecap="butt"/><path d="M282.69308,33.65315l16.88438,-16.71163l3.53413,-2.12323l-1.36923,0.39387l13.50168,-3.33835l4.23131,-0.41166l-6.12711,-2.94835l5.5519,0.76404l8.65815,7.34081" fill="#feed00" stroke="#000000" stroke-linecap="butt"/><path d="M270.80485,51.6359l-4.64495,-4.49427l-6.00897,-2.51678l7.02277,-4.14923l7.48506,-3.92728" fill="#feed00" stroke="#000000" stroke-linecap="butt"/><path d="M302.22785,149.79544c1.28361,0.39287 4.68087,-0.19122 5.30723,1.29349c2.10081,4.9795 22.22151,28.1507 17.29738,27.58864c-3.27894,-0.37426 -22.28747,-29.62309 -22.28747,-29.62309c0,0 -1.95349,-23.6685 -0.55394,-35.35864" fill="#ffaf36" stroke="#000000" stroke-linecap="round"/><path d="M328.90108,147.83642c8.51996,-11.57192 33.69173,35.2769 23.22401,28.18477c-5.66751,-3.83987 -23.20662,-26.65998 -22.94526,-29.21496c1.23365,-12.06 -4.95735,-24.25638 -2.53263,-36.5967" fill="#ffaf36" stroke="#000000" stroke-linecap="round"/><path d="M316.96823,200.62189c3.25405,-3.1595 7.69601,-3.06008 11.82037,-4.12462c13.30248,-3.43355 28.47307,-3.99154 42.15204,-3.10331" fill="none" stroke="#000000" stroke-linecap="round"/><path d="M373.21434,197.22175c0,0 20.84792,21.41529 21.80492,30.26302" fill="none" stroke="#000000" stroke-linecap="round"/><path d="M317.87397,204.80916c0.81556,8.47657 -15.039,26.26198 -14.42589,34.73982" fill="none" stroke="#000000" stroke-linecap="round"/><path d="M294.36487,109.3482c-2.69703,-0.66286 -4.71443,-3.05451 -7.24518,-4.25988" fill="none" stroke="#fcec41" stroke-linecap="round"/><path d="M336.76427,102.92554c1.51815,-1.23569 2.95257,-2.23566 4.69485,-3.13482" fill="none" stroke="#fcec41" stroke-linecap="round"/><path d="M309.85112,118.01272l0.91791,9.54036" fill="none" stroke="#fcec41" stroke-linecap="round"/><path d="M313.65491,120.93459l0.47015,4.88653" fill="none" stroke="#fcec41" stroke-linecap="round"/><path d="M317.1229,120.36606l1.05628,3.6559" fill="none" stroke="#fcec41" stroke-linecap="round"/><path d="M320.36451,224.65925l-9.60526,-41.9467l15.28733,40.89713z" fill="#fce541" stroke="#fcec41" stroke-linecap="round"/><path d="M320.36451,224.65925l-9.60526,-41.9467l15.28733,40.89713c0,0 61.30924,-20.44876 60.3542,-20.27235c-0.9387,0.1734 -66.03627,21.32192 -66.03627,21.32192z" fill="#fce541" stroke="#fcec41" stroke-linecap="round"/><path d="M379.21703,209.90695l-5.66238,-30.47037l15.36374,23.79119z" fill="#fce541" stroke="#fcec41" stroke-linecap="round"/></g></g></svg>