<svg version="1.1" xmlns="http://www.w3.org/2000/svg" xmlns:xlink="http://www.w3.org/1999/xlink" width="167.63758" height="366.13302" viewBox="0,0,167.63758,366.13302"><defs><radialGradient cx="230.06989" cy="67.19555" r="9.96145" gradientUnits="userSpaceOnUse" id="color-1"><stop offset="0" stop-color="#ffffff"/><stop offset="1" stop-color="#1a1a1a"/></radialGradient><radialGradient cx="263.86789" cy="68.72437" r="10.27836" gradientUnits="userSpaceOnUse" id="color-2"><stop offset="0" stop-color="#ffffff"/><stop offset="1" stop-color="#1a1a1a"/></radialGradient></defs><g transform="translate(-148.79035,-5.22129)"><g stroke-width="2" stroke-miterlimit="10"><path d="M217.10659,223.90357c5.84646,-0.11634 13.77281,-1.62701 19.66222,-2.76253c6.4215,-1.23809 15.07994,0.07535 21.64246,0.10814c3.85493,0.01927 15.64222,0.97522 15.64222,0.97522l2.23944,6.60877l6.49831,21.1683l0.66441,24.40446c0,0 2.1832,30.93547 -2.64672,46.43708c-2.11208,6.77878 6.16874,15.00148 -2.90834,19.10654c-3.21429,1.45362 -11.26683,10.766 -14.8161,10.74827c-5.14892,-0.02574 -11.31717,-6.68372 -17.6035,-8.17703c-8.00428,-1.9014 -24.64233,1.79196 -24.64233,1.79196l-8.39379,-7.99686l2.03525,-22.28078c0,0 0.5941,-33.19099 1.87454,-54.60081c0.42077,-7.03514 -3.99831,-30.62898 -0.69338,-35.5368z" fill="#3c2c1f" stroke="#000000" stroke-linecap="round"/><path d="M248.60263,238.6377l-2.10709,102.67866" fill="none" stroke="#000000" stroke-linecap="round"/><path d="M248.25275,348.96417c-0.15778,11.59973 -0.9531,21.44528 -12.03676,21.38991c-11.08367,-0.05538 -28.10075,-21.59046 -28.10075,-21.59046c0,0 9.27078,-20.9583 20.35445,-20.9029c11.08367,0.05538 19.94085,9.50371 19.78307,21.10347z" fill="#000000" stroke="#000000" stroke-linecap="butt"/><path d="M287.90025,345.67755c-0.15779,11.59975 -3.35968,21.87869 -14.44335,21.8233c-11.08365,-0.05538 -25.85195,-10.42411 -25.69418,-22.02385c0.15779,-11.59975 9.27077,-20.9583 20.35445,-20.9029c11.08367,0.05538 19.94086,9.50371 19.78308,21.10347z" fill="#000000" stroke="#000000" stroke-linecap="butt"/><path d="M231.54967,214.8934c-7.58724,4.56287 -27.79213,0.5286 -27.79213,0.5286l-53.75306,-57.89079l25.24481,-48.14115l21.10579,-2.90927l0.56405,7.61152l-13.23522,11.62664l-7.43136,43.50668c0,0 28.33715,20.06056 44.16516,16.29788c8.18199,-1.94507 16.09482,-7.05252 24.77861,-5.29506c25.74566,5.21047 2.67158,30.45234 -12.40716,34.89136z" fill="#feed00" stroke="#000000" stroke-linecap="round"/><g><path d="M270.92415,200.93049l14.04422,-14.06527l15.55723,25.95492l-2.72654,7.12065l-2.48039,-2.06321l0.58921,5.82733l-3.43121,9.81572l-5.30837,-5.40589l-7.88205,5.81239l-5.43716,-14.3495c0,0 -5.27069,4.11535 -8.88434,-3.3316c-3.32354,-6.84918 5.74495,-15.62344 5.74495,-15.62344z" fill="#feed00" stroke="#000000" stroke-linecap="round"/><path d="M290.94979,207.66209l-2.51603,4.46877l-4.40578,-3.74176l-3.92236,-3.03318l4.1054,-7.81829l6.97482,-4.01895l-0.23606,14.14339z" fill="#ffa600" stroke="none" stroke-linecap="butt"/><path d="M271.6827,214.08398c0,0 -1.79739,3.94579 -3.56287,2.93139c-1.76546,-1.01442 -3.03271,-3.97154 -2.83048,-6.60491c0.20223,-2.63338 1.79739,-3.94579 3.56286,-2.9314c1.76546,1.01442 2.83048,6.6049 2.83048,6.6049z" fill="#ffa600" stroke="none" stroke-linecap="butt"/><path d="M284.27823,229.35316l-3.51804,2.89078l-2.7954,-6.51837l3.51803,-2.89079z" fill="#ffa600" stroke="none" stroke-linecap="butt"/><path d="M293.97957,226.89528l-2.95372,3.14864l-2.24086,-6.13335l2.95372,-3.14864z" fill="#ffa600" stroke="none" stroke-linecap="butt"/><path d="M299.56454,212.8453l-2.09507,3.37649l-1.42128,-5.3969l2.09507,-3.37649z" fill="#ffa600" stroke="none" stroke-linecap="butt"/></g><g><path d="M206.65204,211.54345c3.38644,-0.71725 9.90813,7.18398 7.33132,14.52763c-2.80172,7.98459 -7.16362,3.46039 -8.45728,4.78487c-0.24912,0.25503 2.84172,12.73138 0.15772,15.61165c-4.96036,5.32314 -8.42179,-4.44609 -8.42179,-4.44609l-4.69541,6.24419l-4.42944,-9.15699l-4.07026,-6.35534l1.8013,2.93986l-7.49238,-7.08404l17.28647,-27.75367c0,0 7.74105,7.48793 10.80946,11.02889z" fill="#feed00" stroke="#000000" stroke-linecap="round"/><path d="M190.19652,208.48814l7.33465,2.81976l0.30339,6.49524l-3.57016,3.66105l-3.97507,4.44408l-2.9621,-4.00967l2.86932,-13.41047z" fill="#ffa600" stroke="none" stroke-linecap="butt"/><path d="M209.21158,218.02983c1.64369,-1.30011 3.36234,-0.26537 3.83871,2.31115c0.47635,2.57652 -0.46997,5.71913 -2.11367,7.01922c-1.64369,1.30011 -3.36235,0.26539 -3.83871,-2.31113c-0.47635,-2.57652 0.46996,-5.71913 2.11367,-7.01923z" fill="#ffa600" stroke="none" stroke-linecap="butt"/><path d="M202.34442,235.83924c0,0 3.32,-0.26378 3.79,2.27835c0.47,2.54215 -0.46482,5.64375 -2.08796,6.92759c-1.62316,1.28383 -3.79,-2.27835 -3.79,-2.27835z" fill="#ffa600" stroke="none" stroke-linecap="butt"/><path d="M187.91766,235.01507l7.30145,3.10897l-1.57865,6.45344l-3.25768,-2.62812z" fill="#ffa600" stroke="none" stroke-linecap="butt"/><path d="M180.17448,222.88714l2.43043,2.99725l-0.84339,5.58668l-2.43042,-2.99724z" fill="#ffa600" stroke="none" stroke-linecap="butt"/></g><path d="M211.66325,188.89621c-1.28403,7.22217 -9.14805,27.6042 -9.14805,27.6042l-25.0647,-4.58909l7.7548,-24.77999l15.32526,-62.70938c0,0 5.66379,-9.96371 7.2759,-15.39892l1.17674,-0.04854c13.17665,1.82856 25.24387,7.38863 38.98844,4.48866c5.50077,-1.1606 9.45446,-3.66825 13.25757,-8.30033c0.86953,-1.05905 3.41111,-3.64184 4.91541,-2.69314c3.38567,2.13523 7.75389,14.9184 7.75389,14.9184l17.90602,49.45625l5.66851,17.63655l-18.00435,19.66815l-5.40357,3.71544l-0.6323,-26.56921l-1.4409,27.9225l1.33233,15.65193c0,0 -10.16313,5.03905 -13.02868,5.63474c-11.59136,2.40955 -23.75936,0.90251 -35.3393,3.35344c-3.76386,0.79663 -9.14094,5.23531 -12.62047,3.48579c-1.85447,-0.93245 -5.28312,-7.62111 -5.38568,-9.57046c-0.45155,-8.58191 -2.15889,-18.33743 -1.09535,-26.87469" fill="#fffe8a" stroke="#000000" stroke-linecap="round"/><path d="M225.05396,155.24826c1.26893,0.46969 4.68779,-0.10377 5.25886,1.57182c1.91531,5.61971 -1.81315,11.11605 -6.71615,10.37144c-3.26487,-0.49583 1.80201,-12.76467 1.80201,-12.76467c0,0 -1.07214,-26.52253 0.7626,-39.56667" fill="#ffaf36" stroke="#000000" stroke-linecap="round"/><path d="M251.79903,153.68442c8.95047,-12.74435 9.39127,19.3576 -0.81195,11.17774c-5.5243,-4.42879 0.77255,-9.47163 1.12905,-12.3236c1.68264,-13.4618 -4.05399,-27.25083 -1.1699,-40.99818" fill="#ffaf36" stroke="#000000" stroke-linecap="round"/><path d="M214.9157,191.55428c3.37156,-3.45779 7.80963,-3.24203 11.97346,-4.33583c13.42978,-3.52789 28.6205,-3.79514 42.26586,-2.47965" fill="none" stroke="#000000" stroke-linecap="round"/><path d="M268.62365,220.31887c-0.62753,-9.91995 2.66243,-31.24465 2.66243,-31.24465" fill="none" stroke="#000000" stroke-linecap="round"/><path d="M215.66551,196.25964c0.49991,9.50143 -3.03613,20.2233 -2.7387,29.72139" fill="none" stroke="#000000" stroke-linecap="round"/><path d="M194.0772,215.40149l15.29661,-44.02744l-9.5757,42.98707z" fill="#fce541" stroke="#fcec41" stroke-linecap="round"/><path d="M191.65564,209.54102l15.29661,-44.02744l-9.5757,42.98707z" fill="#fce541" stroke="#fcec41" stroke-linecap="round"/><path d="M278.08944,196.99863l-4.52763,-34.21866l14.47727,26.97532z" fill="#fce541" stroke="#fcec41" stroke-linecap="round"/><path d="M217.87529,100.09582c14.21492,-1.28785 28.03903,-2.68455 42.26955,-0.35815c3.0348,0.49613 13.60546,2.52653 12.40034,7.16524c-1.63789,6.30445 -8.18464,9.10081 -14.10814,10.0084c-10.67866,1.63617 -35.462,0.38373 -44.4219,-5.89275c-6.37675,-4.46694 -3.99806,-11.80037 4.02206,-11.12792z" fill="#fffe8a" stroke="#000000" stroke-linecap="round"/><g stroke-linecap="butt"><path d="M229.61484,39.74196l-15.5751,34.0061l-4.72642,14.51808l-0.2247,-2.21397l-1.59759,-17.70363l-1.75342,-44.45816l0.51823,-17.60452l1.97075,0.12709l12.96495,17.8036l9.20176,15.29448z" fill="#feed00" stroke="#000000"/><path d="M224.71785,41.50584l-9.14455,24.33272l-2.64296,10.17771l-0.217,-1.44853l-1.60451,-11.60474l-2.54812,-29.38969l-0.21382,-11.77051l1.29641,-0.13124l9.06229,10.42643l6.51549,9.16899z" fill="#ffa700" stroke="none"/></g><g stroke-linecap="butt"><path d="M265.56859,40.94206l8.19259,-13.30173c0,0 7.61783,-10.54041 11.54536,-15.51828c0.76433,-0.96876 1.06555,-2.046 1.75654,-0.13942c1.0783,2.97525 0.47263,15.1413 0.47263,15.1413l-1.5359,38.28425l-1.41326,15.25886l-0.19896,1.90859c0,0 -3.85683,-11.1067 -4.22167,-12.42114c-3.31978,-11.96055 -13.90335,-29.02563 -13.90335,-29.02563z" fill="#feed00" stroke="#000000"/><path d="M270.17984,42.37417l5.80194,-7.98959l8.07124,-9.11048l1.15562,0.09318l-0.18343,10.13212l-2.25341,25.32952c0,0 -1.00949,6.66592 -1.42312,10.01067c-0.05197,0.42019 0.03839,1.13307 -0.19253,1.24983c-0.55621,0.28116 -2.16569,-7.80403 -2.36195,-8.71788c-1.78594,-8.3157 -8.16568,-20.7995 -8.16568,-20.7995z" fill="#ffa700" stroke="none"/></g><path d="M245.03627,37.24477l30.1187,8.54471c0,0 5.56512,13.77603 7.19865,22.33276c0.5017,2.62801 2.50269,7.53832 2.50269,7.53832c0,0 -8.47387,38.80079 -29.82702,40.1498c-17.88421,1.12987 -48.19142,-19.31333 -48.19142,-19.31333l2.65629,-32.10445l2.02094,-11.7112l33.86251,-15.14763z" fill="#feed00" stroke="#000000" stroke-linecap="butt"/><path d="M281.15084,79.85204c4.26719,0.57556 10.62878,11.30333 10.62878,11.30333l-7.72904,3.24435l1.28315,2.52008l0.68989,8.44274c0,0 -11.19011,2.86177 -14.04352,-0.19999" fill="#feed00" stroke="#000000" stroke-linecap="round"/><path d="M213.5187,105.43805l-14.00796,-1.01857l1.41943,-8.3511l1.49684,-2.39932l-7.41859,-3.90238l11.56892,-10.33905" fill="#feed00" stroke="#000000" stroke-linecap="round"/><path d="M170.22325,56.91644l35.79757,18.9682" fill="none" stroke="#000000" stroke-linecap="round"/><path d="M206.31864,77.12917l-31.90386,-5.78944" fill="none" stroke="#000000" stroke-linecap="round"/><path d="M205.42532,77.44224l-26.81481,1.99932" fill="none" stroke="#000000" stroke-linecap="round"/><path d="M284.22772,77.87441l31.20021,-17.29413" fill="none" stroke="#000000" stroke-linecap="round"/><path d="M281.55546,78.63804c11.2918,-7.3471 33.60691,-2.26409 33.60691,-2.26409" fill="none" stroke="#000000" stroke-linecap="round"/><path d="M285.00658,80.19545l26.92638,5.50929" fill="none" stroke="#000000" stroke-linecap="round"/><path d="M239.49619,86.85766c3.71649,0.16145 7.64005,0.09044 11.3097,0.71081c0.46575,0.07874 1.278,-0.08725 1.36606,0.37686c0.11532,0.60792 -6.70838,4.08951 -7.47249,3.99919c-1.71824,-0.20309 -4.16966,-3.69027 -4.78562,-5.0687z" fill="#000000" stroke="#000000" stroke-linecap="round"/><path d="M241.26916,68.25756c-0.30718,7.07148 -6.20191,12.55876 -13.16623,12.25625c-6.96433,-0.30253 -12.0538,-13.3518 -12.0538,-13.3518c0,0 6.20189,-12.55875 13.1662,-12.25623c6.96433,0.30253 12.36101,6.28031 12.05383,13.35178z" fill="#ffffff" stroke="#000000" stroke-linecap="butt"/><path d="M276.32266,69.35736c-0.30718,7.07148 -6.20189,12.55876 -13.16621,12.25625c-6.96433,-0.30253 -12.36098,-6.28033 -12.05381,-13.35179c0.30718,-7.07148 6.20189,-12.55876 13.1662,-12.25624c6.96433,0.30253 12.36098,6.28033 12.05381,13.35179z" fill="#ffffff" stroke="#000000" stroke-linecap="butt"/><path d="M238.83615,66.42865c-0.2194,5.05104 -4.77415,12.49107 -9.63091,12.28008c-4.85677,-0.21097 -8.17643,-7.99305 -7.95703,-13.04411c0.2194,-5.05104 4.33448,-8.9747 9.19125,-8.76371c4.85677,0.21097 8.61609,4.47669 8.3967,9.52774z" fill="url(#color-1)" stroke="#000000" stroke-linecap="butt"/><path d="M272.34139,67.77916c-0.2194,5.05104 -3.99649,12.86301 -8.85327,12.65204c-4.85677,-0.21097 -8.95409,-8.36501 -8.73467,-13.41606c0.2194,-5.05104 4.33448,-8.9747 9.19125,-8.76371c4.85677,0.21097 8.61609,4.47669 8.39669,9.52774z" fill="url(#color-2)" stroke="#000000" stroke-linecap="butt"/><path d="M227.06487,42.39188l8.2034,-5.77556l3.79475,-1.61184l-4.64007,-2.4276l13.83447,-1.43088l4.24749,0.17998l-5.65827,-3.77071l5.39198,1.52769l10.78419,11.09961" fill="#feed00" stroke="#000000" stroke-linecap="butt"/><path d="M212.79439,58.54932l-3.97577,-5.09581l-5.6012,-3.32691l7.53096,-3.13369l7.95794,-2.8497" fill="#feed00" stroke="#000000" stroke-linecap="butt"/><path d="M252.59983,110.32497c-2.53528,-1.1339 -4.09308,-3.84741 -6.36786,-5.48539" fill="none" stroke="#fcec41" stroke-linecap="round"/><path d="M235.06712,130.60317l0.80079,-9.5509" fill="none" stroke="#fcec41" stroke-linecap="round"/><path d="M236.77444,127.73685l0.41016,-4.89193" fill="none" stroke="#fcec41" stroke-linecap="round"/><path d="M243.12281,123.07934l0.38634,3.78578" fill="none" stroke="#fcec41" stroke-linecap="round"/></g></g></svg>