<svg version="1.1" xmlns="http://www.w3.org/2000/svg" xmlns:xlink="http://www.w3.org/1999/xlink" width="34.17311" height="34.17311" viewBox="0,0,34.17311,34.17311"><g transform="translate(-302.91347,-162.9135)"><g data-paper-data="{&quot;isPaintingLayer&quot;:true}" stroke="none" stroke-miterlimit="10" stroke-dasharray="" stroke-dashoffset="0" style="mix-blend-mode: normal"><path d="M309.98314,162.9135h20.03379c3.9166,0 7.06966,3.15307 7.06966,7.06966v20.03379c0,3.91659 -3.15306,7.06966 -7.06966,7.06966h-20.03379c-3.91659,0 -7.06966,-3.15307 -7.06966,-7.06966v-20.03379c0,-3.91659 3.15307,-7.06966 7.06966,-7.06966z" fill="#00ff15" fill-rule="evenodd" stroke-width="4.43922" stroke-linecap="round" stroke-linejoin="round"/><g fill-rule="nonzero" stroke-width="0.5" stroke-linecap="butt" stroke-linejoin="miter"><path d="M316.69877,175.82812c-0.23395,-0.2131 -0.47057,-0.42137 -0.77304,-0.59547c-0.76324,-0.38217 -1.60018,-0.77336 -2.42678,-0.99493c-0.71747,-0.19232 -2.32653,-0.51033 -3.03046,-0.18313c-0.30521,0.14186 -0.48906,0.96034 -0.32862,1.2417c0.20062,0.35181 0.64978,0.4881 0.93605,0.77456c0.53589,0.53624 1.03789,0.87132 1.61536,1.38225c0.73248,0.64809 1.38062,1.33743 1.93655,2.10169l0.08327,-0.08327l0.08023,0.08022c0.15494,-1.29386 0.76795,-2.52461 1.86249,-3.01844c0.0731,-0.03298 0.14188,-0.06275 0.20695,-0.08953c-0.06672,-0.20014 -0.12027,-0.40592 -0.162,-0.61563zM314.83396,181.17673c-0.03534,0 -0.07003,-0.0028 -0.10386,-0.00818l-0.77492,-0.1107c-0.44975,0.00111 -0.8995,0.00162 -1.34925,0.00162c-1.30624,-0.0038 -2.5372,0.11953 -3.76824,0.54874c-0.48275,0.16832 -1.17744,0.4185 -0.73233,1.12402c0.17998,0.28527 0.63525,0.22718 0.95539,0.33339c0.21842,0.07246 0.43135,0.16325 0.65431,0.22022c1.32518,0.33858 3.09898,0.09406 4.42759,-0.12813c0.25699,-0.04298 0.48573,-0.27439 0.74399,-0.2398c0.04807,0.00644 0.09576,0.01445 0.14313,0.02384l0.00275,-0.02197l0.68157,0.0852c-0.13787,-0.14694 -0.26408,-0.30952 -0.37685,-0.48874c-0.23899,-0.37982 -0.40565,-0.84136 -0.49841,-1.33953c-0.00162,0.00001 -0.00325,0.00001 -0.00487,0.00001zM316.54478,183.68742c0,0.18099 -0.07336,0.34485 -0.19198,0.46347l-0.46906,0.46905c-0.81684,0.8032 -1.28455,1.87948 -1.69477,2.93687c0.02159,1.20428 0.24841,2.34689 1.10845,3.28931c1.03992,1.13954 2.65217,-0.73983 2.88562,-1.68061c0.33093,-1.33361 -0.45154,-3.04391 -0.01589,-4.35192c0.00498,-0.01497 0.01011,-0.02989 0.01538,-0.04474l-0.01044,-0.00149l0.08819,-0.61738c-0.61622,-0.06611 -1.20389,-0.22633 -1.71702,-0.50732c0.00099,0.01478 0.00151,0.02971 0.00151,0.04475zM319.69566,184.59708c0.14184,0.42731 0.25603,0.86641 0.32111,1.31187c0.78561,1.15063 0.9776,2.50609 2.36267,3.16405c1.02892,0.48877 3.12396,-0.06757 2.83037,-1.52812c-0.21166,-1.05296 -1.14717,-2.06352 -1.83405,-2.83304c-0.1705,-0.19102 -0.50338,-0.24856 -0.59449,-0.4871l-0.53481,-0.32088c-0.1162,-0.067 -0.20992,-0.16863 -0.26707,-0.29077c-0.70934,0.26916 -1.52931,0.47001 -2.35724,0.54301zM323.49694,183.12539c0.01612,0.00982 0.0321,0.01985 0.04794,0.03009c0.37658,0.16309 0.5867,0.37348 0.75995,0.61436c0.08184,0.0648 0.16608,0.12611 0.25486,0.18087c0.95096,0.58662 2.35053,0.48843 3.40787,0.48843c1.40886,0.00411 4.10026,-0.16753 3.9201,-2.10484c-0.00226,-0.02428 -0.14664,-0.95913 -0.20986,-1.0511c-0.18219,-0.26508 -1.42148,-0.40258 -1.68949,-0.49191c-1.603,-0.53433 -3.26783,0.09254 -4.83509,-0.31815h-0.61311c-0.24746,0.91647 -0.7129,1.73599 -1.40994,2.43218zM325.00826,179.06012c1.76953,-0.56851 4.39458,-0.31735 5.51036,-2.16596c0.09434,-0.63325 0.0769,-1.24426 0.0769,-1.88429c0,-0.68483 0.15738,-1.8081 -0.12088,-2.44547c-0.16903,-0.38718 -1.86095,0.07254 -2.07885,0.14002c-1.384,0.4286 -2.26189,1.56164 -3.24818,2.53438c-0.30545,0.30125 -0.41993,0.76365 -0.73046,1.05967c-0.00386,0.00368 -0.00772,0.00735 -0.0116,0.01101l0.0031,0.00207l-0.28713,0.43068c0.08126,0.04427 0.15118,0.09381 0.20524,0.14945c0.5027,0.51755 0.42401,1.24508 0.4265,1.87063c0.00045,0.11484 -0.00175,0.22865 -0.00662,0.34139zM322.86499,175.84024l0.01462,0.00243l-0.00749,-0.03882c0.52323,-1.83129 0.72047,-4.48888 -0.16969,-6.22452c-0.15449,-0.26202 -0.20833,-0.66971 -0.49711,-0.76523c-0.14416,-0.04768 -0.30107,0.04327 -0.45276,0.04989c-0.73278,0.03194 -1.88869,-0.08657 -2.46814,0.51161c-0.29835,0.308 -0.3849,0.76664 -0.59249,1.14185c-0.3752,0.67817 -0.33704,1.2015 -0.52477,1.95334c-0.19763,0.79152 -0.36518,1.79708 -0.26945,2.70299c0.10034,0.07439 0.20668,0.1456 0.32235,0.21218l0.31822,0.6793c0,0 0,0.0677 -0.02176,0.15959c1.34873,-0.02199 2.7264,-0.08796 4.04738,0.13201c0.06232,0.01038 0.13298,0.02129 0.20947,0.0332zM316.59166,174.10547c0.0359,-0.67124 0.14981,-1.33763 0.30326,-1.95066c0.21236,-0.84839 0.22397,-1.48132 0.64787,-2.26817c0.18307,-0.33981 0.54098,-1.16882 0.81468,-1.43796c0.851,-0.83684 2.28483,-0.92734 3.39507,-0.89556c0.31844,0.00912 0.66142,-0.07519 0.95441,0.04989c0.55816,0.23827 0.85658,0.87158 1.14459,1.34553c0.72415,1.47581 0.883,3.39308 0.68534,5.16166c0.09022,-0.08145 0.17539,-0.16342 0.25047,-0.24684c1.35907,-1.51008 2.74932,-2.69788 4.93917,-2.67505c0.75347,0.00786 1.28137,-0.10123 1.83169,0.63835c0.38429,0.51645 0.34723,1.85763 0.34818,2.47964c0.00158,1.03517 0.02365,2.01891 -0.15763,3.0408c-0.57592,0.96263 -1.39864,1.56927 -2.3466,1.99325c0.53309,0.11706 1.05226,0.27608 1.65499,0.42758c0.69367,0.17435 1.10218,0.03008 1.64318,0.69504c0.21479,0.26401 0.2676,0.62797 0.35937,0.95571c0.58447,2.08732 -0.50263,3.42859 -2.46006,3.95726c-0.91454,0.24701 -1.6889,0.3717 -2.63209,0.37411c-0.71596,0 -1.49176,0.00738 -2.2432,-0.09402c0.57266,0.76512 1.0155,1.61419 0.77034,2.63804c-0.60467,2.52529 -3.71647,2.72258 -5.48082,1.43387c-0.75483,-0.55134 -1.13841,-1.28194 -1.51488,-2.0417c0.0346,0.60212 0.08441,1.28453 -0.04016,1.78048c-0.51382,2.04565 -3.19498,4.11393 -5.08835,2.30636c-0.40565,-0.38727 -0.95783,-1.428 -1.18739,-1.94854c-0.37387,-0.84776 -0.29549,-1.60326 -0.28397,-2.50158c0.37926,-1.03761 0.80195,-2.03609 1.44421,-2.90914c-0.22046,0.02385 -0.46358,0.02056 -0.74523,0.0441c-1.74154,0.14557 -3.24077,0.42396 -4.9519,-0.14867c-0.49718,-0.16638 -1.30529,-0.36868 -1.62442,-0.83924c-0.19528,-0.28795 -0.19773,-0.67186 -0.22868,-1.01841c-0.14715,-1.64749 1.2552,-2.09597 2.60159,-2.44803c0.97587,-0.25518 2.20741,-0.25239 3.21123,-0.25496c0.11903,0 0.23807,0.00003 0.3571,0.0001c-0.41622,-0.43044 -0.79703,-1.00693 -1.14601,-1.31883c-0.57828,-0.51683 -1.12004,-0.88444 -1.66804,-1.4321c-0.36392,-0.3637 -0.94025,-0.60623 -1.17471,-1.10166c-0.44201,-0.93402 -0.08811,-2.44033 0.84402,-2.9798c0.40323,-0.23337 1.67377,-0.22955 2.12478,-0.2023c0.11478,0.00693 1.72517,0.21242 1.88061,0.25369c0.9337,0.24789 1.87129,0.68558 2.73284,1.11583c0.0118,0.00728 0.02351,0.0146 0.03513,0.02195zM319.12867,177.52127c-0.22081,0.17335 -0.51768,0.13095 -0.51768,0.13095c-1.67704,-0.2694 -2.42339,0.69915 -2.41801,2.28275c0.00235,0.69098 -0.14306,1.27119 0.24846,1.87477c1.06937,1.64858 4.084,1.11214 5.54418,0.38747c1.06788,-0.81736 1.45024,-2.12718 1.45677,-3.43489c0.00157,-0.31489 0.19078,-0.73226 -0.04255,-0.94371c-0.26304,-0.23836 -0.70132,-0.11032 -1.05145,-0.16873c-1.04791,-0.17484 -2.14006,-0.15392 -3.21972,-0.12862z" fill="#000000"/><path d="M322.78061,176.40268c-0.07648,-0.01191 -0.14765,-0.02255 -0.20997,-0.03293c-1.32097,-0.21997 -2.71264,-0.15425 -4.06137,-0.13226c0.02176,-0.09188 0.02157,-0.15969 0.02157,-0.15969l-0.32023,-0.68073c-0.11567,-0.06657 -0.2231,-0.13881 -0.32343,-0.2132c-0.09573,-0.9059 0.06779,-1.92229 0.26542,-2.7138c0.18773,-0.75185 0.15428,-1.28518 0.52948,-1.96335c0.20759,-0.3752 0.29848,-0.83659 0.59683,-1.14459c0.57945,-0.59819 1.74518,-0.48009 2.47795,-0.51203c0.15169,-0.00661 0.30999,-0.09706 0.45415,-0.04938c0.28879,0.09552 0.34526,0.50467 0.49975,0.76669c0.89017,1.73565 0.69301,4.41704 0.16978,6.24833l0.00744,0.03886l-0.01465,-0.00241z" data-paper-data="{&quot;noHover&quot;:false,&quot;origItem&quot;:[&quot;Path&quot;,{&quot;applyMatrix&quot;:true,&quot;segments&quot;:[[305.66052,67.34884],[305.7029,67.3559],[[305.68119,67.24332],[0,0],[1.51736,-5.31077]],[[305.18906,49.19208],[2.58151,5.03341],[-0.44804,-0.75986]],[[303.74742,46.97288],[0.83749,0.27701],[-0.41805,-0.13827]],[[302.43441,47.11757],[0.4399,-0.01917],[-2.12507,0.09262]],[[295.27674,48.60126],[1.68041,-1.73475],[-0.86522,0.89319]],[[293.55851,51.91263],[0.60201,-1.08811],[-1.08809,1.96669]],[[292.03666,57.57738],[0.54442,-2.18036],[-0.57314,2.29541]],[[291.25528,65.4161],[-0.27762,-2.62715],[0.29099,0.21572]],[[292.19008,66.03142],[-0.33544,-0.19305],[0,0]],[293.11292,68.00139],[[293.04982,68.4642],[0.0631,-0.26647],[3.91136,-0.06376]],[[304.78731,68.84702],[-3.83086,-0.6379],[0.18074,0.0301]],[[305.39477,68.9433],[-0.22181,-0.03455],[0,0]]],&quot;closed&quot;:true}]}" fill="#ff00e0"/><path d="M324.73765,179.11517c0.00487,-0.11274 0.00649,-0.22703 0.00603,-0.34187c-0.00249,-0.62555 0.07214,-1.35898 -0.43057,-1.87653c-0.05405,-0.05564 -0.12426,-0.10603 -0.20552,-0.1503l0.28675,-0.43223l-0.00311,-0.00209c0.00387,-0.00366 0.00773,-0.00737 0.01159,-0.01104c0.31053,-0.29602 0.42515,-0.76432 0.7306,-1.06558c0.98629,-0.97275 1.88297,-2.11632 3.26695,-2.54491c0.21789,-0.06748 1.91535,-0.52384 2.08438,-0.13666c0.27826,0.63737 0.12493,1.7678 0.12493,2.45263c0,0.64004 0.01694,1.25929 -0.0774,1.89255c-1.11577,1.8486 -3.76301,1.60431 -5.53254,2.17282z" data-paper-data="{&quot;noHover&quot;:false,&quot;origItem&quot;:[&quot;Path&quot;,{&quot;applyMatrix&quot;:true,&quot;segments&quot;:[[[311.87603,76.68658],[0,0],[5.13168,-1.6487]],[[327.85618,70.40527],[-3.23577,5.361],[0.27358,-1.83646]],[[328.07919,64.94078],[0,1.85613],[0,-1.98602]],[[327.72866,57.84888],[0.80694,1.84838],[-0.49019,-1.12283]],[[321.69995,58.25493],[0.63189,-0.19568],[-4.01361,1.24294]],[[312.28018,65.60469],[2.86027,-2.82098],[-0.88581,0.87364]],[[310.16183,68.67777],[0.90054,-0.85845],[-0.01119,0.01067]],[[310.12819,68.70969],[0.01123,-0.01061],[0,0]],[310.13719,68.71569],[[309.30452,69.96469],[0,0],[0.23566,0.12839]],[[309.8997,70.39809],[-0.15674,-0.16137],[1.45786,1.50091]],[[311.13656,75.82297],[-0.00722,-1.81413],[0.00132,0.33304]],[[311.11738,76.81303],[0.01413,-0.32696],[0,0]]],&quot;closed&quot;:true}]}" fill="#ff00e0"/><path d="M323.11566,182.9068c0.69704,-0.69619 1.16487,-1.52527 1.41232,-2.44174l0.61408,-0.00129c1.56726,0.4107 3.25531,-0.21493 4.85832,0.3194c0.26801,0.08934 1.50924,0.23101 1.69143,0.49609c0.06322,0.09197 0.20814,1.03036 0.2104,1.05464c0.18016,1.93732 -2.52254,2.12356 -3.9314,2.11945c-1.05734,0 -2.47318,0.09056 -3.42413,-0.49606c-0.08878,-0.05477 -0.1735,-0.11714 -0.25534,-0.18193c-0.17325,-0.24088 -0.38423,-0.45427 -0.76081,-0.61736c-0.01584,-0.01024 -0.03184,-0.0204 -0.04796,-0.03022z" data-paper-data="{&quot;noHover&quot;:false,&quot;origItem&quot;:[&quot;Path&quot;,{&quot;applyMatrix&quot;:true,&quot;segments&quot;:[[[307.49318,88.47595],[0,0],[0.04677,0.02847]],[[307.63221,88.56322],[-0.04593,-0.02969],[1.09208,0.47298]],[[309.83606,90.3449],[-0.50243,-0.69857],[0.23732,0.1879]],[[310.57515,90.86944],[-0.25746,-0.15882],[2.75779,1.70122]],[[320.45805,92.2859],[-3.06629,0],[4.08573,0.0119]],[[331.82642,86.18181],[0.52245,5.61825],[-0.00655,-0.07043]],[[331.21783,83.13358],[0.18332,0.26673],[-0.52835,-0.76875]],[[326.31827,81.70704],[0.77723,0.25908],[-4.64873,-1.54958]],[[312.2964,80.78438],[4.54509,1.19104],[0,0]],[[310.51836,80.78438],[0,0],[-0.71763,2.65778]],[[306.4295,87.83775],[2.02142,-2.01897],[0,0]]],&quot;closed&quot;:true}]}" fill="#ff00e0"/><path d="M319.61084,184.14692c0.82792,-0.073 1.65693,-0.27907 2.36626,-0.54823c0.05715,0.12214 0.15212,0.22362 0.26832,0.29062l0.53815,0.32103c0.09112,0.23854 0.42872,0.29771 0.59922,0.48873c0.68687,0.76952 1.62888,1.79826 1.84054,2.85122c0.29359,1.46056 -1.81525,2.02603 -2.84417,1.53726c-1.38507,-0.65795 -1.59102,-2.03105 -2.37663,-3.18168c-0.06508,-0.44546 -0.17714,-0.8896 -0.31898,-1.31691z" data-paper-data="{&quot;noHover&quot;:false,&quot;origItem&quot;:[&quot;Path&quot;,{&quot;applyMatrix&quot;:true,&quot;segments&quot;:[[[296.46939,92.74387],[0,0],[0.41132,1.23921]],[[297.40063,96.54831],[-0.18874,-1.29183],[2.27829,3.33686]],[[304.25243,105.72413],[-4.01673,-1.90808],[2.98389,1.41745]],[[312.46057,101.29253],[0.85142,4.23565],[-0.61381,-3.05361]],[[307.1418,93.07665],[1.99195,2.23163],[-0.49446,-0.55396]],[[305.41777,91.66406],[0.26423,0.69179],[0,0]],[[303.86682,90.73349],[0,0],[-0.33698,-0.1943]],[[303.0923,89.89026],[0.16574,0.35423],[-2.0571,0.78057]],[[296.25625,91.465],[2.401,-0.2117],[0,0]]],&quot;closed&quot;:true}]}" fill="#ff00e0"/><path d="M316.54448,183.62817c0.51313,0.28099 1.10727,0.44334 1.72349,0.50946l-0.08727,0.618l0.01048,0.00152c-0.00527,0.01485 -0.01035,0.02981 -0.01533,0.04478c-0.43565,1.30801 0.349,3.03968 0.01807,4.37329c-0.23345,0.94078 -1.86039,2.82452 -2.90031,1.68498c-0.86003,-0.94242 -1.09758,-2.09812 -1.11917,-3.30241c0.41022,-1.0574 0.89068,-2.14909 1.70752,-2.95229l0.47139,-0.46916c0.11861,-0.11861 0.19265,-0.28243 0.19265,-0.46343c0,-0.01504 -0.00052,-0.02996 -0.00152,-0.04475z" data-paper-data="{&quot;noHover&quot;:false,&quot;origItem&quot;:[&quot;Path&quot;,{&quot;applyMatrix&quot;:true,&quot;segments&quot;:[[[287.33175,90.10586],[0,-0.04361],[0,0.52489]],[[286.77503,91.44992],[0.34397,-0.34397],[0,0]],[[285.41475,92.81019],[0,0],[-2.36886,2.3293]],[[280.49988,101.32721],[1.18964,-3.06647],[0.06261,3.49245]],[[283.71441,110.86627],[-2.49412,-2.73304],[3.0158,3.30469]],[[292.08275,105.99245],[-0.67701,2.72828],[0.9597,-3.8675]],[[292.03669,93.3718],[-1.2634,3.79325],[0.01446,-0.04342]],[[292.0813,93.24207],[-0.01527,0.04307],[0,0]],[292.05101,93.23774],[[292.30678,91.44733],[0,0],[-1.78705,-0.19173]],[[287.32739,89.97611],[1.48808,0.81487],[0.00289,0.04288]]],&quot;closed&quot;:true}]}" fill="#ff00e0"/><path d="M316.87528,176.44251c-0.06507,0.02678 -0.13383,0.05687 -0.20693,0.08986c-1.09454,0.49383 -1.71589,1.73869 -1.87084,3.03255l-0.0804,-0.08015l-0.08376,0.08348c-0.55593,-0.76425 -1.22031,-1.4572 -1.95279,-2.10528c-0.57747,-0.51093 -1.0828,-0.85978 -1.61869,-1.39602c-0.28627,-0.28646 -0.73477,-0.42464 -0.93538,-0.77645c-0.16044,-0.28136 0.02591,-1.10377 0.33112,-1.24563c0.70394,-0.32719 2.32403,-0.01405 3.0415,0.17827c0.8266,0.22157 1.6758,0.61973 2.43904,1.0019c0.30248,0.1741 0.54069,0.38604 0.77464,0.59914c0.04172,0.20972 0.09577,0.41818 0.16249,0.61833z" data-paper-data="{&quot;noHover&quot;:false,&quot;origItem&quot;:[&quot;Path&quot;,{&quot;applyMatrix&quot;:true,&quot;segments&quot;:[[[287.77834,67.3137],[0.121,0.60819],[-0.67844,-0.61798]],[[285.5365,65.58681],[0.8772,0.50489],[-2.21341,-1.1083]],[[278.49879,62.70149],[2.39716,0.64256],[-2.08067,-0.55773]],[[269.71037,62.17038],[2.04144,-0.94887],[-0.88513,0.41141]],[[268.75737,65.77136],[-0.46529,-0.81595],[0.58179,1.02025]],[[271.47193,68.01761],[-0.83021,-0.83074],[1.5541,1.5551]],[[276.15651,72.02617],[-1.67466,-1.48171],[2.12419,1.87946]],[[281.77256,78.12111],[-1.61222,-2.21635],[0,0]],[282.01406,77.87961],[[282.24671,78.11225],[0,0],[0.44935,-3.75222]],[[287.64798,69.35869],[-3.17421,1.43212],[0.21199,-0.09565]],[[288.24814,69.09905],[-0.18872,0.07768],[-0.19349,-0.58042]]],&quot;closed&quot;:true}]}" fill="#ff00e0"/><path d="M314.85254,181.17179c0.09276,0.49816 0.26024,0.96572 0.49923,1.34554c0.11277,0.17923 0.23876,0.34348 0.37663,0.49042l-0.68161,-0.08499l-0.00277,0.02207c-0.04737,-0.0094 -0.09508,-0.01737 -0.14314,-0.02381c-0.25826,-0.03459 -0.48767,0.19904 -0.74466,0.24202c-1.3286,0.22219 -3.12906,0.46776 -4.45425,0.12918c-0.22296,-0.05697 -0.43678,-0.15004 -0.65519,-0.2225c-0.32014,-0.10621 -0.77588,-0.05036 -0.95585,-0.33563c-0.44511,-0.70552 0.24979,-0.96062 0.73255,-1.12894c1.23104,-0.42921 2.48411,-0.56173 3.79035,-0.55793c0.44975,0 0.90431,0.00458 1.35406,0.00347l0.77587,0.11275c0.03382,0.00538 0.06858,0.00838 0.10393,0.00838c0.00162,0 0.00324,0 0.00487,-0.00001z" data-paper-data="{&quot;noHover&quot;:false,&quot;origItem&quot;:[&quot;Path&quot;,{&quot;applyMatrix&quot;:true,&quot;segments&quot;:[[[282.37035,82.82479],[0.00471,0],[-0.10249,0]],[[282.06917,82.80106],[0.09809,0.01562],[0,0]],[[279.82189,82.48002],[0,0],[-1.30428,0.00324]],[[275.90904,82.48472],[1.30428,0],[-3.78812,-0.01103]],[[264.98106,84.07609],[3.57004,-1.24472],[-1.4,0.48812]],[[262.85727,87.33577],[-1.29083,-2.04602],[0.52193,0.82729]],[[265.62792,88.30262],[-0.92841,-0.30802],[0.63342,0.21015]],[[267.52544,88.94127],[-0.6466,-0.16521],[3.84306,0.98191]],[[280.36553,88.56969],[-3.85299,0.64436],[0.74528,-0.12464]],[[282.52312,87.87426],[-0.74894,-0.10032],[0.1394,0.01867]],[[282.93822,87.94342],[-0.13738,-0.02724],[0,0]],[282.94618,87.87969],[[284.92276,88.12676],[0,0],[-0.39983,-0.42614]],[[283.82987,86.7094],[0.32705,0.51976],[-0.69308,-1.10147]],[[282.38447,82.82474],[0.269,1.44468],[-0.0047,0.00003]]],&quot;closed&quot;:true}]}" fill="#ff00e0"/><path d="M322.35859,177.6395c0.35013,0.05841 0.79032,-0.06733 1.05336,0.17102c0.23334,0.21144 0.04555,0.63152 0.04398,0.9464c-0.00653,1.3077 -0.39177,2.63286 -1.45965,3.45022c-1.46018,0.72466 -4.49863,1.25741 -5.56799,-0.39117c-0.39152,-0.60358 -0.24747,-1.19108 -0.24982,-1.88205c-0.00538,-1.5836 0.74915,-2.56422 2.42619,-2.29482c0,0 0.29946,0.04145 0.52027,-0.1319c1.07966,-0.02531 2.18577,-0.04254 3.23368,0.1323z" data-paper-data="{&quot;noHover&quot;:false,&quot;origItem&quot;:[&quot;Path&quot;,{&quot;applyMatrix&quot;:true,&quot;segments&quot;:[[[294.82509,72.22388],[3.13102,-0.0734],[-0.64036,0.50273]],[[293.32381,72.60362],[0,0],[-4.86345,-0.78127]],[[286.31155,79.22366],[-0.01561,-4.59248],[0.00681,2.00385]],[[287.03207,84.66053],[-1.13541,-1.7504],[3.1012,4.78094]],[[303.11032,85.78421],[-4.23455,2.10154],[3.09686,-2.37036]],[[307.335,75.82297],[-0.01893,3.79236],[0.00456,-0.91317]],[[307.21159,73.08621],[0.67668,0.61319],[-0.76282,-0.69125]],[[304.16233,72.59686],[1.01539,0.16941],[-3.03896,-0.50702]]],&quot;closed&quot;:true}]}" fill="#ffd200"/></g><path d="M328.99643,171.70812c-0.48014,-0.57617 0.09602,-1.0563 0.09602,-1.0563l1.14895,-0.95546c0.60625,-0.38716 1.36788,-0.5742 1.85389,-1.1045c1.41253,-1.54125 -2.0323,-1.0511 -2.66283,-0.62833c-1.74551,1.17035 -2.82067,2.81538 -4.07891,4.46078c0,0 -0.45558,0.59578 -1.05136,0.14019c-0.59577,-0.45559 -0.14018,-1.05136 -0.14018,-1.05136c1.45655,-1.90472 3.16161,-4.7581 5.66415,-5.44977c2.04652,-0.56563 5.36956,0.65055 3.52003,3.3563c-0.113,0.1653 -1.75344,1.19224 -2.22018,1.48809l-1.07328,0.89639c0,0 -0.57617,0.48014 -1.05631,-0.09603z" fill="#000000" fill-rule="nonzero" stroke-width="0.5" stroke-linecap="butt" stroke-linejoin="miter"/><path d="M314.15529,187.73358c0.62404,0.41602 0.20801,1.04006 0.20801,1.04006l-0.27889,0.39208c-1.35951,1.32308 -5.46222,3.55775 -6.95794,1.06715c-0.21887,-0.36445 0.30715,-1.68995 0.43382,-2.09847c0.94401,-3.04444 2.79266,-4.40587 5.40811,-6.05905c0,0 0.63412,-0.4005 1.03462,0.23362c0.40049,0.63412 -0.23363,1.03461 -0.23363,1.03461c-2.31337,1.45987 -3.95629,2.55179 -4.77708,5.23725c-0.11295,0.36956 -0.75027,0.76213 -0.4921,1.04968c0.91956,1.02421 3.94947,-0.92995 4.52354,-1.52544l0.09148,-0.16347c0,0 0.41602,-0.62404 1.04006,-0.20801z" fill="#000000" fill-rule="nonzero" stroke-width="0.5" stroke-linecap="butt" stroke-linejoin="miter"/></g></g></svg>