<svg version="1.1" xmlns="http://www.w3.org/2000/svg" xmlns:xlink="http://www.w3.org/1999/xlink" width="220.18509" height="323.36746" viewBox="0,0,220.18509,323.36746"><g transform="translate(-192.24062,-63.25815)"><g data-paper-data="{&quot;isPaintingLayer&quot;:true}" fill-rule="nonzero" stroke-width="2" stroke-linejoin="miter" stroke-miterlimit="10" stroke-dasharray="" stroke-dashoffset="0" style="mix-blend-mode: normal"><g><path d="M353.32424,238.56258c1.13366,-4.29563 1.60283,-11.56126 4.6174,-14.00129c5.7151,-4.62588 22.49625,0.45637 26.96937,13.14241c0.73272,2.07801 2.04191,6.7665 -0.14221,6.88158c-0.47703,0.02512 -2.8751,-1.45055 -3.00612,-0.81144c-0.04303,0.2099 2.28125,3.97402 2.51173,4.61183c1.22908,3.40149 1.7362,7.37705 0.10892,9.36783c-1.59585,1.95237 -6.00307,-3.27111 -6.76703,-2.55655c-1.14726,1.07306 1.21275,9.36641 -5.38669,7.66249c-3.57087,-0.92197 -9.57323,-9.83915 -9.89935,-9.9151c-1.69361,-0.39446 -3.52504,5.31317 -9.40042,0.45387c-5.40373,-4.46924 -3.15602,-13.89295 0.09087,-15.01307z" fill="#feed00" stroke="#000000" stroke-linecap="round"/><path d="M374.25109,236.89538c0.41021,1.95588 0.04938,3.55968 -0.83924,4.60976c-0.9836,1.16233 -3.41852,-1.03738 -5.36551,-1.50505c-2.03192,-0.48808 -3.18232,0.77228 -4.67641,-1.09316c-1.23093,-1.53687 -2.149,-3.37386 -2.53939,-5.23528c-0.86426,-4.1208 1.43941,-6.73974 5.1454,-5.84952c3.70599,0.89022 7.41088,4.95245 8.27514,9.07325z" fill="#ffa600" stroke="none" stroke-linecap="butt"/><path d="M358.46132,249.17908c0.69852,2.2535 -0.34578,3.91692 -2.33248,3.71539c-1.9867,-0.20155 -4.1635,-2.19176 -4.86201,-4.44526c-0.69852,-2.2535 0.34578,-3.91692 2.33247,-3.7154c1.9867,0.20155 4.16352,2.19176 4.86202,4.44525z" fill="#ffa600" stroke="none" stroke-linecap="butt"/><path d="M375.3405,257.26732c0.68919,2.22345 -0.34252,3.86458 -2.3044,3.66554c-1.96188,-0.19902 -4.11101,-2.16284 -4.8002,-4.38629c-0.68919,-2.22345 0.34252,-3.86458 2.30439,-3.66554c1.96188,0.19902 4.11101,2.16284 4.8002,4.38629z" fill="#ffa600" stroke="none" stroke-linecap="butt"/><path d="M383.55219,251.72449c0.67988,2.19341 -0.07753,3.83876 -1.69172,3.67501c-1.6142,-0.16376 -3.47392,-2.07462 -4.1538,-4.26802c-0.67988,-2.19341 0.07753,-3.83876 1.69172,-3.67501c1.6142,0.16376 3.4739,2.0746 4.1538,4.26802z" fill="#ffa600" stroke="none" stroke-linecap="butt"/><path d="M384.02396,238.07205c0.64264,2.07322 0.27778,3.66401 -0.81491,3.55317c-1.09269,-0.11087 -2.49943,-1.88137 -3.14207,-3.9546c-0.64264,-2.07322 -0.27778,-3.66401 0.81491,-3.55317c1.09269,0.11087 2.49943,1.88137 3.14207,3.9546z" fill="#ffa600" stroke="none" stroke-linecap="butt"/></g><path d="M319.37583,287.6521c-5.53284,6.52132 -17.46776,9.25882 -25.71822,10.48668c-24.95588,3.714 -59.30367,-1.40208 -73.31606,-25.77379c-9.47723,-16.48372 -2.00268,-34.55793 7.3081,-48.98766c3.53235,-5.4744 11.64908,-15.80226 18.68617,-10.04018c1.87267,1.53338 3.07254,3.61181 3.08923,6.09821c0.03607,5.37149 -6.13828,9.79511 -8.41636,14.41213c-6.88353,13.95092 -5.52886,29.40634 7.72921,38.70949c14.03769,9.8502 33.16077,6.36358 46.64173,-2.47488c6.96873,-4.56889 12.62153,-11.65883 21.30487,-13.34356c25.74435,-4.99492 16.47751,21.52533 3.92253,30.65283z" fill="#feed00" stroke="#000000" stroke-linecap="round"/><path d="M310.75586,286.62085c5.13426,-2.56936 11.64341,-6.95773 16.47544,-10.22707c5.2686,-3.56471 13.36826,-6.37614 19.18589,-9.15094c3.41738,-1.62995 10.80019,-6.11512 14.16617,-6.01389c2.17884,0.06553 3.1881,2.46212 4.18763,3.46587c3.71419,3.72998 5.19158,9.04717 8.95042,12.86397c4.44028,4.50871 5.31148,10.87682 8.73446,16.03971c6.39884,9.65141 12.25848,19.76069 13.15952,32.18725c0.39403,5.43405 10.46598,7.40481 3.80469,14.0188c-2.35884,2.34207 -6.37532,12.00233 -9.52173,13.50305c-4.56448,2.1771 -12.24485,0.35259 -18.30563,2.03281c-7.7171,2.1394 -15.23118,10.55393 -21.20598,11.70024c-2.99071,0.57379 -7.88286,-0.6906 -10.0965,-1.77154c-2.77487,-1.35501 -4.41544,-12.74931 -5.63682,-15.7698c-6.0063,-14.85367 -10.55397,-22.45289 -16.56794,-37.31847c-1.97615,-4.88474 -9.8965,-20.25714 -8.61051,-24.94817z" fill="#3c2c1f" stroke="#000000" stroke-linecap="round"/><g><path d="M297.01109,270.58923c2.91386,-1.81831 11.65189,2.36561 11.72431,9.37768c0.07872,7.62408 -5.50944,5.45531 -6.26876,7.01972c-0.14623,0.30125 3.00609,10.57777 1.4753,13.93305c-2.82908,6.20098 -7.78888,-0.85237 -9.34479,-0.63613c-1.03611,0.144 0.24962,6.8563 -2.27198,6.8678c-2.57118,0.01173 -5.34157,-2.88434 -7.21147,-5.98019c-0.35063,-0.58052 -1.8131,-4.75568 -2.00329,-4.85434c-0.57913,-0.30041 -0.94151,2.4919 -1.26126,2.84681c-1.46399,1.62493 -4.28364,-2.34312 -5.4374,-4.22031c-7.04362,-11.46 -0.43219,-27.6996 6.75946,-29.22976c3.79342,-0.80711 9.73502,3.40083 13.78676,5.22322z" fill="#feed00" stroke="#000000" stroke-linecap="round"/><path d="M280.64904,274.00945c1.64051,-3.44029 5.12554,-3.58237 7.78405,-0.31735c1.2009,1.47487 2.05069,3.3444 2.47038,5.26819c0.5094,2.3351 -1.19406,2.4359 -2.09351,4.32215c-0.86187,1.80741 -0.68481,5.084 -2.20709,5.11689c-1.37531,0.02973 -2.84874,-0.69917 -4.11056,-2.24889c-2.6585,-3.26504 -3.48375,-8.70071 -1.84325,-12.141z" fill="#ffa600" stroke="none" stroke-linecap="butt"/><path d="M301.58075,275.03433c1.09367,-1.67078 3.04359,-1.43546 4.35526,0.5256c1.31167,1.96106 1.48838,4.90522 0.39471,6.576c-1.09367,1.67078 -3.0436,1.43548 -4.35527,-0.52556c-1.31167,-1.96106 -1.48838,-4.90522 -0.39469,-6.576z" fill="#ffa600" stroke="none" stroke-linecap="butt"/><path d="M297.25059,293.32708c1.08001,-1.64988 3.00469,-1.41884 4.29885,0.51605c1.29417,1.93489 1.46779,4.84095 0.38777,6.49083c-1.08001,1.64988 -3.00469,1.41884 -4.29885,-0.51605c-1.29417,-1.93489 -1.46779,-4.84095 -0.38777,-6.49083z" fill="#ffa600" stroke="none" stroke-linecap="butt"/><path d="M287.46026,296.79709c0.88862,-1.3575 2.64394,-0.91063 3.92064,0.99812c1.27669,1.90875 1.59128,4.55657 0.70266,5.91409c-0.88862,1.3575 -2.64394,0.91063 -3.92064,-0.99812c-1.27669,-1.90875 -1.59128,-4.55657 -0.70266,-5.91409z" fill="#ffa600" stroke="none" stroke-linecap="butt"/><path d="M276.16046,289.55522c0.60153,-0.91894 2.06741,-0.20131 3.27414,1.60285c1.20674,1.80415 1.69735,4.01166 1.09582,4.93058c-0.60153,0.91894 -2.06741,0.20131 -3.27414,-1.60285c-1.20674,-1.80415 -1.69734,-4.01164 -1.09582,-4.93058z" fill="#ffa600" stroke="none" stroke-linecap="butt"/></g><path d="M290.32116,252.74842c1.23608,6.44407 5.89723,17.03752 4.50486,23.44083c-1.11046,5.10682 -20.93797,7.62567 -24.90056,5.26317c-1.3783,-0.82173 -4.42899,-18.09909 -4.85186,-20.59868c-3.24408,-19.1765 -4.95779,-38.05098 -6.84155,-57.4631c-0.51716,-5.32933 1.92153,-10.29762 1.59299,-15.38074l1.08011,-0.46566c12.89366,-3.25038 26.01044,-3.01001 37.84065,-10.38084c4.73462,-2.94991 7.57399,-6.45575 9.55753,-11.66612c0.45351,-1.19128 1.95181,-4.24873 3.673,-4.00715c3.87389,0.54374 9.203,7.17363 12.24968,9.54846c12.56477,9.79394 23.65292,21.81407 33.34209,34.47415c2.83659,3.70635 10.26907,7.93424 11.22208,12.55303c1.11609,5.40927 -4.17339,15.20325 -6.42026,20.07222c-0.62529,1.35501 -1.66536,6.14368 -3.78355,5.03011c-2.95097,-1.55139 -13.26946,-19.04754 -13.26946,-19.04754c0,0 7.56348,14.14035 11.79348,20.91766c2.07464,3.32398 6.57615,8.27974 6.51323,12.47768c-0.04795,3.19751 -7.77263,7.84698 -10.24207,9.37631c-9.98908,6.18622 -21.83463,9.33811 -31.79912,15.55446c-3.23879,2.0205 -10.68393,8.70386 -14.51537,8.51341c-2.04203,-0.10152 -3.55974,-5.46385 -4.31188,-7.04077c-3.31123,-6.94235 -8.18791,-14.40233 -10.0724,-21.85554" fill="#fffe8a" stroke="#000000" stroke-linecap="round"/><path d="M262.75132,177.42221c11.62451,-8.28213 22.85662,-16.46113 36.31765,-21.63035c2.8707,-1.10238 13.02226,-4.68113 14.32148,-0.06789c1.76575,6.26984 -2.47664,11.98663 -7.13358,15.75817c-8.39536,6.79918 -30.42666,18.21867 -41.32913,17.31858c-7.75926,-0.64057 -9.4044,-8.17256 -2.14012,-11.63735z" fill="#fffe8a" stroke="#000000" stroke-linecap="round"/><g stroke-linecap="round"><path d="M236.42118,110.84708c-9.0259,9.91311 -4.54606,22.2298 -2.85172,33.86627c0.18621,1.27882 2.07696,12.42928 0.83774,12.82949c-0.5145,0.16616 -0.78004,-0.75061 -1.13824,-1.15558c-2.85133,-3.22345 -6.00754,-6.19244 -8.88882,-9.40921c-7.19065,-8.02782 -13.60689,-16.78519 -19.90818,-25.54196c-1.8095,-2.51459 -6.46651,-8.0036 -6.58729,-11.14122c-0.0774,-2.0106 0.79003,-1.5402 2.15781,-1.59209c7.02829,-0.26661 14.04856,-0.21414 21.07838,-0.1589c5.16244,0.04056 11.18866,-0.51544 16.03861,1.50341z" fill="#feed00" stroke="#000000"/><path d="M231.90295,116.06748c-5.3826,7.07642 -1.70283,14.95067 0.09707,22.53849c0.1978,0.83389 2.09902,8.08915 1.30384,8.42603c-0.33016,0.13986 -0.55917,-0.45023 -0.81949,-0.69679c-2.0721,-1.96258 -4.33072,-3.73928 -6.42223,-5.6957c-5.21961,-4.8825 -9.97034,-10.29225 -14.64508,-15.70828c-1.3424,-1.55528 -4.73985,-4.90886 -5.00316,-6.97447c-0.16875,-1.32366 0.43179,-1.06364 1.33232,-1.17793c4.62722,-0.58721 9.26779,-0.96316 13.91484,-1.33786c3.41262,-0.27516 7.36096,-0.99495 10.68288,0.05502z" fill="#ffa700" stroke="none"/></g><g stroke-linecap="round"><path d="M268.18479,96.56095c1.19608,-5.11541 5.16898,-9.68053 8.153,-13.89339c4.06341,-5.73674 8.12346,-11.46412 12.44714,-17.01152c0.84144,-1.07959 0.96666,-2.0584 2.55296,-0.82058c2.47548,1.93163 4.20805,8.91843 5.19109,11.8563c3.42331,10.23073 6.77997,20.5551 9.09206,31.08151c0.92646,4.21795 1.49123,8.5142 2.44061,12.71174c0.11928,0.52735 0.70804,1.27857 0.27252,1.59896c-1.04897,0.77167 -8.99221,-7.27893 -9.92112,-8.17737c-8.45238,-8.17527 -15.82898,-19.00838 -29.14784,-17.47741z" fill="#feed00" stroke="#000000"/><path d="M275.42042,95.83745c1.08932,-3.30921 3.98081,-6.0925 6.19843,-8.70093c3.01979,-3.55196 6.03681,-7.09792 9.21747,-10.50956c0.61899,-0.66396 0.75897,-1.3032 1.73446,-0.39273c1.52228,1.42082 2.25814,6.13755 2.73568,8.13577c1.663,6.95854 3.27648,13.97505 4.18811,21.06392c0.36529,2.84053 0.48708,5.7116 0.86871,8.53997c0.04793,0.35533 0.39293,0.88603 0.08651,1.07222c-0.73809,0.44842 -5.5144,-5.33437 -6.07547,-5.98219c-5.10538,-5.89489 -9.34461,-13.48258 -18.23248,-13.25027z" fill="#ffa700" stroke="none"/></g><path d="M250.01572,101.84274c9.42159,-4.49374 20.27127,-10.78099 30.60626,-6.58824c8.94005,3.62684 11.37895,9.55349 16.83683,16.34302c1.67626,2.08524 4.21677,3.00662 5.7475,5.48234c9.2809,15.01051 10.725,38.23981 -7.49797,49.45137c-15.26257,9.3902 -35.85107,15.16183 -51.61884,5.55987c-9.84577,-5.9957 -11.48526,-19.71922 -12.71991,-29.59656c-0.4784,-3.82717 -3.33703,-7.20382 -3.71107,-11.29c-1.46432,-15.99659 9.74436,-23.04247 22.79423,-29.26676z" fill="#feed00" stroke="#000000" stroke-linecap="round"/><path d="M301.95885,122.64114c4.03826,-1.49419 16.06687,-2.33403 14.69009,4.99374c-0.35823,1.9066 -5.48746,5.24861 -5.30272,6.49194c0.13855,0.93242 1.64485,0.96098 2.31568,1.62322c1.79502,1.77206 3.81326,4.71317 4.57112,7.13168c2.08503,6.65376 -8.53857,7.77827 -12.49507,6.41357" fill="#feed00" stroke="#000000" stroke-linecap="round"/><path d="M254.24252,176.97255c-1.42941,3.93358 -8.98914,11.4818 -12.84781,5.67402c-1.40255,-2.111 -2.41801,-5.53043 -2.66545,-8.04058c-0.09248,-0.93812 0.83329,-2.12669 0.19588,-2.82115c-0.84995,-0.92606 -6.67517,0.95679 -8.38229,0.03529c-6.56111,-3.54171 1.66162,-12.36098 5.36423,-14.55887" fill="#feed00" stroke="#000000" stroke-linecap="round"/><path d="M193.24062,154.44234c13.01591,-5.97011 27.19149,-1.03748 40.51244,-0.04861" fill="none" stroke="#000000" stroke-linecap="round"/><path d="M203.71035,165.21196c9.15926,-5.81283 20.52843,-7.47253 30.8897,-9.859" fill="none" stroke="#000000" stroke-linecap="round"/><path d="M211.21735,170.39742c7.14289,-5.20817 14.75158,-10.53824 22.74078,-14.34879" fill="none" stroke="#000000" stroke-linecap="round"/><path d="M303.74789,119.45091c3.95657,-11.17262 8.03392,-24.45619 19.436,-29.9129" fill="none" stroke="#000000" stroke-linecap="round"/><path d="M301.74647,121.37924c6.52355,-11.78678 15.96761,-15.86494 28.61434,-17.76992" fill="none" stroke="#000000" stroke-linecap="round"/><path d="M305.52487,121.13504c6.2825,-6.80846 17.54794,-8.3543 26.36284,-7.77063" fill="none" stroke="#000000" stroke-linecap="round"/><path d="M268.46298,148.37464c3.35765,-1.60146 6.78905,-3.50534 10.32067,-4.67958c0.44824,-0.14902 1.08762,-0.67677 1.38316,-0.30826c0.38712,0.48271 -4.00481,6.75928 -4.72194,7.0381c-1.61261,0.62698 -5.41378,-1.30204 -6.60456,-2.23022z" fill="#000000" stroke="#000000" stroke-linecap="round"/><path d="M261.30017,131.11766c3.04714,6.38865 -1.67323,7.39427 -7.96509,10.39524c-6.29186,3.00099 -11.77259,6.8609 -14.81974,0.47224c-3.04714,-6.38865 -0.41679,-14.00045 5.87506,-17.00141c6.29186,-3.00099 13.86261,-0.25472 16.90976,6.13393z" fill="#ffffff" stroke="#000000" stroke-linecap="butt"/><path d="M292.77049,115.63942c3.04714,6.38865 -1.76184,8.3206 -8.05369,11.32158c-6.29186,3.00099 -11.68397,5.93455 -14.73112,-0.4541c-3.04714,-6.38865 -0.41679,-14.00045 5.87506,-17.00141c6.29186,-3.00099 13.86261,-0.25472 16.90974,6.13394z" fill="#ffffff" stroke="#000000" stroke-linecap="butt"/><path d="M254.23919,134.61035c2.17653,4.56333 -0.90817,6.50874 -5.29598,8.60155c-4.3878,2.09282 -8.41715,3.54054 -10.59368,-1.02279c-2.17653,-4.56333 -0.38392,-9.95919 4.00389,-12.05201c4.3878,-2.09282 9.70926,-0.09008 11.88579,4.47325z" fill="#ffffff" stroke="#000000" stroke-linecap="butt"/><path d="M287.16803,119.10039c2.17653,4.56333 -0.85275,7.36637 -5.24055,9.45918c-4.3878,2.09282 -8.47259,2.68291 -10.64912,-1.88042c-2.17653,-4.56333 -0.38392,-9.95919 4.00389,-12.05201c4.3878,-2.09282 9.70926,-0.09008 11.88579,4.47325z" fill="#ffffff" stroke="#000000" stroke-linecap="butt"/><path d="M236.61909,114.94245c-1.04915,-3.59514 1.80356,-6.24348 4.53379,-8.94974c0.30239,-0.29973 2.88436,-2.79228 2.59461,-3.2041c-0.52712,-0.74917 -5.01022,2.11174 -5.23665,0.03373c-0.30412,-2.79098 9.49638,-6.77818 11.54516,-7.75561c0.29508,-0.14077 3.84894,-1.67921 3.83522,-1.83426c-0.05877,-0.66443 -6.80962,0.26503 -6.76604,-0.67453c0.0238,-0.51354 4.97392,-1.13999 5.4783,-1.18124c6.608,-0.54053 9.53838,2.27586 14.73171,4.74094" fill="#feed00" stroke="#000000" stroke-linecap="round"/><path d="M231.59961,135.90704c-2.64075,-0.02818 -3.54359,-1.8885 -5.90211,-2.63419c-1.20418,-0.38071 -5.89517,1.18722 -6.50738,-0.30938c-0.80525,-1.96851 4.21389,-5.27148 5.17972,-6.30127c0.67995,-0.72497 -4.12089,-7.58291 5.69004,-6.25084" fill="#feed00" stroke="#000000" stroke-linecap="round"/><path d="M291.46531,220.04696c1.34058,-0.06993 4.33306,-1.78091 5.42953,-0.60004c3.67746,3.96045 2.05458,9.85942 -2.76475,11.0157c-3.20914,0.76997 -2.62022,-11.22039 -2.62022,-11.22039c0,0 -9.93216,-21.57233 -12.616,-33.03599" fill="#ffaf36" stroke="#000000" stroke-linecap="round"/><path d="M315.85923,209.08173c4.04742,-13.7883 15.27054,12.63196 3.00825,9.54849c-6.63914,-1.66947 -2.47031,-8.12164 -3.09873,-10.61188c-2.96626,-11.75444 -12.9559,-21.09719 -14.89884,-33.52249" fill="#ffaf36" stroke="#000000" stroke-linecap="round"/><path d="M294.247,253.77322c1.97693,-4.08203 6.18493,-5.50811 9.69631,-7.9193c11.3254,-7.77691 25.3899,-13.4908 38.54746,-17.33547" fill="none" stroke="#000000" stroke-linecap="round"/><path d="M357.71095,255.44753c-3.9259,-7.98658 -9.278,-15.42579 -11.77422,-24.10999" fill="none" stroke="#000000" stroke-linecap="round"/><path d="M296.53048,257.39804c3.66602,7.68619 7.71388,15.11968 11.19011,22.87635" fill="none" stroke="#000000" stroke-linecap="round"/><path d="M270.24051,184.72961c-2.76107,0.29973 -5.47491,-1.25753 -8.2653,-1.52445" fill="none" stroke="#fcec41" stroke-linecap="round"/><path d="M307.88493,164.19043c1.00387,-1.68048 2.00967,-3.1108 3.33926,-4.55171" fill="none" stroke="#fcec41" stroke-linecap="round"/><path d="M287.75642,187.57386l4.1261,8.65079" fill="none" stroke="#fcec41" stroke-linecap="round"/><path d="M292.33028,189.01826l2.11337,4.4309" fill="none" stroke="#fcec41" stroke-linecap="round"/><path d="M295.39458,187.29772l2.24316,3.07402" fill="none" stroke="#fcec41" stroke-linecap="round"/><path d="M286.5935,278.33038l-4.30732,-39.26206l9.28756,36.33209z" fill="#fce541" stroke="#fcec41" stroke-linecap="round"/><path d="M286.5935,278.33038l-4.30732,-39.26206l9.28756,36.33209z" fill="#fce541" stroke="#fcec41" stroke-linecap="round"/><path d="M359.64805,238.48155l-19.4755,-23.97262l22.57534,17.10026z" fill="#fce541" stroke="#fcec41" stroke-linecap="round"/><path d="M372.08838,354.10248l-32.41128,-69.57431" fill="none" stroke="#000000" stroke-linecap="round"/><path d="M377.8697,360.62137c3.73256,7.8257 -1.20683,17.96879 -11.03241,22.65523c-9.8256,4.68644 -20.81664,2.14157 -24.5492,-5.68414c-3.73256,-7.8257 1.20683,-17.96879 11.03241,-22.65523c9.8256,-4.68644 20.81664,-2.14157 24.5492,5.68414z" fill="#000000" stroke="#000000" stroke-linecap="butt"/><path d="M410.18011,339.37419c3.73257,7.8257 -1.20683,17.96879 -11.03243,22.65522c-9.82559,4.68644 -20.81664,2.14157 -24.5492,-5.68414c-3.73257,-7.8257 1.20683,-17.96879 11.03241,-22.65523c9.8256,-4.68644 20.81665,-2.14158 24.54922,5.68414z" fill="#000000" stroke="#000000" stroke-linecap="butt"/><path d="M275.00433,170.60991l-2.8912,-6.06167l17.50395,-8.34872l2.8912,6.06167c0,0 -7.88825,-2.42612 -10.82158,-1.02704c-2.90097,1.38365 -6.68237,9.37577 -6.68237,9.37577z" fill="none" stroke="#000000" stroke-linecap="butt"/></g></g></svg>