<svg version="1.1" xmlns="http://www.w3.org/2000/svg" xmlns:xlink="http://www.w3.org/1999/xlink" width="202.96236" height="284.36938" viewBox="0,0,202.96236,284.36938"><defs><linearGradient x1="334.20686" y1="174.78618" x2="332.03651" y2="353.60538" gradientUnits="userSpaceOnUse" id="color-1"><stop offset="0" stop-color="#fbc74c"/><stop offset="1" stop-color="#fa954b"/></linearGradient><linearGradient x1="333.87367" y1="169.80533" x2="337.54993" y2="202.96087" gradientUnits="userSpaceOnUse" id="color-2"><stop offset="0" stop-color="#fbc74c"/><stop offset="1" stop-color="#fa8c4b"/></linearGradient></defs><g transform="translate(-226.54266,-71.17591)"><g stroke-miterlimit="10"><path d="M280.32321,129.39712c0,0 -15.57641,-6.73692 -21.83489,-11.74412c-6.6311,-5.30531 -16.89855,-19.24516 -16.89855,-19.24516c0,0 8.08417,6.54031 13.92604,6.85788c9.39912,0.51095 36.35932,-0.74023 36.35932,-0.74023z" fill="#ffe23b" stroke="#000000" stroke-width="2.5" stroke-linecap="butt"/><path d="M270.63703,142.40519c0,0 -13.75134,-9.94541 -18.77916,-16.18734c-5.32717,-6.61356 -12.33776,-22.44364 -12.33776,-22.44364c0,0 6.47884,8.13352 12.11385,9.70667c9.06632,2.53109 35.65933,7.13869 35.65933,7.13869z" fill="#ffe23b" stroke="#000000" stroke-width="2.5" stroke-linecap="butt"/><path d="M365.30432,104.81264c0,0 26.92189,1.90515 36.33065,1.62248c5.84785,-0.17569 14.08838,-6.51787 14.08838,-6.51787c0,0 -10.60276,13.68655 -17.36067,18.82935c-6.37817,4.85382 -22.11349,11.21072 -22.11349,11.21072z" fill="#ffe23b" stroke="#000000" stroke-width="2.5" stroke-linecap="butt"/><path d="M282.49471,349.36519l-0.45679,-147.29218c0,0 7.29421,-25.61157 17.63676,-25.8913c10.271,-0.27779 34.61139,-0.53904 55.87631,-1.11418c23.0643,-0.62381 29.92032,26.33974 29.92032,26.33974l-1.60469,152.82719z" fill="url(#color-1)" stroke="#000000" stroke-width="2.5" stroke-linecap="butt"/><path d="M367.00112,121.0219c0,0 26.69701,-3.96081 35.82208,-6.2711c5.67154,-1.43592 12.34588,-9.4098 12.34588,-9.4098c0,0 -7.39272,15.65528 -12.87884,22.13758c-5.17783,6.11805 -19.16651,15.72679 -19.16651,15.72679z" fill="#ffe23b" stroke="#000000" stroke-width="2.5" stroke-linecap="butt"/><path d="M373.3032,118.64073c0,0 21.35448,22.03826 29.53711,28.93699c5.08579,4.2878 16.8762,5.16851 16.8762,5.16851c0,0 -19.36291,3.547 -28.98782,2.77537c-9.08405,-0.72828 -27.2329,-7.28259 -27.2329,-7.28259z" fill="#ffe23b" stroke="#000000" stroke-width="2.5" stroke-linecap="butt"/><path d="M292.62914,147.98294c0,0 -18.3026,6.11191 -27.40165,6.6195c-9.6408,0.5378 -28.91191,-3.47811 -28.91191,-3.47811c0,0 11.80831,-0.59429 16.99666,-4.75738c8.34766,-6.69809 30.23073,-28.21157 30.23073,-28.21157z" fill="#ffe23b" stroke="#000000" stroke-width="2.5" stroke-linecap="butt"/><path d="M372.20636,150.97617c0,0 8.89885,17.12163 10.8231,26.02936c2.0388,9.43808 1.08591,29.10011 1.08591,29.10011c0,0 -2.43356,-11.57011 -7.35678,-16.0436c-7.92108,-7.19751 -32.59195,-25.4471 -32.59195,-25.4471z" fill="#ffe23b" stroke="#000000" stroke-width="2.5" stroke-linecap="butt"/><path d="M308.3776,173.09658c10.2198,-4.01302 22.63755,-3.08274 34.07268,-2.94395c4.64538,0.05638 10.42836,-0.79067 14.94995,0.99242c3.51765,1.38719 9.59518,1.44706 12.34869,4.03829c2.8776,2.70803 -0.99857,7.6271 -2.66405,9.24506c-5.62416,5.46372 -10.08091,17.18582 -18.0446,18.87525c-9.13052,1.93695 -30.94793,-13.02112 -39.04506,-18.29328c-1.48613,-0.96763 -10.62287,-5.03928 -11.10525,-5.8628c-0.92404,-1.5775 7.15271,-5.91768 8.64092,-6.41483z" fill="url(#color-2)" stroke="#000000" stroke-width="2.5" stroke-linecap="round"/><path d="M310.84862,162.23164c0,0 -25.10652,17.64543 -33.19997,24.64857c-5.03035,4.35269 -7.744,15.86032 -7.744,15.86032c0,0 -0.47541,-19.67937 1.79186,-29.0652c2.13988,-8.8584 11.45166,-25.75901 11.45166,-25.75901z" fill="#ffe23b" stroke="#000000" stroke-width="2.5" stroke-linecap="butt"/><path d="M391.20527,132.14561c-0.33985,28.00085 -24.91524,53.35002 -55.16566,52.98287c-30.25041,-0.36715 -54.72063,-26.31161 -54.38078,-54.31245c0.33985,-28.00084 25.13817,-50.40237 55.38858,-50.03522c30.25041,0.36715 54.49771,23.36396 54.15787,51.3648z" fill="#ffec7f" stroke="#000000" stroke-width="2.5" stroke-linecap="butt"/><path d="M352.42314,129.50251c-0.03288,2.70864 -6.71146,4.82369 -14.91705,4.7241c-8.2056,-0.09959 -14.83088,-2.37611 -14.798,-5.08475c0.03288,-2.70864 6.71147,-4.82369 14.91705,-4.7241c8.2056,0.09959 14.83087,2.37611 14.798,5.08475z" fill-opacity="0.18431" fill="#ff0505" stroke="none" stroke-width="0" stroke-linecap="butt"/><path d="M373.89905,124.21419c-0.02713,2.2347 -2.03743,4.02215 -4.49015,3.99238c-2.45272,-0.02977 -4.41905,-1.86549 -4.39193,-4.10018c0.02712,-2.23469 2.03743,-4.02215 4.49015,-3.99238c2.45272,0.02977 4.41905,1.86549 4.39193,4.10018z" fill="#ffffff" stroke="#000000" stroke-width="2.5" stroke-linecap="butt"/><path d="M320.48543,124.25711c-0.02712,2.23469 -2.03743,4.02215 -4.49015,3.99238c-2.45272,-0.02977 -4.41905,-1.86549 -4.39193,-4.10018c0.02713,-2.2347 2.03743,-4.02216 4.49015,-3.99239c2.45272,0.02977 4.41906,1.86549 4.39193,4.10019z" fill="#ffffff" stroke="#000000" stroke-width="2.5" stroke-linecap="butt"/><path d="M337.07102,84.15236c6.11841,0.07426 11.57773,-0.53561 16.60497,-4.32216c2.37003,-1.78511 5.40052,-7.00981 8.46351,-7.40429c2.52206,-0.32482 2.86793,4.38079 5.042,5.09581c4.04184,1.32932 10.88005,-1.08962 14.7897,-2.19901c1.18474,-0.33618 4.93415,-2.09612 6.06117,-1.47318c1.97434,1.09132 -1.56484,6.84552 -2.34033,8.01438c-2.79455,4.21207 -3.5889,13.09693 -11.49228,18.54279c-4.98371,3.43405 -17.3978,4.20108 -20.40871,5.66391" fill="#ffec7f" stroke="#000000" stroke-width="2.5" stroke-linecap="round"/><path d="M336.64413,185.13593l8.59227,17.3227c0,0 5.29445,52.63065 4.79919,72.69215c-0.48951,19.82828 -3.75784,49.44934 -3.75784,49.44934l-12.01773,26.03016" fill="none" stroke-opacity="0.61176" stroke="#000000" stroke-width="2.5" stroke-linecap="round"/><path d="M360.9546,131.33631l10.21625,-1.33316" fill="none" stroke="#000000" stroke-width="2.5" stroke-linecap="round"/><path d="M302.961,129.17528l10.18089,1.58072" fill="none" stroke="#000000" stroke-width="2.5" stroke-linecap="round"/><path d="M339.04091,171.89689c-0.04383,3.61117 -0.3193,3.94379 -1.35107,3.93126c-1.03176,-0.01252 -2.4291,-0.36544 -2.38528,-3.97661c0.04383,-3.61117 0.91578,-6.52846 1.94753,-6.51594c1.03176,0.01252 1.83264,2.95011 1.78881,6.56129z" fill="none" stroke="#000000" stroke-width="2.5" stroke-linecap="butt"/><g stroke="#000000" stroke-width="2.5" stroke-linecap="butt"><path d="M358.00243,209.51961c0.05704,-1.10685 0.13903,-1.52652 0.42013,-2.15104c0.03233,-0.07182 0.0655,-0.14224 0.09952,-0.21124c0.00602,-0.01275 0.01208,-0.02534 0.01819,-0.03775c0.11697,-0.2377 0.24598,-0.45669 0.38515,-0.65715c0.40487,-0.59262 0.89252,-1.03604 1.45382,-1.31993c0.55603,-0.28119 0.84087,-0.40961 1.69165,-0.33186c0.09437,0.00607 0.18847,0.0163 0.28206,0.03071c0.70358,0.08879 0.96179,0.22547 1.33817,0.52506c0.74059,0.49461 1.3521,1.31146 1.67505,2.43464l0.14281,0.49666l0.19886,-0.45815c0.44972,-1.03609 1.14847,-1.70525 1.93702,-2.0275c0.40638,-0.21136 0.67714,-0.28841 1.38183,-0.21846c0.09404,0.00674 0.1881,0.01771 0.28193,0.03286c0.84867,0.11382 1.11479,0.30433 1.6307,0.70635c0.5208,0.40586 0.95031,0.95264 1.28072,1.62813c0.11396,0.22901 0.21574,0.47402 0.30345,0.73481c0.00458,0.01361 0.0091,0.02739 0.01355,0.04133c0.02552,0.0757 0.05005,0.15262 0.07357,0.23074c0.20455,0.67927 0.23651,1.11178 0.16369,2.21685c-0.0015,0.02279 -0.00307,0.04552 -0.00468,0.06818c-0.03737,0.86269 -0.17061,1.72525 -0.39242,2.34292c-0.61377,1.70906 -1.66666,2.94606 -4.04747,4.75511c-1.56138,1.18643 -3.35463,3.04568 -3.4868,3.3203c-0.07175,0.14908 -0.18323,0.13651 -0.23665,-0.02667c-0.09839,-0.30061 -1.65119,-2.53702 -3.05365,-4.05753c-2.13849,-2.31846 -3.03323,-3.77499 -3.43957,-5.59903c-0.14685,-0.65922 -0.17773,-1.54028 -0.11397,-2.4c0.00104,-0.02272 0.00217,-0.04549 0.00334,-0.06833z" fill="#ffde00"/><path d="M363.47189,214.68458c0.05704,-1.10685 0.13903,-1.52652 0.42013,-2.15105c0.03233,-0.07182 0.06551,-0.14224 0.09953,-0.21124c0.00602,-0.01275 0.01208,-0.02533 0.01818,-0.03774c0.11697,-0.2377 0.246,-0.4567 0.38516,-0.65717c0.40487,-0.59262 0.89251,-1.03604 1.45381,-1.31993c0.55603,-0.28119 0.84087,-0.40961 1.69165,-0.33186c0.09437,0.00607 0.18848,0.01631 0.28207,0.03072c0.70358,0.08879 0.9618,0.22546 1.33818,0.52504c0.74059,0.49461 1.3521,1.31147 1.67505,2.43464l0.1428,0.49666l0.19887,-0.45815c0.44972,-1.03609 1.14848,-1.70525 1.93702,-2.0275c0.40638,-0.21136 0.67713,-0.28841 1.38182,-0.21846c0.09404,0.00674 0.1881,0.01771 0.28194,0.03286c0.84867,0.11382 1.11479,0.30433 1.6307,0.70635c0.5208,0.40586 0.95031,0.95264 1.28072,1.62813c0.11396,0.22901 0.21574,0.47403 0.30345,0.73481c0.00458,0.01361 0.00909,0.02739 0.01355,0.04133c0.02552,0.0757 0.05005,0.15262 0.07357,0.23074c0.20455,0.67927 0.23651,1.11178 0.16369,2.21685c-0.0015,0.0228 -0.00306,0.04552 -0.00468,0.06818c-0.03736,0.86269 -0.17061,1.72525 -0.39242,2.34292c-0.61377,1.70906 -1.66665,2.94604 -4.04747,4.7551c-1.56138,1.18644 -3.35464,3.04568 -3.48681,3.3203c-0.07175,0.14908 -0.18323,0.1365 -0.23665,-0.02668c-0.09839,-0.30061 -1.65118,-2.53701 -3.05364,-4.05752c-2.13848,-2.31847 -3.03324,-3.775 -3.43958,-5.59904c-0.14685,-0.65922 -0.17773,-1.54028 -0.11397,-2.4c0.00104,-0.02272 0.00216,-0.04549 0.00333,-0.06832z" fill="#ffce4e"/></g></g></g></svg>