<svg version="1.1" xmlns="http://www.w3.org/2000/svg" xmlns:xlink="http://www.w3.org/1999/xlink" width="198.19468" height="285.59467" viewBox="0,0,198.19468,285.59467"><defs><linearGradient x1="289.77855" y1="170.99195" x2="312.50896" y2="348.37388" gradientUnits="userSpaceOnUse" id="color-1"><stop offset="0" stop-color="#fbc74c"/><stop offset="1" stop-color="#fa954b"/></linearGradient><linearGradient x1="288.75559" y1="166.10591" x2="292.96384" y2="198.94586" gradientUnits="userSpaceOnUse" id="color-2"><stop offset="0" stop-color="#fbc74c"/><stop offset="1" stop-color="#fa8c4b"/></linearGradient></defs><g transform="translate(-191.92988,-66.82654)"><g stroke-miterlimit="10"><path d="M242.29074,127.3075c0,0 -16.36224,-4.5042 -23.25652,-8.59193c-7.30474,-4.33111 -19.41183,-16.70682 -19.41183,-16.70682c0,0 8.91551,5.35193 14.74474,4.85362c9.37879,-0.80175 35.90268,-5.7918 35.90268,-5.7918z" fill="#ffe23b" stroke="#000000" stroke-width="2.5" stroke-linecap="butt"/><path d="M234.50862,141.53672c0,0 -15.00133,-7.93542 -20.8487,-13.41709c-6.19553,-5.80806 -15.34041,-20.50876 -15.34041,-20.50876c0,0 7.54746,7.15299 13.34655,7.92683c9.3303,1.24504 36.30573,2.10787 36.30573,2.10787z" fill="#ffe23b" stroke="#000000" stroke-width="2.5" stroke-linecap="butt"/><path d="M319.95184,98.00011c0,0 26.9251,-1.85911 36.20302,-3.4481c5.76654,-0.98762 13.0445,-8.41464 13.0445,-8.41464c0,0 -8.59539,15.02861 -14.57203,21.06165c-5.6408,5.69403 -20.33864,14.17839 -20.33864,14.17839z" fill="#ffe23b" stroke="#000000" stroke-width="2.5" stroke-linecap="butt"/><path d="M262.85906,351.06782l-20.94554,-145.79602c0,0 3.65986,-26.37734 13.86289,-28.09334c10.13245,-1.70412 34.19976,-5.34938 55.17782,-8.87758c22.75318,-3.82676 33.29403,21.92065 33.29403,21.92065l19.67421,151.56401z" fill="url(#color-1)" stroke="#000000" stroke-width="2.5" stroke-linecap="butt"/><path d="M323.48809,113.8668c0,0 25.88626,-7.63672 34.60116,-11.19415c5.41659,-2.21106 10.91659,-11.036 10.91659,-11.036c0,0 -5.14265,16.53158 -9.6735,23.71413c-4.27624,6.77896 -16.79197,18.24052 -16.79197,18.24052z" fill="#ffe23b" stroke="#000000" stroke-width="2.5" stroke-linecap="butt"/><path d="M329.79685,110.58079c0,0 24.21303,18.85279 33.27592,24.54595c5.6329,3.5385 17.43117,2.77021 17.43117,2.77021c0,0 -18.68108,6.20652 -28.31973,6.78153c-9.09702,0.54269 -27.98128,-3.42276 -27.98128,-3.42276z" fill="#ffe23b" stroke="#000000" stroke-width="2.5" stroke-linecap="butt"/><path d="M257.06288,144.0004c0,0 -17.27421,8.59895 -26.21414,10.36759c-9.4722,1.87392 -29.11463,0.57832 -29.11463,0.57832c0,0 11.61078,-2.23144 16.16945,-7.0759c7.33454,-7.79439 26.01154,-32.14327 26.01154,-32.14327z" fill="#ffe23b" stroke="#000000" stroke-width="2.5" stroke-linecap="butt"/><path d="M333.20961,142.75434c0,0 11.19448,15.71698 14.33937,24.27034c3.33211,9.06262 5.12413,28.666 5.12413,28.666c0,0 -4.01967,-11.11898 -9.51742,-14.86399c-8.84545,-6.02543 -35.81547,-20.66498 -35.81547,-20.66498z" fill="#ffe23b" stroke="#000000" stroke-width="2.5" stroke-linecap="butt"/><path d="M263.52553,172.96886c10.06749,-5.46067 22.39866,-6.25495 33.74188,-7.70852c4.60804,-0.59049 10.32899,-2.24826 14.84354,-1.08457c3.51218,0.90534 9.54063,0.11881 12.31538,2.34179c2.8998,2.32317 -0.861,7.81146 -2.4853,9.67104c-5.48514,6.27969 -24.49755,20.88008 -32.36694,23.68905c-9.0224,3.22053 -16.12243,-10.97443 -24.24222,-15.14973c-1.49028,-0.76632 -10.62076,-3.58915 -11.11312,-4.35035c-0.94318,-1.45811 6.99338,-6.9493 8.46089,-7.65675z" fill="url(#color-2)" stroke="#000000" stroke-width="2.5" stroke-linecap="round"/><path d="M277.08761,155.57557c0,0 -22.40726,20.96694 -29.44762,29.02804c-4.37582,5.01024 -5.46198,16.78351 -5.46198,16.78351c0,0 -3.20882,-19.42182 -2.26949,-29.03181c0.88656,-9.06997 7.75635,-27.10178 7.75635,-27.10178z" fill="#ffe23b" stroke="#000000" stroke-width="2.5" stroke-linecap="butt"/><path d="M334.00446,120.7027c3.55929,27.77578 -17.25016,56.29765 -47.25744,60.1429c-30.00726,3.84525 -57.84921,-18.44225 -61.40851,-46.21802c-3.55929,-27.77577 17.88104,-53.40968 47.88831,-57.25493c30.00726,-3.84525 57.21834,15.55429 60.77764,43.33006z" fill="#ffec7f" stroke="#000000" stroke-width="2.5" stroke-linecap="butt"/><path d="M289.78959,122.07844c0.34431,2.68687 -5.97505,5.71056 -14.11469,6.7536c-8.13964,1.04305 -15.01723,-0.28955 -15.36153,-2.97642c-0.34431,-2.68687 5.97505,-5.71056 14.11469,-6.7536c8.13964,-1.04305 15.01723,0.28955 15.36153,2.97642z" fill-opacity="0.18431" fill="#ff0505" stroke="none" stroke-width="0" stroke-linecap="butt"/><path d="M301.52669,119.31949c0.28407,2.21674 -1.45801,4.26651 -3.89101,4.57827c-2.433,0.31178 -4.63562,-1.2325 -4.91969,-3.44924c-0.28407,-2.21673 1.458,-4.26651 3.891,-4.57827c2.433,-0.31178 4.63563,1.2325 4.91969,3.44924z" fill="#ffffff" stroke="#000000" stroke-width="2.5" stroke-linecap="butt"/><path d="M251.97063,124.34684c0.28407,2.21673 -1.45801,4.26651 -3.89101,4.57827c-2.433,0.31178 -4.63562,-1.2325 -4.91969,-3.44924c-0.28407,-2.21674 1.45801,-4.26652 3.89101,-4.57828c2.433,-0.31178 4.63562,1.2325 4.91969,3.44925z" fill="#ffffff" stroke="#000000" stroke-width="2.5" stroke-linecap="butt"/><path d="M270.81014,101.71591c-3.01004,-1.46463 -15.42367,-2.23913 -20.40531,-5.67617c-7.9001,-5.45062 -8.68912,-14.33595 -11.48113,-18.5497c-0.77478,-1.16932 -4.3105,-6.92564 -2.33551,-8.01578c1.1274,-0.62227 4.87577,1.13994 6.06029,1.47682c3.90898,1.11173 10.74573,3.53478 14.78837,2.2079c2.17449,-0.71371 2.52321,-5.4191 5.04507,-5.09278c3.06276,0.39633 6.09011,5.62285 8.45907,7.40937c5.02495,3.78956 10.4839,4.40272 16.60236,4.33214" fill="#ffec7f" stroke="#000000" stroke-width="2.5" stroke-linecap="round"/><path d="M314.2969,345.11835l-9.52599,-27.1199c0,0 -2.55448,-21.9743 -4.26292,-36.77716c-2.53328,-21.94982 -14.42106,-83.81987 -14.42106,-83.81987l7.54516,-16.49947" fill="none" stroke-opacity="0.61176" stroke="#000000" stroke-width="2.5" stroke-linecap="round"/><path d="M305.76196,121.93265l-9.9314,2.74161" fill="none" stroke="#000000" stroke-width="2.5" stroke-linecap="round"/><path d="M246.2052,130.03894l10.30179,0.14886" fill="none" stroke="#000000" stroke-width="2.5" stroke-linecap="round"/><path d="M254.25925,162.56232l5.20969,-3.353" fill="none" stroke="#000000" stroke-width="2.5" stroke-linecap="round"/><path d="M305.16922,151.2048l7.80394,2.22246" fill="none" stroke="#000000" stroke-width="2.5" stroke-linecap="round"/><path d="M309.40312,152.81054l-2.49331,5.69032l-11.40784,-3.10334l-10.68357,6.73985l-13.35881,-3.65896l-9.68783,8.22349l-4.70785,-5.30461" fill="none" stroke="#000000" stroke-width="2.5" stroke-linecap="round"/><path d="M306.23931,158.83807l-20.80102,19.0643l-23.76939,-11.23564" fill="none" stroke="#000000" stroke-width="2.5" stroke-linecap="round"/><path d="M241.67802,107.07777c0,0 3.13378,-6.56111 5.16936,-6.56111c2.13494,0 7.3564,6.56111 7.3564,6.56111" fill="none" stroke="#000000" stroke-width="2.5" stroke-linecap="round"/><path d="M291.18458,104.89073c0,0 3.13378,-6.56111 5.16936,-6.56111c2.13493,0 7.35639,6.56111 7.35639,6.56111" fill="none" stroke="#000000" stroke-width="2.5" stroke-linecap="round"/><g stroke="#000000" stroke-width="2.5" stroke-linecap="butt"><path d="M303.97871,203.99283c-0.13145,-1.10359 -0.10968,-1.53676 0.11147,-2.22022c0.02543,-0.07861 0.05213,-0.15603 0.08007,-0.23226c0.00485,-0.01403 0.00978,-0.0279 0.01479,-0.0416c0.09601,-0.26257 0.20968,-0.50967 0.33872,-0.741c0.37373,-0.68227 0.87252,-1.23788 1.4874,-1.65441c0.6091,-0.4126 0.92394,-0.60856 1.94733,-0.73977c0.11305,-0.01707 0.22654,-0.02996 0.34018,-0.03863c0.85073,-0.08439 1.18167,-0.01287 1.68212,0.19016c0.96765,0.30609 1.84012,0.96094 2.42535,1.98783l0.25879,0.45408l0.15351,-0.49959c0.34716,-1.12981 1.05579,-1.95919 1.93338,-2.46897c0.44411,-0.3073 0.75149,-0.44927 1.60015,-0.55247c0.11279,-0.01632 0.22635,-0.0285 0.34041,-0.03649c1.02737,-0.09517 1.37737,0.02741 2.0618,0.29722c0.69092,0.27239 1.29887,0.70581 1.81241,1.29013c0.1764,0.19762 0.34124,0.41398 0.49222,0.6493c0.00788,0.01228 0.01572,0.02474 0.02351,0.03738c0.0439,0.0683 0.08683,0.13803 0.1288,0.2092c0.36489,0.61877 0.48062,1.03677 0.59304,2.14246c0.00232,0.0228 0.00456,0.04556 0.00671,0.06826c0.11087,0.85842 0.10797,1.74012 -0.04408,2.40235c-0.42072,1.83238 -1.44735,3.30725 -3.94656,5.66955c-1.63902,1.54926 -3.4321,3.81749 -3.53951,4.12012c-0.05831,0.16428 -0.19283,0.17913 -0.28557,0.03152c-0.17083,-0.27192 -2.41547,-2.09444 -4.35294,-3.2489c-2.95429,-1.76031 -4.27789,-2.97575 -5.08815,-4.67225c-0.29282,-0.61313 -0.48797,-1.47297 -0.567,-2.33491c-0.00285,-0.02262 -0.00563,-0.04532 -0.00834,-0.06808z" fill="#ffde00"/><path d="M311.39709,207.74211c-0.13145,-1.10359 -0.10969,-1.53677 0.11146,-2.22023c0.02543,-0.07861 0.05213,-0.15603 0.08008,-0.23226c0.00485,-0.01403 0.00977,-0.0279 0.01479,-0.0416c0.09601,-0.26257 0.20969,-0.50967 0.33873,-0.741c0.37373,-0.68227 0.87251,-1.23788 1.48739,-1.65441c0.6091,-0.4126 0.92394,-0.60856 1.94733,-0.73977c0.11305,-0.01707 0.22654,-0.02996 0.34018,-0.03863c0.85073,-0.08439 1.18168,-0.01288 1.68212,0.19015c0.96765,0.30609 1.84012,0.96095 2.42535,1.98784l0.25878,0.45408l0.15352,-0.49959c0.34716,-1.12981 1.05579,-1.95919 1.93338,-2.46897c0.44411,-0.3073 0.75149,-0.44927 1.60015,-0.55247c0.11279,-0.01632 0.22635,-0.0285 0.34041,-0.03649c1.02737,-0.09517 1.37737,0.02741 2.0618,0.29722c0.69092,0.27239 1.29887,0.70581 1.81241,1.29013c0.1764,0.19762 0.34124,0.41399 0.49222,0.64931c0.00788,0.01228 0.01571,0.02475 0.02351,0.03738c0.0439,0.0683 0.08684,0.13803 0.1288,0.20919c0.36489,0.61877 0.48062,1.03677 0.59304,2.14246c0.00232,0.02281 0.00456,0.04555 0.00672,0.06826c0.11087,0.85842 0.10797,1.74012 -0.04408,2.40235c-0.42072,1.83238 -1.44735,3.30725 -3.94656,5.66955c-1.63902,1.54926 -3.43211,3.81749 -3.53951,4.12012c-0.05831,0.16428 -0.19283,0.17913 -0.28557,0.03152c-0.17083,-0.27192 -2.41546,-2.09444 -4.35294,-3.2489c-2.95429,-1.76031 -4.27789,-2.97575 -5.08815,-4.67225c-0.29282,-0.61313 -0.48798,-1.47297 -0.56701,-2.33491c-0.00285,-0.02262 -0.00562,-0.04532 -0.00833,-0.06808z" fill="#ffce4e"/></g></g></g></svg>