<svg version="1.1" xmlns="http://www.w3.org/2000/svg" xmlns:xlink="http://www.w3.org/1999/xlink" width="153.98412" height="311.27052" viewBox="0,0,153.98412,311.27052"><defs><linearGradient x1="319.67926" y1="169.19385" x2="319.67926" y2="348.03841" gradientUnits="userSpaceOnUse" id="color-1"><stop offset="0" stop-color="#353535"/><stop offset="1" stop-color="#565656"/></linearGradient><linearGradient x1="284.4691" y1="160.49032" x2="284.4691" y2="347.53657" gradientUnits="userSpaceOnUse" id="color-2"><stop offset="0" stop-color="#6c8dd1"/><stop offset="1" stop-color="#002994"/></linearGradient><linearGradient x1="353.88094" y1="161.43937" x2="353.88094" y2="348.48563" gradientUnits="userSpaceOnUse" id="color-3"><stop offset="0" stop-color="#6c8dd1"/><stop offset="1" stop-color="#002994"/></linearGradient><linearGradient x1="320" y1="168.7474" x2="320" y2="191.2526" gradientUnits="userSpaceOnUse" id="color-4"><stop offset="0" stop-color="#dadada"/><stop offset="1" stop-color="#bebebe"/></linearGradient><linearGradient x1="319.80956" y1="73.88935" x2="319.80956" y2="180.32496" gradientUnits="userSpaceOnUse" id="color-5"><stop offset="0" stop-color="#dadada"/><stop offset="1" stop-color="#bebebe"/></linearGradient><linearGradient x1="319.64213" y1="72.87489" x2="319.64213" y2="111.52676" gradientUnits="userSpaceOnUse" id="color-6"><stop offset="0" stop-color="#dadada"/><stop offset="1" stop-color="#bebebe"/></linearGradient><linearGradient x1="319.04489" y1="51.07856" x2="319.04489" y2="88.15148" gradientUnits="userSpaceOnUse" id="color-7"><stop offset="0" stop-color="#dadada"/><stop offset="1" stop-color="#bebebe"/></linearGradient></defs><g transform="translate(-242.65007,-41.61587)"><g stroke-miterlimit="10"><g stroke-width="2.5" stroke-linejoin="miter"><path d="M276.24005,344.39978l-1.9552,-147.27579c0,0 6.0833,-25.69821 15.08987,-26.10344c8.94426,-0.40242 30.14472,-0.95905 48.66278,-1.79223c20.08501,-0.90368 27.03616,16.2629 27.03616,16.2629l-0.47576,162.54719z" fill="url(#color-1)" stroke="#000000" stroke-linecap="butt"/><path d="M263.27911,343.73108l-2.18137,-141.75369c0,0 2.55461,-17.19302 6.94808,-17.61683c4.36308,-0.42087 25.26692,-16.36148 34.30017,-17.23287c9.79763,-0.94512 -8.71001,19.10912 -8.71001,19.10912c0,0 1.04378,30.56597 2.37029,59.55455c0.7189,15.71033 1.52085,30.95736 2.28469,40.62468c2.06994,26.19743 8.0898,61.12053 8.0898,61.12053c0,0 -25.42129,2.47305 -33.07995,1.79685c-6.52675,-0.57626 -10.02171,-5.60235 -10.02171,-5.60235z" fill="url(#color-2)" stroke="#000000" stroke-linecap="butt"/><path d="M333.39394,351.63639c0,0 5.62846,-35.78872 7.56382,-62.2838c2.03198,-27.8179 4.35233,-100.84859 4.35233,-100.84859c0,0 -17.3043,-17.39295 -8.1437,-17.85667c8.44593,-0.42754 29.35126,7.891 33.43066,7.68449c4.10782,-0.20794 8.89833,19.77368 8.89833,19.77368l-5.80218,143.52764c0,0 0.78193,6.13095 -5.24804,7.62773c-7.19593,1.7862 -35.05121,2.37552 -35.05121,2.37552z" fill="url(#color-3)" stroke="#000000" stroke-linecap="butt"/><path d="M333.15688,180c0,6.21464 -5.89054,11.2526 -13.15688,11.2526c-7.26635,0 -13.15688,-5.03796 -13.15688,-11.2526c0,-6.21464 5.89054,-11.2526 13.15688,-11.2526c7.26635,0 13.15688,5.03796 13.15688,11.2526z" fill="url(#color-4)" stroke="#000000" stroke-linecap="butt"/><path d="M334.62666,231.27161l-27.00476,-0.26475" fill="none" stroke="#ffffff" stroke-linecap="round"/><path d="M320.59478,220.41675v25.1515" fill="none" stroke="#ffffff" stroke-linecap="round"/><path d="M321.38904,229.15359l9.26634,-9.26634" fill="none" stroke="#ffffff" stroke-linecap="round"/><path d="M328.80211,239.21419l-9.00159,-8.20733l-9.00159,-9.79585" fill="none" stroke="#ffffff" stroke-linecap="round"/><path d="M320.85953,231.00686l-9.00159,9.79585" fill="none" stroke="#ffffff" stroke-linecap="round"/><path d="M344.95202,231.50694l1.85327,-12.70812l14.82615,1.32376v10.85486" fill="none" stroke="#000000" stroke-linecap="round"/><path d="M349.18806,348.95448l5.0303,-112.38782" fill="none" stroke="#000000" stroke-linecap="round"/><path d="M290.41298,346.5717l-6.35406,-112.2551" fill="none" stroke="#000000" stroke-linecap="round"/><path d="M279.55813,234.05185l-0.79426,-9.53109l11.64911,0.26475l1.32376,11.11961" fill="none" stroke="#000000" stroke-linecap="round"/></g><g stroke-linecap="butt"><path d="M374.45997,129.33181c-1.94104,28.48816 -27.92848,52.9286 -58.11114,50.8721c-30.18266,-2.05649 -53.13099,-29.83117 -51.18995,-58.31932c1.94104,-28.48815 27.98246,-49.91526 58.16512,-47.85875c30.18266,2.05649 53.07703,26.81782 51.13599,55.30597z" fill="url(#color-5)" stroke="#000000" stroke-width="2.5" stroke-linejoin="miter"/><path d="M328.62186,127.38227c0,28.78589 -8.99421,52.31392 -8.99421,52.31392c0,0 -8.57482,-23.52803 -8.57482,-52.31392c0,-8.62488 -5.89369,-24.1785 -5.26862,-31.34372c1.46112,-16.74899 10.65522,-20.77775 14.05314,-20.77775c3.20425,0 12.25457,6.27488 13.78901,21.48043c0.78885,7.81717 -5.00449,20.86704 -5.00449,30.64104z" fill-opacity="0.23529" fill="#000000" stroke="none" stroke-width="0" stroke-linejoin="round"/></g><path d="M334.06154,119.42452c0.01376,2.70881 -6.62742,4.93852 -14.83351,4.98021c-8.20609,0.04169 -14.86959,-2.12043 -14.88334,-4.82924c-0.01376,-2.70881 6.62743,-4.93852 14.83352,-4.98021c8.20609,-0.04169 14.86959,2.12043 14.88335,4.82924z" fill-opacity="0.23137" fill="#000000" stroke="none" stroke-width="0" stroke-linecap="butt" stroke-linejoin="miter"/><path d="M298.88706,117.98037c-0.15191,2.2297 -2.25895,3.90205 -4.70617,3.73531c-2.44723,-0.16674 -4.30794,-2.10944 -4.15603,-4.33913c0.15191,-2.22971 2.25895,-3.90205 4.70617,-3.73531c2.44723,0.16674 4.30793,2.10943 4.15602,4.33914z" fill="#ffffff" stroke="#000000" stroke-width="2.5" stroke-linecap="butt" stroke-linejoin="miter"/><path d="M348.06122,117.99129c-0.15191,2.22971 -2.25895,3.90205 -4.70617,3.73531c-2.44723,-0.16674 -4.30793,-2.10944 -4.15602,-4.33913c0.15191,-2.2297 2.25894,-3.90204 4.70617,-3.7353c2.44723,0.16674 4.30794,2.10943 4.15603,4.33913z" fill="#ffffff" stroke="#000000" stroke-width="2.5" stroke-linecap="butt" stroke-linejoin="miter"/><path d="M356.94791,114.39211l-3.36249,10.45249l-18.59258,0.62715l-1.97793,-11.49774l-27.69107,-0.20905l-1.18676,10.87059l-21.16389,0.4181l-3.16469,-10.0344" fill="none" stroke="#000000" stroke-width="2.5" stroke-linecap="round" stroke-linejoin="miter"/><path d="M286.08,114.15983c0,0 5.29523,-1.87761 7.84694,-1.98248c2.53506,-0.10418 7.4137,1.35533 7.4137,1.35533" fill="none" stroke="#000000" stroke-width="2.5" stroke-linecap="round" stroke-linejoin="miter"/><path d="M337.50627,113.32363c0,0 4.57648,-1.51578 6.91119,-1.44395c2.18473,0.06722 6.67705,1.86205 6.67705,1.86205" fill="none" stroke="#000000" stroke-width="2.5" stroke-linecap="round" stroke-linejoin="miter"/><path d="M323.08183,165.5861l3.97195,3.55385l-4.5991,5.22625l-1.88145,-0.18582" fill="none" stroke="#000000" stroke-width="2.5" stroke-linecap="round" stroke-linejoin="miter"/><g stroke-linecap="butt" stroke-linejoin="miter"><path d="M395.38419,92.20082c0,10.67342 -33.91087,19.32594 -75.74206,19.32594c-41.83119,0 -75.74206,-8.65252 -75.74206,-19.32594c0,-10.67342 33.91087,-19.32593 75.74206,-19.32593c41.83119,0 75.74206,8.65251 75.74206,19.32593z" fill="url(#color-6)" stroke="#000000" stroke-width="2.5"/><path d="M380.58476,92.26141c0,6.53681 -28.84785,11.83593 -64.43348,11.83593c-35.58563,0 -64.43348,-5.29912 -64.43348,-11.83593c0,-5.04786 17.20273,-9.35766 41.42657,-11.05912c-11.55338,1.75065 -18.93847,4.42527 -18.93847,7.42238c0,5.27367 22.86516,9.54883 51.07076,9.54883c28.2056,0 51.07076,-4.27516 51.07076,-9.54883c0,-0.21805 -0.03909,-0.43438 -0.11602,-0.64878c2.81113,1.32887 4.35335,2.77411 4.35335,4.28552z" fill-opacity="0.21961" fill="#000000" stroke="none" stroke-width="0"/></g><path d="M316.13261,88.15148c0,0 -1.32377,-25.83343 -1.32377,-31.92986c0,-0.72518 -4.51177,-1.31967 -5.9314,-2.65717c-3.37018,-3.1752 -5.55267,-7.70498 -5.55267,-7.70498c0,0 10.71889,6.72279 12.6907,6.64559c1.56655,-0.06133 2.35615,-1.4265 2.76467,-1.4265c0.36363,0 2.11892,1.17142 3.59452,1.23346c2.62613,0.11041 14.95192,-6.97005 14.95192,-6.97005c0,0 -3.22996,4.86048 -7.29147,7.98179c-2.30262,1.76959 -6.48942,2.01261 -6.48942,2.89787c0,6.09642 -1.58852,31.92986 -1.58852,31.92986c0,0 7.45362,5.92074 6.79473,6.47538c-0.67191,0.5656 -9.46143,-4.23471 -9.97176,-4.23471c-0.4386,0 -8.31718,4.13934 -8.84685,3.60811c-0.58464,-0.58637 6.19932,-5.84878 6.19932,-5.84878z" fill="url(#color-7)" stroke="#000000" stroke-width="2.5" stroke-linecap="butt" stroke-linejoin="miter"/></g></g></svg>