<svg version="1.1" xmlns="http://www.w3.org/2000/svg" xmlns:xlink="http://www.w3.org/1999/xlink" width="180.72919" height="319.88589" viewBox="0,0,180.72919,319.88589"><defs><linearGradient x1="305.41997" y1="155.49506" x2="327.4141" y2="332.95728" gradientUnits="userSpaceOnUse" id="color-1"><stop offset="0" stop-color="#292929"/><stop offset="1" stop-color="#171717"/></linearGradient><linearGradient x1="320.8506" y1="275.75271" x2="323.95466" y2="300.79808" gradientUnits="userSpaceOnUse" id="color-2"><stop offset="0" stop-color="#10ff00"/><stop offset="1" stop-color="#025f00"/></linearGradient><linearGradient x1="258.15887" y1="292.28591" x2="273.47778" y2="292.03023" gradientUnits="userSpaceOnUse" id="color-3"><stop offset="0" stop-color="#ffffff"/><stop offset="1" stop-color="#929292"/></linearGradient><linearGradient x1="388.26303" y1="286.42798" x2="373.02888" y2="287.36756" gradientUnits="userSpaceOnUse" id="color-4"><stop offset="0" stop-color="#ffffff"/><stop offset="1" stop-color="#929292"/></linearGradient><linearGradient x1="295.92375" y1="299.65828" x2="281.52877" y2="290.1223" gradientUnits="userSpaceOnUse" id="color-5"><stop offset="0" stop-color="#ffffff"/><stop offset="1" stop-color="#929292"/></linearGradient><linearGradient x1="328.44632" y1="284.38378" x2="316.30148" y2="293.00326" gradientUnits="userSpaceOnUse" id="color-6"><stop offset="0" stop-color="#ffffff"/><stop offset="1" stop-color="#929292"/></linearGradient><linearGradient x1="366.37621" y1="295.22606" x2="352.5353" y2="290.16064" gradientUnits="userSpaceOnUse" id="color-7"><stop offset="0" stop-color="#ffffff"/><stop offset="1" stop-color="#929292"/></linearGradient><linearGradient x1="309.40858" y1="288.33594" x2="296.85135" y2="293.62807" gradientUnits="userSpaceOnUse" id="color-8"><stop offset="0" stop-color="#ffffff"/><stop offset="1" stop-color="#929292"/></linearGradient><linearGradient x1="332.27157" y1="286.81743" x2="346.01306" y2="291.08073" gradientUnits="userSpaceOnUse" id="color-9"><stop offset="0" stop-color="#ffffff"/><stop offset="1" stop-color="#929292"/></linearGradient><linearGradient x1="224.85101" y1="124.95937" x2="265.76951" y2="119.80989" gradientUnits="userSpaceOnUse" id="color-10"><stop offset="0" stop-color="#ff8600"/><stop offset="1" stop-color="#562e0d"/></linearGradient><linearGradient x1="330.07842" y1="112.97571" x2="370.99694" y2="107.82624" gradientUnits="userSpaceOnUse" id="color-11"><stop offset="0" stop-color="#ff8600"/><stop offset="1" stop-color="#562e0d"/></linearGradient></defs><g transform="translate(-209.96717,-14.35087)"><g stroke-miterlimit="10"><g stroke-width="2.5"><path d="M279.982,329.3694l-20.2395,-146.14638c0,0 3.45548,-25.50454 13.20094,-25.91144c9.67805,-0.40407 32.66665,-0.96767 52.70391,-1.80426c21.73279,-0.9074 31.84392,25.76172 31.84392,25.76172l19.03387,151.66432z" fill="url(#color-1)" stroke="#000000" stroke-linecap="butt"/><path d="M330.00028,163.67106c1.117,9.01271 -7.76258,16.32371 -19.83313,16.32958c-12.07055,0.00588 -22.76116,-7.29561 -23.87818,-16.30831c-1.117,-9.01271 7.76258,-16.32371 19.83313,-16.32958c12.07055,-0.00588 22.76116,7.29561 23.87818,16.30831z" fill="#ffd300" stroke="#000000" stroke-linecap="butt"/><path d="M333.51294,201.35538l0.39882,-15.73265l8.58344,16.46573l-16.95642,-12.28272l20.45073,-1.48488z" fill="none" stroke-opacity="0.67059" stroke="#ffffff" stroke-linecap="round"/><path d="M279.71792,184.5853c9.12796,-6.24682 21.50973,5.93702 11.91528,13.64986c-4.28262,3.44274 -13.23409,1.46404 -16.35056,-3.99085c-3.3563,-5.87467 2.46295,-11.41261 7.81409,-10.07178" fill="none" stroke-opacity="0.67059" stroke="#ffffff" stroke-linecap="round"/><path d="M292.51976,192.28003c2.27077,-0.00082 7.65961,-0.86216 9.3789,1.66936c3.22179,4.74385 -4.79193,8.99368 -7.90454,9.3918c-6.11553,0.7822 -14.04734,0.32457 -20.0023,-2.4693c-4.83162,-2.26684 -5.67388,-7.59681 0.03392,-7.59958" fill="none" stroke-opacity="0.67059" stroke="#ffffff" stroke-linecap="round"/><path d="M280.74232,235.87281c-0.41958,-9.82011 -3.402,-22.17628 -1.55102,-31.54117" fill="none" stroke-opacity="0.67059" stroke="#ffffff" stroke-linecap="round"/><path d="M295.31864,204.32379c3.89264,10.6591 5.73294,21.47611 9.40782,32.08848" fill="none" stroke-opacity="0.67059" stroke="#ffffff" stroke-linecap="round"/><path d="M285.14125,210.23754c-0.041,-0.33077 -0.08199,-0.66156 -0.12299,-0.99234" fill="none" stroke-opacity="0.67059" stroke="#ffffff" stroke-linecap="round"/><path d="M290.59721,210.244c-0.08199,-0.66156 -0.16399,-1.32312 -0.24597,-1.98467" fill="none" stroke-opacity="0.67059" stroke="#ffffff" stroke-linecap="round"/><path d="M293.58642,215.24471c0.19387,1.91753 0.54837,6.36089 -1.47828,7.27129c-3.91807,1.76003 -7.92267,-2.76666 -8.37139,-6.38723" fill="none" stroke-opacity="0.67059" stroke="#ffffff" stroke-linecap="round"/></g><g stroke="#000000" stroke-width="2.5" stroke-linecap="butt"><path d="M271.66657,302.84364c0,0 -4.64374,-7.90663 -5.1534,-12.01895c-0.52459,-4.23266 2.04936,-13.02642 2.04936,-13.02642c0,0 36.0222,4.3114 53.21156,3.63895c17.65681,-0.69075 51.36461,-7.73004 51.36461,-7.73004c0,0 3.45751,8.18941 3.97325,12.35075c0.51892,4.18697 -0.8692,12.69462 -0.8692,12.69462c0,0 -31.35983,3.86711 -48.09841,4.52193c-18.02483,0.70515 -56.47776,-0.43083 -56.47776,-0.43083z" fill="url(#color-2)"/><path d="M274.40989,301.06128l-16.25103,-8.77537l14.38679,-9.28673z" fill="url(#color-3)"/><path d="M371.72424,278.35108l16.53879,8.0769l-13.92951,9.95607z" fill="url(#color-4)"/><path d="M285.06174,282.83544l10.862,16.82284l-17.92793,-2.24914z" fill="url(#color-5)"/><path d="M310.92415,285.40871l17.52217,-1.02493l-6.76751,16.21403z" fill="url(#color-6)"/><path d="M355.88225,281.37288l10.49395,13.85317l-17.18784,3.72236z" fill="url(#color-7)"/><path d="M291.33558,284.9164l18.07299,3.41954l-7.04144,14.00377z" fill="url(#color-8)"/><path d="M342.6995,300.13779l-10.42791,-13.32036l17.05506,-4.79377z" fill="url(#color-9)"/></g><path d="M265.72224,119.43478c2.4232,19.01702 -7.10863,36.24469 -17.55857,37.57626c-10.44994,1.33155 -20.8857,-13.00531 -23.30891,-32.02233c-2.4232,-19.01702 4.08376,-35.51281 14.53371,-36.84437c10.44994,-1.33157 23.91059,12.27342 26.33379,31.29046z" fill="url(#color-10)" stroke="#000000" stroke-width="2.5" stroke-linecap="butt"/><path d="M352.12775,112.60592c1.63125,28.50758 -21.10113,56.0016 -51.30436,57.72986c-30.20323,1.72828 -56.43998,-22.96366 -58.07122,-51.47122c-1.63125,-28.50757 21.53094,-53.01858 51.73417,-54.74684c30.20323,-1.72828 56.01018,19.98063 57.64143,48.48819z" fill="#ffd300" stroke="#000000" stroke-width="2.5" stroke-linecap="butt"/><path d="M301.30933,108.44083c0.33824,2.68764 -5.98795,5.69704 -14.12992,6.72169c-8.14198,1.02465 -15.01653,-0.32348 -15.35476,-3.01113c-0.33824,-2.68764 5.98795,-5.69704 14.12992,-6.72169c8.14198,-1.02465 15.01653,0.32348 15.35476,3.01113z" fill-opacity="0.18431" fill="#ff0505" stroke="none" stroke-width="0" stroke-linecap="butt"/><path d="M344.13809,20.37095l12.08421,2.09528l-31.03049,13.10955l16.95706,2.1395l-12.58344,36.75775" fill="none" stroke="#000000" stroke-width="2.5" stroke-linecap="round"/><path d="M347.43834,18.96942c0.2699,2.14467 -1.34244,4.11371 -3.60127,4.39797c-2.25882,0.28427 -4.30876,-1.22388 -4.57867,-3.36855c-0.2699,-2.14467 1.34244,-4.11371 3.60127,-4.39797c2.25882,-0.28427 4.30876,1.22388 4.57867,3.36855z" fill="#ffd300" stroke="#000000" stroke-width="2.5" stroke-linecap="butt"/><path d="M253.07263,84.86535l-21.29855,-32.4938l15.89821,-6.27424l-33.31107,-5.01235l11.18826,-5.02405" fill="none" stroke="#000000" stroke-width="2.5" stroke-linecap="round"/><path d="M225.60617,31.12283c2.25882,-0.28427 4.30875,1.22387 4.57866,3.36855c0.2699,2.14468 -1.34244,4.11371 -3.60126,4.39797c-2.25882,0.28427 -4.30876,-1.22388 -4.57867,-3.36855c-0.2699,-2.14468 1.34245,-4.11371 3.60127,-4.39797z" fill="#ffd300" stroke="#000000" stroke-width="2.5" stroke-linecap="butt"/><path d="M255.45733,102.91849c0,0 3.21097,-6.06104 5.12146,-6.2712c1.9678,-0.21647 5.88871,11.70812 5.88871,11.70812" fill="none" stroke="#000000" stroke-width="2.5" stroke-linecap="round"/><path d="M258.52476,114.66008l-0.745,-5.9199c0,0 1.72407,-1.4197 2.72637,-1.54584c1.25289,-0.15767 4.20835,0.67313 4.20835,0.67313l0.745,5.9199c0,0 -2.28342,1.83372 -3.36037,1.96925c-1.21736,0.1532 -3.57437,-1.09654 -3.57437,-1.09654z" fill="#000000" stroke="#000000" stroke-width="2.5" stroke-linecap="butt"/><path d="M307.80729,108.51471l-0.745,-5.91989c0,0 1.72408,-1.4197 2.72637,-1.54584c1.25289,-0.15767 4.20835,0.67313 4.20835,0.67313l0.745,5.91989c0,0 -2.28341,1.83373 -3.36037,1.96926c-1.21736,0.1532 -3.57437,-1.09655 -3.57437,-1.09655z" fill="#000000" stroke="#000000" stroke-width="2.5" stroke-linecap="butt"/><path d="M370.94967,107.45113c2.4232,19.01702 -7.10863,36.24469 -17.55857,37.57626c-10.44994,1.33155 -20.8857,-13.00531 -23.30891,-32.02233c-2.4232,-19.01702 4.08376,-35.51281 14.53371,-36.84437c10.44994,-1.33157 23.91059,12.27342 26.33379,31.29046z" fill="url(#color-11)" stroke="#000000" stroke-width="2.5" stroke-linecap="butt"/><path d="M293.24562,156.50848c0.65604,5.21296 0.65961,9.50538 0.00799,9.5874c-0.65162,0.082 -1.71168,-4.07746 -2.36772,-9.29043c-0.65604,-5.21296 -0.65961,-9.50538 -0.00799,-9.5874c0.65162,-0.082 1.71168,4.07746 2.36772,9.29043z" fill="none" stroke="#000000" stroke-width="2.5" stroke-linecap="butt"/></g></g></svg>