<svg version="1.1" xmlns="http://www.w3.org/2000/svg" xmlns:xlink="http://www.w3.org/1999/xlink" width="139.53695" height="309.77635" viewBox="0,0,139.53695,309.77635"><defs><radialGradient cx="314.28501" cy="235.87907" r="89.41619" gradientUnits="userSpaceOnUse" id="color-1"><stop offset="0" stop-color="#bebebe"/><stop offset="1" stop-color="#dadada"/></radialGradient><linearGradient x1="319.95931" y1="171.52688" x2="319.95931" y2="237.24002" gradientUnits="userSpaceOnUse" id="color-2"><stop offset="0" stop-color="#fff800"/><stop offset="1" stop-color="#d97200"/></linearGradient><linearGradient x1="265.35467" y1="90.15943" x2="265.35467" y2="170.71389" gradientUnits="userSpaceOnUse" id="color-3"><stop offset="0" stop-color="#fff800"/><stop offset="1" stop-color="#d97200"/></linearGradient><linearGradient x1="375.50982" y1="89.32161" x2="375.50982" y2="169.87607" gradientUnits="userSpaceOnUse" id="color-4"><stop offset="0" stop-color="#fff800"/><stop offset="1" stop-color="#d97200"/></linearGradient><linearGradient x1="320.59864" y1="74.67843" x2="320.59864" y2="181.11405" gradientUnits="userSpaceOnUse" id="color-5"><stop offset="0" stop-color="#454545"/><stop offset="1" stop-color="#bebebe"/></linearGradient><linearGradient x1="318.99593" y1="99.71656" x2="318.99593" y2="135.40425" gradientUnits="userSpaceOnUse" id="color-6"><stop offset="0" stop-color="#f1de00"/><stop offset="1" stop-color="#f28f00"/></linearGradient><linearGradient x1="268.9808" y1="49.14535" x2="270.68117" y2="102.45152" gradientUnits="userSpaceOnUse" id="color-7"><stop offset="0" stop-color="#d97200"/><stop offset="1" stop-color="#fff800"/></linearGradient><linearGradient x1="371.49207" y1="48.6423" x2="369.7917" y2="102.47612" gradientUnits="userSpaceOnUse" id="color-8"><stop offset="0" stop-color="#d97200"/><stop offset="1" stop-color="#fff800"/></linearGradient><radialGradient cx="269.62353" cy="46.36215" r="7.8102" gradientUnits="userSpaceOnUse" id="color-9"><stop offset="0" stop-color="#ffffff"/><stop offset="1" stop-color="#cacaca"/></radialGradient><radialGradient cx="371.25823" cy="46.0671" r="7.8102" gradientUnits="userSpaceOnUse" id="color-10"><stop offset="0" stop-color="#ffffff"/><stop offset="1" stop-color="#cacaca"/></radialGradient><linearGradient x1="350.87123" y1="187.85979" x2="381.15615" y2="186.15986" gradientUnits="userSpaceOnUse" id="color-11"><stop offset="0" stop-color="#fff800"/><stop offset="1" stop-color="#d97200"/></linearGradient><linearGradient x1="289.71388" y1="187.64844" x2="259.48944" y2="185.94851" gradientUnits="userSpaceOnUse" id="color-12"><stop offset="0" stop-color="#fff800"/><stop offset="1" stop-color="#d97200"/></linearGradient></defs><g transform="translate(-250.11593,-39.05115)"><g stroke-miterlimit="10"><path d="M277.02913,345.18887l-1.9552,-147.27579c0,0 6.0833,-25.69821 15.08987,-26.10344c8.94426,-0.40242 30.14472,-0.95905 48.66278,-1.79223c20.08501,-0.90368 26.34246,25.97468 26.34246,25.97468l0.21794,152.83541z" fill="url(#color-1)" stroke="#000000" stroke-width="0" stroke-linecap="butt"/><path d="M288.30298,213.53528v-42.0084h63.31266v42.0084l-31.20624,23.70474z" fill="url(#color-2)" stroke="#000000" stroke-width="0" stroke-linecap="butt"/><g stroke="#000000" stroke-width="0"><path d="M260.01229,170.71389l-9.89636,-80.55446l21.26192,7.68826l9.21558,64.91282z" fill="url(#color-3)" stroke-linecap="butt"/><path d="M276.51192,158.61385l-7.86626,-55.4085" fill="none" stroke-linecap="round"/></g><g stroke="#000000" stroke-width="0"><path d="M361.36675,161.9227l7.25627,-64.91282l21.02986,-7.68827l-7.46491,80.55446z" fill="url(#color-4)" stroke-linecap="butt"/><path d="M365.3231,157.77605l6.19383,-55.4085" fill="none" stroke-linecap="round"/></g><path d="M375.24905,130.1209c-1.94104,28.48816 -27.92848,52.9286 -58.11114,50.8721c-30.18266,-2.05649 -53.13099,-29.83117 -51.18995,-58.31932c1.94104,-28.48815 27.98246,-49.91526 58.16512,-47.85875c30.18266,2.05649 53.07703,26.81782 51.13599,55.30597z" fill="url(#color-5)" stroke="#000000" stroke-width="0" stroke-linecap="butt"/><path d="M262.41692,131.24945v-27.92912c0,0 38.02003,-3.60376 56.93938,-3.60376c18.79922,0 56.21863,3.60376 56.21863,3.60376v27.92913c0,0 -36.80562,4.15481 -55.40518,4.15481c-19.10615,0 -57.75283,-4.15481 -57.75283,-4.15481z" fill="url(#color-6)" stroke="#000000" stroke-width="0" stroke-linecap="butt"/><path d="M278.37149,130.56914c0,0 -11.38436,-11.40598 -11.38436,-13.50238c0,-3.9378 11.38436,-11.11961 11.38436,-11.11961c0,0 26.3717,-3.07943 39.89684,-3.07943c13.9932,0 42.70597,3.07943 42.70597,3.07943c0,0 11.64911,6.39796 11.64911,10.0606c0,4.4064 -11.64911,14.56139 -11.64911,14.56139c0,0 -28.276,2.84256 -42.23221,2.84256c-13.56705,0 -40.37061,-2.84256 -40.37061,-2.84256z" fill="#000000" stroke="none" stroke-width="0" stroke-linecap="butt"/><path d="M266.65571,102.5456l-1.70037,-53.30617l8.0509,-0.18815l1.70038,53.30617z" fill="url(#color-7)" stroke="#000000" stroke-width="0" stroke-linecap="butt"/><path d="M365.76625,102.38111l1.70038,-53.83382l8.0509,0.19002l-1.70037,53.83381z" fill="url(#color-8)" stroke="#000000" stroke-width="0" stroke-linecap="butt"/><path d="M277.30136,46.36215c0,3.8748 -3.43748,7.01595 -7.67782,7.01595c-4.24034,0 -7.67782,-3.14115 -7.67782,-7.01595c0,-3.8748 3.43748,-7.01595 7.67782,-7.01595c4.24034,0 7.67782,3.14115 7.67782,7.01595z" fill="url(#color-9)" stroke="#000000" stroke-width="0" stroke-linecap="butt"/><path d="M378.93606,46.0671c0,3.8748 -3.43748,7.01594 -7.67783,7.01594c-4.24034,0 -7.67783,-3.14114 -7.67783,-7.01594c0,-3.8748 3.43748,-7.01595 7.67783,-7.01595c4.24034,0 7.67783,3.14115 7.67783,7.01595z" fill="url(#color-10)" stroke="#000000" stroke-width="0" stroke-linecap="butt"/><path d="M281.32026,161.65572l-4.02695,-27.47803" fill="none" stroke-opacity="0.2902" stroke="#000000" stroke-width="2.5" stroke-linecap="round"/><path d="M359.01673,165.20891l5.68511,-31.26809" fill="none" stroke-opacity="0.2902" stroke="#000000" stroke-width="2.5" stroke-linecap="round"/><path d="M293.4152,175.84297l9.36648,48.68848" fill="none" stroke-opacity="0.32157" stroke="#000000" stroke-width="2.5" stroke-linecap="round"/><path d="M337.91155,224.91403l8.0909,-48.5973" fill="none" stroke-opacity="0.32157" stroke="#000000" stroke-width="2.5" stroke-linecap="round"/><path d="M368.86605,202.02629l-19.36022,1.08671l2.7308,-30.50643l19.36022,-1.08671l9.57871,14.42313z" fill="url(#color-11)" stroke="#000000" stroke-width="0" stroke-linecap="butt"/><path d="M259.47775,185.73164l10.09188,-14.42313l19.32155,1.08671l1.6454,30.50643l-19.32155,-1.08671z" fill="url(#color-12)" stroke="#000000" stroke-width="0" stroke-linecap="butt"/><path d="M301.80014,98.70798l2.70054,-20.40408" fill="none" stroke-opacity="0.54902" stroke="#000000" stroke-width="2.5" stroke-linecap="round"/><path d="M333.34093,77.64044l5.10102,21.60432" fill="none" stroke-opacity="0.54902" stroke="#000000" stroke-width="2.5" stroke-linecap="round"/><path d="M319.49084,75.54002l0.12636,23.10462" fill="none" stroke-opacity="0.54902" stroke="#000000" stroke-width="2.5" stroke-linecap="round"/><path d="M299.57099,123.17267v-11.421h2.83365v11.421z" fill="#ffffff" stroke="none" stroke-width="0" stroke-linecap="butt"/><path d="M337.15192,122.8718v-11.421h2.83365v11.421z" fill="#ffffff" stroke="none" stroke-width="0" stroke-linecap="butt"/><path d="M304.04011,122.65637l-3.0283,3.60512" fill="none" stroke="#ffffff" stroke-width="2.5" stroke-linecap="round"/><path d="M348.96697,172.73529c0,0 -24.20189,1.58655 -28.58492,1.58655c-4.38303,0 -26.41137,-1.71706 -26.41137,-1.71706c0,0 8.33604,-1.81865 14.51144,-3.16131c6.20155,-1.34835 12.44333,-3.12352 12.44333,-3.12352c0,0 7.45549,1.78358 13.12017,2.9161c7.3636,1.47219 14.92137,2.47438 14.92137,3.49923z" fill="#000000" stroke="none" stroke-width="0" stroke-linecap="butt"/></g></g></svg>