<svg version="1.1" xmlns="http://www.w3.org/2000/svg" xmlns:xlink="http://www.w3.org/1999/xlink" width="35.17311" height="35.17311" viewBox="0,0,35.17311,35.17311"><g transform="translate(-302.41348,-162.4135)"><g stroke-miterlimit="10"><path d="M309.98314,162.9135h20.03379c3.9166,0 7.06966,3.15307 7.06966,7.06966v20.03379c0,3.91659 -3.15306,7.06966 -7.06966,7.06966h-20.03379c-3.91659,0 -7.06966,-3.15307 -7.06966,-7.06966v-20.03379c0,-3.91659 3.15307,-7.06966 7.06966,-7.06966z" fill="#000000" fill-rule="evenodd" stroke="#ffffff" stroke-width="1" stroke-linecap="round" stroke-linejoin="round"/><path d="M309.98314,162.9135h20.03379c3.9166,0 7.06966,3.15307 7.06966,7.06966v20.03379c0,3.91659 -3.15306,7.06966 -7.06966,7.06966h-20.03379c-3.91659,0 -7.06966,-3.15307 -7.06966,-7.06966v-20.03379c0,-3.91659 3.15307,-7.06966 7.06966,-7.06966z" fill="#9c9c9c" fill-rule="evenodd" stroke="#ffffff" stroke-width="1" stroke-linecap="round" stroke-linejoin="round"/><path d="M313.36996,171.55239c-0.44722,0.89443 -1.34164,0.44721 -1.34164,0.44721l-0.46129,-0.26685c-1.12657,-0.98639 -2.10679,-1.84249 -3.09118,-2.96578c-0.27632,-0.31531 -0.6163,-0.5714 -0.88834,-0.89042c-0.13846,-0.16237 -0.33985,-0.52936 -0.4798,-0.82439c0.01647,1.05378 -1.00847,3.64868 -1.00718,4.55302c0,0 0,1 -1,1c-1,0 -1,-1 -1,-1c0.00184,-1.41369 0.57704,-6.34936 2.33236,-6.83122c0.69225,-0.19004 1.38265,0.45097 1.97762,0.85266c1.56937,1.05956 2.98188,3.2966 4.47353,4.60098l0.0387,-0.01685c0,0 0.89443,0.44722 0.44722,1.34164z" fill="#000000" fill-rule="nonzero" stroke="none" stroke-width="0.5" stroke-linecap="butt" stroke-linejoin="miter"/><path d="M335.54177,172.80385c-0.94869,0.31623 -1.26491,-0.63246 -1.26491,-0.63246l-0.25914,-0.77888c-0.1895,-0.63869 -0.90118,-3.70496 -1.50387,-3.93501c-0.45124,-0.17224 -0.76927,0.58545 -1.1331,0.90312c-1.1612,1.01389 -2.14607,2.22881 -3.14595,3.39533c0,0 -0.6508,0.75926 -1.41005,0.10847c-0.75925,-0.65079 -0.10846,-1.41005 -0.10846,-1.41005c1.11946,-1.30604 4.08626,-5.58972 6.22096,-4.95154c1.8734,0.56007 2.50526,3.69445 2.99613,5.31499l0.24086,0.72112c0,0 0.31623,0.94868 -0.63245,1.26491z" fill="#000000" fill-rule="nonzero" stroke="none" stroke-width="0.5" stroke-linecap="butt" stroke-linejoin="miter"/><path d="M312.79452,178.09717l-0.31512,-0.86024c0.75082,-0.4194 1.75054,-1.12307 2.69558,-0.86167c1.47928,0.40917 2.50798,1.94122 1.1645,3.39426c-0.09269,0.10025 -2.51739,0.08508 -2.86394,0.08565c0,0 -1,0 -1,-1c0,-0.37683 0.142,-0.61166 0.31898,-0.758z" fill="#000000" fill-rule="nonzero" stroke="none" stroke-width="0.5" stroke-linecap="butt" stroke-linejoin="miter"/><path d="M323.94617,177.34791c0.51717,-1.46724 1.89142,-2.69507 3.2601,-0.63516c0.90836,1.36712 -0.6664,3.11105 -1.93821,3.13901c-0.18592,0.00409 -0.3475,-0.06709 -0.49657,-0.17699c-0.2817,-0.09812 -0.50603,-0.31869 -0.60924,-0.59796l-0.40686,-0.22911c-0.01209,-0.08036 -0.01947,-0.16409 -0.02236,-0.2504c-0.15602,-0.26295 -0.30776,-0.73109 0.16039,-1.19924c0.01758,-0.01758 0.03516,-0.03429 0.05274,-0.05016z" fill="#000000" fill-rule="nonzero" stroke="none" stroke-width="0.5" stroke-linecap="butt" stroke-linejoin="miter"/><path d="M310.25923,191.93694c-0.23605,-0.07103 -0.47616,-0.24689 -0.60738,-0.64055c-0.31623,-0.94868 0.63246,-1.26491 0.63246,-1.26491c4.98199,-1.64726 11.8616,-1.11521 17.05846,-0.54442l0.00642,0.00384l0.00038,-0.00301l0.98684,0.12335c0.50011,0.05516 0.88913,0.47911 0.88913,0.99392c0,0.51907 -0.39548,0.94577 -0.90156,0.99522l-1.11301,0.12367l-0.02655,-0.23894c-4.57957,1.49629 -10.59616,0.87006 -15.20888,0.87006h-0.875c0,0 -0.55925,0 -0.8413,-0.41823z" fill="#000000" fill-rule="nonzero" stroke="none" stroke-width="0.5" stroke-linecap="butt" stroke-linejoin="miter"/></g></g></svg>