<svg version="1.1" xmlns="http://www.w3.org/2000/svg" xmlns:xlink="http://www.w3.org/1999/xlink" width="155.02726" height="352.84976" viewBox="0,0,155.02726,352.84976"><g transform="translate(-244.8879,-1.22882)"><g data-paper-data="{&quot;isPaintingLayer&quot;:true}" fill-rule="nonzero" stroke-width="2" stroke-linejoin="miter" stroke-miterlimit="10" stroke-dasharray="" stroke-dashoffset="0" style="mix-blend-mode: normal"><path d="M314.36723,219.96882c5.76409,-0.13237 13.78239,-1.54236 19.74207,-2.60187c6.49812,-1.15523 14.81099,0 21.25647,0c3.78619,0 15.22825,0.81588 15.22825,0.81588l1.20664,6.00049l3.20168,19.22302l-3.01958,22.19283c0,0 -2.50957,28.12586 -9.58982,42.24651c-3.09614,6.17489 3.80578,13.61581 -5.734,17.39061c-3.37814,1.33668 -12.69454,9.84286 -16.18051,9.84286c-5.0571,0 -10.11801,-6.02741 -16.07223,-7.357c-7.5814,-1.69295 -24.49105,1.74176 -24.49105,1.74176l-7.04695,-7.23499l5.35352,-20.2736c0,0 5.57887,-30.18988 10.0594,-49.66792c1.47229,-6.40037 0.67935,-27.83886 4.6664,-32.31754z" fill="#3c2c1f" stroke="#000000" stroke-linecap="round"/><path d="M343.10791,233.22637l-17.52322,93.39573" fill="none" stroke="#000000" stroke-linecap="round"/><path d="M326.16096,333.56979c-1.90073,10.55066 -4.16411,19.5088 -15.0501,19.5088c-10.886,0 -24.37158,-19.5088 -24.37158,-19.5088c0,0 12.26643,-19.10368 23.15242,-19.10368c10.886,0 18.16999,8.553 16.26926,19.10368z" fill="#000000" stroke="#000000" stroke-linecap="butt"/><path d="M365.62578,330.40045c-1.90073,10.55068 -6.59481,19.91391 -17.48081,19.91391c-10.88599,0 -23.84161,-9.36323 -21.94088,-19.91391c1.90073,-10.55068 12.26643,-19.10368 23.15242,-19.10368c10.886,0 18.17,8.553 16.26927,19.10368z" fill="#000000" stroke="#000000" stroke-linecap="butt"/><path d="M328.78717,211.81384c-7.49232,4.12372 -27.76663,0.64147 -27.76663,0.64147l-54.87659,-51.40643l24.2728,-43.17442l21.03651,-2.72825l0.71527,6.79852l-12.99663,10.47055l-6.56122,38.92448c0,0 28.72125,17.75448 44.46582,14.2957c8.13887,-1.78797 15.94575,-6.40032 24.65985,-4.88263c25.83552,4.49963 3.27639,27.19715 -11.70584,31.25577z" fill="#feed00" stroke="#000000" stroke-linecap="round"/><g><path d="M367.86248,199.09647l13.75664,-12.65473l16.06556,23.09968l-2.58331,6.37988l-2.52013,-1.82868l0.70489,5.20394l-3.23394,8.79259l-5.41314,-4.79861l-7.76209,5.24213l-5.71989,-12.7902c0,0 -5.18592,3.70971 -8.94588,-2.9232c-3.45811,-6.10048 5.43082,-13.99667 5.43082,-13.99667z" fill="#feed00" stroke="#000000" stroke-linecap="round"/><path d="M388.01133,204.99026l-2.4257,4.00876l-4.47789,-3.31697l-3.98064,-2.6867l3.94754,-7.01171l6.89106,-3.63392l0.04564,12.64053z" fill="#ffa600" stroke="none" stroke-linecap="butt"/><path d="M368.88248,210.84633c0,0 -1.71786,3.53706 -3.50259,2.6413c-1.78471,-0.89578 -3.11015,-3.53066 -2.96045,-5.88518c0.1497,-2.35452 1.71786,-3.53706 3.50258,-2.6413c1.78471,0.89578 2.96046,5.88517 2.96046,5.88517z" fill="#ffa600" stroke="none" stroke-linecap="butt"/><path d="M381.77521,224.41483l-3.45859,2.60472l-2.92368,-5.80806l3.45859,-2.60473l2.92368,5.80806z" fill="#ffa600" stroke="none" stroke-linecap="butt"/><path d="M391.42237,222.15935l-2.88945,2.83172l-2.36176,-5.46737l2.88945,-2.83172z" fill="#ffa600" stroke="none" stroke-linecap="butt"/><path d="M396.72463,209.56976l-2.02672,3.03011l-1.52795,-4.81424l2.02672,-3.03011z" fill="#ffa600" stroke="none" stroke-linecap="butt"/></g><g><path d="M303.83627,208.97168c3.37034,-0.66156 10.04581,6.3596 7.61659,12.93784c-2.64125,7.15239 -7.09087,3.13592 -8.35747,4.3274c-0.24391,0.22943 3.09365,11.35997 0.46843,13.95023c-4.85172,4.78714 -8.50577,-3.92196 -8.50577,-3.92196l-4.56857,5.60863l-4.60935,-8.15609l-4.19459,-5.65462l1.85886,2.61622l-7.62937,-6.28498l16.72464,-24.90694c0,0 7.88595,6.6444 11.0232,9.79009z" fill="#feed00" stroke="#000000" stroke-linecap="round"/><path d="M287.32879,206.34146l7.38683,2.47522l0.43253,5.80255l-3.49534,3.29338l-3.88446,3.99559l-3.04033,-3.56518l2.60079,-12.00157z" fill="#ffa600" stroke="none" stroke-linecap="butt"/><path d="M306.52357,214.75259c1.61692,-1.17183 3.35524,-0.2576 3.88264,2.04198c0.52739,2.29958 -0.35585,5.11369 -1.97278,6.28551c-1.61692,1.17183 -3.35526,0.25762 -3.88265,-2.04196c-0.52739,-2.29958 0.35585,-5.11369 1.97279,-6.28552z" fill="#ffa600" stroke="none" stroke-linecap="butt"/><path d="M300.01465,230.70956c0,0 3.31296,-0.25593 3.83332,2.01297c0.52036,2.2689 -0.3522,5.0463 -1.94892,6.20347c-1.59672,1.15716 -3.83332,-2.01297 -3.83332,-2.01297z" fill="#ffa600" stroke="none" stroke-linecap="butt"/><path d="M285.57926,230.06082l7.3594,2.73388l-1.44931,5.77665l-3.30824,-2.32877z" fill="#ffa600" stroke="none" stroke-linecap="butt"/><path d="M277.59882,219.26995l2.48878,2.66367l-0.7317,4.99761l-2.48878,-2.66367z" fill="#ffa600" stroke="none" stroke-linecap="butt"/></g><path d="M308.39392,188.70273c-1.13956,6.46183 -8.59358,24.72384 -8.59358,24.72384l-25.14256,-3.94849l7.25729,-22.19154l14.06857,-56.1328c0,0 5.46239,-8.93843 6.96542,-13.80536l1.17513,-0.05054c13.20595,1.5539 25.37737,6.44918 39.0568,3.77402c5.47471,-1.07063 9.37634,-3.33562 13.08518,-7.49817c0.84798,-0.95171 3.33678,-3.27524 4.85914,-2.4366c3.42636,1.88753 8.04671,13.2845 8.04671,13.2845l18.88095,44.08709l6.01658,15.72623l-17.60309,17.68577l-5.32669,3.35314l-1.1609,-23.73944l-0.88425,24.9614l1.64321,13.97906c0,0 -10.05735,4.56493 -12.90949,5.11469c-11.53714,2.22379 -23.7286,0.95107 -35.2535,3.21178c-3.74597,0.73479 -9.03179,4.7341 -12.54427,3.19182c-1.87204,-0.822 -5.43199,-6.77839 -5.57331,-8.51977c-0.62214,-7.66638 -2.52279,-16.3739 -1.62979,-24.00961" fill="#fffe8a" stroke="#000000" stroke-linecap="round"/><path d="M309.45361,108.49667c13.81169,-3.59998 27.22001,-7.24329 41.63938,-7.28045c3.07508,-0.00792 13.83557,0.26271 13.40694,5.03619c-0.58257,6.48763 -6.58255,10.31907 -12.27723,12.18513c-10.26615,3.36407 -34.91968,6.19006 -44.78704,1.46679c-7.02258,-3.36153 -5.87786,-10.98563 2.14404,-11.63662z" fill="#fffe8a" stroke="#000000" stroke-linecap="round"/><g stroke-linecap="butt"><path d="M309.4838,37.86113l-11.23576,35.67571l-2.88871,14.99231l-0.49764,-2.16898l-3.78167,-17.36865l-7.25562,-43.89714l-1.66989,-17.53281l1.97129,-0.11839l15.07361,16.05755l11.02819,14.03469z" fill="#feed00" stroke="#000000"/><path d="M304.84346,40.21894l-6.05503,25.27926l-1.35983,10.42697l-0.39503,-1.41042l-3.03186,-11.31603l-6.1747,-28.84648l-1.67249,-11.65304l1.2701,-0.29107l10.28583,9.22155l7.60271,8.28981z" fill="#ffa700" stroke="none"/></g><g stroke-linecap="butt"><path d="M345.30865,34.59132l6.47901,-14.21538c0,0 6.25126,-11.40409 9.53086,-16.83078c0.63824,-1.05611 0.80348,-2.16239 1.72567,-0.35627c1.43909,2.81848 2.34749,14.96568 2.34749,14.96568l3.22574,38.17901l0.49077,15.31631l0.03938,1.91853c0,0 -5.20499,-10.54239 -5.73009,-11.8014c-4.77803,-11.45627 -17.39703,-27.07645 -17.39703,-27.07645z" fill="#feed00" stroke="#000000"/><path d="M350.06196,35.44026l4.76589,-8.64769l6.87858,-10.04146l1.15825,-0.05092l1.07503,10.0766l0.90653,25.4134c0,0 -0.17468,6.73967 -0.17013,10.1099c0.00057,0.4234 0.17867,1.11956 -0.03599,1.26406c-0.51704,0.348 -3.11716,-7.47504 -3.4253,-8.35749c-2.80384,-8.02987 -10.6831,-19.62572 -10.6831,-19.62572z" fill="#ffa700" stroke="none"/></g><path d="M324.47626,33.46997l30.94611,4.74198c0,0 7.23126,12.97916 9.91376,21.26711c0.82387,2.54546 3.4186,7.16958 3.4186,7.16958c0,0 -3.59455,39.55234 -24.61535,43.54013c-17.60586,3.33996 -50.21522,-13.1852 -50.21522,-13.1852l-1.34731,-32.18597l0.55236,-11.87145l31.72158,-19.23178z" fill="#feed00" stroke="#000000" stroke-linecap="butt"/><path d="M365.59792,71.26746c4.30563,0.0417 11.94903,9.89732 11.94903,9.89732l-7.26681,4.1782l1.58589,2.34141l1.73202,8.29192c0,0 -10.74861,4.22798 -13.95983,1.54389" fill="#feed00" stroke="#000000" stroke-linecap="round"/><path d="M301.66266,105.04665l-14.02611,0.72722l0.37238,-8.46268l1.18761,-2.56649l-7.84543,-2.95183l10.19681,-11.69449" fill="#feed00" stroke="#000000" stroke-linecap="round"/><path d="M252.68182,62.27141l37.87432,14.38039" fill="none" stroke="#000000" stroke-linecap="round"/><path d="M258.63042,76.06324l32.37564,1.78653" fill="none" stroke="#000000" stroke-linecap="round"/><path d="M290.15849,78.27124l-26.35959,5.31067" fill="none" stroke="#000000" stroke-linecap="round"/><path d="M397.21921,47.89198l-28.81354,21.03139" fill="none" stroke="#000000" stroke-linecap="round"/><path d="M365.84879,70.01264c10.29304,-8.69126 33.06637,-6.41607 33.06637,-6.41607" fill="none" stroke="#000000" stroke-linecap="round"/><path d="M369.46648,71.12986l27.40185,2.12608" fill="none" stroke="#000000" stroke-linecap="round"/><path d="M325.13426,83.38689c3.70782,-0.30089 7.59225,-0.85812 11.31051,-0.69783c0.47192,0.02035 1.25731,-0.24512 1.40226,0.20447c0.18986,0.58892 -6.14919,4.8902 -6.91859,4.89538c-1.73017,0.01166 -4.59529,-3.14445 -5.3775,-4.43582z" fill="#000000" stroke="#000000" stroke-linecap="round"/><path d="M324.58589,64.71052c0.57252,7.05494 -4.59587,13.23119 -11.54392,13.79504c-6.94805,0.56385 -13.61718,-11.75317 -13.61718,-11.75317c0,0 4.59586,-13.23118 11.5439,-13.79503c6.94805,-0.56385 13.04468,4.69822 13.6172,11.75316z" fill="#ffffff" stroke="#000000" stroke-linecap="butt"/><path d="M359.50501,61.45288c0.57252,7.05494 -4.59586,13.23118 -11.5439,13.79503c-6.94805,0.56385 -13.04466,-4.69823 -13.61718,-11.75316c-0.57252,-7.05494 4.59586,-13.23118 11.5439,-13.79503c6.94805,-0.56385 13.04466,4.69823 13.61718,11.75316z" fill="#ffffff" stroke="#000000" stroke-linecap="butt"/><path d="M321.20589,63.36127c0.40894,5.03924 -3.18754,12.98687 -8.03296,13.38008c-4.84542,0.39321 -9.10493,-6.91688 -9.51388,-11.95613c-0.40894,-5.03924 3.18754,-9.44312 8.03296,-9.83633c4.84542,-0.39321 9.10493,3.37313 9.51388,8.41238z" fill="#000000" stroke="#000000" stroke-linecap="butt"/><path d="M355.22748,59.24022c0.40894,5.03924 -2.36975,13.25947 -7.21517,13.65268c-4.84542,0.39321 -9.92272,-7.18948 -10.33167,-12.22873c-0.40894,-5.03924 3.18754,-9.44312 8.03296,-9.83633c4.84542,-0.39321 9.10493,3.37313 9.51388,8.41238z" fill="#000000" stroke="#000000" stroke-linecap="butt"/><path d="M307.28229,40.80696l7.42348,-6.74871l3.56546,-2.07018l-4.90541,-1.83317l13.55006,-3.13622l4.23699,-0.34838l-6.08237,-3.03958l5.53986,0.84692l12.07794,9.6759" fill="#feed00" stroke="#000000" stroke-linecap="butt"/><path d="M295.12666,58.61005l-4.57727,-4.56318l-5.97069,-2.60629l7.08399,-4.04382l7.54291,-3.81499" fill="#feed00" stroke="#000000" stroke-linecap="butt"/><path d="M321.10755,158.55212c1.2776,0.41201 4.6832,-0.12125 5.28731,1.37265c2.02616,5.01034 -1.59087,9.94476 -6.50605,9.30918c-3.27298,-0.42322 1.54692,-11.41797 1.54692,-11.41797c0,0 -1.59958,-23.69505 -0.0255,-35.36297" fill="#ffaf36" stroke="#000000" stroke-linecap="round"/><path d="M347.80708,156.9919c8.69193,-11.44331 9.77158,17.24157 -0.58899,9.99381c-5.6095,-3.92413 0.58359,-8.46893 0.8831,-11.01972c1.41373,-12.04022 -4.59432,-24.32775 -1.98547,-36.63046" fill="#ffaf36" stroke="#000000" stroke-linecap="round"/><path d="M311.69754,191.05829c3.3009,-3.11052 7.74088,-2.94473 11.88069,-3.94752c13.3523,-3.23438 28.52954,-3.56561 42.19371,-2.47307" fill="none" stroke="#000000" stroke-linecap="round"/><path d="M365.9492,216.43669c-0.82468,-8.86104 2.03898,-27.93764 2.03898,-27.93764" fill="none" stroke="#000000" stroke-linecap="round"/><path d="M312.54061,195.25863c0.6888,8.48781 -2.63188,18.0908 -2.14553,26.57686" fill="none" stroke="#000000" stroke-linecap="round"/><path d="M313.84987,117.99189c-2.68682,-0.70309 -4.66826,-3.12462 -7.18071,-4.36767" fill="none" stroke="#fcec41" stroke-linecap="round"/><path d="M356.34051,112.20354c1.53645,-1.21287 2.98565,-2.19129 4.74117,-3.06431" fill="none" stroke="#fcec41" stroke-linecap="round"/><path d="M329.98015,136.43987l-0.77524,-9.55301" fill="none" stroke="#fcec41" stroke-linecap="round"/><path d="M333.3617,134.75826l-0.39708,-4.89301" fill="none" stroke="#fcec41" stroke-linecap="round"/><path d="M337.44225,133.01988l-1.00153,-3.67128" fill="none" stroke="#fcec41" stroke-linecap="round"/><path d="M291.34501,212.49589l14.41187,-39.43771l-8.71475,38.47317z" fill="#fce541" stroke="#fcec41" stroke-linecap="round"/><path d="M291.34501,212.49589l14.41187,-39.43771l-8.71475,38.47317z" fill="#fce541" stroke="#fcec41" stroke-linecap="round"/><path d="M373.80064,201.27252l-5.20642,-30.55158l15.0065,24.01812z" fill="#fce541" stroke="#fcec41" stroke-linecap="round"/></g></g></svg>