<svg version="1.1" xmlns="http://www.w3.org/2000/svg" xmlns:xlink="http://www.w3.org/1999/xlink" width="35.12501" height="35.12434" viewBox="0,0,35.12501,35.12434"><g transform="translate(-302.4375,-162.43783)"><g data-paper-data="{&quot;isPaintingLayer&quot;:true}" stroke="none" stroke-miterlimit="10" stroke-dasharray="" stroke-dashoffset="0" style="mix-blend-mode: normal"><path d="M337.5625,169.8317v20.49804c0,4.00745 -3.22497,7.23243 -7.23242,7.23243h-20.5c-3.66107,0 -6.66147,-2.69385 -7.1543,-6.21484c0.7952,3.03475 3.54108,5.26367 6.83204,5.26367h20.0332c3.9166,0 7.07032,-3.15372 7.07032,-7.07031v-20.03321c0,-3.2976 -2.23906,-6.0451 -5.28321,-6.83398c3.52994,0.48496 6.23438,3.49081 6.23438,7.15821z" fill-opacity="0.29839" fill="#000000" fill-rule="evenodd" stroke-width="4.54219" stroke-linecap="round" stroke-linejoin="round"/><path d="M309.50717,162.43783h20.03378c3.9166,0 7.06966,3.15307 7.06966,7.06966v20.03379c0,3.91659 -3.15307,7.06966 -7.06966,7.06966h-20.03378c-3.91659,0 -7.06967,-3.15307 -7.06967,-7.06966v-20.03379c0,-3.91659 3.15308,-7.06966 7.06967,-7.06966z" fill="#babebf" fill-rule="evenodd" stroke-width="4.43922" stroke-linecap="round" stroke-linejoin="round"/><path d="M307.61944,169.02861c0.132,-0.52613 0.72413,-0.52613 0.72413,-0.52613h0.625c3.93989,0.00379 8.01734,-0.3376 11.93788,-0.71348c3.40209,-0.32271 6.86666,-0.3451 10.27254,-0.02874c1.14495,0.10635 2.35836,-0.09255 2.9495,1.26893c0.46556,1.07225 -0.01552,3.63024 -0.03509,4.82252c-0.06248,3.80632 0.03811,7.56335 0.14709,11.36746c0.13892,5.44441 -3.6028,6.7036 -8.31619,7.09428c-5.21808,0.43251 -10.62714,-0.1333 -15.80967,-0.7557c-1.19308,-0.19074 -3.02792,-0.10022 -3.91069,-1.09712c-0.91213,-1.03005 -0.38226,-3.94201 -0.37634,-5.19341c0.02463,-5.20539 0.62037,-10.38358 0.62014,-15.59807c0,0 0,-0.75 0.75,-0.75c0.18054,0 0.31762,0.04346 0.4217,0.10946z" fill="#000000" fill-rule="nonzero" stroke-width="0.5" stroke-linecap="butt" stroke-linejoin="miter"/><path d="M314.23532,175.56598c0,-0.41421 0.33579,-0.75 0.75,-0.75c0.41421,0 0.75,0.33579 0.75,0.75c0,0.41421 -0.33579,0.75 -0.75,0.75c-0.41421,0 -0.75,-0.33579 -0.75,-0.75z" fill="#ffffff" fill-rule="nonzero" stroke-width="0.5" stroke-linecap="butt" stroke-linejoin="miter"/><path d="M325.27698,175.04515c0,-0.41421 0.33579,-0.75 0.75,-0.75c0.41421,0 0.75,0.33579 0.75,0.75c0,0.41421 -0.33579,0.75 -0.75,0.75c-0.41421,0 -0.75,-0.33579 -0.75,-0.75z" fill="#ffffff" fill-rule="nonzero" stroke-width="0.5" stroke-linecap="butt" stroke-linejoin="miter"/><path d="M322.53434,184.14974c0.02506,0.70381 0.38324,1.47813 0.07517,2.11143c-0.65792,1.35245 -2.47336,0.47712 -2.96736,-0.25662c-0.82768,-1.22934 -0.39927,-1.96673 -0.05584,-3.07158c0,0 0.23717,-0.71151 0.94868,-0.47434c0.29334,0.09778 0.42543,0.27619 0.47937,0.45212c0.09836,-0.04739 0.20864,-0.07394 0.32512,-0.07394c0.27701,0 0.51895,0.15018 0.64883,0.37357l0.47575,0.78678l-0.0514,0.03108z" fill="#ffffff" fill-rule="nonzero" stroke-width="0.5" stroke-linecap="butt" stroke-linejoin="miter"/></g></g></svg>