<svg version="1.1" xmlns="http://www.w3.org/2000/svg" xmlns:xlink="http://www.w3.org/1999/xlink" width="35.17311" height="35.17311" viewBox="0,0,35.17311,35.17311"><g transform="translate(-302.41347,-162.4135)"><g data-paper-data="{&quot;isPaintingLayer&quot;:true}" stroke-miterlimit="10" stroke-dasharray="" stroke-dashoffset="0" style="mix-blend-mode: normal"><path d="M309.98314,162.9135h20.03379c3.9166,0 7.06966,3.15307 7.06966,7.06966v20.03379c0,3.91659 -3.15306,7.06966 -7.06966,7.06966h-20.03379c-3.91659,0 -7.06966,-3.15307 -7.06966,-7.06966v-20.03379c0,-3.91659 3.15307,-7.06966 7.06966,-7.06966z" fill="#000000" fill-rule="evenodd" stroke="#ffffff" stroke-width="1" stroke-linecap="round" stroke-linejoin="round"/><path d="M309.98314,162.9135h20.03378c3.9166,0 7.06966,3.15307 7.06966,7.06966v20.03379c0,3.91659 -3.15306,7.06966 -7.06966,7.06966h-20.03378c-3.91659,0 -7.06967,-3.15307 -7.06967,-7.06966v-20.03379c0,-3.91659 3.15308,-7.06966 7.06967,-7.06966z" fill="#ffeb0f" fill-rule="evenodd" stroke="none" stroke-width="4.43922" stroke-linecap="round" stroke-linejoin="round"/><g data-paper-data="{&quot;index&quot;:null}" fill-rule="nonzero" stroke="none" stroke-width="0.5" stroke-linecap="butt" stroke-linejoin="miter"><path d="M314.17895,189.68654c0.38437,0.36377 0.12792,0.74517 0.04643,0.84712c0.04341,0.04009 0.08707,0.07999 0.13098,0.1197c0.24205,0.21894 0.57507,0.5784 0.97937,0.41746c0.37527,-0.14938 0.75981,-0.47863 1.09584,-0.83508c-0.06379,-0.07305 -0.12952,-0.14302 -0.19831,-0.2081c-1.14315,-1.08151 -2.34096,-2.12828 -3.43894,-3.2556c-0.84976,-0.87247 -1.44935,-1.94064 -2.25739,-2.84226c-0.07975,-0.089 -0.16858,-0.18093 -0.2629,-0.27586c-0.44405,0.29725 -0.93025,0.54541 -1.2838,0.9416c-0.269,0.30144 0.42225,0.69521 0.69622,0.99214c0.48753,0.52838 0.9143,1.11108 1.40623,1.63538c0.76042,0.81048 1.48147,1.64974 2.25475,2.44913c0.11773,-0.09885 0.46667,-0.33092 0.83151,0.01436zM308.474,193.06044c1.33378,-0.68739 2.54599,-1.72394 3.80065,-2.61613c-0.54273,-0.63499 -1.01433,-1.29107 -1.38817,-1.72305c-0.4989,-0.5765 -1.04207,-1.12362 -1.56496,-1.68824c-0.67418,2.04263 -0.86917,4.24606 -1.58155,6.31439l-0.01801,0.01515l0.01018,0.0043l-0.01874,0.04445l0.00735,0.024c0.24538,-0.13437 0.50644,-0.24768 0.75324,-0.37487zM308.3283,186.13282c0,0 0.01746,-0.0474 0.05595,-0.1101c-0.23107,-0.22334 -0.45532,-0.45113 -0.56254,-0.74559c-0.45218,-1.24179 0.70257,-1.92076 1.58462,-2.5206c-0.46719,-0.54622 -0.82071,-1.16572 -0.65161,-1.86328c0.14568,-0.60098 1.43195,-1.47474 1.85507,-1.89365c4.85902,-4.55883 9.95904,-8.76272 14.55377,-13.61766c0,0 0.28217,-0.29815 0.62954,-0.17839c0.23497,-0.14855 0.52323,-0.06121 0.52323,-0.06121l0.66772,0.32581c1.56322,2.06638 3.26392,3.98043 4.89262,5.99298c0.61219,0.73836 2.35607,2.26593 2.01457,3.37572c-0.14698,0.47767 -0.60721,0.79402 -0.91791,1.18546c-0.71445,0.90013 -1.47422,1.72698 -2.22394,2.59201c-2.69346,3.10772 -4.95679,6.57558 -7.78969,9.54997c-1.15417,1.2117 -3.08447,4.097 -5.12869,3.4208c-0.24248,-0.08021 -0.44312,-0.2287 -0.62395,-0.40984c-0.10422,0.09518 -0.21279,0.18519 -0.32655,0.26843c-0.39742,0.2908 -0.75342,0.68965 -1.22789,0.82151c-0.89583,0.24895 -1.75311,-0.22124 -2.51839,-0.91895c-1.35814,0.93937 -2.65229,2.07504 -4.09465,2.81286c-0.32781,0.16769 -0.65852,0.26872 -0.99463,0.33435l0.0002,0.00066l-1.1699,0.35844c-0.20848,0.06816 -0.44675,0.02291 -0.61724,-0.13845c-0.19606,-0.18555 -0.24376,-0.46907 -0.139,-0.70212l0.46843,-1.11074c0.76435,-2.22863 0.94681,-4.58246 1.74085,-6.76839zM318.09022,189.28612c0.44874,0.42469 0.02405,0.87342 0.02405,0.87342l-0.06961,0.06806c-0.00367,0.00481 -0.00735,0.00962 -0.01103,0.01443c0.0632,0.0778 0.13598,0.14327 0.22778,0.18473c0.47422,0.21419 0.95661,-0.25034 1.23853,-0.51527c0.88556,-0.83219 1.72727,-1.7198 2.56499,-2.59945c1.96621,-2.06441 3.40799,-4.47883 5.26755,-6.61707c1.31671,-1.51404 2.69357,-2.98802 3.94581,-4.55374c0.44718,-0.55913 1.04298,-1.00372 1.41679,-1.61435c0.13488,-0.22033 -0.31944,-0.40618 -0.4855,-0.60407c-0.45342,-0.54033 -0.83803,-1.13583 -1.28865,-1.67851c-1.62608,-2.00928 -3.32371,-3.92357 -4.88712,-5.98423c-4.60104,4.85692 -9.70501,9.06505 -14.56662,13.62935c-0.21455,0.21204 -1.41148,1.04802 -1.52578,1.34839c-0.14179,0.37257 0.41571,0.68527 0.67963,0.98402c0.44786,0.50695 0.94263,0.9749 1.35162,1.5137c1.28577,1.69386 2.6671,3.08265 4.21253,4.54525c0.35358,0.33463 0.72598,0.65082 1.07613,0.98881c0.12018,-0.10001 0.46671,-0.32628 0.82892,0.01653z" fill="#000000"/><path d="M312.29226,190.44314c-1.25466,0.89219 -2.48809,1.94719 -3.82187,2.63458c-0.2468,0.12719 -0.51153,0.2393 -0.75691,0.37367l-0.00745,-0.02405l0.01874,-0.04445l-0.01025,-0.00432l0.01806,-0.01513c0.71238,-2.06834 0.91643,-4.30537 1.59061,-6.34799c0.5229,0.56463 1.07677,1.11673 1.57567,1.69323c0.37384,0.43198 0.85068,1.09947 1.3934,1.73446z" data-paper-data="{&quot;noHover&quot;:false,&quot;origItem&quot;:[&quot;Path&quot;,{&quot;applyMatrix&quot;:true,&quot;segments&quot;:[[[237.83625,180.70691],[3.77788,1.94699],[-0.69904,-0.36026]],[[235.70273,179.64511],[0.69501,0.38059],[0,0]],[235.6819,179.71311],[235.73499,179.839],[235.70613,179.85117],[[235.75713,179.89409],[0,0],[2.01777,5.85846]],[[240.2368,197.7793],[-1.90958,-5.78564],[1.48108,-1.59928]],[[244.66949,192.99741],[-1.41313,1.63293],[1.05888,-1.22358]],[[248.60141,188.11697],[-1.53723,1.79856],[-3.55377,-2.52708]]],&quot;closed&quot;:true}]}" fill="#dccb0d"/><path d="M314.21732,190.51795c0.08148,-0.10194 0.35603,-0.45312 -0.02834,-0.81689c-0.36484,-0.34528 -0.71849,-0.11091 -0.83622,-0.01207c-0.77328,-0.79939 -1.51707,-1.65829 -2.27749,-2.46877c-0.49192,-0.5243 -0.91616,-1.11365 -1.40369,-1.64204c-0.27398,-0.29693 -0.96422,-0.69212 -0.69521,-0.99356c0.35355,-0.39619 0.8443,-0.64844 1.28835,-0.94568c0.09431,0.09493 0.18341,0.18669 0.26317,0.27569c0.80804,0.90161 1.42015,1.96764 2.26991,2.84011c1.09798,1.12732 2.30669,2.20165 3.44984,3.28316c0.06879,0.06508 0.1344,0.13522 0.19819,0.20826c-0.33603,0.35646 -0.72427,0.68943 -1.09954,0.83881c-0.40429,0.16093 -0.73955,-0.1971 -0.98159,-0.41604c-0.0439,-0.03972 -0.10397,-0.11088 -0.14738,-0.15096z" data-paper-data="{&quot;noHover&quot;:false,&quot;origItem&quot;:[&quot;Path&quot;,{&quot;applyMatrix&quot;:true,&quot;segments&quot;:[[[253.99524,190.26334],[1.0887,-1.03035],[-1.03339,0.97801]],[[251.64003,190.30404],[0.33345,0.27998],[-2.19027,2.26423]],[[245.25356,197.24107],[2.15386,-2.29565],[-1.39335,1.48507]],[[241.27049,201.87323],[1.38092,-1.49664],[-0.77601,0.84104]],[[239.29847,204.68341],[-0.76194,-0.85381],[1.00143,1.12219]],[[242.93478,207.35045],[-1.25777,-0.84192],[0.26715,-0.26888]],[[243.67942,206.56908],[-0.22591,0.25207],[2.28873,-2.55379]],[[250.07338,198.51851],[-2.4069,2.47123],[3.10996,-3.19307]],[[259.81399,189.29717],[-3.23792,3.06332],[0.19485,-0.18434]],[[260.37569,188.70775],[-0.18068,0.20689],[-0.9518,-1.00963]],[[257.27176,186.34243],[1.06295,0.42312],[-1.14516,-0.45585]],[[254.49774,187.52486],[0.68558,-0.62015],[-0.12436,0.11249]],[[254.12676,187.86392],[0.12297,-0.11354],[0.2308,0.28874]]],&quot;closed&quot;:true}]}" fill="#dccb0d"/><path d="M318.11949,190.1427c0,0 0.41387,-0.41513 -0.03487,-0.83982c-0.36221,-0.3428 -0.70983,-0.11694 -0.83001,-0.01693c-0.35015,-0.33799 -0.72442,-0.65508 -1.07801,-0.98971c-1.54543,-1.4626 -2.93351,-2.85804 -4.21928,-4.55191c-0.40899,-0.53879 -0.905,-1.00942 -1.35286,-1.51637c-0.26393,-0.29875 -0.82192,-0.61303 -0.68014,-0.9856c0.11431,-0.30036 1.31091,-1.13784 1.52546,-1.34989c4.86161,-4.5643 9.98886,-8.79209 14.5899,-13.64901c1.5634,2.06065 3.26999,3.98205 4.89607,5.99132c0.45062,0.54268 0.83676,1.14115 1.29019,1.68148c0.16605,0.19789 0.62077,0.38482 0.4859,0.60514c-0.37381,0.61062 -0.96909,1.05716 -1.41627,1.61629c-1.25223,1.56572 -2.63045,3.05085 -3.94716,4.56489c-1.85956,2.13825 -3.31687,4.56271 -5.28307,6.62712c-0.83772,0.87965 -1.68328,1.76693 -2.56884,2.59912c-0.28192,0.26493 -0.7658,0.7291 -1.24003,0.5149c-0.09181,-0.04146 -0.16494,-0.10704 -0.22814,-0.18484c0.00368,-0.00481 0.01791,-0.04332 0.02158,-0.04812l0.06956,-0.06808z" data-paper-data="{&quot;noHover&quot;:false,&quot;origItem&quot;:[&quot;Path&quot;,{&quot;applyMatrix&quot;:true,&quot;segments&quot;:[[[265.07374,191.39748],[1.27103,-1.20291],[-1.02594,0.97096]],[[262.72584,191.44429],[0.34039,0.28326],[-0.9918,0.95734]],[[259.67775,194.24504],[1.0015,-0.94782],[-4.37736,4.14275]],[[247.74595,207.11923],[3.6419,-4.79779],[-1.15844,1.52612]],[[243.91757,211.40675],[1.26854,-1.43591],[-0.74756,0.8462]],[[241.99254,214.19393],[-0.4016,-1.05528],[0.32377,0.85077]],[[246.31426,218.01317],[-0.6077,-0.6006],[13.77029,12.92816]],[[287.57353,256.61766],[-13.03223,-13.75702],[4.42827,-5.83671]],[[301.41607,239.6676],[-4.6058,5.69117],[1.27634,-1.53712]],[[305.06611,234.9133],[-1.28431,1.53047],[0.47036,-0.56051]],[[306.44129,233.20231],[0.38203,0.62406],[-1.0588,-1.72958]],[[302.42831,228.62973],[1.26662,1.58372],[-3.5469,-4.43485]],[[291.25201,215.73148],[3.7295,4.28844],[-5.26711,-6.05649]],[[276.33191,196.98892],[5.56918,5.84735],[-2.37281,-2.49156]],[[269.0667,189.62611],[2.50829,2.35713],[-0.79853,-0.7504]],[[265.55861,188.16664],[1.34322,-0.60668],[-0.26003,0.11745]],[[264.91343,188.68988],[0.17901,-0.22037],[0.01042,0.01362]],[[264.94467,188.73076],[-0.0104,-0.01363],[0,0]],[265.14186,188.92354]],&quot;closed&quot;:true}]}" fill="#dccb0d"/></g></g></g></svg>