<svg version="1.1" xmlns="http://www.w3.org/2000/svg" xmlns:xlink="http://www.w3.org/1999/xlink" width="133.47133" height="261.79443" viewBox="0,0,133.47133,261.79443"><defs><linearGradient x1="331.60581" y1="182.58262" x2="324.91965" y2="339.93848" gradientUnits="userSpaceOnUse" id="color-1"><stop offset="0" stop-color="#009bff"/><stop offset="1" stop-color="#6dc9ff"/></linearGradient><linearGradient x1="160.57179" y1="101.40896" x2="160.52381" y2="102.53802" gradientUnits="userSpaceOnUse" id="color-2"><stop offset="0" stop-color="#878787"/><stop offset="1" stop-color="#848484"/></linearGradient><linearGradient x1="314.90644" y1="209.22706" x2="311.16563" y2="297.26571" gradientUnits="userSpaceOnUse" id="color-3"><stop offset="0" stop-color="#8ae8ff"/><stop offset="1" stop-color="#5ec3ff"/></linearGradient></defs><g transform="translate(-267.15691,-81.51907)"><g stroke-miterlimit="10"><g stroke-linecap="butt"><path d="M283.85007,115.94785c5.34274,-0.2628 9.76354,4.21692 9.87412,10.00579c0.11059,5.78884 -4.13091,10.69465 -9.47365,10.95746c-5.34274,0.26281 -11.33426,-4.24353 -11.44484,-10.03238c-0.11059,-5.78884 5.70162,-10.66804 11.04436,-10.93084z" fill="#ffeb00" stroke="#000000" stroke-width="2.5"/><path d="M278.95784,126.35113c-0.08296,0.05378 -0.16509,0.10505 -0.24526,0.1537c0.20626,0.083 0.35094,0.08216 0.28462,-0.07349c-0.01132,-0.02657 -0.02456,-0.05332 -0.03936,-0.0802zM280.54099,124.05056c2.02877,-0.35473 4.76642,0.26964 6.5888,0.27914c0.0113,-0.07464 0.02958,-0.14931 0.05519,-0.22323c0.226,-0.65233 0.938,-0.99792 1.59032,-0.77194c0.08646,0.02996 0.16752,0.06845 0.24258,0.11419c0.02926,-0.00625 0.05832,-0.01111 0.08715,-0.01474c1.44371,-0.31453 2.9723,0.20584 2.65944,1.93217c0.06836,0.13854 0.10222,0.28675 0.08464,0.4494c-0.21454,1.98442 -3.0383,3.4173 -4.49536,1.40139c-0.09115,-0.12614 -0.17028,-0.25008 -0.23809,-0.37172c-1.57599,0.03274 -3.07354,-0.25154 -4.68216,-0.17538c-0.46831,0.02217 -0.94896,0.11714 -1.40823,0.0321c0.22481,0.25031 0.43694,0.49618 0.27023,0.71314c-0.53825,0.70052 -1.50669,1.03127 -2.37965,1.16662c-1.3333,0.20672 -3.24137,-0.98178 -3.50678,-2.34476c-0.49933,-2.56417 4.46614,-5.80028 5.13196,-2.1864z" fill="#000000" stroke="none" stroke-width="0.5"/></g><path d="M294.86578,82.8564c11.63798,0.78657 20.47409,10.27708 19.736,21.19765c-0.73809,10.92056 -10.77087,19.1358 -22.40885,18.34922c-11.63798,-0.78657 -20.47408,-10.27709 -19.73599,-21.19765c0.73809,-10.92056 10.77086,-19.13578 22.40884,-18.34921z" fill="#00cdff" stroke="#000000" stroke-width="2.5" stroke-linecap="butt"/><path d="M293.06583,88.78487c7.8827,0.53276 13.82652,7.56906 13.27589,15.71597c-0.55063,8.14691 -7.38718,14.31941 -15.26988,13.78664c-7.8827,-0.53276 -13.82652,-7.56905 -13.27589,-15.71596c0.55063,-8.14692 7.38718,-14.31941 15.26988,-13.78665z" fill="#8ae8ff" stroke-opacity="0.5098" stroke="#000000" stroke-width="2.5" stroke-linecap="butt"/><path d="M399.37825,110.05909c-0.73809,10.92056 -10.77087,19.13578 -22.40884,18.34921c-11.63798,-0.78657 -20.47408,-10.27709 -19.73599,-21.19765c0.73809,-10.92056 10.77087,-19.13578 22.40884,-18.34921c11.63798,0.78657 20.47408,10.27709 19.73599,21.19765z" fill="#00cdff" stroke="#000000" stroke-width="2.5" stroke-linecap="butt"/><path d="M389.55018,110.73651c-0.55063,8.14692 -7.38718,14.31941 -15.26988,13.78665c-7.8827,-0.53276 -13.82652,-7.56905 -13.27589,-15.71597c0.55063,-8.14692 7.38719,-14.31941 15.26988,-13.78664c7.8827,0.53276 13.82652,7.56904 13.27589,15.71596z" fill="#8ae8ff" stroke-opacity="0.5098" stroke="#000000" stroke-width="2.5" stroke-linecap="butt"/><path d="M347.60307,179.22079l19.80311,4.09414c0,0 14.75627,6.98231 15.1042,9.28603c0.48442,3.20745 -0.91128,14.27009 -0.91128,14.27009l-0.34249,8.06028l-1.37133,5.78618l-5.86844,-0.94778l-2.50135,5.89351l-14.51915,-2.63474l-11.68205,3.43588l-16.98971,-4.08772l-16.17883,3.31567l-15.42345,-7.83985l-12.42255,0.99754l-6.68712,-8.16796l-3.21072,2.72243l1.792,-9.0646l4.0287,-8.72971c0,0 1.16631,-8.69777 5.59291,-11.98397c4.17814,-3.10174 20.26442,-7.21185 20.26442,-7.21185l17.7688,-1.00363z" fill="#009bff" stroke="#000000" stroke-width="2.5" stroke-linecap="round"/><path d="M269.47781,336.19134c0,0 -1.81484,-8.54265 -0.71938,-18.13821c2.54208,-22.26702 15.73235,-113.36589 15.73235,-113.36589c0,0 7.24081,-22.78888 16.51644,-22.52904c9.21146,0.25805 31.03002,1.22849 50.1013,1.76273c20.68502,0.57945 26.08705,25.29184 26.08705,25.29184c0,0 4.94795,102.37039 5.2776,122.19381c0.1089,6.54834 -3.0689,10.62409 -3.0689,10.62409z" fill="url(#color-1)" stroke="#000000" stroke-width="2.5" stroke-linecap="butt"/><path d="M270.03434,190.74964z" fill="url(#color-2)" stroke="#000000" stroke-width="2.5" stroke-linecap="butt"/><path d="M342.3327,255.22645c-0.66937,15.7531 -3.67854,30.54174 -12.28852,37.76022c-4.67751,3.92154 -13.18279,4.664 -18.87855,4.27904c-6.95601,-0.47014 -14.24293,-1.97443 -19.00917,-8.39889c-6.32032,-8.51922 -9.00598,-23.74097 -8.41708,-37.60051c1.033,-24.3112 14.98698,-43.13281 31.16708,-42.03925c16.18009,1.09356 28.45925,21.68819 27.42625,45.99939z" fill="url(#color-3)" stroke-opacity="0.5098" stroke="#000000" stroke-width="2.5" stroke-linecap="butt"/><path d="M340.2052,193.6432c-0.20748,4.88303 -7.43845,8.36414 -16.15082,7.7753c-8.71236,-0.58884 -15.60694,-5.02465 -15.39945,-9.90768c0.20748,-4.88303 7.43845,-8.36414 16.15082,-7.7753c8.71236,0.58884 15.60694,5.02465 15.39945,9.90768z" fill="#00cdff" stroke="#000000" stroke-width="2.5" stroke-linecap="butt"/><path d="M382.91398,152.77919c-3.48644,25.56986 -28.40916,46.02435 -55.49994,42.33052c-27.09078,-3.69382 -46.09089,-30.13717 -42.60445,-55.70702c3.48644,-25.56985 28.27419,-43.3039 55.36497,-39.61007c27.09078,3.69382 46.22589,27.41672 42.73944,52.98657z" fill="#00cdff" stroke="#000000" stroke-width="2.5" stroke-linecap="butt"/><path d="M347.24749,148.08203c-0.16508,2.4426 -6.2975,4.01729 -13.69713,3.51717c-7.39964,-0.50012 -13.26438,-2.88566 -13.0993,-5.32826c0.16508,-2.4426 6.2975,-4.01728 13.69713,-3.51716c7.39964,0.50012 13.26438,2.88565 13.09929,5.32825z" fill-opacity="0.18431" fill="#000000" stroke="none" stroke-width="0" stroke-linecap="butt"/><path d="M319.82817,187.45154c0,0 0.90645,-1.95503 3.10773,-1.80626c4.33346,0.29289 21.16791,3.44697 21.16791,3.44697" fill="none" stroke="#000000" stroke-width="2.5" stroke-linecap="round"/><g stroke-linecap="butt"><path d="M387.6821,126.16092c5.25879,0.97931 10.3616,6.59623 9.47308,12.31754c-0.88852,5.72132 -7.43192,9.38046 -12.69071,8.40113c-5.25879,-0.97933 -8.80159,-6.41126 -7.91306,-12.13256c0.88853,-5.72133 5.87191,-9.56547 11.1307,-8.58614z" fill="#ffeb00" stroke="#000000" stroke-width="2.5"/><path d="M391.12998,137.12787c-0.01828,0.02464 -0.03499,0.04936 -0.04978,0.07417c-0.08666,0.14531 0.05659,0.16562 0.27215,0.11112c-0.0729,-0.059 -0.14738,-0.12087 -0.22235,-0.1853zM389.87078,134.63519c1.14605,-3.49142 5.63092,0.38339 4.79109,2.85706c-0.4464,1.31486 -2.49704,2.23581 -3.7904,1.85157c-0.84681,-0.25159 -1.76195,-0.70963 -2.20103,-1.4762c-0.136,-0.23742 0.10729,-0.45253 0.36373,-0.6703c-0.46654,0.02246 -0.93003,-0.13632 -1.3911,-0.2213c-1.58375,-0.29192 -3.10593,-0.21174 -4.66318,-0.45624c-0.08357,0.1114 -0.17865,0.22358 -0.28594,0.3363c-1.71506,1.80152 -4.32033,0.0017 -4.26591,-1.99354c0.00447,-0.16354 0.05796,-0.30585 0.14435,-0.43392c-0.07772,-1.75272 1.50698,-2.06268 2.89524,-1.55675c0.02808,0.00747 0.05623,0.0162 0.08438,0.02633c0.08053,-0.03523 0.16604,-0.06247 0.25574,-0.08052c0.67679,-0.13615 1.33581,0.30212 1.47197,0.97892c0.01542,0.0767 0.02348,0.15314 0.02465,0.22862c1.80708,0.2358 4.60385,-0.01452 6.56644,0.60998z" fill="#000000" stroke="none" stroke-width="0.5"/></g><path d="M314.24329,141.48738c-0.12011,2.01624 -2.01144,3.54384 -4.22436,3.412c-2.21295,-0.13182 -3.90951,-1.87319 -3.7894,-3.88941c0.12011,-2.01624 2.01143,-3.54384 4.22436,-3.412c2.21295,0.13182 3.9095,1.87318 3.7894,3.88941z" fill="#ffffff" stroke="#000000" stroke-width="2.5" stroke-linecap="butt"/><path d="M362.51133,144.42732c-0.12011,2.01624 -2.01142,3.54384 -4.22436,3.41201c-2.21295,-0.13182 -3.90949,-1.87319 -3.78939,-3.88941c0.12011,-2.01624 2.01142,-3.54383 4.22436,-3.41199c2.21295,0.13182 3.9095,1.87317 3.78939,3.88939z" fill="#ffffff" stroke="#000000" stroke-width="2.5" stroke-linecap="butt"/><path d="M302.74959,136.89353c0,0 3.49631,-2.21051 5.29731,-2.11891c1.85843,0.09453 5.68637,2.67757 5.68637,2.67757" fill="none" stroke="#000000" stroke-width="2.5" stroke-linecap="round"/><path d="M350.14692,140.85183c0,0 3.49631,-2.21052 5.2973,-2.11891c1.85843,0.09453 5.68637,2.67758 5.68637,2.67758" fill="none" stroke="#000000" stroke-width="2.5" stroke-linecap="round"/></g></g></svg>