<svg version="1.1" xmlns="http://www.w3.org/2000/svg" xmlns:xlink="http://www.w3.org/1999/xlink" width="160.75469" height="326.06959" viewBox="0,0,160.75469,326.06959"><defs><linearGradient x1="321.17964" y1="170.31911" x2="321.17964" y2="349.16367" gradientUnits="userSpaceOnUse" id="color-1"><stop offset="0" stop-color="#2982c1"/><stop offset="1" stop-color="#000000"/></linearGradient><linearGradient x1="397.96887" y1="141.11412" x2="358.49763" y2="141.11412" gradientUnits="userSpaceOnUse" id="color-2"><stop offset="0" stop-color="#a636f3"/><stop offset="1" stop-color="#581b7d"/></linearGradient><linearGradient x1="243.57265" y1="145.63518" x2="283.04388" y2="145.63518" gradientUnits="userSpaceOnUse" id="color-3"><stop offset="0" stop-color="#a636f3"/><stop offset="1" stop-color="#581b7d"/></linearGradient><radialGradient cx="284.29601" cy="97.25085" r="25.84387" gradientUnits="userSpaceOnUse" id="color-4"><stop offset="0" stop-color="#000000" stop-opacity="0.92549"/><stop offset="1" stop-color="#000000" stop-opacity="0"/></radialGradient><linearGradient x1="238.23094" y1="72.96923" x2="303.34368" y2="80.18706" gradientUnits="userSpaceOnUse" id="color-5"><stop offset="0" stop-color="#a636f3"/><stop offset="1" stop-color="#16031b"/></linearGradient><radialGradient cx="356.56465" cy="92.10521" r="25.35587" gradientUnits="userSpaceOnUse" id="color-6"><stop offset="0" stop-color="#000000" stop-opacity="0.92549"/><stop offset="1" stop-color="#000000" stop-opacity="0"/></radialGradient><linearGradient x1="401.66911" y1="70.41036" x2="336.55637" y2="77.62819" gradientUnits="userSpaceOnUse" id="color-7"><stop offset="0" stop-color="#a636f3"/><stop offset="1" stop-color="#16031b"/></linearGradient></defs><g transform="translate(-239.57268,-28.24282)"><g stroke-miterlimit="10"><path d="M277.74043,345.52504l-1.9552,-147.27579c0,0 6.0833,-25.69821 15.08987,-26.10344c8.94426,-0.40242 30.14472,-0.95905 48.66278,-1.79223c20.08501,-0.90368 27.03616,16.2629 27.03616,16.2629l-0.47576,162.54719z" fill="url(#color-1)" stroke="#000000" stroke-width="2.5" stroke-linecap="butt"/><path d="M344.86913,182.10172c-0.25273,8.51921 -10.14421,15.13803 -22.09323,14.78356c-11.94902,-0.35448 -21.43073,-7.54801 -21.178,-16.06723c0.25273,-8.51921 10.14419,-15.13803 22.09321,-14.78356c11.94902,0.35448 21.43074,7.54802 21.17801,16.06723z" fill="#f2f2f2" stroke="#000000" stroke-width="1.5" stroke-linecap="butt"/><path d="M339.21804,182.38195c-0.18988,6.40064 -7.62153,11.37348 -16.59905,11.10716c-8.97752,-0.26633 -16.1013,-5.67096 -15.91142,-12.07161c0.18988,-6.40064 7.62152,-11.37348 16.59904,-11.10716c8.97752,0.26633 16.10131,5.67097 15.91143,12.07161z" fill="#a636f3" stroke="#000000" stroke-width="2.5" stroke-linecap="butt"/><path d="M376.84795,111.05276c4.791,0.41818 8.07901,-1.94257 12.4475,-3.01028c0.66533,-0.16262 4.3408,-1.84314 4.84047,-1.23561c0.38528,0.46844 -1.13036,3.65115 -1.31359,4.20564c-0.62386,1.88779 -5.81206,12.1346 -5.68985,12.9116c0.45067,2.86542 9.12814,-1.64765 10.50949,-0.40064c1.26529,1.14223 -1.51565,5.17455 -2.0176,6.07895c-1.42014,2.55872 -8.14754,15.72453 -8.04511,17.77772c0.16303,3.26782 4.46336,6.92687 3.00952,11.24792c-0.71341,2.12039 -2.53487,-0.99708 -3.48852,-0.61154c-0.97126,0.39267 -0.64769,4.53095 -0.63873,5.40365c0.03652,3.55688 0.01066,7.53924 -0.66952,11.06471c-0.07006,0.36315 -0.01146,0.91356 -0.32101,1.05782c-0.77103,0.35931 -9.38565,-8.60125 -10.76846,-9.62147c-6.73152,-4.96643 -13.30859,-12.70524 -15.31773,-21.92913c-3.03529,-13.93492 1.49088,-33.6873 17.0967,-32.32781z" fill="url(#color-2)" stroke="#000000" stroke-width="2.5" stroke-linecap="round"/><path d="M265.06,116.18532c15.60582,-1.35949 20.13199,18.39288 17.0967,32.3278c-2.00914,9.22389 -8.58621,16.9627 -15.31773,21.92913c-1.38281,1.02023 -9.99744,9.98078 -10.76846,9.62147c-0.30956,-0.14425 -0.25095,-0.69466 -0.32101,-1.05781c-0.68017,-3.52546 -0.70604,-7.50782 -0.66952,-11.0647c0.00895,-0.8727 0.33253,-5.01098 -0.63873,-5.40365c-0.95364,-0.38556 -2.77509,2.73192 -3.48851,0.61153c-1.45384,-4.32104 2.84649,-7.9801 3.00952,-11.24792c0.10244,-2.0532 -6.62496,-15.219 -8.0451,-17.77772c-0.50196,-0.9044 -3.28289,-4.93672 -2.0176,-6.07895c1.38135,-1.247 10.05881,3.26606 10.50949,0.40065c0.12221,-0.777 -5.06598,-11.02381 -5.68984,-12.9116c-0.18324,-0.55448 -1.69887,-3.73719 -1.3136,-4.20563c0.49967,-0.60753 4.17514,1.07299 4.84047,1.23561c4.36848,1.06772 7.6565,3.42847 12.44749,3.01029z" fill="url(#color-3)" stroke="#000000" stroke-width="2.5" stroke-linecap="round"/><path d="M375.96035,130.45707c-1.94104,28.48816 -27.92848,52.9286 -58.11114,50.8721c-30.18266,-2.05649 -53.13099,-29.83117 -51.18995,-58.31932c1.94104,-28.48815 27.98246,-49.91526 58.16512,-47.85875c30.18266,2.05649 53.07703,26.81782 51.13599,55.30597z" fill="#a636f3" stroke="#000000" stroke-width="2.5" stroke-linecap="butt"/><path d="M335.56192,120.54978c0.01376,2.70881 -6.62742,4.93852 -14.83351,4.98021c-8.20609,0.04169 -14.86959,-2.12043 -14.88334,-4.82924c-0.01376,-2.70881 6.62743,-4.93852 14.83352,-4.98021c8.20609,-0.04169 14.86959,2.12043 14.88335,4.82924z" fill-opacity="0.23137" fill="#000000" stroke="none" stroke-width="0" stroke-linecap="butt"/><path d="M300.38744,119.10563c-0.15191,2.2297 -2.25895,3.90205 -4.70617,3.73531c-2.44723,-0.16674 -4.30794,-2.10944 -4.15603,-4.33913c0.15191,-2.22971 2.25895,-3.90205 4.70617,-3.73531c2.44723,0.16674 4.30793,2.10943 4.15602,4.33914z" fill="#ffffff" stroke="#000000" stroke-width="2.5" stroke-linecap="butt"/><path d="M349.5616,119.11655c-0.15191,2.22971 -2.25895,3.90205 -4.70617,3.73531c-2.44723,-0.16674 -4.30793,-2.10944 -4.15602,-4.33913c0.15191,-2.2297 2.25894,-3.90204 4.70617,-3.7353c2.44723,0.16674 4.30794,2.10943 4.15603,4.33913z" fill="#ffffff" stroke="#000000" stroke-width="2.5" stroke-linecap="butt"/><path d="M289.52056,117.59841c-12.271,6.46922 -24.55772,2.60366 -27.44316,-8.63399c-2.88543,-11.23765 4.72307,-25.59191 16.99408,-32.06113c12.271,-6.46922 24.55772,-2.60366 27.44315,8.63399c2.88543,11.23765 -4.72307,25.5919 -16.99407,32.06113z" fill="url(#color-4)" stroke="#000000" stroke-width="0" stroke-linecap="butt"/><path d="M298.12377,95.30009l-13.90902,12.35541l-12.9877,7.43265l-15.9361,-2.75378l-14.45882,-39.11354l1.61054,-38.24599l24.54383,40.34902l36.37503,4.70237z" fill="url(#color-5)" stroke="#000000" stroke-width="2.5" stroke-linecap="round"/><path d="M334.76558,80.61283c2.83095,-11.02545 14.88566,-14.81803 26.92495,-8.47096c12.03929,6.34707 19.50413,20.43028 16.67318,31.45573c-2.83095,11.02545 -14.88567,14.81803 -26.92496,8.47096c-12.03929,-6.34707 -19.50412,-20.43028 -16.67317,-31.45572z" fill="url(#color-6)" stroke="#000000" stroke-width="0" stroke-linecap="butt"/><path d="M336.53852,77.46735l36.37503,-4.70237l24.54383,-40.34902l1.61054,38.24599l-14.45882,39.11354l-15.9361,2.75378l-12.98769,-7.43264l-13.90902,-12.35542z" fill="url(#color-7)" stroke="#000000" stroke-width="2.5" stroke-linecap="round"/><path d="M312.74182,88.30017c0,0 -1.20327,0.84326 -2.5868,1.59726c-1.07254,0.58452 -2.25342,1.11539 -3.06603,1.15816c-0.7567,0.03982 -1.84404,-0.38823 -2.81878,-0.87622c-1.21897,-0.61027 -2.26186,-1.31428 -2.26186,-1.31428" fill="none" stroke-opacity="0.40392" stroke="#000000" stroke-width="2.5" stroke-linecap="round"/><path d="M342.39597,89.2431c0,0 -1.37758,0.51112 -2.90694,0.89022c-1.1856,0.29389 -2.46242,0.50846 -3.25938,0.34408c-0.74213,-0.15307 -1.68564,-0.84248 -2.50506,-1.56139c-1.02472,-0.89903 -1.85537,-1.84417 -1.85537,-1.84417" fill="none" stroke-opacity="0.40392" stroke="#000000" stroke-width="2.5" stroke-linecap="round"/><path d="M327.31949,85.27556c0,0 -1.15652,0.9063 -2.49782,1.7331c-1.03981,0.64095 -2.19065,1.23413 -2.99982,1.32023c-0.75349,0.08017 -1.86214,-0.28921 -2.86155,-0.72446c-1.24981,-0.5443 -2.3288,-1.19163 -2.3288,-1.19163" fill="none" stroke-opacity="0.40392" stroke="#000000" stroke-width="2.5" stroke-linecap="round"/><path d="M372.4376,128.3908c0,0 -0.91337,0.51111 -1.92737,0.89021c-0.78608,0.29389 -1.63264,0.50846 -2.16104,0.34408c-0.49204,-0.15308 -1.1176,-0.84249 -1.6609,-1.5614c-0.67941,-0.89903 -1.23015,-1.84417 -1.23015,-1.84417" fill="none" stroke-opacity="0.40392" stroke="#000000" stroke-width="2.5" stroke-linecap="round"/><path d="M372.88458,136.89312c0,0 -0.91337,0.51111 -1.92737,0.89022c-0.78608,0.29389 -1.63264,0.50846 -2.16104,0.34408c-0.49204,-0.15308 -1.1176,-0.84249 -1.6609,-1.5614c-0.67941,-0.89903 -1.23015,-1.84417 -1.23015,-1.84417" fill="none" stroke-opacity="0.40392" stroke="#000000" stroke-width="2.5" stroke-linecap="round"/><path d="M371.05504,145.39543c0,0 -0.91337,0.51111 -1.92737,0.89022c-0.78608,0.29389 -1.63263,0.50846 -2.16103,0.34408c-0.49205,-0.15307 -1.11761,-0.84248 -1.66091,-1.56139c-0.67941,-0.89903 -1.23015,-1.84417 -1.23015,-1.84417" fill="none" stroke-opacity="0.40392" stroke="#000000" stroke-width="2.5" stroke-linecap="round"/><path d="M276.76408,124.40835c0,0 -0.55074,0.94514 -1.23015,1.84417c-0.5433,0.71891 -1.16886,1.40832 -1.6609,1.5614c-0.5284,0.16438 -1.37495,-0.05019 -2.16104,-0.34408c-1.014,-0.3791 -1.92737,-0.89021 -1.92737,-0.89021" fill="none" stroke-opacity="0.40392" stroke="#000000" stroke-width="2.5" stroke-linecap="round"/><path d="M277.91151,130.28393c0,0 -0.55074,0.94514 -1.23015,1.84416c-0.5433,0.71891 -1.16886,1.40832 -1.66091,1.5614c-0.5284,0.16438 -1.37495,-0.05019 -2.16103,-0.34408c-1.014,-0.37911 -1.92737,-0.89022 -1.92737,-0.89022" fill="none" stroke-opacity="0.40392" stroke="#000000" stroke-width="2.5" stroke-linecap="round"/><path d="M278.35849,137.21021c0,0 -0.55074,0.94514 -1.23015,1.84416c-0.5433,0.71891 -1.16886,1.40832 -1.66091,1.5614c-0.5284,0.16438 -1.37495,-0.05019 -2.16103,-0.34408c-1.014,-0.37911 -1.92737,-0.89022 -1.92737,-0.89022" fill="none" stroke-opacity="0.40392" stroke="#000000" stroke-width="2.5" stroke-linecap="round"/><path d="M318.60164,154.20301l-3.51617,-5.15706" fill="none" stroke="#000000" stroke-width="2.5" stroke-linecap="round"/><path d="M328.44693,149.04595l-4.68823,5.86029" fill="none" stroke="#000000" stroke-width="2.5" stroke-linecap="round"/><path d="M359.02024,151.30834l2.88517,0.86555l-22.79284,17.59954l-18.75361,-3.4622l-13.5603,4.32776l-25.3895,-15.57992l4.03924,-0.86555" fill="none" stroke="#000000" stroke-width="2.5" stroke-linecap="round"/><path d="M387.00365,49.64754c0,0 -47.07867,2.717 -70.10629,3.02699c-21.73272,0.29256 -64.39966,-1.21633 -64.39966,-1.21633" fill="none" stroke="#000000" stroke-width="2.5" stroke-linecap="round"/><path d="M383.641,54.56218c0,0 -45.51901,2.6267 -67.24923,2.89278c-20.43935,0.25028 -59.49676,-1.34079 -59.49676,-1.34079" fill="none" stroke="#000000" stroke-width="2.5" stroke-linecap="round"/><path d="M381.31301,59.73549c0,0 -43.7967,2.03722 -64.69159,2.39212c-19.63747,0.33354 -57.13976,-0.3228 -57.13976,-0.3228" fill="none" stroke="#000000" stroke-width="2.5" stroke-linecap="round"/><path d="M293.19147,244.93232l23.80952,-12.06784l19.56947,12.394l15.00326,-6.197" fill="none" stroke="#ffffff" stroke-width="1.5" stroke-linecap="round"/><path d="M292.97295,251.88926l23.80952,-12.06784l19.56948,12.394l15.00326,-6.197" fill="none" stroke="#ffffff" stroke-width="1.5" stroke-linecap="round"/><path d="M292.42827,258.52005l23.80952,-12.06784l19.56948,12.394l15.00326,-6.197" fill="none" stroke="#ffffff" stroke-width="1.5" stroke-linecap="round"/><g><path d="M314.82202,260.71669c0,0 1.04965,-2.46452 4.07795,-5.11508c2.0593,-1.80243 0.85715,-2.50817 -0.43708,-2.76401c-2.0413,-0.40351 -12.68576,-4.26931 -13.0783,-5.13294c-0.37492,-0.82488 4.72258,-4.24717 5.58658,-4.94893c4.21275,-3.42173 18.03556,-6.31614 23.17388,-8.06593c1.73689,-0.59146 5.8655,-2.215 7.1988,-1.30217c1.81898,1.24533 3.05783,8.2708 3.74466,10.83145c1.33466,4.97588 0.0894,11.11742 0.32048,16.58602c0.25231,5.97083 2.51375,10.70028 0.84079,17.41054c-0.67449,2.70544 0.11665,7.4317 -1.33885,9.94692c-6.01634,10.39671 -20.31792,18.27422 -28.82377,23.4262c-5.36463,3.24935 -15.88913,8.55855 -15.88913,8.55855l-7.33341,2.68926l-2.2195,-4.48616l8.88927,-17.20927c0,0 4.92249,-4.36633 4.86285,-4.59806c-0.01448,-0.05622 -3.89793,1.65837 -4.23667,1.84673c-2.45518,1.36527 -11.69506,4.99833 -11.69506,4.99833l-1.00585,-11.327c0,0 12.98416,-7.86389 14.76937,-8.94597c0.47437,-0.28752 4.11329,-2.13534 4.06792,-2.97025c-0.03896,-0.71681 -5.41021,0.39291 -6.06108,0.55456c-5.07039,1.25919 -13.83304,-3.57275 -13.83304,-3.57275c0,0 9.03428,-7.4534 10.89183,-8.57851c15.54213,-9.41373 3.11977,-6.84394 17.52732,-7.83155z" fill="#a636f3" stroke="#000000" stroke-width="2.5" stroke-linecap="round"/><path d="M318.64005,272.15918c4.01736,-2.21316 7.3471,-3.20686 7.43718,-2.2195c0.09009,0.98736 -3.0936,3.58188 -7.11096,5.79504c-4.01736,2.21316 -7.3471,3.20686 -7.43718,2.2195c-0.09009,-0.98736 3.0936,-3.58188 7.11096,-5.79504z" fill-opacity="0.23137" fill="#000000" stroke="none" stroke-width="0" stroke-linecap="butt"/><path d="M317.91345,287.89346c4.85116,-2.67249 8.85073,-4.10527 8.9333,-3.20019c0.08258,0.90508 -3.78311,3.80528 -8.63426,6.47777c-4.85116,2.67249 -8.85073,4.10527 -8.9333,3.20019c-0.08258,-0.90508 3.78311,-3.80528 8.63426,-6.47777z" fill-opacity="0.23137" fill="#000000" stroke="none" stroke-width="0" stroke-linecap="butt"/><path d="M326.04132,247.42786c1.06118,-0.58461 2.02491,0.0754 2.15254,1.47416c0.12762,1.39876 -0.6292,3.0066 -1.69038,3.5912c-1.06118,0.58461 -2.02491,-0.0754 -2.15253,-1.47416c-0.12762,-1.39876 0.62919,-3.0066 1.69038,-3.5912z" fill-opacity="0.23137" fill="#000000" stroke="none" stroke-width="0" stroke-linecap="butt"/><path d="M337.21773,259.12903c0,0 -0.91556,1.12273 -1.95175,2.15223c-0.80329,0.79808 -1.67907,1.54014 -2.25709,1.6597c-0.53825,0.11132 -1.27455,-0.31712 -1.92665,-0.82762c-0.81547,-0.63842 -1.49924,-1.40517 -1.49924,-1.40517" fill="none" stroke-opacity="0.40392" stroke="#000000" stroke-width="2.5" stroke-linecap="round"/><path d="M332.43727,267.8117c0,0 -0.91555,1.12272 -1.95175,2.15221c-0.80329,0.79808 -1.6791,1.54016 -2.25711,1.65972c-0.53825,0.11132 -1.27453,-0.31713 -1.92664,-0.82764c-0.81547,-0.63842 -1.49926,-1.40517 -1.49926,-1.40517" fill="none" stroke-opacity="0.40392" stroke="#000000" stroke-width="2.5" stroke-linecap="round"/><path d="M327.65681,276.49434c0,0 -0.91555,1.12272 -1.95175,2.15221c-0.80329,0.79808 -1.6791,1.54014 -2.25711,1.65971c-0.53825,0.11132 -1.27453,-0.31712 -1.92664,-0.82763c-0.81547,-0.63842 -1.49925,-1.40517 -1.49925,-1.40517" fill="none" stroke-opacity="0.40392" stroke="#000000" stroke-width="2.5" stroke-linecap="round"/></g><g><path d="M293.69383,286.76447c13.37333,5.45039 2.38085,-0.88081 14.1926,12.92711c1.41172,1.65028 7.65702,11.55824 7.65702,11.55824c0,0 -9.83513,1.84434 -14.25603,-0.93955c-0.5675,-0.35737 -5.32094,-3.09354 -5.58244,-2.425c-0.30457,0.7787 2.57252,3.67325 2.93297,4.09488c1.35648,1.58677 11.22438,13.12166 11.22438,13.12166l-4.50288,10.44207c0,0 -7.63711,-6.34421 -9.54117,-8.40976c-0.2627,-0.28498 -3.41374,-3.12962 -3.4451,-3.08075c-0.12921,0.20139 3.17806,5.88977 3.17806,5.88977l3.05203,19.12754l-3.5129,3.56529l-6.12216,-4.85079c0,0 -8.33213,-8.33838 -12.40914,-13.10445c-6.46427,-7.55682 -17.57905,-19.51726 -20.03642,-31.2752c-0.59449,-2.84454 1.63712,-7.08522 1.84391,-9.86579c0.51288,-6.89662 4.14182,-10.67982 6.25151,-16.27122c1.93223,-5.12109 2.67317,-11.34365 5.49913,-15.65116c1.45427,-2.2167 4.83118,-8.50069 6.94869,-9.11365c1.55212,-0.44931 4.96451,2.38563 6.42876,3.49133c4.33177,3.2711 16.55257,10.34919 19.48167,14.91821c0.60073,0.93706 4.3699,5.78371 3.75549,6.44966c-0.64328,0.69723 -11.96295,1.03466 -14.02793,0.77854c-1.30924,-0.16239 -2.67194,0.13133 -1.28078,2.48805c2.04577,3.46567 2.27072,6.13495 2.27072,6.13495z" fill="#a636f3" stroke="#000000" stroke-width="2.5" stroke-linecap="round"/><path d="M291.42224,304.16608c-0.39479,0.90947 -3.24578,-1.07713 -6.36784,-4.43718c-3.12207,-3.36005 -5.33295,-6.82117 -4.93816,-7.73064c0.39479,-0.90947 3.24577,1.07712 6.36784,4.43717c3.12207,3.36005 5.33296,6.82118 4.93816,7.73065z" fill-opacity="0.23137" fill="#000000" stroke="none" stroke-width="0" stroke-linecap="butt"/><path d="M288.4171,320.46176c-0.3619,0.83368 -3.71148,-1.77968 -7.48154,-5.8371c-3.77005,-4.05742 -6.53289,-8.02244 -6.17099,-8.85612c0.3619,-0.83368 3.71148,1.77968 7.48154,5.8371c3.77005,4.05742 6.53289,8.02245 6.17099,8.85612z" fill-opacity="0.23137" fill="#000000" stroke="none" stroke-width="0" stroke-linecap="butt"/><path d="M287.68164,274.57028c-0.5593,1.28841 -1.68125,1.61337 -2.50594,0.72581c-0.82469,-0.88756 -1.03986,-2.65154 -0.48056,-3.93995c0.5593,-1.28841 1.68126,-1.61336 2.50594,-0.7258c0.82469,0.88756 1.03985,2.65153 0.48056,3.93994z" fill-opacity="0.23137" fill="#000000" stroke="none" stroke-width="0" stroke-linecap="butt"/><path d="M279.6782,282.13321c0,0 -0.88952,0.51403 -1.86391,0.86491c-0.77919,0.28058 -1.61263,0.45684 -2.08893,0.18255c-0.51148,-0.29458 -1.11079,-1.2736 -1.62371,-2.28312c-0.66162,-1.30224 -1.17948,-2.65524 -1.17948,-2.65524" fill="none" stroke-opacity="0.40392" stroke="#000000" stroke-width="2.5" stroke-linecap="round"/><path d="M281.49872,291.87626c0,0 -0.88953,0.51402 -1.86392,0.8649c-0.77919,0.28058 -1.61262,0.45687 -2.08892,0.18257c-0.51148,-0.29458 -1.1108,-1.27363 -1.62372,-2.28315c-0.66162,-1.30224 -1.17947,-2.65521 -1.17947,-2.65521" fill="none" stroke-opacity="0.40392" stroke="#000000" stroke-width="2.5" stroke-linecap="round"/><path d="M283.31923,301.61931c0,0 -0.88953,0.51402 -1.86392,0.86491c-0.77919,0.28058 -1.61262,0.45686 -2.08892,0.18256c-0.51148,-0.29458 -1.11081,-1.27361 -1.62372,-2.28313c-0.66162,-1.30224 -1.17946,-2.65522 -1.17946,-2.65522" fill="none" stroke-opacity="0.40392" stroke="#000000" stroke-width="2.5" stroke-linecap="round"/></g></g></g></svg>