<svg version="1.1" xmlns="http://www.w3.org/2000/svg" xmlns:xlink="http://www.w3.org/1999/xlink" width="132.85299" height="258.80188" viewBox="0,0,132.85299,258.80188"><defs><linearGradient x1="316.91389" y1="180.2283" x2="324.46363" y2="337.5451" gradientUnits="userSpaceOnUse" id="color-1"><stop offset="0" stop-color="#009bff"/><stop offset="1" stop-color="#6dc9ff"/></linearGradient><linearGradient x1="139.24892" y1="114.82989" x2="139.30307" y2="115.95867" gradientUnits="userSpaceOnUse" id="color-2"><stop offset="0" stop-color="#878787"/><stop offset="1" stop-color="#848484"/></linearGradient><linearGradient x1="324.05342" y1="209.55575" x2="328.2774" y2="297.57254" gradientUnits="userSpaceOnUse" id="color-3"><stop offset="0" stop-color="#8ae8ff"/><stop offset="1" stop-color="#5ec3ff"/></linearGradient></defs><g transform="translate(-249.40865,-81.30248)"><g stroke-miterlimit="10"><g stroke-linecap="butt"><path d="M366.73133,119.64564c4.92203,2.09465 8.68772,8.68313 6.58156,14.07637c-2.10615,5.39324 -9.28658,7.54891 -14.2086,5.45424c-4.92203,-2.09467 -7.20475,-8.16479 -5.09859,-13.55802c2.10616,-5.39326 7.80362,-8.06727 12.72564,-5.9726z" fill="#ffeb00" stroke="#000000" stroke-width="2.5"/><path d="M367.72302,131.09894c-0.02317,0.02011 -0.04484,0.04062 -0.06465,0.06164c-0.11606,0.12309 0.01939,0.17394 0.24162,0.16741c-0.05839,-0.07338 -0.11772,-0.14991 -0.17695,-0.22906zM367.03337,128.39278c1.87479,-3.16049 5.41435,1.59343 4.05887,3.82659c-0.72049,1.18702 -2.92189,1.64216 -4.10137,0.987c-0.77225,-0.42895 -1.56651,-1.07428 -1.82921,-1.91774c-0.08137,-0.26124 0.20272,-0.41855 0.50022,-0.57566c-0.46034,-0.07908 -0.87846,-0.33445 -1.3102,-0.51723c-1.48299,-0.62788 -2.98642,-0.87918 -4.4538,-1.45503c-0.10571,0.09066 -0.22281,0.1796 -0.35198,0.26642c-2.06444,1.38747 -4.21824,-0.93372 -3.73312,-2.86985c0.03977,-0.1587 0.12281,-0.28603 0.23487,-0.39238c0.30359,-1.72798 1.91783,-1.68749 3.16361,-0.89298c0.0258,0.01338 0.05138,0.02798 0.07667,0.04397c0.08626,-0.01695 0.17563,-0.02503 0.26711,-0.02323c0.69022,0.01361 1.23873,0.58416 1.22513,1.27439c-0.00155,0.07821 -0.01023,0.1546 -0.02544,0.22854c1.71316,0.62146 4.49779,0.9826 6.27861,2.01719z" fill="#000000" stroke="none" stroke-width="0.5"/></g><path d="M271.3191,84.22694c11.66147,-0.26751 21.31842,8.38638 21.56943,19.32899c0.25102,10.9426 -8.99899,20.03019 -20.66046,20.29769c-11.66147,0.26751 -21.31842,-8.38639 -21.56943,-19.32899c-0.25101,-10.9426 8.99899,-20.03018 20.66045,-20.29767z" fill="#00cdff" stroke="#000000" stroke-width="2.5" stroke-linecap="butt"/><path d="M275.61249,90.18763c7.89861,-0.18118 14.45349,6.28966 14.64075,14.45301c0.18726,8.16334 -6.06402,14.92794 -13.96263,15.10913c-7.89861,0.18118 -14.45349,-6.28966 -14.64075,-14.45301c-0.18726,-8.16334 6.06402,-14.92794 13.96263,-15.10913z" fill="#8ae8ff" stroke-opacity="0.5098" stroke="#000000" stroke-width="2.5" stroke-linecap="butt"/><path d="M377.86093,101.88146c0.25102,10.9426 -8.99899,20.03017 -20.66044,20.29768c-11.66147,0.26751 -21.31842,-8.38638 -21.56944,-19.32898c-0.25102,-10.9426 8.99899,-20.03018 20.66045,-20.29768c11.66147,-0.26751 21.31842,8.38638 21.56943,19.32899z" fill="#00cdff" stroke="#000000" stroke-width="2.5" stroke-linecap="butt"/><path d="M366.91667,103.15677c0.18726,8.16336 -6.06402,14.92796 -13.96263,15.10913c-7.89861,0.18118 -14.45349,-6.28965 -14.64074,-14.45301c-0.18726,-8.16336 6.06402,-14.92796 13.96263,-15.10913c7.89861,-0.18118 14.45349,6.28965 14.64074,14.45301z" fill="#8ae8ff" stroke-opacity="0.5098" stroke="#000000" stroke-width="2.5" stroke-linecap="butt"/><path d="M332.54225,175.43571l20.0919,2.28928c0,0 15.32647,5.62136 15.88099,7.88425c0.77206,3.15059 0.38097,14.29409 0.38097,14.29409l0.38673,8.05827l-0.84326,5.88637l-5.93005,-0.414l-1.95898,6.09529l-14.69775,-1.31296l-11.32409,4.47668l-17.28942,-2.53692l-15.81334,4.76301l-16.06835,-6.41516l-12.28173,2.11517l-7.39733,-7.53078l-2.95179,3.00122l0.96619,-9.18938l3.22399,-9.05784c0,0 0.37616,-8.76755 4.48796,-12.44003c3.88099,-3.46635 19.53045,-9.01218 19.53045,-9.01218l17.60559,-2.60398z" fill="#009bff" stroke="#000000" stroke-width="2.5" stroke-linecap="round"/><path d="M268.90993,338.81943c0,0 -2.57881,-8.34387 -2.35426,-17.99915c0.52108,-22.40559 5.4316,-114.32336 5.4316,-114.32336c0,0 5.15349,-23.3496 14.4147,-23.92838c9.19714,-0.57477 31.0142,-1.57842 50.05579,-2.76841c20.65284,-1.29069 28.26424,22.83297 28.26424,22.83297c0,0 14.17135,101.50543 16.28962,121.21811c0.69974,6.51176 -2.09705,10.85779 -2.09705,10.85779z" fill="url(#color-1)" stroke="#000000" stroke-width="2.5" stroke-linecap="butt"/><path d="M256.33139,193.92161z" fill="url(#color-2)" stroke="#000000" stroke-width="2.5" stroke-linecap="butt"/><path d="M355.5212,252.89076c0.75581,15.74919 -0.90571,30.74915 -8.82874,38.71558c-4.3043,4.32788 -12.70778,5.83529 -18.41505,5.96621c-6.97004,0.15989 -14.36304,-0.68028 -19.68991,-6.64813c-7.06375,-7.91372 -11.1129,-22.83079 -11.77786,-36.68689c-1.16642,-24.30517 11.03105,-44.30988 27.24379,-44.68178c16.21275,-0.3719 30.30135,19.02984 31.46777,43.335z" fill="url(#color-3)" stroke-opacity="0.5098" stroke="#000000" stroke-width="2.5" stroke-linecap="butt"/><path d="M333.66006,191.15107c0.19757,4.8816 -5.72764,9.0069 -13.23433,9.2141c-7.50669,0.2072 -13.75222,-3.58214 -13.94978,-8.46374c-0.19757,-4.8816 5.72765,-9.0069 13.23434,-9.2141c7.50669,-0.2072 13.75222,3.58214 13.94977,8.46374z" fill="#00cdff" stroke="#000000" stroke-width="2.5" stroke-linecap="butt"/><path d="M365.32136,145.91371c-1.16335,25.78022 -24.1373,48.40158 -51.45095,47.16902c-27.31365,-1.23255 -48.62388,-25.85225 -47.46053,-51.63246c1.16335,-25.78021 24.24854,-45.68004 51.56218,-44.44748c27.31365,1.23255 48.51268,23.13071 47.34932,48.91092z" fill="#00cdff" stroke="#000000" stroke-width="2.5" stroke-linecap="butt"/><path d="M329.37643,144.45627c0.05614,2.44753 -5.90903,4.56951 -13.32359,4.73959c-7.41457,0.17009 -13.47077,-1.67614 -13.5269,-4.12367c-0.05614,-2.44753 5.90903,-4.56951 13.32358,-4.73959c7.41457,-0.17009 13.47077,1.67614 13.52691,4.12367z" fill-opacity="0.18431" fill="#000000" stroke="none" stroke-width="0" stroke-linecap="butt"/><path d="M305.62402,186.1408c0,0 0.72622,-2.02889 2.93194,-2.07949c4.3422,-0.09961 21.39268,1.52151 21.39268,1.52151" fill="none" stroke="#000000" stroke-width="2.5" stroke-linecap="round"/><g stroke-linecap="butt"><path d="M265.42668,120.94727c5.31762,0.58048 8.9791,5.69957 8.17815,11.43382c-0.80096,5.73422 -5.76101,9.91214 -11.07863,9.33166c-5.31762,-0.58048 -10.5261,-5.9728 -9.72515,-11.70704c0.80096,-5.73422 7.30801,-9.63891 12.62563,-9.0584z" fill="#ffeb00" stroke="#000000" stroke-width="2.5"/><path d="M258.95961,130.45198c-0.09037,0.04006 -0.17955,0.07779 -0.26637,0.11323c0.19065,0.11439 0.33366,0.1363 0.29264,-0.02784c-0.007,-0.02802 -0.01588,-0.05651 -0.02625,-0.08538zM260.88479,128.42894c2.0593,-0.03134 4.66474,1.0157 6.46295,1.3116c0.0229,-0.07193 0.0527,-0.14279 0.08959,-0.21177c0.32575,-0.60867 1.08323,-0.83804 1.69191,-0.51231c0.08067,0.04318 0.15468,0.09394 0.22161,0.15091c0.02989,-0.00157 0.05935,-0.0018 0.08839,-0.00085c1.4752,-0.08363 2.90296,0.6706 2.32256,2.32627c0.04573,0.14756 0.05588,0.29924 0.01294,0.45711c-0.52388,1.92601 -3.5378,2.89711 -4.65979,0.67717c-0.07019,-0.1389 -0.12884,-0.27374 -0.17669,-0.40453c-1.56153,-0.21546 -2.99576,-0.73165 -4.59635,-0.90936c-0.46597,-0.05174 -0.95557,-0.03353 -1.39577,-0.18971c0.18266,0.28254 0.35349,0.55871 0.15475,0.74677c-0.64168,0.60718 -1.65008,0.78155 -2.53347,0.77796c-1.34923,-0.00549 -3.0467,-1.4792 -3.09452,-2.86696c-0.08997,-2.61079 5.32255,-5.02593 5.41189,-1.35231z" fill="#000000" stroke="none" stroke-width="0.5"/></g><path d="M295.91158,140.8687c0.06244,2.01885 -1.68322,3.71099 -3.89901,3.77951c-2.21582,0.06853 -4.06267,-1.51252 -4.12511,-3.53135c-0.06244,-2.01885 1.68321,-3.71099 3.89901,-3.7795c2.21582,-0.06853 4.06267,1.51252 4.12511,3.53136z" fill="#ffffff" stroke="#000000" stroke-width="2.5" stroke-linecap="butt"/><path d="M344.24791,139.43823c0.06244,2.01885 -1.6832,3.71099 -3.89901,3.77951c-2.21582,0.06853 -4.06267,-1.51252 -4.12511,-3.53135c-0.06244,-2.01885 1.6832,-3.71097 3.89901,-3.7795c2.21582,-0.06853 4.06268,1.51251 4.12511,3.53134z" fill="#ffffff" stroke="#000000" stroke-width="2.5" stroke-linecap="butt"/><path d="M288.41121,137.80139c0,0 3.28243,-2.51719 5.08434,-2.58858c1.85937,-0.07367 5.90491,2.15318 5.90491,2.15318" fill="none" stroke="#000000" stroke-width="2.5" stroke-linecap="round"/><path d="M337.06713,135.5865c0,0 3.28243,-2.51719 5.08434,-2.58858c1.85937,-0.07367 5.90491,2.15318 5.90491,2.15318" fill="none" stroke="#000000" stroke-width="2.5" stroke-linecap="round"/></g></g></svg>