<svg version="1.1" xmlns="http://www.w3.org/2000/svg" xmlns:xlink="http://www.w3.org/1999/xlink" width="142.4262" height="314.44988" viewBox="0,0,142.4262,314.44988"><defs><radialGradient cx="314.34193" cy="237.69986" r="89.41619" gradientUnits="userSpaceOnUse" id="color-1"><stop offset="0" stop-color="#bebebe"/><stop offset="1" stop-color="#dadada"/></radialGradient><linearGradient x1="321.68042" y1="173.66958" x2="319.97503" y2="239.36059" gradientUnits="userSpaceOnUse" id="color-2"><stop offset="0" stop-color="#fff800"/><stop offset="1" stop-color="#d97200"/></linearGradient><linearGradient x1="269.20981" y1="90.75945" x2="267.11924" y2="171.28678" gradientUnits="userSpaceOnUse" id="color-3"><stop offset="0" stop-color="#fff800"/><stop offset="1" stop-color="#d97200"/></linearGradient><linearGradient x1="379.3496" y1="92.78068" x2="377.25903" y2="173.30801" gradientUnits="userSpaceOnUse" id="color-4"><stop offset="0" stop-color="#fff800"/><stop offset="1" stop-color="#d97200"/></linearGradient><linearGradient x1="324.83693" y1="76.71736" x2="322.0747" y2="183.11714" gradientUnits="userSpaceOnUse" id="color-5"><stop offset="0" stop-color="#dadada"/><stop offset="1" stop-color="#bebebe"/></linearGradient><linearGradient x1="322.58498" y1="101.70547" x2="321.6588" y2="137.38114" gradientUnits="userSpaceOnUse" id="color-6"><stop offset="0" stop-color="#f1de00"/><stop offset="1" stop-color="#f28f00"/></linearGradient><linearGradient x1="273.89912" y1="49.85329" x2="274.21551" y2="103.18564" gradientUnits="userSpaceOnUse" id="color-7"><stop offset="0" stop-color="#fff800"/><stop offset="1" stop-color="#d97200"/></linearGradient><linearGradient x1="376.38892" y1="52.0108" x2="373.29201" y2="105.78236" gradientUnits="userSpaceOnUse" id="color-8"><stop offset="0" stop-color="#fff800"/><stop offset="1" stop-color="#d97200"/></linearGradient><radialGradient cx="274.61386" cy="47.08771" r="7.8102" gradientUnits="userSpaceOnUse" id="color-9"><stop offset="0" stop-color="#ffffff"/><stop offset="1" stop-color="#00b5ff"/></radialGradient><radialGradient cx="376.22198" cy="49.4304" r="7.8102" gradientUnits="userSpaceOnUse" id="color-10"><stop offset="0" stop-color="#ffffff"/><stop offset="1" stop-color="#00b5ff"/></radialGradient><linearGradient x1="352.16203" y1="190.64624" x2="382.48086" y2="189.73285" gradientUnits="userSpaceOnUse" id="color-11"><stop offset="0" stop-color="#fff800"/><stop offset="1" stop-color="#d97200"/></linearGradient><linearGradient x1="291.03076" y1="188.8478" x2="260.86062" y2="186.36406" gradientUnits="userSpaceOnUse" id="color-12"><stop offset="0" stop-color="#fff800"/><stop offset="1" stop-color="#d97200"/></linearGradient></defs><g transform="translate(-252.53633,-38.82123)"><g stroke-miterlimit="10"><path d="M274.26177,346.00597l1.86758,-147.27692c0,0 6.74817,-25.53168 15.76223,-25.70303c8.95169,-0.17016 30.15946,-0.17641 48.6929,-0.52872c20.1017,-0.38213 25.65949,26.64957 25.65949,26.64957l-3.74854,152.78959z" fill="url(#color-1)" stroke="#000000" stroke-width="2.5" stroke-linecap="butt"/><path d="M288.94454,214.84229l1.09021,-41.99425l63.29133,1.6431l-1.09021,41.99425l-31.81092,22.88689z" fill="url(#color-2)" stroke="#000000" stroke-width="2.5" stroke-linecap="butt"/><g stroke="#000000" stroke-width="2.5"><path d="M261.77866,171.14814l-7.80247,-80.78416l21.05524,8.23746l7.52785,65.13012z" fill="url(#color-3)" stroke-linecap="butt"/><path d="M272.16112,103.88639l6.42564,55.59399" fill="none" stroke-linecap="round"/></g><g stroke="#000000" stroke-width="2.5"><path d="M363.32714,164.99027l8.93845,-64.70264l21.2223,-7.13991l-9.55295,80.3336z" fill="url(#color-4)" stroke-linecap="butt"/><path d="M375.01949,105.71859l-7.62971,55.2291" fill="none" stroke-linecap="round"/></g><path d="M378.03009,133.55946c-2.67971,28.42819 -29.29268,52.18597 -59.41181,49.34686c-30.11912,-2.83911 -52.33891,-31.19998 -49.6592,-59.62817c2.67971,-28.42818 29.26844,-49.17225 59.38757,-46.33312c30.11912,2.83911 52.36317,28.18624 49.68346,56.61443z" fill="url(#color-5)" stroke="#000000" stroke-width="2.5" stroke-linecap="butt"/><path d="M265.20667,131.75939l0.72482,-27.91971c0,0 38.10075,-2.61584 57.01373,-2.12484c18.79289,0.48788 56.10617,5.06154 56.10617,5.06154l-0.72483,27.91972c0,0 -36.90105,3.19822 -55.49435,2.71553c-19.09972,-0.49584 -57.62555,-5.65222 -57.62555,-5.65222z" fill="url(#color-6)" stroke="#000000" stroke-width="2.5" stroke-linecap="butt"/><path d="M281.17352,131.49337c0,0 -11.08451,-11.69758 -11.03011,-13.79328c0.10219,-3.93647 11.6691,-10.82041 11.6691,-10.82041c0,0 26.44274,-2.39399 39.96332,-2.04298c13.98849,0.36315 42.61167,4.1867 42.61167,4.1867c0,0 11.47914,6.69812 11.3841,10.35953c-0.11436,4.40491 -12.02308,14.25417 -12.02308,14.25417c0,0 -28.34024,2.10778 -42.29175,1.74559c-13.56248,-0.35209 -40.28325,-3.88931 -40.28325,-3.88931z" fill="#000000" stroke="none" stroke-width="0" stroke-linecap="butt"/><path d="M270.18896,103.17521l-0.31639,-53.33235l8.05307,0.02085l0.3164,53.33235z" fill="url(#color-7)" stroke="#000000" stroke-width="2.5" stroke-linecap="butt"/><path d="M369.27039,105.58291l3.09691,-53.77156l8.04326,0.3989l-3.0969,53.77155z" fill="url(#color-8)" stroke="#000000" stroke-width="2.5" stroke-linecap="butt"/><path d="M282.28911,47.28696c-0.10056,3.8735 -3.6184,6.92437 -7.85731,6.81433c-4.23891,-0.11005 -7.59372,-3.33935 -7.49316,-7.21285c0.10056,-3.8735 3.6184,-6.92437 7.85731,-6.81433c4.23891,0.11005 7.59372,3.33935 7.49316,7.21285z" fill="url(#color-9)" stroke="#000000" stroke-width="2.5" stroke-linecap="butt"/><path d="M383.89723,49.62966c-0.10056,3.8735 -3.6184,6.92436 -7.85732,6.81432c-4.23891,-0.11005 -7.59373,-3.33934 -7.49317,-7.21284c0.10056,-3.8735 3.6184,-6.92437 7.85732,-6.81433c4.23891,0.11005 7.59373,3.33935 7.49317,7.21285z" fill="url(#color-10)" stroke="#000000" stroke-width="2.5" stroke-linecap="butt"/><path d="M283.31454,162.64599l-3.31248,-27.57328" fill="none" stroke="#000000" stroke-width="2.5" stroke-linecap="round"/><path d="M367.3873,137.10437l-6.49467,31.11002" fill="none" stroke="#000000" stroke-width="2.5" stroke-linecap="round"/><path d="M356.91917,156.97414c0,0 3.92984,4.53995 -4.12734,8.74915c-6.60438,3.45022 -24.72871,5.41952 -30.12033,5.26118c-5.41063,-0.15887 -23.60101,-3.16186 -30.8791,-7.32501c-7.76247,-4.44022 -4.48621,-8.7295 -4.48621,-8.7295" fill="none" stroke="#000000" stroke-width="2.5" stroke-linecap="round"/><path d="M295.03721,177.14237l8.09975,48.91517" fill="none" stroke="#000000" stroke-width="2.5" stroke-linecap="round"/><path d="M338.24508,227.35167l9.34938,-48.37095" fill="none" stroke="#000000" stroke-width="2.5" stroke-linecap="round"/><path d="M369.78314,205.27498l-19.3819,0.5839l3.52159,-30.42529l19.3819,-0.5839l9.20118,14.66686z" fill="url(#color-11)" stroke="#000000" stroke-width="2.5" stroke-linecap="butt"/><path d="M260.85457,186.14695l10.46279,-14.15636l19.28684,1.58778l0.85314,30.53886l-19.28684,-1.58778z" fill="url(#color-12)" stroke="#000000" stroke-width="2.5" stroke-linecap="butt"/><path d="M308.6503,79.92384l-3.22916,20.32712" fill="none" stroke-opacity="0.54902" stroke="#000000" stroke-width="2.5" stroke-linecap="round"/><path d="M337.49807,80.00907l4.53862,21.72942" fill="none" stroke-opacity="0.54902" stroke="#000000" stroke-width="2.5" stroke-linecap="round"/><path d="M323.70714,77.54992l-0.4733,23.10011" fill="none" stroke-opacity="0.54902" stroke="#000000" stroke-width="2.5" stroke-linecap="round"/><path d="M301.89321,130.32296l0.58831,-22.66155l2.8327,0.07354l-0.58831,22.66155z" fill="#ffffff" stroke="none" stroke-width="0" stroke-linecap="butt"/><path d="M339.96067,131.97818l0.60994,-23.4947l3.16595,0.08219l-0.60994,23.4947z" fill="#ffffff" stroke="none" stroke-width="0" stroke-linecap="butt"/><path d="M292.52756,164.53901c0,0 18.75288,3.47817 27.7279,3.92747c9.89145,0.49518 29.13918,-1.08062 29.13918,-1.08062l-29.03399,6.40347l-27.83309,-9.25032z" fill="#ffffff" stroke="#000000" stroke-width="2.5" stroke-linecap="round"/></g></g></svg>