<svg version="1.1" xmlns="http://www.w3.org/2000/svg" xmlns:xlink="http://www.w3.org/1999/xlink" width="207.39354" height="346.39341" viewBox="0,0,207.39354,346.39341"><defs><linearGradient x1="314.83767" y1="234.8052" x2="317.92219" y2="307.57788" gradientUnits="userSpaceOnUse" id="color-1"><stop offset="0" stop-color="#545454"/><stop offset="1" stop-color="#2f2f2f"/></linearGradient><linearGradient x1="318.66077" y1="201.55764" x2="321.74529" y2="274.33033" gradientUnits="userSpaceOnUse" id="color-2"><stop offset="0" stop-color="#545454"/><stop offset="1" stop-color="#2f2f2f"/></linearGradient><linearGradient x1="313.50651" y1="170.96871" x2="316.59103" y2="243.7414" gradientUnits="userSpaceOnUse" id="color-3"><stop offset="0" stop-color="#545454"/><stop offset="1" stop-color="#2f2f2f"/></linearGradient><linearGradient x1="313.63996" y1="174.26367" x2="321.21308" y2="352.93563" gradientUnits="userSpaceOnUse" id="color-4"><stop offset="0" stop-color="#4e2710"/><stop offset="1" stop-color="#3a1a09"/></linearGradient><linearGradient x1="315.05939" y1="174.24165" x2="316.15256" y2="200.03255" gradientUnits="userSpaceOnUse" id="color-5"><stop offset="0" stop-color="#e07130"/><stop offset="1" stop-color="#c2551f"/></linearGradient><linearGradient x1="287.82331" y1="204.66742" x2="288.97565" y2="231.85449" gradientUnits="userSpaceOnUse" id="color-6"><stop offset="0" stop-color="#4e2710"/><stop offset="1" stop-color="#3a1a09"/></linearGradient><linearGradient x1="368.68754" y1="150.21725" x2="359.0621" y2="200.90018" gradientUnits="userSpaceOnUse" id="color-7"><stop offset="0" stop-color="#e07130"/><stop offset="1" stop-color="#c2551f"/></linearGradient><linearGradient x1="367.10267" y1="132.00863" x2="369.28734" y2="183.5512" gradientUnits="userSpaceOnUse" id="color-8"><stop offset="0" stop-color="#e07130"/><stop offset="1" stop-color="#c2551f"/></linearGradient><linearGradient x1="257.46312" y1="153.97003" x2="271.3428" y2="203.65667" gradientUnits="userSpaceOnUse" id="color-9"><stop offset="0" stop-color="#e07130"/><stop offset="1" stop-color="#c2551f"/></linearGradient><linearGradient x1="259.1732" y1="132.61844" x2="261.35785" y2="184.16099" gradientUnits="userSpaceOnUse" id="color-10"><stop offset="0" stop-color="#e07130"/><stop offset="1" stop-color="#c2551f"/></linearGradient><linearGradient x1="307.95567" y1="77.87482" x2="312.46296" y2="184.21495" gradientUnits="userSpaceOnUse" id="color-11"><stop offset="0" stop-color="#e07130"/><stop offset="1" stop-color="#c2551f"/></linearGradient><linearGradient x1="313.3531" y1="11.22227" x2="307.00221" y2="96.83457" gradientUnits="userSpaceOnUse" id="color-12"><stop offset="0" stop-color="#a1a1a1"/><stop offset="1" stop-color="#767676"/></linearGradient></defs><g transform="translate(-207.00111,-6.14846)"><g stroke-miterlimit="10"><g stroke="#000000" stroke-width="2.5"><path d="M388.9128,295.26207l-72.69701,12.38813l-70.07174,-6.33678c0,0 29.26913,-64.83721 68.69362,-66.50824c39.4245,-1.67103 74.07512,60.4569 74.07512,60.4569z" fill="url(#color-1)" stroke-linecap="butt"/><path d="M256.79688,297.06248l57.39522,-19.63467l62.35139,12.10171" fill="none" stroke-linecap="round"/><path d="M286.70754,299.8904l29.3388,-10.66365l36.3572,5.83123" fill="none" stroke-linecap="round"/></g><g stroke="#000000" stroke-width="2.5"><path d="M392.73589,262.01451l-72.69701,12.38813l-70.07174,-6.33678c0,0 29.26913,-64.83721 68.69362,-66.50824c39.4245,-1.67103 74.07512,60.4569 74.07512,60.4569z" fill="url(#color-2)" stroke-linecap="butt"/><path d="M260.61999,263.81493l57.39522,-19.63467l62.35139,12.10171" fill="none" stroke-linecap="round"/><path d="M290.53064,266.64283l29.3388,-10.66365l36.3572,5.83124" fill="none" stroke-linecap="round"/></g><g stroke="#000000" stroke-width="2.5"><path d="M387.58163,231.42561l-72.697,12.38813l-70.07175,-6.33678c0,0 29.26913,-64.83721 68.69363,-66.50824c39.4245,-1.67103 74.07511,60.4569 74.07511,60.4569z" fill="url(#color-3)" stroke-linecap="butt"/><path d="M255.46573,233.226l57.39523,-19.63466l62.35139,12.10171" fill="none" stroke-linecap="round"/><path d="M285.37638,236.05393l29.3388,-10.66364l36.3572,5.83124" fill="none" stroke-linecap="round"/></g><path d="M274.19529,351.28661l-8.35773,-147.05378c0,0 5.51075,-25.95486 15.26369,-26.77384c9.68547,-0.81331 32.65962,-2.34421 52.71226,-4.02808c21.74944,-1.82635 29.6756,24.74018 29.6756,24.74018l6.70863,152.68829z" fill="url(#color-4)" stroke="#000000" stroke-width="2.5" stroke-linecap="butt"/><path d="M334.5193,186.33545c0.30187,7.12197 -7.9212,13.25437 -18.36676,13.69712c-10.44555,0.44274 -19.15805,-4.97184 -19.45992,-12.09381c-0.30187,-7.12197 7.9212,-13.25437 18.36676,-13.69712c10.44555,-0.44274 19.15805,4.97184 19.45992,12.09381z" fill="url(#color-5)" stroke="#000000" stroke-width="2.5" stroke-linecap="butt"/><path d="M302.07797,217.68118c0.31821,7.5075 -5.5479,13.85312 -13.10233,14.17332c-7.55443,0.3202 -13.93646,-5.50626 -14.25467,-13.01377c-0.31821,-7.5075 5.5479,-13.85312 13.10233,-14.17332c7.55443,-0.3202 13.93646,5.50626 14.25467,13.01377z" fill="url(#color-6)" stroke="#ffffff" stroke-width="2.5" stroke-linecap="butt"/><path d="M284.40909,214.20132l-0.99066,1.78702" fill="none" stroke="#ffffff" stroke-width="2.5" stroke-linecap="round"/><path d="M292.51498,215.60276l-0.65036,-1.62051" fill="none" stroke="#ffffff" stroke-width="2.5" stroke-linecap="round"/><path d="M280.56372,224.45732l2.07079,-3.11144l11.22553,0.4758l2.67923,3.11888" fill="none" stroke="#ffffff" stroke-width="2.5" stroke-linecap="round"/><path d="M333.66325,13.62985c0,0 -3.45238,1.64414 -13.28777,2.51497c-3.4292,0.30362 -14.32693,1.41073 -16.91677,1.49671c-4.18631,0.13898 -10.96312,-0.52246 -16.39895,-0.74047c-7.33564,-0.2942 -12.96736,-1.29354 -12.96736,-1.29354" fill="none" stroke="#000000" stroke-width="2.5" stroke-linecap="round"/><path d="M353.04048,147.24565c0,0 12.49695,11.11691 17.08136,19.70505c5.60625,10.50239 14.11164,38.7299 14.11164,38.7299c0,0 -15.95482,-20.42223 -24.23578,-25.09217c-7.29902,-4.11617 -22.87695,-1.47637 -22.87695,-1.47637z" fill="url(#color-7)" stroke="#000000" stroke-width="2.5" stroke-linecap="round"/><path d="M351.19021,132.68308c0,0 14.70258,7.97454 21.12447,15.29114c7.85329,8.9474 22.57096,34.49196 22.57096,34.49196c0,0 -20.19113,-16.2463 -29.31877,-18.90501c-8.0453,-2.34344 -22.61096,3.77885 -22.61096,3.77885z" fill="url(#color-8)" stroke="#000000" stroke-width="2.5" stroke-linecap="round"/><path d="M291.36177,180.09003c0,0 -15.74544,-1.31213 -22.66997,3.40691c-7.85609,5.35391 -22.02558,27.05298 -22.02558,27.05298c0,0 6.08629,-28.84599 10.78373,-39.7851c3.84125,-8.94527 15.35267,-21.07979 15.35267,-21.07979z" fill="url(#color-9)" stroke="#000000" stroke-width="2.5" stroke-linecap="round"/><path d="M286.22306,165.77982c0,0 -15.03148,-4.8678 -22.84962,-1.85197c-8.86992,3.42155 -27.61389,21.31814 -27.61389,21.31814c0,0 12.50333,-26.69835 19.57132,-36.27819c5.77973,-7.83376 19.75478,-17.02382 19.75478,-17.02382z" fill="url(#color-10)" stroke="#000000" stroke-width="2.5" stroke-linecap="round"/><path d="M344.21359,85.29516l8.77553,8.47267l-14.00739,58.50814l-58.993,1.28047l-17.72798,-54.14791l8.51678,-10.70041" fill="none" stroke="#000000" stroke-width="2.5" stroke-linecap="round"/><path d="M364.9049,130.95321c-0.73289,28.5448 -25.66203,54.06382 -55.9047,53.28733c-30.24267,-0.77648 -54.34661,-27.55444 -53.61371,-56.09923c0.73289,-28.54479 25.84357,-51.05547 56.08624,-50.27897c30.24267,0.77648 54.16509,24.54608 53.43219,53.09087z" fill="url(#color-11)" stroke="#000000" stroke-width="2.5" stroke-linecap="butt"/><path d="M269.82585,93.52845l10.12756,-84.78384c0,0 7.1339,-1.49715 16.20364,-1.54237c5.7053,-0.02845 13.05267,-0.12545 17.34289,0.1928c4.2534,0.31553 11.95986,2.06833 17.5813,2.92919c9.12254,1.397 15.67157,3.37569 15.67157,3.37569l-2.70532,84.51198c0,0 -4.95428,4.21572 -15.43364,6.71827c-5.73597,1.36979 -16.69023,1.962 -21.11384,1.68288c-5.4431,-0.34346 -16.26418,-2.27545 -23.53471,-5.08839c-9.06418,-3.50691 -14.13946,-7.99621 -14.13946,-7.99621z" fill="url(#color-12)" stroke="#000000" stroke-width="2.5" stroke-linecap="butt"/><path d="M325.14875,126.10476c0.11471,2.70641 -6.43876,5.1821 -14.63758,5.52962c-8.19884,0.34751 -14.93828,-1.56475 -15.053,-4.27116c-0.11471,-2.70641 6.43876,-5.1821 14.63758,-5.52962c8.19884,-0.34751 14.93828,1.56475 15.053,4.27116z" fill-opacity="0.18431" fill="#000000" stroke="none" stroke-width="0" stroke-linecap="butt"/><path d="M329.56453,119.66614c4.60568,-1.84227 14.88494,-8.14242 17.057,0.05962c1.46555,5.53417 -2.80185,13.74221 -9.61234,10.84496c-4.20183,-1.78751 -4.06743,-9.17038 0.71496,-9.91985c4.8165,-0.75482 4.09334,4.22501 -0.38227,4.22656" fill="none" stroke="#000000" stroke-width="2.5" stroke-linecap="round"/><path d="M279.1092,123.69309c2.15539,-5.38848 13.5015,-6.55265 14.63907,0.54268c1.16953,7.29467 -10.29953,13.47752 -15.49274,7.81208c-3.4509,-3.76471 3.75468,-8.79604 7.19491,-6.98741c3.35457,1.7636 -1.35636,3.80376 -2.97859,3.84289" fill="none" stroke="#000000" stroke-width="2.5" stroke-linecap="round"/><path d="M281.72886,166.15025c0.87367,-4.36837 9.66029,-4.01389 13.21018,-3.55849c2.86527,0.36757 5.72204,1.73032 8.69388,2.1083c8.61831,1.09615 17.37569,-0.99804 25.91647,0.02204c4.19986,0.50161 8.58624,-2.0555 12.89177,-1.17751c0.55757,0.1137 2.91006,2.25527 2.70594,2.77352c-0.16783,0.42612 -5.37615,0.06904 -5.99808,0.06904c-5.59938,0 -11.42937,-0.44506 -16.98574,0.16828c-5.25834,0.58045 -10.66262,0.30548 -15.97095,0.30548c-7.66956,0 -16.46049,1.0078 -23.92671,-0.69626z" fill="#ffffff" stroke="#000000" stroke-width="2.5" stroke-linecap="round"/><path d="M277.70894,136.71288c0.10741,2.63359 1.41839,4.67108 1.4131,7.60755c-0.00927,5.14317 -5.90212,11.18688 -10.45792,5.61667c-3.95515,-4.83583 4.55772,-13.87053 9.27467,-13.87053z" fill="#ffffff" stroke="#000000" stroke-width="2.5" stroke-linecap="round"/><path d="M300.60026,105.76443c-1.25733,6.01945 -17.17768,13.5711 -23.11126,13.38442c-3.27664,-0.10309 -8.11989,-0.73717 -9.51314,-4.2203" fill="none" stroke="#000000" stroke-width="2.5" stroke-linecap="round"/><path d="M232.32381,246.08886c2.24038,1.4799 2.79783,3.92004 4.83351,4.91644c0.3703,0.18125 6.14519,1.72882 7.27704,3.67755c2.91368,5.01654 1.74204,13.61883 -3.64001,15.29452c-1.77989,0.55417 -7.08675,-0.14384 -7.08675,-0.14384c0,0 -9.06663,-6.38999 -13.07776,-10.23458l-0.47358,-0.07718c2.93529,2.63173 10.20083,5.96443 10.20083,5.96443c0,0 3.67359,5.46775 3.08275,8.28796c-0.24194,1.1548 0.37418,1.7246 0.47942,2.77002c0.196,1.94715 -3.49197,4.74467 -5.06982,5.13653c-8.41318,2.08942 -24.99129,-13.23261 -18.85353,-19.63624l0.57677,0.18297c-0.00322,-2.19549 -2.09978,-2.66204 -2.33274,-4.39313c-0.79046,-5.87392 5.16169,-10.46681 6.79929,-15.09561c0.7679,-2.17051 0.09458,-4.89263 1.06715,-6.92846c5.18598,-10.85561 17.89846,-30.4385 34.13795,-23.39983c1.4011,0.60728 4.03578,2.63311 6.02743,5.31384c3.33035,4.48258 5.82028,10.50367 4.74711,12.64329c-0.61324,1.22266 -2.99103,5.73603 -6.39547,6.71244c-4.06612,1.16618 -9.25546,-1.30813 -9.98332,-1.24188c-2.41937,0.2202 12.46606,12.53337 12.44983,14.81025c-0.02165,3.03743 -7.90275,7.43209 -11.38211,4.09719" fill="#ce6026" stroke="#000000" stroke-width="2.5" stroke-linecap="round"/><path d="M374.73416,260.74334c-2.86845,3.87292 -11.37677,0.86735 -11.90933,-2.1231c-0.3992,-2.24165 12.20155,-16.88443 9.77963,-16.69432c-0.72864,0.0572 -5.42751,3.36959 -9.63191,2.90438c-3.52021,-0.3895 -6.62368,-4.43832 -7.43396,-5.54033c-1.41797,-1.92848 0.02307,-8.28274 2.55149,-13.26188c1.51207,-2.97769 3.76822,-5.41805 5.04712,-6.25247c14.8232,-9.6714 30.6502,7.49259 37.58924,17.32053c1.30134,1.84311 1.09575,4.63971 2.21801,6.65002c2.39328,4.28715 9.03353,7.81278 9.24293,13.73593c0.06172,1.74561 -1.92642,2.55835 -1.5601,4.72306l0.53774,-0.27743c7.12795,5.27928 -6.63492,23.17289 -15.27975,22.52924c-1.62129,-0.12071 -5.72749,-2.25763 -5.862,-4.20998c-0.07221,-1.04823 0.43921,-1.71359 0.00638,-2.8112c-1.05706,-2.68054 1.64388,-8.68857 1.64388,-8.68857c0,0 6.601,-4.50797 9.05148,-7.59618l-0.45384,0.15578c-3.30685,4.46482 -11.1687,12.28961 -11.1687,12.28961c0,0 -5.11369,1.58122 -6.96146,1.33452c-5.58731,-0.74597 -8.19,-9.02837 -6.1622,-14.46373c0.78773,-2.11143 6.21978,-4.60885 6.5543,-4.84984c1.83894,-1.32479 1.97777,-3.82395 3.93712,-5.6598" fill="#ce6026" stroke="#000000" stroke-width="2.5" stroke-linecap="round"/></g></g></svg>