<svg version="1.1" xmlns="http://www.w3.org/2000/svg" xmlns:xlink="http://www.w3.org/1999/xlink" width="180.82603" height="311.31068" viewBox="0,0,180.82603,311.31068"><defs><linearGradient x1="318.68421" y1="179.40385" x2="330.26625" y2="357.87296" gradientUnits="userSpaceOnUse" id="color-1"><stop offset="0" stop-color="#060606"/><stop offset="1" stop-color="#212121"/></linearGradient><linearGradient x1="282.98434" y1="172.99881" x2="295.09752" y2="359.65241" gradientUnits="userSpaceOnUse" id="color-2"><stop offset="0" stop-color="#2e65d1"/><stop offset="1" stop-color="#002994"/></linearGradient><linearGradient x1="352.3119" y1="169.4507" x2="364.42511" y2="356.10435" gradientUnits="userSpaceOnUse" id="color-3"><stop offset="0" stop-color="#2d63d1"/><stop offset="1" stop-color="#002994"/></linearGradient><linearGradient x1="318.97538" y1="178.93755" x2="320.43282" y2="201.39552" gradientUnits="userSpaceOnUse" id="color-4"><stop offset="0" stop-color="#222222"/><stop offset="1" stop-color="#bebebe"/></linearGradient><linearGradient x1="273.17816" y1="92.31247" x2="319.50246" y2="188.13837" gradientUnits="userSpaceOnUse" id="color-5"><stop offset="0" stop-color="#1e1e1e"/><stop offset="1" stop-color="#bebebe"/></linearGradient><linearGradient x1="274.66974" y1="39.29747" x2="282.74893" y2="57.27368" gradientUnits="userSpaceOnUse" id="color-6"><stop offset="0" stop-color="#000000" stop-opacity="0.19216"/><stop offset="1" stop-color="#a9a9a9" stop-opacity="0.21961"/></linearGradient><linearGradient x1="278.24984" y1="45.5472" x2="284.32042" y2="59.05428" gradientUnits="userSpaceOnUse" id="color-7"><stop offset="0" stop-color="#000000" stop-opacity="0.19216"/><stop offset="1" stop-color="#a9a9a9" stop-opacity="0.21961"/></linearGradient><radialGradient cx="273.07569" cy="104.82587" r="82.23863" gradientUnits="userSpaceOnUse" id="color-8"><stop offset="0" stop-color="#717171"/><stop offset="1" stop-color="#4b4b4b"/></radialGradient><linearGradient x1="234.56229" y1="92.97974" x2="249.31215" y2="127.29525" gradientUnits="userSpaceOnUse" id="color-9"><stop offset="0" stop-color="#000000" stop-opacity="0.19216"/><stop offset="1" stop-color="#a9a9a9" stop-opacity="0.21961"/></linearGradient><linearGradient x1="274.40397" y1="76.89261" x2="286.01197" y2="103.89857" gradientUnits="userSpaceOnUse" id="color-10"><stop offset="0" stop-color="#000000" stop-opacity="0.19216"/><stop offset="1" stop-color="#a9a9a9" stop-opacity="0.21961"/></linearGradient><linearGradient x1="256.28763" y1="63.56861" x2="275.97392" y2="102.35009" gradientUnits="userSpaceOnUse" id="color-11"><stop offset="0" stop-color="#696969"/><stop offset="1" stop-color="#212121"/></linearGradient></defs><g transform="translate(-203.02132,-50.86375)"><g stroke-miterlimit="10"><path d="M286.68259,357.05514l-11.48873,-146.84002c0,0 4.40631,-26.03823 13.36772,-27.02587c8.89942,-0.98081 30.01933,-2.90922 48.44456,-4.93989c19.98432,-2.2025 28.03261,14.47789 28.03261,14.47789l10.05184,162.23679z" fill="url(#color-1)" stroke="#000000" stroke-width="0" stroke-linecap="butt" stroke-linejoin="miter"/><path d="M273.70556,357.22719l-11.35682,-141.31486c0,0 1.43583,-17.32237 5.79261,-18.02981c4.32666,-0.70255 24.15432,-17.96343 33.11217,-19.41798c9.71586,-1.57763 -7.45422,19.63307 -7.45422,19.63307c0,0 3.02105,30.43421 6.22209,59.27604c1.73481,15.6308 3.52246,30.79388 4.91077,40.39144c3.76215,26.00839 12.031,60.46834 12.031,60.46834c0,0 -25.20776,4.11414 -32.89413,3.93534c-6.55037,-0.15237 -10.36348,-4.94157 -10.36348,-4.94157z" fill="url(#color-2)" stroke="#000000" stroke-width="0" stroke-linecap="butt" stroke-linejoin="miter"/><path d="M344.18516,360.57525c0,0 3.29895,-36.0781 3.51442,-62.6429c0.22621,-27.89109 -2.18779,-100.91875 -2.18779,-100.91875c0,0 -18.39435,-16.2358 -9.28301,-17.29179c8.40051,-0.9736 29.80068,5.97365 33.85812,5.50338c4.08574,-0.47353 10.16021,19.15591 10.16021,19.15591l3.5049,143.6021c0,0 1.17735,6.06745 -4.74305,7.95158c-7.06514,2.24847 -34.8238,4.64046 -34.8238,4.64046z" fill="url(#color-3)" stroke="#000000" stroke-width="0" stroke-linecap="butt" stroke-linejoin="miter"/><path d="M332.83336,189.31452c0.40246,6.20161 -5.14946,11.61046 -12.40053,12.08102c-7.25112,0.47057 -13.45552,-4.17534 -13.85798,-10.37693c-0.40246,-6.20161 5.14946,-11.61046 12.40053,-12.08102c7.25112,-0.47057 13.45552,4.17534 13.85798,10.37693z" fill="url(#color-4)" stroke="#000000" stroke-width="0" stroke-linecap="butt" stroke-linejoin="miter"/><path d="M310.65519,241.86795l26.96522,-1.48463" fill="none" stroke="#ffffff" stroke-width="2.5" stroke-linecap="round" stroke-linejoin="miter"/><path d="M324.54385,255.55863l-1.62882,-25.0987" fill="none" stroke="#ffffff" stroke-width="2.5" stroke-linecap="round" stroke-linejoin="miter"/><path d="M332.92023,229.28002l-8.64679,9.84697" fill="none" stroke="#ffffff" stroke-width="2.5" stroke-linecap="round" stroke-linejoin="miter"/><path d="M332.32247,248.68641l-9.5142,-7.60716l-9.61708,-9.19234" fill="none" stroke="#ffffff" stroke-width="2.5" stroke-linecap="round" stroke-linejoin="miter"/><path d="M315.51674,251.3689l8.34831,-10.35823" fill="none" stroke="#ffffff" stroke-width="2.5" stroke-linecap="round" stroke-linejoin="miter"/><path d="M347.93935,239.94944l1.02641,-12.80146l14.88075,0.36084l0.70297,10.83207" fill="none" stroke-opacity="0.46667" stroke="#000000" stroke-width="2.5" stroke-linecap="round" stroke-linejoin="miter"/><path d="M359.77243,356.87611l-2.25853,-112.47765" fill="none" stroke-opacity="0.46667" stroke="#000000" stroke-width="2.5" stroke-linecap="round" stroke-linejoin="miter"/><path d="M287.35602,246.69669l13.61041,111.60797" fill="none" stroke-opacity="0.46667" stroke="#000000" stroke-width="2.5" stroke-linecap="round" stroke-linejoin="miter"/><path d="M282.84753,246.72396l-1.40982,-9.45964l11.64179,-0.49021l2.04109,11.01054" fill="none" stroke-opacity="0.46667" stroke="#000000" stroke-width="2.5" stroke-linecap="round" stroke-linejoin="miter"/><path d="M346.51131,118.44265c10.65143,26.4932 -2.10823,59.80796 -30.17727,71.09296c-28.06904,11.28502 -60.81829,-3.73317 -71.46972,-30.22636c-10.65142,-26.49319 3.46832,-57.11849 31.53738,-68.40347c28.06904,-11.28502 59.45819,1.04367 70.10963,27.53688z" fill="url(#color-5)" stroke="#000000" stroke-width="0" stroke-linecap="butt" stroke-linejoin="miter"/><path d="M304.39393,136.63771c12.52858,25.91645 14.6711,51.01373 14.6711,51.01373c0,0 -17.96024,-17.45066 -30.48882,-43.3671c-3.75383,-7.76513 -15.82949,-19.2032 -18.38526,-25.92623c-5.97424,-15.71534 0.54991,-23.34408 3.60913,-24.82296c2.88485,-1.3946 13.76404,0.31578 21.76349,13.33778c4.11252,6.6946 4.57638,20.96509 8.83037,29.76478z" fill-opacity="0.23529" fill="#000000" stroke="none" stroke-width="0" stroke-linecap="butt" stroke-linejoin="round"/><path d="M305.22485,119.35181c1.40336,2.31698 -3.14906,7.64165 -10.16818,11.89302c-7.01908,4.25136 -13.84683,5.81949 -15.25019,3.50248c-1.40336,-2.31698 3.14909,-7.64165 10.16818,-11.89301c7.01908,-4.25136 13.84683,-5.81947 15.25019,-3.50248z" fill-opacity="0.23137" fill="#000000" stroke="none" stroke-width="0" stroke-linecap="butt" stroke-linejoin="miter"/><path d="M273.25265,139.20326c1.01511,1.99103 0.06644,4.50825 -2.11883,5.62238c-2.18528,1.11413 -4.7797,0.40322 -5.79477,-1.58781c-1.01511,-1.99104 -0.06644,-4.50825 2.11883,-5.62238c2.18528,-1.11413 4.77967,-0.40324 5.79478,1.58782z" fill="#ffffff" stroke="#000000" stroke-width="2.5" stroke-linecap="butt" stroke-linejoin="miter"/><path d="M316.49976,110.93032c1.01512,1.99105 0.06645,4.50826 -2.11883,5.62239c-2.18528,1.11413 -4.77969,0.40322 -5.79478,-1.58782c-1.01511,-1.99103 -0.06645,-4.50825 2.11883,-5.62237c2.18528,-1.11413 4.77969,-0.40323 5.79478,1.5878z" fill="#ffffff" stroke="#000000" stroke-width="2.5" stroke-linecap="butt" stroke-linejoin="miter"/><path d="M266.06687,137.30967l2.30769,-2.75292l2.73052,-1.50192" fill="none" stroke="#000000" stroke-width="2.5" stroke-linecap="round" stroke-linejoin="miter"/><path d="M273.02292,143.04325l2.74029,-2.23435" fill="none" stroke="#000000" stroke-width="2.5" stroke-linecap="round" stroke-linejoin="miter"/><path d="M277.15396,135.40652l-0.4913,3.87602" fill="none" stroke="#000000" stroke-width="2.5" stroke-linecap="round" stroke-linejoin="miter"/><path d="M313.71039,118.82589l-3.87113,-0.8575l-6.40529,-3.08901" fill="none" stroke="#000000" stroke-width="2.5" stroke-linecap="round" stroke-linejoin="miter"/><path d="M270.13138,94.3603c22.18021,-10.72239 42.73943,-14.08048 45.92033,-7.5005c3.1809,6.57998 -12.22106,20.60632 -34.40126,31.32871c-22.18021,10.72239 -42.73944,14.08048 -45.92034,7.5005c-3.1809,-6.57998 12.22108,-20.60631 34.40127,-31.32871z" fill="#000000" stroke="none" stroke-width="0" stroke-linecap="butt" stroke-linejoin="miter"/><path d="M279.39675,104.51814l1.15689,-0.27466c1.40972,-0.39504 2.74227,-0.92577 4.12628,-1.37743c0.61109,-0.42954 1.22975,-0.85015 1.85926,-1.25779c0.98773,-0.78222 2.00815,-1.59902 3.06013,-2.39701c-1.65449,-2.25494 -3.25229,-4.5783 -5.38201,-6.48511c-0.32029,0.0983 -0.68013,0.17485 -1.08149,0.22828c-0.57486,0.07653 -1.1898,0.09167 -1.82692,0.05201c7.98222,-0.99403 16.05411,-5.33088 23.15245,-9.78563c0.06452,0.423 0.12667,0.84266 0.18961,1.25601c0.57739,0.48208 1.17574,0.94022 1.75694,1.41825l0,-0.00001c-0.2158,-0.603 -0.39694,-1.24262 -0.54983,-1.77374c-0.45968,-0.30159 -0.91787,-0.60679 -1.37537,-0.91392c2.68154,-1.68342 5.22393,-3.38322 7.56978,-4.92539c1.89539,-1.24604 4.11842,-2.34505 6.32434,-3.52416c0.07419,0.19402 0.14545,0.38855 0.21349,0.5836c0.26866,0.47698 0.53735,0.95401 0.80617,1.43104l-0.079,0.13392l0.11685,-0.04377l0.75728,2.02188c0.19043,0.50845 0.02836,1.0626 -0.36405,1.39386c0.23574,0.61247 0.47015,1.22622 0.70368,1.84115c0.39092,0.81725 0.76996,1.63871 1.13455,2.46466c0.13827,0.26261 0.27524,0.52582 0.41094,0.78953c0.77074,1.24269 1.52328,2.47806 2.26911,3.67673c0.31184,0.72476 0.64525,1.43615 0.98564,2.14259c0.0883,0.03271 0.17745,0.0647 0.2675,0.09584c1.1255,0.38946 2.06342,0.26148 3.03684,1.1825c1.61653,1.52951 2.58022,4.21628 3.58666,6.4757c0.21076,0.09635 0.39535,0.2512 0.52709,0.45365l0.76005,1.11932l-0.20722,0.14071l0.07618,0.18062c0.06538,0.15597 0.12954,0.31261 0.19253,0.46988c1.07627,1.35994 1.96213,2.99555 2.73577,4.73611c0.08,-0.39 0.34453,-0.73525 0.73908,-0.90164c0.6361,-0.26828 1.36923,0.02991 1.6375,0.66601l0.70541,1.67258l-0.31394,0.1324c1.50605,2.43457 2.44834,5.32773 2.60743,8.22055c0.05267,0.08365 0.10543,0.16725 0.1583,0.2508l-0.13988,0.20017c0.00648,0.24356 0.00734,0.48695 0.00243,0.72989l-0.00002,0c1.97136,3.49842 3.78169,7.1022 5.69312,10.78748c0.27816,0.53632 0.632,1.13532 0.99234,1.76955c-0.30839,-2.51611 -0.64098,-5.04255 -1.25932,-7.44432c-1.23789,-4.80836 -4.08214,-9.43632 -6.69058,-13.55291c0,0 -0.66849,-1.05623 0.38773,-1.72472c1.05623,-0.66849 1.72472,0.38773 1.72472,0.38773c2.72563,4.31188 5.65836,9.14843 6.97388,14.17555c1.05791,4.04267 1.32911,8.43305 1.96136,12.56293l-0.01436,0.07081l0.01916,-0.00077l0.09965,2.46881c0.03292,0.51591 -0.25882,1.01909 -0.76206,1.23133c-0.5794,0.24436 -1.2393,0.01875 -1.55509,-0.50413l-1.08755,-1.7318l0.32312,-0.20292c-2.78599,-3.78645 -4.34904,-8.65101 -6.47307,-12.8525c1.31842,4.10007 2.6483,8.17996 2.97321,12.35443l0.27858,-0.07328l0.53953,2.05113c0.16737,0.59739 -0.13186,1.24012 -0.71846,1.48752c-0.6361,0.26828 -1.36923,-0.02991 -1.6375,-0.66601l-0.58784,-1.39383c-1.2689,-3.00869 -2.36458,-6.05251 -3.46383,-9.10073c-0.09632,0.08297 -0.20705,0.15254 -0.33048,0.2046c-0.17039,0.07185 -0.34773,0.10309 -0.52125,0.09805c0.64854,1.72897 1.32268,3.4479 2.04083,5.14984c1.8706,4.43305 4.6275,9.18524 5.60231,13.9856l0.06557,0.10359l0.23278,-0.09817l0.62926,1.49202c0.26828,0.6361 -0.02991,1.36923 -0.66601,1.6375c-0.57811,0.24381 -1.23636,0.01975 -1.55297,-0.50063l-0.8589,-1.3571c-2.80364,-4.13449 -5.82259,-8.12743 -8.48149,-12.3691c0.8874,3.18567 1.81461,6.36978 2.77134,9.572c0.42737,0.99793 0.82853,2.00009 1.17195,3.01691c0.31378,0.74323 0.62743,1.4865 0.94092,2.22984l0.83901,1.98936c0.26828,0.6361 -0.02991,1.36923 -0.66601,1.6375c-0.6361,0.26828 -1.36923,-0.02991 -1.6375,-0.66601l-0.83901,-1.98936c-0.10626,-0.25197 -0.21252,-0.50395 -0.31876,-0.75594c-1.47516,-1.81661 -2.27596,-5.39639 -3.03727,-7.2015c-2.62626,-6.22713 -5.25253,-12.45424 -7.8788,-18.68138c-0.18731,-0.10268 -0.34947,-0.25371 -0.46564,-0.44466l-0.86694,-1.36979l0.03688,-0.02335l-0.08842,-0.06605c-0.15648,-0.36882 -0.31742,-0.73453 -0.48113,-1.09787c-0.50838,-0.63986 -0.84831,-1.55934 -1.20539,-2.40959c0.45231,1.16259 0.95312,2.3073 1.44445,3.45934c0.00999,0.02043 0.0149,0.03205 0.0149,0.03205l-0.00095,0.00066c0.0705,0.16539 0.14079,0.33092 0.2107,0.49668l-1.25664,0.23708l-1.04688,0.73442c-0.06976,-0.16543 -0.13963,-0.33122 -0.20952,-0.49738l-0.00023,0.00003c0,0 -0.00161,-0.00382 -0.00443,-0.01115c-0.90649,-2.15526 -1.81801,-4.37269 -2.58769,-6.63067c-0.52389,0.45346 -1.20259,0.90831 -1.64379,0.7015c0.08718,0.23242 0.15802,0.46282 0.17486,0.61195c0.09351,0.82812 0.30757,1.63853 0.43008,2.46286c0.39969,2.6897 0.82447,4.80859 0.58371,7.18834l0.27769,0.0037l-0.02058,1.54047c0.00355,0.46788 -0.25694,0.91861 -0.70621,1.13579c-0.37768,0.18257 -0.80184,0.15811 -1.14395,-0.02863c0.13061,0.66893 0.20651,1.30035 0.22426,1.96975l0.24,-0.03101l0.20946,1.62048c0.03591,0.23451 0.00334,0.4716 -0.08831,0.68416c2.11998,2.97085 4.06234,6.00934 4.72277,9.5251l0.05003,0.08162l0.29294,-0.1035l11.5858,21.56683c0.21969,0.59643 -11.10744,-18.81086 -11.6916,-18.52847c-0.58797,0.28423 12.55897,23.6746 12.23064,23.12408l-14.72517,-25.03945c-3.05801,-3.64943 -5.85468,-7.33554 -8.91175,-10.73088c1.97226,3.74656 3.50114,7.61862 4.76031,11.59495c0.29884,0.59292 0.60069,1.18358 0.90652,1.77127c1.86216,3.57839 4.4708,7.25713 6.12216,11.08035c0.28162,0.46771 0.5632,0.93512 0.84464,1.40225l0.03266,-0.02067l0.86533,1.36725c0.04145,0.06299 0.07776,0.13065 0.10812,0.20264c0.15671,0.37155 0.12013,0.77621 -0.06414,1.102c0.50938,1.07097 0.94905,2.15747 1.2723,3.26259c0.03201,0.05115 0.06404,0.10229 0.09606,0.15344l-0.01104,0.01999l0.01699,-0.01021l0.23236,0.38675l0.20146,-0.08496l0.62926,1.49202c0.26828,0.6361 -0.02991,1.36923 -0.66601,1.6375c-0.58661,0.24741 -1.25572,0.01306 -1.56671,-0.52376l-0.96892,-1.61272c-1.20564,-1.92639 -2.40545,-3.85617 -3.62342,-5.77318c1.01609,2.59654 1.90197,5.25411 2.56148,8.02197l-0.00276,0.02114l0.00697,-0.00143l0.27108,1.32554c0.13036,0.5791 -0.16812,1.18612 -0.73426,1.42489c-0.49438,0.20851 -1.04739,0.07484 -1.3952,-0.29371l-1.00125,-1.0129l0.02553,-0.02523c-0.06046,-0.05034 -0.1191,-0.10315 -0.17566,-0.15872c-0.54348,-0.53407 -1.32939,-3.57603 -1.49513,-4.21519c-0.59376,-2.28967 -1.07771,-4.6136 -1.52431,-6.9411c-1.61554,-3.75087 -3.44461,-7.40438 -5.1549,-11.12979c-3.35197,-5.3343 -6.78749,-10.60456 -9.99534,-16.06033c-1.26542,-2.15217 -3.98295,-5.77587 -4.09387,-8.27201c-0.01498,-0.33709 -0.01481,-0.64939 0.00198,-0.93685c-1.30601,-0.79838 -2.60598,-1.59627 -3.83966,-2.50663c-0.01709,-0.01262 -1.79313,-1.27604 -1.91253,-1.27465c-0.61255,0.00703 -0.36505,1.17235 -0.61275,1.73262c-0.22474,0.50834 -0.4559,1.16853 -0.74246,1.82909c-0.53069,1.22328 -1.25137,2.44788 -2.47305,2.71185c-0.47765,0.1032 -3.21038,-1.54985 -3.57225,-1.79187c-0.51039,-0.34137 -1.1627,-1.33532 -1.60311,-0.90742c-0.55773,0.54188 -0.79426,2.78081 -1.06588,3.46699c-0.73998,1.86928 -1.51947,2.90089 -3.07375,4.14915c-1.58518,1.41358 -2.65522,2.70047 -5.00245,2.05428c-0.63614,-0.17512 -1.20344,-1.68169 -1.60515,-1.15828c-0.40487,0.52753 -0.62903,1.66966 -0.90925,2.88755c0.04739,0.11236 0.09479,0.22474 0.14217,0.3371l0.52438,1.24336c0.26828,0.6361 -0.02991,1.36923 -0.66601,1.6375c-0.37475,0.15805 -0.78319,0.11949 -1.11041,-0.06895c-0.3544,0.54144 -0.80917,0.92865 -1.41646,1.04293c-0.78445,0.1476 -1.48096,-0.60896 -2.17166,-1.00907c-1.80901,-1.04799 -3.76571,-2.82404 -5.25174,-4.61071c0.40589,2.44636 0.5867,4.95259 0.35454,7.33713l0.48008,0.03742l-0.18735,2.40398c-0.02615,0.43721 -0.28168,0.84776 -0.70403,1.05192c-0.17991,0.08698 -0.37039,0.12696 -0.55753,0.1248c3.46594,9.25539 11.90094,16.8632 12.97904,26.88531l0.22462,-0.07593l0.44716,1.32298c0.21,0.59285 -0.05547,1.26128 -0.63482,1.54134c-0.53558,0.25892 -1.16462,0.10144 -1.52063,-0.34474l-0.87499,-1.04882c-3.92529,-3.74963 -6.51333,-8.91111 -9.89004,-13.18231c-4.1691,-4.69873 -5.5573,-12.02506 -7.66713,-17.80003c-0.66815,-1.82884 -1.45369,-3.47906 -2.4814,-5.13432c-0.30821,-0.49642 -0.61098,-0.99618 -0.91612,-1.49449c-0.07206,-0.11767 -0.17814,-0.27087 -0.28927,-0.43572c-0.08415,0.4024 -0.21629,0.82534 -0.29303,1.116c-0.418,0.73752 -0.45463,1.93026 -1.25398,2.21259c-1.65117,0.58317 -3.41252,-1.89524 -4.41007,-4.03112c0.17535,2.70326 0.82274,5.27774 1.9138,7.75964c0.08452,0.15924 0.16218,0.31948 0.21838,0.48284c0.05613,0.12069 0.11329,0.24118 0.17155,0.36143l-0.00082,0.04597c0.00261,0.00592 0.00523,0.01184 0.00783,0.01777l0.01584,-0.0058l0.08871,0.24255c1.06628,2.41095 2.17371,4.80653 3.24255,7.20732c0.3244,0.60278 0.62895,1.2133 0.90869,1.83175c1.4273,0.98286 2.80689,2.52771 3.74392,3.53346c3.2278,3.4645 7.209,8.4116 9.51352,13.44943c0.47982,0.50904 0.95564,1.02185 1.42712,1.53866c2.68529,2.94351 5.62427,5.44956 7.11184,8.88109l0.4422,-0.18649l0.73413,1.7407c0.26828,0.6361 -0.02991,1.36923 -0.66601,1.6375c-0.38161,0.16094 -0.79814,0.11801 -1.12828,-0.07944l-1.15295,-0.67272c-5.23878,-3.05795 -9.98778,-6.75618 -14.44459,-10.80712c3.59796,7.29248 7.44048,14.74503 12.54022,20.731l0.0223,0.09021l0.02746,-0.01739l0.86533,1.36725c0.04145,0.06299 0.07776,0.13065 0.10812,0.20264c0.26828,0.6361 -0.02991,1.36923 -0.66601,1.6375c-0.40613,0.17127 -0.85181,0.11166 -1.1908,-0.1194l-1.60775,-1.06182l0.01675,-0.02537c-0.05707,-0.02973 -0.11356,-0.06081 -0.16938,-0.09337c-0.65603,-0.38259 -1.84928,-2.45491 -2.3132,-3.15698c-1.38903,-2.10205 -2.78615,-4.17595 -4.09863,-6.32804c-5.04084,-8.26553 -10.23893,-16.55878 -15.64783,-24.55304l0.28319,0.58583c0.30047,0.62153 0.04019,1.36897 -0.58136,1.66943c-0.62154,0.30047 -1.36898,0.04018 -1.66943,-0.58136l-0.68657,-1.42023c-1.12888,-2.33519 -2.25875,-4.66989 -3.38492,-7.00639c-2.00902,-5.6651 -4.12429,-12.41522 -2.06632,-18.40073c0.94485,-2.74804 2.5271,-5.29546 4.16807,-7.68972c0,0 0.3309,-0.4823 0.86994,-0.5607c0.20697,-0.29301 0.42091,-0.58689 0.64198,-0.88209c0.04912,-0.59095 0.5831,-0.91291 0.70264,-0.97787l0.40033,-0.58345c0.11985,-0.18181 0.2888,-0.33463 0.4991,-0.43628c0.25622,-0.12387 0.53387,-0.15244 0.79276,-0.09967c2.57332,-1.99671 5.13337,-3.79534 8.26663,-4.85429c6.08928,-2.15159 12.37682,-3.75694 18.10048,-6.81191c0.9081,-0.48469 1.78755,-1.00558 2.64665,-1.55241c0.74936,-1.26208 1.58414,-2.48128 2.49222,-3.67631l0.98466,-1.28844c0.12901,-0.17544 0.30554,-0.31943 0.52076,-0.4102c0.12707,-0.0536 0.25803,-0.08458 0.38838,-0.09478c0.26455,-0.21611 0.55893,-0.28628 0.55893,-0.28628zM248.089,157.54243c-0.6527,-0.67348 -1.5086,-1.20625 -1.84098,-2.06835c-0.03479,-0.09024 -0.0642,-0.18169 -0.089,-0.27415l-0.05341,0.02253l-0.52438,-1.24336c-0.26828,-0.6361 0.02991,-1.36923 0.66601,-1.6375c0.2125,-0.08963 0.43585,-0.11603 0.64906,-0.08773c0.00934,-0.48303 0.12173,-0.91936 0.47069,-1.20767c0.00496,-0.00411 0.00995,-0.00815 0.01496,-0.01216c-1.52782,-2.04943 -3.77616,-4.41494 -4.31898,-6.49968c-0.01597,-0.0613 -0.03042,-0.12281 -0.0435,-0.18452l-0.02178,0.00613l-0.58584,-2.07828c-0.17939,-0.6028 0.11993,-1.25679 0.71286,-1.50686c0.24675,-0.10408 0.50811,-0.12289 0.75127,-0.06983c-0.71544,-1.5832 -1.24975,-3.28745 -1.58423,-4.99235l-0.22677,0.6512l-0.19609,-0.06829c-0.81171,7.11229 1.80937,13.93945 2.87333,20.81544c0.12886,-0.25578 0.34578,-0.46883 0.63035,-0.58884c0.53523,-0.22574 1.13917,-0.05041 1.47707,0.38982l1.21415,1.50941l-0.14519,0.11678c0.34059,0.27298 0.67603,0.55236 1.00705,0.8372c-0.29829,-0.60981 -0.583,-1.22238 -0.83666,-1.82896zM300.18058,91.29663c-0.43548,0.11946 -0.8901,-0.00829 -1.20007,-0.30871l-0.59522,-0.55314c-0.28382,0.5573 -0.66633,1.05694 -1.2241,1.44833c-0.75679,0.53103 -1.59661,0.76888 -2.47796,0.79556c0.11305,0.52974 0.215,1.05585 0.30526,1.57432l0.18709,-0.07007l0.44687,1.19313c0.45673,-0.21784 0.91801,-0.41784 1.38379,-0.59679c1.47775,-0.56773 3.02077,-0.95225 4.56655,-1.32556c-0.49351,-0.71784 -0.96573,-1.49328 -1.39222,-2.15708zM301.0879,88.28505c1.808,1.22327 3.59168,2.48641 5.35994,3.80531c0.21308,-0.07841 0.42486,-0.16037 0.63511,-0.24642c0.03313,-0.28697 0.08024,-0.58184 0.11422,-0.88108c-0.88215,-0.76666 -1.68432,-1.50912 -2.17706,-1.89934c-0.22355,-0.17704 -0.44666,-0.35413 -0.66938,-0.53128c-1.20396,0.69148 -2.54116,-0.18601 -3.72085,-1.47651c0.05952,0.26204 0.12858,0.51738 0.21288,0.76153l-0.01778,0.14089l0.041,-0.00467l0.00775,0.06805c0.07151,0.08782 0.14289,0.17565 0.21417,0.26351zM321.87533,108.72967c0.45979,-0.19391 0.97027,-0.09186 1.31924,0.21982l0.91475,0.78312c-0.17717,-0.57853 -0.32716,-1.15669 -0.44608,-1.73334c-0.06708,-0.11317 -0.13416,-0.22635 -0.20123,-0.33959l-0.14658,0.06182l-0.27576,-0.65384c-0.53649,-0.42965 -1.07043,-0.8521 -1.60206,-1.26241c-0.3336,-0.25747 -0.71373,-0.5227 -1.0957,-0.80334c0.48931,1.21755 1.01925,2.50082 1.42056,3.78203c0.03631,-0.01976 0.07396,-0.0379 0.11286,-0.05431zM262.2487,172.16169c-0.95905,-1.20982 -1.90791,-2.42461 -2.84466,-3.6468c-0.52379,0.04232 -0.94764,-0.32055 -0.94764,-0.32055l-0.73388,-0.65483c-0.57179,-0.33453 -1.12319,-0.70171 -1.65592,-1.09638c0.51301,0.52608 1.02941,1.04771 1.55271,1.56055c1.46503,1.43576 3.01613,2.8256 4.62939,4.15802zM330.33645,113.91097c0.05036,0.08378 0.10076,0.16759 0.15119,0.25139c0.61427,1.02048 1.23544,1.99074 1.83817,2.93904c-0.50598,-1.34581 -1.01987,-2.6889 -1.54633,-4.02771c-0.26067,-0.17874 -0.52056,-0.3609 -0.77969,-0.54597c0.1173,0.45924 0.2303,0.92006 0.33665,1.38324zM335.59008,117.82677c-0.10599,-0.40252 -0.20956,-0.80723 -0.31143,-1.2137c-0.17575,-0.40355 -0.35028,-0.80667 -0.52221,-1.21007c-0.17757,0.00831 -0.35376,-0.02164 -0.5168,-0.08575c0.61377,1.69618 1.21121,3.39809 1.80942,5.09927c-0.14745,-0.93917 -0.26538,-1.85449 -0.45897,-2.58975zM310.88779,89.40163c-0.37894,-0.47899 -0.75645,-0.95897 -1.13252,-1.44002c0.03149,0.49832 0.04923,0.99466 0.05265,1.48793c0.25917,0.19494 0.5177,0.39108 0.77529,0.589c0.04189,0.03218 0.08309,0.06516 0.12373,0.09882c0.12335,-0.06219 0.24666,-0.12442 0.36995,-0.18661c-0.06807,-0.18217 -0.13122,-0.36754 -0.18911,-0.54915zM303.76783,129.32372c-0.40149,-1.05307 -0.79432,-2.11587 -1.18209,-3.18967c-0.22363,-0.14102 -0.44958,-0.28018 -0.67798,-0.41743c0.19414,0.40082 0.37337,0.71369 0.40254,0.77402c0.46684,0.96596 0.95225,1.90469 1.45752,2.83309zM292.96646,96.54647l0.01108,-0.01008l-0.03539,-0.01742c-0.44448,-0.55146 -0.91071,-1.06228 -1.39691,-1.53788c0.44663,0.62012 0.87264,1.27311 1.2795,1.9613c0.10624,-0.06756 0.2128,-0.13445 0.3196,-0.20068zM268.621,176.91951c-0.31923,-0.423 -0.62942,-0.84758 -0.92937,-1.25363c-0.04605,0.16508 -0.12568,0.32002 -0.23452,0.45404c0.38617,0.27008 0.77423,0.53666 1.16388,0.79958zM241.88239,131.69362c-0.16605,0.3023 -0.32303,0.60742 -0.46862,0.91489c0.16625,-0.02763 0.33408,-0.02071 0.49385,0.0174c-0.01598,-0.31364 -0.02442,-0.62466 -0.02523,-0.93231zM256.41317,160.49111c0.12704,0.11624 0.25396,0.23261 0.38073,0.34913c-0.39571,-0.52071 -0.79977,-1.03182 -1.21132,-1.53059c0.27439,0.39539 0.55132,0.78917 0.83058,1.18145zM317.77084,126.86052c-0.01064,-0.08754 -0.01952,-0.17532 -0.02727,-0.26247l-0.09438,0.20807c0.04083,0.01768 0.08139,0.0358 0.12164,0.0544zM260.03392,137.02233c-0.00878,-0.06485 -0.01735,-0.12984 -0.02569,-0.19492l-0.08142,0.03937c0.03605,0.05179 0.07175,0.10365 0.10711,0.15556zM245.06523,159.0416l0.11741,0.24287l-0.21588,-0.51187c0.00321,0.02834 0.00639,0.05669 0.00954,0.08504c0.02964,0.06133 0.05929,0.12262 0.08894,0.18397zM245.38222,159.62816l-0.02777,0.01171l0.03199,0.06618z" fill="#000000" stroke="none" stroke-width="0.5" stroke-linecap="butt" stroke-linejoin="miter"/><path d="M323.91598,185.42535c1.00908,2.39262 -1.06946,0.96996 -4.59706,0.19802c-0.70343,-0.15393 -1.64447,-0.88852 -2.55333,-1.30304c-0.56071,-0.25573 -1.10917,-0.38962 -1.58204,-0.19018c-0.73276,0.30904 -0.16886,2.29731 -0.54547,2.99684c-0.3836,0.71251 -1.70513,0.13833 -2.17639,0.67068c-2.27573,2.57073 -4.06149,4.38011 -5.00764,2.13672c-0.22098,-0.52395 -0.38081,-0.16933 -0.37251,-0.74076c0.02095,-1.44174 -0.18649,-2.81894 1.07148,-4.45487c1.25438,-1.63127 3.97115,-3.52206 6.08887,-4.41519c2.66413,-1.12359 6.49658,-2.34779 8.14342,-1.07967c1.49539,1.15149 0.89562,4.67567 1.53067,6.18146z" fill="#060606" stroke="none" stroke-width="0" stroke-linecap="butt" stroke-linejoin="miter"/><path d="M313.28868,189.60463c-1.15177,0.48576 -1.6375,-0.66601 -1.6375,-0.66601l-0.23766,-0.56351c-0.49323,-1.16947 -0.97699,-2.34117 -1.45539,-3.51409c-0.43327,-0.05006 -0.82782,-0.32579 -1.0094,-0.75635l-0.55454,-1.31486c-0.16937,-0.40159 -0.34333,-0.80441 -0.52065,-1.20842c-0.30938,-0.40308 -0.47645,-0.92214 -0.68953,-1.54526c-1.1463,-2.53676 -2.36437,-5.12103 -3.363,-7.75454c-0.69014,-1.53361 -1.37498,-3.07084 -2.03145,-4.62741l-0.71297,-1.69053c-0.26828,-0.6361 0.02991,-1.36923 0.66601,-1.6375c0.01323,-0.00558 0.0265,-0.01092 0.0398,-0.01601c-0.0438,-0.43006 -0.07503,-0.86138 -0.09253,-1.29395c0,0 -0.05042,-1.24898 1.19855,-1.2994c1.24898,-0.05041 1.2994,1.19856 1.2994,1.19856c0.0317,0.78765 0.11315,1.57225 0.23632,2.35353c0.04627,0.02857 0.09172,0.05891 0.13629,0.09112c1.10415,0.7981 1.97216,4.48404 2.53153,5.81037c2.27446,5.39297 4.34912,10.83676 6.62507,16.23325l0.23766,0.56351c0,0 0.48576,1.15177 -0.66601,1.6375z" fill="#000000" stroke="none" stroke-width="0.5" stroke-linecap="butt" stroke-linejoin="miter"/><path d="M324.09857,183.49087l-1.20654,1.14945c-0.65073,-1.54293 -1.30145,-3.08587 -1.95219,-4.62881c-0.09625,-0.06465 -0.18406,-0.14301 -0.26012,-0.23379l-0.83197,-0.94695l0.35392,-0.31096c-2.20509,-2.37032 -2.87764,-5.73884 -3.93087,-9.05442l-0.77563,-1.83909c-0.26828,-0.6361 0.02991,-1.36923 0.66601,-1.6375c0.59785,-0.25214 1.2814,-0.00391 1.58418,0.55496l0.12433,0.22238c0.67355,0.08027 0.96784,0.77802 0.96784,0.77802c0.77189,1.83022 1.47546,3.68254 2.18945,5.52973c1.33516,2.87868 2.37444,6.01118 3.46117,8.83238c0.37305,0.28629 0.4841,0.75224 0.4841,0.75224l-0.13759,0.13107c0.11917,0.29765 0.23931,0.59097 0.36088,0.87922z" fill="#000000" stroke="none" stroke-width="0.5" stroke-linecap="butt" stroke-linejoin="miter"/><path d="M272.15876,141.3876c0.70219,1.03413 -0.33194,1.73633 -0.33194,1.73633l-0.3344,-0.21548c-0.10105,0.52854 -0.22371,1.06886 -0.35018,1.61606c0.557,-0.0917 1.12483,0.20505 1.35386,0.7481c0.03609,0.08556 0.06192,0.1729 0.07807,0.2606l0.41135,2.01153l-0.22518,0.04604c0.36902,1.00278 0.64868,2.01159 0.98909,3.30402l0.4392,1.55809c0.17939,0.6028 -0.11994,1.25679 -0.71287,1.50686c-0.02419,0.0102 -0.0485,0.01958 -0.07293,0.02815c0.34165,0.92601 0.65802,1.87013 0.98168,2.803c1.25061,1.77706 2.47905,3.58189 3.31317,5.53655c1.26796,3.00642 2.7297,6.00895 3.41982,9.21854c0.0468,0.21765 0.08266,0.43372 0.11112,0.64854c1.13512,2.42564 2.24662,4.86444 3.27389,7.3411c0.1039,0.65 0.21638,1.32233 0.36151,1.9921c0.75779,1.03004 1.53675,2.05414 2.24271,3.15466c0.4145,0.64618 1.12755,1.6671 1.83992,2.79885c0.5601,0.36493 1.101,0.74441 1.54626,1.23295c0.74041,0.8124 1.32414,2.37371 1.76225,3.41705l0.6969,1.15997c0.03453,0.05545 0.06515,0.11433 0.09135,0.17643c0.26828,0.6361 -0.02991,1.36923 -0.66601,1.6375c-0.45979,0.19392 -0.97027,0.09186 -1.31924,-0.21982l-1.36454,-1.1682l0.01289,-0.01507c-0.02615,-0.01477 -0.05221,-0.02976 -0.07817,-0.04494c-1.35262,-0.79156 -2.28815,-2.68989 -3.10828,-4.51411c-0.87598,-0.75684 -1.74771,-1.56839 -2.46605,-2.72921c-0.72077,-1.16476 -1.18778,-2.5023 -1.51344,-3.86046c-1.23845,-1.70977 -2.40581,-3.44819 -3.13171,-5.54449c-0.48743,-1.40765 -0.41714,-2.72467 -0.5945,-4.1067c-2.2413,-4.85394 -4.53978,-9.67419 -6.62624,-14.58362c-1.95656,-2.53462 -3.98321,-5.09239 -4.27547,-8.13868c-0.74845,-0.94278 -0.32305,-2.58284 0.2703,-3.77096c0.25382,-1.34786 0.60919,-2.68965 0.85392,-3.96984l1.38554,-1.38335c0,0 1.03413,-0.7022 1.73633,0.33194z" fill="#000000" stroke="none" stroke-width="0.5" stroke-linecap="butt" stroke-linejoin="miter"/><path d="M278.53356,135.58811c-0.04148,0.74949 -0.15984,3.55481 -0.35286,4.25066c-0.66785,2.40756 -0.99083,4.06994 -3.74845,1.65572c-0.90719,-0.79422 -1.19037,-2.71545 -1.04167,-4.58326c-0.65713,-0.16398 -0.86225,-0.89167 -0.86225,-0.89167c-0.74359,-2.67313 -1.07456,-3.48682 1.48667,-4.91283l1.31486,-0.55454c0.6361,-0.26828 1.36924,0.02992 1.6375,0.66601c0.1217,0.28857 0.12683,0.59709 0.03673,0.87313l-0.19732,0.61701c0.47237,0.01561 0.91552,0.29984 1.11123,0.7639c0.02054,0.0487 0.03776,0.09799 0.05176,0.14756l0.51997,1.75235l-0.07548,0.0224z" fill="#000000" stroke="none" stroke-width="0.5" stroke-linecap="butt" stroke-linejoin="miter"/><path d="" fill="url(#color-6)" stroke="none" stroke-width="0.5" stroke-linecap="butt" stroke-linejoin="miter"/><path d="" fill="url(#color-7)" stroke="none" stroke-width="0.5" stroke-linecap="butt" stroke-linejoin="miter"/><path d="M343.13001,58.87371c0,0 -4.74313,6.82506 -11.16785,15.65046c-2.8328,3.89132 -4.03269,8.22257 -8.6199,12.44262c-2.36976,2.18007 -1.32956,5.25741 -4.07223,7.56274c-2.69861,2.26828 -9.1743,3.76285 -12.21681,6.11705c-2.63649,2.04006 -9.09643,4.74119 -11.97922,6.82122c-3.89669,2.81158 -4.31577,5.01385 -8.63865,7.84944c-4.27451,2.80386 -6.41452,6.03234 -10.68308,8.58225c-2.59629,1.55094 -7.33924,2.5081 -9.90264,3.95599c-1.27742,0.72151 -4.46331,0.89219 -5.72822,1.58683c-3.79573,2.08447 -5.61471,4.58365 -9.24618,6.41081c-1.84839,0.93 -4.601,-0.48525 -6.85912,0.55879c-2.30632,1.06632 -4.12135,4.59213 -6.30447,5.56033c-4.73986,2.1021 -8.53355,3.71442 -8.53355,3.71442c0,0 -14.61218,3.66253 -18.30984,4.3823c-4.75333,0.92525 -7.84691,0.70918 -7.84691,0.70918c0,0 6.39529,-7.32453 14.56768,-17.68119c1.82805,-2.31662 0.77286,-5.97977 2.33951,-8.65292c1.60558,-2.73962 5.84576,-4.49159 8.81076,-7.04838c2.82986,-2.44024 6.20139,-7.20371 10.66388,-10.59529c7.06739,-5.37136 15.15803,-9.1855 15.15803,-9.1855c0,0 3.88227,-2.63484 5.88784,-3.95039c2.39382,-1.57024 6.77862,-3.18029 9.62,-4.86407c9.11717,-5.40279 16.77888,-11.92042 24.49035,-16.12967c6.96194,-3.80013 14.45046,-5.57082 14.45046,-5.57082c0,0 2.27011,2.52674 3.74788,1.91442c1.30056,-0.5389 4.65531,-5.39631 4.65531,-5.39631c0,0 5.20793,-3.49609 7.11976,-1.31346c1.8363,2.09639 5.4333,1.81324 8.97853,0.78519c0.8381,-0.24302 0.49084,2.61211 1.29919,2.30742c3.87724,-1.4614 8.31949,-6.52343 8.31949,-6.52343z" fill="url(#color-8)" stroke="#000000" stroke-width="0" stroke-linecap="butt" stroke-linejoin="miter"/><path d="M249.83104,91.97284c-2.94298,2.70423 -5.93637,5.36422 -8.46427,8.41963c0,0 -0.81367,0.98125 -1.76413,0.20715c-0.95045,-0.7741 -0.13679,-1.75537 -0.13679,-1.75537c4.20965,-5.06624 9.65053,-9.06069 14.07108,-13.95032l0.05962,-0.0259l-0.01526,-0.01672l1.22836,-1.12645c0.10336,-0.09914 0.22463,-0.18311 0.36155,-0.24623c0.63668,-0.29353 1.37051,-0.02501 1.63905,0.59974c0.16545,0.38492 0.11568,0.81526 -0.09584,1.15759l-0.4372,0.72701c0.4571,0.01203 0.8806,0.27582 1.07077,0.71823c0.15145,0.35236 0.12256,0.74277 -0.04565,1.0689l-0.6246,1.23158l-0.12407,-0.05901l-0.01163,0.01804l-0.16432,-0.10174l-0.03777,-0.01796c-0.00275,0.0091 -0.0055,0.0182 -0.00828,0.02729l0.186,0.12885c-0.13725,0.18484 -0.27526,0.36892 -0.41399,0.55233c-1.28208,3.51478 -3.99307,6.48959 -6.29785,9.59311c-3.75134,5.0514 -8.06018,10.4917 -10.89441,16.09831c-1.90722,3.88958 -3.61708,7.4969 -4.92057,11.61782l-0.12621,0.32457c0,0 -0.47135,1.17568 -1.63033,0.75162c-1.15897,-0.42408 -0.68764,-1.59977 -0.68764,-1.59977l0.06073,-0.14171c1.34331,-4.24682 3.10864,-7.98838 5.07299,-11.99431c1.49331,-2.93589 3.35102,-5.66913 5.32054,-8.33701c-1.39293,1.63374 -2.74809,3.30187 -4.03513,5.03331c-4.26718,5.13331 -8.20212,11.30635 -9.16917,17.98496c-0.31817,2.19733 0.39121,4.44609 0.65463,6.59331c0,0 0.15082,1.23368 -1.09124,1.43395c-1.24204,0.20026 -1.39287,-1.03345 -1.39287,-1.03345c-0.29222,-2.39946 -0.98954,-4.79305 -0.6474,-7.25017c0.99156,-7.12087 5.16667,-13.74103 9.7007,-19.22178c3.02601,-4.07642 6.43439,-7.79572 9.82302,-11.54238c1.357,-1.93874 2.70914,-3.87878 3.98754,-5.86701z" fill="url(#color-9)" stroke="none" stroke-width="0.5" stroke-linecap="butt" stroke-linejoin="miter"/><path d="M271.66761,109.58579c-0.82582,-0.90509 0.11407,-1.767 0.11407,-1.767l0.11329,0.03052c3.04364,-6.47373 6.69511,-12.60082 9.72779,-19.05858c-0.84964,1.53444 -1.7113,3.06146 -2.59772,4.57333c-2.47007,4.21295 -5.87536,7.86261 -8.39236,12.05177c0,0 -0.65548,1.08999 -1.72119,0.47839c-1.06574,-0.6116 -0.41025,-1.70156 -0.41025,-1.70156c2.51385,-4.17673 5.9207,-7.81765 8.37503,-12.02253c2.29338,-3.92912 4.43271,-7.95079 6.62473,-11.94392c1.24337,-2.5334 2.71911,-5.12309 3.74609,-7.71721l0.56083,-1.39885v0c0.12064,-0.30089 0.35442,-0.56037 0.67275,-0.70714c0.63668,-0.29353 1.37051,-0.02501 1.63905,0.59974c0.12078,0.28101 0.12686,0.58623 0.03905,0.86373l-0.7447,2.40642l-0.21023,-0.05722c-0.01639,0.03762 -0.03283,0.07524 -0.04934,0.11283c-1.50531,12.22087 -9.86614,23.52096 -15.00091,34.50556l-0.72023,0.79489c0,0 -0.9399,0.86191 -1.76573,-0.04317z" fill="url(#color-10)" stroke="none" stroke-width="0.5" stroke-linecap="butt" stroke-linejoin="miter"/><path d="M270.76396,97.71035c0,0 -10.43727,-20.83089 -13.67456,-27.20831c-0.38508,-0.7586 -2.75562,0.27397 -4.11242,-0.6046c-3.221,-2.08567 -6.62038,-6.02391 -6.62038,-6.02391c0,0 8.45176,3.10201 9.30882,2.29819c0.6809,-0.63862 0.3156,-2.35623 0.50166,-2.50603c0.16561,-0.13334 1.58709,0.44841 2.2921,-0.02781c1.25468,-0.8475 3.10856,-12.77414 3.10856,-12.77414c0,0 1.10993,6.26891 0.9176,11.02342c-0.10903,2.6955 -1.88684,4.48501 -1.41676,5.41107c3.23729,6.37738 12.99021,26.62666 12.99021,26.62666c0,0 5.32622,-0.0939 5.32066,0.7279c-0.00271,0.39966 -2.58034,-1.06545 -3.10549,1.23246c-0.34035,1.48931 6.3653,-0.45597 6.58586,0.60324c0.15277,0.73358 -6.17439,4.73968 -6.22415,4.77974c-0.11167,0.08992 0.47824,-2.03235 0.09423,0.88265c-0.3029,2.29945 0.37977,6.66317 0.149,6.5038c-0.14868,-0.1027 -0.47311,0.38564 -0.52605,-0.45747c-0.15272,-2.43242 -1.7053,-4.77922 -1.7053,-4.77922c0,0 -2.67001,0.08122 -3.82158,-0.92891c-0.5462,-0.47913 -7.97112,2.88134 -8.26116,2.25729c-0.57172,-1.23017 6.29401,-6.45066 6.18087,-6.61693c-0.66273,-0.97399 2.01827,-0.41912 2.01827,-0.41912z" fill="url(#color-11)" stroke="#000000" stroke-width="0" stroke-linecap="butt" stroke-linejoin="miter"/></g></g></svg>