<svg version="1.1" xmlns="http://www.w3.org/2000/svg" xmlns:xlink="http://www.w3.org/1999/xlink" width="151.0565" height="326.11599" viewBox="0,0,151.0565,326.11599"><defs><linearGradient x1="319.67926" y1="169.19388" x2="319.67926" y2="348.03844" gradientUnits="userSpaceOnUse" id="color-1"><stop offset="0" stop-color="#d0d0d0"/><stop offset="1" stop-color="#8a8a8a"/></linearGradient><linearGradient x1="284.4691" y1="160.49033" x2="284.4691" y2="347.5366" gradientUnits="userSpaceOnUse" id="color-2"><stop offset="0" stop-color="#d1b16d"/><stop offset="1" stop-color="#945d00"/></linearGradient><linearGradient x1="353.88094" y1="161.43938" x2="353.88094" y2="348.48566" gradientUnits="userSpaceOnUse" id="color-3"><stop offset="0" stop-color="#d1b16d"/><stop offset="1" stop-color="#945d00"/></linearGradient><linearGradient x1="318.80562" y1="83.15878" x2="318.80562" y2="177.91423" gradientUnits="userSpaceOnUse" id="color-4"><stop offset="0" stop-color="#000000"/><stop offset="1" stop-color="#000000"/></linearGradient></defs><g transform="translate(-244.59423,-26.77042)"><g stroke-miterlimit="10"><path d="M276.24005,344.39981l-1.9552,-147.27579c0,0 6.0833,-25.69821 15.08987,-26.10344c8.94426,-0.40242 30.14472,-0.95905 48.66278,-1.79223c20.08501,-0.90368 27.03616,16.2629 27.03616,16.2629l-0.47576,162.54719z" fill="url(#color-1)" stroke="#000000" stroke-width="2.5" stroke-linecap="butt"/><path d="M263.27911,343.73111l-2.18137,-141.75369c0,0 2.55461,-17.19302 6.94808,-17.61683c4.36308,-0.42087 25.26692,-16.36148 34.30017,-17.23287c9.79763,-0.94512 -8.71001,19.10912 -8.71001,19.10912c0,0 1.04378,30.56597 2.37029,59.55455c0.7189,15.71033 1.52085,30.95736 2.28469,40.62468c2.06994,26.19743 8.0898,61.12053 8.0898,61.12053c0,0 -25.42129,2.47305 -33.07995,1.79685c-6.52675,-0.57626 -10.02171,-5.60235 -10.02171,-5.60235z" fill="url(#color-2)" stroke="#000000" stroke-width="2.5" stroke-linecap="butt"/><path d="M333.39394,351.63642c0,0 5.62846,-35.78872 7.56382,-62.2838c2.03198,-27.8179 4.35233,-100.84859 4.35233,-100.84859c0,0 -17.3043,-17.39295 -8.1437,-17.85667c8.44593,-0.42754 29.35126,7.891 33.43066,7.68449c4.10782,-0.20794 8.89833,19.77368 8.89833,19.77368l-5.80218,143.52764c0,0 0.78193,6.13095 -5.24804,7.62773c-7.19593,1.7862 -35.05121,2.37552 -35.05121,2.37552z" fill="url(#color-3)" stroke="#000000" stroke-width="2.5" stroke-linecap="butt"/><path d="M333.15688,180.00003c0,6.21464 -5.89054,11.2526 -13.15688,11.2526c-7.26635,0 -13.15688,-5.03796 -13.15688,-11.2526c0,-6.21464 5.89054,-11.2526 13.15688,-11.2526c7.26635,0 13.15688,5.03796 13.15688,11.2526z" fill="#ffd300" stroke="#000000" stroke-width="2.5" stroke-linecap="butt"/><path d="M307.6219,231.00689l27.00476,0.26475" fill="none" stroke="#000000" stroke-width="2.5" stroke-linecap="round"/><path d="M320.59478,220.41678v25.1515l-0.42091,99.60416" fill="none" stroke="#000000" stroke-width="2.5" stroke-linecap="round"/><path d="M321.38904,229.15362l9.26634,-9.26634" fill="none" stroke="#000000" stroke-width="2.5" stroke-linecap="round"/><path d="M328.80211,239.21422l-9.00159,-8.20733l-9.00159,-9.79585" fill="none" stroke="#000000" stroke-width="2.5" stroke-linecap="round"/><path d="M320.85953,231.00689l-9.00159,9.79585" fill="none" stroke="#000000" stroke-width="2.5" stroke-linecap="round"/><path d="M344.95202,231.50697l1.85327,-12.70812l14.82615,1.32376v10.85486" fill="none" stroke="#000000" stroke-width="2.5" stroke-linecap="round"/><path d="M354.21836,236.56669l-5.0303,112.38782" fill="none" stroke="#000000" stroke-width="2.5" stroke-linecap="round"/><path d="M284.05892,234.31663l6.35406,112.2551" fill="none" stroke="#000000" stroke-width="2.5" stroke-linecap="round"/><path d="M279.55813,234.05188l-0.79426,-9.53109l11.64911,0.26475l1.32376,11.11961" fill="none" stroke="#000000" stroke-width="2.5" stroke-linecap="round"/><path d="M374.45997,129.33184c-1.94104,28.48816 -27.92848,52.9286 -58.11114,50.8721c-30.18266,-2.05649 -53.13099,-29.83117 -51.18995,-58.31932c1.94104,-28.48815 27.98246,-49.91526 58.16512,-47.85875c30.18266,2.05649 53.07703,26.81782 51.13599,55.30597z" fill="#ffd300" stroke="#000000" stroke-width="2.5" stroke-linecap="butt"/><path d="M361.07406,125.39459c0,18.84599 -18.28271,26.0116 -40.83555,26.0116c-22.55285,0 -42.8324,-10.3399 -42.8324,-29.1859c0,-9.4615 3.80936,-22.60871 11.25243,-28.78976c7.3825,-6.13075 20.34961,-10.27173 31.57997,-10.27173c11.69178,0 25.83026,3.46455 33.27445,12.14493c6.91527,8.06363 7.5611,21.01494 7.5611,30.09085z" fill="#000000" stroke="none" stroke-width="0" stroke-linecap="butt"/><path d="M365.83139,146.51961c0,16.59869 -22.90515,31.3946 -46.72625,31.3946c-23.8211,0 -47.32531,-16.51879 -47.32531,-33.11747c0,-4.86504 5.85231,-6.39722 8.79751,-10.46262c7.10329,-9.80502 21.68863,-16.52906 38.52781,-16.52906c23.8211,0 46.72625,12.11588 46.72625,28.71457z" fill="#000000" stroke="none" stroke-width="0" stroke-linecap="butt"/><path d="M361.07406,125.39459c0,2.67907 -0.36946,5.12211 -1.06814,7.34207c3.67241,4.0263 5.82548,8.69396 5.82548,13.78299l-0.00001,-0.00002c0,16.59869 -22.90515,31.3946 -46.72625,31.3946c-23.8211,0 -47.32531,-16.51879 -47.32531,-33.11747c0,-4.86504 5.85231,-6.39722 8.79751,-10.46262c0.01975,-0.02726 0.03956,-0.0545 0.05942,-0.08172c-2.07178,-3.50793 -3.23065,-7.52699 -3.23065,-12.03213c0,-9.4615 3.80936,-22.60871 11.25243,-28.78976c7.3825,-6.13075 20.34961,-10.27173 31.57997,-10.27173c11.69178,0 25.83026,3.46455 33.27445,12.14493c6.91527,8.06363 7.5611,21.01494 7.5611,30.09085z" fill="url(#color-4)" stroke="#000000" stroke-width="2" stroke-linecap="butt"/><path d="M394.40073,30.96301l-19.85644,15.35565l16.67941,-2.11802l-32.03506,45.8022" fill="none" stroke="#000000" stroke-width="2.5" stroke-linecap="round"/><path d="M281.05632,87.06026l-32.03506,-45.8022l16.67942,2.11802l-19.85645,-15.35565" fill="none" stroke="#000000" stroke-width="2.5" stroke-linecap="round"/><path d="M336.8544,163.80381c1.04006,0.69338 0.34669,1.73344 0.34669,1.73344l-1.17351,1.46336c-1.77568,0.87803 -3.46608,1.96859 -5.31884,2.47796c-6.12163,3.06081 -26.95875,5.29329 -26.95875,-3.59599c0,0 0,-1.25 1.25,-1.25c1.25,0 1.25,1.25 1.25,1.25c0,5.9102 18.96622,3.56386 23.59138,1.25128c1.66817,-0.36287 3.46062,-1.55489 5.06817,-2.36931l0.21142,-0.61404c0,0 0.69338,-1.04006 1.73344,-0.34669z" fill="#00e9ff" stroke="none" stroke-width="0.5" stroke-linecap="butt"/><path d="M302.61607,119.61099c0.00769,0.09363 0.00632,0.1953 -0.00594,0.30569c-0.13804,1.24235 -1.38039,1.10432 -1.38039,1.10432l-0.42264,-0.05043c-1.19103,0.40462 -2.69002,0.24581 -4.12041,-0.89063c-1.45918,-1.15932 -1.754,-2.4061 -1.41813,-3.44737c-2.46511,0.1996 -4.79545,0.7549 -6.78223,1.8911c0,0 -1.0853,0.62017 -1.70548,-0.46513c-0.62017,-1.0853 0.46513,-1.70548 0.46513,-1.70548c6.66837,-3.80763 16.30204,-1.88068 23.47967,-0.87222l0.75857,0.2316c0,0 1.18585,0.39528 0.79057,1.58114c-0.39528,1.18585 -1.58114,0.79057 -1.58114,0.79057l-0.32156,-0.12844c-2.25155,-0.32775 -4.83049,-0.77489 -7.49232,-1.07772c0.42266,0.95928 0.26498,1.94703 -0.26371,2.733z" fill="#00e9ff" stroke="none" stroke-width="0.5" stroke-linecap="butt"/><path d="M343.74389,120.72039c-0.11507,3.23487 -6.44789,4.39971 -8.09548,0.36061c-0.86082,-0.32819 -1.53293,-0.83911 -1.75772,-1.51223c-0.15746,-0.47148 -0.24016,-0.88301 -0.25892,-1.24059c-1.60789,0.20439 -3.15507,0.49151 -4.59753,0.86292c0,0 -1.21268,0.30317 -1.51585,-0.90951c-0.30317,-1.21268 0.90951,-1.51585 0.90951,-1.51585c7.46466,-1.82086 17.21304,-1.73673 24.58944,0.37082l0.9066,1.38193c0,0 0,1.25 -1.25,1.25c-0.46712,0 -0.75968,-0.17456 -0.94291,-0.39322c-2.44711,-0.64931 -5.18273,-1.08091 -7.99754,-1.28741c0.46889,0.8974 0.40477,1.82775 0.01041,2.63253z" fill="#00e9ff" stroke="none" stroke-width="0.5" stroke-linecap="butt"/></g></g></svg>