<svg version="1.1" xmlns="http://www.w3.org/2000/svg" xmlns:xlink="http://www.w3.org/1999/xlink" width="102.16022" height="225.97385" viewBox="0,0,102.16022,225.97385"><g transform="translate(-268.1593,-109.62806)"><g data-paper-data="{&quot;isPaintingLayer&quot;:true}" fill-rule="nonzero" stroke-linejoin="miter" stroke-miterlimit="10" stroke-dasharray="" stroke-dashoffset="0" style="mix-blend-mode: normal"><g stroke="none" stroke-width="0.5" stroke-linecap="butt"><path d="M315.53555,214.90752c-4.98453,0.97503 -9.78774,4.3597 -14.3813,6.53453c-1.80486,0.85452 -4.54444,1.07214 -5.86254,2.76841c-6.67281,2.41701 -7.98365,10.57818 -8.56809,18.25722c-0.09824,1.29084 -0.5511,2.50863 -0.7018,3.79172c-0.36828,3.13584 0.0094,6.68772 0.0094,9.85995c0,6.99407 0.70642,13.58516 1.61392,20.45951c0.59035,4.47198 0.00941,9.66141 0.00941,14.20394c0,6.71092 0.23189,13.34579 0.23189,20.05325c0,4.05612 -0.4177,8.50338 0.22716,12.48648c0.00626,2.05035 0.0715,3.99374 0.23191,6.01597c0.03825,0.48229 -0.30854,2.83159 0.15444,3.24475c1.03597,0.92449 3.02566,0.54203 4.21129,0.54203c4.03731,0 6.27477,-0.56557 7.14856,-6.07858c-0.01997,-6.7527 0.04789,-13.43294 -0.91641,-20.00465c-0.30509,-2.07917 -0.41032,-4.40094 -0.24785,-6.51909c0.05878,-0.76626 -0.15564,-1.73785 0.28493,-2.28211c0.65323,-0.80695 3.48011,-0.35197 4.39832,-0.35197c2.25315,0.06202 4.77502,-0.61835 7.12005,-0.8564c6.49494,-0.65932 13.26025,-0.00302 19.78074,-0.00302c3.26502,0 6.48001,0.28647 9.73995,0.28647c0.86256,0 3.45732,-0.38756 4.09529,0.27238c0.44433,0.45964 0.78072,3.65306 0.81741,4.28184c0.23832,4.08425 0.00245,8.30617 0.00245,12.4036c0,4.07846 -0.08703,8.16165 0.22716,12.20001c0.04756,0.61123 0.0804,3.05338 0.28492,3.4264c0.20064,0.36595 3.29919,0.0739 3.3851,0.0739c3.38089,0 7.01679,0.4964 10.26873,-0.85909c4.51603,-10.41911 2.71101,-22.72041 2.67269,-34.03505c0,-12.45947 -1.61135,-24.34414 -3.01229,-36.5836c0.03307,-2.14251 -0.77596,-4.08279 -0.92675,-6.28852c-0.63381,-9.27137 -2.91636,-17.54926 -4.39059,-26.50561c-0.57366,-3.82149 -3.40511,-4.69308 -6.0485,-5.67271c-5.01895,-1.86 -10.84346,-4.2274 -16.11187,-4.26282c-4.33355,-1.78444 -9.8917,-0.84391 -14.4541,-0.84391h-1.15953c0,0 -0.05294,0 -0.13413,-0.01526zM318.83065,212.47417c4.21792,-0.16545 8.95133,-0.64994 12.76429,0.92015c2.36216,-0.01743 4.45696,0.56666 6.65319,1.4819c5.47767,2.28271 15.58346,1.45769 17.10333,10.35465c1.4362,9.04597 3.79871,17.4089 4.42175,26.77872c0.14986,2.25371 0.90095,4.08633 0.92847,6.31637c1.43647,12.2847 3.01719,24.24616 3.01719,36.75396c-0.00547,1.39613 0.30976,2.76597 0.45652,4.1503c0.4832,4.55811 0.25317,10.39637 -0.48254,14.74667c-0.21154,1.25092 0.09696,2.55904 0.02272,3.83366c-0.28257,4.85084 -1.22744,9.04592 -3.35349,13.13419c-3.64854,1.9531 -7.63317,1.43272 -11.53019,1.43272c-1.46077,0 -3.81429,0.46312 -4.96343,-1.07201c-0.37612,-0.50245 -0.58029,-3.84979 -0.6427,-4.59489c-0.34459,-4.11349 -0.23664,-8.28248 -0.23664,-12.43683c0,-3.4377 -0.0023,-6.87541 0,-10.3131c0.00031,-0.46008 0.09872,-4.30674 -0.10777,-4.5137c-0.01778,-0.0178 -2.62391,0.27238 -2.86181,0.27238c-3.26068,0 -6.47491,-0.28647 -9.73995,-0.28647c-6.46961,0 -13.20051,-0.67589 -19.64283,-0.00302c-2.44262,0.25512 -4.88699,0.81524 -7.25797,0.86245c-0.85031,0 -1.71039,0.1588 -2.55093,0c-0.18157,-0.0343 -0.34177,-0.51242 -0.47165,-0.35197c-0.3903,0.48214 0.28492,1.33319 0.28492,2.01502c0,1.6006 -0.01754,3.07173 0.21596,4.65342c1.00041,6.77618 0.95677,13.7103 0.93882,20.67477c-0.47026,2.86359 -1.68395,6.83358 -4.1309,7.89364c-1.5314,0.66341 -3.35948,0.35152 -4.95377,0.35152c-1.67854,0 -4.16424,0.36023 -5.52865,-1.17682c-1.64727,-1.85572 -1.01424,-8.25344 -1.00508,-10.79253c-0.65698,-4.05794 -0.23664,-8.59108 -0.23664,-12.7233c0,-6.70715 -0.23189,-13.34215 -0.23189,-20.05325c0,-4.40768 0.60822,-9.54219 0.0094,-13.87059c-0.9636,-6.96514 -1.63273,-13.69746 -1.63273,-20.79286c0,-10.99962 -0.49618,-30.30356 10.21941,-33.98033c1.49446,-1.78097 4.25465,-2.03499 6.19645,-2.96109c5.62962,-2.6849 11.52197,-6.94504 17.71913,-6.94504c0,0 0.33355,0 0.61003,0.24127z" fill="#000000"/><path d="M315.66299,214.87542l1.16043,-0.00018c4.5624,0 10.13227,-0.9405 14.46582,0.84394c5.2684,0.03542 11.10537,2.40795 16.12431,4.26795c2.64339,0.97963 5.47988,1.85521 6.05354,5.67669c1.47422,8.95634 3.76787,17.25044 4.40168,26.52181c0.15079,2.20571 0.96191,4.15192 0.92884,6.29443c1.40093,12.23946 3.01113,24.16024 3.01113,36.61971c0.03833,11.31463 1.83193,23.6339 -2.68409,34.05301c-3.25196,1.35549 -6.89321,0.86345 -10.2741,0.86345c-0.08591,0 -3.18649,0.29334 -3.38712,-0.07262c-0.20452,-0.37302 -0.27134,-2.90168 -0.31889,-3.5129c-0.31419,-4.03835 -0.23083,-8.11898 -0.23083,-12.19744c0,-4.09743 0.23045,-8.31417 -0.00787,-12.39841c-0.03669,-0.62878 -0.31847,-3.75376 -0.7628,-4.21341c-0.63796,-0.65993 -3.23578,-0.26883 -4.09834,-0.26883c-3.25993,0 -6.48768,-0.2776 -9.7527,-0.2776c-6.5205,0 -13.32097,-0.66292 -19.81592,-0.0036c-2.34503,0.23805 -4.87248,0.91237 -7.12561,0.85036c-0.91821,0 -3.74732,-0.45818 -4.40055,0.34875c-0.44058,0.54426 -0.16591,1.455 -0.22469,2.22127c-0.16248,2.11814 -0.06031,4.43596 0.24478,6.51513c0.9643,6.57171 0.88891,13.24514 0.90888,19.99785c-0.87381,5.51301 -3.15161,6.16073 -7.18891,6.16073c-1.18564,0 -3.17736,0.38071 -4.21331,-0.54378c-0.46297,-0.41316 -0.11709,-2.76332 -0.15535,-3.24562c-0.16041,-2.02223 -0.22743,-3.96747 -0.23369,-6.01783c-0.64486,-3.98308 -0.23115,-8.43549 -0.23115,-12.49162c0,-6.70746 -0.23835,-13.35608 -0.23835,-20.067c0,-4.54254 0.57854,-9.74603 -0.01182,-14.21801c-0.90749,-6.87435 -1.61145,-13.48533 -1.61145,-20.47939c0,-3.17222 -0.37483,-6.73146 -0.00654,-9.8673c0.15069,-1.2831 0.60495,-2.50359 0.70318,-3.79443c0.58444,-7.67904 1.9048,-15.85222 8.57761,-18.26923c1.31811,-1.69627 4.06186,-1.91711 5.86672,-2.77162c4.59356,-2.17483 9.40841,-5.56449 14.39294,-6.53952c0.08119,0.01525 0.13423,0.01523 0.13423,0.01523z" fill="#ffffff"/></g><path d="M325.38343,236.10705c0.15721,0.7031 0.19594,1.53074 0.17898,2.39416c0.30962,-1.21729 1.54523,-1.87343 2.40726,-2.52334c0,0 1.1524,-0.8033 1.79929,0.42399c0.1018,0.19315 0.15903,0.37578 0.18322,0.54644c0.06652,-0.11592 0.14538,-0.21329 0.2296,-0.295c-0.45028,-0.92958 -0.42972,-2.14549 0.34592,-3.24097c0.48948,-0.69132 1.52122,-0.33057 2.28381,-0.49201c0.53936,-0.16185 0.99035,-0.21277 1.36125,-0.17661c-0.00696,-0.04977 -0.01162,-0.10062 -0.01387,-0.15242c-0.03492,-0.80465 0.52778,-1.53291 1.25681,-1.62658l0.24139,-0.03102c-0.11415,-0.43677 -0.13869,-0.89113 -0.03276,-1.32006c0.17894,-0.72455 1.00194,-0.91925 1.71465,-1.20467c0.48387,-0.54665 1.03503,-0.95969 1.58848,-1.11513c0.76539,-1.12572 2.01013,-2.08549 3.05208,-2.56322c-0.29953,-1.15209 0.47698,-2.24423 1.70562,-3.29114c0.37002,-0.31529 1.0181,-0.50064 1.67549,-0.62139c0.31366,-0.14761 0.64826,-0.20348 0.98467,-0.14388c0.0231,-0.00277 0.04602,-0.00551 0.06872,-0.00819c0.20149,-0.44886 0.6386,-0.81349 1.17786,-1.09962l0.13883,-0.11998c0.60584,-0.35327 1.1657,-1.16451 1.81754,-1.05985c0.39877,0.06403 0.84923,0.17821 1.26117,0.36079c0.0942,-0.00275 0.18213,-0.00259 0.26263,0.00041c0,0 1.31246,0.07221 1.15781,1.53722c-0.02639,0.25002 -0.0865,0.45527 -0.16805,0.62374c-0.38448,1.41826 -2.25525,2.9765 -3.60315,2.82854c0.01035,1.58361 -1.36673,2.72234 -2.79921,3.06842c0.63627,2.41038 -2.15122,5.09586 -4.48304,5.23864c0.05301,0.09567 0.09322,0.20176 0.11788,0.32051c0.4781,2.30214 -3.59801,4.98336 -5.52424,4.22014c-0.12037,0.2102 -0.24176,0.33787 -0.24176,0.33787l-1.28422,1.01918c-0.04641,0.00495 -0.09334,0.01188 -0.14069,0.02039c-0.15609,0.40262 -0.46275,0.72907 -0.84231,0.8788c-0.07306,0.14171 -0.17479,0.28636 -0.31253,0.43124c-0.78875,0.82959 -1.50323,0.34587 -1.76225,0.11359c-0.00308,0.54104 -0.18603,1.12013 -0.61274,1.69846c0.39032,0.20725 0.66341,0.63604 0.68626,1.16259c0.03492,0.80465 -0.52778,1.53291 -1.25681,1.62658l-1.33341,0.17134c-0.99268,0.12412 -1.99363,0.08251 -2.99346,0.07788c0.11706,1.04659 0.19301,2.10374 0.24315,3.16564c0.96488,0.13095 1.84868,0.37869 2.92777,0.59076c1.22447,0.24064 2.55884,0.52655 3.45741,1.4382c1.97547,2.00423 1.89056,6.71085 0.38431,9.35667c-1.12683,1.97934 -3.66188,3.71997 -5.86045,4.71491c0.00739,1.38706 -0.05098,2.77679 -0.19939,4.16515l0.06574,1.51478c0.03492,0.80465 -0.52778,1.53291 -1.25681,1.62658c-0.60435,0.07767 -1.13331,-0.30515 -1.31644,-0.89676l-0.55019,-1.64663l0.04316,-0.0205c-0.03329,-0.06089 -0.06535,-0.12275 -0.09606,-0.1857c-0.36297,-0.74415 -0.31445,-1.64885 -0.24753,-2.55512l-0.03711,-0.85511l0.0251,-0.00322c-0.00936,-0.0132 -0.01818,-0.02728 -0.02641,-0.04232c-0.01111,-0.02028 -0.02149,-0.04083 -0.03113,-0.06164c-0.90987,0.12221 -1.82912,0.16557 -2.69851,0.16348c-0.05914,-0.00014 -0.11986,0.00328 -0.18159,0.00883c-0.45723,0.07247 -0.92247,0.13624 -1.39628,0.19364l-0.1456,-0.09468l-0.01469,0.08252l-1.44494,-0.21052c-0.59422,-0.0717 -1.05822,-0.59557 -1.08832,-1.28893c-0.03492,-0.80465 0.52778,-1.5329 1.25681,-1.62658c0.03897,-0.005 0.07764,-0.00809 0.11592,-0.00935l1.56717,-0.06807l-0.00046,0.01758c0.01955,-0.00634 0.03915,-0.01258 0.05878,-0.01869c0.59925,-0.18671 1.21226,-0.10267 1.8271,-0.03262c0.66322,-0.12988 1.30322,-0.28284 1.92403,-0.47181c-0.76126,-0.24902 -0.80448,-1.24518 -0.80448,-1.24518l-0.02903,-0.66897c-0.09662,-2.22631 -0.04583,-4.46308 0.06179,-6.70446c-1.42985,0.15686 -2.82349,0.12377 -3.87501,-1.15243c-0.51805,-0.62874 -0.95611,-1.4395 -1.0161,-2.31285c-0.03297,-0.48011 0.14515,-0.95185 0.3564,-1.41298c-0.00399,-1.67222 1.01199,-3.51076 2.26197,-4.68067c-0.2555,-0.1869 -0.48664,-0.4155 -0.68146,-0.67661c-0.11622,0.19855 -0.25614,0.37688 -0.43028,0.52597c-1.36473,1.1685 -2.91567,0.33705 -3.80663,-1.01276c-0.85281,-0.50865 -1.6141,-1.24607 -1.72027,-1.83788c-0.06992,-0.38979 -0.10175,-0.73121 -0.1005,-1.03261c-0.23662,0.03453 -0.47908,0.08046 -0.70894,0.10179c-0.62505,0.22737 -1.35572,0.0773 -1.99049,-0.05019c-2.14358,-0.43055 -2.74801,-1.91801 -2.35062,-3.68024c-1.02383,1.11879 -2.79646,1.67185 -3.88411,0.90386c-1.08917,-0.76904 -1.4272,-1.81032 -1.28955,-2.8435c-0.2048,0.08745 -0.36361,0.10785 -0.36361,0.10785l-0.10619,-0.0257c-1.11699,0.61103 -3.59836,-0.6222 -4.05234,-1.54774c-0.29067,-0.5926 -0.45456,-1.06712 -0.51695,-1.46584c-0.32225,0.0451 -0.64985,0.06058 -0.97385,0.04715c-0.42494,0.03636 -0.85015,-0.02464 -1.24867,-0.20422c-1.8468,-0.54936 -3.10368,-2.16847 -1.66033,-4.69354c0.28616,-0.50063 0.72221,-0.90997 1.20403,-1.2081c0.39333,-0.46816 0.75593,-1.00128 1.27919,-1.19483c0.14457,-0.05348 0.29996,-0.09898 0.46253,-0.1352c0.39869,-0.36001 0.77477,-0.66425 1.07889,-0.89316c0,0 1.13227,-0.84009 1.81375,0.3623c0.28616,0.50493 0.25253,0.94593 0.11718,1.2877c0.19375,0.24107 0.33616,0.53953 0.40594,0.90316c0.63849,0.5006 1.02102,1.28267 0.87946,2.49925c0.10821,0.07878 0.21522,0.18493 0.31839,0.32479c0.102,0.13826 0.17451,0.27458 0.22336,0.40725c0.02194,0.00487 0.04406,0.00989 0.06635,0.01508c0.41286,0.09606 0.65416,0.4168 0.8108,0.84843l0.26541,-0.185l0.32421,0.61512l0.06347,0.04466l-0.02136,0.03522l0.29782,0.56505l-0.06418,0.04472l0.29378,0.09595c-0.11224,0.31203 -0.18816,0.6531 -0.25857,0.99858c0.07571,0.10366 0.13973,0.23026 0.18494,0.38474c1.29227,-1.79181 3.74805,-2.81112 5.18426,-0.83612c0.01799,0.02473 0.03506,0.05056 0.05123,0.07742c0.2414,-0.61528 0.56585,-1.2113 0.9187,-1.75975c0,0 0.82973,-1.20163 1.85833,-0.36046c1.0286,0.84117 0.19888,2.0428 0.19888,2.0428c-0.05916,0.07568 -0.12386,0.14767 -0.18993,0.21875c0.57936,-0.11263 1.14666,-0.07905 1.58259,0.24479c0.75017,0.5573 0.82353,1.69793 0.53292,2.79104c0.23245,0.02448 0.47644,0.13015 0.68978,0.38915c0.18498,0.11693 0.35802,0.31333 0.49209,0.62835c0.19395,0.45571 0.16932,0.8376 0.05633,1.14096c0.04284,0.09833 0.07125,0.19966 0.0891,0.29947c0.2234,-0.11717 0.45419,-0.23892 0.6865,-0.37501c0,0 0.98105,-0.4949 1.53158,0.34216c0.71926,0.29093 1.1875,1.02155 1.3827,1.88765l0.38877,0.31794c0.68124,-0.8957 2.22228,-1.73788 3.4285,-1.53004c0.00551,-0.29797 0.02316,-0.51495 0.05904,-0.59488c-0.00287,-0.07987 -0.00602,-0.15981 -0.00949,-0.23977l0.01899,-0.04071l0.00069,-0.02622l-0.01847,0.00052l0.05677,-1.47236c0.0215,-0.75684 0.56437,-1.41985 1.25769,-1.50894c0.72902,-0.09367 1.34834,0.48269 1.38326,1.28734c0.00187,0.04302 0.00203,0.08581 0.00054,0.1283l-0.04487,1.72129c0.00007,0.002 0.00014,0.00402 0.00021,0.00601zM326.03418,253.86855c0.00021,0.02511 0.00041,0.05022 0.00059,0.0753c0.23676,1.772 0.45643,3.56436 0.60444,5.36806c0.76283,-0.53916 1.50533,-1.19576 2.2377,-2.0028c1.20434,-1.32712 2.27357,-2.1269 1.58028,-3.92305c-1.15192,-1.44011 -2.37115,-0.98558 -4.01343,-0.99202c-0.14113,-0.00055 -0.28079,-0.01407 -0.41974,-0.03382c0.00319,0.50398 0.00602,1.00695 0.01015,1.50833zM325.54903,239.66979c-0.01064,-0.05379 -0.01979,-0.10674 -0.02747,-0.15888c-0.0036,0.06245 -0.00736,0.1249 -0.01125,0.18734c0.0122,-0.0092 0.02511,-0.01873 0.03872,-0.02846zM322.259,247.31597l0.24978,0.09c0.04147,-0.65585 0.08199,-1.31174 0.11931,-1.96747c-0.94396,0.61846 -1.64015,1.38981 -0.36909,1.87747zM342.25475,228.64115c0.05399,-0.03336 0.10704,-0.0686 0.15897,-0.10589c0.27689,-0.19886 1.03466,-0.897 0.74193,-0.73137c-0.52402,0.29649 -1.07903,0.51739 -1.63606,0.70865l0.80161,-0.11281c0,0 -0.01756,0.09872 -0.06646,0.2414zM310.76988,236.08378c-0.07844,-0.04908 -0.15577,-0.10241 -0.23177,-0.15885c-0.0131,0.0601 -0.01215,0.1014 0.00652,0.11848c0.06092,0.05577 0.13991,0.0564 0.22525,0.04036z" fill="#ffe04b" stroke="#000000" stroke-width="1.5" stroke-linecap="butt"/><g stroke="none" stroke-width="0.5" stroke-linecap="butt"><path d="M270.27423,169.29306c-0.91463,-2.93861 -0.38635,-6.46488 -0.68951,-9.4536c-0.21971,-2.16602 -0.70411,-4.21308 -1.00305,-6.34233c-0.94286,-6.71568 -0.01269,-14.25206 -0.01269,-21.04319c0,-3.49419 0,-6.98836 0,-10.48254c0,-1.11135 -0.36509,-3.61291 0.14219,-4.55961c1.29404,-2.41502 6.15317,-2.47873 8.38021,-2.65144c3.13766,-0.24333 7.35764,-2.27282 10.64398,-0.92145c0.9544,0.39246 1.55861,1.35999 2.40965,1.94366c2.34901,3.64627 2.03513,9.01277 2.03513,13.30508c0,7.26243 0.33663,14.57485 0.33663,21.88101c0,4.49239 -0.33663,8.95027 -0.33663,13.46525c0,0.51511 -0.40626,3.74708 -0.10321,4.12014c0.44472,0.54744 3.68749,-0.77788 4.276,-0.89408c3.6597,-0.72258 8.07125,-0.70088 11.79369,-0.72482c3.11519,0.02338 6.17059,-1.36384 9.30725,-1.67731c4.54744,-0.45445 9.22603,0.43641 13.77346,0.00317c0.58952,-0.05616 3.25859,-0.99388 3.32064,-1.00338c2.80995,-0.43005 6.09411,-0.35214 8.9449,-0.35214c0.31454,0.08484 0.63638,0.36285 0.94362,0.2545c0.76151,-0.26852 -0.13041,-1.61167 -0.12553,-2.41913c0.0151,-2.50143 0.67327,-4.49878 0.67327,-7.11624c0,-3.83658 -1.02637,-7.46925 -1.34068,-11.28006c-0.22243,-2.69672 0.22449,-5.60565 -0.31033,-8.2581c-0.46522,-2.30727 -1.03399,-4.52754 -1.04204,-7.0087c0,-4.3762 0,-8.75242 0,-13.12862c0,-0.72511 -0.05862,-3.68696 0.25451,-4.10586c1.00774,-1.34812 3.86131,-0.66893 5.22427,-0.7947c4.70735,-0.43435 9.61324,-0.67386 14.32282,-0.00107c1.39174,0.00285 1.87261,-0.08653 3.33448,0.39865c4.73524,1.57155 4.18428,6.09782 4.51233,10.15102c0.55369,6.8409 0.33896,13.73886 0.33896,20.60917c0,5.70576 -0.26964,11.55538 -0.67629,17.25337c-0.51245,7.1807 0.33966,14.57251 0.33966,21.79582c0,11.55766 0,23.11533 0,34.673c0,2.88126 0.69144,5.59781 -1.83225,7.69773c-3.10015,2.57959 -7.39615,1.71303 -10.83077,2.88603c-5.93962,2.02851 -12.37673,3.07329 -18.83549,3.07329c-3.22515,-0.01058 -6.46205,0.39393 -9.53504,0.9882c-2.19945,0.42535 -4.61865,-0.23672 -6.84147,0.01584c-6.12602,0.69605 -12.44597,0.34248 -18.63312,0.34248c-6.19324,0 -12.30602,0.33663 -18.51471,0.33663c-2.64529,0 -4.70475,-0.14199 -7.26174,-0.68878c-0.56252,-0.12028 -1.21628,0.14916 -1.72107,-0.12668c-2.70488,-1.47813 -2.64375,-6.22451 -2.65446,-8.80202c0.0206,-3.51507 -0.42975,-7.19547 -1.29496,-10.42397c-0.65133,-2.43041 0.18428,-5.48003 -0.04572,-7.97234c-0.46056,-4.99078 -1.01574,-9.88342 -1.01574,-14.93017c0,-4.6264 0.95801,-10.41035 0.02168,-14.92114c-0.21522,-1.03688 -0.59018,-2.059 -0.67285,-3.11058zM273.12808,171.18949c0.06711,0.25243 0.12986,0.50536 0.17904,0.75966c0.9156,4.73455 0.02168,10.54349 0.02168,15.37564c0,4.96834 0.56364,9.77949 1.00403,14.69335c0.19651,2.19262 -0.69468,5.4164 -0.04571,7.51269c1.06139,3.42843 1.37977,7.39893 1.39808,11.12044c-0.0061,1.2702 -0.14448,6.08703 1.38512,6.683c2.1872,0.8522 5.42867,0.53106 7.84874,0.53106c6.20894,0 12.32032,-0.33663 18.51471,-0.33663c6.11289,0 12.3428,0.32777 18.39629,-0.33078c2.13105,-0.23184 4.53541,0.44932 6.62378,0.01583c3.20865,-0.66603 6.62868,-1.02206 9.98954,-1.03157c7.35702,0 14.00537,-1.94372 20.96305,-3.34113c2.14719,-0.43125 7.2825,-0.70211 8.19979,-3.26082c0.3929,-1.09598 -0.06774,-3.4716 -0.06774,-4.6517c0,-11.55766 0,-23.11533 0,-34.673c0,-7.28291 -0.84131,-14.72403 -0.33361,-21.9662c0.39572,-5.64479 0.67024,-11.43186 0.67024,-17.08299c0,-6.82212 0.20166,-13.66646 -0.3343,-20.45982c-0.36531,-4.63043 0.13002,-8.31403 -5.61844,-8.30166c-4.59744,-0.65677 -9.35933,-0.41284 -13.95419,-0.00107c-0.99003,0.08872 -1.99054,0.06638 -2.98197,-0.00492c-0.18568,-0.01336 -0.48426,-0.29209 -0.54617,-0.11653c-0.26645,0.75561 0.25451,3.39115 0.25451,4.30993c0,3.81516 0,7.6303 0,11.44546c-0.00862,2.30782 0.55458,4.32476 0.97776,6.45652c0.55203,2.78081 0.12575,5.75834 0.36292,8.57345c0.39848,4.72988 1.3877,9.12676 1.35238,13.92029c-0.0083,1.1267 -0.44991,2.2084 -0.70541,3.30578c-0.27012,1.16022 0.24005,2.40233 0.02314,3.57367c-0.13884,0.74977 -0.17904,1.69034 -0.78978,2.14688c-0.65038,0.48617 -1.61514,0.16968 -2.4227,0.25451c-2.73427,0 -5.87113,-0.09505 -8.55991,0.32112c-1.17275,0.18152 -2.23161,0.8938 -3.41197,1.0164c-4.56321,0.47398 -9.2675,-0.45345 -13.83029,0.00315c-3.24051,0.3243 -6.30712,1.66949 -9.54407,1.68901c-3.43809,-0.02773 -7.71754,-0.04419 -11.09722,0.6217c-1.35217,0.26642 -5.06772,1.82508 -6.49619,0.45245c-1.25542,-1.20633 -0.77647,-4.4229 -0.77647,-5.9788c0,-4.514 0.33663,-8.97482 0.33663,-13.46525c0,-7.76307 -0.33663,-15.50202 -0.33663,-23.22754c0,-2.85522 0.34706,-7.97075 -1.33119,-10.25908c-0.60633,-0.39041 -0.97539,-1.11992 -1.62992,-1.42266c-0.77797,-0.35983 -1.71266,0.09148 -2.5698,0.09148c-2.97718,0 -5.32834,0.71274 -8.31667,1.0058c-0.65552,0.06429 -4.79663,0.60286 -5.09896,1.38922c-0.25419,0.66118 0.14219,2.65474 0.14219,3.42556c0,3.49419 0,6.98836 0,10.48254c0,6.65613 -0.96843,14.12967 -0.01147,20.70321c0.31501,2.16387 0.79826,4.24322 1.01552,6.44549c0.18854,1.91118 -0.12554,4.48589 0.07832,6.76119c0.18658,0.25619 0.24083,0.52743 0.24083,0.52743l0.35411,1.80041c-0.00101,0.10072 0.00186,0.20107 0.00807,0.30108c0.13076,0.29731 0.28576,0.5766 0.46922,0.8339c0,0 0.48899,0.73348 0.00111,1.36283z" fill="#000000"/><path d="M273.07891,169.8265c-0.18346,-0.2573 -0.33845,-0.53745 -0.46921,-0.83477c-0.00621,-0.10003 -0.00907,-0.20067 -0.00805,-0.30139l-0.35404,-1.80225c0,0 -0.05421,-0.27176 -0.24079,-0.52795c-0.20386,-2.2753 0.1112,-4.85665 -0.07733,-6.76783c-0.21726,-2.20228 -0.69896,-4.28711 -1.01397,-6.45099c-0.95695,-6.57354 0.01892,-14.06076 0.01892,-20.71689c0,-3.49419 0.00387,-6.99276 0.00387,-10.48695c0,-0.77082 -0.39525,-2.76548 -0.14106,-3.42666c0.30232,-0.78636 4.44592,-1.32709 5.10144,-1.39137c2.98833,-0.29305 5.34376,-1.00894 8.32094,-1.00894c0.85715,0 1.79328,-0.45218 2.57123,-0.09237c0.65453,0.30274 1.07265,1.11491 1.67899,1.50531c1.67825,2.28833 1.33437,7.40185 1.33437,10.25706c0,7.72551 0.34939,15.45134 0.34939,23.2144c0,4.49042 -0.32964,8.93384 -0.32964,13.44785c0,1.5559 -0.47812,4.76285 0.7773,5.96917c1.42847,1.37262 5.04788,-0.18536 6.40005,-0.45178c3.37968,-0.66588 7.65919,-0.65218 11.0973,-0.62443c3.23696,-0.01952 6.32513,-1.40208 9.56564,-1.72638c4.56278,-0.4566 9.34072,0.50202 13.90394,0.02803c1.18036,-0.1226 2.23901,-0.83595 3.41175,-1.01746c2.68878,-0.41616 5.82617,-0.31828 8.56044,-0.31828c0.80757,-0.08484 1.67723,0.24585 2.32761,-0.24032c0.61074,-0.45654 0.65156,-1.39374 0.79041,-2.14351c0.21691,-1.17135 -0.29168,-2.40789 -0.02155,-3.56811c0.2555,-1.09737 0.69879,-2.17492 0.70709,-3.30163c0.03532,-4.79353 -0.94417,-9.17646 -1.34265,-13.90634c-0.23717,-2.81511 0.19429,-5.78815 -0.35773,-8.56897c-0.42318,-2.13175 -0.98259,-4.14616 -0.97396,-6.45397c0,-3.81516 0.00425,-7.628 0.00425,-11.44316c0,-0.91877 -0.51951,-3.55366 -0.25306,-4.30927c0.06191,-0.17555 0.39939,0.01526 0.58506,0.02861c0.99143,0.07129 1.99378,0.0945 2.9838,0.00578c4.59486,-0.41178 9.36394,-0.6513 13.96136,0.00547c5.74844,-0.01237 5.25813,3.67553 5.62345,8.30596c0.53596,6.79336 0.34201,13.64754 0.34201,20.46966c0,5.65114 -0.2692,11.45129 -0.66492,17.09609c-0.5077,7.24217 0.33392,14.70466 0.33392,21.98758c0,11.55766 -0.01183,23.13807 -0.01183,34.69574c0,1.18008 0.45902,3.55739 0.06611,4.65336c-0.91729,2.5587 -6.05707,2.83342 -8.20425,3.26467c-6.95768,1.39741 -13.61957,3.34835 -20.9766,3.34835c-3.36086,0.00951 -6.7888,0.36753 -9.99745,1.03355c-2.08839,0.43348 -4.4982,-0.24711 -6.62925,-0.01526c-6.05349,0.65856 -12.2983,0.32911 -18.41119,0.32911c-6.19439,0 -12.31756,0.33163 -18.5265,0.33163c-2.42007,0 -5.6655,0.31851 -7.8527,-0.53369c-1.5296,-0.59597 -1.39407,-5.41508 -1.38797,-6.68528c-0.01831,-3.72151 -0.34146,-7.6967 -1.40284,-11.12513c-0.64897,-2.0963 0.23919,-5.32391 0.04268,-7.51652c-0.44039,-4.91385 -1.00989,-9.73594 -1.00989,-14.70428c0,-4.83217 0.89085,-10.65602 -0.02474,-15.39057c-0.04918,-0.2543 -0.11194,-0.50803 -0.17905,-0.76046c0.48787,-0.62935 -0.00113,-1.36424 -0.00113,-1.36424z" fill="#ffffff"/></g><g><path d="M316.90066,160.87673c0.58966,10.94869 -7.60381,20.38455 -18.30065,21.07555c-10.69684,0.69101 -19.84636,-7.62451 -20.43603,-18.5732c-0.23085,-4.28615 -1.24423,-7.5818 2.29921,-9.09808c5.50804,-2.35695 17.08901,-1.90213 17.08901,-1.90213c0,0 11.01829,-1.93937 16.79461,-0.16262c3.52865,1.08539 2.33025,4.50849 2.55386,8.66047z" fill="#000000" stroke="none" stroke-width="0" stroke-linecap="butt"/><path d="M308.02017,156.96293l-0.23251,-4.31698l25.86776,-1.67103l0.23251,4.31699z" fill="#000000" stroke="none" stroke-width="0" stroke-linecap="butt"/><path d="M365.92622,157.70971c0.58966,10.94869 -7.60381,20.38454 -18.30065,21.07555c-10.69684,0.69101 -19.84636,-7.62451 -20.43603,-18.5732c-0.23085,-4.28615 -1.24423,-7.58178 2.29921,-9.09806c5.50804,-2.35696 17.08901,-1.90213 17.08901,-1.90213c0,0 11.01828,-1.93937 16.79461,-0.16262c3.52865,1.08539 2.33025,4.50849 2.55386,8.66047z" fill="#000000" stroke="none" stroke-width="0" stroke-linecap="butt"/><path d="M286.95503,158.34422l-4.238,4.32133" fill="none" stroke="#ffffff" stroke-width="1.5" stroke-linecap="round"/><path d="M281.69405,160.10476l1.46138,-1.60049" fill="none" stroke="#ffffff" stroke-width="1.5" stroke-linecap="round"/><path d="M284.9091,164.58615l5.11482,-4.48138" fill="none" stroke="#ffffff" stroke-width="1.5" stroke-linecap="round"/><path d="M292.65441,161.86531l-4.82256,5.28162" fill="none" stroke="#ffffff" stroke-width="1.5" stroke-linecap="round"/><path d="M291.9237,168.26727l3.21505,-3.52107" fill="none" stroke="#ffffff" stroke-width="1.5" stroke-linecap="round"/><path d="M297.33082,167.78713l-2.04594,2.08065" fill="none" stroke="#ffffff" stroke-width="1.5" stroke-linecap="round"/><path d="M299.5229,169.86778l-0.87683,1.12035" fill="none" stroke="#ffffff" stroke-width="1.5" stroke-linecap="round"/><path d="M306.82979,172.74866l-1.60752,2.24069" fill="none" stroke="#ffffff" stroke-width="1.5" stroke-linecap="round"/><path d="M309.168,173.54892l-2.19206,3.04093" fill="none" stroke="#ffffff" stroke-width="1.5" stroke-linecap="round"/><path d="M329.62731,157.70402l2.63048,-2.72084" fill="none" stroke="#ffffff" stroke-width="1.5" stroke-linecap="round"/><path d="M335.18054,157.54398l-3.36116,2.72084" fill="none" stroke="#ffffff" stroke-width="1.5" stroke-linecap="round"/><path d="M335.91124,160.58491l-1.60752,1.6005" fill="none" stroke="#ffffff" stroke-width="1.5" stroke-linecap="round"/><path d="M338.1033,161.38516l-2.19206,2.88089" fill="none" stroke="#ffffff" stroke-width="1.5" stroke-linecap="round"/><path d="M340.87993,163.30575l-1.46138,2.08064" fill="none" stroke="#ffffff" stroke-width="1.5" stroke-linecap="round"/><path d="M346.72544,165.54644l-3.21503,3.20099" fill="none" stroke="#ffffff" stroke-width="1.5" stroke-linecap="round"/><path d="M343.072,164.7462l-2.77663,3.36104" fill="none" stroke="#ffffff" stroke-width="1.5" stroke-linecap="round"/><path d="M355.63986,169.86778l-1.1691,2.08064" fill="none" stroke="#ffffff" stroke-width="1.5" stroke-linecap="round"/><path d="M356.51669,173.38887l1.8998,-2.72084" fill="none" stroke="#ffffff" stroke-width="1.5" stroke-linecap="round"/></g><path d="M307.86155,182.46453c1.37745,0.68872 0.68873,2.06618 0.68873,2.06618l-0.85071,1.63927c-1.78528,1.63016 -4.32133,3.47215 -6.96606,4.47963c1.30606,0.39956 2.42256,1.78757 2.22817,3.30921c-0.15334,1.20033 -1.30306,1.74339 -2.60647,1.79931c-0.96986,0.20899 -2.00012,0.08074 -2.59184,-0.50103c-1.53586,-0.71516 -2.29935,-2.12219 -0.15489,-3.79c0.02548,-0.03044 0.05197,-0.05917 0.07926,-0.08629c-1.7821,0.14632 -3.50157,-0.27253 -4.95955,-1.5806c0,0 -1.08897,-1.08897 0,-2.17795c1.08897,-1.08897 2.17794,0 2.17794,0c2.14991,2.73104 8.38062,-1.64641 10.34871,-3.32584l0.54051,-1.14316c0,0 0.68873,-1.37745 2.06618,-0.68872z" fill="#000000" stroke="none" stroke-width="0.5" stroke-linecap="butt"/><path d="M345.22338,190.9502l0.19657,-0.29564c3.49814,0.64963 5.4893,3.97488 1.04397,5.92083c-3.03513,1.32864 -6.66228,-1.1662 -4.20853,-4.64035c0.43926,-0.62193 1.39534,-0.60988 2.09301,-0.91484c0,0 0.41123,-0.14954 0.87498,-0.07z" fill="#000000" stroke="none" stroke-width="0.5" stroke-linecap="butt"/><path d="M286.20934,192.08642c1.49406,-0.37352 1.86758,1.12055 1.86758,1.12055l0.30328,1.73967c-0.27726,1.66336 -0.26786,4.53329 -1.43076,5.85796c-1.35526,1.54379 -3.8097,2.15196 -5.47584,0.40147c-1.08011,-1.13478 -0.20501,-5.0367 0.14545,-6.36134c0,0 0.40522,-1.48577 1.891,-1.08057c1.48577,0.4052 1.08056,1.89099 1.08056,1.89099c-0.12557,0.44318 -0.32014,0.8724 -0.37672,1.32954c-0.64918,5.24518 0.83595,-0.79111 1.12814,-2.54442l-0.25322,-0.48627c0,0 -0.37352,-1.49406 1.12055,-1.86758z" fill="#000000" stroke="none" stroke-width="0.5" stroke-linecap="butt"/><path d="M280.14892,181.77003c-0.39801,2.61471 -0.38855,3.67089 0.32773,-0.29035l-0.13419,0.64304c0,0 -0.10237,-0.13648 -0.19353,-0.35268zM280.31398,180.28571c0.08812,-0.10878 0.19884,-0.21584 0.33648,-0.31906c1.23204,-0.92403 2.15606,0.30801 2.15606,0.30801l0.70054,1.75601c-0.4747,2.5978 -2.15808,8.04008 -6.08221,4.56975c-1.76798,-1.56354 -0.45168,-4.54331 -0.15187,-6.35053c0,0 0.25318,-1.51909 1.77227,-1.2659c0.96542,0.1609 1.21503,0.8331 1.26874,1.30173z" fill="#000000" stroke="none" stroke-width="0.5" stroke-linecap="butt"/><path d="M299.54134,200.2821c-0.30203,-1.51014 1.20811,-1.81218 1.20811,-1.81218l-0.32294,0.57867c1.00452,-1.67398 1.9607,-3.3663 2.88617,-5.08527c0,0 0.73013,-1.35597 2.08609,-0.62582c1.35597,0.73013 0.62584,2.08609 0.62584,2.08609c-0.94829,1.76084 -1.92807,3.49473 -2.95695,5.20971l-1.71416,0.85692c0,0 -1.51013,0.30203 -1.81216,-1.20811z" fill="#000000" stroke="none" stroke-width="0.5" stroke-linecap="butt"/><path d="M293.20114,224.21752c-0.77603,0.15678 -1.55822,0.30103 -2.35034,0.42425c0,0 -1.047,0.16219 -1.58587,-0.31258c-0.82689,0.05999 -1.6571,0.14556 -2.49194,0.26161c-0.29263,0.1339 -1.1358,0.43565 -1.97895,-0.05415c-1.04347,-0.60615 0,-1.21232 0,-1.21232l0.887,-0.3425c2.35233,-0.33292 4.65032,-0.45666 6.93186,-0.45343c2.99808,-0.61146 5.90283,-1.40349 8.94843,-1.88184c11.18782,-1.75719 22.64638,-2.48805 34.23293,-2.48805c6.16717,0 10.63488,0.1803 15.60685,2.40205c0.73771,0.32964 3.62993,1.33576 3.17279,1.98847c-0.67965,0.9704 -5.06015,1.5011 -6.62561,1.69896c-7.97938,1.00852 -16.02065,1.35883 -24.17012,1.35885c-6.33503,0 -12.72981,-0.08047 -19.01889,-0.59422c-3.91144,-0.31952 -7.72046,-0.75221 -11.55813,-0.79511zM299.44996,222.83705c1.89117,0.14472 3.79704,0.32002 5.73908,0.47939c6.14548,0.50429 12.39863,0.57595 18.58912,0.57595c6.94681,0.00001 13.84296,-0.21586 20.66403,-1.01325c1.17459,-0.13731 3.68106,-0.69747 5.55133,-0.7657c-0.13053,-0.06769 -0.26069,-0.13533 -0.39611,-0.19583c-1.05926,-0.47334 -1.32827,-0.7108 -2.47803,-1.1143c-3.32485,-1.16684 -7.60919,-0.93032 -11.32515,-0.93032c-11.33148,0 -22.50521,0.72265 -33.45042,2.42669c-0.97575,0.15192 -1.93798,0.33647 -2.89387,0.53737z" fill="#000000" stroke="none" stroke-width="0.5" stroke-linecap="butt"/></g></g></svg>