<svg version="1.1" xmlns="http://www.w3.org/2000/svg" xmlns:xlink="http://www.w3.org/1999/xlink" width="230.96469" height="224.60227" viewBox="0,0,230.96469,224.60227"><g transform="translate(-127.20804,-103.08831)"><g stroke-miterlimit="10"><g stroke="none" stroke-width="0.5" stroke-linecap="butt"><path d="M237.34823,207.05188c-5.05374,0.50589 -10.1517,3.42783 -14.92807,5.16475c-1.87669,0.68245 -4.62462,0.64362 -6.09519,2.20956c-6.86915,1.78411 -8.93544,9.78746 -10.23353,17.37852c-0.2182,1.27605 -0.78267,2.4463 -1.05239,3.70974c-0.65914,3.08782 -0.61438,6.65946 -0.91025,9.81786c-0.65231,6.96358 -0.5637,13.59183 -0.30131,20.52086c0.17069,4.50755 -0.89172,9.62018 -1.31539,14.1429c-0.62591,6.68167 -1.01383,13.30925 -1.63941,19.98747c-0.3783,4.03844 -1.20896,8.42737 -0.9384,12.45324c-0.185,2.04201 -0.3013,3.983 -0.33019,6.01137c-0.0069,0.48377 -0.57129,2.79047 -0.14886,3.24501c0.94523,1.01708 2.96192,0.82186 4.14238,0.93244c4.01971,0.37655 6.30017,0.02212 7.68433,-5.38536c0.60992,-6.72513 1.30053,-13.36992 0.95335,-20.00292c-0.10984,-2.09856 0.00193,-4.42003 0.36124,-6.51379c0.12999,-0.75744 0.00712,-1.74479 0.49653,-2.24559c0.72563,-0.7425 3.49777,-0.02586 4.41197,0.05978c2.23753,0.27189 4.81188,-0.17029 7.1689,-0.1886c6.52813,-0.05069 13.20273,1.23373 19.6948,1.84188c3.25079,0.30452 6.42506,0.88959 9.67079,1.19364c0.8588,0.08045 3.4784,-0.06342 4.05203,0.65315c0.39954,0.49907 0.4366,3.70995 0.41449,4.33941c-0.14364,4.08867 -0.77225,8.27019 -1.1544,12.34976c-0.38038,4.06068 -0.84786,8.11796 -0.91168,12.16802c-0.00966,0.61299 -0.20473,3.04757 -0.03589,3.43804c0.16562,0.38307 3.27792,0.38128 3.36345,0.3893c3.36615,0.31532 6.93991,1.14867 10.30409,0.10239c5.4681,-9.9525 4.81825,-22.36852 5.83538,-33.63741c1.16205,-12.40516 0.66617,-24.38832 0.41287,-36.70508c0.23275,-2.13009 -0.39179,-4.13737 -0.3362,-6.34753c0.23366,-9.29008 -1.26689,-17.74476 -1.89936,-26.79958c-0.21474,-3.85834 -2.95256,-4.99021 -5.49307,-6.21211c-4.82361,-2.32 -10.40192,-5.22031 -15.64406,-5.74693c-4.14823,-2.18085 -9.76987,-1.7628 -14.31239,-2.18832l-1.15448,-0.10815c0,0 -0.05271,-0.00494 -0.13212,-0.0277zM240.85592,204.93646c4.21497,0.22866 8.97293,0.18776 12.62284,2.10662c2.35349,0.20295 4.38468,0.97988 6.48598,2.09596c5.24089,2.78364 15.37958,2.90475 16.06305,11.90469c0.58624,9.14049 2.15848,17.68732 1.90491,27.0744c-0.06099,2.25786 0.51591,4.15254 0.33532,6.37543c0.28445,12.36513 0.74268,24.42188 -0.42388,36.87516c-0.13566,1.38953 0.05044,2.7828 0.06745,4.17479c0.05597,4.58331 -0.71757,10.37467 -1.85581,14.63739c-0.32729,1.22574 -0.14213,2.55692 -0.33493,3.81907c-0.73375,4.80334 -2.06577,8.89202 -4.56386,12.76417c-3.81479,1.6043 -7.73352,0.71455 -11.61356,0.35109c-1.45441,-0.13624 -3.84087,0.10535 -4.84181,-1.53025c-0.32762,-0.53534 -0.2187,-3.88713 -0.21135,-4.6348c0.04056,-4.12771 0.53687,-8.26845 0.92433,-12.40469c0.32062,-3.42272 0.63896,-6.84566 0.96187,-10.26815c0.04322,-0.45805 0.49998,-4.27876 0.31369,-4.50407c-0.01604,-0.01939 -2.63788,0.02647 -2.87474,0.00428c-3.24647,-0.30411 -6.41998,-0.88912 -9.67079,-1.19364c-6.44142,-0.6034 -13.07992,-1.90411 -19.55693,-1.83503c-2.45577,0.02619 -4.94172,0.35589 -7.30677,0.18176c-0.8466,-0.07931 -1.71774,-0.00142 -2.53981,-0.23792c-0.17758,-0.05108 -0.29249,-0.54206 -0.43676,-0.39442c-0.43357,0.44365 0.15934,1.35395 0.09574,2.03281c-0.14928,1.59362 -0.30396,3.0567 -0.21899,4.65328c0.36407,6.83995 -0.32611,13.73977 -0.99353,20.67222c-0.73529,2.80725 -2.31396,6.64674 -4.84912,7.47395c-1.5866,0.51769 -3.37761,0.03667 -4.96495,-0.11202c-1.67122,-0.15655 -4.17969,-0.02973 -5.39479,-1.68733c-1.46701,-2.00126 -0.24005,-8.31206 0.00587,-10.83923c-0.27565,-4.10153 0.56565,-8.5757 0.95105,-12.68991c0.62555,-6.67791 1.0135,-13.30562 1.63942,-19.98747c0.41109,-4.38847 1.49554,-9.44387 1.30302,-13.80925c-0.30978,-7.02465 -0.3481,-13.79003 0.31367,-20.85451c1.0259,-10.95168 2.3323,-30.21775 13.3441,-32.87908c1.65405,-1.63382 4.4259,-1.6293 6.44561,-2.37025c5.8555,-2.14814 12.11949,-5.84016 18.28964,-5.26217c0,0 0.3321,0.03111 0.58487,0.29711z" fill="#000000"/><path d="M237.47811,207.0318l1.15539,0.10804c4.54251,0.42552 10.17582,0.0086 14.32405,2.18945c5.24213,0.52663 10.83238,3.43322 15.65597,5.75322c2.5405,1.2219 5.28296,2.35821 5.49771,6.21654c0.63247,9.0548 2.14255,17.52666 1.90889,26.81675c-0.05559,2.21016 0.57049,4.22354 0.33774,6.35362c0.2533,12.31676 0.74466,24.33577 -0.4174,36.74093c-1.01712,11.26889 -0.38031,23.70174 -5.84839,33.65424c-3.36421,1.04627 -6.94369,0.21677 -10.30986,-0.09856c-0.08554,-0.00801 -3.19996,-0.00513 -3.36558,-0.3882c-0.16884,-0.39047 0.00047,-2.91434 0.01014,-3.52733c0.06382,-4.05006 0.5274,-8.10512 0.90778,-12.16581c0.38215,-4.07957 1.00489,-8.25644 1.14852,-12.3451c0.02211,-0.62946 0.03302,-3.7671 -0.36651,-4.26619c-0.57363,-0.71654 -3.1966,-0.56945 -4.0554,-0.6499c-3.24572,-0.30404 -6.4335,-0.88147 -9.6843,-1.18599c-6.49208,-0.60815 -13.20109,-1.90244 -19.72921,-1.85175c-2.35701,0.0183 -4.93634,0.45395 -7.17386,0.18208c-0.91421,-0.08564 -3.68825,-0.80569 -4.41389,-0.06319c-0.48941,0.5008 -0.30088,1.43318 -0.43087,2.19063c-0.35932,2.09375 -0.47377,4.411 -0.36393,6.50956c0.34717,6.633 -0.3503,13.27032 -0.96022,19.99546c-1.38418,5.40748 -3.71246,5.83994 -7.73218,5.46339c-1.18046,-0.11058 -3.19902,0.08271 -4.14423,-0.93438c-0.42243,-0.45454 0.14115,-2.7622 0.14804,-3.24596c0.0289,-2.02837 0.14359,-3.97139 0.32859,-6.01339c-0.27056,-4.02587 0.5566,-8.42028 0.9349,-12.45873c0.62558,-6.67822 1.00837,-13.32009 1.63427,-20.00176c0.42367,-4.52274 1.48499,-9.64959 1.3143,-14.15714c-0.2624,-6.92903 -0.34669,-13.57684 0.30562,-20.54042c0.29586,-3.15839 0.25463,-6.73708 0.91378,-9.8249c0.2697,-1.26346 0.83581,-2.43626 1.05401,-3.71231c1.29809,-7.59106 3.37498,-15.60546 10.24414,-17.3896c1.47057,-1.56594 4.22296,-1.52992 6.09965,-2.21237c4.77638,-1.73691 9.88638,-4.66273 14.94012,-5.16863c0.07941,0.02276 0.13222,0.02768 0.13222,0.02768z" fill="#ffffff"/></g><path d="M245.17598,229.07748c0.09095,0.7147 0.05232,1.54234 -0.0451,2.40042c0.42181,-1.18311 1.71322,-1.72115 2.63211,-2.28782c0,0 1.2223,-0.69232 1.7519,0.58996c0.08335,0.20179 0.12329,0.38898 0.13145,0.56116c0.07704,-0.10921 0.16465,-0.1988 0.25611,-0.2723c-0.36163,-0.96754 -0.22774,-2.17623 0.64669,-3.19458c0.55181,-0.64266 1.54542,-0.18725 2.31975,-0.27686c0.5521,-0.11084 1.00587,-0.11948 1.37179,-0.04888c-0.00229,-0.05021 -0.00218,-0.10127 0.00041,-0.15304c0.04028,-0.8044 0.66845,-1.477 1.40304,-1.50227l0.24323,-0.00837c-0.07292,-0.44551 -0.05497,-0.90018 0.0905,-1.31736c0.24574,-0.7047 1.08331,-0.82179 1.81953,-1.0395c0.53275,-0.49914 1.12003,-0.85897 1.68556,-0.96212c0.86705,-1.04943 2.19587,-1.88892 3.27784,-2.26739c-0.19077,-1.175 0.68421,-2.18996 2.00514,-3.11772c0.39781,-0.27941 1.06036,-0.4035 1.72614,-0.46241c0.32607,-0.11771 0.66441,-0.14214 0.9938,-0.05142c0.02326,-0.0006 0.04633,-0.00119 0.0692,-0.00175c0.24247,-0.42811 0.71169,-0.75037 1.27528,-0.98496l0.1494,-0.1065c0.63615,-0.29523 1.26923,-1.0507 1.90847,-0.8857c0.39107,0.10094 0.8289,0.25664 1.22202,0.47684c0.09405,0.00605 0.18159,0.01441 0.26145,0.0249c0,0 1.3,0.1943 1.00938,1.63851c-0.04959,0.24646 -0.12858,0.44522 -0.22549,0.60535c-0.51508,1.37621 -2.52304,2.75319 -3.85125,2.48016c-0.13739,1.57767 -1.61468,2.583 -3.07318,2.79397c0.40869,2.45922 -2.61712,4.87301 -4.9521,4.79769c0.04387,0.1002 0.07399,0.20957 0.08747,0.33011c0.26131,2.3367 -4.04711,4.62606 -5.89376,3.68652c-0.13945,0.19806 -0.27222,0.31385 -0.27222,0.31385l-1.37368,0.89496c-0.04667,0.0006 -0.09404,0.00312 -0.14198,0.00718c-0.19295,0.3863 -0.52873,0.68273 -0.92059,0.79641c-0.08596,0.13428 -0.20074,0.26881 -0.35139,0.4002c-0.86269,0.75241 -1.52894,0.20416 -1.76517,-0.05126c-0.05353,0.53838 -0.28969,1.0979 -0.76848,1.63391c0.36929,0.24276 0.60121,0.69514 0.57484,1.22153c-0.04028,0.8044 -0.66845,1.47701 -1.40304,1.50228l-1.34357,0.04622c-0.99992,0.03099 -1.99264,-0.10379 -2.98769,-0.20165c0.01893,1.05294 -0.00404,2.11257 -0.05315,3.17452c0.94846,0.22038 1.8053,0.54946 2.85991,0.86125c1.19669,0.35379 2.49858,0.76291 3.3082,1.75439c1.77993,2.17973 1.25642,6.85792 -0.49003,9.35173c-1.30652,1.86562 -3.99287,3.36222 -6.27464,4.14777c-0.12201,1.3817 -0.30974,2.75992 -0.587,4.1284l-0.07583,1.51431c-0.04028,0.8044 -0.66845,1.477 -1.40304,1.50227c-0.60896,0.02097 -1.09991,-0.40952 -1.22706,-1.01563l-0.39422,-1.69077l0.04488,-0.01639c-0.02747,-0.06373 -0.05362,-0.12831 -0.07832,-0.19385c-0.29198,-0.77476 -0.1593,-1.67098 -0.00813,-2.56707l0.04281,-0.85484l0.02528,-0.00087c-0.0081,-0.01401 -0.01556,-0.02886 -0.02235,-0.0446c-0.00917,-0.02123 -0.01759,-0.04266 -0.02526,-0.06428c-0.9173,0.03682 -1.83658,-0.00575 -2.70199,-0.08891c-0.05887,-0.00566 -0.11965,-0.00791 -0.18162,-0.00813c-0.462,0.02951 -0.93116,0.04961 -1.40825,0.06257l-0.13613,-0.10785l-0.02232,0.0808l-1.41901,-0.34437c-0.58494,-0.12682 -0.99806,-0.69167 -0.96336,-1.38482c0.04028,-0.8044 0.66845,-1.47699 1.40304,-1.50227c0.03927,-0.00134 0.07807,-0.00082 0.1163,0.0015l1.56669,0.07839l-0.0021,0.01746c0.02006,-0.0045 0.04016,-0.00887 0.06027,-0.01313c0.61405,-0.13001 1.21656,0.01085 1.82218,0.13793c0.67244,-0.06746 1.32392,-0.16006 1.95965,-0.29031c-0.73472,-0.31893 -0.68484,-1.31478 -0.68484,-1.31478l0.03349,-0.66876c0.11144,-2.22562 0.37063,-4.44791 0.68682,-6.66947c-1.43825,0.02283 -2.82274,-0.14011 -3.75064,-1.50882c-0.45715,-0.67433 -0.81769,-1.52239 -0.79596,-2.39754c0.01195,-0.48109 0.23329,-0.93415 0.48663,-1.37358c0.15199,-1.66529 1.33502,-3.40107 2.68866,-4.44931c-0.23695,-0.20991 -0.44578,-0.45909 -0.61539,-0.73722c-0.13423,0.18685 -0.29017,0.35135 -0.47745,0.48355c-1.46775,1.03612 -2.9344,0.06365 -3.69558,-1.36337c-0.80165,-0.58597 -1.49085,-1.39118 -1.54135,-1.99031c-0.03326,-0.39461 -0.03311,-0.73751 -0.00375,-1.03748c-0.23882,0.01232 -0.4845,0.03544 -0.71534,0.03523c-0.64353,0.16808 -1.35702,-0.04948 -1.97713,-0.23562c-2.09408,-0.62859 -2.55715,-2.16595 -1.99714,-3.88343c-1.12371,1.01842 -2.9402,1.40375 -3.95148,0.53766c-1.0127,-0.86727 -1.25215,-1.93554 -1.01873,-2.95138c-0.21206,0.06797 -0.37208,0.07347 -0.37208,0.07347l-0.10333,-0.03549c-1.16911,0.50419 -3.52463,-0.9551 -3.89031,-1.91895c-0.23413,-0.61712 -0.35305,-1.10485 -0.37798,-1.50765c-0.32505,0.01486 -0.65267,-0.00029 -0.974,-0.04388c-0.42648,-0.00344 -0.84415,-0.10383 -1.22417,-0.3198c-1.7875,-0.71921 -2.88791,-2.44848 -1.21534,-4.82793c0.33161,-0.47176 0.80393,-0.83865 1.31146,-1.09054c0.43528,-0.42943 0.84601,-0.9264 1.38504,-1.07032c0.14893,-0.03976 0.30789,-0.07057 0.47313,-0.09147c0.43053,-0.32127 0.83334,-0.5891 1.15749,-0.78865c0,0 1.20569,-0.73083 1.77206,0.52988c0.23783,0.52941 0.16321,0.96536 -0.00343,1.29302c0.17042,0.25809 0.28437,0.56853 0.31994,0.93707c0.58902,0.55797 0.89694,1.37231 0.64253,2.57038c0.10039,0.08853 0.19704,0.2042 0.28672,0.35307c0.08866,0.14717 0.14814,0.28967 0.18439,0.42631c0.02139,0.00689 0.04295,0.01396 0.06465,0.0212c0.4021,0.13415 0.61244,0.47599 0.72814,0.92035l0.2815,-0.15944l0.26543,0.64268l0.05903,0.05038l-0.02456,0.03307l0.24382,0.59036l-0.06807,0.03854l0.28355,0.12293c-0.14085,0.3002 -0.24824,0.63272 -0.35058,0.97011c0.06571,0.11028 0.11764,0.24228 0.14825,0.40031c1.45375,-1.66347 3.9939,-2.44931 5.23965,-0.34897c0.01561,0.02629 0.03019,0.05362 0.04379,0.08187c0.29773,-0.59008 0.67636,-1.15325 1.07883,-1.66639c0,0 0.93818,-1.11901 1.88385,-0.18557c0.94566,0.93344 0.00748,2.05244 0.00748,2.05244c-0.06596,0.06983 -0.13708,0.13548 -0.2095,0.20008c0.58734,-0.05811 1.14902,0.02824 1.55285,0.39133c0.69493,0.62484 0.66158,1.76734 0.27029,2.82858c0.22915,0.04605 0.46222,0.17402 0.65048,0.45179c0.17327,0.13367 0.32723,0.34535 0.43134,0.67151c0.1506,0.4718 0.09046,0.84974 -0.05033,1.14124c0.03348,0.1019 0.05232,0.20544 0.06078,0.30647c0.23336,-0.09581 0.47449,-0.19552 0.71849,-0.30935c0,0 1.02292,-0.40123 1.49299,0.48351c0.68899,0.35674 1.08705,1.12786 1.20062,2.00838l0.35742,0.35281c0.76181,-0.82826 2.37468,-1.52304 3.55625,-1.20361c0.03327,-0.29616 0.07109,-0.51056 0.11427,-0.58678c0.00459,-0.07979 0.00891,-0.15967 0.01292,-0.23961l0.02269,-0.03875l0.00313,-0.02604l-0.01844,-0.0012l0.19384,-1.46065c0.09199,-0.75154 0.69433,-1.36101 1.39294,-1.38505c0.73458,-0.02527 1.29744,0.60634 1.25715,1.41074c-0.00214,0.04302 -0.00597,0.08563 -0.01142,0.12779l-0.20522,1.7096c-0.00011,0.00199 -0.00024,0.00402 -0.00035,0.006zM244.16734,246.82225c-0.00213,0.02502 -0.00428,0.05004 -0.00643,0.07503c0.07046,1.78636 0.122,3.5914 0.10113,5.40104c0.80978,-0.46566 1.61028,-1.05015 2.41474,-1.78536c1.32287,-1.20901 2.46203,-1.90558 1.93929,-3.75856c-1.01258,-1.54127 -2.26889,-1.20242 -3.90341,-1.36202c-0.14046,-0.01371 -0.27826,-0.0402 -0.41477,-0.07282c-0.04383,0.50207 -0.08791,1.00313 -0.13057,1.5027zM245.00857,232.64013c-0.00559,-0.05455 -0.00975,-0.10812 -0.01254,-0.16075c-0.00941,0.06184 -0.01897,0.12367 -0.02867,0.18547c0.013,-0.00803 0.02675,-0.0163 0.04121,-0.02472zM241.01975,239.94614l0.2403,0.1129c0.10246,-0.64912 0.20397,-1.29837 0.30229,-1.94777c-0.99753,0.52772 -1.76261,1.23078 -0.54259,1.83487zM262.67008,223.21765c0.05687,-0.02819 0.11297,-0.05832 0.16815,-0.09061c0.29423,-0.17218 1.11381,-0.79658 0.80691,-0.65898c-0.54939,0.24632 -1.12258,0.4145 -1.69501,0.55297l0.80864,-0.03755c0,0 -0.02668,0.09666 -0.08868,0.23416zM230.6283,227.69135c-0.07352,-0.05618 -0.14554,-0.11648 -0.21595,-0.17976c-0.01864,0.05862 -0.02155,0.09981 -0.00456,0.11857c0.05545,0.06122 0.13404,0.0692 0.2205,0.06119z" fill="#ffe04b" stroke="#000000" stroke-width="1.5" stroke-linecap="butt"/><g stroke="none" stroke-width="0.5" stroke-linecap="butt"><path d="M196.53852,157.41488c-0.63657,-3.01111 0.21828,-6.47275 0.1952,-9.4767c-0.01673,-2.17707 -0.3081,-4.26039 -0.40715,-6.40825c-0.31241,-6.77435 1.31661,-14.19112 1.94999,-20.95264c0.32589,-3.47896 0.65178,-6.95791 0.97767,-10.43685c0.10365,-1.1065 -0.02654,-3.6312 0.56683,-4.52647c1.51365,-2.2838 6.35753,-1.89405 8.59096,-1.85829c3.14668,0.05038 7.53755,-1.57669 10.68354,0.0753c0.91364,0.47977 1.42497,1.49943 2.21787,2.15993c1.9987,3.84946 1.18566,9.16329 0.78533,13.43689c-0.67734,7.23077 -1.02419,14.54272 -1.70561,21.81703c-0.41899,4.47282 -1.16992,8.87986 -1.59102,13.37516c-0.04804,0.51287 -0.75397,3.69285 -0.48703,4.09255c0.39172,0.58654 3.74397,-0.43057 4.34075,-0.49137c3.71114,-0.3781 8.10144,0.05495 11.80989,0.3783c3.09943,0.31382 6.27089,-0.78238 9.42312,-0.80194c4.57,-0.02834 9.14511,1.295 13.71313,1.28776c0.59219,-0.00092 3.33708,-0.68564 3.39976,-0.68931c2.83781,-0.16611 6.1004,0.21777 8.93875,0.48366c0.30526,0.11381 0.59976,0.42062 0.91576,0.3414c0.78323,-0.19633 0.02047,-1.61682 0.10064,-2.42029c0.24834,-2.48911 1.08992,-4.41638 1.33404,-7.02243c0.35783,-3.81986 -0.32526,-7.53241 -0.28278,-11.35592c0.03005,-2.7057 0.74633,-5.56028 0.46124,-8.25105c-0.248,-2.3406 -0.60721,-4.60425 -0.38383,-7.07535c0.40815,-4.35712 0.81631,-8.71426 1.22446,-13.07138c0.06763,-0.72196 0.28551,-3.67637 0.63635,-4.06422c1.12908,-1.24826 3.90687,-0.30588 5.27562,-0.30399c4.72734,0.00658 9.63419,0.22566 14.26049,1.33477c1.38542,0.13263 1.87252,0.0885 3.28275,0.70791c4.56803,2.00634 3.59731,6.4615 3.54591,10.52763c-0.08675,6.86272 -0.9439,13.71059 -1.58467,20.55095c-0.53216,5.6809 -1.34621,11.47986 -2.28251,17.11509c-1.17994,7.10161 -1.02095,14.54067 -1.69465,21.73249c-1.07795,11.50728 -2.15589,23.01458 -3.23384,34.52187c-0.26873,2.8687 0.16634,5.6379 -2.54221,7.49329c-3.32722,2.27921 -7.52369,1.01576 -11.05274,1.8633c-6.10292,1.4657 -12.60942,1.90556 -19.04002,1.30317c-3.21011,-0.31133 -6.47062,-0.21048 -9.58564,0.09459c-2.22954,0.21836 -4.57644,-0.66645 -6.81313,-0.62231c-6.16424,0.12166 -12.42366,-0.8198 -18.58384,-1.39685c-6.16624,-0.57762 -12.28379,-0.81259 -18.46539,-1.39165c-2.63376,-0.24672 -4.671,-0.58017 -7.16585,-1.36306c-0.54885,-0.17222 -1.22488,0.03507 -1.70175,-0.28665c-2.55523,-1.72397 -2.05169,-6.44395 -1.82195,-9.01122c0.34835,-3.49783 0.24322,-7.20419 -0.31711,-10.49931c-0.42181,-2.48056 0.69457,-5.43896 0.69802,-7.94185c0.00692,-5.01198 -0.08952,-9.93507 0.38118,-14.95983c0.43149,-4.60624 1.92476,-10.27562 1.41323,-14.85408c-0.11759,-1.05243 -0.39557,-2.10507 -0.3798,-3.15978zM199.20305,159.5692c0.04327,0.25759 0.08215,0.51527 0.10741,0.77305c0.47003,4.79931 -0.96177,10.49955 -1.41245,15.31064c-0.46338,4.94668 -0.35091,9.78943 -0.37074,14.72295c-0.00884,2.20138 -1.19683,5.328 -0.7462,7.47569c0.737,3.51249 0.68368,7.49537 0.35482,11.20236c-0.12454,1.2641 -0.71157,6.04702 0.75577,6.78305c2.09818,1.05248 5.35547,1.03506 7.765,1.26077c6.18188,0.57909 12.29801,0.81391 18.4654,1.39164c6.08624,0.57013 12.25843,1.47751 18.34695,1.38643c2.14338,-0.03207 4.47372,0.87036 6.59343,0.63354c3.25678,-0.36386 6.69511,-0.39937 10.04221,-0.09538c7.32496,0.68617 14.12561,-0.62902 21.18329,-1.37142c2.17805,-0.22911 7.31624,-0.01983 8.46817,-2.48184c0.49341,-1.05456 0.25634,-3.46279 0.3664,-4.63773c1.07795,-11.50728 2.15589,-23.01458 3.23384,-34.52187c0.67925,-7.25116 0.53563,-14.73832 1.71656,-21.90157c0.92046,-5.58328 1.73353,-11.31951 2.26059,-16.94602c0.63628,-6.79238 1.47541,-13.58809 1.57538,-20.40182c0.06815,-4.64432 0.90487,-8.26567 -4.81968,-8.78949c-4.51615,-1.0827 -9.28002,-1.28395 -13.89327,-1.30253c-0.99399,-0.004 -1.98805,-0.11956 -2.96851,-0.28301c-0.18362,-0.03062 -0.45491,-0.33598 -0.53292,-0.16695c-0.33576,0.72747 -0.06287,3.40011 -0.14856,4.31488c-0.35583,3.79853 -0.71165,7.59704 -1.06748,11.39557c-0.22383,2.29696 0.1488,4.35763 0.37132,6.51957c0.29027,2.82018 -0.41186,5.74496 -0.43828,8.56993c-0.0444,4.74643 0.53043,9.2164 0.04819,13.98575c-0.11336,1.121 -0.65392,2.15681 -1.01065,3.22558c-0.37716,1.12997 0.01495,2.41426 -0.31027,3.56025c-0.20816,0.73354 -0.33591,1.66626 -0.98657,2.06386c-0.69289,0.4234 -1.62392,0.01829 -2.43588,0.02744c-2.72235,-0.25502 -5.83667,-0.64222 -8.55255,-0.47863c-1.18457,0.07134 -2.30524,0.68177 -3.49189,0.69375c-4.58753,0.04631 -9.18481,-1.31582 -13.7703,-1.28677c-3.25663,0.02065 -6.43534,1.07397 -9.66,0.7915c-3.42053,-0.34828 -7.67979,-0.76379 -11.10684,-0.41601c-1.37112,0.13914 -5.21585,1.34448 -6.51007,-0.1554c-1.13744,-1.31816 -0.36058,-4.47603 -0.21546,-6.02515c0.42101,-4.49432 1.17221,-8.9043 1.59102,-13.37516c0.72404,-7.72922 1.11066,-15.46585 1.83119,-23.15769c0.2663,-2.84277 1.08896,-7.90364 -0.36856,-10.33852c-0.56728,-0.44526 -0.86669,-1.20601 -1.49013,-1.56847c-0.74102,-0.43082 -1.71374,-0.06865 -2.56714,-0.1486c-2.96419,-0.27767 -5.3716,0.21269 -8.37423,0.22575c-0.65866,0.00287 -4.83195,0.15287 -5.2063,0.9076c-0.31476,0.6346 -0.10603,2.65643 -0.17792,3.42389c-0.32589,3.47896 -0.65178,6.9579 -0.97767,10.43684c-0.6208,6.62712 -2.28204,13.97777 -1.94234,20.6119c0.11182,2.18383 0.39903,4.29918 0.40993,6.51211c0.00947,1.92043 -0.54339,4.45463 -0.55262,6.73902c0.16187,0.27248 0.19059,0.54759 0.19059,0.54759l0.18466,1.82559c-0.0104,0.10019 -0.0169,0.20037 -0.02005,0.30053c0.10245,0.30821 0.23074,0.60075 0.3894,0.87403c0,0 0.41845,0.77589 -0.126,1.35699z" fill="#000000"/><path d="M199.28122,158.20756c-0.15866,-0.27329 -0.28685,-0.56667 -0.38931,-0.87489c0.00315,-0.10017 0.00969,-0.20064 0.0201,-0.30083l-0.18441,-1.8274c0,0 -0.02863,-0.27564 -0.1905,-0.54812c0.00923,-2.2844 0.56368,-4.8251 0.55421,-6.74553c-0.0109,-2.21294 -0.29607,-4.33361 -0.40789,-6.51744c-0.33968,-6.63414 1.33025,-13.99771 1.95104,-20.62482c0.32589,-3.47896 0.65605,-6.96193 0.98194,-10.44088c0.07189,-0.76747 -0.1356,-2.79028 0.17916,-3.42488c0.37433,-0.75474 4.55031,-0.90664 5.20897,-0.90951c3.00264,-0.01306 5.41456,-0.50615 8.37877,-0.22848c0.85341,0.07994 1.82764,-0.28296 2.56865,0.14784c0.62344,0.36246 0.96399,1.21009 1.53128,1.65535c1.45752,2.43489 0.63821,7.49403 0.37191,10.3368c-0.72053,7.69185 -1.09323,15.41658 -1.81726,23.14581c-0.41881,4.47086 -1.16143,8.86416 -1.58244,13.35849c-0.14511,1.54912 -0.92024,4.6975 0.2172,6.01566c1.29422,1.49987 5.04317,0.28625 6.41429,0.14711c3.42705,-0.34777 7.68663,0.06501 11.10717,0.41329c3.22467,0.28247 6.42834,-0.80604 9.68497,-0.8267c4.58548,-0.02905 9.25318,1.37101 13.84071,1.32468c1.18665,-0.01198 2.30723,-0.62348 3.49177,-0.69482c2.71587,-0.16357 5.83046,0.22649 8.55281,0.4815c0.81196,-0.00915 1.64699,0.40122 2.33988,-0.02218c0.65067,-0.3976 0.77871,-1.3269 0.98688,-2.06045c0.32521,-1.14601 -0.06583,-2.4246 0.31134,-3.55457c0.35673,-1.06876 0.89858,-2.10027 1.01194,-3.22129c0.48224,-4.76934 -0.0842,-9.22452 -0.0398,-13.97095c0.02642,-2.82497 0.73328,-5.7448 0.44302,-8.56498c-0.22251,-2.16193 -0.5916,-4.21973 -0.36777,-6.51668c0.35583,-3.79853 0.71567,-7.59435 1.0715,-11.39287c0.08569,-0.91476 -0.18581,-3.58662 0.14995,-4.31409c0.07801,-0.16902 0.39623,0.05244 0.57984,0.08305c0.98046,0.16345 1.97627,0.28004 2.97026,0.28404c4.61325,0.01856 9.38387,0.22488 13.9,1.30758c5.72454,0.52382 4.89241,4.14992 4.82427,8.79424c-0.09997,6.81374 -0.93233,13.61995 -1.56861,20.41235c-0.52706,5.6265 -1.33605,11.37626 -2.25652,16.95956c-1.18094,7.16325 -1.03899,14.67171 -1.71824,21.92288c-1.07795,11.50728 -2.16979,23.03611 -3.24774,34.5434c-0.11006,1.17494 0.12523,3.5847 -0.36818,4.63924c-1.15192,2.46201 -6.29493,2.25615 -8.47297,2.48526c-7.05769,0.7424 -13.87249,2.0635 -21.19745,1.37734c-3.34709,-0.30399 -6.79349,-0.26724 -10.05027,0.09663c-2.11971,0.23681 -4.45555,-0.66557 -6.59893,-0.63348c-6.08853,0.0911 -12.27539,-0.81935 -18.36163,-1.38948c-6.16739,-0.57773 -12.29479,-0.81863 -18.47667,-1.39772c-2.40952,-0.22571 -5.67051,-0.21128 -7.7687,-1.26376c-1.46735,-0.73603 -0.88295,-5.5215 -0.75841,-6.78559c0.32886,-3.707 0.37787,-7.695 -0.35913,-11.20748c-0.45064,-2.14768 0.73469,-5.2784 0.74354,-7.47978c0.01983,-4.93351 -0.09745,-9.78769 0.36593,-14.73438c0.45068,-4.81111 1.88081,-10.52649 1.4108,-15.32579c-0.02525,-0.25778 -0.06407,-0.51627 -0.10734,-0.77385c0.54445,-0.5811 0.1261,-1.3584 0.1261,-1.3584z" fill="#ffffff"/></g><g><path d="M242.59847,177.94867c-0.43406,10.95596 -9.47187,19.58651 -20.18653,19.27684c-10.71466,-0.30966 -19.04875,-9.44228 -18.61469,-20.39824c0.16992,-4.289 -0.53168,-7.66479 3.13775,-8.84397c5.70386,-1.83295 17.19193,-0.3 17.19193,-0.3c0,0 11.15113,-0.90328 16.73657,1.40447c3.41204,1.40976 1.8996,4.70616 1.735,8.86091z" fill="#000000" stroke="none" stroke-width="0" stroke-linecap="butt"/><path d="M234.12172,173.22368l0.17113,-4.31985l25.91087,0.74885l-0.17113,4.31986z" fill="#000000" stroke="none" stroke-width="0" stroke-linecap="butt"/><path d="M291.70571,179.36792c-0.43405,10.95596 -9.47187,19.5865 -20.18653,19.27684c-10.71466,-0.30966 -19.04874,-9.44228 -18.61469,-20.39824c0.16992,-4.289 -0.53168,-7.66479 3.13775,-8.84397c5.70386,-1.83296 17.19193,-0.29999 17.19193,-0.29999c0,0 11.15112,-0.90328 16.73657,1.40447c3.41203,1.40976 1.8996,4.70616 1.735,8.86091z" fill="#000000" stroke="none" stroke-width="0" stroke-linecap="butt"/><path d="M213.01956,172.63428l-4.62256,3.90722" fill="none" stroke="#ffffff" stroke-width="1.5" stroke-linecap="round"/><path d="M207.61732,173.89646l1.60428,-1.45722" fill="none" stroke="#ffffff" stroke-width="1.5" stroke-linecap="round"/><path d="M215.91088,174.67337l-5.51049,3.9848" fill="none" stroke="#ffffff" stroke-width="1.5" stroke-linecap="round"/><path d="M213.07156,181.48038l5.29414,-4.80881" fill="none" stroke="#ffffff" stroke-width="1.5" stroke-linecap="round"/><path d="M220.57052,179.77161l-3.52942,3.20587" fill="none" stroke="#ffffff" stroke-width="1.5" stroke-linecap="round"/><path d="M220.23834,184.88451l2.23109,-1.88076" fill="none" stroke="#ffffff" stroke-width="1.5" stroke-linecap="round"/><path d="M223.4804,186.31345l0.97749,-1.03369" fill="none" stroke="#ffffff" stroke-width="1.5" stroke-linecap="round"/><path d="M229.65475,190.91058l1.80949,-2.081" fill="none" stroke="#ffffff" stroke-width="1.5" stroke-linecap="round"/><path d="M231.2515,192.66766l2.46612,-2.82323" fill="none" stroke="#ffffff" stroke-width="1.5" stroke-linecap="round"/><path d="M258.43833,173.51313l-2.87278,2.46364" fill="none" stroke="#ffffff" stroke-width="1.5" stroke-linecap="round"/><path d="M257.50924,178.73085l3.60027,-2.3955" fill="none" stroke="#ffffff" stroke-width="1.5" stroke-linecap="round"/><path d="M261.55341,179.43119l-1.7498,1.44359" fill="none" stroke="#ffffff" stroke-width="1.5" stroke-linecap="round"/><path d="M263.66128,180.43239l-2.4512,2.66389" fill="none" stroke="#ffffff" stroke-width="1.5" stroke-linecap="round"/><path d="M266.24667,182.60358l-1.64906,1.93527" fill="none" stroke="#ffffff" stroke-width="1.5" stroke-linecap="round"/><path d="M271.85773,185.37969l-3.49957,2.88718" fill="none" stroke="#ffffff" stroke-width="1.5" stroke-linecap="round"/><path d="M268.29484,184.24219l-3.078,3.08742" fill="none" stroke="#ffffff" stroke-width="1.5" stroke-linecap="round"/><path d="M278.97219,192.47614l1.35807,-1.96253" fill="none" stroke="#ffffff" stroke-width="1.5" stroke-linecap="round"/><path d="M280.87486,194.10113l2.14528,-2.53179" fill="none" stroke="#ffffff" stroke-width="1.5" stroke-linecap="round"/></g><path d="M238.00432,215.4441c-0.00429,-1.71419 -1.12426,-2.23321 -3.05417,-2.35775c0,0 -1.24455,-0.11658 -1.12797,-1.36113c0.11658,-1.24455 1.36113,-1.12797 1.36113,-1.12797c1.31467,0.14885 3.64759,0.67163 4.58665,1.77087c1.53763,1.79993 1.05894,5.94461 -0.94515,7.23548c-2.71641,1.74968 -7.39012,-1.59187 -4.52974,-4.58504c0.42977,-0.44972 1.18886,-0.36662 1.78329,-0.54993l0.80962,0.01141c0,0 0.96672,0.09056 1.11633,0.96406zM237.97585,216.08246c-0.2442,0.98755 -1.32103,0.88668 -1.32103,0.88668l-0.01053,-0.06542c-2.05029,0.1081 0.51364,0.82046 0.85496,0.58023c0.58936,-0.41481 0.46841,-0.80197 0.4766,-1.40149z" fill="#000000" stroke="none" stroke-width="0.5" stroke-linecap="butt"/><path d="M172.27808,263.52063c-0.38637,-1.14915 -1.03035,-2.1696 -1.95353,-2.99133c-1.34302,-0.13092 -2.77199,-0.38586 -3.79428,-0.32545c-0.10199,0.05137 -1.38894,0.68204 -1.47663,0.79458c-0.7331,0.94089 -0.46485,3.18012 -1.41839,3.94937c-1.22577,0.98886 -3.35081,-0.10181 -4.60115,-0.34207c-3.01394,-0.57916 -5.76464,-1.71667 -7.92743,-3.69541c-0.45658,2.79192 -0.95604,5.73524 0.51016,8.1004c1.49439,2.28928 3.83678,4.9282 6.17673,6.24735c0.82997,0.46789 1.85152,1.50783 2.94316,1.34589c0.6253,-0.09275 1.36837,-2.33607 1.99668,-2.81137c1.4793,-1.11904 3.48406,-1.39589 5.18167,-2.06202c1.42644,-0.68667 3.31229,-0.79445 4.33261,-2.09914c0.98085,-1.25422 0.56168,-2.73754 0.43438,-4.14755c-0.00691,-0.07649 -0.01471,-0.15264 -0.0234,-0.22846c-0.22994,0.02462 -0.81786,0.01591 -0.98194,-0.67876c-0.17134,-0.72542 0.40535,-0.98866 0.60136,-1.05602zM174.75406,265.10881c0.39517,1.97996 0.14138,3.99941 -1.09344,5.61695c-1.28245,1.67992 -3.25767,1.78042 -5.02952,2.64226c-1.42857,0.56026 -4.52591,0.90768 -5.43339,2.31212c-0.71398,1.10498 -0.37057,2.21484 -2.05018,2.66313c-1.58097,0.42196 -3.02256,-0.83717 -4.24337,-1.53506c-2.61399,-1.49429 -5.09425,-4.29901 -6.79262,-6.83411c-2.02813,-3.28873 -1.00324,-7.09889 -0.54254,-10.75052c-0.18549,-0.24454 -0.36417,-0.49836 -0.5357,-0.76174c-1.40636,-1.03097 -2.69069,-3.07462 -3.62594,-4.55904l-0.32611,-0.38003c-1.19221,-0.0867 -2.38514,-0.24984 -3.54375,-0.35417c-2.59444,-0.23363 -5.51846,-0.07456 -8.04396,-0.54259c-1.27631,-0.23653 -2.52887,-0.57811 -3.14039,-1.86917c-0.46435,-0.98033 0.2062,-1.92917 -0.14258,-2.86222c-0.45196,-1.20911 -1.13013,-2.99688 -0.33767,-4.33469c0.51758,-0.87377 1.54256,-1.19302 2.06119,-2.23177c0.63353,-0.86848 1.0527,-2.0406 1.93514,-2.6994c2.02424,-1.51124 4.89966,-1.83631 7.23879,-2.51224c0.4242,-0.12258 0.84783,-0.24875 1.27127,-0.37617c-2.33823,0.5454 -4.9813,0.75441 -7.22259,0.83544c-1.05495,0.07707 -3.74961,0.33171 -4.63627,-0.33842c-1.41196,-1.06717 -1.07023,-3.34869 -1.29759,-4.75339c-0.39999,-2.47133 -3.12051,-4.52947 -1.50942,-7.30118c1.01704,-1.74974 3.77665,-3.0398 5.31915,-4.31634c3.17971,-4.42263 10.0849,-3.77069 15.05808,-4.54953c2.79101,-0.4371 5.38526,-1.56466 8.20335,-1.87395c0,0 0.4839,-0.05226 0.77601,0.27748c2.35855,-0.28187 4.69559,-0.69812 6.93455,-1.55476c1.132,-0.4331 1.81283,-1.38781 2.89628,-1.93419c2.67922,-1.35113 5.72795,-2.42396 8.27769,-3.9624c0.96919,0.19211 0.57874,-0.9144 0.15263,-1.62739c-1.06035,-1.77423 -2.45002,-3.4413 -4.01812,-4.80979c-1.55512,-1.35718 -3.0887,-2.77569 -4.61953,-4.11393c-0.87902,-0.76843 -1.8393,-1.20702 -2.46447,-2.33854c-0.8407,-1.52161 -1.30655,-3.26325 -2.15512,-4.82351c-0.6478,-1.07446 -1.94202,-1.93413 -2.24789,-3.22914c-0.32499,-1.37594 0.37846,-3.74516 1.70214,-4.42632c1.12787,-0.58039 3.17725,-0.0382 4.38117,0.07021c3.13668,0.28246 6.20662,0.18661 9.26585,0.4621c1.7888,0.19952 3.33013,-0.59807 5.04205,0.5691c1.73736,1.18452 2.11507,3.71123 3.4408,5.29746c2.33548,2.79438 5.48828,4.86538 8.40748,7.01342c4.83985,5.74253 9.50914,13.80998 8.82722,21.54259c0.25024,4.79981 -0.5545,9.46767 -0.54164,14.25991c0.00405,1.5106 1.01259,2.26394 1.46574,3.57759c0.44359,1.28595 0.10935,2.87935 0.25298,4.2093c-0.65972,7.63564 -4.26654,16.74176 -11.79852,19.76236c-1.2418,0.36792 -2.78262,0.03195 -3.88615,0.54448c-0.95599,0.44401 -1.61679,1.36385 -2.48163,1.93535c-2.98359,1.97158 -5.54577,4.56967 -9.14944,4.96444zM155.6902,215.32652c-2.4906,0.40046 -4.8425,1.36829 -7.34659,1.75957c-3.8972,0.60895 -8.35973,0.50863 -12.09163,1.82957c-0.85603,0.303 -1.42264,1.50541 -1.91506,2.17255c-1.49398,1.25702 -4.00745,2.44809 -5.11415,4.05159c-1.13826,1.64923 1.46948,4.50605 1.75825,6.02352c0.14059,0.7388 -0.22611,3.00662 0.5559,3.60409c0.4323,0.33028 2.92054,0.07089 3.52166,0.02391c4.14172,-0.13607 8.79449,-0.99963 12.61428,-2.50299c1.88537,-0.74202 3.85243,-1.28256 5.86937,-1.57536c0.48538,-0.07046 1.00704,-0.45449 1.45076,-0.24552c1.74428,0.82147 0.94455,2.77348 0.52925,3.99599c-1.62881,1.02616 -2.43287,0.59058 -4.1955,0.76943c-1.629,0.1653 -3.27234,0.98217 -4.84381,1.39293c-3.64608,0.95302 -8.34699,1.20663 -11.5406,3.4321c-0.63559,0.44291 -1.03593,1.58935 -1.48488,2.2048c-0.51169,0.99074 -1.55616,1.49261 -2.06418,2.23661c-0.52676,0.77148 0.29996,2.15984 0.50767,2.8151c0.28821,0.90919 -0.21094,1.9075 0.09719,2.74385c0.25951,0.70439 1.95044,0.89229 2.57818,0.87958c2.37638,-0.0481 4.74312,0.23661 7.12148,0.45078c2.65329,0.23893 5.46176,0.84252 8.00906,-0.12557c0.36203,-0.13758 1.66235,-1.30471 1.8149,-1.40585c2.31329,-1.53374 4.50125,-3.29303 7.01746,-4.46211c1.28883,-0.59881 1.30148,-1.28692 2.83302,-1.52482l0.54149,-0.24624c0,0 0.69829,-0.27393 1.06629,0.31994c0.47144,-0.16324 0.94013,-0.32412 1.40228,-0.48592c1.19755,-0.41927 2.23458,-1.04226 3.53901,-1.05873c2.27159,-0.02866 3.99275,1.11455 6.02805,1.71572c4.07365,2.91382 3.04724,7.68916 1.70941,11.97454c-0.41453,1.32786 -1.14824,3.80274 -2.59822,4.31695c-0.13532,0.04799 -0.28088,0.08582 -0.43507,0.11491c0.66159,0.85836 1.21713,1.83158 1.61647,2.85301c4.71593,-0.20732 7.18713,-4.977 11.41083,-6.79572c1.32277,-0.56958 2.66068,-0.18728 4.0355,-0.60366c6.80212,-2.58922 9.95882,-11.31962 10.59438,-18.05706c-0.11969,-1.10814 0.22137,-2.5888 -0.15654,-3.64584c-0.53332,-1.49172 -1.53547,-2.39541 -1.56217,-4.14105c-0.07345,-4.80166 0.79287,-9.49546 0.54188,-14.3095c0.66637,-7.24324 -3.78631,-14.78175 -8.26211,-20.20455c-2.99478,-2.16384 -6.17856,-4.31931 -8.55769,-7.17246c-1.12357,-1.34743 -1.66652,-4.01421 -3.08061,-4.96956c-1.27052,-0.85835 -2.80751,-0.15825 -4.19055,-0.26231c-3.04805,-0.27448 -6.13599,-0.18025 -9.26585,-0.4621c-0.74648,-0.06722 -2.69966,-0.60146 -3.40746,-0.25886c-0.58354,0.28245 -0.90442,1.88151 -0.77625,2.42418c0.22952,0.97175 1.53427,1.91656 2.05422,2.74274c1.0125,1.86106 1.59268,4.86297 3.29763,6.20906c3.1468,2.48443 6.95755,5.2324 9.28703,8.64863c1.22567,1.79747 2.31657,4.75538 -0.44548,5.44304c-2.42078,1.53747 -5.46325,2.59788 -8.06447,3.87343c-1.14138,0.55969 -1.83093,1.51403 -3.04234,1.9986c-2.61031,1.04413 -5.42961,1.45848 -8.19927,1.7576c0,0 -0.46918,0.05067 -0.76245,-0.26259zM170.92617,258.76911c0.55682,0.0238 1.09564,0.01217 1.60135,-0.06836c0.47672,-0.07592 1.3075,-2.7615 1.4239,-3.13912c1.02363,-3.32096 2.32439,-7.50466 -0.79337,-9.84414c-1.78676,-0.52776 -3.21877,-1.54243 -5.22081,-1.53104c-1.61279,0.00918 -3.38942,1.12713 -4.8694,1.70622c-1.69668,0.66387 -3.48809,1.17487 -5.08671,2.07212c-1.12574,0.63183 -2.07115,1.75321 -3.16584,2.4799c0,0 -0.53103,0.35167 -0.99334,0.01289c-0.44131,0.30356 -0.88406,0.60558 -1.33111,0.90127c-1.00528,0.66492 -0.97714,1.10435 -2.17744,1.58533c-0.97304,0.3899 -1.98681,0.56604 -3.01782,0.61913c0.76498,1.2235 1.75989,2.65088 2.82298,3.50556c0.81196,-0.2981 1.13123,0.51578 1.13123,0.51578l0.20951,0.7924c-0.00846,0.0939 -0.01776,0.1883 -0.02783,0.28313c2.06589,2.32678 4.70863,3.57207 7.93753,4.19005c0.39764,0.07611 2.79877,1.04709 3.12097,0.72561c0.53452,-0.53331 0.49954,-2.8746 1.12651,-3.63971c0.52029,-0.63494 1.72417,-1.11651 2.44921,-1.45799c0.699,-0.06128 1.44098,-0.02019 2.19233,0.04907c0.01763,-0.08289 0.04864,-0.17123 0.09631,-0.26499c0.40494,-0.79656 1.20151,-0.39162 1.20151,-0.39162c0.47166,0.24137 0.93125,0.54461 1.37032,0.89853zM148.20744,234.1417c0.91665,-0.19093 2.02268,-0.58332 2.94008,-0.687c0.85179,-0.09626 2.20619,0.34629 2.95429,-0.07591c0.07823,-0.41501 0.64517,-1.40533 0.25623,-1.24078c-1.31296,0.5555 -2.81481,0.81841 -4.25508,1.10215c-1.78718,0.35207 -3.73997,1.19564 -5.46045,1.8209c1.1813,-0.34638 2.36674,-0.6698 3.56491,-0.91936z" fill="#000000" stroke="none" stroke-width="0.5" stroke-linecap="butt"/><path d="M171.71035,264.56456c0.16408,0.69468 0.7529,0.70628 0.98284,0.68166c0.00871,0.07582 0.01668,0.15265 0.02358,0.22915c0.12731,1.41001 0.54719,2.90657 -0.43366,4.16079c-1.02032,1.30469 -2.91036,1.42511 -4.3368,2.11178c-1.69762,0.66614 -3.72637,0.9606 -5.20566,2.07964c-0.62831,0.47529 -1.38219,2.71917 -2.00748,2.81194c-1.09165,0.16193 -2.12654,-0.88206 -2.9565,-1.34995c-2.33995,-1.31915 -4.70107,-3.98668 -6.19546,-6.27595c-1.46619,-2.36515 -0.96045,-5.33179 -0.50387,-8.12372c2.16279,1.97874 4.92219,3.10749 7.93613,3.68665c1.25035,0.24027 3.41513,1.32991 4.64088,0.34106c0.95355,-0.76925 0.68172,-3.01047 1.41482,-3.95135c0.08769,-0.11254 1.37792,-0.74139 1.47991,-0.79277c1.02228,-0.06041 2.4593,0.20134 3.80233,0.33226c0.92317,0.82172 1.57303,1.85142 1.9594,3.00057c-0.196,0.06736 -0.7718,0.33284 -0.60046,1.05827z" fill="#ffffff" stroke="none" stroke-width="0.5" stroke-linecap="butt"/><path d="M169.58768,257.88682c0,0 -0.79841,-0.40175 -1.20335,0.39481c-0.04766,0.09376 -0.07931,0.18303 -0.09693,0.26592c-0.75136,-0.06926 -1.49726,-0.10561 -2.19627,-0.04432c-0.72504,0.34148 -1.9411,0.83114 -2.46139,1.46607c-0.62697,0.76512 -0.60022,3.1086 -1.13473,3.64191c-0.3222,0.32148 -2.73476,-0.64972 -3.1324,-0.72583c-3.2289,-0.61798 -5.8968,-1.88166 -7.96269,-4.20843c0.01007,-0.09484 0.01901,-0.18992 0.02747,-0.28383l-0.21064,-0.79486c0,0 -0.32025,-0.81652 -1.13221,-0.51843c-1.06309,-0.85467 -2.05972,-2.29296 -2.8247,-3.51646c1.03101,-0.05309 2.04483,-0.23127 3.01787,-0.62118c1.20031,-0.48098 1.17321,-0.92723 2.17849,-1.59216c0.44705,-0.29569 0.89154,-0.60289 1.33286,-0.90646c0.46231,0.33878 0.9942,-0.01475 0.9942,-0.01475c1.09469,-0.72669 2.05482,-1.86348 3.18057,-2.49532c1.59861,-0.89724 3.41638,-1.41153 5.11306,-2.07541c1.47997,-0.57908 3.26871,-1.69126 4.8815,-1.70044c2.00204,-0.0114 3.44291,1.01267 5.22967,1.54043c3.11776,2.33949 1.8223,6.54814 0.79867,9.86909c-0.1164,0.37762 -0.94989,3.07234 -1.42661,3.14826c-0.5057,0.08053 -1.04553,0.09423 -1.60235,0.07043c-0.43908,-0.35393 -0.8984,-0.65768 -1.37007,-0.89904z" fill="#ffffff" stroke="none" stroke-width="0.5" stroke-linecap="butt"/><path d="M156.4239,215.56788c2.76966,-0.29913 5.6142,-0.7278 8.22451,-1.77195c1.21141,-0.48457 1.91189,-1.43831 3.05327,-1.998c2.60122,-1.27554 5.65713,-2.33002 8.07791,-3.86749c2.76206,-0.68766 1.63324,-3.58514 0.40757,-5.3826c-2.32948,-3.41624 -6.12498,-6.15991 -9.27177,-8.64435c-1.70495,-1.34608 -2.28141,-4.34801 -3.2939,-6.20907c-0.51994,-0.82618 -1.82289,-1.77114 -2.05241,-2.74288c-0.12818,-0.54267 0.18616,-2.2129 0.76971,-2.49535c0.7078,-0.3426 2.66404,0.19154 3.41052,0.25876c3.12986,0.28185 6.22603,0.18864 9.27408,0.46312c1.38304,0.10406 2.92348,-0.59501 4.19399,0.26334c1.4141,0.95535 1.96103,3.62382 3.0846,4.97125c2.37913,2.85315 5.57164,5.01474 8.56643,7.17858c4.47581,5.4228 8.93894,12.98048 8.27258,20.22372c0.25098,4.81404 -0.61567,9.52283 -0.54221,14.32449c0.0267,1.74564 1.02786,2.65276 1.56118,4.14449c0.37791,1.05704 0.03569,2.54066 0.15537,3.6488c-0.63556,6.73744 -3.80401,15.4822 -10.60613,18.07142c-1.37482,0.41637 -2.71548,0.03586 -4.03825,0.60544c-4.2237,1.81872 -6.70556,6.59253 -11.4215,6.79985c-0.39934,-1.02142 -0.95576,-1.99447 -1.61736,-2.85283c0.15418,-0.0291 0.28622,-0.13712 0.42155,-0.18511c1.44998,-0.51421 2.18035,-2.98826 2.59488,-4.31611c1.33783,-4.28538 2.38744,-8.99317 -1.68621,-11.90699c-2.0353,-0.60117 -3.76509,-1.74223 -6.03667,-1.71356c-1.30443,0.01645 -2.34761,0.63965 -3.54516,1.05894c-0.46215,0.1618 -0.9331,0.3225 -1.40454,0.48574c-0.368,-0.59387 -1.06809,-0.3202 -1.06809,-0.3202l-0.54228,0.24611c-1.53154,0.2379 -1.54778,0.92513 -2.83661,1.52394c-2.51622,1.16907 -4.71004,2.92603 -7.02332,4.45976c-0.15256,0.10115 -1.45382,1.26777 -1.81584,1.40535c-2.5473,0.96809 -5.36129,0.36078 -8.01459,0.12185c-2.37837,-0.21417 -4.7487,-0.50227 -7.12507,-0.45416c-0.62775,0.01271 -2.31996,-0.17667 -2.57948,-0.88106c-0.30813,-0.83635 0.18986,-1.83612 -0.09833,-2.7453c-0.20771,-0.65526 -1.03572,-2.04548 -0.50896,-2.81695c0.50801,-0.74401 1.55211,-1.24648 2.0638,-2.23721c0.44895,-0.61544 0.91048,-1.79882 1.54608,-2.24173c3.19361,-2.22548 7.89215,-2.48264 11.53823,-3.43566c1.57147,-0.41075 3.21265,-1.23022 4.84164,-1.39552c1.76262,-0.17886 2.56293,0.25319 4.19174,-0.77298c0.41531,-1.2225 1.16429,-3.1248 -0.57999,-3.94627c-0.44372,-0.20897 -0.9664,0.17369 -1.45178,0.24416c-2.01694,0.29279 -3.98597,0.83021 -5.87133,1.57224c-3.81979,1.50337 -8.47447,2.36299 -12.61618,2.49907c-0.60112,0.04699 -3.08985,0.30513 -3.52215,-0.02516c-0.78201,-0.59747 -0.41639,-2.86873 -0.55697,-3.60751c-0.28876,-1.51747 -2.89754,-4.3804 -1.75927,-6.02963c1.1067,-1.60348 3.62008,-2.79874 5.11406,-4.05576c0.49242,-0.66712 1.05924,-1.87226 1.91526,-2.17526c3.73189,-1.32094 8.19573,-1.22687 12.09292,-1.83582c2.5041,-0.39128 4.86103,-1.36943 7.35164,-1.7699c0.29327,0.31326 0.76287,0.26201 0.76287,0.26201z" fill="#ffffff" stroke="none" stroke-width="0.5" stroke-linecap="butt"/><path d="M307.46736,268.36689c-0.28554,0.65419 -0.86556,0.55773 -1.08741,0.49242c-0.02211,0.07304 -0.04339,0.14658 -0.06385,0.2206c-0.37717,1.36458 -1.05459,2.74915 -0.3136,4.15842c0.77082,1.46598 2.60708,1.90895 3.88789,2.8394c1.5513,0.95872 3.47435,1.58925 4.72992,2.95458c0.53328,0.5799 0.86363,2.91988 1.4623,3.12286c1.04516,0.35436 2.23606,-0.48634 3.13626,-0.79843c2.53797,-0.87989 5.31412,-3.05787 7.19347,-5.04334c1.86516,-2.06516 1.89957,-5.05035 1.94912,-7.87893c-2.48151,1.56052 -5.39116,2.1883 -8.4601,2.21969c-1.27315,0.01303 -3.55887,0.70649 -4.58824,-0.48545c-0.80077,-0.92723 -0.13679,-3.08251 -0.69,-4.13924c-0.06617,-0.12639 -1.21975,-0.97682 -1.31092,-1.0456c-0.99504,-0.24207 -2.44657,-0.24653 -3.79138,-0.35765c-1.05513,0.64357 -1.87104,1.53257 -2.45651,2.5942c0.18081,0.1013 0.70121,0.46332 0.40303,1.14646zM296.22911,261.82156c-0.74884,-0.71681 -1.23467,-1.73991 -2.09595,-2.34756c-0.99421,-0.70144 -2.57026,-0.64614 -3.72635,-1.22999c-6.87117,-4.31762 -8.79312,-13.92162 -8.07809,-21.55228c0.37893,-1.28289 0.33474,-2.91038 1.00092,-4.09639c0.68055,-1.21157 1.80745,-1.7726 2.08131,-3.25817c0.86881,-4.71283 0.91095,-9.44938 2.01467,-14.12726c0.7105,-7.73003 6.74595,-14.83351 12.53386,-19.619c3.25599,-1.59195 6.72806,-3.06638 9.52519,-5.39856c1.58778,-1.32386 2.41082,-3.74245 4.33185,-4.59752c1.8929,-0.84254 3.26693,0.21757 5.0626,0.34084c3.05923,0.27549 6.06265,0.91825 9.19933,1.20071c1.20393,0.10842 3.31719,-0.05892 4.32324,0.71362c1.18069,0.90667 1.44955,3.36345 0.88398,4.6592c-0.53231,1.21953 -1.95928,1.83416 -2.78863,2.7756c-1.11366,1.38355 -1.88317,3.01394 -2.98219,4.36088c-0.81727,1.00164 -1.84045,1.26159 -2.84261,1.86063c-1.74528,1.04322 -3.50761,2.16493 -5.28018,3.22246c-1.78735,1.06633 -3.45251,2.45831 -4.81277,4.01456c-0.54663,0.62539 -1.12847,1.64435 -0.14056,1.62847c2.23388,1.96921 5.04189,3.56944 7.43662,5.3775c0.96841,0.73116 1.46773,1.79214 2.50414,2.42051c2.0499,1.24285 4.27498,2.06993 6.54522,2.76863c0.34632,-0.27226 0.8131,-0.13439 0.8131,-0.13439c2.7175,0.80777 5.06857,2.38066 7.73659,3.30936c4.75401,1.65479 11.66459,2.24697 14.00302,7.16652c1.28962,1.53157 3.77437,3.2939 4.46245,5.19717c1.08998,3.01495 -1.95445,4.55394 -2.78953,6.91406c-0.47465,1.34148 -0.54602,3.64734 -2.12592,4.44509c-0.99212,0.50096 -3.59794,-0.231 -4.62215,-0.49531c-2.19077,-0.48014 -4.75396,-1.15798 -6.95714,-2.11234c0.39388,0.20101 0.78815,0.40083 1.18363,0.59722c2.18074,1.08296 4.95182,1.91649 6.6735,3.76506c0.75055,0.80586 0.95358,2.03401 1.42175,3.00169c0.3247,1.11469 1.27616,1.61193 1.62932,2.56411c0.54071,1.45787 -0.44596,3.09572 -1.10665,4.20463c-0.50984,0.85573 -0.0196,1.90911 -0.65162,2.7907c-0.83234,1.16104 -2.12578,1.27334 -3.42381,1.27805c-2.56849,0.00931 -5.41706,-0.6696 -8.01149,-0.90323c-1.1586,-0.10433 -2.36148,-0.15693 -3.55,-0.28462l-0.38877,0.31565c-1.1854,1.29345 -2.81417,3.07477 -4.3821,3.8379c-0.21582,0.22849 -0.43698,0.44631 -0.66317,0.65377c-0.19909,3.67519 0.12861,7.60714 -2.45444,10.48064c-2.12395,2.1909 -5.06536,4.50739 -7.90427,5.51064c-1.32585,0.46855 -2.96919,1.44987 -4.44934,0.75226c-1.57251,-0.74114 -1.03633,-1.7718 -1.54142,-2.98655c-0.64197,-1.54397 -3.62742,-2.43915 -4.93291,-3.24561c-1.58938,-1.16453 -3.51487,-1.61629 -4.47655,-3.4983c-0.92598,-1.81212 -0.81491,-3.84442 -0.07236,-5.72193c-3.47517,-1.03222 -5.53196,-4.04625 -8.11532,-6.51915zM331.1983,222.88731c-2.67166,-0.78913 -5.37158,-1.70048 -7.75336,-3.19416c-1.10535,-0.6932 -1.61332,-1.75539 -2.63635,-2.50998c-2.3315,-1.71974 -5.13557,-3.30665 -7.24273,-5.25186c-2.59477,-1.17005 -0.99297,-3.88549 0.5341,-5.43506c2.90233,-2.9451 7.14271,-4.96804 10.68274,-6.85032c1.91801,-1.01984 3.02516,-3.86979 4.35385,-5.52003c0.65917,-0.72001 2.11174,-1.41651 2.51116,-2.33162c0.22306,-0.51104 0.19302,-2.1417 -0.33067,-2.52386c-0.63522,-0.46355 -2.65241,-0.28684 -3.39888,-0.35406c-3.12986,-0.28185 -6.15128,-0.92623 -9.19933,-1.20071c-1.37938,-0.1447 -2.76656,-1.10812 -4.16999,-0.49057c-1.56202,0.68735 -2.57267,3.21423 -3.91888,4.33925c-2.85058,2.38221 -6.36822,3.93421 -9.7014,5.52822c-5.3726,4.53595 -11.10043,11.15768 -11.73881,18.40344c-1.107,4.69175 -1.09318,9.4648 -2.02328,14.17609c-0.33814,1.71279 -1.48562,2.42289 -2.27685,3.79535c-0.56067,0.97252 -0.48964,2.49029 -0.80537,3.55921c-0.57833,6.74259 0.96786,15.89649 7.19797,19.65928c1.27832,0.65529 2.66302,0.51817 3.86274,1.31491c3.83084,2.54404 5.41016,7.67846 10.01319,8.72497c0.57539,-0.93365 1.29586,-1.79197 2.10017,-2.51832c-0.14651,-0.05617 -0.28296,-0.1194 -0.40754,-0.19079c-1.33478,-0.76499 -1.61453,-3.33112 -1.78517,-4.71168c-0.55071,-4.45545 -0.70747,-9.33733 3.82121,-11.4765c2.10996,-0.22788 4.00767,-1.04521 6.23761,-0.61119c1.28051,0.24923 2.18955,1.04748 3.29293,1.67395c0.42582,0.24177 0.85823,0.48379 1.29292,0.72863c0.46818,-0.51857 1.1063,-0.1243 1.1063,-0.1243l0.48878,0.33901c1.4644,0.50769 1.3539,1.18698 2.51502,2.00641c2.26688,1.59979 4.10533,3.72168 6.10739,5.64402c0.13203,0.12677 1.20293,1.50742 1.53454,1.70747c2.33338,1.4076 5.20448,1.31546 7.85778,1.5544c2.37837,0.21417 4.7579,0.35687 7.08744,0.82875c0.61538,0.12464 2.31267,0.24187 2.69385,-0.40482c0.45258,-0.76784 0.13982,-1.83927 0.58583,-2.68235c0.32143,-0.60762 1.38288,-1.82595 1.00243,-2.67911c-0.36691,-0.82279 -1.30492,-1.50319 -1.63139,-2.5694c-0.33177,-0.68575 -0.52085,-1.88527 -1.06708,-2.43461c-2.74465,-2.76022 -7.32463,-3.84959 -10.74179,-5.43866c-1.4728,-0.6849 -2.94376,-1.7822 -4.51702,-2.23588c-1.7023,-0.49088 -2.57125,-0.20595 -3.99054,-1.50661c-0.19022,-1.27703 -0.62836,-3.34052 1.23463,-3.83714c0.47391,-0.12633 0.91857,0.34472 1.38355,0.50077c1.93218,0.64841 3.77103,1.53167 5.4935,2.59859c3.48975,2.1616 7.91339,3.84249 11.96417,4.7163c0.58305,0.15362 2.98492,0.85337 3.46927,0.60563c0.87618,-0.44815 0.92052,-2.745 1.19084,-3.44679c0.55522,-1.44147 3.63141,-3.78646 2.80608,-5.6125c-0.80242,-1.7754 -3.06267,-3.39636 -4.30804,-4.90007c-0.36532,-0.74437 -0.70798,-2.02867 -1.49612,-2.47973c-3.43587,-1.96639 -7.84454,-2.66493 -11.57024,-3.96035c-2.39392,-0.83235 -4.53505,-2.20479 -6.91406,-3.04376c-0.34451,0.25582 -0.79709,0.12215 -0.79709,0.12215zM310.75217,262.14762c0,0 0.8561,-0.25612 1.11222,0.59997c0.03014,0.10077 0.04488,0.19323 0.04741,0.27793c0.75164,0.06609 1.48902,0.15821 2.16583,0.34339c0.65238,0.46552 1.75084,1.1544 2.14934,1.8721c0.48018,0.86481 0.02751,3.16219 0.45814,3.78241c0.25958,0.37387 2.79555,-0.15253 3.20038,-0.15636c3.28736,-0.03119 6.11006,-0.7843 8.5584,-2.70456c0.00704,-0.09511 0.01474,-0.18964 0.02319,-0.28355l0.34771,-0.74222c0,0 0.45953,-0.74374 1.20518,-0.30538c1.19868,-0.651 2.43258,-1.87767 3.40384,-2.94482c-1.00493,-0.23643 -1.97093,-0.59085 -2.85866,-1.14832c-1.09507,-0.68768 -0.98887,-1.115 -1.85919,-1.94883c-0.38702,-0.3708 -0.7687,-0.74705 -1.14868,-1.12458c-0.5154,0.25074 -0.97506,-0.19014 -0.97506,-0.19014c-0.94725,-0.91057 -1.67711,-2.1828 -2.67186,-3.0056c-1.4126,-1.1684 -3.08389,-1.99122 -4.63468,-2.94754c-1.35272,-0.83416 -2.90102,-2.25154 -4.48623,-2.5487c-1.96781,-0.36889 -3.55806,0.37363 -5.41036,0.57369c-3.48556,1.74485 -2.95317,6.09362 -2.5393,9.54404c0.04706,0.39234 0.38469,3.18313 0.84018,3.343c0.48318,0.16959 1.01127,0.2773 1.56337,0.35335c0.49524,-0.26978 1.00161,-0.48605 1.50881,-0.63926zM339.33969,244.15592c-1.5811,-0.92257 -3.35177,-2.10143 -5.04729,-2.76714c-1.36642,-0.53648 -2.79712,-1.06348 -3.98972,-1.84461c-0.35328,-0.23139 0.0276,0.84429 0.03043,1.26659c0.66064,0.54905 2.07233,0.3556 2.89321,0.60249c0.88413,0.26591 1.90227,0.84959 2.77005,1.2012c1.13431,0.45961 2.24291,0.98961 3.34332,1.54146z" fill="#000000" stroke="none" stroke-width="0.5" stroke-linecap="butt"/><path d="M307.03467,267.20048c0.58547,-1.06164 1.40881,-1.95867 2.46394,-2.60224c1.34481,0.11111 2.80548,0.1103 3.80052,0.35237c0.09117,0.06877 1.2483,0.91801 1.31447,1.0444c0.55321,1.05673 -0.11464,3.21332 0.68614,4.14055c1.02939,1.19194 3.354,0.50657 4.62715,0.49355c3.06892,-0.03139 5.98559,-0.649 8.46709,-2.20952c-0.04955,2.82858 -0.08195,5.83784 -1.94709,7.90301c-1.87934,1.98547 -4.67903,4.18825 -7.21701,5.06814c-0.9002,0.31209 -2.10495,1.15441 -3.15011,0.80006c-0.59867,-0.20297 -0.93954,-2.54543 -1.47282,-3.12534c-1.25558,-1.36532 -3.19909,-2.01749 -4.75038,-2.9762c-1.28081,-0.93045 -3.11894,-1.38661 -3.88975,-2.85259c-0.741,-1.40928 -0.06051,-2.80675 0.31666,-4.17133c0.02046,-0.07402 0.04204,-0.14821 0.06414,-0.22125c0.22185,0.0653 0.80326,0.15908 1.0888,-0.4951c0.29818,-0.68314 -0.22093,-1.04722 -0.40174,-1.14852z" fill="#ffffff" stroke="none" stroke-width="0.5" stroke-linecap="butt"/><path d="M309.2093,262.79772c-0.55211,-0.07605 -1.08082,-0.18598 -1.56399,-0.35556c-0.45549,-0.15987 -0.79416,-2.96014 -0.84122,-3.35248c-0.41387,-3.4504 -0.93659,-7.82279 2.54897,-9.56764c1.8523,-0.20006 3.45293,-0.95022 5.42073,-0.58135c1.58522,0.29716 3.14647,1.71102 4.49918,2.54518c1.55078,0.95631 3.24742,1.78709 4.66003,2.95548c0.99474,0.82278 1.73635,2.11283 2.6836,3.02338c0,0 0.46017,0.44288 0.97556,0.19214c0.37998,0.37753 0.76244,0.75919 1.14948,1.12999c0.87032,0.83383 0.76393,1.26807 1.85899,1.95574c0.88773,0.55747 1.85342,0.91389 2.85836,1.15034c-0.97126,1.06715 -2.20882,2.30425 -3.40748,2.95525c-0.74565,-0.43835 -1.20661,0.30782 -1.20661,0.30782l-0.34925,0.74444c-0.00846,0.09391 -0.01664,0.18906 -0.02368,0.28417c-2.44835,1.92026 -5.29909,2.68697 -8.58644,2.71816c-0.40485,0.00385 -2.95209,0.52841 -3.21167,0.15454c-0.43064,-0.62022 0.01435,-2.92123 -0.46583,-3.78605c-0.39849,-0.71768 -1.5075,-1.41671 -2.15987,-1.88223c-0.67681,-0.18519 -1.41722,-0.28268 -2.16886,-0.34876c-0.00253,-0.08471 -0.01772,-0.17819 -0.04786,-0.27897c-0.25612,-0.85609 -1.11346,-0.60345 -1.11346,-0.60345c-0.5072,0.15322 -1.0134,0.37002 -1.50864,0.63981z" fill="#ffffff" stroke="none" stroke-width="0.5" stroke-linecap="butt"/><path d="M332.02778,222.75005c2.379,0.83897 4.52325,2.22247 6.91717,3.05482c3.7257,1.29541 8.13453,2.00033 11.5704,3.96674c0.78812,0.45105 1.13051,1.73807 1.49583,2.48243c1.24537,1.50371 3.50479,3.12875 4.30721,4.90416c0.82531,1.82604 -2.25296,4.17684 -2.80818,5.61831c-0.27031,0.70179 -0.31633,3.00183 -1.19251,3.44998c-0.48435,0.24774 -2.88693,-0.45086 -3.46998,-0.60449c-4.05077,-0.87382 -8.477,-2.55119 -11.96675,-4.71279c-1.72247,-1.06692 -3.56381,-1.94747 -5.49599,-2.59588c-0.46498,-0.15603 -0.91089,-0.62593 -1.38481,-0.4996c-1.86298,0.49662 -1.4659,2.50213 -1.27569,3.77916c1.41928,1.30065 2.2839,1.01853 3.98622,1.50942c1.57326,0.45367 3.04164,1.55315 4.51444,2.23804c3.41716,1.58907 7.99417,2.68151 10.73881,5.44174c0.54623,0.54933 0.78894,1.79614 1.12071,2.48189c0.32646,1.06622 1.26399,1.74713 1.63091,2.56992c0.38045,0.85317 -0.68259,2.07308 -1.00402,2.6807c-0.446,0.84308 -0.13463,1.91573 -0.58722,2.68357c-0.38118,0.6467 -2.08001,0.53071 -2.69538,0.40605c-2.32955,-0.47187 -4.71322,-0.6119 -7.09158,-0.82607c-2.6533,-0.23893 -5.53051,-0.14412 -7.86388,-1.55172c-0.33162,-0.20005 -1.40353,-1.58038 -1.53557,-1.70715c-2.00206,-1.92234 -3.8467,-4.04297 -6.11358,-5.64276c-1.16113,-0.81943 -1.05432,-1.49851 -2.51872,-2.00618l-0.48959,-0.33903c0,0 -0.63992,-0.39434 -1.10811,0.12423c-0.43469,-0.24483 -0.86934,-0.48707 -1.29516,-0.72884c-1.10338,-0.62648 -2.01843,-1.42602 -3.29893,-1.67526c-2.22992,-0.43403 -4.13573,0.37964 -6.24569,0.60753c-4.52868,2.13917 -4.33702,6.95872 -3.78632,11.41417c0.17065,1.38056 0.44727,3.94528 1.78205,4.71027c0.12458,0.07139 0.23519,0.20126 0.3817,0.25744c-0.80431,0.72636 -1.52562,1.58435 -2.101,2.51799c-4.60303,-1.04651 -6.1921,-6.18691 -10.02293,-8.73096c-1.19973,-0.79673 -2.58679,-0.66185 -3.86511,-1.31714c-6.23011,-3.76279 -7.7853,-12.93293 -7.20697,-19.67553c0.31573,-1.06893 0.24407,-2.58982 0.80474,-3.56234c0.79124,-1.37245 1.93835,-2.08611 2.27649,-3.7989c0.9301,-4.71129 0.91864,-9.49915 2.02563,-14.19091c0.63838,-7.24577 6.37992,-13.88449 11.75253,-18.42043c3.33318,-1.59401 6.86051,-3.15047 9.71109,-5.53268c1.34622,-1.12502 2.36108,-3.65284 3.9231,-4.34018c1.40342,-0.61756 2.79419,0.34547 4.17357,0.49017c3.04805,0.27448 6.07776,0.91934 9.20762,1.20119c0.74648,0.06722 2.76666,-0.10883 3.40188,0.35471c0.5237,0.38216 0.53458,2.08169 0.31152,2.59273c-0.39943,0.91511 -1.85024,1.61208 -2.50941,2.33208c-1.32869,1.65023 -2.43218,4.50087 -4.35018,5.52071c-3.54002,1.88228 -7.76463,3.90373 -10.66695,6.84883c-1.52707,1.54958 -3.15538,4.19878 -0.56061,5.36883c2.10716,1.94522 4.92552,3.52867 7.25702,5.24841c1.02301,0.75459 1.54184,1.81813 2.64719,2.51133c2.38177,1.49369 5.10397,2.42364 7.77563,3.21278c0,0 0.45289,0.13432 0.7974,-0.1215z" fill="#ffffff" stroke="none" stroke-width="0.5" stroke-linecap="butt"/></g></g></svg>