<svg version="1.1" xmlns="http://www.w3.org/2000/svg" xmlns:xlink="http://www.w3.org/1999/xlink" width="87.10732" height="33.41103" viewBox="0,0,87.10732,33.41103"><g transform="translate(-277.20036,-123.3185)"><g data-paper-data="{&quot;isPaintingLayer&quot;:true}" fill-rule="nonzero" stroke="none" stroke-linecap="butt" stroke-linejoin="miter" stroke-miterlimit="10" stroke-dasharray="" stroke-dashoffset="0" style="mix-blend-mode: normal"><path d="M277.20036,156.72953v-33.41103h87.10732v33.41103z" fill="#ffd800" stroke-width="0"/><path d="M355.7827,129.72598c0.63205,0 1.18584,0.33508 1.49342,0.83728c0.21711,-0.26556 0.55624,-0.48708 1.08268,-0.57482c1.72619,-0.2877 2.01389,1.43849 2.01389,1.43849c0.22633,1.35986 0.58451,2.85996 0.85568,4.3843c1.172,2.54756 1.40325,8.06278 0.17174,10.29879c-0.71908,1.3056 -1.71385,2.00316 -2.8524,2.36452c-0.26538,0.54043 -0.80127,0.92399 -1.4311,0.97408l-2.60738,0.23703l-0.00268,-0.02945c-0.02549,0.01161 -0.05097,0.02323 -0.07646,0.03484l-1.9885,0.0018h-0.00001c0,0 -1.10529,0 -1.55906,-0.87841l-0.76106,-0.08456c-0.88564,-0.08654 -1.57773,-0.83326 -1.57773,-1.74163c0,-0.9665 0.7835,-1.75 1.75,-1.75h1.9092c0.31807,0 0.90461,0.06222 1.59335,0.11667c-0.31334,-0.3848 -0.65047,-0.85128 -1.01414,-1.40931c-1.73222,-2.65796 -0.11783,-8.7119 0.63572,-11.3853l0.07157,-0.08976l-0.03118,-0.01336l0.70006,-1.63348c0.25862,-0.64343 0.88845,-1.09771 1.62439,-1.09771z" data-paper-data="{&quot;index&quot;:null}" fill="#000000" stroke-width="0.5"/><path d="M301.19601,131.92381c0.23843,-0.03454 0.47648,-0.03726 0.71272,-0.00942l0.00001,-0.00001c0.16317,-0.39891 0.50939,-0.78727 1.21607,-0.95035c1.70519,-0.3935 2.09869,1.31168 2.09869,1.31168c0.31252,1.35927 0.64454,2.7992 0.89831,4.26863c0.33942,0.98111 0.40549,1.79033 0.36984,2.90254c0.1497,2.02518 0.03555,4.04309 -0.58982,5.92426c-0.51681,1.55463 -1.32753,3.04364 -2.77876,3.53141c-0.23435,0.24929 -0.54096,0.42986 -0.88639,0.50825l-1.87369,0.46842l-0.06453,-0.25813c-1.64431,0.60311 -3.27863,0.6459 -5.30769,-0.5316c-0.99536,-0.57762 -2.70963,-0.93708 -2.75012,-2.08719c-0.01945,-0.55228 0.26848,-0.99963 0.67358,-1.40699c0.19197,-0.34275 0.48531,-0.5447 0.76434,-0.6637c0.04554,-0.03657 0.09117,-0.07311 0.13672,-0.10968c0.27562,-0.59529 0.87592,-1.00956 1.57364,-1.01553c-0.8694,-1.74397 -0.92261,-4.08212 -0.77744,-5.74499c0.08448,-0.96764 -0.14393,-2.10717 0.44466,-2.87985c0.75192,-0.9871 1.91161,-2.15804 3.13103,-2.09844c-0.00394,-0.52497 0.19136,-1.22058 1.13691,-1.57516c0.92706,-0.34765 1.5263,0.02589 1.87192,0.41585z" data-paper-data="{&quot;index&quot;:null}" fill="#000000" stroke-width="0.5"/></g></g></svg>