<svg version="1.1" xmlns="http://www.w3.org/2000/svg" xmlns:xlink="http://www.w3.org/1999/xlink" width="142.42157" height="312.36307" viewBox="0,0,142.42157,312.36307"><defs><radialGradient cx="310.30685" cy="238.38964" r="89.41619" gradientUnits="userSpaceOnUse" id="color-1"><stop offset="0" stop-color="#bebebe"/><stop offset="1" stop-color="#dadada"/></radialGradient><linearGradient x1="314.95635" y1="174.10813" x2="316.00457" y2="239.81291" gradientUnits="userSpaceOnUse" id="color-2"><stop offset="0" stop-color="#fff800"/><stop offset="1" stop-color="#d97200"/></linearGradient><linearGradient x1="259.05828" y1="93.46905" x2="260.34325" y2="174.01326" gradientUnits="userSpaceOnUse" id="color-3"><stop offset="0" stop-color="#fff800"/><stop offset="1" stop-color="#d97200"/></linearGradient><linearGradient x1="369.18605" y1="90.87419" x2="370.47102" y2="171.4184" gradientUnits="userSpaceOnUse" id="color-4"><stop offset="0" stop-color="#fff800"/><stop offset="1" stop-color="#d97200"/></linearGradient><linearGradient x1="314.04827" y1="77.10879" x2="315.74609" y2="183.53087" gradientUnits="userSpaceOnUse" id="color-5"><stop offset="0" stop-color="#dadada"/><stop offset="1" stop-color="#bebebe"/></linearGradient><linearGradient x1="312.84516" y1="102.1693" x2="313.41444" y2="137.85245" gradientUnits="userSpaceOnUse" id="color-6"><stop offset="0" stop-color="#f1de00"/><stop offset="1" stop-color="#f28f00"/></linearGradient><linearGradient x1="262.02971" y1="52.40235" x2="264.58018" y2="105.67461" gradientUnits="userSpaceOnUse" id="color-7"><stop offset="0" stop-color="#fff800"/><stop offset="1" stop-color="#d97200"/></linearGradient><linearGradient x1="364.51991" y1="50.26415" x2="363.67849" y2="104.11824" gradientUnits="userSpaceOnUse" id="color-8"><stop offset="0" stop-color="#fff800"/><stop offset="1" stop-color="#d97200"/></linearGradient><radialGradient cx="262.62796" cy="49.60925" r="7.8102" gradientUnits="userSpaceOnUse" id="color-9"><stop offset="0" stop-color="#ffffff"/><stop offset="1" stop-color="#00b5ff"/></radialGradient><radialGradient cx="364.24502" cy="47.69301" r="7.8102" gradientUnits="userSpaceOnUse" id="color-10"><stop offset="0" stop-color="#ffffff"/><stop offset="1" stop-color="#00b5ff"/></radialGradient><linearGradient x1="346.12243" y1="189.79286" x2="376.37638" y2="187.61005" gradientUnits="userSpaceOnUse" id="color-11"><stop offset="0" stop-color="#fff800"/><stop offset="1" stop-color="#d97200"/></linearGradient><linearGradient x1="284.96949" y1="190.55709" x2="254.72178" y2="189.3395" gradientUnits="userSpaceOnUse" id="color-12"><stop offset="0" stop-color="#fff800"/><stop offset="1" stop-color="#d97200"/></linearGradient></defs><g transform="translate(-242.30304,-39.42795)"><g stroke-miterlimit="10"><path d="M274.79937,348.27982l-4.30423,-147.22586c0,0 5.6726,-25.79198 14.67156,-26.34083c8.9367,-0.54504 30.12559,-1.43978 48.628,-2.56825c20.06804,-1.22395 26.75344,25.55117 26.75344,25.55117l2.65587,152.81249z" fill="url(#color-1)" stroke="#000000" stroke-width="2.5" stroke-linecap="butt"/><path d="M283.97414,216.61615l-0.6701,-42.00306l63.3046,-1.00993l0.6701,42.00306l-30.82414,24.19951z" fill="url(#color-2)" stroke="#000000" stroke-width="2.5" stroke-linecap="butt"/><g stroke="#000000" stroke-width="2.5"><path d="M255.00155,174.09848l-11.18007,-80.38635l21.38185,7.34812l10.24987,64.75756z" fill="url(#color-3)" stroke-linecap="butt"/><path d="M262.55695,106.46082l8.74911,55.27597" fill="none" stroke-linecap="round"/></g><g stroke="#000000" stroke-width="2.5"><path d="M356.20288,163.69165l6.21989,-65.02031l20.90454,-8.02275l-6.17899,80.66329z" fill="url(#color-4)" stroke-linecap="butt"/><path d="M365.40177,103.98217l-5.30919,55.50025" fill="none" stroke-linecap="round"/></g><path d="M369.57612,131.67245c-1.48636,28.5155 -27.08063,53.36737 -57.29226,51.79259c-30.21162,-1.57477 -53.60008,-28.97985 -52.11372,-57.49534c1.48636,-28.51549 27.18267,-50.35527 57.3943,-48.78048c30.21162,1.57477 53.49806,25.96775 52.0117,54.48324z" fill="url(#color-5)" stroke="#000000" stroke-width="2.5" stroke-linecap="butt"/><path d="M256.77635,134.60071l-0.44551,-27.92557c0,0 37.95771,-4.20978 56.87465,-4.51157c18.79683,-0.29988 56.26896,2.70653 56.26896,2.70653l0.44551,27.92558c0,0 -36.73466,4.74139 -55.33185,5.03808c-19.10372,0.30477 -57.81176,-3.23303 -57.81176,-3.23303z" fill="url(#color-6)" stroke="#000000" stroke-width="2.5" stroke-linecap="butt"/><path d="M272.71804,133.66598c0,0 -11.56485,-11.22293 -11.5983,-13.31906c-0.06281,-3.9373 11.20554,-11.29979 11.20554,-11.29979c0,0 26.31922,-3.49971 39.84264,-3.71545c13.99142,-0.22321 42.74966,2.39781 42.74966,2.39781c0,0 11.74969,6.21132 11.80811,9.8735c0.07029,4.40584 -11.41535,14.74536 -11.41535,14.74536c0,0 -28.22706,3.29324 -42.18149,3.51587c-13.56532,0.21642 -40.41082,-2.19822 -40.41082,-2.19822z" fill="#000000" stroke="none" stroke-width="0" stroke-linecap="butt"/><path d="M260.55673,105.83289l-2.55047,-53.27226l8.04687,-0.31655l2.55048,53.27226z" fill="url(#color-7)" stroke="#000000" stroke-width="2.5" stroke-linecap="butt"/><path d="M359.65204,104.08746l0.84143,-53.85409l8.05291,0.06157l-0.84142,53.85408z" fill="url(#color-8)" stroke="#000000" stroke-width="2.5" stroke-linecap="butt"/><path d="M270.30481,49.48678c0.06181,3.87431 -3.32513,7.06989 -7.56493,7.13753c-4.2398,0.06764 -7.72695,-3.01828 -7.78876,-6.89258c-0.06181,-3.87431 3.32513,-7.06989 7.56493,-7.13753c4.2398,-0.06764 7.72695,3.01828 7.78876,6.89258z" fill="url(#color-9)" stroke="#000000" stroke-width="2.5" stroke-linecap="butt"/><path d="M371.92188,47.57053c0.06181,3.87431 -3.32513,7.06988 -7.56494,7.13752c-4.2398,0.06764 -7.72696,-3.01827 -7.78877,-6.89257c-0.06181,-3.87431 3.32513,-7.06989 7.56494,-7.13753c4.2398,-0.06764 7.72696,3.01828 7.78877,6.89258z" fill="url(#color-10)" stroke="#000000" stroke-width="2.5" stroke-linecap="butt"/><path d="M271.69756,137.29127l4.46475,27.4103" fill="none" stroke="#000000" stroke-width="2.5" stroke-linecap="round"/><path d="M359.09119,135.66013l-5.18561,31.3548" fill="none" stroke="#000000" stroke-width="2.5" stroke-linecap="round"/><path d="M349.46469,155.95102c0,0 4.11659,4.37133 -3.75717,8.91439c-6.45403,3.72389 -24.47994,6.45077 -29.87346,6.51847c-5.41253,0.06795 -23.71275,-2.17032 -31.15887,-6.0249c-7.94168,-4.11111 -4.848,-8.53389 -4.848,-8.53389" fill="none" stroke="#000000" stroke-width="2.5" stroke-linecap="round"/><path d="M288.48202,178.69408l10.14194,48.53288" fill="none" stroke="#000000" stroke-width="2.5" stroke-linecap="round"/><path d="M333.75547,227.04911l7.31467,-48.72018" fill="none" stroke="#000000" stroke-width="2.5" stroke-linecap="round"/><path d="M364.34094,203.67051l-19.34042,1.3954l2.24383,-30.54611l19.34042,-1.3954l9.80756,14.2685z" fill="url(#color-11)" stroke="#000000" stroke-width="2.5" stroke-linecap="butt"/><path d="M254.70663,189.12285l9.86052,-14.58228l19.33643,0.77836l2.13182,30.4763l-19.33643,-0.77836z" fill="url(#color-12)" stroke="#000000" stroke-width="2.5" stroke-linecap="butt"/><path d="M295.63547,101.43515l2.37472,-20.44456" fill="none" stroke-opacity="0.54902" stroke="#000000" stroke-width="2.5" stroke-linecap="round"/><path d="M326.83619,79.86717l5.44499,21.5202" fill="none" stroke-opacity="0.54902" stroke="#000000" stroke-width="2.5" stroke-linecap="round"/><path d="M313.44926,101.08761l-0.4949,-23.09966" fill="none" stroke-opacity="0.54902" stroke="#000000" stroke-width="2.5" stroke-linecap="round"/><path d="M293.37051,131.62854l-0.36161,-22.6663l2.83329,-0.0452l0.36161,22.6663z" fill="#ffffff" stroke="none" stroke-width="0" stroke-linecap="butt"/><path d="M331.47387,131.68748l-0.3749,-23.49962l3.16662,-0.05052l0.3749,23.49962z" fill="#ffffff" stroke="none" stroke-width="0" stroke-linecap="butt"/><path d="M285.44654,166.20694c0,0 18.91739,4.89951 27.9059,5.13222c9.90631,0.25647 29.04668,-3.65774 29.04668,-3.65774l-28.65587,12.90212l-28.29671,-14.3766z" fill="#ffffff" stroke="#000000" stroke-width="2.5" stroke-linecap="round"/></g></g></svg>