<svg version="1.1" xmlns="http://www.w3.org/2000/svg" xmlns:xlink="http://www.w3.org/1999/xlink" width="184.0408" height="292.85241" viewBox="0,0,184.0408,292.85241"><defs><linearGradient x1="323.0218" y1="106.17809" x2="322.77278" y2="134.18374" gradientUnits="userSpaceOnUse" id="color-1"><stop offset="0" stop-color="#7d542d"/><stop offset="1" stop-color="#000000"/></linearGradient><linearGradient x1="277.20171" y1="114.71738" x2="292.95278" y2="194.74043" gradientUnits="userSpaceOnUse" id="color-2"><stop offset="0" stop-color="#996237"/><stop offset="1" stop-color="#6f5927"/></linearGradient><linearGradient x1="369.40344" y1="117.64879" x2="353.15612" y2="199.35719" gradientUnits="userSpaceOnUse" id="color-3"><stop offset="0" stop-color="#996237"/><stop offset="1" stop-color="#6f5927"/></linearGradient><linearGradient x1="325.58747" y1="64.73797" x2="325.17178" y2="111.48834" gradientUnits="userSpaceOnUse" id="color-4"><stop offset="0" stop-color="#7d542d"/><stop offset="1" stop-color="#3b2815"/></linearGradient></defs><g transform="translate(-230.85167,-64.14147)"><g stroke-miterlimit="10"><path d="M412.39465,120.97671c-0.06876,7.73355 -40.19384,13.64654 -89.62187,13.20702c-49.42803,-0.4395 -89.44162,-7.06507 -89.37285,-14.79862c0.02559,-2.87807 5.59891,-5.50399 15.13484,-7.64418c3.73325,-0.83786 8.07383,-1.60128 12.92664,-2.27624c16.05947,-2.23366 37.7286,-3.49852 61.5604,-3.28661c49.42803,0.4395 89.44162,7.06508 89.37285,14.79862z" fill="url(#color-1)" stroke="#000000" stroke-width="2.5" stroke-linecap="butt"/><path d="M273.76578,115.69c8.29252,-0.17313 17.47368,0.18664 24.00678,3.37063c6.66554,3.24853 10.7973,9.06169 12.48218,15.15104c1.13375,4.09757 4.35422,7.80062 5.75481,11.67537c1.98198,5.48326 1.9602,11.18657 2.47799,17.02138c0.90436,10.19083 -11.51361,20.56953 -21.2713,27.24807c-1.63699,1.1204 -6.13402,5.34783 -8.05317,5.64183c-1.95716,0.29982 -3.58734,-5.00358 -3.89996,-6.07199c-1.6856,-5.76048 -1.9176,-11.91517 1.13731,-18.4139c0.58791,-1.25067 4.29728,-6.66939 3.12556,-7.66341c-0.67709,-0.57442 -4.39628,1.35357 -5.24273,1.67025c-5.18044,1.93819 -10.27479,4.89051 -14.78976,7.6965c-0.73706,0.45808 -3.54849,3.36923 -4.57513,3.00935c-1.63695,-0.57384 0.47385,-6.37924 0.77194,-7.63994c1.81312,-7.66819 4.21175,-15.7599 9.25914,-23.08413c1.65906,-2.40741 3.45118,-4.89516 5.22261,-7.30277c0.19933,-0.27091 0.79565,-0.55469 0.65424,-0.7919c-0.45045,-0.75575 -6.53407,2.11747 -7.29116,2.49868c-4.77114,2.40237 -10.92948,4.6632 -15.35224,8.22409c-0.61136,0.49224 -5.68957,4.44133 -6.16352,4.4622c-0.3608,0.01589 -0.46864,-0.38449 -0.53282,-0.65235c-0.69951,-2.91963 0.97458,-7.16821 1.72059,-10.32312c2.0404,-8.62898 5.78681,-15.73777 14.81032,-22.22382c1.6662,-1.19767 2.40804,-2.30836 4.54776,-2.8916z" fill="url(#color-2)" stroke="#000000" stroke-width="2.5" stroke-linecap="round"/><path d="M374.01454,120.0471c2.129,0.9518 2.86091,2.23769 4.51371,3.76111c8.95084,8.25033 12.63694,16.32199 14.61204,25.72357c0.72214,3.4374 2.36195,8.17212 1.64473,11.13352c-0.0658,0.27171 -0.17604,0.67591 -0.5356,0.60218c-0.4723,-0.09682 -5.50758,-5.05445 -6.11365,-5.66895c-4.38453,-4.44557 -10.50804,-7.79749 -15.24774,-11.07918c-0.7521,-0.52073 -6.79696,-4.50521 -7.25114,-3.78123c-0.14255,0.22724 0.44992,0.62007 0.64678,0.9366c1.74943,2.81314 3.51896,5.71385 5.15633,8.50902c4.98152,8.5039 7.3174,17.39678 9.07249,25.75152c0.28854,1.37356 2.35307,7.81537 0.71739,8.16046c-1.02587,0.21644 -3.80856,-3.29085 -4.54018,-3.88931c-4.48159,-3.66583 -9.53975,-7.57724 -14.69063,-10.43518c-0.84163,-0.46698 -4.53593,-3.08326 -5.21481,-2.58589c-1.17479,0.86071 2.48591,7.14829 3.06343,8.55709c3.00094,7.32052 2.72768,13.75964 1.00811,19.55423c-0.31894,1.07474 -1.98014,6.39719 -3.92909,5.77243c-1.9111,-0.61261 -6.36513,-5.77122 -7.9893,-7.20876c-9.68137,-8.5689 -21.9894,-21.45141 -21.01838,-32.03092c0.55597,-6.05735 0.57317,-12.06164 2.5863,-17.51771c1.4226,-3.85553 4.65817,-7.24284 5.8163,-11.375c1.72108,-6.14074 5.87951,-11.60424 12.54619,-13.96888c6.53421,-2.31768 15.68891,-1.24534 23.9541,0.24727z" fill="url(#color-3)" stroke="#000000" stroke-width="2.5" stroke-linecap="round"/><path d="M273.24607,351.16907l-0.87618,-147.28941c0,0 7.02891,-25.63673 17.10081,-25.95242c10.00221,-0.3135 33.70679,-0.65938 54.41521,-1.30845c22.46072,-0.704 29.21683,26.2355 29.21683,26.2355l-1.1153,152.83153z" fill="#7d5e41" stroke="#000000" stroke-width="2.5" stroke-linecap="butt"/><path d="M301.97433,183.92888l21.95613,-16.78947l19.98879,21.66609l-21.08531,18.12118z" fill="#f5c06a" stroke="#000000" stroke-width="2.5" stroke-linecap="butt"/><path d="M378.40044,137.46894c-2.19426,28.46978 -28.39799,52.67818 -58.56117,50.3534c-30.16318,-2.32478 -52.86365,-30.3024 -50.66937,-58.77217c2.19427,-28.46977 28.42518,-49.66448 58.58836,-47.33969c30.16318,2.32478 52.83648,27.28869 50.64222,55.75846z" fill="#f5c06a" stroke="#000000" stroke-width="2.5" stroke-linecap="butt"/><path d="M338.03099,128.14345c0.03063,2.70867 -6.59654,4.97972 -14.80219,5.07251c-8.20567,0.09282 -14.88251,-2.02777 -14.91313,-4.73644c-0.03063,-2.70867 6.59654,-4.97972 14.80219,-5.07251c8.20567,-0.09282 14.88251,2.02777 14.91313,4.73644z" fill-opacity="0.18431" fill="#520000" stroke="none" stroke-width="0" stroke-linecap="butt"/><path d="M377.62128,92.1706c-0.04584,5.15495 3.51013,16.41402 -0.67159,18.48992c-8.9683,4.45207 -32.11432,-4.63437 -52.04079,-4.81156c-20.46196,-0.18194 -41.91603,6.97618 -50.7651,1.93599c-3.78655,-2.15671 -2.37247,-11.6973 -2.32927,-16.55516c0.09497,-10.67999 10.45908,-19.93633 25.8753,-24.93486c7.98309,-2.58842 14.8866,1.56039 24.85475,1.64903c8.07487,0.0718 18.15258,-4.45191 24.98322,-2.5962c17.885,4.85891 30.19781,15.09241 30.0935,26.82284z" fill="url(#color-4)" stroke="#000000" stroke-width="2.5" stroke-linecap="butt"/><path d="M311.62926,126.87761c0.09835,2.2327 -1.80846,4.13017 -4.25898,4.23812c-2.45053,0.10794 -4.51679,-1.61451 -4.61515,-3.84721c-0.09835,-2.23271 1.80846,-4.13018 4.25898,-4.23813c2.45053,-0.10794 4.51679,1.61451 4.61514,3.84722z" fill="#ffffff" stroke="#000000" stroke-width="2.5" stroke-linecap="butt"/><path d="M359.3751,126.97683c0.09835,2.2327 -1.80846,4.13017 -4.25898,4.23812c-2.45053,0.10794 -4.51679,-1.61451 -4.61515,-3.84721c-0.09835,-2.23271 1.80846,-4.13018 4.25898,-4.23813c2.45053,-0.10794 4.51679,1.61451 4.61514,3.84722z" fill="#ffffff" stroke="#000000" stroke-width="2.5" stroke-linecap="butt"/><path d="M274.17556,100.70889l31.91359,-3.49337l13.33617,1.03995l4.87495,-1.80329l13.80326,-1.86235l7.10791,0.06333l-3.39093,1.05965l-9.2718,3.08649l-2.62096,0.79087l7.07542,-0.47622l10.08009,-1.07807l11.41089,-0.09366l6.23197,-0.23916l-2.72417,0.67519l-9.09162,2.21827l-0.6876,0.3712l5.19966,0.28221l16.45479,1.40175l4.49019,1.36281l0.97408,0.20473l-3.08104,0.00149l-11.37977,0.22445l-4.16529,0.0488l2.93944,0.58268l9.73008,3.06842l0.82146,0.3318l-1.03827,0.04144l-8.15761,-0.30047l-1.04583,-0.02669l-3.1229,-0.12181l4.08117,0.50714l9.2298,3.26245l0.81562,0.33527l-1.04566,-0.00902l-10.78766,-2.04513l-33.98262,-7.80333l-9.25576,0.0635l-29.85103,0.68144l-15.17932,0.6325l-1.14871,-2.89996z" fill="#ffad00" stroke="#000000" stroke-width="2.5" stroke-linecap="round"/><path d="M413.64247,118.27871c-0.02399,2.69756 -4.49593,3.15383 -12.30703,2.54754c-15.60013,-1.21086 -44.51917,-6.6599 -77.92415,-6.95693c-50.13108,-0.44575 -91.38142,10.88024 -91.30952,2.79516c0.07189,-8.08508 40.76944,-14.27795 90.90053,-13.8322c50.13108,0.44575 90.71207,7.36136 90.64018,15.44643z" fill="#7d542d" stroke="#000000" stroke-width="2.5" stroke-linecap="butt"/><path d="M283.19037,124.46343c0,0 7.19691,-3.07653 11.80235,-3.10643c4.68127,-0.03039 16.06148,2.92554 16.06148,2.92554" fill="none" stroke="#000000" stroke-width="2.5" stroke-linecap="round"/><path d="M271.85494,93.96021l0.0529,-5.94907c0,0 34.4855,-1.76276 52.00807,-1.60695c17.73811,0.15772 53.78185,2.54762 53.78185,2.54762l-0.0529,5.94907c0,0 -35.9973,-2.90684 -53.77726,-3.06493c-17.4782,-0.15542 -52.01266,2.12426 -52.01266,2.12426z" fill="#ffffff" stroke="#000000" stroke-width="2.5" stroke-linecap="butt"/><path d="M324.14185,354.07985l0.86144,-146.51181" fill="none" stroke="#000000" stroke-width="2.5" stroke-linecap="round"/><path d="M332.42672,216.46053l0.50799,-7.49799" fill="none" stroke="#000000" stroke-width="2.5" stroke-linecap="round"/><path d="M333.53476,240.74319l-0.36281,-8.8297" fill="none" stroke="#000000" stroke-width="2.5" stroke-linecap="round"/><path d="M333.27971,269.42696l-0.11772,13.23867" fill="none" stroke="#000000" stroke-width="2.5" stroke-linecap="round"/><path d="M332.99327,301.64104l-0.5433,11.46958" fill="none" stroke="#000000" stroke-width="2.5" stroke-linecap="round"/><path d="M268.93184,309.45657l0.15303,-17.21026c0,0 36.8129,4.29924 54.6845,4.45816c18.01868,0.16022 52.98997,-3.50073 52.98997,-3.50073l-0.15303,17.21026c0,0 -34.44599,5.43092 -51.68179,5.27766c-18.55787,-0.16502 -55.99266,-6.23509 -55.99266,-6.23509z" fill="#624122" stroke="#000000" stroke-width="2.5" stroke-linecap="butt"/><path d="M355.52928,204.88724l5.92313,10.0037l6.84079,0.06082l-6.28157,6.99278l0.53157,10.16307l-6.77996,-6.90162l-9.39102,6.96514l3.21084,-11.37367l-9.28043,-5.47267l9.75032,-0.74255z" fill="#ffffff" stroke="#000000" stroke-width="2.5" stroke-linecap="round"/><path d="M352.97801,218.02923l2.62348,-10.20502l2.24678,10.24832l7.12702,-1.78747l-5.78674,4.42954l2.07016,8.20107l-5.48627,-7.45215l-7.27986,8.02053l3.87761,-8.83008l-6.97332,-4.54299z" fill-opacity="0.33725" fill="#000000" stroke="#000000" stroke-width="0" stroke-linecap="round"/><path d="M324.74716,178.98903c-0.02473,2.78143 -0.9563,5.02812 -2.0807,5.01813c-1.12442,-0.01 -2.01587,-2.2729 -1.99114,-5.05433c0.02473,-2.78143 0.9563,-5.02812 2.0807,-5.01813c1.12442,0.01 2.01587,2.2729 1.99114,5.05433z" fill="none" stroke="#000000" stroke-width="2.5" stroke-linecap="butt"/><path d="M311.49,131.43202c0,0 -11.43098,2.75309 -16.11096,2.63946c-4.60418,-0.11179 -11.74524,-3.31581 -11.74524,-3.31581" fill="none" stroke="#000000" stroke-width="2.5" stroke-linecap="round"/><path d="M331.70547,123.67959c0,0 7.19691,-3.07653 11.80235,-3.10643c4.68127,-0.03039 16.06148,2.92554 16.06148,2.92554" fill="none" stroke="#000000" stroke-width="2.5" stroke-linecap="round"/><path d="M360.0051,130.64819c0,0 -11.43098,2.75309 -16.11096,2.63946c-4.60418,-0.11179 -11.74524,-3.31581 -11.74524,-3.31581" fill="none" stroke="#000000" stroke-width="2.5" stroke-linecap="round"/></g></g></svg>