<svg version="1.1" xmlns="http://www.w3.org/2000/svg" xmlns:xlink="http://www.w3.org/1999/xlink" width="34.17311" height="34.17311" viewBox="0,0,34.17311,34.17311"><g transform="translate(-302.91346,-162.91346)"><g data-paper-data="{&quot;isPaintingLayer&quot;:true}" stroke="none" stroke-miterlimit="10" stroke-dasharray="" stroke-dashoffset="0" style="mix-blend-mode: normal"><path d="M309.98312,162.91347h20.03379c3.9166,0 7.06966,3.15307 7.06966,7.06966v20.03379c0,3.91659 -3.15306,7.06966 -7.06966,7.06966h-20.03379c-3.91659,0 -7.06966,-3.15307 -7.06966,-7.06966v-20.03379c0,-3.91659 3.15307,-7.06966 7.06966,-7.06966z" fill="#ffe900" fill-rule="evenodd" stroke-width="4.43922" stroke-linecap="round" stroke-linejoin="round"/><g fill="#000000" fill-rule="nonzero" stroke-width="0.5" stroke-linecap="butt" stroke-linejoin="miter"><path d="M323.90876,175.34649c-0.90728,0.11341 -1.02069,-0.79387 -1.02069,-0.79387l-0.12356,-1.00311c-0.33464,-1.3003 -1.59114,-3.84489 -1.72984,-5.64262c-0.20794,0.32667 -0.45751,0.6328 -0.66278,0.96074c-0.88194,1.40906 -1.44173,2.68066 -2.09677,4.20908c0,0 -0.36018,0.84041 -1.20059,0.48024c-0.84041,-0.36018 -0.48024,-1.20059 -0.48024,-1.20059c0.87332,-2.03775 1.74465,-4.32663 3.2102,-6.03055c0.46007,-0.53489 0.902,-1.602 1.58034,-1.408c1.88412,0.53886 2.79325,6.78673 3.17633,8.29089l0.14147,1.1171c0,0 0.11341,0.90728 -0.79387,1.02069z"/><path d="M322.7491,187.80351c0.00631,-0.13257 0.07891,-0.8948 0.91374,-0.8948c0.91434,0 0.91434,0.91434 0.91434,0.91434l-0.04692,0.42165c-0.56499,1.68223 -2.4249,6.53333 -4.45204,6.8533c-0.63991,0.101 -0.98327,-0.84927 -1.41497,-1.3323c-1.46409,-1.63816 -2.51019,-3.90544 -3.04318,-5.98592c0,0 -0.22176,-0.88704 0.66528,-1.1088c0.88704,-0.22176 1.1088,0.66528 1.1088,0.66528c0.44917,1.85013 1.26893,2.99839 2.27945,4.6031c0.24764,0.39325 0.23218,1.75591 0.41812,1.33001c0.80718,-1.84879 1.98715,-3.52449 2.65736,-5.46586z"/><path d="M315.21326,176.70405c0.15099,0.90179 -0.7508,1.05278 -0.7508,1.05278l-0.99711,0.16511c-1.28528,0.38835 -3.7755,1.74943 -5.56592,1.96266c0.33502,0.1942 0.65125,0.43084 0.98744,0.62231c1.44446,0.82267 2.73822,1.32918 4.29251,1.92018c0,0 0.85465,0.32497 0.52968,1.17961c-0.32497,0.85465 -1.17961,0.52968 -1.17961,0.52968c-2.07226,-0.78795 -4.39534,-1.56348 -6.15865,-2.95701c-0.55353,-0.43746 -1.63807,-0.8347 -1.47241,-1.52051c0.46015,-1.90487 6.66489,-3.07266 8.15184,-3.51787l1.11026,-0.18774c0,0 0.90179,-0.15099 1.05278,0.7508z"/><path d="M327.7077,177.34543c-0.13272,-0.0008 -0.89731,-0.04168 -0.93198,-0.87579c-0.03797,-0.91355 0.87558,-0.95152 0.87558,-0.95152l0.42324,0.02937c1.70424,0.49465 6.62839,2.1515 7.03226,4.16361c0.12749,0.63517 -0.80771,1.01769 -1.27239,1.46908c-1.57595,1.53085 -3.79784,2.6702 -5.85439,3.28912c0,0 -0.87707,0.2584 -1.13547,-0.61866c-0.2584,-0.87707 0.61866,-1.13547 0.61866,-1.13547c1.82988,-0.52561 2.94311,-1.39234 4.50448,-2.46863c0.38263,-0.26376 1.74476,-0.30488 1.3115,-0.47299c-1.88072,-0.72971 -3.60397,-1.83908 -5.5715,-2.4281z"/><path d="M325.96254,179.92158c-0.7158,-0.5689 -0.1469,-1.28471 -0.1469,-1.28471l0.63027,-0.79009c0.69493,-1.14884 1.63394,-3.8269 2.82136,-5.18376c-0.37889,0.07998 -0.77223,0.11584 -1.15015,0.19862c-1.6238,0.35569 -2.92402,0.84538 -4.47435,1.4467c0,0 -0.85247,0.33064 -1.18311,-0.52183c-0.33064,-0.85247 0.52182,-1.1831 0.52182,-1.1831c2.06698,-0.8017 4.31199,-1.78054 6.55478,-1.92554c0.70406,-0.04551 1.7757,-0.47634 2.11168,0.14405c0.93319,1.7232 -2.89483,6.74403 -3.70152,8.0701l-0.69918,0.88265c0,0 -0.5689,0.71581 -1.2847,0.1469z"/><path d="M316.2507,187.80843c0.09914,-0.08824 0.69454,-0.56966 1.27862,0.02682c0.63971,0.65329 -0.01358,1.293 -0.01358,1.293l-0.3341,0.26149c-1.59724,0.77327 -6.36459,2.8384 -8.01147,1.61388c-0.51987,-0.38655 -0.08113,-1.29673 -0.03805,-1.94312c0.14613,-2.19221 1.0342,-4.52592 2.14779,-6.36232c0,0 0.47864,-0.77905 1.25769,-0.30042c0.77905,0.47864 0.30042,1.25769 0.30042,1.25769c-1.00765,1.61535 -1.25454,3.00444 -1.69411,4.84917c-0.10772,0.45207 -1.09216,1.39439 -0.65775,1.22927c1.88569,-0.71676 3.90852,-1.04606 5.76453,-1.92546z"/><path d="M318.90886,174.65848c-0.53869,0.73881 -1.2775,0.20012 -1.2775,0.20012l-0.81558,-0.59692c-1.17671,-0.64662 -3.89145,-1.47361 -5.29646,-2.60367c0.09564,0.37524 0.14781,0.76675 0.24621,1.14091c0.42281,1.60763 0.96608,2.88639 1.63126,4.41042c0,0 0.36576,0.838 -0.47224,1.20376c-0.838,0.36576 -1.20376,-0.47224 -1.20376,-0.47224c-0.88684,-2.03191 -1.95806,-4.23433 -2.19607,-6.46917c-0.07471,-0.70156 -0.54967,-1.75439 0.05624,-2.11584c1.68296,-1.00394 6.85842,2.61228 8.21685,3.36321l0.91093,0.66193c0,0 0.73881,0.53868 0.20012,1.27749z"/><path d="M327.19219,184.03444c-0.09228,-0.09539 -0.59802,-0.67029 -0.0263,-1.27864c0.62617,-0.66629 1.29246,-0.04012 1.29246,-0.04012l0.27513,0.32295c0.83893,1.56375 3.10024,6.24124 1.94516,7.93755c-0.36462,0.53548 -1.29224,0.13492 -1.93987,0.11871c-2.19638,-0.05496 -4.56496,-0.84537 -6.44603,-1.88174c0,0 -0.79826,-0.44587 -0.35238,-1.24413c0.44587,-0.79826 1.24413,-0.35239 1.24413,-0.35239c1.6558,0.93971 3.05394,1.12871 4.91534,1.49129c0.45615,0.08885 1.43855,1.03331 1.25553,0.60613c-0.79445,-1.8543 -1.20747,-3.8617 -2.16317,-5.6796z"/></g></g></g></svg>