<svg version="1.1" xmlns="http://www.w3.org/2000/svg" xmlns:xlink="http://www.w3.org/1999/xlink" width="136.56603" height="336.27026" viewBox="0,0,136.56603,336.27026"><defs><linearGradient x1="320.76983" y1="166.31905" x2="324.0135" y2="345.13091" gradientUnits="userSpaceOnUse" id="color-1"><stop offset="0" stop-color="#f2acec"/><stop offset="1" stop-color="#cea1ff"/></linearGradient><linearGradient x1="278.06444" y1="177.1212" x2="281.44302" y2="292.37266" gradientUnits="userSpaceOnUse" id="color-2"><stop offset="0" stop-color="#9b60f2"/><stop offset="1" stop-color="#8784ca"/></linearGradient><linearGradient x1="363.54497" y1="174.07122" x2="366.92356" y2="289.32268" gradientUnits="userSpaceOnUse" id="color-3"><stop offset="0" stop-color="#9b60f2"/><stop offset="1" stop-color="#8784ca"/></linearGradient></defs><g transform="translate(-255.51479,-17.09391)"><g stroke-miterlimit="10"><path d="M276.54496,342.88225l-6.90727,-144.05531c0,0 8.28134,-29.03328 18.11708,-29.72702c9.76769,-0.68893 32.9271,-1.92472 53.14995,-3.35109c21.93407,-1.54706 32.08685,28.12648 32.08685,28.12648l0.18373,149.81441z" fill="url(#color-1)" stroke="#000000" stroke-width="2.5" stroke-linecap="butt"/><path d="M345.13916,174.77931c0.21984,12.11896 -10.4189,22.26044 -23.76228,22.65159c-13.34338,0.39116 -24.33854,-9.11612 -24.55837,-21.23508c-0.21984,-12.11896 10.67562,-8.10775 24.01899,-8.4989c13.34338,-0.39116 24.08182,-5.03659 24.30166,7.08239z" fill="#f2caef" stroke-opacity="0.52549" stroke="#000000" stroke-width="1.5" stroke-linecap="butt"/><path d="M336.85727,174.73257c0.14251,7.85623 -7.07259,14.43987 -16.11539,14.70495c-9.0428,0.26509 -16.48897,-5.88875 -16.63148,-13.74498c-0.14251,-7.85623 7.0726,-14.43987 16.11539,-14.70495c9.0428,-0.26509 16.48896,5.88875 16.63148,13.74498z" fill="#f235e2" stroke="#000000" stroke-width="2.5" stroke-linecap="butt"/><path d="M280.34913,212.06252l2.06565,-4.99057" fill="none" stroke-opacity="0.15294" stroke="#000000" stroke-width="2.5" stroke-linecap="round"/><path d="M282.73261,241.57277l-2.57463,-6.08705" fill="none" stroke-opacity="0.15294" stroke="#000000" stroke-width="2.5" stroke-linecap="round"/><path d="M364.96639,207.11697l2.09359,-3.45076" fill="none" stroke-opacity="0.15294" stroke="#000000" stroke-width="2.5" stroke-linecap="round"/><path d="M363.45443,225.64887l0.72186,5.83325" fill="none" stroke-opacity="0.15294" stroke="#000000" stroke-width="2.5" stroke-linecap="round"/><path d="M349.83151,187.84056c0,0 2.04052,-1.838 2.82139,-2.54136c0.5543,-0.49928 1.42164,-1.28053 1.42164,-1.28053" fill="none" stroke-opacity="0.15294" stroke="#000000" stroke-width="2.5" stroke-linecap="round"/><path d="M290.67179,186.80169l-2.48525,-1.15965" fill="none" stroke-opacity="0.15294" stroke="#000000" stroke-width="2.5" stroke-linecap="round"/><path d="M358.5522,193.1312l1.84716,-0.05415" fill="none" stroke-opacity="0.15294" stroke="#000000" stroke-width="2.5" stroke-linecap="round"/><path d="M350.9035,263.91632l1.57283,1.80265" fill="none" stroke-opacity="0.15294" stroke="#000000" stroke-width="2.5" stroke-linecap="round"/><path d="M297.44111,288.28491l1.18116,-2.80777" fill="none" stroke-opacity="0.15294" stroke="#000000" stroke-width="2.5" stroke-linecap="round"/><path d="M303.72753,178.63091l-5.02649,4.15149" fill="none" stroke-opacity="0.15294" stroke="#000000" stroke-width="2.5" stroke-linecap="round"/><path d="M304.1073,191.58558l2.23648,-8.26454" fill="none" stroke-opacity="0.15294" stroke="#000000" stroke-width="2.5" stroke-linecap="round"/><path d="M313.57136,189.21073l-1.5303,6.3371" fill="none" stroke-opacity="0.15294" stroke="#000000" stroke-width="2.5" stroke-linecap="round"/><path d="M322.36211,196.3893l-0.94076,-6.07399" fill="none" stroke-opacity="0.15294" stroke="#000000" stroke-width="2.5" stroke-linecap="round"/><path d="M330.63906,186.04096l2.88494,7.3517" fill="none" stroke-opacity="0.15294" stroke="#000000" stroke-width="2.5" stroke-linecap="round"/><path d="M334.88116,181.14976l5.79348,2.49959" fill="none" stroke-opacity="0.15294" stroke="#000000" stroke-width="2.5" stroke-linecap="round"/><path d="M337.22376,176.50493l5.33986,0.03413" fill="none" stroke-opacity="0.15294" stroke="#000000" stroke-width="2.5" stroke-linecap="round"/><path d="M258.74993,297.43686c0,0 -6.29316,-35.95698 3.53032,-82.18724c9.82349,-46.23026 16.83837,-44.42838 23.3493,-44.31081c7.18008,0.12966 19.68828,5.38345 19.68828,5.38345l-9.07045,159.606c0,0 -12.64613,16.01146 -18.5971,16.18591c-1.22498,0.03591 -18.90034,-54.67733 -18.90034,-54.67733z" fill="url(#color-2)" stroke="#000000" stroke-width="2.5" stroke-linecap="butt"/><path d="M374.27591,348.73749c-6.02241,0.17654 -19.74203,-15.06201 -19.74203,-15.06201l-18.56939,-158.79574c0,0 12.32712,-5.98183 19.57332,-6.5344c6.57089,-0.50106 13.55166,-2.71324 26.20048,42.85825c12.64881,45.57149 8.40996,81.83721 8.40996,81.83721c0,0 -14.63267,55.66035 -15.87235,55.69669z" fill="url(#color-3)" stroke="#000000" stroke-width="2.5" stroke-linecap="butt"/><path d="M296.6749,74.97936c-0.52337,19.75003 -2.18812,39.03132 -7.13379,48.92505c-2.82416,5.64969 -7.99227,6.89478 -11.41743,6.80401c-3.35986,-0.08903 -7.04391,-0.33256 -9.53843,-5.92396c-4.50181,-10.09068 -6.56431,-30.74433 -6.03523,-50.7094c0.29004,-10.94529 -1.51111,-22.32498 0.36194,-30.91839c3.4367,-15.76741 12.09009,-24.97229 18.18928,-24.81067c5.35491,0.1419 11.15316,3.70399 13.94462,16.49421c2.12083,9.71743 1.98402,26.74313 1.62904,40.13914z" fill="#f235e2" stroke="#000000" stroke-width="2.5" stroke-linecap="butt"/><path d="M292.93678,72.33736c-0.30745,13.25593 -1.472,26.19229 -5.13478,32.81274c-2.09159,3.78051 -5.95809,4.59418 -8.52455,4.51859c-2.51752,-0.07417 -5.27856,-0.25344 -7.17138,-4.01763c-3.41591,-6.79317 -5.04962,-20.66675 -4.73881,-34.06702c0.17039,-7.34632 -1.22779,-14.99321 0.13863,-20.75393c2.50711,-10.56992 7.81336,-9.51658 12.38344,-9.38194c4.0124,0.11821 9.50883,-4.66117 11.65496,3.93685c1.63053,6.53238 1.60102,17.96113 1.39249,26.95233z" fill="#ff6fed" stroke="#000000" stroke-width="2.5" stroke-linecap="butt"/><path d="M345.83082,36.94225c4.17407,-12.40803 10.32723,-15.31436 15.66552,-14.86953c6.08027,0.50667 13.67461,10.60303 15.36558,26.6518c0.9216,8.74674 -2.11379,19.86106 -3.023,30.77238c-1.65848,19.90311 -5.96827,40.2071 -11.54709,49.74467c-3.0913,5.28491 -6.77988,5.1239 -10.1293,4.84481c-3.41454,-0.28453 -8.4154,-2.08758 -10.60446,-8.01234c-3.83351,-10.37544 -3.37871,-29.72312 -1.73811,-49.41184c1.11279,-13.35442 2.83959,-30.29288 6.01086,-39.71994z" fill="#f235e2" stroke="#000000" stroke-width="2.5" stroke-linecap="butt"/><path d="M348.02213,47.41833c3.06877,-8.2173 8.0124,-2.92175 12.01372,-2.60139c4.55745,0.36488 9.94661,-0.0931 11.28877,10.56859c0.73149,5.81073 -1.4903,13.17455 -2.1202,20.41362c-1.149,13.20461 -4.28238,26.6629 -8.41699,32.96808c-2.29106,3.49379 -5.05513,3.36959 -7.56568,3.16859c-2.55936,-0.20492 -6.31425,-1.42532 -7.98204,-5.36867c-2.92061,-6.90558 -2.67076,-19.74715 -1.53413,-32.80952c0.77095,-8.85991 1.98505,-20.09617 4.31656,-26.3393z" fill="#ff6fed" stroke="#000000" stroke-width="2.5" stroke-linecap="butt"/><path d="M373.25703,122.16173c0.82055,27.99088 -22.6835,54.33648 -52.92314,55.22295c-30.23965,0.88647 -55.76376,-24.02188 -56.58431,-52.01275c-0.82055,-27.99087 23.02835,-51.40059 53.268,-52.28707c30.23965,-0.88647 55.41891,21.086 56.23947,49.07687z" fill="#f235e2" stroke="#000000" stroke-width="2.5" stroke-linecap="butt"/><path d="M331.71398,114.43627c0.07937,2.70767 -6.50585,5.09761 -14.70851,5.33808c-8.20267,0.24046 -14.91659,-1.75962 -14.99596,-4.46729c-0.07937,-2.70767 6.50585,-5.09761 14.70851,-5.33808c8.20267,-0.24046 14.91659,1.75962 14.99596,4.46729z" fill-opacity="0.18431" fill="#ff0505" stroke="none" stroke-width="0" stroke-linecap="butt"/><g fill="#ff6fed" stroke="#000000" stroke-width="2.5"><path d="M320.22678,74.41955l27.43262,-6.36372l-1.08708,29.57413l-27.64971,-15.68034l-29.34669,10.94148l2.25315,-27.77912z" stroke-linecap="round"/><path d="M329.42581,79.91816c-0.29025,4.50376 -4.95762,7.7133 -10.42487,7.16873c-5.46724,-0.54458 -9.664,-4.63707 -9.37376,-9.14084c0.29025,-4.50376 4.95761,-7.71329 10.42485,-7.16872c5.46724,0.54458 9.66401,4.63704 9.37376,9.14081z" stroke-linecap="butt"/></g><path d="M264.36261,244.27996l24.80154,2.73394" fill="none" stroke-opacity="0.29804" stroke="#000000" stroke-width="2.5" stroke-linecap="round"/><path d="M289.60023,245.02341l3.06059,-22.09176" fill="none" stroke-opacity="0.29804" stroke="#000000" stroke-width="2.5" stroke-linecap="round"/><path d="M288.92684,222.05226l-21.34351,-2.83531" fill="none" stroke-opacity="0.29804" stroke="#000000" stroke-width="2.5" stroke-linecap="round"/><path d="M264.76249,241.05446l2.23188,-16.62876" fill="none" stroke-opacity="0.29804" stroke="#000000" stroke-width="2.5" stroke-linecap="round"/><path d="M296.29588,195.13713l-4.57156,21.1472" fill="none" stroke-opacity="0.29804" stroke="#000000" stroke-width="2.5" stroke-linecap="round"/><path d="M267.4385,214.2769l5.26913,-22.65093" fill="none" stroke-opacity="0.29804" stroke="#000000" stroke-width="2.5" stroke-linecap="round"/><path d="M289.78694,192.36136l-10.66451,-1.17066" fill="none" stroke-opacity="0.29804" stroke="#000000" stroke-width="2.5" stroke-linecap="round"/><path d="M267.37339,303.64013l25.05612,0.24209" fill="none" stroke-opacity="0.29804" stroke="#000000" stroke-width="2.5" stroke-linecap="round"/><path d="M292.44674,301.86454l-1.56555,-22.21637" fill="none" stroke-opacity="0.29804" stroke="#000000" stroke-width="2.5" stroke-linecap="round"/><path d="M287.01172,279.14774l-21.6628,-0.68696" fill="none" stroke-opacity="0.29804" stroke="#000000" stroke-width="2.5" stroke-linecap="round"/><path d="M265.84904,283.68571l1.24936,16.71541" fill="none" stroke-opacity="0.29804" stroke="#000000" stroke-width="2.5" stroke-linecap="round"/><path d="M288.69864,251.71831l-0.12249,21.42998" fill="none" stroke-opacity="0.29804" stroke="#000000" stroke-width="2.5" stroke-linecap="round"/><path d="M264.1801,273.57545l0.499,-22.9909" fill="none" stroke-opacity="0.29804" stroke="#000000" stroke-width="2.5" stroke-linecap="round"/><path d="M270.92252,249.5141l10.77296,0.09922" fill="none" stroke-opacity="0.29804" stroke="#000000" stroke-width="2.5" stroke-linecap="round"/><path d="M377.20605,239.54656l-24.5988,4.1821" fill="none" stroke-opacity="0.29804" stroke="#000000" stroke-width="2.5" stroke-linecap="round"/><path d="M352.05532,241.76712l-4.34945,-21.87454" fill="none" stroke-opacity="0.29804" stroke="#000000" stroke-width="2.5" stroke-linecap="round"/><path d="M372.52269,214.71524l-21.14077,4.08073" fill="none" stroke-opacity="0.29804" stroke="#000000" stroke-width="2.5" stroke-linecap="round"/><path d="M376.61791,236.35001l-3.20216,-16.46946" fill="none" stroke-opacity="0.29804" stroke="#000000" stroke-width="2.5" stroke-linecap="round"/><path d="M342.44885,192.35873l5.80252,20.84309" fill="none" stroke-opacity="0.29804" stroke="#000000" stroke-width="2.5" stroke-linecap="round"/><path d="M372.37787,209.7752l-6.58695,-22.30337" fill="none" stroke-opacity="0.29804" stroke="#000000" stroke-width="2.5" stroke-linecap="round"/><path d="M359.36165,187.4131l-10.57763,1.79335" fill="none" stroke-opacity="0.29804" stroke="#000000" stroke-width="2.5" stroke-linecap="round"/><path d="M352.67884,300.6906l24.9989,-1.70945" fill="none" stroke-opacity="0.29804" stroke="#000000" stroke-width="2.5" stroke-linecap="round"/><path d="M352.54345,298.67739l0.26142,-22.26992" fill="none" stroke-opacity="0.29804" stroke="#000000" stroke-width="2.5" stroke-linecap="round"/><path d="M378.22373,273.72645l-21.58536,1.95477" fill="none" stroke-opacity="0.29804" stroke="#000000" stroke-width="2.5" stroke-linecap="round"/><path d="M378.03054,278.9717l-0.26804,16.75989" fill="none" stroke-opacity="0.29804" stroke="#000000" stroke-width="2.5" stroke-linecap="round"/><path d="M354.72519,269.78372l-1.37766,-21.386" fill="none" stroke-opacity="0.29804" stroke="#000000" stroke-width="2.5" stroke-linecap="round"/><path d="M379.10436,268.78104l-1.84493,-22.92218" fill="none" stroke-opacity="0.29804" stroke="#000000" stroke-width="2.5" stroke-linecap="round"/><path d="M370.96402,245.15598l-10.74865,0.73013" fill="none" stroke-opacity="0.29804" stroke="#000000" stroke-width="2.5" stroke-linecap="round"/><path d="M323.68807,138.66024l-6.70852,4.07621l-4.74692,-3.11966" fill="none" stroke="#000000" stroke-width="2.5" stroke-linecap="round"/><path d="M299.0175,112.16777l-6.90936,6.04905l-5.25798,-4.09787" fill="none" stroke="#000000" stroke-width="2.5" stroke-linecap="round"/><path d="M346.72385,112.40523l-5.00889,4.39884l-7.25184,-5.63392" fill="none" stroke="#000000" stroke-width="2.5" stroke-linecap="round"/><path d="M314.69228,157.64406c1.13119,-0.26844 3.82962,0.68481 6.87921,0.21569c2.29135,-0.35249 5.25923,-2.18622 5.25923,-2.18622l-9.7005,13.82219l-8.58285,-13.09554c0,0 3.08987,1.96887 6.14491,1.24389z" fill="none" stroke="#000000" stroke-width="2.5" stroke-linecap="round"/></g></g></svg>