<svg version="1.1" xmlns="http://www.w3.org/2000/svg" xmlns:xlink="http://www.w3.org/1999/xlink" width="199.85086" height="321.80883" viewBox="0,0,199.85086,321.80883"><defs><linearGradient x1="321.71235" y1="169.56845" x2="316.6619" y2="347.97439" gradientUnits="userSpaceOnUse" id="color-1"><stop offset="0" stop-color="#2b2b2b"/><stop offset="1" stop-color="#171717"/></linearGradient><linearGradient x1="292.27549" y1="31.92262" x2="292.27549" y2="115.90324" gradientUnits="userSpaceOnUse" id="color-2"><stop offset="0" stop-color="#ffffff"/><stop offset="1" stop-color="#8c8c8c"/></linearGradient><linearGradient x1="359.87472" y1="34.95518" x2="359.87472" y2="117.95133" gradientUnits="userSpaceOnUse" id="color-3"><stop offset="0" stop-color="#ffffff"/><stop offset="1" stop-color="#8c8c8c"/></linearGradient><linearGradient x1="387.26946" y1="115.32574" x2="388.26863" y2="150.46564" gradientUnits="userSpaceOnUse" id="color-4"><stop offset="0" stop-color="#ffffff"/><stop offset="1" stop-color="#ececec"/></linearGradient><linearGradient x1="381.69239" y1="143.66767" x2="375.97895" y2="178.35438" gradientUnits="userSpaceOnUse" id="color-5"><stop offset="0" stop-color="#ffffff"/><stop offset="1" stop-color="#ececec"/></linearGradient><linearGradient x1="258.80131" y1="110.86004" x2="255.8158" y2="145.88714" gradientUnits="userSpaceOnUse" id="color-6"><stop offset="0" stop-color="#ffffff"/><stop offset="1" stop-color="#ececec"/></linearGradient><linearGradient x1="264.16053" y1="141.48507" x2="270.30926" y2="176.09729" gradientUnits="userSpaceOnUse" id="color-7"><stop offset="0" stop-color="#ffffff"/><stop offset="1" stop-color="#ececec"/></linearGradient><linearGradient x1="325.38353" y1="77.2279" x2="322.37167" y2="183.62091" gradientUnits="userSpaceOnUse" id="color-8"><stop offset="0" stop-color="#ffffff"/><stop offset="1" stop-color="#ececec"/></linearGradient><linearGradient x1="258.80131" y1="110.86004" x2="255.8158" y2="145.88714" gradientUnits="userSpaceOnUse" id="color-9"><stop offset="0" stop-color="#ffffff"/><stop offset="1" stop-color="#ececec"/></linearGradient><linearGradient x1="387.26946" y1="115.32574" x2="388.26863" y2="150.46564" gradientUnits="userSpaceOnUse" id="color-10"><stop offset="0" stop-color="#ffffff"/><stop offset="1" stop-color="#ececec"/></linearGradient><linearGradient x1="381.69239" y1="143.66767" x2="375.97895" y2="178.35438" gradientUnits="userSpaceOnUse" id="color-11"><stop offset="0" stop-color="#ffffff"/><stop offset="1" stop-color="#ececec"/></linearGradient><linearGradient x1="264.16053" y1="141.48507" x2="270.30926" y2="176.09729" gradientUnits="userSpaceOnUse" id="color-12"><stop offset="0" stop-color="#ffffff"/><stop offset="1" stop-color="#ececec"/></linearGradient><linearGradient x1="264.47323" y1="141.49392" x2="270.62198" y2="176.10614" gradientUnits="userSpaceOnUse" id="color-13"><stop offset="0" stop-color="#ffffff"/><stop offset="1" stop-color="#ececec"/></linearGradient></defs><g transform="translate(-227.33463,-28.85695)"><g stroke-miterlimit="10"><g stroke="#000000" stroke-width="2.5" stroke-linecap="butt"><path d="M270.25158,344.25448c0,0 0.88033,-62.82652 1.25262,-89.39605c0.29949,-21.37409 -2.5114,-62.85382 -2.5114,-62.85382c0,0 10.59637,-20.58673 20.30117,-20.84319c9.63765,-0.25466 32.4704,-0.46124 52.42405,-0.98851c21.64207,-0.57188 29.83082,19.53448 29.83082,19.53448l-6.30504,159.64229z" fill="url(#color-1)"/><path d="M339.03238,180.03145c-0.24139,8.52702 -8.33709,15.2159 -18.08226,14.94002c-9.74517,-0.27587 -17.4495,-7.41202 -17.20811,-15.93905c0.24139,-8.52702 8.33709,-15.2159 18.08226,-14.94002c9.74517,0.27587 17.4495,7.41202 17.20811,15.93905z" fill="#ffffff"/><path d="M369.82814,192.33746c-0.24139,8.52702 0.87107,16.34246 -2.82146,16.23793c-3.69253,-0.10453 -10.79178,-8.08945 -10.55039,-16.61647c0.24139,-8.52702 -0.62349,-14.8923 3.06905,-14.78777c3.69253,0.10453 10.54419,6.63928 10.3028,15.16631z" fill="#ffffff"/><path d="M282.4168,176.77421c3.69253,0.10453 2.46895,6.41068 2.22756,14.93771c-0.24139,8.52702 -7.78098,16.09753 -11.47353,15.993c-3.69253,-0.10453 -2.13972,-7.84452 -1.89833,-16.37154c0.24139,-8.52702 7.45175,-14.6637 11.14429,-14.55917z" fill="#ffffff"/></g><g stroke="#000000" stroke-width="2.5"><path d="M273.65566,115.90324l-15.02451,-83.98062l67.28867,54.09582z" fill="url(#color-2)" stroke-linecap="butt"/><path d="M324.7541,85.1577l70.24123,-50.20252l-19.75142,82.99615z" fill="url(#color-3)" stroke-linecap="butt"/><path d="M372.87826,115.73495c5.89311,1.29649 7.71525,4.70385 13.08529,7.64872c7.84932,4.30448 11.66135,13.00899 13.33256,22.27806c0.2635,1.46147 -0.15278,7.70793 -0.15278,7.70793c0,0 -4.20291,-1.42785 -6.95676,-1.73705c-6.54182,-0.73452 -8.2984,-2.55424 -14.88967,-2.36682c-1.54558,0.04394 -7.85293,0.77406 -8.98167,-0.02277c-1.33564,-0.94288 -1.06112,-6.36007 -1.10469,-7.8506c-0.22728,-7.77499 1.0446,-18.3387 5.03386,-25.21568z" fill="url(#color-4)" stroke-linecap="round"/><path d="M367.48678,141.32779c5.5382,2.39542 12.10948,4.73713 16.82016,8.65109c6.88554,5.72098 8.1233,16.46615 7.99811,25.88384c-0.01974,1.48491 -1.61836,7.53766 -1.61836,7.53766c0,0 -3.00772,-3.67623 -5.65224,-4.5044c-6.28209,-1.96731 -13.09146,-2.73797 -19.59771,-3.80965c-1.52565,-0.25129 -7.85659,-0.73614 -8.81286,-1.73341c-1.13155,-1.18006 0.16994,-6.44574 0.41111,-7.91728c1.25806,-7.67591 4.51907,-17.80384 9.74539,-23.79491z" fill="url(#color-5)" stroke-linecap="round"/><path d="M273.75415,112.55967c3.59383,7.09165 4.26607,17.71038 3.59931,25.46008c-0.12782,1.48568 -0.16021,6.90972 -1.54705,7.77554c-1.17201,0.7317 -7.42797,-0.35406 -8.96859,-0.48538c-6.57009,-0.55999 -6.31255,2.29045 -12.88545,2.6537c-2.76695,0.15292 -10.92507,-0.55776 -10.92507,-0.55776c0,0 -0.06223,-6.26 0.28352,-7.70422c2.1929,-9.15968 3.32495,-19.51283 11.40522,-23.36637c5.52804,-2.63637 12.47327,-3.29148 18.43029,-4.25251z" fill="url(#color-6)" stroke-linecap="round"/><path d="M279.04587,139.27099c5.30115,5.92494 8.68916,16.01111 10.04355,23.67061c0.25965,1.46839 1.62719,6.71731 0.51055,7.91149c-0.94368,1.00921 -7.26801,1.57353 -8.79038,1.84398c-6.49228,1.15334 -13.29144,2.00947 -19.54831,4.05555c-2.63392,0.86132 -3.65186,6.05532 -3.65186,6.05532c0,0 -1.67454,-6.03221 -1.71293,-7.51674c-0.2435,-9.41537 -1.08415,-21.65551 5.72897,-27.46254c4.66114,-3.97284 11.20248,-6.39692 16.71016,-8.86171z" fill="url(#color-7)" stroke-linecap="round"/><path d="M378.44318,134.19465c-2.7464,28.42183 -29.41504,52.1171 -59.52742,49.20733c-30.11238,-2.90976 -52.26557,-31.32269 -49.51916,-59.74451c2.7464,-28.42182 29.38373,-49.10344 59.49611,-46.19366c30.11238,2.90976 52.2969,28.30902 49.5505,56.73084z" fill="url(#color-8)" stroke-linecap="butt"/><path d="M266.83783,145.3099c-6.57009,-0.55999 -6.31255,2.29045 -12.88545,2.6537c-2.76695,0.15292 -10.92507,-0.55776 -10.92507,-0.55776c0,0 -0.06223,-6.26 0.28352,-7.70422c2.1929,-9.15968 3.32495,-19.51283 11.40522,-23.36637c5.1397,-2.45116 11.50448,-3.18965 17.16107,-4.05371c7.74885,-22.34638 31.09475,-37.32247 57.0156,-34.81772c30.11238,2.90976 52.2969,28.30902 49.5505,56.73084h-0.00002c-2.7464,28.42183 -29.41504,52.1171 -59.52742,49.20733c-22.06826,-2.13246 -39.86172,-17.96238 -46.71245,-37.45489c-2.11499,-0.18342 -4.49425,-0.56292 -5.36549,-0.63718z" fill="url(#color-9)" stroke-linecap="round"/><path d="M385.96356,123.38367c7.84932,4.30448 11.66135,13.00899 13.33256,22.27806c0.2635,1.46147 -0.15278,7.70793 -0.15278,7.70793c0,0 -4.20291,-1.42785 -6.95676,-1.73705c-6.54182,-0.73452 -8.2984,-2.55424 -14.88967,-2.36682c-0.51327,0.01459 -1.55167,0.10485 -2.75116,0.18975c-8.91192,21.07099 -31.13123,36.31376 -55.62997,33.94644c-22.06826,-2.13246 -39.86172,-17.96238 -46.71245,-37.45489c-2.11499,-0.18342 -4.49425,-0.56292 -5.36549,-0.63718c-6.57009,-0.55999 -6.31255,2.29045 -12.88545,2.6537c-2.76695,0.15292 -10.92507,-0.55776 -10.92507,-0.55776c0,0 -0.06223,-6.26 0.28352,-7.70422c2.1929,-9.15968 3.32495,-19.51283 11.40522,-23.36637c5.1397,-2.45116 11.50448,-3.18965 17.16107,-4.05371c7.74885,-22.34638 31.09475,-37.32247 57.0156,-34.81772c23.68298,2.28848 42.46208,18.48809 48.06553,39.12836c4.82438,1.00309 4.83735,4.50583 9.00532,6.79151z" fill="url(#color-10)" stroke-linecap="round"/><path d="M384.30695,149.97889c6.88554,5.72098 8.1233,16.46615 7.99811,25.88384c-0.01974,1.48491 -1.61836,7.53766 -1.61836,7.53766c0,0 -3.00772,-3.67623 -5.65224,-4.5044c-6.28209,-1.96731 -13.09146,-2.73797 -19.59771,-3.80965c-1.52565,-0.25129 -7.85659,-0.73614 -8.81286,-1.73341c-0.1545,-0.16114 -0.26365,-0.39844 -0.33633,-0.69185c-10.40038,7.78934 -23.52182,12.07922 -37.37178,10.7409c-22.06826,-2.13246 -39.86172,-17.96238 -46.71245,-37.45489c-2.11499,-0.18342 -4.49425,-0.56292 -5.36549,-0.63718c-6.57009,-0.55999 -6.31255,2.29045 -12.88545,2.6537c-2.76695,0.15292 -10.92507,-0.55776 -10.92507,-0.55776c0,0 -0.06223,-6.26 0.28352,-7.70422c2.1929,-9.15968 3.32495,-19.51283 11.40522,-23.36637c5.1397,-2.45116 11.50448,-3.18965 17.16107,-4.05371c7.74885,-22.34638 31.09475,-37.32247 57.0156,-34.81772c23.68298,2.28848 42.46208,18.48809 48.06553,39.12836c4.82438,1.00309 4.83735,4.50583 9.00532,6.79151c7.84932,4.30448 11.66135,13.00899 13.33256,22.27806c0.2635,1.46147 -0.15278,7.70793 -0.15278,7.70793c0,0 -4.20291,-1.42785 -6.95676,-1.73705c-4.63168,-0.52005 -4.33365,-2.76126 -9.06767,-2.58081c0.40734,0.29916 0.80388,0.60789 1.18804,0.92708z" fill="url(#color-11)" stroke-linecap="round"/><path d="M280.80959,172.69707c-6.49228,1.15334 -13.29144,2.00947 -19.54831,4.05555c-2.63392,0.86132 -3.65186,6.05532 -3.65186,6.05532c0,0 -1.67454,-6.03221 -1.71293,-7.51674c-0.2435,-9.41537 -1.08415,-21.65551 5.72897,-27.46254c1.13648,-0.96866 2.38473,-1.84525 3.70253,-2.6528c-6.09672,-0.55998 -5.305,2.45226 -11.37563,2.78776c-2.76695,0.15292 -10.92507,-0.55776 -10.92507,-0.55776c0,0 -0.06223,-6.26 0.28352,-7.70422c2.1929,-9.15968 3.32495,-19.51283 11.40522,-23.36637c5.1397,-2.45116 11.50448,-3.18965 17.16107,-4.05371c7.74885,-22.34638 31.09475,-37.32247 57.0156,-34.81772c23.68298,2.28848 42.46208,18.48809 48.06553,39.12836c4.82438,1.00309 4.83735,4.50583 9.00532,6.79151c7.84932,4.30448 11.66135,13.00899 13.33256,22.27806c0.2635,1.46147 -0.15278,7.70793 -0.15278,7.70793c0,0 -4.20291,-1.42785 -6.95676,-1.73705c-4.63168,-0.52005 -4.33365,-2.76126 -9.06767,-2.58081c0.40734,0.29916 0.80388,0.60789 1.18804,0.92708c6.88554,5.72098 8.1233,16.46615 7.99811,25.88384c-0.01974,1.48491 -1.61836,7.53766 -1.61836,7.53766c0,0 -3.00772,-3.67623 -5.65224,-4.5044c-6.28209,-1.96731 -13.09146,-2.73797 -19.59771,-3.80965c-1.52565,-0.25129 -7.85659,-0.73614 -8.81286,-1.73341c-0.1545,-0.16114 -0.26365,-0.39844 -0.33633,-0.69185c-10.40038,7.78934 -23.52182,12.07922 -37.37178,10.7409c-11.18102,-1.08043 -21.26471,-5.67699 -29.38382,-12.48459c-1.14466,0.96897 -7.23262,1.51502 -8.72235,1.77967z" fill="url(#color-12)" stroke-linecap="round"/><path d="M281.1223,172.70592c-6.49228,1.15334 -13.29144,2.00947 -19.54831,4.05555c-2.63391,0.86132 -3.65185,6.05532 -3.65185,6.05532c0,0 -1.67454,-6.03221 -1.71293,-7.51674c-0.2435,-9.41537 -1.08416,-21.65551 5.72897,-27.46254c1.13648,-0.96866 2.38473,-1.84525 3.70252,-2.6528c-6.09672,-0.55998 -5.305,2.45226 -11.37562,2.78776c-2.76695,0.15292 -10.92507,-0.55776 -10.92507,-0.55776c0,0 -0.06223,-6.26 0.28352,-7.70422c2.1929,-9.15968 3.32495,-19.51283 11.40522,-23.36637c5.1397,-2.45116 11.50447,-3.18965 17.16106,-4.05371c7.74885,-22.34638 31.09475,-37.32247 57.0156,-34.81772c23.68298,2.28848 42.46209,18.48809 48.06553,39.12836c4.82438,1.00309 4.83735,4.50583 9.00532,6.79151c7.84932,4.30448 11.66135,13.00899 13.33256,22.27806c0.2635,1.46147 -0.15278,7.70793 -0.15278,7.70793c0,0 -4.20291,-1.42785 -6.95676,-1.73705c-4.63168,-0.52005 -4.33365,-2.76126 -9.06766,-2.5808c0.40734,0.29916 0.80388,0.60789 1.18804,0.92708c6.88554,5.72098 8.1233,16.46615 7.99811,25.88384c-0.01974,1.48491 -1.61836,7.53766 -1.61836,7.53766c0,0 -3.00772,-3.67623 -5.65224,-4.5044c-6.28209,-1.96731 -13.09146,-2.73797 -19.59771,-3.80965c-1.52565,-0.25129 -7.85659,-0.73614 -8.81286,-1.73341c-0.1545,-0.16114 -0.26365,-0.39844 -0.33633,-0.69185c-10.40038,7.78934 -23.52183,12.07922 -37.37179,10.7409c-11.18102,-1.08043 -21.2647,-5.67699 -29.38382,-12.48459c-1.14466,0.96897 -7.23262,1.51502 -8.72235,1.77967z" fill="url(#color-13)" stroke-linecap="round"/><path d="M376.22014,111.54979c0.15558,-5.49594 9.10186,-9.47146 13.56323,-10.2702c12.09838,-2.166 27.30101,1.88916 36.15212,10.70805" fill="none" stroke-linecap="round"/><path d="M376.12277,114.98956c10.28064,-6.44117 34.08775,4.35482 40.30234,13.34008" fill="none" stroke-linecap="round"/><path d="M228.58463,95.93166c2.93968,-1.79915 6.12511,-4.6291 9.6074,-5.18898c10.29661,-1.65552 21.06743,6.68159 28.76346,12.30323c2.71073,1.98008 6.4255,4.3504 8.21595,7.20811" fill="none" stroke-linecap="round"/><path d="M238.84851,113.19693c1.1932,-1.72029 2.6759,-4.19272 4.5721,-5.19998c2.26747,-1.2045 6.49762,-0.40527 8.92811,-0.05526c6.52981,0.94035 13.34177,1.38843 19.6691,3.16193" fill="none" stroke-linecap="round"/></g><path d="M288.77085,157.06851l-5.71612,0.97589" fill="none" stroke="#000000" stroke-width="2.5" stroke-linecap="round"/><path d="M360.80709,162.0741l-19.03158,5.14974l-21.28149,-3.78801l-16.93388,3.38879l-17.28125,-8.4531" fill="none" stroke="#000000" stroke-width="2.5" stroke-linecap="round"/><path d="M337.48703,127.92442c-0.07665,2.70776 -6.78856,4.71458 -14.99146,4.48237c-8.20291,-0.23221 -14.79053,-2.61553 -14.71388,-5.32329c0.07665,-2.70776 6.78856,-4.71458 14.99146,-4.48237c8.20291,0.23221 14.79053,2.61553 14.71388,5.32329z" fill-opacity="0.18431" fill="#ff0505" stroke="none" stroke-width="0" stroke-linecap="butt"/><path d="M301.60753,123.41586c-0.06324,2.23397 -2.10218,3.98869 -4.5541,3.91928c-2.45192,-0.06941 -4.38832,-1.93667 -4.32508,-4.17064c0.06324,-2.23398 2.10218,-3.9887 4.5541,-3.91929c2.45192,0.06941 4.38832,1.93667 4.32508,4.17065z" fill="#ffffff" stroke="#000000" stroke-width="2.5" stroke-linecap="butt"/><path d="M351.36872,125.07059c-0.06324,2.23397 -2.10218,3.98869 -4.5541,3.91928c-2.45192,-0.06941 -4.38832,-1.93667 -4.32508,-4.17064c0.06324,-2.23398 2.10218,-3.9887 4.5541,-3.91929c2.45192,0.06941 4.38832,1.93667 4.32508,4.17065z" fill="#ffffff" stroke="#000000" stroke-width="2.5" stroke-linecap="butt"/><path d="M359.39482,158.94534l4.46992,2.85701" fill="none" stroke="#000000" stroke-width="2.5" stroke-linecap="round"/></g></g></svg>