<svg version="1.1" xmlns="http://www.w3.org/2000/svg" xmlns:xlink="http://www.w3.org/1999/xlink" width="167.0251" height="368.51032" viewBox="0,0,167.0251,368.51032"><defs><radialGradient cx="256.25062" cy="77.35355" r="6.90405" gradientUnits="userSpaceOnUse" id="color-1"><stop offset="0" stop-color="#1a1a1a"/><stop offset="1" stop-color="#ffffff"/></radialGradient><radialGradient cx="289.20784" cy="80.0576" r="8.94704" gradientUnits="userSpaceOnUse" id="color-2"><stop offset="0" stop-color="#1a1a1a"/><stop offset="1" stop-color="#ffffff"/></radialGradient></defs><g transform="translate(-170.99458,-13.54589)"><g stroke-width="2" stroke-miterlimit="10"><path d="M231.96378,232.22382c5.82624,0.49957 13.86754,-0.16858 19.84376,-0.67801c6.51614,-0.55544 14.98828,1.66188 21.5109,2.3851c3.83149,0.42485 15.45274,2.61593 15.45274,2.61593l1.53153,6.80775l4.23456,21.73462l-1.90751,24.33887c0,0 -1.08445,30.99345 -7.51888,45.9007c-2.81371,6.51887 4.55579,15.56736 -4.90288,18.69438c-3.34941,1.10729 -12.33725,9.52055 -15.86493,9.12941c-5.11763,-0.56744 -10.55096,-7.83758 -16.64524,-9.98414c-7.75975,-2.73318 -24.69406,-0.81126 -24.69406,-0.81126l-7.50563,-8.83579l4.36869,-21.94288c0,0 4.08369,-32.94416 7.6101,-54.10035c1.15879,-6.95179 -0.75284,-30.87967 3.05023,-35.41245z" fill="#3c2c1f" stroke="#000000" stroke-linecap="round"/><path d="M248.83348,352.07742l12.90088,-101.88677" fill="none" stroke="#000000" stroke-linecap="round"/><path d="M249.7761,359.86769c-1.37761,11.51871 -3.20462,21.22589 -14.22093,20.00444c-11.0163,-1.22149 -25.67262,-24.42779 -25.67262,-24.42779c0,0 11.42486,-19.86631 22.44116,-18.64481c11.0163,1.22149 18.82998,11.54943 17.45238,23.06818z" fill="#000000" stroke="#000000" stroke-linecap="butt"/><path d="M289.54931,360.77167c-1.37763,11.51874 -5.64345,21.40365 -16.65975,20.18215c-11.01628,-1.22148 -24.61141,-13.08679 -23.2338,-24.60552c1.37763,-11.51874 11.42486,-19.8663 22.44116,-18.64481c11.0163,1.22149 18.82999,11.54944 17.45238,23.06818z" fill="#000000" stroke="#000000" stroke-linecap="butt"/><path d="M247.27485,224.78361c-8.02528,3.73909 -27.69344,-2.39907 -27.69344,-2.39907l-47.36238,-63.22609l30.1708,-45.21717l21.29475,-0.67203l-0.24009,7.62861l-14.38526,10.16925l-11.96857,42.48305c0,0 26.0687,22.93126 42.2048,20.85516c8.34124,-1.07321 16.74763,-5.3196 25.19826,-2.65806c25.05437,7.89092 -0.54796,30.56439 -16.0101,33.39194z" fill="#feed00" stroke="#000000" stroke-linecap="round"/><g><path d="M285.67025,212.9484l19.02569,-5.75282l1.43554,30.22622l-5.76945,4.98509l-1.21,-2.99084l-2.23625,5.41333l-7.66472,7.02665l-2.12131,-7.27341l-9.69359,1.39458l1.99414,-15.21493c0,0 -6.59016,1.13401 -6.25306,-7.13654c0.31007,-7.60666 12.4496,-11.05005 12.4496,-11.05005z" fill="#feed00" stroke="#000000" stroke-linecap="round"/><path d="M300.13274,228.34894l-4.33002,2.74795l-2.11287,-5.38028l-2.02194,-4.52733l7.3143,-4.94784l8.04616,-0.24326l-6.89563,12.35076z" fill="#ffa600" stroke="none" stroke-linecap="butt"/><path d="M280.11908,224.8972c0,0 -3.44951,2.62692 -4.5255,0.89831c-1.07596,-1.72864 -0.79433,-4.93351 0.62904,-7.15826c1.42337,-2.22476 3.44951,-2.62692 4.5255,-0.89831c1.07596,1.72864 -0.62903,7.15826 -0.62903,7.15826z" fill="#ffa600" stroke="none" stroke-linecap="butt"/><path d="M283.99762,244.30731l-4.4668,0.88371l0.61902,-7.06541l4.46679,-0.88372z" fill="#ffa600" stroke="none" stroke-linecap="butt"/><path d="M293.70811,246.72881l-4.09148,1.37775l0.92559,-6.46395l4.09148,-1.37775z" fill="#ffa600" stroke="none" stroke-linecap="butt"/><path d="M305.27275,236.98954l-3.44261,1.98453l1.29953,-5.4275l3.44262,-1.98454z" fill="#ffa600" stroke="none" stroke-linecap="butt"/></g><g><path d="M220.25952,216.1963c2.71214,-2.15097 12.07115,2.01684 13.03628,9.7394c1.04934,8.39656 -4.87146,6.28973 -5.43947,8.05187c-0.1094,0.33933 8.21662,10.13164 7.09709,13.90611c-2.06902,6.97568 -9.52062,-0.22799 -9.52062,-0.22799l-1.42143,7.68221l-8.04545,-6.22425l-6.47559,-3.87609l2.9225,1.82932l-9.86394,-3.00373l3.10991,-32.54869c0,0 10.26652,3.2545 14.59122,5.05741z" fill="#feed00" stroke="#000000" stroke-linecap="round"/><path d="M204.16635,220.79291l7.82274,-0.74361l3.16561,5.67972l-1.56498,4.86828l-1.5786,5.74969l-4.43837,-2.26989l-3.40637,-13.28422z" fill="#ffa600" stroke="none" stroke-linecap="butt"/><path d="M225.44101,220.86283c0.89224,-1.89629 2.8919,-1.73569 4.46637,0.3587c1.57444,2.0944 2.12746,5.32948 1.23519,7.22575c-0.89224,1.89629 -2.89191,1.73571 -4.46636,-0.35868c-1.57444,-2.0944 -2.12748,-5.32946 -1.2352,-7.22575z" fill="#ffa600" stroke="none" stroke-linecap="butt"/><path d="M227.22829,239.86648c0,0 2.85471,-1.7154 4.40814,0.35104c1.55343,2.06646 2.09849,5.25969 1.21738,7.13226c-0.88112,1.87257 -4.40815,-0.35103 -4.40815,-0.35103z" fill="#ffa600" stroke="none" stroke-linecap="butt"/><path d="M213.94548,245.55659l7.92186,-0.46991l1.46209,6.48084l-4.08743,-0.90135z" fill="#ffa600" stroke="none" stroke-linecap="butt"/><path d="M201.60967,238.14907l3.51129,1.60041l1.73415,5.37728l-3.51128,-1.6004z" fill="#ffa600" stroke="none" stroke-linecap="butt"/></g><path d="M230.2347,196.83802c-2.03692,7.04694 -12.00221,26.48823 -12.00221,26.48823l-24.44259,-7.20132l10.31949,-23.82631l21.83946,-60.74841c0,0 6.6809,-9.31236 8.85603,-14.54773l1.17531,0.07556c12.91104,3.20507 24.32616,10.00417 38.29958,8.56672c5.59237,-0.57528 9.78799,-2.65294 14.05745,-6.85908c0.97615,-0.96167 3.77541,-3.26265 5.17153,-2.1609c3.14217,2.47967 6.14087,15.65155 6.14087,15.65155l12.60202,51.06599l3.78105,18.13515l-19.97419,17.66424l-5.76456,3.12617l2.16725,-26.48822l-4.37135,27.61582l-0.32223,15.70522c0,0 -10.63698,3.94154 -13.54933,4.23236c-11.78057,1.17634 -23.7224,-1.60284 -35.49598,-0.38415c-3.82679,0.39613 -9.64114,4.24427 -12.91722,2.1383c-1.74603,-1.12244 -4.45177,-8.13477 -4.34863,-10.08408c0.45408,-8.58179 -0.21715,-18.46281 1.73892,-26.84072" fill="#fffe8a" stroke="#000000" stroke-linecap="round"/><path d="M247.09202,164.78609c1.21246,0.60062 4.67269,0.39013 5.06427,2.11652c1.31327,5.79007 -2.97289,10.86352 -7.77031,9.60707c-3.19455,-0.83666 3.13531,-12.50415 3.13531,-12.50415c0,0 1.72495,-26.48809 4.92221,-39.26671" fill="#ffaf36" stroke="#000000" stroke-linecap="round"/><path d="M273.85317,166.04549c10.24192,-11.73167 7.302,20.23842 -1.98374,11.03024c-5.02756,-4.98556 1.76501,-9.33775 2.41966,-12.13635c3.08996,-13.20996 -1.1637,-27.52614 3.15108,-40.89366" fill="#ffaf36" stroke="#000000" stroke-linecap="round"/><path d="M233.18936,199.82361c3.71672,-3.08378 8.10744,-2.40218 12.36326,-3.05172c13.72646,-2.09501 28.86096,-0.76215 42.29211,1.98201" fill="none" stroke="#000000" stroke-linecap="round"/><path d="M283.57201,234.08048c0.41988,-9.9309 5.93572,-30.79097 5.93572,-30.79097" fill="none" stroke="#000000" stroke-linecap="round"/><path d="M233.43983,204.58175c-0.50277,9.50128 -5.14749,19.79149 -5.85125,29.26814" fill="none" stroke="#000000" stroke-linecap="round"/><path d="M209.95698,221.34544l19.84495,-42.17321l-14.04632,41.74066z" fill="#fce541" stroke="#fcec41" stroke-linecap="round"/><path d="M208.1656,215.26267l19.84495,-42.17321l-14.04631,41.74066z" fill="#fce541" stroke="#fcec41" stroke-linecap="round"/><path d="M295.43939,211.88588l-0.90146,-34.50512l11.55811,28.34906z" fill="#fce541" stroke="#fcec41" stroke-linecap="round"/><path d="M245.75724,109.18445c14.27151,0.21523 28.16585,0.28106 42.07253,4.0921c2.96574,0.81274 13.26402,3.94429 11.57743,8.43042c-2.29224,6.09707 -9.09692,8.18895 -15.08304,8.46813c-10.79155,0.5033 -35.30548,-3.35028 -43.55511,-10.53481c-5.87127,-5.11321 -2.73403,-12.1556 5.17079,-10.64285z" fill="#fffe8a" stroke="#000000" stroke-linecap="round"/><g stroke-linecap="butt"><path d="M251.61295,48.51721l-16.21079,33.70771l-4.99815,14.42678l-0.1831,-2.21779l-1.26494,-17.7305l-0.91844,-44.48325l0.84863,-17.59168l1.96802,0.16407l12.62841,18.04387l8.91301,15.46454z" fill="#feed00" stroke="#000000"/><path d="M246.68371,50.18884l-9.59977,24.15676l-2.83357,10.12628l-0.18977,-1.45235l-1.38636,-11.63282l-1.99589,-29.43236l0.0072,-11.77244l1.29864,-0.10686l8.86495,10.59473l6.3422,9.28969z" fill="#ffa700" stroke="none"/></g><g stroke-linecap="butt"><path d="M287.53783,50.3921l8.44088,-13.14558c0,0 7.81437,-10.39553 11.83468,-15.2988c0.78237,-0.95424 1.10378,-2.02564 1.75886,-0.10642c1.02225,2.99497 0.18828,15.14751 0.18828,15.14751l-2.25439,38.24867l-1.69949,15.22965l-0.23476,1.90451c0,0 -3.64762,-11.17715 -3.98772,-12.49821c-3.09464,-12.02078 -13.35597,-29.28154 -13.35597,-29.28154z" fill="#feed00" stroke="#000000"/><path d="M292.12139,51.91053l5.95091,-7.87927l8.24086,-8.95733l1.15367,0.11486l-0.37362,10.12689l-2.72855,25.28275c0,0 -1.13447,6.64579 -1.61081,9.98218c-0.05984,0.41913 0.01711,1.13358 -0.21597,1.24599c-0.56138,0.27066 -2.0188,-7.84331 -2.19787,-8.76069c-1.6295,-8.34776 -7.77375,-20.94913 -7.77375,-20.94913z" fill="#ffa700" stroke="none"/></g><path d="M267.07855,46.30997l29.95297,9.10866c0,0 5.30551,13.87809 6.7781,22.46397c0.45228,2.63697 2.36072,7.58399 2.36072,7.58399c0,0 -9.20084,38.63488 -30.57554,39.58275c-17.90227,0.79392 -47.82034,-20.21469 -47.82034,-20.21469l3.25857,-32.04891l2.24045,-11.67119l34.14093,-14.50921z" fill="#feed00" stroke="#000000" stroke-linecap="butt"/><path d="M302.38683,89.58778c4.25563,0.65556 10.41468,11.50088 10.41468,11.50088l-7.78859,3.09867l1.23562,2.54373l0.53126,8.45419c0,0 -11.24185,2.65118 -14.03727,-0.4636" fill="#feed00" stroke="#000000" stroke-linecap="round"/><path d="M234.28626,113.89954l-13.98638,-1.28139l1.57597,-8.32297l1.54162,-2.37079l-7.34401,-4.04095l11.76099,-10.12003" fill="#feed00" stroke="#000000" stroke-linecap="round"/><path d="M191.90939,64.57363l35.43515,19.63692" fill="none" stroke="#000000" stroke-linecap="round"/><path d="M227.61895,85.46047l-31.78955,-6.38739" fill="none" stroke="#000000" stroke-linecap="round"/><path d="M226.7199,85.75671l-26.84762,1.49555" fill="none" stroke="#000000" stroke-linecap="round"/><path d="M337.01968,70.96292l-31.51939,16.70533" fill="none" stroke="#000000" stroke-linecap="round"/><path d="M302.81417,88.38157c11.42775,-7.13382 33.6435,-1.63274 33.6435,-1.63274" fill="none" stroke="#000000" stroke-linecap="round"/><path d="M306.23545,90.0035l26.81819,6.01383" fill="none" stroke="#000000" stroke-linecap="round"/><path d="M260.608,95.81011c3.71281,0.2312 7.637,0.23386 11.29437,0.92301c0.46418,0.08746 1.27943,-0.06324 1.35874,0.40245c0.10389,0.60997 -6.78397,3.96285 -7.54625,3.85819c-1.71411,-0.23531 -4.09964,-3.7679 -4.68961,-5.15765z" fill="#000000" stroke="#000000" stroke-linecap="round"/><path d="M262.72987,77.24658c-0.4399,7.06447 -6.4366,12.4401 -13.39402,12.00691c-6.95743,-0.43322 -11.80101,-13.57575 -11.80101,-13.57575c0,0 6.43658,-12.4401 13.39398,-12.00688c6.95743,0.43322 12.24093,6.51127 11.80103,13.57574z" fill="#ffffff" stroke="#000000" stroke-linecap="butt"/><path d="M297.75653,79.00429c-0.4399,7.06447 -6.43658,12.44011 -13.39399,12.00691c-6.95743,-0.43322 -12.24089,-6.51128 -11.80101,-13.57573c0.4399,-7.06447 6.43658,-12.44011 13.39398,-12.0069c6.95743,0.43322 12.24089,6.51128 11.801,13.57574z" fill="#ffffff" stroke="#000000" stroke-linecap="butt"/><path d="M262.33522,76.93618c-0.21776,3.49729 -3.4708,8.59363 -6.83358,8.38423c-3.36278,-0.20939 -5.56188,-5.64522 -5.34414,-9.14251c0.21776,-3.49729 3.12038,-6.16266 6.48315,-5.95326c3.36279,0.2094 5.9123,3.21424 5.69455,6.71155z" fill="url(#color-1)" stroke="#000000" stroke-linecap="butt"/><path d="M296.59794,79.37345c-0.2735,4.39242 -3.68846,11.12963 -7.91194,10.86666c-4.2235,-0.26297 -7.65623,-7.42657 -7.3827,-11.81902c0.2735,-4.39242 3.91906,-7.74003 8.14256,-7.47702c4.2235,0.26297 7.4256,4.03694 7.15209,8.4294z" fill="url(#color-2)" stroke="#000000" stroke-linecap="butt"/><path d="M249.01368,51.11879l8.31038,-5.62054l3.82435,-1.54031l-4.59367,-2.51429l13.85889,-1.1709l4.24336,0.25969l-5.58649,-3.87627l5.36235,1.62865l10.57391,11.30011" fill="#feed00" stroke="#000000" stroke-linecap="butt"/><path d="M234.44237,67.00546l-3.87939,-5.16955l-5.53776,-3.43149l7.58846,-2.99176l8.01004,-2.6998" fill="#feed00" stroke="#000000" stroke-linecap="butt"/><path d="M279.21249,123.01107c-2.40188,-1.3944 -3.66547,-4.25679 -5.75524,-6.12507" fill="none" stroke="#fcec41" stroke-linecap="round"/><path d="M261.44457,131.91799l-1.80143,9.4136" fill="none" stroke="#fcec41" stroke-linecap="round"/><path d="M261.64262,138.66085l0.92268,-4.8216" fill="none" stroke="#fcec41" stroke-linecap="round"/><path d="M268.43167,138.50271l0.0142,-3.80541" fill="none" stroke="#fcec41" stroke-linecap="round"/></g></g></svg>