<svg version="1.1" xmlns="http://www.w3.org/2000/svg" xmlns:xlink="http://www.w3.org/1999/xlink" width="201.7615" height="332.91491" viewBox="0,0,201.7615,332.91491"><defs><linearGradient x1="308.69386" y1="256.40473" x2="309.28731" y2="325.48086" gradientUnits="userSpaceOnUse" id="color-1"><stop offset="0" stop-color="#545454"/><stop offset="1" stop-color="#2f2f2f"/></linearGradient><linearGradient x1="314.31644" y1="225.03833" x2="314.90989" y2="294.11447" gradientUnits="userSpaceOnUse" id="color-2"><stop offset="0" stop-color="#545454"/><stop offset="1" stop-color="#2f2f2f"/></linearGradient><linearGradient x1="309.72164" y1="195.86141" x2="310.31508" y2="264.93754" gradientUnits="userSpaceOnUse" id="color-3"><stop offset="0" stop-color="#545454"/><stop offset="1" stop-color="#2f2f2f"/></linearGradient><linearGradient x1="309.74151" y1="198.98876" x2="311.19853" y2="368.58492" gradientUnits="userSpaceOnUse" id="color-4"><stop offset="0" stop-color="#4e2710"/><stop offset="1" stop-color="#3a1a09"/></linearGradient><linearGradient x1="311.34123" y1="199.02007" x2="311.55156" y2="223.50089" gradientUnits="userSpaceOnUse" id="color-5"><stop offset="0" stop-color="#e07130"/><stop offset="1" stop-color="#c2551f"/></linearGradient><linearGradient x1="279.4579" y1="226.85185" x2="279.6796" y2="252.65792" gradientUnits="userSpaceOnUse" id="color-6"><stop offset="0" stop-color="#4e2710"/><stop offset="1" stop-color="#3a1a09"/></linearGradient><linearGradient x1="372.69929" y1="178.22458" x2="359.85068" y2="225.90028" gradientUnits="userSpaceOnUse" id="color-7"><stop offset="0" stop-color="#e07130"/><stop offset="1" stop-color="#c2551f"/></linearGradient><linearGradient x1="371.63493" y1="160.911" x2="372.05526" y2="209.83542" gradientUnits="userSpaceOnUse" id="color-8"><stop offset="0" stop-color="#e07130"/><stop offset="1" stop-color="#c2551f"/></linearGradient><linearGradient x1="247.2671" y1="177.69275" x2="260.9342" y2="225.28826" gradientUnits="userSpaceOnUse" id="color-9"><stop offset="0" stop-color="#e07130"/><stop offset="1" stop-color="#c2551f"/></linearGradient><linearGradient x1="250.03863" y1="157.52185" x2="250.45892" y2="206.44625" gradientUnits="userSpaceOnUse" id="color-10"><stop offset="0" stop-color="#e07130"/><stop offset="1" stop-color="#c2551f"/></linearGradient><linearGradient x1="307.1546" y1="107.43731" x2="308.02178" y2="208.3758" gradientUnits="userSpaceOnUse" id="color-11"><stop offset="0" stop-color="#e07130"/><stop offset="1" stop-color="#c2551f"/></linearGradient><linearGradient x1="288.33044" y1="42.61465" x2="302.62229" y2="123.17909" gradientUnits="userSpaceOnUse" id="color-12"><stop offset="0" stop-color="#a1a1a1"/><stop offset="1" stop-color="#767676"/></linearGradient></defs><g transform="translate(-206.43198,-36.78993)"><g stroke-miterlimit="10"><path d="M331.87504,40.77514c0,0 -3.74314,1.57547 -14.40686,2.40993c-3.71801,0.29094 -15.53354,1.35181 -18.3415,1.4342c-4.53888,0.13318 -11.88643,-0.50064 -17.78007,-0.70954c-7.95345,-0.28191 -14.05947,-1.23951 -14.05947,-1.23951" fill="none" stroke="#000000" stroke-width="2.5" stroke-linecap="round"/><g stroke="#000000" stroke-width="2.5"><path d="M389.73897,316.41915l-82.37662,9.06753l-78.67821,-8.58057c0,0 35.53568,-60.36692 80.00973,-60.50139c44.47406,-0.13447 81.04509,60.01444 81.04509,60.01444z" fill="url(#color-1)" stroke-linecap="butt"/><path d="M240.85181,313.26928l65.4275,-16.49711l69.75375,13.75991" fill="none" stroke-linecap="round"/><path d="M274.43135,317.04853l33.4695,-9.027l40.72204,6.86228" fill="none" stroke-linecap="round"/></g><g stroke="#000000" stroke-width="2.5"><path d="M395.36154,285.05274l-82.37662,9.06753l-78.67821,-8.58057c0,0 35.53568,-60.36692 80.00973,-60.50139c44.47406,-0.13447 81.04509,60.01444 81.04509,60.01444z" fill="url(#color-2)" stroke-linecap="butt"/><path d="M246.4744,281.90288l65.4275,-16.49711l69.75375,13.75991" fill="none" stroke-linecap="round"/><path d="M280.05393,285.68212l33.4695,-9.027l40.72204,6.86229" fill="none" stroke-linecap="round"/></g><g stroke="#000000" stroke-width="2.5"><path d="M390.76673,255.87584l-82.37661,9.06753l-78.67822,-8.58057c0,0 35.53568,-60.36692 80.00974,-60.50139c44.47406,-0.13447 81.04508,60.01444 81.04508,60.01444z" fill="url(#color-3)" stroke-linecap="butt"/><path d="M241.8796,252.72595l65.42751,-16.4971l69.75375,13.75991" fill="none" stroke-linecap="round"/><path d="M275.45912,256.50521l33.4695,-9.02699l40.72204,6.86229" fill="none" stroke-linecap="round"/></g><path d="M258.3028,365.29405l-3.59252,-139.66214c0,0 7.23485,-24.39347 18.25302,-24.8111c10.94195,-0.41473 36.88073,-1.02105 59.53475,-1.87972c24.57095,-0.93132 32.44728,24.53568 32.44728,24.53568l1.51191,144.94106z" fill="url(#color-4)" stroke="#000000" stroke-width="2.5" stroke-linecap="butt"/><path d="M332.78218,211.19597c0.05808,6.7602 -9.44719,12.2693 -21.23064,12.30494c-11.78343,0.03563 -21.38288,-5.41571 -21.44095,-12.17591c-0.05808,-6.7602 9.44719,-12.2693 21.23064,-12.30494c11.78343,-0.03563 21.38288,5.41571 21.44095,12.17591z" fill="url(#color-5)" stroke="#000000" stroke-width="2.5" stroke-linecap="butt"/><path d="M294.99921,239.70823c0.06123,7.12615 -6.7976,12.92394 -15.31962,12.94971c-8.52201,0.02577 -15.4801,-5.73023 -15.54132,-12.85639c-0.06123,-7.12615 6.7976,-12.92394 15.31962,-12.94971c8.52201,-0.02577 15.4801,5.73023 15.54132,12.85639z" fill="url(#color-6)" stroke="#ffffff" stroke-width="2.5" stroke-linecap="butt"/><path d="M274.04805,237.41818l1.18662,-1.65705" fill="none" stroke="#ffffff" stroke-width="2.5" stroke-linecap="round"/><path d="M284.3097,237.38713l-0.66841,-1.55957" fill="none" stroke="#ffffff" stroke-width="2.5" stroke-linecap="round"/><path d="M270.60126,245.8729l2.20937,-3.02465l12.66332,0.03829l3.14136,2.85712" fill="none" stroke="#ffffff" stroke-width="2.5" stroke-linecap="round"/><path d="M355.19202,174.83344c0,0 13.6365,10.99423 18.46042,19.30126c5.89912,10.15861 14.36214,37.22093 14.36214,37.22093c0,0 -17.16308,-19.93948 -26.30591,-24.6693c-8.05869,-4.16896 -25.71024,-2.23994 -25.71024,-2.23994z" fill="url(#color-7)" stroke="#000000" stroke-width="2.5" stroke-linecap="round"/><path d="M353.68438,160.96527c0,0 16.24534,8.09744 23.18933,15.26704c8.49176,8.76762 24.05853,33.51578 24.05853,33.51578c0,0 -22.1002,-16.13788 -32.27635,-18.9929c-8.96948,-2.51646 -25.61867,2.74993 -25.61867,2.74993z" fill="url(#color-8)" stroke="#000000" stroke-width="2.5" stroke-linecap="round"/><path d="M284.41662,203.69123c0,0 -17.68378,-1.82217 -25.67041,2.3953c-9.06109,4.78485 -25.88069,24.82708 -25.88069,24.82708c0,0 7.9976,-27.11209 13.72188,-37.30584c4.68092,-8.33577 18.12782,-19.41189 18.12782,-19.41189z" fill="url(#color-9)" stroke="#000000" stroke-width="2.5" stroke-linecap="round"/><path d="M279.19488,189.94135c0,0 -16.73881,-5.16544 -25.66458,-2.59487c-10.12657,2.9164 -31.94835,19.18709 -31.94835,19.18709c0,0 15.14075,-24.84102 23.48142,-33.65953c6.82044,-7.21119 22.92581,-15.40645 22.92581,-15.40645z" fill="url(#color-10)" stroke="#000000" stroke-width="2.5" stroke-linecap="round"/><path d="M347.7019,115.80185l9.54936,8.35164l-18.09423,54.93016l-66.50063,-0.9549l-17.82523,-51.96467l10.01695,-9.82716" fill="none" stroke="#000000" stroke-width="2.5" stroke-linecap="round"/><path d="M369.20114,159.83006c-1.95557,27.02343 -31.04612,50.29014 -65.08084,48.44271c-34.03471,-1.84743 -60.12538,-28.10941 -58.1698,-55.13283c1.95557,-27.02342 31.13151,-47.43262 65.16623,-45.58518c34.03471,1.84743 60.04002,25.25188 58.08443,52.27531z" fill="url(#color-11)" stroke="#000000" stroke-width="2.5" stroke-linecap="butt"/><path d="M260.93033,127.76625l-9.93405,-80.5744c0,0 7.47074,-2.85361 17.43046,-4.76129c6.26514,-1.20002 14.31849,-2.80132 19.11409,-3.38927c4.75445,-0.58289 13.66222,-0.54556 20.05616,-0.90503c10.37615,-0.58337 18.06761,-0.0988 18.06761,-0.0988l18.02625,78.79583c0,0 -4.39901,4.92201 -15.2978,9.39461c-5.96555,2.44812 -17.86114,5.24987 -22.79365,5.90149c-6.0693,0.80178 -18.44571,1.23929 -27.13768,0.13082c-10.83628,-1.38194 -17.53142,-4.49395 -17.53142,-4.49395z" fill="url(#color-12)" stroke="#000000" stroke-width="2.5" stroke-linecap="butt"/><path d="M324.61161,153.77417c0.02206,2.56894 -7.4578,4.67414 -16.70673,4.70211c-9.24896,0.02796 -16.76459,-2.0319 -16.78666,-4.60083c-0.02206,-2.56894 7.4578,-4.67414 16.70673,-4.70211c9.24896,-0.02796 16.76459,2.0319 16.78666,4.60083z" fill-opacity="0.18431" fill="#000000" stroke="none" stroke-width="0" stroke-linecap="butt"/><path d="M329.57994,150.65387c5.22484,-0.58481 16.92992,-2.749 19.21188,0.53546c1.5397,2.21612 -3.43189,5.30962 -11.04509,3.96801c-4.69707,-0.82773 -4.39747,-3.72142 1.00448,-3.87202c5.44047,-0.15167 4.52594,1.78117 -0.51544,1.64742" fill="none" stroke="#000000" stroke-width="2.5" stroke-linecap="round"/><path d="M272.83334,150.983c2.54619,-2.35164 15.35207,-2.51821 16.47758,0.70312c1.15713,3.31183 -11.89746,5.72779 -17.62267,3.02116c-3.80442,-1.79857 4.42249,-3.83135 8.25785,-2.91134c3.73986,0.8971 -1.61136,1.66522 -3.4395,1.63187" fill="none" stroke="#000000" stroke-width="2.5" stroke-linecap="round"/><path d="M274.11792,190.12721c1.15705,-4.10755 11.0403,-3.44867 15.02087,-2.88664c3.2129,0.45364 6.37683,1.85005 9.70935,2.31748c9.6643,1.35554 19.61155,-0.30713 29.19154,0.97347c4.71088,0.62972 9.75295,-1.63229 14.56796,-0.64202c0.62355,0.12824 3.18861,2.24416 2.93818,2.72777c-0.20592,0.39764 -6.05845,-0.13218 -6.75899,-0.15504c-6.30717,-0.20581 -12.85646,-0.84186 -19.13946,-0.46486c-5.94599,0.35679 -12.02251,-0.10243 -18.00183,-0.29754c-8.63902,-0.2819 -18.58106,0.35002 -26.92358,-1.53926z" fill="#ffffff" stroke="#000000" stroke-width="2.5" stroke-linecap="round"/><path d="M273.47497,155.14827c0.00838,1.25167 0.70742,2.24264 0.64623,3.63596c-0.10719,2.44038 -3.55076,5.19979 -6.00995,2.47276c-2.13497,-2.3675 2.84567,-6.49799 5.50619,-6.41117z" fill="#ffffff" stroke="#000000" stroke-width="2.5" stroke-linecap="round"/><path d="M297.76534,133.59643c-1.65456,5.6581 -19.88626,12.22922 -26.56248,11.83422c-3.68674,-0.21813 -9.1171,-0.99703 -10.54856,-4.34902" fill="none" stroke="#000000" stroke-width="2.5" stroke-linecap="round"/><path d="M244.41014,284.14351c2.71388,0.4817 4.02457,2.49136 6.38367,2.61137c0.42914,0.02183 6.72926,-0.80433 8.46868,0.53454c4.47771,3.4466 5.93399,11.74678 1.01867,15.36066c-1.62553,1.19514 -7.19299,2.61484 -7.19299,2.61484c0,0 -11.10581,-2.31513 -16.33117,-4.26753l-0.50141,0.11312c3.76813,1.26303 12.11944,1.48749 12.11944,1.48749c0,0 5.38265,3.56369 5.65155,6.36495c0.1101,1.14705 0.90637,1.42802 1.33314,2.34078c0.79488,1.70006 -2.06746,5.68073 -3.53896,6.64955c-7.84613,5.16577 -29.26857,-2.38569 -25.04091,-10.60478l0.63793,-0.0566c-0.67657,-2.00126 -2.93459,-1.61442 -3.70049,-3.10308c-2.59883,-5.05133 1.99692,-11.54692 2.22931,-16.40341c0.10897,-2.27728 -1.40508,-4.49924 -1.04835,-6.73299c1.90221,-11.91096 8.72035,-34.69853 27.26082,-34.57115c1.59963,0.01099 4.87868,0.83785 7.70994,2.51122c4.73427,2.79811 9.09259,7.32516 8.66621,9.69255c-0.24365,1.35281 -1.2581,6.39085 -4.39293,8.60061c-3.74411,2.63925 -9.73776,2.39323 -10.45168,2.7357c-2.37304,1.13832 16.41911,6.60129 17.10103,8.68432c0.90969,2.77884 -5.69273,9.84107 -10.22535,8.1475" fill="#ce6026" stroke="#000000" stroke-width="2.5" stroke-linecap="round"/><path d="M364.18771,293.15888c-3.96479,2.68505 -12.02088,-2.75309 -11.80892,-5.68488c0.15889,-2.19769 16.96984,-11.80072 14.40941,-12.38174c-0.77031,-0.1748 -6.49022,1.41991 -10.73182,-0.32412c-3.55138,-1.46022 -5.73531,-6.17411 -6.29403,-7.44638c-0.97774,-2.22644 2.1408,-7.65213 6.03563,-11.4664c2.32924,-2.28106 5.29285,-3.83272 6.8325,-4.20469c17.84537,-4.31133 29.87335,16.50661 34.55826,27.76324c0.87859,2.11104 -0.04935,4.63292 0.60079,6.84262c1.38646,4.71236 7.3722,10.04764 6.07557,15.59043c-0.38213,1.63351 -2.6518,1.76379 -2.82511,3.88006l0.62861,-0.08851c6.04337,7.10936 -12.8037,19.3554 -21.60501,16.05875c-1.65064,-0.61828 -5.36316,-3.8775 -5.00369,-5.72496c0.19302,-0.9919 0.89347,-1.44736 0.72508,-2.59761c-0.41123,-2.80911 3.9255,-7.52091 3.9255,-7.52091c0,0 7.99823,-2.10591 11.32897,-4.19593l-0.5105,0.00223c-4.57074,3.09541 -14.72433,7.87448 -14.72433,7.87448c0,0 -5.70768,-0.13579 -7.56101,-0.94134c-5.60411,-2.43582 -6.18668,-10.90815 -2.69444,-15.30074c1.35661,-1.70635 7.62862,-2.31832 8.03716,-2.43665c2.2458,-0.65042 3.0285,-2.91811 5.52981,-4.00349" fill="#ce6026" stroke="#000000" stroke-width="2.5" stroke-linecap="round"/><path d="M353.94535,91.22472l32.41945,-19.81189l-17.11027,42.32539l35.12107,-6.30378l-27.91675,27.01621" fill="none" stroke="#ffffff" stroke-width="2.5" stroke-linecap="round"/><path d="M244.97997,129.04742l-35.12107,-33.31999l22.51351,1.80108l-14.40865,-30.61837l33.31999,11.70702" fill="none" stroke="#ffffff" stroke-width="2.5" stroke-linecap="round"/></g></g></svg>