<svg version="1.1" xmlns="http://www.w3.org/2000/svg" xmlns:xlink="http://www.w3.org/1999/xlink" width="115.10533" height="316.3114" viewBox="0,0,115.10533,316.3114"><defs><linearGradient x1="320.99559" y1="38.44059" x2="320.99559" y2="186.89623" gradientUnits="userSpaceOnUse" id="color-1"><stop offset="0" stop-color="#89c100"/><stop offset="1" stop-color="#53ff10"/></linearGradient></defs><g transform="translate(-263.47534,-36.446)"><g stroke-miterlimit="10"><path d="M270.32298,347.8234l-2.26151,-147.27579c0,0 7.03635,-25.69821 17.45393,-26.10344c10.34551,-0.40242 34.86735,-0.95905 56.28654,-1.79223c23.23163,-0.90368 30.46941,25.97468 30.46941,25.97468l0.25208,152.83541z" fill="#000000" stroke="#000000" stroke-width="2.5" stroke-linecap="butt"/><path d="M339.95002,183.32916c0,11.02276 -8.7456,19.95848 -19.53383,19.95848c-10.78823,0 -19.53383,-8.93571 -19.53383,-19.95848c0,-11.02276 8.74559,-19.95848 19.53383,-19.95848c10.78823,0 19.53383,8.93571 19.53383,19.95848z" fill="#53ff10" stroke="#000000" stroke-width="2.5" stroke-linecap="butt"/><path d="M374.7342,133.24776c0,28.00291 -24.26594,53.64847 -54.51858,53.64847c-30.25264,0 -55.03592,-25.64557 -55.03592,-53.64847c0,-28.0029 24.52462,-50.70374 54.77726,-50.70374c30.25264,0 54.77725,22.70084 54.77725,50.70374z" fill="#53ff10" stroke="#000000" stroke-width="2.5" stroke-linecap="butt"/><path d="M265.64901,135.9841l-0.89533,-61.16687l10.57761,4.64383l32.2488,-41.02047l22.70316,27.60498l22.44516,-21.6712l13.4155,35.86067l11.09359,-7.73971l-2.32191,61.9177l-15.99541,-24.50909l-78.68708,0.77398z" fill="#53ff10" stroke="#000000" stroke-width="2.5" stroke-linecap="round"/><path d="M267.61428,145.24862l-1.11534,-38.40259l107.68809,0.478l-2.23068,37.92459z" fill="#53ff10" stroke="none" stroke-width="0" stroke-linecap="butt"/><path d="M265.64901,135.9841l-0.89533,-61.16687l10.57761,4.64383l32.2488,-41.02047l22.70316,27.60498l22.44516,-21.6712l13.4155,35.86067l11.09359,-7.73971l-2.32191,61.9177l-2.12994,-3.26362l-0.8293,14.09921h-104.34207l-0.35046,-12.06653z" fill="#53ff10" stroke="#000000" stroke-width="2.5" stroke-linecap="round"/><path d="M320.21562,186.89623c-30.25264,0 -55.03592,-25.64557 -55.03592,-53.64847c0,-1.93597 0.11721,-3.84659 0.34544,-5.72612l-0.77146,-52.70441l10.57761,4.64383l32.2488,-41.02047l22.70316,27.60498l22.44516,-21.6712l13.4155,35.86067l11.09359,-7.73971l-2.32191,61.9177l-0.18929,-0.29003c-0.49884,27.65974 -24.57351,52.77324 -54.51068,52.77324z" fill="url(#color-1)" stroke="#000000" stroke-width="2.5" stroke-linecap="butt"/><path d="M335.92283,130.38661c0,2.70884 -6.65243,4.90479 -14.85862,4.90479c-8.2062,0 -14.85862,-2.19595 -14.85862,-4.90479c0,-2.70884 6.65243,-4.90479 14.85862,-4.90479c8.2062,0 14.85862,2.19595 14.85862,4.90479z" fill-opacity="0.18431" fill="#000000" stroke="none" stroke-width="0" stroke-linecap="butt"/><path d="M357.89297,128.94322c0,4.15542 -3.69729,7.52406 -8.25812,7.52406c-4.56083,0 -8.25812,-3.36864 -8.25812,-7.52406c0,-4.15544 3.69729,-7.52407 8.25812,-7.52407c4.56083,0 8.25812,3.36865 8.25812,7.52407z" fill="#ffffff" stroke="#000000" stroke-width="2.5" stroke-linecap="butt"/><path d="M284.0027,163.04605l3.4444,-1.83701l25.94785,4.59254l29.39225,-3.67404l14.23687,2.29627" fill="none" stroke="#000000" stroke-width="2.5" stroke-linecap="round"/><path d="M301.91601,128.6272c0,4.15542 -3.69729,7.52406 -8.25812,7.52406c-4.56083,0 -8.25812,-3.36864 -8.25812,-7.52406c0,-4.15544 3.69729,-7.52407 8.25812,-7.52407c4.56083,0 8.25812,3.36865 8.25812,7.52407z" fill="#ffffff" stroke="#000000" stroke-width="2.5" stroke-linecap="butt"/><path d="M304.64523,231.34131l3.28668,34.36874l-1.77416,6.23614l0.57756,9.00041c0,0 0.33299,5.58583 1.12831,4.69529c3.02666,-3.38904 3.64192,-11.50113 3.64192,-11.50113l1.46541,-3.62479l0.33459,-9.70376l1.49851,-14.74315l-1.1845,-6.34097l-1.96054,-11.40697l-1.24827,-3.53115l-5.06482,6.76096z" fill="#d6d6d6" stroke="#000000" stroke-width="2.5" stroke-linecap="round"/><path d="M318.65867,226.68149l1.48782,48.78337c0,0 0.90249,6.07568 0.90249,8.95389c0,0.2251 -0.11032,2.56383 0,2.59382c0.32907,0.08949 1.38325,-2.6379 1.46784,-2.90638c0.98417,-3.1237 2.41642,-9.23553 2.41642,-9.23553l-0.29879,-16.7588l-0.59757,-20.05677l-4.36409,-11.09777z" fill="#d6d6d6" stroke="#000000" stroke-width="2.5" stroke-linecap="round"/><path d="M331.01622,223.63105l-3.55959,9.05034l-0.62346,12.25747l2.04335,27.04908l1.53542,10.82092c0,0 -0.28198,4.11906 0.30546,5.15203c0.10888,0.19145 0.36964,0.46731 0.57855,0.36905c0.00257,-0.00121 0.5113,-2.18267 0.70789,-2.45451c3.12392,-4.31969 3.4942,-14.16856 3.4942,-14.16856l-1.49392,-19.26009l1.79271,-13.39632l-2.97337,-9.88376l-0.01452,-1.94528l-1.19112,-3.00023z" fill="#d6d6d6" stroke="#000000" stroke-width="2.5" stroke-linecap="round"/></g></g></svg>