<svg version="1.1" xmlns="http://www.w3.org/2000/svg" xmlns:xlink="http://www.w3.org/1999/xlink" width="268.53982" height="286.34951" viewBox="0,0,268.53982,286.34951"><defs><radialGradient cx="315.32201" cy="180.38588" r="98.40572" gradientUnits="userSpaceOnUse" id="color-1"><stop offset="0" stop-color="#ffffff" stop-opacity="0.39608"/><stop offset="1" stop-color="#ffffff" stop-opacity="0"/></radialGradient></defs><g transform="translate(-178.06342,-44.49191)"><g stroke-miterlimit="10"><g fill="#ff6200" stroke="#000000" stroke-width="2.5"><path d="M294.22619,148.06617l26.34325,-61.83755l27.41122,61.83755z"/><path d="M347.98065,211.78903l-27.41122,61.83755l-26.34325,-61.83755z"/></g><g fill="#ff6200" stroke="#000000" stroke-width="2.5"><path d="M351.41984,151.74109l58.14832,28.44523l-58.62122,28.48836z"/><path d="M290.787,208.11411l-58.13893,-29.57636l58.61183,-27.35723z"/></g><g fill="#ff6200" stroke="#000000" stroke-width="2.5"><path d="M323.37185,137.26489l59.9109,-23.9934l-21.90222,64.25464z"/><path d="M318.83774,222.58325l-60.66604,23.19351l22.65736,-63.45474z"/></g><g fill="#ff6200" stroke="#000000" stroke-width="2.5"><path d="M361.35886,182.70049l22.12482,63.66521l-60.46934,-23.76282z"/><path d="M280.85073,177.14766l-21.36301,-64.45798l59.70752,24.55558z"/></g><path d="M366.34254,178.45113c0,24.49559 -20.04061,46.92909 -45.02549,46.92909c-24.98487,0 -45.45275,-22.4335 -45.45275,-46.92909c0,-24.49558 20.25425,-44.35318 45.23912,-44.35318c24.98487,0 45.23912,19.8576 45.23912,44.35318z" fill="#ffdf00" stroke="#000000" stroke-width="2.5"/><path d="M446.60324,179.75277c0,56.17062 -75.14004,151.08866 -129.48802,151.08866c-54.34798,0 -139.0518,-95.55114 -139.0518,-151.72176c0,-56.17062 86.49703,-134.62775 140.84501,-134.62775c54.34798,0 127.69481,79.09024 127.69481,135.26085z" fill="url(#color-1)" stroke="none" stroke-width="0"/></g></g></svg>