<svg version="1.1" xmlns="http://www.w3.org/2000/svg" xmlns:xlink="http://www.w3.org/1999/xlink" width="35.125" height="35.12434" viewBox="0,0,35.125,35.12434"><g transform="translate(-302.43752,-162.43783)"><g data-paper-data="{&quot;isPaintingLayer&quot;:true}" stroke="none" stroke-miterlimit="10" stroke-dasharray="" stroke-dashoffset="0" style="mix-blend-mode: normal"><path d="M337.56251,169.8317v20.49804c0,4.00745 -3.22497,7.23243 -7.23242,7.23243h-20.5c-3.66107,0 -6.66147,-2.69385 -7.1543,-6.21484c0.7952,3.03475 3.54108,5.26367 6.83204,5.26367h20.0332c3.9166,0 7.07032,-3.15372 7.07032,-7.07031v-20.03321c0,-3.2976 -2.23906,-6.0451 -5.28321,-6.83398c3.52994,0.48496 6.23438,3.49081 6.23438,7.15821z" fill-opacity="0.29839" fill="#000000" fill-rule="evenodd" stroke-width="4.54219" stroke-linecap="round" stroke-linejoin="round"/><path d="M309.50719,162.43783h20.03378c3.9166,0 7.06966,3.15307 7.06966,7.06966v20.03379c0,3.91659 -3.15307,7.06966 -7.06966,7.06966h-20.03378c-3.91659,0 -7.06967,-3.15307 -7.06967,-7.06966v-20.03379c0,-3.91659 3.15308,-7.06966 7.06967,-7.06966z" fill="#ff80ee" fill-rule="evenodd" stroke-width="4.43922" stroke-linecap="round" stroke-linejoin="round"/><path d="M313.42233,184.7248c-1.66273,0.36937 -3.34334,0.54064 -5.00543,0.87118c-0.66922,0.13309 -2.24601,0.87186 -2.81653,0.50409c-0.45092,-0.29067 -0.28049,-1.04124 -0.32867,-1.57556c-0.12189,-1.35185 0.10683,-2.90768 0.10683,-4.28552c0.00359,-2.08071 0.35164,-4.03413 1.27624,-5.88977c0.58171,-1.16748 0.59494,-2.34905 2.38134,-2.18306c0.96891,0.09003 2.36789,1.4357 3.15408,1.97653c1.43751,0.9889 2.93921,1.88851 4.41559,2.82388c0.59954,-0.28688 1.24251,-0.4909 1.8938,-0.61027c0.05665,-0.73105 0.81601,-0.73105 0.81601,-0.73105h0.65046c1.3365,0.00471 3.4345,0.2406 5.03108,1.00337c-0.08865,-0.60877 0.53542,-0.84279 0.53542,-0.84279c2.17786,-0.81353 4.09422,-2.21631 6.25276,-3.12984c0.60332,-0.25534 1.75879,-0.86282 2.40485,-0.36133c0.58671,0.45542 0.69678,1.88883 0.79075,2.63897c0.32869,2.624 0.11474,5.37137 0.11474,8.01562c0,0.91216 0.3011,2.65256 -0.6655,3.26656c-0.4074,0.25879 -2.62999,0.32527 -3.18106,0.25693c-2.38187,-0.29539 -4.54805,-1.46106 -6.8678,-1.98304c-0.74903,0.52549 -1.5476,0.93848 -2.27328,1.20784c-2.40858,0.27853 -5.51246,0.11791 -7.53909,-1.50382c-0.04861,0.06033 -0.10355,0.11008 -0.15717,0.15035c-0.08186,0.06659 -0.17681,0.11768 -0.28039,0.14883zM318.15434,178.95891c-0.4545,0.68174 -1.13623,0.22725 -1.13623,0.22725c-0.14927,-0.09957 -0.29868,-0.19888 -0.44819,-0.29798c-0.31713,0.22736 -0.60592,0.49201 -0.85465,0.79332c-0.5707,0.69135 -1.31448,2.21423 -0.37706,3.01014c1.70788,1.45006 4.28295,1.63323 6.3887,1.41213c0.26412,-0.1005 0.55288,-0.23171 0.85005,-0.38981c-0.10909,-0.22274 -0.17338,-0.56658 0.17047,-0.91042c0.42512,-0.42513 0.85024,-0.22636 1.04647,-0.0904c0.07581,0.01107 0.15141,0.0228 0.22681,0.03514c1.13338,-0.94645 1.97778,-2.22807 1.47937,-3.59754c-0.09295,-0.25539 -0.87673,-0.75084 -0.98906,-0.82367c-0.82477,-0.53474 -1.99893,-0.83999 -3.11176,-0.97628c-0.17859,0.64552 -0.88437,0.5573 -0.88437,0.5573c-0.75084,-0.09533 -1.55729,-0.02772 -2.3214,0.19749c0.12481,0.19977 0.19961,0.49519 -0.03914,0.85333zM310.40236,174.84792c-0.34096,-0.22742 -0.71206,-0.40702 -1.05485,-0.63168c-0.24327,-0.15944 -0.61918,-0.64551 -0.7754,-0.40016c-1.13986,1.7902 -1.55897,4.31596 -1.55488,6.42291c0,1.16536 0.07006,2.35717 -0.00158,3.52005c-0.01108,0.1799 -0.00626,0.36657 -0.02799,0.54624c0.40527,-0.21427 0.98185,-0.29086 1.11082,-0.31678c1.64922,-0.3315 3.31833,-0.49659 4.96837,-0.86339l0.48367,-0.16512c-0.63579,-1.41324 -0.02358,-3.17112 0.90936,-4.33174c0.2006,-0.24955 0.42299,-0.48005 0.66313,-0.69131c-1.57445,-1.02844 -3.15506,-2.04477 -4.72065,-3.08902zM330.2654,184.54424c0.89097,0.24621 2.27184,0.57476 3.20657,0.34219c0.31104,-0.07739 -0.01184,-0.64095 -0.01504,-0.96147c-0.00324,-0.32521 0,-0.65046 0,-0.9757c0,-1.91526 -0.00144,-3.83052 0,-5.74578c0.00066,-0.88426 0.14701,-2.70296 -0.17862,-3.54723c-0.03529,-0.0915 -0.11287,0.16818 -0.19707,0.21845c-0.20353,0.12151 -0.43303,0.19299 -0.65041,0.28751c-0.3462,0.15052 -1.407,0.59651 -1.69163,0.73898c-1.57576,0.78874 -2.9779,1.79681 -4.63126,2.41902c0,0 -0.00186,0.0007 -0.00543,0.00194c0.39729,0.33222 0.71229,0.72459 0.90519,1.18641c0.72674,1.73985 0.06316,3.3692 -1.11538,4.66537c1.46224,0.41124 2.8856,0.95928 4.37309,1.37033z" fill="#000000" fill-rule="nonzero" stroke-width="0.5" stroke-linecap="butt" stroke-linejoin="miter"/><path d="M325.87786,183.18843c1.17854,-1.29618 1.8369,-2.94574 1.11016,-4.68558c-0.1929,-0.46182 -0.50624,-0.85826 -0.90352,-1.19049c0.00357,-0.00124 0.00544,-0.00195 0.00544,-0.00195c1.65337,-0.62221 3.07799,-1.64047 4.65375,-2.4292c0.28463,-0.14247 1.35041,-0.58664 1.69661,-0.73716c0.21738,-0.09452 0.44813,-0.16529 0.65165,-0.2868c0.0842,-0.05027 0.16192,-0.30986 0.19721,-0.21837c0.32563,0.84427 0.18625,2.67025 0.18559,3.55452c-0.00144,1.91526 -0.00323,3.85497 -0.00323,5.77023c0,0.32523 -0.00503,0.6521 -0.00178,0.97732c0.0032,0.32052 0.32462,0.88513 0.01358,0.96253c-0.93473,0.23257 -2.32495,-0.09264 -3.21592,-0.33884c-1.48748,-0.41104 -2.92731,-0.96496 -4.38955,-1.3762z" data-paper-data="{&quot;noHover&quot;:false,&quot;origItem&quot;:[&quot;Path&quot;,{&quot;applyMatrix&quot;:true,&quot;segments&quot;:[[[264.65265,100.21324],[-3.63087,-1.00333],[2.17482,0.60097]],[[272.47973,101.0485],[-2.28162,0.56771],[0.75925,-0.18891]],[[272.44303,98.7016],[0.0078,0.78236],[-0.00792,-0.79384]],[[272.44303,96.31997],[0,0.79388],[0,-4.67505]],[[272.44303,82.29481],[-0.0035,4.67505],[0.00161,-2.15845]],[[272.00702,73.63619],[0.79486,2.06082],[-0.08614,-0.22334]],[[271.52598,74.16942],[0.20554,-0.12271],[-0.49681,0.2966]],[[269.93835,74.8712],[0.53062,-0.23071],[-0.84504,0.36742]],[[265.80917,76.67503],[0.69478,-0.34776],[-3.84637,1.92527]],[[254.50448,82.57972],[4.03578,-1.51877],[0,0]],[[254.49122,82.58443],[0.00872,-0.00301],[0.96975,0.81095]],[[256.70075,85.48039],[-0.47087,-1.12728],[1.77392,4.24688]],[[253.97816,96.86835],[2.87677,-3.1639],[3.56926,1.00381]]],&quot;closed&quot;:true}]}" fill="#ff58d9" fill-rule="nonzero" stroke-width="0.5" stroke-linecap="butt" stroke-linejoin="miter"/><path d="M315.14279,177.93164c-0.24014,0.21126 -0.46198,0.44468 -0.66258,0.69423c-0.93293,1.16061 -1.55453,2.93818 -0.91873,4.35142l-0.48562,0.16621c-1.65004,0.3668 -3.33866,0.53109 -4.98789,0.8626c-0.12896,0.02593 -0.70756,0.10114 -1.11283,0.31541c0.02173,-0.17967 0.01612,-0.36698 0.0272,-0.54689c0.07164,-1.16288 -0.00473,-2.3644 -0.00473,-3.52975c-0.00408,-2.10695 0.42582,-4.65708 1.56568,-6.44729c0.15622,-0.24534 0.5341,0.23992 0.77737,0.39936c0.34278,0.22466 0.71758,0.40332 1.05853,0.63074c1.56559,1.04425 3.16915,2.07552 4.7436,3.10395z" data-paper-data="{&quot;noHover&quot;:false,&quot;origItem&quot;:[&quot;Path&quot;,{&quot;applyMatrix&quot;:true,&quot;segments&quot;:[[[216.16792,76.54499],[3.82153,2.54897],[-0.83225,-0.55511]],[[213.5931,75.0031],[0.83671,0.54837],[-0.5938,-0.38918]],[[211.70037,74.02631],[0.38132,-0.59888],[-2.78236,4.3698]],[[207.905,89.70433],[-0.00997,-5.14296],[0,2.84457]],[[207.90113,98.29662],[0.17487,-2.83855],[-0.02705,0.43914]],[[207.83281,99.62997],[0.05306,-0.43857],[0.98924,-0.52302]],[[210.54425,98.85673],[-0.3148,0.06328],[4.02567,-0.80919]],[[222.6718,96.74922],[-4.02768,0.89534],[0,0]],[[223.85242,96.34617],[0,0],[-1.55195,-3.44965]],[[226.07212,85.7726],[-2.27725,2.83299],[0.48964,-0.60914]],[[227.6908,84.08514],[-0.58618,0.51567],[-3.84316,-2.51036]]],&quot;closed&quot;:true}]}" fill="#ff58d9" fill-rule="nonzero" stroke-width="0.5" stroke-linecap="butt" stroke-linejoin="miter"/><path d="M318.18089,178.08944c0.76411,-0.2252 1.58492,-0.29707 2.33576,-0.20175c0,0 0.71045,0.08918 0.88904,-0.55634c1.11283,0.13629 2.29831,0.45077 3.12309,0.98551c0.11233,0.07283 0.89793,0.57245 0.99088,0.82784c0.49841,1.36946 -0.34745,2.66669 -1.48083,3.61315c-0.0754,-0.01235 -0.15118,-0.02374 -0.22699,-0.03481c-0.19623,-0.13596 -0.62346,-0.33162 -1.04858,0.0935c-0.34384,0.34384 -0.28276,0.69082 -0.17367,0.91355c-0.29718,0.1581 -0.59036,0.29195 -0.85448,0.39245c-2.10575,0.2211 -4.70809,0.02662 -6.41598,-1.42344c-0.93741,-0.79591 -0.19448,-2.33098 0.37622,-3.02233c0.24873,-0.30131 0.53918,-0.57049 0.85631,-0.79785c0.14952,0.0991 0.29877,0.19872 0.44804,0.29829c0,0 0.68459,0.45014 1.13909,-0.2316c0.23876,-0.35814 0.16692,-0.6564 0.04211,-0.85617z" data-paper-data="{&quot;noHover&quot;:false,&quot;origItem&quot;:[&quot;Path&quot;,{&quot;applyMatrix&quot;:true,&quot;segments&quot;:[[[235.09016,86.57972],[0.58279,-0.87419],[-1.1094,1.6641]],[[232.31666,87.13442],[0,0],[-0.36436,-0.24305]],[[231.22264,86.40707],[0.36497,0.24188],[-0.7741,0.55497]],[[229.13647,88.34354],[0.60714,-0.73549],[-1.39305,1.68755]],[[228.21609,95.69114],[-2.28819,-1.94276],[4.16887,3.53952]],[[243.81058,99.13807],[-5.14004,0.53971],[0.64471,-0.24532]],[[245.88552,98.18657],[-0.7254,0.38592],[-0.26628,-0.54369]],[[246.30163,95.96426],[-0.83931,0.83931],[1.03771,-1.03771]],[[248.85603,95.7436],[-0.47899,-0.33188],[0.18506,0.02702]],[[249.40965,95.8294],[-0.18403,-0.03015],[2.76652,-2.31025]],[[253.02072,87.048],[1.2166,3.3428],[-0.22689,-0.62341]],[[250.60647,85.03744],[0.27421,0.17778],[-2.01323,-1.30526]],[[243.01082,82.6544],[2.71636,0.33268],[-0.43594,1.57568]],[[240.85213,84.01474],[0,0],[-1.83276,-0.23268]],[[235.1857,84.4968],[1.86516,-0.54971],[0.30466,0.48762]]],&quot;closed&quot;:true}]}" fill="#ff58d9" fill-rule="nonzero" stroke-width="0.5" stroke-linecap="butt" stroke-linejoin="miter"/></g></g></svg>