<svg version="1.1" xmlns="http://www.w3.org/2000/svg" xmlns:xlink="http://www.w3.org/1999/xlink" width="184.45105" height="316.39561" viewBox="0,0,184.45105,316.39561"><defs><linearGradient x1="316.78259" y1="50.18019" x2="318.32895" y2="114.58753" gradientUnits="userSpaceOnUse" id="color-1"><stop offset="0" stop-color="#ff8026"/><stop offset="1" stop-color="#b54b00"/></linearGradient><linearGradient x1="362.31874" y1="93.37906" x2="363.84941" y2="157.13346" gradientUnits="userSpaceOnUse" id="color-2"><stop offset="0" stop-color="#cecece"/><stop offset="1" stop-color="#595959"/></linearGradient><linearGradient x1="269.47904" y1="95.60805" x2="271.00972" y2="159.36244" gradientUnits="userSpaceOnUse" id="color-3"><stop offset="0" stop-color="#cecece"/><stop offset="1" stop-color="#595959"/></linearGradient><radialGradient cx="322.93171" cy="239.63424" r="35.63773" gradientUnits="userSpaceOnUse" id="color-4"><stop offset="0" stop-color="#ed8828"/><stop offset="1" stop-color="#4f2200"/></radialGradient></defs><g transform="translate(-228.81146,-26.37771)"><g stroke-miterlimit="10"><path d="M411.91917,129.69046c0.63163,10.20929 -2.01297,18.16538 -5.79356,26.23894c-1.4222,3.03716 -2.72127,7.04466 -5.27275,8.74228c-5.87167,3.90675 -16.15839,2.3946 -21.93127,-2.21728c-2.38568,-1.90589 -5.168,-1.98724 -7.01785,-5.36954c-1.7826,-3.25937 -1.14636,-11.20062 -0.59882,-14.66333c0.25763,-1.6293 1.44956,-1.38895 2.09477,-2.42069c1.07458,-1.71838 2.22683,-5.65781 2.73303,-7.78148c0.48026,-2.01486 -0.25968,-4.80544 -0.10559,-6.94265c0.74543,-10.33853 -3.39924,-22.92344 -0.12046,-32.48281c1.87934,-5.47924 4.50989,-10.16976 9.62715,-8.42022c2.40399,0.8219 3.35896,5.74527 3.52407,8.41391c0.5022,8.11696 0.41551,15.80267 0.28216,23.83701c-0.05018,3.02351 -0.09512,5.83309 0.09849,8.92329c0.02086,0.33293 -0.18026,1.00194 0.06336,0.99876c0.24362,-0.00317 -0.03686,-0.66603 -0.0485,-0.99895c-0.07466,-2.13521 -0.28003,-4.82685 -0.12236,-6.95067c0.47625,-6.41503 0.32223,-13.38439 2.15369,-19.25797c0.57186,-1.83397 1.3465,-4.72726 3.01752,-5.057c2.22247,-0.43855 3.94407,3.25344 4.86919,5.51198c2.6155,6.38536 2.44236,14.63927 2.15185,21.53527c-0.01393,0.33043 0.03914,0.66592 0.05657,0.99891c0.01742,0.33298 0.03441,0.66598 0.04795,0.99896c0.09254,2.27826 -0.08263,4.63165 -0.22788,6.89973c-0.0056,0.08742 -0.02393,1.98078 -0.59466,1.6527c-0.17472,-0.10043 -0.22297,-3.60385 -0.24718,-3.99522c-0.22712,-3.67107 -1.03031,-9.65293 0.98463,-12.44034c0.62553,-0.86536 2.74035,-0.39136 3.59246,-0.41027c6.00292,-0.13326 6.1592,8.993 6.54483,15.22565z" fill="#ffa000" stroke="#000000" stroke-width="2.5" stroke-linecap="round"/><path d="M258.08356,116.03396l-1.20868,-20.74979c0,0 5.15786,-22.30126 15.74527,-30.51796c10.58741,-8.21669 42.31518,-14.54166 42.31518,-14.54166c0,0 28.30774,4.59612 43.04355,14.43309c14.73582,9.83697 20.09687,27.71662 20.09687,27.71662l1.20869,20.7498l-8.58823,-1.17299c0,0 -5.98965,-19.84388 -17.53575,-30.66927c-11.5461,-10.82538 -21.98409,-15.37532 -38.2582,-15.41667c-16.27411,-0.04135 -23.89815,4.29146 -33.71947,15.23379c-9.82133,10.94233 -14.68283,32.94166 -14.68283,32.94166z" fill="url(#color-1)" stroke="#000000" stroke-width="2.5" stroke-linecap="butt"/><g stroke="#000000" stroke-width="2.5" stroke-linecap="butt"><path d="M369.25893,93.95391c11.96962,0.99143 22.01555,16.06705 22.43824,33.67234c0.42269,17.6053 -8.93794,31.07349 -20.90756,30.08206c-11.96962,-0.99143 -22.01555,-16.06705 -22.43824,-33.67234c-0.42269,-17.6053 8.93794,-31.07349 20.90756,-30.08206z" fill="#ff8026"/><path d="M362.31874,93.37906c8.61577,0.71364 16.36557,33.16934 16.36557,33.16934c0,0 -6.21912,31.29869 -14.83489,30.58505c-8.61577,-0.71363 -15.94287,-15.56406 -16.36556,-33.16934c-0.42269,-17.6053 6.21912,-31.29869 14.83488,-30.58505z" fill="url(#color-2)"/></g><g stroke="#000000" stroke-width="2.5" stroke-linecap="butt"><path d="M284.90156,125.55933c0.42269,17.6053 -8.8882,33.14566 -20.79644,34.71036c-11.90825,1.56472 -21.90443,-11.43875 -22.32712,-29.04403c-0.42269,-17.6053 8.8882,-33.14565 20.79644,-34.71035c11.90825,-1.56472 21.90443,11.43875 22.32712,29.04403z" fill="#ff8026"/><path d="M285.76463,125.44592c0.42269,17.60529 -6.1833,32.79024 -14.7549,33.91652c-8.5716,1.12628 -16.28557,-29.83788 -16.28557,-29.83788c0,0 6.1833,-32.79024 14.75489,-33.91652c8.5716,-1.12629 15.86289,12.23259 16.28558,29.83788z" fill="url(#color-3)"/></g><path d="M278.12245,341.50827l-6.45779,-147.04041c0,0 5.29279,-26.00183 14.28016,-26.88992c8.92519,-0.88194 30.09262,-2.57553 48.57121,-4.40151c20.0422,-1.98048 27.51309,14.79794 27.51309,14.79794l4.4957,162.42871z" fill="#000000" stroke="#000000" stroke-width="2.5" stroke-linecap="butt"/><path d="M334.56429,175.21131c0.00601,6.40516 -7.26795,11.77232 -16.24682,11.9879c-8.97888,0.21558 -16.26257,-4.80207 -16.26857,-11.20723c-0.00601,-6.40516 7.26794,-11.77232 16.24681,-11.9879c8.97888,-0.21558 16.26258,4.80208 16.26858,11.20723z" fill="#ffa000" stroke="#000000" stroke-width="2.5" stroke-linecap="butt"/><path d="M371.19285,122.88743c0.67213,27.99484 -22.97128,54.21544 -53.2152,54.94157c-30.24392,0.72613 -55.63561,-24.31721 -56.30774,-52.31203c-0.67213,-27.99483 23.30056,-51.27778 53.54448,-52.0039c30.24392,-0.72613 55.30634,21.37953 55.97846,49.37437z" fill="#ffa000" stroke="#000000" stroke-width="2.5" stroke-linecap="butt"/><path d="M347.45675,116.91987c0.05364,2.23422 -1.89077,4.09314 -4.34297,4.15202c-2.45219,0.05888 -4.48357,-1.7046 -4.53722,-3.93881c-0.05364,-2.23421 1.89077,-4.09314 4.34297,-4.15202c2.45219,-0.05888 4.48357,1.7046 4.53722,3.93881z" fill="#ffffff" stroke="#000000" stroke-width="2.5" stroke-linecap="butt"/><path d="M295.30242,118.50179c0.05364,2.23421 -1.89077,4.09314 -4.34297,4.15202c-2.45219,0.05888 -4.48357,-1.7046 -4.53722,-3.93881c-0.05364,-2.23422 1.89077,-4.09315 4.34297,-4.15203c2.45219,-0.05888 4.48357,1.7046 4.53722,3.93882z" fill="#ffffff" stroke="#000000" stroke-width="2.5" stroke-linecap="butt"/><path d="M332.34051,121.64735c0.06502,2.70806 -6.53279,5.06305 -14.73662,5.26001c-8.20384,0.19697 -14.90705,-1.83868 -14.97206,-4.54674c-0.06502,-2.70806 6.53279,-5.06305 14.73662,-5.26001c8.20384,-0.19697 14.90705,1.83868 14.97206,4.54674z" fill-opacity="0.18431" fill="#ff0505" stroke="none" stroke-width="0" stroke-linecap="butt"/><path d="M276.11349,116.78778c0,0 9.51192,-3.27995 14.52234,-3.40024c1.8664,-0.04481 4.49866,0.31544 7.06724,0.78517c4.32684,0.79129 8.47294,1.89331 8.47294,1.89331" fill="none" stroke="#000000" stroke-width="2.5" stroke-linecap="round"/><path d="M328.40659,115.96822c0,0 9.51192,-3.27995 14.52234,-3.40024c1.8664,-0.04481 4.49866,0.31544 7.06724,0.78517c4.32684,0.79129 8.47294,1.89331 8.47294,1.89331" fill="none" stroke="#000000" stroke-width="2.5" stroke-linecap="round"/><path d="M329.14877,92.40966c0,0 6.88199,-8.01214 10.48607,-8.09867c1.54433,-0.03708 4.60743,-0.16105 6.71842,1.29637c3.16253,2.18342 5.23346,6.26359 5.23346,6.26359" fill="none" stroke="#000000" stroke-width="2.5" stroke-linecap="round"/><path d="M250.27742,48.44757c0.1297,5.4024 -4.29064,9.89057 -9.87312,10.0246c-5.58248,0.13403 -10.21312,-4.13684 -10.34284,-9.53924c-0.1297,-5.4024 4.29064,-9.89057 9.87312,-10.0246c5.58248,-0.13403 10.21312,4.13684 10.34284,9.53924z" fill="#ff8026" stroke="#000000" stroke-width="2.5" stroke-linecap="butt"/><path d="M407.58622,37.16693c0.1297,5.4024 -4.29064,9.89057 -9.87312,10.0246c-5.58248,0.13403 -10.21313,-4.13684 -10.34285,-9.53924c-0.1297,-5.4024 4.29065,-9.89056 9.87313,-10.02459c5.58248,-0.13403 10.21312,4.13684 10.34284,9.53923z" fill="#ff8026" stroke="#000000" stroke-width="2.5" stroke-linecap="butt"/><path d="M246.2656,58.00519l25.04467,37.57016" fill="none" stroke="#000000" stroke-width="2.5" stroke-linecap="round"/><path d="M393.15602,47.6272l-29.20447,47.35519" fill="none" stroke="#000000" stroke-width="2.5" stroke-linecap="round"/><path d="M294.55005,274.35546l0.47083,-69.69912l24.02774,40.69974l26.21322,-2.23754l-0.31259,31.63506l-38.68148,-25.8743l45.4186,-28.42952" fill="none" stroke="url(#color-4)" stroke-width="2.5" stroke-linecap="round"/><path d="M335.42652,157.90844l7.75585,0.75171l-8.39138,2.0773l-18.07826,-0.97284l-20.11984,1.88993l4.63624,-2.22162" fill="none" stroke="#000000" stroke-width="2.5" stroke-linecap="round"/></g></g></svg>