<svg version="1.1" xmlns="http://www.w3.org/2000/svg" xmlns:xlink="http://www.w3.org/1999/xlink" width="208.744" height="254.93809" viewBox="0,0,208.744,254.93809"><g transform="translate(-135.79817,-69.45311)"><g stroke-miterlimit="10"><path d="M205.9042,182.09195l-54.20606,15.90539l30.79025,-48.16898z" fill="#ffe798" stroke="#000000" stroke-width="2.5" stroke-linecap="butt"/><path d="M195.05591,159.83491l-55.76271,-9.04432l48.56275,-30.16538z" fill="#ffe798" stroke="#000000" stroke-width="2.5" stroke-linecap="butt"/><path d="M294.50301,149.06056l28.83662,49.36334l-53.52565,-18.06332z" fill="#ffe798" stroke="#000000" stroke-width="2.5" stroke-linecap="butt"/><path d="M292.16263,120.53451l47.31582,32.08588l-56.08016,6.80404z" fill="#ffe798" stroke="#000000" stroke-width="2.5" stroke-linecap="butt"/><path d="M196.77324,289.79105c0,0 -2.10528,-9.31242 -0.45782,-21.59461c0.93101,-6.94086 3.70085,-26.754 6.16441,-39.10131c3.22023,-16.13968 8.49869,-32.54187 10.23549,-42.73594c0.91451,-5.36763 -0.74688,-9.85137 -0.74688,-9.85137l53.91949,1.52577c0,0 -2.04489,3.78107 -0.99199,9.58101c2.08125,11.46464 8.48145,31.30958 12.20133,48.87724c2.28968,10.81334 4.16489,30.16293 4.81723,36.21831c1.36886,12.70655 -3.81163,18.70999 -3.81163,18.70999c0,0 14.80287,-2.14468 18.1407,2.83299c6.10452,9.10363 1.67817,28.05371 -5.09662,28.69249c-3.09132,0.29147 -26.86618,-1.71809 -37.29417,-8.05291c-12.67794,-7.70161 -10.68962,-22.47995 -15.16183,-20.67754c-4.91719,1.98176 -5.43094,16.37678 -14.49084,21.321c-13.14623,7.17425 -36.80566,7.66801 -39.94982,7.60503c-4.22848,-0.0847 -10.26468,-17.38187 -5.32166,-26.93129c3.34332,-6.45897 17.84464,-6.41887 17.84464,-6.41887z" fill="#ffe798" stroke="#000000" stroke-width="2.5" stroke-linecap="butt"/><path d="M295.26395,137.51628c-0.5608,27.99729 -25.33547,53.15175 -55.58204,52.54589c-30.24657,-0.60586 -54.51129,-26.74261 -53.95049,-54.73989c0.5608,-27.99728 25.53512,-50.20243 55.78169,-49.59657c30.24657,0.60586 54.31165,23.79329 53.75084,51.79057z" fill="#ffe798" stroke="#000000" stroke-width="2.5" stroke-linecap="butt"/><path d="M256.50389,134.56722c-0.05425,2.7083 -6.74932,4.77058 -14.95387,4.60624c-8.20455,-0.16434 -14.81166,-2.49308 -14.75741,-5.20137c0.05425,-2.7083 6.74932,-4.77058 14.95387,-4.60624c8.20455,0.16434 14.81166,2.49308 14.75741,5.20137z" fill-opacity="0.18431" fill="#ff0505" stroke="none" stroke-width="0" stroke-linecap="butt"/><path d="M219.64016,129.79437c-0.04476,2.23441 -2.06911,4.00595 -4.52152,3.95682c-2.45241,-0.04912 -4.4042,-1.9003 -4.35944,-4.13471c0.04476,-2.23442 2.06911,-4.00596 4.52152,-3.95683c2.45241,0.04912 4.4042,1.9003 4.35944,4.13472z" fill="#ffffff" stroke="#000000" stroke-width="2.5" stroke-linecap="butt"/><path d="M271.81355,130.50972c-0.04476,2.23442 -2.06911,4.00595 -4.52152,3.95682c-2.45241,-0.04912 -4.4042,-1.9003 -4.35944,-4.13471c0.04476,-2.23441 2.06911,-4.00595 4.52152,-3.95682c2.45241,0.04912 4.4042,1.9003 4.35944,4.13471z" fill="#ffffff" stroke="#000000" stroke-width="2.5" stroke-linecap="butt"/><g fill="none" stroke="#000000" stroke-width="2.5" stroke-linecap="round"><path d="M282.503,191.81186l-9.26512,3.34996l-22.00259,-16.45197"/><path d="M272.66119,195.44521l4.93097,13.35676"/><path d="M274.13874,194.54732l20.06661,12.16244"/><path d="M287.09189,201.44188l5.06706,-4.66642"/><path d="M287.32756,202.27115l-4.99147,7.0349"/></g><g><path d="M142.42275,125.94581l200.86942,-12.96559" fill="none" stroke="#000000" stroke-width="2.5" stroke-linecap="round"/><path d="M248.38609,107.96972c1.89188,12.34319 -0.13173,9.13598 -13.3123,10.33247c-3.23963,0.29408 -8.2279,-1.16852 -12.75093,0.27796c-22.92518,7.33155 -43.42034,0.80942 -45.77721,-14.56759c-2.35687,-15.377 17.02716,-21.94221 39.95234,-29.27376c8.65017,-2.76635 17.98668,-4.017 22.63849,0.20192c7.67668,6.96232 7.78206,23.45406 9.24963,33.02899z" fill="#ba7245" stroke="#000000" stroke-width="2.5" stroke-linecap="butt"/><path d="M266.72536,72.7323c23.63663,2.74083 43.39266,3.81467 43.22563,19.44053c-0.16703,15.62585 -19.46372,26.07122 -43.10035,23.3304c-4.6634,-0.54076 -9.37749,1.87845 -12.61357,2.22283c-13.16612,1.40115 -14.71179,4.96026 -14.57771,-7.58268c0.09014,-8.43285 -2.61202,-27.46703 1.99698,-35.39952c3.93137,-6.76622 14.18843,-3.27323 25.06901,-2.01156z" fill="#ba7245" stroke="#000000" stroke-width="2.5" stroke-linecap="butt"/><path d="M269.3851,96.75558c-0.22188,11.07699 -13.3893,19.79652 -29.41026,19.47561c-16.02096,-0.32091 -28.82864,-9.56074 -28.60677,-20.63772c0.22188,-11.07699 13.3893,-19.79652 29.41026,-19.47561c16.02096,0.32091 28.82864,9.56074 28.60677,20.63772z" fill="#ba7245" stroke="none" stroke-width="0" stroke-linecap="butt"/></g><path d="M246.23402,177.61838c0.14457,3.18163 -1.24084,5.76697 -3.09441,5.77449c-1.85357,0.00752 -3.47338,-2.5656 -3.61795,-5.74724c-0.14457,-3.18163 1.24084,-5.76697 3.09441,-5.77449c1.85357,-0.00752 3.47338,2.5656 3.61795,5.74724z" fill="#000000" stroke="#000000" stroke-width="2.5" stroke-linecap="butt"/></g></g></svg>