<svg version="1.1" xmlns="http://www.w3.org/2000/svg" xmlns:xlink="http://www.w3.org/1999/xlink" width="167.90174" height="296.09177" viewBox="0,0,167.90174,296.09177"><defs><linearGradient x1="383.8713" y1="51.31844" x2="381.80075" y2="91.26219" gradientUnits="userSpaceOnUse" id="color-1"><stop offset="0" stop-color="#5d5d5d"/><stop offset="1" stop-color="#151515"/></linearGradient><linearGradient x1="345.4235" y1="59.23399" x2="343.24234" y2="101.31169" gradientUnits="userSpaceOnUse" id="color-2"><stop offset="0" stop-color="#cfcfcf"/><stop offset="1" stop-color="#868686"/></linearGradient><linearGradient x1="323.74249" y1="164.19334" x2="315.28066" y2="342.82718" gradientUnits="userSpaceOnUse" id="color-3"><stop offset="0" stop-color="#383838"/><stop offset="1" stop-color="#191919"/></linearGradient><linearGradient x1="135.37982" y1="78.11419" x2="135.31511" y2="79.36252" gradientUnits="userSpaceOnUse" id="color-4"><stop offset="0" stop-color="#878787"/><stop offset="1" stop-color="#848484"/></linearGradient><radialGradient cx="394.88311" cy="92.64426" r="13.62021" gradientUnits="userSpaceOnUse" id="color-5"><stop offset="0" stop-color="#ffffff" stop-opacity="0.41961"/><stop offset="1" stop-color="#ffffff" stop-opacity="0"/></radialGradient></defs><g transform="translate(-255.77318,-50.8111)"><g stroke-miterlimit="10"><path d="M342.9406,70.96736c-0.02819,-0.24087 -0.02067,-0.48934 0.01607,-0.74208c0.03302,-0.31277 0.11241,-0.60989 0.23241,-0.88328c0.62408,-1.69219 2.18092,-3.4066 2.84094,-4.21891c3.04744,-3.75062 5.68487,-9.16156 10.49227,-10.91329c5.67178,-2.06667 12.38601,3.05469 17.5544,5.73673c1.7135,0.88918 4.39893,2.93419 6.18596,2.91113c2.4826,-0.03203 3.08991,-1.67846 4.9171,-2.8428c3.74504,-2.38646 6.95207,-6.25138 11.29199,-7.69335c3.18337,-1.05769 5.94649,1.33566 8.59969,3.07003c6.37779,4.16907 15.93853,11.9405 17.35349,19.34716c1.08722,5.69105 -5.88034,7.7389 -9.92477,8.09462c-1.08832,0.09572 -3.77769,-1.18428 -4.36638,-0.70815c-1.60649,1.29934 -2.77696,2.35057 -4.06315,4.35211c-0.92819,1.44443 -1.43088,4.0527 -2.67153,5.00179c-1.09871,0.84051 -3.25981,1.09238 -4.59822,-0.34437c-1.82392,-1.95793 -0.26643,-4.43532 0.49814,-6.03836c1.47634,-3.09543 4.12876,-7.63624 7.5105,-8.86848c2.90186,-1.05738 6.45057,1.15607 9.03919,-0.0791c0.47575,-0.22701 2.19362,-0.93529 2.21309,-1.52592c0.09856,-2.98882 -7.48746,-8.52283 -9.71038,-10.4471c-1.936,-1.67589 -5.0246,-5.11936 -7.46869,-5.53164c-1.45164,-0.24488 -4.02535,2.55602 -5.05786,3.36414c-3.94389,3.08682 -7.37195,6.85997 -12.59073,7.31898c-2.38587,0.20984 -11.72604,-4.08438 -13.94945,-5.69004c-2.27542,-1.64322 -5.49738,-3.8213 -8.17517,-3.23005c-2.49084,0.54997 -6.58057,7.17838 -8.04536,9.1165c-0.18401,0.24346 -1.18585,1.73672 -1.9954,2.8664c-0.19783,0.5005 -0.52857,0.92768 -0.95876,1.23474c-0.38939,0.27795 -0.86026,0.45747 -1.38775,0.50387c-1.65846,0.14586 -3.27006,-1.0776 -3.68323,-2.76083c-0.04832,-0.12607 -0.08186,-0.2592 -0.09839,-0.40043z" fill="url(#color-1)" stroke="#000000" stroke-width="2.5" stroke-linecap="butt"/><path d="M306.33273,82.52322l7.41106,-24.87946c0,0 24.01192,0.64913 35.56282,4.0899c11.30606,3.36784 33.02379,16.3406 33.02379,16.3406l-7.41106,24.87946z" fill="url(#color-2)" stroke="#000000" stroke-width="2.5" stroke-linecap="butt"/><path d="M265.30821,336.59326l4.69923,-147.22993c0,0 8.27697,-25.30366 18.75024,-25.16654c10.40082,0.13618 35.03494,0.85575 56.56862,1.13769c23.35582,0.30579 29.34716,27.53081 29.34716,27.53081l-6.97876,152.67885z" fill="url(#color-3)" stroke="#000000" stroke-width="2.5" stroke-linecap="butt"/><path d="M255.77318,174.93736z" fill="url(#color-4)" stroke="#000000" stroke-width="2.5" stroke-linecap="butt"/><path d="M359.5341,170.52086c0,0 -12.07305,46.6536 -19.50849,63.62257c-5.34572,12.19986 -20.94134,28.69094 -20.94134,28.69094c0,0 -10.98019,-18.86327 -14.46971,-31.31501c-5.00119,-17.8458 -12.67009,-65.5283 -12.67009,-65.5283z" fill="#ffffff" stroke="#000000" stroke-width="2.5" stroke-linecap="round"/><path d="M382.1845,131.08248c-3.41319,28.34948 -30.63099,51.41186 -60.66672,47.79565c-30.03573,-3.6162 -51.51548,-32.54161 -48.10229,-60.89108c3.41319,-28.34947 30.52891,-48.39976 60.56464,-44.78354c30.03573,3.6162 51.61758,29.52951 48.2044,57.87898z" fill="#9c9c9c" stroke="#000000" stroke-width="2.5" stroke-linecap="butt"/><path d="M342.64369,126.50515c-0.14023,2.70521 -6.89742,4.55384 -15.0926,4.12903c-8.1952,-0.42481 -14.72502,-2.96219 -14.58479,-5.6674c0.14023,-2.70521 6.89742,-4.55384 15.0926,-4.12903c8.1952,0.42481 14.72502,2.96219 14.58479,5.6674z" fill-opacity="0.18431" fill="#000000" stroke="none" stroke-width="0" stroke-linecap="butt"/><path d="M304.71993,118.24133c-0.09786,2.23273 -2.16379,3.95561 -4.61433,3.84819c-2.45055,-0.10742 -4.35777,-2.00449 -4.2599,-4.2372c0.09786,-2.23273 2.16379,-3.95561 4.61433,-3.84819c2.45055,0.10742 4.35776,2.00449 4.25988,4.23721z" fill="#ffffff" stroke="#000000" stroke-width="2.5" stroke-linecap="butt"/><path d="M359.46722,122.19675c-0.09786,2.23273 -2.16378,3.95561 -4.61433,3.84819c-2.45055,-0.10742 -4.35776,-2.00449 -4.25988,-4.2372c0.09786,-2.23273 2.16378,-3.9556 4.61433,-3.84818c2.45055,0.10742 4.35777,2.00448 4.25989,4.23719z" fill="#000000" stroke="#000000" stroke-width="2.5" stroke-linecap="butt"/><path d="M316.46521,120.78331c-1.18972,0.38351 -1.57322,-0.80621 -1.57322,-0.80621l-0.05525,-0.19632c-0.99232,-2.20739 -1.98667,-4.3727 -3.00876,-6.5548c-0.9814,-2.10543 -2.25379,-4.66254 -4.81811,-5.20386c-3.91765,-0.827 -8.33706,2.71652 -10.04131,5.76095c-0.56277,1.00533 -1.32502,2.17716 -1.04478,3.29469c0,0 0.24978,1.22478 -0.975,1.47457c-1.22478,0.24978 -1.47457,-0.975 -1.47457,-0.975c-1.13965,-6.50484 7.87445,-13.22627 14.09535,-11.99174c3.34793,0.6644 5.22148,3.78914 6.52434,6.58417c1.02048,2.19878 2.02449,4.36495 3.02303,6.58594l0.15451,0.4544c0,0 0.38351,1.18972 -0.80621,1.57322z" fill="#000000" stroke="none" stroke-width="0.5" stroke-linecap="butt"/><g fill="#000000" stroke="#000000" stroke-width="2.5"><path d="M325.73662,185.92998l20.26715,-4.9707l-0.53008,21.9233l-20.63328,-11.361l-23.46815,8.23587l0.87764,-20.83006z" stroke-linecap="round"/><path d="M332.60391,189.91855c-0.17312,3.3398 -3.60155,5.76139 -7.65762,5.4088c-4.05607,-0.3526 -7.2038,-3.34588 -7.03068,-6.68567c0.17312,-3.3398 3.60155,-5.76139 7.65761,-5.40879c4.05607,0.3526 7.2038,3.34588 7.03068,6.68567z" stroke-linecap="butt"/></g><path d="M321.66466,211.22282c-3.17467,-0.97082 -4.88387,-5.58902 -0.49899,-6.12096c3.79568,-0.46047 6.03266,5.20629 1.1774,6.15613z" fill="#000000" stroke="none" stroke-width="0.5" stroke-linecap="butt"/><path d="M323.05327,221.92964c2.11327,2.74078 1.02696,6.87199 -2.92202,5.22647c-5.55177,-2.31339 1.26688,-8.32235 2.82386,-5.23705z" fill="#000000" stroke="none" stroke-width="0.5" stroke-linecap="butt"/><path d="M322.86834,241.8453c-2.87336,4.4736 -6.24059,0.56463 -5.52665,-0.69558c-0.00014,-0.04601 0.001,-0.09229 0.00341,-0.13881c0.01328,-0.25624 0.06471,-0.50146 0.14847,-0.73045c1.16598,-4.18739 6.41382,-0.05287 5.37478,1.56483z" fill="#000000" stroke="none" stroke-width="0.5" stroke-linecap="butt"/><path d="M288.88629,188.01763l15.05819,62.39809" fill="none" stroke-opacity="0.25882" stroke="#000000" stroke-width="2.5" stroke-linecap="round"/><path d="M356.17656,208.59496l-18.51331,41.40238" fill="none" stroke-opacity="0.25882" stroke="#000000" stroke-width="2.5" stroke-linecap="round"/><path d="M318.49877,266.81523l-1.69541,60.56686" fill="none" stroke-opacity="0.25882" stroke="#000000" stroke-width="2.5" stroke-linecap="round"/><path d="M344.3224,251.546l22.64028,-46.72441" fill="none" stroke-opacity="0.25882" stroke="#000000" stroke-width="2.5" stroke-linecap="round"/><path d="M295.05388,254.76872l-14.67765,-60.45282" fill="none" stroke-opacity="0.25882" stroke="#000000" stroke-width="2.5" stroke-linecap="round"/><path d="M325.89544,174.3524c-6.95907,-0.35023 -13.55268,-5.08039 -13.5413,-6.27898c0.00761,-0.80236 0.44246,1.2868 4.48997,2.12989c1.99876,0.41634 6.7921,-0.30714 9.09259,-0.19137c2.44294,0.12295 8.19848,1.15033 10.39956,0.90589c4.069,-0.45189 3.88768,-2.31112 3.8803,-1.53329c0,0 -7.36208,5.3181 -14.32112,4.96787z" fill="#000000" stroke="#000000" stroke-width="2.5" stroke-linecap="butt"/><path d="M408.50333,92.64426c0,7.41322 -6.09798,13.42282 -13.62021,13.42282c-7.52224,0 -13.62021,-6.0096 -13.62021,-13.42282c0,-7.41322 6.09798,-13.42282 13.62021,-13.42282c7.52224,0 13.62021,6.0096 13.62021,13.42282z" fill="url(#color-5)" stroke="none" stroke-width="0" stroke-linecap="butt"/></g></g></svg>