<svg version="1.1" xmlns="http://www.w3.org/2000/svg" xmlns:xlink="http://www.w3.org/1999/xlink" width="174.78811" height="434.28919" viewBox="0,0,174.78811,434.28919"><defs><linearGradient x1="298.88584" y1="177.97602" x2="298.88584" y2="203.25453" gradientUnits="userSpaceOnUse" id="color-1"><stop offset="0" stop-color="#ffffff"/><stop offset="1" stop-color="#2c2c2c"/></linearGradient><linearGradient x1="320.6467" y1="182.41475" x2="320.6467" y2="210.85276" gradientUnits="userSpaceOnUse" id="color-2"><stop offset="0" stop-color="#ffffff"/><stop offset="1" stop-color="#2c2c2c"/></linearGradient><linearGradient x1="322.82352" y1="210.65182" x2="322.82352" y2="258.94132" gradientUnits="userSpaceOnUse" id="color-3"><stop offset="0" stop-color="#717171"/><stop offset="1" stop-color="#2c2c2c"/></linearGradient><linearGradient x1="340.83402" y1="176.53486" x2="340.83402" y2="201.81337" gradientUnits="userSpaceOnUse" id="color-4"><stop offset="0" stop-color="#ffffff"/><stop offset="1" stop-color="#2c2c2c"/></linearGradient><linearGradient x1="312.72637" y1="79.184" x2="313.28566" y2="86.14931" gradientUnits="userSpaceOnUse" id="color-5"><stop offset="0" stop-color="#a2a2a2"/><stop offset="1" stop-color="#7f7f7f"/></linearGradient></defs><g transform="translate(-228.5727,-29.67819)"><g stroke-miterlimit="10"><g fill="#000000" stroke="none" stroke-width="0.5" stroke-linecap="butt"><path d="M266.8065,110.66562c0.57937,-0.94195 1.16757,-1.87621 1.78149,-2.78845c1.02683,-1.52526 1.89464,-3.13708 2.7754,-4.74774c-1.33427,0.55913 -2.23042,1.69319 -2.34621,3.66827c-0.91533,0.75777 -2.00191,2.48992 -2.21068,3.86791zM343.27156,203.43355c-0.05562,-0.24832 -0.07163,-0.52396 -0.06883,-0.80194c-0.1626,-1.30475 -0.54527,-2.57972 -0.77314,-3.85703c0.00002,0.99038 0.00008,1.98077 0.00033,2.97122c0.0009,3.50763 0.45271,7.11068 0.45271,10.59129c0,2.87045 0.6048,6.76433 -0.04045,9.49013l0.03944,0.01028l-0.00136,0.49956c0,0.00003 0,0.00006 0,0.00008c-0.00037,0.13767 -0.11416,0.21988 -0.25448,0.18368c-0.02136,-0.00551 -0.0421,-0.01344 -0.06192,-0.02343c0.70759,3.02973 0.97787,6.23247 1.49943,9.20045c0.63386,3.60705 0.85496,7.15906 1.71286,10.77286c0.40332,1.69895 0.97639,3.51348 1.18782,5.19824c0.06277,0.50015 0.04331,1.04831 0.03691,1.53501c-0.00235,0.17888 0.01677,0.69686 0.09505,0.55486c0.2368,-0.42949 0.26879,-1.01544 0.36069,-1.5794l-0.07789,-0.02592l0.03848,-0.48645c0.0088,-0.12796 0.11912,-0.20246 0.25392,-0.16769c0.10339,0.02667 0.19237,0.11019 0.2322,0.20745l0.21636,0.50224c1.04133,2.42336 0.96868,4.83484 1.7859,7.23971c1.20761,3.57299 1.25265,7.24978 1.75442,10.81815c0.13975,0.99386 1.47623,5.88037 0.65101,6.32933c-0.0065,0.00354 -0.01298,0.00697 -0.01943,0.01031c0.24232,0.76396 0.45735,1.5331 0.61812,2.32653c1.10439,3.58908 2.30884,7.26657 3.04347,10.85735c0.3468,1.75118 1.74366,3.77153 2.31702,5.49887c0.47729,1.43793 0.03612,3.70883 -0.00044,5.10135c-0.23173,2.42074 -1.61509,4.85289 -2.74075,6.80659c-0.38464,0.66758 -0.3874,1.59159 -0.95945,2.05034c-2.04376,2.4428 -3.87282,4.55097 -6.43275,6.4392c-2.31861,1.96246 -4.57439,4.17419 -6.60959,6.43518c-2.01628,2.2307 -5.09177,3.82524 -7.49831,5.53938c-2.19065,1.42091 -5.47781,3.69659 -8.70968,3.05428c-3.50389,-0.78088 -6.86328,-0.47911 -10.5122,-1.42057c-3.50867,-0.90579 -6.97086,-2.25041 -10.58405,-3.17174c-3.56359,-0.90869 -7.06595,-1.37504 -10.6541,-2.30849c-3.21591,-0.83664 -7.70842,-3.27346 -9.60517,-6.35784c-2.17176,-3.71431 -6.51275,-3.32664 -9.48836,-3.06678c-0.79116,0.06883 -2.92452,0.73136 -3.65463,-0.27722c-0.48427,-0.66898 -0.99303,-4.6725 -0.88297,-6.04801c-2.74462,0.91375 -3.44627,3.17845 -5.24408,4.91112l0.02464,0.01944l-0.23965,0.37348c-0.04227,0.06961 -0.12775,0.10262 -0.22632,0.07719c-0.14055,-0.03626 -0.25449,-0.17758 -0.25449,-0.31565c0,-0.0008 0,-0.0016 0.00001,-0.00239l0.00417,-0.49856l0.00063,0.00017l-0.0006,-0.00254c0.05342,-1.90125 0.11478,-4.66728 0.76211,-6.29616c0.72273,-1.78857 1.28779,-3.81548 1.49899,-5.86149c0.123,-1.19159 -0.25797,-2.66434 0.08879,-3.76126c-2.3452,0.59873 -4.35886,3.27603 -6.58107,4.62568l0.02256,0.02456l-0.32748,0.29597c-0.04668,0.04291 -0.11693,0.05976 -0.19548,0.03949c-0.14055,-0.03626 -0.25449,-0.17758 -0.25449,-0.31565c0,-0.00073 0,-0.00146 0.00001,-0.00219l0.00381,-0.49869c0.03235,-2.46629 1.06956,-5.73235 1.96461,-7.82505c0.79219,-1.85221 1.21112,-4.26151 1.18451,-6.46645c-0.00245,-0.20317 0.00917,-2.20622 -0.11357,-2.25624c-0.27846,-0.11347 -0.39442,0.30604 -0.64199,0.37415c-2.79144,0.75646 -4.70553,2.95851 -7.32762,3.98103l-0.00009,0.41036c0,0 0,0 0,0.00001c-0.00003,0.13804 -0.11395,0.22055 -0.25449,0.1843c-0.14054,-0.03626 -0.25447,-0.17757 -0.25449,-0.31563v0l-0.00004,-0.50001l0.00015,0.00004v-0.00007l0.00004,0.00001l-0.00004,-0.00005c0.00061,-1.16965 0.01172,-2.33396 0.0452,-3.49468c0.0903,-3.13066 1.17695,-6.9965 2.14648,-9.75771c0.72524,-2.06546 1.07393,-4.18446 1.36714,-6.44955c0.09146,-0.70651 -0.13136,-1.70653 0.0122,-2.40321c-0.91753,0.7408 -2.47957,1.37849 -3.14526,2.31375c-0.3553,0.49917 -0.47289,1.09221 -0.74223,1.62489l0.08743,0.05535l-0.17945,0.41535c-0.03505,0.08785 -0.12921,0.13293 -0.23986,0.10439c-0.14055,-0.03626 -0.25449,-0.17758 -0.25449,-0.31565c0,-0.00183 0.00002,-0.00364 0.00006,-0.00545l0.00954,-0.49668c0.01696,-0.87386 0.12535,-1.64001 0.34153,-2.43496c0.86955,-3.19745 1.53571,-6.41154 2.63324,-9.4992c0.78325,-2.2035 0.98633,-4.62515 1.60634,-6.88989c0.24076,-0.87945 0.85051,-1.59404 0.84181,-2.5782c-0.00051,-0.65098 0.35746,-3.79003 -0.1469,-4.30128c-0.06876,-0.0697 -0.9756,0.41309 -1.03855,0.4409c-1.01183,0.44703 -1.64335,1.3449 -2.45769,2.01031c-0.29925,0.71442 -0.61991,1.41764 -0.89304,2.1453c-0.05741,0.15295 -0.4377,1.45108 -0.50866,1.45654c-1.81286,0.13945 -0.09269,-3.35029 0.4338,-3.6316c0.14549,-0.0767 0.35153,-0.25616 0.59933,-0.49122c0.24206,-0.61594 0.46697,-1.24138 0.62839,-1.89568c0.79151,-3.20833 2.38202,-5.87795 3.0595,-9.22248c0.83474,-2.0935 1.45281,-4.41421 1.68425,-6.80854c0.04699,-0.48614 -0.09864,-1.13441 -0.05392,-1.65344c-0.77173,0.80724 -2.23787,1.32963 -3.14152,1.98553c-0.86657,1.16942 -1.96754,2.21874 -2.75904,3.43713c-0.56389,0.86801 -0.7738,2.30762 -1.37396,3.23284c-0.05779,0.17459 -0.11611,0.34655 -0.17483,0.5153l-0.1506,0.4328c-0.03062,0.09641 -0.12852,0.14745 -0.24455,0.11751c-0.1403,-0.0362 -0.25409,-0.17709 -0.25448,-0.31493c0,-0.00003 0,-0.00006 0,-0.00009l-0.00146,-0.50028l0.11648,0.02972c-0.01748,-0.98372 0.36834,-1.97355 0.93292,-2.91992c0.18422,-0.68172 0.35218,-1.36557 0.49588,-2.02396c0.71492,-3.24851 1.97034,-6.22765 2.91562,-9.35988c0.61512,-2.03306 1.24689,-4.21327 1.68535,-6.33181c0.10692,-0.5166 0.04172,-1.25938 0.10476,-1.86805c-0.88598,1.36956 -2.30142,2.29854 -3.15028,3.6869c-0.57057,0.9332 -0.94977,2.18926 -1.68613,2.91151c0,0.01083 -0.00001,0.02165 -0.00002,0.03247l-0.00046,0.49985c0,0.00001 0,0.00002 0,0.00003c-0.00012,0.13794 -0.11401,0.22036 -0.25449,0.18412c-0.14054,-0.03626 -0.25446,-0.17755 -0.25449,-0.31561l-0.00008,-0.50002l0.00054,0.00014v-0.00026c0.00139,-1.51325 -0.04505,-3.03687 0.17367,-4.48017c0.50215,-3.31367 0.74443,-6.74568 1.18527,-10.09727c-0.00202,-1.82633 0.0251,-3.64735 -0.0139,-5.48284c-0.00555,-0.26138 0.15267,-1.59743 0.02776,-1.7792c-0.25247,-0.36739 -0.41515,0.56181 -0.65695,0.81001c-0.12969,0.13312 -0.24945,0.21737 -0.37693,0.28287l-0.3563,0.26484c-0.04619,0.0344 -0.11058,0.04654 -0.1818,0.02816c-0.14055,-0.03626 -0.25449,-0.17758 -0.25449,-0.31565v0v-0.5v0v-0.00001c0.00041,-3.59333 0.61926,-6.72905 1.27231,-10.09426c0.41078,-2.09041 0.08687,-4.68952 0.08662,-6.92493c-0.00005,-0.48819 -0.12039,-1.29103 -0.06715,-1.91524c-0.39742,0.38368 -0.79362,0.85896 -1.15823,1.35685c-0.13227,0.56999 -0.25811,1.14001 -0.38011,1.70651c-0.13715,0.63459 -0.52076,3.29127 -1.4864,1.81755c-0.60679,-0.92606 0.37629,-2.63638 1.41267,-3.94402c0.61073,-2.6012 1.36119,-5.19583 2.48599,-7.44662c1.41045,-2.82238 1.90653,-6.15541 3.34082,-9.03023c0.76836,-3.18588 2.07302,-6.17072 2.49532,-9.49177c0.21294,-1.67456 -0.28579,-1.69097 -0.93427,-1.08189c-0.06389,0.17547 -0.12683,0.35066 -0.18859,0.52558c-0.75186,1.32921 -1.2078,2.71481 -1.72898,4.19027l-0.06832,0.45838c-0.01568,0.11925 -0.12275,0.18703 -0.25251,0.15356c-0.13491,-0.0348 -0.2453,-0.16641 -0.25394,-0.29903l-0.03776,-0.50621l0.07714,0.01424c-0.30047,-1.78479 0.69253,-2.95541 1.69072,-4.13789c0.03305,-0.06033 0.06668,-0.12052 0.10092,-0.18057c1.04119,-2.97918 2.43888,-6.00749 3.05202,-9.15444c0.62841,-3.22527 1.39046,-6.28088 1.79994,-9.58997c-2.74845,0.64864 -4.75526,2.80482 -7.27412,3.72338l0.01973,0.0282l-0.38867,0.22009c-0.0444,0.02565 -0.10194,0.0332 -0.16481,0.01698c-0.14055,-0.03626 -0.25449,-0.17758 -0.25449,-0.31565c0,-0.00979 0.00057,-0.01929 0.00169,-0.0285l0.0516,-0.48066l0.00476,0.00171l-0.00202,-0.01999c0.08701,-0.30635 0.17424,-0.61258 0.26173,-0.91868c0.90398,-3.11413 2.16642,-6.03254 3.61095,-8.90589c1.42891,-2.84228 3.09762,-5.51808 4.69364,-8.24008c0.99897,-1.52349 1.93693,-3.09824 2.89016,-4.6595c-0.22193,-0.08749 -0.21062,-0.31334 -0.21062,-0.31334l0.00332,-0.0664c0.07285,-1.40161 1.23678,-3.60694 2.28189,-4.34647c-0.01649,-2.1876 1.38356,-3.60031 3.24998,-4.14455c0.2725,-0.49253 0.54886,-0.98361 0.83401,-1.47072c0,0 0.11381,-0.19425 0.34143,-0.02372c0.22762,0.17052 0.11381,0.36477 0.11381,0.36477c-0.18748,0.31971 -0.37114,0.64118 -0.55237,0.96369c0.93909,-0.15282 1.95653,-0.1056 2.94942,0.15179c0.34739,-0.5119 1.32117,-0.49402 1.89822,-0.90892c1.99219,-1.4324 3.87712,-2.38206 5.8551,-3.79052c2.47023,-1.65733 5.13401,-3.76049 8.12372,-4.55274c2.50395,-1.83032 5.4341,-3.07918 7.96886,-4.85754c0.91997,-0.59435 2.46343,-1.78653 3.61702,-1.94432c1.86742,-0.25542 3.97626,0.4732 5.88399,0.1875c2.37516,0.30641 5.00701,0.15717 7.2847,0.13069c0.94712,-0.01101 2.11194,0.93512 2.75704,0.1992c3.59016,-0.07503 6.36093,-0.87959 9.67576,-1.69151c2.01222,-0.48877 3.53252,-1.55402 5.33015,-2.34711c0.46797,-0.20646 1.20368,-0.41501 1.73123,0.20253c0.51048,0.59755 0.76199,1.93705 0.97515,2.65517c0.77364,3.63487 1.56056,7.20464 2.2674,10.84171c0.26765,1.37724 0.363,2.69276 0.39504,4.00141c0.01444,0.03242 0.02345,0.06655 0.02568,0.10075l0.03789,0.50623c0.01456,0.20228 0.03257,0.40566 0.05358,0.61001c0.02954,0.17242 0.04994,0.35666 0.06304,0.54885c0.33391,2.64503 1.09612,5.431 1.32878,8.07964c0.31557,3.59253 0.31452,7.06588 0.31427,10.58952c-0.00021,2.85743 0.62731,6.82455 -0.1314,9.49091l0.03897,0.01553l-0.07152,0.47287c-0.01588,0.11898 -0.12285,0.18656 -0.25245,0.15312c-0.08652,-0.02232 -0.16295,-0.08445 -0.20893,-0.16113l-0.29419,-0.47984l0.02003,-0.00891l-0.0543,-0.06578c-0.03494,-0.74971 -0.18447,-1.44996 -0.36076,-2.13077c-0.01239,0.75476 -0.10166,1.5065 -0.01075,2.25916c0.24701,2.04493 0.92317,4.12318 1.14544,6.18257c0.38679,3.58375 0.69549,7.15427 1.08563,10.73886c-0.00016,0.62168 0.34745,5.04209 -0.83808,4.25665c-0.13349,-0.08844 -0.14782,-1.05298 -0.16537,-1.23426c-0.03519,-0.3635 -0.16424,-0.78773 -0.32031,-1.23293c0.08067,0.92082 0.15466,1.84125 0.3579,2.79676c0.77042,3.62216 1.44488,7.23234 2.05981,10.84438c0.60864,3.57508 0.30313,7.08608 0.66524,10.64838c0.15442,1.52855 0.05526,3.04253 0.0452,4.53619c-0.00121,0.18016 0.0205,1.15297 -0.13069,1.17923c-0.44278,0.07691 -0.89103,-1.24338 -1.17984,-2.5398c0.11076,2.34375 0.41331,4.70705 0.41786,7.03772c0.00465,3.48989 0.8992,7.19708 0.90086,10.69149c0,2.78792 0.59822,6.62698 -0.00264,9.31996c0.00065,0.06047 0.00128,0.11993 0.00193,0.17832l-0.00121,0.00089l0.00122,0.00031v0.00034l0.0007,0.00018l-0.00001,0.5v0c0,0.13807 -0.11394,0.2206 -0.25449,0.18434c-0.14043,-0.03623 -0.2543,-0.17735 -0.25449,-0.31531c0,-0.00001 0,-0.00003 0,-0.00004l-0.00069,-0.49923c-0.00101,-0.091 -0.00355,-0.18181 -0.00749,-0.27245zM256.76073,152.80788c0.15305,-0.43536 0.30795,-0.86349 0.47428,-1.28481c-0.21471,0.39296 -0.37419,0.74595 -0.43712,0.983c-0.02607,0.09822 -0.0361,0.19943 -0.03716,0.30182zM251.06702,178.04219c-0.10305,0.17294 -0.19893,0.34146 -0.28627,0.50247c-0.2153,0.39693 -0.29322,0.76801 -0.28867,1.25652c0.00179,0.19216 0.09118,0.78505 0.07179,0.58929c-0.07687,-0.77634 0.29876,-1.39727 0.45501,-2.12558c0.01597,-0.07418 0.03202,-0.14842 0.04813,-0.22271zM253.6755,243.32207c-0.59681,0.3494 -0.84163,0.72701 -0.94249,1.55706c-0.03898,0.3208 0.03405,1.3304 0.09802,1.01982c0.18434,-0.89511 0.50583,-1.73737 0.84448,-2.57688zM342.25159,221.28049c-0.09847,-0.48454 -0.28412,-1.03007 -0.48681,-1.58958c0.1223,0.39288 0.24756,0.78221 0.36222,1.16225c0.04281,0.14189 0.08431,0.28435 0.12459,0.42733z"/><path d="M373.85639,115.80325c-0.1158,-1.97508 -1.01194,-3.10914 -2.34621,-3.66827c0.88076,1.61066 1.74857,3.22248 2.7754,4.74774c0.61392,0.91223 1.20212,1.8465 1.78149,2.78845c-0.20877,-1.37799 -1.29536,-3.11015 -2.21068,-3.86792zM299.59455,212.71155l-0.00069,0.49923c0,0.00001 0,0.00003 0,0.00004c-0.00019,0.13797 -0.11405,0.27909 -0.25449,0.31531c-0.14055,0.03626 -0.25449,-0.04628 -0.25449,-0.18435v0l-0.00001,-0.5l0.0007,-0.00018v-0.00034l0.00122,-0.00031l-0.00121,-0.00089c0.00065,-0.05839 0.00128,-0.11786 0.00193,-0.17832c-0.60086,-2.69298 -0.00264,-6.53205 -0.00264,-9.31996c0.00167,-3.49442 0.89621,-7.20161 0.90086,-10.6915c0.00455,-2.33068 0.3071,-4.69397 0.41787,-7.03772c-0.28882,1.29642 -0.73707,2.61671 -1.17985,2.53981c-0.15118,-0.02626 -0.12948,-0.99907 -0.13069,-1.17923c-0.01006,-1.49365 -0.10922,-3.00763 0.0452,-4.53618c0.36212,-3.56231 0.0566,-7.0733 0.66524,-10.64839c0.61493,-3.61204 1.28939,-7.22223 2.05981,-10.84438c0.20324,-0.95551 0.27722,-1.87593 0.3579,-2.79676c-0.15608,0.4452 -0.28512,0.86943 -0.32032,1.23293c-0.01755,0.18128 -0.03188,1.14581 -0.16537,1.23425c-1.18554,0.78543 -0.83793,-3.63497 -0.83808,-4.25665c0.39015,-3.5846 0.69884,-7.15511 1.08563,-10.73886c0.22227,-2.05939 0.89843,-4.13764 1.14544,-6.18257c0.09092,-0.75266 0.00164,-1.5044 -0.01075,-2.25916c-0.1763,0.6808 -0.32582,1.38107 -0.36076,2.13078l-0.0543,0.06578l0.02003,0.00891l-0.2942,0.47984c-0.04598,0.07668 -0.12241,0.1388 -0.20893,0.16112c-0.1296,0.03343 -0.23657,-0.03413 -0.25245,-0.15312l-0.07153,-0.47287l0.03897,-0.01552c-0.75872,-2.66636 -0.13119,-6.63348 -0.1314,-9.49091c-0.00025,-3.52364 -0.0013,-6.99698 0.31427,-10.58952c0.23266,-2.64864 0.99488,-5.43461 1.32878,-8.07964c0.0131,-0.19219 0.0335,-0.37643 0.06304,-0.54885c0.02101,-0.20436 0.03902,-0.40773 0.05357,-0.61001l0.0379,-0.50623c0.00223,-0.0342 0.01123,-0.06833 0.02568,-0.10075c0.03203,-1.30865 0.12739,-2.62417 0.39504,-4.00141c0.70683,-3.63707 1.49375,-7.20684 2.26739,-10.84171c0.21316,-0.71811 0.46467,-2.05761 0.97515,-2.65516c0.52755,-0.61754 1.26326,-0.40899 1.73123,-0.20253c1.79763,0.79309 3.31793,1.85833 5.33016,2.3471c3.31484,0.81193 6.0856,1.61648 9.67576,1.69151c0.6451,0.73592 1.80992,-0.21021 2.75704,-0.19919c2.27769,0.02648 4.90954,0.17572 7.2847,-0.13069c1.90773,0.2857 4.01658,-0.44292 5.88399,-0.1875c1.15359,0.15779 2.69705,1.34996 3.61702,1.94431c2.53477,1.77836 5.46491,3.02723 7.96886,4.85755c2.98971,0.79224 5.6535,2.8954 8.12372,4.55273c1.97798,1.40846 3.86292,2.35812 5.8551,3.79052c0.57705,0.4149 1.55083,0.39703 1.89822,0.90893c0.99289,-0.25739 2.01033,-0.30461 2.94941,-0.1518c-0.18123,-0.32251 -0.36489,-0.64398 -0.55237,-0.96368c0,0 -0.11381,-0.19424 0.11381,-0.36477c0.22762,-0.17052 0.34143,0.02372 0.34143,0.02372c0.28516,0.48711 0.56152,0.97818 0.83401,1.47072c1.86642,0.54424 3.26648,1.95695 3.24998,4.14455c1.04511,0.73953 2.20905,2.94485 2.28189,4.34646l0.00332,0.06639c0,0 0.01131,0.22586 -0.21062,0.31334c0.95323,1.56126 1.89119,3.13602 2.89016,4.6595c1.59602,2.722 3.26473,5.39781 4.69364,8.24008c1.44453,2.87335 2.70697,5.79175 3.61095,8.90589c0.08749,0.30611 0.17472,0.61234 0.26173,0.91868l-0.00203,0.01999l0.00476,-0.0017l0.0516,0.48066c0.00111,0.00921 0.00169,0.01871 0.00169,0.02849c0,0.13807 -0.11394,0.2794 -0.25449,0.31566c-0.06286,0.01621 -0.1204,0.00867 -0.1648,-0.01699l-0.38868,-0.22009l0.01973,-0.0282c-2.51886,-0.91856 -4.52567,-3.07474 -7.27411,-3.72338c0.40948,3.30909 1.17153,6.36469 1.79994,9.58997c0.61315,3.14695 2.01084,6.17527 3.05202,9.15445c0.03423,0.06005 0.06787,0.12024 0.10092,0.18057c0.9982,1.18248 1.99119,2.3531 1.69072,4.13789l0.07714,-0.01424l-0.03776,0.50621c-0.00864,0.13261 -0.11903,0.26422 -0.25394,0.29903c-0.12976,0.03348 -0.23683,-0.0343 -0.25251,-0.15356l-0.06832,-0.45837c-0.52118,-1.47546 -0.97712,-2.86106 -1.72897,-4.19027c-0.06176,-0.17492 -0.12469,-0.35011 -0.18859,-0.52558c-0.64848,-0.60908 -1.14721,-0.59266 -0.93427,1.08189c0.4223,3.32105 1.72696,6.30589 2.49532,9.49177c1.43428,2.87482 1.93036,6.20785 3.34082,9.03023c1.12481,2.2508 1.87526,4.84543 2.486,7.44662c1.03639,1.30764 2.01946,3.01796 1.41267,3.94402c-0.96563,1.47372 -1.34925,-1.18295 -1.48639,-1.81754c-0.122,-0.5665 -0.24784,-1.13653 -0.38011,-1.70651c-0.36461,-0.49788 -0.76082,-0.97317 -1.15823,-1.35685c0.05324,0.62421 -0.0671,1.42705 -0.06715,1.91524c-0.00024,2.23541 -0.32415,4.83452 0.08663,6.92493c0.65305,3.36521 1.2719,6.50092 1.27231,10.09426l-0.00001,0.00001h0.00001v0.5v0c0,0.13807 -0.11394,0.27939 -0.25449,0.31565c-0.07122,0.01837 -0.13561,0.00624 -0.1818,-0.02817l-0.35631,-0.26484c-0.12749,-0.06551 -0.24724,-0.14975 -0.37693,-0.28287c-0.2418,-0.2482 -0.40447,-1.1774 -0.65695,-0.81001c-0.12491,0.18177 0.03331,1.51782 0.02776,1.7792c-0.039,1.83548 -0.01188,3.6565 -0.0139,5.48283c0.44083,3.35159 0.68312,6.7836 1.18527,10.09727c0.21871,1.4433 0.17228,2.96692 0.17367,4.48017v0.00027l0.00054,-0.00014l-0.00008,0.50002c-0.00002,0.13806 -0.11395,0.27936 -0.25449,0.31562c-0.14047,0.03624 -0.25436,-0.04619 -0.25449,-0.18412c0,-0.00001 0,-0.00002 0,-0.00003l-0.00046,-0.49985c-0.00001,-0.01083 -0.00002,-0.02165 -0.00002,-0.03247c-0.73636,-0.72224 -1.11555,-1.9783 -1.68612,-2.91151c-0.84886,-1.38836 -2.2643,-2.31734 -3.15028,-3.6869c0.06304,0.60867 -0.00215,1.35145 0.10476,1.86805c0.43845,2.11854 1.07023,4.29876 1.68535,6.33181c0.94528,3.13223 2.2007,6.11138 2.91562,9.35988c0.1437,0.65838 0.31165,1.34224 0.49588,2.02396c0.56458,0.94638 0.9504,1.9362 0.93292,2.91992l0.11648,-0.02972l-0.00146,0.50028c0,0.00003 0,0.00006 0,0.00009c-0.00039,0.13785 -0.11418,0.27874 -0.25449,0.31494c-0.11604,0.02993 -0.21393,-0.02111 -0.24455,-0.11752l-0.1506,-0.4328c-0.05872,-0.16875 -0.11704,-0.3407 -0.17483,-0.5153c-0.60016,-0.92521 -0.81007,-2.36482 -1.37396,-3.23284c-0.79151,-1.21839 -1.89247,-2.26771 -2.75904,-3.43713c-0.90365,-0.65589 -2.36979,-1.17829 -3.14152,-1.98553c0.04472,0.51902 -0.10091,1.1673 -0.05393,1.65344c0.23143,2.39433 0.8495,4.71505 1.68425,6.80855c0.67748,3.34453 2.26799,6.01415 3.0595,9.22248c0.16142,0.65431 0.38633,1.27975 0.62839,1.89568c0.24781,0.23506 0.45384,0.41452 0.59933,0.49122c0.52649,0.28132 2.24666,3.77105 0.4338,3.6316c-0.07096,-0.00546 -0.45125,-1.30358 -0.50866,-1.45654c-0.27313,-0.72766 -0.59379,-1.43088 -0.89305,-2.1453c-0.81434,-0.66541 -1.44586,-1.56328 -2.45769,-2.01031c-0.06295,-0.02781 -0.96979,-0.51059 -1.03854,-0.4409c-0.50435,0.51125 -0.1464,3.6503 -0.1469,4.30128c-0.0087,0.98416 0.60105,1.69876 0.84182,2.5782c0.62001,2.26474 0.82309,4.68638 1.60634,6.88988c1.09753,3.08766 1.7637,6.30175 2.63324,9.4992c0.21618,0.79494 0.32457,1.5611 0.34153,2.43496l0.00954,0.49668c0.00004,0.0018 0.00006,0.00362 0.00006,0.00545c0,0.13807 -0.11394,0.27939 -0.25449,0.31565c-0.11065,0.02855 -0.20481,-0.01654 -0.23986,-0.10439l-0.17945,-0.41536l0.08743,-0.05535c-0.26934,-0.53269 -0.38693,-1.12572 -0.74223,-1.62489c-0.6657,-0.93525 -2.22773,-1.57295 -3.14527,-2.31375c0.14357,0.69668 -0.07925,1.6967 0.01221,2.40321c0.29321,2.26509 0.6419,4.38409 1.36714,6.44955c0.96953,2.76121 2.05617,6.62705 2.14648,9.75771c0.03348,1.16072 0.04459,2.32503 0.0452,3.49468l-0.00004,0.00005l0.00004,-0.00001v0.00008l0.00015,-0.00004l-0.00005,0.50001v0c-0.00001,0.13806 -0.11394,0.27938 -0.25449,0.31563c-0.14053,0.03625 -0.25445,-0.04626 -0.25449,-0.1843v0l-0.00009,-0.41036c-2.62209,-1.02251 -4.53618,-3.22456 -7.32762,-3.98103c-0.24757,-0.06811 -0.36352,-0.48762 -0.64199,-0.37415c-0.12274,0.05002 -0.11112,2.05307 -0.11358,2.25624c-0.0266,2.20494 0.39232,4.61424 1.18451,6.46645c0.89505,2.0927 1.93226,5.35876 1.96461,7.82505l0.00381,0.49868c0.00001,0.00072 0.00001,0.00146 0.00001,0.00219c0,0.13807 -0.11394,0.27939 -0.25449,0.31565c-0.07856,0.02026 -0.1488,0.00342 -0.19548,-0.03949l-0.32748,-0.29597l0.02256,-0.02456c-2.2222,-1.34965 -4.23587,-4.02695 -6.58106,-4.62568c0.34677,1.09693 -0.03421,2.56967 0.08879,3.76126c0.2112,2.04602 0.77626,4.07292 1.49899,5.86149c0.64732,1.62887 0.70869,4.39491 0.76211,6.29616l-0.0006,0.00254l0.00063,-0.00017l0.00417,0.49856c0.00001,0.00079 0.00001,0.00159 0.00001,0.00239c0,0.13807 -0.11394,0.27939 -0.25449,0.31565c-0.09857,0.02543 -0.18405,-0.00757 -0.22632,-0.07718l-0.23964,-0.37347l0.02463,-0.01945c-1.7978,-1.73267 -2.49945,-3.99737 -5.24407,-4.91111c0.11006,1.3755 -0.3987,5.37903 -0.88297,6.048c-0.73011,1.00858 -2.86346,0.34605 -3.65463,0.27722c-2.97561,-0.25987 -7.3166,-0.64753 -9.48836,3.06678c-1.89675,3.08438 -6.38926,5.5212 -9.60517,6.35784c-3.58815,0.93345 -7.09051,1.39981 -10.6541,2.30849c-3.61319,0.92133 -7.07538,2.26595 -10.58405,3.17174c-3.64892,0.94146 -7.0083,0.6397 -10.5122,1.42057c-3.23187,0.64231 -6.51903,-1.63338 -8.70968,-3.05428c-2.40654,-1.71414 -5.48203,-3.30867 -7.49831,-5.53938c-2.0352,-2.26099 -4.29098,-4.47272 -6.60959,-6.43518c-2.55992,-1.88823 -4.38899,-3.99641 -6.43275,-6.43921c-0.57205,-0.45875 -0.57481,-1.38275 -0.95945,-2.05034c-1.12567,-1.95369 -2.50902,-4.38585 -2.74075,-6.80659c-0.03656,-1.39252 -0.47773,-3.66341 -0.00044,-5.10134c0.57336,-1.72735 1.97022,-3.7477 2.31701,-5.49887c0.73463,-3.59077 1.93908,-7.26827 3.04347,-10.85735c0.16076,-0.79343 0.37579,-1.56257 0.61811,-2.32653c-0.00645,-0.00333 -0.01293,-0.00677 -0.01943,-0.01031c-0.82522,-0.44896 0.51126,-5.33547 0.65101,-6.32933c0.50177,-3.56837 0.54681,-7.24516 1.75442,-10.81815c0.81722,-2.40487 0.74457,-4.81636 1.7859,-7.23971l0.21636,-0.50224c0.03983,-0.09726 0.12882,-0.18078 0.2322,-0.20745c0.1348,-0.03478 0.24512,0.03972 0.25392,0.16769l0.03848,0.48645l-0.07789,0.02592c0.0919,0.56396 0.12389,1.1499 0.36069,1.57939c0.07829,0.14199 0.09741,-0.37599 0.09506,-0.55487c-0.0064,-0.48669 -0.02586,-1.03485 0.03691,-1.535c0.21143,-1.68476 0.7845,-3.49929 1.18782,-5.19824c0.85791,-3.61381 1.079,-7.16581 1.71286,-10.77286c0.52156,-2.96798 0.79183,-6.17072 1.49943,-9.20045c-0.01982,0.00998 -0.04056,0.01792 -0.06192,0.02343c-0.14032,0.0362 -0.25411,-0.04601 -0.25448,-0.18368c0,-0.00003 0,-0.00005 0,-0.00008l-0.00136,-0.49956l0.03945,-0.01028c-0.64525,-2.7258 -0.04045,-6.61968 -0.04045,-9.49013c0,-3.48061 0.4518,-7.08365 0.4527,-10.59128c0.00025,-0.99044 0.00032,-1.98084 0.00033,-2.97122c-0.22787,1.27732 -0.61054,2.55228 -0.77314,3.85703c0.0028,0.27797 -0.0132,0.55361 -0.06883,0.80194c-0.00394,0.09064 -0.00648,0.18146 -0.00749,0.27245zM386.07571,161.51161c-0.06293,-0.23704 -0.22242,-0.59004 -0.43712,-0.983c0.16633,0.42132 0.32123,0.84946 0.47428,1.28482c-0.00105,-0.10238 -0.01108,-0.2036 -0.03715,-0.30182zM391.85471,187.27044c0.15625,0.72831 0.53189,1.34923 0.45501,2.12558c-0.01938,0.19575 0.07,-0.39713 0.07179,-0.58929c0.00455,-0.48852 -0.07337,-0.85959 -0.28867,-1.25652c-0.08734,-0.16101 -0.18321,-0.32953 -0.28627,-0.50248c0.01611,0.0743 0.03216,0.14853 0.04813,0.22271zM390.04256,254.9045c0.06396,0.31058 0.137,-0.69903 0.09802,-1.01982c-0.10086,-0.83006 -0.34568,-1.20766 -0.94249,-1.55707c0.33864,0.83952 0.66013,1.68177 0.84447,2.57689zM300.74657,229.8587c0.11466,-0.38003 0.23992,-0.76936 0.36221,-1.16224c-0.20269,0.55952 -0.38834,1.10504 -0.48681,1.58958c0.04028,-0.14299 0.08179,-0.28545 0.1246,-0.42733z"/></g><path d="M261.97964,456.84069c0,0 5.17521,-49.09666 4.79135,-83.60764c-0.47034,-42.28509 -7.40705,-151.55132 -7.40705,-151.55132c0,0 -4.72006,-15.76506 -0.3204,-27.24252c3.42,-8.92184 15.23813,-14.15451 20.50795,-14.43749c11.96583,-0.64256 40.32827,-1.53133 65.10214,-2.8617c13.40167,-0.71967 29.01156,-1.50626 34.46629,9.01551c5.48193,10.57424 0.77524,32.45893 0.77524,32.45893c0,0 -3.29509,102.38098 -3.24427,144.91623c0.04586,38.38282 3.53583,99.11992 3.53583,99.11992z" fill="#000000" stroke="#000000" stroke-width="2.5" stroke-linecap="butt"/><path d="M290.46667,178.02523c0.92988,0.77816 2.23712,0.6186 3.33051,1.04555c0.88027,0.34373 1.40518,1.40338 2.26129,1.93682c2.63769,1.64361 5.87752,2.10951 8.73844,2.73582c0.75777,0.16589 5.21748,0.30213 5.49797,1.18194c0.13229,0.41498 -2.7472,5.31574 -3.11387,5.89514c-3.52005,5.56224 -7.59715,10.41423 -13.34082,11.60815c-1.01059,0.21006 -5.52697,1.58256 -6.16356,0.2528c-0.45948,-0.95978 0,-4.23283 0,-5.39988c0,-4.03546 -0.07701,-8.59462 0.92111,-12.45008c0.57873,-2.23545 1.38992,-4.41319 1.38992,-6.85547z" fill="url(#color-1)" stroke="#000000" stroke-width="2.5" stroke-linecap="round"/><path d="M310.49981,186.07721c1.43779,-0.02066 2.04919,-1.07965 3.31818,-1.36699c4.65388,-1.05383 10.84381,-3.57642 15.30905,-1.49901c0.67028,0.31185 1.8663,1.09183 2.00585,2.10299c0.4421,3.20332 -3.14009,16.07153 -4.5664,19.21658c-0.83912,1.85029 -1.10837,4.24106 -2.60939,5.55585c-2.4177,2.11772 -5.14683,-0.70049 -6.98172,-1.89365c-1.02929,-0.6693 -2.08896,-0.96969 -2.76014,-2.28368c-1.68797,-3.3046 -4.39895,-16.89505 -4.06384,-20.91202z" fill="url(#color-2)" stroke="#000000" stroke-width="2.5" stroke-linecap="round"/><path d="M321.20478,210.69446c9.3081,3.22317 5.3304,10.32241 6.64336,19.83743c0.67354,4.88106 2.71323,9.36916 2.41796,14.57306c-0.29574,5.21217 -1.25591,12.76357 -6.3964,13.61538c-1.42621,0.23633 -5.11353,0.55773 -6.17561,-0.68461c-1.06857,-1.24992 -1.3436,-4.79126 -1.65268,-6.60921c-1.52692,-8.98112 -0.21715,-16.51099 1.02917,-25.59008c0.56223,-4.09565 -0.26587,-12.92326 3.38077,-15.18461z" fill="url(#color-3)" stroke="#000000" stroke-width="2.5" stroke-linecap="round"/><path d="M349.73222,176.53486c0,2.44229 0.81121,4.62002 1.38992,6.85547c0.99812,3.85546 0.92111,8.4146 0.92111,12.45008c0,1.16706 0.45948,4.44009 0,5.39988c-0.6366,1.32976 -5.15297,-0.04272 -6.16355,-0.25279c-5.74368,-1.19391 -9.82078,-6.04589 -13.34082,-11.60815c-0.36667,-0.5794 -3.24617,-5.48015 -3.11387,-5.89514c0.28049,-0.87981 4.7402,-1.01606 5.49797,-1.18194c2.86093,-0.62631 6.10075,-1.09222 8.73845,-2.73582c0.8561,-0.53346 1.381,-1.59309 2.26128,-1.93682c1.09339,-0.42695 2.40063,-0.26739 3.33051,-1.04555z" fill="url(#color-4)" stroke="#000000" stroke-width="2.5" stroke-linecap="round"/><path d="M371.86361,133.26688c0.41926,28.80644 -22.79911,55.41315 -52.22444,55.69399c-29.42533,0.28084 -53.91484,-25.87056 -54.3341,-54.67698c-0.10514,-7.22396 4.92617,-10.69928 5.22659,-13.85833c0.86052,-9.04886 0.18583,-5.86929 19.64173,-5.60784c0.83678,0.01124 5.06557,-8.66849 5.97465,-8.67718c7.77799,-0.07424 5.5878,-1.72326 15.65368,-2.4031c5.9494,-0.40182 9.11814,2.58037 16.10832,3.12923c6.60762,0.51884 17.07353,-1.43343 21.59876,-0.48376c5.14389,1.07948 8.46514,1.4947 12.05005,4.78549c2.28399,2.0966 2.48914,6.42977 4.19496,9.49904c2.50303,4.50364 6.04401,8.0787 6.10981,12.59943z" fill="#000000" stroke="#000000" stroke-width="2.5" stroke-linecap="butt"/><path d="M402.00641,97.25195c0.92666,11.5405 -36.86678,23.99092 -84.414,27.80877c-47.54722,3.81786 -86.84305,-2.44259 -87.76971,-13.9831c-0.92666,-11.5405 36.86678,-23.99094 84.414,-27.80879c47.54722,-3.81786 86.84306,2.44259 87.76972,13.98312z" fill="#000000" stroke="#000000" stroke-width="2.5" stroke-linecap="butt"/><path d="M270.36209,107.82248c0,0 -16.23228,-38.47844 -4.60358,-57.33256c11.6287,-18.85411 29.32348,-18.33805 44.56315,-19.56173c14.99345,-1.20392 34.56151,-1.54967 46.1483,12.27797c11.58678,13.82765 4.60358,57.33256 4.60358,57.33256z" fill="#000000" stroke="#000000" stroke-width="2.5" stroke-linecap="butt"/><path d="M263.94647,90.11105l-0.55929,-6.96531c0,0 35.19134,0.1457 51.88842,-1.19501c16.17941,-1.29914 46.78996,-6.72847 46.78996,-6.72847l0.55929,6.96531c0,0 -30.76072,5.44139 -47.16934,6.75894c-16.48382,1.32359 -51.50904,1.16455 -51.50904,1.16455z" fill="url(#color-5)" stroke="#000000" stroke-width="2.5" stroke-linecap="butt"/><path d="M297.86336,117.09331c-0.59605,-0.23383 -1.19883,-0.39496 -1.80851,-0.49272c0.69504,0.25063 1.34668,0.60284 1.95124,1.04249c0.33458,0.09278 0.66863,0.20359 1.00193,0.33403c-0.27181,-0.21069 -0.54506,-0.42606 -0.81696,-0.65037l-0.1564,-0.04608c0,0 -0.14277,-0.05557 -0.17133,-0.18737zM279.41911,123.93739c0.26939,-0.56627 0.63022,-1.11901 1.09631,-1.65241c0.29659,-0.33762 0.61468,-0.6565 0.95077,-0.95867c1.19514,-2.29098 3.23072,-3.84296 5.81108,-4.75224c-1.57389,0.30315 -3.10441,0.80923 -4.62303,1.60647c-1.58541,1.36512 -2.69305,3.5396 -3.23512,5.75686zM300.92769,120.59462c-0.14824,-0.25827 -0.30142,-0.51546 -0.46034,-0.76846c-0.17933,-0.12619 -0.36882,-0.23883 -0.56697,-0.33945c0.27205,0.34459 0.52837,0.711 0.76831,1.09689c0.57782,0.9297 0.96375,1.90377 1.17867,2.89912c-0.15218,-0.87361 -0.40756,-1.72282 -0.78942,-2.52513c-0.04111,-0.12353 -0.08455,-0.24452 -0.13026,-0.36298zM292.60038,137.62143c-0.88971,0.01474 -1.77728,-0.03114 -2.65821,-0.13274c-0.21412,0.034 -0.42978,0.06402 -0.64718,0.08996c0.11133,0.03179 0.22382,0.0627 0.33752,0.0927c0.547,0.14543 1.10307,0.25305 1.66236,0.32165c0.41439,-0.08738 0.82021,-0.19993 1.21388,-0.33925c0.03044,-0.01072 0.06098,-0.0215 0.09164,-0.03234zM289.58597,138.21294c-0.03369,-0.0086 -0.06734,-0.01734 -0.10096,-0.0262c-0.55259,-0.14669 -1.07908,-0.31377 -1.58356,-0.5004c-0.45835,0.01642 -0.92551,0.01468 -1.40318,-0.00638c-3.93218,-0.22729 -6.77514,-2.45657 -7.51694,-6.28559c-0.10292,-0.53716 -0.14487,-1.10179 -0.1333,-1.68151c-0.0556,-0.21005 -0.10496,-0.42286 -0.14808,-0.63817c-0.25807,3.17398 0.50911,5.64044 3.65367,7.50648c2.0686,1.11283 4.71529,1.76416 7.23234,1.63176zM283.40222,120.86575c-0.27614,0.24732 -0.54381,0.51761 -0.80259,0.8125c-0.5389,0.609 -1.04349,1.33637 -1.48565,2.13349c-0.82437,2.40752 -0.79732,4.9811 0.26594,7.1753c-0.45298,-1.17526 -0.41551,-2.47291 -0.07596,-3.74126c-0.01664,-0.53049 0.00875,-1.07811 0.07955,-1.64487c0.25578,-1.00706 0.6695,-1.87204 1.20201,-2.63111c0.31861,-0.66127 0.74951,-1.2949 1.29409,-1.88071c0.43607,-0.40686 0.91387,-0.8369 1.42378,-1.26308c0.1241,-0.14805 0.25115,-0.29333 0.3812,-0.43575c-0.09391,0.04152 -0.18717,0.08471 -0.27978,0.1296c-0.26933,0.16623 -0.53606,0.33341 -0.80017,0.50041c-0.40717,0.25723 -0.81003,0.53998 -1.20244,0.84548zM284.21593,134.09491c-0.01761,-0.02075 -0.03514,-0.04148 -0.05262,-0.06225c-0.54638,-0.31223 -1.05433,-0.69166 -1.51059,-1.15309c0.09867,0.10995 0.20095,0.21808 0.30687,0.3243c0.3417,0.34806 0.7688,0.64271 1.25634,0.89105zM282.78414,120.28161c1.22693,-0.86343 2.59996,-1.57408 3.99591,-2.20148c0.3627,-0.205 0.72945,-0.40483 1.1002,-0.59735c0.56482,-0.38182 1.16992,-0.71872 1.81775,-1.00398c-0.37766,0.07248 -0.74951,0.15665 -1.11402,0.25307c-2.43904,0.64149 -4.43954,1.79541 -5.79984,3.54973zM299.50348,116.78279c0.43588,0.30366 0.86165,0.65944 1.27704,1.07115c0.47076,0.54154 0.89322,1.06607 1.27081,1.586c-0.42719,-1.18435 -1.15613,-2.15523 -2.35121,-2.61161c-0.06531,-0.0154 -0.13086,-0.0306 -0.19664,-0.04556zM286.62106,137.15025c-0.48393,-0.2273 -0.94825,-0.47462 -1.39746,-0.74109c-0.39174,-0.13416 -0.78027,-0.27843 -1.16512,-0.43236c-2.0382,-0.97896 -3.52061,-2.46109 -4.44326,-4.25618c0.80841,3.32881 3.38676,5.22375 6.91459,5.42586c0.03046,0.00134 0.06087,0.0026 0.09125,0.00379zM290.43646,118.50266c-0.53996,0.14972 -1.07686,0.31498 -1.60977,0.48787c-0.15666,0.112 -0.31212,0.22578 -0.46631,0.34118c-1.51564,1.52462 -2.64059,3.39996 -3.18668,5.49403c-0.62296,2.38299 -0.53658,4.78887 0.52906,6.83526c1.2945,0.9745 2.77012,1.66711 4.31425,2.20575c1.40999,0.00411 2.75607,-0.1797 3.75434,-0.52884c2.27475,-0.61666 5.54247,-2.9697 7.34309,-5.1207c0.6952,-2.47999 0.51059,-5.06004 -0.91783,-7.35607c-0.41074,-0.66057 -0.8713,-1.26277 -1.37904,-1.79154c-2.1105,-0.60256 -4.76649,-0.35419 -6.70633,-0.50064c-0.56867,-0.04359 -1.12739,-0.06736 -1.67479,-0.0663zM295.29247,136.56234c0.3502,-0.15692 0.70012,-0.32344 1.04509,-0.50048c-0.86007,0.26057 -1.77867,0.40443 -2.70564,0.43126c-0.54465,0.20486 -1.09213,0.38697 -1.64619,0.54366c0.93681,-0.03984 1.89434,-0.17836 2.85456,-0.37371c0.15085,-0.03045 0.30163,-0.06406 0.45218,-0.10072zM286.17777,133.35895c-0.35398,-0.42903 -0.65627,-0.88076 -0.90955,-1.35097c-0.46235,-0.35444 -0.90231,-0.74408 -1.3152,-1.17435c-0.82469,-0.86143 -1.40326,-1.84178 -1.73074,-2.87055c-0.06508,0.40667 -0.10271,0.80926 -0.10147,1.19781c0.2386,0.94717 0.62644,1.83619 1.13523,2.68537c0.13315,0.10382 0.27995,0.19957 0.44137,0.28643c0.62582,0.53785 1.49509,0.94324 2.48035,1.22625zM303.63042,123.81682c-0.00093,0.17602 -0.00549,0.35217 -0.01355,0.52841c0.69144,2.32186 0.77922,4.83272 -0.44443,6.98471c-1.27058,2.47003 -3.71044,4.35517 -6.39768,5.33725c0.8088,-0.15067 1.58787,-0.35649 2.31855,-0.65225c0.06048,-0.04672 0.1205,-0.09425 0.18005,-0.14262c2.90498,-2.09622 5.16262,-5.15341 4.88977,-8.8323c-0.08613,-1.20088 -0.25766,-2.25352 -0.5327,-3.22319zM285.48188,135.93064c0.3515,0.11915 0.7056,0.22989 1.06198,0.33189c-0.50224,-0.32398 -0.98265,-0.71643 -1.4369,-1.18657c-0.02321,-0.02402 -0.04634,-0.04805 -0.06938,-0.07212c-0.98415,-0.34116 -1.84749,-0.80565 -2.47496,-1.42772c-1.97702,-1.98515 -2.76945,-4.61447 -2.54315,-7.26327c-0.24375,0.73884 -0.42505,1.49293 -0.52769,2.23414c0.24855,1.21933 0.73501,2.43056 1.31007,3.57753c1.53287,1.50607 2.99492,2.79548 4.68004,3.8061zM299.45888,133.89713c0.58825,-0.58367 1.07225,-1.23753 1.39851,-1.97266c-0.72613,0.77572 -1.45307,1.43593 -2.2335,1.98058c-0.48529,0.38526 -1.00576,0.72786 -1.55893,1.01924c-0.17534,0.09212 -0.35017,0.18249 -0.5246,0.27104c0.29625,-0.0211 0.58221,-0.06114 0.8576,-0.12029c0.03822,-0.01884 0.07621,-0.038 0.11397,-0.05746c0.71104,-0.36461 1.36124,-0.73242 1.94695,-1.12047zM300.67643,129.49355c-1.9234,1.92732 -4.67976,3.76587 -6.73776,4.3525c-0.6985,0.24508 -1.52991,0.41075 -2.42375,0.49419c0.6845,0.19684 1.37512,0.37233 2.06265,0.53702c2.92379,-0.34953 5.02271,-1.74718 6.68258,-4.46365c0.15148,-0.30345 0.2905,-0.6104 0.41629,-0.92006zM291.75717,134.96397c-0.61395,-0.16977 -1.22399,-0.35472 -1.82427,-0.56175c-0.69267,-0.00846 -1.39731,-0.06221 -2.08594,-0.16235c0.25951,0.20578 0.53724,0.39317 0.82987,0.56218c1.02484,0.1129 2.06448,0.14515 3.05931,0.16158c0.00701,0.00013 0.01402,0.00023 0.02103,0.00034zM283.33948,124.19967c-0.27353,0.72877 -0.59511,1.59786 -0.83925,2.4977c0.17347,1.35235 0.79752,2.6667 1.85716,3.77163c0.13176,0.13773 0.26646,0.27112 0.40392,0.40037c-0.68633,-1.91414 -0.67561,-4.05291 -0.12151,-6.17246c0.34142,-1.30297 0.89621,-2.52664 1.6242,-3.63986c-0.56088,0.50331 -1.09708,1.01793 -1.60468,1.53201c-0.45088,0.45569 -0.90458,1.00344 -1.31985,1.61062zM301.80686,131.74497c0.82989,-1.14194 1.29283,-2.53514 1.34522,-4.38208c-0.15931,0.61461 -0.35483,1.21841 -0.58114,1.80433c-0.14272,0.69876 -0.3351,1.39308 -0.57444,2.07812c-0.05995,0.17157 -0.12317,0.33809 -0.18964,0.4996zM300.10368,131.62405c0.68472,-0.89659 1.23576,-1.89768 1.63372,-2.94294c0.02846,-0.15647 0.0551,-0.31357 0.0798,-0.47112c-0.06605,0.08532 -0.13444,0.17098 -0.20503,0.25685c-0.21646,0.74497 -0.50833,1.48071 -0.86704,2.19774c-0.20663,0.33884 -0.42024,0.65853 -0.64143,0.95948zM286.81546,134.05164c-1.02336,-0.22685 -1.97522,-0.5648 -2.75369,-1.01787c0.15127,0.19975 0.309,0.39762 0.47275,0.5939c0.88963,0.49396 1.88657,0.80217 2.92481,0.99633c-0.02209,-0.01776 -0.04406,-0.03569 -0.06591,-0.05369c-0.2032,-0.16774 -0.39577,-0.34075 -0.57797,-0.51865zM283.28234,122.93454c-0.07436,0.09511 -0.14664,0.19204 -0.21678,0.29091c-0.14917,0.3133 -0.27102,0.63308 -0.36576,0.95687c0.04766,-0.07391 0.09595,-0.14714 0.14482,-0.2196c0.07132,-0.19197 0.13995,-0.37536 0.20396,-0.5485c0.07587,-0.16122 0.15376,-0.32115 0.23375,-0.47968zM291.70778,135.84047c0.59656,0.09412 1.20611,0.13545 1.81241,0.124c0.296,-0.11279 0.59122,-0.23251 0.88634,-0.3586c-0.43926,0.07605 -0.9012,0.13276 -1.38938,0.17007c-0.40198,0.03071 -0.84247,0.05342 -1.30939,0.06453zM303.43544,121.58541c0.25213,0.44321 0.46641,0.92841 0.63395,1.46911c1.50781,2.9534 0.77359,7.22396 -0.78805,9.9919c-0.97534,1.72224 -2.32118,2.76208 -3.87913,3.41147c-2.29482,1.76359 -5.22897,2.4013 -8.08735,2.07354c-3.09121,0.61903 -6.59553,-0.06506 -9.24037,-1.48841c-3.72517,-2.20938 -4.36177,-5.26923 -3.78044,-9.24573c0.04648,-0.31644 0.11174,-0.62975 0.19421,-0.93928c0.03067,-3.21752 1.41182,-7.03021 3.85082,-9.1141c3.06658,-1.64319 6.21938,-2.11291 9.64425,-2.09515c0.13606,-0.00964 0.27242,-0.01805 0.40902,-0.02531c0.54563,-0.11885 1.08173,-0.20229 1.60804,-0.24606c0.24638,-0.03397 0.49406,-0.0612 0.74301,-0.08119c4.02723,-0.32337 6.91943,0.85777 8.29796,4.79812c0.16915,0.48719 0.29951,0.98553 0.39409,1.49111zM301.92122,127.10113c0.01423,-0.02389 0.0282,-0.04772 0.04189,-0.07145c0.01629,-0.18224 0.0296,-0.36473 0.03974,-0.54722c-0.02104,0.20636 -0.04832,0.41264 -0.08162,0.61867zM279.31543,126.75131c0.25521,-0.90062 0.60423,-1.78875 1.02114,-2.62168c-0.37795,0.57184 -0.70184,1.17124 -0.95579,1.79117c-0.03932,0.27537 -0.0605,0.55243 -0.06535,0.8305zM302.34612,122.54125c0.09407,0.32094 0.17513,0.64426 0.2435,0.96948c0.00246,-0.1334 0.00357,-0.26788 0.00313,-0.40308c-0.07896,-0.19127 -0.16135,-0.3802 -0.24662,-0.56641zM289.52137,135.80304c-1.10991,-0.06577 -2.25948,-0.20902 -3.32976,-0.46514c1.13509,0.92663 2.40946,1.41516 3.76123,1.60907c0.74638,-0.1228 1.47332,-0.29542 2.18996,-0.51147c-0.90766,-0.09708 -1.79743,-0.30782 -2.62143,-0.63245zM286.12408,119.84752c0.68639,-0.42078 1.40925,-0.81048 2.14575,-1.1902c-0.23267,0.03525 -0.46263,0.07693 -0.68975,0.1256c-0.50397,0.33186 -0.99186,0.69362 -1.456,1.0646zM300.6804,133.66873c-0.02669,0.03234 -0.0536,0.06432 -0.08074,0.09589c0.08422,-0.07669 0.16713,-0.15459 0.24865,-0.23366c-0.05522,0.04629 -0.11119,0.09218 -0.1679,0.13777zM284.3282,122.15419c0.5452,-0.54883 1.12144,-1.09702 1.72442,-1.63105c-0.44662,0.28634 -0.87479,0.5886 -1.27676,0.914c-0.15523,0.2345 -0.30437,0.47371 -0.44765,0.71703zM298.06756,118.37173c-0.09999,-0.08266 -0.2015,-0.16269 -0.30449,-0.23998c-1.8007,-0.48224 -3.61326,-0.41575 -5.40472,-0.08098c1.72517,0.11269 3.83404,-0.00754 5.70921,0.32095zM286.42911,132.80028c0.20798,0.27112 0.43709,0.53338 0.68814,0.78562c0.38767,0.07744 0.78592,0.13844 1.18821,0.18353c-0.64733,-0.28416 -1.27554,-0.60401 -1.87634,-0.96915zM294.41361,137.51209c-0.51439,0.20664 -1.02192,0.39546 -1.50992,0.56952c1.53139,-0.01976 3.04481,-0.34029 4.42035,-0.98726c-0.93535,0.20328 -1.91414,0.32655 -2.91043,0.41774zM295.45454,135.72395c-0.02422,0.01125 -0.04845,0.02249 -0.07267,0.03365c0.04594,-0.00956 0.09174,-0.01949 0.13743,-0.02972c-0.02156,-0.00124 -0.04313,-0.00257 -0.06477,-0.00396zM290.39862,117.95694c1.98947,-0.54348 4.02056,-0.86589 6.04478,-0.62155c-1.074,-0.50253 -2.27332,-0.73387 -3.58533,-0.62053c-0.83874,0.34207 -1.66095,0.76339 -2.45945,1.24208zM282.84558,132.22024c-0.08214,-0.06547 -0.15962,-0.13359 -0.23259,-0.20422c0.1185,0.14883 0.242,0.29005 0.37016,0.42407c-0.0467,-0.07301 -0.09257,-0.14628 -0.13757,-0.21985zM288.98,118.03642c0.06535,-0.05387 0.13123,-0.10718 0.19762,-0.15993c-0.11919,0.05599 -0.23795,0.11457 -0.35622,0.1755c0.05275,-0.00548 0.10562,-0.01067 0.1586,-0.01557z" fill="#ffffff" stroke="none" stroke-width="0.5" stroke-linecap="butt"/><path d="M335.08435,132.18638c0.57467,0.22306 1.15587,0.37666 1.74376,0.46965c-0.67012,-0.23908 -1.29831,-0.57525 -1.88103,-0.99503c-0.3226,-0.08843 -0.64469,-0.19412 -0.96604,-0.31856c0.26197,0.2012 0.52536,0.40686 0.78739,0.62102l0.1508,0.04393c0,0 0.13764,0.05301 0.16508,0.17897zM352.87653,125.6322c-0.26018,0.5414 -0.60854,1.06995 -1.05842,1.58007c-0.28626,0.32287 -0.59326,0.6279 -0.91758,0.91693c-1.15417,2.19047 -3.11835,3.67522 -5.60745,4.54609c1.51805,-0.29087 2.99443,-0.77559 4.45952,-1.53863c1.5299,-1.30584 2.59961,-3.3849 3.12393,-5.50447zM332.13159,128.84209c0.14278,0.24673 0.29033,0.49244 0.44342,0.73413c0.17285,0.12047 0.35552,0.228 0.54653,0.32402c-0.26213,-0.32915 -0.50904,-0.67919 -0.74018,-1.04782c-0.55658,-0.88816 -0.9281,-1.81888 -1.13469,-2.77006c0.14615,0.83485 0.39186,1.64633 0.75955,2.41287c0.03955,0.11803 0.08136,0.23365 0.12537,0.34684zM340.1742,112.56262c0.85804,-0.01471 1.71397,0.02852 2.56345,0.12501c0.20652,-0.03264 0.41453,-0.06149 0.62421,-0.08642c-0.10735,-0.0303 -0.21581,-0.05976 -0.32544,-0.08835c-0.52742,-0.13859 -1.06362,-0.24108 -1.60293,-0.30626c-0.39969,0.08381 -0.79113,0.19165 -1.17089,0.32509c-0.02935,0.01024 -0.05882,0.02057 -0.08839,0.03096zM343.08169,111.9952c0.03248,0.0082 0.06493,0.01651 0.09735,0.02496c0.53281,0.13982 1.04043,0.29915 1.52682,0.47717c0.44204,-0.01602 0.89257,-0.01467 1.35319,0.00511c3.79199,0.21451 6.53216,2.34319 7.24487,6.00233c0.09889,0.51331 0.13894,1.05294 0.12737,1.60703c0.05348,0.20072 0.10093,0.40407 0.14237,0.60984c0.25109,-3.03375 -0.48705,-5.39057 -3.51834,-7.17191c-1.99415,-1.06217 -4.54614,-1.68283 -6.97364,-1.55454zM349.03314,128.57072c0.26646,-0.23658 0.5248,-0.4951 0.77457,-0.77713c0.52012,-0.58244 1.00725,-1.27799 1.43422,-2.04015c0.79669,-2.30161 0.77239,-4.76133 -0.25146,-6.85773c0.43603,1.12296 0.399,2.36325 0.07065,3.57572c0.01568,0.50705 -0.0092,1.03043 -0.07786,1.57219c-0.24736,0.9627 -0.64697,1.78971 -1.16103,2.51558c-0.30773,0.63225 -0.72372,1.23815 -1.24932,1.79842c-0.42082,0.38916 -0.88191,0.80051 -1.37397,1.2082c-0.11978,0.14158 -0.24241,0.28054 -0.36794,0.41674c0.09059,-0.03975 0.18057,-0.08108 0.26992,-0.12405c0.25985,-0.15908 0.5172,-0.31903 0.77201,-0.47882c0.39284,-0.24614 0.78155,-0.51666 1.16021,-0.80892zM348.2576,115.92729c0.01696,0.01982 0.03385,0.03963 0.05069,0.05946c0.52671,0.29803 1.01631,0.66034 1.456,1.10103c-0.09507,-0.10501 -0.19363,-0.2083 -0.29573,-0.30974c-0.32929,-0.33243 -0.74097,-0.61374 -1.21096,-0.85077zM349.62876,129.12861c-1.18385,0.82609 -2.50848,1.50626 -3.85515,2.10688c-0.34992,0.19617 -0.70376,0.38743 -1.06144,0.57168c-0.54498,0.36534 -1.12874,0.68776 -1.75372,0.96085c0.36425,-0.06952 0.72293,-0.15021 1.07452,-0.24262c2.35263,-0.6148 4.2827,-1.7191 5.59577,-3.39678zM333.50243,132.48432c-0.42016,-0.28992 -0.8305,-0.62969 -1.23081,-1.02289c-0.45362,-0.51726 -0.86068,-1.01828 -1.22445,-1.51496c0.41115,1.13165 1.11346,2.05908 2.26567,2.49444c0.06297,0.01469 0.12617,0.02916 0.18959,0.04341zM345.94026,113.00878c0.46654,0.21692 0.91415,0.45299 1.34718,0.70733c0.37769,0.12794 0.75228,0.26556 1.12332,0.41242c1.96492,0.93422 3.39352,2.34976 4.28206,4.06483c-0.77729,-3.18101 -3.26251,-4.99032 -6.66457,-5.18104c-0.02938,-0.00126 -0.0587,-0.00245 -0.088,-0.00356zM342.24775,130.83421c0.52083,-0.14349 1.03873,-0.30182 1.55278,-0.46741c0.15116,-0.10714 0.30116,-0.21602 0.44995,-0.32643c1.46273,-1.45824 2.54892,-3.2514 3.07702,-5.25322c0.60243,-2.27802 0.5208,-4.57741 -0.50547,-6.53255c-1.24771,-0.9305 -2.67031,-1.59145 -4.15908,-2.10519c-1.35978,-0.00294 -2.65805,0.17365 -3.621,0.50808c-2.19417,0.59096 -5.34716,2.8422 -7.08516,4.89931c-0.67216,2.37077 -0.49592,4.83658 0.88002,7.03005c0.39566,0.63106 0.83938,1.20631 1.32867,1.71133c2.03493,0.57444 4.59651,0.33521 6.46715,0.47383c0.54839,0.04126 1.0872,0.06359 1.6151,0.06218zM337.57725,113.57675c-0.33785,0.15021 -0.67542,0.30961 -1.00823,0.47907c0.82963,-0.24965 1.7156,-0.38776 2.60959,-0.41406c0.52539,-0.19618 1.05351,-0.37063 1.58795,-0.52078c-0.90347,0.03874 -1.827,0.1718 -2.75315,0.35919c-0.14549,0.02922 -0.29094,0.06143 -0.43614,0.09659zM346.36512,116.63207c0.34107,0.4098 0.63228,0.84134 0.87622,1.29057c0.44564,0.33844 0.86966,0.71053 1.26754,1.12148c0.79473,0.82274 1.35201,1.75935 1.6671,2.74238c0.06305,-0.38872 0.09962,-0.77352 0.0987,-1.1449c-0.22944,-0.90512 -0.60284,-1.75453 -1.09293,-2.56579c-0.12834,-0.09913 -0.26985,-0.19055 -0.42545,-0.27345c-0.60314,-0.51362 -1.44121,-0.90048 -2.39117,-1.17028zM329.52734,125.76427c0.00102,-0.16821 0.00555,-0.3366 0.01342,-0.50502c-0.6652,-2.21868 -0.74811,-4.61843 0.43348,-6.67607c1.22705,-2.36165 3.58135,-4.16512 6.17357,-5.10563c-0.78009,0.14456 -1.53158,0.34184 -2.23644,0.62503c-0.05836,0.04468 -0.11628,0.09017 -0.17373,0.13644c-2.80299,2.00552 -4.98236,4.92904 -4.72179,8.44501c0.08223,1.1477 0.24691,2.15367 0.51148,3.08026zM347.03801,114.17366c-0.3389,-0.11363 -0.68032,-0.21923 -1.02392,-0.31647c0.48415,0.3093 0.94716,0.68406 1.38489,1.13306c0.02237,0.02294 0.04466,0.04591 0.06687,0.06889c0.94886,0.32538 1.78115,0.76873 2.38583,1.36284c1.90523,1.89596 2.66762,4.40843 2.44753,6.94021c0.23558,-0.70632 0.41096,-1.42718 0.51046,-2.13569c-0.23885,-1.16522 -0.70714,-2.32252 -1.26093,-3.41837c-1.47723,-1.43841 -2.88632,-2.66974 -4.51072,-3.6345zM333.55737,116.12698c-0.56773,0.55827 -1.03493,1.18353 -1.35008,1.88638c0.70082,-0.74189 1.40232,-1.37342 2.15534,-1.89454c0.46827,-0.36855 0.97045,-0.69638 1.50412,-0.97525c0.16917,-0.08816 0.33782,-0.17466 0.5061,-0.2594c-0.28569,0.02039 -0.56151,0.05881 -0.82714,0.11555c-0.03688,0.01803 -0.07353,0.03638 -0.10997,0.05498c-0.68596,0.34898 -1.31327,0.70096 -1.87838,1.07227zM332.38008,120.3366c1.85626,-1.84342 4.51572,-3.60255 6.50085,-4.16468c0.6738,-0.23472 1.47572,-0.39364 2.33778,-0.474c-0.66,-0.18764 -1.32589,-0.35493 -1.98882,-0.51182c-2.81991,0.33611 -4.84507,1.6734 -6.4477,4.27089c-0.14631,0.29014 -0.28058,0.58362 -0.40211,0.87965zM340.98554,115.10194c0.59196,0.16183 1.18016,0.33817 1.75891,0.53562c0.668,0.00761 1.3475,0.0585 2.01155,0.1537c-0.25013,-0.19649 -0.51785,-0.3754 -0.79992,-0.53672c-0.98828,-0.10717 -1.99087,-0.13729 -2.95025,-0.15228c-0.00676,-0.00012 -0.01353,-0.00022 -0.02028,-0.00032zM349.09596,125.38424c0.26429,-0.69674 0.57503,-1.52758 0.8111,-2.38779c-0.16635,-1.29241 -0.76726,-2.5482 -1.7884,-3.6035c-0.12697,-0.13155 -0.25678,-0.25894 -0.38925,-0.38236c0.66055,1.82899 0.64872,3.87315 0.11289,5.89934c-0.33017,1.24557 -0.86606,2.41549 -1.5689,3.47999c0.54125,-0.48144 1.05872,-0.97369 1.5486,-1.46537c0.43514,-0.43585 0.87306,-0.9597 1.27397,-1.54031zM331.29149,118.18556c-0.80114,1.09203 -1.24856,2.4239 -1.30038,4.18918c0.15406,-0.58755 0.34303,-1.16476 0.5617,-1.72491c0.13812,-0.66798 0.32413,-1.33171 0.55544,-1.98661c0.05793,-0.16401 0.11902,-0.32322 0.18324,-0.47764zM332.93393,118.29996c-0.66096,0.8574 -1.19307,1.81461 -1.57759,2.81392c-0.02756,0.14958 -0.05335,0.29973 -0.07728,0.45032c0.06375,-0.08159 0.12977,-0.16349 0.19792,-0.24562c0.20927,-0.71218 0.49126,-1.41556 0.83769,-2.10112c0.19951,-0.32399 0.40575,-0.62968 0.61926,-0.91749zM345.75064,115.97048c0.98675,0.21611 1.9045,0.53844 2.65492,0.97093c-0.14575,-0.19081 -0.29771,-0.37982 -0.4555,-0.56731c-0.85761,-0.4715 -1.81882,-0.76535 -2.81995,-0.95021c0.02129,0.01696 0.04247,0.03404 0.06352,0.05126c0.19585,0.16018 0.38144,0.32541 0.55701,0.49534zM349.15017,126.59338c0.07177,-0.09095 0.14156,-0.18365 0.20926,-0.2782c0.14408,-0.29955 0.26181,-0.60526 0.35341,-0.91479c-0.04601,0.07068 -0.09264,0.14068 -0.13981,0.20999c-0.06893,0.18353 -0.13523,0.35885 -0.19708,0.52439c-0.07328,0.15414 -0.14851,0.30704 -0.22577,0.45863zM341.03378,114.26419c-0.57524,-0.08954 -1.16307,-0.12863 -1.74778,-0.11726c-0.28553,0.10802 -0.57034,0.22263 -0.85503,0.34337c0.42368,-0.07301 0.86918,-0.12751 1.34001,-0.16353c0.38768,-0.02962 0.81252,-0.05166 1.26282,-0.06259zM329.71384,127.89688c-0.24285,-0.42343 -0.44917,-0.88701 -0.61035,-1.4037c-1.45206,-2.82171 -0.74099,-6.90387 0.76695,-9.55049c0.9418,-1.64673 2.24045,-2.64152 3.74336,-3.26326c2.21433,-1.68716 5.04442,-2.29875 7.80079,-1.98746c2.98156,-0.59381 6.3606,0.0576 8.91025,1.41615c3.59096,2.10906 4.20277,5.0331 3.63938,8.83412c-0.04505,0.30248 -0.10821,0.60196 -0.18795,0.89786c-0.03184,3.07521 -1.36646,6.7202 -3.72004,8.71363c-2.95853,1.57263 -5.99936,2.0238 -9.30226,2.00922c-0.13122,0.00932 -0.26274,0.01745 -0.39448,0.02446c-0.52628,0.11398 -1.04334,0.19408 -1.55095,0.23631c-0.23763,0.03264 -0.47651,0.05882 -0.7166,0.0781c-3.88403,0.31187 -6.67242,-0.815 -7.9991,-4.5801c-0.16278,-0.46553 -0.28816,-0.94174 -0.37902,-1.42488zM331.17799,122.62407c-0.01375,0.02284 -0.02723,0.04563 -0.04044,0.06832c-0.01583,0.1742 -0.0288,0.34861 -0.03871,0.52305c0.02044,-0.19724 0.04688,-0.39443 0.07915,-0.59136zM352.9785,122.94268c-0.24676,0.86094 -0.58396,1.71004 -0.98661,2.50642c0.3649,-0.5468 0.67766,-1.11991 0.92301,-1.7126c0.03811,-0.2632 0.05874,-0.52804 0.06361,-0.79382zM330.76504,126.98257c-0.09049,-0.30667 -0.16845,-0.61565 -0.23414,-0.92644c-0.00247,0.1275 -0.00362,0.25603 -0.0033,0.38525c0.07603,0.18274 0.15534,0.36326 0.23745,0.54117zM343.14233,114.29845c1.07034,0.06208 2.17886,0.19817 3.21086,0.44225c-1.09402,-0.88485 -2.32266,-1.35089 -3.62617,-1.53527c-0.71988,0.11789 -1.42105,0.28338 -2.11232,0.49037c0.87528,0.09217 1.73322,0.29297 2.52764,0.60267zM346.40748,129.54583c-0.66225,0.40266 -1.35962,0.77562 -2.07017,1.13907c0.2244,-0.03383 0.4462,-0.07387 0.66528,-0.12052c0.48625,-0.31753 0.95701,-0.66365 1.4049,-1.01852zM332.37917,116.34609c0.02575,-0.03093 0.05173,-0.06149 0.07794,-0.09169c-0.08128,0.07336 -0.16128,0.14785 -0.23995,0.2235c0.05328,-0.04427 0.10728,-0.0882 0.16202,-0.13179zM348.14102,127.33993c-0.52618,0.52494 -1.08227,1.04926 -1.66414,1.56009c0.43091,-0.27398 0.84406,-0.56319 1.23193,-0.87446c0.14986,-0.22423 0.29387,-0.45296 0.43221,-0.6856zM334.88831,130.96465c0.09637,0.07893 0.19421,0.15535 0.29347,0.22915c1.73626,0.45966 3.4843,0.39485 5.2122,0.07363c-1.66366,-0.1065 -3.6975,0.00987 -5.50567,-0.30278zM346.12237,117.16623c-0.20038,-0.25898 -0.42117,-0.50947 -0.6631,-0.75039c-0.37381,-0.07374 -0.75783,-0.13175 -1.14575,-0.17458c0.62406,0.27114 1.2297,0.57639 1.80885,0.92497zM338.42549,112.66838c0.49621,-0.19787 0.98579,-0.37869 1.45655,-0.54537c-1.47687,0.01996 -2.93662,0.32737 -4.26363,0.94667c0.90218,-0.19494 1.84621,-0.31343 2.80708,-0.40129zM337.42038,114.37816c0.02338,-0.01079 0.04674,-0.02152 0.07009,-0.03223c-0.04432,0.00919 -0.0885,0.01867 -0.13257,0.02848c0.02079,0.00117 0.0416,0.00242 0.06247,0.00375zM342.28388,131.35577c-1.91899,0.5208 -3.87799,0.8304 -5.82994,0.59828c1.03539,0.47955 2.19186,0.69983 3.45722,0.59059c0.80911,-0.32753 1.60233,-0.73078 2.37272,-1.18887zM349.57787,117.7181c0.07919,0.06251 0.15385,0.12759 0.22417,0.19504c-0.11417,-0.14216 -0.23318,-0.27706 -0.35668,-0.40506c0.045,0.06974 0.08916,0.13976 0.13252,0.21005zM343.65203,131.27881c-0.06307,0.05153 -0.12664,0.10253 -0.19071,0.153c0.11497,-0.05359 0.22957,-0.10968 0.34367,-0.168c-0.05087,0.00528 -0.10187,0.01027 -0.15296,0.01499z" fill="#ffffff" stroke="none" stroke-width="0.5" stroke-linecap="butt"/><path d="M288.93439,155.40113c-0.43689,-0.24316 -0.19373,-0.68006 -0.19373,-0.68006l0.13475,-0.06943c-0.11048,-1.37594 -0.22097,-2.75188 -0.33145,-4.12782c0,0 -0.04002,-0.4984 0.45838,-0.53842c0.4984,-0.04002 0.53842,0.45838 0.53842,0.45838c0.11048,1.37594 0.22097,2.75188 0.33145,4.12782l-0.25776,0.63579c0,0 -0.24316,0.43689 -0.68006,0.19373z" fill="#ffffff" stroke="none" stroke-width="0.5" stroke-linecap="butt"/><path d="M291.34518,154.99566c0.08124,0.06778 0.14705,0.1747 0.16057,0.34304c0.04002,0.4984 -0.45838,0.53842 -0.45838,0.53842l-0.64677,-0.42022c-0.11523,-0.82434 -0.2449,-1.64477 -0.31185,-2.47462c0,0 -0.04002,-0.4984 0.45838,-0.53842c0.4984,-0.04002 0.53842,0.45838 0.53842,0.45838c0.05608,0.70188 0.15977,1.3969 0.25963,2.09343z" fill="#ffffff" stroke="none" stroke-width="0.5" stroke-linecap="butt"/><path d="M292.82762,157.81782c0.07074,0.06826 0.12596,0.17037 0.13821,0.32298c0.04002,0.4984 -0.45838,0.53842 -0.45838,0.53842l-0.64998,-0.44942c-0.12541,-1.56188 -0.25083,-3.12376 -0.37624,-4.68564c0,0 -0.04002,-0.4984 0.45838,-0.53842c0.4984,-0.04002 0.53842,0.45838 0.53842,0.45838c0.11653,1.45123 0.23306,2.90246 0.34958,4.3537z" fill="#ffffff" stroke="none" stroke-width="0.5" stroke-linecap="butt"/><path d="M294.77059,157.92992c-0.47434,0.15811 -0.63246,-0.31623 -0.63246,-0.31623l-0.13758,-0.49388c0.0038,-1.39666 -0.33577,-2.73148 -0.33577,-4.14111c0,0 0,-0.5 0.5,-0.5c0.5,0 0.5,0.5 0.5,0.5c0,1.41001 0.33234,2.73963 0.33577,4.14111l0.08626,0.17765c0,0 0.15811,0.47434 -0.31623,0.63246z" fill="#ffffff" stroke="none" stroke-width="0.5" stroke-linecap="butt"/><path d="M297.52221,159.02201c-0.44721,0.22361 -0.67082,-0.22361 -0.67082,-0.22361l-0.16471,-0.44652c-0.00138,-1.51565 -0.32609,-2.99366 -0.33577,-4.47781c0,0 0,-0.5 0.5,-0.5c0.5,0 0.5,0.5 0.5,0.5c-0.0118,1.46986 0.3316,2.97133 0.33576,4.47594l0.05914,0.00117c0,0 0.22361,0.44721 -0.22361,0.67082z" fill="#ffffff" stroke="none" stroke-width="0.5" stroke-linecap="butt"/><path d="M300.9336,159.21466c-0.41603,0.27735 -0.69338,-0.13868 -0.69338,-0.13868l-0.29811,-0.51506c-0.28904,-1.47526 -0.23355,-3.18162 -0.23355,-4.68685c0,0 0,-0.5 0.5,-0.5c0.5,0 0.5,0.5 0.5,0.5c0,1.43487 -0.07342,3.08706 0.21413,4.49074l0.14958,0.15647c0,0 0.27735,0.41603 -0.13868,0.69338z" fill="#ffffff" stroke="none" stroke-width="0.5" stroke-linecap="butt"/><path d="M304.28683,159.35737c0.06673,0.07383 0.11517,0.18101 0.11517,0.33664c0,0.5 -0.5,0.5 -0.5,0.5l-0.61192,-0.5c0,-1.94357 -0.33319,-3.84558 -0.33577,-5.81993c0,0 0,-0.5 0.5,-0.5c0.5,0 0.5,0.5 0.5,0.5c-0.00268,1.86379 0.29786,3.65167 0.33252,5.48329z" fill="#ffffff" stroke="none" stroke-width="0.5" stroke-linecap="butt"/><path d="M307.42065,159.15283c0.07795,0.09881 0.25474,0.38485 -0.03129,0.67089c-0.35355,0.35355 -0.70711,0 -0.70711,0l-0.25837,-0.46548c0.01993,-1.48021 -0.22384,-3.05568 -0.22384,-4.58879c0,0 0,-0.5 0.5,-0.5c0.5,0 0.5,0.5 0.5,0.5c0,1.48088 0.19012,2.94379 0.22061,4.38338z" fill="#ffffff" stroke="none" stroke-width="0.5" stroke-linecap="butt"/><path d="M310.55853,160.16641c0.11538,0.06666 0.223,0.19101 0.223,0.42298c0,0.5 -0.5,0.5 -0.5,0.5l-0.72384,-0.5c0,-2.08925 0.08426,-4.11852 -0.32606,-6.16956c0,0 -0.09806,-0.49029 0.39223,-0.58835c0.49029,-0.09806 0.58835,0.39223 0.58835,0.39223c0.39597,1.98034 0.35357,3.93505 0.34632,5.9427z" fill="#ffffff" stroke="none" stroke-width="0.5" stroke-linecap="butt"/><path d="M313.99274,161.16678c-0.35355,0.35355 -0.70711,0 -0.70711,0l-0.37029,-0.5774c0.00411,-1.52071 0.31017,-4.52436 -0.3949,-5.82017c0,0 -0.22361,-0.44721 0.22361,-0.67082c0.44721,-0.22361 0.67082,0.22361 0.67082,0.22361c0.75544,1.5967 0.49618,4.47194 0.50047,6.26738l0.0774,-0.12971c0,0 0.35355,0.35355 0,0.70711z" fill="#ffffff" stroke="none" stroke-width="0.5" stroke-linecap="butt"/><path d="M317.37463,160.22066c0.03958,0.01505 0.08076,0.0362 0.12341,0.06463c0.41603,0.27735 0.13868,0.69338 0.13868,0.69338l-1.13307,0.14061c-0.29668,-1.78005 -0.45449,-3.41634 -0.45449,-5.2306c0,0 0,-0.5 0.5,-0.5c0.5,0 0.5,0.5 0.5,0.5c0,1.50984 0.11189,2.88114 0.32547,4.33199z" fill="#ffffff" stroke="none" stroke-width="0.5" stroke-linecap="butt"/><path d="M320.52201,162.06746c0.289,0.33941 -0.03781,0.66622 -0.03781,0.66622l-0.96548,-0.24163c0,-2.30375 0.35985,-4.92132 -0.10221,-7.17686c0,0 -0.09806,-0.49029 0.39223,-0.58835c0.49029,-0.09806 0.58835,0.39223 0.58835,0.39223c0.43109,2.20032 0.15858,4.67827 0.12492,6.94838z" fill="#ffffff" stroke="none" stroke-width="0.5" stroke-linecap="butt"/><path d="M323.48831,160.6417c-0.5,0 -0.5,-0.5 -0.5,-0.5v-0.22384c0.01109,-1.40048 -0.20629,-2.98953 -0.44088,-4.39467c0,0 -0.0822,-0.4932 0.411,-0.5754c0.4932,-0.0822 0.5754,0.411 0.5754,0.411c0.24407,1.46681 0.44479,3.09284 0.45449,4.55907v0.22384c0,0 0,0.5 -0.5,0.5z" fill="#ffffff" stroke="none" stroke-width="0.5" stroke-linecap="butt"/><path d="M328.23522,159.77928c0.47434,0.15811 0.31623,0.63246 0.31623,0.63246l-0.17024,0.455c-2.2977,2.23746 -1.58756,-4.47766 -1.58756,-6.09728c0,0 0,-0.5 0.5,-0.5c0.5,0 0.5,0.5 0.5,0.5c0,1.19756 -0.16882,4.81647 -0.22669,5.47066l0.0358,-0.1446c0,0 0.15811,-0.47434 0.63246,-0.31623z" fill="#ffffff" stroke="none" stroke-width="0.5" stroke-linecap="butt"/><path d="M331.37634,161.56502c-0.41603,0.27735 -0.69338,-0.13868 -0.69338,-0.13868l-0.30102,-0.53092c-0.31136,-1.89571 -0.451,-3.98571 -0.45449,-5.90213c0,0 0,-0.5 0.5,-0.5c0.5,0 0.5,0.5 0.5,0.5c-0.0037,1.85404 0.13026,3.90412 0.44088,5.73773l0.14667,0.14061c0,0 0.27735,0.41603 -0.13868,0.69338z" fill="#ffffff" stroke="none" stroke-width="0.5" stroke-linecap="butt"/><path d="M334.45665,159.29864c-0.5,0 -0.5,-0.5 -0.5,-0.5c0,-1.5296 0,-3.73073 0,-5.26032c0,0 0,-0.5 0.5,-0.5c0.5,0 0.5,0.5 0.5,0.5c0,1.5296 0,3.0592 0,4.58879v0.67153c0,0 0,0.5 -0.5,0.5z" fill="#ffffff" stroke="none" stroke-width="0.5" stroke-linecap="butt"/><path d="M338.20408,158.33566l-0.77786,0.12721c0,-1.3667 0.36335,-3.63855 -0.37643,-4.77923c0,0 -0.25725,-0.42875 0.1715,-0.68599c0.42875,-0.25725 0.68599,0.1715 0.68599,0.1715c0.7138,1.25439 0.57708,3.09687 0.5306,4.63931c0.1665,0.20108 0.0746,0.47677 0.0746,0.47677l-0.08535,0.01396c-0.00059,0.05514 -0.00092,0.10972 -0.00092,0.16369z" fill="#ffffff" stroke="none" stroke-width="0.5" stroke-linecap="butt"/><path d="M341.8794,153.43003c0.07074,0.06826 0.12596,0.17037 0.13821,0.32298c0.04002,0.4984 -0.45838,0.53842 -0.45838,0.53842l-0.64998,-0.44942c-0.09257,-1.15282 -0.18513,-2.30563 -0.2777,-3.45845c0,0 -0.04002,-0.4984 0.45838,-0.53842c0.4984,-0.04002 0.53842,0.45838 0.53842,0.45838c0.08368,1.04217 0.16736,2.08433 0.25105,3.12651z" fill="#ffffff" stroke="none" stroke-width="0.5" stroke-linecap="butt"/><path d="M344.45008,151.13997c-0.4984,0.04002 -0.53842,-0.45838 -0.53842,-0.45838c-0.07166,-0.8925 -0.15229,-1.89657 -0.22395,-2.78907c0,0 -0.04002,-0.4984 0.45838,-0.53842c0.4984,-0.04002 0.53842,0.45838 0.53842,0.45838c0.07166,0.8925 0.14333,1.785 0.21499,2.6775l0.00896,0.11156c0,0 0.04002,0.4984 -0.45838,0.53842z" fill="#ffffff" stroke="none" stroke-width="0.5" stroke-linecap="butt"/><path d="M346.86374,149.03737c-0.4984,0.04002 -0.53842,-0.45838 -0.53842,-0.45838l-0.03583,-0.44625c-0.04744,-0.7066 -0.30936,-1.17746 -0.37541,-1.87865c0,0 -0.04002,-0.4984 0.45838,-0.53842c0.4984,-0.04002 0.53842,0.45838 0.53842,0.45838c0.04125,0.67856 0.3108,1.16584 0.37541,1.87865l0.03583,0.44625c0,0 0.04002,0.4984 -0.45838,0.53842z" fill="#ffffff" stroke="none" stroke-width="0.5" stroke-linecap="butt"/><path d="M312.64124,182.67536c-0.48507,0.12127 -0.60634,-0.3638 -0.60634,-0.3638l-0.11714,-0.4709c-0.20783,-1.06078 -0.12163,-2.15316 -0.12163,-3.23187c0,0 0,-0.5 0.5,-0.5c0.5,0 0.5,0.5 0.5,0.5c0,1.00614 -0.10028,2.04731 0.10221,3.03575l0.1067,0.42448c0,0 0.12127,0.48507 -0.3638,0.60634z" fill="#ffffff" stroke="none" stroke-width="0.5" stroke-linecap="butt"/><path d="M317.1181,184.35419c-0.48507,0.12127 -0.60634,-0.3638 -0.60634,-0.3638l-0.12685,-0.56896c0,-1.54337 -0.22172,-2.7135 -0.44266,-4.18232c0,0 -0.07071,-0.49497 0.42426,-0.56569c0.49497,-0.07071 0.56569,0.42426 0.56569,0.42426c0.19904,1.48977 0.45271,2.75963 0.45271,4.32374l0.09699,0.32642c0,0 0.12127,0.48507 -0.3638,0.60634z" fill="#ffffff" stroke="none" stroke-width="0.5" stroke-linecap="butt"/><path d="M321.69756,185.26449c-0.5,0 -0.5,-0.5 -0.5,-0.5l0.00902,-0.57698c-0.4476,-1.119 -0.34389,-2.69221 -0.34479,-3.8999c0,0 0,-0.5 0.5,-0.5c0.5,0 0.5,0.5 0.5,0.5c-0.00092,1.15602 -0.10195,2.63906 0.32674,3.71079l0.00902,0.76608c0,0 0,0.5 -0.5,0.5z" fill="#ffffff" stroke="none" stroke-width="0.5" stroke-linecap="butt"/><path d="M326.47133,182.14492c-0.40231,0.29689 -0.6992,-0.10542 -0.6992,-0.10542l-0.4084,-0.5956c-0.02486,-1.14767 -0.02781,-2.04938 -0.34158,-3.14543c0,0 -0.13736,-0.48076 0.3434,-0.61812c0.48076,-0.13736 0.61812,0.3434 0.61812,0.3434c0.31006,1.08723 0.36352,1.97711 0.32995,3.1076l0.26313,0.31437c0,0 0.29689,0.40231 -0.10542,0.6992z" fill="#ffffff" stroke="none" stroke-width="0.5" stroke-linecap="butt"/><path d="M329.86785,178.99687c-0.5,0 -0.5,-0.5 -0.5,-0.5c0,-1.0073 0,-2.46228 0,-3.46958c0,0 0,-0.5 0.5,-0.5c0.5,0 0.5,0.5 0.5,0.5c0,1.0073 0,2.01459 0,3.02189v0.44769c0,0 0,0.5 -0.5,0.5z" fill="#ffffff" stroke="none" stroke-width="0.5" stroke-linecap="butt"/></g></g></svg>