<svg version="1.1" xmlns="http://www.w3.org/2000/svg" xmlns:xlink="http://www.w3.org/1999/xlink" width="152.4428" height="305.76869" viewBox="0,0,152.4428,305.76869"><defs><linearGradient x1="296.44687" y1="173.14969" x2="319.22108" y2="348.11643" gradientUnits="userSpaceOnUse" id="color-1"><stop offset="0" stop-color="#353535"/><stop offset="1" stop-color="#565656"/></linearGradient><linearGradient x1="260.1284" y1="164.63488" x2="283.94702" y2="347.62547" gradientUnits="userSpaceOnUse" id="color-2"><stop offset="0" stop-color="#6c8dd1"/><stop offset="1" stop-color="#002994"/></linearGradient><linearGradient x1="329.66109" y1="165.56335" x2="353.47972" y2="348.55396" gradientUnits="userSpaceOnUse" id="color-3"><stop offset="0" stop-color="#6c8dd1"/><stop offset="1" stop-color="#002994"/></linearGradient><linearGradient x1="296.71077" y1="172.71292" x2="299.5766" y2="194.73015" gradientUnits="userSpaceOnUse" id="color-4"><stop offset="0" stop-color="#dadada"/><stop offset="1" stop-color="#bebebe"/></linearGradient><linearGradient x1="301.30339" y1="79.39118" x2="301.30339" y2="185.8268" gradientUnits="userSpaceOnUse" id="color-5"><stop offset="0" stop-color="#dadada"/><stop offset="1" stop-color="#bebebe"/></linearGradient><linearGradient x1="298.33933" y1="78.58014" x2="303.93259" y2="116.82518" gradientUnits="userSpaceOnUse" id="color-6"><stop offset="0" stop-color="#dadada"/><stop offset="1" stop-color="#bebebe"/></linearGradient><linearGradient x1="300.53872" y1="56.5804" x2="300.53872" y2="93.65332" gradientUnits="userSpaceOnUse" id="color-7"><stop offset="0" stop-color="#dadada"/><stop offset="1" stop-color="#bebebe"/></linearGradient></defs><g transform="translate(-224.94114,-47.11771)"><g stroke-miterlimit="10"><g stroke-width="2.5" stroke-linejoin="miter"><path d="M275.31853,344.5567l-20.70941,-144.08247c0,0 2.81087,-25.14101 11.76584,-25.53745c8.89302,-0.39369 30.02259,-0.93826 48.43455,-1.75337c19.96993,-0.88409 29.10709,15.91028 29.10709,15.91028l20.22313,159.02274z" fill="url(#color-1)" stroke="#000000" stroke-linecap="butt"/><path d="M262.27244,343.9025l-20.2324,-138.6801c0,0 0.36524,-16.82023 4.70474,-17.23485c4.30949,-0.41174 23.18343,-16.00672 32.10572,-16.85922c9.67727,-0.92463 -6.27664,18.69478 -6.27664,18.69478c0,0 4.93607,29.90322 9.95401,58.26325c2.71947,15.36969 5.46299,30.28612 7.45787,39.74383c5.40595,25.6294 15.87293,59.79528 15.87293,59.79528c0,0 -25.10637,2.41943 -32.85114,1.75789c-6.60013,-0.56377 -10.73512,-5.48088 -10.73512,-5.48088z" fill="url(#color-2)" stroke="#000000" stroke-linecap="butt"/><path d="M333.39394,351.6364c0,0 1.0711,-35.01273 -0.36744,-60.93332c-1.51038,-27.21474 -8.48981,-98.66193 -8.48981,-98.66193c0,0 -19.51913,-17.01583 -10.41758,-17.46949c8.39149,-0.41827 30.35611,7.7199 34.40921,7.51787c4.08135,-0.20343 11.41633,19.34493 11.41633,19.34493l12.47475,140.41559c0,0 1.56265,5.99801 -4.27671,7.46234c-6.96847,1.74747 -34.74871,2.32401 -34.74871,2.32401z" fill="url(#color-3)" stroke="#000000" stroke-linecap="butt"/><path d="M311.30056,183.72154c0.79138,6.07989 -4.45763,11.00861 -11.72397,11.00861c-7.26635,0 -13.79841,-4.92872 -14.58979,-11.00861c-0.79138,-6.07989 4.45763,-11.00861 11.72397,-11.00861c7.26635,0 13.79841,4.92872 14.58979,11.00861z" fill="url(#color-4)" stroke="#000000" stroke-linecap="butt"/><path d="M319.29932,233.88144l-27.03848,-0.25901" fill="none" stroke="#ffffff" stroke-linecap="round"/><path d="M307.08798,247.86809l-3.20281,-24.60615" fill="none" stroke="#ffffff" stroke-linecap="round"/><path d="M313.87834,222.74393l-8.08635,9.06542" fill="none" stroke="#ffffff" stroke-linecap="round"/><path d="M314.48617,241.65181l-10.04672,-8.02937l-10.249,-9.58345" fill="none" stroke="#ffffff" stroke-linecap="round"/><path d="M305.49847,233.62243l-7.75418,9.58345" fill="none" stroke="#ffffff" stroke-linecap="round"/><path d="M329.65463,234.11167l0.23501,-12.43257l14.99472,1.29506l1.38226,10.6195" fill="none" stroke="#000000" stroke-linecap="round"/><path d="M339.56529,239.06168l9.28125,109.95096" fill="none" stroke="#000000" stroke-linecap="round"/><path d="M289.76804,346.68153l-20.64872,-109.82112" fill="none" stroke="#000000" stroke-linecap="round"/><path d="M264.58482,236.6014l-2.00795,-9.32443l11.68283,0.25901l2.73974,10.87851" fill="none" stroke="#000000" stroke-linecap="round"/></g><g stroke-linecap="butt"><path d="M355.9538,134.83365c-1.94104,28.48816 -27.92848,52.9286 -58.11114,50.8721c-30.18266,-2.05649 -53.13099,-29.83117 -51.18995,-58.31932c1.94104,-28.48815 27.98246,-49.91526 58.16512,-47.85875c30.18266,2.05649 53.07703,26.81782 51.13599,55.30597z" fill="url(#color-5)" stroke="#000000" stroke-width="2.5" stroke-linejoin="miter"/><path d="M310.11569,132.88411c0,28.78589 -8.99421,52.31392 -8.99421,52.31392c0,0 -8.57482,-23.52803 -8.57482,-52.31392c0,-8.62488 -5.89369,-24.1785 -5.26862,-31.34372c1.46112,-16.74899 10.65522,-20.77775 14.05314,-20.77775c3.20425,0 12.25457,6.27488 13.78901,21.48043c0.78885,7.81717 -5.00449,20.86704 -5.00449,30.64104z" fill-opacity="0.23529" fill="#000000" stroke="none" stroke-width="0" stroke-linejoin="round"/></g><path d="M315.55537,124.92636c0.01376,2.70881 -6.62742,4.93852 -14.83351,4.98021c-8.20609,0.04169 -14.86959,-2.12043 -14.88334,-4.82924c-0.01376,-2.70881 6.62743,-4.93852 14.83352,-4.98021c8.20609,-0.04169 14.86959,2.12043 14.88335,4.82924z" fill-opacity="0.23137" fill="#000000" stroke="none" stroke-width="0" stroke-linecap="butt" stroke-linejoin="miter"/><path d="M280.38089,123.48221c-0.15191,2.2297 -2.25895,3.90205 -4.70617,3.73531c-2.44723,-0.16674 -4.30794,-2.10944 -4.15603,-4.33913c0.15191,-2.22971 2.25895,-3.90205 4.70617,-3.73531c2.44723,0.16674 4.30793,2.10943 4.15602,4.33914z" fill="#ffffff" stroke="#000000" stroke-width="2.5" stroke-linecap="butt" stroke-linejoin="miter"/><path d="M329.55505,123.49313c-0.15191,2.22971 -2.25895,3.90205 -4.70617,3.73531c-2.44723,-0.16674 -4.30793,-2.10944 -4.15602,-4.33913c0.15191,-2.2297 2.25894,-3.90204 4.70617,-3.7353c2.44723,0.16674 4.30794,2.10943 4.15603,4.33913z" fill="#ffffff" stroke="#000000" stroke-width="2.5" stroke-linecap="butt" stroke-linejoin="miter"/><path d="M338.44174,119.89395l-3.36249,10.45249l-18.59258,0.62715l-1.97793,-11.49774l-27.69107,-0.20905l-1.18676,10.87059l-21.16389,0.4181l-3.16469,-10.0344" fill="none" stroke="#000000" stroke-width="2.5" stroke-linecap="round" stroke-linejoin="miter"/><path d="M267.57383,119.66167c0,0 5.29523,-1.87761 7.84694,-1.98248c2.53506,-0.10418 7.4137,1.35533 7.4137,1.35533" fill="none" stroke="#000000" stroke-width="2.5" stroke-linecap="round" stroke-linejoin="miter"/><path d="M319.0001,118.82547c0,0 4.57648,-1.51578 6.91119,-1.44395c2.18473,0.06722 6.67705,1.86205 6.67705,1.86205" fill="none" stroke="#000000" stroke-width="2.5" stroke-linecap="round" stroke-linejoin="miter"/><g stroke-linecap="butt" stroke-linejoin="miter"><path d="M376.08078,86.74212c1.54454,10.56107 -30.7573,24.02972 -72.14819,30.08306c-41.39089,6.05334 -76.19692,2.39909 -77.74145,-8.16198c-1.54454,-10.56107 30.7573,-24.02971 72.14819,-30.08305c41.39089,-6.05334 76.19692,-2.3991 77.74145,8.16197z" fill="url(#color-6)" stroke="#000000" stroke-width="2.5"/><path d="M361.44589,88.94368c0.94593,6.46801 -26.83144,15.88588 -62.04251,21.03544c-35.21107,5.14955 -64.5221,4.08074 -65.46803,-2.38726c-0.73047,-4.99473 15.66752,-11.74855 39.39017,-16.9375c-11.17844,3.4041 -18.09875,7.11925 -17.66505,10.08482c0.76315,5.21816 24.00629,6.13953 51.915,2.05794c27.90872,-4.0816 49.91455,-11.62055 49.15141,-16.83871c-0.03155,-0.21575 -0.10154,-0.42415 -0.20868,-0.62516c2.97384,0.90809 4.70897,2.11494 4.92768,3.61044z" fill-opacity="0.21961" fill="#000000" stroke="none" stroke-width="0"/></g><path d="M297.62644,93.65332c0,0 -1.32377,-25.83343 -1.32377,-31.92986c0,-0.72518 -4.51177,-1.31967 -5.9314,-2.65717c-3.37018,-3.1752 -5.55267,-7.70498 -5.55267,-7.70498c0,0 10.71889,6.72279 12.6907,6.64559c1.56655,-0.06133 2.35615,-1.4265 2.76467,-1.4265c0.36363,0 2.11892,1.17142 3.59452,1.23346c2.62613,0.11041 14.95192,-6.97005 14.95192,-6.97005c0,0 -3.22996,4.86048 -7.29147,7.98179c-2.30262,1.76959 -6.48942,2.01261 -6.48942,2.89787c0,6.09642 -1.58852,31.92986 -1.58852,31.92986c0,0 7.45362,5.92074 6.79473,6.47538c-0.67191,0.5656 -9.46143,-4.23471 -9.97176,-4.23471c-0.4386,0 -8.31718,4.13934 -8.84685,3.60811c-0.58464,-0.58637 6.19932,-5.84878 6.19932,-5.84878z" fill="url(#color-7)" stroke="#000000" stroke-width="2.5" stroke-linecap="butt" stroke-linejoin="miter"/><path d="M279.46861,175.22869l5.87033,-5.47898l5.2833,2.34813l30.52572,-3.71788l3.71788,6.65304z" fill="none" stroke="#000000" stroke-width="2.5" stroke-linecap="round" stroke-linejoin="miter"/></g></g></svg>