<svg version="1.1" xmlns="http://www.w3.org/2000/svg" xmlns:xlink="http://www.w3.org/1999/xlink" width="167.57119" height="309.66889" viewBox="0,0,167.57119,309.66889"><defs><linearGradient x1="316.01976" y1="162.70371" x2="323.21566" y2="341.39124" gradientUnits="userSpaceOnUse" id="color-1"><stop offset="0" stop-color="#676767"/><stop offset="1" stop-color="#313131"/></linearGradient><linearGradient x1="347.47322" y1="162.49907" x2="354.74847" y2="343.15708" gradientUnits="userSpaceOnUse" id="color-2"><stop offset="0" stop-color="#2e2e2e"/><stop offset="1" stop-color="#2b2b2b"/></linearGradient><linearGradient x1="285.66703" y1="163.73839" x2="292.94229" y2="344.3964" gradientUnits="userSpaceOnUse" id="color-3"><stop offset="0" stop-color="#2e2e2e"/><stop offset="1" stop-color="#2b2b2b"/></linearGradient><linearGradient x1="317.37136" y1="162.40631" x2="318.47521" y2="189.81657" gradientUnits="userSpaceOnUse" id="color-4"><stop offset="0" stop-color="#575757"/><stop offset="1" stop-color="#9c9c9c"/></linearGradient><linearGradient x1="313.46327" y1="70.09441" x2="317.74606" y2="176.44382" gradientUnits="userSpaceOnUse" id="color-5"><stop offset="0" stop-color="#1a1a1a"/><stop offset="1" stop-color="#9c9c9c"/></linearGradient><radialGradient cx="349.51875" cy="91.32938" r="24.5784" gradientUnits="userSpaceOnUse" id="color-6"><stop offset="0" stop-color="#000000" stop-opacity="0.92549"/><stop offset="1" stop-color="#000000" stop-opacity="0"/></radialGradient><radialGradient cx="278.50358" cy="98.29733" r="25.35587" gradientUnits="userSpaceOnUse" id="color-7"><stop offset="0" stop-color="#000000" stop-opacity="0.92549"/><stop offset="1" stop-color="#000000" stop-opacity="0"/></radialGradient><linearGradient x1="267.20706" y1="38.38693" x2="274.16769" y2="123.30091" gradientUnits="userSpaceOnUse" id="color-8"><stop offset="0" stop-color="#9c9c9c"/><stop offset="1" stop-color="#2c2c2c"/></linearGradient><linearGradient x1="353.83158" y1="36.07104" x2="357.38299" y2="124.25879" gradientUnits="userSpaceOnUse" id="color-9"><stop offset="0" stop-color="#9c9c9c"/><stop offset="1" stop-color="#2c2c2c"/></linearGradient><linearGradient x1="282.35471" y1="181.50521" x2="283.19121" y2="202.27705" gradientUnits="userSpaceOnUse" id="color-10"><stop offset="0" stop-color="#878787"/><stop offset="1" stop-color="#848484"/></linearGradient><linearGradient x1="119.67201" y1="93.23253" x2="119.72231" y2="94.48152" gradientUnits="userSpaceOnUse" id="color-11"><stop offset="0" stop-color="#878787"/><stop offset="1" stop-color="#848484"/></linearGradient></defs><g transform="translate(-227.49917,-34.41031)"><g stroke-miterlimit="10"><path d="M276.06076,339.64864l-8.05363,-147.07083c0,0 5.58535,-25.94396 15.36933,-26.74353c9.71629,-0.79403 32.76266,-2.27921 52.87911,-3.92318c21.81865,-1.78307 29.70909,24.79932 29.70909,24.79932l6.38698,152.70208z" fill="url(#color-1)" stroke="#000000" stroke-width="0" stroke-linecap="butt"/><path d="M331.8506,344.0792l5.77713,-99.0216c0,0 -9.72497,-80.67887 0.49606,-80.18607c9.42362,0.45436 14.15518,-2.93349 18.70681,-2.71404c4.58334,0.22098 14.74323,29.28525 14.74323,29.28525l4.93469,147.19644z" fill="url(#color-2)" stroke="#000000" stroke-width="0" stroke-linecap="butt"/><path d="M270.88944,341.6429l-6.91756,-147.11659c0,0 7.78989,-29.78712 12.34062,-30.37595c4.51924,-0.58474 9.50789,2.41166 18.86446,1.20101c10.1483,-1.31309 6.94233,79.88651 6.94233,79.88651l13.72089,98.2364z" fill="url(#color-3)" stroke="#000000" stroke-width="0" stroke-linecap="butt"/><path d="M331.36046,175.57031c0.30481,7.56914 -5.4641,13.9474 -12.88526,14.24626c-7.42115,0.29885 -13.68428,-5.59487 -13.98909,-13.164c-0.30481,-7.56914 5.4641,-13.9474 12.88526,-14.24626c7.42115,-0.29885 13.68428,5.59487 13.98909,13.164z" fill="url(#color-4)" stroke="#000000" stroke-width="0" stroke-linecap="butt"/><path d="M370.30035,123.29293c-0.79315,28.5432 -25.77611,54.00952 -56.01707,53.16919c-30.24096,-0.84032 -54.28831,-27.66911 -53.49516,-56.21229c0.79315,-28.54319 25.95129,-51.0008 56.19226,-50.16045c30.24096,0.84032 54.11315,24.66037 53.31999,53.20355z" fill="url(#color-5)" stroke="#000000" stroke-width="0" stroke-linecap="butt"/><path d="M330.5062,122.36915c0.109,2.70665 -6.44968,5.1685 -14.64922,5.4987c-8.19955,0.3302 -14.93494,-1.59629 -15.04395,-4.30294c-0.109,-2.70665 6.44968,-5.1685 14.64922,-5.4987c8.19955,-0.3302 14.93494,1.59629 15.04395,4.30294z" fill-opacity="0.18431" fill="#000000" stroke="none" stroke-width="0" stroke-linecap="butt"/><path d="M271.26237,140.59783c0.51438,-0.11125 2.96813,-0.07029 1.75651,1.32642c-0.26688,0.30765 -1.69081,0.2305 -1.9603,0.00966c-0.41408,-0.33935 0.70682,-1.12524 0.39126,-1.55771c-0.19648,-0.26927 -0.56009,0.72512 -0.83949,0.54335c-0.2794,-0.18178 0.10434,-0.65845 0.1565,-0.98767z" fill="none" stroke="#000000" stroke-width="2.5" stroke-linecap="round"/><path d="M282.17601,141.49788c-2.6865,-0.75653 1.12504,-1.94938 1.39914,-0.85129c0.48895,1.95883 -4.42052,-0.59404 -0.20244,-0.7639" fill="none" stroke="#000000" stroke-width="2.5" stroke-linecap="round"/><path d="M277.06848,146.08255c4.47623,-0.85765 -0.1349,3.31299 -0.87194,1.91765c-0.31966,-0.60518 1.10923,-1.30046 0.77876,-1.8998z" fill="none" stroke="#000000" stroke-width="2.5" stroke-linecap="round"/><path d="M348.57617,139.27375c0.57016,-0.23636 1.89169,-0.62582 1.85159,-0.00992c-0.00202,0.03109 -3.73781,1.16628 -2.03045,-1.31203" fill="none" stroke="#000000" stroke-width="2.5" stroke-linecap="round"/><path d="M357.62743,139.20649c1.08066,2.07362 -2.0678,1.1127 -0.01111,-0.02131z" fill="none" stroke="#000000" stroke-width="2.5" stroke-linecap="round"/><path d="M353.80933,145.13287c-0.31144,0.14742 -2.96579,1.24929 -2.23821,-0.49689c0.27331,-0.65595 2.61674,-0.91978 2.36413,0.44597c-0.11315,0.61176 -2.44013,1.45422 -1.14191,-0.43019z" fill="none" stroke="#000000" stroke-width="2.5" stroke-linecap="round"/><path d="M327.94781,77.56909c2.30311,-14.41403 13.82779,-19.93823 25.74108,-12.33861c11.91329,7.59961 19.7039,25.44518 17.40079,39.85923c-2.30311,14.41403 -13.8278,19.93823 -25.7411,12.33862c-11.91329,-7.59961 -19.70389,-25.44519 -17.40077,-39.85921z" fill="url(#color-6)" stroke="#000000" stroke-width="0" stroke-linecap="butt"/><path d="M299.67618,82.3026c3.41272,14.38944 -3.30002,33.2155 -14.99333,42.04917c-11.69331,8.83366 -23.93918,4.3298 -27.3519,-10.05966c-3.41272,-14.38946 3.30003,-33.21551 14.99334,-42.04919c11.69331,-8.83366 23.93917,-4.32979 27.35189,10.05967z" fill="url(#color-7)" stroke="#000000" stroke-width="0" stroke-linecap="butt"/><path d="M264.56375,124.08818l-37.06458,-82.44627l71.25919,35.07401c0,0 -3.76872,18.90417 -8.80784,25.88522c-6.14011,8.50634 -25.38678,21.48706 -25.38678,21.48706z" fill="url(#color-8)" stroke="#000000" stroke-width="0" stroke-linecap="butt"/><path d="M328.63708,75.01565l66.43328,-40.60534l-27.71316,89.44683c0,0 -19.88344,-15.91238 -26.60826,-24.39507c-6.12593,-7.72724 -12.11185,-24.44641 -12.11185,-24.44641z" fill="url(#color-9)" stroke="#000000" stroke-width="0" stroke-linecap="butt"/><path d="M293.41498,119.04127c0.10776,2.23228 -1.79108,4.13774 -4.24111,4.256c-2.45005,0.11826 -4.52355,-1.59548 -4.63132,-3.82774c-0.10776,-2.23228 1.79108,-4.13774 4.24111,-4.256c2.45005,-0.11826 4.52354,1.59548 4.6313,3.82775z" fill="#ffffff" stroke="#000000" stroke-width="2.5" stroke-linecap="butt"/><path d="M346.86254,116.53274c0.10776,2.23228 -1.79107,4.13774 -4.24111,4.256c-2.45005,0.11826 -4.52354,-1.59548 -4.6313,-3.82774c-0.10776,-2.23228 1.79107,-4.13773 4.24111,-4.25599c2.45005,-0.11826 4.52355,1.59547 4.6313,3.82773z" fill="#ffffff" stroke="#000000" stroke-width="2.5" stroke-linecap="butt"/><path d="M288.45673,128.12027l6.13301,-6.83849" fill="none" stroke="#000000" stroke-width="2.5" stroke-linecap="round"/><path d="M305.2464,216.29106l29.47456,0.54553" fill="none" stroke-opacity="0.45098" stroke="#000000" stroke-width="2.5" stroke-linecap="round"/><path d="M304.31579,229.03358l29.4049,-1.18416" fill="none" stroke-opacity="0.45098" stroke="#000000" stroke-width="2.5" stroke-linecap="round"/><path d="M337.57483,237.51174l-34.2709,2.24637" fill="none" stroke-opacity="0.45098" stroke="#000000" stroke-width="2.5" stroke-linecap="round"/><path d="M304.05656,251.27784l32.8643,-1.32347" fill="none" stroke-opacity="0.45098" stroke="#000000" stroke-width="2.5" stroke-linecap="round"/><path d="M307.43862,263.55793l28.52845,-1.43762" fill="none" stroke-opacity="0.45098" stroke="#000000" stroke-width="2.5" stroke-linecap="round"/><path d="M335.05969,275.4394l-25.91068,1.9097" fill="none" stroke-opacity="0.45098" stroke="#000000" stroke-width="2.5" stroke-linecap="round"/><path d="M312.24277,289.64078l19.86833,-1.37761" fill="none" stroke-opacity="0.45098" stroke="#000000" stroke-width="2.5" stroke-linecap="round"/><path d="M313.50235,299.40759l18.15024,-1.01967" fill="none" stroke-opacity="0.45098" stroke="#000000" stroke-width="2.5" stroke-linecap="round"/><path d="M314.81996,310.61581l18.13863,-1.30797" fill="none" stroke-opacity="0.45098" stroke="#000000" stroke-width="2.5" stroke-linecap="round"/><path d="M334.85638,205.85862l-29.76285,-0.53392" fill="none" stroke-opacity="0.45098" stroke="#000000" stroke-width="2.5" stroke-linecap="round"/><path d="M305.27536,195.49984l26.5569,-0.20321" fill="none" stroke-opacity="0.45098" stroke="#000000" stroke-width="2.5" stroke-linecap="round"/><path d="M340.42013,223.43849l-1.45889,-21.88632l29.71641,-0.6192l-0.97508,18.80807" fill="none" stroke-opacity="0.45098" stroke="#000000" stroke-width="2.5" stroke-linecap="round"/><path d="M353.70439,223.48102l1.61762,54.50877l1.31967,61.4508" fill="none" stroke-opacity="0.45098" stroke="#000000" stroke-width="2.5" stroke-linecap="round"/><path d="M294.01546,191.43838c0.23099,5.73599 -4.61519,10.58863 -10.82424,10.83867c-6.20906,0.25004 -11.42976,-4.1972 -11.66074,-9.93317c-0.23099,-5.73599 4.61519,-10.58863 10.82424,-10.83867c6.20906,-0.25004 11.42976,4.1972 11.66074,9.93317z" fill="url(#color-10)" stroke="#000000" stroke-width="0" stroke-linecap="butt"/><path d="M248.45476,178.58058z" fill="url(#color-11)" stroke="#000000" stroke-width="2.5" stroke-linecap="butt"/><path d="M280.9615,113.72905l13.8489,-1.25267" fill="none" stroke="#000000" stroke-width="2.5" stroke-linecap="round"/><path d="M337.38437,110.06692l11.58485,1.20139" fill="none" stroke="#000000" stroke-width="2.5" stroke-linecap="round"/><path d="M341.10136,122.98262l-3.96934,-1.92505" fill="none" stroke="#000000" stroke-width="2.5" stroke-linecap="round"/><path d="M339.11389,121.95071l10.26328,-0.55231" fill="none" stroke="#000000" stroke-width="2.5" stroke-linecap="round"/><path d="M291.48278,123.0349l-9.16989,0.09129" fill="none" stroke="#000000" stroke-width="2.5" stroke-linecap="round"/><path d="M296.47388,170.30243l6.38549,-1.92502l16.10273,1.22789l13.64547,-2.84285l8.98383,0.47215" fill="none" stroke="#000000" stroke-width="2.5" stroke-linecap="round"/><path d="M273.29302,125.24652l-0.03575,4.06509l-2.33794,0.22565l-1.63582,-2.45243" fill="none" stroke="#000000" stroke-width="2.5" stroke-linecap="round"/><path d="M274.29156,132.56341l-0.70675,2.5219l-1.87406,0.05558l-1.27253,-0.7438" fill="none" stroke="#000000" stroke-width="2.5" stroke-linecap="round"/></g></g></svg>