<svg version="1.1" xmlns="http://www.w3.org/2000/svg" xmlns:xlink="http://www.w3.org/1999/xlink" width="199.03966" height="285.25174" viewBox="0,0,199.03966,285.25174"><defs><linearGradient x1="301.18828" y1="173.55229" x2="311.92469" y2="352.06209" gradientUnits="userSpaceOnUse" id="color-1"><stop offset="0" stop-color="#fbc74c"/><stop offset="1" stop-color="#fa954b"/></linearGradient><linearGradient x1="300.49661" y1="168.60846" x2="302.48432" y2="201.65723" gradientUnits="userSpaceOnUse" id="color-2"><stop offset="0" stop-color="#fbc74c"/><stop offset="1" stop-color="#fa8c4b"/></linearGradient></defs><g transform="translate(-204.62163,-67.43384)"><g stroke-miterlimit="10"><path d="M256.74932,126.76979c0,0 -16.02186,-5.59559 -22.62529,-10.13821c-6.99658,-4.81308 -18.24298,-17.97584 -18.24298,-17.97584c0,0 8.53496,5.94003 14.38451,5.83531c9.41149,-0.16849 36.21116,-3.36147 36.21116,-3.36147z" fill="#ffe23b" stroke="#000000" stroke-width="2.5" stroke-linecap="butt"/><path d="M248.02687,140.4428c0,0 -14.43302,-8.9274 -19.89808,-14.79031c-5.79044,-6.212 -13.92483,-21.49503 -13.92483,-21.49503c0,0 7.04875,7.6449 12.78258,8.80741c9.22531,1.87039 36.08143,4.54741 36.08143,4.54741z" fill="#ffe23b" stroke="#000000" stroke-width="2.5" stroke-linecap="butt"/><path d="M336.20736,102.75751c0,0 26.98918,-0.04213 36.35302,-1.00287c5.81995,-0.59713 13.58143,-7.51731 13.58143,-7.51731c0,0 -9.5877,14.41582 -15.95696,20.03279c-6.01136,5.30133 -21.24707,12.7769 -21.24707,12.7769z" fill="#ffe23b" stroke="#000000" stroke-width="2.5" stroke-linecap="butt"/><path d="M262.20607,351.40719l-11.08214,-146.8754c0,0 5.42744,-26.07108 15.72285,-27.09626c10.22419,-1.01808 34.48231,-3.03471 55.65031,-5.14253c22.9592,-2.28619 31.74265,24.11247 31.74265,24.11247l9.42536,152.5447z" fill="url(#color-1)" stroke="#000000" stroke-width="2.5" stroke-linecap="butt"/><path d="M338.66736,118.82628c0,0 26.34168,-5.87657 35.2763,-8.83919c5.55317,-1.84136 11.63484,-10.27599 11.63484,-10.27599c0,0 -6.24398,16.14784 -11.24813,23.00905c-4.72294,6.47567 -17.98194,17.06859 -17.98194,17.06859z" fill="#ffe23b" stroke="#000000" stroke-width="2.5" stroke-linecap="butt"/><path d="M345.18304,115.97247c0,0 22.88881,20.44018 31.54784,26.7306c5.38188,3.90971 17.20511,3.9375 17.20511,3.9375c0,0 -19.05655,4.93471 -28.71205,4.85949c-9.11291,-0.07101 -27.68736,-5.29887 -27.68736,-5.29887z" fill="#ffe23b" stroke="#000000" stroke-width="2.5" stroke-linecap="butt"/><path d="M270.36407,144.41937c0,0 -17.81395,7.41643 -26.85267,8.57917c-9.57688,1.23194 -29.08751,-1.38317 -29.08751,-1.38317c0,0 11.73467,-1.44467 16.60916,-5.97122c7.84266,-7.2829 28.1166,-30.31908 28.1166,-30.31908z" fill="#ffe23b" stroke="#000000" stroke-width="2.5" stroke-linecap="butt"/><path d="M346.42193,148.30279c0,0 10.11091,16.43501 12.67281,25.18068c2.7144,9.26639 3.18254,28.94594 3.18254,28.94594c0,0 -3.26195,-11.36438 -8.49509,-15.47104c-8.41971,-6.60728 -34.34292,-23.0294 -34.34292,-23.0294z" fill="#ffe23b" stroke="#000000" stroke-width="2.5" stroke-linecap="butt"/><path d="M274.86173,173.7572c10.41229,-4.77048 22.76895,-4.73274 34.1843,-5.41933c4.63733,-0.27891 10.45692,-1.54775 14.88288,-0.08275c3.44327,1.13975 9.51098,0.76087 12.12978,3.16562c2.73682,2.51314 -1.38496,7.73577 -3.13077,9.48178c-5.89549,5.89615 -25.84774,19.18339 -33.88839,21.45616c-9.21875,2.60578 -15.34699,-12.03499 -23.16724,-16.74749c-1.43531,-0.86491 -10.35501,-4.29606 -10.79502,-5.08868c-0.84288,-1.5183 7.44537,-6.46269 8.95719,-7.06973z" fill="url(#color-2)" stroke="#000000" stroke-width="2.5" stroke-linecap="round"/><path d="M289.56406,157.31647c0,0 -23.76804,19.41078 -31.33515,26.97958c-4.7032,4.70427 -6.57956,16.3777 -6.57956,16.3777c0,0 -1.89395,-19.59379 -0.30975,-29.11873c1.49519,-8.9897 9.56341,-26.51809 9.56341,-26.51809z" fill="#ffe23b" stroke="#000000" stroke-width="2.5" stroke-linecap="butt"/><path d="M348.69963,126.35471c1.68118,27.9524 -21.00132,55.00853 -51.19939,56.82478c-30.19806,1.81626 -56.47631,-22.29516 -58.1575,-50.24755c-1.68118,-27.95239 21.43633,-52.08463 51.6344,-53.90089c30.19806,-1.81626 56.04131,19.37128 57.7225,47.32366z" fill="#ffec7f" stroke="#000000" stroke-width="2.5" stroke-linecap="butt"/><path d="M304.49245,124.75051c0.16263,2.70396 -6.34596,5.29533 -14.53736,5.78799c-8.19139,0.49267 -14.96366,-1.29994 -15.12629,-4.0039c-0.16263,-2.70396 6.34596,-5.29533 14.53736,-5.78799c8.19139,-0.49267 14.96366,1.29994 15.12629,4.0039z" fill-opacity="0.18431" fill="#ff0505" stroke="none" stroke-width="0" stroke-linecap="butt"/><path d="M316.38867,122.78803c0.13418,2.23084 -1.74195,4.15866 -4.19042,4.30592c-2.44847,0.14727 -4.54212,-1.5418 -4.6763,-3.77264c-0.13418,-2.23083 1.74194,-4.15866 4.19041,-4.30592c2.44847,-0.14727 4.54213,1.5418 4.6763,3.77264z" fill="#ffffff" stroke="#000000" stroke-width="2.5" stroke-linecap="butt"/><path d="M266.60658,124.46755c0.13418,2.23083 -1.74195,4.15866 -4.19042,4.30592c-2.44847,0.14727 -4.54212,-1.5418 -4.6763,-3.77264c-0.13418,-2.23084 1.74195,-4.15867 4.19042,-4.30593c2.44847,-0.14727 4.54212,1.5418 4.6763,3.77265z" fill="#ffffff" stroke="#000000" stroke-width="2.5" stroke-linecap="butt"/><path d="M286.927,103.15637c-2.90459,-1.66397 -15.23792,-3.27247 -19.97685,-7.0371c-7.51521,-5.97013 -7.70423,-14.88843 -10.20621,-19.2806c-0.69429,-1.21882 -3.83444,-7.20014 -1.79054,-8.15483c1.16674,-0.54495 4.78795,1.46562 5.94712,1.88148c3.82527,1.37239 10.48337,4.25023 14.60617,3.19853c2.2176,-0.5657 2.88233,-5.23692 5.37649,-4.74155c3.02913,0.60164 5.69773,6.02011 7.94103,7.96208c4.75841,4.11927 10.16369,5.09857 16.27302,5.44008" fill="#ffec7f" stroke="#000000" stroke-width="2.5" stroke-linecap="round"/><path d="M313.92776,348.93432l-7.6785,-27.69972c0,0 -1.06924,-22.09642 -1.77718,-36.98072c-1.04973,-22.07057 -8.74508,-84.6006 -8.74508,-84.6006l8.63888,-15.95405" fill="none" stroke-opacity="0.61176" stroke="#000000" stroke-width="2.5" stroke-linecap="round"/><path d="M320.43839,125.6804l-10.09345,2.06675" fill="none" stroke="#000000" stroke-width="2.5" stroke-linecap="round"/><path d="M270.7394,130.60068l-10.26839,-0.8421" fill="none" stroke="#000000" stroke-width="2.5" stroke-linecap="round"/><path d="M271.74072,159.75577l-5.42361,2.99464" fill="none" stroke="#000000" stroke-width="2.5" stroke-linecap="round"/><path d="M317.87623,154.84623l7.6366,2.74283" fill="none" stroke="#000000" stroke-width="2.5" stroke-linecap="round"/><path d="M321.99241,156.73338l-2.87076,5.50954l-11.17303,-3.86435l-11.1131,6.00528l-13.08215,-4.55006l-10.2195,7.55259l-4.34004,-5.60953" fill="none" stroke="#000000" stroke-width="2.5" stroke-linecap="round"/><path d="M256.78846,112.44595c0,0 3.13378,-6.56111 5.16936,-6.56111c2.13494,0 7.3564,6.56111 7.3564,6.56111" fill="none" stroke="#000000" stroke-width="2.5" stroke-linecap="round"/><path d="M306.29502,110.25892c0,0 3.13378,-6.56111 5.16936,-6.56111c2.13493,0 7.35639,6.56111 7.35639,6.56111" fill="none" stroke="#000000" stroke-width="2.5" stroke-linecap="round"/><path d="M319.41725,162.74781l-21.47273,18.4904l-24.25623,-14.11633" fill="none" stroke="#000000" stroke-width="2.5" stroke-linecap="round"/><g stroke="#000000" stroke-width="2.5" stroke-linecap="butt"><path d="M312.81973,206.64513c-0.13146,-1.10359 -0.10968,-1.53676 0.11147,-2.22022c0.02544,-0.07861 0.05213,-0.15604 0.08007,-0.23227c0.00485,-0.01403 0.00978,-0.0279 0.01479,-0.0416c0.09601,-0.26257 0.20968,-0.50966 0.33872,-0.74099c0.37373,-0.68227 0.87251,-1.23788 1.48739,-1.65442c0.6091,-0.4126 0.92394,-0.60856 1.94733,-0.73977c0.11305,-0.01707 0.22654,-0.02997 0.34017,-0.03863c0.85073,-0.08438 1.18167,-0.01287 1.68212,0.19016c0.96765,0.30609 1.84013,0.96095 2.42536,1.98784l0.25878,0.45408l0.15352,-0.49959c0.34716,-1.12981 1.05579,-1.95919 1.93337,-2.46898c0.44412,-0.3073 0.7515,-0.44927 1.60016,-0.55247c0.11279,-0.01632 0.22635,-0.0285 0.3404,-0.0365c1.02737,-0.09517 1.37737,0.0274 2.0618,0.29721c0.69092,0.27239 1.29888,0.70581 1.81241,1.29013c0.1764,0.19762 0.34124,0.41398 0.49221,0.6493c0.00788,0.01228 0.01572,0.02474 0.02352,0.03738c0.0439,0.0683 0.08683,0.13804 0.12879,0.2092c0.36489,0.61877 0.48063,1.03677 0.59305,2.14246c0.00232,0.02281 0.00455,0.04556 0.00671,0.06826c0.11087,0.85843 0.10797,1.74012 -0.04407,2.40236c-0.42072,1.83238 -1.44736,3.30726 -3.94657,5.66955c-1.63902,1.54925 -3.4321,3.81749 -3.53951,4.12011c-0.05831,0.16428 -0.19283,0.17913 -0.28557,0.03152c-0.17082,-0.27192 -2.41546,-2.09445 -4.35294,-3.24891c-2.95429,-1.7603 -4.2779,-2.97575 -5.08815,-4.67224c-0.29282,-0.61313 -0.48798,-1.47297 -0.567,-2.33491c-0.00285,-0.02263 -0.00562,-0.04532 -0.00834,-0.06808z" fill="#ffde00"/><path d="M320.23812,210.39442c-0.13146,-1.10359 -0.10968,-1.53677 0.11146,-2.22023c0.02544,-0.07861 0.05213,-0.15603 0.08008,-0.23226c0.00485,-0.01403 0.00977,-0.02789 0.01478,-0.0416c0.09601,-0.26257 0.20969,-0.50967 0.33873,-0.74101c0.37373,-0.68227 0.87251,-1.23788 1.48739,-1.65441c0.6091,-0.4126 0.92394,-0.60856 1.94733,-0.73977c0.11305,-0.01707 0.22654,-0.02996 0.34018,-0.03863c0.85073,-0.08438 1.18167,-0.01288 1.68212,0.19015c0.96765,0.30609 1.84013,0.96096 2.42536,1.98784l0.25878,0.45407l0.15352,-0.49959c0.34716,-1.12981 1.05579,-1.95919 1.93338,-2.46898c0.44412,-0.3073 0.75149,-0.44927 1.60014,-0.55247c0.11279,-0.01632 0.22635,-0.0285 0.34041,-0.0365c1.02737,-0.09517 1.37737,0.0274 2.0618,0.29721c0.69092,0.27239 1.29888,0.70581 1.81241,1.29013c0.1764,0.19762 0.34125,0.41399 0.49222,0.64931c0.00788,0.01228 0.01571,0.02475 0.02351,0.03738c0.0439,0.0683 0.08684,0.13803 0.1288,0.20919c0.36489,0.61877 0.48062,1.03677 0.59304,2.14246c0.00232,0.02281 0.00456,0.04556 0.00671,0.06826c0.11088,0.85842 0.10797,1.74012 -0.04407,2.40236c-0.42072,1.83238 -1.44736,3.30724 -3.94657,5.66954c-1.63902,1.54926 -3.43211,3.81749 -3.53951,4.12012c-0.05831,0.16428 -0.19283,0.17912 -0.28557,0.03152c-0.17082,-0.27192 -2.41546,-2.09444 -4.35294,-3.2489c-2.95429,-1.76031 -4.2779,-2.97575 -5.08815,-4.67225c-0.29282,-0.61313 -0.48798,-1.47297 -0.567,-2.33491c-0.00285,-0.02263 -0.00562,-0.04531 -0.00834,-0.06807z" fill="#ffce4e"/></g></g></g></svg>