<svg version="1.1" xmlns="http://www.w3.org/2000/svg" xmlns:xlink="http://www.w3.org/1999/xlink" width="34.17311" height="34.17311" viewBox="0,0,34.17311,34.17311"><g transform="translate(-302.91346,-162.91346)"><g data-paper-data="{&quot;isPaintingLayer&quot;:true}" stroke="none" stroke-miterlimit="10" stroke-dasharray="" stroke-dashoffset="0" style="mix-blend-mode: normal"><path d="M309.98313,162.91346h20.03378c3.9166,0 7.06966,3.15307 7.06966,7.06966v20.03379c0,3.91659 -3.15306,7.06966 -7.06966,7.06966h-20.03378c-3.91659,0 -7.06967,-3.15307 -7.06967,-7.06966v-20.03379c0,-3.91659 3.15308,-7.06966 7.06967,-7.06966z" fill="#939393" fill-rule="evenodd" stroke-width="4.43922" stroke-linecap="round" stroke-linejoin="round"/><path d="M317.99795,166.6383c0.09891,-0.0221 0.17046,-0.0221 0.17046,-0.0221l0.04537,0.0224c3.05144,-0.74517 5.95426,0.20502 8.74379,1.42227c3.43146,1.49737 6.80096,3.11696 5.48534,7.64556c-0.41876,1.44144 -1.63369,2.45823 -2.16156,3.73762c-0.20068,0.48638 0.82972,0.64824 1.22433,0.99626c0.84721,0.74718 1.04774,1.01592 1.36352,2.18287c0.91363,3.37628 -0.53132,6.17335 -2.48307,8.8127c-1.19473,0.77215 -2.62693,2.01307 -3.95826,2.50609c-8.06052,2.98502 -20.76222,-1.92724 -19.60512,-11.56977c0.82262,-1.93982 1.81615,-2.8885 2.98685,-4.18177c0.11242,-0.12419 -0.36561,0.01346 -0.49358,-0.09465c-0.32767,-0.27679 -0.59576,-0.62923 -0.80595,-1.00313c-0.59927,-1.06603 -0.85197,-2.05206 -0.83108,-3.27436c0.09205,-5.38474 5.73706,-7.20209 10.14851,-7.20209c0,0 0.07155,0 0.17046,0.0221z" fill="#000000" fill-rule="nonzero" stroke-width="0.5" stroke-linecap="butt" stroke-linejoin="miter"/></g></g></svg>