<svg version="1.1" xmlns="http://www.w3.org/2000/svg" xmlns:xlink="http://www.w3.org/1999/xlink" width="143.77217" height="292.32864" viewBox="0,0,143.77217,292.32864"><defs><linearGradient x1="319.56851" y1="58.42892" x2="319.56851" y2="176.27788" gradientUnits="userSpaceOnUse" id="color-1"><stop offset="0" stop-color="#062be2"/><stop offset="1" stop-color="#04023c"/></linearGradient><linearGradient x1="317.58745" y1="159.4443" x2="317.58745" y2="346.03775" gradientUnits="userSpaceOnUse" id="color-2"><stop offset="0" stop-color="#0d1b5e"/><stop offset="1" stop-color="#000000"/></linearGradient><linearGradient x1="320.63838" y1="149.03719" x2="320.63838" y2="190.336" gradientUnits="userSpaceOnUse" id="color-3"><stop offset="0" stop-color="#060c2b"/><stop offset="1" stop-color="#003fff"/></linearGradient><linearGradient x1="365.1198" y1="152.12375" x2="365.1198" y2="348.25755" gradientUnits="userSpaceOnUse" id="color-4"><stop offset="0" stop-color="#062be2"/><stop offset="1" stop-color="#04023c"/></linearGradient><linearGradient x1="277.59227" y1="148.12408" x2="277.59227" y2="344.25788" gradientUnits="userSpaceOnUse" id="color-5"><stop offset="0" stop-color="#062be2"/><stop offset="1" stop-color="#04023c"/></linearGradient><linearGradient x1="321.43539" y1="189.97944" x2="321.43539" y2="271.00153" gradientUnits="userSpaceOnUse" id="color-6"><stop offset="0" stop-color="#003fff"/><stop offset="1" stop-color="#060c2b"/></linearGradient><linearGradient x1="320.09225" y1="119.10213" x2="320.09225" y2="179.39743" gradientUnits="userSpaceOnUse" id="color-7"><stop offset="0" stop-color="#001883"/><stop offset="1" stop-color="#2245f2"/></linearGradient></defs><g transform="translate(-249.46995,-57.17891)"><g stroke-miterlimit="10"><path d="M381.08879,117.3534c0,32.54309 -26.93027,70.62384 -60.90698,70.62384c-33.97671,0 -62.13357,-38.08075 -62.13357,-70.62384c0,-32.54309 27.54357,-58.92449 61.52027,-58.92449c33.97671,0 61.52027,26.38139 61.52027,58.92449z" fill="url(#color-1)" stroke="#000000" stroke-width="2.5" stroke-linecap="butt"/><path d="M267.07257,342.39912l-2.29087,-147.27579c0,0 -1.88316,-10.96113 1.75336,-20.54338c3.03432,-7.99543 11.12708,-14.87891 15.92717,-15.06323c10.47983,-0.40242 34.81987,1.04162 56.51716,0.20844c11.3189,-0.43465 23.507,2.29164 28.43691,10.43074c5.31993,8.783 2.92825,23.04644 2.92825,23.04644l0.25536,152.83541z" fill="url(#color-2)" stroke="#000000" stroke-width="2.5" stroke-linecap="butt"/><path d="M321.7376,191.3906l1.00033,152.55085" fill="none" stroke-opacity="0.52549" stroke="#ffffff" stroke-width="0.5" stroke-linecap="round"/><path d="M349.74694,231.40394l-25.50851,4.5015l-29.50984,-4.5015" fill="none" stroke-opacity="0.52549" stroke="#ffffff" stroke-width="0.5" stroke-linecap="round"/><path d="M352.74794,244.90844l-30.01,6.50216l-30.51017,-3.001" fill="none" stroke-opacity="0.52549" stroke="#ffffff" stroke-width="0.5" stroke-linecap="round"/><path d="M357.2457,169.68659c0,11.40435 -16.38965,20.64941 -36.60732,20.64941c-20.21767,0 -36.60733,-9.24506 -36.60733,-20.64941c0,-11.40435 16.38966,-20.64941 36.60733,-20.64941c20.21767,0 36.60732,9.24506 36.60732,20.64941z" fill="url(#color-3)" stroke="#000000" stroke-width="2.5" stroke-linecap="butt"/><path d="M344.16365,348.25755c0,0 18.72541,-18.73364 11.68592,-44.57597c-5.41715,-19.88658 -2.97521,-28.63198 -3.43809,-42.20668c-0.86683,-25.42129 -14.16402,-86.71921 -14.16402,-86.71921c0,0 9.86837,-17.59571 19.45093,-17.59571c6.61644,0 14.66796,-25.7718 27.75201,39.28344c13.08405,65.05524 2.49791,151.81413 2.49791,151.81413z" fill="url(#color-4)" stroke="#000000" stroke-width="2.5" stroke-linecap="butt"/><path d="M254.76377,344.25788c0,0 -10.58615,-86.75889 2.49791,-151.81413c13.08405,-65.05523 21.13557,-39.28344 27.75201,-39.28344c9.58256,0 19.45093,17.59571 19.45093,17.59571c0,0 -14.32334,86.91095 -14.81626,101.3668c-1.03665,30.40164 8.90008,72.13507 8.90008,72.13507z" fill="url(#color-5)" stroke="#000000" stroke-width="2.5" stroke-linecap="butt"/><path d="M318.16177,271.00153c0,0 -6.54724,-18.11922 -6.54724,-30.84487c0,-14.13369 6.54724,-50.17722 6.54724,-50.17722h6.54724c0,0 8.18405,38.95163 8.18405,53.6527c0,11.52623 -8.18405,27.36939 -8.18405,27.36939z" fill="url(#color-6)" stroke="#000000" stroke-width="2.5" stroke-linecap="butt"/><path d="M316.34884,179.27637c-25.74385,-1.75405 -46.22474,-22.21804 -50.48755,-45.87633c2.96864,-0.05257 6.5115,-0.41911 10.62944,-1.33422c13.16812,-2.9263 33.21778,-12.9637 43.6299,-12.9637c8.22605,0 21.30044,5.1712 32.32467,7.32345c8.16631,1.5943 15.82916,2.77507 21.87792,3.60009c-2.79462,27.78712 -28.36594,51.26807 -57.97438,49.2507z" fill="url(#color-7)" stroke="#000000" stroke-width="2.5" stroke-linecap="butt"/><path d="M279.24383,122.31534l-12.44337,1.58852" fill="none" stroke="#000000" stroke-width="2.5" stroke-linecap="round"/><path d="M266.0062,117.28504h9.00159" fill="none" stroke="#000000" stroke-width="2.5" stroke-linecap="round"/><path d="M266.27095,108.81296l7.14832,-1.58852" fill="none" stroke="#000000" stroke-width="2.5" stroke-linecap="round"/><path d="M363.96466,108.0187l7.94258,2.38277" fill="none" stroke="#000000" stroke-width="2.5" stroke-linecap="round"/><path d="M366.61219,114.90227l3.17703,0.79426" fill="none" stroke="#000000" stroke-width="2.5" stroke-linecap="round"/><path d="M366.08268,120.46207l3.97129,1.05901" fill="none" stroke="#000000" stroke-width="2.5" stroke-linecap="round"/><path d="M325.4681,173.97598c0,0.59182 -2.00933,1.07158 -4.48798,1.07158c-2.47865,0 -4.48798,-0.47976 -4.48798,-1.07158c0,-0.59182 2.00933,-1.07158 4.48798,-1.07158c2.47865,0 4.48798,0.47976 4.48798,1.07158z" fill="none" stroke="#000000" stroke-width="2.5" stroke-linecap="butt"/></g></g></svg>