<svg version="1.1" xmlns="http://www.w3.org/2000/svg" xmlns:xlink="http://www.w3.org/1999/xlink" width="200.49075" height="323.90128" viewBox="0,0,200.49075,323.90128"><defs><linearGradient x1="315.01407" y1="156.98261" x2="326.42295" y2="335.09501" gradientUnits="userSpaceOnUse" id="color-1"><stop offset="0" stop-color="#2b2b2b"/><stop offset="1" stop-color="#171717"/></linearGradient><linearGradient x1="275.51223" y1="25.73443" x2="275.51223" y2="107.9735" gradientUnits="userSpaceOnUse" id="color-2"><stop offset="0" stop-color="#ffffff"/><stop offset="1" stop-color="#8c8c8c"/></linearGradient><linearGradient x1="342.92396" y1="16.18984" x2="342.92396" y2="100.6528" gradientUnits="userSpaceOnUse" id="color-3"><stop offset="0" stop-color="#ffffff"/><stop offset="1" stop-color="#8c8c8c"/></linearGradient><linearGradient x1="375.29454" y1="96.93038" x2="379.52716" y2="131.82874" gradientUnits="userSpaceOnUse" id="color-4"><stop offset="0" stop-color="#ffffff"/><stop offset="1" stop-color="#ececec"/></linearGradient><linearGradient x1="372.35255" y1="125.66562" x2="369.85935" y2="160.73119" gradientUnits="userSpaceOnUse" id="color-5"><stop offset="0" stop-color="#ffffff"/><stop offset="1" stop-color="#ececec"/></linearGradient><linearGradient x1="246.9614" y1="104.32039" x2="247.21589" y2="139.47357" gradientUnits="userSpaceOnUse" id="color-6"><stop offset="0" stop-color="#ffffff"/><stop offset="1" stop-color="#ececec"/></linearGradient><linearGradient x1="255.11953" y1="134.32136" x2="264.43119" y2="168.21983" gradientUnits="userSpaceOnUse" id="color-7"><stop offset="0" stop-color="#ffffff"/><stop offset="1" stop-color="#ececec"/></linearGradient><linearGradient x1="310.16162" y1="64.69661" x2="316.96535" y2="170.91456" gradientUnits="userSpaceOnUse" id="color-8"><stop offset="0" stop-color="#ffffff"/><stop offset="1" stop-color="#ececec"/></linearGradient><linearGradient x1="246.9614" y1="104.32039" x2="247.21589" y2="139.47357" gradientUnits="userSpaceOnUse" id="color-9"><stop offset="0" stop-color="#ffffff"/><stop offset="1" stop-color="#ececec"/></linearGradient><linearGradient x1="375.29454" y1="96.93038" x2="379.52716" y2="131.82874" gradientUnits="userSpaceOnUse" id="color-10"><stop offset="0" stop-color="#ffffff"/><stop offset="1" stop-color="#ececec"/></linearGradient><linearGradient x1="372.35255" y1="125.66562" x2="369.85935" y2="160.73119" gradientUnits="userSpaceOnUse" id="color-11"><stop offset="0" stop-color="#ffffff"/><stop offset="1" stop-color="#ececec"/></linearGradient><linearGradient x1="255.11953" y1="134.32136" x2="264.43119" y2="168.21983" gradientUnits="userSpaceOnUse" id="color-12"><stop offset="0" stop-color="#ffffff"/><stop offset="1" stop-color="#ececec"/></linearGradient><linearGradient x1="255.43172" y1="134.30137" x2="264.74339" y2="168.19983" gradientUnits="userSpaceOnUse" id="color-13"><stop offset="0" stop-color="#ffffff"/><stop offset="1" stop-color="#ececec"/></linearGradient></defs><g transform="translate(-214.24778,-13.06129)"><g stroke-miterlimit="10"><path d="M279.8673,335.66705c0,0 -4.91208,-62.64038 -6.98942,-89.1312c-1.67113,-21.31077 -8.2919,-62.35506 -8.2919,-62.35506c0,0 8.65449,-21.47549 18.29438,-22.62502c9.57319,-1.14157 32.28979,-3.45101 52.10997,-5.81452c21.49732,-2.56349 31.50378,16.70285 31.50378,16.70285l8.4308,159.54415z" fill="url(#color-1)" stroke="#000000" stroke-width="2.5" stroke-linecap="butt"/><path d="M333.22445,165.80529c0.54529,8.51299 -6.89967,15.91933 -16.62881,16.54252c-9.72913,0.62319 -18.0582,-5.77275 -18.60349,-14.28574c-0.54529,-8.51299 6.89967,-15.91933 16.62881,-16.54252c9.72913,-0.62319 18.0582,5.77275 18.60349,14.28574z" fill="#ffffff" stroke="#000000" stroke-width="2.5" stroke-linecap="butt"/><path d="M365.02307,175.22151c0.54529,8.51299 2.37312,16.19269 -1.31334,16.42882c-3.68646,0.23613 -11.49122,-7.06071 -12.03651,-15.57371c-0.54529,-8.51299 -1.99297,-14.7715 1.69349,-15.00764c3.68646,-0.23613 11.11106,5.63953 11.65636,14.15252z" fill="#ffffff" stroke="#000000" stroke-width="2.5" stroke-linecap="butt"/><path d="M276.54958,167.77831c3.68646,-0.23613 3.04911,6.15593 3.59441,14.66892c0.54529,8.51299 -6.2647,16.74598 -9.95117,16.98211c-3.68646,0.23613 -2.85339,-7.614 -3.39868,-16.127c-0.54529,-8.51299 6.06898,-15.28791 9.75544,-15.52404z" fill="#ffffff" stroke="#000000" stroke-width="2.5" stroke-linecap="butt"/><path d="M262.21723,107.9735l-22.69835,-82.23907l71.98669,47.66591z" fill="url(#color-2)" stroke="#000000" stroke-width="2.5" stroke-linecap="butt"/><path d="M310.2655,72.65066l65.31692,-56.46081l-12.02036,84.46295z" fill="url(#color-3)" stroke="#000000" stroke-width="2.5" stroke-linecap="butt"/><path d="M361.00226,98.66382c5.9875,0.748 8.11583,3.97297 13.73436,6.41054c8.21253,3.56295 12.81036,11.8792 15.32849,20.95487c0.39703,1.43098 0.55806,7.68922 0.55806,7.68922c0,0 -4.31659,-1.03453 -7.08722,-1.08869c-6.58167,-0.12865 -8.49845,-1.77878 -15.0444,-0.98485c-1.53496,0.18616 -7.7482,1.49432 -8.94556,0.80488c-1.41684,-0.81581 -1.64261,-6.23525 -1.82333,-7.71543c-0.94268,-7.72098 -0.64953,-18.35694 2.68915,-25.57223z" fill="url(#color-4)" stroke="#000000" stroke-width="2.5" stroke-linecap="round"/><path d="M357.99178,124.64456c5.73535,1.87495 12.49444,3.60125 17.5457,7.06453c7.38337,5.06223 9.6059,15.64765 10.34895,25.03681c0.11716,1.48041 -0.91698,7.65471 -0.91698,7.65471c0,0 -3.33364,-3.38347 -6.04322,-3.96445c-6.43663,-1.38013 -13.28804,-1.52011 -19.86536,-1.98776c-1.54231,-0.10965 -7.89099,-0.00912 -8.93508,-0.91404c-1.23546,-1.07078 -0.42468,-6.43398 -0.32011,-7.92148c0.54547,-7.75918 2.85945,-18.14448 7.51153,-24.59161z" fill="url(#color-5)" stroke="#000000" stroke-width="2.5" stroke-linecap="round"/><path d="M262.00723,104.63508c4.23195,6.73035 5.87971,17.24198 5.92982,25.02015c0.00961,1.49114 0.47711,6.89509 -0.82405,7.885c-1.09961,0.83657 -7.42899,0.33183 -8.97516,0.34302c-6.59374,0.04774 -6.07466,2.86233 -12.58614,3.82964c-2.74109,0.40721 -10.92999,0.45121 -10.92999,0.45121c0,0 -0.63875,-6.22764 -0.42753,-7.69757c1.33963,-9.32277 1.51295,-19.73618 9.20379,-24.31782c5.26161,-3.13449 12.11694,-4.42673 17.96007,-5.93254z" fill="url(#color-6)" stroke="#000000" stroke-width="2.5" stroke-linecap="round"/><path d="M269.73755,130.74521c5.82451,5.4113 10.12742,15.14241 12.18177,22.64453c0.39384,1.43822 2.23918,6.53881 1.23732,7.83079c-0.84668,1.09187 -7.09211,2.2365 -8.58309,2.64606c-6.35839,1.74661 -13.04975,3.22556 -19.09149,5.83943c-2.54335,1.10034 -3.07841,6.36603 -3.07841,6.36603c0,0 -2.22321,-5.85226 -2.39822,-7.32694c-1.10997,-9.35289 -3.07482,-21.4635 3.17428,-27.87358c4.27526,-4.38541 10.56544,-7.40188 15.82258,-10.36365z" fill="url(#color-7)" stroke="#000000" stroke-width="2.5" stroke-linecap="round"/><path d="M368.24434,116.53226c-0.11601,28.55397 -24.48799,54.60563 -54.74037,54.48272c-30.25239,-0.12291 -54.92924,-26.37385 -54.81323,-54.92781c0.11601,-28.55396 24.73448,-51.60191 54.98687,-51.47898c30.25239,0.12291 54.68276,23.37011 54.56675,51.92407z" fill="url(#color-8)" stroke="#000000" stroke-width="2.5" stroke-linecap="butt"/><path d="M258.13785,137.88324c-6.59374,0.04774 -6.07466,2.86233 -12.58614,3.82964c-2.74109,0.40721 -10.92999,0.45121 -10.92999,0.45121c0,0 -0.63875,-6.22764 -0.42753,-7.69757c1.33963,-9.32277 1.51295,-19.73618 9.20379,-24.31782c4.89199,-2.91429 11.16165,-4.23607 16.71458,-5.61764c5.65695,-22.96528 27.52369,-40.0287 53.56507,-39.92288c30.25239,0.12291 54.68276,23.37011 54.56675,51.92407h-0.00002c-0.11601,28.55397 -24.48799,54.60563 -54.74037,54.48272c-22.17087,-0.09008 -41.34717,-14.21322 -49.96474,-32.99161c-2.12289,0.01223 -4.527,-0.14644 -5.40137,-0.14011z" fill="url(#color-9)" stroke="#000000" stroke-width="2.5" stroke-linecap="round"/><path d="M374.73663,105.07436c8.21253,3.56295 12.81036,11.8792 15.32849,20.95487c0.39703,1.43098 0.55806,7.68922 0.55806,7.68922c0,0 -4.31659,-1.03453 -7.08722,-1.08869c-6.58167,-0.12865 -8.49845,-1.77878 -15.0444,-0.98485c-0.50974,0.06182 -1.53541,0.24737 -2.72198,0.44242c-6.93259,21.80248 -27.65296,39.02764 -52.26561,38.92764c-22.17087,-0.09008 -41.34717,-14.21322 -49.96474,-32.99161c-2.12289,0.01223 -4.527,-0.14644 -5.40137,-0.14011c-6.59374,0.04774 -6.07466,2.86233 -12.58614,3.82964c-2.74109,0.40721 -10.92999,0.45121 -10.92999,0.45121c0,0 -0.63875,-6.22764 -0.42753,-7.69757c1.33963,-9.32277 1.51295,-19.73618 9.20379,-24.31782c4.89199,-2.91429 11.16165,-4.23607 16.71458,-5.61764c5.65695,-22.96528 27.52369,-40.0287 53.56507,-39.92288c23.79309,0.09666 43.9849,14.49711 51.46625,34.53329c4.89628,0.55432 5.23193,4.04096 9.59277,5.93289z" fill="url(#color-10)" stroke="#000000" stroke-width="2.5" stroke-linecap="round"/><path d="M375.53748,131.70908c7.38337,5.06223 9.6059,15.64765 10.34895,25.03681c0.11716,1.48041 -0.91698,7.65471 -0.91698,7.65471c0,0 -3.33364,-3.38347 -6.04322,-3.96445c-6.43663,-1.38013 -13.28804,-1.52011 -19.86536,-1.98776c-1.54231,-0.10965 -7.89099,-0.00912 -8.93508,-0.91404c-0.16869,-0.14622 -0.29924,-0.37245 -0.39864,-0.65792c-9.63845,8.71447 -22.30882,14.19508 -36.22317,14.13854c-22.17087,-0.09008 -41.34717,-14.21322 -49.96474,-32.99161c-2.12289,0.01223 -4.527,-0.14644 -5.40137,-0.14011c-6.59374,0.04774 -6.07466,2.86233 -12.58614,3.82964c-2.74109,0.40721 -10.92999,0.45121 -10.92999,0.45121c0,0 -0.63875,-6.22764 -0.42753,-7.69757c1.33963,-9.32277 1.51295,-19.73618 9.20379,-24.31782c4.89199,-2.91429 11.16165,-4.23607 16.71458,-5.61764c5.65695,-22.96528 27.52369,-40.0287 53.56507,-39.92288c23.79309,0.09666 43.9849,14.49711 51.46625,34.53329c4.89628,0.55432 5.23193,4.04096 9.59277,5.93289c8.21253,3.56295 12.81036,11.8792 15.32849,20.95487c0.39703,1.43098 0.55806,7.68922 0.55806,7.68922c0,0 -4.31659,-1.03453 -7.08722,-1.08869c-4.65989,-0.09109 -4.56963,-2.35022 -9.26689,-1.73436c0.43317,0.26035 0.85647,0.53124 1.26841,0.81367z" fill="url(#color-11)" stroke="#000000" stroke-width="2.5" stroke-linecap="round"/><path d="M274.57356,163.86659c-6.35839,1.74661 -13.04975,3.22556 -19.09149,5.83943c-2.54335,1.10034 -3.07841,6.36603 -3.07841,6.36603c0,0 -2.22321,-5.85226 -2.39822,-7.32694c-1.10997,-9.35289 -3.07482,-21.4635 3.17428,-27.87358c1.04239,-1.06925 2.20457,-2.05712 3.44236,-2.98266c-6.12238,0.00414 -5.05649,2.93062 -11.07039,3.82402c-2.74109,0.40721 -10.92999,0.45121 -10.92999,0.45121c0,0 -0.63875,-6.22764 -0.42753,-7.69757c1.33963,-9.32277 1.51295,-19.73618 9.20379,-24.31782c4.89199,-2.91429 11.16165,-4.23607 16.71458,-5.61764c5.65695,-22.96528 27.52369,-40.0287 53.56507,-39.92288c23.79309,0.09666 43.9849,14.49711 51.46625,34.53329c4.89628,0.55432 5.23193,4.04096 9.59277,5.93289c8.21253,3.56295 12.81036,11.8792 15.32849,20.95487c0.39703,1.43098 0.55806,7.68922 0.55806,7.68922c0,0 -4.31659,-1.03453 -7.08722,-1.08869c-4.65989,-0.09109 -4.56963,-2.35022 -9.26689,-1.73436c0.43317,0.26035 0.85647,0.53124 1.26841,0.81367c7.38337,5.06223 9.6059,15.64765 10.34895,25.03681c0.11716,1.48041 -0.91698,7.65471 -0.91698,7.65471c0,0 -3.33364,-3.38347 -6.04322,-3.96445c-6.43663,-1.38013 -13.28804,-1.52011 -19.86536,-1.98776c-1.54231,-0.10965 -7.89099,-0.00912 -8.93508,-0.91404c-0.16869,-0.14622 -0.29924,-0.37245 -0.39864,-0.65792c-9.63845,8.71447 -22.30882,14.19508 -36.22317,14.13854c-11.23301,-0.04564 -21.69732,-3.69357 -30.40912,-9.72413c-1.05051,1.07031 -7.06226,2.17497 -8.52128,2.57576z" fill="url(#color-12)" stroke="#000000" stroke-width="2.5" stroke-linecap="round"/><path d="M274.88576,163.8466c-6.35839,1.74661 -13.04975,3.22556 -19.09149,5.83943c-2.54334,1.10034 -3.0784,6.36603 -3.0784,6.36603c0,0 -2.22321,-5.85226 -2.39822,-7.32694c-1.10997,-9.35289 -3.07483,-21.4635 3.17428,-27.87358c1.04239,-1.06925 2.20457,-2.05712 3.44235,-2.98266c-6.12238,0.00414 -5.05649,2.93062 -11.07038,3.82402c-2.74109,0.40721 -10.92999,0.45121 -10.92999,0.45121c0,0 -0.63875,-6.22764 -0.42753,-7.69757c1.33963,-9.32277 1.51295,-19.73618 9.20379,-24.31782c4.89199,-2.91429 11.16164,-4.23607 16.71457,-5.61764c5.65695,-22.96528 27.52369,-40.0287 53.56507,-39.92288c23.79309,0.09666 43.98491,14.4971 51.46625,34.53329c4.89628,0.55432 5.23193,4.04096 9.59277,5.93289c8.21253,3.56295 12.81036,11.8792 15.32849,20.95487c0.39703,1.43098 0.55806,7.68922 0.55806,7.68922c0,0 -4.31659,-1.03453 -7.08722,-1.08869c-4.65989,-0.09109 -4.56963,-2.35022 -9.26688,-1.73436c0.43317,0.26035 0.85647,0.53124 1.26841,0.81367c7.38337,5.06223 9.6059,15.64765 10.34895,25.03681c0.11716,1.48041 -0.91698,7.65471 -0.91698,7.65471c0,0 -3.33364,-3.38347 -6.04322,-3.96445c-6.43663,-1.38013 -13.28804,-1.52011 -19.86536,-1.98776c-1.54231,-0.10965 -7.89099,-0.00912 -8.93508,-0.91404c-0.16869,-0.14622 -0.29924,-0.37245 -0.39864,-0.65792c-9.63845,8.71447 -22.30883,14.19508 -36.22318,14.13854c-11.23301,-0.04564 -21.69731,-3.69357 -30.40912,-9.72413c-1.05051,1.07031 -7.06226,2.17497 -8.52128,2.57576z" fill="url(#color-13)" stroke="#000000" stroke-width="2.5" stroke-linecap="round"/><path d="M363.94432,94.18855c-0.35146,-5.4869 8.19047,-10.2698 12.55927,-11.47619c11.84734,-3.2715 27.35895,-0.63431 36.98495,7.33154" fill="none" stroke="#000000" stroke-width="2.5" stroke-linecap="round"/><path d="M364.16429,97.62266c9.64343,-7.36101 34.34399,1.19554 41.36003,9.56999" fill="none" stroke="#000000" stroke-width="2.5" stroke-linecap="round"/><path d="M215.49779,92.2396c2.76141,-2.06235 5.67255,-5.17376 9.08844,-6.05211c10.10028,-2.59718 21.59344,4.71207 29.77469,9.60071c2.88164,1.7219 6.799,3.73986 8.84514,6.42045" fill="none" stroke="#000000" stroke-width="2.5" stroke-linecap="round"/><path d="M227.30879,108.48574c1.02962,-1.82291 2.27822,-4.42143 4.07354,-5.59913c2.14685,-1.40829 6.43264,-1.00222 8.88504,-0.87764c6.58867,0.33471 13.41295,0.15325 19.87677,1.33622" fill="none" stroke="#000000" stroke-width="2.5" stroke-linecap="round"/><path d="M326.88468,114.06229c0.17316,2.7033 -6.32529,5.32 -14.5147,5.84457c-8.18942,0.52457 -14.9686,-1.24165 -15.14176,-3.94495c-0.17316,-2.7033 6.32529,-5.32 14.5147,-5.84457c8.18942,-0.52457 14.9686,1.24165 15.14176,3.94495z" fill-opacity="0.18431" fill="#ff0505" stroke="none" stroke-width="0" stroke-linecap="butt"/><path d="M282.25703,144.47717l4.48069,-1.86528" fill="none" stroke="#000000" stroke-width="2.5" stroke-linecap="round"/><path d="M341.87524,142.3575l-28.06431,26.65998l-28.96189,-24.50462l14.38662,8.49587l13.23725,-6.1428l17.22881,2.2545l14.77819,-8.56616" fill="none" stroke="#000000" stroke-width="2.5" stroke-linecap="round"/><path d="M346.89516,139.86673l-3.77063,-3.0287" fill="none" stroke="#000000" stroke-width="2.5" stroke-linecap="round"/><path d="M283.02227,116.5818l3.27258,-11.24955l4.74105,11.67581" fill="none" stroke="#000000" stroke-width="2.5" stroke-linecap="round"/><path d="M331.17924,113.90858l3.21265,-12.18527l4.68112,10.74007" fill="none" stroke="#000000" stroke-width="2.5" stroke-linecap="round"/></g></g></svg>