<svg version="1.1" xmlns="http://www.w3.org/2000/svg" xmlns:xlink="http://www.w3.org/1999/xlink" width="173.86085" height="370.08746" viewBox="0,0,173.86085,370.08746"><defs><radialGradient cx="322.72231" cy="73.86349" r="5.70087" gradientUnits="userSpaceOnUse" id="color-1"><stop offset="0" stop-color="#ffffff"/><stop offset="1" stop-color="#1a1a1a"/></radialGradient><radialGradient cx="355.85791" cy="81.86633" r="6.07229" gradientUnits="userSpaceOnUse" id="color-2"><stop offset="0" stop-color="#ffffff"/><stop offset="1" stop-color="#1a1a1a"/></radialGradient></defs><g transform="translate(-235.31462,-8.70896)"><g data-paper-data="{&quot;isPaintingLayer&quot;:true}" fill-rule="nonzero" stroke-linejoin="miter" stroke-miterlimit="10" stroke-dasharray="" stroke-dashoffset="0" style="mix-blend-mode: normal"><path d="M302.29445,230.98765c5.84762,0.00049 13.80256,-1.35152 19.71349,-2.36914c6.44496,-1.10955 15.07543,0.37661 21.63598,0.5405c3.85377,0.09629 15.61962,1.28753 15.61962,1.28753l2.10696,6.6522l6.0741,21.2939l0.17671,24.41286c0,0 1.56471,30.97291 -3.57395,46.37494c-2.24708,6.73523 5.8678,15.12173 -3.28948,19.04461c-3.24269,1.38911 -11.47968,10.53876 -15.02788,10.45013c-5.14738,-0.1286 -11.18138,-6.90849 -17.43662,-8.52708c-7.9647,-2.06094 -24.6732,1.29927 -24.6732,1.29927l-8.23235,-8.16296l2.47998,-22.23568c0,0 1.25709,-33.17249 2.96501,-54.55246c0.56124,-7.02532 -3.38559,-30.70274 0.01674,-35.54356z" fill="#3c2c1f" stroke="#000000" stroke-width="2" stroke-linecap="round"/><path d="M329.33178,348.96415l4.15805,-102.61607" fill="none" stroke="#000000" stroke-width="2" stroke-linecap="round"/><path d="M330.93583,356.64555c-0.38949,11.59426 -1.38135,21.42195 -12.46171,21.14516c-11.08035,-0.27681 -27.66379,-22.14757 -27.66379,-22.14757c0,0 9.68764,-20.7689 20.768,-20.49207c11.08035,0.27681 19.747,9.9002 19.3575,21.4945z" fill="#000000" stroke="#000000" stroke-width="2" stroke-linecap="butt"/><path d="M370.64108,354.15169c-0.3895,11.59429 -3.79612,21.8072 -14.87647,21.53038c-11.08033,-0.27681 -25.63853,-10.93852 -25.24905,-22.5328c0.3895,-11.59429 9.68763,-20.76889 20.768,-20.49207c11.08035,0.27681 19.747,9.90021 19.3575,21.4945z" fill="#000000" stroke="#000000" stroke-width="2" stroke-linecap="butt"/><path d="M316.91465,222.26783c-7.67688,4.41038 -27.79715,-0.02676 -27.79715,-0.02676l-52.58575,-58.95315l26.20156,-47.62719l21.1597,-2.48703l0.41187,7.62127l-13.46486,11.35989l-8.29909,43.34953c0,0 27.93071,20.62269 43.83073,17.17699c8.21921,-1.78121 16.23251,-6.72956 24.87946,-4.79896c25.63643,5.72381 2.06264,30.49963 -13.10177,34.63652z" fill="#feed00" stroke="#000000" stroke-width="2" stroke-linecap="round"/><path d="M356.56024,209.09436l14.32242,-13.78188l15.03558,26.26055l-2.86826,7.06476l-2.43867,-2.11236l0.47267,5.83794l-3.62663,9.74521l-5.19931,-5.51086l-7.9966,5.65375l-5.1494,-14.45526c0,0 -5.35184,4.00923 -8.816,-3.50843c-3.18605,-6.91422 6.05594,-15.50554 6.05594,-15.50554z" fill="#feed00" stroke="#000000" stroke-width="2" stroke-linecap="round"/><path d="M376.44739,216.22471l-2.60481,4.41761l-4.33015,-3.82903l-3.86097,-3.11093l4.26078,-7.73471l7.05372,-3.87879l-0.51858,14.13585z" fill="#ffa600" stroke="none" stroke-width="2" stroke-linecap="butt"/><path d="M357.05584,222.26038c0,0 -1.87587,3.90909 -3.62073,2.85963c-1.74484,-1.04949 -2.95276,-4.03134 -2.69795,-6.66014c0.2548,-2.62881 1.87587,-3.90909 3.62072,-2.85964c1.74484,1.04949 2.69796,6.66013 2.69796,6.66013z" fill="#ffa600" stroke="none" stroke-width="2" stroke-linecap="butt"/><path d="M369.3438,237.77815l-3.57509,2.81992l-2.66461,-6.57291l3.57508,-2.81992z" fill="#ffa600" stroke="none" stroke-width="2" stroke-linecap="butt"/><path d="M379.09232,235.51459l-3.01604,3.089l-2.11788,-6.17689l3.01604,-3.089z" fill="#ffa600" stroke="none" stroke-width="2" stroke-linecap="butt"/><path d="M384.95686,221.57899l-2.1621,3.33395l-1.31318,-5.42421l2.16211,-3.33396z" fill="#ffa600" stroke="none" stroke-width="2" stroke-linecap="butt"/><path d="M292.08892,218.42113c3.4001,-0.64945 9.76262,7.3805 7.03961,14.67121c-2.96068,7.92702 -7.23133,3.31657 -8.55119,4.61495c-0.25417,0.25001 2.5868,12.7856 -0.15421,15.61168c-5.06572,5.22297 -8.33128,-4.61346 -8.33128,-4.61346l-4.81922,6.14914l-4.24561,-9.24366l-3.94248,-6.43539l1.74222,2.97526l-7.34936,-7.23232l17.83751,-27.40277c0,0 7.58992,7.64109 10.58696,11.24266z" fill="#feed00" stroke="#000000" stroke-width="2" stroke-linecap="round"/><path d="M275.69773,215.03767l7.27686,2.96574l0.17356,6.50001l-3.64259,3.58899l-4.06306,4.36377l-2.8814,-4.06806l3.13667,-13.35047z" fill="#ffa600" stroke="none" stroke-width="2" stroke-linecap="butt"/><path d="M294.51836,224.95735c1.66933,-1.26701 3.36697,-0.19814 3.79177,2.38739c0.42478,2.58552 -0.58414,5.70861 -2.25349,6.97559c-1.66933,1.26701 -3.36698,0.19815 -3.79177,-2.38737c-0.42478,-2.58552 0.58412,-5.70861 2.25349,-6.9756z" fill="#ffa600" stroke="none" stroke-width="2" stroke-linecap="butt"/><path d="M287.29676,242.62601c0,0 3.32461,-0.1974 3.74372,2.35361c0.41911,2.55103 -0.57748,5.63334 -2.22595,6.88449c-1.64849,1.25115 -3.74373,-2.35361 -3.74373,-2.35361z" fill="#ffa600" stroke="none" stroke-width="2" stroke-linecap="butt"/><path d="M272.88935,241.51378l7.23787,3.25422l-1.70726,6.42061l-3.20452,-2.69268z" fill="#ffa600" stroke="none" stroke-width="2" stroke-linecap="butt"/><path d="M265.39001,229.23357l2.37006,3.04521l-0.95483,5.56872l-2.37005,-3.0452z" fill="#ffa600" stroke="none" stroke-width="2" stroke-linecap="butt"/><path d="M297.55159,195.87853c-1.42806,7.19507 -9.69772,27.41593 -9.69772,27.41593l-24.96802,-5.08893l8.24832,-24.62011l16.57505,-62.39069c0,0 5.86173,-9.84857 7.5821,-15.25048l1.17747,-0.02502c13.13748,2.09145 25.09122,7.8915 38.89098,5.2667c5.52286,-1.05047 9.52586,-3.47863 13.42075,-8.03381c0.89051,-1.04148 3.48318,-3.57296 4.96824,-2.5944c3.34234,2.20244 7.45429,15.07033 7.45429,15.07033l16.91438,49.80412l5.31503,17.74627l-18.39371,19.30453l-5.47672,3.60675l-0.10135,-26.57654l-1.99847,27.88814l1.01935,15.67542c0,0 -10.26177,4.835 -13.13866,5.37332c-11.63719,2.17749 -23.77264,0.42765 -35.39925,2.64674c-3.77902,0.72128 -9.24372,5.05163 -12.68759,3.23295c-1.83546,-0.96932 -5.12981,-7.72514 -5.1934,-9.67615c-0.28001,-8.58923 -1.79211,-18.37691 -0.55821,-26.8912" fill="#fffe8a" stroke="#000000" stroke-width="2" stroke-linecap="round"/><path d="M311.61187,162.50483c1.25929,0.49494 4.68893,-0.0101 5.22642,1.67657c1.80265,5.65686 -2.03488,11.07761 -6.92202,10.23519c-3.25431,-0.56096 2.05667,-12.72612 2.05667,-12.72612c0,0 -0.54204,-26.53866 1.55294,-39.54354" fill="#ffaf36" stroke="#000000" stroke-width="2" stroke-linecap="round"/><path d="M338.38285,161.47563c9.20329,-12.56299 9.00265,19.54137 -1.0351,11.15929c-5.43472,-4.53828 0.96162,-9.45431 1.37503,-12.29859c1.95125,-13.42549 -3.50874,-27.32639 -0.35058,-41.01338" fill="#ffaf36" stroke="#000000" stroke-width="2" stroke-linecap="round"/><path d="M300.75029,198.60105c3.43997,-3.38974 7.87285,-3.08536 12.0577,-4.09575c13.49758,-3.25888 28.69061,-3.22258 42.30696,-1.63474" fill="none" stroke="#000000" stroke-width="2" stroke-linecap="round"/><path d="M353.87284,228.43291c-0.42922,-9.93051 3.28613,-31.18521 3.28613,-31.18521" fill="none" stroke="#000000" stroke-width="2" stroke-linecap="round"/><path d="M301.40594,203.32045c0.30998,9.50952 -3.43956,20.1586 -3.33194,29.66074" fill="none" stroke="#000000" stroke-width="2" stroke-linecap="round"/><path d="M279.43951,222.02718l16.17317,-43.71304l-10.43261,42.78718z" fill="#fce541" stroke="#fcec41" stroke-width="2" stroke-linecap="round"/><path d="M277.13552,216.11949l16.17317,-43.71304l-10.4326,42.78718z" fill="#fce541" stroke="#fcec41" stroke-width="2" stroke-linecap="round"/><path d="M363.80266,205.30644l-3.84309,-34.30228l13.93545,27.25917z" fill="#fce541" stroke="#fcec41" stroke-width="2" stroke-linecap="round"/><path d="M305.53651,107.21998c14.23781,-1.00359 28.08707,-2.12384 42.26827,0.4864c3.02428,0.55666 13.55226,2.79785 12.2547,7.41156c-1.76351,6.27047 -8.36482,8.93547 -14.30528,9.72453c-10.70922,1.4225 -35.46259,-0.32483 -44.29531,-6.77906c-6.28624,-4.59346 -3.76151,-11.8779 4.24358,-11.04534z" fill="#fffe8a" stroke="#000000" stroke-width="2" stroke-linecap="round"/><path d="M327.90663,47.23339l-21.77057,30.41449l-7.40666,13.35121l0.20136,-2.21621l1.80568,-17.68362l6.75164,-43.97747l3.86382,-17.18308l1.91041,0.50035l9.33428,19.94817l6.11826,16.76784z" fill="#feed00" stroke="#000000" stroke-width="2" stroke-linecap="butt"/><path d="M322.76324,48.03166l-13.61432,22.14396l-4.5342,9.48746l0.06304,-1.46333l0.63656,-11.69784l3.09973,-29.33665l2.03335,-11.59552l1.29766,0.11825l6.9091,11.96244l4.64863,10.24266z" fill="#ffa700" stroke="none" stroke-width="2" stroke-linecap="butt"/><path d="M362.97268,55.26362l10.5775,-11.49657c0,0 9.48701,-8.8954 14.29126,-13.03352c0.93494,-0.80534 1.43595,-1.80543 1.75092,0.1979c0.49151,3.12623 -2.42169,14.95386 -2.42169,14.95386l-8.80403,37.28984l-4.29542,14.70985l-0.55905,1.83569c0,0 -1.6694,-11.63817 -1.77705,-12.99805c-0.97946,-12.37402 -8.11677,-31.14335 -8.11677,-31.14335z" fill="#feed00" stroke="#000000" stroke-width="2" stroke-linecap="butt"/><path d="M367.22648,57.5483l7.21827,-6.73742l9.65959,-7.40526l1.11668,0.31171l-2.11107,9.91145l-7.03944,24.4358c0,0 -2.2614,6.35135 -3.30488,9.55596c-0.13109,0.40258 -0.17825,1.11961 -0.4272,1.19023c-0.5996,0.17 -0.6387,-8.07373 -0.6572,-9.00824c-0.16839,-8.50365 -4.05201,-21.9745 -4.05201,-21.9745z" fill="#ffa700" stroke="none" stroke-width="2" stroke-linecap="butt"/><path d="M343.52133,47.721l27.93819,14.12818c0,0 2.83766,14.58414 2.81049,23.29536c-0.00835,2.67546 1.02015,7.87713 1.02015,7.87713c0,0 -15.71329,36.47467 -36.93214,33.72942c-17.77175,-2.29924 -43.62737,-28.14375 -43.62737,-28.14375l8.72613,-31.00977l4.21584,-11.11139l36.12872,-8.41641z" fill="#feed00" stroke="#000000" stroke-width="2" stroke-linecap="butt"/><path d="M370.85379,96.43013c4.07928,1.37825 8.27975,13.1218 8.27975,13.1218l-8.20569,1.71187l0.77936,2.71844l-0.93179,8.41947c0,0 -11.5304,0.67669 -13.74799,-2.87275" fill="#feed00" stroke="#000000" stroke-width="2" stroke-linecap="round"/><path d="M299.58504,108.65773l-13.5571,-3.66957l2.98499,-7.92751l1.92667,-2.07007l-6.53889,-5.24469l13.32731,-7.94472" fill="#feed00" stroke="#000000" stroke-width="2" stroke-linecap="round"/><path d="M297.85693,78.21703l-31.52646,-25.4429" fill="none" stroke="#000000" stroke-width="2" stroke-linecap="round"/><path d="M297.91211,79.49551l-30.21574,-11.76362" fill="none" stroke="#000000" stroke-width="2" stroke-linecap="round"/><path d="M296.97549,79.63259l-26.70437,-3.14774" fill="none" stroke="#000000" stroke-width="2" stroke-linecap="round"/><path d="M374.25118,95.07513l33.92429,-11.03096" fill="none" stroke="#000000" stroke-width="2" stroke-linecap="round"/><path d="M371.48237,95.31548c12.48506,-5.06043 33.42244,4.18227 33.42244,4.18227" fill="none" stroke="#000000" stroke-width="2" stroke-linecap="round"/><path d="M399.9563,108.04206l-25.38288,-10.53999" fill="none" stroke="#000000" stroke-width="2" stroke-linecap="round"/><path d="M328.62748,95.36872c3.61761,0.86679 7.48278,1.54483 10.96695,2.8532c0.4422,0.16605 1.27121,0.15792 1.2692,0.6303c-0.00265,0.61876 -7.36481,2.73606 -8.0977,2.50177c-1.64803,-0.52683 -3.38993,-4.41729 -3.7319,-5.88785z" fill="#000000" stroke="#000000" stroke-width="2" stroke-linecap="round"/><path d="M333.9128,77.44743c-1.64925,6.88332 -8.48171,11.1466 -15.26073,9.52237c-6.77903,-1.62426 -9.28826,-15.40432 -9.28826,-15.40432c0,0 8.48169,-11.14659 15.2607,-9.52235c6.77903,1.62426 10.93754,8.52098 9.28829,15.4043z" fill="#ffffff" stroke="#000000" stroke-width="2" stroke-linecap="butt"/><path d="M368.11421,85.20763c-1.64925,6.88332 -8.48169,11.1466 -15.26071,9.52237c-6.77903,-1.62426 -10.9375,-8.52099 -9.28827,-15.4043c1.64925,-6.88332 8.48169,-11.1466 15.2607,-9.52237c6.77903,1.62426 10.9375,8.52099 9.28826,15.40431z" fill="#ffffff" stroke="#000000" stroke-width="2" stroke-linecap="butt"/><path d="M327.73088,74.38877c-0.67417,2.81377 -4.04452,6.49682 -6.75006,5.84857c-2.70554,-0.64825 -3.72176,-5.38232 -3.04759,-8.1961c0.67417,-2.81377 3.41399,-4.56927 6.11953,-3.92101c2.70555,0.64825 4.35229,3.45476 3.67812,6.26854z" fill="url(#color-1)" stroke="#000000" stroke-width="2" stroke-linecap="butt"/><path d="M360.87859,82.27221c-0.69596,2.90467 -3.76608,7.01 -6.55903,6.34082c-2.79296,-0.66918 -4.25114,-5.8595 -3.55517,-8.76419c0.69596,-2.90467 3.52429,-4.7169 6.31725,-4.04769c2.79296,0.66918 4.49291,3.56638 3.79695,6.47107z" fill="url(#color-2)" stroke="#000000" stroke-width="2" stroke-linecap="butt"/><path d="M324.89838,49.34876l9.15376,-4.10629l4.03239,-0.85909l-4.09236,-3.26742l13.8536,1.23195l4.13534,0.98617l-4.83594,-4.77996l5.002,2.5273l8.47115,12.95143" fill="#feed00" stroke="#000000" stroke-width="2" stroke-linecap="butt"/><path d="M307.81014,62.49035l-2.93172,-5.76011l-4.86449,-4.33342l7.99015,-1.641l8.35518,-1.28083" fill="#feed00" stroke="#000000" stroke-width="2" stroke-linecap="butt"/><path d="M340.04975,118.14083c-2.51212,-1.18432 -4.0154,-3.92842 -6.257,-5.61152" fill="none" stroke="#fcec41" stroke-width="2" stroke-linecap="round"/><path d="M323.10685,128.5317l-0.99144,9.533" fill="none" stroke="#fcec41" stroke-width="2" stroke-linecap="round"/><path d="M324.38746,130.3503l-0.50781,4.88276" fill="none" stroke="#fcec41" stroke-width="2" stroke-linecap="round"/><path d="M330.31981,130.70333l0.31063,3.79274" fill="none" stroke="#fcec41" stroke-width="2" stroke-linecap="round"/><path d="M333.70327,74.55528c0,8.01282 -5.34678,14.50849 -11.94236,14.50849c-6.59558,0 -11.94236,-6.49567 -11.94236,-14.50849c0,-8.01282 5.34678,-14.50849 11.94236,-14.50849c6.59558,0 11.94236,6.49567 11.94236,14.50849z" fill="#000000" stroke="none" stroke-width="NaN" stroke-linecap="butt"/><path d="M365.87856,82.94454c0,9.04849 -4.86071,16.38373 -10.85669,16.38373c-5.99599,0 -10.85669,-7.33525 -10.85669,-16.38373c0,-9.04849 4.86071,-16.38373 10.85669,-16.38373c5.99599,0 10.85669,7.33525 10.85669,16.38373z" fill="#000000" stroke="none" stroke-width="0" stroke-linecap="butt"/><path d="M361.28914,99.77241v-1.08567h1.08567v1.08567z" fill="#000000" stroke="none" stroke-width="0" stroke-linecap="butt"/><path d="M311.5951,129.9244v-4.73747h6.9088v4.73747z" fill="#000000" stroke="none" stroke-width="0" stroke-linecap="butt"/><path d="M312.77947,131.89835v-0.19739h7.89578v0.19739z" fill="#000000" stroke="none" stroke-width="0" stroke-linecap="butt"/><path d="M342.98081,128.93743v-3.94789h16.77852v3.94789z" fill="#000000" stroke="none" stroke-width="0" stroke-linecap="butt"/><path d="M347.71827,120.84426v-3.3557h12.83064v3.3557z" fill="#000000" stroke="none" stroke-width="0" stroke-linecap="butt"/><path d="M309.42376,105.64489v-4.54007h11.84366v4.54007z" fill="#000000" stroke="none" stroke-width="0" stroke-linecap="butt"/><path d="M308.042,106.63186v-5.52704h7.89578v5.52704z" fill="#000000" stroke="none" stroke-width="0" stroke-linecap="butt"/><path d="M315.34559,124.19997v-12.04106h10.4619v12.04106z" fill="#000000" stroke="none" stroke-width="0" stroke-linecap="butt"/><path d="M311.79249,102.68398v-0.98697h4.14528v0.98697z" fill="#000000" stroke="none" stroke-width="0" stroke-linecap="butt"/><path d="M326.39968,116.69898v-8.09317h3.5531v8.09317z" fill="#000000" stroke="none" stroke-width="0" stroke-linecap="butt"/><path d="M356.20623,116.89637v-6.71141h6.51402v6.71141z" fill="#000000" stroke="none" stroke-width="0" stroke-linecap="butt"/><path d="M316.72735,108.21102v-2.76352h15.00197v2.76352z" fill="#000000" stroke="none" stroke-width="0" stroke-linecap="butt"/><path d="M302.90975,130.1218v-9.27754h1.18437v9.27754z" fill="#000000" stroke="none" stroke-width="0" stroke-linecap="butt"/><path d="M356.40363,123.41039v-8.29056h8.88275v8.29056z" fill="#000000" stroke="none" stroke-width="0" stroke-linecap="butt"/><path d="M355.81144,123.41039v-9.47493h17.37071v9.47493z" fill="#000000" stroke="none" stroke-width="0" stroke-linecap="butt"/><path d="M321.26742,118.67292v-6.31662h10.85669v6.31662z" fill="#000000" stroke="none" stroke-width="0" stroke-linecap="butt"/><path d="M323.10494,115.86851v-1.17206h3.04735v1.17206z" fill="#000000" stroke="none" stroke-width="0" stroke-linecap="butt"/><path d="M369.98727,122.66644v-4.45382h2.34412v4.45382z" fill="#000000" stroke="none" stroke-width="0" stroke-linecap="butt"/><path d="M352.4064,129.69879v-1.87529h10.31411v1.87529z" fill="#000000" stroke="none" stroke-width="0" stroke-linecap="butt"/><path d="M319.11995,129.9332v-2.1097h11.72058v2.1097z" fill="#000000" stroke="none" stroke-width="0" stroke-linecap="butt"/><path d="M312.55642,121.96321v-4.21941h0.46882v4.21941z" fill="#000000" stroke="none" stroke-width="0" stroke-linecap="butt"/><path d="M321.46406,112.58674v-1.64088h9.84529v1.64088z" fill="#000000" stroke="none" stroke-width="0" stroke-linecap="butt"/><path d="M342.3267,121.02556v-6.0947h3.51617v6.0947z" fill="#000000" stroke="none" stroke-width="0" stroke-linecap="butt"/><path d="M339.74817,129.69879v-2.1097h4.45382v2.1097z" fill="#000000" stroke="none" stroke-width="0" stroke-linecap="butt"/><path d="M319.82318,128.05791v-8.43882h9.84529v8.43882z" fill="#000000" stroke="none" stroke-width="0" stroke-linecap="butt"/><path d="M313.25966,108.60175v-2.81294h2.34412v2.81294z" fill="#000000" stroke="none" stroke-width="0" stroke-linecap="butt"/><path d="M327.32435,113.7588v-7.03235h12.42382v7.03235z" fill="#000000" stroke="none" stroke-width="0" stroke-linecap="butt"/><path d="M348.65581,130.40203v-3.985h1.40647v3.985z" fill="#000000" stroke="none" stroke-width="0" stroke-linecap="butt"/><path d="M326.85553,131.10526v-4.68823h11.48617v4.68823z" fill="#000000" stroke="none" stroke-width="0" stroke-linecap="butt"/><path d="M327.08994,111.88351v-2.1097h10.78293v2.1097z" fill="#000000" stroke="none" stroke-width="0" stroke-linecap="butt"/><path d="M345.60846,123.36968v-3.75059h0.70323v3.75059z" fill="#000000" stroke="none" stroke-width="0" stroke-linecap="butt"/><path d="M325.91788,125.47938v-1.87529h10.31411v1.87529z" fill="#000000" stroke="none" stroke-width="0" stroke-linecap="butt"/><path d="M312.0876,114.22762v-6.32911h2.57853v6.32911z" fill="#000000" stroke="none" stroke-width="0" stroke-linecap="butt"/><path d="M315.60377,101.80381v-0.70323h7.97v0.70323z" fill="#000000" stroke="none" stroke-width="0" stroke-linecap="butt"/><path d="M341.85787,118.44703v-7.50117h6.32911v7.50117z" fill="#000000" stroke="none" stroke-width="0" stroke-linecap="butt"/><path d="M345.60846,126.18262v-1.40647h4.21941v1.40647z" fill="#000000" stroke="none" stroke-width="0" stroke-linecap="butt"/><path d="M322.1673,125.47938v-3.28176h9.37647v3.28176z" fill="#000000" stroke="none" stroke-width="0" stroke-linecap="butt"/><path d="M316.77583,116.57174v-3.985h2.81294v3.985z" fill="#000000" stroke="none" stroke-width="0" stroke-linecap="butt"/><path d="M333.65347,108.60175v-1.17206h8.90764v1.17206z" fill="#000000" stroke="none" stroke-width="0" stroke-linecap="butt"/><path d="M347.01493,118.21262v-4.21941h0.93765v4.21941z" fill="#000000" stroke="none" stroke-width="0" stroke-linecap="butt"/><path d="M333.18464,126.41703v-0.93765h6.0947v0.93765z" fill="#000000" stroke="none" stroke-width="0" stroke-linecap="butt"/><path d="M314.66613,120.79115v-7.26676h7.26676v7.26676z" fill="#000000" stroke="none" stroke-width="0" stroke-linecap="butt"/><path d="M310.21231,127.35468v-24.1444h41.02203v24.1444z" fill="#000000" stroke="none" stroke-width="0" stroke-linecap="butt"/></g></g></svg>