<svg version="1.1" xmlns="http://www.w3.org/2000/svg" xmlns:xlink="http://www.w3.org/1999/xlink" width="211.07648" height="225.97388" viewBox="0,0,211.07648,225.97388"><g transform="translate(-129.95003,-99.2631)"><g stroke-miterlimit="10"><g stroke="none" stroke-width="0.5" stroke-linecap="butt"><path d="M316.75469,296.13697c-1.80692,-0.16415 -3.6129,-0.33238 -5.41915,-0.4995c-1.6232,-0.16628 -2.96262,0.21553 -4.61657,0.16171c-3.77856,-0.12295 -7.44533,-0.66136 -10.93445,-1.62053c-1.09446,-0.30088 -2.58565,-0.0123 -3.37467,-0.69205c-0.49451,-0.42603 -0.38253,-1.16695 -0.5236,-1.76299c-0.55707,-2.3536 -0.26505,-5.09277 0.26789,-7.52145c-0.49715,-0.18873 -1.00287,-0.38476 -1.52257,-0.5798c-0.98686,-0.37036 -2.20689,-0.58845 -2.81323,-1.32827c-0.79555,-0.97066 -1.71995,-3.28578 -2.03614,-4.46622c-0.5853,-2.18509 -0.84099,-5.32999 0.79601,-7.31606c-1.00452,-0.37562 -1.92375,-0.83673 -2.72017,-1.39277c-0.631,-1.36453 -0.7884,-3.34864 -0.55182,-5.39773c-2.92125,0.16152 -5.32928,-0.74945 -7.3097,-2.53826c-0.66165,-0.59763 -1.9597,-0.64673 -2.43902,-1.36034c-1.59692,-2.37755 1.93927,-5.62296 1.79836,-8.00525c-0.11635,-1.96698 -0.89207,-3.30411 -0.42085,-5.38151c0.62153,-2.66861 2.92587,-6.38215 6.06061,-7.80308c2.09569,-0.94995 4.5618,-1.40278 6.52198,-2.63686c2.92607,-1.84219 4.03728,-6.02721 7.84161,-6.99354c1.00062,-0.25417 2.41395,-0.05916 3.42691,0.03529c4.10155,-0.20287 8.24971,-0.9861 12.3319,-0.83085c2.66349,0.10129 4.17407,1.29211 6.33513,2.22604c2.16136,0.93406 4.88273,0.9411 7.00634,1.81783c2.29495,0.94747 4.42282,2.32472 6.06258,3.91682c1.23169,1.17061 2.48278,2.81337 3.8722,3.81423c1.54134,1.11028 3.96918,1.73378 5.2693,3.14793c1.88738,2.05293 1.36744,5.03302 1.04196,7.52821c-0.54623,4.18726 -1.26843,8.50537 -1.52034,12.68853c-0.48012,2.08469 0.06537,3.99856 -0.23372,6.07854c-0.79953,5.56026 -1.42653,11.54503 -6.21032,15.89192c-1.77532,1.61318 -2.53614,2.86612 -5.00747,3.79744c-3.71127,1.3491 -5.18789,4.3418 -7.66947,6.80939l-1.9372,0.65957c0,0 -0.98875,0.22504 -1.37233,-0.44643zM283.68861,261.5994c0.465,-1.88974 1.24822,-3.6697 2.28524,-4.8911c1.52131,-1.79179 3.60718,-2.25919 5.84083,-3.1397c3.2295,-1.27309 7.11241,-2.6037 10.59751,-2.31194c0,0 1.24468,0.11516 1.00258,1.16638c-0.24211,1.05121 -1.48679,0.93605 -1.48679,0.93605c-2.91098,-0.30385 -6.5009,1.03923 -9.18534,2.1069c-1.35775,0.54002 -3.73523,1.06829 -4.65422,2.25966c-1.33041,1.72474 -1.51887,3.98676 -1.96576,5.91424c-0.31443,1.35617 -0.70335,2.87554 -0.162,4.15537c3.3273,2.12147 9.69076,2.30245 14.12551,1.6472c0.19768,-0.283 0.58178,-0.60091 1.29594,-0.53483c1.24468,0.11516 1.00258,1.16637 1.00258,1.16637l-1.16969,1.30466c-3.70937,0.64825 -8.36697,0.73066 -12.29984,-0.17368c-0.93172,0.29156 -0.59697,1.18337 -0.81203,2.08283c-0.41742,1.74581 -0.04369,3.62858 0.7093,5.21943c0.38881,0.82146 0.61296,1.71344 1.12349,2.48069c0.33969,0.51052 1.36341,0.49561 1.86027,0.68158c3.48476,1.30437 5.71604,2.55118 9.686,1.11615c2.71037,-0.15658 5.26025,0.16612 7.94374,0.0881l0.40706,0.02687c0,0 1.24468,0.11517 1.00258,1.16638c-0.24211,1.05121 -1.48679,0.93605 -1.48679,0.93605l-0.05014,-0.01544c-2.50029,0.06461 -4.90049,-0.22698 -7.41073,-0.14943c-2.82874,1.0804 -5.09749,0.86099 -7.36202,0.18891c-0.3121,1.71977 -0.37426,3.42051 -0.30566,5.14319c0.02313,0.58085 -0.44529,1.35657 0.03799,1.74539c0.58124,0.46762 1.69902,0.03361 2.48002,0.24401c5.0574,1.36243 9.88811,0.93479 15.08151,1.37535c2.02319,0.18719 4.04687,0.37224 6.06873,0.56515l0.86341,-0.04271c2.50272,-2.64154 4.19378,-5.38622 8.11624,-6.86438c2.07618,-0.75472 2.56145,-1.86153 4.08637,-3.24841c6.32259,-5.75028 4.12892,-13.79965 5.71328,-20.67887c0.25119,-4.17134 0.97231,-8.48891 1.51694,-12.66396c0.23177,-1.77669 0.95556,-4.5832 -0.50642,-6.02334c-1.31249,-1.29289 -3.51466,-1.85964 -5.00465,-2.92933c-1.48237,-1.06423 -2.82249,-2.78356 -4.12829,-4.0245c-3.41624,-3.38222 -7.95674,-3.39269 -12.4067,-5.29836c-1.77716,-0.76106 -3.11869,-1.95524 -5.29787,-2.00515c-4.1092,-0.0941 -8.20684,0.64784 -12.33191,0.83084c-4.6929,-0.43096 -5.31325,2.91634 -8.26192,5.48269c-2.28815,1.99148 -5.37607,2.66114 -8.1886,3.8384c-2.39014,1.00047 -4.19008,4.24073 -4.63399,6.19317c-0.45059,1.92267 0.41131,3.09745 0.46737,4.95408c0.04965,1.64441 -1.21713,3.36998 -1.5921,4.99808c-0.15514,0.67363 -1.02055,1.50562 -0.53504,2.01358c0.51294,0.53666 1.57504,0.54194 2.14555,1.03563c1.60164,1.38596 3.39076,2.17838 5.77847,1.93174z" fill="#000000"/><path d="M277.86014,259.66414c-0.57051,-0.49369 -1.6323,-0.5004 -2.14524,-1.03706c-0.48551,-0.50796 0.38084,-1.34322 0.53599,-2.01685c0.37497,-1.6281 1.64531,-3.36146 1.59566,-5.00586c-0.05606,-1.85663 -0.91413,-3.03692 -0.46354,-4.9596c0.44391,-1.95244 2.25171,-5.20052 4.64186,-6.20099c2.81254,-1.17727 5.91093,-1.85356 8.19909,-3.84504c2.94866,-2.56635 3.58173,-5.91824 8.27463,-5.48728c4.12507,-0.18299 8.23919,-0.92665 12.34839,-0.83255c2.17918,0.04991 3.5285,1.24487 5.30566,2.00593c4.44997,1.90567 9.00874,1.92285 12.42499,5.30506c1.3058,1.24094 2.65274,2.96544 4.13511,4.02968c1.48999,1.06969 3.69716,1.64211 5.00964,2.93498c1.46198,1.44014 0.74226,4.25392 0.51049,6.03062c-0.54463,4.17505 -1.26368,8.51195 -1.51486,12.68329c-1.58436,6.87921 0.59209,14.9557 -5.7305,20.70599c-1.52492,1.38689 -2.01596,2.49764 -4.09214,3.25236c-3.92246,1.47816 -5.62561,4.22831 -8.12834,6.86987l-0.86436,0.04301c-2.02187,-0.1929 -4.05251,-0.37623 -6.0757,-0.56342c-5.19341,-0.44056 -10.0443,-0.01251 -15.1017,-1.37494c-0.781,-0.2104 -1.90208,0.22301 -2.48331,-0.2446c-0.48329,-0.38883 -0.01583,-1.16476 -0.03896,-1.74561c-0.06859,-1.72269 0.031,-3.50433 0.34309,-5.22409c2.26454,0.67207 4.52112,0.88938 7.34986,-0.19103c2.51024,-0.07755 4.89707,0.21468 7.39735,0.15008l0.05006,0.01544c0,0 1.2418,0.11569 1.48391,-0.93552c0.24211,-1.05121 -0.98732,-1.08409 -0.98732,-1.08409l-0.40782,-0.02674c-2.68349,0.07803 -5.24906,-0.24404 -7.95942,-0.08745c-3.96996,1.43503 -6.21884,0.18365 -9.7036,-1.12072c-0.49686,-0.18598 -1.52377,-0.17267 -1.86346,-0.68319c-0.51053,-0.76726 -0.73884,-1.66182 -1.12766,-2.48328c-0.75299,-1.59086 -1.13403,-3.48017 -0.71661,-5.22598c0.21506,-0.89945 -0.03396,-1.84215 0.89776,-2.13371c3.93287,0.90434 8.56733,0.80617 12.2767,0.15791l1.13017,-1.2243c0,0 0.23508,-1.05357 -1.0096,-1.16873c-0.71416,-0.06608 -1.10159,0.25028 -1.29929,0.53328c-4.43475,0.65524 -10.81797,0.45246 -14.14526,-1.66901c-0.54135,-1.27983 -0.15428,-2.80897 0.16015,-4.16515c0.44689,-1.92748 0.63807,-4.20486 1.96849,-5.92959c0.919,-1.19138 3.30161,-1.72888 4.65935,-2.26889c2.68443,-1.06767 6.29755,-2.42864 9.20853,-2.12479c0,0 1.25193,0.11265 1.49403,-0.93857c0.24211,-1.05121 -0.97558,-1.08699 -0.97558,-1.08699c-3.4851,-0.29176 -7.34218,1.02214 -10.57168,2.29522c-2.23365,0.88051 -4.31249,1.33685 -5.83381,3.12864c-1.037,1.22139 -1.81717,2.98991 -2.28217,4.87965c-2.38771,0.24663 -4.27737,-0.54944 -5.87902,-1.93539z" fill="#ffffff"/></g><g stroke="none" stroke-width="0.5" stroke-linecap="butt"><path d="M237.15208,204.54255c-4.98453,0.97503 -9.78775,4.3597 -14.3813,6.53453c-1.80486,0.85451 -4.54443,1.07214 -5.86254,2.76841c-6.67281,2.417 -7.98365,10.57818 -8.56809,18.25722c-0.09824,1.29084 -0.5511,2.50863 -0.70181,3.79172c-0.36828,3.13584 0.0094,6.68773 0.0094,9.85996c0,6.99407 0.70642,13.58516 1.61392,20.45951c0.59035,4.47198 0.00941,9.66141 0.00941,14.20394c0,6.71092 0.2319,13.34579 0.2319,20.05325c0,4.05612 -0.4177,8.50339 0.22716,12.48648c0.00626,2.05036 0.07149,3.99374 0.23191,6.01596c0.03825,0.4823 -0.30854,2.83159 0.15444,3.24475c1.03597,0.92449 3.02566,0.54203 4.21129,0.54203c4.03731,0 6.27477,-0.56557 7.14856,-6.07858c-0.01997,-6.7527 0.04789,-13.43294 -0.91641,-20.00465c-0.30509,-2.07917 -0.41032,-4.40094 -0.24785,-6.51909c0.05878,-0.76626 -0.15564,-1.73785 0.28493,-2.28211c0.65322,-0.80694 3.48011,-0.35197 4.39831,-0.35197c2.25314,0.06202 4.77502,-0.61834 7.12006,-0.8564c6.49495,-0.65933 13.26025,-0.00302 19.78074,-0.00302c3.26502,0 6.48002,0.28647 9.73996,0.28647c0.86256,0 3.45732,-0.38756 4.09528,0.27238c0.44434,0.45963 0.78071,3.65306 0.81741,4.28184c0.23832,4.08425 0.00245,8.30617 0.00245,12.4036c0,4.07846 -0.08703,8.16165 0.22717,12.20001c0.04755,0.61122 0.0804,3.05338 0.28492,3.4264c0.20063,0.36595 3.29919,0.0739 3.3851,0.0739c3.38089,0 7.01679,0.4964 10.26873,-0.85909c4.51603,-10.41911 2.71101,-22.7204 2.67269,-34.03504c0,-12.45947 -1.61135,-24.34415 -3.01229,-36.5836c0.03307,-2.14251 -0.77596,-4.08279 -0.92675,-6.28851c-0.63381,-9.27138 -2.91636,-17.54926 -4.39059,-26.50562c-0.57366,-3.82149 -3.40511,-4.69308 -6.04851,-5.67271c-5.01896,-1.86001 -10.84346,-4.2274 -16.11187,-4.26281c-4.33355,-1.78445 -9.8917,-0.84391 -14.4541,-0.84391h-1.15953c0,0 -0.05294,0 -0.13413,-0.01526zM240.44718,202.10921c4.21792,-0.16545 8.95133,-0.64993 12.7643,0.92015c2.36216,-0.01744 4.45696,0.56666 6.65319,1.4819c5.47767,2.28271 15.58346,1.45769 17.10334,10.35465c1.43619,9.04597 3.79871,17.40891 4.42175,26.77872c0.14986,2.25371 0.90095,4.08632 0.92847,6.31637c1.43646,12.2847 3.01719,24.24616 3.01719,36.75396c-0.00547,1.39613 0.30976,2.76597 0.45652,4.1503c0.4832,4.55811 0.25317,10.39637 -0.48254,14.74667c-0.21154,1.25092 0.09696,2.55903 0.02272,3.83366c-0.28256,4.85084 -1.22744,9.04593 -3.35349,13.13419c-3.64853,1.9531 -7.63317,1.43272 -11.53019,1.43272c-1.46078,0 -3.8143,0.46312 -4.96343,-1.072c-0.37612,-0.50245 -0.58029,-3.84979 -0.6427,-4.59489c-0.34459,-4.1135 -0.23664,-8.28248 -0.23664,-12.43683c0,-3.4377 -0.0023,-6.87541 0,-10.3131c0.00031,-0.46008 0.09873,-4.30674 -0.10776,-4.51369c-0.01778,-0.01781 -2.62391,0.27238 -2.86181,0.27238c-3.26068,0 -6.47492,-0.28647 -9.73996,-0.28647c-6.46962,0 -13.2005,-0.67589 -19.64283,-0.00302c-2.44262,0.25512 -4.88699,0.81524 -7.25797,0.86245c-0.85031,0 -1.71039,0.15879 -2.55093,0c-0.18157,-0.0343 -0.34177,-0.51242 -0.47164,-0.35197c-0.3903,0.48215 0.28492,1.33319 0.28492,2.01502c0,1.6006 -0.01755,3.07173 0.21596,4.65342c1.00042,6.77618 0.95678,13.7103 0.93883,20.67478c-0.47026,2.86359 -1.68395,6.83358 -4.13091,7.89363c-1.5314,0.66341 -3.35947,0.35153 -4.95376,0.35153c-1.67854,0 -4.16424,0.36023 -5.52865,-1.17682c-1.64727,-1.85571 -1.01424,-8.25344 -1.00509,-10.79253c-0.65698,-4.05794 -0.23664,-8.59108 -0.23664,-12.7233c0,-6.70715 -0.23189,-13.34215 -0.23189,-20.05325c0,-4.40768 0.60822,-9.54219 0.0094,-13.87059c-0.9636,-6.96514 -1.63273,-13.69746 -1.63273,-20.79286c0,-10.99963 -0.49618,-30.30356 10.21941,-33.98033c1.49446,-1.78097 4.25465,-2.03499 6.19645,-2.96108c5.62963,-2.6849 11.52197,-6.94505 17.71913,-6.94505c0,0 0.33355,0 0.61003,0.24127z" fill="#000000"/><path d="M237.27952,204.51045l1.16043,-0.00019c4.5624,0 10.13227,-0.9405 14.46582,0.84395c5.2684,0.03542 11.10537,2.40795 16.12431,4.26796c2.64339,0.97963 5.47988,1.85521 6.05354,5.67669c1.47422,8.95634 3.76787,17.25044 4.40168,26.52182c0.15079,2.20571 0.96192,4.15192 0.92885,6.29443c1.40094,12.23945 3.01113,24.16024 3.01113,36.61971c0.03833,11.31463 1.83193,23.6339 -2.68408,34.05301c-3.25196,1.35548 -6.89321,0.86344 -10.27411,0.86344c-0.08591,0 -3.18649,0.29334 -3.38712,-0.07261c-0.20452,-0.37302 -0.27134,-2.90168 -0.31889,-3.5129c-0.31419,-4.03836 -0.23084,-8.11898 -0.23084,-12.19745c0,-4.09743 0.23046,-8.31417 -0.00787,-12.39841c-0.03669,-0.62878 -0.31847,-3.75376 -0.76281,-4.21341c-0.63796,-0.65992 -3.23578,-0.26883 -4.09834,-0.26883c-3.25993,0 -6.48767,-0.2776 -9.7527,-0.2776c-6.5205,0 -13.32098,-0.66293 -19.81592,-0.0036c-2.34503,0.23805 -4.87248,0.91237 -7.12561,0.85037c-0.91821,0 -3.74732,-0.45819 -4.40054,0.34875c-0.44057,0.54426 -0.1659,1.455 -0.22468,2.22127c-0.16248,2.11814 -0.06031,4.43596 0.24478,6.51513c0.9643,6.57171 0.88891,13.24515 0.90888,19.99786c-0.87381,5.51301 -3.15161,6.16073 -7.18892,6.16073c-1.18563,0 -3.17736,0.38071 -4.21331,-0.54379c-0.46298,-0.41316 -0.11709,-2.76332 -0.15535,-3.24562c-0.16041,-2.02222 -0.22743,-3.96747 -0.23369,-6.01783c-0.64486,-3.98309 -0.23116,-8.43549 -0.23116,-12.49162c0,-6.70746 -0.23835,-13.35608 -0.23835,-20.067c0,-4.54254 0.57853,-9.74603 -0.01182,-14.21801c-0.9075,-6.87435 -1.61145,-13.48533 -1.61145,-20.47939c0,-3.17222 -0.37483,-6.73146 -0.00654,-9.8673c0.15069,-1.28311 0.60495,-2.50359 0.70318,-3.79443c0.58444,-7.67904 1.9048,-15.85221 8.57762,-18.26924c1.31811,-1.69627 4.06186,-1.91711 5.86672,-2.77162c4.59356,-2.17482 9.40841,-5.56448 14.39294,-6.53952c0.08119,0.01525 0.13423,0.01523 0.13423,0.01523z" fill="#ffffff"/></g><path d="M246.99996,225.74208c0.15721,0.7031 0.19594,1.53074 0.17898,2.39416c0.30963,-1.21729 1.54523,-1.87343 2.40726,-2.52334c0,0 1.1524,-0.8033 1.79929,0.42399c0.10181,0.19314 0.15903,0.37579 0.18321,0.54645c0.06652,-0.11592 0.14539,-0.21329 0.2296,-0.295c-0.45029,-0.92959 -0.42972,-2.1455 0.34592,-3.24097c0.48947,-0.69132 1.52122,-0.33057 2.28382,-0.49201c0.53936,-0.16185 0.99034,-0.21277 1.36125,-0.17661c-0.00696,-0.04978 -0.01162,-0.10062 -0.01387,-0.15241c-0.03492,-0.80465 0.52778,-1.53291 1.25681,-1.62658l0.24139,-0.03102c-0.11415,-0.43677 -0.13869,-0.89113 -0.03276,-1.32006c0.17894,-0.72455 1.00194,-0.91924 1.71465,-1.20467c0.48387,-0.54665 1.03503,-0.95969 1.58848,-1.11513c0.76539,-1.12572 2.01013,-2.08549 3.05208,-2.56322c-0.29953,-1.15209 0.47698,-2.24423 1.70562,-3.29114c0.37002,-0.31529 1.0181,-0.50064 1.67549,-0.62139c0.31367,-0.14761 0.64826,-0.20349 0.98467,-0.14388c0.0231,-0.00277 0.04602,-0.00551 0.06873,-0.0082c0.20148,-0.44886 0.6386,-0.81348 1.17786,-1.09961l0.13882,-0.11997c0.60584,-0.35327 1.1657,-1.1645 1.81754,-1.05984c0.39878,0.06403 0.84922,0.17821 1.26117,0.36079c0.0942,-0.00275 0.18214,-0.00259 0.26263,0.00041c0,0 1.31246,0.07221 1.1578,1.53723c-0.02639,0.25001 -0.0865,0.45527 -0.16805,0.62374c-0.38448,1.41825 -2.25526,2.9765 -3.60315,2.82854c0.01035,1.58361 -1.36673,2.72234 -2.7992,3.06842c0.63627,2.41038 -2.15122,5.09586 -4.48305,5.23864c0.05302,0.09567 0.09321,0.20176 0.11788,0.32051c0.47811,2.30214 -3.59801,4.98336 -5.52424,4.22014c-0.12037,0.2102 -0.24176,0.33787 -0.24176,0.33787l-1.28422,1.01918c-0.04641,0.00495 -0.09334,0.01188 -0.14069,0.02039c-0.15608,0.40261 -0.46275,0.72907 -0.8423,0.8788c-0.07306,0.14171 -0.17479,0.28636 -0.31253,0.43123c-0.78875,0.82959 -1.50323,0.34587 -1.76226,0.1136c-0.00308,0.54103 -0.18603,1.12013 -0.61274,1.69846c0.39032,0.20726 0.66342,0.63604 0.68626,1.16259c0.03492,0.80465 -0.52778,1.53292 -1.25681,1.62659l-1.3334,0.17133c-0.99267,0.12411 -1.99363,0.08251 -2.99347,0.07788c0.11705,1.04659 0.19301,2.10374 0.24316,3.16564c0.96488,0.13096 1.84868,0.37869 2.92777,0.59076c1.22447,0.24064 2.55884,0.52655 3.45741,1.4382c1.97547,2.00422 1.89056,6.71085 0.38431,9.35667c-1.12683,1.97934 -3.66188,3.71997 -5.86044,4.71491c0.00739,1.38706 -0.05098,2.77678 -0.1994,4.16515l0.06574,1.51478c0.03492,0.80465 -0.52778,1.53291 -1.25681,1.62658c-0.60435,0.07767 -1.13331,-0.30515 -1.31644,-0.89676l-0.55019,-1.64663l0.04316,-0.0205c-0.03329,-0.06089 -0.06535,-0.12275 -0.09606,-0.1857c-0.36297,-0.74415 -0.31445,-1.64884 -0.24752,-2.55512l-0.03711,-0.85511l0.02509,-0.00322c-0.00937,-0.01319 -0.01818,-0.02728 -0.02641,-0.04232c-0.01111,-0.02028 -0.02149,-0.04083 -0.03114,-0.06164c-0.90987,0.12221 -1.82911,0.16557 -2.69851,0.16348c-0.05914,-0.00014 -0.11987,0.00328 -0.18159,0.00884c-0.45723,0.07247 -0.92247,0.13624 -1.39628,0.19364l-0.1456,-0.09468l-0.01469,0.08253l-1.44494,-0.21052c-0.59422,-0.07171 -1.05822,-0.59557 -1.08832,-1.28893c-0.03492,-0.80465 0.52778,-1.5329 1.25681,-1.62658c0.03897,-0.005 0.07765,-0.0081 0.11593,-0.00935l1.56717,-0.06807l-0.00046,0.01758c0.01955,-0.00635 0.03916,-0.01258 0.05878,-0.01869c0.59925,-0.18671 1.21227,-0.10266 1.8271,-0.03262c0.66322,-0.12988 1.30322,-0.28284 1.92403,-0.47181c-0.76126,-0.24902 -0.80448,-1.24518 -0.80448,-1.24518l-0.02903,-0.66897c-0.09662,-2.22631 -0.04583,-4.46309 0.06179,-6.70446c-1.42985,0.15687 -2.8235,0.12377 -3.87501,-1.15243c-0.51805,-0.62875 -0.95611,-1.43949 -1.0161,-2.31285c-0.03297,-0.48011 0.14515,-0.95184 0.3564,-1.41298c-0.00399,-1.67221 1.01199,-3.51076 2.26197,-4.68068c-0.2555,-0.1869 -0.48665,-0.41551 -0.68147,-0.67661c-0.11622,0.19855 -0.25614,0.37688 -0.43027,0.52597c-1.36472,1.1685 -2.91567,0.33705 -3.80663,-1.01275c-0.85281,-0.50865 -1.6141,-1.24607 -1.72026,-1.83788c-0.06992,-0.38979 -0.10175,-0.73121 -0.1005,-1.03261c-0.23663,0.03454 -0.47908,0.08047 -0.70894,0.10179c-0.62505,0.22737 -1.35572,0.0773 -1.99049,-0.05019c-2.14358,-0.43054 -2.74801,-1.91801 -2.35063,-3.68024c-1.02383,1.11879 -2.79646,1.67185 -3.88411,0.90386c-1.08917,-0.76904 -1.42721,-1.81032 -1.28955,-2.8435c-0.2048,0.08745 -0.36361,0.10785 -0.36361,0.10785l-0.10619,-0.0257c-1.11699,0.61103 -3.59835,-0.62221 -4.05233,-1.54775c-0.29067,-0.59259 -0.45456,-1.06711 -0.51695,-1.46583c-0.32225,0.04511 -0.64985,0.06058 -0.97385,0.04715c-0.42494,0.03635 -0.85015,-0.02465 -1.24866,-0.20423c-1.84679,-0.54936 -3.10368,-2.16846 -1.66033,-4.69353c0.28617,-0.50063 0.72221,-0.90997 1.20403,-1.2081c0.39333,-0.46816 0.75592,-1.00127 1.27918,-1.19483c0.14457,-0.05348 0.29997,-0.09898 0.46254,-0.1352c0.39869,-0.36002 0.77476,-0.66425 1.07889,-0.89317c0,0 1.13227,-0.84009 1.81376,0.3623c0.28617,0.50492 0.25253,0.94593 0.11718,1.2877c0.19375,0.24107 0.33616,0.53953 0.40594,0.90315c0.63849,0.5006 1.02102,1.28267 0.87946,2.49925c0.10821,0.07878 0.21523,0.18493 0.3184,0.32479c0.102,0.13826 0.17451,0.27459 0.22335,0.40725c0.02194,0.00486 0.04406,0.00989 0.06635,0.01508c0.41286,0.09606 0.65416,0.4168 0.8108,0.84843l0.2654,-0.185l0.32421,0.61512l0.06347,0.04466l-0.02137,0.03522l0.29782,0.56505l-0.06418,0.04472l0.29378,0.09595c-0.11224,0.31203 -0.18815,0.65311 -0.25857,0.99858c0.07571,0.10367 0.13972,0.23025 0.18494,0.38474c1.29227,-1.79181 3.74805,-2.81113 5.18426,-0.83613c0.01799,0.02472 0.03506,0.05057 0.05123,0.07743c0.2414,-0.61528 0.56585,-1.2113 0.91871,-1.75975c0,0 0.82972,-1.20163 1.85833,-0.36046c1.0286,0.84117 0.19887,2.0428 0.19887,2.0428c-0.05916,0.07568 -0.12385,0.14767 -0.18993,0.21875c0.57936,-0.11264 1.14665,-0.07905 1.58258,0.24479c0.75018,0.5573 0.82353,1.69793 0.53292,2.79104c0.23245,0.02448 0.47644,0.13015 0.68978,0.38915c0.18498,0.11693 0.35801,0.31333 0.49209,0.62835c0.19395,0.4557 0.16932,0.8376 0.05633,1.14096c0.04284,0.09833 0.07125,0.19967 0.0891,0.29947c0.22341,-0.11716 0.45419,-0.23892 0.68651,-0.37501c0,0 0.98104,-0.49489 1.53158,0.34216c0.71926,0.29093 1.1875,1.02156 1.3827,1.88765l0.38877,0.31794c0.68124,-0.8957 2.22228,-1.73788 3.42849,-1.53004c0.0055,-0.29797 0.02316,-0.51496 0.05904,-0.59488c-0.00287,-0.07987 -0.00602,-0.15981 -0.00948,-0.23977l0.01898,-0.0407l0.00069,-0.02622l-0.01847,0.00052l0.05677,-1.47236c0.0215,-0.75684 0.56437,-1.41984 1.25769,-1.50893c0.72902,-0.09367 1.34834,0.48269 1.38325,1.28734c0.00188,0.04303 0.00204,0.08581 0.00055,0.1283l-0.04488,1.72129c0.00008,0.00199 0.00014,0.00402 0.00021,0.00601zM247.65071,243.50358c0.00021,0.02511 0.00041,0.05022 0.0006,0.0753c0.23676,1.772 0.45643,3.56437 0.60443,5.36807c0.76282,-0.53916 1.50532,-1.19576 2.2377,-2.00279c1.20434,-1.32712 2.27357,-2.1269 1.58029,-3.92305c-1.15192,-1.44011 -2.37115,-0.98557 -4.01343,-0.99202c-0.14113,-0.00055 -0.2808,-0.01407 -0.41975,-0.03382c0.00319,0.50397 0.00603,1.00696 0.01015,1.50833zM247.16556,229.30482c-0.01065,-0.05379 -0.01979,-0.10674 -0.02748,-0.15888c-0.0036,0.06245 -0.00735,0.1249 -0.01125,0.18734c0.01219,-0.00921 0.02511,-0.01872 0.03872,-0.02846zM243.87553,236.951l0.24978,0.09c0.04147,-0.65585 0.08199,-1.31173 0.11931,-1.96747c-0.94396,0.61846 -1.64014,1.38981 -0.36909,1.87748zM263.87128,218.27618c0.05399,-0.03337 0.10704,-0.0686 0.15897,-0.1059c0.27689,-0.19887 1.03466,-0.89699 0.74193,-0.73137c-0.52402,0.29649 -1.07903,0.51739 -1.63605,0.70865l0.80161,-0.11281c0,0 -0.01755,0.09873 -0.06645,0.24141zM232.38641,225.71881c-0.07844,-0.04908 -0.15577,-0.1024 -0.23177,-0.15884c-0.01309,0.0601 -0.01215,0.10139 0.00652,0.11848c0.06092,0.05578 0.13991,0.0564 0.22525,0.04036z" fill="#ffe04b" stroke="#000000" stroke-width="1.5" stroke-linecap="butt"/><g stroke="none" stroke-width="0.5" stroke-linecap="butt"><path d="M191.89077,158.9281c-0.91463,-2.93861 -0.38636,-6.46489 -0.68951,-9.4536c-0.21971,-2.16602 -0.70411,-4.21308 -1.00305,-6.34234c-0.94287,-6.71568 -0.01269,-14.25206 -0.01269,-21.04318c0,-3.49419 0,-6.98837 0,-10.48254c0,-1.11134 -0.36509,-3.6129 0.14219,-4.55961c1.29405,-2.41502 6.15317,-2.47874 8.3802,-2.65144c3.13766,-0.24332 7.35764,-2.27282 10.64399,-0.92145c0.9544,0.39247 1.55861,1.35999 2.40965,1.94366c2.34901,3.64627 2.03512,9.01277 2.03512,13.30508c0,7.26243 0.33663,14.57485 0.33663,21.88101c0,4.4924 -0.33663,8.95027 -0.33663,13.46525c0,0.51512 -0.40626,3.74707 -0.10321,4.12014c0.44472,0.54745 3.68749,-0.77788 4.276,-0.89408c3.6597,-0.72258 8.07125,-0.70088 11.7937,-0.72482c3.11519,0.02338 6.17059,-1.36384 9.30725,-1.67731c4.54744,-0.45445 9.22603,0.43642 13.77346,0.00317c0.58952,-0.05615 3.25859,-0.99389 3.32065,-1.00339c2.80995,-0.43006 6.09412,-0.35214 8.9449,-0.35214c0.31454,0.08484 0.63638,0.36285 0.94361,0.2545c0.76151,-0.26852 -0.13041,-1.61168 -0.12553,-2.41913c0.01511,-2.50142 0.67327,-4.49878 0.67327,-7.11624c0,-3.83658 -1.02637,-7.46924 -1.34068,-11.28005c-0.22243,-2.69671 0.22449,-5.60565 -0.31032,-8.2581c-0.46522,-2.30727 -1.03399,-4.52755 -1.04205,-7.00871c0,-4.3762 0,-8.75241 0,-13.12861c0,-0.72512 -0.05862,-3.68697 0.25452,-4.10586c1.00774,-1.34812 3.86131,-0.66893 5.22427,-0.7947c4.70735,-0.43435 9.61324,-0.67387 14.32282,-0.00108c1.39175,0.00284 1.87261,-0.08653 3.33447,0.39865c4.73524,1.57155 4.18427,6.09783 4.51233,10.15103c0.55369,6.8409 0.33896,13.73886 0.33896,20.60917c0,5.70577 -0.26965,11.55538 -0.67629,17.25337c-0.51245,7.1807 0.33966,14.57251 0.33966,21.79582c0,11.55766 0,23.11534 0,34.673c0,2.88126 0.69144,5.59781 -1.83225,7.69773c-3.10014,2.57959 -7.39616,1.71304 -10.83078,2.88603c-5.93962,2.02851 -12.37673,3.07329 -18.83549,3.07329c-3.22515,-0.01058 -6.46205,0.39393 -9.53504,0.9882c-2.19946,0.42535 -4.61865,-0.23672 -6.84147,0.01584c-6.12602,0.69605 -12.44597,0.34249 -18.63312,0.34249c-6.19324,0 -12.30603,0.33662 -18.5147,0.33662c-2.64529,0 -4.70475,-0.14199 -7.26174,-0.68878c-0.56252,-0.12028 -1.21627,0.14916 -1.72107,-0.12668c-2.70488,-1.47814 -2.64375,-6.22451 -2.65445,-8.80201c0.0206,-3.51507 -0.42975,-7.19547 -1.29496,-10.42397c-0.65133,-2.43041 0.18427,-5.48003 -0.04573,-7.97234c-0.46056,-4.99078 -1.01574,-9.88342 -1.01574,-14.93017c0,-4.62641 0.958,-10.41035 0.02168,-14.92114c-0.21523,-1.03688 -0.59018,-2.059 -0.67285,-3.11058zM194.74461,160.82452c0.06711,0.25243 0.12985,0.50536 0.17904,0.75966c0.9156,4.73455 0.02168,10.54349 0.02168,15.37564c0,4.96834 0.56365,9.77949 1.00404,14.69335c0.19651,2.19261 -0.69469,5.4164 -0.04571,7.5127c1.06139,3.42844 1.37977,7.39893 1.39808,11.12044c-0.0061,1.27021 -0.14448,6.08703 1.38511,6.683c2.1872,0.8522 5.42866,0.53106 7.84874,0.53106c6.20894,0 12.32032,-0.33663 18.51471,-0.33663c6.11289,0 12.3428,0.32777 18.39629,-0.33077c2.13105,-0.23184 4.5354,0.44932 6.62378,0.01583c3.20865,-0.66602 6.62868,-1.02206 9.98954,-1.03157c7.35703,0 14.00537,-1.94373 20.96305,-3.34114c2.14719,-0.43125 7.2825,-0.70211 8.19979,-3.26082c0.3929,-1.09598 -0.06774,-3.4716 -0.06774,-4.65169c0,-11.55766 0,-23.11534 0,-34.673c0,-7.2829 -0.8413,-14.72403 -0.33361,-21.9662c0.39571,-5.64479 0.67024,-11.43185 0.67024,-17.08299c0,-6.82212 0.20166,-13.66647 -0.3343,-20.45982c-0.36531,-4.63043 0.13001,-8.31404 -5.61844,-8.30166c-4.59744,-0.65677 -9.35932,-0.41284 -13.95419,-0.00107c-0.99003,0.08872 -1.99054,0.06638 -2.98197,-0.00491c-0.18568,-0.01336 -0.48426,-0.29209 -0.54617,-0.11652c-0.26645,0.75561 0.25452,3.39115 0.25452,4.30993c0,3.81516 0,7.6303 0,11.44546c-0.00862,2.30782 0.55457,4.32476 0.97776,6.45652c0.55203,2.78082 0.12575,5.75833 0.36292,8.57345c0.39848,4.72988 1.3877,9.12676 1.35238,13.92029c-0.00831,1.12669 -0.44991,2.2084 -0.70541,3.30578c-0.27013,1.16022 0.24005,2.40234 0.02314,3.57367c-0.13884,0.74976 -0.17904,1.69033 -0.78978,2.14688c-0.65038,0.48618 -1.61514,0.16967 -2.4227,0.25451c-2.73427,0 -5.87113,-0.09505 -8.55991,0.32112c-1.17275,0.18151 -2.23161,0.8938 -3.41197,1.0164c-4.56321,0.47397 -9.2675,-0.45345 -13.83029,0.00315c-3.24051,0.3243 -6.30712,1.66949 -9.54407,1.68901c-3.4381,-0.02774 -7.71755,-0.04419 -11.09723,0.6217c-1.35217,0.26641 -5.06772,1.82508 -6.49619,0.45245c-1.25542,-1.20633 -0.77647,-4.42289 -0.77647,-5.97879c0,-4.514 0.33663,-8.97482 0.33663,-13.46525c0,-7.76306 -0.33663,-15.50202 -0.33663,-23.22754c0,-2.85522 0.34707,-7.97075 -1.33119,-10.25908c-0.60634,-0.39041 -0.97539,-1.11992 -1.62992,-1.42265c-0.77797,-0.35983 -1.71267,0.09148 -2.56981,0.09148c-2.97717,0 -5.32835,0.71275 -8.31667,1.0058c-0.65552,0.06429 -4.79663,0.60286 -5.09896,1.38922c-0.2542,0.66119 0.14219,2.65474 0.14219,3.42556c0,3.49419 0,6.98836 0,10.48253c0,6.65613 -0.96843,14.12968 -0.01147,20.70321c0.31501,2.16388 0.79826,4.24322 1.01551,6.44549c0.18854,1.91118 -0.12555,4.48589 0.07832,6.76119c0.18658,0.25619 0.24083,0.52743 0.24083,0.52743l0.35412,1.80041c-0.00101,0.10072 0.00186,0.20107 0.00807,0.30109c0.13075,0.29731 0.28576,0.57661 0.46922,0.8339c0,0 0.48899,0.73348 0.00111,1.36283z" fill="#000000"/><path d="M194.69544,159.46153c-0.18346,-0.2573 -0.33845,-0.53745 -0.46921,-0.83477c-0.00621,-0.10003 -0.00907,-0.20067 -0.00804,-0.30139l-0.35404,-1.80224c0,0 -0.05421,-0.27177 -0.24079,-0.52796c-0.20387,-2.2753 0.1112,-4.85664 -0.07734,-6.76782c-0.21725,-2.20228 -0.69896,-4.28711 -1.01397,-6.45099c-0.95694,-6.57354 0.01893,-14.06076 0.01893,-20.71689c0,-3.49419 0.00387,-6.99277 0.00387,-10.48695c0,-0.77083 -0.39525,-2.76547 -0.14105,-3.42666c0.30231,-0.78636 4.44592,-1.32708 5.10144,-1.39137c2.98833,-0.29305 5.34375,-1.00894 8.32094,-1.00894c0.85715,0 1.79328,-0.45218 2.57124,-0.09237c0.65453,0.30273 1.07265,1.11491 1.67899,1.50532c1.67826,2.28834 1.33437,7.40184 1.33437,10.25706c0,7.72552 0.34939,15.45134 0.34939,23.21441c0,4.49043 -0.32964,8.93385 -0.32964,13.44785c0,1.5559 -0.47811,4.76285 0.77731,5.96918c1.42847,1.37262 5.04788,-0.18536 6.40005,-0.45177c3.37968,-0.66588 7.65919,-0.65218 11.0973,-0.62444c3.23696,-0.01952 6.32514,-1.40208 9.56565,-1.72638c4.56278,-0.4566 9.34072,0.50202 13.90393,0.02803c1.18036,-0.1226 2.23902,-0.83595 3.41175,-1.01746c2.68878,-0.41616 5.82617,-0.31829 8.56044,-0.31829c0.80757,-0.08484 1.67723,0.24586 2.32761,-0.24032c0.61075,-0.45655 0.65156,-1.39374 0.79041,-2.14351c0.21691,-1.17135 -0.29168,-2.40789 -0.02154,-3.56811c0.2555,-1.09737 0.69878,-2.17492 0.70709,-3.30163c0.03532,-4.79353 -0.94417,-9.17646 -1.34265,-13.90634c-0.23717,-2.81512 0.19429,-5.78815 -0.35774,-8.56897c-0.42318,-2.13175 -0.98258,-4.14616 -0.97396,-6.45397c0,-3.81516 0.00425,-7.628 0.00425,-11.44315c0,-0.91876 -0.51951,-3.55366 -0.25306,-4.30927c0.06191,-0.17556 0.39939,0.01526 0.58506,0.02861c0.99143,0.07129 1.99377,0.0945 2.9838,0.00578c4.59487,-0.41178 9.36394,-0.6513 13.96137,0.00547c5.74844,-0.01237 5.25813,3.67553 5.62345,8.30596c0.53596,6.79336 0.34202,13.64754 0.34202,20.46967c0,5.65113 -0.2692,11.45128 -0.66492,17.09609c-0.5077,7.24217 0.33392,14.70466 0.33392,21.98758c0,11.55766 -0.01183,23.13807 -0.01183,34.69574c0,1.18008 0.45902,3.55739 0.06611,4.65336c-0.91728,2.55871 -6.05707,2.83342 -8.20425,3.26467c-6.95769,1.39741 -13.61957,3.34835 -20.97659,3.34835c-3.36085,0.00951 -6.7888,0.36753 -9.99745,1.03356c-2.08838,0.43348 -4.4982,-0.24711 -6.62925,-0.01526c-6.05349,0.65856 -12.2983,0.32911 -18.41119,0.32911c-6.19439,0 -12.31755,0.33163 -18.52649,0.33163c-2.42007,0 -5.6655,0.31851 -7.8527,-0.53369c-1.5296,-0.59597 -1.39407,-5.41508 -1.38797,-6.68528c-0.01831,-3.72151 -0.34146,-7.6967 -1.40285,-11.12513c-0.64898,-2.09629 0.23919,-5.32391 0.04268,-7.51652c-0.44039,-4.91385 -1.00989,-9.73594 -1.00989,-14.70428c0,-4.83217 0.89084,-10.65602 -0.02474,-15.39057c-0.04918,-0.2543 -0.11194,-0.50804 -0.17905,-0.76047c0.48788,-0.62935 -0.00114,-1.36424 -0.00114,-1.36424z" fill="#ffffff"/></g><g><path d="M239.66507,175.07653c0.58966,10.94869 -7.60381,20.38455 -18.30065,21.07555c-10.69684,0.69101 -19.84637,-7.62451 -20.43603,-18.5732c-0.23084,-4.28615 -1.24423,-7.58179 2.29922,-9.09807c5.50804,-2.35694 17.08901,-1.90213 17.08901,-1.90213c0,0 11.01828,-1.93937 16.79461,-0.16262c3.52865,1.08539 2.33025,4.50848 2.55387,8.66047z" fill="#000000" stroke="none" stroke-width="0" stroke-linecap="butt"/><path d="M230.78458,171.16273l-0.23251,-4.31698l25.86777,-1.67104l0.23251,4.31699z" fill="#000000" stroke="none" stroke-width="0" stroke-linecap="butt"/><path d="M288.69063,171.90952c0.58967,10.94869 -7.60381,20.38454 -18.30065,21.07555c-10.69684,0.69101 -19.84636,-7.62451 -20.43603,-18.5732c-0.23084,-4.28615 -1.24423,-7.58179 2.29922,-9.09807c5.50804,-2.35695 17.08901,-1.90212 17.08901,-1.90212c0,0 11.01827,-1.93937 16.79461,-0.16262c3.52864,1.08539 2.33025,4.50848 2.55387,8.66047z" fill="#000000" stroke="none" stroke-width="0" stroke-linecap="butt"/><path d="M209.71944,172.54403l-4.238,4.32132" fill="none" stroke="#ffffff" stroke-width="1.5" stroke-linecap="round"/><path d="M204.45846,174.30456l1.46138,-1.60049" fill="none" stroke="#ffffff" stroke-width="1.5" stroke-linecap="round"/><path d="M212.78833,174.30457l-5.11482,4.48138" fill="none" stroke="#ffffff" stroke-width="1.5" stroke-linecap="round"/><path d="M210.59626,181.34673l4.82256,-5.28162" fill="none" stroke="#ffffff" stroke-width="1.5" stroke-linecap="round"/><path d="M217.90316,178.946l-3.21504,3.52107" fill="none" stroke="#ffffff" stroke-width="1.5" stroke-linecap="round"/><path d="M220.09524,181.98694l-2.04595,2.08065" fill="none" stroke="#ffffff" stroke-width="1.5" stroke-linecap="round"/><path d="M222.28731,184.06758l-0.87682,1.12035" fill="none" stroke="#ffffff" stroke-width="1.5" stroke-linecap="round"/><path d="M227.98668,189.18916l1.60752,-2.24069" fill="none" stroke="#ffffff" stroke-width="1.5" stroke-linecap="round"/><path d="M231.93241,187.74872l-2.19206,3.04093" fill="none" stroke="#ffffff" stroke-width="1.5" stroke-linecap="round"/><path d="M255.0222,169.18299l-2.63048,2.72084" fill="none" stroke="#ffffff" stroke-width="1.5" stroke-linecap="round"/><path d="M254.5838,174.46462l3.36116,-2.72084" fill="none" stroke="#ffffff" stroke-width="1.5" stroke-linecap="round"/><path d="M258.67566,174.78472l-1.60753,1.6005" fill="none" stroke="#ffffff" stroke-width="1.5" stroke-linecap="round"/><path d="M260.86772,175.58496l-2.19206,2.88089" fill="none" stroke="#ffffff" stroke-width="1.5" stroke-linecap="round"/><path d="M263.64434,177.50556l-1.46138,2.08064" fill="none" stroke="#ffffff" stroke-width="1.5" stroke-linecap="round"/><path d="M266.27482,182.94723l3.21504,-3.20099" fill="none" stroke="#ffffff" stroke-width="1.5" stroke-linecap="round"/><path d="M265.83641,178.946l-2.77663,3.36104" fill="none" stroke="#ffffff" stroke-width="1.5" stroke-linecap="round"/><path d="M277.23517,186.14822l1.16911,-2.08064" fill="none" stroke="#ffffff" stroke-width="1.5" stroke-linecap="round"/><path d="M279.2811,187.58867l1.8998,-2.72084" fill="none" stroke="#ffffff" stroke-width="1.5" stroke-linecap="round"/></g><path d="M246.44791,214.48125c-1.25,0 -1.25,-1.25 -1.25,-1.25l0.00314,-1.35295c-0.42457,-2.97199 -0.51247,-5.99173 -1.01583,-8.94438c0,0 -0.07279,-0.43673 0.12819,-0.83367c-4.67763,0.67776 -9.37328,1.7642 -14.06528,1.3309c1.53759,3.4975 1.57558,7.82431 2.19335,11.44805l0.01234,0.44795c2.40996,0.75934 5.4567,0.77287 7.61,0.77287c10.20415,0 15.88546,-7.13196 21.27207,-14.65757c-3.5887,0.2343 -7.22829,0.16467 -10.87017,0.16467c-1.37949,-0.01583 -2.76139,0.07851 -4.14514,0.2329c0.26729,0.30292 0.33062,0.6829 0.33062,0.6829c0.49644,3.03748 0.60738,6.12496 1.04355,9.17816l0.00314,1.53018c0,0 0,1.25 -1.25,1.25zM264.51166,201.78707l-0.3656,0.02039c-6.1606,8.58324 -12.46851,16.79255 -24.08222,16.79255c-3.44756,0 -8.30552,-0.20067 -11.23372,-2.29533c-4.59315,-3.28566 -8.19979,-9.81659 -8.75043,-15.30533c0,0 -0.02562,-0.25618 0.06266,-0.54763c-0.69271,0.37789 -1.3721,0.80562 -2.03191,1.33347c0,0 -0.93837,0.75069 -1.68908,-0.18768c-0.75069,-0.93836 0.18768,-1.68905 0.18768,-1.68905c2.35064,-1.8805 4.89927,-2.53357 7.41576,-4.0648l1.20963,-0.35609c0,0 1.16581,-0.29146 1.45727,0.87437c0.29146,1.16583 -0.87436,1.45728 -0.87436,1.45728l-0.55602,0.08534c-0.59148,0.35082 -1.18411,0.65413 -1.77445,0.93774c0.15939,0.13579 0.29343,0.3329 0.34679,0.61901c0.44385,0.08606 0.94667,0.30215 1.51507,0.43393c2.4579,0.56983 4.24692,1.07412 6.79835,1.07412c6.21266,0 12.20317,-1.71104 18.31866,-1.76566c6.20278,0 12.32971,0.15243 18.26327,-1.29208c1.47646,-0.35944 2.27735,0.11048 3.63055,-0.74373l1.28039,-0.17124c0.00398,0 1.2017,0.00198 1.2017,1.20169c0,1.2017 -1.20171,1.2017 -1.20171,1.2017l-0.04385,-0.17124c-1.56282,0.90486 -2.71776,0.61056 -4.31489,1.02193c-1.35842,0.34989 -2.73008,0.61118 -4.11212,0.80598c-0.17051,0.48691 -0.65741,0.73036 -0.65741,0.73036zM226.27426,202.65697c-1.60941,-0.49622 -2.64371,-0.6578 -3.60721,-1.12593c0.69756,4.49061 3.5501,9.44659 7.11656,12.34949c-0.4206,-3.64357 -0.52067,-8.17272 -2.68236,-10.98962c-0.27569,-0.0711 -0.55136,-0.14895 -0.82699,-0.23394z" fill="#000000" stroke="none" stroke-width="0.5" stroke-linecap="butt"/><g stroke="none" stroke-width="0.5" stroke-linecap="butt"><path d="M149.14304,250.97222l-1.88266,-0.80214c-2.29078,-2.64569 -3.54022,-5.74012 -7.14062,-7.36208c-2.39505,-1.11292 -3.06037,-2.41908 -4.71051,-4.16009c-4.44649,-4.69136 -4.62569,-10.70621 -5.00857,-16.31059c-0.14323,-2.09649 0.54339,-3.96437 0.21998,-6.07905c0.06059,-4.19029 -0.33777,-8.55023 -0.57039,-12.76656c-0.13861,-2.51249 -0.43499,-5.52306 1.60016,-7.42961c1.4019,-1.31332 3.86946,-1.75412 5.48928,-2.74644c1.46015,-0.89451 2.8302,-2.43946 4.14572,-3.51501c1.75387,-1.46545 3.97847,-2.68027 6.33766,-3.45406c2.18304,-0.71601 4.89738,-0.5202 7.12234,-1.29057c2.22467,-0.77027 3.8198,-1.84518 6.48342,-1.74767c4.0824,0.14944 8.16066,1.23966 12.23567,1.74766c1.01719,-0.01867 2.44112,-0.1078 3.42001,0.22024c3.72173,1.24719 4.51792,5.5034 7.29855,7.55855c1.86274,1.37675 4.28824,2.01211 6.3073,3.11562c3.02011,1.65063 5.04125,5.52558 5.46216,8.2331c0.31508,2.10675 -0.55815,3.38232 -0.82078,5.33517c-0.31808,2.36515 2.96637,5.8651 1.1967,8.11702c-0.53116,0.67589 -1.82928,0.62813 -2.53362,1.17477c-2.10823,1.63622 -4.57745,2.36517 -7.47855,1.98637c0.08318,2.06103 -0.22166,4.02789 -0.95261,5.34159c-0.83563,0.49513 -1.78668,0.88644 -2.8164,1.18615c1.48442,2.10256 0.99503,5.21967 0.2485,7.35504c-0.4033,1.15359 -1.49769,3.39336 -2.36336,4.30204c-0.6598,0.69257 -1.8927,0.81911 -2.90441,1.11489c-0.5328,0.15577 -1.05173,0.31355 -1.56156,0.4647c0.35044,2.46165 0.43748,5.21496 -0.29346,7.52049c-0.1851,0.58385 -0.12865,1.33107 -0.65354,1.71905c-0.83748,0.61903 -2.30302,0.22013 -3.41687,0.43859c-3.5509,0.69645 -7.2476,0.96008 -11.02482,0.80106c-1.65337,-0.06961 -2.9606,-0.55018 -4.59168,-0.50535c-1.81368,0.03203 -3.62717,0.06519 -5.4413,0.0942c-0.43256,0.64101 -1.40178,0.3429 -1.40178,0.3429zM191.99949,217.15667c0.60573,-0.44979 1.66526,-0.37591 2.21677,-0.87284c0.52202,-0.47036 -0.27898,-1.36454 -0.38348,-2.04786c-0.25258,-1.65152 -1.38722,-3.46671 -1.21514,-5.10284c0.19429,-1.84729 1.14134,-2.95455 0.83531,-4.90546c-0.29716,-1.98009 -1.85058,-5.34551 -4.1595,-6.52133c-2.71697,-1.38363 -5.74638,-2.28157 -7.87974,-4.43805c-2.74918,-2.77898 -3.11833,-6.16321 -7.8303,-6.08323c-4.09996,-0.48994 -8.1309,-1.53523 -12.23567,-1.74766c-2.17685,-0.11265 -3.60364,0.97823 -5.43258,1.60471c-4.57964,1.5687 -9.10828,1.24072 -12.7671,4.3589c-1.39466,1.14016 -2.8592,2.75483 -4.41676,3.70561c-1.56557,0.95567 -3.80386,1.35671 -5.20906,2.54818c-1.56525,1.32717 -1.05265,4.17982 -0.95395,5.96884c0.23193,4.20402 0.62925,8.56334 0.56883,12.74179c1.06722,6.97818 -1.7203,14.84165 4.15612,21.04718c1.41731,1.49668 1.81873,2.63658 3.83289,3.54396c3.80138,1.7664 5.28317,4.62947 7.58204,7.45021l0.85782,0.10694c2.03062,-0.04167 4.06246,-0.07538 6.09399,-0.11125c5.2118,-0.05226 9.99718,0.73426 15.14207,-0.24744c0.79451,-0.1516 1.87684,0.36452 2.49131,-0.05848c0.51092,-0.35172 0.10162,-1.1602 0.16798,-1.73771c0.19679,-1.71278 0.26156,-3.41342 0.07853,-5.15166c-2.30834,0.50141 -4.58712,0.55111 -7.32748,-0.73711c-2.49748,-0.26443 -4.91273,-0.15255 -7.40124,-0.40332l-0.05115,0.01164c0,0 -1.24981,0.02207 -1.41289,-1.04426c-0.16308,-1.06633 1.08672,-1.0884 1.08672,-1.0884l0.40793,0.00354c2.67021,0.27782 5.23704,0.14605 7.92821,0.50422c3.85196,1.72693 6.16997,0.6499 9.74225,-0.39112c0.50934,-0.14843 1.5291,-0.05726 1.90588,-0.54103c0.56628,-0.72707 0.85629,-1.59985 1.30526,-2.39005c0.86947,-1.53031 1.3825,-3.38 1.09635,-5.15206c-0.14742,-0.91298 0.25287,-1.77736 -0.65454,-2.13756c-3.98933,0.6087 -8.62783,0.17937 -12.27856,-0.74356l-1.0692,-1.38821c0,0 -0.16308,-1.06633 1.08672,-1.0884c0.7171,-0.01266 1.07644,0.33299 1.25248,0.62993c4.37357,0.98395 10.73282,1.27777 14.20899,-0.5898c0.63524,-1.23592 0.36065,-2.78006 0.14817,-4.15589c-0.30198,-1.95542 -0.32133,-4.22521 -1.51948,-6.0443c-0.82764,-1.25655 -3.15913,-1.96056 -4.47286,-2.60027c-2.5974,-1.26478 -6.07722,-2.8717 -9.00276,-2.78565c0,0 -1.24981,0.02207 -1.41289,-1.04426c-0.16308,-1.06633 1.08672,-1.0884 1.08672,-1.0884c3.49715,-0.03119 7.2701,1.58514 10.39572,3.09538c2.16181,1.04454 4.20703,1.6661 5.59057,3.5663c0.9431,1.29528 1.59148,3.12867 1.91433,5.04782c2.36268,0.42392 4.20588,-0.23295 5.90636,-1.49567z" fill="#000000"/><path d="M186.04272,218.64872c-0.32285,-1.91914 -0.96903,-3.74089 -1.91213,-5.03618c-1.38354,-1.9002 -3.42258,-2.5102 -5.58439,-3.55475c-3.12563,-1.51024 -6.87405,-3.10797 -10.37121,-3.07678c0,0 -1.21695,-0.05507 -1.05387,1.01125c0.16308,1.06633 1.41992,1.0473 1.41992,1.0473c2.92553,-0.08604 6.42715,1.54044 9.02455,2.80523c1.31373,0.6397 3.64964,1.3533 4.47729,2.60986c1.19816,1.8191 1.21908,4.1044 1.52106,6.05982c0.21247,1.37583 0.4845,2.92957 -0.15074,4.1655c-3.47617,1.86758 -9.85674,1.59403 -14.23032,0.61007c-0.17604,-0.29696 -0.53883,-0.6413 -1.25592,-0.62863c-1.24981,0.02207 -1.0939,1.09024 -1.0939,1.09024l1.03578,1.30513c3.65073,0.92293 8.26499,1.36625 12.25433,0.75755c0.90741,0.36019 0.58881,1.2817 0.73623,2.19468c0.28614,1.77206 -0.23467,3.62772 -1.10413,5.15803c-0.44896,0.7902 -0.74331,1.66526 -1.30961,2.39233c-0.3768,0.48378 -1.39986,0.39398 -1.9092,0.5424c-3.57229,1.04101 -5.90818,2.12129 -9.76014,0.39436c-2.69115,-0.35817 -5.2736,-0.22822 -7.94381,-0.50604l-0.40868,-0.00374c0,0 -1.22846,-0.05885 -1.06538,1.00748c0.16308,1.06633 1.41005,1.04352 1.41005,1.04352l0.05107,-0.01167c2.48852,0.25078 4.89049,0.13727 7.38796,0.40169c2.74034,1.28823 5.00685,1.23971 7.31519,0.7383c0.18304,1.73825 0.14955,3.52235 -0.04724,5.23513c-0.06635,0.57751 0.34198,1.38613 -0.16895,1.73784c-0.61447,0.423 -1.70012,-0.09277 -2.49463,0.05883c-5.14489,0.9817 -9.95038,0.19327 -15.16218,0.24554c-2.03151,0.03587 -4.07019,0.06734 -6.10081,0.10901l-0.85875,-0.10731c-2.29888,-2.82074 -3.79232,-5.69019 -7.59369,-7.45659c-2.01415,-0.90737 -2.42104,-2.05163 -3.83836,-3.54832c-5.87642,-6.20552 -3.10405,-14.09733 -4.17127,-21.0755c0.06042,-4.17846 -0.33339,-8.55689 -0.56533,-12.76091c-0.0987,-1.78903 -0.6067,-4.64862 0.95855,-5.97581c1.40519,-1.19147 3.64889,-1.59776 5.21446,-2.55343c1.55757,-0.95078 3.0293,-2.57011 4.42395,-3.71027c3.65883,-3.11819 8.20619,-2.79553 12.78583,-4.36423c1.82894,-0.62649 3.26357,-1.71756 5.44041,-1.6049c4.10477,0.21243 8.15203,1.26067 12.25199,1.7506c4.71196,-0.07998 5.09345,3.30978 7.84263,6.08876c2.13336,2.15649 5.17273,3.06184 7.8897,4.44545c2.30892,1.17583 3.86962,4.54961 4.16677,6.52971c0.30603,1.95091 -0.63762,3.06396 -0.83192,4.91125c-0.17208,1.63613 0.96554,3.45935 1.21812,5.11087c0.1045,0.68332 0.90619,1.58083 0.38418,2.05119c-0.55151,0.49693 -1.61085,0.42449 -2.21657,0.87428c-1.70048,1.26272 -3.64423,1.91575 -6.00692,1.49183z" fill="#ffffff"/></g></g></g></svg>