<svg version="1.1" xmlns="http://www.w3.org/2000/svg" xmlns:xlink="http://www.w3.org/1999/xlink" width="232.64972" height="342.8604" viewBox="0,0,232.64972,342.8604"><defs><linearGradient x1="394.70461" y1="87.62145" x2="397.36354" y2="130.68024" gradientUnits="userSpaceOnUse" id="color-1"><stop offset="0" stop-color="#1e006b"/><stop offset="1" stop-color="#0038ff"/></linearGradient><linearGradient x1="232.93995" y1="93.43934" x2="232.72557" y2="136.57961" gradientUnits="userSpaceOnUse" id="color-2"><stop offset="0" stop-color="#210073"/><stop offset="1" stop-color="#0038ff"/></linearGradient><linearGradient x1="318.95447" y1="161.18323" x2="321.58309" y2="253.87267" gradientUnits="userSpaceOnUse" id="color-3"><stop offset="0" stop-color="#2dff00"/><stop offset="1" stop-color="#000000"/></linearGradient><linearGradient x1="318.54426" y1="162.61381" x2="324.76763" y2="340.71929" gradientUnits="userSpaceOnUse" id="color-4"><stop offset="0" stop-color="#dadada"/><stop offset="1" stop-color="#1a1a1a"/></linearGradient><linearGradient x1="251.54837" y1="84.22026" x2="252.80133" y2="128.40153" gradientUnits="userSpaceOnUse" id="color-5"><stop offset="0" stop-color="#ffffff"/><stop offset="1" stop-color="#ffffff" stop-opacity="0"/></linearGradient><linearGradient x1="377.5168" y1="79.79026" x2="378.76975" y2="123.97152" gradientUnits="userSpaceOnUse" id="color-6"><stop offset="0" stop-color="#ffffff"/><stop offset="1" stop-color="#ffffff" stop-opacity="0"/></linearGradient><linearGradient x1="236.99743" y1="326.96903" x2="231.50556" y2="63.41762" gradientUnits="userSpaceOnUse" id="color-7"><stop offset="0" stop-color="#ff0000"/><stop offset="0.333" stop-color="#ffff00"/><stop offset="0.5" stop-color="#00ff00"/><stop offset="0.666" stop-color="#00ffff"/><stop offset="0.833" stop-color="#0000ff"/><stop offset="1" stop-color="#ff00ff"/></linearGradient><linearGradient x1="313.55246" y1="67.57824" x2="316.5697" y2="173.97106" gradientUnits="userSpaceOnUse" id="color-8"><stop offset="0" stop-color="#000000" stop-opacity="0.39608"/><stop offset="1" stop-color="#000000" stop-opacity="0"/></linearGradient><linearGradient x1="312.49709" y1="22.27907" x2="314.19238" y2="82.05776" gradientUnits="userSpaceOnUse" id="color-9"><stop offset="0" stop-color="#5b5b5b"/><stop offset="1" stop-color="#ffffff"/></linearGradient></defs><g transform="translate(-198.96218,-7.60415)"><g stroke-miterlimit="10"><path d="M332.00993,71.57014c0,0 74.30636,24.85228 89.92733,30.07682c5.50443,1.841 9.67464,8.67121 9.67464,8.67121c0,0 -3.31811,-3.83639 -9.85116,-2.20942c-9.47193,2.35886 -22.56672,5.82494 -29.87914,8.65039c-11.25042,4.34705 -29.90884,16.10652 -29.90884,16.10652z" fill="url(#color-1)" stroke="#000000" stroke-width="0" stroke-linecap="butt"/><path d="M268.18332,136.7558c0,0 -17.86651,-11.55057 -29.22902,-15.21556c-6.92971,-2.23518 -19.22626,-4.47371 -28.95648,-6.04469c-8.07873,-1.30434 -11.03564,1.01931 -11.03564,1.01931c0,0 3.50534,-5.99808 9.70219,-8.55548c15.32109,-6.32289 79.80126,-32.93336 79.80126,-32.93336z" fill="url(#color-2)" stroke="#000000" stroke-width="0" stroke-linecap="butt"/><path d="M270.93145,253.42169l-2.272,-56.42687c0,0 -0.49881,-12.34084 0.39247,-13.28714c2.73378,-2.9025 7.09221,-16.94773 15.11502,-17.33378c10.56485,-0.50836 37.24518,-1.55373 59.1185,-2.60623c23.72418,-1.14156 24.57362,26.15455 24.57362,26.15455l7.60164,62.42251z" fill="url(#color-3)" stroke="#000000" stroke-width="0" stroke-linecap="butt"/><path d="M271.7913,338.59423c0,0 -0.86705,-15.26295 -2.62803,-41.51163c-0.75587,-11.26684 -2.71871,-35.23377 -3.13321,-43.31799c-1.00322,-19.56627 -1.75584,-61.7797 -1.75584,-61.7797c0,0 6.54761,-25.8048 17.55157,-26.52085c3.15123,-0.20505 7.54884,-0.45824 12.75447,-0.75005c0.76767,0.96744 -2.41077,1.93267 -2.71313,3.83762c-0.35114,2.21241 2.11465,5.45609 2.45103,7.72952c0.31715,2.14343 3.15171,4.546 4.28568,5.08642c2.31823,1.10482 6.28969,4.89514 8.92731,5.29142c2.53491,0.38084 15.98848,0.48007 18.57324,-0.22127c4.66343,-1.26538 11.33058,-6.29416 12.28218,-11.07873c0.52184,-2.62378 5.22663,-4.4094 4.59499,-6.71339c-0.60416,-2.20375 -6.57518,-4.94926 -4.89011,-6.44889c1.07361,-0.06819 2.14184,-0.13684 3.20286,-0.20588c24.53926,-1.59681 33.12958,24.9552 33.12958,24.9552c0,0 0.3523,65.68996 1.34658,92.78517c0.381,10.38249 2.62875,26.77618 3.50438,38.06528c1.05978,13.66308 0.73433,21.35618 0.73433,21.35618c0,0 -42.34598,11.41352 -62.17388,11.3112c-14.66114,-0.07566 -46.04401,-11.86963 -46.04401,-11.86963z" fill="url(#color-4)" stroke="#000000" stroke-width="0" stroke-linecap="butt"/><path d="M255.46575,123.92951c-0.66336,0.96085 -3.05479,1.48966 -4.95346,2.11738c-0.31109,0.10285 -1.84223,0.65635 -2.60951,0.50144c-1.84016,-0.37153 -1.38988,-1.88859 -3.99569,-2.4275c-2.61148,-0.5401 -5.04815,0.13337 -7.54574,-0.41705c-2.3751,-0.52342 -1.93717,-1.90953 -4.27742,-2.46399c-2.34811,-0.55632 -5.57343,0.31077 -7.18685,-0.49097c-3.74588,-1.86141 -4.28495,-3.75853 1.53108,-3.91265" fill="#211fff" stroke-opacity="0.4902" stroke="#000000" stroke-width="2.5" stroke-linecap="round"/><path d="M404.77412,108.5083c5.75787,-0.9451 5.53129,0.7055 2.13786,2.91749c-1.46161,0.95275 -4.78024,0.83769 -7.0055,1.72506c-2.2178,0.88439 -1.56342,1.9372 -3.82057,2.80263c-2.37355,0.91006 -4.88367,0.80811 -7.37115,1.7307c-2.48208,0.92059 -1.79448,2.07819 -3.54871,2.7209c-0.73146,0.26799 -2.32969,0.09737 -2.65287,0.07056c-1.97245,-0.16364 -4.41474,-0.15563 -5.22301,-0.81918" fill="#211fff" stroke-opacity="0.4902" stroke="#000000" stroke-width="2.5" stroke-linecap="round"/><path d="M270.81826,127.89058c0,0 -12.91808,-8.35144 -21.13355,-11.00135c-9.17042,-2.95793 -31.33977,-5.92395 -31.33977,-5.92395l67.13809,-27.70738z" fill="url(#color-5)" stroke-opacity="0.50196" stroke="#000000" stroke-width="0" stroke-linecap="butt"/><path d="M342.6999,80.77765l70.36496,23.80787c0,0 -22.53935,4.23394 -31.76344,7.71352c-8.26356,3.11725 -21.017,12.19671 -21.017,12.19671z" fill="url(#color-6)" stroke-opacity="0.50196" stroke="#000000" stroke-width="0" stroke-linecap="butt"/><path d="M369.7526,121.44918c-1.13268,28.53174 -26.41684,53.69905 -56.64566,52.49899c-30.22883,-1.20005 -53.95529,-28.31302 -52.82261,-56.84475c1.13268,-28.53173 26.55622,-50.68845 56.78504,-49.48838c30.22883,1.20005 53.81593,25.30241 52.68325,53.83414z" fill="url(#color-7)" stroke="#000000" stroke-width="0" stroke-linecap="butt"/><path d="M369.7526,121.44918c-1.13268,28.53174 -26.41684,53.69905 -56.64566,52.49899c-30.22883,-1.20005 -53.95529,-28.31302 -52.82261,-56.84475c1.13268,-28.53173 26.55622,-50.68845 56.78504,-49.48838c30.22883,1.20005 53.81593,25.30241 52.68325,53.83414z" fill="url(#color-8)" stroke="#000000" stroke-width="0" stroke-linecap="butt"/><g fill-opacity="0.46667" fill="#000000" stroke="none" stroke-width="0.5" stroke-linecap="butt"><path d="M294.09888,201.40156c0.90556,-0.39236 1.29792,0.51321 1.29792,0.51321l0.19054,0.65628c2.53165,0.5199 4.20391,-2.44685 2.6015,-4.5109c-0.80231,-1.03345 -2.35688,-1.16938 -3.12094,-2.15386c-2.32426,-2.99479 2.42072,-4.09155 4.44917,-3.9621c0,0 0.9844,0.07033 0.91408,1.05473c-0.07032,0.9844 -1.05473,0.91408 -1.05473,0.91408c-0.29186,-0.02374 -0.58333,-0.08953 -0.87559,-0.07122c-0.32008,0.02006 -0.63988,0.0838 -0.94413,0.18523c-2.27746,0.75917 -0.12595,0.83728 1.08297,1.76919c0.9021,0.6954 1.56048,1.44422 1.91253,2.56103c1.36224,4.32143 -2.57416,7.0758 -6.29749,5.66985l-0.66902,-1.32761c0,0 -0.39236,-0.90557 0.51321,-1.29793z"/><path d="M311.31097,207.63728c-0.60088,0.01704 -0.84614,-0.34228 -0.94608,-0.62581c-2.03303,-2.25454 -4.10133,-5.38443 -4.47924,-8.44057c-0.15619,0.18855 -0.30419,0.38571 -0.44297,0.59234c0,0 -0.03145,0.04594 -0.09033,0.10851c0.19736,2.01438 0.33774,4.03648 0.55008,6.03884l0.1274,0.98927c0,0 0.126,0.97884 -0.85283,1.10484c-0.97883,0.126 -1.10484,-0.85283 -1.10484,-0.85283l-0.13017,-1.01169c-0.43301,-4.12308 -0.55033,-8.34484 -1.5382,-12.38813c0,0 -0.23406,-0.95876 0.7247,-1.19281c0.95876,-0.23405 1.19282,0.7247 1.19282,0.7247c0.31472,1.29017 0.5436,2.59669 0.72318,3.9118c1.37601,-1.35073 3.07497,-2.30344 4.8603,-3.15889l0.5583,-0.17187c0,0 0.95028,-0.26641 1.21669,0.68387c0.26641,0.95028 -0.68386,1.21669 -0.68386,1.21669l-0.23866,0.05157c-1.13384,0.54256 -2.27113,1.12622 -3.27443,1.86711c0.30689,0.28378 0.3195,0.72852 0.3195,0.72852c0.05493,2.83877 2.31232,6.0359 4.20183,8.06705l0.26536,0.74304c0,0 0.02798,0.98651 -0.95854,1.01449z"/><path d="M315.51921,207.3171c-0.98652,0.02798 -1.0145,-0.95855 -1.0145,-0.95855l-0.00085,-0.20297c-0.42826,-3.32696 -1.02394,-6.73391 -1.77541,-9.99599c0,0 -0.22091,-0.96187 0.74097,-1.18278c0.96187,-0.22091 1.18278,0.74097 1.18278,0.74097c0.76157,3.32552 1.37293,6.79565 1.80933,10.1858l0.01622,0.39902c0,0 0.02798,0.98652 -0.95855,1.0145z"/><path d="M322.25733,205.71824c2.53074,-3.22144 -2.55178,-5.40649 -1.93029,-7.71611c0.33827,-1.25711 3.23839,-1.05589 3.10081,-2.74849c-0.1876,-2.30788 -2.04584,-1.66484 -3.57474,-0.73533c0,0 -0.05484,0.03254 -0.14491,0.06711c0.5429,3.7118 0.85082,7.53698 0.9732,11.2716c0.51872,0.27183 0.77061,0.13222 1.57593,-0.1388zM321.35419,191.8339c7.05984,-1.26263 2.68201,6.35083 1.22165,6.73801c0.55892,0.51881 1.50557,1.57812 1.7251,2.17134c0.89824,2.42727 0.76496,4.60657 -0.90446,6.58694c-1.81586,0.6897 -2.51833,0.90607 -4.20952,-0.08207l-0.55796,-0.76578c0,0 -0.31904,-0.59527 0.06317,-1.06488c-0.1413,-3.9111 -0.49922,-7.92007 -1.12513,-11.76769c0,0 -0.15812,-0.97416 0.81605,-1.13228c0.33139,-0.05379 0.56833,0.02346 0.73675,0.14879c0.70029,-0.38222 1.45283,-0.69259 2.23435,-0.83236z"/><path d="M328.12795,207.14692c-0.96849,0.18978 -1.15828,-0.77871 -1.15828,-0.77871l-0.13544,-0.76096c-0.11305,-4.04489 -0.53035,-8.07897 -0.64528,-12.13168c0,0 -0.02798,-0.98651 0.95855,-1.01449c0.98652,-0.02798 1.01449,0.95854 1.01449,0.95854c0.11495,4.05317 0.52898,8.08609 0.64529,12.13168l0.09939,0.43735c0,0 0.18977,0.96849 -0.77872,1.15827z"/><path d="M340.16327,208.8273c-0.98652,0.02798 -1.0145,-0.95855 -1.0145,-0.95855l-0.03161,-1.14468c0.05072,-0.93569 0.09933,-1.87847 0.13504,-2.82452c-0.31822,2.19591 -1.51808,4.00294 -4.2443,4.36764l-1.09678,-0.07194c0,0 -0.98024,-0.08086 -0.90283,-1.05972c-0.141,0.16602 -0.36399,0.29838 -0.71647,0.30837c-0.98652,0.02798 -1.0145,-0.95854 -1.0145,-0.95854l0.00199,-0.10264c-0.51561,-4.01674 -0.63274,-7.97576 -0.74761,-12.0262c0,0 -0.02798,-0.98651 0.95855,-1.01449c0.32671,-0.00927 0.5483,0.09274 0.69856,0.23333c0.80779,-0.73529 1.83196,-1.39544 2.92578,-0.98154c1.73789,0.65762 2.51947,3.1959 3.13702,4.71397c0.52171,1.28246 0.93512,2.8452 1.05541,4.38625c0.02359,-2.42606 -0.09183,-4.85414 -0.52663,-7.22048c0,0 -0.17765,-0.97079 0.79314,-1.14846c0.97079,-0.17766 1.14845,0.79313 1.14845,0.79313c0.75431,4.13749 0.60114,8.44856 0.36886,12.63192l0.031,1.06264c0,0 0.02798,0.98652 -0.95855,1.0145zM334.07339,206.22812l0.71489,0.07752c4.64679,-0.36785 2.01161,-7.51304 0.90569,-9.89122c-0.14143,-0.30414 -0.67666,-1.66319 -1.19,-1.94357c-0.44232,-0.24158 -1.51804,1.08221 -1.64648,1.22076c0,0 -0.11738,0.12423 -0.30612,0.22045c0.10327,3.42731 0.24469,6.80229 0.68563,10.21869l0.01337,0.29869c0,0 0.00112,0.03941 -0.00497,0.1027c0.31564,-0.34629 0.828,-0.30401 0.828,-0.30401z"/><path d="M302.61975,209.80842c0.02798,0.98652 -0.95855,1.01449 -0.95855,1.01449l-0.82741,0.02055c-1.25917,0.13217 -2.52507,0.19273 -3.79242,0.22982c0.21196,3.98663 1.21252,7.84899 1.33013,11.80889l0.07548,0.16005c0,0 0.26641,0.95028 -0.68387,1.21669c-0.95028,0.26641 -1.21668,-0.68387 -1.21668,-0.68387l-0.14796,-0.63691c-0.10633,-3.95487 -1.11869,-7.83158 -1.33057,-11.81932c-0.54408,0.01104 -1.08791,0.02235 -1.63111,0.03775c0,0 -0.98652,0.02798 -1.0145,-0.95854c-0.02798,-0.98652 0.95855,-1.0145 0.95855,-1.0145c2.41397,-0.06846 4.84398,-0.04818 7.24583,-0.30299l0.97857,-0.03065c0,0 0.98652,-0.02798 1.0145,0.95855z"/><path d="M306.2021,211.05095c-7.1015,3.74661 2.42906,17.77638 2.98406,5.91614c0.10382,-1.48816 -0.13771,-4.55569 -1.77075,-5.08708l-0.36433,-0.01842c0,0 -0.76815,-0.10574 -0.84897,-0.81064zM306.84335,209.95183c0.25015,-0.07685 0.47693,-0.04563 0.47693,-0.04563l0.84535,0.1481c2.51423,1.15003 3.13666,4.44678 2.99101,7.02828c-1.03306,16.83356 -16.77997,-1.63393 -5.76424,-7.83421c0,0 0.86986,-0.46621 1.33607,0.40365c0.05679,0.10597 0.09377,0.20594 0.11489,0.29981z"/><path d="M314.82555,224.95882c-0.92705,0.33851 -1.26555,-0.58854 -1.26555,-0.58854l-0.13211,-0.37025c-1.31624,-4.69901 -0.80208,-9.53957 -0.9391,-14.37106c0,0 -0.02798,-0.98652 0.95855,-1.0145c0.98652,-0.02798 1.01449,0.95855 1.01449,0.95855c0.13208,4.65719 -0.40324,9.36862 0.86662,13.89421l0.08564,0.22606c0,0 0.33851,0.92705 -0.58854,1.26555z"/><path d="M326.27347,221.70198c0.41432,0.89573 -0.48141,1.31005 -0.48141,1.31005l-0.82155,0.36958c-8.08499,2.39294 -7.2047,-7.97299 -6.42241,-13.09698c0,0 0.14894,-0.9756 1.12456,-0.82666c0.97561,0.14895 0.82666,1.12456 0.82666,1.12456c-0.53959,3.53438 -2.10241,12.78766 3.89807,10.91029l0.56603,-0.27226c0,0 0.89573,-0.41432 1.31005,0.48142z"/><path d="M335.08046,214.31016c0.02798,0.98652 -0.95855,1.0145 -0.95855,1.0145l-0.59534,-0.00229c-1.73723,-0.30578 -3.57534,-0.10456 -5.34672,-0.03251c0.05269,1.56023 0.46015,2.85499 0.89485,4.36331c0.13599,0.47183 0.30134,1.72996 0.95952,1.91162c0.79973,0.22073 1.68587,-0.26227 2.37578,-0.56461l0.11716,-0.10894c0,0 0.80532,-0.5705 1.37582,0.23482c0.5705,0.80532 -0.23481,1.37581 -0.23481,1.37581l-0.47345,0.30947c-1.16944,0.5018 -2.50767,1.0869 -3.81638,0.61513c-2.54746,-0.9183 -3.10578,-5.94899 -3.17393,-8.16168c-0.05464,-1.7739 -0.46911,-4.32246 1.12159,-5.6281c1.43823,-1.1805 3.74507,-0.68427 5.35842,-0.33333c0,0 0.96385,0.21212 0.75173,1.17597c-0.21212,0.96385 -1.17598,0.75173 -1.17598,0.75173c-0.90514,-0.20184 -2.80597,-0.75673 -3.67148,-0.07726c-0.48739,0.38262 -0.57278,1.28064 -0.54572,2.16663c1.93468,-0.06929 3.90769,-0.26098 5.81568,0.05625l0.20731,-0.02505c0,0 0.98652,-0.02798 1.0145,0.95854z"/><path d="M340.50212,223.9294c-0.92705,0.33851 -1.26555,-0.58854 -1.26555,-0.58854l-0.11648,-0.3198c-1.31596,-3.88759 -2.26982,-7.84498 -0.47387,-11.76389c0,0 0.41616,-0.89489 1.31104,-0.47873c0.89488,0.41616 0.47873,1.31105 0.47873,1.31105c-1.60795,3.39635 -0.58591,6.94229 0.55345,10.29785l0.10124,0.27651c0,0 0.33851,0.92705 -0.58853,1.26555z"/><path d="M345.82219,211.03235c-0.11182,0.98055 -1.09237,0.86874 -1.09237,0.86874l-0.82594,-0.10186c-2.23503,-0.55126 -4.9047,-0.74981 -7.19508,-0.46811c0,0 -0.97993,0.11718 -1.09711,-0.86276c-0.11718,-0.97993 0.86276,-1.09711 0.86276,-1.09711c2.53687,-0.29588 5.41464,-0.08285 7.8946,0.50975l0.58441,0.05897c0,0 0.98055,0.11182 0.86874,1.09238z"/></g><path d="M283.66715,76.71934l29.12442,-54.44862l31.58397,53.06304c0,0 -2.23806,2.66644 -9.99298,4.47014c-6.569,1.52787 -18.3254,2.22696 -23.27243,2.33987c-4.23671,0.0967 -14.14637,-0.94155 -19.55749,-2.2038c-6.33006,-1.47662 -7.88549,-3.22061 -7.88549,-3.22061z" fill="url(#color-9)" stroke="#000000" stroke-width="0" stroke-linecap="butt"/><path d="M314.71024,47.75697c-0.04159,3.56546 -2.85454,6.42341 -6.28287,6.38341c-3.42832,-0.04 -6.17382,-2.9628 -6.13222,-6.52826c0.04159,-3.56546 2.85454,-6.42342 6.28287,-6.38342c3.42833,0.04 6.17382,2.9628 6.13222,6.52828z" fill="#1dff00" stroke="#000000" stroke-width="0" stroke-linecap="butt"/><path d="M332.07499,67.10209c-0.04159,3.56546 -2.85454,6.42343 -6.28287,6.38343c-3.42832,-0.04 -6.17383,-2.9628 -6.13223,-6.52828c0.04159,-3.56546 2.85454,-6.42341 6.28288,-6.38341c3.42833,0.04 6.17382,2.9628 6.13222,6.52826z" fill="#fa00ff" stroke="#000000" stroke-width="0" stroke-linecap="butt"/><path d="M305.10316,72.99581c-0.04159,3.56546 -2.85454,6.42342 -6.28287,6.38342c-3.42832,-0.04 -6.17382,-2.96281 -6.13222,-6.52827c0.04159,-3.56546 2.85454,-6.42342 6.28287,-6.38342c3.42833,0.04 6.17382,2.9628 6.13222,6.52827z" fill="#0007ff" stroke="#000000" stroke-width="0" stroke-linecap="butt"/><path d="M326.66158,23.8492l-30.55111,-1.26886" fill="none" stroke="#000000" stroke-width="2.5" stroke-linecap="round"/><path d="M325.20003,31.81577l-12.22546,-7.89817l-0.73666,-15.06345" fill="none" stroke="#000000" stroke-width="2.5" stroke-linecap="round"/><path d="M312.06225,23.90697l-10.79393,6.26097" fill="none" stroke="#000000" stroke-width="2.5" stroke-linecap="round"/><path d="M348.89958,93.57648c0,0 -4.90832,41.00501 -7.18302,52.66612c-1.11913,5.73716 -5.66883,13.21805 -5.66883,13.21805l-8.79925,-4.94586l-11.24978,10.4212l-11.2864,-11.22524l-6.43693,7.10974l-10.52752,-14.99899l-9.59047,-43.02297l13.06802,2.80436l21.70584,-8.12003l26.19328,7.62754l9.77507,-11.53391z" fill="#000000" stroke="#000000" stroke-width="2.5" stroke-linecap="round"/><path d="M281.30635,104.82321l11.62918,1.81422l21.46714,-6.61207l25.30187,7.64414l6.65487,-7.264l-5.02478,26.94281l-1.81394,-18.60157l-5.10218,16.65368l-6.10463,-18.69429l-6.80386,17.13075l-5.64579,-17.63529l-5.92872,17.74914l-7.75163,-16.28916l-3.23485,14.4567l-8.28497,-12.4148l-4.17077,11.69602l-3.58405,-12.97691z" fill="#ffffff" stroke="#ffffff" stroke-width="1.5" stroke-linecap="round"/><path d="M299.52908,157.69263l-7.81398,-10.92733l6.55607,-3.18756l5.50764,5.20387l12.03493,-6.55897l12.81577,5.85422l11.00631,-5.02899l-3.25309,13.81402l-10.8148,-3.33814l-9.19526,8.40807l-10.77067,-9.34266z" fill="#ffffff" stroke="#ffffff" stroke-width="1.5" stroke-linecap="round"/></g></g></svg>