<svg version="1.1" xmlns="http://www.w3.org/2000/svg" xmlns:xlink="http://www.w3.org/1999/xlink" width="153.95254" height="308.93511" viewBox="0,0,153.95254,308.93511"><defs><radialGradient cx="311.77488" cy="235.24499" r="89.41619" gradientUnits="userSpaceOnUse" id="color-1"><stop offset="0" stop-color="#bebebe"/><stop offset="1" stop-color="#dadada"/></radialGradient><linearGradient x1="315.49136" y1="170.9028" x2="317.49267" y2="236.58546" gradientUnits="userSpaceOnUse" id="color-2"><stop offset="0" stop-color="#fff800"/><stop offset="1" stop-color="#d97200"/></linearGradient><linearGradient x1="258.42931" y1="91.08314" x2="260.88261" y2="171.60023" gradientUnits="userSpaceOnUse" id="color-3"><stop offset="0" stop-color="#fff800"/><stop offset="1" stop-color="#d97200"/></linearGradient><linearGradient x1="369.46074" y1="87.01576" x2="371.91406" y2="167.53285" gradientUnits="userSpaceOnUse" id="color-4"><stop offset="0" stop-color="#fff800"/><stop offset="1" stop-color="#d97200"/></linearGradient><linearGradient x1="313.17617" y1="73.92684" x2="316.41769" y2="180.31309" gradientUnits="userSpaceOnUse" id="color-5"><stop offset="0" stop-color="#dadada"/><stop offset="1" stop-color="#bebebe"/></linearGradient><linearGradient x1="312.33675" y1="99.00217" x2="313.42361" y2="134.67331" gradientUnits="userSpaceOnUse" id="color-6"><stop offset="0" stop-color="#f1de00"/><stop offset="1" stop-color="#f28f00"/></linearGradient><linearGradient x1="260.80466" y1="49.97765" x2="264.12768" y2="103.20731" gradientUnits="userSpaceOnUse" id="color-7"><stop offset="0" stop-color="#fff800"/><stop offset="1" stop-color="#d97200"/></linearGradient><linearGradient x1="386.53119" y1="51.85902" x2="361.63209" y2="99.61891" gradientUnits="userSpaceOnUse" id="color-8"><stop offset="0" stop-color="#fff800"/><stop offset="1" stop-color="#d97200"/></linearGradient><radialGradient cx="261.36233" cy="47.17617" r="7.8102" gradientUnits="userSpaceOnUse" id="color-9"><stop offset="0" stop-color="#ffffff"/><stop offset="1" stop-color="#00b5ff"/></radialGradient><radialGradient cx="387.43831" cy="49.43756" r="7.8102" gradientUnits="userSpaceOnUse" id="color-10"><stop offset="0" stop-color="#ffffff"/><stop offset="1" stop-color="#00b5ff"/></radialGradient><linearGradient x1="346.8817" y1="186.13374" x2="377.1008" y2="183.51226" gradientUnits="userSpaceOnUse" id="color-11"><stop offset="0" stop-color="#fff800"/><stop offset="1" stop-color="#d97200"/></linearGradient><linearGradient x1="285.74628" y1="187.78506" x2="255.48409" y2="187.00641" gradientUnits="userSpaceOnUse" id="color-12"><stop offset="0" stop-color="#fff800"/><stop offset="1" stop-color="#d97200"/></linearGradient></defs><g transform="translate(-241.6526,-38.91347)"><g stroke-miterlimit="10"><path d="M277.86537,345.63873l-6.43963,-147.14793c0,0 5.29783,-25.87156 14.28788,-26.5509c8.92786,-0.67463 30.10153,-1.87667 48.58562,-3.27344c20.04817,-1.51496 27.12131,25.16036 27.12131,25.16036l4.8725,152.75788z" fill="url(#color-1)" stroke="#000000" stroke-width="2.5" stroke-linecap="butt"/><path d="M285.12909,213.85582l-1.27938,-41.98891l63.28329,-1.92821l1.27938,41.98891l-30.46983,24.64414z" fill="url(#color-2)" stroke="#000000" stroke-width="2.5" stroke-linecap="butt"/><g stroke="#000000" stroke-width="2.5"><path d="M255.54271,171.76294l-12.34509,-80.2157l21.48621,7.03715l11.18825,64.60204z" fill="url(#color-3)" stroke-linecap="butt"/><path d="M262.11609,104.02278l9.5501,55.14323" fill="none" stroke-linecap="round"/></g><g stroke="#000000" stroke-width="2.5"><path d="M358.22747,159.99281l4.92084,-65.09288l19.75677,-8.29382l-4.64281,80.73331z" fill="url(#color-4)" stroke-linecap="butt"/><path d="M363.82889,99.73906l-4.20035,55.5622" fill="none" stroke-linecap="round"/></g><path d="M369.48975,127.6792c-1.07252,28.53406 -26.30356,53.75462 -56.53486,52.6183c-30.23129,-1.13631 -54.01486,-28.19921 -52.94234,-56.73326c1.07252,-28.53405 26.44929,-50.74432 56.68058,-49.60799c30.23129,1.13631 53.86916,25.1889 52.79663,53.72295z" fill="url(#color-5)" stroke="#000000" stroke-width="2.5" stroke-linecap="butt"/><path d="M256.74433,132.24357l-0.85059,-27.91616c0,0 37.89264,-4.76 56.80321,-5.3362c18.7905,-0.57254 56.30231,1.88993 56.30231,1.88993l0.85059,27.91617c0,0 -36.66201,5.27381 -55.25294,5.84027c-19.09729,0.58188 -57.85258,-2.394 -57.85258,-2.394z" fill="url(#color-6)" stroke="#000000" stroke-width="2.5" stroke-linecap="butt"/><path d="M272.67078,131.07767c0,0 -11.72645,-11.05397 -11.7903,-13.1494c-0.11993,-3.93597 11.04043,-11.46117 11.04043,-11.46117c0,0 26.26568,-3.88116 39.78455,-4.29307c13.98671,-0.42617 42.77995,1.77738 42.77995,1.77738c0,0 11.83856,6.04021 11.95011,9.70116c0.1342,4.40436 -11.20023,14.90941 -11.20023,14.90941c0,0 -28.17631,3.7024 -42.12605,4.12744c-13.56076,0.41319 -40.43845,-1.61174 -40.43845,-1.61174z" fill="#000000" stroke="none" stroke-width="0" stroke-linecap="butt"/><path d="M260.10697,103.42394l-3.32304,-53.22966l8.04144,-0.43326l3.32305,53.22966z" fill="url(#color-7)" stroke="#000000" stroke-width="2.5" stroke-linecap="butt"/><path d="M358.04688,97.78602l24.89909,-47.75988l7.17043,3.66578l-24.89908,47.75988z" fill="url(#color-8)" stroke="#000000" stroke-width="2.5" stroke-linecap="butt"/><path d="M269.03659,46.94233c0.11801,3.873 -3.22221,7.11739 -7.46059,7.24653c-4.23837,0.12914 -7.76992,-2.90586 -7.88793,-6.77886c-0.11801,-3.873 3.22221,-7.11739 7.46059,-7.24653c4.23837,-0.12914 7.76992,2.90586 7.88793,6.77886z" fill="url(#color-9)" stroke="#000000" stroke-width="2.5" stroke-linecap="butt"/><path d="M394.35514,52.77022c-1.6819,3.49074 -6.14212,4.82846 -9.96219,2.98788c-3.82005,-1.84057 -5.55337,-6.16246 -3.87147,-9.65319c1.6819,-3.49074 6.14213,-4.82847 9.96219,-2.98789c3.82005,1.84057 5.55337,6.16246 3.87146,9.6532z" fill="url(#color-10)" stroke="#000000" stroke-width="2.5" stroke-linecap="butt"/><path d="M276.56493,162.06002l-4.86194,-27.34264" fill="none" stroke="#000000" stroke-width="2.5" stroke-linecap="round"/><path d="M354.33358,163.24529l4.73019,-31.42673" fill="none" stroke="#000000" stroke-width="2.5" stroke-linecap="round"/><path d="M299.93131,224.25298l-10.84496,-48.38064" fill="none" stroke="#000000" stroke-width="2.5" stroke-linecap="round"/><path d="M335.05653,223.56548l6.6071,-48.82117" fill="none" stroke="#000000" stroke-width="2.5" stroke-linecap="round"/><path d="M365.29962,199.74563l-19.31814,1.67583l1.80045,-30.57545l19.31814,-1.67583l10.01353,14.12472z" fill="url(#color-11)" stroke="#000000" stroke-width="2.5" stroke-linecap="butt"/><path d="M255.4658,186.79l9.64794,-14.72379l19.34568,0.49776l2.57372,30.44217l-19.34568,-0.49776z" fill="url(#color-12)" stroke="#000000" stroke-width="2.5" stroke-linecap="butt"/><path d="M295.11822,98.51776l2.07787,-20.47686" fill="none" stroke-opacity="0.54902" stroke="#000000" stroke-width="2.5" stroke-linecap="round"/><path d="M326.00275,76.49941l5.75662,21.43894" fill="none" stroke-opacity="0.54902" stroke="#000000" stroke-width="2.5" stroke-linecap="round"/><path d="M312.09513,74.82177l0.82996,23.09005" fill="none" stroke-opacity="0.54902" stroke="#000000" stroke-width="2.5" stroke-linecap="round"/><path d="M291.36854,129.4227l-1.35859,-13.28442l5.57355,-0.0506l1.35859,13.28442z" fill="#ffffff" stroke="none" stroke-width="0" stroke-linecap="butt"/><path d="M316.54695,175.64951c-3.86402,0.09299 -19.73195,-9.33446 -19.73195,-9.33446l2.99275,2.34849c0,0 14.64842,0.23678 16.61887,0.18935c0.78729,-0.01895 10.49294,-0.76849 16.18643,-0.95246c1.67252,-0.05404 2.99881,-2.11871 3.65108,-2.04228c0.78622,0.01966 -4.65883,3.6676 -4.65883,3.6676c0,0 -12.31777,6.0578 -15.05834,6.12376z" fill="none" stroke="#000000" stroke-width="2.5" stroke-linecap="butt"/><path d="M329.6137,127.59946l-1.35859,-13.28442l5.57355,-0.0506l1.35859,13.28442z" fill="#ffffff" stroke="none" stroke-width="0" stroke-linecap="butt"/></g></g></svg>