<svg version="1.1" xmlns="http://www.w3.org/2000/svg" xmlns:xlink="http://www.w3.org/1999/xlink" width="161.27043" height="365.55731" viewBox="0,0,161.27043,365.55731"><defs><linearGradient x1="326.93929" y1="230.34478" x2="324.13645" y2="305.58229" gradientUnits="userSpaceOnUse" id="color-1"><stop offset="0" stop-color="#545454"/><stop offset="1" stop-color="#2f2f2f"/></linearGradient><linearGradient x1="333.25042" y1="196.20002" x2="330.44759" y2="271.43754" gradientUnits="userSpaceOnUse" id="color-2"><stop offset="0" stop-color="#545454"/><stop offset="1" stop-color="#2f2f2f"/></linearGradient><linearGradient x1="330.71954" y1="164.40627" x2="327.91671" y2="239.64381" gradientUnits="userSpaceOnUse" id="color-3"><stop offset="0" stop-color="#545454"/><stop offset="1" stop-color="#2f2f2f"/></linearGradient><linearGradient x1="330.58666" y1="167.81258" x2="323.70514" y2="352.53618" gradientUnits="userSpaceOnUse" id="color-4"><stop offset="0" stop-color="#4e2710"/><stop offset="1" stop-color="#3a1a09"/></linearGradient><linearGradient x1="331.95311" y1="167.85194" x2="330.95977" y2="194.51639" gradientUnits="userSpaceOnUse" id="color-5"><stop offset="0" stop-color="#e07130"/><stop offset="1" stop-color="#c2551f"/></linearGradient><linearGradient x1="303.35522" y1="198.06042" x2="302.30811" y2="226.16834" gradientUnits="userSpaceOnUse" id="color-6"><stop offset="0" stop-color="#4e2710"/><stop offset="1" stop-color="#3a1a09"/></linearGradient><linearGradient x1="382.74928" y1="140.91764" x2="375.90628" y2="193.5076" gradientUnits="userSpaceOnUse" id="color-7"><stop offset="0" stop-color="#e07130"/><stop offset="1" stop-color="#c2551f"/></linearGradient><linearGradient x1="381.30671" y1="122.93392" x2="385.84366" y2="176.36615" gradientUnits="userSpaceOnUse" id="color-8"><stop offset="0" stop-color="#e07130"/><stop offset="1" stop-color="#c2551f"/></linearGradient><linearGradient x1="277.07749" y1="146.15926" x2="292.75537" y2="197.61868" gradientUnits="userSpaceOnUse" id="color-9"><stop offset="0" stop-color="#e07130"/><stop offset="1" stop-color="#c2551f"/></linearGradient><linearGradient x1="277.70886" y1="124.01402" x2="282.24581" y2="177.44624" gradientUnits="userSpaceOnUse" id="color-10"><stop offset="0" stop-color="#e07130"/><stop offset="1" stop-color="#c2551f"/></linearGradient><linearGradient x1="322.44415" y1="67.78618" x2="331.80459" y2="178.02501" gradientUnits="userSpaceOnUse" id="color-11"><stop offset="0" stop-color="#e07130"/><stop offset="1" stop-color="#c2551f"/></linearGradient><linearGradient x1="328.69641" y1="158.28205" x2="330.56184" y2="171.56112" gradientUnits="userSpaceOnUse" id="color-12"><stop offset="0" stop-color="#f05016"/><stop offset="1" stop-color="#be4c22"/></linearGradient><linearGradient x1="301.54542" y1="-2.23326" x2="321.20013" y2="83.90485" gradientUnits="userSpaceOnUse" id="color-13"><stop offset="0" stop-color="#a1a1a1"/><stop offset="1" stop-color="#767676"/></linearGradient></defs><g transform="translate(-253.71866,11.72107)"><g stroke-miterlimit="10"><g stroke="#000000" stroke-width="2.5"><path d="M393.36663,295.97751l-70.87654,9.60479l-66.86819,-9.60479c0,0 33.28023,-65.63274 71.31738,-65.63274c38.03716,0 66.42735,65.63274 66.42735,65.63274z" fill="url(#color-1)" stroke-linecap="butt"/><path d="M266.20104,292.05645l56.73903,-17.75268l58.98851,15.21658" fill="none" stroke-linecap="round"/><path d="M294.73447,296.28328l29.05307,-9.72171l34.49343,7.60828" fill="none" stroke-linecap="round"/></g><g stroke="#000000" stroke-width="2.5"><path d="M399.67776,261.83272l-70.87654,9.60479l-66.86819,-9.60479c0,0 33.28023,-65.63274 71.31738,-65.63274c38.03716,0 66.42735,65.63274 66.42735,65.63274z" fill="url(#color-2)" stroke-linecap="butt"/><path d="M272.51217,257.91167l56.73903,-17.75268l58.98851,15.21658" fill="none" stroke-linecap="round"/><path d="M301.04561,262.13849l29.05307,-9.72171l34.49343,7.60829" fill="none" stroke-linecap="round"/></g><g stroke="#000000" stroke-width="2.5"><path d="M397.14688,230.039l-70.87653,9.60479l-66.8682,-9.60479c0,0 33.28023,-65.63274 71.31739,-65.63274c38.03716,0 66.42734,65.63274 66.42734,65.63274z" fill="url(#color-3)" stroke-linecap="butt"/><path d="M269.98128,226.11794l56.73904,-17.75267l58.98851,15.21658" fill="none" stroke-linecap="round"/><path d="M298.51473,230.34478l29.05307,-9.7217l34.49343,7.60829" fill="none" stroke-linecap="round"/></g><path d="M278.63057,348.77769l3.62089,-152.12745c0,0 7.35566,-26.54478 16.79755,-26.96336c9.37656,-0.41568 31.58641,-0.99064 50.99952,-1.85127c21.05578,-0.93345 26.57055,26.83036 26.57055,26.83036l-5.65306,157.87022z" fill="url(#color-4)" stroke="#000000" stroke-width="2.5" stroke-linecap="butt"/><path d="M349.70424,181.18416c-0.2743,7.36319 -8.66648,13.33223 -18.74445,13.33223c-10.07797,0 -18.02542,-5.96905 -17.75111,-13.33223c0.2743,-7.36319 8.66648,-13.33223 18.74445,-13.33223c10.07797,0 18.02542,5.96905 17.75111,13.33223z" fill="url(#color-5)" stroke="#000000" stroke-width="2.5" stroke-linecap="butt"/><path d="M316.02883,212.11438c-0.28914,7.76178 -6.43212,14.05396 -13.72071,14.05396c-7.28859,0 -12.96275,-6.29217 -12.6736,-14.05396c0.28914,-7.76178 6.43212,-14.05396 13.72071,-14.05396c7.28859,0 12.96275,6.29217 12.6736,14.05396z" fill="url(#color-6)" stroke="#ffffff" stroke-width="2.5" stroke-linecap="butt"/><path d="M299.31691,207.75024l-1.09413,1.80089" fill="none" stroke="#ffffff" stroke-width="2.5" stroke-linecap="round"/><path d="M306.99924,209.55113l-0.49684,-1.70084" fill="none" stroke="#ffffff" stroke-width="2.5" stroke-linecap="round"/><path d="M310.41316,215.65413l-2.82317,3.10153h-10.83051l-1.74433,-3.30164" fill="none" stroke="#ffffff" stroke-width="2.5" stroke-linecap="round"/><path d="M356.63099,217.90244c-1.47442,-0.78349 2.20638,-3.61473 3.11461,-4.96444c2.39683,-3.56191 7.54355,-7.28067 11.64873,-4.5788c4.14634,2.72894 4.43414,16.80253 5.41703,21.95874c0.6396,3.3552 -1.92744,8.8525 -2.76588,12.09339c-0.89336,3.45314 -1.01369,7.88347 -3.28216,10.84814c-1.96309,2.56556 -4.92861,4.92653 -7.38067,6.60583c-3.46794,2.375 -6.21632,6.55554 -10.01924,8.3403c-5.50576,2.58394 -15.05374,0.38223 -20.08773,-2.72224c-6.22719,-3.84032 -11.01046,-11.58248 -7.53694,-19.40541c0.9599,-2.16185 4.04557,-2.80981 4.89808,-4.83705c1.09943,-2.6144 -1.53393,-6.19004 2.17934,-9.60347c1.22115,-1.12253 4.23776,-1.40627 5.24362,-2.68871c2.23494,-2.84947 0.20344,-8.96637 2.17397,-12.19307c2.42648,-3.97332 14.39617,-1.10291 17.26257,1.08863z" fill="#d7692b" stroke="#000000" stroke-width="2.5" stroke-linecap="round"/><path d="M304.10342,211.95282c3.0297,-2.19154 15.21324,-5.06195 17.3437,-1.08863c1.73014,3.22671 -0.75712,9.34362 1.26551,12.19308c0.91031,1.28244 3.90578,1.56617 5.04329,2.6887c3.45896,3.41343 0.55919,6.98908 1.46383,9.60347c0.70147,2.02724 3.73886,2.6752 4.53768,4.83705c2.89067,7.82293 -2.46945,15.56509 -8.98276,19.40541c-5.2653,3.10447 -14.97732,5.30616 -20.29054,2.72223c-3.66993,-1.78476 -6.10685,-5.96529 -9.39782,-8.34029c-2.32696,-1.6793 -5.11657,-4.04027 -6.8885,-6.60583c-2.04759,-2.96467 -1.83784,-7.395 -2.47393,-10.84814c-0.59699,-3.24089 -2.75442,-8.73818 -1.86485,-12.09339c1.36708,-5.15621 2.70345,-19.2298 7.05311,-21.95874c4.30649,-2.70187 9.17615,1.01689 11.30759,4.5788c0.80766,1.3497 4.27751,4.18094 2.74473,4.96443z" fill="#d7692b" stroke="#000000" stroke-width="2.5" stroke-linecap="round"/><path d="M367.58538,137.90151c0,0 12.52488,11.47459 17.33298,20.36008c5.87979,10.86602 15.38206,40.09809 15.38206,40.09809c0,0 -16.2853,-21.10835 -24.45715,-25.91596c-7.20285,-4.23751 -22.03481,-1.43584 -22.03481,-1.43584z" fill="url(#color-7)" stroke="#000000" stroke-width="2.5" stroke-linecap="round"/><path d="M366.06054,123.69924c0,0 14.49386,8.20731 21.006,15.76679c7.96367,9.24442 23.30355,35.66894 23.30355,35.66894c0,0 -20.15508,-16.76101 -29.04466,-19.47978c-7.83547,-2.39639 -21.5307,4.01188 -21.5307,4.01188z" fill="url(#color-8)" stroke="#000000" stroke-width="2.5" stroke-linecap="round"/><path d="M310.8609,173.10082c0,0 -15.17982,-1.29513 -21.60496,3.62648c-7.28951,5.58373 -19.86714,28.14095 -19.86714,28.14095c0,0 4.47844,-29.93387 8.47089,-41.29547c3.26475,-9.29074 13.74296,-21.92004 13.74296,-21.92004z" fill="url(#color-9)" stroke="#000000" stroke-width="2.5" stroke-linecap="round"/><path d="M305.24978,158.28478c0,0 -14.66261,-4.98475 -22.02634,-1.8254c-8.35437,3.58439 -25.50409,22.21804 -25.50409,22.21804c0,0 10.74129,-27.73375 17.07412,-37.69582c5.17855,-8.14632 18.16154,-17.73292 18.16154,-17.73292z" fill="url(#color-10)" stroke="#000000" stroke-width="2.5" stroke-linecap="round"/><path d="M357.11929,74.59457l8.82667,8.74837l-10.67991,60.72161l-56.58055,1.57242l-19.58391,-56.06907l7.67082,-11.12994" fill="none" stroke="#000000" stroke-width="2.5" stroke-linecap="round"/><path d="M379.63511,122.58359c0.64728,29.59939 -22.08026,56.16193 -51.15401,55.48231c-29.07375,-0.6796 -53.48407,-28.34401 -54.13136,-57.94338c-0.64728,-29.59938 22.39694,-53.04351 51.47069,-52.36388c29.07375,0.6796 53.16743,25.22557 53.8147,54.82494z" fill="url(#color-11)" stroke="#000000" stroke-width="2.5" stroke-linecap="butt"/><path d="M342.86712,164.12928c0.54529,3.88174 -4.96397,7.20909 -12.3053,7.43184c-7.34134,0.22275 -13.73472,-2.74345 -14.28002,-6.6252c-0.36343,-2.58713 1.96261,-4.928 5.72803,-6.2676c1.88421,-0.67034 4.54261,0.50732 6.99103,0.43303c2.41847,-0.07338 4.32034,-1.39795 6.35787,-0.86044c4.14744,1.09411 7.14274,3.28539 7.50841,5.88836z" fill="url(#color-12)" stroke="#000000" stroke-width="2.5" stroke-linecap="butt"/><path d="M301.57785,165.01735c0,0 5.16168,-1.69421 8.1189,-2.66485c3.56158,-1.16901 11.77664,-3.86542 11.77664,-3.86542" fill="none" stroke="#000000" stroke-width="2.5" stroke-linecap="round"/><path d="M335.11814,158.62165l24.37869,3.89805" fill="none" stroke="#000000" stroke-width="2.5" stroke-linecap="round"/><path d="M328.6194,159.29564l0.68652,4.65706" fill="none" stroke="#000000" stroke-width="2.5" stroke-linecap="round"/><path d="M340.74592,116.98662c0.23824,2.80564 -5.93681,5.39972 -13.79232,5.79405c-7.85553,0.39434 -14.4168,-1.56041 -14.65502,-4.36604c-0.23824,-2.80564 5.93681,-5.39972 13.79232,-5.79405c7.85553,-0.39434 14.4168,1.56041 14.65502,4.36604z" fill-opacity="0.18431" fill="#000000" stroke="none" stroke-width="0" stroke-linecap="butt"/><path d="M305.0183,114.58454c0.19654,2.31471 -1.54762,4.28673 -3.89571,4.40459c-2.34808,0.11787 -4.41091,-1.66304 -4.60746,-3.97776c-0.19654,-2.31472 2.49074,-0.64851 4.83881,-0.76637c2.34808,-0.11787 3.4678,-1.97519 3.66435,0.33954z" fill="#ffffff" stroke="#000000" stroke-width="2.5" stroke-linecap="butt"/><path d="M286.13082,92.51193l-15.94551,-86.5285c0,0 6.09522,-3.74588 14.39744,-6.68259c5.22249,-1.84733 11.93011,-4.28567 15.95834,-5.34112c3.99366,-1.04638 11.581,-1.78181 16.99126,-2.72867c8.77981,-1.53658 15.37317,-1.68099 15.37317,-1.68099l22.66973,83.89449c0,0 -3.28779,5.72177 -12.15115,11.52229c-4.85143,3.17497 -14.71868,7.25005 -18.85758,8.38648c-5.09276,1.39832 -15.5891,2.95095 -23.09225,2.5058c-9.35419,-0.55498 -15.34349,-3.34717 -15.34349,-3.34717z" fill="url(#color-13)" stroke="#000000" stroke-width="2.5" stroke-linecap="butt"/><path d="M354.6261,111.70811c0.09916,2.30604 -1.73519,4.27001 -4.09714,4.38664c-2.36195,0.11663 -4.35709,-1.65824 -4.45626,-3.96427c-0.09916,-2.30603 2.30105,-1.03603 4.66301,-1.15266c2.36195,-0.11663 3.79122,-1.57573 3.89039,0.73029z" fill="#ffffff" stroke="#000000" stroke-width="2.5" stroke-linecap="butt"/></g></g></svg>