<svg version="1.1" xmlns="http://www.w3.org/2000/svg" xmlns:xlink="http://www.w3.org/1999/xlink" width="162.8452" height="321.19573" viewBox="0,0,162.8452,321.19573"><defs><linearGradient x1="359.15223" y1="165.63261" x2="318.35247" y2="343.25178" gradientUnits="userSpaceOnUse" id="color-1"><stop offset="0" stop-color="#2982c1"/><stop offset="1" stop-color="#000000"/></linearGradient><linearGradient x1="432.45871" y1="140.14687" x2="393.00807" y2="138.87168" gradientUnits="userSpaceOnUse" id="color-2"><stop offset="0" stop-color="#a636f3"/><stop offset="1" stop-color="#581b7d"/></linearGradient><linearGradient x1="277.99702" y1="139.67752" x2="317.44765" y2="140.95271" gradientUnits="userSpaceOnUse" id="color-3"><stop offset="0" stop-color="#a636f3"/><stop offset="1" stop-color="#581b7d"/></linearGradient><radialGradient cx="320.26227" cy="92.63409" r="25.84387" gradientUnits="userSpaceOnUse" id="color-4"><stop offset="0" stop-color="#000000" stop-opacity="0.92549"/><stop offset="1" stop-color="#000000" stop-opacity="0"/></radialGradient><linearGradient x1="275.0057" y1="66.87693" x2="339.85127" y2="76.19457" gradientUnits="userSpaceOnUse" id="color-5"><stop offset="0" stop-color="#a636f3"/><stop offset="1" stop-color="#16031b"/></linearGradient><radialGradient cx="392.65942" cy="89.8259" r="25.35587" gradientUnits="userSpaceOnUse" id="color-6"><stop offset="0" stop-color="#000000" stop-opacity="0.92549"/><stop offset="1" stop-color="#000000" stop-opacity="0"/></radialGradient><linearGradient x1="438.44123" y1="69.59956" x2="373.12929" y2="74.71004" gradientUnits="userSpaceOnUse" id="color-7"><stop offset="0" stop-color="#a636f3"/><stop offset="1" stop-color="#16031b"/></linearGradient></defs><g transform="translate(-274.24046,-24.83273)"><g stroke-miterlimit="10"><g><path d="M275.76601,338.2347l31.6438,-146.32986c0,0 11.94265,-25.3256 21.03697,-25.43708c9.03139,-0.1107 30.34777,0.0214 49.04624,-0.20781c20.28069,-0.24861 23.312,17.02492 23.312,17.02492l-37.55736,161.41809z" fill="url(#color-1)" stroke="#000000" stroke-width="2.5" stroke-linecap="butt"/><path d="M380.14139,178.09983c-2.19609,8.45267 -13.59235,14.70658 -25.45427,13.96851c-11.86192,-0.73809 -19.69761,-8.18865 -17.50153,-16.64134c2.19609,-8.45267 13.59233,-14.70658 25.45425,-13.96851c11.86192,0.73809 19.69762,8.18866 17.50154,16.64134z" fill="#f2f2f2" stroke="#000000" stroke-width="1.5" stroke-linecap="butt"/><path d="M374.42932,178.19557c-1.64995,6.35065 -10.21218,11.04932 -19.12426,10.49479c-8.91208,-0.55454 -14.79918,-6.15229 -13.14922,-12.50295c1.64995,-6.35065 10.21217,-11.04933 19.12426,-10.49479c8.91208,0.55454 14.79918,6.1523 13.14922,12.50295z" fill="#a636f3" stroke="#000000" stroke-width="2.5" stroke-linecap="butt"/><path d="M314.15718,238.83039l26.55012,-11.21594l16.73181,12.94131l16.40915,-5.66983" fill="none" stroke="#ffffff" stroke-width="1.5" stroke-linecap="round"/><path d="M312.35169,245.7326l26.55013,-11.21594l16.73182,12.94131l16.40915,-5.66983" fill="none" stroke="#ffffff" stroke-width="1.5" stroke-linecap="round"/><path d="M310.29461,252.30036l26.55013,-11.21594l16.73183,12.94131l16.40914,-5.66983" fill="none" stroke="#ffffff" stroke-width="1.5" stroke-linecap="round"/></g><g><path d="M386.07986,222.32152c0,0 0.31107,-2.66061 2.46774,-6.05838c1.46657,-2.31055 0.11407,-2.64814 -1.19973,-2.52813c-2.07218,0.18928 -13.37504,-0.51367 -13.99546,-1.23133c-0.59257,-0.68545 3.3312,-5.4078 3.9619,-6.32497c3.07518,-4.472 15.51827,-11.1516 19.95345,-14.28103c1.49921,-1.05782 5.0014,-3.78103 6.5382,-3.28181c2.09659,0.68106 5.26872,7.07086 6.65062,9.33338c2.68532,4.39656 3.22485,10.6398 4.99062,15.82064c1.92795,5.65663 5.43276,9.5551 5.72257,16.46469c0.11685,2.7858 2.21029,7.09636 1.52422,9.92021c-2.83595,11.67242 -14.33132,23.26754 -21.03635,30.61157c-4.22886,4.63188 -12.82603,12.69671 -12.82603,12.69671l-6.27568,4.65047l-3.39588,-3.67692l3.6684,-19.01896c0,0 3.48933,-5.57856 3.36668,-5.78402c-0.02977,-0.04985 -3.27107,2.6915 -3.54284,2.96784c-1.96979,2.00296 -9.80787,8.09713 -9.80787,8.09713l-4.16318,-10.58209c0,0 10.2354,-11.21008 11.64244,-12.75219c0.37388,-0.40976 3.34299,-3.20986 3.06372,-3.998c-0.23977,-0.67664 -5.07912,1.90453 -5.65787,2.24338c-4.50853,2.63961 -14.27895,0.47848 -14.27895,0.47848c0,0 6.56214,-9.70101 8.02643,-11.30483c12.25167,-13.41911 1.06039,-7.44635 14.60283,-12.46184z" fill="#a636f3" stroke="#000000" stroke-width="2.5" stroke-linecap="round"/><path d="M392.97339,232.22036c3.22899,-3.25743 6.14267,-5.15088 6.50787,-4.22913c0.36521,0.92175 -1.95635,4.30964 -5.18533,7.56707c-3.22899,3.25743 -6.14267,5.15088 -6.50787,4.22913c-0.36521,-0.92175 1.95635,-4.30964 5.18533,-7.56707z" fill-opacity="0.23137" fill="#000000" stroke="none" stroke-width="0" stroke-linecap="butt"/><path d="M396.71904,247.51956c3.89916,-3.9335 7.33144,-6.43728 7.6662,-5.59235c0.33478,0.84494 -2.55473,4.71863 -6.45388,8.65213c-3.89916,3.9335 -7.33144,6.43728 -7.6662,5.59235c-0.33478,-0.84494 2.55473,-4.71863 6.45388,-8.65213z" fill-opacity="0.23137" fill="#000000" stroke="none" stroke-width="0" stroke-linecap="butt"/><path d="M393.09044,206.40557c0.85293,-0.86045 1.96381,-0.49942 2.48119,0.80639c0.51737,1.30581 0.24534,3.06191 -0.6076,3.92236c-0.85293,0.86045 -1.96381,0.49942 -2.48118,-0.80639c-0.51737,-1.30581 -0.24535,-3.06191 0.6076,-3.92236z" fill-opacity="0.23137" fill="#000000" stroke="none" stroke-width="0" stroke-linecap="butt"/><path d="M407.11598,214.47488c0,0 -0.56129,1.33556 -1.26464,2.61575c-0.54526,0.99242 -1.17588,1.95157 -1.69662,2.22947c-0.48491,0.25877 -1.31222,0.05567 -2.08194,-0.24994c-0.96255,-0.38219 -1.83499,-0.92468 -1.83499,-0.92468" fill="none" stroke-opacity="0.40392" stroke="#000000" stroke-width="2.5" stroke-linecap="round"/><path d="M404.98165,224.15404c0,0 -0.56129,1.33554 -1.26464,2.61573c-0.54526,0.99242 -1.1759,1.9516 -1.69663,2.2295c-0.48491,0.25877 -1.31221,0.05565 -2.08193,-0.24996c-0.96255,-0.38219 -1.83501,-0.92467 -1.83501,-0.92467" fill="none" stroke-opacity="0.40392" stroke="#000000" stroke-width="2.5" stroke-linecap="round"/><path d="M402.84732,233.83317c0,0 -0.56129,1.33554 -1.26464,2.61573c-0.54526,0.99242 -1.1759,1.95158 -1.69663,2.22948c-0.48491,0.25877 -1.31221,0.05566 -2.08193,-0.24995c-0.96255,-0.38219 -1.835,-0.92467 -1.835,-0.92467" fill="none" stroke-opacity="0.40392" stroke="#000000" stroke-width="2.5" stroke-linecap="round"/></g><g><path d="M376.32963,249.32436c13.19026,5.87959 2.40806,-0.80343 13.76756,13.37888c1.35767,1.69503 7.27961,11.79958 7.27961,11.79958c0,0 -9.88958,1.52564 -14.21823,-1.39963c-0.55566,-0.37552 -5.21822,-3.26383 -5.50118,-2.60409c-0.32957,0.76845 2.45251,3.75444 2.79915,4.1875c1.30451,1.62977 10.7946,13.47743 10.7946,13.47743l-4.83788,10.29115c0,0 -7.42816,-6.58763 -9.2645,-8.71361c-0.25336,-0.29332 -3.31085,-3.23827 -3.34377,-3.19044c-0.13565,0.19711 2.98612,5.98937 2.98612,5.98937l2.43249,19.21616l-3.62625,3.44994l-5.96225,-5.04605c0,0 -8.05839,-8.60321 -11.9793,-13.49851c-6.21676,-7.76172 -16.93933,-20.075 -19.01556,-31.90619c-0.50228,-2.86226 1.86517,-7.02863 2.16168,-9.80107c0.73542,-6.87645 4.48469,-10.54044 6.77392,-16.06076c2.09667,-5.05599 3.03825,-11.25137 6.0019,-15.46533c1.52513,-2.16856 5.10329,-8.34017 7.2395,-8.8844c1.56583,-0.39893 4.88485,2.54477 6.31261,3.6972c4.22383,3.40934 16.20958,10.87855 18.98954,15.53981c0.57014,0.95598 4.18077,5.92187 3.54516,6.56762c-0.66547,0.67608 -11.99013,0.64764 -14.04576,0.32494c-1.30331,-0.2046 -2.67479,0.04494 -1.36049,2.44537c1.93274,3.52995 2.07133,6.20511 2.07133,6.20511z" fill="#a636f3" stroke="#000000" stroke-width="2.5" stroke-linecap="round"/><path d="M373.49703,266.6435c-0.42397,0.89624 -3.20929,-1.18143 -6.22116,-4.64059c-3.01189,-3.45916 -5.1098,-6.9899 -4.68583,-7.88614c0.42397,-0.89624 3.20928,1.18142 6.22117,4.64058c3.01189,3.45916 5.10981,6.98991 4.68583,7.88615z" fill-opacity="0.23137" fill="#000000" stroke="none" stroke-width="0" stroke-linecap="butt"/><path d="M369.967,282.83358c-0.38864,0.82155 -3.65205,-1.89866 -7.28906,-6.07576c-3.637,-4.1771 -6.2703,-8.22931 -5.88166,-9.05086c0.38864,-0.82155 3.65205,1.89866 7.28906,6.07576c3.637,4.1771 6.2703,8.22932 5.88166,9.05086z" fill-opacity="0.23137" fill="#000000" stroke="none" stroke-width="0" stroke-linecap="butt"/><path d="M370.71453,236.9423c-0.60063,1.26967 -1.7325,1.55821 -2.52808,0.64447c-0.79559,-0.91374 -0.95365,-2.68375 -0.35302,-3.95342c0.60063,-1.26967 1.7325,-1.5582 2.52808,-0.64446c0.79559,0.91374 0.95364,2.68374 0.35302,3.95341z" fill-opacity="0.23137" fill="#000000" stroke="none" stroke-width="0" stroke-linecap="butt"/><path d="M362.47094,244.24272c0,0 -0.90566,0.48502 -1.89088,0.80424c-0.78785,0.25526 -1.62655,0.4045 -2.09374,0.11497c-0.5017,-0.31095 -1.06906,-1.30882 -1.5491,-2.33439c-0.6192,-1.32294 -1.09308,-2.69196 -1.09308,-2.69196" fill="none" stroke-opacity="0.40392" stroke="#000000" stroke-width="2.5" stroke-linecap="round"/><path d="M363.97574,254.03949c0,0 -0.90567,0.48501 -1.89089,0.80423c-0.78785,0.25526 -1.62654,0.40453 -2.09373,0.11499c-0.5017,-0.31095 -1.06907,-1.30885 -1.54911,-2.33442c-0.6192,-1.32294 -1.09307,-2.69193 -1.09307,-2.69193" fill="none" stroke-opacity="0.40392" stroke="#000000" stroke-width="2.5" stroke-linecap="round"/><path d="M365.48053,263.83627c0,0 -0.90567,0.48501 -1.89089,0.80424c-0.78785,0.25526 -1.62654,0.40452 -2.09373,0.11498c-0.5017,-0.31095 -1.06908,-1.30883 -1.54911,-2.3344c-0.6192,-1.32294 -1.09306,-2.69194 -1.09306,-2.69194" fill="none" stroke-opacity="0.40392" stroke="#000000" stroke-width="2.5" stroke-linecap="round"/></g><g><path d="M412.32,109.41885c4.77499,0.57274 8.13755,-1.68055 12.53825,-2.60657c0.67024,-0.14104 4.39808,-1.70194 4.87786,-1.07858c0.36995,0.48064 -1.24773,3.61273 -1.44878,4.16101c-0.68452,1.86665 -6.20106,11.9405 -6.10401,12.72104c0.35786,2.87848 9.17661,-1.35189 10.51695,-0.0609c1.22773,1.18251 -1.68203,5.12288 -2.21294,6.01059c-1.50206,2.5115 -8.6513,15.4531 -8.61525,17.50853c0.05737,3.27138 4.23724,7.06745 2.64456,11.33928c-0.78154,2.09624 -2.50133,-1.07845 -3.46694,-0.72392c-0.98344,0.36109 -0.79373,4.50766 -0.81297,5.38019c-0.07841,3.5562 -0.23291,7.53565 -1.02664,11.0373c-0.08176,0.3607 -0.04097,0.91271 -0.35502,1.0469c-0.78224,0.33421 -9.10287,-8.89998 -10.452,-9.96434c-6.56756,-5.18131 -12.89118,-13.12857 -14.60127,-22.41255c-2.58351,-14.02571 2.57843,-33.62155 18.13218,-31.75859z" fill="url(#color-2)" stroke="#000000" stroke-width="2.5" stroke-linecap="round"/><path d="M300.42459,110.93722c15.64159,-0.85461 19.52727,19.03368 16.04337,32.86326c-2.30609,9.15417 -9.12974,16.67645 -16.01819,21.42282c-1.41505,0.97502 -10.31467,9.65258 -11.07368,9.26855c-0.30474,-0.15418 -0.22838,-0.7024 -0.28667,-1.06763c-0.56592,-3.54559 -0.46312,-7.52671 -0.31171,-11.08055c0.03714,-0.87196 0.49425,-4.99762 -0.46382,-5.42146c-0.94069,-0.41617 -2.8619,2.64084 -3.50645,0.49851c-1.31348,-4.36575 3.10282,-7.88397 3.37133,-11.14482c0.16872,-2.04882 -6.12982,-15.42509 -7.46656,-18.02835c-0.47248,-0.92014 -3.12169,-5.0402 -1.82016,-6.14096c1.42092,-1.20172 9.94804,3.58932 10.49106,0.73997c0.14725,-0.77265 -4.70719,-11.18172 -5.26974,-13.08868c-0.16523,-0.56011 -1.57725,-3.79012 -1.17704,-4.24587c0.51904,-0.59107 4.1383,1.20732 4.79802,1.39135c4.33171,1.20829 7.54174,3.67404 12.34374,3.41086z" fill="url(#color-3)" stroke="#000000" stroke-width="2.5" stroke-linecap="round"/><path d="M410.80597,128.78436c-2.86039,28.41058 -29.62386,51.99869 -59.72432,48.96816c-30.10047,-3.03052 -52.13951,-31.53209 -49.27912,-59.94266c2.86039,-28.41057 29.58046,-48.98518 59.68092,-45.95464c30.10047,3.03052 52.18293,28.51857 49.32254,56.92914z" fill="#a636f3" stroke="#000000" stroke-width="2.5" stroke-linecap="butt"/><path d="M370.7487,117.57709c-0.07376,2.70784 -6.78351,4.72183 -14.98666,4.49839c-8.20315,-0.22344 -14.79332,-2.59971 -14.71955,-5.30755c0.07376,-2.70784 6.78352,-4.72183 14.98667,-4.49839c8.20315,0.22344 14.79332,2.59971 14.71956,5.30755z" fill-opacity="0.23137" fill="#000000" stroke="none" stroke-width="0" stroke-linecap="butt"/><path d="M335.63924,114.99732c-0.22387,2.22363 -2.30731,1.45954 -4.74786,1.21383c-2.44057,-0.24572 -4.31407,0.11998 -4.0902,-2.10364c0.22387,-2.22364 2.38383,-3.82703 4.82439,-3.58132c2.44057,0.24572 4.23753,2.2475 4.01367,4.47114z" fill="#ffffff" stroke="#000000" stroke-width="2.5" stroke-linecap="butt"/><path d="M384.78738,116.5969c-0.22387,2.22364 -2.32006,1.85412 -4.76062,1.60841c-2.44057,-0.24572 -4.3013,-0.2746 -4.07744,-2.49822c0.22387,-2.22363 2.38382,-3.82702 4.82439,-3.58131c2.44057,0.24572 4.23754,2.2475 4.01368,4.47113z" fill="#ffffff" stroke="#000000" stroke-width="2.5" stroke-linecap="butt"/><path d="M324.82672,113.13981c-12.47359,6.06941 -24.62902,1.80892 -27.1499,-9.51608c-2.52087,-11.325 5.5474,-25.42596 18.021,-31.49537c12.47359,-6.06941 24.62902,-1.80892 27.14989,9.51608c2.52087,11.325 -5.5474,25.42595 -18.02099,31.49537z" fill="url(#color-4)" stroke="#000000" stroke-width="0" stroke-linecap="butt"/><path d="M334.14583,91.13108l-14.30092,11.8996l-13.22105,7.00918l-15.83882,-3.26719l-13.18764,-39.56024l2.84531,-38.17399l23.22747,41.12089l36.20412,5.87508z" fill="url(#color-5)" stroke="#000000" stroke-width="2.5" stroke-linecap="round"/><path d="M371.24301,77.63526c3.18567,-10.92824 15.35661,-14.32939 27.18456,-7.59668c11.82795,6.73271 18.83391,21.04973 15.64824,31.97797c-3.18567,10.92824 -15.35662,14.32939 -27.18457,7.59668c-11.82795,-6.73271 -18.8339,-21.04973 -15.64823,-31.97796z" fill="url(#color-6)" stroke="#000000" stroke-width="0" stroke-linecap="butt"/><path d="M373.11665,74.5487l36.50796,-3.52475l25.83457,-39.53502l0.37409,38.27806l-15.71491,38.626l-16.01675,2.2375l-12.74079,-7.84835l-13.5026,-12.79833z" fill="url(#color-7)" stroke="#000000" stroke-width="2.5" stroke-linecap="round"/><path d="M348.9824,84.60707c0,0 -1.22988,0.80395 -2.63705,1.51285c-1.09086,0.54956 -2.28828,1.04201 -3.10185,1.0585c-0.75759,0.01535 -1.83053,-0.4476 -2.789,-0.96683c-1.19862,-0.64933 -2.21822,-1.38667 -2.21822,-1.38667" fill="none" stroke-opacity="0.40392" stroke="#000000" stroke-width="2.5" stroke-linecap="round"/><path d="M378.5906,86.50754c0,0 -1.39337,0.46635 -2.93418,0.79584c-1.19448,0.25543 -2.47756,0.42864 -3.26879,0.2386c-0.7368,-0.17697 -1.65754,-0.8965 -2.45331,-1.64151c-0.99514,-0.93167 -1.79482,-1.90315 -1.79482,-1.90315" fill="none" stroke-opacity="0.40392" stroke="#000000" stroke-width="2.5" stroke-linecap="round"/><path d="M363.65017,82.055c0,0 -1.1852,0.86846 -2.55251,1.6515c-1.05997,0.60702 -2.22938,1.16271 -3.04091,1.22263c-0.75569,0.05579 -1.85182,-0.34922 -2.83665,-0.81653c-1.23157,-0.58439 -2.28909,-1.26624 -2.28909,-1.26624" fill="none" stroke-opacity="0.40392" stroke="#000000" stroke-width="2.5" stroke-linecap="round"/><path d="M407.35181,126.60536c0,0 -0.92941,0.48134 -1.95512,0.82748c-0.79516,0.26834 -1.64821,0.45545 -2.17103,0.27408c-0.48684,-0.1689 -1.0898,-0.87816 -1.60959,-1.61424c-0.65001,-0.92051 -1.16993,-1.88295 -1.16993,-1.88295" fill="none" stroke-opacity="0.40392" stroke="#000000" stroke-width="2.5" stroke-linecap="round"/><path d="M407.52388,135.11768c0,0 -0.92941,0.48134 -1.95512,0.82749c-0.79516,0.26834 -1.64821,0.45545 -2.17103,0.27408c-0.48684,-0.1689 -1.0898,-0.87816 -1.60959,-1.61424c-0.65001,-0.92051 -1.16993,-1.88295 -1.16993,-1.88295" fill="none" stroke-opacity="0.40392" stroke="#000000" stroke-width="2.5" stroke-linecap="round"/><path d="M405.42061,143.55644c0,0 -0.92941,0.48134 -1.95512,0.82749c-0.79516,0.26834 -1.6482,0.45545 -2.17102,0.27408c-0.48685,-0.16889 -1.08981,-0.87815 -1.6096,-1.61423c-0.65001,-0.92051 -1.16993,-1.88295 -1.16993,-1.88295" fill="none" stroke-opacity="0.40392" stroke="#000000" stroke-width="2.5" stroke-linecap="round"/><path d="M311.8569,119.53408c0,0 -0.58099,0.92685 -1.28909,1.80347c-0.56624,0.70098 -1.21375,1.36982 -1.71048,1.50693c-0.53343,0.14722 -1.37261,-0.09458 -2.1488,-0.41372c-1.00122,-0.41166 -1.8976,-0.95201 -1.8976,-0.95201" fill="none" stroke-opacity="0.40392" stroke="#000000" stroke-width="2.5" stroke-linecap="round"/><path d="M312.81391,125.44366c0,0 -0.58099,0.92685 -1.28909,1.80346c-0.56624,0.70098 -1.21375,1.36982 -1.71049,1.50693c-0.53343,0.14722 -1.37261,-0.09458 -2.14879,-0.41372c-1.00122,-0.41167 -1.8976,-0.95202 -1.8976,-0.95202" fill="none" stroke-opacity="0.40392" stroke="#000000" stroke-width="2.5" stroke-linecap="round"/><path d="M313.03689,132.38077c0,0 -0.58099,0.92685 -1.28909,1.80346c-0.56624,0.70098 -1.21375,1.36982 -1.71049,1.50693c-0.53343,0.14722 -1.37261,-0.09458 -2.14879,-0.41372c-1.00122,-0.41167 -1.8976,-0.95202 -1.8976,-0.95202" fill="none" stroke-opacity="0.40392" stroke="#000000" stroke-width="2.5" stroke-linecap="round"/><path d="M352.71005,150.66482l-3.34773,-5.26796" fill="none" stroke="#000000" stroke-width="2.5" stroke-linecap="round"/><path d="M362.71681,145.82853l-4.87511,5.70577" fill="none" stroke="#000000" stroke-width="2.5" stroke-linecap="round"/><path d="M393.20107,149.07746l2.8557,0.95831l-23.34953,16.85399l-18.63197,-4.06626l-13.69304,3.88741l-24.87291,-16.39204l4.06509,-0.7346" fill="none" stroke="#000000" stroke-width="2.5" stroke-linecap="round"/><path d="M289.95996,45.83804c0,0 91.24349,-13.20246 112.97432,-12.79276c23.02561,0.43412 21.51993,15.3285 21.51993,15.3285" fill="none" stroke="#000000" stroke-width="2.5" stroke-linecap="round"/><path d="M294.20457,50.63364c0,0 79.45144,-5.99529 99.88821,-5.5851c21.72747,0.43609 26.84176,8.12869 26.84176,8.12869" fill="none" stroke="#000000" stroke-width="2.5" stroke-linecap="round"/><path d="M296.16495,56.39062c0,0 51.67574,-0.76372 71.31373,-0.46266c20.89545,0.32033 50.52087,2.33041 50.52087,2.33041" fill="none" stroke="#000000" stroke-width="2.5" stroke-linecap="round"/></g></g></g></svg>