<svg version="1.1" xmlns="http://www.w3.org/2000/svg" xmlns:xlink="http://www.w3.org/1999/xlink" width="221.01932" height="320.26986" viewBox="0,0,221.01932,320.26986"><defs><linearGradient x1="349.48574" y1="66.42688" x2="410.92727" y2="73.53869" gradientUnits="userSpaceOnUse" id="color-1"><stop offset="0" stop-color="#000000"/><stop offset="1" stop-color="#d31b1b"/></linearGradient><linearGradient x1="244.46328" y1="69.51918" x2="309.54035" y2="77.05183" gradientUnits="userSpaceOnUse" id="color-2"><stop offset="0" stop-color="#d31b1b"/><stop offset="1" stop-color="#16031b"/></linearGradient><linearGradient x1="333.41526" y1="65.881" x2="327.50107" y2="116.9757" gradientUnits="userSpaceOnUse" id="color-3"><stop offset="0" stop-color="#d31b1b"/><stop offset="1" stop-color="#670000"/></linearGradient><radialGradient cx="328.66423" cy="232.23662" r="33.16925" gradientUnits="userSpaceOnUse" id="color-4"><stop offset="0" stop-color="#ee2828"/><stop offset="1" stop-color="#500000"/></radialGradient><radialGradient cx="331.10017" cy="219.42036" r="28.48101" gradientUnits="userSpaceOnUse" id="color-5"><stop offset="0" stop-color="#ee2828"/><stop offset="1" stop-color="#500000"/></radialGradient></defs><g transform="translate(-212.30639,-27.36731)"><g stroke-miterlimit="10"><path d="M282.65419,342.26288l-1.24294,-147.28352c0,0 6.20751,-25.66849 15.21593,-26.03016c8.9461,-0.35916 30.14901,-0.81325 48.67088,-1.55687c20.08914,-0.80654 26.95719,16.39346 26.95719,16.39346l-1.26185,162.54299z" fill="#000000" stroke="#000000" stroke-width="2.5" stroke-linecap="butt"/><path d="M344.92006,179.41902c-0.22083,6.39965 -7.67644,11.33649 -16.65257,11.02675c-8.97613,-0.30974 -16.07369,-5.74876 -15.85285,-12.14841c0.22083,-6.39965 7.67643,-11.33649 16.65256,-11.02675c8.97613,0.30974 16.0737,5.74877 15.85286,12.14841z" fill="#ee2828" stroke="#000000" stroke-width="2.5" stroke-linecap="butt"/><path d="M381.90377,100.40087c-0.37851,8.32209 -30.61458,15.66377 -67.53413,16.39814c-36.91955,0.73436 -66.54192,-5.41668 -66.16341,-13.73876c0.37852,-8.32208 30.61457,-15.66377 67.53413,-16.39813c36.91955,-0.73436 66.54193,5.41668 66.16342,13.73876z" fill="#580b0b" stroke="#000000" stroke-width="2.5" stroke-linecap="butt"/><path d="M348.51593,74.80547l36.537,-3.20965l26.1747,-39.31065l0.04384,38.27986l-16.04758,38.48899l-16.03547,2.09923l-1.46208,-13.00074l-11.23348,-15.23304z" fill="url(#color-1)" stroke="#000000" stroke-width="2.5" stroke-linecap="round"/><path d="M291.22957,84.17394l-11.91876,14.70304l-2.05548,12.92021l-15.9226,-2.83082l-14.2695,-39.18301l1.79548,-38.23776l24.34841,40.46724l36.35186,4.87823z" fill="url(#color-2)" stroke="#000000" stroke-width="2.5" stroke-linecap="round"/><path d="M381.91306,127.67243c-2.07879,28.47844 -28.18412,52.79291 -58.35649,50.59048c-30.17236,-2.20244 -52.9861,-30.08777 -50.90731,-58.5662c2.07879,-28.47843 28.22353,-49.77935 58.39589,-47.5769c30.17236,2.20244 52.94671,27.0742 50.86793,55.55263z" fill="#ee2828" stroke="#000000" stroke-width="2.5" stroke-linecap="butt"/><path d="M342.96058,119.81627c-0.19721,2.70166 -6.99185,4.40747 -15.17626,3.81005c-8.18442,-0.59742 -14.65933,-3.27184 -14.46211,-5.9735c0.19721,-2.70166 6.99186,-4.40747 15.17627,-3.81005c8.18442,0.59742 14.65933,3.27184 14.46212,5.9735z" fill-opacity="0.23137" fill="#000000" stroke="none" stroke-width="0" stroke-linecap="butt"/><path d="M306.88389,116.78078c-0.23377,3.20264 -3.27285,5.5909 -6.78794,5.33431c-3.5151,-0.25659 -6.17514,-3.06085 -5.94137,-6.26347c0.23377,-3.20266 3.27285,-5.5909 6.78794,-5.33431c3.5151,0.25659 6.17513,3.06083 5.94135,6.26349z" fill="#ffffff" stroke="#000000" stroke-width="2.5" stroke-linecap="butt"/><path d="M360.45605,119.97878c-0.1627,2.22895 -2.27779,3.89108 -4.72418,3.71251c-2.4464,-0.17857 -4.29768,-2.13025 -4.13499,-4.35917c0.16269,-2.22894 2.27778,-3.89107 4.72418,-3.7125c2.4464,0.17857 4.29769,2.13024 4.135,4.35917z" fill="#ffffff" stroke="#000000" stroke-width="2.5" stroke-linecap="butt"/><path d="M385.32172,95.05c-0.42191,4.02329 -1.65489,14.26863 -1.65489,14.26863l-54.79515,1.0147l-54.5488,0.48702c0,0 -0.10834,-10.87514 0.30283,-14.79605c1.6735,-15.95855 27.8103,-29.11363 58.37815,-29.38268c30.56785,-0.26904 53.99136,12.44982 52.31786,28.40837zM345.52986,83.8093c-15.225,0.134 -28.24301,6.6862 -29.07654,14.6347c-0.20479,1.95289 -0.15083,7.36949 -0.15083,7.36949l27.16925,-0.24256l27.29194,-0.5054c0,0 0.61412,-5.10291 0.82427,-7.10679c0.83352,-7.94851 -10.83307,-14.28343 -26.05808,-14.14943z" fill="url(#color-3)" stroke="#000000" stroke-width="2.5" stroke-linecap="butt"/><path d="M375.18432,107.36442l-61.49899,0.91691" fill="none" stroke="#000000" stroke-width="2.5" stroke-linecap="round"/><path d="M340.49734,68.62849c0,0 3.31858,3.6874 4.06913,6.13083c0.79152,2.57677 0.56363,8.95104 0.56363,8.95104" fill="none" stroke-opacity="0.48235" stroke="#000000" stroke-width="2.5" stroke-linecap="round"/><path d="M290.72585,110.28004c0,0 -0.06599,-22.82887 7.70632,-29.65303c8.31122,-7.29734 40.6528,-12.80673 40.6528,-12.80673c0,0 20.73789,5.38552 28.03661,12.74148c5.80422,5.84974 12.3084,27.91997 12.3084,27.91997" fill="none" stroke-opacity="0.48235" stroke="#000000" stroke-width="2.5" stroke-linecap="round"/><path d="M343.58351,65.73305c-0.14359,1.96702 -2.27419,3.41455 -4.75882,3.23319c-2.48464,-0.18136 -4.38246,-1.92297 -4.23887,-3.88998c0.14359,-1.96702 2.27419,-3.41455 4.75883,-3.23319c2.48464,0.18136 4.38245,1.92297 4.23887,3.88998z" fill="#d31b1b" stroke="#000000" stroke-width="2.5" stroke-linecap="butt"/><path d="M341.57963,117.28795c0,0 1.07711,-2.9975 5.27266,-2.74083c7.50127,0.4589 31.36931,1.91911 31.36931,1.91911" fill="none" stroke="#000000" stroke-width="2.5" stroke-linecap="round"/><path d="M352.63615,258.0435l-50.94975,-18.88035l-2.04444,25.26098l34.85095,-37.96744l23.1936,-26.40759" fill="none" stroke="url(#color-4)" stroke-width="2.5" stroke-linecap="round"/><path d="M302.95541,209.1844l56.28951,20.47192" fill="none" stroke="url(#color-5)" stroke-width="2.5" stroke-linecap="round"/><g><path d="M250.07396,220.24461c10.84548,4.35744 27.41659,8.70689 18.82744,24.33795c-2.003,3.64519 -5.52631,4.55518 -8.03153,7.17643c-2.92681,3.06237 -2.23486,8.72058 -4.67902,12.07723c-1.35086,1.85521 -4.15541,2.37616 -5.23655,4.57768c-0.98482,2.00538 -0.60371,4.76616 -2.07047,6.64411c-3.45414,4.42241 -14.5763,3.57929 -18.87199,1.17827c-2.8115,-1.57145 -14.19926,-6.68332 -15.1862,-9.18118c-0.64778,-1.63946 0.02693,-4.17314 -0.12206,-5.94757c-0.22142,-2.63696 -1.02928,-5.26606 -1.14848,-7.88834c-0.3472,-7.63886 4.20168,-18.02188 7.66813,-24.62699c1.3734,-2.61692 4.05044,-4.52842 5.59774,-7.03527c1.61255,-2.61255 2.89546,-6.36425 5.74332,-8.03558c2.79794,-1.64204 14.50455,5.34417 17.43648,6.68969z" fill="#ee2828" stroke="#000000" stroke-width="2.5" stroke-linecap="round"/><path d="M252.67365,239.94505c6.38487,2.56528 11.22372,5.48388 10.8079,6.51887c-0.41583,1.035 -5.92889,-0.20554 -12.31375,-2.77082c-6.38487,-2.56528 -11.22373,-5.48388 -10.80791,-6.51887c0.41583,-1.035 5.9289,0.20554 12.31376,2.77083z" fill-opacity="0.23137" fill="#000000" stroke="none" stroke-width="0" stroke-linecap="butt"/><path d="M243.49645,257.34539c4.71785,3.70049 7.86066,7.56956 7.01964,8.6418c-0.84102,1.07224 -5.34739,-1.05837 -10.06524,-4.75887c-4.71785,-3.70049 -7.86065,-7.56957 -7.01963,-8.6418c0.84102,-1.07224 5.34738,1.05838 10.06523,4.75887z" fill-opacity="0.23137" fill="#000000" stroke="none" stroke-width="0" stroke-linecap="butt"/><path d="M232.43335,229.81977c0.85985,0.34546 1.27684,1.32255 0.93137,2.18241c-0.34546,0.85985 -1.32255,1.27684 -2.18241,0.93137c-0.85985,-0.34546 -1.27685,-1.32256 -0.93138,-2.18241c0.34546,-0.85985 1.32256,-1.27683 2.18242,-0.93136z" fill-opacity="0.23137" fill="#000000" stroke="none" stroke-width="0" stroke-linecap="butt"/><path d="M223.90008,248.94077c0.75869,0.30482 1.09367,1.24896 0.74821,2.10882c-0.34546,0.85985 -1.24057,1.30979 -1.99925,1.00497c-0.75869,-0.30482 -1.09367,-1.24897 -0.74821,-2.10883c0.34546,-0.85985 1.24056,-1.30978 1.99925,-1.00496z" fill-opacity="0.23137" fill="#000000" stroke="none" stroke-width="0" stroke-linecap="butt"/></g><g><path d="M409.535,221.21398c3.22588,0.0194 16.78806,-1.36579 18.6301,1.30471c1.87489,2.71816 1.45235,6.66057 1.80993,9.70981c0.34311,2.92588 1.96171,5.78952 2.10068,8.74167c0.35077,7.45121 0.08622,18.78389 -3.45628,25.56057c-1.21608,2.32632 -3.05922,4.3678 -4.37416,6.66422c-0.88483,1.54527 -1.34393,4.12674 -2.62379,5.33892c-1.94997,1.84687 -14.43118,1.66802 -17.64337,1.90429c-4.9079,0.36099 -15.34461,-3.57457 -16.60653,-9.04233c-0.53587,-2.32184 0.97614,-4.663 0.93095,-6.8967c-0.04961,-2.45216 -2.37136,-4.10938 -2.81178,-6.36164c-0.79687,-4.07505 2.22116,-8.91091 0.8625,-12.92318c-1.16295,-3.43433 -3.97176,-5.74787 -4.24687,-9.89802c-1.17972,-17.7964 15.67717,-14.73631 27.3481,-14.10283z" fill="#ee2828" stroke="#000000" stroke-width="2.5" stroke-linecap="round"/><path d="M411.10507,240.66219c-0.06046,1.11376 -5.67936,1.71433 -12.55018,1.3414c-6.87082,-0.37293 -12.39171,-1.57814 -12.33125,-2.69191c0.06046,-1.11376 5.67935,-1.71432 12.55017,-1.34139c6.87082,0.37293 12.39171,1.57813 12.33125,2.69191z" fill-opacity="0.23137" fill="#000000" stroke="none" stroke-width="0" stroke-linecap="butt"/><path d="M410.8723,257.55867c0.30917,1.32719 -4.17415,3.50587 -10.01378,4.86624c-5.83963,1.36036 -10.82422,1.38725 -11.13339,0.06006c-0.30917,-1.32719 4.17415,-3.50587 10.01378,-4.86624c5.83963,-1.36036 10.82422,-1.38725 11.13339,-0.06006z" fill-opacity="0.23137" fill="#000000" stroke="none" stroke-width="0" stroke-linecap="butt"/><path d="M422.9813,239.11227c-0.05023,0.92529 -0.84103,1.63467 -1.76633,1.58444c-0.92529,-0.05023 -1.63467,-0.84102 -1.58445,-1.76631c0.05023,-0.92529 0.84102,-1.63467 1.76631,-1.58445c0.92529,0.05023 1.63468,0.84102 1.58446,1.76631z" fill-opacity="0.23137" fill="#000000" stroke="none" stroke-width="0" stroke-linecap="butt"/><path d="M422.43859,260.03741c-0.05023,0.92529 -0.75278,1.63946 -1.56921,1.59515c-0.81643,-0.04432 -1.43758,-0.83034 -1.38735,-1.75563c0.05023,-0.92529 0.75278,-1.63945 1.56921,-1.59514c0.81643,0.04432 1.43758,0.83033 1.38735,1.75562z" fill-opacity="0.23137" fill="#000000" stroke="none" stroke-width="0" stroke-linecap="butt"/></g><path d="M297.60173,162.99515l8.98335,-8.8375l15.17111,2.16537l29.21951,-3.91729l9.26563,10.17088z" fill="#ffffff" stroke="#000000" stroke-width="2.5" stroke-linecap="round"/></g></g></svg>