<svg version="1.1" xmlns="http://www.w3.org/2000/svg" xmlns:xlink="http://www.w3.org/1999/xlink" width="135.92298" height="232.99647" viewBox="0,0,135.92298,232.99647"><g transform="translate(-177.14143,-102.88265)"><g stroke-miterlimit="10"><g stroke="none" stroke-width="0.5" stroke-linecap="butt"><path d="M221.53668,212.8239c-4.79326,1.67953 -9.06165,5.71783 -13.29597,8.52872c-1.66371,1.10442 -4.34379,1.71255 -5.40511,3.58026c-6.25738,3.34864 -6.38472,11.61344 -5.86226,19.29694c0.08783,1.29159 -0.18577,2.56172 -0.15098,3.85316c0.08507,3.15625 0.96805,6.6173 1.42282,9.75677c1.00266,6.92183 2.64667,13.34357 4.53029,20.01681c1.22535,4.34116 1.39436,9.56027 2.04557,14.05588c0.96207,6.6416 2.14274,13.1747 3.10431,19.81287c0.58148,4.01423 0.80564,8.47544 2.01486,12.32494c0.30013,2.02828 0.64329,3.94224 1.09196,5.92057c0.107,0.47183 0.10058,2.84657 0.61801,3.18909c1.1578,0.76643 3.07211,0.10268 4.24549,-0.06729c3.99561,-0.57878 6.12888,-1.45927 6.20331,-7.0406c-0.98782,-6.68009 -1.87833,-13.30105 -3.77478,-19.66664c-0.60001,-2.01396 -1.037,-4.29665 -1.17986,-6.41622c-0.05167,-0.76677 -0.40316,-1.69758 -0.04517,-2.29938c0.53079,-0.89225 3.3937,-0.84724 4.30242,-0.97887c2.23876,-0.26163 4.63706,-1.29649 6.92374,-1.86828c6.33334,-1.58362 13.12285,-1.90395 19.57599,-2.83873c3.23129,-0.46807 6.45416,-0.64546 9.68042,-1.1128c0.85365,-0.12365 3.36605,-0.87919 4.09203,-0.31752c0.50564,0.39118 1.29634,3.5034 1.4228,4.12043c0.82137,4.0079 1.19319,8.22002 1.78059,12.27513c0.58468,4.03634 1.08391,8.08982 1.9738,12.04143c0.13468,0.59809 0.5173,3.01031 0.77318,3.35016c0.25102,0.33341 3.27571,-0.39983 3.36073,-0.41215c3.34597,-0.48468 7.01548,-0.51464 10.03951,-2.32233c2.97571,-10.9589 -0.57416,-22.87436 -2.23414,-34.06664c-1.78618,-12.33078 -5.08465,-23.8617 -8.22575,-35.77389c-0.27442,-2.12512 -1.35325,-3.92937 -1.81869,-6.09069c-1.95639,-9.08475 -5.40207,-16.94991 -8.14505,-25.60241c-1.11558,-3.69978 -4.04273,-4.15645 -6.79927,-4.74701c-5.23377,-1.12129 -11.33749,-2.62923 -16.55656,-1.909c-4.5446,-1.14477 -9.9105,0.58286 -14.42578,1.23692l-1.14756,0.16623c0,0 -0.05239,0.00759 -0.13493,0.00412zM224.4489,209.94332c4.15063,-0.76842 8.76569,-1.92647 12.76436,-0.91923c2.33526,-0.3559 4.49216,-0.07814 6.79691,0.5128c5.74833,1.47386 15.63147,-0.79139 18.4111,7.79578c2.71817,8.74664 6.25519,16.68451 8.21504,25.86822c0.4714,2.20895 1.47745,3.91496 1.82439,6.11803c3.18274,11.95188 6.46193,23.56318 8.25502,35.94178c0.19473,1.3825 0.70308,2.69299 1.04678,4.04199c1.13166,4.44176 1.74097,10.25269 1.6365,14.66352c-0.03003,1.26833 0.46282,2.5187 0.57208,3.7908c0.41577,4.84124 0.08204,9.12846 -1.43596,13.47928c-3.33085,2.45598 -7.34893,2.5122 -11.20569,3.07088c-1.44569,0.20941 -3.70851,1.00515 -5.06584,-0.34938c-0.44426,-0.44334 -1.1262,-3.72684 -1.29478,-4.45529c-0.93074,-4.02161 -1.42156,-8.163 -2.01712,-12.27444c-0.49282,-3.40219 -0.98793,-6.80406 -1.47848,-10.20657c-0.06565,-0.45537 -0.5197,-4.27641 -0.75372,-4.45162c-0.02015,-0.01508 -2.55776,0.64572 -2.79321,0.67983c-3.227,0.46744 -6.44911,0.64473 -9.68042,1.1128c-6.40279,0.92748 -13.16105,1.22349 -19.44037,2.81298c-2.38082,0.60266 -4.71964,1.50741 -7.05936,1.89404c-0.84152,0.1219 -1.66996,0.40235 -2.52458,0.3657c-0.18461,-0.00792 -0.4117,-0.45813 -0.51723,-0.28072c-0.31715,0.53312 0.4731,1.27858 0.57085,1.95336c0.22946,1.58407 0.423,3.04252 0.88084,4.57439c1.96151,6.56277 2.91238,13.43152 3.89304,20.32664c-0.05488,2.90143 -0.6869,7.0044 -2.95662,8.4043c-1.42048,0.8761 -3.27438,0.82951 -4.8522,1.05806c-1.6612,0.24063 -4.06959,0.95349 -5.64025,-0.37209c-1.89629,-1.60039 -2.18697,-8.02278 -2.54191,-10.53696c-1.23193,-3.92184 -1.4658,-8.46842 -2.05819,-12.55795c-0.96153,-6.63787 -2.1422,-13.1711 -3.1043,-19.81288c-0.63188,-4.36215 -0.76602,-9.53082 -1.97917,-13.72866c-1.95216,-6.75506 -3.57951,-13.32191 -4.5967,-20.34402c-1.57689,-10.88601 -4.83533,-29.91942 5.24248,-35.09438c1.2237,-1.97682 3.91897,-2.62391 5.70795,-3.81881c5.18658,-3.46422 10.40732,-8.52509 16.54047,-9.41351c0,0 0.33011,-0.04781 0.63832,0.15133z" fill="#000000"/><path d="M221.6582,212.77387l1.14842,-0.16655c4.51528,-0.65406 9.89278,-2.38333 14.43739,-1.23856c5.21906,-0.72021 11.33587,0.79103 16.56961,1.91232c2.75653,0.59056 5.68924,1.05046 6.80482,4.75023c2.74296,8.65249 6.20195,16.5321 8.15834,25.61685c0.46544,2.16131 1.54719,3.97114 1.82161,6.09626c3.1411,11.91219 6.4436,23.47901 8.22978,35.80979c1.65999,11.19227 5.20113,23.12715 2.22544,34.08605c-3.02405,1.80768 -6.69823,1.84272 -10.04421,2.3274c-0.08502,0.01232 -3.11152,0.74712 -3.36254,0.41371c-0.25588,-0.33985 -0.68451,-2.83281 -0.8192,-3.4309c-0.88988,-3.9516 -1.39238,-8.00203 -1.97707,-12.03837c-0.5874,-4.05511 -0.96383,-8.26133 -1.78521,-12.26921c-0.12645,-0.61703 -0.85331,-3.66933 -1.35896,-4.06053c-0.72598,-0.56164 -3.24089,0.19782 -4.09454,0.32148c-3.22626,0.46734 -6.46046,0.65533 -9.69176,1.1234c-6.45315,0.93477 -13.27843,1.2536 -19.61176,2.83722c-2.28668,0.57177 -4.69135,1.60146 -6.9301,1.86311c-0.90873,0.13164 -3.7743,0.08375 -4.30509,0.976c-0.35799,0.6018 0.0444,1.46375 0.09608,2.23053c0.14285,2.11955 0.57625,4.39879 1.17625,6.41275c1.89645,6.36559 2.77853,12.98091 3.76636,19.661c-0.07444,5.58134 -2.23586,6.5489 -6.23147,7.12769c-1.17338,0.16997 -3.08996,0.83228 -4.24775,0.06584c-0.51743,-0.34252 -0.51203,-2.71799 -0.61903,-3.18983c-0.44866,-1.97834 -0.79386,-3.89388 -1.09399,-5.92217c-1.20921,-3.8495 -1.43807,-8.31522 -2.01955,-12.32945c-0.96157,-6.63817 -2.15059,-13.18395 -3.11266,-19.82555c-0.65121,-4.49562 -0.82462,-9.7283 -2.04997,-14.06946c-1.88362,-6.67325 -3.52805,-13.11503 -4.53071,-20.03684c-0.45477,-3.13945 -1.33597,-6.60819 -1.42103,-9.76444c-0.03481,-1.29146 0.23979,-2.56445 0.15195,-3.85604c-0.52246,-7.6835 -0.38743,-15.96154 5.86997,-19.31021c1.06132,-1.86771 3.74507,-2.47961 5.40878,-3.58403c4.23433,-2.81088 8.51352,-6.85578 13.30678,-8.53532c0.08254,0.00346 0.13503,-0.00417 0.13503,-0.00417z" fill="#ffffff"/></g><path d="M234.32197,232.39268c0.25638,0.6733 0.41336,1.48683 0.52036,2.34377c0.13192,-1.2491 1.2607,-2.0756 2.02065,-2.84238c0,0 1.02534,-0.96021 1.84149,0.16167c0.12844,0.17655 0.21126,0.34911 0.25966,0.51454c0.04922,-0.12426 0.11331,-0.23193 0.18494,-0.32487c-0.5789,-0.85543 -0.73286,-2.06173 -0.12228,-3.25708c0.3853,-0.75435 1.45811,-0.54523 2.1897,-0.81433c0.51058,-0.2375 0.94961,-0.35255 1.32187,-0.36993c-0.01403,-0.04827 -0.02593,-0.09792 -0.03557,-0.14884c-0.14991,-0.79134 0.30257,-1.59274 1.01064,-1.78995l0.23445,-0.0653c-0.17559,-0.4159 -0.26501,-0.86204 -0.22167,-1.30173c0.07322,-0.74272 0.85981,-1.05338 1.52424,-1.43804c0.40051,-0.61037 0.88676,-1.09816 1.41221,-1.33133c0.5961,-1.22382 1.69039,-2.35211 2.65309,-2.97429c-0.4616,-1.09725 0.15032,-2.28943 1.21619,-3.50166c0.321,-0.36508 0.93581,-0.64142 1.5691,-0.85517c0.28927,-0.19106 0.61239,-0.29432 0.95387,-0.28355c0.02247,-0.00606 0.04476,-0.01205 0.06685,-0.01797c0.13505,-0.47311 0.51539,-0.89663 1.00806,-1.25711l0.12019,-0.13863c0.54894,-0.43648 0.98672,-1.31958 1.64683,-1.30945c0.40384,0.0062 0.86599,0.05462 1.29987,0.17627c0.09283,-0.01622 0.17989,-0.02868 0.25997,-0.03725c0,0 1.30926,-0.11668 1.36622,1.35538c0.00973,0.25121 -0.02034,0.46296 -0.0769,0.64138c-0.17719,1.45872 -1.80525,3.26907 -3.16043,3.31587c0.23727,1.56577 -0.96234,2.89016 -2.33041,3.43802c0.97525,2.29427 -1.39846,5.35162 -3.68574,5.82721c0.06618,0.08708 0.12117,0.18631 0.16261,0.3003c0.8032,2.20982 -2.84644,5.4477 -4.86219,4.9685c-0.089,0.22529 -0.19082,0.36903 -0.19082,0.36903l-1.12485,1.19276c-0.04522,0.01155 -0.09068,0.02514 -0.13631,0.04035c-0.09675,0.42083 -0.35345,0.78788 -0.70762,0.99048c-0.05199,0.15072 -0.13193,0.30846 -0.24748,0.47158c-0.66168,0.9341 -1.43812,0.55779 -1.72777,0.36506c0.07451,0.53589 -0.02352,1.13523 -0.36292,1.76876c0.416,0.14917 0.74774,0.53437 0.84583,1.0522c0.14991,0.79134 -0.30257,1.59275 -1.01064,1.78996l-1.29507,0.36071c-0.96463,0.26513 -1.96121,0.36746 -2.95138,0.50622c0.26588,1.019 0.4926,2.05434 0.69447,3.09808c0.97369,-0.00871 1.88388,0.10975 2.98222,0.16494c1.24632,0.06261 2.60789,0.15428 3.62787,0.9277c2.24239,1.70031 2.83309,6.3705 1.7217,9.20493c-0.83143,2.12043 -3.09077,4.20651 -5.12399,5.50636c0.20616,1.37167 0.34762,2.7554 0.39977,4.15071l0.28222,1.48971c0.14991,0.79134 -0.30258,1.59274 -1.01065,1.78995c-0.58697,0.1635 -1.16535,-0.13953 -1.4314,-0.69878l-0.78056,-1.55074l0.03977,-0.02648c-0.04167,-0.05549 -0.08228,-0.11212 -0.12169,-0.17002c-0.4659,-0.68443 -0.54757,-1.58672 -0.61126,-2.49324l-0.15931,-0.84096l0.02437,-0.00678c-0.01117,-0.01171 -0.0219,-0.02439 -0.0322,-0.0381c-0.0139,-0.01848 -0.02712,-0.03733 -0.03966,-0.05654c-0.88295,0.25139 -1.78648,0.42608 -2.6472,0.54865c-0.05855,0.00834 -0.11817,0.02043 -0.17845,0.03478c-0.44212,0.13727 -0.89341,0.26708 -1.3541,0.39181l-0.15767,-0.07283l-0.00271,0.08378l-1.46019,-0.0012c-0.59836,0.01421 -1.13267,-0.43771 -1.26186,-1.1196c-0.14991,-0.79134 0.30257,-1.59273 1.01064,-1.78995c0.03785,-0.01054 0.07569,-0.01915 0.11339,-0.02587l1.54122,-0.29203l0.00207,0.01747c0.01844,-0.00909 0.03695,-0.01806 0.05549,-0.02693c0.56629,-0.27069 1.18503,-0.27539 1.80355,-0.29422c0.63775,-0.22361 1.24922,-0.46675 1.83652,-0.74276c-0.7891,-0.13732 -0.97468,-1.11699 -0.97468,-1.11699l-0.12463,-0.6579c-0.41478,-2.18947 -0.68518,-4.41042 -0.89999,-6.64407c-1.39259,0.36023 -2.77659,0.52727 -4.0002,-0.58501c-0.60283,-0.54799 -1.15259,-1.28755 -1.33717,-2.14329c-0.10145,-0.47043 0.0072,-0.96282 0.15016,-1.44948c-0.24367,-1.65437 0.49824,-3.61957 1.56759,-4.9566c-0.27965,-0.14834 -0.54119,-0.34145 -0.77143,-0.57193c-0.08656,0.21316 -0.19946,0.40971 -0.35042,0.58222c-1.18311,1.35208 -2.83723,0.75155 -3.9125,-0.45658c-0.91692,-0.38114 -1.77606,-1.0018 -1.96596,-1.57228c-0.12508,-0.37574 -0.20553,-0.70908 -0.2475,-1.00754c-0.22923,0.06811 -0.46259,0.14832 -0.68703,0.20237c-0.586,0.31463 -1.33064,0.27086 -1.97713,0.23568c-2.18316,-0.11879 -2.99459,-1.50424 -2.85394,-3.30524c-0.85287,1.25401 -2.5279,2.05548 -3.71442,1.45134c-1.18817,-0.60495 -1.672,-1.58701 -1.68387,-2.62926c-0.19015,0.1159 -0.34439,0.15886 -0.34439,0.15886l-0.10878,-0.01021c-1.01785,0.76485 -3.65038,-0.09993 -4.23235,-0.95083c-0.37262,-0.5448 -0.60285,-0.99092 -0.72175,-1.37658c-0.31245,0.09084 -0.63445,0.15312 -0.95703,0.18627c-0.41534,0.09689 -0.8449,0.09748 -1.26504,-0.02311c-1.90647,-0.27893 -3.38249,-1.70112 -2.31604,-4.40703c0.21144,-0.53648 0.58429,-1.00411 1.0184,-1.36823c0.32215,-0.51971 0.60458,-1.0993 1.09468,-1.36587c0.13541,-0.07366 0.28268,-0.14096 0.43838,-0.20011c0.34296,-0.41345 0.67153,-0.76846 0.9397,-1.03861c0,0 1.00014,-0.99374 1.84696,0.09854c0.3556,0.45868 0.38553,0.89996 0.30058,1.2576c0.22631,0.2108 0.41003,0.48577 0.53122,0.83563c0.70366,0.4039 1.19436,1.12304 1.22867,2.34735c0.11838,0.06245 0.23952,0.15216 0.36167,0.27579c0.12077,0.12221 0.21207,0.24674 0.27943,0.37103c0.02241,0.00167 0.04502,0.00348 0.06782,0.00541c0.42237,0.03588 0.70716,0.31871 0.92406,0.72343l0.23613,-0.22114l0.40905,0.56229l0.06922,0.0351l-0.0161,0.03792l0.37575,0.51652l-0.0571,0.05345l0.3045,0.05284c-0.06635,0.3249 -0.09258,0.67334 -0.11274,1.02534c0.08979,0.09175 0.17128,0.20784 0.23818,0.35425c1.02205,-1.95856 3.30634,-3.31941 5.01085,-1.5707c0.02135,0.02188 0.04195,0.04502 0.0618,0.06929c0.1507,-0.64353 0.38636,-1.27991 0.65695,-1.87328c0,0 0.64888,-1.30817 1.78746,-0.62314c1.13856,0.68502 0.48967,1.99319 0.48967,1.99319c-0.0477,0.08338 -0.10139,0.16389 -0.1566,0.24372c0.55723,-0.19454 1.12347,-0.24262 1.60132,0.01538c0.82233,0.444 1.05844,1.56234 0.92754,2.68582c0.23356,-0.0091 0.49017,0.0605 0.73844,0.28624c0.19983,0.0892 0.39924,0.25877 0.57709,0.55132c0.25727,0.42319 0.28765,0.80467 0.21932,1.12109c0.0565,0.09117 0.09913,0.18739 0.13111,0.2836c0.20431,-0.14798 0.41525,-0.30156 0.62566,-0.46955c0,0 0.89996,-0.63042 1.56481,0.11906c0.75354,0.18481 1.32169,0.84077 1.63903,1.66993l0.43033,0.25892c0.54579,-0.98411 1.95019,-2.03851 3.17373,-2.00574c-0.03727,-0.29568 -0.0509,-0.51296 -0.02685,-0.5972c-0.01429,-0.07863 -0.02888,-0.1573 -0.04376,-0.23594l0.01295,-0.043l-0.00307,-0.02604l-0.01821,0.00316l-0.15489,-1.46529c-0.08722,-0.75211 0.355,-1.48608 1.02838,-1.67364c0.70806,-0.19721 1.40361,0.28441 1.55352,1.07574c0.00803,0.04232 0.01432,0.08463 0.01893,0.12689l0.20235,1.70995c0.00036,0.00196 0.00071,0.00396 0.00107,0.00592zM237.51227,249.87743c0.00381,0.02482 0.0076,0.04964 0.01138,0.07444c0.48835,1.71975 0.9627,3.46212 1.36775,5.22597c0.67765,-0.64295 1.31835,-1.39921 1.92747,-2.3029c1.00164,-1.48606 1.94518,-2.43086 1.00156,-4.10907c-1.34647,-1.2601 -2.48795,-0.63547 -4.11419,-0.40642c-0.13975,0.01969 -0.27992,0.02633 -0.42026,0.0267c0.0754,0.4983 0.15032,0.9957 0.22628,1.4913zM234.99661,235.89488c-0.01825,-0.05171 -0.03489,-0.1028 -0.04997,-0.1533c0.00539,0.06232 0.01063,0.12466 0.01572,0.18702c0.01074,-0.01086 0.02217,-0.02212 0.03424,-0.03372zM232.83671,243.93374l0.2601,0.05326c-0.05298,-0.65502 -0.1069,-1.30994 -0.16397,-1.96425c-0.84555,0.7474 -1.42396,1.61059 -0.09613,1.911zM249.94872,222.58525c0.04865,-0.04076 0.0961,-0.08323 0.14215,-0.12759c0.24552,-0.23651 0.89538,-1.03606 0.62941,-0.83018c-0.4761,0.36855 -0.99371,0.66674 -1.51756,0.93588l0.77716,-0.22656c0,0 -0.00321,0.10023 -0.03115,0.24845zM219.85603,234.46463c-0.08467,-0.03733 -0.16884,-0.07901 -0.25215,-0.12397c-0.00434,0.06135 0.00251,0.10208 0.02344,0.11632c0.06829,0.04647 0.14655,0.03576 0.22871,0.00765z" fill="#ffe04b" stroke="#000000" stroke-width="1.5" stroke-linecap="butt"/><g stroke="none" stroke-width="0.5" stroke-linecap="butt"><path d="M179.45208,163.27003c-0.93945,-2.93077 -0.44103,-6.46139 -0.76945,-9.44743c-0.23802,-2.16408 -0.73972,-4.20697 -1.05666,-6.33363c-0.99964,-6.70747 -0.13323,-14.25144 -0.19067,-21.04232c-0.02955,-3.49407 -0.05911,-6.98811 -0.08866,-10.48216c-0.0094,-1.1113 -0.39564,-3.60969 0.10362,-4.56065c1.27358,-2.42588 6.13199,-2.53069 8.35748,-2.72222c3.13549,-0.26985 7.33815,-2.33497 10.63581,-1.01145c0.95768,0.38438 1.57005,1.34676 2.426,1.92321c2.37977,3.62627 2.11128,8.99523 2.14759,13.28739c0.06142,7.26217 0.45989,14.57148 0.52169,21.87738c0.038,4.49224 -0.26092,8.95279 -0.22273,13.46761c0.00435,0.5151 -0.37455,3.75038 -0.06836,4.12087c0.44934,0.54367 3.68077,-0.80904 4.26828,-0.93021c3.65346,-0.75351 8.06504,-0.76912 11.78715,-0.82455c3.11528,-0.00297 6.15883,-1.41598 9.29273,-1.75597c4.54343,-0.4929 9.22939,0.35837 13.77299,-0.11333c0.58902,-0.06114 3.25007,-1.02141 3.31204,-1.03144c2.80621,-0.45381 6.09092,-0.40367 8.9416,-0.42778c0.31525,0.08218 0.63943,0.35745 0.94573,0.24651c0.75921,-0.27495 -0.14404,-1.61052 -0.14599,-2.41798c-0.00605,-2.50146 0.6352,-4.50431 0.61306,-7.12168c-0.03245,-3.83644 -1.08951,-7.46029 -1.43604,-11.26831c-0.24523,-2.69473 0.17707,-5.60734 -0.38016,-8.25518c-0.48472,-2.30325 -1.07225,-4.51865 -1.10129,-6.99965c-0.03701,-4.37604 -0.07403,-8.7521 -0.11104,-13.12814c-0.00613,-0.72509 -0.0898,-3.68634 0.21978,-4.10787c0.9963,-1.3566 3.85551,-0.70156 5.21736,-0.83886c4.70351,-0.47415 9.60719,-0.75516 14.3223,-0.12223c1.39172,-0.00893 1.87181,-0.10236 3.33772,0.37044c4.74836,1.53144 4.2357,6.06222 4.59803,10.1125c0.61153,6.83597 0.45515,13.7355 0.51326,20.60556c0.04826,5.70557 -0.1719,11.55725 -0.53034,17.25847c-0.4517,7.18478 0.4629,14.56912 0.524,21.79217c0.09776,11.55725 0.19551,23.11451 0.29327,34.67176c0.02437,2.88116 0.73876,5.59176 -1.76708,7.71295c-3.07821,2.60572 -7.38141,1.77554 -10.80598,2.97753c-5.92225,2.07868 -12.35029,3.17787 -18.80882,3.2325c-3.22513,0.0167 -6.45849,0.44857 -9.52634,1.06881c-2.19579,0.44394 -4.62048,-0.19764 -6.84109,0.07371c-6.11992,0.74784 -12.44263,0.44775 -18.62956,0.50008c-6.19302,0.05238 -12.30274,0.4407 -18.51119,0.49321c-2.64519,0.02237 -4.70578,-0.10219 -7.26731,-0.62733c-0.56352,-0.11552 -1.21497,0.15944 -1.72208,-0.11212c-2.71729,-1.45521 -2.6963,-6.20192 -2.7288,-8.77924c-0.00913,-3.51512 -0.4906,-7.19158 -1.38308,-10.41264c-0.67187,-2.42481 0.13791,-5.48139 -0.11316,-7.97167c-0.50276,-4.98671 -1.0993,-9.87448 -1.14198,-14.92105c-0.03913,-4.62625 0.86991,-10.41808 -0.10453,-14.92079c-0.22399,-1.03502 -0.60757,-2.05393 -0.69913,-3.10478zM182.32186,165.14224c0.06924,0.25185 0.13412,0.50424 0.18546,0.75812c0.95561,4.72663 0.11086,10.54293 0.15173,15.37491c0.04202,4.96816 0.64634,9.77437 1.12828,14.68433c0.21505,2.19087 -0.64885,5.42208 0.01784,7.51282c1.09035,3.41934 1.4423,7.387 1.49209,11.10822c0.00465,1.27022 -0.09299,6.08803 1.44159,6.67104c2.19433,0.83367 5.43295,0.48513 7.85295,0.46466c6.20872,-0.05252 12.31703,-0.44082 18.5112,-0.49322c6.11267,-0.0517 12.34513,0.22336 18.39283,-0.48636c2.12901,-0.24986 4.53904,0.41094 6.62368,-0.0402c3.2029,-0.69314 6.6198,-1.07809 9.98046,-1.11603c7.35677,-0.06223 13.98843,-2.06212 20.93404,-3.51833c2.14347,-0.4494 7.2763,-0.76368 8.17192,-3.33006c0.38362,-1.09926 -0.0971,-3.4709 -0.10708,-4.65095c-0.09776,-11.55725 -0.19551,-23.11451 -0.29326,-34.67176c-0.0616,-7.28264 -0.96581,-14.71639 -0.51939,-21.9626c0.34795,-5.64793 0.57352,-11.43711 0.52572,-17.08805c-0.0577,-6.82188 0.08606,-13.66769 -0.50734,-20.45626c-0.40446,-4.62717 0.05969,-8.31484 -5.68845,-8.25384c-4.60283,-0.61786 -9.36248,-0.33366 -13.9537,0.11696c-0.98924,0.09709 -1.98991,0.08322 -2.98191,0.02031c-0.18578,-0.01179 -0.48671,-0.28798 -0.54713,-0.1119c-0.26005,0.75784 0.28319,3.38888 0.29096,4.30762c0.03227,3.81502 0.06454,7.63003 0.09681,11.44505c0.0109,2.30781 0.59113,4.31991 1.03234,6.44802c0.57553,2.77605 0.17445,5.75706 0.43542,8.57007c0.43847,4.72634 1.46484,9.1147 1.47007,13.90835c0.00122,1.12672 -0.43122,2.21212 -0.67742,3.31163c-0.2603,1.16246 0.26036,2.40023 0.05336,3.57335c-0.13249,0.75091 -0.16474,1.69178 -0.77159,2.15348c-0.64625,0.49166 -1.61364,0.18332 -2.42046,0.27499c-2.73417,0.02313 -5.87173,-0.04539 -8.55689,0.39351c-1.17117,0.19142 -2.22397,0.91264 -3.40325,1.04523c-4.55904,0.51255 -9.27101,-0.37505 -13.82977,0.12013c-3.23765,0.3517 -6.29278,1.72277 -9.52944,1.76967c-3.43821,0.00134 -7.71764,0.02109 -11.09157,0.71554c-1.34987,0.27784 -5.0521,1.86788 -6.49213,0.50738c-1.26558,-1.19567 -0.81385,-4.41616 -0.82701,-5.97201c-0.03818,-4.51384 0.26071,-8.97735 0.22273,-13.46762c-0.06566,-7.76278 -0.46774,-15.49862 -0.53308,-23.22386c-0.02415,-2.85512 0.27964,-7.9734 -1.41791,-10.24745c-0.60962,-0.38527 -0.98483,-1.11163 -1.6419,-1.40882c-0.78099,-0.35324 -1.71183,0.10596 -2.56894,0.11321c-2.97707,0.02518 -5.32213,0.75779 -8.30787,1.07611c-0.65495,0.06983 -4.79136,0.64341 -5.08703,1.4323c-0.2486,0.66331 0.16464,2.65344 0.17116,3.42423c0.02955,3.49407 0.05911,6.98811 0.08866,10.48216c0.0563,6.65589 -0.84888,14.13737 0.16364,20.70256c0.3333,2.16114 0.83412,4.23632 1.06999,6.43667c0.2047,1.90952 -0.08761,4.48679 0.1355,6.76028c0.18874,0.2546 0.24528,0.52538 0.24528,0.52538l0.36933,1.79735c-0.00016,0.10073 0.00356,0.20105 0.01062,0.30101c0.13326,0.29619 0.29063,0.57417 0.47626,0.8299c0,0 0.49518,0.72932 0.01264,1.36277z" fill="#000000"/><path d="M182.26116,163.77972c-0.18563,-0.25574 -0.34298,-0.53456 -0.47625,-0.83077c-0.00706,-0.09997 -0.01077,-0.20059 -0.01059,-0.30131l-0.36927,-1.79918c0,0 -0.05651,-0.2713 -0.24525,-0.5259c-0.22311,-2.27349 0.07012,-4.85741 -0.13458,-6.76693c-0.23587,-2.20037 -0.7352,-4.28104 -1.0685,-6.44218c-1.01251,-6.56521 -0.1,-14.06042 -0.1563,-20.71631c-0.02955,-3.49407 -0.05528,-6.99255 -0.08483,-10.4866c-0.00652,-0.7708 -0.41862,-2.76203 -0.17002,-3.42534c0.29565,-0.78889 4.43454,-1.36464 5.08949,-1.43447c2.98574,-0.31831 5.33502,-1.0541 8.31211,-1.07928c0.85712,-0.00725 1.78939,-0.46733 2.57037,-0.11411c0.65707,0.29718 1.08204,1.10579 1.69166,1.49106c1.69756,2.27406 1.39693,7.39029 1.42108,10.24541c0.06534,7.72524 0.48006,15.44783 0.54573,23.21062c0.03798,4.49027 -0.25406,8.93632 -0.21589,13.45016c0.01316,1.55585 -0.43781,4.76672 0.82777,5.96239c1.44003,1.36049 5.04613,-0.22805 6.396,-0.50589c3.37393,-0.69444 7.6534,-0.71693 11.09162,-0.71828c3.23668,-0.0469 6.31306,-1.45553 9.55071,-1.80723c4.55876,-0.49518 9.34463,0.423 13.90367,-0.08957c1.17928,-0.13258 2.23187,-0.85486 3.40302,-1.04628c2.68516,-0.43889 5.82327,-0.36756 8.55744,-0.39068c0.80682,-0.09167 1.67925,0.23166 2.32549,-0.26c0.60687,-0.4617 0.63975,-1.39921 0.77225,-2.15012c0.20699,-1.17314 -0.31204,-2.40533 -0.05172,-3.5678c0.24621,-1.09949 0.68036,-2.18075 0.67914,-3.30749c-0.00523,-4.79366 -1.02175,-9.16814 -1.46022,-13.89448c-0.26097,-2.81301 0.14533,-5.78958 -0.4302,-8.56564c-0.4412,-2.1281 -1.01761,-4.1377 -1.02851,-6.4455c-0.03227,-3.81502 -0.06027,-7.62776 -0.09254,-11.44278c-0.00777,-0.91873 -0.54955,-3.54914 -0.2895,-4.30698c0.06042,-0.17608 0.39951,0.01189 0.58528,0.02366c0.992,0.0629 1.9945,0.07763 2.98374,-0.01946c4.59122,-0.45063 9.3581,-0.73048 13.96092,-0.11262c5.74813,-0.06099 5.28903,3.63092 5.6935,8.2581c0.5934,6.78858 0.45744,13.64416 0.51514,20.46605c0.0478,5.65093 -0.17233,11.45315 -0.5203,17.1011c-0.44643,7.2462 0.45828,14.70131 0.51988,21.98397c0.09776,11.55725 0.18388,23.13734 0.28163,34.6946c0.00998,1.18004 0.4891,3.55339 0.10547,4.65264c-0.8956,2.56638 -6.03289,2.88455 -8.17635,3.33394c-6.94562,1.45621 -13.59076,3.46343 -20.94752,3.52565c-3.36065,0.03794 -6.78545,0.42494 -9.98835,1.11808c-2.08464,0.45113 -4.50013,-0.20905 -6.62914,0.04081c-6.0477,0.70974 -12.29508,0.43312 -18.40775,0.48482c-6.19417,0.05239 -12.3143,0.4358 -18.52302,0.48832c-2.41999,0.02047 -5.6626,0.36642 -7.85694,-0.46725c-1.53459,-0.58301 -1.43982,-5.4031 -1.44446,-6.6733c-0.04978,-3.72122 -0.40655,-7.69353 -1.4969,-11.11287c-0.66669,-2.09073 0.19416,-5.32574 -0.02089,-7.51661c-0.48194,-4.90995 -1.0922,-9.72705 -1.13422,-14.69521c-0.04087,-4.832 0.80068,-10.66317 -0.15491,-15.38981c-0.05133,-0.25388 -0.11623,-0.50708 -0.18548,-0.75893c0.48254,-0.63345 -0.01268,-1.36418 -0.01268,-1.36418z" fill="#ffffff"/></g><g><path d="M227.36126,179.0138c0.68225,10.94331 -7.43112,20.44814 -18.12173,21.22959c-10.69061,0.78146 -19.91015,-7.45638 -20.5924,-18.39969c-0.26708,-4.28404 -1.30831,-7.57099 2.22219,-9.11719c5.48791,-2.40344 17.07231,-2.0466 17.07231,-2.0466c0,0 11.00148,-2.03249 16.79263,-0.30466c3.5377,1.0555 2.3683,4.48861 2.62703,8.63856z" fill="#000000" stroke="none" stroke-width="0" stroke-linecap="butt"/><path d="M218.44798,175.17526l-0.26901,-4.31486l25.85271,-1.88977l0.26901,4.31487z" fill="#000000" stroke="none" stroke-width="0" stroke-linecap="butt"/><path d="M276.35827,175.43224c0.68226,10.94331 -7.43112,20.44813 -18.12173,21.22959c-10.69061,0.78146 -19.91014,-7.45637 -20.59239,-18.39968c-0.26708,-4.28404 -1.30831,-7.571 2.22219,-9.11719c5.48791,-2.40345 17.07231,-2.04659 17.07231,-2.04659c0,0 11.00147,-2.03249 16.79264,-0.30466c3.53769,1.05551 2.3683,4.48861 2.62703,8.63856z" fill="#000000" stroke="none" stroke-width="0" stroke-linecap="butt"/><path d="M197.39528,176.73468l-4.2013,4.35701" fill="none" stroke="#ffffff" stroke-width="1.5" stroke-linecap="round"/><path d="M192.14937,178.53964l1.44779,-1.61279" fill="none" stroke="#ffffff" stroke-width="1.5" stroke-linecap="round"/><path d="M200.47895,178.4692l-5.07673,4.52448" fill="none" stroke="#ffffff" stroke-width="1.5" stroke-linecap="round"/><path d="M203.12424,180.20742l-4.77771,5.32222" fill="none" stroke="#ffffff" stroke-width="1.5" stroke-linecap="round"/><path d="M205.63285,183.0672l-3.18514,3.54814" fill="none" stroke="#ffffff" stroke-width="1.5" stroke-linecap="round"/><path d="M207.85057,186.08949l-2.02828,2.09788" fill="none" stroke="#ffffff" stroke-width="1.5" stroke-linecap="round"/><path d="M210.06017,188.15152l-0.86732,1.12772" fill="none" stroke="#ffffff" stroke-width="1.5" stroke-linecap="round"/><path d="M217.39116,190.9705l-1.58851,2.25421" fill="none" stroke="#ffffff" stroke-width="1.5" stroke-linecap="round"/><path d="M217.5698,194.8103l2.16626,-3.05936" fill="none" stroke="#ffffff" stroke-width="1.5" stroke-linecap="round"/><path d="M242.66799,172.99058l-2.60737,2.74299" fill="none" stroke="#ffffff" stroke-width="1.5" stroke-linecap="round"/><path d="M245.61231,175.52656l-3.33803,2.74917" fill="none" stroke="#ffffff" stroke-width="1.5" stroke-linecap="round"/><path d="M246.3687,178.56121l-1.59394,1.61404" fill="none" stroke="#ffffff" stroke-width="1.5" stroke-linecap="round"/><path d="M248.56745,179.34288l-2.16761,2.89933" fill="none" stroke="#ffffff" stroke-width="1.5" stroke-linecap="round"/><path d="M251.36022,181.23992l-1.44373,2.09293" fill="none" stroke="#ffffff" stroke-width="1.5" stroke-linecap="round"/><path d="M257.22448,183.43108l-3.18785,3.22807" fill="none" stroke="#ffffff" stroke-width="1.5" stroke-linecap="round"/><path d="M250.81628,186.04618l2.74811,-3.38441" fill="none" stroke="#ffffff" stroke-width="1.5" stroke-linecap="round"/><path d="M266.17512,187.67687l-1.15147,2.09045" fill="none" stroke="#ffffff" stroke-width="1.5" stroke-linecap="round"/><path d="M267.0817,191.19042l1.87672,-2.73681" fill="none" stroke="#ffffff" stroke-width="1.5" stroke-linecap="round"/></g><path d="M257.63585,210.38981l-0.89821,0.64182c-5.13434,6.14616 -13.26067,11.45972 -21.45896,11.59531c-5.39049,0.04559 -12.3114,0.18586 -16.92048,-2.9913c-3.22527,-2.22327 -5.10949,-5.77251 -7.54903,-8.7049c-1.92449,-1.0255 -3.68149,-2.47458 -5.20008,-4.51866c-1.02385,0.19895 -2.04852,0.39466 -3.07714,0.5754c0,0 -1.23121,0.21592 -1.44713,-1.01529c-0.21592,-1.23121 1.01529,-1.44713 1.01529,-1.44713c3.0226,-0.52901 6.01178,-1.19054 9.04491,-1.68352l0.23155,-0.09821c0,0 1.18247,-0.4053 1.58777,0.77717c0.4053,1.18247 -0.77717,1.58777 -0.77717,1.58777l-0.64113,0.2009c-0.8853,0.14386 -1.76677,0.302 -2.64639,0.46701c0.07263,0.03751 0.11449,0.06629 0.11449,0.06629c1.23268,0.85201 2.26599,1.90433 3.21275,3.04523c4.17611,2.14392 9.27691,2.02022 14.20032,1.97857c3.11816,-0.02637 6.31322,0.14712 9.41029,-0.22355c4.72417,-0.04478 9.34921,-1.27471 13.98237,-2.14322c5.04775,-0.94623 11.27702,-1.97837 15.25999,-5.64168c-0.32644,-0.14837 -0.93833,-0.55477 -0.70064,-1.45621c0.31869,-1.20869 1.52737,-0.89001 1.52737,-0.89001c0.46799,0.12371 0.92528,0.25206 1.37771,0.37896c0.28501,-0.06207 0.63137,-0.02676 0.98494,0.27312c1.1653,0.31581 2.32618,0.59158 3.58449,0.71988l1.23949,0.5976c0,0 1.07727,0.63404 0.44324,1.71131c-0.63403,1.07727 -1.7113,0.44324 -1.7113,0.44324l-0.22648,-0.2652c-1.32505,-0.13663 -2.55303,-0.42088 -3.7831,-0.74777c-2.5715,2.79724 -6.01947,4.43529 -9.6596,5.54185c0.15689,0.73292 -0.52014,1.22522 -0.52014,1.22522zM219.74864,217.55798c4.17427,2.86 10.64556,2.61019 15.50891,2.56905c7.12462,0.01365 14.17154,-4.75043 18.91042,-9.94169c-1.31461,0.28662 -2.62224,0.53456 -3.89193,0.7722c-4.72674,0.88468 -9.45737,2.14448 -14.27915,2.18009c-3.14241,0.37609 -6.38457,0.20178 -9.54852,0.22854c-3.9498,0.03341 -7.90353,0.02234 -11.51131,-0.87912c1.39193,1.89293 2.85038,3.72718 4.81158,5.0709z" fill="#000000" stroke="none" stroke-width="0.5" stroke-linecap="butt"/><g fill="#ffffff" stroke="#000000" stroke-width="2.5" stroke-linecap="round"><path d="M275.6893,285.93733l-10.51466,0.84795l-4.0702,-2.20469l-6.95325,-7.9708l-5.08775,-27.64341l-2.20469,-4.57897l2.37428,-7.9708l4.74856,-5.76611l1.18714,-0.33919l7.46203,-4.07019l7.12284,-3.22225l6.61407,0.67837l4.0702,2.54388l-3.39183,6.27489l-1.01754,1.69591l-13.39773,8.47958l5.08774,4.23979l7.46202,-3.05264l4.57898,3.05264l1.35673,7.29244l-11.53223,5.08774l-1.69591,4.40938l2.71346,6.95326l9.8363,-0.84797l6.10529,-3.39183l3.05265,5.93571l-2.0351,7.9708l-3.56143,4.2398l-5.25734,0.16958l-1.8655,1.18714z"/><path d="M280.36909,225.95441l4.573,-3.91972l11.10586,0.52263l1.95986,7.97008l4.18103,-0.26131l3.65839,7.18614l2.22118,7.57811l3.65839,9.40732l-3.26642,8.75402l0.91461,4.96498l-3.52775,6.66351l-3.78905,5.87957l-17.76937,3.78905l4.96497,-9.14601l-0.26131,-5.74891l-2.48249,-3.91972l-5.87956,3.78907l-10.32191,0.91459l-2.09051,-7.18615l3.39708,-5.4876l9.14601,-4.18103l-2.09052,-7.3168l-3.39708,-2.22117l-9.14601,2.22117l-5.09563,-3.78906l15.80951,-8.10074z"/></g></g></g></svg>