<svg version="1.1" xmlns="http://www.w3.org/2000/svg" xmlns:xlink="http://www.w3.org/1999/xlink" width="167.48196" height="348.38675" viewBox="0,0,167.48196,348.38675"><defs><linearGradient x1="319.59654" y1="230.24039" x2="319.59654" y2="303.0784" gradientUnits="userSpaceOnUse" id="color-1"><stop offset="0" stop-color="#545454"/><stop offset="1" stop-color="#2f2f2f"/></linearGradient><linearGradient x1="324.82416" y1="197.18456" x2="324.82416" y2="270.0226" gradientUnits="userSpaceOnUse" id="color-2"><stop offset="0" stop-color="#545454"/><stop offset="1" stop-color="#2f2f2f"/></linearGradient><linearGradient x1="320.9699" y1="166.40479" x2="320.9699" y2="239.24284" gradientUnits="userSpaceOnUse" id="color-3"><stop offset="0" stop-color="#545454"/><stop offset="1" stop-color="#2f2f2f"/></linearGradient><linearGradient x1="320.96369" y1="169.70246" x2="320.96369" y2="348.53484" gradientUnits="userSpaceOnUse" id="color-4"><stop offset="0" stop-color="#4e2710"/><stop offset="1" stop-color="#3a1a09"/></linearGradient><linearGradient x1="322.38277" y1="169.74056" x2="322.38277" y2="195.55463" gradientUnits="userSpaceOnUse" id="color-5"><stop offset="0" stop-color="#e07130"/><stop offset="1" stop-color="#c2551f"/></linearGradient><linearGradient x1="293.88266" y1="198.98564" x2="293.88266" y2="226.19714" gradientUnits="userSpaceOnUse" id="color-6"><stop offset="0" stop-color="#4e2710"/><stop offset="1" stop-color="#3a1a09"/></linearGradient><linearGradient x1="376.08002" y1="147.10855" x2="364.31691" y2="197.33841" gradientUnits="userSpaceOnUse" id="color-7"><stop offset="0" stop-color="#e07130"/><stop offset="1" stop-color="#c2551f"/></linearGradient><linearGradient x1="376.16784" y1="129.74933" x2="376.16784" y2="181.33817" gradientUnits="userSpaceOnUse" id="color-8"><stop offset="0" stop-color="#e07130"/><stop offset="1" stop-color="#c2551f"/></linearGradient><linearGradient x1="265.69663" y1="147.04806" x2="277.45975" y2="197.2779" gradientUnits="userSpaceOnUse" id="color-9"><stop offset="0" stop-color="#e07130"/><stop offset="1" stop-color="#c2551f"/></linearGradient><linearGradient x1="268.30936" y1="125.78805" x2="268.30936" y2="177.37687" gradientUnits="userSpaceOnUse" id="color-10"><stop offset="0" stop-color="#e07130"/><stop offset="1" stop-color="#c2551f"/></linearGradient><linearGradient x1="319.80957" y1="73.88942" x2="319.80957" y2="180.32504" gradientUnits="userSpaceOnUse" id="color-11"><stop offset="0" stop-color="#e07130"/><stop offset="1" stop-color="#c2551f"/></linearGradient><linearGradient x1="319.02411" y1="6.52408" x2="319.02411" y2="92.37163" gradientUnits="userSpaceOnUse" id="color-12"><stop offset="0" stop-color="#a1a1a1"/><stop offset="1" stop-color="#767676"/></linearGradient><linearGradient x1="318.31043" y1="161.30051" x2="318.31043" y2="182.51186" gradientUnits="userSpaceOnUse" id="color-13"><stop offset="0" stop-color="#f05016"/><stop offset="1" stop-color="#be4c22"/></linearGradient></defs><g transform="translate(-238.49762,-1.44647)"><g stroke-miterlimit="10"><g stroke="#000000" stroke-width="2.5"><path d="M391.04501,293.77994l-73.1564,9.29847l-69.74053,-9.29847c0,0 31.98857,-63.53957 71.44846,-63.53957c39.4599,0 71.44847,63.53957 71.44847,63.53957z" fill="url(#color-1)" stroke-linecap="butt"/><path d="M258.97138,289.98393l58.17521,-17.18651l61.78298,14.73129" fill="none" stroke-linecap="round"/><path d="M288.73544,294.07596l29.76406,-9.41166l36.07765,7.36564" fill="none" stroke-linecap="round"/></g><g stroke="#000000" stroke-width="2.5"><path d="M396.27263,260.72409l-73.1564,9.29847l-69.74053,-9.29847c0,0 31.98857,-63.53957 71.44846,-63.53957c39.4599,0 71.44847,63.53957 71.44847,63.53957z" fill="url(#color-2)" stroke-linecap="butt"/><path d="M264.199,256.92811l58.17521,-17.18651l61.78298,14.73129" fill="none" stroke-linecap="round"/><path d="M293.96306,261.02011l29.76406,-9.41166l36.07765,7.36565" fill="none" stroke-linecap="round"/></g><g stroke="#000000" stroke-width="2.5"><path d="M392.41836,229.94436l-73.15639,9.29847l-69.74054,-9.29847c0,0 31.98857,-63.53957 71.44847,-63.53957c39.4599,0 71.44846,63.53957 71.44846,63.53957z" fill="url(#color-3)" stroke-linecap="butt"/><path d="M260.34473,226.14835l58.17522,-17.1865l61.78298,14.73129" fill="none" stroke-linecap="round"/><path d="M290.10879,230.24039l29.76406,-9.41165l36.07765,7.36565" fill="none" stroke-linecap="round"/></g><path d="M274.05791,344.89621l-2.12286,-147.27579c0,0 6.60493,-25.69821 16.38381,-26.10344c9.71122,-0.40242 32.72959,-0.95905 52.83555,-1.79223c21.80727,-0.90368 28.60129,25.97468 28.60129,25.97468l0.23663,152.83541z" fill="url(#color-4)" stroke="#000000" stroke-width="2.5" stroke-linecap="butt"/><path d="M341.3131,182.64759c0,7.12836 -8.47539,12.90704 -18.93032,12.90704c-10.45493,0 -18.93032,-5.77868 -18.93032,-12.90704c0,-7.12836 8.47539,-12.90704 18.93032,-12.90704c10.45493,0 18.93032,5.77868 18.93032,12.90704z" fill="url(#color-5)" stroke="#000000" stroke-width="2.5" stroke-linecap="butt"/><path d="M307.57345,212.59139c0,7.51424 -6.12957,13.60575 -13.69078,13.60575c-7.56121,0 -13.69078,-6.0915 -13.69078,-13.60575c0,-7.51424 6.12957,-13.60575 13.69078,-13.60575c7.56121,0 13.69078,6.0915 13.69078,13.60575z" fill="url(#color-6)" stroke="#ffffff" stroke-width="2.5" stroke-linecap="butt"/><path d="M289.00233,210.10988l1.06545,-1.74346" fill="none" stroke="#ffffff" stroke-width="2.5" stroke-linecap="round"/><path d="M298.10705,210.10988l-0.58115,-1.6466" fill="none" stroke="#ffffff" stroke-width="2.5" stroke-linecap="round"/><path d="M301.88453,216.01825l-2.8089,3.00262h-11.23561l-1.93717,-3.19634" fill="none" stroke="#ffffff" stroke-width="2.5" stroke-linecap="round"/><path d="M347.77147,10.06067c0,0 -3.51891,1.49647 -13.38235,1.95001c-3.43898,0.15813 -14.37382,0.80275 -16.96498,0.77898c-4.18844,-0.03842 -10.93116,-0.98625 -16.35288,-1.43426c-7.3166,-0.60458 -12.90095,-1.84152 -12.90095,-1.84152" fill="none" stroke="#000000" stroke-width="2.5" stroke-linecap="round"/><path d="M360.57283,143.47701c0,0 12.01497,11.63615 16.23158,20.41073c5.15647,10.73038 12.45886,39.29275 12.45886,39.29275c0,0 -15.07568,-21.07956 -23.15145,-26.09599c-7.11816,-4.42157 -22.79391,-2.44383 -22.79391,-2.44383z" fill="url(#color-7)" stroke="#000000" stroke-width="2.5" stroke-linecap="round"/><path d="M360.24109,129.74933c0,0 14.35169,8.59001 20.45798,16.17199c7.46734,9.27194 21.09006,35.41684 21.09006,35.41684c0,0 -19.48503,-17.08677 -28.49189,-20.12963c-7.93884,-2.68204 -22.7507,2.81794 -22.7507,2.81794z" fill="url(#color-8)" stroke="#000000" stroke-width="2.5" stroke-linecap="round"/><path d="M298.45875,174.58016c0,0 -15.67575,-1.97773 -22.79391,2.44384c-8.07577,5.01642 -23.15145,26.09598 -23.15145,26.09598c0,0 7.30239,-28.56237 12.45886,-39.29275c4.21661,-8.77458 16.23158,-20.41073 16.23158,-20.41073z" fill="url(#color-9)" stroke="#000000" stroke-width="2.5" stroke-linecap="round"/><path d="M293.93065,160.06518c0,0 -14.81186,-5.49998 -22.7507,-2.81794c-9.00686,3.04286 -28.49189,20.12963 -28.49189,20.12963c0,0 13.62272,-26.14491 21.09006,-35.41685c6.10629,-7.58197 20.45798,-16.17198 20.45798,-16.17198z" fill="url(#color-10)" stroke="#000000" stroke-width="2.5" stroke-linecap="round"/><path d="M355.27749,82.10847l8.40886,8.83669l-16.4725,57.86248l-58.9943,-1.21889l-15.41904,-54.85007l8.96228,-10.33015" fill="none" stroke="#000000" stroke-width="2.5" stroke-linecap="round"/><path d="M374.45998,129.33185c-1.94104,28.48816 -27.92848,52.9286 -58.11114,50.8721c-30.18266,-2.05649 -53.13099,-29.83117 -51.18995,-58.31932c1.94104,-28.48815 27.98246,-49.91526 58.16512,-47.85875c30.18266,2.05649 53.07703,26.81782 51.13599,55.30597z" fill="url(#color-11)" stroke="#000000" stroke-width="2.5" stroke-linecap="butt"/><path d="M281.70504,91.82482l3.8276,-85.30074c0,0 7.00359,-2.0208 16.04514,-2.73687c5.68756,-0.45044 13.00762,-1.09073 17.30963,-1.09073c4.26509,0 12.0801,1.17789 17.74982,1.62052c9.20089,0.7183 15.87836,2.20708 15.87836,2.20708l3.55419,84.48054c0,0 -4.62883,4.57068 -14.89434,7.84162c-5.61892,1.79038 -16.49935,3.19135 -20.93149,3.24024c-5.45359,0.06015 -16.38795,-1.06601 -23.84665,-3.33338c-9.29878,-2.82674 -14.69227,-6.92828 -14.69227,-6.92828z" fill="url(#color-12)" stroke="#000000" stroke-width="2.5" stroke-linecap="butt"/><path d="M332.19646,171.28485c0,6.2005 -6.21699,11.22701 -13.88603,11.22701c-7.66905,0 -13.88604,-5.02651 -13.88604,-11.22701c0,-4.13256 2.76163,-7.74362 6.87419,-9.69262c2.05793,-0.97528 4.65111,1.02616 7.20882,1.02616c2.52643,0 4.69832,-2.01504 6.73923,-1.06176c4.15431,1.94042 6.94984,5.57036 6.94984,9.72822z" fill="url(#color-13)" stroke="#000000" stroke-width="2.5" stroke-linecap="butt"/><path d="M310.78864,161.04263c0,0 -8.78349,2.19587 -12.59153,3.14788c-3.16184,0.79046 -8.68069,2.17017 -8.68069,2.17017" fill="none" stroke="#000000" stroke-width="2.5" stroke-linecap="round"/><path d="M324.97013,161.83052l25.01456,4.92413" fill="none" stroke="#000000" stroke-width="2.5" stroke-linecap="round"/><path d="M318.15058,162.16485l-0.1413,12.01067" fill="none" stroke="#000000" stroke-width="2.5" stroke-linecap="round"/><path d="M334.50157,122.07411c0,2.70884 -6.65243,4.90479 -14.85862,4.90479c-8.2062,0 -14.85862,-2.19595 -14.85862,-4.90479c0,-2.70884 6.65243,-4.90479 14.85862,-4.90479c8.2062,0 14.85862,2.19595 14.85862,4.90479z" fill-opacity="0.18431" fill="#000000" stroke="none" stroke-width="0" stroke-linecap="butt"/><path d="M297.54965,118.04049c0,2.23486 -1.98847,4.04658 -4.44137,4.04658c-2.4529,0 -4.44137,-1.81172 -4.44137,-4.04658c0,-2.23487 1.98847,-4.04659 4.44137,-4.04659c2.4529,0 4.44137,1.81172 4.44137,4.04659z" fill="#ffffff" stroke="#000000" stroke-width="2.5" stroke-linecap="butt"/><path d="M349.72689,117.71084c0,2.23487 -1.98847,4.04658 -4.44137,4.04658c-2.4529,0 -4.44137,-1.81172 -4.44137,-4.04658c0,-2.23486 1.98847,-4.04658 4.44137,-4.04658c2.4529,0 4.44137,1.81172 4.44137,4.04658z" fill="#ffffff" stroke="#000000" stroke-width="2.5" stroke-linecap="butt"/><path d="M342.44481,210.33601c-1.55985,-0.7585 2.14922,-3.49945 3.03925,-4.80611c2.34883,-3.44831 7.54433,-7.04847 11.90749,-4.43277c4.40689,2.64191 5.24934,16.26666 6.46828,21.25843c0.79318,3.2482 -1.65741,8.57018 -2.40197,11.70771c-0.79333,3.34301 -0.74694,7.63205 -2.98569,10.50217c-1.93737,2.48374 -4.92256,4.76941 -7.40145,6.39516c-3.50586,2.29926 -6.1955,6.34647 -10.07167,8.07431c-5.61184,2.50153 -15.60203,0.37004 -20.94429,-2.63542c-6.60852,-3.71784 -11.86992,-11.21309 -8.5688,-18.78653c0.91226,-2.0929 4.0883,-2.7202 4.89435,-4.68279c1.03951,-2.53102 -1.83053,-5.99263 1.88972,-9.2972c1.22344,-1.08673 4.34192,-1.36142 5.33584,-2.60296c2.20842,-2.75859 -0.13547,-8.68041 1.78407,-11.80421c2.36369,-3.8466 14.89202,-1.06774 17.95034,1.05391z" fill="#d7692b" stroke="#000000" stroke-width="2.5" stroke-linecap="round"/><path d="M295.70986,218.43697c3.05832,-2.12165 15.58665,-4.90051 17.95034,-1.05391c1.91955,3.1238 -0.42434,9.04563 1.78407,11.80422c0.99392,1.24154 4.1124,1.51622 5.33584,2.60295c3.72026,3.30457 0.85022,6.76618 1.88972,9.2972c0.80605,1.96259 3.98209,2.58988 4.89435,4.68279c3.30112,7.57344 -1.96028,15.06869 -8.5688,18.78653c-5.34226,3.00546 -15.33246,5.13694 -20.94429,2.63541c-3.87617,-1.72784 -6.56581,-5.77504 -10.07167,-8.0743c-2.4789,-1.62574 -5.46409,-3.91142 -7.40145,-6.39516c-2.23876,-2.87012 -2.19237,-7.15916 -2.9857,-10.50217c-0.74457,-3.13753 -3.19515,-8.4595 -2.40197,-11.70771c1.21894,-4.99177 2.0614,-18.61652 6.46829,-21.25843c4.36316,-2.6157 9.55867,0.98446 11.90749,4.43277c0.89004,1.30666 4.59909,4.0476 3.03925,4.8061z" fill="#d7692b" stroke="#000000" stroke-width="2.5" stroke-linecap="round"/></g></g></svg>