<svg version="1.1" xmlns="http://www.w3.org/2000/svg" xmlns:xlink="http://www.w3.org/1999/xlink" width="136.43719" height="334.17192" viewBox="0,0,136.43719,334.17192"><defs><linearGradient x1="320.9756" y1="164.59109" x2="318.97827" y2="343.42122" gradientUnits="userSpaceOnUse" id="color-1"><stop offset="0" stop-color="#f2acec"/><stop offset="1" stop-color="#cea1ff"/></linearGradient><linearGradient x1="277.97202" y1="174.13724" x2="277.97202" y2="289.43821" gradientUnits="userSpaceOnUse" id="color-2"><stop offset="0" stop-color="#9b60f2"/><stop offset="1" stop-color="#8784ca"/></linearGradient><linearGradient x1="363.50522" y1="173.59335" x2="363.50522" y2="288.89432" gradientUnits="userSpaceOnUse" id="color-3"><stop offset="0" stop-color="#9b60f2"/><stop offset="1" stop-color="#8784ca"/></linearGradient></defs><g transform="translate(-252.6644,-16.12102)"><g stroke-miterlimit="10"><path d="M271.59601,339.78259l-2.68315,-144.19585c0,0 9.12853,-28.77815 18.98037,-29.18338c9.78368,-0.40242 32.96936,-0.95905 53.22533,-1.79223c21.96999,-0.90368 31.2489,29.05462 31.2489,29.05462l-4.20626,149.75547z" fill="url(#color-1)" stroke="#000000" stroke-width="2.5" stroke-linecap="butt"/><path d="M345.08656,173.7618c-0.13537,12.1202 -11.06671,21.94558 -24.41582,21.94558c-13.34911,0 -24.06097,-9.82538 -23.92559,-21.94558c0.13537,-12.1202 10.90861,-7.79144 24.25772,-7.79144c13.34911,0 24.21906,-4.32877 24.08369,7.79144z" fill="#f2caef" stroke-opacity="0.52549" stroke="#000000" stroke-width="1.5" stroke-linecap="butt"/><path d="M336.80959,173.4724c-0.08776,7.85703 -7.49267,14.22642 -16.53936,14.22642c-9.04669,0 -16.30934,-6.36938 -16.22158,-14.22642c0.08776,-7.85703 7.49268,-14.22642 16.53936,-14.22642c9.04669,0 16.30933,6.36938 16.22158,14.22642z" fill="#f235e2" stroke="#000000" stroke-width="2.5" stroke-linecap="butt"/><path d="M279.23187,209.13051l2.211,-4.9279" fill="none" stroke-opacity="0.15294" stroke="#000000" stroke-width="2.5" stroke-linecap="round"/><path d="M280.7496,238.69793l-2.39516,-6.15988" fill="none" stroke-opacity="0.15294" stroke="#000000" stroke-width="2.5" stroke-linecap="round"/><path d="M363.95772,206.66656l2.1938,-3.38793" fill="none" stroke-opacity="0.15294" stroke="#000000" stroke-width="2.5" stroke-linecap="round"/><path d="M361.90336,225.1462l0.55063,5.85189" fill="none" stroke-opacity="0.15294" stroke="#000000" stroke-width="2.5" stroke-linecap="round"/><path d="M349.39417,186.95495c0,0 2.0935,-1.77742 2.89465,-2.4576c0.56869,-0.48282 1.45855,-1.23833 1.45855,-1.23833" fill="none" stroke-opacity="0.15294" stroke="#000000" stroke-width="2.5" stroke-linecap="round"/><path d="M287.8401,182.95103l2.4502,1.23197" fill="none" stroke-opacity="0.15294" stroke="#000000" stroke-width="2.5" stroke-linecap="round"/><path d="M357.95608,192.49884h1.84796" fill="none" stroke-opacity="0.15294" stroke="#000000" stroke-width="2.5" stroke-linecap="round"/><path d="M349.75583,264.87741l-1.51933,-1.84796" fill="none" stroke-opacity="0.15294" stroke="#000000" stroke-width="2.5" stroke-linecap="round"/><path d="M294.08301,285.821l1.26293,-2.77195" fill="none" stroke-opacity="0.15294" stroke="#000000" stroke-width="2.5" stroke-linecap="round"/><path d="M298.43387,180.40071l5.14598,-4.00242" fill="none" stroke-opacity="0.15294" stroke="#000000" stroke-width="2.5" stroke-linecap="round"/><path d="M306.05755,181.16308l-2.47769,8.19545" fill="none" stroke-opacity="0.15294" stroke="#000000" stroke-width="2.5" stroke-linecap="round"/><path d="M313.10944,187.26202l-1.71533,6.28953" fill="none" stroke-opacity="0.15294" stroke="#000000" stroke-width="2.5" stroke-linecap="round"/><path d="M321.68607,194.6951l-0.76237,-6.09894" fill="none" stroke-opacity="0.15294" stroke="#000000" stroke-width="2.5" stroke-linecap="round"/><path d="M330.26269,184.59373l2.66828,7.43308" fill="none" stroke-opacity="0.15294" stroke="#000000" stroke-width="2.5" stroke-linecap="round"/><path d="M340.36405,182.49722l-5.71775,-2.66828" fill="none" stroke-opacity="0.15294" stroke="#000000" stroke-width="2.5" stroke-linecap="round"/><path d="M342.46057,175.44533l-5.33657,-0.19059" fill="none" stroke-opacity="0.15294" stroke="#000000" stroke-width="2.5" stroke-linecap="round"/><path d="M255.14028,293.83528c0,0 -5.23684,-36.12594 5.93708,-82.0485c11.17392,-45.92256 18.133,-43.9159 24.63768,-43.60759c7.1732,0.34 19.52208,5.95805 19.52208,5.95805l-13.74338,159.27168c0,0 -13.10987,15.63403 -19.0634,15.63403c-1.22551,0 -17.29006,-55.20767 -17.29006,-55.20767z" fill="url(#color-2)" stroke="#000000" stroke-width="2.5" stroke-linecap="butt"/><path d="M369.11342,348.49906c-6.02499,0 -19.2922,-15.63403 -19.2922,-15.63403l-13.90833,-159.27168c0,0 12.4971,-5.61805 19.75639,-5.95805c6.58275,-0.30831 13.62535,-2.31498 24.93338,43.60759c11.30803,45.92256 6.00833,82.0485 6.00833,82.0485c0,0 -16.25736,55.20767 -17.49758,55.20767z" fill="url(#color-3)" stroke="#000000" stroke-width="2.5" stroke-linecap="butt"/><path d="M296.47675,73.75459c0.55946,19.74904 -0.04643,39.09258 -4.44262,49.24241c-2.51038,5.79593 -7.60252,7.32229 -11.02751,7.41932c-3.35969,0.09518 -7.05155,0.05385 -9.84866,-5.39248c-5.04789,-9.82888 -8.23883,-30.33851 -8.80438,-50.30259c-0.31005,-10.94474 -2.73195,-22.20866 -1.33253,-30.89178c2.56769,-15.93202 10.70377,-25.59716 16.80267,-25.76994c5.35464,-0.15169 11.33934,3.08738 14.82734,15.70546c2.65003,9.58664 3.44622,26.59427 3.82569,39.9896z" fill="#f235e2" stroke="#000000" stroke-width="2.5" stroke-linecap="butt"/><path d="M292.5995,71.32136c0.41926,13.25286 -0.03479,26.2336 -3.32936,33.04478c-1.88132,3.88943 -5.69744,4.91371 -8.26418,4.97883c-2.5178,0.06387 -5.28452,0.03614 -7.38072,-3.61869c-3.78296,-6.59581 -6.1743,-20.35906 -6.59813,-33.75623c-0.23235,-7.34462 -2.04737,-14.90342 -0.99862,-20.73035c1.92426,-10.6914 7.28024,-9.93036 11.85084,-10.0463c4.01285,-0.1018 9.23918,-5.17513 11.85314,3.2924c1.98597,6.43324 2.58265,17.84644 2.86703,26.83556z" fill="#ff6fed" stroke="#000000" stroke-width="2.5" stroke-linecap="butt"/><path d="M343.47491,33.08151c3.488,-12.61808 9.4727,-15.85715 14.82734,-15.70546c6.0989,0.17278 14.23498,9.83791 16.80267,25.76994c1.39942,8.68312 -1.02249,19.94704 -1.33254,30.89178c-0.56556,19.96408 -3.75648,40.4737 -8.80438,50.30259c-2.79711,5.44633 -6.48897,5.48765 -9.84866,5.39248c-3.425,-0.09703 -8.51713,-1.62339 -11.02751,-7.41932c-4.39619,-10.14983 -5.00208,-29.49336 -4.44262,-49.2424c0.37947,-13.39533 1.17567,-30.40296 3.82569,-39.9896z" fill="#f235e2" stroke="#000000" stroke-width="2.5" stroke-linecap="butt"/><path d="M346.23688,43.4218c2.61396,-8.37309 7.8403,-3.35634 11.85315,-3.25568c4.5706,0.11465 9.92657,-0.6379 11.85083,9.93424c1.04874,5.76193 -0.76626,13.23642 -0.99862,20.49912c-0.42383,13.24773 -2.81517,26.85747 -6.59813,33.37971c-2.0962,3.61406 -4.86292,3.64148 -7.38072,3.57833c-2.56674,-0.06439 -6.38286,-1.07724 -8.26418,-4.92329c-3.29456,-6.7352 -3.74863,-19.57116 -3.32936,-32.67619c0.28438,-8.88885 0.88106,-20.17475 2.86703,-26.53623z" fill="#ff6fed" stroke="#000000" stroke-width="2.5" stroke-linecap="butt"/><path d="M374.73418,121.99074c0,28.00291 -24.26594,53.64847 -54.51858,53.64847c-30.25264,0 -55.03592,-25.64557 -55.03592,-53.64847c0,-28.0029 24.52462,-50.70374 54.77726,-50.70374c30.25264,0 54.77725,22.70084 54.77725,50.70374z" fill="#f235e2" stroke="#000000" stroke-width="2.5" stroke-linecap="butt"/><path d="M351.14815,115.45518c0,2.23487 -1.98847,4.04658 -4.44137,4.04658c-2.4529,0 -4.44137,-1.81172 -4.44137,-4.04658c0,-2.23486 1.98847,-4.04658 4.44137,-4.04658c2.4529,0 4.44137,1.81172 4.44137,4.04658z" fill="#ffffff" stroke="#000000" stroke-width="2.5" stroke-linecap="butt"/><path d="M298.97089,115.78483c0,2.23486 -1.98847,4.04658 -4.44137,4.04658c-2.4529,0 -4.44137,-1.81172 -4.44137,-4.04658c0,-2.23487 1.98847,-4.04659 4.44137,-4.04659c2.4529,0 4.44137,1.81172 4.44137,4.04659z" fill="#ffffff" stroke="#000000" stroke-width="2.5" stroke-linecap="butt"/><path d="M335.92281,119.81848c0,2.70884 -6.65243,4.90479 -14.85862,4.90479c-8.2062,0 -14.85862,-2.19595 -14.85862,-4.90479c0,-2.70884 6.65243,-4.90479 14.85862,-4.90479c8.2062,0 14.85862,2.19595 14.85862,4.90479z" fill-opacity="0.18431" fill="#ff0505" stroke="none" stroke-width="0" stroke-linecap="butt"/><path d="M356.56603,109.23222c0.66651,1.05749 -0.39098,1.72399 -0.39098,1.72399l-0.63368,0.39035c-1.18104,0.57295 -3.12164,2.07428 -4.34231,2.27514c-1.52163,0.2504 -2.75771,-0.98913 -4.15491,-1.28423c0,0 -1.21904,-0.27646 -0.94258,-1.49551c0.27646,-1.21904 1.49551,-0.94258 1.49551,-0.94258c0.49667,0.11832 2.78499,1.38108 3.17981,1.25822c1.1507,-0.35808 2.52767,-1.50444 3.67319,-2.06029l0.39196,-0.25608c0,0 1.05748,-0.66651 1.72398,0.39098z" fill="#000000" stroke="none" stroke-width="0.5" stroke-linecap="butt"/><path d="M303.77246,109.34387c0.62666,1.08157 -0.45491,1.70823 -0.45491,1.70823l-0.22387,0.12971c-2.94718,1.69073 -5.38129,2.16433 -8.64341,1.29561c0,0 -1.2079,-0.32167 -0.88623,-1.52957c0.32167,-1.2079 1.52957,-0.88623 1.52957,-0.88623c2.60849,0.69466 4.35043,0.36215 6.74674,-1.04296l0.22387,-0.12971c0,0 1.08157,-0.62666 1.70823,0.45491z" fill="#000000" stroke="none" stroke-width="0.5" stroke-linecap="butt"/><g fill="#ff6fed" stroke="#000000" stroke-width="2.5"><path d="M320.68459,77.086l26.73544,-8.84657l1.62292,29.54957l-28.96821,-13.0852l-28.22271,13.58024l-0.29754,-27.86876z" stroke-linecap="round"/><path d="M330.34806,81.72003c0.12297,4.51143 -4.23122,8.13448 -9.72535,8.09233c-5.49413,-0.04215 -10.04768,-3.73356 -10.17065,-8.24499c-0.12297,-4.51143 4.23121,-8.13447 9.72534,-8.09232c5.49413,0.04215 10.04769,3.73354 10.17066,8.24497z" stroke-linecap="butt"/></g><path d="M262.30817,240.86567l24.71078,3.45951" fill="none" stroke-opacity="0.29804" stroke="#000000" stroke-width="2.5" stroke-linecap="round"/><path d="M291.21978,220.35573l-3.70662,21.99259" fill="none" stroke-opacity="0.29804" stroke="#000000" stroke-width="2.5" stroke-linecap="round"/><path d="M266.2619,215.90779l21.25127,3.45951" fill="none" stroke-opacity="0.29804" stroke="#000000" stroke-width="2.5" stroke-linecap="round"/><path d="M262.80239,237.65327l2.71819,-16.55622" fill="none" stroke-opacity="0.29804" stroke="#000000" stroke-width="2.5" stroke-linecap="round"/><path d="M290.47846,213.68382l5.18926,-21.00416" fill="none" stroke-opacity="0.29804" stroke="#000000" stroke-width="2.5" stroke-linecap="round"/><path d="M266.2619,210.96563l5.93059,-22.48681" fill="none" stroke-opacity="0.29804" stroke="#000000" stroke-width="2.5" stroke-linecap="round"/><path d="M278.61729,188.23171l10.62563,1.48265" fill="none" stroke-opacity="0.29804" stroke="#000000" stroke-width="2.5" stroke-linecap="round"/><path d="M263.57826,300.28858l25.03826,0.97619" fill="none" stroke-opacity="0.29804" stroke="#000000" stroke-width="2.5" stroke-linecap="round"/><path d="M288.69287,299.24845l-0.91388,-22.25271" fill="none" stroke-opacity="0.29804" stroke="#000000" stroke-width="2.5" stroke-linecap="round"/><path d="M262.29248,275.06072l21.63337,1.32143" fill="none" stroke-opacity="0.29804" stroke="#000000" stroke-width="2.5" stroke-linecap="round"/><path d="M262.63928,280.29806l0.75903,16.74484" fill="none" stroke-opacity="0.29804" stroke="#000000" stroke-width="2.5" stroke-linecap="round"/><path d="M285.6654,270.43112l0.75039,-21.41718" fill="none" stroke-opacity="0.29804" stroke="#000000" stroke-width="2.5" stroke-linecap="round"/><path d="M262.43978,247.17683l-1.17247,22.9664" fill="none" stroke-opacity="0.29804" stroke="#000000" stroke-width="2.5" stroke-linecap="round"/><path d="M268.71189,246.28978l10.76543,0.41485" fill="none" stroke-opacity="0.29804" stroke="#000000" stroke-width="2.5" stroke-linecap="round"/><path d="M375.24185,239.44087l-24.71078,3.45951" fill="none" stroke-opacity="0.29804" stroke="#000000" stroke-width="2.5" stroke-linecap="round"/><path d="M350.03685,240.92351l-3.70661,-21.99259" fill="none" stroke-opacity="0.29804" stroke="#000000" stroke-width="2.5" stroke-linecap="round"/><path d="M350.03685,217.94249l21.25127,-3.45951" fill="none" stroke-opacity="0.29804" stroke="#000000" stroke-width="2.5" stroke-linecap="round"/><path d="M374.74763,236.22847l-2.71819,-16.55622" fill="none" stroke-opacity="0.29804" stroke="#000000" stroke-width="2.5" stroke-linecap="round"/><path d="M341.88229,191.25485l5.18927,21.00416" fill="none" stroke-opacity="0.29804" stroke="#000000" stroke-width="2.5" stroke-linecap="round"/><path d="M371.28812,209.54083l-5.93058,-22.48681" fill="none" stroke-opacity="0.29804" stroke="#000000" stroke-width="2.5" stroke-linecap="round"/><path d="M348.3071,188.28956l10.62564,-1.48264" fill="none" stroke-opacity="0.29804" stroke="#000000" stroke-width="2.5" stroke-linecap="round"/><path d="M373.97177,298.86378l-25.03826,0.97619" fill="none" stroke-opacity="0.29804" stroke="#000000" stroke-width="2.5" stroke-linecap="round"/><path d="M348.85716,297.82365l0.91387,-22.2527" fill="none" stroke-opacity="0.29804" stroke="#000000" stroke-width="2.5" stroke-linecap="round"/><path d="M375.25754,273.63592l-21.63337,1.32143" fill="none" stroke-opacity="0.29804" stroke="#000000" stroke-width="2.5" stroke-linecap="round"/><path d="M374.91074,278.87325l-0.75903,16.74484" fill="none" stroke-opacity="0.29804" stroke="#000000" stroke-width="2.5" stroke-linecap="round"/><path d="M351.88463,269.00632l-0.7504,-21.41718" fill="none" stroke-opacity="0.29804" stroke="#000000" stroke-width="2.5" stroke-linecap="round"/><path d="M376.28271,268.71843l-1.17246,-22.9664" fill="none" stroke-opacity="0.29804" stroke="#000000" stroke-width="2.5" stroke-linecap="round"/><path d="M358.0727,245.27983l10.76543,-0.41485" fill="none" stroke-opacity="0.29804" stroke="#000000" stroke-width="2.5" stroke-linecap="round"/><path d="M334.9883,163.71022c0,0 0.3659,1.47389 -3.46402,2.30605c-2.9564,0.64237 -9.91589,0.68765 -12.11774,0.71402c-2.34748,0.02811 -8.76567,-0.43465 -11.63035,-1.09444c-2.98011,-0.68638 -2.36206,-1.57144 -2.36206,-1.57144" fill="none" stroke="#000000" stroke-width="2.5" stroke-linecap="round"/><path d="M327.19053,143.79687l-6.82507,3.87788l-4.65346,-3.25742" fill="none" stroke="#000000" stroke-width="2.5" stroke-linecap="round"/></g></g></svg>