<svg version="1.1" xmlns="http://www.w3.org/2000/svg" xmlns:xlink="http://www.w3.org/1999/xlink" width="197.93527" height="353.64005" viewBox="0,0,197.93527,353.64005"><defs><radialGradient cx="283.21746" cy="94.17849" r="12.80419" gradientUnits="userSpaceOnUse" id="color-1"><stop offset="0" stop-color="#ffffff"/><stop offset="1" stop-color="#1a1a1a"/></radialGradient><radialGradient cx="302.6328" cy="68.08963" r="12.81549" gradientUnits="userSpaceOnUse" id="color-2"><stop offset="0" stop-color="#ffffff"/><stop offset="1" stop-color="#1a1a1a"/></radialGradient></defs><g transform="translate(-200.8795,-0.43854)"><g data-paper-data="{&quot;isPaintingLayer&quot;:true}" fill-rule="nonzero" stroke-width="2" stroke-linejoin="miter" stroke-miterlimit="10" stroke-dasharray="" stroke-dashoffset="0" style="mix-blend-mode: normal"><path d="M314.36723,219.96882c5.76409,-0.13237 13.78239,-1.54236 19.74207,-2.60187c6.49812,-1.15523 14.81099,0 21.25647,0c3.78619,0 15.22825,0.81588 15.22825,0.81588l1.20664,6.00049l3.20168,19.22302l-3.01958,22.19283c0,0 -2.50957,28.12586 -9.58982,42.24651c-3.09614,6.17489 3.80578,13.61581 -5.734,17.39061c-3.37814,1.33668 -12.69454,9.84286 -16.18051,9.84286c-5.0571,0 -10.11801,-6.02741 -16.07223,-7.357c-7.5814,-1.69295 -24.49105,1.74176 -24.49105,1.74176l-7.04695,-7.23499l5.35352,-20.2736c0,0 5.57887,-30.18988 10.0594,-49.66792c1.47229,-6.40037 0.67935,-27.83886 4.6664,-32.31754z" fill="#3c2c1f" stroke="#000000" stroke-linecap="round"/><path d="M343.10791,233.22637l-17.52322,93.39573" fill="none" stroke="#000000" stroke-linecap="round"/><path d="M326.16096,333.56979c-1.90073,10.55066 -4.16411,19.5088 -15.0501,19.5088c-10.886,0 -24.37158,-19.5088 -24.37158,-19.5088c0,0 12.26643,-19.10368 23.15242,-19.10368c10.886,0 18.16999,8.553 16.26926,19.10368z" fill="#000000" stroke="#000000" stroke-linecap="butt"/><path d="M365.62578,330.40045c-1.90073,10.55068 -6.59481,19.91391 -17.48081,19.91391c-10.88599,0 -23.84161,-9.36323 -21.94088,-19.91391c1.90073,-10.55068 12.26643,-19.10368 23.15242,-19.10368c10.886,0 18.17,8.553 16.26927,19.10368z" fill="#000000" stroke="#000000" stroke-linecap="butt"/><path d="M328.78717,211.81384c-7.49232,4.12372 -27.76663,0.64147 -27.76663,0.64147l-57.96573,-66.41084l11.94697,-54.42844l21.03651,-2.72825l13.0411,18.05254l-12.99663,10.47055l-6.56122,38.92448c0,0 31.81039,32.75889 47.55496,29.30011c8.13887,-1.78797 12.85661,-21.40473 21.57071,-19.88704c25.83552,4.49963 6.36553,42.20156 -8.6167,46.26018z" fill="#feed00" stroke="#000000" stroke-linecap="round"/><g><path d="M367.86248,199.09647l13.75664,-12.65473l16.06556,23.09968l-2.58331,6.37988l-2.52013,-1.82868l0.70489,5.20394l-3.23394,8.79259l-5.41314,-4.79861l-7.76209,5.24213l-5.71989,-12.7902c0,0 -5.18592,3.70971 -8.94588,-2.9232c-3.45811,-6.10048 5.43082,-13.99667 5.43082,-13.99667z" fill="#feed00" stroke="#000000" stroke-linecap="round"/><path d="M388.01133,204.99026l-2.4257,4.00876l-4.47789,-3.31697l-3.98064,-2.6867l3.94754,-7.01171l6.89106,-3.63392l0.04564,12.64053z" fill="#ffa600" stroke="none" stroke-linecap="butt"/><path d="M368.88248,210.84633c0,0 -1.71786,3.53706 -3.50259,2.6413c-1.78471,-0.89578 -3.11015,-3.53066 -2.96045,-5.88518c0.1497,-2.35452 1.71786,-3.53706 3.50258,-2.6413c1.78471,0.89578 2.96046,5.88517 2.96046,5.88517z" fill="#ffa600" stroke="none" stroke-linecap="butt"/><path d="M381.77521,224.41483l-3.45859,2.60472l-2.92368,-5.80806l3.45859,-2.60473l2.92368,5.80806z" fill="#ffa600" stroke="none" stroke-linecap="butt"/><path d="M391.42237,222.15935l-2.88945,2.83172l-2.36176,-5.46737l2.88945,-2.83172z" fill="#ffa600" stroke="none" stroke-linecap="butt"/><path d="M396.72463,209.56976l-2.02672,3.03011l-1.52795,-4.81424l2.02672,-3.03011z" fill="#ffa600" stroke="none" stroke-linecap="butt"/></g><g><path d="M303.83627,208.97168c3.37034,-0.66156 10.04581,6.3596 7.61659,12.93784c-2.64125,7.15239 -7.09087,3.13592 -8.35747,4.3274c-0.24391,0.22943 3.09365,11.35997 0.46843,13.95023c-4.85172,4.78714 -8.50577,-3.92196 -8.50577,-3.92196l-4.56857,5.60863l-4.60935,-8.15609l-4.19459,-5.65462l1.85886,2.61622l-7.62937,-6.28498l16.72464,-24.90694c0,0 7.88595,6.6444 11.0232,9.79009z" fill="#feed00" stroke="#000000" stroke-linecap="round"/><path d="M287.32879,206.34146l7.38683,2.47522l0.43253,5.80255l-3.49534,3.29338l-3.88446,3.99559l-3.04033,-3.56518l2.60079,-12.00157z" fill="#ffa600" stroke="none" stroke-linecap="butt"/><path d="M306.52357,214.75259c1.61692,-1.17183 3.35524,-0.2576 3.88264,2.04198c0.52739,2.29958 -0.35585,5.11369 -1.97278,6.28551c-1.61692,1.17183 -3.35526,0.25762 -3.88265,-2.04196c-0.52739,-2.29958 0.35585,-5.11369 1.97279,-6.28552z" fill="#ffa600" stroke="none" stroke-linecap="butt"/><path d="M300.01464,230.70956c0,0 3.31296,-0.25593 3.83332,2.01297c0.52036,2.2689 -0.3522,5.0463 -1.94892,6.20347c-1.59672,1.15716 -3.83332,-2.01297 -3.83332,-2.01297z" fill="#ffa600" stroke="none" stroke-linecap="butt"/><path d="M285.57926,230.06082l7.3594,2.73388l-1.44931,5.77665l-3.30824,-2.32877z" fill="#ffa600" stroke="none" stroke-linecap="butt"/><path d="M277.59882,219.26995l2.48878,2.66367l-0.7317,4.99761l-2.48878,-2.66367z" fill="#ffa600" stroke="none" stroke-linecap="butt"/></g><path d="M308.39392,188.70273c-1.13956,6.46183 -8.59358,24.72384 -8.59358,24.72384l-25.14256,-3.94849l7.25729,-22.19154l10.97943,-71.13721c0,0 -6.86344,-20.19245 -5.36041,-25.05938l1.17513,-0.05054c13.20595,1.5539 37.7032,17.7032 51.38263,15.02804c5.47471,-1.07063 -2.94949,-14.58964 0.75935,-18.75219c0.84798,-0.95171 3.33678,-3.27524 4.85914,-2.4366c3.42636,1.88753 20.37254,24.53852 20.37254,24.53852l18.88095,44.08709l9.10572,30.73064l-17.60309,17.68577l-5.32669,3.35314l-4.25004,-38.74385l2.20489,39.96581l1.64321,13.97906c0,0 -10.05735,4.56493 -12.90949,5.11469c-11.53714,2.22379 -23.7286,0.95107 -35.2535,3.21178c-3.74597,0.73479 -9.03179,4.7341 -12.54427,3.19182c-1.87204,-0.822 -5.43199,-6.77839 -5.57331,-8.51977c-0.62214,-7.66638 -2.52279,-16.3739 -1.62979,-24.00961" fill="#fffe8a" stroke="#000000" stroke-linecap="round"/><path d="M301.86837,112.38753c7.98028,-11.83376 3.30349,-34.6873 14.0956,-44.25025c2.30153,-2.03939 10.55247,-8.95195 13.38748,-5.08769c3.85305,5.25193 1.88578,12.09368 -1.15212,17.25921c-5.47659,9.31224 -9.77586,38.98877 -20.3012,41.97058c-7.49086,2.12216 -11.67372,-4.35402 -6.08658,-10.14699z" fill="#fffe8a" stroke="#000000" stroke-linecap="round"/><g stroke-linecap="butt"><path d="M242.85614,48.12634l15.16272,34.19197l20.07281,24.41071l-1.80758,-1.29799l-26.64799,-21.7824l-34.47059,-28.1315l-12.84656,-12.04798l1.40047,-1.39236l21.92581,2.07786l17.55349,3.23552z" fill="#feed00" stroke="#000000"/><path d="M240.93433,52.96356l12.1742,22.96722l5.87495,8.721l-1.229,-0.7968l-9.75728,-6.48384l-23.70721,-17.55604l-8.9604,-7.63556l0.76029,-1.05822l13.81383,0.11585l11.18496,1.19116z" fill="#ffa700" stroke="none"/></g><g stroke-linecap="butt"><path d="M267.5679,21.98365l-4.53996,-14.94802c0,0 0.23736,2.31588 -0.89095,-3.92364c-0.2196,-1.21429 -0.82719,-2.15343 1.05892,-1.40839c2.9433,1.16266 11.6573,9.67418 11.6573,9.67418l24.57721,11.50247l10.49634,11.16499l1.2982,1.41314c0,0 -10.87587,-4.46647 -12.10232,-5.06369c-11.15991,-5.43435 -30.95517,-8.80728 -30.95517,-8.80728z" fill="#feed00" stroke="#000000"/><path d="M271.69497,19.47727l-2.14331,-9.63859l1.60901,2.92323l0.83519,-0.80411l4.38063,-8.15634l17.48511,18.46439c0,0 4.32569,5.17127 6.55773,7.69644c0.28041,0.31724 0.87436,0.72169 0.80889,0.97203c-0.15774,0.60295 -7.28134,-3.54612 -8.09603,-4.00432c-7.4132,-4.16951 -20.99179,-7.65783 -20.99179,-7.65783z" fill="#ffa700" stroke="none"/></g><path d="M251.19899,34.91827l26.34993,-16.90649c0,0 14.00723,4.95451 21.50007,9.39785c2.30126,1.36468 7.30548,3.11764 7.30548,3.11764c0,0 3.52104,15.01371 12.96937,35.04249c4.59928,9.74966 6.22398,0.8329 9.52623,9.13156c2.05078,5.15367 15.78737,38.99812 13.56848,41.85235c-3.98964,5.13202 -14.18127,7.68116 -26.62853,3.23465c-5.79789,-2.07117 -8.05078,-6.89854 -13.04717,-8.12103c-13.84738,-3.38812 -20.1239,2.36782 -20.1239,2.36782l-34.62008,-34.50737l-7.43586,-9.27062l11.07856,-35.40319z" fill="#feed00" stroke="#000000" stroke-linecap="butt"/><path d="M307.04066,36.07958c3.25744,-2.8159 15.50834,-0.47705 15.50834,-0.47705l-2.68828,7.93959l2.73795,0.70771l6.78246,5.07485c0,0 -5.26723,10.27933 -9.45103,10.38934" fill="#feed00" stroke="#000000" stroke-linecap="round"/><path d="M293.7426,114.95141l-10.04079,9.82055l-5.31676,-6.59452l-0.80625,-2.71058l-7.8372,2.97362l-12.4099,-26.76946" fill="#feed00" stroke="#000000" stroke-linecap="round"/><path d="M228.71374,115.25307l25.59487,-25.51167" fill="none" stroke="#000000" stroke-linecap="round"/><path d="M255.43829,90.34254l-13.14211,31.32284" fill="none" stroke="#000000" stroke-linecap="round"/><path d="M255.08119,91.21917l-3.93602,32.66858" fill="none" stroke="#000000" stroke-linecap="round"/><path d="M318.39303,12.63874l-10.79621,19.82575" fill="none" stroke="#000000" stroke-linecap="round"/><path d="M306.39908,34.97239c1.97406,-13.32621 20.56197,-26.67876 20.56197,-26.67876" fill="none" stroke="#000000" stroke-linecap="round"/><path d="M331.81306,16.89311l-21.96139,16.5251" fill="none" stroke="#000000" stroke-linecap="round"/><path d="M284.70106,71.92831c2.58245,-2.67758 5.12787,-5.66423 8.02312,-8.00276c0.36747,-0.2968 0.78108,-1.0153 1.18711,-0.77389c0.53186,0.31623 -1.37908,7.73465 -1.95282,8.24731c-1.29018,1.15285 -5.52648,0.67991 -6.9672,0.22844z" fill="#000000" stroke="#000000" stroke-linecap="round"/><path d="M276.55588,58.85789c5.09468,4.91367 5.30178,12.96447 0.46256,17.98197c-1.26658,1.31324 11.82015,42.63468 9.79994,42.86195c-5.69838,0.64105 -27.78686,-42.67398 -27.78686,-42.67398c0,0 -5.30178,-12.96446 -0.46257,-17.98195c4.83922,-5.0175 12.89224,-5.10167 17.98693,-0.188z" fill="url(#color-1)" stroke="#000000" stroke-linecap="butt"/><path d="M295.98,32.74623c5.09468,4.91367 14.82284,4.88598 9.98363,9.90347c-1.97775,2.05061 -13.43633,13.08679 -16.06635,13.48497c-3.80518,0.5761 -8.4291,-2.31303 -11.44162,-5.21851c-5.09468,-4.91367 -5.30178,-12.96446 -0.46257,-17.98195c4.83922,-5.0175 12.89223,-5.10165 17.98691,-0.18798z" fill="url(#color-2)" stroke="#000000" stroke-linecap="butt"/><path d="M243.15266,51.79194l1.10601,-9.97145l1.30568,-3.91067l-4.89201,1.86864l8.09069,-11.31286l2.948,-3.06312l-6.57266,1.74194l4.71576,-3.02802l15.45863,-0.72839" fill="#feed00" stroke="#000000" stroke-linecap="butt"/><path d="M245.80674,73.18505l-6.45112,-0.39626l-6.20237,1.99312l2.64,-7.71789l3.13558,-7.8497" fill="#feed00" stroke="#000000" stroke-linecap="butt"/><path d="M318.0184,143.54771c1.2776,0.41201 4.6832,-0.12125 5.28731,1.37265c2.02616,5.01034 -1.59087,9.94476 -6.50605,9.30918c-3.27298,-0.42322 1.54692,-11.41797 1.54692,-11.41797c0,0 -1.59958,-23.69505 -0.0255,-35.36297" fill="#ffaf36" stroke="#000000" stroke-linecap="round"/><path d="M344.71793,141.98749c8.69193,-11.44331 9.77158,17.24157 -0.58899,9.99381c-5.6095,-3.92413 0.58359,-8.46893 0.8831,-11.01972c1.41373,-12.04022 -4.59432,-24.32775 -1.98547,-36.63046" fill="#ffaf36" stroke="#000000" stroke-linecap="round"/><path d="M311.69754,191.05829c3.3009,-3.11052 7.74088,-2.94473 11.88069,-3.94752c13.3523,-3.23438 28.52954,-3.56561 42.19371,-2.47307" fill="none" stroke="#000000" stroke-linecap="round"/><path d="M365.9492,216.43669c-0.82468,-8.86104 2.03898,-27.93764 2.03898,-27.93764" fill="none" stroke="#000000" stroke-linecap="round"/><path d="M312.54061,195.25863c0.6888,8.48781 -2.63188,18.0908 -2.14553,26.57686" fill="none" stroke="#000000" stroke-linecap="round"/><path d="M311.44511,116.60326c-2.48045,1.24929 -5.5681,0.74304 -8.27481,1.47197" fill="none" stroke="#fcec41" stroke-linecap="round"/><path d="M327.16595,72.90939c0.35053,-1.92584 0.79065,-3.61811 1.53025,-5.43388" fill="none" stroke="#fcec41" stroke-linecap="round"/><path d="M326.11576,111.88245l0.77524,9.55301" fill="none" stroke="#fcec41" stroke-linecap="round"/><path d="M329.87547,114.86084l0.39708,4.89301" fill="none" stroke="#fcec41" stroke-linecap="round"/><path d="M333.35157,114.34419l1.00153,3.67128" fill="none" stroke="#fcec41" stroke-linecap="round"/><path d="M291.34501,212.49589l11.32273,-54.44212l-5.62561,53.47758z" fill="#fce541" stroke="#fcec41" stroke-linecap="round"/><path d="M291.34501,212.49589l11.32273,-54.44212l-5.62561,53.47758z" fill="#fce541" stroke="#fcec41" stroke-linecap="round"/><path d="M373.80064,201.27252l-8.29556,-45.55599l18.09564,39.02253z" fill="#fce541" stroke="#fcec41" stroke-linecap="round"/><path d="M321.36195,72.9494c9.67517,10.9756 24.883,35.50055 15.95705,43.36891c-8.92595,7.86836 -19.54097,2.69069 -29.21614,-8.28491c-4.33833,-4.92144 -26.56854,-16.92464 -26.01075,-20.9891c0.68618,-4.99994 8.38576,-10.48494 13.30933,-14.82514c3.59948,-3.17299 7.44176,-7.80631 11.22779,-9.06695c5.60254,-1.86548 8.95916,3.2476 14.73272,9.79719z" fill="#000000" stroke="#000000" stroke-linecap="butt"/><path d="M292.94387,85.31161c1.94401,2.2053 2.78858,4.63775 1.88642,5.43303c-0.90217,0.79527 -3.20945,-0.34778 -5.15346,-2.55308c-1.94401,-2.2053 -2.78858,-4.63775 -1.88642,-5.43303c0.90217,-0.79527 3.20945,0.34778 5.15346,2.55308z" fill="#ffffff" stroke="#000000" stroke-linecap="butt"/><path d="M297.59884,86.9333c1.87773,2.13012 15.07568,15.68401 14.27375,16.39092c-0.80193,0.70691 -15.30006,-11.70085 -17.17779,-13.83097c-1.87773,-2.13012 -2.74985,-4.42999 -1.94792,-5.1369c0.80193,-0.70691 2.97423,0.44683 4.85196,2.57695z" fill="#ffffff" stroke="#000000" stroke-linecap="butt"/><path d="M300.99534,86.76148c1.50219,1.7041 2.15112,3.58697 1.44944,4.20552c-0.70169,0.61855 -2.48828,-0.26146 -3.99047,-1.96556c-1.50219,-1.7041 -2.15112,-3.58697 -1.44944,-4.20552c0.70169,-0.61855 2.48828,0.26146 3.99047,1.96556z" fill="#ffffff" stroke="#000000" stroke-linecap="butt"/><path d="M305.55011,85.89117c1.52428,1.72916 2.06923,3.7398 1.21718,4.49089c-0.85205,0.7511 -2.77844,-0.04178 -4.30272,-1.77094c-1.52428,-1.72916 -2.06923,-3.7398 -1.21718,-4.49089c0.85205,-0.7511 2.77844,0.04178 4.30272,1.77094z" fill="#ffffff" stroke="#000000" stroke-linecap="butt"/><path d="M309.73412,84.78324c1.30337,1.47856 1.70987,3.25022 0.90794,3.95714c-0.80193,0.70691 -2.50861,0.08137 -3.81198,-1.39718c-1.30337,-1.47856 -1.70987,-3.25023 -0.90794,-3.95714c0.80193,-0.70691 2.50861,-0.08137 3.81198,1.39719z" fill="#ffffff" stroke="#000000" stroke-linecap="butt"/><path d="M312.36892,81.7349c1.32546,1.50361 1.9327,3.13443 1.35632,3.64252c-0.57638,0.50809 -2.11814,-0.29894 -3.4436,-1.80255c-1.32546,-1.50361 -1.9327,-3.13443 -1.35632,-3.64252c0.57638,-0.50809 2.11814,0.29894 3.4436,1.80255z" fill="#ffffff" stroke="#000000" stroke-linecap="butt"/><path d="M313.54395,79.40892c1.45801,1.65398 2.13207,3.4425 1.50556,3.99477c-0.62651,0.55228 -2.31634,-0.34083 -3.77434,-1.99481c-1.45801,-1.65398 -2.13207,-3.4425 -1.50556,-3.99477c0.62651,-0.55228 2.31634,0.34083 3.77434,1.99481z" fill="#ffffff" stroke="#000000" stroke-linecap="butt"/><path d="M314.66049,76.65069c1.50219,1.7041 2.21207,3.53325 1.58556,4.08552c-0.62651,0.55228 -2.35215,-0.38146 -3.85434,-2.08556c-1.50219,-1.7041 -2.21207,-3.53325 -1.58556,-4.08552c0.62651,-0.55228 2.35215,0.38146 3.85434,2.08556z" fill="#ffffff" stroke="#000000" stroke-linecap="butt"/><path d="M313.87556,72.1013c1.78937,2.02988 2.67111,4.17686 1.96943,4.7954c-0.70169,0.61855 -2.72109,-0.52556 -4.51046,-2.55544c-1.78937,-2.02988 -2.67111,-4.17686 -1.96943,-4.7954c0.70169,-0.61855 2.72109,0.52556 4.51046,2.55544z" fill="#ffffff" stroke="#000000" stroke-linecap="butt"/><path d="M311.91689,67.13515c1.45801,1.65398 2.33522,3.26341 1.95932,3.59478c-0.3759,0.33137 -1.86258,-0.74082 -3.32059,-2.3948c-1.45801,-1.65398 -2.33522,-3.26341 -1.95932,-3.59478c0.3759,-0.33137 1.86258,0.74082 3.32059,2.3948z" fill="#ffffff" stroke="#000000" stroke-linecap="butt"/><path d="M325.18541,113.14921c0,1.80398 -0.51455,3.26639 -1.14929,3.26639c-0.63473,0 -1.14929,-1.46241 -1.14929,-3.26639c0,-1.80398 0.51455,-3.26639 1.14929,-3.26639c0.63473,0 1.14929,1.46241 1.14929,3.26639z" fill="#ffffff" stroke="#000000" stroke-linecap="butt"/><path d="M327.72594,116.17365c0,1.26947 -0.54163,2.29857 -1.20977,2.29857c-0.66814,0 -1.20977,-1.02911 -1.20977,-2.29857c0,-1.26947 0.54163,-2.29857 1.20977,-2.29857c0.66814,0 1.20977,1.02911 1.20977,2.29857z" fill="#ffffff" stroke="#000000" stroke-linecap="butt"/><path d="M330.87135,117.74636c0,1.46991 -0.75829,2.6615 -1.69368,2.6615c-0.9354,0 -1.69368,-1.1916 -1.69368,-2.6615c0,-1.46991 0.75829,-2.6615 1.69368,-2.6615c0.9354,0 1.69368,1.1916 1.69368,2.6615z" fill="#ffffff" stroke="#000000" stroke-linecap="butt"/><path d="M334.25872,117.92782c0,1.57013 -0.81245,2.84297 -1.81466,2.84297c-1.00221,0 -1.81466,-1.27284 -1.81466,-2.84297c0,-1.57013 0.81245,-2.84297 1.81466,-2.84297c1.00221,0 1.81466,1.27284 1.81466,2.84297z" fill="#ffffff" stroke="#000000" stroke-linecap="butt"/><path d="M336.31534,115.38729c0,1.63694 -0.64996,2.96395 -1.45173,2.96395c-0.80177,0 -1.45173,-1.32701 -1.45173,-2.96395c0,-1.63694 0.64996,-2.96395 1.45173,-2.96395c0.80177,0 1.45173,1.32701 1.45173,2.96395z" fill="#ffffff" stroke="#000000" stroke-linecap="butt"/><path d="M339.33978,111.75797c0,2.10464 -0.64996,3.81079 -1.45173,3.81079c-0.80177,0 -1.45173,-1.70615 -1.45173,-3.81079c0,-2.10464 0.64996,-3.81079 1.45173,-3.81079c0.80177,0 1.45173,1.70615 1.45173,3.81079z" fill="#ffffff" stroke="#000000" stroke-linecap="butt"/></g></g></svg>