<svg version="1.1" xmlns="http://www.w3.org/2000/svg" xmlns:xlink="http://www.w3.org/1999/xlink" width="136.63271" height="336.09643" viewBox="0,0,136.63271,336.09643"><defs><linearGradient x1="330.40753" y1="160.17355" x2="323.73368" y2="339.01171" gradientUnits="userSpaceOnUse" id="color-1"><stop offset="0" stop-color="#f2acec"/><stop offset="1" stop-color="#cea1ff"/></linearGradient><linearGradient x1="287.14782" y1="169.9459" x2="284.13281" y2="285.24527" gradientUnits="userSpaceOnUse" id="color-2"><stop offset="0" stop-color="#9b60f2"/><stop offset="1" stop-color="#8784ca"/></linearGradient><linearGradient x1="372.70819" y1="168.95185" x2="369.69319" y2="284.25122" gradientUnits="userSpaceOnUse" id="color-3"><stop offset="0" stop-color="#9b60f2"/><stop offset="1" stop-color="#8784ca"/></linearGradient></defs><g transform="translate(-259.21244,-10.03192)"><g stroke-miterlimit="10"><path d="M276.4394,335.62251l1.08702,-144.17974c0,0 9.88243,-28.82579 19.74636,-29.28287c9.79569,-0.4539 32.99943,-1.13256 53.28026,-2.07233c21.99695,-1.01929 30.49388,28.88975 30.49388,28.88975l-8.12284,149.77553z" fill="url(#color-1)" stroke="#000000" stroke-width="2.5" stroke-linecap="butt"/><path d="M354.28234,169.21723c-0.45232,12.12074 -11.64224,22.00352 -24.99337,22.07378c-13.35114,0.07025 -23.80768,-9.69861 -23.35536,-21.81935c0.45232,-12.12074 11.11401,-7.84875 24.46513,-7.919c13.35114,-0.07025 24.33592,-4.45618 23.8836,7.66458z" fill="#f2caef" stroke-opacity="0.52549" stroke="#000000" stroke-width="1.5" stroke-linecap="butt"/><path d="M346.01169,168.9714c-0.29322,7.85738 -7.86581,14.26566 -16.91388,14.31327c-9.04807,0.04761 -16.14525,-6.28346 -15.85203,-14.14084c0.29322,-7.85738 7.86582,-14.26566 16.91388,-14.31327c9.04807,-0.04761 16.14524,6.28346 15.85203,14.14084z" fill="#f235e2" stroke="#000000" stroke-width="2.5" stroke-linecap="butt"/><path d="M289.83302,199.99259l-2.34019,4.93946" fill="none" stroke-opacity="0.15294" stroke="#000000" stroke-width="2.5" stroke-linecap="round"/><path d="M288.23762,234.49107l-2.23444,-6.14719" fill="none" stroke-opacity="0.15294" stroke="#000000" stroke-width="2.5" stroke-linecap="round"/><path d="M374.57865,198.62278l-2.28272,3.39943" fill="none" stroke-opacity="0.15294" stroke="#000000" stroke-width="2.5" stroke-linecap="round"/><path d="M369.75804,220.51242l0.39769,5.84892" fill="none" stroke-opacity="0.15294" stroke="#000000" stroke-width="2.5" stroke-linecap="round"/><path d="M358.24561,182.38752c0,0 2.1403,-1.78841 2.95935,-2.4728c0.5814,-0.48581 1.49116,-1.24599 1.49116,-1.24599" fill="none" stroke-opacity="0.15294" stroke="#000000" stroke-width="2.5" stroke-linecap="round"/><path d="M299.20527,179.92669l-2.41836,-1.21906" fill="none" stroke-opacity="0.15294" stroke="#000000" stroke-width="2.5" stroke-linecap="round"/><path d="M368.5121,187.87655l-1.84825,0.00973" fill="none" stroke-opacity="0.15294" stroke="#000000" stroke-width="2.5" stroke-linecap="round"/><path d="M355.0985,258.46707l1.47124,1.83994" fill="none" stroke-opacity="0.15294" stroke="#000000" stroke-width="2.5" stroke-linecap="round"/><path d="M300.34084,281.54331l1.3356,-2.77856" fill="none" stroke-opacity="0.15294" stroke="#000000" stroke-width="2.5" stroke-linecap="round"/><path d="M312.70039,172.07214l-5.2514,4.02945" fill="none" stroke-opacity="0.15294" stroke="#000000" stroke-width="2.5" stroke-linecap="round"/><path d="M312.36152,185.0322l2.69237,-8.20838" fill="none" stroke-opacity="0.15294" stroke="#000000" stroke-width="2.5" stroke-linecap="round"/><path d="M320.0673,189.18404l1.88006,-6.29847" fill="none" stroke-opacity="0.15294" stroke="#000000" stroke-width="2.5" stroke-linecap="round"/><path d="M329.72792,184.17855l0.60301,6.09485" fill="none" stroke-opacity="0.15294" stroke="#000000" stroke-width="2.5" stroke-linecap="round"/><path d="M341.64729,187.54596l-2.47431,-7.41893" fill="none" stroke-opacity="0.15294" stroke="#000000" stroke-width="2.5" stroke-linecap="round"/><path d="M349.3307,177.97739l-5.64884,-2.63816" fill="none" stroke-opacity="0.15294" stroke="#000000" stroke-width="2.5" stroke-linecap="round"/><path d="M261.18264,289.76245c0,0 -4.29298,-36.09788 8.08346,-82.07861c12.37645,-45.98073 19.2841,-44.01073 25.78172,-43.73666c7.1654,0.30224 19.36923,5.85522 19.36923,5.85522l-17.91026,159.34181c0,0 -13.52067,15.70281 -19.4751,15.73414c-1.22569,0.00646 -15.84905,-55.11592 -15.84905,-55.11592z" fill="url(#color-2)" stroke="#000000" stroke-width="2.5" stroke-linecap="butt"/><path d="M373.74365,343.82561c-6.02591,0.03171 -18.8863,-15.53227 -18.8863,-15.53227l-9.74565,-159.19627c0,0 12.64591,-5.68374 19.91517,-6.06195c6.59181,-0.34295 13.68795,-2.38666 23.79686,43.47575c10.10891,45.86241 3.86375,82.01574 3.86375,82.01574c0,0 -17.70345,55.29248 -18.94386,55.299z" fill="url(#color-3)" stroke="#000000" stroke-width="2.5" stroke-linecap="butt"/><path d="M294.36077,240.08525l-24.62406,-3.32941" fill="none" stroke-opacity="0.29804" stroke="#000000" stroke-width="2.5" stroke-linecap="round"/><path d="M294.90677,238.1058l4.28225,-22.01179" fill="none" stroke-opacity="0.29804" stroke="#000000" stroke-width="2.5" stroke-linecap="round"/><path d="M274.34367,211.7775l21.16402,3.34762" fill="none" stroke-opacity="0.29804" stroke="#000000" stroke-width="2.5" stroke-linecap="round"/><path d="M273.46653,216.9706l-3.15152,16.57029" fill="none" stroke-opacity="0.29804" stroke="#000000" stroke-width="2.5" stroke-linecap="round"/><path d="M298.62206,209.4261l5.73928,-21.03118" fill="none" stroke-opacity="0.29804" stroke="#000000" stroke-width="2.5" stroke-linecap="round"/><path d="M274.47288,206.83541l6.5195,-22.51771" fill="none" stroke-opacity="0.29804" stroke="#000000" stroke-width="2.5" stroke-linecap="round"/><path d="M298.0131,185.46347l-10.58846,-1.4267" fill="none" stroke-opacity="0.29804" stroke="#000000" stroke-width="2.5" stroke-linecap="round"/><path d="M269.45316,296.17124l25.01653,0.8444" fill="none" stroke-opacity="0.29804" stroke="#000000" stroke-width="2.5" stroke-linecap="round"/><path d="M294.26663,272.75137l0.33214,22.24759" fill="none" stroke-opacity="0.29804" stroke="#000000" stroke-width="2.5" stroke-linecap="round"/><path d="M290.42895,272.15806l-21.6021,-1.20756" fill="none" stroke-opacity="0.29804" stroke="#000000" stroke-width="2.5" stroke-linecap="round"/><path d="M269.35804,292.92655l-0.32128,-16.74061" fill="none" stroke-opacity="0.29804" stroke="#000000" stroke-width="2.5" stroke-linecap="round"/><path d="M293.63492,244.7771l-1.31054,21.42084" fill="none" stroke-opacity="0.29804" stroke="#000000" stroke-width="2.5" stroke-linecap="round"/><path d="M269.70332,243.06623l-1.77319,22.97225" fill="none" stroke-opacity="0.29804" stroke="#000000" stroke-width="2.5" stroke-linecap="round"/><path d="M275.99957,242.14617l10.75621,0.35819" fill="none" stroke-opacity="0.29804" stroke="#000000" stroke-width="2.5" stroke-linecap="round"/><path d="M357.91977,238.3262l24.80499,-3.58951" fill="none" stroke-opacity="0.29804" stroke="#000000" stroke-width="2.5" stroke-linecap="round"/><path d="M357.47717,236.35195l-3.13208,-21.97278" fill="none" stroke-opacity="0.29804" stroke="#000000" stroke-width="2.5" stroke-linecap="round"/><path d="M379.42305,209.79995l-21.34494,3.57131" fill="none" stroke-opacity="0.29804" stroke="#000000" stroke-width="2.5" stroke-linecap="round"/><path d="M382.31446,231.52693l-2.28568,-16.54168" fill="none" stroke-opacity="0.29804" stroke="#000000" stroke-width="2.5" stroke-linecap="round"/><path d="M350.62016,186.72691l4.64081,20.97656" fill="none" stroke-opacity="0.29804" stroke="#000000" stroke-width="2.5" stroke-linecap="round"/><path d="M374.20882,182.40257l5.34347,22.45528" fill="none" stroke-opacity="0.29804" stroke="#000000" stroke-width="2.5" stroke-linecap="round"/><path d="M357.12349,183.72784l10.66602,-1.53854" fill="none" stroke-opacity="0.29804" stroke="#000000" stroke-width="2.5" stroke-linecap="round"/><path d="M354.83306,295.27339l25.06758,-1.10795" fill="none" stroke-opacity="0.29804" stroke="#000000" stroke-width="2.5" stroke-linecap="round"/><path d="M356.30532,271.00031l-1.49589,22.25721" fill="none" stroke-opacity="0.29804" stroke="#000000" stroke-width="2.5" stroke-linecap="round"/><path d="M360.17509,270.36645l21.67121,-1.43527" fill="none" stroke-opacity="0.29804" stroke="#000000" stroke-width="2.5" stroke-linecap="round"/><path d="M381.36248,274.17026l-1.197,16.7486" fill="none" stroke-opacity="0.29804" stroke="#000000" stroke-width="2.5" stroke-linecap="round"/><path d="M358.40041,243.01172l0.19048,21.41293" fill="none" stroke-opacity="0.29804" stroke="#000000" stroke-width="2.5" stroke-linecap="round"/><path d="M382.4281,241.04845l0.57209,22.95992" fill="none" stroke-opacity="0.29804" stroke="#000000" stroke-width="2.5" stroke-linecap="round"/><path d="M376.17824,240.19442l-10.77791,0.47151" fill="none" stroke-opacity="0.29804" stroke="#000000" stroke-width="2.5" stroke-linecap="round"/><path d="M357.0215,170.91456l-5.3375,-0.1625" fill="none" stroke-opacity="0.15294" stroke="#000000" stroke-width="2.5" stroke-linecap="round"/><path d="M313.58765,68.28099c-0.99803,19.73174 -3.12585,38.96743 -8.30794,48.7394c-2.95916,5.58016 -8.15572,6.70065 -11.57771,6.52756c-3.35675,-0.16978 -7.03388,-0.50181 -9.39325,-6.15156c-4.25791,-10.19599 -5.82328,-30.89325 -4.81437,-50.83984c0.5531,-10.93515 -0.97395,-22.35486 1.10515,-30.90075c3.81477,-15.68023 12.68695,-24.67441 18.78051,-24.36621c5.34995,0.27059 11.06089,3.97106 13.54405,16.82469c1.8866,9.7656 1.34051,26.7831 0.66358,40.1667z" fill="#f235e2" stroke="#000000" stroke-width="2.5" stroke-linecap="butt"/><path d="M309.91413,65.5499c-0.62606,13.24471 -2.10127,26.14934 -5.92216,32.67981c-2.18187,3.72913 -6.06681,4.44961 -8.63071,4.31235c-2.51501,-0.13467 -5.27094,-0.38027 -7.07272,-4.18887c-3.25161,-6.87332 -4.55131,-20.78218 -3.91844,-34.1711c0.34696,-7.3401 -0.86698,-15.01839 0.63754,-20.7446c2.7605,-10.50659 8.0399,-9.32599 12.60542,-9.08152c4.0084,0.21464 9.61814,-4.43123 11.55695,4.21592c1.47301,6.5697 1.16875,17.99443 0.74412,26.97801z" fill="#ff6fed" stroke="#000000" stroke-width="2.5" stroke-linecap="butt"/><path d="M363.64382,31.43665c4.47117,-12.3041 10.69242,-15.06166 16.01847,-14.48862c6.06633,0.6527 13.41575,10.92872 14.72041,27.0135c0.71105,8.76637 -2.59066,19.8045 -3.76193,30.69081c-2.1365,19.85748 -6.93316,40.05199 -12.73966,49.45269c-3.21746,5.20906 -6.9011,4.95942 -10.24284,4.59988c-3.40671,-0.36653 -8.36278,-2.28928 -10.40878,-8.26496c-3.58296,-10.4646 -2.66316,-29.79575 -0.54968,-49.43935c1.43352,-13.32381 3.56704,-30.21586 6.96403,-39.56396z" fill="#f235e2" stroke="#000000" stroke-width="2.5" stroke-linecap="butt"/><path d="M365.58264,41.96238c3.26543,-8.14115 8.08033,-2.72828 12.07278,-2.31182c4.54736,0.47435 9.94597,0.14606 11.03142,10.83693c0.59157,5.82664 -1.8066,13.13491 -2.61036,20.35675c-1.46612,13.17317 -4.92215,26.55224 -9.20714,32.7562c-2.37439,3.4377 -5.13467,3.24709 -7.63967,2.98579c-2.55369,-0.26638 -6.27816,-1.57672 -7.85066,-5.55902c-2.75375,-6.9738 -2.19524,-19.80565 -0.74491,-32.83692c0.98373,-8.83882 2.46761,-20.04264 4.94854,-26.22791z" fill="#ff6fed" stroke="#000000" stroke-width="2.5" stroke-linecap="butt"/><path d="M389.01334,117.29085c0.14738,28.00253 -23.98325,53.77545 -54.23547,53.93466c-30.25222,0.15922 -55.17013,-25.35556 -55.31751,-53.35807c-0.14738,-28.00252 24.25743,-50.8321 54.50965,-50.99133c30.25222,-0.15922 54.89597,22.41223 55.04336,50.41474z" fill="#f235e2" stroke="#000000" stroke-width="2.5" stroke-linecap="butt"/><path d="M362.62137,102.5016c0.01426,2.7088 -6.62652,4.93973 -14.8326,4.98293c-8.20609,0.0432 -14.86997,-2.11772 -14.88423,-4.82652c-0.01426,-2.7088 6.62652,-4.93973 14.8326,-4.98293c8.20609,-0.0432 14.86997,2.11772 14.88423,4.82652z" fill-opacity="0.18431" fill="#ff0505" stroke="none" stroke-width="0" stroke-linecap="butt"/><g fill="#ff6fed" stroke="#000000" stroke-width="2.5"><path d="M337.70491,64.09347l26.64211,-9.12377l1.92974,29.53112l-29.10255,-12.78362l-28.08014,13.87264l-0.58698,-27.86417z" stroke-linecap="round"/><path d="M347.41598,68.62688c0.16983,4.50992 -4.14651,8.17799 -9.64078,8.1929c-5.49427,0.01492 -10.08592,-3.62901 -10.25574,-8.13891c-0.16983,-4.50992 4.1465,-8.17798 9.64076,-8.19289c5.49427,-0.01492 10.08593,3.62898 10.25575,8.13889z" stroke-linecap="butt"/></g><path d="M354.01541,126.52562l-6.80458,3.91375l-4.67055,-3.23289" fill="none" stroke="#000000" stroke-width="2.5" stroke-linecap="round"/><path d="M365.29809,105.55911l7.05279,-5.88119l5.15794,4.22309" fill="none" stroke="#000000" stroke-width="2.5" stroke-linecap="round"/><path d="M317.61124,104.17481l5.1132,-4.27715l7.11429,5.80664" fill="none" stroke="#000000" stroke-width="2.5" stroke-linecap="round"/><path d="M344.56583,145.28768c1.13731,-0.24116 3.81205,0.77668 6.87204,0.38101c2.29916,-0.2973 5.31027,-2.05915 5.31027,-2.05915l-10.03,13.58498l-8.26553,-13.2981c0,0 3.04164,2.04258 6.11323,1.39126z" fill="none" stroke="#000000" stroke-width="2.5" stroke-linecap="round"/></g></g></svg>