<svg version="1.1" xmlns="http://www.w3.org/2000/svg" xmlns:xlink="http://www.w3.org/1999/xlink" width="35.17311" height="35.17311" viewBox="0,0,35.17311,35.17311"><g transform="translate(-302.41348,-162.4135)"><g data-paper-data="{&quot;isPaintingLayer&quot;:true}" stroke-miterlimit="10" stroke-dasharray="" stroke-dashoffset="0" style="mix-blend-mode: normal"><path d="M309.98314,162.9135h20.03379c3.9166,0 7.06966,3.15307 7.06966,7.06966v20.03379c0,3.91659 -3.15306,7.06966 -7.06966,7.06966h-20.03379c-3.91659,0 -7.06966,-3.15307 -7.06966,-7.06966v-20.03379c0,-3.91659 3.15307,-7.06966 7.06966,-7.06966z" fill="#000000" fill-rule="evenodd" stroke="#ffffff" stroke-width="1" stroke-linecap="round" stroke-linejoin="round"/><path d="M309.98315,162.91351h20.03378c3.9166,0 7.06966,3.15307 7.06966,7.06966v20.03379c0,3.91659 -3.15306,7.06966 -7.06966,7.06966h-20.03378c-3.91659,0 -7.06967,-3.15307 -7.06967,-7.06966v-20.03379c0,-3.91659 3.15308,-7.06966 7.06967,-7.06966z" fill="#ffffff" fill-rule="evenodd" stroke="none" stroke-width="4.43922" stroke-linecap="round" stroke-linejoin="round"/><path d="M309.48762,179.61546l0.11282,-0.26296c0.34917,-0.96077 0.77231,-3.35512 2.22251,-3.38975c1.59384,-0.03806 3.16706,3.71585 4.60835,3.54083c0.88907,-0.10796 1.60158,-0.86383 2.48171,-1.02955c1.49827,-0.28212 2.80609,0.18466 4.25269,0.51014c0.17596,0.04055 2.21749,0.85451 2.61032,0.66671c1.16566,-0.55728 3.69549,-2.69514 5.22706,-1.52163c0.48028,0.36799 0.20965,1.19521 0.23649,1.79966c0.08769,1.97584 0.14752,5.40861 -0.64486,7.22213c-0.27569,0.63098 -0.42434,1.57737 -1.08961,1.75499c-0.93444,0.24948 -3.47671,-3.62652 -3.71796,-3.52822c-1.19403,0.48652 -1.89665,1.29926 -3.36864,1.45806c-1.46453,0.00029 -2.75317,-0.05047 -4.15247,-0.56676c-0.71345,-0.26323 -2.23776,-1.65248 -3.0003,-1.10092c-1.62239,1.17351 -2.93761,2.84853 -4.74264,3.82223c-0.43462,0.23445 -1.00153,0.82729 -1.38751,0.51926c-0.57801,-0.46128 -0.49057,-1.40115 -0.62807,-2.12776c-0.41302,-2.1825 0.10296,-4.80149 0.1028,-7.02428c0,0 0,-0.75 0.75,-0.75c0.0451,0 0.08747,0.00271 0.12731,0.00781z" fill="#000000" fill-rule="nonzero" stroke="none" stroke-width="0.5" stroke-linecap="butt" stroke-linejoin="miter"/><path d="M333.11032,177.87849l-0.13246,-0.06971l-0.06778,0.06126c-0.54493,-0.16019 -1.32805,-0.00255 -1.63479,-0.48059c-0.37383,-0.58261 -0.00408,-1.38446 -0.00612,-2.07668c2.33612,-0.61684 0.88555,-3.54804 -0.81314,-4.50693c-3.74514,-2.11409 -9.46952,1.57763 -9.40821,5.69766c0,0 0,0.75 -0.75,0.75c-0.75,0 -0.75,-0.75 -0.75,-0.75c0.06723,-5.8638 8.35733,-10.39111 12.94926,-6.0489c1.35031,1.27687 2.17984,4.23043 0.7831,5.38439l0.46757,0.15586c0.30647,0.09425 0.52924,0.3796 0.52924,0.71698c0,0.28397 -0.15783,0.53108 -0.39054,0.65841l-0.0688,0.03931c-0.15892,0.46894 -0.70733,0.46895 -0.70733,0.46895z" fill="#000000" fill-rule="nonzero" stroke="none" stroke-width="0.5" stroke-linecap="butt" stroke-linejoin="miter"/></g></g></svg>