<svg version="1.1" xmlns="http://www.w3.org/2000/svg" xmlns:xlink="http://www.w3.org/1999/xlink" width="214.22161" height="380.46135" viewBox="0,0,214.22161,380.46135"><defs><linearGradient x1="320.45203" y1="-37.10697" x2="320.45203" y2="73.12144" gradientUnits="userSpaceOnUse" id="color-1"><stop offset="0" stop-color="#ffdf00"/><stop offset="1" stop-color="#ff931c"/></linearGradient></defs><g transform="translate(-213.34691,85.95412)"><g stroke="#000000" stroke-width="0" stroke-miterlimit="10"><path d="M267.7257,289.99064l-2.42697,-182.81189c0,0 7.55113,-31.89892 18.73089,-32.40193c11.10242,-0.49952 37.41833,-1.19046 60.4046,-2.22468c24.93131,-1.12173 32.69862,32.2421 32.69862,32.2421l0.27053,189.71299z" fill="#000000"/><g fill="#ff6200"><path d="M287.90803,-21.13873l33.25345,-64.81538l31.83451,64.81538z"/><path d="M354.35205,57.58426l-33.19055,70.69156l-31.89741,-70.69156z"/></g><g fill="#ff6200"><path d="M357.16031,-16.93762l70.40821,32.51807l-69.62477,38.44355z"/><path d="M285.09979,53.38316l-71.75288,-39.68734l70.96944,-31.27428z"/></g><g fill="#ff6200"><path d="M323.19873,-33.48656l72.54241,-27.42882l-26.52004,73.45472z"/><path d="M319.0647,69.924l-73.45676,26.51439l26.07836,-78.41648z"/></g><g fill="#ff6200"><path d="M369.19485,18.4546l28.14562,78.65708l-73.21858,-27.16522z"/><path d="M271.71254,12.1067l-25.86715,-73.68718l72.29614,28.07149z"/></g><path d="M375.22928,13.59679c0,14.69827 -4.04153,34.30131 -14.76889,44.33303c-0.36255,0.33904 -7.44396,5.32827 -8.20236,5.84166c-8.62752,5.8403 -18.99976,9.34996 -30.19128,9.34996c-11.02898,0 -21.33105,-3.40845 -29.97041,-9.09697c-0.54992,-0.36209 -4.16473,-3.018 -4.4453,-3.24417c-12.55066,-10.11698 -21.97626,-31.20456 -21.97626,-47.18352c0,-28.0029 24.52462,-50.70374 54.77726,-50.70374c30.25264,0 54.77725,22.70084 54.77725,50.70374z" fill="url(#color-1)"/><path d="M314.76947,4.84437c0,1.03223 -0.98052,2.00097 -1.37982,2.90799c-0.42647,0.96875 -6.91094,12.43667 -8.64088,25.92244c-2.44394,19.05184 -0.36323,41.89454 -1.35514,42.80081c-3.78987,3.46259 -0.90218,-8.74428 -4.88955,-8.74428c-3.62023,0 -1.73391,-15.88099 -5.22075,-32.37826c-2.73643,-12.94687 -11.33537,-26.63805 -11.33537,-30.87821c0,-9.64309 8.56369,-17.09084 15.02504,-17.09084c6.46134,0 15.94885,2.82865 15.94885,12.47175z" fill="#000000"/><path d="M359.06176,3.22055c0,2.55796 -0.51068,4.67022 -1.3895,6.38411c-1.53242,2.98857 -6.19594,24.81054 -9.2814,43.43493c-1.3954,8.42289 -1.66948,15.39338 -3.11199,15.39338c-1.62664,0 -3.76269,-21.19631 -5.33804,-27.12623c-4.68225,-17.62491 -7.41862,-28.55388 -7.41862,-35.31474c0,-0.37235 -2.39303,-3.69801 -2.37552,-4.06416c0.40738,-8.51888 9.54261,-15.43715 15.73768,-15.43715c6.46134,0 13.1774,7.6943 13.1774,16.72986z" fill="#000000"/><path d="M307.35402,4.04447c0,8.58354 -4.35613,12.23509 -10.10752,12.23509c-5.75138,0 -10.72009,-3.65155 -10.72009,-12.23509c0,-8.58354 4.66242,-15.54188 10.41381,-15.54188c5.75138,0 10.41381,6.95833 10.41381,15.54188z" fill="#ffffff"/><path d="M356.36278,3.14639c0,8.58354 -4.35613,12.23509 -10.10752,12.23509c-5.75139,0 -10.7201,-3.65154 -10.7201,-12.23509c0,-8.58355 4.66242,-15.54188 10.41381,-15.54188c5.75139,0 10.41381,6.95834 10.41381,15.54188z" fill="#ffffff"/><path d="M352.5175,2.53351c0,10.88897 -2.7908,15.52128 -6.47549,15.52128c-3.68468,0 -6.86794,-4.6323 -6.86794,-15.52128c0,-10.88897 2.98703,-19.71622 6.67171,-19.71622c3.68468,0 6.67171,8.82725 6.67171,19.71622z" fill="#000000"/><path d="M303.80902,3.40855c0,11.58014 -2.7908,16.50645 -6.47548,16.50645c-3.68469,0 -6.86794,-4.92633 -6.86794,-16.50645c0,-11.58014 2.98702,-20.96766 6.67171,-20.96766c3.68469,0 6.67172,9.38754 6.67172,20.96766z" fill="#000000"/></g></g></svg>