<svg version="1.1" xmlns="http://www.w3.org/2000/svg" xmlns:xlink="http://www.w3.org/1999/xlink" width="161.20309" height="348.72852" viewBox="0,0,161.20309,348.72852"><g transform="translate(-185.32458,-12.41504)"><g stroke-width="2" stroke-miterlimit="10"><path d="M250.72789,227.50613c5.76007,0.25277 13.85461,-0.61871 19.87174,-1.27795c6.56075,-0.71879 14.77794,0.98889 21.20904,1.41923c3.77774,0.25279 15.1398,1.8308 15.1398,1.8308l0.80331,6.06767l1.91107,19.39389l-4.49458,21.9417c0,0 -4.38185,27.89555 -12.3891,41.51196c-3.50151,5.9544 2.8882,13.83952 -6.88232,16.96895c-3.45985,1.10815 -13.32338,8.97333 -16.80159,8.74058c-5.04581,-0.33765 -9.693,-6.68951 -15.54515,-8.41368c-7.45145,-2.19536 -24.55269,0.10269 -24.55269,0.10269l-6.54817,-7.68935l6.69518,-19.87092c0,0 7.58211,-29.75003 13.35313,-48.88545c1.89634,-6.28779 2.53655,-27.73138 6.81373,-31.93387z" fill="#3c2c1f" stroke="#000000" stroke-linecap="round"/><path d="M278.51927,242.65303l-23.71986,92.01736" fill="none" stroke="#000000" stroke-linecap="round"/><path d="M254.91051,341.64105c-2.60093,10.40021 -5.45737,19.18724 -16.31907,18.46042c-10.86171,-0.72682 -23.01465,-21.09249 -23.01465,-21.09249c0,0 13.51455,-18.24206 24.37625,-17.51523c10.86171,0.72682 17.55839,9.74707 14.95746,20.1473z" fill="#000000" stroke="#000000" stroke-linecap="butt"/><path d="M294.49887,341.11372c-2.60093,10.40023 -7.90969,19.42917 -18.7714,18.70234c-10.8617,-0.72682 -23.16325,-10.93417 -20.56234,-21.3344c2.60093,-10.40023 13.51455,-18.24206 24.37625,-17.51523c10.86171,0.72682 17.5584,9.74707 14.95747,20.1473z" fill="#000000" stroke="#000000" stroke-linecap="butt"/><path d="M265.66014,220.33212c-7.75092,3.61428 -27.7475,-1.21385 -27.7475,-1.21385l-51.32189,-54.95566l27.10126,-41.45745l21.17173,-1.31762l0.25976,6.83111l-13.66671,9.57944l-9.14546,38.39955c0,0 27.47175,19.63249 43.41212,17.23265c8.24008,-1.24058 16.3375,-5.3214 24.93083,-3.22527c25.47744,6.21455 1.45321,27.35521 -13.76658,30.40446z" fill="#feed00" stroke="#000000" stroke-linecap="round"/><g><path d="M305.49735,210.25207l14.57086,-11.708l14.48742,24.12078l-3.00351,6.19316l-2.39241,-1.99285l0.35587,5.23939l-3.81378,8.55704l-5.08067,-5.14932l-8.09477,4.71218l-4.85317,-13.14356c0,0 -5.42203,3.35518 -8.73075,-3.51397c-3.04308,-6.31775 6.35322,-13.60283 6.35322,-13.60283z" fill="#feed00" stroke="#000000" stroke-linecap="round"/><path d="M325.20774,217.47798l-2.68794,3.83787l-4.24644,-3.60854l-3.79237,-2.94648l4.40688,-6.7325l7.11831,-3.16572l-0.79844,12.61536z" fill="#ffa600" stroke="none" stroke-linecap="butt"/><path d="M305.73057,222.04382c0,0 -1.95019,3.41447 -3.67112,2.40154c-1.72092,-1.01295 -2.86747,-3.73044 -2.56091,-6.06971c0.30657,-2.33927 1.95019,-3.41447 3.67111,-2.40154c1.72092,1.01295 2.56092,6.0697 2.56092,6.0697z" fill="#ffa600" stroke="none" stroke-linecap="butt"/><path d="M317.6886,236.44284l-3.62478,2.36799l-2.52936,-5.99031l3.62478,-2.368l2.52936,5.99031z" fill="#ffa600" stroke="none" stroke-linecap="butt"/><path d="M327.46484,234.8365l-3.07207,2.63248l-1.99145,-5.61286l3.07207,-2.63248z" fill="#ffa600" stroke="none" stroke-linecap="butt"/><path d="M333.59583,222.62903l-2.22451,2.88803l-1.20311,-4.90551l2.22451,-2.88803z" fill="#ffa600" stroke="none" stroke-linecap="butt"/></g><g><path d="M240.95468,215.83041c3.40698,-0.43506 9.59878,7.01614 6.73578,13.41751c-3.1129,6.96009 -7.28442,2.65549 -8.62775,3.75974c-0.25868,0.21262 2.32827,11.54118 -0.46403,13.95037c-5.16051,4.45253 -8.22493,-4.48111 -8.22493,-4.48111l-4.93285,5.29108l-4.05451,-8.44565l-3.80769,-5.92206l1.68004,2.73449l-7.19272,-6.78035l18.35027,-23.73471c0,0 7.42472,7.1561 10.34495,10.50422z" fill="#feed00" stroke="#000000" stroke-linecap="round"/><path d="M224.65964,212.1039l7.20509,2.96289l0.04415,5.81849l-3.70743,3.05266l-4.14257,3.72731l-2.79551,-3.76021l3.3963,-11.80115z" fill="#ffa600" stroke="none" stroke-linecap="butt"/><path d="M243.25,221.77783c1.69155,-1.06126 3.36495,-0.03301 3.73764,2.29665c0.37267,2.32966 -0.69648,5.07853 -2.38804,6.13977c-1.69155,1.06126 -3.36497,0.03303 -3.73765,-2.29663c-0.37267,-2.32966 0.69648,-5.07853 2.38805,-6.13978z" fill="#ffa600" stroke="none" stroke-linecap="butt"/><path d="M235.69021,237.26462c0,0 3.32265,-0.03416 3.69037,2.26441c0.3677,2.29858 -0.68834,5.01152 -2.35875,6.0595c-1.67042,1.04797 -3.69037,-2.26441 -3.69037,-2.26441z" fill="#ffa600" stroke="none" stroke-linecap="butt"/><path d="M221.33035,235.65352l7.16044,3.21914l-1.83177,5.66699l-3.14537,-2.54445z" fill="#ffa600" stroke="none" stroke-linecap="butt"/><path d="M214.08818,224.3539l2.30538,2.8239l-1.06375,4.9376l-2.30538,-2.8239z" fill="#ffa600" stroke="none" stroke-linecap="butt"/></g><path d="M246.85545,195.91099c-1.56845,6.37133 -10.22514,24.09491 -10.22514,24.09491l-24.82283,-5.61837l8.72276,-21.65748l17.785,-55.06822c0,0 6.04699,-8.55377 7.87162,-13.30949l1.17589,0.02804c13.07274,2.43215 24.89014,8.12915 38.71766,6.3733c5.53398,-0.70271 9.57813,-2.70215 13.55661,-6.60778c0.90963,-0.89296 3.54801,-3.04515 5.01098,-2.10674c3.29269,2.11209 7.14179,13.7921 7.14179,13.7921l15.89526,45.24934l4.95316,16.09284l-18.74464,16.47101l-5.53868,2.99001l0.4267,-23.76398l-2.54887,24.84667l0.7062,14.05758c0,0 -10.33969,3.88324 -13.22217,4.24135c-11.65987,1.44853 -23.73915,-0.63533 -35.38928,0.85084c-3.78667,0.48305 -9.32772,4.12051 -12.72939,2.34716c-1.81298,-0.94515 -4.9673,-7.12594 -4.99203,-8.87287c-0.1089,-7.69081 -1.42393,-16.50581 -0.0231,-24.06485" fill="#fffe8a" stroke="#000000" stroke-linecap="round"/><path d="M253.26789,115.95465c14.02123,-2.66978 27.64288,-5.40973 42.03256,-4.48407c3.06875,0.19741 13.78715,1.18588 13.04077,5.9201c-1.01443,6.43426 -7.25683,9.85654 -13.06339,11.33823c-10.46785,2.67112 -35.25505,3.84477 -44.78503,-1.52678c-6.78247,-3.82291 -5.13126,-11.35356 2.9162,-11.4675z" fill="#fffe8a" stroke="#000000" stroke-linecap="round"/><g stroke-linecap="butt"><path d="M258.01413,45.47875l-13.59265,34.84592l-3.88325,14.76598l-0.35172,-2.19737l-2.61358,-17.58238l-4.30856,-44.28362l-0.49556,-17.60518l1.9748,0.01349l13.96786,17.02814l10.06653,14.73969z" fill="#feed00" stroke="#000000"/><path d="M253.22673,47.52148l-7.72934,24.81857l-2.05297,10.31292l-0.29998,-1.43365l-2.26956,-11.49321l-4.23493,-29.19439l-0.89072,-11.73871l1.2867,-0.20562l9.64719,9.88773l7.03226,8.77892z" fill="#ffa700" stroke="none"/></g><g stroke-linecap="butt"><path d="M293.97736,44.60815l7.41367,-13.75108c0,0 6.99873,-10.96126 10.63334,-16.15688c0.70733,-1.01114 0.94607,-2.10392 1.74561,-0.24026c1.2477,2.90827 1.34304,15.08902 1.34304,15.08902l0.66945,38.30919l-0.53296,15.31489l-0.08881,1.91688c0,0 -4.48949,-10.86638 -4.92936,-12.15765c-4.00247,-11.74973 -15.5504,-28.17757 -15.5504,-28.17757z" fill="#feed00" stroke="#000000"/><path d="M298.66337,45.77257l5.33263,-8.31018l7.53367,-9.5598l1.15907,0.02653l0.39986,10.12589l-0.79227,25.41722c0,0 -0.62427,6.71297 -0.84476,10.07598c-0.02771,0.42249 0.10353,1.12899 -0.1203,1.25883c-0.53912,0.3127 -2.61112,-7.66649 -2.85965,-8.56753c-2.26145,-8.19915 -9.34891,-20.29521 -9.34891,-20.29521z" fill="#ffa700" stroke="none"/></g><path d="M273.26632,42.09839l30.56045,6.79758c0,0 6.34855,13.43301 8.4717,21.88157c0.65208,2.59479 2.93228,7.38182 2.93228,7.38182c0,0 -6.22731,39.22409 -27.46746,41.79948c-17.78958,2.15702 -49.22283,-16.5085 -49.22283,-16.5085l0.80466,-32.2041l1.34375,-11.80808l32.93484,-17.07091z" fill="#feed00" stroke="#000000" stroke-linecap="butt"/><path d="M311.7726,82.55711c4.29323,0.32908 11.26155,10.67304 11.26155,10.67304l-7.52955,3.68369l1.42602,2.44207l1.17453,8.38906c0,0 -11.00692,3.50089 -14.03176,0.60839" fill="#feed00" stroke="#000000" stroke-linecap="round"/><path d="M245.72468,111.99215l-14.04336,-0.21088l0.93657,-8.41894l1.35631,-2.48147l-7.63084,-3.46906l10.95486,-10.98759" fill="#feed00" stroke="#000000" stroke-linecap="round"/><path d="M199.70911,66.04206l36.82966,16.87705" fill="none" stroke="#000000" stroke-linecap="round"/><path d="M204.72359,80.20028l32.18412,3.94417" fill="none" stroke="#000000" stroke-linecap="round"/><path d="M236.03388,84.5084l-26.65535,3.53888" fill="none" stroke="#000000" stroke-linecap="round"/><path d="M344.88404,61.34503l-30.15345,19.06068" fill="none" stroke="#000000" stroke-linecap="round"/><path d="M312.1067,81.32182c10.85036,-7.98463 33.42097,-4.19402 33.42097,-4.19402" fill="none" stroke="#000000" stroke-linecap="round"/><path d="M342.84047,86.62898l-27.19876,-3.95088" fill="none" stroke="#000000" stroke-linecap="round"/><path d="M270.59005,91.94785c3.71963,-0.05265 7.6326,-0.3493 11.33187,0.0589c0.46951,0.05182 1.27086,-0.16063 1.38548,0.29764c0.15011,0.60028 -6.46197,4.46873 -7.23,4.42252c-1.72708,-0.10389 -4.37508,-3.44425 -5.06933,-4.78495z" fill="#000000" stroke="#000000" stroke-linecap="round"/><path d="M271.28987,73.27654c0.10021,7.07743 -5.46902,12.89481 -12.43921,12.9935c-6.9702,0.09869 -12.80207,-12.63612 -12.80207,-12.63612c0,0 5.46901,-12.8948 12.43919,-12.99349c6.9702,-0.09869 12.70188,5.55869 12.8021,12.63611z" fill="#ffffff" stroke="#000000" stroke-linecap="butt"/><path d="M306.34857,72.35761c0.10021,7.07743 -5.46901,12.8948 -12.43919,12.99349c-6.9702,0.09869 -12.70186,-5.5587 -12.80208,-12.63611c-0.10021,-7.07743 5.46901,-12.8948 12.43919,-12.99349c6.9702,-0.09869 12.70186,5.5587 12.80208,12.63611z" fill="#ffffff" stroke="#000000" stroke-linecap="butt"/><path d="M271.9113,72.431c0.07158,5.0553 -4.04752,12.74507 -8.90838,12.81389c-4.86086,0.06883 -8.62279,-7.50935 -8.69438,-12.56467c-0.07158,-5.0553 3.81092,-9.20923 8.67177,-9.27804c4.86086,-0.06883 8.85939,3.97352 8.93099,9.02882z" fill="#000000" stroke="#000000" stroke-linecap="butt"/><path d="M305.19041,73.04118c0.07158,5.0553 -3.24976,13.07166 -8.11062,13.14048c-4.86086,0.06883 -9.42056,-7.83595 -9.49214,-12.89125c-0.07158,-5.0553 3.81092,-9.20923 8.67177,-9.27804c4.86086,-0.06883 8.85939,3.97352 8.93099,9.02882z" fill="#000000" stroke="#000000" stroke-linecap="butt"/><path d="M255.62085,48.27101l7.8575,-6.238l3.69572,-1.82751l-4.77206,-2.1566l13.72922,-2.22452l4.2508,-0.06471l-5.86586,-3.4389l5.47094,1.21491l11.40497,10.46072" fill="#feed00" stroke="#000000" stroke-linecap="butt"/><path d="M242.30369,65.22277l-4.26238,-4.85861l-5.78335,-2.99911l7.33817,-3.56182l7.78079,-3.30286" fill="#feed00" stroke="#000000" stroke-linecap="butt"/><path d="M261.55378,166.67652c1.24724,0.49639 4.68084,0.1917 5.18387,1.7226c1.68711,5.13445 -2.2513,9.81636 -7.11308,8.85402c-3.23742,-0.64081 2.30581,-11.28921 2.30581,-11.28921c0,0 -0.01396,-23.74897 2.33563,-35.28576" fill="#ffaf36" stroke="#000000" stroke-linecap="round"/><path d="M288.29789,166.90241c9.43657,-10.83744 8.59861,17.85551 -1.25493,9.93218c-5.33498,-4.2899 1.14772,-8.41106 1.61689,-10.93617c2.21446,-11.91897 -2.95978,-24.58021 0.46467,-36.68129" fill="#ffaf36" stroke="#000000" stroke-linecap="round"/><path d="M249.99442,198.48187c3.50122,-2.88319 7.92022,-2.42132 12.11774,-3.14547c13.53846,-2.33566 28.70394,-1.65283 42.26468,0.34959" fill="none" stroke="#000000" stroke-linecap="round"/><path d="M302.43059,227.42585c-0.23121,-8.89633 3.89974,-27.73916 3.89974,-27.73916" fill="none" stroke="#000000" stroke-linecap="round"/><path d="M250.55517,202.72912c0.12055,8.51485 -3.83387,17.87471 -3.9152,26.3743" fill="none" stroke="#000000" stroke-linecap="round"/><path d="M257.02038,125.72221c-2.63388,-0.88091 -4.44922,-3.42933 -6.87307,-4.83735" fill="none" stroke="#fcec41" stroke-linecap="round"/><path d="M299.80268,122.78374c1.614,-1.10757 3.12529,-1.98706 4.93518,-2.74092" fill="none" stroke="#fcec41" stroke-linecap="round"/><path d="M271.88294,145.20599l-0.13569,-9.58345" fill="none" stroke="#fcec41" stroke-linecap="round"/><path d="M275.36922,143.75391l-0.0695,-4.9086" fill="none" stroke="#fcec41" stroke-linecap="round"/><path d="M278.80256,138.56191l0.75418,3.72996" fill="none" stroke="#fcec41" stroke-linecap="round"/><path d="M228.25599,218.51274l17.01285,-38.38747l-11.26404,37.80547z" fill="#fce541" stroke="#fcec41" stroke-linecap="round"/><path d="M228.25599,218.51274l17.01285,-38.38747l-11.26404,37.80547z" fill="#fce541" stroke="#fcec41" stroke-linecap="round"/><path d="M311.27697,212.81973l-3.15496,-30.83103l13.36939,24.96646z" fill="#fce541" stroke="#fcec41" stroke-linecap="round"/></g></g></svg>