<svg version="1.1" xmlns="http://www.w3.org/2000/svg" xmlns:xlink="http://www.w3.org/1999/xlink" width="172.27866" height="315.89205" viewBox="0,0,172.27866,315.89205"><defs><linearGradient x1="314.34476" y1="165.89286" x2="319.89652" y2="344.63903" gradientUnits="userSpaceOnUse" id="color-1"><stop offset="0" stop-color="#383838"/><stop offset="1" stop-color="#494949"/></linearGradient><linearGradient x1="345.79877" y1="165.97758" x2="351.41176" y2="346.69487" gradientUnits="userSpaceOnUse" id="color-2"><stop offset="0" stop-color="#666666"/><stop offset="1" stop-color="#4b4b4b"/></linearGradient><linearGradient x1="283.9838" y1="166.64826" x2="289.59679" y2="347.36555" gradientUnits="userSpaceOnUse" id="color-3"><stop offset="0" stop-color="#666666"/><stop offset="1" stop-color="#4b4b4b"/></linearGradient><linearGradient x1="280.50817" y1="184.38386" x2="281.15355" y2="205.16252" gradientUnits="userSpaceOnUse" id="color-4"><stop offset="0" stop-color="#878787"/><stop offset="1" stop-color="#848484"/></linearGradient><linearGradient x1="118.64441" y1="94.61832" x2="118.68322" y2="95.86771" gradientUnits="userSpaceOnUse" id="color-5"><stop offset="0" stop-color="#878787"/><stop offset="1" stop-color="#848484"/></linearGradient><radialGradient cx="349.42854" cy="96.74112" r="22.938" gradientUnits="userSpaceOnUse" id="color-6"><stop offset="0" stop-color="#000000" stop-opacity="0.92549"/><stop offset="1" stop-color="#000000" stop-opacity="0"/></radialGradient><radialGradient cx="280.02655" cy="96.7857" r="25.35587" gradientUnits="userSpaceOnUse" id="color-7"><stop offset="0" stop-color="#000000" stop-opacity="0.92549"/><stop offset="1" stop-color="#000000" stop-opacity="0"/></radialGradient><linearGradient x1="274.1308" y1="36.10533" x2="273.47291" y2="121.3016" gradientUnits="userSpaceOnUse" id="color-8"><stop offset="0" stop-color="#9c9c9c"/><stop offset="1" stop-color="#2c2c2c"/></linearGradient><linearGradient x1="360.61553" y1="41.54229" x2="356.26938" y2="129.69446" gradientUnits="userSpaceOnUse" id="color-9"><stop offset="0" stop-color="#9c9c9c"/><stop offset="1" stop-color="#2c2c2c"/></linearGradient></defs><g transform="translate(-231.97432,-32.92378)"><g stroke-miterlimit="10"><path d="M272.75965,342.46269l-6.70031,-147.1387c0,0 5.82379,-25.89149 15.6147,-26.60101c9.72318,-0.70461 32.78224,-1.97771 52.91297,-3.43654c21.83413,-1.58227 29.47969,25.07158 29.47969,25.07158l4.98193,152.75438z" fill="url(#color-1)" stroke="#000000" stroke-width="2.5" stroke-linecap="butt"/><path d="M328.50637,347.4063l6.68783,-98.96426c0,0 -8.98236,-80.76492 1.2337,-80.17811c9.41905,0.54103 14.18156,-2.80314 18.73098,-2.54183c4.58112,0.26314 14.47321,29.41965 14.47321,29.41965l3.58035,147.23561z" fill="url(#color-2)" stroke="#000000" stroke-width="2.5" stroke-linecap="butt"/><path d="M267.5702,344.4093l-5.56387,-147.174c0,0 8.06359,-29.7142 12.61954,-30.26113c4.52443,-0.54314 9.4853,2.49903 18.85262,1.3745c10.15995,-1.21968 6.20712,79.947 6.20712,79.947l12.81658,98.35846z" fill="url(#color-3)" stroke="#000000" stroke-width="2.5" stroke-linecap="butt"/><path d="M329.56644,178.90004c0.23517,7.57163 -5.59218,13.89654 -13.01577,14.12712c-7.42359,0.23057 -13.63223,-5.72052 -13.8674,-13.29214c-0.23517,-7.57163 5.59218,-13.89654 13.01577,-14.12712c7.42359,-0.23057 13.63223,5.72052 13.8674,13.29214z" fill="#9c9c9c" stroke="#000000" stroke-width="2.5" stroke-linecap="butt"/><path d="M303.07888,219.37884l29.46829,0.81666" fill="none" stroke="#000000" stroke-width="2.5" stroke-linecap="round"/><path d="M331.44564,231.19865l-29.41455,0.9136" fill="none" stroke="#000000" stroke-width="2.5" stroke-linecap="round"/><path d="M300.92061,242.82702l34.29011,-1.931" fill="none" stroke="#000000" stroke-width="2.5" stroke-linecap="round"/><path d="M334.44234,253.33211l-32.87509,1.02108" fill="none" stroke="#000000" stroke-width="2.5" stroke-linecap="round"/><path d="M304.83618,266.66387l28.54047,-1.17511" fill="none" stroke="#000000" stroke-width="2.5" stroke-linecap="round"/><path d="M332.34677,278.79893l-25.92714,1.67125" fill="none" stroke="#000000" stroke-width="2.5" stroke-linecap="round"/><path d="M309.40017,292.78983l19.88017,-1.19478" fill="none" stroke="#000000" stroke-width="2.5" stroke-linecap="round"/><path d="M310.56985,302.56779l18.15885,-0.85265" fill="none" stroke="#000000" stroke-width="2.5" stroke-linecap="round"/><path d="M311.7843,313.78766l18.1499,-1.14104" fill="none" stroke="#000000" stroke-width="2.5" stroke-linecap="round"/><path d="M332.78357,209.21922l-29.75668,-0.80771" fill="none" stroke="#000000" stroke-width="2.5" stroke-linecap="round"/><path d="M329.85677,198.62985l-26.55765,-0.0411" fill="none" stroke="#000000" stroke-width="2.5" stroke-linecap="round"/><path d="M338.18537,226.84955l-1.25748,-21.89882l29.72085,-0.3458l-1.14807,18.7983" fill="none" stroke="#000000" stroke-width="2.5" stroke-linecap="round"/><path d="M351.46867,227.01428l1.1161,54.52135l0.7543,61.46034" fill="none" stroke="#000000" stroke-width="2.5" stroke-linecap="round"/><path d="M292.07705,194.42389c0.17822,5.73787 -4.7124,10.54572 -10.9235,10.73863c-6.21109,0.19291 -11.39066,-4.30217 -11.56887,-10.04003c-0.17822,-5.73787 4.7124,-10.54572 10.9235,-10.73863c6.21109,-0.19291 11.39066,4.30217 11.56887,10.04003z" fill="url(#color-4)" stroke="#000000" stroke-width="2.5" stroke-linecap="butt"/><path d="M246.63655,181.1475z" fill="url(#color-5)" stroke="#000000" stroke-width="2.5" stroke-linecap="butt"/><path d="M369.22138,129.88718c-3.34152,28.35802 -30.50096,51.48912 -60.54573,47.94883c-30.04478,-3.54029 -51.59755,-32.4113 -48.25603,-60.76932c3.34152,-28.358 30.40649,-48.47676 60.45127,-44.93646c30.04478,3.54029 51.69205,29.39895 48.35053,57.75696z" fill="#9c9c9c" stroke="#000000" stroke-width="2.5" stroke-linecap="butt"/><path d="M329.66913,125.40979c-0.13338,2.70555 -6.88589,4.57126 -15.08212,4.16716c-8.19625,-0.4041 -14.73246,-2.92497 -14.59907,-5.63052c0.13338,-2.70555 6.88589,-4.57126 15.08212,-4.16717c8.19625,0.4041 14.73246,2.92497 14.59907,5.63053z" fill-opacity="0.18431" fill="#000000" stroke="none" stroke-width="0" stroke-linecap="butt"/><path d="M299.06227,172.57806l26.88903,1.32571" fill="none" stroke="#000000" stroke-width="2.5" stroke-linecap="round"/><path d="M269.03298,138.26955c0.52227,-0.06481 2.96254,0.19532 1.63091,1.47813c-0.29331,0.28256 -1.70466,0.07843 -1.95331,-0.16563c-0.38209,-0.37501 0.80459,-1.05754 0.52895,-1.51649c-0.17161,-0.28576 -0.62266,0.67214 -0.88472,0.46613c-0.26203,-0.20602 0.16279,-0.6465 0.24416,-0.96973z" fill="none" stroke="#000000" stroke-width="2.5" stroke-linecap="round"/><path d="M279.82248,140.14159c-2.60811,-0.99366 1.2948,-1.84099 1.46963,-0.7228c0.31189,1.99469 -4.34972,-0.98681 -0.13335,-0.77894" fill="none" stroke="#000000" stroke-width="2.5" stroke-linecap="round"/><path d="M274.32558,144.25133c4.53499,-0.45408 -0.43052,3.28767 -1.03988,1.83203c-0.26428,-0.63133 1.22105,-1.1961 0.94548,-1.82259z" fill="none" stroke="#000000" stroke-width="2.5" stroke-linecap="round"/><path d="M346.1556,143.86204c0.589,-0.18444 1.94006,-0.45422 1.84507,0.15563c-0.0048,0.0308 -3.8271,0.82747 -1.90504,-1.48829" fill="none" stroke="#000000" stroke-width="2.5" stroke-linecap="round"/><path d="M355.17664,144.60416c0.89097,2.16191 -2.15899,0.92339 -0.00916,-0.02221z" fill="none" stroke="#000000" stroke-width="2.5" stroke-linecap="round"/><path d="M350.84406,150.16551c-0.32337,0.119 -3.06559,0.97917 -2.18484,-0.69499c0.33085,-0.62888 2.68849,-0.68218 2.3148,0.65552c-0.16739,0.59919 -2.56035,1.23028 -1.09889,-0.53054z" fill="none" stroke="#000000" stroke-width="2.5" stroke-linecap="round"/><path d="M330.25451,80.51075c3.05905,-14.08673 14.12343,-18.23967 24.71296,-9.27588c10.58952,8.9638 16.69419,27.64991 13.63513,41.73664c-3.05905,14.08673 -14.12343,18.23967 -24.71297,9.27587c-10.58952,-8.9638 -16.69419,-27.64991 -13.63511,-41.73661z" fill="url(#color-6)" stroke="#000000" stroke-width="0" stroke-linecap="butt"/><path d="M302.5442,82.74767c2.11275,14.63691 -6.25602,32.78754 -18.69218,40.54054c-12.43617,7.75301 -24.23039,2.17248 -26.34314,-12.46445c-2.11275,-14.63693 6.25604,-32.78754 18.6922,-40.54056c12.43617,-7.753 24.23038,-2.17248 26.34313,12.46444z" fill="url(#color-7)" stroke="#000000" stroke-width="0" stroke-linecap="butt"/><path d="M263.83704,121.2272l-29.54611,-85.42949l67.83855,41.30363c0,0 -5.44353,18.49158 -11.08652,24.99422c-6.87592,7.9234 -27.20592,19.13165 -27.20592,19.13165z" fill="url(#color-8)" stroke="#000000" stroke-width="2.5" stroke-linecap="butt"/><path d="M332.04054,78.07879l69.79712,-34.50414l-35.59809,86.61138c0,0 -18.38138,-17.6261 -24.32101,-26.67598c-5.41065,-8.24392 -9.87803,-25.43125 -9.87803,-25.43125z" fill="url(#color-9)" stroke="#000000" stroke-width="2.5" stroke-linecap="butt"/><path d="M296.56087,121.05954l-6.71977,6.26287" fill="none" stroke="#000000" stroke-width="2.5" stroke-linecap="round"/><path d="M298.25047,120.22696l-24.29371,-1.3809" fill="none" stroke="#000000" stroke-width="2.5" stroke-linecap="round"/><path d="M354.9352,123.44846l-24.29371,-1.3809" fill="none" stroke="#000000" stroke-width="2.5" stroke-linecap="round"/></g></g></svg>