<svg version="1.1" xmlns="http://www.w3.org/2000/svg" xmlns:xlink="http://www.w3.org/1999/xlink" width="34.17311" height="34.17311" viewBox="0,0,34.17311,34.17311"><g transform="translate(-302.91347,-162.91346)"><g data-paper-data="{&quot;isPaintingLayer&quot;:true}" stroke="none" stroke-miterlimit="10" stroke-dasharray="" stroke-dashoffset="0" style="mix-blend-mode: normal"><path d="M309.98313,162.91346h20.03379c3.9166,0 7.06966,3.15307 7.06966,7.06966v20.03379c0,3.91659 -3.15306,7.06966 -7.06966,7.06966h-20.03379c-3.91659,0 -7.06966,-3.15307 -7.06966,-7.06966v-20.03379c0,-3.91659 3.15307,-7.06966 7.06966,-7.06966z" fill="#0b00ff" fill-rule="evenodd" stroke-width="4.43922" stroke-linecap="round" stroke-linejoin="round"/><path d="M326.59942,188.53191l-0.4821,1.05758c-1.19815,1.98835 -3.80157,5.61961 -6.46341,5.8628c-0.77181,0.07051 -2.3111,-1.2822 -2.72014,-1.72843c-1.5401,-1.68009 -3.38864,-4.35304 -4.29684,-6.40539c0,0 -0.03062,-0.06999 -0.04998,-0.17507c-1.2679,-0.80604 -2.37429,-1.79283 -3.22216,-2.91999c-4.19283,-5.64734 -2.23527,-14.80268 4.51173,-17.66626c1.9433,-0.82478 4.1285,-0.79313 6.18804,-0.84462c0,0 0.3467,-0.00867 0.57448,0.22154l0.27537,-0.03056c4.12041,-0.51052 9.93423,-0.06884 11.36928,4.69692c0.62361,2.07097 0.31187,4.57437 0.07534,6.67589c-0.62932,3.78185 -1.97305,8.23909 -5.40257,10.47371c-0.10662,0.06947 -0.21435,0.13674 -0.32313,0.20184c0.09854,0.2886 -0.03392,0.58002 -0.03392,0.58002zM318.04766,192.71925c0.43911,0.48963 0.89561,1.37034 1.53912,1.23454c2.13908,-0.45143 4.18266,-3.37194 5.20326,-5.06312l0.03868,-0.08535c-3.15255,1.13974 -6.84217,0.8266 -9.99797,-0.49374c0.91594,1.5702 2.16247,3.23191 3.21692,4.40768zM319.58022,167.22282c-1.71276,0.0303 -3.52129,0.03758 -5.11766,0.71512c-5.81543,2.4682 -7.57761,10.5359 -3.89777,15.38547c3.20843,4.29162 10.75112,6.29441 15.60832,3.14744c3.0234,-1.95885 4.15237,-6.10423 4.70031,-9.40168c0.21325,-1.88636 0.52807,-4.18009 -0.02753,-6.04131c-1.18311,-3.96335 -6.44193,-4.05277 -9.7557,-3.63468l-0.83154,0.09231c0,0 -0.43637,0.04843 -0.67842,-0.26268z" fill="#000000" fill-rule="nonzero" stroke-width="0.5" stroke-linecap="butt" stroke-linejoin="miter"/></g></g></svg>