<svg version="1.1" xmlns="http://www.w3.org/2000/svg" xmlns:xlink="http://www.w3.org/1999/xlink" width="172.41416" height="312.94267" viewBox="0,0,172.41416,312.94267"><defs><linearGradient x1="322.14239" y1="165.16507" x2="317.25929" y2="343.93076" gradientUnits="userSpaceOnUse" id="color-1"><stop offset="0" stop-color="#383838"/><stop offset="1" stop-color="#494949"/></linearGradient><linearGradient x1="353.53791" y1="167.08422" x2="348.60097" y2="347.82124" gradientUnits="userSpaceOnUse" id="color-2"><stop offset="0" stop-color="#666666"/><stop offset="1" stop-color="#4b4b4b"/></linearGradient><linearGradient x1="291.78906" y1="164.14838" x2="286.85212" y2="344.88541" gradientUnits="userSpaceOnUse" id="color-3"><stop offset="0" stop-color="#666666"/><stop offset="1" stop-color="#4b4b4b"/></linearGradient><radialGradient cx="360.82269" cy="96.62823" r="25.71665" gradientUnits="userSpaceOnUse" id="color-4"><stop offset="0" stop-color="#000000" stop-opacity="0.92549"/><stop offset="1" stop-color="#000000" stop-opacity="0"/></radialGradient><radialGradient cx="289.05964" cy="98.37303" r="25.35587" gradientUnits="userSpaceOnUse" id="color-5"><stop offset="0" stop-color="#000000" stop-opacity="0.92549"/><stop offset="1" stop-color="#000000" stop-opacity="0"/></radialGradient><linearGradient x1="281.83325" y1="37.83671" x2="283.04575" y2="123.02688" gradientUnits="userSpaceOnUse" id="color-6"><stop offset="0" stop-color="#9c9c9c"/><stop offset="1" stop-color="#2c2c2c"/></linearGradient><linearGradient x1="368.4165" y1="41.37382" x2="366.00654" y2="129.60014" gradientUnits="userSpaceOnUse" id="color-7"><stop offset="0" stop-color="#9c9c9c"/><stop offset="1" stop-color="#2c2c2c"/></linearGradient><linearGradient x1="287.28491" y1="181.65107" x2="286.71727" y2="202.432" gradientUnits="userSpaceOnUse" id="color-8"><stop offset="0" stop-color="#878787"/><stop offset="1" stop-color="#848484"/></linearGradient><linearGradient x1="130.9323" y1="82.5976" x2="130.89817" y2="83.84713" gradientUnits="userSpaceOnUse" id="color-9"><stop offset="0" stop-color="#878787"/><stop offset="1" stop-color="#848484"/></linearGradient></defs><g transform="translate(-239.61706,-35.58133)"><g stroke-miterlimit="10"><path d="M270.3296,339.00886l1.89299,-147.27902c0,0 7.324,-25.50774 17.13963,-25.645c9.74773,-0.1363 32.84179,-0.06231 53.02333,-0.34453c21.88925,-0.3061 27.9672,26.74831 27.9672,26.74831l-3.93599,152.7849z" fill="url(#color-1)" stroke="#000000" stroke-width="2.5" stroke-linecap="butt"/><path d="M325.69308,347.1955l12.44856,-98.40572c0,0 -4.25643,-81.15132 5.90801,-79.96966c9.37146,1.08948 14.32091,-1.97123 18.84734,-1.44501c4.55797,0.52988 12.73266,30.21372 12.73266,30.21372l-5.0133,147.19378z" fill="url(#color-2)" stroke="#000000" stroke-width="2.5" stroke-linecap="butt"/><path d="M265.03544,340.64948l3.02956,-147.24797c0,0 9.78295,-29.19331 14.36304,-29.47358c4.54841,-0.27833 9.3234,3.04801 18.74036,2.47175c10.21379,-0.62502 1.53362,80.17293 1.53362,80.17293l7.05798,98.93855z" fill="url(#color-3)" stroke="#000000" stroke-width="2.5" stroke-linecap="butt"/><path d="M336.57952,179.03793c-0.20685,7.57246 -6.39318,13.54672 -13.81758,13.34392c-7.4244,-0.2028 -13.27537,-6.50589 -13.06853,-14.07833c0.20685,-7.57246 6.39318,-13.54672 13.81758,-13.34392c7.4244,0.2028 13.27537,6.50589 13.06853,14.07833z" fill="#9c9c9c" stroke="#000000" stroke-width="2.5" stroke-linecap="butt"/><path d="M378.95964,129.5085c-2.7182,28.42454 -29.36331,52.14627 -59.47856,49.26638c-30.11525,-2.87987 -52.29663,-31.27081 -49.57843,-59.69534c2.7182,-28.42453 29.33498,-49.13257 59.45024,-46.25268c30.11525,2.87987 52.32497,28.25711 49.60677,56.68164z" fill="#9c9c9c" stroke="#000000" stroke-width="2.5" stroke-linecap="butt"/><path d="M339.31863,125.90046c-0.07397,2.70783 -6.78388,4.72131 -14.98701,4.49724c-8.20314,-0.22407 -14.79312,-2.60085 -14.71915,-5.30868c0.07397,-2.70783 6.78388,-4.72131 14.98701,-4.49724c8.20314,0.22407 14.79312,2.60085 14.71915,5.30868z" fill-opacity="0.18431" fill="#000000" stroke="none" stroke-width="0" stroke-linecap="butt"/><path d="M337.09102,168.52461l-26.91165,-0.73511" fill="none" stroke="#000000" stroke-width="2.5" stroke-linecap="round"/><path d="M278.9794,140.08821c0.52072,-0.07627 2.96611,0.13024 1.66297,1.44198c-0.28704,0.28893 -1.70252,0.11584 -1.95648,-0.1227c-0.39023,-0.36653 0.78117,-1.07495 0.49552,-1.52775c-0.17785,-0.28192 -0.60776,0.68566 -0.87426,0.48544c-0.26649,-0.20022 0.14855,-0.64991 0.22282,-0.97486z" fill="none" stroke="#000000" stroke-width="2.5" stroke-linecap="round"/><path d="M289.8074,141.72295c-2.6293,-0.93616 1.25407,-1.86898 1.45341,-0.7549c0.35561,1.98736 -4.37034,-0.8911 -0.15041,-0.77583" fill="none" stroke="#000000" stroke-width="2.5" stroke-linecap="round"/><path d="M284.40203,145.95236c4.52392,-0.55352 -0.35824,3.29633 -0.9994,1.85441c-0.27808,-0.62538 1.19449,-1.22262 0.90524,-1.8429z" fill="none" stroke="#000000" stroke-width="2.5" stroke-linecap="round"/><path d="M356.2062,143.98633c0.58482,-0.19732 1.92962,-0.4967 1.84804,0.11509c-0.00411,0.03089 -3.80801,0.91129 -1.93725,-1.44611" fill="none" stroke="#000000" stroke-width="2.5" stroke-linecap="round"/><path d="M365.24136,144.53025c0.93821,2.14184 -2.1382,0.97057 -0.00964,-0.02201z" fill="none" stroke="#000000" stroke-width="2.5" stroke-linecap="round"/><path d="M361.0319,150.18536c-0.32068,0.12606 -3.04336,1.04623 -2.19957,-0.64685c0.31696,-0.636 2.67287,-0.74103 2.32863,0.60455c-0.1542,0.60272 -2.53273,1.28618 -1.11027,-0.5063z" fill="none" stroke="#000000" stroke-width="2.5" stroke-linecap="round"/><path d="M339.04646,80.9924c3.18172,-14.17755 15.51057,-18.67033 27.53724,-10.03489c12.02667,8.63544 19.19693,27.12902 16.01521,41.30658c-3.18172,14.17755 -15.51058,18.67033 -27.53726,10.03489c-12.02667,-8.63544 -19.19692,-27.12902 -16.01519,-41.30656z" fill="url(#color-4)" stroke="#000000" stroke-width="0" stroke-linecap="butt"/><path d="M311.26371,83.84407c2.43355,14.587 -5.53476,32.91696 -17.79772,40.9411c-12.26297,8.02414 -24.17685,2.70387 -26.61041,-11.88315c-2.43355,-14.58702 5.53477,-32.91697 17.79773,-40.94112c12.26297,-8.02414 24.17684,-2.70386 26.6104,11.88316z" fill="url(#color-5)" stroke="#000000" stroke-width="0" stroke-linecap="butt"/><path d="M273.41057,123.16402l-31.41437,-84.7603l68.72891,39.80446c0,0 -5.03628,18.60663 -10.53517,25.23158c-6.70033,8.07243 -26.77939,19.72427 -26.77939,19.72427z" fill="url(#color-6)" stroke="#000000" stroke-width="2.5" stroke-linecap="butt"/><path d="M340.65044,78.5288l69.02286,-36.02802l-33.68819,87.37197c0,0 -18.76389,-17.21835 -24.90074,-26.13566c-5.59032,-8.12315 -10.43393,-25.20827 -10.43393,-25.20827z" fill="url(#color-7)" stroke="#000000" stroke-width="2.5" stroke-linecap="butt"/><path d="M302.53668,120.07627c-0.04318,2.23445 -2.06631,4.00739 -4.51874,3.95999c-2.45245,-0.0474 -4.40553,-1.89721 -4.36235,-4.13166c0.04318,-2.23445 2.06631,-4.00739 4.51874,-3.95999c2.45245,0.0474 4.40552,1.89721 4.36233,4.13167z" fill="#ffffff" stroke="#000000" stroke-width="2.5" stroke-linecap="butt"/><path d="M356.03165,121.18152c-0.04318,2.23445 -2.0663,4.00739 -4.51874,3.95999c-2.45245,-0.0474 -4.40552,-1.89721 -4.36233,-4.13166c0.04318,-2.23445 2.0663,-4.00738 4.51874,-3.95998c2.45245,0.0474 4.40553,1.8972 4.36234,4.13165z" fill="#ffffff" stroke="#000000" stroke-width="2.5" stroke-linecap="butt"/><path d="M296.97685,128.79985l6.58067,-6.40887" fill="none" stroke="#000000" stroke-width="2.5" stroke-linecap="round"/><path d="M286.53656,115.70345c0,0 7.95776,-5.9304 12.04971,-5.78784c4.01255,0.1398 12.26846,6.63511 12.26846,6.63511" fill="none" stroke="#000000" stroke-width="2.5" stroke-linecap="round"/><path d="M307.77611,217.90292l29.37049,2.53402" fill="none" stroke="#000000" stroke-width="2.5" stroke-linecap="round"/><path d="M335.40518,231.35711l-29.41776,-0.80356" fill="none" stroke="#000000" stroke-width="2.5" stroke-linecap="round"/><path d="M338.59825,241.25757l-34.34436,-0.07227" fill="none" stroke="#000000" stroke-width="2.5" stroke-linecap="round"/><path d="M337.10584,253.62766l-32.87868,-0.8981" fill="none" stroke="#000000" stroke-width="2.5" stroke-linecap="round"/><path d="M335.33293,265.70146l-28.56042,-0.49152" fill="none" stroke="#000000" stroke-width="2.5" stroke-linecap="round"/><path d="M333.52848,278.92891l-25.98048,0.1562" fill="none" stroke="#000000" stroke-width="2.5" stroke-linecap="round"/><path d="M329.72094,291.52439l-19.91601,0.03323" fill="none" stroke="#000000" stroke-width="2.5" stroke-linecap="round"/><path d="M310.40231,301.38716l18.17767,0.20792" fill="none" stroke="#000000" stroke-width="2.5" stroke-linecap="round"/><path d="M310.96029,312.65877l18.18555,-0.08051" fill="none" stroke="#000000" stroke-width="2.5" stroke-linecap="round"/><path d="M308.36388,206.95124l29.65891,2.5419" fill="none" stroke="#000000" stroke-width="2.5" stroke-linecap="round"/><path d="M309.20856,197.16107l26.51004,1.59001" fill="none" stroke="#000000" stroke-width="2.5" stroke-linecap="round"/><path d="M342.3871,227.4085l0.02191,-21.93488l29.69042,1.38827l-2.24253,18.69934" fill="none" stroke="#000000" stroke-width="2.5" stroke-linecap="round"/><path d="M355.63818,228.34771l-2.06577,54.49363l-2.83167,61.3997" fill="none" stroke="#000000" stroke-width="2.5" stroke-linecap="round"/><path d="M298.24851,192.34877c-0.15675,5.7385 -5.31946,10.25291 -11.53124,10.08323c-6.21177,-0.16968 -11.12034,-4.95921 -10.96359,-10.69769c0.15675,-5.7385 5.31946,-10.25291 11.53124,-10.08323c6.21177,0.16968 11.12034,4.95921 10.96359,10.69769z" fill="url(#color-8)" stroke="#000000" stroke-width="2.5" stroke-linecap="butt"/><path d="M253.65972,176.44465z" fill="url(#color-9)" stroke="#000000" stroke-width="2.5" stroke-linecap="butt"/></g></g></svg>