<svg version="1.1" xmlns="http://www.w3.org/2000/svg" xmlns:xlink="http://www.w3.org/1999/xlink" width="165.12514" height="347.28675" viewBox="0,0,165.12514,347.28675"><defs><linearGradient x1="318.17744" y1="236.9981" x2="321.55708" y2="309.75768" gradientUnits="userSpaceOnUse" id="color-1"><stop offset="0" stop-color="#545454"/><stop offset="1" stop-color="#2f2f2f"/></linearGradient><linearGradient x1="321.86566" y1="203.73532" x2="325.2453" y2="276.4949" gradientUnits="userSpaceOnUse" id="color-2"><stop offset="0" stop-color="#545454"/><stop offset="1" stop-color="#2f2f2f"/></linearGradient><linearGradient x1="316.58743" y1="173.16755" x2="319.96702" y2="245.92712" gradientUnits="userSpaceOnUse" id="color-3"><stop offset="0" stop-color="#545454"/><stop offset="1" stop-color="#2f2f2f"/></linearGradient><linearGradient x1="316.73422" y1="176.46193" x2="325.03191" y2="355.10172" gradientUnits="userSpaceOnUse" id="color-4"><stop offset="0" stop-color="#41200e"/><stop offset="1" stop-color="#160a03"/></linearGradient><linearGradient x1="318.15358" y1="176.43415" x2="319.35132" y2="202.22041" gradientUnits="userSpaceOnUse" id="color-5"><stop offset="0" stop-color="#542a12"/><stop offset="1" stop-color="#c2551f"/></linearGradient><linearGradient x1="291.04107" y1="206.97013" x2="292.30368" y2="234.15231" gradientUnits="userSpaceOnUse" id="color-6"><stop offset="0" stop-color="#4e2710"/><stop offset="1" stop-color="#3a1a09"/></linearGradient><linearGradient x1="363.83363" y1="147.06246" x2="363.83363" y2="201.41553" gradientUnits="userSpaceOnUse" id="color-7"><stop offset="0" stop-color="#984c20"/><stop offset="1" stop-color="#c2551f"/></linearGradient><linearGradient x1="372.00629" y1="134.0596" x2="372.00629" y2="181.30656" gradientUnits="userSpaceOnUse" id="color-8"><stop offset="0" stop-color="#984c20"/><stop offset="1" stop-color="#c2551f"/></linearGradient><linearGradient x1="272.18309" y1="151.81417" x2="272.18309" y2="212.78455" gradientUnits="userSpaceOnUse" id="color-9"><stop offset="0" stop-color="#984c20"/><stop offset="1" stop-color="#c2551f"/></linearGradient><linearGradient x1="264.08016" y1="134.064" x2="264.08016" y2="187.52506" gradientUnits="userSpaceOnUse" id="color-10"><stop offset="0" stop-color="#984c20"/><stop offset="1" stop-color="#c2551f"/></linearGradient><linearGradient x1="311.12478" y1="80.5707" x2="316.06332" y2="186.89168" gradientUnits="userSpaceOnUse" id="color-11"><stop offset="0" stop-color="#653215"/><stop offset="1" stop-color="#c2551f"/></linearGradient><linearGradient x1="263.69847" y1="19.45939" x2="297.28441" y2="98.46436" gradientUnits="userSpaceOnUse" id="color-12"><stop offset="0" stop-color="#3c3c3c"/><stop offset="1" stop-color="#767676"/></linearGradient><linearGradient x1="329.05066" y1="255.23163" x2="329.05066" y2="320.68489" gradientUnits="userSpaceOnUse" id="color-13"><stop offset="0" stop-color="#a14f20"/><stop offset="1" stop-color="#5b280f"/></linearGradient><linearGradient x1="308.89405" y1="274.36186" x2="308.89405" y2="339.94688" gradientUnits="userSpaceOnUse" id="color-14"><stop offset="0" stop-color="#a14f20"/><stop offset="1" stop-color="#5b280f"/></linearGradient></defs><g transform="translate(-232.87647,-6.35663)"><g stroke-miterlimit="10"><path d="M319.85098,309.83691l-70.09686,-6.05256c0,0 29.00594,-64.95538 68.42333,-66.78629c16.85545,-0.78292 32.8853,10.10351 45.71353,22.82248c-0.84512,1.75453 -1.88251,3.46013 -2.5903,4.61254c-0.06357,0.51089 -0.61125,1.69638 -0.30335,2.17806c0.55689,0.87118 3.58097,0.88947 4.48534,1.11217c1.35676,0.3341 1.86733,1.51923 2.47475,2.61898c0.13349,3.72583 0.90575,6.47432 -0.81083,9.87549c-0.9662,0.60482 -1.00528,1.6517 -1.71268,2.39747c-1.82778,1.92692 -3.18997,3.80699 -3.14586,6.58052c0.06852,2.41682 6.28226,5.24778 8.26175,6.34412c2.14449,1.18773 4.28202,2.65818 6.10324,4.38029z" fill="url(#color-1)" stroke="#000000" stroke-width="0" stroke-linecap="butt"/><path d="M260.38964,299.49026l57.31511,-19.86728l44.64244,8.47688" fill="none" stroke="#000000" stroke-width="0" stroke-linecap="round"/><path d="M362.83904,288.19325l17.2657,3.27848" fill="none" stroke="#000000" stroke-width="0" stroke-linecap="round"/><path d="M290.31149,302.19685l29.29531,-10.78255l36.38055,5.68373" fill="none" stroke="#000000" stroke-width="0" stroke-linecap="round"/><path d="M323.5392,276.57412l-70.09686,-6.05256c0,0 29.00594,-64.95538 68.42333,-66.78629c11.18324,-0.51945 22.00305,4.098 31.76547,10.97935c-2.89461,0.48031 -6.7114,0.80508 -8.49552,2.28595c2.09716,2.22575 6.0356,4.35553 8.6742,6.17557c2.86446,1.97583 5.80881,3.99921 8.85719,5.6709c1.81357,0.99323 3.98762,1.51557 5.79883,2.4611c-2.75945,-0.62951 -6.33906,1.4524 -8.34313,2.82659c-0.95528,0.80911 -3.57451,3.41769 -2.63028,4.95006c0.44569,0.72329 4.1115,0.71182 5.02832,0.98227c2.24693,0.66109 4.31773,1.61573 6.54586,2.29824c0.70756,0.21674 2.46258,0.91698 1.37286,1.55834c-2.95424,1.85524 -5.87962,3.81967 -8.33365,6.37105c-0.35219,0.3673 -2.41303,1.68273 -2.27948,2.24045c0.1358,0.56715 1.79422,0.48541 2.20176,0.49102c2.29645,0.03157 3.25154,-0.32979 3.30245,1.97108c0.06419,2.70516 -2.62869,7.15447 -4.02987,9.43584c-0.06357,0.51089 -0.61125,1.69638 -0.30335,2.17806c0.55689,0.87118 3.58097,0.88947 4.48534,1.11217c0.77707,0.19135 1.27656,0.66186 1.67565,1.23561z" fill="url(#color-2)" stroke="#000000" stroke-width="0" stroke-linecap="butt"/><path d="M264.07786,266.22748l57.31511,-19.86728l43.92505,8.34066" fill="none" stroke="#000000" stroke-width="0" stroke-linecap="round"/><path d="M383.79297,258.20896l-17.96806,-3.41185" fill="none" stroke="#000000" stroke-width="0" stroke-linecap="round"/><path d="M293.99971,268.93405l29.29531,-10.78255l36.38055,5.68374" fill="none" stroke="#000000" stroke-width="0" stroke-linecap="round"/><path d="M318.26097,246.00637l-70.09687,-6.05255c0,0 29.00594,-64.95538 68.42334,-66.78629c23.03183,-1.06981 44.52215,19.64866 58.40899,37.0586c-3.10952,0.58025 -6.17026,1.28945 -9.2324,2.10482c-3.36958,0.89977 -6.8999,1.11338 -10.29303,2.00491c-2.84041,0.77042 -8.13448,0.83793 -10.33534,2.6647c2.09716,2.22575 6.0356,4.35553 8.6742,6.17557c2.86446,1.97583 5.80881,3.99921 8.85719,5.6709c1.81357,0.99323 3.98762,1.51557 5.79883,2.4611c-2.75945,-0.62951 -6.33906,1.4524 -8.34313,2.82659c-0.95528,0.80911 -3.57451,3.41769 -2.63028,4.95006c0.01352,0.02193 0.02999,0.04319 0.04926,0.0638z" fill="url(#color-3)" stroke="#000000" stroke-width="0" stroke-linecap="butt"/><path d="M258.79958,235.6597l57.31513,-19.86727l37.2323,7.06982" fill="none" stroke="#000000" stroke-width="0" stroke-linecap="round"/><path d="M378.51469,227.64118l-23.94169,-4.54614" fill="none" stroke="#000000" stroke-width="0" stroke-linecap="round"/><path d="M288.72148,238.36631l29.29531,-10.78254l36.38055,5.68374" fill="none" stroke="#000000" stroke-width="0" stroke-linecap="round"/><path d="M278.00782,353.64338l-8.95404,-147.01868c0,0 5.40544,-25.977 15.15498,-26.83552c9.68209,-0.85258 32.64984,-2.47664 52.69549,-4.24182c21.74185,-1.91455 29.77568,24.61963 29.77568,24.61963l7.32781,152.65982z" fill="url(#color-4)" stroke="#000000" stroke-width="0" stroke-linecap="butt"/><path d="M337.66239,188.44894c0.33075,7.12069 -7.86739,13.28639 -18.31106,13.77149c-10.44367,0.4851 -19.17806,-4.8941 -19.50881,-12.01479c-0.33075,-7.12069 7.86739,-13.28639 18.31106,-13.77149c10.44367,-0.4851 19.17806,4.8941 19.50881,12.01479z" fill="url(#color-5)" stroke="#000000" stroke-width="0" stroke-linecap="butt"/><path d="M305.34842,219.92597c0.34865,7.50614 -5.49168,13.8755 -13.04474,14.22633c-7.55307,0.35084 -13.95868,-5.4497 -14.30733,-12.95586c-0.34865,-7.50614 5.49168,-13.8755 13.04474,-14.22633c7.55307,-0.35084 13.95868,5.4497 14.30733,12.95586z" fill="url(#color-6)" stroke="#ffffff" stroke-width="2.5" stroke-linecap="butt"/><path d="M286.68217,218.30882l0.98341,-1.79102" fill="none" stroke="#ffffff" stroke-width="2.5" stroke-linecap="round"/><path d="M295.77709,217.88635l-0.65692,-1.61786" fill="none" stroke="#ffffff" stroke-width="2.5" stroke-linecap="round"/><path d="M283.85116,226.71612l2.08339,-3.10302l11.22351,0.52133l2.66656,3.12971" fill="none" stroke="#ffffff" stroke-width="2.5" stroke-linecap="round"/><path d="M356.01396,147.06246c0,0 12.54194,9.48795 17.16114,17.47618c2.40688,4.16235 5.35315,11.47268 7.94219,18.49268c-0.91971,0.08053 -2.31932,-0.48832 -2.66386,0.58955c-0.08362,0.2616 0.19269,1.29797 0.22542,1.59091c1.17397,1.76643 -0.49582,0.84683 -1.99835,0.83467l-0.00753,0.00697l0.0005,-0.00672l-0.01847,0.00094l-0.00021,-0.03945l-0.49982,0.06556c-0.13754,0.01793 -0.24884,0.14363 -0.24884,0.28131c0,0.1325 0.10307,0.22795 0.23341,0.22009l0.44978,-0.02277c1.08922,1.53227 2.08839,3.5797 3.64672,4.66849c0.62775,0.43861 2.03823,0.61237 2.40359,1.11445c0.12567,1.3422 1.50255,2.69482 3.09292,3.86465c1.06067,3.16991 1.71114,5.21556 1.71114,5.21556c0,0 -16.03752,-18.33931 -24.33735,-21.93125c-7.31565,-3.16598 -22.88275,1.49581 -22.88275,1.49581z" fill="url(#color-7)" stroke="#000000" stroke-width="0" stroke-linecap="butt"/><path d="M354.10465,134.0596c0,0 14.7348,7.12318 21.18631,14.06703c2.95825,3.18401 6.89106,8.6452 10.65166,14.22821c-2.86077,0.43542 -5.76944,0.82466 -8.55605,1.50705c-0.67223,0.16594 -1.31793,0.13225 -1.97602,0.36861l-0.47661,0.10832c-0.11975,0.02499 -0.21141,0.13345 -0.21141,0.2584c0,0.0954 0.05344,0.17545 0.13201,0.21337l0.42705,0.2166l0.05112,-0.09389c1.40079,0.70831 3.92412,1.18767 6.05372,1.40521c-0.16576,0.11642 -0.28117,0.2571 -0.32044,0.42238c-0.46636,1.96269 2.0388,3.01251 3.75028,3.65136l-0.01469,0.00641c-0.09681,0.03967 -0.16612,0.13586 -0.16612,0.24451c0,0.13159 0.10167,0.23397 0.23073,0.23687l0.46062,0.01541c0.6124,0.27367 0.98349,0.37169 1.47914,0.27702l0.0047,0.05924l0.4962,-0.06587c0.01219,-0.0015 0.02414,-0.00385 0.03579,-0.007c1.51206,0.25807 3.13427,0.33218 4.6844,0.49602c3.48339,5.48199 5.97458,9.6317 5.97458,9.6317c0,0 -20.25686,-15.07592 -29.39521,-17.2066c-8.05474,-1.87803 -22.59544,5.08453 -22.59544,5.08453z" fill="url(#color-8)" stroke="#000000" stroke-width="0" stroke-linecap="butt"/><path d="M294.46891,182.14365c0,0 -15.75063,-1.24826 -22.65597,3.49882c-7.83432,5.38572 -21.91568,27.14208 -21.91568,27.14208c0,0 5.96926,-28.87043 10.62229,-39.82851c3.80493,-8.96078 15.26706,-21.14187 15.26706,-21.14187z" fill="url(#color-9)" stroke="#000000" stroke-width="0" stroke-linecap="round"/><path d="M289.27223,167.8544c0,0 -15.0511,-4.8068 -22.85694,-1.75929c-8.85598,3.4575 -27.52721,21.42995 -27.52721,21.42995c0,0 12.39495,-26.74884 19.42403,-36.35726c5.74791,-7.85713 19.68558,-17.1038 19.68558,-17.1038z" fill="url(#color-10)" stroke="#000000" stroke-width="0" stroke-linecap="round"/><path d="M327.59461,76.42651l11.3548,4.45697l9.51439,59.40443l-53.98621,23.81812l-37.14762,-43.20105l3.75913,-13.14928" fill="none" stroke="#000000" stroke-width="2.5" stroke-linecap="round"/><path d="M368.28884,133.4177c-0.61712,28.54754 -25.44256,54.16745 -55.68814,53.51362c-30.24557,-0.65383 -54.45791,-27.33381 -53.84079,-55.88134c0.61712,-28.54753 25.63629,-51.15986 55.88187,-50.50601c30.24557,0.65383 54.26419,24.32621 53.64707,52.87374z" fill="url(#color-11)" stroke="#000000" stroke-width="0" stroke-linecap="butt"/><path d="M262.72596,112.5614l-29.84949,-79.99921c0,0 5.65478,-4.59973 13.69551,-8.79602c5.058,-2.63967 11.54411,-6.09273 15.50322,-7.7758c3.92514,-1.66862 11.57806,-3.64205 16.96905,-5.45286c8.74854,-2.93859 15.47622,-4.18088 15.47622,-4.18088c0,0 -3.98189,6.13037 -1.07135,12.24893c0.15078,0.31696 6.86596,-0.06746 7.01818,0.25255c0.70381,1.47955 -5.37815,3.92234 -4.68095,5.38801c0.52913,1.11234 7.84537,1.2643 8.33934,2.30272c0.79278,1.66659 -0.80454,5.13575 0.30917,7.477c0.43765,0.92003 -7.89509,3.17265 -8.03779,4.65213c-0.05907,0.61241 -0.27467,3.04797 -0.07237,3.47325c1.7486,3.67593 3.9632,3.67352 4.52654,5.95791c0.35704,1.4478 6.75851,2.45182 8.01901,5.10164c0.1649,0.34664 10.39174,4.30199 10.10437,4.5536c-4.4682,3.91203 3.66316,7.70072 5.27748,11.09436c3.82185,8.03432 6.59038,13.85435 6.59038,13.85435c0,0 -2.4717,6.01729 -10.63931,13.04366c-4.47062,3.84596 -13.93571,9.39199 -17.99545,11.17095c-4.99538,2.18895 -15.49879,5.43037 -23.25004,6.26178c-9.6635,1.03651 -16.23174,-0.62803 -16.23174,-0.62803z" fill="url(#color-12)" stroke="#000000" stroke-width="0" stroke-linecap="butt"/><path d="M290.7743,178.84043c0,0 1.05434,-2.59021 4.1761,-3.52653c3.75976,-1.12767 12.43191,-3.72873 12.43191,-3.72873l7.39799,1.7199l6.80478,-1.59086c0,0 9.61184,1.43253 14.02306,2.08997c3.94104,0.58738 5.68127,1.63421 5.68127,1.63421" fill="none" stroke="#000000" stroke-width="2.5" stroke-linecap="round"/><path d="M328.0476,128.25674c0.12568,2.70593 -6.41768,5.20818 -14.61503,5.58894c-8.19736,0.38076 -14.94451,-1.50416 -15.0702,-4.21008c-0.12568,-2.70593 6.41768,-5.20818 14.61503,-5.58894c8.19736,-0.38076 14.94451,1.50416 15.0702,4.21008z" fill-opacity="0.18431" fill="#000000" stroke="none" stroke-width="0" stroke-linecap="butt"/><path d="M290.94831,125.94201c0.10369,2.23246 -1.79858,4.13449 -4.24883,4.2483c-2.45026,0.11381 -4.52065,-1.60369 -4.62434,-3.83615c-0.10369,-2.23247 1.79857,-4.13449 4.24883,-4.24831c2.45026,-0.11381 4.52065,1.60369 4.62434,3.83616z" fill="#ffffff" stroke="#000000" stroke-width="2.5" stroke-linecap="butt"/><path d="M343.05409,123.19173c0.10369,2.23247 -1.79858,4.13449 -4.24883,4.2483c-2.45026,0.11381 -4.52065,-1.60369 -4.62434,-3.83615c-0.10369,-2.23246 1.79858,-4.13449 4.24883,-4.2483c2.45026,-0.11381 4.52065,1.60369 4.62434,3.83615z" fill="#ffffff" stroke="#000000" stroke-width="2.5" stroke-linecap="butt"/><path d="M315.94669,272.97191c-1.55982,0.75857 -1.42544,-3.85142 -1.90363,-5.35835c-1.26195,-3.97684 -0.88555,-10.28658 3.86613,-12.10334c4.79929,-1.83497 16.03638,5.91562 20.71546,8.03923c3.04474,1.38186 5.71764,6.59573 7.72577,9.1188c2.13964,2.68831 5.54194,5.30028 6.41707,8.83352c0.75732,3.05758 0.71183,6.81705 0.4599,9.77078c-0.35631,4.1774 1.16626,8.79214 0.13181,12.90797c-1.49765,5.95881 -9.34313,12.50065 -15.00598,14.84686c-7.0051,2.90234 -16.14956,2.41252 -20.06819,-4.86062c-1.0829,-2.00992 0.38487,-4.89547 -0.66112,-6.74137c-1.34894,-2.38055 -5.84399,-2.26058 -6.14603,-7.22739c-0.09933,-1.63337 1.61026,-4.25591 1.24745,-5.80435c-0.80615,-3.44051 -6.91143,-5.25357 -8.18322,-8.69237c-1.56606,-4.23448 8.35591,-12.37299 11.91325,-13.46848z" fill="url(#color-13)" stroke="#000000" stroke-width="0" stroke-linecap="round"/><path d="M321.22821,291.3222c3.57095,1.05027 13.59536,9.06228 12.08314,13.31629c-1.22806,3.45465 -7.30987,5.34502 -8.07231,8.79547c-0.34315,1.55292 1.39957,4.15355 1.32097,5.78805c-0.23902,4.97025 -4.73522,4.90731 -6.05387,7.30477c-1.02249,1.85903 0.48177,4.72572 -0.57556,6.74922c-3.82607,7.32227 -12.96358,7.92804 -20.00492,5.11479c-5.69215,-2.2742 -13.61998,-8.716 -15.19309,-14.65533c-1.08657,-4.10237 0.37735,-8.73605 -0.03194,-12.90859c-0.28939,-2.95029 -0.38257,-6.70889 0.33592,-9.77582c0.83025,-3.54406 4.19914,-6.19898 6.30451,-8.91421c1.97596,-2.54834 4.58251,-7.79569 7.60948,-9.21607c4.65177,-2.1828 15.78965,-10.07528 20.61182,-8.30134c4.77433,1.75634 5.23076,8.06079 4.01934,12.05333c-0.45904,1.51288 -0.26619,6.12077 -1.8355,5.38206z" fill="url(#color-14)" stroke="#000000" stroke-width="0" stroke-linecap="round"/><path d="M290.85764,130.39738l-10.60426,0.91843" fill="none" stroke="#000000" stroke-width="2.5" stroke-linecap="round"/><path d="M289.09164,135.16405l3.16281,-5.25744" fill="none" stroke="#000000" stroke-width="2.5" stroke-linecap="round"/><path d="M291.8377,120.36918c0,0 -3.47142,1.26683 -5.21501,1.40308c-2.47443,0.19336 -8.22232,-0.35305 -8.22232,-0.35305" fill="none" stroke="#000000" stroke-width="2.5" stroke-linecap="round"/><path d="M346.67954,118.86108c0,0 -5.28685,0.77993 -7.38614,0.75754c-2.71275,-0.02894 -7.52695,-0.9166 -7.52695,-0.9166" fill="none" stroke="#000000" stroke-width="2.5" stroke-linecap="round"/><path d="M344.75833,129.45529l-12.68611,-1.11425" fill="none" stroke="#000000" stroke-width="2.5" stroke-linecap="round"/><path d="M333.6962,129.68519l6.08762,2.69838" fill="none" stroke="#000000" stroke-width="2.5" stroke-linecap="round"/><path d="M347.99352,125.75603l-2.18749,1.80512" fill="none" stroke="#000000" stroke-width="2.5" stroke-linecap="round"/><path d="M273.63863,129.49367l2.58923,0.73149" fill="none" stroke="#000000" stroke-width="2.5" stroke-linecap="round"/><path d="M281.69552,128.17745c1.56805,2.30057 0.41879,4.9614 -2.07674,6.66234c-2.49553,1.70093 -5.39233,1.79786 -6.96037,-0.50271c-1.56805,-2.30057 -0.47196,-3.78665 2.02356,-5.48759c2.49553,-1.70093 5.4455,-2.97261 7.01355,-0.67204z" fill="#ffffff" stroke="#000000" stroke-width="2.5" stroke-linecap="butt"/><path d="M382.67416,159.83747c0.41227,-0.10365 0.83153,-0.1468 1.25836,-0.10295c0.05814,0.00597 0.11593,0.01355 0.17338,0.02258v-0.03467h1.41114c0.69036,0 1.25,0.55964 1.25,1.25c0,0.29981 -0.10555,0.57497 -0.28152,0.79034c0.02959,0.11309 0.04633,0.24099 0.04633,0.38561c0,1.25 -1.25,1.25 -1.25,1.25c-1.0593,0 -2.21264,-0.05455 -3.37677,-0.05767c-0.48011,0.2408 -0.98428,0.4656 -1.46278,0.66788c1.06226,0.40745 1.96102,1.01349 2.38904,1.73931c0.20894,0.35431 0.58791,2.3316 0.90582,3.51566c0.82128,0.06407 1.79236,0.04265 2.70604,0.10332c0.74135,-0.00249 2.50218,-0.00165 2.60169,-0.00165h1.64633c0.69036,0 1.25,0.55964 1.25,1.25c0,0.63664 -0.47594,1.16211 -1.09142,1.24004l-1.62814,0.23259l-0.0318,-0.22263h-0.14497c-0.24382,0 -0.48594,-0.00245 -0.72686,-0.00482c-1.1493,0.25411 -2.36759,0.38033 -3.53349,0.30448c-0.54501,0.2095 -1.10286,0.56409 -1.59325,0.32431c-0.44523,-0.21769 -0.76375,-0.53544 -1.00179,-0.91449c-0.57346,-0.25002 -1.0991,-0.58426 -1.55458,-1.01635c-1.17441,-1.11412 -1.27573,-3.17483 -2.29644,-4.4365c-1.13328,0.06388 -2.35345,0.42677 -3.34319,0.08673c-0.05489,-0.01886 -0.10929,-0.03882 -0.16323,-0.05979l-0.00679,0.02378l-1.61976,-0.46279c-0.53693,-0.14026 -0.93317,-0.62861 -0.93317,-1.2095c0,-0.46331 0.25206,-0.86774 0.62653,-1.08365l0.96287,-0.57772c0.18042,-0.66839 0.72738,-1.20877 1.42914,-1.64114c-0.57051,-0.32328 -1.06216,-0.72415 -1.38274,-1.1567c-0.76839,-1.03677 -1.03565,-2.23536 -1.30732,-3.45093c-0.83643,-1.05041 -1.50803,-2.23554 -1.97001,-3.55879l-0.39559,0.14834l-0.69545,-1.85455c-0.05786,-0.14398 -0.0897,-0.30121 -0.0897,-0.46588c0,-0.69036 0.55964,-1.25 1.25,-1.25c0.29902,0 0.57352,0.105 0.78864,0.28013l1.16817,0.93454l-0.02918,0.03647l0.12331,0.04694c1.11159,1.33649 1.58985,1.66152 2.17887,3.28127c0.17966,0.49404 0.2682,1.12267 0.35556,1.77185c0.17047,0.20993 0.34495,0.40975 0.52576,0.59411c1.292,1.31738 3.58077,2.29944 5.72379,2.95795c0.07603,0.01552 0.14955,0.03795 0.21987,0.06659c0.31157,0.09301 0.61919,0.17911 0.91929,0.25835z" fill="#000000" stroke="none" stroke-width="0.5" stroke-linecap="butt"/><path d="M382.39091,188.74826c0.06023,0.13248 0.11724,0.26786 0.17223,0.40525c0.73592,0.98344 1.27666,1.99902 1.31644,2.92552c0.1017,0.13787 0.21225,0.26986 0.33349,0.3946l1.01192,1.01192c0.22621,0.22621 0.36612,0.53871 0.36612,0.88388c0,0.69036 -0.55964,1.25 -1.25,1.25c-0.34518,0 -0.65768,-0.13991 -0.88388,-0.36612v0l-1.17595,-1.17595l0.00772,-0.00772c-0.04718,-0.05271 -0.09313,-0.10558 -0.13793,-0.1586c-0.00702,-0.00556 -0.01402,-0.01115 -0.021,-0.01678c-0.26392,-0.21273 -0.44092,-0.49249 -0.58004,-0.80265c-0.52442,-0.82449 -0.86224,-1.68484 -1.24618,-2.5818c-0.39714,-0.51493 -0.83164,-1.01967 -1.28063,-1.51157c-1.03015,-0.05578 -3.03419,-0.0962 -3.21579,-0.23133c-2.51248,-1.86958 0.14351,-5.41071 1.63786,-6.66269c0,0 0.56557,-0.45246 1.1801,-0.23804c0.18517,-0.22736 0.43718,-0.38813 0.73636,-0.51292l-0.04828,-0.09656l1.38865,-0.69432c0.1737,-0.09145 0.37156,-0.14321 0.58151,-0.14321c0.69036,0 1.25,0.55964 1.25,1.25c0,0.07812 -0.00717,0.15457 -0.02088,0.22873l-0.23132,1.38791l-0.04056,-0.00676l0.01133,0.13808c-0.07474,0.16295 -0.20485,0.38136 -0.37486,0.62543c0.55414,0.52173 1.02802,1.08528 1.34485,2.3601l0.01701,1.14626c0,0 0,0.96532 -0.8483,1.19935zM380.19016,185.82243c-0.14882,0.10768 -0.29855,0.2018 -0.44664,0.27751c0.13698,0.1316 0.27863,0.26839 0.4233,0.40973c0.2037,0.08722 0.40091,0.19359 0.58916,0.31436l0.00024,-0.01038c0.0118,-0.40858 -0.23189,-0.71589 -0.56606,-0.99122z" fill="#000000" stroke="none" stroke-width="0.5" stroke-linecap="butt"/><path d="M349.57189,126.5586c2.49552,1.70093 3.59161,3.18702 2.02356,5.48758c-1.56804,2.30057 -4.46484,2.20365 -6.96037,0.50271c-2.49554,-1.70093 -3.64479,-4.36176 -2.07674,-6.66233c1.56805,-2.30057 4.51802,-1.0289 7.01355,0.67203z" fill="#ffffff" stroke="#000000" stroke-width="2.5" stroke-linecap="butt"/><path d="M328.13365,82.0615l-6.20797,-12.6746l-6.98396,-7.24263l1.03466,-2.84532l-17.07191,-9.05329l-6.46663,-10.60528l8.01862,-5.43197l1.81066,-5.43197l-11.12261,-3.10398l2.32799,-5.9493l-4.13864,1.03466l1.03466,-9.31195" fill="none" stroke-opacity="0.3451" stroke="#000000" stroke-width="2.5" stroke-linecap="round"/><path d="M325.22551,83.07222l-6.84224,-12.34375l-7.34198,-6.87944l0.88915,-2.89409l-17.50872,-8.1766l-6.99571,-10.26398l7.73307,-5.83131l1.53309,-5.51674l-11.26561,-2.5364l2.02354,-6.05962l-4.0809,1.24304l0.56148,-9.35242" fill="none" stroke-opacity="0.3451" stroke="#000000" stroke-width="2.5" stroke-linecap="round"/><path d="M314.77639,177.95727l0.39479,6.11923" fill="none" stroke="#000000" stroke-width="2.5" stroke-linecap="round"/><path d="M321.4878,177.16769l-0.39479,4.14528" fill="none" stroke="#000000" stroke-width="2.5" stroke-linecap="round"/><path d="M309.24935,182.49734l-0.39479,-4.54007" fill="none" stroke="#000000" stroke-width="2.5" stroke-linecap="round"/></g></g></svg>