<svg version="1.1" xmlns="http://www.w3.org/2000/svg" xmlns:xlink="http://www.w3.org/1999/xlink" width="189.04277" height="281.54325" viewBox="0,0,189.04277,281.54325"><defs><linearGradient x1="229.14828" y1="116.18411" x2="279.50418" y2="116.18411" gradientUnits="userSpaceOnUse" id="color-1"><stop offset="0" stop-color="#ffe23b"/><stop offset="1" stop-color="#631917"/></linearGradient><linearGradient x1="227.1439" y1="125.442" x2="275.118" y2="125.442" gradientUnits="userSpaceOnUse" id="color-2"><stop offset="0" stop-color="#ffe23b"/><stop offset="1" stop-color="#631917"/></linearGradient><linearGradient x1="358.56711" y1="118.39792" x2="408.92301" y2="118.39792" gradientUnits="userSpaceOnUse" id="color-3"><stop offset="0" stop-color="#3c0000"/><stop offset="1" stop-color="#ffe23b"/></linearGradient><linearGradient x1="318.25748" y1="176.5769" x2="318.25748" y2="355.40927" gradientUnits="userSpaceOnUse" id="color-4"><stop offset="0" stop-color="#fbc74c"/><stop offset="1" stop-color="#fa954b"/></linearGradient><linearGradient x1="360.05796" y1="127.69478" x2="408.03207" y2="127.69478" gradientUnits="userSpaceOnUse" id="color-5"><stop offset="0" stop-color="#3c0000"/><stop offset="1" stop-color="#ffe23b"/></linearGradient><linearGradient x1="357.28574" y1="140.74781" x2="413.55702" y2="140.74781" gradientUnits="userSpaceOnUse" id="color-6"><stop offset="0" stop-color="#3c0000"/><stop offset="1" stop-color="#ffe23b"/></linearGradient><linearGradient x1="224.51425" y1="138.534" x2="280.78554" y2="138.534" gradientUnits="userSpaceOnUse" id="color-7"><stop offset="0" stop-color="#ffe23b"/><stop offset="1" stop-color="#631917"/></linearGradient><linearGradient x1="338.15675" y1="182.21319" x2="378.71968" y2="182.21319" gradientUnits="userSpaceOnUse" id="color-8"><stop offset="0" stop-color="#3c0000"/><stop offset="1" stop-color="#ffe23b"/></linearGradient><linearGradient x1="317.86386" y1="171.60046" x2="317.86386" y2="204.70894" gradientUnits="userSpaceOnUse" id="color-9"><stop offset="0" stop-color="#fbc74c"/><stop offset="1" stop-color="#fa8c4b"/></linearGradient><linearGradient x1="258.61367" y1="177.41658" x2="299.1766" y2="177.41658" gradientUnits="userSpaceOnUse" id="color-10"><stop offset="0" stop-color="#ffe23b"/><stop offset="1" stop-color="#631917"/></linearGradient><linearGradient x1="319.95695" y1="82.54398" x2="319.95695" y2="186.89619" gradientUnits="userSpaceOnUse" id="color-11"><stop offset="0" stop-color="#ceb037"/><stop offset="1" stop-color="#ffec7f"/></linearGradient><linearGradient x1="339.30021" y1="73.86602" x2="339.30021" y2="107.6287" gradientUnits="userSpaceOnUse" id="color-12"><stop offset="0" stop-color="#d0b23a"/><stop offset="1" stop-color="#dabf49"/></linearGradient><linearGradient x1="341.46259" y1="205.97825" x2="341.46259" y2="222.61906" gradientUnits="userSpaceOnUse" id="color-13"><stop offset="0" stop-color="#ffde00"/><stop offset="1" stop-color="#ff9500"/></linearGradient><linearGradient x1="341.46259" y1="205.97825" x2="341.46259" y2="222.61906" gradientUnits="userSpaceOnUse" id="color-14"><stop offset="0" stop-color="#000000" stop-opacity="0.22745"/><stop offset="1" stop-color="#000000" stop-opacity="0.58824"/></linearGradient><linearGradient x1="348.4248" y1="210.51883" x2="348.4248" y2="227.15963" gradientUnits="userSpaceOnUse" id="color-15"><stop offset="0" stop-color="#ffce4e"/><stop offset="1" stop-color="#ff824f"/></linearGradient><linearGradient x1="348.4248" y1="210.51883" x2="348.4248" y2="227.15963" gradientUnits="userSpaceOnUse" id="color-16"><stop offset="0" stop-color="#000000" stop-opacity="0.22745"/><stop offset="1" stop-color="#000000" stop-opacity="0.58824"/></linearGradient></defs><g transform="translate(-224.51425,-73.86602)"><g stroke-miterlimit="10"><path d="M268.25496,131.44257c0,0 -15.65702,-6.54739 -21.97581,-11.47826c-6.695,-5.22444 -17.13087,-19.03866 -17.13087,-19.03866c0,0 8.16295,6.44172 14.00824,6.68837c9.40463,0.39684 36.34766,-1.18144 36.34766,-1.18144z" fill="url(#color-1)" stroke="#000000" stroke-width="0" stroke-linecap="butt"/><path d="M258.72736,144.56724c0,0 -13.87103,-9.77779 -18.97423,-15.95824c-5.40704,-6.54842 -12.60923,-22.29225 -12.60923,-22.29225c0,0 6.57707,8.05429 12.23076,9.55894c9.09637,2.42087 35.74334,6.70539 35.74334,6.70539z" fill="url(#color-2)" stroke="#000000" stroke-width="0" stroke-linecap="butt"/><path d="M358.56711,108.64639c0,0 26.94303,1.57828 36.34766,1.18144c5.84529,-0.24665 14.00824,-6.68837 14.00824,-6.68837c0,0 -10.43587,13.81422 -17.13087,19.03866c-6.31879,4.93087 -21.97581,11.47826 -21.97581,11.47826z" fill="url(#color-3)" stroke="#000000" stroke-width="0" stroke-linecap="butt"/><path d="M268.66787,351.77064l-2.24432,-147.27579c0,0 6.98285,-25.69821 17.32124,-26.10344c10.26687,-0.40242 34.6023,-0.95905 55.85867,-1.79223c23.05503,-0.90368 30.23778,25.97468 30.23778,25.97468l0.25017,152.83541z" fill="url(#color-4)" stroke="#000000" stroke-width="0" stroke-linecap="butt"/><path d="M360.05796,124.83386c0,0 26.64697,-4.28452 35.74334,-6.70539c5.6537,-1.50465 12.23077,-9.55894 12.23077,-9.55894c0,0 -7.20218,15.74384 -12.60922,22.29225c-5.1032,6.18044 -18.97423,15.95824 -18.97423,15.95824z" fill="url(#color-5)" stroke="#000000" stroke-width="0" stroke-linecap="butt"/><path d="M366.73322,122.37638c0,0 21.62037,21.77748 29.88612,28.57639c5.13745,4.22576 16.93768,4.96332 16.93768,4.96332c0,0 -19.31844,3.78173 -28.952,3.12697c-9.09222,-0.61798 -27.31928,-6.95155 -27.31928,-6.95155z" fill="url(#color-6)" stroke="#000000" stroke-width="0" stroke-linecap="butt"/><path d="M280.78554,149.87768c0,0 -18.22707,6.33358 -27.31929,6.95156c-9.63356,0.65476 -28.952,-3.12697 -28.952,-3.12697c0,0 11.80023,-0.73756 16.93768,-4.96331c8.26575,-6.79891 29.88612,-28.57638 29.88612,-28.57638z" fill="url(#color-7)" stroke="#000000" stroke-width="0" stroke-linecap="butt"/><path d="M366.02889,154.72275c0,0 9.10599,17.01237 11.1382,25.89609c2.15319,9.41264 1.43899,29.08479 1.43899,29.08479c0,0 -2.5738,-11.53972 -7.55095,-15.95314c-8.00785,-7.10085 -32.89838,-25.04968 -32.89838,-25.04968z" fill="url(#color-8)" stroke="#000000" stroke-width="0" stroke-linecap="butt"/><path d="M291.96611,175.20089c10.67991,-4.13675 23.01202,-3.35725 34.44799,-3.35725c4.64572,0 10.53098,-0.91717 14.861,0.81091c3.36862,1.3444 9.44815,1.3305 11.91784,3.88813c2.581,2.67291 -1.84688,7.63866 -3.69437,9.27671c-6.23883,5.53157 -18.0417,16.90435 -26.2043,18.6903c-9.35857,2.04762 -23.50788,-12.24202 -31.03112,-17.41552c-1.38079,-0.94953 -10.07843,-4.90999 -10.47005,-5.72759c-0.7502,-1.56617 7.81995,-6.00405 9.36548,-6.51923z" fill="url(#color-9)" stroke="#000000" stroke-width="0" stroke-linecap="round"/><path d="M299.1766,163.9042c0,0 -24.89052,17.94883 -32.89838,25.04968c-4.97715,4.41342 -7.55095,15.95314 -7.55095,15.95314c0,0 -0.7142,-19.67215 1.43899,-29.0848c2.03221,-8.88372 11.1382,-25.8961 11.1382,-25.8961z" fill="url(#color-10)" stroke="#000000" stroke-width="0" stroke-linecap="butt"/><path d="M374.73419,133.24772c0,28.00291 -24.26594,53.64847 -54.51858,53.64847c-30.25264,0 -55.03592,-25.64557 -55.03592,-53.64847c0,-28.0029 24.52462,-50.70374 54.77726,-50.70374c30.25264,0 54.77725,22.70084 54.77725,50.70374z" fill="url(#color-11)" stroke="#000000" stroke-width="0" stroke-linecap="butt"/><path d="M335.92284,131.07548c0,2.70884 -6.65243,4.90479 -14.85862,4.90479c-8.2062,0 -14.85862,-2.19595 -14.85862,-4.90479c0,-2.70884 6.65243,-4.90479 14.85862,-4.90479c8.2062,0 14.85862,2.19595 14.85862,4.90479z" fill-opacity="0.18431" fill="#ff0505" stroke="none" stroke-width="0" stroke-linecap="butt"/><path d="M298.97092,127.04185c0,2.23486 -2.20279,1.26046 -4.65569,1.26046c-2.4529,0 -4.22705,0.9744 -4.22705,-1.26046c0,-2.23487 1.98847,-4.04659 4.44137,-4.04659c2.4529,0 4.44137,1.81172 4.44137,4.04659z" fill="#ffffff" stroke="#000000" stroke-width="2.5" stroke-linecap="butt"/><path d="M313.58072,85.91499c6.11886,0 11.57038,-0.67608 16.55129,-4.52336c2.34819,-1.81374 5.31505,-7.07483 8.37303,-7.50646c2.51793,-0.3554 2.92089,4.34566 5.10347,5.03424c4.05768,1.28017 10.86602,-1.22158 14.76192,-2.37834c1.18057,-0.35053 4.90835,-2.15585 6.04285,-1.54663c1.98744,1.06728 -1.48164,6.86401 -2.24289,8.04219c-2.74322,4.24568 -3.42969,13.13952 -11.26639,18.6809c-4.94166,3.49428 -17.34553,4.41191 -20.33847,5.91117" fill="url(#color-12)" stroke="#000000" stroke-width="0" stroke-linecap="round"/><path d="M320.82018,186.89631l0.75093,18.02224l-1.50186,119.70457l0.37547,27.78429" fill="none" stroke-opacity="0.61176" stroke="#000000" stroke-width="2.5" stroke-linecap="round"/><path d="M344.47592,132.80561l10.19932,-1.45705" fill="none" stroke="#000000" stroke-width="2.5" stroke-linecap="round"/><path d="M286.99888,170.05962l5.96948,-7.02292l28.09168,4.21375l27.03824,-4.5649l5.26719,7.02292z" fill="#ffffff" stroke="#000000" stroke-width="2.5" stroke-linecap="round"/><path d="M346.13308,133.08706l16.28804,-1.92885" fill="none" stroke="#000000" stroke-width="2.5" stroke-linecap="round"/><path d="M357.49185,128.58641l-4.28633,2.5718" fill="none" stroke="#000000" stroke-width="2.5" stroke-linecap="round"/><path d="M287.83904,131.37253l-8.14402,-3.00043" fill="none" stroke="#000000" stroke-width="2.5" stroke-linecap="round"/><path d="M285.26724,126.87189l-3.42906,-0.21432" fill="none" stroke="#000000" stroke-width="2.5" stroke-linecap="round"/><path d="M292.98263,137.37339l7.71539,-7.28676" fill="none" stroke="#000000" stroke-width="2.5" stroke-linecap="round"/><path d="M339.27496,130.08663l7.07244,5.14359" fill="none" stroke="#000000" stroke-width="2.5" stroke-linecap="round"/><path d="M350.84804,135.87317l4.92928,-0.21432" fill="none" stroke="#000000" stroke-width="2.5" stroke-linecap="round"/><path d="M284.62429,134.15864l3.00043,1.07158l-1.5582,9.50915" fill="none" stroke="#000000" stroke-width="2.5" stroke-linecap="round"/><path d="M299.91143,109.42697c0,0 -3.61228,8.73635 -6.37364,9.98233c-3.06491,1.38295 -11.2003,-2.05262 -11.2003,-2.05262" fill="none" stroke="#000000" stroke-width="2.5" stroke-linecap="round"/><path d="M351.26411,127.25617c0,2.23486 -2.20279,1.26047 -4.65569,1.26047c-2.4529,0 -4.22705,0.9744 -4.22705,-1.26047c0,-2.23487 1.98847,-4.04659 4.44137,-4.04659c2.4529,0 4.44137,1.81172 4.44137,4.04659z" fill="#ffffff" stroke="#000000" stroke-width="2.5" stroke-linecap="butt"/><path d="M355.20504,117.78531c0,0 -8.13539,3.43557 -11.2003,2.05262c-2.76136,-1.24598 -6.37364,-9.98233 -6.37364,-9.98233" fill="none" stroke="#000000" stroke-width="2.5" stroke-linecap="round"/><path d="M312.41151,125.24903l-2.5718,3.42906" fill="none" stroke="#000000" stroke-width="2.5" stroke-linecap="round"/><path d="M315.19762,130.60694v-4.92928" fill="none" stroke="#000000" stroke-width="2.5" stroke-linecap="round"/><path d="M320.1269,131.24989l1.2859,-6.42949" fill="none" stroke="#000000" stroke-width="2.5" stroke-linecap="round"/><path d="M326.55639,130.39263l-0.21432,-4.92928" fill="none" stroke="#000000" stroke-width="2.5" stroke-linecap="round"/><path d="M330.84272,125.24903l1.92885,3.21475" fill="none" stroke="#000000" stroke-width="2.5" stroke-linecap="round"/><path d="M362.02131,129.60415c0,1.96307 -2.33024,3.55445 -5.20473,3.55445c-2.87449,0 -5.20473,-1.59138 -5.20473,-3.55445c0,-1.96307 2.33024,-3.55445 5.20473,-3.55445c2.87449,0 5.20473,1.59138 5.20473,3.55445z" fill="#ffffff" stroke="#000000" stroke-width="2.5" stroke-linecap="butt"/><path d="M289.2678,129.56792c0,2.32164 -2.50942,4.2037 -5.60494,4.2037c-3.09552,0 -5.60494,-1.88206 -5.60494,-4.2037c0,-2.32164 2.50942,-4.2037 5.60494,-4.2037c3.09552,0 5.60494,1.88206 5.60494,4.2037z" fill="#ffffff" stroke="#000000" stroke-width="2.5" stroke-linecap="butt"/><path d="M347.72862,176.27587l1.52333,-4.82389l-2.03111,7.36278l-0.25389,-9.14001" fill="none" stroke="#000000" stroke-width="2.5" stroke-linecap="round"/><path d="M345.44362,172.21364l-0.76167,6.85501l0.25389,-9.90168" fill="none" stroke="#000000" stroke-width="2.5" stroke-linecap="round"/><path d="M342.90473,181.60754v-8.63223l0.50778,5.83945" fill="none" stroke="#000000" stroke-width="2.5" stroke-linecap="round"/><path d="M342.14306,173.2292l0.50778,-2.53889" fill="none" stroke="#000000" stroke-width="2.5" stroke-linecap="round"/><path d="M339.35028,173.73697l1.01556,-2.79278v3.30056" fill="none" stroke="#000000" stroke-width="2.5" stroke-linecap="round"/><path d="M336.30361,173.73698l1.01556,-1.26945v2.53889" fill="none" stroke="#000000" stroke-width="2.5" stroke-linecap="round"/><path d="M335.79584,171.19809v8.63223l-1.26945,-6.60112" fill="none" stroke="#000000" stroke-width="2.5" stroke-linecap="round"/><path d="M332.74916,177.54531l1.52333,-5.83945l0.76167,12.69446" fill="none" stroke="#000000" stroke-width="2.5" stroke-linecap="round"/><path d="M330.71806,172.21364l1.52333,-1.01556l-0.50778,3.04667z" fill="none" stroke="#000000" stroke-width="2.5" stroke-linecap="round"/><path d="M329.25749,146.81433l0.35115,15.09928l-0.35115,-9.83209" fill="none" stroke="#000000" stroke-width="2.5" stroke-linecap="round"/><path d="M331.71551,161.56246l-1.40458,3.16031l-1.05344,-2.10688" fill="none" stroke="#000000" stroke-width="2.5" stroke-linecap="round"/><path d="M335.92925,164.72276l-1.40458,-4.91604l-1.40458,4.5649l-0.70229,-4.91604" fill="none" stroke="#000000" stroke-width="2.5" stroke-linecap="round"/><path d="M328.90634,137.33339v-3.86261" fill="none" stroke="#000000" stroke-width="2.5" stroke-linecap="round"/><path d="M325.04373,157.69985l0.35115,6.32063" fill="none" stroke="#000000" stroke-width="2.5" stroke-linecap="round"/><path d="M342.24989,161.56246l-0.35115,-2.80917" fill="none" stroke="#000000" stroke-width="2.5" stroke-linecap="round"/><path d="M345.05906,158.40214l1.40458,4.5649" fill="none" stroke="#000000" stroke-width="2.5" stroke-linecap="round"/><path d="M350.32625,161.21131l2.45802,2.80917" fill="none" stroke="#000000" stroke-width="2.5" stroke-linecap="round"/><path d="M353.48656,161.21132l1.05344,5.61834l-0.35115,5.96948l-0.70229,2.80917l-1.05344,-5.61834l-2.10688,4.91604l-0.70229,-4.21375" fill="none" stroke="#000000" stroke-width="2.5" stroke-linecap="round"/><path d="M356.99802,171.0434v-4.91604l0.35115,3.16031" fill="none" stroke="#000000" stroke-width="2.5" stroke-linecap="round"/><path d="M296.65969,132.80561l-10.19932,-1.45705l13.16607,2.16713l-10.5015,2.78611l4.6668,-5.60827" fill="none" stroke="#000000" stroke-width="2.5" stroke-linecap="round"/><path d="M288.17341,140.52562l1.40458,-7.37407" fill="none" stroke="#000000" stroke-width="2.5" stroke-linecap="round"/><path d="M285.01309,140.87677l1.40458,10.88553" fill="none" stroke="#000000" stroke-width="2.5" stroke-linecap="round"/><path d="M288.1734,173.88449l-0.70229,-7.02292l-1.05344,-17.5573" fill="none" stroke="#000000" stroke-width="2.5" stroke-linecap="round"/><path d="M289.22684,176.34251l-1.75573,-9.48094" fill="none" stroke="#000000" stroke-width="2.5" stroke-linecap="round"/><g stroke-width="2.5" stroke-linecap="butt"><path d="M332.49572,211.1406c-0.00957,-1.11135 0.0596,-1.53952 0.3544,-2.19459c0.03391,-0.07534 0.06893,-0.14937 0.10507,-0.22208c0.00636,-0.01341 0.01278,-0.02666 0.01927,-0.03973c0.12424,-0.25045 0.26434,-0.48358 0.41798,-0.69936c0.44633,-0.63715 1.00307,-1.13468 1.65994,-1.48123c0.65069,-0.34328 0.98514,-0.50351 2.01674,-0.52164c0.11424,-0.00457 0.22845,-0.00493 0.34236,-0.00108c0.85485,0.00947 1.17595,0.11685 1.6511,0.37357c0.92822,0.41042 1.72358,1.15704 2.19261,2.24194l0.2074,0.47974l0.2074,-0.47974c0.46902,-1.08489 1.26438,-1.83152 2.1926,-2.24194c0.47515,-0.25672 0.79625,-0.3641 1.65111,-0.37357c0.1139,-0.00385 0.22811,-0.00349 0.34235,0.00108c1.03161,0.01812 1.36605,0.17836 2.01674,0.52164c0.65686,0.34655 1.21359,0.84407 1.65991,1.4812c0.15365,0.21579 0.29376,0.44893 0.41801,0.69939c0.00648,0.01307 0.01291,0.02632 0.01927,0.03974c0.03614,0.0727 0.07117,0.14673 0.10507,0.22207c0.2948,0.65507 0.36397,1.08324 0.3544,2.19459c-0.0002,0.02292 -0.00047,0.04579 -0.00082,0.06859c0.01601,0.86541 -0.08361,1.74146 -0.30739,2.38302c-0.61922,1.77516 -1.80149,3.12848 -4.5448,5.2023c-1.79911,1.36007 -3.83024,3.41787 -3.97019,3.70689c-0.07599,0.15689 -0.21132,0.15689 -0.28731,0c-0.13996,-0.28902 -2.17109,-2.34682 -3.97019,-3.70689c-2.74331,-2.07382 -3.92557,-3.42715 -4.54479,-5.2023c-0.22379,-0.64156 -0.32342,-1.51762 -0.3074,-2.38302c-0.00035,-0.0228 -0.00062,-0.04566 -0.00082,-0.06858z" fill="url(#color-13)" stroke="url(#color-14)"/><path d="M339.45795,215.68118c-0.00957,-1.11135 0.05959,-1.53953 0.35439,-2.1946c0.03391,-0.07534 0.06894,-0.14936 0.10507,-0.22207c0.00636,-0.01341 0.01277,-0.02665 0.01926,-0.03972c0.12424,-0.25045 0.26434,-0.48359 0.41799,-0.69937c0.44633,-0.63715 1.00306,-1.13467 1.65993,-1.48123c0.65069,-0.34328 0.98514,-0.50351 2.01674,-0.52164c0.11424,-0.00457 0.22846,-0.00492 0.34236,-0.00107c0.85485,0.00947 1.17596,0.11685 1.65111,0.37356c0.92822,0.41042 1.72358,1.15705 2.1926,2.24195l0.2074,0.47973l0.2074,-0.47973c0.46902,-1.08489 1.26438,-1.83152 2.1926,-2.24194c0.47515,-0.25672 0.79624,-0.3641 1.6511,-0.37357c0.1139,-0.00385 0.22812,-0.00349 0.34236,0.00107c1.03161,0.01812 1.36604,0.17836 2.01674,0.52164c0.65686,0.34655 1.21359,0.84406 1.65992,1.4812c0.15365,0.21579 0.29376,0.44893 0.418,0.6994c0.00648,0.01307 0.01291,0.02632 0.01927,0.03973c0.03614,0.0727 0.07117,0.14673 0.10507,0.22206c0.2948,0.65507 0.36397,1.08325 0.35439,2.1946c-0.0002,0.02292 -0.00046,0.04578 -0.00081,0.06858c0.01602,0.8654 -0.08361,1.74146 -0.30739,2.38302c-0.61922,1.77516 -1.80149,3.12848 -4.5448,5.2023c-1.79911,1.36007 -3.83024,3.41787 -3.9702,3.70689c-0.07599,0.15689 -0.21132,0.15689 -0.2873,0c-0.13996,-0.28902 -2.17108,-2.34682 -3.97019,-3.70689c-2.74331,-2.07382 -3.92557,-3.42715 -4.5448,-5.2023c-0.22379,-0.64156 -0.32342,-1.51761 -0.3074,-2.38302c-0.00035,-0.0228 -0.00062,-0.04566 -0.00082,-0.06858z" fill="url(#color-15)" stroke="url(#color-16)"/></g></g></g></svg>