<svg version="1.1" xmlns="http://www.w3.org/2000/svg" xmlns:xlink="http://www.w3.org/1999/xlink" width="183.98101" height="292.2134" viewBox="0,0,183.98101,292.2134"><defs><linearGradient x1="312.33112" y1="107.19185" x2="313.0963" y2="135.18815" gradientUnits="userSpaceOnUse" id="color-1"><stop offset="0" stop-color="#7d542d"/><stop offset="1" stop-color="#000000"/></linearGradient><linearGradient x1="266.85027" y1="117.38461" x2="285.48851" y2="196.78486" gradientUnits="userSpaceOnUse" id="color-2"><stop offset="0" stop-color="#996237"/><stop offset="1" stop-color="#6f5927"/></linearGradient><linearGradient x1="359.09768" y1="116.97563" x2="345.81954" y2="199.21874" gradientUnits="userSpaceOnUse" id="color-3"><stop offset="0" stop-color="#996237"/><stop offset="1" stop-color="#6f5927"/></linearGradient><linearGradient x1="313.39463" y1="65.686" x2="314.67196" y2="112.42077" gradientUnits="userSpaceOnUse" id="color-4"><stop offset="0" stop-color="#7d542d"/><stop offset="1" stop-color="#3b2815"/></linearGradient></defs><g transform="translate(-220.6004,-63.9271)"><g stroke-miterlimit="10"><path d="M402.1812,118.74473c0.2113,7.73097 -39.67337,15.09294 -89.0849,16.44342c-49.41153,1.35049 -89.63878,-3.82191 -89.85008,-11.55288c-0.07864,-2.87711 5.39595,-5.70311 14.84813,-8.18717c3.70046,-0.97249 8.01056,-1.89257 12.83574,-2.7428c15.96806,-2.81368 37.57718,-4.86231 61.40103,-5.51345c49.41153,-1.35049 89.63878,3.82192 89.85008,11.55288z" fill="url(#color-1)" stroke="#000000" stroke-width="2.5" stroke-linecap="butt"/><path d="M263.45181,118.481c8.28081,-0.47327 17.46898,-0.44617 24.11308,2.49917c6.77879,3.00505 11.11833,8.6648 13.02259,14.68915c1.28137,4.05383 4.63381,7.63785 6.17378,11.45934c2.17922,5.4079 2.36396,11.10826 3.09268,16.92049c1.27276,10.1514 -10.76127,20.97293 -20.27074,28.0004c-1.59535,1.17894 -5.93636,5.56643 -7.84361,5.92972c-1.94502,0.37049 -3.76616,-4.87041 -4.11726,-5.9268c-1.89307,-5.69567 -2.34777,-11.83792 0.46983,-18.44301c0.54224,-1.27114 4.05297,-6.82061 2.84603,-7.77156c-0.69744,-0.54953 -4.34439,1.51186 -5.17882,1.85899c-5.10686,2.12449 -10.09098,5.25934 -14.50138,8.22697c-0.71999,0.48447 -3.42417,3.49551 -4.46317,3.17303c-1.65665,-0.51419 0.24256,-6.39221 0.4948,-7.66288c1.53428,-7.72881 3.63835,-15.90207 8.41723,-23.40425c1.5708,-2.4659 3.27167,-5.01691 4.95476,-7.48708c0.18939,-0.27795 0.77504,-0.58314 0.62514,-0.81507c-0.47752,-0.73894 -6.45312,2.35267 -7.19591,2.76104c-4.68103,2.57355 -10.75347,5.05588 -15.04439,8.77458c-0.59314,0.51405 -5.52503,4.64443 -5.99791,4.68244c-0.35999,0.02894 -0.48225,-0.36727 -0.55609,-0.63263c-0.80477,-2.89239 0.71439,-7.1988 1.34568,-10.37865c1.72662,-8.6972 5.21318,-15.93698 13.99592,-22.7455c1.62174,-1.25721 2.32288,-2.39404 4.44008,-3.05437z" fill="url(#color-2)" stroke="#000000" stroke-width="2.5" stroke-linecap="round"/><path d="M363.79259,119.2054c2.16207,0.87409 2.94006,2.13263 4.64693,3.59521c9.2437,7.92083 13.21965,15.85372 15.53387,25.17762c0.84613,3.409 2.6563,8.08124 2.04678,11.06667c-0.05592,0.27391 -0.15145,0.68184 -0.51344,0.62118c-0.4755,-0.07966 -5.68698,-4.85172 -6.3149,-5.44387c-4.54262,-4.2839 -10.78348,-7.4119 -15.6389,-10.51982c-0.77046,-0.49316 -6.95563,-4.25615 -7.3833,-3.5162c-0.13423,0.23225 0.47208,0.60337 0.68027,0.91257c1.85014,2.74795 3.72354,5.58269 5.46105,8.31674c5.28617,8.31795 7.94251,17.12042 9.99896,25.40613c0.33809,1.36221 2.63451,7.72504 1.0124,8.12913c-1.01736,0.25344 -3.92522,-3.15079 -4.67803,-3.72237c-4.61138,-3.50116 -9.80785,-7.22685 -15.05884,-9.89641c-0.85799,-0.4362 -4.6446,-2.917 -5.30502,-2.39537c-1.14285,0.90268 2.74311,7.05359 3.37126,8.44056c3.26404,7.20706 3.2241,13.65185 1.71547,19.50491c-0.27982,1.08558 -1.74721,6.46469 -3.7175,5.91091c-1.93203,-0.54301 -6.56992,-5.53697 -8.24508,-6.91475c-9.98529,-8.21273 -22.7517,-20.64114 -22.16438,-31.24888c0.33628,-6.07351 0.13606,-12.07448 1.95032,-17.59987c1.28206,-3.90451 4.39286,-7.40675 5.40062,-11.57814c1.49761,-6.19903 5.45548,-11.80952 12.03217,-14.414c6.44601,-2.55275 15.63353,-1.81259 23.94735,-0.62023z" fill="url(#color-3)" stroke="#000000" stroke-width="2.5" stroke-linecap="round"/><path d="M271.45874,353.82448l-6.20871,-147.1611c0,0 6.09604,-25.87442 16.1499,-26.55459c9.9843,-0.67546 33.66081,-1.87941 54.33215,-3.27787c22.4205,-1.5168 30.14761,25.1604 30.14761,25.1604l4.4192,152.7717z" fill="#7d5e41" stroke="#000000" stroke-width="2.5" stroke-linecap="butt"/><path d="M294.11267,185.65375l21.33381,-17.57345l20.76018,20.92812l-20.41535,18.87276z" fill="#f5c06a" stroke="#000000" stroke-width="2.5" stroke-linecap="butt"/><path d="M368.80643,136.45701c-1.16198,28.53056 -26.47198,53.67188 -56.69956,52.44078c-30.22758,-1.2311 -53.92618,-28.36843 -52.76419,-56.89898c1.16199,-28.53055 26.60827,-50.66114 56.83585,-49.43003c30.22758,1.2311 53.78991,25.35768 52.62793,53.88823z" fill="#f5c06a" stroke="#000000" stroke-width="2.5" stroke-linecap="butt"/><path d="M328.12579,128.59935c0.12869,2.70578 -6.41191,5.2153 -14.60882,5.60515c-8.19693,0.38987 -14.94617,-1.48757 -15.07485,-4.19335c-0.12869,-2.70578 6.41191,-5.2153 14.60882,-5.60515c8.19693,-0.38987 14.94617,1.48757 15.07485,4.19335z" fill-opacity="0.18431" fill="#520000" stroke="none" stroke-width="0" stroke-linecap="butt"/><path d="M366.38761,91.21659c0.14084,5.15323 4.10215,16.27616 -0.00166,18.50211c-8.80122,4.77388 -32.26106,-3.46853 -52.18088,-2.9241c-20.45513,0.55907 -41.63595,8.48931 -50.66171,3.77284c-3.86216,-2.01819 -2.79445,-11.60373 -2.92718,-16.45997c-0.2918,-10.67643 9.73036,-20.30196 24.95548,-25.85541c7.88413,-2.87578 14.93334,1.02035 24.89816,0.748c8.07217,-0.22062 17.97948,-5.10627 24.87283,-3.4991c18.04921,4.20814 30.72448,13.9891 31.04498,25.71562z" fill="url(#color-4)" stroke="#000000" stroke-width="2.5" stroke-linecap="butt"/><path d="M282.00939,128.76901c0.17913,2.22767 -1.65773,4.19294 -4.10273,4.38955c-2.44501,0.1966 -4.57229,-1.44991 -4.75142,-3.67758c-0.17913,-2.22768 1.65773,-4.19295 4.10273,-4.38956c2.44501,-0.1966 4.57229,1.44991 4.75142,3.67759z" fill="#ffffff" stroke="#000000" stroke-width="2.5" stroke-linecap="butt"/><path d="M331.12457,126.85418c0.17913,2.22767 -1.65773,4.19294 -4.10273,4.38955c-2.44501,0.1966 -4.57229,-1.44991 -4.75142,-3.67758c-0.17913,-2.22768 1.65773,-4.19295 4.10273,-4.38956c2.44501,-0.1966 4.57229,1.44991 4.75142,3.67759z" fill="#ffffff" stroke="#000000" stroke-width="2.5" stroke-linecap="butt"/><path d="M263.31888,103.49488l31.76617,-4.64662l13.36508,0.55639l4.80646,-1.97862l13.72678,-2.36092l7.10554,-0.19408l-3.35034,1.18174l-9.15396,3.42018l-2.59061,0.88525l7.05354,-0.7321l10.03444,-1.44235l11.40002,-0.50677l6.21922,-0.46465l-2.69794,0.77338l-9.00534,2.54601l-0.67371,0.39585l5.20647,0.09375l16.49475,0.80503l4.53659,1.19933l0.98085,0.16933l-3.07897,0.11305l-11.36418,0.63635l-4.16079,0.19959l2.95861,0.47587l9.8348,2.7141l0.83294,0.30184l-1.03609,0.07901l-8.16314,-0.0049l-1.04611,0.0112l-3.12526,-0.00866l4.09686,0.35904l9.34188,2.92612l0.82722,0.30552l-1.0453,0.02885l-10.85464,-1.65319l-34.24288,-6.56776l-9.24739,0.39859l-29.80678,1.76185l-15.14646,1.1817l-1.25296,-2.85647z" fill="#ffad00" stroke="#000000" stroke-width="2.5" stroke-linecap="round"/><path d="M403.33051,116.00331c0.0737,2.69666 -4.37879,3.31455 -12.20672,2.99149c-15.63374,-0.64521 -44.73112,-5.04357 -78.12495,-4.13087c-50.11435,1.3697 -90.92754,14.18187 -91.14844,6.09949c-0.2209,-8.08238 40.22573,-15.74478 90.34008,-17.11448c50.11435,-1.3697 90.91913,4.072 91.14003,12.15437z" fill="#7d542d" stroke="#000000" stroke-width="2.5" stroke-linecap="butt"/><path d="M273.18789,126.90743c0,0 7.08079,-3.3351 11.68213,-3.53174c4.6771,-0.19987 16.15688,2.34206 16.15688,2.34206" fill="none" stroke="#000000" stroke-width="2.5" stroke-linecap="round"/><path d="M260.75542,96.83465l-0.16254,-5.94708c0,0 34.39906,-3.01027 51.91578,-3.48902c17.73219,-0.48465 53.83883,0.5986 53.83883,0.5986l0.16254,5.94708c0,0 -36.07895,-1.60153 -53.85297,-1.11574c-17.47237,0.47754 -51.90164,4.00616 -51.90164,4.00616z" fill="#ffffff" stroke="#000000" stroke-width="2.5" stroke-linecap="butt"/><path d="M322.42654,354.8905l-4.44407,-146.44693" fill="none" stroke="#000000" stroke-width="2.5" stroke-linecap="round"/><path d="M325.72301,217.06144l0.23617,-7.51147" fill="none" stroke="#000000" stroke-width="2.5" stroke-linecap="round"/><path d="M327.70956,241.28805l-0.68228,-8.81077" fill="none" stroke="#000000" stroke-width="2.5" stroke-linecap="round"/><path d="M328.49327,269.96225l0.36171,13.23425" fill="none" stroke="#000000" stroke-width="2.5" stroke-linecap="round"/><path d="M329.37343,302.16558l-0.12765,11.48173" fill="none" stroke="#000000" stroke-width="2.5" stroke-linecap="round"/><path d="M265.637,312.29554l-0.47022,-17.20452c0,0 36.94443,2.96349 54.81006,2.4752c18.01267,-0.49231 52.82847,-5.41711 52.82847,-5.41711l0.47022,17.20452c0,0 -34.22676,6.67459 -51.45681,7.14551c-18.55168,0.50704 -56.18171,-4.2036 -56.18171,-4.2036z" fill="#624122" stroke="#000000" stroke-width="2.5" stroke-linecap="butt"/><path d="M348.39137,204.65923l6.28146,9.78267l6.83851,-0.18691l-6.02425,7.21564l0.89921,10.13716l-7.02541,-6.6516l-9.13267,7.30061l2.79691,-11.48247l-9.4725,-5.13305l9.71704,-1.09511z" fill="#ffffff" stroke="#000000" stroke-width="2.5" stroke-linecap="round"/><path d="M346.31763,217.88498l2.25225,-10.29332l2.61638,10.16025l7.05763,-2.04436l-5.62256,4.63616l2.36575,8.12074l-5.7525,-7.24861l-6.98468,8.27886l3.55535,-8.96469l-7.13324,-4.28752z" fill-opacity="0.33725" fill="#000000" stroke="#000000" stroke-width="0" stroke-linecap="round"/><path d="M316.69171,179.89257c0.076,2.7805 -0.77361,5.05945 -1.89764,5.09018c-1.12404,0.03072 -2.09685,-2.19842 -2.17284,-4.97892c-0.076,-2.7805 0.77361,-5.05945 1.89764,-5.09018c1.12404,-0.03072 2.09685,2.19842 2.17284,4.97892z" fill="none" stroke="#000000" stroke-width="2.5" stroke-linecap="butt"/><path d="M301.72128,132.84677c0,0 -11.3238,3.16518 -16.00483,3.22108c-4.60521,0.05499 -11.8576,-2.88836 -11.8576,-2.88836" fill="none" stroke="#000000" stroke-width="2.5" stroke-linecap="round"/><path d="M321.64279,124.36745c0,0 7.08079,-3.3351 11.68213,-3.53174c4.6771,-0.19987 16.15688,2.34206 16.15688,2.34206" fill="none" stroke="#000000" stroke-width="2.5" stroke-linecap="round"/><path d="M350.17619,130.3068c0,0 -11.3238,3.16518 -16.00483,3.22108c-4.60521,0.05499 -11.8576,-2.88836 -11.8576,-2.88836" fill="none" stroke="#000000" stroke-width="2.5" stroke-linecap="round"/></g></g></svg>