<svg version="1.1" xmlns="http://www.w3.org/2000/svg" xmlns:xlink="http://www.w3.org/1999/xlink" width="168.9963" height="310.8791" viewBox="0,0,168.9963,310.8791"><defs><radialGradient cx="317.02754" cy="232.44947" r="89.41619" gradientUnits="userSpaceOnUse" id="color-1"><stop offset="0" stop-color="#bebebe"/><stop offset="1" stop-color="#dadada"/></radialGradient><linearGradient x1="328.05873" y1="168.95111" x2="322.5551" y2="234.43337" gradientUnits="userSpaceOnUse" id="color-2"><stop offset="0" stop-color="#fff800"/><stop offset="1" stop-color="#d97200"/></linearGradient><linearGradient x1="280.47346" y1="83.14378" x2="273.72684" y2="163.41522" gradientUnits="userSpaceOnUse" id="color-3"><stop offset="0" stop-color="#fff800"/><stop offset="1" stop-color="#d97200"/></linearGradient><linearGradient x1="390.31176" y1="91.53464" x2="383.56514" y2="171.80609" gradientUnits="userSpaceOnUse" id="color-4"><stop offset="0" stop-color="#fff800"/><stop offset="1" stop-color="#d97200"/></linearGradient><linearGradient x1="336.8199" y1="72.34398" x2="327.90568" y2="178.40565" gradientUnits="userSpaceOnUse" id="color-5"><stop offset="0" stop-color="#dadada"/><stop offset="1" stop-color="#bebebe"/></linearGradient><linearGradient x1="333.12582" y1="97.15991" x2="330.1369" y2="132.72221" gradientUnits="userSpaceOnUse" id="color-6"><stop offset="0" stop-color="#f1de00"/><stop offset="1" stop-color="#f28f00"/></linearGradient><linearGradient x1="247.39462" y1="65.83443" x2="292.16577" y2="94.8169" gradientUnits="userSpaceOnUse" id="color-7"><stop offset="0" stop-color="#fff800"/><stop offset="1" stop-color="#d97200"/></linearGradient><linearGradient x1="389.71511" y1="50.66176" x2="383.51201" y2="104.16403" gradientUnits="userSpaceOnUse" id="color-8"><stop offset="0" stop-color="#fff800"/><stop offset="1" stop-color="#d97200"/></linearGradient><radialGradient cx="245.47395" cy="63.72013" r="7.8102" gradientUnits="userSpaceOnUse" id="color-9"><stop offset="0" stop-color="#ffffff"/><stop offset="1" stop-color="#00b5ff"/></radialGradient><radialGradient cx="389.69777" cy="48.07602" r="7.8102" gradientUnits="userSpaceOnUse" id="color-10"><stop offset="0" stop-color="#ffffff"/><stop offset="1" stop-color="#00b5ff"/></radialGradient><linearGradient x1="357.50694" y1="187.66308" x2="387.82783" y2="188.50556" gradientUnits="userSpaceOnUse" id="color-11"><stop offset="0" stop-color="#fff800"/><stop offset="1" stop-color="#d97200"/></linearGradient><linearGradient x1="296.58216" y1="182.33041" x2="266.60628" y2="178.10509" gradientUnits="userSpaceOnUse" id="color-12"><stop offset="0" stop-color="#fff800"/><stop offset="1" stop-color="#d97200"/></linearGradient></defs><g transform="translate(-236.98601,-39.80476)"><g stroke-miterlimit="10"><path d="M270.74761,338.25496l10.38635,-146.9221c0,0 8.21421,-25.09843 17.22308,-24.74792c8.94654,0.3481 30.11913,1.56901 48.64191,2.28969c20.09013,0.78166 24.07447,28.08966 24.07447,28.08966l-12.58314,152.31669z" fill="url(#color-1)" stroke="#000000" stroke-width="2.5" stroke-linecap="butt"/><path d="M292.99532,208.16062l3.5183,-41.86081l63.09022,5.30258l-3.5183,41.86081l-33.08193,21.00786z" fill="url(#color-2)" stroke="#000000" stroke-width="2.5" stroke-linecap="butt"/><g stroke="#000000" stroke-width="2.5"><path d="M268.40323,162.96778l-3.11497,-81.10028l20.54331,9.44198l3.74661,65.45658z" fill="url(#color-3)" stroke-linecap="butt"/><path d="M285.8583,152.29213l-3.19803,-55.87265" fill="none" stroke-linecap="round"/></g><g stroke="#000000" stroke-width="2.5"><path d="M370.13787,162.69614l12.66737,-64.07703l21.59988,-5.89996l-14.1853,79.64624z" fill="url(#color-4)" stroke-linecap="butt"/><path d="M374.42761,158.89542l10.81266,-54.69508" fill="none" stroke-linecap="round"/></g><path d="M386.63487,132.16875c-4.32017,28.2255 -32.26325,50.40357 -62.16763,45.82643c-29.90438,-4.57713 -50.44589,-34.1762 -46.12572,-62.4017c4.32017,-28.22549 32.06466,-47.39629 61.96904,-42.81914c29.90438,4.57713 50.6445,31.16892 46.32433,59.39441z" fill="url(#color-5)" stroke="#000000" stroke-width="2.5" stroke-linecap="butt"/><path d="M274.10465,123.84339l2.33913,-27.83099c0,0 38.18827,-0.40683 57.04115,1.1777c18.73317,1.57448 55.71929,8.29954 55.71929,8.29954l-2.33913,27.831c0,0 -37.02428,1.05766 -55.55849,-0.5001c-19.03902,-1.60018 -57.20195,-8.97714 -57.20195,-8.97714z" fill="url(#color-6)" stroke="#000000" stroke-width="2.5" stroke-linecap="butt"/><path d="M290.06014,124.5017c0,0 -10.38909,-12.31937 -10.21351,-14.40841c0.3298,-3.92396 12.27565,-10.12708 12.27565,-10.12708c0,0 26.53696,-0.85992 40.01458,0.27284c13.94404,1.17196 42.29802,6.64533 42.29802,6.64533c0,0 11.07234,7.35112 10.76558,11.00089c-0.36905,4.39092 -12.82773,13.53459 -12.82773,13.53459c0,0 -28.41473,0.46439 -42.3219,-0.70447c-13.51938,-1.13627 -39.9907,-6.2137 -39.9907,-6.2137z" fill="#000000" stroke="none" stroke-width="0" stroke-linecap="butt"/><path d="M289.94894,98.17826l-44.77115,-28.98246l4.43368,-6.72272l44.77115,28.98246z" fill="url(#color-7)" stroke="#000000" stroke-width="2.5" stroke-linecap="butt"/><path d="M379.50866,103.73222l6.20311,-53.50227l8.0067,0.86363l-6.2031,53.50226z" fill="url(#color-8)" stroke="#000000" stroke-width="2.5" stroke-linecap="butt"/><path d="M249.84962,57.41119c3.18396,2.20829 3.806,6.82306 1.38941,10.30737c-2.41661,3.48433 -6.95677,4.51876 -10.14072,2.31047c-3.18396,-2.20829 -3.806,-6.82306 -1.38941,-10.30737c2.41661,-3.48433 6.95677,-4.51876 10.14072,-2.31047z" fill="url(#color-9)" stroke="#000000" stroke-width="2.5" stroke-linecap="butt"/><path d="M397.34863,48.71906c-0.32452,3.86119 -4.013,6.70339 -8.23846,6.34825c-4.22544,-0.35514 -7.38778,-3.77314 -7.06325,-7.63433c0.32452,-3.86119 4.013,-6.7034 8.23846,-6.34826c4.22544,0.35514 7.38778,3.77315 7.06325,7.63434z" fill="url(#color-10)" stroke="#000000" stroke-width="2.5" stroke-linecap="butt"/><path d="M290.39498,155.72603l-1.71145,-27.71876" fill="none" stroke="#000000" stroke-width="2.5" stroke-linecap="round"/><path d="M367.52088,165.77399l8.28391,-30.68209" fill="none" stroke="#000000" stroke-width="2.5" stroke-linecap="round"/><path d="M364.21341,154.21632c0,0 3.82795,2.76814 -4.29264,4.52125c-6.65635,1.437 -24.83316,1.9842 -30.20727,1.5224c-5.39307,-0.46342 -23.41373,-4.10306 -30.58864,-6.89687c-7.65242,-2.97975 -4.29844,-5.10921 -4.29844,-5.10921" fill="none" stroke="#000000" stroke-width="2.5" stroke-linecap="round"/><path d="M301.25921,170.87641l5.2558,49.30188" fill="none" stroke="#000000" stroke-width="2.5" stroke-linecap="round"/><path d="M341.48941,223.50173l12.13261,-47.74893" fill="none" stroke="#000000" stroke-width="2.5" stroke-linecap="round"/><path d="M374.25206,203.28692l-19.38321,-0.53857l5.27619,-30.17054l19.38321,0.53857l8.33709,15.17469z" fill="url(#color-11)" stroke="#000000" stroke-width="2.5" stroke-linecap="butt"/><path d="M266.6128,177.888l11.26439,-13.52724l19.16265,2.70112l-0.91536,30.53705l-19.16265,-2.70112z" fill="url(#color-12)" stroke="#000000" stroke-width="2.5" stroke-linecap="butt"/><path d="M316.07492,94.71468l4.39994,-20.10622" fill="none" stroke-opacity="0.54902" stroke="#000000" stroke-width="2.5" stroke-linecap="round"/><path d="M352.54304,98.31841l-3.27369,-21.95564" fill="none" stroke-opacity="0.54902" stroke="#000000" stroke-width="2.5" stroke-linecap="round"/><path d="M333.83469,96.14379l1.80915,-23.03403" fill="none" stroke-opacity="0.54902" stroke="#000000" stroke-width="2.5" stroke-linecap="round"/><path d="M358.89359,160.01227l-32.85833,14.77362l-31.95103,-24.47166" fill="none" stroke="#000000" stroke-width="2.5" stroke-linecap="round"/><path d="M306.2209,114.69758l6.9283,-11.36405l4.89778,12.79505" fill="none" stroke="#ffffff" stroke-width="2.5" stroke-linecap="round"/><path d="M344.736,118.29032l6.92829,-11.36405l4.89778,12.79506" fill="none" stroke="#ffffff" stroke-width="2.5" stroke-linecap="round"/></g></g></svg>