<svg version="1.1" xmlns="http://www.w3.org/2000/svg" xmlns:xlink="http://www.w3.org/1999/xlink" width="180.09245" height="310.37913" viewBox="0,0,180.09245,310.37913"><defs><linearGradient x1="313.93021" y1="176.65556" x2="329.66249" y2="354.63819" gradientUnits="userSpaceOnUse" id="color-1"><stop offset="0" stop-color="#060606"/><stop offset="1" stop-color="#212121"/></linearGradient><linearGradient x1="278.09094" y1="171.46714" x2="294.5447" y2="357.61197" gradientUnits="userSpaceOnUse" id="color-2"><stop offset="0" stop-color="#2e65d1"/><stop offset="1" stop-color="#002994"/></linearGradient><linearGradient x1="347.31716" y1="165.56472" x2="363.77094" y2="351.70959" gradientUnits="userSpaceOnUse" id="color-3"><stop offset="0" stop-color="#2d63d1"/><stop offset="1" stop-color="#002994"/></linearGradient><linearGradient x1="314.21044" y1="176.17961" x2="316.19014" y2="198.57636" gradientUnits="userSpaceOnUse" id="color-4"><stop offset="0" stop-color="#222222"/><stop offset="1" stop-color="#bebebe"/></linearGradient><linearGradient x1="266.40967" y1="91.15605" x2="314.95151" y2="185.35773" gradientUnits="userSpaceOnUse" id="color-5"><stop offset="0" stop-color="#1e1e1e"/><stop offset="1" stop-color="#bebebe"/></linearGradient><radialGradient cx="268.8167" cy="105.29928" r="82.17727" gradientUnits="userSpaceOnUse" id="color-6"><stop offset="0" stop-color="#717171"/><stop offset="1" stop-color="#4b4b4b"/></radialGradient><linearGradient x1="274.66974" y1="36.35396" x2="282.74893" y2="54.24359" gradientUnits="userSpaceOnUse" id="color-7"><stop offset="0" stop-color="#000000" stop-opacity="0.19216"/><stop offset="1" stop-color="#a9a9a9" stop-opacity="0.21961"/></linearGradient><linearGradient x1="278.24984" y1="42.56532" x2="284.32042" y2="56.00735" gradientUnits="userSpaceOnUse" id="color-8"><stop offset="0" stop-color="#000000" stop-opacity="0.19216"/><stop offset="1" stop-color="#a9a9a9" stop-opacity="0.21961"/></linearGradient><linearGradient x1="229.30158" y1="95.79082" x2="247.08092" y2="129.09282" gradientUnits="userSpaceOnUse" id="color-9"><stop offset="0" stop-color="#000000" stop-opacity="0.19216"/><stop offset="1" stop-color="#a9a9a9" stop-opacity="0.21961"/></linearGradient><linearGradient x1="267.66135" y1="77.39792" x2="281.65352" y2="103.60628" gradientUnits="userSpaceOnUse" id="color-10"><stop offset="0" stop-color="#000000" stop-opacity="0.19216"/><stop offset="1" stop-color="#a9a9a9" stop-opacity="0.21961"/></linearGradient><linearGradient x1="248.85478" y1="63.00118" x2="269.43827" y2="101.09343" gradientUnits="userSpaceOnUse" id="color-11"><stop offset="0" stop-color="#696969"/><stop offset="1" stop-color="#212121"/></linearGradient></defs><g transform="translate(-202.93765,-50.12348)"><g stroke-miterlimit="10"><path d="M286.0716,355.30203l-14.90292,-146.37317c0,0 3.79915,-26.17443 12.73515,-27.46613c8.87418,-1.28275 29.9435,-3.92794 48.31648,-6.58376c19.92765,-2.88054 28.36195,13.51765 28.36195,13.51765l13.82474,161.81077z" fill="url(#color-1)" stroke="#000000" stroke-width="0" stroke-linecap="butt" stroke-linejoin="miter"/><path d="M273.10209,355.91503l-14.64246,-140.85537c0,0 1.03231,-17.36215 5.37145,-18.21729c4.30914,-0.84923 23.72973,-18.77499 32.6513,-20.53323c9.67651,-1.90701 -6.9953,19.8762 -6.9953,19.8762c0,0 3.7285,30.3157 7.59989,59.03374c2.0981,15.56371 4.23815,30.65814 5.84944,40.20353c4.36641,25.867 13.43498,60.02799 13.43498,60.02799c0,0 -25.10519,4.96871 -32.79364,5.05123c-6.55214,0.07033 -10.47567,-4.58679 -10.47567,-4.58679z" fill="url(#color-2)" stroke="#000000" stroke-width="0" stroke-linecap="butt" stroke-linejoin="miter"/><path d="M343.64052,356.86604c0,0 2.45844,-36.17145 2.05563,-62.72975c-0.42294,-27.88427 -4.53581,-100.79189 -4.53581,-100.79189c0,0 -18.76721,-15.6022 -9.68291,-16.9673c8.37558,-1.2586 29.93163,4.95774 33.97703,4.34981c4.07361,-0.61215 10.60326,18.80064 10.60326,18.80064l6.8459,143.40828c0,0 1.31823,6.02428 -4.55671,8.10864c-7.0109,2.48741 -34.70637,5.82156 -34.70637,5.82156z" fill="url(#color-3)" stroke="#000000" stroke-width="0" stroke-linecap="butt" stroke-linejoin="miter"/><path d="M328.30617,186.0802c0.54668,6.1847 -4.87786,11.77942 -12.11602,12.49618c-7.2382,0.71676 -13.54905,-3.71587 -14.09572,-9.90055c-0.54668,-6.1847 4.87786,-11.77942 12.11602,-12.49618c7.2382,-0.71676 13.54905,3.71587 14.09572,9.90055z" fill="url(#color-4)" stroke="#000000" stroke-width="0" stroke-linecap="butt" stroke-linejoin="miter"/><path d="M307.35704,239.36003l26.92337,-2.4003" fill="none" stroke="#ffffff" stroke-width="2.5" stroke-linecap="round" stroke-linejoin="miter"/><path d="M319.34807,227.54129l2.21248,25.03029" fill="none" stroke="#ffffff" stroke-width="2.5" stroke-linecap="round" stroke-linejoin="miter"/><path d="M320.90781,236.15767l8.41529,-10.13571" fill="none" stroke="#ffffff" stroke-width="2.5" stroke-linecap="round" stroke-linejoin="miter"/><path d="M329.17713,245.43857l-9.68866,-7.27985l-9.8284,-8.86071" fill="none" stroke="#ffffff" stroke-width="2.5" stroke-linecap="round" stroke-linejoin="miter"/><path d="M312.43838,248.69082l8.10499,-10.63657" fill="none" stroke="#ffffff" stroke-width="2.5" stroke-linecap="round" stroke-linejoin="miter"/><path d="M344.58646,236.17539l0.72821,-12.82968l14.88512,-0.14509l0.95487,10.80255" fill="none" stroke-opacity="0.46667" stroke="#000000" stroke-width="2.5" stroke-linecap="round" stroke-linejoin="miter"/><path d="M359.13748,352.63907l-4.87553,-112.34238" fill="none" stroke-opacity="0.46667" stroke="#000000" stroke-width="2.5" stroke-linecap="round" stroke-linejoin="miter"/><path d="M284.17656,244.97811l16.20409,111.08735" fill="none" stroke-opacity="0.46667" stroke="#000000" stroke-width="2.5" stroke-linecap="round" stroke-linejoin="miter"/><path d="M279.66992,245.15859l-1.62959,-9.40681l11.62723,-0.88561l2.29678,10.93545" fill="none" stroke-opacity="0.46667" stroke="#000000" stroke-width="2.5" stroke-linecap="round" stroke-linejoin="miter"/><path d="M340.33106,114.78034c11.2651,26.11742 -0.71579,59.8485 -28.5146,72.08158c-27.79881,12.2331 -60.8887,-1.66426 -72.1538,-27.78167c-11.26509,-26.11741 2.1381,-57.20665 29.93693,-69.43971c27.79881,-12.2331 59.46638,-0.97761 70.73149,25.13981z" fill="url(#color-5)" stroke="#000000" stroke-width="0" stroke-linecap="butt" stroke-linejoin="miter"/><path d="M298.64853,134.39734c13.12832,25.47717 15.85433,50.48858 15.85433,50.48858c0,0 -18.36149,-16.83119 -31.48981,-42.30835c-3.93353,-7.63352 -16.2721,-18.65523 -18.98364,-25.2879c-6.33835,-15.50412 0.00649,-23.35063 3.03047,-24.93271c2.85161,-1.49192 13.76766,-0.15217 22.068,12.59119c4.2672,6.55135 5.06305,20.79865 9.52067,29.44919z" fill-opacity="0.23529" fill="#000000" stroke="none" stroke-width="0" stroke-linecap="butt" stroke-linejoin="round"/><path d="M299.07694,117.09219c1.4569,2.26808 -2.97037,7.7447 -9.88865,12.23241c-6.91824,4.4877 -13.70765,6.28706 -15.16455,4.01895c-1.4569,-2.26808 2.9704,-7.7447 9.88865,-12.2324c6.91824,-4.4877 13.70765,-6.28704 15.16455,-4.01895z" fill-opacity="0.23137" fill="#000000" stroke="none" stroke-width="0" stroke-linecap="butt" stroke-linejoin="miter"/><path d="M267.57539,138.01991c1.06117,1.9555 0.17134,4.50364 -1.98741,5.69147c-2.15876,1.18781 -4.76902,0.56546 -5.83015,-1.39004c-1.06117,-1.95551 -0.17134,-4.50364 1.98741,-5.69147c2.15876,-1.18781 4.76899,-0.56547 5.83016,1.39005z" fill="#ffffff" stroke="#000000" stroke-width="2.5" stroke-linecap="butt" stroke-linejoin="miter"/><path d="M310.15281,108.29189c1.06118,1.95552 0.17135,4.50365 -1.98741,5.69148c-2.15876,1.18781 -4.76901,0.56545 -5.83016,-1.39005c-1.06117,-1.9555 -0.17135,-4.50364 1.98741,-5.69146c2.15876,-1.18781 4.76901,-0.56546 5.83016,1.39003z" fill="#ffffff" stroke="#000000" stroke-width="2.5" stroke-linecap="butt" stroke-linejoin="miter"/><path d="M260.34749,136.37152l2.243,-2.82992l2.69483,-1.59394" fill="none" stroke="#000000" stroke-width="2.5" stroke-linecap="round" stroke-linejoin="miter"/><path d="M270.12264,139.5394l-2.68755,2.32632" fill="none" stroke="#000000" stroke-width="2.5" stroke-linecap="round" stroke-linejoin="miter"/><path d="M271.38729,134.09256l-0.40096,3.8907" fill="none" stroke="#000000" stroke-width="2.5" stroke-linecap="round" stroke-linejoin="miter"/><path d="M307.54795,116.27816l-3.89004,-0.72549l-6.47544,-2.86972" fill="none" stroke="#000000" stroke-width="2.5" stroke-linecap="round" stroke-linejoin="miter"/><path d="M263.41137,93.30637c21.92467,-11.47063 42.40017,-15.52569 45.73334,-9.05724c3.33317,6.46845 -11.73819,21.01094 -33.66285,32.48157c-21.92467,11.47063 -42.40018,15.52569 -45.73335,9.05724c-3.33317,-6.46845 11.73821,-21.01093 33.66286,-32.48157z" fill="#000000" stroke="none" stroke-width="0" stroke-linecap="butt" stroke-linejoin="miter"/><path d="M272.91063,103.14403l1.15018,-0.31384c1.40014,-0.44274 2.71998,-1.01849 4.09311,-1.51694c0.60093,-0.45009 1.20963,-0.8915 1.82948,-1.32033c0.96926,-0.81538 1.97039,-1.66644 3.00352,-2.49977c-1.70652,-2.19754 -3.35796,-4.46538 -5.53148,-6.29882c-0.31792,0.10914 -0.67588,0.19787 -1.07588,0.26492c-0.57292,0.09603 -1.18734,0.13205 -1.82521,0.11407c7.95692,-1.2648 15.9257,-5.87372 22.91845,-10.5674c0.07435,0.42058 0.14625,0.83791 0.21879,1.24892c0.58845,0.4622 1.1973,0.89977 1.78947,1.3578v-0.00001c-0.22977,-0.59535 -0.42575,-1.22849 -0.59096,-1.75413c-0.46657,-0.28581 -0.93174,-0.57527 -1.39627,-0.8667c2.64164,-1.77368 5.14378,-3.559 7.4531,-5.18009c1.86588,-1.30981 4.06273,-2.4838 6.24061,-3.73727c0.07869,0.1914 0.15445,0.3834 0.22701,0.57604c0.27969,0.4676 0.55941,0.93526 0.83926,1.4029l-0.07586,0.13653l0.1158,-0.04772l0.80413,1.99509c0.20221,0.50171 0.05308,1.06108 -0.33151,1.4055c0.24993,0.60414 0.49856,1.20961 0.74634,1.81628c0.40983,0.80354 0.80789,1.61169 1.1916,2.42482c0.14434,0.25777 0.2874,0.51619 0.4292,0.77515c0.79945,1.21585 1.58054,2.425 2.35406,3.5977c0.32862,0.71379 0.6785,1.41347 1.03524,2.10798c0.08904,0.0297 0.17891,0.05863 0.26966,0.0867c1.13426,0.351 2.06895,0.19122 3.06354,1.07868c1.65169,1.47378 2.67764,4.12639 3.73639,6.35044c0.21295,0.08914 0.40109,0.23763 0.5375,0.4355l0.78589,1.09291l-0.20389,0.14767l0.08036,0.17794c0.06899,0.15367 0.13678,0.30804 0.20341,0.46309c1.10763,1.32265 2.03131,2.92731 2.84525,4.64067c0.0709,-0.39252 0.32733,-0.74658 0.7179,-0.92629c0.62968,-0.28976 1.36956,-0.01664 1.65256,0.61001l0.74414,1.64774l-0.31077,0.143c1.5623,2.38212 2.57167,5.24175 2.79803,8.12765c0.0546,0.08181 0.10929,0.16358 0.16409,0.24529l-0.13518,0.20482c0.01215,0.24321 0.01867,0.48645 0.01942,0.72943l-0.00002,0c2.05224,3.4296 3.94595,6.96998 5.94263,10.58839c0.29057,0.52659 0.65825,1.11325 1.03325,1.73491c-0.36686,-2.50432 -0.75816,-5.01815 -1.43223,-7.39765c-1.34946,-4.76379 -4.30064,-9.29267 -7.00417,-13.31847c0,0 -0.69289,-1.03296 0.34749,-1.737c1.04039,-0.70404 1.73328,0.32892 1.73328,0.32892c2.82524,4.217 5.86973,8.95137 7.30189,13.93116c1.15171,4.00462 1.52501,8.38349 2.2532,12.48973l-0.01271,0.07127l0.01914,-0.00143l0.15708,2.46414c0.04492,0.51452 -0.23503,1.02736 -0.7332,1.25659c-0.57356,0.26393 -1.23853,0.06086 -1.5664,-0.45101l-1.12756,-1.69394l0.31831,-0.21379c-2.87335,-3.6898 -4.54919,-8.49871 -6.77042,-12.62582c1.41348,4.05313 2.83795,8.0857 3.25992,12.24695l0.2768,-0.08271l0.58712,2.03173c0.18123,0.59139 -0.10296,1.24395 -0.68365,1.51117c-0.62968,0.28976 -1.36956,0.01664 -1.65256,-0.61001l-0.62012,-1.37312c-1.33858,-2.964 -2.5048,-5.969 -3.67469,-8.97827c-0.09436,0.0862 -0.20344,0.1595 -0.32563,0.21573c-0.16867,0.07761 -0.34524,0.11485 -0.51883,0.11571c0.6886,1.70603 1.40256,3.40115 2.16013,5.0778c1.97326,4.36717 4.84001,9.02319 5.92627,13.78792l0.06796,0.10131l0.23043,-0.10603l0.66381,1.46986c0.28301,0.62665 0.00196,1.36954 -0.62772,1.65929c-0.57228,0.26333 -1.23557,0.06176 -1.5642,-0.44759l-0.89025,-1.3272c-2.8991,-4.03705 -6.01016,-7.92531 -8.76705,-12.07442c0.9613,3.15386 1.96236,6.30479 2.99335,9.47283c0.45048,0.98288 0.87485,1.97089 1.24184,2.97551c0.33099,0.73218 0.66185,1.46441 0.99256,2.1967l0.88508,1.95981c0.28301,0.62665 0.00196,1.36954 -0.62772,1.65929c-0.62968,0.28976 -1.36956,0.01664 -1.65256,-0.61001l-0.88508,-1.95981c-0.1121,-0.24823 -0.22419,-0.49647 -0.33627,-0.74472c-1.51704,-1.76553 -2.40093,-5.31623 -3.20404,-7.09453c-2.77047,-6.13463 -5.54095,-12.26925 -8.31142,-18.40389c-0.18965,-0.09626 -0.35528,-0.2417 -0.47586,-0.4286l-0.89858,-1.33961l0.03633,-0.02459l-0.08993,-0.06301c-0.16502,-0.36331 -0.33443,-0.72336 -0.50655,-1.08095c-0.52313,-0.62225 -0.88437,-1.5297 -1.26114,-2.36737c0.47924,1.14661 1.00656,2.2737 1.52457,3.40845c0.01046,0.02008 0.01564,0.03152 0.01564,0.03152l-0.00093,0.00069c0.07433,0.1629 0.14845,0.32596 0.2222,0.48926l-1.25078,0.27966l-1.0295,0.76961c-0.07359,-0.16297 -0.1473,-0.3263 -0.22104,-0.49l-0.00023,0.00004c0,0 -0.0017,-0.00376 -0.00469,-0.01099c-0.9564,-2.12333 -1.91928,-4.30863 -2.7413,-6.53927c-0.5132,0.47103 -1.18113,0.94871 -1.62702,0.757c0.09257,0.22934 0.16875,0.45721 0.18905,0.60568c0.11276,0.82451 0.34562,1.62723 0.48728,2.44696c0.46218,2.67472 0.93615,4.77807 0.75084,7.16476l0.2777,-0.00574l0.01528,1.54037c0.01444,0.46752 -0.23549,0.92686 -0.67959,1.1592c-0.37333,0.19531 -0.79794,0.18528 -1.14431,0.01026c0.14614,0.66414 0.23672,1.29265 0.27004,1.96111l0.23921,-0.03915l0.24712,1.61252c0.04136,0.23317 0.01431,0.47124 -0.07236,0.68681c2.18854,2.89726 4.20109,5.86815 4.94316,9.35964l0.05192,0.07987l0.29045,-0.1134l12.08457,21.16186c0.23351,0.58866 -11.5422,-18.42358 -12.11963,-18.12148c-0.5812,0.30407 13.10653,23.23545 12.76548,22.69638l-15.30391,-24.52597c-3.14211,-3.5436 -6.02381,-7.13275 -9.15907,-10.42243c2.05892,3.67759 3.67749,7.49567 5.02886,11.42714c0.31256,0.58245 0.62807,1.16255 0.9475,1.73954c1.94493,3.51324 4.63848,7.10141 6.37837,10.86652c0.29243,0.4579 0.58481,0.91549 0.87704,1.37281l0.03217,-0.02176l0.89691,1.33713c0.0429,0.06155 0.08078,0.12793 0.11281,0.19886c0.16531,0.36603 0.13816,0.77172 -0.03848,1.1036c0.53417,1.05311 0.999,2.12409 1.34788,3.21766c0.03319,0.05003 0.0664,0.10006 0.0996,0.15009l-0.01057,0.02035l0.01675,-0.01078l0.2413,0.37865l0.19943,-0.09177l0.66381,1.46986c0.28301,0.62665 0.00196,1.36954 -0.62772,1.65929c-0.58069,0.26721 -1.25508,0.05573 -1.57847,-0.47024l-1.00619,-1.57895c-1.25014,-1.88441 -2.49454,-3.77242 -3.75679,-5.64703c1.07624,2.56066 2.02373,5.18673 2.74748,7.93075l-0.00227,0.02122l0.00693,-0.00166l0.30185,1.31564c0.1438,0.57437 -0.14047,1.19122 -0.7009,1.4491c-0.48939,0.2252 -1.04536,0.11039 -1.40166,-0.24614l-1.02455,-0.97834l0.02494,-0.02609c-0.06162,-0.04826 -0.12147,-0.09905 -0.17931,-0.15267c-0.55576,-0.51532 -1.41225,-3.52899 -1.59282,-4.16218c-0.64688,-2.2683 -1.18479,-4.57457 -1.68543,-6.88569c-1.70239,-3.69402 -3.61599,-7.28346 -5.41252,-10.94881c-3.4752,-5.21761 -7.03244,-10.36837 -10.36639,-15.71228c-1.31516,-2.10805 -4.11629,-5.6375 -4.28527,-8.12858c-0.02282,-0.33641 -0.02992,-0.64855 -0.01982,-0.93643c-1.32424,-0.75358 -2.64242,-1.50687 -3.89695,-2.37483c-0.01738,-0.01203 -1.82234,-1.21443 -1.94168,-1.20899c-0.61222,0.02784 -0.33767,1.18415 -0.57226,1.75254c-0.21285,0.51571 -0.42858,1.18341 -0.69969,1.85337c-0.50208,1.24068 -1.19406,2.48914 -2.40927,2.79449c-0.47512,0.11938 -3.24558,-1.43994 -3.61298,-1.66953c-0.5182,-0.32385 -1.19346,-1.29511 -1.62379,-0.85247c-0.54497,0.56055 -0.72933,2.80636 -0.98491,3.50141c-0.69628,1.89345 -1.45155,2.95103 -2.97636,4.25146c-1.55185,1.46672 -2.59165,2.7893 -4.95329,2.22322c-0.64004,-0.15341 -1.24225,-1.63992 -1.63167,-1.10312c-0.39248,0.54102 -0.59,1.69017 -0.8418,2.91695c0.04999,0.11069 0.09999,0.2214 0.14998,0.33209l0.55317,1.22489c0.28301,0.62665 0.00196,1.36954 -0.62772,1.65929c-0.37097,0.17071 -0.7802,0.14604 -1.11171,-0.03118c-0.3417,0.5532 -0.78734,0.95567 -1.39181,1.09053c-0.7808,0.17419 -1.49473,-0.55831 -2.19456,-0.93474c-1.83291,-0.98597 -3.83041,-2.69459 -5.35762,-4.42982c0.46271,2.43129 0.7018,4.93007 0.5252,7.32126l0.48082,0.02109l-0.13135,2.4091c-0.01597,0.43787 -0.26187,0.8569 -0.67936,1.0753c-0.17784,0.09305 -0.36733,0.13949 -0.55447,0.14368c3.6804,9.13278 12.29016,16.44996 13.60121,26.43022l0.22279,-0.08353l0.47783,1.3071c0.22374,0.5854 -0.0261,1.26251 -0.59878,1.56212c-0.52941,0.27698 -1.16194,0.14097 -1.52824,-0.29288l-0.89916,-1.01853c-4.01149,-3.61427 -6.71895,-8.68512 -10.19414,-12.83933c-4.27732,-4.55459 -5.83565,-11.82993 -8.0793,-17.5302c-0.71053,-1.80519 -1.53426,-3.42785 -2.60022,-5.04731c-0.31968,-0.48568 -0.634,-0.9749 -0.95065,-1.46258c-0.07478,-0.11516 -0.1844,-0.26467 -0.29933,-0.42566c-0.07476,0.40505 -0.19702,0.83226 -0.26698,1.12538c-0.40072,0.75134 -0.40959,1.94471 -1.20215,2.25405c-1.63715,0.63898 -3.4557,-1.77828 -4.50269,-3.87915c0.23821,2.6959 0.94534,5.24703 2.09387,7.69056c0.0882,0.15628 0.16957,0.3138 0.22956,0.47517c0.05892,0.11872 0.11887,0.23721 0.17991,0.35541l0.00025,0.04598c0.00275,0.00583 0.0055,0.01166 0.00824,0.01749l0.0157,-0.00634l0.09433,0.23941c1.1221,2.37345 2.28498,4.73015 3.4094,7.09337c0.33834,0.59144 0.65702,1.19129 0.95107,1.79992c1.44979,0.93384 2.86496,2.431 3.82514,3.40438c3.30755,3.35299 7.4028,8.16222 9.82394,13.11911c0.49154,0.49247 0.97916,0.98884 1.46254,1.48936c2.75306,2.85072 5.74957,5.25557 7.3166,8.63477l0.43774,-0.20142l0.77444,1.71484c0.28301,0.62665 0.00196,1.36954 -0.62772,1.65929c-0.37776,0.17383 -0.79518,0.14507 -1.12982,-0.04105l-1.16829,-0.63319c-5.30853,-2.87831 -10.14231,-6.41322 -14.69218,-10.31058c3.7667,7.1664 7.78162,14.48449 13.01928,20.29403l0.02439,0.08941l0.02705,-0.01831l0.89691,1.33713c0.0429,0.06155 0.08078,0.12793 0.11281,0.19886c0.28301,0.62665 0.00196,1.36954 -0.62772,1.65929c-0.40203,0.18499 -0.84898,0.14055 -1.19326,-0.07886l-1.63203,-1.00663l0.01616,-0.02592c-0.05775,-0.02777 -0.11494,-0.05692 -0.17151,-0.08756c-0.66476,-0.3601 -1.90591,-2.39079 -2.38604,-3.07672c-1.43757,-2.05374 -2.88258,-4.07909 -4.24479,-6.18545c-5.23183,-8.08991 -10.62152,-16.20218 -16.215,-24.00846l0.29675,0.5759c0.31485,0.611 0.07204,1.36689 -0.54235,1.68832c-0.61438,0.32143 -1.36767,0.08669 -1.68251,-0.52432l-0.71944,-1.39616c-1.18292,-2.29561 -2.36682,-4.5907 -3.54706,-6.88771c-2.14032,-5.59387 -4.4121,-12.2686 -2.49399,-18.32093c0.88064,-2.77872 2.40318,-5.37859 3.98798,-7.82738c0,0 0.31959,-0.49329 0.85666,-0.58997c0.20009,-0.29989 0.40714,-0.60089 0.62128,-0.90345c0.03535,-0.59231 0.5617,-0.93225 0.67969,-1.00124l0.38664,-0.59675c0.11559,-0.18579 0.28093,-0.34427 0.48881,-0.45302c0.25327,-0.13251 0.53018,-0.1705 0.79023,-0.12656c2.52615,-2.08313 5.04365,-3.96783 8.15142,-5.13272c6.03756,-2.35742 12.28604,-4.17562 17.93705,-7.42352c0.89657,-0.5153 1.76366,-1.06581 2.60981,-1.64155c0.71979,-1.28689 1.52597,-2.53382 2.40599,-3.75909l0.95441,-1.32124c0.12489,-0.17973 0.29802,-0.32964 0.51107,-0.42769c0.12579,-0.05789 0.25599,-0.0933 0.38607,-0.10793c0.25945,-0.22499 0.55212,-0.30513 0.55212,-0.30513zM242.84535,157.20476c-0.6682,-0.65095 -1.53626,-1.15435 -1.88862,-2.00471c-0.03688,-0.08901 -0.06841,-0.17942 -0.09536,-0.27098l-0.05287,0.02434l-0.55317,-1.22489c-0.28301,-0.62665 -0.00196,-1.36954 0.62772,-1.65929c0.21036,-0.0968 0.43303,-0.13078 0.64684,-0.10974c-0.0019,-0.4831 0.1003,-0.92301 0.44246,-1.22304c0.00486,-0.00427 0.00976,-0.00848 0.01467,-0.01266c-1.5751,-1.99644 -3.87788,-4.2843 -4.46907,-6.34952c-0.01739,-0.06072 -0.03327,-0.12171 -0.04778,-0.18295l-0.02163,0.00687l-0.63405,-2.05729c-0.19337,-0.59639 0.09065,-1.26021 0.6776,-1.5303c0.24426,-0.11241 0.50511,-0.14009 0.74944,-0.09532c-0.75209,-1.55806 -1.32592,-3.24327 -1.69998,-4.93591l-0.21155,0.65857l-0.19763,-0.06159c-0.64597,7.13617 2.13328,13.87071 3.35697,20.70695c0.12287,-0.26003 0.33478,-0.48034 0.61648,-0.60996c0.52983,-0.24381 1.13769,-0.0891 1.48574,0.33942l1.24895,1.46737l-0.14243,0.12166c0.34685,0.26126 0.6887,0.5291 1.02626,0.80254c-0.3124,-0.59935 -0.61129,-1.20193 -0.879,-1.79957zM293.38113,89.22304c-0.43258,0.1342 -0.89005,0.02197 -1.20693,-0.26777l-0.60793,-0.53263c-0.27077,0.56665 -0.64155,1.07904 -1.19006,1.48918c-0.74423,0.55648 -1.57828,0.82274 -2.45877,0.87936c0.12535,0.52563 0.23951,1.04799 0.34182,1.56313l0.18541,-0.0764l0.47452,1.17732c0.45154,-0.23325 0.90804,-0.44882 1.36953,-0.64351c1.46414,-0.61766 2.99779,-1.05442 4.53446,-1.48006c-0.51008,-0.70069 -1.00022,-1.45968 -1.44204,-2.10865zM294.21812,86.18219c1.83598,1.16118 3.64857,2.36305 5.44705,3.62117c0.2112,-0.08561 0.42101,-0.17472 0.6292,-0.26787c0.02644,-0.28794 0.06668,-0.58426 0.09368,-0.8845c-0.89975,-0.73628 -1.71898,-1.45109 -2.22067,-1.82436c-0.22761,-0.16935 -0.45478,-0.33877 -0.68156,-0.50826c-1.18754,0.73204 -2.5448,-0.09955 -3.7542,-1.34929c0.0656,0.25988 0.14059,0.51274 0.23054,0.7539l-0.0145,0.14143l0.04088,-0.00606l0.00933,0.06775c0.07353,0.08534 0.14694,0.17071 0.22024,0.25609zM315.47571,105.9097c0.45515,-0.20944 0.96787,-0.12479 1.324,0.17487l0.93273,0.75162c-0.19059,-0.57221 -0.35399,-1.14497 -0.4863,-1.71728c-0.0697,-0.11083 -0.13939,-0.22168 -0.20908,-0.33257l-0.1451,0.06676l-0.2909,-0.64413c-0.54634,-0.4112 -1.08997,-0.81528 -1.63101,-1.2073c-0.3395,-0.246 -0.7257,-0.49817 -1.1141,-0.76568c0.51751,1.20028 1.07717,2.46488 1.50819,3.73179c0.03584,-0.02098 0.07306,-0.04039 0.11157,-0.05812zM257.34144,171.33518c-0.98695,-1.17659 -1.96382,-2.3585 -2.92876,-3.54822c-0.52266,0.0601 -0.95484,-0.28818 -0.95484,-0.28818l-0.74892,-0.62954c-0.57942,-0.31492 -1.13922,-0.66317 -1.68099,-1.03954c0.52511,0.50837 1.05351,1.01218 1.58861,1.50697c1.49805,1.38523 3.08107,2.72162 4.7249,3.99853zM324.05512,110.80074c0.0523,0.08203 0.10463,0.16408 0.157,0.24612c0.63785,0.99907 1.28143,1.94772 1.90607,2.87504c-0.53716,-1.32791 -1.08217,-2.65284 -1.63965,-3.97306c-0.26476,-0.16979 -0.52882,-0.34302 -0.79218,-0.51919c0.12796,0.45502 0.25165,0.91175 0.36875,1.37108zM329.39846,114.53595c-0.11533,-0.3987 -0.22829,-0.79968 -0.33959,-1.20248c-0.18509,-0.39737 -0.36896,-0.79435 -0.55023,-1.19169c-0.17733,0.01434 -0.35417,-0.0096 -0.51866,-0.06814c0.65308,1.67444 1.28996,3.35516 1.9276,5.03512c-0.16927,-0.93367 -0.30847,-1.8445 -0.51912,-2.57281zM304.04134,86.96513c-0.38998,-0.46586 -0.77856,-0.93277 -1.16573,-1.40078c0.04308,0.49699 0.07236,0.99247 0.08726,1.48536c0.26364,0.18603 0.52666,0.37329 0.78879,0.56235c0.04263,0.03074 0.08458,0.0623 0.126,0.09456c0.12187,-0.06635 0.2437,-0.13274 0.36551,-0.19909c-0.07229,-0.17977 -0.13974,-0.36289 -0.20184,-0.54244zM297.85239,127.10843c-0.42589,-1.03888 -0.84335,-2.08777 -1.256,-3.14784c-0.22685,-0.13335 -0.45598,-0.26475 -0.68751,-0.39417c0.20342,0.39401 0.38988,0.70063 0.42044,0.75993c0.48919,0.94959 0.99632,1.87133 1.52306,2.78208zM286.29114,94.71533l0.01084,-0.01046l-0.03579,-0.01621c-0.45719,-0.53607 -0.93519,-1.03078 -1.43232,-1.4896c0.46094,0.60462 0.90203,1.24279 1.3248,1.91679c0.10464,-0.07113 0.20961,-0.14162 0.31484,-0.21143zM263.82274,175.87396c-0.32899,-0.41193 -0.64897,-0.82575 -0.95829,-1.22139c-0.0422,0.16656 -0.1182,0.32413 -0.22389,0.46177c0.39235,0.25682 0.78651,0.51007 1.18217,0.75961zM236.03886,131.58033c-0.15897,0.30778 -0.30881,0.61808 -0.4472,0.93034c0.16556,-0.03326 0.33351,-0.03205 0.49412,0.0006c-0.02327,-0.31293 -0.03895,-0.6235 -0.04692,-0.93097zM251.23589,159.869c0.12971,0.11186 0.2593,0.22386 0.38875,0.33601c-0.40772,-0.50699 -0.82357,-1.0041 -1.24661,-1.48863c0.28352,0.38586 0.56954,0.77003 0.85785,1.15261zM311.79428,124.17061c-0.01267,-0.08713 -0.02359,-0.17457 -0.03337,-0.2614l-0.08951,0.21117c0.04123,0.01629 0.0822,0.03302 0.12287,0.05023zM254.30949,136.28937c-0.01029,-0.06452 -0.02037,-0.12918 -0.03022,-0.19395l-0.08048,0.04211c0.03725,0.05054 0.07414,0.10116 0.1107,0.15184zM239.85729,158.80591l0.12303,0.23875l-0.22773,-0.50427c0.00387,0.02822 0.00771,0.05645 0.01152,0.08467c0.03106,0.06029 0.06213,0.12054 0.0932,0.18085zM240.18784,159.38139l-0.02749,0.01264l0.03352,0.06506z" fill="#000000" stroke="none" stroke-width="0.5" stroke-linecap="butt" stroke-linejoin="miter"/><path d="M334.69572,55.363c0,0 -4.13046,7.08005 -9.76256,16.25254c-2.48331,4.04435 -3.29679,8.42977 -7.503,12.90589c-2.17293,2.31236 -0.86069,5.31561 -3.39491,7.77491c-2.49351,2.41978 -8.82787,4.29356 -11.65718,6.81937c-2.45175,2.18876 -8.66317,5.26339 -11.35735,7.50662c-3.64174,3.03218 -3.8646,5.25063 -7.92983,8.33207c-4.01975,3.04696 -5.87008,6.38991 -9.90645,9.18356c-2.45506,1.6992 -7.10671,2.93465 -9.53808,4.52926c-1.21163,0.79462 -4.37815,1.15411 -5.57967,1.92122c-3.60551,2.30195 -5.20005,4.8994 -8.66438,6.93528c-1.76332,1.03624 -4.63805,-0.20967 -6.80042,0.96453c-2.20853,1.19926 -3.7079,4.81902 -5.80211,5.91322c-4.54684,2.37567 -8.19227,4.20722 -8.19227,4.20722c0,0 -14.26749,4.51707 -17.89632,5.4539c-4.66485,1.20429 -7.77354,1.17307 -7.77354,1.17307c0,0 5.73607,-7.67582 12.97748,-18.47741c1.6198,-2.41616 0.24054,-6.002 1.56761,-8.75771c1.36005,-2.82424 5.43897,-4.82145 8.17288,-7.54443c2.60931,-2.59887 5.55315,-7.54394 9.70842,-11.18747c6.58082,-5.77037 14.3219,-10.05056 14.3219,-10.05056c0,0 3.64304,-2.85528 5.52908,-4.28489c2.25115,-1.70637 6.4871,-3.57083 9.17514,-5.41692c8.62511,-5.92359 15.69761,-12.87103 23.02491,-17.52223c6.61511,-4.19911 13.93642,-6.40816 13.93642,-6.40816c0,0 2.49162,2.38169 3.91303,1.68391c1.25097,-0.61412 4.1697,-5.65176 4.1697,-5.65176c0,0 4.89043,-3.79196 6.99366,-1.7317c2.02014,1.97886 5.58724,1.48288 9.03645,0.24807c0.8154,-0.29191 0.72228,2.57254 1.50249,2.22099c3.74228,-1.6862 7.7289,-6.99235 7.7289,-6.99235z" fill="url(#color-6)" stroke="#000000" stroke-width="0" stroke-linecap="butt" stroke-linejoin="miter"/><path d="M319.30069,182.49612c1.06449,2.35708 -1.0466,1.00581 -4.59121,0.35415c-0.70682,-0.12995 -1.6647,-0.83217 -2.58296,-1.21559c-0.56651,-0.23654 -1.11794,-0.35172 -1.58604,-0.13631c-0.72537,0.33378 -0.11535,2.30186 -0.47558,3.01382c-0.36691,0.72517 -1.70145,0.1962 -2.16019,0.7443c-2.21529,2.64674 -3.95846,4.51586 -4.95656,2.3058c-0.23311,-0.51617 -0.38465,-0.1563 -0.38965,-0.72771c-0.01261,-1.4417 -0.25204,-2.81114 0.96751,-4.48897c1.21608,-1.67305 3.88811,-3.65519 5.98447,-4.61983c2.63726,-1.21355 6.44018,-2.56736 8.11609,-1.35587c1.52178,1.10007 1.00419,4.6428 1.67411,6.12622z" fill="#060606" stroke="none" stroke-width="0" stroke-linecap="butt" stroke-linejoin="miter"/><path d="M308.77353,187.0344c-1.14015,0.52465 -1.65256,-0.61001 -1.65256,-0.61001l-0.25071,-0.55514c-0.52031,-1.15209 -1.03121,-2.30675 -1.53678,-3.4628c-0.43432,-0.03531 -0.83518,-0.29749 -1.02673,-0.72165l-0.58499,-1.29533c-0.17867,-0.39563 -0.36196,-0.79232 -0.54863,-1.1901c-0.31868,-0.39235 -0.49778,-0.90547 -0.7253,-1.52102c-1.20503,-2.49649 -2.48291,-5.03801 -3.54256,-7.63622c-0.72564,-1.50935 -1.44607,-3.02251 -2.13859,-4.55596l-0.75212,-1.66542c-0.28301,-0.62665 -0.00196,-1.36954 0.62772,-1.65929c0.0131,-0.00603 0.02624,-0.01181 0.03942,-0.01735c-0.0538,-0.42834 -0.09506,-0.85838 -0.12262,-1.29014c0,0 -0.07947,-1.24662 1.16799,-1.33946c1.24747,-0.09283 1.32694,1.15378 1.32694,1.15378c0.05002,0.78616 0.14971,1.56759 0.29103,2.34427c0.04692,0.02699 0.09307,0.05576 0.13837,0.08644c1.12242,0.76016 2.07598,4.41468 2.66606,5.72131c2.39935,5.31287 4.60014,10.68331 7.00106,15.99964l0.25071,0.55514c0,0 0.51243,1.13466 -0.62772,1.65929z" fill="#000000" stroke="none" stroke-width="0.5" stroke-linecap="butt" stroke-linejoin="miter"/><path d="M319.43821,180.55644l-1.17946,1.18986c-0.68646,-1.52001 -1.37291,-3.04004 -2.05938,-4.56005c-0.09773,-0.06134 -0.18734,-0.13668 -0.26549,-0.22482l-0.85378,-0.91818l0.34659,-0.32282c-2.25966,-2.29414 -3.01042,-5.63806 -4.14052,-8.91612l-0.81822,-1.81177c-0.28301,-0.62665 -0.00196,-1.36954 0.62772,-1.65929c0.59182,-0.27233 1.28096,-0.04746 1.59667,0.50083l0.12947,0.21804c0.67524,0.05733 0.98568,0.74473 0.98568,0.74473c0.81427,1.80303 1.56076,3.63048 2.31755,5.45244c1.40179,2.83181 2.51369,5.92735 3.66578,8.71016c0.37961,0.27346 0.50148,0.7354 0.50148,0.7354l-0.1345,0.13568c0.12606,0.29345 0.253,0.58253 0.38124,0.86649z" fill="#000000" stroke="none" stroke-width="0.5" stroke-linecap="butt" stroke-linejoin="miter"/><path d="M266.53263,140.2403c0.72607,1.00973 -0.29144,1.7467 -0.29144,1.7467l-0.33932,-0.204c-0.08872,0.5317 -0.19877,1.07591 -0.31248,1.62712c0.55472,-0.11058 1.1293,0.16672 1.3709,0.7017c0.03807,0.08429 0.06593,0.1707 0.08411,0.25781l0.45805,1.9965l-0.22405,0.05367c0.39226,0.98972 0.69532,1.9885 1.06571,3.26869l0.47534,1.54236c0.19337,0.59639 -0.09066,1.26021 -0.67761,1.5303c-0.02395,0.01102 -0.04803,0.02121 -0.07226,0.03061c0.36311,0.91392 0.70136,1.84679 1.04665,2.76817c1.29163,1.73363 2.56174,3.49578 3.44112,5.42107c1.33758,2.96177 2.8688,5.91306 3.63343,9.09752c0.05185,0.21594 0.09273,0.43069 0.12618,0.64443c1.19126,2.3858 2.35922,4.78556 3.44385,7.22601c0.119,0.64613 0.2471,1.31429 0.40777,1.97878c0.78156,1.00375 1.58414,2.00084 2.31552,3.0768c0.42943,0.63176 1.16604,1.62791 1.90456,2.73486c0.56844,0.34571 1.11803,0.70661 1.57453,1.17976c0.75912,0.78681 1.37902,2.32747 1.8413,3.35538l0.72371,1.13568c0.03581,0.05425 0.06779,0.11205 0.09543,0.17324c0.28301,0.62665 0.00196,1.36954 -0.62772,1.65929c-0.45515,0.20945 -0.96787,0.12479 -1.324,-0.17487l-1.39136,-1.12122l0.01254,-0.0155c-0.02649,-0.01388 -0.05289,-0.02797 -0.07919,-0.04226c-1.37068,-0.74518 -2.35013,-2.61072 -3.21249,-4.40612c-0.89336,-0.72668 -1.78374,-1.50817 -2.5289,-2.64398c-0.74768,-1.13966 -1.24569,-2.46063 -1.60287,-3.80701c-1.2779,-1.6668 -2.48541,-3.36463 -3.25989,-5.43518c-0.52006,-1.39036 -0.48044,-2.70907 -0.68991,-4.08436c-2.35366,-4.77525 -4.76369,-9.51487 -6.96384,-14.35083c-2.01502,-2.46681 -4.10064,-4.95437 -4.46372,-7.98914c-0.77019,-0.91686 -0.38307,-2.57051 0.18247,-3.77819c0.22238,-1.35578 0.54643,-2.70896 0.7613,-3.9968l1.35297,-1.42972c0,0 1.01751,-0.73698 1.74358,0.27275z" fill="#000000" stroke="none" stroke-width="0.5" stroke-linecap="butt" stroke-linejoin="miter"/><path d="M272.77074,134.22717c-0.02403,0.75051 -0.07707,3.5584 -0.25384,4.26044c-0.61164,2.429 -0.89584,4.1015 -3.7089,1.78226c-0.92543,-0.76297 -1.25324,-2.67358 -1.14805,-4.54548c-0.66077,-0.14156 -0.88277,-0.8619 -0.88277,-0.8619c-0.8056,-2.64647 -1.15542,-3.44849 1.37193,-4.9608l1.3016,-0.59894c0.62968,-0.28976 1.36957,-0.01663 1.65256,0.61001c0.12838,0.28428 0.14069,0.59247 0.05704,0.87143l-0.18291,0.6234c0.47261,-0.00045 0.92225,0.26857 1.12871,0.72573c0.02167,0.04798 0.04003,0.09665 0.05518,0.14573l0.56061,1.73376l-0.07494,0.02495z" fill="#000000" stroke="none" stroke-width="0.5" stroke-linecap="butt" stroke-linejoin="miter"/><path d="" fill="url(#color-7)" stroke="none" stroke-width="0.5" stroke-linecap="butt" stroke-linejoin="miter"/><path d="" fill="url(#color-8)" stroke="none" stroke-width="0.5" stroke-linecap="butt" stroke-linejoin="miter"/><path d="M244.46073,93.87979c-2.69883,2.86853 -5.45192,5.696 -7.70501,8.88962c0,0 -0.72541,1.02575 -1.7434,0.31125c-1.01798,-0.7145 -0.29257,-1.74026 -0.29257,-1.74026c3.75396,-5.29651 8.83275,-9.5987 12.81302,-14.73183l0.05724,-0.02934l-0.01672,-0.01575l1.12665,-1.19503c0.09441,-0.1049 0.20807,-0.19574 0.33919,-0.26675c0.60976,-0.33023 1.36648,-0.10642 1.69017,0.49988c0.19943,0.37355 0.18796,0.80515 0.00714,1.1587l-0.37203,0.75014c0.45757,-0.0152 0.90394,0.22234 1.13317,0.6517c0.18256,0.34195 0.18839,0.73254 0.04938,1.06737l-0.51435,1.26383l-0.12915,-0.0514l-0.01001,0.01867l-0.17314,-0.09156l-0.03932,-0.01565c-0.00194,0.00923 -0.00388,0.01845 -0.00584,0.02767l0.1972,0.11728c-0.12064,0.19226 -0.24212,0.38383 -0.36437,0.57475c-0.9681,3.57708 -3.4112,6.70132 -5.43719,9.9296c-3.29758,5.25446 -7.11735,10.92944 -9.4497,16.68236c-1.55911,3.98757 -2.94621,7.68227 -3.88183,11.86435l-0.0972,0.33078c0,0 -0.36627,1.19905 -1.5614,0.8456c-1.19512,-0.35346 -0.82887,-1.55252 -0.82887,-1.55252l0.04806,-0.14477c0.9642,-4.30985 2.39477,-8.14155 4.0006,-12.24841c1.23048,-3.01306 2.8429,-5.84593 4.57278,-8.62035c-1.24593,1.7101 -2.45109,3.45221 -3.58259,5.25331c-3.80545,5.36673 -7.18672,11.7493 -7.55911,18.45891c-0.12252,2.20753 0.78573,4.40517 1.23958,6.52821c0,0 0.26023,1.21981 -0.96239,1.49316c-1.2226,0.27333 -1.48285,-0.9465 -1.48285,-0.9465c-0.50503,-2.37256 -1.4141,-4.71517 -1.29072,-7.18288c0.35756,-7.15157 3.93896,-13.99377 7.98004,-19.72243c2.65982,-4.24021 5.73325,-8.14746 8.78451,-12.0808c1.18295,-2.01176 2.36094,-4.02451 3.46099,-6.08088z" fill="url(#color-9)" stroke="none" stroke-width="0.5" stroke-linecap="butt" stroke-linejoin="miter"/><path d="M267.83339,110.12406c-0.90515,-0.85238 -0.04308,-1.76678 -0.04308,-1.76678l0.11585,0.02367c2.46443,-6.62905 5.56669,-12.949 8.0216,-19.56148c-0.71218,1.57888 -1.43703,3.15109 -2.18795,4.70968c-2.09249,4.34313 -5.16902,8.18083 -7.31048,12.50306c0,0 -0.55777,1.12465 -1.67641,0.57886c-1.11867,-0.54578 -0.56089,-1.6704 -0.56089,-1.6704c2.13943,-4.30966 5.21829,-8.13875 7.29577,-12.47292c1.94125,-4.04992 3.72044,-8.18286 5.55477,-12.29052c1.01664,-2.59728 2.26034,-5.26447 3.05547,-7.90937l0.4358,-1.42665v0c0.09374,-0.30687 0.30416,-0.57923 0.60903,-0.74434c0.60976,-0.33023 1.36648,-0.10642 1.69017,0.49988c0.14559,0.27271 0.17878,0.57635 0.11574,0.85798l-0.52991,2.44116l-0.21503,-0.04449c-0.01303,0.03845 -0.0261,0.07689 -0.03925,0.11532c-0.4175,12.26187 -7.76328,24.01438 -11.91529,35.26076l-0.64866,0.83457c0,0 -0.86208,0.91439 -1.76724,0.06202z" fill="url(#color-10)" stroke="none" stroke-width="0.5" stroke-linecap="butt" stroke-linejoin="miter"/><path d="M264.12174,96.63318c0,0 -10.91923,-20.46533 -14.30406,-26.72941c-0.40263,-0.74512 -2.7485,0.36748 -4.12538,-0.46452c-3.26867,-1.97512 -6.75878,-5.79578 -6.75878,-5.79578c0,0 8.52166,2.81316 9.35978,1.98063c0.66585,-0.66143 0.26068,-2.36573 0.4432,-2.52178c0.16246,-0.1389 1.5971,0.39423 2.29083,-0.10569c1.23462,-0.8897 2.81043,-12.87314 2.81043,-12.87314c0,0 1.25552,6.22793 1.17389,10.9865c-0.04627,2.69781 -1.78195,4.54681 -1.29045,5.45641c3.38483,6.26404 13.60635,26.17133 13.60635,26.17133c0,0 5.32259,-0.27487 5.33616,0.54669c0.00659,0.39954 -2.60444,-0.9772 -3.07597,1.33736c-0.3056,1.5001 6.35296,-0.67206 6.59812,0.3791c0.1698,0.72801 -6.06241,4.94706 -6.11123,4.98879c-0.10955,0.09366 0.43081,-2.04755 0.11475,0.87899c-0.2493,2.30855 0.53473,6.6468 0.30032,6.49535c-0.15103,-0.09759 -0.46401,0.40152 -0.53655,-0.43935c-0.20929,-2.42597 -1.81606,-4.71878 -1.81606,-4.71878c0,0 -2.6674,0.17193 -3.84216,-0.79855c-0.5572,-0.46032 -7.90191,3.15075 -8.20639,2.53687c-0.60019,-1.2101 6.14218,-6.66121 6.02521,-6.82355c-0.68522,-0.95096 2.00797,-0.4875 2.00797,-0.4875z" fill="url(#color-11)" stroke="#000000" stroke-width="0" stroke-linecap="butt" stroke-linejoin="miter"/></g></g></svg>