<svg version="1.1" xmlns="http://www.w3.org/2000/svg" xmlns:xlink="http://www.w3.org/1999/xlink" width="220.19984" height="384.7532" viewBox="0,0,220.19984,384.7532"><g transform="translate(-209.90596,88.94336)"><g stroke="#000000" stroke-width="2.5" stroke-miterlimit="10"><path d="M265.91763,289.99064l-2.42697,-182.81189c0,0 7.55113,-31.89892 18.73089,-32.40193c11.10242,-0.49952 37.41833,-1.19046 60.4046,-2.22468c24.93131,-1.12173 32.69862,32.2421 32.69862,32.2421l0.27053,189.71299z" fill="#000000" stroke-linecap="butt"/><g fill="#ff6200" stroke-linecap="butt"><path d="M287.45601,-15.26257l31.89741,-70.69156l33.19055,70.69156z"/><path d="M352.54398,57.58423l-33.19055,70.69156l-31.89741,-70.69156z"/></g><g fill="#ff6200" stroke-linecap="butt"><path d="M356.70828,-11.06146l70.40821,32.51807l-70.98081,32.56737z"/><path d="M283.29172,53.38313l-70.39684,-33.81116l70.96944,-31.27428z"/></g><g fill="#ff6200" stroke-linecap="butt"><path d="M322.7467,-27.61039l72.54241,-27.42882l-26.52004,73.45472z"/><path d="M317.25663,69.924l-73.45676,26.51439l27.4344,-72.5403z"/></g><g fill="#ff6200" stroke-linecap="butt"><path d="M368.74282,24.33076l26.78958,72.7809l-73.21858,-27.16522z"/><path d="M271.26051,17.98286l-25.86715,-73.68718l72.29614,28.07149z"/></g><path d="M374.77725,19.47295c0,28.00291 -24.26594,53.64847 -54.51858,53.64847c-30.25264,0 -55.03592,-25.64557 -55.03592,-53.64847c0,-28.0029 24.52462,-50.70374 54.77726,-50.70374c30.25264,0 54.77725,22.70084 54.77725,50.70374z" fill="#ffdf00" stroke-linecap="butt"/><path d="M296.67547,13.38704c4.20427,1.27293 -3.59236,3.96591 -1.82464,0.12934c0.90897,-1.97277 5.14705,0.66127 2.10502,2.11905c-2.09903,1.00588 -4.32769,-1.75762 -2.20522,-3.1726" fill="none" stroke-linecap="round"/><path d="M343.98703,13.95338c4.176,1.06228 -1.83488,1.70163 -0.63158,-0.08287c0.50916,-0.75509 5.09213,-0.3619 3.75103,1.23714c-1.11926,1.33454 -9.90194,0.36366 -2.73092,-3.22185" fill="none" stroke-linecap="round"/><path d="M348.67194,45.16373c-4.63993,14.56162 -18.61546,15.9403 -31.79662,14.61465c-3.44554,-0.34652 -7.552,-0.67438 -10.68707,-2.04652c-5.49205,-2.40373 -14.89982,-4.86523 -14.89982,-12.37808" fill="none" stroke-linecap="round"/></g></g></svg>