<svg version="1.1" xmlns="http://www.w3.org/2000/svg" xmlns:xlink="http://www.w3.org/1999/xlink" width="205.60722" height="354.49277" viewBox="0,0,205.60722,354.49277"><defs><linearGradient x1="315.04541" y1="235.66394" x2="317.98501" y2="310.15059" gradientUnits="userSpaceOnUse" id="color-1"><stop offset="0" stop-color="#545454"/><stop offset="1" stop-color="#2f2f2f"/></linearGradient><linearGradient x1="318.68889" y1="201.63332" x2="321.62848" y2="276.11998" gradientUnits="userSpaceOnUse" id="color-2"><stop offset="0" stop-color="#545454"/><stop offset="1" stop-color="#2f2f2f"/></linearGradient><linearGradient x1="313.77679" y1="170.32395" x2="316.71639" y2="244.81061" gradientUnits="userSpaceOnUse" id="color-3"><stop offset="0" stop-color="#545454"/><stop offset="1" stop-color="#2f2f2f"/></linearGradient><linearGradient x1="313.90397" y1="173.69651" x2="321.12128" y2="356.57662" gradientUnits="userSpaceOnUse" id="color-4"><stop offset="0" stop-color="#4e2710"/><stop offset="1" stop-color="#3a1a09"/></linearGradient><linearGradient x1="315.25671" y1="173.67397" x2="316.29852" y2="200.07231" gradientUnits="userSpaceOnUse" id="color-5"><stop offset="0" stop-color="#e07130"/><stop offset="1" stop-color="#c2551f"/></linearGradient><linearGradient x1="289.30028" y1="204.81634" x2="290.39848" y2="232.64373" gradientUnits="userSpaceOnUse" id="color-6"><stop offset="0" stop-color="#4e2710"/><stop offset="1" stop-color="#3a1a09"/></linearGradient><linearGradient x1="366.36522" y1="149.08374" x2="357.19202" y2="200.96038" gradientUnits="userSpaceOnUse" id="color-7"><stop offset="0" stop-color="#e07130"/><stop offset="1" stop-color="#c2551f"/></linearGradient><linearGradient x1="364.85481" y1="130.44627" x2="366.93684" y2="183.20279" gradientUnits="userSpaceOnUse" id="color-8"><stop offset="0" stop-color="#e07130"/><stop offset="1" stop-color="#c2551f"/></linearGradient><linearGradient x1="260.36652" y1="152.92491" x2="273.59408" y2="203.78179" gradientUnits="userSpaceOnUse" id="color-9"><stop offset="0" stop-color="#e07130"/><stop offset="1" stop-color="#c2551f"/></linearGradient><linearGradient x1="261.99625" y1="131.07044" x2="264.07826" y2="183.82694" gradientUnits="userSpaceOnUse" id="color-10"><stop offset="0" stop-color="#e07130"/><stop offset="1" stop-color="#c2551f"/></linearGradient><linearGradient x1="308.48675" y1="75.03748" x2="312.78227" y2="183.88217" gradientUnits="userSpaceOnUse" id="color-11"><stop offset="0" stop-color="#e07130"/><stop offset="1" stop-color="#c2551f"/></linearGradient><linearGradient x1="313.63059" y1="6.8151" x2="307.57809" y2="94.44377" gradientUnits="userSpaceOnUse" id="color-12"><stop offset="0" stop-color="#a1a1a1"/><stop offset="1" stop-color="#767676"/></linearGradient></defs><g transform="translate(-214.3399,-1.65168)"><g stroke-miterlimit="10"><g stroke="#000000" stroke-width="2.5"><path d="M385.64023,297.54471l-69.28145,12.6799l-66.77952,-6.48603c0,0 27.89396,-66.36428 65.46615,-68.07467c37.5722,-1.71039 70.59481,61.8808 70.59481,61.8808z" fill="url(#color-1)" stroke-linecap="butt"/><path d="M259.73158,299.38753l54.69859,-20.09711l59.4219,12.38673" fill="none" stroke-linecap="round"/><path d="M288.23693,302.28205l27.96036,-10.9148l34.64901,5.96857" fill="none" stroke-linecap="round"/></g><g stroke="#000000" stroke-width="2.5"><path d="M389.2837,263.5141l-69.28145,12.6799l-66.77952,-6.48603c0,0 27.89396,-66.36428 65.46615,-68.07467c37.5722,-1.71039 70.59481,61.8808 70.59481,61.8808z" fill="url(#color-2)" stroke-linecap="butt"/><path d="M263.37507,265.35692l54.69859,-20.09711l59.4219,12.38673" fill="none" stroke-linecap="round"/><path d="M291.88041,268.25142l27.96036,-10.9148l34.64901,5.96858" fill="none" stroke-linecap="round"/></g><g stroke="#000000" stroke-width="2.5"><path d="M384.3716,232.20475l-69.28144,12.6799l-66.77953,-6.48603c0,0 27.89396,-66.36428 65.46616,-68.07467c37.5722,-1.71039 70.5948,61.8808 70.5948,61.8808z" fill="url(#color-3)" stroke-linecap="butt"/><path d="M258.46297,234.04755l54.6986,-20.0971l59.4219,12.38673" fill="none" stroke-linecap="round"/><path d="M286.96831,236.94208l27.96036,-10.91479l34.64901,5.96858" fill="none" stroke-linecap="round"/></g><path d="M276.31255,354.88877l-7.96505,-150.51725c0,0 5.25184,-26.56616 14.54655,-27.40443c9.23041,-0.83247 31.12516,-2.39942 50.23565,-4.12295c20.72757,-1.86936 28.28134,25.32287 28.28134,25.32287l6.39343,156.28446z" fill="url(#color-4)" stroke="#000000" stroke-width="2.5" stroke-linecap="butt"/><path d="M333.80233,186.05261c0.28769,7.28971 -7.54903,13.56654 -17.50382,14.01972c-9.95478,0.45317 -18.25794,-5.08894 -18.54562,-12.37865c-0.28769,-7.28971 7.54903,-13.56654 17.50382,-14.01972c9.95478,-0.45317 18.25794,5.08894 18.54562,12.37865z" fill="url(#color-5)" stroke="#000000" stroke-width="2.5" stroke-linecap="butt"/><path d="M302.8852,218.13661c0.30326,7.68432 -5.28724,14.17939 -12.48674,14.50714c-7.1995,0.32774 -13.28168,-5.63595 -13.58494,-13.32028c-0.30326,-7.68432 5.28724,-14.17939 12.48674,-14.50714c7.1995,-0.32774 13.28168,5.63595 13.58494,13.32028z" fill="url(#color-6)" stroke="#ffffff" stroke-width="2.5" stroke-linecap="butt"/><path d="M285.10235,216.4039l0.94412,-1.82911" fill="none" stroke="#ffffff" stroke-width="2.5" stroke-linecap="round"/><path d="M293.15171,214.35056l0.6198,1.65868" fill="none" stroke="#ffffff" stroke-width="2.5" stroke-linecap="round"/><path d="M282.38177,225.07234l1.9735,-3.18472l10.69811,0.48701l2.55335,3.19234" fill="none" stroke="#ffffff" stroke-width="2.5" stroke-linecap="round"/><path d="M332.9865,9.27938c0,0 -3.29018,1.68286 -12.66346,2.5742c-3.26808,0.31077 -13.6538,1.44396 -16.12196,1.53196c-3.98962,0.14225 -10.44803,-0.53477 -15.62847,-0.75791c-6.99099,-0.30113 -12.35811,-1.32401 -12.35811,-1.32401" fill="none" stroke="#000000" stroke-width="2.5" stroke-linecap="round"/><path d="M351.45332,146.04215c0,0 11.9098,11.37874 16.27882,20.16915c5.34285,10.74975 13.44863,39.64208 13.44863,39.64208c0,0 -15.20521,-20.90322 -23.0971,-25.68315c-6.95609,-4.21312 -21.80211,-1.51114 -21.80211,-1.51114z" fill="url(#color-7)" stroke="#000000" stroke-width="2.5" stroke-linecap="round"/><path d="M349.68998,131.1366c0,0 14.0118,8.16236 20.13197,15.65128c7.48431,9.15813 21.5105,35.30433 21.5105,35.30433c0,0 -19.24248,-16.62894 -27.94127,-19.35027c-7.6673,-2.39863 -21.54862,3.86785 -21.54862,3.86785z" fill="url(#color-8)" stroke="#000000" stroke-width="2.5" stroke-linecap="round"/><path d="M292.67249,179.6601c0,0 -15.00566,-1.34303 -21.60485,3.48715c-7.48698,5.48001 -20.99074,27.69014 -20.99074,27.69014c0,0 5.80033,-29.52538 10.27707,-40.72213c3.66077,-9.15595 14.63135,-21.57627 14.63135,-21.57627z" fill="url(#color-9)" stroke="#000000" stroke-width="2.5" stroke-linecap="round"/><path d="M287.77521,165.01285c0,0 -14.32525,-4.98245 -21.77606,-1.89559c-8.45318,3.50214 -26.31649,21.82023 -26.31649,21.82023c0,0 11.91588,-27.32716 18.65179,-37.13263c5.50818,-8.01826 18.82663,-17.42477 18.82663,-17.42477z" fill="url(#color-10)" stroke="#000000" stroke-width="2.5" stroke-linecap="round"/><path d="M343.04114,82.63258l8.36322,8.67222l-13.34927,59.88615l-56.2213,1.31063l-16.89506,-55.42322l8.11663,-10.95243" fill="none" stroke="#000000" stroke-width="2.5" stroke-linecap="round"/><path d="M362.7603,129.36599c-0.69846,29.2171 -24.45634,55.33715 -53.2781,54.54237c-28.82176,-0.79477 -51.79321,-28.20341 -51.09475,-57.4205c0.69846,-29.21709 24.62935,-52.25795 53.45111,-51.46316c28.82176,0.79477 51.62022,25.1242 50.92176,54.34129z" fill="url(#color-11)" stroke="#000000" stroke-width="2.5" stroke-linecap="butt"/><path d="M272.1484,91.05979l9.65173,-86.7807c0,0 6.79872,-1.53241 15.44234,-1.5787c5.43724,-0.02912 12.43941,-0.1284 16.52806,0.19734c4.05356,0.32296 11.39794,2.11704 16.75527,2.99818c8.69393,1.4299 14.93526,3.4552 14.93526,3.4552l-2.57821,86.50244c0,0 -4.72151,4.31501 -14.70851,6.8765c-5.46647,1.40205 -15.90606,2.00821 -20.12184,1.72252c-5.18736,-0.35155 -15.50003,-2.32904 -22.42897,-5.20823c-8.63831,-3.58951 -13.47514,-8.18454 -13.47514,-8.18454z" fill="url(#color-12)" stroke="#000000" stroke-width="2.5" stroke-linecap="butt"/><path d="M324.87204,124.40335c0.10932,2.77015 -6.13624,5.30415 -13.94985,5.65986c-7.81363,0.35569 -14.23643,-1.6016 -14.34576,-4.37176c-0.10932,-2.77015 6.13624,-5.30415 13.94985,-5.65986c7.81363,-0.35569 14.23643,1.6016 14.34576,4.37176z" fill-opacity="0.18431" fill="#000000" stroke="none" stroke-width="0" stroke-linecap="butt"/><path d="M329.08035,117.81308c4.38929,-1.88566 14.18559,-8.33419 16.2556,0.06102c1.39669,5.66451 -2.67021,14.06587 -9.16072,11.10038c-4.00441,-1.82961 -3.87633,-9.38636 0.68137,-10.15349c4.5902,-0.7726 3.90102,4.32452 -0.36431,4.32611" fill="none" stroke="#000000" stroke-width="2.5" stroke-linecap="round"/><path d="M280.99559,121.93488c2.05412,-5.51539 12.86715,-6.70698 13.95127,0.55546c1.11458,7.46648 -9.81562,13.79495 -14.76484,7.99607c-3.28876,-3.85338 3.57827,-9.00321 6.85687,-7.15198c3.19696,1.80514 -1.29263,3.89335 -2.83865,3.9334" fill="none" stroke="#000000" stroke-width="2.5" stroke-linecap="round"/><path d="M283.49217,165.39201c0.83262,-4.47126 9.20642,-4.10843 12.58952,-3.6423c2.73065,0.37623 5.4532,1.77107 8.28541,2.15796c8.21339,1.12197 16.55932,-1.02155 24.69882,0.02256c4.00254,0.51342 8.18283,-2.10391 12.28607,-1.20524c0.53137,0.11638 2.77334,2.30839 2.57881,2.83884c-0.15994,0.43616 -5.12356,0.07067 -5.71627,0.07067c-5.3363,0 -10.89238,-0.45554 -16.18769,0.17224c-5.01128,0.59412 -10.16165,0.31267 -15.22058,0.31267c-7.30922,0 -15.68712,1.03154 -22.80255,-0.71266z" fill="#ffffff" stroke="#000000" stroke-width="2.5" stroke-linecap="round"/><path d="M279.66112,135.26131c0.10236,2.69562 1.35175,4.7811 1.34671,7.78673c-0.00883,5.2643 -5.62482,11.45036 -9.96657,5.74896c-3.76932,-4.94973 4.34358,-14.19721 8.83891,-14.19721z" fill="#ffffff" stroke="#000000" stroke-width="2.5" stroke-linecap="round"/><path d="M301.47692,103.58395c-1.19826,6.16122 -16.37061,13.89073 -22.02541,13.69966c-3.12269,-0.10552 -7.73839,-0.75453 -9.06618,-4.3197" fill="none" stroke="#000000" stroke-width="2.5" stroke-linecap="round"/><path d="M239.13092,248.80373c2.07104,1.68278 2.49035,4.20981 4.38831,5.38443c0.34525,0.21368 5.7887,2.24437 6.77935,4.3167c2.55017,5.33472 1.03262,13.99563 -4.18503,15.27584c-1.72552,0.42338 -6.76137,-0.70589 -6.76137,-0.70589c0,0 -8.36277,-7.21808 -12.01533,-11.44691l-0.4487,-0.11592c2.68133,2.90971 9.46567,6.8746 9.46567,6.8746c0,0 3.25501,5.85385 2.56004,8.67695c-0.28457,1.15599 0.27744,1.78444 0.3295,2.85654c0.09696,1.99683 -3.55478,4.55233 -5.07983,4.82649c-8.13162,1.46188 -23.25415,-15.43822 -17.09569,-21.46976l0.54235,0.23172c0.09865,-2.23432 -1.88199,-2.87458 -2.02426,-4.65449c-0.48272,-6.03953 5.41456,-10.24316 7.19299,-14.82399c0.83395,-2.14802 0.31704,-4.97112 1.3402,-6.96594c5.45577,-10.63687 18.50396,-29.56012 33.68693,-21.11564c1.30995,0.72856 3.73225,2.99801 5.51012,5.88309c2.97286,4.82428 5.07179,11.14772 3.94774,13.24021c-0.64232,1.19573 -3.1223,5.60066 -6.41888,6.32543c-3.93729,0.86563 -8.77858,-2.06185 -9.47677,-2.05191c-2.32076,0.03306 11.32463,13.7378 11.20362,16.05339c-0.16142,3.08907 -7.89173,6.93872 -11.06006,3.27051" fill="#ce6026" stroke="#000000" stroke-width="2.5" stroke-linecap="round"/><path d="M381.64773,253.53792c-2.19752,4.33176 -10.62407,2.4881 -11.52048,-0.46812c-0.67195,-2.21599 9.29362,-18.84183 7.03265,-18.30661c-0.68022,0.16103 -4.67923,4.1834 -8.70892,4.30636c-3.37394,0.10295 -6.83633,-3.56261 -7.74623,-4.56517c-1.59231,-1.75445 -1.0688,-8.39977 0.66212,-13.80487c1.03514,-3.23242 2.84334,-6.02535 3.94061,-7.05209c12.71786,-11.90045 29.91656,3.26116 37.76019,12.24282c1.47098,1.6844 1.64515,4.54848 2.96913,6.42771c2.82344,4.0076 9.55524,6.64263 10.53278,12.61755c0.2881,1.76086 -1.48145,2.86592 -0.85066,5.00855l0.47103,-0.35728c7.42303,4.34381 -3.21142,24.42947 -11.45582,24.99948c-1.54619,0.1069 -5.7033,-1.4787 -6.08733,-3.43885c-0.20618,-1.05242 0.18894,-1.79924 -0.36413,-2.85072c-1.35068,-2.56788 0.40761,-9.04039 0.40761,-9.04039c0,0 5.63698,-5.50336 7.54332,-8.98054l-0.40785,0.2221c-2.53338,4.99378 -8.92372,14.03784 -8.92372,14.03784c0,0 -4.6185,2.32608 -6.39505,2.3373c-5.37195,0.0339 -8.91911,-7.99421 -7.72077,-13.79099c0.46551,-2.25183 5.26387,-5.55173 5.54788,-5.84333c1.5613,-1.60304 1.36328,-4.15615 2.97094,-6.2943" fill="#ce6026" stroke="#000000" stroke-width="2.5" stroke-linecap="round"/><path d="M239.57673,93.0258v-8.10486" fill="none" stroke="#ffffff" stroke-width="2.5" stroke-linecap="round"/><path d="M233.27295,128.14688l-8.10486,-3.60216" fill="none" stroke="#ffffff" stroke-width="2.5" stroke-linecap="round"/><path d="M401.67399,74.11446l-15.30919,6.30378" fill="none" stroke="#ffffff" stroke-width="2.5" stroke-linecap="round"/><path d="M380.96156,123.64418l5.40324,1.80108" fill="none" stroke="#ffffff" stroke-width="2.5" stroke-linecap="round"/></g></g></svg>