<svg version="1.1" xmlns="http://www.w3.org/2000/svg" xmlns:xlink="http://www.w3.org/1999/xlink" width="177.11923" height="353.29107" viewBox="0,0,177.11923,353.29107"><g transform="translate(-220.25886,-5.78751)"><g data-paper-data="{&quot;isPaintingLayer&quot;:true}" fill-rule="nonzero" stroke-width="2" stroke-linejoin="miter" stroke-miterlimit="10" stroke-dasharray="" stroke-dashoffset="0" style="mix-blend-mode: normal"><path d="M309.65849,234.67755c5.76409,-0.13237 13.78239,-1.54236 19.74207,-2.60187c6.49812,-1.15523 14.81099,0 21.25647,0c3.78619,0 15.22825,0.81588 15.22825,0.81588l1.20664,6.00049l12.91042,9.51428l-3.01958,22.19283c0,0 -2.50957,28.12586 -9.58982,42.24651c-3.09614,6.17489 3.80578,13.61581 -5.734,17.39061c-3.37814,1.33668 -12.69454,9.84286 -16.18051,9.84286c-5.0571,0 -10.11801,-6.02741 -16.07223,-7.357c-7.5814,-1.69295 -24.49105,1.74176 -24.49105,1.74176l-7.04695,-7.23499l5.35352,-20.2736c0,0 5.57887,-30.18988 10.0594,-49.66792c1.47229,-6.40037 -9.02939,-18.13012 -5.04234,-22.6088z" fill="#3c2c1f" stroke="#000000" stroke-linecap="round"/><path d="M348.10791,238.22637l-17.52322,93.39573" fill="none" stroke="#000000" stroke-linecap="round"/><path d="M331.16096,338.56979c-1.90073,10.55066 -4.16411,19.5088 -15.0501,19.5088c-10.886,0 -24.37158,-19.5088 -24.37158,-19.5088c0,0 12.26643,-19.10368 23.15242,-19.10368c10.886,0 18.16999,8.553 16.26926,19.10368z" fill="#000000" stroke="#000000" stroke-linecap="butt"/><path d="M370.62578,335.40045c-1.90073,10.55068 -6.59481,19.91391 -17.48081,19.91391c-10.88599,0 -23.84161,-9.36323 -21.94088,-19.91391c1.90073,-10.55068 12.26643,-19.10368 23.15242,-19.10368c10.886,0 18.17,8.553 16.26927,19.10368z" fill="#000000" stroke="#000000" stroke-linecap="butt"/><path d="M324.07843,226.52257c-7.49232,4.12372 -27.76663,0.64147 -27.76663,0.64147l-74.73537,-51.84774l24.2728,-43.17442l21.03651,-2.72825l0.71527,6.79852l-12.99663,10.47055l-6.56122,38.92448c0,0 28.72125,17.75448 44.46582,14.2957c8.13887,-1.78797 15.94575,-6.40032 24.65985,-4.88263c25.83552,4.49963 23.13517,27.63846 8.15294,31.69708z" fill="#feed00" stroke="#000000" stroke-linecap="round"/><g><path d="M343.29496,213.3639l13.75664,-12.65473l16.06556,23.09968l17.27547,6.82119l-2.52013,-1.82868l0.70489,5.20394l-3.23394,8.79259l-5.41314,-4.79861l-7.76209,5.24213l-5.71989,-12.7902c0,0 -5.18592,3.70971 -8.94588,-2.9232c-3.45811,-6.10048 -14.42796,-14.43798 -14.42796,-14.43798z" fill="#feed00" stroke="#000000" stroke-linecap="round"/><path d="M363.44381,219.25769l-2.4257,4.00876l-4.47789,-3.31697l-3.98064,-2.6867l3.94754,-7.01171l6.89106,-3.63392l0.04564,12.64053z" fill="#ffa600" stroke="none" stroke-linecap="butt"/><path d="M364.17374,225.55506c0,0 -1.71786,3.53706 -3.50259,2.6413c-1.78471,-0.89578 -22.96893,-3.97197 -22.81923,-6.32649c0.1497,-2.35452 1.71786,-3.53706 3.50258,-2.6413c1.78471,0.89578 22.81924,6.32648 22.81924,6.32648z" fill="#ffa600" stroke="none" stroke-linecap="butt"/><path d="M377.06647,239.12356l-3.45859,2.60472l-2.92368,-5.80806l3.45859,-2.60473l2.92368,5.80806z" fill="#ffa600" stroke="none" stroke-linecap="butt"/><path d="M386.71363,236.86808l-2.88945,2.83172l-2.36176,-5.46737l2.88945,-2.83172z" fill="#ffa600" stroke="none" stroke-linecap="butt"/><path d="M372.15711,223.83719l17.83206,3.47142l-21.38673,-5.25555l2.02672,-3.03011z" fill="#ffa600" stroke="none" stroke-linecap="butt"/></g><g><path d="M279.26875,223.23911c3.37034,-0.66156 29.90459,6.80091 27.47537,13.37915c-2.64125,7.15239 -7.09087,3.13592 -8.35747,4.3274c-0.24391,0.22943 12.80239,1.65123 10.17717,4.24149c-4.85172,4.78714 -8.50577,-3.92196 -8.50577,-3.92196l-4.56857,5.60863l-4.60935,-8.15609l-13.90333,4.05412l1.85886,2.61622l-7.62937,-6.28498l-3.13414,-25.34825c0,0 7.88595,6.6444 11.0232,9.79009z" fill="#feed00" stroke="#000000" stroke-linecap="round"/><path d="M262.76127,220.60889l7.38683,2.47522l20.29131,6.24386l-3.49534,3.29338l-3.88446,3.99559l-3.04033,-3.56518l-17.25799,-12.44288z" fill="#ffa600" stroke="none" stroke-linecap="butt"/><path d="M301.81483,229.46132c1.61692,-1.17183 3.35524,-0.2576 3.88264,2.04198c0.52739,2.29958 -0.35585,5.11369 -1.97278,6.28551c-1.61692,1.17183 -3.35526,0.25762 -3.88265,-2.04196c-0.52739,-2.29958 0.35585,-5.11369 1.97279,-6.28552z" fill="#ffa600" stroke="none" stroke-linecap="butt"/><path d="M295.3059,245.41829c0,0 13.0217,-9.96467 13.54206,-7.69577c0.52036,2.2689 -0.3522,5.0463 -1.94892,6.20347c-1.59672,1.15716 -3.83332,-2.01297 -3.83332,-2.01297z" fill="#ffa600" stroke="none" stroke-linecap="butt"/><path d="M280.87052,244.76955l17.06814,-6.97486l-1.44931,5.77665l-3.30824,-2.32877z" fill="#ffa600" stroke="none" stroke-linecap="butt"/><path d="M272.89008,233.97868l2.48878,2.66367l-0.7317,4.99761l-2.48878,-2.66367z" fill="#ffa600" stroke="none" stroke-linecap="butt"/></g><path d="M283.8264,202.97016c-1.13956,6.46183 11.2652,25.16515 11.2652,25.16515l-45.00134,-4.3898l7.25729,-22.19154l14.06857,-56.1328c0,0 5.46239,-8.93843 6.96542,-13.80536l1.17513,-0.05054c13.20595,1.5539 25.37737,6.44918 39.0568,3.77402c5.47471,-1.07063 9.37634,-3.33562 13.08518,-7.49817c0.84798,-0.95171 3.33678,-3.27524 4.85914,-2.4366c3.42636,1.88753 8.04671,13.2845 8.04671,13.2845l18.88095,44.08709l6.01658,15.72623l-17.60309,17.68577l-5.32669,3.35314l-1.1609,-23.73944l-0.88425,24.9614l21.50199,14.42037c0,0 -10.05735,4.56493 -12.90949,5.11469c-11.53714,2.22379 -23.7286,0.95107 -35.2535,3.21178c-3.74597,0.73479 0.67695,-4.97464 -2.83553,-6.51692c-1.87204,-0.822 -15.14073,2.93035 -15.28205,1.18897c-0.62214,-7.66638 -22.38157,-16.81521 -21.48857,-24.45092" fill="#fffe8a" stroke="#000000" stroke-linecap="round"/><path d="M284.88609,122.7641c13.81169,-3.59998 27.22001,-7.24329 41.63938,-7.28045c3.07508,-0.00792 13.83557,0.26271 13.40694,5.03619c-0.58257,6.48763 -6.58255,10.31907 -12.27723,12.18513c-10.26615,3.36407 -34.91968,6.19006 -44.78704,1.46679c-7.02258,-3.36153 -5.87786,-10.98563 2.14404,-11.63662z" fill="#fffe8a" stroke="#000000" stroke-linecap="round"/><g stroke-linecap="butt"><path d="M280.94452,53.45248l-11.23576,35.67571l1.08305,13.66839l-0.49764,-2.16898l-7.75343,-16.04473l2.45312,-53.60588l2.30187,-18.85673l1.97129,-0.11839l11.10185,17.38147l1.31945,23.74343z" fill="#feed00" stroke="#000000"/><path d="M276.30418,55.81029l-6.05503,25.27926l2.61193,9.10305l-4.36679,-0.0865l-3.03186,-11.31603l3.53404,-38.55522l-1.67249,-11.65304l1.2701,-0.29107l10.28583,9.22155l-2.10603,17.99855z" fill="#ffa700" stroke="none"/></g><g stroke-linecap="butt"><path d="M326.47811,40.47393l6.47901,-14.21538c0,0 10.22302,-12.72801 13.50262,-18.1547c0.63824,-1.05611 0.80348,-2.16239 1.72567,-0.35627c1.43909,2.81848 -1.62427,16.2896 -1.62427,16.2896l-6.483,47.88775l0.49077,15.31631l0.03938,1.91853c0,0 -5.20499,-10.54239 -5.73009,-11.8014c-4.77803,-11.45627 -7.68829,-36.78519 -7.68829,-36.78519z" fill="#feed00" stroke="#000000"/><path d="M331.23142,41.32287l4.76589,-8.64769l6.87858,-10.04146l1.15825,-0.05092l1.07503,10.0766l-8.80221,35.12214c0,0 -0.17468,6.73967 -0.17013,10.1099c0.00057,0.4234 0.17867,1.11956 -0.03599,1.26406c-0.51704,0.348 -3.11716,-7.47504 -3.4253,-8.35749c-2.80384,-8.02987 -10.6831,-19.62572 -10.6831,-19.62572z" fill="#ffa700" stroke="none"/></g><path d="M305.64571,39.35258l21.23737,14.45072c0,0 7.23126,12.97916 9.91376,21.26711c0.82387,2.54546 3.4186,7.16958 3.4186,7.16958c0,0 0.37721,38.22842 -20.64359,42.21621c-17.60586,3.33996 -50.21522,-13.1852 -50.21522,-13.1852l-5.31907,-30.86205l0.55236,-11.87145l41.43032,-28.94052z" fill="#feed00" stroke="#000000" stroke-linecap="butt"/><path d="M337.05864,86.85881c4.30563,0.0417 15.92079,8.5734 15.92079,8.5734l-7.26681,4.1782l1.58589,2.34141l1.73202,8.29192c0,0 -10.74861,4.22798 -13.95983,1.54389" fill="#feed00" stroke="#000000" stroke-linecap="round"/><path d="M277.09513,119.31408l-14.02611,0.72722l0.37238,-8.46268l1.18761,-2.56649l-7.84543,-2.95183l10.19681,-11.69449" fill="#feed00" stroke="#000000" stroke-linecap="round"/><path d="M224.14254,77.86276l41.84608,13.05647" fill="none" stroke="#000000" stroke-linecap="round"/><path d="M266.43854,92.1172l-32.37564,-1.78653" fill="none" stroke="#000000" stroke-linecap="round"/><path d="M265.59097,92.53867l-26.35959,5.31067" fill="none" stroke="#000000" stroke-linecap="round"/><path d="M368.67993,63.48333l-28.81354,21.03139" fill="none" stroke="#000000" stroke-linecap="round"/><path d="M337.30951,85.60399c10.29304,-8.69126 33.06637,-6.41607 33.06637,-6.41607" fill="none" stroke="#000000" stroke-linecap="round"/><path d="M340.9272,86.72121l27.40185,2.12608" fill="none" stroke="#000000" stroke-linecap="round"/><path d="M301.82919,117.22243c3.70782,-0.30089 7.59225,-0.85812 11.31051,-0.69783c0.47192,0.02035 1.25731,-0.24512 1.40226,0.20447c0.18986,0.58892 -6.14919,4.8902 -6.91859,4.89538c-1.73017,0.01166 -4.59529,-3.14445 -5.3775,-4.43582z" fill="#000000" stroke="#000000" stroke-linecap="round"/><path d="M290.63952,83.51957c0.28862,17.21067 1.65488,30.95384 -1.84778,32.32937c-3.50266,1.37552 -10.83646,-27.34818 -10.83646,-27.34818c0,0 2.31687,-32.27774 5.81952,-33.65326c3.50266,-1.37552 6.5761,11.46141 6.86472,28.67208z" fill="#ffffff" stroke="#000000" stroke-linecap="butt"/><path d="M288.93559,78.80205c0.20616,12.29333 2.36485,30.35782 -0.07783,31.31706c-2.44268,0.95924 -8.56174,-15.54995 -8.7679,-27.84331c-0.20616,-12.29333 1.60691,-23.03669 4.04958,-23.99593c2.44268,-0.95924 4.58999,8.22882 4.79615,20.52218z" fill="#000000" stroke="#000000" stroke-linecap="butt"/><path d="M326.06315,84.27677c0.29483,17.27122 1.60502,31.06736 -1.97303,32.44773c-3.57805,1.38036 -10.68939,-10.17783 -10.98423,-27.44902c-0.29483,-17.27122 2.36674,-32.39128 5.94479,-33.77165c3.57805,-1.38036 6.71764,11.50175 7.01247,28.77294z" fill="#ffffff" stroke="#000000" stroke-linecap="butt"/><path d="M323.96724,78.81949c0.21059,12.33658 2.7514,31.13662 0.25614,32.09924c-2.49526,0.96262 -9.08168,-16.27666 -9.29228,-28.61326c-0.21059,-12.33658 1.64149,-23.11772 4.13675,-24.08034c2.49526,-0.96262 4.68879,8.25777 4.89938,20.59437z" fill="#000000" stroke="#000000" stroke-linecap="butt"/><path d="M278.74301,56.39831l17.13222,-16.45745l3.56546,-2.07018l-4.90541,-1.83317l13.55006,-3.13622l4.23699,-0.34838l-6.08237,-3.03958l5.53986,0.84692l12.07794,9.6759" fill="#feed00" stroke="#000000" stroke-linecap="butt"/><path d="M266.58738,74.2014l-4.57727,-4.56318l-5.97069,-2.60629l7.08399,-4.04382l7.54291,-3.81499" fill="#feed00" stroke="#000000" stroke-linecap="butt"/><path d="M296.54003,172.81955c1.2776,0.41201 4.6832,-0.12125 5.28731,1.37265c2.02616,5.01034 -1.59087,9.94476 -6.50605,9.30918c-3.27298,-0.42322 1.54692,-11.41797 1.54692,-11.41797c0,0 -1.59958,-23.69505 -0.0255,-35.36297" fill="#ffaf36" stroke="#000000" stroke-linecap="round"/><path d="M323.23956,171.25933c8.69193,-11.44331 9.77158,17.24157 -0.58899,9.99381c-5.6095,-3.92413 0.58359,-8.46893 0.8831,-11.01972c1.41373,-12.04022 -4.59432,-24.32775 -1.98547,-36.63046" fill="#ffaf36" stroke="#000000" stroke-linecap="round"/><path d="M287.13002,205.32572c3.3009,-3.11052 7.74088,-2.94473 11.88069,-3.94752c13.3523,-3.23438 28.52954,-3.56561 42.19371,-2.47307" fill="none" stroke="#000000" stroke-linecap="round"/><path d="M361.24046,231.14542c-0.82468,-8.86104 -17.8198,-28.37895 -17.8198,-28.37895" fill="none" stroke="#000000" stroke-linecap="round"/><path d="M287.97309,209.52606c0.6888,8.48781 17.2269,18.53211 17.71325,27.01817" fill="none" stroke="#000000" stroke-linecap="round"/><path d="M289.28235,132.25932c-2.68682,-0.70309 -4.66826,-3.12462 -7.18071,-4.36767" fill="none" stroke="#fcec41" stroke-linecap="round"/><path d="M331.77299,126.47097c1.53645,-1.21287 2.98565,-2.19129 4.74117,-3.06431" fill="none" stroke="#fcec41" stroke-linecap="round"/><path d="M305.41263,150.7073l-0.77524,-9.55301" fill="none" stroke="#fcec41" stroke-linecap="round"/><path d="M308.79418,149.02569l-0.39708,-4.89301" fill="none" stroke="#fcec41" stroke-linecap="round"/><path d="M311.8732,143.61603l1.00153,3.67128" fill="none" stroke="#fcec41" stroke-linecap="round"/><path d="M286.63627,227.20462l-5.44691,-39.87902l11.14403,38.91448z" fill="#fce541" stroke="#fcec41" stroke-linecap="round"/><path d="M286.63627,227.20462l-5.44691,-39.87902l11.14403,38.91448z" fill="#fce541" stroke="#fcec41" stroke-linecap="round"/><path d="M349.23312,215.53995l-5.20642,-30.55158l15.0065,24.01812z" fill="#fce541" stroke="#fcec41" stroke-linecap="round"/></g></g></svg>