<svg version="1.1" xmlns="http://www.w3.org/2000/svg" xmlns:xlink="http://www.w3.org/1999/xlink" width="219.991" height="324.57771" viewBox="0,0,219.991,324.57771"><g transform="translate(-213.73839,-31.96562)"><g data-paper-data="{&quot;isPaintingLayer&quot;:true}" fill-rule="nonzero" stroke-linejoin="miter" stroke-miterlimit="10" stroke-dasharray="" stroke-dashoffset="0" style="mix-blend-mode: normal"><path d="M299.86163,248.94282c-7.66201,3.79915 -19.70587,1.58969 -27.76863,-0.54797c-24.38814,-6.46594 -53.90669,-24.758 -57.12949,-52.68543c-2.17973,-18.88861 11.8377,-32.5289 26.09908,-42.09557c5.41052,-3.62944 16.95195,-9.90171 21.13403,-1.82506c1.11292,2.14933 1.39223,4.53292 0.42353,6.82291c-2.09273,4.94719 -9.51368,6.56603 -13.43301,9.90449c-11.84281,10.08758 -16.71547,24.81721 -8.22178,38.60786c8.99315,14.60159 27.93475,18.96792 43.81296,16.18642c8.20796,-1.43786 16.20516,-5.71172 24.84629,-3.82233c25.61917,5.60166 6.61314,26.28905 -8.52911,29.70248z" fill="#feed00" stroke="#000000" stroke-width="2" stroke-linecap="round"/><path d="M292.35361,244.58428c5.73192,-0.32761 13.44637,-1.78156 19.17778,-2.87161c6.24922,-1.18853 14.80022,-0.56484 21.24101,-0.81064c3.78344,-0.14439 12.33852,-1.34148 15.38961,0.08363c1.975,0.92249 1.95338,3.52284 2.47404,4.84022c1.93474,4.89538 1.18712,10.36314 3.12851,15.35592c2.29333,5.89789 0.57313,12.09085 1.67332,18.18691c2.05667,11.39584 3.43697,22.99876 -0.65357,34.7673c-1.78876,5.14632 6.68087,10.9423 -2.05413,14.37995c-3.09316,1.2173 -10.60491,8.49922 -14.08834,8.63217c-5.05342,0.19286 -11.38462,-4.52229 -17.61552,-5.37791c-7.93371,-1.08945 -18.16446,3.66422 -24.1051,2.35232c-2.97361,-0.65669 -6.96592,-3.75399 -8.57102,-5.62275c-2.01204,-2.34257 0.99083,-13.45582 1.06457,-16.71308c0.36269,-16.01798 -0.80616,-24.79655 -0.44578,-40.8285c0.11842,-5.26801 -1.07136,-22.51986 1.96617,-26.31893z" fill="#3c2c1f" stroke="#000000" stroke-width="2" stroke-linecap="round"/><g stroke-width="2"><path d="M350.46618,217.29706c2.74117,-3.49623 6.04752,-9.98296 9.78163,-11.03069c7.07924,-1.98633 20.47884,9.32237 19.56602,22.74292c-0.14952,2.19833 -0.80277,7.02214 -2.8541,6.26342c-0.44803,-0.16572 -2.06626,-2.46999 -2.43952,-1.9349c-0.12259,0.17573 0.5222,4.55239 0.48144,5.22934c-0.21746,3.61019 -1.32515,7.46184 -3.60744,8.64606c-2.23823,1.16137 -4.21833,-5.37984 -5.20272,-5.02597c-1.47827,0.5314 -2.59318,9.08161 -7.97942,4.90498c-2.91444,-2.25993 -4.89757,-12.82455 -5.16702,-13.02337c-1.3992,-1.03252 -5.34,3.48427 -8.81252,-3.30355c-3.19375,-6.24294 2.60004,-14.00766 6.02512,-13.75131z" fill="#feed00" stroke="#000000" stroke-linecap="round"/><path d="M370.34421,224.04814c-0.39735,1.95854 -1.36345,3.28858 -2.59511,3.90123c-1.36329,0.67814 -2.72884,-2.3056 -4.33176,-3.50565c-1.67286,-1.2524 -3.22812,-0.55023 -3.86196,-2.85467c-0.52218,-1.89855 -0.63827,-3.94888 -0.2601,-5.81283c0.83718,-4.12639 3.98924,-5.61977 7.04033,-3.33554c3.05108,2.28423 4.84579,7.48106 4.0086,11.60745z" fill="#ffa600" stroke="none" stroke-linecap="butt"/><path d="M350.98217,229.07982c-0.25038,2.34595 -1.86773,3.46027 -3.61247,2.48892c-1.74472,-0.97137 -2.95613,-3.66059 -2.70576,-6.00653c0.25038,-2.34595 1.86773,-3.46027 3.61246,-2.48892c1.74472,0.97137 2.95615,3.66059 2.70577,6.00653z" fill="#ffa600" stroke="none" stroke-linecap="butt"/><path d="M363.28213,243.1879c-0.24704,2.31466 -1.84402,3.41348 -3.56694,2.45425c-1.72292,-0.95921 -2.91937,-3.61324 -2.67232,-5.92791c0.24704,-2.31466 1.84402,-3.41348 3.56694,-2.45426c1.72292,0.95921 2.91937,3.61324 2.67232,5.92791z" fill="#ffa600" stroke="none" stroke-linecap="butt"/><path d="M373.01701,241.34754c-0.24371,2.2834 -1.59045,3.49465 -3.00804,2.70541c-1.41759,-0.78923 -2.36921,-3.28009 -2.12551,-5.56348c0.24371,-2.2834 1.59045,-3.49465 3.00804,-2.70541c1.41759,0.78923 2.36921,3.28007 2.12551,5.56348z" fill="#ffa600" stroke="none" stroke-linecap="butt"/><path d="M378.85345,228.99652c-0.23034,2.15827 -1.19499,3.4748 -2.1546,2.94056c-0.9596,-0.53426 -1.55077,-2.71696 -1.32042,-4.87524c0.23034,-2.15827 1.19499,-3.4748 2.1546,-2.94056c0.9596,0.53426 1.55077,2.71696 1.32042,4.87524z" fill="#ffa600" stroke="none" stroke-linecap="butt"/></g><g stroke-width="2"><path d="M286.07587,224.4219c3.39558,-0.51665 9.76431,6.78389 7.05567,13.25208c-2.94506,7.03274 -7.21864,2.82944 -8.53509,3.9656c-0.25351,0.21878 -1.42568,10.90382 -4.15939,13.37931c-5.05223,4.57502 -6.81559,-3.86535 -8.33005,-4.28255c-1.0085,-0.27781 -2.48426,6.39529 -4.80452,5.40788c-2.3659,-1.00683 -3.76393,-4.76285 -4.25591,-8.34597c-0.09225,-0.67188 0.21708,-5.08495 0.08146,-5.25083c-0.41295,-0.50508 -1.85084,1.91582 -2.28496,2.11521c-1.98754,0.91287 -3.00655,-3.84713 -3.32318,-6.02767c-1.93303,-13.31194 10.56567,-25.60901 17.77571,-24.16802c3.80311,0.7601 7.59423,6.97595 10.59392,10.25308z" fill="#feed00" stroke="#000000" stroke-linecap="round"/><path d="M269.69614,221.08732c2.86811,-2.51014 6.12483,-1.26136 7.27408,2.78922c0.51914,1.82971 0.55966,3.88292 0.18369,5.81575c-0.45634,2.34604 -2.06061,1.76444 -3.63315,3.14071c-1.5068,1.31873 -2.64096,4.39787 -4.05197,3.82561c-1.27477,-0.517 -2.33943,-1.76952 -2.8849,-3.69209c-1.14925,-4.05059 0.24415,-9.36907 3.11225,-11.87921z" fill="#ffa600" stroke="none" stroke-linecap="butt"/><path d="M288.51319,230.31257c1.66561,-1.10152 3.36319,-0.1137 3.79165,2.20635c0.42845,2.32005 -0.57447,5.09376 -2.24008,6.19529c-1.66561,1.10152 -3.36321,0.11372 -3.79166,-2.20633c-0.42845,-2.32005 0.57447,-5.09376 2.24009,-6.19529z" fill="#ffa600" stroke="none" stroke-linecap="butt"/><path d="M277.29693,245.39803c1.6448,-1.08774 3.32088,-0.11385 3.74362,2.17525c0.42274,2.2891 -0.56794,5.0266 -2.21274,6.11433c-1.6448,1.08774 -3.32088,0.11385 -3.74362,-2.17525c-0.42274,-2.2891 0.56794,-5.0266 2.21274,-6.11433z" fill="#ffa600" stroke="none" stroke-linecap="butt"/><path d="M266.93266,244.71001c1.35331,-0.89498 2.78846,0.21011 3.2055,2.46828c0.41703,2.25818 -0.342,4.81431 -1.69531,5.7093c-1.35331,0.89498 -2.78846,-0.21011 -3.2055,-2.46828c-0.41703,-2.25818 0.342,-4.81431 1.69531,-5.7093z" fill="#ffa600" stroke="none" stroke-linecap="butt"/><path d="M259.42155,233.58736c0.91609,-0.60585 1.97828,0.63334 2.37245,2.76779c0.39419,2.13444 -0.02891,4.35587 -0.94501,4.9617c-0.91609,0.60585 -1.97828,-0.63334 -2.37245,-2.76779c-0.39419,-2.13444 0.02891,-4.35585 0.94501,-4.9617z" fill="#ffa600" stroke="none" stroke-linecap="butt"/></g><path d="M286.99294,205.39011c-1.41519,6.40711 -1.32716,17.98035 -5.14005,23.30979c-3.0409,4.25038 -22.24639,-1.28351 -24.95045,-5.02137c-0.94055,-1.30013 3.09564,-18.37417 3.69656,-20.83703c4.6102,-18.89467 10.50631,-36.90629 16.45903,-55.47897c1.63423,-5.09887 5.84008,-8.69636 7.55011,-13.49447l1.17622,-0.00018c13.12731,2.11789 25.07797,7.52982 38.8594,5.4428c5.51553,-0.83525 9.51056,-2.93111 13.39422,-6.93105c0.88795,-0.91453 3.47395,-3.12937 4.959,-2.22632c3.3424,2.0325 5.6125,10.23014 7.47055,13.61685c7.66275,13.96699 13.08841,29.39401 16.97603,44.85506c1.13814,4.52636 6.29052,11.35058 5.33774,15.96942c-1.11584,5.40933 -9.84958,12.31024 -13.83996,15.89243c-1.1105,0.9969 -3.96085,4.98296 -5.46537,3.122c-2.09604,-2.59261 -4.64764,-22.74394 -4.64764,-22.74394c0,0 1.34966,15.97918 2.55204,23.87721c0.58973,3.87366 2.76238,10.20634 1.04318,14.0366c-1.30949,2.91746 -10.24357,4.13014 -13.11664,4.55728c-11.62177,1.72778 -23.74756,-0.06575 -35.35868,1.69944c-3.774,0.57373 -13.25631,3.76487 -16.69953,2.07361c-1.83513,-0.9014 -1.10669,-6.42656 -1.17332,-8.17239c-0.29333,-7.68598 -1.81942,-16.4669 -0.60031,-24.05738" fill="#fffe8a" stroke="#000000" stroke-width="2" stroke-linecap="round"/><path d="M291.48572,125.30298c13.95316,-3.00532 27.50518,-6.0712 41.91291,-5.49096c3.07259,0.12375 13.81164,0.85485 13.17901,5.6056c-0.85981,6.45674 -7.01833,10.02777 -12.78769,11.6483c-10.40077,2.92143 -35.15269,4.68927 -44.80877,-0.45214c-6.87221,-3.65912 -5.40211,-11.22722 2.6403,-11.53415z" fill="#fffe8a" stroke="#000000" stroke-width="2" stroke-linecap="round"/><g stroke-width="2" stroke-linecap="round"><path d="M293.65363,53.74305c-12.21223,5.53157 -12.9727,18.61559 -16.022,29.97251c-0.33511,1.2481 -3.01171,12.23643 -4.30814,12.11353c-0.53826,-0.05102 -0.41927,-0.99804 -0.58796,-1.51171c-1.34279,-4.08872 -3.06628,-8.06442 -4.43921,-12.15886c-3.4264,-10.21817 -5.85289,-20.79985 -8.17405,-31.33548c-0.66656,-3.02542 -2.77096,-9.90934 -1.64013,-12.83858c0.72464,-1.87707 1.33508,-1.10178 2.61173,-0.6081c6.55995,2.53671 12.98625,5.36329 19.42024,8.1962c4.72488,2.08037 10.47912,3.95474 14.13408,7.72821z" fill="#feed00" stroke="#000000"/><path d="M287.43825,56.74904c-7.74372,4.36838 -7.48077,13.05605 -8.83083,20.73667c-0.14837,0.84409 -1.27377,8.2594 -2.13737,8.25407c-0.35856,-0.00222 -0.33533,-0.63476 -0.47682,-0.96423c-1.12619,-2.62241 -2.49724,-5.14792 -3.64369,-7.77236c-2.86111,-6.54959 -5.08295,-13.39783 -7.23252,-20.22176c-0.61728,-1.95956 -2.41008,-6.38393 -1.8344,-8.38509c0.36889,-1.28237 0.8175,-0.80591 1.68971,-0.55446c4.48181,1.29203 8.89228,2.78336 13.30819,4.27841c3.24289,1.09792 7.15371,1.99951 9.78885,4.27845z" fill="#ffa700" stroke="none"/></g><g stroke-width="2" stroke-linecap="round"><path d="M328.47775,53.19433c3.12293,-4.22437 8.57817,-6.84442 12.98585,-9.53233c6.00205,-3.66019 11.9973,-7.31309 18.16343,-10.69638c1.19999,-0.65843 1.70237,-1.50776 2.66928,0.2568c1.50888,2.75363 0.33485,9.85566 0.07492,12.94271c-0.90517,10.75024 -1.90863,21.56008 -3.95132,32.14208c-0.81852,4.24022 -2.00018,8.40921 -2.78954,12.63975c-0.09916,0.5315 0.14421,1.45439 -0.38255,1.57626c-1.26873,0.29353 -5.37725,-10.24343 -5.87474,-11.43614c-4.52676,-10.85294 -7.01367,-23.72095 -19.85098,-27.58613z" fill="#feed00" stroke="#000000"/><path d="M335.40893,55.39353c2.31005,-2.6079 6.06698,-4.01959 9.13587,-5.53739c4.17897,-2.06681 8.35304,-4.12922 12.62421,-6.00351c0.83122,-0.36478 1.21277,-0.89642 1.74828,0.32577c0.83568,1.90727 -0.35527,6.53012 -0.70755,8.55419c-1.22675,7.04855 -2.5219,14.13074 -4.49023,21.00159c-0.78872,2.75318 -1.81315,5.43802 -2.58206,8.18651c-0.0966,0.3453 0.01019,0.9692 -0.3449,1.0189c-0.85529,0.1197 -2.95299,-7.08124 -3.21187,-7.89822c-2.35553,-7.43412 -3.24567,-16.08003 -11.4998,-19.3842z" fill="#ffa700" stroke="none"/></g><path d="M309.70691,50.98828c10.43081,-0.39808 22.8829,-1.87805 30.7147,6.06261c6.77472,6.86888 6.66892,13.27687 8.99411,21.67207c0.71413,2.5784 2.68255,4.42998 3.10849,7.30937c2.58246,17.45798 -5.28471,39.36216 -26.45697,42.44628c-17.73272,2.58309 -38.92441,-0.26477 -49.60464,-15.3231c-6.66899,-9.40278 -2.74329,-22.65466 0.03199,-32.21414c1.07533,-3.70402 -0.21354,-7.93632 1.06014,-11.83691c4.98616,-15.27001 18.06818,-17.30458 32.51591,-17.85597z" fill="#feed00" stroke="#000000" stroke-width="2" stroke-linecap="round"/><path d="M349.17254,90.51175c4.2999,0.22601 15.67877,4.21527 11.51431,10.39985c-1.08354,1.60915 -7.11664,2.64831 -7.43904,3.86324c-0.24179,0.91111 1.13023,1.5335 1.48419,2.40716c0.94713,2.33777 1.6366,5.83751 1.37541,8.35848c-0.71855,6.93567 -10.91977,3.7639 -14.01313,0.94478" fill="#feed00" stroke="#000000" stroke-width="2" stroke-linecap="round"/><path d="M283.84964,121.52254c-2.86949,3.04669 -12.79929,6.98672 -14.04438,0.12601c-0.45257,-2.49372 -0.03183,-6.03584 0.73437,-8.43898c0.28635,-0.89811 1.60693,-1.62325 1.29641,-2.51329c-0.41406,-1.18683 -6.50881,-1.76313 -7.71185,-3.28503c-4.62371,-5.8492 6.41801,-10.69411 10.68817,-11.24718" fill="#feed00" stroke="#000000" stroke-width="2" stroke-linecap="round"/><path d="M236.74516,76.68938c14.31595,-0.3314 25.38193,9.80871 37.22388,15.98882" fill="none" stroke="#000000" stroke-width="2" stroke-linecap="round"/><path d="M242.0978,90.72325c10.71194,-1.71329 21.80969,1.26206 32.26946,3.17108" fill="none" stroke="#000000" stroke-width="2" stroke-linecap="round"/><path d="M246.93963,98.45634c8.62091,-1.95601 17.71782,-3.83964 26.5628,-4.1772" fill="none" stroke="#000000" stroke-width="2" stroke-linecap="round"/><path d="M352.07809,88.29004c8.05527,-8.69451 17.05691,-19.27982 29.68759,-19.77843" fill="none" stroke="#000000" stroke-width="2" stroke-linecap="round"/><path d="M349.47691,89.26882c10.65572,-8.24259 20.94268,-8.25014 33.31075,-4.99443" fill="none" stroke="#000000" stroke-width="2" stroke-linecap="round"/><path d="M353.04346,90.53991c8.4641,-3.76616 19.42152,-0.7273 27.2857,3.29735" fill="none" stroke="#000000" stroke-width="2" stroke-linecap="round"/><path d="M308.22709,100.88759c3.7173,-0.14186 7.62203,-0.53226 11.33001,-0.21292c0.47062,0.04054 1.26665,-0.19106 1.39222,0.26432c0.16447,0.59651 -6.35293,4.62243 -7.12185,4.59466c-1.72908,-0.06242 -4.45644,-3.33832 -5.18265,-4.66199z" fill="#000000" stroke="#000000" stroke-width="2" stroke-linecap="round"/><path d="M308.47886,82.20488c0.26993,7.07298 -5.15816,13.02229 -12.12398,13.28813c-6.96582,0.26584 -12.83154,-5.25244 -13.10148,-12.32542c-0.26993,-7.07298 5.15815,-13.02228 12.12396,-13.28812c6.96582,-0.26584 12.83156,5.25243 13.1015,12.32541z" fill="#ffffff" stroke="#000000" stroke-width="2" stroke-linecap="butt"/><path d="M343.50544,80.4453c0.26993,7.07298 -5.15815,13.02228 -12.12396,13.28812c-6.96582,0.26584 -12.83154,-5.25243 -13.10148,-12.32541c-0.26993,-7.07298 5.15815,-13.02228 12.12396,-13.28812c6.96582,-0.26584 12.83154,5.25243 13.10148,12.32541z" fill="#ffffff" stroke="#000000" stroke-width="2" stroke-linecap="butt"/><path d="M304.50419,82.35657c0.19281,5.05213 -3.58893,9.29798 -8.44674,9.48338c-4.85781,0.18539 -8.95216,-3.75987 -9.14497,-8.81201c-0.19281,-5.05213 3.58893,-9.29798 8.44674,-9.48338c4.85781,-0.18539 8.95216,3.75987 9.14497,8.81201z" fill="#ffffff" stroke="#000000" stroke-width="2" stroke-linecap="butt"/><path d="M339.67151,80.59161c0.19281,5.05213 -3.58893,9.29798 -8.44674,9.48338c-4.85781,0.18539 -8.95216,-3.75987 -9.14497,-8.81201c-0.19281,-5.05213 3.58893,-9.29798 8.44674,-9.48338c4.85781,-0.18539 8.95216,3.75987 9.14497,8.81201z" fill="#ffffff" stroke="#000000" stroke-width="2" stroke-linecap="butt"/><path d="M292.21457,57.58237c0.45935,-3.71682 4.12726,-5.01992 7.70562,-6.42468c0.39632,-0.15558 3.75394,-1.42276 3.65083,-1.91562c-0.18759,-0.89662 -5.4369,-0.04356 -4.82242,-2.04152c0.8253,-2.68347 11.40359,-2.4664 13.67192,-2.55319c0.3267,-0.0125 4.19926,-0.01883 4.24802,-0.16666c0.20898,-0.63344 -6.3585,-2.45163 -5.94665,-3.29722c0.2251,-0.46218 5.01898,0.92161 5.49851,1.08334c6.28238,2.11882 7.85887,5.86501 11.65258,10.18415" fill="#feed00" stroke="#000000" stroke-width="2" stroke-linecap="round"/><path d="M279.30785,74.84868c-2.41399,-1.07101 -2.50685,-3.13674 -4.3777,-4.75497c-0.95518,-0.8262 -5.8837,-1.24282 -5.85362,-2.85953c0.03957,-2.12647 5.9561,-3.17336 7.25064,-3.73681c0.91136,-0.39667 -0.78336,-8.59469 7.69933,-3.48854" fill="#feed00" stroke="#000000" stroke-width="2" stroke-linecap="round"/><path d="M300.98582,175.81151c1.25879,0.46633 4.68409,0.07937 5.22369,1.59777c1.80979,5.0925 -2.0152,9.86753 -6.89866,9.02208c-3.25186,-0.56297 2.03437,-11.34126 2.03437,-11.34126c0,0 -0.5836,-23.7418 1.48862,-35.33163" fill="#ffaf36" stroke="#000000" stroke-width="2" stroke-linecap="round"/><path d="M327.72769,175.39587c9.17391,-11.06067 9.02441,17.64414 -1.01634,9.95942c-5.43634,-4.1607 0.94565,-8.43618 1.3541,-10.9718c1.92794,-11.96865 -3.5485,-24.50215 -0.41529,-36.68188" fill="#ffaf36" stroke="#000000" stroke-width="2" stroke-linecap="round"/><path d="M290.19267,207.88496c3.43105,-2.96634 7.85986,-2.6106 12.03881,-3.43522c13.47853,-2.65973 28.65605,-2.34083 42.2609,-0.66426" fill="none" stroke="#000000" stroke-width="2" stroke-linecap="round"/><path d="M347.81222,234.53948c-0.44454,-8.88822 -2.41545,-17.83822 -1.27095,-26.80129" fill="none" stroke="#000000" stroke-width="2" stroke-linecap="round"/><path d="M290.85513,212.11754c0.32476,8.50952 1.10019,16.93808 1.22275,25.43719" fill="none" stroke="#000000" stroke-width="2" stroke-linecap="round"/><path d="M295.47141,134.9777c-2.65426,-0.81748 -4.5302,-3.32163 -6.98712,-4.67112" fill="none" stroke="#fcec41" stroke-width="2" stroke-linecap="round"/><path d="M338.17092,131.01393c1.58697,-1.14597 3.07673,-2.06144 4.86802,-2.85851" fill="none" stroke="#fcec41" stroke-width="2" stroke-linecap="round"/><path d="M310.43153,144.52197l0.36551,9.57744" fill="none" stroke="#fcec41" stroke-width="2" stroke-linecap="round"/><path d="M314.06028,147.65858l0.18721,4.90553" fill="none" stroke="#fcec41" stroke-width="2" stroke-linecap="round"/><path d="M318.39873,151.00206l-0.84342,-3.71079" fill="none" stroke="#fcec41" stroke-width="2" stroke-linecap="round"/><path d="M273.44517,227.40806l11.58297,-37.76105l-5.84979,37.04133z" fill="#fce541" stroke="#fcec41" stroke-width="2" stroke-linecap="round"/><path d="M273.44517,227.40806l11.58297,-37.76105l-5.84979,37.04133z" fill="#fce541" stroke="#fcec41" stroke-width="2" stroke-linecap="round"/><path d="M356.30573,219.72538l-8.39779,-29.72304l13.96439,24.6386z" fill="#fce541" stroke="#fcec41" stroke-width="2" stroke-linecap="round"/><path d="M321.97144,330.82948l-2.22976,-76.72096" fill="none" stroke="#000000" stroke-width="2" stroke-linecap="round"/><path d="M324.70076,339.10415c0.33065,8.66395 -8.21973,16.02404 -19.0978,16.43919c-10.87808,0.41515 -19.96455,-6.27182 -20.2952,-14.93579c-0.33065,-8.66395 8.21973,-16.02404 19.0978,-16.43919c10.87808,-0.41515 19.96455,6.27182 20.2952,14.93579z" fill="#000000" stroke="#000000" stroke-width="2" stroke-linecap="butt"/><path d="M362.78199,332.3792c0.33065,8.66396 -8.21973,16.02404 -19.09781,16.43919c-10.87807,0.41515 -19.96455,-6.27182 -20.2952,-14.93579c-0.33065,-8.66396 8.21973,-16.02404 19.0978,-16.43919c10.87808,-0.41515 19.96456,6.27182 20.29521,14.93579z" fill="#000000" stroke="#000000" stroke-width="2" stroke-linecap="butt"/><path d="M311.30378,126.57684l-0.58745,-15.39282l7.58737,-0.28956l0.58745,15.39282z" fill="none" stroke="#000000" stroke-width="2" stroke-linecap="butt"/><path d="M402.79562,125.65483c-0.3029,-5.1545 -0.8764,-10.27945 -1.34927,-15.48081c0,0 -0.24897,-2.73871 2.48973,-2.98768c2.73871,-0.24897 2.98768,2.48973 2.98768,2.48973c0.16563,1.82198 0.32361,3.64467 0.49688,5.46594c0.9845,10.34856 5.57465,28.17935 -8.44287,31.51978c-6.74284,1.60684 -14.64122,-3.24395 -12.12228,-11.04361c1.68613,-5.22096 7.30955,-7.327 11.85545,-8.97528l2.95281,-0.8868c0,0 0.50117,-0.15035 1.13187,-0.10128zM402.9985,131.09777l-2.57187,0.77069c-2.90597,1.01857 -7.01454,2.19682 -8.34074,5.45057c-2.18346,5.35696 7.10025,4.31694 9.12891,2.56647c2.2789,-1.9664 1.71591,-3.12121 1.76965,-5.513c0.02461,-1.09516 0.02815,-2.18641 0.01405,-3.27473z" fill="#ffa600" stroke="#000000" stroke-width="1" stroke-linecap="butt"/><path d="M418.53745,131.42866c-1.12854,1.13147 -1.90743,2.48383 -1.23733,4.39277c0.24184,0.68893 3.45652,5.08646 5.33376,4.10126c1.16634,-0.61211 2.29139,-1.41061 3.10027,-2.4502c0.84383,-1.08451 1.27437,-2.44643 1.72084,-3.746c1.2423,-3.61608 -7.7801,-2.29831 -8.84409,-2.29784zM421.59332,125.85474c3.95943,-0.11024 8.39679,0.01282 10.64602,3.74792c3.44584,5.72222 -2.81682,13.59871 -7.84184,15.5296c-4.86213,1.86831 -11.2102,-3.26044 -12.37947,-7.77804c-1.20928,-4.67221 -0.00561,-6.77885 2.12425,-8.98798c0.15883,-1.93616 1.79247,-2.33444 2.45784,-2.41636c0.21191,-0.21215 0.42661,-0.43111 0.64328,-0.65835c0,0 1.94454,-1.94454 3.88909,0c0.18832,0.18832 0.34017,0.37665 0.46084,0.56321z" fill="#ffa600" stroke="#000000" stroke-width="1" stroke-linecap="butt"/></g></g></svg>