<svg version="1.1" xmlns="http://www.w3.org/2000/svg" xmlns:xlink="http://www.w3.org/1999/xlink" width="187.31709" height="375.24313" viewBox="0,0,187.31709,375.24313"><defs><radialGradient cx="324.96833" cy="199.21587" r="33.16925" gradientUnits="userSpaceOnUse" id="color-1"><stop offset="0" stop-color="#ee2828"/><stop offset="1" stop-color="#500000"/></radialGradient><radialGradient cx="327.88185" cy="183.71867" r="28.48101" gradientUnits="userSpaceOnUse" id="color-2"><stop offset="0" stop-color="#ee2828"/><stop offset="1" stop-color="#500000"/></radialGradient><linearGradient x1="300.01031" y1="22.51786" x2="356.632" y2="-2.37438" gradientUnits="userSpaceOnUse" id="color-3"><stop offset="0" stop-color="#000000"/><stop offset="1" stop-color="#d31b1b"/></linearGradient><linearGradient x1="210.92757" y1="78.22734" x2="270.89962" y2="51.86221" gradientUnits="userSpaceOnUse" id="color-4"><stop offset="0" stop-color="#d31b1b"/><stop offset="1" stop-color="#16031b"/></linearGradient><linearGradient x1="285.20346" y1="37.64839" x2="335.75036" y2="131.29822" gradientUnits="userSpaceOnUse" id="color-5"><stop offset="0" stop-color="#190307"/><stop offset="1" stop-color="#ee2828"/></linearGradient><linearGradient x1="285.86426" y1="30.16295" x2="306.56461" y2="77.24951" gradientUnits="userSpaceOnUse" id="color-6"><stop offset="0" stop-color="#d31b1b"/><stop offset="1" stop-color="#670000"/></linearGradient><radialGradient cx="282.29314" cy="87.32046" r="10.02727" gradientUnits="userSpaceOnUse" id="color-7"><stop offset="0" stop-color="#ffffff" stop-opacity="0.61176"/><stop offset="1" stop-color="#ffffff" stop-opacity="0"/></radialGradient><radialGradient cx="332.07751" cy="63.65113" r="10.02727" gradientUnits="userSpaceOnUse" id="color-8"><stop offset="0" stop-color="#ffffff" stop-opacity="0.61176"/><stop offset="1" stop-color="#ffffff" stop-opacity="0"/></radialGradient><radialGradient cx="331.3803" cy="63.03855" r="5.70896" gradientUnits="userSpaceOnUse" id="color-9"><stop offset="0" stop-color="#ffffff" stop-opacity="0.61176"/><stop offset="1" stop-color="#ffffff" stop-opacity="0"/></radialGradient><radialGradient cx="282.82199" cy="87.79425" r="5.70896" gradientUnits="userSpaceOnUse" id="color-10"><stop offset="0" stop-color="#ffffff" stop-opacity="0.61176"/><stop offset="1" stop-color="#ffffff" stop-opacity="0"/></radialGradient></defs><g transform="translate(-193.99461,38.13182)"><g stroke-miterlimit="10"><path d="M274.83189,332.28227l1.7135,-72.38551l-4.60145,-12.23335l5.25373,-15.3215l-9.19644,-21.93969l9.82321,-4.53798l-17.2955,-33.6036l18.02341,2.85337l-18.18316,-25.43998l18.6778,4.54437l-9.26532,-25.59905c0,0 13.11235,12.13262 14.70581,8.1341c2.84811,-7.14684 6.60506,-13.81527 10.75619,-14.02031c8.96875,-0.443 30.21065,-1.01279 48.77943,-1.92999c20.14002,-0.99481 26.3777,19.79317 26.3777,19.79317l8.68729,-13.31712c0,0 -9.07221,23.69591 -9.23252,28.01847c-0.11644,3.13968 11.45613,-11.31981 11.45613,-11.31981c0,0 -12.15259,30.09909 -12.30699,34.26226c-0.14966,4.03546 12.0453,0.72112 12.0453,0.72112c0,0 -13.0206,25.5769 -13.24949,31.74815c-0.1779,4.79686 8.01839,4.09184 8.01839,4.09184c0,0 -8.87965,19.13077 -9.03482,23.31479c-0.16009,4.31666 3.55535,9.3442 3.55535,9.3442c0,0 -4.34599,11.97462 -4.49788,16.07013c-1.41823,38.24059 -2.7289,73.58096 -2.7289,73.58096z" fill="#000000" stroke="#000000" stroke-width="0" stroke-linecap="butt"/><path d="M343.19893,135.34367c-0.45828,7.73738 -8.10467,13.7133 -17.07869,13.34763c-8.97402,-0.36567 -15.87739,-6.93445 -15.41911,-14.67183c0.45828,-7.73738 8.10466,-13.7133 17.07868,-13.34763c8.97402,0.36567 15.8774,6.93448 15.41912,14.67183z" fill="#ee2828" stroke="#000000" stroke-width="0" stroke-linecap="butt"/><path d="M348.00871,230.39276l-50.30313,-22.77628l-2.98291,30.54242l36.29469,-45.93665l24.19668,-31.94941" fill="none" stroke="url(#color-1)" stroke-width="2.5" stroke-linecap="round"/><path d="M355.6766,196.06631l-55.58948,-24.69525" fill="none" stroke="url(#color-2)" stroke-width="2.5" stroke-linecap="round"/><path d="M347.55128,139.6331l-52.0672,-0.30127" fill="none" stroke="#000000" stroke-width="0" stroke-linecap="round"/><path d="M343.59993,33.37816c3.87629,7.37392 -18.5125,28.98092 -50.00673,48.26061c-31.49424,19.27967 -60.16771,28.93119 -64.04401,21.55727c-3.87628,-7.37391 18.51249,-28.98091 50.00674,-48.26059c31.49424,-19.27967 60.16771,-28.93121 64.04401,-21.55728z" fill="#580b0b" stroke="#000000" stroke-width="0" stroke-linecap="butt"/><path d="M301.85632,28.14907l29.91394,-21.22287l4.28632,-45.05802l17.82222,30.92695l5.58787,41.32436l-12.77996,9.9104l-7.82781,-10.48247l-17.38887,-7.47422z" fill="url(#color-3)" stroke="#000000" stroke-width="0" stroke-linecap="round"/><path d="M257.14414,65.16685l-2.86142,18.70958l4.75113,12.18948l-15.1724,5.59828l-32.10493,-26.61204l-17.76191,-33.90965l41.45258,22.63021l33.83884,-14.14875z" fill="url(#color-4)" stroke="#000000" stroke-width="0" stroke-linecap="round"/><path d="M357.38118,56.91146c12.58856,25.62951 3.88539,61.88959 -23.26857,75.22691c-27.15396,13.33732 -60.92761,0.79145 -73.51616,-24.83804c-12.58855,-25.6295 -2.3294,-59.30847 24.82456,-72.64579c27.15396,-13.33732 59.37165,-3.37256 71.9602,22.25693z" fill="url(#color-5)" stroke="#000000" stroke-width="0" stroke-linecap="butt"/><path d="M321.10416,69.23805c1.19424,2.43138 -3.80868,7.33523 -11.17434,10.95305c-7.36566,3.61783 -14.30482,4.57964 -15.49904,2.14824c-1.19424,-2.43138 3.80869,-7.33523 11.17435,-10.95305c7.36566,-3.61783 14.30482,-4.57964 15.49906,-2.14824z" fill-opacity="0.23137" fill="#000000" stroke="none" stroke-width="0" stroke-linecap="butt"/><path d="M286.2852,84.93791c0.98528,2.00595 -0.00081,4.50876 -2.20247,5.59014c-2.20166,1.0814 -4.78518,0.33189 -5.77046,-1.67404c-0.98528,-2.00596 0.00081,-4.50876 2.20247,-5.59014c2.20166,-1.0814 4.78517,-0.33189 5.77046,1.67405z" fill="#ffffff" stroke="#000000" stroke-width="2.5" stroke-linecap="butt"/><path d="M334.7533,59.35565c0.98528,2.00596 -0.00082,4.50875 -2.20247,5.59014c-2.20166,1.0814 -4.78517,0.33189 -5.77045,-1.67405c-0.98528,-2.00595 0.00081,-4.50874 2.20247,-5.59013c2.20166,-1.0814 4.78518,-0.3319 5.77046,1.67404z" fill="#ffffff" stroke="#000000" stroke-width="2.5" stroke-linecap="butt"/><path d="M343.84755,27.03366c1.66777,3.68558 5.7779,13.15098 5.7779,13.15098l-46.78102,28.54952l-46.8349,27.96967c0,0 -5.58589,-9.33157 -7.2112,-12.92336c-6.61532,-14.61894 9.29942,-39.17316 35.54653,-54.84337c26.24711,-15.67019 52.88739,-16.52239 59.5027,-1.90344zM303.82636,37.42834c-13.07295,7.80489 -20.99963,20.03467 -17.70474,27.31597c0.80954,1.78895 3.5917,6.43676 3.5917,6.43676l23.32716,-13.93091l23.30033,-14.21973c0,0 -2.04714,-4.71445 -2.87779,-6.55013c-3.2949,-7.28129 -16.56368,-6.85684 -29.63665,0.94805z" fill="url(#color-6)" stroke="#000000" stroke-width="0" stroke-linecap="butt"/><path d="M332.46102,48.35884l-43.76021,26.27396l52.61646,-31.85082" fill="none" stroke-opacity="0.48235" stroke="#000000" stroke-width="2.5" stroke-linecap="round"/><path d="M291.81588,26.86745c0,0 4.72653,1.50657 6.60835,3.23642c1.98452,1.82426 5.00709,7.44097 5.00709,7.44097" fill="none" stroke-opacity="0.48235" stroke="#000000" stroke-width="0" stroke-linecap="round"/><path d="M269.894,87.95332c0,0 -11.58644,-19.67016 -8.32466,-29.4854c3.48793,-10.49581 28.61937,-31.58471 28.61937,-31.58471c0,0 20.61869,-5.82525 30.63325,-3.16248c7.96395,2.11753 24.72403,17.88139 24.72403,17.88139" fill="none" stroke-opacity="0.48235" stroke="#000000" stroke-width="0" stroke-linecap="round"/><path d="M293.01723,22.80977c0.86949,1.77026 -0.23836,4.09564 -2.47443,5.19394c-2.23609,1.09831 -4.75366,0.55361 -5.62315,-1.21663c-0.86949,-1.77026 0.23835,-4.09564 2.47444,-5.19394c2.23609,-1.09831 4.75364,-0.5536 5.62315,1.21664z" fill="#d31b1b" stroke="#000000" stroke-width="0" stroke-linecap="butt"/><path d="M317.32498,68.31865c0,0 -0.5842,-3.13111 3.16658,-5.0285c6.70608,-3.39235 28.04394,-14.18637 28.04394,-14.18637" fill="none" stroke="#000000" stroke-width="0" stroke-linecap="round"/><path d="M291.81588,26.86745c0,0 4.72653,1.50657 6.60835,3.23642c1.98452,1.82426 5.00709,7.44097 5.00709,7.44097" fill="none" stroke-opacity="0.48235" stroke="#000000" stroke-width="2.5" stroke-linecap="round"/><path d="M269.89399,87.95331c0,0 -11.58645,-19.67017 -8.32467,-29.4854c3.48793,-10.4958 28.61938,-31.58471 28.61938,-31.58471c0,0 20.61869,-5.82525 30.63325,-3.16248c7.96395,2.11753 24.72403,17.88139 24.72403,17.88139" fill="none" stroke-opacity="0.48235" stroke="#000000" stroke-width="2.5" stroke-linecap="round"/><path d="M289.23227,82.45646c1.72032,5.26392 0.86338,12.86321 -3.8242,14.39519c-4.68758,1.53197 -11.43071,-3.58348 -13.15104,-8.8474c-1.72032,-5.26392 0.6851,-10.77309 5.37269,-12.30506c4.68758,-1.53197 9.88223,1.49336 11.60257,6.75728z" fill="url(#color-7)" stroke="none" stroke-width="0" stroke-linecap="butt"/><path d="M339.01664,58.78711c1.72032,5.26392 -0.68509,10.77309 -5.37267,12.30507c-4.68758,1.53197 -9.88222,-1.49337 -11.60255,-6.75728c-1.72032,-5.26392 0.68508,-10.77309 5.37268,-12.30508c4.68758,-1.53197 9.88224,1.49338 11.60257,6.75729z" fill="url(#color-8)" stroke="none" stroke-width="0" stroke-linecap="butt"/><path d="M334.66419,59.36914c0.97946,2.99697 -0.39005,6.13359 -3.0589,7.00581c-2.66885,0.87222 -5.62637,-0.85023 -6.60583,-3.84722c-0.97946,-2.99697 0.39004,-6.13359 3.05889,-7.00581c2.66885,-0.87222 5.62638,0.85024 6.60584,3.84722z" fill="url(#color-9)" stroke="none" stroke-width="0" stroke-linecap="butt"/><path d="M286.10587,84.12482c0.97946,2.99697 1.15843,8.2237 -1.5104,9.09591c-2.66884,0.87222 -7.17486,-2.94036 -8.15432,-5.93733c-0.97946,-2.99697 0.39005,-6.13359 3.05889,-7.00581c2.66884,-0.87222 5.62636,0.85024 6.60582,3.84722z" fill="url(#color-10)" stroke="none" stroke-width="0" stroke-linecap="butt"/><path d="M314.20159,129.6073l-22.01966,-7.76031l-0.02772,-10.00779l12.01205,0.05335l11.49339,-10.19491l19.91249,-3.04681l6.83372,-6.25267l4.90485,0.73661l1.34683,15.78249l-4.00371,7.85794l-10.36496,7.6792z" fill="#000000" stroke-opacity="0.7098" stroke="#000000" stroke-width="2.5" stroke-linecap="round"/><path d="M293.5107,112.77633l9.32593,-0.15238l-0.35645,8.72105l-8.36354,-4.65424z" fill="#ffffff" stroke-opacity="0.50196" stroke="#000000" stroke-width="2.5" stroke-linecap="round"/><path d="M345.59929,96.49088l-6.78799,9.39146l-2.22254,-7.91471l8.72697,-5.49196z" fill="#ffffff" stroke-opacity="0.50196" stroke="#000000" stroke-width="2.5" stroke-linecap="round"/><path d="M306.06521,111.42603l8.63826,-6.28281l-0.25821,9.59683l-7.78639,0.49094z" fill="#ffffff" stroke-opacity="0.50196" stroke="#000000" stroke-width="2.5" stroke-linecap="round"/><path d="M316.44786,102.61272l9.21728,-1.12096l-0.34093,8.85942l-8.27236,-3.84133z" fill="#ffffff" stroke-opacity="0.50196" stroke="#000000" stroke-width="2.5" stroke-linecap="round"/><path d="M334.76858,103.2925l-5.61325,6.13265l-2.02258,-8.46941l7.32728,-1.60913z" fill="#ffffff" stroke-opacity="0.50196" stroke="#000000" stroke-width="2.5" stroke-linecap="round"/><path d="M312.43505,127.70747l-8.53343,-2.2623l6.66247,-7.75832l4.16965,6.34124z" fill="#ffffff" stroke-opacity="0.50196" stroke="#000000" stroke-width="2.5" stroke-linecap="round"/><path d="M317.52694,123.78539l3.45892,-6.47514l7.50916,7.50959l-8.26616,2.55715z" fill="#ffffff" stroke-opacity="0.50196" stroke="#000000" stroke-width="2.5" stroke-linecap="round"/><path d="M327.26967,120.11243l0.5826,-6.791l10.45823,6.13798l-6.8986,3.72281z" fill="#ffffff" stroke-opacity="0.50196" stroke="#000000" stroke-width="2.5" stroke-linecap="round"/><path d="M335.69851,115.17196l-3.53512,-6.81265l11.04512,4.83885l-2.76368,4.52449z" fill="#ffffff" stroke-opacity="0.50196" stroke="#000000" stroke-width="2.5" stroke-linecap="round"/><path d="M342.93043,107.30576l3.25889,4.35013l-10.83615,-2.97593l2.93949,-2.95725z" fill="#ffffff" stroke-opacity="0.50196" stroke="#000000" stroke-width="2.5" stroke-linecap="round"/></g></g></svg>