<svg version="1.1" xmlns="http://www.w3.org/2000/svg" xmlns:xlink="http://www.w3.org/1999/xlink" width="170.41665" height="321.48532" viewBox="0,0,170.41665,321.48532"><defs><linearGradient x1="322.16427" y1="169.66431" x2="315.84144" y2="348.38487" gradientUnits="userSpaceOnUse" id="color-1"><stop offset="0" stop-color="#383838"/><stop offset="1" stop-color="#494949"/></linearGradient><linearGradient x1="353.54332" y1="171.83627" x2="347.15076" y2="352.52767" gradientUnits="userSpaceOnUse" id="color-2"><stop offset="0" stop-color="#666666"/><stop offset="1" stop-color="#4b4b4b"/></linearGradient><linearGradient x1="291.82012" y1="168.40316" x2="285.42756" y2="349.09456" gradientUnits="userSpaceOnUse" id="color-3"><stop offset="0" stop-color="#666666"/><stop offset="1" stop-color="#4b4b4b"/></linearGradient><linearGradient x1="287.17514" y1="185.86901" x2="286.44013" y2="206.64469" gradientUnits="userSpaceOnUse" id="color-4"><stop offset="0" stop-color="#878787"/><stop offset="1" stop-color="#848484"/></linearGradient><linearGradient x1="131.62545" y1="85.55938" x2="131.58125" y2="86.8086" gradientUnits="userSpaceOnUse" id="color-5"><stop offset="0" stop-color="#878787"/><stop offset="1" stop-color="#848484"/></linearGradient><radialGradient cx="363.83797" cy="108.47469" r="23.57407" gradientUnits="userSpaceOnUse" id="color-6"><stop offset="0" stop-color="#000000" stop-opacity="0.92549"/><stop offset="1" stop-color="#000000" stop-opacity="0"/></radialGradient><radialGradient cx="294.08548" cy="100.20186" r="25.35587" gradientUnits="userSpaceOnUse" id="color-7"><stop offset="0" stop-color="#000000" stop-opacity="0.92549"/><stop offset="1" stop-color="#000000" stop-opacity="0"/></radialGradient><linearGradient x1="294.74006" y1="39.23925" x2="284.93708" y2="123.8722" gradientUnits="userSpaceOnUse" id="color-8"><stop offset="0" stop-color="#9c9c9c"/><stop offset="1" stop-color="#2c2c2c"/></linearGradient><linearGradient x1="380.14084" y1="53.93203" x2="366.35351" y2="141.10774" gradientUnits="userSpaceOnUse" id="color-9"><stop offset="0" stop-color="#9c9c9c"/><stop offset="1" stop-color="#2c2c2c"/></linearGradient></defs><g transform="translate(-253.16901,-31.54906)"><g stroke-miterlimit="10"><path d="M268.95291,343.08512l3.07922,-147.25899c0,0 7.52922,-25.44792 17.34564,-25.50611c9.74851,-0.05779 32.84122,0.20222 53.02438,0.08256c21.89101,-0.12978 27.75085,26.97271 27.75085,26.97271l-5.16649,152.74824z" fill="url(#color-1)" stroke="#000000" stroke-width="2.5" stroke-linecap="butt"/><path d="M324.24865,351.71743l13.24079,-98.30226c0,0 -3.60265,-81.18297 6.55195,-79.91948c9.36238,1.16493 14.33633,-1.85581 18.85837,-1.29316c4.55355,0.56658 12.48888,30.31529 12.48888,30.31529l-6.19874,147.14863z" fill="url(#color-2)" stroke="#000000" stroke-width="2.5" stroke-linecap="butt"/><path d="M263.64571,344.68305l4.2155,-147.21879c0,0 10.01778,-29.11356 14.59998,-29.35693c4.5505,-0.24168 9.29855,3.123 18.71984,2.62261c10.2185,-0.54273 0.88781,80.18268 0.88781,80.18268l6.26083,98.99219z" fill="url(#color-3)" stroke="#000000" stroke-width="2.5" stroke-linecap="butt"/><path d="M336.48919,183.653c-0.26783,7.57054 -6.50209,13.49479 -13.92462,13.23219c-7.42253,-0.2626 -13.22254,-6.6126 -12.95471,-14.18314c0.26783,-7.57054 6.50209,-13.49479 13.92462,-13.23219c7.42253,0.2626 13.22254,6.6126 12.95471,14.18314z" fill="#9c9c9c" stroke="#000000" stroke-width="2.5" stroke-linecap="butt"/><path d="M336.72281,225.05524l-29.34913,-2.77051" fill="none" stroke="#000000" stroke-width="2.5" stroke-linecap="round"/><path d="M334.89348,235.96102l-29.41033,-1.04049" fill="none" stroke="#000000" stroke-width="2.5" stroke-linecap="round"/><path d="M303.66404,245.53799l34.34267,0.3489" fill="none" stroke="#000000" stroke-width="2.5" stroke-linecap="round"/><path d="M336.4147,258.24455l-32.87038,-1.1629" fill="none" stroke="#000000" stroke-width="2.5" stroke-linecap="round"/><path d="M305.98906,269.58213l28.55553,0.72155" fill="none" stroke="#000000" stroke-width="2.5" stroke-linecap="round"/><path d="M332.63367,283.51617l-25.9809,-0.05307" fill="none" stroke="#000000" stroke-width="2.5" stroke-linecap="round"/><path d="M328.72479,296.08057l-19.91563,-0.12719" fill="none" stroke="#000000" stroke-width="2.5" stroke-linecap="round"/><path d="M327.50276,306.14175l-18.17541,-0.35433" fill="none" stroke="#000000" stroke-width="2.5" stroke-linecap="round"/><path d="M309.79452,317.06315l18.18561,0.06598" fill="none" stroke="#000000" stroke-width="2.5" stroke-linecap="round"/><path d="M308.04964,211.33813l29.63747,2.78071" fill="none" stroke="#000000" stroke-width="2.5" stroke-linecap="round"/><path d="M335.46952,203.35858l-26.49637,-1.80349" fill="none" stroke="#000000" stroke-width="2.5" stroke-linecap="round"/><path d="M341.90698,232.06878l0.19859,-21.93399l29.67828,1.62737l-2.39307,18.68067" fill="none" stroke="#000000" stroke-width="2.5" stroke-linecap="round"/><path d="M355.15006,233.11469l-2.50463,54.47522l-3.32614,61.3749" fill="none" stroke="#000000" stroke-width="2.5" stroke-linecap="round"/><path d="M298.05221,196.65466c-0.20297,5.73705 -5.40188,10.20973 -11.61208,9.99003c-6.2102,-0.21971 -11.08004,-5.04861 -10.87707,-10.78566c0.20297,-5.73705 5.40188,-10.20973 11.61208,-9.99003c6.2102,0.21971 11.08004,5.04861 10.87707,10.78566z" fill="url(#color-4)" stroke="#000000" stroke-width="2.5" stroke-linecap="butt"/><path d="M253.59297,180.39191z" fill="url(#color-5)" stroke="#000000" stroke-width="2.5" stroke-linecap="butt"/><path d="M379.2099,142.6902c-6.36746,27.83519 -35.8538,47.91598 -65.34466,41.16978c-29.49087,-6.7462 -47.81867,-37.76475 -41.4512,-65.59993c6.36746,-27.83518 35.43638,-44.93121 64.92725,-38.18499c29.49087,6.7462 48.2361,34.77996 41.86863,62.61515z" fill="#9c9c9c" stroke="#000000" stroke-width="2.5" stroke-linecap="butt"/><path d="M340.36718,133.99135c-0.42316,2.67559 -7.33695,3.80537 -15.4424,2.52345c-8.10546,-1.28193 -14.33317,-4.49011 -13.91,-7.1657c0.42316,-2.67559 7.33695,-3.80537 15.4424,-2.52345c8.10546,1.28193 14.33317,4.49011 13.91,7.1657z" fill-opacity="0.18431" fill="#000000" stroke="none" stroke-width="0" stroke-linecap="butt"/><path d="M304.87209,177.6001l26.59117,4.20554" fill="none" stroke="#000000" stroke-width="2.5" stroke-linecap="round"/><path d="M278.70071,140.26526c0.5262,-0.00836 2.92443,0.51233 1.46275,1.64473c-0.32196,0.24943 -1.70322,-0.10508 -1.92424,-0.37442c-0.33961,-0.41388 0.91349,-0.96503 0.68873,-1.45093c-0.13993,-0.30254 -0.69125,0.60141 -0.92965,0.36842c-0.23839,-0.23296 0.23126,-0.62527 0.34689,-0.9379z" fill="none" stroke="#000000" stroke-width="2.5" stroke-linecap="round"/><path d="M289.22679,143.28512c-2.48632,-1.26798 1.48501,-1.69132 1.53876,-0.56081c0.09589,2.01664 -4.21859,-1.44821 -0.04892,-0.78875" fill="none" stroke="#000000" stroke-width="2.5" stroke-linecap="round"/><path d="M283.32034,146.7808c4.55752,0.03555 -0.78108,3.22243 -1.23059,1.70976c-0.19496,-0.65605 1.34243,-1.05807 1.13573,-1.71051z" fill="none" stroke="#000000" stroke-width="2.5" stroke-linecap="round"/><path d="M354.7768,154.1073c0.60541,-0.12012 1.97762,-0.24325 1.81768,0.35287c-0.00807,0.0301 -3.89383,0.41171 -1.73421,-1.68426" fill="none" stroke="#000000" stroke-width="2.5" stroke-linecap="round"/><path d="M363.66598,155.81387c0.65365,2.24508 -2.24567,0.68621 -0.00672,-0.02307z" fill="none" stroke="#000000" stroke-width="2.5" stroke-linecap="round"/><path d="M358.76123,160.8778c-0.33428,0.08358 -3.15301,0.6443 -2.09758,-0.92558c0.39648,-0.58972 2.7462,-0.38953 2.23101,0.9003c-0.23076,0.57775 -2.67767,0.94821 -1.03557,-0.64549z" fill="none" stroke="#000000" stroke-width="2.5" stroke-linecap="round"/><path d="M345.52273,89.44896c4.23366,-13.54431 15.86573,-16.00603 25.98094,-5.49841c10.11522,10.50762 14.88318,30.00557 10.64952,43.54989c-4.23366,13.54431 -15.86573,16.00603 -25.98095,5.49841c-10.11522,-10.50762 -14.88317,-30.00557 -10.64951,-43.54986z" fill="url(#color-6)" stroke="#000000" stroke-width="0" stroke-linecap="butt"/><path d="M317.98042,88.66309c0.52874,14.77914 -9.74077,31.92612 -22.93758,38.29882c-13.19682,6.3727 -24.32357,-0.4421 -24.85229,-15.22126c-0.52872,-14.77916 9.74078,-31.92613 22.93759,-38.29884c13.19682,-6.3727 24.32355,0.4421 24.85228,15.22126z" fill="url(#color-7)" stroke="#000000" stroke-width="0" stroke-linecap="butt"/><path d="M275.36492,122.76347l-20.20132,-88.10832l63.01083,48.3497c0,0 -7.39778,17.8001 -13.70644,23.65916c-7.68703,7.1392 -29.10307,16.09948 -29.10307,16.09948z" fill="url(#color-8)" stroke="#000000" stroke-width="2.5" stroke-linecap="butt"/><path d="M347.80756,87.18869l73.09878,-26.80937l-44.6931,82.28781c0,0 -16.38229,-19.49809 -21.31574,-29.13347c-4.49408,-8.77728 -7.08995,-26.34496 -7.08995,-26.34496z" fill="url(#color-9)" stroke="#000000" stroke-width="2.5" stroke-linecap="butt"/><path d="M300.56405,131.6159l7.35347,-5.50504" fill="none" stroke="#000000" stroke-width="2.5" stroke-linecap="round"/><path d="M309.68675,125.46454l-24.00494,-3.98172" fill="none" stroke="#000000" stroke-width="2.5" stroke-linecap="round"/><path d="M341.69282,130.77285l24.00494,3.98172" fill="none" stroke="#000000" stroke-width="2.5" stroke-linecap="round"/></g></g></svg>