<svg version="1.1" xmlns="http://www.w3.org/2000/svg" xmlns:xlink="http://www.w3.org/1999/xlink" width="238.56787" height="342.20526" viewBox="0,0,238.56787,342.20526"><defs><linearGradient x1="400.22406" y1="91.22079" x2="401.66129" y2="134.33765" gradientUnits="userSpaceOnUse" id="color-1"><stop offset="0" stop-color="#4800ff"/><stop offset="1" stop-color="#0038ff"/></linearGradient><linearGradient x1="238.14516" y1="92.45063" x2="236.70793" y2="135.56749" gradientUnits="userSpaceOnUse" id="color-2"><stop offset="0" stop-color="#4800ff"/><stop offset="1" stop-color="#0038ff"/></linearGradient><linearGradient x1="223.13846" y1="351.55597" x2="223.38535" y2="32.75744" gradientUnits="userSpaceOnUse" id="color-3"><stop offset="0" stop-color="#ff0000"/><stop offset="0.333" stop-color="#ffff00"/><stop offset="0.5" stop-color="#00ff00"/><stop offset="0.666" stop-color="#00ffff"/><stop offset="0.833" stop-color="#0000ff"/><stop offset="1" stop-color="#ff00ff"/></linearGradient><linearGradient x1="322.08027" y1="162.06707" x2="323.25221" y2="340.27739" gradientUnits="userSpaceOnUse" id="color-4"><stop offset="0" stop-color="#ffffff"/><stop offset="1" stop-color="#5f5f5f"/></linearGradient><linearGradient x1="256.68829" y1="83.76277" x2="256.68829" y2="127.9618" gradientUnits="userSpaceOnUse" id="color-5"><stop offset="0" stop-color="#ffffff"/><stop offset="1" stop-color="#ffffff" stop-opacity="0"/></linearGradient><linearGradient x1="383.05083" y1="82.90551" x2="383.05083" y2="127.10453" gradientUnits="userSpaceOnUse" id="color-6"><stop offset="0" stop-color="#ffffff"/><stop offset="1" stop-color="#ffffff" stop-opacity="0"/></linearGradient><linearGradient x1="235.58091" y1="326.00149" x2="237.5624" y2="62.40032" gradientUnits="userSpaceOnUse" id="color-7"><stop offset="0" stop-color="#ff0000"/><stop offset="0.333" stop-color="#ffff00"/><stop offset="0.5" stop-color="#00ff00"/><stop offset="0.666" stop-color="#00ffff"/><stop offset="0.833" stop-color="#0000ff"/><stop offset="1" stop-color="#ff00ff"/></linearGradient></defs><g transform="translate(-198.99014,-8.89738)"><g stroke-width="2.5" stroke-miterlimit="10"><path d="M338.0096,73.39866c0,0 73.57198,26.94873 89.03857,32.61399c5.45003,1.9963 9.42494,8.94198 9.42494,8.94198c0,0 -3.20802,-3.92891 -9.78457,-2.48779c-9.53499,2.0894 -22.72278,5.18288 -30.11235,7.7999c-11.36913,4.02638 -30.35341,15.25219 -30.35341,15.25219z" fill="url(#color-1)" stroke="#000000" stroke-linecap="butt"/><path d="M272.14644,136.74877c0,0 -17.53189,-12.05241 -28.78594,-16.03803c-6.86356,-2.43073 -19.09171,-5.01694 -28.77349,-6.86312c-8.03851,-1.53283 -11.0601,0.70606 -11.0601,0.70606c0,0 3.67396,-5.8963 9.94082,-8.277c15.49417,-5.88603 80.70278,-30.65792 80.70278,-30.65792z" fill="url(#color-2)" stroke="#000000" stroke-linecap="butt"/><path d="M271.58621,337.79939l-3.28077,-147.27579c0,0 7.02525,-25.69821 17.67394,-26.10344c10.57502,-0.40242 35.64348,-0.95905 57.53784,-1.79223c23.74701,-0.90368 31.32395,25.97468 31.32395,25.97468l1.26281,152.83541z" fill="url(#color-3)" stroke="#000000" stroke-linecap="butt"/><path d="M270.35741,336.65142c0,0 -0.43403,-15.28139 -1.4502,-41.56944c-0.43617,-11.28374 -1.71881,-35.29669 -1.90397,-43.38941c-0.44815,-19.58685 -0.0038,-61.80465 -0.0038,-61.80465c0,0 7.2765,-25.60882 18.29633,-26.01264c3.15578,-0.11564 7.5588,-0.24406 12.7706,-0.38818c0.73994,0.98881 -2.46459,1.86355 -2.82082,3.75917c-0.41372,2.20157 1.95913,5.51384 2.23093,7.79591c0.25626,2.15156 3.02157,4.63352 4.13977,5.20587c2.28598,1.17009 6.14839,5.07147 8.77372,5.54236c2.5231,0.45255 15.96844,0.93311 18.57205,0.30532c4.69743,-1.13267 11.50445,-5.97043 12.59131,-10.72609c0.59601,-2.60793 5.34953,-4.25947 4.78345,-6.58043c-0.54145,-2.21999 -6.43224,-5.13366 -4.70533,-6.58491c1.07511,-0.03773 2.14487,-0.07607 3.20741,-0.115c24.57466,-0.90053 32.40883,25.88432 32.40883,25.88432c0,0 -1.51001,65.67355 -1.28424,92.78605c0.08652,10.38912 1.86864,26.83994 2.4239,38.14932c0.67203,13.68763 0.12863,21.36842 0.12863,21.36842c0,0 -42.65251,10.20851 -62.46954,9.54415c-14.6531,-0.49124 -45.68903,-13.17013 -45.68903,-13.17013z" fill="url(#color-4)" stroke="#000000" stroke-linecap="butt"/><path d="M259.79759,123.56711c-0.69033,0.94166 -3.09579,1.40246 -5.01149,1.97611c-0.31388,0.09399 -1.8601,0.60386 -2.62268,0.42726c-1.82889,-0.42355 -1.33578,-1.92723 -3.92527,-2.53979c-2.59512,-0.61391 -5.0499,-0.00979 -7.53088,-0.63079c-2.35931,-0.59054 -1.88226,-1.96368 -4.20585,-2.58426c-2.3314,-0.62266 -5.58,0.15265 -7.17004,-0.69451c-3.69161,-1.96685 -4.17668,-3.87849 1.64138,-3.86767" fill="#211fff" stroke-opacity="0.4902" stroke="#000000" stroke-linecap="round"/><path d="M409.4831,112.38469c5.78235,-0.7815 5.50907,0.86202 2.0543,2.97692c-1.48803,0.91093 -4.80207,0.70184 -7.05159,1.52577c-2.24198,0.82116 -1.61771,1.8921 -3.89848,2.6932c-2.39839,0.84241 -4.90462,0.66934 -7.41725,1.52105c-2.50718,0.84986 -1.85267,2.02648 -3.62442,2.61921c-0.73876,0.24715 -2.33151,0.03129 -2.6538,-0.00467c-1.96702,-0.21949 -4.40855,-0.28072 -5.19769,-0.96691" fill="#211fff" stroke-opacity="0.4902" stroke="#000000" stroke-linecap="round"/><path d="M274.71245,127.9618c0,0 -12.67614,-8.71429 -20.81319,-11.59602c-9.08288,-3.2167 -31.15924,-6.80999 -31.15924,-6.80999l67.89656,-25.79301z" fill="url(#color-5)" stroke-opacity="0.50196" stroke="#000000" stroke-linecap="butt"/><path d="M348.21993,82.90551l69.66178,25.79301c0,0 -22.65032,3.59329 -31.96934,6.80999c-8.34861,2.88174 -21.35431,11.59602 -21.35431,11.59602z" fill="url(#color-6)" stroke-opacity="0.50196" stroke="#000000" stroke-linecap="butt"/><path d="M374.10881,124.32758c-1.94104,28.48816 -27.92848,52.9286 -58.11114,50.8721c-30.18266,-2.05649 -53.13099,-29.83117 -51.18995,-58.31932c1.94104,-28.48815 27.98246,-49.91526 58.16512,-47.85875c30.18266,2.05649 53.07703,26.81782 51.13599,55.30597z" fill="url(#color-7)" stroke="#000000" stroke-linecap="butt"/><g stroke="#000000"><g stroke-linecap="butt"><path d="M289.32595,77.17537l30.65622,-53.60112l30.06705,53.93706c0,0 -2.31275,2.60192 -10.11568,4.18506c-6.60967,1.34104 -18.38117,1.70658 -23.32941,1.6792c-4.23775,-0.02344 -14.11399,-1.34219 -19.48716,-2.75733c-6.28566,-1.65547 -7.79102,-3.44285 -7.79102,-3.44285z" fill="#ffffff"/><path d="M321.1776,49.10465c-0.14265,3.56285 -3.03548,6.33991 -6.4613,6.20274c-3.42581,-0.13717 -6.08735,-3.13662 -5.94469,-6.69947c0.14265,-3.56285 3.03548,-6.33992 6.4613,-6.20275c3.42582,0.13717 6.08735,3.13662 5.94469,6.69949z" fill="#1dff00"/><path d="M337.98697,68.93425c-0.14265,3.56285 -3.03548,6.33993 -6.4613,6.20276c-3.42581,-0.13717 -6.08736,-3.13663 -5.9447,-6.69949c0.14265,-3.56285 3.03548,-6.33991 6.46131,-6.20274c3.42582,0.13717 6.08735,3.13662 5.94469,6.69947z" fill="#fa00ff"/><path d="M310.85893,74.061c-0.14265,3.56285 -3.03548,6.33992 -6.4613,6.20275c-3.42581,-0.13717 -6.08735,-3.13663 -5.94469,-6.69948c0.14265,-3.56285 3.03548,-6.33992 6.4613,-6.20275c3.42582,0.13717 6.08735,3.13662 5.94469,6.69948z" fill="#0007ff"/></g><path d="M333.80188,25.54528l-30.50286,-2.13441" fill="none" stroke-linecap="round"/><path d="M332.11507,33.46722l-11.99665,-8.24156l-0.30935,-15.07828" fill="none" stroke-linecap="round"/><path d="M319.20679,25.18917l-10.96708,5.95247" fill="none" stroke-linecap="round"/></g><path d="M305.14905,113.98703c0,3.56967 -3.8313,18.53809 -8.10608,18.53809c-4.27479,0 -7.37428,-14.96843 -7.37428,-18.53809c0,-3.56967 3.64835,-13.23257 7.92313,-13.23257c4.27479,0 7.55723,9.66291 7.55723,13.23257z" fill="#000000" stroke="#000000" stroke-linecap="butt"/><path d="M349.51548,115.18396c0,3.70188 -3.38963,17.67979 -7.79662,17.67979c-4.40699,0 -8.16252,-13.97791 -8.16252,-17.67979c0,-3.70188 3.02373,-15.4844 7.43072,-15.4844c4.40699,0 8.52842,11.78252 8.52842,15.4844z" fill="#000000" stroke="#000000" stroke-linecap="butt"/><path d="M347.92785,114.21627c0,1.72101 -2.81928,8.21938 -6.48474,8.21938c-3.66546,0 -6.78908,-6.49837 -6.78908,-8.21938c0,-1.72101 2.51495,-7.19874 6.18042,-7.19874c3.66546,0 7.09341,5.47773 7.09341,7.19874z" fill="#ffffff" stroke="#000000" stroke-linecap="butt"/><path d="M303.83711,114.39921c0,1.72101 -2.81928,8.21938 -6.48474,8.21938c-3.66546,0 -6.78908,-6.49837 -6.78908,-8.21938c0,-1.72101 2.51496,-7.19874 6.18042,-7.19874c3.66546,0 7.0934,5.47773 7.0934,7.19874z" fill="#ffffff" stroke="#000000" stroke-linecap="butt"/><path d="M298.94171,113.8066c0,1.84299 -0.93665,9.57107 -1.98173,9.57107c-1.04508,0 -1.80283,-7.72808 -1.80283,-9.57107c0,-1.84299 0.89193,-6.83187 1.937,-6.83187c1.04508,0 1.84755,4.98888 1.84755,6.83187z" fill="#000000" stroke="#000000" stroke-linecap="butt"/><path d="M343.03246,113.98955c0,1.84299 -0.93665,9.57107 -1.98173,9.57107c-1.04507,0 -1.80283,-7.72808 -1.80283,-9.57107c0,-1.84299 0.89193,-6.83187 1.937,-6.83187c1.04507,0 1.84755,4.98889 1.84755,6.83187z" fill="#000000" stroke="#000000" stroke-linecap="butt"/></g></g></svg>