<svg version="1.1" xmlns="http://www.w3.org/2000/svg" xmlns:xlink="http://www.w3.org/1999/xlink" width="155.22737" height="320.95377" viewBox="0,0,155.22737,320.95377"><defs><linearGradient x1="405.31176" y1="112.80614" x2="364.10598" y2="111.0955" gradientUnits="userSpaceOnUse" id="color-1"><stop offset="0" stop-color="#ff8600"/><stop offset="1" stop-color="#562e0d"/></linearGradient><linearGradient x1="258.34871" y1="105.45489" x2="299.55447" y2="107.16553" gradientUnits="userSpaceOnUse" id="color-2"><stop offset="0" stop-color="#ff8600"/><stop offset="1" stop-color="#562e0d"/></linearGradient><linearGradient x1="328.11371" y1="150.59483" x2="320.69595" y2="329.2733" gradientUnits="userSpaceOnUse" id="color-3"><stop offset="0" stop-color="#292929"/><stop offset="1" stop-color="#171717"/></linearGradient><linearGradient x1="324.77437" y1="264.14406" x2="323.72749" y2="289.36109" gradientUnits="userSpaceOnUse" id="color-4"><stop offset="0" stop-color="#10ff00"/><stop offset="1" stop-color="#025f00"/></linearGradient><linearGradient x1="256.63412" y1="275.4483" x2="272.63758" y2="276.45758" gradientUnits="userSpaceOnUse" id="color-5"><stop offset="0" stop-color="#ffffff"/><stop offset="1" stop-color="#929292"/></linearGradient><linearGradient x1="393.18231" y1="280.34603" x2="377.15025" y2="280.02537" gradientUnits="userSpaceOnUse" id="color-6"><stop offset="0" stop-color="#ffffff"/><stop offset="1" stop-color="#929292"/></linearGradient><linearGradient x1="294.71876" y1="285.91208" x2="281.35149" y2="275.22042" gradientUnits="userSpaceOnUse" id="color-7"><stop offset="0" stop-color="#ffffff"/><stop offset="1" stop-color="#929292"/></linearGradient><linearGradient x1="331.21262" y1="273.3728" x2="317.08646" y2="280.96103" gradientUnits="userSpaceOnUse" id="color-8"><stop offset="0" stop-color="#ffffff"/><stop offset="1" stop-color="#929292"/></linearGradient><linearGradient x1="368.8761" y1="287.30839" x2="355.32195" y2="281.11795" gradientUnits="userSpaceOnUse" id="color-9"><stop offset="0" stop-color="#ffffff"/><stop offset="1" stop-color="#929292"/></linearGradient><linearGradient x1="310.70294" y1="275.74068" x2="296.71585" y2="279.97875" gradientUnits="userSpaceOnUse" id="color-10"><stop offset="0" stop-color="#ffffff"/><stop offset="1" stop-color="#929292"/></linearGradient><linearGradient x1="334.78194" y1="276.11389" x2="348.3696" y2="281.49672" gradientUnits="userSpaceOnUse" id="color-11"><stop offset="0" stop-color="#ffffff"/><stop offset="1" stop-color="#929292"/></linearGradient></defs><g transform="translate(-254.10558,-11.79412)"><g stroke-miterlimit="10"><path d="M364.1217,110.71778c0.82488,-19.15305 13.10104,-33.83573 23.62571,-33.38245c10.52468,0.45327 18.38792,16.34733 17.56304,35.50036c-0.8249,19.15303 -10.02555,34.31214 -20.55023,33.85887c-10.52468,-0.45329 -21.46338,-16.82379 -20.6385,-35.97682z" fill="url(#color-1)" stroke="#000000" stroke-width="2.5" stroke-linecap="butt"/><path d="M299.57009,106.78778c-0.76547,19.1555 -13.02344,34.56299 -23.54946,34.14237c-10.52603,-0.42064 -18.43855,-16.2902 -17.67309,-35.44569c0.76547,-19.1555 9.91906,-34.34311 20.4451,-33.92247c10.52603,0.42062 21.54294,16.07031 20.77747,35.22582z" fill="url(#color-2)" stroke="#000000" stroke-width="2.5" stroke-linecap="butt"/><path d="M271.8173,323.60236l3.88986,-147.24116c0,0 7.96992,-25.38947 18.20837,-25.37001c10.16762,0.01934 34.25131,0.46205 55.30217,0.50207c22.83215,0.04341 28.8189,27.19346 28.8189,27.19346l-6.09209,152.71414z" fill="url(#color-3)" stroke="#000000" stroke-width="2.5" stroke-linecap="butt"/><path d="M352.36275,159.85932c-0.37673,9.07448 -10.89312,16.00688 -23.48903,15.48396c-12.59591,-0.52292 -22.50152,-8.30313 -22.12479,-17.3776c0.37673,-9.07448 10.89312,-16.00688 23.48903,-15.48397c12.59591,0.52292 22.50152,8.30313 22.12479,17.37761z" fill="#ffd300" stroke="#000000" stroke-width="2.5" stroke-linecap="butt"/><path d="M385.91108,114.38901c-3.12102,28.38313 -30.09986,51.72461 -60.17124,48.41794c-30.07139,-3.30666 -51.8479,-32.00931 -48.72688,-60.39243c3.12102,-28.38312 30.0288,-48.71162 60.10018,-45.40494c30.07139,3.30666 51.91898,28.99631 48.79796,57.37944z" fill="#ffd300" stroke="#000000" stroke-width="2.5" stroke-linecap="butt"/><path d="M347.02743,102.28796c-0.11236,2.70651 -6.85015,4.62463 -15.04928,4.28425c-8.19914,-0.34038 -14.75475,-2.81038 -14.64238,-5.51689c0.11236,-2.70651 6.85014,-4.62464 15.04928,-4.28426c8.19914,0.34038 14.75475,2.81038 14.64239,5.51689z" fill-opacity="0.18431" fill="#ff0505" stroke="none" stroke-width="0" stroke-linecap="butt"/><path d="M349.57945,197.75118l3.10832,-15.73757l6.13869,16.86521l-15.5912,-13.04306l21.59322,-0.59105z" fill="none" stroke-opacity="0.67059" stroke="#ffffff" stroke-width="2.5" stroke-linecap="round"/><path d="M296.31721,178.60052c10.59345,-5.85584 21.4282,6.88779 10.09713,14.1913c-5.05779,3.26003 -14.05951,0.88635 -16.37792,-4.71284c-2.49683,-6.03008 4.52287,-11.32096 9.87702,-9.74379" fill="none" stroke-opacity="0.67059" stroke="#ffffff" stroke-width="2.5" stroke-linecap="round"/><path d="M308.35847,186.86703c2.36955,0.09866 8.13988,-0.52783 9.50067,2.08261c2.54998,4.89175 -6.5391,8.79656 -9.85504,9.05888c-6.51504,0.5154 -14.7131,-0.29037 -20.44867,-3.3491c-4.65361,-2.48173 -4.62039,-7.85619 1.33583,-7.60892" fill="none" stroke-opacity="0.67059" stroke="#ffffff" stroke-width="2.5" stroke-linecap="round"/><path d="M288.60979,230.00594c1.24261,-9.85247 0.24502,-22.35689 3.77893,-31.65402" fill="none" stroke-opacity="0.67059" stroke="#ffffff" stroke-width="2.5" stroke-linecap="round"/><path d="M309.21801,199.05057c2.23775,10.84481 2.30699,21.75785 4.32552,32.54631" fill="none" stroke-opacity="0.67059" stroke="#ffffff" stroke-width="2.5" stroke-linecap="round"/><path d="M297.58653,204.52687c0.01382,-0.33304 0.02765,-0.6661 0.04147,-0.99914" fill="none" stroke-opacity="0.67059" stroke="#ffffff" stroke-width="2.5" stroke-linecap="round"/><path d="M303.2784,204.77237c0.02765,-0.6661 0.0553,-1.33218 0.08296,-1.99828" fill="none" stroke-opacity="0.67059" stroke="#ffffff" stroke-width="2.5" stroke-linecap="round"/><path d="M305.54175,209.91115c-0.12583,1.92875 -0.51628,6.39398 -2.78675,7.21688c-4.38945,1.5909 -7.79341,-3.11767 -7.64208,-6.76306" fill="none" stroke-opacity="0.67059" stroke="#ffffff" stroke-width="2.5" stroke-linecap="round"/><path d="M393.33476,22.10677l11.56911,4.07111l-32.77542,7.77963l16.36708,4.92318l-18.50749,34.16062" fill="none" stroke="#000000" stroke-width="2.5" stroke-linecap="round"/><path d="M396.8218,21.27221c-0.08966,2.15972 -2.00633,3.83397 -4.28102,3.73954c-2.27468,-0.09443 -4.046,-1.92178 -3.95634,-4.0815c0.08966,-2.15972 2.00633,-3.83397 4.28102,-3.73954c2.27468,0.09443 4.046,1.92179 3.95634,4.08151z" fill="#ffd300" stroke="#000000" stroke-width="2.5" stroke-linecap="butt"/><path d="M292.83117,70.59877l-15.61236,-35.57709l16.71883,-3.54963l-32.01782,-10.46949l11.86674,-3.09819" fill="none" stroke="#000000" stroke-width="2.5" stroke-linecap="round"/><path d="M274.66173,13.04413c2.27468,0.09443 4.04599,1.92178 3.95633,4.08151c-0.08966,2.15973 -2.00634,3.83397 -4.28102,3.73954c-2.27468,-0.09443 -4.046,-1.92179 -3.95634,-4.08151c0.08966,-2.15973 2.00635,-3.83397 4.28102,-3.73954z" fill="#ffd300" stroke="#000000" stroke-width="2.5" stroke-linecap="butt"/><path d="M301.91735,82.95403c0,0 4.17205,-5.44432 6.09094,-5.3346c1.97643,0.11301 5.60014,6.00306 5.60014,6.00306" fill="none" stroke="#000000" stroke-width="2.5" stroke-linecap="round"/><path d="M352.65399,84.02213c0,0 4.17205,-5.44432 6.09094,-5.3346c1.97643,0.11301 5.60014,6.00306 5.60014,6.00306" fill="none" stroke="#000000" stroke-width="2.5" stroke-linecap="round"/><path d="M268.90236,287.08504c0,0 -3.4866,-8.26315 -3.31471,-12.40365c0.17692,-4.26167 4.36158,-12.81336 4.36158,-12.81336c0,0 36.79224,7.26933 54.81563,8.01757c18.51353,0.76858 54.83463,-3.46549 54.83463,-3.46549c0,0 2.20241,8.44709 2.02847,12.63696c-0.17501,4.21566 -3.07535,12.58007 -3.07535,12.58007c0,0 -33.3327,1.26632 -50.88344,0.53771c-18.8994,-0.7846 -58.76682,-5.08979 -58.76682,-5.08979z" fill="url(#color-4)" stroke="#000000" stroke-width="2.5" stroke-linecap="butt"/><path d="M303.80397,101.32267l0.24749,-5.96144c0,0 1.93572,-1.11399 2.94506,-1.07209c1.26169,0.05238 4.03836,1.362 4.03836,1.362l-0.24748,5.96144c0,0 -2.556,1.42948 -3.64052,1.38446c-1.22591,-0.05089 -3.34291,-1.67437 -3.34291,-1.67437z" fill="#000000" stroke="#000000" stroke-width="2.5" stroke-linecap="butt"/><path d="M353.42306,103.43888l0.24748,-5.96146c0,0 1.93572,-1.11399 2.94506,-1.07209c1.26169,0.05238 4.03835,1.362 4.03835,1.362l-0.24748,5.96146c0,0 -2.55601,1.42947 -3.64051,1.38445c-1.22591,-0.05089 -3.3429,-1.67436 -3.3429,-1.67436z" fill="#000000" stroke="#000000" stroke-width="2.5" stroke-linecap="butt"/><path d="M272.06509,285.53508l-15.43098,-10.08678l16.57593,-8.06824z" fill="url(#color-5)" stroke="#000000" stroke-width="2.5" stroke-linecap="butt"/><path d="M377.33214,270.93165l15.85017,9.4144l-16.21394,8.77305z" fill="url(#color-6)" stroke="#000000" stroke-width="2.5" stroke-linecap="butt"/><path d="M286.27772,268.24969l8.44103,17.6624l-18.2935,-3.72093z" fill="url(#color-7)" stroke="#000000" stroke-width="2.5" stroke-linecap="butt"/><path d="M312.78225,272.94838l18.43037,0.42442l-9.82194,15.60089z" fill="url(#color-8)" stroke="#000000" stroke-width="2.5" stroke-linecap="butt"/><path d="M360.31093,272.63601l8.56516,14.67238l-18.54311,2.29151z" fill="url(#color-9)" stroke="#000000" stroke-width="2.5" stroke-linecap="butt"/><path d="M292.45834,270.84133l18.24458,4.89934l-9.72956,13.37549z" fill="url(#color-10)" stroke="#000000" stroke-width="2.5" stroke-linecap="butt"/><path d="M343.36937,290.2498l-8.58742,-14.13591l18.5879,-3.37026z" fill="url(#color-11)" stroke="#000000" stroke-width="2.5" stroke-linecap="butt"/><path d="M309.86952,103.49323l-9.57062,-1.29332" fill="none" stroke="#000000" stroke-width="2.5" stroke-linecap="round"/><path d="M353.58396,106.33854l12.15727,-0.77599" fill="none" stroke="#000000" stroke-width="2.5" stroke-linecap="round"/><path d="M293.05628,135.05039l4.13864,-1.55199" fill="none" stroke="#000000" stroke-width="2.5" stroke-linecap="round"/><path d="M295.64293,134.27439l3.10398,4.91464l31.55717,-4.39731l24.05587,6.46663l12.15727,-3.62131" fill="none" stroke="#000000" stroke-width="2.5" stroke-linecap="round"/><path d="M364.70656,136.60238l4.13864,1.55199" fill="none" stroke="#000000" stroke-width="2.5" stroke-linecap="round"/><path d="M300.29891,140.74103l26.90119,17.8479l28.19452,-16.03725" fill="none" stroke="#000000" stroke-width="2.5" stroke-linecap="round"/></g></g></svg>