<svg version="1.1" xmlns="http://www.w3.org/2000/svg" xmlns:xlink="http://www.w3.org/1999/xlink" width="181.3596" height="314.17758" viewBox="0,0,181.3596,314.17758"><defs><linearGradient x1="323.06274" y1="48.72869" x2="322.5809" y2="113.15278" gradientUnits="userSpaceOnUse" id="color-1"><stop offset="0" stop-color="#ff8026"/><stop offset="1" stop-color="#b54b00"/></linearGradient><linearGradient x1="367.21651" y1="93.33955" x2="366.73955" y2="157.11054" gradientUnits="userSpaceOnUse" id="color-2"><stop offset="0" stop-color="#cecece"/><stop offset="1" stop-color="#595959"/></linearGradient><linearGradient x1="274.35264" y1="92.64501" x2="273.87569" y2="156.41599" gradientUnits="userSpaceOnUse" id="color-3"><stop offset="0" stop-color="#cecece"/><stop offset="1" stop-color="#595959"/></linearGradient><radialGradient cx="323.24513" cy="238.28242" r="35.63773" gradientUnits="userSpaceOnUse" id="color-4"><stop offset="0" stop-color="#ed8828"/><stop offset="1" stop-color="#4f2200"/></radialGradient></defs><g transform="translate(-235.17359,-27.46985)"><g stroke-miterlimit="10"><path d="M415.26047,129.85403c0.30995,10.22411 -2.58379,18.09302 -6.61664,26.04357c-1.5171,2.99089 -2.94169,6.95551 -5.54533,8.57198c-5.99174,3.71998 -16.22576,1.88477 -21.85061,-2.90654c-2.3245,-1.98004 -5.10289,-2.14893 -6.84534,-5.58779c-1.67911,-3.31387 -0.79321,-11.23115 -0.13694,-14.67491c0.3088,-1.62039 1.49256,-1.34263 2.16993,-2.35355c1.12814,-1.6837 2.40382,-5.58491 2.97663,-7.69158c0.54345,-1.99874 -0.10829,-4.81124 0.113,-6.94253c1.0705,-10.30995 -2.67597,-23.01909 0.90211,-32.4705c2.05089,-5.41738 4.82778,-10.02275 9.88744,-8.11301c2.37693,0.89717 3.17644,5.84816 3.25747,8.52068c0.24644,8.12876 -0.08214,15.80792 -0.46832,23.83407c-0.14532,3.02042 -0.27869,5.82721 -0.18244,8.92198c0.01036,0.33343 -0.21171,0.99576 0.03189,1.00026c0.2436,0.0045 -0.01587,-0.66685 -0.01703,-0.99998c-0.00741,-2.13651 -0.12795,-4.83327 0.0965,-6.95109c0.67795,-6.39687 0.74338,-13.36761 2.75882,-19.18063c0.6293,-1.81505 1.49464,-4.68253 3.17521,-4.9595c2.23517,-0.36837 3.83971,3.37597 4.69326,5.66252c2.4132,6.46453 1.98034,14.7089 1.47289,21.59234c-0.02432,0.32982 0.01816,0.66683 0.02509,1.00019c0.00693,0.33336 0.01343,0.66674 0.01648,0.99997c0.02078,2.28005 -0.22838,4.62676 -0.44497,6.88914c-0.00835,0.0872 -0.08626,1.97905 -0.64639,1.63316c-0.17147,-0.10589 -0.10942,-3.60908 -0.1213,-4.00101c-0.11145,-3.67641 -0.72594,-9.68058 1.37574,-12.40319c0.65246,-0.84523 2.75131,-0.3049 3.60359,-0.29699c6.00414,0.05577 5.87307,9.18242 6.0623,15.42413z" fill="#ffa000" stroke="#000000" stroke-width="2.5" stroke-linecap="round"/><path d="M262.31985,112.70208l-0.55491,-20.77757c0,0 5.85731,-22.12786 16.69812,-30.00719c10.84081,-7.87934 42.75196,-13.20245 42.75196,-13.20245c0,0 28.14904,5.48493 42.5679,15.78088c14.41886,10.29595 19.21444,28.3355 19.21444,28.3355l0.55492,20.77758l-8.54705,-1.44276c0,0 -5.36203,-20.02259 -16.56165,-31.20606c-11.19962,-11.18347 -21.4892,-16.05972 -37.75394,-16.61333c-16.26474,-0.55361 -24.02139,3.53705 -34.18229,14.1648c-10.16091,10.62775 -15.71251,32.46315 -15.71251,32.46315z" fill="url(#color-1)" stroke="#000000" stroke-width="2.5" stroke-linecap="butt"/><g stroke="#000000" stroke-width="2.5" stroke-linecap="butt"><path d="M374.13517,94.13258c11.93247,1.36772 21.49888,16.7521 21.36717,34.36198c-0.13171,17.60988 -9.91166,30.77675 -21.84413,29.40902c-11.93247,-1.36772 -21.49888,-16.7521 -21.36717,-34.36198c0.13171,-17.60988 9.91166,-30.77675 21.84413,-29.40902z" fill="#ff8026"/><path d="M367.21651,93.33955c8.58904,0.98449 15.31334,33.66807 15.31334,33.66807c0,0 -7.20127,31.08741 -15.7903,30.10292c-8.58904,-0.98448 -15.44504,-16.0582 -15.31333,-33.66807c0.13171,-17.60988 7.20127,-31.08741 15.79029,-30.10292z" fill="url(#color-2)"/></g><g stroke="#000000" stroke-width="2.5" stroke-linecap="butt"><path d="M288.82471,123.06692c-0.13171,17.60988 -9.92716,32.84944 -21.87876,34.03853c-11.9516,1.18908 -21.53351,-12.12259 -21.4018,-29.73247c0.13171,-17.60988 9.92716,-32.84943 21.87876,-34.03852c11.9516,-1.18908 21.53351,12.12259 21.4018,29.73247z" fill="#ff8026"/><path d="M289.69092,122.98074c-0.13171,17.60987 -7.21242,32.57935 -15.81522,33.43525c-8.60281,0.85591 -15.33826,-30.33573 -15.33826,-30.33573c0,0 7.21242,-32.57935 15.81521,-33.43525c8.60281,-0.85592 15.46998,12.72587 15.33827,30.33573z" fill="url(#color-3)"/></g><path d="M275.25126,338.69545l-1.826,-147.17082c0,0 6.10866,-25.82234 15.11953,-26.42708c8.94853,-0.60056 30.15878,-1.62699 48.68569,-2.87039c20.09461,-1.34861 27.03364,15.65667 27.03364,15.65667l-0.61951,162.48973z" fill="#000000" stroke="#000000" stroke-width="2.5" stroke-linecap="butt"/><path d="M336.89987,174.25759c-0.19561,6.40218 -7.63492,11.5377 -16.61614,11.47052c-8.98122,-0.06717 -16.10334,-5.31161 -15.90773,-11.71378c0.19561,-6.40218 7.63491,-11.5377 16.61613,-11.47052c8.98122,0.06717 16.10335,5.31162 15.90774,11.71378z" fill="#ffa000" stroke="#000000" stroke-width="2.5" stroke-linecap="butt"/><path d="M375.15735,123.11264c-0.20944,28.00212 -24.6665,53.46549 -54.91829,53.23922c-30.25179,-0.22626 -54.84257,-26.05647 -54.63315,-54.05859c0.20944,-28.00211 24.90315,-50.5189 55.15495,-50.29264c30.25179,0.22626 54.60593,23.10989 54.39651,51.112z" fill="#ffa000" stroke="#000000" stroke-width="2.5" stroke-linecap="butt"/><path d="M351.60244,118.86213c-0.01236,1.65224 -2.01079,2.97677 -4.46362,2.95843c-2.45283,-0.01835 -4.43123,-1.37263 -4.41887,-3.02487c0.01236,-1.65223 2.01079,-2.97677 4.46362,-2.95843c2.45283,0.01835 4.43123,1.37263 4.41887,3.02487z" fill="#ffffff" stroke="#000000" stroke-width="2.5" stroke-linecap="butt"/><path d="M299.42768,118.33271c-0.01042,1.39332 -2.00729,2.50797 -4.46011,2.48962c-2.45283,-0.01835 -4.4328,-1.16273 -4.42238,-2.55606c0.01042,-1.39333 2.00729,-2.50797 4.46011,-2.48962c2.45283,0.01835 4.4328,1.16273 4.42238,2.55606z" fill="#ffffff" stroke="#000000" stroke-width="2.5" stroke-linecap="butt"/><path d="M336.36332,120.65017c-0.02026,2.70876 -6.68893,4.8549 -14.89488,4.79352c-8.20597,-0.06137 -14.84178,-2.30702 -14.82152,-5.01578c0.02026,-2.70876 6.68893,-4.8549 14.89488,-4.79352c8.20597,0.06137 14.84178,2.30702 14.82152,5.01578z" fill-opacity="0.18431" fill="#ff0505" stroke="none" stroke-width="0" stroke-linecap="butt"/><path d="M280.29082,117.53916c0,0 9.61046,-2.97891 14.62218,-2.94142c1.86689,0.01396 4.48651,0.45689 7.03902,1.00724c4.29978,0.9271 8.40914,2.15908 8.40914,2.15908" fill="none" stroke="#000000" stroke-width="2.5" stroke-linecap="round"/><path d="M332.58378,118.36611c0,0 9.61046,-2.97891 14.62218,-2.94142c1.86689,0.01396 4.48651,0.45689 7.03902,1.00724c4.29978,0.9271 8.40914,2.15908 8.40914,2.15908" fill="none" stroke="#000000" stroke-width="2.5" stroke-linecap="round"/><path d="M334.09348,91.3265c0,0 7.1308,-7.79154 10.73581,-7.76458c1.54473,0.01156 4.61021,-0.01594 6.67428,1.50721c3.09224,2.28189 5.0337,6.42523 5.0337,6.42523" fill="none" stroke="#000000" stroke-width="2.5" stroke-linecap="round"/><path d="M256.64508,44.90345c-0.04042,5.4038 -4.59985,9.75061 -10.18379,9.70885c-5.58393,-0.04176 -10.07785,-4.45628 -10.03743,-9.86008c0.04042,-5.4038 4.59985,-9.75061 10.18379,-9.70885c5.58393,0.04176 10.07785,4.45628 10.03743,9.86008z" fill="#ff8026" stroke="#000000" stroke-width="2.5" stroke-linecap="butt"/><path d="M414.23101,38.58022c-0.04042,5.4038 -4.59985,9.75061 -10.18379,9.70885c-5.58393,-0.04176 -10.07786,-4.45628 -10.03744,-9.86008c0.04042,-5.4038 4.59986,-9.7506 10.1838,-9.70884c5.58393,0.04176 10.07785,4.45628 10.03743,9.86007z" fill="#ff8026" stroke="#000000" stroke-width="2.5" stroke-linecap="butt"/><path d="M276.18401,92.66997l-23.84961,-38.33992" fill="none" stroke="#000000" stroke-width="2.5" stroke-linecap="round"/><path d="M399.47871,48.58107l-30.68065,46.41242" fill="none" stroke="#000000" stroke-width="2.5" stroke-linecap="round"/><path d="M293.78459,272.09303l2.66461,-69.64976l22.73468,41.43593l26.27067,-1.41128l-1.30826,31.60954l-37.84783,-27.0791l46.29101,-26.98573" fill="none" stroke="url(#color-4)" stroke-width="2.5" stroke-linecap="round"/><path d="M322.32943,164.86166c-0.0196,2.62048 -1.20801,4.73602 -2.65438,4.72521c-1.44638,-0.01081 -2.60301,-2.1439 -2.58341,-4.76439c0.0196,-2.62048 1.20801,-4.73602 2.65438,-4.72521c1.44638,0.01081 2.60301,2.1439 2.58341,4.76439z" fill="none" stroke="#000000" stroke-width="2.5" stroke-linecap="butt"/></g></g></svg>