<svg version="1.1" xmlns="http://www.w3.org/2000/svg" xmlns:xlink="http://www.w3.org/1999/xlink" width="184.04213" height="292.80662" viewBox="0,0,184.04213,292.80662"><defs><linearGradient x1="316.46062" y1="106.13421" x2="316.68506" y2="134.14007" gradientUnits="userSpaceOnUse" id="color-1"><stop offset="0" stop-color="#7d542d"/><stop offset="1" stop-color="#000000"/></linearGradient><linearGradient x1="270.79143" y1="115.44686" x2="287.89302" y2="195.1922" gradientUnits="userSpaceOnUse" id="color-2"><stop offset="0" stop-color="#996237"/><stop offset="1" stop-color="#6f5927"/></linearGradient><linearGradient x1="363.02954" y1="116.8192" x2="348.16581" y2="198.79059" gradientUnits="userSpaceOnUse" id="color-3"><stop offset="0" stop-color="#996237"/><stop offset="1" stop-color="#6f5927"/></linearGradient><linearGradient x1="318.32539" y1="64.65663" x2="318.70005" y2="111.40736" gradientUnits="userSpaceOnUse" id="color-4"><stop offset="0" stop-color="#7d542d"/><stop offset="1" stop-color="#3b2815"/></linearGradient></defs><g transform="translate(-224.48085,-63.25882)"><g stroke-miterlimit="10"><path d="M406.07087,119.41989c0.06198,7.73361 -39.95741,14.32405 -89.3858,14.72017c-49.42839,0.39613 -89.54827,-5.55207 -89.61025,-13.28568c-0.02307,-2.87809 5.50507,-5.59785 15.00345,-7.89893c3.71855,-0.90085 8.04561,-1.73754 12.88631,-2.49444c16.01941,-2.50482 37.66406,-4.13581 61.49604,-4.3268c49.42839,-0.39613 89.54827,5.55208 89.61025,13.28568z" fill="url(#color-1)" stroke="#000000" stroke-width="2.5" stroke-linecap="butt"/><path d="M267.37243,116.47742c8.2884,-0.31328 17.47434,-0.10877 24.06033,2.96431c6.7195,3.13538 10.94894,8.87787 12.73652,14.93787c1.20285,4.07782 4.48546,7.7259 5.95136,11.57642c2.07439,5.44897 2.14902,11.15184 2.76538,16.97705c1.0765,10.17408 -11.16424,20.76123 -20.80763,27.60376c-1.61782,1.14791 -6.04274,5.45076 -7.95665,5.77716c-1.95181,0.33286 -3.67141,-4.94222 -4.00205,-6.0052c-1.78274,-5.73116 -2.11875,-11.88105 0.82587,-18.4305c0.56668,-1.26043 4.18392,-6.74108 2.99556,-7.71516c-0.6867,-0.56289 -4.37277,1.42769 -5.21375,1.75864c-5.14693,2.02548 -10.19065,5.06351 -14.65753,7.94542c-0.72921,0.47048 -3.49103,3.42874 -4.52361,3.08626c-1.64641,-0.54608 0.36594,-6.38633 0.64267,-7.6519c1.68323,-7.69774 3.94473,-15.82885 8.86758,-23.23735c1.61812,-2.43511 3.36793,-4.9528 5.09841,-7.39001c0.19472,-0.27424 0.78616,-0.56807 0.64076,-0.80285c-0.46316,-0.74802 -6.49735,2.22763 -7.24788,2.62158c-4.72985,2.48268 -10.84909,4.84729 -15.21102,8.48244c-0.60296,0.5025 -5.61368,4.53688 -6.08721,4.56575c-0.36048,0.02198 -0.47507,-0.37651 -0.54377,-0.64325c-0.74877,-2.90739 0.85326,-7.18366 1.54584,-10.35073c1.89424,-8.66224 5.51994,-15.83334 14.43251,-22.47101c1.64571,-1.22566 2.36867,-2.34874 4.49823,-2.96806z" fill="url(#color-2)" stroke="#000000" stroke-width="2.5" stroke-linecap="round"/><path d="M367.68052,119.13921c2.14479,0.91568 2.89833,2.189 4.57664,3.68427c9.08903,8.09784 12.91106,16.10603 15.04481,25.47288c0.78015,3.4247 2.49976,8.13103 1.83271,11.10413c-0.0612,0.27278 -0.16459,0.67879 -0.52534,0.61115c-0.47387,-0.08883 -5.59224,-4.96063 -6.2086,-5.56479c-4.45905,-4.37082 -10.63835,-7.61874 -15.43285,-10.81984c-0.76079,-0.50795 -6.87215,-4.38967 -7.31403,-3.65811c-0.13869,0.22961 0.46034,0.61237 0.66252,0.92554c1.79673,2.78316 3.61505,5.65355 5.29944,8.42064c5.12457,8.41847 7.61044,17.27059 9.50652,25.59447c0.31172,1.36848 2.48485,7.77447 0.85524,8.14716c-1.02206,0.23375 -3.86365,-3.226 -4.60528,-3.81201c-4.54291,-3.58955 -9.66647,-7.41489 -14.86494,-10.18534c-0.84941,-0.45269 -4.58741,-3.00614 -5.25778,-2.49736c-1.16007,0.88044 2.6064,7.10524 3.20765,8.50408c3.12427,7.26874 2.95989,13.71156 1.33852,19.5344c-0.30073,1.07997 -1.87171,6.42975 -3.83094,5.83803c-1.92118,-0.58022 -6.46178,-5.6628 -8.11002,-7.07267c-9.82484,-8.40401 -22.34889,-21.07661 -21.55685,-31.67104c0.45349,-6.06588 0.36919,-12.0696 2.2898,-17.55893c1.35721,-3.87903 4.53506,-7.32055 5.62318,-11.4717c1.61703,-6.16896 5.6825,-11.70198 12.30825,-14.17898c6.4941,-2.42781 15.66562,-1.51038 23.95486,-0.1577z" fill="url(#color-3)" stroke="#000000" stroke-width="2.5" stroke-linecap="round"/><path d="M270.83352,351.93163l-3.36595,-147.25355c0,0 6.59452,-25.75188 16.65964,-26.23779c9.99548,-0.48254 33.69082,-1.22909 54.38531,-2.22813c22.44561,-1.08359 29.65616,25.73784 29.65616,25.73784l1.46844,152.82855z" fill="#7d5e41" stroke="#000000" stroke-width="2.5" stroke-linecap="butt"/><path d="M296.73051,184.22969l21.66917,-17.15823l20.3522,21.32509l-20.77597,18.47503z" fill="#f5c06a" stroke="#000000" stroke-width="2.5" stroke-linecap="butt"/><path d="M372.3603,136.48442c-1.71267,28.5028 -27.50342,53.15071 -57.70159,51.33616c-30.19817,-1.81455 -53.36835,-29.40443 -51.65566,-57.90722c1.71268,-28.50279 27.58155,-50.1379 57.77972,-48.32334c30.19817,1.81455 53.29024,26.39161 51.57757,54.8944z" fill="#f5c06a" stroke="#000000" stroke-width="2.5" stroke-linecap="butt"/><path d="M331.83898,127.84271c0.07642,2.70776 -6.51142,5.09052 -14.71433,5.32202c-8.20293,0.23152 -14.91466,-1.7759 -14.99107,-4.48366c-0.07642,-2.70776 6.51142,-5.09052 14.71433,-5.32202c8.20293,-0.23152 14.91466,1.7759 14.99107,4.48366z" fill-opacity="0.18431" fill="#520000" stroke="none" stroke-width="0" stroke-linecap="butt"/><path d="M370.8155,91.20573c0.04131,5.15499 3.7871,16.35234 -0.35893,18.49863c-8.89176,4.60304 -32.18807,-4.09083 -52.11469,-3.93114c-20.46211,0.16399 -41.79211,7.68376 -50.72512,2.79389c-3.82247,-2.09239 -2.56987,-11.65553 -2.6088,-16.51342c-0.08559,-10.68007 10.12057,-20.11029 25.45008,-25.36871c7.93819,-2.72301 14.91085,1.30851 24.87907,1.22863c8.07493,-0.06471 18.07473,-4.75814 24.93576,-3.01817c17.96459,4.55588 30.44863,14.57976 30.54264,26.31029z" fill="url(#color-4)" stroke="#000000" stroke-width="2.5" stroke-linecap="butt"/><path d="M285.7279,127.12185c0.13608,2.23071 -1.73838,4.16015 -4.18672,4.30951c-2.44835,0.14935 -4.54344,-1.53793 -4.67952,-3.76864c-0.13608,-2.23072 1.73838,-4.16016 4.18673,-4.30952c2.44835,-0.14935 4.54344,1.53793 4.67952,3.76865z" fill="#ffffff" stroke="#000000" stroke-width="2.5" stroke-linecap="butt"/><path d="M334.8709,126.15577c0.13608,2.23071 -1.73838,4.16015 -4.18672,4.30951c-2.44835,0.14935 -4.54344,-1.53793 -4.67952,-3.76864c-0.13608,-2.23072 1.73838,-4.16016 4.18673,-4.30952c2.44835,-0.14935 4.54344,1.53793 4.67952,3.76865z" fill="#ffffff" stroke="#000000" stroke-width="2.5" stroke-linecap="butt"/><path d="M267.5289,101.49153l31.84997,-4.03237l13.35184,0.81436l4.84377,-1.88544l13.76981,-2.09542l7.10796,-0.05684l-3.37253,1.11683l-9.2183,3.24278l-2.60722,0.83506l7.06636,-0.59576l10.06042,-1.24832l11.40768,-0.28655l6.22703,-0.34447l-2.71237,0.72114l-9.05282,2.37165l-0.68123,0.38277l5.20369,0.19427l16.47613,1.12338l4.51259,1.28671l0.9774,0.18824l-3.08058,0.05358l-11.37435,0.4168l-4.16387,0.11921l2.94887,0.53291l9.78056,2.9035l0.82696,0.31787l-1.03742,0.05899l-8.16152,-0.16252l-1.04613,-0.009l-3.12451,-0.06901l4.08916,0.43808l9.28364,3.10596l0.82117,0.32144l-1.04566,0.00866l-10.82069,-1.86248l-34.10968,-7.22775l-9.25336,0.21995l-29.83524,1.18597l-15.16645,0.88901l-1.19757,-2.88013z" fill="#ffad00" stroke="#000000" stroke-width="2.5" stroke-linecap="round"/><path d="M407.2729,116.70118c0.02162,2.69758 -4.44198,3.22938 -12.26221,2.75523c-15.61837,-0.94697 -44.62539,-5.90636 -78.03062,-5.63865c-50.13145,0.40176 -91.18443,12.42346 -91.24922,4.33833c-0.06479,-8.08514 40.52225,-14.96511 90.65371,-15.36687c50.13145,-0.40176 90.82355,5.82684 90.88834,13.91197z" fill="#7d542d" stroke="#000000" stroke-width="2.5" stroke-linecap="butt"/><path d="M276.94399,125.09028c0,0 7.14387,-3.19775 11.74815,-3.30551c4.68009,-0.10952 16.10864,2.6536 16.10864,2.6536" fill="none" stroke="#000000" stroke-width="2.5" stroke-linecap="round"/><path d="M265.09453,94.78304l-0.04767,-5.94911c0,0 34.45077,-2.34548 51.97347,-2.4859c17.73824,-0.14216 53.81723,1.63809 53.81723,1.63809l0.04767,5.94911c0,0 -36.0413,-2.2979 -53.82139,-2.1554c-17.47833,0.14007 -51.96932,3.00322 -51.96932,3.00322z" fill="#ffffff" stroke="#000000" stroke-width="2.5" stroke-linecap="butt"/><path d="M321.77123,353.98162l-1.61543,-146.50544" fill="none" stroke="#000000" stroke-width="2.5" stroke-linecap="round"/><path d="M327.72849,216.24191l0.38117,-7.50551" fill="none" stroke="#000000" stroke-width="2.5" stroke-linecap="round"/><path d="M329.24687,240.50236l-0.51202,-8.8223" fill="none" stroke="#000000" stroke-width="2.5" stroke-linecap="round"/><path d="M329.47675,269.18635l0.1061,13.23877" fill="none" stroke="#000000" stroke-width="2.5" stroke-linecap="round"/><path d="M329.73491,301.40067l-0.34933,11.47712" fill="none" stroke="#000000" stroke-width="2.5" stroke-linecap="round"/><path d="M265.81476,310.29802l-0.13792,-17.21039c0,0 36.88032,3.67631 54.75205,3.53309c18.01882,-0.1444 52.92322,-4.39601 52.92322,-4.39601l0.13792,17.21039c0,0 -34.34926,6.01245 -51.58519,6.15057c-18.55801,0.14872 -56.09007,-5.28765 -56.09007,-5.28765z" fill="#624122" stroke="#000000" stroke-width="2.5" stroke-linecap="butt"/><path d="M350.6321,204.27972l6.09139,9.90214l6.84084,-0.05483l-6.16246,7.09797l0.7033,10.15263l-6.89566,-6.78602l-9.27194,7.1229l3.01811,-11.42632l-9.37162,-5.315l9.73637,-0.90728z" fill="#ffffff" stroke="#000000" stroke-width="2.5" stroke-linecap="round"/><path d="M348.30337,217.46296l2.45059,-10.24791l2.4197,10.20888l7.09579,-1.9077l-5.71103,4.52673l2.2085,8.16491l-5.61146,-7.35834l-7.14324,8.14245l3.72779,-8.89437l-7.04912,-4.42446z" fill-opacity="0.33725" fill="#000000" stroke="#000000" stroke-width="0" stroke-linecap="round"/><path d="M324.67162,181.04414c0.20926,1.57243 -2.49335,2.80572 -6.0364,2.75462c-3.54307,-0.0511 -6.58489,-1.36723 -6.79412,-2.93966c-0.20926,-1.57243 2.49335,-2.80572 6.0364,-2.75462c3.54307,0.0511 6.58489,1.36723 6.79412,2.93966z" fill="none" stroke="#000000" stroke-width="2.5" stroke-linecap="butt"/><path d="M305.35737,131.57948c0,0 -11.38281,2.94593 -16.06404,2.91143c-4.60541,-0.03394 -11.79962,-3.11679 -11.79962,-3.11679" fill="none" stroke="#000000" stroke-width="2.5" stroke-linecap="round"/><path d="M325.4389,123.48641c0,0 7.14387,-3.19775 11.74815,-3.30551c4.68009,-0.10952 16.10864,2.6536 16.10864,2.6536" fill="none" stroke="#000000" stroke-width="2.5" stroke-linecap="round"/><path d="M353.8523,129.97562c0,0 -11.38281,2.94593 -16.06404,2.91143c-4.60541,-0.03394 -11.79962,-3.11679 -11.79962,-3.11679" fill="none" stroke="#000000" stroke-width="2.5" stroke-linecap="round"/></g></g></svg>