<svg version="1.1" xmlns="http://www.w3.org/2000/svg" xmlns:xlink="http://www.w3.org/1999/xlink" width="172.44766" height="311.91724" viewBox="0,0,172.44766,311.91724"><defs><linearGradient x1="309.70589" y1="165.99646" x2="311.95264" y2="344.81472" gradientUnits="userSpaceOnUse" id="color-1"><stop offset="0" stop-color="#383838"/><stop offset="1" stop-color="#494949"/></linearGradient><linearGradient x1="341.15296" y1="166.66259" x2="343.42448" y2="347.45276" gradientUnits="userSpaceOnUse" id="color-2"><stop offset="0" stop-color="#666666"/><stop offset="1" stop-color="#4b4b4b"/></linearGradient><linearGradient x1="279.33616" y1="166.19052" x2="281.60768" y2="346.98069" gradientUnits="userSpaceOnUse" id="color-3"><stop offset="0" stop-color="#666666"/><stop offset="1" stop-color="#4b4b4b"/></linearGradient><radialGradient cx="343.12487" cy="95.74626" r="22.98116" gradientUnits="userSpaceOnUse" id="color-4"><stop offset="0" stop-color="#000000" stop-opacity="0.92549"/><stop offset="1" stop-color="#000000" stop-opacity="0"/></radialGradient><radialGradient cx="273.98697" cy="100.57625" r="25.35587" gradientUnits="userSpaceOnUse" id="color-5"><stop offset="0" stop-color="#000000" stop-opacity="0.92549"/><stop offset="1" stop-color="#000000" stop-opacity="0"/></radialGradient><linearGradient x1="264.35322" y1="40.3761" x2="268.96063" y2="125.45023" gradientUnits="userSpaceOnUse" id="color-6"><stop offset="0" stop-color="#9c9c9c"/><stop offset="1" stop-color="#2c2c2c"/></linearGradient><linearGradient x1="351.00865" y1="40.45902" x2="352.11749" y2="128.71129" gradientUnits="userSpaceOnUse" id="color-7"><stop offset="0" stop-color="#9c9c9c"/><stop offset="1" stop-color="#2c2c2c"/></linearGradient><linearGradient x1="275.5333" y1="183.85884" x2="275.79447" y2="204.64589" gradientUnits="userSpaceOnUse" id="color-8"><stop offset="0" stop-color="#878787"/><stop offset="1" stop-color="#848484"/></linearGradient></defs><g transform="translate(-222.0807,-37.2078)"><g stroke-miterlimit="10"><path d="M264.86404,341.76744l-3.97935,-147.23742c0,0 6.30139,-25.77941 16.10374,-26.30783c9.73455,-0.52476 32.8132,-1.3714 52.96745,-2.45788c21.85965,-1.1784 29.01122,25.61222 29.01122,25.61222l2.15746,152.82037z" fill="url(#color-1)" stroke="#000000" stroke-width="2.5" stroke-linecap="butt"/><path d="M320.50986,347.74067l8.51602,-98.82373c0,0 -7.48791,-80.91715 2.71556,-80.1416c9.40744,0.71505 14.23096,-2.54052 18.77476,-2.19516c4.57547,0.34777 13.92692,29.68215 13.92692,29.68215l0.85813,147.27663z" fill="url(#color-2)" stroke="#000000" stroke-width="2.5" stroke-linecap="butt"/><path d="M259.6395,343.61779l-2.84245,-147.2517c0,0 8.61147,-29.56007 13.17675,-30.02269c4.5337,-0.45941 9.43749,2.67393 18.82399,1.72275c10.18076,-1.03167 4.72826,80.04807 4.72826,80.04807l10.99626,98.57857z" fill="url(#color-3)" stroke="#000000" stroke-width="2.5" stroke-linecap="butt"/><path d="M324.68454,179.2828c0.09517,7.57468 -5.8481,13.7908 -13.27469,13.88411c-7.42658,0.09331 -13.52416,-5.97153 -13.61933,-13.5462c-0.09517,-7.57468 5.8481,-13.7908 13.27469,-13.88411c7.42658,-0.09331 13.52416,5.97153 13.61933,13.5462z" fill="#9c9c9c" stroke="#000000" stroke-width="2.5" stroke-linecap="butt"/><path d="M365.05664,128.10338c-1.58298,28.5103 -27.26131,53.2753 -57.46743,51.59816c-30.20611,-1.67713 -53.50158,-29.16131 -51.9186,-57.6716c1.58298,-28.51029 27.35315,-50.26288 57.55926,-48.58573c30.20611,1.67713 53.40976,26.14887 51.82679,54.65916z" fill="#9c9c9c" stroke="#000000" stroke-width="2.5" stroke-linecap="butt"/><path d="M315.05129,123.61509c0.03403,2.70863 -6.59028,4.98798 -14.79583,5.09108c-8.20555,0.1031 -14.88504,-2.0091 -14.91907,-4.71773c-0.03403,-2.70863 6.59028,-4.98798 14.79583,-5.09108c8.20555,-0.1031 14.88504,2.0091 14.91907,4.71773z" fill-opacity="0.18431" fill="#000000" stroke="none" stroke-width="0" stroke-linecap="butt"/><path d="M294.28279,173.87931l26.91957,-0.33823" fill="none" stroke="#000000" stroke-width="2.5" stroke-linecap="round"/><path d="M262.57201,142.26919c0.51726,-0.09697 2.96894,0.0119 1.71912,1.37454c-0.27529,0.30014 -1.69655,0.18361 -1.95982,-0.04461c-0.40453,-0.35069 0.7377,-1.10524 0.43423,-1.54629c-0.18894,-0.27461 -0.57994,0.70934 -0.85422,0.5199c-0.27426,-0.18944 0.12253,-0.65531 0.18379,-0.98297z" fill="none" stroke="#000000" stroke-width="2.5" stroke-linecap="round"/><path d="M273.45657,143.47101c-2.66453,-0.83061 1.17857,-1.91749 1.42217,-0.81223c0.43454,1.97161 -4.40239,-0.71618 -0.18122,-0.76921" fill="none" stroke="#000000" stroke-width="2.5" stroke-linecap="round"/><path d="M268.2241,147.91253c4.49826,-0.73341 -0.22656,3.30799 -0.92468,1.89278c-0.30279,-0.61379 1.1448,-1.26926 0.83106,-1.87752z" fill="none" stroke="#000000" stroke-width="2.5" stroke-linecap="round"/><path d="M334.09984,142.2545c0.57689,-0.1886 1.90932,-0.49111 1.85103,0.03168c-0.00294,0.0264 -3.77057,0.91061 -1.99073,-1.15951" fill="none" stroke="#000000" stroke-width="2.5" stroke-linecap="round"/><path d="M343.14894,142.39341c1.01886,1.78645 -2.09974,0.90124 -0.01047,-0.01836z" fill="none" stroke="#000000" stroke-width="2.5" stroke-linecap="round"/><path d="M339.15741,147.34945c-0.31565,0.1186 -3.00136,0.99792 -2.2225,-0.47096c0.29257,-0.55178 2.64274,-0.72532 2.34986,0.4304c-0.13119,0.51768 -2.482,1.18355 -1.12868,-0.3905z" fill="none" stroke="#000000" stroke-width="2.5" stroke-linecap="round"/><path d="M323.23544,81.20928c2.43751,-14.32502 13.3183,-19.42932 24.30293,-11.40076c10.98463,8.02856 17.91345,26.14971 15.47594,40.47474c-2.43751,14.32502 -13.31831,19.42932 -24.30294,11.40076c-10.98463,-8.02856 -17.91344,-26.14971 -15.47593,-40.47472z" fill="url(#color-4)" stroke="#000000" stroke-width="0" stroke-linecap="butt"/><path d="M295.59424,85.17374c3.01309,14.4784 -4.21822,33.11143 -16.15158,41.61801c-11.93336,8.50659 -24.04986,3.66546 -27.06294,-10.81296c-3.01309,-14.47842 4.21823,-33.11144 16.15159,-41.61803c11.93336,-8.50659 24.04985,-3.66545 27.06293,10.81297z" fill="url(#color-5)" stroke="#000000" stroke-width="0" stroke-linecap="butt"/><path d="M259.33857,125.97134l-34.76811,-83.44069l70.26097,37.03316c0,0 -4.29058,18.7926 -9.52101,25.63148c-6.37322,8.33311 -25.97185,20.77607 -25.97185,20.77607z" fill="url(#color-6)" stroke="#000000" stroke-width="2.5" stroke-linecap="butt"/><path d="M324.74574,78.69128l67.53185,-38.75078l-30.17859,88.6454c0,0 -19.43534,-16.45669 -25.92277,-25.12229c-5.90968,-7.89386 -11.43049,-24.77232 -11.43049,-24.77232z" fill="url(#color-7)" stroke="#000000" stroke-width="2.5" stroke-linecap="butt"/><path d="M275.95303,121.64595c0.04593,2.2344 -1.90493,4.08657 -4.3573,4.13697c-2.45239,0.05039 -4.47765,-1.72009 -4.52358,-3.95448c-0.04593,-2.2344 1.90493,-4.08657 4.3573,-4.13697c2.45239,-0.05039 4.47764,1.72009 4.52356,3.95449z" fill="#ffffff" stroke="#000000" stroke-width="2.5" stroke-linecap="butt"/><path d="M329.31076,120.86344c0.04593,2.2344 -1.90492,4.08657 -4.3573,4.13697c-2.45239,0.05039 -4.47764,-1.72009 -4.52356,-3.95448c-0.04593,-2.2344 1.90492,-4.08656 4.3573,-4.13696c2.45239,-0.05039 4.47765,1.72008 4.52357,3.95447z" fill="#ffffff" stroke="#000000" stroke-width="2.5" stroke-linecap="butt"/><path d="M285.20871,123.81581l-6.31997,6.6661" fill="none" stroke="#000000" stroke-width="2.5" stroke-linecap="round"/><path d="M267.9347,117.81209l24.33262,-0.12277" fill="none" stroke="#000000" stroke-width="2.5" stroke-linecap="round"/><path d="M326.90143,220.6263l-29.44816,-1.36124" fill="none" stroke="#000000" stroke-width="2.5" stroke-linecap="round"/><path d="M296.17028,231.97693l29.42641,-0.36973" fill="none" stroke="#000000" stroke-width="2.5" stroke-linecap="round"/><path d="M294.86193,242.66934l34.31995,-1.29683" fill="none" stroke="#000000" stroke-width="2.5" stroke-linecap="round"/><path d="M295.29541,254.20548l32.88834,-0.41322" fill="none" stroke="#000000" stroke-width="2.5" stroke-linecap="round"/><path d="M326.89353,265.92714l-28.55731,0.64735" fill="none" stroke="#000000" stroke-width="2.5" stroke-linecap="round"/><path d="M325.61779,279.21601l-25.95361,1.19171" fill="none" stroke="#000000" stroke-width="2.5" stroke-linecap="round"/><path d="M322.31535,291.95325l-19.89886,0.82709" fill="none" stroke="#000000" stroke-width="2.5" stroke-linecap="round"/><path d="M303.40523,302.57827l18.17151,-0.51685" fill="none" stroke="#000000" stroke-width="2.5" stroke-linecap="round"/><path d="M304.41207,313.81867l18.16789,-0.80535" fill="none" stroke="#000000" stroke-width="2.5" stroke-linecap="round"/><path d="M297.60401,208.29865l29.73666,1.35761" fill="none" stroke="#000000" stroke-width="2.5" stroke-linecap="round"/><path d="M298.05777,198.48259l26.55235,0.532" fill="none" stroke="#000000" stroke-width="2.5" stroke-linecap="round"/><path d="M332.41566,227.38342l-0.85248,-21.91832l29.72216,0.20364l-1.49535,18.77387" fill="none" stroke="#000000" stroke-width="2.5" stroke-linecap="round"/><path d="M345.69365,227.79368l0.10809,54.53266l-0.38191,61.46378" fill="none" stroke="#000000" stroke-width="2.5" stroke-linecap="round"/><path d="M286.9146,194.11101c0.07212,5.74018 -4.90652,10.45682 -11.12012,10.53489c-6.2136,0.07807 -11.30919,-4.51198 -11.38131,-10.25217c-0.07212,-5.74018 4.90653,-10.45681 11.12013,-10.53488c6.2136,-0.07807 11.30918,4.51198 11.3813,10.25216z" fill="url(#color-8)" stroke="#000000" stroke-width="2.5" stroke-linecap="butt"/></g></g></svg>