<svg version="1.1" xmlns="http://www.w3.org/2000/svg" xmlns:xlink="http://www.w3.org/1999/xlink" width="186.06352" height="310.69705" viewBox="0,0,186.06352,310.69705"><defs><linearGradient x1="313.93021" y1="180.01981" x2="329.66249" y2="358.17104" gradientUnits="userSpaceOnUse" id="color-1"><stop offset="0" stop-color="#060606"/><stop offset="1" stop-color="#212121"/></linearGradient><linearGradient x1="278.09094" y1="174.44732" x2="294.5447" y2="360.76847" gradientUnits="userSpaceOnUse" id="color-2"><stop offset="0" stop-color="#2e65d1"/><stop offset="1" stop-color="#002994"/></linearGradient><linearGradient x1="347.31716" y1="169.28676" x2="363.77094" y2="355.60796" gradientUnits="userSpaceOnUse" id="color-3"><stop offset="0" stop-color="#2d63d1"/><stop offset="1" stop-color="#002994"/></linearGradient><linearGradient x1="314.21044" y1="179.54686" x2="316.19014" y2="201.96483" gradientUnits="userSpaceOnUse" id="color-4"><stop offset="0" stop-color="#222222"/><stop offset="1" stop-color="#bebebe"/></linearGradient><linearGradient x1="266.40967" y1="94.01104" x2="314.95151" y2="188.73292" gradientUnits="userSpaceOnUse" id="color-5"><stop offset="0" stop-color="#1e1e1e"/><stop offset="1" stop-color="#bebebe"/></linearGradient><radialGradient cx="265.93256" cy="106.40436" r="82.17255" gradientUnits="userSpaceOnUse" id="color-6"><stop offset="0" stop-color="#717171"/><stop offset="1" stop-color="#4b4b4b"/></radialGradient><linearGradient x1="274.66974" y1="39.29747" x2="282.74893" y2="57.27368" gradientUnits="userSpaceOnUse" id="color-7"><stop offset="0" stop-color="#000000" stop-opacity="0.19216"/><stop offset="1" stop-color="#a9a9a9" stop-opacity="0.21961"/></linearGradient><linearGradient x1="278.24984" y1="45.5472" x2="284.32042" y2="59.05428" gradientUnits="userSpaceOnUse" id="color-8"><stop offset="0" stop-color="#000000" stop-opacity="0.19216"/><stop offset="1" stop-color="#a9a9a9" stop-opacity="0.21961"/></linearGradient><linearGradient x1="227.1539" y1="93.90223" x2="242.69837" y2="128.48871" gradientUnits="userSpaceOnUse" id="color-9"><stop offset="0" stop-color="#000000" stop-opacity="0.19216"/><stop offset="1" stop-color="#a9a9a9" stop-opacity="0.21961"/></linearGradient><linearGradient x1="266.61041" y1="78.47494" x2="278.84376" y2="105.69416" gradientUnits="userSpaceOnUse" id="color-10"><stop offset="0" stop-color="#000000" stop-opacity="0.19216"/><stop offset="1" stop-color="#a9a9a9" stop-opacity="0.21961"/></linearGradient><linearGradient x1="248.85478" y1="65.66805" x2="269.43827" y2="103.98088" gradientUnits="userSpaceOnUse" id="color-11"><stop offset="0" stop-color="#696969"/><stop offset="1" stop-color="#212121"/></linearGradient></defs><g transform="translate(-196.96658,-52.84375)"><g stroke-miterlimit="10"><path d="M286.0716,358.36773l-14.90292,-146.53288c0,0 3.79915,-26.13372 12.73515,-27.32965c8.87418,-1.18765 29.9435,-3.60705 48.31648,-6.06597c19.92765,-2.66698 28.36195,13.82159 28.36195,13.82159l13.82474,161.95892z" fill="url(#color-1)" stroke="#000000" stroke-width="0" stroke-linecap="butt" stroke-linejoin="miter"/><path d="M273.10209,358.84174l-14.64246,-141.01229c0,0 1.03231,-17.35109 5.37145,-18.15973c4.30914,-0.80305 23.72973,-18.52069 32.6513,-20.18332c9.67651,-1.80331 -6.9953,19.80123 -6.9953,19.80123c0,0 3.7285,30.35566 7.59989,59.11518c2.0981,15.58619 4.23815,30.70356 5.84944,40.26622c4.36641,25.91379 13.43498,60.17197 13.43498,60.17197c0,0 -25.10519,4.69967 -32.79364,4.6998c-6.55214,0.00011 -10.47567,-4.69905 -10.47567,-4.69905z" fill="url(#color-2)" stroke="#000000" stroke-width="0" stroke-linecap="butt" stroke-linejoin="miter"/><path d="M343.64052,360.54868c0,0 2.45844,-36.1451 2.05563,-62.70772c-0.42294,-27.8888 -4.53581,-100.8405 -4.53581,-100.8405c0,0 -18.76721,-15.80332 -9.68291,-17.07107c8.37558,-1.16884 29.93163,5.2785 33.97703,4.71393c4.07361,-0.56849 10.60326,18.91427 10.60326,18.91427l6.8459,143.48164c0,0 1.31823,6.03841 -4.55671,8.05981c-7.0109,2.41228 -34.70637,5.44963 -34.70637,5.44963z" fill="url(#color-3)" stroke="#000000" stroke-width="0" stroke-linecap="butt" stroke-linejoin="miter"/><path d="M328.30617,189.59851c0.54668,6.19056 -4.87786,11.72715 -12.11602,12.36634c-7.2382,0.63919 -13.54905,-3.86107 -14.09572,-10.05161c-0.54668,-6.19056 4.87786,-11.72715 12.11602,-12.36634c7.2382,-0.63919 13.54905,3.86107 14.09572,10.05161z" fill="url(#color-4)" stroke="#000000" stroke-width="0" stroke-linecap="butt" stroke-linejoin="miter"/><path d="M307.35704,242.65384l26.92337,-2.11177" fill="none" stroke="#ffffff" stroke-width="2.5" stroke-linecap="round" stroke-linejoin="miter"/><path d="M321.56055,256.0176l-2.21248,-25.054" fill="none" stroke="#ffffff" stroke-width="2.5" stroke-linecap="round" stroke-linejoin="miter"/><path d="M329.3231,229.55117l-8.41529,10.04553" fill="none" stroke="#ffffff" stroke-width="2.5" stroke-linecap="round" stroke-linejoin="miter"/><path d="M329.17713,248.96621l-9.68866,-7.38368l-9.8284,-8.96604" fill="none" stroke="#ffffff" stroke-width="2.5" stroke-linecap="round" stroke-linejoin="miter"/><path d="M312.43838,252.03908l8.10499,-10.54971" fill="none" stroke="#ffffff" stroke-width="2.5" stroke-linecap="round" stroke-linejoin="miter"/><path d="M344.58646,239.86817l0.72821,-12.82188l14.88512,0.01443l0.95487,10.81278" fill="none" stroke-opacity="0.46667" stroke="#000000" stroke-width="2.5" stroke-linecap="round" stroke-linejoin="miter"/><path d="M359.13748,356.48779l-4.87553,-112.39463" fill="none" stroke-opacity="0.46667" stroke="#000000" stroke-width="2.5" stroke-linecap="round" stroke-linejoin="miter"/><path d="M284.17656,248.0235l16.20409,111.261" fill="none" stroke-opacity="0.46667" stroke="#000000" stroke-width="2.5" stroke-linecap="round" stroke-linejoin="miter"/><path d="M279.66992,248.15569l-1.62959,-9.42427l11.62723,-0.76101l2.29678,10.96006" fill="none" stroke-opacity="0.46667" stroke="#000000" stroke-width="2.5" stroke-linecap="round" stroke-linejoin="miter"/><path d="M340.33106,118.42752c11.2651,26.23814 -0.71579,59.84083 -28.5146,71.776c-27.79881,11.93519 -60.8887,-2.31678 -72.1538,-28.55491c-11.26509,-26.23813 2.1381,-57.18374 29.93693,-69.11889c27.79881,-11.93519 59.46638,-0.34034 70.73149,25.89781z" fill="url(#color-5)" stroke="#000000" stroke-width="0" stroke-linecap="butt" stroke-linejoin="miter"/><path d="M298.64853,137.59782c13.12832,25.61786 15.85433,50.65848 15.85433,50.65848c0,0 -18.36149,-17.02796 -31.48981,-42.64581c-3.93353,-7.67567 -16.2721,-18.82961 -18.98364,-25.49134c-6.33835,-15.57205 0.00649,-23.35056 3.03047,-24.90023c2.85161,-1.46136 13.76766,-0.00463 22.068,12.82768c4.2672,6.59708 5.06305,20.85291 9.52067,29.55122z" fill-opacity="0.23529" fill="#000000" stroke="none" stroke-width="0" stroke-linecap="butt" stroke-linejoin="round"/><path d="M299.07694,120.29726c1.4569,2.28369 -2.97037,7.71287 -9.88865,12.12644c-6.91824,4.41356 -13.70765,6.14016 -15.16455,3.85644c-1.4569,-2.28369 2.9704,-7.71287 9.88865,-12.12643c6.91824,-4.41356 13.70765,-6.14014 15.16455,-3.85644z" fill-opacity="0.23137" fill="#000000" stroke="none" stroke-width="0" stroke-linecap="butt" stroke-linejoin="miter"/><path d="M267.57539,140.8874c1.06117,1.96687 0.17134,4.50548 -1.98741,5.67017c-2.15876,1.16468 -4.76902,0.51435 -5.83015,-1.45252c-1.06117,-1.96688 -0.17134,-4.50548 1.98741,-5.67017c2.15876,-1.16468 4.76899,-0.51436 5.83016,1.45253z" fill="#ffffff" stroke="#000000" stroke-width="2.5" stroke-linecap="butt" stroke-linejoin="miter"/><path d="M310.15281,111.61566c1.06118,1.96689 0.17135,4.50549 -1.98741,5.67018c-2.15876,1.16468 -4.76901,0.51434 -5.83016,-1.45253c-1.06117,-1.96687 -0.17135,-4.50548 1.98741,-5.67016c2.15876,-1.16468 4.76901,-0.51435 5.83016,1.45251z" fill="#ffffff" stroke="#000000" stroke-width="2.5" stroke-linecap="butt" stroke-linejoin="miter"/><path d="M260.34749,139.16155l2.243,-2.80588l2.69483,-1.56506" fill="none" stroke="#000000" stroke-width="2.5" stroke-linecap="round" stroke-linejoin="miter"/><path d="M267.43509,144.7317l2.68755,-2.29752" fill="none" stroke="#000000" stroke-width="2.5" stroke-linecap="round" stroke-linejoin="miter"/><path d="M270.98633,140.8873l0.40096,-3.8864" fill="none" stroke="#000000" stroke-width="2.5" stroke-linecap="round" stroke-linejoin="miter"/><path d="M307.54795,119.57401l-3.89004,-0.76718l-6.47544,-2.93911" fill="none" stroke="#000000" stroke-width="2.5" stroke-linecap="round" stroke-linejoin="miter"/><path d="M263.41137,96.12923c21.92467,-11.23567 42.40017,-15.07131 45.73334,-8.56714c3.33317,6.50417 -11.73819,20.88515 -33.66285,32.12082c-21.92467,11.23567 -42.40018,15.07131 -45.73335,8.56714c-3.33317,-6.50417 11.73821,-20.88514 33.66286,-32.12082z" fill="#000000" stroke="none" stroke-width="0" stroke-linecap="butt" stroke-linejoin="miter"/><path d="M272.91063,106.06869l1.15018,-0.30151c1.40014,-0.42774 2.71998,-0.98934 4.09311,-1.47308c0.60093,-0.44365 1.20963,-0.87854 1.82948,-1.30072c0.96926,-0.80499 1.97039,-1.64532 3.00352,-2.46758c-1.70652,-2.21583 -3.35796,-4.50137 -5.53148,-6.3581c-0.31792,0.10573 -0.67588,0.19063 -1.07588,0.25339c-0.57292,0.08989 -1.18734,0.11933 -1.82521,0.09451c7.95692,-1.17953 15.9257,-5.70305 22.91845,-10.32179c0.07435,0.42138 0.14625,0.83948 0.21879,1.25126c0.58845,0.46851 1.1973,0.9126 1.78947,1.37698v-0.00001c-0.22977,-0.59781 -0.42575,-1.23305 -0.59096,-1.76046c-0.46657,-0.29081 -0.93174,-0.58526 -1.39627,-0.88166c2.64164,-1.74537 5.14378,-3.50388 7.4531,-5.10022c1.86588,-1.28981 4.06273,-2.44026 6.24061,-3.67039c0.07869,0.19224 0.15445,0.38506 0.22701,0.57847c0.27969,0.4706 0.55941,0.94125 0.83926,1.41189l-0.07586,0.13572l0.1158,-0.04648l0.80413,2.00371c0.20221,0.50388 0.05308,1.06165 -0.33151,1.40195c0.24993,0.60682 0.49856,1.21495 0.74634,1.82428c0.40983,0.80793 0.80789,1.62035 1.1916,2.43759c0.14434,0.25932 0.2874,0.51927 0.4292,0.77975c0.79945,1.22442 1.58054,2.44194 2.35406,3.62293c0.32862,0.71731 0.6785,1.42074 1.03524,2.11907c0.08904,0.03065 0.17891,0.06055 0.26966,0.08959c1.13426,0.36316 2.06895,0.21339 3.06354,1.11151c1.65169,1.49148 2.67764,4.15509 3.73639,6.39048c0.21295,0.09142 0.40109,0.24193 0.5375,0.44126l0.78589,1.10133l-0.20389,0.14549l0.08036,0.1788c0.06899,0.15441 0.13678,0.30951 0.20341,0.46527c1.10763,1.33452 2.03131,2.94908 2.84525,4.67116c0.0709,-0.39176 0.32733,-0.74307 0.7179,-0.9186c0.62968,-0.28301 1.36956,-0.00196 1.65256,0.62772l0.74414,1.65571l-0.31077,0.13967c1.5623,2.39886 2.57167,5.26931 2.79803,8.15764c0.0546,0.0824 0.10929,0.16475 0.16409,0.24705l-0.13518,0.20337c0.01215,0.24334 0.01867,0.48665 0.01942,0.72964h-0.00002c2.05224,3.45159 3.94595,7.01227 5.94263,10.65207c0.29057,0.5297 0.65825,1.1203 1.03325,1.74598c-0.36686,-2.50825 -0.75816,-5.02627 -1.43223,-7.413c-1.34946,-4.77825 -4.30064,-9.33876 -7.00417,-13.39353c0,0 -0.69289,-1.04039 0.34749,-1.73328c1.04039,-0.69289 1.73328,0.34749 1.73328,0.34749c2.82524,4.24728 5.86973,9.01427 7.30189,14.00941c1.15171,4.01696 1.52501,8.39983 2.2532,12.51388l-0.01271,0.07113l0.01914,-0.00122l0.15708,2.46582c0.04492,0.515 -0.23503,1.02484 -0.7332,1.24873c-0.57356,0.25778 -1.23853,0.04759 -1.5664,-0.4678l-1.12756,-1.70602l0.31831,-0.21038c-2.87335,-3.72059 -4.54919,-8.54746 -6.77042,-12.69838c1.41348,4.06828 2.83795,8.11611 3.25992,12.28189l0.2768,-0.07974l0.58712,2.03802c0.18123,0.59333 -0.10296,1.24285 -0.68365,1.50384c-0.62968,0.28301 -1.36956,0.00196 -1.65256,-0.62772l-0.62012,-1.37977c-1.33858,-2.97834 -2.5048,-5.99584 -3.67469,-9.01765c-0.09436,0.08519 -0.20344,0.15732 -0.32563,0.21224c-0.16867,0.0758 -0.34524,0.11115 -0.51883,0.11015c0.6886,1.71341 1.40256,3.41618 2.16013,5.10095c1.97326,4.38832 4.84001,9.07506 5.92627,13.85143l0.06796,0.10204l0.23043,-0.10356l0.66381,1.47697c0.28301,0.62968 0.00196,1.36956 -0.62772,1.65256c-0.57228,0.2572 -1.23557,0.04852 -1.5642,-0.46435l-0.89025,-1.33674c-2.8991,-4.06812 -6.01016,-7.98972 -8.76705,-12.16837c0.9613,3.16416 1.96236,6.32582 2.99335,9.50491c0.45048,0.98771 0.87485,1.98027 1.24184,2.98882c0.33099,0.73573 0.66185,1.4715 0.99256,2.20734l0.88508,1.9693c0.28301,0.62968 0.00196,1.36956 -0.62772,1.65256c-0.62968,0.28301 -1.36956,0.00196 -1.65256,-0.62772l-0.88508,-1.9693c-0.1121,-0.24943 -0.22419,-0.49887 -0.33627,-0.74832c-1.51704,-1.78179 -2.40093,-5.34196 -3.20404,-7.12887c-2.77047,-6.16432 -5.54095,-12.32863 -8.31142,-18.49296c-0.18965,-0.09829 -0.35528,-0.24551 -0.47586,-0.4337l-0.89858,-1.34924l0.03633,-0.0242l-0.08993,-0.06397c-0.16502,-0.36508 -0.33443,-0.72694 -0.50655,-1.08638c-0.52313,-0.62786 -0.88437,-1.53918 -1.26114,-2.38089c0.47924,1.15175 1.00656,2.28449 1.52457,3.42479c0.01046,0.02019 0.01564,0.03169 0.01564,0.03169l-0.00093,0.00068c0.07433,0.1637 0.14845,0.32755 0.2222,0.49164l-1.25078,0.26626l-1.0295,0.75858c-0.07359,-0.16376 -0.1473,-0.32788 -0.22104,-0.49237l-0.00023,0.00004c0,0 -0.0017,-0.00378 -0.00469,-0.01104c-0.9564,-2.13358 -1.91928,-4.3292 -2.7413,-6.56865c-0.5132,0.46553 -1.18113,0.93605 -1.62702,0.73956c0.09257,0.23033 0.16875,0.45902 0.18905,0.60771c0.11276,0.82572 0.34562,1.63093 0.48728,2.45218c0.46218,2.67967 0.93615,4.7881 0.75084,7.17281l0.2777,-0.00276l0.01528,1.54053c0.01444,0.46767 -0.23549,0.92434 -0.67959,1.15192c-0.37333,0.19131 -0.79794,0.17673 -1.14431,-0.002c0.14614,0.66571 0.23672,1.29519 0.27004,1.964l0.23921,-0.03659l0.24712,1.61517c0.04136,0.23361 0.01431,0.47139 -0.07236,0.68603c2.18854,2.92071 4.20109,5.91317 4.94316,9.41261l0.05192,0.08043l0.29045,-0.11029l12.08457,21.29136c0.23351,0.59116 -11.5422,-18.54727 -12.11963,-18.25136c-0.5812,0.29784 13.10653,23.37591 12.76548,22.83318l-15.30391,-24.68998c-3.14211,-3.57727 -6.02381,-7.1973 -9.15907,-10.52058c2.05892,3.69965 3.67749,7.53508 5.02886,11.48103c0.31256,0.5858 0.62807,1.16928 0.9475,1.74969c1.94493,3.53408 4.63848,7.15112 6.37837,10.93487c0.29243,0.46103 0.58481,0.92176 0.87704,1.38221l0.03217,-0.02142l0.89691,1.34674c0.0429,0.06201 0.08078,0.1288 0.11281,0.20007c0.16531,0.3678 0.13816,0.7732 -0.03848,1.10319c0.53417,1.05883 0.999,2.1348 1.34788,3.2321c0.03319,0.05039 0.0664,0.10077 0.0996,0.15116l-0.01057,0.02024l0.01675,-0.0106l0.2413,0.38124l0.19943,-0.08963l0.66381,1.47697c0.28301,0.62968 0.00196,1.36956 -0.62772,1.65256c-0.58069,0.26099 -1.25508,0.04228 -1.57847,-0.48716l-1.00619,-1.58973c-1.25014,-1.89781 -2.49454,-3.79915 -3.75679,-5.68729c1.07624,2.57219 2.02373,5.20842 2.74748,7.96019l-0.00227,0.0212l0.00693,-0.00159l0.30185,1.31887c0.1438,0.57591 -0.14047,1.18971 -0.7009,1.44159c-0.48939,0.21996 -1.04536,0.09919 -1.40166,-0.26116l-1.02455,-0.98932l0.02494,-0.02582c-0.06162,-0.04892 -0.12147,-0.10035 -0.17931,-0.15459c-0.55576,-0.52128 -1.41225,-3.54412 -1.59282,-4.17925c-0.64688,-2.27523 -1.18479,-4.58727 -1.68543,-6.90375c-1.70239,-3.71226 -3.61599,-7.32221 -5.41252,-11.00681c-3.4752,-5.25485 -7.03244,-10.44373 -10.36639,-15.82337c-1.31516,-2.12214 -4.11629,-5.68161 -4.28527,-8.1745c-0.02282,-0.33665 -0.02992,-0.64887 -0.01982,-0.93664c-1.32424,-0.76777 -2.64242,-1.53519 -3.89695,-2.41659c-0.01738,-0.01222 -1.82234,-1.23396 -1.94168,-1.2298c-0.61222,0.02128 -0.33767,1.18053 -0.57226,1.74641c-0.21285,0.51343 -0.42858,1.17882 -0.69969,1.84587c-0.50208,1.2353 -1.19406,2.47634 -2.40927,2.76867c-0.47512,0.11429 -3.24558,-1.47472 -3.61298,-1.70825c-0.5182,-0.3294 -1.19346,-1.3079 -1.62379,-0.86987c-0.54497,0.55471 -0.72933,2.79854 -0.98491,3.49086c-0.69628,1.88599 -1.45155,2.93547 -2.97636,4.21956c-1.55185,1.45009 -2.59165,2.76153 -4.95329,2.17014c-0.64004,-0.16027 -1.24225,-1.65323 -1.63167,-1.12061c-0.39248,0.53681 -0.59,1.68385 -0.8418,2.90793c0.04999,0.11123 0.09999,0.22247 0.14998,0.3337l0.55317,1.23082c0.28301,0.62968 0.00196,1.36956 -0.62772,1.65256c-0.37097,0.16673 -0.7802,0.13768 -1.11171,-0.04309c-0.3417,0.54954 -0.78734,0.94723 -1.39181,1.07561c-0.7808,0.16582 -1.49473,-0.57433 -2.19456,-0.95826c-1.83291,-1.00561 -3.83041,-2.73564 -5.35762,-4.48724c0.46271,2.43625 0.7018,4.93759 0.5252,7.32689l0.48082,0.02624l-0.13135,2.40769c-0.01597,0.4377 -0.26187,0.85409 -0.67936,1.06802c-0.17784,0.09114 -0.36733,0.13555 -0.55447,0.13774c3.6804,9.17222 12.29016,16.58167 13.60121,26.57598l0.22279,-0.08114l0.47783,1.31222c0.22374,0.5878 -0.0261,1.26223 -0.59878,1.5557c-0.52941,0.27131 -1.16194,0.12852 -1.52824,-0.30926l-0.89916,-1.02817c-4.01149,-3.65726 -6.71895,-8.75712 -10.19414,-12.94858c-4.27732,-4.60043 -5.83565,-11.89247 -8.0793,-17.61678c-0.71053,-1.8128 -1.53426,-3.44429 -2.60022,-5.07518c-0.31968,-0.48911 -0.634,-0.98169 -0.95065,-1.47277c-0.07478,-0.11596 -0.1844,-0.26665 -0.29933,-0.42887c-0.07476,0.40425 -0.19702,0.83015 -0.26698,1.12252c-0.40072,0.74705 -0.40959,1.94032 -1.20215,2.24117c-1.63715,0.62144 -3.4557,-1.81531 -4.50269,-3.9274c0.23821,2.69845 0.94534,5.25716 2.09387,7.713c0.0882,0.15723 0.16957,0.31562 0.22956,0.47763c0.05892,0.11935 0.11887,0.23848 0.17991,0.35734l0.00025,0.04598c0.00275,0.00586 0.0055,0.01172 0.00824,0.01758l0.0157,-0.00617l0.09433,0.24042c1.1221,2.38548 2.28498,4.75464 3.4094,7.12991c0.33834,0.59507 0.65702,1.19833 0.95107,1.81011c1.44979,0.94938 2.86496,2.4617 3.82514,3.44537c3.30755,3.38844 7.4028,8.24155 9.82394,13.22439c0.49154,0.49774 0.97916,0.99933 1.46254,1.50503c2.75306,2.88022 5.74957,5.31719 7.3166,8.71318l0.43774,-0.19673l0.77444,1.72314c0.28301,0.62968 0.00196,1.36956 -0.62772,1.65256c-0.37776,0.16978 -0.79518,0.13655 -1.12982,-0.05316l-1.16829,-0.64571c-5.30853,-2.9352 -10.14231,-6.52191 -14.69218,-10.46803c3.7667,7.20677 7.78162,14.56788 13.01928,20.43355l0.02439,0.08967l0.02705,-0.01802l0.89691,1.34674c0.0429,0.06201 0.08078,0.1288 0.11281,0.20007c0.28301,0.62968 0.00196,1.36956 -0.62772,1.65256c-0.40203,0.18068 -0.84898,0.13145 -1.19326,-0.09165l-1.63203,-1.02412l0.01616,-0.02575c-0.05775,-0.02839 -0.11494,-0.05815 -0.17151,-0.0894c-0.66476,-0.36722 -1.90591,-2.41121 -2.38604,-3.10229c-1.43757,-2.06915 -2.88258,-4.10998 -4.24479,-6.23094c-5.23183,-8.14598 -10.62152,-16.31601 -16.215,-24.18223l0.29675,0.57908c0.31485,0.61437 0.07204,1.36766 -0.54235,1.68251c-0.61438,0.31485 -1.36767,0.07203 -1.68251,-0.54235l-0.71944,-1.40387c-1.18292,-2.30829 -2.36682,-4.61606 -3.54706,-6.92572c-2.14032,-5.61681 -4.4121,-12.31588 -2.49399,-18.34766c0.88064,-2.76928 2.40318,-5.35284 3.98798,-7.78464c0,0 0.31959,-0.48987 0.85666,-0.58079c0.20009,-0.29775 0.40714,-0.59653 0.62128,-0.89679c0.03535,-0.59193 0.5617,-0.92623 0.67969,-0.99396l0.38664,-0.59261c0.11559,-0.18455 0.28093,-0.34126 0.48881,-0.44778c0.25327,-0.1298 0.53018,-0.16482 0.79023,-0.11809c2.52615,-2.05606 5.04365,-3.91378 8.15142,-5.04536c6.03756,-2.29272 12.28604,-4.04396 17.93705,-7.2313c0.89657,-0.50569 1.76366,-1.04691 2.60981,-1.61358c0.71979,-1.27918 1.52597,-2.51747 2.40599,-3.73331l0.95441,-1.31101c0.12489,-0.17839 0.29802,-0.32645 0.51107,-0.42221c0.12579,-0.05654 0.25599,-0.09056 0.38607,-0.10379c0.25945,-0.22221 0.55212,-0.29921 0.55212,-0.29921zM242.84535,159.80722c-0.6682,-0.65811 -1.53626,-1.17081 -1.88862,-2.02495c-0.03688,-0.08941 -0.06841,-0.18015 -0.09536,-0.272l-0.05287,0.02377l-0.55317,-1.23082c-0.28301,-0.62968 -0.00196,-1.36956 0.62772,-1.65256c0.21036,-0.09455 0.43303,-0.12614 0.64684,-0.10281c-0.0019,-0.48312 0.1003,-0.92194 0.44246,-1.2183c0.00486,-0.00422 0.00976,-0.00838 0.01467,-0.0125c-1.5751,-2.01332 -3.87788,-4.32586 -4.46907,-6.39741c-0.01739,-0.06091 -0.03327,-0.12207 -0.04778,-0.18346l-0.02163,0.00664l-0.63405,-2.06408c-0.19337,-0.59846 0.09065,-1.25924 0.6776,-1.52304c0.24426,-0.10979 0.50511,-0.13468 0.74944,-0.08729c-0.75209,-1.56612 -1.32592,-3.25748 -1.69998,-4.95413l-0.21155,0.6563l-0.19763,-0.06371c-0.64597,7.12925 2.13328,13.89357 3.35697,20.74293c0.12287,-0.25871 0.33478,-0.47675 0.61648,-0.60335c0.52983,-0.23813 1.13769,-0.07691 1.48574,0.35534l1.24895,1.48075l-0.14243,0.12013c0.34685,0.26498 0.6887,0.53648 1.02626,0.81354c-0.3124,-0.6027 -0.61129,-1.20848 -0.879,-1.80899zM293.38113,92.36707c-0.43258,0.12956 -0.89005,0.01243 -1.20693,-0.2807l-0.60793,-0.53914c-0.27077,0.56375 -0.64155,1.07216 -1.19006,1.47643c-0.74423,0.5485 -1.57828,0.80583 -2.45877,0.85301c0.12535,0.52697 0.23951,1.05056 0.34182,1.56679l0.18541,-0.07441l0.47452,1.18241c0.45154,-0.22841 0.90804,-0.43909 1.36953,-0.62883c1.46414,-0.60197 2.99779,-1.02229 4.53446,-1.43147c-0.51008,-0.70616 -1.00022,-1.4704 -1.44204,-2.1241zM294.21812,89.33519c1.83598,1.18086 3.64857,2.40215 5.44705,3.67954c0.2112,-0.08335 0.42101,-0.17021 0.6292,-0.26113c0.02644,-0.28766 0.06668,-0.58355 0.09368,-0.8835c-0.89975,-0.74592 -1.71898,-1.46951 -2.22067,-1.84816c-0.22761,-0.17179 -0.45478,-0.34364 -0.68156,-0.51556c-1.18754,0.71931 -2.5448,-0.12682 -3.7542,-1.38952c0.0656,0.26058 0.14059,0.51425 0.23054,0.75637l-0.0145,0.14127l0.04088,-0.00562l0.00933,0.06785c0.07353,0.08613 0.14694,0.17228 0.22024,0.25845zM315.47571,109.29051c0.45515,-0.20456 0.96787,-0.11442 1.324,0.18906l0.93273,0.76162c-0.19059,-0.57425 -0.35399,-1.14876 -0.4863,-1.72249c-0.0697,-0.11158 -0.13939,-0.22317 -0.20908,-0.33481l-0.1451,0.06521l-0.2909,-0.64725c-0.54634,-0.41705 -1.08997,-0.82696 -1.63101,-1.22478c-0.3395,-0.24964 -0.7257,-0.50595 -1.1141,-0.77762c0.51751,1.20583 1.07717,2.47642 1.50819,3.74795c0.03584,-0.0206 0.07306,-0.03961 0.11157,-0.05692zM257.34144,174.09299c-0.98695,-1.18717 -1.96382,-2.37955 -2.92876,-3.57961c-0.52266,0.0545 -0.95484,-0.29841 -0.95484,-0.29841l-0.74892,-0.63757c-0.57942,-0.32113 -1.13922,-0.67538 -1.68099,-1.05755c0.52511,0.514 1.05351,1.02347 1.58861,1.52399c1.49805,1.40128 3.08107,2.75464 4.7249,4.04916zM324.05512,114.27349c0.0523,0.08259 0.10463,0.1652 0.157,0.2478c0.63785,1.00591 1.28143,1.96145 1.90607,2.89547c-0.53716,-1.33367 -1.08217,-2.66444 -1.63965,-3.99063c-0.26476,-0.17263 -0.52882,-0.34869 -0.79218,-0.52768c0.12796,0.45639 0.25165,0.91445 0.36875,1.37503zM329.39846,118.06597c-0.11533,-0.39994 -0.22829,-0.80213 -0.33959,-1.20612c-0.18509,-0.39935 -0.36896,-0.7983 -0.55023,-1.19759c-0.17733,0.01244 -0.35417,-0.0134 -0.51866,-0.0737c0.65308,1.68144 1.28996,3.36898 1.9276,5.05578c-0.16927,-0.93548 -0.30847,-1.84781 -0.51912,-2.57837zM304.04134,90.2234c-0.38998,-0.47004 -0.77856,-0.94111 -1.16573,-1.41327c0.04308,0.49745 0.07236,0.99325 0.08726,1.4863c0.26364,0.18886 0.52666,0.37893 0.78879,0.5708c0.04263,0.0312 0.08458,0.06321 0.126,0.09591c0.12187,-0.06504 0.2437,-0.13013 0.36551,-0.19517c-0.07229,-0.18054 -0.13974,-0.36439 -0.20184,-0.5446zM297.85239,130.30038c-0.42589,-1.04344 -0.84335,-2.09681 -1.256,-3.1613c-0.22685,-0.13578 -0.45598,-0.26964 -0.68751,-0.40154c0.20342,0.39619 0.38988,0.70481 0.42044,0.76444c0.48919,0.95483 0.99632,1.88201 1.52306,2.7984zM286.29114,97.78338l0.01084,-0.01034l-0.03579,-0.01659c-0.45719,-0.54097 -0.93519,-1.0408 -1.43232,-1.50495c0.46094,0.60956 0.90203,1.25246 1.3248,1.93099c0.10464,-0.07001 0.20961,-0.13937 0.31484,-0.20806zM263.82274,178.70123c-0.32899,-0.41546 -0.64897,-0.8327 -0.95829,-1.23166c-0.0422,0.16611 -0.1182,0.32286 -0.22389,0.45937c0.39235,0.26102 0.78651,0.5185 1.18217,0.77228zM236.03886,134.10985c-0.15897,0.30608 -0.30881,0.61477 -0.4472,0.92555c0.16556,-0.03149 0.33351,-0.02848 0.49412,0.0059c-0.02327,-0.31318 -0.03895,-0.62392 -0.04692,-0.93147zM251.23589,162.56138c0.12971,0.11325 0.2593,0.22664 0.38875,0.34018c-0.40772,-0.51136 -0.82357,-1.01293 -1.24661,-1.50199c0.28352,0.3889 0.56954,0.77613 0.85785,1.1618zM311.79428,127.51197c-0.01267,-0.08727 -0.02359,-0.17482 -0.03337,-0.26176l-0.08951,0.21021c0.04123,0.01673 0.0822,0.0339 0.12287,0.05155zM254.30949,139.01469c-0.01029,-0.06463 -0.02037,-0.1294 -0.03022,-0.19427l-0.08048,0.04125c0.03725,0.05094 0.07414,0.10195 0.1107,0.15303zM239.85729,161.37635l0.12303,0.24007l-0.22773,-0.50671c0.00387,0.02826 0.00771,0.05653 0.01152,0.08479c0.03106,0.06062 0.06213,0.12121 0.0932,0.18185zM240.18784,161.95538l-0.02749,0.01235l0.03352,0.06542z" fill="#000000" stroke="none" stroke-width="0.5" stroke-linecap="butt" stroke-linejoin="miter"/><path d="M334.89849,61.60071c0,0 -4.58301,6.74975 -10.8006,15.47288c-2.74147,3.84622 -3.84024,8.16015 -8.328,12.30579c-2.31838,2.14163 -1.20685,5.23852 -3.89513,7.49922c-2.64509,2.22437 -9.08425,3.61095 -12.07114,5.91551c-2.5883,1.99704 -8.98363,4.59125 -11.81723,6.62414c-3.8302,2.74786 -4.19792,4.94454 -8.45364,7.70926c-4.2081,2.73378 -6.2724,5.92839 -10.48046,8.40815c-2.55949,1.50827 -7.27888,2.38625 -9.80789,3.79196c-1.26028,0.70049 -4.44134,0.81767 -5.68974,1.49148c-3.74619,2.02197 -5.50652,4.4922 -9.09448,6.25945c-1.82625,0.8995 -4.61105,-0.563 -6.84426,0.44373c-2.28088,1.02821 -4.01336,4.52581 -6.17336,5.45791c-4.68966,2.02373 -8.4448,3.57327 -8.4448,3.57327c0,0 -14.52299,3.41905 -18.2029,4.07706c-4.73051,0.84587 -7.82828,0.57759 -7.82828,0.57759c0,0 6.2231,-7.22176 14.15225,-17.44774c1.77364,-2.2874 0.63349,-5.97073 2.1375,-8.61928c1.54139,-2.71441 5.73965,-4.39619 8.64434,-6.90477c2.7723,-2.39424 6.03206,-7.10412 10.41442,-10.42284c6.94047,-5.25598 14.94016,-8.93648 14.94016,-8.93648c0,0 3.8199,-2.57125 5.79431,-3.85392c2.35663,-1.53099 6.70277,-3.06832 9.5042,-4.70539c8.98897,-5.25293 16.49692,-11.64594 24.10834,-15.72821c6.87162,-3.68548 14.3169,-5.33132 14.3169,-5.33132c0,0 2.3283,2.56662 3.79142,1.97876c1.28767,-0.51737 4.52846,-5.32154 4.52846,-5.32154c0,0 5.12516,-3.41076 7.08726,-1.19451c1.88459,2.12869 5.47403,1.90588 8.99437,0.93682c0.83222,-0.22908 0.5515,2.6221 1.35254,2.33081c3.84218,-1.39712 8.16542,-6.38775 8.16542,-6.38775z" fill="url(#color-6)" stroke="#000000" stroke-width="0" stroke-linecap="butt" stroke-linejoin="miter"/><path d="M319.30069,185.91792c1.06449,2.36849 -1.0466,0.99459 -4.59121,0.30495c-0.70682,-0.13752 -1.6647,-0.85001 -2.58296,-1.24327c-0.56651,-0.24261 -1.11794,-0.3637 -1.58604,-0.15331c-0.72537,0.32601 -0.11535,2.30062 -0.47558,3.00872c-0.36691,0.72124 -1.70145,0.17797 -2.16019,0.72115c-2.21529,2.623 -3.95846,4.47344 -4.95656,2.25268c-0.23311,-0.51867 -0.38465,-0.16042 -0.38965,-0.73189c-0.01261,-1.44184 -0.25204,-2.81384 0.96751,-4.4786c1.21608,-1.66002 3.88811,-3.61352 5.98447,-4.5557c2.63726,-1.18529 6.44018,-2.49834 8.11609,-1.26889c1.52178,1.11638 1.00419,4.65356 1.67411,6.14416z" fill="#060606" stroke="none" stroke-width="0" stroke-linecap="butt" stroke-linejoin="miter"/><path d="M308.77353,190.34339c-1.14015,0.51243 -1.65256,-0.62772 -1.65256,-0.62772l-0.25071,-0.55783c-0.52031,-1.15767 -1.03121,-2.3178 -1.53678,-3.47927c-0.43432,-0.03996 -0.83518,-0.30644 -1.02673,-0.73265l-0.58499,-1.3016c-0.17867,-0.39754 -0.36196,-0.7962 -0.54863,-1.19598c-0.31868,-0.39577 -0.49778,-0.9108 -0.7253,-1.52879c-1.20503,-2.5094 -2.48291,-5.06462 -3.54256,-7.67418c-0.72564,-1.51713 -1.44607,-3.03801 -2.13859,-4.57888l-0.75212,-1.67348c-0.28301,-0.62968 -0.00196,-1.36956 0.62772,-1.65256c0.0131,-0.00589 0.02624,-0.01153 0.03942,-0.01693c-0.0538,-0.42892 -0.09506,-0.8594 -0.12262,-1.29145c0,0 -0.07947,-1.24747 1.16799,-1.32694c1.24747,-0.07946 1.32694,1.168 1.32694,1.168c0.05002,0.7867 0.14971,1.56919 0.29103,2.34739c0.04692,0.02749 0.09307,0.05676 0.13837,0.08792c1.12242,0.77219 2.07598,4.43693 2.66606,5.74988c2.39935,5.33858 4.60014,10.73261 7.00106,16.07467l0.25071,0.55783c0,0 0.51243,1.14015 -0.62772,1.65256z" fill="#000000" stroke="none" stroke-width="0.5" stroke-linecap="butt" stroke-linejoin="miter"/><path d="M319.43821,183.97972l-1.17946,1.17722c-0.68646,-1.52737 -1.37291,-3.05475 -2.05938,-4.58212c-0.09773,-0.06239 -0.18734,-0.13869 -0.26549,-0.22767l-0.85378,-0.92733l0.34659,-0.31911c-2.25966,-2.31836 -3.01042,-5.67032 -4.14052,-8.96049l-0.81822,-1.82054c-0.28301,-0.62968 -0.00196,-1.36956 0.62772,-1.65256c0.59182,-0.26599 1.28096,-0.03373 1.59667,0.51794l0.12947,0.21943c0.67524,0.06457 0.98568,0.75529 0.98568,0.75529c0.81427,1.81176 1.56076,3.64721 2.31755,5.47728c1.40179,2.84683 2.51369,5.95429 3.66578,8.74944c0.37961,0.27753 0.50148,0.74077 0.50148,0.74077l-0.1345,0.13424c0.12606,0.2948 0.253,0.58524 0.38124,0.87058z" fill="#000000" stroke="none" stroke-width="0.5" stroke-linecap="butt" stroke-linejoin="miter"/><path d="M266.53263,143.09661c0.72607,1.01751 -0.29144,1.74358 -0.29144,1.74358l-0.33932,-0.20764c-0.08872,0.53075 -0.19877,1.07378 -0.31248,1.62377c0.55472,-0.10464 1.1293,0.17882 1.3709,0.71639c0.03807,0.0847 0.06593,0.17141 0.08411,0.25871l0.45805,2.00141l-0.22405,0.05127c0.39226,0.99392 0.69532,1.99595 1.06571,3.28011l0.47534,1.54745c0.19337,0.59846 -0.09066,1.25924 -0.67761,1.52304c-0.02395,0.01076 -0.04803,0.0207 -0.07226,0.02984c0.36311,0.91781 0.70136,1.85431 1.04665,2.77939c1.29163,1.74747 2.56174,3.52323 3.44112,5.45795c1.33758,2.9761 2.8688,5.9438 3.63343,9.13646c0.05185,0.2165 0.09273,0.43168 0.12618,0.64578c1.19126,2.39857 2.35922,4.81084 3.44385,7.26292c0.119,0.64741 0.2471,1.31694 0.40777,1.98315c0.78156,1.01213 1.58414,2.01782 2.31552,3.10161c0.42943,0.63636 1.16604,1.64041 1.90456,2.75527c0.56844,0.3518 1.11803,0.71859 1.57453,1.19663c0.75912,0.79495 1.37902,2.34225 1.8413,3.37511l0.72371,1.14344c0.03581,0.05463 0.06779,0.11278 0.09543,0.17426c0.28301,0.62968 0.00196,1.36956 -0.62772,1.65256c-0.45515,0.20457 -0.96787,0.11442 -1.324,-0.18906l-1.39136,-1.13613l0.01254,-0.01537c-0.02649,-0.01416 -0.05289,-0.02854 -0.07919,-0.04311c-1.37068,-0.75987 -2.35013,-2.63591 -3.21249,-4.44055c-0.89336,-0.73625 -1.78374,-1.52729 -2.5289,-2.67108c-0.74768,-1.14767 -1.24569,-2.47398 -1.60287,-3.82419c-1.2779,-1.68049 -2.48541,-3.39127 -3.25989,-5.47011c-0.52006,-1.39593 -0.48044,-2.71422 -0.68991,-4.09175c-2.35366,-4.80047 -4.76369,-9.56592 -6.96384,-14.42546c-2.01502,-2.4884 -4.10064,-4.99831 -4.46372,-8.03698c-0.77019,-0.92511 -0.38307,-2.57462 0.18247,-3.77623c0.22238,-1.3534 0.54643,-2.7031 0.7613,-3.98864l1.35297,-1.41522c0,0 1.01751,-0.72608 1.74358,0.29144z" fill="#000000" stroke="none" stroke-width="0.5" stroke-linecap="butt" stroke-linejoin="miter"/><path d="M272.77074,137.15033c-0.02403,0.75025 -0.07707,3.55757 -0.25384,4.25772c-0.61164,2.42245 -0.89584,4.0919 -3.7089,1.74251c-0.92543,-0.77289 -1.25324,-2.68701 -1.14805,-4.55778c-0.66077,-0.14864 -0.88277,-0.87136 -0.88277,-0.87136c-0.8056,-2.6551 -1.15542,-3.46087 1.37193,-4.9461l1.3016,-0.58499c0.62968,-0.28301 1.36957,-0.00195 1.65256,0.62772c0.12838,0.28566 0.14069,0.59398 0.05704,0.87204l-0.18291,0.62144c0.47261,0.00461 0.92225,0.27845 1.12871,0.73783c0.02167,0.04821 0.04003,0.09708 0.05518,0.14632l0.56061,1.73977l-0.07494,0.02415z" fill="#000000" stroke="none" stroke-width="0.5" stroke-linecap="butt" stroke-linejoin="miter"/><path d="" fill="url(#color-7)" stroke="none" stroke-width="0.5" stroke-linecap="butt" stroke-linejoin="miter"/><path d="" fill="url(#color-8)" stroke="none" stroke-width="0.5" stroke-linecap="butt" stroke-linejoin="miter"/><path d="M242.39509,93.15163c-2.87925,2.6565 -5.80992,5.26787 -8.26603,8.28276c0,0 -0.79061,0.96821 -1.75883,0.1776c-0.96821,-0.79061 -0.1776,-1.75883 -0.1776,-1.75883c4.09061,-4.99876 9.43705,-8.90429 13.74261,-13.72276l0.059,-0.02491l-0.01564,-0.01699l1.20181,-1.10652c0.10102,-0.09747 0.22031,-0.17945 0.35572,-0.24031c0.62968,-0.28301 1.36956,-0.00196 1.65256,0.62772c0.17436,0.38796 0.13462,0.81775 -0.06887,1.15675l-0.42016,0.72014c0.45726,0.01973 0.88678,0.29082 1.08719,0.73673c0.15961,0.35514 0.13981,0.74533 -0.02076,1.06884l-0.59577,1.22188l-0.12541,-0.06114l-0.01121,0.01786l-0.16664,-0.10457l-0.03818,-0.01861c-0.00254,0.00906 -0.00508,0.01812 -0.00764,0.02717l0.18895,0.13207c-0.13291,0.18265 -0.2666,0.36454 -0.40102,0.54572c-1.19994,3.49554 -3.84096,6.42669 -6.07289,9.49348c-3.63277,4.99161 -7.81383,10.36301 -10.51682,15.92564c-1.81618,3.86006 -3.44163,7.441 -4.64886,11.54271l-0.11862,0.32266c0,0 -0.44386,1.16853 -1.6124,0.72468c-1.16853,-0.44386 -0.72468,-1.6124 -0.72468,-1.6124l0.05742,-0.14079c1.24411,-4.22703 2.92189,-7.94136 4.79248,-11.91688c1.42458,-2.91271 3.21818,-5.61649 5.12508,-8.25299c-1.35453,1.61138 -2.6705,3.25781 -3.9169,4.96873c-4.14656,5.0649 -7.93677,11.17581 -8.74814,17.84257c-0.26695,2.19343 0.49457,4.45562 0.80789,6.6087c0,0 0.17949,1.23704 -1.05757,1.41654c-1.23704,0.17949 -1.41654,-1.05757 -1.41654,-1.05757c-0.34798,-2.40597 -1.10082,-4.81288 -0.81595,-7.26587c0.82557,-7.1089 4.84549,-13.66319 9.25074,-19.07126c2.93032,-4.0282 6.25122,-7.6926 9.55174,-11.38472c1.31151,-1.91719 2.61814,-3.83576 3.84992,-5.80379z" fill="url(#color-9)" stroke="none" stroke-width="0.5" stroke-linecap="butt" stroke-linejoin="miter"/><path d="M264.63563,111.14374c-0.84666,-0.91959 0.07292,-1.76626 0.07292,-1.76626l0.11397,0.03245c2.89216,-6.4268 6.40005,-12.4965 9.28162,-18.9075c-0.8137,1.52116 -1.63959,3.03469 -2.49058,4.53265c-2.37136,4.17417 -5.69079,7.76894 -8.10961,11.91852c0,0 -0.62994,1.07968 -1.70959,0.44974c-1.07968,-0.62994 -0.44974,-1.70959 -0.44974,-1.70959c2.41597,-4.13719 5.73716,-7.72319 8.09297,-11.88955c2.20132,-3.89313 4.24648,-7.88146 6.34497,-11.84035c1.18408,-2.51415 2.59915,-5.08072 3.56548,-7.65928l0.52812,-1.39034v0c0.1136,-0.29906 0.34128,-0.55478 0.65611,-0.69628c0.62968,-0.28301 1.36956,-0.00196 1.65256,0.62772c0.12729,0.28323 0.14047,0.58875 0.05914,0.86496l-0.6885,2.39548l-0.2115,-0.06079c-0.01551,0.03737 -0.03107,0.07473 -0.0467,0.11208c-1.2205,12.20363 -9.31608,23.37051 -14.19382,34.27597l-0.70154,0.7833c0,0 -0.91959,0.84666 -1.76626,-0.07292z" fill="url(#color-10)" stroke="none" stroke-width="0.5" stroke-linecap="butt" stroke-linejoin="miter"/><path d="M264.12174,99.46365c0,0 -10.91923,-20.58235 -14.30406,-26.8827c-0.40263,-0.74943 -2.7485,0.33803 -4.12538,-0.50873c-3.26867,-2.01015 -6.75878,-5.86821 -6.75878,-5.86821c0,0 8.52166,2.90448 9.35978,2.08093c0.66585,-0.65429 0.26068,-2.36294 0.4432,-2.51703c0.16246,-0.13716 1.5971,0.41135 2.29083,-0.08114c1.23462,-0.87647 2.81043,-12.84302 2.81043,-12.84302c0,0 1.25552,6.24138 1.17389,10.99908c-0.04627,2.69731 -1.78195,4.52771 -1.29045,5.44258c3.38483,6.30031 13.60635,26.31714 13.60635,26.31714c0,0 5.32259,-0.21783 5.33616,0.60388c0.00659,0.39961 -2.60444,-1.00511 -3.07597,1.3044c-0.3056,1.49683 6.35296,-0.60398 6.59812,0.44981c0.1698,0.72983 -6.06241,4.88209 -6.11123,4.9233c-0.10955,0.09249 0.43081,-2.04293 0.11475,0.88022c-0.2493,2.30588 0.53473,6.65253 0.30032,6.49857c-0.15103,-0.09921 -0.46401,0.39655 -0.53655,-0.4451c-0.20929,-2.42821 -1.81606,-4.73824 -1.81606,-4.73824c0,0 -2.6674,0.14334 -3.84216,-0.83972c-0.5572,-0.46629 -7.90191,3.06607 -8.20639,2.44893c-0.60019,-1.21653 6.14218,-6.59539 6.02521,-6.75898c-0.68522,-0.9583 2.00797,-0.46598 2.00797,-0.46598z" fill="url(#color-11)" stroke="#000000" stroke-width="0" stroke-linecap="butt" stroke-linejoin="miter"/></g></g></svg>