<svg version="1.1" xmlns="http://www.w3.org/2000/svg" xmlns:xlink="http://www.w3.org/1999/xlink" width="163.73381" height="326.06959" viewBox="0,0,163.73381,326.06959"><defs><linearGradient x1="319.67926" y1="169.19384" x2="319.67926" y2="348.0384" gradientUnits="userSpaceOnUse" id="color-1"><stop offset="0" stop-color="#2982c1"/><stop offset="1" stop-color="#000000"/></linearGradient><linearGradient x1="396.46849" y1="139.98885" x2="356.99725" y2="139.98885" gradientUnits="userSpaceOnUse" id="color-2"><stop offset="0" stop-color="#a636f3"/><stop offset="1" stop-color="#581b7d"/></linearGradient><linearGradient x1="242.07227" y1="144.50991" x2="281.5435" y2="144.50991" gradientUnits="userSpaceOnUse" id="color-3"><stop offset="0" stop-color="#a636f3"/><stop offset="1" stop-color="#581b7d"/></linearGradient><radialGradient cx="282.79563" cy="96.12558" r="25.84387" gradientUnits="userSpaceOnUse" id="color-4"><stop offset="0" stop-color="#000000" stop-opacity="0.92549"/><stop offset="1" stop-color="#000000" stop-opacity="0"/></radialGradient><linearGradient x1="236.73056" y1="71.84395" x2="301.8433" y2="79.06179" gradientUnits="userSpaceOnUse" id="color-5"><stop offset="0" stop-color="#a636f3"/><stop offset="1" stop-color="#16031b"/></linearGradient><radialGradient cx="355.06427" cy="90.97994" r="25.35587" gradientUnits="userSpaceOnUse" id="color-6"><stop offset="0" stop-color="#000000" stop-opacity="0.92549"/><stop offset="1" stop-color="#000000" stop-opacity="0"/></radialGradient><linearGradient x1="400.16873" y1="69.28508" x2="335.05599" y2="76.50292" gradientUnits="userSpaceOnUse" id="color-7"><stop offset="0" stop-color="#a636f3"/><stop offset="1" stop-color="#16031b"/></linearGradient></defs><g transform="translate(-238.0723,-27.11754)"><g stroke-miterlimit="10"><path d="M276.24005,344.39977l-1.9552,-147.27579c0,0 6.0833,-25.69821 15.08987,-26.10344c8.94426,-0.40242 30.14472,-0.95905 48.66278,-1.79223c20.08501,-0.90368 27.03616,16.2629 27.03616,16.2629l-0.47576,162.54719z" fill="url(#color-1)" stroke="#000000" stroke-width="2.5" stroke-linecap="butt"/><path d="M343.36875,180.97645c-0.25273,8.51921 -10.14421,15.13803 -22.09323,14.78356c-11.94902,-0.35448 -21.43073,-7.54801 -21.178,-16.06723c0.25273,-8.51921 10.14419,-15.13803 22.09321,-14.78356c11.94902,0.35448 21.43074,7.54802 21.17801,16.06723z" fill="#f2f2f2" stroke="#000000" stroke-width="1.5" stroke-linecap="butt"/><path d="M337.71766,181.25668c-0.18988,6.40064 -7.62153,11.37348 -16.59905,11.10716c-8.97752,-0.26633 -16.1013,-5.67096 -15.91142,-12.07161c0.18988,-6.40064 7.62152,-11.37348 16.59904,-11.10716c8.97752,0.26633 16.10131,5.67097 15.91143,12.07161z" fill="#a636f3" stroke="#000000" stroke-width="2.5" stroke-linecap="butt"/><path d="M375.34757,109.92749c4.791,0.41818 8.07901,-1.94257 12.4475,-3.01028c0.66533,-0.16262 4.3408,-1.84314 4.84047,-1.23561c0.38528,0.46844 -1.13036,3.65115 -1.31359,4.20564c-0.62386,1.88779 -5.81206,12.1346 -5.68985,12.9116c0.45067,2.86542 9.12814,-1.64765 10.50949,-0.40064c1.26529,1.14223 -1.51565,5.17455 -2.0176,6.07895c-1.42014,2.55872 -8.14754,15.72453 -8.04511,17.77772c0.16303,3.26782 4.46336,6.92687 3.00952,11.24792c-0.71341,2.12039 -2.53487,-0.99708 -3.48852,-0.61154c-0.97126,0.39267 -0.64769,4.53095 -0.63873,5.40365c0.03652,3.55688 0.01066,7.53924 -0.66952,11.06471c-0.07006,0.36315 -0.01146,0.91356 -0.32101,1.05782c-0.77103,0.35931 -9.38565,-8.60125 -10.76846,-9.62147c-6.73152,-4.96643 -13.30859,-12.70524 -15.31773,-21.92913c-3.03529,-13.93492 1.49088,-33.6873 17.0967,-32.32781z" fill="url(#color-2)" stroke="#000000" stroke-width="2.5" stroke-linecap="round"/><path d="M263.55962,115.06005c15.60582,-1.35949 20.13199,18.39288 17.0967,32.3278c-2.00914,9.22389 -8.58621,16.9627 -15.31773,21.92913c-1.38281,1.02023 -9.99744,9.98078 -10.76846,9.62147c-0.30956,-0.14425 -0.25095,-0.69466 -0.32101,-1.05781c-0.68017,-3.52546 -0.70604,-7.50782 -0.66952,-11.0647c0.00895,-0.8727 0.33253,-5.01098 -0.63873,-5.40365c-0.95364,-0.38556 -2.77509,2.73192 -3.48851,0.61153c-1.45384,-4.32104 2.84649,-7.9801 3.00952,-11.24792c0.10244,-2.0532 -6.62496,-15.219 -8.0451,-17.77772c-0.50196,-0.9044 -3.28289,-4.93672 -2.0176,-6.07895c1.38135,-1.247 10.05881,3.26606 10.50949,0.40065c0.12221,-0.777 -5.06598,-11.02381 -5.68984,-12.9116c-0.18324,-0.55448 -1.69887,-3.73719 -1.3136,-4.20563c0.49967,-0.60753 4.17514,1.07299 4.84047,1.23561c4.36848,1.06772 7.6565,3.42847 12.44749,3.01029z" fill="url(#color-3)" stroke="#000000" stroke-width="2.5" stroke-linecap="round"/><path d="M374.45997,129.3318c-1.94104,28.48816 -27.92848,52.9286 -58.11114,50.8721c-30.18266,-2.05649 -53.13099,-29.83117 -51.18995,-58.31932c1.94104,-28.48815 27.98246,-49.91526 58.16512,-47.85875c30.18266,2.05649 53.07703,26.81782 51.13599,55.30597z" fill="#a636f3" stroke="#000000" stroke-width="2.5" stroke-linecap="butt"/><path d="M334.06154,119.42451c0.01376,2.70881 -6.62742,4.93852 -14.83351,4.98021c-8.20609,0.04169 -14.86959,-2.12043 -14.88334,-4.82924c-0.01376,-2.70881 6.62743,-4.93852 14.83352,-4.98021c8.20609,-0.04169 14.86959,2.12043 14.88335,4.82924z" fill-opacity="0.23137" fill="#000000" stroke="none" stroke-width="0" stroke-linecap="butt"/><path d="M298.88706,117.98036c-0.15191,2.2297 -2.25895,3.90205 -4.70617,3.73531c-2.44723,-0.16674 -4.30794,-2.10944 -4.15603,-4.33913c0.15191,-2.22971 2.25895,-3.90205 4.70617,-3.73531c2.44723,0.16674 4.30793,2.10943 4.15602,4.33914z" fill="#ffffff" stroke="#000000" stroke-width="2.5" stroke-linecap="butt"/><path d="M348.06122,117.99128c-0.15191,2.22971 -2.25895,3.90205 -4.70617,3.73531c-2.44723,-0.16674 -4.30793,-2.10944 -4.15602,-4.33913c0.15191,-2.2297 2.25894,-3.90204 4.70617,-3.7353c2.44723,0.16674 4.30794,2.10943 4.15603,4.33913z" fill="#ffffff" stroke="#000000" stroke-width="2.5" stroke-linecap="butt"/><path d="M288.02018,116.47314c-12.271,6.46922 -24.55772,2.60366 -27.44316,-8.63399c-2.88543,-11.23765 4.72307,-25.59191 16.99408,-32.06113c12.271,-6.46922 24.55772,-2.60366 27.44315,8.63399c2.88543,11.23765 -4.72307,25.5919 -16.99407,32.06113z" fill="url(#color-4)" stroke="#000000" stroke-width="0" stroke-linecap="butt"/><path d="M296.62339,94.17482l-13.90902,12.35541l-12.9877,7.43265l-15.9361,-2.75378l-14.45882,-39.11354l1.61054,-38.24599l24.54383,40.34902l36.37503,4.70237z" fill="url(#color-5)" stroke="#000000" stroke-width="2.5" stroke-linecap="round"/><path d="M333.2652,79.48756c2.83095,-11.02545 14.88566,-14.81803 26.92495,-8.47096c12.03929,6.34707 19.50413,20.43028 16.67318,31.45573c-2.83095,11.02545 -14.88567,14.81803 -26.92496,8.47096c-12.03929,-6.34707 -19.50412,-20.43028 -16.67317,-31.45572z" fill="url(#color-6)" stroke="#000000" stroke-width="0" stroke-linecap="butt"/><path d="M335.03814,76.34207l36.37503,-4.70237l24.54383,-40.34902l1.61054,38.24599l-14.45882,39.11354l-15.9361,2.75378l-12.98769,-7.43264l-13.90902,-12.35542z" fill="url(#color-7)" stroke="#000000" stroke-width="2.5" stroke-linecap="round"/><path d="M311.24144,87.1749c0,0 -1.20327,0.84326 -2.5868,1.59726c-1.07254,0.58452 -2.25342,1.11539 -3.06603,1.15816c-0.7567,0.03982 -1.84404,-0.38823 -2.81878,-0.87622c-1.21897,-0.61027 -2.26186,-1.31428 -2.26186,-1.31428" fill="none" stroke-opacity="0.40392" stroke="#000000" stroke-width="2.5" stroke-linecap="round"/><path d="M340.89559,88.11783c0,0 -1.37758,0.51112 -2.90694,0.89022c-1.1856,0.29389 -2.46242,0.50846 -3.25938,0.34408c-0.74213,-0.15307 -1.68564,-0.84248 -2.50506,-1.56139c-1.02472,-0.89903 -1.85537,-1.84417 -1.85537,-1.84417" fill="none" stroke-opacity="0.40392" stroke="#000000" stroke-width="2.5" stroke-linecap="round"/><path d="M325.81911,84.15029c0,0 -1.15652,0.9063 -2.49782,1.7331c-1.03981,0.64095 -2.19065,1.23413 -2.99982,1.32023c-0.75349,0.08017 -1.86214,-0.28921 -2.86155,-0.72446c-1.24981,-0.5443 -2.3288,-1.19163 -2.3288,-1.19163" fill="none" stroke-opacity="0.40392" stroke="#000000" stroke-width="2.5" stroke-linecap="round"/><path d="M370.93722,127.26553c0,0 -0.91337,0.51111 -1.92737,0.89021c-0.78608,0.29389 -1.63264,0.50846 -2.16104,0.34408c-0.49204,-0.15308 -1.1176,-0.84249 -1.6609,-1.5614c-0.67941,-0.89903 -1.23015,-1.84417 -1.23015,-1.84417" fill="none" stroke-opacity="0.40392" stroke="#000000" stroke-width="2.5" stroke-linecap="round"/><path d="M371.3842,135.76785c0,0 -0.91337,0.51111 -1.92737,0.89022c-0.78608,0.29389 -1.63264,0.50846 -2.16104,0.34408c-0.49204,-0.15308 -1.1176,-0.84249 -1.6609,-1.5614c-0.67941,-0.89903 -1.23015,-1.84417 -1.23015,-1.84417" fill="none" stroke-opacity="0.40392" stroke="#000000" stroke-width="2.5" stroke-linecap="round"/><path d="M369.55466,144.27015c0,0 -0.91337,0.51111 -1.92737,0.89022c-0.78608,0.29389 -1.63263,0.50846 -2.16103,0.34408c-0.49205,-0.15307 -1.11761,-0.84248 -1.66091,-1.56139c-0.67941,-0.89903 -1.23015,-1.84417 -1.23015,-1.84417" fill="none" stroke-opacity="0.40392" stroke="#000000" stroke-width="2.5" stroke-linecap="round"/><path d="M275.2637,123.28308c0,0 -0.55074,0.94514 -1.23015,1.84417c-0.5433,0.71891 -1.16886,1.40832 -1.6609,1.5614c-0.5284,0.16438 -1.37495,-0.05019 -2.16104,-0.34408c-1.014,-0.3791 -1.92737,-0.89021 -1.92737,-0.89021" fill="none" stroke-opacity="0.40392" stroke="#000000" stroke-width="2.5" stroke-linecap="round"/><path d="M276.41113,129.15866c0,0 -0.55074,0.94514 -1.23015,1.84416c-0.5433,0.71891 -1.16886,1.40832 -1.66091,1.5614c-0.5284,0.16438 -1.37495,-0.05019 -2.16103,-0.34408c-1.014,-0.37911 -1.92737,-0.89022 -1.92737,-0.89022" fill="none" stroke-opacity="0.40392" stroke="#000000" stroke-width="2.5" stroke-linecap="round"/><path d="M276.85811,136.08494c0,0 -0.55074,0.94514 -1.23015,1.84416c-0.5433,0.71891 -1.16886,1.40832 -1.66091,1.5614c-0.5284,0.16438 -1.37495,-0.05019 -2.16103,-0.34408c-1.014,-0.37911 -1.92737,-0.89022 -1.92737,-0.89022" fill="none" stroke-opacity="0.40392" stroke="#000000" stroke-width="2.5" stroke-linecap="round"/><path d="M317.10126,153.07773l-3.51617,-5.15706" fill="none" stroke="#000000" stroke-width="2.5" stroke-linecap="round"/><path d="M326.94655,147.92067l-4.68823,5.86029" fill="none" stroke="#000000" stroke-width="2.5" stroke-linecap="round"/><path d="M357.51986,150.18307l2.88517,0.86555l-22.79284,17.59954l-18.75361,-3.4622l-13.5603,4.32776l-25.3895,-15.57992l4.03924,-0.86555" fill="none" stroke="#000000" stroke-width="2.5" stroke-linecap="round"/><path d="M385.50327,48.52227c0,0 -47.07867,2.717 -70.10629,3.02699c-21.73272,0.29256 -64.39966,-1.21633 -64.39966,-1.21633" fill="none" stroke="#000000" stroke-width="2.5" stroke-linecap="round"/><path d="M382.14062,53.43691c0,0 -45.51901,2.6267 -67.24923,2.89278c-20.43935,0.25028 -59.49676,-1.34079 -59.49676,-1.34079" fill="none" stroke="#000000" stroke-width="2.5" stroke-linecap="round"/><path d="M379.81263,58.61022c0,0 -43.7967,2.03722 -64.69159,2.39212c-19.63747,0.33354 -57.13976,-0.3228 -57.13976,-0.3228" fill="none" stroke="#000000" stroke-width="2.5" stroke-linecap="round"/><path d="M291.69109,243.80705l23.80952,-12.06784l19.56947,12.394l15.00326,-6.197" fill="none" stroke="#ffffff" stroke-width="1.5" stroke-linecap="round"/><path d="M291.47257,250.76399l23.80952,-12.06784l19.56948,12.394l15.00326,-6.197" fill="none" stroke="#ffffff" stroke-width="1.5" stroke-linecap="round"/><path d="M290.92789,257.39478l23.80952,-12.06784l19.56948,12.394l15.00326,-6.197" fill="none" stroke="#ffffff" stroke-width="1.5" stroke-linecap="round"/><g><path d="M363.41141,276.35195c0,0 0.22495,-2.66927 2.27072,-6.13494c1.39116,-2.35672 0.02846,-2.65044 -1.28078,-2.48805c-2.06498,0.25613 -13.38465,-0.0813 -14.02793,-0.77854c-0.61441,-0.66595 3.15475,-5.5126 3.75549,-6.44966c2.9291,-4.56901 15.1499,-11.64712 19.48166,-14.91821c1.46425,-1.1057 4.87664,-3.94064 6.42876,-3.49133c2.1175,0.61297 5.49441,6.89695 6.94868,9.11365c2.82596,4.30751 3.5669,10.53006 5.49913,15.65115c2.10969,5.59139 5.73862,9.3746 6.2515,16.27122c0.20679,2.78057 2.4384,7.02125 1.84391,9.86579c-2.45737,11.75795 -13.57214,23.71839 -20.03641,31.27521c-4.07701,4.76608 -12.40914,13.10445 -12.40914,13.10445l-6.12216,4.85079l-3.5129,-3.56529l3.05204,-19.12755c0,0 3.30728,-5.68838 3.17806,-5.88977c-0.03136,-0.04886 -3.18241,2.79577 -3.44511,3.08075c-1.90405,2.06555 -9.54116,8.40976 -9.54116,8.40976l-4.50288,-10.44207c0,0 9.8679,-11.5349 11.22438,-13.12166c0.36045,-0.42163 3.23754,-3.31619 2.93296,-4.09489c-0.2615,-0.66854 -5.01494,2.06763 -5.58244,2.425c-4.4209,2.78389 -14.25604,0.93954 -14.25604,0.93954c0,0 6.24531,-9.90795 7.65702,-11.55824c11.81175,-13.80792 0.81927,-7.47672 14.1926,-12.92711z" fill="#a636f3" stroke="#000000" stroke-width="2.5" stroke-linecap="round"/><path d="M370.62115,286.0229c3.12207,-3.36005 5.97305,-5.34664 6.36784,-4.43717c0.3948,0.90947 -1.8161,4.37059 -4.93816,7.73064c-3.12207,3.36005 -5.97305,5.34664 -6.36784,4.43717c-0.3948,-0.90947 1.8161,-4.37059 4.93816,-7.73064z" fill-opacity="0.23137" fill="#000000" stroke="none" stroke-width="0" stroke-linecap="butt"/><path d="M374.85911,301.19311c3.77005,-4.05742 7.11964,-6.67078 7.48153,-5.8371c0.3619,0.83368 -2.40095,4.7987 -6.17099,8.85612c-3.77005,4.05742 -7.11964,6.67078 -7.48153,5.8371c-0.3619,-0.83368 2.40095,-4.7987 6.17099,-8.85612z" fill-opacity="0.23137" fill="#000000" stroke="none" stroke-width="0" stroke-linecap="butt"/><path d="M369.90414,260.21781c0.82469,-0.88756 1.94665,-0.5626 2.50595,0.72581c0.55929,1.28841 0.34413,3.05239 -0.48056,3.93994c-0.82469,0.88756 -1.94665,0.5626 -2.50594,-0.72581c-0.55929,-1.28841 -0.34414,-3.05239 0.48056,-3.93994z" fill-opacity="0.23137" fill="#000000" stroke="none" stroke-width="0" stroke-linecap="butt"/><path d="M384.18305,267.82979c0,0 -0.51785,1.353 -1.17947,2.65524c-0.51291,1.00952 -1.11222,1.98854 -1.62371,2.28312c-0.4763,0.2743 -1.30974,0.09803 -2.08893,-0.18255c-0.97439,-0.35089 -1.86391,-0.86491 -1.86391,-0.86491" fill="none" stroke-opacity="0.40392" stroke="#000000" stroke-width="2.5" stroke-linecap="round"/><path d="M382.36254,277.57284c0,0 -0.51785,1.35298 -1.17947,2.65522c-0.51291,1.00952 -1.11224,1.98857 -1.62372,2.28315c-0.4763,0.2743 -1.30973,0.09801 -2.08892,-0.18257c-0.97439,-0.35089 -1.86393,-0.8649 -1.86393,-0.8649" fill="none" stroke-opacity="0.40392" stroke="#000000" stroke-width="2.5" stroke-linecap="round"/><path d="M380.54203,287.31588c0,0 -0.51785,1.35298 -1.17947,2.65522c-0.51291,1.00952 -1.11224,1.98855 -1.62372,2.28313c-0.4763,0.2743 -1.30973,0.09802 -2.08892,-0.18256c-0.97439,-0.35089 -1.86392,-0.8649 -1.86392,-0.8649" fill="none" stroke-opacity="0.40392" stroke="#000000" stroke-width="2.5" stroke-linecap="round"/></g><g><path d="M292.19345,285.63919c13.37333,5.45039 2.38085,-0.88081 14.1926,12.92711c1.41172,1.65028 7.65702,11.55824 7.65702,11.55824c0,0 -9.83513,1.84434 -14.25603,-0.93955c-0.5675,-0.35737 -5.32094,-3.09354 -5.58244,-2.425c-0.30457,0.7787 2.57252,3.67325 2.93297,4.09488c1.35648,1.58677 11.22438,13.12166 11.22438,13.12166l-4.50288,10.44207c0,0 -7.63711,-6.34421 -9.54117,-8.40976c-0.2627,-0.28498 -3.41374,-3.12962 -3.4451,-3.08075c-0.12921,0.20139 3.17806,5.88977 3.17806,5.88977l3.05203,19.12754l-3.5129,3.56529l-6.12216,-4.85079c0,0 -8.33213,-8.33838 -12.40914,-13.10445c-6.46427,-7.55682 -17.57905,-19.51726 -20.03642,-31.2752c-0.59449,-2.84454 1.63712,-7.08522 1.84391,-9.86579c0.51288,-6.89662 4.14182,-10.67982 6.25151,-16.27122c1.93223,-5.12109 2.67317,-11.34365 5.49913,-15.65116c1.45427,-2.2167 4.83118,-8.50069 6.94869,-9.11365c1.55212,-0.44931 4.96451,2.38563 6.42876,3.49133c4.33177,3.2711 16.55257,10.34919 19.48167,14.91821c0.60073,0.93706 4.3699,5.78371 3.75549,6.44966c-0.64328,0.69723 -11.96295,1.03466 -14.02793,0.77854c-1.30924,-0.16239 -2.67194,0.13133 -1.28078,2.48805c2.04577,3.46567 2.27072,6.13495 2.27072,6.13495z" fill="#a636f3" stroke="#000000" stroke-width="2.5" stroke-linecap="round"/><path d="M289.92186,303.0408c-0.39479,0.90947 -3.24578,-1.07713 -6.36784,-4.43718c-3.12207,-3.36005 -5.33295,-6.82117 -4.93816,-7.73064c0.39479,-0.90947 3.24577,1.07712 6.36784,4.43717c3.12207,3.36005 5.33296,6.82118 4.93816,7.73065z" fill-opacity="0.23137" fill="#000000" stroke="none" stroke-width="0" stroke-linecap="butt"/><path d="M286.91672,319.33649c-0.3619,0.83368 -3.71148,-1.77968 -7.48154,-5.8371c-3.77005,-4.05742 -6.53289,-8.02244 -6.17099,-8.85612c0.3619,-0.83368 3.71148,1.77968 7.48154,5.8371c3.77005,4.05742 6.53289,8.02245 6.17099,8.85612z" fill-opacity="0.23137" fill="#000000" stroke="none" stroke-width="0" stroke-linecap="butt"/><path d="M286.18126,273.445c-0.5593,1.28841 -1.68125,1.61337 -2.50594,0.72581c-0.82469,-0.88756 -1.03986,-2.65154 -0.48056,-3.93995c0.5593,-1.28841 1.68126,-1.61336 2.50594,-0.7258c0.82469,0.88756 1.03985,2.65153 0.48056,3.93994z" fill-opacity="0.23137" fill="#000000" stroke="none" stroke-width="0" stroke-linecap="butt"/><path d="M278.17782,281.00793c0,0 -0.88952,0.51403 -1.86391,0.86491c-0.77919,0.28058 -1.61263,0.45684 -2.08893,0.18255c-0.51148,-0.29458 -1.11079,-1.2736 -1.62371,-2.28312c-0.66162,-1.30224 -1.17948,-2.65524 -1.17948,-2.65524" fill="none" stroke-opacity="0.40392" stroke="#000000" stroke-width="2.5" stroke-linecap="round"/><path d="M279.99834,290.75099c0,0 -0.88953,0.51402 -1.86392,0.8649c-0.77919,0.28058 -1.61262,0.45687 -2.08892,0.18257c-0.51148,-0.29458 -1.1108,-1.27363 -1.62372,-2.28315c-0.66162,-1.30224 -1.17947,-2.65521 -1.17947,-2.65521" fill="none" stroke-opacity="0.40392" stroke="#000000" stroke-width="2.5" stroke-linecap="round"/><path d="M281.81885,300.49404c0,0 -0.88953,0.51402 -1.86392,0.86491c-0.77919,0.28058 -1.61262,0.45686 -2.08892,0.18256c-0.51148,-0.29458 -1.11081,-1.27361 -1.62372,-2.28313c-0.66162,-1.30224 -1.17946,-2.65522 -1.17946,-2.65522" fill="none" stroke-opacity="0.40392" stroke="#000000" stroke-width="2.5" stroke-linecap="round"/></g></g></g></svg>