<svg version="1.1" xmlns="http://www.w3.org/2000/svg" xmlns:xlink="http://www.w3.org/1999/xlink" width="191.2873" height="395.90625" viewBox="0,0,191.2873,395.90625"><defs><radialGradient cx="314.84288" cy="76.90555" r="5.70087" gradientUnits="userSpaceOnUse" id="color-1"><stop offset="0" stop-color="#ffffff"/><stop offset="1" stop-color="#1a1a1a"/></radialGradient><radialGradient cx="348.20852" cy="83.88748" r="6.07229" gradientUnits="userSpaceOnUse" id="color-2"><stop offset="0" stop-color="#ffffff"/><stop offset="1" stop-color="#1a1a1a"/></radialGradient></defs><g transform="translate(-229.63657,-7.29234)"><g data-paper-data="{&quot;isPaintingLayer&quot;:true}" fill-rule="nonzero" stroke-width="2" stroke-linejoin="miter" stroke-miterlimit="10" stroke-dasharray="" stroke-dashoffset="0" style="mix-blend-mode: normal"><path d="M299.24779,234.58273c5.84488,-0.17901 13.75457,-1.77457 19.63148,-2.97316c6.40786,-1.30686 9.40826,37.58945 15.97075,37.55188c3.85491,-0.02205 26.99503,42.12928 26.99503,42.12928l2.31017,6.58439l6.72488,21.09741l6.59764,-13.27985c0,0 2.51473,30.91028 -2.14872,46.46279c-2.03927,6.80103 6.32922,14.93448 -2.70333,19.13661c-3.19852,1.48799 -11.15077,10.88618 -14.70002,10.90651c-5.1489,0.02947 -22.73142,-47.88383 -29.0334,-49.30964c-8.02421,-1.81548 -24.62169,2.05604 -24.62169,2.05604l-8.47904,-7.90641l1.79626,-22.30133c0,0 0.23822,-33.19545 1.28905,-54.61777c0.34532,-7.03924 -4.32646,-30.58435 -1.07433,-35.52732z" fill="#3c2c1f" stroke="#000000" stroke-linecap="round"/><path d="M325.22836,286.65411l4.66548,65.01957" fill="none" stroke="#000000" stroke-linecap="round"/><path d="M331.73292,359.30223c-0.0334,11.60075 -0.72312,21.45426 -11.80676,21.51773c-11.08363,0.06345 -28.3306,-21.28795 -28.3306,-21.28795c0,0 9.04554,-21.05649 20.12918,-21.11992c11.08363,-0.06345 20.04159,9.28937 20.00818,20.89017z" fill="#000000" stroke="#000000" stroke-linecap="butt"/><path d="M382.68615,396.91255c-0.03341,11.60078 -14.46817,-19.40837 -25.5518,-19.34493c-11.08361,0.06345 -25.96222,-10.14635 -25.92883,-21.74713c0.03341,-11.60078 20.38878,20.26534 31.47243,20.2019c11.08363,-0.06345 20.0416,9.28938 20.00818,20.89017z" fill="#000000" stroke="#000000" stroke-linecap="butt"/><path d="M313.59344,225.41823c-7.53788,4.64395 -27.78487,0.82653 -27.78487,0.82653l-54.37062,-57.31118l44.08282,-14.92572l21.07339,-3.13538l0.64562,7.60504l-13.10981,11.76786l-26.32009,10.10053c0,0 28.55059,19.7556 44.33735,15.82345c8.16066,-2.03267 10.34666,30.45111 19.0488,32.11537c25.80005,4.93417 8.66952,-7.25384 -6.36076,-2.6534z" fill="#feed00" stroke="#000000" stroke-linecap="round"/><g><path d="M358.48759,290.03159l13.89262,-14.21503l15.8346,25.78664l-2.65005,7.14948l-2.50236,-2.03651l0.65165,5.82068l-3.32578,9.85194l-5.36602,-5.34866l-7.81928,5.89655l-5.5907,-14.29038c0,0 -16.56949,-37.1502 -20.26279,-44.55798c-3.39679,-6.81316 16.92037,25.63769 16.92037,25.63769z" fill="#feed00" stroke="#000000" stroke-linecap="round"/><path d="M378.58424,296.54812l-2.46798,4.49549l-4.44565,-3.69431l-3.95464,-2.99095l4.02134,-7.86186l6.93133,-4.09349l-0.08442,14.14511z" fill="#ffa600" stroke="none" stroke-linecap="butt"/><path d="M359.3871,303.17619c0,0 -1.75499,3.96483 -3.53124,2.96943c-1.77623,-0.99544 -14.41836,-45.26062 -14.24437,-47.896c0.17398,-2.63539 13.09824,37.35699 14.87448,38.35238c1.77623,0.99544 2.90113,6.57417 2.90113,6.57417z" fill="#ffa600" stroke="none" stroke-linecap="butt"/><path d="M372.14561,318.30945l-3.48684,2.92833l-2.86512,-6.48802l3.48683,-2.92833z" fill="#ffa600" stroke="none" stroke-linecap="butt"/><path d="M381.82006,315.74772l-2.9198,3.18013l-2.30649,-6.10897l2.9198,-3.18013z" fill="#ffa600" stroke="none" stroke-linecap="butt"/><path d="M387.25406,301.63866l-2.05874,3.39875l-1.47906,-5.38134l2.05875,-3.39876z" fill="#ffa600" stroke="none" stroke-linecap="butt"/></g><g><path d="M288.66133,222.3354c3.37856,-0.75351 9.98457,7.07734 7.48665,14.44821c-2.71595,8.01417 -7.12612,3.53698 -8.4055,4.87527c-0.24638,0.25769 2.97805,12.70017 0.32509,15.60906c-4.90301,5.37601 -8.46897,-4.35555 -8.46897,-4.35555l-4.62819,6.29417l-4.52736,-9.10898l-4.13817,-6.31134l1.83273,2.92038l-7.5679,-7.00331l16.98794,-27.9374c0,0 7.8209,7.40451 10.92708,10.91238z" fill="#feed00" stroke="#000000" stroke-linecap="round"/><path d="M272.174,219.45669l7.36447,2.74097l0.37301,6.49162l-3.5307,3.69911l-3.92719,4.48643l-3.00492,-3.97769l2.72538,-13.44046z" fill="#ffa600" stroke="none" stroke-linecap="butt"/><path d="M291.29026,228.79397c1.62965,-1.31766 3.3593,-0.3014 3.86327,2.26987c0.50395,2.57126 -0.40863,5.72385 -2.0383,7.04148c-1.62965,1.31766 -3.35931,0.30141 -3.86327,-2.26985c-0.50395,-2.57126 0.40861,-5.72385 2.0383,-7.04149z" fill="#ffa600" stroke="none" stroke-linecap="butt"/><path d="M284.61443,246.67598c0,0 3.31698,-0.29936 3.8142,2.23758c0.49722,2.53696 -0.40428,5.64841 -2.01357,6.94957c-1.60931,1.30116 -3.81421,-2.23758 -3.81421,-2.23758z" fill="#ffa600" stroke="none" stroke-linecap="butt"/><path d="M270.17966,246.00653l7.33435,3.03051l-1.50937,6.46999l-3.28567,-2.59304z" fill="#ffa600" stroke="none" stroke-linecap="butt"/><path d="M262.3069,233.96231l2.46242,2.97102l-0.78344,5.59541l-2.46241,-2.97101z" fill="#ffa600" stroke="none" stroke-linecap="butt"/></g><path d="M293.42944,199.63574c-1.20652,7.23552 -8.85158,27.7007 -8.85158,27.7007l-25.11247,-4.3201l7.48868,-24.8617l34.00766,-29.38676l7.11039,-15.47604l1.17615,-0.06115l39.03432,4.0704l13.16782,-8.44199l4.88626,-2.74568l7.91338,14.83441l-6.59199,53.4539l17.20052,58.89658l-17.79246,19.86005l-5.36342,3.77317l-12.26035,-67.88273l10.20178,69.25816l1.50005,15.63674c0,0 -21.45176,-36.1741 -24.31077,-35.54772c-11.56486,2.53368 -18.07669,-36.51859 -29.6297,-33.94366c-3.7551,0.83694 -9.0843,5.333 -12.58237,3.62089c-1.86435,-0.91252 -5.36453,-7.56403 -5.48798,-9.51217c-0.54354,-8.57659 -2.35537,-18.31324 -1.38341,-26.86139" fill="#fffe8a" stroke="#000000" stroke-linecap="round"/><path d="M313.75073,160.98478c0,0 -2.60568,4.70736 -2.01666,6.37674c1.97545,5.59886 -1.69388,11.13485 -6.60457,10.44285c-3.27,-0.4608 8.95714,-17.64465 8.95714,-17.64465l12.40186,-1.22786" fill="#ffaf36" stroke="#000000" stroke-linecap="round"/><path d="M334.80588,196.81007c0,0 2.30617,24.1172 -7.98415,16.0472c-5.57147,-4.36931 8.28895,-17.19639 8.28895,-17.19639l16.12574,-40.31436" fill="#ffaf36" stroke="#000000" stroke-linecap="round"/><path d="M296.71021,202.25879c3.3343,-3.49374 7.77443,-3.32557 11.92629,-4.46395c13.39118,-3.67167 34.24979,74.89584 47.90846,76.06496" fill="none" stroke="#000000" stroke-linecap="round"/><path d="M356.39508,309.44352c-0.73385,-9.91265 2.32731,-31.27139 2.32731,-31.27139" fill="none" stroke="#000000" stroke-linecap="round"/><path d="M297.51042,206.95584c0.60174,9.49552 -2.81914,20.25468 -2.41989,29.74904" fill="none" stroke="#000000" stroke-linecap="round"/><path d="M276.12857,226.32805l14.82372,-44.1889l-9.11428,43.08726z" fill="#fce541" stroke="#fcec41" stroke-linecap="round"/><path d="M273.64432,220.49386l14.82372,-44.1889l-9.11427,43.08726z" fill="#fce541" stroke="#fcec41" stroke-linecap="round"/><path d="M365.61032,286.02314l-16.23748,-75.48997l26.10889,68.14038z" fill="#fce541" stroke="#fcec41" stroke-linecap="round"/><path d="M318.04469,144.25718l42.26328,-0.81131l12.47643,7.03189l-14.00003,10.15907l-44.48253,-5.41616l3.90253,-11.1704z" fill="#fffe8a" stroke="#000000" stroke-linecap="round"/><g stroke-linecap="butt"><path d="M326.49939,45.26747l-13.62459,91.2894l-6.99334,13.57228l0.13324,-2.22135l1.26201,-17.73071l-1.8036,-104.38496l3.33454,-17.29359l1.92487,0.44147l9.94222,19.65224l6.63009,16.57213z" fill="#feed00" stroke="#000000"/><path d="M328.58504,106.44422l-12.92816,22.55144l-4.24083,9.62217l0.01809,-1.46458l0.27718,-11.71187l-5.00437,-89.63894l1.67645,-11.65247l1.30068,0.07836l7.27305,11.74472l12.16296,70.3161z" fill="#ffa700" stroke="none"/></g><g stroke-linecap="butt"><path d="M361.79542,52.21751l10.21961,-11.81584l13.88444,-13.46607l1.75617,0.14406l-1.96152,15.02115l15.34641,92.49698l-3.84186,14.83477l-0.50244,1.85199l-2.17521,-12.93738l-32.07056,-85.83398z" fill="#feed00" stroke="#000000"/><path d="M366.11735,54.37054l7.00805,-6.95582l9.42772,-7.69828l1.12572,0.27729l-1.80583,9.97158l16.7156,79.59483l-3.00999,9.6529l-0.39046,1.20278l-0.93341,-8.98382l-15.66277,-38.44951z" fill="#ffa700" stroke="none"/></g><path d="M342.1217,45.27554l40.42221,51.60863l14.46238,39.80786l1.26147,7.8421l-46.81749,18.23746l-44.47072,-26.79128l2.90874,-9.38676l3.87277,-11.23556l28.65123,-69.74243z" fill="#feed00" stroke="#000000" stroke-linecap="butt"/><path d="M393.93811,148.07716l8.67864,12.86146l-8.14927,1.96295l-10.07569,-13.91652l-0.6729,8.4441l-13.82969,-2.44938" fill="#feed00" stroke="#000000" stroke-linecap="round"/><path d="M304.59824,140.9663l-13.07716,8.35008l11.55819,-16.83476l-1.86222,2.12824l-2.74024,8.0154l13.66335,3.25169" fill="#feed00" stroke="#000000" stroke-linecap="round"/><path d="M272.32444,112.91674l32.29261,24.46316" fill="none" stroke="#000000" stroke-linecap="round"/><path d="M274.14885,127.82552l30.5626,10.83056" fill="none" stroke="#000000" stroke-linecap="round"/><path d="M303.77948,138.82185l-26.78841,-2.32653" fill="none" stroke="#000000" stroke-linecap="round"/><path d="M397.2923,146.61852l22.63156,-28.67687" fill="none" stroke="#000000" stroke-linecap="round"/><path d="M394.53218,146.94374l22.59694,-13.4554" fill="none" stroke="#000000" stroke-linecap="round"/><path d="M397.68889,149.03442l14.75633,-6.85389" fill="none" stroke="#000000" stroke-linecap="round"/><path d="M340.76099,131.7027l11.04936,2.51521l1.28795,0.59104l-8.01709,2.74916l-3.91088,-5.77052z" fill="#000000" stroke="#000000" stroke-linecap="round"/><path d="M345.4937,113.62761l-19.82263,31.86259l-9.75674,-15.11194l14.96121,-9.98631z" fill="#ffffff" stroke="#000000" stroke-linecap="butt"/><path d="M390.85533,136.94405l-25.89934,-6.62342l-9.75675,-15.11192l25.89933,6.62342l9.75674,15.11193z" fill="#ffffff" stroke="#000000" stroke-linecap="butt"/><path d="M339.2208,110.76016l-11.42874,27.92927l-3.29774,-8.09869l5.99629,-4.10701z" fill="url(#color-1)" stroke="#000000" stroke-linecap="butt"/><path d="M383.53301,134.23212l-17.29943,-10.07058l-3.82252,-8.65093l17.12815,12.37005l3.9938,6.35147z" fill="url(#color-2)" stroke="#000000" stroke-linecap="butt"/><path d="M330.75961,107.69515l1.82129,-64.60631l4.00412,-0.98247l-4.19073,-3.14026l13.88489,0.80611l4.16366,0.85877l-4.98039,-4.62926l5.07722,2.37257l8.86472,12.68529" fill="#feed00" stroke="#000000" stroke-linecap="butt"/><path d="M314.08282,121.3551l-3.10715,-5.6674l-4.99522,-4.18206l7.93601,-1.8855l8.31193,-1.5367" fill="#feed00" stroke="#000000" stroke-linecap="butt"/><path d="M352.8769,154.11346l-6.4263,-5.41681" fill="none" stroke="#fcec41" stroke-linecap="round"/><path d="M336.26094,165.01952l-0.69834,9.55894" fill="none" stroke="#fcec41" stroke-linecap="round"/><path d="M337.23909,171.69399l0.35769,-4.89605" fill="none" stroke="#fcec41" stroke-linecap="round"/><path d="M343.96407,170.75013l-0.42691,-3.78142" fill="none" stroke="#fcec41" stroke-linecap="round"/></g></g></svg>