<svg version="1.1" xmlns="http://www.w3.org/2000/svg" xmlns:xlink="http://www.w3.org/1999/xlink" width="189.52173" height="323.48989" viewBox="0,0,189.52173,323.48989"><g transform="translate(-241.17689,-31.84466)"><g data-paper-data="{&quot;isPaintingLayer&quot;:true}" fill-rule="nonzero" stroke-linejoin="miter" stroke-miterlimit="10" stroke-dasharray="" stroke-dashoffset="0" style="mix-blend-mode: normal"><g stroke-width="2"><path d="M371.47592,226.05388c3.33936,-2.93023 7.78615,-8.69527 11.64948,-9.03581c7.32423,-0.64561 18.4064,12.94194 15.03227,25.96344c-0.55269,2.13297 -2.08503,6.75333 -3.96109,5.62905c-0.40974,-0.24557 -1.57489,-2.80892 -2.04048,-2.35192c-0.15291,0.15009 -0.32699,4.57055 -0.49199,5.22835c-0.88005,3.50802 -2.67959,7.08907 -5.14125,7.83171c-2.41413,0.72831 -3.15292,-6.06598 -4.1857,-5.89988c-1.55095,0.24944 -4.2248,8.44697 -8.74763,3.34797c-2.44725,-2.75901 -2.44644,-13.50816 -2.67455,-13.75329c-1.1846,-1.27303 -5.89134,2.43882 -8.05138,-4.87329c-1.98663,-6.72516 5.14073,-13.28711 8.45965,-12.40302z" fill="#feed00" stroke="#000000" stroke-linecap="round"/><path d="M389.76639,236.3578c-0.75201,1.85155 -1.94699,2.98044 -3.27056,3.35524c-1.46503,0.41488 -2.25642,-2.76965 -3.61031,-4.24493c-1.41296,-1.53965 -3.07112,-1.13658 -3.26873,-3.51841c-0.1628,-1.96231 0.10153,-3.99885 0.81723,-5.76096c1.5844,-3.90098 4.95793,-4.78694 7.535,-1.97883c2.57707,2.80813 3.38177,8.24691 1.79738,12.14788z" fill="#ffa600" stroke="none" stroke-linecap="butt"/><path d="M369.80832,237.72944c-0.67906,2.25944 -2.4743,3.05609 -4.00977,1.77942c-1.53546,-1.27669 -2.22972,-4.14331 -1.55065,-6.40273c0.67906,-2.25944 2.4743,-3.05609 4.00976,-1.77942c1.53546,1.27669 2.22974,4.1433 1.55066,6.40273z" fill="#ffa600" stroke="none" stroke-linecap="butt"/><path d="M379.29307,253.86531c-0.67001,2.2293 -2.44237,3.01449 -3.95863,1.75374c-1.51628,-1.26073 -2.20233,-4.08999 -1.5323,-6.31928c0.67001,-2.2293 2.44237,-3.01449 3.95864,-1.75375c1.51628,1.26073 2.20233,4.08999 1.5323,6.31928z" fill="#ffa600" stroke="none" stroke-linecap="butt"/><path d="M389.20037,253.85331c-0.66096,2.19919 -2.20812,3.14107 -3.4557,2.10374c-1.24757,-1.0373 -1.72312,-3.66102 -1.06215,-5.8602c0.66096,-2.19919 2.20812,-3.14107 3.4557,-2.10374c1.24757,1.0373 1.72312,3.661 1.06215,5.8602z" fill="#ffa600" stroke="none" stroke-linecap="butt"/><path d="M397.21613,242.79169c-0.62472,2.07867 -1.8158,3.19454 -2.6603,2.49236c-0.8445,-0.7022 -1.02267,-2.9565 -0.39793,-5.03518c0.62472,-2.07867 1.8158,-3.19454 2.6603,-2.49236c0.8445,0.7022 1.02267,2.9565 0.39793,5.03518z" fill="#ffa600" stroke="none" stroke-linecap="butt"/></g><path d="M315.89996,247.81602c-8.23157,2.31973 -19.66073,-2.07468 -27.19042,-5.66374c-22.77575,-10.85613 -48.41105,-34.28209 -46.42397,-62.32453c1.34394,-18.96641 17.63811,-29.7852 33.42016,-36.55533c5.98744,-2.56847 18.48824,-6.60281 21.10779,2.10695c0.69709,2.31781 0.53169,4.712 -0.84304,6.78386c-2.96987,4.47594 -10.56211,4.69731 -15.03028,7.25502c-13.50119,7.72847 -21.00876,21.30571 -15.20629,36.42711c6.14366,16.01058 23.95397,23.7979 40.07277,23.99478c8.33232,0.10176 16.98096,-2.62264 25.1249,0.82916c24.14514,10.23388 1.64741,27.05798 -13.86469,27.61798z" fill="#feed00" stroke="#000000" stroke-width="2" stroke-linecap="round"/><path d="M309.32538,242.14661c5.69391,0.73595 13.54417,0.73081 19.37831,0.71733c6.36122,-0.01471 14.6502,2.1765 21.02571,3.12368c3.74508,0.5564 12.37414,0.95885 15.10979,2.92261c1.77081,1.27116 1.26961,3.82284 1.53819,5.21369c0.99797,5.16837 -0.74598,10.4042 0.24056,15.66951c1.16538,6.21984 -1.6683,11.9889 -1.71214,18.18329c-0.08196,11.57965 -0.8669,23.23798 -7.05925,34.04936c-2.70787,4.72775 4.5465,11.98739 -4.67291,13.75377c-3.26468,0.62549 -11.99138,6.39588 -15.43952,5.88361c-5.0022,-0.74315 -10.35435,-6.54583 -16.32029,-8.53678c-7.59633,-2.53503 -18.5287,0.24869 -24.12513,-2.13711c-2.80132,-1.19424 -6.15338,-4.97518 -7.38599,-7.10809c-1.54511,-2.67369 3.45731,-13.04177 4.13097,-16.22946c3.31285,-15.67585 3.78433,-24.51934 7.0975,-40.20934c1.08869,-5.15565 3.10348,-22.33071 6.79001,-25.50387z" fill="#3c2c1f" stroke="#000000" stroke-width="2" stroke-linecap="round"/><g stroke-width="2"><path d="M306.87681,221.17198c3.4326,0.11894 8.34446,8.46951 4.48855,14.32666c-4.19248,6.36836 -7.61685,1.44851 -9.12038,2.32216c-0.28953,0.16823 -3.41368,10.45336 -6.55732,12.38176c-5.80983,3.56394 -5.98507,-5.05688 -7.39652,-5.74643c-0.9399,-0.45918 -3.62194,5.8269 -5.7201,4.42821c-2.13942,-1.4262 -2.82019,-5.37572 -2.6424,-8.98808c0.03335,-0.67736 1.15187,-4.95752 1.0492,-5.14558c-0.31264,-0.57262 -2.17264,1.5413 -2.6361,1.65715c-2.12189,0.53035 -2.24485,-4.33594 -2.15357,-6.53746c0.55713,-13.44001 15.11075,-23.21896 21.93095,-20.47199c3.59749,1.44897 6.17624,8.25775 8.51954,12.03222z" fill="#feed00" stroke="#000000" stroke-linecap="round"/><path d="M291.39396,214.87151c3.28212,-1.93765 6.25241,-0.10925 6.63431,4.08387c0.17251,1.89409 -0.16662,3.91951 -0.89286,5.74974c-0.8815,2.22151 -2.35086,1.3538 -4.15041,2.41619c-1.72431,1.01797 -3.4073,3.83488 -4.68845,3.01202c-1.15745,-0.7434 -1.97265,-2.17089 -2.1539,-4.16111c-0.3819,-4.19311 1.96918,-9.16304 5.25131,-11.10071z" fill="#ffa600" stroke="none" stroke-linecap="butt"/><path d="M308.18503,227.4113c1.84031,-0.77518 3.3264,0.50899 3.31929,2.86826c-0.00712,2.35928 -1.50475,4.90024 -3.34504,5.6754c-1.84031,0.77518 -3.32642,-0.50897 -3.31931,-2.86823c0.00712,-2.35928 1.50475,-4.90024 3.34505,-5.6754z" fill="#ffa600" stroke="none" stroke-linecap="butt"/><path d="M294.37719,240.16741c1.81731,-0.76547 3.28484,0.50103 3.27782,2.82883c-0.00702,2.3278 -1.48593,4.83541 -3.30323,5.60089c-1.81731,0.76547 -3.28484,-0.50103 -3.27782,-2.82883c0.00702,-2.3278 1.48593,-4.83541 3.30323,-5.60089z" fill="#ffa600" stroke="none" stroke-linecap="butt"/><path d="M284.31795,237.57832c1.49525,-0.62982 2.70177,0.72116 2.69486,3.0175c-0.00692,2.29635 -1.22469,4.66848 -2.71994,5.29831c-1.49525,0.62982 -2.70177,-0.72116 -2.69486,-3.0175c0.00692,-2.29635 1.22469,-4.66848 2.71994,-5.29831z" fill="#ffa600" stroke="none" stroke-linecap="butt"/><path d="M278.98878,225.26045c1.01217,-0.42636 1.82739,0.98759 1.82085,3.15811c-0.00654,2.17052 -0.83237,4.2757 -1.84455,4.70203c-1.01217,0.42636 -1.82739,-0.98759 -1.82085,-3.15811c0.00654,-2.17052 0.83237,-4.27568 1.84455,-4.70203z" fill="#ffa600" stroke="none" stroke-linecap="butt"/></g><path d="M311.29078,202.63641c-2.57341,6.03584 -4.62294,17.4265 -9.35398,21.96062c-3.77314,3.6161 -21.6273,-5.36742 -23.59501,-9.54014c-0.68442,-1.45138 6.43373,-17.48714 7.47889,-19.79678c8.01834,-17.71916 17.13751,-34.33311 26.41588,-51.48803c2.54724,-4.70964 7.34481,-7.46906 9.91105,-11.86913l1.15604,0.21692c12.51089,4.50438 23.25738,12.02903 37.18723,12.52147c5.57493,0.19709 9.88814,-1.12541 14.44335,-4.33984c1.04149,-0.73493 3.99186,-2.43442 5.28472,-1.2728c2.90984,2.61449 3.62793,11.09027 4.82898,14.76173c4.95326,15.14133 7.43837,31.30471 8.40559,47.21766c0.28317,4.65866 4.08749,12.31659 2.2986,16.68024c-2.09506,5.11044 -11.95244,10.28083 -16.53542,13.06498c-1.27541,0.77481 -4.81249,4.1663 -5.9477,2.05963c-1.58152,-2.93492 -0.37,-23.211 -0.37,-23.211c0,0 -1.62276,15.95376 -1.89876,23.93802c-0.13536,3.91595 0.83117,10.54083 -1.56544,13.98798c-1.82545,2.62565 -10.82987,2.16855 -13.73241,2.05807c-11.741,-0.44691 -23.32744,-4.44764 -35.06488,-4.85583c-3.81504,-0.13268 -13.72343,1.25349 -16.79535,-1.04421c-1.63723,-1.22462 0.09846,-6.5204 0.35519,-8.24855c1.13029,-7.60807 1.25109,-16.5198 3.85022,-23.75486" fill="#fffe8a" stroke="#000000" stroke-width="2" stroke-linecap="round"/><path d="M330.48787,124.75442c14.26812,-0.37838 28.15318,-0.89033 42.2063,2.33915c2.99696,0.68873 13.41657,3.38934 11.91798,7.94172c-2.03675,6.18712 -8.74855,8.56013 -14.71789,9.08799c-10.76128,0.9516 -35.41425,-1.87933 -43.95549,-8.71462c-6.07879,-4.86464 -3.23712,-12.03139 4.72377,-10.84868z" fill="#fffe8a" stroke="#000000" stroke-width="2" stroke-linecap="round"/><g stroke-width="2" stroke-linecap="round"><path d="M345.82616,54.82403c-13.02337,3.18256 -16.18566,15.90143 -21.27871,26.50044c-0.55971,1.16481 -5.21841,11.47034 -6.46988,11.11027c-0.5196,-0.14949 -0.22786,-1.05828 -0.29885,-1.59425c-0.56507,-4.26632 -1.52516,-8.4918 -2.11882,-12.76931c-1.48159,-10.67502 -1.91335,-21.52277 -2.2501,-32.3058c-0.09672,-3.09648 -0.89442,-10.25053 0.75762,-12.92072c1.05864,-1.71107 1.5155,-0.83643 2.67909,-0.11562c5.97906,3.70389 11.77326,7.668 17.57385,11.63973c4.25974,2.91669 9.56917,5.8209 12.46486,10.20413z" fill="#feed00" stroke="#000000"/><path d="M339.16276,56.63123c-8.41695,2.8641 -9.76197,11.45104 -12.50644,18.75053c-0.30161,0.80221 -2.7763,7.8824 -3.62408,7.71777c-0.35198,-0.06836 -0.21241,-0.68576 -0.29065,-1.03566c-0.62282,-2.78522 -1.5042,-5.52039 -2.14657,-8.31134c-1.60311,-6.96514 -2.52283,-14.1058 -3.37599,-21.20923c-0.24501,-2.03983 -1.19041,-6.71908 -0.25527,-8.57961c0.59925,-1.19225 0.9522,-0.64119 1.76303,-0.23307c4.16635,2.09703 8.22578,4.37676 12.2899,6.66116c2.98453,1.67758 6.66177,3.28549 8.83101,6.01165z" fill="#ffa700" stroke="none"/></g><g stroke-width="2" stroke-linecap="round"><path d="M380.15327,60.71214c3.84896,-3.5754 9.69405,-5.14358 14.52211,-6.97179c6.57448,-2.48952 13.14095,-4.97313 19.82558,-7.16024c1.3009,-0.42564 1.95141,-1.16766 2.57601,0.74505c0.97473,2.98481 -1.48994,9.74815 -2.31517,12.73418c-2.87377,10.39848 -5.85513,20.83741 -9.81582,30.86059c-1.58707,4.0163 -3.51788,7.89556 -5.07451,11.90774c-0.19555,0.50406 -0.12671,1.45602 -0.6669,1.47858c-1.30111,0.05431 -3.39427,-11.05991 -3.66306,-12.32395c-2.44589,-11.50198 -2.51507,-24.60792 -14.41844,-30.77604z" fill="#feed00" stroke="#000000"/><path d="M386.55947,64.15283c2.75171,-2.13674 6.70463,-2.83076 10.00094,-3.75606c4.48864,-1.26 8.97165,-2.51659 13.51538,-3.57034c0.88426,-0.2051 1.35738,-0.65719 1.65812,0.64284c0.4693,2.02875 -1.55442,6.35236 -2.27421,8.27664c-2.5066,6.70103 -5.08665,13.42251 -8.28931,19.81203c-1.28331,2.56031 -2.78568,5.00994 -4.04866,7.56929c-0.15867,0.32154 -0.16887,0.95443 -0.52704,0.93775c-0.86269,-0.04022 -1.59529,-7.5046 -1.69892,-8.35534c-0.94297,-7.74116 -0.22206,-16.40282 -7.72454,-21.17367z" fill="#ffa700" stroke="none"/></g><path d="M362.1318,54.94675c10.32507,1.53394 22.83639,2.37766 29.06805,11.62739c5.39055,8.00127 4.10387,14.27963 4.83961,22.95977c0.22598,2.66591 1.81883,4.84899 1.70602,7.75752c-0.68408,17.63469 -12.45889,37.71053 -33.83664,36.83395c-17.90483,-0.73418 -38.20682,-7.44441 -45.92428,-24.21525c-4.81896,-10.47211 1.48515,-22.77177 5.97712,-31.65479c1.7405,-3.44192 1.25493,-7.83938 3.22664,-11.43788c7.71884,-14.08739 20.95163,-13.67249 35.25291,-11.54781z" fill="#feed00" stroke="#000000" stroke-width="2" stroke-linecap="round"/><path d="M393.60494,101.20803c4.18431,1.01575 14.6314,7.03664 9.39702,12.34635c-1.36193,1.38152 -7.48317,1.28931 -8.02427,2.42386c-0.40579,0.85084 0.82779,1.71576 1.01441,2.63973c0.49938,2.47242 0.53107,6.03928 -0.19092,8.46873c-1.9863,6.6839 -11.42687,1.6838 -13.94675,-1.65782" fill="#feed00" stroke="#000000" stroke-width="2" stroke-linecap="round"/><path d="M323.68071,119.62956c-3.3825,2.46473 -13.86892,4.50436 -13.82636,-2.46829c0.01547,-2.53442 1.08274,-5.93802 2.27931,-8.15845c0.4472,-0.82984 1.87893,-1.29878 1.738,-2.23084c-0.1879,-1.24287 -6.07158,-2.93415 -6.97305,-4.65195c-3.4647,-6.60211 8.28153,-9.32582 12.5804,-9.08126" fill="#feed00" stroke="#000000" stroke-width="2" stroke-linecap="round"/><path d="M285.66025,66.87269c14.13116,2.31655 23.1355,14.32488 33.63336,22.58445" fill="none" stroke="#000000" stroke-width="2" stroke-linecap="round"/><path d="M288.33074,81.65336c10.84412,0.29323 21.20205,5.26573 31.12978,9.0725" fill="none" stroke="#000000" stroke-width="2" stroke-linecap="round"/><path d="M291.6621,90.14725c8.83382,-0.33127 18.12209,-0.50353 26.87742,0.7972" fill="none" stroke="#000000" stroke-width="2" stroke-linecap="round"/><path d="M396.87061,99.56075c9.52161,-7.0584 20.32229,-15.80043 32.82801,-13.95927" fill="none" stroke="#000000" stroke-width="2" stroke-linecap="round"/><path d="M394.13348,100.04263c11.99396,-6.13427 22.10558,-4.24306 33.66027,1.23946" fill="none" stroke="#000000" stroke-width="2" stroke-linecap="round"/><path d="M397.40415,101.95015c9.01379,-2.13926 19.22208,2.86978 26.20833,8.27676" fill="none" stroke="#000000" stroke-width="2" stroke-linecap="round"/><path d="M351.4479,103.84841c3.67962,0.54667 7.58932,0.88367 11.17467,1.88189c0.45505,0.1267 1.28016,0.046 1.31952,0.51674c0.05156,0.61661 -7.09693,3.37047 -7.84752,3.20127c-1.68785,-0.38048 -3.76374,-4.10347 -4.23316,-5.53845z" fill="#000000" stroke="#000000" stroke-width="2" stroke-linecap="round"/><path d="M355.14357,85.53309c-1.04015,7.00129 -5.51743,5.19932 -12.41264,4.17493c-6.89521,-1.02438 -13.59726,-0.88328 -12.55712,-7.88457c1.04015,-7.00129 7.47302,-11.84652 14.36822,-10.82213c6.89521,1.02438 11.64168,7.53048 10.60153,14.53177z" fill="#ffffff" stroke="#000000" stroke-width="2" stroke-linecap="butt"/><path d="M389.89314,90.26853c-1.04015,7.00129 -6.10826,5.91825 -13.00346,4.89387c-6.89521,-1.02438 -13.00642,-1.60221 -11.96628,-8.60349c1.04015,-7.00129 7.47302,-11.84652 14.36822,-10.82213c6.89521,1.02438 11.64166,7.53047 10.60151,14.53176z" fill="#ffffff" stroke="#000000" stroke-width="2" stroke-linecap="butt"/><path d="M354.2533,85.31651c-0.74296,5.00093 -4.38826,4.892 -9.19683,4.17761c-4.80857,-0.71439 -8.95953,-1.76371 -8.21657,-6.76463c0.74296,-5.00093 5.24338,-8.47584 10.05196,-7.76146c4.80857,0.71439 8.10441,5.34756 7.36145,10.34848z" fill="#ffffff" stroke="#000000" stroke-width="2" stroke-linecap="butt"/><path d="M388.6195,90.76337c-0.74296,5.00093 -4.82123,5.63438 -9.6298,4.92c-4.80857,-0.71439 -8.52655,-2.50609 -7.78359,-7.50702c0.74296,-5.00093 5.24338,-8.47584 10.05196,-7.76146c4.80857,0.71439 8.10441,5.34756 7.36145,10.34848z" fill="#ffffff" stroke="#000000" stroke-width="2" stroke-linecap="butt"/><path d="M343.70322,58.33178c1.13746,-3.56819 4.98287,-4.17193 8.75902,-4.89209c0.41822,-0.07976 3.95204,-0.70545 3.94167,-1.20888c-0.01888,-0.91583 -5.33545,-1.04629 -4.36278,-2.8965c1.3064,-2.48504 11.66289,-0.3193 13.90827,0.01407c0.32338,0.04801 4.13058,0.75655 4.20581,0.62027c0.32231,-0.58398 -5.79677,-3.58308 -5.23592,-4.33813c0.30654,-0.4127 4.76265,1.83211 5.20409,2.07957c5.78338,3.24195 6.64136,7.21474 9.57273,12.15988" fill="#feed00" stroke="#000000" stroke-width="2" stroke-linecap="round"/><path d="M327.83143,72.91928c-2.17484,-1.49815 -1.88484,-3.54553 -3.42488,-5.48126c-0.78629,-0.9883 -5.55323,-2.30741 -5.22527,-3.89079c0.43137,-2.08263 6.43947,-2.01953 7.81577,-2.33438c0.9689,-0.22165 0.8164,-8.59161 8.21092,-2.00756" fill="#feed00" stroke="#000000" stroke-width="2" stroke-linecap="round"/><path d="M330.50251,176.14861c1.1511,0.69066 4.58898,0.94255 4.83905,2.53444c0.83878,5.33904 -3.80181,9.32606 -8.44532,7.59382c-3.09207,-1.15348 4.09265,-10.77094 4.09265,-10.77094c0,0 3.80838,-23.44163 7.98412,-34.44987" fill="#ffaf36" stroke="#000000" stroke-width="2" stroke-linecap="round"/><path d="M356.86166,180.67579c11.05774,-9.17743 5.61283,19.00662 -2.83706,9.60074c-4.57502,-5.09259 2.48645,-8.11671 3.35588,-10.53337c4.10385,-11.4072 1.03476,-24.73613 6.36213,-36.12832" fill="#ffaf36" stroke="#000000" stroke-width="2" stroke-linecap="round"/><path d="M313.97506,205.67896c3.9196,-2.28211 8.20665,-1.11506 12.46602,-1.15424c13.73788,-0.12633 28.59577,2.98837 41.65745,7.14714" fill="none" stroke="#000000" stroke-width="2" stroke-linecap="round"/><path d="M365.68515,242.51024c1.20357,-8.81757 0.9184,-17.97757 3.69754,-26.57541" fill="none" stroke="#000000" stroke-width="2" stroke-linecap="round"/><path d="M313.84495,209.9611c-1.25141,8.42325 -2.04493,16.85014 -3.49313,25.22586" fill="none" stroke="#000000" stroke-width="2" stroke-linecap="round"/><path d="M332.61943,134.99857c-2.45778,-1.29333 -3.83931,-4.1007 -6.00494,-5.88046" fill="none" stroke="#fcec41" stroke-width="2" stroke-linecap="round"/><path d="M375.31694,138.98382c1.77123,-0.83338 3.40435,-1.45816 5.31198,-1.91092" fill="none" stroke="#fcec41" stroke-width="2" stroke-linecap="round"/><path d="M344.15253,156.62035l1.40845,-9.48036" fill="none" stroke="#fcec41" stroke-width="2" stroke-linecap="round"/><path d="M348.54846,150.89248l-0.7214,4.85581" fill="none" stroke="#fcec41" stroke-width="2" stroke-linecap="round"/><path d="M352.05125,151.17655l0.14404,3.80271" fill="none" stroke="#fcec41" stroke-width="2" stroke-linecap="round"/><path d="M293.91196,221.77562l18.35343,-34.97447l-12.58591,35.32527z" fill="#fce541" stroke="#fcec41" stroke-width="2" stroke-linecap="round"/><path d="M293.91196,221.77562l18.35343,-34.97447l-12.58591,35.32527z" fill="#fce541" stroke="#fcec41" stroke-width="2" stroke-linecap="round"/><path d="M376.76694,229.51828l-2.76761,-30.76235l9.177,26.79267z" fill="#fce541" stroke="#fcec41" stroke-width="2" stroke-linecap="round"/><path d="M322.51631,332.3766l11.96874,-75.81442" fill="none" stroke="#000000" stroke-width="2" stroke-linecap="round"/><path d="M323.6715,341.01286c-1.27411,8.57613 -11.03603,14.23165 -21.80384,12.63193c-10.76782,-1.59972 -18.46398,-9.84887 -17.18986,-18.42503c1.27411,-8.57613 11.03603,-14.23165 21.80384,-12.63193c10.76782,1.59972 18.46398,9.84887 17.18986,18.42503z" fill="#000000" stroke="#000000" stroke-width="2" stroke-linecap="butt"/><path d="M362.3397,341.43196c-1.27411,8.57614 -11.03603,14.23165 -21.80385,12.63193c-10.76781,-1.59972 -18.46398,-9.84887 -17.18986,-18.42503c1.27411,-8.57614 11.03603,-14.23165 21.80384,-12.63193c10.76782,1.59972 18.46399,9.84887 17.18987,18.42503z" fill="#000000" stroke="#000000" stroke-width="2" stroke-linecap="butt"/><path d="M340.14029,130.30302c-0.40226,-0.72485 -0.90528,-1.69758 -0.96633,-1.81324c-0.21187,-0.40133 -0.51172,-0.84974 -0.8174,-1.32914c-0.33855,-0.1255 -0.69813,-0.24536 -0.97053,-0.40262c-0.15409,0.08393 -0.30304,0.16478 -0.44641,0.24211c-0.27967,0.15081 0.77902,3.42477 1.07351,3.51777c0.60708,0.1917 1.36071,-0.00168 2.12716,-0.21486zM339.16244,124.08842c0.13492,-0.06066 0.27083,-0.12093 0.40753,-0.18085c0.02056,-0.01081 0.04129,-0.02163 0.06217,-0.03247c-0.01674,-0.09192 -0.02657,-0.2311 -0.0312,-0.40127c-0.00279,-0.02261 -0.00326,-0.04528 -0.00155,-0.06794c-0.00168,-0.09019 -0.00208,-0.18777 -0.00143,-0.29066c-0.0139,-0.05357 -0.02759,-0.1072 -0.04107,-0.16084c-0.29558,0.32443 -0.46357,0.67391 -0.40811,1.04893c0.00414,0.02791 0.0087,0.05627 0.01369,0.08506zM345.25098,116.8176c-0.15736,0.06458 -0.31198,0.12649 -0.46349,0.18517c-0.18683,0.07238 -1.96216,0.65132 -3.16497,1.14392c-0.04204,0.17351 -0.06445,0.37169 -0.07305,0.58506c0.03516,-0.02167 0.07114,-0.04305 0.10797,-0.06414c0.68036,-0.38976 1.57447,-0.32803 2.36172,-0.49206c0.13013,-0.0225 0.26206,-0.04624 0.3956,-0.07106c0.32283,-0.19334 0.64515,-0.37803 0.96786,-0.54875c0.06087,-0.06821 0.11514,-0.11814 0.16103,-0.14568c0.11015,-0.06611 0.26176,-0.1177 0.44559,-0.1572c1.55215,-0.72534 3.12536,-1.05317 4.81502,-0.39918c0.31336,-0.0421 0.62139,-0.07695 0.92205,-0.10265c0.03729,-0.02238 0.07569,-0.04396 0.11534,-0.06469c0.19749,-0.10326 0.40903,-0.16725 0.62871,-0.2086c-0.30396,-0.2162 -0.59172,-0.39579 -0.84717,-0.52745c-0.65612,-0.33813 -1.8012,0.17166 -2.70093,0.34373c-0.45118,0.08354 -2.07984,0.2714 -3.67124,0.52357zM359.2738,116.65996c0.46578,0.0304 0.93596,0.06444 1.40371,0.1041c-0.30332,-0.22172 -0.63521,-0.36754 -1.0505,-0.22819c-0.11711,0.03929 -0.23488,0.08071 -0.35322,0.12409zM368.11462,129.07522c-1.24094,0.15315 -2.78483,0.00524 -4.11724,-0.09442c-0.88485,0.48833 -1.7433,0.95547 -1.88533,1.00868c-0.17946,0.27216 -0.39575,0.52097 -0.66187,0.72457c-0.23054,0.17638 -0.51723,0.35411 -0.84231,0.53099c0.6206,-0.10031 1.24343,-0.2136 1.8604,-0.28976c1.07605,-0.13281 5.42043,-0.25209 5.65015,-0.9678c-0.02194,-0.26364 -0.01796,-0.57353 -0.0038,-0.91226zM370.13883,121.6648c0.00793,0.10719 0.01615,0.20914 0.02612,0.30395c0.00467,0.04441 0.01345,0.12562 0.02505,0.23414c0.00984,0.00381 0.01973,0.00766 0.02974,0.01153c0.34387,-0.1324 1.04742,-0.19566 0.94987,-0.41287c-0.10699,-0.23824 -0.63552,-0.12064 -1.0308,-0.13672zM350.40698,114.61522c2.3414,-0.14461 3.37165,0.61452 4.52834,1.7815c0.33085,0.02677 0.68573,0.0508 1.05908,0.07368c1.25463,-0.64693 2.47819,-1.17801 3.54233,-1.41389c0.08463,-0.01875 0.17072,-0.03329 0.25814,-0.04381c-2.40594,-0.83234 -5.01682,-1.49339 -7.28605,-1.02706c-0.66279,0.13621 -1.37279,0.35926 -2.10188,0.62959zM364.6554,116.77828c0.55408,0.35254 1.0767,0.71275 1.54065,1.0347c0.33276,0.14005 0.62699,0.29702 0.87417,0.47337c0.25226,0.05651 0.4952,0.11703 0.72526,0.18238c0.21615,-0.32716 0.30753,-0.62587 0.05371,-0.82762c-0.7393,-0.58763 -2.14036,-0.54179 -3.17614,-0.85742c-0.00589,-0.00179 -0.01177,-0.00359 -0.01767,-0.0054zM354.83482,132.26266c-0.27341,-0.13343 -0.53582,-0.2815 -0.78867,-0.44093c-0.25533,0.05002 -0.50403,0.09199 -0.74481,0.12475c-0.66915,0.09106 -1.37593,0.07626 -2.10099,-0.01301c0.38616,0.17162 0.76703,0.34744 1.13939,0.52972c0.2796,0.13687 0.39483,0.51443 0.77143,0.46966c0.61744,-0.07339 1.17584,-0.35004 1.72366,-0.67018zM370.54288,124.00047c-0.05556,0.04806 -0.11125,0.09638 -0.16709,0.14491c0.04215,0.54432 0.0629,0.99772 0.02431,1.08439c-0.05962,0.13396 -0.13104,0.25739 -0.21267,0.37149c0.01887,0.16226 0.03287,0.32702 0.0429,0.49341c0.02,-0.03012 0.04073,-0.05997 0.06239,-0.0895c0.37844,-0.51616 1.60803,-1.26002 1.08738,-1.56057c-0.26652,-0.15386 -0.54638,-0.30161 -0.83723,-0.44416zM368.19123,127.52136c0.00697,-0.22956 0.00971,-0.46064 0.0049,-0.68951c-0.23902,0.07909 -0.48295,0.15109 -0.72529,0.2212c-0.25893,0.14519 -0.50439,0.2814 -0.71801,0.39942c0.17716,0.00292 0.35297,0.0068 0.52724,0.01176c0.22055,0.00628 0.55584,0.04993 0.91115,0.05714zM370.20952,128.29069c-0.02824,0.6149 -0.05723,1.19825 -0.0394,1.70321c-1.78707,2.42593 -4.57017,2.0709 -7.79211,2.46856c-0.3024,0.03733 -4.24665,0.52936 -4.42204,0.52845c-0.41366,-0.00213 -0.80673,-0.03724 -1.18137,-0.10054c-0.55429,0.21263 -1.06636,0.40857 -1.48305,0.58129c-0.82687,0.34276 -1.62625,0.9162 -2.50232,0.98778c-0.34807,0.02844 -3.13877,-1.22254 -3.40742,-1.33881c-1.1383,-0.49261 -2.98579,-1.02471 -4.57643,-1.69068c-0.16045,0.00396 -0.32093,0.00789 -0.4814,0.01185c-0.693,0.01705 -1.77835,0.12744 -2.652,0.01145c-0.05648,0.00613 -0.11263,0.01246 -0.1684,0.01894c-0.65563,0.0762 -4.43258,0.55047 -4.79088,0.42c-0.65341,-0.23796 -0.61031,-0.97166 -0.87353,-1.47484c-0.62638,-1.19731 -2.16261,-2.8875 -0.29973,-4.31603c0.4894,-0.37528 1.07673,-0.73734 1.72598,-1.08737c-0.30097,-0.99554 -0.22427,-2.02065 0.76046,-2.97149c0.07434,-0.07178 0.56063,-0.3758 1.14865,-0.73325c-0.07352,-0.31551 -0.14751,-0.6151 -0.22708,-0.88873c-0.16934,-0.58239 -0.64997,-1.12929 -0.44982,-1.76382c0.1754,-0.55612 0.76584,-1.02201 1.52062,-1.41874c0.01172,-0.02958 0.02379,-0.05228 0.03625,-0.06722c0.77743,-0.93286 2.79712,-1.43937 4.78687,-1.77282c2.34862,-0.97709 5.20425,-2.4223 7.54118,-2.88472c4.17504,-0.82615 8.3927,1.30422 11.66343,2.30097c1.31706,0.40136 4.91653,0.99244 5.65289,1.83317c0.65743,0.75062 0.19771,1.66226 -0.35928,2.50146c0.17119,0.14294 0.30287,0.31888 0.40503,0.51508c0.89386,0.35254 3.47045,1.35299 3.52478,1.76157c0.06878,0.5172 -0.79026,0.97315 -1.3913,1.44613c0.70893,0.28963 1.32667,0.55901 1.40779,0.65035c1.02922,1.15901 -1.07517,3.5469 -3.07645,4.76887zM351.54018,129.72667c-0.46625,0.00845 -0.93544,0.00824 -1.39734,0.00359c0.03795,0.0116 0.07589,0.02322 0.11384,0.03483c0.44008,-0.00494 0.87926,-0.00692 1.31721,-0.005c-0.01125,-0.01114 -0.02249,-0.02227 -0.0337,-0.0334zM363.35555,125.94353c0.04983,0.22038 0.03711,0.44064 -0.0077,0.66439c0.33972,-0.3661 0.64616,-0.80051 0.93154,-1.25942c-0.29445,0.18051 -0.60382,0.38195 -0.92383,0.59503zM363.99905,123.52048c0.16069,-0.14533 0.31274,-0.29704 0.45899,-0.45573c-0.18665,-0.0519 -0.37455,-0.10269 -0.56334,-0.15263c0.04871,0.20196 0.08395,0.40634 0.10437,0.60835zM366.9784,124.65657c-0.03305,0.12327 -0.06545,0.24438 -0.09636,0.36269c0.22868,-0.18066 0.45454,-0.36584 0.67791,-0.5532c0.00037,-0.01419 0.00037,-0.02848 -0.00003,-0.04286c-0.07839,-0.10028 -0.16585,-0.19317 -0.26335,-0.27762c-0.10357,0.17005 -0.20982,0.34082 -0.31818,0.511zM358.02202,130.67359c-0.46267,0.16238 -0.92407,0.3178 -1.37897,0.46175c0.05517,0.02046 0.11078,0.04008 0.16682,0.05884c0.45721,-0.19804 0.85809,-0.36651 1.21216,-0.52058z" data-paper-data="{&quot;index&quot;:null}" fill="#000000" stroke="none" stroke-width="0.5" stroke-linecap="butt"/><path d="M336.29703,63.12229l21.8086,17.20697" fill="none" stroke="#000000" stroke-width="1.5" stroke-linecap="round"/><path d="M363.75998,79.28094l24.52434,-15.46445" fill="none" stroke="#000000" stroke-width="1.5" stroke-linecap="round"/></g></g></svg>