<svg version="1.1" xmlns="http://www.w3.org/2000/svg" xmlns:xlink="http://www.w3.org/1999/xlink" width="182.83179" height="329.33565" viewBox="0,0,182.83179,329.33565"><g transform="translate(-214.29286,-38.16584)"><g data-paper-data="{&quot;isPaintingLayer&quot;:true}" fill-rule="nonzero" stroke-width="2" stroke-linejoin="miter" stroke-miterlimit="10" stroke-dasharray="" stroke-dashoffset="0" style="mix-blend-mode: normal"><g><path d="M357.76094,220.84101c1.88328,-4.02379 3.64367,-11.08854 7.04585,-12.95038c6.44996,-3.52975 22.05233,4.47039 24.18568,17.7517c0.34945,2.17552 0.79945,7.02252 -1.37006,6.74532c-0.47384,-0.06056 -2.56948,-1.94114 -2.81264,-1.33574c-0.07985,0.19882 1.53412,4.3178 1.64688,4.98654c0.60125,3.5664 0.38953,7.56858 -1.5674,9.23642c-1.91914,1.63565 -5.32164,-4.29152 -6.20103,-3.72502c-1.3206,0.85069 -0.4811,9.43233 -6.66965,6.57616c-3.34855,-1.54545 -7.66021,-11.39196 -7.9675,-11.52498c-1.59581,-0.69085 -4.41803,4.59747 -9.33014,-1.23383c-4.51778,-5.36322 -0.62171,-14.23334 2.77311,-14.75502z" fill="#feed00" stroke="#000000" stroke-linecap="round"/><path d="M378.64874,222.94149c0.05398,1.99771 -0.58773,3.51118 -1.64975,4.38548c-1.17552,0.96778 -3.17802,-1.63175 -5.01005,-2.43993c-1.91195,-0.84344 -3.2691,0.19098 -4.40568,-1.91149c-0.93638,-1.73215 -1.51128,-3.70366 -1.56264,-5.60489c-0.11371,-4.20892 2.62101,-6.37387 6.10817,-4.83553c3.48716,1.53835 6.40623,6.19742 6.51994,10.40635z" fill="#ffa600" stroke="none" stroke-linecap="butt"/><path d="M360.91749,232.2048c0.28443,2.34207 -1.04039,3.79202 -2.95906,3.23859c-1.91867,-0.55345 -3.70465,-2.90072 -3.98908,-5.24278c-0.28443,-2.34207 1.04039,-3.79202 2.95905,-3.2386c1.91867,0.55345 3.70467,2.90071 3.98909,5.24279z" fill="#ffa600" stroke="none" stroke-linecap="butt"/><path d="M376.07896,243.18006c0.28064,2.31083 -1.02783,3.7411 -2.92252,3.19456c-1.8947,-0.54652 -3.65816,-2.86288 -3.9388,-5.17371c-0.28064,-2.31083 1.02783,-3.7411 2.92252,-3.19457c1.8947,0.54652 3.65816,2.86288 3.9388,5.17371z" fill="#ffa600" stroke="none" stroke-linecap="butt"/><path d="M385.14921,239.19439c0.27684,2.27961 -0.76249,3.76308 -2.32141,3.3134c-1.55892,-0.44967 -3.04711,-2.66219 -3.32395,-4.9418c-0.27684,-2.27961 0.76249,-3.76308 2.32141,-3.3134c1.55892,0.44967 3.04711,2.66218 3.32395,4.9418z" fill="#ffa600" stroke="none" stroke-linecap="butt"/><path d="M388.05386,225.84618c0.26168,2.1547 -0.38166,3.65466 -1.43694,3.35028c-1.05527,-0.30441 -2.12286,-2.29787 -2.38455,-4.45257c-0.26168,-2.1547 0.38166,-3.65466 1.43694,-3.35028c1.05527,0.30441 2.12286,2.29787 2.38455,4.45257z" fill="#ffa600" stroke="none" stroke-linecap="butt"/></g><path d="M315.5842,263.07133c-6.60945,5.42724 -18.8415,5.98719 -27.17855,5.72044c-25.21783,-0.80687 -58.09784,-11.98046 -67.52791,-38.46445c-6.378,-17.91235 4.20707,-34.3593 15.9473,-46.89225c4.45404,-4.75479 14.28622,-13.46537 20.17995,-6.53818c1.56841,1.84344 2.37741,4.10288 1.94937,6.55222c-0.92471,5.29142 -7.79037,8.54008 -10.85708,12.67552c-9.26649,12.49574 -10.69641,27.94437 0.68512,39.46765c12.05079,12.20089 31.48912,12.18882 46.33289,5.90254c7.6732,-3.24959 14.50234,-9.21485 23.34698,-9.32024c26.22257,-0.31248 12.3643,24.1241 -1.62007,30.8603z" fill="#feed00" stroke="#000000" stroke-linecap="round"/><path d="M307.28741,260.51579c5.51085,-1.61019 12.69961,-4.76431 18.03825,-7.11723c5.82095,-2.56549 14.29272,-3.88377 20.51266,-5.57393c3.6537,-0.99282 11.71935,-4.08602 15.01302,-3.38473c2.13203,0.45396 2.69664,2.99236 3.50063,4.15862c2.98761,4.33384 3.4907,9.82949 6.50674,14.25672c3.56279,5.22982 3.28162,11.6511 5.72656,17.34272c4.57051,10.6398 8.52866,21.63371 7.19385,34.02118c-0.5837,5.41697 8.97375,9.15641 1.23745,14.47311c-2.7395,1.88269 -8.41813,10.66938 -11.78213,11.58348c-4.88014,1.32609 -12.11065,-1.84194 -18.37417,-1.27219c-7.97523,0.72546 -16.87245,7.66125 -22.95592,7.72107c-3.04511,0.02993 -7.63244,-2.0886 -9.6172,-3.54783c-2.48795,-1.82921 -2.06528,-13.33325 -2.72706,-16.52342c-3.25436,-15.68809 -6.37036,-23.97785 -9.63012,-39.67904c-1.07113,-5.15933 -6.11598,-21.69993 -4.01215,-26.08552z" fill="#3c2c1f" stroke="#000000" stroke-linecap="round"/><g><path d="M296.62981,242.28543c3.19197,-1.26816 11.04135,4.41037 9.85914,11.32243c-1.2854,7.51535 -6.39589,4.38259 -7.42262,5.78606c-0.19773,0.27026 1.06682,10.94475 -1.0391,13.97235c-3.89199,5.59538 -7.51106,-2.23096 -9.08057,-2.29634c-1.04515,-0.04354 -0.98002,6.7905 -3.46306,6.35105c-2.53187,-0.44809 -4.73995,-3.79273 -6.02631,-7.17296c-0.2412,-0.63384 -0.93379,-5.00319 -1.10327,-5.13425c-0.51609,-0.39909 -1.37179,2.28345 -1.74983,2.5755c-1.73087,1.33706 -3.79579,-3.07112 -4.59541,-5.12431c-4.88161,-12.53451 4.52629,-27.33071 11.87562,-27.55067c3.87659,-0.11601 8.9703,5.08625 12.63102,7.60357z" fill="#feed00" stroke="#000000" stroke-linecap="round"/><path d="M279.91991,242.72571c2.22906,-3.09162 5.68336,-2.60845 7.7154,1.07922c0.9179,1.66578 1.41982,3.6571 1.48886,5.62494c0.08378,2.38855 -1.61026,2.18321 -2.83242,3.87831c-1.17107,1.62423 -1.58258,4.87969 -3.08623,4.63994c-1.35847,-0.2166 -2.67787,-1.19714 -3.64234,-2.94745c-2.03203,-3.68767 -1.87232,-9.18332 0.35673,-12.27496z" fill="#ffa600" stroke="none" stroke-linecap="butt"/><path d="M300.33127,247.47578c1.37472,-1.44837 3.25117,-0.86827 4.19116,1.29566c0.93998,2.16394 0.58756,5.09228 -0.78716,6.54064c-1.37472,1.44837 -3.25118,0.8683 -4.19117,-1.29564c-0.93998,-2.16394 -0.58756,-5.09228 0.78717,-6.54064z" fill="#ffa600" stroke="none" stroke-linecap="butt"/><path d="M292.8009,264.69986c1.35754,-1.43025 3.20991,-0.85888 4.13735,1.27618c0.92745,2.13507 0.57879,5.02535 -0.77876,6.4556c-1.35754,1.43025 -3.20991,0.85888 -4.13735,-1.27618c-0.92745,-2.13507 -0.57879,-5.02535 0.77876,-6.4556z" fill="#ffa600" stroke="none" stroke-linecap="butt"/><path d="M282.54796,266.36386c1.11696,-1.1768 2.76413,-0.42333 3.67907,1.68289c0.91493,2.10623 0.75112,4.76765 -0.36585,5.94444c-1.11696,1.1768 -2.76413,0.42333 -3.67907,-1.68289c-0.91493,-2.10623 -0.75112,-4.76765 0.36585,-5.94444z" fill="#ffa600" stroke="none" stroke-linecap="butt"/><path d="M272.7247,257.21873c0.75609,-0.79661 2.0701,0.1715 2.93489,2.16232c0.8648,1.99081 0.95291,4.25046 0.19679,5.04705c-0.75609,0.79661 -2.0701,-0.1715 -2.93489,-2.16232c-0.8648,-1.99081 -0.9529,-4.25044 -0.19679,-5.04705z" fill="#ffa600" stroke="none" stroke-linecap="butt"/></g><path d="M293.2368,223.53609c0.06425,6.56123 2.75666,17.81728 0.24207,23.86855c-2.00546,4.82607 -21.96386,3.76002 -25.44031,0.72724c-1.20921,-1.05489 -1.12231,-18.59929 -1.09154,-21.13421c0.2361,-19.44754 1.92396,-38.32434 3.5406,-57.76054c0.44382,-5.33594 3.73135,-9.78827 4.31676,-14.84825l1.14595,-0.26509c13.26702,-0.89319 26.12955,1.68803 39.08681,-3.44934c5.18569,-2.05605 8.60601,-4.99786 11.48898,-9.76974c0.65915,-1.09102 2.67987,-3.8314 4.33015,-3.28603c3.7143,1.22747 7.77243,8.70319 10.34552,11.58438c10.61165,11.88224 19.37252,25.69085 26.64253,39.87902c2.12836,4.15372 8.68537,9.64212 8.79738,14.35688c0.13117,5.52167 -6.82387,14.21236 -9.9049,18.60125c-0.85744,1.22141 -2.73677,5.74702 -4.62177,4.27275c-2.62612,-2.0539 -9.65084,-21.11276 -9.65084,-21.11276c0,0 4.91397,15.26462 7.86433,22.68891c1.44704,3.6413 4.99018,9.32192 4.17784,13.44098c-0.61874,3.13744 -9.05015,6.33117 -11.75318,7.39444c-10.93401,4.30095 -23.15219,5.2846 -34.06741,9.6196c-3.5478,1.40901 -12.06773,6.65385 -15.80341,5.78156c-1.99101,-0.46492 -2.52571,-6.01217 -2.98384,-7.69814c-2.0169,-7.42244 -5.48151,-15.63401 -6.00332,-23.30403" fill="#fffe8a" stroke="#000000" stroke-linecap="round"/><path d="M279.57613,144.49484c12.91776,-6.07077 25.43103,-12.1102 39.59926,-14.7899c3.02152,-0.57146 13.64929,-2.27791 14.10294,2.49326c0.61653,6.48449 -4.57945,11.35085 -9.83557,14.22917c-9.47555,5.18892 -33.1933,12.48622 -43.75927,9.65175c-7.51978,-2.01727 -7.79201,-9.72203 -0.02537,-11.83247z" fill="#fffe8a" stroke="#000000" stroke-linecap="round"/><g stroke-linecap="round"><path d="M265.5709,74.28532c-10.65257,8.14 -8.44659,21.05911 -8.85963,32.81102c-0.04539,1.2915 -0.17832,12.60034 -1.46912,12.77259c-0.53592,0.07152 -0.63329,-0.87797 -0.91334,-1.34044c-2.22918,-3.68123 -4.80384,-7.16659 -7.06369,-10.8466c-5.63979,-9.1839 -10.38725,-18.94718 -15.0217,-28.6893c-1.33085,-2.79756 -4.93165,-9.03063 -4.48962,-12.13929c0.28324,-1.99204 1.05263,-1.37417 2.40765,-1.18072c6.96274,0.99404 13.86055,2.3006 20.76728,3.61158c5.07204,0.96273 11.10059,1.49292 15.51153,4.34622z" fill="#feed00" stroke="#000000"/><path d="M260.19225,78.61397c-6.56086,6.00026 -4.34794,14.40548 -3.93342,22.19282c0.04556,0.85583 0.61922,8.33407 -0.22338,8.52338c-0.34984,0.0786 -0.46969,-0.54293 -0.68174,-0.83206c-1.68789,-2.30138 -3.59254,-4.4532 -5.30064,-6.75198c-4.26276,-5.73689 -7.96994,-11.90874 -11.60123,-18.07319c-1.04276,-1.77018 -3.78601,-5.67708 -3.67585,-7.75649c0.07059,-1.33251 0.61498,-0.96932 1.52142,-0.92079c4.65766,0.24939 9.29068,0.70903 13.92987,1.17107c3.40685,0.3393 7.42025,0.3369 10.50096,1.96377z" fill="#ffa700" stroke="none"/></g><g stroke-linecap="round"><path d="M299.37665,65.90726c2.09123,-4.81921 6.81619,-8.60061 10.50522,-12.21221c5.02345,-4.91799 10.04191,-9.82734 15.28759,-14.51249c1.02086,-0.91178 1.31904,-1.85244 2.65853,-0.351c2.09031,2.34303 2.54603,9.52701 2.98808,12.59328c1.53935,10.67789 2.99639,21.43599 3.38957,32.20617c0.15753,4.31563 -0.05478,8.64363 0.12898,12.94327c0.0231,0.54018 0.46807,1.38455 -0.0177,1.62192c-1.17002,0.57174 -7.54621,-8.76911 -8.29955,-9.81913c-6.85485,-9.55452 -12.17613,-21.53177 -25.55414,-22.40628z" fill="#feed00" stroke="#000000"/><path d="M306.62506,66.48886c1.66332,-3.06119 5.00577,-5.28276 7.65394,-7.45278c3.60608,-2.95494 7.20839,-5.90448 10.94767,-8.6926c0.7277,-0.54262 0.9797,-1.14654 1.77673,-0.07637c1.24378,1.67005 1.12464,6.44235 1.23729,8.49375c0.39231,7.14374 0.72557,14.33566 0.35533,21.47331c-0.14836,2.86008 -0.54176,5.70667 -0.67186,8.55772c-0.01635,0.35818 0.22822,0.942 -0.10656,1.07041c-0.80635,0.30927 -4.47202,-6.23419 -4.90825,-6.97187c-3.96939,-6.71257 -6.78398,-14.93584 -15.57022,-16.29605z" fill="#ffa700" stroke="none"/></g><path d="M280.55606,67.85614c10.07313,-2.73718 21.87195,-6.98371 31.29098,-1.01103c8.14773,5.16652 9.48791,11.43369 13.64421,19.08949c1.27651,2.3513 3.61139,3.71196 4.67491,6.42143c6.44817,16.42776 3.71662,39.54106 -16.217,47.31455c-16.6953,6.51067 -37.98391,8.50897 -51.7813,-3.75694c-8.61542,-7.65913 -7.7753,-21.4547 -7.22442,-31.39362c0.21345,-3.85105 -1.99554,-7.6843 -1.63313,-11.77154c1.41878,-16.00069 13.70642,-20.92945 27.65874,-24.72072z" fill="#feed00" stroke="#000000" stroke-linecap="round"/><path d="M327.9447,97.60476c4.24032,-0.74826 16.22531,0.57563 13.56081,7.53926c-0.69327,1.81185 -6.33731,4.18314 -6.37779,5.43947c-0.03037,0.94216 1.44658,1.23953 1.98822,2.01102c1.44933,2.06438 2.90934,5.31891 3.22265,7.83392c0.86203,6.91931 -9.79146,6.12665 -13.44028,4.07668" fill="#feed00" stroke="#000000" stroke-linecap="round"/><path d="M271.28478,142.53141c-2.10955,3.61471 -10.8968,9.68999 -13.65514,3.28599c-1.0026,-2.32772 -1.39047,-5.87358 -1.18521,-8.38754c0.07671,-0.93954 1.20004,-1.94347 0.69702,-2.7407c-0.67073,-1.06307 -6.73869,-0.25185 -8.25358,-1.46369c-5.82233,-4.65752 3.84447,-11.86486 7.88034,-13.36548" fill="#feed00" stroke="#000000" stroke-linecap="round"/><path d="M215.29286,109.45955c13.87347,-3.54726 26.93898,3.83992 39.8686,7.19408" fill="none" stroke="#000000" stroke-linecap="round"/><path d="M223.66881,121.92725c10.05081,-4.08191 21.53354,-3.68256 32.15453,-4.17844" fill="none" stroke="#000000" stroke-linecap="round"/><path d="M230.12796,128.37112c7.95885,-3.84744 16.39778,-7.73155 24.93946,-10.0526" fill="none" stroke="#000000" stroke-linecap="round"/><path d="M330.27519,94.78571c5.89003,-10.2854 12.27625,-22.62616 24.4701,-25.95678" fill="none" stroke="#000000" stroke-linecap="round"/><path d="M327.9613,96.32521c8.52545,-10.43079 18.54639,-12.75508 31.32996,-12.36867" fill="none" stroke="#000000" stroke-linecap="round"/><path d="M331.7225,96.76035c7.39837,-5.57576 18.75869,-5.08292 27.32727,-2.93292" fill="none" stroke="#000000" stroke-linecap="round"/><path d="M290.38827,116.93613c3.58984,-0.97546 7.3063,-2.23529 10.99095,-2.7593c0.46766,-0.06649 1.19107,-0.47144 1.41598,-0.05605c0.2946,0.54414 -5.14858,5.93453 -5.90401,6.08067c-1.69871,0.32862 -5.09382,-2.24881 -6.09951,-3.37491z" fill="#000000" stroke="#000000" stroke-linecap="round"/><path d="M286.42565,98.67671c1.85604,6.83045 -2.96805,6.97607 -9.69501,8.80399c-6.72696,1.82792 -12.80941,4.64595 -14.66546,-2.1845c-1.85604,-6.83045 2.09261,-13.84945 8.81956,-15.67736c6.72696,-1.82792 13.68487,2.22742 15.54091,9.05788z" fill="#ffffff" stroke="#000000" stroke-linecap="butt"/><path d="M320.15593,89.07333c1.85604,6.83045 -3.22083,7.87165 -9.94779,9.69957c-6.72696,1.82792 -12.55663,3.75037 -14.41266,-3.08008c-1.85604,-6.83045 2.09261,-13.84945 8.81956,-15.67736c6.72696,-1.82792 13.68485,2.22742 15.54089,9.05787z" fill="#ffffff" stroke="#000000" stroke-linecap="butt"/><path d="M282.58726,99.71973c1.32575,4.8789 -2.05704,6.24156 -6.74826,7.51632c-4.69124,1.27476 -8.91448,1.97888 -10.24022,-2.90002c-1.32575,-4.8789 1.40254,-9.86741 6.09378,-11.14217c4.69124,-1.27476 9.56898,1.64697 10.89472,6.52587z" fill="#ffffff" stroke="#000000" stroke-linecap="butt"/><path d="M316.45348,90.07941c1.32575,4.8789 -2.15581,7.09528 -6.84705,8.37004c-4.69124,1.27476 -8.8157,1.12516 -10.14145,-3.75374c-1.32575,-4.8789 1.40254,-9.86741 6.09378,-11.14217c4.69124,-1.27476 9.56898,1.64697 10.89472,6.52587z" fill="#ffffff" stroke="#000000" stroke-linecap="butt"/><path d="M265.03354,78.3501c-0.38959,-3.72478 2.89058,-5.82052 6.06061,-7.99514c0.35109,-0.24084 3.33704,-2.2317 3.12558,-2.68868c-0.38471,-0.83133 -5.30701,1.18211 -5.15833,-0.90291c0.19969,-2.80039 10.55507,-4.97146 12.74557,-5.56692c0.31549,-0.08576 4.08711,-0.96414 4.10134,-1.11915c0.06095,-0.66424 -6.74731,-0.95652 -6.53649,-1.87314c0.11522,-0.50101 5.0976,-0.2325 5.60123,-0.18293c6.59818,0.64941 8.97792,3.94426 13.64694,7.29797" fill="#feed00" stroke="#000000" stroke-linecap="round"/><path d="M256.34733,98.07974c-2.59319,-0.49979 -3.14893,-2.49152 -5.33618,-3.6468c-1.11673,-0.58983 -6.01245,0.11429 -6.34727,-1.46765c-0.44039,-2.08074 5.08833,-4.43331 6.2227,-5.27386c0.7986,-0.59175 -2.699,-8.19741 6.71578,-5.13303" fill="#feed00" stroke="#000000" stroke-linecap="round"/><path d="M300.20815,191.56587c1.33148,0.17083 4.58162,-0.97766 5.44934,0.38018c2.91026,4.55403 0.25903,10.06787 -4.68936,10.34405c-3.2951,0.18391 -0.5723,-11.50805 -0.5723,-11.50805c0,0 -5.91597,-23.00032 -6.50737,-34.75909" fill="#ffaf36" stroke="#000000" stroke-linecap="round"/><path d="M326.16928,185.13784c6.447,-12.8427 12.76652,15.15822 1.25294,9.93244c-6.23377,-2.82937 -0.97872,-8.43241 -1.15186,-10.99488c-0.81729,-12.09536 -8.97594,-23.07335 -8.66648,-35.64583" fill="#ffaf36" stroke="#000000" stroke-linecap="round"/><path d="M296.91623,225.24615c2.67478,-3.66289 7.06992,-4.3138 10.95577,-6.05846c12.53316,-5.62715 27.39253,-8.73487 41.02542,-10.1656" fill="none" stroke="#000000" stroke-linecap="round"/><path d="M359.05867,238.23816c-2.43501,-8.55972 -6.37109,-16.83584 -7.27474,-25.82639" fill="none" stroke="#000000" stroke-linecap="round"/><path d="M298.51496,229.22078c2.23301,8.21773 4.88688,16.25508 6.92055,24.5082" fill="none" stroke="#000000" stroke-linecap="round"/><path d="M285.63845,153.0233c-2.77018,-0.19866 -5.16193,-2.21595 -7.85967,-2.97738" fill="none" stroke="#fcec41" stroke-linecap="round"/><path d="M326.34806,139.54415c1.28809,-1.47397 2.53338,-2.70145 4.09911,-3.88148" fill="none" stroke="#fcec41" stroke-linecap="round"/><path d="M304.87705,168.20185l-2.51324,-9.24903" fill="none" stroke="#fcec41" stroke-linecap="round"/><path d="M307.89308,165.92889l-1.28728,-4.73732" fill="none" stroke="#fcec41" stroke-linecap="round"/><path d="M311.58582,163.47199l-1.65753,-3.42549" fill="none" stroke="#fcec41" stroke-linecap="round"/><path d="M284.99622,248.03966l2.78044,-39.39964l2.64333,37.40711z" fill="#fce541" stroke="#fcec41" stroke-linecap="round"/><path d="M284.99622,248.03966l2.78044,-39.39964l2.64333,37.40711z" fill="#fce541" stroke="#fcec41" stroke-linecap="round"/><path d="M363.99737,221.89171l-14.87653,-27.06789l19.15493,20.86034z" fill="#fce541" stroke="#fcec41" stroke-linecap="round"/><path d="M355.56922,337.87417l-19.45231,-74.24745" fill="none" stroke="#000000" stroke-linecap="round"/><path d="M360.09212,345.3215c2.27354,8.36687 -4.39944,17.46364 -14.9045,20.3182c-10.50508,2.85455 -20.86416,-1.61406 -23.13771,-9.98094c-2.27354,-8.36687 4.39944,-17.46364 14.9045,-20.3182c10.50508,-2.85455 20.86416,1.61406 23.13771,9.98094z" fill="#000000" stroke="#000000" stroke-linecap="butt"/><path d="M395.68022,330.19228c2.27354,8.36687 -4.39944,17.46364 -14.90451,20.3182c-10.50507,2.85456 -20.86416,-1.61406 -23.13771,-9.98094c-2.27354,-8.36687 4.39944,-17.46364 14.9045,-20.3182c10.50508,-2.85455 20.86418,1.61405 23.13772,9.98094z" fill="#000000" stroke="#000000" stroke-linecap="butt"/><path d="M292.84954,139.98258l-1.76105,-6.48086l18.71441,-5.08529l1.76105,6.48086c0,0 -7.32752,-3.79713 -10.46369,-2.94493c-3.10157,0.84279 -8.25073,8.03022 -8.25073,8.03022z" fill="none" stroke="#000000" stroke-linecap="butt"/></g></g></svg>