<svg version="1.1" xmlns="http://www.w3.org/2000/svg" xmlns:xlink="http://www.w3.org/1999/xlink" width="262.13112" height="369.34994" viewBox="0,0,262.13112,369.34994"><defs><linearGradient x1="314.15349" y1="231.71723" x2="316.01712" y2="308.37259" gradientUnits="userSpaceOnUse" id="color-1"><stop offset="0" stop-color="#545454"/><stop offset="1" stop-color="#2f2f2f"/></linearGradient><linearGradient x1="317.98795" y1="196.78788" x2="319.85158" y2="273.44324" gradientUnits="userSpaceOnUse" id="color-2"><stop offset="0" stop-color="#545454"/><stop offset="1" stop-color="#2f2f2f"/></linearGradient><linearGradient x1="313.74975" y1="164.49904" x2="315.61338" y2="241.1544" gradientUnits="userSpaceOnUse" id="color-3"><stop offset="0" stop-color="#545454"/><stop offset="1" stop-color="#2f2f2f"/></linearGradient><linearGradient x1="313.82857" y1="167.96968" x2="318.40415" y2="356.1744" gradientUnits="userSpaceOnUse" id="color-4"><stop offset="0" stop-color="#4e2710"/><stop offset="1" stop-color="#3a1a09"/></linearGradient><linearGradient x1="315.10003" y1="167.97149" x2="315.76052" y2="195.13842" gradientUnits="userSpaceOnUse" id="color-5"><stop offset="0" stop-color="#e07130"/><stop offset="1" stop-color="#c2551f"/></linearGradient><linearGradient x1="290.33253" y1="199.51859" x2="291.02876" y2="228.15618" gradientUnits="userSpaceOnUse" id="color-6"><stop offset="0" stop-color="#4e2710"/><stop offset="1" stop-color="#3a1a09"/></linearGradient><linearGradient x1="363.42438" y1="143.62695" x2="354.17819" y2="196.80681" gradientUnits="userSpaceOnUse" id="color-7"><stop offset="0" stop-color="#e07130"/><stop offset="1" stop-color="#c2551f"/></linearGradient><linearGradient x1="362.22989" y1="124.43252" x2="363.54985" y2="178.72506" gradientUnits="userSpaceOnUse" id="color-8"><stop offset="0" stop-color="#e07130"/><stop offset="1" stop-color="#c2551f"/></linearGradient><linearGradient x1="263.76906" y1="145.61988" x2="275.58559" y2="198.16465" gradientUnits="userSpaceOnUse" id="color-9"><stop offset="0" stop-color="#e07130"/><stop offset="1" stop-color="#c2551f"/></linearGradient><linearGradient x1="265.56425" y1="123.17512" x2="266.88419" y2="177.46765" gradientUnits="userSpaceOnUse" id="color-10"><stop offset="0" stop-color="#e07130"/><stop offset="1" stop-color="#c2551f"/></linearGradient><linearGradient x1="309.92834" y1="66.41002" x2="312.65159" y2="178.42377" gradientUnits="userSpaceOnUse" id="color-11"><stop offset="0" stop-color="#e07130"/><stop offset="1" stop-color="#c2551f"/></linearGradient><linearGradient x1="309.16988" y1="-7.94522" x2="310.7638" y2="82.56682" gradientUnits="userSpaceOnUse" id="color-12"><stop offset="0" stop-color="#a1a1a1"/><stop offset="1" stop-color="#767676"/></linearGradient></defs><g transform="translate(-182.61107,13.23039)"><g stroke-miterlimit="10"><path d="M328.22296,-8.0874c0,0 -2.94184,1.8257 -11.39639,2.97148c-2.94776,0.39948 -12.31276,1.82027 -14.54177,1.96955c-3.60305,0.24129 -9.45279,-0.31086 -14.13897,-0.42135c-6.32399,-0.1491 -11.19397,-1.08619 -11.19397,-1.08619" fill="none" stroke="#000000" stroke-width="2.5" stroke-linecap="round"/><g stroke="#000000" stroke-width="2.5"><path d="M379.7461,296.65813l-65.25806,11.76054l-62.67569,-7.90324c0,0 27.01323,-67.73307 62.34117,-68.79823c35.32793,-1.06516 65.5926,64.94093 65.5926,64.94093z" fill="url(#color-1)" stroke-linecap="butt"/><path d="M261.40515,296.22834l51.64378,-19.65758l55.69041,13.83558" fill="none" stroke-linecap="round"/><path d="M288.15725,299.73138l26.40657,-10.70834l32.48831,6.77779" fill="none" stroke-linecap="round"/></g><g stroke="#000000" stroke-width="2.5"><path d="M383.58056,261.72877l-65.25806,11.76054l-62.67569,-7.90324c0,0 27.01323,-67.73307 62.34117,-68.79823c35.32793,-1.06516 65.5926,64.94093 65.5926,64.94093z" fill="url(#color-2)" stroke-linecap="butt"/><path d="M265.23963,261.29899l51.64378,-19.65758l55.69041,13.83558" fill="none" stroke-linecap="round"/><path d="M291.99171,264.80202l26.40657,-10.70834l32.48831,6.7778" fill="none" stroke-linecap="round"/></g><g stroke="#000000" stroke-width="2.5"><path d="M379.34235,229.43997l-65.25805,11.76054l-62.6757,-7.90324c0,0 27.01323,-67.73307 62.34118,-68.79823c35.32793,-1.06516 65.59259,64.94093 65.59259,64.94093z" fill="url(#color-3)" stroke-linecap="butt"/><path d="M261.00143,229.01015l51.64379,-19.65757l55.69041,13.83558" fill="none" stroke-linecap="round"/><path d="M287.7535,232.5132l26.40657,-10.70833l32.48831,6.7778" fill="none" stroke-linecap="round"/></g><path d="M276.31692,353.61122l-5.66874,-154.93699c0,0 5.2558,-27.2233 14.00033,-27.91374c8.68404,-0.68565 29.27784,-1.8928 47.25713,-3.31238c19.50064,-1.5397 26.27094,26.56391 26.27094,26.56391l4.12228,160.8389z" fill="url(#color-4)" stroke="#000000" stroke-width="2.5" stroke-linecap="butt"/><path d="M332.37833,181.04396c0.18239,7.50194 -7.25766,13.81226 -16.61784,14.09449c-9.36016,0.28222 -17.09593,-5.57053 -17.2783,-13.07248c-0.18239,-7.50194 7.25766,-13.81226 16.61784,-14.09449c9.36016,-0.28222 17.09593,5.57053 17.2783,13.07248z" fill="url(#color-5)" stroke="#000000" stroke-width="2.5" stroke-linecap="butt"/><path d="M302.93781,213.46782c0.19226,7.90805 -5.13961,14.48427 -11.90906,14.68837c-6.76945,0.2041 -12.41304,-6.04118 -12.60529,-13.94924c-0.19226,-7.90805 5.13961,-14.48427 11.90906,-14.68837c6.76945,-0.2041 12.41304,6.04118 12.60529,13.94924z" fill="url(#color-6)" stroke="#ffffff" stroke-width="2.5" stroke-linecap="butt"/><path d="M286.24784,211.35757l0.90927,-1.8636" fill="none" stroke="#ffffff" stroke-width="2.5" stroke-linecap="round"/><path d="M294.39918,211.11177l-0.56242,-1.7172" fill="none" stroke="#ffffff" stroke-width="2.5" stroke-linecap="round"/><path d="M283.61913,220.53941l1.8161,-3.31156l10.05909,0.30329l2.43795,3.23581" fill="none" stroke="#ffffff" stroke-width="2.5" stroke-linecap="round"/><path d="M349.44807,140.22367c0,0 11.05456,11.92165 15.05415,21.04228c4.89106,11.15355 12.1596,41.01572 12.1596,41.01572c0,0 -14.03639,-21.77736 -21.39487,-26.83869c-6.48592,-4.46116 -20.46962,-1.95662 -20.46962,-1.95662z" fill="url(#color-7)" stroke="#000000" stroke-width="2.5" stroke-linecap="round"/><path d="M347.97089,124.86244c0,0 13.06866,8.65279 18.72953,16.46731c6.92265,9.5563 19.78782,36.70369 19.78782,36.70369c0,0 -17.88187,-17.45629 -26.02345,-20.41551c-7.17616,-2.60829 -20.29631,3.57974 -20.29631,3.57974z" fill="url(#color-8)" stroke="#000000" stroke-width="2.5" stroke-linecap="round"/><path d="M293.805,173.71051c0,0 -14.0849,-1.65824 -20.34456,3.18721c-7.10178,5.49732 -20.0595,28.08857 -20.0595,28.08857c0,0 5.80694,-30.2564 10.14892,-41.68833c3.55057,-9.34826 14.00969,-21.91858 14.00969,-21.91858z" fill="url(#color-9)" stroke="#000000" stroke-width="2.5" stroke-linecap="round"/><path d="M289.37967,158.55705c0,0 -13.40159,-5.3884 -20.4405,-2.35149c-7.98588,3.44547 -24.99338,21.9537 -24.99338,21.9537c0,0 11.52731,-27.88285 17.97549,-37.84228c5.27289,-8.14416 17.90199,-17.57176 17.90199,-17.57176z" fill="url(#color-10)" stroke="#000000" stroke-width="2.5" stroke-linecap="round"/><path d="M342.3081,74.85878l7.75444,9.07283l-13.26716,61.33961l-52.84802,0.30971l-15.20786,-57.30847l7.75951,-11.11345" fill="none" stroke="#000000" stroke-width="2.5" stroke-linecap="round"/><path d="M360.27468,123.28291c-1.00889,30.03357 -23.64979,56.45639 -50.72454,55.10684c-27.07476,-1.34953 -48.33074,-29.96038 -47.32184,-59.99394c1.00889,-30.03356 23.77521,-53.28659 50.84996,-51.93704c27.07476,1.34953 48.20534,26.79056 47.19643,56.82413z" fill="url(#color-11)" stroke="#000000" stroke-width="2.5" stroke-linecap="butt"/><path d="M277.38088,82.09901l1.83908,-89.94668c0,0 6.22548,-2.151 14.29763,-2.93232c5.07777,-0.49148 11.61188,-1.18788 15.45897,-1.20041c3.81406,-0.01242 10.82456,1.20669 15.90296,1.65686c8.24127,0.73052 14.24028,2.28075 14.24028,2.28075l4.7469,89.06042c0,0 -4.0545,4.83252 -13.17374,8.31107c-4.99151,1.90401 -14.69537,3.41281 -18.65792,3.47727c-4.87579,0.0793 -14.6748,-1.0762 -21.38689,-3.44504c-8.36796,-2.95325 -13.26728,-7.26193 -13.26728,-7.26193z" fill="url(#color-12)" stroke="#000000" stroke-width="2.5" stroke-linecap="butt"/><path d="M324.73025,117.47978c0.0693,2.85081 -5.83034,5.34141 -13.17723,5.56293c-7.3469,0.22152 -13.35891,-1.90995 -13.42822,-4.76076c-0.0693,-2.85081 5.83034,-5.34141 13.17723,-5.56293c7.3469,-0.22152 13.35891,1.90995 13.42822,4.76076z" fill-opacity="0.18431" fill="#000000" stroke="none" stroke-width="0" stroke-linecap="butt"/><path d="M328.5633,111.10828c4.13271,-1.09648 13.36489,-4.99702 15.27855,0.50977c1.2912,3.7156 -2.5633,9.04885 -8.65248,6.93707c-3.75682,-1.3029 -3.60766,-6.20208 0.67908,-6.568c4.3173,-0.3685 3.65014,2.91862 -0.35889,2.79629" fill="none" stroke="#000000" stroke-width="2.5" stroke-linecap="round"/><path d="M283.51384,113.96229c1.96235,-3.37691 12.13119,-3.87612 13.10801,0.65465c1.00426,4.65804 -9.30443,8.34231 -13.92207,4.63389c-3.06844,-2.46427 3.41492,-5.50739 6.48539,-4.28577c2.99401,1.1912 -1.23733,2.38727 -2.69049,2.37779" fill="none" stroke="#000000" stroke-width="2.5" stroke-linecap="round"/><path d="M285.35023,158.86789c0.83639,-4.5828 8.70102,-4.05505 11.87455,-3.51322c2.56151,0.43732 5.10311,1.92204 7.75992,2.3722c7.70474,1.30548 15.57343,-0.74478 23.20967,0.47927c3.75507,0.60191 7.71494,-2.01254 11.55999,-1.0126c0.49793,0.1295 2.57829,2.42513 2.3891,2.96704c-0.15557,0.44558 -4.81556,-0.02193 -5.37254,-0.03288c-5.01463,-0.09853 -10.23027,-0.66961 -15.21395,-0.12178c-4.71637,0.51846 -9.55287,0.13392 -14.30684,0.0405c-6.8686,-0.13497 -14.75393,0.77115 -21.41938,-1.15395z" fill="#ffffff" stroke="#000000" stroke-width="2.5" stroke-linecap="round"/><path d="M283.95391,120.18207c0.04317,1.8806 0.82204,3.35019 0.79424,5.44557c-0.04869,3.67004 -3.67704,7.9125 -6.39638,3.88328c-2.36081,-3.49801 2.88327,-9.84357 5.74711,-9.78731z" fill="#ffffff" stroke="#000000" stroke-width="2.5" stroke-linecap="round"/><path d="M302.99663,95.6374c-1.20036,6.314 -15.55137,13.98275 -20.86299,13.68184c-2.93318,-0.16618 -7.2628,-0.91884 -8.46754,-4.60973" fill="none" stroke="#000000" stroke-width="2.5" stroke-linecap="round"/><path d="M208.84324,207.89213c1.53182,2.15017 1.40579,4.77811 2.8829,6.38c0.26869,0.29139 4.7721,3.54367 5.25198,5.84321c1.23532,5.91961 -1.8609,14.26648 -6.82118,14.38504c-1.64041,0.03922 -5.95609,-2.21801 -5.95609,-2.21801c0,0 -6.10097,-9.10659 -8.55099,-14.16334l-0.3815,-0.21648c1.83735,3.51694 7.16402,9.00844 7.16402,9.00844c0,0 1.76732,6.59765 0.57747,9.27366c-0.48721,1.09575 -0.10581,1.85152 -0.27275,2.93833c-0.31092,2.02423 -4.1136,3.77148 -5.54347,3.70583c-7.62415,-0.35005 -17.88908,-20.6762 -11.13258,-25.34963l0.44281,0.35352c0.53469,-2.21869 -1.12358,-3.30318 -0.89679,-5.11995c0.76957,-6.1647 6.92591,-9.06331 9.44342,-13.2601c1.18051,-1.96793 1.27759,-4.9146 2.59816,-6.68663c7.04162,-9.44895 22.5826,-25.51239 34.58888,-13.65266c1.03587,1.02323 2.7674,3.84019 3.795,7.13063c1.71829,5.5021 2.34946,12.3125 0.91845,14.15996c-0.81774,1.0557 -3.93277,4.91942 -7.04997,4.91001c-3.72306,-0.01123 -7.50456,-4.0284 -8.13613,-4.17435c-2.09929,-0.48517 7.47113,16.30653 6.90009,18.60175c-0.76182,3.0619 -8.50042,5.19612 -10.62562,0.80976" fill="#ce6026" stroke="#000000" stroke-width="2.5" stroke-linecap="round"/><path d="M409.26871,227.25951c-1.7032,4.64184 -9.59258,3.55054 -10.63501,0.60903c-0.78141,-2.20497 7.16457,-20.16559 5.12355,-19.40411c-0.61404,0.22908 -3.99765,4.72439 -7.6965,5.2309c-3.09694,0.42409 -6.55268,-3.00114 -7.46371,-3.94147c-1.5943,-1.64556 -1.60175,-8.4976 -0.40693,-14.1941c0.71454,-3.40669 2.17278,-6.43651 3.10685,-7.59121c10.82633,-13.3834 27.7677,0.51239 35.64613,8.96569c1.47749,1.58531 1.84861,4.50073 3.20518,6.29936c2.89298,3.83573 9.28118,5.89722 10.62047,11.92119c0.3947,1.77531 -1.1522,3.07366 -0.41405,5.20744l0.40712,-0.41024c7.15002,3.74541 -1.15674,25.31092 -8.70086,26.67319c-1.41486,0.25548 -5.35672,-0.97495 -5.85437,-2.94522c-0.26718,-1.05785 0.04141,-1.85966 -0.54489,-2.88378c-1.43184,-2.50106 -0.2904,-9.29282 -0.2904,-9.29282c0,0 4.78175,-6.16606 6.27992,-9.90559l-0.35894,0.26588c-1.9635,5.35127 -7.17784,15.21296 -7.17784,15.21296c0,0 -4.07848,2.8174 -5.71235,2.99667c-4.94049,0.54214 -8.79534,-7.34087 -8.11939,-13.38803c0.26258,-2.34909 4.43487,-6.18031 4.67474,-6.50566c1.31863,-1.78845 0.94847,-4.38329 2.27038,-6.7239" fill="#ce6026" stroke="#000000" stroke-width="2.5" stroke-linecap="round"/><path d="M375.55832,62.40743l19.81189,-20.71243l-15.30919,50.43026l24.31459,-10.80648l-27.91675,47.72864" fill="none" stroke="#ffffff" stroke-width="2.5" stroke-linecap="round"/><path d="M242.27835,124.54472l-15.30919,-51.3308l18.01081,1.80108l-8.10486,-33.31999l21.61297,9.0054" fill="none" stroke="#ffffff" stroke-width="2.5" stroke-linecap="round"/></g></g></svg>