<svg version="1.1" xmlns="http://www.w3.org/2000/svg" xmlns:xlink="http://www.w3.org/1999/xlink" width="139.82211" height="317.34388" viewBox="0,0,139.82211,317.34388"><defs><linearGradient x1="342.43334" y1="135.74522" x2="344.39363" y2="196.26792" gradientUnits="userSpaceOnUse" id="color-1"><stop offset="0" stop-color="#13d927"/><stop offset="1" stop-color="#277516"/></linearGradient><linearGradient x1="326.62913" y1="143.79934" x2="328.6349" y2="205.72587" gradientUnits="userSpaceOnUse" id="color-2"><stop offset="0" stop-color="#13d927"/><stop offset="1" stop-color="#277516"/></linearGradient><linearGradient x1="316.1805" y1="155.04951" x2="317.99139" y2="210.95961" gradientUnits="userSpaceOnUse" id="color-3"><stop offset="0" stop-color="#13d927"/><stop offset="1" stop-color="#277516"/></linearGradient><linearGradient x1="305.30866" y1="148.46473" x2="307.13899" y2="204.97487" gradientUnits="userSpaceOnUse" id="color-4"><stop offset="0" stop-color="#13d927"/><stop offset="1" stop-color="#277516"/></linearGradient><linearGradient x1="261.42409" y1="133.70649" x2="263.39326" y2="194.50317" gradientUnits="userSpaceOnUse" id="color-5"><stop offset="0" stop-color="#13d927"/><stop offset="1" stop-color="#277516"/></linearGradient><linearGradient x1="277.8648" y1="145.30451" x2="279.88031" y2="207.53211" gradientUnits="userSpaceOnUse" id="color-6"><stop offset="0" stop-color="#13d927"/><stop offset="1" stop-color="#277516"/></linearGradient><linearGradient x1="289.12165" y1="159.00748" x2="290.93851" y2="215.10196" gradientUnits="userSpaceOnUse" id="color-7"><stop offset="0" stop-color="#13d927"/><stop offset="1" stop-color="#277516"/></linearGradient><linearGradient x1="299.64374" y1="154.79409" x2="301.47932" y2="211.4663" gradientUnits="userSpaceOnUse" id="color-8"><stop offset="0" stop-color="#13d927"/><stop offset="1" stop-color="#277516"/></linearGradient><linearGradient x1="304.13454" y1="163.6406" x2="316.3794" y2="357.01657" gradientUnits="userSpaceOnUse" id="color-9"><stop offset="0" stop-color="#4d9ebf"/><stop offset="1" stop-color="#9087d9"/></linearGradient><linearGradient x1="263.48508" y1="229.76435" x2="260.96618" y2="248.4957" gradientUnits="userSpaceOnUse" id="color-10"><stop offset="0" stop-color="#4d9ebf"/><stop offset="1" stop-color="#9087d9"/></linearGradient><linearGradient x1="263.84801" y1="226.25053" x2="263.60261" y2="239.19419" gradientUnits="userSpaceOnUse" id="color-11"><stop offset="0" stop-color="#4d9ebf"/><stop offset="1" stop-color="#9087d9"/></linearGradient><linearGradient x1="353.90437" y1="236.22674" x2="361.22213" y2="251.85345" gradientUnits="userSpaceOnUse" id="color-12"><stop offset="0" stop-color="#4d9ebf"/><stop offset="1" stop-color="#9087d9"/></linearGradient><linearGradient x1="352.63536" y1="233.23628" x2="356.27683" y2="244.83976" gradientUnits="userSpaceOnUse" id="color-13"><stop offset="0" stop-color="#4d9ebf"/><stop offset="1" stop-color="#9087d9"/></linearGradient><linearGradient x1="305.74173" y1="161.15591" x2="318.30222" y2="359.51655" gradientUnits="userSpaceOnUse" id="color-14"><stop offset="0" stop-color="#006927"/><stop offset="1" stop-color="#4c4c4c"/></linearGradient><linearGradient x1="300.03253" y1="75.08196" x2="306.62707" y2="179.22559" gradientUnits="userSpaceOnUse" id="color-15"><stop offset="0" stop-color="#47d90f"/><stop offset="1" stop-color="#53ff10"/></linearGradient><linearGradient x1="266.57004" y1="64.19157" x2="269.24235" y2="147.28243" gradientUnits="userSpaceOnUse" id="color-16"><stop offset="0" stop-color="#13d927"/><stop offset="1" stop-color="#277516"/></linearGradient><linearGradient x1="328.56778" y1="59.58179" x2="331.42252" y2="148.34511" gradientUnits="userSpaceOnUse" id="color-17"><stop offset="0" stop-color="#13d927"/><stop offset="1" stop-color="#277516"/></linearGradient><linearGradient x1="292.36758" y1="63.47623" x2="292.76277" y2="75.76387" gradientUnits="userSpaceOnUse" id="color-18"><stop offset="0" stop-color="#13d927"/><stop offset="1" stop-color="#277516"/></linearGradient><linearGradient x1="266.68671" y1="73.58434" x2="269.23397" y2="152.78723" gradientUnits="userSpaceOnUse" id="color-19"><stop offset="0" stop-color="#13d927"/><stop offset="1" stop-color="#277516"/></linearGradient><linearGradient x1="268.88502" y1="74.3917" x2="271.63542" y2="159.91082" gradientUnits="userSpaceOnUse" id="color-20"><stop offset="0" stop-color="#13d927"/><stop offset="1" stop-color="#277516"/></linearGradient><linearGradient x1="275.00745" y1="76.98601" x2="278.02787" y2="170.90101" gradientUnits="userSpaceOnUse" id="color-21"><stop offset="0" stop-color="#13d927"/><stop offset="1" stop-color="#277516"/></linearGradient><linearGradient x1="331.04711" y1="68.13682" x2="333.87513" y2="156.0693" gradientUnits="userSpaceOnUse" id="color-22"><stop offset="0" stop-color="#13d927"/><stop offset="1" stop-color="#277516"/></linearGradient><linearGradient x1="324.73624" y1="73.48098" x2="327.64265" y2="163.85102" gradientUnits="userSpaceOnUse" id="color-23"><stop offset="0" stop-color="#13d927"/><stop offset="1" stop-color="#277516"/></linearGradient><linearGradient x1="311.72852" y1="45.15788" x2="312.56891" y2="71.28863" gradientUnits="userSpaceOnUse" id="color-24"><stop offset="0" stop-color="#13d927"/><stop offset="1" stop-color="#277516"/></linearGradient><linearGradient x1="295.80695" y1="43.54972" x2="296.70507" y2="71.47532" gradientUnits="userSpaceOnUse" id="color-25"><stop offset="0" stop-color="#13d927"/><stop offset="1" stop-color="#277516"/></linearGradient></defs><g transform="translate(-232.32238,-42.71984)"><g stroke-miterlimit="10"><g stroke="#000000" stroke-width="2.5" stroke-linecap="butt"><path d="M342.43355,135.75168c5.63017,-0.0141 10.63303,13.52006 11.17424,30.22937c0.5412,16.70931 -3.58422,30.26632 -9.21437,30.28042c-5.63017,0.0141 -10.63304,-13.52007 -11.17425,-30.22937c-0.5412,-16.70931 3.58422,-30.26632 9.21438,-30.28042z" fill="url(#color-1)"/><path d="M338.44417,174.73553c0.55374,17.09662 -3.83812,30.96829 -9.80949,30.98325c-5.97138,0.01495 -11.26105,-13.83248 -11.81481,-30.9291c-0.55374,-17.09662 3.83813,-30.96828 9.8095,-30.98324c5.97138,-0.01495 11.26104,13.83248 11.8148,30.92909z" fill="url(#color-2)"/><path d="M325.11784,182.98446c0.49999,15.43675 -2.69069,27.95971 -7.12658,27.97083c-4.43588,0.01111 -8.4372,-12.49385 -8.93719,-27.93061c-0.49999,-15.43675 2.69068,-27.95971 7.12658,-27.97084c4.43588,-0.01111 8.4372,12.49385 8.93719,27.93061z" fill="url(#color-3)"/><path d="M313.79234,176.70085c0.50536,15.60274 -2.47349,28.25974 -6.65347,28.27021c-4.17997,0.01046 -7.97818,-12.62956 -8.48354,-28.23231c-0.50536,-15.60274 2.47349,-28.25974 6.65347,-28.27021c4.17997,-0.01046 7.97818,12.62956 8.48354,28.23231z" fill="url(#color-4)"/><path d="M272.67775,166.38796c0.5412,16.70931 -3.6177,29.2327 -9.28915,27.97177c-5.67146,-1.26094 -10.70781,-15.82871 -11.24901,-32.53803c-0.5412,-16.70931 3.6177,-29.2327 9.28914,-27.97177c5.67146,1.26094 10.70782,15.82872 11.24902,32.53803z" fill="url(#color-5)"/><path d="M277.86991,145.46214c6.01519,1.33737 11.34037,16.28106 11.89411,33.37768c0.55374,17.09662 -3.87363,29.87203 -9.88881,28.53466c-6.01519,-1.33737 -11.34036,-16.28106 -11.8941,-33.37768c-0.55374,-17.09662 3.87362,-29.87203 9.8888,-28.53466z" fill="url(#color-6)"/><path d="M281.93928,185.25587c-0.49999,-15.43675 2.71707,-27.14535 7.1855,-26.15187c4.46844,0.99347 8.49612,14.31279 8.99611,29.74955c0.49999,15.43675 -2.71707,27.14536 -7.1855,26.15188c-4.46843,-0.99347 -8.49612,-14.31279 -8.99611,-29.74955z" fill="url(#color-7)"/><path d="M299.6465,154.87892c4.21063,0.93616 8.03369,14.34358 8.53905,29.94632c0.50536,15.60274 -2.49834,27.49237 -6.70898,26.5562c-4.21063,-0.93616 -8.03369,-14.34358 -8.53905,-29.94632c-0.50536,-15.60274 2.49834,-27.49237 6.70898,-26.5562z" fill="url(#color-8)"/></g><path d="M252.43519,197.22371c0,0 5.46267,-28.24546 16.12774,-29.36072c10.59128,-1.10755 35.72288,-3.30322 57.65092,-5.5963c23.78354,-2.4871 33.05292,26.10673 33.05292,26.10673l3.37241,51.96826c-6.85509,4.13252 -6.24075,7.78968 -7.91645,16.90816c-1.96723,10.70489 -1.08993,23.58274 -0.41873,33.84947c1.0844,16.5871 1.94375,33.84641 0.32442,50.37874c-0.4028,4.11232 -0.63003,8.38215 -0.1528,12.54332l-73.19975,1.88511c0.03091,-0.87885 0.01896,-1.76738 -0.03778,-2.66343c-0.07673,-1.21172 -0.23298,-2.3995 -0.46333,-3.55855c-0.15146,-5.11856 -0.78986,-9.9519 -1.45528,-13.50591c-1.7633,-9.41783 -4.12729,-19.14441 -4.76346,-28.66895c-0.90241,-13.51053 -1.7196,-27.02665 -2.5671,-40.54075c-0.41532,-6.62256 1.84564,-13.3782 -0.2663,-20.01199c-0.97602,-3.06576 -1.69341,-6.33349 -3.50196,-8.99443c-3.8688,-5.69224 -7.98629,-9.25651 -13.45868,-10.89672z" fill="url(#color-9)" stroke="#000000" stroke-width="2.5" stroke-linecap="butt"/><path d="M276.09501,242.04379c-0.29839,2.21899 2.83725,3.07689 0.34845,4.02608c-3.31269,1.2634 -12.66707,2.13566 -15.28081,1.22976c-1.22015,-0.42291 -7.90396,-1.47499 -8.89562,-2.24689c-2.72852,-2.12386 -1.56558,-4.43447 -1.05542,-8.22819c0.69557,-5.17251 7.69605,-8.64671 12.27345,-7.06019c4.57741,1.5865 13.3055,7.10692 12.60994,12.27943z" fill="url(#color-10)" stroke="#000000" stroke-width="2.5" stroke-linecap="butt"/><path d="M275.27381,225.2961c-0.0601,3.17016 2.99179,12.68457 -1.12882,11.98925c-0.52531,-0.08864 -8.88268,-2.43692 -9.4605,-2.49966c-5.11042,-0.55477 -13.50113,-2.44595 -13.43336,-6.02024c0.06777,-3.5743 7.48647,-3.0697 12.59689,-2.51492c5.11042,0.55477 11.49357,-4.52873 11.42581,-0.95444z" fill="url(#color-11)" stroke="#000000" stroke-width="2.5" stroke-linecap="butt"/><path d="M353.90437,236.22674c3.91467,-3.90335 11.45572,-4.52315 13.47646,-0.20794c1.4821,3.16494 3.1914,4.63365 1.16824,8.02859c-0.7353,1.23387 -6.78443,5.78695 -7.82794,6.82743c-2.2353,2.22884 -11.31903,6.47528 -14.78727,7.11365c-2.60567,0.47961 0.13627,-1.98676 -0.73061,-3.83796c-2.02074,-4.3152 4.78645,-14.02041 8.70111,-17.92376z" fill="url(#color-12)" stroke="#000000" stroke-width="2.5" stroke-linecap="butt"/><path d="M352.63536,233.23628c4.69092,-3.25492 11.57986,-7.70737 12.58543,-4.50315c1.00556,3.20422 -6.43817,9.43723 -11.12909,12.69218c-0.5304,0.36803 -7.82219,6.99755 -8.29605,7.36079c-3.71704,2.84936 -3.33439,-7.4205 -4.22626,-10.26242c-1.00556,-3.20422 6.37504,-2.03246 11.06597,-5.28738z" fill="url(#color-13)" stroke="#000000" stroke-width="2.5" stroke-linecap="butt"/><path d="M270.86967,163.96833c0.45265,-2.19826 1.54254,2.16073 3.55849,1.28119c1.63364,-0.71275 10.08736,6.21407 10.48242,7.30836c1.19586,3.31243 -0.67886,17.31734 3.09212,17.37556c5.19766,0.08024 10.55105,-1.25619 15.71955,-0.89417c4.22178,0.29569 8.19188,0.60866 12.48473,0.33684c1.91328,-0.12114 7.98975,0.53556 9.42888,-0.59706c0.72036,-0.56693 0.17372,-2.37979 0.23074,-3.10035c0.492,-6.21718 -3.07608,-14.75404 4.36517,-15.22867c1.39691,-0.0891 2.30009,-4.99718 3.6663,-4.72573c0.98004,0.19472 4.37383,-0.27222 5.03228,0.44419c2.29085,2.49258 2.49632,14.83031 3.18761,17.99674c2.3802,10.90245 3.74467,20.83869 3.18566,31.96603c-0.82771,16.47608 5.10017,27.17274 7.79855,42.97185c2.7935,16.35606 -1.54716,38.45489 -0.52122,54.65712c0.70088,11.06866 2.1724,22.47225 1.62464,33.4935c-0.09605,1.93271 1.24133,7.97049 -0.53718,9.30073c-2.69091,2.01268 -10.3808,0.24031 -13.58307,0.42455c-13.56885,0.78063 -27.23247,0.59059 -40.86908,1.45407c-2.58942,0.16397 -14.13889,1.17764 -15.2243,-0.98006c-1.92947,-3.83556 0.0224,-9.50483 -1.09414,-13.59017c-0.43945,-1.60791 -1.81875,-2.9776 -2.4872,-4.46871c-0.97425,-2.17326 -0.75817,-4.83647 -1.51489,-7.06507c-1.75798,-5.17748 0.17348,-11.47476 -1.17117,-16.75188c-1.62558,-6.37964 -5.57721,-12.81186 -4.65088,-20.036c0.82442,-6.42938 3.35107,-12.75135 3.25972,-19.33964c-0.25191,-18.16664 -1.70823,-36.27765 -2.85769,-54.43035c-0.52454,-8.2838 -4.73286,-46.42107 -3.28882,-50.0878" fill="url(#color-14)" stroke="#000000" stroke-width="2.5" stroke-linecap="round"/><path d="M357.9045,122.2227c1.76964,27.94694 -20.82712,55.07473 -51.01929,56.98654c-30.19217,1.91181 -56.54658,-22.11631 -58.31623,-50.06324c-1.76964,-27.94693 21.27138,-52.15223 51.46355,-54.06404c30.19217,-1.91181 56.10234,19.19381 57.87198,47.14074z" fill="url(#color-15)" stroke="#000000" stroke-width="2.5" stroke-linecap="butt"/><path d="M259.87996,126.49471c-0.87874,7.0473 -4.15975,12.38002 -5.46939,17.86723c-2.36,9.8881 -3.1628,17.52646 -6.35507,17.07474c-4.96375,-0.7024 -6.34483,-17.41797 -3.88257,-37.16463c1.22696,-9.84001 4.11744,-27.13894 17.89343,-37.20853c13.86933,-10.13781 36.36065,-13.33294 38.85091,-12.98055c3.30449,0.4676 -40.25884,23.35617 -40.01521,34.14622c0.12233,5.41797 -0.19901,11.66466 -1.02209,18.26553z" fill="#48d957" stroke="#000000" stroke-width="2.5" stroke-linecap="butt"/><g stroke-linecap="butt"><path d="M249.79272,114.39069c-2.42869,6.155 -6.814,10.37474 -9.31411,15.06253c-4.50521,8.4475 2.52574,20.54768 -0.48204,19.60953c-4.67692,-1.45875 -9.98899,-22.15686 -3.18376,-39.40327c3.39112,-8.59411 15.80917,-35.05211 31.47176,-41.75156c8.53479,-3.65064 24.40783,-7.01536 30.62216,-4.30954c5.26719,2.29344 1.47011,10.45452 2.5465,10.79027c3.11351,0.97112 -44.41719,14.14937 -46.58831,23.83914c-1.09017,4.86549 -2.79738,10.39783 -5.07222,16.16291z" fill="url(#color-16)" stroke="#000000" stroke-width="2.5"/><path d="M350.68816,91.74511c-2.22564,-5.69338 -15.13359,-9.28134 -30.11004,-12.71706c-8.59789,-1.97241 -22.56819,-1.47141 -21.39038,-1.91188c0.34597,-0.12938 -2.35503,-2.32197 -5.14013,-5.02188c-0.73857,-0.71597 -1.48306,-1.46762 -2.1782,-2.22593c-2.74375,-2.99306 -4.7189,-6.08988 -2.52804,-7.50636c2.79824,-1.80916 10.50649,3.32643 13.81812,3.25686c8.38697,-0.17619 30.42111,6.59017 38.97077,8.95506c17.64395,4.8804 20.71705,27.99146 25.39952,35.80385c9.39663,15.67773 -3.36443,34.38297 -8.2154,36.19709c-0.77143,0.28849 -0.44348,-9.23962 -0.37868,-10.06181c0.19724,-2.50286 7.36799,-8.33006 2.95532,-14.02839c-3.25315,-4.20097 -0.44628,-10.33029 -3.79979,-15.92545c-3.14108,-5.2407 -5.64392,-10.31405 -7.40307,-14.81408z" fill="url(#color-17)" stroke="#000000" stroke-width="2.5"/><path d="M285.54005,65.88988c-0.13951,-0.15501 -0.23893,-0.37367 -0.24882,-0.68196c-0.03649,-1.13447 1.2118,-1.2135 1.2118,-1.2135c2.87331,-0.18191 8.09883,-1.29493 10.45662,0.60115c0.82358,0.66232 1.45083,1.89211 1.95675,3.2366l0.30203,0.01514c0.6263,0.02305 1.12736,0.47327 1.14614,1.0573c0.01518,0.4719 -0.28884,0.89656 -0.73438,1.09611c0.27988,0.94074 0.51951,1.81954 0.74493,2.47932c0.23616,0.69128 0.91061,1.50205 0.4783,2.13547c-0.77268,1.13218 -5.39985,0.82707 -6.63347,0.76714c-0.43228,-0.0248 -0.90272,-0.05739 -1.3952,-0.10271l-1.11951,0.26576c-0.52134,-0.29224 -1.3143,-0.41106 -1.83977,-0.70066c-1.69818,-0.36761 -3.30164,-0.97353 -4.24214,-1.99169c-1.58536,-1.71626 -1.9859,-5.20482 -0.08326,-6.9635zM295.25644,66.32089c-0.00351,-0.00307 -0.00702,-0.00613 -0.01054,-0.00918c-0.54851,-0.47518 -1.60644,-0.62499 -2.81892,-0.61809c0.03983,0.03583 0.07686,0.07423 0.11085,0.11498c1.03889,-0.00366 2.00742,0.15587 2.71865,0.51228zM287.38195,70.68594c-0.14566,-0.11885 -0.2758,-0.23668 -0.39123,-0.35329c0.104,0.26343 0.23378,0.51457 0.38505,0.74242c-0.02076,-0.09524 -0.02557,-0.19419 -0.01136,-0.29722c0.00429,-0.03115 0.01018,-0.06178 0.01755,-0.0919z" fill="url(#color-18)" stroke="none" stroke-width="0.5"/><path d="M249.85865,116.44043c-2.40922,6.76058 -6.78174,11.37811 -9.26714,16.52298c-4.47874,9.27116 2.59296,22.63729 -0.4185,21.58524c-4.68262,-1.63583 -10.06295,-24.45651 -3.31229,-43.39978c3.36392,-9.43967 8.1731,-25.77995 23.81718,-33.05537c15.75008,-7.32474 38.37286,-6.18236 40.72207,-5.36169c3.11732,1.08902 -44.3804,15.29342 -46.52052,25.94712c-1.07461,5.34951 -2.76421,11.4292 -5.02081,17.7615z" fill="url(#color-19)" stroke="#000000" stroke-width="2.5"/><path d="M257.35671,126.60366c-1.09626,7.05669 -4.53835,12.39636 -6.01652,17.89086c-2.66369,9.9012 -3.70245,17.54976 -6.87641,17.09725c-4.9353,-0.70363 -5.79581,-17.44168 -2.72406,-37.21465c1.53067,-9.85311 1.17021,-28.80263 15.24023,-38.88489c3.66143,-2.6237 7.18315,-7.228 11.47451,-8.98145c12.31111,-5.03028 29.67504,-2.64845 31.51105,-2.3867c3.28554,0.46842 -40.92969,23.38513 -41.02124,34.18966c-0.04596,5.42523 -0.56074,11.68028 -1.58755,18.28994z" fill="url(#color-20)" stroke="#000000" stroke-width="2.5"/><path d="M266.71973,135.28273c0.22842,7.10215 -2.42228,13.02247 -2.91946,18.68296c-0.89593,10.20032 -0.48686,17.86688 -4.00772,18.08978c-5.4747,0.3466 -9.7567,-15.77565 -10.39672,-35.67599c-0.31893,-9.91659 -0.08804,-27.50326 13.09895,-40.26485c13.27633,-12.84807 37.01784,-20.68001 39.76443,-20.8539c3.64464,-0.23074 -39.55138,31.3341 -37.48657,41.87641c1.03679,5.29357 1.73311,11.49336 1.94706,18.14559z" fill="url(#color-21)" stroke="#000000" stroke-width="2.5"/><path d="M344.35368,101.59287c-1.10923,-6.43225 -12.51267,-12.22947 -25.86629,-18.17719c-7.66622,-3.41455 -20.74855,-4.99541 -19.57836,-5.28845c1.25417,-0.31407 10.6927,-10.12425 19.13405,-8.95773c7.83285,1.08242 13.69316,8.91677 21.24826,12.74415c15.59145,7.89856 21.66212,23.76798 24.69929,32.84102c6.09491,18.20754 -10.15243,39.12682 -14.97205,40.33374c-3.09958,0.77618 5.09699,-10.64679 0.92127,-19.63939c-2.31725,-4.99029 0.97502,-10.37728 -1.20017,-16.87529c-2.03738,-6.08637 -3.50924,-11.89684 -4.38598,-16.98084z" fill="url(#color-22)" stroke="#000000" stroke-width="2.5"/><path d="M337.80812,113.41969c0.89436,-6.28037 -9.3285,-15.14125 -21.57031,-24.74102c-7.02795,-5.51117 -20.38766,-10.99543 -19.05283,-10.906c1.43062,0.09585 14.59382,-6.05865 23.16701,-2.38472c7.95519,3.40909 11.64615,12.44567 18.42341,18.30384c13.98624,12.0895 15.31407,28.60985 15.61353,37.92166c0.29212,9.08312 -4.01142,12.35473 -6.49415,17.87482c-2.62501,5.8364 -3.51837,13.65888 -6.34377,13.4696c-3.53565,-0.23686 -1.94614,-6.31141 -3.47849,-15.8992c-0.85036,-5.32058 -0.86573,-9.94165 -1.08022,-16.61065c-0.20089,-6.24653 0.10892,-12.06437 0.81583,-17.02832z" fill="url(#color-23)" stroke="#000000" stroke-width="2.5"/><path d="M316.90027,60.54575c-3.73152,7.31864 -8.88387,12.21175 -11.50809,10.92908c-2.62422,-1.28269 -1.72656,-8.25543 2.00496,-15.57407c3.73152,-7.31864 8.88388,-12.21175 11.50809,-10.92907c2.62421,1.28268 1.72656,8.25543 -2.00496,15.57406z" fill="url(#color-24)" stroke="#000000" stroke-width="2.5"/><path d="M301.24993,55.42565c2.91817,7.47942 3.04796,14.477 0.28989,15.62955c-2.75807,1.15255 -7.35957,-3.9764 -10.27774,-11.45581c-2.91817,-7.47942 -3.04796,-14.477 -0.28989,-15.62955c2.75807,-1.15255 7.35957,3.9764 10.27774,11.45581z" fill="url(#color-25)" stroke="#000000" stroke-width="2.5"/></g><g stroke="#000000" stroke-width="2.5" stroke-linecap="butt"><path d="M344.61083,72.54186c6.34188,10.20366 8.54917,20.2988 4.93013,22.54813c-3.61902,2.24934 -11.69394,-4.19892 -18.0358,-14.40258c-6.34188,-10.20366 -8.54917,-20.29881 -4.93014,-22.54815c3.61902,-2.24934 11.69395,4.19894 18.03581,14.4026z" fill="#ff00e7"/><path d="M342.19741,83.12557c-10.13842,6.44566 -20.21052,8.75585 -22.49666,5.15994c-2.28614,-3.59589 4.07936,-11.73618 14.21779,-18.18182c10.13842,-6.44566 20.21054,-8.75586 22.49667,-5.15995c2.28614,3.59589 -4.07938,11.73619 -14.2178,18.18183z" fill="#ff00e7"/><path d="M340.01896,69.15261c11.61938,3.0535 20.16079,8.86973 19.07777,12.99089c-1.08302,4.12116 -11.38034,4.98667 -22.99973,1.93316c-11.61938,-3.0535 -20.1608,-8.86974 -19.07778,-12.9909c1.08302,-4.12116 11.38035,-4.98666 22.99975,-1.93316z" fill="#ff00e7"/><path d="M345.53961,78.49937c-2.93479,11.64993 -8.66355,20.25025 -12.79555,19.20933c-4.13198,-1.04092 -5.10253,-11.32887 -2.16775,-22.97881c2.93479,-11.64993 8.66356,-20.25026 12.79556,-19.20934c4.13198,1.04092 5.10252,11.32889 2.16773,22.97881z" fill="#ff00e7"/><path d="M345.27786,79.53848c-0.99754,3.95983 -5.15586,6.32608 -9.28785,5.28517c-4.13199,-1.04092 -6.67297,-5.09481 -5.67543,-9.05465c0.99754,-3.95983 5.15586,-6.32608 9.28785,-5.28517c4.13199,1.04092 6.67297,5.09481 5.67543,9.05465z" fill="#ffe300"/></g><path d="M333.95261,117.19073c0.14123,2.2304 -1.72878,4.16416 -4.17677,4.31917c-2.44801,0.15501 -4.54699,-1.52742 -4.68821,-3.75782c-0.14123,-2.23039 1.72878,-4.16416 4.17677,-4.31917c2.44801,-0.15501 4.54699,1.52742 4.68821,3.75782z" fill="#ffffff" stroke="#000000" stroke-width="2.5" stroke-linecap="butt"/><path d="M281.90047,120.81705c0.14123,2.23039 -1.72878,4.16416 -4.17677,4.31917c-2.44801,0.15501 -4.54699,-1.52742 -4.68821,-3.75782c-0.14123,-2.2304 1.72877,-4.16417 4.17677,-4.31918c2.44801,-0.15501 4.54699,1.52742 4.68821,3.75783z" fill="#ffffff" stroke="#000000" stroke-width="2.5" stroke-linecap="butt"/><path d="M319.03345,122.50747c0.17118,2.70342 -6.32918,5.31539 -14.51897,5.83398c-8.1898,0.51859 -14.9677,-1.25256 -15.13888,-3.956c-0.17118,-2.70342 6.32918,-5.31539 14.51897,-5.83398c8.1898,-0.51859 14.9677,1.25256 15.13888,3.956z" fill-opacity="0.18431" fill="#ff0505" stroke="none" stroke-width="0" stroke-linecap="butt"/><path d="M338.96641,110.63782c0.73201,1.01326 -0.28125,1.74526 -0.28125,1.74526l-0.60775,0.42961c-1.14247,0.64644 -2.98432,2.26741 -4.18985,2.545c-1.50276,0.34605 -2.8147,-0.81288 -4.22776,-1.01909c0,0 -1.23407,-0.19887 -1.0352,-1.43295c0.19887,-1.23407 1.43295,-1.0352 1.43295,-1.0352c0.50316,0.0867 2.8667,1.20233 3.25296,1.05475c1.12578,-0.43009 2.42754,-1.66117 3.53565,-2.28831l0.375,-0.28033c0,0 1.01325,-0.73201 1.74525,0.28125z" fill="#000000" stroke="none" stroke-width="0.5" stroke-linecap="butt"/><path d="M286.2854,114.08553c0.69376,1.03981 -0.34605,1.73356 -0.34605,1.73356l-0.21523,0.1436c-2.83444,1.87359 -5.23376,2.50008 -8.54426,1.83924c0,0 -1.22581,-0.24469 -0.98112,-1.4705c0.24469,-1.22581 1.4705,-0.98112 1.4705,-0.98112c2.64718,0.52843 4.36463,0.0865 6.66735,-1.46724l0.21523,-0.1436c0,0 1.03981,-0.69376 1.73356,0.34605z" fill="#000000" stroke="none" stroke-width="0.5" stroke-linecap="butt"/><path d="M336.35537,159.11407c-0.82627,0.93797 -1.76423,0.11172 -1.76423,0.11172l-0.56423,-0.50917c-0.17812,0.05575 -0.31286,0.06426 -0.31286,0.06426l-0.33276,-0.00325c-6.54512,1.74558 -12.65111,5.05349 -19.39056,6.16068c-3.30488,0.54293 -6.85605,0.44023 -10.20045,0.652c-8.1701,0.51734 -19.03757,1.89293 -26.6632,-1.33481c0,0 -0.2615,-0.11069 -0.48247,-0.35117c-0.17965,0.13443 -1.00772,0.67531 -1.72677,-0.1668c-0.8117,-0.9506 0.13891,-1.7623 0.13891,-1.7623c0.36569,-0.31225 0.73137,-0.62451 1.09706,-0.93675l1.18786,-0.55055c0,0 1.1585,-0.46944 1.62794,0.68907c0.19358,0.47771 0.11033,0.83827 -0.05434,1.09704c7.19601,2.63822 17.24043,1.29471 24.71702,0.82127c3.26054,-0.20647 6.73446,-0.0946 9.95537,-0.6243c6.40247,-1.05292 12.2395,-4.14545 18.43691,-5.91228c0.0241,-0.17083 0.09185,-0.35699 0.22246,-0.55624c0.68531,-1.04539 1.73071,-0.36009 1.73071,-0.36009c0.40216,0.26362 0.80431,0.52725 1.20646,0.79088l1.05948,0.91655c0,0 0.93798,0.82626 0.11172,1.76423z" fill="#000000" stroke="none" stroke-width="0.5" stroke-linecap="butt"/><path d="M265.8445,265.91966c0.0814,-2.29587 3.2174,-5.55231 4.66508,-7.32293c1.48625,-1.8178 2.63901,-3.99601 4.0642,-5.85829c3.10204,-4.05342 10.25517,-3.98968 14.14988,-4.50226c1.71789,-0.22609 8.05336,-1.96684 8.81934,0.09965c1.8341,4.94804 -4.93583,7.73631 -7.93673,9.5269c-0.99937,0.59631 -1.801,1.29097 -2.78578,1.68794c-0.25018,0.10084 -0.75705,0.13453 -0.72225,0.41516c0.055,0.44354 4.13576,-1.13171 4.53935,-1.20186c2.20145,-0.38262 12.43582,-2.94878 13.43212,-1.17512c0.48378,0.86126 0.235,2.35604 0.19889,3.39787c-0.19212,5.5434 -3.96799,4.6744 -7.81338,6.39874c-0.96045,0.43068 -2.03537,0.85145 -3.0216,1.06332c-0.25493,0.05477 -0.7141,-0.16063 -0.76519,0.13209c-0.07492,0.42924 4.84099,-0.30767 5.29154,-0.36691c0.25486,-0.03351 0.50972,-0.06704 0.76457,-0.10056c4.27238,-0.56204 6.12183,-0.99887 6.25159,4.45275c0.09565,4.0181 0.08667,5.86888 -3.65031,7.26479c-1.66957,0.62365 -3.56526,1.44521 -5.24582,1.67152c-0.25489,0.03432 -0.6937,-0.18899 -0.76461,0.10171c-0.03657,0.14992 3.08142,1.33684 3.38764,1.3966c2.28918,0.44679 3.91985,3.41787 3.13125,6.40994c-1.36362,5.1738 -5.38116,4.55138 -8.82543,6.48653c-7.29218,4.09709 -12.15013,4.79627 -19.07706,2.60487c-2.76258,-0.87397 -5.97133,-0.84887 -8.13491,-2.84551c-4.62156,-4.26497 -0.20978,-22.55181 0.03142,-29.28171z" fill="#4ff110" stroke="#000000" stroke-width="2.5" stroke-linecap="round"/><path d="M340.72595,275.6422c-0.23601,6.73008 2.86962,25.28345 -2.04238,29.21041c-2.29954,1.8384 -5.49846,1.58613 -8.316,2.26226c-7.06474,1.69533 -11.86097,0.65386 -18.84468,-3.94937c-3.29857,-2.17421 -7.35011,-1.83787 -8.34389,-7.09525c-0.57472,-3.04041 1.26226,-5.88855 3.57734,-6.1721c0.30969,-0.03793 3.5039,-1.00104 3.47804,-1.15318c-0.05014,-0.29499 -0.50367,-0.10332 -0.75549,-0.1556c-1.66031,-0.34475 -3.49306,-1.29851 -5.11427,-2.03883c-3.62875,-1.65705 -3.50662,-3.50383 -3.12666,-7.50507c0.51552,-5.42874 2.32939,-4.86203 6.55124,-3.99884c0.25184,0.05149 0.50369,0.10299 0.75553,0.15446c0.44523,0.091 5.2966,1.17421 5.25227,0.74073c-0.03024,-0.2956 -0.50351,-0.11327 -0.75391,-0.18595c-0.96875,-0.28118 -2.01117,-0.77702 -2.93871,-1.27464c-3.71362,-1.99235 -7.54155,-1.39292 -7.34061,-6.93601c0.03777,-1.04177 -0.10453,-2.55042 0.43903,-3.37525c1.1194,-1.69865 11.14634,1.58586 13.31517,2.12343c0.39762,0.09855 4.35657,1.95885 4.44284,1.52032c0.05459,-0.27746 -0.44863,-0.34696 -0.69103,-0.46527c-0.9542,-0.46571 -1.70462,-1.2154 -2.65925,-1.88099c-2.86655,-1.99861 -9.42202,-5.25932 -7.24211,-10.06505c0.91041,-2.00706 7.10669,0.178 8.80426,0.52518c3.84864,0.78711 10.98831,1.23012 13.79551,5.49305c1.28972,1.95853 2.28533,4.21291 3.63911,6.1314c1.31865,1.8687 4.21615,5.33906 4.13475,7.63493z" fill="#4ff110" stroke="#000000" stroke-width="2.5" stroke-linecap="round"/></g></g></svg>