<svg version="1.1" xmlns="http://www.w3.org/2000/svg" xmlns:xlink="http://www.w3.org/1999/xlink" width="193.32051" height="324.45646" viewBox="0,0,193.32051,324.45646"><g transform="translate(-247.51141,-33.1476)"><g data-paper-data="{&quot;isPaintingLayer&quot;:true}" fill-rule="nonzero" stroke-linejoin="miter" stroke-miterlimit="10" stroke-dasharray="" stroke-dashoffset="0" style="mix-blend-mode: normal"><g stroke-width="2"><path d="M376.00412,229.50658c3.45458,-2.79347 8.12977,-8.37489 12.00367,-8.55968c7.34428,-0.35034 17.87066,13.67219 13.97524,26.54735c-0.63808,2.109 -2.35512,6.66395 -4.18441,5.46508c-0.39953,-0.26186 -1.46057,-2.87002 -1.94418,-2.43213c-0.15883,0.14381 -0.51066,4.55369 -0.702,5.20432c-1.02051,3.46976 -2.96271,6.97549 -5.45226,7.61847c-2.44148,0.63057 -2.90625,-6.18795 -3.94488,-6.06355c-1.55973,0.18682 -4.56131,8.27011 -8.87528,2.99323c-2.33424,-2.85526 -1.90085,-13.59567 -2.11891,-13.84978c-1.13241,-1.31967 -5.98471,2.19976 -7.84874,-5.19336c-1.71438,-6.79966 5.67128,-13.06947 8.95193,-12.05253z" fill="#feed00" stroke="#000000" stroke-linecap="round"/><path d="M393.86512,240.53822c-0.82591,1.81979 -2.06535,2.89967 -3.40294,3.2209c-1.48054,0.35559 -2.14313,-2.85821 -3.43656,-4.38678c-1.34986,-1.59526 -3.02289,-1.25925 -3.12449,-3.6471c-0.0837,-1.96727 0.26237,-3.99152 1.04841,-5.72341c1.7401,-3.83406 5.14656,-4.58354 7.60853,-1.67399c2.46197,2.90956 3.04715,8.37632 1.30705,12.21037z" fill="#ffa600" stroke="none" stroke-linecap="butt"/><path d="M373.86801,241.10557c-0.76944,2.23028 -2.59528,2.95404 -4.07813,1.61661c-1.48284,-1.33745 -2.06117,-4.22968 -1.29173,-6.45995c0.76944,-2.23028 2.59528,-2.95404 4.07812,-1.61661c1.48284,1.33745 2.06119,4.22968 1.29174,6.45995z" fill="#ffa600" stroke="none" stroke-linecap="butt"/><path d="M382.69572,257.61006c-0.75918,2.20053 -2.5617,2.91376 -4.026,1.59301c-1.46432,-1.32073 -2.03595,-4.17531 -1.27675,-6.37583c0.75918,-2.20053 2.5617,-2.91376 4.02601,-1.59302c1.46432,1.32073 2.03595,4.17531 1.27675,6.37583z" fill="#ffa600" stroke="none" stroke-linecap="butt"/><path d="M392.59548,257.99677c-0.74893,2.17081 -2.33274,3.04966 -3.53756,1.96297c-1.20481,-1.08667 -1.57439,-3.7274 -0.82546,-5.8982c0.74893,-2.17081 2.33274,-3.04966 3.53756,-1.96297c1.20481,1.08667 1.57439,3.72738 0.82546,5.8982z" fill="#ffa600" stroke="none" stroke-linecap="butt"/><path d="M401.0499,247.2667c-0.70787,2.05185 -1.94289,3.11888 -2.75845,2.38328c-0.81556,-0.73562 -0.90286,-2.99526 -0.19498,-5.04712c0.70787,-2.05185 1.94289,-3.11888 2.75845,-2.38328c0.81556,0.73562 0.90286,2.99526 0.19498,5.04712z" fill="#ffa600" stroke="none" stroke-linecap="butt"/></g><path d="M319.59741,249.01454c-8.31826,1.98659 -19.56131,-2.86421 -26.94047,-6.75338c-22.32041,-11.7639 -46.99221,-36.20253 -43.87823,-64.14229c2.10612,-18.89696 18.82247,-29.05126 34.86419,-35.18078c6.08595,-2.32544 18.73898,-5.85344 21.0059,2.95469c0.60325,2.34399 0.34163,4.72958 -1.11536,6.74444c-3.14759,4.3528 -10.74259,4.26845 -15.31007,6.64428c-13.80127,7.17888 -21.84915,20.44299 -16.65991,35.78565c5.49437,16.24485 22.97686,24.7426 39.07468,25.588c8.32147,0.437 17.07275,-1.93715 25.07118,1.83959c23.71374,11.19727 0.55718,27.10236 -14.96489,27.03765z" fill="#feed00" stroke="#000000" stroke-width="2" stroke-linecap="round"/><path d="M313.25631,243.08514c5.65968,0.96449 13.50379,1.27528 19.33374,1.49659c6.35666,0.2413 14.55074,2.76431 20.88297,3.96729c3.71966,0.70666 12.32553,1.45605 14.97993,3.52831c1.71822,1.34139 1.11474,3.87084 1.32713,5.27137c0.78917,5.20434 -1.16407,10.36575 -0.39023,15.6665c0.91413,6.2617 -2.14942,11.91205 -2.44251,18.09966c-0.5479,11.56697 -1.80137,23.18427 -8.42379,33.73769c-2.89594,4.61495 4.06041,12.16064 -5.22262,13.55458c-3.28721,0.4936 -12.23906,5.90813 -15.66379,5.25751c-4.96824,-0.94385 -10.08254,-6.95722 -15.96352,-9.18664c-7.48816,-2.83868 -18.5237,-0.49716 -24.01958,-3.10625c-2.75099,-1.30601 -5.94818,-5.21878 -7.09395,-7.39957c-1.43626,-2.7337 3.97935,-12.89207 4.78075,-16.05007c3.94101,-15.52983 4.768,-24.34718 8.7099,-39.89114c1.29529,-5.10766 3.99962,-22.18773 7.81087,-25.20996z" fill="#3c2c1f" stroke="#000000" stroke-width="2" stroke-linecap="round"/><g stroke-width="2"><path d="M311.65381,222.02896c3.42503,0.25698 7.99686,8.79846 3.90836,14.49569c-4.44537,6.19448 -7.66897,1.14081 -9.20644,1.95325c-0.29607,0.15644 -3.83159,10.30751 -7.05029,12.10784c-5.94855,3.32725 -5.77672,-5.29364 -7.15927,-6.03943c-0.92066,-0.49663 -3.8535,5.67642 -5.89367,4.19443c-2.08029,-1.51114 -2.60157,-5.48486 -2.27855,-9.08714c0.06058,-0.67547 1.35044,-4.90715 1.25542,-5.09919c-0.28934,-0.58474 -2.23291,1.45262 -2.70065,1.54972c-2.14151,0.44453 -2.06854,-4.42277 -1.88874,-6.61883c1.09755,-13.4067 16.03291,-22.59205 22.73704,-19.57284c3.53626,1.59257 5.83892,8.49961 8.02842,12.36533z" fill="#feed00" stroke="#000000" stroke-linecap="round"/><path d="M296.43705,215.11051c3.35744,-1.804 6.25174,0.14246 6.46459,4.34755c0.09615,1.8995 -0.32422,3.90963 -1.12352,5.70915c-0.97019,2.18424 -2.40344,1.2581 -4.24428,2.24721c-1.76388,0.94775 -3.55887,3.69465 -4.80587,2.8209c-1.1266,-0.78938 -1.88369,-2.24852 -1.9847,-4.24442c-0.21285,-4.20508 2.33633,-9.07637 5.69378,-10.88039z" fill="#ffa600" stroke="none" stroke-linecap="butt"/><path d="M312.70988,228.31587c1.87001,-0.70049 3.30322,0.64244 3.20117,2.99952c-0.10206,2.35708 -1.70073,4.83571 -3.57073,5.53619c-1.87001,0.70049 -3.30324,-0.64242 -3.20119,-2.99949c0.10206,-2.35708 1.70073,-4.83571 3.57074,-5.53619z" fill="#ffa600" stroke="none" stroke-linecap="butt"/><path d="M298.39988,240.50598c1.84664,-0.69172 3.26202,0.63282 3.16132,2.95845c-0.10069,2.32563 -1.67932,4.77169 -3.52595,5.46342c-1.84664,0.69172 -3.26202,-0.63282 -3.16132,-2.95845c0.10069,-2.32563 1.67932,-4.77169 3.52595,-5.46342z" fill="#ffa600" stroke="none" stroke-linecap="butt"/><path d="M288.45298,237.51417c1.51938,-0.56914 2.67056,0.8293 2.57124,3.12351c-0.09933,2.29421 -1.41157,4.61541 -2.93096,5.18456c-1.51938,0.56914 -2.67056,-0.8293 -2.57124,-3.12351c0.09933,-2.29421 1.41157,-4.61541 2.93096,-5.18456z" fill="#ffa600" stroke="none" stroke-linecap="butt"/><path d="M283.62384,224.99181c1.02851,-0.38528 1.78617,1.06033 1.69228,3.22883c-0.09388,2.1685 -1.00376,4.23874 -2.03228,4.62399c-1.02851,0.38528 -1.78617,-1.06033 -1.69228,-3.22883c0.09388,-2.1685 1.00376,-4.23872 2.03228,-4.62399z" fill="#ffa600" stroke="none" stroke-linecap="butt"/></g><path d="M316.81013,203.68604c-2.81423,5.92739 -5.32049,17.22634 -10.23017,21.5664c-3.91561,3.46133 -21.39378,-6.23342 -23.19197,-10.48195c-0.62546,-1.47775 7.13226,-17.21406 8.26952,-19.47977c8.72492,-17.38212 18.5053,-33.61563 28.46652,-50.38326c2.73471,-4.60332 7.63944,-7.16743 10.38067,-11.46066l1.14637,0.26327c12.31948,5.00421 22.75445,12.95524 36.6532,14.00786c5.56248,0.42128 9.92542,-0.72657 14.6063,-3.75508c1.07022,-0.69242 4.08659,-2.2718 5.33166,-1.0591c2.80227,2.72947 3.17868,11.22729 4.23101,14.94411c4.33991,15.3284 6.17254,31.57869 6.49859,47.51768c0.09546,4.66628 3.58852,12.47111 1.62547,16.75923c-2.29902,5.02199 -12.35649,9.7915 -17.0478,12.38896c-1.30556,0.72286 -4.97626,3.96926 -6.02577,1.81861c-1.46213,-2.99619 0.56438,-23.20709 0.56438,-23.20709c0,0 -2.26348,15.87553 -2.86056,23.84222c-0.29284,3.90733 0.4063,10.56574 -2.12709,13.91365c-1.92964,2.55006 -10.90837,1.73096 -13.80411,1.50377c-11.7135,-0.91904 -23.12956,-5.38281 -34.84106,-6.26302c-3.80661,-0.2861 -13.76276,0.7002 -16.73972,-1.71926c-1.58662,-1.28952 0.36078,-6.51116 0.68685,-8.22757c1.43555,-7.55642 1.91489,-16.45607 4.80307,-23.58067" fill="#fffe8a" stroke="#000000" stroke-width="2" stroke-linecap="round"/><path d="M339.12589,126.63969c14.27179,0.19612 28.1662,0.24336 42.07797,4.03577c2.96682,0.80878 13.2693,3.92652 11.58873,8.4149c-2.28409,6.10014 -9.08595,8.20113 -15.0717,8.48833c-10.79086,0.51776 -35.30993,-3.30299 -43.56918,-10.47647c-5.8781,-5.10533 -2.75032,-12.15192 5.15653,-10.64979z" fill="#fffe8a" stroke="#000000" stroke-width="2" stroke-linecap="round"/><g stroke-width="2" stroke-linecap="round"><path d="M357.26597,57.38321c-13.1409,2.65588 -16.81247,15.23719 -22.32793,25.62265c-0.60613,1.14134 -5.67579,11.25104 -6.91175,10.8409c-0.51316,-0.17028 -0.18509,-1.06659 -0.23445,-1.60499c-0.39292,-4.2856 -1.18219,-8.5463 -1.60323,-12.84423c-1.05079,-10.726 -1.04566,-21.58233 -0.94819,-32.37018c0.02797,-3.09786 -0.48118,-10.27822 1.27698,-12.87976c1.12664,-1.66708 1.54793,-0.77476 2.68157,-0.00771c5.82516,3.94151 11.45514,8.13558 17.09119,12.33753c4.13891,3.08575 9.32717,6.20128 12.04412,10.69749z" fill="#feed00" stroke="#000000"/><path d="M350.53524,58.92079c-8.52539,2.52306 -10.21489,11.04891 -13.25089,18.23204c-0.33365,0.78942 -3.09126,7.76429 -3.93173,7.56567c-0.34894,-0.08247 -0.18464,-0.69375 -0.24874,-1.04652c-0.51023,-2.80803 -1.28082,-5.57645 -1.81036,-8.39099c-1.32151,-7.02401 -1.95312,-14.1959 -2.51973,-21.32791c-0.16272,-2.04804 -0.91905,-6.76154 0.09021,-8.58293c0.64674,-1.16717 0.97723,-0.60235 1.77098,-0.16193c4.07858,2.263 8.04298,4.70425 12.01188,7.15035c2.9146,1.79633 6.52415,3.55092 8.58193,6.36217z" fill="#ffa700" stroke="none"/></g><g stroke-width="2" stroke-linecap="round"><path d="M391.32832,64.64798c3.98973,-3.41761 9.89319,-4.74929 14.79091,-6.38173c6.66934,-2.22293 13.33044,-4.44027 20.09767,-6.3566c1.31698,-0.37294 1.99682,-1.08818 2.54394,0.84811c0.85382,3.02162 -1.88103,9.68029 -2.82576,12.63069c-3.28991,10.27441 -6.68895,20.5849 -11.0498,30.44057c-1.74741,3.94918 -3.83277,7.74759 -5.5496,11.69388c-0.21568,0.49578 -0.1852,1.44974 -0.72586,1.45054c-1.30224,0.00191 -2.94643,-11.18755 -3.16414,-12.46138c-1.98103,-11.59109 -1.52273,-24.6892 -13.16823,-31.33135z" fill="#feed00" stroke="#000000"/><path d="M397.59087,68.34369c2.83547,-2.02427 6.81312,-2.55865 10.14399,-3.35055c4.53571,-1.07834 9.06566,-2.1535 13.64811,-3.02355c0.8918,-0.16935 1.38273,-0.60203 1.63091,0.70905c0.38728,2.04599 -1.8088,6.28466 -2.60545,8.17841c-2.77424,6.59473 -5.62269,13.20693 -9.07989,19.46239c-1.38531,2.50659 -2.98504,4.89378 -4.34999,7.40023c-0.17148,0.31489 -0.20714,0.94686 -0.56435,0.91578c-0.86037,-0.0749 -1.29199,-7.56272 -1.3613,-8.41694c-0.63068,-7.77284 0.43822,-16.39847 -6.86619,-21.46738z" fill="#ffa700" stroke="none"/></g><path d="M373.55347,58.16202c10.25498,1.94821 22.72221,3.29474 28.57658,12.78776c5.06419,8.21172 3.52589,14.43322 3.91172,23.13593c0.11851,2.67284 1.62222,4.91826 1.39245,7.81989c-1.3932,17.59287 -13.96639,37.1786 -35.29154,35.44242c-17.86078,-1.45413 -37.87628,-8.97594 -44.91258,-26.04377c-4.39363,-10.65756 2.40036,-22.69356 7.24617,-31.38861c1.8776,-3.36909 1.56939,-7.78253 3.68432,-11.29876c8.27951,-13.76535 21.48488,-12.81825 35.68907,-10.11977z" fill="#feed00" stroke="#000000" stroke-width="2" stroke-linecap="round"/><path d="M403.13941,105.6524c4.14004,1.18332 14.33637,7.61975 8.89255,12.71451c-1.41642,1.32559 -7.52899,0.98712 -8.11531,2.09897c-0.4397,0.83382 0.75807,1.74768 0.90736,2.67841c0.39948,2.49051 0.2876,6.05576 -0.53157,8.45419c-2.25367,6.59855 -11.48537,1.22258 -13.86874,-2.21774" fill="#feed00" stroke="#000000" stroke-width="2" stroke-linecap="round"/><path d="M332.53048,121.24504c-3.47895,2.32661 -14.03895,3.94258 -13.71583,-3.02271c0.11745,-2.53174 1.32083,-5.88964 2.60579,-8.06011c0.48023,-0.81117 1.92967,-1.22211 1.82637,-2.15909c-0.13773,-1.24942 -5.94858,-3.17611 -6.78019,-4.9288c-3.1962,-6.73619 8.65012,-8.98499 12.93567,-8.56763" fill="#feed00" stroke="#000000" stroke-width="2" stroke-linecap="round"/><path d="M296.66393,67.00084c14.02649,2.88336 22.54028,15.24432 32.69724,23.91967" fill="none" stroke="#000000" stroke-width="2" stroke-linecap="round"/><path d="M298.73743,81.87701c10.82354,0.72939 20.97297,6.1147 30.73946,10.31791" fill="none" stroke="#000000" stroke-width="2" stroke-linecap="round"/><path d="M301.72427,90.49808c8.84,0.0245 18.12767,0.22617 26.82357,1.87819" fill="none" stroke="#000000" stroke-width="2" stroke-linecap="round"/><path d="M406.46873,104.13788c9.79795,-6.6695 20.94169,-14.9698 33.36318,-12.62686" fill="none" stroke="#000000" stroke-width="2" stroke-linecap="round"/><path d="M403.71442,104.50922c12.23111,-5.64663 22.25843,-3.35002 33.58312,2.59305" fill="none" stroke="#000000" stroke-width="2" stroke-linecap="round"/><path d="M406.90568,106.54682c9.09258,-1.77478 19.09102,3.64101 25.85402,9.32476" fill="none" stroke="#000000" stroke-width="2" stroke-linecap="round"/><path d="M360.91026,106.59411c3.65464,0.69431 7.54761,1.18837 11.08988,2.33007c0.44958,0.14491 1.27727,0.09748 1.29766,0.56942c0.0267,0.61819 -7.22682,3.08214 -7.96999,2.88287c-1.67117,-0.4481 -3.59555,-4.25161 -4.00685,-5.70432z" fill="#000000" stroke="#000000" stroke-width="2" stroke-linecap="round"/><path d="M365.34001,88.44236c-1.32106,6.95376 -5.7222,4.97307 -12.5706,3.67202c-6.8484,-1.30104 -13.5507,-1.42976 -12.22965,-8.38352c1.32106,-6.95376 7.94371,-11.53619 14.7921,-10.23514c6.8484,1.30104 11.3292,7.99288 10.00814,14.94664z" fill="#ffffff" stroke="#000000" stroke-width="2" stroke-linecap="butt"/><path d="M399.87086,94.57239c-1.32106,6.95376 -6.34148,5.66764 -13.18987,4.36661c-6.8484,-1.30104 -12.93141,-2.12433 -11.61035,-9.07808c1.32106,-6.95376 7.94371,-11.53619 14.7921,-10.23514c6.8484,1.30104 11.32918,7.99287 10.00812,14.94663z" fill="#ffffff" stroke="#000000" stroke-width="2" stroke-linecap="butt"/><path d="M364.45917,88.19012c-0.94361,4.96698 -4.58157,4.71144 -9.3575,3.80412c-4.77593,-0.90732 -8.88129,-2.12284 -7.93768,-7.08981c0.94361,-4.96698 5.58023,-8.25796 10.35616,-7.35065c4.77593,0.90732 7.88264,5.66937 6.93903,10.63634z" fill="#ffffff" stroke="#000000" stroke-width="2" stroke-linecap="butt"/><path d="M398.57833,95.01558c-0.94361,4.96698 -5.04407,5.43579 -9.82,4.52848c-4.77593,-0.90732 -8.41879,-2.8472 -7.47518,-7.81417c0.94361,-4.96698 5.58023,-8.25796 10.35616,-7.35065c4.77593,0.90732 7.88264,5.66937 6.93903,10.63634z" fill="#ffffff" stroke="#000000" stroke-width="2" stroke-linecap="butt"/><path d="M355.00359,60.80268c1.28013,-3.51952 5.14672,-3.96802 8.9488,-4.53564c0.42109,-0.06286 3.97723,-0.54584 3.98713,-1.04928c0.01799,-0.91585 -5.28902,-1.26016 -4.24268,-3.06973c1.40535,-2.43045 11.66629,0.15031 13.89644,0.57377c0.32119,0.06099 4.09679,0.92216 4.17744,0.78902c0.34555,-0.57054 -5.64788,-3.81346 -5.0571,-4.54533c0.3229,-0.40003 4.68506,2.02229 5.11619,2.28731c5.64823,3.47207 6.34564,7.47616 9.07562,12.53527" fill="#feed00" stroke="#000000" stroke-width="2" stroke-linecap="round"/><path d="M338.55761,74.73964c-2.11279,-1.58446 -1.74063,-3.61851 -3.20152,-5.61465c-0.74588,-1.01914 -5.45587,-2.52902 -5.06446,-4.09792c0.51483,-2.06358 6.51553,-1.75875 7.90338,-2.01796c0.97704,-0.18248 1.16149,-8.5518 8.28506,-1.6755" fill="#feed00" stroke="#000000" stroke-width="2" stroke-linecap="round"/><path d="M337.07225,177.99283c1.12237,0.73642 4.54733,1.12646 4.73314,2.72713c0.62324,5.36847 -4.17404,9.16551 -8.74408,7.2478c-3.04315,-1.27698 4.52279,-10.59751 4.52279,-10.59751c0,0 4.74866,-23.26938 9.36402,-34.10066" fill="#ffaf36" stroke="#000000" stroke-width="2" stroke-linecap="round"/><path d="M363.22786,183.57712c11.41811,-8.725 4.8434,19.2171 -3.22113,9.47879c-4.36637,-5.27258 2.81108,-8.01007 3.77706,-10.38979c4.55959,-11.23281 2.02938,-24.67445 7.81089,-35.84302" fill="#ffaf36" stroke="#000000" stroke-width="2" stroke-linecap="round"/><path d="M319.3698,206.83415c4.00826,-2.12252 8.24488,-0.7839 12.50237,-0.65163c13.73183,0.42663 28.45234,4.13673 41.33608,8.81778" fill="none" stroke="#000000" stroke-width="2" stroke-linecap="round"/><path d="M369.55579,245.71657c1.55744,-8.76199 1.64113,-17.92605 4.76402,-26.40508" fill="none" stroke="#000000" stroke-width="2" stroke-linecap="round"/><path d="M319.06746,211.10758c-1.58937,8.36607 -2.72138,16.7542 -4.50547,25.06485" fill="none" stroke="#000000" stroke-width="2" stroke-linecap="round"/><path d="M340.84347,136.96132c-2.40374,-1.39119 -3.67117,-4.25188 -5.76343,-6.11735" fill="none" stroke="#fcec41" stroke-width="2" stroke-linecap="round"/><path d="M383.34601,142.66163c1.80333,-0.76143 3.46027,-1.31998 5.38458,-1.6956" fill="none" stroke="#fcec41" stroke-width="2" stroke-linecap="round"/><path d="M351.49709,159.02971l1.78883,-9.416" fill="none" stroke="#fcec41" stroke-width="2" stroke-linecap="round"/><path d="M356.11997,153.48339l-0.91623,4.82284" fill="none" stroke="#fcec41" stroke-width="2" stroke-linecap="round"/><path d="M359.60849,153.90819l-0.00911,3.80543" fill="none" stroke="#fcec41" stroke-width="2" stroke-linecap="round"/><path d="M298.67517,222.11036l19.74605,-34.20754l-13.99731,34.79016z" fill="#fce541" stroke="#fcec41" stroke-width="2" stroke-linecap="round"/><path d="M298.67517,222.11036l19.74605,-34.20754l-13.99731,34.79016z" fill="#fce541" stroke="#fcec41" stroke-width="2" stroke-linecap="round"/><path d="M381.15144,233.1811l-1.52739,-30.84881l8.09134,27.14028z" fill="#fce541" stroke="#fcec41" stroke-width="2" stroke-linecap="round"/><path d="M322.80541,333.77288l15.01006,-75.27134" fill="none" stroke="#000000" stroke-width="2" stroke-linecap="round"/><path d="M323.61212,342.44863c-1.61821,8.51791 -11.59982,13.776 -22.29453,11.74424c-10.69472,-2.03176 -18.05267,-10.58394 -16.43445,-19.10188c1.61821,-8.51791 11.59982,-13.776 22.29453,-11.74424c10.69472,2.03176 18.05267,10.58394 16.43445,19.10188z" fill="#000000" stroke="#000000" stroke-width="2" stroke-linecap="butt"/><path d="M362.23213,344.42352c-1.61821,8.51792 -11.59982,13.776 -22.29454,11.74424c-10.69471,-2.03175 -18.05267,-10.58394 -16.43445,-19.10188c1.61821,-8.51792 11.59982,-13.776 22.29453,-11.74424c10.69472,2.03176 18.05268,10.58394 16.43446,19.10188z" fill="#000000" stroke="#000000" stroke-width="2" stroke-linecap="butt"/><path d="M376.89053,122.70378c0.35299,1.23148 0.78991,2.8826 0.84311,3.07896c0.1846,0.68139 0.45393,1.44526 0.72699,2.26134c0.3298,0.22404 0.681,0.43946 0.94256,0.71409c0.15963,-0.13451 0.31392,-0.26408 0.4624,-0.38795c0.28963,-0.2416 -0.54713,-5.77333 -0.8351,-5.94109c-0.59364,-0.34583 -1.35972,-0.05195 -2.13995,0.27463zM377.44794,133.16254c-0.13891,0.09627 -0.27878,0.19186 -0.41941,0.28681c-0.02127,0.01729 -0.04272,0.0346 -0.06431,0.05194c0.01052,0.15479 0.01094,0.38853 0.00408,0.67402c0.00126,0.03802 0.0002,0.07604 -0.00304,0.11397c-0.00441,0.15128 -0.0106,0.3149 -0.0182,0.48737c0.01027,0.09038 0.02033,0.18085 0.03018,0.27131c0.31725,-0.53204 0.5087,-1.11122 0.47861,-1.74221c-0.00225,-0.04696 -0.00489,-0.0947 -0.00793,-0.14317zM370.87336,145.10778c0.16159,-0.10194 0.32027,-0.19951 0.47562,-0.29181c0.19157,-0.11383 2.00455,-1.01304 3.23965,-1.79053c0.05372,-0.28921 0.0895,-0.62059 0.1125,-0.97798c-0.03659,0.03491 -0.07399,0.06931 -0.11221,0.1032c-0.70613,0.62609 -1.59535,0.48661 -2.39303,0.72994c-0.13154,0.03248 -0.26497,0.06698 -0.40008,0.10322c-0.33562,0.31117 -0.67015,0.60784 -1.00413,0.88109c-0.06543,0.11191 -0.12302,0.19344 -0.17074,0.23776c-0.11453,0.10641 -0.2695,0.18681 -0.45584,0.24563c-1.59987,1.15365 -3.19394,1.63997 -4.83807,0.4755c-0.31595,0.05797 -0.62608,0.10401 -0.92823,0.135c-0.03877,0.03603 -0.0786,0.07066 -0.11961,0.10382c-0.2043,0.16517 -0.41999,0.26395 -0.64229,0.32443c0.28911,0.37472 0.56451,0.6874 0.81087,0.91841c0.63276,0.59331 1.81133,-0.21532 2.72195,-0.4676c0.45646,-0.1219 2.09648,-0.37133 3.70362,-0.73008zM356.85125,144.80775c-0.46335,-0.06971 -0.93085,-0.14571 -1.39554,-0.23103c0.2881,0.38394 0.60988,0.64178 1.03424,0.42486c0.11967,-0.06116 0.24014,-0.12586 0.36131,-0.19383zM348.85595,123.63653c1.25028,-0.20683 2.78293,0.10328 4.10753,0.324c0.91711,-0.78313 1.80641,-1.53179 1.95192,-1.61528c0.19769,-0.44909 0.43061,-0.85753 0.71026,-1.18818c0.24226,-0.28644 0.54072,-0.57288 0.87748,-0.85636c-0.62687,0.1432 -1.25685,0.30809 -1.87846,0.41095c-1.08415,0.17936 -5.43306,0.20452 -5.71092,1.39523c0.00412,0.44291 -0.02078,0.96231 -0.0578,1.52965zM346.33298,135.97939c-0.00069,-0.18004 -0.00201,-0.3513 -0.00557,-0.51066c-0.00167,-0.07464 -0.00496,-0.21116 -0.00922,-0.39356c-0.00957,-0.00678 -0.0192,-0.01364 -0.02894,-0.02052c-0.35253,0.20815 -1.05978,0.28589 -0.97698,0.654c0.09082,0.40374 0.62686,0.22784 1.02073,0.27071zM365.57281,148.5928c-2.34927,0.14822 -3.32742,-1.16599 -4.40437,-3.1691c-0.32877,-0.05819 -0.68174,-0.11276 -1.05325,-0.16616c-1.2973,1.03416 -2.55573,1.87533 -3.63494,2.22798c-0.08583,0.02803 -0.17283,0.04895 -0.26089,0.06306c2.34779,1.49232 4.91191,2.70572 7.21079,2.01518c0.67145,-0.20169 1.39594,-0.54709 2.14269,-0.97098zM351.482,144.39281c-0.52983,-0.61337 -1.0277,-1.23833 -1.46953,-1.79678c-0.32303,-0.2482 -0.60643,-0.52321 -0.8415,-0.82884c-0.24824,-0.10489 -0.4869,-0.21614 -0.71236,-0.33496c-0.23807,0.53982 -0.34954,1.03696 -0.10955,1.38542c0.69902,1.01497 2.10204,0.9945 3.11567,1.56537c0.00576,0.00324 0.01152,0.0065 0.01729,0.00977zM362.34023,118.82689c0.26418,0.23471 0.51638,0.49352 0.75826,0.771c0.2585,-0.07359 0.50983,-0.13394 0.75263,-0.17918c0.67476,-0.12575 1.37997,-0.07249 2.09841,0.10637c-0.37426,-0.30328 -0.74295,-0.61339 -1.1027,-0.93399c-0.27013,-0.24073 -0.35977,-0.87838 -0.73909,-0.81848c-0.6219,0.0982 -1.19852,0.53956 -1.76752,1.05426zM346.08698,132.04715c0.05876,-0.07834 0.11767,-0.15711 0.17674,-0.23623c-0.00536,-0.9143 0.00452,-1.67531 0.04893,-1.81907c0.06862,-0.2222 0.14831,-0.42627 0.23758,-0.61429c-0.0079,-0.27281 -0.01076,-0.54961 -0.00955,-0.82898c-0.02202,0.04969 -0.04475,0.0989 -0.06838,0.14754c-0.41299,0.85017 -1.69181,2.04784 -1.19188,2.5727c0.25591,0.26868 0.52557,0.52766 0.80656,0.77837zM348.67448,126.23866c-0.02247,0.3846 -0.04081,0.77192 -0.05146,1.15584c0.24417,-0.12299 0.49276,-0.23388 0.73964,-0.34167c0.26852,-0.23301 0.52298,-0.45149 0.7444,-0.64078c-0.17682,-0.01202 -0.35223,-0.0256 -0.52602,-0.04093c-0.21995,-0.0194 -0.55202,-0.10608 -0.90655,-0.13247zM346.70977,124.86758c0.06974,-1.0298 0.1381,-2.00668 0.15438,-2.85401c1.94944,-3.9954 4.70631,-3.28815 7.95249,-3.82521c0.30468,-0.05042 4.27896,-0.71662 4.45414,-0.70804c0.41318,0.02022 0.80356,0.0949 1.17362,0.2161c0.5682,-0.33419 1.09309,-0.64209 1.5211,-0.91491c0.84935,-0.54139 1.6868,-1.47065 2.56699,-1.55542c0.34971,-0.03368 3.05367,2.17603 3.31425,2.38178c1.10411,0.87172 2.91418,1.83818 4.45856,3.01877c0.16059,-0.00018 0.3212,-0.00031 0.48181,-0.00049c0.69359,-0.00069 1.78551,-0.1421 2.65062,0.08753c0.05685,-0.00801 0.11338,-0.01635 0.16954,-0.02497c0.66024,-0.10137 4.46616,-0.74453 4.81536,-0.51138c0.63681,0.42526 0.5442,1.65365 0.77323,2.50788c0.54502,2.03262 1.96588,4.92821 0.00804,7.24832c-0.51434,0.6095 -1.12565,1.1929 -1.79801,1.75362c0.2335,1.68123 0.08764,3.39685 -0.9605,4.9514c-0.07913,0.11736 -0.58555,0.60751 -1.19723,1.18315c0.05215,0.53195 0.10586,1.03721 0.16688,1.49919c0.12988,0.98325 0.57319,1.91952 0.33035,2.97533c-0.21281,0.92533 -0.83423,1.68269 -1.61519,2.31746c-0.01371,0.04912 -0.0273,0.08669 -0.04076,0.11124c-0.83979,1.53275 -2.89205,2.30069 -4.9027,2.77967c-2.4127,1.54367 -5.3636,3.8518 -7.72987,4.53305c-4.22744,1.2171 -8.29783,-2.5244 -11.49861,-4.32718c-1.28889,-0.72593 -4.84553,-1.86179 -5.52452,-3.30099c-0.60621,-1.28494 -0.0853,-2.79491 0.5279,-4.1795c-0.1614,-0.24655 -0.28109,-0.54682 -0.36992,-0.87989c-0.86933,-0.62704 -3.37628,-2.40809 -3.40297,-3.0953c-0.0338,-0.86991 0.85533,-1.59979 1.48782,-2.36859c-0.6888,-0.51413 -1.28785,-0.99063 -1.36273,-1.14703c-0.95012,-1.98462 1.31381,-5.90347 3.39598,-7.87168zM365.46095,123.21133c0.46644,0.0046 0.93524,0.02383 1.39645,0.05022c-0.03714,-0.02098 -0.07426,-0.04199 -0.1114,-0.06297c-0.44006,-0.00943 -0.87902,-0.02378 -1.31648,-0.04463c0.01049,0.01913 0.02097,0.03824 0.03142,0.05736zM353.39969,129.07865c-0.03491,-0.3715 -0.00733,-0.74027 0.05256,-1.11361c-0.36417,0.60013 -0.69969,1.31614 -1.01583,2.07406c0.3064,-0.29079 0.62912,-0.61607 0.96326,-0.96045zM352.59309,133.11525c-0.17037,0.2372 -0.33254,0.48543 -0.48939,0.7456c0.18299,0.09452 0.36731,0.18724 0.55258,0.27857c-0.03503,-0.34057 -0.05644,-0.68465 -0.06321,-1.02416zM349.69287,131.09058c0.04135,-0.20535 0.0819,-0.40709 0.12077,-0.60421c-0.24069,0.29369 -0.47888,0.59507 -0.71472,0.90022c-0.00133,0.02377 -0.00229,0.04774 -0.00286,0.07186c0.07155,0.17129 0.15267,0.33055 0.24439,0.47605c0.11497,-0.28094 0.23266,-0.56298 0.35243,-0.84394zM359.04831,121.36286c0.47326,-0.25363 0.94478,-0.49564 1.40903,-0.71867c-0.05374,-0.03652 -0.10798,-0.07165 -0.16271,-0.10536c-0.47021,0.31364 -0.88214,0.57996 -1.24633,0.82403z" fill="#000000" stroke="none" stroke-width="0.5" stroke-linecap="butt"/><path d="M347.41061,65.29127l21.09847,18.07068" fill="none" stroke="#000000" stroke-width="1.5" stroke-linecap="round"/><path d="M399.32785,68.07703l-25.12681,14.46499" fill="none" stroke="#000000" stroke-width="1.5" stroke-linecap="round"/></g></g></svg>