<svg version="1.1" xmlns="http://www.w3.org/2000/svg" xmlns:xlink="http://www.w3.org/1999/xlink" width="151.88466" height="317.59695" viewBox="0,0,151.88466,317.59695"><defs><linearGradient x1="399.16583" y1="117.38517" x2="357.94805" y2="115.99343" gradientUnits="userSpaceOnUse" id="color-1"><stop offset="0" stop-color="#ff8600"/><stop offset="1" stop-color="#562e0d"/></linearGradient><linearGradient x1="251.7749" y1="110.96754" x2="292.99267" y2="112.35928" gradientUnits="userSpaceOnUse" id="color-2"><stop offset="0" stop-color="#ff8600"/><stop offset="1" stop-color="#562e0d"/></linearGradient><linearGradient x1="321.8871" y1="155.56627" x2="315.85217" y2="334.2968" gradientUnits="userSpaceOnUse" id="color-3"><stop offset="0" stop-color="#141414"/><stop offset="1" stop-color="#020202"/></linearGradient><linearGradient x1="323.94851" y1="147.43696" x2="322.8386" y2="180.30812" gradientUnits="userSpaceOnUse" id="color-4"><stop offset="0" stop-color="#c46704"/><stop offset="1" stop-color="#ffd300"/></linearGradient><linearGradient x1="326.65428" y1="61.65919" x2="323.06247" y2="168.03417" gradientUnits="userSpaceOnUse" id="color-5"><stop offset="0" stop-color="#9c6400"/><stop offset="1" stop-color="#ffd300"/></linearGradient><linearGradient x1="319.42651" y1="269.13796" x2="318.5748" y2="294.36232" gradientUnits="userSpaceOnUse" id="color-6"><stop offset="0" stop-color="#0cb700"/><stop offset="1" stop-color="#012f00"/></linearGradient><linearGradient x1="251.37577" y1="280.96913" x2="267.38655" y2="281.85453" gradientUnits="userSpaceOnUse" id="color-7"><stop offset="0" stop-color="#ffffff"/><stop offset="1" stop-color="#929292"/></linearGradient><linearGradient x1="387.95777" y1="284.81011" x2="371.92371" y2="284.61351" gradientUnits="userSpaceOnUse" id="color-8"><stop offset="0" stop-color="#ffffff"/><stop offset="1" stop-color="#929292"/></linearGradient><linearGradient x1="289.54023" y1="291.1379" x2="276.09064" y2="280.54997" gradientUnits="userSpaceOnUse" id="color-9"><stop offset="0" stop-color="#ffffff"/><stop offset="1" stop-color="#929292"/></linearGradient><linearGradient x1="325.93597" y1="278.31658" x2="311.86895" y2="286.01392" gradientUnits="userSpaceOnUse" id="color-10"><stop offset="0" stop-color="#ffffff"/><stop offset="1" stop-color="#929292"/></linearGradient><linearGradient x1="363.70616" y1="291.96033" x2="350.10452" y2="285.87496" gradientUnits="userSpaceOnUse" id="color-11"><stop offset="0" stop-color="#ffffff"/><stop offset="1" stop-color="#929292"/></linearGradient><linearGradient x1="305.44523" y1="280.84311" x2="291.49137" y2="285.18927" gradientUnits="userSpaceOnUse" id="color-12"><stop offset="0" stop-color="#ffffff"/><stop offset="1" stop-color="#929292"/></linearGradient><linearGradient x1="329.5264" y1="281.02998" x2="343.15531" y2="286.30752" gradientUnits="userSpaceOnUse" id="color-13"><stop offset="0" stop-color="#ffffff"/><stop offset="1" stop-color="#929292"/></linearGradient><radialGradient cx="289.46937" cy="108.9125" r="42.50334" gradientUnits="userSpaceOnUse" id="color-14"><stop offset="0" stop-color="#603201"/><stop offset="1" stop-color="#321902"/></radialGradient><radialGradient cx="293.78496" cy="110.20373" r="43.17404" gradientUnits="userSpaceOnUse" id="color-15"><stop offset="0" stop-color="#000000"/><stop offset="1" stop-color="#ffffff" stop-opacity="0.01569"/></radialGradient><radialGradient cx="295.55234" cy="105.82158" r="33.73477" gradientUnits="userSpaceOnUse" id="color-16"><stop offset="0" stop-color="#000000" stop-opacity="0.22745"/><stop offset="1" stop-color="#000000"/></radialGradient><radialGradient cx="297.38321" cy="103.88415" r="8.4479" gradientUnits="userSpaceOnUse" id="color-17"><stop offset="0" stop-color="#ffffff"/><stop offset="1" stop-color="#5a5a5a"/></radialGradient><radialGradient cx="297.0461" cy="103.68662" r="2.6136" gradientUnits="userSpaceOnUse" id="color-18"><stop offset="0" stop-color="#ffffff"/><stop offset="1" stop-color="#5a5a5a"/></radialGradient></defs><g transform="translate(-250.25834,-18.43078)"><g stroke-miterlimit="10"><path d="M357.96085,115.61561c0.67666,-19.15886 12.83882,-33.9361 23.36669,-33.56426c10.52788,0.37182 18.51387,16.20455 17.83722,35.36339c-0.67667,19.15884 -9.75975,34.38869 -20.28762,34.01687c-10.52787,-0.37184 -21.59292,-16.6572 -20.91626,-35.81604z" fill="url(#color-1)" stroke="#000000" stroke-width="0" stroke-linecap="butt"/><path d="M293.00535,111.98142c-0.61723,19.16084 -12.75559,34.66273 -23.28457,34.32357c-10.52897,-0.33918 -18.56405,-16.14703 -17.94683,-35.30788c0.61723,-19.16084 9.65302,-34.41883 20.182,-34.07965c10.52897,0.33916 21.66665,15.90313 21.04942,35.06399z" fill="url(#color-2)" stroke="#000000" stroke-width="0" stroke-linecap="butt"/><path d="M266.93111,329.00425l2.75039,-147.26685c0,0 7.77322,-25.45039 18.01151,-25.51015c10.16746,-0.05934 34.25385,0.197 55.3044,0.07413c22.8318,-0.13327 29.02846,26.96964 29.02846,26.96964l-4.91021,152.75671z" fill="url(#color-3)" stroke="#000000" stroke-width="0" stroke-linecap="butt"/><path d="M346.20711,164.64285c-0.30649,9.07712 -10.76892,16.09069 -23.3685,15.66526c-12.59958,-0.42543 -22.56509,-8.12877 -22.25859,-17.20588c0.30649,-9.07712 10.76892,-16.09069 23.3685,-15.66526c12.59958,0.42543 22.56509,8.12877 22.25859,17.20588z" fill="url(#color-4)" stroke="#000000" stroke-width="0" stroke-linecap="butt"/><path d="M379.40259,118.91432c-2.9013,28.40643 -29.69872,51.95597 -59.79479,48.88209c-30.09607,-3.07387 -52.09404,-31.60715 -49.19273,-60.01357c2.9013,-28.40642 29.65098,-48.94253 59.74705,-45.86863c30.09607,3.07387 52.1418,28.5937 49.24049,57.00012z" fill="url(#color-5)" stroke="#000000" stroke-width="0" stroke-linecap="butt"/><path d="M340.42645,107.11451c-0.09141,2.7073 -6.81416,4.6775 -15.01568,4.40057c-8.20153,-0.27693 -14.77605,-2.69612 -14.68464,-5.40342c0.09141,-2.7073 6.81416,-4.6775 15.01568,-4.40057c8.20153,0.27693 14.77605,2.69612 14.68464,5.40342z" fill-opacity="0.18431" fill="#ff0505" stroke="none" stroke-width="0" stroke-linecap="butt"/><path d="M343.7171,202.55512l2.98644,-15.76116l6.26901,16.8172l-15.69166,-12.92203l21.588,-0.75813z" fill="none" stroke-opacity="0.67059" stroke="#ffffff" stroke-width="2.5" stroke-linecap="round"/><path d="M290.30828,183.81717c10.54782,-5.93763 21.48085,6.72177 10.20664,14.11274c-5.03241,3.29906 -14.05224,0.99512 -16.4139,-4.58596c-2.54341,-6.01057 4.43514,-11.35563 9.80133,-9.81992" fill="none" stroke-opacity="0.67059" stroke="#ffffff" stroke-width="2.5" stroke-linecap="round"/><path d="M302.41313,191.99027c2.37024,0.08032 8.13556,-0.5908 9.5165,2.00903c2.58776,4.87187 -6.47084,8.84689 -9.78465,9.13487c-6.51086,0.56579 -14.71491,-0.17651 -20.47397,-3.19077c-4.67267,-2.44565 -4.68104,-7.8202 1.27691,-7.61903" fill="none" stroke-opacity="0.67059" stroke="#ffffff" stroke-width="2.5" stroke-linecap="round"/><path d="M282.99884,235.2807c1.16633,-9.8618 0.07201,-22.35812 3.53388,-31.68232" fill="none" stroke-opacity="0.67059" stroke="#ffffff" stroke-width="2.5" stroke-linecap="round"/><path d="M303.36692,204.16679c2.32161,10.82716 2.47529,21.73934 4.57723,32.51187" fill="none" stroke-opacity="0.67059" stroke="#ffffff" stroke-width="2.5" stroke-linecap="round"/><path d="M291.77815,209.73293c0.01125,-0.33314 0.0225,-0.66629 0.03375,-0.99943" fill="none" stroke-opacity="0.67059" stroke="#ffffff" stroke-width="2.5" stroke-linecap="round"/><path d="M297.53925,207.93552c-0.0225,0.66629 -0.04499,1.33257 -0.06749,1.99886" fill="none" stroke-opacity="0.67059" stroke="#ffffff" stroke-width="2.5" stroke-linecap="round"/><path d="M299.77481,215.05549c-0.1109,1.92967 -0.46679,6.39778 -2.73083,7.23823c-4.377,1.62482 -7.8173,-3.05728 -7.69418,-6.70373" fill="none" stroke-opacity="0.67059" stroke="#ffffff" stroke-width="2.5" stroke-linecap="round"/><path d="M386.11197,26.57739l11.60027,3.98147l-32.71425,8.03301l16.40469,4.79638l-18.2426,34.30281" fill="none" stroke="#000000" stroke-width="2.5" stroke-linecap="round"/><path d="M389.59245,25.71587c-0.07295,2.16035 -1.97661,3.84938 -4.25196,3.77255c-2.27534,-0.07683 -4.06075,-1.89042 -3.9878,-4.05077c0.07295,-2.16035 1.97661,-3.84938 4.25196,-3.77255c2.27534,0.07683 4.06075,1.89042 3.9878,4.05077z" fill="#a65807" stroke="#000000" stroke-width="0" stroke-linecap="butt"/><path d="M285.98663,75.84563l-15.88719,-35.45522l16.69087,-3.67889l-32.09788,-10.22143l11.84241,-3.18992" fill="none" stroke="#000000" stroke-width="2.5" stroke-linecap="round"/><path d="M267.37237,18.4333c2.27534,0.07683 4.06074,1.89041 3.98779,4.05077c-0.07295,2.16036 -1.97661,3.84938 -4.25195,3.77255c-2.27534,-0.07683 -4.06075,-1.89042 -3.9878,-4.05077c0.07295,-2.16036 1.97662,-3.84938 4.25196,-3.77255z" fill="#a65807" stroke="#000000" stroke-width="0" stroke-linecap="butt"/><path d="M263.73369,292.51059c0,0 -3.55043,-8.23592 -3.41058,-12.37763c0.14394,-4.26291 4.2623,-12.84673 4.2623,-12.84673c0,0 36.84739,6.98442 54.87603,7.59317c18.51893,0.6253 54.80617,-3.88969 54.80617,-3.88969c0,0 2.26771,8.42979 2.12619,12.62088c-0.14239,4.21689 -2.97791,12.6035 -2.97791,12.6035c0,0 -33.32191,1.52421 -50.87776,0.93142c-18.90491,-0.63833 -58.80444,-4.6349 -58.80444,-4.6349z" fill="url(#color-6)" stroke="#000000" stroke-width="0" stroke-linecap="butt"/><path d="M346.83081,108.21591l0.20135,-5.96319c0,0 1.92703,-1.12893 2.93668,-1.09484c1.26205,0.04261 4.04877,1.33071 4.04877,1.33071l-0.20135,5.96319c0,0 -2.54486,1.44921 -3.62969,1.41258c-1.22627,-0.04141 -3.35576,-1.64844 -3.35576,-1.64844z" fill="#000000" stroke="#000000" stroke-width="2.5" stroke-linecap="butt"/><path d="M266.88433,290.93618l-15.50857,-9.96707l16.51301,-8.19627z" fill="url(#color-7)" stroke="#000000" stroke-width="0" stroke-linecap="butt"/><path d="M372.03523,275.51865l15.92254,9.29147l-16.14557,8.89825z" fill="url(#color-8)" stroke="#000000" stroke-width="0" stroke-linecap="butt"/><path d="M280.96279,273.54135l8.57745,17.59655l-18.32175,-3.57926z" fill="url(#color-9)" stroke="#000000" stroke-width="0" stroke-linecap="butt"/><path d="M307.50287,278.03479l18.4331,0.28179l-9.70093,15.67643z" fill="url(#color-10)" stroke="#000000" stroke-width="0" stroke-linecap="butt"/><path d="M355.02772,277.35467l8.67844,14.60566l-18.52482,2.43492z" fill="url(#color-11)" stroke="#000000" stroke-width="0" stroke-linecap="butt"/><path d="M287.16328,276.08509l18.28195,4.75802l-9.62576,13.45038z" fill="url(#color-12)" stroke="#000000" stroke-width="0" stroke-linecap="butt"/><path d="M338.22296,295.09903l-8.69656,-14.06904l18.56127,-3.51399z" fill="url(#color-13)" stroke="#000000" stroke-width="0" stroke-linecap="butt"/><path d="M326.8107,62.46795c0,0 -11.51252,25.33136 -12.61343,34.09852c-1.23804,9.85918 -10.6744,23.05746 -12.3418,29.42344c-2.89979,11.07114 -9.20267,30.26925 -9.20267,30.26925c0,0 -12.16289,-10.88248 -15.45838,-16.93812c-4.09018,-7.51595 -9.78345,-29.52872 -9.78345,-29.52872c0,0 3.78928,-14.2297 10.13321,-23.64039c8.01065,-11.88312 24.16212,-22.93232 32.34113,-22.65615c1.66789,0.05632 2.68024,-1.33522 3.98473,-1.55627c2.9252,-0.49567 5.49225,-0.16211 7.25111,-0.29278c4.3492,-0.3231 5.68955,0.8212 5.68955,0.8212z" fill="url(#color-14)" stroke="#000000" stroke-width="0" stroke-linecap="butt"/><path d="M321.2836,68.6071c0,0 -10.39444,22.87124 -11.38844,30.78696c-1.11781,8.90168 -9.63773,20.81817 -11.14319,26.5659c-2.61818,9.99593 -8.30892,27.32957 -8.30892,27.32957c0,0 -10.98166,-9.8256 -13.95709,-15.29312c-3.69295,-6.78602 -8.8333,-26.66096 -8.8333,-26.66096c0,0 3.42127,-12.84774 9.14909,-21.34448c7.23268,-10.72905 21.81556,-20.70518 29.20023,-20.45583c1.5059,0.05085 2.41994,-1.20554 3.59775,-1.40513c2.64112,-0.44753 4.95885,-0.14636 6.5469,-0.26434c3.92681,-0.29173 5.13699,0.74145 5.13699,0.74145z" fill="url(#color-15)" stroke="#000000" stroke-width="2.5" stroke-linecap="butt"/><path d="M317.03886,73.31936c0,0 -8.12188,17.87083 -8.89855,24.05591c-0.87341,6.95547 -7.53061,16.26663 -8.70693,20.75772c-2.04574,7.81049 -6.49232,21.35442 -6.49232,21.35442c0,0 -8.58071,-7.67739 -10.90562,-11.94954c-2.88556,-5.30237 -6.90205,-20.83199 -6.90205,-20.83199c0,0 2.67328,-10.0388 7.1488,-16.67787c5.65138,-8.38333 17.04595,-16.17834 22.81609,-15.98351c1.17666,0.03973 1.89086,-0.94197 2.81115,-1.09792c2.06369,-0.34968 3.8747,-0.11436 5.11553,-0.20656c3.06829,-0.22795 4.01388,0.57934 4.01388,0.57934z" fill="url(#color-16)" stroke="#000000" stroke-width="2.5" stroke-linecap="butt"/><path d="M313.39973,78.78688c0,0 -5.17608,11.38909 -5.67106,15.33085c-0.55663,4.43273 -4.79926,10.36675 -5.54894,13.22892c-1.30376,4.97764 -5.89795,26.72501 -5.89795,26.72501c0,0 -9.5571,-18.20612 -11.03877,-20.92877c-1.83897,-3.3792 1.45032,-13.07876 1.45032,-13.07876c0,0 1.70368,-6.39774 4.55594,-10.62883c3.60163,-5.3427 10.8634,-10.31047 14.54072,-10.18631c0.74989,0.02532 1.20505,-0.60033 1.79155,-0.69971c1.31519,-0.22285 2.46935,-0.07288 3.26013,-0.13164c1.95542,-0.14527 2.55805,0.36921 2.55805,0.36921z" fill="none" stroke="#000000" stroke-width="2.5" stroke-linecap="butt"/><path d="M346.19381,108.97821l12.40418,1.0408" fill="none" stroke="#000000" stroke-width="2.5" stroke-linecap="round"/><path d="M347.58517,100.00669l7.9053,0.7334" fill="none" stroke="#000000" stroke-width="2.5" stroke-linecap="round"/><path d="M348.79824,96.31585l5.64175,3.30033" fill="none" stroke="#000000" stroke-width="2.5" stroke-linecap="round"/><path d="M349.99074,116.25904l-5.6712,-7.03312" fill="none" stroke="#000000" stroke-width="2.5" stroke-linecap="round"/><path d="M293.49059,154.77908l10.28747,-0.74108l17.62194,3.08288l21.82269,-1.59551l8.77426,2.62864z" fill="none" stroke="#000000" stroke-width="2.5" stroke-linecap="round"/><path d="M306.9898,95.75937c-0.09675,2.8653 -0.67347,6.96026 -1.59076,11.21307c-1.97983,9.17899 -5.54624,19.09331 -9.29783,18.96664c-3.92722,-0.1326 -8.89399,-9.04304 -9.7154,-17.19776c-0.32682,-3.2446 2.33273,-6.04444 2.4197,-8.62023c0.30556,-9.04956 14.3245,-20.58544 19.81428,-20.40007c5.48978,0.18537 -1.32442,6.98878 -1.62998,16.03834z" fill="#000000" stroke="#000000" stroke-width="2.5" stroke-linecap="butt"/><path d="M304.83861,105.04359c-0.5486,4.64037 -4.81852,7.65931 -8.32516,7.24473c-3.50665,-0.41457 -7.16947,-3.93247 -6.62087,-8.57283c0.5486,-4.64037 5.10089,-8.646 8.60753,-8.23143c3.50665,0.41457 6.8871,4.91917 6.3385,9.55953z" fill="url(#color-17)" stroke="none" stroke-width="0" stroke-linecap="butt"/><path d="M303.36331,103.62741c-0.09221,4.75273 -2.76167,8.77848 -5.9624,8.99176c-3.20074,0.21328 -5.7207,-3.46668 -5.62849,-8.2194c0.09221,-4.75273 2.76167,-8.77848 5.9624,-8.99176c3.20074,-0.21328 5.7207,3.46668 5.62849,8.2194z" fill="#000000" stroke="none" stroke-width="0" stroke-linecap="butt"/><path d="M299.65822,103.77482c-0.04871,1.44263 -1.25768,2.57262 -2.70031,2.52391c-1.44263,-0.04871 -2.57262,-1.25768 -2.52391,-2.70031c0.04871,-1.44263 1.25768,-2.57262 2.70031,-2.52391c1.44263,0.04871 2.57262,1.25768 2.52391,2.70031z" fill="url(#color-18)" stroke="none" stroke-width="0" stroke-linecap="butt"/><path d="M359.89554,108.59977c0,1.4054 -1.28474,2.5447 -2.86955,2.5447c-1.58481,0 -2.86955,-1.1393 -2.86955,-2.5447c0,-1.4054 1.28474,-2.5447 2.86955,-2.5447c1.58481,0 2.86955,1.1393 2.86955,2.5447z" fill="#ffffff" stroke="#000000" stroke-width="2.5" stroke-linecap="butt"/></g></g></svg>