<svg version="1.1" xmlns="http://www.w3.org/2000/svg" xmlns:xlink="http://www.w3.org/1999/xlink" width="150.25135" height="322.98374" viewBox="0,0,150.25135,322.98374"><defs><linearGradient x1="400.00506" y1="116.63966" x2="358.81212" y2="114.64368" gradientUnits="userSpaceOnUse" id="color-1"><stop offset="0" stop-color="#ff8600"/><stop offset="1" stop-color="#562e0d"/></linearGradient><linearGradient x1="252.72408" y1="108.06146" x2="293.91701" y2="110.05744" gradientUnits="userSpaceOnUse" id="color-2"><stop offset="0" stop-color="#ff8600"/><stop offset="1" stop-color="#562e0d"/></linearGradient><linearGradient x1="322.17477" y1="153.68348" x2="313.51967" y2="332.3063" gradientUnits="userSpaceOnUse" id="color-3"><stop offset="0" stop-color="#141414"/><stop offset="1" stop-color="#020202"/></linearGradient><linearGradient x1="324.35516" y1="145.58527" x2="322.76336" y2="178.43662" gradientUnits="userSpaceOnUse" id="color-4"><stop offset="0" stop-color="#c46704"/><stop offset="1" stop-color="#ffd300"/></linearGradient><linearGradient x1="328.49589" y1="59.859" x2="323.34464" y2="166.16988" gradientUnits="userSpaceOnUse" id="color-5"><stop offset="0" stop-color="#9c6400"/><stop offset="1" stop-color="#ffd300"/></linearGradient><linearGradient x1="318.04908" y1="267.20688" x2="316.82758" y2="292.41604" gradientUnits="userSpaceOnUse" id="color-6"><stop offset="0" stop-color="#0cb700"/><stop offset="1" stop-color="#012f00"/></linearGradient><linearGradient x1="249.83217" y1="278.03891" x2="265.82825" y2="279.15899" gradientUnits="userSpaceOnUse" id="color-7"><stop offset="0" stop-color="#ffffff"/><stop offset="1" stop-color="#929292"/></linearGradient><linearGradient x1="386.34316" y1="283.88225" x2="370.31371" y2="283.45056" gradientUnits="userSpaceOnUse" id="color-8"><stop offset="0" stop-color="#ffffff"/><stop offset="1" stop-color="#929292"/></linearGradient><linearGradient x1="287.84342" y1="288.76622" x2="274.55053" y2="277.98221" gradientUnits="userSpaceOnUse" id="color-9"><stop offset="0" stop-color="#ffffff"/><stop offset="1" stop-color="#929292"/></linearGradient><linearGradient x1="324.42325" y1="276.47996" x2="310.24487" y2="283.97021" gradientUnits="userSpaceOnUse" id="color-10"><stop offset="0" stop-color="#ffffff"/><stop offset="1" stop-color="#929292"/></linearGradient><linearGradient x1="361.98931" y1="290.67609" x2="348.47837" y2="284.39193" gradientUnits="userSpaceOnUse" id="color-11"><stop offset="0" stop-color="#ffffff"/><stop offset="1" stop-color="#929292"/></linearGradient><linearGradient x1="303.89767" y1="278.70576" x2="289.88158" y2="282.84684" gradientUnits="userSpaceOnUse" id="color-12"><stop offset="0" stop-color="#ffffff"/><stop offset="1" stop-color="#929292"/></linearGradient><linearGradient x1="327.97351" y1="279.24572" x2="341.52356" y2="284.72254" gradientUnits="userSpaceOnUse" id="color-13"><stop offset="0" stop-color="#ffffff"/><stop offset="1" stop-color="#929292"/></linearGradient><radialGradient cx="290.44463" cy="106.55937" r="42.50334" gradientUnits="userSpaceOnUse" id="color-14"><stop offset="0" stop-color="#603201"/><stop offset="1" stop-color="#321902"/></radialGradient><radialGradient cx="294.74082" cy="107.91374" r="43.17404" gradientUnits="userSpaceOnUse" id="color-15"><stop offset="0" stop-color="#000000"/><stop offset="1" stop-color="#ffffff" stop-opacity="0.01569"/></radialGradient><radialGradient cx="296.57227" cy="103.55798" r="33.73477" gradientUnits="userSpaceOnUse" id="color-16"><stop offset="0" stop-color="#000000" stop-opacity="0.22745"/><stop offset="1" stop-color="#000000"/></radialGradient><radialGradient cx="298.43135" cy="101.6476" r="8.4479" gradientUnits="userSpaceOnUse" id="color-17"><stop offset="0" stop-color="#ffffff"/><stop offset="1" stop-color="#5a5a5a"/></radialGradient><radialGradient cx="298.62171" cy="101.9853" r="2.6136" gradientUnits="userSpaceOnUse" id="color-18"><stop offset="0" stop-color="#ffffff"/><stop offset="1" stop-color="#5a5a5a"/></radialGradient></defs><g transform="translate(-249.83216,-11.80501)"><g stroke-miterlimit="10"><path d="M358.83045,114.26608c0.95752,-19.14688 13.33506,-33.74419 23.85635,-33.21801c10.5213,0.52616 18.27426,16.47429 17.31675,35.62114c-0.95753,19.14686 -10.26296,34.24188 -20.78425,33.71572c-10.52129,-0.52618 -21.34635,-16.97204 -20.38882,-36.1189z" fill="url(#color-1)" stroke="#000000" stroke-width="0" stroke-linecap="butt"/><path d="M293.93523,109.67981c-0.89813,19.14973 -13.2625,34.47196 -23.78537,33.97845c-10.52286,-0.49354 -18.32528,-16.41751 -17.42716,-35.56725c0.89813,-19.14973 10.15668,-34.27358 20.67956,-33.78005c10.52286,0.49352 21.43112,16.21913 20.533,35.36888z" fill="url(#color-2)" stroke="#000000" stroke-width="0" stroke-linecap="butt"/><path d="M264.68147,326.29697l4.90954,-147.21069c0,0 8.14558,-25.33367 18.38364,-25.2433c10.16724,0.08976 34.24728,0.69926 55.29737,0.88508c22.8313,0.20154 28.62987,27.3924 28.62987,27.3924l-7.14963,152.66829z" fill="url(#color-3)" stroke="#000000" stroke-width="0" stroke-linecap="butt"/><path d="M346.35907,163.1157c-0.43956,9.07165 -11.00371,15.93105 -23.5957,15.32091c-12.59199,-0.61014 -22.44347,-8.45878 -22.0039,-17.53042c0.43956,-9.07165 11.00371,-15.93105 23.5957,-15.32091c12.59199,0.61014 22.44347,8.45878 22.0039,17.53042z" fill="url(#color-4)" stroke="#000000" stroke-width="0" stroke-linecap="butt"/><path d="M380.39897,117.88145c-3.31753,28.36083 -30.45738,51.5149 -60.50514,48.00003c-30.04776,-3.51485 -51.62497,-32.36763 -48.30743,-60.72846c3.31753,-28.36082 30.36546,-48.50248 60.41322,-44.9876c30.04776,3.51485 51.71691,29.35521 48.39937,57.71603z" fill="url(#color-5)" stroke="#000000" stroke-width="0" stroke-linecap="butt"/><path d="M341.4226,105.50878c-0.1311,2.70567 -6.88202,4.57708 -15.07859,4.17991c-8.19659,-0.39716 -14.73493,-2.9125 -14.60383,-5.61817c0.1311,-2.70567 6.88202,-4.57708 15.07859,-4.17991c8.19659,0.39716 14.73493,2.9125 14.60383,5.61817z" fill-opacity="0.18431" fill="#ff0505" stroke="none" stroke-width="0" stroke-linecap="butt"/><path d="M343.3134,200.98738l3.21723,-15.71567l6.02174,16.90732l-15.50049,-13.15074l21.5968,-0.44149z" fill="none" stroke-opacity="0.67059" stroke="#ffffff" stroke-width="2.5" stroke-linecap="round"/><path d="M290.18508,181.46829c10.63375,-5.78232 21.37998,7.03603 9.9986,14.26089c-5.08024,3.22491 -14.06532,0.78896 -16.34489,-4.82615c-2.455,-6.04722 4.60118,-11.28937 9.94427,-9.67514" fill="none" stroke-opacity="0.67059" stroke="#ffffff" stroke-width="2.5" stroke-linecap="round"/><path d="M302.16879,189.81801c2.36881,0.11507 8.14335,-0.47144 9.48602,2.14836c2.51604,4.90929 -6.59987,8.75105 -9.91755,8.99041c-6.51846,0.47026 -14.71074,-0.39226 -20.42498,-3.49065c-4.63631,-2.5139 -4.56587,-7.888 1.38849,-7.59949" fill="none" stroke-opacity="0.67059" stroke="#ffffff" stroke-width="2.5" stroke-linecap="round"/><path d="M282.12179,232.8191c1.31081,-9.84364 0.39985,-22.35466 3.99807,-31.62709" fill="none" stroke-opacity="0.67059" stroke="#ffffff" stroke-width="2.5" stroke-linecap="round"/><path d="M302.94392,202.00721c2.1626,10.86004 2.15625,21.7733 4.1,32.57549" fill="none" stroke-opacity="0.67059" stroke="#ffffff" stroke-width="2.5" stroke-linecap="round"/><path d="M291.32318,206.40398c-0.01613,0.33294 -0.03227,0.66589 -0.0484,0.99883" fill="none" stroke-opacity="0.67059" stroke="#ffffff" stroke-width="2.5" stroke-linecap="round"/><path d="M297.06161,205.69007c-0.03226,0.66589 -0.06452,1.33177 -0.09679,1.99766" fill="none" stroke-opacity="0.67059" stroke="#ffffff" stroke-width="2.5" stroke-linecap="round"/><path d="M299.19253,212.84206c-0.13918,1.92784 -0.56055,6.39025 -2.83667,7.19741c-4.40035,1.56046 -7.77163,-3.17158 -7.59505,-6.81583" fill="none" stroke-opacity="0.67059" stroke="#ffffff" stroke-width="2.5" stroke-linecap="round"/><path d="M379.80832,22.07178l12.14379,1.71661l-30.60565,14.07288l17.01563,1.60853l-11.42859,37.13304" fill="none" stroke="#000000" stroke-width="2.5" stroke-linecap="round"/><path d="M383.06317,20.56781c0.33679,2.13519 -1.21323,4.15365 -3.46207,4.50837c-2.24883,0.35471 -4.34491,-1.08864 -4.6817,-3.22382c-0.33679,-2.13519 1.21323,-4.15366 3.46207,-4.50837c2.24883,-0.35471 4.3449,1.08864 4.68169,3.22382z" fill="#a65807" stroke="#000000" stroke-width="0" stroke-linecap="butt"/><path d="M286.48525,72.26556l-6.18759,-38.35609l17.07468,0.75827l-28.3673,-18.1672l12.26449,-0.02201" fill="none" stroke="#000000" stroke-width="2.5" stroke-linecap="round"/><path d="M283.33602,11.99328c2.17825,0.66208 3.43447,2.87537 2.80584,4.94353c-0.62862,2.06816 -2.90402,3.208 -5.08227,2.54593c-2.17825,-0.66207 -3.43448,-2.87537 -2.80585,-4.94353c0.62862,-2.06816 2.90403,-3.20801 5.08228,-2.54594z" fill="#a65807" stroke="#000000" stroke-width="0" stroke-linecap="butt"/><path d="M262.01952,289.76034c0,0 -3.42928,-8.2871 -3.22871,-12.42631c0.20643,-4.26034 4.45022,-12.78285 4.45022,-12.78285c0,0 36.74101,7.52398 54.75879,8.39703c18.50777,0.89679 54.85731,-3.08562 54.85731,-3.08562c0,0 2.14386,8.46214 1.94089,12.6507c-0.20421,4.21435 -3.1624,12.55848 -3.1624,12.55848c0,0 -33.34068,1.03543 -50.88595,0.18527c-18.89352,-0.91547 -58.73015,-5.49668 -58.73015,-5.49668z" fill="url(#color-6)" stroke="#000000" stroke-width="0" stroke-linecap="butt"/><path d="M347.84264,104.48601l0.40638,-13.97963c0,0 1.96564,-2.61888 2.97401,-2.52414c1.26045,0.11842 4.00258,3.17964 4.00258,3.17964l-0.40638,13.97963c0,0 -2.59442,3.36081 -3.67787,3.25902c-1.22471,-0.11508 -3.29871,-3.91449 -3.29871,-3.91449z" fill="#000000" stroke="#000000" stroke-width="2.5" stroke-linecap="butt"/><path d="M265.19291,288.2323l-15.36075,-10.19341l16.63142,-7.95325z" fill="url(#color-7)" stroke="#000000" stroke-width="0" stroke-linecap="butt"/><path d="M370.55858,274.35831l15.78458,9.52395l-16.27431,8.66054z" fill="url(#color-8)" stroke="#000000" stroke-width="0" stroke-linecap="butt"/><path d="M279.52493,271.04578l8.3185,17.72043l-18.2673,-3.84754z" fill="url(#color-9)" stroke="#000000" stroke-width="0" stroke-linecap="butt"/><path d="M305.99626,275.92791l18.42699,0.55205l-9.92976,15.53249z" fill="url(#color-10)" stroke="#000000" stroke-width="0" stroke-linecap="butt"/><path d="M353.52598,275.94475l8.46334,14.73135l-18.55853,2.16302z" fill="url(#color-11)" stroke="#000000" stroke-width="0" stroke-linecap="butt"/><path d="M285.68745,273.68017l18.21022,5.02559l-9.82195,13.30779z" fill="url(#color-12)" stroke="#000000" stroke-width="0" stroke-linecap="butt"/><path d="M336.46283,293.44078l-8.48932,-14.19505l18.6108,-3.24144z" fill="url(#color-13)" stroke="#000000" stroke-width="0" stroke-linecap="butt"/><path d="M328.46299,60.66737c0,0 -11.88273,25.15982 -13.11208,33.9099c-1.38248,9.83997 -11.01136,22.89846 -12.77192,29.2393c-3.06182,11.02743 -9.64553,30.13105 -9.64553,30.13105c0,0 -12.00201,-11.05966 -15.20835,-17.16297c-3.97953,-7.57512 -9.3494,-29.669 -9.3494,-29.669c0,0 3.99753,-14.17261 10.47877,-23.48926c8.18404,-11.76438 24.49579,-22.57555 32.66987,-22.17948c1.66688,0.08077 2.69953,-1.29577 4.00712,-1.49767c2.93215,-0.45272 5.49404,-0.08156 7.25462,-0.18642c4.35347,-0.25929 5.6769,0.90454 5.6769,0.90454z" fill="url(#color-14)" stroke="#000000" stroke-width="0" stroke-linecap="butt"/><path d="M322.84646,66.72481c0,0 -10.7287,22.71636 -11.83866,30.61666c-1.24822,8.88433 -9.94196,20.67461 -11.53154,26.39965c-2.76447,9.95646 -8.70877,27.20479 -8.70877,27.20479c0,0 -10.8364,-9.98557 -13.73134,-15.49614c-3.59305,-6.83944 -8.44141,-26.78762 -8.44141,-26.78762c0,0 3.6093,-12.79619 9.46109,-21.20803c7.38923,-10.62184 22.11683,-20.38306 29.49704,-20.02545c1.50499,0.07293 2.43736,-1.16993 3.61797,-1.35222c2.6474,-0.40875 4.96046,-0.07363 6.55007,-0.16831c3.93067,-0.23412 5.12557,0.8167 5.12557,0.8167z" fill="url(#color-15)" stroke="#000000" stroke-width="2.5" stroke-linecap="butt"/><path d="M318.53308,71.37432c0,0 -8.38306,17.74981 -9.25034,23.92284c-0.97531,6.94191 -7.76833,16.15446 -9.01037,20.62781c-2.16005,7.77965 -6.80475,21.25692 -6.80475,21.25692c0,0 -8.46721,-7.80239 -10.72923,-12.10817c-2.8075,-5.34411 -6.59584,-20.93096 -6.59584,-20.93096c0,0 2.8202,-9.99852 7.39259,-16.57125c5.7737,-8.29956 17.28135,-15.92665 23.04801,-15.64723c1.17595,0.05698 1.90447,-0.91414 2.82695,-1.05658c2.0686,-0.31938 3.87596,-0.05753 5.11801,-0.13153c3.0713,-0.18293 4.00495,0.63814 4.00495,0.63814z" fill="url(#color-16)" stroke="#000000" stroke-width="2.5" stroke-linecap="butt"/><path d="M314.81416,76.78789c0,0 -5.34253,11.31197 -5.89525,15.24604c-0.62157,4.42409 -4.95076,10.29526 -5.74233,13.14613c-1.37661,4.95799 -6.2892,26.63565 -6.2892,26.63565c0,0 -9.28911,-18.3443 -10.73069,-21.08839c-1.78922,-3.4058 1.64194,-13.05609 1.64194,-13.05609c0,0 1.79731,-6.37207 4.71131,-10.56088c3.67959,-5.28931 11.01342,-10.15007 14.68852,-9.972c0.74944,0.03631 1.21372,-0.5826 1.80162,-0.67336c1.31832,-0.20354 2.47015,-0.03666 3.26171,-0.08382c1.95734,-0.11658 2.55236,0.40668 2.55236,0.40668z" fill="none" stroke="#000000" stroke-width="2.5" stroke-linecap="butt"/><path d="M359.54959,108.67943l-12.38758,-1.22258" fill="none" stroke="#000000" stroke-width="2.5" stroke-linecap="round"/><path d="M348.8279,88.74712l7.8937,0.84924" fill="none" stroke="#000000" stroke-width="2.5" stroke-linecap="round"/><path d="M350.64552,83.84014l5.59275,3.3827" fill="none" stroke="#000000" stroke-width="2.5" stroke-linecap="round"/><path d="M345.28431,107.67705l5.56746,7.11552" fill="none" stroke="#000000" stroke-width="2.5" stroke-linecap="round"/><path d="M308.15605,93.66456c-0.13875,2.86357 -0.77546,6.94964 -1.75501,11.18854c-2.11421,9.14897 -5.82562,19.00993 -9.57495,18.82826c-3.92485,-0.19017 -8.76043,-9.17248 -9.46218,-17.33837c-0.27921,-3.24904 2.42111,-6.00958 2.54584,-8.58382c0.43823,-9.04411 14.62481,-20.37318 20.11129,-20.10733c5.48647,0.26585 -1.42676,6.96861 -1.86498,16.01271z" fill="#000000" stroke="#000000" stroke-width="2.5" stroke-linecap="butt"/><path d="M305.86895,102.91624c-0.61659,4.63183 -4.93031,7.58783 -8.4305,7.12187c-3.50019,-0.46595 -7.11104,-4.03718 -6.49445,-8.66899c0.61659,-4.63183 5.22712,-8.57027 8.72731,-8.10433c3.50019,0.46595 6.81423,5.01963 6.19764,9.65145z" fill="url(#color-17)" stroke="none" stroke-width="0" stroke-linecap="butt"/><path d="M302.63367,101.94014c-0.11482,3.3694 -2.0497,6.19646 -4.3217,6.31442c-2.27199,0.11796 -4.02073,-2.51786 -3.90592,-5.88725c0.11482,-3.3694 2.0497,-6.19647 4.3217,-6.31443c2.27199,-0.11796 4.02073,2.51787 3.90592,5.88726z" fill="#000000" stroke="none" stroke-width="0" stroke-linecap="butt"/><path d="M301.23226,102.1118c-0.06986,1.44176 -1.29527,2.5539 -2.73703,2.48404c-1.44176,-0.06986 -2.5539,-1.29527 -2.48404,-2.73703c0.06986,-1.44176 1.29527,-2.5539 2.73703,-2.48404c1.44176,0.06986 2.5539,1.29527 2.48404,2.73703z" fill="url(#color-18)" stroke="none" stroke-width="0" stroke-linecap="butt"/><path d="M359.83436,105.13439c-0.02061,1.40525 -1.32192,2.52559 -2.90656,2.50235c-1.58464,-0.02324 -2.85254,-1.18126 -2.83193,-2.5865c0.02061,-1.40525 1.32192,-2.52559 2.90656,-2.50235c1.58464,0.02324 2.85254,1.18126 2.83193,2.5865z" fill="#ffffff" stroke="#000000" stroke-width="2.5" stroke-linecap="butt"/><path d="M298.71488,155.89988l7.7182,-17.99029l10.23467,4.05476l9.10965,-3.94857l10.76181,4.41746l11.62773,-6.21895l2.70432,21.33787l-24.25249,7.80865z" fill="#ffffff" stroke="#000000" stroke-width="2.5" stroke-linecap="round"/></g></g></svg>