<svg version="1.1" xmlns="http://www.w3.org/2000/svg" xmlns:xlink="http://www.w3.org/1999/xlink" width="167.51695" height="347.19304" viewBox="0,0,167.51695,347.19304"><defs><linearGradient x1="324.31279" y1="232.08593" x2="326.90108" y2="304.87793" gradientUnits="userSpaceOnUse" id="color-1"><stop offset="0" stop-color="#545454"/><stop offset="1" stop-color="#2f2f2f"/></linearGradient><linearGradient x1="328.36247" y1="198.86522" x2="330.95076" y2="271.65726" gradientUnits="userSpaceOnUse" id="color-2"><stop offset="0" stop-color="#545454"/><stop offset="1" stop-color="#2f2f2f"/></linearGradient><linearGradient x1="323.41689" y1="168.24184" x2="326.00518" y2="241.0339" gradientUnits="userSpaceOnUse" id="color-3"><stop offset="0" stop-color="#545454"/><stop offset="1" stop-color="#2f2f2f"/></linearGradient><linearGradient x1="323.52787" y1="171.53766" x2="329.88265" y2="350.25709" gradientUnits="userSpaceOnUse" id="color-4"><stop offset="0" stop-color="#4e2710"/><stop offset="1" stop-color="#3a1a09"/></linearGradient><linearGradient x1="324.94741" y1="171.5253" x2="325.86471" y2="197.32307" gradientUnits="userSpaceOnUse" id="color-5"><stop offset="0" stop-color="#e07130"/><stop offset="1" stop-color="#c2551f"/></linearGradient><linearGradient x1="297.50452" y1="201.76465" x2="298.47147" y2="228.95897" gradientUnits="userSpaceOnUse" id="color-6"><stop offset="0" stop-color="#4e2710"/><stop offset="1" stop-color="#3a1a09"/></linearGradient><linearGradient x1="377.80652" y1="146.99947" x2="367.83575" y2="197.6156" gradientUnits="userSpaceOnUse" id="color-7"><stop offset="0" stop-color="#e07130"/><stop offset="1" stop-color="#c2551f"/></linearGradient><linearGradient x1="377.27743" y1="129.64808" x2="379.11063" y2="181.20434" gradientUnits="userSpaceOnUse" id="color-8"><stop offset="0" stop-color="#e07130"/><stop offset="1" stop-color="#c2551f"/></linearGradient><linearGradient x1="267.49069" y1="150.86146" x2="281.03129" y2="200.64158" gradientUnits="userSpaceOnUse" id="color-9"><stop offset="0" stop-color="#e07130"/><stop offset="1" stop-color="#c2551f"/></linearGradient><linearGradient x1="269.3463" y1="129.52204" x2="271.1795" y2="181.07828" gradientUnits="userSpaceOnUse" id="color-10"><stop offset="0" stop-color="#e07130"/><stop offset="1" stop-color="#c2551f"/></linearGradient><linearGradient x1="318.96978" y1="75.82613" x2="322.75195" y2="182.19454" gradientUnits="userSpaceOnUse" id="color-11"><stop offset="0" stop-color="#e07130"/><stop offset="1" stop-color="#c2551f"/></linearGradient><linearGradient x1="299.85708" y1="9.58754" x2="314.63172" y2="94.15416" gradientUnits="userSpaceOnUse" id="color-12"><stop offset="0" stop-color="#a1a1a1"/><stop offset="1" stop-color="#767676"/></linearGradient><linearGradient x1="320.57772" y1="163.23529" x2="321.33147" y2="184.43325" gradientUnits="userSpaceOnUse" id="color-13"><stop offset="0" stop-color="#f05016"/><stop offset="1" stop-color="#be4c22"/></linearGradient></defs><g transform="translate(-241.57625,-2.57491)"><g stroke-miterlimit="10"><g stroke="#000000" stroke-width="2.5"><path d="M397.974,293.04645l-72.77978,11.8922l-70.0269,-6.81438c0,0 29.7105,-64.63615 69.14547,-66.03835c39.43498,-1.4022 73.66121,60.96053 73.66121,60.96053z" fill="url(#color-1)" stroke-linecap="butt"/><path d="M265.84889,293.94604l57.52775,-19.2429l62.26743,12.52654" fill="none" stroke-linecap="round"/><path d="M295.73957,296.97783l29.41082,-10.46338l36.3166,6.07897" fill="none" stroke-linecap="round"/></g><g stroke="#000000" stroke-width="2.5"><path d="M402.02369,259.82571l-72.77978,11.8922l-70.0269,-6.81438c0,0 29.7105,-64.63615 69.14547,-66.03835c39.43498,-1.4022 73.66121,60.96053 73.66121,60.96053z" fill="url(#color-2)" stroke-linecap="butt"/><path d="M269.89858,260.72534l57.52775,-19.2429l62.26743,12.52654" fill="none" stroke-linecap="round"/><path d="M299.78925,263.7571l29.41082,-10.46338l36.3166,6.07898" fill="none" stroke-linecap="round"/></g><g stroke="#000000" stroke-width="2.5"><path d="M397.0781,229.20237l-72.77977,11.8922l-70.02691,-6.81438c0,0 29.7105,-64.63615 69.14548,-66.03835c39.43498,-1.4022 73.6612,60.96053 73.6612,60.96053z" fill="url(#color-3)" stroke-linecap="butt"/><path d="M264.95299,230.10197l57.52776,-19.24289l62.26743,12.52654" fill="none" stroke-linecap="round"/><path d="M294.84366,233.13377l29.41082,-10.46337l36.3166,6.07898" fill="none" stroke-linecap="round"/></g><path d="M282.8772,348.28755l-7.35494,-147.10734c0,0 5.68758,-25.91669 15.44588,-26.66915c9.69079,-0.74725 32.67484,-2.12149 52.73849,-3.6686c21.76139,-1.67803 29.50623,24.94193 29.50623,24.94193l5.66746,152.73048z" fill="url(#color-4)" stroke="#000000" stroke-width="2.5" stroke-linecap="butt"/><path d="M344.32443,183.7515c0.25331,7.12386 -8.01139,13.20006 -18.45971,13.57157c-10.44833,0.37151 -19.12371,-5.10234 -19.37701,-12.2262c-0.25331,-7.12386 8.01139,-13.20006 18.45971,-13.57157c10.44833,-0.37151 19.12371,5.10234 19.37701,12.2262z" fill="url(#color-5)" stroke="#000000" stroke-width="2.5" stroke-linecap="butt"/><path d="M311.67014,214.87531c0.26702,7.50949 -5.64222,13.81497 -13.19866,14.08366c-7.55643,0.26869 -13.89859,-5.60115 -14.16561,-13.11066c-0.26702,-7.50949 5.64222,-13.81497 13.19866,-14.08366c7.55643,-0.26869 13.89859,5.60115 14.16561,13.11066z" fill="url(#color-6)" stroke="#ffffff" stroke-width="2.5" stroke-linecap="butt"/><path d="M294.02539,211.27508l-1.00282,1.78022" fill="none" stroke="#ffffff" stroke-width="2.5" stroke-linecap="round"/><path d="M301.48224,211.10686l0.63929,1.62491" fill="none" stroke="#ffffff" stroke-width="2.5" stroke-linecap="round"/><path d="M306.10658,218.50217l-2.70043,3.10054l-11.22851,0.39926l-2.04953,-3.12548" fill="none" stroke="#ffffff" stroke-width="2.5" stroke-linecap="round"/><path d="M344.64587,11.04407c0,0 -3.46351,1.62057 -13.3046,2.42432c-3.43119,0.28023 -14.33622,1.31301 -16.92658,1.38134c-4.18716,0.11044 -10.9593,-0.59719 -16.39352,-0.85226c-7.33346,-0.3442 -12.95824,-1.38192 -12.95824,-1.38192" fill="none" stroke="#000000" stroke-width="2.5" stroke-linecap="round"/><path d="M362.18008,143.92127c0,0 12.42087,11.20185 16.94662,19.82105c5.53452,10.54037 13.84725,38.82521 13.84725,38.82521c0,0 -15.81522,-20.53054 -24.06415,-25.25683c-7.27078,-4.16583 -22.86636,-1.63231 -22.86636,-1.63231z" fill="url(#color-7)" stroke="#000000" stroke-width="2.5" stroke-linecap="round"/><path d="M361.36074,130.21404c0,0 14.64787,8.0746 21.01973,15.43481c7.7921,9.00073 22.33527,34.64504 22.33527,34.64504c0,0 -20.0799,-16.38358 -29.1892,-19.10446c-8.02913,-2.39824 -22.6362,3.6246 -22.6362,3.6246z" fill="url(#color-8)" stroke="#000000" stroke-width="2.5" stroke-linecap="round"/><path d="M301.21047,177.21199c0,0 -15.73613,-1.41945 -22.69267,3.25227c-7.89241,5.30022 -22.20951,26.90218 -22.20951,26.90218c0,0 6.28282,-28.80382 11.05473,-39.71066c3.90214,-8.91887 15.49604,-20.97463 15.49604,-20.97463z" fill="url(#color-9)" stroke="#000000" stroke-width="2.5" stroke-linecap="round"/><path d="M296.16944,162.86707c0,0 -14.99795,-4.97017 -22.83647,-2.00772c-8.89304,3.361 -27.75859,21.12937 -27.75859,21.12937c0,0 12.68506,-26.61248 19.81821,-36.14391c5.83301,-7.79417 19.87039,-16.88874 19.87039,-16.88874z" fill="url(#color-10)" stroke="#000000" stroke-width="2.5" stroke-linecap="round"/><path d="M354.70736,82.77964l8.71756,8.5323l-14.40596,58.41128l-59.00035,0.87823l-17.35839,-54.26752l8.58954,-10.6421" fill="none" stroke="#000000" stroke-width="2.5" stroke-linecap="round"/><path d="M375.55581,129.29155c-0.92749,28.53914 -26.03003,53.88761 -56.26671,52.90494c-30.23667,-0.98266 -54.15748,-27.92433 -53.22999,-56.46346c0.92749,-28.53913 26.19106,-50.87809 56.42773,-49.89541c30.23667,0.98266 53.99648,24.9148 53.06898,53.45393z" fill="url(#color-11)" stroke="#000000" stroke-width="2.5" stroke-linecap="butt"/><path d="M277.77538,100.03824l-10.91005,-84.68671c0,0 6.55131,-3.19598 15.33471,-5.45745c5.52517,-1.42257 12.62581,-3.31311 16.86363,-4.0535c4.20145,-0.73404 12.10257,-0.9187 17.76387,-1.45846c9.18722,-0.87592 16.02128,-0.55856 16.02128,-0.55856l18.04053,82.60831c0,0 -3.77314,5.29911 -13.32253,10.28798c-5.22695,2.7307 -15.70392,5.98333 -20.06151,6.79427c-5.36186,0.99783 -16.32689,1.77032 -24.06452,0.82045c-9.64653,-1.18421 -15.66542,-4.29631 -15.66542,-4.29631z" fill="url(#color-12)" stroke="#000000" stroke-width="2.5" stroke-linecap="butt"/><path d="M334.80978,172.71989c0.22033,6.19658 -5.81411,11.44084 -13.47831,11.71336c-7.66421,0.27252 -14.05589,-4.5299 -14.27622,-10.72648c-0.14685,-4.12995 2.48472,-7.83686 6.52542,-9.93077c2.02197,-1.04779 4.68464,0.86024 7.24073,0.76935c2.52483,-0.08978 4.62375,-2.18072 6.69724,-1.30057c4.22064,1.79157 7.14339,5.31988 7.29114,9.47511z" fill="url(#color-13)" stroke="#000000" stroke-width="2.5" stroke-linecap="butt"/><path d="M291.98171,169.31546c0,0 5.46634,-1.57495 8.59809,-2.47727c3.77181,-1.08673 12.47172,-3.59333 12.47172,-3.59333" fill="none" stroke="#000000" stroke-width="2.5" stroke-linecap="round"/><path d="M352.42579,167.56044l-25.17374,-4.03213" fill="none" stroke="#000000" stroke-width="2.5" stroke-linecap="round"/><path d="M320.44869,164.10476l0.28559,12.00811" fill="none" stroke="#000000" stroke-width="2.5" stroke-linecap="round"/><path d="M335.36473,123.45832c0.09626,2.70713 -6.47394,5.13809 -14.67494,5.42969c-8.20102,0.29161 -14.92727,-1.66656 -15.02353,-4.37369c-0.09626,-2.70713 6.47394,-5.13809 14.67494,-5.42969c8.20102,-0.29161 14.92727,1.66656 15.02353,4.37369z" fill-opacity="0.18431" fill="#000000" stroke="none" stroke-width="0" stroke-linecap="butt"/><path d="M298.29282,120.74033c0.07942,2.23345 -1.84342,4.11468 -4.29477,4.20185c-2.45135,0.08716 -4.50294,-1.65275 -4.58236,-3.8862c-0.07942,-2.23346 1.84342,-4.11469 4.29477,-4.20186c2.45135,-0.08716 4.50294,1.65275 4.58236,3.88621z" fill="#ffffff" stroke="#000000" stroke-width="2.5" stroke-linecap="butt"/><path d="M350.42539,118.55678c0.07942,2.23346 -1.84342,4.11468 -4.29477,4.20185c-2.45135,0.08716 -4.50294,-1.65275 -4.58236,-3.8862c-0.07942,-2.23345 1.84342,-4.11468 4.29477,-4.20185c2.45135,-0.08716 4.50294,1.65275 4.58236,3.8862z" fill="#ffffff" stroke="#000000" stroke-width="2.5" stroke-linecap="butt"/><path d="M346.43933,211.38221c-1.58582,-0.70259 2.02351,-3.57361 2.86655,-4.91107c2.22481,-3.5296 7.2891,-7.31211 11.74245,-4.8531c4.49799,2.48364 5.82406,16.06985 7.21961,21.01515c0.9081,3.21796 -1.35182,8.62366 -1.98442,11.78567c-0.67404,3.36909 -0.47526,7.65377 -2.61061,10.60163c-1.84789,2.55102 -4.74997,4.94132 -7.16952,6.65413c-3.42194,2.42239 -5.96607,6.56262 -9.77839,8.42711c-5.5194,2.69937 -15.57903,0.92422 -21.02471,-1.8895c-6.73646,-3.48066 -12.26088,-10.78421 -9.23096,-18.47017c0.83731,-2.124 3.98906,-2.86376 4.72486,-4.85375c0.94891,-2.56636 -2.04232,-5.9238 1.55815,-9.35848c1.18405,-1.12952 4.2908,-1.51485 5.23997,-2.79092c2.109,-2.83532 -0.44384,-8.67011 1.36348,-11.86015c2.22551,-3.92816 14.84467,-1.59625 17.97645,0.41538z" fill="#d7692b" stroke="#000000" stroke-width="2.5" stroke-linecap="round"/><path d="M300.02176,221.13878c2.981,-2.22899 15.40267,-5.45128 17.90155,-1.69111c2.02934,3.05362 -0.10264,9.055 2.2024,11.73337c1.03741,1.20544 4.16368,1.36913 5.42497,2.4117c3.83534,3.17028 1.09012,6.73169 2.2189,9.22418c0.87528,1.93271 4.07161,2.44674 5.05766,4.50591c3.56816,7.45135 -1.42358,15.12883 -7.89581,19.07916c-5.23209,3.1934 -15.14024,5.67853 -20.83741,3.378c-3.93512,-1.58901 -6.76688,-5.53808 -10.35223,-7.71131c-2.5351,-1.53663 -5.59963,-3.71478 -7.62403,-6.12811c-2.33934,-2.78875 -2.44539,-7.07673 -3.35701,-10.38944c-0.85559,-3.10909 -3.49374,-8.34062 -2.81648,-11.61496c1.04079,-5.03193 1.39856,-18.67801 5.70879,-21.47485c4.26746,-2.76909 9.58762,0.64417 12.05749,4.00684c0.93591,1.27421 4.74002,3.88162 3.20811,4.69507z" fill="#d7692b" stroke="#000000" stroke-width="2.5" stroke-linecap="round"/></g></g></svg>