<svg version="1.1" xmlns="http://www.w3.org/2000/svg" xmlns:xlink="http://www.w3.org/1999/xlink" width="193.68513" height="309.77469" viewBox="0,0,193.68513,309.77469"><defs><linearGradient x1="310.22" y1="185.21221" x2="330.80881" y2="362.86768" gradientUnits="userSpaceOnUse" id="color-1"><stop offset="0" stop-color="#060606"/><stop offset="1" stop-color="#212121"/></linearGradient><linearGradient x1="274.24199" y1="180.61998" x2="295.775" y2="366.42264" gradientUnits="userSpaceOnUse" id="color-2"><stop offset="0" stop-color="#2e65d1"/><stop offset="1" stop-color="#002994"/></linearGradient><linearGradient x1="343.30157" y1="173.57191" x2="364.8346" y2="359.37461" gradientUnits="userSpaceOnUse" id="color-3"><stop offset="0" stop-color="#2d63d1"/><stop offset="1" stop-color="#002994"/></linearGradient><linearGradient x1="310.48722" y1="184.73179" x2="313.07805" y2="207.08737" gradientUnits="userSpaceOnUse" id="color-4"><stop offset="0" stop-color="#222222"/><stop offset="1" stop-color="#bebebe"/></linearGradient><linearGradient x1="260.36967" y1="100.53249" x2="311.47873" y2="193.8942" gradientUnits="userSpaceOnUse" id="color-5"><stop offset="0" stop-color="#1e1e1e"/><stop offset="1" stop-color="#bebebe"/></linearGradient><radialGradient cx="261.29952" cy="111.35081" r="82.17255" gradientUnits="userSpaceOnUse" id="color-6"><stop offset="0" stop-color="#717171"/><stop offset="1" stop-color="#4b4b4b"/></radialGradient><linearGradient x1="274.66974" y1="39.29747" x2="282.74893" y2="57.27368" gradientUnits="userSpaceOnUse" id="color-7"><stop offset="0" stop-color="#000000" stop-opacity="0.19216"/><stop offset="1" stop-color="#a9a9a9" stop-opacity="0.21961"/></linearGradient><linearGradient x1="278.24984" y1="45.5472" x2="284.32042" y2="59.05428" gradientUnits="userSpaceOnUse" id="color-8"><stop offset="0" stop-color="#000000" stop-opacity="0.19216"/><stop offset="1" stop-color="#a9a9a9" stop-opacity="0.21961"/></linearGradient><linearGradient x1="223.18383" y1="96.95352" x2="237.00561" y2="132.26377" gradientUnits="userSpaceOnUse" id="color-9"><stop offset="0" stop-color="#000000" stop-opacity="0.19216"/><stop offset="1" stop-color="#a9a9a9" stop-opacity="0.21961"/></linearGradient><linearGradient x1="260.1463" y1="84.9967" x2="273.118" y2="111.87189" gradientUnits="userSpaceOnUse" id="color-10"><stop offset="0" stop-color="#000000" stop-opacity="0.19216"/><stop offset="1" stop-color="#a9a9a9" stop-opacity="0.21961"/></linearGradient><linearGradient x1="242.04774" y1="72.6792" x2="263.66926" y2="110.41596" gradientUnits="userSpaceOnUse" id="color-11"><stop offset="0" stop-color="#696969"/><stop offset="1" stop-color="#212121"/></linearGradient></defs><g transform="translate(-190.21013,-59.72367)"><g stroke-miterlimit="10"><path d="M287.23953,364.25405l-18.89678,-146.07154c0,0 3.08445,-26.22768 11.98448,-27.66706c8.83846,-1.42942 29.8339,-4.42297 48.13292,-7.38244c19.84743,-3.20988 28.72863,13.04234 28.72863,13.04234l18.24004,161.52126z" fill="url(#color-1)" stroke="#000000" stroke-width="0" stroke-linecap="butt" stroke-linejoin="miter"/><path d="M274.28779,365.08187l-18.48574,-140.56011c0,0 0.55835,-17.3728 4.8738,-18.29957c4.28562,-0.92036 23.21539,-19.16146 32.08826,-21.06697c9.62369,-2.06675 -6.45225,19.98478 -6.45225,19.98478c0,0 4.55563,30.24259 9.21053,58.88573c2.52272,15.52312 5.07458,30.57645 6.94627,40.09157c5.07206,25.78496 15.07229,59.78286 15.07229,59.78286c0,0 -24.96757,5.38313 -32.65315,5.59311c-6.5497,0.17894 -10.60002,-4.41138 -10.60002,-4.41138z" fill="url(#color-2)" stroke="#000000" stroke-width="0" stroke-linecap="butt" stroke-linejoin="miter"/><path d="M344.84653,364.86292c0,0 1.47099,-36.19873 0.34334,-62.74046c-1.18397,-27.86687 -7.28642,-100.67913 -7.28642,-100.67913c0,0 -19.19155,-15.28521 -10.14523,-16.80043c8.34056,-1.397 30.06455,4.45959 34.09303,3.78482c4.05658,-0.67946 11.11555,18.61782 11.11555,18.61782l10.75949,143.24134c0,0 1.48255,6.00018 -4.33503,8.18118c-6.94245,2.60273 -34.5447,6.39486 -34.5447,6.39486z" fill="url(#color-3)" stroke="#000000" stroke-width="0" stroke-linecap="butt" stroke-linejoin="miter"/><path d="M324.85204,194.39497c0.71544,6.17333 -4.55597,11.85592 -11.77398,12.69242c-7.21806,0.83651 -13.64939,-3.48983 -14.36481,-9.66314c-0.71544,-6.17333 4.55597,-11.85592 11.77398,-12.69242c7.21806,-0.83651 13.64939,3.48983 14.36481,9.66314z" fill="url(#color-4)" stroke="#000000" stroke-width="0" stroke-linecap="butt" stroke-linejoin="miter"/><path d="M305.35879,248.00231l26.8557,-2.84582" fill="none" stroke="#ffffff" stroke-width="2.5" stroke-linecap="round" stroke-linejoin="miter"/><path d="M317.02628,235.98915l2.89547,24.98428" fill="none" stroke="#ffffff" stroke-width="2.5" stroke-linecap="round" stroke-linejoin="miter"/><path d="M326.95905,234.30499l-8.13798,10.27147" fill="none" stroke="#ffffff" stroke-width="2.5" stroke-linecap="round" stroke-linejoin="miter"/><path d="M327.34304,253.71678l-9.88658,-7.11649l-10.06945,-8.69445" fill="none" stroke="#ffffff" stroke-width="2.5" stroke-linecap="round" stroke-linejoin="miter"/><path d="M310.69439,257.24537l7.81403,-10.76699" fill="none" stroke="#ffffff" stroke-width="2.5" stroke-linecap="round" stroke-linejoin="miter"/><path d="M342.49831,244.20155l0.37798,-12.83698l14.87997,-0.39184l1.24963,10.78269" fill="none" stroke-opacity="0.46667" stroke="#000000" stroke-width="2.5" stroke-linecap="round" stroke-linejoin="miter"/><path d="M360.22688,360.38058l-7.94137,-112.21969" fill="none" stroke-opacity="0.46667" stroke="#000000" stroke-width="2.5" stroke-linecap="round" stroke-linejoin="miter"/><path d="M282.3335,254.00265l19.23477,110.77728" fill="none" stroke-opacity="0.46667" stroke="#000000" stroke-width="2.5" stroke-linecap="round" stroke-linejoin="miter"/><path d="M277.83215,254.2578l-1.88621,-9.37628l11.60213,-1.07808l2.59506,10.89329" fill="none" stroke-opacity="0.46667" stroke="#000000" stroke-width="2.5" stroke-linecap="round" stroke-linejoin="miter"/><path d="M334.92994,122.92229c11.97704,25.9209 0.91775,59.83807 -26.54495,72.52753c-27.4627,12.68947 -60.92925,-0.65404 -72.90629,-26.57493c-11.97703,-25.92089 0.57655,-57.22079 28.03927,-69.91023c27.4627,-12.68947 59.43494,-1.96327 71.41199,23.95764z" fill="url(#color-5)" stroke="#000000" stroke-width="0" stroke-linecap="butt" stroke-linejoin="miter"/><path d="M293.78616,143.22312c13.82263,25.25 17.23108,50.20689 17.23108,50.20689c0,0 -18.8194,-16.52046 -32.64204,-41.77045c-4.14156,-7.56545 -16.77997,-18.37847 -19.67232,-24.96371c-6.76101,-15.39325 -0.63083,-23.34204 2.34972,-24.97367c2.81066,-1.53865 13.7624,-0.3804 22.40989,12.22059c4.44567,6.47815 5.63032,20.70695 10.32368,29.28036z" fill-opacity="0.23529" fill="#000000" stroke="none" stroke-width="0" stroke-linecap="butt" stroke-linejoin="round"/><path d="M293.74222,125.91731c1.51869,2.24308 -2.75875,7.79107 -9.55399,12.39182c-6.7952,4.60074 -13.53496,6.512 -15.05364,4.2689c-1.51869,-2.24308 2.75878,-7.79107 9.55399,-12.39181c6.7952,-4.60074 13.53496,-6.51198 15.05364,-4.2689z" fill-opacity="0.23137" fill="#000000" stroke="none" stroke-width="0" stroke-linecap="butt" stroke-linejoin="miter"/><path d="M262.81438,147.35957c1.11446,1.93717 0.29425,4.49913 -1.83191,5.7223c-2.12617,1.22317 -4.7532,0.64432 -5.86762,-1.29285c-1.11446,-1.93718 -0.29425,-4.49913 1.83191,-5.7223c2.12617,-1.22317 4.75317,-0.64433 5.86763,1.29286z" fill="#ffffff" stroke="#000000" stroke-width="2.5" stroke-linecap="butt" stroke-linejoin="miter"/><path d="M304.57701,116.93664c1.11447,1.93719 0.29426,4.49913 -1.83191,5.72231c-2.12617,1.22317 -4.7532,0.64431 -5.86763,-1.29286c-1.11446,-1.93717 -0.29426,-4.49912 1.83191,-5.72229c2.12617,-1.22317 4.75319,-0.64432 5.86763,1.29284z" fill="#ffffff" stroke="#000000" stroke-width="2.5" stroke-linecap="butt" stroke-linejoin="miter"/><path d="M255.54207,145.83164l2.16558,-2.86605l2.65111,-1.63803" fill="none" stroke="#000000" stroke-width="2.5" stroke-linecap="round" stroke-linejoin="miter"/><path d="M262.77906,151.20627l2.62384,-2.37002" fill="none" stroke="#000000" stroke-width="2.5" stroke-linecap="round" stroke-linejoin="miter"/><path d="M266.51879,143.37048l-0.29474,3.8959" fill="none" stroke="#000000" stroke-width="2.5" stroke-linecap="round" stroke-linejoin="miter"/><path d="M302.19033,124.96312l-3.90953,-0.66072l-6.55325,-2.76128" fill="none" stroke="#000000" stroke-width="2.5" stroke-linecap="round" stroke-linejoin="miter"/><path d="M257.4303,102.73173c21.60984,-11.82989 41.97302,-16.22295 45.48247,-9.81218c3.50945,6.41077 -11.16379,21.19775 -32.77362,33.02764c-21.60984,11.82989 -41.97303,16.22295 -45.48248,9.81218c-3.50945,-6.41077 11.16381,-21.19774 32.77363,-33.02764z" fill="#000000" stroke="none" stroke-width="0" stroke-linecap="butt" stroke-linejoin="miter"/><path d="M267.19731,112.40821l1.14152,-0.33279c1.38794,-0.4658 2.69196,-1.06321 4.05138,-1.58425c0.5886,-0.45989 1.1852,-0.91123 1.7933,-1.35017c0.94693,-0.83114 1.92475,-1.69849 2.93505,-2.54864c-1.76636,-2.16843 -3.47957,-4.40804 -5.70295,-6.20476c-0.31492,0.11437 -0.67043,0.20901 -1.06856,0.28266c-0.57025,0.10549 -1.18364,0.15169 -1.82195,0.14429c7.92176,-1.39626 15.76411,-6.1356 22.62819,-10.94347c0.08582,0.41919 0.16911,0.83518 0.25286,1.24482c0.60102,0.45227 1.22176,0.87958 1.82639,1.32763l0,-0.00001c-0.246,-0.59132 -0.45925,-1.22097 -0.63879,-1.74367c-0.47433,-0.27797 -0.94737,-0.55961 -1.41981,-0.84322c2.59302,-1.81682 5.04623,-3.64297 7.31112,-5.30174c1.82998,-1.34026 3.99461,-2.55024 6.13811,-3.83935c0.08391,0.19002 0.1649,0.3807 0.24271,0.57206c0.29243,0.46279 0.58489,0.92563 0.87748,1.38846l-0.07213,0.13774l0.11449,-0.04962l0.85852,1.98102c0.21589,0.49817 0.08204,1.05981 -0.29312,1.41048c0.2664,0.59977 0.53153,1.20089 0.79585,1.80323c0.43173,0.79644 0.85181,1.5977 1.25769,2.40416c0.15136,0.25528 0.30147,0.51123 0.45032,0.76775c0.83257,1.20214 1.6466,2.39789 2.45207,3.55733c0.34808,0.70807 0.71702,1.40169 1.09269,2.09003c0.08984,0.02821 0.1805,0.05564 0.272,0.0822c1.14375,0.33207 2.074,0.15684 3.09274,1.02748c1.69178,1.44584 2.79005,4.08046 3.90942,6.28612c0.21537,0.08557 0.40754,0.23089 0.54934,0.42643l0.81566,1.07947l-0.19984,0.151l0.08521,0.17654c0.07318,0.15247 0.14518,0.30566 0.21603,0.45954c1.14364,1.30379 2.11104,2.89254 2.97168,4.59176c0.06018,-0.39355 0.30693,-0.75173 0.69256,-0.93785c0.62172,-0.30009 1.369,-0.03934 1.66908,0.58238l0.78905,1.63478l-0.30684,0.1481c1.62719,2.35533 2.71453,5.19716 3.01964,8.07823c0.05683,0.08088 0.11375,0.16171 0.17077,0.24248l-0.12958,0.20698c0.01879,0.24292 0.03195,0.48596 0.03933,0.72884l-0.00002,0c2.14568,3.39429 4.13587,6.90196 6.23115,10.48591c0.30492,0.52157 0.68858,1.10192 1.08052,1.71713c-0.43518,-2.4973 -0.89506,-5.0037 -1.63402,-7.37115c-1.47937,-4.73964 -4.55393,-9.2179 -7.36712,-13.19737c0,0 -0.72103,-1.02109 0.30005,-1.74212c1.02109,-0.72103 1.74212,0.30005 1.74212,0.30005c2.94011,4.16859 6.11358,8.85071 7.68154,13.8049c1.26092,3.98403 1.7537,8.35508 2.59391,12.44772l-0.01076,0.07145l0.0191,-0.00174l0.22432,2.46061c0.05896,0.51358 -0.20697,1.03087 -0.69884,1.26828c-0.56631,0.27334 -1.23677,0.08138 -1.57858,-0.42487l-1.1737,-1.67461l0.31245,-0.21899c-2.97383,-3.64078 -4.78079,-8.42011 -7.11448,-12.50886c1.52399,4.02819 3.05841,8.03563 3.59392,12.18834l0.27452,-0.08727l0.64253,2.02124c0.19736,0.58816 -0.069,1.2452 -0.64235,1.52194c-0.62172,0.30009 -1.369,0.03934 -1.66908,-0.58238l-0.65755,-1.36233c-1.41937,-2.9407 -2.66752,-5.92524 -3.91945,-8.91399c-0.092,0.08773 -0.19907,0.16281 -0.31972,0.22105c-0.16654,0.08038 -0.34208,0.12053 -0.51563,0.12427c0.73511,1.69398 1.49528,3.37663 2.29855,5.04009c2.0923,4.33283 5.0859,8.93958 6.30212,13.68452l0.07072,0.10015l0.22752,-0.10981l0.70387,1.4583c0.30009,0.62172 0.03934,1.369 -0.58238,1.66908c-0.56505,0.27272 -1.23379,0.08223 -1.57629,-0.42148l-0.9264,-1.31194c-3.00905,-3.98748 -6.22599,-7.8227 -9.0959,-11.92455c1.0473,3.13674 2.13428,6.2699 3.25166,9.41967c0.47727,0.97505 0.92857,1.95565 1.32295,2.95381c0.35095,0.72642 0.70177,1.45289 1.05244,2.17943l0.9385,1.94441c0.30009,0.62172 0.03934,1.369 -0.58238,1.66908c-0.62172,0.30009 -1.369,0.03934 -1.66908,-0.58238l-0.9385,-1.94441c-0.11887,-0.24628 -0.23772,-0.49257 -0.35657,-0.73886c-1.56511,-1.73972 -2.54584,-5.27444 -3.39742,-7.03876c-2.93768,-6.08641 -5.87538,-12.1728 -8.81306,-18.25922c-0.19226,-0.09308 -0.36185,-0.23572 -0.48752,-0.42055l-0.93507,-1.32421l0.03566,-0.02518l-0.09164,-0.06149c-0.17492,-0.36044 -0.35415,-0.71754 -0.53601,-1.07215c-0.54007,-0.61335 -0.92605,-1.51447 -1.32565,-2.34558c0.5105,1.13824 1.06854,2.25617 1.61748,3.3819c0.01101,0.0199 0.0165,0.03125 0.0165,0.03125l-0.00091,0.00071c0.07877,0.16161 0.15733,0.32338 0.23554,0.48539l-1.24305,0.3003l-1.00841,0.7864c-0.07803,-0.16169 -0.15619,-0.32374 -0.2344,-0.48615l-0.00023,0.00005c0,0 -0.0018,-0.00373 -0.00499,-0.01091c-1.01428,-2.10668 -2.03672,-4.2752 -2.91956,-6.49138c-0.5003,0.47936 -1.15514,0.96794 -1.60623,0.78369c0.09882,0.22772 0.18122,0.45424 0.20557,0.60232c0.13525,0.82233 0.39001,1.62089 0.55403,2.43797c0.53515,2.66606 1.06649,4.76077 0.94633,7.14964l0.27752,-0.01034l0.05732,1.53954c0.0272,0.4671 -0.21017,0.93042 -0.6479,1.17004c-0.36797,0.20143 -0.79282,0.19844 -1.14394,0.02923c0.16426,0.66147 0.27198,1.28825 0.32354,1.9559l0.23812,-0.04311l0.29111,1.60782c0.04772,0.23239 0.02717,0.47082 -0.05361,0.68775c2.26744,2.85989 4.36092,5.7963 5.19822,9.27419l0.0541,0.07898l0.28733,-0.11818l12.66119,20.9536c0.24956,0.58457 -12.04412,-18.22533 -12.61326,-17.91377c-0.57285,0.31359 13.73966,23.00948 13.38392,22.47626l-15.97209,-24.26308c-3.23858,-3.49018 -6.21801,-7.03021 -9.4428,-10.26668c2.15913,3.64208 3.88178,7.4319 5.34035,11.3395c0.32843,0.57705 0.65975,1.1517 0.9949,1.72318c2.04066,3.47968 4.83193,7.02185 6.67445,10.75671c0.3049,0.45288 0.60975,0.90546 0.91444,1.35776l0.03157,-0.02229l0.93333,1.32176c0.04458,0.06082 0.08427,0.12655 0.11823,0.19692c0.17529,0.36315 0.15921,0.76914 -0.00836,1.10383c0.56287,1.04386 1.05689,2.10674 1.43559,3.19411c0.03455,0.04947 0.06913,0.09892 0.10369,0.14839l-0.01001,0.02052l0.01645,-0.01105l0.25162,0.37451l0.19691,-0.09504l0.70387,1.4583c0.30009,0.62172 0.03934,1.369 -0.58238,1.66908c-0.57335,0.27674 -1.25346,0.07652 -1.59118,-0.4439l-1.0492,-1.56168c-1.30147,-1.86298 -2.5973,-3.72965 -3.91062,-5.58263c1.14604,2.54186 2.16513,5.15124 2.96372,7.88224l-0.00169,0.02125l0.00688,-0.00178l0.33773,1.31014c0.15947,0.57177 -0.10795,1.1931 -0.66129,1.46018c-0.4832,0.23324 -1.04226,0.12768 -1.40827,-0.22281l-1.05117,-0.96099l0.02423,-0.02649c-0.06293,-0.04722 -0.12416,-0.097 -0.18346,-0.14964c-0.56978,-0.50592 -1.50846,-3.50425 -1.70629,-4.13422c-0.70874,-2.25673 -1.30955,-4.55322 -1.87323,-6.85518c-1.80308,-3.66441 -3.81449,-7.22079 -5.71092,-10.85498c-3.61733,-5.15804 -7.31487,-10.2479 -10.79441,-15.53454c-1.37259,-2.08545 -4.26983,-5.56714 -4.50679,-8.05449c-0.032,-0.3359 -0.04762,-0.64781 -0.04538,-0.93575c-1.3447,-0.73134 -2.68334,-1.4625 -3.96146,-2.30933c-0.01771,-0.01174 -1.85534,-1.18376 -1.97452,-1.17635c-0.61141,0.03798 -0.30532,1.18931 -0.52438,1.76138c-0.19876,0.51905 -0.39625,1.19008 -0.64905,1.86428c-0.46818,1.24854 -1.12603,2.50801 -2.33281,2.8334c-0.47182,0.12722 -3.28462,-1.38559 -3.65826,-1.609c-0.527,-0.31513 -1.22871,-1.27484 -1.64693,-0.82523c-0.52963,0.56938 -0.65268,2.8174 -0.88926,3.51644c-0.64455,1.90429 -1.37089,2.97399 -2.86008,4.29922c-1.51169,1.49191 -2.51531,2.83124 -4.89221,2.30452c-0.64418,-0.14274 -1.28691,-1.61871 -1.66165,-1.07566c-0.37768,0.54732 -0.54382,1.69933 -0.76212,2.92982c0.05301,0.10982 0.10602,0.21966 0.15903,0.32948l0.58656,1.21526c0.30009,0.62172 0.03934,1.369 -0.58238,1.66908c-0.36628,0.17679 -0.77615,0.15892 -1.11247,-0.01273c-0.32657,0.55866 -0.76119,0.96837 -1.36193,1.1132c-0.77598,0.18707 -1.50985,-0.53332 -2.2199,-0.89801c-1.85967,-0.95521 -3.90365,-2.63008 -5.4781,-4.33934c0.52903,2.42271 0.8363,4.9166 0.72498,7.30983l0.48136,0.01311l-0.06559,2.41038c-0.00402,0.43797 -0.23846,0.86092 -0.64996,1.08616c-0.17529,0.09596 -0.36349,0.14553 -0.5505,0.15282c3.92937,9.06835 12.73816,16.24005 14.3215,26.19485l0.22049,-0.08719l0.51347,1.29869c0.2397,0.58147 0.00836,1.26247 -0.5561,1.57146c-0.52181,0.28566 -1.158,0.16019 -1.53611,-0.26743l-0.92689,-1.00325c-4.10982,-3.54641 -6.95546,-8.57047 -10.54376,-12.66552c-4.40129,-4.48197 -6.15806,-11.72876 -8.55712,-17.3897c-0.75974,-1.79273 -1.6277,-3.40113 -2.73777,-5.00232c-0.33291,-0.4802 -0.66056,-0.96402 -0.99049,-1.44627c-0.07792,-0.11388 -0.19161,-0.26152 -0.31092,-0.42054c-0.0637,0.40614 -0.17429,0.83522 -0.23624,1.12939c-0.38018,0.75771 -0.35648,1.95078 -1.14053,2.27315c-1.61958,0.66589 -3.50396,-1.72032 -4.60821,-3.80304c0.31177,2.69094 1.08847,5.2294 2.30361,7.65298c0.09246,0.15476 0.17812,0.31087 0.24251,0.47119c0.06216,0.1177 0.12533,0.23515 0.1896,0.3523l0.0015,0.04596c0.00291,0.00578 0.00582,0.01157 0.00872,0.01735l0.01553,-0.0066l0.10086,0.23776c1.18679,2.35397 2.4139,4.6905 3.60273,7.0342c0.35446,0.58561 0.68948,1.17995 1.00012,1.78348c1.47516,0.90946 2.93108,2.38259 3.91775,3.33968c3.3988,3.2969 7.62498,8.03643 10.18122,12.95133c0.50494,0.48414 1.00607,0.97223 1.50307,1.46455c2.83065,2.80401 5.89255,5.15828 7.55169,8.51024l0.43221,-0.2086l0.82118,1.70136c0.30009,0.62172 0.03934,1.369 -0.58238,1.66908c-0.37299,0.18003 -0.79116,0.1582 -1.13085,-0.0223l-1.18548,-0.61358c-5.38666,-2.78922 -10.31654,-6.24266 -14.97242,-10.06313c3.962,7.10128 8.17633,14.35006 13.57214,20.07059l0.02683,0.08897l0.02655,-0.01875l0.93333,1.32176c0.04458,0.06082 0.08427,0.12655 0.11823,0.19692c0.30009,0.62172 0.03934,1.369 -0.58238,1.66908c-0.39695,0.19159 -0.84508,0.15457 -1.19532,-0.05905l-1.65937,-0.97919l0.01545,-0.02618c-0.0585,-0.0268 -0.11648,-0.05499 -0.17389,-0.08469c-0.67454,-0.34894 -1.97101,-2.35829 -2.46982,-3.03601c-1.49351,-2.02914 -2.99368,-4.02977 -4.41327,-6.11276c-5.45221,-8.00015 -11.06289,-16.02003 -16.86898,-23.73065l0.31244,0.57076c0.3315,0.60555 0.10934,1.36518 -0.49623,1.69669c-0.60556,0.3315 -1.36519,0.10933 -1.69669,-0.49623l-0.75749,-1.38371c-1.24548,-2.27514 -2.49193,-4.54974 -3.73477,-6.82633c-2.29283,-5.5563 -4.7466,-12.19087 -2.99384,-18.27275c0.80473,-2.79228 2.25619,-5.41644 3.77402,-7.89059c0,0 0.3061,-0.49841 0.84049,-0.60396c0.19189,-0.3031 0.39071,-0.60742 0.59657,-0.91341c0.01918,-0.59267 0.53621,-0.94122 0.65231,-1.01214l0.37032,-0.60294c0.11051,-0.18764 0.27151,-0.3488 0.47641,-0.46095c0.24963,-0.13666 0.52548,-0.17923 0.78671,-0.13961c2.46909,-2.12424 4.93495,-4.04998 8.01068,-5.26596c5.97273,-2.45665 12.17109,-4.37778 17.733,-7.71817c0.88243,-0.52997 1.73443,-1.09466 2.5648,-1.68421c0.68461,-1.29835 1.45669,-2.55818 2.3032,-3.79759l0.91827,-1.33657c0.11997,-0.18173 0.289,-0.33446 0.49936,-0.436c0.1242,-0.05995 0.25342,-0.09751 0.38309,-0.11429c0.25329,-0.22921 0.54375,-0.31417 0.54375,-0.31417zM238.60995,166.94732c-0.68591,-0.63963 -1.56764,-1.12844 -1.94318,-1.97265c-0.03931,-0.08837 -0.0733,-0.17822 -0.10275,-0.2693l-0.0522,0.0252l-0.58656,-1.21526c-0.30009,-0.62172 -0.03934,-1.369 0.58238,-1.66908c0.2077,-0.10026 0.42943,-0.13791 0.64379,-0.12043c-0.01509,-0.48289 0.0751,-0.92433 0.40904,-1.22992c0.00474,-0.00435 0.00953,-0.00864 0.01432,-0.0129c-1.62946,-1.96958 -3.9945,-4.21841 -4.64201,-6.27305c-0.01905,-0.06041 -0.03659,-0.12112 -0.05277,-0.18209l-0.02144,0.00723l-0.69015,-2.04601c-0.20963,-0.59296 0.05625,-1.26125 0.63578,-1.54097c0.24117,-0.11642 0.50125,-0.14842 0.74678,-0.10771c-0.79455,-1.54501 -1.41433,-3.22008 -1.83456,-4.90589l-0.19356,0.66183l-0.1993,-0.05829c-0.45115,7.14422 2.51169,13.83017 3.92187,20.64358c0.11576,-0.26197 0.32164,-0.48571 0.59978,-0.61995c0.52313,-0.2525 1.13517,-0.10793 1.49489,0.31466l1.2889,1.44611l-0.1391,0.12397c0.35395,0.25541 0.70309,0.51748 1.04808,0.78523c-0.32873,-0.59395 -0.64405,-1.19135 -0.92805,-1.78432zM287.28621,98.15298c-0.42888,0.14132 -0.88938,0.03672 -1.21414,-0.24765l-0.62242,-0.52235c-0.25528,0.57093 -0.61205,1.08927 -1.14932,1.50836c-0.72898,0.56861 -1.5557,0.84861 -2.43457,0.9198c0.13969,0.52335 0.26809,1.04363 0.38446,1.55688l0.18331,-0.07944l0.50662,1.16902c0.44514,-0.24065 0.89572,-0.46371 1.35186,-0.66598c1.44716,-0.64171 2.96877,-1.10373 4.4937,-1.5547c-0.52916,-0.69197 -1.03998,-1.44255 -1.49948,-2.08395zM288.04014,95.09939c1.86753,1.13031 3.71277,2.30167 5.54545,3.5295c0.20885,-0.08908 0.41621,-0.18164 0.62184,-0.27821c0.01858,-0.28827 0.05073,-0.58515 0.06953,-0.88573c-0.91977,-0.72108 -1.75845,-1.42205 -2.27029,-1.78686c-0.23221,-0.16551 -0.46399,-0.3311 -0.69538,-0.49677c-1.16747,0.75145 -2.54731,-0.05732 -3.79073,-1.28654c0.07269,0.25869 0.15457,0.51022 0.2511,0.7498l-0.01064,0.14161l0.04071,-0.00673l0.01118,0.06757c0.07585,0.08409 0.15159,0.16821 0.22721,0.25234zM309.83446,114.46708c0.4494,-0.21691 0.96439,-0.14079 1.32867,0.15285l0.95317,0.73588c-0.20619,-0.56883 -0.38521,-1.13867 -0.53313,-1.70858c-0.07272,-0.10964 -0.14543,-0.21928 -0.21814,-0.32898l-0.14327,0.06915l-0.30846,-0.63907c-0.55752,-0.40198 -1.11213,-0.7969 -1.66383,-1.17981c-0.34619,-0.24028 -0.73924,-0.48595 -1.13491,-0.74692c0.55023,1.19126 1.14436,2.4461 1.60992,3.70539c0.03526,-0.02157 0.07195,-0.04159 0.10997,-0.05994zM253.49055,180.83211c-1.01898,-1.15979 -2.02803,-2.32506 -3.02537,-3.49834c-0.52098,0.06874 -0.96263,-0.27224 -0.96263,-0.27224l-0.76604,-0.61689c-0.58797,-0.3052 -1.15723,-0.64403 -1.70923,-1.01128c0.53894,0.49948 1.08105,0.99433 1.62961,1.48006c1.53574,1.35987 3.15511,2.66952 4.83366,3.91869zM318.54668,119.21404c0.05453,0.08113 0.1091,0.16228 0.1637,0.24342c0.66507,0.98813 1.33449,1.92574 1.98439,2.84237c-0.57336,-1.31851 -1.15449,-2.63391 -1.74796,-3.94439c-0.26937,-0.16534 -0.53814,-0.33413 -0.80629,-0.50586c0.14037,0.45273 0.27651,0.90724 0.40614,1.36445zM323.99154,122.85927c-0.1262,-0.39664 -0.2501,-0.7956 -0.37238,-1.1964c-0.19592,-0.39415 -0.39061,-0.78793 -0.58271,-1.18213c-0.17692,0.01728 -0.3544,-0.00373 -0.52048,-0.05952c0.69873,1.66299 1.38143,3.33252 2.06487,5.00129c-0.19474,-0.93051 -0.35879,-1.8387 -0.5893,-2.56324zM297.88394,95.71916c-0.40266,-0.45922 -0.80396,-0.91951 -1.20387,-1.38093c0.05664,0.49609 0.09944,0.99091 0.12779,1.48336c0.2687,0.18159 0.53681,0.36441 0.80408,0.54906c0.04347,0.03002 0.08627,0.06088 0.12857,0.09244c0.12005,-0.06834 0.24006,-0.13673 0.36005,-0.20507c-0.07719,-0.1785 -0.14963,-0.36044 -0.21663,-0.53889zM292.79115,135.95013c-0.45421,-1.03143 -0.90027,-2.07301 -1.34182,-3.12584c-0.23047,-0.12954 -0.46317,-0.25709 -0.69821,-0.38263c0.21416,0.39049 0.40897,0.69391 0.44115,0.75268c0.51507,0.94112 1.04732,1.85412 1.59887,2.75579zM280.3467,103.76079l0.01055,-0.01063l-0.03623,-0.01561c-0.47178,-0.52829 -0.96325,-1.01489 -1.47286,-1.4653c0.47741,0.59675 0.93588,1.22737 1.37701,1.89411c0.10269,-0.07284 0.20573,-0.14504 0.30904,-0.21658zM260.09521,185.26174c-0.34021,-0.40633 -0.67146,-0.81468 -0.99155,-1.20505c-0.03765,0.1672 -0.10934,0.32597 -0.21127,0.46531c0.39933,0.25021 0.80037,0.49684 1.20281,0.73973zM231.10462,141.44529c-0.15056,0.3103 -0.29192,0.62297 -0.42177,0.93741c0.16464,-0.036 0.33261,-0.03757 0.4941,-0.00759c-0.03181,-0.31243 -0.05596,-0.62262 -0.07233,-0.92984zM247.07253,169.47144c0.13275,0.10967 0.26539,0.21948 0.39789,0.32944c-0.42152,-0.50004 -0.85091,-0.99007 -1.28714,-1.46741c0.29403,0.38102 0.59051,0.7603 0.88924,1.13795zM306.65174,132.78223c-0.01505,-0.08689 -0.02835,-0.17411 -0.0405,-0.26075l-0.08374,0.21257c0.04167,0.0156 0.08309,0.03164 0.12423,0.04818zM249.50231,145.84963c-0.01205,-0.06433 -0.02389,-0.1288 -0.03551,-0.19337l-0.07932,0.04343c0.03863,0.0499 0.07689,0.09989 0.11484,0.14995zM235.66583,168.59742l0.12954,0.23662l-0.24148,-0.50031c0.00464,0.02814 0.00925,0.0563 0.01383,0.08444c0.0327,0.05975 0.06542,0.11947 0.09813,0.17924zM236.01206,169.16721l-0.02714,0.0131l0.03529,0.06448z" fill="#000000" stroke="none" stroke-width="0.5" stroke-linecap="butt" stroke-linejoin="miter"/><path d="M332.38886,69.999c0,0 -4.90996,6.51579 -11.54972,14.92203c-2.92762,3.7065 -4.23756,7.96106 -8.9241,11.88059c-2.42107,2.02482 -1.46344,5.17271 -4.25983,7.29824c-2.75145,2.09137 -9.2511,3.15905 -12.3479,5.31367c-2.68354,1.86711 -9.1989,4.14311 -12.1292,6.03395c-3.96092,2.55584 -4.43641,4.73174 -8.82316,7.28345c-4.33766,2.52316 -6.55684,5.6122 -10.88195,7.88164c-2.63069,1.38036 -7.3876,2.02478 -9.98279,3.3042c-1.29326,0.63756 -4.47623,0.59789 -5.75631,1.20938c-3.84125,1.83497 -5.72114,4.21548 -9.39179,5.80383c-1.86834,0.80844 -4.57771,-0.78947 -6.85781,0.10602c-2.32876,0.9146 -4.23144,4.3226 -6.43473,5.14716c-4.78366,1.79025 -8.61057,3.15292 -8.61057,3.15292c0,0 -14.67379,2.69946 -18.38165,3.17539c-4.76644,0.6118 -7.84723,0.19125 -7.84723,0.19125c0,0 6.57131,-6.90643 14.99459,-16.72938c1.88417,-2.19724 0.92685,-5.93228 2.55951,-8.50352c1.67324,-2.63518 5.94925,-4.10811 8.97399,-6.47054c2.88688,-2.25476 6.3747,-6.79834 10.91523,-9.89714c7.19097,-4.9077 15.36226,-8.18964 15.36226,-8.18964c0,0 3.94193,-2.37995 5.97713,-3.5638c2.42919,-1.41304 6.84579,-2.7344 9.72446,-4.23147c9.23683,-4.80374 17.0506,-10.81912 24.85389,-14.52147c7.04484,-3.34249 14.56215,-4.61956 14.56215,-4.61956c0,0 2.19904,2.6782 3.68933,2.16313c1.3116,-0.45331 4.78511,-5.092 4.78511,-5.092c0,0 5.28696,-3.15415 7.1375,-0.84392c1.77744,2.21894 5.3735,2.17323 8.9373,1.37877c0.8425,-0.1878 0.42166,2.64609 1.23608,2.39461c3.90635,-1.20615 8.47018,-5.97775 8.47018,-5.97775z" fill="url(#color-6)" stroke="#000000" stroke-width="0" stroke-linecap="butt" stroke-linejoin="miter"/><path d="M315.74946,190.96154c1.12874,2.33855 -1.01906,1.02278 -4.58118,0.43015c-0.71031,-0.11818 -1.68728,-0.80426 -2.61593,-1.17231c-0.57292,-0.22706 -1.12745,-0.33305 -1.58963,-0.10996c-0.7162,0.34569 -0.05251,2.30291 -0.39328,3.02058c-0.34709,0.73099 -1.69596,0.22434 -2.1397,0.77984c-2.14287,2.68249 -3.83489,4.57981 -4.89323,2.38712c-0.24718,-0.51211 -0.38889,-0.14986 -0.40948,-0.72098c-0.05196,-1.44096 -0.32875,-2.80591 0.84491,-4.50334c1.17032,-1.69259 3.78804,-3.71829 5.8579,-4.71734c2.60393,-1.25683 6.36959,-2.67319 8.07843,-1.48993c1.55168,1.07443 1.13083,4.62442 1.84118,6.09618z" fill="#060606" stroke="none" stroke-width="0" stroke-linecap="butt" stroke-linejoin="miter"/><path d="M305.34701,195.67269c-1.12574,0.54336 -1.66908,-0.58238 -1.66908,-0.58238l-0.26584,-0.55078c-0.55171,-1.14304 -1.09409,-2.28879 -1.63117,-3.43603c-0.43525,-0.02809 -0.84323,-0.28353 -1.04634,-0.70435l-0.6203,-1.28515c-0.18945,-0.39252 -0.38356,-0.78602 -0.58107,-1.18056c-0.32936,-0.38692 -0.52245,-0.89687 -0.76676,-1.50842c-1.27307,-2.47558 -2.62022,-4.99497 -3.7507,-7.57463c-0.76678,-1.49676 -1.52845,-2.99741 -2.26277,-4.5188l-0.79752,-1.65233c-0.30009,-0.62172 -0.03934,-1.369 0.58238,-1.66908c0.01293,-0.00625 0.02592,-0.01224 0.03894,-0.018c-0.06549,-0.42729 -0.11848,-0.85649 -0.15782,-1.28762c0,0 -0.11349,-1.24484 1.13134,-1.35832c1.24484,-0.11348 1.35832,1.13135 1.35832,1.13135c0.07147,0.78504 0.19248,1.56452 0.35499,2.33857c0.04765,0.0262 0.09458,0.0542 0.14072,0.08411c1.14308,0.74127 2.19631,4.37862 2.822,5.67497c2.54417,5.2711 4.89136,10.60306 7.43719,15.8776l0.26584,0.55078c0,0 0.54336,1.12574 -0.58238,1.66908z" fill="#000000" stroke="none" stroke-width="0.5" stroke-linecap="butt" stroke-linejoin="miter"/><path d="M315.83403,189.02031l-1.14689,1.20897c-0.72789,-1.50807 -1.45577,-3.01614 -2.18368,-4.5242c-0.0994,-0.0597 -0.19106,-0.13353 -0.27161,-0.22034l-0.87877,-0.90368l0.33775,-0.32845c-2.32209,-2.25582 -3.16406,-5.58604 -4.38354,-8.84414l-0.8676,-1.79753c-0.30009,-0.62172 -0.03934,-1.369 0.58238,-1.66908c0.58434,-0.28204 1.27956,-0.06868 1.61021,0.47417l0.13541,0.21581c0.67675,0.04612 1.00593,0.72811 1.00593,0.72811c0.86342,1.78886 1.65972,3.60325 2.46618,5.41199c1.47897,2.80751 2.67527,5.88346 3.90322,8.64613c0.38704,0.26707 0.52151,0.72681 0.52151,0.72681l-0.13079,0.13786c0.13406,0.29125 0.26888,0.57812 0.40486,0.85985z" fill="#000000" stroke="none" stroke-width="0.5" stroke-linecap="butt" stroke-linejoin="miter"/><path d="M261.83231,149.59642c0.75357,0.99731 -0.24374,1.75088 -0.24374,1.75088l-0.34486,-0.1983c-0.0742,0.53297 -0.16939,1.07881 -0.26804,1.63169c0.55166,-0.11974 1.13376,0.14793 1.38994,0.67871c0.04037,0.08363 0.07058,0.16955 0.09114,0.25632l0.51251,1.98816l-0.22257,0.05737c0.41924,0.98284 0.74954,1.97623 1.15484,3.2498l0.5174,1.5339c0.20963,0.59296 -0.05626,1.26125 -0.63579,1.54097c-0.02365,0.01141 -0.04745,0.022 -0.07142,0.0318c0.38803,0.90756 0.75171,1.83448 1.12212,2.74979c1.33884,1.71157 2.65695,3.452 3.58881,5.362c1.41831,2.93848 3.02996,5.86329 3.88144,9.03389c0.05774,0.215 0.10448,0.42899 0.14376,0.6421c1.25628,2.36516 2.48965,4.74466 3.6408,7.16622c0.13663,0.64392 0.28295,1.30971 0.46175,1.97128c0.80889,0.99042 1.63862,1.97383 2.39931,3.03726c0.44664,0.6244 1.21038,1.60797 1.97905,2.70226c0.57783,0.33615 1.13723,0.68781 1.6066,1.15321c0.78053,0.77393 1.44243,2.30374 1.93273,3.3236l0.75465,1.12326c0.03729,0.05363 0.07084,0.11089 0.10015,0.17159c0.30009,0.62172 0.03934,1.369 -0.58238,1.66908c-0.4494,0.21692 -0.96439,0.14079 -1.32867,-0.15285l-1.42185,-1.09773l0.01212,-0.01571c-0.02687,-0.01343 -0.05365,-0.02709 -0.08034,-0.04093c-1.39091,-0.72218 -2.4212,-2.57078 -3.33249,-4.35122c-0.91312,-0.71159 -1.82476,-1.47804 -2.60086,-2.60106c-0.77873,-1.12684 -1.31275,-2.43906 -1.70665,-3.77902c-1.32329,-1.64499 -2.57704,-3.32217 -3.40797,-5.3791c-0.55797,-1.38122 -0.55434,-2.7001 -0.80133,-4.0714c-2.48381,-4.73444 -5.023,-9.43234 -7.35497,-14.23002c-2.08219,-2.43248 -4.23553,-4.88453 -4.68142,-7.91215c-0.79515,-0.90374 -0.4532,-2.56321 0.07933,-3.7798c0.18536,-1.35897 0.47245,-2.71701 0.65215,-4.00793l1.31384,-1.45162c0,0 0.99731,-0.75358 1.75088,0.24374z" fill="#000000" stroke="none" stroke-width="0.5" stroke-linecap="butt" stroke-linejoin="miter"/><path d="M267.9058,143.48209c-0.00354,0.75063 0.02006,3.55835 -0.13754,4.26306c-0.54529,2.43824 -0.78382,4.11483 -3.65996,1.84309c-0.94618,-0.74734 -1.32611,-2.6518 -1.27202,-4.52475c-0.66458,-0.13055 -0.90622,-0.84694 -0.90622,-0.84694c-0.87777,-2.63212 -1.24945,-3.42805 1.23642,-4.9817l1.28515,-0.6203c0.62172,-0.30009 1.36901,-0.03933 1.66908,0.58238c0.13613,0.28205 0.15685,0.58992 0.08082,0.87016l-0.16588,0.6262c0.47256,-0.00829 0.92951,0.25317 1.14843,0.70675c0.02298,0.0476 0.04266,0.09595 0.05915,0.14476l0.60789,1.72382l-0.07425,0.02619z" fill="#000000" stroke="none" stroke-width="0.5" stroke-linecap="butt" stroke-linejoin="miter"/><path d="" fill="url(#color-7)" stroke="none" stroke-width="0.5" stroke-linecap="butt" stroke-linejoin="miter"/><path d="" fill="url(#color-8)" stroke="none" stroke-width="0.5" stroke-linecap="butt" stroke-linejoin="miter"/><path d="M238.44349,96.95465c-3.00662,2.51144 -6.06238,4.97526 -8.66402,7.86549c0,0 -0.83735,0.92809 -1.76544,0.09074c-0.92809,-0.83735 -0.09074,-1.76544 -0.09074,-1.76544c4.3319,-4.79118 9.86424,-8.42858 14.40194,-13.02911l0.06015,-0.02197l-0.01478,-0.01774l1.25486,-1.04597c0.1057,-0.09238 0.22888,-0.16838 0.36712,-0.22249c0.64286,-0.25165 1.368,0.06551 1.61963,0.70837c0.15504,0.39608 0.09417,0.82339 -0.12577,1.15195l-0.45512,0.69857c0.45573,0.04223 0.87137,0.33415 1.04958,0.7894c0.14192,0.36257 0.10292,0.75131 -0.07339,1.06652l-0.65524,1.19105l-0.12224,-0.06725l-0.01207,0.01729l-0.16128,-0.11265l-0.03721,-0.02047c-0.00299,0.00892 -0.00597,0.01785 -0.00897,0.02676l0.18221,0.14122c-0.14174,0.17588 -0.28424,0.35097 -0.42741,0.5253c-1.37068,3.43218 -4.15289,6.22967 -6.53319,9.18279c-3.87425,4.80659 -8.31485,9.9655 -11.28858,15.38822c-2.00413,3.7659 -3.80401,7.26242 -5.21184,11.29968l-0.13437,0.31643c0,0 -0.50089,1.14525 -1.64615,0.64437c-1.14525,-0.50089 -0.64437,-1.64615 -0.64437,-1.64615l0.06428,-0.13779c1.45083,-4.16061 3.30956,-7.78778 5.37372,-11.66632c1.56634,-2.839 3.49096,-5.45113 5.52542,-7.9905c-1.43227,1.5427 -2.82774,3.1223 -4.15691,4.76974c-4.39104,4.85448 -8.47768,10.77126 -9.61649,17.38995c-0.37468,2.17762 0.27447,4.47458 0.48135,6.64048c0,0 0.11833,1.24438 -1.12607,1.36272c-1.24438,0.11833 -1.36272,-1.12607 -1.36272,-1.12607c-0.22903,-2.42019 -0.86239,-4.86126 -0.45703,-7.29724c1.17477,-7.0596 5.51269,-13.4079 10.17901,-18.59239c3.1252,-3.87895 6.62259,-7.37531 10.10098,-10.90035c1.40436,-1.85025 2.80392,-3.70213 4.13115,-5.60708z" fill="url(#color-9)" stroke="none" stroke-width="0.5" stroke-linecap="butt" stroke-linejoin="miter"/><path d="M259.06391,117.70723c-0.87144,-0.89614 0.02469,-1.76759 0.02469,-1.76759l0.11481,0.02933c2.71567,-6.50334 6.05659,-12.66653 8.76211,-19.15379c-0.77188,1.5428 -1.55615,3.07831 -2.36594,4.59894c-2.25655,4.23734 -5.47663,7.92137 -7.78129,12.13542c0,0 -0.60024,1.09647 -1.69668,0.49623c-1.09647,-0.60024 -0.49623,-1.69668 -0.49623,-1.69668c2.30215,-4.20159 5.52423,-7.8769 7.76545,-12.10601c2.09424,-3.95176 4.02978,-7.99443 6.01944,-12.00912c1.11502,-2.54553 2.45951,-5.14977 3.3551,-7.75374l0.48998,-1.40424v0c0.1054,-0.30205 0.32601,-0.56389 0.63686,-0.71393c0.62172,-0.30009 1.369,-0.03934 1.66908,0.58238c0.13497,0.27965 0.15649,0.5847 0.08273,0.86302l-0.62286,2.41338l-0.21308,-0.05499c-0.01448,0.03778 -0.02902,0.07555 -0.04362,0.11331c-0.88696,12.2324 -8.67474,23.61607 -13.25302,34.6506l-0.6799,0.80216c0,0 -0.89614,0.87144 -1.76759,-0.02469z" fill="url(#color-10)" stroke="none" stroke-width="0.5" stroke-linecap="butt" stroke-linejoin="miter"/><path d="M258.23141,106.04552c0,0 -11.47693,-20.27666 -15.03246,-26.48228c-0.42293,-0.73816 -2.73825,0.41292 -4.13773,-0.39594c-3.32232,-1.92019 -6.91643,-5.68155 -6.91643,-5.68155c0,0 8.59776,2.67081 9.41309,1.82469c0.64774,-0.67222 0.19609,-2.36917 0.37434,-2.52819c0.15866,-0.14154 1.60773,0.36761 2.28776,-0.14363c1.21024,-0.90984 2.45885,-12.91494 2.45885,-12.91494c0,0 1.4254,6.20479 1.47366,10.96294c0.02737,2.69757 -1.65771,4.57466 -1.14142,5.47577c3.55553,6.20558 14.31957,25.93597 14.31957,25.93597c0,0 5.31466,-0.36302 5.35065,0.45801c0.01749,0.39928 -2.6309,-0.93365 -3.03922,1.38787c-0.26463,1.50461 6.33411,-0.77715 6.60794,0.26956c0.18966,0.72492 -5.9269,5.04574 -5.97458,5.08826c-0.10698,0.09545 0.37489,-2.05393 0.13873,0.87676c-0.18627,2.31183 0.7161,6.63546 0.47758,6.48795c-0.15368,-0.09505 -0.45301,0.40907 -0.5485,-0.43029c-0.27549,-2.42159 -1.94471,-4.68691 -1.94471,-4.68691c0,0 -2.66249,0.21609 -3.86365,-0.73454c-0.56972,-0.45091 -7.81528,3.2806 -8.13649,2.672c-0.63317,-1.1997 5.95988,-6.76058 5.83849,-6.92091c-0.71112,-0.93924 1.9945,-0.52061 1.9945,-0.52061z" fill="url(#color-11)" stroke="#000000" stroke-width="0" stroke-linecap="butt" stroke-linejoin="miter"/></g></g></svg>