<svg version="1.1" xmlns="http://www.w3.org/2000/svg" xmlns:xlink="http://www.w3.org/1999/xlink" width="201.8283" height="324.74242" viewBox="0,0,201.8283,324.74242"><g transform="translate(-239.7725,-52.36308)"><g data-paper-data="{&quot;isPaintingLayer&quot;:true}" fill-rule="nonzero" stroke-width="2" stroke-linejoin="miter" stroke-miterlimit="10" stroke-dasharray="" stroke-dashoffset="0" style="mix-blend-mode: normal"><g><path d="M363.11311,252.7322c3.71996,-2.42889 8.93686,-7.50763 12.80954,-7.29877c7.34196,0.39596 16.39265,15.41332 11.21214,27.82728c-0.84858,2.03345 -3.01852,6.39089 -4.71686,5.01275c-0.37092,-0.30101 -1.16211,-3.00329 -1.68763,-2.61669c-0.17259,0.12697 -0.96964,4.47847 -1.22595,5.10635c-1.36699,3.34845 -3.65456,6.63923 -6.19646,7.02652c-2.49283,0.37983 -2.264,-6.45068 -3.30989,-6.4322c-1.57063,0.02774 -5.37616,7.76513 -9.13299,2.07812c-2.03277,-3.07717 -0.51286,-13.71833 -0.70404,-13.99324c-0.9928,-1.42767 -6.17687,1.58175 -7.28186,-5.96224c-1.01626,-6.93841 6.96692,-12.42725 10.1276,-11.08298z" fill="#feed00" stroke="#000000" stroke-linecap="round"/><path d="M379.76382,265.51759c-1.00613,1.72669 -2.34866,2.67536 -3.71191,2.85935c-1.50897,0.20367 -1.84235,-3.06074 -2.97417,-4.71255c-1.18119,-1.72387 -2.87966,-1.5592 -2.73868,-3.94505c0.11615,-1.96562 0.66564,-3.94436 1.62319,-5.58765c2.1198,-3.63791 5.58469,-4.03822 7.73903,-0.89408c2.15435,3.14414 2.18234,8.64206 0.06254,12.27998z" fill="#ffa600" stroke="none" stroke-linecap="butt"/><path d="M359.81221,264.05491c-0.99156,2.1408 -2.88136,2.67574 -4.221,1.19487c-1.33963,-1.48088 -1.62179,-4.41683 -0.63023,-6.55762c0.99156,-2.1408 2.88136,-2.67574 4.221,-1.19488c1.33963,1.48088 1.62181,4.41684 0.63024,6.55762z" fill="#ffa600" stroke="none" stroke-linecap="butt"/><path d="M366.92138,281.36925c-0.97834,2.11224 -2.84387,2.63907 -4.16675,1.17669c-1.32289,-1.46237 -1.60221,-4.36018 -0.62386,-6.47242c0.97834,-2.11224 2.84387,-2.63907 4.16675,-1.1767c1.32289,1.46237 1.60221,4.36018 0.62386,6.47242z" fill="#ffa600" stroke="none" stroke-linecap="butt"/><path d="M376.73095,282.75751c-0.96513,2.0837 -2.62987,2.79748 -3.71832,1.59426c-1.08845,-1.20321 -1.18843,-3.8678 -0.22331,-5.95149c0.96513,-2.0837 2.62987,-2.79748 3.71832,-1.59426c1.08845,1.20321 1.18843,3.86777 0.22331,5.95149z" fill="#ffa600" stroke="none" stroke-linecap="butt"/><path d="M386.22953,272.93974c-0.91223,1.96953 -2.24904,2.90586 -2.98584,2.09138c-0.73679,-0.8145 -0.59458,-3.07135 0.31766,-5.04089c0.91223,-1.96953 2.24904,-2.90586 2.98584,-2.09138c0.73679,0.8145 0.59458,3.07135 -0.31766,5.04089z" fill="#ffa600" stroke="none" stroke-linecap="butt"/></g><path d="M305.01944,266.4217c-8.47679,1.13312 -19.1702,-4.8324 -26.1171,-9.44955c-21.01292,-13.96592 -43.08028,-40.77966 -37.15007,-68.25983c4.01087,-18.58612 21.67045,-26.99356 38.25089,-31.46535c6.29034,-1.69652 19.23582,-3.92371 20.59818,5.06885c0.36254,2.39306 -0.13957,4.73985 -1.7933,6.59664c-3.57262,4.01131 -11.11994,3.15748 -15.90474,5.05807c-14.4579,5.74286 -23.80891,18.12283 -20.2017,33.91248c3.81932,16.71813 20.35032,26.94432 36.27952,29.41721c8.23431,1.2783 17.18117,-0.1965 24.75555,4.3716c22.45651,13.54347 -2.19306,27.01923 -17.62862,25.38138z" fill="#feed00" stroke="#000000" stroke-linecap="round"/><path d="M299.31207,259.88005c5.53275,1.53324 13.30496,2.63759 19.08244,3.44874c6.29945,0.88444 14.19556,4.22509 20.37323,6.06378c3.62886,1.08008 12.11443,2.698 14.5451,5.02866c1.57339,1.50866 0.71661,3.9639 0.78593,5.37874c0.25754,5.25753 -2.20885,10.19435 -1.97634,15.54625c0.27467,6.32211 -3.34588,11.6328 -4.26469,17.75882c-1.71762,11.45184 -4.14229,22.88224 -11.80041,32.70998c-3.34884,4.29761 2.80676,12.5096 -6.56975,12.95534c-3.32032,0.15783 -12.77493,4.63702 -16.11606,3.64258c-4.84697,-1.44262 -9.32535,-7.94346 -14.95004,-10.75755c-7.16183,-3.58314 -18.37788,-2.37235 -23.58097,-5.52513c-2.60443,-1.57814 -5.38851,-5.79486 -6.30731,-8.08056c-1.15174,-2.86521 5.26573,-12.42228 6.38313,-15.48276c5.49498,-15.05033 7.21153,-23.73842 12.70881,-38.80272c1.80638,-4.95004 6.2282,-21.66799 10.32618,-24.28831z" fill="#3c2c1f" stroke="#000000" stroke-linecap="round"/><g><path d="M299.85229,238.76988c3.38133,0.60286 7.06377,9.56378 2.41879,14.81721c-5.0504,5.71194 -7.7451,0.35752 -9.35702,1.00993c-0.31041,0.12562 -4.85672,9.866 -8.24135,11.33078c-6.25519,2.7071 -5.21035,-5.85196 -6.51017,-6.73406c-0.86557,-0.5874 -4.40907,5.25655 -6.2885,3.57538c-1.91639,-1.71423 -2.03216,-5.72033 -1.34564,-9.27131c0.12874,-0.66586 1.84092,-4.74498 1.76586,-4.94566c-0.22857,-0.61106 -2.36866,1.21878 -2.84383,1.26797c-2.17554,0.22515 -1.60954,-4.60968 -1.20806,-6.7762c2.45093,-13.22638 18.24049,-20.85041 24.60403,-17.16715c3.35661,1.94284 4.94722,9.04772 6.73357,13.11548z" fill="#feed00" stroke="#000000" stroke-linecap="round"/><path d="M285.41524,230.34454c3.52302,-1.45436 6.2051,0.77547 5.99058,4.98047c-0.0969,1.89947 -0.71887,3.85662 -1.69647,5.56584c-1.18661,2.07464 -2.5186,1.00798 -4.45021,1.80539c-1.85087,0.76407 -3.91506,3.31485 -5.06706,2.3192c-1.04078,-0.89951 -1.64605,-2.42789 -1.54422,-4.42375c0.21453,-4.205 3.24437,-8.79278 6.76739,-10.24715z" fill="#ffa600" stroke="none" stroke-linecap="butt"/><path d="M300.26562,245.13146c1.93139,-0.50732 3.22108,0.97398 2.88062,3.30857c-0.34047,2.33459 -2.18216,4.63839 -4.11354,5.1457c-1.93139,0.50732 -3.2211,-0.97396 -2.88064,-3.30855c0.34047,-2.33459 2.18216,-4.63839 4.11355,-5.1457z" fill="#ffa600" stroke="none" stroke-linecap="butt"/><path d="M284.79361,255.80817c1.90724,-0.50096 3.18107,0.96024 2.84514,3.26368c-0.33592,2.30344 -2.15437,4.57688 -4.06162,5.07784c-1.90724,0.50096 -3.18107,-0.96024 -2.84514,-3.26368c0.33592,-2.30344 2.15437,-4.57688 4.06162,-5.07784z" fill="#ffa600" stroke="none" stroke-linecap="butt"/><path d="M275.20124,251.82345c1.56925,-0.41219 2.57274,1.09575 2.24137,3.36807c-0.33138,2.27232 -1.87216,4.44855 -3.44142,4.86074c-1.56925,0.41219 -2.57274,-1.09575 -2.24137,-3.36807c0.33138,-2.27232 1.87216,-4.44855 3.44142,-4.86074z" fill="#ffa600" stroke="none" stroke-linecap="butt"/><path d="M271.66637,238.87606c1.06227,-0.27903 1.66949,1.23593 1.35626,3.38374c-0.31321,2.14781 -1.42827,4.11515 -2.49054,4.39416c-1.06227,0.27903 -1.66949,-1.23593 -1.35626,-3.38374c0.31321,-2.14781 1.42826,-4.11513 2.49054,-4.39416z" fill="#ffa600" stroke="none" stroke-linecap="butt"/></g><path d="M306.84149,221.04416c-3.4006,5.61158 -7.03933,16.59826 -12.36366,20.41828c-4.24631,3.04657 -20.65169,-8.37001 -22.00994,-12.77893c-0.47244,-1.53354 8.84052,-16.40239 10.20159,-18.54114c10.44201,-16.40813 21.81761,-31.56657 33.42725,-47.23806c3.18726,-4.30239 8.32666,-6.3561 11.48896,-10.34933l1.11378,0.37812c11.74874,6.22726 21.32395,15.19513 35.0444,17.65125c5.49112,0.98298 9.94795,0.28331 14.91171,-2.25508c1.1349,-0.58037 4.29583,-1.84585 5.41155,-0.51317c2.51115,2.99947 2.02419,11.49168 2.69432,15.29602c2.76371,15.68938 2.9396,32.04174 1.64823,47.93167c-0.37806,4.65192 2.30583,12.77064 -0.08179,16.83767c-2.79626,4.76307 -13.2854,8.48848 -18.21585,10.597c-1.37212,0.58679 -5.35299,3.44437 -6.17908,1.19841c-1.15087,-3.12898 2.91398,-23.03033 2.91398,-23.03033c0,0 -3.86113,15.5643 -5.26272,23.42943c-0.68742,3.85752 -0.66685,10.5525 -3.52657,13.62636c-2.17821,2.34131 -11.02765,0.61626 -13.88545,0.0967c-11.56,-2.10171 -22.46475,-7.69974 -34.0267,-9.76261c-3.758,-0.67051 -13.76284,-0.69853 -16.47921,-3.40732c-1.44773,-1.44371 1.01896,-6.44105 1.51735,-8.11556c2.19416,-7.37198 3.57319,-16.17719 7.16871,-22.97232" fill="#fffe8a" stroke="#000000" stroke-linecap="round"/><path d="M336.85251,146.65685c14.1784,1.64185 27.99644,3.09732 41.45211,8.28044c2.86955,1.10536 12.80292,5.25141 10.67601,9.54631c-2.89069,5.83718 -9.8705,7.23783 -15.85452,6.91678c-10.78776,-0.57879 -34.79322,-6.86536 -42.28274,-14.83912c-5.33029,-5.6749 -1.50431,-12.36812 6.20954,-10.07222z" fill="#fffe8a" stroke="#000000" stroke-linecap="round"/><g stroke-linecap="round"><path d="M361.91972,79.59599c-13.34243,1.3101 -18.27046,13.45441 -24.81029,23.22727c-0.71871,1.07402 -6.78708,10.61773 -7.9751,10.08441c-0.49325,-0.22142 -0.07602,-1.07986 -0.07054,-1.62049c0.04354,-4.30335 -0.30976,-8.62212 -0.29294,-12.94058c0.04192,-10.77727 1.14753,-21.57715 2.33807,-32.29955c0.34186,-3.07906 0.56321,-10.27405 2.57604,-12.68397c1.28983,-1.54429 1.6185,-0.61386 2.66854,0.26416c5.3956,4.5117 10.57142,9.25488 15.75249,14.00651c3.80479,3.48942 8.65049,7.11483 10.89768,11.8633z" fill="#feed00" stroke="#000000"/><path d="M355.06778,80.44334c-8.73723,1.64583 -11.2823,9.9565 -15.03082,16.79487c-0.41196,0.75153 -3.86241,7.41093 -4.67841,7.12814c-0.33879,-0.11742 -0.11337,-0.70889 -0.14138,-1.06635c-0.22296,-2.84528 -0.70893,-5.67756 -0.95043,-8.53128c-0.60268,-7.12179 -0.50401,-14.32076 -0.34472,-21.47347c0.04574,-2.05398 -0.22889,-6.81987 0.9598,-8.52957c0.76172,-1.0956 1.03325,-0.50018 1.77827,0.01843c3.82817,2.66479 7.52468,5.49534 11.22517,8.33116c2.7175,2.08253 6.13058,4.19399 7.89279,7.19935z" fill="#ffa700" stroke="none"/></g><g stroke-linecap="round"><path d="M395.07016,90.27625c4.31562,-2.99557 10.32367,-3.72195 15.36164,-4.8495c6.86033,-1.5354 13.71188,-3.06609 20.63852,-4.28654c1.348,-0.23751 2.09684,-0.88015 2.44487,1.10162c0.54312,3.09261 -2.85263,9.43974 -4.09158,12.27918c-4.31448,9.88798 -8.74119,19.8008 -14.07865,29.16364c-2.13873,3.7517 -4.5984,7.31916 -6.70642,11.07108c-0.26483,0.47137 -0.3312,1.4235 -0.86916,1.36948c-1.29572,-0.13011 -1.79716,-11.4286 -1.88463,-12.71794c-0.79583,-11.7322 0.98787,-24.71637 -9.92432,-32.50483z" fill="#feed00" stroke="#000000"/><path d="M400.92582,94.58776c3.02606,-1.72641 7.0374,-1.85482 10.43138,-2.30499c4.62166,-0.613 9.23726,-1.22341 13.8843,-1.62446c0.90437,-0.07807 1.43663,-0.45876 1.55062,0.87073c0.17788,2.07471 -2.43656,6.06893 -3.42108,7.87216c-3.42846,6.27953 -6.93252,12.56892 -11.00603,18.4417c-1.63227,2.35324 -3.46575,4.56598 -5.07774,6.92115c-0.20252,0.29588 -0.30206,0.92098 -0.65427,0.85385c-0.84835,-0.16173 -0.5187,-7.65474 -0.50107,-8.51157c0.16051,-7.79672 2.09828,-16.26957 -4.65466,-22.05282z" fill="#ffa700" stroke="none"/></g><path d="M378.04437,82.02186c10.00466,2.97773 22.27117,5.58113 27.13308,15.61871c4.20568,8.68278 2.04462,14.71629 1.54628,23.41328c-0.15305,2.67108 1.1153,5.05737 0.59257,7.92077c-3.16942,17.36102 -17.66326,35.5713 -38.70256,31.68233c-17.62137,-3.25719 -36.77128,-12.76924 -42.04115,-30.46242c-3.29063,-11.04805 4.68845,-22.33333 10.39072,-30.49238c2.20946,-3.1614 2.35022,-7.58335 4.8107,-10.86708c9.63226,-12.85514 22.6736,-10.57429 36.53108,-6.44983z" fill="#feed00" stroke="#000000" stroke-linecap="round"/><path d="M402.66377,132.26674c3.99876,1.5969 13.4901,9.03378 7.55786,13.55046c-1.5435,1.17518 -7.59027,0.21882 -8.28628,1.26551c-0.52197,0.78495 0.577,1.81552 0.63117,2.7566c0.14496,2.51818 -0.32775,6.05372 -1.38584,8.35675c-2.91096,6.3361 -11.55014,0.05201 -13.57249,-3.6122" fill="#feed00" stroke="#000000" stroke-linecap="round"/><path d="M330.83794,140.6214c-3.69689,1.96197 -14.3663,2.49913 -13.33876,-4.39752c0.37348,-2.50679 1.91106,-5.7254 3.40942,-7.75444c0.55998,-0.75831 2.04362,-1.02021 2.03583,-1.96282c-0.01036,-1.25694 -5.59597,-3.76277 -6.24563,-5.59072c-2.49689,-7.02548 9.51638,-8.06184 13.73754,-7.2122" fill="#feed00" stroke="#000000" stroke-linecap="round"/><path d="M300.65489,83.02082c13.66195,4.29038 20.87884,17.45071 30.10406,27.11099" fill="none" stroke="#000000" stroke-linecap="round"/><path d="M301.20971,98.03056c10.69385,1.82282 20.24508,8.20924 29.53518,13.38083" fill="none" stroke="#000000" stroke-linecap="round"/><path d="M303.30725,106.90999c8.79197,0.92049 18.01137,2.06261 26.495,4.58763" fill="none" stroke="#000000" stroke-linecap="round"/><path d="M406.12948,131.09752c10.42356,-5.64192 22.35131,-12.76982 34.47131,-9.17977" fill="none" stroke="#000000" stroke-linecap="round"/><path d="M403.35172,131.18774c12.74051,-4.37768 22.48337,-1.07642 33.14727,5.98403" fill="none" stroke="#000000" stroke-linecap="round"/><path d="M406.31998,133.53835c9.22566,-0.84392 18.6236,5.55752 24.77559,11.89756" fill="none" stroke="#000000" stroke-linecap="round"/><path d="M360.5567,128.92282c3.56543,1.0612 7.38826,1.94735 10.79655,3.44225c0.43258,0.18975 1.26081,0.22645 1.23325,0.69803c-0.03611,0.61771 -7.50203,2.33368 -8.22117,2.06009c-1.61714,-0.6152 -3.14604,-4.5942 -3.40796,-6.08111z" fill="#000000" stroke="#000000" stroke-linecap="round"/><path d="M366.80368,111.31361c-2.01916,6.78402 -6.19684,4.36739 -12.87808,2.37882c-6.68124,-1.98856 -13.33597,-2.79603 -11.31681,-9.58006c2.01916,-6.78402 9.07222,-10.67151 15.75344,-8.68294c6.68124,1.98856 10.4606,9.10015 8.44144,15.88418z" fill="#ffffff" stroke="#000000" stroke-linecap="butt"/><path d="M400.53525,120.91247c-2.01916,6.78402 -6.88335,4.9956 -13.56457,3.00704c-6.68124,-1.98856 -12.64945,-3.42425 -10.63029,-10.20827c2.01916,-6.78402 9.07222,-10.67151 15.75344,-8.68294c6.68124,1.98856 10.46059,9.10015 8.44142,15.88417z" fill="#ffffff" stroke="#000000" stroke-linecap="butt"/><path d="M366.27314,111.58542c-1.44226,4.84573 -5.03557,4.22273 -9.69492,2.83595c-4.65935,-1.38678 -8.62035,-3.0122 -7.17809,-7.85794c1.44226,-4.84573 6.3886,-7.64975 11.04795,-6.26297c4.65935,1.38678 7.26733,6.43923 5.82507,11.28497z" fill="#ffffff" stroke="#000000" stroke-linecap="butt"/><path d="M400.84295,121.45887c-1.44226,4.84573 -5.56912,4.89647 -10.22847,3.50969c-4.65935,-1.38678 -8.08681,-3.68595 -6.64455,-8.53168c1.44226,-4.84573 6.3886,-7.64975 11.04795,-6.26297c4.65935,1.38678 7.26733,6.43923 5.82507,11.28497z" fill="#ffffff" stroke="#000000" stroke-linecap="butt"/><path d="M359.32234,82.76851c1.63032,-3.37162 5.52245,-3.42584 9.36249,-3.60513c0.4253,-0.01985 4.01208,-0.13986 4.07296,-0.6397c0.11074,-0.90931 -5.13404,-1.78982 -3.90965,-3.48401c1.64448,-2.27547 11.59096,1.33216 13.76669,1.9795c0.31336,0.09324 3.98221,1.3327 4.07593,1.20842c0.40161,-0.53257 -5.23222,-4.36635 -4.57029,-5.03456c0.36178,-0.36524 4.45593,2.4868 4.85797,2.79416c5.26717,4.02674 5.55509,8.08091 7.75816,13.39069" fill="#feed00" stroke="#000000" stroke-linecap="round"/><path d="M341.54829,94.96654c-1.94129,-1.79047 -1.36486,-3.77632 -2.61586,-5.91026c-0.63872,-1.0895 -5.1714,-3.06906 -4.62297,-4.5902c0.72136,-2.00077 6.66025,-1.08921 8.06723,-1.2064c0.99051,-0.0825 2.02241,-8.39 8.41224,-0.82701" fill="#feed00" stroke="#000000" stroke-linecap="round"/><path d="M329.60376,197.53728c1.04194,0.8464 4.40971,1.58162 4.43231,3.19289c0.07583,5.40399 -5.08165,8.69518 -9.43375,6.32407c-2.89803,-1.57889 5.57376,-10.08444 5.57376,-10.08444c0,0 7.08303,-22.66813 12.77259,-32.97577" fill="#ffaf36" stroke="#000000" stroke-linecap="round"/><path d="M355.05855,205.7442c12.24375,-7.5226 2.8704,19.60909 -4.16541,9.10343c-3.80939,-5.68804 3.60859,-7.68385 4.81082,-9.95339c5.67477,-10.71273 4.52019,-24.34163 11.40408,-34.8666" fill="#ffaf36" stroke="#000000" stroke-linecap="round"/><path d="M309.06885,224.43552c4.20277,-1.70527 8.28188,0.05592 12.50402,0.6191c13.61784,1.81643 27.88644,6.99965 40.22929,12.96262" fill="none" stroke="#000000" stroke-linecap="round"/><path d="M355.05479,268.20503c2.43763,-8.55898 3.44985,-17.66734 7.41617,-25.78613" fill="none" stroke="#000000" stroke-linecap="round"/><path d="M308.33486,228.65629c-2.42925,8.16186 -4.40574,16.39202 -7.0231,24.47902" fill="none" stroke="#000000" stroke-linecap="round"/><path d="M337.51494,157.09942c-2.25033,-1.62769 -3.22124,-4.60213 -5.11363,-6.67008" fill="none" stroke="#fcec41" stroke-linecap="round"/><path d="M379.2207,167.07887c1.87122,-0.5747 3.57626,-0.96241 5.52872,-1.14103" fill="none" stroke="#fcec41" stroke-linecap="round"/><path d="M345.87659,180.13408l2.73412,-9.18616" fill="none" stroke="#fcec41" stroke-linecap="round"/><path d="M351.0379,175.08497l-1.4004,4.70512" fill="none" stroke="#fcec41" stroke-linecap="round"/><path d="M354.46538,175.86121l-0.39483,3.7849" fill="none" stroke="#fcec41" stroke-linecap="round"/><path d="M286.93226,237.53521l23.11197,-32.02966l-17.4519,33.19203z" fill="#fce541" stroke="#fcec41" stroke-linecap="round"/><path d="M286.93226,237.53521l23.11197,-32.02966l-17.4519,33.19203z" fill="#fce541" stroke="#fcec41" stroke-linecap="round"/><path d="M367.86143,256.90959l1.60764,-30.84473l5.29843,27.82071z" fill="#fce541" stroke="#fcec41" stroke-linecap="round"/><path d="M322.18195,277.7066l-22.56303,73.36202" fill="none" stroke="#000000" stroke-linecap="round"/><path d="M299.54201,359.78146c-2.47334,8.31 -12.93654,12.52915 -23.3702,9.42374c-10.43367,-3.10542 -16.88678,-12.35943 -14.41343,-20.66944c2.47334,-8.31 12.93654,-12.52915 23.3702,-9.42374c10.43367,3.10542 16.88678,12.35943 14.41343,20.66944z" fill="#000000" stroke="#000000" stroke-linecap="butt"/><path d="M337.76288,365.66111c-2.47334,8.31001 -12.93654,12.52915 -23.37021,9.42373c-10.43366,-3.10541 -16.88678,-12.35943 -14.41343,-20.66944c2.47334,-8.31001 12.93654,-12.52915 23.3702,-9.42374c10.43367,3.10542 16.88679,12.35943 14.41344,20.66945z" fill="#000000" stroke="#000000" stroke-linecap="butt"/><path d="M350.51252,149.81088l1.91581,-6.43681l18.5872,5.53219l-1.91581,6.43681c0,0 -4.22955,-7.08672 -7.34441,-8.01381c-3.08049,-0.91686 -11.2428,2.48162 -11.2428,2.48162z" fill="none" stroke="#000000" stroke-linecap="butt"/></g></g></svg>