<svg version="1.1" xmlns="http://www.w3.org/2000/svg" xmlns:xlink="http://www.w3.org/1999/xlink" width="116.85464" height="328.70501" viewBox="0,0,116.85464,328.70501"><defs><linearGradient x1="328.0306" y1="179.23894" x2="326.654" y2="205.03209" gradientUnits="userSpaceOnUse" id="color-1"><stop offset="0" stop-color="#44bb0a"/><stop offset="1" stop-color="#236a06"/></linearGradient><linearGradient x1="318.03336" y1="41.59038" x2="324.03202" y2="189.92478" gradientUnits="userSpaceOnUse" id="color-2"><stop offset="0" stop-color="#435d00"/><stop offset="1" stop-color="#44d20d"/></linearGradient><linearGradient x1="314.83168" y1="225.93405" x2="311.58346" y2="286.79555" gradientUnits="userSpaceOnUse" id="color-3"><stop offset="0" stop-color="#d6d6d6"/><stop offset="1" stop-color="#4b4b4b"/></linearGradient><linearGradient x1="326.78503" y1="228.46623" x2="323.56957" y2="288.71371" gradientUnits="userSpaceOnUse" id="color-4"><stop offset="0" stop-color="#d6d6d6"/><stop offset="1" stop-color="#4b4b4b"/></linearGradient><linearGradient x1="336.73444" y1="225.94245" x2="333.28522" y2="290.5699" gradientUnits="userSpaceOnUse" id="color-5"><stop offset="0" stop-color="#d6d6d6"/><stop offset="1" stop-color="#4b4b4b"/></linearGradient></defs><g transform="translate(-261.82923,-27.06794)"><g stroke-miterlimit="10"><path d="M268.92896,346.69272l5.59076,-147.18701c0,0 8.39593,-25.28669 18.82031,-25.13614c10.35225,0.14952 34.86891,0.90057 56.30206,1.2101c23.24678,0.33573 29.04179,27.56163 29.04179,27.56163l-7.89363,152.63164z" fill="#000000" stroke="#000000" stroke-width="0" stroke-linecap="butt"/><path d="M346.84837,193.17657c-0.38014,7.12258 -9.42147,12.43048 -20.19437,11.85552c-10.7729,-0.57496 -19.19791,-6.81505 -18.81777,-13.93763c0.38014,-7.12258 9.42146,-12.43048 20.19437,-11.85552c10.7729,0.57496 19.19791,6.81505 18.81777,13.93763z" fill="url(#color-1)" stroke="#000000" stroke-width="2.5" stroke-linecap="butt"/><path d="M265.80461,138.62163l-3.97538,-76.14526l10.75661,4.21263l31.25809,-39.43055l23.10691,23.80557l22.2443,-19.70095l14.16043,32.4298l10.77179,-8.18165l0.79111,77.02548l-17.5819,-38.90727l-78.59154,3.95286z" fill="#53ff10" stroke="#000000" stroke-width="0" stroke-linecap="round"/><path d="M268.14263,147.79917l-3.27537,-53.39069l107.61946,-3.87375l-0.08723,53.04828z" fill="#53ff10" stroke="none" stroke-width="0" stroke-linecap="butt"/><path d="M265.80461,138.62163l-3.97538,-76.14526l10.75661,4.21263l31.25809,-39.43055l23.10691,23.80557l22.2443,-19.70095l14.16043,32.4298l10.77179,-8.18165l0.79111,77.02548l-2.26007,-3.17489l-0.25892,14.1212l-104.25685,4.21615l-0.83775,-12.04251z" fill="#53ff10" stroke="#000000" stroke-width="0" stroke-linecap="round"/><path d="M323.25271,189.9563c-30.22793,1.22242 -56.72037,-26.26028 -57.85189,-54.24031c-0.07823,-1.93439 -0.03832,-3.84818 0.11378,-5.7354l-3.50967,-67.69472l10.75661,4.21263l31.25809,-39.43055l23.10691,23.80557l22.2443,-19.70095l14.16043,32.4298l10.77179,-8.18165l0.79111,77.02548l-0.20085,-0.28214c0.61922,27.65731 -21.72789,56.58258 -51.64061,57.79225z" fill="url(#color-2)" stroke="#000000" stroke-width="0" stroke-linecap="butt"/><path d="M350.77041,84.43507c8.23141,-0.33288 15.91265,24.33194 16.40502,36.50739c0.49238,12.17545 -5.78135,22.31544 -14.01276,22.64832c-8.23141,0.33288 -15.30344,-9.26741 -15.79581,-21.44286c-0.49238,-12.17545 5.17214,-37.37997 13.40355,-37.71285z" fill="#000000" stroke="#000000" stroke-width="2.5" stroke-linecap="butt"/><path d="M335.59701,119.20924c0.21497,2.7003 -6.24222,5.41723 -14.42253,6.06845c-8.18032,0.65121 -14.98602,-1.00989 -15.20098,-3.71019c-0.21497,-2.7003 9.37618,-4.67081 17.5565,-5.32202c8.18032,-0.65121 11.85206,0.26348 12.06702,2.96377z" fill-opacity="0.18431" fill="#000000" stroke="none" stroke-width="0" stroke-linecap="butt"/><path d="M305.41088,122.27164c0.48279,11.93846 -5.7987,21.88636 -14.03011,22.21924c-8.23141,0.33288 -15.29567,-9.07532 -15.77846,-21.01378c-0.48279,-11.93846 5.18949,-36.95087 13.4209,-37.28375c8.23141,-0.33288 15.90488,24.13983 16.38767,36.07829z" fill="#000000" stroke="#000000" stroke-width="2.5" stroke-linecap="butt"/><path d="M360.67765,121.49988c0.76647,11.49455 -2.75508,21.63926 -7.86559,22.65882c-5.11052,1.01956 -9.87476,-7.47205 -10.64122,-18.96659c-0.76648,-11.49458 2.14586,-36.7038 7.25636,-37.72341c5.11052,-1.01957 10.48398,22.53663 11.25045,34.03115z" fill="#ffffff" stroke="#000000" stroke-width="2.5" stroke-linecap="butt"/><path d="M300.03588,122.55338c0.76642,10.9894 -3.03799,20.70716 -8.49738,21.7052c-5.45939,0.99804 -10.50642,-7.10151 -11.27284,-18.0909c-0.76643,-10.98943 2.42877,-35.7717 7.88817,-36.76976c5.45939,-0.99804 11.11563,22.16605 11.88205,33.15545z" fill="#ffffff" stroke="#000000" stroke-width="2.5" stroke-linecap="butt"/><path d="M310.09885,232.45204l5.41795,-6.48142l1.0583,3.59266l1.34982,11.49525l0.84488,6.39509l-2.28212,14.64233l-0.85128,9.67214l-1.65651,3.54154c0,0 -1.04672,8.06777 -4.2497,11.29069c-0.84165,0.84689 -0.87647,-4.74875 -0.87647,-4.74875l-0.09706,-9.0184l2.10399,-6.13272l-1.45033,-34.49506z" fill="url(#color-3)" stroke="#000000" stroke-width="2.5" stroke-linecap="round"/><path d="M324.65018,228.62851l3.76643,11.31458l-0.4722,20.06011l-0.59479,16.75091c0,0 -1.75594,6.02681 -2.90519,9.09362c-0.09878,0.26359 -1.29682,2.93092 -1.62065,2.82402c-0.10856,-0.03583 0.12624,-2.36535 0.13824,-2.59013c0.15339,-2.87412 -0.42401,-8.98926 -0.42401,-8.98926l1.1142,-48.79333z" fill="url(#color-4)" stroke="#000000" stroke-width="2.5" stroke-linecap="round"/><path d="M337.0054,226.54789l1.02953,3.05945l-0.08917,1.94329l2.44239,10.02818l-2.50412,13.28174l0.46533,19.31234c0,0 -0.89465,9.81514 -4.24435,13.9622c-0.2108,0.26098 -0.83507,2.41222 -0.8377,2.41329c-0.21385,0.08699 -0.45954,-0.20238 -0.55806,-0.39936c-0.53155,-1.06281 -0.03045,-5.16099 -0.03045,-5.16099l-0.95654,-10.88737l-0.59887,-27.11954l1.27583,-12.20682l4.03687,-8.84777z" fill="url(#color-5)" stroke="#000000" stroke-width="2.5" stroke-linecap="round"/><path d="M295.77625,125.17693c0.61098,10.96041 -1.187,20.56647 -4.01589,21.45566c-2.82888,0.88919 -5.61745,-7.27516 -6.22842,-18.23557c-0.61098,-10.96048 0.57778,-35.63103 3.40667,-36.52022c2.82888,-0.88919 6.22667,22.33971 6.83764,33.30013z" fill="#000000" stroke="#000000" stroke-width="2.5" stroke-linecap="butt"/><path d="M356.28786,124.19061c0.62909,11.40828 -1.15317,21.40301 -3.98078,22.3238c-2.8276,0.9208 -5.62981,-7.58102 -6.2589,-18.98933c-0.62909,-11.40834 0.54396,-36.46755 3.37156,-37.38835c2.8276,-0.9208 6.23904,22.6456 6.86813,34.05388z" fill="#000000" stroke="#000000" stroke-width="2.5" stroke-linecap="butt"/></g></g></svg>