<svg version="1.1" xmlns="http://www.w3.org/2000/svg" xmlns:xlink="http://www.w3.org/1999/xlink" width="175.22537" height="433.10903" viewBox="0,0,175.22537,433.10903"><defs><linearGradient x1="298.94559" y1="180.126" x2="299.48673" y2="205.39871" gradientUnits="userSpaceOnUse" id="color-1"><stop offset="0" stop-color="#ffffff"/><stop offset="1" stop-color="#2c2c2c"/></linearGradient><linearGradient x1="320.79648" y1="184.09787" x2="321.40526" y2="212.52937" gradientUnits="userSpaceOnUse" id="color-2"><stop offset="0" stop-color="#ffffff"/><stop offset="1" stop-color="#2c2c2c"/></linearGradient><linearGradient x1="323.57728" y1="212.28187" x2="324.61101" y2="260.56031" gradientUnits="userSpaceOnUse" id="color-3"><stop offset="0" stop-color="#717171"/><stop offset="1" stop-color="#2c2c2c"/></linearGradient><linearGradient x1="340.85331" y1="177.78718" x2="341.39445" y2="203.0599" gradientUnits="userSpaceOnUse" id="color-4"><stop offset="0" stop-color="#ffffff"/><stop offset="1" stop-color="#2c2c2c"/></linearGradient><linearGradient x1="316.71505" y1="80.73743" x2="316.86463" y2="87.72356" gradientUnits="userSpaceOnUse" id="color-5"><stop offset="0" stop-color="#a2a2a2"/><stop offset="1" stop-color="#7f7f7f"/></linearGradient></defs><g transform="translate(-230.83266,-31.17395)"><g stroke-miterlimit="10"><g fill="#000000" stroke="none" stroke-width="0.5" stroke-linecap="butt"><path d="M265.43268,113.51775c0.55907,-0.95414 1.12714,-1.90077 1.72139,-2.82595c0.99394,-1.54689 1.82705,-3.17692 2.67313,-4.80607c-1.32199,0.58756 -2.19366,1.74055 -2.26715,3.71765c-0.8989,0.77719 -1.94815,2.5322 -2.12737,3.91435zM343.8661,204.62753c-0.06092,-0.24707 -0.08283,-0.52231 -0.08598,-0.80028c-0.19049,-1.30097 -0.60037,-2.56746 -0.85553,-3.8396c0.02122,0.99015 0.04248,1.98031 0.06393,2.97053c0.07599,3.50681 0.60482,7.09936 0.67933,10.57917c0.06145,2.86979 0.74947,6.74983 0.16272,9.48882l0.03965,0.00943l0.00933,0.49947c0,0.00003 0,0.00006 0,0.00008c0.00258,0.13765 -0.10943,0.22227 -0.25049,0.18909c-0.02147,-0.00505 -0.04238,-0.01254 -0.06241,-0.0221c0.77229,3.01389 1.11106,6.21011 1.69604,9.16624c0.71093,3.59265 1.00802,7.13912 1.94308,10.73372c0.4396,1.68993 1.05138,3.49177 1.29883,5.17162c0.07346,0.49869 0.06574,1.04714 0.06976,1.53387c0.00148,0.17889 0.03168,0.69634 0.10691,0.5527c0.22755,-0.43446 0.24699,-1.02096 0.3268,-1.58676l-0.07843,-0.02425l0.02806,-0.48716c0.00606,-0.12812 0.11476,-0.20496 0.25027,-0.17309c0.10394,0.02445 0.19468,0.10605 0.23659,0.20243l0.22706,0.49749c1.09297,2.40051 1.07196,4.813 1.94047,7.19982c1.28382,3.54632 1.40756,7.2213 1.9856,10.77811c0.16099,0.99064 1.60177,5.84742 0.78635,6.31394c-0.00642,0.00368 -0.01283,0.00725 -0.0192,0.01072c0.25862,0.7586 0.49006,1.52296 0.66778,2.31276c1.18097,3.56462 2.46387,7.21548 3.2752,10.78971c0.38421,1.74335 1.824,3.73334 2.4342,5.44801c0.50796,1.42738 0.11551,3.70721 0.10876,5.10019c-0.17986,2.42515 -1.51083,4.88635 -2.59441,6.8637c-0.37026,0.67566 -0.35324,1.59952 -0.91534,2.07041c-1.991,2.48599 -3.77451,4.63283 -6.29343,6.57543c-2.27607,2.01164 -4.48398,4.27116 -6.47032,6.5752c-1.96807,2.27335 -5.00872,3.93336 -7.37801,5.69863c-2.15973,1.46748 -5.39742,3.81301 -8.6423,3.24003c-3.5198,-0.70569 -6.87196,-0.33208 -10.5402,-1.19521c-3.52726,-0.83047 -7.01744,-2.10067 -10.64952,-2.94444c-3.58223,-0.8322 -7.09377,-1.22346 -10.70108,-2.07989c-3.23308,-0.76761 -7.77673,-3.1077 -9.73907,-6.15076c-2.25077,-3.66697 -6.58247,-3.18646 -9.55184,-2.86296c-0.78951,0.08575 -2.90819,0.7938 -3.65973,-0.19892c-0.49848,-0.65846 -1.09283,-4.65017 -1.01224,-6.02772c-2.72443,0.97229 -3.37744,3.2515 -5.13775,5.02225l0.02505,0.01891l-0.2316,0.37852c-0.04077,0.0705 -0.12552,0.10533 -0.22462,0.08202c-0.14129,-0.03324 -0.25823,-0.17209 -0.26119,-0.31013c-0.00002,-0.0008 -0.00003,-0.0016 -0.00004,-0.00239l-0.0065,-0.49854l0.00063,0.00016l-0.00065,-0.00253c0.01271,-1.90196 0.01484,-4.66867 0.62715,-6.31103c0.68428,-1.80363 1.20582,-3.84217 1.37317,-5.89224c0.09746,-1.19395 -0.31495,-2.65821 0.00825,-3.7623c-2.33185,0.6488 -4.28773,3.36859 -6.48054,4.7655l0.02308,0.02407l-0.32107,0.30291c-0.04575,0.0439 -0.11562,0.06225 -0.19459,0.04367c-0.14129,-0.03324 -0.25823,-0.17209 -0.26119,-0.31013c-0.00002,-0.00073 -0.00003,-0.00146 -0.00004,-0.00219l-0.00687,-0.49866c-0.02045,-2.46642 0.9466,-5.75393 1.79665,-7.86531c0.75236,-1.86874 1.11962,-4.28646 1.04581,-6.49033c-0.0068,-0.20307 -0.03806,-2.20591 -0.16184,-2.25329c-0.28083,-0.10748 -0.38778,0.31441 -0.63383,0.38781c-2.77461,0.81604 -4.64112,3.05856 -7.24072,4.13698l0.00869,0.41027c0,0 0,0 0,0.00001c0.00293,0.13801 -0.1092,0.22294 -0.25049,0.18971c-0.14128,-0.03324 -0.25821,-0.17208 -0.26119,-0.31011v0l-0.01074,-0.49989l0.00015,0.00004v-0.00007l0.00004,0.00001l-0.00004,-0.00005c-0.02443,-1.1694 -0.03825,-2.33368 -0.02962,-3.49485c0.02326,-3.13188 1.02691,-7.02009 1.9371,-9.80142c0.68086,-2.08051 0.98411,-4.20649 1.22876,-6.47734c0.07631,-0.70831 -0.16786,-1.70333 -0.03925,-2.40292c-0.90146,0.76027 -2.44949,1.43125 -3.09501,2.38055c-0.34453,0.50666 -0.4494,1.10208 -0.70728,1.64041l0.08859,0.05347l-0.17052,0.4191c-0.03316,0.08858 -0.12633,0.13567 -0.23757,0.1095c-0.14129,-0.03324 -0.25823,-0.17209 -0.26119,-0.31013c-0.00004,-0.00183 -0.00006,-0.00364 -0.00006,-0.00545l-0.00109,-0.49677c-0.00175,-0.87402 0.09021,-1.64232 0.28933,-2.44171c0.8009,-3.21533 1.39811,-6.44295 2.42929,-9.55339c0.7359,-2.21976 0.88709,-4.6452 1.45848,-6.9227c0.22188,-0.8844 0.81619,-1.61188 0.78643,-2.59563c-0.01445,-0.65082 0.27624,-3.79681 -0.23894,-4.29715c-0.07024,-0.06821 -0.96653,0.43388 -1.02887,0.46303c-1.00203,0.46859 -1.61418,1.37977 -2.41409,2.06246c-0.28389,0.72066 -0.58942,1.43059 -0.84691,2.16393c-0.05412,0.15414 -0.40654,1.46012 -0.47736,1.4671c-1.80946,0.17823 -0.16439,-3.34754 0.35596,-3.64005c0.14381,-0.0798 0.34597,-0.26363 0.58868,-0.50394c0.22882,-0.62098 0.44029,-1.25109 0.58767,-1.9087c0.72265,-3.22454 2.25564,-5.9276 2.86137,-9.28586c0.78973,-2.11089 1.35798,-4.4443 1.53811,-6.84303c0.03657,-0.48703 -0.1229,-1.13204 -0.0893,-1.65191c-0.75427,0.82358 -2.20889,1.37723 -3.0983,2.05233c-0.84134,1.1877 -1.91959,2.26035 -2.68483,3.49541c-0.54518,0.87988 -0.72422,2.32366 -1.30444,3.26151c-0.05404,0.17579 -0.10866,0.34896 -0.16376,0.51892l-0.1413,0.43592c-0.02855,0.09704 -0.12533,0.15017 -0.24198,0.12272c-0.14104,-0.03319 -0.25782,-0.17161 -0.26116,-0.30941c0,-0.00003 0,-0.00006 0,-0.00009l-0.01217,-0.50013l0.11709,0.02722c-0.03853,-0.98312 0.32601,-1.98098 0.8702,-2.93922c0.16958,-0.68551 0.32287,-1.3728 0.45244,-2.03411c0.64522,-3.26307 1.83657,-6.2684 2.71458,-9.42015c0.57146,-2.04576 1.15641,-4.239 1.54942,-6.36644c0.09584,-0.51877 0.01475,-1.25998 0.06475,-1.86986c-0.85646,1.38821 -2.25169,2.34728 -3.07063,3.75349c-0.55046,0.9452 -0.90269,2.20909 -1.62342,2.94694c0.00023,0.01083 0.00045,0.02165 0.00068,0.03246l0.01024,0.49975c0,0.00001 0,0.00002 0,0.00003c0.00283,0.13791 -0.10927,0.22275 -0.25049,0.18953c-0.14128,-0.03324 -0.2582,-0.17206 -0.26119,-0.31009l-0.01078,-0.4999l0.00054,0.00013l-0.00001,-0.00026c-0.031,-1.51293 -0.11005,-3.03521 0.07772,-4.48286c0.4311,-3.32366 0.59985,-6.76007 0.96885,-10.12033c-0.04112,-1.82587 -0.05298,-3.64705 -0.13127,-5.48129c-0.01114,-0.2612 0.11844,-1.60033 -0.01033,-1.77939c-0.26028,-0.3619 -0.40303,0.57057 -0.63946,0.82389c-0.12681,0.13587 -0.24474,0.22266 -0.37079,0.29087l-0.35055,0.27241c-0.04544,0.03538 -0.10956,0.0489 -0.18116,0.03205c-0.14129,-0.03324 -0.25823,-0.17209 -0.26119,-0.31013v0l-0.0107,-0.49989v0v-0.00001c-0.07651,-3.59252 0.47507,-6.74076 1.05593,-10.11918c0.36594,-2.09872 -0.01354,-4.6903 -0.06164,-6.9252c-0.0105,-0.48808 -0.148,-1.28816 -0.10813,-1.91336c-0.38912,0.3921 -0.77505,0.87575 -1.12892,1.38133c-0.12004,0.57269 -0.23365,1.14527 -0.34349,1.71426c-0.12353,0.63738 -0.45018,3.30166 -1.44715,1.84895c-0.62648,-0.91286 0.31977,-2.64383 1.32792,-3.97336c0.55491,-2.61368 1.24965,-5.22378 2.32601,-7.49813c1.34971,-2.85193 1.77432,-6.19481 3.14674,-9.09968c0.69998,-3.2016 1.94045,-6.21368 2.29156,-9.54301c0.17704,-1.67873 -0.32192,-1.68446 -0.95722,-1.06164c-0.06012,0.1768 -0.11929,0.35329 -0.1773,0.5295c-0.72323,1.345 -1.14941,2.74004 -1.63888,4.22632l-0.05849,0.45974c-0.01312,0.11956 -0.11872,0.18961 -0.24916,0.15893c-0.13562,-0.0319 -0.24881,-0.16112 -0.26028,-0.29353l-0.04859,-0.50529l0.07743,0.01259c-0.33861,-1.77795 0.6291,-2.96956 1.60175,-4.17314c0.03175,-0.06102 0.06408,-0.12192 0.09703,-0.18269c0.97718,-3.00079 2.30972,-6.05832 2.85535,-9.21768c0.55922,-3.23798 1.25569,-6.30921 1.59423,-9.6263c-2.73393,0.70733 -4.69413,2.90597 -7.19275,3.87824l0.02033,0.02777l-0.38387,0.22836c-0.04384,0.02659 -0.10121,0.03537 -0.16441,0.0205c-0.14129,-0.03324 -0.25823,-0.17209 -0.26119,-0.31013c-0.00021,-0.00979 0.00016,-0.0193 0.00108,-0.02853l0.0413,-0.48165l0.0048,0.00161l-0.00245,-0.01994c0.08043,-0.30814 0.16109,-0.61617 0.242,-0.92407c0.83711,-3.13277 2.03678,-6.07753 3.41947,-8.98115c1.36774,-2.87222 2.97878,-5.58313 4.51617,-8.33867c0.96613,-1.54453 1.87016,-3.13899 2.78975,-4.7203c-0.22375,-0.08272 -0.21728,-0.30876 -0.21728,-0.30876l0.0019,-0.06646c0.04283,-1.40285 1.15928,-3.63259 2.18832,-4.39432c-0.06332,-2.18675 1.30617,-3.6291 3.16051,-4.21317c0.26189,-0.49825 0.52768,-0.99513 0.80234,-1.48824c0,0 0.10963,-0.19664 0.34084,-0.03102c0.23122,0.16561 0.12159,0.36225 0.12159,0.36225c-0.18059,0.32365 -0.35733,0.64898 -0.53161,0.97529c0.9356,-0.17289 1.95382,-0.14746 2.95199,0.08862c0.33635,-0.51922 1.31029,-0.52219 1.87833,-0.94935c1.96107,-1.47472 3.82524,-2.46451 5.77261,-3.91499c2.43419,-1.70983 5.05233,-3.86953 8.0244,-4.7256c2.46419,-1.8835 5.36694,-3.1948 7.86305,-5.02702c0.90704,-0.61391 2.42462,-1.83886 3.57457,-2.0213c1.86152,-0.29534 3.98548,0.38797 5.88666,0.0615c2.38118,0.25549 5.00923,0.04995 7.28583,-0.02528c0.94667,-0.03128 2.13147,0.8897 2.76067,0.14013c3.58773,-0.15187 6.34064,-1.01556 9.63733,-1.89825c2.0013,-0.53173 3.49844,-1.62928 5.27868,-2.46067c0.46344,-0.21643 1.19452,-0.44068 1.73517,0.16542c0.52315,0.58649 0.80328,1.92029 1.03177,2.63369c0.85127,3.61748 1.71443,7.16958 2.49897,10.79069c0.29707,1.37119 0.42056,2.68437 0.48061,3.99204c0.01513,0.0321 0.02487,0.06603 0.02783,0.10018l0.04872,0.5053c0.01889,0.20192 0.04125,0.40487 0.06663,0.60872c0.03322,0.17175 0.05756,0.35551 0.07477,0.54737c0.39046,2.63728 1.21213,5.40629 1.50144,8.04934c0.3924,3.58495 0.46571,7.05753 0.54089,10.58037c0.06096,2.85678 0.77326,6.80956 0.0718,9.49155l0.03929,0.01469l-0.06138,0.47429c-0.01333,0.11929 -0.11883,0.18915 -0.24911,0.15849c-0.08698,-0.02046 -0.16472,-0.08094 -0.21233,-0.15662l-0.30439,-0.47343l0.01983,-0.00934l-0.0557,-0.0646c-0.05098,-0.74879 -0.21547,-1.44568 -0.40629,-2.12256c0.00377,0.75485 -0.06939,1.50833 0.03761,2.25887c0.29073,2.03917 1.01122,4.10247 1.27753,6.15663c0.46342,3.57465 0.84848,7.13774 1.31527,10.71316c0.01315,0.62154 0.45531,5.0335 -0.74677,4.27362c-0.13535,-0.08556 -0.17033,-1.04957 -0.19175,-1.23044c-0.04296,-0.36266 -0.18107,-0.78403 -0.34663,-1.22579c0.10036,0.91888 0.19404,1.83752 0.41769,2.78846c0.84778,3.60484 1.59937,7.19975 2.29148,10.7978c0.68503,3.56123 0.45475,7.07797 0.89304,10.6317c0.18711,1.52489 0.12038,3.04065 0.1423,4.53418c0.00265,0.18014 0.04518,1.15227 -0.10542,1.18176c-0.44103,0.08637 -0.91744,-1.22402 -1.23394,-2.51396c0.16091,2.34084 0.51398,4.69712 0.56842,7.02716c0.07936,3.48899 1.05306,7.17618 1.12953,10.66976c0.05968,2.78728 0.73995,6.61266 0.19687,9.31788c0.00194,0.06044 0.00385,0.11988 0.00575,0.17824l-0.00119,0.00092l0.00123,0.00028l0.00001,0.00034l0.0007,0.00016l0.01069,0.49989v0c0.00296,0.13804 -0.10919,0.22299 -0.25049,0.18975c-0.14117,-0.03322 -0.25804,-0.17187 -0.26118,-0.30979c0,-0.00001 0,-0.00003 0,-0.00004l-0.01138,-0.4991c-0.00296,-0.09096 -0.00744,-0.18169 -0.01332,-0.27223zM256.29135,155.8654c0.1437,-0.43854 0.28939,-0.86988 0.44667,-1.29467c-0.20625,0.39747 -0.35814,0.75379 -0.41598,0.99213c-0.02396,0.09876 -0.03182,0.20016 -0.03069,0.30255zM251.13914,181.21581c-0.09932,0.17511 -0.19157,0.34564 -0.27545,0.50848c-0.20675,0.40145 -0.27671,0.77411 -0.26171,1.26241c0.0059,0.19208 0.10796,0.78292 0.08439,0.58762c-0.09347,-0.77452 0.26878,-1.40335 0.4094,-2.13483c0.01438,-0.0745 0.02884,-0.14907 0.04335,-0.22369zM255.14448,246.42489c-0.58919,0.3621 -0.82587,0.74486 -0.90894,1.57688c-0.0321,0.32156 0.06252,1.32937 0.11983,1.01749c0.16514,-0.89885 0.46852,-1.7478 0.78912,-2.59437zM343.22841,222.49221c-0.10882,-0.48232 -0.30611,-1.02375 -0.52073,-1.57879c0.13068,0.39017 0.26425,0.77673 0.38702,1.15423c0.04584,0.14094 0.09038,0.28248 0.13371,0.42456z"/><path d="M372.56801,116.36258c-0.15805,-1.97215 -1.07827,-3.08676 -2.4242,-3.6172c0.91504,1.59144 1.81715,3.18431 2.8764,4.68724c0.63331,0.89888 1.24137,1.82034 1.84077,2.74967c-0.23822,-1.37321 -1.36164,-3.08171 -2.29297,-3.81971zM300.39771,214.8384l0.01,0.49913c0,0.00001 0,0.00003 0,0.00004c0.00276,0.13794 -0.10805,0.28147 -0.24768,0.32069c-0.13974,0.03926 -0.25542,-0.04082 -0.25838,-0.17886v0l-0.01071,-0.49989l0.0007,-0.00019l-0.00001,-0.00034l0.00121,-0.00034l-0.00123,-0.00086c-0.0006,-0.05839 -0.00124,-0.11786 -0.00189,-0.17832c-0.65837,-2.6795 -0.14247,-6.5305 -0.20215,-9.31777c-0.07314,-3.49365 0.74184,-7.21914 0.67178,-10.70833c-0.04534,-2.33024 0.20655,-4.69947 0.26712,-7.04505c-0.261,1.30231 -0.68089,2.63189 -1.12521,2.56449c-0.15171,-0.02302 -0.15084,-0.99607 -0.1559,-1.17616c-0.04203,-1.49309 -0.17358,-3.0046 -0.05192,-4.53611c0.28578,-3.56925 -0.09483,-7.07289 0.43714,-10.66019c0.53747,-3.62438 1.13449,-7.24818 1.82719,-10.88599c0.18274,-0.95964 0.237,-1.88143 0.29795,-2.80378c-0.14651,0.44844 -0.26644,0.87533 -0.29385,1.2395c-0.01367,0.18161 -0.00734,1.14623 -0.13891,1.23751c-1.16845,0.81063 -0.91555,-3.6162 -0.92901,-4.23773c0.31332,-3.59213 0.54551,-7.16843 0.85549,-10.75964c0.17813,-2.06368 0.80965,-4.15592 1.01283,-6.20567c0.07479,-0.75443 -0.03057,-1.50409 -0.05911,-2.25841c-0.16169,0.68442 -0.29618,1.38773 -0.31506,2.13801l-0.05288,0.06693l0.02022,0.00848l-0.28386,0.48603c-0.04433,0.07765 -0.11941,0.14139 -0.20543,0.16556c-0.12885,0.0362 -0.23725,-0.02906 -0.25567,-0.14768l-0.08164,-0.47123l0.03863,-0.01635c-0.81563,-2.64951 -0.27316,-6.62915 -0.33454,-9.48592c-0.07568,-3.52283 -0.15108,-6.99535 0.08751,-10.59382c0.17591,-2.65301 0.87831,-5.45466 1.15551,-8.10623c0.00898,-0.19243 0.02543,-0.37706 0.05128,-0.55007c0.01663,-0.20476 0.03028,-0.40847 0.0405,-0.61102l0.02705,-0.50693c0.0015,-0.03424 0.00976,-0.06855 0.02352,-0.10128c0.00401,-1.30904 0.07119,-2.6263 0.30929,-4.00895c0.62881,-3.65137 1.33913,-7.23717 2.03478,-10.88776c0.19774,-0.72251 0.42052,-2.06709 0.91809,-2.67543c0.51421,-0.62869 1.25422,-0.43594 1.7265,-0.23954c1.8142,0.75443 3.35695,1.78688 5.37918,2.23246c3.33146,0.74078 6.11881,1.48583 9.70975,1.48399c0.66071,0.72194 1.80501,-0.24891 2.75214,-0.25816c2.27773,-0.02228 4.91218,0.07058 7.28023,-0.2866c1.91341,0.2448 4.00618,-0.5288 5.87863,-0.31342c1.1567,0.13306 2.72533,1.29191 3.65781,1.86643c2.57226,1.72369 5.52846,2.90955 8.07102,4.68585c3.00598,0.72806 5.71419,2.77371 8.21932,4.37778c2.00768,1.36579 3.91252,2.27489 5.9349,3.66431c0.5858,0.40245 1.55897,0.36374 1.91724,0.86809c0.98715,-0.27859 2.00335,-0.34758 2.94548,-0.2149c-0.18809,-0.31856 -0.37859,-0.63602 -0.57287,-0.95163c0,0 -0.11794,-0.19176 0.10598,-0.36712c0.22392,-0.17535 0.34186,0.01641 0.34186,0.01641c0.29552,0.48089 0.58233,0.96594 0.8653,1.45253c1.87764,0.50416 3.30762,1.88658 3.33796,4.07403c1.0607,0.71699 2.27158,2.89689 2.37441,4.29662l0.00474,0.0663c0,0 0.01614,0.22557 -0.20386,0.31778c0.98643,1.5405 1.95789,3.09482 2.98924,4.59656c1.65392,2.68721 3.37953,5.32668 4.86896,8.13771c1.50571,2.84177 2.83033,5.73247 3.80077,8.82655c0.09402,0.30417 0.18779,0.60846 0.28134,0.91287l-0.0016,0.02003l0.00472,-0.0018l0.06188,0.47945c0.00131,0.00918 0.00209,0.01867 0.0023,0.02845c0.00296,0.13804 -0.10793,0.28178 -0.24767,0.32104c-0.0625,0.01755 -0.12019,0.01125 -0.16513,-0.01346l-0.3933,-0.21172l0.01912,-0.02862c-2.53795,-0.86443 -4.59045,-2.97715 -7.35215,-3.56681c0.48022,3.29957 1.30751,6.33815 2.00482,9.54924c0.68038,3.1331 2.14257,6.13081 3.24729,9.08702c0.03551,0.0593 0.07043,0.11876 0.10476,0.17837c1.02328,1.16084 2.04111,2.30994 1.77891,4.10075l0.07682,-0.01589l-0.02691,0.5069c-0.0058,0.13276 -0.11335,0.26671 -0.24748,0.3044c-0.12901,0.03625 -0.23751,-0.02922 -0.25574,-0.14812l-0.07812,-0.4568c-0.55265,-1.46396 -1.03814,-2.83949 -1.81828,-4.1523c-0.06549,-0.17356 -0.13216,-0.34736 -0.1998,-0.52142c-0.66137,-0.59506 -1.15963,-0.56797 -0.9109,1.10164c0.4933,3.31125 1.86155,6.26748 2.69794,9.43618c1.49549,2.84346 2.06281,6.1651 3.53337,8.95664c1.17274,2.22621 1.97856,4.80418 2.64484,7.3917c1.06415,1.28515 2.0836,2.97404 1.49678,3.91288c-0.93386,1.49405 -1.37426,-1.1538 -1.52496,-1.7853c-0.1341,-0.56376 -0.27211,-1.13096 -0.41655,-1.69798c-0.37518,-0.48996 -0.78148,-0.95666 -1.18701,-1.33174c0.06659,0.62293 -0.03654,1.42816 -0.02613,1.91624c0.04761,2.2349 -0.22058,4.84035 0.23485,6.92149c0.72494,3.35046 1.41077,6.4722 1.48811,10.06471l-0.00001,0.00001h0.00001l0.0107,0.49989v0c0.00296,0.13804 -0.10793,0.28177 -0.24767,0.32103c-0.07081,0.01989 -0.13545,0.00914 -0.18236,-0.02427l-0.3619,-0.25715c-0.12886,-0.06277 -0.25039,-0.14442 -0.3829,-0.27474c-0.24706,-0.24297 -0.42958,-1.16847 -0.67414,-0.79576c-0.12099,0.1844 0.06579,1.51676 0.06584,1.7782c0.0003,1.83589 0.0664,3.65592 0.10347,5.48187c0.51248,3.34139 0.82818,6.76742 1.40115,10.06958c0.24956,1.43829 0.23575,2.96255 0.26954,4.47543l0.00001,0.00027l0.00054,-0.00015l0.01062,0.49991c0.00294,0.13803 -0.10794,0.28174 -0.24768,0.321c-0.13966,0.03924 -0.25529,-0.04073 -0.25837,-0.17863c0,-0.00001 0,-0.00002 0,-0.00003l-0.01116,-0.49973c-0.00024,-0.01083 -0.00048,-0.02164 -0.00072,-0.03246c-0.75165,-0.70631 -1.15764,-1.95397 -1.74806,-2.87475c-0.87839,-1.36987 -2.31339,-2.26834 -3.22848,-3.61862c0.07606,0.60718 0.02678,1.35119 0.14473,1.86538c0.4837,2.10867 1.16201,4.27486 1.82051,6.29428c1.01212,3.11128 2.33102,6.06287 3.11532,9.29532c0.15776,0.65515 0.34031,1.33526 0.53909,2.01288c0.58471,0.93408 0.99163,1.91541 0.99521,2.89928l0.11582,-0.03221l0.00925,0.5002c0,0.00003 0,0.00006 0,0.00009c0.00256,0.13783 -0.10819,0.28112 -0.24769,0.32032c-0.11537,0.03241 -0.21433,-0.01653 -0.24701,-0.11226l-0.15983,-0.42948c-0.06232,-0.16745 -0.12431,-0.33812 -0.18582,-0.51144c-0.61983,-0.91215 -0.86051,-2.34694 -1.44285,-3.20269c-0.81741,-1.20117 -1.94058,-2.22668 -2.83199,-3.37728c-0.91748,-0.6364 -2.39447,-1.12729 -3.1833,-1.91782c0.05582,0.51794 -0.0759,1.16919 -0.01852,1.65422c0.28263,2.38883 0.95024,4.69578 1.82962,6.77093c0.74892,3.32926 2.39622,5.96422 3.25623,9.15487c0.17539,0.6507 0.41364,1.27119 0.66883,1.88179c0.25279,0.2297 0.46261,0.40471 0.60971,0.47828c0.53239,0.26998 2.32687,3.72209 0.51144,3.62148c-0.07106,-0.00394 -0.47905,-1.29362 -0.53972,-1.44532c-0.28864,-0.72165 -0.62428,-1.41784 -0.93877,-2.12569c-0.8284,-0.64782 -1.47899,-1.53197 -2.50016,-1.95724c-0.06353,-0.02646 -0.9805,-0.48971 -1.04774,-0.41857c-0.49329,0.52193 -0.06822,3.6526 -0.05479,4.30344c0.01237,0.98412 0.63728,1.6855 0.89682,2.55959c0.66835,2.25095 0.92322,4.66769 1.75346,6.85391c1.16338,3.06346 1.8982,6.26255 2.83599,9.44065c0.23315,0.79013 0.35791,1.55379 0.39358,2.42709l0.02017,0.49636c0.00008,0.0018 0.00014,0.00362 0.00018,0.00545c0.00296,0.13804 -0.10793,0.28177 -0.24767,0.32103c-0.11001,0.03091 -0.20512,-0.01215 -0.24204,-0.09923l-0.1883,-0.41142l0.08623,-0.05721c-0.28068,-0.5268 -0.41094,-1.11718 -0.77684,-1.60863c-0.68557,-0.92079 -2.26089,-1.5249 -3.19408,-2.24589c0.15845,0.69345 -0.04291,1.69801 0.06365,2.4024c0.34163,2.25829 0.7356,4.36934 1.50489,6.41881c1.02842,2.73982 2.19756,6.58151 2.35487,9.70952c0.05832,1.15974 0.09435,2.32354 0.12,3.49291l-0.00004,0.00005l0.00004,-0.00001v0.00008l0.00015,-0.00004l0.01065,0.4999v0c0.00295,0.13803 -0.10793,0.28176 -0.24767,0.32101c-0.13972,0.03925 -0.25538,-0.0408 -0.25838,-0.17881v0l-0.00887,-0.41026c-2.64338,-0.96614 -4.60417,-3.12671 -7.41116,-3.82325c-0.24897,-0.06279 -0.37388,-0.47973 -0.64985,-0.36032c-0.12164,0.05264 -0.06714,2.05498 -0.06525,2.25815c0.02061,2.205 0.49101,4.60478 1.32267,6.43961c0.93964,2.07306 2.04653,5.31617 2.13167,7.7812l0.01448,0.49848c0.00003,0.00072 0.00004,0.00146 0.00006,0.00219c0.00296,0.13804 -0.10793,0.28177 -0.24767,0.32103c-0.07811,0.02194 -0.14869,0.0066 -0.19628,-0.0353l-0.33374,-0.28889l0.02203,-0.02504c-2.25058,-1.30177 -4.3211,-3.93535 -6.67857,-4.48374c0.37017,1.08926 0.02081,2.56981 0.16929,3.7585c0.25495,2.04103 0.86327,4.05537 1.62412,5.82806c0.68204,1.61464 0.80261,4.37873 0.89672,6.2784l-0.00055,0.00255l0.00063,-0.00018l0.01484,0.49836c0.00003,0.00079 0.00004,0.00159 0.00006,0.00239c0.00296,0.13804 -0.10793,0.28177 -0.24767,0.32103c-0.098,0.02753 -0.18417,-0.00363 -0.22792,-0.07232l-0.24758,-0.36825l0.02421,-0.01997c-1.83448,-1.69379 -2.58445,-3.94295 -5.348,-4.79772c0.13948,1.37283 -0.28346,5.38633 -0.7533,6.06552c-0.70835,1.02398 -2.8554,0.40727 -3.64786,0.35539c-2.98049,-0.19611 -7.32879,-0.49075 -9.42053,3.2692c-1.83029,3.12428 -6.2696,5.65671 -9.46687,6.562c-3.56735,1.01005 -7.05892,1.55128 -10.60224,2.53603c-3.59264,0.99847 -7.02525,2.41689 -10.51373,3.39759c-3.62793,1.01936 -6.993,0.78958 -10.47938,1.64528c-3.21738,0.71135 -6.5525,-1.49345 -8.77307,-2.86713c-2.44268,-1.66223 -5.5516,-3.19056 -7.61517,-5.37759c-2.08313,-2.2169 -4.38574,-4.37984 -6.74583,-6.29221c-2.59975,-1.833 -4.47354,-3.90154 -6.56912,-6.30003c-0.58174,-0.4464 -0.60428,-1.37013 -1.00312,-2.02933c-1.16723,-1.92915 -2.60233,-4.33113 -2.88583,-6.74636c-0.06636,-1.39142 -0.55604,-3.65234 -0.10964,-5.10016c0.53625,-1.73923 1.88954,-3.78902 2.19876,-5.54721c0.65759,-3.60567 1.78304,-7.30811 2.81035,-10.92001c0.14374,-0.79669 0.34225,-1.57026 0.56816,-2.33923c-0.00652,-0.00319 -0.01307,-0.00649 -0.01965,-0.00989c-0.83464,-0.43119 0.39693,-5.34519 0.51537,-6.34182c0.42527,-3.57829 0.39159,-7.25521 1.52243,-10.85323c0.76555,-2.42181 0.6413,-4.8312 1.63051,-7.27628l0.20556,-0.50676c0.03774,-0.09809 0.12492,-0.1835 0.22771,-0.21237c0.13402,-0.03766 0.24591,0.03446 0.25745,0.16222l0.04888,0.48551l-0.07732,0.02758c0.10395,0.56186 0.14848,1.14698 0.39442,1.57131c0.08131,0.14028 0.08934,-0.37799 0.08316,-0.55678c-0.01682,-0.48644 -0.04801,-1.03406 0.00404,-1.53544c0.17532,-1.6889 0.70941,-3.51528 1.07627,-5.22248c0.78035,-3.63135 0.92535,-7.18727 1.48185,-10.80706c0.4579,-2.97846 0.65955,-6.18626 1.30213,-9.23044c-0.0196,0.0104 -0.04017,0.01878 -0.0614,0.02475c-0.13951,0.0392 -0.25504,-0.04056 -0.25835,-0.17819c0,-0.00003 0,-0.00005 0,-0.00008l-0.01205,-0.49942l0.03922,-0.01112c-0.70345,-2.71136 -0.18215,-6.6173 -0.2436,-9.48709c-0.07451,-3.47981 0.30006,-7.0917 0.22587,-10.59854c-0.02095,-0.99022 -0.04208,-1.98039 -0.06328,-2.97055c-0.20047,1.28191 -0.55576,2.56476 -0.6904,3.8727c0.00875,0.27785 -0.00135,0.55377 -0.05165,0.80323c-0.002,0.0907 -0.00259,0.18156 -0.00166,0.27255zM385.76302,161.79888c-0.06799,-0.23564 -0.235,-0.58514 -0.45806,-0.97342c0.17531,0.41766 0.33934,0.84239 0.50168,1.27437c-0.00324,-0.10233 -0.01544,-0.20332 -0.0436,-0.30096zM392.09211,187.4281c0.17181,0.7248 0.56065,1.33753 0.50041,2.11535c-0.01519,0.19612 0.06148,-0.39854 0.05916,-0.59069c-0.00591,-0.48851 -0.09175,-0.85782 -0.3155,-1.25005c-0.09077,-0.1591 -0.19022,-0.32553 -0.29696,-0.49624c0.0177,0.07394 0.03533,0.14781 0.05289,0.22163zM391.72822,255.08545c0.07059,0.30914 0.122,-0.7018 0.07617,-1.02168c-0.11861,-0.82771 -0.37145,-1.19998 -0.97561,-1.53654c0.35653,0.83208 0.69598,1.66725 0.89944,2.55822zM301.91655,231.95695c0.1065,-0.3824 0.2234,-0.77432 0.33725,-1.16973c-0.19067,0.56373 -0.3646,1.1131 -0.45267,1.59964c0.03721,-0.14382 0.07566,-0.28714 0.11542,-0.4299z"/></g><path d="M268.01751,459.71682c0,0 4.12301,-49.1962 3.00046,-83.69105c-1.37543,-42.26533 -10.64962,-151.35803 -10.64962,-151.35803c0,0 -5.05646,-15.6604 -0.90351,-27.22942c3.22823,-8.99301 14.93163,-14.47747 20.19419,-14.8732c11.94933,-0.89857 40.28625,-2.39429 65.02596,-4.25469c13.38319,-1.0064 28.97267,-2.12697 34.65139,8.27562c5.70704,10.45446 1.46991,32.4349 1.46991,32.4349c0,0 -1.10266,102.42806 -0.1413,144.95247c0.86751,38.37304 5.65689,99.02151 5.65689,99.02151z" fill="#000000" stroke="#000000" stroke-width="2.5" stroke-linecap="butt"/><path d="M290.5294,180.35542c0.94633,0.75808 2.24985,0.57057 3.35213,0.97401c0.88743,0.32481 1.4349,1.37298 2.30223,1.88797c2.67227,1.58677 5.92133,1.98321 8.795,2.54813c0.76115,0.14963 5.22275,0.19037 5.52201,1.06397c0.14114,0.41205 -2.63278,5.37333 -2.98696,5.96045c-3.40017,5.63632 -7.37247,10.57448 -13.08927,11.89108c-1.00586,0.23165 -5.49183,1.70051 -6.15674,0.38469c-0.47992,-0.94972 -0.09061,-4.23186 -0.1156,-5.39864c-0.08639,-4.03454 -0.26098,-8.591 0.65438,-12.46695c0.53074,-2.24733 1.29513,-4.44193 1.24285,-6.88365z" fill="url(#color-1)" stroke="#000000" stroke-width="2.5" stroke-linecap="round"/><path d="M310.73031,187.97671c1.43702,-0.05143 2.02561,-1.12327 3.28816,-1.43771c4.63025,-1.15321 10.76476,-3.80773 15.27345,-1.82639c0.6768,0.29743 1.88925,1.05163 2.05041,2.05957c0.51057,3.19312 -2.79533,16.13507 -4.15398,19.30993c-0.79932,1.86783 -1.01733,4.26382 -2.48986,5.61044c-2.37181,2.16899 -5.16065,-0.59015 -7.02066,-1.74376c-1.04338,-0.64711 -2.10924,-0.92475 -2.80839,-2.22407c-1.75832,-3.26771 -4.75962,-16.79701 -4.51057,-20.82023z" fill="url(#color-2)" stroke="#000000" stroke-width="2.5" stroke-linecap="round"/><path d="M321.95982,212.35916c9.37497,3.02317 5.55015,10.20594 7.0665,19.69067c0.77787,4.86552 2.91317,9.30893 2.72937,14.51796c-0.1841,5.21731 -0.98239,12.78753 -6.10347,13.74919c-1.42082,0.26681 -5.10042,0.66707 -6.18885,-0.55225c-1.09508,-1.22676 -1.44586,-4.7614 -1.79379,-6.57232c-1.71883,-8.94638 -0.57055,-16.50256 0.48113,-25.60625c0.47443,-4.10675 -0.54246,-12.91461 3.05494,-15.2535z" fill="url(#color-3)" stroke="#000000" stroke-width="2.5" stroke-linecap="round"/><path d="M349.74946,177.5967c0.05228,2.44173 0.90993,4.6016 1.53636,6.82414c1.08043,3.83321 1.10103,8.39295 1.18742,12.42751c0.02498,1.16679 0.55442,4.42924 0.1156,5.39864c-0.60799,1.34308 -5.1527,0.0676 -6.16755,-0.12079c-5.76792,-1.07068 -9.94795,-5.83427 -13.58626,-11.3199c-0.37899,-0.57142 -3.36274,-5.4094 -3.23935,-5.82713c0.26159,-0.88561 4.71736,-1.1173 5.47141,-1.29936c2.84687,-0.68741 6.07597,-1.22257 8.67788,-2.92226c0.84448,-0.55166 1.34658,-1.62229 2.2193,-1.98478c1.084,-0.45026 2.39436,-0.31872 3.30736,-1.11661z" fill="url(#color-4)" stroke="#000000" stroke-width="2.5" stroke-linecap="round"/><path d="M372.57669,138.19739c-1.27188,28.7814 -26.01156,53.97977 -55.40266,52.5334c-29.3911,-1.44637 -52.3038,-28.98979 -51.03193,-57.77118c0.31895,-7.21768 5.54553,-10.39176 6.03081,-13.52774c1.39004,-8.98277 0.52993,-5.84827 19.93696,-4.44556c0.83468,0.06033 5.56552,-8.3563 6.47355,-8.31162c7.76894,0.38232 5.67929,-1.39239 15.76772,-1.48037c5.96272,-0.05201 8.95101,3.11099 15.89693,4.06911c6.56578,0.90569 17.12822,-0.42905 21.58993,0.78452c5.07168,1.37948 8.36284,1.98887 11.74847,5.48436c2.15702,2.22701 2.10755,6.56476 3.63031,9.72884c2.23444,4.64276 5.55952,8.41945 5.35993,12.93625z" fill="#000000" stroke="#000000" stroke-width="2.5" stroke-linecap="butt"/><path d="M404.78097,104.01336c0.24784,11.57499 -38.21108,21.78617 -85.9004,22.80729c-47.68932,1.02112 -86.55006,-7.53448 -86.79791,-19.10948c-0.24784,-11.57499 38.21108,-21.78619 85.9004,-22.80731c47.68932,-1.02112 86.55007,7.53448 86.79792,19.1095z" fill="#000000" stroke="#000000" stroke-width="2.5" stroke-linecap="butt"/><path d="M272.7432,106.84055c0,0 -13.94633,-39.36467 -1.23127,-57.50391c12.71506,-18.13923 30.34905,-16.58569 45.63427,-16.91298c15.03826,-0.322 34.59289,0.48113 45.34829,14.96488c10.75538,14.48376 1.23127,57.50391 1.23127,57.50391z" fill="#000000" stroke="#000000" stroke-width="2.5" stroke-linecap="butt"/><path d="M267.37798,88.78316l-0.14959,-6.98613c0,0 35.12215,2.21053 51.86913,1.85195c16.22776,-0.34747 47.10416,-3.97116 47.10416,-3.97116l0.14959,6.98613c0,0 -31.02702,3.62692 -47.48469,3.97931c-16.53308,0.35401 -51.48862,-1.8601 -51.48862,-1.8601z" fill="url(#color-5)" stroke="#000000" stroke-width="2.5" stroke-linecap="butt"/><path d="M299.84852,141.42244c0.02008,-0.10067 0.15899,-0.14824 0.15899,-0.14824l0.15312,-0.04093c0.25699,-0.18007 0.5159,-0.35346 0.77366,-0.52325c-0.32426,0.11158 -0.65051,0.20836 -0.97845,0.29155c-0.57517,0.35577 -1.20292,0.64733 -1.88046,0.86388c0.60213,-0.09772 1.19333,-0.24305 1.77316,-0.44302zM281.00658,136.97534c0.68256,1.65356 1.92673,3.25265 3.59596,4.22168c1.5663,0.5427 3.12588,0.865 4.71576,1.03233c-2.63293,-0.58573 -4.7633,-1.67827 -6.10223,-3.36192c-0.35468,-0.21508 -0.69246,-0.44349 -1.00998,-0.68689c-0.49918,-0.38463 -0.89454,-0.78801 -1.19953,-1.20518zM302.68262,138.6577c0.03804,-0.09128 0.07366,-0.18437 0.10679,-0.27928c0.32979,-0.62098 0.53037,-1.27242 0.62642,-1.93826c-0.15088,0.76025 -0.47375,1.51113 -0.99094,2.236c-0.21477,0.30088 -0.44713,0.58769 -0.69659,0.85863c0.1913,-0.08377 0.37319,-0.17628 0.54407,-0.27862c0.14242,-0.19733 0.27885,-0.39759 0.41027,-0.59848zM293.28544,126.12284c-0.03128,-0.00699 -0.06245,-0.01393 -0.09351,-0.02084c-0.40173,-0.08981 -0.81388,-0.15892 -1.23296,-0.20869c-0.5537,0.07371 -1.10171,0.1768 -1.63825,0.30807c-0.11155,0.02712 -0.22182,0.05488 -0.33088,0.08325c0.21859,0.01106 0.43571,0.0253 0.65154,0.04259c0.87255,-0.11125 1.75529,-0.18067 2.64404,-0.2044zM290.23967,125.79411c-2.52012,-0.0014 -5.11953,0.59426 -7.11261,1.51587c-3.01862,1.53269 -3.62659,3.42578 -3.16631,5.81311c0.02928,-0.16432 0.06494,-0.32699 0.107,-0.48783c-0.04857,-0.43743 -0.04279,-0.86556 0.0256,-1.27533c0.4956,-2.92129 3.19006,-4.71653 7.0993,-5.04226c0.4753,-0.03462 0.94136,-0.05424 1.39977,-0.05979c0.49148,-0.16074 1.00616,-0.30755 1.5482,-0.44001c0.03298,-0.00802 0.06601,-0.01594 0.09907,-0.02375zM285.17734,139.13942c0.41108,0.21539 0.83114,0.41318 1.25387,0.59153c0.2742,0.11581 0.55105,0.23163 0.83042,0.34664c0.09529,0.03026 0.19111,0.05924 0.28747,0.08692c-0.13887,-0.10247 -0.27493,-0.20724 -0.40822,-0.3142c-0.53604,-0.30193 -1.04029,-0.60804 -1.50142,-0.89828c-0.58084,-0.42115 -1.05129,-0.88288 -1.41147,-1.36989c-0.57986,-0.55249 -1.04796,-1.18964 -1.36752,-1.9403c-0.10686,-0.42532 -0.16718,-0.83796 -0.18446,-1.23932c-0.41985,-0.94474 -0.54014,-1.92344 -0.16321,-2.82892c-0.92081,1.69904 -0.7834,3.64404 0.19301,5.43025c0.49215,0.58478 1.04212,1.11444 1.61877,1.55332c0.27707,0.21261 0.56143,0.40629 0.85278,0.58228zM285.14422,129.11498c-0.47064,0.2067 -0.87799,0.44599 -1.19673,0.72228c-0.09891,0.08438 -0.19407,0.17007 -0.2855,0.25698c0.4258,-0.36641 0.90842,-0.67291 1.43369,-0.93015c0.01611,-0.01637 0.03229,-0.03272 0.04853,-0.04908zM290.61212,142.05897c0.36989,0.05855 0.74632,0.10756 1.1278,0.14751c-0.66467,-0.19008 -1.29,-0.42086 -1.878,-0.68714c-0.38225,-0.13089 -0.76098,-0.26747 -1.136,-0.4081c-1.43303,-0.41921 -2.84853,-0.90221 -4.12799,-1.50633c1.46946,1.27182 3.53939,2.06506 6.01419,2.45406zM301.50499,141.59274c0.06469,-0.01388 0.12912,-0.02792 0.19331,-0.04212c1.16337,-0.39154 1.82872,-1.15345 2.17934,-2.06477c-0.34356,0.40752 -0.73161,0.82028 -1.16677,1.24776c-0.3882,0.32726 -0.79033,0.61268 -1.20588,0.85912zM287.34901,126.71293c-0.03023,0.00209 -0.0605,0.00423 -0.09081,0.00643c-3.50738,0.29088 -5.95915,1.82321 -6.55317,4.36928c0.806,-1.39205 2.19055,-2.56965 4.16185,-3.38894c0.3742,-0.13134 0.75267,-0.25554 1.13501,-0.37222c0.43122,-0.21887 0.87875,-0.42388 1.34712,-0.61452zM292.3475,140.64883c0.5463,-0.02064 1.1023,-0.06048 1.66697,-0.11568c1.92633,-0.18661 4.5925,-0.10306 6.65999,-0.64088c0.47287,-0.41929 0.89397,-0.8922 1.26163,-1.40725c1.27869,-1.79027 1.29808,-3.74632 0.44594,-5.59233c-1.93417,-1.5542 -5.34521,-3.20354 -7.65449,-3.58022c-1.01843,-0.22462 -2.37337,-0.31072 -3.78008,-0.25238c-1.50641,0.46735 -2.93463,1.04831 -4.1641,1.83511c-0.93263,1.58747 -0.86513,3.40814 -0.09127,5.1837c0.67869,1.56035 1.92103,2.93282 3.53083,4.02505c0.16123,0.08114 0.32363,0.16098 0.48711,0.23944c0.54281,0.10971 1.08912,0.2135 1.63749,0.30544zM296.03942,126.81734c-0.15257,-0.0218 -0.30518,-0.04128 -0.45765,-0.05837c-0.97064,-0.10995 -1.93497,-0.17707 -2.87232,-0.17046c0.56288,0.09665 1.12082,0.21276 1.67739,0.34617c0.9267,-0.01603 1.85252,0.05663 2.7274,0.21976c-0.35555,-0.12022 -0.71535,-0.23229 -1.07483,-0.3371zM287.14884,129.59406c-0.96508,0.25237 -1.80659,0.59264 -2.39671,1.02342c-0.15553,0.07193 -0.2959,0.15001 -0.42213,0.23364c-0.45345,0.66136 -0.78366,1.34807 -0.96124,2.07286c0.02359,0.29353 0.08686,0.59615 0.17778,0.90078c0.26106,-0.78991 0.77575,-1.55308 1.54365,-2.23606c0.38453,-0.34118 0.79865,-0.65272 1.23737,-0.93856c0.2227,-0.3651 0.49548,-0.71815 0.8213,-1.05608zM305.17376,136.11794c0.2125,-0.74322 0.31642,-1.54504 0.32565,-2.45549c0.03725,-2.78952 -2.41086,-5.01031 -5.44354,-6.47987c-0.06251,-0.0342 -0.12544,-0.06775 -0.18878,-0.10067c-0.74801,-0.19478 -1.53857,-0.31972 -2.35526,-0.40184c2.74422,0.63654 5.29929,1.96488 6.72494,3.78083c1.35851,1.57755 1.43132,3.47757 0.88969,5.25845c0.0193,0.13279 0.0351,0.26568 0.04728,0.39859zM286.29018,127.67884c-1.61694,0.82938 -2.99349,1.86059 -4.42687,3.05825c-0.50056,0.88888 -0.9086,1.82284 -1.07872,2.75359c0.14976,0.55585 0.37886,1.11835 0.66928,1.66687c-0.39503,-1.99188 0.22773,-4.00897 2.0737,-5.58589c0.58639,-0.49445 1.41821,-0.87912 2.37846,-1.17537c0.02145,-0.01909 0.04301,-0.03815 0.06463,-0.0572c0.42324,-0.37292 0.87755,-0.68816 1.35802,-0.95256c-0.34909,0.091 -0.69536,0.18852 -1.0385,0.29229zM300.36714,128.66728c-0.60925,-0.27017 -1.28155,-0.52252 -2.01436,-0.77007c-0.03891,-0.01321 -0.07804,-0.02619 -0.11739,-0.03893c-0.27858,-0.0339 -0.56648,-0.05293 -0.86345,-0.05727c0.17971,0.06004 0.35994,0.12146 0.54079,0.18417c0.57061,0.19842 1.11185,0.43682 1.62071,0.70881c0.81356,0.38083 1.58112,0.85103 2.35525,1.40852c-0.37252,-0.54249 -0.89725,-1.01743 -1.52153,-1.43525zM301.86342,131.94577c-0.1453,-0.22897 -0.30363,-0.45538 -0.47417,-0.67865c-1.82985,-1.98684 -4.01356,-2.96032 -6.95342,-3.1098c-0.67554,0.15134 -1.35347,0.31095 -2.02393,0.48645c0.89725,0.02801 1.73746,0.12058 2.45013,0.27833c2.09107,0.36248 4.95898,1.64325 7.00139,3.02369zM292.6138,128.16314c-0.00699,0.00036 -0.01398,0.00071 -0.02097,0.00108c-0.99165,0.05139 -2.027,0.11648 -3.04244,0.2419c-0.2812,0.13913 -0.54637,0.29155 -0.79218,0.45715c0.68075,-0.10261 1.38045,-0.17081 2.0711,-0.20434c0.58577,-0.1799 1.18269,-0.3435 1.78448,-0.49578zM284.90176,136.62366c0.45318,0.44235 0.94089,0.83832 1.41992,1.16486c0.53935,0.36843 1.10728,0.73614 1.69911,1.09434c-0.79755,-0.81234 -1.42932,-1.7149 -1.85325,-2.68571c-0.68831,-1.57928 -0.83564,-3.19438 -0.27306,-4.66709c-0.12892,0.103 -0.2548,0.20903 -0.37748,0.31823c-0.98679,0.87611 -1.52554,1.89334 -1.61224,2.92163c0.30111,0.67012 0.67752,1.31398 0.99702,1.85374zM303.06875,130.57084c0.2826,0.50807 0.51892,1.02498 0.70597,1.5472c0.26325,0.43371 0.49693,0.88211 0.69516,1.34012c-0.17027,-1.39302 -0.72121,-2.42722 -1.62228,-3.25727c0.07664,0.1194 0.15037,0.24271 0.22115,0.36995zM301.15581,130.35897c0.23994,0.21864 0.47351,0.45176 0.70135,0.6996c0.40375,0.52754 0.74199,1.07185 1.00558,1.62608c0.07593,0.06209 0.14964,0.12412 0.221,0.18597c-0.03471,-0.11804 -0.07133,-0.23565 -0.10972,-0.35272c-0.46389,-0.77395 -1.0777,-1.50854 -1.81823,-2.15894zM287.74093,129.04587c0.17044,-0.14153 0.35155,-0.27974 0.5436,-0.41441c0.02066,-0.01447 0.04143,-0.02885 0.06234,-0.04314c-1.02362,0.18733 -1.99873,0.45917 -2.8549,0.86714c-0.15087,0.15468 -0.29561,0.31031 -0.4338,0.46712c0.74786,-0.37273 1.67609,-0.66528 2.68277,-0.87672zM284.92559,137.58149c-0.08994,-0.11661 -0.17788,-0.23436 -0.26389,-0.35316c-0.07494,-0.12827 -0.15514,-0.2641 -0.23857,-0.40631c-0.05339,-0.05281 -0.10626,-0.10624 -0.15854,-0.1602c0.11522,0.24087 0.25723,0.47763 0.4261,0.70844c0.07631,0.07194 0.15463,0.14232 0.2349,0.21125zM292.50851,127.50303c0.46662,-0.0099 0.90762,-0.01 1.3107,-0.00255c0.48952,0.00906 0.95409,0.0338 1.39727,0.07404c-0.30255,-0.08369 -0.60478,-0.16255 -0.90735,-0.23615c-0.60573,0.0151 -1.21134,0.07019 -1.80061,0.16466zM305.12172,137.81105c-0.06208,0.38559 -0.16033,0.76711 -0.29799,1.14173c-1.12385,3.03032 -3.93441,4.03579 -7.97367,3.9493c-0.24969,-0.00535 -0.49858,-0.01621 -0.7466,-0.03222c-0.52798,-0.01244 -1.06827,-0.05446 -1.62032,-0.12286c-0.13677,-0.00013 -0.27337,-0.00113 -0.40976,-0.00309c-3.41641,0.14758 -6.59246,-0.08372 -9.75745,-1.20475c-2.5669,-1.47851 -4.18866,-4.3043 -4.42481,-6.73343c-0.10206,-0.23056 -0.1872,-0.46467 -0.2538,-0.70187c-0.83412,-2.98086 -0.39435,-5.31703 3.1817,-7.1318c2.54825,-1.17874 6.00136,-1.83275 9.1255,-1.48626c2.83132,-0.35954 5.79993,0.00719 8.2025,1.24942c1.59609,0.42948 3.00548,1.16218 4.08876,2.42486c1.73512,2.02957 2.74059,5.22655 1.42468,7.51645c-0.13263,0.41499 -0.31546,0.78987 -0.53874,1.13453zM303.25838,133.70411c0.04639,0.15433 0.08679,0.30907 0.12097,0.46412c-0.02177,-0.13745 -0.04672,-0.27476 -0.07461,-0.41178c-0.01517,-0.01738 -0.03063,-0.03485 -0.04636,-0.05233zM280.72334,134.85393c0.0226,0.20985 0.06144,0.41829 0.11826,0.62475c0.29301,0.45832 0.65449,0.89838 1.06817,1.31551c-0.46923,-0.61281 -0.87424,-1.26999 -1.18644,-1.94026zM303.97368,137.13177c0.07319,-0.144 0.14333,-0.28993 0.2099,-0.4375c-0.00819,-0.10215 -0.01789,-0.20368 -0.02887,-0.30435c-0.04744,0.24833 -0.10767,0.49572 -0.18104,0.74183zM290.32916,127.61696c0.8015,-0.27748 1.6759,-0.47152 2.57542,-0.58041c-0.7289,-0.13513 -1.46532,-0.23703 -2.21794,-0.30055c-1.3365,0.19942 -2.57693,0.61835 -3.65039,1.36275c1.05163,-0.2354 2.18958,-0.38864 3.29292,-0.48179zM287.95844,139.80193c0.48686,0.26204 0.99681,0.51618 1.5209,0.74711c0.22975,0.02786 0.46188,0.05034 0.6963,0.06785c-0.75918,-0.25796 -1.50539,-0.52401 -2.21719,-0.81495zM301.77701,128.88942c-0.08639,-0.05653 -0.1741,-0.11213 -0.26304,-0.16676c0.0291,0.02279 0.058,0.04589 0.0867,0.06927c0.0595,0.03221 0.11828,0.06469 0.17634,0.09749zM286.01907,138.12998c0.15851,0.17817 0.32261,0.35301 0.49249,0.52406c0.42191,0.23004 0.86847,0.44158 1.33242,0.64037c-0.6358,-0.37974 -1.24582,-0.77124 -1.82492,-1.16444zM299.97063,140.44878c-1.85017,0.32159 -3.9622,0.31339 -5.67648,0.46609c1.80902,0.18269 3.62194,0.1619 5.38798,-0.2729c0.09784,-0.0624 0.19402,-0.12684 0.28851,-0.19319zM287.43537,130.0062c0.57619,-0.29934 1.18262,-0.56555 1.81041,-0.80555c-0.39854,0.04982 -0.79205,0.11149 -1.17394,0.18517c-0.2344,0.20037 -0.44627,0.40744 -0.63648,0.62038zM295.10176,126.13438c0.99998,0.02985 1.98456,0.08462 2.93089,0.20152c-1.41393,-0.4348 -2.94458,-0.61762 -4.47396,-0.57256c0.49808,0.11235 1.01658,0.2351 1.54307,0.37103zM296.25469,127.44428c0.0215,-0.0019 0.04295,-0.00375 0.06438,-0.00553c-0.04625,-0.00594 -0.09259,-0.01163 -0.13904,-0.01706c0.02488,0.00748 0.04978,0.01503 0.07466,0.02257zM294.87814,141.90438c1.31644,0.03421 2.49842,-0.18752 3.53801,-0.60917c-2.00427,0.26386 -4.05161,0.0999 -6.07154,-0.23268c0.82737,0.3303 1.67473,0.61633 2.53353,0.84185zM284.01978,130.41326c-0.11933,0.10626 -0.23354,0.21777 -0.34228,0.33483c0.0683,-0.05621 0.14126,-0.1107 0.21905,-0.16337c0.04021,-0.05734 0.08129,-0.11448 0.12323,-0.17146zM290.92397,141.05807c-0.05319,-0.00163 -0.10627,-0.00348 -0.15926,-0.00555c0.1219,0.0414 0.24415,0.081 0.36666,0.11862c-0.06962,-0.03725 -0.13877,-0.07493 -0.20742,-0.11307z" fill="#ffffff" stroke="none" stroke-width="0.5" stroke-linecap="butt"/><path d="M336.1258,125.52548c-0.01912,0.08598 -0.15297,0.1263 -0.15297,0.1263l-0.14757,0.03462c-0.24738,0.15326 -0.49668,0.30082 -0.74486,0.44532c0.31246,-0.09459 0.62687,-0.17654 0.94294,-0.24685c0.55385,-0.30266 1.15856,-0.55033 1.81147,-0.7338c-0.58046,0.08208 -1.15026,0.20489 -1.70899,0.3744zM354.30738,129.37005c-0.66216,-1.41465 -1.8658,-2.78406 -3.47787,-3.61607c-1.5118,-0.46745 -3.01661,-0.74653 -4.55028,-0.89327c2.54055,0.50674 4.59764,1.44538 5.89286,2.88728c0.34255,0.18462 0.66886,0.38061 0.97564,0.58935c0.48232,0.32986 0.86455,0.67549 1.15965,1.0327zM333.39915,127.88141c-0.03649,0.0779 -0.07062,0.15737 -0.10234,0.2384c-0.31657,0.52987 -0.50849,1.08609 -0.59955,1.65485c0.14373,-0.64931 0.45335,-1.29022 0.95041,-1.90843c0.20643,-0.2566 0.42983,-0.50115 0.66977,-0.73209c-0.18428,0.07113 -0.35948,0.14974 -0.52403,0.23679c-0.1369,0.16829 -0.26799,0.3391 -0.39426,0.51046zM342.49126,138.61509c0.03017,0.00606 0.06025,0.01207 0.09021,0.01803c0.38764,0.0777 0.78526,0.13773 1.18954,0.18124c0.53382,-0.0617 1.06207,-0.1485 1.5792,-0.25941c0.10751,-0.02291 0.21378,-0.04636 0.3189,-0.07035c-0.21083,-0.00996 -0.42026,-0.02263 -0.62845,-0.03792c-0.84121,0.09301 -1.69236,0.15026 -2.54941,0.16844zM345.42932,138.90316c2.43038,0.00712 4.93584,-0.49577 6.85578,-1.27864c2.90754,-1.30267 3.48941,-2.91895 3.0399,-4.96011c-0.02784,0.14037 -0.06185,0.27928 -0.10204,0.41663c0.04789,0.37393 0.04333,0.73978 -0.02167,1.08977c-0.47107,2.49519 -3.06537,4.02297 -6.83466,4.29213c-0.45827,0.02846 -0.90769,0.04413 -1.34977,0.0478c-0.4736,0.1362 -0.96961,0.26046 -1.49204,0.37237c-0.03179,0.00677 -0.06362,0.01345 -0.09549,0.02005zM350.28,127.51087c-0.39696,-0.18502 -0.80253,-0.35503 -1.21062,-0.50843c-0.26471,-0.09959 -0.53197,-0.19921 -0.80166,-0.29816c-0.09196,-0.0261 -0.18445,-0.05107 -0.27744,-0.07496c0.13417,0.0879 0.26563,0.17775 0.39443,0.26947c0.51767,0.25928 1.00469,0.52205 1.45008,0.77115c0.56114,0.36126 1.01593,0.75693 1.36443,1.17395c0.5605,0.4735 1.01345,1.01908 1.32339,1.6613c0.10405,0.36372 0.1632,0.71646 0.18081,1.0595c0.40713,0.8083 0.52543,1.64494 0.16405,2.41782c0.88401,-1.44973 0.74691,-3.11213 -0.19893,-4.64083c-0.47598,-0.50087 -1.00763,-0.95478 -1.56477,-1.33118c-0.2677,-0.18233 -0.54241,-0.3485 -0.82378,-0.49959zM350.33553,136.07734c0.45337,-0.17552 0.84566,-0.37904 1.1524,-0.6144c0.09521,-0.07188 0.18677,-0.14488 0.27474,-0.21893c-0.40978,0.3121 -0.87449,0.57289 -1.38046,0.79148c-0.01551,0.01395 -0.03106,0.02789 -0.04668,0.04183zM350.83763,127.11454c-1.42012,-1.0903 -3.41822,-1.77304 -5.80582,-2.11127c-0.35685,-0.0509 -0.72,-0.09366 -1.08798,-0.12869c0.64147,0.164 1.24505,0.36267 1.81275,0.59161c0.36895,0.11274 0.73453,0.23035 1.09652,0.35141c1.383,0.3616 2.74922,0.77767 3.98456,1.29693zM334.34165,125.41159c-1.12103,0.33185 -1.7609,0.98136 -2.09689,1.7593c0.33036,-0.34744 0.70364,-0.69923 1.12229,-1.06352c0.3736,-0.27874 0.76072,-0.5217 1.16091,-0.73132c-0.06234,0.01171 -0.12445,0.02355 -0.18631,0.03554zM348.2149,138.12479c0.02915,-0.00172 0.05833,-0.00348 0.08756,-0.00529c3.3818,-0.2403 5.74268,-1.54398 6.30955,-3.71831c-0.77402,1.1877 -2.10652,2.19075 -4.00568,2.88622c-0.36056,0.11138 -0.72527,0.21661 -1.09371,0.31542c-0.41536,0.18601 -0.84646,0.36014 -1.29771,0.52197zM343.36157,126.20424c-0.52679,0.01634 -1.0629,0.04907 -1.60734,0.09492c-1.85729,0.15494 -4.42873,0.07726 -6.42134,0.53199c-0.45505,0.35719 -0.86004,0.76032 -1.2134,1.19959c-1.22892,1.52683 -1.24303,3.19832 -0.41689,4.77783c1.86897,1.33268 5.16244,2.75015 7.39037,3.07747c0.9827,0.19436 2.28959,0.27111 3.64608,0.22457c1.45168,-0.39583 2.82769,-0.88892 4.01152,-1.55839c0.89569,-1.35438 0.82631,-2.91037 0.07583,-4.42949c-0.6582,-1.33499 -1.85954,-2.51074 -3.41458,-3.44789c-0.15569,-0.06971 -0.31249,-0.13835 -0.47033,-0.20577c-0.52374,-0.09502 -1.05085,-0.18501 -1.5799,-0.26487zM339.83371,138.01513c0.14718,0.01899 0.29441,0.036 0.44148,0.05096c0.93633,0.09623 1.86649,0.15587 2.77044,0.15243c-0.54307,-0.08392 -1.08143,-0.18447 -1.61849,-0.29977c-0.89369,0.01153 -1.78669,-0.05274 -2.63081,-0.1942c0.34317,0.10357 0.69043,0.20018 1.03736,0.29059zM348.40114,135.66324c0.9301,-0.21339 1.74088,-0.50218 2.30896,-0.86891c0.14982,-0.06109 0.28501,-0.1275 0.40655,-0.19866c0.43575,-0.5641 0.75259,-1.15013 0.92214,-1.76908c-0.02344,-0.25091 -0.08517,-0.50965 -0.17357,-0.77018c-0.2499,0.67438 -0.74448,1.32536 -1.48343,1.90718c-0.37002,0.29065 -0.76867,0.55591 -1.19109,0.79913c-0.21392,0.31145 -0.47615,0.61251 -0.78957,0.90052zM331.00271,130.04587c-0.20319,0.63461 -0.3015,1.31958 -0.30827,2.09757c-0.02936,2.38367 2.3368,4.28719 5.26496,5.55013c0.06035,0.02938 0.12112,0.0582 0.18228,0.08648c0.72182,0.16821 1.48454,0.27685 2.27234,0.34894c-2.64801,-0.55041 -5.11524,-1.69156 -6.4944,-3.24672c-1.31386,-1.35128 -1.38855,-2.97509 -0.87039,-4.49567c-0.01891,-0.11352 -0.03447,-0.22713 -0.04652,-0.34072zM349.23377,137.30194c1.55742,-0.70495 2.88254,-1.58292 4.26205,-2.60301c0.48064,-0.75843 0.87196,-1.55556 1.03383,-2.35053c-0.14574,-0.47535 -0.368,-0.95657 -0.64938,-1.42599c0.38567,1.70307 -0.21019,3.42529 -1.98672,4.7685c-0.56434,0.42116 -1.36566,0.74792 -2.29101,0.99882c-0.02066,0.01625 -0.04139,0.03249 -0.0622,0.04873c-0.40729,0.31766 -0.84466,0.58599 -1.30742,0.8108c0.33644,-0.07695 0.67015,-0.15947 1.00083,-0.24734zM335.65567,136.4241c0.58818,0.23232 1.23715,0.44953 1.94444,0.6628c0.03758,0.01136 0.07536,0.02256 0.11333,0.03353c0.26875,0.02963 0.54646,0.04655 0.83284,0.05096c-0.17345,-0.05172 -0.3474,-0.10463 -0.52196,-0.15865c-0.55075,-0.17088 -1.07328,-0.37589 -1.56466,-0.60951c-0.78549,-0.32736 -1.52682,-0.73098 -2.2747,-1.20919c0.36052,0.46447 0.86768,0.87155 1.47073,1.23007zM334.20496,133.61895c0.14068,0.19599 0.2939,0.38984 0.4589,0.58105c1.76936,1.70216 3.87762,2.53918 6.71315,2.67383c0.65112,-0.12772 1.30453,-0.26254 1.95071,-0.41092c-0.86537,-0.02604 -1.67588,-0.10712 -2.36355,-0.2436c-2.01747,-0.31468 -4.78626,-1.41589 -6.75921,-2.60035zM343.13418,136.87316c0.00672,-0.00029 0.01347,-0.00057 0.02021,-0.00088c0.95622,-0.04157 1.95454,-0.09476 2.93354,-0.19955c0.27086,-0.11822 0.52623,-0.24785 0.7629,-0.38878c-0.65628,0.08607 -1.3309,0.14271 -1.99688,0.16974c-0.56448,0.15234 -1.13977,0.29075 -1.71977,0.41946zM350.55168,129.66143c-0.43808,-0.37908 -0.90936,-0.71861 -1.3721,-0.99878c-0.52101,-0.31609 -1.06959,-0.63167 -1.64119,-0.93916c0.77107,0.69606 1.38248,1.46882 1.79359,2.29942c0.66752,1.35119 0.8134,2.7317 0.27432,3.98888c0.12408,-0.08773 0.24524,-0.17804 0.36329,-0.27106c0.9496,-0.74635 1.46677,-1.61436 1.54796,-2.49287c-0.29195,-0.57336 -0.65648,-1.12443 -0.96587,-1.58644zM333.0458,134.79106c-0.27374,-0.43483 -0.50286,-0.87711 -0.68448,-1.32382c-0.25491,-0.37123 -0.48131,-0.75496 -0.67356,-1.14682c0.16748,1.19079 0.70125,2.07586 1.57219,2.7873c-0.0742,-0.10221 -0.1456,-0.20777 -0.21415,-0.31666zM334.21312,134.37713c-0.39061,-0.45176 -0.71809,-0.91767 -0.9736,-1.39192c-0.07338,-0.05324 -0.14462,-0.10641 -0.21358,-0.15944c0.03375,0.10094 0.06934,0.20153 0.10664,0.30167c0.44919,0.66246 1.04288,1.29164 1.75857,1.84919c-0.2319,-0.18743 -0.45772,-0.38717 -0.67803,-0.5995zM347.3082,136.48317c-0.01987,0.01231 -0.03989,0.02455 -0.06001,0.0367c0.98672,-0.15768 1.92647,-0.38768 2.7512,-0.73429c0.14514,-0.13182 0.28435,-0.26449 0.41725,-0.39816c-0.72035,0.31674 -1.61486,0.56456 -2.58519,0.74288c-0.16402,0.12054 -0.33835,0.23824 -0.52325,0.35287zM350.52647,128.84281c0.08702,0.09988 0.17211,0.20071 0.25533,0.30243c0.07257,0.1098 0.15022,0.22606 0.23103,0.34778c0.05162,0.04528 0.10273,0.09105 0.15327,0.13728c-0.11169,-0.2061 -0.2492,-0.40876 -0.4126,-0.60639c-0.07376,-0.06166 -0.14947,-0.122 -0.22704,-0.18108zM343.23728,137.4375c-0.44999,0.00737 -0.87531,0.00641 -1.26405,-0.0009c-0.47211,-0.0089 -0.92018,-0.03112 -1.34768,-0.06656c0.29196,0.07224 0.58363,0.14033 0.8756,0.20394c0.58413,-0.01148 1.16805,-0.05715 1.73611,-0.13648zM331.04889,128.59913c0.05897,-0.32934 0.15282,-0.65515 0.2847,-0.97496c1.07669,-2.58689 3.78481,-3.43949 7.68045,-3.35608c0.24081,0.00515 0.48086,0.01501 0.72009,0.02927c0.50922,0.0119 1.03037,0.04907 1.56292,0.10882c0.1319,0.00041 0.26364,0.0016 0.39518,0.0036c3.29443,-0.11808 6.35792,0.08706 9.41286,1.05248c2.47897,1.2695 4.04964,3.68807 4.28311,5.76442c0.09897,0.19727 0.18162,0.39752 0.24641,0.60037c0.81143,2.54924 0.39281,4.54456 -3.05163,6.08696c-2.45473,1.00128 -5.78335,1.55205 -8.79706,1.24861c-2.72967,0.30061 -5.59343,-0.0198 -7.91338,-1.08698c-1.54027,-0.37076 -2.90121,-1.00021 -3.94888,-2.08177c-1.67811,-1.73844 -2.65532,-4.47276 -1.39165,-6.42649c0.12693,-0.35433 0.30237,-0.67424 0.51689,-0.96824zM332.73781,131.7162c0.02133,0.11751 0.04571,0.23491 0.07293,0.35207c0.01467,0.0149 0.02962,0.02984 0.04483,0.04482c-0.04511,-0.13198 -0.08443,-0.26432 -0.11776,-0.39689zM354.58553,131.18355c-0.02229,-0.17939 -0.06025,-0.35762 -0.11553,-0.53417c-0.28367,-0.39234 -0.63331,-0.76925 -1.03324,-1.12667c0.45396,0.52478 0.84609,1.08733 1.14876,1.66083zM332.15769,129.18236c-0.07025,0.12286 -0.13754,0.24741 -0.20141,0.37335c0.00816,0.0873 0.01773,0.17409 0.02856,0.26014c0.04516,-0.2121 0.10268,-0.42338 0.17284,-0.63351zM345.33875,137.34529c-0.7723,0.23524 -1.61511,0.39898 -2.48235,0.48993c0.70327,0.11718 1.41369,0.20599 2.13967,0.26204c1.28844,-0.16727 2.48372,-0.52235 3.51721,-1.15594c-1.01363,0.19869 -2.1107,0.32696 -3.17453,0.40396zM347.59636,126.93821c-0.47014,-0.22505 -0.96253,-0.44343 -1.4685,-0.642c-0.22164,-0.02434 -0.44556,-0.04412 -0.67167,-0.05962c0.73277,0.22223 1.45302,0.45133 2.14017,0.70164zM334.46582,136.31468c-0.05747,-0.02765 -0.11424,-0.05556 -0.1703,-0.08372c0.08345,0.04853 0.16815,0.09622 0.25406,0.14312c-0.02813,-0.01955 -0.05606,-0.03934 -0.08378,-0.05939zM348.99443,127.92259c-0.4074,-0.19757 -0.83858,-0.3794 -1.28648,-0.55036c0.61405,0.32601 1.20326,0.66198 1.76268,0.99935c-0.15329,-0.15263 -0.31197,-0.30242 -0.4762,-0.44899zM341.48362,125.97228c-1.74503,-0.16038 -3.49333,-0.14689 -5.19549,0.22052c-0.0942,0.0531 -0.1868,0.10793 -0.27777,0.16441c1.78353,-0.27045 3.82037,-0.25847 5.47326,-0.38493zM348.12389,135.31035c-0.55496,0.25446 -1.13919,0.48049 -1.74405,0.68411c0.38423,-0.04163 0.76357,-0.09341 1.13169,-0.15547c0.22558,-0.17068 0.42943,-0.34712 0.61237,-0.52864zM340.73958,138.60096c-0.96444,-0.02786 -1.91409,-0.07698 -2.827,-0.17911c1.36461,0.37488 2.84119,0.53472 4.31601,0.49981c-0.48062,-0.09718 -0.98095,-0.20329 -1.48901,-0.32069zM339.62461,137.47892c-0.02074,0.00159 -0.04141,0.00311 -0.06208,0.00458c0.04461,0.00517 0.08931,0.01014 0.13413,0.01489c-0.02401,-0.00648 -0.04801,-0.01296 -0.07205,-0.01948zM340.91814,125.12532c-1.26965,-0.03233 -2.40903,0.15437 -3.41061,0.51224c1.93228,-0.22076 3.90712,-0.07581 5.8559,0.21313c-0.79868,-0.28421 -1.61654,-0.53062 -2.44529,-0.72537zM351.53534,134.82432c-0.03865,0.0489 -0.07812,0.09764 -0.11844,0.14623c0.11482,-0.09052 0.22471,-0.18555 0.3293,-0.28532c-0.06574,0.04788 -0.13596,0.09427 -0.21087,0.1391zM344.7335,125.85784c0.05129,0.00152 0.1025,0.00322 0.1536,0.00512c-0.11766,-0.03567 -0.23568,-0.06979 -0.3539,-0.10223c0.06723,0.032 0.13401,0.06436 0.20031,0.09711z" fill="#ffffff" stroke="none" stroke-width="0.5" stroke-linecap="butt"/><path d="M302.03162,171.73767c-0.49989,0.0107 -0.51059,-0.48918 -0.51059,-0.48918l0.02476,-0.0424c-0.66558,-1.88405 -0.7168,-4.2538 -0.75938,-6.24238c0,0 -0.0107,-0.49989 0.48918,-0.51059c0.49989,-0.0107 0.51059,0.48918 0.51059,0.48918c0.04019,1.87716 0.05967,4.1549 0.7013,5.92734l0.03332,0.35745c0,0 0.0107,0.49989 -0.48918,0.51059z" fill="#ffffff" stroke="none" stroke-width="0.5" stroke-linecap="butt"/><path d="M305.16699,173.2126c0.01778,0.00816 0.03589,0.01748 0.05435,0.02801c0.43416,0.24801 0.18615,0.68216 0.18615,0.68216l-0.28464,0.49828c-0.08314,0.1516 -0.24272,0.25586 -0.428,0.25983c-0.27608,0.00591 -0.50468,-0.21311 -0.51059,-0.48918l-0.01284,-0.59977c-0.04639,-2.16673 0.31488,-4.26319 0.26286,-6.40616c0,0 -0.0107,-0.49989 0.48918,-0.51059c0.49989,-0.0107 0.51059,0.48918 0.51059,0.48918c0.03827,2.03053 -0.27194,4.00669 -0.26707,6.04822z" fill="#ffffff" stroke="none" stroke-width="0.5" stroke-linecap="butt"/><path d="M309.5523,176.42079c0.04462,0.02331 0.09017,0.0558 0.13594,0.09966c0.36104,0.3459 0.01514,0.70695 0.01514,0.70695l-1.05003,-0.06041c-0.46834,-2.84287 -0.31341,-5.73439 -0.78385,-8.58392c0,0 -0.08129,-0.49334 0.41205,-0.57464c0.49334,-0.08129 0.57464,0.41205 0.57464,0.41205c0.43662,2.65474 0.33361,5.34705 0.6961,8.00029z" fill="#ffffff" stroke="none" stroke-width="0.5" stroke-linecap="butt"/><path d="M314.13675,175.92502c0.13681,0.05313 0.28933,0.17377 0.29519,0.44746c0.0107,0.49989 -0.48918,0.51059 -0.48918,0.51059l-0.53381,-0.23138c-1.20355,-1.9749 -0.9767,-4.99374 -1.02627,-7.2359c0,0 -0.0107,-0.49989 0.48918,-0.51059c0.49989,-0.0107 0.51059,0.48918 0.51059,0.48918c0.03903,1.8889 -0.22937,4.79491 0.7543,6.53063z" fill="#ffffff" stroke="none" stroke-width="0.5" stroke-linecap="butt"/><path d="M318.32704,175.36555c0.0909,-0.06937 0.2207,-0.11186 0.4034,-0.07032c0.48755,0.11086 0.3767,0.59841 0.3767,0.59841l-0.13962,0.52985l-0.38024,0.69977c-0.08154,0.15692 -0.24399,0.26564 -0.43327,0.2697c-0.2334,0.005 -0.43286,-0.15076 -0.49252,-0.36584l-0.21596,-0.71521l0.01042,-0.00314l-0.02015,-0.03426c-0.29789,-2.11362 -0.26359,-4.38749 -0.73437,-6.45307c0,0 -0.10853,-0.48808 0.37955,-0.59661c0.48808,-0.10853 0.59661,0.37955 0.59661,0.37955c0.40417,1.85565 0.439,3.84637 0.64946,5.76117z" fill="#ffffff" stroke="none" stroke-width="0.5" stroke-linecap="butt"/><path d="M323.3327,175.5775l-0.87276,0.4088c-0.83734,-1.98974 -1.21912,-5.04077 -1.28914,-7.1587c0,0 -0.0107,-0.49989 0.48918,-0.51059c0.49989,-0.0107 0.51059,0.48918 0.51059,0.48918c0.00959,1.68303 0.33915,4.26926 0.94747,6.09401c0.00144,0.00032 0.00287,0.00064 0.00431,0.00097c0.48755,0.11086 0.3767,0.59841 0.3767,0.59841l-0.133,0.0623c0.00472,0.01113 0.00945,0.02221 0.01419,0.03324z" fill="#ffffff" stroke="none" stroke-width="0.5" stroke-linecap="butt"/><path d="M328.60888,172.77113c0.0096,0.00099 0.01938,0.00221 0.02932,0.00364c0.49485,0.07162 0.42322,0.56647 0.42322,0.56647l-0.08594,0.59378c-0.03063,0.24172 -0.23441,0.43103 -0.48532,0.4364c-0.2045,0.00438 -0.38296,-0.11467 -0.46415,-0.2889l-0.21865,-0.4436l0.0177,-0.00872l-0.03782,-0.03795c-0.51725,-1.96904 -0.68718,-3.94008 -1.13026,-5.88413c0,0 -0.10853,-0.48808 0.37955,-0.59661c0.48808,-0.10853 0.59661,0.37955 0.59661,0.37955c0.38107,1.74961 0.56455,3.51258 0.97573,5.28007z" fill="#ffffff" stroke="none" stroke-width="0.5" stroke-linecap="butt"/><path d="M332.15222,170.19434c0.44942,0.02328 0.45938,0.48845 0.45938,0.48845l-0.83936,0.67163c-1.04071,-1.10252 -0.64646,-3.12087 -1.39014,-4.50057c0,0 -0.23313,-0.44232 0.2092,-0.67545c0.44232,-0.23313 0.67545,0.2092 0.67545,0.2092c0.45299,0.87523 0.45049,2.83865 0.88548,3.80675z" fill="#ffffff" stroke="none" stroke-width="0.5" stroke-linecap="butt"/><path d="M335.99851,168.95741c-0.44232,0.23313 -0.67545,-0.2092 -0.67545,-0.2092l-0.15324,-0.33818c-0.21269,-1.14328 -0.55285,-2.29458 -0.58115,-3.47005c0,0 -0.0107,-0.49989 0.48918,-0.51059c0.49989,-0.0107 0.51059,0.48918 0.51059,0.48918c0.02039,1.11081 0.35654,2.22462 0.56402,3.30598l0.05524,0.05739c0,0 0.23313,0.44232 -0.2092,0.67545z" fill="#ffffff" stroke="none" stroke-width="0.5" stroke-linecap="butt"/><path d="M337.9196,166.36886c-0.49989,0.0107 -0.51059,-0.48918 -0.51059,-0.48918c-0.0157,-0.73306 -0.03567,-1.66604 -0.05137,-2.3991c0,0 -0.0107,-0.49989 0.48918,-0.51059c0.49989,-0.0107 0.51059,0.48918 0.51059,0.48918c0.0157,0.73306 0.03139,1.46611 0.04709,2.19918l0.00428,0.19992c0,0 0.0107,0.49989 -0.48918,0.51059z" fill="#ffffff" stroke="none" stroke-width="0.5" stroke-linecap="butt"/><path d="M314.69769,190.74238c-0.47085,0.16823 -0.63908,-0.30262 -0.63908,-0.30262l-0.13542,-0.45528c-0.04584,-2.14086 0.00884,-4.2582 -0.03702,-6.39973c0,0 -0.0107,-0.49989 0.48918,-0.51059c0.49989,-0.0107 0.51059,0.48918 0.51059,0.48918c0.04586,2.14167 -0.00882,4.25904 0.03702,6.39973l0.07735,0.14022c0,0 0.16823,0.47085 -0.30262,0.63908z" fill="#ffffff" stroke="none" stroke-width="0.5" stroke-linecap="butt"/><path d="M319.23725,191.99128l-0.76134,0.25795c-0.26587,-1.82552 -0.05766,-4.27903 -0.79576,-5.95975c0,0 -0.1956,-0.46016 0.26456,-0.65574c0.46016,-0.1956 0.65574,0.26456 0.65574,0.26456c0.66456,1.60343 0.60543,3.67162 0.77803,5.47755c0.24636,0.17854 0.17108,0.50963 0.17108,0.50963l-0.10961,0.03713c0.00804,0.06088 0.01647,0.12135 0.02535,0.18138z" fill="#ffffff" stroke="none" stroke-width="0.5" stroke-linecap="butt"/><path d="M323.13928,189.89208c0.11771,0.01955 0.24318,0.08871 0.33571,0.26427c0.23313,0.44232 -0.2092,0.67545 -0.2092,0.67545l-0.89107,-0.14249c-0.52801,-1.2931 -0.62287,-3.10826 -0.82846,-4.50633c0,0 -0.07263,-0.4947 0.42207,-0.56733c0.4947,-0.07263 0.56733,0.42207 0.56733,0.42207c0.16585,1.13166 0.22719,2.70756 0.60361,3.85434z" fill="#ffffff" stroke="none" stroke-width="0.5" stroke-linecap="butt"/><path d="M327.87722,188.07265c0.1103,0.06651 0.21035,0.18769 0.21507,0.40836c0.0107,0.49989 -0.48918,0.51059 -0.48918,0.51059l-0.71051,-0.4849c-0.03045,-1.58767 -0.3379,-3.15052 -0.59601,-4.7169c0,0 -0.08129,-0.49334 0.41205,-0.57464c0.49334,-0.08129 0.57464,0.41205 0.57464,0.41205c0.24369,1.47902 0.51978,2.95104 0.59394,4.44543z" fill="#ffffff" stroke="none" stroke-width="0.5" stroke-linecap="butt"/></g></g></svg>