<svg version="1.1" xmlns="http://www.w3.org/2000/svg" xmlns:xlink="http://www.w3.org/1999/xlink" width="175.02605" height="228.75565" viewBox="0,0,175.02605,228.75565"><g transform="translate(-149.73532,-110.70408)"><g stroke-miterlimit="10"><g stroke="none" stroke-width="0.5" stroke-linecap="butt"><path d="M229.79577,217.78066c-4.93428,1.20377 -9.57637,4.80626 -14.06479,7.19053c-1.76355,0.9368 -4.49018,1.28049 -5.72869,3.03572c-6.5543,2.72203 -7.48753,10.93496 -7.71737,18.63278c-0.03863,1.294 -0.43487,2.53137 -0.52627,3.82004c-0.22333,3.14948 0.31768,6.68019 0.46391,9.84904c0.32241,6.98663 1.33191,13.53815 2.55534,20.36336c0.79587,4.44001 0.45477,9.65071 0.66417,14.18841c0.30936,6.70379 0.84686,13.32091 1.15606,20.02124c0.18698,4.05181 -0.02527,8.51361 0.80252,12.46273c0.10077,2.04789 0.25552,3.9862 0.50899,5.99887c0.06044,0.48002 -0.17768,2.8428 0.30385,3.23418c1.07749,0.87575 3.04743,0.40198 4.2318,0.34732c4.03302,-0.18611 6.24203,-0.85422 6.86075,-6.40165c-0.33123,-6.7446 -0.57139,-13.42087 -1.8376,-19.94114c-0.40061,-2.0629 -0.61276,-4.37735 -0.5481,-6.50073c0.02339,-0.76816 -0.23559,-1.72883 0.17943,-2.29282c0.61533,-0.83619 3.46019,-0.51202 4.37741,-0.55435c2.2536,-0.04191 4.74144,-0.8378 7.07301,-1.18371c6.45765,-0.95803 13.24601,-0.61428 19.75957,-0.91486c3.26155,-0.15051 6.48634,-0.01255 9.74281,-0.16282c0.86164,-0.03976 3.43578,-0.54652 4.10348,0.08331c0.46506,0.43866 0.94828,3.61319 1.01392,4.23961c0.42634,4.06892 0.38534,8.29723 0.57422,12.3903c0.18801,4.07412 0.2893,8.15699 0.78932,12.17657c0.07568,0.60838 0.22107,3.04643 0.44257,3.40962c0.21729,0.35631 3.29909,-0.07826 3.38491,-0.08222c3.3773,-0.15585 7.03221,0.17241 10.21821,-1.33154c4.03093,-10.61621 1.66077,-22.82122 1.10091,-34.12206c-0.57435,-12.44622 -2.73185,-24.24399 -4.69551,-36.40585c-0.06573,-2.14176 -0.96334,-4.04268 -1.21565,-6.2391c-1.06053,-9.23231 -3.72224,-17.39617 -5.60777,-26.27505c-0.74921,-3.79098 -3.61783,-4.53112 -6.30358,-5.38786c-5.09937,-1.62667 -11.02681,-3.72305 -16.29125,-3.51556c-4.4112,-1.58279 -9.92009,-0.38703 -14.47764,-0.17671l-1.1583,0.05345c0,0 -0.05288,0.00244 -0.13469,-0.00906zM232.9752,215.19801c4.20581,-0.35971 8.91185,-1.06187 12.79315,0.33077c2.35884,-0.12631 4.47834,0.3606 6.71443,1.17363c5.57707,2.02778 15.63409,0.73778 17.56248,9.55522c1.85166,8.97015 4.59718,17.21529 5.65149,26.54642c0.25359,2.24441 1.08836,4.04044 1.21865,6.26686c2.00123,12.20542 4.13167,24.0813 4.70825,36.5758c0.05889,1.3949 0.43694,2.74875 0.64735,4.12484c0.6928,4.53099 0.73215,10.37365 0.19776,14.75324c-0.15365,1.25934 0.21482,2.55184 0.19942,3.82854c-0.05865,4.85871 -0.80914,9.0929 -2.74447,13.27482c-3.55462,2.11921 -7.55901,1.78307 -11.45189,1.96271c-1.45923,0.06734 -3.7889,0.63846 -5.00757,-0.84206c-0.39888,-0.48458 -0.75714,-3.81895 -0.85383,-4.56038c-0.53385,-4.09324 -0.61819,-8.26277 -0.8097,-12.4127c-0.15847,-3.43405 -0.31924,-6.86799 -0.47541,-10.30214c-0.0209,-0.45961 -0.09991,-4.30671 -0.31572,-4.50392c-0.01858,-0.01697 -2.60856,0.39305 -2.84621,0.40401c-3.25721,0.15031 -6.48124,0.01231 -9.74281,0.16282c-6.46274,0.29823 -13.21762,-0.06666 -19.62209,0.90247c-2.42826,0.36745 -4.84421,1.03965 -7.2105,1.19611c-0.84941,0.0392 -1.70125,0.23747 -2.54822,0.11759c-0.18296,-0.02589 -0.36503,-0.49612 -0.48736,-0.32985c-0.36766,0.49963 0.34607,1.31864 0.3775,1.99974c0.07378,1.5989 0.12407,3.06927 0.43024,4.63852c1.31172,6.72286 1.58778,13.65162 1.89089,20.60952c-0.33776,2.88222 -1.36715,6.90394 -3.76264,8.07566c-1.49919,0.7333 -3.33969,0.50602 -4.93229,0.57951c-1.67676,0.07738 -4.14321,0.55181 -5.57702,-0.92071c-1.73106,-1.7778 -1.39363,-8.19791 -1.50153,-10.73472c-0.84334,-4.02334 -0.63242,-8.57104 -0.8229,-12.69887c-0.30918,-6.70002 -0.84669,-13.31728 -1.15605,-20.02124c-0.20318,-4.40299 0.1677,-9.56008 -0.63001,-13.85628c-1.28365,-6.91332 -2.26242,-13.60763 -2.5895,-20.69549c-0.50706,-10.98794 -1.89258,-30.24847 8.64213,-34.4153c1.41077,-1.84797 4.15632,-2.22896 6.05336,-3.24357c5.49988,-2.94156 11.18957,-7.4688 17.38014,-7.75448c0,0 0.3332,-0.01538 0.6205,0.21289z" fill="#000000"/><path d="M229.9216,217.74272l1.15919,-0.05368c4.55755,-0.21032 10.07814,-1.40657 14.48935,0.17621c5.26443,-0.20748 11.20457,1.89346 16.30391,3.52013c2.68574,0.85673 5.55958,1.60063 6.30879,5.3916c1.88552,8.87886 4.55907,17.05841 5.61959,26.29072c0.25231,2.19641 1.15229,4.10316 1.21802,6.24492c1.96366,12.16186 4.12166,23.99575 4.69601,36.44197c0.55987,11.30083 2.91945,23.52433 -1.11146,34.14054c-3.18602,1.50395 -6.84608,1.18028 -10.22339,1.33613c-0.08582,0.00396 -3.16958,0.43992 -3.38687,0.08361c-0.2215,-0.3632 -0.40481,-2.88609 -0.48049,-3.49447c-0.50001,-4.01958 -0.60486,-8.09971 -0.79287,-12.17384c-0.18888,-4.09307 -0.15305,-8.31596 -0.5794,-12.38487c-0.06564,-0.62642 -0.49117,-3.73509 -0.95623,-4.17377c-0.6677,-0.62981 -3.24473,-0.11938 -4.10638,-0.07962c-3.25646,0.15028 -6.49357,0.02176 -9.75513,0.17227c-6.51357,0.30058 -13.33738,-0.04816 -19.79502,0.90987c-2.33156,0.3459 -4.82524,1.13601 -7.07883,1.17794c-0.91723,0.04233 -3.76446,-0.28496 -4.37979,0.55123c-0.41501,0.56399 -0.09865,1.4611 -0.12205,2.22927c-0.06467,2.12338 0.14424,4.43402 0.54485,6.49692c1.26622,6.52027 1.49854,13.19009 1.82977,19.9347c-0.61874,5.54743 -2.86426,6.29946 -6.89728,6.48557c-1.18437,0.05465 -3.15643,0.52677 -4.2339,-0.34899c-0.48153,-0.39138 -0.24435,-2.75498 -0.3048,-3.23501c-0.25346,-2.01268 -0.41008,-3.95277 -0.51085,-6.00066c-0.82779,-3.94913 -0.61977,-8.41587 -0.80675,-12.46768c-0.3092,-6.70033 -0.85378,-13.33089 -1.16314,-20.03468c-0.2094,-4.53771 0.12865,-9.76234 -0.66722,-14.20235c-1.22343,-6.82521 -2.23138,-13.39671 -2.55379,-20.38334c-0.14623,-3.16885 -0.68474,-6.70703 -0.46139,-9.85651c0.09138,-1.28869 0.4889,-2.52882 0.52752,-3.82281c0.22983,-7.69782 1.17203,-15.92316 7.72633,-18.64523c1.23851,-1.75523 3.96917,-2.10231 5.73272,-3.03912c4.48842,-2.38426 9.1419,-5.99227 14.07618,-7.19605c0.08181,0.01149 0.13479,0.00903 0.13479,0.00903z" fill="#ffffff"/></g><path d="M240.61043,238.50369c0.18945,0.69511 0.2663,1.52008 0.28915,2.38336c0.25319,-1.23027 1.45723,-1.94267 2.28838,-2.63163c0,0 1.11414,-0.85557 1.81692,0.3406c0.11061,0.18824 0.17618,0.36806 0.20821,0.53742c0.06111,-0.11886 0.1354,-0.21977 0.21576,-0.30527c-0.49266,-0.90784 -0.52817,-2.12341 0.19615,-3.25347c0.45708,-0.71315 1.50436,-0.40034 2.25871,-0.59677c0.53133,-0.18654 0.97948,-0.2582 1.35166,-0.23917c-0.00925,-0.04941 -0.01625,-0.09998 -0.02088,-0.15161c-0.07198,-0.80218 0.45656,-1.55561 1.18049,-1.68279l0.2397,-0.04211c-0.13416,-0.43104 -0.17962,-0.88379 -0.09358,-1.31715c0.14535,-0.73203 0.9585,-0.96445 1.65729,-1.28243c0.45816,-0.56837 0.98969,-1.00638 1.53539,-1.18717c0.71268,-1.15981 1.91186,-2.17594 2.93068,-2.70119c-0.35232,-1.13706 0.37302,-2.26383 1.55209,-3.36627c0.35509,-0.33201 0.99394,-0.54704 1.64506,-0.69797c0.30653,-0.16191 0.63819,-0.23316 0.97699,-0.18912c0.02295,-0.00383 0.04572,-0.00763 0.06828,-0.01136c0.18057,-0.45767 0.60042,-0.84205 1.12592,-1.15274l0.13314,-0.12624c0.58891,-0.38082 1.11078,-1.217 1.76675,-1.1425c0.40131,0.04558 0.85653,0.13887 1.27646,0.30227c0.09397,-0.00709 0.18183,-0.01098 0.26237,-0.0117c0,0 1.31439,0.01163 1.22743,1.48222c-0.01484,0.25096 -0.06542,0.45877 -0.13912,0.63082c-0.31869,1.43447 -2.11565,3.0773 -3.46893,2.99163c0.08334,1.58145 -1.23978,2.78245 -2.65478,3.19419c0.74671,2.37849 -1.91403,5.18961 -4.2368,5.43973c0.05737,0.09312 0.10241,0.19725 0.13253,0.31474c0.58373,2.27765 -3.36446,5.14392 -5.32383,4.47031c-0.11055,0.21553 -0.22593,0.34866 -0.22593,0.34866l-1.23587,1.0773c-0.04613,0.00708 -0.09269,0.01617 -0.1396,0.02685c-0.13735,0.40938 -0.42865,0.74963 -0.80089,0.91669c-0.06645,0.14493 -0.1614,0.29411 -0.29232,0.44518c-0.74967,0.86507 -1.48569,0.4148 -1.75515,0.19472c0.02186,0.5406 -0.1342,1.12751 -0.53379,1.7249c0.39946,0.18905 0.69203,0.60478 0.73912,1.12972c0.07198,0.80218 -0.45655,1.55562 -1.18049,1.6828l-1.32408,0.23261c-0.98589,0.16974 -1.98771,0.17432 -2.9867,0.21579c0.16517,1.04008 0.28978,2.09261 0.38883,3.15107c0.96989,0.08634 1.86417,0.29307 2.95189,0.45517c1.23426,0.18394 2.58039,0.40803 3.52003,1.27729c2.06576,1.91102 2.1979,6.61657 0.81522,9.32901c-1.03439,2.02918 -3.48651,3.88482 -5.63686,4.98005c0.07132,1.38524 0.07708,2.77618 -0.00718,4.16991l0.1355,1.51014c0.07198,0.80218 -0.45656,1.55561 -1.18049,1.68279c-0.60013,0.10545 -1.14617,-0.25258 -1.35638,-0.83512l-0.62551,-1.61952l0.04217,-0.02247c-0.03606,-0.05929 -0.07094,-0.11961 -0.10452,-0.18107c-0.39689,-0.72663 -0.39012,-1.63259 -0.36504,-2.54099l-0.07649,-0.85249l0.02491,-0.00437c-0.00997,-0.01274 -0.01942,-0.02641 -0.02833,-0.04106c-0.01203,-0.01975 -0.02335,-0.0398 -0.03395,-0.06014c-0.90327,0.16402 -1.81953,0.24971 -2.68811,0.2877c-0.05908,0.00259 -0.11959,0.0088 -0.18099,0.0172c-0.4534,0.09347 -0.91521,0.17862 -1.38587,0.2578l-0.14981,-0.08787l-0.01087,0.08312l-1.45311,-0.14369c-0.59689,-0.04424 -1.08455,-0.54616 -1.14658,-1.23739c-0.07198,-0.80218 0.45656,-1.5556 1.18049,-1.68279c0.0387,-0.00679 0.07719,-0.01167 0.11538,-0.01468l1.56237,-0.14024l0.00035,0.01758c0.01924,-0.00724 0.03854,-0.01437 0.05786,-0.02138c0.59001,-0.21414 1.20625,-0.15843 1.82365,-0.11681c0.65653,-0.16031 1.2888,-0.34261 1.90024,-0.56c-0.77193,-0.21366 -0.86102,-1.20677 -0.86102,-1.20677l-0.05984,-0.66692c-0.19914,-2.21949 -0.25152,-4.45623 -0.24734,-6.70018c-1.4211,0.22262 -2.81479,0.2538 -3.92401,-0.97258c-0.54648,-0.6042 -1.02145,-1.39389 -1.12164,-2.26355c-0.05507,-0.47808 0.10112,-0.95752 0.29089,-1.42791c-0.08107,-1.67025 0.84908,-3.55368 2.0438,-4.77998c-0.26384,-0.17492 -0.50529,-0.39263 -0.71194,-0.64448c-0.10694,0.2037 -0.23849,0.38829 -0.40557,0.54525c-1.3094,1.23017 -2.89703,0.4711 -3.84927,-0.8362c-0.87535,-0.4688 -1.66983,-1.17034 -1.80315,-1.75663c-0.08781,-0.38615 -0.13535,-0.72574 -0.14799,-1.02688c-0.23479,0.04541 -0.47486,0.10247 -0.70349,0.13436c-0.6139,0.25594 -1.35072,0.13971 -1.99069,0.04162c-2.16115,-0.33127 -2.8335,-1.78929 -2.51778,-3.56797c-0.97117,1.1648 -2.71642,1.79898 -3.83832,1.08195c-1.12346,-0.71801 -1.50914,-1.7426 -1.41926,-2.78103c-0.20055,0.0968 -0.35825,0.1245 -0.35825,0.1245l-0.10726,-0.02078c-1.08764,0.66187 -3.62321,-0.45567 -4.11937,-1.3593c-0.31768,-0.57856 -0.50327,-1.04502 -0.58397,-1.44044c-0.31983,0.05992 -0.64637,0.09047 -0.97064,0.09199c-0.42281,0.0559 -0.85038,0.01457 -1.25675,-0.14645c-1.87015,-0.46364 -3.20034,-2.02308 -1.87493,-4.612c0.26279,-0.51329 0.67949,-0.94229 1.14706,-1.26232c0.37133,-0.48579 0.70896,-1.03505 1.22274,-1.25253c0.14195,-0.06009 0.29509,-0.1127 0.45582,-0.15638c0.38167,-0.37802 0.74332,-0.69926 1.03657,-0.94195c0,0 1.09234,-0.89139 1.82853,0.2783c0.30914,0.49119 0.29587,0.93328 0.17642,1.28093c0.20466,0.23188 0.36067,0.52346 0.44714,0.88348c0.66089,0.47063 1.07906,1.23424 0.99373,2.45605c0.11173,0.07371 0.22353,0.17481 0.33303,0.30977c0.10827,0.13341 0.18698,0.26625 0.24189,0.39652c0.02214,0.00384 0.04447,0.00785 0.06697,0.01201c0.41685,0.07693 0.67268,0.3862 0.84905,0.81015l0.25659,-0.19704l0.35222,0.59952l0.06546,0.04169l-0.01972,0.03617l0.32355,0.55072l-0.06205,0.04763l0.29789,0.08231c-0.09774,0.31687 -0.15784,0.66109 -0.21226,1.00944c0.08041,0.10007 0.15019,0.22356 0.20248,0.37581c1.2083,-1.84948 3.61448,-2.98092 5.14021,-1.07422c0.01911,0.02386 0.03735,0.0489 0.05474,0.07499c0.21278,-0.62575 0.50941,-1.2361 0.83661,-1.80023c0,0 0.77345,-1.2386 1.83974,-0.44574c1.06628,0.79286 0.29283,2.03146 0.29283,2.03146c-0.05561,0.07833 -0.11691,0.15322 -0.17964,0.22727c0.57355,-0.13923 1.14179,-0.13182 1.59218,0.17158c0.77507,0.52213 0.90093,1.65816 0.66101,2.76351c0.23333,0.01374 0.48193,0.10805 0.70699,0.35694c0.19017,0.10828 0.37207,0.29649 0.52053,0.605c0.21475,0.44627 0.20775,0.8289 0.10887,1.13715c0.04733,0.09625 0.08038,0.19617 0.10281,0.29504c0.21777,-0.12733 0.44269,-0.2596 0.66849,-0.40626c0,0 0.95718,-0.53959 1.54572,0.27119c0.73191,0.25746 1.23333,0.96573 1.46825,1.8219l0.40301,0.29968c0.63923,-0.92615 2.13981,-1.83847 3.35431,-1.68646c-0.00824,-0.29791 -0.0006,-0.51548 0.03155,-0.59697c-0.00655,-0.07965 -0.01338,-0.15936 -0.02052,-0.23908l0.01708,-0.04153l-0.00052,-0.02622l-0.01843,0.00137l-0.01116,-1.47341c-0.01341,-0.75703 0.49832,-1.44435 1.18679,-1.5653c0.72393,-0.12718 1.36916,0.42002 1.44112,1.22221c0.00386,0.0429 0.00599,0.08562 0.00646,0.12814l0.03452,1.72153c0.00017,0.00198 0.00033,0.00401 0.00049,0.00599zM242.07926,256.21631c0.00137,0.02507 0.00272,0.05015 0.00407,0.07519c0.31819,1.7592 0.62025,3.53954 0.85124,5.3345c0.73716,-0.57375 1.4486,-1.26388 2.143,-2.10381c1.14188,-1.38123 2.17311,-2.22945 1.39777,-3.99173c-1.21708,-1.38548 -2.41406,-0.87522 -4.05489,-0.80596c-0.14101,0.00596 -0.28115,-0.00111 -0.42086,-0.01443c0.02642,0.50329 0.05244,1.00561 0.07967,1.50626zM240.94009,242.05501c-0.01312,-0.05324 -0.02469,-0.10571 -0.03477,-0.15744c-0.00072,0.06255 -0.00158,0.12511 -0.0026,0.18766c0.01175,-0.00976 0.02422,-0.01986 0.03737,-0.03021zM238.00603,249.84472l0.25366,0.07839c0.01119,-0.65706 0.02144,-1.31412 0.02849,-1.97088c-0.91445,0.66132 -1.57433,1.46394 -0.28215,1.8925zM257.11966,230.268c0.05239,-0.03582 0.10376,-0.07346 0.15392,-0.11312c0.26743,-0.21142 0.99221,-0.94373 0.70743,-0.76479c-0.5098,0.32033 -1.05403,0.56658 -1.60164,0.78331l0.79556,-0.14964c0,0 -0.01298,0.09943 -0.05525,0.24422zM226.01135,239.1541c-0.08062,-0.04541 -0.16032,-0.09511 -0.23885,-0.14799c-0.01031,0.06064 -0.00746,0.10184 0.01197,0.11805c0.06343,0.05291 0.14236,0.04989 0.22687,0.02993z" fill="#ffe04b" stroke="#000000" stroke-width="1.5" stroke-linecap="butt"/><g stroke="none" stroke-width="0.5" stroke-linecap="butt"><path d="M182.47986,174.30114c-1.04912,-2.89332 -0.68397,-6.44021 -1.12457,-9.41177c-0.31932,-2.15359 -0.89757,-4.17614 -1.29435,-6.28936c-1.25144,-6.66508 -0.66966,-14.23632 -0.98272,-21.02022c-0.16107,-3.49048 -0.32215,-6.98094 -0.48322,-10.4714c-0.05123,-1.11016 -0.53125,-3.59223 -0.06815,-4.56132c1.18135,-2.47211 6.03236,-2.75975 8.24907,-3.03493c3.12311,-0.3877 7.24505,-2.60957 10.5902,-1.41113c0.97148,0.34806 1.61965,1.2867 2.49669,1.83051c2.5146,3.53411 2.44842,8.90937 2.64629,13.19712c0.33478,7.25471 1.00814,14.54384 1.34494,21.84223c0.20709,4.48762 0.07631,8.95627 0.28444,13.46645c0.02375,0.51457 -0.2331,3.76181 0.08683,4.12052c0.46948,0.52637 3.64771,-0.94704 4.23024,-1.09024c3.6225,-0.89052 8.03036,-1.0722 11.74775,-1.26771c3.11296,-0.12025 6.10116,-1.64684 9.22004,-2.10457c4.52166,-0.66359 9.23634,0.01066 13.75896,-0.63176c0.5863,-0.08327 3.20931,-1.14305 3.27087,-1.1554c2.78714,-0.55913 6.07141,-0.63269 8.91916,-0.7641c0.31812,0.07025 0.65243,0.33313 0.95434,0.21073c0.74832,-0.30334 -0.20457,-1.60396 -0.23691,-2.41077c-0.10022,-2.49946 0.46517,-4.52503 0.34451,-7.13971c-0.17686,-3.8325 -1.36959,-7.41399 -1.85924,-11.20626c-0.34651,-2.68359 -0.03416,-5.61004 -0.69067,-8.23502c-0.57109,-2.28337 -1.2416,-4.47507 -1.36403,-6.95322c-0.20173,-4.37155 -0.40347,-8.74311 -0.6052,-13.11465c-0.03343,-0.72435 -0.22852,-3.68035 0.06498,-4.11323c0.94452,-1.39314 3.82637,-0.84622 5.18208,-1.03468c4.68232,-0.65089 9.57196,-1.1163 14.30754,-0.66133c1.3904,-0.06132 1.86663,-0.17276 3.3493,0.24451c4.80265,1.3516 4.46092,5.89846 4.97547,9.93223c0.86845,6.8081 0.97193,13.70863 1.28863,20.57164c0.26302,5.6997 0.26331,11.55553 0.11977,17.2662c-0.18089,7.19669 1.01106,14.54136 1.34404,21.75699c0.53278,11.54537 1.06556,23.09077 1.59834,34.63614c0.13282,2.8782 0.94875,5.55999 -1.47545,7.77401c-2.97793,2.71976 -7.30933,2.05216 -10.68623,3.38224c-5.8398,2.30016 -12.2219,3.64056 -18.6738,3.93829c-3.22221,0.1381 -6.43702,0.6914 -9.47935,1.42669c-2.17751,0.52629 -4.62465,-0.02356 -6.83347,0.3312c-6.08742,0.97771 -12.41695,0.91586 -18.59752,1.20107c-6.18666,0.28549 -12.27743,0.90354 -18.4795,1.18975c-2.64248,0.12194 -4.70629,0.07504 -7.28577,-0.3533c-0.56747,-0.09422 -1.2081,0.20507 -1.72508,-0.04721c-2.77014,-1.35188 -2.92787,-6.09602 -3.05738,-8.67029c-0.14146,-3.51228 -0.76099,-7.16801 -1.7741,-10.35319c-0.76267,-2.3978 -0.06854,-5.4827 -0.41319,-7.96176c-0.69013,-4.96424 -1.47026,-9.82609 -1.70291,-14.86748c-0.21327,-4.62149 0.47709,-10.44344 -0.66617,-14.90628c-0.2628,-1.02586 -0.68447,-2.02961 -0.81553,-3.07626zM185.41809,176.06399c0.07868,0.24907 0.15301,0.49884 0.21387,0.7506c1.13288,4.68731 0.50769,10.53128 0.73044,15.3583c0.22903,4.96306 1.01386,9.74311 1.6803,14.63145c0.29738,2.18122 -0.44427,5.44267 0.30066,7.50682c1.2183,3.37587 1.71938,7.32746 1.90922,11.04417c0.05246,1.26914 0.13627,6.08722 1.69171,6.61205c2.22416,0.75047 5.44737,0.28025 7.86488,0.16869c6.20234,-0.28622 12.2917,-0.90421 18.47951,-1.18976c6.10639,-0.28179 12.34479,-0.24155 18.36149,-1.17844c2.1181,-0.32983 4.55129,0.23977 6.61747,-0.28953c3.17454,-0.81322 6.57452,-1.32654 9.93137,-1.49097c7.34921,-0.33914 13.90088,-2.58728 20.78675,-4.30394c2.12503,-0.52977 7.24239,-1.03707 8.04076,-3.63534c0.34196,-1.11293 -0.2277,-3.46479 -0.2821,-4.64362c-0.53278,-11.54537 -1.06556,-23.09077 -1.59834,-34.63614c-0.33572,-7.27516 -1.51915,-14.6696 -1.34585,-21.92747c0.13508,-5.65703 0.14255,-11.45059 -0.11796,-17.09573c-0.31448,-6.81487 -0.42855,-13.66124 -1.27709,-20.42266c-0.57837,-4.60867 -0.25339,-8.31119 -5.99515,-8.03384c-4.62283,-0.44414 -9.3684,0.01904 -13.93941,0.64219c-0.98489,0.13426 -1.98536,0.15807 -2.97903,0.13256c-0.1861,-0.00479 -0.49721,-0.26946 -0.55096,-0.09122c-0.23133,0.76709 0.41057,3.37581 0.45293,4.29362c0.17587,3.8111 0.35174,7.62219 0.52761,11.43329c0.09777,2.30576 0.75334,4.2946 1.27435,6.40458c0.67963,2.75242 0.39106,5.74641 0.75775,8.54761c0.61609,4.70648 1.80695,9.05309 1.99264,13.84315c0.04364,1.12588 -0.34763,2.22679 -0.55227,3.33478c-0.21636,1.17144 0.35054,2.38872 0.18785,3.5688c-0.10413,0.75536 -0.10093,1.69679 -0.68997,2.181c-0.62728,0.51564 -1.6056,0.24394 -2.40839,0.36592c-2.73136,0.12604 -5.86927,0.1757 -8.53601,0.71537c-1.16314,0.23538 -2.18804,0.99572 -3.36149,1.1726c-4.53651,0.68382 -9.27855,-0.02576 -13.81544,0.64069c-3.22212,0.47334 -6.22346,1.95846 -9.45606,2.12717c-3.43572,0.13078 -7.71138,0.31162 -11.05677,1.1326c-1.33845,0.32846 -4.9782,2.05675 -6.46843,0.75143c-1.30969,-1.14718 -0.97953,-4.38239 -1.05125,-5.93664c-0.20808,-4.5092 -0.07745,-8.9808 -0.28444,-13.46645c-0.35786,-7.75481 -1.05088,-15.47002 -1.40701,-23.18733c-0.13162,-2.85218 -0.02073,-7.97828 -1.80269,-10.18681c-0.62369,-0.36204 -1.02598,-1.07377 -1.69377,-1.346c-0.79373,-0.32358 -1.70663,0.17033 -2.56286,0.20984c-2.97401,0.13724 -5.28983,0.95762 -8.26146,1.38811c-0.65186,0.09444 -4.76374,0.82333 -5.0295,1.62279c-0.22345,0.67221 0.26442,2.64536 0.29995,3.41536c0.16107,3.49048 0.32215,6.98093 0.48322,10.47139c0.30683,6.64905 -0.31606,14.1593 0.94291,20.68173c0.41442,2.14706 0.99301,4.20191 1.31155,6.39183c0.27644,1.90046 0.08137,4.48691 0.38991,6.75039c0.19819,0.24732 0.26489,0.51577 0.26489,0.51577l0.43674,1.78217c0.00363,0.10066 0.01113,0.20077 0.02194,0.3004c0.14432,0.29097 0.31204,0.56282 0.50716,0.81138c0,0 0.52228,0.71016 0.06393,1.36133z" fill="#000000"/><path d="M185.30614,174.70472c-0.19513,-0.24857 -0.36287,-0.52128 -0.50719,-0.81225c-0.01081,-0.09964 -0.01831,-0.20004 -0.02192,-0.3007l-0.43674,-1.784c0,0 -0.06668,-0.26898 -0.26487,-0.5163c-0.30854,-2.26348 -0.1128,-4.8566 -0.38924,-6.75706c-0.31854,-2.18992 -0.89584,-4.25033 -1.31027,-6.39739c-1.25895,-6.52244 -0.62926,-14.04669 -0.93609,-20.69574c-0.16107,-3.49048 -0.31848,-6.98551 -0.47956,-10.47598c-0.03553,-0.77001 -0.52231,-2.74431 -0.29886,-3.41652c0.26574,-0.79946 4.38002,-1.53062 5.03188,-1.62506c2.97164,-0.43049 5.29156,-1.2542 8.26558,-1.39144c0.85624,-0.03951 1.77053,-0.53437 2.56425,-0.2108c0.66779,0.27224 1.1229,1.06428 1.7466,1.42632c1.78196,2.20854 1.67416,7.33246 1.80578,10.18464c0.35613,7.71731 1.06129,15.41881 1.41915,23.17363c0.207,4.48566 0.08254,8.93955 0.29062,13.44875c0.07172,1.55425 -0.25805,4.77983 1.05165,5.927c1.49023,1.30531 5.03397,-0.41786 6.37242,-0.74632c3.34539,-0.82097 7.62098,-1.00456 11.05672,-1.13534c3.23262,-0.16872 6.25378,-1.69216 9.4759,-2.1655c4.53688,-0.66645 9.35393,0.0709 13.89044,-0.61294c1.17345,-0.17688 2.1981,-0.93827 3.36122,-1.17365c2.66674,-0.53966 5.8053,-0.58652 8.53667,-0.71257c0.8028,-0.12198 1.68678,0.16828 2.31406,-0.34736c0.58905,-0.48422 0.58662,-1.42229 0.69076,-2.17767c0.16268,-1.1801 -0.40237,-2.39188 -0.186,-3.56332c0.20464,-1.10798 0.59778,-2.20482 0.55414,-3.33072c-0.18569,-4.79006 -1.36618,-9.12318 -1.98227,-13.82966c-0.36669,-2.80119 -0.07274,-5.79095 -0.75237,-8.54337c-0.521,-2.10998 -1.17266,-4.09646 -1.27044,-6.40221c-0.17587,-3.8111 -0.34739,-7.62009 -0.52326,-11.43118c-0.04235,-0.91778 -0.68277,-3.52593 -0.45144,-4.29302c0.05375,-0.17823 0.39967,-0.00317 0.58576,0.00161c0.99366,0.02551 1.99601,0.00249 2.98089,-0.13177c4.571,-0.62316 9.32396,-1.08226 13.94678,-0.63812c5.74176,-0.27735 5.42197,3.42924 6.00036,8.0379c0.84855,6.76143 0.97078,13.61727 1.28526,20.43214c0.2605,5.64512 0.25896,11.45152 0.12388,17.10857c-0.17331,7.25787 1.01142,14.67364 1.34714,21.94881c0.53278,11.54537 1.05479,23.11402 1.58757,34.6594c0.0544,1.17883 0.62252,3.53245 0.28055,4.64537c-0.79835,2.59827 -5.92002,3.10962 -8.04503,3.6394c-6.88588,1.71666 -13.45074,3.97262 -20.79994,4.31176c-3.35684,0.16443 -6.76464,0.68009 -9.93918,1.49332c-2.06618,0.52929 -4.50481,-0.03949 -6.62291,0.29035c-6.0167,0.93691 -12.27005,0.89568 -18.37645,1.17747c-6.1878,0.28555 -12.28917,0.89909 -18.49151,1.18531c-2.4175,0.11156 -5.64479,0.57934 -7.86895,-0.17113c-1.55545,-0.52483 -1.64221,-5.34506 -1.69467,-6.61419c-0.18984,-3.71671 -0.6959,-7.67278 -1.9142,-11.04864c-0.74492,-2.06415 -0.00648,-5.32928 -0.30386,-7.5105c-0.66644,-4.88833 -1.45762,-9.67904 -1.68665,-14.64209c-0.22275,-4.82703 0.39868,-10.68576 -0.73418,-15.37307c-0.06085,-0.25176 -0.13524,-0.50234 -0.21392,-0.75141c0.45835,-0.65117 -0.06403,-1.36274 -0.06403,-1.36274z" fill="#ffffff"/></g><g><path d="M230.94778,188.23012c1.09374,10.90987 -6.65605,20.7134 -17.30966,21.89676c-10.65361,1.18337 -20.17674,-6.70153 -21.27049,-17.6114c-0.42818,-4.27095 -1.59241,-7.51637 1.87738,-9.19439c5.39354,-2.60834 16.98316,-2.68787 16.98316,-2.68787c0,0 10.91717,-2.44523 16.76926,-0.93664c3.57493,0.92157 2.5356,4.39627 2.95038,8.53354z" fill="#000000" stroke="none" stroke-width="0" stroke-linecap="butt"/><path d="M221.89631,184.72985l-0.43127,-4.30167l25.76324,-2.86171l0.43127,4.30168z" fill="#000000" stroke="none" stroke-width="0" stroke-linecap="butt"/><path d="M279.77523,182.80652c1.09375,10.90987 -6.65605,20.71339 -17.30966,21.89676c-10.65361,1.18337 -20.17673,-6.70153 -21.27049,-17.6114c-0.42818,-4.27095 -1.59241,-7.51637 1.87738,-9.19439c5.39353,-2.60835 16.98316,-2.68786 16.98316,-2.68786c0,0 10.91716,-2.44522 16.76926,-0.93664c3.57492,0.92157 2.5356,4.39627 2.95038,8.53354z" fill="#000000" stroke="none" stroke-width="0" stroke-linecap="butt"/><path d="M196.88295,191.59283l4.03429,-4.51209" fill="none" stroke="#ffffff" stroke-width="1.5" stroke-linecap="round"/><path d="M195.74301,189.08192l1.38605,-1.66615" fill="none" stroke="#ffffff" stroke-width="1.5" stroke-linecap="round"/><path d="M199.16122,193.41033l4.9028,-4.7124" fill="none" stroke="#ffffff" stroke-width="1.5" stroke-linecap="round"/><path d="M202.19891,195.83366l4.57396,-5.49831" fill="none" stroke="#ffffff" stroke-width="1.5" stroke-linecap="round"/><path d="M206.33807,196.76418l3.04931,-3.66553" fill="none" stroke="#ffffff" stroke-width="1.5" stroke-linecap="round"/><path d="M211.71731,196.03531l-1.94786,2.17275" fill="none" stroke="#ffffff" stroke-width="1.5" stroke-linecap="round"/><path d="M214.00296,198.01269l-0.82424,1.15958" fill="none" stroke="#ffffff" stroke-width="1.5" stroke-linecap="round"/><path d="M219.93236,202.8661l1.50252,-2.31241" fill="none" stroke="#ffffff" stroke-width="1.5" stroke-linecap="round"/><path d="M223.8075,201.2453l-2.04955,3.13875" fill="none" stroke="#ffffff" stroke-width="1.5" stroke-linecap="round"/><path d="M246.0169,181.63492l-2.50226,2.83921" fill="none" stroke="#ffffff" stroke-width="1.5" stroke-linecap="round"/><path d="M249.0546,184.05825l-3.23216,2.87289" fill="none" stroke="#ffffff" stroke-width="1.5" stroke-linecap="round"/><path d="M248.39267,188.73518l1.53204,-1.6729" fill="none" stroke="#ffffff" stroke-width="1.5" stroke-linecap="round"/><path d="M250.0944,190.7395l2.05693,-2.97888" fill="none" stroke="#ffffff" stroke-width="1.5" stroke-linecap="round"/><path d="M253.64962,191.69698l1.36391,-2.14579" fill="none" stroke="#ffffff" stroke-width="1.5" stroke-linecap="round"/><path d="M260.95612,191.52001l-3.06406,3.34579" fill="none" stroke="#ffffff" stroke-width="1.5" stroke-linecap="round"/><path d="M254.65093,194.3745l2.61874,-3.48546" fill="none" stroke="#ffffff" stroke-width="1.5" stroke-linecap="round"/><path d="M270.06027,195.42583l-1.07195,2.13232" fill="none" stroke="#ffffff" stroke-width="1.5" stroke-linecap="round"/><path d="M272.87083,196.09723l-1.77236,2.80552" fill="none" stroke="#ffffff" stroke-width="1.5" stroke-linecap="round"/></g><path d="M252.14447,227.91855c-0.75864,0.1627 -1.14737,-0.24649 -1.33312,-0.58029c-2.53446,0.22304 -5.07904,0.27228 -7.40415,0.37457c-4.95834,1.36527 -10.05986,0.88041 -15.13441,1.11819c-1.57306,0.0737 -5.27829,0.76904 -6.71816,0.18652c-0.70283,-0.28434 -1.20514,-0.99339 -1.54057,-1.67332c-0.41291,-0.837 -0.09886,-1.88194 -0.36788,-2.77563c-0.44686,-1.48442 -1.10081,-2.46635 -1.41906,-4.00168c-0.16028,-0.17088 -0.24198,-0.35505 -0.27573,-0.53311c-0.09425,-0.35759 0.02062,-0.67141 0.15372,-0.89128c0.01186,-0.02266 0.01923,-0.03491 0.01923,-0.03491l0.44283,-0.7265c0.86589,-1.19012 1.64784,-2.42981 2.51296,-3.62064c0,0 0.73504,-1.01105 1.74608,-0.276c1.01105,0.73504 0.276,1.74608 0.276,1.74608c-0.01056,0.01451 -0.02111,0.02903 -0.03165,0.04357c2.35728,-0.71936 4.87477,-0.92632 7.45137,-1.37205c3.28493,-0.56827 7.52454,-1.44329 10.9242,-0.90703c2.08096,0.32825 4.47311,1.91481 6.20942,3.03354c2.4538,1.786 5.69394,3.10014 8.73611,3.93314c-1.04957,-2.49401 -2.25456,-5.11839 -4.01772,-7.11273c0,0 -0.82504,-0.93906 0.11402,-1.76408c0.93906,-0.82504 1.76408,0.11402 1.76408,0.11402c2.14206,2.45126 4.49333,6.47764 5.88881,10.06396l0.61266,-0.25538c0,0 1.16637,-0.44952 1.6159,0.71684c0.44952,1.16637 -0.71684,1.6159 -0.71684,1.6159l-0.38764,0.12339c-0.10675,0.06597 -0.21449,0.13049 -0.3232,0.19359c0.01712,0.06295 0.03378,0.12557 0.04999,0.18783c0.19615,0.21942 0.71365,0.92994 0.01462,1.69661c-0.8422,0.92369 -1.76589,0.08149 -1.76589,0.08149l-0.59523,-0.85779c-0.00135,-0.00726 -0.0027,-0.01449 -0.00409,-0.02171c-1.73597,0.66061 -3.6245,1.0729 -5.56004,1.34117c-0.08868,0.3365 -0.32956,0.70356 -0.93662,0.83375zM249.17533,221.14619c0,0 -0.03686,-0.12304 -0.04751,-0.30206c-1.02709,-0.52716 -2.00149,-1.11132 -2.88671,-1.75417c-1.93288,-1.25585 -3.82651,-1.94194 -5.74992,-2.25459c1.41529,2.27333 1.68859,5.64423 2.242,8.22204l0.01712,0.25601c0.08999,-0.02293 0.17994,-0.04641 0.26986,-0.07045c2.18597,-0.10537 4.70524,-0.11739 7.22301,-0.30528c-0.27922,-1.29123 -0.68067,-2.49973 -1.06782,-3.7915zM240.28876,225.58164c-0.46373,-2.16444 -0.65331,-6.2247 -2.16325,-7.77664c0,0 -0.48581,-0.55293 -0.28755,-1.183c-2.16257,-0.01455 -4.39931,0.31494 -6.80223,0.7267c-1.54269,0.26435 -3.10466,0.4071 -4.62338,0.65778c0.1519,0.29283 0.16518,0.58051 0.16518,0.58051c0.1218,2.63938 0.42179,5.23752 0.56688,7.87182c1.13449,-0.12444 2.2661,-0.24031 3.36472,-0.23051c3.28887,0.02933 6.55527,0.08153 9.78076,-0.41662zM257.07333,223.71392c-1.6181,-0.3925 -3.32013,-0.90646 -4.97878,-1.54788c0.2452,0.829 0.47183,1.6543 0.6478,2.51594c1.51079,-0.20388 2.97969,-0.50627 4.33098,-0.96806zM224.08017,218.70225c0,0 -0.00339,-0.07347 0.00929,-0.18561c-1.19634,0.34876 -2.3416,0.85069 -3.40114,1.63285c0.27254,1.41303 0.93436,2.30046 1.35376,3.70525c0.02979,0.09978 0.32683,2.85102 0.49049,2.862c0.69402,0.04654 1.40375,0.03087 2.12132,-0.0164c-0.14229,-2.6771 -0.44996,-5.31618 -0.57372,-7.99811z" fill="#000000" stroke="none" stroke-width="0.5" stroke-linecap="butt"/><g stroke="none" stroke-width="0.5" stroke-linecap="butt"><path d="M217.18877,284.29162l-0.83525,1.8682c-2.68572,2.24371 -5.80173,3.43832 -7.48701,7.00952c-1.15503,2.37503 -2.47274,3.01718 -4.24261,4.63633c-4.76913,4.36297 -10.78621,4.43594 -16.39648,4.71981c-2.09869,0.10619 -3.95416,-0.6133 -6.07422,-0.32728c-4.18857,-0.13456 -8.55486,0.18676 -12.77464,0.3449c-2.51455,0.09423 -5.52988,0.33741 -7.4002,-1.73109c-1.28836,-1.42487 -1.68553,-3.89983 -2.64909,-5.53691c-0.86859,-1.47572 -2.38911,-2.87283 -3.44127,-4.20713c-1.43426,-1.77947 -2.60961,-4.02517 -3.34163,-6.39766c-0.67736,-2.19534 -0.43365,-4.9058 -1.16462,-7.14402c-0.73087,-2.23792 -1.77745,-3.85178 -1.63293,-6.51327c0.22149,-4.07913 1.38355,-8.1375 1.96342,-12.20291c-0.00071,-1.01736 -0.06468,-2.44264 0.28059,-3.41559c1.31271,-3.69913 5.58231,-4.42005 7.68623,-7.16396c1.40942,-1.83814 2.08751,-4.25205 3.22649,-6.25131c1.70369,-2.9905 5.61373,-4.94291 8.32826,-5.31595c2.11198,-0.27783 3.37194,0.61778 5.31985,0.91485c2.35917,0.35979 5.91656,-2.86236 8.13688,-1.0532c0.66641,0.54301 0.59573,1.84008 1.12985,2.55397c1.59874,2.13679 2.28398,4.6185 1.85402,7.51246c2.06218,-0.04678 4.02335,0.29274 5.32394,1.04677c0.4803,0.84424 0.85476,1.80205 1.13624,2.8369c2.12844,-1.44707 5.23642,-0.90272 7.35828,-0.1186c1.14629,0.4236 3.36639,1.55737 4.25964,2.43895c0.68081,0.67192 0.78557,1.90687 1.06344,2.92364c0.14634,0.53547 0.29493,1.0571 0.43706,1.56952c2.46745,-0.30692 5.22187,-0.34534 7.51414,0.42619c0.58049,0.19538 1.32859,0.15213 1.70724,0.68379c0.60415,0.84828 0.17943,2.30655 0.37819,3.42408c0.63365,3.56264 0.83197,7.26342 0.60628,11.03724c-0.09879,1.65188 -0.60237,2.95042 -0.58634,4.58204c0,1.81396 0.00114,3.62776 -0.00188,5.44212c0.63327,0.44381 0.3181,1.40762 0.3181,1.40762zM184.13515,240.84481c-0.43903,-0.61358 -0.34645,-1.67164 -0.83357,-2.23184c-0.46107,-0.53024 -1.36925,0.25484 -2.05431,0.34726c-1.65572,0.22338 -3.49066,1.3258 -5.1235,1.12486c-1.84357,-0.22687 -2.93394,-1.19333 -4.88995,-0.92179c-1.98503,0.26215 -5.37735,1.75591 -6.59375,4.04371c-1.43138,2.69212 -2.38267,5.7052 -4.57648,7.80015c-2.82709,2.69969 -6.21731,3.00903 -6.22053,7.72168c-0.56225,4.09067 -1.67855,8.10253 -1.96342,12.20291c-0.15107,2.17452 0.91445,3.62035 1.50854,5.46007c1.4876,4.60662 1.07971,9.12877 4.13281,12.84207c1.11536,1.41457 2.70392,2.90739 3.62705,4.4815c0.92788,1.5822 1.28934,3.82722 2.45581,5.25324c1.29933,1.58844 4.16058,1.12628 5.95107,1.05919c4.20746,-0.15767 8.57312,-0.47796 12.74985,-0.34378c6.99593,-0.94385 14.80896,1.98207 21.11728,-3.78387c1.52147,-1.39066 2.66828,-1.7719 3.61108,-3.76972c1.83324,-3.7696 4.72203,-5.20061 7.58292,-7.44932l0.12207,-0.8558c-0.00581,-2.03104 -0.00364,-4.06316 -0.00364,-6.095c0.03977,-5.21191 0.91065,-9.98266 0.01994,-15.14408c-0.13755,-0.79706 0.3976,-1.87011 -0.01449,-2.49195c-0.34264,-0.51705 -1.15822,-0.12209 -1.73447,-0.19863c-1.70904,-0.227 -3.40827,-0.32179 -5.14947,-0.16947c0.46058,2.31683 0.47004,4.59614 -0.86637,7.31332c-0.30848,2.49242 -0.23926,4.90927 -0.53393,7.39297l0.01074,0.05135c0,0 0,1.25 -1.06904,1.39423c-1.06904,0.14423 -1.06904,-1.10577 -1.06904,-1.10577l0.01074,-0.4078c0.32492,-2.66489 0.23849,-5.23365 0.64412,-7.91807c1.79467,-3.82087 0.75873,-6.15753 -0.21905,-9.74764c-0.13941,-0.51188 -0.03025,-1.52987 -0.5073,-1.91514c-0.71696,-0.57903 -1.58448,-0.8844 -2.36663,-1.34725c-1.51472,-0.89635 -3.35506,-1.44196 -5.1319,-1.18714c-0.91544,0.13128 -1.77262,-0.28421 -2.14878,0.6167c0.53817,3.99946 0.02701,8.62965 -0.96023,12.26352l-1.40687,1.04452c0,0 -1.06904,0.14423 -1.06904,-1.10577c0,-0.71721 0.35194,-1.07039 0.65195,-1.24116c1.06102,-4.35552 1.46707,-10.70859 -0.33884,-14.21719c-1.22451,-0.65696 -2.77326,-0.40968 -4.15263,-0.22152c-1.96045,0.26741 -4.23022,0.24668 -6.07019,1.41253c-1.27097,0.80533 -2.01603,3.12402 -2.67884,4.42625c-1.31044,2.57466 -2.97855,6.02557 -2.94417,8.95217c0,0 0,1.25 -1.06904,1.39423c-1.06904,0.14423 -1.06904,-1.10577 -1.06904,-1.10577c0.03056,-3.49716 1.71325,-7.24098 3.27844,-10.33945c1.08255,-2.14303 1.74012,-4.17696 3.66445,-5.52673c1.31173,-0.92008 3.15628,-1.53599 5.08083,-1.82491c0.46557,-2.35483 -0.15866,-4.20934 -1.39116,-5.93185z" fill="#000000"/><path d="M185.5218,246.82699c-1.92454,0.28892 -3.75742,0.90283 -5.06915,1.82291c-1.92433,1.34977 -2.57024,3.37773 -3.65279,5.52076c-1.56519,3.09848 -3.22885,6.81811 -3.25941,10.31527c0,0 -0.07655,1.21579 0.99249,1.07156c1.06904,-0.14423 1.07221,-1.40121 1.07221,-1.40121c-0.03437,-2.92659 1.65368,-6.39895 2.96413,-8.97361c0.6628,-1.30223 1.41753,-3.62518 2.6885,-4.43051c1.83997,-1.16586 4.12528,-1.14642 6.08573,-1.41383c1.37937,-0.18815 2.93767,-0.4327 4.16219,0.22426c1.80591,3.5086 1.41975,9.88335 0.35873,14.23887c-0.30002,0.17077 -0.65071,0.52742 -0.65071,1.24463c0,1.25 1.07076,1.11298 1.07076,1.11298l1.32321,-1.01258c0.98724,-3.63387 1.51196,-8.23958 0.97379,-12.23904c0.37615,-0.90091 1.2919,-0.56609 2.20734,-0.69737c1.77684,-0.25481 3.62301,0.29868 5.13773,1.19503c0.78215,0.46284 1.65188,0.7726 2.36884,1.35164c0.47705,0.38528 0.3692,1.4066 0.50861,1.91848c0.97778,3.59011 2.01665,5.94471 0.22198,9.76558c-0.40563,2.68441 -0.32129,5.26875 -0.64621,7.93364l-0.01095,0.40855c0,0 -0.08053,1.22723 0.98851,1.083c1.06904,-0.14423 1.06825,-1.39141 1.06825,-1.39141l-0.01077,-0.05127c0.29468,-2.4837 0.22359,-4.8873 0.53207,-7.37972c1.33641,-2.71717 1.32792,-4.98418 0.86734,-7.30101c1.74121,-0.15232 3.52444,-0.08734 5.23348,0.13966c0.57625,0.07654 1.39195,-0.31745 1.73459,0.19961c0.41209,0.62184 -0.12277,1.69822 0.01478,2.49528c0.89071,5.16142 0.01756,9.95224 -0.0222,15.16415c0,2.03183 -0.00453,4.07074 0.00128,6.10178l-0.12246,0.85672c-2.86089,2.24872 -5.75626,3.69126 -7.5895,7.46085c-0.94279,1.99782 -2.09406,2.38444 -3.61554,3.77511c-6.30831,5.76594 -14.14994,2.85467 -21.14586,3.79852c-4.17674,-0.13418 -8.56144,0.18226 -12.7689,0.33994c-1.79049,0.0671 -4.65861,0.52453 -5.95795,-1.06391c-1.16647,-1.42601 -1.53309,-3.67653 -2.46097,-5.25873c-0.92313,-1.57411 -2.51622,-3.0742 -3.63158,-4.48877c-3.0531,-3.71331 -2.65021,-8.25427 -4.13781,-12.86089c-0.5941,-1.83972 -1.65967,-3.29339 -1.5086,-5.4679c0.28487,-4.10038 1.4044,-8.1285 1.96664,-12.21917c0.00323,-4.71264 3.39919,-5.03422 6.22628,-7.73391c2.19382,-2.09495 3.15269,-5.11786 4.58406,-7.80998c1.21641,-2.2878 4.61722,-3.78869 6.60226,-4.05083c1.95601,-0.27154 3.05222,0.69162 4.8958,0.9185c1.63284,0.20094 3.47586,-0.90431 5.13158,-1.12769c0.68506,-0.09242 1.59658,-0.87814 2.05765,-0.3479c0.48712,0.5602 0.39598,1.61809 0.83501,2.23166c1.2325,1.72251 1.85111,3.67749 1.38554,6.03232z" fill="#ffffff"/></g><g stroke="none" stroke-width="0.5" stroke-linecap="butt"><path d="M257.62602,276.91499c-0.00302,-1.81436 -0.00188,-3.62816 -0.00188,-5.44212c0.01603,-1.63162 -0.48755,-2.93016 -0.58634,-4.58204c-0.22569,-3.77382 -0.02738,-7.4746 0.60627,-11.03724c0.19877,-1.11753 -0.22596,-2.57579 0.3782,-3.42408c0.37866,-0.53166 1.12675,-0.48841 1.70725,-0.68379c2.29227,-0.77153 5.04669,-0.73311 7.51414,-0.42619c0.14213,-0.51242 0.29073,-1.03405 0.43706,-1.56951c0.27787,-1.01678 0.38263,-2.25172 1.06344,-2.92364c0.89324,-0.88159 3.11335,-2.01535 4.25964,-2.43895c2.12187,-0.78412 5.22984,-1.32846 7.35828,0.11861c0.28148,-1.03485 0.65594,-1.99266 1.13624,-2.83691c1.30059,-0.75403 3.26176,-1.09355 5.32394,-1.04676c-0.42996,-2.89395 0.25529,-5.37566 1.85403,-7.51246c0.53413,-0.71389 0.46344,-2.01095 1.12985,-2.55397c2.22032,-1.80917 5.77771,1.41299 8.13688,1.0532c1.9479,-0.29707 3.20787,-1.19268 5.31985,-0.91485c2.71452,0.37303 6.62456,2.32545 8.32825,5.31595c1.13898,1.99926 1.81708,4.41316 3.2265,6.25131c2.10393,2.74391 6.37352,3.46483 7.68623,7.16396c0.34527,0.97295 0.2813,2.39823 0.28058,3.41559c0.57988,4.06542 1.74194,8.12378 1.96343,12.20291c0.14452,2.66149 -0.90206,4.27536 -1.63293,6.51327c-0.73097,2.23822 -0.48726,4.94867 -1.16462,7.14402c-0.73201,2.37248 -1.90737,4.61818 -3.34163,6.39765c-1.05216,1.3343 -2.57267,2.73141 -3.44127,4.20713c-0.96356,1.63707 -1.36073,4.11203 -2.64909,5.5369c-1.87032,2.06849 -4.88564,1.82531 -7.4002,1.73109c-4.21978,-0.15814 -8.58606,-0.47945 -12.77463,-0.3449c-2.12006,-0.28602 -3.97553,0.43347 -6.07422,0.32728c-5.61027,-0.28387 -11.62735,-0.35684 -16.39648,-4.71981c-1.76988,-1.61915 -3.08758,-2.2613 -4.24262,-4.63632c-1.68528,-3.5712 -4.80129,-4.76582 -7.48701,-7.00952l-0.83524,-1.8682c0,0 -0.31517,-0.96381 0.3181,-1.40762zM288.97038,240.80765c1.92454,0.28892 3.76909,0.90483 5.08083,1.82491c1.92433,1.34977 2.5819,3.3837 3.66445,5.52673c1.5652,3.09848 3.24788,6.84229 3.27844,10.33945c0,0 0,1.25 -1.06905,1.10577c-1.06904,-0.14423 -1.06904,-1.39423 -1.06904,-1.39423c0.03437,-2.92659 -1.63373,-6.37751 -2.94417,-8.95217c-0.66281,-1.30222 -1.40787,-3.62092 -2.67884,-4.42625c-1.83997,-1.16585 -4.10974,-1.14512 -6.07019,-1.41253c-1.37937,-0.18815 -2.92811,-0.43544 -4.15262,0.22152c-1.80591,3.5086 -1.39986,9.86167 -0.33884,14.21719c0.30001,0.17077 0.65195,0.52395 0.65195,1.24116c0,1.25 -1.06904,1.10577 -1.06904,1.10577l-1.40687,-1.04452c-0.98723,-3.63387 -1.49839,-8.26407 -0.96022,-12.26353c-0.37616,-0.9009 -1.23334,-0.48541 -2.14878,-0.61669c-1.77684,-0.25481 -3.61717,0.29079 -5.13189,1.18714c-0.78215,0.46284 -1.64968,0.76821 -2.36664,1.34725c-0.47705,0.38528 -0.36789,1.40327 -0.5073,1.91515c-0.97778,3.59011 -2.01372,5.92677 -0.21905,9.74764c0.40562,2.68442 0.3192,5.25318 0.64412,7.91807l0.01075,0.4078c0,0 -0.00001,1.25 -1.06905,1.10577c-1.06904,-0.14423 -1.06904,-1.39423 -1.06904,-1.39423l0.01075,-0.05135c-0.29468,-2.4837 -0.22546,-4.90056 -0.53394,-7.39298c-1.33641,-2.71717 -1.32695,-4.99649 -0.86636,-7.31331c-1.74121,-0.15233 -3.44044,-0.05754 -5.14948,0.16947c-0.57625,0.07654 -1.39182,-0.31842 -1.73447,0.19863c-0.41208,0.62185 0.12306,1.69489 -0.01449,2.49195c-0.89071,5.16141 -0.01984,9.93218 0.01993,15.14408c0,2.03183 0.00217,4.06395 -0.00364,6.09499l0.12207,0.8558c2.86088,2.24872 5.74968,3.67972 7.58292,7.44932c0.94279,1.99782 2.0896,2.37906 3.61107,3.76972c6.30831,5.76594 14.12135,2.84002 21.11728,3.78387c4.17674,-0.13418 8.54239,0.18611 12.74986,0.34378c1.79049,0.0671 4.65174,0.52925 5.95107,-1.05919c1.16647,-1.42602 1.52793,-3.67104 2.4558,-5.25324c0.92314,-1.57411 2.51169,-3.06693 3.62705,-4.4815c3.0531,-3.71331 2.64522,-8.23546 4.13282,-12.84207c0.5941,-1.83972 1.65961,-3.28556 1.50854,-5.46007c-0.28487,-4.10039 -1.40117,-8.11225 -1.96342,-12.20292c-0.00322,-4.71265 -3.39344,-5.02198 -6.22053,-7.72167c-2.19381,-2.09495 -3.14511,-5.10804 -4.57648,-7.80015c-1.21641,-2.2878 -4.60872,-3.78157 -6.59375,-4.04372c-1.95601,-0.27154 -3.04638,0.69492 -4.88995,0.92179c-1.63284,0.20094 -3.46778,-0.90148 -5.1235,-1.12486c-0.68506,-0.09242 -1.59324,-0.8775 -2.05431,-0.34726c-0.48712,0.5602 -0.39453,1.61827 -0.83356,2.23184c-1.23251,1.72251 -1.85673,3.57703 -1.39116,5.93186z" fill="#000000"/><path d="M290.36044,234.82567c0.43903,-0.61357 0.34789,-1.67146 0.83501,-2.23166c0.46107,-0.53024 1.37259,0.25547 2.05765,0.3479c1.65572,0.22338 3.49874,1.32863 5.13158,1.12769c1.84357,-0.22687 2.93979,-1.19003 4.8958,-0.91849c1.98503,0.26215 5.38585,1.76302 6.60226,4.05083c1.43138,2.69212 2.39024,5.71503 4.58406,7.80998c2.82709,2.69969 6.22305,3.02126 6.22627,7.73391c0.56225,4.09067 1.68177,8.11878 1.96664,12.21917c0.15107,2.17451 -0.9145,3.62818 -1.5086,5.4679c-1.4876,4.60661 -1.08471,9.14758 -4.13781,12.86089c-1.11536,1.41457 -2.70844,2.91466 -3.63158,4.48877c-0.92787,1.5822 -1.29451,3.83272 -2.46097,5.25873c-1.29933,1.58844 -4.16745,1.13101 -5.95794,1.06391c-4.20747,-0.15767 -8.59217,-0.47411 -12.76891,-0.33993c-6.99592,-0.94385 -14.83755,1.96742 -21.14587,-3.79852c-1.52148,-1.39066 -2.67274,-1.77728 -3.61553,-3.7751c-1.83324,-3.7696 -4.72861,-5.21214 -7.5895,-7.46086l-0.12246,-0.85672c0.00581,-2.03104 0.00128,-4.06994 0.00128,-6.10177c-0.03977,-5.21191 -0.91291,-10.00274 -0.0222,-15.16415c0.13755,-0.79706 -0.3973,-1.87344 0.01478,-2.49528c0.34265,-0.51706 1.15835,-0.12307 1.7346,-0.19961c1.70904,-0.22701 3.49228,-0.29198 5.23348,-0.13966c-0.46058,2.31683 -0.46907,4.58383 0.86735,7.301c0.30848,2.49242 0.23739,4.89602 0.53206,7.37972l-0.01076,0.05127c0,0 -0.00079,1.24718 1.06825,1.39141c1.06904,0.14423 0.98852,-1.083 0.98852,-1.083l-0.01095,-0.40855c-0.32492,-2.66489 -0.24058,-5.24922 -0.64621,-7.93363c-1.79467,-3.82087 -0.7558,-6.17547 0.22198,-9.76558c0.13941,-0.51188 0.03155,-1.5332 0.50861,-1.91848c0.71696,-0.57904 1.58668,-0.8888 2.36883,-1.35164c1.51472,-0.89635 3.36089,-1.44983 5.13773,-1.19502c0.91544,0.13128 1.83119,-0.20353 2.20734,0.69737c-0.53817,3.99946 -0.01345,8.60517 0.97379,12.23904l1.32321,1.01257c0,0 1.07075,0.13702 1.07075,-1.11298c0,-0.71721 -0.3507,-1.07385 -0.65071,-1.24463c-1.06102,-4.35552 -1.44718,-10.73028 0.35873,-14.23887c1.22451,-0.65696 2.78281,-0.41241 4.16219,-0.22426c1.96045,0.26741 4.24576,0.24797 6.08573,1.41383c1.27098,0.80533 2.0257,3.12829 2.6885,4.43051c1.31044,2.57465 2.99849,6.04702 2.96412,8.97361c0,0 0.00317,1.25698 1.07222,1.40121c1.06904,0.14423 0.99249,-1.07157 0.99249,-1.07157c-0.03056,-3.49716 -1.69422,-7.21679 -3.25941,-10.31527c-1.08255,-2.14303 -1.72847,-4.17099 -3.65279,-5.52076c-1.31173,-0.92007 -3.14461,-1.53399 -5.06915,-1.82291c-0.46556,-2.35483 0.15304,-4.3098 1.38554,-6.03232z" fill="#ffffff"/></g></g></g></svg>