<svg version="1.1" xmlns="http://www.w3.org/2000/svg" xmlns:xlink="http://www.w3.org/1999/xlink" width="174.63528" height="433.45147" viewBox="0,0,174.63528,433.45147"><defs><linearGradient x1="298.10733" y1="171.073" x2="298.39484" y2="196.34988" gradientUnits="userSpaceOnUse" id="color-1"><stop offset="0" stop-color="#ffffff"/><stop offset="1" stop-color="#2c2c2c"/></linearGradient><linearGradient x1="319.91727" y1="175.26395" x2="320.24071" y2="203.70012" gradientUnits="userSpaceOnUse" id="color-2"><stop offset="0" stop-color="#ffffff"/><stop offset="1" stop-color="#2c2c2c"/></linearGradient><linearGradient x1="322.4151" y1="203.47443" x2="322.96432" y2="251.76081" gradientUnits="userSpaceOnUse" id="color-3"><stop offset="0" stop-color="#717171"/><stop offset="1" stop-color="#2c2c2c"/></linearGradient><linearGradient x1="340.03641" y1="169.15483" x2="340.32391" y2="194.43171" gradientUnits="userSpaceOnUse" id="color-4"><stop offset="0" stop-color="#ffffff"/><stop offset="1" stop-color="#2c2c2c"/></linearGradient><linearGradient x1="310.82335" y1="72.12995" x2="311.46182" y2="79.08845" gradientUnits="userSpaceOnUse" id="color-5"><stop offset="0" stop-color="#a2a2a2"/><stop offset="1" stop-color="#7f7f7f"/></linearGradient></defs><g transform="translate(-227.03777,-22.65461)"><g stroke-miterlimit="10"><g fill="#000000" stroke="none" stroke-width="0.5" stroke-linecap="butt"><path d="M265.26451,104.13181c0.56862,-0.94848 1.14616,-1.88937 1.74966,-2.80853c1.00942,-1.53684 1.85884,-3.15843 2.72122,-4.779c-1.32782,0.57427 -2.21102,1.71845 -2.30434,3.69472c-0.90665,0.76813 -1.97346,2.51253 -2.16655,3.8928zM342.77972,196.02406c-0.05844,-0.24767 -0.07758,-0.52311 -0.07795,-0.80111c-0.17743,-1.30282 -0.57458,-2.57335 -0.81696,-3.84799c0.01128,0.99032 0.02261,1.98064 0.03412,2.97102c0.04079,3.50739 0.53355,7.10507 0.57314,10.58546c0.03265,2.87026 0.6817,6.75701 0.06749,9.48998l0.03955,0.00983l0.00432,0.49954c0,0.00003 0,0.00006 0,0.00008c0.0012,0.13767 -0.11165,0.22116 -0.25237,0.18656c-0.02142,-0.00527 -0.04225,-0.01296 -0.06218,-0.02272c0.742,3.02149 1.04869,6.22095 1.60397,9.1828c0.67484,3.59961 0.93633,7.14887 1.83527,10.75268c0.42262,1.69425 1.01629,3.50215 1.24687,5.18439c0.06845,0.4994 0.05523,1.04775 0.05437,1.53449c-0.00032,0.1789 0.02469,0.69662 0.10135,0.55374c0.2319,-0.43216 0.25722,-1.01843 0.3427,-1.5834l-0.07818,-0.02503l0.03294,-0.48686c0.00734,-0.12805 0.11681,-0.2038 0.252,-0.17057c0.10369,0.02549 0.19361,0.10799 0.23454,0.2048l0.22206,0.49975c1.06882,2.41136 1.02361,4.82351 1.86813,7.21893c1.24817,3.55902 1.33502,7.23506 1.87735,10.7975c0.15104,0.99221 1.54302,5.8632 0.72295,6.32152c-0.00646,0.00361 -0.0129,0.00712 -0.01931,0.01053c0.25099,0.76115 0.47476,1.5278 0.64454,2.31935c1.14514,3.57629 2.39134,7.23984 3.16676,10.82203c0.36669,1.74712 1.78644,3.75145 2.37941,5.47216c0.49361,1.43241 0.0783,3.70818 0.05758,5.10103c-0.20418,2.42322 -1.55979,4.87095 -2.66316,6.83732c-0.37702,0.67191 -0.36927,1.59589 -0.93607,2.06112c-2.01584,2.46589 -3.82081,4.59472 -6.3591,6.51195c-2.29614,1.9887 -4.52662,4.22595 -6.53597,6.50994c-1.99078,2.25349 -5.04793,3.8829 -7.43482,5.6243c-2.17435,1.44573 -5.43541,3.75865 -8.67438,3.15314c-3.51254,-0.74098 -6.86829,-0.40102 -10.52768,-1.30092c-3.51875,-0.86583 -6.996,-2.17098 -10.61944,-3.05116c-3.57369,-0.8681 -7.08113,-1.29459 -10.67967,-2.18717c-3.22522,-0.80001 -7.74515,-3.18558 -9.67686,-6.24818c-2.21386,-3.68937 -6.55016,-3.25235 -9.52263,-2.95867c-0.79033,0.07782 -2.91601,0.76457 -3.65755,-0.23564c-0.49185,-0.66343 -1.04611,-4.6609 -0.9517,-6.03758c-2.73405,0.94491 -3.4099,3.21744 -5.18788,4.97045l0.02486,0.01916l-0.23539,0.37618c-0.04148,0.07009 -0.12657,0.10407 -0.22543,0.07976c-0.14095,-0.03466 -0.25649,-0.17467 -0.25806,-0.31274c-0.00001,-0.0008 -0.00002,-0.0016 -0.00002,-0.00239l-0.0015,-0.49858l0.00063,0.00016l-0.00063,-0.00253c0.03179,-1.90173 0.06169,-4.66828 0.69045,-6.30442c0.70234,-1.79667 1.24431,-3.82988 1.43223,-5.87816c0.10944,-1.19291 -0.28826,-2.66123 0.04601,-3.76203c-2.33824,0.62536 -4.32132,3.32539 -6.52803,4.70023l0.02284,0.0243l-0.32409,0.29968c-0.04619,0.04344 -0.11624,0.06109 -0.19502,0.04171c-0.14095,-0.03466 -0.25649,-0.17467 -0.25806,-0.31274c-0.00001,-0.00073 -0.00002,-0.00146 -0.00001,-0.00219l-0.00186,-0.4987c0.0043,-2.4665 1.00429,-5.74414 1.87548,-7.84689c0.77107,-1.8611 1.16257,-4.27501 1.11089,-6.4795c-0.00476,-0.20313 -0.01592,-2.20618 -0.13922,-2.2548c-0.27973,-0.1103 -0.39091,0.31051 -0.63769,0.38143c-2.78266,0.78816 -4.67158,3.01184 -7.28187,4.06411l0.00458,0.41033c0,0 0,0 0,0.00001c0.00154,0.13803 -0.11143,0.22183 -0.25238,0.18718c-0.14094,-0.03466 -0.25647,-0.17466 -0.25806,-0.31272v0l-0.00573,-0.49998l0.00015,0.00004v-0.00007l0.00004,0.00001l-0.00004,-0.00005c-0.01269,-1.16958 -0.01483,-2.33394 0.00545,-3.49497c0.05469,-3.13148 1.0973,-7.00943 2.03536,-9.78149c0.7017,-2.07357 1.02627,-4.1964 1.2937,-6.46468c0.08342,-0.7075 -0.15076,-1.70493 -0.01513,-2.40319c-0.90905,0.75119 -2.46373,1.4066 -3.11874,2.34937c-0.3496,0.50318 -0.46044,1.09752 -0.7237,1.63323l0.08805,0.05435l-0.17471,0.41736c-0.03405,0.08824 -0.12769,0.13439 -0.23866,0.10711c-0.14095,-0.03466 -0.25649,-0.17467 -0.25806,-0.31274c-0.00002,-0.00183 -0.00002,-0.00364 0,-0.00545l0.00389,-0.49676c0.00702,-0.874 0.10669,-1.64133 0.31381,-2.43869c0.83313,-3.20713 1.46269,-6.42859 2.52503,-9.52853c0.75814,-2.21227 0.93366,-4.63607 1.52787,-6.90771c0.23074,-0.88213 0.83233,-1.60361 0.81243,-2.58761c-0.00791,-0.65093 0.31433,-3.79385 -0.19581,-4.29933c-0.06955,-0.06891 -0.97084,0.42416 -1.03347,0.45268c-1.00668,0.45851 -1.62795,1.3635 -2.43467,2.03813c-0.29111,0.71778 -0.60375,1.4246 -0.86858,2.15532c-0.05567,0.15359 -0.42117,1.45596 -0.49206,1.46223c-1.81116,0.16006 -0.13079,-3.34902 0.39247,-3.6363c0.14461,-0.07835 0.34859,-0.26014 0.5937,-0.498c0.23504,-0.61865 0.45282,-1.24661 0.60679,-1.9027c0.75497,-3.21712 2.31501,-5.90466 2.95441,-9.25668c0.81088,-2.10286 1.40251,-4.43045 1.6067,-6.82726c0.04146,-0.48664 -0.11154,-1.13321 -0.07272,-1.65272c-0.7625,0.81597 -2.2226,1.355 -3.11873,2.02113c-0.85321,1.1792 -1.94218,2.24097 -2.71977,3.46829c-0.55398,0.87437 -0.7475,2.31627 -1.3371,3.24826c-0.0558,0.17524 -0.11216,0.34785 -0.16896,0.51726l-0.14567,0.43448c-0.02952,0.09675 -0.12683,0.1489 -0.2432,0.12028c-0.1407,-0.0346 -0.25609,-0.17419 -0.25805,-0.31202c0,-0.00003 0,-0.00006 0,-0.00009l-0.00715,-0.50023l0.11681,0.02839c-0.02867,-0.98346 0.34587,-1.97761 0.89965,-2.93034c0.17645,-0.68377 0.33663,-1.36949 0.47283,-2.02947c0.67793,-3.25643 1.89938,-6.24966 2.80898,-9.39244c0.59196,-2.03992 1.19889,-4.22718 1.61323,-6.35057c0.10104,-0.51778 0.02739,-1.25977 0.08351,-1.86912c-0.87035,1.37955 -2.27513,2.32457 -3.10814,3.72249c-0.55992,0.93963 -0.92481,2.19992 -1.65291,2.9305c0.00012,0.01083 0.00024,0.02165 0.00035,0.03247l0.00523,0.49982c0,0.00001 0,0.00002 0,0.00003c0.00145,0.13793 -0.1115,0.22164 -0.25238,0.187c-0.14094,-0.03466 -0.25646,-0.17464 -0.25806,-0.3127l-0.00577,-0.49999l0.00054,0.00013v-0.00026c-0.01582,-1.51317 -0.07959,-3.03616 0.1227,-4.48186c0.46443,-3.31917 0.66766,-6.75371 1.07035,-10.1101c-0.02279,-1.82619 -0.01638,-3.6474 -0.07626,-5.48233c-0.00852,-0.2613 0.13449,-1.59906 0.00752,-1.7794c-0.25663,-0.36449 -0.40873,0.5665 -0.64769,0.81743c-0.12817,0.13459 -0.24696,0.22019 -0.37369,0.28714l-0.35326,0.26888c-0.0458,0.03492 -0.11004,0.04779 -0.18147,0.03023c-0.14095,-0.03466 -0.25649,-0.17467 -0.25806,-0.31274v0l-0.00569,-0.49997v0v-0.00001c-0.04046,-3.5931 0.54269,-6.73566 1.15742,-10.10808c0.38698,-2.09495 0.03353,-4.6902 0.00785,-6.92547c-0.0056,-0.48816 -0.13507,-1.28958 -0.08893,-1.91435c-0.39303,0.38818 -0.7838,0.86793 -1.14272,1.36994c-0.12578,0.57146 -0.24513,1.14287 -0.36068,1.71072c-0.12992,0.63611 -0.48329,3.29698 -1.46563,1.83434c-0.61728,-0.9191 0.34628,-2.64049 1.36772,-3.95983c0.58111,-2.60798 1.30201,-5.21098 2.40113,-7.47441c1.37826,-2.83824 1.8364,-6.1767 3.2379,-9.06764c0.73208,-3.19441 2.0027,-6.1939 2.3872,-9.51954c0.19388,-1.67687 -0.305,-1.68761 -0.94651,-1.07119c-0.06189,0.17619 -0.12283,0.35208 -0.1826,0.52769c-0.73669,1.33768 -1.17684,2.72837 -1.68121,4.20966l-0.0631,0.45913c-0.01432,0.11942 -0.12061,0.18841 -0.25075,0.15642c-0.1353,-0.03326 -0.24718,-0.16361 -0.25732,-0.29612l-0.04351,-0.50575l0.0773,0.01336c-0.32075,-1.78126 0.65887,-2.9631 1.64355,-4.15685c0.03236,-0.0607 0.0653,-0.12127 0.09886,-0.18171c1.00724,-2.99083 2.3704,-6.03484 2.9477,-9.18856c0.59169,-3.23221 1.31893,-6.29629 1.69075,-9.60982c-2.74089,0.67986 -4.72305,2.85872 -7.2313,3.80587l0.02005,0.02797l-0.38614,0.2245c-0.04411,0.02615 -0.10156,0.03436 -0.16461,0.01885c-0.14095,-0.03466 -0.25649,-0.17467 -0.25806,-0.31274c-0.00011,-0.00979 0.00035,-0.0193 0.00137,-0.02852l0.04613,-0.48122l0.00478,0.00166l-0.00225,-0.01997c0.08352,-0.30732 0.16726,-0.61452 0.25126,-0.9216c0.8685,-3.12421 2.09767,-6.05679 3.50942,-8.94638c1.39649,-2.85835 3.03466,-5.55295 4.59962,-8.29293c0.98158,-1.53475 1.90157,-3.12007 2.83698,-4.69207c-0.22291,-0.08496 -0.21417,-0.31092 -0.21417,-0.31092l0.00256,-0.06643c0.0569,-1.40235 1.19568,-3.62077 2.23231,-4.37214c-0.04137,-2.18727 1.34252,-3.61581 3.20263,-4.18125c0.26688,-0.4956 0.53764,-0.98979 0.81723,-1.48011c0,0 0.11159,-0.19553 0.34114,-0.0276c0.22954,0.16792 0.11795,0.36345 0.11795,0.36345c-0.18383,0.32182 -0.36382,0.64536 -0.54137,0.96991c0.93729,-0.16349 1.9552,-0.12785 2.95096,0.11823c0.34155,-0.51582 1.31547,-0.50901 1.88776,-0.93045c1.97577,-1.45497 3.84978,-2.426 5.81161,-3.85687c2.45122,-1.68532 5.09091,-3.81864 8.07141,-4.64484c2.48297,-1.85868 5.39873,-3.14079 7.9131,-4.94786c0.91315,-0.60477 2.44295,-1.81443 3.59467,-1.98533c1.86439,-0.27664 3.98138,0.42795 5.88574,0.12057c2.37849,0.27938 5.00847,0.10021 7.28572,0.04783c0.94693,-0.02178 2.12244,0.91104 2.75913,0.16783c3.58907,-0.11586 6.35051,-0.95188 9.6559,-1.80145c2.00653,-0.51162 3.51462,-1.5941 5.30311,-2.40758c0.46559,-0.21177 1.19888,-0.42867 1.73342,0.18283c0.51724,0.59171 0.78397,1.92826 1.00529,2.64391c0.81493,3.62584 1.6424,7.18642 2.39056,10.81522c0.2833,1.37411 0.3936,2.68846 0.44052,3.99666c0.01481,0.03225 0.02421,0.06628 0.02682,0.10045l0.04365,0.50577c0.01686,0.2021 0.03718,0.40526 0.06051,0.60936c0.0315,0.17207 0.05399,0.35607 0.06928,0.5481c0.36397,2.64106 1.15782,5.41818 1.42059,8.064c0.35641,3.58871 0.39486,7.06185 0.43469,10.58526c0.03229,2.85725 0.70489,6.81697 -0.02345,9.49179l0.03914,0.01509l-0.06614,0.47365c-0.01453,0.11915 -0.12072,0.18795 -0.25069,0.15598c-0.08677,-0.02133 -0.1639,-0.08259 -0.21075,-0.15874l-0.29963,-0.47646l0.01993,-0.00914l-0.05504,-0.06516c-0.04346,-0.74926 -0.20095,-1.44777 -0.38497,-2.12653c-0.0038,0.75485 -0.08452,1.50756 0.01495,2.25914c0.27025,2.04199 0.97001,4.11241 1.21568,6.16914c0.42752,3.57912 0.77681,7.1459 1.2077,10.72582c0.00691,0.62164 0.40477,5.03781 -0.78961,4.26591c-0.13449,-0.08692 -0.15979,-1.05123 -0.1794,-1.2323c-0.03932,-0.36308 -0.17319,-0.78581 -0.33431,-1.22921c0.09114,0.91984 0.17559,1.83937 0.38969,2.79251c0.81157,3.61316 1.52704,7.21544 2.18302,10.82025c0.64926,3.56793 0.3837,7.08217 0.78631,10.64013c0.1718,1.52669 0.08986,3.0417 0.09679,4.53538c0.00084,0.18016 0.03361,1.15266 -0.11727,1.18064c-0.44188,0.08194 -0.90511,-1.23317 -1.20865,-2.52622c0.13741,2.34234 0.46682,4.70204 0.49788,7.03251c0.04434,3.48961 0.981,7.18639 1.0224,10.68055c0.03171,2.78774 0.67355,6.61975 0.10336,9.31939c0.00134,0.06046 0.00264,0.11991 0.00396,0.17829l-0.0012,0.0009l0.00122,0.0003v0.00034l0.0007,0.00017l0.00568,0.49997v0c0.00157,0.13806 -0.11142,0.22188 -0.25238,0.18722c-0.14083,-0.03463 -0.2563,-0.17445 -0.25806,-0.3124c0,-0.00001 0,-0.00003 0,-0.00004l-0.00637,-0.49919c-0.00204,-0.09098 -0.00562,-0.18176 -0.01059,-0.27235zM255.69869,146.3856c0.14809,-0.43707 0.29811,-0.86694 0.45964,-1.29012c-0.21023,0.39538 -0.36568,0.75016 -0.42591,0.98791c-0.02495,0.09851 -0.03383,0.19983 -0.03372,0.30222zM250.29236,171.68304c-0.10108,0.1741 -0.19503,0.3437 -0.28054,0.50569c-0.21077,0.39935 -0.28447,0.7713 -0.27436,1.25972c0.00398,0.19213 0.1001,0.78396 0.07849,0.58844c-0.08569,-0.77542 0.28285,-1.40058 0.43081,-2.13062c0.01513,-0.07436 0.03033,-0.14877 0.04559,-0.22324zM253.64313,236.92903c-0.5928,0.35617 -0.83331,0.73654 -0.92472,1.56768c-0.03533,0.32122 0.04918,1.32993 0.10961,1.01864c0.17415,-0.89715 0.48604,-1.74301 0.81512,-2.58632zM341.9628,213.88145c-0.10397,-0.48339 -0.29582,-1.02677 -0.50486,-1.58394c0.12676,0.39146 0.25644,0.77934 0.37542,1.15806c0.04442,0.14139 0.08754,0.28337 0.12944,0.42589z"/><path d="M372.36591,108.05157c-0.13826,-1.97364 -1.04724,-3.09743 -2.38778,-3.64135c0.89902,1.60054 1.78511,3.20238 2.82922,4.71587c0.62426,0.90519 1.22304,1.83271 1.81309,2.76801c-0.22443,-1.37553 -1.33065,-3.09522 -2.25453,-3.84253zM299.21106,205.79822l0.00499,0.49921c0,0.00001 0,0.00003 0,0.00004c0.00138,0.13796 -0.11087,0.28037 -0.25089,0.31818c-0.14013,0.03786 -0.255,-0.04338 -0.25657,-0.18144v0l-0.0057,-0.49997l0.0007,-0.00019v-0.00034l0.00122,-0.00032l-0.00122,-0.00088c-0.00001,-0.05839 -0.00006,-0.11787 -0.0001,-0.17833c-0.63145,-2.68597 -0.07693,-6.5316 -0.10864,-9.31933c-0.03807,-3.49421 0.81424,-7.21134 0.7792,-10.70105c-0.02196,-2.33058 0.25369,-4.69716 0.3378,-7.04202c-0.27406,1.29962 -0.70726,2.62492 -1.15089,2.55306c-0.15147,-0.02454 -0.14083,-0.99753 -0.14409,-1.17767c-0.02705,-1.49344 -0.14342,-3.00619 -0.0064,-4.5364c0.32158,-3.5662 -0.02385,-7.07349 0.54409,-10.65527c0.57381,-3.6188 1.20716,-7.23643 1.93634,-10.86711c0.19236,-0.95776 0.25587,-1.87896 0.32607,-2.80065c-0.15101,0.44695 -0.27521,0.87262 -0.30628,1.23649c-0.01549,0.18147 -0.01885,1.1461 -0.15132,1.23605c-1.17653,0.79886 -0.87922,-3.6252 -0.88644,-4.24684c0.34936,-3.58881 0.61742,-7.1626 0.96342,-10.75051c0.19883,-2.06178 0.85131,-4.14759 1.07505,-6.1952c0.08235,-0.75365 -0.01547,-1.50432 -0.03644,-2.25889c-0.16855,0.68276 -0.31009,1.38469 -0.3365,2.13475l-0.05355,0.06639l0.02013,0.00868l-0.28872,0.48316c-0.0451,0.0772 -0.12082,0.14018 -0.20708,0.16349c-0.12921,0.0349 -0.23694,-0.03144 -0.25418,-0.15024l-0.0769,-0.47203l0.03879,-0.01596c-0.789,-2.65756 -0.20663,-6.63156 -0.23934,-9.4888c-0.04033,-3.52341 -0.08088,-6.99651 0.19381,-10.59241c0.20252,-2.65111 0.933,-5.44557 1.2368,-8.09423c0.01091,-0.19233 0.02922,-0.37679 0.05679,-0.54953c0.01868,-0.20459 0.03438,-0.40815 0.04663,-0.61058l0.03214,-0.50663c0.00184,-0.03422 0.01045,-0.06845 0.02453,-0.10104c0.01714,-1.30893 0.09754,-2.62545 0.3495,-4.00564c0.66542,-3.64487 1.41169,-7.22336 2.14393,-10.8668c0.20498,-0.72049 0.44124,-2.06276 0.94489,-2.66608c0.52049,-0.6235 1.25853,-0.42333 1.72881,-0.22221c1.80653,0.77259 3.33885,1.82047 5.35651,2.28633c3.32386,0.77418 6.10359,1.54716 9.69437,1.58135c0.65343,0.72854 1.80741,-0.23078 2.7546,-0.23053c2.27784,0.00057 4.91122,0.11987 7.28274,-0.21353c1.91086,0.26398 4.01128,-0.48857 5.88148,-0.25441c1.15531,0.14466 2.71223,1.3192 3.6389,1.90305c2.55483,1.74942 5.49899,2.96488 8.02359,4.7666c2.99853,0.75819 5.68607,2.83091 8.17498,4.46004c1.99387,1.38587 3.88949,2.31403 5.89783,3.72368c0.58173,0.40831 1.55525,0.37937 1.90843,0.88728c0.9899,-0.26867 2.00674,-0.32745 2.94749,-0.18534c-0.18489,-0.32043 -0.37219,-0.63979 -0.56329,-0.95734c0,0 -0.11601,-0.19293 0.10965,-0.36604c0.22567,-0.1731 0.34168,0.01984 0.34168,0.01984c0.29068,0.48384 0.57261,0.97173 0.85068,1.46114c1.87249,0.52298 3.28853,1.91967 3.29691,4.10732c1.05345,0.7276 2.2424,2.91953 2.33118,4.32023l0.00407,0.06635c0,0 0.01388,0.22572 -0.20704,0.31572c0.97093,1.55032 1.92674,3.11431 2.94297,4.62633c1.62688,2.70367 3.32591,5.36033 4.78706,8.18616c1.47712,2.85673 2.77267,5.76059 3.71201,8.86424c0.09097,0.3051 0.18167,0.61031 0.27216,0.91564l-0.0018,0.02001l0.00474,-0.00175l0.05706,0.48004c0.00121,0.0092 0.0019,0.01869 0.00201,0.02847c0.00157,0.13806 -0.11075,0.28068 -0.25088,0.31853c-0.06267,0.01692 -0.12029,0.01004 -0.16498,-0.01511l-0.39116,-0.21566l0.01941,-0.02842c-2.52914,-0.88985 -4.56035,-3.02307 -7.31599,-3.64041c0.44709,3.30422 1.24384,6.35095 1.9089,9.56888c0.6489,3.13977 2.08094,6.152 3.15594,9.11915c0.03491,0.05966 0.06923,0.11946 0.10297,0.17941c1.01158,1.17105 2.01782,2.3303 1.73767,4.11839l0.07697,-0.01512l-0.032,0.50661c-0.00713,0.1327 -0.11602,0.26556 -0.25052,0.3019c-0.12937,0.03495 -0.2372,-0.0316 -0.25424,-0.15068l-0.07353,-0.45756c-0.53793,-1.46944 -1.0096,-2.84976 -1.77652,-4.17033c-0.06375,-0.17421 -0.12866,-0.34867 -0.19456,-0.5234c-0.65537,-0.60167 -1.15388,-0.57957 -0.9219,1.09245c0.46004,3.31603 1.79857,6.28584 2.60311,9.46278c1.46688,2.85832 2.00084,6.18549 3.44331,8.99165c1.15034,2.23786 1.93025,4.82379 2.57053,7.41786c1.0512,1.29577 2.05365,2.9948 1.45744,3.9277c-0.94881,1.48461 -1.36262,-1.16753 -1.50697,-1.80052c-0.12844,-0.56508 -0.26075,-1.13364 -0.39949,-1.70208c-0.37025,-0.4937 -0.77184,-0.96445 -1.17359,-1.34359c0.06034,0.62356 -0.05087,1.42772 -0.04536,1.91588c0.02518,2.23527 -0.26914,4.83789 0.16539,6.9235c0.69128,3.35756 1.34576,6.48603 1.38704,10.07914l-0.00001,0.00001h0.00001l0.00569,0.49997v0c0.00157,0.13806 -0.11075,0.28067 -0.25088,0.31852c-0.07101,0.01918 -0.13553,0.00778 -0.18211,-0.0261l-0.3593,-0.26077c-0.12823,-0.06406 -0.24893,-0.14693 -0.38012,-0.27856c-0.24461,-0.24543 -0.41784,-1.17272 -0.66612,-0.80249c-0.12283,0.18318 0.05057,1.51734 0.04799,1.77877c-0.01812,1.8358 0.02971,3.6564 0.04846,5.48263c0.47892,3.34636 0.76023,6.77539 1.30004,10.08314c0.23511,1.44072 0.20601,2.96477 0.22461,4.4779v0.00027l0.00054,-0.00015l0.00561,0.49999c0.00155,0.13805 -0.11077,0.28064 -0.25088,0.31849c-0.14005,0.03784 -0.25487,-0.04329 -0.25657,-0.18121c0,-0.00001 0,-0.00002 0,-0.00003l-0.00615,-0.49981c-0.00013,-0.01083 -0.00027,-0.02165 -0.00039,-0.03247c-0.74453,-0.71382 -1.13798,-1.96548 -1.71913,-2.89214c-0.8646,-1.37862 -2.29051,-2.29144 -3.19201,-3.65083c0.06996,0.60791 0.01322,1.35139 0.126,1.86674c0.46252,2.11342 1.11905,4.28631 1.75726,6.31223c0.98084,3.12128 2.27007,6.08595 3.02189,9.32611c0.15118,0.6567 0.3269,1.33861 0.51887,2.01819c0.57531,0.9399 0.97236,1.92527 0.96607,2.90912l0.11613,-0.03104l0.00423,0.50026c0,0.00003 0,0.00006 0,0.00009c0.00118,0.13785 -0.111,0.28002 -0.25089,0.31781c-0.11569,0.03125 -0.21416,-0.01868 -0.24587,-0.11473l-0.15551,-0.43106c-0.06064,-0.16807 -0.12091,-0.33935 -0.18068,-0.51328c-0.61064,-0.91832 -0.83691,-2.35545 -1.41064,-3.217c-0.80532,-1.20931 -1.91814,-2.24604 -2.79795,-3.40553c-0.91105,-0.64557 -2.38304,-1.15126 -3.1639,-1.94967c0.05062,0.51848 -0.08763,1.16837 -0.03512,1.65395c0.25865,2.39154 0.90307,4.70508 1.76158,6.78895c0.71548,3.33661 2.33625,5.98797 3.16419,9.18709c0.16885,0.65243 0.40086,1.27527 0.64991,1.88841c0.25047,0.23223 0.45853,0.40933 0.60488,0.48437c0.52966,0.27531 2.2894,3.74525 0.47508,3.62643c-0.07102,-0.00465 -0.46605,-1.29836 -0.52519,-1.45066c-0.28139,-0.72451 -0.61003,-1.42403 -0.91739,-2.135c-0.82186,-0.65611 -1.46355,-1.54673 -2.4804,-1.98223c-0.06326,-0.02709 -0.97553,-0.49953 -1.04349,-0.42906c-0.4985,0.51695 -0.10487,3.65173 -0.09797,4.30267c0.00249,0.9842 0.62033,1.69181 0.87109,2.56846c0.64573,2.25754 0.87634,4.67672 1.6846,6.87116c1.13258,3.07498 1.83526,6.28128 2.74111,9.46864c0.22521,0.79243 0.3423,1.55731 0.3692,2.43092l0.01519,0.49654c0.00006,0.0018 0.0001,0.00362 0.00012,0.00545c0.00157,0.13806 -0.11075,0.28067 -0.25088,0.31852c-0.11032,0.02981 -0.20498,-0.01421 -0.24103,-0.10166l-0.18416,-0.41329l0.08679,-0.05634c-0.27538,-0.52959 -0.39971,-1.12125 -0.76066,-1.61634c-0.67629,-0.92762 -2.24548,-1.54751 -3.17138,-2.27783c0.15148,0.695 -0.05995,1.69749 0.03954,2.40292c0.31895,2.26161 0.69172,4.37651 1.44041,6.43358c1.00087,2.75 2.13141,6.60324 2.25732,9.73267c0.04668,1.16026 0.07103,2.32437 0.08494,3.49394l-0.00004,0.00005l0.00004,-0.00001v0.00008l0.00015,-0.00004l0.00564,0.49998v0c0.00156,0.13805 -0.11076,0.28066 -0.25088,0.3185c-0.14011,0.03785 -0.25496,-0.04336 -0.25657,-0.18139v0l-0.00476,-0.41033c-2.63355,-0.99262 -4.57256,-3.17276 -7.37242,-3.89743c-0.24833,-0.06529 -0.36904,-0.48345 -0.6462,-0.36682c-0.12216,0.05141 -0.08776,2.0542 -0.08791,2.25739c-0.00152,2.2051 0.44477,4.60948 1.25798,6.45256c0.91879,2.08238 1.99308,5.33644 2.05348,7.8022l0.00948,0.4986c0.00002,0.00072 0.00003,0.00146 0.00003,0.00219c0.00157,0.13806 -0.11075,0.28067 -0.25088,0.31852c-0.07832,0.02115 -0.14875,0.00511 -0.19592,-0.03726l-0.33083,-0.29223l0.02228,-0.02481c-2.23741,-1.32429 -4.2814,-3.97851 -6.63324,-4.55053c0.35922,1.09292 -0.00498,2.56989 0.13156,3.76001c0.23446,2.04349 0.82253,4.06383 1.56556,5.84406c0.6658,1.6214 0.75863,4.38657 0.83367,6.28708l-0.00057,0.00255l0.00063,-0.00018l0.00984,0.49848c0.00002,0.00079 0.00003,0.00159 0.00004,0.00239c0.00157,0.13806 -0.11075,0.28067 -0.25088,0.31852c-0.09827,0.02655 -0.18412,-0.00548 -0.22718,-0.0746l-0.24387,-0.37072l0.02441,-0.01973c-1.81739,-1.71211 -2.54475,-3.96868 -5.29959,-4.85115c0.1257,1.37416 -0.3375,5.38322 -0.81413,6.05765c-0.71859,1.01682 -2.85934,0.3786 -3.65124,0.31877c-2.97837,-0.22601 -7.32349,-0.56427 -9.45287,3.1745c-1.86155,3.10575 -6.32605,5.59351 -9.53224,6.46667c-3.5773,0.9742 -7.07413,1.48036 -10.62716,2.42952c-3.60248,0.96237 -7.04915,2.34628 -10.54729,3.29191c-3.63798,0.9829 -7.00057,0.71937 -10.49536,1.54004c-3.22436,0.67903 -6.53719,-1.55913 -8.74385,-2.95502c-2.42588,-1.68666 -5.51931,-3.24611 -7.56083,-5.45374c-2.06078,-2.2377 -4.34157,-4.42363 -6.68235,-6.35959c-2.58123,-1.85899 -4.43416,-3.94623 -6.50557,-6.36563c-0.57723,-0.45221 -0.5905,-1.37612 -0.98271,-2.0393c-1.14782,-1.94076 -2.55874,-4.35703 -2.81799,-6.77498c-0.0524,-1.39201 -0.51937,-3.65774 -0.05846,-5.10101c0.55368,-1.73376 1.92747,-3.76987 2.25432,-5.52487c0.69374,-3.59889 1.85629,-7.28985 2.91979,-10.89126c0.15173,-0.79521 0.35799,-1.56674 0.59161,-2.33341c-0.00649,-0.00326 -0.01301,-0.00662 -0.01955,-0.01009c-0.83027,-0.43955 0.45054,-5.34094 0.57898,-6.33632c0.46115,-3.57385 0.46437,-7.25091 1.63127,-10.8374c0.78982,-2.41401 0.68974,-4.82452 1.70344,-7.25955l0.21063,-0.50467c0.03872,-0.09771 0.12676,-0.18223 0.22983,-0.21008c0.1344,-0.03631 0.24556,0.03693 0.25581,0.16479l0.04401,0.48598l-0.07759,0.0268c0.09831,0.56288 0.13696,1.14842 0.37863,1.57519c0.0799,0.14109 0.09313,-0.37707 0.08874,-0.55592c-0.01193,-0.48659 -0.03763,-1.03449 0.01945,-1.53532c0.19225,-1.68706 0.74465,-3.50799 1.12862,-5.21141c0.81675,-3.62333 0.99743,-7.17762 1.59022,-10.79164c0.48777,-2.97372 0.7216,-6.17933 1.39469,-9.21691c-0.01971,0.0102 -0.04035,0.01838 -0.06165,0.02413c-0.1399,0.03779 -0.25462,-0.04312 -0.25655,-0.18077c0,-0.00003 0,-0.00005 0,-0.00008l-0.00704,-0.49951l0.03933,-0.01073c-0.67621,-2.71828 -0.11574,-6.61879 -0.14838,-9.48906c-0.03959,-3.48038 0.3712,-7.08833 0.33221,-10.59574c-0.01101,-0.99038 -0.02221,-1.98072 -0.03346,-2.97103c-0.21333,1.27983 -0.58147,2.55906 -0.72922,3.86557c0.00596,0.27792 -0.0069,0.55372 -0.0597,0.80267c-0.00291,0.09068 -0.00442,0.18152 -0.00439,0.27252zM385.1043,153.618c-0.06562,-0.23631 -0.22912,-0.58747 -0.44827,-0.97796c0.17111,0.4194 0.33087,0.84575 0.48886,1.27934c-0.00221,-0.10236 -0.01339,-0.20346 -0.04058,-0.30138zM391.1759,179.30943c0.16452,0.72649 0.5472,1.34309 0.47916,2.12027c-0.01715,0.19596 0.06548,-0.3979 0.06508,-0.59007c-0.00101,-0.48854 -0.08314,-0.8587 -0.30294,-1.25316c-0.08917,-0.16001 -0.18695,-0.32742 -0.29197,-0.49919c0.01695,0.07411 0.03385,0.14815 0.05066,0.22215zM390.1331,246.95973c0.06749,0.30983 0.12904,-0.70054 0.08641,-1.02087c-0.11029,-0.82886 -0.35939,-1.20365 -0.96014,-1.54625c0.34817,0.83561 0.67922,1.67415 0.87372,2.56712zM300.55803,222.93116c0.11033,-0.38131 0.23115,-0.77204 0.34897,-1.16628c-0.19631,0.56179 -0.37575,1.10939 -0.4687,1.59501c0.03865,-0.14344 0.07854,-0.28636 0.11973,-0.42872z"/></g><path d="M264.3752,450.33939c0,0 4.61647,-49.15234 3.84012,-83.65673c-0.95124,-42.27701 -9.13025,-151.45727 -9.13025,-151.45727c0,0 -4.89906,-15.71036 -0.63022,-27.23711c3.31831,-8.96016 15.07616,-14.32691 20.34242,-14.6698c11.95775,-0.77861 40.30824,-1.98991 65.06538,-3.60196c13.39262,-0.87205 28.99255,-1.83613 34.5666,8.62292c5.60184,10.51121 1.14436,32.44801 1.14436,32.44801c0,0 -2.13044,102.41183 -1.59585,144.94376c0.48241,38.37982 4.66295,99.07329 4.66295,99.07329z" fill="#000000" stroke="#000000" stroke-width="2.5" stroke-linecap="butt"/><path d="M289.68926,171.21796c0.93867,0.76753 2.24401,0.59312 3.34219,1.0076c0.88412,0.3337 1.42105,1.38731 2.28317,1.91098c2.65621,1.6135 5.90113,2.04253 8.76899,2.63626c0.75961,0.15726 5.22058,0.24277 5.51106,1.11933c0.137,0.41345 -2.68656,5.34664 -3.04662,5.93017c-3.45656,5.60192 -7.47821,10.49996 -13.20793,11.75913c-1.00814,0.22154 -5.50861,1.64532 -6.16029,0.32289c-0.47037,-0.95449 -0.04814,-4.23256 -0.06142,-5.39953c-0.0459,-4.0352 -0.17476,-8.59319 0.77945,-12.45975c0.55327,-2.24189 1.33964,-4.42871 1.31186,-6.87083z" fill="url(#color-1)" stroke="#000000" stroke-width="2.5" stroke-linecap="round"/><path d="M309.81269,179.04157c1.43746,-0.03701 2.03678,-1.10289 3.30242,-1.40464c4.64159,-1.10669 10.80243,-3.69952 15.29101,-1.67303c0.67378,0.30421 1.8786,1.07053 2.02964,2.08004c0.4785,3.19808 -2.9571,16.1062 -4.34754,19.26727c-0.81802,1.85971 -1.06006,4.25339 -2.54603,5.58517c-2.39346,2.14508 -5.15446,-0.64191 -7.00281,-1.81412c-1.03684,-0.65755 -2.09985,-0.94587 -2.78594,-2.25214c-1.72545,-3.28519 -4.59082,-16.84393 -4.30142,-20.86445z" fill="url(#color-2)" stroke="#000000" stroke-width="2.5" stroke-linecap="round"/><path d="M320.79695,203.53548c9.34416,3.1171 5.44746,10.26112 6.86855,19.76059c0.72901,4.87308 2.81962,9.33769 2.58355,14.54462c-0.23644,5.2152 -1.11066,12.77703 -6.24113,13.68725c-1.42343,0.25254 -5.10686,0.61585 -6.183,-0.61433c-1.08272,-1.23769 -1.39801,-4.77567 -1.72774,-6.58999c-1.62897,-8.96317 -0.40492,-16.50745 0.73805,-25.60013c0.51561,-4.10178 -0.41284,-12.9194 3.20785,-15.22208z" fill="url(#color-3)" stroke="#000000" stroke-width="2.5" stroke-linecap="round"/><path d="M348.93403,169.05363c0.02778,2.44213 0.8637,4.61049 1.4678,6.83922c1.04191,3.84386 1.01675,8.40358 1.06265,12.4388c0.01327,1.16698 0.50995,4.43458 0.06142,5.39953c-0.62143,1.33691 -5.15312,0.01589 -6.16603,-0.18267c-5.75689,-1.12851 -9.88891,-5.9338 -13.47198,-11.45567c-0.37324,-0.57519 -3.30829,-5.44288 -3.18072,-5.85934c0.27047,-0.88294 4.72834,-1.06991 5.48417,-1.2444c2.85362,-0.65881 6.08793,-1.16154 8.70677,-2.83503c0.84998,-0.54316 1.36279,-1.60869 2.23911,-1.96241c1.08846,-0.43936 2.39743,-0.29468 3.3184,-1.08336z" fill="url(#color-4)" stroke="#000000" stroke-width="2.5" stroke-linecap="round"/><path d="M370.57188,125.53674c0.74686,28.79981 -22.16739,55.66887 -51.58762,56.28437c-29.42023,0.61549 -54.20559,-25.25568 -54.95246,-54.05547c-0.1873,-7.2223 4.80416,-10.75462 5.06863,-13.91688c0.75755,-9.05806 0.11906,-5.87102 19.57668,-5.83087c0.83685,0.00172 4.96665,-8.72554 5.87557,-8.74457c7.77664,-0.1627 5.56784,-1.7867 15.62534,-2.58098c5.94445,-0.46946 9.1469,2.4765 16.14287,2.94582c6.61309,0.44365 17.05612,-1.62752 21.59186,-0.72938c5.15583,1.02091 8.48159,1.39832 12.1037,4.64813c2.30769,2.07049 2.56211,6.40104 4.30273,9.45071c2.55409,4.47488 6.1355,8.00944 6.25272,12.52912z" fill="#000000" stroke="#000000" stroke-width="2.5" stroke-linecap="butt"/><path d="M400.30311,89.1813c1.05786,11.52921 -36.59153,24.40867 -84.09226,28.76706c-47.50072,4.35839 -86.86521,-1.45472 -87.92307,-12.98394c-1.05786,-11.52921 36.59153,-24.40869 84.09226,-28.76708c47.50072,-4.35839 86.86522,1.45472 87.92308,12.98396z" fill="#000000" stroke="#000000" stroke-width="2.5" stroke-linecap="butt"/><path d="M268.78753,101.24841c0,0 -16.66887,-38.29133 -5.25536,-57.27649c11.41351,-18.98515 29.11301,-18.67038 44.33778,-20.06731c14.97879,-1.37437 34.54165,-1.94266 46.28496,11.75231c11.7433,13.69497 5.25536,57.27649 5.25536,57.27649z" fill="#000000" stroke="#000000" stroke-width="2.5" stroke-linecap="butt"/><path d="M262.17088,83.6111l-0.63847,-6.9585c0,0 35.19072,-0.25456 51.87147,-1.78509c16.16359,-1.48307 46.71041,-7.2602 46.71041,-7.2602l0.63847,6.9585c0,0 -30.69684,5.7909 -47.08942,7.29499c-16.4677,1.51098 -51.49246,1.75032 -51.49246,1.75032z" fill="url(#color-5)" stroke="#000000" stroke-width="2.5" stroke-linecap="butt"/><path d="M296.39243,130.1471c0.03006,-0.13147 0.17345,-0.18541 0.17345,-0.18541l0.15691,-0.0443c0.27443,-0.22121 0.55011,-0.43346 0.8243,-0.64104c-0.33476,0.12664 -0.67005,0.23364 -1.00566,0.32261c-0.60952,0.43275 -1.26512,0.77752 -1.96297,1.02023c0.61076,-0.09082 1.21533,-0.24508 1.814,-0.47212zM278.02727,123.09365c0.51681,2.22328 1.59965,4.41022 3.16943,5.79328c1.50945,0.81446 3.03412,1.33792 4.60446,1.65895c-2.56985,-0.93857 -4.58764,-2.51361 -5.75665,-4.81803c-0.33264,-0.30597 -0.64708,-0.62845 -0.93981,-0.96942c-0.46,-0.53866 -0.81452,-1.09547 -1.07745,-1.66477zM299.49642,126.68085c0.04705,-0.11794 0.09187,-0.23843 0.13438,-0.36148c0.39096,-0.79792 0.65598,-1.64417 0.81809,-2.51599c-0.22623,0.99284 -0.62321,1.96246 -1.21157,2.88553c-0.24432,0.38314 -0.50479,0.74661 -0.78074,1.08808c0.19928,-0.09836 0.39004,-0.20884 0.57079,-0.33298c0.16179,-0.25117 0.31788,-0.5066 0.46905,-0.76317zM291.36331,109.56044c-0.03054,-0.01119 -0.06095,-0.02231 -0.09127,-0.03338c-0.39206,-0.14378 -0.79657,-0.26094 -1.20994,-0.35303c-0.56003,0.06223 -1.11729,0.16352 -1.66591,0.30272c-0.11403,0.02871 -0.22687,0.05834 -0.33855,0.08886c0.21709,0.02841 0.43239,0.06088 0.64611,0.09731c0.88203,-0.09158 1.77007,-0.12736 2.65955,-0.1025zM288.3558,108.93467c-2.51538,-0.16102 -5.16931,0.46017 -7.25043,1.5494c-3.16558,1.83016 -3.96076,4.28773 -3.73881,7.46444c0.04557,-0.2148 0.09734,-0.42704 0.15533,-0.63644c-0.00497,-0.57982 0.0434,-1.14394 0.15242,-1.67989c0.7853,-3.82034 3.65343,-6.01714 7.58794,-6.19969c0.47788,-0.01563 0.94503,-0.01205 1.40316,0.00958c0.50657,-0.18088 1.03493,-0.34196 1.58915,-0.48236c0.03372,-0.00848 0.06746,-0.01683 0.10125,-0.02505zM281.97514,126.2104c0.38891,0.30994 0.78853,0.59726 1.19275,0.8591c0.2622,0.16999 0.52701,0.3402 0.79443,0.50948c0.0921,0.04594 0.18486,0.09018 0.27829,0.13277c-0.12842,-0.14389 -0.25381,-0.29061 -0.37622,-0.44006c-0.50503,-0.43195 -0.97791,-0.8674 -1.40932,-1.27919c-0.53789,-0.59197 -0.96155,-1.23046 -1.27262,-1.89531c-0.52385,-0.76508 -0.9277,-1.63471 -1.17201,-2.64461c-0.06435,-0.56753 -0.08351,-1.1154 -0.06084,-1.64567c-0.3251,-1.27213 -0.34781,-2.57012 0.11851,-3.74015c-1.08815,2.18196 -1.14446,4.75507 -0.34753,7.17181c0.43307,0.8021 0.92935,1.53516 1.46129,2.15025c0.25541,0.29782 0.51999,0.57114 0.7933,0.82158zM282.93929,112.99134c-0.49033,0.24278 -0.92075,0.53255 -1.26639,0.8767c-0.10712,0.10501 -0.21063,0.21197 -0.31054,0.32079c0.46148,-0.45621 0.97371,-0.82983 1.52361,-1.13583c0.01771,-0.02057 0.03548,-0.0411 0.05332,-0.06165zM281.35047,126.78748c1.34026,1.76968 3.3275,2.94628 5.75909,3.61547c0.36339,0.10056 0.73426,0.18895 1.11107,0.26572c-0.64454,-0.29261 -1.24577,-0.63637 -1.80621,-1.02459c-0.36853,-0.19672 -0.73299,-0.40071 -1.09333,-0.60982c-1.38872,-0.64324 -2.75358,-1.36946 -3.97061,-2.24679zM298.02895,130.47625c0.06595,-0.01421 0.13167,-0.02866 0.19715,-0.04332c1.20019,-0.44276 1.94013,-1.40529 2.38076,-2.5847c-0.38348,0.5156 -0.81188,1.03529 -1.28877,1.57144c-0.42005,0.40696 -0.84983,0.75788 -1.28914,1.05656zM285.37901,109.96354c-0.03039,0.00084 -0.06082,0.00176 -0.09129,0.00275c-3.5299,0.16198 -6.12963,2.02747 -6.97585,5.34687c0.94301,-1.78448 2.44218,-3.24965 4.49138,-4.20537c0.38657,-0.14954 0.77672,-0.28938 1.16996,-0.41908c0.45221,-0.26135 0.91932,-0.50337 1.4058,-0.72515zM288.98204,128.65335c0.54736,0.00728 1.10631,-0.01013 1.67544,-0.04725c1.94138,-0.12437 4.59437,0.15419 6.71159,-0.42433c0.51372,-0.52296 0.9811,-1.11988 1.39933,-1.77574c1.45445,-2.27964 1.66839,-4.85742 1.00144,-7.34516c-1.77603,-2.17134 -5.01678,-4.5614 -7.28437,-5.20389c-0.99423,-0.36048 -2.33813,-0.55958 -3.74808,-0.57151c-1.55016,0.52104 -3.03356,1.19683 -4.33906,2.15654c-1.08885,2.03414 -1.20259,4.43888 -0.60677,6.8288c0.52224,2.10015 1.62579,3.98816 3.12399,5.52992c0.15287,0.11714 0.30702,0.23269 0.4624,0.34646c0.53091,0.17894 1.0659,0.3503 1.60412,0.50615zM294.04317,110.65005c-0.15013,-0.03837 -0.30052,-0.0737 -0.45101,-0.10586c-0.95793,-0.20626 -1.91382,-0.35566 -2.85012,-0.40615c0.55224,0.16298 1.09762,0.35131 1.6399,0.56235c0.9266,0.03737 1.84351,0.19166 2.70056,0.462c-0.34293,-0.18095 -0.69094,-0.35144 -1.03933,-0.51233zM284.89261,113.7496c-0.98842,0.27179 -1.86224,0.66726 -2.49414,1.19796c-0.1624,0.08502 -0.31028,0.17909 -0.4446,0.28139c-0.51842,0.84333 -0.91634,1.72788 -1.1657,2.67228c-0.00566,0.38851 0.02739,0.79151 0.08784,1.19889c0.33916,-1.02498 0.92885,-1.99869 1.76328,-2.85068c0.41776,-0.42555 0.86212,-0.81016 1.32847,-1.15932c0.25862,-0.4673 0.56602,-0.91556 0.92486,-1.34054zM302.23564,123.48958c0.28605,-0.96648 0.46954,-2.0171 0.56932,-3.21692c0.31467,-3.67555 -1.90805,-6.75822 -4.789,-8.88734c-0.059,-0.04905 -0.11848,-0.09726 -0.17842,-0.14466c-0.72727,-0.30405 -1.50395,-0.51872 -2.31098,-0.67858c2.67589,1.01258 5.09416,2.92535 6.33656,5.40967c1.19909,2.16577 1.08276,4.67546 0.36496,6.98931c0.00606,0.17632 0.00861,0.35251 0.00754,0.52853zM284.22604,111.17016c-1.69651,0.99139 -3.17313,2.26409 -4.72303,3.75263c-0.58806,1.14036 -1.08827,2.34598 -1.35067,3.5624c0.09421,0.74233 0.26692,1.49844 0.50225,2.24c-0.19616,-2.65121 0.62612,-5.27134 2.62559,-7.23388c0.63451,-0.61489 1.50307,-1.06954 2.49104,-1.39948c0.02332,-0.02381 0.04672,-0.04758 0.0702,-0.07133c0.45957,-0.46494 0.94441,-0.8519 1.4503,-1.17015c-0.35752,0.09794 -0.71286,0.20465 -1.06569,0.31979zM298.179,113.36252c-0.58126,-0.39469 -1.22723,-0.76987 -1.93408,-1.14254c-0.03754,-0.01989 -0.07531,-0.03948 -0.11331,-0.05875c-0.2747,-0.06228 -0.56019,-0.10557 -0.85618,-0.13004c0.17341,0.09053 0.3472,0.18288 0.52148,0.27699c0.54982,0.29765 1.06636,0.64615 1.54724,1.0369c0.77419,0.55349 1.49357,1.22192 2.21083,2.00585c-0.31787,-0.73879 -0.79441,-1.39812 -1.37598,-1.98844zM299.34639,117.77964c-0.12226,-0.31108 -0.25778,-0.61959 -0.4058,-0.92474c-1.62887,-2.73518 -3.71175,-4.15661 -6.63138,-4.53937c-0.68935,0.15686 -1.38193,0.32449 -2.06862,0.51353c0.89283,0.0936 1.7223,0.26871 2.41797,0.52172c2.05119,0.61 4.78646,2.47978 6.68782,4.42885zM290.46889,112.20822c-0.99495,0.00511 -2.03489,0.02553 -3.06095,0.12677c-0.29453,0.16568 -0.57438,0.34989 -0.83621,0.55271c0.68972,-0.0923 1.39493,-0.13803 2.08765,-0.13861c0.60259,-0.20019 1.2147,-0.37819 1.83054,-0.54097c-0.00701,0.00003 -0.01402,0.00005 -0.02103,0.0001zM283.2518,124.50151c0.50172,0.51982 1.03203,1.0405 1.58715,1.55016c-0.71528,-1.12143 -1.25612,-2.35133 -1.5827,-3.6581c-0.52996,-2.12572 -0.51636,-4.26447 0.1917,-6.17068c-0.13892,0.12768 -0.27513,0.25953 -0.40845,0.39575c-1.07214,1.0928 -1.7111,2.39997 -1.89994,3.75026c0.23389,0.90255 0.54557,1.77525 0.81079,2.50708c0.40834,0.61187 0.85578,1.16474 1.30145,1.62553zM300.50234,115.54125c0.06463,0.16225 0.12596,0.32948 0.18395,0.50172c0.23154,0.68772 0.41601,1.38418 0.55077,2.08452c0.21963,0.58845 0.40827,1.19444 0.56058,1.81082c-0.03138,-1.84742 -0.47844,-3.2458 -1.29529,-4.3971zM298.79792,115.64274c0.21776,0.30344 0.42772,0.62554 0.63048,0.96671c0.35053,0.72106 0.63402,1.46008 0.84199,2.20746c0.06961,0.08667 0.13702,0.1731 0.2021,0.25917c-0.02291,-0.15782 -0.04776,-0.31522 -0.07444,-0.472c-0.38604,-1.04972 -0.92566,-2.05701 -1.60014,-2.96133zM285.53814,113.06417c0.18421,-0.17581 0.37874,-0.34662 0.58383,-0.51204c0.02206,-0.01775 0.04423,-0.03543 0.06652,-0.05294c-1.04038,0.18234 -2.04076,0.47919 -2.93595,0.963c-0.16597,0.1944 -0.32594,0.39046 -0.47947,0.58848c0.78357,-0.44418 1.73922,-0.77128 2.76509,-0.98648zM281.87881,124.14037c-0.07818,-0.15943 -0.15425,-0.32024 -0.22828,-0.48231c-0.06204,-0.17385 -0.12858,-0.35801 -0.19771,-0.55078c-0.04804,-0.07301 -0.09549,-0.14678 -0.14231,-0.22123c0.09105,0.32485 0.20925,0.64599 0.35485,0.96097c0.06901,0.09966 0.14019,0.19741 0.21346,0.29336zM290.45047,111.33111c0.46676,0.01642 0.90697,0.04414 1.30857,0.07942c0.48773,0.04286 0.94899,0.10482 1.38736,0.18586c-0.29366,-0.12944 -0.5875,-0.25251 -0.8822,-0.36866c-0.60613,-0.01834 -1.21611,0.01605 -1.8137,0.10338zM302.01527,125.71862c-0.10032,0.50447 -0.23634,1.0013 -0.41102,1.48653c-1.42325,3.92441 -4.3287,5.07258 -8.35199,4.70343c-0.24871,-0.02282 -0.49606,-0.05287 -0.74204,-0.08964c-0.52578,-0.04975 -1.0609,-0.13928 -1.60514,-0.26433c-0.13651,-0.00881 -0.27277,-0.01877 -0.40871,-0.02996c-3.42485,-0.02119 -6.57211,-0.52674 -9.6198,-2.2047c-2.41514,-2.1115 -3.75284,-5.93965 -3.74691,-9.15731c-0.07894,-0.31045 -0.14063,-0.62448 -0.18351,-0.94143c-0.53607,-3.98285 0.13529,-7.03526 3.88535,-9.20213c2.66086,-1.39318 6.17273,-2.03737 9.2567,-1.38322c2.86192,-0.29523 5.78863,0.37581 8.06324,2.16539c1.55046,0.66707 2.88439,1.72215 3.84008,3.45537c1.53006,2.78553 2.21566,7.06416 0.67436,10.00022c-0.17368,0.53875 -0.39347,1.02149 -0.65062,1.4618zM300.63847,120.80561c-0.00806,-0.1826 -0.01929,-0.36523 -0.03351,-0.54764c-0.01341,-0.02388 -0.02711,-0.04787 -0.04107,-0.07192c0.03096,0.2064 0.05589,0.41297 0.07458,0.61956zM277.95558,120.27875c0.00169,0.27811 0.01971,0.55539 0.0559,0.83119c0.24689,0.62277 0.56394,1.22582 0.93536,1.80192c-0.40741,-0.83761 -0.74631,-1.72966 -0.99126,-2.63312zM300.93691,124.75048c0.08739,-0.18523 0.17192,-0.37321 0.25305,-0.56357c0.00197,-0.13519 0.00239,-0.26967 0.00145,-0.40309c-0.07206,0.32442 -0.1568,0.6468 -0.25451,0.96665zM288.26382,111.34365c0.82764,-0.31523 1.71974,-0.51584 2.62845,-0.60259c-0.71414,-0.22418 -1.43906,-0.40506 -2.184,-0.53634c-1.35389,0.17853 -2.63373,0.65253 -3.77929,1.56619c1.07312,-0.24393 2.22424,-0.3741 3.33483,-0.42724zM284.68526,127.25952c0.45989,0.37623 0.94364,0.74352 1.4438,1.08109c0.22655,0.05125 0.45603,0.09555 0.68828,0.13344c-0.73213,-0.38807 -1.45051,-0.78597 -2.13207,-1.21453zM299.39786,113.60476c0.05619,0.04623 0.11163,0.09275 0.16632,0.13967c-0.08062,-0.07999 -0.16264,-0.15883 -0.24598,-0.23647c0.02678,0.03187 0.05332,0.06416 0.07964,0.0968zM282.91575,124.93261c0.14051,0.24493 0.28692,0.48582 0.43947,0.72207c0.39824,0.32995 0.82295,0.63706 1.26628,0.92846c-0.59687,-0.54086 -1.16684,-1.09556 -1.70576,-1.65056zM290.89869,129.12706c1.78754,0.35513 3.59922,0.44223 5.40529,-0.0195c0.10386,-0.07611 0.20628,-0.15498 0.3072,-0.2365c-1.87878,0.30715 -3.98615,0.16294 -5.71249,0.256zM285.13761,114.31108c0.60491,-0.35829 1.23672,-0.67097 1.88724,-0.94775c-0.40278,0.04051 -0.80169,0.09697 -1.19022,0.17c-0.2539,0.24937 -0.48598,0.509 -0.69703,0.77774zM293.17518,109.69038c0.99519,0.10251 1.97251,0.2369 2.90549,0.45081c-1.3681,-0.66257 -2.87777,-1.00029 -4.40884,-1.03747c0.48598,0.1796 0.99133,0.37418 1.50334,0.58666zM294.19569,111.49027c0.02165,-0.00114 0.04324,-0.00223 0.06481,-0.00322c-0.04557,-0.01075 -0.09125,-0.0212 -0.13708,-0.03128c0.02409,0.01143 0.04819,0.02295 0.07228,0.03447zM291.38319,130.46857c1.31064,0.12826 2.51251,-0.08943 3.59216,-0.57971c-2.02687,0.2213 -4.05416,-0.12419 -6.03732,-0.69026c0.793,0.48774 1.61036,0.91838 2.44516,1.26997zM281.68776,114.63204c-0.12968,0.13255 -0.25477,0.27236 -0.37496,0.41983c0.07377,-0.06979 0.15202,-0.13703 0.2349,-0.20156c0.04583,-0.07305 0.09253,-0.1458 0.14006,-0.21827zM287.36199,129.08562c0.11757,0.06227 0.23565,0.1222 0.3542,0.17954c-0.06579,-0.0535 -0.13106,-0.10756 -0.19579,-0.16217c-0.05292,-0.0055 -0.10573,-0.01129 -0.15841,-0.01737z" fill="#ffffff" stroke="none" stroke-width="0.5" stroke-linecap="butt"/><path d="M345.82244,124.8746c0.02887,-0.12564 0.1671,-0.17708 0.1671,-0.17708l0.15129,-0.04221c0.26445,-0.21116 0.53016,-0.41381 0.7944,-0.61202c-0.32274,0.12077 -0.64602,0.22279 -0.9696,0.30755c-0.58746,0.41312 -1.21943,0.74213 -1.89223,0.97357c0.58891,-0.0863 1.17182,-0.23328 1.74899,-0.44979zM331.16703,123.65814c1.45631,0.77965 2.92709,1.28113 4.44173,1.58925c-2.47903,-0.89912 -4.4262,-2.40611 -5.55538,-4.60957c-0.32101,-0.2927 -0.62452,-0.60121 -0.90709,-0.92731c-0.44405,-0.51521 -0.78637,-1.04769 -1.04038,-1.59201c0.50018,2.12539 1.54617,4.21648 3.06112,5.53964zM348.813,121.56411c0.0453,-0.11268 0.08842,-0.22782 0.12931,-0.34539c0.37638,-0.76231 0.6313,-1.57095 0.78694,-2.40408c-0.21739,0.94877 -0.59947,1.87521 -1.16612,2.75698c-0.23532,0.36597 -0.48619,0.71318 -0.75205,1.03933c0.19209,-0.09384 0.37597,-0.19928 0.55018,-0.31778c0.15583,-0.23993 0.30616,-0.48395 0.45174,-0.72904zM340.95604,105.19428c-0.02945,-0.01072 -0.0588,-0.02139 -0.08803,-0.03196c-0.37822,-0.13775 -0.76841,-0.25004 -1.16712,-0.33839c-0.54002,0.05904 -1.07735,0.15543 -1.60631,0.28801c-0.10994,0.02734 -0.21873,0.05556 -0.32642,0.08464c0.20939,0.02731 0.41705,0.05852 0.62319,0.09351c0.85053,-0.08683 1.70689,-0.12032 2.56471,-0.09585zM338.05521,104.59377c-2.42588,-0.1559 -4.98477,0.4357 -6.99087,1.47512c-3.05135,1.74675 -3.81625,4.09502 -3.59968,7.13143c0.04378,-0.20528 0.09354,-0.40808 0.1493,-0.60818c-0.00527,-0.55419 0.04092,-1.09333 0.14564,-1.60548c0.75428,-3.6508 3.51849,-5.74817 7.31267,-5.91954c0.46081,-0.01454 0.91133,-0.01077 1.35316,0.01028c0.48838,-0.17247 0.99778,-0.32602 1.53215,-0.45977c0.03252,-0.00808 0.06506,-0.01602 0.09763,-0.02385zM331.91564,121.10059c0.37531,0.29654 0.76091,0.57147 1.15093,0.82206c0.25297,0.16268 0.50849,0.32554 0.76651,0.48757c0.08885,0.04398 0.17836,0.08633 0.26849,0.12711c-0.12398,-0.13762 -0.24502,-0.27797 -0.36318,-0.4209c-0.48739,-0.41326 -0.94377,-0.82983 -1.36014,-1.22375c-0.51919,-0.56621 -0.92826,-1.1768 -1.22878,-1.81251c-0.50577,-0.73167 -0.89595,-1.56317 -1.13234,-2.52862c-0.06249,-0.5425 -0.08142,-1.06613 -0.05997,-1.57297c-0.31454,-1.21613 -0.33746,-2.45676 0.11131,-3.57469c-1.04763,2.08462 -1.0999,4.54391 -0.32944,6.85443c0.41827,0.76697 0.89746,1.46801 1.41092,2.05633c0.24654,0.28485 0.50193,0.54629 0.76568,0.78589zM332.83492,108.46673c-0.47266,0.23167 -0.88751,0.50828 -1.22056,0.83694c-0.10324,0.10028 -0.20297,0.20244 -0.29923,0.30636c0.44468,-0.43566 0.93836,-0.79238 1.46843,-1.0844c0.01706,-0.01964 0.03418,-0.03925 0.05136,-0.05888zM331.31372,121.65163c1.2939,1.6925 3.21128,2.81868 5.55677,3.4602c0.35052,0.09641 0.70825,0.18117 1.07169,0.25483c-0.62184,-0.28018 -1.20189,-0.60922 -1.74268,-0.98073c-0.35556,-0.18831 -0.7072,-0.38358 -1.05487,-0.58372c-1.33975,-0.6159 -2.65656,-1.31109 -3.83094,-2.15059zM347.40082,125.19052c0.06358,-0.01353 0.12694,-0.02728 0.19007,-0.04125c1.15708,-0.42223 1.8699,-1.34161 2.29389,-2.46851c-0.36939,0.49251 -0.78213,0.98887 -1.2416,1.50094c-0.40475,0.38863 -0.81893,0.72371 -1.24236,1.00883zM335.18531,105.57476c-0.02931,0.00078 -0.05864,0.00163 -0.08803,0.00256c-3.40401,0.15202 -5.90965,1.93295 -6.72307,5.10491c0.90798,-1.70485 2.35259,-3.10405 4.32801,-4.01586c0.37269,-0.14263 0.74882,-0.27598 1.12794,-0.39962c0.4359,-0.2494 0.88616,-0.48036 1.35514,-0.69196zM338.67486,123.44104c0.52785,0.00741 1.06688,-0.00879 1.6157,-0.04381c1.87209,-0.11733 4.43079,0.15102 6.47212,-0.40024c0.495,-0.49942 0.94524,-1.06959 1.34805,-1.69611c1.4008,-2.17768 1.60507,-4.64133 0.95992,-7.01959c-1.71449,-2.07675 -4.84167,-4.3637 -7.02898,-4.97958c-0.95909,-0.34536 -2.25526,-0.5367 -3.61499,-0.54923c-1.49451,0.49677 -2.92454,1.1415 -4.18275,2.05775c-1.04844,1.94334 -1.15622,4.24166 -0.57974,6.52638c0.50529,2.0077 1.57102,3.8131 3.01707,5.28788c0.14753,0.1121 0.29628,0.22268 0.44621,0.33153c0.51213,0.17143 1.0282,0.33564 1.54736,0.48504zM343.5413,106.23785c-0.14479,-0.0368 -0.28986,-0.07067 -0.43501,-0.10154c-0.92396,-0.19791 -1.84592,-0.34147 -2.74889,-0.39048c0.53269,0.15622 1.0588,0.33667 1.58192,0.53881c0.89363,0.03646 1.77797,0.18464 2.60471,0.44371c-0.33087,-0.17324 -0.6666,-0.33647 -1.00272,-0.49051zM334.71925,109.19302c-0.95297,0.25898 -1.79539,0.63628 -2.40433,1.14301c-0.15653,0.08112 -0.29907,0.17093 -0.42853,0.26859c-0.49928,0.80563 -0.88232,1.65074 -1.12204,2.55319c-0.00515,0.37135 0.02705,0.75654 0.08567,1.14595c0.32625,-0.97938 0.89414,-1.90959 1.69818,-2.72324c0.40252,-0.4064 0.83075,-0.77364 1.28021,-1.10699c0.24903,-0.44643 0.54513,-0.87463 0.89084,-1.28052zM351.45209,118.51615c0.27509,-0.92352 0.4512,-1.92755 0.54648,-3.07424c0.30055,-3.51278 -1.84543,-6.4609 -4.62543,-8.49817c-0.05692,-0.04692 -0.11432,-0.09307 -0.17217,-0.13841c-0.7016,-0.29119 -1.45079,-0.49701 -2.22919,-0.65043c2.58135,0.96994 4.91499,2.80007 6.1151,5.17552c1.15811,2.07095 1.04791,4.4696 0.35752,6.68057c0.00596,0.1685 0.00857,0.33693 0.00768,0.50514zM334.07435,106.72708c-1.63527,0.94622 -3.05828,2.16144 -4.55177,3.58296c-0.56622,1.08948 -1.04764,2.24138 -1.29973,3.40381c0.09144,0.7096 0.25861,1.43241 0.48614,2.14136c-0.19128,-2.53412 0.59964,-5.03775 2.52631,-6.91192c0.6114,-0.5872 1.44868,-1.02105 2.40118,-1.33562c0.02247,-0.02272 0.04502,-0.04544 0.06765,-0.06812c0.44281,-0.444 0.91005,-0.81347 1.39769,-1.11724c-0.34468,0.09332 -0.68728,0.19503 -1.02745,0.3048zM347.53194,108.83361c-0.56085,-0.37771 -1.18411,-0.7368 -1.86606,-1.09356c-0.03623,-0.01902 -0.07267,-0.03778 -0.10934,-0.05623c-0.26497,-0.05976 -0.54033,-0.10131 -0.82577,-0.12495c0.16731,0.08665 0.33496,0.17506 0.50312,0.26514c0.53046,0.28492 1.02888,0.61844 1.49293,0.99229c0.74704,0.52965 1.44131,1.16912 2.13365,1.91893c-0.30714,-0.70639 -0.7672,-1.33692 -1.32854,-1.90161zM348.66126,113.0564c-0.11816,-0.2974 -0.24908,-0.59238 -0.39208,-0.88417c-1.57299,-2.61555 -3.58281,-3.97579 -6.39871,-4.34395c-0.66467,0.14934 -1.33242,0.30905 -1.99451,0.48917c0.86109,0.09016 1.66115,0.25819 2.33224,0.50056c1.97861,0.58467 4.61789,2.37394 6.45306,4.23835zM340.11587,107.72415c-0.00675,0.00002 -0.01352,0.00005 -0.02028,0.00009c-0.95949,0.00408 -1.96236,0.0228 -2.95179,0.11872c-0.28388,0.1581 -0.55362,0.33396 -0.80597,0.52759c0.66509,-0.08764 1.34513,-0.1308 2.01317,-0.13081c0.58096,-0.19085 1.17113,-0.36049 1.76489,-0.51558zM331.88903,117.91354c0.39428,0.58513 0.82622,1.11393 1.25637,1.5547c0.48425,0.49722 0.99609,0.99533 1.53183,1.48289c-0.69069,-1.07243 -1.21324,-2.24837 -1.52922,-3.49761c-0.51275,-2.03215 -0.50133,-4.07631 0.17998,-5.89767c-0.13386,0.12191 -0.26511,0.24781 -0.39357,0.37791c-1.03308,1.04362 -1.64823,2.2925 -1.82927,3.58293c0.22627,0.86284 0.52754,1.69716 0.78389,2.39686zM349.77424,110.91786c0.06246,0.15514 0.12174,0.31503 0.1778,0.47969c0.22385,0.65749 0.4023,1.32329 0.53281,1.9928c0.21229,0.5626 0.39468,1.14193 0.54205,1.73119c-0.03174,-1.76576 -0.46398,-3.10263 -1.25265,-4.2037zM348.13061,111.01356c0.21022,0.29022 0.41297,0.59823 0.60878,0.92447c0.33861,0.68945 0.61258,1.396 0.81374,2.11051c0.06721,0.0829 0.13229,0.16555 0.19511,0.24786c-0.02221,-0.15085 -0.04629,-0.30129 -0.07215,-0.45117c-0.37313,-1.00362 -0.89431,-1.96682 -1.54548,-2.83168zM335.34121,108.53845c0.17749,-0.16792 0.36495,-0.33103 0.56261,-0.48897c0.02125,-0.01698 0.04262,-0.03381 0.0641,-0.05053c-1.00316,0.17347 -1.96765,0.45636 -2.83057,0.91808c-0.15991,0.18568 -0.31401,0.37295 -0.46192,0.56209c0.75529,-0.42393 1.67665,-0.7358 2.66579,-0.94067zM331.82108,119.12203c-0.07553,-0.15246 -0.14902,-0.30621 -0.22054,-0.46117c-0.05996,-0.16624 -0.12426,-0.3423 -0.1911,-0.5266c-0.04638,-0.06985 -0.09221,-0.14037 -0.13741,-0.21157c0.08807,0.31055 0.20232,0.61758 0.34298,0.91875c0.06662,0.09531 0.13535,0.1888 0.20608,0.28056zM340.07717,106.88591c0.45015,0.01605 0.87471,0.04292 1.26203,0.07695c0.47039,0.04137 0.91524,0.10094 1.33806,0.17876c-0.2833,-0.12397 -0.56679,-0.24181 -0.85107,-0.35307c-0.58454,-0.01802 -1.17278,0.01438 -1.749,0.09737zM351.24137,120.64645c-0.09635,0.48208 -0.22714,0.95683 -0.3952,1.42048c-1.36941,3.74977 -4.17044,4.84486 -8.05067,4.48883c-0.23986,-0.02201 -0.47843,-0.05091 -0.71567,-0.08625c-0.50709,-0.048 -1.02321,-0.13397 -1.54816,-0.25393c-0.13166,-0.00851 -0.26307,-0.01814 -0.39418,-0.02895c-3.30286,-0.02299 -6.33836,-0.50871 -9.27881,-2.11489c-2.33075,-2.02007 -3.62383,-5.68001 -3.62069,-8.75538c-0.07637,-0.29679 -0.13612,-0.59697 -0.17773,-0.89994c-0.52012,-3.80719 0.1249,-6.72408 3.73962,-8.79216c2.56494,-1.32947 5.95117,-1.9424 8.92578,-1.31472c2.75973,-0.27992 5.58268,0.36381 7.77768,2.07605c1.49574,0.63879 2.78299,1.64828 3.706,3.30562c1.47774,2.6636 2.14234,6.75359 0.65828,9.5586c-0.16705,0.51483 -0.37863,0.97603 -0.62628,1.39667zM349.83726,115.35737c0.03003,0.19728 0.05422,0.39476 0.07242,0.59222c-0.00793,-0.17454 -0.01891,-0.34909 -0.03276,-0.52346c-0.01295,-0.02284 -0.02617,-0.04579 -0.03966,-0.06878zM328.03452,115.42799c0.00185,0.26582 0.01947,0.53087 0.05458,0.79449c0.23859,0.59545 0.54481,1.17208 0.90347,1.72299c-0.39357,-0.80091 -0.72109,-1.65379 -0.95804,-2.51748zM350.2006,119.72024c0.08413,-0.17696 0.16549,-0.35657 0.24359,-0.53843c0.00179,-0.12921 0.0021,-0.25774 0.00108,-0.38526c-0.06922,0.31003 -0.15069,0.6181 -0.24466,0.92372zM337.96838,106.89621c0.79789,-0.30064 1.65806,-0.49167 2.53433,-0.57388c-0.68887,-0.21484 -1.38812,-0.38829 -2.10661,-0.51436c-1.30553,0.16954 -2.53939,0.62158 -3.6434,1.49393c1.03471,-0.23232 2.1447,-0.3558 3.21568,-0.4057zM334.53002,122.10548c0.44382,0.35994 0.91061,0.71139 1.39322,1.03443c0.21854,0.04914 0.43987,0.0917 0.66387,0.12808c-0.70637,-0.37151 -1.39945,-0.75237 -2.05708,-1.16254zM348.70755,109.06614c0.05424,0.04421 0.10774,0.08875 0.16051,0.13362c-0.0778,-0.07654 -0.15695,-0.15193 -0.23739,-0.22621c0.02586,0.0305 0.05149,0.06135 0.07689,0.09257zM332.82169,119.88002c0.13568,0.2342 0.27708,0.46455 0.42438,0.69047c0.3843,0.31566 0.79413,0.60955 1.2219,0.88841c-0.57602,-0.51742 -1.12611,-1.04803 -1.64629,-1.57892zM340.52355,123.89534c1.72413,0.34086 3.47132,0.42554 5.2127,-0.01434c0.1001,-0.07267 0.1988,-0.14797 0.29606,-0.2258c-1.81161,0.29206 -3.844,0.15257 -5.50876,0.24014zM336.77517,108.82556c-0.38838,0.03842 -0.77304,0.09206 -1.14766,0.16154c-0.24465,0.23815 -0.46828,0.48612 -0.67159,0.7428c0.58307,-0.34197 1.19215,-0.64032 1.81925,-0.90434zM342.70347,105.31989c0.9598,0.09878 1.90243,0.228 2.80233,0.43319c-1.31988,-0.63435 -2.77604,-0.95834 -4.25259,-0.9951c0.46883,0.17202 0.95632,0.3584 1.45025,0.5619zM343.68907,107.04098c0.02089,-0.00109 0.04171,-0.00211 0.06251,-0.00304c-0.04396,-0.01031 -0.08803,-0.0203 -0.13224,-0.02999c0.02323,0.01098 0.04646,0.02197 0.06972,0.03303zM338.63278,123.96218c0.76513,0.46682 1.55371,0.87907 2.35904,1.21578c1.26403,0.12363 2.42293,-0.08349 3.46371,-0.55123c-1.95447,0.2099 -3.90982,-0.12196 -5.82276,-0.66455zM331.49435,110.24246c0.04416,-0.06979 0.08911,-0.13931 0.1349,-0.20853c-0.12494,0.12659 -0.24548,0.26013 -0.36126,0.40098c0.07108,-0.06665 0.14647,-0.13087 0.22637,-0.19248zM337.26559,123.86965c-0.05103,-0.0053 -0.10197,-0.01087 -0.15278,-0.01673c0.11343,0.05962 0.22739,0.11701 0.34174,0.1719c-0.06349,-0.0512 -0.12648,-0.10292 -0.18896,-0.15516z" fill="#ffffff" stroke="none" stroke-width="0.5" stroke-linecap="butt"/><path d="M287.89977,148.61275c-0.43963,-0.23818 -0.20145,-0.67781 -0.20145,-0.67781l0.13395,-0.07096c-0.12612,-1.37459 -0.25225,-2.74919 -0.37838,-4.12378c0,0 -0.04569,-0.49791 0.45223,-0.5436c0.49791,-0.04569 0.5436,0.45223 0.5436,0.45223c0.12612,1.37459 0.25225,2.74919 0.37838,4.12378l-0.25051,0.63868c0,0 -0.23818,0.43963 -0.67781,0.20145z" fill="#ffffff" stroke="none" stroke-width="0.5" stroke-linecap="butt"/><path d="M290.30579,148.17989c0.08201,0.06685 0.14903,0.17302 0.16446,0.34119c0.04569,0.49791 -0.45223,0.5436 -0.45223,0.5436l-0.65151,-0.41284c-0.1246,-0.82298 -0.26359,-1.64188 -0.33998,-2.47091c0,0 -0.04569,-0.49791 0.45223,-0.5436c0.49791,-0.04569 0.5436,0.45223 0.5436,0.45223c0.06406,0.7012 0.17565,1.39499 0.28342,2.09034z" fill="#ffffff" stroke="none" stroke-width="0.5" stroke-linecap="butt"/><path d="M291.82023,150.98501c0.07151,0.06745 0.12789,0.16893 0.14187,0.32139c0.04569,0.49791 -0.45223,0.5436 -0.45223,0.5436l-0.65505,-0.442c-0.14317,-1.56035 -0.28634,-3.12071 -0.42951,-4.68106c0,0 -0.04569,-0.49791 0.45223,-0.5436c0.49791,-0.04569 0.5436,0.45223 0.5436,0.45223c0.13303,1.44981 0.26606,2.89962 0.39907,4.34944z" fill="#ffffff" stroke="none" stroke-width="0.5" stroke-linecap="butt"/><path d="M293.76435,151.075c-0.47251,0.16349 -0.63602,-0.30902 -0.63602,-0.30902l-0.14319,-0.49228c-0.01209,-1.39661 -0.36681,-2.72748 -0.38285,-4.13702c0,0 -0.00569,-0.49997 0.49428,-0.50565c0.49997,-0.00569 0.50565,0.49428 0.50565,0.49428c0.01604,1.40992 0.36348,2.73567 0.38285,4.13702l0.08827,0.17666c0,0 0.16349,0.47251 -0.30902,0.63602z" fill="#ffffff" stroke="none" stroke-width="0.5" stroke-linecap="butt"/><path d="M296.52821,152.13573c-0.44464,0.22868 -0.67332,-0.21597 -0.67332,-0.21597l-0.16978,-0.44462c-0.01862,-1.51554 -0.36012,-2.98976 -0.38668,-4.4737c0,0 -0.00569,-0.49997 0.49428,-0.50565c0.49997,-0.00569 0.50565,0.49428 0.50565,0.49428c0.00492,1.4699 0.36537,2.96737 0.38665,4.47183l0.05915,0.0005c0,0 0.22868,0.44464 -0.21597,0.67332z" fill="#ffffff" stroke="none" stroke-width="0.5" stroke-linecap="butt"/><path d="M299.94157,152.28956c-0.41285,0.28206 -0.69491,-0.13078 -0.69491,-0.13078l-0.30395,-0.51164c-0.3058,-1.47188 -0.26972,-3.17876 -0.28684,-4.68389c0,0 -0.00569,-0.49997 0.49428,-0.50565c0.49997,-0.00569 0.50565,0.49428 0.50565,0.49428c0.01632,1.43478 -0.0383,3.0877 0.26519,4.48801l0.15135,0.15476c0,0 0.28206,0.41285 -0.13078,0.69491z" fill="#ffffff" stroke="none" stroke-width="0.5" stroke-linecap="butt"/><path d="M303.29621,152.39413c0.06757,0.07307 0.11722,0.17969 0.11899,0.33531c0.00569,0.49997 -0.49428,0.50565 -0.49428,0.50565l-0.61757,-0.49301c-0.02211,-1.94344 -0.37691,-3.84154 -0.40194,-5.81573c0,0 -0.00569,-0.49997 0.49428,-0.50565c0.49997,-0.00569 0.50565,0.49428 0.50565,0.49428c0.01852,1.8637 0.33937,3.64805 0.39486,5.47915z" fill="#ffffff" stroke="none" stroke-width="0.5" stroke-linecap="butt"/><path d="M306.4275,152.15396c0.07907,0.09792 0.2591,0.38193 -0.02366,0.6712c-0.34951,0.35755 -0.70706,0.00804 -0.70706,0.00804l-0.26365,-0.46251c0.00309,-1.48034 -0.25858,-3.05294 -0.27602,-4.58595c0,0 -0.00569,-0.49997 0.49428,-0.50565c0.49997,-0.00569 0.50565,0.49428 0.50565,0.49428c0.01684,1.48078 0.22359,2.94144 0.27045,4.38059z" fill="#ffffff" stroke="none" stroke-width="0.5" stroke-linecap="butt"/><path d="M309.57671,153.13178c0.11613,0.06534 0.22516,0.18846 0.2278,0.42042c0.00569,0.49997 -0.49428,0.50565 -0.49428,0.50565l-0.72948,-0.49174c-0.02376,-2.08911 0.03741,-4.11921 -0.39621,-6.16545c0,0 -0.10363,-0.48914 0.38551,-0.59277c0.48914,-0.10363 0.59277,0.38551 0.59277,0.38551c0.41847,1.97571 0.3983,3.93077 0.41389,5.93838z" fill="#ffffff" stroke="none" stroke-width="0.5" stroke-linecap="butt"/><path d="M313.02207,154.09303c-0.34951,0.35755 -0.70706,0.00804 -0.70706,0.00804l-0.37683,-0.57315c-0.01319,-1.52066 0.25869,-4.5276 -0.46107,-5.8153c0,0 -0.22868,-0.44464 0.21597,-0.67332c0.44464,-0.22868 0.67332,0.21597 0.67332,0.21597c0.77355,1.588 0.54701,4.46601 0.57172,6.26128l0.07592,-0.13058c0,0 0.35755,0.34951 0.00804,0.70706z" fill="#ffffff" stroke="none" stroke-width="0.5" stroke-linecap="butt"/><path d="M316.39297,153.10851c0.03975,0.0146 0.08117,0.03528 0.12414,0.06322c0.41916,0.2726 0.14656,0.69176 0.14656,0.69176l-1.1314,0.15349c-0.31691,-1.77656 -0.49332,-3.41095 -0.51395,-5.22509c0,0 -0.00569,-0.49997 0.49428,-0.50565c0.49997,-0.00569 0.50565,0.49428 0.50565,0.49428c0.01717,1.50974 0.14465,2.87968 0.37472,4.32801z" fill="#ffffff" stroke="none" stroke-width="0.5" stroke-linecap="butt"/><path d="M319.56116,154.91939c0.29284,0.3361 -0.03023,0.66661 -0.03023,0.66661l-0.96817,-0.23063c-0.0262,-2.3036 0.30385,-4.92509 -0.18383,-7.17523c0,0 -0.10363,-0.48914 0.38551,-0.59277c0.48914,-0.10363 0.59277,0.38551 0.59277,0.38551c0.45609,2.19527 0.21178,4.67616 0.20394,6.94651z" fill="#ffffff" stroke="none" stroke-width="0.5" stroke-linecap="butt"/><path d="M322.51106,153.45998c-0.49997,0.00569 -0.50565,-0.49428 -0.50565,-0.49428l-0.00255,-0.22383c-0.00484,-1.40052 -0.24028,-2.98699 -0.49083,-4.38937c0,0 -0.0878,-0.49223 0.40443,-0.58004c0.49223,-0.0878 0.58004,0.40443 0.58004,0.40443c0.26074,1.46394 0.47994,3.08758 0.50631,4.55361l0.00255,0.22383c0,0 0.00569,0.49997 -0.49428,0.50565z" fill="#ffffff" stroke="none" stroke-width="0.5" stroke-linecap="butt"/><path d="M327.24785,152.54363c0.47611,0.1527 0.3234,0.62882 0.3234,0.62882l-0.16505,0.45691c-2.2721,2.26345 -1.63838,-4.45931 -1.65681,-6.07883c0,0 -0.00569,-0.49997 0.49428,-0.50565c0.49997,-0.00569 0.50565,0.49428 0.50565,0.49428c0.01362,1.19748 -0.11403,4.81808 -0.16445,5.47288l0.03415,-0.145c0,0 0.1527,-0.47611 0.62882,-0.3234z" fill="#ffffff" stroke="none" stroke-width="0.5" stroke-linecap="butt"/><path d="M330.40907,154.29353c-0.41285,0.28206 -0.69491,-0.13078 -0.69491,-0.13078l-0.30704,-0.52746c-0.3329,-1.89205 -0.4963,-3.98032 -0.52159,-5.89658c0,0 -0.00569,-0.49997 0.49428,-0.50565c0.49997,-0.00569 0.50565,0.49428 0.50565,0.49428c0.01739,1.85396 0.17466,3.90239 0.50611,5.73234l0.14826,0.13893c0,0 0.28206,0.41285 -0.13078,0.69491z" fill="#ffffff" stroke="none" stroke-width="0.5" stroke-linecap="butt"/><path d="M333.46341,151.99226c-0.49997,0.00569 -0.50565,-0.49428 -0.50565,-0.49428c-0.0174,-1.5295 -0.04243,-3.73049 -0.05983,-5.25998c0,0 -0.00569,-0.49997 0.49428,-0.50565c0.49997,-0.00569 0.50565,0.49428 0.50565,0.49428c0.0174,1.5295 0.03479,3.059 0.05219,4.58849l0.00764,0.67149c0,0 0.00569,0.49997 -0.49428,0.50565z" fill="#ffffff" stroke="none" stroke-width="0.5" stroke-linecap="butt"/><path d="M337.19965,150.98672l-0.77636,0.13605c-0.01554,-1.36661 0.32194,-3.64245 -0.43076,-4.77464c0,0 -0.26211,-0.4258 0.16369,-0.6879c0.4258,-0.26211 0.6879,0.16369 0.6879,0.16369c0.72802,1.24619 0.61227,3.09011 0.58333,4.63298c0.16878,0.19917 0.08002,0.47589 0.08002,0.47589l-0.08519,0.01493c0.00004,0.05514 0.00033,0.10972 0.00094,0.16369z" fill="#ffffff" stroke="none" stroke-width="0.5" stroke-linecap="butt"/><path d="M340.81893,146.03961c0.07151,0.06745 0.12789,0.16893 0.14187,0.32139c0.04569,0.49791 -0.45223,0.5436 -0.45223,0.5436l-0.65505,-0.442c-0.10568,-1.15169 -0.21134,-2.30338 -0.31702,-3.45507c0,0 -0.04569,-0.49791 0.45223,-0.5436c0.49791,-0.04569 0.5436,0.45223 0.5436,0.45223c0.09553,1.04115 0.19106,2.08229 0.28659,3.12345z" fill="#ffffff" stroke="none" stroke-width="0.5" stroke-linecap="butt"/><path d="M343.3634,143.72046c-0.49791,0.04569 -0.5436,-0.45223 -0.5436,-0.45223c-0.08181,-0.89163 -0.17385,-1.89472 -0.25566,-2.78634c0,0 -0.04569,-0.49791 0.45223,-0.5436c0.49791,-0.04569 0.5436,0.45223 0.5436,0.45223c0.08181,0.89163 0.16362,1.78325 0.24543,2.67488l0.01023,0.11145c0,0 0.04569,0.49791 -0.45223,0.5436z" fill="#ffffff" stroke="none" stroke-width="0.5" stroke-linecap="butt"/><path d="M345.75299,141.59054c-0.49791,0.04569 -0.5436,-0.45223 -0.5436,-0.45223l-0.0409,-0.44581c-0.05547,-0.70601 -0.32273,-1.17387 -0.39675,-1.87426c0,0 -0.04569,-0.49791 0.45223,-0.5436c0.49791,-0.04569 0.5436,0.45223 0.5436,0.45223c0.04896,0.67805 0.32404,1.16223 0.39675,1.87426l0.0409,0.44581c0,0 0.04569,0.49791 -0.45223,0.5436z" fill="#ffffff" stroke="none" stroke-width="0.5" stroke-linecap="butt"/><path d="M311.90024,174.29243c-0.48366,0.12678 -0.61044,-0.35688 -0.61044,-0.35688l-0.12249,-0.46954c-0.21988,-1.05835 -0.14611,-2.15164 -0.15838,-3.23028c0,0 -0.00569,-0.49997 0.49428,-0.50565c0.49997,-0.00569 0.50565,0.49428 0.50565,0.49428c0.01144,1.00607 -0.07699,2.04832 0.13673,3.03439l0.11152,0.42324c0,0 0.12678,0.48366 -0.35688,0.61044z" fill="#ffffff" stroke="none" stroke-width="0.5" stroke-linecap="butt"/><path d="M316.3959,175.92024c-0.48366,0.12678 -0.61044,-0.35688 -0.61044,-0.35688l-0.13331,-0.56748c-0.01755,-1.54327 -0.25257,-2.7108 -0.4902,-4.17701c0,0 -0.07633,-0.49413 0.4178,-0.57048c0.49413,-0.07633 0.57048,0.4178 0.57048,0.4178c0.21597,1.48741 0.48407,2.7543 0.50186,4.31831l0.1007,0.3253c0,0 0.12678,0.48366 -0.35688,0.61044z" fill="#ffffff" stroke="none" stroke-width="0.5" stroke-linecap="butt"/><path d="M320.98542,176.77839c-0.49997,0.00569 -0.50565,-0.49428 -0.50565,-0.49428l0.00246,-0.57705c-0.4603,-1.11384 -0.37449,-2.68812 -0.38912,-3.89573c0,0 -0.00569,-0.49997 0.49428,-0.50565c0.49997,-0.00569 0.50565,0.49428 0.50565,0.49428c0.01223,1.15596 -0.07193,2.64005 0.36892,3.70683l0.01773,0.76593c0,0 0.00569,0.49997 -0.49428,0.50565z" fill="#ffffff" stroke="none" stroke-width="0.5" stroke-linecap="butt"/><path d="M325.7234,173.60473c-0.39891,0.30145 -0.70035,-0.09746 -0.70035,-0.09746l-0.41515,-0.59092c-0.03791,-1.14731 -0.05112,-2.04893 -0.37733,-3.14134c0,0 -0.14282,-0.47917 0.33635,-0.62199c0.47917,-0.14282 0.62199,0.33635 0.62199,0.33635c0.32241,1.08363 0.38598,1.97285 0.36527,3.10365l0.26669,0.31136c0,0 0.30145,0.39891 -0.09746,0.70035z" fill="#ffffff" stroke="none" stroke-width="0.5" stroke-linecap="butt"/><path d="M329.0839,170.41825c-0.49997,0.00569 -0.50565,-0.49428 -0.50565,-0.49428c-0.01146,-1.00723 -0.028,-2.46212 -0.03946,-3.46936c0,0 -0.00569,-0.49997 0.49428,-0.50565c0.49997,-0.00569 0.50565,0.49428 0.50565,0.49428c0.01146,1.00723 0.02291,2.01446 0.03437,3.02169l0.00509,0.44766c0,0 0.00569,0.49997 -0.49428,0.50565z" fill="#ffffff" stroke="none" stroke-width="0.5" stroke-linecap="butt"/></g></g></svg>