<svg version="1.1" xmlns="http://www.w3.org/2000/svg" xmlns:xlink="http://www.w3.org/1999/xlink" width="219.27975" height="343.80292" viewBox="0,0,219.27975,343.80292"><defs><linearGradient x1="433.26849" y1="349.3806" x2="433.0216" y2="30.61037" gradientUnits="userSpaceOnUse" id="color-1"><stop offset="0" stop-color="#ff0000"/><stop offset="0.333" stop-color="#ffff00"/><stop offset="0.5" stop-color="#00ff00"/><stop offset="0.666" stop-color="#00ffff"/><stop offset="0.833" stop-color="#0000ff"/><stop offset="1" stop-color="#ff00ff"/></linearGradient><linearGradient x1="334.32668" y1="171.23101" x2="333.15474" y2="349.57564" gradientUnits="userSpaceOnUse" id="color-2"><stop offset="0" stop-color="#ffffff"/><stop offset="1" stop-color="#5f5f5f"/></linearGradient><linearGradient x1="251.67288" y1="98.3869" x2="250.23565" y2="141.50376" gradientUnits="userSpaceOnUse" id="color-3"><stop offset="0" stop-color="#4800ff"/><stop offset="1" stop-color="#0038ff"/></linearGradient><linearGradient x1="394.29856" y1="85.83599" x2="395.73579" y2="128.95285" gradientUnits="userSpaceOnUse" id="color-4"><stop offset="0" stop-color="#4800ff"/><stop offset="1" stop-color="#0038ff"/></linearGradient><linearGradient x1="375.43625" y1="77.14813" x2="375.43625" y2="121.34716" gradientUnits="userSpaceOnUse" id="color-5"><stop offset="0" stop-color="#ffffff"/><stop offset="1" stop-color="#ffffff" stop-opacity="0"/></linearGradient><linearGradient x1="268.84611" y1="90.07162" x2="268.84611" y2="134.27064" gradientUnits="userSpaceOnUse" id="color-6"><stop offset="0" stop-color="#ffffff"/><stop offset="1" stop-color="#ffffff" stop-opacity="0"/></linearGradient><linearGradient x1="420.17373" y1="332.52465" x2="418.19224" y2="68.92348" gradientUnits="userSpaceOnUse" id="color-7"><stop offset="0" stop-color="#ff0000"/><stop offset="0.333" stop-color="#ffff00"/><stop offset="0.5" stop-color="#00ff00"/><stop offset="0.666" stop-color="#00ffff"/><stop offset="0.833" stop-color="#0000ff"/><stop offset="1" stop-color="#ff00ff"/></linearGradient></defs><g transform="translate(-214.17383,-16.62456)"><g stroke-miterlimit="10"><path d="M280.30297,356.7934l1.26281,-152.98014c0,0 7.57694,-27.74672 31.32395,-29.56459c21.89436,-1.67604 46.96282,-3.9924 57.53784,-4.80194c10.64869,-0.81518 17.67394,24.0779 17.67394,24.0779l-3.28077,147.65179z" fill="url(#color-1)" stroke="#000000" stroke-width="2.5" stroke-linecap="butt"/><path d="M386.04954,339.88764c0,0 -31.03593,16.23579 -45.68903,18.40636c-19.81703,2.9355 -62.46954,-2.38478 -62.46954,-2.38478c0,0 -0.5434,-7.61851 0.12863,-21.38316c0.55526,-11.37301 2.33738,-28.02807 2.4239,-38.42711c0.22577,-27.13838 -1.28424,-92.63887 -1.28424,-92.63887c0,0 7.83417,-27.68269 32.40883,-29.59856c1.06254,-0.08285 2.1323,-0.16711 3.20741,-0.25259c1.72691,1.25334 -4.16388,4.84213 -4.70533,7.12417c-0.56608,2.38584 4.18744,3.4926 4.78345,6.03222c1.08686,4.6311 7.89388,8.68873 12.59131,9.28305c2.60361,0.3294 16.04895,-1.69208 18.57205,-2.43379c2.62533,-0.77177 6.48774,-5.1158 8.77372,-6.54788c1.1182,-0.7005 3.88351,-3.49938 4.13977,-5.68031c0.2718,-2.31322 2.64465,-5.89743 2.23093,-8.05159c-0.35623,-1.8548 -3.56076,-2.36228 -2.82082,-3.43589c5.2118,-0.45319 9.61482,-0.82938 12.7706,-1.07541c11.01983,-0.85912 18.29633,23.91577 18.29633,23.91577c0,0 0.44435,42.16688 -0.0038,61.80509c-0.18516,8.11394 -1.4678,32.27389 -1.90397,43.60762c-1.01617,26.40451 -1.4502,41.73564 -1.4502,41.73564z" fill="url(#color-2)" stroke="#000000" stroke-width="2.5" stroke-linecap="butt"/><g fill-opacity="0.46667" fill="#000000" stroke="none" stroke-width="0.5" stroke-linecap="butt"><path d="M315.96571,212.49015c0.91632,-0.57921 1.28285,0.25203 1.28285,0.25203l0.17186,0.62153c2.51589,0.0075 4.27158,-3.31817 2.72833,-5.06862c-0.77269,-0.87642 -2.32278,-0.69657 -3.05863,-1.53153c-2.23843,-2.53991 2.53573,-4.60985 4.5597,-4.89274c0,0 0.98201,-0.12973 0.88381,0.87508c-0.0982,1.00481 -1.08022,1.13454 -1.08022,1.13454c-0.29107,0.03556 -0.58056,0.02872 -0.87322,0.10667c-0.32052,0.08538 -0.642,0.21464 -0.949,0.37867c-2.29807,1.22771 -0.14963,0.8681 1.03238,1.55956c0.88202,0.51596 1.51891,1.13533 1.83916,2.18733c1.23919,4.07068 -2.77371,7.64379 -6.45569,6.98749l-0.63112,-1.19955c0,0 -0.36653,-0.83126 0.5498,-1.41048z"/><path d="M332.99411,215.25879c-0.60112,0.13953 -0.8361,-0.17206 -0.92796,-0.43699c-1.9683,-1.85441 -3.94704,-4.58237 -4.23817,-7.58043c-0.16147,0.22152 -0.315,0.45005 -0.45958,0.68621c0,0 -0.03274,0.05263 -0.09337,0.12758c0.14018,1.98664 0.22318,3.99263 0.37867,5.96412l0.09931,0.96943c0,0 0.0982,0.95922 -0.88381,1.28536c-0.98201,0.32614 -1.08022,-0.63308 -1.08022,-0.63308l-0.10144,-0.99143c-0.31595,-4.06036 -0.31355,-8.28431 -1.1864,-12.15138c0,0 -0.20679,-0.91701 0.75822,-1.34778c0.96501,-0.43077 1.1718,0.48624 1.1718,0.48624c0.27802,1.23404 0.46977,2.50202 0.612,3.78868c1.41375,-1.63933 3.13903,-2.94396 4.94789,-4.1683l0.56295,-0.28663c0,0 0.95745,-0.46159 1.19681,0.44029c0.23936,0.90189 -0.71808,1.36348 -0.71808,1.36348l-0.24003,0.10049c-1.14876,0.77685 -2.30214,1.59574 -3.32604,2.54556c0.29872,0.22304 0.29872,0.66795 0.29872,0.66795c-0.02557,2.84513 2.14029,5.60223 3.97146,7.26109l0.24419,0.69359c0,0 0,0.98691 -0.98691,1.21598z"/><path d="M337.20977,214.07954c-0.98692,0.22907 -0.98692,-0.75785 -0.98692,-0.75785l0.0049,-0.20405c-0.33378,-3.26028 -0.83264,-6.56697 -1.49133,-9.69615c0,0 -0.19355,-0.92282 0.7742,-1.341c0.96775,-0.41818 1.1613,0.50465 1.1613,0.50465c0.66699,3.19095 1.17974,6.55801 1.51986,9.88022l0.0049,0.39818c0,0 0,0.98692 -0.98692,1.21599z"/><path d="M343.99047,211.09845c2.62104,-3.75677 -2.39749,-4.92018 -1.71078,-7.37064c0.37377,-1.33377 3.26702,-1.72197 3.17748,-3.39701c-0.1221,-2.28393 -1.99782,-1.25845 -3.55246,-0.0118c0,0 -0.05574,0.04391 -0.14675,0.09704c0.43746,3.62416 0.63682,7.41025 0.65328,11.14303c0.51081,0.16786 0.76655,-0.02392 1.57923,-0.46063zM343.48129,197.31227c7.0928,-2.70831 2.5009,5.84382 1.03015,6.53082c0.54399,0.40818 1.46023,1.28123 1.66285,1.8334c0.82907,2.25933 0.63407,4.47923 -1.09082,6.81185c-1.83468,1.0638 -2.543,1.42458 -4.2055,0.77478l-0.53603,-0.65687c0,0 -0.30204,-0.53398 0.09333,-1.08432c-0.03037,-3.90648 -0.2745,-7.86733 -0.79109,-11.61124c0,0 -0.13044,-0.94797 0.84782,-1.30547c0.33278,-0.12161 0.56744,-0.09215 0.73224,-0.00034c0.71084,-0.5272 1.47188,-0.99277 2.25705,-1.29258z"/><path d="M349.81823,211.34028c-0.97348,0.3882 -1.13574,-0.54761 -1.13574,-0.54761l-0.11381,-0.73807c0.00166,-4.04686 -0.30111,-8.02087 -0.30111,-12.07521c0,0 0,-0.98691 0.98692,-1.21598c0.98692,-0.22907 0.98691,0.75784 0.98691,0.75784c0,4.0548 0.29954,8.02831 0.30112,12.07521l0.08695,0.4198c0,0 0.16224,0.93582 -0.81124,1.32403z"/><path d="M361.80108,210.5798c-0.98692,0.22907 -0.98692,-0.75785 -0.98692,-0.75785l0.00085,-1.14531c0.07722,-0.9518 0.15254,-1.91031 0.21506,-2.86948c-0.38034,2.27429 -1.63095,4.33686 -4.36641,5.25906l-1.0943,0.151c0,0 -0.97755,0.11828 -0.87243,-0.88239c-0.14565,0.19577 -0.3723,0.37435 -0.72492,0.4562c-0.98692,0.22907 -0.98692,-0.75784 -0.98692,-0.75784l0.0049,-0.10368c-0.40154,-3.93654 -0.40639,-7.89616 -0.40639,-11.94823c0,0 0,-0.98691 0.98692,-1.21598c0.32684,-0.07586 0.54545,-0.01836 0.69166,0.0925c0.82831,-0.90436 1.87078,-1.77718 2.95243,-1.5835c1.71855,0.30773 2.42786,2.70251 3.00213,4.10417c0.48515,1.18412 0.85409,2.67232 0.93064,4.1984c0.09235,-2.44586 0.04581,-4.86542 -0.32173,-7.15783c0,0 -0.15006,-0.94061 0.82538,-1.31709c0.97544,-0.37648 1.1255,0.56413 1.1255,0.56413c0.63672,4.00942 0.3614,8.37833 0.01062,12.63484l0.00086,1.06289c0,0 0,0.98692 -0.98692,1.21599zM355.78733,209.2049l0.71241,-0.06761c4.65535,-1.31653 2.22378,-7.96916 1.18572,-10.13679c-0.13275,-0.27721 -0.62924,-1.53564 -1.13443,-1.7132c-0.43529,-0.15299 -1.54811,1.39808 -1.68042,1.56364c0,0 -0.12085,0.1489 -0.31225,0.28415c0.00607,3.42746 0.05176,6.79447 0.39567,10.14218l0.0049,0.29781c0,0 0,0.03943 -0.00788,0.10435c0.32533,-0.41272 0.83629,-0.47454 0.83629,-0.47454z"/><path d="M324.24487,219.21349c0,0.98692 -0.98692,1.21598 -0.98692,1.21598l-0.82766,0.1892c-1.26241,0.38944 -2.52952,0.7082 -3.79741,1.00364c0.09886,3.96809 0.98953,7.65053 0.99484,11.61093l0.07091,0.14567c0,0 0.23936,0.90189 -0.71809,1.36348c-0.95745,0.46159 -1.1968,-0.4403 -1.1968,-0.4403l-0.12985,-0.61071c0.00583,-3.95764 -0.89623,-7.65212 -0.99498,-11.62134c-0.54417,0.12191 -1.08811,0.24407 -1.63152,0.3702c0,0 -0.98692,0.22907 -0.98692,-0.75784c0,-0.98692 0.98692,-1.21599 0.98692,-1.21599c2.41494,-0.56053 4.8434,-1.03505 7.25151,-1.78062l0.97905,-0.23015c0,0 0.98692,-0.22907 0.98692,0.75785z"/><path d="M327.79055,219.73407c-7.20485,5.21612 1.92416,17.39147 2.81515,5.34492c0.14596,-1.5185 -0.00851,-4.55579 -1.62583,-4.75786l-0.36366,0.05567c0,0 -0.76484,0.05005 -0.82565,-0.64273zM328.46268,218.49756c0.25223,-0.12827 0.47803,-0.14304 0.47803,-0.14304l0.84081,-0.02316c2.48062,0.64506 3.00934,3.83541 2.79057,6.46252c-1.50984,17.14796 -16.72691,1.77357 -5.53984,-6.70861c0,0 0.88273,-0.64625 1.32409,0.13402c0.05376,0.09506 0.08789,0.18812 0.10634,0.27827z"/><path d="M336.01626,231.97153c-0.93627,0.52941 -1.24836,-0.33442 -1.24836,-0.33442l-0.12156,-0.34563c-1.1825,-4.45996 -0.53133,-9.43514 -0.53133,-14.26858c0,0 0,-0.98692 0.98692,-1.21599c0.98692,-0.22907 0.98691,0.75785 0.98691,0.75785c0,4.65906 -0.66866,9.50863 0.4724,13.80354l0.0792,0.21002c0,0 0.31209,0.86383 -0.62418,1.39324z"/><path d="M347.55192,226.36296c0.38876,0.81688 -0.51835,1.41619 -0.51835,1.41619l-0.8317,0.53919c-8.14958,4.05439 -6.97579,-6.55486 -6.04856,-11.86984c0,0 0.17654,-1.01197 1.14754,-1.06081c0.971,-0.04883 0.79445,0.96314 0.79445,0.96314c-0.63957,3.66611 -2.46407,13.29486 3.58722,10.18378l0.57352,-0.38922c0,0 0.90712,-0.59931 1.29588,0.21758z"/><path d="M356.56489,217.13175c0,0.98692 -0.98692,1.21599 -0.98692,1.21599l-0.59504,0.11894c-1.72786,0.04616 -3.57094,0.62299 -5.34365,1.05626c0.00844,1.55914 0.37903,2.77891 0.7708,4.20801c0.12256,0.44706 0.25218,1.67927 0.90494,1.728c0.79315,0.05921 1.69263,-0.60724 2.39083,-1.05197l0.1202,-0.13348c0,0 0.82117,-0.73804 1.36861,-0.04394c0.54744,0.6941 -0.27372,1.43213 -0.27372,1.43213l-0.48203,0.40781c-1.1832,0.74309 -2.53747,1.60436 -3.83228,1.39622c-2.5204,-0.40513 -2.93589,-5.35319 -2.94129,-7.56566c-0.00433,-1.77374 -0.34639,-4.25362 1.28068,-5.8913c1.47112,-1.48071 3.76296,-1.45125 5.36572,-1.42675c0,0 0.95745,0.01713 0.71809,1.03014c-0.23936,1.01301 -1.19682,0.99589 -1.19682,0.99589c-0.89905,-0.01874 -2.78339,-0.18991 -3.66781,0.67003c-0.49804,0.48425 -0.60885,1.40521 -0.60692,2.29116c1.93587,-0.46376 3.91352,-1.05848 5.81175,-1.12789l0.20794,-0.06743c0,0 0.98692,-0.22907 0.98692,0.75784z"/><path d="M361.71168,225.70619c-0.93627,0.52941 -1.24836,-0.33442 -1.24836,-0.33442l-0.10737,-0.29805c-1.20523,-3.64359 -2.04652,-7.43115 -0.1402,-11.74006c0,0 0.44136,-0.98518 1.32408,-0.7487c0.88272,0.23647 0.44137,1.22164 0.44137,1.22164c-1.70358,3.74482 -0.78247,7.10451 0.2613,10.24875l0.09336,0.2576c0,0 0.31209,0.86383 -0.62417,1.39324z"/><path d="M367.39522,211.64592c-0.13957,1.00938 -1.11656,1.09659 -1.11656,1.09659l-0.82272,0.06573c-2.2185,-0.09946 -4.88147,0.2445 -7.17892,0.99442c0,0 -0.98286,0.31748 -1.07221,-0.64464c-0.08935,-0.96212 0.89351,-1.27961 0.89351,-1.27961c2.54424,-0.8144 5.41481,-1.18616 7.87698,-1.095l0.5825,-0.05969c0,0 0.97699,-0.0872 0.83742,0.92219z"/></g><path d="M285.67416,142.68504c0,0 -18.98428,-11.22581 -30.35341,-15.25219c-7.38957,-2.61702 -20.57736,-5.7105 -30.11235,-7.7999c-6.57655,-1.44112 -9.78457,2.48779 -9.78457,2.48779c0,0 3.97491,-6.94568 9.42494,-8.94198c15.46659,-5.66526 89.03857,-32.61399 89.03857,-32.61399z" fill="url(#color-3)" stroke="#000000" stroke-width="2.5" stroke-linecap="butt"/><path d="M338.27321,69.00412c0,0 65.20861,24.77189 80.70278,30.65792c6.26686,2.3807 9.94082,8.277 9.94082,8.277c0,0 -3.02159,-2.23889 -11.0601,-0.70606c-9.68178,1.84618 -21.90993,4.43239 -28.77349,6.86312c-11.25405,3.98562 -28.78594,16.03803 -28.78594,16.03803z" fill="url(#color-4)" stroke="#000000" stroke-width="2.5" stroke-linecap="butt"/><path d="M401.47096,109.03882c5.81806,-0.01082 5.33299,1.90082 1.64138,3.86767c-1.59004,0.84716 -4.83864,0.07185 -7.17004,0.69451c-2.32359,0.62058 -1.84654,1.99372 -4.20585,2.58426c-2.48098,0.621 -4.93576,0.01688 -7.53088,0.63079c-2.58949,0.61256 -2.09638,2.11624 -3.92527,2.53979c-0.76258,0.1766 -2.3088,-0.33327 -2.62268,-0.42726c-1.9157,-0.57365 -4.32116,-1.03445 -5.01149,-1.97611" fill="#211fff" stroke-opacity="0.4902" stroke="#000000" stroke-width="2.5" stroke-linecap="round"/><path d="M270.20277,129.91537c-0.78914,0.68619 -3.23067,0.74742 -5.19769,0.96691c-0.32229,0.03596 -1.91504,0.25182 -2.6538,0.00467c-1.77175,-0.59273 -1.11724,-1.76935 -3.62442,-2.61921c-2.51263,-0.85171 -5.01886,-0.67864 -7.41725,-1.52105c-2.28077,-0.8011 -1.6565,-1.87204 -3.89848,-2.6932c-2.24952,-0.82393 -5.56356,-0.61484 -7.05159,-1.52577c-3.45477,-2.1149 -3.72805,-3.75842 2.0543,-2.97692" fill="#211fff" stroke-opacity="0.4902" stroke="#000000" stroke-width="2.5" stroke-linecap="round"/><path d="M341.48796,77.14814l67.89656,25.79301c0,0 -22.07636,3.59329 -31.15924,6.80999c-8.13705,2.88173 -20.81319,11.59602 -20.81319,11.59602z" fill="url(#color-5)" stroke-opacity="0.50196" stroke="#000000" stroke-width="2.5" stroke-linecap="butt"/><path d="M287.33888,134.27064c0,0 -13.0057,-8.71428 -21.35431,-11.59602c-9.31902,-3.2167 -31.96934,-6.80999 -31.96934,-6.80999l69.66178,-25.79301z" fill="url(#color-6)" stroke-opacity="0.50196" stroke="#000000" stroke-width="2.5" stroke-linecap="butt"/><path d="M281.64581,130.85074c-1.94104,-28.48815 20.95333,-53.24948 51.13599,-55.30597c30.18266,-2.05651 56.22408,19.3706 58.16512,47.85875c1.94104,28.48815 -21.00729,56.26283 -51.18995,58.31932c-30.18266,2.0565 -56.1701,-22.38394 -58.11114,-50.8721z" fill="url(#color-7)" stroke="#000000" stroke-width="2.5" stroke-linecap="butt"/><path d="M355.68317,117.02963c-1.13659,-6.4788 3.12201,-12.63965 9.51187,-13.76064c6.38987,-1.12099 12.49126,3.22236 13.62786,9.70116c1.1366,6.47881 -3.122,12.63967 -9.51186,13.76066c-6.38986,1.12099 -12.49125,-3.22238 -13.62785,-9.70118z" fill="#ffffff" stroke="#000000" stroke-width="2.5" stroke-linecap="butt"/><path d="M303.98822,127.03887c-1.13659,-6.4788 3.12201,-12.63965 9.51187,-13.76064c6.38988,-1.12099 12.49126,3.22236 13.62786,9.70116c1.1366,6.47881 -3.122,12.63967 -9.51186,13.76066c-6.38986,1.12099 -12.49125,-3.22238 -13.62785,-9.70118z" fill="#ffffff" stroke="#000000" stroke-width="2.5" stroke-linecap="butt"/><path d="M362.214,160.15845l-12.68735,16.15948l-19.05147,-6.51996z" fill="#00eaff" stroke="#000000" stroke-width="2.5" stroke-linecap="butt"/><g stroke="#000000" stroke-width="2.5"><g stroke-linecap="butt"><path d="M356.90997,78.53281c0,0 -1.16929,2.02326 -7.06819,4.7533c-5.04255,2.33371 -14.53554,5.36065 -18.70378,6.12542c-4.86707,0.893 -16.52085,2.59335 -23.26321,2.42984c-7.95957,-0.19303 -10.69201,-2.35001 -10.69201,-2.35001l20.16287,-58.36688l39.56433,47.40831z" fill="#ffffff"/><path d="M320.63701,56.47005c-0.76404,-3.4829 1.33145,-6.90188 4.68038,-7.63652c3.34894,-0.73464 6.68316,1.49326 7.44718,4.97615c0.76403,3.48288 -1.33147,6.90186 -4.68039,7.6365c-3.34893,0.73464 -6.68315,-1.49325 -7.44717,-4.97614z" fill="#1dff00"/><path d="M307.55769,78.93554c-0.76403,-3.48288 1.33146,-6.90186 4.68039,-7.6365c3.34894,-0.73464 6.68316,1.49325 7.44718,4.97614c0.76404,3.4829 -1.33147,6.90189 -4.68039,7.63653c-3.34894,0.73464 -6.68316,-1.49327 -7.44718,-4.97616z" fill="#fa00ff"/><path d="M339.84468,71.5987c3.34894,-0.73464 6.68316,1.49326 7.44718,4.97615c0.76403,3.48288 -1.33147,6.90187 -4.68039,7.63651c-3.34894,0.73464 -6.68316,-1.49326 -7.44718,-4.97615c-0.76403,-3.48289 1.33146,-6.90187 4.68039,-7.63651z" fill="#0007ff"/></g><path d="M333.74269,28.04373l-29.65848,7.44009" fill="none" stroke-linecap="round"/><path d="M315.16611,17.87456l2.33443,14.89969l-10.36904,10.21401" fill="none" stroke-linecap="round"/><path d="M330.23131,36.5199l-11.8396,-3.94113" fill="none" stroke-linecap="round"/></g><path d="M381.32974,122.06732l-15.81944,7.23309" fill="none" stroke="#000000" stroke-width="2.5" stroke-linecap="round"/><path d="M300.88591,137.85153l22.06624,-1.27075" fill="none" stroke="#000000" stroke-width="2.5" stroke-linecap="round"/></g></g></svg>