<svg version="1.1" xmlns="http://www.w3.org/2000/svg" xmlns:xlink="http://www.w3.org/1999/xlink" width="173.95178" height="322.28276" viewBox="0,0,173.95178,322.28276"><g transform="translate(-217.93563,-33.0112)"><g data-paper-data="{&quot;isPaintingLayer&quot;:true}" fill-rule="nonzero" stroke-width="2" stroke-linejoin="miter" stroke-miterlimit="10" stroke-dasharray="" stroke-dashoffset="0" style="mix-blend-mode: normal"><path d="M301.74186,247.55204c-7.80132,3.50419 -19.75216,0.83702 -27.72753,-1.60656c-24.12381,-7.39131 -52.9233,-26.79579 -55.0787,-54.82581c-1.4578,-18.958 13.06962,-32.05379 27.68546,-41.06963c5.545,-3.42046 17.31723,-9.24802 21.18826,-1.01776c1.03014,2.19021 1.21835,4.58272 0.16302,6.8341c-2.27988,4.86378 -9.75716,6.19844 -13.80096,9.385c-12.2189,9.6286 -17.64975,24.16169 -9.68816,38.26623c8.42976,14.93393 27.19106,20.01945 43.1638,17.84551c8.25682,-1.12379 16.4112,-5.08956 24.97398,-2.872c25.38691,6.57461 5.60576,26.52213 -9.65565,29.3556z" fill="#feed00" stroke="#000000" stroke-linecap="round"/><path d="M294.40552,242.91034c5.74024,-0.10878 13.50453,-1.26747 19.27334,-2.13815c6.29,-0.94934 14.81099,0 21.25647,0c3.78619,0 12.3807,-0.86996 15.37523,0.67047c1.93838,0.99714 1.81761,3.59477 2.28765,4.93105c1.74664,4.9656 0.79104,10.40087 2.54062,15.46406c2.06674,5.98106 0.11161,12.10391 0.97852,18.23749c1.62058,11.46598 2.55738,23.1131 -1.97899,34.71708c-1.98372,5.07436 6.25871,11.18912 -2.60103,14.29115c-3.13733,1.09845 -10.92132,8.08861 -14.40729,8.08861c-5.0571,0 -11.20387,-4.95317 -17.39761,-6.04579c-7.88639,-1.39122 -18.29099,2.96883 -24.17727,1.43133c-2.9464,-0.76961 -6.81769,-4.01691 -8.35035,-5.94553c-1.92124,-2.4176 1.50326,-13.40825 1.70117,-16.66032c0.97329,-15.9925 0.14008,-24.80926 1.11159,-40.8158c0.31924,-5.25966 -0.21176,-22.54434 2.96845,-26.2248z" fill="#3c2c1f" stroke="#000000" stroke-linecap="round"/><g><path d="M288.90126,222.52323c3.41281,-0.38678 9.49849,7.15133 6.54515,13.51152c-3.21112,6.91531 -7.32129,2.55209 -8.68011,3.63722c-0.26167,0.20895 -1.84047,10.84152 -4.6666,13.21095c-5.22303,4.37902 -6.66322,-4.12246 -8.16067,-4.59711c-0.99717,-0.31607 -2.72635,6.2959 -5.00726,5.22072c-2.32578,-1.09632 -3.57955,-4.90293 -3.93453,-8.5022c-0.06656,-0.67491 0.41084,-5.07297 0.28165,-5.2439c-0.39339,-0.52046 -1.92256,1.84384 -2.36396,2.02653c-2.02091,0.83641 -2.85765,-3.95899 -3.09089,-6.15002c-1.42396,-13.37597 11.53462,-25.18745 18.68446,-23.47254c3.77136,0.90458 7.32267,7.26049 10.1952,10.64963z" fill="#feed00" stroke="#000000" stroke-linecap="round"/><path d="M272.66062,218.5664c2.96175,-2.39893 6.16848,-1.02686 7.16242,3.0646c0.44898,1.84818 0.41117,3.90144 -0.03823,5.81852c-0.54548,2.32693 -2.1264,1.68457 -3.75028,2.99987c-1.556,1.26031 -2.80676,4.29395 -4.19492,3.6683c-1.25413,-0.56524 -2.27025,-1.85745 -2.742,-3.79942c-0.99394,-4.09147 0.60127,-9.35294 3.56302,-11.75188z" fill="#ffa600" stroke="none" stroke-linecap="butt"/><path d="M291.11216,228.50256c1.70641,-1.0372 3.36508,0.01464 3.70475,2.34934c0.33966,2.3347 -0.76831,5.06815 -2.47472,6.10535c-1.70641,1.0372 -3.3651,-0.01462 -3.70476,-2.34932c-0.33966,-2.3347 0.76831,-5.06815 2.47473,-6.10535z" fill="#ffa600" stroke="none" stroke-linecap="butt"/><path d="M279.32876,243.14929c1.68509,-1.02422 3.32281,0.01288 3.65794,2.31644c0.33513,2.30356 -0.75922,5.00128 -2.44431,6.0255c-1.68509,1.02422 -3.32281,-0.01288 -3.65794,-2.31644c-0.33513,-2.30356 0.75922,-5.00128 2.44431,-6.0255z" fill="#ffa600" stroke="none" stroke-linecap="butt"/><path d="M268.99826,242.06653c1.38646,-0.84272 2.77842,0.3163 3.10904,2.58873c0.33061,2.27244 -0.52535,4.79777 -1.91181,5.64049c-1.38646,0.84272 -2.77842,-0.3163 -3.10904,-2.58873c-0.33061,-2.27244 0.52535,-4.79777 1.91181,-5.64049z" fill="#ffa600" stroke="none" stroke-linecap="butt"/><path d="M261.9168,230.66552c0.93853,-0.57047 1.95269,0.70832 2.26517,2.85625c0.3125,2.14792 -0.19501,4.3516 -1.13354,4.92205c-0.93853,0.57047 -1.95269,-0.70832 -2.26517,-2.85625c-0.3125,-2.14792 0.19501,-4.35158 1.13354,-4.92205z" fill="#ffa600" stroke="none" stroke-linecap="butt"/></g><path d="M290.54347,203.54026c-1.6585,6.34848 -2.0119,17.91666 -6.02526,23.09681c-3.20078,4.13132 -22.18126,-2.13097 -24.7408,-5.96923c-0.89028,-1.33505 3.79411,-18.24275 4.48852,-20.6809c5.32742,-18.70511 11.90614,-36.47877 18.56282,-54.81093c1.82749,-5.03284 6.16748,-8.46731 8.05925,-13.19672l1.17537,0.04468c13.03699,2.61698 24.77257,8.48072 38.62356,6.92079c5.54337,-0.6243 9.61542,-2.56628 13.6488,-6.4152c0.92218,-0.88 3.59077,-2.99461 5.0403,-2.03558c3.26246,2.15849 5.21828,10.43674 6.94582,13.89184c7.12453,14.24906 11.95791,29.87177 15.25307,45.46983c0.96469,4.56647 -3.8886,15.51307 -5.01683,20.09221c-1.32132,5.36284 -4.50106,-3.28502 -8.62515,0.14238c-1.14771,0.95382 -4.31891,4.31556 -5.75137,2.39858c-1.99564,-2.67066 0.32487,-11.11209 0.32487,-11.11209c0,0 0.73929,16.01903 1.6396,23.95717c0.44157,3.89333 2.37114,10.30426 0.50712,14.06617c-1.4198,2.8654 -10.39363,3.73648 -13.2809,4.05374c-11.67921,1.28331 -23.72778,-0.97135 -35.39777,0.34975c-3.79313,0.42939 -13.39024,3.25658 -16.76646,1.43524c-1.79942,-0.97073 -0.8608,-6.46409 -0.8608,-8.21119c0,-7.69158 -1.19011,-16.52431 0.31759,-24.06277" fill="#fffe8a" stroke="#000000" stroke-linecap="round"/><path d="M298.08721,123.68272c14.05762,-2.47101 27.7167,-5.01784 42.09183,-3.88856c3.06564,0.24084 13.76899,1.38095 12.95565,6.10412c-1.10542,6.41925 -7.39565,9.75282 -13.22261,11.15215c-10.50462,2.52266 -35.30595,3.34527 -44.75893,-2.16065c-6.72767,-3.91854 -4.97002,-11.42507 3.07825,-11.42507z" fill="#fffe8a" stroke="#000000" stroke-linecap="round"/><g stroke-linecap="round"><path d="M302.98257,52.25753c-12.4143,5.06182 -13.67319,18.10732 -17.15339,29.33969c-0.38246,1.23441 -3.47617,12.11267 -4.76697,11.94042c-0.53592,-0.07151 -0.3809,-1.0133 -0.52988,-1.53303c-1.18588,-4.13695 -2.7565,-8.17549 -3.97229,-12.31931c-3.03422,-10.34141 -5.0554,-21.00793 -6.97308,-31.62441c-0.5507,-3.04864 -2.39104,-10.00781 -1.14932,-12.89179c0.7957,-1.84807 1.37613,-1.05006 2.63302,-0.50806c6.45844,2.78504 12.77227,5.85464 19.09354,8.93085c4.64211,2.25905 10.32068,4.3515 13.82907,8.26161z" fill="#feed00" stroke="#000000"/><path d="M296.65707,55.0243c-7.90468,4.06989 -7.97324,12.76126 -9.61523,20.38481c-0.18045,0.83782 -1.58783,8.20481 -2.45059,8.16655c-0.35821,-0.01589 -0.31088,-0.64709 -0.4397,-0.98171c-1.02536,-2.66345 -2.2991,-5.23941 -3.34463,-7.90566c-2.60925,-6.65394 -4.56831,-13.58193 -6.45608,-20.48287c-0.5421,-1.98168 -2.16487,-6.4712 -1.51329,-8.44895c0.41753,-1.26737 0.84764,-0.77415 1.70963,-0.48962c4.42928,1.46201 8.77966,3.12045 13.13535,4.78282c3.19866,1.22079 7.07225,2.27087 9.61856,4.64865z" fill="#ffa700" stroke="none"/></g><g stroke-linecap="round"><path d="M337.80228,53.03727c3.28176,-4.1022 8.83295,-6.5123 13.33993,-9.03016c6.13727,-3.42863 12.26747,-6.85024 18.55814,-9.99591c1.22423,-0.61219 1.75863,-1.44174 2.65754,0.35841c1.40277,2.80917 -0.04125,9.86126 -0.41872,12.93615c-1.31449,10.7079 -2.72946,21.47161 -5.17423,31.96801c-0.97963,4.20592 -2.31942,8.32681 -3.26954,12.52417c-0.11936,0.52733 0.08864,1.45883 -0.44238,1.56052c-1.279,0.24493 -4.98269,-10.44105 -5.43433,-11.65186c-4.10958,-11.01768 -6.10394,-23.97117 -18.78451,-28.32311z" fill="#feed00" stroke="#000000"/><path d="M344.64455,55.4992c2.40783,-2.51791 6.21586,-3.78529 9.3404,-5.18495c4.25475,-1.90594 8.50444,-3.80766 12.84398,-5.5177c0.84453,-0.33281 1.24607,-0.84952 1.73458,0.39221c0.76234,1.93775 -0.60405,6.51182 -1.03326,8.52098c-1.49466,6.99664 -3.05896,14.02428 -5.28789,20.81507c-0.89314,2.7211 -2.01922,5.36492 -2.89238,8.08208c-0.1097,0.34136 -0.02678,0.96888 -0.38351,1.00501c-0.85923,0.087 -2.68079,-7.1887 -2.90832,-8.01496c-2.07031,-7.51854 -2.63008,-16.19211 -10.75219,-19.80866z" fill="#ffa700" stroke="none"/></g><path d="M319.12923,49.98276c10.4384,0 22.93788,-1.00401 30.46115,7.22954c6.50784,7.12225 6.15774,13.52154 8.16107,21.99931c0.61528,2.60376 2.51166,4.52906 2.82748,7.4226c1.9148,17.54377 -6.78199,39.13199 -28.05647,41.40643c-17.81833,1.90495 -38.886,-1.74901 -48.98419,-17.20369c-6.30555,-9.65027 -1.87733,-22.7428 1.26049,-32.18949c1.21581,-3.66032 0.08928,-7.93869 1.51078,-11.78787c5.56487,-15.06875 18.71497,-16.60294 33.17322,-16.60294z" fill="#feed00" stroke="#000000" stroke-linecap="round"/><path d="M357.05887,91.11677c4.28815,0.38983 15.50661,4.81013 11.10932,10.8314c-1.14412,1.56666 -7.21246,2.37498 -7.58096,3.57673c-0.27636,0.90123 1.07093,1.57549 1.39131,2.46201c0.85729,2.37219 1.41279,5.89568 1.05565,8.40485c-0.98253,6.90322 -11.05537,3.34472 -14.03897,0.40968" fill="#feed00" stroke="#000000" stroke-linecap="round"/><path d="M290.60085,119.61382c-2.98359,2.93504 -13.05643,6.49352 -14.03897,-0.40968c-0.35714,-2.50917 0.19838,-6.03266 1.05567,-8.40483c0.32039,-0.88654 1.66767,-1.56079 1.39131,-2.46202c-0.3685,-1.20176 -6.43684,-2.01007 -7.58096,-3.57674c-4.39728,-6.02128 6.82117,-10.44157 11.10932,-10.83139" fill="#feed00" stroke="#000000" stroke-linecap="round"/><path d="M245.24041,73.01689c14.31817,0.2148 24.9894,10.76955 36.58705,17.39677" fill="none" stroke="#000000" stroke-linecap="round"/><path d="M250.05396,87.24468c10.76949,-1.30353 21.74569,2.09288 32.12505,4.39941" fill="none" stroke="#000000" stroke-linecap="round"/><path d="M254.59735,95.15679c8.68923,-1.62582 17.85136,-3.16115 26.70278,-3.16115" fill="none" stroke="#000000" stroke-linecap="round"/><path d="M360.04703,89.00748c8.38099,-8.38099 17.77976,-18.61531 30.42027,-18.63187" fill="none" stroke="#000000" stroke-linecap="round"/><path d="M357.41042,89.88635c10.96231,-7.83022 21.24207,-7.44546 33.47699,-3.72045" fill="none" stroke="#000000" stroke-linecap="round"/><path d="M360.9259,91.29253c8.60157,-3.44063 19.43513,0.01389 27.1401,4.33553" fill="none" stroke="#000000" stroke-linecap="round"/><path d="M315.74751,99.92355c3.72001,0.00001 7.63678,-0.2412 11.32989,0.21932c0.46873,0.05846 1.27302,-0.14262 1.38113,0.31722c0.1416,0.60235 -6.52459,4.37679 -7.29189,4.31972c-1.72544,-0.12832 -4.32589,-3.50584 -5.00109,-4.85625z" fill="#000000" stroke="#000000" stroke-linecap="round"/><path d="M301.39814,56.03917c0.60076,-3.6966 4.3157,-4.85887 7.94503,-6.12614c0.40196,-0.14035 3.80547,-1.27856 3.72123,-1.775c-0.15326,-0.90312 -5.43128,-0.25087 -4.74106,-2.22394c0.92704,-2.65004 11.48935,-2.02972 13.75934,-2.02994c0.32694,-0.00003 4.19692,0.14133 4.25129,-0.00453c0.23299,-0.62501 -6.26038,-2.69234 -5.81658,-3.5216c0.24256,-0.45326 4.98018,1.11234 5.4532,1.29224c6.19701,2.35687 7.62948,6.16045 11.25572,10.62113" fill="#feed00" stroke="#000000" stroke-linecap="round"/><path d="M287.84233,72.80071c-2.37139,-1.16229 -2.3854,-3.23006 -4.19318,-4.91846c-0.92298,-0.86203 -5.83202,-1.4663 -5.74031,-3.08069c0.12064,-2.12341 6.07279,-2.94391 7.38787,-3.45758c0.92582,-0.36163 -0.45502,-8.61831 7.82677,-3.19238" fill="#feed00" stroke="#000000" stroke-linecap="round"/><path d="M305.65419,174.5168c1.24009,0.514 4.67766,0.25795 5.15896,1.79582c1.61426,5.15781 -2.39005,9.7835 -7.23771,8.75243c-3.22802,-0.68657 2.4654,-11.25543 2.4654,-11.25543c0,0 0.32225,-23.74679 2.83495,-35.24916" fill="#ffaf36" stroke="#000000" stroke-linecap="round"/><path d="M332.39245,175.1213c9.58905,-10.70276 8.34496,17.97546 -1.39542,9.91342c-5.27371,-4.365 1.26669,-8.39398 1.77154,-10.91218c2.38298,-11.88642 -2.6115,-24.61965 0.98392,-36.67103" fill="#ffaf36" stroke="#000000" stroke-linecap="round"/><path d="M293.64573,206.15531c3.54168,-2.83333 7.9537,-2.30895 12.16106,-2.97361c13.57016,-2.14377 28.72447,-1.24629 42.25549,0.9479" fill="none" stroke="#000000" stroke-linecap="round"/><path d="M350.20686,234.98783c-0.10525,-8.89871 -1.73341,-17.91736 -0.24792,-26.83026" fill="none" stroke="#000000" stroke-linecap="round"/><path d="M294.14629,210.41008c0,8.51571 0.45343,16.96772 0.25178,25.46532" fill="none" stroke="#000000" stroke-linecap="round"/><path d="M301.70104,133.50242c-2.62115,-0.91811 -4.40023,-3.49198 -6.8039,-4.93418" fill="none" stroke="#fcec41" stroke-linecap="round"/><path d="M344.52065,131.16992c1.62952,-1.08462 3.15311,-1.94261 4.97349,-2.67078" fill="none" stroke="#fcec41" stroke-linecap="round"/><path d="M316.28629,143.61024v9.58441" fill="none" stroke="#fcec41" stroke-linecap="round"/><path d="M319.79278,151.79208v-4.9091" fill="none" stroke="#fcec41" stroke-linecap="round"/><path d="M323.29928,146.64921l0.70129,3.74026" fill="none" stroke="#fcec41" stroke-linecap="round"/><path d="M276.16587,225.02552l13.01461,-37.29185l-7.25815,36.79129z" fill="#fce541" stroke="#fcec41" stroke-linecap="round"/><path d="M276.16587,225.02552l13.01461,-37.29185l-7.25815,36.79129z" fill="#fce541" stroke="#fcec41" stroke-linecap="round"/><path d="M351.56834,209.05767l-7.25815,-30.02168l13.01461,25.15323z" fill="#fce541" stroke="#fcec41" stroke-linecap="round"/><path d="M320.71272,330.22231l0.69772,-76.75018" fill="none" stroke="#000000" stroke-linecap="round"/><path d="M323.1245,338.59505c0,8.67026 -8.82485,15.69891 -19.71084,15.69891c-10.886,0 -19.71084,-7.02863 -19.71084,-15.69891c0,-8.67026 8.82485,-15.69891 19.71084,-15.69891c10.886,0 19.71084,7.02863 19.71084,15.69891z" fill="#000000" stroke="#000000" stroke-linecap="butt"/><path d="M361.43449,333.32723c0,8.67027 -8.82485,15.69891 -19.71085,15.69891c-10.88599,0 -19.71084,-7.02863 -19.71084,-15.69891c0,-8.67027 8.82485,-15.69891 19.71084,-15.69891c10.886,0 19.71085,7.02863 19.71085,15.69891z" fill="#000000" stroke="#000000" stroke-linecap="butt"/><path d="M308.91178,121.42311v-2.16245h26.71808v2.16245z" fill="none" stroke="#000000" stroke-linecap="butt"/><path d="M361.80202,192.31552c1.9656,3.98423 6.38258,9.77214 5.71113,13.59188c-1.27294,7.2416 -17.26667,14.42746 -28.97036,7.79664c-1.91711,-1.08615 -5.98311,-3.76262 -4.41138,-5.28357c0.34329,-0.33218 3.12091,-0.79383 2.80007,-1.3619c-0.10537,-0.18656 -4.33,-1.49933 -4.92264,-1.82904c-3.16051,-1.7584 -6.15344,-4.42384 -6.23333,-6.99382c-0.07837,-2.52038 6.6755,-1.47466 6.7825,-2.51524c0.16068,-1.56264 -7.06491,-6.26795 -0.96869,-9.3162c3.2986,-1.64937 13.68092,1.13478 13.97677,0.97792c1.53635,-0.81456 -0.83015,-6.32191 6.7919,-6.5149c7.0102,-0.17748 11.50281,8.40595 9.78947,11.38274z" fill="#feed00" stroke="#000000" stroke-linecap="round"/><path d="M290.67559,88.71577l23.3521,-0.13421" fill="none" stroke="#000000" stroke-linecap="round"/><path d="M328.73478,88.39856l23.3521,-0.13421" fill="none" stroke="#000000" stroke-linecap="round"/></g></g></svg>