<svg version="1.1" xmlns="http://www.w3.org/2000/svg" xmlns:xlink="http://www.w3.org/1999/xlink" width="173.69845" height="354.15867" viewBox="0,0,173.69845,354.15867"><g transform="translate(-130.06632,-4.16971)"><g stroke-width="2" stroke-miterlimit="10"><path d="M198.08239,220.15642c5.66472,0.16922 12.96705,-0.86 18.38913,-1.63686c5.91196,-0.84705 14.71597,0.7857 21.12012,1.12762c3.7619,0.20085 15.51509,1.64951 15.51509,1.64951l4.027,6.25424l12.24115,20.00069l7.4595,22.73438c0,0 10.76255,28.88208 10.38293,43.07363c-0.16598,6.2059 10.19865,14.24822 2.49916,17.63632c-2.72647,1.19974 -7.97406,9.48067 -11.43767,9.29574c-5.02466,-0.26828 -12.89388,-6.75474 -19.43655,-8.44223c-8.33068,-2.14866 -23.51303,0.49763 -23.51303,0.49763l-10.41167,-7.83759l-4.23598,-20.63066c0,0 -8.68573,-30.84853 -13.41414,-50.70478c-1.55371,-6.52464 -12.44576,-28.68309 -10.59513,-33.09188z" fill="#3c2c1f" stroke="#000000" stroke-linecap="round"/><path d="M232.88711,235.35782l26.60759,95.41933" fill="none" stroke="#000000" stroke-linecap="round"/><path d="M263.34179,337.97508c3.0841,10.78344 5.0573,19.90477 -5.75886,19.32729c-10.81617,-0.57748 -33.40994,-21.41854 -33.40994,-21.41854c0,0 3.18398,-19.05703 14.00014,-18.47954c10.81617,0.57748 22.08455,9.78732 25.16865,20.57079z" fill="#000000" stroke="#000000" stroke-linecap="butt"/><path d="M301.0597,336.79907c3.08411,10.78346 2.83314,20.19376 -7.98304,19.61626c-10.81616,-0.57747 -28.10166,-10.92405 -31.18578,-21.70751c-3.08411,-10.78346 3.18398,-19.05703 14.00014,-18.47954c10.81617,0.57748 22.08456,9.78733 25.16867,20.5708z" fill="#000000" stroke="#000000" stroke-linecap="butt"/><path d="M211.14745,212.67109c-7.70169,3.71804 -27.76131,-0.84114 -27.76131,-0.84114l-52.05524,-54.26152l26.5421,-41.81765l21.15212,-1.60181l0.35147,6.827l-13.53685,9.7621l-8.62898,38.5189c0,0 27.73291,19.26182 43.63961,16.64813c8.22268,-1.35112 16.26456,-5.5403 24.88527,-3.55976c25.5586,5.87187 1.82042,27.33324 -13.35705,30.58659z" fill="#feed00" stroke="#000000" stroke-linecap="round"/><g><path d="M250.84571,202.05699l14.41232,-11.90261l14.81002,23.92406l-2.92008,6.23294l-2.41896,-1.96056l0.42619,5.23414l-3.69853,8.60749l-5.14936,-5.08063l-8.03077,4.82046l-5.02923,-13.0772c0,0 -5.37649,3.42769 -8.77715,-3.39641c-3.12764,-6.27632 6.16998,-13.68692 6.16998,-13.68692z" fill="#feed00" stroke="#000000" stroke-linecap="round"/><path d="M270.65135,209.01757l-2.63617,3.87361l-4.29451,-3.55119l-3.8316,-2.89529l4.31607,-6.79107l7.07515,-3.26103l-0.62895,12.62495z" fill="#ffa600" stroke="none" stroke-linecap="butt"/><path d="M251.23726,213.84454c0,0 -1.90416,3.44035 -3.63854,2.45063c-1.73437,-0.98974 -2.91732,-3.69159 -2.64219,-6.03477c0.27513,-2.34317 1.90416,-3.44035 3.63853,-2.45063c1.73437,0.98974 2.6422,6.03476 2.6422,6.03476z" fill="#ffa600" stroke="none" stroke-linecap="butt"/><path d="M263.38758,228.08169l-3.59266,2.41644l-2.60958,-5.9558l3.59266,-2.41645l2.60958,5.9558z" fill="#ffa600" stroke="none" stroke-linecap="butt"/><path d="M273.14135,226.34422l-3.03644,2.6735l-2.06664,-5.58561l3.03644,-2.6735z" fill="#ffa600" stroke="none" stroke-linecap="butt"/><path d="M279.10787,214.05552l-2.18553,2.91764l-1.26888,-4.88892l2.18553,-2.91764z" fill="#ffa600" stroke="none" stroke-linecap="butt"/></g><g><path d="M186.38376,208.50155c3.40084,-0.48077 9.69213,6.88661 6.91534,13.32585c-3.01916,7.00126 -7.2481,2.75307 -8.57649,3.87526c-0.25581,0.21609 2.48305,11.50887 -0.27665,13.95535c-5.10026,4.52142 -8.28437,-4.37026 -8.28437,-4.37026l-4.86135,5.35684l-4.16755,-8.39044l-3.88687,-5.8704l1.71661,2.71168l-7.28312,-6.68315l18.0299,-23.97899c0,0 7.52015,7.05575 10.48507,10.36436z" fill="#feed00" stroke="#000000" stroke-linecap="round"/><path d="M170.04016,204.9942l7.24423,2.86587l0.12228,5.81737l-3.6661,3.10216l-4.09215,3.78261l-2.84575,-3.72234l3.23752,-11.84568z" fill="#ffa600" stroke="none" stroke-linecap="butt"/><path d="M188.75875,214.41761c1.67715,-1.08388 3.36421,-0.07819 3.76814,2.24626c0.40393,2.32445 -0.62822,5.08742 -2.30538,6.17128c-1.67715,1.08388 -3.36423,0.07821 -3.76815,-2.24624c-0.40393,-2.32445 0.62822,-5.08742 2.30539,-6.17129z" fill="#ffa600" stroke="none" stroke-linecap="butt"/><path d="M181.40761,230.00453c0,0 3.3219,-0.07878 3.72044,2.21466c0.39854,2.29343 -0.62098,5.02031 -2.27717,6.09063c-1.65619,1.0703 -3.72044,-2.21466 -3.72044,-2.21466z" fill="#ffa600" stroke="none" stroke-linecap="butt"/><path d="M167.0274,228.5864l7.20303,3.1227l-1.75551,5.69108l-3.17926,-2.50199z" fill="#ffa600" stroke="none" stroke-linecap="butt"/><path d="M159.63415,217.38505l2.34309,2.79268l-0.99735,4.95144l-2.34309,-2.79268z" fill="#ffa600" stroke="none" stroke-linecap="butt"/></g><path d="M192.01652,188.50468c-1.48275,6.39181 -9.90066,24.23005 -9.90066,24.23005l-24.89604,-5.28453l8.43114,-21.77266l17.0439,-55.30209c0,0 5.93158,-8.6342 7.69219,-13.414l1.17616,0.01224c13.10422,2.25639 24.99707,7.79419 38.79975,5.8528c5.52404,-0.77696 9.54098,-2.83052 13.46665,-6.78923c0.89756,-0.9051 3.5068,-3.09252 4.98223,-2.17383c3.32076,2.06768 7.32635,13.69496 7.32635,13.69496l16.50146,45.0318l5.16881,16.02488l-18.52176,16.72123l-5.49803,3.06411l0.10755,-23.76757l-2.21498,24.87866l0.89491,14.04683c0,0 -10.28661,4.02174 -13.16403,4.41851c-11.63937,1.60497 -23.74554,-0.3165 -35.37466,1.32599c-3.77984,0.53386 -9.27154,4.24539 -12.69672,2.51788c-1.82551,-0.92073 -5.06254,-7.05859 -5.11074,-8.80504c-0.21216,-7.68865 -1.64544,-16.4852 -0.34625,-24.06237" fill="#fffe8a" stroke="#000000" stroke-linecap="round"/><path d="M197.35468,108.46945c13.98411,-2.85782 27.56775,-5.78045 41.96855,-5.0481c3.07112,0.15619 13.80184,1.00063 13.11909,5.74445c-0.92793,6.4473 -7.12382,9.95311 -12.90996,11.51262c-10.43105,2.81144 -35.20024,4.31784 -44.8015,-0.92524c-6.83319,-3.73148 -5.28326,-11.28363 2.76194,-11.50562z" fill="#fffe8a" stroke="#000000" stroke-linecap="round"/><g stroke-linecap="butt"><path d="M201.1541,37.93616l-13.12349,35.02532l-3.68462,14.81681l-0.38119,-2.19245l-2.84944,-17.5457l-4.90283,-44.22176l-0.73191,-17.59694l1.9748,-0.01304l14.19527,16.83904l10.26355,14.60318z" fill="#feed00" stroke="#000000"/><path d="M196.39456,40.04298l-7.39536,24.92013l-1.9143,10.33956l-0.31921,-1.42949l-2.42369,-11.46169l-4.62659,-29.13488l-1.04828,-11.72568l1.28382,-0.22288l9.77909,9.75729l7.14952,8.68369z" fill="#ffa700" stroke="none"/></g><g stroke-linecap="butt"><path d="M237.1024,36.58271l7.22835,-13.84939c0,0 6.85091,-11.05426 10.41541,-16.29822c0.69369,-1.02054 0.91773,-2.11643 1.74222,-0.26368c1.28664,2.89126 1.54554,15.06962 1.54554,15.06962l1.18383,38.29675l-0.32725,15.32068l-0.06306,1.9179c0,0 -4.63501,-10.80512 -5.09217,-12.09036c-4.15989,-11.69491 -15.92738,-27.96621 -15.92738,-27.96621z" fill="#feed00" stroke="#000000"/><path d="M241.80363,37.68409l5.22056,-8.38104l7.40462,-9.6601l1.15932,0.01096l0.53579,10.11961l-0.45088,25.42557c0,0 -0.53407,6.72075 -0.70938,10.08642c-0.02203,0.42283 0.11867,1.1275 -0.10339,1.26033c-0.53487,0.31991 -2.71383,-7.63073 -2.97444,-8.52836c-2.37135,-8.16805 -9.6206,-20.16783 -9.6206,-20.16783z" fill="#ffa700" stroke="none"/></g><path d="M216.35953,34.35129l30.64897,6.38658c0,0 6.52835,13.34655 8.76478,21.76583c0.68686,2.5858 3.03114,7.34179 3.03114,7.34179c0,0 -5.70003,39.30418 -26.90368,42.16456c-17.75901,2.39572 -49.44008,-15.84602 -49.44008,-15.84602l0.37213,-32.21201l1.18506,-11.82506l32.70264,-17.51165z" fill="#feed00" stroke="#000000" stroke-linecap="butt"/><path d="M255.40564,74.28927c4.29727,0.2714 11.40386,10.52085 11.40386,10.52085l-7.47941,3.78447l1.45868,2.42271l1.28708,8.37253c0,0 -10.95891,3.64838 -14.02233,0.79676" fill="#feed00" stroke="#000000" stroke-linecap="round"/><path d="M189.75894,104.60859l-14.04493,-0.02228l0.82343,-8.43075l1.32287,-2.49946l-7.67674,-3.36627l10.80633,-11.1337" fill="#feed00" stroke="#000000" stroke-linecap="round"/><path d="M143.13047,59.28057l37.05298,16.38097" fill="none" stroke="#000000" stroke-linecap="round"/><path d="M148.33463,73.37018l32.23418,3.51162" fill="none" stroke="#000000" stroke-linecap="round"/><path d="M179.69995,77.25745l-26.60542,3.8965" fill="none" stroke="#000000" stroke-linecap="round"/><path d="M288.22924,52.63449l-29.89477,19.46387" fill="none" stroke="#000000" stroke-linecap="round"/><path d="M255.72312,73.04961c10.74216,-8.12962 33.36163,-4.64243 33.36163,-4.64243" fill="none" stroke="#000000" stroke-linecap="round"/><path d="M286.52538,77.94358l-27.24935,-3.58528" fill="none" stroke="#000000" stroke-linecap="round"/><path d="M214.3529,84.2322c3.71859,-0.1026 7.62722,-0.45176 11.33163,-0.09328c0.47016,0.0455 1.2686,-0.17768 1.38935,0.279c0.15816,0.5982 -6.40138,4.5551 -7.16996,4.51921c-1.72833,-0.08069 -4.42094,-3.38518 -5.13314,-4.71645z" fill="#000000" stroke="#000000" stroke-linecap="round"/><path d="M214.80193,65.55317c0.19524,7.07544 -5.29538,12.96709 -12.2636,13.15938c-6.96825,0.19228 -12.97061,-12.46307 -12.97061,-12.46307c0,0 5.29536,-12.96708 12.26358,-13.15937c6.96825,-0.19228 12.77538,5.38762 12.97063,12.46306z" fill="#ffffff" stroke="#000000" stroke-linecap="butt"/><path d="M249.84514,64.16354c0.19524,7.07544 -5.29536,12.96708 -12.26358,13.15937c-6.96825,0.19228 -12.77536,-5.38763 -12.97061,-12.46306c-0.19524,-7.07544 5.29536,-12.96708 12.26358,-13.15937c6.96825,-0.19228 12.77536,5.38763 12.97061,12.46306z" fill="#ffffff" stroke="#000000" stroke-linecap="butt"/><path d="M209.89347,64.6549c0.13945,5.05388 -3.87601,12.79827 -8.73551,12.93236c-4.8595,0.13409 -8.72285,-7.39288 -8.86233,-12.44678c-0.13945,-5.05388 3.68691,-9.25957 8.54641,-9.39365c4.8595,-0.13409 8.91196,3.85418 9.05142,8.90807z" fill="#000000" stroke="#000000" stroke-linecap="butt"/><path d="M244.4719,63.69088c0.13945,5.05388 -3.07393,13.11412 -7.93343,13.24822c-4.8595,0.13409 -9.52494,-7.70873 -9.6644,-12.76262c-0.13945,-5.05388 3.68691,-9.25957 8.54641,-9.39365c4.8595,-0.13409 8.91196,3.85418 9.05142,8.90807z" fill="#000000" stroke="#000000" stroke-linecap="butt"/><path d="M198.79853,40.76031l7.77303,-6.34296l3.67085,-1.87696l-4.8006,-2.09232l13.69811,-2.40868l4.24955,-0.12179l-5.91151,-3.35982l5.48677,1.14134l11.5444,10.30662" fill="#feed00" stroke="#000000" stroke-linecap="butt"/><path d="M185.71021,57.88938l-4.32724,-4.80093l-5.82311,-2.92118l7.28968,-3.66004l7.73573,-3.40704" fill="#feed00" stroke="#000000" stroke-linecap="butt"/><path d="M206.32094,159.07546c1.25379,0.4796 4.683,0.12882 5.20653,1.65284c1.75591,5.11133 -2.11928,9.8457 -6.99354,8.94874c-3.24574,-0.59727 2.154,-11.31916 2.154,-11.31916c0,0 -0.33287,-23.74664 1.86158,-35.31395" fill="#ffaf36" stroke="#000000" stroke-linecap="round"/><path d="M233.06568,158.9422c9.29019,-10.96319 8.83761,17.73843 -1.12144,9.94814c-5.39211,-4.21787 1.03467,-8.42572 1.46989,-10.95689c2.05421,-11.94763 -3.28959,-24.53825 -0.02795,-36.68422" fill="#ffaf36" stroke="#000000" stroke-linecap="round"/><path d="M195.18974,191.03317c3.46218,-2.92994 7.88699,-2.52746 12.07441,-3.30791c13.50587,-2.51726 28.67916,-2.03813 42.26557,-0.218" fill="none" stroke="#000000" stroke-linecap="round"/><path d="M248.00985,219.27041c-0.35065,-8.89243 3.52689,-27.78903 3.52689,-27.78903" fill="none" stroke="#000000" stroke-linecap="round"/><path d="M195.80746,195.27251c0.23489,8.51247 -3.59349,17.92459 -3.56068,26.4245" fill="none" stroke="#000000" stroke-linecap="round"/><path d="M201.23799,118.18573c-2.64548,-0.84546 -4.49487,-3.36928 -6.9374,-4.74463" fill="none" stroke="#fcec41" stroke-linecap="round"/><path d="M243.97697,114.67302c1.59899,-1.12915 3.09832,-2.02884 4.89793,-2.80694" fill="none" stroke="#fcec41" stroke-linecap="round"/><path d="M216.36086,137.46817l-0.26437,-9.58076" fill="none" stroke="#fcec41" stroke-linecap="round"/><path d="M219.82733,135.9694l-0.13541,-4.90723" fill="none" stroke="#fcec41" stroke-linecap="round"/><path d="M223.99483,134.45127l-0.8042,-3.7195" fill="none" stroke="#fcec41" stroke-linecap="round"/><path d="M173.72225,211.35417l16.49583,-38.61246l-10.75535,37.95332z" fill="#fce541" stroke="#fcec41" stroke-linecap="round"/><path d="M173.72225,211.35417l16.49583,-38.61246l-10.75535,37.95332z" fill="#fce541" stroke="#fcec41" stroke-linecap="round"/><path d="M256.6593,204.54681l-3.5687,-30.78589l13.70345,24.78468z" fill="#fce541" stroke="#fcec41" stroke-linecap="round"/></g></g></svg>