<svg version="1.1" xmlns="http://www.w3.org/2000/svg" xmlns:xlink="http://www.w3.org/1999/xlink" width="34.17311" height="34.17311" viewBox="0,0,34.17311,34.17311"><g transform="translate(-302.91346,-162.9135)"><g data-paper-data="{&quot;isPaintingLayer&quot;:true}" stroke="none" stroke-miterlimit="10" stroke-dasharray="" stroke-dashoffset="0" style="mix-blend-mode: normal"><path d="M309.98312,162.9135h20.03379c3.9166,0 7.06966,3.15307 7.06966,7.06966v20.03379c0,3.91659 -3.15306,7.06966 -7.06966,7.06966h-20.03379c-3.91659,0 -7.06966,-3.15307 -7.06966,-7.06966v-20.03379c0,-3.91659 3.15307,-7.06966 7.06966,-7.06966z" fill="#404040" fill-rule="evenodd" stroke-width="4.43922" stroke-linecap="round" stroke-linejoin="round"/><path d="M305.48926,181.13539c0,-0.41422 0.33578,-0.75 0.75,-0.75c0.41422,0 0.75,0.33578 0.75,0.75c0,0.41422 -0.33578,0.75 -0.75,0.75c-0.41422,0 -0.75,-0.33578 -0.75,-0.75z" fill="#000000" fill-rule="nonzero" stroke-width="0.5" stroke-linecap="butt" stroke-linejoin="miter"/><path d="M309.65593,181.0428c0,-0.41422 0.33578,-0.75 0.75,-0.75c0.41422,0 0.75,0.33578 0.75,0.75c0,0.41422 -0.33578,0.75 -0.75,0.75c-0.41422,0 -0.75,-0.33578 -0.75,-0.75z" fill="#000000" fill-rule="nonzero" stroke-width="0.5" stroke-linecap="butt" stroke-linejoin="miter"/><path d="M307.34112,183.72799c0,-0.41422 0.33578,-0.75 0.75,-0.75c0.41422,0 0.75,0.33578 0.75,0.75c0,0.41422 -0.33578,0.75 -0.75,0.75c-0.41422,0 -0.75,-0.33578 -0.75,-0.75z" fill="#000000" fill-rule="nonzero" stroke-width="0.5" stroke-linecap="butt" stroke-linejoin="miter"/><path d="M329.00778,180.95021c0,-0.41422 0.33578,-0.75 0.75,-0.75c0.41422,0 0.75,0.33578 0.75,0.75c0,0.41422 -0.33578,0.75 -0.75,0.75c-0.41422,0 -0.75,-0.33578 -0.75,-0.75z" fill="#000000" fill-rule="nonzero" stroke-width="0.5" stroke-linecap="butt" stroke-linejoin="miter"/><path d="M333.54482,181.13539c0,-0.41422 0.33578,-0.75 0.75,-0.75c0.41422,0 0.75,0.33578 0.75,0.75c0,0.41422 -0.33578,0.75 -0.75,0.75c-0.41422,0 -0.75,-0.33578 -0.75,-0.75z" fill="#000000" fill-rule="nonzero" stroke-width="0.5" stroke-linecap="butt" stroke-linejoin="miter"/><path d="M331.13741,183.63539c0,-0.41422 0.33578,-0.75 0.75,-0.75c0.41422,0 0.75,0.33578 0.75,0.75c0,0.41422 -0.33578,0.75 -0.75,0.75c-0.41422,0 -0.75,-0.33578 -0.75,-0.75z" fill="#000000" fill-rule="nonzero" stroke-width="0.5" stroke-linecap="butt" stroke-linejoin="miter"/><path d="M314.68905,173.64865c-0.47622,0.57942 -1.05563,0.10319 -1.05563,0.10319l-0.37929,-0.31529c-1.53902,-1.05835 -3.05822,-2.1731 -4.46081,-3.41015c-0.29915,-0.26385 -0.92994,-0.61677 -1.24915,-0.93094c-0.02465,0.79059 -0.18444,2.22421 -0.18454,2.48438c-0.00028,0.72569 0.0058,1.46315 0.16733,2.17064c0,0 0.1627,0.73214 -0.56944,0.89484c-0.73214,0.1627 -0.89484,-0.56945 -0.89484,-0.56945c-0.23373,-1.07608 -0.6819,-6.24146 0.78912,-6.8626c0.56779,-0.23975 1.74933,0.56731 2.18707,0.94245c1.65326,1.41688 3.26319,2.80631 5.06507,4.04476l0.48192,0.39253c0,0 0.57941,0.47621 0.1032,1.05563z" fill="#000000" fill-rule="nonzero" stroke-width="0.5" stroke-linecap="butt" stroke-linejoin="miter"/><path d="M333.76175,175.47865c-0.73214,-0.1627 -0.56945,-0.89484 -0.56945,-0.89484l0.17166,-0.75111c-0.0125,-1.19409 -0.1719,-2.44787 -0.07743,-3.63553c0.02418,-0.30391 0.49452,-0.75052 0.22203,-0.88726c-0.28106,-0.14104 -0.40833,0.49148 -0.67333,0.66078c-1.58232,1.01087 -3.27723,1.42377 -4.55702,2.87013c0,0 -0.50172,0.55747 -1.05919,0.05575c-0.55747,-0.50172 -0.05575,-1.0592 -0.05575,-1.0592c1.3141,-1.43981 3.19068,-2.55117 5.03814,-3.22619c0.66807,-0.2441 1.42957,-0.96224 2.04569,-0.60685c1.03121,0.59483 0.61003,4.91383 0.6082,5.98931l-0.19872,0.91556c0,0 -0.16269,0.73215 -0.89484,0.56945z" fill="#000000" fill-rule="nonzero" stroke-width="0.5" stroke-linecap="butt" stroke-linejoin="miter"/></g></g></svg>