<svg version="1.1" xmlns="http://www.w3.org/2000/svg" xmlns:xlink="http://www.w3.org/1999/xlink" width="34.17311" height="34.17311" viewBox="0,0,34.17311,34.17311"><g transform="translate(-302.91346,-162.91346)"><g data-paper-data="{&quot;isPaintingLayer&quot;:true}" stroke="none" stroke-miterlimit="10" stroke-dasharray="" stroke-dashoffset="0" style="mix-blend-mode: normal"><path d="M309.98313,162.91346h20.03378c3.9166,0 7.06966,3.15307 7.06966,7.06966v20.03379c0,3.91659 -3.15306,7.06966 -7.06966,7.06966h-20.03378c-3.91659,0 -7.06967,-3.15307 -7.06967,-7.06966v-20.03379c0,-3.91659 3.15308,-7.06966 7.06967,-7.06966z" fill="#9d9d9d" fill-rule="evenodd" stroke-width="4.43922" stroke-linecap="round" stroke-linejoin="round"/><path d="M312.69617,184.90809c0,0 -0.24264,0.04044 -0.47316,-0.06396c0.03672,0.28786 0.07516,0.57403 0.11582,0.8582l0.13859,1.38428c0,0 0.0695,0.69498 -0.62547,0.76448c-0.69497,0.06949 -0.76447,-0.62548 -0.76447,-0.62548l-0.13531,-1.35469c-0.44591,-3.1093 -0.7646,-6.22747 -1.28212,-9.32616c-0.10382,-0.62164 -0.28702,-1.29692 -0.42323,-1.97507c-1.04363,4.87733 -1.38342,9.90273 -2.82113,14.70441c0,0 -0.20069,0.66898 -0.86968,0.46829c-0.66899,-0.20069 -0.46828,-0.86968 -0.46828,-0.86968c1.64853,-5.48394 1.84516,-11.26878 3.316,-16.78444l0.35605,-1.33519c0.0743,-0.30588 0.34999,-0.53301 0.67873,-0.53301c0.3505,0 0.64069,0.25817 0.69079,0.59472l0.22822,1.36646l-0.12527,0.02092c0.60007,1.85448 0.95804,3.81907 1.22242,5.80721c4.71806,-1.92642 12.31243,-2.70847 17.45273,-0.85638c0.32758,-1.4614 0.65902,-2.91719 0.96884,-4.36255l0.11482,-0.66847c0.05136,-0.3351 0.34087,-0.59175 0.69034,-0.59175c0.31977,0 0.58936,0.21489 0.67221,0.50815l0.40616,1.32l-0.124,0.03815c1.85983,3.9535 2.84439,9.02985 3.30048,13.13466l0.00427,0.21408c0,0 0,0.69843 -0.69844,0.69843c-0.69844,0 -0.69844,-0.69843 -0.69844,-0.69843l0.00427,-0.05982c-0.33946,-3.05512 -1.22456,-5.93033 -2.03037,-8.89456c-0.21094,-0.77597 -0.55369,-1.62297 -0.76863,-2.46751c-0.17767,0.79287 -0.35798,1.58815 -0.53663,2.38503c0.13103,0.06548 0.25974,0.13314 0.38603,0.20302l0.29438,0.25144c0,0 0.50242,0.48518 0.01723,0.98759c-0.48519,0.50241 -0.98759,0.01723 -0.98759,0.01723l-0.00241,-0.03517c-0.0071,-0.00396 -0.01421,-0.00792 -0.02133,-0.01187c-0.5539,2.52412 -1.06601,5.05936 -1.4008,7.57997c0,0 -0.09231,0.69232 -0.78462,0.60001c-0.69232,-0.09231 -0.60001,-0.78462 -0.60001,-0.78462c0.09265,-0.69238 0.19831,-1.38581 0.31426,-2.07977c-4.6491,-0.84252 -10.07436,-0.30581 -14.73125,0.47186zM312.44957,183.4285c4.82791,-0.80314 10.42171,-1.33934 15.2391,-0.46935c0.04216,-0.22663 0.08522,-0.45327 0.12907,-0.67992l-0.03376,-0.01512c-4.81725,-1.75456 -10.48966,-1.75392 -15.41294,-0.45832c0,0 -0.25403,0.06685 -0.49151,-0.03723c0.06354,0.61366 0.12706,1.22438 0.19497,1.82957c0.17478,-0.13625 0.37508,-0.16963 0.37508,-0.16963zM311.65009,179.44274c0,0 -0.0065,0.00283 -0.01847,0.00726c0.04318,0.37796 0.08429,0.75602 0.12434,1.13359c0.13047,-0.0947 0.25959,-0.12868 0.25959,-0.12868c5.14208,-1.35318 11.03161,-1.34996 16.07985,0.43694c0.16303,-0.79055 0.33345,-1.58067 0.5073,-2.3696c-4.9053,-1.87623 -12.55682,-0.99072 -16.95261,0.92049z" fill="#000000" fill-rule="nonzero" stroke-width="0.5" stroke-linecap="butt" stroke-linejoin="miter"/></g></g></svg>