<svg version="1.1" xmlns="http://www.w3.org/2000/svg" xmlns:xlink="http://www.w3.org/1999/xlink" width="188.74518" height="282.68046" viewBox="0,0,188.74518,282.68046"><defs><linearGradient x1="235.09922" y1="112.88888" x2="285.40274" y2="115.1851" gradientUnits="userSpaceOnUse" id="color-1"><stop offset="0" stop-color="#ffe23b"/><stop offset="1" stop-color="#631917"/></linearGradient><linearGradient x1="232.67476" y1="122.04574" x2="280.59896" y2="124.23335" gradientUnits="userSpaceOnUse" id="color-2"><stop offset="0" stop-color="#ffe23b"/><stop offset="1" stop-color="#631917"/></linearGradient><linearGradient x1="364.28247" y1="121.00187" x2="414.58599" y2="123.29809" gradientUnits="userSpaceOnUse" id="color-3"><stop offset="0" stop-color="#3c0000"/><stop offset="1" stop-color="#ffe23b"/></linearGradient><linearGradient x1="321.36182" y1="177.28222" x2="313.20708" y2="355.92856" gradientUnits="userSpaceOnUse" id="color-4"><stop offset="0" stop-color="#fbc74c"/><stop offset="1" stop-color="#fa954b"/></linearGradient><linearGradient x1="365.34784" y1="130.35704" x2="413.27204" y2="132.54466" gradientUnits="userSpaceOnUse" id="color-5"><stop offset="0" stop-color="#3c0000"/><stop offset="1" stop-color="#ffe23b"/></linearGradient><linearGradient x1="361.98329" y1="143.27008" x2="418.19603" y2="145.83604" gradientUnits="userSpaceOnUse" id="color-6"><stop offset="0" stop-color="#3c0000"/><stop offset="1" stop-color="#ffe23b"/></linearGradient><linearGradient x1="229.45086" y1="135.00421" x2="285.66361" y2="137.57017" gradientUnits="userSpaceOnUse" id="color-7"><stop offset="0" stop-color="#ffe23b"/><stop offset="1" stop-color="#631917"/></linearGradient><linearGradient x1="340.98337" y1="183.82005" x2="381.50411" y2="185.66972" gradientUnits="userSpaceOnUse" id="color-8"><stop offset="0" stop-color="#3c0000"/><stop offset="1" stop-color="#ffe23b"/></linearGradient><linearGradient x1="321.19553" y1="172.293" x2="319.68579" y2="205.36704" gradientUnits="userSpaceOnUse" id="color-9"><stop offset="0" stop-color="#fbc74c"/><stop offset="1" stop-color="#fa8c4b"/></linearGradient><linearGradient x1="261.74176" y1="175.40127" x2="302.2625" y2="177.25094" gradientUnits="userSpaceOnUse" id="color-10"><stop offset="0" stop-color="#ffe23b"/><stop offset="1" stop-color="#631917"/></linearGradient><linearGradient x1="327.34741" y1="83.42461" x2="322.58896" y2="187.66827" gradientUnits="userSpaceOnUse" id="color-11"><stop offset="0" stop-color="#ceb037"/><stop offset="1" stop-color="#ffec7f"/></linearGradient><linearGradient x1="347.06627" y1="75.63772" x2="345.52669" y2="109.36529" gradientUnits="userSpaceOnUse" id="color-12"><stop offset="0" stop-color="#d0b23a"/><stop offset="1" stop-color="#dabf49"/></linearGradient><linearGradient x1="347.64954" y1="210.67942" x2="342.24155" y2="226.41696" gradientUnits="userSpaceOnUse" id="color-13"><stop offset="0" stop-color="#ffde00"/><stop offset="1" stop-color="#ff9500"/></linearGradient><linearGradient x1="347.64954" y1="210.67942" x2="342.24155" y2="226.41696" gradientUnits="userSpaceOnUse" id="color-14"><stop offset="0" stop-color="#000000" stop-opacity="0.22745"/><stop offset="1" stop-color="#000000" stop-opacity="0.58824"/></linearGradient><linearGradient x1="352.75823" y1="217.23614" x2="347.35024" y2="232.97368" gradientUnits="userSpaceOnUse" id="color-15"><stop offset="0" stop-color="#ffce4e"/><stop offset="1" stop-color="#ff824f"/></linearGradient><linearGradient x1="352.75823" y1="217.23614" x2="347.35024" y2="232.97368" gradientUnits="userSpaceOnUse" id="color-16"><stop offset="0" stop-color="#000000" stop-opacity="0.22745"/><stop offset="1" stop-color="#000000" stop-opacity="0.58824"/></linearGradient></defs><g transform="translate(-228.75918,-75.61173)"><g stroke-miterlimit="10"><path d="M273.46944,129.91473c0,0 -15.34217,-7.25454 -21.42954,-12.46842c-6.4498,-5.5243 -16.24489,-19.80002 -16.24489,-19.80002c0,0 7.86071,6.80725 13.68868,7.32019c9.37675,0.82528 36.36373,0.47724 36.36373,0.47724z" fill="url(#color-1)" stroke="#000000" stroke-width="0" stroke-linecap="butt"/><path d="M263.35326,142.59129c0,0 -13.41073,-10.40013 -18.2268,-16.80686c-5.10281,-6.78817 -11.57959,-22.84404 -11.57959,-22.84404c0,0 6.20296,8.34582 11.78215,10.10671c8.97652,2.83315 35.40039,8.32831 35.40039,8.32831z" fill="url(#color-2)" stroke="#000000" stroke-width="0" stroke-linecap="butt"/><path d="M364.72715,111.26049c0,0 26.84304,2.80524 36.25598,2.83766c5.85046,0.02015 14.29866,-6.04264 14.29866,-6.04264c0,0 -11.05495,13.32397 -17.98122,18.23769c-6.53707,4.63761 -22.47635,10.46423 -22.47635,10.46423z" fill="url(#color-3)" stroke="#000000" stroke-width="0" stroke-linecap="butt"/><path d="M263.83498,350.03243l4.47378,-147.22493c0,0 8.14742,-25.35306 18.49354,-25.28644c10.27454,0.06616 34.61004,0.61981 55.88229,0.75679c23.07225,0.14857 29.02189,27.3265 29.02189,27.3265l-6.71937,152.68784z" fill="url(#color-4)" stroke="#000000" stroke-width="0" stroke-linecap="butt"/><path d="M365.4783,127.4991c0,0 26.81462,-3.06496 36.01192,-5.06852c5.71643,-1.24528 12.65393,-8.99127 12.65393,-8.99127c0,0 -7.9126,15.39904 -13.61263,21.69408c-5.37972,5.94131 -19.68219,15.07642 -19.68219,15.07642z" fill="url(#color-5)" stroke="#000000" stroke-width="0" stroke-linecap="butt"/><path d="M372.25867,125.34857c0,0 20.60483,22.74071 28.55195,29.90946c4.93941,4.45563 16.69374,5.73052 16.69374,5.73052c0,0 -19.4708,2.89688 -29.06448,1.80351c-9.05458,-1.03194 -26.97387,-8.19008 -26.97387,-8.19008z" fill="url(#color-6)" stroke="#000000" stroke-width="0" stroke-linecap="butt"/><path d="M285.14634,148.90205c0,0 -18.49692,5.49584 -27.60786,5.69857c-9.65339,0.21479 -28.7793,-4.44393 -28.7793,-4.44393c0,0 11.82159,-0.1987 17.14639,-4.18579c8.56718,-6.41492 31.15811,-27.18385 31.15811,-27.18385z" fill="url(#color-7)" stroke="#000000" stroke-width="0" stroke-linecap="butt"/><path d="M370.08008,157.62917c0,0 8.32076,17.40991 9.94576,26.37705c1.72174,9.50103 0.11123,29.12015 0.11123,29.12015c0,0 -2.04491,-11.64508 -6.81563,-16.28087c-7.67572,-7.45862 -31.7219,-26.52379 -31.7219,-26.52379z" fill="url(#color-8)" stroke="#000000" stroke-width="0" stroke-linecap="butt"/><path d="M295.16054,174.70875c10.85744,-3.64545 23.14117,-2.30441 34.56525,-1.78293c4.64089,0.21184 10.56185,-0.436 14.80856,1.48773c3.30381,1.49661 9.37766,1.75995 11.72815,4.42754c2.45643,2.78782 -2.19328,7.5465 -4.11355,9.0986c-6.48458,5.24133 -18.79377,16.06407 -27.02932,17.47594c-9.44221,1.61874 -22.9252,-13.30124 -30.2047,-18.81242c-1.33606,-1.0115 -9.84405,-5.36445 -10.19798,-6.19906c-0.678,-1.59875 8.0856,-5.64122 9.65301,-6.08538z" fill="url(#color-9)" stroke="#000000" stroke-width="0" stroke-linecap="round"/><path d="M302.87866,163.75261c0,0 -25.6831,16.79515 -34.00642,23.52346c-5.17323,4.18187 -8.27056,15.59222 -8.27056,15.59222c0,0 0.18359,-19.68426 2.76376,-28.98893c2.43519,-8.78181 12.30747,-25.36126 12.30747,-25.36126z" fill="url(#color-10)" stroke="#000000" stroke-width="0" stroke-linecap="butt"/><path d="M379.75559,136.57344c-1.27693,27.97378 -26.68707,52.48614 -56.90823,51.10662c-30.22117,-1.37952 -53.80924,-28.12853 -52.53231,-56.1023c1.27693,-27.97377 26.8112,-49.53267 57.03236,-48.15316c30.22117,1.37952 53.68512,25.17506 52.40819,53.14883z" fill="url(#color-11)" stroke="#000000" stroke-width="0" stroke-linecap="butt"/><path d="M341.08366,132.63367c-0.12352,2.70602 -6.86916,4.59634 -15.06682,4.22214c-8.19767,-0.3742 -14.74303,-2.87122 -14.61951,-5.57724c0.12352,-2.70602 6.86917,-4.59634 15.06682,-4.22214c8.19767,0.3742 14.74303,2.87122 14.6195,5.57724z" fill-opacity="0.18431" fill="#ff0505" stroke="none" stroke-width="0" stroke-linecap="butt"/><path d="M308.39314,127.34233c-0.10191,2.23253 -2.25797,1.1587 -4.70832,1.04685c-2.45035,-0.11185 -4.26709,0.78063 -4.16518,-1.4519c0.10191,-2.23254 2.17093,-3.95171 4.62128,-3.83986c2.45035,0.11185 4.35414,2.01237 4.25222,4.24491z" fill="#ffffff" stroke="#000000" stroke-width="2.5" stroke-linecap="butt"/><path d="M320.8241,86.50135c6.11249,0.27902 11.58917,-0.14777 16.74033,-3.76391c2.42845,-1.70477 5.63213,-6.82511 8.70661,-7.11685c2.53152,-0.24021 2.71969,4.47433 4.8686,5.26172c3.99508,1.46387 10.91042,-0.72482 14.85502,-1.70272c1.19533,-0.29633 5.00155,-1.92979 6.10709,-1.26947c1.9367,1.1568 -1.7931,6.7893 -2.60728,7.93155c-2.93397,4.11617 -4.02528,12.96946 -12.10652,18.14772c-5.09586,3.26531 -17.52867,3.61637 -20.58686,4.97759" fill="url(#color-12)" stroke="#000000" stroke-width="0" stroke-linecap="round"/><path d="M323.45129,187.70775l-0.07166,18.03774l-6.95881,119.51157l-0.89188,27.77251" fill="none" stroke-opacity="0.61176" stroke="#000000" stroke-width="2.5" stroke-linecap="round"/><path d="M349.54895,134.75202l10.25515,-0.99045" fill="none" stroke="#000000" stroke-width="2.5" stroke-linecap="round"/><path d="M292.02972,168.68494l6.53208,-9.85965l27.72117,7.08411l27.37984,-5.55455l4.6929,10.27414z" fill="#ffffff" stroke="#000000" stroke-width="2.5" stroke-linecap="round"/><path d="M367.5506,133.92462l-16.35905,1.18412" fill="none" stroke="#000000" stroke-width="2.5" stroke-linecap="round"/><path d="M358.3446,133.5044l4.39914,-2.37367" fill="none" stroke="#000000" stroke-width="2.5" stroke-linecap="round"/><path d="M293.03634,130.73779l-7.99873,-3.36867" fill="none" stroke="#000000" stroke-width="2.5" stroke-linecap="round"/><path d="M287.25672,125.7541l3.41572,0.37046" fill="none" stroke="#000000" stroke-width="2.5" stroke-linecap="round"/><path d="M305.94058,130.0396l-8.03964,6.92736" fill="none" stroke="#000000" stroke-width="2.5" stroke-linecap="round"/><path d="M344.47739,131.7987l6.83053,5.46074" fill="none" stroke="#000000" stroke-width="2.5" stroke-linecap="round"/><path d="M360.7085,138.11763l-4.93393,-0.01068" fill="none" stroke="#000000" stroke-width="2.5" stroke-linecap="round"/><path d="M289.69789,133.37441l2.94844,1.20728l-1.9902,9.4282" fill="none" stroke="#000000" stroke-width="2.5" stroke-linecap="round"/><path d="M306.09688,109.36556c0,0 -4.0069,8.56255 -6.8222,9.68131c-3.12478,1.24175 -11.09505,-2.56122 -11.09505,-2.56122" fill="none" stroke="#000000" stroke-width="2.5" stroke-linecap="round"/><path d="M360.83864,130.42832c-0.10191,2.23253 -2.25798,1.15871 -4.70833,1.04686c-2.45035,-0.11185 -4.26709,0.78063 -4.16518,-1.45191c0.10191,-2.23254 2.17093,-3.9517 4.62128,-3.83985c2.45035,0.11185 4.35414,2.01236 4.25222,4.2449z" fill="#ffffff" stroke="#000000" stroke-width="2.5" stroke-linecap="butt"/><path d="M360.95184,120.23659c0,0 -8.28359,3.06102 -11.28225,1.53975c-2.70167,-1.3706 -5.91182,-10.26258 -5.91182,-10.26258" fill="none" stroke="#000000" stroke-width="2.5" stroke-linecap="round"/><path d="M315.13699,129.04938l2.72549,-3.30821" fill="none" stroke="#000000" stroke-width="2.5" stroke-linecap="round"/><path d="M320.40137,131.22054l0.22477,-4.92415" fill="none" stroke="#000000" stroke-width="2.5" stroke-linecap="round"/><path d="M325.2962,132.0876l1.57774,-6.36417" fill="none" stroke="#000000" stroke-width="2.5" stroke-linecap="round"/><path d="M331.76877,126.59049l-0.01068,4.93393" fill="none" stroke="#000000" stroke-width="2.5" stroke-linecap="round"/><path d="M336.27452,126.58162l1.78025,3.29936" fill="none" stroke="#000000" stroke-width="2.5" stroke-linecap="round"/><path d="M367.22208,132.35395c-0.08951,1.96103 -2.4899,3.4445 -5.3614,3.31342c-2.8715,-0.13108 -5.12675,-1.82706 -5.03723,-3.78809c0.08951,-1.96103 2.4899,-3.4445 5.3614,-3.31342c2.8715,0.13108 5.12675,1.82706 5.03723,3.78809z" fill="#ffffff" stroke="#000000" stroke-width="2.5" stroke-linecap="butt"/><path d="M294.5459,129.00021c-0.10587,2.31923 -2.6985,4.08489 -5.7908,3.94374c-3.0923,-0.14115 -5.51329,-2.13569 -5.40742,-4.45491c0.10587,-2.31923 2.6985,-4.08489 5.7908,-3.94374c3.0923,0.14115 5.51329,2.13569 5.40742,4.45491z" fill="#ffffff" stroke="#000000" stroke-width="2.5" stroke-linecap="butt"/><path d="M350.81603,178.32538l1.74171,-4.74941l-2.36474,7.2625l0.16316,-9.14208" fill="none" stroke="#000000" stroke-width="2.5" stroke-linecap="round"/><path d="M348.71865,174.16318l-1.07347,6.81315l0.70514,-9.8798" fill="none" stroke="#000000" stroke-width="2.5" stroke-linecap="round"/><path d="M345.75403,183.43154l0.39363,-8.62325l0.24097,5.85653" fill="none" stroke="#000000" stroke-width="2.5" stroke-linecap="round"/><path d="M345.99824,172.51408l-0.62303,2.5131" fill="none" stroke="#000000" stroke-width="2.5" stroke-linecap="round"/><path d="M342.56218,175.40707l1.14186,-2.74357l-0.1505,3.29713" fill="none" stroke="#000000" stroke-width="2.5" stroke-linecap="round"/><path d="M339.51868,175.26815l1.07239,-1.22182l-0.11577,2.53625" fill="none" stroke="#000000" stroke-width="2.5" stroke-linecap="round"/><path d="M339.12721,172.70875l-0.39363,8.62325l-0.96712,-6.65214" fill="none" stroke="#000000" stroke-width="2.5" stroke-linecap="round"/><path d="M335.79426,178.91044l1.78802,-5.76391l0.18201,12.71599" fill="none" stroke="#000000" stroke-width="2.5" stroke-linecap="round"/><path d="M334.0084,173.49169l1.56806,-0.94504l-0.64618,3.02035z" fill="none" stroke="#000000" stroke-width="2.5" stroke-linecap="round"/><path d="M333.70756,148.05221l-0.33774,15.09958l0.09756,-9.83787" fill="none" stroke="#000000" stroke-width="2.5" stroke-linecap="round"/><path d="M335.49051,162.89708l-1.54723,3.09298l-0.95627,-2.15273" fill="none" stroke="#000000" stroke-width="2.5" stroke-linecap="round"/><path d="M339.55576,166.24624l-1.17895,-4.97498l-1.61128,4.49611l-0.47739,-4.94295" fill="none" stroke="#000000" stroke-width="2.5" stroke-linecap="round"/><path d="M333.7891,138.56512l0.17614,-3.8586" fill="none" stroke="#000000" stroke-width="2.5" stroke-linecap="round"/><path d="M329.0018,158.73426l0.06256,6.33007" fill="none" stroke="#000000" stroke-width="2.5" stroke-linecap="round"/><path d="M345.79124,160.55519l0.22269,2.82226" fill="none" stroke="#000000" stroke-width="2.5" stroke-linecap="round"/><path d="M348.96429,160.34851l1.19496,4.6242" fill="none" stroke="#000000" stroke-width="2.5" stroke-linecap="round"/><path d="M354.0979,163.39494l2.32736,2.91833" fill="none" stroke="#000000" stroke-width="2.5" stroke-linecap="round"/><path d="M357.25493,163.53906l0.79615,5.66053l-0.62299,5.94726l-0.82966,2.77422l-0.79615,-5.66053l-2.32886,4.81485l-0.50941,-4.24139" fill="none" stroke="#000000" stroke-width="2.5" stroke-linecap="round"/><path d="M360.31439,173.52104l0.22417,-4.91093l0.20667,3.17304" fill="none" stroke="#000000" stroke-width="2.5" stroke-linecap="round"/><path d="M301.78246,132.5716l-10.12227,-1.92063l13.05356,2.76525l-10.61762,2.30434l4.91768,-5.38963" fill="none" stroke="#000000" stroke-width="2.5" stroke-linecap="round"/><path d="M294.69235,132.59425l-1.73937,7.30235" fill="none" stroke="#000000" stroke-width="2.5" stroke-linecap="round"/><path d="M290.68667,151.04154l-0.90674,-10.93825" fill="none" stroke="#000000" stroke-width="2.5" stroke-linecap="round"/><path d="M291.43181,173.22078l-0.38131,-7.04764l-0.25174,-17.58707" fill="none" stroke="#000000" stroke-width="2.5" stroke-linecap="round"/><path d="M291.05049,166.17314l1.32157,9.55114" fill="none" stroke="#000000" stroke-width="2.5" stroke-linecap="round"/><g stroke-width="2.5" stroke-linecap="butt"><path d="M337.49172,212.64746c0.35212,-1.05414 0.55668,-1.43659 1.04837,-1.96029c0.05655,-0.06024 0.11373,-0.11886 0.17154,-0.17588c0.01037,-0.01062 0.02074,-0.02106 0.03113,-0.03131c0.19889,-0.19648 0.40715,-0.37143 0.62257,-0.52556c0.62916,-0.45752 1.31738,-0.7471 2.05121,-0.86137c0.72693,-0.11319 1.09531,-0.15602 2.0768,0.16209c0.10953,0.03281 0.21764,0.06958 0.32412,0.11024c0.80538,0.28677 1.07415,0.49267 1.44007,0.88987c0.74445,0.6898 1.25401,1.65437 1.345,2.83281l0.04023,0.5211l0.35205,-0.3863c0.79613,-0.87358 1.79096,-1.32121 2.80218,-1.40769c0.53279,-0.08837 0.87135,-0.08556 1.68289,0.1833c0.10897,0.03338 0.21687,0.07083 0.32341,0.11228c0.96973,0.35239 1.23394,0.61262 1.73775,1.14873c0.50859,0.54121 0.87341,1.19265 1.08844,1.94024c0.07518,0.25401 0.13192,0.52002 0.16803,0.79727c0.00188,0.01447 0.00366,0.02909 0.00531,0.04385c0.01055,0.0805 0.01963,0.16189 0.0272,0.24416c0.06591,0.71532 -0.00783,1.14273 -0.37805,2.19064c-0.00764,0.02161 -0.01533,0.04316 -0.02307,0.06461c-0.26611,0.82364 -0.64502,1.61976 -1.06515,2.15377c-1.16251,1.47757 -2.72041,2.37321 -5.98877,3.44293c-2.14345,0.70156 -4.73308,1.98758 -4.95936,2.21543c-0.12285,0.12368 -0.25083,0.07971 -0.27171,-0.09337c-0.03844,-0.31882 -1.29057,-2.92501 -2.55002,-4.79593c-1.92044,-2.85278 -2.59871,-4.51686 -2.60743,-6.3969c-0.00315,-0.67946 0.18734,-1.54035 0.48373,-2.35356c0.00708,-0.02168 0.01425,-0.04339 0.02151,-0.06513z" fill="url(#color-13)" stroke="url(#color-14)"/><path d="M342.60043,219.20419c0.35212,-1.05414 0.55668,-1.4366 1.04836,-1.96031c0.05655,-0.06024 0.11374,-0.11885 0.17153,-0.17587c0.01037,-0.01062 0.02074,-0.02105 0.03112,-0.0313c0.19889,-0.19648 0.40715,-0.37144 0.62259,-0.52557c0.62916,-0.45752 1.31736,-0.7471 2.0512,-0.86137c0.72693,-0.11319 1.0953,-0.15603 2.07679,0.16208c0.10953,0.03281 0.21766,0.06959 0.32413,0.11025c0.80538,0.28677 1.07415,0.49267 1.44009,0.88987c0.74445,0.6898 1.254,1.65438 1.34499,2.83281l0.04024,0.52109l0.35205,-0.38628c0.79613,-0.87358 1.79097,-1.32121 2.80218,-1.40769c0.53279,-0.08837 0.87134,-0.08557 1.68288,0.18329c0.10897,0.03338 0.21687,0.07083 0.32342,0.11227c0.96973,0.35239 1.23393,0.61262 1.73775,1.14874c0.50859,0.54121 0.87341,1.19264 1.08845,1.94024c0.07518,0.25401 0.13192,0.52003 0.16802,0.79728c0.00188,0.01447 0.00365,0.02908 0.00531,0.04383c0.01055,0.0805 0.01961,0.1619 0.0272,0.24415c0.06591,0.71532 -0.00782,1.14273 -0.37805,2.19065c-0.00764,0.02161 -0.01532,0.04315 -0.02305,0.0646c-0.26609,0.82363 -0.64502,1.61976 -1.06515,2.15377c-1.16251,1.47757 -2.72041,2.37321 -5.98877,3.44293c-2.14345,0.70156 -4.73309,1.98758 -4.95938,2.21543c-0.12285,0.12368 -0.25083,0.0797 -0.2717,-0.09337c-0.03844,-0.31882 -1.29056,-2.925 -2.55001,-4.79592c-1.92044,-2.85278 -2.59872,-4.51687 -2.60744,-6.39691c-0.00315,-0.67946 0.18733,-1.54034 0.48373,-2.35357c0.00708,-0.02168 0.01425,-0.04338 0.02151,-0.06512z" fill="url(#color-15)" stroke="url(#color-16)"/></g></g></g></svg>