<svg version="1.1" xmlns="http://www.w3.org/2000/svg" xmlns:xlink="http://www.w3.org/1999/xlink" width="34.17311" height="34.17311" viewBox="0,0,34.17311,34.17311"><g transform="translate(-302.91346,-162.91348)"><g data-paper-data="{&quot;isPaintingLayer&quot;:true}" stroke="none" stroke-miterlimit="10" stroke-dasharray="" stroke-dashoffset="0" style="mix-blend-mode: normal"><path d="M309.98312,162.91349h20.03379c3.9166,0 7.06966,3.15307 7.06966,7.06966v20.03379c0,3.91659 -3.15306,7.06966 -7.06966,7.06966h-20.03379c-3.91659,0 -7.06966,-3.15307 -7.06966,-7.06966v-20.03379c0,-3.91659 3.15307,-7.06966 7.06966,-7.06966z" fill="#ff0000" fill-rule="evenodd" stroke-width="4.43922" stroke-linecap="round" stroke-linejoin="round"/><path d="M330.5791,179.2648c-0.96402,-2.74583 -2.95041,-4.70905 -5.37545,-5.9025c-0.13034,-0.00928 -0.24081,-0.03773 -0.32385,-0.0899c-0.03273,-0.02056 -0.0611,-0.05548 -0.08562,-0.10249c-1.27599,-0.57173 -2.66017,-0.93858 -4.07228,-1.10231c-0.38075,0.39112 -0.75657,0.81795 -1.23667,0.72764c-0.20642,-0.03883 -0.44173,-0.37888 -0.68914,-0.82531c-0.95242,0.01317 -1.90107,0.11724 -2.8218,0.31168c-0.16722,0.06922 -0.33195,0.14302 -0.49412,0.22115c-0.18038,0.478 -0.3064,0.86595 -0.33687,1.01515c-0.28454,0.67801 -0.19358,1.70995 -0.8536,2.03402c-0.49198,0.24156 -1.04514,-0.32963 -1.57876,-1.07885c-4.50952,4.46293 -5.09987,12.73659 1.82966,15.07203c6.21395,0.9594 11.91582,1.60299 15.70477,-4.49014l0.19054,-0.28638c0,0 0.08904,-0.13356 0.24652,-0.23591c-0.01006,-0.04898 -0.01534,-0.09969 -0.01534,-0.15164c0,-0.03352 0.0022,-0.06654 0.00646,-0.0989l0.17394,-1.47846l0.20117,0.02367c-0.04021,-1.21629 -0.07259,-2.43187 -0.46956,-3.56256zM331.68397,185.60064l-0.16661,0.24933c-4.18517,6.66638 -10.45408,6.23898 -17.33095,5.15272c-3.01389,-0.99505 -4.8621,-2.93044 -5.73131,-5.24017c-0.21566,-0.01655 -0.38195,-0.12048 -0.38195,-0.12048c-1.50394,-1.04466 -1.86136,-3.47029 -2.1358,-5.26617c-0.10258,-0.67129 -0.61593,-1.5191 -0.16884,-2.03025c0.59181,-0.67663 2.10612,0.95766 2.68336,0.26856c0.21069,-0.25152 -0.14455,-0.64535 -0.14589,-0.97347c-0.00554,-1.35318 0.33605,-6.48173 1.8423,-6.98845c1.1867,-0.39923 2.17363,0.67807 2.81826,1.66316c0.40126,-0.3018 0.82308,-0.57996 1.26432,-0.83106c0.65035,-1.61569 1.77076,-3.50543 3.15405,-3.42135c0.03811,0.00232 2.03477,1.80075 2.24855,2.24586c0.02648,0.05515 0.03767,0.11977 0.04003,0.18931c0.1765,0.00677 0.35284,0.01633 0.5289,0.02869c0.00811,-0.01076 0.01666,-0.0208 0.02571,-0.03005c0.75023,-0.76706 4.2086,-3.53077 5.37169,-3.16072c1.11251,0.35396 0.69671,2.38207 0.65996,2.96747c-0.02918,0.46475 0.01266,0.94115 -0.07941,1.39624c0.91088,-0.7009 3.09827,-1.52149 3.4719,-1.26051c0.43616,0.30466 0.1103,3.05731 0.05824,3.65363c-0.67937,0.73024 2.66317,-1.31134 3.44784,-0.61295c1.71038,1.52232 0.00662,2.77172 -0.55355,4.00108c-0.2528,0.5548 1.48531,-0.24578 1.80887,0.27096c0.93153,1.48771 -1.16391,4.67269 -1.87231,5.88085l-0.42525,1.02058c-0.05988,0.15353 -0.16888,0.28248 -0.30768,0.36754c0.05815,0.30581 -0.12441,0.57964 -0.12441,0.57964zM307.85884,182.37576c-0.00133,-0.82181 0.09118,-1.65546 0.27115,-2.48167c-0.19517,-0.04488 -0.38797,-0.09553 -0.56551,-0.12724c-0.26186,-0.04677 -0.5247,-0.63963 -0.6774,-0.42183c-0.16015,0.22843 0.39973,0.40888 0.50547,0.66705c0.23945,0.58459 0.31186,1.50718 0.46628,2.36369zM309.9876,175.5057c0.54175,-0.82354 1.17915,-1.59259 1.90317,-2.27972c-0.47118,-0.73011 -0.88479,-1.31384 -1.16916,-1.1876c-0.40069,0.17788 -0.60568,1.92553 -0.73401,3.46732zM316.26084,170.712c0.5876,-0.09668 1.18173,-0.16267 1.778,-0.19738c-0.2774,-0.50645 -0.54942,-0.90953 -0.79444,-0.95818c-0.26464,-0.05255 -0.63069,0.47042 -0.98356,1.15557zM325.01938,168.93588c-0.31538,0.57279 -1.50633,1.32346 -2.51083,1.9199c0.73746,0.16091 1.46054,0.37493 2.16025,0.64333c0.0269,-0.60361 0.0842,-1.1599 0.09441,-1.29756c0.02146,-0.28919 0.16176,-0.90221 0.25617,-1.26567zM327.27048,172.83163c0.33312,0.22049 0.65619,0.45698 0.96783,0.70965c0.01265,-0.35649 0.02112,-0.71367 0.10697,-1.05793c0.07496,-0.3006 0.70197,-0.63692 0.44799,-0.81432c-0.25398,-0.1774 -0.35341,0.52784 -0.61039,0.70089c-0.17115,0.11525 -0.51038,0.29033 -0.9124,0.46171zM330.02993,175.33937c0.09819,0.1223 0.1943,0.24699 0.28825,0.37411c0.31486,0.42598 0.65136,0.94022 0.96504,1.50533c0.39358,-0.8115 1.34106,-2.26819 1.0712,-2.47241c-0.63216,-0.47839 -1.49129,0.14863 -2.3245,0.59298zM332.03779,178.82898c0.18767,0.49499 0.33624,1.00087 0.42374,1.49913c0.10114,-0.2589 0.2013,-0.5269 0.30429,-0.80982c0.10908,-0.29962 0.69363,-0.59649 0.47614,-0.82967c-0.24201,-0.25947 -0.71835,0.37339 -1.04047,0.22462c-0.05485,-0.02534 -0.1096,-0.05349 -0.16371,-0.08426zM313.76144,173.55915c-0.02021,0.01539 -0.04036,0.03084 -0.06046,0.04637c0.08178,0.14757 0.10442,0.15957 0.06046,-0.04637z" fill="#000000" fill-rule="nonzero" stroke-width="0.5" stroke-linecap="butt" stroke-linejoin="miter"/></g></g></svg>