<svg version="1.1" xmlns="http://www.w3.org/2000/svg" xmlns:xlink="http://www.w3.org/1999/xlink" width="117.07057" height="325.79448" viewBox="0,0,117.07057,325.79448"><defs><linearGradient x1="318.31745" y1="179.31053" x2="319.86041" y2="205.09426" gradientUnits="userSpaceOnUse" id="color-1"><stop offset="0" stop-color="#44bb0a"/><stop offset="1" stop-color="#236a06"/></linearGradient><linearGradient x1="320.62612" y1="41.624" x2="320.87575" y2="190.07944" gradientUnits="userSpaceOnUse" id="color-2"><stop offset="0" stop-color="#435d00"/><stop offset="1" stop-color="#44d20d"/></linearGradient><linearGradient x1="310.4724" y1="227.19685" x2="314.11317" y2="288.03613" gradientUnits="userSpaceOnUse" id="color-3"><stop offset="0" stop-color="#d6d6d6"/><stop offset="1" stop-color="#4b4b4b"/></linearGradient><linearGradient x1="322.63515" y1="228.36392" x2="326.23918" y2="288.5894" gradientUnits="userSpaceOnUse" id="color-4"><stop offset="0" stop-color="#d6d6d6"/><stop offset="1" stop-color="#4b4b4b"/></linearGradient><linearGradient x1="332.23619" y1="224.73347" x2="336.10224" y2="289.33732" gradientUnits="userSpaceOnUse" id="color-5"><stop offset="0" stop-color="#d6d6d6"/><stop offset="1" stop-color="#4b4b4b"/></linearGradient></defs><g transform="translate(-263.6553,-26.56977)"><g stroke-miterlimit="10"><path d="M278.49057,352.36425l-11.05506,-146.8777c0,0 5.48869,-26.07264 15.86346,-27.09945c10.30299,-1.01969 34.7478,-3.04015 56.07896,-5.15134c23.13617,-2.28982 31.96661,24.10819 31.96661,24.10819l9.38133,152.54743z" fill="#000000" stroke="#000000" stroke-width="0" stroke-linecap="butt"/><path d="M338.58788,191.03553c0.42607,7.11998 -7.9585,13.41429 -18.72747,14.05873c-10.76897,0.64444 -19.84435,-4.60502 -20.27043,-11.725c-0.42607,-7.11998 7.95849,-13.41429 18.72747,-14.05873c10.76897,-0.64444 19.84435,4.60502 20.27043,11.725z" fill="url(#color-1)" stroke="#000000" stroke-width="2.5" stroke-linecap="butt"/><path d="M264.67883,136.55981l-1.02353,-76.24209l10.5854,4.62604l32.76166,-38.19044l22.16766,24.68257l22.99057,-18.82472l12.8939,32.95386l11.08056,-7.75835l-2.19245,76.99834l-16.06195,-39.55898l-78.68566,0.90628z" fill="#53ff10" stroke="#000000" stroke-width="0" stroke-linecap="round"/><path d="M266.65968,145.82101l-1.20525,-53.47748l107.68874,0.29693l-2.14156,53.00511z" fill="#53ff10" stroke="none" stroke-width="0" stroke-linecap="butt"/><path d="M264.67883,136.55981l-1.02353,-76.24209l10.5854,4.62604l32.76166,-38.19044l22.16766,24.68257l22.99057,-18.82472l12.8939,32.95386l11.08056,-7.75835l-2.19245,76.99834l-2.13542,-3.26004l-0.80559,14.10058l-104.34192,0.17544l-0.37075,-12.06592z" fill="#53ff10" stroke="#000000" stroke-width="0" stroke-linecap="round"/><path d="M320.0958,190.08076c-30.25259,0.05087 -55.66084,-28.43718 -55.70793,-56.44004c-0.00326,-1.93597 0.33581,-5.72669 0.33581,-5.72669l-0.88543,-67.77986l10.5854,4.62604l32.76166,-38.19044l22.16766,24.68257l22.99057,-18.82471l12.8939,32.95386l11.08056,-7.75835l-2.19244,76.99834l-0.18977,-0.28971c-0.45232,27.66055 -23.90287,55.69868 -53.83999,55.74902z" fill="url(#color-2)" stroke="#000000" stroke-width="0" stroke-linecap="butt"/><path d="M351.67937,85.70436l14.97889,37.11532c0,0 -6.64122,22.07481 -14.87934,22.08866c-8.23813,0.01386 -14.95354,-22.0385 -14.95354,-22.0385z" fill="#000000" stroke="#000000" stroke-width="2.5" stroke-linecap="butt"/><path d="M335.17065,119.86483l-14.64672,5.50536l-15.0459,-4.29609l17.74944,-4.63812l11.94319,3.42887z" fill-opacity="0.18431" fill="#000000" stroke="none" stroke-width="0" stroke-linecap="butt"/><path d="M304.88857,121.75591c0,0 -6.64194,21.64538 -14.88007,21.65923c-8.23813,0.01386 -14.95282,-21.60906 -14.95282,-21.60906l14.85471,-36.73603z" fill="#000000" stroke="#000000" stroke-width="2.5" stroke-linecap="butt"/><path d="M360.14377,123.12504c0,0 -3.59104,21.51634 -8.7372,22.33722c-5.14617,0.82088 -9.89872,-19.36446 -9.89872,-19.36446l8.71182,-37.4141l9.92409,34.44132z" fill="#ffffff" stroke="#000000" stroke-width="2.5" stroke-linecap="butt"/><path d="M299.50669,121.82929c0,0 -3.83763,20.57397 -9.33158,21.35984c-5.49394,0.78587 -10.56378,-18.51389 -10.56378,-18.51389l9.30624,-36.43669l10.58912,33.59073z" fill="#ffffff" stroke="#000000" stroke-width="2.5" stroke-linecap="butt"/><path d="M306.50536,234.20731l4.65191,-7.05143l1.45697,3.45028l2.63844,11.26949l1.56117,6.25889l-0.61515,14.80633l0.24566,9.70642l-1.24626,3.70585c0,0 -0.12958,8.13436 -2.94839,11.69815c-0.7407,0.93646 -1.40677,-4.61951 -1.40677,-4.61951l-1.11417,-8.94984l1.39847,-6.33098l-5.33384,-34.11104z" fill="url(#color-3)" stroke="#000000" stroke-width="2.5" stroke-linecap="round"/><path d="M320.53225,228.76608l5.01922,10.81726l1.79461,19.98525l1.29936,16.71103c0,0 -1.0646,6.18647 -1.86041,9.36338c-0.0684,0.27305 -0.95778,3.05854 -1.29161,2.98887c-0.11191,-0.02335 -0.1415,-2.36449 -0.15494,-2.58918c-0.17194,-2.87307 -1.43574,-8.88399 -1.43574,-8.88399l-4.39926,-48.60738z" fill="url(#color-4)" stroke="#000000" stroke-width="2.5" stroke-linecap="round"/><path d="M332.57375,225.30446l1.36821,2.92372l0.1307,1.94094l3.55847,9.6885l-0.98927,13.47949l2.64176,19.13646c0,0 0.21871,9.8534 -2.6416,14.35199c-0.18,0.2831 -0.55752,2.49105 -0.56001,2.49241c-0.20267,0.11057 -0.47944,-0.14923 -0.59956,-0.33383c-0.64809,-0.99604 -0.61267,-5.12459 -0.61267,-5.12459l-2.17907,-10.70988l-3.65549,-26.87872l-0.10986,-12.27282l3.01261,-9.24681z" fill="url(#color-5)" stroke="#000000" stroke-width="2.5" stroke-linecap="round"/><path d="M294.28976,124.2859c0,0 -1.98259,20.50508 -4.84379,21.28404c-2.8612,0.77897 -5.51754,-18.4631 -5.51754,-18.4631l4.81843,-36.3609z" fill="#000000" stroke="#000000" stroke-width="2.5" stroke-linecap="butt"/><path d="M358.01503,126.0732c0,0 -1.98118,21.34229 -4.84233,22.15289c-2.86114,0.81061 -5.5188,-19.21747 -5.5188,-19.21747l4.81696,-37.22974l5.54418,34.29431z" fill="#000000" stroke="#000000" stroke-width="2.5" stroke-linecap="butt"/><path d="M322.43585,142.238c21.75717,-0.01671 39.50567,30.05466 39.55977,44.74494c0.05413,14.69027 -17.53969,26.61262 -39.29686,26.62932c-21.75717,0.01671 -39.43872,-11.87857 -39.49282,-26.56885c-0.05413,-14.69027 17.47274,-44.78869 39.22991,-44.8054z" fill="#000000" stroke="#000000" stroke-width="2.5" stroke-linecap="butt"/><path d="M287.72812,182.90887c-1.21268,-0.30317 -0.90951,-1.51585 -0.90951,-1.51585l0.26322,-0.98713c0.77657,-1.79607 1.75027,-3.54136 2.96549,-5.07585c0,0 0.78086,-0.97609 1.75695,-0.19522c0.97609,0.78087 0.19522,1.75696 0.19522,1.75696c-1.08114,1.33472 -1.94947,2.91858 -2.61979,4.49891l-0.13573,0.60867c0,0 -0.30317,1.21267 -1.51585,0.9095z" fill="#ffffff" stroke="none" stroke-width="0.5" stroke-linecap="butt"/><path d="M295.51654,175.54978l-1.90503,-0.38069c0.77138,-2.68888 2.01745,-5.19471 2.35525,-7.99009c0,0 0.15504,-1.24035 1.39539,-1.0853c1.24035,0.15504 1.0853,1.39539 1.0853,1.39539c-0.33958,2.64121 -1.38533,5.01297 -2.17724,7.51985c0.00982,0.36541 -0.13929,0.66362 -0.13929,0.66362l-0.05929,-0.01185c-0.019,0.06495 -0.03777,0.13 -0.05631,0.19518z" fill="#ffffff" stroke="none" stroke-width="0.5" stroke-linecap="butt"/><path d="M299.91376,168.4449c0.0941,-0.0941 0.1882,-0.16817 0.28124,-0.2254c1.06679,-2.54918 2.18092,-5.62557 2.14528,-8.26602c0,0 0,-1.25 1.25,-1.25c1.25,0 1.25,1.25 1.25,1.25c-0.03363,3.32686 -1.38922,7.01148 -2.69424,10.06717l-2.23229,0.19201c0,0 -0.88388,-0.88388 0,-1.76777z" fill="#ffffff" stroke="none" stroke-width="0.5" stroke-linecap="butt"/><path d="M310.41182,161.271c-0.26791,-0.13395 -0.43952,-0.30001 -0.5456,-0.47508c-0.16983,0.84322 -0.33051,1.68539 -0.45058,2.52594l-1.60669,-0.50072l-0.86818,0.14717c0.01897,-0.13282 0.03913,-0.2658 0.06032,-0.39893l-0.07288,-0.02271c0,0 0,-0.36464 0.19695,-0.70004c0.46579,-2.54677 1.20936,-5.13835 1.19937,-7.67788c0,0 0,-1.25 1.25,-1.25c1.25,0 1.25,1.25 1.25,1.25c-0.00482,1.4403 -0.22179,2.88167 -0.49528,4.3214c1.0824,-2.72356 2.11051,-5.51975 2.38992,-8.43526c0,0 0.12438,-1.2438 1.36818,-1.11942c1.2438,0.12438 1.11942,1.36818 1.11942,1.36818c-0.35769,3.45164 -1.59344,6.70174 -2.87584,9.91463l-0.24204,0.49373c0,0 -0.55902,1.11803 -1.67705,0.55902z" fill="#ffffff" stroke="none" stroke-width="0.5" stroke-linecap="butt"/><path d="M321.3435,159.00927c-1.25,0 -1.25,-1.25 -1.25,-1.25v-0.59842c0.00183,-2.45124 0.16941,-4.89037 0.19595,-7.345c-0.29723,1.49393 -0.69907,2.97066 -1.13511,4.49681l-0.17565,0.89912c0,0 -0.24515,1.22573 -1.47087,0.98058c-1.22573,-0.24515 -0.98058,-1.47087 -0.98058,-1.47087l0.2233,-1.09563c0.82805,-2.89818 1.55015,-5.58879 1.5477,-8.63294c0,0 0,-1.25 1.25,-1.25c1.25,0 1.25,1.25 1.25,1.25c-0.00088,1.17747 -0.09796,2.30804 -0.26334,3.41811c0.17631,-0.257 0.48112,-0.47915 1.00808,-0.47915c1.25,0 1.25,1.25 1.25,1.25c0,2.66816 -0.20161,5.31825 -0.19947,7.97897v0.59842c0,0 0,1.25 -1.25,1.25z" fill="#ffffff" stroke="none" stroke-width="0.5" stroke-linecap="butt"/><path d="M326.88938,162.66732c-1.11803,0.55902 -1.67705,-0.55902 -1.67705,-0.55902l-0.46677,-0.96163c-0.80049,-2.44978 -0.73275,-5.07136 -1.05186,-7.62079c0,0 -0.15504,-1.24035 1.0853,-1.39539c1.24035,-0.15504 1.39539,1.0853 1.39539,1.0853c0.2948,2.36152 0.17226,4.88468 0.94288,7.14031l0.33113,0.63417c0,0 0.55902,1.11803 -0.55902,1.67705z" fill="#ffffff" stroke="none" stroke-width="0.5" stroke-linecap="butt"/><path d="M332.07571,165.85891c-1.11803,0.55902 -1.67705,-0.55902 -1.67705,-0.55902l-0.52126,-1.20187c-0.26886,-2.1762 -0.14517,-4.27051 -0.75945,-6.3943c0,0 -0.3434,-1.2019 0.8585,-1.54531c1.2019,-0.3434 1.54531,0.8585 1.54531,0.8585c0.64037,2.26545 0.54409,4.46264 0.83634,6.77101l0.27664,0.39392c0,0 0.55902,1.11803 -0.55902,1.67705z" fill="#ffffff" stroke="none" stroke-width="0.5" stroke-linecap="butt"/><path d="M338.03746,167.70474c0.17556,0.20995 0.69844,0.95999 -0.0516,1.71003c-0.88388,0.88388 -1.76777,0 -1.76777,0l-0.52827,-0.78019c-0.75375,-3.03201 -0.63574,-5.97558 -0.63574,-9.08004c0,0 0,-1.25 1.25,-1.25c1.25,0 1.25,1.25 1.25,1.25c0,2.78123 -0.13707,5.44226 0.48338,8.1502z" fill="#ffffff" stroke="none" stroke-width="0.5" stroke-linecap="butt"/><path d="M341.89539,172.55652c-1.23299,0.2055 -1.43849,-1.02749 -1.43849,-1.02749l-0.20683,-1.2473c-0.23947,-1.91742 -0.40207,-3.79755 -0.78328,-5.69465c0,0 -0.24515,-1.22573 0.98058,-1.47087c1.22573,-0.24515 1.47087,0.98058 1.47087,0.98058c0.38998,1.95852 0.565,3.89653 0.81252,5.87486l0.19212,1.14639c0,0 0.2055,1.23299 -1.02749,1.43849z" fill="#ffffff" stroke="none" stroke-width="0.5" stroke-linecap="butt"/><path d="M347.87962,175.14969c-1.23299,0.2055 -1.43849,-1.02749 -1.43849,-1.02749l-0.21648,-1.40234c0,-1.79527 0,-3.59054 0,-5.38581c0,0 0,-1.25 1.25,-1.25c1.25,0 1.25,1.25 1.25,1.25c0,1.79527 0,3.59054 0,5.38581l0.18247,0.99135c0,0 0.2055,1.23299 -1.02749,1.43849z" fill="#ffffff" stroke="none" stroke-width="0.5" stroke-linecap="butt"/><path d="M350.91014,178.94705c-1.24035,-0.15504 -1.0853,-1.39539 -1.0853,-1.39539l0.19224,-1.51842c-0.00282,-1.76938 -0.00242,-3.53875 -0.00242,-5.30814c0,0 0,-1.25 1.25,-1.25c1.25,0 1.25,1.25 1.25,1.25c0,1.82116 0.00021,3.64232 -0.00242,5.46348l-0.20671,1.67317c0,0 -0.15504,1.24035 -1.39539,1.0853z" fill="#ffffff" stroke="none" stroke-width="0.5" stroke-linecap="butt"/><path d="M300.05549,204.96738c0.20375,0.31657 0.44729,0.93309 -0.16923,1.54961c-0.88388,0.88388 -1.76777,0 -1.76777,0l-0.56559,-1.08336c0,-2.87652 0.29561,-5.48008 0.60607,-8.31649c0,0 0.13804,-1.24235 1.38039,-1.10432c1.24235,0.13804 1.10432,1.38039 1.10432,1.38039c-0.29311,2.60267 -0.55933,4.96573 -0.58819,7.57415z" fill="#ffffff" stroke="none" stroke-width="0.5" stroke-linecap="butt"/><path d="M304.98137,210.46435c0.20511,0.27727 0.57208,0.9576 -0.10825,1.63793c-0.88388,0.88388 -1.76777,0 -1.76777,0l-0.55795,-0.94532c-0.26202,-2.39385 -0.91506,-4.41242 -1.89465,-6.61197c0,0 -0.50767,-1.14226 0.63459,-1.64994c1.14226,-0.50767 1.64994,0.63459 1.64994,0.63459c1.02323,2.30672 1.71986,4.46249 2.04408,6.93471z" fill="#ffffff" stroke="none" stroke-width="0.5" stroke-linecap="butt"/><path d="M308.93669,216.72487c-1.11803,0.55902 -1.67705,-0.55902 -1.67705,-0.55902l-0.26729,-0.56268c-0.63035,-1.9191 -0.65365,-3.89932 -1.2129,-5.83664c0,0 -0.3434,-1.2019 0.8585,-1.54531c1.2019,-0.3434 1.54531,0.8585 1.54531,0.8585c0.53862,1.90237 0.54813,3.86816 1.1808,5.73287l0.13165,0.23522c0,0 0.55902,1.11803 -0.55902,1.67705z" fill="#ffffff" stroke="none" stroke-width="0.5" stroke-linecap="butt"/><path d="M315.6119,218.9979c0,1.25 -1.25,1.25 -1.25,1.25l-1.91593,-0.69098c-0.86766,-1.73531 -1.46202,-3.48092 -2.22512,-5.25295c0,0 -0.4924,-1.14893 0.65653,-1.64133c1.14893,-0.4924 1.64133,0.65653 1.64133,0.65653c0.74025,1.73475 1.31681,3.42669 2.16332,5.11972l-0.32014,-0.69098c0,0 1.25,0 1.25,1.25z" fill="#ffffff" stroke="none" stroke-width="0.5" stroke-linecap="butt"/><path d="M324.38877,219.19737c0,1.25 -1.25,1.25 -1.25,1.25l-0.74235,-0.0481c-2.77749,-0.89147 -3.06668,-2.4145 -4.0186,-4.95196c0,0 -0.4389,-1.17041 0.73151,-1.60932c1.17041,-0.4389 1.60932,0.73151 1.60932,0.73151c0.62326,1.66265 0.55271,3.01473 2.36458,3.42596l0.05555,-0.0481c0,0 1.25,0 1.25,1.25z" fill="#ffffff" stroke="none" stroke-width="0.5" stroke-linecap="butt"/><path d="M329.49925,218.44006c-1.23744,0.17678 -1.41421,-1.06066 -1.41421,-1.06066l-0.20098,-1.40718c-0.06696,-0.53556 -0.13392,-1.07111 -0.20088,-1.60667c0,0 -0.15504,-1.24035 1.0853,-1.39539c1.24035,-0.15504 1.39539,1.0853 1.39539,1.0853c0.06602,0.52831 0.13204,1.05661 0.19807,1.58492l0.19797,1.38546c0,0 0.17678,1.23744 -1.06066,1.41421z" fill="#ffffff" stroke="none" stroke-width="0.5" stroke-linecap="butt"/><path d="M334.66007,215.25838c0.06312,0.14885 0.10137,0.32926 0.10137,0.54793c0,1.25 -1.25,1.25 -1.25,1.25l-1.43691,-1.42678c0.23894,-1.66506 0.60872,-3.2738 0.79298,-4.94812c0,0 0.13804,-1.24235 1.38039,-1.10432c1.24235,0.13804 1.10432,1.38039 1.10432,1.38039c-0.16333,1.45702 -0.45945,2.86434 -0.69215,4.30089z" fill="#ffffff" stroke="none" stroke-width="0.5" stroke-linecap="butt"/><path d="M339.64199,207.42838c0,0 0,-1.25 1.25,-1.25c1.25,0 1.25,1.25 1.25,1.25c0,1.66229 0,3.32457 0,4.98686l-1.25,-0.29921l-1.25,0.29921c0,-0.19947 0,-0.39895 0,-0.59842c0,0 0,-1.25 1.25,-1.25c1.25,0 1.25,1.25 1.25,1.25l-1.25,0.29921l-1.25,-0.29921c0,-1.46281 0,-2.92562 0,-4.38844z" fill="#ffffff" stroke="none" stroke-width="0.5" stroke-linecap="butt"/><path d="M343.63148,206.03206c0,-0.69036 0.55964,-1.25 1.25,-1.25c0.69036,0 1.25,0.55964 1.25,1.25c0,0.69036 -0.55964,1.25 -1.25,1.25c-0.69036,0 -1.25,-0.55964 -1.25,-1.25z" fill="#ffffff" stroke="none" stroke-width="0.5" stroke-linecap="butt"/></g></g></svg>