<svg version="1.1" xmlns="http://www.w3.org/2000/svg" xmlns:xlink="http://www.w3.org/1999/xlink" width="189.11563" height="375.68984" viewBox="0,0,189.11563,375.68984"><g transform="translate(-227.22348,-23.36793)"><g data-paper-data="{&quot;isPaintingLayer&quot;:true}" fill-rule="nonzero" stroke-width="2" stroke-linejoin="miter" stroke-miterlimit="10" stroke-dasharray="" stroke-dashoffset="0" style="mix-blend-mode: normal"><path d="M290.72355,224.88651c5.60626,-1.77921 13.14624,-5.83795 18.74797,-8.86954c6.10783,-3.30547 14.47724,-4.13232 20.77748,-5.93063c3.70087,-1.05636 15.05732,-3.19468 15.05732,-3.19468l2.44611,7.41553l7.18738,23.94145l1.73321,29.51398c0,0 3.48415,37.03672 -0.45578,57.25498c-1.7229,8.84134 6.59422,16.5288 -1.93375,24.0672c-3.01985,2.66941 -10.33072,16.25808 -13.73814,17.23067c-4.94314,1.41095 -11.16235,-4.96401 -17.26307,-5.02049c-7.76793,-0.07193 -23.57149,9.08332 -23.57149,9.08332l-8.41541,-7.38095l0.95327,-27.68565c0,0 -0.91972,-40.55963 -0.65183,-66.97391c0.08804,-8.67958 -5.21255,-36.1553 -2.26076,-43.05383z" fill="#3c2c1f" stroke="#000000" stroke-linecap="round"/><path d="M324.20201,359.54501l-2.58683,-125.54946" fill="none" stroke="#000000" stroke-linecap="round"/><path d="M326.2319,368.36012c0.36927,14.16099 0.0479,26.36574 -10.59279,29.40297c-10.64069,3.03723 -27.94056,-18.40417 -27.94056,-18.40417c0,0 7.95737,-28.10293 18.59805,-31.14016c10.64069,-3.03723 19.56603,5.98035 19.9353,20.14137z" fill="#000000" stroke="#000000" stroke-linecap="butt"/><path d="M364.13839,353.25473c0.36928,14.16101 -2.24252,27.56728 -12.88321,30.60452c-10.64068,3.03723 -25.28087,-5.44471 -25.65015,-19.60572c-0.36928,-14.16101 7.95737,-28.10293 18.59805,-31.14016c10.64069,-3.03723 19.56604,5.98035 19.93531,20.14136z" fill="#000000" stroke="#000000" stroke-linecap="butt"/><path d="M311.12275,209.96631c-7.49232,4.12372 -27.76663,0.64147 -27.76663,0.64147l-54.87659,-51.40643l24.2728,-43.17442l21.03651,-2.72825l0.71527,6.79852l-12.99663,10.47055l-6.56122,38.92448c0,0 28.72125,17.75448 44.46582,14.2957c8.13887,-1.78797 15.94575,-6.40032 24.65985,-4.88263c25.83552,4.49963 3.27639,27.19715 -11.70584,31.25577z" fill="#feed00" stroke="#000000" stroke-linecap="round"/><g><path d="M350.19806,197.24894l13.75664,-12.65473l16.06556,23.09968l-2.58331,6.37988l-2.52013,-1.82868l0.70489,5.20394l-3.23394,8.79259l-5.41314,-4.79861l-7.76209,5.24213l-5.71989,-12.7902c0,0 -5.18592,3.70971 -8.94588,-2.9232c-3.45811,-6.10048 5.43082,-13.99667 5.43082,-13.99667z" fill="#feed00" stroke="#000000" stroke-linecap="round"/><path d="M370.34691,203.14273l-2.4257,4.00876l-4.47789,-3.31697l-3.98064,-2.6867l3.94754,-7.01171l6.89106,-3.63392l0.04564,12.64053z" fill="#ffa600" stroke="none" stroke-linecap="butt"/><path d="M351.21806,208.9988c0,0 -1.71786,3.53706 -3.50259,2.6413c-1.78471,-0.89578 -3.11015,-3.53066 -2.96045,-5.88518c0.1497,-2.35452 1.71786,-3.53706 3.50258,-2.6413c1.78471,0.89578 2.96046,5.88517 2.96046,5.88517z" fill="#ffa600" stroke="none" stroke-linecap="butt"/><path d="M364.11079,222.5673l-3.45859,2.60472l-2.92368,-5.80806l3.45859,-2.60473l2.92368,5.80806z" fill="#ffa600" stroke="none" stroke-linecap="butt"/><path d="M373.75795,220.31182l-2.88945,2.83172l-2.36176,-5.46737l2.88945,-2.83172z" fill="#ffa600" stroke="none" stroke-linecap="butt"/><path d="M379.06021,207.72223l-2.02672,3.03011l-1.52795,-4.81424l2.02672,-3.03011z" fill="#ffa600" stroke="none" stroke-linecap="butt"/></g><g><path d="M286.17185,207.12415c3.37034,-0.66156 10.04581,6.3596 7.61659,12.93784c-2.64125,7.15239 -7.09087,3.13592 -8.35747,4.3274c-0.24391,0.22943 3.09365,11.35997 0.46843,13.95023c-4.85172,4.78714 -8.50577,-3.92196 -8.50577,-3.92196l-4.56857,5.60863l-4.60935,-8.15609l-4.19459,-5.65462l1.85886,2.61622l-7.62937,-6.28498l16.72464,-24.90694c0,0 7.88595,6.6444 11.0232,9.79009z" fill="#feed00" stroke="#000000" stroke-linecap="round"/><path d="M269.66436,204.49393l7.38683,2.47522l0.43253,5.80255l-3.49534,3.29338l-3.88446,3.99559l-3.04033,-3.56518l2.60079,-12.00157z" fill="#ffa600" stroke="none" stroke-linecap="butt"/><path d="M288.85915,212.90506c1.61692,-1.17183 3.35524,-0.2576 3.88264,2.04198c0.52739,2.29958 -0.35585,5.11369 -1.97278,6.28551c-1.61692,1.17183 -3.35526,0.25762 -3.88265,-2.04196c-0.52739,-2.29958 0.35585,-5.11369 1.97279,-6.28552z" fill="#ffa600" stroke="none" stroke-linecap="butt"/><path d="M282.35023,228.86203c0,0 3.31296,-0.25593 3.83332,2.01297c0.52036,2.2689 -0.3522,5.0463 -1.94892,6.20347c-1.59672,1.15716 -3.83332,-2.01297 -3.83332,-2.01297z" fill="#ffa600" stroke="none" stroke-linecap="butt"/><path d="M267.91484,228.21329l7.3594,2.73388l-1.44931,5.77665l-3.30824,-2.32877z" fill="#ffa600" stroke="none" stroke-linecap="butt"/><path d="M259.9344,217.42242l2.48878,2.66367l-0.7317,4.99761l-2.48878,-2.66367z" fill="#ffa600" stroke="none" stroke-linecap="butt"/></g><path d="M290.7295,186.8552c-1.13956,6.46183 -8.59358,24.72384 -8.59358,24.72384l-25.14256,-3.94849l7.25729,-22.19154l14.06857,-56.1328c0,0 5.46239,-8.93843 6.96542,-13.80536l1.17513,-0.05054c13.20595,1.5539 25.37737,6.44918 39.0568,3.77402c5.47471,-1.07063 9.37634,-3.33562 13.08518,-7.49817c0.84798,-0.95171 3.33678,-3.27524 4.85914,-2.4366c3.42636,1.88753 8.04671,13.2845 8.04671,13.2845l18.88095,44.08709l6.01658,15.72623l-17.60309,17.68577l-5.32669,3.35314l-1.1609,-23.73944l-0.88425,24.9614l1.64321,13.97906c0,0 -10.05735,4.56493 -12.90949,5.11469c-11.53714,2.22379 -23.7286,0.95107 -35.2535,3.21178c-3.74597,0.73479 -9.03179,4.7341 -12.54427,3.19182c-1.87204,-0.822 -5.43199,-6.77839 -5.57331,-8.51977c-0.62214,-7.66638 -2.52279,-16.3739 -1.62979,-24.00961" fill="#fffe8a" stroke="#000000" stroke-linecap="round"/><path d="M291.78918,106.64914c13.81169,-3.59998 27.22001,-7.24329 41.63938,-7.28045c3.07508,-0.00792 13.83557,0.26271 13.40694,5.03619c-0.58257,6.48763 -6.58255,10.31907 -12.27723,12.18513c-10.26615,3.36407 -34.91968,6.19006 -44.78704,1.46679c-7.02258,-3.36153 -5.87786,-10.98563 2.14404,-11.63662z" fill="#fffe8a" stroke="#000000" stroke-linecap="round"/><path d="M303.44313,156.7046c1.2776,0.41201 4.6832,-0.12125 5.28731,1.37265c2.02616,5.01034 -1.59087,9.94476 -6.50605,9.30918c-3.27298,-0.42322 1.54692,-11.41797 1.54692,-11.41797c0,0 -1.59958,-23.69505 -0.0255,-35.36297" fill="#ffaf36" stroke="#000000" stroke-linecap="round"/><path d="M330.14266,155.14437c8.69193,-11.44331 9.77158,17.24157 -0.58899,9.99381c-5.6095,-3.92413 0.58359,-8.46893 0.8831,-11.01972c1.41373,-12.04022 -4.59432,-24.32775 -1.98547,-36.63046" fill="#ffaf36" stroke="#000000" stroke-linecap="round"/><path d="M294.03312,189.21076c3.3009,-3.11052 7.74088,-2.94473 11.88069,-3.94752c13.3523,-3.23438 28.52954,-3.56561 42.19371,-2.47307" fill="none" stroke="#000000" stroke-linecap="round"/><path d="M348.28478,214.58916c-0.82468,-8.86104 2.03898,-27.93764 2.03898,-27.93764" fill="none" stroke="#000000" stroke-linecap="round"/><path d="M294.87619,193.4111c0.6888,8.48781 -2.63188,18.0908 -2.14553,26.57686" fill="none" stroke="#000000" stroke-linecap="round"/><path d="M296.18545,116.14436c-2.68682,-0.70309 -4.66826,-3.12462 -7.18071,-4.36767" fill="none" stroke="#fcec41" stroke-linecap="round"/><path d="M338.25639,112.58264c1.64416,-1.06229 3.17932,-1.89942 5.00946,-2.60268" fill="none" stroke="#fcec41" stroke-linecap="round"/><path d="M309.85496,124.63667l-0.13074,9.58352" fill="none" stroke="#fcec41" stroke-linecap="round"/><path d="M315.69728,132.91073l-0.39708,-4.89301" fill="none" stroke="#fcec41" stroke-linecap="round"/><path d="M319.77783,131.17236l-1.00153,-3.67128" fill="none" stroke="#fcec41" stroke-linecap="round"/><path d="M273.68059,210.64836l14.41187,-39.43771l-8.71475,38.47317z" fill="#fce541" stroke="#fcec41" stroke-linecap="round"/><path d="M273.68059,210.64836l14.41187,-39.43771l-8.71475,38.47317z" fill="#fce541" stroke="#fcec41" stroke-linecap="round"/><path d="M356.13622,199.42499l-5.20642,-30.55158l15.0065,24.01812z" fill="#fce541" stroke="#fcec41" stroke-linecap="round"/><g stroke-linecap="butt"><path d="M381.7606,83.80025l-33.96893,-15.65599l-14.50679,-4.76097l2.2145,-0.21943l17.70739,-1.55545l44.46221,-1.64759l17.60325,0.56014l-0.13179,1.97044l-17.83442,12.92254l-15.31635,9.16533z" fill="#feed00" stroke="#000000"/><path d="M380.00838,78.89906l-24.31089,-9.20244l-10.17138,-2.66718l1.44905,-0.21355l11.60854,-1.57687l29.39566,-2.47816l11.77098,-0.1858l0.12816,1.29671l-10.44797,9.03744l-9.18448,6.49364z" fill="#ffa700" stroke="none"/></g><g stroke-linecap="butt"><path d="M380.47492,119.75104l13.28219,8.22423c0,0 10.52226,7.64289 15.49077,11.58226c0.96695,0.76664 2.04345,1.07042 0.13524,1.75686c-2.9778,1.07121 -15.14238,0.43658 -15.14238,0.43658l-38.28048,-1.62703l-15.25546,-1.44957l-1.90811,-0.20349c0,0 11.11585,-3.83038 12.43115,-4.19209c11.96842,-3.2913 29.05865,-13.83423 29.05865,-13.83423z" fill="#feed00" stroke="#000000"/><path d="M379.03184,124.35887l7.97576,5.82095l9.09124,8.0929l-0.09592,1.1554l-10.13166,-0.20755l-25.32409,-2.3137c0,0 -6.6635,-1.02536 -10.00727,-1.44693c-0.42008,-0.05296 -1.13316,0.03569 -1.24937,-0.19552c-0.27984,-0.55689 7.80915,-2.1471 8.72348,-2.3412c8.31992,-1.76615 20.81888,-8.11615 20.81888,-8.11615z" fill="#ffa700" stroke="none"/></g><path d="M384.22107,99.22758l-8.61637,30.09827c0,0 -13.78925,5.53231 -22.34983,7.14546c-2.6292,0.49544 -7.54426,2.48473 -7.54426,2.48473c0,0 -38.78052,-8.56621 -40.0787,-29.9225c-1.08729,-17.88685 19.42799,-48.14531 19.42799,-48.14531l32.09805,2.73269l11.70636,2.04881l15.06698,33.89846z" fill="#feed00" stroke="#000000" stroke-linecap="butt"/><path d="M341.52796,135.24063c-0.58572,4.2658 -11.32858,10.60186 -11.32858,10.60186l-3.22594,-7.73674l-2.52312,1.27714l-8.44436,0.6698c0,0 -2.83513,-11.1969 0.23341,-14.043" fill="#feed00" stroke="#000000" stroke-linecap="round"/><path d="M316.103,67.54777l1.0519,-14.00551l8.3477,1.43931l2.39575,1.50256l3.92002,-7.40929l10.31149,11.5935" fill="#feed00" stroke="#000000" stroke-linecap="round"/><path d="M364.72754,24.36794l-19.05335,35.75233" fill="none" stroke="#000000" stroke-linecap="round"/><path d="M344.42894,60.41512l5.86536,-31.88999" fill="none" stroke="#000000" stroke-linecap="round"/><path d="M342.18251,32.70157l1.93548,26.81949" fill="none" stroke="#000000" stroke-linecap="round"/><path d="M346.32625,135.48523l20.09429,29.47472" fill="none" stroke="#000000" stroke-linecap="round"/><path d="M345.31974,132.89465c8.35589,10.56711 5.34981,33.25553 5.34981,33.25553" fill="none" stroke="#000000" stroke-linecap="round"/><path d="M344.08681,136.47456l-3.00583,27.31934" fill="none" stroke="#000000" stroke-linecap="round"/><path d="M334.62151,93.56943c-0.1703,3.71611 -0.10863,7.63982 -0.73773,11.30798c-0.07985,0.46556 0.0842,1.27821 -0.38011,1.36516c-0.6082,0.11388 -4.07353,-6.7181 -3.9814,-7.48199c0.20717,-1.71776 3.70019,-4.16087 5.08009,-4.77354z" fill="#000000" stroke="#000000" stroke-linecap="round"/><path d="M353.21734,95.38667c-7.07071,-0.32401 -12.54397,-6.23178 -12.22487,-13.19536c0.3191,-6.96358 13.38045,-12.02199 13.38045,-12.02199c0,0 12.54397,6.23177 12.22487,13.19534c-0.3191,6.96358 -6.30973,12.34602 -13.38044,12.02201z" fill="#ffffff" stroke="#000000" stroke-linecap="butt"/><path d="M352.0341,130.43744c-7.07071,-0.32401 -12.54397,-6.23177 -12.22487,-13.19534c0.3191,-6.96358 6.30973,-12.346 13.38044,-12.02199c7.07071,0.32401 12.54397,6.23177 12.22487,13.19534c-0.3191,6.96358 -6.30973,12.346 -13.38044,12.02199z" fill="#ffffff" stroke="#000000" stroke-linecap="butt"/><path d="M379.11674,81.24398l5.75602,8.21714l1.6028,3.79857l2.43864,-4.63429l1.39795,13.83783l-0.19009,4.24704l3.78417,-5.64928l-1.54051,5.38833l-11.12524,10.75772" fill="#feed00" stroke="#000000" stroke-linecap="butt"/><path d="M362.99332,66.93509l5.10526,-3.96363l3.34023,-5.59327l3.11576,7.5384l2.83075,7.96471" fill="#feed00" stroke="#000000" stroke-linecap="butt"/></g></g></svg>