<svg version="1.1" xmlns="http://www.w3.org/2000/svg" xmlns:xlink="http://www.w3.org/1999/xlink" width="138.16537" height="260.8794" viewBox="0,0,138.16537,260.8794"><defs><linearGradient x1="307.30496" y1="180.65811" x2="318.6907" y2="337.74388" gradientUnits="userSpaceOnUse" id="color-1"><stop offset="0" stop-color="#009bff"/><stop offset="1" stop-color="#6dc9ff"/></linearGradient><linearGradient x1="128.09726" y1="119.61389" x2="128.17894" y2="120.74101" gradientUnits="userSpaceOnUse" id="color-2"><stop offset="0" stop-color="#878787"/><stop offset="1" stop-color="#848484"/></linearGradient><linearGradient x1="315.1579" y1="209.80265" x2="321.52808" y2="297.69017" gradientUnits="userSpaceOnUse" id="color-3"><stop offset="0" stop-color="#8ae8ff"/><stop offset="1" stop-color="#5ec3ff"/></linearGradient></defs><g transform="translate(-237.9724,-80.80062)"><g stroke-miterlimit="10"><g stroke-linecap="butt"><path d="M356.94782,118.40252c4.97167,1.97394 8.89699,8.46859 6.92304,13.9116c-1.97394,5.44302 -9.09963,7.77323 -14.0713,5.79928c-4.97167,-1.97396 -7.40181,-7.98657 -5.42786,-13.42959c1.97395,-5.44304 7.60447,-8.25527 12.57613,-6.28131z" fill="#ffeb00" stroke="#000000" stroke-width="2.5"/><path d="M358.21866,129.82823c-0.02268,0.02067 -0.04384,0.0417 -0.06313,0.06319c-0.11302,0.12589 0.02363,0.17342 0.24564,0.16147c-0.06017,-0.07194 -0.12134,-0.14699 -0.18249,-0.22467zM357.46319,127.1397c1.79712,-3.20529 5.45161,1.46086 4.15102,3.72642c-0.69131,1.20425 -2.88095,1.71296 -4.07607,1.08677c-0.78249,-0.40998 -1.59226,-1.03574 -1.87545,-1.87253c-0.08772,-0.25917 0.19245,-0.42338 0.48603,-0.58769c-0.46213,-0.06783 -0.88636,-0.31291 -1.32243,-0.48511c-1.49787,-0.59151 -3.00699,-0.80605 -4.48797,-1.34593c-0.10346,0.09321 -0.21837,0.18498 -0.34537,0.27492c-2.02997,1.43743 -4.23976,-0.83052 -3.80203,-2.77792c0.03589,-0.15962 0.11579,-0.28895 0.22523,-0.398c0.26134,-1.73488 1.87608,-1.73377 3.14088,-0.96991c0.02611,0.01274 0.05205,0.02672 0.07772,0.04209c0.08582,-0.01905 0.17497,-0.02931 0.26646,-0.02974c0.69035,-0.00323 1.25262,0.55377 1.25586,1.24412c0.00035,0.07823 -0.00645,0.1548 -0.01986,0.22909c1.72781,0.57948 4.52043,0.87256 6.32596,1.8634z" fill="#000000" stroke="none" stroke-width="0.5"/></g><path d="M259.38147,85.79777c11.65147,-0.55194 21.51669,7.86375 22.03461,18.79698c0.51792,10.93322 -8.50761,20.24378 -20.15908,20.79573c-11.65147,0.55194 -21.51668,-7.86376 -22.0346,-18.79698c-0.51791,-10.93322 8.5076,-20.24377 20.15907,-20.79571z" fill="#00cdff" stroke="#000000" stroke-width="2.5" stroke-linecap="butt"/><path d="M263.81901,91.65192c7.89183,-0.37384 14.60264,5.93515 14.98902,14.0915c0.38638,8.15635 -5.698,15.07145 -13.58984,15.4453c-7.89183,0.37384 -14.60264,-5.93515 -14.98902,-14.0915c-0.38638,-8.15635 5.698,-15.07145 13.58984,-15.4453z" fill="#8ae8ff" stroke-opacity="0.5098" stroke="#000000" stroke-width="2.5" stroke-linecap="butt"/><path d="M366.32232,100.84759c0.51792,10.93322 -8.50761,20.24377 -20.15906,20.79572c-11.65147,0.55194 -21.51668,-7.86375 -22.03461,-18.79697c-0.51792,-10.93322 8.50761,-20.24377 20.15907,-20.79572c11.65147,-0.55194 21.51668,7.86375 22.0346,18.79697z" fill="#00cdff" stroke="#000000" stroke-width="2.5" stroke-linecap="butt"/><path d="M355.41244,102.38955c0.38638,8.15637 -5.698,15.07146 -13.58984,15.4453c-7.89183,0.37384 -14.60264,-5.93514 -14.98901,-14.0915c-0.38638,-8.15637 5.698,-15.07146 13.58984,-15.4453c7.89183,-0.37384 14.60264,5.93514 14.98901,14.0915z" fill="#8ae8ff" stroke-opacity="0.5098" stroke="#000000" stroke-width="2.5" stroke-linecap="butt"/><path d="M322.81173,175.48565l20.14177,1.7984c0,0 15.45906,5.24575 16.06863,7.49443c0.8487,3.13082 0.72961,14.28053 0.72961,14.28053l0.58322,8.04644l-0.69939,5.90519l-5.93839,-0.26919l-1.80969,6.14127l-14.72541,-0.95397l-11.2115,4.75164l-17.34617,-2.11433l-15.69242,5.1474l-16.22008,-6.02121l-12.22647,2.41419l-7.57887,-7.34806l-2.87768,3.07235l0.74169,-9.21022l3.00204,-9.1338c0,0 0.16213,-8.77412 4.1831,-12.54583c3.79526,-3.56001 19.30475,-9.486 19.30475,-9.486l17.53681,-3.03275z" fill="#009bff" stroke="#000000" stroke-width="2.5" stroke-linecap="round"/><path d="M263.18463,340.37325c0,0 -2.78161,-8.27847 -2.79271,-17.93636c-0.02573,-22.41164 2.6407,-114.42185 2.6407,-114.42185c0,0 4.58227,-23.46839 13.8266,-24.27295c9.18038,-0.79899 30.96645,-2.33464 49.97335,-3.98886c20.61521,-1.7942 28.81291,22.13658 28.81291,22.13658c0,0 16.64369,101.12945 19.24229,120.78458c0.85841,6.49275 -1.83151,10.90573 -1.83151,10.90573z" fill="url(#color-1)" stroke="#000000" stroke-width="2.5" stroke-linecap="butt"/><path d="M247.07457,195.82545z" fill="url(#color-2)" stroke="#000000" stroke-width="2.5" stroke-linecap="butt"/><path d="M347.6736,252.35699c1.13984,15.72606 -0.15522,30.76209 -7.88152,38.91946c-4.19743,4.43161 -12.56163,6.1436 -18.264,6.41373c-6.96406,0.3299 -14.37536,-0.32964 -19.84626,-6.16575c-7.25473,-7.73902 -11.66662,-22.55285 -12.66945,-36.3886c-1.75908,-24.26947 9.94668,-44.56582 26.14553,-45.33318c16.19884,-0.76736 30.75662,18.28488 32.51571,42.55435z" fill="url(#color-3)" stroke-opacity="0.5098" stroke="#000000" stroke-width="2.5" stroke-linecap="butt"/><path d="M324.31263,191.16905c0.31661,4.87533 -5.50619,9.14395 -13.00558,9.53425c-7.4994,0.39029 -13.83552,-3.24555 -14.15213,-8.12087c-0.31661,-4.87533 5.5062,-9.14395 13.00559,-9.53425c7.4994,-0.39029 13.83552,3.24555 14.15212,8.12088z" fill="#00cdff" stroke="#000000" stroke-width="2.5" stroke-linecap="butt"/><path d="M354.8608,145.17268c-0.53401,25.80093 -22.9492,48.97607 -50.28479,48.41029c-27.33559,-0.56578 -49.24015,-24.65822 -48.70614,-50.45914c0.53401,-25.80092 23.1268,-46.25806 50.46239,-45.69228c27.33559,0.56578 49.06258,21.94021 48.52856,47.74112z" fill="#00cdff" stroke="#000000" stroke-width="2.5" stroke-linecap="butt"/><path d="M318.89101,144.59267c0.11584,2.44543 -5.79578,4.71232 -13.20398,5.06326c-7.40821,0.35094 -13.50765,-1.34698 -13.62349,-3.79241c-0.11584,-2.44543 5.79578,-4.71232 13.20398,-5.06326c7.40821,-0.35094 13.50765,1.34698 13.62349,3.79241z" fill-opacity="0.18431" fill="#000000" stroke="none" stroke-width="0" stroke-linecap="butt"/><path d="M296.16269,186.84431c0,0 0.6765,-2.046 2.88033,-2.1504c4.33847,-0.20552 21.42344,0.99911 21.42344,0.99911" fill="none" stroke="#000000" stroke-width="2.5" stroke-linecap="round"/><g stroke-linecap="butt"><path d="M254.64573,122.82186c5.13653,1.49332 7.85539,7.16953 6.07272,12.67818c-1.78266,5.50863 -7.39176,8.76365 -12.52829,7.27033c-5.13653,-1.49332 -9.33162,-7.70675 -7.54896,-13.21538c1.78266,-5.50863 8.86799,-8.22644 14.00453,-6.73309z" fill="#ffeb00" stroke="#000000" stroke-width="2.5"/><path d="M246.62923,131.06188c-0.09595,0.02379 -0.19031,0.04549 -0.28197,0.06535c0.16794,0.1457 0.30499,0.19206 0.29304,0.0233c-0.00204,-0.02881 -0.00584,-0.05841 -0.01105,-0.08864zM248.87589,129.40312c2.03357,0.32604 4.4181,1.8088 6.13782,2.41189c0.03502,-0.06688 0.07665,-0.1315 0.12494,-0.19303c0.42631,-0.54301 1.21208,-0.63762 1.75509,-0.21132c0.07197,0.0565 0.13606,0.11932 0.1921,0.18704c0.0297,0.00363 0.05876,0.00851 0.0872,0.01448c1.46737,0.17331 2.7428,1.16358 1.88423,2.6936c0.01946,0.15325 0.00317,0.3044 -0.06648,0.45244c-0.84976,1.80606 -3.98638,2.2401 -4.70663,-0.14069c-0.04506,-0.14896 -0.07945,-0.29192 -0.10391,-0.42903c-1.50056,-0.48284 -2.82361,-1.23979 -4.36918,-1.69222c-0.44995,-0.13172 -0.9353,-0.19864 -1.34177,-0.42875c0.13092,0.30992 0.25131,0.61152 0.02298,0.76228c-0.73721,0.48678 -1.76056,0.48373 -2.62997,0.3271c-1.32786,-0.23925 -2.74423,-1.98486 -2.5508,-3.3599c0.36388,-2.58687 6.11307,-4.02739 5.56436,-0.39388z" fill="#000000" stroke="none" stroke-width="0.5"/></g><path d="M285.34858,141.82265c0.11168,2.01672 -1.59217,3.75095 -3.80564,3.87351c-2.21348,0.12258 -4.09837,-1.41295 -4.21005,-3.42965c-0.11168,-2.01672 1.59217,-3.75095 3.80564,-3.87351c2.21348,-0.12258 4.09836,1.41295 4.21004,3.42966z" fill="#ffffff" stroke="#000000" stroke-width="2.5" stroke-linecap="butt"/><path d="M333.63563,139.21328c0.11168,2.01672 -1.59216,3.75095 -3.80564,3.87352c-2.21348,0.12258 -4.09836,-1.41295 -4.21004,-3.42965c-0.11168,-2.01672 1.59216,-3.75093 3.80564,-3.8735c2.21348,-0.12258 4.09837,1.41294 4.21004,3.42964z" fill="#ffffff" stroke="#000000" stroke-width="2.5" stroke-linecap="butt"/><path d="M277.77561,138.93925c0,0 3.22004,-2.59653 5.01967,-2.71186c1.85702,-0.11901 5.95569,2.00847 5.95569,2.00847" fill="none" stroke="#000000" stroke-width="2.5" stroke-linecap="round"/><path d="M326.36301,135.53789c0,0 3.22004,-2.59653 5.01967,-2.71186c1.85702,-0.11901 5.95569,2.00847 5.95569,2.00847" fill="none" stroke="#000000" stroke-width="2.5" stroke-linecap="round"/></g></g></svg>