<svg version="1.1" xmlns="http://www.w3.org/2000/svg" xmlns:xlink="http://www.w3.org/1999/xlink" width="175.24166" height="433.85098" viewBox="0,0,175.24166,433.85098"><defs><linearGradient x1="298.29291" y1="186.57426" x2="298.55457" y2="211.8514" gradientUnits="userSpaceOnUse" id="color-1"><stop offset="0" stop-color="#ffffff"/><stop offset="1" stop-color="#2c2c2c"/></linearGradient><linearGradient x1="320.09855" y1="190.78751" x2="320.3929" y2="219.22399" gradientUnits="userSpaceOnUse" id="color-2"><stop offset="0" stop-color="#ffffff"/><stop offset="1" stop-color="#2c2c2c"/></linearGradient><linearGradient x1="322.56752" y1="219.00053" x2="323.06735" y2="267.28745" gradientUnits="userSpaceOnUse" id="color-3"><stop offset="0" stop-color="#717171"/><stop offset="1" stop-color="#2c2c2c"/></linearGradient><linearGradient x1="340.22392" y1="184.69898" x2="340.48557" y2="209.97613" gradientUnits="userSpaceOnUse" id="color-4"><stop offset="0" stop-color="#ffffff"/><stop offset="1" stop-color="#2c2c2c"/></linearGradient><linearGradient x1="317.16028" y1="87.38825" x2="317.2326" y2="94.3756" gradientUnits="userSpaceOnUse" id="color-5"><stop offset="0" stop-color="#a2a2a2"/><stop offset="1" stop-color="#7f7f7f"/></linearGradient></defs><g transform="translate(-230.9848,-37.84403)"><g stroke-miterlimit="10"><g fill="#000000" stroke="none" stroke-width="0.5" stroke-linecap="butt"><path d="M265.51858,119.59949c0.56959,-0.94789 1.14809,-1.8882 1.75253,-2.80675c1.01099,-1.53581 1.86207,-3.15652 2.72611,-4.77621c-1.32841,0.57291 -2.21277,1.71619 -2.30811,3.69236c-0.90744,0.76721 -1.97603,2.51051 -2.17053,3.89058zM342.93974,211.571c-0.05819,-0.24773 -0.07705,-0.5232 -0.07713,-0.80119c-0.17609,-1.303 -0.57194,-2.57394 -0.81302,-3.84882c0.01027,0.99033 0.02058,1.98066 0.03109,2.97106c0.03721,3.50744 0.52629,7.10561 0.56231,10.58603c0.02971,2.87029 0.67478,6.75771 0.05778,9.49004l0.03954,0.00987l0.00381,0.49954c0,0.00003 0,0.00006 0,0.00008c0.00105,0.13767 -0.11188,0.22105 -0.25257,0.1863c-0.02141,-0.00529 -0.04224,-0.013 -0.06216,-0.02279c0.73891,3.02224 1.04233,6.22202 1.59458,9.18443c0.67116,3.6003 0.92901,7.14983 1.82428,10.75455c0.42088,1.69468 1.0127,3.50319 1.24156,5.18566c0.06795,0.49947 0.05416,1.04781 0.05279,1.53455c-0.0005,0.1789 0.02398,0.69665 0.10079,0.55385c0.23234,-0.43192 0.25826,-1.01816 0.34433,-1.58305l-0.07815,-0.02511l0.03345,-0.48682c0.00748,-0.12804 0.11702,-0.20369 0.25217,-0.17031c0.10367,0.0256 0.1935,0.10819 0.23434,0.20504l0.22155,0.49997c1.06636,2.41246 1.01867,4.82456 1.86074,7.22084c1.24453,3.5603 1.32763,7.23642 1.8663,10.79941c0.15003,0.99236 1.53702,5.86477 0.71648,6.32225c-0.00646,0.0036 -0.01291,0.0071 -0.01932,0.01051c0.25021,0.76141 0.4732,1.52829 0.64217,2.32001c1.14148,3.57746 2.38393,7.24228 3.15569,10.82526c0.36491,1.74749 1.7826,3.75328 2.37382,5.47459c0.49215,1.43291 0.07451,3.70826 0.05236,5.10108c-0.20666,2.42301 -1.56477,4.86934 -2.67015,6.8346c-0.37771,0.67152 -0.37091,1.59552 -0.93818,2.06016c-2.01837,2.46382 -3.82551,4.59081 -6.36575,6.50544c-2.29817,1.98635 -4.53094,4.22132 -6.54263,6.50325c-1.99308,2.25145 -5.05191,3.87773 -7.44057,5.6167c-2.17582,1.44351 -5.43925,3.75309 -8.6776,3.14427c-3.51178,-0.74457 -6.86787,-0.40804 -10.52634,-1.31169c-3.51786,-0.86943 -6.99378,-2.17814 -10.61631,-3.06202c-3.57281,-0.87176 -7.0798,-1.30183 -10.67742,-2.19809c-3.2244,-0.80331 -7.74189,-3.19349 -9.67046,-6.25807c-2.21009,-3.69163 -6.54684,-3.25905 -9.5196,-2.9684c-0.7904,0.07701 -2.9168,0.76159 -3.6573,-0.23937c-0.49117,-0.66393 -1.04134,-4.66197 -0.94552,-6.03855c-2.73502,0.94211 -3.41319,3.21395 -5.19297,4.96513l0.02484,0.01918l-0.23578,0.37594c-0.04155,0.07004 -0.12668,0.10394 -0.2255,0.07953c-0.14092,-0.03481 -0.25631,-0.17493 -0.25774,-0.31299c-0.00001,-0.0008 -0.00001,-0.0016 -0.00001,-0.00239l-0.00099,-0.49858l0.00063,0.00016l-0.00063,-0.00253c0.03373,-1.9017 0.06647,-4.66822 0.6969,-6.30371c0.70418,-1.79596 1.24823,-3.8286 1.43824,-5.8767c0.11066,-1.1928 -0.28553,-2.66153 0.04985,-3.76197c-2.33887,0.62297 -4.32472,3.32097 -6.53284,4.69355l0.02282,0.02433l-0.3244,0.29934c-0.04623,0.04339 -0.11631,0.06097 -0.19506,0.04152c-0.14092,-0.03481 -0.25631,-0.17493 -0.25774,-0.31299c-0.00001,-0.00073 -0.00002,-0.00146 -0.00001,-0.00219l-0.00135,-0.4987c0.00682,-2.46649 1.01017,-5.74311 1.88351,-7.84497c0.77297,-1.86031 1.16695,-4.27382 1.11751,-6.47837c-0.00456,-0.20313 -0.01367,-2.2062 -0.13692,-2.25494c-0.27962,-0.11058 -0.39123,0.3101 -0.63808,0.38078c-2.78346,0.78531 -4.67466,3.00706 -7.28602,4.05667l0.00416,0.41034c0,0 0,0 0,0.00001c0.0014,0.13803 -0.11166,0.22172 -0.25257,0.18692c-0.14091,-0.03481 -0.25629,-0.17493 -0.25774,-0.31297v0l-0.00522,-0.49999l0.00015,0.00004v-0.00007l0.00004,0.00001l-0.00004,-0.00005c-0.01149,-1.1696 -0.01244,-2.33396 0.00902,-3.49496c0.05789,-3.13143 1.10447,-7.00831 2.04537,-9.77941c0.70382,-2.07285 1.03056,-4.19535 1.30031,-6.46336c0.08414,-0.70742 -0.14902,-1.70508 -0.01267,-2.40321c-0.90982,0.75025 -2.46516,1.40408 -3.12114,2.34618c-0.35012,0.50282 -0.46156,1.09705 -0.72537,1.63249l0.088,0.05444l-0.17514,0.41718c-0.03414,0.08821 -0.12783,0.13426 -0.23876,0.10686c-0.14092,-0.03481 -0.25631,-0.17493 -0.25774,-0.31299c-0.00002,-0.00183 -0.00002,-0.00364 0,-0.00545l0.0044,-0.49676c0.00791,-0.87399 0.10837,-1.64122 0.31631,-2.43836c0.83641,-3.20628 1.46926,-6.42709 2.53478,-9.52595c0.7604,-2.21149 0.9384,-4.63511 1.53494,-6.90615c0.23165,-0.88189 0.83397,-1.60275 0.81508,-2.58678c-0.00725,-0.65094 0.31821,-3.79353 -0.19141,-4.29953c-0.06947,-0.06898 -0.97127,0.42317 -1.03393,0.45163c-1.00715,0.45748 -1.62934,1.36184 -2.43675,2.03564c-0.29184,0.71748 -0.60521,1.42398 -0.87079,2.15442c-0.05582,0.15354 -0.42266,1.45553 -0.49355,1.46173c-1.81132,0.15821 -0.12736,-3.34916 0.39619,-3.6359c0.14469,-0.07821 0.34886,-0.25979 0.59421,-0.4974c0.23567,-0.61842 0.45409,-1.24614 0.60873,-1.90208c0.75826,-3.21635 2.32105,-5.90229 2.96387,-9.25365c0.81302,-2.10203 1.40705,-4.42901 1.61369,-6.82561c0.04195,-0.48661 -0.11038,-1.13333 -0.07103,-1.65279c-0.76333,0.81519 -2.22399,1.35272 -3.1208,2.01794c-0.85442,1.17832 -1.94447,2.23899 -2.72332,3.4655c-0.55488,0.8738 -0.74987,2.3155 -1.34043,3.24689c-0.05598,0.17518 -0.11252,0.34773 -0.16948,0.51708l-0.14611,0.43433c-0.02962,0.09672 -0.12699,0.14877 -0.24332,0.12004c-0.14067,-0.03474 -0.25591,-0.17445 -0.25772,-0.31227c0,-0.00003 0,-0.00006 0,-0.00009l-0.00663,-0.50024l0.11678,0.02851c-0.02766,-0.98348 0.3479,-1.97726 0.90265,-2.92942c0.17715,-0.68359 0.33803,-1.36915 0.4749,-2.02898c0.68125,-3.25574 1.90577,-6.24771 2.81858,-9.38956c0.59404,-2.03932 1.20321,-4.22595 1.61972,-6.34892c0.10156,-0.51768 0.02868,-1.25975 0.08541,-1.86903c-0.87175,1.37866 -2.27751,2.32224 -3.11195,3.71931c-0.56088,0.93906 -0.92706,2.19898 -1.6559,2.9288c0.00011,0.01083 0.00022,0.02165 0.00032,0.03247l0.00471,0.49983c0,0.00001 0,0.00002 0,0.00003c0.00131,0.13793 -0.11172,0.22153 -0.25257,0.18674c-0.14091,-0.03481 -0.25628,-0.17491 -0.25774,-0.31295l-0.00526,-0.49999l0.00054,0.00014l-0.00001,-0.00026c-0.01428,-1.51318 -0.07648,-3.03624 0.12729,-4.48173c0.46782,-3.31869 0.67457,-6.75302 1.08069,-10.10899c-0.02093,-1.82621 -0.01266,-3.64741 -0.07065,-5.4824c-0.00825,-0.26131 0.13612,-1.59892 0.00934,-1.77939c-0.25626,-0.36476 -0.40932,0.56608 -0.64853,0.81676c-0.1283,0.13446 -0.24718,0.21994 -0.37398,0.28676l-0.35354,0.26851c-0.04583,0.03488 -0.11009,0.04768 -0.1815,0.03004c-0.14092,-0.03481 -0.25631,-0.17493 -0.25774,-0.31299v0l-0.00518,-0.49998v0v-0.00001c-0.03678,-3.59314 0.54957,-6.7351 1.16776,-10.10688c0.38912,-2.09455 0.03832,-4.69017 0.01494,-6.92545c-0.00511,-0.48816 -0.13375,-1.28971 -0.08697,-1.91445c-0.39343,0.38777 -0.78469,0.86713 -1.14413,1.36876c-0.12637,0.57133 -0.2463,1.14262 -0.36242,1.71035c-0.13057,0.63598 -0.48666,3.29648 -1.46751,1.83284c-0.61634,-0.91973 0.34898,-2.64013 1.37177,-3.95843c0.58377,-2.60738 1.30734,-5.20964 2.40878,-7.47195c1.38116,-2.83682 1.84271,-6.17482 3.24717,-9.06433c0.73534,-3.19366 2.00904,-6.19185 2.39694,-9.51709c0.1956,-1.67668 -0.30328,-1.68792 -0.94542,-1.07216c-0.06207,0.17612 -0.1232,0.35195 -0.18314,0.5275c-0.73807,1.33692 -1.17963,2.72717 -1.68552,4.20795l-0.06357,0.45906c-0.01444,0.1194 -0.1208,0.18829 -0.2509,0.15617c-0.13526,-0.0334 -0.24701,-0.16386 -0.25702,-0.29639l-0.043,-0.50579l0.07729,0.01344c-0.31893,-1.78159 0.6619,-2.96242 1.6478,-4.15517c0.03242,-0.06067 0.06543,-0.1212 0.09905,-0.18161c1.01029,-2.98979 2.37657,-6.03242 2.9571,-9.18554c0.59499,-3.2316 1.32537,-6.29494 1.70058,-9.60809c-2.74159,0.67706 -4.72598,2.85388 -7.23519,3.79847l0.02002,0.02799l-0.38637,0.2241c-0.04413,0.0261 -0.10159,0.03425 -0.16463,0.01868c-0.14092,-0.03481 -0.25631,-0.17493 -0.25774,-0.31299c-0.00011,-0.00979 0.00037,-0.0193 0.0014,-0.02852l0.04662,-0.48117l0.00477,0.00166l-0.00223,-0.01997c0.08383,-0.30724 0.16789,-0.61435 0.25221,-0.92134c0.8717,-3.12332 2.10387,-6.05464 3.51857,-8.94279c1.39941,-2.85692 3.04033,-5.54985 4.6081,-8.28822c0.98315,-1.53374 1.90476,-3.11813 2.84178,-4.68917c-0.22282,-0.08519 -0.21385,-0.31114 -0.21385,-0.31114l0.00263,-0.06644c0.05834,-1.40229 1.19938,-3.61955 2.23678,-4.36986c-0.03913,-2.18731 1.34622,-3.61444 3.20691,-4.17797c0.26739,-0.49533 0.53865,-0.98924 0.81874,-1.47927c0,0 0.11179,-0.19541 0.34116,-0.02725c0.22937,0.16816 0.11758,0.36357 0.11758,0.36357c-0.18416,0.32164 -0.36448,0.64499 -0.54237,0.96935c0.93746,-0.16253 1.95533,-0.12585 2.95083,0.12125c0.34207,-0.51547 1.31599,-0.50767 1.88871,-0.92852c1.97726,-1.45295 3.85225,-2.42206 5.81555,-3.85092c2.45295,-1.68281 5.09481,-3.81343 8.07616,-4.63658c2.48488,-1.85613 5.40194,-3.13526 7.91815,-4.93976c0.91377,-0.60384 2.44481,-1.81193 3.59671,-1.98165c1.86468,-0.27474 3.98095,0.43202 5.88562,0.12658c2.3782,0.28181 5.00837,0.10534 7.28567,0.05528c0.94695,-0.02081 2.12151,0.91321 2.75896,0.17066c3.5892,-0.11219 6.35148,-0.94539 9.65773,-1.79157c2.00705,-0.50958 3.51625,-1.5905 5.30558,-2.40215c0.46581,-0.21129 1.19932,-0.42744 1.73323,0.1846c0.51663,0.59223 0.782,1.92906 1.00258,2.64494c0.81123,3.62667 1.63505,7.1881 2.3795,10.81766c0.28189,1.3744 0.39085,2.68886 0.43643,3.99711c0.01477,0.03227 0.02414,0.0663 0.02672,0.10048l0.04313,0.50581c0.01665,0.20212 0.03677,0.4053 0.05989,0.60942c0.03132,0.17211 0.05363,0.35612 0.06872,0.54817c0.36127,2.64143 1.15227,5.41937 1.41234,8.06545c0.35274,3.58907 0.38764,7.06225 0.42386,10.5857c0.02936,2.85728 0.69792,6.81769 -0.03315,9.49176l0.03913,0.01513l-0.06662,0.47359c-0.01465,0.11914 -0.12092,0.18782 -0.25086,0.15573c-0.08674,-0.02143 -0.16382,-0.08276 -0.21058,-0.15896l-0.29914,-0.47677l0.01994,-0.00912l-0.05497,-0.06521c-0.04269,-0.74931 -0.19946,-1.44798 -0.3828,-2.12693c-0.00457,0.75485 -0.08606,1.50747 0.01263,2.25915c0.26816,2.04226 0.9658,4.11341 1.20937,6.17038c0.42386,3.57956 0.7695,7.14668 1.19673,10.72705c0.00628,0.62165 0.39962,5.03823 -0.79397,4.2651c-0.1344,-0.08706 -0.15871,-1.0514 -0.17813,-1.23248c-0.03895,-0.36311 -0.17239,-0.78599 -0.33305,-1.22955c0.0902,0.91993 0.17371,1.83955 0.38682,2.79291c0.80787,3.61399 1.51966,7.217 2.17195,10.82248c0.64561,3.56858 0.37646,7.08257 0.77542,10.64092c0.17024,1.52687 0.08675,3.04179 0.09215,4.53548c0.00065,0.18017 0.03243,1.1527 -0.11848,1.18052c-0.44196,0.08149 -0.90385,-1.2341 -1.20607,-2.52745c0.13501,2.34248 0.46201,4.70252 0.49069,7.03301c0.04078,3.48965 0.97365,7.18738 1.01148,10.6816c0.02886,2.78778 0.66678,6.62043 0.09383,9.31949c0.00128,0.06046 0.00252,0.11991 0.00377,0.17829l-0.00121,0.0009l0.00123,0.0003v0.00034l0.0007,0.00017l0.00517,0.49998v0c0.00143,0.13806 -0.11165,0.22177 -0.25257,0.18696c-0.1408,-0.03478 -0.25612,-0.17471 -0.25774,-0.31265c0,-0.00001 0,-0.00003 0,-0.00004l-0.00586,-0.4992c-0.00195,-0.09099 -0.00543,-0.18177 -0.01031,-0.27236zM255.90954,161.84349c0.14854,-0.43692 0.299,-0.86663 0.46095,-1.28965c-0.21063,0.39516 -0.36645,0.74978 -0.42692,0.98747c-0.02505,0.09848 -0.03403,0.1998 -0.03403,0.30219zM250.47733,187.13537c-0.10125,0.174 -0.19539,0.3435 -0.28105,0.50541c-0.21118,0.39914 -0.28526,0.77101 -0.27565,1.25944c0.00378,0.19213 0.0993,0.78406 0.07789,0.58852c-0.0849,-0.7755 0.28428,-1.40029 0.43298,-2.13017c0.0152,-0.07435 0.03048,-0.14874 0.04582,-0.22319zM253.76137,252.38476c-0.59316,0.35556 -0.83406,0.73568 -0.92632,1.56673c-0.03566,0.32119 0.04782,1.32998 0.10857,1.01875c0.17506,-0.89697 0.48782,-1.74252 0.81776,-2.58548zM342.10456,229.42754c-0.10348,-0.48349 -0.29476,-1.02708 -0.50324,-1.58446c0.12636,0.39159 0.25565,0.77961 0.37423,1.15844c0.04428,0.14144 0.08725,0.28346 0.12901,0.42601z"/><path d="M372.61591,123.62882c-0.13624,-1.97377 -1.04406,-3.0985 -2.38405,-3.64379c0.89738,1.60146 1.78184,3.20421 2.82439,4.71876c0.62333,0.90583 1.22117,1.83396 1.81026,2.76986c-0.22302,-1.37575 -1.32749,-3.09658 -2.2506,-3.84483zM299.36111,221.30058l0.00448,0.49922c0,0.00001 0,0.00003 0,0.00004c0.00124,0.13796 -0.11115,0.28026 -0.25121,0.31792c-0.14017,0.03772 -0.25495,-0.04364 -0.25638,-0.1817v0l-0.00519,-0.49998l0.00069,-0.00019v-0.00034l0.00122,-0.00032l-0.00122,-0.00088c0.00005,-0.0584 0.00006,-0.11787 0.00008,-0.17833c-0.6287,-2.68662 -0.07025,-6.53168 -0.0991,-9.31943c-0.0345,-3.49425 0.82162,-7.2105 0.79015,-10.70025c-0.01957,-2.33061 0.2585,-4.6969 0.345,-7.04167c-0.27538,1.29934 -0.70994,2.6242 -1.1535,2.55188c-0.15145,-0.02469 -0.13981,-0.99767 -0.14289,-1.17781c-0.02552,-1.49347 -0.14034,-3.00634 -0.00175,-4.53641c0.32522,-3.56587 -0.01661,-7.0735 0.55498,-10.6547c0.57751,-3.61821 1.21456,-7.23519 1.94746,-10.86512c0.19334,-0.95756 0.25779,-1.8787 0.32893,-2.80032c-0.15146,0.44679 -0.2761,0.87233 -0.30754,1.23618c-0.01567,0.18145 -0.02002,1.14608 -0.15259,1.2359c-1.17735,0.79766 -0.87551,-3.62611 -0.88209,-4.24774c0.35303,-3.58845 0.62474,-7.16196 0.97442,-10.74953c0.20094,-2.06158 0.85556,-4.14672 1.08139,-6.19409c0.08312,-0.75356 -0.01393,-1.50433 -0.03414,-2.25893c-0.16925,0.68259 -0.31151,1.38437 -0.33869,2.1344l-0.05362,0.06634l0.02012,0.0087l-0.28922,0.48286c-0.04518,0.07715 -0.12096,0.14006 -0.20725,0.16328c-0.12925,0.03477 -0.23691,-0.03168 -0.25402,-0.1505l-0.07642,-0.47211l0.0388,-0.01592c-0.78628,-2.65836 -0.19984,-6.63176 -0.22963,-9.48904c-0.03672,-3.52345 -0.07372,-6.99659 0.20465,-10.59221c0.20523,-2.6509 0.93858,-5.44462 1.24508,-8.09296c0.01111,-0.19231 0.0296,-0.37676 0.05736,-0.54948c0.01889,-0.20456 0.0348,-0.40811 0.04725,-0.61053l0.03266,-0.50659c0.00187,-0.03422 0.01052,-0.06844 0.02464,-0.10101c0.01849,-1.30891 0.10023,-2.62535 0.3536,-4.00529c0.66915,-3.64419 1.41908,-7.22192 2.15505,-10.8646c0.20571,-0.72028 0.44334,-2.06231 0.94761,-2.66511c0.52113,-0.62297 1.25896,-0.42204 1.72904,-0.22044c1.80574,0.77444 3.33698,1.82389 5.35417,2.2918c3.32306,0.77758 6.10201,1.5534 9.69275,1.59127c0.65269,0.7292 1.80765,-0.22893 2.75483,-0.22772c2.27784,0.00291 4.9111,0.1249 7.28296,-0.20609c1.91058,0.26594 4.01178,-0.48447 5.88173,-0.24839c1.15516,0.14585 2.71088,1.32197 3.63696,1.90677c2.55304,1.75203 5.49595,2.9705 8.01871,4.77481c2.99775,0.76125 5.68316,2.83673 8.17041,4.4684c1.99245,1.38791 3.88712,2.31801 5.89402,3.72971c0.58132,0.4089 1.55485,0.38096 1.90753,0.88923c0.99018,-0.26765 2.00707,-0.3254 2.94768,-0.18232c-0.18456,-0.32062 -0.37154,-0.64017 -0.56231,-0.95791c0,0 -0.11581,-0.19305 0.11003,-0.36593c0.22584,-0.17287 0.34166,0.02018 0.34166,0.02018c0.29018,0.48413 0.57161,0.97232 0.84919,1.46201c1.87195,0.5249 3.28656,1.92304 3.2927,4.11069c1.05271,0.72867 2.23941,2.92183 2.32675,4.3226l0.00401,0.06636c0,0 0.01365,0.22573 -0.20737,0.31551c0.96934,1.55131 1.92355,3.11627 2.93824,4.62934c1.62411,2.70534 3.32043,5.36373 4.77868,8.19106c1.47419,2.85824 2.76677,5.76342 3.70294,8.86804c0.09066,0.30519 0.18105,0.6105 0.27122,0.91593l-0.00183,0.02001l0.00474,-0.00175l0.05657,0.4801c0.00121,0.0092 0.00189,0.01869 0.00198,0.02847c0.00143,0.13806 -0.11104,0.28057 -0.25121,0.31827c-0.06269,0.01686 -0.1203,0.00991 -0.16497,-0.01529l-0.39093,-0.21605l0.01944,-0.0284c-2.52823,-0.89244 -4.55725,-3.02773 -7.31226,-3.64789c0.44371,3.30467 1.23735,6.35223 1.8991,9.57082c0.64569,3.14044 2.07465,6.15412 3.14661,9.12237c0.03485,0.05969 0.06912,0.11954 0.10279,0.17952c1.01038,1.17208 2.01544,2.33236 1.73346,4.12017l0.07699,-0.01504l-0.03252,0.50658c-0.00727,0.1327 -0.11629,0.26544 -0.25083,0.30164c-0.1294,0.03483 -0.23717,-0.03185 -0.25409,-0.15094l-0.07306,-0.45764c-0.53642,-1.46999 -1.00668,-2.8508 -1.77225,-4.17215c-0.06357,-0.17427 -0.12831,-0.3488 -0.19402,-0.5236c-0.65475,-0.60233 -1.15329,-0.58076 -0.92302,1.0915c0.45666,3.3165 1.79214,6.28768 2.59344,9.46544c1.46396,2.85982 1.99451,6.18754 3.43411,8.99516c1.14805,2.23904 1.92531,4.82576 2.56294,7.42049c1.04987,1.29684 2.05059,2.9969 1.45342,3.92919c-0.95033,1.48364 -1.36143,-1.16892 -1.50512,-1.80206c-0.12785,-0.5652 -0.25959,-1.1339 -0.39776,-1.70249c-0.36974,-0.49408 -0.77086,-0.96524 -1.17221,-1.34479c0.05969,0.62363 -0.05232,1.42766 -0.04732,1.91584c0.0229,2.23529 -0.2741,4.83761 0.1583,6.92367c0.68785,3.35827 1.33912,6.48741 1.37672,10.08055l-0.00001,0.00001h0.00001l0.00518,0.49998v0c0.00143,0.13806 -0.11104,0.28056 -0.25121,0.31826c-0.07103,0.0191 -0.13554,0.00764 -0.18208,-0.02629l-0.35903,-0.26114c-0.12816,-0.06419 -0.24878,-0.14718 -0.37984,-0.27896c-0.24436,-0.24568 -0.41663,-1.17315 -0.6653,-0.80317c-0.12303,0.18305 0.04902,1.51739 0.04618,1.77881c-0.02,1.83578 0.02597,3.65643 0.04285,5.48268c0.4755,3.34685 0.7533,6.77617 1.28972,10.08446c0.23364,1.44096 0.20298,2.96498 0.22003,4.47813l0.00001,0.00027l0.00054,-0.00014l0.0051,0.5c0.00141,0.13805 -0.11105,0.28053 -0.25121,0.31823c-0.14009,0.0377 -0.25483,-0.04356 -0.25638,-0.18147c0,-0.00001 0,-0.00002 0,-0.00003l-0.00563,-0.49981c-0.00012,-0.01083 -0.00025,-0.02165 -0.00036,-0.03247c-0.7438,-0.71458 -1.13597,-1.96665 -1.71617,-2.89391c-0.86319,-1.3795 -2.28817,-2.29378 -3.18827,-3.65409c0.06934,0.60799 0.01184,1.3514 0.12409,1.86686c0.46036,2.11388 1.11467,4.28745 1.7508,6.31403c0.97765,3.12228 2.26383,6.08828 3.01235,9.3292c0.15051,0.65686 0.32553,1.33895 0.5168,2.01872c0.57434,0.94049 0.97039,1.92626 0.96309,2.9101l0.11616,-0.03093l0.00371,0.50027c0,0.00003 0,0.00006 0,0.00009c0.00104,0.13785 -0.11129,0.2799 -0.25122,0.31755c-0.11573,0.03113 -0.21413,-0.01889 -0.24576,-0.11499l-0.15507,-0.43122c-0.06046,-0.16814 -0.12056,-0.33947 -0.18016,-0.51346c-0.6097,-0.91895 -0.83451,-2.35631 -1.40734,-3.21844c-0.80408,-1.21013 -1.91584,-2.248 -2.79446,-3.40839c-0.91039,-0.6465 -2.38185,-1.1537 -3.16191,-1.95291c0.05009,0.51853 -0.08882,1.16829 -0.03681,1.65391c0.2562,2.39181 0.89825,4.706 1.75464,6.79075c0.71206,3.33734 2.33012,5.99035 3.1548,9.19032c0.16818,0.6526 0.39955,1.27569 0.64798,1.88908c0.25023,0.23248 0.4581,0.4098 0.60438,0.48499c0.52937,0.27585 2.28558,3.74759 0.47136,3.62691c-0.07101,-0.00472 -0.46472,-1.29884 -0.52371,-1.45119c-0.28065,-0.7248 -0.60857,-1.42465 -0.91521,-2.13594c-0.82118,-0.65695 -1.46196,-1.54823 -2.47837,-1.98477c-0.06323,-0.02715 -0.97503,-0.50053 -1.04305,-0.43013c-0.49903,0.51645 -0.10861,3.65162 -0.10237,4.30257c0.00149,0.98419 0.6186,1.69245 0.86846,2.56935c0.64341,2.2582 0.87156,4.67761 1.67757,6.87289c1.12943,3.07614 1.82884,6.28316 2.73142,9.47143c0.22439,0.79266 0.34072,1.55766 0.36671,2.4313l0.01468,0.49656c0.00006,0.0018 0.0001,0.00362 0.00012,0.00545c0.00143,0.13806 -0.11104,0.28056 -0.25121,0.31826c-0.11035,0.02969 -0.20497,-0.01442 -0.24093,-0.1019l-0.18374,-0.41348l0.08686,-0.05625c-0.27484,-0.52987 -0.39856,-1.12166 -0.75901,-1.61712c-0.67534,-0.92831 -2.24389,-1.5498 -3.16905,-2.28107c0.15078,0.69516 -0.06168,1.69742 0.03708,2.40296c0.31664,2.26194 0.68725,4.37722 1.43382,6.43505c0.99806,2.75103 2.12466,6.60542 2.24736,9.73497c0.04549,1.16032 0.06865,2.32445 0.08137,3.49403l-0.00004,0.00005l0.00004,-0.00001v0.00008l0.00015,-0.00004l0.00513,0.49999v0c0.00142,0.13805 -0.11104,0.28055 -0.25121,0.31824c-0.14015,0.03771 -0.25491,-0.04362 -0.25638,-0.18165v0l-0.00434,-0.41034c-2.63253,-0.99531 -4.56932,-3.17744 -7.36843,-3.90497c-0.24827,-0.06554 -0.36855,-0.48383 -0.64583,-0.36749c-0.12222,0.05129 -0.08987,2.05411 -0.09022,2.25729c-0.00378,2.2051 0.44006,4.60993 1.25137,6.45384c0.91666,2.08332 1.98763,5.33847 2.0455,7.8043l0.00897,0.49861c0.00002,0.00072 0.00003,0.00146 0.00003,0.00219c0.00143,0.13806 -0.11104,0.28056 -0.25121,0.31826c-0.07834,0.02107 -0.14875,0.00496 -0.19588,-0.03747l-0.33052,-0.29256l0.02231,-0.02479c-2.23606,-1.32657 -4.27732,-3.98289 -6.62858,-4.55731c0.3581,1.09329 -0.00761,2.56988 0.12771,3.76014c0.23236,2.04372 0.81837,4.06467 1.55958,5.84566c0.66414,1.62208 0.75415,4.38734 0.82724,6.28793l-0.00057,0.00255l0.00063,-0.00018l0.00933,0.49849c0.00002,0.00079 0.00002,0.00159 0.00003,0.00239c0.00143,0.13806 -0.11104,0.28056 -0.25121,0.31826c-0.0983,0.02645 -0.18412,-0.00567 -0.22711,-0.07484l-0.2435,-0.37097l0.02442,-0.0197c-1.81564,-1.71397 -2.54069,-3.97128 -5.29462,-4.85657c0.12429,1.37429 -0.34301,5.38287 -0.82032,6.05682c-0.71963,1.01608 -2.85973,0.37567 -3.65156,0.31503c-2.97814,-0.22906 -7.32291,-0.57176 -9.4561,3.16482c-1.86472,3.10385 -6.33177,5.58704 -9.53884,6.45692c-3.57829,0.97054 -7.07564,1.47313 -10.62964,2.41864c-3.60346,0.95868 -7.05154,2.33907 -10.55066,3.28112c-3.63898,0.97917 -7.0013,0.71221 -10.49693,1.5293c-3.22505,0.67573 -6.53559,-1.56581 -8.74083,-2.96397c-2.42415,-1.68914 -5.51598,-3.25175 -7.55525,-5.46147c-2.05849,-2.2398 -4.33705,-4.42807 -6.67584,-6.36642c-2.57932,-1.86163 -4.43012,-3.95077 -6.49906,-6.37229c-0.57677,-0.4528 -0.58909,-1.37673 -0.98062,-2.0403c-1.14584,-1.94193 -2.55428,-4.35964 -2.81105,-6.77786c-0.05097,-1.39207 -0.51563,-3.65827 -0.05324,-5.10106c0.55545,-1.73319 1.93133,-3.76789 2.25997,-5.52256c0.69743,-3.59818 1.86375,-7.28795 2.93092,-10.88827c0.15254,-0.79505 0.3596,-1.56637 0.594,-2.3328c-0.00649,-0.00326 -0.013,-0.00664 -0.01953,-0.01011c-0.82982,-0.44039 0.45601,-5.34048 0.58546,-6.33573c0.46481,-3.57337 0.47179,-7.25043 1.64235,-10.83573c0.79229,-2.4132 0.69467,-4.82381 1.71087,-7.25781l0.21115,-0.50445c0.03882,-0.09766 0.12694,-0.18211 0.23004,-0.20984c0.13444,-0.03617 0.24552,0.03718 0.25564,0.16505l0.04351,0.48603l-0.07762,0.02672c0.09774,0.56298 0.13578,1.14856 0.37702,1.57557c0.07975,0.14118 0.09351,-0.37698 0.08931,-0.55582c-0.01143,-0.4866 -0.03657,-1.03453 0.02102,-1.5353c0.19398,-1.68686 0.74824,-3.50722 1.13395,-5.21025c0.82046,-3.62249 1.00477,-7.17659 1.60126,-10.79001c0.49081,-2.97322 0.72792,-6.17859 1.40412,-9.21548c-0.01971,0.01018 -0.04037,0.01834 -0.06167,0.02407c-0.13994,0.03765 -0.25457,-0.04337 -0.25637,-0.18103c0,-0.00003 0,-0.00005 0,-0.00008l-0.00653,-0.49952l0.03934,-0.01069c-0.67343,-2.71897 -0.10897,-6.61891 -0.13867,-9.4892c-0.03603,-3.48042 0.37846,-7.08795 0.34305,-10.5954c-0.01,-0.99039 -0.02019,-1.98074 -0.03043,-2.97107c-0.21464,1.27961 -0.58409,2.55846 -0.73317,3.86482c0.00568,0.27792 -0.00747,0.55371 -0.06052,0.80261c-0.003,0.09067 -0.0046,0.18152 -0.00467,0.27251zM385.30769,169.20825c-0.06538,-0.23638 -0.22852,-0.5877 -0.44727,-0.97843c0.17068,0.41958 0.33,0.84609 0.48755,1.27984c-0.00211,-0.10236 -0.01319,-0.20347 -0.04027,-0.30142zM391.353,194.90588c0.16378,0.72666 0.54583,1.34365 0.47698,2.12075c-0.01736,0.19594 0.06589,-0.39783 0.06569,-0.59c-0.00051,-0.48854 -0.08226,-0.85878 -0.30166,-1.25346c-0.089,-0.16009 -0.18661,-0.32761 -0.29146,-0.49949c0.01688,0.07413 0.0337,0.14819 0.05043,0.2222zM390.241,262.55508c0.06717,0.3099 0.12976,-0.70041 0.08745,-1.02078c-0.10945,-0.82897 -0.35817,-1.20401 -0.95856,-1.54723c0.34731,0.83597 0.6775,1.67484 0.87109,2.56801zM300.69056,238.4349c0.11072,-0.3812 0.23194,-0.7718 0.35016,-1.16592c-0.19689,0.56159 -0.37688,1.109 -0.47033,1.59453c0.0388,-0.1434 0.07883,-0.28628 0.12017,-0.4286z"/></g><path d="M264.27511,465.80599c0,0 4.66676,-49.14759 3.9257,-83.65276c-0.90799,-42.27795 -8.97531,-151.46654 -8.97531,-151.46654c0,0 -4.88298,-15.71536 -0.60236,-27.23775c3.32747,-8.95676 15.09081,-14.31148 20.35742,-14.64899c11.95854,-0.76637 40.31026,-1.94867 65.06903,-3.5354c13.3935,-0.85835 28.99442,-1.80647 34.55776,8.65828c5.59109,10.51694 1.11117,32.44917 1.11117,32.44917c0,0 -2.23521,102.4096 -1.74412,144.94205c0.44315,38.38029 4.5616,99.07801 4.5616,99.07801z" fill="#000000" stroke="#000000" stroke-width="2.5" stroke-linecap="butt"/><path d="M289.87471,186.7106c0.93789,0.76849 2.2434,0.59541 3.34115,1.01102c0.88378,0.3346 1.41963,1.38876 2.28122,1.91331c2.65456,1.61622 5.89904,2.04856 8.76629,2.64523c0.75945,0.15803 5.22032,0.24811 5.50991,1.12497c0.13658,0.41359 -2.69203,5.34389 -3.05268,5.92706c-3.46229,5.59837 -7.48895,10.49231 -13.21995,11.74561c-1.00836,0.22051 -5.51029,1.63969 -6.16061,0.31659c-0.46939,-0.95497 -0.04381,-4.2326 -0.05589,-5.39959c-0.04177,-4.03525 -0.16596,-8.59336 0.79219,-12.45895c0.55556,-2.24132 1.34417,-4.42734 1.31889,-6.86949z" fill="url(#color-1)" stroke="#000000" stroke-width="2.5" stroke-linecap="round"/><path d="M309.9901,194.5548c1.4375,-0.03554 2.0379,-1.1008 3.30386,-1.40126c4.64273,-1.10194 10.80621,-3.68847 15.29271,-1.65739c0.67347,0.30489 1.87751,1.07246 2.02751,2.08211c0.47524,3.19858 -2.97357,16.10317 -4.36726,19.26281c-0.81993,1.85888 -1.06442,4.2523 -2.55174,5.58256c-2.39566,2.14263 -5.1538,-0.64718 -7.00094,-1.82128c-1.03616,-0.65861 -2.09888,-0.94802 -2.78363,-2.25499c-1.72208,-3.28695 -4.57359,-16.84861 -4.28008,-20.86883z" fill="url(#color-2)" stroke="#000000" stroke-width="2.5" stroke-linecap="round"/><path d="M320.94932,219.05992c9.34097,3.12665 5.43695,10.26669 6.84834,19.7676c0.72403,4.87382 2.81006,9.34057 2.56867,14.54726c-0.24178,5.21495 -1.12373,12.77589 -6.25512,13.68086c-1.42369,0.25108 -5.10748,0.61062 -6.18236,-0.62065c-1.08145,-1.23879 -1.39312,-4.7771 -1.721,-6.59175c-1.6198,-8.96483 -0.38804,-16.50785 0.76424,-25.59937c0.51981,-4.10125 -0.39962,-12.91981 3.22342,-15.21879z" fill="url(#color-3)" stroke="#000000" stroke-width="2.5" stroke-linecap="round"/><path d="M349.12164,184.60687c0.02528,2.44216 0.85899,4.61138 1.46081,6.84072c1.03797,3.84492 1.00816,8.40461 1.04993,12.43988c0.01208,1.167 0.50541,4.4351 0.05589,5.39959c-0.6228,1.33628 -5.15313,0.01061 -6.16584,-0.18898c-5.75573,-1.1344 -9.88284,-5.94391 -13.46026,-11.46944c-0.37264,-0.57558 -3.30272,-5.44625 -3.17473,-5.86259c0.27137,-0.88266 4.72943,-1.06507 5.48544,-1.23879c2.8543,-0.65589 6.08911,-1.1553 8.70966,-2.82612c0.85053,-0.54229 1.36444,-1.6073 2.24111,-1.96013c1.08891,-0.43825 2.39774,-0.29223 3.31951,-1.07996z" fill="url(#color-4)" stroke="#000000" stroke-width="2.5" stroke-linecap="round"/><path d="M372.38313,145.4624c-1.59005,28.76558 -26.60686,53.68885 -55.98017,51.91756c-29.3733,-1.77128 -51.98004,-29.56638 -50.39,-58.33193c0.39875,-7.21371 5.6601,-10.32981 6.18003,-13.46023c1.48929,-8.96684 0.59456,-5.84205 19.9849,-4.22484c0.83396,0.06955 5.65758,-8.29424 6.56506,-8.23953c7.76424,0.4682 5.69435,-1.3295 15.78313,-1.30593c5.96293,0.01393 8.91606,3.20978 15.85096,4.24464c6.55536,0.97824 17.13191,-0.23962 21.57994,1.02321c5.05612,1.43547 8.34034,2.08122 11.6871,5.61393c2.13226,2.25073 2.03483,6.58766 3.52251,9.76838c2.18297,4.66718 5.46608,8.48041 5.21655,12.99474z" fill="#000000" stroke="#000000" stroke-width="2.5" stroke-linecap="butt"/><path d="M404.96344,111.63656c0.11984,11.57702 -38.44965,21.36231 -86.14734,21.85604c-47.6977,0.49373 -86.46146,-8.49106 -86.5813,-20.06809c-0.11984,-11.57702 38.44964,-21.36233 86.14734,-21.85606c47.6977,-0.49373 86.46147,8.49106 86.58131,20.06811z" fill="#000000" stroke="#000000" stroke-width="2.5" stroke-linecap="butt"/><path d="M272.90248,113.00355c0,0 -13.51019,-39.51648 -0.59534,-57.51401c12.91486,-17.99752 30.5306,-16.24909 45.8185,-16.40734c15.0409,-0.1557 34.58545,0.86361 45.18004,15.46541c10.59456,14.6018 0.59534,57.51401 0.59534,57.51401z" fill="#000000" stroke="#000000" stroke-width="2.5" stroke-linecap="butt"/><path d="M267.73726,94.88794l-0.07232,-6.98735c0,0 35.09556,2.59877 51.84549,2.42539c16.23061,-0.168 47.14519,-3.45005 47.14519,-3.45005l0.07232,6.98735c0,0 -31.06522,3.28361 -47.52578,3.45399c-16.53598,0.17117 -51.46491,-2.42933 -51.46491,-2.42933z" fill="url(#color-5)" stroke="#000000" stroke-width="2.5" stroke-linecap="butt"/><path d="M299.81288,148.05068c0.01879,-0.08382 0.15708,-0.12439 0.15708,-0.12439l0.15258,-0.03516c0.25465,-0.15158 0.51131,-0.29762 0.76688,-0.44066c-0.32279,0.09515 -0.64777,0.17802 -0.97461,0.2496c-0.57057,0.29998 -1.19452,0.54698 -1.86922,0.73201c0.60081,-0.0857 1.1901,-0.2109 1.76731,-0.38142zM280.91583,144.49471c0.70367,1.36927 1.9682,2.6891 3.64967,3.48207c1.5731,0.43941 3.13665,0.69568 4.72852,0.82292c-2.64016,-0.46723 -4.78431,-1.35944 -6.14467,-2.74883c-0.3574,-0.17611 -0.69807,-0.36344 -1.01868,-0.56338c-0.50404,-0.31597 -0.90454,-0.64829 -1.21484,-0.99275zM302.61129,145.73166c0.03687,-0.07614 0.0713,-0.15377 0.10321,-0.23291c0.32181,-0.51858 0.51403,-1.06152 0.60154,-1.61564c-0.14113,0.633 -0.45436,1.25949 -0.96222,1.86582c-0.21089,0.25167 -0.43957,0.49178 -0.68553,0.71883c0.19021,-0.07105 0.37089,-0.14929 0.54045,-0.23562c0.13989,-0.16507 0.27374,-0.33254 0.40257,-0.50048zM293.05454,135.38331c-0.03136,-0.00557 -0.06261,-0.01111 -0.09376,-0.01662c-0.40284,-0.07166 -0.81583,-0.12603 -1.23551,-0.16428c-0.5527,0.06539 -1.09933,0.15515 -1.63414,0.26825c-0.11119,0.02337 -0.22109,0.04725 -0.32978,0.07165c0.21869,0.00757 0.43598,0.01778 0.65201,0.03055c0.87104,-0.09895 1.7528,-0.16322 2.64116,-0.18956zM290.00484,135.13279c-2.51989,0.0176 -5.11142,0.53202 -7.0925,1.31285c-2.9987,1.29636 -3.58237,2.87431 -3.09156,4.85511c0.02717,-0.1368 0.06074,-0.27227 0.10074,-0.40626c-0.05416,-0.36321 -0.05386,-0.71909 0.00927,-1.06018c0.45814,-2.43171 3.12935,-3.94387 7.03403,-4.2437c0.47482,-0.03233 0.94057,-0.0521 1.39887,-0.06012c0.48937,-0.13725 1.00212,-0.26312 1.54241,-0.37724c0.03288,-0.00691 0.0658,-0.01374 0.09876,-0.02048zM285.11391,146.26236c0.4138,0.17596 0.83635,0.33722 1.26132,0.48231c0.27565,0.09422 0.55395,0.18841 0.83477,0.28193c0.09566,0.02445 0.19184,0.04782 0.28855,0.07011c-0.14017,-0.08414 -0.27756,-0.1702 -0.4122,-0.25811c-0.53986,-0.24695 -1.04798,-0.49763 -1.51278,-0.73542c-0.58618,-0.34572 -1.06249,-0.72598 -1.42887,-1.12807c-0.58688,-0.45489 -1.06308,-0.98097 -1.39223,-1.6025c-0.1123,-0.35271 -0.17789,-0.69523 -0.20031,-1.02869c-0.4319,-0.78209 -0.56471,-1.59464 -0.19941,-2.35003c-0.89897,1.41901 -0.73667,3.03456 0.26252,4.51189c0.49959,0.48238 1.05629,0.9185 1.6385,1.27899c0.27978,0.17465 0.56658,0.3335 0.86016,0.47761zM284.95241,137.93083c-0.46794,0.17529 -0.8722,0.37721 -1.18736,0.60922c-0.09781,0.07087 -0.19186,0.1428 -0.28217,0.21571c0.42107,-0.3077 0.89972,-0.56604 1.42164,-0.78376c0.01591,-0.01373 0.03187,-0.02745 0.0479,-0.04116zM284.54052,146.65355c1.48559,1.04614 3.56548,1.69002 6.04502,1.99492c0.37061,0.04591 0.74763,0.08385 1.12958,0.11421c-0.66704,-0.15305 -1.29526,-0.34019 -1.88662,-0.55714c-0.38389,-0.10595 -0.76433,-0.21664 -1.14111,-0.33074c-1.43827,-0.33775 -2.85981,-0.72866 -4.14688,-1.22125zM301.47137,148.17989c0.0645,-0.01202 0.12875,-0.02418 0.19275,-0.03645c1.15823,-0.33409 1.81376,-0.9723 2.15268,-1.73235c-0.33832,0.34127 -0.72104,0.68722 -1.15068,1.04576c-0.38397,0.27488 -0.78241,0.51511 -1.19476,0.72303zM287.12623,135.91796c-0.03021,0.00196 -0.06044,0.00396 -0.09072,0.00602c-3.5033,0.26787 -5.93521,1.55972 -6.49657,3.68029c0.7881,-1.16301 2.15744,-2.15206 4.11805,-2.84769c0.37247,-0.11195 0.74933,-0.21799 1.13013,-0.31782c0.42838,-0.18512 0.87324,-0.35885 1.33912,-0.52078zM292.3027,147.46353c0.54598,-0.02122 1.10141,-0.05847 1.66532,-0.10856c1.92375,-0.16944 4.59072,-0.11984 6.65112,-0.58224c0.46746,-0.352 0.88246,-0.74821 1.24349,-1.17902c1.25565,-1.49749 1.24998,-3.1234 0.37429,-4.65136c-1.95388,-1.27737 -5.3857,-2.62283 -7.69958,-2.91871c-1.02122,-0.17912 -2.37712,-0.2406 -3.78295,-0.18163c-1.50028,0.39964 -2.92091,0.89314 -4.14019,1.55623c-0.91222,1.32637 -0.8214,2.8391 -0.02489,4.30909c0.69861,1.29183 1.9584,2.4233 3.58203,3.31913c0.16225,0.06623 0.32565,0.13139 0.49012,0.19538c0.54416,0.08715 1.09174,0.16935 1.64123,0.24168zM295.81713,135.94003c-0.15284,-0.01698 -0.30568,-0.03203 -0.45835,-0.0451c-0.97196,-0.08414 -1.93705,-0.13276 -2.87422,-0.12029c0.56407,0.07614 1.12343,0.16849 1.68166,0.27523c0.92642,-0.02023 1.85307,0.03327 2.72995,0.16235c-0.35706,-0.09727 -0.71825,-0.18773 -1.07904,-0.27217zM286.963,138.31408c-0.96175,0.21694 -1.79882,0.50602 -2.38337,0.86845c-0.15458,0.06094 -0.29394,0.12688 -0.41909,0.19733c-0.44494,0.55306 -0.76633,1.12627 -0.93461,1.73c0.02736,0.24379 0.09449,0.49484 0.1893,0.74736c0.25091,-0.65847 0.75579,-1.2966 1.51486,-1.86998c0.38011,-0.28643 0.79021,-0.54845 1.22522,-0.78929c0.21801,-0.30509 0.48624,-0.60056 0.8077,-0.88386zM305.06967,143.60221c0.20297,-0.61931 0.29661,-1.28651 0.29418,-2.0433c0.00152,-2.31877 -2.47478,-4.14634 -5.52598,-5.34519c-0.06294,-0.02797 -0.12629,-0.05539 -0.19005,-0.08228c-0.75043,-0.15632 -1.54251,-0.25428 -2.36017,-0.31646c2.7521,0.50864 5.32392,1.59367 6.77269,3.09237c1.37857,1.30107 1.4757,2.87971 0.95693,4.36392c0.02101,0.11023 0.0385,0.22056 0.05238,0.33094zM286.07989,136.72867c-1.60616,0.70137 -2.96937,1.56871 -4.38727,2.57481c-0.48914,0.74251 -0.88517,1.52181 -1.04336,2.29666c0.15687,0.46088 0.39314,0.92669 0.69056,1.38043c-0.4205,-1.65262 0.17638,-3.33374 2.00197,-4.65813c0.58,-0.41534 1.4068,-0.74124 2.36317,-0.99462c0.02121,-0.01602 0.04252,-0.03202 0.06389,-0.04802c0.41842,-0.3131 0.86866,-0.57849 1.34569,-0.80182c-0.34789,0.07823 -0.69288,0.16186 -1.03466,0.25066zM300.16814,137.44541c-0.61264,-0.22002 -1.28811,-0.42475 -2.02402,-0.62505c-0.03908,-0.0107 -0.07837,-0.02119 -0.11788,-0.03148c-0.27899,-0.02611 -0.5671,-0.03978 -0.8641,-0.04117c0.18046,0.04857 0.36145,0.09828 0.54309,0.14905c0.57308,0.16067 1.11732,0.35479 1.62962,0.57706c0.81834,0.31046 1.59186,0.69556 2.37305,1.15315c-0.37943,-0.44812 -0.91019,-0.83896 -1.53976,-1.18158zM301.70622,140.15916c-0.14822,-0.18922 -0.30943,-0.37621 -0.48281,-0.56052c-1.8551,-1.63774 -4.05106,-2.43059 -6.99255,-2.53294c-0.67353,0.13081 -1.34935,0.26852 -2.0175,0.41937c0.89753,0.01661 1.73884,0.08728 2.45346,0.2131c2.09551,0.28572 4.97954,1.32888 7.03942,2.46102zM292.38812,137.08516c-0.99089,0.05009 -2.02531,0.1119 -3.03904,0.2237c-0.27938,0.11773 -0.54257,0.24639 -0.78624,0.38585c0.67938,-0.09035 1.37814,-0.15225 2.06828,-0.18525c0.58341,-0.15388 1.17818,-0.2943 1.77796,-0.42535c-0.00699,0.00035 -0.01398,0.00069 -0.02096,0.00105zM284.80614,144.17343c0.45879,0.36429 0.95152,0.68976 1.43469,0.9576c0.54403,0.3022 1.1166,0.60361 1.71296,0.89691c-0.80787,-0.66923 -1.45113,-1.41469 -1.88745,-2.21842c-0.70847,-1.3075 -0.87647,-2.64878 -0.3328,-3.87701c-0.12759,0.08657 -0.2521,0.17564 -0.37337,0.26731c-0.97547,0.73553 -1.50115,1.585 -1.57467,2.4403c0.30967,0.55473 0.69428,1.08707 1.02066,1.53331zM302.89385,139.00745c0.28907,0.42018 0.53199,0.84804 0.72571,1.28069c0.26879,0.35852 0.50818,0.72948 0.71226,1.10867c-0.1881,-1.15654 -0.75223,-2.01202 -1.66384,-2.6952c0.07817,0.09867 0.15347,0.20061 0.22587,0.30584zM300.97836,138.84558c0.24272,0.17994 0.47925,0.37194 0.71024,0.57625c0.41047,0.43546 0.75565,0.88533 1.02631,1.34402c0.07672,0.05104 0.15122,0.10205 0.22336,0.15293c-0.03622,-0.09785 -0.07434,-0.19534 -0.11423,-0.29235c-0.47375,-0.63981 -1.0969,-1.24579 -1.84569,-1.78086zM287.54799,137.85404c0.16861,-0.11889 0.34792,-0.23512 0.53823,-0.34848c0.02047,-0.01216 0.04106,-0.02428 0.06178,-0.03631c-1.02111,0.16331 -1.99265,0.39652 -2.84351,0.74197c-0.14888,0.12969 -0.29161,0.26012 -0.42778,0.39148c0.74302,-0.31535 1.66742,-0.56543 2.67129,-0.74865zM284.84222,144.96935c-0.09143,-0.09625 -0.18087,-0.19346 -0.26839,-0.29156c-0.07658,-0.10606 -0.15851,-0.21835 -0.24375,-0.33593c-0.05406,-0.0435 -0.10761,-0.08751 -0.16057,-0.13197c0.11829,0.19934 0.26332,0.39507 0.43513,0.58565c0.07723,0.05922 0.15644,0.11713 0.23759,0.17383zM292.29534,136.53623c0.46646,-0.0117 0.90741,-0.01506 1.31055,-0.01187c0.48958,0.00388 0.95442,0.02098 1.39807,0.05113c-0.3036,-0.06731 -0.6068,-0.13061 -0.91029,-0.18953c-0.60548,0.01707 -1.21032,0.06737 -1.79832,0.15027zM305.0393,145.00985c-0.05713,0.32094 -0.15049,0.63877 -0.28334,0.95116c-1.08493,2.527 -3.88234,3.38362 -7.92231,3.3418c-0.24974,-0.00258 -0.49873,-0.00976 -0.74694,-0.02122c-0.52809,-0.00641 -1.06887,-0.03731 -1.62174,-0.09006c-0.13676,0.00091 -0.27336,0.00109 -0.40976,0.00048c-3.41418,0.14809 -6.59288,-0.02051 -9.77191,-0.92869c-2.58557,-1.20975 -4.24336,-3.54633 -4.51059,-5.56353c-0.105,-0.19088 -0.19313,-0.38482 -0.26276,-0.58147c-0.8722,-2.47133 -0.46239,-4.4163 3.09007,-5.95126c2.53289,-0.99866 5.97729,-1.56794 9.10556,-1.30322c2.82643,-0.31991 5.79945,-0.03719 8.21769,0.97739c1.60143,0.34508 3.02007,0.94357 4.11941,1.98498c1.76094,1.67395 2.80725,4.32362 1.52079,6.23666c-0.12731,0.3459 -0.30532,0.65885 -0.52416,0.94697zM303.12358,141.61024c0.04836,0.12792 0.09074,0.25624 0.1269,0.38485c-0.02354,-0.11408 -0.05023,-0.22803 -0.07988,-0.3417c-0.01539,-0.01434 -0.03108,-0.02874 -0.04703,-0.04315zM280.60548,142.73363c0.02529,0.17425 0.06679,0.34721 0.12625,0.51839c0.29885,0.37875 0.66593,0.74182 1.08491,1.08543c-0.47703,-0.50584 -0.89041,-1.04904 -1.21117,-1.60381zM303.88269,144.45379c0.07134,-0.12024 0.13961,-0.24204 0.20428,-0.36519c-0.00949,-0.08485 -0.0205,-0.16915 -0.03276,-0.25275c-0.04426,0.20676 -0.10133,0.41282 -0.17153,0.61792zM290.11767,136.64715c0.79786,-0.23659 1.66969,-0.40438 2.56773,-0.50158c-0.73056,-0.10688 -1.46821,-0.1861 -2.22157,-0.23329c-1.33381,0.1757 -2.56876,0.53312 -3.63258,1.15981c1.04852,-0.20347 2.18439,-0.3393 3.28643,-0.42494zM289.43353,147.40193c0.23009,0.02144 0.46248,0.0384 0.6971,0.05121c-0.76242,-0.20876 -1.51195,-0.42432 -2.22741,-0.66084c0.49015,0.21416 1.00331,0.4216 1.53031,0.60963zM301.58068,137.61954c-0.0871,-0.04634 -0.17552,-0.0919 -0.26515,-0.13664c0.02939,0.01873 0.05858,0.03771 0.08758,0.05693c0.05991,0.02632 0.11909,0.05289 0.17757,0.07971zM285.94263,145.41709c0.16078,0.14691 0.32711,0.29101 0.49916,0.43191c0.4248,0.18805 0.87403,0.36056 1.34048,0.52232c-0.64061,-0.31089 -1.25559,-0.63175 -1.83966,-0.95424zM299.9225,147.24051c-1.84586,0.28105 -3.95779,0.28997 -5.66995,0.42964c1.81117,0.13838 3.62365,0.10761 5.38395,-0.26692c0.09703,-0.0526 0.19237,-0.10686 0.28601,-0.16272zM287.25477,138.65452c0.57229,-0.25309 1.17525,-0.47887 1.79991,-0.68301c-0.39787,0.04437 -0.79055,0.09856 -1.17146,0.16264c-0.23181,0.16828 -0.441,0.34196 -0.62847,0.52036zM294.87083,135.37938c1.00026,0.01737 1.98544,0.05557 2.93317,0.14568c-1.41935,-0.35086 -2.9522,-0.49142 -4.48085,-0.44258c0.49947,0.08968 1.01949,0.18784 1.54767,0.2969zM296.04041,136.45951c0.02147,-0.00174 0.04289,-0.00344 0.0643,-0.00508c-0.04631,-0.00459 -0.09272,-0.00898 -0.13924,-0.01314c0.02498,0.00605 0.04997,0.01212 0.07495,0.01821zM292.30509,147.80739c0.83151,0.26836 1.68245,0.49979 2.54406,0.68084c1.31675,0.01864 2.49578,-0.17444 3.52987,-0.53264c-2.00069,0.23422 -4.04992,0.11319 -6.07392,-0.1482zM283.72371,139.16169c0.03947,-0.04796 0.07981,-0.09576 0.12102,-0.14343c-0.11795,0.0892 -0.23073,0.18274 -0.33796,0.28084c0.06758,-0.04723 0.13983,-0.09306 0.21694,-0.13742zM290.88452,147.81425c-0.0532,-0.00096 -0.1063,-0.0021 -0.15931,-0.00343c0.12242,0.03349 0.24516,0.0655 0.36815,0.09585c-0.07009,-0.03043 -0.13972,-0.06123 -0.20885,-0.09242z" fill="#ffffff" stroke="none" stroke-width="0.5" stroke-linecap="butt"/><path d="M335.9436,145.5446c0.5565,0.14505 1.12467,0.25136 1.70402,0.3239c-0.65049,-0.15735 -1.25197,-0.3677 -1.8019,-0.62338c-0.31514,-0.06079 -0.62847,-0.13124 -0.93969,-0.21218c0.24631,0.12195 0.49369,0.24644 0.73909,0.37567l0.14712,0.02987c0,0 0.13332,0.03451 0.15133,0.10612zM354.17259,142.48453c-0.29964,0.2947 -0.68626,0.57913 -1.17276,0.8497c-0.30942,0.17121 -0.63821,0.33168 -0.98309,0.48257c-1.31355,1.18879 -3.38246,1.95362 -5.92926,2.35588c1.5354,-0.11055 3.04363,-0.3313 4.56127,-0.70857c1.62256,-0.67952 2.84362,-1.80874 3.52383,-2.9796zM333.24736,143.56619c0.12406,0.14336 0.25296,0.28631 0.38768,0.4272c0.16342,0.07357 0.3376,0.14022 0.52095,0.20071c-0.23696,-0.19373 -0.4572,-0.39865 -0.66033,-0.61346c-0.48909,-0.51752 -0.79048,-1.05251 -0.92588,-1.59327c0.08377,0.4734 0.26855,0.93713 0.5783,1.37989c0.03068,0.06758 0.06378,0.13389 0.09927,0.19891zM342.47601,134.71257c0.85673,0.02149 1.70707,0.07541 2.547,0.15898c0.20837,-0.01116 0.41794,-0.02013 0.62888,-0.02684c-0.1048,-0.02072 -0.21076,-0.041 -0.31796,-0.06084c-0.51566,-0.09603 -1.04275,-0.1721 -1.57572,-0.22737c-0.4048,0.03316 -0.80315,0.08009 -1.19174,0.14178c-0.03003,0.00473 -0.06019,0.0095 -0.09043,0.01431zM345.41748,134.49502c0.03178,0.00572 0.06353,0.01152 0.09522,0.01738c0.52094,0.09691 1.01532,0.20387 1.48712,0.3206c0.44199,0.00634 0.89116,0.0227 1.34903,0.04977c3.76547,0.25177 6.33995,1.54088 6.77903,3.61826c0.06051,0.29138 0.06039,0.59549 0.00771,0.90592c0.03843,0.11446 0.07065,0.23017 0.0967,0.34704c0.4756,-1.69315 -0.08551,-3.04086 -2.97609,-4.1452c-1.90972,-0.66497 -4.4085,-1.1016 -6.83873,-1.11376zM350.1218,143.99976c0.28328,-0.12348 0.56008,-0.25955 0.8301,-0.4091c0.5619,-0.3087 1.09931,-0.68201 1.58166,-1.09476c0.96533,-1.26352 1.1237,-2.64421 0.25833,-3.85573c0.35145,0.64506 0.22245,1.33955 -0.195,2.00833c-0.022,0.28498 -0.08567,0.57773 -0.19436,0.87926c-0.31813,0.53147 -0.77802,0.98156 -1.34453,1.37093c-0.35381,0.34401 -0.81362,0.66948 -1.37933,0.96557c-0.44854,0.20372 -0.93887,0.4185 -1.45982,0.63015c-0.12996,0.07527 -0.26256,0.14898 -0.39784,0.22103c0.09328,-0.01916 0.18608,-0.03923 0.27837,-0.06023c0.27093,-0.08023 0.53945,-0.16104 0.8054,-0.24185c0.41001,-0.12446 0.81772,-0.26275 1.21701,-0.41357zM350.28702,136.88024c0.01545,0.0117 0.03081,0.0234 0.04614,0.03512c0.50311,0.18544 0.96446,0.40566 1.37019,0.66811c-0.08701,-0.06221 -0.17762,-0.12356 -0.27191,-0.184c-0.3037,-0.1979 -0.69334,-0.36998 -1.14442,-0.51923zM350.67434,144.33337c-1.24187,0.42239 -2.61328,0.75803 -4.00078,1.04829c-0.3635,0.09792 -0.73055,0.19295 -1.10091,0.28391c-0.57058,0.18605 -1.17665,0.34668 -1.82014,0.47822c0.36839,-0.02638 0.73206,-0.05921 1.08952,-0.09886c2.39169,-0.26335 4.39834,-0.81593 5.83228,-1.71156zM334.34398,145.65688c-0.39747,-0.17721 -0.78144,-0.38202 -1.15144,-0.61648c-0.41395,-0.30589 -0.78268,-0.60107 -1.10857,-0.89229c0.32599,0.64908 0.95748,1.19368 2.07416,1.47785c0.0617,0.01043 0.12365,0.02074 0.18584,0.03093zM348.19282,135.16269c0.44913,0.13786 0.87796,0.2858 1.2909,0.44349c0.36714,0.08487 0.73046,0.17505 1.08956,0.27029c1.89007,0.59218 3.20959,1.43578 3.96833,2.42869c-0.53897,-1.81141 -2.88293,-2.91253 -6.26132,-3.13743c-0.0292,-0.00173 -0.05836,-0.00341 -0.08749,-0.00505zM343.18735,145.03434c0.53002,-0.06244 1.05822,-0.13331 1.58314,-0.20839c0.15869,-0.05487 0.31635,-0.11074 0.47292,-0.16753c1.56689,-0.76734 2.78317,-1.73561 3.4584,-2.84028c0.76986,-1.25703 0.85915,-2.54976 -0.01911,-3.68212c-1.17514,-0.56524 -2.54471,-0.98532 -3.99117,-1.32511c-1.35575,-0.04877 -2.6635,0.00529 -3.6486,0.15952c-2.23191,0.25547 -5.5432,1.40907 -7.42905,2.50282c-0.84628,1.30665 -0.85358,2.69601 0.35568,3.97418c0.3477,0.36772 0.74748,0.7058 1.19791,1.00606c1.98659,0.39278 4.55877,0.34736 6.4139,0.48996c0.5438,0.04215 1.07944,0.07336 1.60596,0.09087zM339.81103,135.19146c-0.34806,0.07256 -0.69651,0.15027 -1.04098,0.23381c0.84584,-0.1113 1.73958,-0.15806 2.63304,-0.14183c0.53849,-0.09184 1.07807,-0.1714 1.62217,-0.2371c-0.90382,-0.00958 -1.83464,0.03305 -2.77212,0.10607c-0.14725,0.01134 -0.29468,0.02438 -0.44209,0.03906zM348.34751,137.21c0.3097,0.24171 0.56805,0.49388 0.77796,0.75435c0.41927,0.2053 0.81448,0.42873 1.18074,0.67306c0.73143,0.48908 1.21763,1.03381 1.45886,1.59618c0.09173,-0.21588 0.15676,-0.43047 0.18342,-0.63885c-0.16161,-0.5157 -0.47091,-1.00514 -0.8994,-1.47722c-0.12062,-0.06005 -0.25495,-0.11625 -0.40396,-0.16815c-0.56333,-0.30904 -1.37033,-0.5551 -2.29761,-0.73938zM330.87887,141.74935c0.0135,-0.09433 0.03052,-0.18863 0.05088,-0.28284c-0.49864,-1.26768 -0.40317,-2.61675 0.92787,-3.73008c1.39894,-1.2823 3.88053,-2.2124 6.53533,-2.65015c-0.78865,0.05406 -1.55267,0.13868 -2.27659,0.27311c-0.06152,0.02305 -0.12265,0.04655 -0.18337,0.07053c-2.94404,1.0279 -5.33434,2.59238 -5.33551,4.57378c-0.0032,0.64668 0.08634,1.21671 0.28138,1.74568zM349.20103,135.85421c-0.32952,-0.07549 -0.66215,-0.14656 -0.99757,-0.21302c0.45983,0.1903 0.89373,0.41657 1.2969,0.68363c0.0206,0.01365 0.04113,0.0273 0.06157,0.04097c0.92205,0.21542 1.71911,0.49297 2.27799,0.84722c1.75916,1.12962 2.3329,2.56548 1.92547,3.97812c0.28736,-0.38807 0.51576,-0.78637 0.66758,-1.18037c-0.15167,-0.66194 -0.53275,-1.32739 -1.00363,-1.96133c-1.36632,-0.85812 -2.68006,-1.59769 -4.22829,-2.1952zM335.61307,136.48274c-0.60759,0.2935 -1.1199,0.62806 -1.48634,1.01142c0.75394,-0.3919 1.50036,-0.72185 2.28996,-0.98809c0.49432,-0.19052 1.01943,-0.35701 1.57231,-0.49495c0.17524,-0.0436 0.34985,-0.08628 0.52394,-0.12798c-0.28641,0.00154 -0.56431,0.01353 -0.83341,0.03615c-0.03811,0.00883 -0.07603,0.01786 -0.11375,0.02703c-0.70994,0.172 -1.36163,0.3477 -1.95274,0.53641zM334.12656,138.80343c1.98792,-0.96977 4.77054,-1.86443 6.79184,-2.11096c0.68934,-0.10832 1.50082,-0.16967 2.36643,-0.18488c-0.64422,-0.12814 -1.29583,-0.24506 -1.94526,-0.35605c-2.83697,0.09081 -4.95575,0.77081 -6.74673,2.17238c-0.16744,0.1577 -0.32312,0.31767 -0.46629,0.47952zM343.09657,136.16517c0.5783,0.1113 1.15176,0.23061 1.71423,0.36144c0.66557,0.02742 1.3394,0.07952 1.99451,0.15595c-0.23484,-0.11889 -0.48853,-0.22853 -0.75784,-0.32881c-0.97756,-0.09438 -1.97511,-0.14602 -2.9307,-0.18769c-0.00674,-0.0003 -0.01347,-0.00059 -0.0202,-0.00088zM350.42099,142.21441c0.31527,-0.3817 0.68683,-0.837 0.98609,-1.31137c-0.06994,-0.73078 -0.57594,-1.45607 -1.51589,-2.08347c-0.11685,-0.07819 -0.23684,-0.15415 -0.35978,-0.22798c0.52293,1.04891 0.35938,2.19522 -0.32537,3.31329c-0.42171,0.68729 -1.04295,1.32501 -1.82285,1.89781c0.57548,-0.25131 1.12805,-0.50952 1.65305,-0.76837c0.46628,-0.22942 0.94186,-0.5081 1.38476,-0.81992zM333.2007,137.55902c-0.87997,0.58483 -1.42501,1.31647 -1.60773,2.30495c0.19724,-0.32426 0.42854,-0.64151 0.68818,-0.94817c0.18732,-0.36993 0.42208,-0.73582 0.70136,-1.09519c0.06994,-0.09 0.14268,-0.17719 0.21819,-0.26159zM334.83005,137.68012c-0.72276,0.45808 -1.32444,0.9766 -1.78208,1.52386c-0.03859,0.08295 -0.07545,0.16629 -0.11049,0.24993c0.06963,-0.04356 0.14154,-0.08722 0.2156,-0.13092c0.26155,-0.39227 0.59497,-0.77707 0.99132,-1.14964c0.223,-0.17484 0.45136,-0.33917 0.68564,-0.49323zM347.78387,136.81757c0.96795,0.15543 1.8592,0.36807 2.57542,0.63668c-0.13118,-0.11208 -0.26867,-0.2234 -0.41211,-0.33404c-0.82021,-0.29422 -1.75692,-0.49238 -2.74153,-0.63079c0.01997,0.01026 0.03982,0.02057 0.05953,0.03095c0.18341,0.09665 0.35622,0.19577 0.51868,0.29718zM350.38529,142.89458c0.07832,-0.04853 0.1548,-0.09812 0.22934,-0.14882c0.16591,-0.16304 0.306,-0.33047 0.42033,-0.50092c-0.05113,0.03805 -0.10282,0.07571 -0.15501,0.11296c-0.08237,0.10056 -0.16149,0.19661 -0.23546,0.28733c-0.08452,0.08392 -0.17089,0.1671 -0.25918,0.24946zM343.20686,135.69689c-0.56698,-0.07016 -1.15027,-0.11247 -1.7342,-0.12636c-0.29275,0.0507 -0.58527,0.10512 -0.87813,0.16299c0.42791,-0.02627 0.87622,-0.0414 1.3484,-0.04529c0.3888,-0.00318 0.81409,-0.00081 1.26393,0.00866zM330.90652,142.95214c-0.21074,-0.24595 -0.38206,-0.51316 -0.50444,-0.80859c-1.23853,-1.63324 -0.22641,-3.89858 1.4738,-5.331c1.06141,-0.89113 2.43029,-1.40417 3.97515,-1.70087c2.33339,-0.86971 5.20097,-1.11471 7.92652,-0.84454c3.01731,-0.22977 6.33853,0.25277 8.78021,1.10326c3.42435,1.3076 3.81737,2.96912 2.97339,5.08187c-0.06739,0.16811 -0.15259,0.33394 -0.25408,0.49717c-0.26004,1.72401 -1.86152,3.72251 -4.35651,4.7592c-3.067,0.77966 -6.13282,0.92736 -9.4254,0.80471c-0.13155,0.00068 -0.2633,0.00069 -0.39519,0.00006c-0.53326,0.04571 -1.05484,0.07272 -1.56416,0.07881c-0.23939,0.01008 -0.47954,0.01647 -0.72039,0.01897c-3.89632,0.04033 -6.59326,-0.68847 -7.63672,-2.84657c-0.12777,-0.26679 -0.21745,-0.53828 -0.27219,-0.81246zM332.75802,140.04498c-0.0154,0.01234 -0.03054,0.02465 -0.0454,0.03692c-0.02871,0.09717 -0.0546,0.19456 -0.07743,0.29207c0.03503,-0.10994 0.07603,-0.21964 0.12283,-0.329zM354.47392,140.97932c-0.30999,0.47441 -0.70928,0.93905 -1.16991,1.37184c0.40447,-0.29409 0.7589,-0.60475 1.04757,-0.92873c0.05754,-0.14634 0.09777,-0.29418 0.12236,-0.44311zM332.02267,142.47567c-0.06746,-0.17518 -0.12227,-0.3512 -0.16471,-0.52783c-0.01193,0.07144 -0.02262,0.1435 -0.03189,0.21601c0.06226,0.10515 0.12794,0.20916 0.19661,0.31181zM345.30697,135.78919c1.06274,0.07193 2.15805,0.18669 3.16905,0.35938c-1.02528,-0.53429 -2.21589,-0.83831 -3.50207,-0.98694c-0.72662,0.04118 -1.43811,0.10971 -2.14282,0.20187c0.86599,0.08204 1.70663,0.22442 2.47583,0.42568zM347.43109,144.45577c-0.69029,0.20293 -1.4134,0.38798 -2.14894,0.56723c0.22629,-0.0112 0.45044,-0.02597 0.67236,-0.04455c0.50845,-0.16127 1.00361,-0.33911 1.47658,-0.52267zM334.4219,136.56482c0.02797,-0.01646 0.05616,-0.0327 0.08453,-0.04874c-0.08649,0.03834 -0.17181,0.07735 -0.25587,0.11707c0.05641,-0.02299 0.11353,-0.04575 0.17135,-0.06832zM349.32354,143.27839c-0.56368,0.27624 -1.15714,0.5511 -1.7753,0.81749c0.45005,-0.13875 0.88351,-0.28668 1.2934,-0.44785c0.16609,-0.12059 0.32667,-0.24392 0.4819,-0.36962zM335.83878,144.85244c0.09023,0.04762 0.18213,0.09388 0.27564,0.13871c1.69729,0.31804 3.44525,0.34226 5.19216,0.22196c-1.6511,-0.11741 -3.68789,-0.12261 -5.46779,-0.36067zM348.06579,137.50124c-0.18059,-0.15223 -0.38217,-0.3004 -0.60553,-0.44393c-0.36729,-0.05432 -0.74593,-0.10018 -1.12958,-0.13765c0.60219,0.17374 1.18347,0.36596 1.73512,0.58158zM340.72433,134.71129c0.50951,-0.0938 1.01115,-0.17826 1.49296,-0.25546c-1.47423,-0.03999 -2.95271,0.08186 -4.32198,0.38329c0.91413,-0.07809 1.86432,-0.11184 2.82902,-0.12782zM339.5951,135.63558c0.02412,-0.00524 0.0482,-0.01045 0.07229,-0.01565c-0.04488,0.00362 -0.08964,0.00741 -0.13431,0.01138c0.02065,0.00138 0.0413,0.00279 0.06202,0.00427zM343.18465,145.32816c-1.95229,0.22565 -3.92879,0.33142 -5.85805,0.13355c0.9969,0.30489 2.13377,0.46856 3.40372,0.45113c0.83117,-0.15569 1.6521,-0.35441 2.45434,-0.58469zM351.47066,137.93058c0.07433,0.03781 0.14394,0.0769 0.20906,0.11718c-0.1033,-0.0837 -0.21196,-0.16351 -0.32562,-0.23959c0.03969,0.04068 0.07853,0.08149 0.11655,0.12242zM344.55469,145.33242c-0.06672,0.02673 -0.1339,0.05313 -0.20153,0.07922c0.11862,-0.02608 0.23707,-0.05356 0.35518,-0.08233c-0.05112,0.0012 -0.10234,0.00222 -0.15364,0.00311z" fill="#ffffff" stroke="none" stroke-width="0.5" stroke-linecap="butt"/><path d="M283.16076,167.83557c0.11512,0.08053 0.3343,0.28892 0.16803,0.63027c-0.21897,0.4495 -0.66847,0.23055 -0.66847,0.23055l-0.49333,-0.54777c-0.01832,-2.68512 -0.58311,-5.31376 -0.61113,-8.02102c0,0 -0.00518,-0.49998 0.4948,-0.50515c0.49998,-0.00518 0.50515,0.4948 0.50515,0.4948c0.02699,2.60699 0.53465,5.13446 0.60497,7.71833z" fill="#ffffff" stroke="none" stroke-width="0.5" stroke-linecap="butt"/><path d="M286.79034,171.30077c0.14332,0.013 0.31499,0.08566 0.40081,0.33452c0.16302,0.47268 -0.30967,0.63569 -0.30967,0.63569l-0.96801,-0.26066c-0.52334,-2.53476 -0.59151,-5.18582 -0.61859,-7.80214c0,0 -0.00518,-0.49998 0.4948,-0.50515c0.49998,-0.00518 0.50515,0.4948 0.50515,0.4948c0.02454,2.37035 0.06045,4.79259 0.49551,7.10294z" fill="#ffffff" stroke="none" stroke-width="0.5" stroke-linecap="butt"/><path d="M289.8728,172.2425c0.09354,0.03502 0.18613,0.10832 0.25752,0.24749c0.22822,0.44487 -0.21665,0.6731 -0.21665,0.6731l-0.9276,-0.23395c-0.44004,-2.13129 -0.26721,-4.46899 -0.28973,-6.64369c0,0 -0.00518,-0.49998 0.4948,-0.50515c0.49998,-0.00518 0.50515,0.4948 0.50515,0.4948c0.02004,1.93597 -0.14579,4.04164 0.17652,5.96741z" fill="#ffffff" stroke="none" stroke-width="0.5" stroke-linecap="butt"/><path d="M293.49899,172.59785c-0.44488,0.22821 -0.6731,-0.21664 -0.6731,-0.21664l-0.25003,-0.50615c-0.43283,-1.48903 -0.47462,-3.04738 -0.79622,-4.57285c0,0 -0.10313,-0.48925 0.38611,-0.59238c0.48925,-0.10313 0.59238,0.38611 0.59238,0.38611c0.31475,1.49346 0.33507,3.04512 0.77635,4.49446l0.18116,0.33436c0,0 0.22822,0.44487 -0.21665,0.6731z" fill="#ffffff" stroke="none" stroke-width="0.5" stroke-linecap="butt"/><path d="M297.45796,173.64023c-0.47268,0.16302 -0.63569,-0.30967 -0.63569,-0.30967l-0.22909,-0.66895c-0.34532,-1.92228 -0.68368,-3.96635 -0.70979,-5.92245c0,0 -0.00518,-0.49998 0.4948,-0.50515c0.49998,-0.00518 0.50515,0.4948 0.50515,0.4948c0.01281,1.87113 0.35624,3.84113 0.67781,5.68171l0.20648,0.59401c0,0 0.16301,0.47268 -0.30967,0.63569z" fill="#ffffff" stroke="none" stroke-width="0.5" stroke-linecap="butt"/><path d="M301.18754,172.10605c0.12935,-0.03805 0.29638,-0.03052 0.46506,0.13471c0.35719,0.34988 0.00732,0.70707 0.00732,0.70707l-0.52259,0.53352c-0.08954,0.09141 -0.21395,0.14866 -0.35202,0.15009c-0.27613,0.00286 -0.50229,-0.21867 -0.50515,-0.4948l-0.00508,-0.49072c-0.42047,-1.96307 -0.32891,-3.99632 -0.78896,-5.94121c0,0 -0.11351,-0.48694 0.37344,-0.60044c0.48694,-0.1135 0.60045,0.37344 0.60045,0.37344c0.42475,1.84631 0.4023,3.75935 0.72752,5.62835z" fill="#ffffff" stroke="none" stroke-width="0.5" stroke-linecap="butt"/><path d="M304.59275,172.80706c0.08014,-0.1149 0.2887,-0.33547 0.63082,-0.16881c0.44951,0.21896 0.23055,0.66847 0.23055,0.66847l-0.35116,0.70612c-0.02331,0.01453 -0.04663,0.02906 -0.06994,0.04359l0.01852,0.01814l-0.41807,0.42682c-0.08954,0.09141 -0.21395,0.14866 -0.35202,0.15009c-0.2574,0.00267 -0.47137,-0.18964 -0.50153,-0.43939l-0.11302,-0.834c-0.26433,-1.72855 -0.42629,-3.54185 -0.78816,-5.24017c0,0 -0.10313,-0.48925 0.38611,-0.59238c0.48925,-0.10313 0.59238,0.38611 0.59238,0.38611c0.33072,1.58458 0.50092,3.2552 0.73555,4.87541z" fill="#ffffff" stroke="none" stroke-width="0.5" stroke-linecap="butt"/><path d="M308.5605,173.73494c0.00815,0.2252 0.02183,0.28528 0.0463,-0.01871zM308.55353,173.4312c0.07311,-0.08038 0.18621,-0.14278 0.36118,-0.14459c0.49998,-0.00518 0.50515,0.4948 0.50515,0.4948l-0.18033,0.70919c-0.33977,0.16917 -0.66798,0.65106 -1.01933,0.50748c-0.08876,-0.03626 -0.61608,-1.64282 -0.65067,-1.88755c-0.30137,-2.13204 -0.2578,-4.33746 -0.28007,-6.48943c0,0 -0.00518,-0.49998 0.4948,-0.50515c0.49998,-0.00518 0.50515,0.4948 0.50515,0.4948c0.01877,1.81315 0.11996,3.58186 0.24714,5.38723c0.01097,0.15579 0.00921,0.9157 0.01698,1.43324z" fill="#ffffff" stroke="none" stroke-width="0.5" stroke-linecap="butt"/><path d="M312.15233,173.56557c0.04855,-0.00169 0.10207,0.00355 0.16104,0.01765c0.4863,0.11624 0.37006,0.60254 0.37006,0.60254l-0.98442,0.61142c-1.00759,-1.37661 -0.98336,-4.29184 -1.00703,-5.99322c0,0 -0.00518,-0.49998 0.4948,-0.50515c0.49998,-0.00518 0.50515,0.4948 0.50515,0.4948c0.00709,1.14633 -0.03835,3.45108 0.4604,4.77197z" fill="#ffffff" stroke="none" stroke-width="0.5" stroke-linecap="butt"/><path d="M316.04347,172.81915c-0.00351,0.04365 -0.00733,0.08622 -0.01122,0.1258c0.03568,-0.10987 0.09179,-0.21627 0.12683,-0.32624zM316.05394,172.66712c0.05183,-0.13961 0.17296,-0.30119 0.45606,-0.30413c0.49998,-0.00518 0.50515,0.4948 0.50515,0.4948l-0.14168,0.46066c-0.36472,0.25938 -0.64997,0.83295 -1.09415,0.77814c-0.37744,-0.04657 -0.6832,-1.21238 -0.71606,-1.59182c-0.20301,-2.34517 -0.05182,-4.77074 -0.07619,-7.12522c0,0 -0.00518,-0.49998 0.4948,-0.50515c0.49998,-0.00518 0.50515,0.4948 0.50515,0.4948c0.0189,1.82611 0.03781,3.65224 0.05671,5.47835c0.00534,0.51612 -0.02562,1.03373 0.01359,1.5484c0.00495,0.06488 0.00258,0.16465 -0.0034,0.27117z" fill="#ffffff" stroke="none" stroke-width="0.5" stroke-linecap="butt"/><path d="M320.02138,171.31125c0.35719,0.34988 0.00732,0.70707 0.00732,0.70707l-1.11277,0.77357c-0.81753,-1.75414 -0.82542,-3.51427 -0.84533,-5.43742c0,0 -0.00518,-0.49998 0.4948,-0.50515c0.49998,-0.00518 0.50515,0.4948 0.50515,0.4948c0.01299,1.25563 0.45637,2.9494 0.18556,4.18307l0.05823,-0.20862c0,0 0.34987,-0.35721 0.70707,-0.00732z" fill="#ffffff" stroke="none" stroke-width="0.5" stroke-linecap="butt"/><path d="M323.21125,171.93291c0.0973,-0.11091 0.3157,-0.2852 0.62724,-0.10263c0.43138,0.2528 0.1786,0.68418 0.1786,0.68418l-0.3293,0.55972c-0.00908,0.0071 -0.01814,0.01421 -0.02722,0.02131l0.00742,0.00581l-0.41413,0.52879c-0.09033,0.1174 -0.23171,0.19367 -0.39132,0.19532c-0.24576,0.00254 -0.45194,-0.17266 -0.49633,-0.40591l-0.10916,-0.51789l0.01284,-0.00271l-0.01965,-0.03784c-0.12219,-2.6948 -0.16466,-5.38285 -0.19261,-8.08278c0,0 -0.00518,-0.49998 0.4948,-0.50515c0.49998,-0.00518 0.50515,0.4948 0.50515,0.4948c0.02477,2.39301 0.06648,4.77737 0.15371,7.165z" fill="#ffffff" stroke="none" stroke-width="0.5" stroke-linecap="butt"/><path d="M326.91781,170.3891c0.10301,-0.09971 0.34405,-0.26809 0.64482,-0.04735c0.40309,0.29584 0.10724,0.69893 0.10724,0.69893l-0.30237,0.41165l-0.40596,0.6228c-0.08759,0.13876 -0.24164,0.23161 -0.41792,0.23344c-0.25096,0.00259 -0.46063,-0.18014 -0.49894,-0.42077l-0.11073,-0.62448l0.01279,-0.00227l-0.01832,-0.03864c-0.02717,-2.19632 -0.04717,-4.39277 -0.06991,-6.58915c0,0 -0.00518,-0.49998 0.4948,-0.50515c0.49998,-0.00518 0.50515,0.4948 0.50515,0.4948c0.01989,1.92204 0.04227,3.84409 0.05934,5.76617z" fill="#ffffff" stroke="none" stroke-width="0.5" stroke-linecap="butt"/><path d="M331.61886,171.61248c0.14245,0.049 0.31445,0.16868 0.31747,0.46084c0.00518,0.49998 -0.4948,0.50515 -0.4948,0.50515l-0.82199,-0.49187c-0.02222,-2.31824 0.28989,-4.70298 -0.06749,-7.00497c0,0 -0.07583,-0.49422 0.41839,-0.57005c0.49422,-0.07583 0.57004,0.41838 0.57004,0.41838c0.33413,2.20123 0.09255,4.46117 0.07839,6.68251z" fill="#ffffff" stroke="none" stroke-width="0.5" stroke-linecap="butt"/><path d="M336.23088,170.24178c0.00325,0.31474 -0.19367,0.43339 -0.34004,0.47812l-0.28604,0.36523c-0.09033,0.1174 -0.2317,0.19367 -0.39132,0.19532c-0.27613,0.00286 -0.50229,-0.21867 -0.50515,-0.4948c-0.01531,-1.47857 -0.03826,-3.69641 -0.05356,-5.17498c0,0 -0.00518,-0.49998 0.4948,-0.50515c0.49998,-0.00518 0.50515,0.4948 0.50515,0.4948c0.01435,1.38586 0.02869,2.77171 0.04304,4.15757l0.02798,-0.01092c0,0 0.49998,-0.00518 0.50515,0.4948z" fill="#ffffff" stroke="none" stroke-width="0.5" stroke-linecap="butt"/><path d="M340.44073,168.63036c0.44951,0.21896 0.23055,0.66847 0.23055,0.66847l-0.08297,0.16406c-0.1131,0.30884 -0.26945,0.59994 -0.45248,0.87629l0.10116,0.06177l-0.5148,0.84298c-0.08598,0.14612 -0.24417,0.24488 -0.42605,0.24676c-0.25096,0.00259 -0.46063,-0.18014 -0.49894,-0.42077l-0.11073,-0.62448l0.01302,-0.0023l-0.01854,-0.0386c-0.03327,-2.7596 -0.05884,-5.51928 -0.0874,-8.27893c0,0 -0.00518,-0.49998 0.4948,-0.50515c0.49998,-0.00518 0.50515,0.4948 0.50515,0.4948c0.02405,2.32329 0.05054,4.64656 0.0722,6.96987l0.10659,-0.22422c0,0 0.21896,-0.4495 0.66847,-0.23054z" fill="#ffffff" stroke="none" stroke-width="0.5" stroke-linecap="butt"/><path d="M344.04626,166.39719c0.03926,-0.0088 0.08275,-0.01389 0.13094,-0.0144c0.49998,-0.00518 0.50515,0.4948 0.50515,0.4948l-0.17484,0.49157l-0.62571,0.53249c-0.08631,0.0745 -0.19843,0.12005 -0.32137,0.12132c-0.27613,0.00286 -0.50229,-0.21867 -0.50515,-0.4948l-0.00554,-0.53479c-0.02151,-2.07787 0.06271,-4.1468 0.04119,-6.22545c0,0 -0.00518,-0.49998 0.4948,-0.50515c0.49998,-0.00518 0.50515,0.4948 0.50515,0.4948c0.01949,1.88322 -0.04778,3.75854 -0.04462,5.63961z" fill="#ffffff" stroke="none" stroke-width="0.5" stroke-linecap="butt"/><path d="M348.12146,164.3705l-0.95971,0.04358c-0.01785,-1.725 -0.03571,-3.44997 -0.05356,-5.17498c0,0 -0.00518,-0.49998 0.4948,-0.50515c0.49998,-0.00518 0.50515,0.4948 0.50515,0.4948c0.01536,1.4833 0.03071,2.9666 0.04606,4.4499c0.40233,0.27313 0.13435,0.68426 0.13435,0.68426l-0.1272,0.00578c0.00012,0.01168 0.00024,0.02336 0.00036,0.03504z" fill="#ffffff" stroke="none" stroke-width="0.5" stroke-linecap="butt"/><path d="M350.56887,163.16105c-0.49128,-0.09298 -0.3983,-0.58426 -0.3983,-0.58426l0.09337,-0.48028c-0.01221,-1.17904 0.07883,-2.35256 0.06652,-3.5426c0,0 -0.00518,-0.49998 0.4948,-0.50515c0.49998,-0.00518 0.50515,0.4948 0.50515,0.4948c0.01265,1.2222 -0.0829,2.43 -0.07036,3.64117l-0.10691,0.57802c0,0 -0.09298,0.49129 -0.58426,0.3983z" fill="#ffffff" stroke="none" stroke-width="0.5" stroke-linecap="butt"/><path d="M306.99077,186.42756c-0.47268,0.16302 -0.63569,-0.30967 -0.63569,-0.30967l-0.13619,-0.47358c-0.01795,-1.73325 -0.10108,-3.29458 -0.36356,-4.99543c0,0 -0.07583,-0.49422 0.41839,-0.57005c0.49422,-0.07583 0.57004,0.41838 0.57004,0.41838c0.26648,1.74747 0.35667,3.35866 0.37507,5.13673l0.08158,0.1579c0,0 0.16302,0.47268 -0.30966,0.6357z" fill="#ffffff" stroke="none" stroke-width="0.5" stroke-linecap="butt"/><path d="M311.04424,187.52333c0.12753,0.0123 0.26912,0.078 0.36912,0.27293c0.19263,0.37549 -0.09426,0.59664 -0.18843,0.65649l-0.06593,0.57582c-0.02499,0.25034 -0.23494,0.44701 -0.49233,0.44968c-0.2574,0.00267 -0.47137,-0.18964 -0.50153,-0.43939l-0.11347,-0.83723l0.01072,-0.00145l-0.01393,-0.02947c-0.02721,-2.36409 0.20035,-4.79113 -0.47742,-7.07113c0,0 -0.14232,-0.47931 0.33699,-0.62164c0.47931,-0.14232 0.62165,0.33698 0.62165,0.33698c0.64499,2.17434 0.52061,4.45115 0.51458,6.70842z" fill="#ffffff" stroke="none" stroke-width="0.5" stroke-linecap="butt"/><path d="M315.25208,186.74962c0.07203,-0.01887 0.15812,-0.02116 0.26068,0.00336c0.4863,0.11624 0.37007,0.60254 0.37007,0.60254l-0.23035,0.65717l-0.41807,0.42682c-0.08954,0.09141 -0.21395,0.14866 -0.35202,0.15009c-0.27613,0.00286 -0.50229,-0.21867 -0.50515,-0.4948l-0.00515,-0.49707c-0.39336,-2.22701 -0.28923,-4.47526 -0.59384,-6.7227c0,0 -0.06715,-0.49548 0.42832,-0.56261c0.49548,-0.06715 0.56261,0.42832 0.56261,0.42832c0.27214,2.00821 0.2209,4.01573 0.4829,6.00887z" fill="#ffffff" stroke="none" stroke-width="0.5" stroke-linecap="butt"/><path d="M319.60963,185.89803c0.13674,-0.06792 0.37832,-0.12779 0.59462,0.12639c0.32405,0.38078 -0.05672,0.70484 -0.05672,0.70484l-1.1214,0.62436c-0.81941,-1.91197 -0.79416,-4.41091 -0.81558,-6.48083c0,0 -0.00518,-0.49998 0.4948,-0.50515c0.49998,-0.00518 0.50515,0.4948 0.50515,0.4948c0.01188,1.14767 0.73664,3.72447 0.39915,5.03562z" fill="#ffffff" stroke="none" stroke-width="0.5" stroke-linecap="butt"/><path d="M324.00988,185.41026c0.14697,-0.02949 0.3522,-0.01224 0.50292,0.23315c0.26167,0.42606 -0.16438,0.68773 -0.16438,0.68773l-1.02828,0.33387c-0.43758,-1.92905 -0.40013,-3.94605 -0.4206,-5.92316c0,0 -0.00518,-0.49998 0.4948,-0.50515c0.49998,-0.00518 0.50515,0.4948 0.50515,0.4948c0.01142,1.10258 0.53669,3.49787 0.1104,4.67876z" fill="#ffffff" stroke="none" stroke-width="0.5" stroke-linecap="butt"/><path d="M328.848,183.79827c0.49537,0.06786 0.4275,0.56324 0.4275,0.56324l-0.09527,0.45848c-0.42087,0.77625 -0.56557,1.14855 -0.99664,1.47347l0.07326,0.0956l-0.41516,0.31814c-0.08358,0.06549 -0.1886,0.10498 -0.30296,0.10618c-0.27613,0.00286 -0.50229,-0.21867 -0.50515,-0.4948c-0.02255,-2.17815 -0.0507,-4.89783 -0.07325,-7.07598c0,0 -0.00518,-0.49998 0.4948,-0.50515c0.49998,-0.00518 0.50515,0.4948 0.50515,0.4948c0.01915,1.84988 0.03829,3.69975 0.05744,5.54963c0.11211,-0.17147 0.22258,-0.3263 0.28337,-0.43845l-0.01634,-0.11764c0,0 0.06786,-0.49537 0.56324,-0.4275z" fill="#ffffff" stroke="none" stroke-width="0.5" stroke-linecap="butt"/><path d="M332.36094,186.00389c0.07345,0.0128 0.15281,0.0466 0.23598,0.11174c0.39365,0.30829 0.08536,0.70193 0.08536,0.70193l-0.41413,0.52879c-0.09033,0.1174 -0.2317,0.19367 -0.39132,0.19532c-0.27613,0.00286 -0.50229,-0.21867 -0.50515,-0.4948c-0.01677,-1.61937 -0.03899,-3.76682 -0.05575,-5.38619c0,0 -0.00518,-0.49998 0.4948,-0.50515c0.49998,-0.00518 0.50515,0.4948 0.50515,0.4948c0.01502,1.45119 0.03004,2.90237 0.04506,4.35356z" fill="#ffffff" stroke="none" stroke-width="0.5" stroke-linecap="butt"/><path d="M334.5859,186.0296c-0.49998,0.00518 -0.50515,-0.4948 -0.50515,-0.4948l-0.00765,-0.73928c-0.0165,-1.59351 0.06462,-3.21521 -0.15139,-4.79507c0,0 -0.06715,-0.49548 0.42832,-0.56262c0.49548,-0.06715 0.56262,0.42832 0.56262,0.42832c0.21818,1.62319 0.14346,3.28232 0.16039,4.91901l0.00765,0.73928c0,0 0.00518,0.49998 -0.4948,0.50515z" fill="#ffffff" stroke="none" stroke-width="0.5" stroke-linecap="butt"/></g></g></svg>