<svg version="1.1" xmlns="http://www.w3.org/2000/svg" xmlns:xlink="http://www.w3.org/1999/xlink" width="123.79432" height="227.06009" viewBox="0,0,123.79432,227.06009"><g transform="translate(-173.73976,-107.90721)"><g stroke-miterlimit="10"><g stroke="none" stroke-width="0.5" stroke-linecap="butt"><path d="M245.34945,214.62629c-5.04833,0.55727 -10.11631,3.5309 -14.87476,5.31632c-1.86965,0.70151 -4.61783,0.69063 -6.0724,2.27144c-6.85065,1.85389 -8.83543,9.87784 -10.05624,17.48171c-0.20521,1.2782 -0.75775,2.45413 -1.0146,3.72025c-0.6277,3.09437 -0.54662,6.66536 -0.81034,9.82661c-0.58145,6.96986 -0.42543,13.59686 -0.09257,20.52286c0.21653,4.50558 -0.79382,9.62875 -1.17147,14.15555c-0.55791,6.68769 -0.8784,13.31887 -1.43603,20.00311c-0.33721,4.04208 -1.12318,8.43923 -0.81169,12.46214c-0.16422,2.04378 -0.26078,3.98586 -0.26903,6.01441c-0.00198,0.48381 -0.54288,2.79614 -0.11585,3.24636c0.95553,1.00741 2.97012,0.79169 4.15165,0.89026c4.02333,0.33564 6.30007,-0.04196 7.62916,-5.46324c0.54148,-6.73098 1.16447,-13.38246 0.74985,-20.01159c-0.13118,-2.09734 -0.04303,-4.41982 0.29497,-6.51713c0.12228,-0.75872 -0.01063,-1.74477 0.47367,-2.25052c0.71804,-0.74984 3.49732,-0.06143 4.41235,0.0149c2.24018,0.24912 4.8099,-0.21923 7.16661,-0.26151c6.52728,-0.11709 13.2146,1.09938 19.71252,1.64146c3.25372,0.27144 6.43377,0.82419 9.68243,1.09521c0.85957,0.07171 3.47757,-0.09879 4.05846,0.6119c0.40459,0.49498 0.47431,3.70532 0.45861,4.33497c-0.10205,4.08992 -0.68809,8.27762 -1.02873,12.36087c-0.33906,4.06434 -0.76525,8.12616 -0.78786,12.17666c-0.00343,0.61306 -0.17372,3.04949 -0.00092,3.43823c0.16951,0.38136 3.28163,0.34792 3.36724,0.35506c3.36919,0.28107 6.95123,1.07802 10.3046,-0.00243c5.36659,-10.0076 4.59048,-22.41637 5.49294,-33.69503c1.03582,-12.41634 0.41808,-24.39384 0.03951,-36.70739c0.21107,-2.13234 -0.43385,-4.13317 -0.40075,-6.34379c0.13916,-9.29198 -1.44731,-17.73096 -2.17185,-26.77888c-0.25397,-3.85595 -3.00316,-4.95992 -5.55597,-6.15592c-4.84695,-2.27082 -10.45448,-5.11424 -15.70171,-5.58751c-4.1702,-2.13854 -9.7873,-1.66333 -14.33391,-2.04263l-1.15552,-0.0964c0,0 -0.05276,-0.0044 -0.1324,-0.02636zM248.83544,212.47531c4.21707,0.18578 8.97438,0.09649 12.64362,1.97812c2.35543,0.179 4.39442,0.93523 6.50696,2.02988c5.26894,2.73019 15.40833,2.74817 16.1833,11.74069c0.67918,9.13405 2.33827,17.66445 2.1802,27.05362c-0.03802,2.25837 0.55812,4.14707 0.40014,6.37169c0.4102,12.36159 0.99104,24.41306 -0.04879,36.87756c-0.12152,1.39084 0.07874,2.78215 0.1099,4.17389c0.10259,4.5825 -0.61201,10.38143 -1.70683,14.65551c-0.3148,1.229 -0.11612,2.55823 -0.29607,3.82228c-0.68486,4.81056 -1.97522,8.91257 -4.43379,12.80993c-3.79827,1.64302 -7.72586,0.79318 -11.60939,0.4692c-1.45572,-0.12144 -3.8396,0.14442 -4.85713,-1.48092c-0.33305,-0.53198 -0.25823,-3.88471 -0.25848,-4.63241c-0.00142,-4.12791 0.45274,-8.27348 0.79811,-12.41345c0.28579,-3.4258 0.56929,-6.8518 0.85738,-10.2774c0.03856,-0.45846 0.45643,-4.28362 0.26786,-4.50702c-0.01624,-0.01923 -2.63747,0.0533 -2.87455,0.03352c-3.24939,-0.27108 -6.42869,-0.82377 -9.68243,-1.09521c-6.44722,-0.53785 -13.09861,-1.77097 -19.57458,-1.63601c-2.45537,0.05117 -4.93785,0.40614 -7.30454,0.25607c-0.84737,-0.07069 -1.71767,0.01605 -2.5421,-0.21207c-0.17809,-0.04928 -0.29799,-0.53906 -0.44075,-0.38996c-0.42903,0.44803 0.1731,1.35226 0.11642,2.03173c-0.13307,1.59506 -0.27286,3.05964 -0.17165,4.65527c0.43362,6.83589 -0.18634,13.74238 -0.78322,20.68126c-0.7067,2.81458 -2.24623,6.66993 -4.77285,7.52288c-1.58125,0.5338 -3.37706,0.07102 -4.96584,-0.06152c-1.67273,-0.13955 -4.17977,0.01279 -5.41168,-1.63237c-1.48729,-1.98623 -0.32458,-8.30919 -0.10437,-10.83873c-0.31735,-4.09851 0.4784,-8.58101 0.82193,-12.69893c0.5576,-6.68393 0.87811,-13.31524 1.43604,-20.00311c0.36643,-4.39242 1.3994,-9.45859 1.1625,-13.82179c-0.38122,-7.02114 -0.48834,-13.78578 0.10154,-20.85662c0.91445,-10.96155 2.02482,-30.23991 13.00899,-33.01311c1.63735,-1.65056 4.4091,-1.67424 6.42117,-2.43569c5.83335,-2.20759 12.05946,-5.96313 18.23517,-5.44793c0,0 0.3324,0.02773 0.58786,0.29115z" fill="#000000"/><path d="M245.47912,214.60489l1.15643,0.09628c4.54661,0.37929 10.17538,-0.0949 14.34558,2.04364c5.24722,0.47329 10.86674,3.32286 15.71368,5.59368c2.5528,1.196 5.30668,2.30436 5.56065,6.1603c0.72453,9.0479 2.32071,17.50397 2.18155,26.79594c-0.0331,2.21061 0.61342,4.21752 0.40235,6.34986c0.37856,12.31355 0.99215,24.32693 -0.04367,36.74327c-0.90244,11.27865 -0.13921,23.70438 -5.50578,33.71199c-3.35339,1.08044 -6.94113,0.28738 -10.31033,0.00631c-0.08561,-0.00714 -3.19985,0.02742 -3.36936,-0.35395c-0.1728,-0.38873 -0.02917,-2.91419 -0.02574,-3.52725c0.02263,-4.0505 0.44493,-8.11007 0.78399,-12.17442c0.34064,-4.08325 0.92086,-8.26623 1.0229,-12.35614c0.01571,-0.62965 -0.0053,-3.76724 -0.40989,-4.26224c-0.58089,-0.71067 -3.20223,-0.53691 -4.0618,-0.60861c-3.24865,-0.27101 -6.44213,-0.81599 -9.69586,-1.08743c-6.49793,-0.54208 -13.21975,-1.76807 -19.74702,-1.65098c-2.3567,0.04227 -4.93146,0.50414 -7.17164,0.25504c-0.91503,-0.07634 -3.69626,-0.76814 -4.4143,-0.0183c-0.48429,0.50575 -0.28629,1.43617 -0.40857,2.1949c-0.33801,2.0973 -0.42888,4.41559 -0.2977,6.51293c0.41462,6.62913 -0.2153,13.2732 -0.75679,20.00419c-1.32911,5.42128 -3.65287,5.87739 -7.67621,5.54175c-1.18153,-0.09857 -3.19801,0.11524 -4.15352,-0.89218c-0.42703,-0.45022 0.11304,-2.76349 0.11501,-3.2473c0.00826,-2.02856 0.10319,-3.97264 0.26741,-6.01643c-0.31149,-4.02291 0.47092,-8.42551 0.80813,-12.4676c0.55762,-6.68424 0.87283,-13.32966 1.43074,-20.01735c0.37764,-4.52682 1.38676,-9.6642 1.17023,-14.16977c-0.33286,-6.926 -0.48477,-13.57262 0.09668,-20.54246c0.26372,-3.16124 0.18609,-6.73932 0.8138,-9.83369c0.25684,-1.26614 0.81099,-2.44463 1.0162,-3.72284c1.22081,-7.60387 3.21608,-15.63898 10.06674,-17.4929c1.45457,-1.58082 4.20718,-1.57279 6.07683,-2.2743c4.75846,-1.78541 9.83844,-4.76305 14.88678,-5.32033c0.07964,0.02195 0.1325,0.02634 0.1325,0.02634z" fill="#ffffff"/></g><path d="M253.40082,236.57113c0.09821,0.71374 0.068,1.54173 -0.02068,2.40075c0.40976,-1.18734 1.69563,-1.73848 2.6087,-2.31448c0,0 1.21519,-0.70471 1.75781,0.57211c0.0854,0.20094 0.12724,0.38771 0.13715,0.55979c0.07593,-0.10999 0.16262,-0.20046 0.25333,-0.27489c-0.37145,-0.96381 -0.24987,-2.1738 0.61416,-3.20099c0.54525,-0.64823 1.54344,-0.20296 2.31682,-0.30044c0.55095,-0.11645 1.0046,-0.1297 1.37122,-0.06283c-0.0028,-0.05019 -0.00321,-0.10124 -0.00115,-0.15304c0.0321,-0.80477 0.65339,-1.48373 1.38768,-1.51646l0.24313,-0.01084c-0.07744,-0.44475 -0.06413,-0.89958 0.0771,-1.31821c0.23856,-0.70717 1.07489,-0.83276 1.80886,-1.05795c0.52764,-0.50453 1.11123,-0.87032 1.67569,-0.97921c0.85633,-1.05819 2.17655,-1.91116 3.25461,-2.30061c-0.20271,-1.173 0.6619,-2.19681 1.97332,-3.13795c0.39495,-0.28344 1.0562,-0.41427 1.72135,-0.47995c0.32486,-0.12102 0.66293,-0.14889 0.99322,-0.06152c0.02325,-0.00084 0.04632,-0.00167 0.06917,-0.00246c0.2381,-0.43056 0.70402,-0.75757 1.2652,-0.99788l0.14831,-0.10801c0.63311,-0.30168 1.25848,-1.06356 1.89936,-0.90507c0.39208,0.09696 0.83146,0.24819 1.22681,0.46439c0.0941,0.00509 0.18172,0.01256 0.26169,0.02224c0,0 1.30191,0.18107 1.02599,1.62816c-0.04708,0.24695 -0.12405,0.4465 -0.21932,0.60761c-0.50106,1.38138 -2.4949,2.77871 -3.82583,2.5192c-0.12134,1.57899 -1.58832,2.59929 -3.0446,2.82509c0.43368,2.45493 -2.56742,4.89938 -4.90305,4.84781c0.04488,0.09975 0.07611,0.20881 0.09083,0.3292c0.28507,2.33392 -3.99985,4.66699 -5.85596,3.74627c-0.13743,0.19947 -0.26901,0.3166 -0.26901,0.3166l-1.3645,0.90889c-0.04666,0.00107 -0.094,0.00408 -0.1419,0.00862c-0.18901,0.38824 -0.52176,0.68808 -0.91244,0.80573c-0.08459,0.13515 -0.19799,0.27084 -0.3473,0.40376c-0.85499,0.76115 -1.52678,0.2197 -1.7656,-0.0333c-0.04805,0.5389 -0.27851,1.10079 -0.75182,1.64164c0.37174,0.23899 0.60825,0.68899 0.58723,1.21562c-0.0321,0.80477 -0.65339,1.48374 -1.38769,1.51647l-1.34303,0.05988c-0.99955,0.04115 -1.99359,-0.08352 -2.98958,-0.17125c0.02964,1.0527 0.01745,2.1125 -0.02086,3.1749c0.95065,0.21072 1.8108,0.53107 2.86852,0.83211c1.20023,0.3416 2.50621,0.73746 3.32588,1.72065c1.80201,2.16151 1.32611,6.84479 -0.39489,9.35623c-1.28748,1.87881 -3.95846,3.40266 -6.23213,4.21138c-0.10795,1.38287 -0.28165,2.76293 -0.54498,4.13415l-0.06042,1.515c-0.0321,0.80477 -0.65339,1.48373 -1.38768,1.51646c-0.60872,0.02716 -1.10402,-0.39831 -1.23733,-1.0031l-0.41139,-1.68667l0.04471,-0.01684c-0.02811,-0.06345 -0.05492,-0.12776 -0.08029,-0.19304c-0.29985,-0.77175 -0.17629,-1.66927 -0.03424,-2.56685l0.03411,-0.85524l0.02527,-0.00112c-0.00824,-0.01392 -0.01585,-0.0287 -0.0228,-0.04437c-0.00939,-0.02113 -0.01802,-0.04248 -0.02591,-0.06402c-0.91688,0.04614 -1.83654,0.01293 -2.70276,-0.06143c-0.05892,-0.00506 -0.11973,-0.0067 -0.1817,-0.00629c-0.46167,0.03421 -0.9306,0.05908 -1.40754,0.07689l-0.13722,-0.10646l-0.0215,0.08102l-1.42244,-0.32992c-0.5862,-0.12086 -1.00504,-0.68148 -0.9774,-1.37495c0.0321,-0.80477 0.65339,-1.48372 1.38768,-1.51646c0.03925,-0.00174 0.07805,-0.00162 0.11631,0.00032l1.5674,0.06245l-0.00192,0.01748c0.02001,-0.0047 0.04007,-0.00928 0.06013,-0.01374c0.6127,-0.13625 1.21661,-0.00152 1.82349,0.11939c0.67172,-0.07429 1.32222,-0.17352 1.95659,-0.31022c-0.73792,-0.31145 -0.69818,-1.30775 -0.69818,-1.30775l0.02669,-0.66907c0.0888,-2.22664 0.32537,-4.45145 0.61895,-6.67611c-1.43794,0.03746 -2.82402,-0.11139 -3.76579,-1.47059c-0.46399,-0.66964 -0.83313,-1.51399 -0.8203,-2.38932c0.00706,-0.48119 0.22378,-0.93648 0.47263,-1.37846c0.13504,-1.66675 1.30035,-3.41448 2.64327,-4.47643c-0.23908,-0.20749 -0.45042,-0.45453 -0.62286,-0.73092c-0.13232,0.1882 -0.28659,0.35428 -0.47251,0.48838c-1.45714,1.051 -2.9336,0.09349 -3.70926,-1.32571c-0.80757,-0.57779 -1.50492,-1.37594 -1.56151,-1.97453c-0.03727,-0.39425 -0.04061,-0.73714 -0.01431,-1.03739c-0.23868,0.01475 -0.48411,0.04036 -0.71495,0.0425c-0.64179,0.17462 -1.35745,-0.03568 -1.97943,-0.2155c-2.10037,-0.60726 -2.57904,-2.13983 -2.03654,-3.86292c-1.1133,1.0298 -2.92577,1.43358 -3.94581,0.57783c-1.02147,-0.85693 -1.27177,-1.9227 -1.04869,-2.94086c-0.21136,0.07012 -0.37132,0.07725 -0.37132,0.07725l-0.10369,-0.03444c-1.16392,0.51605 -3.53417,-0.9192 -3.90963,-1.87928c-0.2404,-0.6147 -0.36427,-1.10121 -0.3933,-1.50373c-0.32488,0.01816 -0.65264,0.00635 -0.9744,-0.03397c-0.42649,0.0009 -0.84516,-0.09524 -1.22736,-0.30733c-1.79473,-0.70099 -2.91266,-2.41898 -1.26439,-4.81531c0.3268,-0.47511 0.79536,-0.84678 1.3003,-1.10382c0.43089,-0.43384 0.83654,-0.93496 1.37408,-1.08435c0.14852,-0.04128 0.30716,-0.0737 0.47218,-0.09628c0.42724,-0.32563 0.8273,-0.59754 1.14941,-0.80038c0,0 1.19819,-0.74305 1.77736,0.51183c0.2432,0.52696 0.17302,0.96365 0.00972,1.29298c0.17304,0.25634 0.29014,0.56561 0.32945,0.93377c0.59466,0.55195 0.91085,1.36311 0.66864,2.56371c0.10129,0.0875 0.19911,0.20218 0.2903,0.35014c0.09015,0.14626 0.15108,0.28815 0.18872,0.42441c0.02146,0.00667 0.04309,0.01352 0.06487,0.02054c0.40344,0.13005 0.61724,0.46974 0.73746,0.9129l0.27986,-0.1623l0.27195,0.63994l0.05954,0.04978l-0.02422,0.03332l0.24981,0.58785l-0.06768,0.03923l0.28479,0.12004c-0.13779,0.30162 -0.24179,0.63521 -0.34069,0.97363c0.06683,0.10961 0.12009,0.24107 0.15231,0.39878c1.43676,-1.67817 3.96878,-2.4898 5.23583,-0.40224c0.01587,0.02613 0.03073,0.05331 0.04462,0.08142c0.29172,-0.59308 0.66459,-1.16006 1.06183,-1.67728c0,0 0.92675,-1.12849 1.88186,-0.20472c0.95511,0.92377 0.02835,2.05226 0.02835,2.05226c-0.06525,0.0705 -0.1357,0.13686 -0.20746,0.2022c0.58672,-0.06409 1.14925,0.01655 1.55675,0.37551c0.70125,0.61774 0.67952,1.76052 0.29904,2.82568c0.22961,0.04372 0.46397,0.16931 0.65504,0.44515c0.17462,0.1319 0.33072,0.34201 0.43815,0.66708c0.15539,0.47025 0.0991,0.84878 -0.03872,1.14169c0.03452,0.10155 0.0544,0.2049 0.0639,0.30584c0.23238,-0.09818 0.47248,-0.20033 0.71531,-0.31664c0,0 1.01879,-0.41162 1.49783,0.4683c0.69258,0.34972 1.09846,1.11675 1.22098,1.99607l0.36099,0.34916c0.75335,-0.83596 2.35907,-1.54711 3.54382,-1.23972c0.03025,-0.29648 0.06589,-0.51125 0.10829,-0.58791c0.00378,-0.07983 0.00729,-0.15976 0.01049,-0.23973l0.0223,-0.03898l0.00287,-0.02607l-0.01845,-0.00102l0.17898,-1.46254c0.08435,-0.75243 0.68045,-1.36801 1.37878,-1.39915c0.73428,-0.03274 1.30354,0.59311 1.27144,1.39788c-0.0017,0.04304 -0.0051,0.08568 -0.01012,0.1279l-0.18782,1.7116c-0.00009,0.00199 -0.00019,0.00402 -0.00029,0.00601zM252.57272,254.32525c-0.00188,0.02504 -0.00377,0.05008 -0.00566,0.07509c0.08863,1.78555 0.15853,3.58998 0.15606,5.39974c0.805,-0.47388 1.59952,-1.06648 2.39646,-1.80983c1.3105,-1.2224 2.44252,-1.93052 1.90096,-3.77809c-1.02821,-1.53089 -2.28101,-1.17928 -3.91707,-1.32224c-0.1406,-0.01228 -0.27866,-0.03737 -0.41549,-0.0686c-0.03872,0.50249 -0.0777,1.00398 -0.11528,1.50395zM253.26966,240.13531c-0.00614,-0.05449 -0.01085,-0.10802 -0.01418,-0.16061c-0.00878,0.06193 -0.01771,0.12386 -0.02679,0.18576c0.01291,-0.00816 0.02658,-0.01657 0.04095,-0.02514zM249.35535,247.4815l0.24143,0.11045c0.09585,-0.65013 0.19076,-1.30037 0.28246,-1.95074c-0.99211,0.53784 -1.75,1.24865 -0.5239,1.8403zM270.83441,230.53367c0.05658,-0.02877 0.11237,-0.05946 0.16722,-0.09232c0.29246,-0.17516 1.10565,-0.80787 0.80016,-0.66716c-0.54685,0.2519 -1.11831,0.42589 -1.6893,0.57018l0.80821,-0.04578c0,0 -0.0257,0.09693 -0.08629,0.23505zM238.83979,235.33305c-0.07409,-0.05543 -0.14672,-0.115 -0.21776,-0.17756c-0.01804,0.0588 -0.02054,0.10003 -0.00335,0.11861c0.05607,0.06065 0.13474,0.06784 0.22111,0.05895z" fill="#ffe04b" stroke="#000000" stroke-width="1.5" stroke-linecap="butt"/><g stroke="none" stroke-width="0.5" stroke-linecap="butt"><path d="M196.79874,166.03949c-0.86175,-2.95455 -0.27028,-6.47078 -0.51974,-9.46445c-0.1808,-2.16961 -0.62839,-4.22504 -0.88907,-6.35932c-0.8222,-6.73152 0.24308,-14.24999 0.36496,-21.04002c0.06271,-3.49363 0.12541,-6.98724 0.18812,-10.48085c0.01994,-1.11116 -0.30019,-3.61887 0.22399,-4.55632c1.33718,-2.39141 6.19666,-2.36791 8.42643,-2.50062c3.14152,-0.18697 7.39724,-2.14041 10.65881,-0.73028c0.9472,0.40953 1.53395,1.38774 2.37438,1.98659c2.2832,3.68784 1.87305,9.04784 1.79602,13.33946c-0.13033,7.26126 0.07501,14.57854 -0.05611,21.88353c-0.08062,4.49168 -0.4972,8.94279 -0.57823,13.45704c-0.00924,0.51504 -0.47344,3.73918 -0.17713,4.11762c0.43482,0.55534 3.70086,-0.71158 4.29136,-0.8172c3.67208,-0.65679 8.08253,-0.55592 11.80481,-0.51305c3.11427,0.07928 6.19407,-1.25288 9.33585,-1.51001c4.55486,-0.37277 9.21671,0.60192 13.77118,0.25035c0.59043,-0.04556 3.2759,-0.93525 3.33812,-0.94364c2.81722,-0.37956 6.09946,-0.24272 8.94978,-0.19156c0.31297,0.09047 0.62977,0.37421 0.93889,0.27139c0.76621,-0.25481 -0.10147,-1.61376 -0.0821,-2.42099c0.06,-2.50075 0.7539,-4.48597 0.80087,-7.10301c0.06885,-3.83596 -0.89216,-7.48646 -1.13803,-11.30229c-0.174,-2.70027 0.32505,-5.60072 -0.16207,-8.26234c-0.42374,-2.31525 -0.95257,-4.54538 -0.9161,-7.02628c0.07854,-4.3755 0.15707,-8.751 0.23561,-13.1265c0.01301,-0.725 0.00756,-3.68743 0.32816,-4.10063c1.03177,-1.32982 3.87269,-0.59953 5.23769,-0.70082c4.71439,-0.3498 9.62379,-0.50124 14.32053,0.25596c1.39147,0.02782 1.87386,-0.05291 3.32678,0.45843c4.70627,1.65628 4.07416,6.17194 4.32943,10.23037c0.43083,6.84973 0.09235,13.74273 -0.03095,20.61193c-0.1024,5.70485 -0.47698,11.54868 -0.98581,17.23845c-0.64123,7.17035 0.07808,14.57626 -0.05155,21.79841c-0.20742,11.5558 -0.41483,23.11162 -0.62225,34.66742c-0.05171,2.8808 0.59087,5.60932 -1.9701,7.66361c-3.14593,2.52354 -7.42571,1.58003 -10.88083,2.69119c-5.97507,1.92159 -12.42989,2.85068 -18.88761,2.73477c-3.22444,-0.06846 -6.46808,0.2779 -9.55124,0.81692c-2.20674,0.38581 -4.61366,-0.31957 -6.84065,-0.10694c-6.13752,0.586 -12.45011,0.11908 -18.63627,0.00804c-6.19224,-0.11115 -12.31009,0.11572 -18.51776,0.0043c-2.64486,-0.04747 -4.70144,-0.2264 -7.24821,-0.81899c-0.56027,-0.13036 -1.21875,0.12731 -1.71852,-0.15755c-2.67792,-1.52644 -2.53162,-6.27095 -2.49606,-8.84823c0.08368,-3.51413 -0.30055,-7.20202 -1.10768,-10.44553c-0.60761,-2.44171 0.28259,-5.47584 0.09735,-7.97188c-0.37092,-4.99824 -0.83821,-9.90006 -0.74764,-14.94599c0.08303,-4.62566 1.14467,-10.39148 0.28945,-14.91835c-0.19659,-1.04058 -0.55313,-2.06926 -0.61692,-3.12215zM199.61808,167.98682c0.06257,0.25359 0.12076,0.50761 0.16538,0.76275c0.83049,4.75022 -0.16754,10.54218 -0.25426,15.37355c-0.08916,4.96754 0.38805,9.78803 0.74019,14.709c0.15713,2.19578 -0.79178,5.40306 -0.18053,7.51067c0.99969,3.44694 1.24677,7.4225 1.19829,11.14374c-0.02889,1.2699 -0.2537,6.08346 1.26495,6.70678c2.17155,0.89131 5.41826,0.6284 7.83795,0.67183c6.20794,0.11143 12.32438,-0.11547 18.51777,-0.00431c6.11191,0.1097 12.33493,0.54922 18.39926,-0.00057c2.13487,-0.19356 4.52661,0.53064 6.62243,0.1347c3.22009,-0.60833 6.64595,-0.90294 10.00644,-0.85213c7.35585,0.13203 14.038,-1.69207 21.01963,-2.96439c2.15458,-0.39265 7.29393,-0.5713 8.25699,-3.11314c0.41251,-1.08875 -0.00543,-3.47226 0.01575,-4.65216c0.20742,-11.5558 0.41483,-23.11162 0.62225,-34.66742c0.1307,-7.28173 -0.57692,-14.73676 0.06065,-21.96865c0.49695,-5.63678 0.87529,-11.41798 0.97671,-17.06821c0.12243,-6.82102 0.44689,-13.66065 0.03293,-20.46252c-0.28215,-4.63624 0.27919,-8.31037 -5.46855,-8.40115c-4.58491,-0.73917 -9.3504,-0.58074 -13.95192,-0.25149c-0.99146,0.07094 -1.99141,0.03065 -2.9814,-0.05842c-0.18541,-0.01669 -0.47894,-0.30073 -0.54399,-0.1263c-0.27997,0.75071 0.19362,3.39517 0.17713,4.3138c-0.06847,3.81455 -0.13693,7.62907 -0.2054,11.44362c-0.05004,2.30729 0.47687,4.33402 0.86173,6.47303c0.50204,2.79028 0.02239,5.75966 0.209,8.57858c0.31353,4.73627 1.22369,9.15019 1.10235,13.94232c-0.02853,1.12636 -0.48947,2.19997 -0.76462,3.29259c-0.29091,1.15519 0.1969,2.40626 -0.041,3.57351c-0.15227,0.74715 -0.20935,1.68684 -0.82818,2.13236c-0.659,0.47443 -1.61792,0.14066 -2.42688,0.21099c-2.73383,-0.04907 -5.86848,-0.2004 -8.56429,0.16745c-1.17582,0.16043 -2.24729,0.85361 -3.42966,0.955c-4.57098,0.392 -9.25787,-0.61969 -13.82812,-0.24505c-3.24581,0.26609 -6.33607,1.55603 -9.57284,1.51746c-3.43705,-0.08944 -7.71551,-0.18268 -11.1066,0.42245c-1.35673,0.2421 -5.09966,1.73384 -6.50326,0.3358c-1.23357,-1.22867 -0.69697,-4.43611 -0.66905,-5.99176c0.08101,-4.51327 0.49764,-8.96733 0.57823,-13.45704c0.13932,-7.76181 -0.05837,-15.50556 0.08027,-23.22984c0.05124,-2.85476 0.49006,-7.96324 -1.14686,-10.28132c-0.59924,-0.40123 -0.95513,-1.13724 -1.60413,-1.45167c-0.77139,-0.37373 -1.71404,0.06073 -2.57104,0.04535c-2.97669,-0.05343 -5.34028,0.61701 -8.33338,0.85639c-0.65657,0.05252 -4.80668,0.51668 -5.12307,1.29749c-0.26602,0.65652 0.09452,2.65686 0.08069,3.42756c-0.06271,3.49363 -0.12541,6.98723 -0.18812,10.48084c-0.11945,6.65506 -1.22185,14.11002 -0.38301,20.69967c0.27613,2.16918 0.72198,4.25686 0.89967,6.46268c0.15421,1.91426 -0.20603,4.48291 -0.04303,6.76151c0.18195,0.2595 0.23133,0.53167 0.23133,0.53167l0.32175,1.80648c-0.00282,0.10069 -0.00175,0.20107 0.00267,0.30119c0.12539,0.29961 0.27537,0.58165 0.45418,0.84219c0,0 0.47575,0.74214 -0.02335,1.36263z" fill="#000000"/><path d="M199.59338,166.62317c-0.17881,-0.26055 -0.32875,-0.54344 -0.45415,-0.84306c-0.00441,-0.10013 -0.00547,-0.2008 -0.00263,-0.30149l-0.32164,-1.8083c0,0 -0.04932,-0.2727 -0.23128,-0.5322c-0.163,-2.27859 0.19834,-4.85386 0.04413,-6.76812c-0.17769,-2.20582 -0.62191,-4.29896 -0.89804,-6.46815c-0.83882,-6.58965 0.27126,-14.05816 0.39072,-20.71321c0.06271,-3.49363 0.12936,-6.99157 0.19207,-10.48519c0.01383,-0.77071 -0.34556,-2.77212 -0.07953,-3.42864c0.31637,-0.78081 4.46902,-1.24708 5.12559,-1.29959c2.99311,-0.23937 5.361,-0.91288 8.33771,-0.85945c0.85701,0.01538 1.80111,-0.41992 2.57248,-0.04621c0.64899,0.31443 1.05247,1.13398 1.6517,1.53521c1.63692,2.31809 1.20132,7.42459 1.15008,10.27936c-0.13864,7.72428 0.07204,15.45512 -0.06728,23.21694c-0.08059,4.48971 -0.48992,8.9265 -0.57092,13.43977c-0.02792,1.55565 -0.56351,4.7535 0.67006,5.98217c1.40361,1.39803 5.05039,-0.09474 6.40713,-0.33684c3.39109,-0.60512 7.66966,-0.51462 11.10672,-0.42519c3.23679,0.03857 6.34928,-1.28834 9.59509,-1.55443c4.57024,-0.37464 9.33021,0.66957 13.90119,0.27755c1.18237,-0.1014 2.25366,-0.79563 3.42946,-0.95607c2.69582,-0.36784 5.83094,-0.21368 8.56477,-0.16461c0.80896,-0.07033 1.67255,0.27592 2.33155,-0.19851c0.61884,-0.44552 0.67647,-1.38182 0.82875,-2.12898c0.2379,-1.16727 -0.24842,-2.41274 0.0425,-3.56792c0.27515,-1.09261 0.7377,-2.16203 0.76623,-3.28841c0.12134,-4.79212 -0.77934,-9.19193 -1.09287,-13.9282c-0.18661,-2.81892 0.29813,-5.78373 -0.2039,-8.57401c-0.38486,-2.139 -0.90801,-4.16313 -0.85798,-6.47041c0.06847,-3.81455 0.14114,-7.6267 0.20961,-11.44123c0.01649,-0.91861 -0.45565,-3.56241 -0.17568,-4.31312c0.06505,-0.17442 0.39905,0.02243 0.58445,0.0391c0.98999,0.08907 1.99175,0.13027 2.98322,0.05933c4.60152,-0.32925 9.37412,-0.48315 13.95902,0.25602c5.74774,0.09079 5.19132,3.7693 5.47348,8.40554c0.41396,6.80188 0.09704,13.65148 -0.02539,20.47251c-0.10142,5.65022 -0.47466,11.4446 -0.97162,17.0814c-0.63759,7.23189 0.06997,14.70828 -0.06073,21.99003c-0.20742,11.5558 -0.42707,23.13413 -0.63448,34.68994c-0.02118,1.17989 0.3951,3.56505 -0.01741,4.6538c-0.96305,2.54184 -6.10694,2.72426 -8.26152,3.11691c-6.98165,1.27232 -13.67747,3.10339 -21.0333,2.97136c-3.36048,-0.05081 -6.7943,0.24564 -10.01439,0.85398c-2.09582,0.39593 -4.49304,-0.3278 -6.62791,-0.13423c-6.06433,0.54982 -12.30223,0.10835 -18.41413,-0.00135c-6.19339,-0.11117 -12.32152,0.11052 -18.52946,-0.0009c-2.41968,-0.04343 -5.6703,0.21678 -7.84186,-0.67453c-1.51866,-0.62332 -1.29667,-5.43923 -1.26777,-6.70911c0.04848,-3.72124 -0.20328,-7.70159 -1.20297,-11.14851c-0.61126,-2.1076 0.3347,-5.31876 0.17757,-7.51454c-0.35213,-4.92096 -0.835,-9.7525 -0.74584,-14.72004c0.08672,-4.83139 1.08193,-10.63832 0.25147,-15.38854c-0.04461,-0.25514 -0.1028,-0.50997 -0.16537,-0.76356c0.4991,-0.62049 0.02334,-1.36404 0.02334,-1.36404z" fill="#ffffff"/></g><g><path d="M244.27554,183.04268c0.39308,10.95751 -7.96841,20.24481 -18.67593,20.74373c-10.70752,0.49893 -19.70634,-7.97945 -20.09942,-18.93696c-0.15388,-4.2896 -1.10797,-7.6029 2.46213,-9.05534c5.54945,-2.25771 17.12039,-1.59514 17.12039,-1.59514c0,0 11.05131,-1.74132 16.79482,0.13881c3.5086,1.14854 2.24896,4.54957 2.39804,8.70491z" fill="#000000" stroke="none" stroke-width="0" stroke-linecap="butt"/><path d="M235.46672,178.97014l-0.155,-4.32046l25.89359,-1.20654l0.155,4.32047z" fill="#000000" stroke="none" stroke-width="0" stroke-linecap="butt"/><path d="M293.35004,180.75601c0.39309,10.95751 -7.96841,20.2448 -18.67593,20.74373c-10.70752,0.49893 -19.70633,-7.97945 -20.09942,-18.93696c-0.15388,-4.2896 -1.10797,-7.6029 2.46213,-9.05534c5.54945,-2.25772 17.12039,-1.59513 17.12039,-1.59513c0,0 11.0513,-1.74132 16.79482,0.13881c3.50859,1.14854 2.24896,4.54957 2.39804,8.70491z" fill="#000000" stroke="none" stroke-width="0" stroke-linecap="butt"/><path d="M210.06531,184.21775l4.31487,-4.24457" fill="none" stroke="#ffffff" stroke-width="1.5" stroke-linecap="round"/><path d="M209.08845,181.63901l1.48987,-1.57401" fill="none" stroke="#ffffff" stroke-width="1.5" stroke-linecap="round"/><path d="M212.22256,186.17738l5.19442,-4.38887" fill="none" stroke="#ffffff" stroke-width="1.5" stroke-linecap="round"/><path d="M220.01545,183.59598l-4.91657,5.19422" fill="none" stroke="#ffffff" stroke-width="1.5" stroke-linecap="round"/><path d="M219.16998,189.98379l3.27771,-3.46281" fill="none" stroke="#ffffff" stroke-width="1.5" stroke-linecap="round"/><path d="M224.58485,189.60078l-2.08296,2.0436" fill="none" stroke="#ffffff" stroke-width="1.5" stroke-linecap="round"/><path d="M225.84244,192.82486l0.89678,-1.10443" fill="none" stroke="#ffffff" stroke-width="1.5" stroke-linecap="round"/><path d="M232.34576,196.94346l1.64747,-2.21148" fill="none" stroke="#ffffff" stroke-width="1.5" stroke-linecap="round"/><path d="M236.31671,195.57406l-2.24628,3.0011" fill="none" stroke="#ffffff" stroke-width="1.5" stroke-linecap="round"/><path d="M259.73596,177.4257l-2.67889,2.67319" fill="none" stroke="#ffffff" stroke-width="1.5" stroke-linecap="round"/><path d="M259.20285,182.69861l3.40945,-2.66008" fill="none" stroke="#ffffff" stroke-width="1.5" stroke-linecap="round"/><path d="M261.65231,184.66348l1.63599,-1.57139" fill="none" stroke="#ffffff" stroke-width="1.5" stroke-linecap="round"/><path d="M265.46565,183.93154l-2.24341,2.84109" fill="none" stroke="#ffffff" stroke-width="1.5" stroke-linecap="round"/><path d="M266.70887,187.95574l1.49848,-2.05408" fill="none" stroke="#ffffff" stroke-width="1.5" stroke-linecap="round"/><path d="M274.01172,188.24688l-3.27197,3.14278" fill="none" stroke="#ffffff" stroke-width="1.5" stroke-linecap="round"/><path d="M270.37322,187.38121l-2.8365,3.31067" fill="none" stroke="#ffffff" stroke-width="1.5" stroke-linecap="round"/><path d="M281.64089,194.78683l1.20626,-2.05932" fill="none" stroke="#ffffff" stroke-width="1.5" stroke-linecap="round"/><path d="M285.60897,193.57746l-1.94832,2.68631" fill="none" stroke="#ffffff" stroke-width="1.5" stroke-linecap="round"/></g><path d="M284.17025,210.22146l-0.79652,0.4156c-8.42069,7.81756 -18.92453,9.71718 -30.15882,9.50394c-10.11513,-1.18775 -19.86284,-5.72777 -27.49924,-12.31619c0,0 -0.01234,-0.01066 -0.03298,-0.03096c-0.8586,0.15932 -1.73973,0.32074 -2.67634,0.46106c0,0 -1.23648,0.18334 -1.41982,-1.05314c-0.18334,-1.23648 1.05315,-1.41982 1.05315,-1.41982c2.36484,-0.34656 4.4467,-0.83113 6.66915,-1.0938c0.05533,-0.05887 0.11935,-0.11699 0.19309,-0.17384c0.68192,-0.52575 1.25627,-0.2196 1.54767,0.02183c0.55239,-0.02986 1.11888,-0.04196 1.70516,-0.03143l0.4118,0.00739c0,0 1.2498,0.02243 1.22737,1.27223c-0.01071,0.59677 -0.30126,0.90347 -0.60196,1.06105c1.01305,0.44489 2.16866,0.63518 3.76528,1.08613c7.24834,2.04721 14.87149,3.5174 22.46458,3.65369c4.35197,0.07811 7.54859,-1.55334 11.64651,-2.83035c2.7622,-0.86077 5.77157,-0.89605 8.53328,-1.77979c-0.09317,-0.0723 -0.1855,-0.14598 -0.27696,-0.22114c0,0 -0.96192,-0.79826 -0.16366,-1.76018c0.79826,-0.96192 1.76018,-0.16366 1.76018,-0.16366c0.42003,0.35275 0.86764,0.66841 1.3327,0.95978c0.25189,0.01383 0.53031,0.12137 0.80551,0.40664c0.04214,0.04368 0.08013,0.08729 0.11423,0.13073c0.99417,0.54578 2.03437,1.02375 3.03228,1.5453l0.45153,0.14625c0,0 1.17858,0.41651 0.76207,1.59507c-0.41651,1.17858 -1.59507,0.76207 -1.59507,0.76207l-0.7765,-0.28774c-0.30704,-0.16048 -0.61564,-0.31758 -0.92437,-0.47384c-0.18288,0.39378 -0.55332,0.60711 -0.55332,0.60711zM253.38424,217.64674c9.15393,0.154 17.77214,-0.54193 24.96969,-6.64969c0.98151,-0.83289 1.91173,-1.04486 2.80196,-1.73094c-2.87903,0.91047 -5.94505,0.9901 -8.82959,1.90061c-4.33857,1.36947 -7.70974,3.00136 -12.34932,2.91809c-7.81183,-0.14022 -15.66724,-1.64847 -23.12802,-3.75573c-3.06033,-0.86437 -4.91539,-1.12279 -6.85754,-3.21195c-0.35945,0.03539 -0.71335,0.07772 -1.06395,0.12539c6.96692,5.54594 15.55019,9.34485 24.45679,10.40424z" fill="#000000" stroke="none" stroke-width="0.5" stroke-linecap="butt"/><g fill="#ffffff" stroke="#000000" stroke-width="2.5" stroke-linecap="round"><path d="M203.90635,290.48942l-10.51466,0.84795l-4.0702,-2.20469l-6.95325,-7.9708l-5.08775,-27.64341l-2.20469,-4.57897l2.37428,-7.97081l4.74856,-5.76611l1.18713,-0.33918l7.46203,-4.07019l7.12284,-3.22224l6.61407,0.67836l4.0702,2.54388l-3.39183,6.27489l-1.01755,1.69592l-13.39773,8.47957l5.08774,4.23979l7.46203,-3.05264l4.57897,3.05264l1.35673,7.29244l-11.53223,5.08774l-1.69591,4.40938l2.71346,6.95325l9.83631,-0.84796l6.10529,-3.39183l3.05264,5.93571l-2.03509,7.9708l-3.56143,4.2398l-5.25734,0.16958l-1.8655,1.18715z"/><path d="M208.58614,230.5065l4.573,-3.91972l11.10585,0.52263l1.95986,7.97008l4.18103,-0.26131l3.65839,7.18614l2.22118,7.57811l3.65839,9.40732l-3.26642,8.75402l0.9146,4.96497l-3.52775,6.66352l-3.78905,5.87957l-17.76937,3.78905l4.96497,-9.14601l-0.26131,-5.74891l-2.48249,-3.91972l-5.87957,3.78906l-10.32191,0.9146l-2.09052,-7.18615l3.39708,-5.4876l9.14601,-4.18103l-2.09051,-7.3168l-3.39708,-2.22117l-9.14601,2.22117l-5.09563,-3.78906l15.80951,-8.10074z"/></g></g></g></svg>