<svg version="1.1" xmlns="http://www.w3.org/2000/svg" xmlns:xlink="http://www.w3.org/1999/xlink" width="153.50039" height="368.07908" viewBox="0,0,153.50039,368.07908"><defs><radialGradient cx="201.98706" cy="82.48394" r="6.90405" gradientUnits="userSpaceOnUse" id="color-1"><stop offset="0" stop-color="#1a1a1a"/><stop offset="1" stop-color="#ffffff"/></radialGradient><radialGradient cx="237.18381" cy="79.15409" r="8.94704" gradientUnits="userSpaceOnUse" id="color-2"><stop offset="0" stop-color="#1a1a1a"/><stop offset="1" stop-color="#ffffff"/></radialGradient></defs><g transform="translate(-140.75816,-16.56325)"><g stroke-width="2" stroke-miterlimit="10"><path d="M212.13851,238.26325c5.83436,-0.39356 13.68011,-2.27855 19.50903,-3.69218c6.35554,-1.54133 15.06654,-0.64013 21.62322,-0.9187c3.8515,-0.16362 15.67088,0.23205 15.67088,0.23205l2.55044,6.4951l7.49521,20.83619l1.8214,24.34546c0,0 3.64831,30.79707 -0.44078,46.51036c-1.78811,6.87134 6.87346,14.69195 -1.99865,19.22299c-3.14171,1.60447 -10.74342,11.28838 -14.28952,11.43905c-5.14435,0.21856 -11.6215,-6.13931 -17.9716,-7.33271c-8.08548,-1.51954 -24.52956,2.95896 -24.52956,2.95896l-8.76371,-7.58966l0.97596,-22.35225c0,0 -0.98114,-33.1818 -0.71783,-54.62826c0.08655,-7.04717 -5.44684,-30.40481 -2.37845,-35.4639z" fill="#3c2c1f" stroke="#000000" stroke-linecap="round"/><path d="M244.29806,251.48662l2.76634,102.66301" fill="none" stroke="#000000" stroke-linecap="round"/><path d="M249.18243,361.70548c0.39269,11.59415 0.06534,21.46634 -11.00849,21.93685c-11.07382,0.47048 -29.09336,-20.23306 -29.09336,-20.23306c0,0 8.26608,-21.37451 19.3399,-21.84497c11.07382,-0.47048 20.36925,8.54702 20.76194,20.14121z" fill="#000000" stroke="#000000" stroke-linecap="butt"/><path d="M288.62937,356.5417c0.39268,11.59418 -2.31798,22.01344 -13.3918,22.48391c-11.0738,0.47048 -26.31736,-9.18597 -26.71006,-20.78014c-0.39268,-11.59418 8.26607,-21.3745 19.3399,-21.84497c11.07382,-0.47048 20.36925,8.54703 20.76194,20.14121z" fill="#000000" stroke="#000000" stroke-linecap="butt"/><path d="M226.13788,228.57805c-7.36223,4.91767 -27.73577,1.84645 -27.73577,1.84645l-56.43886,-55.27558l22.93257,-49.28456l20.94401,-3.90725l0.9245,7.57619l-12.66875,12.24142l-5.35905,43.81024c0,0 29.25691,18.69366 44.8886,14.18435c8.0805,-2.33102 15.74213,-7.80811 24.49952,-6.46459c25.96386,3.98325 4.11321,30.29131 -10.73796,35.44067z" fill="#feed00" stroke="#000000" stroke-linecap="round"/><g><path d="M262.28298,211.0335l17.92764,-8.58321l6.02206,29.65502l-4.94295,5.8056l-1.65137,-2.77167l-1.38574,5.69075l-6.50519,8.11197l-3.20426,-6.8655l-9.36813,2.85458l-0.34626,-15.34115c0,0 -6.34058,2.12443 -7.26697,-6.10099c-0.85199,-7.56515 10.62152,-12.81715 10.62152,-12.81715z" fill="#feed00" stroke="#000000" stroke-linecap="round"/><path d="M278.92218,224.05185l-3.86102,3.37533l-2.90761,-4.99575l-2.68784,-4.16659l6.47545,-6.00404l7.91526,-1.46581l-4.93425,13.25686z" fill="#ffa600" stroke="none" stroke-linecap="butt"/><path d="M258.61629,223.68834c0,0 -3.00921,3.12162 -4.33591,1.57703c-1.32667,-1.54461 -1.53641,-4.75499 -0.46846,-7.17056c1.06795,-2.41558 3.00921,-3.12162 4.33591,-1.57704c1.32667,1.54461 0.46847,7.17055 0.46847,7.17055z" fill="#ffa600" stroke="none" stroke-linecap="butt"/><path d="M265.40563,242.28135l-4.28011,1.55367l-0.46422,-7.07727l4.2801,-1.55368z" fill="#ffa600" stroke="none" stroke-linecap="butt"/><path d="M275.37163,243.19575l-3.83393,1.98479l-0.06962,-6.52951l3.83393,-1.98479z" fill="#ffa600" stroke="none" stroke-linecap="butt"/><path d="M285.31813,231.80887l-3.10022,2.48567l0.4578,-5.5621l3.10023,-2.48568z" fill="#ffa600" stroke="none" stroke-linecap="butt"/></g><g><path d="M198.12988,224.20517c2.35293,-2.53893 12.2375,0.15495 14.36747,7.64044c2.31585,8.1388 -3.85675,6.95825 -4.14977,8.78635c-0.05644,0.35203 9.66376,8.76212 9.13212,12.66305c-0.98253,7.20941 -9.44429,1.22461 -9.44429,1.22461l-0.23489,7.80907l-8.89951,-4.92638l-6.99036,-2.84469l3.16701,1.36291l-10.20632,-1.46647l-1.88333,-32.64264c0,0 10.6424,1.65301 15.19123,2.77627z" fill="#feed00" stroke="#000000" stroke-linecap="round"/><path d="M182.92447,231.19905l7.61825,-1.92629l3.99367,5.13136l-0.80532,5.04983l-0.68454,5.92304l-4.73229,-1.56748l-5.38974,-12.61049z" fill="#ffa600" stroke="none" stroke-linecap="butt"/><path d="M203.96162,228.02816c0.59304,-2.01005 2.59384,-2.15586 4.4689,-0.32568c1.87504,1.83019 2.91429,4.94331 2.32122,6.95335c-0.59304,2.01005 -2.59384,2.15588 -4.46889,0.3257c-1.87504,-1.83019 -2.91431,-4.9433 -2.32123,-6.95335z" fill="#ffa600" stroke="none" stroke-linecap="butt"/><path d="M208.62218,246.53794c0,0 2.56017,-2.13015 4.41018,-0.32439c1.85002,1.80577 2.87503,4.87875 2.28938,6.86366c-0.58566,1.98492 -4.41019,0.3244 -4.41019,0.3244z" fill="#ffa600" stroke="none" stroke-linecap="butt"/><path d="M196.36088,254.18458l7.75789,-1.67087l2.43203,6.18257l-4.17702,-0.26835z" fill="#ffa600" stroke="none" stroke-linecap="butt"/><path d="M183.04085,248.74212l3.71407,1.04699l2.53285,5.05045l-3.71405,-1.04698z" fill="#ffa600" stroke="none" stroke-linecap="butt"/></g><path d="M205.04055,203.55354c-0.93996,7.27495 -7.82821,28.00711 -7.82821,28.00711l-25.25419,-3.39486l6.57051,-25.11997l12.33309,-63.36581c0,0 5.18475,-10.22119 6.53719,-15.72675l1.17311,-0.10431c13.24855,1.20141 25.56597,6.18275 39.15748,2.634c5.43952,-1.42025 9.26979,-4.11264 12.84887,-8.91993c0.8183,-1.09912 3.23449,-3.79956 4.78212,-2.92329c3.48316,1.97221 8.45288,14.53376 8.45288,14.53376l20.23206,48.55111l6.49881,17.34777l-17.05104,20.50014l-5.22122,3.96761l-1.89202,-26.5093l-0.11464,27.95942l2.07334,15.5711c0,0 -9.91263,5.51551 -12.74671,6.24647c-11.464,2.95673 -23.68979,2.02863 -35.14043,5.02615c-3.72183,0.9743 -8.8823,5.66305 -12.44089,4.08057c-1.89661,-0.84343 -5.63872,-7.3619 -5.83364,-9.30419c-0.85817,-8.55084 -3.02639,-18.21437 -2.36904,-26.79246" fill="#fffe8a" stroke="#000000" stroke-linecap="round"/><path d="M216.81993,169.30823c1.28978,0.40896 4.67759,-0.32605 5.32752,1.32057c2.17975,5.52253 -1.28377,11.18955 -6.21657,10.67838c-3.28471,-0.34039 1.19443,-12.83578 1.19443,-12.83578c0,0 -2.32915,-26.44181 -1.11529,-39.5583" fill="#ffaf36" stroke="#000000" stroke-linecap="round"/><path d="M243.46071,166.47737c8.33579,-13.15461 10.29901,18.89029 -0.28076,11.20368c-5.72819,-4.16174 0.32234,-9.49762 0.54315,-12.36329c1.04212,-13.52646 -5.34219,-27.02783 -3.11353,-40.89653" fill="#ffaf36" stroke="#000000" stroke-linecap="round"/><path d="M208.41544,206.05432c3.20373,-3.61384 7.64704,-3.60887 11.75429,-4.89897c13.24729,-4.16103 28.40824,-5.14861 42.10063,-4.48194" fill="none" stroke="#000000" stroke-linecap="round"/><path d="M263.4275,232.23863c-1.09743,-9.87901 1.1772,-31.33577 1.1772,-31.33577" fill="none" stroke="#000000" stroke-linecap="round"/><path d="M209.38762,210.71882c0.95009,9.46702 -2.07332,20.34456 -1.32563,29.81785" fill="none" stroke="#000000" stroke-linecap="round"/><path d="M188.7317,230.86326l13.19074,-44.70353l-7.52562,43.39294z" fill="#fce541" stroke="#fcec41" stroke-linecap="round"/><path d="M186.03485,225.12426l13.19074,-44.70353l-7.52561,43.39294z" fill="#fce541" stroke="#fcec41" stroke-linecap="round"/><path d="M271.77634,208.4956l-6.14586,-33.96534l15.74067,26.25815z" fill="#fce541" stroke="#fcec41" stroke-linecap="round"/><path d="M207.03293,114.55844c14.13782,-1.96074 27.88011,-4.0117 42.20497,-2.36302c3.05492,0.3516 13.70999,1.87825 12.72628,6.56891c-1.33696,6.37505 -7.74368,9.47883 -13.61746,10.66641c-10.58902,2.14092 -35.40387,2.06561 -44.65144,-3.77875c-6.58149,-4.15941 -4.55337,-11.59743 3.48963,-11.30619z" fill="#fffe8a" stroke="#000000" stroke-linecap="round"/><g stroke-linecap="butt"><path d="M203.58108,53.70708l-10.88822,35.78332l-2.74273,15.01968l-0.51872,-2.16404l-3.95043,-17.33104l-7.68225,-43.82449l-1.84037,-17.51572l1.97005,-0.13756l15.22908,15.91016l11.16419,13.92675z" fill="#feed00" stroke="#000000"/><path d="M198.96392,56.1099l-5.80886,25.33696l-1.25834,10.4397l-0.40874,-1.4065l-3.14179,-11.286l-6.45498,-28.78507l-1.78575,-11.63622l1.26722,-0.30339l10.37505,9.12107l7.68299,8.21545z" fill="#ffa700" stroke="none"/></g><g stroke-linecap="butt"><path d="M239.37244,50.08896l6.34043,-14.27773c0,0 6.14004,-11.46435 9.36672,-16.92269c0.62792,-1.06226 0.78241,-2.17011 1.72213,-0.37304c1.46645,2.80436 2.49296,14.94214 2.49296,14.94214l3.59695,38.14584l0.63972,15.31082l0.05803,1.91805c0,0 -5.30729,-10.49126 -5.84461,-11.74511c-4.88923,-11.40926 -17.65958,-26.90594 -17.65958,-26.90594z" fill="#feed00" stroke="#000000"/><path d="M244.13378,50.89163l4.68153,-8.69365l6.78058,-10.10788l1.1577,-0.06218l1.173,10.06566l1.15369,25.40337c0,0 -0.10912,6.74104 -0.07179,10.11106c0.00469,0.42336 0.18955,1.11775 -0.02369,1.26435c-0.51362,0.353 -3.18974,-7.44437 -3.50643,-8.32377c-2.88181,-8.00222 -10.87349,-19.52087 -10.87349,-19.52087z" fill="#ffa700" stroke="none"/></g><path d="M218.53013,49.17028l30.99077,4.44076c0,0 7.35717,12.9082 10.12016,21.16967c0.84859,2.53733 3.48818,7.136 3.48818,7.136c0,0 -3.20966,39.58544 -24.19067,43.77749c-17.57254,3.51106 -50.3411,-12.69614 -50.3411,-12.69614l-1.6603,-32.17133l0.43687,-11.87626l31.53302,-19.53942z" fill="#feed00" stroke="#000000" stroke-linecap="butt"/><path d="M260.01749,86.56602c4.30582,-0.00019 12.04471,9.78063 12.04471,9.78063l-7.22583,4.24868l1.6086,2.32588l1.81258,8.27467c0,0 -10.70696,4.33232 -13.94413,1.6796" fill="#feed00" stroke="#000000" stroke-linecap="round"/><path d="M196.41383,120.96549l-14.01838,0.8636l0.29005,-8.4659l1.16258,-2.57792l-7.87376,-2.87537l10.08258,-11.79311" fill="#feed00" stroke="#000000" stroke-linecap="round"/><path d="M185.03164,92.68001l-38.01239,-14.01131" fill="none" stroke="#000000" stroke-linecap="round"/><path d="M153.10171,92.40201l32.39149,1.47153" fill="none" stroke="#000000" stroke-linecap="round"/><path d="M184.64975,94.30325l-26.30669,5.56683" fill="none" stroke="#000000" stroke-linecap="round"/><path d="M262.80231,84.19471l28.6076,-21.31067" fill="none" stroke="#000000" stroke-linecap="round"/><path d="M260.25615,85.3088c10.20801,-8.79098 33.0024,-6.7374 33.0024,-6.7374" fill="none" stroke="#000000" stroke-linecap="round"/><path d="M263.88453,86.39077l27.42124,1.85944" fill="none" stroke="#000000" stroke-linecap="round"/><path d="M219.67363,99.07843c3.70471,-0.33694 7.58353,-0.93194 11.30319,-0.80782c0.47209,0.01575 1.25487,-0.25735 1.40418,0.19082c0.19557,0.58704 -6.10132,4.94978 -6.87065,4.96244c-1.72995,0.02848 -4.62564,-3.0996 -5.42039,-4.38329z" fill="#000000" stroke="#000000" stroke-linecap="round"/><path d="M218.94363,80.40829c0.64111,7.04905 -4.46697,13.27525 -11.4092,13.90668c-6.94225,0.6314 -13.73086,-11.62017 -13.73086,-11.62017c0,0 4.46695,-13.27524 11.40917,-13.90665c6.94225,-0.6314 13.08977,4.5711 13.73088,11.62015z" fill="#ffffff" stroke="#000000" stroke-linecap="butt"/><path d="M253.82941,76.81115c0.64111,7.04905 -4.46695,13.27525 -11.40918,13.90667c-6.94225,0.6314 -13.08973,-4.57112 -13.73086,-11.62015c-0.64111,-7.04905 4.46695,-13.27525 11.40917,-13.90667c6.94225,-0.6314 13.08973,4.57112 13.73085,11.62016z" fill="#ffffff" stroke="#000000" stroke-linecap="butt"/><path d="M207.93713,81.1448c0.3174,3.48966 -2.12156,9.02196 -5.477,9.32714c-3.35544,0.30518 -6.35674,-4.73232 -6.67415,-8.22199c-0.3174,-3.48966 2.14544,-6.56599 5.50088,-6.87116c3.35545,-0.30518 6.33285,2.27634 6.65026,5.76601z" fill="url(#color-1)" stroke="#000000" stroke-linecap="butt"/><path d="M244.38352,77.35245c0.39862,4.38284 -1.95046,11.56153 -6.16472,11.94484c-4.21428,0.38331 -8.69794,-6.17394 -9.09655,-10.55682c-0.39862,-4.38284 2.69458,-8.24659 6.90887,-8.62986c4.21428,-0.38331 7.95378,2.85898 8.35241,7.24186z" fill="url(#color-2)" stroke="#000000" stroke-linecap="butt"/><path d="M201.40834,56.67416l7.35747,-6.8206l3.54516,-2.10477l-4.923,-1.78537l13.51891,-3.26786l4.23341,-0.38958l-6.11166,-2.98027l5.54783,0.793l12.1715,9.55795" fill="#feed00" stroke="#000000" stroke-linecap="butt"/><path d="M189.42644,74.59464l-4.62143,-4.51844l-5.99575,-2.54809l7.04432,-4.11254l7.50544,-3.88818" fill="#feed00" stroke="#000000" stroke-linecap="butt"/><path d="M242.20364,123.12874c-2.58622,-1.01235 -4.271,-3.64891 -6.62092,-5.17713" fill="none" stroke="#fcec41" stroke-linecap="round"/><path d="M225.99945,134.63772l-0.34679,9.57814" fill="none" stroke="#fcec41" stroke-linecap="round"/><path d="M227.22208,141.27177l0.17762,-4.90588" fill="none" stroke="#fcec41" stroke-linecap="round"/><path d="M233.34236,136.31835l0.5655,3.76319" fill="none" stroke="#fcec41" stroke-linecap="round"/></g></g></svg>