<svg version="1.1" xmlns="http://www.w3.org/2000/svg" xmlns:xlink="http://www.w3.org/1999/xlink" width="153.42842" height="309.53054" viewBox="0,0,153.42842,309.53054"><defs><linearGradient x1="331.85068" y1="169.19385" x2="319.91929" y2="348.03841" gradientUnits="userSpaceOnUse" id="color-1"><stop offset="0" stop-color="#353535"/><stop offset="1" stop-color="#565656"/></linearGradient><linearGradient x1="297.22116" y1="160.49032" x2="284.74261" y2="347.53657" gradientUnits="userSpaceOnUse" id="color-2"><stop offset="0" stop-color="#6c8dd1"/><stop offset="1" stop-color="#002994"/></linearGradient><linearGradient x1="366.56969" y1="161.43937" x2="354.09113" y2="348.48563" gradientUnits="userSpaceOnUse" id="color-3"><stop offset="0" stop-color="#6c8dd1"/><stop offset="1" stop-color="#002994"/></linearGradient><linearGradient x1="332.2012" y1="168.7474" x2="330.69979" y2="191.2526" gradientUnits="userSpaceOnUse" id="color-4"><stop offset="0" stop-color="#dadada"/><stop offset="1" stop-color="#bebebe"/></linearGradient><linearGradient x1="330.67773" y1="75.66274" x2="330.67773" y2="182.09835" gradientUnits="userSpaceOnUse" id="color-5"><stop offset="0" stop-color="#dadada"/><stop offset="1" stop-color="#bebebe"/></linearGradient><linearGradient x1="332.19231" y1="74.72162" x2="328.82829" y2="113.22682" gradientUnits="userSpaceOnUse" id="color-6"><stop offset="0" stop-color="#dadada"/><stop offset="1" stop-color="#bebebe"/></linearGradient><linearGradient x1="329.91306" y1="52.85195" x2="329.91306" y2="89.92487" gradientUnits="userSpaceOnUse" id="color-7"><stop offset="0" stop-color="#dadada"/><stop offset="1" stop-color="#bebebe"/></linearGradient></defs><g transform="translate(-253.78653,-43.38927)"><g stroke-miterlimit="10"><g stroke-width="2.5" stroke-linejoin="miter"><path d="M276.72283,344.39978l7.87012,-147.27579c0,0 7.79772,-25.69821 16.83133,-26.10344c8.97111,-0.40242 30.2087,-0.95905 48.78234,-1.79223c20.1453,-0.90368 25.9512,16.2629 25.9512,16.2629l-11.31989,162.54719z" fill="url(#color-1)" stroke="#000000" stroke-linecap="butt"/><path d="M263.8065,343.73108l7.27555,-141.75369c0,0 3.70162,-17.19302 8.12336,-17.61683c4.39116,-0.42087 26.35845,-16.36148 35.44984,-17.23287c9.86068,-0.94512 -9.98485,19.10912 -9.98485,19.10912c0,0 -0.99539,30.56597 -1.60282,59.55455c-0.32919,15.71033 -0.54443,30.95736 -0.42553,40.62468c0.32221,26.19743 4.01222,61.12053 4.01222,61.12053c0,0 -25.58627,2.47305 -33.19982,1.79685c-6.48831,-0.57626 -9.64796,-5.60235 -9.64796,-5.60235z" fill="url(#color-2)" stroke="#000000" stroke-linecap="butt"/><path d="M333.39394,351.63639c0,0 8.01606,-35.78872 11.71901,-62.2838c3.88781,-27.8179 11.08031,-100.84859 11.08031,-100.84859c0,0 -16.14395,-17.39295 -6.95242,-17.85667c8.47445,-0.42754 28.82482,7.891 32.918,7.68449c4.12169,-0.20794 7.57916,19.77368 7.57916,19.77368l-15.37745,143.52764c0,0 0.37291,6.13095 -5.75692,7.62773c-7.31509,1.7862 -35.20969,2.37552 -35.20969,2.37552z" fill="url(#color-3)" stroke="#000000" stroke-linecap="butt"/><path d="M344.60738,180c-0.4146,6.21464 -6.64125,11.2526 -13.90759,11.2526c-7.26635,0 -12.82078,-5.03796 -12.40617,-11.2526c0.4146,-6.21464 6.64125,-11.2526 13.90759,-11.2526c7.26635,0 12.82078,5.03796 12.40617,11.2526z" fill="url(#color-4)" stroke="#000000" stroke-linecap="butt"/><path d="M315.66954,231.00686l26.9871,0.26475" fill="none" stroke="#ffffff" stroke-linecap="round"/><path d="M327.67098,245.56825l1.67795,-25.1515" fill="none" stroke="#ffffff" stroke-linecap="round"/><path d="M339.44486,219.88725l-9.88453,9.26634" fill="none" stroke="#ffffff" stroke-linecap="round"/><path d="M336.30221,239.21419l-8.45404,-8.20733l-8.34807,-9.79585" fill="none" stroke="#ffffff" stroke-linecap="round"/><path d="M328.90717,231.00686l-9.65511,9.79585" fill="none" stroke="#ffffff" stroke-linecap="round"/><path d="M352.9663,231.50694l2.70107,-12.70812l14.73784,1.32376l-0.72417,10.85486" fill="none" stroke="#000000" stroke-linecap="round"/><path d="M361.89508,236.56666l-12.52812,112.38782" fill="none" stroke="#000000" stroke-linecap="round"/><path d="M290.75086,346.5717l1.1349,-112.2551" fill="none" stroke="#000000" stroke-linecap="round"/><path d="M287.40263,234.05185l-0.1584,-9.53109l11.63145,0.26475l0.58193,11.11961" fill="none" stroke="#000000" stroke-linecap="round"/></g><g stroke-linecap="butt"><path d="M385.32814,131.1052c-1.94104,28.48816 -27.92848,52.9286 -58.11114,50.8721c-30.18266,-2.05649 -53.13099,-29.83117 -51.18995,-58.31932c1.94104,-28.48815 27.98246,-49.91526 58.16512,-47.85875c30.18266,2.05649 53.07703,26.81782 51.13599,55.30597z" fill="url(#color-5)" stroke="#000000" stroke-width="2.5" stroke-linejoin="miter"/><path d="M339.49003,129.15566c0,28.78589 -8.99421,52.31392 -8.99421,52.31392c0,0 -8.57482,-23.52803 -8.57482,-52.31392c0,-8.62488 -5.89369,-24.1785 -5.26862,-31.34372c1.46112,-16.74899 10.65522,-20.77775 14.05314,-20.77775c3.20425,0 12.25457,6.27488 13.78901,21.48043c0.78885,7.81717 -5.00449,20.86704 -5.00449,30.64104z" fill-opacity="0.23529" fill="#000000" stroke="none" stroke-width="0" stroke-linejoin="round"/></g><path d="M344.92971,121.19791c0.01376,2.70881 -6.62742,4.93852 -14.83351,4.98021c-8.20609,0.04169 -14.86959,-2.12043 -14.88334,-4.82924c-0.01376,-2.70881 6.62743,-4.93852 14.83352,-4.98021c8.20609,-0.04169 14.86959,2.12043 14.88335,4.82924z" fill-opacity="0.23137" fill="#000000" stroke="none" stroke-width="0" stroke-linecap="butt" stroke-linejoin="miter"/><path d="M309.75523,119.75376c-0.15191,2.2297 -2.25895,3.90205 -4.70617,3.73531c-2.44723,-0.16674 -4.30794,-2.10944 -4.15603,-4.33913c0.15191,-2.22971 2.25895,-3.90205 4.70617,-3.73531c2.44723,0.16674 4.30793,2.10943 4.15602,4.33914z" fill="#ffffff" stroke="#000000" stroke-width="2.5" stroke-linecap="butt" stroke-linejoin="miter"/><path d="M358.92939,119.76468c-0.15191,2.22971 -2.25895,3.90205 -4.70617,3.73531c-2.44723,-0.16674 -4.30793,-2.10944 -4.15602,-4.33913c0.15191,-2.2297 2.25894,-3.90204 4.70617,-3.7353c2.44723,0.16674 4.30794,2.10943 4.15603,4.33913z" fill="#ffffff" stroke="#000000" stroke-width="2.5" stroke-linecap="butt" stroke-linejoin="miter"/><path d="M367.81608,116.1655l-3.36249,10.45249l-18.59258,0.62715l-1.97793,-11.49774l-27.69107,-0.20905l-1.18676,10.87059l-21.16389,0.4181l-3.16469,-10.0344" fill="none" stroke="#000000" stroke-width="2.5" stroke-linecap="round" stroke-linejoin="miter"/><path d="M296.94817,115.93322c0,0 5.29523,-1.87761 7.84694,-1.98248c2.53506,-0.10418 7.4137,1.35533 7.4137,1.35533" fill="none" stroke="#000000" stroke-width="2.5" stroke-linecap="round" stroke-linejoin="miter"/><path d="M348.37444,115.09702c0,0 4.57648,-1.51578 6.91119,-1.44395c2.18473,0.06722 6.67705,1.86205 6.67705,1.86205" fill="none" stroke="#000000" stroke-width="2.5" stroke-linecap="round" stroke-linejoin="miter"/><g stroke-linecap="butt" stroke-linejoin="miter"><path d="M405.96495,100.56633c-0.92895,10.63292 -35.4642,16.30121 -77.13666,12.66049c-41.67246,-3.64073 -74.70158,-15.2118 -73.77264,-25.84472c0.92895,-10.63292 35.4642,-16.3012 77.13665,-12.66048c41.67246,3.64073 74.70159,15.21179 73.77264,25.84471z" fill="url(#color-6)" stroke="#000000" stroke-width="2.5"/><path d="M391.2164,99.33864c-0.56892,6.51201 -29.76851,9.28028 -65.2191,6.18313c-35.4506,-3.09715 -63.72778,-10.8869 -63.15885,-17.39891c0.43933,-5.02871 17.95188,-7.82493 42.23189,-7.41164c-11.6619,0.73847 -19.25175,2.76019 -19.5126,5.74593c-0.45899,5.25366 21.94732,11.50264 50.04589,13.95748c28.09857,2.45484 51.24905,0.18594 51.70804,-5.06771c0.01898,-0.21722 -0.00114,-0.43613 -0.05911,-0.65642c2.68481,1.56849 4.09539,3.14247 3.96385,4.64815z" fill-opacity="0.21961" fill="#000000" stroke="none" stroke-width="0"/></g><path d="M327.00078,89.92487c0,0 -1.32377,-25.83343 -1.32377,-31.92986c0,-0.72518 -4.51177,-1.31967 -5.9314,-2.65717c-3.37018,-3.1752 -5.55267,-7.70498 -5.55267,-7.70498c0,0 10.71889,6.72279 12.6907,6.64559c1.56655,-0.06133 2.35615,-1.4265 2.76467,-1.4265c0.36363,0 2.11892,1.17142 3.59452,1.23346c2.62613,0.11041 14.95192,-6.97005 14.95192,-6.97005c0,0 -3.22996,4.86048 -7.29147,7.98179c-2.30262,1.76959 -6.48942,2.01261 -6.48942,2.89787c0,6.09642 -1.58852,31.92986 -1.58852,31.92986c0,0 7.45362,5.92074 6.79473,6.47538c-0.67191,0.5656 -9.46143,-4.23471 -9.97176,-4.23471c-0.4386,0 -8.31718,4.13934 -8.84685,3.60811c-0.58464,-0.58637 6.19932,-5.84878 6.19932,-5.84878z" fill="url(#color-7)" stroke="#000000" stroke-width="2.5" stroke-linecap="butt" stroke-linejoin="miter"/><path d="M319.28565,175.26157l2.10285,-3.55319l18.81496,1.1844l0.44271,2.60567z" fill="none" stroke="#000000" stroke-width="2.5" stroke-linecap="round" stroke-linejoin="miter"/></g></g></svg>