<svg version="1.1" xmlns="http://www.w3.org/2000/svg" xmlns:xlink="http://www.w3.org/1999/xlink" width="160.82139" height="323.04681" viewBox="0,0,160.82139,323.04681"><defs><linearGradient x1="309.02827" y1="169.89488" x2="314.67083" y2="348.6504" gradientUnits="userSpaceOnUse" id="color-1"><stop offset="0" stop-color="#2982c1"/><stop offset="1" stop-color="#000000"/></linearGradient><linearGradient x1="384.85785" y1="138.28172" x2="345.40626" y2="139.52704" gradientUnits="userSpaceOnUse" id="color-2"><stop offset="0" stop-color="#a636f3"/><stop offset="1" stop-color="#581b7d"/></linearGradient><linearGradient x1="231.19538" y1="148.62387" x2="270.64696" y2="147.37855" gradientUnits="userSpaceOnUse" id="color-3"><stop offset="0" stop-color="#a636f3"/><stop offset="1" stop-color="#581b7d"/></linearGradient><radialGradient cx="269.85769" cy="98.02667" r="25.84387" gradientUnits="userSpaceOnUse" id="color-4"><stop offset="0" stop-color="#000000" stop-opacity="0.92549"/><stop offset="1" stop-color="#000000" stop-opacity="0"/></radialGradient><linearGradient x1="223.04946" y1="75.21048" x2="288.35751" y2="80.37042" gradientUnits="userSpaceOnUse" id="color-5"><stop offset="0" stop-color="#a636f3"/><stop offset="1" stop-color="#16031b"/></linearGradient><radialGradient cx="341.928" cy="90.60351" r="25.35587" gradientUnits="userSpaceOnUse" id="color-6"><stop offset="0" stop-color="#000000" stop-opacity="0.92549"/><stop offset="1" stop-color="#000000" stop-opacity="0"/></radialGradient><linearGradient x1="386.32554" y1="67.49639" x2="321.47293" y2="76.76496" gradientUnits="userSpaceOnUse" id="color-7"><stop offset="0" stop-color="#a636f3"/><stop offset="1" stop-color="#16031b"/></linearGradient></defs><g transform="translate(-224.40472,-25.44881)"><g stroke-miterlimit="10"><path d="M271.13844,346.38409l-6.60079,-147.14079c0,0 5.26949,-25.87735 14.25879,-26.56653c8.92711,-0.68441 30.09945,-1.90964 48.58201,-3.32665c20.0465,-1.53691 27.5358,15.40181 27.5358,15.40181l4.65286,162.48128z" fill="url(#color-1)" stroke="#000000" stroke-width="2.5" stroke-linecap="butt"/><path d="M333.07771,180.92421c0.01618,8.52294 -9.66155,15.45054 -21.61581,15.47324c-11.95426,0.02269 -21.6582,-6.86811 -21.67438,-15.39106c-0.01618,-8.52294 9.66153,-15.45054 21.61579,-15.47324c11.95426,-0.02269 21.65821,6.86812 21.67439,15.39106z" fill="#f2f2f2" stroke="#000000" stroke-width="1.5" stroke-linecap="butt"/><path d="M327.43827,181.3826c0.01216,6.40344 -7.2589,11.60828 -16.24035,11.62533c-8.98145,0.01704 -16.2722,-5.16014 -16.28436,-11.56359c-0.01216,-6.40344 7.25889,-11.60828 16.24034,-11.62533c8.98145,-0.01704 16.27221,5.16015 16.28437,11.56359z" fill="#a636f3" stroke="#000000" stroke-width="2.5" stroke-linecap="butt"/><path d="M362.799,108.90169c4.80181,0.26682 8.0137,-2.1965 12.34633,-3.4015c0.65987,-0.18353 4.28049,-1.97918 4.79908,-1.38771c0.39987,0.45605 -1.0146,3.685 -1.18025,4.24499c-0.56399,1.90653 -5.42632,12.31193 -5.27966,13.08469c0.54085,2.84977 9.07161,-1.93482 10.49162,-0.73202c1.3007,1.10174 -1.35164,5.21979 -1.8248,6.13958c-1.33871,2.60225 -7.64737,15.97376 -7.48022,18.02269c0.26605,3.26105 4.67968,6.7826 3.36289,11.14737c-0.64616,2.14184 -2.56507,-0.91661 -3.50608,-0.50117c-0.95839,0.42312 -0.50442,4.54913 -0.46793,5.42111c0.14872,3.55396 0.24852,7.53515 -0.32009,11.08033c-0.05857,0.36518 0.01737,0.91347 -0.28748,1.06742c-0.75931,0.38346 -9.65235,-8.30085 -11.06666,-9.27693c-6.88486,-4.75158 -13.70282,-12.27903 -16.00197,-21.43494c-3.47343,-13.83222 0.4273,-33.71757 16.06824,-32.85112z" fill="url(#color-2)" stroke="#000000" stroke-width="2.5" stroke-linecap="round"/><path d="M251.74288,118.51076c15.55516,-1.85118 20.70226,17.74856 18.10813,31.7723c-1.71713,9.28269 -8.04676,17.22515 -14.61824,22.40149c-1.34993,1.06335 -9.67757,10.29123 -10.45954,9.95643c-0.31396,-0.13441 -0.27274,-0.6864 -0.35422,-1.04716c-0.79106,-3.50225 -0.94256,-7.48181 -1.01828,-11.03807c-0.01859,-0.87255 0.17427,-5.01898 -0.8089,-5.38081c-0.96533,-0.35528 -2.68752,2.81811 -3.46748,0.72129c-1.58945,-4.27302 2.5933,-8.06593 2.65315,-11.33727c0.03761,-2.05541 -7.10182,-15.00241 -8.60198,-17.51505c-0.53024,-0.88811 -3.43701,-4.83069 -2.20839,-6.01227c1.34132,-1.28996 10.15685,2.94708 10.5169,0.06888c0.09763,-0.78047 -5.41126,-10.85849 -6.09437,-12.72566c-0.20064,-0.54842 -1.81593,-3.68173 -1.44563,-4.16209c0.48025,-0.62299 4.20691,0.94073 4.87704,1.08228c4.39999,0.92936 7.76086,3.1852 12.53627,2.61607z" fill="url(#color-3)" stroke="#000000" stroke-width="2.5" stroke-linecap="round"/><path d="M362.52405,128.32434c-1.04127,28.53522 -26.24467,53.7834 -56.47719,52.68019c-30.23252,-1.1032 -54.04572,-28.14003 -53.00445,-56.67524c1.04127,-28.53521 26.3937,-50.77326 56.62622,-49.67004c30.23252,1.1032 53.89671,25.12988 52.85544,53.66509z" fill="#a636f3" stroke="#000000" stroke-width="2.5" stroke-linecap="butt"/><path d="M321.83316,119.69656c0.09922,2.70703 -6.46831,5.14516 -14.669,5.44573c-8.20069,0.30057 -14.92909,-1.65024 -15.02829,-4.35727c-0.09922,-2.70703 6.46832,-5.14516 14.66901,-5.44573c8.20069,-0.30057 14.92909,1.65024 15.0283,4.35726z" fill-opacity="0.23137" fill="#000000" stroke="none" stroke-width="0" stroke-linecap="butt"/><path d="M275.7216,118.19927c-12.06079,6.85315 -24.46335,3.37716 -27.7019,-7.76386c-3.23854,-11.14102 3.91329,-25.72818 15.97409,-32.58133c12.06079,-6.85315 24.46335,-3.37716 27.70189,7.76386c3.23854,11.14102 -3.91329,25.72817 -15.97408,32.58133z" fill="url(#color-4)" stroke="#000000" stroke-width="0" stroke-linecap="butt"/><path d="M283.61702,95.64062l-13.51228,12.78809l-12.74673,7.83871l-16.01505,-2.24962l-15.68566,-38.63789l0.40307,-38.27776l25.80463,39.55457l36.50528,3.55239z" fill="url(#color-5)" stroke="#000000" stroke-width="2.5" stroke-linecap="round"/><path d="M319.7772,79.80462c2.48169,-11.10928 14.41074,-15.2803 26.64429,-9.31623c12.23355,5.96407 20.139,19.80475 17.65731,30.91403c-2.48169,11.10928 -14.41075,15.2803 -26.6443,9.31623c-12.23355,-5.96407 -20.13899,-19.80475 -17.6573,-30.91402z" fill="url(#color-6)" stroke="#000000" stroke-width="0" stroke-linecap="butt"/><path d="M321.45002,76.60475l36.20856,-5.84766l23.2586,-41.10329l2.8164,38.17614l-13.21759,39.55025l-15.84128,3.25519l-13.21572,-7.01918l-14.29191,-11.91044z" fill="url(#color-7)" stroke="#000000" stroke-width="2.5" stroke-linecap="round"/><path d="M298.00694,88.18298c0,0 -1.17607,0.8808 -2.53512,1.67808c-1.05356,0.61807 -2.21711,1.18593 -3.02796,1.25432c-0.75507,0.06367 -1.85537,-0.32986 -2.84502,-0.78685c-1.23762,-0.57151 -2.3022,-1.24226 -2.3022,-1.24226" fill="none" stroke-opacity="0.40392" stroke="#000000" stroke-width="2.5" stroke-linecap="round"/><path d="M327.67608,88.18985c0,0 -1.36077,0.55433 -2.87741,0.98149c-1.17574,0.33115 -2.44515,0.5859 -3.2469,0.44674c-0.74659,-0.12958 -1.71138,-0.78888 -2.55307,-1.48158c-1.05257,-0.86625 -1.91263,-1.78471 -1.91263,-1.78471" fill="none" stroke-opacity="0.40392" stroke="#000000" stroke-width="2.5" stroke-linecap="round"/><path d="M312.48193,84.69995c0,0 -1.12735,0.94234 -2.4419,1.81104c-1.01907,0.67344 -2.15062,1.30263 -2.95667,1.41422c-0.75059,0.1039 -1.87034,-0.23032 -2.88298,-0.63382c-1.26636,-0.5046 -2.36524,-1.11756 -2.36524,-1.11756" fill="none" stroke-opacity="0.40392" stroke="#000000" stroke-width="2.5" stroke-linecap="round"/><path d="M358.93787,126.37025c0,0 -0.89679,0.53967 -1.89832,0.95058c-0.77642,0.31854 -1.61579,0.55972 -2.14911,0.41209c-0.49662,-0.13748 -1.14362,-0.80681 -1.70934,-1.50822c-0.70744,-0.87715 -1.28772,-1.80444 -1.28772,-1.80444" fill="none" stroke-opacity="0.40392" stroke="#000000" stroke-width="2.5" stroke-linecap="round"/><path d="M359.65287,134.85423c0,0 -0.89679,0.53967 -1.89832,0.95059c-0.77642,0.31854 -1.61579,0.55972 -2.14911,0.41209c-0.49662,-0.13748 -1.14362,-0.80681 -1.70934,-1.50822c-0.70744,-0.87715 -1.28772,-1.80444 -1.28772,-1.80444" fill="none" stroke-opacity="0.40392" stroke="#000000" stroke-width="2.5" stroke-linecap="round"/><path d="M358.09249,143.41001c0,0 -0.89679,0.53967 -1.89832,0.95059c-0.77642,0.31854 -1.61578,0.55972 -2.1491,0.41209c-0.49663,-0.13747 -1.14363,-0.8068 -1.70935,-1.50821c-0.70744,-0.87715 -1.28772,-1.80444 -1.28772,-1.80444" fill="none" stroke-opacity="0.40392" stroke="#000000" stroke-width="2.5" stroke-linecap="round"/><path d="M263.18633,125.40829c0,0 -0.52065,0.96205 -1.17135,1.88206c-0.52035,0.73569 -1.12385,1.4445 -1.61081,1.61302c-0.52295,0.18097 -1.37585,-0.00679 -2.17082,-0.27573c-1.02546,-0.34692 -1.9545,-0.82896 -1.9545,-0.82896" fill="none" stroke-opacity="0.40392" stroke="#000000" stroke-width="2.5" stroke-linecap="round"/><path d="M264.51856,131.24474c0,0 -0.52065,0.96205 -1.17135,1.88205c-0.52035,0.73569 -1.12385,1.4445 -1.61082,1.61302c-0.52295,0.18097 -1.37585,-0.00679 -2.17081,-0.27573c-1.02546,-0.34693 -1.9545,-0.82897 -1.9545,-0.82897" fill="none" stroke-opacity="0.40392" stroke="#000000" stroke-width="2.5" stroke-linecap="round"/><path d="M265.18384,138.15347c0,0 -0.52065,0.96205 -1.17135,1.88205c-0.52035,0.73569 -1.12385,1.4445 -1.61082,1.61302c-0.52295,0.18097 -1.37585,-0.00679 -2.17081,-0.27573c-1.02546,-0.34693 -1.9545,-0.82897 -1.9545,-0.82897" fill="none" stroke-opacity="0.40392" stroke="#000000" stroke-width="2.5" stroke-linecap="round"/><path d="M305.94308,153.86812l-3.67713,-5.04356" fill="none" stroke="#000000" stroke-width="2.5" stroke-linecap="round"/><path d="M311.11977,154.40829l4.501,-6.00529" fill="none" stroke="#000000" stroke-width="2.5" stroke-linecap="round"/><path d="M346.25024,149.6997l2.90181,0.4817l-22.41389,12.36463l-18.81659,-1.69924l-13.46316,3.29148l-25.70228,-9.50809l4.01915,-0.70016" fill="none" stroke="#000000" stroke-width="2.5" stroke-linecap="round"/><path d="M236.63045,53.26006c0,0 23.24985,-16.63641 44.96252,-17.61449c23.00638,-1.03636 89.41934,11.56106 89.41934,11.56106" fill="none" stroke="#000000" stroke-width="2.5" stroke-linecap="round"/><path d="M241.17246,57.77498c0,0 19.4016,-14.63146 39.82288,-15.52648c21.71101,-0.95154 86.81104,9.97641 86.81104,9.97641" fill="none" stroke="#000000" stroke-width="2.5" stroke-linecap="round"/><path d="M243.93737,63.38117c0,0 19.05528,-14.35488 38.67245,-15.30782c20.87329,-1.01396 83.03296,9.39574 83.03296,9.39574" fill="none" stroke="#000000" stroke-width="2.5" stroke-linecap="round"/><path d="M283.40808,245.35397l23.41693,-12.81302l19.95076,11.77041l14.80028,-6.66727" fill="none" stroke="#ffffff" stroke-width="1.5" stroke-linecap="round"/><path d="M283.40916,252.31434l23.41693,-12.81302l19.95077,11.77041l14.80028,-6.66727" fill="none" stroke="#ffffff" stroke-width="1.5" stroke-linecap="round"/><path d="M283.07396,258.95902l23.41693,-12.81302l19.95077,11.77041l14.80028,-6.66727" fill="none" stroke="#ffffff" stroke-width="1.5" stroke-linecap="round"/><g><path d="M296.93672,246.65316c13.36647,-12.42516 1.41504,-3.0753 17.90729,-9.85537c1.97111,-0.81035 12.04973,-3.17938 12.04973,-3.17938c0,0 -6.78038,11.86716 -11.71076,15.51661c-0.6329,0.46847 -5.80018,4.51234 -5.65766,5.11677c0.16602,0.704 3.93893,-1.16608 4.44235,-1.37287c1.89454,-0.77814 15.67232,-6.44274 15.67232,-6.44274l1.89682,9.90896c0,0 -9.31714,5.5886 -11.89217,6.7563c-0.35527,0.1611 -4.3178,2.36105 -4.31701,2.41895c0.00324,0.23852 5.57053,-0.81013 5.57053,-0.81013l12.36925,5.50418l-0.90728,5.59412l-7.34651,4.58956c0,0 -10.90332,5.43648 -16.59591,7.7767c-9.02584,3.71051 -24.0068,10.57212 -32.06784,7.83915c-1.95016,-0.66118 -2.40334,-5.1363 -3.68947,-6.66441c-3.18998,-3.79015 -2.30491,-9.61576 -3.55789,-14.58431c-1.14758,-4.55063 -3.80682,-8.28167 -3.827,-13.45313c-0.01039,-2.66129 -0.62681,-9.37105 0.72052,-12.02672c0.98758,-1.9466 5.15076,-4.44357 6.87945,-5.56667c5.11411,-3.3225 18.42157,-13.69874 23.10794,-14.84616c0.96112,-0.23532 6.45339,-2.19346 6.31678,-1.19527c-0.14303,1.04507 -8.87712,13.87094 -10.63596,16.06254c-1.11515,1.38952 -2.0347,3.05156 0.28834,2.59366c3.41615,-0.67337 4.98411,0.31966 4.98411,0.31966z" fill="#a636f3" stroke="#000000" stroke-width="2.5" stroke-linecap="round"/><path d="M304.2163,257.31044c0.16316,0.86595 -3.11608,3.13024 -7.32436,5.0574c-4.20829,1.92718 -7.75202,2.78745 -7.91518,1.9215c-0.16316,-0.86595 3.11606,-3.13023 7.32435,-5.0574c4.20829,-1.92718 7.75203,-2.78746 7.91519,-1.9215z" fill-opacity="0.23137" fill="#000000" stroke="none" stroke-width="0" stroke-linecap="butt"/><path d="M310.34222,268.27296c0.14956,0.79381 -3.84873,3.3238 -8.93045,5.65098c-5.08171,2.32716 -9.32247,3.57018 -9.47202,2.77638c-0.14956,-0.79381 3.84873,-3.3238 8.93045,-5.65097c5.08171,-2.32716 9.32247,-3.57017 9.47202,-2.77639z" fill-opacity="0.23137" fill="#000000" stroke="none" stroke-width="0" stroke-linecap="butt"/><path d="M285.8503,247.69514c0.23112,1.22678 -0.48266,2.63396 -1.59427,3.14301c-1.11161,0.50905 -2.20015,-0.07274 -2.43128,-1.29952c-0.23112,-1.22678 0.48266,-2.63397 1.59427,-3.14301c1.11161,-0.50905 2.20014,0.07275 2.43128,1.29952z" fill-opacity="0.23137" fill="#000000" stroke="none" stroke-width="0" stroke-linecap="butt"/><path d="M283.49151,260.17914c0,0 -0.43231,1.23523 -1.01644,2.48936c-0.46711,1.00288 -1.03128,2.01783 -1.54911,2.42298c-0.5561,0.43505 -1.53797,0.64922 -2.46774,0.75248c-1.19934,0.13318 -2.31197,0.08178 -2.31197,0.08178" fill="none" stroke-opacity="0.40392" stroke="#000000" stroke-width="2.5" stroke-linecap="round"/><path d="M290.00137,262.68524c0,0 -0.43232,1.23523 -1.01645,2.48936c-0.46711,1.00288 -1.03126,2.01784 -1.5491,2.42298c-0.5561,0.43505 -1.53799,0.64922 -2.46776,0.75248c-1.19934,0.13318 -2.31195,0.08178 -2.31195,0.08178" fill="none" stroke-opacity="0.40392" stroke="#000000" stroke-width="2.5" stroke-linecap="round"/><path d="M296.51121,265.19135c0,0 -0.43232,1.23523 -1.01645,2.48936c-0.46711,1.00288 -1.03127,2.01783 -1.5491,2.42296c-0.5561,0.43505 -1.53798,0.64924 -2.46775,0.75249c-1.19934,0.13318 -2.31195,0.08177 -2.31195,0.08177" fill="none" stroke-opacity="0.40392" stroke="#000000" stroke-width="2.5" stroke-linecap="round"/></g><path d="M294.53092,164.53128l12.73429,-3.06501l19.89311,1.30881l22.88209,-11.37447l-40.5478,26.942l-39.93615,-22.70678z" fill="#ffffff" stroke="#000000" stroke-width="2.5" stroke-linecap="round"/><path d="M290.19034,121.06076c-0.15192,4.16378 -3.20125,-3.91549 -7.77122,-4.08225c-4.57,-0.16676 -8.93013,7.64212 -8.77821,3.47835c0.15192,-4.1638 3.97983,-7.40399 8.54981,-7.23723c4.57,0.16676 8.15152,3.67734 7.9996,7.84114z" fill="#ffffff" stroke="#000000" stroke-width="2.5" stroke-linecap="butt"/><path d="M323.78279,119.79755c-0.41422,-4.14594 2.93875,-7.87541 7.48913,-8.33005c4.55037,-0.45465 8.57501,2.53766 8.98923,6.6836c0.41422,4.14589 -4.42972,-3.37245 -8.9801,-2.9178c-4.55037,0.45465 -7.08408,8.71015 -7.4983,4.56424z" fill="#ffffff" stroke="#000000" stroke-width="2.5" stroke-linecap="butt"/><g><path d="M326.78791,249.89455c0,0 1.50221,-1.08995 4.95402,-0.63337c2.34729,0.31048 1.32475,-1.29026 0.12419,-2.60669c-1.89356,-2.07631 -11.41918,-14.3258 -11.62784,-15.35978c-0.19929,-0.98757 5.40554,0.62026 6.3796,0.7945c4.7494,0.84958 18.68478,10.36586 23.99825,13.35922c1.79608,1.01184 6.10845,3.24127 7.21683,5.12171c1.51214,2.56542 1.32012,9.30069 1.4776,11.95733c0.30602,5.16243 -2.11261,9.05376 -2.97091,13.66771c-0.93713,5.03768 0.3136,10.79587 -2.63099,14.77967c-1.18719,1.60619 -1.35722,6.10098 -3.2618,6.88384c-7.87262,3.23594 -23.25653,-2.66717 -32.49841,-5.80105c-5.82884,-1.97654 -17.05332,-6.71454 -17.05332,-6.71454l-7.62134,-4.1171l-1.25828,-5.52576l11.99747,-6.27334c0,0 5.62236,0.69544 5.61054,0.45719c-0.00287,-0.05782 -4.09625,-2.00348 -4.46098,-2.14185c-2.64355,-1.00298 -12.2946,-5.99283 -12.2946,-5.99283l1.2681,-10.00887c0,0 14.10761,4.78438 16.04746,5.44148c0.51546,0.17461 4.3988,1.80303 4.52009,1.08995c0.10413,-0.61221 -5.30791,-4.32215 -5.96911,-4.74976c-5.15074,-3.33123 -12.66606,-14.74714 -12.66606,-14.74714c0,0 10.20795,1.72867 12.22625,2.41309c16.88703,5.72643 4.36969,-2.85105 18.4932,8.70636z" fill="#a636f3" stroke="#000000" stroke-width="2.5" stroke-linecap="round"/><path d="M328.21557,262.40821c4.32146,1.65793 7.73696,3.71088 7.62874,4.5854c-0.10822,0.87452 -3.69916,0.23946 -8.02062,-1.41847c-4.32144,-1.65791 -7.73696,-3.71088 -7.62875,-4.5854c0.10821,-0.87453 3.69917,-0.23946 8.02062,1.41847z" fill-opacity="0.23137" fill="#000000" stroke="none" stroke-width="0" stroke-linecap="butt"/><path d="M324.40089,274.49026c5.21837,2.00204 9.36826,4.27484 9.26907,5.07649c-0.0992,0.80166 -4.40991,-0.17144 -9.62828,-2.17347c-5.21837,-2.00204 -9.36826,-4.27484 -9.26907,-5.07649c0.09919,-0.80165 4.40991,0.17144 9.62828,2.17347z" fill-opacity="0.23137" fill="#000000" stroke="none" stroke-width="0" stroke-linecap="butt"/><path d="M340.26244,248.785c1.1415,0.43792 1.94261,1.7973 1.78932,3.03621c-0.15329,1.23891 -1.20297,1.8882 -2.34447,1.45027c-1.14151,-0.43793 -1.94262,-1.79729 -1.78932,-3.03621c0.15331,-1.2389 1.20297,-1.8882 2.34448,-1.45027z" fill-opacity="0.23137" fill="#000000" stroke="none" stroke-width="0" stroke-linecap="butt"/><path d="M348.75246,267.81754c0,0 -1.10718,0.12146 -2.31253,0.06419c-0.93443,-0.04441 -1.92785,-0.19623 -2.51028,-0.59535c-0.54235,-0.37167 -1.16941,-1.34903 -1.69885,-2.32045c-0.66206,-1.21479 -1.17141,-2.4203 -1.17141,-2.4203" fill="none" stroke-opacity="0.40392" stroke="#000000" stroke-width="2.5" stroke-linecap="round"/><path d="M342.41362,270.72923c0,0 -1.10716,0.12146 -2.31252,0.06419c-0.93443,-0.04441 -1.92787,-0.19623 -2.5103,-0.59535c-0.54236,-0.37167 -1.16939,-1.34903 -1.69883,-2.32046c-0.66206,-1.21479 -1.17142,-2.4203 -1.17142,-2.4203" fill="none" stroke-opacity="0.40392" stroke="#000000" stroke-width="2.5" stroke-linecap="round"/><path d="M336.07478,273.64091c0,0 -1.10715,0.12147 -2.31251,0.0642c-0.93442,-0.04441 -1.92787,-0.19624 -2.51029,-0.59536c-0.54236,-0.37167 -1.1694,-1.34902 -1.69883,-2.32044c-0.66206,-1.21479 -1.17141,-2.4203 -1.17141,-2.4203" fill="none" stroke-opacity="0.40392" stroke="#000000" stroke-width="2.5" stroke-linecap="round"/></g></g></g></svg>