<svg version="1.1" xmlns="http://www.w3.org/2000/svg" xmlns:xlink="http://www.w3.org/1999/xlink" width="173.74946" height="371.36061" viewBox="0,0,173.74946,371.36061"><defs><radialGradient cx="334.2988" cy="207.91793" r="33.16925" gradientUnits="userSpaceOnUse" id="color-1"><stop offset="0" stop-color="#ee2828"/><stop offset="1" stop-color="#500000"/></radialGradient><radialGradient cx="337.37778" cy="192.45276" r="28.48101" gradientUnits="userSpaceOnUse" id="color-2"><stop offset="0" stop-color="#ee2828"/><stop offset="1" stop-color="#500000"/></radialGradient><linearGradient x1="325.11508" y1="28.74445" x2="385.06082" y2="13.50807" gradientUnits="userSpaceOnUse" id="color-3"><stop offset="0" stop-color="#000000"/><stop offset="1" stop-color="#d31b1b"/></linearGradient><linearGradient x1="228.08002" y1="69.03685" x2="291.57281" y2="52.89894" gradientUnits="userSpaceOnUse" id="color-4"><stop offset="0" stop-color="#d31b1b"/><stop offset="1" stop-color="#16031b"/></linearGradient><linearGradient x1="308.02045" y1="41.23241" x2="342.46917" y2="141.92286" gradientUnits="userSpaceOnUse" id="color-5"><stop offset="0" stop-color="#190307"/><stop offset="1" stop-color="#ee2828"/></linearGradient><linearGradient x1="309.90389" y1="33.95773" x2="322.57444" y2="83.80857" gradientUnits="userSpaceOnUse" id="color-6"><stop offset="0" stop-color="#d31b1b"/><stop offset="1" stop-color="#670000"/></linearGradient><radialGradient cx="296.97669" cy="89.7486" r="10.02727" gradientUnits="userSpaceOnUse" id="color-7"><stop offset="0" stop-color="#ffffff" stop-opacity="0.61176"/><stop offset="1" stop-color="#ffffff" stop-opacity="0"/></radialGradient><radialGradient cx="349.97709" cy="74.59345" r="10.02727" gradientUnits="userSpaceOnUse" id="color-8"><stop offset="0" stop-color="#ffffff" stop-opacity="0.61176"/><stop offset="1" stop-color="#ffffff" stop-opacity="0"/></radialGradient><radialGradient cx="349.39018" cy="73.8745" r="5.70896" gradientUnits="userSpaceOnUse" id="color-9"><stop offset="0" stop-color="#ffffff" stop-opacity="0.61176"/><stop offset="1" stop-color="#ffffff" stop-opacity="0"/></radialGradient><radialGradient cx="297.42038" cy="90.30294" r="5.70896" gradientUnits="userSpaceOnUse" id="color-10"><stop offset="0" stop-color="#ffffff" stop-opacity="0.61176"/><stop offset="1" stop-color="#ffffff" stop-opacity="0"/></radialGradient></defs><g transform="translate(-217.47982,25.1475)"><g stroke-miterlimit="10"><path d="M282.7432,340.44094l2.48697,-72.36307l-4.47046,-12.28183l5.41716,-15.26448l-8.96145,-22.03672l9.87115,-4.43275l-16.9354,-33.78652l17.99189,3.04582l-17.91026,-25.63285l18.62817,4.74371l-8.99123,-25.6966c0,0 12.98194,12.27205 14.61805,8.29079c2.92433,-7.11599 6.75232,-13.74389 10.9054,-13.90456c8.97297,-0.34713 30.21975,-0.68988 48.79727,-1.40859c20.1495,-0.77953 26.16467,20.07393 26.16467,20.07393l8.82911,-13.22352c0,0 -9.32492,23.5976 -9.53141,27.91821c-0.14999,3.13826 11.57645,-11.19673 11.57645,-11.19673c0,0 -12.47355,29.9675 -12.67244,34.12878c-0.19278,4.03363 12.0369,0.84981 12.0369,0.84981c0,0 -13.29319,25.43629 -13.58801,31.60474c-0.22916,4.79469 7.97421,4.1773 7.97421,4.1773c0,0 -9.08359,19.03478 -9.28346,23.21691c-0.20621,4.3147 3.45529,9.38166 3.45529,9.38166c0,0 -4.47371,11.92749 -4.66936,16.02114c-1.82681,38.22325 -3.51507,73.54759 -3.51507,73.54759z" fill="#000000" stroke="#000000" stroke-width="0" stroke-linecap="butt"/><path d="M353.21094,144.24421c-0.54094,7.73204 -8.25075,13.62591 -17.22036,13.16436c-8.9696,-0.46155 -15.80238,-7.10374 -15.26144,-14.83577c0.54094,-7.73204 8.25074,-13.62591 17.22035,-13.16436c8.9696,0.46155 15.80238,7.10376 15.26145,14.83577z" fill="#ee2828" stroke="#000000" stroke-width="0" stroke-linecap="butt"/><path d="M357.00469,239.33927l-50.05686,-23.31256l-3.30914,30.5088l36.78353,-45.54616l24.53673,-31.689" fill="none" stroke="url(#color-1)" stroke-width="2.5" stroke-linecap="round"/><path d="M309.71659,179.80882l55.3224,25.28791" fill="none" stroke="url(#color-2)" stroke-width="2.5" stroke-linecap="round"/><path d="M305.4562,147.72222l52.061,0.85768" fill="none" stroke="#000000" stroke-width="0" stroke-linecap="round"/><path d="M366.32362,46.62901c2.61014,7.91123 -23.02873,25.53985 -57.266,39.37467c-34.23727,13.8348 -64.108,18.63681 -66.71815,10.72559c-2.61013,-7.91122 23.02872,-25.53984 57.26601,-39.37465c34.23727,-13.8348 64.10801,-18.63682 66.71816,-10.7256z" fill="#580b0b" stroke="#000000" stroke-width="0" stroke-linecap="butt"/><path d="M326.00935,34.60265l32.99826,-16.01154l11.64179,-43.73861l12.49055,33.43791l-1.28785,41.68055l-14.23644,7.67249l-5.99632,-11.62759l-15.92205,-10.23353z" fill="url(#color-3)" stroke="#000000" stroke-width="0" stroke-linecap="round"/><path d="M275.81565,63.75889l-5.90092,17.98376l2.68071,12.8051l-15.88675,3.02549l-27.28857,-31.53191l-11.9403,-36.37003l37.16399,29.14241l35.70568,-8.38803z" fill="url(#color-4)" stroke="#000000" stroke-width="0" stroke-linecap="round"/><path d="M376.04483,72.10913c8.19988,27.35151 -6.35094,61.68536 -35.32934,70.37295c-28.9784,8.6876 -60.22741,-9.24443 -68.42727,-36.59593c-8.19987,-27.3515 7.46102,-58.8834 36.43943,-67.57098c28.9784,-8.6876 59.11735,6.44248 67.31722,33.79398z" fill="url(#color-5)" stroke="#000000" stroke-width="0" stroke-linecap="butt"/><path d="M338.23403,78.29866c0.7779,2.59474 -4.96372,6.60856 -12.82426,8.96513c-7.86055,2.35657 -14.86339,2.16348 -15.64126,-0.43127c-0.7779,-2.59474 4.96373,-6.60856 12.82427,-8.96513c7.86055,-2.35657 14.86339,-2.16348 15.64128,0.43127z" fill-opacity="0.23137" fill="#000000" stroke="none" stroke-width="0" stroke-linecap="butt"/><path d="M301.30638,88.05538c0.64179,2.14073 -0.74268,4.44717 -3.09226,5.15156c-2.34959,0.7044 -4.77457,-0.45999 -5.41636,-2.60071c-0.64179,-2.14074 0.74268,-4.44717 3.09226,-5.15156c2.34959,-0.7044 4.77456,0.45999 5.41636,2.60072z" fill="#ffffff" stroke="#000000" stroke-width="2.5" stroke-linecap="butt"/><path d="M353.3232,70.79679c0.64179,2.14074 -0.74268,4.44716 -3.09226,5.15156c-2.34959,0.7044 -4.77456,-0.45999 -5.41635,-2.60071c-0.64179,-2.14073 0.74267,-4.44715 3.09226,-5.15155c2.34959,-0.7044 4.77457,0.45998 5.41636,2.60071z" fill="#ffffff" stroke="#000000" stroke-width="2.5" stroke-linecap="butt"/><path d="M367.61179,40.41172c1.03861,3.90976 3.53527,13.92244 3.53527,13.92244l-50.84097,20.463l-50.79871,19.88218c0,0 -3.97432,-10.12349 -4.9865,-13.93375c-4.11973,-15.50818 15.61826,-37.1091 44.08603,-48.247c28.46776,-11.13789 54.88515,-7.59505 59.00488,7.91314zM326.42572,44.0796c-14.17899,5.54747 -24.00994,16.30631 -21.95803,24.0305c0.50414,1.89777 2.48364,6.94001 2.48364,6.94001l25.30142,-9.90276l25.32248,-10.19206c0,0 -1.24351,-4.98702 -1.7608,-6.93436c-2.05192,-7.7242 -15.20969,-9.48879 -29.3887,-3.94131z" fill="url(#color-6)" stroke="#000000" stroke-width="0" stroke-linecap="butt"/><path d="M352.87159,59.57269l-47.48692,18.7155l57.14007,-22.75913" fill="none" stroke-opacity="0.48235" stroke="#000000" stroke-width="2.5" stroke-linecap="round"/><path d="M316.31665,31.68643c0,0 4.41422,2.26374 5.98576,4.27966c1.65731,2.12593 3.71451,8.16342 3.71451,8.16342" fill="none" stroke-opacity="0.48235" stroke="#000000" stroke-width="0" stroke-linecap="round"/><path d="M284.64242,88.33267c0,0 -8.19197,-21.30851 -3.35963,-30.45328c5.16738,-9.77884 33.42627,-26.44516 33.42627,-26.44516c0,0 21.29616,-2.35323 30.73608,1.92105c7.50698,3.39906 21.44483,21.70579 21.44483,21.70579" fill="none" stroke-opacity="0.48235" stroke="#000000" stroke-width="0" stroke-linecap="round"/><path d="M318.16928,27.88173c0.56635,1.88919 -0.90901,4.0006 -3.29532,4.71601c-2.38633,0.71541 -4.77996,-0.23611 -5.34632,-2.12528c-0.56635,-1.88919 0.909,-4.0006 3.29533,-4.71601c2.38633,-0.71541 4.77994,0.23611 5.34632,2.12529z" fill="#d31b1b" stroke="#000000" stroke-width="0" stroke-linecap="butt"/><path d="M334.65763,76.76995c0,0 -0.06104,-3.18455 3.95082,-4.43893c7.17286,-2.2427 29.99595,-9.37864 29.99595,-9.37864" fill="none" stroke="#000000" stroke-width="0" stroke-linecap="round"/><path d="M316.31665,31.68643c0,0 4.41422,2.26374 5.98576,4.27966c1.65731,2.12593 3.71451,8.16342 3.71451,8.16342" fill="none" stroke-opacity="0.48235" stroke="#000000" stroke-width="2.5" stroke-linecap="round"/><path d="M284.64242,88.33266c0,0 -8.19198,-21.30851 -3.35964,-30.45328c5.16738,-9.77883 33.42628,-26.44516 33.42628,-26.44516c0,0 21.29616,-2.35323 30.73608,1.92105c7.50698,3.39906 21.44483,21.70579 21.44483,21.70579" fill="none" stroke-opacity="0.48235" stroke="#000000" stroke-width="2.5" stroke-linecap="round"/><path d="M304.62158,86.09266c0.83075,5.47524 -1.26491,12.82995 -6.14068,13.56975c-4.87576,0.7398 -10.68528,-5.41545 -11.51604,-10.8907c-0.83075,-5.47524 2.44838,-10.51353 7.32414,-11.25332c4.87576,-0.7398 9.50182,3.09903 10.33258,8.57428z" fill="url(#color-7)" stroke="none" stroke-width="0" stroke-linecap="butt"/><path d="M357.62198,70.9375c0.83075,5.47524 -2.44837,10.51353 -7.32413,11.25333c-4.87576,0.7398 -9.50181,-3.09904 -10.33256,-8.57428c-0.83075,-5.47524 2.44836,-10.51353 7.32414,-11.25334c4.87576,-0.7398 9.50183,3.09905 10.33258,8.57429z" fill="url(#color-8)" stroke="none" stroke-width="0" stroke-linecap="butt"/><path d="M353.23308,70.79544c0.47299,3.11729 -1.39397,5.9858 -4.16995,6.40701c-2.77599,0.4212 -5.40979,-1.76442 -5.88278,-4.88171c-0.47299,-3.11729 1.39396,-5.9858 4.16994,-6.40701c2.77599,-0.4212 5.4098,1.76443 5.88279,4.88171z" fill="url(#color-9)" stroke="none" stroke-width="0" stroke-linecap="butt"/><path d="M301.26327,87.22387c0.47299,3.11729 -0.21049,8.30222 -2.98646,8.72341c-2.77598,0.42119 -6.59325,-4.08084 -7.06624,-7.19813c-0.47299,-3.11729 1.39397,-5.9858 4.16994,-6.40701c2.77598,-0.42119 5.40978,1.76442 5.88277,4.88171z" fill="url(#color-10)" stroke="none" stroke-width="0" stroke-linecap="butt"/><path d="M323.44804,142.80178l-19.65411,-14.71056l2.36966,-12.79223l11.72266,2.68434l13.67028,-10.52203l20.18362,0.4442l8.1738,-6.50018l4.6155,2.00937l-2.46389,20.45741l-5.79339,9.16749l-11.96536,7.55366z" fill="#ffffff" stroke-opacity="0.7098" stroke="#000000" stroke-width="2.5" stroke-linecap="round"/><path d="M344.37446,107.89412l-5.64341,32.64709l-15.84963,-26.3326l-1.10654,25.852l-13.42317,-24.54547" fill="none" stroke-opacity="0.50196" stroke="#000000" stroke-width="2.5" stroke-linecap="round"/><path d="M359.0894,101.88964l-3.23392,29.58736l-10.97005,-22.58275" fill="none" stroke-opacity="0.50196" stroke="#000000" stroke-width="2.5" stroke-linecap="round"/></g></g></svg>