<svg version="1.1" xmlns="http://www.w3.org/2000/svg" xmlns:xlink="http://www.w3.org/1999/xlink" width="219.4096" height="322.5642" viewBox="0,0,219.4096,322.5642"><g transform="translate(-214.31978,-34.3732)"><g data-paper-data="{&quot;isPaintingLayer&quot;:true}" fill-rule="nonzero" stroke-linejoin="miter" stroke-miterlimit="10" stroke-dasharray="" stroke-dashoffset="0" style="mix-blend-mode: normal"><path d="M298.36735,249.20363c-7.78621,3.53763 -19.74839,0.92175 -27.73417,-1.48759c-24.1553,-7.28775 -53.03777,-26.5685 -55.3134,-54.58901c-1.53912,-18.95157 12.93199,-32.10956 27.50901,-41.18803c5.53027,-3.44422 17.2774,-9.32223 21.1837,-1.10865c1.03953,2.18577 1.238,4.57745 0.19234,6.83334c-2.25899,4.87352 -9.73048,6.24024 -13.76057,9.44412c-12.17748,9.68093 -17.54593,24.23719 -9.52391,38.30744c8.49375,14.89763 27.2767,19.90261 43.23996,17.66017c8.25192,-1.1592 16.38921,-5.15992 24.96143,-2.97911c25.41488,6.46564 5.71949,26.49784 -9.52962,29.39675z" fill="#feed00" stroke="#000000" stroke-width="2" stroke-linecap="round"/><path d="M291.01117,244.59344c5.73972,-0.13341 13.49897,-1.32539 19.26399,-2.22081c6.28587,-0.97632 14.81085,-0.06354 21.25627,-0.09119c3.78616,-0.01624 12.37685,-0.92307 15.37796,0.6045c1.94264,0.98881 1.83302,3.58694 2.30878,4.92119c1.76793,4.95806 0.83565,10.39738 2.60694,15.45302c2.09238,5.97214 0.16354,12.10332 1.05675,18.23312c1.66976,11.45892 2.65651,23.10192 -1.83003,34.72525c-1.96193,5.08282 6.30665,11.16217 -2.5397,14.30218c-3.13259,1.1119 -10.88652,8.13539 -14.37246,8.15034c-5.05705,0.0217 -11.22502,-4.90506 -17.42339,-5.9711c-7.89229,-1.35737 -18.27809,3.04727 -24.17091,1.53504c-2.94967,-0.75696 -6.83486,-3.98762 -8.37578,-5.90965c-1.93159,-2.40934 1.44572,-13.41458 1.62968,-16.66746c0.90467,-15.99653 0.03364,-24.80963 0.93648,-40.82019c0.29667,-5.26098 -0.30848,-22.54322 2.85592,-26.23729z" fill="#3c2c1f" stroke="#000000" stroke-width="2" stroke-linecap="round"/><g stroke-width="2"><path d="M350.0141,219.28892c2.85794,-3.40144 6.38196,-9.77254 10.1494,-10.69327c7.14242,-1.74557 20.15155,10.01022 18.78499,23.39218c-0.22385,2.19201 -1.04,6.99095 -3.06448,6.16322c-0.44216,-0.18079 -1.98147,-2.53851 -2.37263,-2.01637c-0.12847,0.17148 0.36781,4.56745 0.30415,5.24264c-0.33954,3.60076 -1.57696,7.41271 -3.89803,8.519c-2.27626,1.08495 -4.03381,-5.51955 -5.02961,-5.1992c-1.49541,0.48106 -2.89909,8.98863 -8.14087,4.63208c-2.83627,-2.35728 -4.46067,-12.98298 -4.72323,-13.19081c-1.36345,-1.07929 -5.45488,3.30152 -8.69564,-3.59995c-2.9806,-6.34747 3.0727,-13.91162 6.48713,-13.53949z" fill="#feed00" stroke="#000000" stroke-linecap="round"/><path d="M369.65221,226.70898c-0.46341,1.94397 -1.47398,3.24054 -2.72567,3.81115c-1.38546,0.63161 -2.64924,-2.39665 -4.21062,-3.65027c-1.62951,-1.30831 -3.20765,-0.65918 -3.76312,-2.98375c-0.45762,-1.91513 -0.50424,-3.96822 -0.06319,-5.8183c0.97638,-4.09569 4.17718,-5.48152 7.1492,-3.09532c2.97201,2.3862 4.58978,7.6408 3.6134,11.73649z" fill="#ffa600" stroke="none" stroke-linecap="butt"/><path d="M350.13096,231.0824c-0.32964,2.33614 -1.98378,3.39506 -3.69465,2.36521c-1.71084,-1.02987 -2.83053,-3.75855 -2.50089,-6.09468c0.32964,-2.33614 1.98378,-3.39506 3.69464,-2.36521c1.71084,1.02987 2.83055,3.75855 2.5009,6.09468z" fill="#ffa600" stroke="none" stroke-linecap="butt"/><path d="M361.94632,245.59872c-0.32524,2.30498 -1.95851,3.3491 -3.64797,2.3321c-1.68947,-1.01698 -2.79539,-3.70999 -2.47014,-6.01497c0.32524,-2.30498 1.95851,-3.3491 3.64797,-2.33211c1.68947,1.01698 2.79539,3.70999 2.47014,6.01497z" fill="#ffa600" stroke="none" stroke-linecap="butt"/><path d="M371.73792,244.08893c-0.32086,2.27384 -1.70783,3.43881 -3.0979,2.60204c-1.39006,-0.83676 -2.25683,-3.35841 -1.93597,-5.63224c0.32086,-2.27384 1.70783,-3.43881 3.0979,-2.60204c1.39006,0.83676 2.25683,3.35839 1.93597,5.63224z" fill="#ffa600" stroke="none" stroke-linecap="butt"/><path d="M377.98908,231.94254c-0.30326,2.14924 -1.31193,3.43236 -2.2529,2.86594c-0.94097,-0.56644 -1.45792,-2.76789 -1.15465,-4.91714c0.30326,-2.14924 1.31193,-3.43236 2.2529,-2.86594c0.94097,0.56644 1.45792,2.76789 1.15465,4.91714z" fill="#ffa600" stroke="none" stroke-linecap="butt"/></g><g stroke-width="2"><path d="M285.41951,224.23013c3.41112,-0.40142 9.52908,7.11051 6.60306,13.48332c-3.18142,6.92902 -7.31027,2.58348 -8.66443,3.67443c-0.26077,0.21007 -1.79394,10.84932 -4.60988,13.23085c-5.2042,4.40139 -6.68084,-4.09384 -8.18032,-4.56206c-0.99852,-0.31179 -2.69931,6.30754 -4.98482,5.24215c-2.33046,-1.08633 -3.60055,-4.88753 -3.97097,-8.48524c-0.06945,-0.67462 0.38907,-5.07469 0.25915,-5.24506c-0.39562,-0.51877 -1.91463,1.85207 -2.35524,2.03665c-2.0173,0.84507 -2.87461,-3.94669 -3.11725,-6.1367c-1.48133,-13.36974 11.42646,-25.2367 18.58359,-23.55248c3.77521,0.88839 7.35375,7.22901 10.24079,10.60579z" fill="#feed00" stroke="#000000" stroke-linecap="round"/><path d="M269.16204,220.34302c2.95143,-2.41161 6.16402,-1.05331 7.1755,3.03384c0.4569,1.84624 0.4279,3.89964 -0.01327,5.81863c-0.53549,2.32925 -2.11915,1.69368 -3.73738,3.01593c-1.55058,1.26697 -2.78831,4.30595 -4.17914,3.68626c-1.25654,-0.55985 -2.2782,-1.84769 -2.75827,-3.78762c-1.01148,-4.08717 0.56114,-9.35543 3.51257,-11.76706z" fill="#ffa600" stroke="none" stroke-linecap="butt"/><path d="M287.65603,230.19992c1.70194,-1.04451 3.36511,0.0002 3.71479,2.33342c0.34967,2.33322 -0.74656,5.0714 -2.4485,6.11591c-1.70194,1.04451 -3.36513,-0.00018 -3.7148,-2.3334c-0.34967,-2.33322 0.74656,-5.0714 2.44851,-6.11591z" fill="#ffa600" stroke="none" stroke-linecap="butt"/><path d="M275.93557,244.89707c1.68068,-1.03144 3.32283,-0.00138 3.66784,2.30073c0.34501,2.3021 -0.73776,5.00449 -2.41844,6.03593c-1.68068,1.03144 -3.32283,0.00138 -3.66784,-2.30073c-0.34501,-2.3021 0.73776,-5.00449 2.41844,-6.03593z" fill="#ffa600" stroke="none" stroke-linecap="butt"/><path d="M265.60053,243.85864c1.38283,-0.84866 2.77975,0.30438 3.12012,2.57537c0.34036,2.271 -0.50476,4.79998 -1.88759,5.64864c-1.38283,0.84866 -2.77975,-0.30438 -3.12012,-2.57537c-0.34036,-2.271 0.50476,-4.79998 1.88759,-5.64864z" fill="#ffa600" stroke="none" stroke-linecap="butt"/><path d="M258.47022,232.48812c0.93607,-0.57449 1.95571,0.69994 2.2774,2.84651c0.32171,2.14656 -0.17634,4.3524 -1.11241,4.92687c-0.93607,0.57449 -1.95571,-0.69994 -2.2774,-2.84651c-0.32171,-2.14656 0.17634,-4.35238 1.11241,-4.92687z" fill="#ffa600" stroke="none" stroke-linecap="butt"/></g><path d="M286.98026,205.24029c-1.63125,6.35554 -1.93502,17.92513 -5.92612,23.12245c-3.18303,4.14501 -22.1902,-2.03579 -24.76618,-5.86303c-0.896,-1.33122 3.71581,-18.25886 4.39976,-20.69997c5.24712,-18.72779 11.74953,-36.52951 18.32751,-54.89006c1.80588,-5.04063 6.1311,-8.49369 8.00256,-13.23117l1.17555,0.03964c13.0481,2.56103 24.80873,8.37437 38.6529,6.75503c5.54064,-0.64808 9.60432,-2.60751 13.62115,-6.4737c0.9184,-0.88395 3.57789,-3.00999 5.03152,-2.05718c3.27169,2.14447 5.26301,10.41426 7.00535,13.86191c7.18559,14.21836 12.08595,29.82019 15.448,45.40397c0.98427,4.56229 5.9027,11.557 4.79413,16.14094c-1.2983,5.36846 -10.26062,11.96979 -14.36997,15.41485c-1.14361,0.95874 -4.12725,4.84603 -5.56792,2.93521c-2.00708,-2.66207 -3.87512,-22.88823 -3.87512,-22.88823c0,0 0.80801,16.01571 1.74236,23.94992c0.45827,3.8914 2.41532,10.29399 0.56746,14.06386c-1.40749,2.87146 -10.3775,3.78104 -13.26339,4.11068c-11.6736,1.3334 -23.73173,-0.86955 -35.39594,0.50161c-3.79125,0.44566 -13.37615,3.314 -16.76015,1.50716c-1.80357,-0.963 -0.88852,-6.46034 -0.89602,-8.20742c-0.033,-7.69151 -1.26099,-16.51905 0.21436,-24.06391" fill="#fffe8a" stroke="#000000" stroke-width="2" stroke-linecap="round"/><path d="M294.18134,125.35113c14.04689,-2.5313 27.69492,-5.1367 42.07476,-4.0691c3.06665,0.22769 13.77479,1.32187 12.98172,6.04848c-1.07787,6.42393 -7.35374,9.78446 -13.17464,11.20877c-10.4937,2.5677 -35.29127,3.49671 -44.76779,-1.96861c-6.74442,-3.88964 -5.01899,-11.40364 3.02921,-11.43817z" fill="#fffe8a" stroke="#000000" stroke-width="2" stroke-linecap="round"/><g stroke-width="2" stroke-linecap="round"><path d="M298.77024,53.90559c-12.39247,5.11503 -13.59538,18.16581 -17.02736,29.41301c-0.37716,1.23604 -3.42417,12.12747 -4.7157,11.96076c-0.53622,-0.06921 -0.38524,-1.01166 -0.53645,-1.53074c-1.20362,-4.13182 -2.79155,-8.16359 -4.0251,-12.30216c-3.07856,-10.3283 -5.14548,-20.98605 -7.10869,-31.5942c-0.56377,-3.04625 -2.43395,-9.99746 -1.20462,-12.88674c0.78776,-1.85147 1.37161,-1.05595 2.63082,-0.51935c6.47033,2.75731 12.79727,5.79979 19.13168,8.84885c4.65176,2.23911 10.33925,4.30718 13.86439,8.20221z" fill="#feed00" stroke="#000000"/><path d="M292.45667,56.69947c-7.88715,4.10376 -7.91842,12.79535 -9.52769,20.42587c-0.17685,0.83859 -1.55262,8.21155 -2.41553,8.17699c-0.35827,-0.01435 -0.31365,-0.64575 -0.44391,-0.97981c-1.03678,-2.65903 -2.32156,-5.2295 -3.37852,-7.89124c-2.63777,-6.64268 -4.62654,-13.56221 -6.54389,-20.45498c-0.5506,-1.97934 -2.19261,-6.46185 -1.54952,-8.44238c0.41209,-1.26915 0.84431,-0.77778 1.70751,-0.49695c4.43551,1.44299 8.79297,3.08276 13.15575,4.72642c3.20387,1.20706 7.08193,2.24051 9.63841,4.60734z" fill="#ffa700" stroke="none"/></g><g stroke-width="2" stroke-linecap="round"><path d="M333.59297,54.53594c3.26413,-4.11624 8.80493,-6.55013 13.30107,-9.08731c6.1225,-3.45493 12.23797,-6.90281 18.51509,-10.07543c1.22159,-0.61744 1.75243,-1.44927 2.65905,0.34701c1.41481,2.80313 0.00106,9.86135 -0.36322,12.93783c-1.26854,10.71344 -2.63732,21.48312 -5.03704,31.98991c-0.96158,4.21008 -2.28368,8.33668 -3.21578,12.53808c-0.1171,0.52784 0.0949,1.45844 -0.43568,1.5624c-1.27794,0.25041 -5.02744,-10.41958 -5.48427,-11.62844c-4.15681,-10.99995 -6.20672,-23.94476 -18.90585,-28.24226z" fill="#feed00" stroke="#000000"/><path d="M340.44574,56.9685c2.39701,-2.52822 6.19956,-3.81192 9.31807,-5.22497c4.24653,-1.92418 8.48803,-3.84411 12.82019,-5.57275c0.84309,-0.33643 1.24241,-0.85486 1.73625,0.38476c0.77065,1.93446 -0.57611,6.51435 -0.99669,8.52533c-1.46463,7.00299 -2.99877,14.03727 -5.19854,20.83756c-0.88146,2.72491 -1.99619,5.37353 -2.85768,8.09441c-0.10823,0.34183 -0.02262,0.96899 -0.37919,1.00665c-0.85885,0.09069 -2.71161,-7.17713 -2.94268,-8.00241c-2.10255,-7.50959 -2.69952,-16.18068 -10.83707,-19.76235z" fill="#ffa700" stroke="none"/></g><path d="M314.90756,51.69578c10.4383,-0.04478 22.93336,-1.10241 30.49189,7.09879c6.53834,7.09427 6.21569,13.495 8.25537,21.9641c0.62644,2.6011 2.53107,4.51824 2.8593,7.4104c1.99005,17.53539 -6.61405,39.16073 -27.87857,41.52641c-17.80999,1.98137 -38.89315,-1.58217 -49.05754,-16.99338c-6.34689,-9.62313 -1.97488,-22.73454 1.12238,-32.1946c1.2001,-3.6655 0.05522,-7.939 1.4602,-11.79424c5.50017,-15.09249 18.64357,-16.68308 33.10169,-16.7451z" fill="#feed00" stroke="#000000" stroke-width="2" stroke-linecap="round"/><path d="M353.01275,92.53248c4.28978,0.37143 15.5271,4.74356 11.15569,10.78364c-1.13739,1.57155 -7.2022,2.4059 -7.56555,3.60922c-0.27249,0.90241 1.07768,1.57088 1.40186,2.45602c0.86746,2.36849 1.43807,5.88956 1.0917,8.40024c-0.95291,6.90737 -11.04092,3.39212 -14.03708,0.4699" fill="#feed00" stroke="#000000" stroke-width="2" stroke-linecap="round"/><path d="M286.6776,121.31438c-2.97097,2.94781 -13.02845,6.54947 -14.0406,-0.34945c-0.3679,-2.50761 0.1725,-6.03346 1.0196,-8.40928c0.31658,-0.88791 1.66096,-1.56793 1.38073,-2.46797c-0.37365,-1.20017 -6.4454,-1.98244 -7.59623,-3.54418c-4.42307,-6.00236 6.77631,-10.47074 11.06275,-10.87895" fill="#feed00" stroke="#000000" stroke-width="2" stroke-linecap="round"/><path d="M241.11767,74.91248c14.31896,0.15337 25.03537,10.66224 36.66135,17.23965" fill="none" stroke="#000000" stroke-width="2" stroke-linecap="round"/><path d="M245.99221,89.11949c10.7638,-1.34972 21.75447,1.99957 32.14363,4.26155" fill="none" stroke="#000000" stroke-width="2" stroke-linecap="round"/><path d="M250.56951,97.01203c8.68218,-1.66308 17.83763,-3.2377 26.68897,-3.27568" fill="none" stroke="#000000" stroke-width="2" stroke-linecap="round"/><path d="M355.99183,90.41039c8.34496,-8.41687 17.69973,-18.69142 30.34006,-18.7622" fill="none" stroke="#000000" stroke-width="2" stroke-linecap="round"/><path d="M353.35902,91.30056c10.92862,-7.87718 21.20993,-7.53652 33.46072,-3.86404" fill="none" stroke="#000000" stroke-width="2" stroke-linecap="round"/><path d="M356.8805,92.69165c8.58673,-3.4775 19.43501,-0.06949 27.15845,4.21906" fill="none" stroke="#000000" stroke-width="2" stroke-linecap="round"/><path d="M311.73954,101.51641c3.71998,-0.01595 7.63567,-0.27396 11.33073,0.17071c0.46898,0.05645 1.2724,-0.14808 1.38248,0.31129c0.14418,0.60174 -6.50575,4.40474 -7.27329,4.35096c-1.72597,-0.12092 -4.34089,-3.48725 -5.02188,-4.83475z" fill="#000000" stroke="#000000" stroke-width="2" stroke-linecap="round"/><path d="M312.62357,82.85293c0.03037,7.07806 -5.596,12.84023 -12.56682,12.87013c-6.97083,0.02991 -12.6464,-5.68377 -12.67677,-12.76183c-0.03037,-7.07806 5.59599,-12.84022 12.5668,-12.87012c6.97083,-0.02991 12.64642,5.68376 12.67679,12.76182z" fill="#ffffff" stroke="#000000" stroke-width="2" stroke-linecap="butt"/><path d="M347.68964,82.27997c0.03037,7.07806 -5.59599,12.84022 -12.5668,12.87012c-6.97083,0.02991 -12.6464,-5.68376 -12.67677,-12.76182c-0.03037,-7.07806 5.59599,-12.84022 12.5668,-12.87012c6.97083,-0.02991 12.6464,5.68376 12.67677,12.76182z" fill="#ffffff" stroke="#000000" stroke-width="2" stroke-linecap="butt"/><path d="M308.64604,82.86999c0.02169,5.05576 -3.9016,9.17117 -8.76291,9.19203c-4.86131,0.02086 -8.81976,-4.06074 -8.84145,-9.1165c-0.02169,-5.05576 3.9016,-9.17117 8.76291,-9.19203c4.86131,-0.02086 8.81976,4.06074 8.84145,9.1165z" fill="#ffffff" stroke="#000000" stroke-width="2" stroke-linecap="butt"/><path d="M343.85295,82.29643c0.02169,5.05576 -3.9016,9.17117 -8.76291,9.19203c-4.86131,0.02086 -8.81976,-4.06074 -8.84145,-9.1165c-0.02169,-5.05576 3.9016,-9.17117 8.76291,-9.19203c4.86131,-0.02086 8.81976,4.06074 8.84145,9.1165z" fill="#ffffff" stroke="#000000" stroke-width="2" stroke-linecap="butt"/><path d="M297.20205,57.69399c0.5849,-3.69914 4.29482,-4.87734 7.91868,-6.16017c0.40135,-0.14207 3.79995,-1.29487 3.71358,-1.79095c-0.15713,-0.90245 -5.43231,-0.22757 -4.75056,-2.20358c0.91566,-2.65399 11.48054,-2.07899 13.7505,-2.08895c0.32694,-0.00143 4.19749,0.12332 4.25123,-0.02277c0.23031,-0.626 -6.27187,-2.66546 -5.83163,-3.49661c0.24061,-0.4543 4.98491,1.09096 5.45869,1.26883c6.20706,2.33026 7.65584,6.12766 11.30118,10.57274" fill="#feed00" stroke="#000000" stroke-width="2" stroke-linecap="round"/><path d="M283.71826,74.51354c-2.37635,-1.15211 -2.39924,-3.2198 -4.21424,-4.90043c-0.92667,-0.85806 -5.83826,-1.44127 -5.75347,-3.05604c0.11153,-2.12391 6.0601,-2.96994 7.37297,-3.48924c0.92426,-0.3656 -0.49199,-8.61628 7.813,-3.22593" fill="#feed00" stroke="#000000" stroke-width="2" stroke-linecap="round"/><path d="M301.96634,176.15227c1.24228,0.50868 4.67872,0.23788 5.16662,1.77367c1.63637,5.15084 -2.34806,9.79366 -7.20009,8.7834c-3.23094,-0.67272 2.41709,-11.2659 2.41709,-11.2659c0,0 0.22037,-23.74795 2.6837,-35.261" fill="#ffaf36" stroke="#000000" stroke-width="2" stroke-linecap="round"/><path d="M328.70694,176.64206c9.54305,-10.7438 8.422,17.93949 -1.35288,9.91932c-5.29239,-4.34234 1.23067,-8.39934 1.72471,-10.91968c2.33196,-11.89653 -2.7171,-24.60822 0.82659,-36.67491" fill="#ffaf36" stroke="#000000" stroke-width="2" stroke-linecap="round"/><path d="M290.09371,207.84201c3.52949,-2.8485 7.94372,-2.34305 12.14819,-3.02575c13.56084,-2.20197 28.71886,-1.36951 42.25917,0.76661" fill="none" stroke="#000000" stroke-width="2" stroke-linecap="round"/><path d="M346.77802,236.43161c-0.14343,-8.89818 -1.81026,-17.90976 -0.36302,-26.82895" fill="none" stroke="#000000" stroke-width="2" stroke-linecap="round"/><path d="M290.61251,212.09459c0.03653,8.51563 0.52622,16.96562 0.36103,25.46401" fill="none" stroke="#000000" stroke-width="2" stroke-linecap="round"/><path d="M297.83727,135.15523c-2.62506,-0.90686 -4.41517,-3.47307 -6.82501,-4.90495" fill="none" stroke="#fcec41" stroke-width="2" stroke-linecap="round"/><path d="M340.64648,132.63905c1.62485,-1.0916 3.14475,-1.95612 4.96199,-2.69209" fill="none" stroke="#fcec41" stroke-width="2" stroke-linecap="round"/><path d="M312.50686,154.78471l-0.04112,-9.58432" fill="none" stroke="#fcec41" stroke-width="2" stroke-linecap="round"/><path d="M316.0073,153.3671l-0.02106,-4.90905" fill="none" stroke="#fcec41" stroke-width="2" stroke-linecap="round"/><path d="M320.20903,151.94646l-0.71733,-3.73722" fill="none" stroke="#fcec41" stroke-width="2" stroke-linecap="round"/><path d="M272.69498,226.78704l12.8545,-37.34734l-7.10025,36.82209z" fill="#fce541" stroke="#fcec41" stroke-width="2" stroke-linecap="round"/><path d="M272.69498,226.78704l12.8545,-37.34734l-7.10025,36.82209z" fill="#fce541" stroke="#fcec41" stroke-width="2" stroke-linecap="round"/><path d="M355.76809,221.9135l-7.38688,-29.99027l13.1224,25.09716z" fill="#fce541" stroke="#fcec41" stroke-width="2" stroke-linecap="round"/><path d="M318.06116,255.03929l-0.36845,76.75247" fill="none" stroke="#000000" stroke-width="2" stroke-linecap="round"/><path d="M320.14038,340.15407c0.0372,8.67018 -8.75742,15.73662 -19.64331,15.78333c-10.8859,0.0467 -19.74081,-6.944 -19.77801,-15.6142c-0.0372,-8.67018 8.75742,-15.73662 19.64331,-15.78333c10.8859,-0.0467 19.74081,6.944 19.77801,15.6142z" fill="#000000" stroke="#000000" stroke-width="2" stroke-linecap="butt"/><path d="M358.42744,334.72198c0.0372,8.67019 -8.75742,15.73662 -19.64332,15.78333c-10.88589,0.0467 -19.74081,-6.944 -19.77801,-15.6142c-0.0372,-8.67019 8.75742,-15.73662 19.64331,-15.78333c10.8859,-0.0467 19.74082,6.944 19.77802,15.6142z" fill="#000000" stroke="#000000" stroke-width="2" stroke-linecap="butt"/><path d="M312.05397,124.73958l-0.04849,-11.30217l11.86544,-0.0509l0.04849,11.30217z" fill="none" stroke="#000000" stroke-width="2" stroke-linecap="butt"/><path d="M402.79562,125.65484c-0.3029,-5.1545 -0.8764,-10.27945 -1.34927,-15.48081c0,0 -0.24897,-2.73871 2.48973,-2.98768c2.73871,-0.24897 2.98768,2.48973 2.98768,2.48973c0.16563,1.82198 0.32361,3.64467 0.49688,5.46594c0.9845,10.34856 5.57465,28.17935 -8.44287,31.51978c-6.74284,1.60684 -14.64122,-3.24395 -12.12228,-11.04361c1.68613,-5.22096 7.30955,-7.327 11.85545,-8.97528l2.95281,-0.8868c0,0 0.50117,-0.15035 1.13187,-0.10128zM402.9985,131.09778l-2.57187,0.77069c-2.90597,1.01857 -7.01454,2.19682 -8.34074,5.45057c-2.18346,5.35696 7.10025,4.31694 9.12891,2.56647c2.2789,-1.9664 1.71591,-3.12121 1.76965,-5.513c0.02461,-1.09516 0.02815,-2.18641 0.01405,-3.27473z" fill="#ffa600" stroke="#000000" stroke-width="1" stroke-linecap="butt"/><path d="M418.53745,131.42867c-1.12854,1.13147 -1.90743,2.48383 -1.23733,4.39277c0.24184,0.68893 3.45652,5.08646 5.33376,4.10126c1.16634,-0.61211 2.29139,-1.41061 3.10027,-2.4502c0.84383,-1.08451 1.27437,-2.44643 1.72084,-3.746c1.2423,-3.61608 -7.7801,-2.29831 -8.84409,-2.29784zM421.59332,125.85475c3.95943,-0.11024 8.39679,0.01282 10.64602,3.74792c3.44584,5.72222 -2.81682,13.59871 -7.84184,15.5296c-4.86213,1.86831 -11.2102,-3.26044 -12.37947,-7.77804c-1.20928,-4.67221 -0.00561,-6.77885 2.12425,-8.98798c0.15883,-1.93616 1.79247,-2.33444 2.45784,-2.41636c0.21191,-0.21215 0.42661,-0.43111 0.64328,-0.65835c0,0 1.94454,-1.94454 3.88909,0c0.18832,0.18832 0.34017,0.37665 0.46084,0.56321z" fill="#ffa600" stroke="#000000" stroke-width="1" stroke-linecap="butt"/></g></g></svg>