<svg version="1.1" xmlns="http://www.w3.org/2000/svg" xmlns:xlink="http://www.w3.org/1999/xlink" width="189.95155" height="282.65449" viewBox="0,0,189.95155,282.65449"><defs><linearGradient x1="220.70836" y1="120.56401" x2="270.88239" y2="116.28806" gradientUnits="userSpaceOnUse" id="color-1"><stop offset="0" stop-color="#ffe23b"/><stop offset="1" stop-color="#631917"/></linearGradient><linearGradient x1="219.49735" y1="129.95867" x2="267.29818" y2="125.88497" gradientUnits="userSpaceOnUse" id="color-2"><stop offset="0" stop-color="#ffe23b"/><stop offset="1" stop-color="#631917"/></linearGradient><linearGradient x1="349.84774" y1="111.78028" x2="400.02177" y2="107.50433" gradientUnits="userSpaceOnUse" id="color-3"><stop offset="0" stop-color="#3c0000"/><stop offset="1" stop-color="#ffe23b"/></linearGradient><linearGradient x1="315.2126" y1="173.72413" x2="321.63566" y2="352.44112" gradientUnits="userSpaceOnUse" id="color-4"><stop offset="0" stop-color="#fbc74c"/><stop offset="1" stop-color="#fa954b"/></linearGradient><linearGradient x1="352.12265" y1="120.91697" x2="399.92349" y2="116.84327" gradientUnits="userSpaceOnUse" id="color-5"><stop offset="0" stop-color="#3c0000"/><stop offset="1" stop-color="#ffe23b"/></linearGradient><linearGradient x1="350.46883" y1="134.15826" x2="406.53688" y2="129.38" gradientUnits="userSpaceOnUse" id="color-6"><stop offset="0" stop-color="#3c0000"/><stop offset="1" stop-color="#ffe23b"/></linearGradient><linearGradient x1="217.9889" y1="143.22668" x2="274.05695" y2="138.44842" gradientUnits="userSpaceOnUse" id="color-7"><stop offset="0" stop-color="#ffe23b"/><stop offset="1" stop-color="#631917"/></linearGradient><linearGradient x1="334.92995" y1="177.0982" x2="375.34637" y2="173.65382" gradientUnits="userSpaceOnUse" id="color-8"><stop offset="0" stop-color="#3c0000"/><stop offset="1" stop-color="#ffe23b"/></linearGradient><linearGradient x1="314.6405" y1="168.76504" x2="315.82964" y2="201.85216" gradientUnits="userSpaceOnUse" id="color-9"><stop offset="0" stop-color="#fbc74c"/><stop offset="1" stop-color="#fa8c4b"/></linearGradient><linearGradient x1="255.26686" y1="179.07328" x2="295.68328" y2="175.6289" gradientUnits="userSpaceOnUse" id="color-10"><stop offset="0" stop-color="#ffe23b"/><stop offset="1" stop-color="#631917"/></linearGradient><linearGradient x1="308.33251" y1="79.3344" x2="317.19354" y2="183.30972" gradientUnits="userSpaceOnUse" id="color-11"><stop offset="0" stop-color="#ceb037"/><stop offset="1" stop-color="#ffec7f"/></linearGradient><linearGradient x1="326.86902" y1="69.04526" x2="329.73597" y2="102.686" gradientUnits="userSpaceOnUse" id="color-12"><stop offset="0" stop-color="#d0b23a"/><stop offset="1" stop-color="#dabf49"/></linearGradient><linearGradient x1="339.94445" y1="204.73462" x2="340.9507" y2="221.34499" gradientUnits="userSpaceOnUse" id="color-13"><stop offset="0" stop-color="#ffde00"/><stop offset="1" stop-color="#ff9500"/></linearGradient><linearGradient x1="339.94445" y1="204.73462" x2="340.9507" y2="221.34499" gradientUnits="userSpaceOnUse" id="color-14"><stop offset="0" stop-color="#000000" stop-opacity="0.22745"/><stop offset="1" stop-color="#000000" stop-opacity="0.58824"/></linearGradient><linearGradient x1="347.16849" y1="208.8459" x2="348.17473" y2="225.45625" gradientUnits="userSpaceOnUse" id="color-15"><stop offset="0" stop-color="#ffce4e"/><stop offset="1" stop-color="#ff824f"/></linearGradient><linearGradient x1="347.16849" y1="208.8459" x2="348.17473" y2="225.45625" gradientUnits="userSpaceOnUse" id="color-16"><stop offset="0" stop-color="#000000" stop-opacity="0.22745"/><stop offset="1" stop-color="#000000" stop-opacity="0.58824"/></linearGradient></defs><g transform="translate(-217.87333,-67.95815)"><g stroke-miterlimit="10"><path d="M260.96946,132.44664c0,0 -16.15644,-5.19423 -22.87111,-9.57074c-7.11445,-4.63707 -18.68566,-17.51524 -18.68566,-17.51524c0,0 8.68046,5.7253 14.52559,5.47471c9.40436,-0.40318 36.11606,-4.26362 36.11606,-4.26362z" fill="url(#color-1)" stroke="#000000" stroke-width="0" stroke-linecap="butt"/><path d="M252.59075,146.33293c0,0 -14.65121,-8.56462 -20.26079,-14.28941c-5.94357,-6.06563 -14.45663,-21.14103 -14.45663,-21.14103c0,0 7.23724,7.46671 12.99828,8.48585c9.26908,1.63971 36.18363,3.64604 36.18363,3.64604z" fill="url(#color-2)" stroke="#000000" stroke-width="0" stroke-linecap="butt"/><path d="M349.0197,102.06397c0,0 26.97974,-0.71528 36.3167,-1.90927c5.80323,-0.74211 13.38971,-7.85372 13.38971,-7.85372c0,0 -9.22515,14.65048 -15.45234,20.42456c-5.87727,5.44962 -20.92177,13.30287 -20.92177,13.30287z" fill="url(#color-3)" stroke="#000000" stroke-width="0" stroke-linecap="butt"/><path d="M271.94736,350.58593l-7.53253,-147.10016c0,0 6.05535,-25.93243 16.37252,-26.70872c10.24579,-0.77091 34.54553,-2.20123 55.75826,-3.79733c23.0077,-1.73116 31.15119,24.87188 31.15119,24.87188l5.73935,152.72781z" fill="url(#color-4)" stroke="#000000" stroke-width="0" stroke-linecap="butt"/><path d="M351.87971,118.06638c0,0 26.18691,-6.53176 35.04486,-9.7163c5.50551,-1.9793 11.3749,-10.56299 11.3749,-10.56299c0,0 -5.83929,16.29855 -10.67074,23.28244c-4.55996,6.59145 -17.55061,17.51179 -17.55061,17.51179z" fill="url(#color-5)" stroke="#000000" stroke-width="0" stroke-linecap="butt"/><path d="M358.32219,115.05095c0,0 23.39151,19.86294 32.20473,25.93541c5.47772,3.77425 17.29796,3.50714 17.29796,3.50714c0,0 -18.92754,5.40849 -28.58191,5.57412c-9.11186,0.15631 -27.8109,-4.60664 -27.8109,-4.60664z" fill="url(#color-6)" stroke="#000000" stroke-width="0" stroke-linecap="butt"/><path d="M275.02019,149.75113c0,0 -17.62342,7.85845 -26.63033,9.24626c-9.54317,1.47042 -29.11296,-0.65723 -29.11296,-0.65723c0,0 11.69498,-1.73691 16.45505,-6.38364c7.65857,-7.47624 27.35163,-31.01094 27.35163,-31.01094z" fill="url(#color-7)" stroke="#000000" stroke-width="0" stroke-linecap="butt"/><path d="M360.36708,147.3403c0,0 10.5177,16.17769 13.29693,24.85676c2.94468,9.19581 3.90352,28.85755 3.90352,28.85755c0,0 -3.54439,-11.27949 -8.87833,-15.25434c-8.58189,-6.39522 -34.90664,-22.16565 -34.90664,-22.16565z" fill="url(#color-8)" stroke="#000000" stroke-width="0" stroke-linecap="butt"/><path d="M288.88877,173.29331c10.52444,-4.51767 22.87659,-4.1816 34.30518,-4.59234c4.64272,-0.16686 10.49124,-1.29482 14.88054,0.27663c3.41473,1.22254 9.48984,0.9903 12.0498,3.45757c2.67534,2.57848 -1.57133,7.70007 -3.3588,9.40341c-6.03613,5.75208 -17.42291,17.54144 -25.5161,19.61941c-9.27899,2.38243 -23.93241,-11.3898 -31.63661,-16.28975c-1.414,-0.89932 -10.24828,-4.54484 -10.66901,-5.34785c-0.80597,-1.53821 7.59926,-6.28104 9.12529,-6.8514z" fill="url(#color-9)" stroke="#000000" stroke-width="0" stroke-linecap="round"/><path d="M294.53588,162.16531c0,0 -23.2765,19.99757 -30.65248,27.75276c-4.58441,4.82011 -6.16902,16.53671 -6.16902,16.53671c0,0 -2.38207,-19.54045 -1.03593,-29.10194c1.27051,-9.0242 8.89902,-26.74836 8.89902,-26.74836z" fill="url(#color-10)" stroke="#000000" stroke-width="0" stroke-linecap="butt"/><path d="M367.2174,125.20363c2.37786,27.90177 -19.62276,55.51524 -49.76613,58.08413c-30.14337,2.56889 -57.01483,-20.87959 -59.39268,-48.78135c-2.37785,-27.90176 20.13056,-52.60311 50.27393,-55.172c30.14337,-2.56889 56.50704,17.96746 58.88489,45.86922z" fill="url(#color-11)" stroke="#000000" stroke-width="0" stroke-linecap="butt"/><path d="M328.36177,126.33488c0.23002,2.69906 -6.21191,5.45196 -14.38847,6.14879c-8.17656,0.69683 -14.99142,-0.92631 -15.22144,-3.62536c-0.23002,-2.69906 6.21191,-5.45196 14.38847,-6.14879c8.17656,-0.69683 14.99142,0.92631 15.22144,3.62536z" fill-opacity="0.18431" fill="#ff0505" stroke="none" stroke-width="0" stroke-linecap="butt"/><path d="M290.82712,125.43594c0.10051,1.17933 -2.13815,0.85219 -4.58219,1.06048c-2.44404,0.20829 -4.16796,0.87313 -4.26847,-0.30621c-0.10051,-1.17934 1.79931,-2.30423 4.24335,-2.51252c2.44404,-0.20829 4.50681,0.57891 4.60731,1.75824z" fill="#ffffff" stroke="#000000" stroke-width="2.5" stroke-linecap="butt"/><path d="M302.26556,83.23467c6.09676,-0.51958 11.47118,-1.65613 16.10741,-5.91247c2.1857,-2.00658 4.6951,-7.5006 7.70538,-8.19034c2.47866,-0.56793 3.27935,4.08194 5.51252,4.5827c4.15173,0.93099 10.72304,-2.13985 14.50665,-3.62325c1.14654,-0.44951 4.70756,-2.56485 5.88969,-2.05417c2.07089,0.89466 -0.89343,6.96503 -1.55189,8.2036c-2.37279,4.46328 -2.30157,13.38329 -9.63942,19.57011c-4.6271,3.90128 -16.90825,5.86886 -19.76307,7.61685" fill="url(#color-12)" stroke="#000000" stroke-width="0" stroke-linecap="round"/><path d="M318.14428,183.94484l1.39774,17.98364l2.7985,119.68128l1.37315,27.75288" fill="none" stroke-opacity="0.61176" stroke="#000000" stroke-width="2.5" stroke-linecap="round"/><path d="M337.03087,127.33248l10.03876,-2.31786" fill="none" stroke="#000000" stroke-width="2.5" stroke-linecap="round"/><path d="M283.64984,175.1026l4.71248,-15.00358l28.00648,0.54258l26.86255,-5.94876l6.48361,14.04942z" fill="#000000" stroke="#000000" stroke-width="2.5" stroke-linecap="round"/><path d="M338.70595,127.4722l16.06542,-3.30498" fill="none" stroke="#000000" stroke-width="2.5" stroke-linecap="round"/><path d="M349.64152,122.02328l-4.05247,2.92648" fill="none" stroke="#000000" stroke-width="2.5" stroke-linecap="round"/><path d="M280.47686,130.71387l-8.36939,-2.29805" fill="none" stroke="#000000" stroke-width="2.5" stroke-linecap="round"/><path d="M274.09731,126.5255l3.43487,-0.07763" fill="none" stroke="#000000" stroke-width="2.5" stroke-linecap="round"/><path d="M286.11143,136.25629l7.06877,-7.91559" fill="none" stroke="#000000" stroke-width="2.5" stroke-linecap="round"/><path d="M331.61782,125.06496l7.48366,4.52446" fill="none" stroke="#000000" stroke-width="2.5" stroke-linecap="round"/><path d="M343.64046,129.84788l4.89328,-0.63211" fill="none" stroke="#000000" stroke-width="2.5" stroke-linecap="round"/><path d="M277.5103,133.7629l3.08059,0.81293l-0.74511,9.60712" fill="none" stroke="#000000" stroke-width="2.5" stroke-linecap="round"/><path d="M290.64215,107.82245c0,0 -2.85739,9.01153 -5.50297,10.48749c-2.93641,1.63821 -11.33414,-1.09414 -11.33414,-1.09414" fill="none" stroke="#000000" stroke-width="2.5" stroke-linecap="round"/><path d="M343.56685,121.90078c0.10051,1.17933 -2.13815,0.8522 -4.58219,1.06049c-2.44404,0.20829 -4.16796,0.87313 -4.26847,-0.30621c-0.10051,-1.17934 1.79931,-2.30423 4.24335,-2.51252c2.44404,-0.20829 4.50681,0.57891 4.60731,1.75825z" fill="#ffffff" stroke="#000000" stroke-width="2.5" stroke-linecap="butt"/><path d="M346.4458,111.45537c0,0 -7.81428,4.11397 -10.98555,2.99628c-2.85719,-1.007 -7.19827,-9.40506 -7.19827,-9.40506" fill="none" stroke="#000000" stroke-width="2.5" stroke-linecap="round"/><path d="M304.44061,122.52593l-2.27133,3.63506" fill="none" stroke="#000000" stroke-width="2.5" stroke-linecap="round"/><path d="M307.67162,127.62791l-0.41857,-4.91148" fill="none" stroke="#000000" stroke-width="2.5" stroke-linecap="round"/><path d="M312.63769,127.84997l0.7353,-6.51546" fill="none" stroke="#000000" stroke-width="2.5" stroke-linecap="round"/><path d="M318.97117,126.44985l-0.63211,-4.89328" fill="none" stroke="#000000" stroke-width="2.5" stroke-linecap="round"/><path d="M322.80525,120.96085l2.19486,3.03935" fill="none" stroke="#000000" stroke-width="2.5" stroke-linecap="round"/><path d="M354.24104,122.65272c0.16669,1.95598 -2.02,3.73948 -4.88411,3.98357c-2.86411,0.24409 -5.32106,-1.14367 -5.48776,-3.09965c-0.16669,-1.95598 2.02,-3.73948 4.88411,-3.98357c2.86411,-0.24409 5.32106,1.14367 5.48776,3.09965z" fill="#ffffff" stroke="#000000" stroke-width="2.5" stroke-linecap="butt"/><path d="M281.74722,128.79446c0.19714,2.31325 -2.1434,4.4016 -5.22774,4.66446c-3.08434,0.26285 -5.74451,-1.39932 -5.94165,-3.71258c-0.19714,-2.31325 2.1434,-4.4016 5.22774,-4.66446c3.08434,-0.26285 5.74451,1.39932 5.94165,3.71258z" fill="#ffffff" stroke="#000000" stroke-width="2.5" stroke-linecap="butt"/><path d="M343.96308,170.36954l1.10821,-4.93582l-1.39857,7.50866l-1.02909,-9.08544" fill="none" stroke="#000000" stroke-width="2.5" stroke-linecap="round"/><path d="M341.34139,166.51601l-0.17683,6.89493l-0.58782,-9.88748" fill="none" stroke="#000000" stroke-width="2.5" stroke-linecap="round"/><path d="M339.60935,176.09157l-0.733,-8.60105l1.0018,5.77524" fill="none" stroke="#000000" stroke-width="2.5" stroke-linecap="round"/><path d="M338.13899,167.80817l0.29036,-2.57284" fill="none" stroke="#000000" stroke-width="2.5" stroke-linecap="round"/><path d="M335.39941,168.55125l0.77474,-2.86893l0.28027,3.28864" fill="none" stroke="#000000" stroke-width="2.5" stroke-linecap="round"/><path d="M332.36375,168.80997l0.9041,-1.3511l0.21559,2.52972" fill="none" stroke="#000000" stroke-width="2.5" stroke-linecap="round"/><path d="M331.64222,166.32336l0.733,8.60105l-1.8254,-6.46948" fill="none" stroke="#000000" stroke-width="2.5" stroke-linecap="round"/><path d="M329.14552,172.90637l1.02197,-5.94771l1.83686,12.58393" fill="none" stroke="#000000" stroke-width="2.5" stroke-linecap="round"/><path d="M326.66902,167.76642l1.43159,-1.14124l-0.24724,3.07878z" fill="none" stroke="#000000" stroke-width="2.5" stroke-linecap="round"/><path d="M323.05695,142.58287l1.63203,15.01493l-1.18477,-9.76676" fill="none" stroke="#000000" stroke-width="2.5" stroke-linecap="round"/><path d="M326.75842,157.06901l-1.13115,3.26817l-1.22854,-2.00982" fill="none" stroke="#000000" stroke-width="2.5" stroke-linecap="round"/><path d="M331.2253,159.86009l-1.81695,-4.77902l-1.01188,4.66768l-1.1172,-4.83865" fill="none" stroke="#000000" stroke-width="2.5" stroke-linecap="round"/><path d="M321.902,133.16599l-0.32799,-3.84866" fill="none" stroke="#000000" stroke-width="2.5" stroke-linecap="round"/><path d="M319.78275,153.78689l0.8866,6.26798" fill="none" stroke="#000000" stroke-width="2.5" stroke-linecap="round"/><path d="M337.25476,156.17449l-0.58842,-2.76921" fill="none" stroke="#000000" stroke-width="2.5" stroke-linecap="round"/><path d="M339.78542,152.78704l1.78713,4.42914" fill="none" stroke="#000000" stroke-width="2.5" stroke-linecap="round"/><path d="M345.27213,155.13881l2.68768,2.5903" fill="none" stroke="#000000" stroke-width="2.5" stroke-linecap="round"/><path d="M348.42103,154.87046l1.52671,5.5086l0.15701,5.97774l-0.46121,2.85866l-1.52671,-5.5086l-1.68183,5.07719l-1.05756,-4.1389" fill="none" stroke="#000000" stroke-width="2.5" stroke-linecap="round"/><path d="M352.75469,164.36886l-0.41744,-4.89828l0.61824,3.11908" fill="none" stroke="#000000" stroke-width="2.5" stroke-linecap="round"/><path d="M289.38734,131.39278l-10.28621,-0.58572l13.30254,1.04131l-10.22699,3.66778l4.17372,-5.98429" fill="none" stroke="#000000" stroke-width="2.5" stroke-linecap="round"/><path d="M281.58725,139.80551l0.77334,-7.46671" fill="none" stroke="#000000" stroke-width="2.5" stroke-linecap="round"/><path d="M280.79202,151.15069l-2.32385,-10.72694" fill="none" stroke="#000000" stroke-width="2.5" stroke-linecap="round"/><path d="M284.4199,173.0439l-1.2961,-6.93792l-2.54051,-17.40443" fill="none" stroke="#000000" stroke-width="2.5" stroke-linecap="round"/><path d="M283.1238,166.10598l2.55446,9.29761" fill="none" stroke="#000000" stroke-width="2.5" stroke-linecap="round"/><g stroke-width="2.5" stroke-linecap="butt"><path d="M331.30615,210.42973c-0.07675,-1.10874 -0.0336,-1.54031 0.22105,-2.212c0.02929,-0.07725 0.05977,-0.15326 0.09145,-0.22803c0.00554,-0.01377 0.01114,-0.02738 0.01683,-0.04082c0.10887,-0.2575 0.23461,-0.49868 0.37493,-0.72335c0.40699,-0.66297 0.93262,-1.19326 1.56733,-1.57889c0.62874,-0.382 0.95289,-0.56216 1.98151,-0.64263c0.11375,-0.01147 0.22773,-0.01874 0.34167,-0.02178c0.85386,-0.04224 1.18086,0.04553 1.67067,0.27305c0.95134,0.35354 1.79039,1.0507 2.32416,2.10525l0.23603,0.46632l0.17801,-0.4914c0.40256,-1.11127 1.15132,-1.90462 2.05302,-2.37042c0.45876,-0.28498 0.77278,-0.41158 1.6255,-0.47273c0.11346,-0.01073 0.22748,-0.01728 0.34179,-0.01962c1.03082,-0.04429 1.37434,0.09543 2.04459,0.39874c0.67661,0.3062 1.26241,0.76914 1.74644,1.37812c0.16642,0.2061 0.32037,0.43035 0.45954,0.67283c0.00726,0.01265 0.01448,0.02549 0.02164,0.0385c0.04047,0.07038 0.07991,0.14216 0.11831,0.21531c0.33387,0.63605 0.42881,1.05925 0.48646,2.16914c0.00119,0.02289 0.0023,0.04573 0.00333,0.06851c0.06831,0.86286 0.02185,1.74333 -0.16273,2.39725c-0.51075,1.80935 -1.60902,3.23169 -4.22191,5.4676c-1.71358,1.46637 -3.61656,3.64322 -3.73877,3.94018c-0.06636,0.1612 -0.20145,0.16938 -0.28678,0.01737c-0.15718,-0.28003 -2.30903,-2.21124 -4.18708,-3.46004c-2.86369,-1.90414 -4.12562,-3.18351 -4.85105,-4.91796c-0.26217,-0.62685 -0.4146,-1.49529 -0.45094,-2.36007c-0.00173,-0.02274 -0.00338,-0.04554 -0.00497,-0.0684z" fill="url(#color-13)" stroke="url(#color-14)"/><path d="M338.5302,214.54101c-0.07675,-1.10874 -0.03361,-1.54032 0.22104,-2.21201c0.02929,-0.07725 0.05978,-0.15326 0.09145,-0.22802c0.00554,-0.01377 0.01114,-0.02737 0.01682,-0.04081c0.10887,-0.2575 0.23461,-0.49869 0.37494,-0.72337c0.40699,-0.66297 0.93261,-1.19325 1.56732,-1.57889c0.62874,-0.382 0.95289,-0.56216 1.98151,-0.64263c0.11375,-0.01147 0.22774,-0.01873 0.34167,-0.02177c0.85386,-0.04224 1.18087,0.04553 1.67068,0.27304c0.95134,0.35354 1.79039,1.05071 2.32416,2.10526l0.23603,0.46631l0.17801,-0.49139c0.40256,-1.11127 1.15132,-1.90462 2.05302,-2.37042c0.45876,-0.28498 0.77277,-0.41158 1.62549,-0.47273c0.11346,-0.01073 0.22749,-0.01728 0.3418,-0.01963c1.03082,-0.04429 1.37433,0.09543 2.04459,0.39874c0.67661,0.3062 1.26241,0.76913 1.74645,1.37812c0.16642,0.2061 0.32037,0.43035 0.45953,0.67284c0.00726,0.01265 0.01448,0.02549 0.02164,0.03849c0.04047,0.07038 0.07991,0.14216 0.11831,0.2153c0.33387,0.63605 0.42881,1.05926 0.48645,2.16915c0.00119,0.02289 0.00231,0.04572 0.00334,0.0685c0.06832,0.86285 0.02185,1.74333 -0.16273,2.39725c-0.51075,1.80935 -1.60902,3.23169 -4.22191,5.4676c-1.71358,1.46637 -3.61656,3.64322 -3.73878,3.94018c-0.06636,0.1612 -0.20145,0.16938 -0.28677,0.01737c-0.15718,-0.28003 -2.30902,-2.21124 -4.18708,-3.46004c-2.86369,-1.90414 -4.12562,-3.18351 -4.85106,-4.91796c-0.26217,-0.62685 -0.4146,-1.49528 -0.45094,-2.36007c-0.00173,-0.02274 -0.00338,-0.04554 -0.00497,-0.0684z" fill="url(#color-15)" stroke="url(#color-16)"/></g></g></g></svg>