<svg version="1.1" xmlns="http://www.w3.org/2000/svg" xmlns:xlink="http://www.w3.org/1999/xlink" width="197.53618" height="374.13885" viewBox="0,0,197.53618,374.13885"><defs><radialGradient cx="325.37287" cy="204.49487" r="33.16925" gradientUnits="userSpaceOnUse" id="color-1"><stop offset="0" stop-color="#ee2828"/><stop offset="1" stop-color="#500000"/></radialGradient><radialGradient cx="327.03025" cy="188.81352" r="28.48101" gradientUnits="userSpaceOnUse" id="color-2"><stop offset="0" stop-color="#ee2828"/><stop offset="1" stop-color="#500000"/></radialGradient><linearGradient x1="286.281" y1="30.37734" x2="340.71667" y2="1.01076" gradientUnits="userSpaceOnUse" id="color-3"><stop offset="0" stop-color="#000000"/><stop offset="1" stop-color="#d31b1b"/></linearGradient><linearGradient x1="201.96862" y1="93.07266" x2="259.62531" y2="61.96844" gradientUnits="userSpaceOnUse" id="color-4"><stop offset="0" stop-color="#d31b1b"/><stop offset="1" stop-color="#16031b"/></linearGradient><linearGradient x1="272.73933" y1="46.64999" x2="330.65622" y2="135.92997" gradientUnits="userSpaceOnUse" id="color-5"><stop offset="0" stop-color="#190307"/><stop offset="1" stop-color="#ee2828"/></linearGradient><linearGradient x1="272.7958" y1="39.13566" x2="297.21702" y2="84.40433" gradientUnits="userSpaceOnUse" id="color-6"><stop offset="0" stop-color="#d31b1b"/><stop offset="1" stop-color="#670000"/></linearGradient><radialGradient cx="273.83438" cy="96.3952" r="10.02727" gradientUnits="userSpaceOnUse" id="color-7"><stop offset="0" stop-color="#ffffff" stop-opacity="0.61176"/><stop offset="1" stop-color="#ffffff" stop-opacity="0"/></radialGradient><radialGradient cx="321.55327" cy="68.7976" r="10.02727" gradientUnits="userSpaceOnUse" id="color-8"><stop offset="0" stop-color="#ffffff" stop-opacity="0.61176"/><stop offset="1" stop-color="#ffffff" stop-opacity="0"/></radialGradient><radialGradient cx="320.80905" cy="68.24309" r="5.70896" gradientUnits="userSpaceOnUse" id="color-9"><stop offset="0" stop-color="#ffffff" stop-opacity="0.61176"/><stop offset="1" stop-color="#ffffff" stop-opacity="0"/></radialGradient><radialGradient cx="274.39963" cy="96.8249" r="5.70896" gradientUnits="userSpaceOnUse" id="color-10"><stop offset="0" stop-color="#ffffff" stop-opacity="0.61176"/><stop offset="1" stop-color="#ffffff" stop-opacity="0"/></radialGradient></defs><g transform="translate(-182.10719,32.97556)"><g stroke-miterlimit="10"><path d="M286.10367,341.16329l-4.11522,-72.28875l-5.57067,-11.82353l4.00414,-15.69448l-10.93161,-21.12876l9.42631,-5.31352l-19.94274,-32.10333l18.19454,1.3942l-20.17079,-23.89476l18.98284,3.02707l-11.29465,-24.77072c0,0 14.04588,11.03845 15.31251,6.9247c2.26395,-7.3528 5.47226,-14.30185 9.59344,-14.84017c8.90405,-1.16307 30.03126,-3.43985 48.46607,-5.84787c19.99472,-2.61178 27.8845,17.60702 27.8845,17.60702l7.58782,-13.97282c0,0 -7.13655,24.34893 -6.9486,28.67039c0.13651,3.13887 10.50836,-12.20472 10.50836,-12.20472c0,0 -9.69183,30.97917 -9.51082,35.14127c0.17546,4.03442 12.06427,-0.25022 12.06427,-0.25022c0,0 -10.92083,26.54147 -10.65251,32.71113c0.20856,4.79563 8.32158,3.43353 8.32158,3.43353c0,0 -7.31187,19.7831 -7.12994,23.96605c0.18769,4.31555 4.29554,9.0279 4.29554,9.0279c0,0 -3.36859,12.28543 -3.19052,16.37988c1.66269,38.23074 3.19928,73.562 3.19928,73.562z" fill="#000000" stroke="#000000" stroke-width="0" stroke-linecap="butt"/><path d="M338.40608,139.3631c0.16565,7.74917 -6.97521,14.32085 -15.94957,14.67829c-8.97435,0.35745 -16.38378,-5.6347 -16.54944,-13.38386c-0.16565,-7.74917 6.9752,-14.32085 15.94956,-14.67829c8.97435,-0.35745 16.38379,5.63472 16.54945,13.38386z" fill="#ee2828" stroke="#000000" stroke-width="0" stroke-linecap="butt"/><path d="M350.84665,233.7172l-51.97237,-18.65575l-0.51621,30.68339l32.48161,-48.70755l21.54803,-33.7924" fill="none" stroke="url(#color-1)" stroke-width="2.5" stroke-linecap="round"/><path d="M355.72825,198.88514l-57.39596,-20.14323" fill="none" stroke="url(#color-2)" stroke-width="2.5" stroke-linecap="round"/><path d="M343.0894,143.28849l-51.92268,3.88833" fill="none" stroke="#000000" stroke-width="0" stroke-linecap="round"/><path d="M330.60301,37.69581c4.45693,7.03819 -16.12108,30.37626 -45.96225,52.12707c-29.84118,21.75078 -57.64529,33.6777 -62.10222,26.63953c-4.45691,-7.03819 16.12107,-30.37625 45.96227,-52.12705c29.84118,-21.75078 57.6453,-33.67772 62.10223,-26.63954z" fill="#580b0b" stroke="#000000" stroke-width="0" stroke-linecap="butt"/><path d="M288.57402,35.84179l28.10968,-23.56055l0.64766,-45.2568l20.25241,29.39298l8.89416,40.7409l-11.94129,10.90637l-8.64572,-9.81877l-17.93378,-6.05112z" fill="url(#color-3)" stroke="#000000" stroke-width="0" stroke-linecap="round"/><path d="M246.98471,76.33654l-1.34702,18.87914l5.71634,11.76776l-14.67286,6.8007l-34.14172,-23.94307l-20.43226,-32.37085l43.13875,19.22214l32.59096,-16.82511z" fill="url(#color-4)" stroke="#000000" stroke-width="0" stroke-linecap="round"/><path d="M346.23275,60.04418c14.60956,24.53373 8.8516,61.37643 -17.14141,76.85497c-25.99301,15.47854 -60.66646,5.6903 -75.27601,-18.84341c-14.60955,-24.53372 -7.09303,-58.92886 18.9,-74.40739c25.99301,-15.47854 58.90791,-8.13788 73.51746,16.39584z" fill="url(#color-5)" stroke="#000000" stroke-width="0" stroke-linecap="butt"/><path d="M311.06495,75.24918c1.38597,2.32743 -3.20624,7.61784 -10.25699,11.81649c-7.05075,4.19865 -13.89004,5.71557 -15.27599,3.38812c-1.38597,-2.32743 3.20625,-7.61784 10.257,-11.81649c7.05075,-4.19865 13.89005,-5.71556 15.27601,-3.38812z" fill-opacity="0.23137" fill="#000000" stroke="none" stroke-width="0" stroke-linecap="butt"/><path d="M277.62185,93.69922c1.14346,1.92018 0.3619,4.49421 -1.74562,5.74921c-2.10754,1.25501 -4.74297,0.71577 -5.88643,-1.20441c-1.14346,-1.9202 -0.3619,-4.49421 1.74562,-5.74921c2.10754,-1.25501 4.74296,-0.71577 5.88643,1.20441z" fill="#ffffff" stroke="#000000" stroke-width="2.5" stroke-linecap="butt"/><path d="M323.87485,64.30079c1.14346,1.9202 0.3619,4.4942 -1.74562,5.74921c-2.10754,1.25501 -4.74296,0.71577 -5.88642,-1.20442c-1.14346,-1.92018 -0.36192,-4.49419 1.74562,-5.7492c2.10754,-1.25501 4.74297,-0.71578 5.88643,1.2044z" fill="#ffffff" stroke="#000000" stroke-width="2.5" stroke-linecap="butt"/><path d="M330.33943,31.35195c1.95886,3.53947 6.81712,12.64355 6.81712,12.64355l-44.33268,32.22036l-44.43304,31.64672c0,0 -6.31848,-8.85197 -8.22747,-12.30136c-7.76992,-14.03938 6.11793,-39.7943 31.01937,-57.5252c24.90143,-17.73089 51.38679,-20.72345 59.15671,-6.68406zM291.28416,44.93251c-12.40271,8.83126 -19.31984,21.6591 -15.44988,28.65172c0.95082,1.71803 4.09788,6.12697 4.09788,6.12697l22.13086,-15.76235l22.08088,-16.04808c0,0 -2.41976,-4.53448 -3.39539,-6.29739c-3.86998,-6.99263 -17.0616,-5.50213 -29.46433,3.32914z" fill="url(#color-6)" stroke="#000000" stroke-width="0" stroke-linecap="butt"/><path d="M320.70534,53.52402l-41.50473,29.70916l49.88363,-35.9804" fill="none" stroke-opacity="0.48235" stroke="#000000" stroke-width="2.5" stroke-linecap="round"/><path d="M278.46303,35.37205c0,0 4.83241,1.12145 6.8473,2.69431c2.12485,1.6587 5.58947,7.01405 5.58947,7.01405" fill="none" stroke-opacity="0.48235" stroke="#000000" stroke-width="0" stroke-linecap="round"/><path d="M261.52634,98.02348c0,0 -13.13128,-18.67432 -10.66968,-28.72015c2.63228,-10.74238 25.98572,-33.78467 25.98572,-33.78467c0,0 20.08325,-7.46507 30.27956,-5.61657c8.10849,1.46999 26.08239,15.83447 26.08239,15.83447" fill="none" stroke-opacity="0.48235" stroke="#000000" stroke-width="0" stroke-linecap="round"/><path d="M279.33405,31.23088c1.00907,1.69456 0.0919,4.10154 -2.04857,5.37617c-2.14049,1.27464 -4.69372,0.93422 -5.70279,-0.76032c-1.00907,-1.69456 -0.09191,-4.10154 2.04858,-5.37617c2.14048,-1.27464 4.6937,-0.93423 5.70279,0.76032z" fill="#d31b1b" stroke="#000000" stroke-width="0" stroke-linecap="butt"/><path d="M307.22405,74.63678c0,0 -0.83419,-3.07397 2.7518,-5.26694c6.41144,-3.92084 26.8118,-16.39643 26.8118,-16.39643" fill="none" stroke="#000000" stroke-width="0" stroke-linecap="round"/><path d="M278.46303,35.37205c0,0 4.83241,1.12145 6.8473,2.69431c2.12485,1.6587 5.58947,7.01405 5.58947,7.01405" fill="none" stroke-opacity="0.48235" stroke="#000000" stroke-width="2.5" stroke-linecap="round"/><path d="M261.52634,98.02347c0,0 -13.13129,-18.67432 -10.66969,-28.72015c2.63228,-10.74237 25.98573,-33.78467 25.98573,-33.78467c0,0 20.08324,-7.46507 30.27955,-5.61657c8.10849,1.46999 26.08239,15.83447 26.08239,15.83447" fill="none" stroke-opacity="0.48235" stroke="#000000" stroke-width="2.5" stroke-linecap="round"/><path d="M280.35974,90.98873c2.13822,5.10846 1.89538,12.75206 -2.65377,14.65618c-4.54914,1.90411 -11.68194,-2.6523 -13.82017,-7.76077c-2.13822,-5.10846 -0.18378,-10.79329 4.36537,-12.69739c4.54914,-1.90411 9.97034,0.69353 12.10856,5.802z" fill="url(#color-7)" stroke="none" stroke-width="0" stroke-linecap="butt"/><path d="M328.07863,63.39111c2.13822,5.10846 0.18379,10.79329 -4.36535,12.69739c-4.54914,1.90411 -9.97032,-0.69354 -12.10854,-5.802c-2.13822,-5.10846 -0.1838,-10.79329 4.36535,-12.69741c4.54914,-1.90412 9.97034,0.69355 12.10856,5.80201z" fill="url(#color-8)" stroke="none" stroke-width="0" stroke-linecap="butt"/><path d="M323.78711,64.32141c1.21739,2.90846 0.10464,6.14507 -2.48539,7.22917c-2.59004,1.0841 -5.67654,-0.39485 -6.89393,-3.30332c-1.21739,-2.90846 -0.10465,-6.14508 2.48538,-7.22918c2.59004,-1.0841 5.67655,0.39487 6.89393,3.30333z" fill="url(#color-9)" stroke="none" stroke-width="0" stroke-linecap="butt"/><path d="M277.37768,92.9032c1.21739,2.90846 1.81625,8.10385 -0.77377,9.18793c-2.59003,1.08409 -7.38814,-2.35363 -8.60553,-5.26209c-1.21739,-2.90846 -0.10464,-6.14508 2.48538,-7.22917c2.59003,-1.08409 5.67653,0.39487 6.89391,3.30333z" fill="url(#color-10)" stroke="none" stroke-width="0" stroke-linecap="butt"/><path d="M309.5846,136.68525l-22.01967,-5.17039l-0.02772,-9.67053l12.01206,-1.21984l11.49339,-11.07085l19.91249,-5.05266l6.83372,-6.7671l4.90485,0.19285l1.34683,15.11269l-4.0037,8.01921l-10.36496,8.51974z" fill="#000000" stroke-opacity="0.7098" stroke="#000000" stroke-width="2.5" stroke-linecap="round"/><path d="M288.8937,122.60658l9.32593,-1.1344l-0.35645,8.46744l-8.36354,-3.61352z" fill="#ffffff" stroke-opacity="0.50196" stroke="#000000" stroke-width="2.5" stroke-linecap="round"/><path d="M340.9823,101.35186l-6.78799,9.7962l-2.22254,-7.41507l8.72698,-6.2322z" fill="#ffffff" stroke-opacity="0.50196" stroke="#000000" stroke-width="2.5" stroke-linecap="round"/><path d="M301.44822,119.97256l8.63826,-6.98724l-0.25822,9.30356l-7.78639,1.29869z" fill="#ffffff" stroke-opacity="0.50196" stroke="#000000" stroke-width="2.5" stroke-linecap="round"/><path d="M311.83087,110.35472l9.21728,-2.05912l-0.34094,8.59954l-8.27236,-2.83742z" fill="#ffffff" stroke-opacity="0.50196" stroke="#000000" stroke-width="2.5" stroke-linecap="round"/><path d="M330.15159,109.07263l-5.61325,6.52192l-2.02258,-7.97239l7.32728,-2.33093z" fill="#ffffff" stroke-opacity="0.50196" stroke="#000000" stroke-width="2.5" stroke-linecap="round"/><path d="M307.81806,135.03588l-8.53343,-1.28351l6.66248,-8.20432l4.16965,5.68807z" fill="#ffffff" stroke-opacity="0.50196" stroke="#000000" stroke-width="2.5" stroke-linecap="round"/><path d="M312.90995,130.70587l3.45892,-6.62494l7.50916,6.46391l-8.26617,3.34666z" fill="#ffffff" stroke-opacity="0.50196" stroke="#000000" stroke-width="2.5" stroke-linecap="round"/><path d="M322.65268,126.12439l0.5826,-6.6258l10.45823,4.82598l-6.8986,4.32863z" fill="#ffffff" stroke-opacity="0.50196" stroke="#000000" stroke-width="2.5" stroke-linecap="round"/><path d="M331.08152,120.45682l-3.53512,-6.21088l11.04512,3.50813l-2.76369,4.66586z" fill="#ffffff" stroke-opacity="0.50196" stroke="#000000" stroke-width="2.5" stroke-linecap="round"/><path d="M338.31343,112.08794l3.25889,3.85986l-10.83615,-1.72956l2.9395,-3.16958z" fill="#ffffff" stroke-opacity="0.50196" stroke="#000000" stroke-width="2.5" stroke-linecap="round"/></g></g></svg>