<svg version="1.1" xmlns="http://www.w3.org/2000/svg" xmlns:xlink="http://www.w3.org/1999/xlink" width="160.73654" height="324.19755" viewBox="0,0,160.73654,324.19755"><defs><linearGradient x1="318.45025" y1="175.98661" x2="311.69037" y2="354.70337" gradientUnits="userSpaceOnUse" id="color-1"><stop offset="0" stop-color="#2982c1"/><stop offset="1" stop-color="#000000"/></linearGradient><linearGradient x1="396.28849" y1="149.70493" x2="356.84545" y2="148.21302" gradientUnits="userSpaceOnUse" id="color-2"><stop offset="0" stop-color="#a636f3"/><stop offset="1" stop-color="#581b7d"/></linearGradient><linearGradient x1="242.27873" y1="149.37245" x2="281.72176" y2="150.86436" gradientUnits="userSpaceOnUse" id="color-3"><stop offset="0" stop-color="#a636f3"/><stop offset="1" stop-color="#581b7d"/></linearGradient><radialGradient cx="284.35478" cy="101.57645" r="25.84387" gradientUnits="userSpaceOnUse" id="color-4"><stop offset="0" stop-color="#000000" stop-opacity="0.92549"/><stop offset="1" stop-color="#000000" stop-opacity="0"/></radialGradient><linearGradient x1="239.24041" y1="75.57102" x2="304.03381" y2="85.2448" gradientUnits="userSpaceOnUse" id="color-5"><stop offset="0" stop-color="#a636f3"/><stop offset="1" stop-color="#16031b"/></linearGradient><radialGradient cx="356.76627" cy="99.16606" r="25.35587" gradientUnits="userSpaceOnUse" id="color-6"><stop offset="0" stop-color="#000000" stop-opacity="0.92549"/><stop offset="1" stop-color="#000000" stop-opacity="0"/></radialGradient><linearGradient x1="402.65851" y1="79.19153" x2="337.31948" y2="83.94313" gradientUnits="userSpaceOnUse" id="color-7"><stop offset="0" stop-color="#a636f3"/><stop offset="1" stop-color="#16031b"/></linearGradient></defs><g transform="translate(-240.56419,-33.55217)"><g stroke-miterlimit="10"><path d="M268.41973,349.42544l3.61286,-147.24445c0,0 7.05028,-25.44991 16.06573,-25.51443c8.95308,-0.06406 30.15943,0.18103 48.69575,0.04838c20.10481,-0.14387 26.40214,17.27318 26.40214,17.27318l-6.6193,162.41305z" fill="url(#color-1)" stroke="#000000" stroke-width="2.5" stroke-linecap="butt"/><path d="M341.67746,188.6562c-0.57455,8.50357 -10.70914,14.74379 -22.63622,13.93793c-11.92708,-0.80587 -21.13012,-8.35264 -20.55556,-16.85622c0.57455,-8.50357 10.70912,-14.74379 22.6362,-13.93793c11.92708,0.80587 21.13013,8.35266 20.55557,16.85623z" fill="#f2f2f2" stroke="#000000" stroke-width="1.5" stroke-linecap="butt"/><path d="M336.01982,188.72264c-0.43167,6.38889 -8.04597,11.07728 -17.00701,10.47182c-8.96104,-0.60547 -15.87545,-6.2755 -15.44377,-12.6644c0.43167,-6.38889 8.04596,-11.07728 17.007,-10.47182c8.96104,0.60547 15.87546,6.27551 15.44378,12.6644z" fill="#a636f3" stroke="#000000" stroke-width="2.5" stroke-linecap="butt"/><path d="M376.3189,118.86673c4.77177,0.59897 8.14666,-1.63582 12.55239,-2.53764c0.671,-0.13736 4.40736,-1.67775 4.88371,-1.05177c0.3673,0.48267 -1.26756,3.60582 -1.47161,4.15298c-0.69477,1.86286 -6.26656,11.90625 -6.17381,12.68731c0.34204,2.88041 9.18389,-1.30145 10.51712,-0.00312c1.22121,1.18924 -1.71015,5.11356 -2.24593,5.99835c-1.51584,2.50321 -8.73607,15.40534 -8.71132,17.46093c0.0394,3.27165 4.19835,7.09062 2.58223,11.35363c-0.79305,2.09191 -2.49537,-1.09218 -3.46291,-0.74296c-0.98541,0.35568 -0.81849,4.50323 -0.84252,5.37565c-0.09795,3.55572 -0.27431,7.53426 -1.08726,11.0315c-0.08374,0.36024 -0.04598,0.91247 -0.36076,1.04493c-0.78406,0.32991 -9.05384,-8.94986 -10.3971,-10.02162c-6.53899,-5.21732 -12.81885,-13.19919 -14.47792,-22.49243c-2.50642,-14.03969 2.76311,-33.60688 18.30639,-31.6585z" fill="url(#color-2)" stroke="#000000" stroke-width="2.5" stroke-linecap="round"/><path d="M264.86386,120.75582c15.64605,-0.76866 19.4224,19.14068 15.86257,32.95091c-2.35634,9.14136 -9.22122,16.62604 -16.13565,21.33449c-1.42038,0.96723 -10.36754,9.59577 -11.12443,9.20757c-0.30389,-0.15585 -0.22451,-0.70365 -0.2808,-1.06919c-0.54643,-3.54865 -0.42176,-7.52914 -0.25082,-11.0821c0.04193,-0.87174 0.5217,-4.99483 -0.43403,-5.42393c-0.93839,-0.42133 -2.87637,2.62508 -3.50913,0.47924c-1.28948,-4.3729 3.14608,-7.86681 3.43251,-11.12613c0.17997,-2.04786 -6.04499,-15.45853 -7.3674,-18.0691c-0.46742,-0.92273 -3.09395,-5.05728 -1.78639,-6.15087c1.4275,-1.1939 9.92817,3.64392 10.48684,0.7976c0.15149,-0.77183 -4.64569,-11.20741 -5.19775,-13.11744c-0.16215,-0.56101 -1.5564,-3.79873 -1.1537,-4.25228c0.52228,-0.58821 4.1316,1.23003 4.79031,1.41768c4.325,1.23207 7.52144,3.71542 12.32481,3.47862z" fill="url(#color-3)" stroke="#000000" stroke-width="2.5" stroke-linecap="round"/><path d="M374.6985,138.22363c-3.01644,28.39444 -29.90909,51.83515 -59.99245,48.63929c-30.08336,-3.19585 -51.96548,-31.81807 -48.94904,-60.2125c3.01643,-28.39443 29.84914,-48.82192 59.9325,-45.62605c30.08336,3.19585 52.02545,28.80484 49.00902,57.19926z" fill="#a636f3" stroke="#000000" stroke-width="2.5" stroke-linecap="butt"/><path d="M334.70341,126.79646c-0.08864,2.70739 -6.80935,4.68449 -15.01115,4.41598c-8.2018,-0.26851 -14.77882,-2.68095 -14.69017,-5.38834c0.08864,-2.70739 6.80936,-4.68449 15.01116,-4.41598c8.2018,0.26851 14.77882,2.68095 14.69018,5.38834z" fill-opacity="0.23137" fill="#000000" stroke="none" stroke-width="0" stroke-linecap="butt"/><path d="M288.80651,122.10695c-12.50675,6.00078 -24.63858,1.67358 -27.09721,-9.6651c-2.45861,-11.33868 5.68701,-25.3951 18.19377,-31.39589c12.50675,-6.00078 24.63858,-1.67358 27.0972,9.6651c2.45861,11.33868 -5.68701,25.39509 -18.19376,31.39589z" fill="url(#color-4)" stroke="#000000" stroke-width="0" stroke-linecap="butt"/><path d="M298.24639,100.14974l-14.36608,11.82085l-13.25936,6.93644l-15.82063,-3.35416l-12.97009,-39.6321l3.05499,-38.15779l23.0012,41.24788l36.1713,6.0739z" fill="url(#color-5)" stroke="#000000" stroke-width="2.5" stroke-linecap="round"/><path d="M335.41716,86.85794c3.24566,-10.91057 15.43511,-14.2448 27.22589,-7.44721c11.79078,6.79759 18.71798,21.15289 15.47232,32.06346c-3.24566,10.91057 -15.43512,14.2448 -27.2259,7.44721c-11.79078,-6.79759 -18.71797,-21.15289 -15.47231,-32.06345z" fill="url(#color-6)" stroke="#000000" stroke-width="0" stroke-linecap="butt"/><path d="M337.30772,83.78171l36.52678,-3.32412l26.05138,-39.39249l0.16379,38.27953l-15.92688,38.53908l-16.0288,2.14947l-12.69747,-7.91823l-13.43208,-12.87232z" fill="url(#color-7)" stroke="#000000" stroke-width="2.5" stroke-linecap="round"/><path d="M313.11857,93.70735c0,0 -1.23428,0.79718 -2.64532,1.49834c-1.09387,0.54356 -2.29397,1.02942 -3.10761,1.04144c-0.75766,0.01119 -1.82805,-0.45765 -2.78365,-0.98214c-1.19503,-0.65591 -2.21057,-1.39883 -2.21057,-1.39883" fill="none" stroke-opacity="0.40392" stroke="#000000" stroke-width="2.5" stroke-linecap="round"/><path d="M342.71589,95.77046c0,0 -1.39591,0.45869 -2.93851,0.77971c-1.19586,0.24887 -2.47988,0.41502 -3.27006,0.22064c-0.73581,-0.18101 -1.65259,-0.90559 -2.44425,-1.65496c-0.99001,-0.93712 -1.78434,-1.91298 -1.78434,-1.91298" fill="none" stroke-opacity="0.40392" stroke="#000000" stroke-width="2.5" stroke-linecap="round"/><path d="M327.80015,91.2359c0,0 -1.18995,0.86194 -2.56154,1.63745c-1.06329,0.60119 -2.23573,1.15045 -3.04758,1.2059c-0.75598,0.05163 -1.84988,-0.35939 -2.83212,-0.8321c-1.22834,-0.59115 -2.2821,-1.2788 -2.2821,-1.2788" fill="none" stroke-opacity="0.40392" stroke="#000000" stroke-width="2.5" stroke-linecap="round"/><path d="M371.25637,136.02568c0,0 -0.93204,0.47622 -1.95964,0.81672c-0.79663,0.26397 -1.65069,0.44639 -2.1725,0.26215c-0.4859,-0.17157 -1.08496,-0.88413 -1.6007,-1.62306c-0.64494,-0.92407 -1.15957,-1.88935 -1.15957,-1.88935" fill="none" stroke-opacity="0.40392" stroke="#000000" stroke-width="2.5" stroke-linecap="round"/><path d="M371.38166,144.53882c0,0 -0.93204,0.47622 -1.95964,0.81673c-0.79663,0.26397 -1.65069,0.44639 -2.1725,0.26215c-0.4859,-0.17157 -1.08496,-0.88413 -1.6007,-1.62306c-0.64494,-0.92407 -1.15957,-1.88935 -1.15957,-1.88935" fill="none" stroke-opacity="0.40392" stroke="#000000" stroke-width="2.5" stroke-linecap="round"/><path d="M369.23207,152.96589c0,0 -0.93204,0.47622 -1.95964,0.81673c-0.79663,0.26397 -1.65068,0.44639 -2.17249,0.26215c-0.48591,-0.17156 -1.08497,-0.88412 -1.60071,-1.62305c-0.64494,-0.92407 -1.15957,-1.88935 -1.15957,-1.88935" fill="none" stroke-opacity="0.40392" stroke="#000000" stroke-width="2.5" stroke-linecap="round"/><path d="M275.80174,128.42986c0,0 -0.58607,0.92365 -1.29898,1.79636c-0.57008,0.69786 -1.22126,1.36313 -1.71873,1.49751c-0.53424,0.14429 -1.37207,-0.10212 -2.14649,-0.42552c-0.99895,-0.41716 -1.89234,-0.96242 -1.89234,-0.96242" fill="none" stroke-opacity="0.40392" stroke="#000000" stroke-width="2.5" stroke-linecap="round"/><path d="M276.72627,134.34461c0,0 -0.58607,0.92365 -1.29898,1.79635c-0.57008,0.69786 -1.22126,1.36313 -1.71874,1.49751c-0.53424,0.14429 -1.37207,-0.10212 -2.14648,-0.42552c-0.99895,-0.41717 -1.89234,-0.96243 -1.89234,-0.96243" fill="none" stroke-opacity="0.40392" stroke="#000000" stroke-width="2.5" stroke-linecap="round"/><path d="M276.91114,141.28283c0,0 -0.58607,0.92365 -1.29898,1.79635c-0.57008,0.69786 -1.22126,1.36313 -1.71874,1.49751c-0.53424,0.14429 -1.37207,-0.10212 -2.14648,-0.42552c-0.99895,-0.41717 -1.89234,-0.96243 -1.89234,-0.96243" fill="none" stroke-opacity="0.40392" stroke="#000000" stroke-width="2.5" stroke-linecap="round"/><path d="M313.16451,154.49829l3.31873,5.28628" fill="none" stroke="#000000" stroke-width="2.5" stroke-linecap="round"/><path d="M321.61004,160.68221l4.90638,-5.6789" fill="none" stroke="#000000" stroke-width="2.5" stroke-linecap="round"/><path d="M356.98237,158.4197l2.86145,0.68165l-23.21694,10.78147l-18.65357,-2.99926l-13.6589,2.35049l-24.9815,-11.26656l4.05801,-0.41993" fill="none" stroke="#000000" stroke-width="2.5" stroke-linecap="round"/><path d="M388.78831,57.88925c0,0 -12.83561,6.73756 -35.85849,6.17694c-6.92535,-0.16863 -19.45456,-1.18992 -33.31189,-2.50321c-29.61991,-2.80714 -65.3079,-6.94836 -65.3079,-6.94836" fill="none" stroke="#000000" stroke-width="2.5" stroke-linecap="round"/><path d="M385.2423,62.67328c0,0 -10.95112,6.11793 -32.67587,5.56247c-20.4342,-0.52246 -94.03821,-8.80227 -94.03821,-8.80227" fill="none" stroke="#000000" stroke-width="2.5" stroke-linecap="round"/><path d="M382.72044,67.7549c0,0 -10.47519,7.34767 -31.36856,6.91255c-19.63604,-0.40895 -90.45394,-9.44963 -90.45394,-9.44963" fill="none" stroke="#000000" stroke-width="2.5" stroke-linecap="round"/><path d="M287.66189,249.48862l24.24864,-11.15928l19.08702,13.12482l15.22677,-5.62549" fill="none" stroke="#ffffff" stroke-width="1.5" stroke-linecap="round"/><path d="M287.18057,256.43233l24.24864,-11.15928l19.08703,13.12482l15.22677,-5.62549" fill="none" stroke="#ffffff" stroke-width="1.5" stroke-linecap="round"/><path d="M286.38565,263.03779l24.24864,-11.15928l19.08703,13.12482l15.22677,-5.62549" fill="none" stroke="#ffffff" stroke-width="1.5" stroke-linecap="round"/><g><path d="M294.74315,253.02379c14.19547,-11.4689 1.62477,-2.96983 18.54727,-8.59059c2.02254,-0.67179 12.24111,-2.33662 12.24111,-2.33662c0,0 -7.58654,11.3687 -12.758,14.66767c-0.66385,0.42348 -6.09897,4.0995 -5.99868,4.71235c0.11683,0.71382 4.01028,-0.89029 4.52681,-1.06169c1.94392,-0.64497 16.08116,-5.34106 16.08116,-5.34106l1.20551,10.01659c0,0 -9.68206,4.92942 -12.33183,5.91585c-0.36559,0.13609 -4.47105,2.05612 -4.47428,2.11393c-0.0133,0.23817 5.61329,-0.42211 5.61329,-0.42211l11.95803,6.34821l-1.2928,5.51779l-7.64693,4.06936c0,0 -11.25388,4.66774 -17.09497,6.6078c-9.26129,3.07604 -24.68179,8.88288 -32.53403,5.59779c-1.89965,-0.79475 -2.04158,-5.29052 -3.21871,-6.90409c-2.91963,-4.00212 -1.63293,-9.75238 -2.53855,-14.79582c-0.82944,-4.61922 -3.2237,-8.52559 -2.88541,-13.68601c0.17408,-2.65561 0.02417,-9.39196 1.55232,-11.94786c1.12011,-1.87347 5.44634,-4.0759 7.24871,-5.07649c5.33208,-2.96008 19.32669,-12.38907 24.0813,-13.20894c0.97512,-0.16814 6.58989,-1.74092 6.38443,-0.7546c-0.21512,1.03265 -9.81712,13.22235 -11.72362,15.28678c-1.20877,1.3089 -2.2413,2.90321 0.10789,2.60741c3.4546,-0.435 4.94997,0.66432 4.94997,0.66432z" fill="#a636f3" stroke="#000000" stroke-width="2.5" stroke-linecap="round"/><path d="M301.26661,264.15997c0.10275,0.87518 -3.32553,2.90675 -7.65726,4.53762c-4.33174,1.63089 -7.92657,2.24349 -8.02932,1.36831c-0.10275,-0.87518 3.32551,-2.90674 7.65725,-4.53762c4.33174,-1.63089 7.92658,-2.24349 8.02933,-1.36831z" fill-opacity="0.23137" fill="#000000" stroke="none" stroke-width="0" stroke-linecap="butt"/><path d="M306.61802,275.5207c0.09418,0.80226 -4.06984,3.04907 -9.30062,5.01846c-5.23078,1.96937 -9.54749,2.91549 -9.64166,2.11323c-0.09418,-0.80226 4.06984,-3.04907 9.30062,-5.01845c5.23078,-1.96937 9.54749,-2.91548 9.64166,-2.11324z" fill-opacity="0.23137" fill="#000000" stroke="none" stroke-width="0" stroke-linecap="butt"/><path d="M283.61116,253.29491c0.14554,1.23985 -0.66405,2.59417 -1.80827,3.02496c-1.14422,0.43079 -2.18982,-0.22505 -2.33537,-1.4649c-0.14554,-1.23985 0.66405,-2.59418 1.80827,-3.02496c1.14422,-0.43079 2.18981,0.22506 2.33537,1.4649z" fill-opacity="0.23137" fill="#000000" stroke="none" stroke-width="0" stroke-linecap="butt"/><path d="M280.39283,265.58541c0,0 -0.51688,1.2023 -1.18652,2.41293c-0.53549,0.96809 -1.16865,1.94151 -1.71331,2.30979c-0.58492,0.39546 -1.57927,0.54106 -2.51396,0.57964c-1.20568,0.04973 -2.31208,-0.07865 -2.31208,-0.07865" fill="none" stroke-opacity="0.40392" stroke="#000000" stroke-width="2.5" stroke-linecap="round"/><path d="M286.71335,268.53666c0,0 -0.51689,1.2023 -1.18653,2.41293c-0.53549,0.96809 -1.16863,1.94152 -1.7133,2.30979c-0.58492,0.39546 -1.57929,0.54106 -2.51398,0.57964c-1.20568,0.04973 -2.31206,-0.07865 -2.31206,-0.07865" fill="none" stroke-opacity="0.40392" stroke="#000000" stroke-width="2.5" stroke-linecap="round"/><path d="M293.03385,271.48791c0,0 -0.51689,1.2023 -1.18653,2.41293c-0.53549,0.96809 -1.16864,1.94151 -1.7133,2.30977c-0.58492,0.39546 -1.57928,0.54108 -2.51397,0.57965c-1.20568,0.04973 -2.31206,-0.07866 -2.31206,-0.07866" fill="none" stroke-opacity="0.40392" stroke="#000000" stroke-width="2.5" stroke-linecap="round"/></g><path d="M304.35949,169.63114l12.91609,-2.17508l19.75456,2.68438l23.61539,-9.76125l-42.31755,24.067l-38.2664,-25.42001z" fill="#ffffff" stroke="#000000" stroke-width="2.5" stroke-linecap="round"/><path d="M303.04213,125.96433c-0.44013,4.14323 -2.92218,-4.12794 -7.46961,-4.61103c-4.54745,-0.48309 -9.4383,7.00483 -8.99817,2.86161c0.44013,-4.14325 4.48341,-7.11036 9.03084,-6.62727c4.54745,0.48309 7.87705,4.23345 7.43693,8.3767z" fill="#ffffff" stroke="#000000" stroke-width="2.5" stroke-linecap="butt"/><path d="M336.64135,127.03233c-0.12589,-4.16467 3.4775,-7.6528 8.04845,-7.79098c4.57094,-0.13819 8.37852,3.12586 8.5044,7.29054c0.12589,4.16462 -4.18533,-3.67135 -8.75628,-3.53316c-4.57094,0.13819 -7.67071,8.19823 -7.7966,4.03359z" fill="#ffffff" stroke="#000000" stroke-width="2.5" stroke-linecap="butt"/><g><path d="M324.2979,258.32626c0,0 1.57414,-0.98321 4.98601,-0.2885c2.32013,0.47241 1.41099,-1.19534 0.30455,-2.59181c-1.74511,-2.20255 -10.39886,-15.08277 -10.53535,-16.12873c-0.13036,-0.99901 5.34955,0.99341 6.3092,1.23473c4.6791,1.1767 17.92143,11.63591 23.01467,14.99033c1.72163,1.13388 5.86912,3.65683 6.84451,5.60956c1.33071,2.66405 0.67235,9.36982 0.64533,12.03099c-0.05251,5.17122 -2.73502,8.88557 -3.91103,13.42894c-1.28402,4.96062 -0.43538,10.79165 -3.64899,14.56178c-1.29565,1.52004 -1.77679,5.99224 -3.73105,6.64122c-8.07797,2.68254 -23.01575,-4.27258 -32.01822,-8.03944c-5.67784,-2.37577 -16.54696,-7.8803 -16.54696,-7.8803l-7.31767,-4.6354l-0.87229,-5.59968l12.4034,-5.42676c0,0 5.56064,1.08343 5.56536,0.84494c0.00115,-0.05788 -3.94755,-2.28256 -4.30181,-2.44588c-2.56768,-1.18378 -11.8497,-6.83051 -11.8497,-6.83051l1.95873,-9.89692c0,0 13.7421,5.75062 15.63174,6.54059c0.50211,0.20992 4.26326,2.10355 4.43368,1.4006c0.14631,-0.60352 -4.99559,-4.67962 -5.62557,-5.15203c-4.90748,-3.6802 -11.61353,-15.58951 -11.61353,-15.58951c0,0 10.0636,2.43199 12.02961,3.25465c16.44954,6.88304 4.55678,-2.54135 17.84533,9.96712z" fill="#a636f3" stroke="#000000" stroke-width="2.5" stroke-linecap="round"/><path d="M324.85485,270.90878c4.19616,1.95345 7.46117,4.23817 7.2926,5.10309c-0.16857,0.86492 -3.70686,-0.01749 -7.90302,-1.97094c-4.19614,-1.95343 -7.46117,-4.23817 -7.29261,-5.10309c0.16856,-0.86493 3.70687,0.01749 7.90302,1.97094z" fill-opacity="0.23137" fill="#000000" stroke="none" stroke-width="0" stroke-linecap="butt"/><path d="M320.21199,282.69739c5.06707,2.35889 9.04946,4.91384 8.89495,5.70668c-0.15452,0.79286 -4.38743,-0.47666 -9.45449,-2.83554c-5.06707,-2.35889 -9.04946,-4.91384 -8.89495,-5.70668c0.15451,-0.79285 4.38743,0.47666 9.45449,2.83554z" fill-opacity="0.23137" fill="#000000" stroke="none" stroke-width="0" stroke-linecap="butt"/><path d="M337.81693,258.15325c1.10841,0.51598 1.81338,1.92761 1.57459,3.15292c-0.23878,1.22531 -1.33094,1.80029 -2.43935,1.2843c-1.10841,-0.51599 -1.81339,-1.92761 -1.57459,-3.15292c0.2388,-1.2253 1.33094,-1.80029 2.43936,-1.2843z" fill-opacity="0.23137" fill="#000000" stroke="none" stroke-width="0" stroke-linecap="butt"/><path d="M344.96747,277.72843c0,0 -1.11293,0.04444 -2.31141,-0.09623c-0.9291,-0.10907 -1.90962,-0.32937 -2.46299,-0.76789c-0.51528,-0.40837 -1.07311,-1.42683 -1.53394,-2.43261c-0.57627,-1.25775 -1.00086,-2.49566 -1.00086,-2.49566" fill="none" stroke-opacity="0.40392" stroke="#000000" stroke-width="2.5" stroke-linecap="round"/><path d="M338.44207,280.19381c0,0 -1.11291,0.04444 -2.3114,-0.09623c-0.9291,-0.10907 -1.90964,-0.32937 -2.46301,-0.76789c-0.51529,-0.40837 -1.07309,-1.42683 -1.53392,-2.43262c-0.57627,-1.25775 -1.00087,-2.49566 -1.00087,-2.49566" fill="none" stroke-opacity="0.40392" stroke="#000000" stroke-width="2.5" stroke-linecap="round"/><path d="M331.91667,282.65916c0,0 -1.11291,0.04445 -2.31139,-0.09622c-0.92909,-0.10907 -1.90963,-0.32938 -2.463,-0.7679c-0.51529,-0.40837 -1.0731,-1.42682 -1.53392,-2.4326c-0.57627,-1.25775 -1.00086,-2.49566 -1.00086,-2.49566" fill="none" stroke-opacity="0.40392" stroke="#000000" stroke-width="2.5" stroke-linecap="round"/></g></g></g></svg>