<svg version="1.1" xmlns="http://www.w3.org/2000/svg" xmlns:xlink="http://www.w3.org/1999/xlink" width="167.63931" height="308.97056" viewBox="0,0,167.63931,308.97056"><defs><linearGradient x1="313.46388" y1="169.49228" x2="318.73627" y2="348.24691" gradientUnits="userSpaceOnUse" id="color-1"><stop offset="0" stop-color="#676767"/><stop offset="1" stop-color="#313131"/></linearGradient><linearGradient x1="344.91772" y1="169.62616" x2="350.24826" y2="350.35201" gradientUnits="userSpaceOnUse" id="color-2"><stop offset="0" stop-color="#2e2e2e"/><stop offset="1" stop-color="#2b2b2b"/></linearGradient><linearGradient x1="283.10177" y1="170.20024" x2="288.43231" y2="350.92608" gradientUnits="userSpaceOnUse" id="color-3"><stop offset="0" stop-color="#2e2e2e"/><stop offset="1" stop-color="#2b2b2b"/></linearGradient><linearGradient x1="314.8186" y1="169.20945" x2="315.62739" y2="196.63" gradientUnits="userSpaceOnUse" id="color-4"><stop offset="0" stop-color="#575757"/><stop offset="1" stop-color="#9c9c9c"/></linearGradient><linearGradient x1="311.90423" y1="76.86083" x2="315.04221" y2="183.25018" gradientUnits="userSpaceOnUse" id="color-5"><stop offset="0" stop-color="#1a1a1a"/><stop offset="1" stop-color="#9c9c9c"/></linearGradient><radialGradient cx="345.80149" cy="98.54849" r="23.15477" gradientUnits="userSpaceOnUse" id="color-6"><stop offset="0" stop-color="#000000" stop-opacity="0.92549"/><stop offset="1" stop-color="#000000" stop-opacity="0"/></radialGradient><radialGradient cx="276.64303" cy="104.68588" r="25.35587" gradientUnits="userSpaceOnUse" id="color-7"><stop offset="0" stop-color="#000000" stop-opacity="0.92549"/><stop offset="1" stop-color="#000000" stop-opacity="0"/></radialGradient><linearGradient x1="265.99194" y1="44.65736" x2="272.0383" y2="129.64135" gradientUnits="userSpaceOnUse" id="color-8"><stop offset="0" stop-color="#9c9c9c"/><stop offset="1" stop-color="#2c2c2c"/></linearGradient><linearGradient x1="352.63637" y1="43.27389" x2="355.23846" y2="131.49475" gradientUnits="userSpaceOnUse" id="color-9"><stop offset="0" stop-color="#9c9c9c"/><stop offset="1" stop-color="#2c2c2c"/></linearGradient><linearGradient x1="279.59843" y1="187.93038" x2="280.21133" y2="208.71002" gradientUnits="userSpaceOnUse" id="color-10"><stop offset="0" stop-color="#878787"/><stop offset="1" stop-color="#848484"/></linearGradient><linearGradient x1="117.87517" y1="97.91198" x2="117.91202" y2="99.16143" gradientUnits="userSpaceOnUse" id="color-11"><stop offset="0" stop-color="#878787"/><stop offset="1" stop-color="#848484"/></linearGradient></defs><g transform="translate(-226.25132,-42.05708)"><g stroke-miterlimit="10"><path d="M271.60286,345.99691l-6.47034,-147.14899c0,0 5.86424,-25.88235 15.65626,-26.57657c9.72427,-0.68941 32.7853,-1.92648 52.91827,-3.35385c21.83658,-1.54815 29.44047,25.11762 29.44047,25.11762l4.74318,152.76198z" fill="url(#color-1)" stroke="#000000" stroke-width="0" stroke-linecap="butt"/><path d="M327.34179,351.02764l6.84249,-98.95369c0,0 -8.85612,-80.77886 1.35901,-80.17608c9.41818,0.55575 14.18593,-2.78097 18.73493,-2.51255c4.5807,0.27029 14.4272,29.44223 14.4272,29.44223l3.35023,147.24102z" fill="url(#color-2)" stroke="#000000" stroke-width="0" stroke-linecap="butt"/><path d="M266.41038,347.93541l-5.33385,-147.18252c0,0 8.11002,-29.70156 12.66682,-30.24137c4.52527,-0.53606 9.48138,2.51384 18.85045,1.40396c10.16185,-1.2038 6.08217,79.9566 6.08217,79.9566l12.66284,98.37838z" fill="url(#color-3)" stroke="#000000" stroke-width="0" stroke-linecap="butt"/><path d="M328.66522,182.52324c0.22334,7.57198 -5.61389,13.88778 -13.03783,14.10676c-7.42394,0.21897 -13.62327,-5.74182 -13.84661,-13.31379c-0.22334,-7.57198 5.61389,-13.88778 13.03783,-14.10676c7.42394,-0.21897 13.62327,5.74182 13.84661,13.31379z" fill="url(#color-4)" stroke="#000000" stroke-width="0" stroke-linecap="butt"/><path d="M368.16548,130.66797c-1.1003,28.53301 -26.35588,53.72899 -56.58605,52.56324c-30.23017,-1.16574 -53.98739,-28.25178 -52.88709,-56.78477c1.1003,-28.533 26.49868,-50.71855 56.72884,-49.55279c30.23017,1.16574 53.84461,25.24133 52.74431,53.77431z" fill="url(#color-5)" stroke="#000000" stroke-width="0" stroke-linecap="butt"/><path d="M328.38357,129.31597c0.07987,2.70766 -6.50493,5.09878 -14.70755,5.34072c-8.20263,0.24194 -14.9169,-1.75693 -14.99677,-4.4646c-0.07987,-2.70766 6.50493,-5.09878 14.70755,-5.34072c8.20263,-0.24194 14.9169,1.75693 14.99677,4.4646z" fill-opacity="0.18431" fill="#000000" stroke="none" stroke-width="0" stroke-linecap="butt"/><path d="M268.94699,146.90599c0.51555,-0.1057 2.96872,-0.03834 1.74214,1.34525c-0.27017,0.30476 -1.69319,0.21229 -1.96029,-0.01144c-0.41041,-0.34379 0.71889,-1.11757 0.408,-1.55341c-0.19357,-0.27137 -0.56786,0.71905 -0.84529,0.53429c-0.27743,-0.18477 0.11142,-0.65729 0.16712,-0.98593z" fill="none" stroke="#000000" stroke-width="2.5" stroke-linecap="round"/><path d="M279.85031,147.92345c-2.6782,-0.7854 1.14595,-1.93716 1.40822,-0.83618c0.46784,1.96398 -4.41387,-0.64158 -0.19421,-0.76604" fill="none" stroke="#000000" stroke-width="2.5" stroke-linecap="round"/><path d="M274.69374,152.45288c4.4852,-0.80943 -0.17055,3.31135 -0.89252,1.90816c-0.31313,-0.60859 1.12316,-1.28845 0.79917,-1.89131z" fill="none" stroke="#000000" stroke-width="2.5" stroke-linecap="round"/><path d="M346.27056,146.41406c0.57267,-0.23021 1.89832,-0.60543 1.85159,0.01c-0.00235,0.03107 -3.75014,1.12598 -2.01621,-1.3338" fill="none" stroke="#000000" stroke-width="2.5" stroke-linecap="round"/><path d="M355.32203,146.44422c1.05828,2.08513 -2.07966,1.09038 -0.01088,-0.02143z" fill="none" stroke="#000000" stroke-width="2.5" stroke-linecap="round"/><path d="M351.44036,152.32916c-0.31301,0.14406 -2.97906,1.2173 -2.23274,-0.52095c0.28035,-0.65297 2.62649,-0.89156 2.35919,0.47139c-0.11973,0.61051 -2.45564,1.42788 -1.13722,-0.44245z" fill="none" stroke="#000000" stroke-width="2.5" stroke-linecap="round"/><path d="M325.5877,84.48499c2.28118,-14.38074 13.18047,-19.74219 24.34423,-11.97511c11.16377,7.76708 18.36453,25.72141 16.08335,40.10216c-2.28118,14.38074 -13.18048,19.74219 -24.34425,11.97511c-11.16377,-7.76708 -18.36453,-25.72141 -16.08334,-40.10214z" fill="url(#color-6)" stroke="#000000" stroke-width="0" stroke-linecap="butt"/><path d="M297.98655,88.91994c3.25766,14.42533 -3.6573,33.17806 -15.44501,41.88538c-11.78771,8.7073 -23.98439,4.07191 -27.24205,-10.35345c-3.25766,-14.42535 3.65731,-33.17807 15.44502,-41.8854c11.78771,-8.7073 23.98438,-4.0719 27.24204,10.35346z" fill="url(#color-7)" stroke="#000000" stroke-width="0" stroke-linecap="butt"/><path d="M262.42644,130.32521l-36.17512,-82.84039l70.87759,35.83889c0,0 -3.97195,18.86251 -9.08591,25.78892c-6.2313,8.43976 -25.61656,21.2126 -25.61656,21.2126z" fill="url(#color-8)" stroke="#000000" stroke-width="0" stroke-linecap="butt"/><path d="M327.02419,81.94509l66.86644,-39.88801l-28.67421,89.14339c0,0 -19.71103,-16.12545 -26.34418,-24.68003c-6.04241,-7.79272 -11.84805,-24.57534 -11.84805,-24.57534z" fill="url(#color-9)" stroke="#000000" stroke-width="0" stroke-linecap="butt"/><path d="M283.9905,124.65619c0.08373,2.23331 -1.83551,4.11823 -4.28667,4.21011c-2.45118,0.09189 -4.50612,-1.64408 -4.58985,-3.87736c-0.08373,-2.23331 1.83551,-4.11823 4.28667,-4.21011c2.45118,-0.09189 4.50611,1.64408 4.58983,3.87737z" fill="#ffffff" stroke="#000000" stroke-width="2.5" stroke-linecap="butt"/><path d="M340.68218,123.01938c0.08373,2.23331 -1.8355,4.11823 -4.28667,4.21011c-2.45118,0.09189 -4.50611,-1.64408 -4.58983,-3.87736c-0.08373,-2.23331 1.8355,-4.11822 4.28667,-4.2101c2.45118,-0.09189 4.50612,1.64407 4.58984,3.87735z" fill="#ffffff" stroke="#000000" stroke-width="2.5" stroke-linecap="butt"/><path d="M292.48089,127.84212l-6.20626,6.77209" fill="none" stroke="#000000" stroke-width="2.5" stroke-linecap="round"/><path d="M302.11442,222.96059l29.46698,0.86272" fill="none" stroke-opacity="0.45098" stroke="#000000" stroke-width="2.5" stroke-linecap="round"/><path d="M330.46267,234.82472l-29.41594,0.86763" fill="none" stroke-opacity="0.45098" stroke="#000000" stroke-width="2.5" stroke-linecap="round"/><path d="M334.21259,244.52797l-34.29309,1.8774" fill="none" stroke-opacity="0.45098" stroke="#000000" stroke-width="2.5" stroke-linecap="round"/><path d="M300.54811,257.93253l32.87664,-0.9697" fill="none" stroke-opacity="0.45098" stroke="#000000" stroke-width="2.5" stroke-linecap="round"/><path d="M303.79781,270.24831l28.54227,-1.13051" fill="none" stroke-opacity="0.45098" stroke="#000000" stroke-width="2.5" stroke-linecap="round"/><path d="M331.28941,282.42636l-25.92973,1.63073" fill="none" stroke-opacity="0.45098" stroke="#000000" stroke-width="2.5" stroke-linecap="round"/><path d="M328.20297,295.21766l-19.88201,1.16371" fill="none" stroke-opacity="0.45098" stroke="#000000" stroke-width="2.5" stroke-linecap="round"/><path d="M309.47537,306.16115l18.16016,-0.82428" fill="none" stroke-opacity="0.45098" stroke="#000000" stroke-width="2.5" stroke-linecap="round"/><path d="M310.67228,317.3829l18.15165,-1.11268" fill="none" stroke-opacity="0.45098" stroke="#000000" stroke-width="2.5" stroke-linecap="round"/><path d="M331.83496,212.84742l-29.75538,-0.85421" fill="none" stroke-opacity="0.45098" stroke="#000000" stroke-width="2.5" stroke-linecap="round"/><path d="M302.36714,202.17088l26.55755,0.08261" fill="none" stroke-opacity="0.45098" stroke="#000000" stroke-width="2.5" stroke-linecap="round"/><path d="M337.20919,230.48615l-1.22326,-21.90075l29.72136,-0.29934l-1.17744,18.79649" fill="none" stroke-opacity="0.45098" stroke="#000000" stroke-width="2.5" stroke-linecap="round"/><path d="M350.49222,230.67165l1.03089,54.52303l0.65824,61.46144" fill="none" stroke-opacity="0.45098" stroke="#000000" stroke-width="2.5" stroke-linecap="round"/><path d="M291.1516,197.98847c0.16924,5.73815 -4.72888,10.53834 -10.94027,10.72155c-6.21139,0.1832 -11.38392,-4.31997 -11.55317,-10.05809c-0.16924,-5.73815 4.72888,-10.53834 10.94027,-10.72155c6.21139,-0.1832 11.38392,4.31997 11.55317,10.05809z" fill="url(#color-10)" stroke="#000000" stroke-width="0" stroke-linecap="butt"/><path d="M245.73192,184.64108z" fill="url(#color-11)" stroke="#000000" stroke-width="2.5" stroke-linecap="butt"/><path d="M292.79631,119.0396l-13.86158,1.10355" fill="none" stroke="#000000" stroke-width="2.5" stroke-linecap="round"/><path d="M335.39375,117.08847l11.57124,1.326" fill="none" stroke="#000000" stroke-width="2.5" stroke-linecap="round"/><path d="M338.97151,130.04343l-3.94839,-1.96766" fill="none" stroke="#000000" stroke-width="2.5" stroke-linecap="round"/><path d="M336.99526,128.99019l10.26863,-0.44182" fill="none" stroke="#000000" stroke-width="2.5" stroke-linecap="round"/><path d="M289.35525,129.56169l-9.17035,-0.0074" fill="none" stroke="#000000" stroke-width="2.5" stroke-linecap="round"/><path d="M293.83735,176.8802l6.40584,-1.85618l16.08858,1.40112l13.67528,-2.69583l8.97823,0.56881" fill="none" stroke="#000000" stroke-width="2.5" stroke-linecap="round"/><path d="M271.14274,131.57742l-0.0795,4.06447l-2.34023,0.20047l-1.60933,-2.46989" fill="none" stroke="#000000" stroke-width="2.5" stroke-linecap="round"/><path d="M272.06247,138.90464l-0.73385,2.51415l-1.87455,0.03541l-1.26445,-0.75746" fill="none" stroke="#000000" stroke-width="2.5" stroke-linecap="round"/></g></g></svg>