<svg version="1.1" xmlns="http://www.w3.org/2000/svg" xmlns:xlink="http://www.w3.org/1999/xlink" width="135.94439" height="340.91075" viewBox="0,0,135.94439,340.91075"><defs><linearGradient x1="318.06774" y1="168.51883" x2="318.06774" y2="347.36339" gradientUnits="userSpaceOnUse" id="color-1"><stop offset="0" stop-color="#ffffff"/><stop offset="1" stop-color="#cecece"/></linearGradient><linearGradient x1="319.80956" y1="73.88935" x2="319.80956" y2="180.32497" gradientUnits="userSpaceOnUse" id="color-2"><stop offset="0" stop-color="#ffffff"/><stop offset="1" stop-color="#cecece"/></linearGradient><radialGradient cx="320.60941" cy="128.33644" r="71.77759" gradientUnits="userSpaceOnUse" id="color-3"><stop offset="0" stop-color="#ffffff" stop-opacity="0.09804"/><stop offset="1" stop-color="#ffffff" stop-opacity="0"/></radialGradient><radialGradient cx="321.39673" cy="183.97391" r="71.77759" gradientUnits="userSpaceOnUse" id="color-4"><stop offset="0" stop-color="#ffffff" stop-opacity="0.09804"/><stop offset="1" stop-color="#ffffff" stop-opacity="0"/></radialGradient><radialGradient cx="320.34697" cy="223.86493" r="71.77759" gradientUnits="userSpaceOnUse" id="color-5"><stop offset="0" stop-color="#ffffff" stop-opacity="0.09804"/><stop offset="1" stop-color="#ffffff" stop-opacity="0"/></radialGradient><radialGradient cx="320.60941" cy="267.43013" r="71.77759" gradientUnits="userSpaceOnUse" id="color-6"><stop offset="0" stop-color="#ffffff" stop-opacity="0.09804"/><stop offset="1" stop-color="#ffffff" stop-opacity="0"/></radialGradient><radialGradient cx="321.13429" cy="325.69201" r="71.77759" gradientUnits="userSpaceOnUse" id="color-7"><stop offset="0" stop-color="#ffffff" stop-opacity="0.09804"/><stop offset="1" stop-color="#ffffff" stop-opacity="0"/></radialGradient></defs><g transform="translate(-252.89966,-56.55885)"><g stroke-miterlimit="10"><path d="M272.64581,344.37071l-2.04444,-147.24671c0,0 6.36097,-25.78867 15.77863,-26.32783c9.35251,-0.53543 31.52063,-1.40731 50.88392,-2.51586c21.00176,-1.20235 28.27018,15.86087 28.27018,15.86087l-0.49747,162.55426z" fill="url(#color-1)" stroke="#000000" stroke-width="2.5" stroke-linecap="butt"/><path d="M374.45997,129.33182c-1.94104,28.48816 -27.92848,52.9286 -58.11114,50.8721c-30.18266,-2.05649 -53.13099,-29.83117 -51.18995,-58.31932c1.94104,-28.48815 27.98246,-49.91526 58.16512,-47.85875c30.18266,2.05649 53.07703,26.81782 51.13599,55.30597z" fill="url(#color-2)" stroke="#000000" stroke-width="2.5" stroke-linecap="butt"/><path d="M334.06154,119.42453c0.01376,2.70881 -6.62742,4.93852 -14.83351,4.98021c-8.20609,0.04169 -14.86959,-2.12043 -14.88334,-4.82924c-0.01376,-2.70881 6.62743,-4.93852 14.83352,-4.98021c8.20609,-0.04169 14.86959,2.12043 14.88335,4.82924z" fill-opacity="0.23137" fill="#000000" stroke="none" stroke-width="0" stroke-linecap="butt"/><path d="M298.88706,117.98038c-0.15191,2.2297 -2.25895,3.90205 -4.70617,3.73531c-2.44723,-0.16674 -4.30794,-2.10944 -4.15603,-4.33913c0.15191,-2.22971 2.25895,-3.90205 4.70617,-3.73531c2.44723,0.16674 4.30793,2.10943 4.15602,4.33914z" fill="#ffffff" stroke="#000000" stroke-width="2.5" stroke-linecap="butt"/><path d="M348.06122,117.9913c-0.15191,2.22971 -2.25895,3.90205 -4.70617,3.73531c-2.44723,-0.16674 -4.30793,-2.10944 -4.15602,-4.33913c0.15191,-2.2297 2.25894,-3.90204 4.70617,-3.7353c2.44723,0.16674 4.30794,2.10943 4.15603,4.33913z" fill="#ffffff" stroke="#000000" stroke-width="2.5" stroke-linecap="butt"/><path d="M286.28667,110.64637c0,0 5.29523,-1.87761 7.84694,-1.98248c2.53506,-0.10418 7.4137,1.35533 7.4137,1.35533" fill="none" stroke="#000000" stroke-width="2.5" stroke-linecap="round"/><path d="M337.50627,109.50016c0,0 4.57648,-1.51578 6.91119,-1.44395c2.18473,0.06722 6.67705,1.86205 6.67705,1.86205" fill="none" stroke="#000000" stroke-width="2.5" stroke-linecap="round"/><path d="M388.05672,128.33644c0,39.64167 -30.19719,71.77759 -67.44731,71.77759c-37.25012,0 -67.44731,-32.13592 -67.44731,-71.77759c0,-39.64167 30.19719,-71.77759 67.44732,-71.77759c37.25012,0 67.44732,32.13592 67.44732,71.77759z" fill="url(#color-3)" stroke="none" stroke-width="0" stroke-linecap="butt"/><path d="M388.84405,183.97391c0,39.64167 -30.19719,71.77759 -67.44731,71.77759c-37.25013,0 -67.44732,-32.13592 -67.44732,-71.77759c0,-39.64167 30.19719,-71.77759 67.44732,-71.77759c37.25013,0 67.44731,32.13592 67.44731,71.77759z" fill="url(#color-4)" stroke="none" stroke-width="0" stroke-linecap="butt"/><path d="M387.79429,223.86493c0,39.64167 -30.19719,71.77759 -67.44731,71.77759c-37.25012,0 -67.44731,-32.13592 -67.44731,-71.77759c0,-39.64167 30.19719,-71.77759 67.44731,-71.77759c37.25012,0 67.44732,32.13592 67.44732,71.77759z" fill="url(#color-5)" stroke="none" stroke-width="0" stroke-linecap="butt"/><path d="M388.05673,267.43013c0,39.64167 -30.19719,71.77759 -67.44731,71.77759c-37.25012,0 -67.44731,-32.13592 -67.44731,-71.77759c0,-39.64167 30.19719,-71.77759 67.44732,-71.77759c37.25012,0 67.44732,32.13592 67.44732,71.77759z" fill="url(#color-6)" stroke="none" stroke-width="0" stroke-linecap="butt"/><path d="M388.58161,325.69201c0,39.64167 -30.19719,71.77759 -67.44731,71.77759c-37.25013,0 -67.44732,-32.13592 -67.44732,-71.77759c0,-39.64167 30.19719,-71.77759 67.44732,-71.77759c37.25013,0 67.44731,32.13592 67.44731,71.77759z" fill="url(#color-7)" stroke="none" stroke-width="0" stroke-linecap="butt"/></g></g></svg>