<svg version="1.1" xmlns="http://www.w3.org/2000/svg" xmlns:xlink="http://www.w3.org/1999/xlink" width="175.23138" height="366.34809" viewBox="0,0,175.23138,366.34809"><defs><linearGradient x1="309.86431" y1="129.40455" x2="319.13014" y2="343.08399" gradientUnits="userSpaceOnUse" id="color-1"><stop offset="0" stop-color="#2982c1"/><stop offset="1" stop-color="#000000"/></linearGradient><radialGradient cx="312.74982" cy="143.24078" r="17.40649" gradientUnits="userSpaceOnUse" id="color-2"><stop offset="0" stop-color="#922fd5"/><stop offset="1" stop-color="#7520a6"/></radialGradient><linearGradient x1="386.97261" y1="96.57537" x2="344.91603" y2="100.91908" gradientUnits="userSpaceOnUse" id="color-3"><stop offset="0" stop-color="#a636f3"/><stop offset="1" stop-color="#581b7d"/></linearGradient><linearGradient x1="222.94414" y1="118.55306" x2="265.00069" y2="114.20936" gradientUnits="userSpaceOnUse" id="color-4"><stop offset="0" stop-color="#a636f3"/><stop offset="1" stop-color="#581b7d"/></linearGradient><linearGradient x1="303.76388" y1="31.83415" x2="303.76388" y2="149.7788" gradientUnits="userSpaceOnUse" id="color-5"><stop offset="0" stop-color="#4c166c"/><stop offset="1" stop-color="#a636f3"/></linearGradient><radialGradient cx="261.19137" cy="60.70289" r="27.67334" gradientUnits="userSpaceOnUse" id="color-6"><stop offset="0" stop-color="#000000" stop-opacity="0.92549"/><stop offset="1" stop-color="#000000" stop-opacity="0"/></radialGradient><linearGradient x1="209.52783" y1="38.98922" x2="279.6727" y2="39.78511" gradientUnits="userSpaceOnUse" id="color-7"><stop offset="0" stop-color="#a636f3"/><stop offset="1" stop-color="#16031b"/></linearGradient><radialGradient cx="337.64657" cy="47.07421" r="27.1508" gradientUnits="userSpaceOnUse" id="color-8"><stop offset="0" stop-color="#000000" stop-opacity="0.92549"/><stop offset="1" stop-color="#000000" stop-opacity="0"/></radialGradient><linearGradient x1="383.39909" y1="18.18081" x2="314.78879" y2="33.30769" gradientUnits="userSpaceOnUse" id="color-9"><stop offset="0" stop-color="#a636f3"/><stop offset="1" stop-color="#16031b"/></linearGradient><radialGradient cx="271.29327" cy="84.43397" r="4.14909" gradientUnits="userSpaceOnUse" id="color-10"><stop offset="0" stop-color="#ffffff"/><stop offset="1" stop-color="#ffffff" stop-opacity="0"/></radialGradient><radialGradient cx="270.48909" cy="83.42063" r="2.44577" gradientUnits="userSpaceOnUse" id="color-11"><stop offset="0" stop-color="#ffffff"/><stop offset="1" stop-color="#ffffff" stop-opacity="0"/></radialGradient><radialGradient cx="272.34907" cy="85.52693" r="2.44577" gradientUnits="userSpaceOnUse" id="color-12"><stop offset="0" stop-color="#ffffff"/><stop offset="1" stop-color="#ffffff" stop-opacity="0"/></radialGradient><radialGradient cx="331.42656" cy="74.04974" r="4.14909" gradientUnits="userSpaceOnUse" id="color-13"><stop offset="0" stop-color="#ffffff"/><stop offset="1" stop-color="#ffffff" stop-opacity="0"/></radialGradient><radialGradient cx="332.23075" cy="73.03638" r="2.44577" gradientUnits="userSpaceOnUse" id="color-14"><stop offset="0" stop-color="#ffffff"/><stop offset="1" stop-color="#ffffff" stop-opacity="0"/></radialGradient><radialGradient cx="330.37077" cy="75.1427" r="2.44577" gradientUnits="userSpaceOnUse" id="color-15"><stop offset="0" stop-color="#ffffff"/><stop offset="1" stop-color="#ffffff" stop-opacity="0"/></radialGradient></defs><g transform="translate(-209.97648,23.26411)"><g stroke-miterlimit="10"><path d="M272.42738,338.73664c0,0 -2.37991,-43.06643 -4.70818,-85.19863c-0.3737,-6.76259 -8.39967,-32.12455 -8.39967,-32.12455c0,0 6.71352,1.61241 6.44066,-3.32532c-0.1997,-3.61356 -9.98419,-35.44295 -9.98419,-35.44295c0,0 8.05307,0.49796 7.74876,-5.00887c-0.2393,-4.33033 -9.61919,-30.44542 -9.61919,-30.44542l7.8908,2.65914c0,0 6.08966,-17.77883 15.71279,-18.26299c9.55657,-0.4808 32.22895,-1.14585 52.01473,-2.14132c21.45999,-1.07969 26.50517,12.75968 26.50517,12.75968l8.60316,-0.89187l-4.14278,36.35392l4.90576,6.6077l-3.44738,29.18955l4.61158,9.5739c0,0 -3.3589,21.17406 -3.06473,28.39494c1.82711,44.84805 3.73385,91.65044 3.73385,91.65044z" fill="url(#color-1)" stroke="#000000" stroke-width="0" stroke-linecap="butt"/><path d="M336.21735,143.48213c0.17075,10.17856 -10.07801,18.08658 -22.89127,17.66306c-12.81324,-0.42352 -23.33886,-9.01819 -23.50962,-19.19677c-0.17075,-10.17856 10.07799,-18.08658 22.89125,-17.66306c12.81324,0.42352 23.33887,9.0182 23.50963,19.19677z" fill="#f2f2f2" stroke="#000000" stroke-width="0" stroke-linecap="butt"/><path d="M330.18073,143.81697c0.12829,7.64734 -7.5718,13.58878 -17.19863,13.27058c-9.62683,-0.3182 -17.5349,-6.77553 -17.6632,-14.42288c-0.12829,-7.64734 7.57179,-13.58878 17.19862,-13.27058c9.62683,0.3182 17.53491,6.77554 17.66321,14.42288z" fill="url(#color-2)" stroke="#000000" stroke-width="0" stroke-linecap="butt"/><path d="M283.76055,218.55073l24.86976,-14.41838l21.59691,14.80807l15.74427,-7.40404" fill="none" stroke="#ffffff" stroke-width="1.5" stroke-linecap="round"/><path d="M283.88699,226.86272l24.86976,-14.41838l21.59692,14.80807l15.74427,-7.40404" fill="none" stroke="#ffffff" stroke-width="1.5" stroke-linecap="round"/><path d="M283.64729,234.78504l24.86976,-14.41838l21.59692,14.80807l15.74427,-7.40404" fill="none" stroke="#ffffff" stroke-width="1.5" stroke-linecap="round"/><path d="M368.36046,238.15793l2.72095,0.86718l-0.31045,4.70735l-2.72094,-0.86718l0.31045,-4.70735z" fill-opacity="0.23137" fill="#000000" stroke="none" stroke-width="0" stroke-linecap="butt"/><path d="M361.27263,65.74153c5.14927,-0.06598 8.40168,-3.03176 12.94281,-4.69021c0.69162,-0.25259 4.42919,-2.5107 5.02617,-1.89558c0.46031,0.4743 -0.81626,4.15167 -0.95255,4.78344c-0.46404,2.15092 -4.90278,14.02426 -4.68997,14.86784c0.78479,3.111 9.55088,-2.82191 11.15527,-1.59846c1.4696,1.12065 -1.06485,5.87441 -1.50353,6.92721c-1.24115,2.97859 -7.00961,18.24102 -6.68221,20.49445c0.52109,3.58651 5.49207,7.14926 4.40234,12.07544c-0.53473,2.41733 -2.80689,-0.82084 -3.78203,-0.29064c-0.99313,0.54 -0.20845,5.06899 -0.10613,6.0306c0.41702,3.91927 0.81281,8.31473 0.46286,12.27823c-0.03604,0.40827 0.0849,1.00893 -0.22959,1.20211c-0.78334,0.48117 -10.91476,-8.45444 -12.4966,-9.42759c-7.70039,-4.73726 -15.53092,-12.5495 -18.6522,-22.50249c-4.71545,-15.03641 -1.99258,-37.32168 14.77993,-37.53952z" fill="url(#color-3)" stroke="#000000" stroke-width="0" stroke-linecap="round"/><path d="M242.70824,83.70479c16.48347,-3.21692 23.40587,18.07216 21.65312,33.77661c-1.1602,10.39519 -7.34539,19.65501 -13.98987,25.87385c-1.36492,1.2775 -9.59126,12.10915 -10.45098,11.79768c-0.34517,-0.12505 -0.34123,-0.7386 -0.45449,-1.13146c-1.0995,-3.81379 -1.55039,-8.20355 -1.8896,-12.13086c-0.08323,-0.96359 -0.17838,-5.56379 -1.255,-5.89001c-1.05709,-0.32033 -2.66644,3.31875 -3.652,1.05843c-2.00841,-4.60618 2.18461,-9.11543 2.01095,-12.73782c-0.10912,-2.27599 -8.67673,-16.05773 -10.4619,-18.72376c-0.63098,-0.94233 -4.02271,-5.08401 -2.79597,-6.48315c1.33926,-1.52748 11.06485,2.49557 11.24045,-0.71462c0.04761,-0.87049 -6.56967,-11.60194 -7.43508,-13.61555c-0.25418,-0.59144 -2.20742,-3.93522 -1.84672,-4.49431c0.46782,-0.7251 4.56268,0.72407 5.28886,0.83022c4.76812,0.69698 8.52246,2.93908 13.5828,1.95058z" fill="url(#color-4)" stroke="#000000" stroke-width="0" stroke-linecap="round"/><path d="M362.38965,87.24246c0.96024,31.63648 -24.13123,61.45452 -56.50946,62.5077c-32.37823,1.05318 -59.78223,-27.05732 -60.74246,-58.6938c-0.96024,-31.63647 24.50908,-58.1367 56.88731,-59.18986c32.37823,-1.05318 59.4044,23.73949 60.36463,55.37596z" fill="url(#color-5)" stroke="#000000" stroke-width="0" stroke-linecap="butt"/><path d="M318.47473,79.05745c0.30261,2.98634 -6.53653,6.17659 -15.27568,7.12564c-8.73915,0.94905 -16.06895,-0.70251 -16.37156,-3.68885c-0.30261,-2.98634 6.53654,-6.17659 15.27569,-7.12564c8.73915,-0.94905 16.06895,0.70251 16.37158,3.68885z" fill-opacity="0.23137" fill="#000000" stroke="none" stroke-width="0" stroke-linecap="butt"/><path d="M268.92117,82.57161c-12.38704,8.48605 -25.88946,5.57439 -30.1585,-6.50338c-4.26904,-12.07777 2.3119,-28.74803 14.69894,-37.23408c12.38704,-8.48605 25.88946,-5.57439 30.1585,6.50338c4.26904,12.07777 -2.3119,28.74802 -14.69892,37.23408z" fill="url(#color-6)" stroke="#000000" stroke-width="0" stroke-linecap="butt"/><path d="M275.71748,57.02945l-13.50661,15.15886l-13.04826,9.62759l-17.27264,-1.28373l-19.5638,-41.55169l-2.34969,-42.36316l30.44072,41.80461l39.25746,1.18381z" fill="url(#color-7)" stroke="#000000" stroke-width="0" stroke-linecap="round"/><path d="M313.19799,36.79684c1.84431,-12.47278 14.28544,-17.98265 27.78802,-12.30662c13.50258,5.67602 22.95347,20.38854 21.10914,32.86132c-1.84431,12.47278 -14.28545,17.98265 -27.78803,12.30662c-13.50258,-5.67602 -22.95346,-20.38854 -21.10913,-32.86131z" fill="url(#color-8)" stroke="#000000" stroke-width="0" stroke-linecap="butt"/><path d="M314.75267,33.13223l38.25769,-9.18976l21.86216,-47.20658l5.78175,42.00868l-11.24792,44.734l-16.68717,4.79119l-14.6285,-6.76906l-16.13348,-12.09757z" fill="url(#color-9)" stroke="#000000" stroke-width="0" stroke-linecap="round"/><path d="M290.54887,47.69976c0,0 -1.19244,1.06254 -2.58644,2.04647c-1.08065,0.76276 -2.28246,1.47827 -3.14374,1.61487c-0.80203,0.1272 -2.0061,-0.22529 -3.09655,-0.65628c-1.36368,-0.53899 -2.54972,-1.20076 -2.54972,-1.20076" fill="none" stroke-opacity="0.40392" stroke="#000000" stroke-width="2.5" stroke-linecap="round"/><path d="M322.2456,45.47644c0,0 -1.41347,0.71538 -3.00271,1.30182c-1.23202,0.45464 -2.56966,0.83182 -3.43629,0.73821c-0.80702,-0.08717 -1.88561,-0.74376 -2.83512,-1.44656c-1.18741,-0.87888 -2.17294,-1.82996 -2.17294,-1.82996" fill="none" stroke-opacity="0.40392" stroke="#000000" stroke-width="2.5" stroke-linecap="round"/><path d="M305.75983,42.75935c0,0 -1.13592,1.12694 -2.47719,2.18651c-1.03978,0.8214 -2.20294,1.60234 -3.05596,1.78636c-0.79432,0.17135 -2.01485,-0.11407 -3.12599,-0.48419c-1.38953,-0.46283 -2.60801,-1.05811 -2.60801,-1.05811" fill="none" stroke-opacity="0.40392" stroke="#000000" stroke-width="2.5" stroke-linecap="round"/><path d="M358.41651,85.351c0,0 -0.91887,0.66427 -1.95897,1.19402c-0.80633,0.41067 -1.68553,0.74051 -2.26601,0.61734c-0.54055,-0.11471 -1.28037,-0.80629 -1.93568,-1.53947c-0.81949,-0.91688 -1.50678,-1.89877 -1.50678,-1.89877" fill="none" stroke-opacity="0.40392" stroke="#000000" stroke-width="2.5" stroke-linecap="round"/><path d="M359.79661,94.68c0,0 -0.91887,0.66427 -1.95897,1.19403c-0.80633,0.41067 -1.68553,0.74051 -2.26601,0.61734c-0.54055,-0.11471 -1.28037,-0.80629 -1.93568,-1.53947c-0.81949,-0.91688 -1.50678,-1.89877 -1.50678,-1.89877" fill="none" stroke-opacity="0.40392" stroke="#000000" stroke-width="2.5" stroke-linecap="round"/><path d="M358.75105,104.25951c0,0 -0.91887,0.66427 -1.95897,1.19403c-0.80633,0.41067 -1.68552,0.74051 -2.266,0.61734c-0.54056,-0.11468 -1.28038,-0.80628 -1.93568,-1.53946c-0.81949,-0.91688 -1.50678,-1.89877 -1.50678,-1.89877" fill="none" stroke-opacity="0.40392" stroke="#000000" stroke-width="2.5" stroke-linecap="round"/><path d="M256.05308,91.48691c0,0 -0.48635,1.10312 -1.11468,2.16952c-0.50247,0.85276 -1.09571,1.68203 -1.6037,1.90503c-0.54553,0.23947 -1.47034,0.09595 -2.33916,-0.14171c-1.12072,-0.30656 -2.14825,-0.76981 -2.14825,-0.76981" fill="none" stroke-opacity="0.40392" stroke="#000000" stroke-width="2.5" stroke-linecap="round"/><path d="M257.90027,97.84149c0,0 -0.48635,1.10312 -1.11468,2.16951c-0.50247,0.85276 -1.09571,1.68203 -1.60371,1.90503c-0.54553,0.23947 -1.47034,0.09595 -2.33915,-0.14171c-1.12072,-0.30658 -2.14825,-0.76983 -2.14825,-0.76983" fill="none" stroke-opacity="0.40392" stroke="#000000" stroke-width="2.5" stroke-linecap="round"/><path d="M259.11282,105.43209c0,0 -0.48635,1.10312 -1.11468,2.16951c-0.50247,0.85276 -1.09571,1.68203 -1.60371,1.90503c-0.54553,0.23947 -1.47034,0.09595 -2.33915,-0.14171c-1.12072,-0.30658 -2.14825,-0.76983 -2.14825,-0.76983" fill="none" stroke-opacity="0.40392" stroke="#000000" stroke-width="2.5" stroke-linecap="round"/><path d="M299.32079,109.71528l4.2947,5.30137" fill="none" stroke="#000000" stroke-width="2.5" stroke-linecap="round"/><path d="M309.1851,115.2248l4.37233,-6.97992" fill="none" stroke="#000000" stroke-width="2.5" stroke-linecap="round"/><path d="M365.56588,-3.107c0,0 -49.87346,8.17777 -74.37644,11.05383c-23.1251,2.71433 -68.74711,5.74538 -68.74711,5.74538" fill="none" stroke="#000000" stroke-width="2.5" stroke-linecap="round"/><path d="M362.50542,2.68398c0,0 -48.22125,7.90654 -71.34649,10.59138c-21.75151,2.52535 -63.5363,5.06854 -63.5363,5.06854" fill="none" stroke="#000000" stroke-width="2.5" stroke-linecap="round"/><path d="M360.57489,8.64639c0,0 -46.4488,7.0668 -68.67456,9.75769c-20.88826,2.52895 -60.9167,5.93203 -60.9167,5.93203" fill="none" stroke="#000000" stroke-width="2.5" stroke-linecap="round"/><path d="M281.63811,83.2209c0.30016,1.92654 -4.1836,4.27757 -10.01475,5.2512c-5.83116,0.97362 -10.80157,0.20114 -11.10173,-1.72539c-0.30016,-1.92654 4.1836,-4.27757 10.01475,-5.2512c5.83116,-0.97362 10.80157,-0.20114 11.10173,1.72539z" fill="#000000" stroke="#000000" stroke-width="2.5" stroke-linecap="butt"/><path d="M342.99741,72.18079c0.30016,1.92654 -4.1836,4.27757 -10.01474,5.2512c-5.83116,0.97362 -10.80157,0.20114 -11.10173,-1.72539c-0.30016,-1.92654 4.1836,-4.27757 10.01474,-5.2512c5.83116,-0.97362 10.80157,-0.20114 11.10173,1.72539z" fill="#000000" stroke="#000000" stroke-width="2.5" stroke-linecap="butt"/><g stroke="none" stroke-width="0" stroke-linecap="butt"><path d="M273.78567,84.57569c0,1.29844 -1.07545,2.35104 -2.4021,2.35104c-1.32664,0 -2.4021,-1.0526 -2.4021,-2.35104c0,-1.29844 1.07545,-2.35104 2.4021,-2.35104c1.32664,0 2.4021,1.0526 2.4021,2.35104z" fill="#ffffff"/><g><path d="M275.44236,84.43397c0,2.27229 -1.85761,4.11433 -4.14909,4.11433c-2.29148,0 -4.14909,-1.84205 -4.14909,-4.11433c0,-2.27229 1.85761,-4.11433 4.14909,-4.11433c2.29148,0 4.14909,1.84205 4.14909,4.11433z" fill="url(#color-10)"/><path d="M272.93486,83.42063c0,5.09391 -1.09501,9.22334 -2.44577,9.22334c-1.35077,0 -2.44577,-4.12943 -2.44577,-9.22334c0,-5.09391 1.09501,-9.22334 2.44577,-9.22334c1.35077,0 2.44577,4.12943 2.44577,9.22334z" fill="url(#color-11)"/><path d="M274.79484,85.52693c0,5.0939 -1.09501,9.22334 -2.44577,9.22334c-1.35077,0 -2.44577,-4.12944 -2.44577,-9.22334c0,-5.0939 1.09502,-9.22334 2.44577,-9.22334c1.35077,0 2.44577,4.12943 2.44577,9.22334z" fill="url(#color-12)"/></g></g><g stroke="none" stroke-width="0" stroke-linecap="butt"><path d="M331.33627,71.84042c1.32666,0 2.40211,1.0526 2.40211,2.35104c0,1.29844 -1.07545,2.35104 -2.40211,2.35104c-1.32666,0 -2.40211,-1.0526 -2.40211,-2.35104c0,-1.29844 1.07545,-2.35104 2.40211,-2.35104z" fill="#ffffff"/><g><path d="M331.42656,69.93538c2.29148,0 4.14909,1.84206 4.14909,4.11433c0,2.27229 -1.85761,4.11433 -4.14909,4.11433c-2.29148,0 -4.14909,-1.84206 -4.14909,-4.11433c0,-2.27229 1.8576,-4.11433 4.14909,-4.11433z" fill="url(#color-13)"/><path d="M332.23075,63.81303c1.35077,0 2.44579,4.12944 2.44579,9.22334c0,5.0939 -1.09502,9.22334 -2.44579,9.22334c-1.35077,0 -2.44577,-4.12943 -2.44577,-9.22334c0,-5.0939 1.095,-9.22334 2.44577,-9.22334z" fill="url(#color-14)"/><path d="M330.37077,65.91936c1.35077,0 2.44579,4.12944 2.44579,9.22334c0,5.0939 -1.09502,9.22334 -2.44579,9.22334c-1.35077,0 -2.44577,-4.12943 -2.44577,-9.22334c0,-5.0939 1.09501,-9.22334 2.44577,-9.22334z" fill="url(#color-15)"/></g></g><path d="M335.19846,136.77724c0.04743,0.6383 0.00344,3.52371 -0.50845,3.95809c-1.12992,0.95883 -3.77032,-0.83495 -7.06832,-0.94878c-4.89144,-0.16883 -11.4782,1.04004 -18.74534,1.61873c-8.87375,0.70663 -13.88497,1.53413 -17.76596,1.58729c-2.4111,0.03303 -4.36777,2.95307 -4.48556,1.36779c-0.14735,-1.98309 -2.47995,-6.32605 1.2499,-8.42532c2.47221,-1.39144 7.75977,-1.89238 12.56161,-3.04365c3.06673,-0.73526 5.44424,-2.37129 8.36355,-2.60376c6.70215,-0.5337 11.49763,0.22133 15.8786,1.1444c3.01283,0.6348 4.29599,1.59209 5.78262,2.58017c0.84394,0.56092 2.73716,0.98629 2.59931,1.73059c-0.38159,2.06026 2.12823,0.90252 2.13803,1.03446z" fill="#ffffff" stroke="#000000" stroke-width="2.5" stroke-linecap="butt"/><path d="M329.74986,135.19355l-3.69497,4.1084l-5.47402,-6.94178l-9.99009,9.91684l-8.07419,-10.20017l-8.62159,9.91684l-5.33717,-5.9501" fill="none" stroke="#000000" stroke-width="2.5" stroke-linecap="round"/><path d="M260.25036,90.1297l19.11686,-3.24304" fill="none" stroke="#000000" stroke-width="2.5" stroke-linecap="round"/><path d="M327.15936,79.03508l21.67715,-4.9499" fill="none" stroke="#000000" stroke-width="2.5" stroke-linecap="round"/><path d="M321.35603,77.32823l6.82745,5.46196" fill="none" stroke="#000000" stroke-width="2.5" stroke-linecap="round"/><path d="M281.41545,83.64362l-3.58441,9.38774" fill="none" stroke="#000000" stroke-width="2.5" stroke-linecap="round"/><path d="M281.245,77.19736c0,0 -7.58669,3.41344 -11.67637,4.27745c-3.98685,0.84229 -12.71126,1.29367 -12.71126,1.29367" fill="none" stroke="#000000" stroke-width="2.5" stroke-linecap="round"/><path d="M343.86492,65.91298c0,0 -8.73577,4.39001 -12.81918,5.33898c-3.99375,0.92813 -11.41827,0.29367 -11.41827,0.29367" fill="none" stroke="#000000" stroke-width="2.5" stroke-linecap="round"/></g></g></svg>