<svg version="1.1" xmlns="http://www.w3.org/2000/svg" xmlns:xlink="http://www.w3.org/1999/xlink" width="129.72943" height="256.98398" viewBox="0,0,129.72943,256.98398"><defs><linearGradient x1="320.7066" y1="181.12445" x2="324.64664" y2="338.57301" gradientUnits="userSpaceOnUse" id="color-1"><stop offset="0" stop-color="#009bff"/><stop offset="1" stop-color="#6dc9ff"/></linearGradient><linearGradient x1="144.5881" y1="111.6689" x2="144.61637" y2="112.79862" gradientUnits="userSpaceOnUse" id="color-2"><stop offset="0" stop-color="#878787"/><stop offset="1" stop-color="#848484"/></linearGradient><linearGradient x1="321.43791" y1="209.55706" x2="323.64232" y2="297.64757" gradientUnits="userSpaceOnUse" id="color-3"><stop offset="0" stop-color="#8ae8ff"/><stop offset="1" stop-color="#5ec3ff"/></linearGradient></defs><g transform="translate(-254.95487,-82.85272)"><g stroke-miterlimit="10"><path d="M277.32536,84.10272c11.66453,0 21.1205,8.87306 21.1205,19.81855c0,10.94548 -9.45597,19.81855 -21.1205,19.81855c-11.66453,0 -21.12049,-8.87307 -21.12049,-19.81855c0,-10.94548 9.45596,-19.81854 21.12049,-19.81854z" fill="#00cdff" stroke="#000000" stroke-width="2.5" stroke-linecap="butt"/><path d="M281.48093,90.1603c7.90068,0 14.30545,6.61946 14.30545,14.78496c0,8.1655 -6.40476,14.78496 -14.30545,14.78496c-7.90068,0 -14.30545,-6.61946 -14.30545,-14.78496c0,-8.1655 6.40476,-14.78496 14.30545,-14.78496z" fill="#8ae8ff" stroke-opacity="0.5098" stroke="#000000" stroke-width="2.5" stroke-linecap="butt"/><path d="M383.4343,104.1959c0,10.94548 -9.45597,19.81854 -21.12049,19.81854c-11.66453,0 -21.12049,-8.87306 -21.12049,-19.81854c0,-10.94548 9.45597,-19.81854 21.12049,-19.81854c11.66453,0 21.12049,8.87306 21.12049,19.81854z" fill="#00cdff" stroke="#000000" stroke-width="2.5" stroke-linecap="butt"/><path d="M372.46368,105.21989c0,8.16551 -6.40477,14.78496 -14.30545,14.78496c-7.90068,0 -14.30545,-6.61945 -14.30545,-14.78496c0,-8.16551 6.40477,-14.78496 14.30545,-14.78496c7.90068,0 14.30545,6.61945 14.30545,14.78496z" fill="#8ae8ff" stroke-opacity="0.5098" stroke="#000000" stroke-width="2.5" stroke-linecap="butt"/><path d="M336.44075,176.69153l20.03412,2.74944c0,0 15.19352,5.97136 15.696,8.24637c0.6996,3.16748 0.05307,14.29906 0.05307,14.29906l0.20182,8.06503l-0.97803,5.86548l-5.919,-0.54989l-2.09824,6.04877l-14.66377,-1.64967l-11.42377,4.21581l-17.22669,-2.93274l-15.91842,4.39911l-15.91701,-6.78196l-12.327,1.83296l-7.22269,-7.69844l-3.01983,2.93274l1.17667,-9.16481l3.43086,-8.98151c0,0 0.57713,-8.75662 4.77206,-12.33384c3.95947,-3.37643 19.73198,-8.56192 19.73198,-8.56192l17.66067,-2.19955z" fill="#009bff" stroke="#000000" stroke-width="2.5" stroke-linecap="round"/><path d="M269.07832,338.57301c0,0 -2.38677,-8.40082 -1.94086,-18.04841c1.03476,-22.38775 8.05193,-114.16873 8.05193,-114.16873c0,0 5.68761,-23.22528 14.95965,-23.59152c9.2079,-0.3637 31.04223,-0.86676 50.10612,-1.61976c20.67701,-0.81672 27.73318,23.47515 27.73318,23.47515c0,0 11.83983,101.80372 13.50548,121.55979c0.55022,6.52609 -2.3455,10.80685 -2.3455,10.80685z" fill="url(#color-1)" stroke="#000000" stroke-width="2.5" stroke-linecap="butt"/><path d="M259.826,193.42483z" fill="url(#color-2)" stroke="#000000" stroke-width="2.5" stroke-linecap="butt"/><path d="M351.90362,253.60231c0.39444,15.76238 -1.61064,30.72028 -9.71427,38.50292c-4.40242,4.22803 -12.83827,5.54234 -18.54703,5.54234c-6.97188,0 -14.34366,-1.00949 -19.53227,-7.09793c-6.88041,-8.07363 -10.5864,-23.07963 -10.93343,-36.94733c-0.60873,-24.32552 12.04429,-44.04525 28.2613,-44.04525c16.21701,0 29.85697,19.71973 30.4657,44.04525z" fill="url(#color-3)" stroke-opacity="0.5098" stroke="#000000" stroke-width="2.5" stroke-linecap="butt"/><path d="M337.19685,192.42835c0.12227,4.8859 -6.8575,8.8467 -15.58974,8.8467c-8.73224,0 -15.91024,-3.9608 -16.0325,-8.8467c-0.12227,-4.8859 6.8575,-8.8467 15.58974,-8.8467c8.73224,0 15.91024,3.9608 16.0325,8.8467z" fill="#00cdff" stroke="#000000" stroke-width="2.5" stroke-linecap="butt"/><path d="M369.88825,147.929c-1.75425,25.74676 -25.24094,47.83531 -52.51914,45.9767c-27.2782,-1.8586 -48.01822,-26.96053 -46.26397,-52.70728c1.75425,-25.74675 25.28972,-45.11194 52.56792,-43.25333c27.2782,1.8586 47.96946,24.23716 46.2152,49.98391z" fill="#00cdff" stroke="#000000" stroke-width="2.5" stroke-linecap="butt"/><path d="M333.9862,145.64763c0,2.44817 -6.01227,4.4328 -13.42878,4.4328c-7.41652,0 -13.42878,-1.98463 -13.42878,-4.4328c0,-2.44817 6.01227,-4.4328 13.42878,-4.4328c7.41652,0 13.42878,1.98463 13.42878,4.4328z" fill-opacity="0.18431" fill="#000000" stroke="none" stroke-width="0" stroke-linecap="butt"/><path d="M309.28409,186.77649c0,0 0.77256,-2.01171 2.97886,-2.01171c4.34334,0 21.35217,2.01171 21.35217,2.01171" fill="none" stroke="#000000" stroke-width="2.5" stroke-linecap="round"/><g stroke-linecap="butt"><path d="M268.21427,121.45345c5.31286,-0.62248 10.02568,3.54894 10.52637,9.31717c0.5007,5.7682 -3.40033,10.94886 -8.71319,11.57135c-5.31286,0.62249 -11.59462,-3.46957 -12.09531,-9.23778c-0.5007,-5.7682 4.96927,-11.02823 10.28213,-11.65071z" fill="#ffeb00" stroke="#000000" stroke-width="2.5"/><path d="M264.0347,132.16295c-0.07914,0.05925 -0.15763,0.11594 -0.23434,0.16989c0.21139,0.0689 0.35568,0.0583 0.27902,-0.09252c-0.01309,-0.02575 -0.0281,-0.05154 -0.04467,-0.07736zM265.45911,129.76086c2.00023,-0.49073 4.77375,-0.05239 6.59262,-0.1658c0.00624,-0.07523 0.01945,-0.15096 0.04001,-0.22644c0.18149,-0.66608 0.86857,-1.05891 1.53464,-0.87743c0.08828,0.02406 0.17176,0.057 0.24973,0.09758c0.02877,-0.00821 0.05744,-0.01502 0.08596,-0.02058c1.41922,-0.41117 2.97941,0.00494 2.78367,1.74844c0.07755,0.13361 0.12133,0.2792 0.11476,0.44267c-0.08024,1.99437 -2.80095,3.61441 -4.39063,1.70134c-0.09945,-0.1197 -0.18675,-0.23803 -0.26262,-0.35482c-1.57019,0.13894 -3.0835,-0.04371 -4.68333,0.14075c-0.46575,0.0537 -0.9389,0.18086 -1.40286,0.12699c0.24117,0.23458 0.4694,0.46559 0.3177,0.6933c-0.48978,0.73522 -1.43371,1.13052 -2.29556,1.32443c-1.31633,0.29616 -3.3002,-0.76097 -3.65692,-2.10295c-0.67111,-2.52466 4.06484,-6.08824 4.97284,-2.52748z" fill="#000000" stroke="none" stroke-width="0.5"/></g><g stroke-linecap="butt"><path d="M372.85056,121.04979c5.31286,0.62247 10.78283,5.8825 10.28213,11.6507c-0.50069,5.76821 -6.78245,9.86027 -12.09531,9.23778c-5.31286,-0.62249 -9.21389,-5.80315 -8.71319,-11.57135c0.5007,-5.76823 5.21351,-9.93965 10.52637,-9.31717z" fill="#ffeb00" stroke="#000000" stroke-width="2.5"/><path d="M377.03013,131.75927c-0.01657,0.02582 -0.03158,0.05161 -0.04467,0.07736c-0.07666,0.15082 0.06763,0.16143 0.27902,0.09252c-0.07671,-0.05395 -0.1552,-0.11065 -0.23434,-0.16989zM375.60571,129.35718c0.90801,-3.56076 5.64396,0.00281 4.97284,2.52748c-0.35672,1.34197 -2.34059,2.3991 -3.65692,2.10295c-0.86185,-0.19391 -1.80579,-0.58921 -2.29556,-1.32442c-0.1517,-0.22771 0.07653,-0.45873 0.3177,-0.6933c-0.46396,0.05387 -0.93711,-0.07329 -1.40286,-0.12699c-1.59983,-0.18446 -3.11314,-0.00181 -4.68333,-0.14075c-0.07587,0.11678 -0.16317,0.23511 -0.26262,0.35481c-1.58968,1.91307 -4.31038,0.29303 -4.39063,-1.70134c-0.00657,-0.16347 0.03721,-0.30906 0.11476,-0.44267c-0.19574,-1.74349 1.36446,-2.1596 2.78367,-1.74844c0.02852,0.00556 0.05719,0.01237 0.08596,0.02058c0.07797,-0.04058 0.16145,-0.07352 0.24973,-0.09758c0.66607,-0.18148 1.35315,0.21135 1.53464,0.87743c0.02055,0.07548 0.03376,0.15121 0.04001,0.22644c1.81887,0.11341 4.59239,-0.32494 6.59262,0.1658z" fill="#000000" stroke="none" stroke-width="0.5"/></g><path d="M300.61242,141.29356c0.01613,2.01975 -1.76788,3.67141 -3.98466,3.6891c-2.2168,0.0177 -4.02692,-1.60529 -4.04305,-3.62502c-0.01613,-2.01975 1.76788,-3.67141 3.98466,-3.6891c2.2168,-0.0177 4.02691,1.60529 4.04304,3.62503z" fill="#ffffff" stroke="#000000" stroke-width="2.5" stroke-linecap="butt"/><path d="M348.96885,140.97195c0.01613,2.01975 -1.76787,3.67141 -3.98466,3.6891c-2.2168,0.0177 -4.02691,-1.60529 -4.04304,-3.62502c-0.01613,-2.01975 1.76787,-3.6714 3.98466,-3.68909c2.2168,-0.0177 4.02692,1.60528 4.04304,3.62501z" fill="#ffffff" stroke="#000000" stroke-width="2.5" stroke-linecap="butt"/><path d="M291.664,123.61671c0,0 3.33929,-2.44125 5.14237,-2.4713c1.86057,-0.03101 5.85398,2.28803 5.85398,2.28803" fill="none" stroke="#000000" stroke-width="2.5" stroke-linecap="round"/><path d="M339.91629,122.93527c0,0 3.33929,-2.44125 5.14236,-2.4713c1.86057,-0.03101 5.85398,2.28803 5.85398,2.28803" fill="none" stroke="#000000" stroke-width="2.5" stroke-linecap="round"/></g></g></svg>