<svg version="1.1" xmlns="http://www.w3.org/2000/svg" xmlns:xlink="http://www.w3.org/1999/xlink" width="160.75469" height="321.98174" viewBox="0,0,160.75469,321.98174"><defs><linearGradient x1="325.10618" y1="171.48466" x2="322.7111" y2="350.32922" gradientUnits="userSpaceOnUse" id="color-1"><stop offset="0" stop-color="#2982c1"/><stop offset="1" stop-color="#000000"/></linearGradient><linearGradient x1="399.50394" y1="142.52049" x2="360.0327" y2="142.52049" gradientUnits="userSpaceOnUse" id="color-2"><stop offset="0" stop-color="#a636f3"/><stop offset="1" stop-color="#581b7d"/></linearGradient><linearGradient x1="245.10772" y1="147.04154" x2="284.57895" y2="147.04154" gradientUnits="userSpaceOnUse" id="color-3"><stop offset="0" stop-color="#a636f3"/><stop offset="1" stop-color="#581b7d"/></linearGradient><radialGradient cx="285.83108" cy="98.65722" r="25.84387" gradientUnits="userSpaceOnUse" id="color-4"><stop offset="0" stop-color="#000000" stop-opacity="0.92549"/><stop offset="1" stop-color="#000000" stop-opacity="0"/></radialGradient><linearGradient x1="239.76601" y1="74.37559" x2="304.87875" y2="81.59343" gradientUnits="userSpaceOnUse" id="color-5"><stop offset="0" stop-color="#a636f3"/><stop offset="1" stop-color="#16031b"/></linearGradient><radialGradient cx="358.09972" cy="93.51158" r="25.35587" gradientUnits="userSpaceOnUse" id="color-6"><stop offset="0" stop-color="#000000" stop-opacity="0.92549"/><stop offset="1" stop-color="#000000" stop-opacity="0"/></radialGradient><linearGradient x1="403.20418" y1="71.81672" x2="338.09144" y2="79.03456" gradientUnits="userSpaceOnUse" id="color-7"><stop offset="0" stop-color="#a636f3"/><stop offset="1" stop-color="#16031b"/></linearGradient></defs><g transform="translate(-241.10775,-29.64918)"><g stroke-miterlimit="10"><g><path d="M279.32063,346.69059l0.01711,-147.27579c0,0 6.42746,-25.69821 15.43946,-26.10344c8.94965,-0.40242 30.15756,-0.95905 48.68678,-1.79223c20.09712,-0.90368 26.81837,16.2629 26.81837,16.2629l-2.6526,162.54719z" fill="url(#color-1)" stroke="#000000" stroke-width="2.5" stroke-linecap="butt"/><path d="M348.63789,183.26727c-0.36682,8.51921 -10.34694,15.13803 -22.29122,14.78356c-11.94428,-0.35448 -21.32964,-7.54801 -20.96282,-16.06723c0.36682,-8.51921 10.34692,-15.13803 22.2912,-14.78356c11.94428,0.35448 21.32966,7.54802 20.96284,16.06723z" fill="#f2f2f2" stroke="#000000" stroke-width="1.5" stroke-linecap="butt"/><path d="M342.98305,183.5475c-0.27559,6.40064 -7.77384,11.37348 -16.74779,11.10716c-8.97396,-0.26633 -16.02536,-5.67096 -15.74976,-12.07161c0.27559,-6.40064 7.77382,-11.37348 16.74779,-11.10716c8.97396,0.26633 16.02536,5.67097 15.74976,12.07161z" fill="#a636f3" stroke="#000000" stroke-width="2.5" stroke-linecap="butt"/><path d="M296.1188,246.09787l23.97113,-12.06784l19.40349,12.394l15.08625,-6.197" fill="none" stroke="#ffffff" stroke-width="1.5" stroke-linecap="round"/><path d="M295.80712,253.05481l23.97114,-12.06784l19.4035,12.394l15.08625,-6.197" fill="none" stroke="#ffffff" stroke-width="1.5" stroke-linecap="round"/><path d="M295.17364,259.6856l23.97114,-12.06784l19.4035,12.394l15.08625,-6.197" fill="none" stroke="#ffffff" stroke-width="1.5" stroke-linecap="round"/></g><g><path d="M343.48936,259.4201c0,0 0.11536,-2.67624 2.01738,-6.22285c1.29341,-2.41175 -0.08018,-2.64938 -1.38167,-2.43347c-2.05275,0.34054 -13.37673,0.46731 -14.04805,-0.20298c-0.64119,-0.64021 2.92618,-5.63726 3.48801,-6.59815c2.73939,-4.68521 14.65984,-12.25821 18.8539,-15.70408c1.41771,-1.16478 4.71105,-4.13719 6.28028,-3.75187c2.14084,0.52568 5.77245,6.66598 7.31635,8.82121c3.00012,4.18807 3.99545,10.37503 6.13593,15.41263c2.33707,5.50023 6.118,9.13154 6.91309,16.00135c0.32057,2.76976 2.7241,6.91542 2.24669,9.78193c-1.97343,11.84878 -12.5887,24.25468 -18.73784,32.07008c-3.87826,4.92917 -11.86165,13.602 -11.86165,13.602l-5.91822,5.09762l-3.65607,-3.41832l2.26558,-19.23657c0,0 3.07137,-5.81914 2.93401,-6.01506c-0.03334,-0.04753 -3.06516,2.92385 -3.31596,3.21935c-1.8178,2.14185 -9.18849,8.79372 -9.18849,8.79372l-4.92704,-10.24876c0,0 9.38688,-11.92962 10.67719,-13.57064c0.34287,-0.43605 3.09891,-3.44608 2.76268,-4.21165c-0.28868,-0.65726 -4.92599,2.27142 -5.47836,2.65175c-4.30309,2.96273 -14.20556,1.523 -14.20556,1.523c0,0 5.83401,-10.15557 7.1769,-11.86234c11.23594,-14.28039 0.51216,-7.50401 13.65089,-13.4979z" fill="#a636f3" stroke="#000000" stroke-width="2.5" stroke-linecap="round"/><path d="M351.08939,268.78746c2.98174,-3.48518 5.74891,-5.58694 6.18064,-4.69441c0.43174,0.89253 -1.63545,4.44135 -4.61719,7.92652c-2.98174,3.48518 -5.74891,5.58694 -6.18064,4.69441c-0.43174,-0.89252 1.63545,-4.44135 4.61719,-7.92652z" fill-opacity="0.23137" fill="#000000" stroke="none" stroke-width="0" stroke-linecap="butt"/><path d="M355.9455,283.77124c3.6006,-4.20852 6.84027,-6.95696 7.23602,-6.13881c0.39576,0.81815 -2.20227,4.89307 -5.80286,9.10159c-3.6006,4.20852 -6.84027,6.95695 -7.23602,6.1388c-0.39576,-0.81815 2.20227,-4.89307 5.80286,-9.10158z" fill-opacity="0.23137" fill="#000000" stroke="none" stroke-width="0" stroke-linecap="butt"/><path d="M349.31542,243.03344c0.78762,-0.92061 1.92196,-0.64191 2.53359,0.6225c0.61163,1.26441 0.46894,3.03572 -0.31869,3.95632c-0.78762,0.92061 -1.92195,0.64191 -2.53358,-0.6225c-0.61163,-1.26441 -0.46895,-3.03572 0.31869,-3.95632z" fill-opacity="0.23137" fill="#000000" stroke="none" stroke-width="0" stroke-linecap="butt"/><path d="M363.89429,250.05383c0,0 -0.46197,1.37309 -1.06966,2.70135c-0.47111,1.02969 -1.02979,2.03245 -1.52878,2.34775c-0.46466,0.29359 -1.30462,0.15162 -2.09465,-0.09679c-0.98795,-0.31066 -1.89779,-0.78779 -1.89779,-0.78779" fill="none" stroke-opacity="0.40392" stroke="#000000" stroke-width="2.5" stroke-linecap="round"/><path d="M362.47461,259.86331c0,0 -0.46197,1.37307 -1.06966,2.70133c-0.47111,1.02969 -1.02981,2.03248 -1.52879,2.34778c-0.46466,0.29359 -1.30461,0.15161 -2.09465,-0.0968c-0.98795,-0.31066 -1.89781,-0.78779 -1.89781,-0.78779" fill="none" stroke-opacity="0.40392" stroke="#000000" stroke-width="2.5" stroke-linecap="round"/><path d="M361.05492,269.67277c0,0 -0.46197,1.37307 -1.06966,2.70133c-0.47111,1.02969 -1.02981,2.03246 -1.52879,2.34776c-0.46466,0.29359 -1.30461,0.15161 -2.09464,-0.0968c-0.98795,-0.31066 -1.8978,-0.78778 -1.8978,-0.78778" fill="none" stroke-opacity="0.40392" stroke="#000000" stroke-width="2.5" stroke-linecap="round"/></g><g><path d="M330.96117,272.43059c12.62009,7.02041 2.46956,-0.58784 12.53348,14.54139c1.20283,1.8082 6.21018,12.39583 6.21018,12.39583c0,0 -9.98562,0.64715 -14.0393,-2.64861c-0.52036,-0.42308 -4.90991,-3.71149 -5.24998,-3.07928c-0.39608,0.73638 2.1117,3.95618 2.41878,4.41813c1.15563,1.7385 9.56342,14.37725 9.56342,14.37725l-5.72697,9.82418c0,0 -6.81798,-7.2173 -8.45959,-9.49701c-0.22649,-0.31453 -3.01224,-3.51775 -3.04925,-3.47301c-0.15251,0.18437 2.44605,6.22947 2.44605,6.22947l0.72761,19.35584l-3.91649,3.11655l-5.49381,-5.5524c0,0 -7.26793,-9.28063 -10.74165,-14.50277c-5.50772,-8.27994 -15.1021,-21.49123 -16.1264,-33.45946c-0.24779,-2.89542 2.47802,-6.83667 3.01798,-9.57213c1.33925,-6.78475 5.39715,-10.10365 8.1645,-15.40048c2.53457,-4.85129 4.01909,-10.93943 7.34296,-14.87549c1.71051,-2.02554 5.81922,-7.8574 7.99511,-8.21104c1.59492,-0.25922 4.64128,2.96583 5.96179,4.23973c3.90656,3.7687 15.18658,12.26626 17.54445,17.15461c0.48357,1.00256 3.642,6.26764 2.9519,6.85479c-0.72253,0.61473 -12.00052,-0.41275 -14.01965,-0.91555c-1.28017,-0.31879 -2.66832,-0.19123 -1.57094,2.3158c1.61376,3.68671 1.5158,6.36366 1.5158,6.36366z" fill="#a636f3" stroke="#000000" stroke-width="2.5" stroke-linecap="round"/><path d="M326.6116,289.43228c-0.50139,0.85534 -3.09253,-1.45997 -5.78747,-5.17137c-2.69495,-3.7114 -4.47317,-7.41346 -3.97179,-8.2688c0.50139,-0.85534 3.09253,1.45995 5.78748,5.17136c2.69495,3.7114 4.47317,7.41348 3.97178,8.26882z" fill-opacity="0.23137" fill="#000000" stroke="none" stroke-width="0" stroke-linecap="butt"/><path d="M321.66692,305.24778c-0.45961,0.78406 -3.47029,-2.21346 -6.72458,-6.69516c-3.25428,-4.4817 -5.5198,-8.75043 -5.06018,-9.53449c0.45961,-0.78406 3.47029,2.21346 6.72458,6.69516c3.25428,4.4817 5.51979,8.75044 5.06018,9.53449z" fill-opacity="0.23137" fill="#000000" stroke="none" stroke-width="0" stroke-linecap="butt"/><path d="M326.46041,259.60141c-0.71031,1.21173 -1.86322,1.39928 -2.57508,0.41891c-0.71186,-0.98037 -0.71315,-2.75743 -0.00284,-3.96915c0.71031,-1.21173 1.86323,-1.39927 2.57508,-0.4189c0.71186,0.98037 0.71314,2.75741 0.00284,3.96914z" fill-opacity="0.23137" fill="#000000" stroke="none" stroke-width="0" stroke-linecap="butt"/><path d="M317.60486,266.14605c0,0 -0.94492,0.40322 -1.95446,0.63428c-0.8073,0.18475 -1.65589,0.25942 -2.09572,-0.0702c-0.47231,-0.354 -0.94942,-1.39804 -1.33711,-2.46196c-0.50007,-1.3724 -0.85131,-2.7779 -0.85131,-2.7779" fill="none" stroke-opacity="0.40392" stroke="#000000" stroke-width="2.5" stroke-linecap="round"/><path d="M318.23945,276.03738c0,0 -0.94493,0.40322 -1.95447,0.63427c-0.8073,0.18475 -1.65589,0.25945 -2.09571,-0.07018c-0.47231,-0.354 -0.94943,-1.39807 -1.33711,-2.46199c-0.50007,-1.3724 -0.85131,-2.77787 -0.85131,-2.77787" fill="none" stroke-opacity="0.40392" stroke="#000000" stroke-width="2.5" stroke-linecap="round"/><path d="M318.87403,285.92872c0,0 -0.94493,0.40322 -1.95448,0.63428c-0.8073,0.18475 -1.65589,0.25944 -2.09571,-0.0702c-0.47231,-0.354 -0.94944,-1.39805 -1.33711,-2.46196c-0.50007,-1.37241 -0.8513,-2.77788 -0.8513,-2.77788" fill="none" stroke-opacity="0.40392" stroke="#000000" stroke-width="2.5" stroke-linecap="round"/></g><g><path d="M378.38302,112.45913c4.791,0.41818 8.07901,-1.94257 12.4475,-3.01028c0.66533,-0.16262 4.3408,-1.84314 4.84047,-1.23561c0.38528,0.46844 -1.13036,3.65115 -1.31359,4.20564c-0.62386,1.88779 -5.81206,12.1346 -5.68985,12.9116c0.45067,2.86542 9.12814,-1.64765 10.50949,-0.40064c1.26529,1.14223 -1.51565,5.17455 -2.0176,6.07895c-1.42014,2.55872 -8.14754,15.72453 -8.04511,17.77772c0.16303,3.26782 4.46336,6.92687 3.00952,11.24792c-0.71341,2.12039 -2.53487,-0.99708 -3.48852,-0.61154c-0.97126,0.39267 -0.64769,4.53095 -0.63873,5.40365c0.03652,3.55688 0.01066,7.53924 -0.66952,11.06471c-0.07006,0.36315 -0.01146,0.91356 -0.32101,1.05782c-0.77103,0.35931 -9.38565,-8.60125 -10.76846,-9.62147c-6.73152,-4.96643 -13.30859,-12.70524 -15.31773,-21.92913c-3.03529,-13.93492 1.49088,-33.6873 17.0967,-32.32781z" fill="url(#color-2)" stroke="#000000" stroke-width="2.5" stroke-linecap="round"/><path d="M266.59507,117.59169c15.60582,-1.35949 20.13199,18.39288 17.0967,32.3278c-2.00914,9.22389 -8.58621,16.9627 -15.31773,21.92913c-1.38281,1.02023 -9.99744,9.98078 -10.76846,9.62147c-0.30956,-0.14425 -0.25095,-0.69466 -0.32101,-1.05781c-0.68017,-3.52546 -0.70604,-7.50782 -0.66952,-11.0647c0.00895,-0.8727 0.33253,-5.01098 -0.63873,-5.40365c-0.95364,-0.38556 -2.77509,2.73192 -3.48851,0.61153c-1.45384,-4.32104 2.84649,-7.9801 3.00952,-11.24792c0.10244,-2.0532 -6.62496,-15.219 -8.0451,-17.77772c-0.50196,-0.9044 -3.28289,-4.93672 -2.0176,-6.07895c1.38135,-1.247 10.05881,3.26606 10.50949,0.40065c0.12221,-0.777 -5.06598,-11.02381 -5.68984,-12.9116c-0.18324,-0.55448 -1.69887,-3.73719 -1.3136,-4.20563c0.49967,-0.60753 4.17514,1.07299 4.84047,1.23561c4.36848,1.06772 7.6565,3.42847 12.44749,3.01029z" fill="url(#color-3)" stroke="#000000" stroke-width="2.5" stroke-linecap="round"/><path d="M377.49542,131.86344c-1.94104,28.48816 -27.92848,52.9286 -58.11114,50.8721c-30.18266,-2.05649 -53.13099,-29.83117 -51.18995,-58.31932c1.94104,-28.48815 27.98246,-49.91526 58.16512,-47.85875c30.18266,2.05649 53.07703,26.81782 51.13599,55.30597z" fill="#a636f3" stroke="#000000" stroke-width="2.5" stroke-linecap="butt"/><path d="M337.09699,121.95615c0.01376,2.70881 -6.62742,4.93852 -14.83351,4.98021c-8.20609,0.04169 -14.86959,-2.12043 -14.88334,-4.82924c-0.01376,-2.70881 6.62743,-4.93852 14.83352,-4.98021c8.20609,-0.04169 14.86959,2.12043 14.88335,4.82924z" fill-opacity="0.23137" fill="#000000" stroke="none" stroke-width="0" stroke-linecap="butt"/><path d="M301.92251,120.512c-0.15191,2.2297 -2.25895,1.53332 -4.70617,1.36658c-2.44723,-0.16674 -4.30794,0.25929 -4.15603,-1.9704c0.15191,-2.22971 2.25895,-3.90205 4.70617,-3.73531c2.44723,0.16674 4.30793,2.10943 4.15602,4.33914z" fill="#ffffff" stroke="#000000" stroke-width="2.5" stroke-linecap="butt"/><path d="M351.09667,120.52292c-0.15191,2.22971 -2.25895,1.92811 -4.70617,1.76137c-2.44723,-0.16674 -4.30793,-0.1355 -4.15602,-2.36519c0.15191,-2.2297 2.25894,-3.90204 4.70617,-3.7353c2.44723,0.16674 4.30794,2.10943 4.15603,4.33913z" fill="#ffffff" stroke="#000000" stroke-width="2.5" stroke-linecap="butt"/><path d="M291.05563,119.00478c-12.271,6.46922 -24.55772,2.60366 -27.44316,-8.63399c-2.88543,-11.23765 4.72307,-25.59191 16.99408,-32.06113c12.271,-6.46922 24.55772,-2.60366 27.44315,8.63399c2.88543,11.23765 -4.72307,25.5919 -16.99407,32.06113z" fill="url(#color-4)" stroke="#000000" stroke-width="0" stroke-linecap="butt"/><path d="M299.65884,96.70646l-13.90902,12.35541l-12.9877,7.43265l-15.9361,-2.75378l-14.45882,-39.11354l1.61054,-38.24599l24.54383,40.34902l36.37503,4.70237z" fill="url(#color-5)" stroke="#000000" stroke-width="2.5" stroke-linecap="round"/><path d="M336.30065,82.0192c2.83095,-11.02545 14.88566,-14.81803 26.92495,-8.47096c12.03929,6.34707 19.50413,20.43028 16.67318,31.45573c-2.83095,11.02545 -14.88567,14.81803 -26.92496,8.47096c-12.03929,-6.34707 -19.50412,-20.43028 -16.67317,-31.45572z" fill="url(#color-6)" stroke="#000000" stroke-width="0" stroke-linecap="butt"/><path d="M338.07359,78.87371l36.37503,-4.70237l24.54383,-40.34902l1.61054,38.24599l-14.45882,39.11354l-15.9361,2.75378l-12.98769,-7.43264l-13.90902,-12.35542z" fill="url(#color-7)" stroke="#000000" stroke-width="2.5" stroke-linecap="round"/><path d="M314.27689,89.70654c0,0 -1.20327,0.84326 -2.5868,1.59726c-1.07254,0.58452 -2.25342,1.11539 -3.06603,1.15816c-0.7567,0.03982 -1.84404,-0.38823 -2.81878,-0.87622c-1.21897,-0.61027 -2.26186,-1.31428 -2.26186,-1.31428" fill="none" stroke-opacity="0.40392" stroke="#000000" stroke-width="2.5" stroke-linecap="round"/><path d="M343.93104,90.64947c0,0 -1.37758,0.51112 -2.90694,0.89022c-1.1856,0.29389 -2.46242,0.50846 -3.25938,0.34408c-0.74213,-0.15307 -1.68564,-0.84248 -2.50506,-1.56139c-1.02472,-0.89903 -1.85537,-1.84417 -1.85537,-1.84417" fill="none" stroke-opacity="0.40392" stroke="#000000" stroke-width="2.5" stroke-linecap="round"/><path d="M328.85456,86.68193c0,0 -1.15652,0.9063 -2.49782,1.7331c-1.03981,0.64095 -2.19065,1.23413 -2.99982,1.32023c-0.75349,0.08017 -1.86214,-0.28921 -2.86155,-0.72446c-1.24981,-0.5443 -2.3288,-1.19163 -2.3288,-1.19163" fill="none" stroke-opacity="0.40392" stroke="#000000" stroke-width="2.5" stroke-linecap="round"/><path d="M373.97267,129.79717c0,0 -0.91337,0.51111 -1.92737,0.89021c-0.78608,0.29389 -1.63264,0.50846 -2.16104,0.34408c-0.49204,-0.15308 -1.1176,-0.84249 -1.6609,-1.5614c-0.67941,-0.89903 -1.23015,-1.84417 -1.23015,-1.84417" fill="none" stroke-opacity="0.40392" stroke="#000000" stroke-width="2.5" stroke-linecap="round"/><path d="M374.41965,138.29949c0,0 -0.91337,0.51111 -1.92737,0.89022c-0.78608,0.29389 -1.63264,0.50846 -2.16104,0.34408c-0.49204,-0.15308 -1.1176,-0.84249 -1.6609,-1.5614c-0.67941,-0.89903 -1.23015,-1.84417 -1.23015,-1.84417" fill="none" stroke-opacity="0.40392" stroke="#000000" stroke-width="2.5" stroke-linecap="round"/><path d="M372.59011,146.8018c0,0 -0.91337,0.51111 -1.92737,0.89022c-0.78608,0.29389 -1.63263,0.50846 -2.16103,0.34408c-0.49205,-0.15307 -1.11761,-0.84248 -1.66091,-1.56139c-0.67941,-0.89903 -1.23015,-1.84417 -1.23015,-1.84417" fill="none" stroke-opacity="0.40392" stroke="#000000" stroke-width="2.5" stroke-linecap="round"/><path d="M278.29915,125.81472c0,0 -0.55074,0.94514 -1.23015,1.84417c-0.5433,0.71891 -1.16886,1.40832 -1.6609,1.5614c-0.5284,0.16438 -1.37495,-0.05019 -2.16104,-0.34408c-1.014,-0.3791 -1.92737,-0.89021 -1.92737,-0.89021" fill="none" stroke-opacity="0.40392" stroke="#000000" stroke-width="2.5" stroke-linecap="round"/><path d="M279.44658,131.6903c0,0 -0.55074,0.94514 -1.23015,1.84416c-0.5433,0.71891 -1.16886,1.40832 -1.66091,1.5614c-0.5284,0.16438 -1.37495,-0.05019 -2.16103,-0.34408c-1.014,-0.37911 -1.92737,-0.89022 -1.92737,-0.89022" fill="none" stroke-opacity="0.40392" stroke="#000000" stroke-width="2.5" stroke-linecap="round"/><path d="M279.89356,138.61657c0,0 -0.55074,0.94514 -1.23015,1.84416c-0.5433,0.71891 -1.16886,1.40832 -1.66091,1.5614c-0.5284,0.16438 -1.37495,-0.05019 -2.16103,-0.34408c-1.014,-0.37911 -1.92737,-0.89022 -1.92737,-0.89022" fill="none" stroke-opacity="0.40392" stroke="#000000" stroke-width="2.5" stroke-linecap="round"/><path d="M316.62054,150.45232l3.51617,5.15706" fill="none" stroke="#000000" stroke-width="2.5" stroke-linecap="round"/><path d="M325.29377,156.31261l4.68823,-5.86029" fill="none" stroke="#000000" stroke-width="2.5" stroke-linecap="round"/><path d="M360.55531,152.71471l2.88517,0.86555l-22.79284,17.59954l-18.75361,-3.4622l-13.5603,4.32776l-25.3895,-15.57992l4.03924,-0.86555" fill="none" stroke="#000000" stroke-width="2.5" stroke-linecap="round"/><path d="M388.53872,51.0539c0,0 -43.79145,4.8832 -66.81907,5.19319c-21.73272,0.29256 -67.68689,-3.38252 -67.68689,-3.38252" fill="none" stroke="#000000" stroke-width="2.5" stroke-linecap="round"/><path d="M385.17607,55.96855c0,0 -54.5166,7.12409 -62.96801,7.22757c-20.43935,0.25028 -63.77798,-5.67558 -63.77798,-5.67558" fill="none" stroke="#000000" stroke-width="2.5" stroke-linecap="round"/><path d="M382.40678,61.14186c0,0 -40.39328,7.81575 -61.28817,8.17065c-19.63747,0.33354 -60.54318,-6.10133 -60.54318,-6.10133" fill="none" stroke="#000000" stroke-width="2.5" stroke-linecap="round"/></g></g></g></svg>