<svg version="1.1" xmlns="http://www.w3.org/2000/svg" xmlns:xlink="http://www.w3.org/1999/xlink" width="163.41385" height="349.50517" viewBox="0,0,163.41385,349.50517"><g transform="translate(-191.505,-14.04651)"><g stroke-width="2" stroke-miterlimit="10"><path d="M255.24276,229.55842c5.75155,0.40239 13.86601,-0.25842 19.89824,-0.76105c6.57722,-0.54803 14.74725,1.37263 21.16499,1.96997c3.76989,0.35089 15.0871,2.22366 15.0871,2.22366l0.64534,6.0865l1.40638,19.43701l-5.06333,21.81747c0,0 -5.10537,27.77224 -13.46381,41.17595c-3.65508,5.86138 2.52754,13.90991 -7.32102,16.78435c-3.48748,1.01785 -13.5521,8.62402 -17.02308,8.30095c-5.03533,-0.46868 -9.51587,-6.93917 -15.32123,-8.81486c-7.39188,-2.38828 -24.54707,-0.53547 -24.54707,-0.53547l-6.34611,-7.85694l7.20936,-19.6902c0,0 8.35275,-29.54292 14.61915,-48.52189c2.05912,-6.23638 3.25643,-27.65609 7.64139,-31.74599z" fill="#3c2c1f" stroke="#000000" stroke-linecap="round"/><path d="M282.63108,245.4225l-26.10338,91.3698" fill="none" stroke="#000000" stroke-linecap="round"/><path d="M256.4576,343.76349c-2.87035,10.3291 -5.9542,19.03892 -16.79334,18.03005c-10.83915,-1.00887 -22.45868,-21.68351 -22.45868,-21.68351c0,0 13.9841,-17.88466 24.82324,-16.87578c10.83915,1.00887 17.29913,10.20012 14.42878,20.52924z" fill="#000000" stroke="#000000" stroke-linecap="butt"/><path d="M296.0463,344.26524c-2.87035,10.32912 -8.41198,19.21703 -19.25113,18.20815c-10.83914,-1.00887 -22.87125,-11.53249 -20.00091,-21.86161c2.87035,-10.32912 13.9841,-17.88466 24.82324,-16.87578c10.83915,1.00887 17.29914,10.20012 14.42879,20.52924z" fill="#000000" stroke="#000000" stroke-linecap="butt"/><path d="M270.35642,222.77492c-7.84224,3.41161 -27.70658,-1.9346 -27.70658,-1.9346l-49.87626,-56.27095l28.16958,-40.73909l21.19882,-0.76692l0.08213,6.83555l-13.91106,9.22101l-10.14037,38.14889c0,0 26.95222,20.33985 42.94958,18.35511c8.26954,-1.026 16.47028,-4.89499 25.00623,-2.57623c25.30732,6.87461 0.74176,27.38374 -14.55214,30.0364z" fill="#feed00" stroke="#000000" stroke-linecap="round"/><g><path d="M310.44215,213.73365l14.87023,-11.32535l13.85563,24.48916l-3.16346,6.11301l-2.33981,-2.05436l0.21958,5.24687l-4.03489,8.45503l-4.94512,-5.27963l-8.21451,4.50021l-4.50993,-13.26525c0,0 -5.5074,3.21313 -8.63647,-3.73969c-2.87785,-6.39471 6.70461,-13.43312 6.70461,-13.43312z" fill="#feed00" stroke="#000000" stroke-linecap="round"/><path d="M329.95808,221.46939l-2.78678,3.76671l-4.15122,-3.71769l-3.71451,-3.04405l4.58037,-6.61569l7.19818,-2.97965l-1.12604,12.59035z" fill="#ffa600" stroke="none" stroke-linecap="butt"/><path d="M310.36883,225.52747c0,0 -2.03827,3.36263 -3.7323,2.30532c-1.69401,-1.05733 -2.76955,-3.80371 -2.40229,-6.13422c0.36726,-2.33051 2.03827,-3.36263 3.73229,-2.30532c1.69401,1.05733 2.4023,6.13421 2.4023,6.13421z" fill="#ffa600" stroke="none" stroke-linecap="butt"/><path d="M321.94859,240.23242l-3.6851,2.27298l-2.37282,-6.05402l3.6851,-2.27299l2.37282,6.05402z" fill="#ffa600" stroke="none" stroke-linecap="butt"/><path d="M331.76327,238.88071l-3.13945,2.55175l-1.8449,-5.66272l3.13945,-2.55175z" fill="#ffa600" stroke="none" stroke-linecap="butt"/><path d="M338.20946,226.8367l-2.29882,2.82924l-1.07521,-4.93512l2.29882,-2.82924z" fill="#ffa600" stroke="none" stroke-linecap="butt"/></g><g><path d="M245.7763,217.63264c3.41714,-0.34637 9.41319,7.26324 6.38478,13.58804c-3.29274,6.87683 -7.35098,2.46527 -8.72255,3.53424c-0.26412,0.20583 2.02753,11.59779 -0.82644,13.9336c-5.27449,4.3169 -8.10569,-4.69336 -8.10569,-4.69336l-5.0687,5.16109l-3.83364,-8.54817l-3.65249,-6.01902l1.6084,2.77723l-7.01407,-6.965l18.96094,-23.24977c0,0 7.23623,7.34665 10.06845,10.76954z" fill="#feed00" stroke="#000000" stroke-linecap="round"/><path d="M229.58362,213.48388l7.12565,3.14915l-0.10709,5.81767l-3.78552,2.95527l-4.23804,3.61839l-2.69684,-3.8316l3.70186,-11.70889z" fill="#ffa600" stroke="none" stroke-linecap="butt"/><path d="M247.91627,223.63771c1.71856,-1.01694 3.36467,0.05446 3.67669,2.39302c0.312,2.33856 -0.82824,5.05871 -2.54681,6.07563c-1.71856,1.01694 -3.36469,-0.05444 -3.6767,-2.393c-0.312,-2.33856 0.82824,-5.05871 2.54682,-6.07564z" fill="#ffa600" stroke="none" stroke-linecap="butt"/><path d="M239.95654,238.92279c0,0 3.32242,0.05221 3.63027,2.35956c0.30784,2.30736 -0.81836,4.99194 -2.51544,5.99615c-1.69709,1.0042 -3.63027,-2.35956 -3.63027,-2.35956z" fill="#ffa600" stroke="none" stroke-linecap="butt"/><path d="M225.6434,236.93902l7.07436,3.40415l-1.97844,5.61747l-3.07818,-2.62534z" fill="#ffa600" stroke="none" stroke-linecap="butt"/><path d="M218.69735,225.45499l2.23121,2.88286l-1.19172,4.90829l-2.23121,-2.88286z" fill="#ffa600" stroke="none" stroke-linecap="butt"/></g><path d="M252.19278,197.87331c-1.73351,6.32841 -10.84791,23.82102 -10.84791,23.82102l-24.66842,-6.26162l9.28269,-21.42346l19.21021,-54.58739c0,0 6.26726,-8.39372 8.21487,-13.10041l1.17476,0.05859c13.00511,2.77109 24.67046,8.7733 38.53894,7.37742c5.55037,-0.55864 9.64512,-2.4523 13.72377,-6.25321c0.93253,-0.86902 3.62595,-2.95191 5.06404,-1.97579c3.23668,2.19695 6.78092,13.97306 6.78092,13.97306l14.71386,45.64717l4.53323,16.21614l-19.16639,15.97827l-5.61452,2.84505l1.04418,-23.74486l-3.19377,24.77203l0.34061,14.07119c0,0 -10.43712,3.6132 -13.32794,3.89627c-11.69358,1.145 -23.71462,-1.2521 -35.39944,-0.06921c-3.79795,0.38447 -9.43166,3.87669 -12.78609,2.01553c-1.7878,-0.99195 -4.78042,-7.25263 -4.75974,-8.99962c0.09102,-7.69104 -0.99446,-16.53724 0.60235,-24.05732" fill="#fffe8a" stroke="#000000" stroke-linecap="round"/><path d="M260.68112,118.11064c14.08588,-2.30447 27.77414,-4.68947 42.1349,-3.39013c3.06258,0.2771 13.75167,1.54381 12.8825,6.25703c-1.18131,6.40572 -7.51055,9.66461 -13.35366,10.99488c-10.53374,2.39816 -35.34307,2.92719 -44.73022,-2.69023c-6.68082,-3.99789 -4.83445,-11.48309 3.21325,-11.38783z" fill="#fffe8a" stroke="#000000" stroke-linecap="round"/><g stroke-linecap="butt"><path d="M267.25742,47.7819l-14.4937,34.48088l-4.26571,14.66007l-0.29449,-2.20577l-2.15573,-17.64437l-3.15617,-44.38064l-0.03783,-17.61211l1.97378,0.06481l13.52058,17.38541l9.68005,14.99634z" fill="#feed00" stroke="#000000"/><path d="M262.41855,49.69951l-8.37176,24.6093l-2.32031,10.25608l-0.26262,-1.44096l-1.97009,-11.54831l-3.47474,-29.29459l-0.58533,-11.75789l1.29161,-0.17211l9.38695,10.13512l6.80172,8.95872z" fill="#ffa700" stroke="none"/></g><g stroke-linecap="butt"><path d="M303.23113,47.84628l7.76856,-13.55375c0,0 7.28125,-10.77566 11.04966,-15.87506c0.73337,-0.99241 1.00043,-2.07862 1.75126,-0.19481c1.17169,2.93972 0.95042,15.11883 0.95042,15.11883l-0.32643,38.31365l-0.93081,15.29587l-0.1386,1.91392c0,0 -4.20556,-10.97939 -4.61172,-12.28166c-3.69574,-11.84978 -14.81281,-28.57221 -14.81281,-28.57221z" fill="#feed00" stroke="#000000"/><path d="M307.8853,49.13209l5.54681,-8.16878l7.77958,-9.36077l1.15799,0.05665l0.13655,10.13286l-1.45259,25.38804c0,0 -0.79853,6.69448 -1.10635,10.05062c-0.03868,0.42163 0.07415,1.1313 -0.15298,1.25528c-0.54706,0.29858 -2.41099,-7.73176 -2.63601,-8.63896c-2.04759,-8.25516 -8.81828,-20.53133 -8.81828,-20.53133z" fill="#ffa700" stroke="none"/></g><path d="M282.59232,44.79908l30.37346,7.58955c0,0 5.99728,13.59347 7.90014,22.09436c0.58442,2.61086 2.73944,7.45554 2.73944,7.45554c0,0 -7.24464,39.04899 -28.54455,41.07148c-17.83963,1.69394 -48.77715,-17.78222 -48.77715,-17.78222l1.64137,-32.17231l1.65019,-11.76917l33.36739,-16.20917z" fill="#feed00" stroke="#000000" stroke-linecap="butt"/><path d="M320.03407,86.24491c4.28323,0.44055 10.98035,10.96212 10.98035,10.96212l-7.62275,3.48675l1.36207,2.47831l0.9561,8.41675c0,0 -11.09419,3.21364 -14.04283,0.2435" fill="#feed00" stroke="#000000" stroke-linecap="round"/><path d="M253.24344,113.95343l-14.03314,-0.5758l1.15506,-8.39175l1.42035,-2.44538l-7.5381,-3.66621l11.23673,-10.69916" fill="#feed00" stroke="#000000" stroke-linecap="round"/><path d="M208.43766,66.82292l36.37859,17.82855" fill="none" stroke="#000000" stroke-linecap="round"/><path d="M245.15321,85.88598l-32.07074,-4.7793" fill="none" stroke="#000000" stroke-linecap="round"/><path d="M244.27022,86.2271l-26.73832,2.84491" fill="none" stroke="#000000" stroke-linecap="round"/><path d="M353.68563,65.90057l-30.63865,18.27055" fill="none" stroke="#000000" stroke-linecap="round"/><path d="M320.40016,85.01873c11.05421,-7.69993 33.51868,-3.32399 33.51868,-3.32399" fill="none" stroke="#000000" stroke-linecap="round"/><path d="M323.89873,86.46642l27.08689,4.65644" fill="none" stroke="#000000" stroke-linecap="round"/><path d="M278.62137,94.56215c3.71974,0.04404 7.6391,-0.15081 11.32651,0.35339c0.468,0.064 1.27461,-0.12755 1.37728,0.33355c0.13446,0.60398 -6.57593,4.29927 -7.3425,4.23312c-1.7238,-0.14874 -4.28409,-3.55679 -4.94326,-4.91509z" fill="#000000" stroke="#000000" stroke-linecap="round"/><path d="M279.80622,75.91534c-0.08377,7.07764 -5.80231,12.74831 -12.77271,12.66582c-6.97041,-0.0825 -12.46933,-12.96458 -12.46933,-12.96458c0,0 5.8023,-12.7483 12.77269,-12.66581c6.97041,0.0825 12.55312,5.88693 12.46936,12.96457z" fill="#ffffff" stroke="#000000" stroke-linecap="butt"/><path d="M314.87696,75.90789c-0.08377,7.07764 -5.8023,12.7483 -12.77269,12.66581c-6.97041,-0.0825 -12.5531,-5.88694 -12.46934,-12.96457c0.08377,-7.07764 5.8023,-12.7483 12.77269,-12.66581c6.97041,0.0825 12.5531,5.88694 12.46934,12.96457z" fill="#ffffff" stroke="#000000" stroke-linecap="butt"/><path d="M280.44941,75.08623c-0.05983,5.05545 -4.3774,12.63557 -9.2384,12.57803c-4.86101,-0.05753 -8.42471,-7.73092 -8.36489,-12.78639c0.05983,-5.05545 4.04898,-9.10707 8.90998,-9.04953c4.86101,0.05753 8.75313,4.20243 8.69331,9.25789z" fill="#000000" stroke="#000000" stroke-linecap="butt"/><path d="M313.70142,76.56113c-0.05983,5.05545 -3.58839,12.98278 -8.4494,12.92525c-4.86101,-0.05753 -9.21372,-8.07814 -9.15389,-13.1336c0.05983,-5.05545 4.04898,-9.10707 8.90998,-9.04953c4.86101,0.05753 8.75313,4.20243 8.69331,9.25789z" fill="#000000" stroke="#000000" stroke-linecap="butt"/><path d="M264.79238,50.51101l8.01697,-6.03168l3.74197,-1.73084l-4.7144,-2.2799l13.7824,-1.86695l4.25105,0.04579l-5.7745,-3.59019l5.43752,1.35669l11.12924,10.7536" fill="#feed00" stroke="#000000" stroke-linecap="butt"/><path d="M251.03914,67.11094l-4.13467,-4.96775l-5.70345,-3.14841l7.42826,-3.3699l7.864,-3.09952" fill="#feed00" stroke="#000000" stroke-linecap="butt"/><path d="M267.64595,169.03072c1.23392,0.52864 4.67428,0.31329 5.13735,1.85675c1.5531,5.17656 -2.50567,9.75453 -7.34079,8.66616c-3.21967,-0.72473 2.59844,-11.22547 2.59844,-11.22547c0,0 0.60328,-23.74131 3.25192,-35.21314" fill="#ffaf36" stroke="#000000" stroke-linecap="round"/><path d="M294.37516,169.95162c9.71505,-10.58852 8.13164,18.07296 -1.51264,9.89621c-5.22168,-4.42711 1.36594,-8.37839 1.90057,-10.89045c2.52349,-11.85739 -2.31994,-24.64883 1.41786,-36.65682" fill="#ffaf36" stroke="#000000" stroke-linecap="round"/><path d="M255.26388,200.5249c3.57497,-2.79122 7.98047,-2.21466 12.1954,-2.82947c13.59459,-1.98301 28.7372,-0.90626 42.24132,1.44793" fill="none" stroke="#000000" stroke-linecap="round"/><path d="M306.93008,230.82192c0.00008,-8.89933 4.61936,-27.62844 4.61936,-27.62844" fill="none" stroke="#000000" stroke-linecap="round"/><path d="M255.71405,204.78529c-0.10079,8.51511 -4.29714,17.76903 -4.59934,26.26364" fill="none" stroke="#000000" stroke-linecap="round"/><path d="M264.17848,127.97243c-2.6101,-0.94907 -4.35859,-3.54381 -6.74503,-5.01435" fill="none" stroke="#fcec41" stroke-linecap="round"/><path d="M307.0227,126.14686c1.64224,-1.06525 3.17588,-1.90516 5.00475,-2.61173" fill="none" stroke="#fcec41" stroke-linecap="round"/><path d="M278.64307,138.25216l-0.11343,9.58374" fill="none" stroke="#fcec41" stroke-linecap="round"/><path d="M282.11058,141.56617l-0.0581,4.90875" fill="none" stroke="#fcec41" stroke-linecap="round"/><path d="M285.6196,141.37391l0.65698,3.7483" fill="none" stroke="#fcec41" stroke-linecap="round"/><path d="M233.01219,219.98403l18.00479,-37.93234l-12.2428,37.49995z" fill="#fce541" stroke="#fcec41" stroke-linecap="round"/><path d="M233.01219,219.98403l18.00479,-37.93234l-12.2428,37.49995z" fill="#fce541" stroke="#fcec41" stroke-linecap="round"/><path d="M316.15309,216.45065l-2.3526,-30.90261l12.716,25.3055z" fill="#fce541" stroke="#fcec41" stroke-linecap="round"/></g></g></svg>