<svg version="1.1" xmlns="http://www.w3.org/2000/svg" xmlns:xlink="http://www.w3.org/1999/xlink" width="35.17311" height="35.17311" viewBox="0,0,35.17311,35.17311"><g transform="translate(-302.41347,-162.4135)"><g data-paper-data="{&quot;isPaintingLayer&quot;:true}" stroke-miterlimit="10" stroke-dasharray="" stroke-dashoffset="0" style="mix-blend-mode: normal"><path d="M309.98314,162.9135h20.03379c3.9166,0 7.06966,3.15307 7.06966,7.06966v20.03379c0,3.91659 -3.15306,7.06966 -7.06966,7.06966h-20.03379c-3.91659,0 -7.06966,-3.15307 -7.06966,-7.06966v-20.03379c0,-3.91659 3.15307,-7.06966 7.06966,-7.06966z" fill="#000000" fill-rule="evenodd" stroke="#ffffff" stroke-width="1" stroke-linecap="round" stroke-linejoin="round"/><path d="M309.98314,162.9135h20.03378c3.9166,0 7.06966,3.15307 7.06966,7.06966v20.03379c0,3.91659 -3.15306,7.06966 -7.06966,7.06966h-20.03378c-3.91659,0 -7.06967,-3.15307 -7.06967,-7.06966v-20.03379c0,-3.91659 3.15308,-7.06966 7.06967,-7.06966z" fill="#ffeb0f" fill-rule="evenodd" stroke="none" stroke-width="4.43922" stroke-linecap="round" stroke-linejoin="round"/><g fill-rule="nonzero" stroke="none" stroke-width="0.5" stroke-linecap="butt" stroke-linejoin="miter"><path d="M314.17895,170.31347c-0.36484,0.34528 -0.71378,0.11321 -0.83151,0.01436c-0.77328,0.79939 -1.49433,1.63864 -2.25475,2.44913c-0.49192,0.5243 -0.91869,1.107 -1.40623,1.63538c-0.27397,0.29693 -0.96522,0.6907 -0.69622,0.99214c0.35355,0.39619 0.83974,0.64436 1.2838,0.9416c0.09432,-0.09493 0.18314,-0.18687 0.2629,-0.27586c0.80804,-0.90162 1.40763,-1.9698 2.25739,-2.84226c1.09798,-1.12732 2.29578,-2.17409 3.43894,-3.2556c0.06879,-0.06508 0.13452,-0.13505 0.19831,-0.2081c-0.33603,-0.35645 -0.72057,-0.6857 -1.09584,-0.83508c-0.4043,-0.16094 -0.73732,0.19852 -0.97937,0.41746c-0.0439,0.03972 -0.08756,0.07962 -0.13098,0.1197c0.08148,0.10194 0.33793,0.48335 -0.04643,0.84712zM308.474,166.93956c-0.2468,-0.12719 -0.50786,-0.2405 -0.75324,-0.37487l-0.00735,0.024l0.01874,0.04445l-0.01018,0.0043l0.01801,0.01515c0.71238,2.06833 0.90737,4.27176 1.58155,6.31439c0.5229,-0.56463 1.06606,-1.11174 1.56496,-1.68824c0.37384,-0.43198 0.84544,-1.08807 1.38817,-1.72305c-1.25466,-0.89219 -2.46686,-1.92874 -3.80065,-2.61613zM308.3283,173.86717c-0.79404,-2.18593 -0.9765,-4.53975 -1.74085,-6.76839l-0.46843,-1.11074c-0.10476,-0.23305 -0.05707,-0.51656 0.139,-0.70212c0.1705,-0.16136 0.40877,-0.20661 0.61724,-0.13845l1.1699,0.35844l-0.0002,0.00066c0.33611,0.06563 0.66682,0.16666 0.99463,0.33435c1.44236,0.73782 2.73651,1.87349 4.09465,2.81286c0.76528,-0.69771 1.62256,-1.1679 2.51839,-0.91895c0.47447,0.13186 0.83047,0.53071 1.22789,0.82151c0.11376,0.08324 0.22233,0.17324 0.32655,0.26843c0.18083,-0.18114 0.38147,-0.32963 0.62395,-0.40984c2.04422,-0.67621 3.97452,2.20909 5.12869,3.4208c2.8329,2.97439 5.09623,6.44225 7.78969,9.54997c0.74972,0.86503 1.50949,1.69188 2.22394,2.59201c0.3107,0.39145 0.77093,0.7078 0.91791,1.18546c0.3415,1.10979 -1.40239,2.63736 -2.01457,3.37572c-1.62871,2.01254 -3.3294,3.92659 -4.89262,5.99298l-0.66772,0.32581c0,0 -0.28827,0.08735 -0.52323,-0.06121c-0.34737,0.11976 -0.62954,-0.17839 -0.62954,-0.17839c-4.59474,-4.85494 -9.69475,-9.05884 -14.55377,-13.61766c-0.42311,-0.41891 -1.70939,-1.29268 -1.85507,-1.89365c-0.1691,-0.69756 0.18442,-1.31706 0.65161,-1.86328c-0.88205,-0.59984 -2.0368,-1.27881 -1.58462,-2.5206c0.10722,-0.29445 0.33147,-0.52225 0.56254,-0.74559c-0.03849,-0.0627 -0.05595,-0.1101 -0.05595,-0.1101zM318.09022,170.71388c-0.36221,0.3428 -0.70875,0.11653 -0.82892,0.01653c-0.35015,0.33799 -0.72255,0.65418 -1.07613,0.98881c-1.54543,1.4626 -2.92676,2.85138 -4.21253,4.54525c-0.40899,0.5388 -0.90376,1.00675 -1.35162,1.5137c-0.26392,0.29875 -0.82142,0.61145 -0.67963,0.98402c0.11431,0.30036 1.31124,1.13635 1.52578,1.34839c4.86161,4.56429 9.96558,8.77242 14.56662,13.62935c1.5634,-2.06065 3.26104,-3.97495 4.88712,-5.98423c0.45062,-0.54268 0.83523,-1.13817 1.28865,-1.67851c0.16606,-0.19789 0.62038,-0.38375 0.4855,-0.60407c-0.37381,-0.61063 -0.9696,-1.05522 -1.41679,-1.61435c-1.25223,-1.56572 -2.6291,-3.0397 -3.94581,-4.55374c-1.85956,-2.13825 -3.30134,-4.55266 -5.26755,-6.61707c-0.83772,-0.87965 -1.67944,-1.76726 -2.56499,-2.59945c-0.28192,-0.26493 -0.76431,-0.72946 -1.23853,-0.51527c-0.09181,0.04146 -0.16458,0.10693 -0.22778,0.18473c0.00368,0.00481 0.00736,0.00962 0.01103,0.01443l0.06961,0.06806c0,0 0.42469,0.44873 -0.02405,0.87342z" fill="#000000"/><path d="M312.29227,169.55687c-0.54272,0.63499 -1.01956,1.30247 -1.3934,1.73446c-0.4989,0.5765 -1.05277,1.12861 -1.57567,1.69323c-0.67418,-2.04262 -0.87824,-4.27965 -1.59061,-6.34799l-0.01806,-0.01513l0.01025,-0.00432l-0.01874,-0.04445l0.00745,-0.02405c0.24538,0.13437 0.51011,0.24648 0.75691,0.37367c1.33378,0.68739 2.56721,1.74239 3.82187,2.63458z" data-paper-data="{&quot;noHover&quot;:false,&quot;origItem&quot;:[&quot;Path&quot;,{&quot;applyMatrix&quot;:true,&quot;segments&quot;:[[[237.83625,180.70691],[3.77788,1.94699],[-0.69904,-0.36026]],[[235.70273,179.64511],[0.69501,0.38059],[0,0]],[235.6819,179.71311],[235.73499,179.839],[235.70613,179.85117],[[235.75713,179.89409],[0,0],[2.01777,5.85846]],[[240.2368,197.7793],[-1.90958,-5.78564],[1.48108,-1.59928]],[[244.66949,192.99741],[-1.41313,1.63293],[1.05888,-1.22358]],[[248.60141,188.11697],[-1.53723,1.79856],[-3.55377,-2.52708]]],&quot;closed&quot;:true}]}" fill="#dccb0d"/><path d="M314.21731,169.48205c0.04341,-0.04009 0.10348,-0.11125 0.14738,-0.15096c0.24205,-0.21894 0.5773,-0.57698 0.98159,-0.41604c0.37527,0.14938 0.76351,0.48236 1.09954,0.83881c-0.06379,0.07305 -0.1294,0.14318 -0.19819,0.20826c-1.14315,1.08151 -2.35186,2.15584 -3.44984,3.28316c-0.84976,0.87247 -1.46187,1.9385 -2.26991,2.84011c-0.07976,0.089 -0.16886,0.18076 -0.26317,0.27569c-0.44405,-0.29724 -0.9348,-0.54949 -1.28835,-0.94568c-0.269,-0.30144 0.42124,-0.69663 0.69521,-0.99356c0.48753,-0.52839 0.91177,-1.11774 1.40369,-1.64204c0.76042,-0.81048 1.50421,-1.66939 2.27749,-2.46877c0.11773,0.09885 0.47138,0.33322 0.83622,-0.01207c0.38437,-0.36377 0.10982,-0.71495 0.02834,-0.81689z" data-paper-data="{&quot;noHover&quot;:false,&quot;origItem&quot;:[&quot;Path&quot;,{&quot;applyMatrix&quot;:true,&quot;segments&quot;:[[[253.99524,190.26334],[1.0887,-1.03035],[-1.03339,0.97801]],[[251.64003,190.30404],[0.33345,0.27998],[-2.19027,2.26423]],[[245.25356,197.24107],[2.15386,-2.29565],[-1.39335,1.48507]],[[241.27049,201.87323],[1.38092,-1.49664],[-0.77601,0.84104]],[[239.29847,204.68341],[-0.76194,-0.85381],[1.00143,1.12219]],[[242.93478,207.35045],[-1.25777,-0.84192],[0.26715,-0.26888]],[[243.67942,206.56908],[-0.22591,0.25207],[2.28873,-2.55379]],[[250.07338,198.51851],[-2.4069,2.47123],[3.10996,-3.19307]],[[259.81399,189.29717],[-3.23792,3.06332],[0.19485,-0.18434]],[[260.37569,188.70775],[-0.18068,0.20689],[-0.9518,-1.00963]],[[257.27176,186.34243],[1.06295,0.42312],[-1.14516,-0.45585]],[[254.49774,187.52486],[0.68558,-0.62015],[-0.12436,0.11249]],[[254.12676,187.86392],[0.12297,-0.11354],[0.2308,0.28874]]],&quot;closed&quot;:true}]}" fill="#dccb0d"/><path d="M318.11949,169.85732l-0.06956,-0.06808c-0.00367,-0.00481 -0.0179,-0.04332 -0.02158,-0.04812c0.0632,-0.0778 0.13633,-0.14338 0.22814,-0.18484c0.47422,-0.21419 0.9581,0.24998 1.24003,0.5149c0.88556,0.83219 1.73112,1.71947 2.56884,2.59912c1.96621,2.06441 3.42352,4.48887 5.28307,6.62712c1.31671,1.51404 2.69493,2.99916 3.94716,4.56489c0.44718,0.55913 1.04246,1.00567 1.41627,1.61629c0.13488,0.22033 -0.31984,0.40726 -0.4859,0.60514c-0.45342,0.54033 -0.83957,1.1388 -1.29019,1.68148c-1.62608,2.00927 -3.33267,3.93067 -4.89607,5.99132c-4.60104,-4.85692 -9.72829,-9.08471 -14.5899,-13.64901c-0.21455,-0.21204 -1.41116,-1.04952 -1.52546,-1.34989c-0.14179,-0.37257 0.4162,-0.68685 0.68014,-0.9856c0.44786,-0.50695 0.94387,-0.97758 1.35286,-1.51637c1.28578,-1.69386 2.67385,-3.0893 4.21928,-4.55191c0.35358,-0.33463 0.72785,-0.65172 1.07801,-0.98971c0.12018,0.10001 0.4678,0.32587 0.83001,-0.01693c0.44874,-0.42469 0.03487,-0.83982 0.03487,-0.83982z" data-paper-data="{&quot;noHover&quot;:false,&quot;origItem&quot;:[&quot;Path&quot;,{&quot;applyMatrix&quot;:true,&quot;segments&quot;:[[[265.07374,191.39748],[1.27103,-1.20291],[-1.02594,0.97096]],[[262.72584,191.44429],[0.34039,0.28326],[-0.9918,0.95734]],[[259.67775,194.24504],[1.0015,-0.94782],[-4.37736,4.14275]],[[247.74595,207.11923],[3.6419,-4.79779],[-1.15844,1.52612]],[[243.91757,211.40675],[1.26854,-1.43591],[-0.74756,0.8462]],[[241.99254,214.19393],[-0.4016,-1.05528],[0.32377,0.85077]],[[246.31426,218.01317],[-0.6077,-0.6006],[13.77029,12.92816]],[[287.57353,256.61766],[-13.03223,-13.75702],[4.42827,-5.83671]],[[301.41607,239.6676],[-4.6058,5.69117],[1.27634,-1.53712]],[[305.06611,234.9133],[-1.28431,1.53047],[0.47036,-0.56051]],[[306.44129,233.20231],[0.38203,0.62406],[-1.0588,-1.72958]],[[302.42831,228.62973],[1.26662,1.58372],[-3.5469,-4.43485]],[[291.25201,215.73148],[3.7295,4.28844],[-5.26711,-6.05649]],[[276.33191,196.98892],[5.56918,5.84735],[-2.37281,-2.49156]],[[269.0667,189.62611],[2.50829,2.35713],[-0.79853,-0.7504]],[[265.55861,188.16664],[1.34322,-0.60668],[-0.26003,0.11745]],[[264.91343,188.68988],[0.17901,-0.22037],[0.01042,0.01362]],[[264.94467,188.73076],[-0.0104,-0.01363],[0,0]],[265.14186,188.92354]],&quot;closed&quot;:true}]}" fill="#dccb0d"/></g></g></g></svg>