<svg version="1.1" xmlns="http://www.w3.org/2000/svg" xmlns:xlink="http://www.w3.org/1999/xlink" width="148.943" height="267.53755" viewBox="0,0,148.943,267.53755"><defs><linearGradient x1="344.04061" y1="183.8295" x2="325.60075" y2="340.24415" gradientUnits="userSpaceOnUse" id="color-1"><stop offset="0" stop-color="#009bff"/><stop offset="1" stop-color="#6dc9ff"/></linearGradient><linearGradient x1="179.55885" y1="90.08756" x2="179.42653" y2="91.20986" gradientUnits="userSpaceOnUse" id="color-2"><stop offset="0" stop-color="#878787"/><stop offset="1" stop-color="#848484"/></linearGradient><linearGradient x1="325.39465" y1="209.14991" x2="315.07778" y2="296.66196" gradientUnits="userSpaceOnUse" id="color-3"><stop offset="0" stop-color="#8ae8ff"/><stop offset="1" stop-color="#5ec3ff"/></linearGradient></defs><g transform="translate(-269.3559,-80.19214)"><g stroke-miterlimit="10"><g stroke-linecap="butt"><path d="M304.49167,114.34417c5.34742,0.13765 9.42069,4.93555 9.09788,10.71648c-0.32281,5.78088 -4.91943,10.35562 -10.26688,10.21797c-5.34743,-0.13764 -10.98502,-5.0796 -10.66221,-10.8605c0.32281,-5.78088 6.48377,-10.21157 11.8312,-10.07394z" fill="#ffeb00" stroke="#000000" stroke-width="2.5"/><path d="M298.83484,124.35228c-0.08675,0.04742 -0.17248,0.09241 -0.25607,0.13492c0.19947,0.0982 0.34381,0.10818 0.28932,-0.05199c-0.0093,-0.02734 -0.0205,-0.05501 -0.03324,-0.08292zM300.58567,122.1766c2.04962,-0.20195 4.73289,0.62548 6.54944,0.77129c0.01685,-0.07359 0.04068,-0.14667 0.07174,-0.21848c0.27416,-0.6336 1.01003,-0.92495 1.64361,-0.65081c0.08397,0.03634 0.16194,0.08079 0.23336,0.13203c0.02964,-0.00405 0.05899,-0.00671 0.08801,-0.00818c1.4632,-0.20564 2.94857,0.42763 2.50742,2.12572c0.0578,0.14327 0.08049,0.29359 0.05079,0.45448c-0.3624,1.96281 -3.28546,3.18043 -4.5876,1.06115c-0.08146,-0.1326 -0.15108,-0.26212 -0.20962,-0.38849c-1.57403,-0.08526 -3.0461,-0.48078 -4.65592,-0.52518c-0.46865,-0.01293 -0.95506,0.04581 -1.40669,-0.07335c0.20545,0.26642 0.3986,0.52748 0.21612,0.73137c-0.58914,0.65829 -1.57962,0.91566 -2.46026,0.98532c-1.34503,0.10639 -3.15883,-1.22153 -3.32154,-2.60055c-0.30611,-2.59434 4.88757,-5.4499 5.28115,-1.79631z" fill="#000000" stroke="none" stroke-width="0.5"/></g><path d="M314.86448,81.63409c11.54651,1.65505 19.64784,11.78003 18.09481,22.61479c-1.55303,10.83475 -12.17231,18.27635 -23.71883,16.6213c-11.54651,-1.65505 -19.64783,-11.78004 -18.0948,-22.61479c1.55303,-10.83475 12.1723,-18.27635 23.71882,-16.62129z" fill="#00cdff" stroke="#000000" stroke-width="2.5" stroke-linecap="butt"/><path d="M312.62604,87.41128c7.82075,1.12102 13.2215,8.58226 12.06291,16.66515c-1.15858,8.08289 -8.43777,13.72662 -16.25852,12.60561c-7.82075,-1.12102 -13.2215,-8.58226 -12.06291,-16.66515c1.15858,-8.08289 8.43777,-13.72662 16.25852,-12.60561z" fill="#8ae8ff" stroke-opacity="0.5098" stroke="#000000" stroke-width="2.5" stroke-linecap="butt"/><path d="M417.0489,116.57955c-1.55303,10.83475 -12.17231,18.27634 -23.71882,16.62129c-11.54651,-1.65505 -19.64783,-11.78003 -18.0948,-22.61478c1.55303,-10.83475 12.17231,-18.27634 23.71882,-16.62129c11.54651,1.65505 19.64783,11.78003 18.0948,22.61478z" fill="#00cdff" stroke="#000000" stroke-width="2.5" stroke-linecap="butt"/><path d="M407.19769,116.51979c-1.15858,8.0829 -8.43778,13.72662 -16.25852,12.60561c-7.82075,-1.12102 -13.2215,-8.58225 -12.06291,-16.66515c1.15858,-8.0829 8.43778,-13.72662 16.25852,-12.60561c7.82075,1.12102 13.2215,8.58225 12.06291,16.66515z" fill="#8ae8ff" stroke-opacity="0.5098" stroke="#000000" stroke-width="2.5" stroke-linecap="butt"/><path d="M360.24455,181.67391l19.44132,5.56422c0,0 14.19254,8.06672 14.36715,10.39001c0.24309,3.23471 -1.97633,14.16192 -1.97633,14.16192l-0.94455,8.01207l-1.80037,5.66737l-5.7811,-1.38416l-2.93526,5.68986l-14.28135,-3.71359l-11.90636,2.55226l-16.63629,-5.34733l-16.38155,2.09598l-14.7937,-8.97177l-12.46236,0.06537l-6.05731,-8.64536l-3.4054,2.4746l2.46514,-8.90513l4.67051,-8.40384c0,0 1.81375,-8.58614 6.47381,-11.53195c4.39848,-2.78047 20.74718,-5.67556 20.74718,-5.67556l17.79408,0.32854z" fill="#009bff" stroke="#000000" stroke-width="2.5" stroke-linecap="round"/><path d="M270.59462,332.35967c0,0 -1.17064,-8.65448 0.63963,-18.14119c4.20085,-22.01443 24.16962,-111.87118 24.16962,-111.87118c0,0 8.92545,-22.18329 18.15566,-21.23024c9.16635,0.94646 30.85115,3.54652 49.82901,5.50607c20.5837,2.12536 24.12175,27.17265 24.12175,27.17265c0,0 -2.72467,102.45367 -3.87901,122.2462c-0.38132,6.53814 -3.85513,10.36472 -3.85513,10.36472z" fill="url(#color-1)" stroke="#000000" stroke-width="2.5" stroke-linecap="butt"/><path d="M282.03067,187.36721z" fill="url(#color-2)" stroke="#000000" stroke-width="2.5" stroke-linecap="butt"/><path d="M349.30265,257.07226c-1.84604,15.65888 -5.95317,30.18094 -15.07909,36.73504c-4.95778,3.5606 -13.49476,3.66467 -19.14577,2.85467c-6.90134,-0.98922 -14.05531,-3.03447 -18.32755,-9.79751c-5.66524,-8.96819 -7.20457,-24.34821 -5.58043,-38.12484c2.84892,-24.16579 18.17192,-41.8907 34.22487,-39.58969c16.05294,2.30099 26.75691,23.75656 23.90798,47.92235z" fill="url(#color-3)" stroke-opacity="0.5098" stroke="#000000" stroke-width="2.5" stroke-linecap="butt"/><path d="M351.78841,195.50243c-0.57222,4.85382 -8.04336,7.78419 -16.68725,6.5452c-8.64389,-1.239 -15.18728,-6.1782 -14.61506,-11.03201c0.57222,-4.85382 8.04336,-7.78419 16.68725,-6.5452c8.64389,1.239 15.18728,6.1782 14.61506,11.03201z" fill="#00cdff" stroke="#000000" stroke-width="2.5" stroke-linecap="butt"/><path d="M397.4347,157.94817c-5.38966,25.23736 -31.77282,43.76996 -58.51132,38.05971c-26.73851,-5.71024 -43.70703,-33.50097 -38.31737,-58.73833c5.38966,-25.23735 31.43469,-41.06722 58.1732,-35.35697c26.73851,5.71024 44.04518,30.79824 38.65551,56.03559z" fill="#00cdff" stroke="#000000" stroke-width="2.5" stroke-linecap="butt"/><path d="M362.21959,150.59581c-0.34737,2.4234 -6.5804,3.53488 -13.92188,2.48257c-7.34149,-1.05232 -13.01132,-3.86993 -12.66396,-6.29333c0.34737,-2.4234 6.5804,-3.53488 13.92188,-2.48257c7.34149,1.05232 13.01132,3.86993 12.66396,6.29333z" fill-opacity="0.18431" fill="#000000" stroke="none" stroke-width="0" stroke-linecap="butt"/><path d="M332.90663,189.90813c0,0 1.05019,-1.88173 3.23416,-1.56869c4.2994,0.61626 20.85071,5.02097 20.85071,5.02097" fill="none" stroke="#000000" stroke-width="2.5" stroke-linecap="round"/><g stroke-linecap="butt"><path d="M403.14399,131.47762c5.32212,-0.53757 11.79747,3.41949 12.55212,9.15998c0.75465,5.74051 -4.49716,11.09063 -9.81929,11.62819c-5.32213,0.53755 -10.24832,-3.68025 -11.00297,-9.42075c-0.75465,-5.74053 2.94801,-10.82989 8.27012,-11.36746z" fill="#ffeb00" stroke="#000000" stroke-width="2.5"/><path d="M409.53416,141.03418c-0.01061,0.02878 -0.01971,0.0572 -0.02694,0.08516c-0.04234,0.1638 0.10084,0.14305 0.29241,0.03018c-0.08654,-0.03615 -0.1754,-0.07458 -0.26546,-0.11538zM407.62536,138.99567c0.11899,-3.67279 5.51184,-1.21405 5.40081,1.39594c-0.05901,1.38732 -1.76832,2.8473 -3.11754,2.84189c-0.88339,-0.00354 -1.89035,-0.18604 -2.52712,-0.79837c-0.19722,-0.18965 -0.02417,-0.46445 0.16076,-0.74549c-0.44144,0.15263 -0.93087,0.13046 -1.39724,0.17844c-1.60198,0.16479 -3.04032,0.6694 -4.60355,0.87225c-0.04891,0.13039 -0.10864,0.26476 -0.17995,0.40308c-1.13986,2.2108 -4.14584,1.21542 -4.65418,-0.71475c-0.04166,-0.15821 -0.0303,-0.30982 0.01662,-0.457c-0.56703,-1.66029 0.86678,-2.40297 2.34127,-2.30746c0.02904,-0.00072 0.05851,-0.00025 0.08838,0.00157c0.06739,-0.05644 0.1418,-0.1066 0.22282,-0.14912c0.61128,-0.32081 1.36689,-0.08534 1.68772,0.52594c0.03633,0.06927 0.06556,0.14037 0.08788,0.21248c1.80054,-0.2814 4.41435,-1.30737 6.47333,-1.25941z" fill="#000000" stroke="none" stroke-width="0.5"/></g><path d="M329.80124,141.55047c-0.2706,2.0016 -2.27093,3.38343 -4.46779,3.0864c-2.19689,-0.29702 -3.7584,-2.16042 -3.4878,-4.162c0.2706,-2.0016 2.27093,-3.38343 4.46779,-3.0864c2.19689,0.29702 3.75839,2.16042 3.48779,4.16201z" fill="#ffffff" stroke="#000000" stroke-width="2.5" stroke-linecap="butt"/><path d="M377.71407,148.09329c-0.2706,2.0016 -2.27092,3.38343 -4.46779,3.0864c-2.19689,-0.29702 -3.75839,-2.16042 -3.48779,-4.162c0.2706,-2.0016 2.27091,-3.38342 4.46779,-3.08639c2.19689,0.29702 3.75841,2.16041 3.48779,4.16199z" fill="#ffffff" stroke="#000000" stroke-width="2.5" stroke-linecap="butt"/><path d="M318.68345,136.1096c0,0 3.65189,-1.94274 5.44099,-1.71665c1.84615,0.23329 5.47011,3.09548 5.47011,3.09548" fill="none" stroke="#000000" stroke-width="2.5" stroke-linecap="round"/><path d="M365.65181,143.60279c0,0 3.65189,-1.94274 5.44098,-1.71666c1.84615,0.23329 5.47011,3.09548 5.47011,3.09548" fill="none" stroke="#000000" stroke-width="2.5" stroke-linecap="round"/></g></g></svg>