<svg version="1.1" xmlns="http://www.w3.org/2000/svg" xmlns:xlink="http://www.w3.org/1999/xlink" width="224.85163" height="342.92031" viewBox="0,0,224.85163,342.92031"><defs><linearGradient x1="211.39678" y1="349.3806" x2="211.64367" y2="30.61037" gradientUnits="userSpaceOnUse" id="color-1"><stop offset="0" stop-color="#ff0000"/><stop offset="0.333" stop-color="#ffff00"/><stop offset="0.5" stop-color="#00ff00"/><stop offset="0.666" stop-color="#00ffff"/><stop offset="0.833" stop-color="#0000ff"/><stop offset="1" stop-color="#ff00ff"/></linearGradient><linearGradient x1="310.33859" y1="171.23101" x2="311.51053" y2="349.57564" gradientUnits="userSpaceOnUse" id="color-2"><stop offset="0" stop-color="#ffffff"/><stop offset="1" stop-color="#5f5f5f"/></linearGradient><linearGradient x1="392.99239" y1="98.3869" x2="394.42962" y2="141.50376" gradientUnits="userSpaceOnUse" id="color-3"><stop offset="0" stop-color="#4800ff"/><stop offset="1" stop-color="#0038ff"/></linearGradient><linearGradient x1="244.62973" y1="95.54473" x2="243.1925" y2="138.66159" gradientUnits="userSpaceOnUse" id="color-4"><stop offset="0" stop-color="#4800ff"/><stop offset="1" stop-color="#0038ff"/></linearGradient><linearGradient x1="263.49204" y1="86.85687" x2="263.49204" y2="131.0559" gradientUnits="userSpaceOnUse" id="color-5"><stop offset="0" stop-color="#ffffff"/><stop offset="1" stop-color="#ffffff" stop-opacity="0"/></linearGradient><linearGradient x1="375.81916" y1="90.07162" x2="375.81916" y2="134.27064" gradientUnits="userSpaceOnUse" id="color-6"><stop offset="0" stop-color="#ffffff"/><stop offset="1" stop-color="#ffffff" stop-opacity="0"/></linearGradient><linearGradient x1="224.49154" y1="332.52465" x2="226.47303" y2="68.92348" gradientUnits="userSpaceOnUse" id="color-7"><stop offset="0" stop-color="#ff0000"/><stop offset="0.333" stop-color="#ffff00"/><stop offset="0.5" stop-color="#00ff00"/><stop offset="0.666" stop-color="#00ffff"/><stop offset="0.833" stop-color="#0000ff"/><stop offset="1" stop-color="#ff00ff"/></linearGradient></defs><g transform="translate(-205.47471,-17.50717)"><g stroke-miterlimit="10"><path d="M259.84453,341.17642l-3.28077,-147.65179c0,0 7.02525,-24.89308 17.67394,-24.0779c10.57502,0.80954 35.64348,3.1259 57.53784,4.80194c23.74701,1.81787 31.32395,29.56459 31.32395,29.56459l1.26281,152.98014z" fill="url(#color-1)" stroke="#000000" stroke-width="2.5" stroke-linecap="butt"/><path d="M258.61573,339.88762c0,0 -0.43403,-15.33113 -1.4502,-41.73564c-0.43617,-11.33373 -1.71881,-35.49368 -1.90397,-43.60762c-0.44815,-19.63821 -0.0038,-61.80509 -0.0038,-61.80509c0,0 7.2765,-24.77489 18.29633,-23.91577c3.15578,0.24603 7.5588,0.62222 12.7706,1.07541c0.73994,1.07361 -2.46459,1.58109 -2.82082,3.43589c-0.41372,2.15416 1.95913,5.73837 2.23093,8.05159c0.25626,2.18093 3.02157,4.97981 4.13977,5.68031c2.28598,1.43208 6.14839,5.77611 8.77372,6.54788c2.5231,0.74171 15.96844,2.76319 18.57205,2.43379c4.69743,-0.59432 11.50445,-4.65195 12.59131,-9.28305c0.59601,-2.53962 5.34953,-3.64638 4.78345,-6.03222c-0.54145,-2.28204 -6.43224,-5.87083 -4.70533,-7.12417c1.07511,0.08548 2.14487,0.16974 3.20741,0.25259c24.57466,1.91587 32.40883,29.59856 32.40883,29.59856c0,0 -1.51001,65.50049 -1.28424,92.63887c0.08652,10.39904 1.86864,27.0541 2.4239,38.42711c0.67203,13.76465 0.12863,21.38316 0.12863,21.38316c0,0 -42.65251,5.32028 -62.46954,2.38478c-14.6531,-2.17057 -45.68903,-18.40636 -45.68903,-18.40636z" fill="url(#color-2)" stroke="#000000" stroke-width="2.5" stroke-linecap="butt"/><g fill-opacity="0.46667" fill="#000000" stroke="none" stroke-width="0.5" stroke-linecap="butt"><path d="M284.47732,208.30329c0.91632,-0.26151 1.28285,0.69682 1.28285,0.69682l0.17186,0.68112c2.51589,0.8798 4.27158,-1.83714 2.72833,-4.12266c-0.77269,-1.14433 -2.32278,-1.50192 -3.05863,-2.59201c-2.23843,-3.31601 2.53573,-3.73067 4.5597,-3.31181c0,0 0.98201,0.21075 0.88381,1.18151c-0.0982,0.97076 -1.08022,0.76001 -1.08022,0.76001c-0.29107,-0.06536 -0.58056,-0.17257 -0.87322,-0.19609c-0.32052,-0.02575 -0.642,-0.00795 -0.949,0.04963c-2.29807,0.43093 -0.14963,0.81622 1.03238,1.9175c0.88202,0.82177 1.51891,1.66196 1.83916,2.825c1.23919,4.50033 -2.77371,6.6821 -6.45569,4.74919l-0.63112,-1.41837c0,0 -0.36653,-0.95834 0.5498,-1.21985z"/><path d="M301.50572,216.97598c-0.60112,-0.06889 -0.8361,-0.46195 -0.92796,-0.75873c-1.9683,-2.53685 -3.94704,-5.95088 -4.23817,-9.04988c-0.16147,0.16554 -0.315,0.34083 -0.45958,0.52687c0,0 -0.03274,0.04128 -0.09337,0.09521c0.14018,2.03524 0.22318,4.07001 0.37867,6.09541l0.09931,1.00386c0,0 0.0982,0.99327 -0.88381,0.97893c-0.98201,-0.01434 -1.08022,-1.00761 -1.08022,-1.00761l-0.10144,-1.0266c-0.31595,-4.16991 -0.31355,-8.39302 -1.1864,-12.56273c0,0 -0.20679,-0.98871 0.75822,-1.08489c0.96501,-0.09618 1.1718,0.89252 1.1718,0.89252c0.27802,1.33043 0.46977,2.6649 0.612,4.00087c1.41375,-1.14916 3.13903,-1.8556 4.94789,-2.45278l0.56295,-0.09145c0,0 0.95745,-0.12963 1.19681,0.85525c0.23936,0.98488 -0.71808,1.11451 -0.71808,1.11451l-0.24003,0.01727c-1.14876,0.37855 -2.30214,0.79755 -3.32604,1.39236c0.29872,0.32661 0.29872,0.77152 0.29872,0.77152c-0.02557,2.83626 2.14029,6.34431 3.97146,8.63807l0.24419,0.77825c0,0 0,0.98691 -0.98691,0.8738z"/><path d="M305.72138,217.25837c-0.98692,-0.11311 -0.98692,-1.10003 -0.98692,-1.10003l0.0049,-0.20235c-0.33378,-3.37601 -0.83264,-6.85566 -1.49133,-10.21322c0,0 -0.19355,-0.98993 0.7742,-1.07257c0.96775,-0.08264 1.1613,0.90729 1.1613,0.90729c0.66699,3.42221 1.17974,6.96705 1.51986,10.40718l0.0049,0.39988c0,0 0,0.98692 -0.98692,0.87381z"/><path d="M312.50208,216.62827c2.62104,-2.84801 -2.39749,-5.75143 -1.71078,-7.9638c0.37377,-1.20418 3.26702,-0.58924 3.17748,-2.29532c-0.1221,-2.32626 -1.99782,-1.95113 -3.55246,-1.2435c0,0 -0.05574,0.02458 -0.14675,0.04616c0.43746,3.77584 0.63682,7.63105 0.65328,11.36953c0.51081,0.34497 0.76655,0.24186 1.57923,0.08692zM311.9929,202.66555c7.0928,-0.24911 2.5009,6.71093 1.03015,6.88799c0.54399,0.59679 1.46023,1.78752 1.66285,2.40994c0.82907,2.54678 0.63407,4.69907 -1.09082,6.43364c-1.83468,0.42768 -2.543,0.54288 -4.2055,-0.68334l-0.53603,-0.84272c0,0 -0.30204,-0.6387 0.09333,-1.05196c-0.03037,-3.91701 -0.2745,-7.9625 -0.79109,-11.88552c0,0 -0.13044,-0.9932 0.84782,-1.01152c0.33278,-0.00623 0.56744,0.10459 0.73224,0.25354c0.71084,-0.28074 1.47188,-0.48244 2.25705,-0.51002z"/><path d="M318.32984,218.89069c-0.97348,0.05068 -1.13574,-0.94139 -1.13574,-0.94139l-0.11381,-0.77753c0.00166,-4.04628 -0.30111,-8.12527 -0.30111,-12.17961c0,0 0,-0.98691 0.98692,-0.8738c0.98692,0.11311 0.98691,1.10002 0.98691,1.10002c0,4.0548 0.29954,8.13217 0.30112,12.17961l0.08695,0.44995c0,0 0.16224,0.99207 -0.81124,1.04276z"/><path d="M330.31269,222.28488c-0.98692,-0.11311 -0.98692,-1.10003 -0.98692,-1.10003l0.00085,-1.14502c0.07722,-0.92503 0.15254,-1.85742 0.21506,-2.79491c-0.38034,2.14242 -1.63095,3.77138 -4.36641,3.74515l-1.0943,-0.22841c0,0 -0.97755,-0.22065 -0.87243,-1.18488c-0.14565,0.14527 -0.3723,0.24527 -0.72492,0.20486c-0.98692,-0.11311 -0.98692,-1.10002 -0.98692,-1.10002l0.0049,-0.10198c-0.40154,-4.07576 -0.40639,-8.03706 -0.40639,-12.08913c0,0 0,-0.98691 0.98692,-0.8738c0.32684,0.03746 0.54545,0.17076 0.69166,0.33231c0.82831,-0.61717 1.87078,-1.12855 2.95243,-0.55984c1.71855,0.90358 2.42786,3.54429 3.00213,5.14506c0.48515,1.35233 0.85409,2.96845 0.93064,4.52107c0.09235,-2.41384 0.04581,-4.84954 -0.32173,-7.26938c0,0 -0.15006,-0.99264 0.82538,-1.03092c0.97544,-0.03828 1.1255,0.95436 1.1255,0.95436c0.63672,4.23018 0.3614,8.50363 0.01062,12.63852l0.00086,1.06319c0,0 0,0.98692 -0.98692,0.87381zM324.29894,218.8249l0.71241,0.1794c4.65535,0.29756 2.22378,-7.19814 1.18572,-9.72568c-0.13275,-0.32324 -0.62924,-1.75381 -1.13443,-2.10653c-0.43529,-0.30391 -1.54811,0.86132 -1.68042,0.98101c0,0 -0.12085,0.107 -0.31225,0.17589c0.00607,3.42956 0.05176,6.81242 0.39567,10.27937l0.0049,0.29951c0,0 0,0.03943 -0.00788,0.10162c0.32533,-0.29992 0.83629,-0.18458 0.83629,-0.18458z"/><path d="M292.75648,217.89716c0,0.98692 -0.98692,0.8738 -0.98692,0.8738l-0.82766,-0.09776c-1.26241,-0.04826 -2.52952,-0.16883 -3.79741,-0.31299c0.09886,4.00237 0.98953,7.99362 0.99484,11.95586l0.07091,0.17026c0,0 0.23936,0.98488 -0.71809,1.11451c-0.95745,0.12963 -1.1968,-0.85525 -1.1968,-0.85525l-0.12985,-0.65573c0.00583,-3.95562 -0.89623,-7.96286 -0.99498,-11.96632c-0.54417,-0.06676 -1.08811,-0.1332 -1.63152,-0.19548c0,0 -0.98692,-0.11311 -0.98692,-1.10002c0,-0.98692 0.98692,-0.87381 0.98692,-0.87381c2.41494,0.27677 4.8434,0.64424 7.25151,0.73361l0.97905,0.1093c0,0 0.98692,0.11311 0.98692,1.10003z"/><path d="M296.30216,219.64709c-7.20485,2.71807 1.92416,18.05861 2.81515,6.32098c0.14596,-1.46789 -0.00851,-4.55874 -1.62583,-5.32156l-0.36366,-0.07042c0,0 -0.76484,-0.21513 -0.82565,-0.929zM296.97429,218.64362c0.25223,-0.04082 0.47803,0.0227 0.47803,0.0227l0.84081,0.26836c2.48062,1.50513 3.00934,4.8788 2.79057,7.43006c-1.50984,16.62447 -16.72691,-4.02595 -5.53984,-8.62937c0,0 0.88273,-0.34019 1.32409,0.59311c0.05376,0.1137 0.08789,0.21859 0.10634,0.31514z"/><path d="M304.52787,234.73655c-0.93627,0.20479 -1.24836,-0.76725 -1.24836,-0.76725l-0.12156,-0.38778c-1.1825,-4.86995 -0.53133,-9.61936 -0.53133,-14.4528c0,0 0,-0.98692 0.98692,-0.87381c0.98692,0.11311 0.98691,1.10003 0.98691,1.10003c0,4.65906 -0.66866,9.27679 0.4724,13.96733l0.0792,0.23748c0,0 0.31209,0.97204 -0.62418,1.17683z"/><path d="M316.06353,233.1276c0.38876,0.95167 -0.51835,1.23647 -0.51835,1.23647l-0.8317,0.25082c-8.14958,1.22879 -6.97579,-8.97349 -6.04856,-13.96698c0,0 0.17654,-0.95076 1.14754,-0.66294c0.971,0.28783 0.79445,1.23859 0.79445,1.23859c-0.63957,3.44436 -2.46407,12.44052 3.58722,11.42753l0.57352,-0.19037c0,0 0.90712,-0.2848 1.29588,0.66688z"/><path d="M325.0765,227.02135c0,0.98692 -0.98692,0.87381 -0.98692,0.87381l-0.59504,-0.08737c-1.72786,-0.55292 -3.57094,-0.61512 -5.34365,-0.79648c0.00844,1.56207 0.37903,2.91033 0.7708,4.47526c0.12256,0.48955 0.25218,1.76671 0.90494,2.04176c0.79315,0.33421 1.69263,-0.02038 2.39083,-0.22303l0.1202,-0.0918c0,0 0.82117,-0.45333 1.36861,0.43058c0.54744,0.88391 -0.27372,1.33723 -0.27372,1.33723l-0.48203,0.24068c-1.1832,0.33285 -2.53747,0.72457 -3.83228,0.0675c-2.5204,-1.279 -2.93589,-6.37111 -2.94129,-8.58546c-0.00433,-1.77524 -0.34639,-4.37372 1.28068,-5.44727c1.47112,-0.97065 3.76296,-0.14657 5.36572,0.43364c0,0 0.95745,0.34909 0.71809,1.27911c-0.23936,0.93002 -1.19682,0.58093 -1.19682,0.58093c-0.89905,-0.33046 -2.78339,-1.15496 -3.66781,-0.60166c-0.49804,0.31157 -0.60885,1.19411 -0.60692,2.08073c1.93587,0.20744 3.91352,0.29841 5.81175,0.88715l0.20794,0.00467c0,0 0.98692,0.11311 0.98692,1.10002z"/><path d="M330.22329,237.38027c-0.93627,0.20479 -1.24836,-0.76725 -1.24836,-0.76725l-0.10737,-0.33528c-1.20523,-4.06146 -2.04652,-8.14071 -0.1402,-11.78867c0,0 0.44136,-0.83215 1.32408,-0.28962c0.88272,0.54252 0.44137,1.37467 0.44137,1.37467c-1.70358,3.15416 -0.78247,6.83321 0.2613,10.33935l0.09336,0.28997c0,0 0.31209,0.97204 -0.62417,1.17683z"/><path d="M335.90683,225.29058c-0.13957,0.96099 -1.11656,0.70946 -1.11656,0.70946l-0.82272,-0.21952c-2.2185,-0.86865 -4.88147,-1.44799 -7.17892,-1.49464c0,0 -0.98286,-0.02329 -1.07221,-1.01639c-0.08935,-0.9931 0.89351,-0.96981 0.89351,-0.96981c2.54424,0.06773 5.41481,0.69125 7.87698,1.63609l0.5825,0.14227c0,0 0.97699,0.25154 0.83742,1.21254z"/></g><path d="M330.77793,80.56477c0,0 73.57198,26.94873 89.03857,32.61399c5.45003,1.9963 9.42494,8.94198 9.42494,8.94198c0,0 -3.20802,-3.92891 -9.78457,-2.48779c-9.53499,2.0894 -22.72278,5.18288 -30.11235,7.7999c-11.36913,4.02638 -30.35341,15.25219 -30.35341,15.25219z" fill="url(#color-3)" stroke="#000000" stroke-width="2.5" stroke-linecap="butt"/><path d="M278.63101,139.84287c0,0 -17.53189,-12.05241 -28.78594,-16.03803c-6.86356,-2.43073 -19.09171,-5.01694 -28.77349,-6.86312c-8.03851,-1.53283 -11.0601,0.70606 -11.0601,0.70606c0,0 3.67396,-5.8963 9.94082,-8.277c15.49417,-5.88603 80.70278,-30.65792 80.70278,-30.65792z" fill="url(#color-4)" stroke="#000000" stroke-width="2.5" stroke-linecap="butt"/><path d="M266.28216,126.66121c-0.69033,0.94166 -3.09579,1.40246 -5.01149,1.97611c-0.31388,0.09399 -1.8601,0.60386 -2.62268,0.42726c-1.82889,-0.42355 -1.33578,-1.92723 -3.92527,-2.53979c-2.59512,-0.61391 -5.0499,-0.00979 -7.53088,-0.63079c-2.35931,-0.59054 -1.88226,-1.96368 -4.20585,-2.58426c-2.3314,-0.62266 -5.58,0.15265 -7.17004,-0.69451c-3.69161,-1.96685 -4.17668,-3.87849 1.64138,-3.86767" fill="#211fff" stroke-opacity="0.4902" stroke="#000000" stroke-width="2.5" stroke-linecap="round"/><path d="M402.25143,119.5508c5.78235,-0.7815 5.50907,0.86202 2.0543,2.97692c-1.48803,0.91093 -4.80207,0.70184 -7.05159,1.52577c-2.24198,0.82116 -1.61771,1.8921 -3.89848,2.6932c-2.39839,0.84241 -4.90462,0.66934 -7.41725,1.52105c-2.50718,0.84986 -1.85267,2.02648 -3.62442,2.61921c-0.73876,0.24715 -2.33151,0.03129 -2.6538,-0.00467c-1.96702,-0.21949 -4.40855,-0.28072 -5.19769,-0.96691" fill="#211fff" stroke-opacity="0.4902" stroke="#000000" stroke-width="2.5" stroke-linecap="round"/><path d="M281.5162,131.0559c0,0 -12.67614,-8.71429 -20.81319,-11.59602c-9.08288,-3.2167 -31.15924,-6.80999 -31.15924,-6.80999l67.89656,-25.79301z" fill="url(#color-5)" stroke-opacity="0.50196" stroke="#000000" stroke-width="2.5" stroke-linecap="butt"/><path d="M340.98826,90.07162l69.66178,25.79301c0,0 -22.65032,3.59329 -31.96934,6.80999c-8.34861,2.88174 -21.35431,11.59602 -21.35431,11.59602z" fill="url(#color-6)" stroke-opacity="0.50196" stroke="#000000" stroke-width="2.5" stroke-linecap="butt"/><path d="M363.01944,130.85074c-1.94104,28.48816 -27.92848,52.9286 -58.11114,50.8721c-30.18266,-2.05649 -53.13099,-29.83117 -51.18995,-58.31932c1.94104,-28.48815 27.98246,-49.91526 58.16512,-47.85875c30.18266,2.05649 53.07703,26.81782 51.13599,55.30597z" fill="url(#color-7)" stroke="#000000" stroke-width="2.5" stroke-linecap="butt"/><path d="M288.98208,117.02963c-1.1366,6.4788 -7.23799,10.82217 -13.62785,9.70118c-6.38986,-1.12099 -10.64846,-7.28185 -9.51186,-13.76066c1.1366,-6.4788 7.23799,-10.82215 13.62786,-9.70116c6.38986,1.12099 10.64846,7.28184 9.51187,13.76064z" fill="#ffffff" stroke="#000000" stroke-width="2.5" stroke-linecap="butt"/><path d="M340.67703,127.03887c-1.1366,6.4788 -7.23799,10.82217 -13.62785,9.70118c-6.38986,-1.12099 -10.64846,-7.28185 -9.51186,-13.76066c1.1366,-6.4788 7.23798,-10.82215 13.62786,-9.70116c6.38986,1.12099 10.64846,7.28184 9.51187,13.76064z" fill="#ffffff" stroke="#000000" stroke-width="2.5" stroke-linecap="butt"/><path d="M316.39662,166.26752l-19.05147,6.51996l-12.68735,-16.15948z" fill="#00eaff" stroke="#000000" stroke-width="2.5" stroke-linecap="butt"/><g stroke="#000000" stroke-width="2.5"><g stroke-linecap="butt"><path d="M279.81178,79.4154l39.56433,-47.40831l20.16287,58.36688c0,0 -2.73244,2.15698 -10.69201,2.35001c-6.74236,0.16351 -18.39614,-1.53684 -23.26321,-2.42984c-4.16824,-0.76477 -13.66123,-3.79171 -18.70378,-6.12542c-5.8989,-2.73004 -7.06819,-4.7533 -7.06819,-4.7533z" fill="#ffffff"/><path d="M316.08475,57.35265c-0.76402,3.48289 -4.09824,5.71078 -7.44717,4.97614c-3.34892,-0.73464 -5.44442,-4.15362 -4.68039,-7.6365c0.76402,-3.48289 4.09824,-5.71079 7.44718,-4.97615c3.34893,0.73464 5.44442,4.15362 4.68038,7.63652z" fill="#1dff00"/><path d="M329.16407,79.81816c-0.76402,3.48289 -4.09824,5.7108 -7.44718,4.97616c-3.34892,-0.73464 -5.44443,-4.15363 -4.68039,-7.63653c0.76402,-3.48289 4.09824,-5.71078 7.44718,-4.97614c3.34893,0.73464 5.44442,4.15362 4.68039,7.6365z" fill="#fa00ff"/><path d="M301.55747,80.11782c-0.76402,3.48289 -4.09824,5.71079 -7.44718,4.97615c-3.34892,-0.73464 -5.44442,-4.15363 -4.68039,-7.63651c0.76402,-3.48289 4.09824,-5.71079 7.44718,-4.97615c3.34893,0.73464 5.44442,4.15362 4.68039,7.63651z" fill="#0007ff"/></g><path d="M332.63755,36.36643l-29.65848,-7.44009" fill="none" stroke-linecap="round"/><path d="M329.59026,43.87087l-10.36904,-10.21401l2.33443,-14.89969" fill="none" stroke-linecap="round"/><path d="M318.33005,33.46138l-11.8396,3.94113" fill="none" stroke-linecap="round"/></g><path d="M279.15497,129.30041l-15.81944,-7.23309" fill="none" stroke="#000000" stroke-width="2.5" stroke-linecap="round"/><path d="M343.77936,137.85153l-22.06624,-1.27075" fill="none" stroke="#000000" stroke-width="2.5" stroke-linecap="round"/></g></g></svg>