<svg version="1.1" xmlns="http://www.w3.org/2000/svg" xmlns:xlink="http://www.w3.org/1999/xlink" width="120.90503" height="320.76491" viewBox="0,0,120.90503,320.76491"><defs><linearGradient x1="319.67928" y1="169.19391" x2="319.67928" y2="348.03847" gradientUnits="userSpaceOnUse" id="color-1"><stop offset="0" stop-color="#d0d0d0"/><stop offset="1" stop-color="#8a8a8a"/></linearGradient><linearGradient x1="284.46912" y1="160.49033" x2="284.46912" y2="347.53664" gradientUnits="userSpaceOnUse" id="color-2"><stop offset="0" stop-color="#d1b16d"/><stop offset="1" stop-color="#945d00"/></linearGradient><linearGradient x1="353.88096" y1="161.43938" x2="353.88096" y2="348.4857" gradientUnits="userSpaceOnUse" id="color-3"><stop offset="0" stop-color="#d1b16d"/><stop offset="1" stop-color="#945d00"/></linearGradient></defs><g transform="translate(-259.84634,-32.12154)"><g stroke-miterlimit="10"><path d="M276.24007,344.39985l-1.9552,-147.27579c0,0 6.0833,-25.69821 15.08987,-26.10344c8.94426,-0.40242 30.14472,-0.95905 48.66278,-1.79223c20.08501,-0.90368 27.03616,16.2629 27.03616,16.2629l-0.47576,162.54719z" fill="url(#color-1)" stroke="#000000" stroke-width="2.5" stroke-linecap="butt"/><path d="M263.27913,343.73115l-2.18137,-141.75369c0,0 2.55461,-17.19302 6.94808,-17.61683c4.36308,-0.42087 25.26692,-16.36148 34.30017,-17.23287c9.79763,-0.94512 -8.71001,19.10912 -8.71001,19.10912c0,0 1.04378,30.56597 2.37029,59.55455c0.7189,15.71033 1.52085,30.95736 2.28469,40.62468c2.06994,26.19743 8.0898,61.12053 8.0898,61.12053c0,0 -25.42129,2.47305 -33.07995,1.79685c-6.52675,-0.57626 -10.02171,-5.60235 -10.02171,-5.60235z" fill="url(#color-2)" stroke="#000000" stroke-width="2.5" stroke-linecap="butt"/><path d="M333.39394,351.63646c0,0 5.62846,-35.78872 7.56382,-62.2838c2.03198,-27.8179 4.35233,-100.84859 4.35233,-100.84859c0,0 -17.3043,-17.39295 -8.1437,-17.85667c8.44593,-0.42754 29.35126,7.891 33.43066,7.68449c4.10782,-0.20794 8.89833,19.77368 8.89833,19.77368l-5.80218,143.52764c0,0 0.78193,6.13095 -5.24804,7.62773c-7.19593,1.7862 -35.05121,2.37552 -35.05121,2.37552z" fill="url(#color-3)" stroke="#000000" stroke-width="2.5" stroke-linecap="butt"/><path d="M333.1569,180.00006c0,6.21464 -5.89054,11.2526 -13.15688,11.2526c-7.26635,0 -13.15688,-5.03796 -13.15688,-11.2526c0,-6.21464 5.89054,-11.2526 13.15688,-11.2526c7.26635,0 13.15688,5.03796 13.15688,11.2526z" fill="#ffd300" stroke="#000000" stroke-width="2.5" stroke-linecap="butt"/><path d="M334.62667,231.27168l-27.00476,-0.26475" fill="none" stroke="#000000" stroke-width="2.5" stroke-linecap="round"/><path d="M320.59479,220.41682v25.1515l-0.42091,99.60416" fill="none" stroke="#000000" stroke-width="2.5" stroke-linecap="round"/><path d="M330.6554,219.88732l-9.26634,9.26634" fill="none" stroke="#000000" stroke-width="2.5" stroke-linecap="round"/><path d="M328.80213,239.21425l-9.00159,-8.20733l-9.00159,-9.79585" fill="none" stroke="#000000" stroke-width="2.5" stroke-linecap="round"/><path d="M320.85954,231.00693l-9.00159,9.79585" fill="none" stroke="#000000" stroke-width="2.5" stroke-linecap="round"/><path d="M344.95204,231.50701l1.85327,-12.70812l14.82615,1.32376v10.85486" fill="none" stroke="#000000" stroke-width="2.5" stroke-linecap="round"/><path d="M354.21838,236.56673l-5.0303,112.38782" fill="none" stroke="#000000" stroke-width="2.5" stroke-linecap="round"/><path d="M290.413,346.57177l-6.35406,-112.2551" fill="none" stroke="#000000" stroke-width="2.5" stroke-linecap="round"/><path d="M279.55815,234.05191l-0.79426,-9.53109l11.64911,0.26475l1.32376,11.11961" fill="none" stroke="#000000" stroke-width="2.5" stroke-linecap="round"/><path d="M373.78687,134.86327c-0.1904,2.7945 0.01309,5.17488 -0.62134,7.87029c-0.69072,2.93456 -2.25877,6.17301 -3.42941,8.93766c-1.17534,2.77576 -1.32984,5.32704 -2.94013,7.87628c-1.1624,1.84018 -3.68229,3.7392 -5.04936,5.43652c-1.93225,2.39902 -3.0593,4.64494 -5.35607,6.70836c-1.69047,1.51872 -4.47306,2.93858 -6.33655,4.24786c-2.96785,2.08519 -5.26661,3.76485 -8.60518,5.24171c-2.59483,1.14786 -6.16438,2.22275 -8.9382,2.95229c-3.22568,0.8484 -5.93383,1.39891 -9.34408,1.61659c-2.25783,0.14412 -5.17461,0.14235 -7.49082,-0.01547c-3.31838,-0.22609 -5.54887,0.61254 -8.6689,-0.20206c-2.11028,-0.55097 -5.17026,-2.60456 -7.1718,-3.39927c-3.84746,-1.52763 -7.10545,-1.61075 -10.47275,-3.92799c-1.13385,-0.78027 -2.61273,-3.477 -3.68432,-4.33573c-1.78636,-1.43151 -4.48391,-2.96817 -6.08267,-4.59705c-1.728,-1.76056 -2.34065,-3.62886 -3.82733,-5.58859c-2.30873,-3.04336 -3.18709,-6.30723 -4.84293,-9.73052c-1.90967,-3.94804 -4.48195,-8.10813 -5.39972,-12.38656c-0.99072,-4.61855 -0.23948,-8.87479 0.08597,-13.65131c0.29244,-4.29207 0.27406,-8.54893 1.49242,-12.46429c1.05717,-3.39736 2.1054,-7.00692 3.92567,-10.04167c1.03393,-1.72377 2.73731,-3.38312 4.04451,-4.97133c1.77894,-2.16138 3.25034,-4.19101 5.25032,-6.07194c1.71289,-1.61093 3.0378,-3.613 4.96224,-4.99514c2.46219,-1.76836 5.58716,-2.84052 8.34737,-4.19464c2.91935,-1.43219 4.86473,-3.12044 8.05507,-4.03793c1.88588,-0.54234 4.93901,-0.48994 6.90175,-0.83777c2.62768,-0.46567 4.56799,-1.50246 7.30569,-1.59665c1.97884,-0.06808 4.73258,0.71462 6.75459,0.8524c0.83348,0.05679 2.53679,-0.86955 3.35878,-0.77853c1.89371,0.20968 2.88056,1.50958 4.70683,1.89392c1.29883,0.27334 2.70452,-0.16072 3.96534,0.19673c2.37747,0.67404 4.55941,2.24482 6.78501,3.19989c7.45009,3.19706 13.86325,4.90136 19.08083,10.67346c2.20948,2.4443 4.30719,8.08116 6.01199,10.87439c1.75341,2.87287 2.8483,4.66199 4.00124,7.83192c0.90217,2.48048 1.98534,6.29128 2.48298,8.9138c0.50099,2.64017 1.03889,2.84234 1.09698,5.59088c0.0308,1.45763 -0.25311,5.42908 -0.35398,6.90949z" fill="#ffd300" stroke="#000000" stroke-width="2.5" stroke-linecap="butt"/><path d="M349.6132,128.24701c0,2.23487 -1.98847,4.04658 -4.44137,4.04658c-2.4529,0 -4.44137,-1.81172 -4.44137,-4.04658c0,-2.23486 1.98847,-4.04658 4.44137,-4.04658c2.4529,0 4.44137,1.81172 4.44137,4.04658z" fill="#ffffff" stroke="#000000" stroke-width="2.5" stroke-linecap="butt"/><path d="M333.97103,138.23737c0,2.70884 -6.65243,4.90479 -14.85862,4.90479c-8.2062,0 -14.85862,-2.19595 -14.85862,-4.90479c0,-2.70884 6.65243,-4.90479 14.85862,-4.90479c8.2062,0 14.85862,2.19595 14.85862,4.90479z" fill-opacity="0.18431" fill="#ff0505" stroke="none" stroke-width="0" stroke-linecap="butt"/><path d="M330.59137,126.83838c0,0 9.58791,-3.0507 14.59977,-3.0507c1.86694,0 4.4898,0.42332 7.04636,0.95457c4.3066,0.89491 8.42505,2.09613 8.42505,2.09613" fill="none" stroke="#000000" stroke-width="2.5" stroke-linecap="round"/><path d="M324.29195,100.98924c0,11.47637 -4.47343,20.7798 -4.47343,20.7798c0,0 -5.91647,-9.30343 -5.91647,-20.7798c0,-7.28624 -3.68021,-14.85103 -2.26137,-18.56071c0.81594,-2.13334 6.40879,-2.21909 7.45632,-2.21909c1.57356,0 6.87993,-1.24204 7.83259,3.17856c0.78434,3.63953 -2.63764,12.41912 -2.63764,17.60124z" fill-opacity="0.18431" fill="#ff0505" stroke="none" stroke-width="0" stroke-linecap="butt"/><path d="M334.97047,81.96481l15.87346,-42.13683" fill="none" stroke="#000000" stroke-width="2.5" stroke-linecap="round"/><path d="M303.15143,81.37726l-8.94686,-40.40518" fill="none" stroke="#000000" stroke-width="2.5" stroke-linecap="round"/><path d="M297.16742,37.12331c0,2.07205 -1.70972,3.75178 -3.81877,3.75178c-2.10905,0 -3.81877,-1.67973 -3.81877,-3.75178c0,-2.07205 1.70972,-3.75177 3.81877,-3.75177c2.10905,0 3.81877,1.67973 3.81877,3.75177z" fill="#ffd300" stroke="#000000" stroke-width="2.5" stroke-linecap="butt"/><path d="M355.05194,37.12331c0,2.07205 -1.70972,3.75178 -3.81877,3.75178c-2.10905,0 -3.81877,-1.67973 -3.81877,-3.75178c0,-2.07205 1.70972,-3.75177 3.81877,-3.75177c2.10905,0 3.81877,1.67973 3.81877,3.75177z" fill="#ffd300" stroke="#000000" stroke-width="2.5" stroke-linecap="butt"/><path d="M297.16472,132.65228c0,14.91637 -3.44214,27.00847 -3.44214,27.00847c0,0 -4.55251,-12.0921 -4.55251,-27.00846c0,-9.47026 -2.83179,-19.30257 -1.74005,-24.12421c0.62784,-2.7728 4.93133,-2.88425 5.73737,-2.88425c1.2108,0 5.29386,-1.61434 6.0269,4.13132c0.60352,4.73046 -2.02957,16.1417 -2.02957,22.87714z" fill-opacity="0.18431" fill="#ff0505" stroke="none" stroke-width="0" stroke-linecap="butt"/><path d="M297.43593,128.57665c0,2.23486 -1.98847,4.04658 -4.44137,4.04658c-2.4529,0 -4.44137,-1.81172 -4.44137,-4.04658c0,-2.23487 1.98847,-4.04659 4.44137,-4.04659c2.4529,0 4.44137,1.81172 4.44137,4.04659z" fill="#ffffff" stroke="#000000" stroke-width="2.5" stroke-linecap="butt"/><path d="M278.29366,126.40256c0,0 9.58791,-3.0507 14.59977,-3.0507c1.86694,0 4.4898,0.42332 7.04636,0.95457c4.3066,0.89491 8.42505,2.09613 8.42505,2.09613" fill="none" stroke="#000000" stroke-width="2.5" stroke-linecap="round"/><path d="M335.92068,173.56046c0,0 -2.70816,2.01853 -5.26239,1.38549c-1.22005,-0.30238 -2.59251,-0.62367 -3.98463,-0.91295c-2.55656,-0.53125 -5.38491,1.10037 -7.25185,1.10037c-2.08139,0 -4.7465,-1.5288 -7.39184,-0.91351c-1.41429,0.32895 -2.76419,0.68338 -3.89467,0.99651c-1.84661,0.51149 -4.95721,-0.52569 -4.95721,-0.52569" fill="none" stroke="#000000" stroke-width="2.5" stroke-linecap="round"/><path d="M349.61321,128.24701c0,2.23487 -1.98847,4.04658 -4.44137,4.04658c-2.4529,0 -4.44137,-1.81172 -4.44137,-4.04658c0,-2.23486 1.98847,-4.04658 4.44137,-4.04658c2.4529,0 4.44137,1.81172 4.44137,4.04658z" fill="#ffffff" stroke="#000000" stroke-width="2.5" stroke-linecap="butt"/><path d="M297.43593,128.57665c0,2.23486 -1.98847,4.04658 -4.44137,4.04658c-2.4529,0 -4.44137,-1.81172 -4.44137,-4.04658c0,-2.23487 1.98847,-4.04659 4.44137,-4.04659c2.4529,0 4.44137,1.81172 4.44137,4.04659z" fill="#ffffff" stroke="#000000" stroke-width="2.5" stroke-linecap="butt"/><path d="M335.92069,173.56046c0,0 -2.70816,2.01853 -5.26239,1.38549c-1.22005,-0.30238 -2.59251,-0.62367 -3.98463,-0.91295c-2.55656,-0.53125 -5.38491,1.10037 -7.25185,1.10037c-2.08139,0 -4.7465,-1.5288 -7.39184,-0.91351c-1.41429,0.32895 -2.76419,0.68338 -3.89467,0.99651c-1.84661,0.51149 -4.95721,-0.52569 -4.95721,-0.52569" fill="none" stroke="#000000" stroke-width="2.5" stroke-linecap="round"/></g></g></svg>