<svg version="1.1" xmlns="http://www.w3.org/2000/svg" xmlns:xlink="http://www.w3.org/1999/xlink" width="232.93745" height="342.88989" viewBox="0,0,232.93745,342.88989"><defs><linearGradient x1="402.79696" y1="95.66551" x2="403.92699" y2="138.79151" gradientUnits="userSpaceOnUse" id="color-1"><stop offset="0" stop-color="#1e006b"/><stop offset="1" stop-color="#0038ff"/></linearGradient><linearGradient x1="240.71342" y1="95.74067" x2="238.96906" y2="138.8462" gradientUnits="userSpaceOnUse" id="color-2"><stop offset="0" stop-color="#210073"/><stop offset="1" stop-color="#0038ff"/></linearGradient><linearGradient x1="324.27105" y1="166.49274" x2="323.61046" y2="259.21709" gradientUnits="userSpaceOnUse" id="color-3"><stop offset="0" stop-color="#2dff00"/><stop offset="1" stop-color="#000000"/></linearGradient><linearGradient x1="323.81036" y1="167.90787" x2="323.7127" y2="346.12202" gradientUnits="userSpaceOnUse" id="color-4"><stop offset="0" stop-color="#dadada"/><stop offset="1" stop-color="#1a1a1a"/></linearGradient><linearGradient x1="259.63712" y1="87.18741" x2="259.32225" y2="131.38531" gradientUnits="userSpaceOnUse" id="color-5"><stop offset="0" stop-color="#ffffff"/><stop offset="1" stop-color="#ffffff" stop-opacity="0"/></linearGradient><linearGradient x1="385.68341" y1="87.2281" x2="385.36854" y2="131.426" gradientUnits="userSpaceOnUse" id="color-6"><stop offset="0" stop-color="#ffffff"/><stop offset="1" stop-color="#ffffff" stop-opacity="0"/></linearGradient><linearGradient x1="236.48542" y1="329.26734" x2="240.34475" y2="65.68697" gradientUnits="userSpaceOnUse" id="color-7"><stop offset="0" stop-color="#ff0000"/><stop offset="0.333" stop-color="#ffff00"/><stop offset="0.5" stop-color="#00ff00"/><stop offset="0.666" stop-color="#00ffff"/><stop offset="0.833" stop-color="#0000ff"/><stop offset="1" stop-color="#ff00ff"/></linearGradient><linearGradient x1="322.19246" y1="72.75504" x2="321.43422" y2="179.18794" gradientUnits="userSpaceOnUse" id="color-8"><stop offset="0" stop-color="#000000" stop-opacity="0.39608"/><stop offset="1" stop-color="#000000" stop-opacity="0"/></linearGradient><linearGradient x1="322.74444" y1="27.44694" x2="322.31841" y2="87.24815" gradientUnits="userSpaceOnUse" id="color-9"><stop offset="0" stop-color="#5b5b5b"/><stop offset="1" stop-color="#ffffff"/></linearGradient></defs><g transform="translate(-205.93856,-12.77129)"><g stroke-miterlimit="10"><path d="M340.71105,77.40062c0,0 73.37813,27.47217 88.80397,33.24747c5.43567,2.03508 9.361,9.0089 9.361,9.0089c0,0 -3.17995,-3.95166 -9.7666,-2.55743c-9.54963,2.02142 -22.75913,5.02087 -30.16715,7.58518c-11.39753,3.94528 -30.4613,15.03557 -30.4613,15.03557z" fill="url(#color-1)" stroke="#000000" stroke-width="0" stroke-linecap="butt"/><path d="M274.39824,140.27991c0,0 -17.44558,-12.177 -28.67095,-16.24269c-6.84607,-2.47956 -19.05548,-5.15282 -28.72387,-7.06793c-8.02739,-1.59006 -11.06485,0.62725 -11.06485,0.62725c0,0 3.71587,-5.86998 9.99953,-8.20597c15.53571,-5.7755 80.91914,-30.08222 80.91914,-30.08222z" fill="url(#color-2)" stroke="#000000" stroke-width="0" stroke-linecap="butt"/><path d="M273.00669,256.96986l-0.2692,-56.47195c0,0 -0.06078,-12.35077 0.8635,-13.26486c2.83501,-2.80371 7.68885,-16.68552 15.72031,-16.78676c10.57624,-0.13332 37.27686,-0.23173 59.17374,-0.50775c23.74975,-0.29938 23.6305,27.00968 23.6305,27.00968l5.38283,62.65285z" fill="url(#color-3)" stroke="#000000" stroke-width="0" stroke-linecap="butt"/><path d="M270.84506,342.11931c0,0 -0.32515,-15.2841 -1.15402,-41.57873c-0.35577,-11.28656 -1.46731,-35.30803 -1.59482,-43.40186c-0.3086,-19.58955 0.4365,-61.80311 0.4365,-61.80311c0,0 7.45874,-25.55633 18.48118,-25.88164c3.15652,-0.09316 7.56035,-0.19021 12.77305,-0.29719c0.73288,0.99406 -2.4778,1.84595 -2.84754,3.73898c-0.42939,2.19857 1.9198,5.52766 2.17534,7.8116c0.24093,2.15333 2.98848,4.65493 4.10258,5.23523c2.27759,1.18635 6.1121,5.11514 8.73401,5.60472c2.51981,0.47051 15.9614,1.04686 18.5694,0.43763c4.70538,-1.09918 11.54669,-5.88832 12.66739,-10.63613c0.61457,-2.60362 5.37974,-4.22124 4.83021,-6.54619c-0.52562,-2.22379 -6.3955,-5.17935 -4.6583,-6.61827c1.07535,-0.03007 2.14535,-0.06079 3.20815,-0.09215c24.58045,-0.72544 32.22362,26.11455 32.22362,26.11455c0,0 -1.97784,65.66113 -1.94521,92.77455c0.01251,10.38947 1.67739,26.85257 2.15206,38.16562c0.5745,13.69207 -0.0236,21.36878 -0.0236,21.36878c0,0 -42.72415,9.9044 -62.53595,9.09888c-14.64923,-0.59562 -45.59405,-13.49527 -45.59405,-13.49527z" fill="url(#color-4)" stroke="#000000" stroke-width="0" stroke-linecap="butt"/><path d="M262.1436,127.01061c-0.69702,0.93672 -3.1057,1.38037 -5.02544,1.94036c-0.31454,0.09175 -1.86435,0.59059 -2.62566,0.40857c-1.82583,-0.43657 -1.32202,-1.9367 -3.90708,-2.56769c-2.59068,-0.63238 -5.0497,-0.04577 -7.5262,-0.68442c-2.35504,-0.60733 -1.86822,-1.97704 -4.18733,-2.61416c-2.32691,-0.63925 -5.58095,0.11289 -7.16491,-0.74557c-3.6775,-1.9931 -4.14894,-3.90815 1.66889,-3.85588" fill="#211fff" stroke-opacity="0.4902" stroke="#000000" stroke-width="2.5" stroke-linecap="round"/><path d="M411.905,116.89483c5.78777,-0.74029 5.50279,0.90124 2.03304,2.99148c-1.49448,0.90031 -4.80695,0.66761 -7.06228,1.4755c-2.24777,0.80517 -1.63115,1.88053 -3.91757,2.66536c-2.40433,0.8253 -4.90926,0.63438 -7.4279,1.46817c-2.51317,0.83198 -1.86706,2.01323 -3.64299,2.59332c-0.7405,0.24188 -2.33167,0.01468 -2.6537,-0.02358c-1.96541,-0.2335 -4.40644,-0.31212 -5.19067,-1.00391" fill="#211fff" stroke-opacity="0.4902" stroke="#000000" stroke-width="2.5" stroke-linecap="round"/><path d="M277.34596,131.51372c0,0 -12.61374,-8.80437 -20.73005,-11.744c-9.05973,-3.28132 -31.10994,-7.03179 -31.10994,-7.03179l68.07859,-25.30866z" fill="url(#color-5)" stroke-opacity="0.50196" stroke="#000000" stroke-width="0" stroke-linecap="butt"/><path d="M350.85339,86.97996l69.47626,26.28862c0,0 -22.67534,3.43184 -32.01704,6.58207c-8.36893,2.82219 -21.43638,11.4436 -21.43638,11.4436z" fill="url(#color-6)" stroke-opacity="0.50196" stroke="#000000" stroke-width="0" stroke-linecap="butt"/><path d="M376.44652,128.58541c-2.14394,28.47361 -28.30483,52.72829 -58.47208,50.45683c-30.16724,-2.27146 -52.91713,-30.20892 -50.77319,-58.68252c2.14394,-28.4736 28.33735,-49.71465 58.50459,-47.44317c30.16724,2.27146 52.88463,27.19526 50.74069,55.66886z" fill="url(#color-7)" stroke="#000000" stroke-width="0" stroke-linecap="butt"/><path d="M376.44652,128.58541c-2.14394,28.47361 -28.30483,52.72829 -58.47208,50.45683c-30.16724,-2.27146 -52.91713,-30.20892 -50.77319,-58.68252c2.14394,-28.4736 28.33735,-49.71465 58.50459,-47.44317c30.16724,2.27146 52.88463,27.19526 50.74069,55.66886z" fill="url(#color-8)" stroke="#000000" stroke-width="0" stroke-linecap="butt"/><g fill-opacity="0.46667" fill="#000000" stroke="none" stroke-width="0.5" stroke-linecap="butt"><path d="M298.00462,205.80417c0.91891,-0.35999 1.2789,0.55893 1.2789,0.55893l0.16714,0.66263c2.51161,0.60937 4.28805,-2.2962 2.75986,-4.41579c-0.76515,-1.06126 -2.31392,-1.25224 -3.04258,-2.2632c-2.21658,-3.07534 2.56431,-4.00311 4.5869,-3.8018c0,0 0.98129,0.1052 0.87609,1.08649c-0.10519,0.98129 -1.08649,0.87609 -1.08649,0.87609c-0.29083,-0.03407 -0.57979,-0.11016 -0.87251,-0.10223c-0.32059,0.0087 -0.64245,0.06105 -0.9501,0.15163c-2.30296,0.67791 -0.15556,0.83228 1.01954,1.80649c0.87686,0.72696 1.50827,1.49866 1.82049,2.62726c1.20811,4.36703 -2.82351,6.98004 -6.49463,5.44292l-0.62151,-1.3505c0,0 -0.35999,-0.91892 0.55893,-1.27891z"/><path d="M314.98471,212.64645c-0.6011,-0.00428 -0.83347,-0.37208 -0.92329,-0.65897c-1.95178,-2.32523 -3.90777,-5.52651 -4.17705,-8.59414c-0.16278,0.1829 -0.31768,0.37468 -0.4637,0.57625c0,0 -0.03306,0.0448 -0.09412,0.10524c0.12579,2.02012 0.19436,4.04592 0.33555,6.05455l0.09224,0.99316c0,0 0.0912,0.98269 -0.89148,1.0739c-0.98268,0.0912 -1.0739,-0.89148 -1.0739,-0.89148l-0.09421,-1.01567c-0.28649,-4.13585 -0.25401,-8.35911 -1.09784,-12.4349c0,0 -0.19991,-0.96646 0.76655,-1.16636c0.96646,-0.1999 1.16637,0.76655 1.16637,0.76655c0.26876,1.30052 0.45116,2.61434 0.58398,3.93499c1.42305,-1.30108 3.15473,-2.19293 4.96928,-2.98451l0.56405,-0.15196c0,0 0.95913,-0.23253 1.19166,0.7266c0.23253,0.95913 -0.72659,1.19166 -0.72659,1.19166l-0.24034,0.04307c-1.15237,0.502 -2.30964,1.04496 -3.33859,1.7498c0.29663,0.29449 0.29346,0.73939 0.29346,0.73939c-0.0458,2.83894 2.09679,6.11411 3.91306,8.211l0.23884,0.75198c0,0 -0.00703,0.98688 -0.99392,0.97985z"/><path d="M319.20166,212.47574c-0.98689,-0.00703 -0.97986,-0.99393 -0.97986,-0.99393l0.00635,-0.20287c-0.30999,-3.34005 -0.78446,-6.76599 -1.41975,-10.05267c0,0 -0.18665,-0.9691 0.78245,-1.15576c0.9691,-0.18665 1.15576,0.78245 1.15576,0.78245c0.64314,3.35044 1.13104,6.84007 1.44692,10.24357l0.00206,0.39934c0,0 -0.00703,0.98689 -0.99393,0.97986z"/><path d="M325.99224,211.11687c2.6434,-3.12965 -2.35841,-5.4936 -1.6554,-7.77972c0.38264,-1.24433 3.2738,-0.94036 3.19635,-2.63678c-0.10562,-2.31308 -1.9855,-1.73636 -3.54641,-0.86166c0,0 -0.05596,0.03057 -0.14719,0.06193c0.41091,3.72872 0.58296,7.56241 0.5728,11.29903c0.50876,0.29006 0.76543,0.15947 1.57986,-0.08282zM325.58213,197.20924c7.10019,-1.01143 2.45507,6.44196 0.9819,6.7771c0.54017,0.53831 1.44865,1.63053 1.647,2.23116c0.81158,2.4576 0.6011,4.6308 -1.13752,6.55071c-1.83918,0.62486 -2.54888,0.81618 -4.20396,-0.23132l-0.53045,-0.78509c0,0 -0.29773,-0.60622 0.1009,-1.06197c-0.00249,-3.91365 -0.21799,-7.93279 -0.70704,-11.8002c0,0 -0.12347,-0.97915 0.8557,-1.10262c0.33309,-0.042 0.56714,0.0436 0.73101,0.17483c0.7134,-0.35714 1.47648,-0.64063 2.26247,-0.75259z"/><path d="M331.80849,212.75288c-0.97461,0.15531 -1.12993,-0.8193 -1.12993,-0.8193l-0.10836,-0.76528c0.03049,-4.04636 -0.24346,-8.0927 -0.21458,-12.14694c0,0 0.00703,-0.98688 0.99393,-0.97985c0.98689,0.00703 0.97985,0.99392 0.97985,0.99392c-0.02889,4.0547 0.24184,8.09977 0.21459,12.14694l0.08381,0.4406c0,0 0.1553,0.97461 -0.81931,1.12992z"/><path d="M343.77664,214.85907c-0.98689,-0.00703 -0.97986,-0.99393 -0.97986,-0.99393l0.00901,-1.14508c0.08387,-0.93331 0.16589,-1.87377 0.23514,-2.81796c-0.3959,2.18324 -1.65911,3.94658 -4.39654,4.21436l-1.09354,-0.11079c0,0 -0.97675,-0.11558 -0.86468,-1.09108c-0.1468,0.16092 -0.37434,0.28528 -0.72695,0.28277c-0.98689,-0.00703 -0.97986,-0.99392 -0.97986,-0.99392l0.00563,-0.1025c-0.37282,-4.0325 -0.34946,-7.99318 -0.32059,-12.04515c0,0 0.00703,-0.98688 0.99393,-0.97985c0.32683,0.00233 0.54466,0.11213 0.68984,0.25796c0.83336,-0.70618 1.8803,-1.32959 2.95875,-0.87715c1.71347,0.71884 2.40453,3.28325 2.96785,4.82227c0.4759,1.30015 0.83362,2.87658 0.89917,4.42093c0.10962,-2.4237 0.08039,-4.85434 -0.2702,-7.23462c0,0 -0.14311,-0.97648 0.83338,-1.1196c0.97648,-0.14312 1.11959,0.83337 1.11959,0.83337c0.60709,4.16164 0.30111,8.46457 -0.07941,12.63705l-0.00671,1.06307c0,0 -0.00703,0.98689 -0.99393,0.97986zM337.78279,212.04553l0.7117,0.10282c4.65691,-0.2028 2.27682,-7.43697 1.25594,-9.85287c-0.13055,-0.30897 -0.61724,-1.68614 -1.12032,-1.98455c-0.43347,-0.25711 -1.55547,1.02768 -1.68874,1.1616c0,0 -0.12171,0.11999 -0.31375,0.20945c-0.01836,3.42882 0.00327,6.80669 0.32275,10.23658l0.00277,0.29898c0,0 -0.00028,0.03943 -0.00861,0.10246c0.32772,-0.33487 0.83827,-0.27446 0.83827,-0.27446z"/><path d="M306.22195,214.50797c-0.00703,0.98689 -0.99393,0.97985 -0.99393,0.97985l-0.82762,-0.00881c-1.26306,0.08742 -2.53032,0.10305 -3.79818,0.09516c0.07043,3.99164 0.93337,7.88706 0.91045,11.84864l0.06975,0.16263c0,0 0.23253,0.95913 -0.7266,1.19166c-0.95913,0.23253 -1.19165,-0.7266 -1.19165,-0.7266l-0.12528,-0.64176c0.03401,-3.95615 -0.84021,-7.86634 -0.91052,-11.85908c-0.54412,-0.00827 -1.08802,-0.01625 -1.63142,-0.02012c0,0 -0.98689,-0.00703 -0.97986,-0.99392c0.00703,-0.98689 0.99393,-0.97986 0.99393,-0.97986c2.41488,0.0172 4.84264,0.12366 7.25202,-0.0458l0.97905,0.00407c0,0 0.98689,0.00703 0.97986,0.99393z"/><path d="M309.75797,215.87677c-7.22991,3.49237 1.79703,17.85135 2.77235,6.01825c0.15653,-1.48354 0.02396,-4.5577 -1.58921,-5.14668l-0.36345,-0.03133c0,0 -0.76391,-0.13292 -0.81968,-0.84024zM310.43781,214.80109c0.25272,-0.06793 0.47825,-0.02868 0.47825,-0.02868l0.83956,0.17799c2.47186,1.23848 2.97696,4.55523 2.73985,7.12994c-1.62947,16.78633 -16.71146,-2.22806 -5.48275,-8.03373c0,0 0.88585,-0.43506 1.32091,0.45078c0.05299,0.10792 0.0864,0.20914 0.10418,0.3037z"/><path d="M317.88271,230.08175c-0.93847,0.30541 -1.24388,-0.63306 -1.24388,-0.63306l-0.11889,-0.37471c-1.14874,-4.74273 -0.46322,-9.56201 -0.42879,-14.39533c0,0 0.00703,-0.98689 0.99393,-0.97986c0.98689,0.00703 0.97985,0.99393 0.97985,0.99393c-0.03319,4.65894 -0.73528,9.34842 0.37327,13.9162l0.07757,0.22896c0,0 0.30541,0.93847 -0.63306,1.24388z"/><path d="M329.43894,227.23301c0.38229,0.90987 -0.52757,1.29215 -0.52757,1.29215l-0.83414,0.34021c-8.16478,2.10467 -6.91738,-8.22351 -5.95384,-13.31653c0,0 0.18345,-0.96971 1.15317,-0.78625c0.96972,0.18346 0.78625,1.15317 0.78625,1.15317c-0.66461,3.51301 -2.55465,12.70504 3.50865,11.04169l0.57533,-0.25201c0,0 0.90987,-0.38229 1.29215,0.52758z"/><path d="M338.50257,220.15821c-0.00703,0.98689 -0.99393,0.97986 -0.99393,0.97986l-0.59489,-0.02341c-1.72529,-0.3672 -3.56938,-0.2313 -5.3422,-0.22213c-0.00268,1.56112 0.3586,2.86952 0.73953,4.3923c0.11917,0.47636 0.23979,1.73956 0.89111,1.94445c0.7914,0.24895 1.69411,-0.20231 2.39431,-0.47999l0.12095,-0.10472c0,0 0.82505,-0.54158 1.36663,0.28347c0.54158,0.82505 -0.28346,1.36662 -0.28346,1.36662l-0.48413,0.29248c-1.18651,0.46001 -2.54464,0.99728 -3.83579,0.47939c-2.51328,-1.00808 -2.89282,-6.0554 -2.88245,-8.26911c0.00831,-1.77473 -0.31551,-4.33638 1.3205,-5.58477c1.4792,-1.12874 3.76698,-0.55101 5.36688,-0.14307c0,0 0.95572,0.24617 0.70955,1.2019c-0.24617,0.95572 -1.20191,0.70955 -1.20191,0.70955c-0.89741,-0.23382 -2.77736,-0.85578 -3.66643,-0.20743c-0.50065,0.36509 -0.61784,1.25952 -0.62222,2.14591c1.93592,-0.00063 3.91449,-0.12222 5.81003,0.26249l0.20807,-0.01768c0,0 0.98689,0.00703 0.97986,0.99392z"/><path d="M343.57963,229.96369c-0.93847,0.30541 -1.24388,-0.63306 -1.24388,-0.63306l-0.10507,-0.32373c-1.17725,-3.93182 -1.99014,-7.92055 -0.05633,-11.7733c0,0 0.44764,-0.87956 1.32719,-0.43193c0.87955,0.44764 0.43193,1.3272 0.43193,1.3272c-1.7274,3.33718 -0.83177,6.91714 0.18785,10.311l0.09137,0.27993c0,0 0.30541,0.93847 -0.63305,1.24388z"/><path d="M349.3538,217.26345c-0.14653,0.97597 -1.1225,0.82944 -1.1225,0.82944l-0.82181,-0.13109c-2.21407,-0.63019 -4.87502,-0.9233 -7.17395,-0.72302c0,0 -0.98347,0.08235 -1.06582,-0.90113c-0.08235,-0.98347 0.90113,-1.06582 0.90113,-1.06582c2.54577,-0.20572 5.41417,0.10925 7.87156,0.78944l0.58195,0.07966c0,0 0.97597,0.14653 0.82944,1.12251z"/></g><path d="M292.00173,80.83041l31.0373,-53.38137l29.68204,54.14989c0,0 -2.33123,2.58538 -10.14524,4.11289c-6.61906,1.29392 -18.39286,1.57559 -23.34078,1.51296c-4.23748,-0.05363 -14.10407,-1.4427 -19.46702,-2.89609c-6.27371,-1.70021 -7.7663,-3.49827 -7.7663,-3.49827z" fill="url(#color-9)" stroke="#000000" stroke-width="0" stroke-linecap="butt"/><path d="M324.05253,52.98731c-0.16803,3.56174 -3.08057,6.31812 -6.50532,6.15655c-3.42475,-0.16157 -6.06485,-3.17991 -5.89681,-6.74165c0.16803,-3.56174 3.08057,-6.31813 6.50532,-6.15656c3.42476,0.16157 6.06485,3.17991 5.89681,6.74167z" fill="#1dff00" stroke="#000000" stroke-width="0" stroke-linecap="butt"/><path d="M340.72022,72.93616c-0.16803,3.56174 -3.08057,6.31814 -6.50532,6.15657c-3.42475,-0.16157 -6.06486,-3.17992 -5.89682,-6.74167c0.16803,-3.56174 3.08057,-6.31812 6.50533,-6.15655c3.42476,0.16157 6.06485,3.17991 5.89681,6.74165z" fill="#fa00ff" stroke="#000000" stroke-width="0" stroke-linecap="butt"/><path d="M313.55632,77.86952c-0.16803,3.56174 -3.08057,6.31813 -6.50532,6.15656c-3.42475,-0.16157 -6.06485,-3.17992 -5.89681,-6.74166c0.16803,-3.56174 3.08057,-6.31813 6.50532,-6.15656c3.42476,0.16157 6.06485,3.17991 5.89681,6.74166z" fill="#0007ff" stroke="#000000" stroke-width="0" stroke-linecap="butt"/><path d="M336.84433,29.51847l-30.48688,-2.35166" fill="none" stroke="#000000" stroke-width="2.5" stroke-linecap="round"/><path d="M335.10114,37.4282l-11.93763,-8.32681l-0.20192,-15.0801" fill="none" stroke="#000000" stroke-width="2.5" stroke-linecap="round"/><path d="M311.24293,34.93259l11.00921,-5.87419" fill="none" stroke="#000000" stroke-width="2.5" stroke-linecap="round"/><path d="M354.47426,118.85543c-0.01553,2.1803 -2.06073,3.93331 -4.56808,3.91545c-2.50735,-0.01786 -4.52736,-1.79983 -4.51183,-3.98013c0.01553,-2.1803 2.6383,3.64992 5.14564,3.66778c2.50735,0.01786 3.9498,-5.7834 3.93427,-3.60309z" fill="#ffffff" stroke="#000000" stroke-width="2.5" stroke-linecap="butt"/><path d="M328.76417,166.69512l-6.98357,3.92788l-5.64774,-3.96599l7.31431,-5.71027z" fill="#000000" stroke="#000000" stroke-width="2.5" stroke-linecap="round"/></g></g></svg>