<svg version="1.1" xmlns="http://www.w3.org/2000/svg" xmlns:xlink="http://www.w3.org/1999/xlink" width="34.17311" height="34.17311" viewBox="0,0,34.17311,34.17311"><g transform="translate(-302.91346,-162.9135)"><g data-paper-data="{&quot;isPaintingLayer&quot;:true}" stroke="none" stroke-miterlimit="10" stroke-dasharray="" stroke-dashoffset="0" style="mix-blend-mode: normal"><path d="M309.98312,162.9135h20.03379c3.9166,0 7.06966,3.15307 7.06966,7.06966v20.03379c0,3.91659 -3.15306,7.06966 -7.06966,7.06966h-20.03379c-3.91659,0 -7.06966,-3.15307 -7.06966,-7.06966v-20.03379c0,-3.91659 3.15307,-7.06966 7.06966,-7.06966z" fill="#ff6f00" fill-rule="evenodd" stroke-width="4.43922" stroke-linecap="round" stroke-linejoin="round"/><path d="M309.7671,173.66489c0.99468,0.61938 1.97537,1.68274 2.92307,2.40313c2.66259,-1.3385 5.72859,-2.08533 8.49831,-2.16809c1.70071,0.2316 3.48495,0.36847 5.0792,1.05584c1.14126,-0.61683 2.28263,-1.22963 3.41378,-1.86257c-1.27325,-0.77757 -2.16084,-3.38448 -0.06248,-4.63267c0.47969,-0.28534 1.08021,-0.29965 1.63491,-0.36156c0.47137,-0.0526 0.96519,-0.10455 1.42275,0.02033c3.20301,0.8742 2.34152,5.28919 -0.29484,6.02939l-1.02533,-0.28129c-1.17197,0.67458 -2.35888,1.31879 -3.54825,1.96118c3.71375,2.57543 4.8544,6.95193 5.28505,11.25899l0.1386,1.0331c0,0 0.09965,0.74335 -0.6437,0.843c-0.74335,0.09965 -0.843,-0.6437 -0.843,-0.6437l-0.14175,-1.05825c-0.67547,-6.78275 -3.47007,-10.88171 -10.49344,-11.86385c-2.46207,0.08648 -5.35276,0.78303 -7.8566,2.04191c-0.17142,0.22681 -0.37399,0.29146 -0.55155,0.29c-4.12359,2.26663 -6.97113,6.1268 -4.61548,11.35065c0,0 0.30061,0.68712 -0.3865,0.98773c-0.68712,0.30061 -0.98773,-0.3865 -0.98773,-0.3865c-2.45695,-5.75939 0.27803,-10.16367 4.59204,-12.83902c-0.91734,-0.80831 -1.93925,-1.83286 -2.77269,-2.12976c-0.25759,-0.09176 -2.47381,-0.43843 -2.66288,-0.71318c-0.4061,-0.59013 -0.50457,-1.39779 -0.41534,-2.10857c0.56743,-4.52026 7.92902,-1.54132 4.31387,1.77377zM308.08545,173.27276c0.05398,-0.42631 0.38083,-0.56131 0.58241,-0.60405c2.85844,-1.91433 -3.43175,-2.17628 -1.70228,0.30797c0.23214,0.33345 0.66477,0.32391 1.11987,0.29608zM330.35803,169.76584c-1.60498,0.80069 -0.38507,1.62918 0.83948,2.16878h0.84456c0.35735,0 0.65632,0.24992 0.73168,0.5845c1.19811,-0.73784 -0.00928,-3.95381 -2.41573,-2.75328z" fill="#000000" fill-rule="nonzero" stroke-width="0.5" stroke-linecap="butt" stroke-linejoin="miter"/></g></g></svg>