<svg version="1.1" xmlns="http://www.w3.org/2000/svg" xmlns:xlink="http://www.w3.org/1999/xlink" width="161.0036" height="293.19386" viewBox="0,0,161.0036,293.19386"><defs><linearGradient x1="322.07026" y1="178.79379" x2="318.23462" y2="357.59722" gradientUnits="userSpaceOnUse" id="color-1"><stop offset="0" stop-color="#eca526"/><stop offset="1" stop-color="#a56d11"/></linearGradient><linearGradient x1="321.06381" y1="182.7961" x2="317.60662" y2="343.95757" gradientUnits="userSpaceOnUse" id="color-2"><stop offset="0" stop-color="#ffea00" stop-opacity="0.77647"/><stop offset="1" stop-color="#ffde00" stop-opacity="0.25098"/></linearGradient><linearGradient x1="321.26132" y1="180.57481" x2="317.42569" y2="359.37824" gradientUnits="userSpaceOnUse" id="color-3"><stop offset="0" stop-color="#705200"/><stop offset="1" stop-color="#8e5d0e"/></linearGradient><linearGradient x1="320.56881" y1="179.95498" x2="316.73317" y2="358.7584" gradientUnits="userSpaceOnUse" id="color-4"><stop offset="0" stop-color="#191919"/><stop offset="1" stop-color="#0d0d0d"/></linearGradient><linearGradient x1="280.50685" y1="77.94305" x2="279.84919" y2="108.60057" gradientUnits="userSpaceOnUse" id="color-5"><stop offset="0" stop-color="#ffea00" stop-opacity="0.77647"/><stop offset="1" stop-color="#ffde00" stop-opacity="0.25098"/></linearGradient><linearGradient x1="321.71108" y1="180.91069" x2="320.67095" y2="229.39816" gradientUnits="userSpaceOnUse" id="color-6"><stop offset="0" stop-color="#e19c23"/><stop offset="1" stop-color="#f0910c"/></linearGradient><linearGradient x1="364.45438" y1="79.23004" x2="363.79673" y2="109.88757" gradientUnits="userSpaceOnUse" id="color-7"><stop offset="0" stop-color="#ffea00" stop-opacity="0.77647"/><stop offset="1" stop-color="#ffde00" stop-opacity="0.25098"/></linearGradient><linearGradient x1="322.46522" y1="90.70437" x2="320.46209" y2="184.08289" gradientUnits="userSpaceOnUse" id="color-8"><stop offset="0" stop-color="#ffea00" stop-opacity="0.77647"/><stop offset="1" stop-color="#ffde00" stop-opacity="0.25098"/></linearGradient><linearGradient x1="321.36571" y1="108.66758" x2="321.01409" y2="125.0592" gradientUnits="userSpaceOnUse" id="color-9"><stop offset="0" stop-color="#f5a40a"/><stop offset="1" stop-color="#f5c60a"/></linearGradient><linearGradient x1="319.73368" y1="239.47712" x2="319.52216" y2="249.3376" gradientUnits="userSpaceOnUse" id="color-10"><stop offset="0" stop-color="#c6c6c6"/><stop offset="1" stop-color="#a1a1a1"/></linearGradient><linearGradient x1="319.76104" y1="260.94224" x2="319.51" y2="272.64477" gradientUnits="userSpaceOnUse" id="color-11"><stop offset="0" stop-color="#c6c6c6"/><stop offset="1" stop-color="#a1a1a1"/></linearGradient><linearGradient x1="319.77917" y1="280.3113" x2="319.47699" y2="294.39769" gradientUnits="userSpaceOnUse" id="color-12"><stop offset="0" stop-color="#c6c6c6"/><stop offset="1" stop-color="#a1a1a1"/></linearGradient><linearGradient x1="385.52369" y1="214.99113" x2="384.09905" y2="281.40303" gradientUnits="userSpaceOnUse" id="color-13"><stop offset="0" stop-color="#f1c012"/><stop offset="1" stop-color="#f29811"/></linearGradient><linearGradient x1="358.33763" y1="271.9151" x2="294.08218" y2="255.06853" gradientUnits="userSpaceOnUse" id="color-14"><stop offset="0" stop-color="#f1c012"/><stop offset="1" stop-color="#f29811"/></linearGradient></defs><g transform="translate(-253.4294,-68.65632)"><g stroke-miterlimit="10"><path d="M269.5791,352.91401l0.96508,-147.28897c0,0 7.37587,-25.5459 17.48886,-25.73428c10.04302,-0.18707 33.83933,-0.23336 54.63224,-0.62069c22.55236,-0.4201 29.98254,16.90982 29.98254,16.90982l-4.01986,162.49835z" fill="url(#color-1)" stroke="#000000" stroke-width="2.5" stroke-linecap="butt"/><path d="M277.85512,326.12507l0.79442,-121.24255c0,0 1.68923,-5.85052 4.50731,-11.40242c2.5246,-4.97371 5.95517,-9.70775 9.88885,-9.78104c8.26702,-0.15398 27.85522,-0.1921 44.97112,-0.51093c18.56422,-0.34582 24.68045,13.91951 24.68045,13.91951l-3.30899,133.76231c0,0 -2.77264,7.43439 -13.21368,11.15893c-7.66948,2.73586 -22.36707,2.15956 -28.50126,1.80257c-6.57438,-0.3826 -24.3182,-3.4889 -33.03617,-8.07494c-7.66009,-4.02955 -6.78205,-9.63144 -6.78205,-9.63144z" fill="url(#color-2)" stroke-opacity="0.47451" stroke="#000000" stroke-width="2.5" stroke-linecap="butt"/><path d="M265.57565,354.6265l0.82129,-147.29205c0,0 7.82324,-25.5363 18.59856,-25.71047c10.70078,-0.17296 36.05617,-0.18581 58.21089,-0.54392c24.0294,-0.38842 31.97077,16.95247 31.97077,16.95247l-4.05484,162.4976z" fill="url(#color-3)" stroke="#000000" stroke-width="2.5" stroke-linecap="butt"/><path d="M266.74636,355.46207l12.76979,-148.65282c0,0 9.80881,-25.29205 16.96481,-25.54386c7.10651,-0.25007 23.94244,-0.44567 38.65562,-0.96341c15.95818,-0.56156 27.37477,25.3236 27.37477,25.3236l8.4678,151.16506z" fill="url(#color-4)" stroke="#000000" stroke-width="2.5" stroke-linecap="butt"/><g stroke-width="2.5" stroke-linecap="butt"><path d="M254.70001,90.6213c-0.50821,-10.90214 8.44343,-20.17655 19.99404,-20.71498c11.5506,-0.53844 21.32621,7.86301 21.83441,18.76514c0.5082,10.90214 -8.48875,21.3276 -20.03935,21.86603c-11.5506,0.53843 -21.28088,-9.01406 -21.78908,-19.91619z" fill="#e39e23" stroke="#000000"/><path d="M264.42286,93.57491c-0.38308,-8.21768 6.36438,-15.20841 15.07085,-15.61426c8.70647,-0.40586 16.075,5.92687 16.45806,14.14455c0.38308,8.21768 -6.39855,16.07605 -15.10502,16.4819c-8.70647,0.40585 -16.04082,-6.79451 -16.42389,-15.01218z" fill="url(#color-5)" stroke-opacity="0.45098" stroke="#000000"/></g><g stroke-width="2.5" stroke-linecap="round"><path d="M293.66135,186.73907c1.3462,0.62837 -1.5579,-0.92992 -0.30633,-2.86111c1.16912,-1.80396 3.07851,-2.6577 5.51683,-2.96347c7.48447,-0.93859 30.82155,0.51863 38.81688,1.56322c3.12822,0.4087 9.28815,-0.79261 11.93871,0.70621c0.27303,0.15439 0.55934,0.37723 0.60149,0.64089c0.17487,1.09376 -2.34092,6.05878 -1.65698,9.28144c0.78175,3.68352 -1.58653,7.26141 -3.43161,10.53698c-4.17758,7.4164 -8.27231,14.23901 -16.00914,19.66308c-3.55312,2.49099 -5.63052,7.12759 -11.75447,5.84114c-2.24984,-0.47262 -6.58423,-8.29325 -7.7353,-10.13948c-0.95696,-1.53492 -0.87046,-3.03652 -1.44606,-4.61544c-3.57527,-9.80732 -5.32843,-19.84705 -14.48926,-27.46857z" fill="url(#color-6)" stroke="#000000"/><path d="M313.39369,209.15563l-10.53952,-8.26368" fill="none" stroke-opacity="0.38039" stroke="#000000"/><path d="M344.27703,202.48559l-9.89154,7.54337" fill="none" stroke-opacity="0.38039" stroke="#000000"/><path d="M324.16229,193.59348l-0.48819,-3.53573" fill="none" stroke-opacity="0.38039" stroke="#000000"/></g><g stroke-width="2.5" stroke-linecap="butt"><path d="M389.69379,93.00332c-0.97526,10.87031 -11.10623,19.99675 -22.62312,18.96348c-11.51689,-1.03327 -20.05849,-11.83496 -19.08322,-22.70528c0.97526,-10.87031 11.10215,-18.84482 22.61904,-17.81154c11.51689,1.03327 20.06258,10.68302 19.08731,21.55334z" fill="#e39e23" stroke="#000000"/><path d="M379.85322,95.53727c-0.73513,8.19369 -8.3715,15.0729 -17.05255,14.29406c-8.68105,-0.77884 -15.11945,-8.9208 -14.38432,-17.11449c0.73513,-8.19369 8.36844,-14.2046 17.04949,-13.42575c8.68105,0.77884 15.12252,8.05251 14.38739,16.24619z" fill="url(#color-7)" stroke-opacity="0.45098" stroke="#000000"/></g><path d="M376.45041,137.51167c-2.55157,28.43998 -29.0572,52.31745 -59.18882,49.6141c-21.12865,-1.89562 -38.42982,-16.35763 -46.00258,-34.63622c-3.22676,-7.78855 -4.68722,-16.27003 -3.92484,-24.76754c2.55157,-28.43997 29.04654,-49.30365 59.17816,-46.60029c30.13161,2.70334 52.48967,27.94998 49.9381,56.38995z" fill="#e39e23" stroke="#000000" stroke-width="2.5" stroke-linecap="butt"/><path d="M363.83108,133.23295c-0.02377,1.1081 4.35319,4.11155 4.82653,8.02383c0.65443,5.4091 -0.28679,12.03864 -0.41813,12.66684c-3.11742,14.91143 -25.27427,30.64202 -47.47793,30.16571c-4.01357,-0.0861 -23.0868,-4.34437 -32.47254,-12.19225c-11.93086,-9.97599 -14.09689,-24.13821 -14.07128,-25.28157c0.04206,-1.87748 0.11701,-6.2869 0.99632,-10.02509c0.82391,-3.50266 4.98937,-6.13241 5.03544,-8.28004c0.20002,-9.32401 4.28643,-22.19849 11.85846,-28.13008c7.51041,-5.88333 20.56207,-9.68603 31.78985,-9.44517c11.68909,0.25075 25.75108,3.96818 33.01005,12.68208c6.74321,8.09476 7.11511,20.87174 6.92324,29.81576z" fill="url(#color-8)" stroke-opacity="0.45098" stroke="#000000" stroke-width="2.5" stroke-linecap="butt"/><path d="M268.69436,122.48021c0,0 -4.72529,-7.17367 -4.67751,-9.4013c0.03603,-1.67979 5.75994,-5.518 5.75994,-5.518c0,0 1.13792,2.76895 4.51329,2.84136c9.53083,0.20445 28.86249,-6.11787 48.7758,-5.6907c5.03711,0.10805 10.10773,0.63112 14.96873,1.3585c14.74132,2.20584 27.55494,6.29072 31.66073,6.3788c2.96562,0.06362 4.9358,-2.63866 4.9358,-2.63866c0,0 3.85797,4.9586 3.82194,6.6384c-0.04779,2.22763 -3.53272,8.31033 -3.53272,8.31033c0,0 -34.06065,-6.61044 -51.95239,-6.99425c-17.50862,-0.37559 -54.27358,4.71552 -54.27358,4.71552z" fill="url(#color-9)" stroke="#000000" stroke-width="2.5" stroke-linecap="butt"/><path d="M270.57101,113.05507c0,0 36.03099,-6.06306 52.91957,-5.60122c17.57402,0.48059 50.55004,8.43071 50.55004,8.43071" fill="none" stroke-opacity="0.32157" stroke="#000000" stroke-width="2.5" stroke-linecap="round"/><path d="M317.23795,84.3812c0.83587,-4.02516 8.11385,-10.85798 12.47658,-9.48875c2.16841,0.68055 4.08207,3.00852 4.36891,5.13672c0.13288,0.98599 -0.44577,2.62841 -1.04595,3.80904c-0.16979,0.33401 -0.9624,0.91083 -0.68761,0.99951c0.27478,0.08868 0.64457,-0.60481 0.95896,-0.91193c1.40246,-1.37011 2.36336,-2.30495 4.19266,-3.12124c3.24278,-1.44702 7.46135,-2.68233 9.84992,-1.93509c4.28649,1.34098 1.84798,7.67579 -3.35461,11.45627" fill="#e39e23" stroke="#000000" stroke-width="2.5" stroke-linecap="round"/><path d="M372.46165,140.232c3.9364,1.18547 10.105,9.03435 8.35863,13.26028c-0.868,2.10042 -3.35475,3.80266 -5.49991,3.90184c-0.99383,0.04596 -2.57923,-0.67445 -3.70271,-1.3758c-0.31784,-0.19841 -0.82297,-1.03853 -0.9354,-0.77258c-0.11243,0.26595 0.54598,0.6951 0.82437,1.0352c1.24191,1.51715 2.08893,2.55629 2.74173,4.4501c1.15722,3.35713 2.018,7.66775 1.06427,9.98163c-1.71155,4.15246 -7.80823,1.16807 -11.11813,-4.34586" fill="#e39e23" stroke="#000000" stroke-width="2.5" stroke-linecap="round"/><path d="M276.79771,164.492c-3.54332,5.36692 -9.76238,8.08711 -11.29427,3.86507c-0.85362,-2.35265 0.19122,-6.62239 1.49134,-9.92681c0.73342,-1.86409 1.62423,-2.86593 2.93004,-4.32844c0.29272,-0.32785 0.96892,-0.72837 0.868,-0.99889c-0.10092,-0.27053 -0.64161,0.54715 -0.96767,0.73176c-1.15252,0.65252 -2.76734,1.30428 -3.7583,1.21575c-2.13893,-0.19109 -4.55039,-1.99841 -5.32751,-4.13411c-1.56353,-4.29693 4.93597,-11.87405 8.91958,-12.88963" fill="#e39e23" stroke="#000000" stroke-width="2.5" stroke-linecap="round"/><path d="M327.92509,142.37327c-0.03134,1.46085 -2.16704,4.3257 -4.86644,4.26779c-2.6994,-0.05791 -4.94029,-3.01665 -4.90895,-4.47749c0.00449,-0.20912 -2.49822,-1.44697 -2.40928,-1.64028c0.53243,-1.15706 5.04073,-0.94959 7.3537,-0.89997c1.76544,0.03787 6.98492,0.28888 7.82767,1.06648c0.44583,0.41137 -2.98587,1.17802 -2.99671,1.68347z" fill="#000000" stroke="#000000" stroke-width="2.5" stroke-linecap="butt"/><path d="M324.88322,244.5201c-0.05841,2.72289 -2.45864,4.87976 -5.36107,4.8175c-2.90242,-0.06226 -5.20796,-2.32008 -5.14955,-5.04297c0.05841,-2.72289 2.45864,-4.87976 5.36107,-4.8175c2.90242,0.06226 5.20796,2.32008 5.14955,5.04297z" fill="url(#color-10)" stroke="#000000" stroke-width="2.5" stroke-linecap="butt"/><path d="M325.05336,266.90974c-0.06932,3.23157 -2.55117,5.79924 -5.54336,5.73505c-2.99219,-0.06419 -5.36165,-2.73593 -5.29232,-5.9675c0.06932,-3.23157 2.55117,-5.79924 5.54336,-5.73505c2.99219,0.06419 5.36165,2.73593 5.29232,5.9675z" fill="url(#color-11)" stroke="#000000" stroke-width="2.5" stroke-linecap="butt"/><path d="M325.47935,287.48c-0.08344,3.88985 -2.7708,6.987 -6.00236,6.91768c-3.23157,-0.06932 -5.78363,-3.27886 -5.70019,-7.16872c0.08344,-3.88985 2.7708,-6.987 6.00236,-6.91768c3.23157,0.06932 5.78363,3.27886 5.70019,7.16872z" fill="url(#color-12)" stroke="#000000" stroke-width="2.5" stroke-linecap="butt"/><g fill="#000000" stroke="#000000" stroke-width="2.5"><path d="M323.22946,193.08568l18.5169,-5.68951l0.68017,20.34566l-19.72886,-9.42626l-19.60955,8.92298l0.20652,-19.17018z" stroke-linecap="round"/><path d="M329.80681,196.41514c0.01801,3.1044 -3.02988,5.53179 -6.80765,5.42174c-3.77778,-0.11005 -6.85487,-2.71586 -6.87289,-5.82025c-0.01801,-3.1044 3.02988,-5.53178 6.80765,-5.42174c3.77778,0.11005 6.85487,2.71585 6.87289,5.82024z" stroke-linecap="butt"/></g><g fill="#ffb701" stroke="#000000" stroke-width="2.5" stroke-linecap="butt"><path d="M386.80254,184.64353l20.87803,-19.42987l-3.9396,27.96256z"/><path d="M408.20652,189.67779c0,0 -3.35761,8.10962 -5.06776,12.24011c-1.75297,4.23392 -5.32475,12.8608 -5.32475,12.8608l-25.59585,-12.89382l14.43395,-23.06505z"/><path d="M344.79872,255.84748l28.33453,-63.27385l32.18303,16.21209c0,0 -11.48469,20.86669 -17.12118,31.1077c-5.49879,9.99083 -16.29488,29.60636 -16.29488,29.60636z"/></g><path d="M409.22824,232.9579c0.07905,0.05636 0.15703,0.1047 0.23311,0.145c0.99173,1.97495 2.85691,3.4969 3.47165,6.05489c1.44899,6.02929 0.28663,9.80826 -0.97677,15.59026c-1.89214,5.18223 -3.16523,10.76818 -4.79729,16.09253c-1.03258,3.36865 -1.90279,7.15408 -5.12092,9.13585c-3.14867,1.939 -7.48558,1.55641 -10.9884,1.5757c-1.96814,-1.14049 -3.79858,-1.24418 -5.93393,-1.81482c-3.73056,-0.99694 -7.23339,-2.64115 -10.89531,-3.77113c-3.32908,-1.02728 -6.73477,-1.63843 -9.13683,-4.41173c-2.25383,-2.60216 -1.32533,-6.83893 -3.05536,-9.76013c-1.62302,-4.32585 -4.63376,-7.60645 -5.38996,-12.07901c-0.14835,-0.87736 -0.87229,-3.52423 -0.27228,-4.45773c0.38901,-0.60522 1.37778,-0.47259 2.0957,-0.51957c1.85046,-0.12112 6.08003,0.12111 7.46247,-1.2995c1.46391,-1.50434 -0.203,-4.83376 -0.22086,-6.50898c-0.00289,-0.27129 0.74495,-2.81278 0.76036,-2.86708c2.11652,-2.3952 6.41587,-0.27696 7.9571,-3.32283c0.76731,-1.51639 -2.0376,-5.32651 0.49212,-5.96536c1.98145,-0.50039 5.16073,-1.11813 7.09622,0.00608c0.52187,0.30311 0.60838,1.18655 1.1824,1.37292c1.10781,0.35969 2.60801,0.89172 3.50031,0.1431c1.1102,-0.93141 -0.09703,-3.50041 -0.12817,-4.72783c-0.04942,-1.94758 2.40971,-3.34334 3.49075,-4.69145c2.76801,-0.32605 6.14325,-2.07552 8.97887,-1.50773c5.90779,1.18294 9.28735,5.68607 10.25982,11.46615c0.02282,0.13572 0.04656,0.26477 0.06974,0.38709c-0.85603,0.49841 -0.67295,1.58585 -0.67295,1.58585l0.21836,0.62487c-0.08339,0.50212 -0.10528,0.96736 -0.07968,1.40078c-0.15106,0.24533 -0.71738,1.32749 0.39977,2.1238z" fill="url(#color-13)" stroke="#000000" stroke-width="3" stroke-linecap="butt"/><path d="M353.03851,168.8476c0,0 -1.94754,1.59253 -10.18472,1.5101c-6.29431,-0.063 -18.4759,-1.79693 -23.08706,-1.84308c-4.65472,-0.04659 -16.09408,1.75776 -21.75633,1.70109c-6.28872,-0.06294 -6.58019,-1.98467 -6.58019,-1.98467" fill="none" stroke="#000000" stroke-width="2.5" stroke-linecap="round"/><path d="M315.56576,124.33459c-0.03008,2.23467 -2.04279,4.01943 -4.49546,3.9864c-2.45269,-0.03303 -4.41657,-1.87136 -4.38649,-4.10602c0.03008,-2.23467 2.04279,-4.01943 4.49546,-3.9864c2.45269,0.03303 4.41656,1.87136 4.38647,4.10603z" fill="#ffffff" stroke="#000000" stroke-width="2.5" stroke-linecap="butt"/><path d="M365.23164,124.8181c-0.03008,2.23467 -2.04278,4.01943 -4.49546,3.9864c-2.45269,-0.03303 -4.41656,-1.87136 -4.38647,-4.10602c0.03008,-2.23467 2.04278,-4.01942 4.49546,-3.98639c2.45269,0.03303 4.41657,1.87135 4.38648,4.10601z" fill="#ffffff" stroke="#000000" stroke-width="2.5" stroke-linecap="butt"/><path d="M347.56207,244.19147c0.45934,1.29272 1.65534,1.04496 1.93269,0.96699c0.40977,0.1435 0.86319,0.25007 1.36892,0.30761l0.54101,0.38138c0,0 0.99552,0.47434 1.70961,-0.21214c0.11127,0.05585 0.22887,0.11407 0.35312,0.17325c5.29164,2.52063 8.69504,7.00575 8.21213,13.01143c-0.23179,2.8826 -2.83998,5.64851 -3.91277,8.22092c-1.59293,0.66979 -3.60969,2.65176 -5.46901,2.07001c-1.17181,-0.36663 -3.31113,-2.23222 -4.51134,-1.42009c-0.96465,0.65274 -0.86454,2.24132 -0.8225,3.4053c0.02177,0.60312 0.8476,0.92864 0.99594,1.51364c0.5502,2.16963 -0.91592,5.05752 -1.94062,6.82571c-1.30825,2.25746 -4.20284,-1.48497 -5.87155,-1.16303c-3.3518,0.64665 -2.4941,5.36212 -5.37799,6.74047c-0.05645,-0.00007 -2.70558,0.02197 -2.96568,-0.05523c-1.60608,-0.47669 -4.35056,-2.99291 -6.19875,-1.99779c-1.74533,0.93974 -2.67255,5.07353 -3.2966,6.8198c-0.24211,0.67748 -0.38578,1.66471 -1.07448,1.8728c-1.06229,0.32093 -3.40905,-1.10126 -4.21207,-1.48458c-4.09358,-1.954 -6.42253,-5.74912 -10.13727,-8.49647c-2.33462,-2.46495 -6.66357,-2.73419 -8.54771,-5.61534c-2.00806,-3.07064 -1.66158,-6.51333 -1.73631,-9.99652c-0.08219,-3.83141 -0.70252,-7.6509 -0.63794,-11.51183c0.03697,-2.20998 0.43933,-3.99866 -0.11756,-6.20415c0.97936,-3.36318 1.80104,-7.63869 4.52935,-10.13473c2.78849,-2.5511 6.66742,-2.34961 10.1901,-2.41858c5.56779,-0.109 11.2887,0.19894 16.79117,-0.19915c5.90677,0.37105 9.85963,0.28981 15.26022,3.33705c2.29126,1.29282 3.24322,3.50391 4.87039,4.99932c0.01789,0.08421 0.04298,0.17247 0.0755,0.26395z" fill="url(#color-14)" stroke="#000000" stroke-width="3" stroke-linecap="butt"/></g></g></svg>