<svg version="1.1" xmlns="http://www.w3.org/2000/svg" xmlns:xlink="http://www.w3.org/1999/xlink" width="134.59842" height="285.77347" viewBox="0,0,134.59842,285.77347"><defs><linearGradient x1="319.77934" y1="156.99086" x2="319.77934" y2="209.01414" gradientUnits="userSpaceOnUse" id="color-1"><stop offset="0" stop-color="#515151"/><stop offset="1" stop-color="#8c8c8c"/></linearGradient><linearGradient x1="320.00002" y1="219.4771" x2="320.00002" y2="322.88676" gradientUnits="userSpaceOnUse" id="color-2"><stop offset="0" stop-color="#926526"/><stop offset="1" stop-color="#31220d"/></linearGradient><linearGradient x1="320.30154" y1="37.11328" x2="320.30154" y2="95.80702" gradientUnits="userSpaceOnUse" id="color-3"><stop offset="0" stop-color="#000000"/><stop offset="1" stop-color="#6a00ff"/></linearGradient></defs><g transform="translate(-252.70079,-37.11328)"><g stroke-miterlimit="10"><path d="M252.70081,221.17748l15.88703,-29.56752l101.50044,-0.4413l17.21094,29.12622z" fill="#c18633" stroke="#000000" stroke-width="0" stroke-linecap="butt"/><path d="M275.96903,215.58951c0,0 -2.87281,-7.62177 -2.87281,-11.21672c0,-3.32841 2.87281,-9.61503 2.87281,-9.61503c0,0 30.0288,-0.78119 44.76664,-0.78119c14.56273,0 43.1413,0.78119 43.1413,0.78119c0,0 2.58553,6.94219 2.58553,10.39622c0,3.48952 -2.58553,10.43552 -2.58553,10.43552c0,0 -27.91775,0.78118 -42.27945,0.78118c-14.91968,0 -45.62849,-0.78118 -45.62849,-0.78118z" fill="#8c8c8c" stroke="#000000" stroke-width="0" stroke-linecap="butt"/><path d="M303.38131,207.19938c0,0 -1.07528,-17.70592 -1.07528,-26.05728c0,-7.73214 1.07528,-22.33647 1.07528,-22.33647c0,0 11.23966,-1.81477 16.75598,-1.81477c5.45076,0 16.14761,1.81477 16.14761,1.81477c0,0 0.96776,16.12725 0.96776,24.15124c0,8.10641 -0.96776,24.24251 -0.96776,24.24251c0,0 -10.4495,1.81476 -15.82502,1.81476c-5.58437,0 -17.07856,-1.81476 -17.07856,-1.81476z" fill="url(#color-1)" stroke="#000000" stroke-width="0" stroke-linecap="butt"/><path d="M267.23929,179.33425c0,0 -3.44526,-30.2525 -3.44526,-44.5217c0,-13.21121 3.44526,-38.1643 3.44526,-38.1643c0,0 36.01241,-3.10072 53.68694,-3.10072c17.46452,0 51.73773,3.10072 51.73773,3.10072c0,0 3.10073,27.55517 3.10073,41.26503c0,13.8507 -3.10073,41.42098 -3.10073,41.42098c0,0 -33.4807,3.10073 -50.70415,3.10073c-17.8926,0 -54.72052,-3.10073 -54.72052,-3.10073z" fill="#8c8c8c" stroke="#000000" stroke-width="0" stroke-linecap="butt"/><path d="M271.7278,175.88756c0,0 -3.10602,-27.2738 -3.10602,-40.13803c0,-11.91041 3.10602,-34.40658 3.10602,-34.40658c0,0 32.46656,-2.79543 48.40084,-2.79543c15.74493,0 46.64355,2.79543 46.64355,2.79543c0,0 2.79543,24.84204 2.79543,37.20201c0,12.48693 -2.79543,37.34261 -2.79543,37.34261c0,0 -30.18414,2.79542 -45.71174,2.79542c-16.13086,0 -49.33265,-2.79542 -49.33265,-2.79542z" fill="#000000" stroke="#000000" stroke-width="2.5" stroke-linecap="butt"/><path d="M276.31023,213.70879l26.87628,-6.76154" fill="none" stroke-opacity="0.32157" stroke="#000000" stroke-width="2.5" stroke-linecap="round"/><path d="M364.16412,214.05331l-26.8118,-7.28256" fill="none" stroke-opacity="0.32157" stroke="#000000" stroke-width="2.5" stroke-linecap="round"/><path d="M367.9539,177.18913l2.7562,1.3781" fill="none" stroke-opacity="0.32157" stroke="#000000" stroke-width="2.5" stroke-linecap="round"/><path d="M367.26485,101.73814l4.47883,-2.7562" fill="none" stroke-opacity="0.32157" stroke="#000000" stroke-width="2.5" stroke-linecap="round"/><path d="M268.73068,98.98194l2.41168,2.06715" fill="none" stroke-opacity="0.32157" stroke="#000000" stroke-width="2.5" stroke-linecap="round"/><path d="M272.52046,175.81103l-3.78977,3.44526" fill="none" stroke-opacity="0.32157" stroke="#000000" stroke-width="2.5" stroke-linecap="round"/><path d="M387.29921,219.4771l-17.21094,102.01134l-101.50044,1.39832l-15.88703,-102.59189z" fill="url(#color-2)" stroke="#000000" stroke-width="0" stroke-linecap="butt"/><path d="M364.87395,247.07173h14.1218" fill="none" stroke="#76511f" stroke-width="2.5" stroke-linecap="round"/><path d="M375.69337,215.97272l-6.98396,-20.95189" fill="none" stroke="#76511f" stroke-width="2.5" stroke-linecap="round"/><path d="M294.26446,95.80702l25.15446,-58.69373l26.91968,57.81113z" fill="url(#color-3)" stroke="#000000" stroke-width="0" stroke-linecap="butt"/><path d="M321.60517,63.31143c-0.34801,3.54869 -3.39627,6.15418 -6.80847,5.81955c-3.41219,-0.33463 -5.89621,-3.48267 -5.54819,-7.03135c0.34801,-3.54868 3.39626,-6.15419 6.80846,-5.81956c3.41219,0.33463 5.89621,3.48267 5.5482,7.03137z" fill="#1dff00" stroke="#000000" stroke-width="0" stroke-linecap="butt"/><path d="M339.22406,81.71665c0,3.56571 -2.7794,6.45629 -6.20797,6.45629c-3.42856,0 -6.20797,-2.89058 -6.20797,-6.45629c0,-3.56571 2.7794,-6.45628 6.20797,-6.45628c3.42856,0 6.20797,2.89057 6.20797,6.45628z" fill="#fa00ff" stroke="#000000" stroke-width="0" stroke-linecap="butt"/><path d="M312.32286,87.92462c0,3.56571 -2.7794,6.45629 -6.20797,6.45629c-3.42856,0 -6.20797,-2.89058 -6.20797,-6.45629c0,-3.56571 2.7794,-6.45628 6.20797,-6.45628c3.42856,0 6.20797,2.89057 6.20797,6.45628z" fill="#0007ff" stroke="#000000" stroke-width="0" stroke-linecap="butt"/><g stroke="none" stroke-width="0.5" stroke-linecap="butt"><path d="M295.46203,118.06613l2.43086,0.74016l8.18812,3.61939l-7.84751,11.64977l-0.07008,0.0332l-16.84406,-2.57065l2.30149,-12.39651l9.72103,-0.94174l2.08453,-0.10987z" fill="#ffffff"/><path d="M343.17736,133.95281l-0.1158,-0.02967h-1.84116l-11.24286,-6.11132l8.8859,-11.4471l2.89071,-0.33496l2.09684,-0.41383l1.52992,0.21559l2.1511,0.05096l6.98752,0.02574l6.91109,14.1612l-13.16071,3.32101z" fill="#ffffff"/><path d="M299.83477,117.4726l1.78603,0.78519l2.40125,10.14747l-21.63315,5.86925l-1.30847,-6.94663l0.76663,-5.62134l17.88555,-4.25946z" fill="#000000"/><path d="M357.79132,126.59779l-14.2326,9.51754l-9.46304,-13.52675l1.63597,-4.1088l15.13429,-5.20215l3.09384,0.95203l3.88595,12.24942z" fill="#000000"/><path d="M293.01244,120.6885l1.23096,0.54501l4.14637,2.66508l-3.97388,8.57813l-0.03549,0.02444l-8.52963,-1.89286l1.16544,-9.12798l4.92261,-0.69343l1.05558,-0.0809z" fill="#ffffff"/><path d="M348.57841,117.7967l1.23096,0.54501l4.14637,2.66508l-3.97388,8.57812l-0.03548,0.02445l-8.52963,-1.89286l1.16545,-9.12798l4.92261,-0.69343l1.05558,-0.08091z" fill="#ffffff"/><path d="M363.74079,123.43643l0.48408,0.21433l1.63058,1.04806l-1.56275,3.37339l-0.01395,0.00961l-3.35432,-0.74438l0.45832,-3.58963l1.93584,-0.2727l0.41511,-0.03182z" fill="#ffffff"/><path d="M330.30478,121.12921l0.48408,0.21432l1.63058,1.04806l-1.56275,3.37339l-0.01396,0.00961l-3.35432,-0.74437l0.45832,-3.58963l1.93584,-0.27269l0.41512,-0.03182z" fill="#ffffff"/><path d="M308.99879,123.20632l0.48408,0.21433l1.63058,1.04805l-1.56275,3.3734l-0.01396,0.00961l-3.35432,-0.74438l0.45832,-3.58962l1.93584,-0.27269l0.41512,-0.03182z" fill="#ffffff"/><path d="M278.4857,124.40657l0.48408,0.21433l1.63058,1.04805l-1.56275,3.3734l-0.01396,0.00961l-3.35432,-0.74437l0.45831,-3.58962l1.93585,-0.27269l0.41512,-0.03182z" fill="#ffffff"/></g><g fill="none" stroke-opacity="0.36471" stroke="#000000" stroke-width="2.5" stroke-linecap="round"><path d="M366.19787,222.35858l-5.29568,96.64607"/><path d="M381.20228,230.30208l-14.5631,-1.32391"/><path d="M371.49354,281.49361l-8.82613,-0.88262"/><path d="M374.14138,261.19353h-10.59136"/><path d="M362.22611,305.32416h3.97176"/></g></g></g></svg>