<svg version="1.1" xmlns="http://www.w3.org/2000/svg" xmlns:xlink="http://www.w3.org/1999/xlink" width="186.0796" height="381.11527" viewBox="0,0,186.0796,381.11527"><g transform="translate(-226.60576,-22.7065)"><g data-paper-data="{&quot;isPaintingLayer&quot;:true}" fill-rule="nonzero" stroke-width="2" stroke-linejoin="miter" stroke-miterlimit="10" stroke-dasharray="" stroke-dashoffset="0" style="mix-blend-mode: normal"><path d="M291.96557,230.37291c5.5527,-1.93993 12.97266,-6.21412 18.48476,-9.40578c6.0101,-3.48 14.35223,-4.54753 20.59807,-6.52653c3.66891,-1.1625 14.95907,-3.62699 14.95907,-3.62699l2.65865,7.34201l7.87388,23.72453l2.58246,29.45182c0,0 4.54931,36.92102 1.19328,57.24436c-1.46757,8.88729 7.06749,16.33204 -1.23984,24.11291c-2.94172,2.75527 -9.85822,16.54885 -13.23622,17.61916c-4.90046,1.55272 -11.30068,-4.64049 -17.40049,-4.52125c-7.76678,0.15181 -23.30013,9.75838 -23.30013,9.75838l-8.62448,-7.13554l0.15556,-27.70162c0,0 -2.0874,-40.51632 -2.58032,-66.92736c-0.16196,-8.67852 -6.25161,-35.99019 -3.49972,-42.97087z" fill="#3c2c1f" stroke="#000000" stroke-linecap="round"/><path d="M323.10671,238.58853l6.20142,125.42289" fill="none" stroke="#000000" stroke-linecap="round"/><path d="M331.59104,372.76442c0.77694,14.14448 0.80718,26.35342 -9.74163,29.69583c-10.54881,3.34241 -28.45899,-17.59188 -28.45899,-17.59188c0,0 7.14474,-28.32044 17.69354,-31.66284c10.54881,-3.34241 19.73014,5.41439 20.50708,19.55891z" fill="#000000" stroke="#000000" stroke-linecap="butt"/><path d="M369.04679,356.57363c0.77695,14.1445 -1.44769,27.62043 -11.9965,30.96285c-10.5488,3.34241 -25.42718,-4.7144 -26.20413,-18.8589c-0.77695,-14.1445 7.14474,-28.32044 17.69354,-31.66284c10.54881,-3.34241 19.73015,5.41439 20.50709,19.55889z" fill="#000000" stroke="#000000" stroke-linecap="butt"/><path d="M311.92662,214.87143c-7.37045,4.33778 -27.73664,1.44085 -27.73664,1.44085l-56.33427,-49.80473l23.01936,-43.85554l20.94921,-3.33294l0.91076,6.7751l-12.6897,10.84049l-5.43752,39.09729c0,0 29.22064,16.91998 44.85907,13.00921c8.084,-2.02162 15.75482,-6.85688 24.50901,-5.59078c25.95439,3.75373 4.05827,27.09151 -10.80086,31.57992z" fill="#feed00" stroke="#000000" stroke-linecap="round"/><g><path d="M350.61948,201.03401l13.38649,-13.04565l16.72414,22.62743l-2.39851,6.45163l-2.57175,-1.75535l0.85446,5.18148l-2.97938,8.88208l-5.54909,-4.64073l-7.6079,5.46349l-6.08586,-12.62017c0,0 -5.07693,3.85752 -9.02635,-2.66436c-3.63236,-5.99836 5.02548,-14.14727 5.02548,-14.14727z" fill="#feed00" stroke="#000000" stroke-linecap="round"/><path d="M370.9297,206.3451l-2.30925,4.07695l-4.57156,-3.18664l-4.05636,-2.57095l3.74397,-7.12249l6.78355,-3.83087l0.40965,12.63397z" fill="#ffa600" stroke="none" stroke-linecap="butt"/><path d="M351.97744,212.74962c0,0 -1.61528,3.58507 -3.42507,2.74107c-1.80977,-0.84401 -3.21054,-3.43963 -3.12871,-5.79748c0.08183,-2.35785 1.61528,-3.58507 3.42506,-2.74107c1.80977,0.84401 3.12872,5.79747 3.12872,5.79747z" fill="#ffa600" stroke="none" stroke-linecap="butt"/><path d="M365.25557,225.9412l-3.38214,2.70324l-3.08973,-5.72145l3.38214,-2.70325l3.08973,5.72145z" fill="#ffa600" stroke="none" stroke-linecap="butt"/><path d="M374.83378,223.40883l-2.8067,2.91376l-2.51823,-5.39709l2.8067,-2.91376z" fill="#ffa600" stroke="none" stroke-linecap="butt"/><path d="M379.77127,210.67177l-1.93862,3.08722l-1.66596,-4.76824l1.93862,-3.08722z" fill="#ffa600" stroke="none" stroke-linecap="butt"/></g><g><path d="M286.90422,212.749c3.34989,-0.75835 10.22479,6.06766 7.98602,12.71313c-2.43417,7.22549 -6.99762,3.33883 -8.22938,4.56629c-0.2372,0.23636 3.41952,11.26617 0.86998,13.93095c-4.71184,4.92488 -8.61519,-3.67538 -8.61519,-3.67538l-4.40515,5.73787l-4.84232,-8.01996l-4.3557,-5.53148l1.93343,2.5616l-7.8072,-6.06266l16.00042,-25.37826c0,0 8.07403,6.41454 11.30057,9.46858z" fill="#feed00" stroke="#000000" stroke-linecap="round"/><path d="M270.32784,210.59526l7.45505,2.26146l0.59946,5.78769l-3.39905,3.39268l-3.76778,4.1058l-3.14174,-3.47614l2.25408,-12.07149z" fill="#ffa600" stroke="none" stroke-linecap="butt"/><path d="M289.75689,218.45012c1.5825,-1.21791 3.34643,-0.35412 3.93984,1.92932c0.5934,2.28344 -0.20843,5.12182 -1.79095,6.33972c-1.5825,1.21791 -3.34645,0.35414 -3.93985,-1.9293c-0.5934,-2.28344 0.20843,-5.12182 1.79096,-6.33973z" fill="#ffa600" stroke="none" stroke-linecap="butt"/><path d="M283.71021,234.58792c0,0 3.30422,-0.35123 3.8897,1.90174c0.58549,2.25297 -0.20673,5.05435 -1.76946,6.25702c-1.56273,1.20266 -3.8897,-1.90174 -3.8897,-1.90174z" fill="#ffa600" stroke="none" stroke-linecap="butt"/><path d="M269.26212,234.35517l7.43508,2.5208l-1.28235,5.81599l-3.37393,-2.23253z" fill="#ffa600" stroke="none" stroke-linecap="butt"/><path d="M260.97423,223.7986l2.56446,2.59089l-0.58747,5.01661l-2.56446,-2.59089z" fill="#ffa600" stroke="none" stroke-linecap="butt"/></g><path d="M290.87626,192.3572c-0.95299,6.49197 -7.878,24.96107 -7.878,24.96107l-25.24584,-3.22278l6.61519,-22.39134l12.44618,-56.51467c0,0 5.20271,-9.09203 6.56495,-14.00023l1.17319,-0.08436c13.24522,1.17294 25.55257,5.71567 39.14929,2.64767c5.44161,-1.22785 9.27639,-3.60426 12.86382,-7.8719c0.82022,-0.97574 3.24107,-3.36998 4.78695,-2.57553c3.4793,1.78807 8.42595,13.04726 8.42595,13.04726l20.14277,43.52506l6.46698,15.54644l-17.08646,18.18538l-5.22791,3.50515l-1.84408,-23.69616l-0.16503,24.97651l2.04511,13.92594c0,0 -9.92171,4.85268 -12.75684,5.48435c-11.46831,2.55512 -23.69137,1.63403 -35.14638,4.2257c-3.72326,0.84236 -8.89171,4.99224 -12.44715,3.55175c-1.89494,-0.76775 -5.62495,-6.61914 -5.81636,-8.35573c-0.84266,-7.64528 -2.99329,-16.29446 -2.32056,-23.95272" fill="#fffe8a" stroke="#000000" stroke-linecap="round"/><path d="M289.62568,112.15389c13.70229,-3.99625 27.00012,-8.02419 41.41244,-8.47659c3.07358,-0.09648 13.8374,-0.13585 13.54641,4.648c-0.39549,6.50172 -6.28264,10.50436 -11.92122,12.53364c-10.16501,3.65833 -34.72693,7.19313 -44.72622,2.75599c-7.11647,-3.15789 -6.19179,-10.8118 1.80803,-11.69354z" fill="#fffe8a" stroke="#000000" stroke-linecap="round"/><path d="M302.71632,161.85297c1.28894,0.37505 4.67777,-0.25607 5.32465,1.21981c2.16961,4.94991 -1.30381,9.98645 -6.23526,9.49268c-3.28381,-0.32879 1.21746,-11.45778 1.21746,-11.45778c0,0 -2.2813,-23.63916 -1.0439,-35.34757" fill="#ffaf36" stroke="#000000" stroke-linecap="round"/><path d="M329.35984,159.52448c8.35877,-11.68888 10.26406,16.95301 -0.30094,10.00663c-5.72018,-3.76096 0.33945,-8.48222 0.56538,-11.04058c1.0664,-12.07594 -5.29302,-24.18535 -3.03956,-36.55809" fill="#ffaf36" stroke="#000000" stroke-linecap="round"/><path d="M294.24634,194.61664c3.20995,-3.20429 7.65286,-3.16644 11.76208,-4.28803c13.25362,-3.61757 28.41502,-4.38574 42.10499,-3.68717" fill="none" stroke="#000000" stroke-linecap="round"/><path d="M349.20637,218.42214c-1.07952,-8.83361 1.23357,-27.98477 1.23357,-27.98477" fill="none" stroke="#000000" stroke-linecap="round"/><path d="M295.21003,198.79096c0.93295,8.46445 -2.1098,18.15909 -1.37926,26.62763" fill="none" stroke="#000000" stroke-linecap="round"/><path d="M294.29356,121.51857c-2.70595,-0.62542 -4.75631,-2.98888 -7.30351,-4.15906" fill="none" stroke="#fcec41" stroke-linecap="round"/><path d="M336.59988,114.50894c1.50088,-1.25661 2.92131,-2.27636 4.65096,-3.19958" fill="none" stroke="#fcec41" stroke-linecap="round"/><path d="M309.8984,129.96764l1.05003,9.52672" fill="none" stroke="#fcec41" stroke-linecap="round"/><path d="M314.28015,137.71607l-0.53783,-4.87955" fill="none" stroke="#fcec41" stroke-linecap="round"/><path d="M318.30895,135.8609l-1.10684,-3.64091" fill="none" stroke="#fcec41" stroke-linecap="round"/><path d="M274.51963,216.63148l13.27014,-39.8364l-7.60316,38.70819z" fill="#fce541" stroke="#fcec41" stroke-linecap="round"/><path d="M274.51963,216.63148l13.27014,-39.8364l-7.60316,38.70819z" fill="#fce541" stroke="#fcec41" stroke-linecap="round"/><path d="M356.61784,203.03815l-6.08411,-30.38897l15.69197,23.57599z" fill="#fce541" stroke="#fcec41" stroke-linecap="round"/><g stroke-linecap="butt"><path d="M376.22993,80.58989l-35.63789,-11.35515l-14.98255,-2.93889l2.17064,-0.49037l17.38122,-3.72349l43.92119,-7.10859l17.5383,-1.61117l0.11179,1.97168l-16.10793,15.01976l-14.07154,10.98114z" fill="#feed00" stroke="#000000"/><path d="M373.88767,75.94168l-25.25884,-6.13964l-10.42236,-1.39474l1.41174,-0.39031l11.32612,-2.99395l28.86699,-6.07807l11.65857,-1.63346l0.28681,1.27107l-9.25594,10.25489l-8.31522,7.57491z" fill="#ffa700" stroke="none"/></g><g stroke-linecap="butt"><path d="M379.37975,116.42549l14.1936,6.52657c0,0 11.3831,6.28941 16.79878,9.58716c1.05397,0.64177 2.15968,0.81072 0.35049,1.72685c-2.82328,1.42964 -14.97346,2.29737 -14.97346,2.29737l-38.1896,3.09788l-15.31787,0.43948l-1.91865,0.03296c0,0 10.55976,-5.16966 11.82052,-5.69055c11.4722,-4.73964 27.13456,-17.30627 27.13456,-17.30627z" fill="#feed00" stroke="#000000"/><path d="M378.5149,121.17593l8.63168,4.79482l10.01837,6.91216l0.04704,1.15842l-10.08014,1.04129l-25.4163,0.82143c0,0 -6.73905,-0.19725 -10.10928,-0.20398c-0.4234,-0.00085 -1.12015,0.17492 -1.26393,-0.04023c-0.34627,-0.5182 7.48544,-3.09211 8.36891,-3.39729c8.03921,-2.77694 19.66138,-10.61733 19.66138,-10.61733z" fill="#ffa700" stroke="none"/></g><path d="M380.57086,95.59697l-4.84557,30.93006c0,0 -13.00331,7.18776 -21.30018,9.84249c-2.54821,0.81534 -7.18099,3.39457 -7.18099,3.39457c0,0 -39.54008,-3.72697 -43.45746,-24.761c-3.28099,-17.61695 13.35327,-50.17079 13.35327,-50.17079l32.1903,-1.23953l11.86954,0.59211l19.12545,31.7858z" fill="#feed00" stroke="#000000" stroke-linecap="butt"/><path d="M342.63589,136.59184c-0.05612,4.30546 -9.93727,11.91582 -9.93727,11.91582l-4.15384,-7.28076l-2.34671,1.57804l-8.29767,1.70425c0,0 -4.19196,-10.76271 -1.49713,-13.96492" fill="#feed00" stroke="#000000" stroke-linecap="round"/><path d="M309.07097,72.54382l-0.68025,-14.02847l8.46139,0.40072l2.5625,1.1962l2.97808,-7.8355l11.66028,10.23591" fill="#feed00" stroke="#000000" stroke-linecap="round"/><path d="M337.50286,61.53246l14.50713,-37.82596" fill="none" stroke="#000000" stroke-linecap="round"/><path d="M336.30339,61.97835l1.89493,-32.36948" fill="none" stroke="#000000" stroke-linecap="round"/><path d="M330.66237,34.75215l5.22238,26.37722" fill="none" stroke="#000000" stroke-linecap="round"/><path d="M344.97056,139.40742l20.93479,28.88381" fill="none" stroke="#000000" stroke-linecap="round"/><path d="M343.88986,136.8469c8.65674,10.32209 6.30531,33.08767 6.30531,33.08767" fill="none" stroke="#000000" stroke-linecap="round"/><path d="M342.76054,140.46084l-2.21782,27.39457" fill="none" stroke="#000000" stroke-linecap="round"/><path d="M330.65202,96.08782c0.28847,3.70881 0.83269,7.59508 0.65996,11.31279c-0.02193,0.47185 0.24091,1.25812 -0.20916,1.40156c-0.58955,0.18789 -4.86958,-6.16553 -4.87219,-6.93494c-0.00587,-1.7302 3.15982,-4.58473 4.4538,-5.36262z" fill="#000000" stroke="#000000" stroke-linecap="round"/><path d="M349.33012,95.60199c-7.05682,0.54889 -13.21572,-4.64015 -13.7563,-11.59004c-0.54058,-6.94989 11.7987,-13.57775 11.7987,-13.57775c0,0 13.21572,4.64014 13.75629,11.59002c0.54058,6.94989 -4.74187,13.02887 -11.79869,13.57777z" fill="#ffffff" stroke="#000000" stroke-linecap="butt"/><path d="M352.47081,130.53182c-7.05682,0.54889 -13.21572,-4.64014 -13.75629,-11.59002c-0.54058,-6.94989 4.74188,-13.02885 11.79869,-13.57775c7.05682,-0.54889 13.21572,4.64014 13.75629,11.59002c0.54058,6.94989 -4.74188,13.02885 -11.79869,13.57775z" fill="#ffffff" stroke="#000000" stroke-linecap="butt"/><path d="M373.29148,78.37853l6.72382,7.44604l2.05823,3.57237l1.84959,-4.89925l3.09083,13.56048l0.33419,4.23813l3.05993,-6.07216l-0.86546,5.53699l-9.71629,12.04547" fill="#feed00" stroke="#000000" stroke-linecap="butt"/><path d="M355.5292,66.16336l4.57848,-4.56197l2.62626,-5.96193l4.02008,7.09749l3.78971,7.55564" fill="#feed00" stroke="#000000" stroke-linecap="butt"/></g></g></svg>