<svg version="1.1" xmlns="http://www.w3.org/2000/svg" xmlns:xlink="http://www.w3.org/1999/xlink" width="152.1905" height="312.25976" viewBox="0,0,152.1905,312.25976"><defs><radialGradient cx="315.55436" cy="237.12937" r="89.41619" gradientUnits="userSpaceOnUse" id="color-1"><stop offset="0" stop-color="#bebebe"/><stop offset="1" stop-color="#dadada"/></radialGradient><linearGradient x1="321.93522" y1="172.99658" x2="321.21165" y2="238.70573" gradientUnits="userSpaceOnUse" id="color-2"><stop offset="0" stop-color="#fff800"/><stop offset="1" stop-color="#d97200"/></linearGradient><linearGradient x1="268.2315" y1="90.8798" x2="267.34452" y2="171.42938" gradientUnits="userSpaceOnUse" id="color-3"><stop offset="0" stop-color="#fff800"/><stop offset="1" stop-color="#d97200"/></linearGradient><linearGradient x1="378.38919" y1="91.25493" x2="377.50222" y2="171.80451" gradientUnits="userSpaceOnUse" id="color-4"><stop offset="0" stop-color="#fff800"/><stop offset="1" stop-color="#d97200"/></linearGradient><linearGradient x1="323.64258" y1="76.00802" x2="322.47063" y2="182.43719" gradientUnits="userSpaceOnUse" id="color-5"><stop offset="0" stop-color="#dadada"/><stop offset="1" stop-color="#bebebe"/></linearGradient><linearGradient x1="321.76427" y1="101.02699" x2="321.37132" y2="136.71251" gradientUnits="userSpaceOnUse" id="color-6"><stop offset="0" stop-color="#f1de00"/><stop offset="1" stop-color="#f28f00"/></linearGradient><linearGradient x1="250.5711" y1="55.73516" x2="276.221" y2="102.49543" gradientUnits="userSpaceOnUse" id="color-7"><stop offset="0" stop-color="#fff800"/><stop offset="1" stop-color="#d97200"/></linearGradient><linearGradient x1="374.81961" y1="50.53385" x2="372.52658" y2="104.34569" gradientUnits="userSpaceOnUse" id="color-8"><stop offset="0" stop-color="#fff800"/><stop offset="1" stop-color="#d97200"/></linearGradient><radialGradient cx="249.88412" cy="52.96256" r="7.8102" gradientUnits="userSpaceOnUse" id="color-9"><stop offset="0" stop-color="#ffffff"/><stop offset="1" stop-color="#00b5ff"/></radialGradient><radialGradient cx="374.61414" cy="47.95624" r="7.8102" gradientUnits="userSpaceOnUse" id="color-10"><stop offset="0" stop-color="#ffffff"/><stop offset="1" stop-color="#00b5ff"/></radialGradient><linearGradient x1="352.6671" y1="189.51585" x2="382.9689" y2="188.14949" gradientUnits="userSpaceOnUse" id="color-11"><stop offset="0" stop-color="#fff800"/><stop offset="1" stop-color="#d97200"/></linearGradient><linearGradient x1="291.51579" y1="188.63112" x2="261.3119" y2="186.59849" gradientUnits="userSpaceOnUse" id="color-12"><stop offset="0" stop-color="#fff800"/><stop offset="1" stop-color="#d97200"/></linearGradient></defs><g transform="translate(-241.78825,-39.69018)"><g stroke-miterlimit="10"><path d="M277.09715,346.02233l-0.33344,-147.28839c0,0 6.36589,-25.62967 15.37638,-25.93571c8.94814,-0.30391 30.15345,-0.62707 48.67957,-1.2563c20.09374,-0.68247 26.05485,26.26315 26.05485,26.26315l-1.46493,152.82854z" fill="url(#color-1)" stroke="#000000" stroke-width="2.5" stroke-linecap="butt"/><path d="M289.81825,214.65387l0.46255,-42.00585l63.30882,0.69713l-0.46255,42.00585l-31.46536,23.35969z" fill="url(#color-2)" stroke="#000000" stroke-width="2.5" stroke-linecap="butt"/><g stroke="#000000" stroke-width="2.5"><path d="M262.00246,171.37055l-9.00879,-80.65855l21.17598,7.9219l8.50027,65.01036z" fill="url(#color-3)" stroke-linecap="butt"/><path d="M271.37864,103.96116l7.25568,55.49176" fill="none" stroke-linecap="round"/></g><g stroke="#000000" stroke-width="2.5"><path d="M363.44758,163.69589l7.97058,-64.82899l21.11324,-7.45624l-8.35144,80.46738z" fill="url(#color-4)" stroke-linecap="butt"/><path d="M374.25289,104.25612l-6.80355,55.33694" fill="none" stroke-linecap="round"/></g><path d="M377.6792,132.04888c-2.2546,28.46506 -28.50958,52.61787 -58.66776,50.22916c-30.15819,-2.3887 -52.7993,-30.41438 -50.5447,-58.87943c2.2546,-28.46505 28.53038,-49.60413 58.68856,-47.2154c30.15819,2.3887 52.77853,27.40062 50.52392,55.86567z" fill="url(#color-5)" stroke="#000000" stroke-width="2.5" stroke-linecap="butt"/><path d="M264.84149,131.93498l0.30752,-27.92742c0,0 38.05741,-3.18491 56.97561,-2.97659c18.79808,0.207 56.17554,4.22255 56.17554,4.22255l-0.30752,27.92743c0,0 -36.84913,3.74929 -55.44757,3.54449c-19.10499,-0.21037 -57.70358,-4.79047 -57.70358,-4.79047z" fill="url(#color-6)" stroke="#000000" stroke-width="2.5" stroke-linecap="butt"/><path d="M280.80258,131.43038c0,0 -11.25808,-11.53064 -11.235,-13.62691c0.04336,-3.93756 11.50611,-10.99359 11.50611,-10.99359c0,0 26.40401,-2.78887 39.92833,-2.63994c13.99235,0.15408 42.66947,3.54947 42.66947,3.54947c0,0 11.57796,6.52584 11.53763,10.18826c-0.04852,4.40613 -11.80873,14.43224 -11.80873,14.43224c0,0 -28.30558,2.53104 -42.26095,2.37738c-13.56623,-0.14939 -40.33687,-3.2869 -40.33687,-3.2869z" fill="#000000" stroke="none" stroke-width="0" stroke-linecap="butt"/><path d="M272.67433,104.40177l-25.6499,-46.76025l7.09334,-3.81272l25.64991,46.76026z" fill="url(#color-7)" stroke="#000000" stroke-width="2.5" stroke-linecap="butt"/><path d="M368.50241,104.20635l2.29304,-53.81184l8.04832,0.27866l-2.29303,53.81183z" fill="url(#color-8)" stroke="#000000" stroke-width="2.5" stroke-linecap="butt"/><path d="M256.73,49.4865c1.75427,3.45494 0.11139,7.81201 -3.66948,9.73177c-3.78087,1.91976 -8.268,0.67526 -10.02227,-2.77968c-1.75427,-3.45494 -0.11139,-7.81201 3.66948,-9.73177c3.78087,-1.91976 8.268,-0.67526 10.02227,2.77968z" fill="url(#color-9)" stroke="#000000" stroke-width="2.5" stroke-linecap="butt"/><path d="M382.29149,48.04077c-0.04266,3.87456 -3.51452,6.97767 -7.75462,6.93098c-4.24008,-0.04669 -7.64277,-3.22549 -7.60011,-7.10006c0.04266,-3.87456 3.51452,-6.97768 7.75462,-6.93099c4.24008,0.04669 7.64277,3.2255 7.60011,7.10007z" fill="url(#color-10)" stroke="#000000" stroke-width="2.5" stroke-linecap="butt"/><path d="M279.68473,135.02685l3.72415,27.52071" fill="none" stroke="#000000" stroke-width="2.5" stroke-linecap="round"/><path d="M367.09057,135.75244l-6.02905,31.2036" fill="none" stroke="#000000" stroke-width="2.5" stroke-linecap="round"/><path d="M356.92171,155.66971c0,0 4.01925,2.48221 -3.95222,4.82165c-6.53412,1.91761 -24.62291,3.78617 -30.01639,3.7167c-5.41249,-0.06971 -23.65025,-2.38825 -31.00945,-4.65249c-7.84897,-2.41494 -4.65887,-4.78284 -4.65887,-4.78284" fill="none" stroke="#000000" stroke-width="2.5" stroke-linecap="round"/><path d="M304.17667,225.65578l-8.8298,-48.78866" fill="none" stroke="#000000" stroke-width="2.5" stroke-linecap="round"/><path d="M347.92571,177.91988l-8.62551,48.50526" fill="none" stroke="#000000" stroke-width="2.5" stroke-linecap="round"/><path d="M370.50484,203.87963l-19.37101,0.87347l3.06654,-30.47451l19.37101,-0.87347l9.41932,14.52773z" fill="url(#color-11)" stroke="#000000" stroke-width="2.5" stroke-linecap="butt"/><path d="M261.3026,186.3815l10.25008,-14.31113l19.30841,1.29939l1.30939,30.5227l-19.30841,-1.29939z" fill="url(#color-12)" stroke="#000000" stroke-width="2.5" stroke-linecap="butt"/><path d="M307.50568,79.45602l-2.92505,20.37311" fill="none" stroke-opacity="0.54902" stroke="#000000" stroke-width="2.5" stroke-linecap="round"/><path d="M341.21431,100.76933l-4.86283,-21.65918" fill="none" stroke-opacity="0.54902" stroke="#000000" stroke-width="2.5" stroke-linecap="round"/><path d="M322.3973,99.96198l0.12805,-23.10461" fill="none" stroke-opacity="0.54902" stroke="#000000" stroke-width="2.5" stroke-linecap="round"/><path d="M352.05537,160.24065l-31.62352,10.53895l-33.73735,-13.89798" fill="none" stroke="#000000" stroke-width="2.5" stroke-linecap="round"/><path d="M296.20698,120.47617l6.08291,-11.83812l5.81596,12.40469" fill="none" stroke="#ffffff" stroke-width="2.5" stroke-linecap="round"/><path d="M334.88142,121.25644l6.0829,-11.83812l5.81596,12.4047" fill="none" stroke="#ffffff" stroke-width="2.5" stroke-linecap="round"/></g></g></svg>