<svg version="1.1" xmlns="http://www.w3.org/2000/svg" xmlns:xlink="http://www.w3.org/1999/xlink" width="102.16022" height="225.97388" viewBox="0,0,102.16022,225.97388"><g transform="translate(-268.15932,-109.62807)"><g stroke-miterlimit="10"><g stroke="none" stroke-width="0.5" stroke-linecap="butt"><path d="M315.53556,214.90752c-4.98453,0.97503 -9.78775,4.3597 -14.3813,6.53453c-1.80486,0.85451 -4.54443,1.07214 -5.86254,2.76841c-6.67281,2.417 -7.98365,10.57818 -8.56809,18.25722c-0.09824,1.29084 -0.5511,2.50863 -0.70181,3.79172c-0.36828,3.13584 0.0094,6.68773 0.0094,9.85996c0,6.99407 0.70642,13.58516 1.61392,20.45951c0.59035,4.47198 0.00941,9.66141 0.00941,14.20394c0,6.71092 0.2319,13.34579 0.2319,20.05325c0,4.05612 -0.4177,8.50339 0.22716,12.48648c0.00626,2.05036 0.07149,3.99374 0.23191,6.01596c0.03825,0.4823 -0.30854,2.83159 0.15444,3.24475c1.03597,0.92449 3.02566,0.54203 4.21129,0.54203c4.03731,0 6.27477,-0.56557 7.14856,-6.07858c-0.01997,-6.7527 0.04789,-13.43294 -0.91641,-20.00465c-0.30509,-2.07917 -0.41032,-4.40094 -0.24785,-6.51909c0.05878,-0.76626 -0.15564,-1.73785 0.28493,-2.28211c0.65322,-0.80694 3.48011,-0.35197 4.39831,-0.35197c2.25314,0.06202 4.77502,-0.61834 7.12006,-0.8564c6.49495,-0.65933 13.26025,-0.00302 19.78074,-0.00302c3.26502,0 6.48002,0.28647 9.73996,0.28647c0.86256,0 3.45732,-0.38756 4.09528,0.27238c0.44434,0.45963 0.78071,3.65306 0.81741,4.28184c0.23832,4.08425 0.00245,8.30617 0.00245,12.4036c0,4.07846 -0.08703,8.16165 0.22717,12.20001c0.04755,0.61122 0.0804,3.05338 0.28492,3.4264c0.20063,0.36595 3.29919,0.0739 3.3851,0.0739c3.38089,0 7.01679,0.4964 10.26873,-0.85909c4.51603,-10.41911 2.71101,-22.7204 2.67269,-34.03504c0,-12.45947 -1.61135,-24.34415 -3.01229,-36.5836c0.03307,-2.14251 -0.77596,-4.08279 -0.92675,-6.28851c-0.63381,-9.27138 -2.91636,-17.54926 -4.39059,-26.50562c-0.57366,-3.82149 -3.40511,-4.69308 -6.04851,-5.67271c-5.01896,-1.86001 -10.84346,-4.2274 -16.11187,-4.26281c-4.33355,-1.78445 -9.8917,-0.84391 -14.4541,-0.84391h-1.15953c0,0 -0.05294,0 -0.13413,-0.01526zM318.83065,212.47418c4.21792,-0.16545 8.95133,-0.64993 12.7643,0.92015c2.36216,-0.01744 4.45696,0.56666 6.65319,1.4819c5.47767,2.28271 15.58346,1.45769 17.10334,10.35465c1.43619,9.04597 3.79871,17.40891 4.42175,26.77872c0.14986,2.25371 0.90095,4.08632 0.92847,6.31637c1.43646,12.2847 3.01719,24.24616 3.01719,36.75396c-0.00547,1.39613 0.30976,2.76597 0.45652,4.1503c0.4832,4.55811 0.25317,10.39637 -0.48254,14.74667c-0.21154,1.25092 0.09696,2.55903 0.02272,3.83366c-0.28256,4.85084 -1.22744,9.04593 -3.35349,13.13419c-3.64853,1.9531 -7.63317,1.43272 -11.53019,1.43272c-1.46078,0 -3.8143,0.46312 -4.96343,-1.072c-0.37612,-0.50245 -0.58029,-3.84979 -0.6427,-4.59489c-0.34459,-4.1135 -0.23664,-8.28248 -0.23664,-12.43683c0,-3.4377 -0.0023,-6.87541 0,-10.3131c0.00031,-0.46008 0.09873,-4.30674 -0.10776,-4.51369c-0.01778,-0.01781 -2.62391,0.27238 -2.86181,0.27238c-3.26068,0 -6.47492,-0.28647 -9.73996,-0.28647c-6.46962,0 -13.2005,-0.67589 -19.64283,-0.00302c-2.44262,0.25512 -4.88699,0.81524 -7.25797,0.86245c-0.85031,0 -1.71039,0.15879 -2.55093,0c-0.18157,-0.0343 -0.34177,-0.51242 -0.47164,-0.35197c-0.3903,0.48215 0.28492,1.33319 0.28492,2.01502c0,1.6006 -0.01755,3.07173 0.21596,4.65342c1.00042,6.77618 0.95678,13.7103 0.93883,20.67478c-0.47026,2.86359 -1.68395,6.83358 -4.13091,7.89363c-1.5314,0.66341 -3.35947,0.35153 -4.95376,0.35153c-1.67854,0 -4.16424,0.36023 -5.52865,-1.17682c-1.64727,-1.85571 -1.01424,-8.25344 -1.00509,-10.79253c-0.65698,-4.05794 -0.23664,-8.59108 -0.23664,-12.7233c0,-6.70715 -0.23189,-13.34215 -0.23189,-20.05325c0,-4.40768 0.60822,-9.54219 0.0094,-13.87059c-0.9636,-6.96514 -1.63273,-13.69746 -1.63273,-20.79286c0,-10.99963 -0.49618,-30.30356 10.21941,-33.98033c1.49446,-1.78097 4.25465,-2.03499 6.19645,-2.96108c5.62963,-2.6849 11.52197,-6.94505 17.71913,-6.94505c0,0 0.33355,0 0.61003,0.24127z" fill="#000000"/><path d="M315.663,214.87542l1.16043,-0.00019c4.5624,0 10.13227,-0.9405 14.46582,0.84395c5.2684,0.03542 11.10537,2.40795 16.12431,4.26796c2.64339,0.97963 5.47988,1.85521 6.05354,5.67669c1.47422,8.95634 3.76787,17.25044 4.40168,26.52182c0.15079,2.20571 0.96192,4.15192 0.92885,6.29443c1.40094,12.23945 3.01113,24.16024 3.01113,36.61971c0.03833,11.31463 1.83193,23.6339 -2.68408,34.05301c-3.25196,1.35548 -6.89321,0.86344 -10.27411,0.86344c-0.08591,0 -3.18649,0.29334 -3.38712,-0.07261c-0.20452,-0.37302 -0.27134,-2.90168 -0.31889,-3.5129c-0.31419,-4.03836 -0.23084,-8.11898 -0.23084,-12.19745c0,-4.09743 0.23046,-8.31417 -0.00787,-12.39841c-0.03669,-0.62878 -0.31847,-3.75376 -0.76281,-4.21341c-0.63796,-0.65992 -3.23578,-0.26883 -4.09834,-0.26883c-3.25993,0 -6.48767,-0.2776 -9.7527,-0.2776c-6.5205,0 -13.32098,-0.66293 -19.81592,-0.0036c-2.34503,0.23805 -4.87248,0.91237 -7.12561,0.85037c-0.91821,0 -3.74732,-0.45819 -4.40054,0.34875c-0.44057,0.54426 -0.1659,1.455 -0.22468,2.22127c-0.16248,2.11814 -0.06031,4.43596 0.24478,6.51513c0.9643,6.57171 0.88891,13.24515 0.90888,19.99786c-0.87381,5.51301 -3.15161,6.16073 -7.18892,6.16073c-1.18563,0 -3.17736,0.38071 -4.21331,-0.54379c-0.46298,-0.41316 -0.11709,-2.76332 -0.15535,-3.24562c-0.16041,-2.02222 -0.22743,-3.96747 -0.23369,-6.01783c-0.64486,-3.98309 -0.23116,-8.43549 -0.23116,-12.49162c0,-6.70746 -0.23835,-13.35608 -0.23835,-20.067c0,-4.54254 0.57853,-9.74603 -0.01182,-14.21801c-0.9075,-6.87435 -1.61145,-13.48533 -1.61145,-20.47939c0,-3.17222 -0.37483,-6.73146 -0.00654,-9.8673c0.15069,-1.28311 0.60495,-2.50359 0.70318,-3.79443c0.58444,-7.67904 1.9048,-15.85221 8.57762,-18.26924c1.31811,-1.69627 4.06186,-1.91711 5.86672,-2.77162c4.59356,-2.17482 9.40841,-5.56448 14.39294,-6.53952c0.08119,0.01525 0.13423,0.01523 0.13423,0.01523z" fill="#ffffff"/></g><path d="M325.38344,236.10705c0.15721,0.7031 0.19594,1.53074 0.17898,2.39416c0.30963,-1.21729 1.54523,-1.87343 2.40726,-2.52334c0,0 1.1524,-0.8033 1.79929,0.42399c0.10181,0.19314 0.15903,0.37579 0.18321,0.54645c0.06652,-0.11592 0.14539,-0.21329 0.2296,-0.295c-0.45029,-0.92959 -0.42972,-2.1455 0.34592,-3.24097c0.48947,-0.69132 1.52122,-0.33057 2.28382,-0.49201c0.53936,-0.16185 0.99034,-0.21277 1.36125,-0.17661c-0.00696,-0.04978 -0.01162,-0.10062 -0.01387,-0.15241c-0.03492,-0.80465 0.52778,-1.53291 1.25681,-1.62658l0.24139,-0.03102c-0.11415,-0.43677 -0.13869,-0.89113 -0.03276,-1.32006c0.17894,-0.72455 1.00194,-0.91924 1.71465,-1.20467c0.48387,-0.54665 1.03503,-0.95969 1.58848,-1.11513c0.76539,-1.12572 2.01013,-2.08549 3.05208,-2.56322c-0.29953,-1.15209 0.47698,-2.24423 1.70562,-3.29114c0.37002,-0.31529 1.0181,-0.50064 1.67549,-0.62139c0.31367,-0.14761 0.64826,-0.20349 0.98467,-0.14388c0.0231,-0.00277 0.04602,-0.00551 0.06873,-0.0082c0.20148,-0.44886 0.6386,-0.81348 1.17786,-1.09961l0.13882,-0.11997c0.60584,-0.35327 1.1657,-1.1645 1.81754,-1.05984c0.39878,0.06403 0.84922,0.17821 1.26117,0.36079c0.0942,-0.00275 0.18214,-0.00259 0.26263,0.00041c0,0 1.31246,0.07221 1.1578,1.53723c-0.02639,0.25001 -0.0865,0.45527 -0.16805,0.62374c-0.38448,1.41825 -2.25526,2.9765 -3.60315,2.82854c0.01035,1.58361 -1.36673,2.72234 -2.7992,3.06842c0.63627,2.41038 -2.15122,5.09586 -4.48305,5.23864c0.05302,0.09567 0.09321,0.20176 0.11788,0.32051c0.47811,2.30214 -3.59801,4.98336 -5.52424,4.22014c-0.12037,0.2102 -0.24176,0.33787 -0.24176,0.33787l-1.28422,1.01918c-0.04641,0.00495 -0.09334,0.01188 -0.14069,0.02039c-0.15608,0.40261 -0.46275,0.72907 -0.8423,0.8788c-0.07306,0.14171 -0.17479,0.28636 -0.31253,0.43123c-0.78875,0.82959 -1.50323,0.34587 -1.76226,0.1136c-0.00308,0.54103 -0.18603,1.12013 -0.61274,1.69846c0.39032,0.20726 0.66342,0.63604 0.68626,1.16259c0.03492,0.80465 -0.52778,1.53292 -1.25681,1.62659l-1.3334,0.17133c-0.99267,0.12411 -1.99363,0.08251 -2.99347,0.07788c0.11705,1.04659 0.19301,2.10374 0.24316,3.16564c0.96488,0.13096 1.84868,0.37869 2.92777,0.59076c1.22447,0.24064 2.55884,0.52655 3.45741,1.4382c1.97547,2.00422 1.89056,6.71085 0.38431,9.35667c-1.12683,1.97934 -3.66188,3.71997 -5.86044,4.71491c0.00739,1.38706 -0.05098,2.77678 -0.1994,4.16515l0.06574,1.51478c0.03492,0.80465 -0.52778,1.53291 -1.25681,1.62658c-0.60435,0.07767 -1.13331,-0.30515 -1.31644,-0.89676l-0.55019,-1.64663l0.04316,-0.0205c-0.03329,-0.06089 -0.06535,-0.12275 -0.09606,-0.1857c-0.36297,-0.74415 -0.31445,-1.64884 -0.24752,-2.55512l-0.03711,-0.85511l0.02509,-0.00322c-0.00937,-0.01319 -0.01818,-0.02728 -0.02641,-0.04232c-0.01111,-0.02028 -0.02149,-0.04083 -0.03114,-0.06164c-0.90987,0.12221 -1.82911,0.16557 -2.69851,0.16348c-0.05914,-0.00014 -0.11987,0.00328 -0.18159,0.00884c-0.45723,0.07247 -0.92247,0.13624 -1.39628,0.19364l-0.1456,-0.09468l-0.01469,0.08253l-1.44494,-0.21052c-0.59422,-0.07171 -1.05822,-0.59557 -1.08832,-1.28893c-0.03492,-0.80465 0.52778,-1.5329 1.25681,-1.62658c0.03897,-0.005 0.07765,-0.0081 0.11593,-0.00935l1.56717,-0.06807l-0.00046,0.01758c0.01955,-0.00635 0.03916,-0.01258 0.05878,-0.01869c0.59925,-0.18671 1.21227,-0.10266 1.8271,-0.03262c0.66322,-0.12988 1.30322,-0.28284 1.92403,-0.47181c-0.76126,-0.24902 -0.80448,-1.24518 -0.80448,-1.24518l-0.02903,-0.66897c-0.09662,-2.22631 -0.04583,-4.46309 0.06179,-6.70446c-1.42985,0.15687 -2.8235,0.12377 -3.87501,-1.15243c-0.51805,-0.62875 -0.95611,-1.43949 -1.0161,-2.31285c-0.03297,-0.48011 0.14515,-0.95184 0.3564,-1.41298c-0.00399,-1.67221 1.01199,-3.51076 2.26197,-4.68068c-0.2555,-0.1869 -0.48665,-0.41551 -0.68147,-0.67661c-0.11622,0.19855 -0.25614,0.37688 -0.43027,0.52597c-1.36472,1.1685 -2.91567,0.33705 -3.80663,-1.01275c-0.85281,-0.50865 -1.6141,-1.24607 -1.72026,-1.83788c-0.06992,-0.38979 -0.10175,-0.73121 -0.1005,-1.03261c-0.23663,0.03454 -0.47908,0.08047 -0.70894,0.10179c-0.62505,0.22737 -1.35572,0.0773 -1.99049,-0.05019c-2.14358,-0.43054 -2.74801,-1.91801 -2.35063,-3.68024c-1.02383,1.11879 -2.79646,1.67185 -3.88411,0.90386c-1.08917,-0.76904 -1.42721,-1.81032 -1.28955,-2.8435c-0.2048,0.08745 -0.36361,0.10785 -0.36361,0.10785l-0.10619,-0.0257c-1.11699,0.61103 -3.59835,-0.62221 -4.05233,-1.54775c-0.29067,-0.59259 -0.45456,-1.06711 -0.51695,-1.46583c-0.32225,0.04511 -0.64985,0.06058 -0.97385,0.04715c-0.42494,0.03635 -0.85015,-0.02465 -1.24866,-0.20423c-1.84679,-0.54936 -3.10368,-2.16846 -1.66033,-4.69353c0.28617,-0.50063 0.72221,-0.90997 1.20403,-1.2081c0.39333,-0.46816 0.75592,-1.00127 1.27918,-1.19483c0.14457,-0.05348 0.29997,-0.09898 0.46254,-0.1352c0.39869,-0.36002 0.77476,-0.66425 1.07889,-0.89317c0,0 1.13227,-0.84009 1.81376,0.3623c0.28617,0.50492 0.25253,0.94593 0.11718,1.2877c0.19375,0.24107 0.33616,0.53953 0.40594,0.90315c0.63849,0.5006 1.02102,1.28267 0.87946,2.49925c0.10821,0.07878 0.21523,0.18493 0.3184,0.32479c0.102,0.13826 0.17451,0.27459 0.22335,0.40725c0.02194,0.00486 0.04406,0.00989 0.06635,0.01508c0.41286,0.09606 0.65416,0.4168 0.8108,0.84843l0.2654,-0.185l0.32421,0.61512l0.06347,0.04466l-0.02137,0.03522l0.29782,0.56505l-0.06418,0.04472l0.29378,0.09595c-0.11224,0.31203 -0.18815,0.65311 -0.25857,0.99858c0.07571,0.10367 0.13972,0.23025 0.18494,0.38474c1.29227,-1.79181 3.74805,-2.81113 5.18426,-0.83613c0.01799,0.02472 0.03506,0.05057 0.05123,0.07743c0.2414,-0.61528 0.56585,-1.2113 0.91871,-1.75975c0,0 0.82972,-1.20163 1.85833,-0.36046c1.0286,0.84117 0.19887,2.0428 0.19887,2.0428c-0.05916,0.07568 -0.12385,0.14767 -0.18993,0.21875c0.57936,-0.11264 1.14665,-0.07905 1.58258,0.24479c0.75018,0.5573 0.82353,1.69793 0.53292,2.79104c0.23245,0.02448 0.47644,0.13015 0.68978,0.38915c0.18498,0.11693 0.35801,0.31333 0.49209,0.62835c0.19395,0.4557 0.16932,0.8376 0.05633,1.14096c0.04284,0.09833 0.07125,0.19967 0.0891,0.29947c0.22341,-0.11716 0.45419,-0.23892 0.68651,-0.37501c0,0 0.98104,-0.49489 1.53158,0.34216c0.71926,0.29093 1.1875,1.02156 1.3827,1.88765l0.38877,0.31794c0.68124,-0.8957 2.22228,-1.73788 3.42849,-1.53004c0.0055,-0.29797 0.02316,-0.51496 0.05904,-0.59488c-0.00287,-0.07987 -0.00602,-0.15981 -0.00948,-0.23977l0.01898,-0.0407l0.00069,-0.02622l-0.01847,0.00052l0.05677,-1.47236c0.0215,-0.75684 0.56437,-1.41984 1.25769,-1.50893c0.72902,-0.09367 1.34834,0.48269 1.38325,1.28734c0.00188,0.04303 0.00204,0.08581 0.00055,0.1283l-0.04488,1.72129c0.00008,0.00199 0.00014,0.00402 0.00021,0.00601zM326.03418,253.86855c0.00021,0.02511 0.00041,0.05022 0.0006,0.0753c0.23676,1.772 0.45643,3.56437 0.60443,5.36807c0.76282,-0.53916 1.50532,-1.19576 2.2377,-2.00279c1.20434,-1.32712 2.27357,-2.1269 1.58029,-3.92305c-1.15192,-1.44011 -2.37115,-0.98557 -4.01343,-0.99202c-0.14113,-0.00055 -0.2808,-0.01407 -0.41975,-0.03382c0.00319,0.50397 0.00603,1.00696 0.01015,1.50833zM325.54904,239.66979c-0.01065,-0.05379 -0.01979,-0.10674 -0.02748,-0.15888c-0.0036,0.06245 -0.00735,0.1249 -0.01125,0.18734c0.01219,-0.00921 0.02511,-0.01872 0.03872,-0.02846zM322.25901,247.31597l0.24978,0.09c0.04147,-0.65585 0.08199,-1.31173 0.11931,-1.96747c-0.94396,0.61846 -1.64014,1.38981 -0.36909,1.87748zM342.25476,228.64115c0.05399,-0.03337 0.10704,-0.0686 0.15897,-0.1059c0.27689,-0.19887 1.03466,-0.89699 0.74193,-0.73137c-0.52402,0.29649 -1.07903,0.51739 -1.63605,0.70865l0.80161,-0.11281c0,0 -0.01755,0.09873 -0.06645,0.24141zM310.76989,236.08378c-0.07844,-0.04908 -0.15577,-0.1024 -0.23177,-0.15884c-0.01309,0.0601 -0.01215,0.10139 0.00652,0.11848c0.06092,0.05578 0.13991,0.0564 0.22525,0.04036z" fill="#ffe04b" stroke="#000000" stroke-width="1.5" stroke-linecap="butt"/><g stroke="none" stroke-width="0.5" stroke-linecap="butt"><path d="M270.27425,169.29307c-0.91463,-2.93861 -0.38636,-6.46489 -0.68951,-9.4536c-0.21971,-2.16602 -0.70411,-4.21308 -1.00305,-6.34234c-0.94287,-6.71568 -0.01269,-14.25206 -0.01269,-21.04318c0,-3.49419 0,-6.98837 0,-10.48254c0,-1.11134 -0.36509,-3.6129 0.14219,-4.55961c1.29405,-2.41502 6.15317,-2.47874 8.3802,-2.65144c3.13766,-0.24332 7.35764,-2.27282 10.64399,-0.92145c0.9544,0.39247 1.55861,1.35999 2.40965,1.94366c2.34901,3.64627 2.03512,9.01277 2.03512,13.30508c0,7.26243 0.33663,14.57485 0.33663,21.88101c0,4.4924 -0.33663,8.95027 -0.33663,13.46525c0,0.51512 -0.40626,3.74707 -0.10321,4.12014c0.44472,0.54745 3.68749,-0.77788 4.276,-0.89408c3.6597,-0.72258 8.07125,-0.70088 11.7937,-0.72482c3.11519,0.02338 6.17059,-1.36384 9.30725,-1.67731c4.54744,-0.45445 9.22603,0.43642 13.77346,0.00317c0.58952,-0.05615 3.25859,-0.99389 3.32065,-1.00339c2.80995,-0.43006 6.09412,-0.35214 8.9449,-0.35214c0.31454,0.08484 0.63638,0.36285 0.94361,0.2545c0.76151,-0.26852 -0.13041,-1.61168 -0.12553,-2.41913c0.01511,-2.50142 0.67327,-4.49878 0.67327,-7.11624c0,-3.83658 -1.02637,-7.46924 -1.34068,-11.28005c-0.22243,-2.69671 0.22449,-5.60565 -0.31032,-8.2581c-0.46522,-2.30727 -1.03399,-4.52755 -1.04205,-7.00871c0,-4.3762 0,-8.75241 0,-13.12861c0,-0.72512 -0.05862,-3.68697 0.25452,-4.10586c1.00774,-1.34812 3.86131,-0.66893 5.22427,-0.7947c4.70735,-0.43435 9.61324,-0.67387 14.32282,-0.00108c1.39175,0.00284 1.87261,-0.08653 3.33447,0.39865c4.73524,1.57155 4.18427,6.09783 4.51233,10.15103c0.55369,6.8409 0.33896,13.73886 0.33896,20.60917c0,5.70577 -0.26965,11.55538 -0.67629,17.25337c-0.51245,7.1807 0.33966,14.57251 0.33966,21.79582c0,11.55766 0,23.11534 0,34.673c0,2.88126 0.69144,5.59781 -1.83225,7.69773c-3.10014,2.57959 -7.39616,1.71304 -10.83078,2.88603c-5.93962,2.02851 -12.37673,3.07329 -18.83549,3.07329c-3.22515,-0.01058 -6.46205,0.39393 -9.53504,0.9882c-2.19946,0.42535 -4.61865,-0.23672 -6.84147,0.01584c-6.12602,0.69605 -12.44597,0.34249 -18.63312,0.34249c-6.19324,0 -12.30603,0.33662 -18.5147,0.33662c-2.64529,0 -4.70475,-0.14199 -7.26174,-0.68878c-0.56252,-0.12028 -1.21627,0.14916 -1.72107,-0.12668c-2.70488,-1.47814 -2.64375,-6.22451 -2.65445,-8.80201c0.0206,-3.51507 -0.42975,-7.19547 -1.29496,-10.42397c-0.65133,-2.43041 0.18427,-5.48003 -0.04573,-7.97234c-0.46056,-4.99078 -1.01574,-9.88342 -1.01574,-14.93017c0,-4.62641 0.958,-10.41035 0.02168,-14.92114c-0.21523,-1.03688 -0.59018,-2.059 -0.67285,-3.11058zM273.12809,171.18949c0.06711,0.25243 0.12985,0.50536 0.17904,0.75966c0.9156,4.73455 0.02168,10.54349 0.02168,15.37564c0,4.96834 0.56365,9.77949 1.00404,14.69335c0.19651,2.19261 -0.69469,5.4164 -0.04571,7.5127c1.06139,3.42844 1.37977,7.39893 1.39808,11.12044c-0.0061,1.27021 -0.14448,6.08703 1.38511,6.683c2.1872,0.8522 5.42866,0.53106 7.84874,0.53106c6.20894,0 12.32032,-0.33663 18.51471,-0.33663c6.11289,0 12.3428,0.32777 18.39629,-0.33077c2.13105,-0.23184 4.5354,0.44932 6.62378,0.01583c3.20865,-0.66602 6.62868,-1.02206 9.98954,-1.03157c7.35703,0 14.00537,-1.94373 20.96305,-3.34114c2.14719,-0.43125 7.2825,-0.70211 8.19979,-3.26082c0.3929,-1.09598 -0.06774,-3.4716 -0.06774,-4.65169c0,-11.55766 0,-23.11534 0,-34.673c0,-7.2829 -0.8413,-14.72403 -0.33361,-21.9662c0.39571,-5.64479 0.67024,-11.43185 0.67024,-17.08299c0,-6.82212 0.20166,-13.66647 -0.3343,-20.45982c-0.36531,-4.63043 0.13001,-8.31404 -5.61844,-8.30166c-4.59744,-0.65677 -9.35932,-0.41284 -13.95419,-0.00107c-0.99003,0.08872 -1.99054,0.06638 -2.98197,-0.00491c-0.18568,-0.01336 -0.48426,-0.29209 -0.54617,-0.11652c-0.26645,0.75561 0.25452,3.39115 0.25452,4.30993c0,3.81516 0,7.6303 0,11.44546c-0.00862,2.30782 0.55457,4.32476 0.97776,6.45652c0.55203,2.78082 0.12575,5.75833 0.36292,8.57345c0.39848,4.72988 1.3877,9.12676 1.35238,13.92029c-0.00831,1.12669 -0.44991,2.2084 -0.70541,3.30578c-0.27013,1.16022 0.24005,2.40234 0.02314,3.57367c-0.13884,0.74976 -0.17904,1.69033 -0.78978,2.14688c-0.65038,0.48618 -1.61514,0.16967 -2.4227,0.25451c-2.73427,0 -5.87113,-0.09505 -8.55991,0.32112c-1.17275,0.18151 -2.23161,0.8938 -3.41197,1.0164c-4.56321,0.47397 -9.2675,-0.45345 -13.83029,0.00315c-3.24051,0.3243 -6.30712,1.66949 -9.54407,1.68901c-3.4381,-0.02774 -7.71755,-0.04419 -11.09723,0.6217c-1.35217,0.26641 -5.06772,1.82508 -6.49619,0.45245c-1.25542,-1.20633 -0.77647,-4.42289 -0.77647,-5.97879c0,-4.514 0.33663,-8.97482 0.33663,-13.46525c0,-7.76306 -0.33663,-15.50202 -0.33663,-23.22754c0,-2.85522 0.34707,-7.97075 -1.33119,-10.25908c-0.60634,-0.39041 -0.97539,-1.11992 -1.62992,-1.42265c-0.77797,-0.35983 -1.71267,0.09148 -2.56981,0.09148c-2.97717,0 -5.32835,0.71275 -8.31667,1.0058c-0.65552,0.06429 -4.79663,0.60286 -5.09896,1.38922c-0.2542,0.66119 0.14219,2.65474 0.14219,3.42556c0,3.49419 0,6.98836 0,10.48253c0,6.65613 -0.96843,14.12968 -0.01147,20.70321c0.31501,2.16388 0.79826,4.24322 1.01551,6.44549c0.18854,1.91118 -0.12555,4.48589 0.07832,6.76119c0.18658,0.25619 0.24083,0.52743 0.24083,0.52743l0.35412,1.80041c-0.00101,0.10072 0.00186,0.20107 0.00807,0.30109c0.13075,0.29731 0.28576,0.57661 0.46922,0.8339c0,0 0.48899,0.73348 0.00111,1.36283z" fill="#000000"/><path d="M273.07892,169.8265c-0.18346,-0.2573 -0.33845,-0.53745 -0.46921,-0.83477c-0.00621,-0.10003 -0.00907,-0.20067 -0.00804,-0.30139l-0.35404,-1.80224c0,0 -0.05421,-0.27177 -0.24079,-0.52796c-0.20387,-2.2753 0.1112,-4.85664 -0.07734,-6.76782c-0.21725,-2.20228 -0.69896,-4.28711 -1.01397,-6.45099c-0.95694,-6.57354 0.01893,-14.06076 0.01893,-20.71689c0,-3.49419 0.00387,-6.99277 0.00387,-10.48695c0,-0.77083 -0.39525,-2.76547 -0.14105,-3.42666c0.30231,-0.78636 4.44592,-1.32708 5.10144,-1.39137c2.98833,-0.29305 5.34375,-1.00894 8.32094,-1.00894c0.85715,0 1.79328,-0.45218 2.57124,-0.09237c0.65453,0.30273 1.07265,1.11491 1.67899,1.50532c1.67826,2.28834 1.33437,7.40184 1.33437,10.25706c0,7.72552 0.34939,15.45134 0.34939,23.21441c0,4.49043 -0.32964,8.93385 -0.32964,13.44785c0,1.5559 -0.47811,4.76285 0.77731,5.96918c1.42847,1.37262 5.04788,-0.18536 6.40005,-0.45177c3.37968,-0.66588 7.65919,-0.65218 11.0973,-0.62444c3.23696,-0.01952 6.32514,-1.40208 9.56565,-1.72638c4.56278,-0.4566 9.34072,0.50202 13.90393,0.02803c1.18036,-0.1226 2.23902,-0.83595 3.41175,-1.01746c2.68878,-0.41616 5.82617,-0.31829 8.56044,-0.31829c0.80757,-0.08484 1.67723,0.24586 2.32761,-0.24032c0.61075,-0.45655 0.65156,-1.39374 0.79041,-2.14351c0.21691,-1.17135 -0.29168,-2.40789 -0.02154,-3.56811c0.2555,-1.09737 0.69878,-2.17492 0.70709,-3.30163c0.03532,-4.79353 -0.94417,-9.17646 -1.34265,-13.90634c-0.23717,-2.81512 0.19429,-5.78815 -0.35774,-8.56897c-0.42318,-2.13175 -0.98258,-4.14616 -0.97396,-6.45397c0,-3.81516 0.00425,-7.628 0.00425,-11.44315c0,-0.91876 -0.51951,-3.55366 -0.25306,-4.30927c0.06191,-0.17556 0.39939,0.01526 0.58506,0.02861c0.99143,0.07129 1.99377,0.0945 2.9838,0.00578c4.59487,-0.41178 9.36394,-0.6513 13.96137,0.00547c5.74844,-0.01237 5.25813,3.67553 5.62345,8.30596c0.53596,6.79336 0.34202,13.64754 0.34202,20.46967c0,5.65113 -0.2692,11.45128 -0.66492,17.09609c-0.5077,7.24217 0.33392,14.70466 0.33392,21.98758c0,11.55766 -0.01183,23.13807 -0.01183,34.69574c0,1.18008 0.45902,3.55739 0.06611,4.65336c-0.91728,2.55871 -6.05707,2.83342 -8.20425,3.26467c-6.95769,1.39741 -13.61957,3.34835 -20.97659,3.34835c-3.36085,0.00951 -6.7888,0.36753 -9.99745,1.03356c-2.08838,0.43348 -4.4982,-0.24711 -6.62925,-0.01526c-6.05349,0.65856 -12.2983,0.32911 -18.41119,0.32911c-6.19439,0 -12.31755,0.33163 -18.52649,0.33163c-2.42007,0 -5.6655,0.31851 -7.8527,-0.53369c-1.5296,-0.59597 -1.39407,-5.41508 -1.38797,-6.68528c-0.01831,-3.72151 -0.34146,-7.6967 -1.40285,-11.12513c-0.64898,-2.09629 0.23919,-5.32391 0.04268,-7.51652c-0.44039,-4.91385 -1.00989,-9.73594 -1.00989,-14.70428c0,-4.83217 0.89084,-10.65602 -0.02474,-15.39057c-0.04918,-0.2543 -0.11194,-0.50804 -0.17905,-0.76047c0.48788,-0.62935 -0.00114,-1.36424 -0.00114,-1.36424z" fill="#ffffff"/></g><g><path d="M318.04855,185.4415c0.58966,10.94869 -7.60381,20.38455 -18.30065,21.07555c-10.69684,0.69101 -19.84637,-7.62451 -20.43603,-18.5732c-0.23084,-4.28615 -1.24423,-7.58179 2.29922,-9.09807c5.50804,-2.35694 17.08901,-1.90213 17.08901,-1.90213c0,0 11.01828,-1.93937 16.79461,-0.16262c3.52865,1.08539 2.33025,4.50848 2.55387,8.66047z" fill="#000000" stroke="none" stroke-width="0" stroke-linecap="butt"/><path d="M309.16805,181.5277l-0.23251,-4.31698l25.86777,-1.67104l0.23251,4.31699z" fill="#000000" stroke="none" stroke-width="0" stroke-linecap="butt"/><path d="M367.07411,182.27449c0.58967,10.94869 -7.60381,20.38454 -18.30065,21.07555c-10.69684,0.69101 -19.84636,-7.62451 -20.43603,-18.5732c-0.23084,-4.28615 -1.24423,-7.58179 2.29922,-9.09807c5.50804,-2.35695 17.08901,-1.90212 17.08901,-1.90212c0,0 11.01827,-1.93937 16.79461,-0.16262c3.52864,1.08539 2.33025,4.50848 2.55387,8.66047z" fill="#000000" stroke="none" stroke-width="0" stroke-linecap="butt"/><path d="M283.86492,187.23032l4.238,-4.32132" fill="none" stroke="#ffffff" stroke-width="1.5" stroke-linecap="round"/><path d="M282.84193,184.66953l1.46138,-1.60049" fill="none" stroke="#ffffff" stroke-width="1.5" stroke-linecap="round"/><path d="M286.05699,189.15092l5.11482,-4.48138" fill="none" stroke="#ffffff" stroke-width="1.5" stroke-linecap="round"/><path d="M288.97974,191.7117l4.82256,-5.28162" fill="none" stroke="#ffffff" stroke-width="1.5" stroke-linecap="round"/><path d="M293.0716,192.83204l3.21504,-3.52107" fill="none" stroke="#ffffff" stroke-width="1.5" stroke-linecap="round"/><path d="M298.47872,192.35191l-2.04595,2.08065" fill="none" stroke="#ffffff" stroke-width="1.5" stroke-linecap="round"/><path d="M299.79397,195.5529l0.87682,-1.12035" fill="none" stroke="#ffffff" stroke-width="1.5" stroke-linecap="round"/><path d="M306.37016,199.55413l1.60752,-2.24069" fill="none" stroke="#ffffff" stroke-width="1.5" stroke-linecap="round"/><path d="M310.31588,198.11369l-2.19206,3.04093" fill="none" stroke="#ffffff" stroke-width="1.5" stroke-linecap="round"/><path d="M333.40567,179.54796l-2.63048,2.72084" fill="none" stroke="#ffffff" stroke-width="1.5" stroke-linecap="round"/><path d="M332.96727,184.82959l3.36116,-2.72084" fill="none" stroke="#ffffff" stroke-width="1.5" stroke-linecap="round"/><path d="M337.05914,185.14969l-1.60753,1.6005" fill="none" stroke="#ffffff" stroke-width="1.5" stroke-linecap="round"/><path d="M339.2512,185.94993l-2.19206,2.88089" fill="none" stroke="#ffffff" stroke-width="1.5" stroke-linecap="round"/><path d="M340.56644,189.95117l1.46138,-2.08064" fill="none" stroke="#ffffff" stroke-width="1.5" stroke-linecap="round"/><path d="M347.87334,190.11121l-3.21504,3.20099" fill="none" stroke="#ffffff" stroke-width="1.5" stroke-linecap="round"/><path d="M344.21989,189.31097l-2.77663,3.36104" fill="none" stroke="#ffffff" stroke-width="1.5" stroke-linecap="round"/><path d="M355.61865,196.51319l1.16911,-2.08064" fill="none" stroke="#ffffff" stroke-width="1.5" stroke-linecap="round"/><path d="M359.56438,195.2328l-1.8998,2.72084" fill="none" stroke="#ffffff" stroke-width="1.5" stroke-linecap="round"/></g><path d="M351.61154,213.95164c0,0 1.20171,-0.00002 1.20171,1.20169c0,1.2017 -1.20171,1.2017 -1.20171,1.2017l-0.04385,-0.17124c-1.56282,0.90486 -2.71776,0.61056 -4.31489,1.02193c-6.09184,1.56907 -12.45015,1.35638 -18.81546,1.35638c-8.01906,-0.092 -16.11975,3.53857 -24.19148,1.04986c-1.98717,-0.61269 -3.09758,-0.71522 -4.28048,-1.51453l-0.17606,0.29342l-1.08465,-0.65078c-0.17618,-0.10158 -0.32417,-0.24658 -0.42938,-0.42037c-0.74859,0.39918 -1.48229,0.85171 -2.19325,1.42048c0,0 -0.93837,0.75069 -1.68908,-0.18768c-0.75069,-0.93836 0.18768,-1.68905 0.18768,-1.68905c2.35064,-1.8805 4.89927,-2.53357 7.41576,-4.0648l1.20963,-0.35609c0,0 1.16581,-0.29146 1.45727,0.87437c0.29146,1.16583 -0.87436,1.45728 -0.87436,1.45728l-0.55602,0.08534c-0.59148,0.35082 -1.18411,0.65413 -1.77445,0.93774c0.15939,0.13579 0.29343,0.3329 0.34679,0.61901c0.44385,0.08606 0.94667,0.30215 1.51507,0.43393c2.4579,0.56983 4.24692,1.07412 6.79835,1.07412c6.21266,0 12.20317,-1.71104 18.31866,-1.76566c6.20278,0 12.32971,0.15243 18.26327,-1.29208c1.47646,-0.35944 2.27735,0.11048 3.63055,-0.74373l1.28039,-0.17124z" fill="#000000" stroke="none" stroke-width="0.5" stroke-linecap="butt"/><g fill="#ffffff" stroke="#000000" stroke-width="2.5" stroke-linecap="round"><path d="M321.37356,296.09199l-10.51467,0.84795l-4.07019,-2.20468l-6.95326,-7.9708l-5.08774,-27.64341l-2.20469,-4.57897l2.37428,-7.9708l4.74856,-5.76611l1.18713,-0.33918l7.46202,-4.07019l7.12284,-3.22224l6.61407,0.67837l4.07019,2.54388l-3.39183,6.27489l-1.01755,1.69591l-13.39773,8.47957l5.08774,4.23979l7.46202,-3.05265l4.57897,3.05265l1.35673,7.29244l-11.53223,5.08774l-1.69591,4.40938l2.71346,6.95326l9.8363,-0.84796l6.10529,-3.39183l3.05265,5.93571l-2.0351,7.9708l-3.56143,4.23979l-5.25734,0.16959l-1.8655,1.18715z"/><path d="M326.05334,236.10907l4.573,-3.91972l11.10585,0.52263l1.95986,7.97008l4.18103,-0.26131l3.65839,7.18614l2.22117,7.57811l3.65839,9.40732l-3.26642,8.75402l0.91461,4.96497l-3.52775,6.66352l-3.78905,5.87957l-17.76937,3.78905l4.96497,-9.146l-0.26131,-5.74891l-2.48249,-3.91972l-5.87957,3.78906l-10.32191,0.9146l-2.09052,-7.18614l3.39708,-5.4876l9.146,-4.18103l-2.09052,-7.3168l-3.39708,-2.22117l-9.146,2.22117l-5.09563,-3.78906l15.80951,-8.10074z"/></g></g></g></svg>