<svg version="1.1" xmlns="http://www.w3.org/2000/svg" xmlns:xlink="http://www.w3.org/1999/xlink" width="167.32017" height="349.75588" viewBox="0,0,167.32017,349.75588"><defs><linearGradient x1="326.82561" y1="228.23972" x2="323.6063" y2="301.07773" gradientUnits="userSpaceOnUse" id="color-1"><stop offset="0" stop-color="#545454"/><stop offset="1" stop-color="#2f2f2f"/></linearGradient><linearGradient x1="333.51424" y1="195.1839" x2="330.29493" y2="268.02194" gradientUnits="userSpaceOnUse" id="color-2"><stop offset="0" stop-color="#545454"/><stop offset="1" stop-color="#2f2f2f"/></linearGradient><linearGradient x1="331.02039" y1="164.40412" x2="327.80108" y2="237.24218" gradientUnits="userSpaceOnUse" id="color-3"><stop offset="0" stop-color="#545454"/><stop offset="1" stop-color="#2f2f2f"/></linearGradient><linearGradient x1="331.36859" y1="167.7018" x2="323.46452" y2="346.53418" gradientUnits="userSpaceOnUse" id="color-4"><stop offset="0" stop-color="#4e2710"/><stop offset="1" stop-color="#3a1a09"/></linearGradient><linearGradient x1="332.28583" y1="167.73989" x2="331.14489" y2="193.55397" gradientUnits="userSpaceOnUse" id="color-5"><stop offset="0" stop-color="#e07130"/><stop offset="1" stop-color="#c2551f"/></linearGradient><linearGradient x1="302.49314" y1="196.98497" x2="301.29044" y2="224.19647" gradientUnits="userSpaceOnUse" id="color-6"><stop offset="0" stop-color="#4e2710"/><stop offset="1" stop-color="#3a1a09"/></linearGradient><linearGradient x1="386.98337" y1="145.10789" x2="373.00019" y2="195.33775" gradientUnits="userSpaceOnUse" id="color-7"><stop offset="0" stop-color="#e07130"/><stop offset="1" stop-color="#c2551f"/></linearGradient><linearGradient x1="387.83844" y1="127.74866" x2="385.5583" y2="179.3375" gradientUnits="userSpaceOnUse" id="color-8"><stop offset="0" stop-color="#e07130"/><stop offset="1" stop-color="#c2551f"/></linearGradient><linearGradient x1="276.60266" y1="145.04739" x2="286.14571" y2="195.27723" gradientUnits="userSpaceOnUse" id="color-9"><stop offset="0" stop-color="#e07130"/><stop offset="1" stop-color="#c2551f"/></linearGradient><linearGradient x1="280.15504" y1="123.78738" x2="277.87491" y2="175.37621" gradientUnits="userSpaceOnUse" id="color-10"><stop offset="0" stop-color="#e07130"/><stop offset="1" stop-color="#c2551f"/></linearGradient><linearGradient x1="333.94908" y1="71.88875" x2="329.24481" y2="178.32438" gradientUnits="userSpaceOnUse" id="color-11"><stop offset="0" stop-color="#e07130"/><stop offset="1" stop-color="#c2551f"/></linearGradient><linearGradient x1="328.58652" y1="159.29984" x2="327.64902" y2="180.5112" gradientUnits="userSpaceOnUse" id="color-12"><stop offset="0" stop-color="#f05016"/><stop offset="1" stop-color="#be4c22"/></linearGradient><linearGradient x1="320.02031" y1="3.33805" x2="330.32343" y2="88.56509" gradientUnits="userSpaceOnUse" id="color-13"><stop offset="0" stop-color="#a1a1a1"/><stop offset="1" stop-color="#767676"/></linearGradient></defs><g transform="translate(-247.73862,1.92536)"><g stroke-miterlimit="10"><g stroke="#000000" stroke-width="2.5"><path d="M395.46575,291.77928l-73.56738,9.29847l-69.32955,-9.29847c0,0 34.79691,-63.53957 74.2568,-63.53957c39.4599,0 68.64013,63.53957 68.64013,63.53957z" fill="url(#color-1)" stroke-linecap="butt"/><path d="M263.55989,287.98326l58.93482,-17.18651l61.13188,14.73129" fill="none" stroke-linecap="round"/><path d="M293.14309,292.0753l30.18004,-9.41166l35.7521,7.36564" fill="none" stroke-linecap="round"/></g><g stroke="#000000" stroke-width="2.5"><path d="M402.15438,258.72343l-73.56738,9.29847l-69.32955,-9.29847c0,0 34.79691,-63.53957 74.2568,-63.53957c39.4599,0 68.64013,63.53957 68.64013,63.53957z" fill="url(#color-2)" stroke-linecap="butt"/><path d="M270.24852,254.92745l58.93482,-17.18651l61.13188,14.73129" fill="none" stroke-linecap="round"/><path d="M299.83172,259.01945l30.18004,-9.41166l35.7521,7.36565" fill="none" stroke-linecap="round"/></g><g stroke="#000000" stroke-width="2.5"><path d="M399.66052,227.94369l-73.56737,9.29847l-69.32956,-9.29847c0,0 34.79691,-63.53957 74.25681,-63.53957c39.4599,0 68.64012,63.53957 68.64012,63.53957z" fill="url(#color-3)" stroke-linecap="butt"/><path d="M267.75466,224.14768l58.93483,-17.1865l61.13188,14.73129" fill="none" stroke-linecap="round"/><path d="M297.33786,228.23972l30.18004,-9.41165l35.7521,7.36565" fill="none" stroke-linecap="round"/></g><path d="M276.71956,342.89555l4.38647,-147.27579c0,0 7.74075,-25.69821 17.53754,-26.10344c9.72901,-0.40242 32.77198,-0.95905 52.91476,-1.79223c21.84721,-0.90368 27.45326,25.97468 27.45326,25.97468l-6.51842,152.83541z" fill="url(#color-4)" stroke="#000000" stroke-width="2.5" stroke-linecap="butt"/><path d="M350.64569,180.64693c-0.31506,7.12836 -9.04586,12.90704 -19.50079,12.90704c-10.45493,0 -18.67491,-5.77868 -18.35985,-12.90704c0.31506,-7.12836 9.04586,-12.90704 19.50079,-12.90704c10.45493,0 18.67491,5.77868 18.35985,12.90704z" fill="url(#color-5)" stroke="#000000" stroke-width="2.5" stroke-linecap="butt"/><path d="M315.58258,210.59072c-0.33212,7.51424 -6.73092,13.60575 -14.29213,13.60575c-7.56121,0 -13.42155,-6.0915 -13.08943,-13.60575c0.33212,-7.51424 6.73092,-13.60575 14.29213,-13.60575c7.56121,0 13.42155,6.0915 13.08943,13.60575z" fill="url(#color-6)" stroke="#ffffff" stroke-width="2.5" stroke-linecap="butt"/><path d="M298.26364,206.36576l-1.14251,1.74346" fill="none" stroke="#ffffff" stroke-width="2.5" stroke-linecap="round"/><path d="M305.71749,206.46262l0.50837,1.6466" fill="none" stroke="#ffffff" stroke-width="2.5" stroke-linecap="round"/><path d="M309.7422,214.01759l-2.94161,3.00262h-11.23561l-1.7959,-3.19634" fill="none" stroke="#ffffff" stroke-width="2.5" stroke-linecap="round"/><path d="M371.63669,141.47635c0,0 11.50067,11.63615 15.32946,20.41073c4.68221,10.73038 10.72219,39.29275 10.72219,39.29275c0,0 -14.144,-21.07956 -21.99805,-26.09599c-6.92273,-4.42157 -22.6859,-2.44383 -22.6859,-2.44383z" fill="url(#color-7)" stroke="#000000" stroke-width="2.5" stroke-linecap="round"/><path d="M371.91169,127.74866c0,0 13.97203,8.59001 19.74321,16.17199c7.05754,9.27194 19.5247,35.41684 19.5247,35.41684c0,0 -18.72983,-17.08677 -27.6022,-20.12963c-7.8203,-2.68204 -22.87525,2.81794 -22.87525,2.81794z" fill="url(#color-8)" stroke="#000000" stroke-width="2.5" stroke-linecap="round"/><path d="M308.14791,172.5795c0,0 -15.58834,-1.97773 -22.90192,2.44384c-8.29749,5.01642 -24.30485,26.09598 -24.30485,26.09598c0,0 8.5648,-28.56237 14.19553,-39.29275c4.60443,-8.77458 17.1337,-20.41073 17.1337,-20.41073z" fill="url(#color-9)" stroke="#000000" stroke-width="2.5" stroke-linecap="round"/><path d="M304.26134,158.06451c0,0 -14.56877,-5.49998 -22.62615,-2.81794c-9.14135,3.04286 -29.38158,20.12963 -29.38158,20.12963c0,0 14.77828,-26.14491 22.65542,-35.41685c6.4414,-7.58197 21.17275,-16.17198 21.17275,-16.17198z" fill="url(#color-10)" stroke="#000000" stroke-width="2.5" stroke-linecap="round"/><path d="M369.05373,80.1078l8.01829,8.83669l-19.02992,57.86248l-58.94043,-1.21889l-12.99476,-54.85007l9.41885,-10.33015" fill="none" stroke="#000000" stroke-width="2.5" stroke-linecap="round"/><path d="M386.14903,127.33118c-3.20017,28.48816 -30.26783,52.9286 -60.3596,50.8721c-30.09177,-2.05649 -51.81251,-29.83117 -48.61234,-58.31932c3.20017,-28.48815 30.18863,-49.91526 60.28039,-47.85875c30.09177,2.05649 51.89173,26.81782 48.69156,55.30597z" fill="url(#color-11)" stroke="#000000" stroke-width="2.5" stroke-linecap="butt"/><path d="M342.03126,169.28419c-0.27405,6.2005 -6.7132,11.22701 -14.38224,11.22701c-7.66905,0 -13.66388,-5.02651 -13.38983,-11.22701c0.18265,-4.13256 3.10388,-7.74362 7.30259,-9.69262c2.10104,-0.97528 4.60576,1.02616 7.16347,1.02616c2.52643,0 4.78738,-2.01504 6.78616,-1.06176c4.06855,1.94042 6.70364,5.57036 6.51987,9.72822z" fill="url(#color-12)" stroke="#000000" stroke-width="2.5" stroke-linecap="butt"/><path d="M321.07613,159.04196c0,0 -8.88054,2.19587 -12.73066,3.14788c-3.19678,0.79046 -8.77661,2.17017 -8.77661,2.17017" fill="none" stroke="#000000" stroke-width="2.5" stroke-linecap="round"/><path d="M335.2228,159.82985l24.79692,4.92413" fill="none" stroke="#000000" stroke-width="2.5" stroke-linecap="round"/><path d="M327.71632,172.17485l0.67215,-12.01067" fill="none" stroke="#000000" stroke-width="2.5" stroke-linecap="round"/><path d="M346.5114,120.07345c-0.11973,2.70884 -6.86921,4.90479 -15.0754,4.90479c-8.2062,0 -14.76156,-2.19595 -14.64184,-4.90479c0.11973,-2.70884 6.86921,-4.90479 15.0754,-4.90479c8.2062,0 14.76156,2.19595 14.64184,4.90479z" fill-opacity="0.18431" fill="#000000" stroke="none" stroke-width="0" stroke-linecap="butt"/><path d="M309.73776,116.03983c-0.09878,2.23486 -2.16732,4.04658 -4.62022,4.04658c-2.4529,0 -4.3613,-1.81172 -4.26252,-4.04658c0.09878,-2.23487 2.16732,-4.04659 4.62022,-4.04659c2.4529,0 4.3613,1.81172 4.26252,4.04659z" fill="#ffffff" stroke="#000000" stroke-width="2.5" stroke-linecap="butt"/><path d="M361.92957,115.71018c-0.09878,2.23487 -2.16732,4.04658 -4.62022,4.04658c-2.4529,0 -4.3613,-1.81172 -4.26252,-4.04658c0.09878,-2.23486 2.16732,-4.04658 4.62022,-4.04658c2.4529,0 4.3613,1.81172 4.26252,4.04658z" fill="#ffffff" stroke="#000000" stroke-width="2.5" stroke-linecap="butt"/><path d="M352.05412,211.8365c-1.52633,-0.7585 2.30389,-3.49945 3.25167,-4.80611c2.50124,-3.44831 7.85586,-7.04847 12.10341,-4.43277c4.29012,2.64191 4.53038,16.26666 5.5287,21.25843c0.64962,3.2482 -2.0362,8.57018 -2.91943,11.70771c-0.94109,3.34301 -1.08426,7.63205 -3.44987,10.50217c-2.04715,2.48374 -5.13336,4.76941 -7.6841,6.39516c-3.60748,2.29926 -6.476,6.34647 -10.42854,8.07431c-5.7224,2.50153 -15.61839,0.37004 -20.82781,-2.63542c-6.4442,-3.71784 -11.37432,-11.21309 -7.73847,-18.78653c1.00476,-2.0929 4.20853,-2.7202 5.10132,-4.68279c1.15138,-2.53102 -1.56567,-5.99263 2.30064,-9.2972c1.27147,-1.08673 4.40209,-1.36142 5.45089,-2.60296c2.33034,-2.75859 0.24819,-8.68041 2.3058,-11.80421c2.5337,-3.8466 14.93921,-1.06774 17.90376,1.05391z" fill="#d7692b" stroke="#000000" stroke-width="2.5" stroke-linecap="round"/><path d="M300.45962,213.93547c3.15209,-2.12165 15.80324,-4.90051 17.99692,-1.05391c1.78148,3.1238 -0.82414,9.04563 1.26234,11.80422c0.93905,1.24154 4.04539,1.51622 5.22079,2.60295c3.5742,3.30457 0.55117,6.76618 1.4788,9.2972c0.71931,1.96259 3.86762,2.58988 4.68738,4.68279c2.96639,7.57344 -2.62629,15.06869 -9.39913,18.78653c-5.4751,3.00546 -15.5595,5.13694 -21.06077,2.63541c-3.7998,-1.72784 -6.31056,-5.77504 -9.7148,-8.0743c-2.40705,-1.62574 -5.29121,-3.91142 -7.1188,-6.39516c-2.11191,-2.87012 -1.87595,-7.15916 -2.52152,-10.50217c-0.6059,-3.13753 -2.82126,-8.4595 -1.88451,-11.70771c1.43957,-4.99177 2.88422,-18.61652 7.40787,-21.25843c4.47877,-2.6157 9.51516,0.98446 11.71157,4.43277c0.83229,1.30666 4.42019,4.0476 2.82683,4.8061z" fill="#d7692b" stroke="#000000" stroke-width="2.5" stroke-linecap="round"/><path d="M349.77214,8.06c0,0 -3.51891,1.49647 -13.38235,1.95001c-3.43898,0.15813 -14.37382,0.80275 -16.96498,0.77898c-4.18844,-0.03842 -10.93116,-0.98625 -16.35288,-1.43426c-7.3166,-0.60458 -12.90095,-1.84152 -12.90095,-1.84152" fill="none" stroke="#000000" stroke-width="2.5" stroke-linecap="round"/><path d="M293.20848,92.50113l-6.43757,-85.14355c0,0 6.71044,-2.84674 15.60069,-4.64277c5.59239,-1.12979 12.78269,-2.64398 17.05361,-3.16029c4.23426,-0.51188 12.13415,-0.28044 17.81601,-0.52147c9.22059,-0.39115 16.02848,0.28546 16.02848,0.28546l13.66756,83.44334c0,0 -4.04682,5.09318 -13.84556,9.57251c-5.36343,2.4518 -15.99708,5.14848 -20.39131,5.72894c-5.40695,0.71424 -16.39743,0.90852 -24.07434,-0.44729c-9.57082,-1.6903 -15.41758,-5.11489 -15.41758,-5.11489z" fill="url(#color-13)" stroke="#000000" stroke-width="2.5" stroke-linecap="butt"/></g></g></svg>