<svg version="1.1" xmlns="http://www.w3.org/2000/svg" xmlns:xlink="http://www.w3.org/1999/xlink" width="162.4913" height="296.86453" viewBox="0,0,162.4913,296.86453"><defs><linearGradient x1="375.14006" y1="49.58742" x2="375.14006" y2="89.58479" gradientUnits="userSpaceOnUse" id="color-1"><stop offset="0" stop-color="#5d5d5d"/><stop offset="1" stop-color="#151515"/></linearGradient><linearGradient x1="337.15358" y1="59.48268" x2="337.15358" y2="101.61688" gradientUnits="userSpaceOnUse" id="color-2"><stop offset="0" stop-color="#cfcfcf"/><stop offset="1" stop-color="#868686"/></linearGradient><linearGradient x1="320.93508" y1="165.42366" x2="321.73195" y2="344.25603" gradientUnits="userSpaceOnUse" id="color-3"><stop offset="0" stop-color="#383838"/><stop offset="1" stop-color="#191919"/></linearGradient><linearGradient x1="128.3689" y1="89.21092" x2="128.3689" y2="90.46092" gradientUnits="userSpaceOnUse" id="color-4"><stop offset="0" stop-color="#878787"/><stop offset="1" stop-color="#848484"/></linearGradient></defs><g transform="translate(-253.61309,-48.68685)"><g stroke-miterlimit="10"><path d="M335.28141,71.32885c-0.04062,-0.23909 -0.04597,-0.48761 -0.02237,-0.74192c0.01678,-0.31406 0.08069,-0.61489 0.18637,-0.89413c0.53564,-1.72223 2.00165,-3.51493 2.61873,-4.36032c2.8492,-3.90335 5.20298,-9.44357 9.91325,-11.44181c5.55719,-2.35751 12.52754,2.40941 17.82784,4.8203c1.75723,0.79929 4.54493,2.70254 6.32837,2.587c2.47761,-0.1605 2.99888,-1.83617 4.76334,-3.09353c3.61648,-2.57713 6.61913,-6.60289 10.87859,-8.26759c3.12435,-1.22107 6.00766,1.02604 8.74709,2.62073c6.58506,3.83332 16.53528,11.0994 18.33177,18.42288c1.38037,5.62714 -5.47184,8.03293 -9.49243,8.59754c-1.08191,0.15193 -3.83393,-0.98713 -4.39718,-0.48117c-1.53707,1.38076 -2.65155,2.49117 -3.83241,4.55661c-0.85217,1.49054 -1.21916,4.12134 -2.40902,5.13338c-1.05373,0.89626 -3.19889,1.25967 -4.60988,-0.10587c-1.92283,-1.86089 -0.49568,-4.41558 0.18488,-6.05605c1.31412,-3.16771 3.72792,-7.83974 7.04133,-9.24539c2.84323,-1.20618 6.50177,0.82059 9.02298,-0.54693c0.46336,-0.25133 2.14226,-1.04759 2.13113,-1.63844c-0.05629,-2.98991 -7.91862,-8.1238 -10.23818,-9.93041c-2.02016,-1.57342 -5.28288,-4.85239 -7.74503,-5.13759c-1.46237,-0.1694 -3.88764,2.76097 -4.87693,3.62146c-3.77881,3.28685 -7.00694,7.2324 -12.19497,7.96095c-2.37181,0.33307 -11.92175,-3.47188 -14.2253,-4.96029c-2.35743,-1.52323 -5.68783,-3.53159 -8.33142,-2.80251c-2.45903,0.67818 -6.20014,7.50941 -7.56264,9.52076c-0.17116,0.25266 -1.09436,1.79578 -1.84434,2.96585c-0.17166,0.51007 -0.47984,0.9538 -0.89356,1.28272c-0.37448,0.29773 -0.83542,0.50139 -1.35981,0.57503c-1.64869,0.23152 -3.32146,-0.90687 -3.82121,-2.56646c-0.05478,-0.1234 -0.09517,-0.25461 -0.11899,-0.3948z" fill="url(#color-1)" stroke="#000000" stroke-width="2.5" stroke-linecap="butt"/><path d="M299.32084,84.7643l6.11319,-25.22975c0,0 24.01333,-0.59477 35.72686,2.24343c11.46524,2.77804 33.82542,14.60914 33.82542,14.60914l-6.11319,25.22975z" fill="url(#color-2)" stroke="#000000" stroke-width="2.5" stroke-linecap="butt"/><path d="M271.50379,340.6174l-2.92874,-147.27579c0,0 6.95598,-25.69821 17.4223,-26.10344c10.39392,-0.40242 35.03226,-0.95905 56.55167,-1.79223c23.34033,-0.90368 30.733,25.97468 30.733,25.97468l0.93434,152.83541z" fill="url(#color-3)" stroke="#000000" stroke-width="2.5" stroke-linecap="butt"/><path d="M253.61309,179.67185z" fill="url(#color-4)" stroke="#000000" stroke-width="2.5" stroke-linecap="butt"/><path d="M357.00626,169.88987c0,0 -9.64174,47.21603 -16.18878,64.54716c-4.707,12.46023 -19.42802,29.73654 -19.42802,29.73654c0,0 -11.94196,-18.26957 -16.0714,-30.52397c-5.91831,-17.56298 -16.04531,-64.78455 -16.04531,-64.78455z" fill="#ffffff" stroke="#000000" stroke-width="2.5" stroke-linecap="round"/><path d="M377.58468,129.33183c-1.94104,28.48816 -27.92848,52.9286 -58.11114,50.8721c-30.18266,-2.05649 -53.13099,-29.83117 -51.18995,-58.31932c1.94104,-28.48815 27.98246,-49.91526 58.16512,-47.85875c30.18266,2.05649 53.07703,26.81782 51.13599,55.30597z" fill="#9c9c9c" stroke="#000000" stroke-width="2.5" stroke-linecap="butt"/><path d="M337.85993,126.80755c0,2.70884 -6.65243,4.90479 -14.85862,4.90479c-8.2062,0 -14.85862,-2.19595 -14.85862,-4.90479c0,-2.70884 6.65243,-4.90479 14.85862,-4.90479c8.2062,0 14.85862,2.19595 14.85862,4.90479z" fill-opacity="0.18431" fill="#000000" stroke="none" stroke-width="0" stroke-linecap="butt"/><path d="M345.9761,167.61236c0,0 0.25988,1.19459 -5.67217,1.41006c-4.89998,0.17798 -11.23051,-0.42507 -17.80298,-0.49421c-7.3684,-0.07751 -14.86837,0.36584 -17.58929,0.36584c-3.61366,0 -6.04852,-1.28169 -6.04852,-1.28169" fill="none" stroke="#000000" stroke-width="2.5" stroke-linecap="round"/><path d="M297.85659,121.98988c0.01785,2.2348 -1.95612,4.06232 -4.40893,4.0819c-2.45283,0.01958 -4.45569,-1.77621 -4.47354,-4.011c-0.01785,-2.2348 1.95612,-4.06232 4.40893,-4.0819c2.45283,-0.01958 4.45568,1.77621 4.47352,4.01101z" fill="#ffffff" stroke="#000000" stroke-width="2.5" stroke-linecap="butt"/><path d="M354.43787,121.63402c0.01785,2.2348 -1.95611,4.06232 -4.40893,4.0819c-2.45283,0.01958 -4.45568,-1.77621 -4.47352,-4.011c-0.01785,-2.2348 1.95611,-4.06231 4.40893,-4.08189c2.45283,-0.01958 4.45569,1.7762 4.47353,4.01099z" fill="#000000" stroke="#000000" stroke-width="2.5" stroke-linecap="butt"/><path d="M311.42035,122.44856c-1.16827,0.44458 -1.61285,-0.72369 -1.61285,-0.72369l-0.06534,-0.1932c-1.10526,-2.15306 -2.21037,-4.26399 -3.34405,-6.39026c-1.08908,-2.0518 -2.49213,-4.53962 -5.08104,-4.94746c-3.95521,-0.62309 -8.18526,3.14446 -9.72962,6.27304c-0.50997,1.03311 -1.21054,2.24283 -0.87282,3.34436c0,0 0.31285,1.21021 -0.89736,1.52307c-1.21021,0.31285 -1.52307,-0.89736 -1.52307,-0.89736c-1.47486,-6.43712 7.17921,-13.61617 13.45567,-12.70534c3.37784,0.4902 5.41063,3.51376 6.85644,6.2376c1.13294,2.143 2.24774,4.2543 3.35991,6.42062l0.17783,0.44579c0,0 0.44458,1.16827 -0.72369,1.61285z" fill="#000000" stroke="none" stroke-width="0.5" stroke-linecap="butt"/><g fill="#000000" stroke="#000000" stroke-width="2.5"><path d="M324.05178,187.02793l19.98266,-6.01321l0.60554,21.92135l-21.19374,-10.27764l-23.01034,9.43971l-0.20185,-20.84756z" stroke-linecap="round"/><path d="M331.11634,190.65565c0,3.34428 -3.29847,5.94011 -7.36735,5.79796c-4.06888,-0.14216 -7.36735,-2.96847 -7.36735,-6.31275c0,-3.34428 3.29847,-5.94011 7.36735,-5.79795c4.06888,0.14216 7.36735,2.96847 7.36735,6.31275z" stroke-linecap="butt"/></g><path d="M321.29462,212.49765c-3.22067,-0.80517 -5.16665,-5.3287 -0.81519,-6.08692c3.76675,-0.65634 6.29409,4.88702 1.49451,6.08692z" fill="#000000" stroke="none" stroke-width="0.5" stroke-linecap="butt"/><path d="M323.23562,223.11823c2.25232,2.62771 1.38133,6.80961 -2.64754,5.37073c-5.66408,-2.02289 0.83436,-8.37677 2.54897,-5.37621z" fill="#000000" stroke="none" stroke-width="0.5" stroke-linecap="butt"/><path d="M324.08192,243.01676c-2.63792,4.61635 -6.20299,0.88693 -5.55525,-0.40855c-0.00252,-0.04594 -0.00378,-0.09222 -0.00378,-0.1388c0,-0.25658 0.03866,-0.50414 0.11046,-0.73716c0.94765,-4.24214 6.40248,-0.38482 5.44858,1.2845z" fill="#000000" stroke="none" stroke-width="0.5" stroke-linecap="butt"/><path d="M305.6271,252.55532l-18.26817,-61.53491" fill="none" stroke-opacity="0.25882" stroke="#000000" stroke-width="2.5" stroke-linecap="round"/><path d="M355.62421,208.08673l-16.34521,42.30525" fill="none" stroke-opacity="0.25882" stroke="#000000" stroke-width="2.5" stroke-linecap="round"/><path d="M321.01083,268.17941l1.44223,60.57342" fill="none" stroke-opacity="0.25882" stroke="#000000" stroke-width="2.5" stroke-linecap="round"/><path d="M346.00939,251.59384l20.19114,-47.83378" fill="none" stroke-opacity="0.25882" stroke="#000000" stroke-width="2.5" stroke-linecap="round"/><path d="M279.18632,197.75079l17.78744,59.61194" fill="none" stroke-opacity="0.25882" stroke="#000000" stroke-width="2.5" stroke-linecap="round"/></g></g></svg>