<svg version="1.1" xmlns="http://www.w3.org/2000/svg" xmlns:xlink="http://www.w3.org/1999/xlink" width="175.20876" height="432.69933" viewBox="0,0,175.20876,432.69933"><defs><linearGradient x1="297.952" y1="184.12282" x2="298.63736" y2="209.39203" gradientUnits="userSpaceOnUse" id="color-1"><stop offset="0" stop-color="#ffffff"/><stop offset="1" stop-color="#2c2c2c"/></linearGradient><linearGradient x1="319.8252" y1="187.96993" x2="320.59622" y2="216.39748" gradientUnits="userSpaceOnUse" id="color-2"><stop offset="0" stop-color="#ffffff"/><stop offset="1" stop-color="#2c2c2c"/></linearGradient><linearGradient x1="322.76679" y1="216.1376" x2="324.07603" y2="264.40935" gradientUnits="userSpaceOnUse" id="color-3"><stop offset="0" stop-color="#717171"/><stop offset="1" stop-color="#2c2c2c"/></linearGradient><linearGradient x1="339.84568" y1="181.54488" x2="340.53104" y2="206.81409" gradientUnits="userSpaceOnUse" id="color-4"><stop offset="0" stop-color="#ffffff"/><stop offset="1" stop-color="#2c2c2c"/></linearGradient><linearGradient x1="315.15396" y1="84.63446" x2="315.34341" y2="91.61962" gradientUnits="userSpaceOnUse" id="color-5"><stop offset="0" stop-color="#a2a2a2"/><stop offset="1" stop-color="#7f7f7f"/></linearGradient></defs><g transform="translate(-229.42689,-35.06947)"><g stroke-miterlimit="10"><g fill="#000000" stroke="none" stroke-width="0.5" stroke-linecap="butt"><path d="M264.05951,117.7069c0.55362,-0.95731 1.11627,-1.90718 1.70523,-2.83573c0.9851,-1.55254 1.80889,-3.18729 2.64566,-4.82124c-1.31862,0.5951 -2.18369,1.75304 -2.24589,3.73053c-0.89445,0.78231 -1.93367,2.54328 -2.105,3.92642zM343.0116,208.36759c-0.06233,-0.24672 -0.08581,-0.52183 -0.09055,-0.79978c-0.19791,-1.29986 -0.61501,-2.56399 -0.87743,-3.83465c0.02687,0.99002 0.05378,1.98004 0.08089,2.97012c0.096,3.50632 0.64533,7.09579 0.7397,10.57512c0.07782,2.86939 0.78797,6.74545 0.21686,9.48774l0.0397,0.00921l0.01218,0.49941c0,0.00003 0,0.00006 0,0.00008c0.00336,0.13763 -0.10816,0.22289 -0.24941,0.19051c-0.0215,-0.00493 -0.04245,-0.01229 -0.06253,-0.02174c0.78947,3.00943 1.14649,6.20367 1.74832,9.15641c0.73142,3.58854 1.04874,7.13325 2.00431,10.72246c0.44923,1.68739 1.07129,3.48572 1.32832,5.16412c0.07631,0.49826 0.07172,1.04675 0.07851,1.53345c0.0025,0.17888 0.03566,0.69615 0.11006,0.55208c0.22507,-0.43575 0.24116,-1.02235 0.31774,-1.5886l-0.07856,-0.0238l0.02528,-0.48731c0.00533,-0.12815 0.11359,-0.20562 0.24928,-0.17451c0.10408,0.02386 0.19529,0.10493 0.23774,0.20108l0.2299,0.49619c1.10665,2.39424 1.09941,4.8068 1.98153,7.18863c1.30404,3.53894 1.44875,7.21315 2.04708,10.76661c0.16664,0.98971 1.63512,5.83818 0.82237,6.30935c-0.0064,0.00371 -0.01279,0.00732 -0.01914,0.01083c0.26294,0.75711 0.49875,1.52014 0.68097,2.30892c1.20129,3.55782 2.505,7.2013 3.33672,10.77084c0.39415,1.74113 1.84527,3.72287 2.46526,5.43403c0.5161,1.42446 0.13666,3.70649 0.13787,5.09949c-0.16601,2.42613 -1.48292,4.89489 -2.5552,6.8784c-0.3664,0.67776 -0.34411,1.60151 -0.90351,2.0756c-1.97678,2.49731 -3.74801,4.6543 -6.2558,6.61124c-2.26455,2.0246 -4.45954,4.29668 -6.43269,6.61202c-1.95506,2.28455 -4.98619,3.96188 -7.34537,5.74064c-2.15132,1.47978 -5.37557,3.84375 -8.62367,3.2893c-3.52377,-0.68559 -6.87375,-0.29285 -10.54685,-1.13504c-3.53194,-0.81033 -7.02931,-2.06059 -10.66615,-2.88362c-3.58692,-0.81174 -7.10063,-1.18296 -10.71277,-2.01878c-3.23741,-0.74914 -7.79434,-3.06326 -9.77401,-6.09508c-2.27167,-3.65406 -6.60055,-3.14884 -9.56802,-2.8084c-0.789,0.09025 -2.90362,0.81038 -3.6608,-0.17803c-0.50223,-0.6556 -1.11935,-4.64386 -1.04662,-6.02185c-2.71884,0.98783 -3.35883,3.27072 -5.109,5.05149l0.02516,0.01876l-0.22944,0.37984c-0.04037,0.07073 -0.12492,0.10605 -0.22414,0.0833c-0.14148,-0.03244 -0.25921,-0.17061 -0.26295,-0.30863c-0.00002,-0.0008 -0.00004,-0.0016 -0.00005,-0.00239l-0.00935,-0.49849l0.00063,0.00015l-0.00067,-0.00252c0.00185,-1.902 -0.0118,-4.66868 0.59113,-6.31451c0.67397,-1.80751 1.18387,-3.84899 1.33952,-5.89998c0.09065,-1.19449 -0.33011,-2.65637 -0.01322,-3.76228c-2.3281,0.66209 -4.26844,3.393 -6.45324,4.80241l0.02322,0.02394l-0.31934,0.30474c-0.0455,0.04416 -0.11527,0.06291 -0.19434,0.04478c-0.14148,-0.03244 -0.25921,-0.17061 -0.26295,-0.30863c-0.00002,-0.00073 -0.00004,-0.00146 -0.00005,-0.00219l-0.00971,-0.49861c-0.03453,-2.46626 0.91375,-5.75924 1.75173,-7.87544c0.74168,-1.87301 1.09514,-4.29278 1.00875,-6.49619c-0.00796,-0.20303 -0.05065,-2.20566 -0.1747,-2.25233c-0.28143,-0.10588 -0.38598,0.31662 -0.63161,0.39142c-2.7699,0.83186 -4.62359,3.085 -7.21699,4.17824l0.01104,0.41021c0,0 0,0 0,0.00001c0.00371,0.13799 -0.10793,0.22356 -0.2494,0.19113c-0.14147,-0.03244 -0.25919,-0.17061 -0.26295,-0.30861v0l-0.0136,-0.49983l0.00015,0.00004v-0.00007l0.00004,0.00001l-0.00004,-0.00005c-0.0311,-1.16924 -0.05156,-2.33342 -0.04957,-3.49462c0.00539,-3.13196 0.98683,-7.02584 1.88114,-9.81232c0.66897,-2.08436 0.96008,-4.21204 1.19178,-6.48425c0.07227,-0.70873 -0.17758,-1.70234 -0.05296,-2.40266c-0.89711,0.7654 -2.44128,1.44521 -3.08137,2.39817c-0.34164,0.50862 -0.4431,1.10463 -0.6979,1.64442l0.0889,0.05296l-0.16812,0.42006c-0.03266,0.08877 -0.12556,0.13638 -0.23694,0.11085c-0.14148,-0.03244 -0.25921,-0.17061 -0.26295,-0.30863c-0.00005,-0.00183 -0.00008,-0.00364 -0.00009,-0.00545l-0.00393,-0.49676c-0.00674,-0.874 0.08084,-1.64281 0.27539,-2.44332c0.78254,-3.21985 1.36131,-6.45082 2.37473,-9.5671c0.72322,-2.22393 0.86057,-4.65019 1.41895,-6.93091c0.21683,-0.88565 0.80698,-1.61651 0.7716,-2.60008c-0.01816,-0.65073 0.25457,-3.79833 -0.26346,-4.29572c-0.07062,-0.06781 -0.96404,0.43939 -1.02621,0.4689c-0.99934,0.4743 -1.60628,1.38896 -2.40228,2.0762c-0.27977,0.72227 -0.58125,1.43393 -0.83455,2.16872c-0.05324,0.15445 -0.3982,1.46241 -0.46898,1.4698c-1.80841,0.18855 -0.18349,-3.34655 0.33518,-3.64203c0.14336,-0.08062 0.34446,-0.2656 0.58579,-0.50729c0.22527,-0.62228 0.43314,-1.25358 0.57676,-1.91202c0.70423,-3.22861 2.22178,-5.94037 2.80833,-9.30204c0.77767,-2.11536 1.3326,-4.45198 1.49904,-6.8517c0.03379,-0.48724 -0.12936,-1.13132 -0.09873,-1.65137c-0.74956,0.82787 -2.201,1.38981 -3.08653,2.06997c-0.83455,1.19248 -1.90666,2.27127 -2.66484,3.51067c-0.54015,0.88298 -0.71095,2.32775 -1.28581,3.2689c-0.05304,0.17609 -0.10667,0.34957 -0.16079,0.51985l-0.13881,0.43672c-0.02799,0.0972 -0.12448,0.15088 -0.24127,0.1241c-0.14123,-0.03238 -0.2588,-0.17014 -0.26292,-0.30791c0,-0.00003 0,-0.00006 0,-0.00009l-0.01502,-0.50006l0.11724,0.02655c-0.04414,-0.98288 0.3147,-1.98281 0.85341,-2.94414c0.16567,-0.68646 0.31503,-1.37462 0.44082,-2.03666c0.62658,-3.2667 1.80077,-6.27878 2.66078,-9.43549c0.55977,-2.04899 1.1322,-4.24553 1.51306,-6.37518c0.09287,-0.51931 0.00756,-1.26005 0.05407,-1.8702c-0.84852,1.39308 -2.23826,2.36009 -3.04916,3.77096c-0.54506,0.94833 -0.89007,2.21421 -1.60657,2.95615c0.00029,0.01083 0.00058,0.02164 0.00086,0.03246l0.01309,0.49968c0,0.00001 0,0.00002 0,0.00003c0.00362,0.13789 -0.10799,0.22337 -0.2494,0.19095c-0.14147,-0.03244 -0.25918,-0.17059 -0.26295,-0.30859l-0.01364,-0.49983l0.00054,0.00013l-0.00001,-0.00026c-0.03964,-1.51273 -0.12737,-3.03453 0.05214,-4.48323c0.41212,-3.32607 0.56127,-6.76338 0.91107,-10.12569c-0.05154,-1.8256 -0.0738,-3.64669 -0.16255,-5.48045c-0.01263,-0.26113 0.1093,-1.60098 -0.02049,-1.7793c-0.26234,-0.36041 -0.39977,0.57286 -0.63475,0.82752c-0.12603,0.13659 -0.24346,0.22405 -0.36912,0.29299l-0.34899,0.2744c-0.04524,0.03564 -0.10928,0.04952 -0.18097,0.03308c-0.14148,-0.03244 -0.25921,-0.17061 -0.26295,-0.30863v0l-0.01356,-0.49982v0v-0.00001c-0.09701,-3.59202 0.43659,-6.74337 0.99816,-10.12504c0.35395,-2.10078 -0.04031,-4.69015 -0.10116,-6.92473c-0.01329,-0.48801 -0.15535,-1.28729 -0.11905,-1.91272c-0.38687,0.39431 -0.77004,0.88016 -1.12102,1.38775c-0.11677,0.57337 -0.22711,1.14659 -0.3337,1.71619c-0.11989,0.63808 -0.43133,3.30418 -1.43658,1.85718c-0.63167,-0.90927 0.30467,-2.64561 1.30522,-3.98087c0.53998,-2.6168 1.21982,-5.23082 2.28318,-7.51128c1.33341,-2.85958 1.73894,-6.20484 3.09476,-9.11749c0.6817,-3.20554 1.90496,-6.22466 2.23706,-9.55593c0.16746,-1.67972 -0.33153,-1.6826 -0.96326,-1.05616c-0.05911,0.17714 -0.11728,0.35397 -0.17427,0.5305c-0.71555,1.34911 -1.13375,2.74656 -1.61474,4.23561l-0.05587,0.46006c-0.01244,0.11963 -0.11763,0.19029 -0.24825,0.16035c-0.1358,-0.03113 -0.24972,-0.1597 -0.26195,-0.29204l-0.05147,-0.505l0.0775,0.01214c-0.34875,-1.77599 0.61215,-2.9731 1.57791,-4.18221c0.0314,-0.0612 0.06339,-0.12228 0.09599,-0.18324c0.96003,-3.00631 2.27511,-6.07141 2.8027,-9.23382c0.54073,-3.24112 1.21966,-6.31627 1.53927,-9.63525c-2.72985,0.72292 -4.67747,2.93271 -7.1705,3.91923l0.02049,0.02765l-0.38256,0.23055c-0.04369,0.02684 -0.101,0.03595 -0.16429,0.02144c-0.14148,-0.03244 -0.25921,-0.17061 -0.26295,-0.30863c-0.00027,-0.00979 0.00005,-0.0193 0.00092,-0.02854l0.03855,-0.48188l0.0048,0.00158l-0.00256,-0.01993c0.07867,-0.3086 0.15757,-0.61708 0.23673,-0.92544c0.81922,-3.13749 2.00207,-6.08906 3.36816,-9.00052c1.35132,-2.87998 2.94687,-5.60004 4.46851,-8.36431c0.9573,-1.55001 1.85222,-3.14962 2.76277,-4.73615c-0.22422,-0.08144 -0.21904,-0.30751 -0.21904,-0.30751l0.00152,-0.06647c0.03482,-1.40307 1.13853,-3.63915 2.16321,-4.40674c-0.07579,-2.18635 1.28544,-3.6365 3.13642,-4.23114c0.25905,-0.49974 0.52199,-0.99813 0.79383,-1.49279c0,0 0.1085,-0.19726 0.34066,-0.03297c0.23216,0.16429 0.12366,0.36155 0.12366,0.36155c-0.17874,0.32468 -0.35362,0.65101 -0.52604,0.97831c0.9346,-0.17822 1.95295,-0.15861 2.95245,0.07177c0.33338,-0.52113 1.30729,-0.52966 1.87288,-0.96005c1.95262,-1.48589 3.81111,-2.4863 5.75018,-3.94787c2.42439,-1.72369 5.03017,-3.8983 7.9973,-4.77132c2.45341,-1.89753 5.34862,-3.22538 7.83423,-5.07181c0.90352,-0.61907 2.41409,-1.85266 3.56298,-2.04167c1.85981,-0.30596 3.98763,0.36522 5.88691,0.0279c2.38259,0.2419 5.00943,0.02136 7.28557,-0.06686c0.94647,-0.03668 2.13652,0.87752 2.76143,0.12438c3.58681,-0.17234 6.33474,-1.05173 9.62634,-1.95322c1.99823,-0.54315 3.48909,-1.64922 5.26456,-2.49076c0.4622,-0.21907 1.19199,-0.44749 1.73608,0.15552c0.52649,0.58349 0.81423,1.91568 1.04678,2.62776c0.87191,3.61256 1.75532,7.15968 2.56051,10.77625c0.30489,1.36948 0.43587,2.68193 0.50338,3.98923c0.01531,0.03202 0.02525,0.06589 0.0284,0.10002l0.0516,0.50502c0.02004,0.20181 0.04356,0.40463 0.0701,0.60833c0.0342,0.17156 0.05959,0.35517 0.0779,0.54694c0.4055,2.635 1.24296,5.39929 1.54735,8.04064c0.41286,3.58265 0.50598,7.05476 0.60126,10.57711c0.07726,2.85639 0.81211,6.80503 0.12597,9.49098l0.03938,0.01447l-0.05867,0.47464c-0.01265,0.11937 -0.11775,0.18982 -0.24821,0.15991c-0.08709,-0.01997 -0.16518,-0.08 -0.21322,-0.15541l-0.30709,-0.47169l0.01978,-0.00945l-0.05606,-0.06428c-0.05525,-0.74849 -0.22371,-1.44443 -0.4184,-2.12021c0.00808,0.75482 -0.06078,1.5087 0.0505,2.25862c0.30236,2.03748 1.03462,4.09664 1.31264,6.14924c0.48381,3.57195 0.8892,7.13278 1.37639,10.70548c0.0167,0.62146 0.48402,5.03082 -0.72236,4.27781c-0.13584,-0.08479 -0.17631,-1.04859 -0.19877,-1.22932c-0.04503,-0.36241 -0.18554,-0.78299 -0.35362,-1.22379c0.10561,0.91829 0.20452,1.83638 0.43359,2.78603c0.86834,3.59994 1.64043,7.19051 2.35307,10.78455c0.70534,3.55726 0.49514,7.07526 0.9537,10.62643c0.19581,1.5238 0.13773,3.03991 0.16817,4.5333c0.00367,0.18013 0.05175,1.15199 -0.09867,1.18234c-0.44053,0.08889 -0.92441,-1.21877 -1.24827,-2.50688c0.17426,2.33989 0.54078,4.69411 0.60852,7.0238c0.09927,3.48848 1.094,7.17005 1.1904,10.66314c0.07559,2.7869 0.77767,6.60832 0.25005,9.31661c0.00229,0.06043 0.00453,0.11985 0.00676,0.1782l-0.00119,0.00092l0.00123,0.00028l0.00001,0.00034l0.0007,0.00016l0.01355,0.49982v0c0.00374,0.13802 -0.10792,0.22361 -0.2494,0.19117c-0.14136,-0.03241 -0.25901,-0.17039 -0.26295,-0.30829c0,-0.00001 0,-0.00003 0,-0.00004l-0.01423,-0.49903c-0.00348,-0.09094 -0.00848,-0.18165 -0.01487,-0.27215zM255.16,160.10604c0.14119,-0.43935 0.28443,-0.87152 0.43927,-1.2972c-0.20398,0.39864 -0.35383,0.75582 -0.41031,0.99449c-0.0234,0.09889 -0.03068,0.20034 -0.02896,0.30272zM250.15254,185.48544c-0.09832,0.17567 -0.1896,0.34673 -0.27254,0.51005c-0.20446,0.40262 -0.27229,0.77568 -0.2545,1.26388c0.007,0.19204 0.11243,0.78229 0.08774,0.58713c-0.09789,-0.77397 0.26077,-1.40486 0.39721,-2.13713c0.01395,-0.07459 0.02798,-0.14923 0.04207,-0.22393zM254.52996,250.6706c-0.58712,0.36545 -0.82161,0.74956 -0.89993,1.58204c-0.03027,0.32174 0.07011,1.32899 0.12563,1.01679c0.16,-0.89978 0.45854,-1.75045 0.7743,-2.59883zM342.47588,226.23562c-0.11157,-0.48169 -0.31194,-1.02199 -0.52973,-1.5758c0.13291,0.38942 0.26868,0.77521 0.3936,1.152c0.04664,0.14068 0.09199,0.28196 0.13613,0.42379z"/><path d="M371.20933,119.94028c-0.16931,-1.97121 -1.09586,-3.08056 -2.4448,-3.60331c0.9241,1.58619 1.8353,3.17389 2.9031,4.67075c0.63843,0.89525 1.25174,1.81323 1.85644,2.73912c-0.24605,-1.37182 -1.37921,-3.07389 -2.31474,-3.80656zM299.6022,218.82636l0.01285,0.49907c0,0.00001 0,0.00003 0,0.00004c0.00355,0.13792 -0.10644,0.28208 -0.24585,0.32209c-0.13952,0.04006 -0.25565,-0.03936 -0.25939,-0.17738v0l-0.01357,-0.49982l0.00069,-0.0002l-0.00001,-0.00034l0.00121,-0.00034l-0.00123,-0.00086c-0.00093,-0.05839 -0.00192,-0.11785 -0.00291,-0.17831c-0.67365,-2.6757 -0.17974,-6.52958 -0.25532,-9.31646c-0.09307,-3.49318 0.70063,-7.22326 0.61066,-10.71199c-0.05864,-2.32995 0.17972,-4.70057 0.22691,-7.04646c-0.25356,1.30377 -0.66585,2.63573 -1.11056,2.57086c-0.15184,-0.02215 -0.15652,-0.99519 -0.16261,-1.17525c-0.05055,-1.49283 -0.19072,-3.00356 -0.0778,-4.53574c0.2654,-3.57082 -0.13519,-7.07223 0.37629,-10.66251c0.51677,-3.62738 1.0931,-7.25453 1.76504,-10.89624c0.17726,-0.96067 0.22626,-1.88276 0.28194,-2.80544c-0.14395,0.44927 -0.26144,0.87684 -0.28677,1.24116c-0.01263,0.18169 -0.0008,1.14625 -0.13185,1.23828c-1.16381,0.81728 -0.93617,-3.61092 -0.95318,-4.23236c0.29282,-3.59386 0.50459,-7.17143 0.79408,-10.76435c0.16635,-2.06466 0.78592,-4.16048 0.9774,-6.21135c0.07048,-0.75485 -0.03915,-1.50389 -0.072,-2.25804c-0.15778,0.68533 -0.28826,1.3894 -0.30286,2.13978l-0.0525,0.06723l0.02026,0.00836l-0.28108,0.48764c-0.04388,0.0779 -0.1186,0.14207 -0.20448,0.16673c-0.12865,0.03693 -0.23741,-0.0277 -0.25651,-0.14622l-0.08432,-0.47076l0.03853,-0.01657c-0.83073,-2.64481 -0.31099,-6.62748 -0.38867,-9.48386c-0.09578,-3.52234 -0.191,-6.99437 0.02705,-10.59415c0.16076,-2.65397 0.84717,-5.45959 1.10923,-8.1127c0.00788,-0.19247 0.02328,-0.3772 0.04814,-0.55036c0.01546,-0.20485 0.02795,-0.40864 0.03701,-0.61124l0.02416,-0.50707c0.0013,-0.03425 0.00937,-0.06861 0.02294,-0.10141c-0.00346,-1.30904 0.0562,-2.62666 0.28641,-4.01065c0.60796,-3.6549 1.29781,-7.24469 1.97261,-10.8992c0.19361,-0.72363 0.40871,-2.06945 0.9028,-2.68062c0.51061,-0.63162 1.25171,-0.44309 1.7251,-0.24939c1.81847,0.74406 3.36709,1.76769 5.39184,2.20172c3.33563,0.72176 6.12719,1.45089 9.71806,1.42856c0.66482,0.71816 1.80356,-0.2592 2.75063,-0.27387c2.27757,-0.03528 4.9125,0.04255 7.27848,-0.32815c1.91477,0.23387 4.00309,-0.55166 5.87674,-0.34696c1.15744,0.12646 2.73266,1.27634 3.66841,1.84553c2.58205,1.70898 5.54498,2.87795 8.09763,4.63971c3.01009,0.71089 5.72992,2.74106 8.24417,4.3308c2.01544,1.35431 3.92543,2.25252 5.95572,3.63038c0.58809,0.3991 1.56102,0.35484 1.92217,0.85713c0.98555,-0.28421 2.00133,-0.359 2.94421,-0.23171c-0.18991,-0.31748 -0.38222,-0.63385 -0.57829,-0.94835c0,0 -0.11903,-0.19108 0.10388,-0.36772c0.22291,-0.17663 0.34195,0.01445 0.34195,0.01445c0.29826,0.4792 0.58783,0.9626 0.87358,1.44757c1.88049,0.49344 3.31834,1.86767 3.36115,4.05491c1.06478,0.71092 2.28808,2.88388 2.39889,4.28299l0.00512,0.06628c0,0 0.01743,0.22547 -0.20205,0.31894c0.99521,1.53484 1.97552,3.08359 3.01543,4.57943c1.66923,2.67773 3.40988,5.30731 4.91532,8.1098c1.5219,2.83313 2.863,5.71623 3.85108,8.80472c0.09576,0.30363 0.19126,0.60738 0.28654,0.91125l-0.00149,0.02004l0.00471,-0.00183l0.06461,0.47908c0.00136,0.00918 0.0022,0.01866 0.00246,0.02843c0.00374,0.13802 -0.10632,0.28239 -0.24584,0.32244c-0.0624,0.01791 -0.12012,0.01193 -0.1652,-0.01252l-0.3945,-0.20947l0.01896,-0.02872c-2.54284,-0.84993 -4.60737,-2.95091 -7.37239,-3.52479c0.49905,3.29677 1.34366,6.33059 2.05928,9.53764c0.69825,3.12917 2.17753,6.11848 3.2991,9.06834c0.03585,0.0591 0.07111,0.11836 0.10578,0.17777c1.02989,1.15498 2.05426,2.29825 1.80229,4.09053l0.07673,-0.01633l-0.02402,0.50705c-0.00504,0.1328 -0.11182,0.26735 -0.24574,0.3058c-0.1288,0.03699 -0.23767,-0.02787 -0.25658,-0.14666l-0.08072,-0.45635c-0.56099,-1.46079 -1.05433,-2.83352 -1.84194,-4.14185c-0.06648,-0.17318 -0.13414,-0.3466 -0.20277,-0.52027c-0.66476,-0.59127 -1.16286,-0.56134 -0.90459,1.10682c0.51219,3.30838 1.89729,6.25675 2.75175,9.42063c1.5117,2.83488 2.09796,6.15323 3.58442,8.93633c1.18542,2.21948 2.00594,4.79281 2.68698,7.37648c1.07146,1.27906 2.10054,2.9621 1.51908,3.90427c-0.92532,1.49936 -1.38083,-1.14593 -1.53512,-1.77657c-0.13731,-0.56298 -0.27856,-1.12939 -0.42624,-1.69558c-0.37797,-0.48781 -0.78693,-0.95218 -1.19459,-1.32495c0.07014,0.62254 -0.02838,1.42834 -0.0152,1.91636c0.06037,2.23459 -0.19296,4.84153 0.27435,6.92004c0.74405,3.34627 1.44769,6.46405 1.54552,10.05605l-0.00001,0.00001h0.00001l0.01356,0.49982v0c0.00374,0.13802 -0.10632,0.28238 -0.24584,0.32243c-0.0707,0.02029 -0.13539,0.00991 -0.1825,-0.02323l-0.36336,-0.25508c-0.12922,-0.06203 -0.25121,-0.14299 -0.38446,-0.27255c-0.24844,-0.24155 -0.43624,-1.166 -0.67867,-0.7919c-0.11994,0.18509 0.07445,1.51636 0.07599,1.77779c0.01078,1.83586 0.08726,3.65548 0.13476,5.48119c0.53154,3.33841 0.86679,6.76259 1.45859,10.06142c0.25776,1.43684 0.25266,2.96116 0.29507,4.47381l0.00001,0.00027l0.00054,-0.00015l0.01348,0.49984c0.00372,0.13801 -0.10633,0.28235 -0.24584,0.3224c-0.13944,0.04004 -0.25552,-0.03928 -0.25939,-0.17715c0,-0.00001 0,-0.00002 0,-0.00003l-0.01401,-0.49965c-0.0003,-0.01083 -0.00061,-0.02164 -0.0009,-0.03246c-0.75567,-0.70201 -1.16878,-1.94733 -1.76444,-2.86473c-0.88619,-1.36484 -2.3263,-2.2551 -3.24908,-3.60013c0.07952,0.60674 0.03449,1.35101 0.15537,1.86452c0.49573,2.10587 1.18639,4.26816 1.8564,6.28379c1.02985,3.10545 2.36558,6.04947 3.16832,9.27739c0.1615,0.65424 0.34793,1.3333 0.55057,2.00977c0.59003,0.93073 1.00255,1.90972 1.01174,2.89355l0.11563,-0.03287l0.0121,0.50014c0,0.00003 0,0.00006 0,0.00009c0.00335,0.13781 -0.10658,0.28173 -0.24586,0.32172c-0.11519,0.03307 -0.21442,-0.0153 -0.24765,-0.11085l-0.16228,-0.42856c-0.06327,-0.1671 -0.12623,-0.3374 -0.18874,-0.51037c-0.62502,-0.9086 -0.87389,-2.34199 -1.4611,-3.1944c-0.82425,-1.19648 -1.95326,-2.21557 -2.85121,-3.36106c-0.9211,-0.63115 -2.40086,-1.11361 -3.1942,-1.89963c0.05878,0.51762 -0.06922,1.16961 -0.00908,1.65429c0.29626,2.38718 0.97702,4.69028 1.86823,6.76038c0.76791,3.32493 2.43021,5.95045 3.30842,9.13614c0.1791,0.64969 0.42088,1.26881 0.67956,1.87795c0.25409,0.22825 0.46491,0.40206 0.61243,0.47479c0.53392,0.26694 2.34808,3.70875 0.5321,3.6185c-0.07108,-0.00353 -0.48643,-1.29087 -0.54796,-1.44221c-0.29276,-0.71999 -0.63237,-1.41425 -0.95089,-2.1203c-0.83208,-0.64309 -1.48771,-1.5235 -2.51129,-1.94294c-0.06368,-0.02609 -0.98328,-0.48411 -1.05011,-0.41258c-0.4903,0.52474 -0.04738,3.65293 -0.03023,4.30368c0.01799,0.98403 0.64689,1.68184 0.91141,2.55443c0.68118,2.2471 0.94985,4.66234 1.79255,6.8438c1.18084,3.05677 1.93391,6.25162 2.88982,9.42431c0.23765,0.78879 0.36678,1.55173 0.40742,2.42481l0.023,0.49624c0.00009,0.0018 0.00016,0.00362 0.00021,0.00545c0.00374,0.13802 -0.10632,0.28238 -0.24584,0.32243c-0.10984,0.03154 -0.20518,-0.01098 -0.2426,-0.09785l-0.19065,-0.41034l0.0859,-0.0577c-0.28368,-0.52519 -0.41731,-1.11482 -0.78601,-1.60417c-0.69081,-0.91686 -2.26956,-1.51197 -3.20684,-2.22762c0.16241,0.69253 -0.03322,1.69822 0.07736,2.402c0.35451,2.25631 0.76053,4.36508 1.5415,6.41011c1.04404,2.73391 2.23509,6.56887 2.41024,9.69593c0.06494,1.15939 0.10761,2.32297 0.13993,3.49217l-0.00004,0.00005l0.00004,-0.00001v0.00008l0.00015,-0.00004l0.01351,0.49983v0c0.00373,0.13801 -0.10632,0.28237 -0.24584,0.32241c-0.1395,0.04005 -0.25561,-0.03934 -0.25939,-0.17733v0l-0.01122,-0.41021c-2.64885,-0.95104 -4.62194,-3.10039 -7.43286,-3.7809c-0.24933,-0.06137 -0.37661,-0.47758 -0.6519,-0.35661c-0.12134,0.05333 -0.05542,2.05533 -0.05237,2.25849c0.03319,2.20485 0.51728,4.60191 1.35939,6.43196c0.95146,2.06766 2.07684,5.3044 2.17604,7.76891l0.01733,0.49839c0.00003,0.00072 0.00005,0.00146 0.00007,0.00219c0.00374,0.13802 -0.10632,0.28238 -0.24584,0.32243c-0.07798,0.02238 -0.14865,0.00745 -0.19648,-0.03418l-0.33538,-0.28698l0.02189,-0.02516c-2.25798,-1.2889 -4.34349,-3.91063 -6.70405,-4.44555c0.37638,1.08713 0.03547,2.56965 0.19073,3.75747c0.26659,2.03954 0.8864,4.05038 1.65736,5.81869c0.69124,1.61072 0.82759,4.37408 0.93253,6.27318l-0.00053,0.00256l0.00063,-0.00019l0.01769,0.49826c0.00003,0.00079 0.00005,0.00159 0.00007,0.00239c0.00374,0.13802 -0.10632,0.28238 -0.24584,0.32243c-0.09784,0.02809 -0.18419,-0.00258 -0.22833,-0.07102l-0.24968,-0.36684l0.02409,-0.02011c-1.84412,-1.68329 -2.60691,-3.92813 -5.37529,-4.76713c0.14731,1.37201 -0.25272,5.38786 -0.71867,6.06972c-0.7025,1.028 -2.85303,0.42356 -3.64577,0.3762c-2.98156,-0.1791 -7.33147,-0.44892 -9.40172,3.3229c-1.81243,3.13467 -6.23722,5.6924 -9.42926,6.61592c-3.56152,1.03039 -7.04995,1.59154 -10.5876,2.5965c-3.58688,1.01895 -7.01134,2.45695 -10.49417,3.45753c-3.62205,1.04004 -6.98838,0.82948 -10.46982,1.70506c-3.21327,0.7297 -6.56092,-1.45603 -8.78929,-2.81702c-2.45213,-1.64826 -5.56972,-3.15882 -7.64574,-5.33405c-2.09575,-2.20498 -4.41067,-4.35474 -6.78163,-6.25361c-2.61017,-1.81813 -4.49573,-3.87595 -6.60497,-6.26244c-0.58428,-0.44307 -0.61209,-1.36666 -1.01469,-2.02357c-1.17823,-1.92245 -2.62701,-4.31621 -2.92428,-6.72978c-0.0743,-1.39102 -0.57688,-3.64911 -0.13875,-5.09945c0.52632,-1.74226 1.86789,-3.79974 2.16707,-5.55967c0.63701,-3.60937 1.74131,-7.31817 2.74798,-10.93587c0.13919,-0.7975 0.33329,-1.57218 0.55481,-2.34243c-0.00654,-0.00315 -0.01311,-0.00642 -0.0197,-0.00978c-0.83709,-0.42642 0.36642,-5.34737 0.47917,-6.34465c0.40484,-3.58066 0.35018,-7.25732 1.46047,-10.86174c0.75172,-2.42614 0.61371,-4.83478 1.58896,-7.28547l0.20266,-0.50792c0.03718,-0.0983 0.12387,-0.18421 0.22649,-0.21367c0.13381,-0.03842 0.24611,0.03306 0.25837,0.16074l0.05165,0.48523l-0.07716,0.02802c0.10716,0.56126 0.15502,1.14612 0.40338,1.56903c0.08211,0.13982 0.08718,-0.37849 0.07998,-0.55724c-0.01959,-0.48634 -0.05391,-1.03377 -0.00472,-1.53544c0.16567,-1.68987 0.68934,-3.51927 1.04645,-5.22853c0.75962,-3.63574 0.88432,-7.19243 1.42015,-10.81534c0.4409,-2.98103 0.62424,-6.18992 1.24943,-9.23772c-0.01954,0.01051 -0.04006,0.01901 -0.06126,0.0251c-0.13929,0.03999 -0.25526,-0.0391 -0.25937,-0.17671c0,-0.00003 0,-0.00005 0,-0.00008l-0.0149,-0.49934l0.03916,-0.01135c-0.71892,-2.7073 -0.21991,-6.61615 -0.29773,-9.48554c-0.09437,-3.47933 0.25958,-7.0933 0.16538,-10.59966c-0.0266,-0.99008 -0.05339,-1.98012 -0.08023,-2.97014c-0.19316,1.28303 -0.54112,2.56789 -0.66828,3.87657c0.01034,0.27779 0.00181,0.55376 -0.04706,0.80351c-0.00148,0.09071 -0.00156,0.18157 -0.0001,0.27255zM384.66342,165.30054c-0.06933,-0.23525 -0.23834,-0.58379 -0.46361,-0.97079c0.17769,0.41666 0.34414,0.84044 0.50894,1.27149c-0.00383,-0.10231 -0.0166,-0.20322 -0.04532,-0.3007zM391.13868,190.89322c0.17594,0.72381 0.56828,1.33431 0.51247,2.11246c-0.01407,0.1962 0.05921,-0.39888 0.05579,-0.59102c-0.0087,-0.48846 -0.09665,-0.85728 -0.32263,-1.24823c-0.09167,-0.15858 -0.19208,-0.32444 -0.29979,-0.49453c0.01812,0.07384 0.03618,0.1476 0.05415,0.22132zM391.16091,258.55155c0.07236,0.30873 0.118,-0.70249 0.07033,-1.0221c-0.12333,-0.82702 -0.3783,-1.19784 -0.98436,-1.53094c0.36128,0.83003 0.70548,1.66325 0.91402,2.55305zM301.2187,235.93598c0.10431,-0.383 0.21897,-0.77558 0.33057,-1.17163c-0.18745,0.56481 -0.35824,1.11516 -0.44353,1.60219c0.03639,-0.14403 0.07402,-0.28756 0.11297,-0.43055z"/></g><path d="M268.62001,463.88559c0,0 3.84219,-49.21892 2.52279,-83.70681c-1.61661,-42.25679 -11.51323,-151.29479 -11.51323,-151.29479c0,0 -5.14575,-15.63129 -1.05889,-27.22382c3.17685,-9.01128 14.84877,-14.56245 20.10898,-14.9882c11.94401,-0.96674 40.27193,-2.62416 65.00062,-4.62572c13.37723,-1.08276 28.96006,-2.29228 34.69805,8.07774c5.76661,10.42173 1.65499,32.42598 1.65499,32.42598c0,0 -0.5181,102.43268 0.68593,144.95092c1.08649,38.36747 6.2219,98.98762 6.2219,98.98762z" fill="#000000" stroke="#000000" stroke-width="2.5" stroke-linecap="butt"/><path d="M289.53726,184.40027c0.95064,0.75266 2.25307,0.55772 3.35763,0.95487c0.88927,0.31974 1.44271,1.36477 2.31297,1.8748c2.68128,1.57149 5.93255,1.94938 8.8094,2.4979c0.76199,0.14528 5.22375,0.16056 5.52799,1.03244c0.14349,0.41124 -2.60207,5.38827 -2.95289,5.9774c-3.36795,5.65563 -7.312,10.61638 -13.02119,11.96558c-1.00452,0.23738 -5.48203,1.73183 -6.15444,0.41982c-0.48533,-0.94697 -0.11476,-4.23127 -0.1464,-5.39789c-0.10941,-4.03398 -0.31,-8.58937 0.58322,-12.47048c0.51791,-2.25032 1.26976,-4.44925 1.20354,-6.89063z" fill="url(#color-1)" stroke="#000000" stroke-width="2.5" stroke-linecap="round"/><path d="M309.78133,191.90615c1.4367,-0.05963 2.01916,-1.13481 3.2799,-1.45645c4.6236,-1.17962 10.74286,-3.86911 15.26278,-1.91352c0.67849,0.29356 1.89522,1.04083 2.06213,2.04783c0.52879,3.19016 -2.7032,16.15076 -4.04372,19.33332c-0.78865,1.87236 -0.99298,4.26955 -2.4578,5.62455c-2.3594,2.18249 -5.16393,-0.56069 -7.03049,-1.70366c-1.04706,-0.64115 -2.11448,-0.9127 -2.82104,-2.20801c-1.77694,-3.25762 -4.8554,-16.76957 -4.62932,-20.79415z" fill="url(#color-2)" stroke="#000000" stroke-width="2.5" stroke-linecap="round"/><path d="M321.14981,216.22411c9.39207,2.96962 5.6083,10.1741 7.17876,19.65002c0.80563,4.861 2.96625,9.29215 2.81218,14.50215c-0.15432,5.21827 -0.9094,12.79293 -6.0249,13.7838c-1.41928,0.27491 -5.09653,0.69616 -6.1919,-0.51692c-1.10207,-1.22049 -1.47301,-4.75307 -1.83126,-6.56197c-1.76986,-8.93642 -0.66472,-16.49903 0.33499,-25.60858c0.45098,-4.10939 -0.61615,-12.9113 2.96784,-15.27069z" fill="url(#color-3)" stroke="#000000" stroke-width="2.5" stroke-linecap="round"/><path d="M348.7406,181.30362c0.06622,2.44139 0.93617,4.59633 1.57528,6.81527c1.10228,3.82698 1.14891,8.38653 1.25832,12.42053c0.03164,1.16663 0.57969,4.426 0.1464,5.39789c-0.60031,1.34653 -5.15223,0.097 -6.16814,-0.08559c-5.77394,-1.03775 -9.98109,-5.7774 -13.65064,-11.24218c-0.38224,-0.56925 -3.39356,-5.39012 -3.27256,-5.80855c0.25653,-0.88709 4.71091,-1.1442 5.4639,-1.33057c2.8429,-0.70365 6.06889,-1.25722 8.66106,-2.97173c0.84132,-0.55647 1.3373,-1.62995 2.20794,-1.99742c1.08141,-0.45644 2.3925,-0.33238 3.30094,-1.13546z" fill="url(#color-4)" stroke="#000000" stroke-width="2.5" stroke-linecap="round"/><path d="M371.34261,141.77469c-1.1076,28.78819 -25.70308,54.12734 -55.10196,52.84872c-29.39887,-1.27862 -52.46839,-28.69083 -51.36079,-57.479c0.27776,-7.21938 5.48614,-10.42324 5.95351,-13.56194c1.33876,-8.99055 0.49654,-5.8512 19.91127,-4.55927c0.83501,0.05556 5.51774,-8.38792 6.42601,-8.34843c7.771,0.33797 5.67126,-1.42477 15.75902,-1.57033c5.96233,-0.08603 8.96862,3.05986 15.91989,3.97832c6.57084,0.86821 17.12549,-0.52679 21.59406,0.6613c5.07947,1.35051 8.37406,1.94111 11.77957,5.41722c2.16969,2.21467 2.14498,6.55262 3.68577,9.70796c2.2609,4.62993 5.60748,8.38758 5.43366,12.90546z" fill="#000000" stroke="#000000" stroke-width="2.5" stroke-linecap="butt"/><path d="M403.35128,107.40743c0.3139,11.57338 -38.08613,22.00388 -85.76884,23.29714c-47.68272,1.29326 -86.59165,-7.04043 -86.90555,-18.61382c-0.3139,-11.57338 38.08612,-22.0039 85.76884,-23.29716c47.68272,-1.29326 86.59166,7.04043 86.90556,18.61384z" fill="#000000" stroke="#000000" stroke-width="2.5" stroke-linecap="butt"/><path d="M271.3318,110.9881c0,0 -14.17075,-39.28444 -1.55942,-57.49595c12.61133,-18.2115 30.25391,-16.75862 45.53701,-17.17314c15.03618,-0.40782 34.59507,0.2837 45.43295,14.70584c10.83786,14.42214 1.55942,57.49595 1.55942,57.49595z" fill="#000000" stroke="#000000" stroke-width="2.5" stroke-linecap="butt"/><path d="M265.86361,92.96162l-0.18945,-6.98516c0,0 35.13419,2.01006 51.87886,1.55591c16.22551,-0.44007 47.08073,-4.23991 47.08073,-4.23991l0.18945,6.98516c0,0 -31.00581,3.80393 -47.4612,4.25023c-16.53079,0.44835 -51.4984,-1.56623 -51.4984,-1.56623z" fill="url(#color-5)" stroke="#000000" stroke-width="2.5" stroke-linecap="butt"/><path d="M298.62382,133.52258c-0.57999,-0.16082 -1.17129,-0.27612 -1.77346,-0.35174c0.67771,0.17369 1.30571,0.4102 1.88123,0.70057c0.32799,0.06609 0.65432,0.1435 0.97866,0.23323c-0.25793,-0.13874 -0.517,-0.28045 -0.77416,-0.42774l-0.15315,-0.0326c0,0 -0.13895,-0.03825 -0.15914,-0.12174zM279.78901,137.39479c0.30448,-0.34961 0.69935,-0.6886 1.19803,-1.01298c0.31721,-0.20529 0.65469,-0.3983 1.00909,-0.58038c1.33688,-1.412 3.46577,-2.34003 6.09773,-2.85145c-1.58951,0.15391 -3.14855,0.43635 -4.71406,0.90207c-1.66794,0.82105 -2.91017,2.16189 -3.59078,3.54276zM301.46071,135.79434c-0.13163,-0.16576 -0.26827,-0.33096 -0.4109,-0.49366c-0.17098,-0.08348 -0.35295,-0.15868 -0.54432,-0.22653c0.24973,0.22289 0.4824,0.45914 0.69748,0.70724c0.51795,0.59773 0.84164,1.21888 0.99336,1.84943c-0.09679,-0.55258 -0.29808,-1.09222 -0.62854,-1.60533c-0.03323,-0.07859 -0.06896,-0.15564 -0.1071,-0.23115zM292.07874,146.30146c-0.88868,-0.01144 -1.77139,-0.06092 -2.64397,-0.14526c-0.21579,0.01639 -0.43287,0.03024 -0.65141,0.04148c0.10908,0.02257 0.21937,0.04461 0.33093,0.06611c0.53663,0.10412 1.08469,0.1847 1.63841,0.24082c0.41898,-0.04528 0.831,-0.10657 1.23258,-0.18497c0.03105,-0.00603 0.06221,-0.01209 0.09347,-0.01819zM289.03371,146.60308c-0.03307,-0.00619 -0.0661,-0.01246 -0.09909,-0.01882c-0.54213,-0.10505 -1.05692,-0.2223 -1.54852,-0.35133c-0.45837,-0.00034 -0.92439,-0.0123 -1.39968,-0.03666c-3.90916,-0.23433 -6.60534,-1.7015 -7.10418,-4.12519c-0.06884,-0.33998 -0.07511,-0.69581 -0.02704,-1.05988c-0.04224,-0.1333 -0.07808,-0.26819 -0.10754,-0.40451c-0.45753,1.98875 0.15251,3.55669 3.17252,4.8026c1.99389,0.74751 4.59368,1.21841 7.11351,1.19377zM283.95689,135.55702c-0.29112,0.14901 -0.57522,0.31265 -0.85203,0.49196c-0.57608,0.3702 -1.1254,0.81559 -1.61683,1.30628c-0.97428,1.49387 -1.10948,3.11192 -0.18685,4.51566c-0.37791,-0.74916 -0.25874,-1.56382 0.15999,-2.35304c0.01683,-0.33379 0.07667,-0.67736 0.18304,-1.0319c0.31868,-0.62696 0.786,-1.16095 1.36517,-1.62561c0.35959,-0.40818 0.82946,-0.79637 1.40976,-1.15187c0.46075,-0.24555 0.96459,-0.50471 1.50024,-0.76068c0.13315,-0.09015 0.26908,-0.17851 0.40782,-0.26498c-0.09632,0.02391 -0.1921,0.04889 -0.28733,0.07494c-0.27921,0.09821 -0.55589,0.19706 -0.82993,0.29588c-0.42248,0.15219 -0.84227,0.32051 -1.25306,0.50339zM283.93507,143.8901c-0.01626,-0.01344 -0.03245,-0.02689 -0.04858,-0.04035c-0.5255,-0.20894 -1.00841,-0.45922 -1.43458,-0.75982c0.09152,0.07139 0.18676,0.14173 0.28575,0.21095c0.31901,0.22669 0.72659,0.42181 1.19741,0.58923zM283.377,135.17552c1.27863,-0.5141 2.69342,-0.92878 4.12582,-1.2906c0.37481,-0.1204 0.75335,-0.23745 1.13541,-0.34982c0.58764,-0.22683 1.21263,-0.42448 1.87701,-0.58869c-0.38139,0.03676 -0.75772,0.08101 -1.12751,0.13313c-2.47408,0.34642 -4.54288,1.02508 -6.01073,2.09598zM300.27988,133.36558c0.41578,0.20098 0.81819,0.43449 1.20671,0.7029c0.43559,0.35129 0.82406,0.69077 1.16805,1.02632c-0.35161,-0.75426 -1.01775,-1.38139 -2.18142,-1.69602c-0.0642,-0.0112 -0.12864,-0.02228 -0.19333,-0.03321zM286.14233,145.86624c-0.46853,-0.1541 -0.91624,-0.32035 -1.34766,-0.49826c-0.38242,-0.09343 -0.761,-0.19314 -1.1353,-0.29883c-1.972,-0.66266 -3.35772,-1.62862 -4.16521,-2.77825c0.59683,2.11086 3.05006,3.36176 6.55735,3.57086c0.03031,0.00155 0.06057,0.00305 0.09081,0.0045zM291.12451,134.23554c-0.5482,0.08153 -1.09433,0.1729 -1.63695,0.26916c-0.16337,0.06674 -0.32566,0.13463 -0.48678,0.20357c-1.60838,0.92292 -2.84903,2.07535 -3.52588,3.37871c-0.77176,1.48314 -0.8372,2.99718 0.09712,4.30807c1.23022,0.64256 2.65893,1.11217 4.1657,1.48661c1.40662,0.03539 2.7613,-0.04881 3.77937,-0.24502c2.30859,-0.33463 5.71738,-1.73743 7.64957,-3.04738c0.84995,-1.54243 0.82836,-3.1682 -0.45221,-4.64443c-0.3682,-0.4247 -0.78979,-0.81389 -1.26308,-1.15801c-2.06786,-0.42779 -4.73363,-0.33349 -6.65995,-0.47066c-0.56467,-0.04063 -1.12065,-0.06856 -1.66691,-0.08063zM294.83163,145.69848c0.35932,-0.09048 0.71895,-0.18698 1.07433,-0.29022c-0.87459,0.14376 -1.80022,0.21279 -2.72684,0.20809c-0.55636,0.11608 -1.1141,0.2178 -1.67681,0.30338c0.93725,-0.00324 1.90139,-0.06803 2.8718,-0.16846c0.15243,-0.01563 0.305,-0.03324 0.45753,-0.05278zM285.93896,143.4732c-0.32616,-0.27787 -0.59931,-0.5688 -0.8224,-0.8702c-0.43899,-0.23351 -0.85342,-0.48862 -1.23828,-0.76864c-0.76858,-0.56057 -1.28408,-1.19015 -1.546,-1.84432c-0.09056,0.25407 -0.15348,0.50621 -0.17674,0.75043c0.17838,0.60082 0.50933,1.16857 0.96348,1.71409c0.12631,0.06834 0.26676,0.13194 0.42234,0.19028c0.59054,0.35258 1.43234,0.62759 2.39759,0.82837zM303.9544,137.88228c-0.01203,0.1106 -0.02767,0.2212 -0.04682,0.33177c0.54358,1.4753 0.47293,3.05535 -0.88364,4.37935c-1.42344,1.52278 -3.97671,2.65077 -6.7199,3.20547c0.8165,-0.07588 1.60683,-0.1871 2.35453,-0.35598c0.0633,-0.02796 0.12618,-0.05643 0.18864,-0.08545c3.03067,-1.24983 5.47599,-3.11866 5.4356,-5.43708c-0.01026,-0.75672 -0.11507,-1.42226 -0.32839,-2.03808zM285.08253,145.07323c0.34322,0.08306 0.68956,0.16089 1.03872,0.23328c-0.48071,-0.2153 -0.93533,-0.47311 -1.35894,-0.77915c-0.02164,-0.01564 -0.04321,-0.03128 -0.06469,-0.04694c-0.96048,-0.23731 -1.79263,-0.54931 -2.37951,-0.95486c-1.84754,-1.2936 -2.47251,-2.96448 -2.07978,-4.62391c-0.28977,0.45866 -0.5182,0.92837 -0.66732,1.39181c0.17116,0.77209 0.5802,1.54464 1.08171,2.27885c1.43457,0.98219 2.81213,1.82655 4.42982,2.5009zM299.15679,144.12041c0.62374,-0.35313 1.14787,-0.75281 1.51974,-1.20723c-0.77341,0.47062 -1.54036,0.86863 -2.35339,1.19277c-0.5085,0.23083 -1.04941,0.43404 -1.61972,0.6043c-0.18076,0.05381 -0.36089,0.10654 -0.54052,0.15813c0.29693,-0.00637 0.58478,-0.02487 0.86329,-0.05565c0.03933,-0.01095 0.07844,-0.0221 0.11734,-0.03345c0.73245,-0.21261 1.40439,-0.42863 2.01326,-0.65889zM300.64918,141.3812c-2.04061,1.16651 -4.90675,2.25787 -6.99717,2.57868c-0.71241,0.13778 -1.55242,0.22255 -2.44954,0.2542c0.67058,0.13963 1.34862,0.26599 2.02425,0.38549c2.93936,-0.15165 5.12172,-0.9812 6.94911,-2.64981c0.17027,-0.18719 0.32832,-0.37686 0.47335,-0.56854zM291.40488,144.61171c-0.60189,-0.12098 -1.19893,-0.25141 -1.78484,-0.39548c-0.6906,-0.02143 -1.3903,-0.0716 -2.07109,-0.15055c0.24597,0.13536 0.51128,0.25959 0.7926,0.37262c1.01546,0.09479 2.05077,0.13925 3.04236,0.17272c0.00699,0.00024 0.01398,0.00047 0.02097,0.0007zM283.68418,137.65084c-0.31885,0.45165 -0.69449,0.99036 -0.99481,1.5502c0.08785,0.85395 0.62769,1.69449 1.61536,2.41356c0.12279,0.08962 0.24878,0.17659 0.3778,0.26101c-0.56418,-1.21894 -0.41869,-2.56285 0.26776,-3.88204c0.42278,-0.81093 1.05346,-1.56707 1.85,-2.24975c-0.59136,0.30326 -1.1588,0.61422 -1.69768,0.9255c-0.47861,0.2759 -0.96582,0.60959 -1.41844,0.98152zM301.63522,142.82246c0.90003,-0.69837 1.44974,-1.56318 1.61842,-2.72271c-0.19769,0.38256 -0.43083,0.75748 -0.69357,1.12045c-0.18644,0.43584 -0.42215,0.86771 -0.70414,1.29268c-0.07063,0.10643 -0.14421,0.20962 -0.22071,0.30958zM299.94342,142.70684c0.73971,-0.54755 1.35262,-1.16389 1.81558,-1.81155c0.03826,-0.09767 0.07474,-0.19578 0.10931,-0.29422c-0.07128,0.05208 -0.14491,0.10433 -0.22076,0.15665c-0.26293,0.46316 -0.60052,0.91876 -1.00363,1.36104c-0.22753,0.20815 -0.46081,0.40409 -0.70048,0.58808zM286.53158,143.92337c-1.0068,-0.16637 -1.93526,-0.40091 -2.68346,-0.70376c0.13835,0.12906 0.28325,0.25708 0.43428,0.38425c0.85653,0.33114 1.83184,0.54803 2.85555,0.6942c-0.02092,-0.01168 -0.04171,-0.02345 -0.06238,-0.03527c-0.19218,-0.11015 -0.37342,-0.22336 -0.544,-0.33941zM283.70691,136.85441c-0.08019,0.05805 -0.15842,0.11728 -0.23464,0.17779c-0.16859,0.19343 -0.31032,0.39157 -0.42525,0.59286c0.05221,-0.04534 0.10501,-0.09024 0.15834,-0.13464c0.08326,-0.11899 0.16329,-0.23264 0.23808,-0.33997c0.08586,-0.09955 0.17366,-0.19825 0.26346,-0.29602zM291.30035,145.16142c0.58931,0.07303 1.19491,0.11318 1.80059,0.1201c0.30246,-0.064 0.60456,-0.13237 0.90698,-0.20476c-0.44308,0.03758 -0.90757,0.06247 -1.39702,0.07456c-0.40303,0.00995 -0.84397,0.01398 -1.31056,0.0101zM303.90047,136.47536c0.22364,0.28441 0.40687,0.59433 0.53996,0.93805c1.31835,1.8912 0.31661,4.55804 -1.41602,6.26128c-1.08173,1.05969 -2.49013,1.68188 -4.08555,2.05376c-2.40089,1.05498 -5.36875,1.3875 -8.20015,1.11501c-3.12339,0.31713 -6.57685,-0.19433 -9.12613,-1.15039c-3.57769,-1.47519 -4.02005,-3.41302 -3.1894,-5.89862c0.06632,-0.19779 0.15119,-0.39318 0.25298,-0.58579c0.23338,-2.0214 1.85176,-4.38544 4.41669,-5.63836c3.16336,-0.96135 6.33879,-1.18321 9.75497,-1.09238c0.13637,-0.0029 0.27295,-0.00501 0.40971,-0.00639c0.55191,-0.06201 1.09209,-0.10197 1.62,-0.11723c0.24798,-0.01562 0.49682,-0.02697 0.74648,-0.03374c4.0387,-0.10954 6.85008,0.70006 7.97722,3.20852c0.13807,0.31012 0.23674,0.62634 0.29925,0.94628zM302.04199,139.9066c0.01571,-0.01468 0.03115,-0.02934 0.0463,-0.04393c0.02774,-0.11415 0.05252,-0.22853 0.07414,-0.34299c-0.034,0.1292 -0.07422,0.25821 -0.12043,0.38692zM279.50822,139.16085c0.31141,-0.56007 0.71563,-1.11012 1.18411,-1.62389c-0.41316,0.35059 -0.7741,0.71976 -1.06656,1.10346c-0.05658,0.17215 -0.09518,0.34578 -0.11754,0.52043zM302.75332,137.05074c0.07363,0.20389 0.13414,0.40897 0.18186,0.61496c0.01086,-0.08379 0.02045,-0.16827 0.02852,-0.25326c-0.06673,-0.12205 -0.13703,-0.24269 -0.21037,-0.36171zM289.12113,145.08702c-1.10332,-0.06715 -2.24131,-0.18392 -3.29309,-0.36979c1.07418,0.60877 2.31494,0.94544 3.65151,1.09875c0.75246,-0.05981 1.48868,-0.15139 2.21735,-0.2705c-0.89954,-0.08213 -1.77406,-0.23528 -2.57578,-0.45846zM286.73691,134.98042c0.71139,-0.24848 1.45721,-0.47658 2.21602,-0.69809c-0.23437,0.01674 -0.46645,0.03759 -0.69614,0.06289c-0.52377,0.19684 -1.03338,0.41285 -1.51988,0.6352zM300.39001,144.00528c-0.02867,0.0197 -0.05754,0.03917 -0.08661,0.05839c0.08887,-0.04624 0.17651,-0.09327 0.26282,-0.14107c-0.05802,0.0278 -0.11675,0.05535 -0.17621,0.08268zM284.79963,136.38831c0.57858,-0.33224 1.1881,-0.66336 1.8234,-0.98495c-0.46367,0.16956 -0.90995,0.34957 -1.33154,0.54472c-0.16966,0.14376 -0.33355,0.29063 -0.49185,0.44022zM298.74699,134.33078c-0.09456,-0.05428 -0.1908,-0.10694 -0.2887,-0.1579c-1.76633,-0.34497 -3.57907,-0.34535 -5.38767,-0.17663c1.71426,0.11095 3.82604,0.08446 5.67636,0.33453zM286.22495,143.12794c0.19043,0.17523 0.40251,0.34538 0.6371,0.50975c0.38193,0.05769 0.77546,0.10528 1.17402,0.14298c-0.62799,-0.19364 -1.23465,-0.40928 -1.81111,-0.65274zM293.89485,146.27493c-0.52628,0.1179 -1.04458,0.22476 -1.54248,0.3228c1.52925,0.02321 3.05953,-0.14303 4.4728,-0.51763c-0.94609,0.10599 -1.93049,0.1607 -2.93032,0.19483zM295.04618,145.17535c-0.02487,0.00651 -0.04976,0.013 -0.07463,0.01946c0.04644,-0.00494 0.09277,-0.01011 0.139,-0.01547c-0.02143,-0.00128 -0.04288,-0.00262 -0.06438,-0.004zM291.12115,133.89168c2.01933,-0.29528 4.06625,-0.45065 6.07058,-0.25c-1.03995,-0.34081 -2.22205,-0.5141 -3.5383,-0.47339c-0.85845,0.19547 -1.70539,0.44113 -2.53229,0.72339zM282.6859,142.68003c-0.07784,-0.04306 -0.15085,-0.08767 -0.21921,-0.13376c0.10886,0.09629 0.22319,0.18792 0.34262,0.27513c-0.042,-0.04697 -0.08314,-0.09409 -0.12341,-0.14138zM289.70065,133.90863c0.0686,-0.03234 0.1377,-0.06431 0.20727,-0.09591c-0.12246,0.03241 -0.24465,0.06647 -0.36649,0.10201c0.05298,-0.00222 0.10605,-0.00425 0.15923,-0.0061z" fill="#ffffff" stroke="none" stroke-width="0.5" stroke-linecap="butt"/><path d="M334.90954,132.00318c-0.01921,0.0713 -0.15309,0.10357 -0.15309,0.10357l-0.1476,0.0274c-0.24753,0.1251 -0.49696,0.24543 -0.74528,0.36323c0.31253,-0.07571 0.627,-0.1409 0.94311,-0.1964c0.55414,-0.24643 1.15906,-0.44667 1.8121,-0.59309c-0.58048,0.06282 -1.15036,0.15959 -1.70921,0.29529zM353.08469,135.36843c-0.66048,-1.18209 -1.86244,-2.33162 -3.47338,-3.03825c-1.5111,-0.40266 -3.01542,-0.64867 -4.54875,-0.78494c2.5397,0.4449 4.59549,1.24431 5.88893,2.45495c0.3423,0.15665 0.66835,0.32261 0.97486,0.49898c0.48189,0.27869 0.86369,0.56956 1.15835,0.86924zM332.18054,133.93612c-0.03657,0.06442 -0.07078,0.13016 -0.10259,0.19722c-0.31713,0.4375 -0.50966,0.89807 -0.60135,1.37c0.14445,-0.53841 0.45476,-1.06827 0.95246,-1.57752c0.2067,-0.21137 0.43035,-0.41257 0.67052,-0.6023c-0.18434,0.05741 -0.35961,0.12113 -0.52424,0.19195c-0.13707,0.13861 -0.26834,0.27938 -0.39479,0.42064zM341.2595,142.94317c0.03016,0.00531 0.06023,0.01059 0.09018,0.01582c0.38751,0.0682 0.78501,0.1218 1.1892,0.16174c0.53382,-0.04632 1.06211,-0.11355 1.57931,-0.20092c0.10752,-0.01804 0.21381,-0.03654 0.31894,-0.0555c-0.2108,-0.01025 -0.42019,-0.02273 -0.62834,-0.03738c-0.84122,0.06948 -1.69234,0.10914 -2.54931,0.11626zM344.19688,143.21002c2.43009,0.02858 4.93584,-0.3661 6.85644,-0.99896c2.90869,-1.05573 3.49231,-2.39384 3.04516,-4.09473c-0.028,0.11642 -0.06216,0.23157 -0.1025,0.34537c0.04746,0.31127 0.04249,0.61534 -0.0229,0.90566c-0.47384,2.06973 -3.06957,3.3155 -6.83873,3.50411c-0.45825,0.01939 -0.90764,0.02822 -1.34967,0.02715c-0.4737,0.1088 -0.9698,0.20746 -1.49229,0.29562c-0.03179,0.00533 -0.06363,0.01059 -0.0955,0.01578zM349.05989,133.78545c-0.39671,-0.15749 -0.80204,-0.30259 -1.20991,-0.43391c-0.26456,-0.08526 -0.53168,-0.17056 -0.80123,-0.25532c-0.09192,-0.02255 -0.18437,-0.04417 -0.27732,-0.06489c0.13405,0.07431 0.2654,0.15023 0.39408,0.22767c0.51733,0.22035 1.00399,0.44332 1.44905,0.65453c0.56067,0.30553 1.01496,0.63867 1.36295,0.98856c0.5599,0.39882 1.01218,0.85655 1.32136,1.39328c0.10362,0.30331 0.16237,0.59708 0.17959,0.88239c0.40617,0.67569 0.52351,1.37224 0.1613,2.01132c0.88555,-1.19684 0.75035,-2.57999 -0.19366,-3.85952c-0.47537,-0.42078 -1.00644,-0.80304 -1.56309,-1.12112c-0.26748,-0.15406 -0.54196,-0.29475 -0.82313,-0.42296zM350.25869,140.4068c0.09529,-0.05886 0.18692,-0.11868 0.27496,-0.17942c-0.41008,0.25562 -0.87505,0.46807 -1.3812,0.64505c-0.01552,0.01146 -0.03108,0.0229 -0.04672,0.03434c0.45352,-0.14167 0.84599,-0.30719 1.15296,-0.49997zM349.61791,133.46117c-1.41873,-0.91954 -3.41583,-1.50568 -5.80277,-1.80909c-0.35675,-0.04564 -0.71981,-0.08456 -1.08771,-0.11711c0.6412,0.14231 1.24449,0.31308 1.81187,0.50867c0.36879,0.09716 0.73419,0.19833 1.096,0.30233c1.38243,0.31348 2.74803,0.67206 3.98264,1.11521zM333.31205,131.86408c-0.06235,0.00915 -0.12446,0.01842 -0.18633,0.02781c-1.12128,0.26541 -1.76181,0.79935 -2.09864,1.44287c0.33072,-0.28572 0.70435,-0.57467 1.12337,-0.87358c0.37388,-0.22822 0.76123,-0.42657 1.16161,-0.59709zM346.98301,142.58897c0.02915,-0.00115 0.05834,-0.00234 0.08756,-0.00358c3.38169,-0.16823 5.74378,-1.2299 6.31304,-3.03202c-0.77528,0.98005 -2.10876,1.80141 -4.00849,2.36182c-0.36065,0.08921 -0.72543,0.17329 -1.09394,0.25199c-0.41552,0.15075 -0.84677,0.29148 -1.29815,0.42179zM342.14374,132.63482c-0.52674,0.00868 -1.06283,0.0309 -1.60726,0.06393c-1.85726,0.11148 -4.42831,0.02295 -6.42121,0.38237c-0.4554,0.29267 -0.86079,0.624 -1.21461,0.98584c-1.23051,1.25772 -1.24651,2.64701 -0.42225,3.96766c1.86725,1.12521 5.15874,2.33416 7.38605,2.62701c0.98237,0.17072 2.28903,0.2467 3.64541,0.22066c1.45195,-0.3155 2.82837,-0.71256 4.01282,-1.25802c0.89712,-1.11748 0.82951,-2.41152 0.08083,-3.68128c-0.65662,-1.11584 -1.85649,-2.10436 -3.4103,-2.89786c-0.1556,-0.0594 -0.3123,-0.11791 -0.47005,-0.17543c-0.52358,-0.08387 -1.05052,-0.16358 -1.57942,-0.2349zM338.60293,142.41967c0.14714,0.01715 0.29433,0.03266 0.44137,0.04647c0.93612,0.08873 1.8661,0.14696 2.76995,0.15253c-0.54292,-0.07481 -1.0811,-0.16341 -1.61797,-0.26426c-0.8936,0.00125 -1.78643,-0.06049 -2.63029,-0.18595c0.34302,0.0893 0.69012,0.17285 1.03691,0.25123zM347.17203,140.54454c0.93024,-0.16871 1.74125,-0.40121 2.30968,-0.70076c0.14986,-0.04939 0.28511,-0.10333 0.40672,-0.16135c0.43635,-0.46483 0.75381,-0.94901 0.92404,-1.46193c-0.02316,-0.20879 -0.08458,-0.42444 -0.17268,-0.64183c-0.25062,0.55825 -0.74588,1.09475 -1.48541,1.5715c-0.37031,0.23815 -0.76921,0.45493 -1.19186,0.65317c-0.21425,0.25691 -0.47679,0.50472 -0.7905,0.7412zM329.78192,135.71296c-0.20389,0.52563 -0.30297,1.09408 -0.31061,1.74072c-0.03204,1.98114 2.3317,3.58547 5.25809,4.66258c0.06031,0.02499 0.12104,0.04951 0.18216,0.07359c0.72156,0.14655 1.48406,0.24397 2.27169,0.31124c-2.64708,-0.4822 -5.11273,-1.45377 -6.48998,-2.75934c-1.31219,-1.13549 -1.38503,-2.48597 -0.86521,-3.74511c-0.01878,-0.09453 -0.03421,-0.18911 -0.04613,-0.28365zM348.00271,141.91445c1.55803,-0.57147 2.88399,-1.28892 4.2645,-2.12401c0.48144,-0.62596 0.87362,-1.28493 1.03637,-1.94423c-0.1452,-0.39649 -0.36689,-0.79857 -0.6477,-1.1914c0.38369,1.41927 -0.21404,2.84531 -1.99189,3.94528c-0.56474,0.34483 -1.36634,0.60898 -2.29187,0.80891c-0.02067,0.01332 -0.04142,0.02663 -0.06225,0.03993c-0.40759,0.26026 -0.84522,0.47923 -1.30818,0.66179c0.33649,-0.06083 0.67026,-0.12631 1.001,-0.19627zM334.42714,141.05824c0.58786,0.19859 1.23651,0.38519 1.94347,0.56907c0.03756,0.0098 0.07532,0.01946 0.11328,0.02893c0.26869,0.02713 0.54635,0.04378 0.83269,0.05012c-0.17337,-0.04462 -0.34724,-0.09022 -0.52172,-0.13675c-0.55049,-0.14719 -1.07273,-0.32246 -1.56379,-0.52124c-0.78502,-0.27944 -1.52581,-0.62186 -2.27307,-1.02634c0.35997,0.38944 0.8666,0.73255 1.46918,1.03619zM332.97977,138.71292c0.14044,0.16423 0.29342,0.32679 0.45819,0.48727c1.76723,1.4314 3.87431,2.14682 6.70936,2.28518c0.6512,-0.10009 1.30468,-0.20607 1.95096,-0.32339c-0.86524,-0.02971 -1.67557,-0.10466 -2.363,-0.22452c-2.01689,-0.28038 -4.78412,-1.22156 -6.7555,-2.22452zM341.9043,141.50119c0.00673,-0.00018 0.01347,-0.00035 0.02021,-0.00054c0.95615,-0.02564 1.95443,-0.06055 2.93343,-0.13853c0.27096,-0.09575 0.52645,-0.20112 0.76325,-0.31606c-0.6563,0.06543 -1.3309,0.10623 -1.99684,0.12249c-0.56459,0.12138 -1.13997,0.23106 -1.72005,0.33265zM349.32912,135.57561c-0.43761,-0.3192 -0.90845,-0.60582 -1.37082,-0.84302c-0.52059,-0.26761 -1.06875,-0.53505 -1.63994,-0.79597c0.77019,0.58579 1.38065,1.23384 1.79078,1.9281c0.66591,1.12939 0.81022,2.27828 0.26978,3.31828c0.12416,-0.07176 0.24541,-0.1457 0.36355,-0.22192c0.95033,-0.61155 1.46842,-1.32826 1.5506,-2.05776c-0.29127,-0.47932 -0.65514,-0.94079 -0.96397,-1.32772zM332.03319,139.94164c-0.07408,-0.08565 -0.14535,-0.17405 -0.21377,-0.26521c-0.27321,-0.364 -0.50181,-0.73377 -0.6829,-1.10679c-0.25446,-0.31097 -0.48041,-0.63205 -0.67219,-0.95957c0.16612,0.99141 0.69882,1.73208 1.56886,2.33158zM332.98706,139.34323c-0.39005,-0.37917 -0.71697,-0.7695 -0.97191,-1.1661c-0.07331,-0.04494 -0.14448,-0.0898 -0.21337,-0.13452c0.03363,0.08422 0.06909,0.16816 0.10628,0.25175c0.4484,0.55485 1.0413,1.08339 1.75628,1.55352c-0.23167,-0.15796 -0.45724,-0.3261 -0.67728,-0.50465zM346.60187,140.92748c-0.16414,0.09867 -0.33859,0.19488 -0.52359,0.28844c-0.01988,0.01005 -0.0399,0.02003 -0.06004,0.02995c0.98679,-0.12188 1.92669,-0.30431 2.75172,-0.58474c0.14527,-0.10822 0.28461,-0.21721 0.41765,-0.32708c-0.72062,0.25657 -1.61531,0.45424 -2.58573,0.59342zM349.30483,134.89491c0.0869,0.08383 0.17186,0.16844 0.25496,0.25377c0.07244,0.09195 0.14994,0.18931 0.23061,0.29124c0.05155,0.03812 0.10261,0.07664 0.15309,0.11554c-0.11145,-0.17235 -0.24872,-0.3421 -0.41187,-0.5079c-0.07368,-0.05194 -0.14931,-0.1028 -0.22681,-0.15264zM342.00674,141.97126c-0.44994,0.00193 -0.87521,-0.00283 -1.2639,-0.01253c-0.47205,-0.01181 -0.92004,-0.03445 -1.34745,-0.06789c0.29184,0.06277 0.58341,0.12209 0.87527,0.17769c0.58408,-0.0041 1.16799,-0.03662 1.73607,-0.09727zM329.82973,134.51083c0.05933,-0.27322 0.15355,-0.54317 0.28577,-0.80778c1.0795,-2.14031 3.78827,-2.82379 7.68337,-2.71815c0.24077,0.00653 0.48078,0.01695 0.71997,0.03104c0.50915,0.01463 1.0302,0.05038 1.56262,0.10502c0.13188,0.00158 0.26361,0.00379 0.39513,0.00668c3.29418,-0.06744 6.35709,0.13163 9.41059,0.9626c2.47726,1.07837 4.04501,3.10343 4.27611,4.83156c0.09874,0.16491 0.18115,0.33214 0.24571,0.50136c0.80845,2.1266 0.38763,3.7813 -3.05816,5.03131c-2.45559,0.80943 -5.78444,1.23623 -8.79747,0.95591c-2.7297,0.22444 -5.59277,-0.0686 -7.91125,-0.9773c-1.53967,-0.32256 -2.89976,-0.85847 -3.94608,-1.76727c-1.67595,-1.46072 -2.64996,-3.74271 -1.38422,-5.35496c0.12731,-0.29334 0.30309,-0.55764 0.51792,-0.80002zM331.63226,137.44862c-0.04496,-0.11013 -0.08412,-0.2205 -0.1173,-0.33101c0.02119,0.09788 0.04544,0.19569 0.07252,0.29333c0.01465,0.01252 0.02958,0.02508 0.04477,0.03768zM353.36077,136.87846c-0.02209,-0.14932 -0.05983,-0.29782 -0.11491,-0.4451c-0.28319,-0.32877 -0.63237,-0.64533 -1.03185,-0.94616c0.45331,0.44045 0.84476,0.91172 1.14675,1.39126zM330.93776,135.00595c-0.07038,0.10148 -0.1378,0.20438 -0.20181,0.30847c0.00805,0.07265 0.01753,0.14488 0.02826,0.21651c0.0454,-0.17589 0.10315,-0.35097 0.17354,-0.52499zM344.10809,141.91419c-0.77247,0.18834 -1.61538,0.31661 -2.48262,0.38412c0.70306,0.10396 1.4133,0.1844 2.13913,0.23776c1.28849,-0.12704 2.48403,-0.41106 3.51812,-0.92809c-1.01375,0.15571 -2.11083,0.2521 -3.17463,0.3062zM346.3772,133.28442c-0.46983,-0.19146 -0.96193,-0.37758 -1.46761,-0.54735c-0.22158,-0.0223 -0.44545,-0.04083 -0.67152,-0.05582c0.73243,0.19156 1.45234,0.38871 2.13913,0.60318zM333.23756,140.95617c-0.05743,-0.02353 -0.11416,-0.04725 -0.17018,-0.07118c0.08338,0.04112 0.16803,0.08156 0.25387,0.12134c-0.0281,-0.01651 -0.05601,-0.03322 -0.0837,-0.05015zM348.24964,134.49335c-0.1531,-0.12829 -0.31159,-0.25429 -0.47564,-0.37765c-0.40713,-0.16802 -0.83805,-0.32319 -1.28571,-0.46947c0.61361,0.27672 1.20238,0.56149 1.76135,0.84714zM334.79318,132.69348c1.78364,-0.20819 3.82023,-0.17925 5.47307,-0.26896c-1.74465,-0.14957 -3.49277,-0.15465 -5.19515,0.13489c-0.09425,0.04326 -0.18691,0.08797 -0.27793,0.13407zM346.89523,140.24862c-0.55519,0.20634 -1.13961,0.38879 -1.74463,0.55241c0.38423,-0.03103 0.76358,-0.07053 1.13173,-0.11869c0.22574,-0.13977 0.42977,-0.28454 0.61289,-0.43372zM339.50802,142.9151c-0.9643,-0.03215 -1.91379,-0.08183 -2.82648,-0.17523c1.36403,0.32434 2.84026,0.47096 4.31495,0.45569c-0.48045,-0.08526 -0.9806,-0.17812 -1.48847,-0.28045zM338.33237,141.97525c0.0446,0.00472 0.08929,0.00926 0.1341,0.01363c-0.024,-0.0056 -0.04799,-0.01122 -0.07202,-0.01686c-0.02074,0.00113 -0.04141,0.0022 -0.06208,0.00323zM339.70179,131.71522c-1.26947,-0.03871 -2.40893,0.10587 -3.4108,0.39401c1.93231,-0.1655 3.90676,-0.02661 5.85499,0.23174c-0.79826,-0.24369 -1.61575,-0.45615 -2.44419,-0.62575zM350.30681,139.87641c-0.0387,0.04029 -0.07822,0.08044 -0.11859,0.12045c0.11492,-0.07417 0.2249,-0.15214 0.32959,-0.2341c-0.06579,0.03918 -0.13605,0.0771 -0.211,0.11366zM343.51591,132.35967c0.05128,0.00175 0.10248,0.00363 0.15357,0.00569c-0.11761,-0.03074 -0.23558,-0.06021 -0.35375,-0.08827c0.06718,0.02722 0.13391,0.05475 0.20017,0.08259z" fill="#ffffff" stroke="none" stroke-width="0.5" stroke-linecap="butt"/><path d="M282.50784,165.64044c0.11645,0.07859 0.3391,0.28328 0.17857,0.62736c-0.2114,0.45311 -0.66451,0.24172 -0.66451,0.24172l-0.50244,-0.53942c-0.06333,-2.68444 -0.67211,-5.30324 -0.74551,-8.00965c0,0 -0.01356,-0.49982 0.48626,-0.51337c0.49982,-0.01356 0.51337,0.48626 0.51337,0.48626c0.07069,2.60617 0.62065,5.12478 0.73427,7.7071z" fill="#ffffff" stroke="none" stroke-width="0.5" stroke-linecap="butt"/><path d="M286.195,169.04431c0.14352,0.0106 0.31638,0.08037 0.40636,0.32775c0.17092,0.46988 -0.29897,0.64079 -0.29897,0.64079l-0.97224,-0.2444c-0.56576,-2.52563 -0.67836,-5.17518 -0.7493,-7.79067c0,0 -0.01356,-0.49982 0.48626,-0.51337c0.49982,-0.01356 0.51337,0.48626 0.51337,0.48626c0.06427,2.36961 0.14078,4.7909 0.61451,7.09364z" fill="#ffffff" stroke="none" stroke-width="0.5" stroke-linecap="butt"/><path d="M289.29281,169.93423c0.09411,0.03345 0.18792,0.10518 0.26163,0.24314c0.23565,0.44098 -0.20534,0.67664 -0.20534,0.67664l-0.93139,-0.21837c-0.47571,-2.12361 -0.34209,-4.46388 -0.40106,-6.6379c0,0 -0.01356,-0.49982 0.48626,-0.51337c0.49982,-0.01356 0.51337,0.48626 0.51337,0.48626c0.05249,1.93536 -0.07802,4.04352 0.27653,5.96361z" fill="#ffffff" stroke="none" stroke-width="0.5" stroke-linecap="butt"/><path d="M292.92445,170.22874c-0.44099,0.23564 -0.67664,-0.20533 -0.67664,-0.20533l-0.25848,-0.50189c-0.45773,-1.48156 -0.52564,-3.039 -0.87277,-4.55886c0,0 -0.11132,-0.48745 0.37613,-0.59877c0.48745,-0.11132 0.59877,0.37613 0.59877,0.37613c0.33974,1.48797 0.38607,3.03907 0.85159,4.48081l0.18674,0.33128c0,0 0.23565,0.44098 -0.20534,0.67664z" fill="#ffffff" stroke="none" stroke-width="0.5" stroke-linecap="butt"/><path d="M296.90034,171.20461c-0.46988,0.17092 -0.64079,-0.29897 -0.64079,-0.29897l-0.24027,-0.66502c-0.3775,-1.91622 -0.75008,-3.95433 -0.80897,-5.90972c0,0 -0.01356,-0.49982 0.48626,-0.51337c0.49982,-0.01356 0.51337,0.48626 0.51337,0.48626c0.04418,1.87065 0.42058,3.83462 0.77296,5.66955l0.21641,0.59047c0,0 0.17091,0.46988 -0.29897,0.64079z" fill="#ffffff" stroke="none" stroke-width="0.5" stroke-linecap="butt"/><path d="M300.60367,169.60812c0.12869,-0.04021 0.29583,-0.03548 0.46725,0.12689c0.36301,0.34384 0.01917,0.70685 0.01917,0.70685l-0.51357,0.54221c-0.08799,0.0929 -0.21143,0.15223 -0.34945,0.15597c-0.27604,0.00749 -0.50589,-0.21022 -0.51337,-0.48626l-0.01331,-0.49057c-0.45332,-1.95575 -0.39586,-3.99024 -0.88845,-5.92715c0,0 -0.12166,-0.48497 0.36332,-0.60662c0.48497,-0.12165 0.60663,0.36332 0.60663,0.36332c0.45564,1.83893 0.46527,3.75208 0.82177,5.61536z" fill="#ffffff" stroke="none" stroke-width="0.5" stroke-linecap="butt"/><path d="M304.02016,170.25195c0.0782,-0.11623 0.28304,-0.34026 0.6279,-0.17936c0.45312,0.21139 0.24172,0.66451 0.24172,0.66451l-0.33927,0.71191c-0.02306,0.01492 -0.04614,0.02984 -0.0692,0.04476l0.01882,0.01783l-0.41086,0.43377c-0.08799,0.0929 -0.21143,0.15223 -0.34945,0.15597c-0.25732,0.00698 -0.47448,-0.18171 -0.50883,-0.43092l-0.12699,-0.83199c-0.29327,-1.72388 -0.48561,-3.53421 -0.8759,-5.22622c0,0 -0.11132,-0.48745 0.37613,-0.59877c0.48745,-0.11132 0.59877,0.37613 0.59877,0.37613c0.35724,1.57881 0.55542,3.24635 0.81718,4.86239z" fill="#ffffff" stroke="none" stroke-width="0.5" stroke-linecap="butt"/><path d="M308.0029,171.11318c0.01192,0.22503 0.02661,0.28487 0.04598,-0.01948zM307.99084,170.8096c0.07175,-0.08159 0.18379,-0.14588 0.35871,-0.15062c0.49982,-0.01356 0.51337,0.48626 0.51337,0.48626l-0.16842,0.71211c-0.33689,0.17484 -0.65697,0.66217 -1.01068,0.5245c-0.08936,-0.03477 -0.64353,-1.63226 -0.68222,-1.87638c-0.33707,-2.12669 -0.33048,-4.33253 -0.38882,-6.48382c0,0 -0.01356,-0.49982 0.48626,-0.51337c0.49982,-0.01356 0.51337,0.48626 0.51337,0.48626c0.04916,1.81258 0.17999,3.57935 0.33742,5.38233c0.01358,0.15558 0.02456,0.91542 0.041,1.43275z" fill="#ffffff" stroke="none" stroke-width="0.5" stroke-linecap="butt"/><path d="M311.59139,170.88362c0.04851,-0.0025 0.10212,0.00184 0.16131,0.01495c0.48818,0.10807 0.38011,0.59625 0.38011,0.59625l-0.97403,0.62784c-1.03053,-1.35953 -1.05517,-4.27475 -1.10736,-5.9755c0,0 -0.01356,-0.49982 0.48626,-0.51337c0.49982,-0.01356 0.51337,0.48626 0.51337,0.48626c0.02631,1.14605 0.01951,3.45124 0.54033,4.76358z" fill="#ffffff" stroke="none" stroke-width="0.5" stroke-linecap="butt"/><path d="M315.46947,170.07208c-0.00278,0.0437 -0.00588,0.08633 -0.00911,0.12597c0.03383,-0.11045 0.08815,-0.21778 0.12134,-0.32832zM315.47739,169.91989c0.04948,-0.14046 0.16789,-0.30405 0.4509,-0.31173c0.49982,-0.01356 0.51337,0.48626 0.51337,0.48626l-0.13394,0.46297c-0.36032,0.26546 -0.63592,0.84373 -1.08095,0.79637c-0.37817,-0.04024 -0.70343,-1.20076 -0.74264,-1.57959c-0.2423,-2.34144 -0.13179,-4.7692 -0.19563,-7.12294c0,0 -0.01356,-0.49982 0.48626,-0.51337c0.49982,-0.01356 0.51337,0.48626 0.51337,0.48626c0.04951,1.82554 0.09903,3.65109 0.14854,5.47663c0.01399,0.51596 -0.00829,1.03401 0.03955,1.54795c0.00604,0.06479 0.00534,0.16458 0.00115,0.27119z" fill="#ffffff" stroke="none" stroke-width="0.5" stroke-linecap="butt"/><path d="M319.42154,168.4977c0.36301,0.34384 0.01917,0.70685 0.01917,0.70685l-1.09965,0.79212c-0.84682,-1.74019 -0.88422,-3.49994 -0.93636,-5.42248c0,0 -0.01356,-0.49982 0.48626,-0.51337c0.49982,-0.01356 0.51337,0.48626 0.51337,0.48626c0.03404,1.25524 0.50575,2.94133 0.25566,4.17937l0.05472,-0.20957c0,0 0.34383,-0.36302 0.70685,-0.01917z" fill="#ffffff" stroke="none" stroke-width="0.5" stroke-linecap="butt"/><path d="M322.62139,169.0658c0.09543,-0.11253 0.31087,-0.29045 0.62543,-0.11313c0.43556,0.24553 0.19004,0.68109 0.19004,0.68109l-0.31987,0.56516c-0.00896,0.00725 -0.0179,0.01451 -0.02686,0.02176l0.00752,0.00568l-0.40521,0.53566c-0.08835,0.1189 -0.22843,0.19753 -0.38799,0.20185c-0.24568,0.00666 -0.45477,-0.16506 -0.50306,-0.39753l-0.11783,-0.51599l0.01279,-0.00292l-0.02028,-0.03751c-0.16735,-2.69237 -0.25487,-5.37933 -0.32808,-8.07842c0,0 -0.01356,-0.49982 0.48626,-0.51337c0.49982,-0.01356 0.51337,0.48626 0.51337,0.48626c0.06488,2.39226 0.14656,4.77558 0.2738,7.16142z" fill="#ffffff" stroke="none" stroke-width="0.5" stroke-linecap="butt"/><path d="M326.30155,167.46007c0.10132,-0.10142 0.33951,-0.27382 0.64394,-0.05815c0.40799,0.28904 0.11894,0.69703 0.11894,0.69703l-0.29543,0.41666l-0.39546,0.62952c-0.08525,0.14021 -0.23772,0.23563 -0.41395,0.24041c-0.25088,0.0068 -0.46359,-0.17239 -0.50592,-0.41235l-0.12118,-0.62254l0.01275,-0.00248l-0.01897,-0.03833c-0.06399,-2.19556 -0.1208,-4.39136 -0.18036,-6.58705c0,0 -0.01356,-0.49982 0.48626,-0.51337c0.49982,-0.01356 0.51337,0.48626 0.51337,0.48626c0.05211,1.92144 0.10671,3.84284 0.156,5.76436z" fill="#ffffff" stroke="none" stroke-width="0.5" stroke-linecap="butt"/><path d="M331.02244,168.60447c0.14325,0.04661 0.31723,0.16338 0.32515,0.45545c0.01356,0.49982 -0.48626,0.51337 -0.48626,0.51337l-0.83012,-0.47802c-0.06108,-2.31754 0.21101,-4.70718 -0.18491,-7.00285c0,0 -0.0841,-0.49288 0.40877,-0.57698c0.49288,-0.0841 0.57697,0.40877 0.57697,0.40877c0.37098,2.19532 0.16732,4.45899 0.1904,6.68026z" fill="#ffffff" stroke="none" stroke-width="0.5" stroke-linecap="butt"/><path d="M335.61084,167.15665c0.00853,0.31464 -0.18638,0.43658 -0.33198,0.48375l-0.27988,0.36997c-0.08835,0.1189 -0.22842,0.19753 -0.38799,0.20185c-0.27604,0.00749 -0.50589,-0.21022 -0.51337,-0.48626c-0.04009,-1.47811 -0.10022,-3.69525 -0.14031,-5.17335c0,0 -0.01356,-0.49982 0.48626,-0.51337c0.49982,-0.01356 0.51337,0.48626 0.51337,0.48626c0.03758,1.38542 0.07515,2.77084 0.11273,4.15626l0.02779,-0.01139c0,0 0.49982,-0.01356 0.51337,0.48626z" fill="#ffffff" stroke="none" stroke-width="0.5" stroke-linecap="butt"/><path d="M339.79308,165.47488c0.45312,0.21139 0.24172,0.66451 0.24172,0.66451l-0.08021,0.16543c-0.10791,0.31069 -0.25935,0.60437 -0.43773,0.88375l0.10218,0.06007l-0.5006,0.85149c-0.08352,0.14754 -0.24003,0.24894 -0.42185,0.25387c-0.25088,0.0068 -0.46359,-0.17239 -0.50592,-0.41235l-0.12118,-0.62254l0.01298,-0.00252l-0.01918,-0.03828c-0.07953,-2.75865 -0.15136,-5.51752 -0.22618,-8.2763c0,0 -0.01356,-0.49982 0.48626,-0.51337c0.49982,-0.01356 0.51337,0.48626 0.51337,0.48626c0.06299,2.32256 0.12843,4.64506 0.18903,6.96768l0.10282,-0.22598c0,0 0.21139,-0.45311 0.66451,-0.24171z" fill="#ffffff" stroke="none" stroke-width="0.5" stroke-linecap="butt"/><path d="M343.36067,163.18158c0.03911,-0.00946 0.08251,-0.01528 0.13068,-0.01659c0.49982,-0.01356 0.51337,0.48626 0.51337,0.48626l-0.16657,0.49443l-0.6167,0.5429c-0.08505,0.07594 -0.19639,0.12336 -0.31929,0.12669c-0.27604,0.00749 -0.50589,-0.21022 -0.51337,-0.48626l-0.0145,-0.53462c-0.05634,-2.07722 -0.00682,-4.14727 -0.06318,-6.22527c0,0 -0.01356,-0.49982 0.48626,-0.51337c0.49982,-0.01356 0.51337,0.48626 0.51337,0.48626c0.05106,1.88263 0.01523,3.75881 0.04993,5.63957z" fill="#ffffff" stroke="none" stroke-width="0.5" stroke-linecap="butt"/><path d="M347.40132,161.08686l-0.95884,0.05966c-0.04677,-1.72446 -0.09354,-3.44889 -0.14031,-5.17335c0,0 -0.01356,-0.49982 0.48626,-0.51337c0.49982,-0.01356 0.51337,0.48626 0.51337,0.48626c0.04022,1.48283 0.08044,2.96567 0.12065,4.4485c0.40685,0.26635 0.1458,0.68191 0.1458,0.68191l-0.12709,0.00791c0.00032,0.01168 0.00063,0.02335 0.00095,0.03503z" fill="#ffffff" stroke="none" stroke-width="0.5" stroke-linecap="butt"/><path d="M349.82811,159.83655c-0.49277,-0.08473 -0.40804,-0.5775 -0.40804,-0.5775l0.08531,-0.48178c-0.03197,-1.17867 0.03938,-2.35355 0.00712,-3.54322c0,0 -0.01356,-0.49982 0.48626,-0.51337c0.49982,-0.01356 0.51337,0.48626 0.51337,0.48626c0.03314,1.22182 -0.04215,2.43105 -0.00931,3.64184l-0.09721,0.57973c0,0 -0.08473,0.49278 -0.5775,0.40804z" fill="#ffffff" stroke="none" stroke-width="0.5" stroke-linecap="butt"/><path d="M306.64617,183.83033c-0.46988,0.17092 -0.64079,-0.29897 -0.64079,-0.29897l-0.14411,-0.47123c-0.047,-1.73271 -0.1563,-3.29242 -0.44725,-4.98863c0,0 -0.0841,-0.49288 0.40877,-0.57698c0.49288,-0.0841 0.57697,0.40877 0.57697,0.40877c0.29574,1.74276 0.41292,3.35221 0.46113,5.12972l0.08422,0.15651c0,0 0.17092,0.46988 -0.29896,0.6408z" fill="#ffffff" stroke="none" stroke-width="0.5" stroke-linecap="butt"/><path d="M310.71744,184.858c0.12772,0.01016 0.27039,0.07348 0.37364,0.2667c0.1989,0.37221 -0.08424,0.59814 -0.1774,0.65956l-0.05627,0.57684c-0.02079,0.25072 -0.22741,0.45089 -0.48472,0.45787c-0.25732,0.00698 -0.47448,-0.18171 -0.50883,-0.43092l-0.12749,-0.83521l0.01069,-0.00163l-0.01442,-0.02923c-0.06684,-2.3633 0.12,-4.79382 -0.59589,-7.06213c0,0 -0.15034,-0.47686 0.32652,-0.6272c0.47686,-0.15034 0.62721,0.32651 0.62721,0.32651c0.68135,2.16322 0.59516,4.4418 0.62697,6.69885z" fill="#ffffff" stroke="none" stroke-width="0.5" stroke-linecap="butt"/><path d="M314.91172,184.01386c0.0717,-0.02007 0.15774,-0.02381 0.2607,-0.00101c0.48818,0.10807 0.38012,0.59625 0.38012,0.59625l-0.2193,0.66094l-0.41086,0.43377c-0.08799,0.0929 -0.21143,0.15223 -0.34945,0.15597c-0.27604,0.00749 -0.50589,-0.21022 -0.51337,-0.48626l-0.01348,-0.49691c-0.43064,-2.2201 -0.36421,-4.46978 -0.70646,-6.7118c0,0 -0.07545,-0.49428 0.41883,-0.56971c0.49428,-0.07545 0.56971,0.41883 0.56971,0.41883c0.30577,2.00337 0.28819,4.01146 0.58356,5.99993z" fill="#ffffff" stroke="none" stroke-width="0.5" stroke-linecap="butt"/><path d="M319.25438,183.08934c0.13558,-0.0702 0.37612,-0.13411 0.59666,0.1164c0.33039,0.37529 -0.0449,0.70569 -0.0449,0.70569l-1.11078,0.64307c-0.85135,-1.89796 -0.86799,-4.39698 -0.92411,-6.46625c0,0 -0.01356,-0.49982 0.48626,-0.51337c0.49982,-0.01356 0.51337,0.48626 0.51337,0.48626c0.03112,1.14731 0.79897,3.7116 0.48351,5.02822z" fill="#ffffff" stroke="none" stroke-width="0.5" stroke-linecap="butt"/><path d="M323.64584,182.52787c0.14645,-0.03195 0.35195,-0.01814 0.50676,0.22469c0.26878,0.42161 -0.15283,0.69039 -0.15283,0.69039l-1.02254,0.35106c-0.46986,-1.92144 -0.46623,-3.93879 -0.51984,-5.91528c0,0 -0.01356,-0.49982 0.48626,-0.51337c0.49982,-0.01356 0.51337,0.48626 0.51337,0.48626c0.0299,1.10223 0.59525,3.48838 0.18882,4.67625z" fill="#ffffff" stroke="none" stroke-width="0.5" stroke-linecap="butt"/><path d="M328.45626,180.835c0.49644,0.05955 0.43688,0.55599 0.43688,0.55599l-0.08757,0.46001c-0.4078,0.7832 -0.54624,1.15787 -0.9718,1.48997l0.07485,0.09436l-0.40977,0.32506c-0.08247,0.06688 -0.18681,0.10813 -0.30114,0.11124c-0.27604,0.00749 -0.50589,-0.21022 -0.51337,-0.48626c-0.05906,-2.17747 -0.1328,-4.89629 -0.19186,-7.07376c0,0 -0.01356,-0.49982 0.48626,-0.51337c0.49982,-0.01356 0.51337,0.48626 0.51337,0.48626c0.05016,1.8493 0.10031,3.69859 0.15047,5.54789c0.10922,-0.17333 0.21708,-0.32999 0.27598,-0.44314l-0.01831,-0.11735c0,0 0.05955,-0.49644 0.55599,-0.43688z" fill="#ffffff" stroke="none" stroke-width="0.5" stroke-linecap="butt"/><path d="M332.00568,182.98142c0.07365,0.01157 0.15357,0.04403 0.23782,0.10777c0.39876,0.30165 0.09712,0.7004 0.09712,0.7004l-0.40521,0.53566c-0.08835,0.1189 -0.22842,0.19753 -0.38799,0.20185c-0.27604,0.00749 -0.50589,-0.21022 -0.51337,-0.48626c-0.04391,-1.61886 -0.10213,-3.76564 -0.14604,-5.3845c0,0 -0.01356,-0.49982 0.48626,-0.51337c0.49982,-0.01356 0.51337,0.48626 0.51337,0.48626c0.03935,1.45073 0.07869,2.90146 0.11804,4.35219z" fill="#ffffff" stroke="none" stroke-width="0.5" stroke-linecap="butt"/><path d="M334.23075,182.96983c-0.49982,0.01356 -0.51337,-0.48626 -0.51337,-0.48626l-0.02004,-0.73905c-0.04321,-1.59301 0.01071,-3.21584 -0.23175,-4.79186c0,0 -0.07545,-0.49428 0.41883,-0.56972c0.49428,-0.07545 0.56972,0.41883 0.56972,0.41883c0.24536,1.6193 0.19846,3.27945 0.24283,4.91563l0.02004,0.73905c0,0 0.01356,0.49982 -0.48626,0.51337z" fill="#ffffff" stroke="none" stroke-width="0.5" stroke-linecap="butt"/></g></g></svg>