<svg version="1.1" xmlns="http://www.w3.org/2000/svg" xmlns:xlink="http://www.w3.org/1999/xlink" width="87.10732" height="33.41103" viewBox="0,0,87.10732,33.41103"><g transform="translate(-277.20036,-123.3185)"><g data-paper-data="{&quot;isPaintingLayer&quot;:true}" fill-rule="nonzero" stroke="none" stroke-linecap="butt" stroke-linejoin="miter" stroke-miterlimit="10" stroke-dasharray="" stroke-dashoffset="0" style="mix-blend-mode: normal"><path d="M277.20036,156.72953v-33.41103h87.10732v33.41103z" fill="#ffd800" stroke-width="0"/><path d="M286.74636,129.72599c0.73594,0 1.36577,0.45428 1.62439,1.09771l0.70006,1.63348l-0.03118,0.01336l0.07157,0.08976c0.75355,2.6734 2.36794,8.72734 0.63572,11.3853c-0.36367,0.55803 -0.7008,1.02451 -1.01414,1.40931c0.68874,-0.05445 1.27528,-0.11667 1.59335,-0.11667h1.9092c0.9665,0 1.75,0.7835 1.75,1.75c0,0.90837 -0.69209,1.65509 -1.57773,1.74163l-0.76106,0.08456c-0.45377,0.87841 -1.55906,0.87841 -1.55906,0.87841l-0.00001,0l-1.9885,-0.0018c-0.02549,-0.01161 -0.05097,-0.02323 -0.07646,-0.03484l-0.00268,0.02945l-2.60738,-0.23703c-0.62983,-0.05009 -1.16572,-0.43365 -1.4311,-0.97408c-1.13855,-0.36136 -2.13332,-1.05892 -2.8524,-2.36452c-1.23151,-2.23601 -1.00026,-7.75123 0.17174,-10.29879c0.27117,-1.52434 0.62935,-3.02444 0.85568,-4.3843c0,0 0.2877,-1.72619 2.01389,-1.43849c0.52644,0.08774 0.86557,0.30926 1.08268,0.57482c0.30758,-0.5022 0.86137,-0.83728 1.49342,-0.83728z" fill="#000000" stroke-width="0.5"/><path d="M343.20497,131.50796c0.94555,0.35458 1.14085,1.05019 1.13691,1.57516c1.21942,-0.0596 2.37911,1.11134 3.13103,2.09844c0.58859,0.77268 0.36018,1.91221 0.44466,2.87985c0.14517,1.66287 0.09196,4.00102 -0.77744,5.74499c0.69772,0.00597 1.29802,0.42024 1.57364,1.01553c0.04555,0.03657 0.09118,0.07311 0.13672,0.10968c0.27903,0.119 0.57237,0.32095 0.76434,0.6637c0.4051,0.40736 0.69303,0.85471 0.67358,1.40699c-0.04049,1.15011 -1.75476,1.50957 -2.75012,2.08719c-2.02906,1.1775 -3.66338,1.13471 -5.30769,0.5316l-0.06453,0.25813l-1.87369,-0.46842c-0.34543,-0.07839 -0.65204,-0.25896 -0.88639,-0.50825c-1.45123,-0.48777 -2.26195,-1.97678 -2.77876,-3.53141c-0.62537,-1.88117 -0.73952,-3.89908 -0.58982,-5.92426c-0.03565,-1.11221 0.03042,-1.92143 0.36984,-2.90254c0.25377,-1.46943 0.58579,-2.90936 0.89831,-4.26863c0,0 0.3935,-1.70518 2.09869,-1.31168c0.70668,0.16308 1.0529,0.55144 1.21607,0.95035l0.00001,0.00001c0.23624,-0.02784 0.47429,-0.02512 0.71272,0.00942c0.34562,-0.38996 0.94486,-0.7635 1.87192,-0.41585z" fill="#000000" stroke-width="0.5"/></g></g></svg>