<svg version="1.1" xmlns="http://www.w3.org/2000/svg" xmlns:xlink="http://www.w3.org/1999/xlink" width="167.65399" height="350.45644" viewBox="0,0,167.65399,350.45644"><defs><linearGradient x1="318.29537" y1="231.7409" x2="321.25233" y2="304.5789" gradientUnits="userSpaceOnUse" id="color-1"><stop offset="0" stop-color="#545454"/><stop offset="1" stop-color="#2f2f2f"/></linearGradient><linearGradient x1="322.18104" y1="198.68507" x2="325.13801" y2="271.52311" gradientUnits="userSpaceOnUse" id="color-2"><stop offset="0" stop-color="#545454"/><stop offset="1" stop-color="#2f2f2f"/></linearGradient><linearGradient x1="317.07724" y1="167.9053" x2="320.0342" y2="240.74335" gradientUnits="userSpaceOnUse" id="color-3"><stop offset="0" stop-color="#545454"/><stop offset="1" stop-color="#2f2f2f"/></linearGradient><linearGradient x1="317.2049" y1="171.20297" x2="324.46485" y2="350.03535" gradientUnits="userSpaceOnUse" id="color-4"><stop offset="0" stop-color="#4e2710"/><stop offset="1" stop-color="#3a1a09"/></linearGradient><linearGradient x1="318.62553" y1="171.24107" x2="319.67349" y2="197.05514" gradientUnits="userSpaceOnUse" id="color-5"><stop offset="0" stop-color="#e07130"/><stop offset="1" stop-color="#c2551f"/></linearGradient><linearGradient x1="291.31266" y1="200.48615" x2="292.41735" y2="227.69765" gradientUnits="userSpaceOnUse" id="color-6"><stop offset="0" stop-color="#4e2710"/><stop offset="1" stop-color="#3a1a09"/></linearGradient><linearGradient x1="371.404" y1="148.60906" x2="361.68004" y2="198.83892" gradientUnits="userSpaceOnUse" id="color-7"><stop offset="0" stop-color="#e07130"/><stop offset="1" stop-color="#c2551f"/></linearGradient><linearGradient x1="370.7871" y1="131.24984" x2="372.88142" y2="182.83868" gradientUnits="userSpaceOnUse" id="color-8"><stop offset="0" stop-color="#e07130"/><stop offset="1" stop-color="#c2551f"/></linearGradient><linearGradient x1="261.01815" y1="148.54857" x2="274.82042" y2="198.77841" gradientUnits="userSpaceOnUse" id="color-9"><stop offset="0" stop-color="#e07130"/><stop offset="1" stop-color="#c2551f"/></linearGradient><linearGradient x1="262.7678" y1="127.28856" x2="264.86212" y2="178.87738" gradientUnits="userSpaceOnUse" id="color-10"><stop offset="0" stop-color="#e07130"/><stop offset="1" stop-color="#c2551f"/></linearGradient><linearGradient x1="312.16112" y1="75.38993" x2="316.48202" y2="181.82555" gradientUnits="userSpaceOnUse" id="color-11"><stop offset="0" stop-color="#e07130"/><stop offset="1" stop-color="#c2551f"/></linearGradient><linearGradient x1="314.21055" y1="162.80101" x2="315.07166" y2="184.01237" gradientUnits="userSpaceOnUse" id="color-12"><stop offset="0" stop-color="#f05016"/><stop offset="1" stop-color="#be4c22"/></linearGradient><linearGradient x1="320.48042" y1="4.78541" x2="314.69614" y2="90.43787" gradientUnits="userSpaceOnUse" id="color-13"><stop offset="0" stop-color="#a1a1a1"/><stop offset="1" stop-color="#767676"/></linearGradient></defs><g transform="translate(-235.33676,-0.87926)"><g stroke-miterlimit="10"><g stroke="#000000" stroke-width="2.5"><path d="M392.32332,295.28045l-72.77892,9.29847l-70.11801,-9.29847c0,0 29.40909,-63.53957 68.86898,-63.53957c39.4599,0 74.02795,63.53957 74.02795,63.53957z" fill="url(#color-1)" stroke-linecap="butt"/><path d="M260.09558,291.48443l57.4775,-17.18651l62.38102,14.73129" fill="none" stroke-linecap="round"/><path d="M290.02577,295.57647l29.38198,-9.41166l36.37667,7.36564" fill="none" stroke-linecap="round"/></g><g stroke="#000000" stroke-width="2.5"><path d="M396.20899,262.22459l-72.77892,9.29847l-70.11801,-9.29847c0,0 29.40909,-63.53957 68.86898,-63.53957c39.4599,0 74.02795,63.53957 74.02795,63.53957z" fill="url(#color-2)" stroke-linecap="butt"/><path d="M263.98126,258.42862l57.4775,-17.18651l62.38102,14.73129" fill="none" stroke-linecap="round"/><path d="M293.91144,262.52061l29.38198,-9.41166l36.37667,7.36565" fill="none" stroke-linecap="round"/></g><g stroke="#000000" stroke-width="2.5"><path d="M391.10517,231.44487l-72.77891,9.29847l-70.11802,-9.29847c0,0 29.40909,-63.53957 68.86899,-63.53957c39.4599,0 74.02794,63.53957 74.02794,63.53957z" fill="url(#color-3)" stroke-linecap="butt"/><path d="M258.87744,227.64886l57.47751,-17.1865l62.38102,14.73129" fill="none" stroke-linecap="round"/><path d="M288.80762,231.7409l29.38198,-9.41165l36.37667,7.36565" fill="none" stroke-linecap="round"/></g><path d="M277.41135,346.39672l-8.10173,-147.27579c0,0 5.56168,-25.69821 15.3241,-26.10344c9.69488,-0.40242 32.69066,-0.95905 52.76279,-1.79223c21.77058,-0.90368 29.65577,25.97468 29.65577,25.97468l6.4412,152.83541z" fill="url(#color-4)" stroke="#000000" stroke-width="2.5" stroke-linecap="butt"/><path d="M338.07984,184.1481c0.28939,7.12836 -7.95141,12.90704 -18.40634,12.90704c-10.45493,0 -19.16491,-5.77868 -19.4543,-12.90704c-0.28939,-7.12836 7.95141,-12.90704 18.40634,-12.90704c10.45493,0 19.16491,5.77868 19.4543,12.90704z" fill="url(#color-5)" stroke="#000000" stroke-width="2.5" stroke-linecap="butt"/><path d="M305.5558,214.0919c0.30505,7.51424 -5.57723,13.60575 -13.13844,13.60575c-7.56121,0 -13.93807,-6.0915 -14.24312,-13.60575c-0.30505,-7.51424 5.57723,-13.60575 13.13844,-13.60575c7.56121,0 13.93807,6.0915 14.24312,13.60575z" fill="url(#color-6)" stroke="#ffffff" stroke-width="2.5" stroke-linecap="butt"/><path d="M286.88394,211.61039l0.99467,-1.74346" fill="none" stroke="#ffffff" stroke-width="2.5" stroke-linecap="round"/><path d="M295.98866,211.61039l-0.648,-1.6466" fill="none" stroke="#ffffff" stroke-width="2.5" stroke-linecap="round"/><path d="M300.00599,217.51876l-2.687,3.00262h-11.23561l-2.06693,-3.19634" fill="none" stroke="#ffffff" stroke-width="2.5" stroke-linecap="round"/><path d="M355.74938,144.97752c0,0 12.48736,11.63615 17.06018,20.41073c5.59208,10.73038 14.054,39.29275 14.054,39.29275c0,0 -15.93143,-21.07956 -24.21085,-26.09599c-7.29766,-4.42157 -22.89312,-2.44383 -22.89312,-2.44383z" fill="url(#color-7)" stroke="#000000" stroke-width="2.5" stroke-linecap="round"/><path d="M354.86035,131.24984c0,0 14.70041,8.59001 21.1145,16.17199c7.84375,9.27194 22.52786,35.41684 22.52786,35.41684c0,0 -20.17869,-17.08677 -29.30908,-20.12963c-8.04772,-2.68204 -22.6363,2.81794 -22.6363,2.81794z" fill="url(#color-8)" stroke="#000000" stroke-width="2.5" stroke-linecap="round"/><path d="M294.89798,176.08067c0,0 -15.75604,-1.97773 -22.6947,2.44384c-7.87212,5.01642 -22.09205,26.09598 -22.09205,26.09598c0,0 6.14286,-28.56237 10.86372,-39.29275c3.86039,-8.77458 15.40298,-20.41073 15.40298,-20.41073z" fill="url(#color-9)" stroke="#000000" stroke-width="2.5" stroke-linecap="round"/><path d="M289.78062,161.56569c0,0 -15.03514,-5.49998 -22.8651,-2.81794c-8.88333,3.04286 -27.6747,20.12963 -27.6747,20.12963c0,0 12.56133,-26.14491 19.65226,-35.41685c5.79849,-7.58197 19.80146,-16.17198 19.80146,-16.17198z" fill="url(#color-10)" stroke="#000000" stroke-width="2.5" stroke-linecap="round"/><path d="M347.9627,83.60898l8.7676,8.83669l-14.12349,57.86248l-59.04378,-1.21889l-17.64575,-54.85007l8.54291,-10.33015" fill="none" stroke="#000000" stroke-width="2.5" stroke-linecap="round"/><path d="M369.06229,130.83235c-0.78452,28.48816 -25.77977,52.9286 -56.04592,50.8721c-30.26615,-2.05649 -54.34203,-29.83117 -53.5575,-58.31932c0.78452,-28.48815 25.95608,-49.91526 56.22223,-47.85875c30.26615,2.05649 54.16574,26.81782 53.38121,55.30597z" fill="url(#color-11)" stroke="#000000" stroke-width="2.5" stroke-linecap="butt"/><path d="M328.50191,172.78536c0.25172,6.2005 -5.76121,11.22701 -13.43025,11.22701c-7.66905,0 -14.0901,-5.02651 -14.34182,-11.22701c-0.16777,-4.13256 2.44727,-7.74362 6.4807,-9.69262c2.01834,-0.97528 4.69277,1.02616 7.25048,1.02616c2.52643,0 4.61652,-2.01504 6.69613,-1.06176c4.23308,1.94042 7.17598,5.57036 7.34477,9.72822z" fill="url(#color-12)" stroke="#000000" stroke-width="2.5" stroke-linecap="butt"/><path d="M306.67829,162.54313c0,0 -8.69435,2.19587 -12.46374,3.14788c-3.12975,0.79046 -8.59259,2.17017 -8.59259,2.17017" fill="none" stroke="#000000" stroke-width="2.5" stroke-linecap="round"/><path d="M320.89177,163.33103l25.21446,4.92413" fill="none" stroke="#000000" stroke-width="2.5" stroke-linecap="round"/><path d="M314.08579,163.66535l0.34629,12.01067" fill="none" stroke="#000000" stroke-width="2.5" stroke-linecap="round"/><path d="M328.80924,123.57462c0.10997,2.70884 -6.45331,4.90479 -14.6595,4.90479c-8.2062,0 -14.94777,-2.19595 -15.05774,-4.90479c-0.10997,-2.70884 6.45331,-4.90479 14.6595,-4.90479c8.2062,0 14.94777,2.19595 15.05774,4.90479z" fill-opacity="0.18431" fill="#000000" stroke="none" stroke-width="0" stroke-linecap="butt"/><path d="M291.69357,119.541c0.09073,2.23486 -1.82419,4.04658 -4.27709,4.04658c-2.4529,0 -4.51492,-1.81172 -4.60565,-4.04658c-0.09073,-2.23487 1.82419,-4.04659 4.27709,-4.04659c2.4529,0 4.51492,1.81172 4.60565,4.04659z" fill="#ffffff" stroke="#000000" stroke-width="2.5" stroke-linecap="butt"/><path d="M343.85743,119.21135c0.09073,2.23487 -1.82419,4.04658 -4.27709,4.04658c-2.4529,0 -4.51492,-1.81172 -4.60565,-4.04658c-0.09073,-2.23486 1.82419,-4.04658 4.27709,-4.04658c2.4529,0 4.51492,1.81172 4.60565,4.04658z" fill="#ffffff" stroke="#000000" stroke-width="2.5" stroke-linecap="butt"/><path d="M345.33727,204.83419c-1.59064,-0.7585 2.00715,-3.49945 2.84414,-4.80611c2.20884,-3.44831 7.25819,-7.04847 11.72754,-4.43277c4.51414,2.64191 5.90971,16.26666 7.3313,21.25843c0.92505,3.2482 -1.30949,8.57018 -1.92668,11.70771c-0.65762,3.34301 -0.43711,7.63205 -2.55934,10.50217c-1.83654,2.48374 -4.72894,4.76941 -7.14183,6.39516c-3.41252,2.29926 -5.93786,6.34647 -9.74388,8.07431c-5.51029,2.50153 -15.58701,0.37004 -21.05128,-2.63542c-6.75945,-3.71784 -12.32513,-11.21309 -9.33147,-18.78653c0.8273,-2.0929 3.97787,-2.7202 4.70425,-4.68279c0.93676,-2.53102 -2.07381,-5.99263 1.51229,-9.2972c1.17932,-1.08673 4.28665,-1.36142 5.23017,-2.60296c2.09643,-2.75859 -0.48786,-8.68041 1.30486,-11.80421c2.20753,-3.8466 14.84867,-1.06774 17.99312,1.05391z" fill="#d7692b" stroke="#000000" stroke-width="2.5" stroke-linecap="round"/><path d="M291.42869,224.93915c2.97219,-2.12165 15.38771,-4.90051 17.90756,-1.05391c2.04637,3.1238 -0.05712,9.04563 2.26328,11.80422c1.04432,1.24154 4.17395,1.51622 5.44151,2.60295c3.85441,3.30457 1.1249,6.76618 2.26715,9.2972c0.88572,1.96259 4.08723,2.58988 5.08445,4.68279c3.60857,7.57344 -1.34855,15.06869 -7.80613,18.78653c-5.22025,3.00546 -15.12392,5.13694 -20.8373,2.63541c-3.94631,-1.72784 -6.80026,-5.77504 -10.39946,-8.0743c-2.5449,-1.62574 -5.62288,-3.91142 -7.66107,-6.39516c-2.35528,-2.87012 -2.48301,-7.15916 -3.41205,-10.50217c-0.87194,-3.13753 -3.53858,-8.4595 -2.87726,-11.70771c1.01629,-4.99177 1.30564,-18.61652 5.60527,-21.25843c4.25697,-2.6157 9.59864,0.98446 12.08744,4.43277c0.94309,1.30666 4.76341,4.0476 3.23436,4.8061z" fill="#d7692b" stroke="#000000" stroke-width="2.5" stroke-linecap="round"/><path d="M351.27263,11.56118c0,0 -3.51891,1.49647 -13.38235,1.95001c-3.43898,0.15813 -14.37382,0.80275 -16.96498,0.77898c-4.18844,-0.03842 -10.93116,-0.98625 -16.35288,-1.43426c-7.3166,-0.60458 -12.90095,-1.84152 -12.90095,-1.84152" fill="none" stroke="#000000" stroke-width="2.5" stroke-linecap="round"/><path d="M277.49872,87.3778l9.56633,-84.84899c0,0 7.12383,-1.54432 16.19308,-1.64955c5.70499,-0.0662 13.05156,-0.21182 17.34379,0.07805c4.2554,0.28738 11.97327,1.98915 17.60029,2.81279c9.13158,1.33661 15.69357,3.27193 15.69357,3.27193l-2.14606,84.52804c0,0 -4.92627,4.2484 -15.38884,6.82025c-5.72679,1.40772 -16.67688,2.07239 -21.10225,1.82255c-5.44525,-0.30744 -16.27888,-2.16778 -23.56786,-4.93256c-9.08718,-3.44685 -14.19207,-7.90248 -14.19207,-7.90248z" fill="url(#color-13)" stroke="#000000" stroke-width="2.5" stroke-linecap="butt"/></g></g></svg>