<svg version="1.1" xmlns="http://www.w3.org/2000/svg" xmlns:xlink="http://www.w3.org/1999/xlink" width="160.69027" height="322.20635" viewBox="0,0,160.69027,322.20635"><defs><linearGradient x1="336.1016" y1="164.63379" x2="324.30295" y2="343.69828" gradientUnits="userSpaceOnUse" id="color-1"><stop offset="0" stop-color="#2982c1"/><stop offset="1" stop-color="#000000"/></linearGradient><linearGradient x1="409.43849" y1="134.89252" x2="369.97266" y2="135.5461" gradientUnits="userSpaceOnUse" id="color-2"><stop offset="0" stop-color="#a636f3"/><stop offset="1" stop-color="#581b7d"/></linearGradient><linearGradient x1="255.1383" y1="141.96951" x2="294.60412" y2="141.31592" gradientUnits="userSpaceOnUse" id="color-3"><stop offset="0" stop-color="#a636f3"/><stop offset="1" stop-color="#581b7d"/></linearGradient><radialGradient cx="295.05491" cy="92.9175" r="25.84387" gradientUnits="userSpaceOnUse" id="color-4"><stop offset="0" stop-color="#000000" stop-opacity="0.92549"/><stop offset="1" stop-color="#000000" stop-opacity="0"/></radialGradient><linearGradient x1="248.59409" y1="69.40197" x2="313.81742" y2="75.54065" gradientUnits="userSpaceOnUse" id="color-5"><stop offset="0" stop-color="#a636f3"/><stop offset="1" stop-color="#16031b"/></linearGradient><radialGradient cx="367.22844" cy="86.57591" r="25.35587" gradientUnits="userSpaceOnUse" id="color-6"><stop offset="0" stop-color="#000000" stop-opacity="0.92549"/><stop offset="1" stop-color="#000000" stop-opacity="0"/></radialGradient><linearGradient x1="411.96749" y1="64.13718" x2="346.98319" y2="72.43217" gradientUnits="userSpaceOnUse" id="color-7"><stop offset="0" stop-color="#a636f3"/><stop offset="1" stop-color="#16031b"/></linearGradient></defs><g transform="translate(-249.9431,-22.02735)"><g stroke-miterlimit="10"><g><path d="M281.10976,340.77446l7.76107,-147.42451c0,0 7.77781,-25.83054 16.80989,-26.3854c8.96959,-0.55102 30.20386,-1.45938 48.77435,-2.60021c20.14188,-1.23737 25.95956,15.83522 25.95956,15.83522l-11.19919,162.75494z" fill="url(#color-1)" stroke="#000000" stroke-width="2.5" stroke-linecap="butt"/><path d="M359.01053,176.03864c-0.81472,8.53387 -11.1415,15.32462 -23.0655,15.16757c-11.92401,-0.15706 -20.92983,-7.20243 -20.11511,-15.73631c0.81472,-8.53387 11.14147,-15.32462 23.06548,-15.16757c11.92401,0.15706 20.92985,7.20244 20.11514,15.73631z" fill="#f2f2f2" stroke="#000000" stroke-width="1.5" stroke-linecap="butt"/><path d="M353.34173,176.41279c-0.61211,6.41165 -8.3708,11.51367 -17.32953,11.39567c-8.95872,-0.118 -15.72498,-5.41132 -15.11286,-11.82299c0.61211,-6.41165 8.37079,-11.51367 17.32953,-11.39567c8.95872,0.118 15.72498,5.41133 15.11286,11.82299z" fill="#a636f3" stroke="#000000" stroke-width="2.5" stroke-linecap="butt"/><path d="M303.19492,239.8022l24.6024,-12.47693l18.74913,12.0852l15.41003,-6.45305" fill="none" stroke="#ffffff" stroke-width="1.5" stroke-linecap="round"/><path d="M302.51748,246.77131l24.6024,-12.47693l18.74915,12.0852l15.41003,-6.45305" fill="none" stroke="#ffffff" stroke-width="1.5" stroke-linecap="round"/><path d="M301.53543,253.41927l24.6024,-12.47693l18.74915,12.0852l15.41002,-6.45305" fill="none" stroke="#ffffff" stroke-width="1.5" stroke-linecap="round"/></g><g><path d="M366.23614,241.98634c0,0 0.07103,-2.67778 1.91406,-6.2554c1.2533,-2.43284 -0.12404,-2.64769 -1.42177,-2.41026c-2.04683,0.37448 -13.36716,0.68874 -14.04949,0.02966c-0.6517,-0.62951 2.83243,-5.68494 3.37828,-6.655c2.66143,-4.72993 14.45485,-12.49927 18.59128,-16.01412c1.39823,-1.1881 4.6419,-4.21463 6.21729,-3.85535c2.14925,0.49016 5.88204,6.56948 7.46141,8.69885c3.06906,4.13782 4.1667,10.30745 6.3903,15.30892c2.42782,5.46078 6.26836,9.02898 7.1771,15.88469c0.36639,2.76407 2.83823,6.86937 2.40835,9.74339c-1.77696,11.87983 -12.18536,24.4598 -18.20424,32.37595c-3.79611,4.99271 -11.6348,13.79654 -11.6348,13.79654l-5.833,5.19492l-3.71217,-3.35731l1.94674,-19.27145c0,0 2.97459,-5.8692 2.83401,-6.06282c-0.03412,-0.04697 -3.01633,2.9742 -3.2622,3.27382c-1.78209,2.17166 -9.04162,8.94466 -9.04162,8.94466l-5.09607,-10.16577c0,0 9.18806,-12.08342 10.45102,-13.74558c0.3356,-0.44167 3.04142,-3.49692 2.69256,-4.25682c-0.29952,-0.65239 -4.8877,2.35267 -5.4337,2.7421c-4.25344,3.03358 -14.17839,1.75801 -14.17839,1.75801c0,0 5.66505,-10.25078 6.9795,-11.97955c10.99794,-14.46448 0.38784,-7.51146 13.42552,-13.72209z" fill="#a636f3" stroke="#000000" stroke-width="2.5" stroke-linecap="round"/><path d="M373.99023,251.22657c2.92362,-3.53407 5.65561,-5.68137 6.10206,-4.79611c0.44646,0.88526 -1.56168,4.46782 -4.48531,8.00189c-2.92362,3.53407 -5.65561,5.68137 -6.10206,4.79611c-0.44646,-0.88525 1.56168,-4.46782 4.48531,-8.00189z" fill-opacity="0.23137" fill="#000000" stroke="none" stroke-width="0" stroke-linecap="butt"/><path d="M379.09378,266.12789c3.53042,-4.26756 6.72414,-7.06927 7.13338,-6.25779c0.40925,0.81148 -2.12095,4.92887 -5.65136,9.19643c-3.53042,4.26756 -6.72414,7.06926 -7.13338,6.25778c-0.40925,-0.81148 2.12095,-4.92887 5.65136,-9.19642z" fill-opacity="0.23137" fill="#000000" stroke="none" stroke-width="0" stroke-linecap="butt"/><path d="M371.79006,225.50546c0.77227,-0.93353 1.91107,-0.67365 2.54355,0.58046c0.63248,1.25411 0.51914,3.02754 -0.25314,3.96105c-0.77227,0.93353 -1.91106,0.67365 -2.54354,-0.58046c-0.63248,-1.25411 -0.51915,-3.02754 0.25314,-3.96105z" fill-opacity="0.23137" fill="#000000" stroke="none" stroke-width="0" stroke-linecap="butt"/><path d="M386.48318,232.28348c0,0 -0.43917,1.38055 -1.02478,2.71869c-0.454,1.03735 -0.99599,2.04922 -1.4897,2.37274c-0.45973,0.30124 -1.30193,0.1732 -2.09597,-0.06209c-0.99296,-0.29426 -1.91057,-0.75626 -1.91057,-0.75626" fill="none" stroke-opacity="0.40392" stroke="#000000" stroke-width="2.5" stroke-linecap="round"/><path d="M385.22612,242.11512c0,0 -0.43917,1.38053 -1.02478,2.71867c-0.454,1.03735 -0.99601,2.04925 -1.4897,2.37277c-0.45973,0.30124 -1.30192,0.17319 -2.09597,-0.0621c-0.99296,-0.29426 -1.91059,-0.75626 -1.91059,-0.75626" fill="none" stroke-opacity="0.40392" stroke="#000000" stroke-width="2.5" stroke-linecap="round"/><path d="M383.96906,251.94675c0,0 -0.43917,1.38053 -1.02478,2.71867c-0.454,1.03735 -0.99601,2.04923 -1.48971,2.37275c-0.45973,0.30124 -1.30192,0.17319 -2.09596,-0.0621c-0.99296,-0.29426 -1.91058,-0.75625 -1.91058,-0.75625" fill="none" stroke-opacity="0.40392" stroke="#000000" stroke-width="2.5" stroke-linecap="round"/></g><g><path d="M353.24297,254.52036c12.73461,6.81048 2.45949,-0.62865 12.77254,14.33186c1.23261,1.78804 6.41458,12.2913 6.41458,12.2913c0,0 -9.97354,0.81241 -14.08123,-2.41578c-0.52729,-0.41441 -4.97069,-3.62968 -5.30025,-2.99193c-0.38383,0.74284 2.17692,3.92067 2.49161,4.37747c1.18426,1.71913 9.80017,14.21692 9.80017,14.21692l-5.56351,9.91766c0,0 -6.93655,-7.10342 -8.61569,-9.35563c-0.23167,-0.31074 -3.07008,-3.46739 -3.10634,-3.42204c-0.14944,0.18687 2.54886,6.18811 2.54886,6.18811l1.04801,19.34114l-3.86435,3.18097l-5.585,-5.46067c0,0 -7.42061,-9.15901 -10.98032,-14.32292c-5.64407,-8.18761 -15.45589,-21.23822 -16.67822,-33.18785c-0.2957,-2.89092 2.36448,-6.87676 2.85907,-9.62079c1.22672,-6.806 5.22911,-10.19163 7.90837,-15.53356c2.45389,-4.89259 3.8374,-11.00448 7.09564,-14.99504c1.67674,-2.05359 5.68832,-7.95268 7.85805,-8.3423c1.59041,-0.28559 4.68975,2.88857 6.03118,4.14043c3.96843,3.7035 15.38761,12.01311 17.8261,16.86175c0.5001,0.99442 3.74528,6.20648 3.065,6.80497c-0.71225,0.62661 -12.00571,-0.21398 -14.03289,-0.68328c-1.28527,-0.29755 -2.67112,-0.14702 -1.53238,2.34149c1.67458,3.65948 1.62096,6.33769 1.62096,6.33769z" fill="#a636f3" stroke="#000000" stroke-width="2.5" stroke-linecap="round"/><path d="M349.17551,271.59174c-0.48716,0.86352 -3.11628,-1.40856 -5.87231,-5.07483c-2.75604,-3.66627 -4.59531,-7.33838 -4.10816,-8.2019c0.48716,-0.86352 3.11628,1.40854 5.87232,5.07482c2.75604,3.66627 4.59531,7.3384 4.10815,8.20192z" fill-opacity="0.23137" fill="#000000" stroke="none" stroke-width="0" stroke-linecap="butt"/><path d="M344.49339,287.48695c-0.44656,0.79156 -3.50647,-2.15569 -6.83452,-6.58289c-3.32804,-4.4272 -5.66394,-8.65783 -5.21736,-9.44939c0.44656,-0.79156 3.50647,2.15569 6.83452,6.58289c3.32804,4.4272 5.66393,8.65784 5.21736,9.44939z" fill-opacity="0.23137" fill="#000000" stroke="none" stroke-width="0" stroke-linecap="butt"/><path d="M348.53039,241.76747c-0.69015,1.22333 -1.83979,1.42994 -2.56779,0.46149c-0.728,-0.96845 -0.75871,-2.74524 -0.06856,-3.96856c0.69015,-1.22333 1.8398,-1.42993 2.56779,-0.46148c0.728,0.96845 0.7587,2.74522 0.06856,3.96855z" fill-opacity="0.23137" fill="#000000" stroke="none" stroke-width="0" stroke-linecap="butt"/><path d="M339.78443,248.45784c0,0 -0.93811,0.41881 -1.94369,0.66656c-0.80413,0.19809 -1.65137,0.2868 -2.0966,-0.03549c-0.47811,-0.34613 -0.97244,-1.38213 -1.37769,-2.43948c-0.52273,-1.36393 -0.89719,-2.76342 -0.89719,-2.76342" fill="none" stroke-opacity="0.40392" stroke="#000000" stroke-width="2.5" stroke-linecap="round"/><path d="M340.58271,258.33731c0,0 -0.93812,0.41881 -1.9437,0.66655c-0.80413,0.19809 -1.65137,0.28683 -2.09658,-0.03547c-0.47811,-0.34613 -0.97245,-1.38216 -1.37769,-2.43951c-0.52273,-1.36393 -0.89719,-2.76339 -0.89719,-2.76339" fill="none" stroke-opacity="0.40392" stroke="#000000" stroke-width="2.5" stroke-linecap="round"/><path d="M341.38099,268.21679c0,0 -0.93812,0.41881 -1.94371,0.66656c-0.80413,0.19809 -1.65137,0.28682 -2.09659,-0.03549c-0.47811,-0.34613 -0.97246,-1.38214 -1.37769,-2.43948c-0.52273,-1.36394 -0.89718,-2.7634 -0.89718,-2.7634" fill="none" stroke-opacity="0.40392" stroke="#000000" stroke-width="2.5" stroke-linecap="round"/></g><g><path d="M387.8227,105.18501c4.79727,0.33879 8.04574,-2.07608 12.39595,-3.21598c0.66255,-0.17361 4.30969,-1.91476 4.81935,-1.31559c0.39298,0.462 -1.06975,3.66937 -1.24377,4.22681c-0.59252,1.89786 -5.61033,12.22917 -5.47527,13.00404c0.49805,2.85756 9.09961,-1.79857 10.50142,-0.57461c1.28403,1.12112 -1.42976,5.19894 -1.91667,6.11152c-1.37758,2.58188 -7.88605,15.85728 -7.74964,17.9085c0.21712,3.26467 4.57745,6.85201 3.19535,11.19655c-0.6782,2.13191 -2.55103,-0.95497 -3.49817,-0.55369c-0.96462,0.4087 -0.57258,4.54105 -0.54917,5.41349c0.09541,3.55579 0.1355,7.53803 -0.48621,11.07428c-0.06404,0.36426 0.00367,0.91362 -0.30345,1.06299c-0.76497,0.37203 -9.52679,-8.44466 -10.9263,-9.44184c-6.81283,-4.85429 -13.51714,-12.48313 -15.67874,-21.67249c-3.26561,-13.88275 0.93287,-33.70737 16.55906,-32.60647z" fill="url(#color-2)" stroke="#000000" stroke-width="2.5" stroke-linecap="round"/><path d="M276.13506,112.16789c15.58117,-1.61771 20.43379,18.05701 17.62965,32.04027c-1.85613,9.25589 -8.30416,17.10255 -14.95252,22.17976c-1.36573,1.04299 -9.8308,10.14495 -10.60767,9.79846c-0.31191,-0.1391 -0.26242,-0.69041 -0.33848,-1.05235c-0.73845,-3.51371 -0.83026,-7.4951 -0.85264,-11.0521c-0.0055,-0.87273 0.24951,-5.0158 -0.72812,-5.39233c-0.95989,-0.36972 -2.72947,2.7775 -3.47791,0.66921c-1.52519,-4.29637 2.71396,-8.02614 2.82286,-11.29621c0.06843,-2.05461 -6.87605,-15.10721 -8.33837,-17.64207c-0.51687,-0.89596 -3.36418,-4.88168 -2.11798,-6.04471c1.36051,-1.2697 10.11151,3.09905 10.51468,0.22658c0.10933,-0.77892 -5.24782,-10.93841 -5.90285,-12.81562c-0.1924,-0.55137 -1.76052,-3.70855 -1.38306,-4.1833c0.48954,-0.61572 4.19233,1.00371 4.86027,1.15529c4.38556,0.99524 7.71222,3.30122 12.49563,2.80377z" fill="url(#color-3)" stroke="#000000" stroke-width="2.5" stroke-linecap="round"/><path d="M387.25653,124.60135c-1.46906,28.51639 -27.04824,53.38379 -57.26081,51.82735c-30.21257,-1.55643 -53.61766,-28.94732 -52.1486,-57.4637c1.46906,-28.51638 27.15211,-50.37176 57.36468,-48.81531c30.21257,1.55643 53.51381,25.93527 52.04476,54.45166z" fill="#a636f3" stroke="#000000" stroke-width="2.5" stroke-linecap="butt"/><path d="M346.69959,115.36435c0.05861,2.70821 -6.54474,5.04758 -14.74901,5.22515c-8.20427,0.17756 -14.90266,-1.87392 -14.96126,-4.58213c-0.05861,-2.70821 6.54475,-5.04758 14.74902,-5.22515c8.20427,-0.17756 14.90266,1.87392 14.96127,4.58213z" fill-opacity="0.23137" fill="#000000" stroke="none" stroke-width="0" stroke-linecap="butt"/><path d="M311.50602,114.50283c-0.11497,2.23191 -2.23325,1.57051 -4.6829,1.44432c-2.44966,-0.1262 -4.30306,0.33059 -4.18809,-1.90131c0.11497,-2.23192 2.19403,-3.93892 4.64367,-3.81272c2.44966,0.1262 4.34227,2.03781 4.2273,4.26973z" fill="#ffffff" stroke="#000000" stroke-width="2.5" stroke-linecap="butt"/><path d="M360.67362,113.69951c-0.11497,2.23192 -2.22671,1.96525 -4.67636,1.83906c-2.44966,-0.1262 -4.30958,-0.06415 -4.19461,-2.29605c0.11497,-2.23191 2.19402,-3.93891 4.64367,-3.81271c2.44966,0.1262 4.34228,2.03781 4.22731,4.26972z" fill="#ffffff" stroke="#000000" stroke-width="2.5" stroke-linecap="butt"/><path d="M300.61567,113.17576c-12.1622,6.67152 -24.51124,3.00994 -27.58236,-8.17839c-3.07111,-11.18833 4.29866,-25.66661 16.46087,-32.33813c12.1622,-6.67152 24.51124,-3.00994 27.58235,8.17839c3.07111,11.18833 -4.29866,25.6666 -16.46086,32.33813z" fill="url(#color-4)" stroke="#000000" stroke-width="0" stroke-linecap="butt"/><path d="M308.84848,90.73804l-13.70253,12.58403l-12.86285,7.64669l-15.97951,-2.48953l-15.10449,-38.86876l0.97703,-38.26741l25.20858,39.93708l36.44791,4.09941z" fill="url(#color-5)" stroke="#000000" stroke-width="2.5" stroke-linecap="round"/><path d="M345.24207,75.44605c2.648,-11.07081 14.63826,-15.06248 26.78099,-8.91563c12.14274,6.14685 19.83975,20.10452 17.19175,31.17534c-2.648,11.07081 -14.63827,15.06248 -26.781,8.91563c-12.14274,-6.14685 -19.83974,-20.10452 -17.19174,-31.17533z" fill="url(#color-6)" stroke="#000000" stroke-width="0" stroke-linecap="butt"/><path d="M346.96268,72.27166l36.29218,-5.30404l23.87235,-40.74989l2.24361,38.21408l-13.80918,39.34759l-15.88832,3.01728l-13.10898,-7.21657l-14.1117,-12.12342z" fill="url(#color-7)" stroke="#000000" stroke-width="2.5" stroke-linecap="round"/><path d="M323.3486,83.49703c0,0 -1.18914,0.86307 -2.56,1.63987c-1.06271,0.6022 -2.23464,1.15255 -3.04643,1.20877c-0.75594,0.05234 -1.85022,-0.35764 -2.8329,-0.82943c-1.22891,-0.59 -2.28331,-1.27665 -2.28331,-1.27665" fill="none" stroke-opacity="0.40392" stroke="#000000" stroke-width="2.5" stroke-linecap="round"/><path d="M353.01431,83.9488c0,0 -1.36893,0.53386 -2.8918,0.93823c-1.18057,0.31348 -2.45366,0.54916 -3.25324,0.398c-0.74456,-0.14076 -1.69936,-0.81445 -2.53057,-1.5197c-1.03947,-0.88194 -1.88565,-1.8132 -1.88565,-1.8132" fill="none" stroke-opacity="0.40392" stroke="#000000" stroke-width="2.5" stroke-linecap="round"/><path d="M337.8742,80.23145c0,0 -1.14135,0.92533 -2.46878,1.77422c-1.02905,0.65808 -2.16991,1.27023 -2.97755,1.36972c-0.75206,0.09264 -1.86667,-0.25834 -2.87315,-0.67698c-1.25865,-0.52353 -2.34821,-1.15291 -2.34821,-1.15291" fill="none" stroke-opacity="0.40392" stroke="#000000" stroke-width="2.5" stroke-linecap="round"/><path d="M383.70005,122.5937c0,0 -0.90478,0.52616 -1.91237,0.922c-0.78111,0.30687 -1.624,0.53542 -2.15505,0.37982c-0.49451,-0.14491 -1.1314,-0.82387 -1.68653,-1.53368c-0.6942,-0.88766 -1.26052,-1.82355 -1.26052,-1.82355" fill="none" stroke-opacity="0.40392" stroke="#000000" stroke-width="2.5" stroke-linecap="round"/><path d="M384.28775,131.08745c0,0 -0.90478,0.52616 -1.91237,0.92201c-0.78111,0.30687 -1.624,0.53542 -2.15505,0.37982c-0.49451,-0.14491 -1.1314,-0.82387 -1.68653,-1.53368c-0.6942,-0.88766 -1.26052,-1.82355 -1.26052,-1.82355" fill="none" stroke-opacity="0.40392" stroke="#000000" stroke-width="2.5" stroke-linecap="round"/><path d="M382.59924,139.61889c0,0 -0.90478,0.52616 -1.91237,0.92201c-0.78111,0.30687 -1.62399,0.53542 -2.15504,0.37982c-0.49452,-0.1449 -1.13141,-0.82386 -1.68654,-1.53367c-0.6942,-0.88766 -1.26052,-1.82355 -1.26052,-1.82355" fill="none" stroke-opacity="0.40392" stroke="#000000" stroke-width="2.5" stroke-linecap="round"/><path d="M287.9737,120.19599c0,0 -0.53501,0.95413 -1.19944,1.86429c-0.53132,0.72781 -1.14538,1.42748 -1.63482,1.58869c-0.52561,0.17311 -1.37559,-0.02742 -2.16644,-0.30825c-1.02014,-0.36226 -1.94185,-0.85817 -1.94185,-0.85817" fill="none" stroke-opacity="0.40392" stroke="#000000" stroke-width="2.5" stroke-linecap="round"/><path d="M289.21825,126.05176c0,0 -0.53501,0.95413 -1.19945,1.86428c-0.53132,0.72781 -1.14538,1.42748 -1.63483,1.58869c-0.52561,0.17311 -1.37559,-0.02742 -2.16643,-0.30825c-1.02014,-0.36227 -1.94185,-0.85818 -1.94185,-0.85818" fill="none" stroke-opacity="0.40392" stroke="#000000" stroke-width="2.5" stroke-linecap="round"/><path d="M289.77986,132.96969c0,0 -0.53501,0.95413 -1.19945,1.86428c-0.53132,0.72781 -1.14538,1.42748 -1.63483,1.58869c-0.52561,0.17311 -1.37559,-0.02742 -2.16643,-0.30825c-1.02014,-0.36227 -1.94185,-0.85818 -1.94185,-0.85818" fill="none" stroke-opacity="0.40392" stroke="#000000" stroke-width="2.5" stroke-linecap="round"/><path d="M326.6978,144.19567l3.60108,5.09813" fill="none" stroke="#000000" stroke-width="2.5" stroke-linecap="round"/><path d="M340.05742,143.97442l-4.59055,5.93712" fill="none" stroke="#000000" stroke-width="2.5" stroke-linecap="round"/><path d="M370.664,145.73026l2.89911,0.81766l-22.4983,17.97454l-18.80837,-3.1512l-13.48678,4.5517l-25.644,-15.15738l4.02435,-0.93231" fill="none" stroke="#000000" stroke-width="2.5" stroke-linecap="round"/><path d="M262.5027,47.65765c0,0 47.63486,-5.49925 69.35976,-6.15163c23.01933,-0.69125 65.09778,2.11401 65.09778,2.11401" fill="none" stroke="#000000" stroke-width="2.5" stroke-linecap="round"/><path d="M394.12068,48.58238c0,0 -73.01118,3.03778 -81.45972,3.28119c-20.4324,0.58869 -45.2432,0.36929 -45.2432,0.36929" fill="none" stroke="#000000" stroke-width="2.5" stroke-linecap="round"/><path d="M390.99618,53.80814c0,0 -52.23042,5.15086 -73.11657,5.85169c-19.62925,0.65866 -48.66381,-1.76533 -48.66381,-1.76533" fill="none" stroke="#000000" stroke-width="2.5" stroke-linecap="round"/></g></g></g></svg>