<svg version="1.1" xmlns="http://www.w3.org/2000/svg" xmlns:xlink="http://www.w3.org/1999/xlink" width="172.46622" height="312.35839" viewBox="0,0,172.46622,312.35839"><defs><linearGradient x1="318.63752" y1="166.52653" x2="318.63752" y2="345.3589" gradientUnits="userSpaceOnUse" id="color-1"><stop offset="0" stop-color="#383838"/><stop offset="1" stop-color="#494949"/></linearGradient><linearGradient x1="350.07374" y1="167.58769" x2="350.07374" y2="348.39213" gradientUnits="userSpaceOnUse" id="color-2"><stop offset="0" stop-color="#666666"/><stop offset="1" stop-color="#4b4b4b"/></linearGradient><linearGradient x1="288.26775" y1="166.33903" x2="288.26775" y2="347.14347" gradientUnits="userSpaceOnUse" id="color-3"><stop offset="0" stop-color="#666666"/><stop offset="1" stop-color="#4b4b4b"/></linearGradient><linearGradient x1="284.2432" y1="183.95818" x2="284.2432" y2="204.74686" gradientUnits="userSpaceOnUse" id="color-4"><stop offset="0" stop-color="#878787"/><stop offset="1" stop-color="#848484"/></linearGradient><linearGradient x1="125.24419" y1="89.21092" x2="125.24419" y2="90.46092" gradientUnits="userSpaceOnUse" id="color-5"><stop offset="0" stop-color="#878787"/><stop offset="1" stop-color="#848484"/></linearGradient><radialGradient cx="353.71884" cy="95.71828" r="25.11551" gradientUnits="userSpaceOnUse" id="color-6"><stop offset="0" stop-color="#000000" stop-opacity="0.92549"/><stop offset="1" stop-color="#000000" stop-opacity="0"/></radialGradient><radialGradient cx="282.57769" cy="99.11987" r="25.35587" gradientUnits="userSpaceOnUse" id="color-7"><stop offset="0" stop-color="#000000" stop-opacity="0.92549"/><stop offset="1" stop-color="#000000" stop-opacity="0"/></radialGradient><linearGradient x1="274.05735" y1="38.75207" x2="277.09283" y2="123.89679" gradientUnits="userSpaceOnUse" id="color-8"><stop offset="0" stop-color="#9c9c9c"/><stop offset="1" stop-color="#2c2c2c"/></linearGradient><linearGradient x1="360.69647" y1="40.43533" x2="360.17529" y2="128.69302" gradientUnits="userSpaceOnUse" id="color-9"><stop offset="0" stop-color="#9c9c9c"/><stop offset="1" stop-color="#2c2c2c"/></linearGradient></defs><g transform="translate(-231.80259,-37.40074)"><g stroke-miterlimit="10"><path d="M271.59093,341.72027l-2.12923,-147.27579c0,0 6.62477,-25.69821 16.43299,-26.10344c9.74037,-0.40242 32.82784,-0.95905 52.99415,-1.79223c21.87273,-0.90368 28.68715,25.97468 28.68715,25.97468l0.23734,152.83541z" fill="url(#color-1)" stroke="#000000" stroke-width="2.5" stroke-linecap="butt"/><path d="M327.15731,348.39213l9.75691,-98.70894c0,0 -6.47072,-81.00484 3.7222,-80.10116c9.39771,0.83318 14.26175,-2.36153 18.80086,-1.95911c4.57074,0.40523 13.55291,29.85478 13.55291,29.85478l-0.99224,147.27579z" fill="url(#color-2)" stroke="#000000" stroke-width="2.5" stroke-linecap="butt"/><path d="M266.34355,343.50484l-0.99224,-147.27579c0,0 8.98217,-29.44955 13.5529,-29.85478c4.53911,-0.40242 9.40315,2.79229 18.80086,1.95911c10.19292,-0.90368 3.72221,80.10116 3.72221,80.10116l9.75691,98.70894z" fill="url(#color-3)" stroke="#000000" stroke-width="2.5" stroke-linecap="butt"/><path d="M333.44807,180c0,7.57528 -6.0209,13.71624 -13.44807,13.71624c-7.42717,0 -13.44807,-6.14097 -13.44807,-13.71624c0,-7.57528 6.0209,-13.71624 13.44807,-13.71624c7.42717,0 13.44807,6.14097 13.44807,13.71624z" fill="#9c9c9c" stroke="#000000" stroke-width="2.5" stroke-linecap="butt"/><path d="M305.71663,219.63699l29.42873,1.7311" fill="none" stroke="#000000" stroke-width="2.5" stroke-linecap="round"/><path d="M333.70277,232.33174h-29.42873" fill="none" stroke="#000000" stroke-width="2.5" stroke-linecap="round"/><path d="M302.83146,243.00687l34.33353,-0.86555" fill="none" stroke="#000000" stroke-width="2.5" stroke-linecap="round"/><path d="M303.11996,254.54755h32.89094" fill="none" stroke="#000000" stroke-width="2.5" stroke-linecap="round"/><path d="M306.00514,266.95378l28.56319,-0.28852" fill="none" stroke="#000000" stroke-width="2.5" stroke-linecap="round"/><path d="M307.15921,280.8026l25.96653,-0.86555" fill="none" stroke="#000000" stroke-width="2.5" stroke-linecap="round"/><path d="M309.75586,293.20883l19.90768,-0.57703" fill="none" stroke="#000000" stroke-width="2.5" stroke-linecap="round"/><path d="M328.79799,302.72989l-18.17657,0.28851" fill="none" stroke="#000000" stroke-width="2.5" stroke-linecap="round"/><path d="M329.66354,313.69352l-18.17657,0.57704" fill="none" stroke="#000000" stroke-width="2.5" stroke-linecap="round"/><path d="M306.00514,208.67334l29.71726,1.7311" fill="none" stroke="#000000" stroke-width="2.5" stroke-linecap="round"/><path d="M306.58218,198.86376l26.54357,0.86555" fill="none" stroke="#000000" stroke-width="2.5" stroke-linecap="round"/><path d="M340.57427,228.19396l-0.57704,-21.9273l29.71726,0.57704l-1.7311,18.7536" fill="none" stroke="#000000" stroke-width="2.5" stroke-linecap="round"/><path d="M353.84605,228.77099l-0.57703,54.52972l-1.15407,61.45413" fill="none" stroke="#000000" stroke-width="2.5" stroke-linecap="round"/><path d="M295.49481,194.35252c0,5.74064 -5.03752,10.39434 -11.25161,10.39434c-6.21409,0 -11.25161,-4.65371 -11.25161,-10.39434c0,-5.74064 5.03752,-10.39434 11.25161,-10.39434c6.21409,0 11.25161,4.65371 11.25161,10.39434z" fill="url(#color-4)" stroke="#000000" stroke-width="2.5" stroke-linecap="butt"/><path d="M250.48838,179.67185v0z" fill="url(#color-5)" stroke="#000000" stroke-width="2.5" stroke-linecap="butt"/><path d="M373.12346,128.32417c-2.10923,28.47621 -28.24054,52.76276 -58.41053,50.52806c-30.16999,-2.23469 -52.95391,-30.1444 -50.84468,-58.62059c2.10923,-28.47619 28.27673,-49.74915 58.44672,-47.51444c30.16999,2.23469 52.91774,27.13078 50.80852,55.60698z" fill="#9c9c9c" stroke="#000000" stroke-width="2.5" stroke-linecap="butt"/><path d="M333.41431,125.56535c-0.01599,2.7088 -6.68128,4.86542 -14.88733,4.81696c-8.20606,-0.04845 -14.84539,-2.28366 -14.8294,-4.99244c0.01599,-2.7088 6.68128,-4.86542 14.88733,-4.81697c8.20606,0.04845 14.84539,2.28366 14.8294,4.99245z" fill-opacity="0.18431" fill="#000000" stroke="none" stroke-width="0" stroke-linecap="butt"/><path d="M331.8019,174.17489l-26.92122,-0.15898" fill="none" stroke="#000000" stroke-width="2.5" stroke-linecap="round"/><path d="M273.39254,141.04124c0.51897,-0.08739 2.96822,0.06673 1.69345,1.40606c-0.28078,0.29501 -1.69965,0.15224 -1.95866,-0.0808c-0.39798,-0.3581 0.75799,-1.09142 0.46271,-1.538c-0.18384,-0.27805 -0.59294,0.6985 -0.86367,0.50403c-0.27071,-0.19447 0.13461,-0.65294 0.20191,-0.97941z" fill="none" stroke="#000000" stroke-width="2.5" stroke-linecap="round"/><path d="M284.25305,142.44386c-2.64873,-0.87968 1.21378,-1.89539 1.43693,-0.78582c0.39806,1.97929 -4.38841,-0.79735 -0.16698,-0.77243" fill="none" stroke="#000000" stroke-width="2.5" stroke-linecap="round"/><path d="M278.93945,146.78799c4.51104,-0.65021 -0.28761,3.30324 -0.95949,1.87538c-0.2914,-0.61928 1.16805,-1.2479 0.86559,-1.86186z" fill="none" stroke="#000000" stroke-width="2.5" stroke-linecap="round"/><path d="M350.68509,143.28566c0.58046,-0.2098 1.91855,-0.53789 1.85008,0.07551c-0.00345,0.03097 -3.78763,0.99258 -1.96776,-1.40432" fill="none" stroke="#000000" stroke-width="2.5" stroke-linecap="round"/><path d="M359.72982,143.63608c0.98383,2.12126 -2.11694,1.01611 -0.01011,-0.02179z" fill="none" stroke="#000000" stroke-width="2.5" stroke-linecap="round"/><path d="M355.64235,149.38c-0.31791,0.1329 -3.02027,1.11113 -2.21291,-0.59963c0.30328,-0.64264 2.6564,-0.79807 2.34103,0.55457c-0.14126,0.60588 -2.50462,1.3401 -1.12085,-0.48242z" fill="none" stroke="#000000" stroke-width="2.5" stroke-linecap="round"/><path d="M332.19538,80.66933c2.86987,-14.25954 14.83274,-19.08152 26.71981,-10.77021c11.88707,8.31132 19.19697,26.60859 16.3271,40.86813c-2.86987,14.25954 -14.83274,19.08152 -26.71982,10.7702c-11.88707,-8.31132 -19.19697,-26.60859 -16.32709,-40.8681z" fill="url(#color-6)" stroke="#000000" stroke-width="0" stroke-linecap="butt"/><path d="M304.46573,84.11903c2.74519,14.53157 -4.829,33.02788 -16.91742,41.31264c-12.08843,8.28476 -24.11345,3.22068 -26.85864,-11.31091c-2.74519,-14.53159 4.82902,-33.02788 16.91744,-41.31265c12.08843,-8.28475 24.11344,-3.22068 26.85863,11.31091z" fill="url(#color-7)" stroke="#000000" stroke-width="0" stroke-linecap="butt"/><path d="M267.4628,124.24011l-33.22121,-84.06855l69.56506,38.32441c0,0 -4.63691,18.71015 -9.99275,25.45128c-6.52602,8.21399 -26.35111,20.29289 -26.35111,20.29289z" fill="url(#color-8)" stroke="#000000" stroke-width="2.5" stroke-linecap="butt"/><path d="M333.73197,78.17605l68.23598,-37.497l-31.81054,88.07295c0,0 -19.1281,-16.81282 -25.45439,-25.59675c-5.76289,-8.00165 -10.97104,-24.97919 -10.97104,-24.97919z" fill="url(#color-9)" stroke="#000000" stroke-width="2.5" stroke-linecap="butt"/><path d="M300.14861,122.65422l-6.442,6.54824" fill="none" stroke="#000000" stroke-width="2.5" stroke-linecap="round"/><path d="M301.80053,121.7492l-24.33073,-0.32662" fill="none" stroke="#000000" stroke-width="2.5" stroke-linecap="round"/><path d="M334.24089,122.18411l24.33073,0.32662" fill="none" stroke="#000000" stroke-width="2.5" stroke-linecap="round"/></g></g></svg>