<svg version="1.1" xmlns="http://www.w3.org/2000/svg" xmlns:xlink="http://www.w3.org/1999/xlink" width="172.46669" height="310.94544" viewBox="0,0,172.46669,310.94544"><defs><linearGradient x1="315.95799" y1="168.67016" x2="315.95799" y2="347.50253" gradientUnits="userSpaceOnUse" id="color-1"><stop offset="0" stop-color="#383838"/><stop offset="1" stop-color="#494949"/></linearGradient><linearGradient x1="347.39421" y1="169.73132" x2="347.39421" y2="350.53576" gradientUnits="userSpaceOnUse" id="color-2"><stop offset="0" stop-color="#666666"/><stop offset="1" stop-color="#4b4b4b"/></linearGradient><linearGradient x1="285.58822" y1="168.48266" x2="285.58822" y2="349.2871" gradientUnits="userSpaceOnUse" id="color-3"><stop offset="0" stop-color="#666666"/><stop offset="1" stop-color="#4b4b4b"/></linearGradient><radialGradient cx="349.23597" cy="98.94791" r="21.79138" gradientUnits="userSpaceOnUse" id="color-4"><stop offset="0" stop-color="#000000" stop-opacity="0.92549"/><stop offset="1" stop-color="#000000" stop-opacity="0"/></radialGradient><radialGradient cx="281.06379" cy="102.80636" r="25.35587" gradientUnits="userSpaceOnUse" id="color-5"><stop offset="0" stop-color="#000000" stop-opacity="0.92549"/><stop offset="1" stop-color="#000000" stop-opacity="0"/></radialGradient><linearGradient x1="272.18712" y1="42.48993" x2="275.72533" y2="127.61523" gradientUnits="userSpaceOnUse" id="color-6"><stop offset="0" stop-color="#9c9c9c"/><stop offset="1" stop-color="#2c2c2c"/></linearGradient><linearGradient x1="358.83467" y1="43.66153" x2="358.83467" y2="131.92077" gradientUnits="userSpaceOnUse" id="color-7"><stop offset="0" stop-color="#9c9c9c"/><stop offset="1" stop-color="#2c2c2c"/></linearGradient><linearGradient x1="281.56368" y1="186.10181" x2="281.56368" y2="206.8905" gradientUnits="userSpaceOnUse" id="color-8"><stop offset="0" stop-color="#878787"/><stop offset="1" stop-color="#848484"/></linearGradient></defs><g transform="translate(-229.9251,-40.95732)"><g stroke-miterlimit="10"><path d="M268.9114,343.8639l-2.12923,-147.27579c0,0 6.62477,-25.69821 16.43299,-26.10344c9.74037,-0.40242 32.82784,-0.95905 52.99415,-1.79223c21.87273,-0.90368 28.68715,25.97468 28.68715,25.97468l0.23734,152.83541z" fill="url(#color-1)" stroke="#000000" stroke-width="2.5" stroke-linecap="butt"/><path d="M324.47778,350.53576l9.75691,-98.70894c0,0 -6.47072,-81.00484 3.7222,-80.10116c9.39771,0.83318 14.26175,-2.36153 18.80086,-1.95911c4.57074,0.40523 13.55291,29.85478 13.55291,29.85478l-0.99224,147.27579z" fill="url(#color-2)" stroke="#000000" stroke-width="2.5" stroke-linecap="butt"/><path d="M263.66402,345.64847l-0.99224,-147.27579c0,0 8.98217,-29.44955 13.5529,-29.85478c4.53911,-0.40242 9.40315,2.79229 18.80086,1.95911c10.19292,-0.90368 3.72221,80.10116 3.72221,80.10116l9.75691,98.70894z" fill="url(#color-3)" stroke="#000000" stroke-width="2.5" stroke-linecap="butt"/><path d="M330.76854,182.14363c0,7.57528 -6.0209,13.71624 -13.44807,13.71624c-7.42717,0 -13.44807,-6.14097 -13.44807,-13.71624c0,-7.57528 6.0209,-13.71624 13.44807,-13.71624c7.42717,0 13.44807,6.14097 13.44807,13.71624z" fill="#9c9c9c" stroke="#000000" stroke-width="2.5" stroke-linecap="butt"/><path d="M371.78044,131.47546c-1.94104,28.48816 -27.92848,52.9286 -58.11114,50.8721c-30.18266,-2.05649 -53.13099,-29.83117 -51.18995,-58.31932c1.94104,-28.48815 27.98246,-49.91526 58.16512,-47.85875c30.18266,2.05649 53.07703,26.81782 51.13599,55.30597z" fill="#9c9c9c" stroke="#000000" stroke-width="2.5" stroke-linecap="butt"/><path d="M321.83542,126.35929c0,2.70884 -6.65243,4.90479 -14.85862,4.90479c-8.2062,0 -14.85862,-2.19595 -14.85862,-4.90479c0,-2.70884 6.65243,-4.90479 14.85862,-4.90479c8.2062,0 14.85862,2.19595 14.85862,4.90479z" fill-opacity="0.18431" fill="#000000" stroke="none" stroke-width="0" stroke-linecap="butt"/><path d="M327.35877,175.4371h-26.92169" fill="none" stroke="#000000" stroke-width="2.5" stroke-linecap="round"/><path d="M269.12593,144.3526c0.51844,-0.09046 2.96856,0.0492 1.70172,1.39603c-0.27904,0.29666 -1.69872,0.16228 -1.9591,-0.06923c-0.40009,-0.35574 0.75153,-1.09588 0.45362,-1.54071c-0.18548,-0.27696 -0.58881,0.702 -0.86068,0.50913c-0.27186,-0.19287 0.13075,-0.65372 0.19612,-0.98058z" fill="none" stroke="#000000" stroke-width="2.5" stroke-linecap="round"/><path d="M279.99453,145.69107c-2.65388,-0.86402 1.20257,-1.90253 1.43226,-0.7943c0.40974,1.97691 -4.39304,-0.77143 -0.17154,-0.77143" fill="none" stroke="#000000" stroke-width="2.5" stroke-linecap="round"/><path d="M274.70667,150.0665c4.50712,-0.67684 -0.2681,3.30488 -0.94839,1.88101c-0.29505,-0.61755 1.16066,-1.25478 0.85458,-1.86693z" fill="none" stroke="#000000" stroke-width="2.5" stroke-linecap="round"/><path d="M340.64777,145.3205c0.57921,-0.18134 1.91534,-0.46708 1.85049,0.05493c-0.00327,0.02636 -3.78171,0.86317 -1.97601,-1.18443" fill="none" stroke="#000000" stroke-width="2.5" stroke-linecap="round"/><path d="M349.69441,145.57309c0.99634,1.79911 -2.1109,0.87479 -0.01024,-0.01849z" fill="none" stroke="#000000" stroke-width="2.5" stroke-linecap="round"/><path d="M345.64093,150.47859c-0.31712,0.11462 -3.01366,0.96013 -2.21641,-0.49885c0.29948,-0.54806 2.65164,-0.69206 2.34427,0.45989c-0.13768,0.51599 -2.49667,1.15227 -1.12368,-0.40465z" fill="none" stroke="#000000" stroke-width="2.5" stroke-linecap="round"/><path d="M330.50137,84.06211c2.43298,-14.281 12.79306,-19.19344 23.13988,-10.97223c10.34682,8.22121 16.76227,26.46285 14.32929,40.74386c-2.43298,14.281 -12.79306,19.19344 -23.13989,10.97223c-10.34682,-8.22121 -16.76226,-26.46285 -14.32928,-40.74384z" fill="url(#color-4)" stroke="#000000" stroke-width="0" stroke-linecap="butt"/><path d="M302.86286,87.67653c2.83095,14.51511 -4.63388,33.05582 -16.67317,41.41181c-12.03929,8.35599 -24.09401,3.36302 -26.92496,-11.15211c-2.83095,-14.51513 4.63389,-33.05583 16.67318,-41.41183c12.03929,-8.35599 24.094,-3.36301 26.92495,11.15212z" fill="url(#color-5)" stroke="#000000" stroke-width="0" stroke-linecap="butt"/><path d="M266.09749,128.01541l-33.71707,-83.87091l69.79016,37.91295c0,0 -4.52634,18.73721 -9.84228,25.50984c-6.47741,8.25238 -26.23082,20.44814 -26.23082,20.44814z" fill="url(#color-6)" stroke="#000000" stroke-width="2.5" stroke-linecap="butt"/><path d="M332.0935,81.56082l68.01336,-37.89929l-31.2899,88.25926c0,0 -19.22705,-16.69957 -25.6051,-25.44599c-5.81004,-7.96748 -11.11836,-24.91397 -11.11836,-24.91397z" fill="url(#color-7)" stroke="#000000" stroke-width="2.5" stroke-linecap="butt"/><path d="M282.76499,123.8991c0.01785,2.2348 -1.95612,4.06232 -4.40893,4.0819c-2.45283,0.01958 -4.45569,-1.77621 -4.47354,-4.011c-0.01785,-2.2348 1.95612,-4.06232 4.40893,-4.0819c2.45283,-0.01958 4.45568,1.77621 4.47352,4.01101z" fill="#ffffff" stroke="#000000" stroke-width="2.5" stroke-linecap="butt"/><path d="M336.12834,123.78701c0.01785,2.2348 -1.95611,4.06232 -4.40893,4.0819c-2.45283,0.01958 -4.45568,-1.77621 -4.47352,-4.011c-0.01785,-2.2348 1.95611,-4.06231 4.40893,-4.08189c2.45283,-0.01958 4.45569,1.7762 4.47353,4.01099z" fill="#ffffff" stroke="#000000" stroke-width="2.5" stroke-linecap="butt"/><path d="M291.99268,126.18507l-6.40322,6.58617" fill="none" stroke="#000000" stroke-width="2.5" stroke-linecap="round"/><path d="M299.1277,120.14774l-24.33224,-0.18294" fill="none" stroke="#000000" stroke-width="2.5" stroke-linecap="round"/><path d="M303.0371,221.78062l29.42873,1.7311" fill="none" stroke="#000000" stroke-width="2.5" stroke-linecap="round"/><path d="M301.59451,234.47537h29.42873" fill="none" stroke="#000000" stroke-width="2.5" stroke-linecap="round"/><path d="M334.48546,244.28495l-34.33353,0.86555" fill="none" stroke="#000000" stroke-width="2.5" stroke-linecap="round"/><path d="M300.44043,256.69118h32.89094" fill="none" stroke="#000000" stroke-width="2.5" stroke-linecap="round"/><path d="M303.32561,269.09741l28.56319,-0.28852" fill="none" stroke="#000000" stroke-width="2.5" stroke-linecap="round"/><path d="M330.44621,282.08068l-25.96653,0.86555" fill="none" stroke="#000000" stroke-width="2.5" stroke-linecap="round"/><path d="M307.07633,295.35246l19.90768,-0.57703" fill="none" stroke="#000000" stroke-width="2.5" stroke-linecap="round"/><path d="M326.11846,304.87352l-18.17657,0.28851" fill="none" stroke="#000000" stroke-width="2.5" stroke-linecap="round"/><path d="M308.80744,316.4142l18.17657,-0.57704" fill="none" stroke="#000000" stroke-width="2.5" stroke-linecap="round"/><path d="M303.32561,210.81697l29.71726,1.7311" fill="none" stroke="#000000" stroke-width="2.5" stroke-linecap="round"/><path d="M303.90265,201.00739l26.54357,0.86555" fill="none" stroke="#000000" stroke-width="2.5" stroke-linecap="round"/><path d="M337.89474,230.33759l-0.57704,-21.9273l29.71726,0.57704l-1.7311,18.7536" fill="none" stroke="#000000" stroke-width="2.5" stroke-linecap="round"/><path d="M351.16653,230.91463l-0.57703,54.52971l-1.15407,61.45413" fill="none" stroke="#000000" stroke-width="2.5" stroke-linecap="round"/><path d="M292.81528,196.49615c0,5.74063 -5.03751,10.39435 -11.2516,10.39435c-6.21409,0 -11.25161,-4.65371 -11.25161,-10.39435c0,-5.74063 5.03752,-10.39434 11.25161,-10.39434c6.21409,0 11.2516,4.65371 11.2516,10.39434z" fill="url(#color-8)" stroke="#000000" stroke-width="2.5" stroke-linecap="butt"/></g></g></svg>