<svg version="1.1" xmlns="http://www.w3.org/2000/svg" xmlns:xlink="http://www.w3.org/1999/xlink" width="221.11937" height="323.61922" viewBox="0,0,221.11937,323.61922"><g transform="translate(-165.79605,-33.4461)"><g data-paper-data="{&quot;isPaintingLayer&quot;:true}" fill-rule="nonzero" stroke-linejoin="miter" stroke-miterlimit="10" stroke-dasharray="" stroke-dashoffset="0" style="mix-blend-mode: normal"><path d="M300.21996,249.38304c-7.72508,3.6692 -19.72991,1.25663 -27.75541,-1.0169c-24.27545,-6.87693 -53.48084,-25.66495 -56.23148,-53.64283c-1.86039,-18.92274 12.38542,-32.32432 26.80635,-41.64876c5.47105,-3.53754 17.11677,-9.61398 21.16184,-1.46785c1.07646,2.16782 1.31547,4.55579 0.30823,6.82909c-2.17599,4.91114 -9.62322,6.40441 -13.59838,9.67619c-12.0115,9.88611 -17.13225,24.53134 -8.87269,38.46349c8.74525,14.7514 27.61039,19.43703 43.53332,16.92411c8.23107,-1.29902 16.29932,-5.4372 24.9073,-3.40213c25.52091,6.03357 6.16817,26.397 -9.02957,29.55418z" fill="#feed00" stroke="#000000" stroke-width="2" stroke-linecap="round"/><path d="M292.78663,244.89831c5.73663,-0.23075 13.47454,-1.5542 19.22354,-2.54729c6.2684,-1.08281 14.80764,-0.31478 21.25167,-0.45177c3.78533,-0.08047 12.35941,-1.13289 15.38601,0.34355c1.95913,0.95572 1.8936,3.55533 2.39193,4.88132c1.85178,4.92736 1.01191,10.38171 2.86871,15.40657c2.19339,5.93578 0.36883,12.0988 1.3659,18.21257c1.8639,11.42895 3.04803,23.05353 -1.2407,34.7513c-1.87543,5.11537 6.4951,11.05358 -2.29671,14.3432c-3.11328,1.16488 -10.74694,8.3189 -14.23213,8.39298c-5.05596,0.10748 -11.30661,-4.71393 -17.52217,-5.67467c-7.91418,-1.2233 -18.22376,3.3569 -24.14139,1.94485c-2.96209,-0.70682 -6.90152,-3.87111 -8.47482,-5.76672c-1.97219,-2.37622 1.21795,-13.43717 1.3467,-16.69271c0.63318,-16.00957 -0.38723,-24.80663 0.24388,-40.83021c0.20738,-5.26526 -0.69085,-22.53475 2.41042,-26.28197z" fill="#3c2c1f" stroke="#000000" stroke-width="2" stroke-linecap="round"/><g stroke-width="2"><path d="M351.35179,218.59651c2.79983,-3.44943 6.21527,-9.8794 9.96654,-10.8639c7.11178,-1.86648 20.31846,9.66693 19.1791,23.07015c-0.18663,2.19549 -0.92126,7.00758 -2.95948,6.21432c-0.44516,-0.17327 -2.02425,-2.50453 -2.4065,-1.97583c-0.12554,0.17364 0.44524,4.56056 0.39305,5.23673c-0.2784,3.606 -1.45099,7.4384 -3.75295,8.5839c-2.25752,1.1234 -4.12686,-5.45032 -5.11709,-5.11313c-1.48703,0.50636 -2.7462,9.03652 -8.06112,4.76951c-2.87585,-2.30883 -4.68027,-12.90544 -4.94632,-13.10879c-1.38157,-1.05601 -5.39809,3.39358 -8.75546,-3.45192c-3.08785,-6.296 2.83626,-13.96174 6.25652,-13.64758z" fill="#feed00" stroke="#000000" stroke-linecap="round"/><path d="M371.11295,225.68237c-0.43037,1.95155 -1.4188,3.26508 -2.66063,3.85684c-1.37455,0.65502 -2.68951,-2.35136 -4.27194,-3.57832c-1.65147,-1.28048 -3.21837,-0.60468 -3.81319,-2.91949c-0.49004,-1.9071 -0.57148,-3.9591 -0.16188,-5.81639c0.90676,-4.11166 4.08359,-5.55159 7.09566,-3.21615c3.01207,2.33544 4.71874,7.56184 3.81198,11.6735z" fill="#ffa600" stroke="none" stroke-linecap="butt"/><path d="M351.66869,230.38631c-0.28996,2.34139 -1.9259,3.42823 -3.65399,2.42755c-1.72807,-1.0007 -2.89388,-3.70999 -2.60392,-6.05138c0.28996,-2.34139 1.9259,-3.42823 3.65398,-2.42755c1.72807,1.0007 2.8939,3.70999 2.60393,6.05138z" fill="#ffa600" stroke="none" stroke-linecap="butt"/><path d="M363.72861,244.70011c-0.2861,2.31016 -1.90141,3.38184 -3.60788,2.39365c-1.70648,-0.98818 -2.85793,-3.66204 -2.57182,-5.9722c0.2861,-2.31016 1.90141,-3.38184 3.60788,-2.39366c1.70648,0.98818 2.85793,3.66204 2.57182,5.9722z" fill="#ffa600" stroke="none" stroke-linecap="butt"/><path d="M373.49319,243.02444c-0.28224,2.27895 -1.64925,3.46728 -3.05331,2.65422c-1.40406,-0.81306 -2.31348,-3.31964 -2.03124,-5.59858c0.28224,-2.27895 1.64925,-3.46728 3.05331,-2.65422c1.40406,0.81306 2.31347,3.31962 2.03124,5.59858z" fill="#ffa600" stroke="none" stroke-linecap="butt"/><path d="M379.5374,230.77375c-0.26676,2.15408 -1.25351,3.45412 -2.20395,2.90375c-0.95044,-0.55039 -1.50466,-2.74276 -1.23789,-4.89685c0.26676,-2.15408 1.25351,-3.45412 2.20395,-2.90375c0.95044,0.55039 1.50466,2.74276 1.23789,4.89685z" fill="#ffa600" stroke="none" stroke-linecap="butt"/></g><g stroke-width="2"><path d="M286.85032,224.63279c3.40382,-0.45923 9.64833,6.94784 6.83083,13.36936c-3.06342,6.98199 -7.2654,2.70711 -8.60085,3.82088c-0.25717,0.21446 -1.60964,10.87819 -4.38477,13.30715c-5.12878,4.48904 -6.74933,-3.97991 -8.25653,-4.42263c-1.00366,-0.29481 -2.59193,6.35242 -4.89517,5.32596c-2.34855,-1.04664 -3.68294,-4.82575 -4.11434,-8.41666c-0.08089,-0.67334 0.30293,-5.08056 0.17014,-5.2487c-0.40436,-0.51198 -1.88294,1.88428 -2.32036,2.07631c-2.00268,0.87917 -2.94115,-3.89736 -3.2209,-6.08294c-1.70792,-13.34269 10.9967,-25.42691 18.18137,-23.86434c3.78973,0.82422 7.47532,7.10322 10.41924,10.43054z" fill="#feed00" stroke="#000000" stroke-linecap="round"/><path d="M270.52926,221.02201c2.9101,-2.46133 6.14526,-1.15773 7.22593,2.91168c0.48816,1.83822 0.49399,3.89182 0.08544,5.81802c-0.4959,2.338 -2.09012,1.72938 -3.68568,3.0789c-1.52886,1.2931 -2.71487,4.35263 -4.11601,3.75663c-1.26586,-0.53846 -2.30921,-1.80878 -2.82213,-3.74029c-1.08067,-4.06942 0.40236,-9.36361 3.31245,-11.82495z" fill="#ffa600" stroke="none" stroke-linecap="butt"/><path d="M289.1878,230.56378c1.68398,-1.07323 3.36463,-0.05688 3.75384,2.27007c0.3892,2.32695 -0.66042,5.08333 -2.3444,6.15657c-1.68398,1.07323 -3.36465,0.0569 -3.75385,-2.27005c-0.3892,-2.32695 0.66042,-5.08333 2.34441,-6.15657z" fill="#ffa600" stroke="none" stroke-linecap="butt"/><path d="M277.71835,245.45763c1.66294,-1.0598 3.32233,-0.05774 3.70635,2.23817c0.38401,2.29592 -0.65276,5.01629 -2.3157,6.07609c-1.66294,1.0598 -3.32233,0.05774 -3.70635,-2.23817c-0.38401,-2.29592 0.65276,-5.01629 2.3157,-6.07609z" fill="#ffa600" stroke="none" stroke-linecap="butt"/><path d="M267.36717,244.59467c1.36824,-0.872 2.78451,0.25718 3.16336,2.52207c0.37883,2.2649 -0.42326,4.80785 -1.7915,5.67985c-1.36824,0.872 -2.78451,-0.25718 -3.16336,-2.52207c-0.37883,-2.2649 0.42326,-4.80785 1.7915,-5.67985z" fill="#ffa600" stroke="none" stroke-linecap="butt"/><path d="M260.04501,233.34674c0.92619,-0.59029 1.9673,0.66666 2.32536,2.80746c0.35808,2.14079 -0.10248,4.35476 -1.02868,4.94503c-0.92619,0.59029 -1.9673,-0.66666 -2.32536,-2.80746c-0.35808,-2.14079 0.10248,-4.35474 1.02868,-4.94503z" fill="#ffa600" stroke="none" stroke-linecap="butt"/></g><path d="M288.08871,205.6192c-1.5232,6.38229 -1.63066,17.95537 -5.53302,23.21965c-3.11225,4.19841 -22.22154,-1.65907 -24.86208,-5.44206c-0.91845,-1.31583 3.40554,-18.31927 4.04797,-20.77162c4.92867,-18.81411 11.12816,-36.72357 17.39372,-55.19307c1.72011,-5.07054 5.98613,-8.59648 7.77696,-13.36502l1.17605,0.01969c13.08966,2.33931 24.94722,7.95231 38.76192,6.09836c5.52885,-0.74197 9.55871,-2.77006 13.50937,-6.70383c0.90327,-0.8994 3.52631,-3.07025 4.9959,-2.14224c3.3076,2.08866 5.43891,10.32348 7.2395,13.74108c7.42576,14.09442 12.59008,29.61088 16.216,45.13538c1.06152,4.54494 6.09791,11.45521 5.06725,16.05729c-1.20704,5.38971 -10.05609,12.14213 -14.10641,15.6564c-1.12718,0.978 -4.04445,4.91535 -5.51733,3.02924c-2.05195,-2.62764 -4.26283,-22.8192 -4.26283,-22.8192c0,0 1.07958,15.9997 2.14839,23.91691c0.52422,3.88307 2.5896,10.25154 0.80596,14.05221c-1.35858,2.89493 -10.31187,3.95653 -13.19175,4.33508c-11.6493,1.53124 -23.74306,-0.46684 -35.38234,1.10198c-3.78315,0.50991 -13.318,3.54043 -16.73217,1.79126c-1.81964,-0.93227 -0.99799,-6.44434 -1.03512,-8.19104c-0.16347,-7.68984 -1.54103,-16.49528 -0.19389,-24.06408" fill="#fffe8a" stroke="#000000" stroke-width="2" stroke-linecap="round"/><path d="M293.93353,125.61937c14.00193,-2.76922 27.60379,-5.60577 41.99968,-4.78226c3.07007,0.17563 13.79523,1.088 13.08246,5.82739c-0.96874,6.44129 -7.1867,9.9078 -12.98261,11.43065c-10.44863,2.74535 -35.22688,4.09488 -44.79474,-1.20889c-6.80943,-3.77467 -5.21172,-11.31686 2.83474,-11.48791z" fill="#fffe8a" stroke="#000000" stroke-width="2" stroke-linecap="round"/><g stroke-width="2" stroke-linecap="round"><path d="M297.30977,54.10627c-12.30392,5.32452 -13.28526,18.39383 -16.52596,29.69763c-0.35614,1.24226 -3.21795,12.18381 -4.51212,12.03904c-0.53732,-0.0601 -0.40235,-1.00498 -0.56234,-1.52142c-1.27354,-4.11081 -2.92963,-8.11506 -4.23322,-12.2321c-3.25332,-10.27459 -5.50074,-20.89574 -7.64362,-31.46907c-0.61537,-3.03625 -2.6032,-9.95473 -1.42305,-12.86445c0.75624,-1.86456 1.3535,-1.07907 2.62163,-0.56391c6.51617,2.64715 12.89381,5.58187 19.27904,8.52304c4.68907,2.15988 10.41083,4.13117 14.00153,7.96583z" fill="#feed00" stroke="#000000"/><path d="M291.04451,57.00685c-7.8164,4.23697 -7.70022,12.92783 -9.17982,20.58456c-0.1626,0.84147 -1.41309,8.2367 -2.27647,8.21679c-0.35847,-0.00827 -0.32456,-0.64034 -0.46047,-0.97214c-1.08174,-2.64106 -2.40993,-5.18936 -3.51189,-7.83279c-2.75008,-6.59698 -4.85594,-13.48177 -6.88995,-20.34103c-0.58409,-1.96971 -2.30191,-6.42373 -1.69251,-8.41488c0.3905,-1.27596 0.831,-0.79199 1.69884,-0.52584c4.45935,1.36754 8.844,2.93315 13.23403,4.50257c3.22388,1.15253 7.11892,2.12005 9.71519,4.44318z" fill="#ffa700" stroke="none"/></g><g stroke-width="2" stroke-linecap="round"><path d="M332.13819,54.14581c3.19383,-4.17102 8.69255,-6.69856 13.145,-9.31164c6.06301,-3.55829 12.11911,-7.10941 18.3415,-10.38807c1.21094,-0.63807 1.72759,-1.47879 2.66456,0.30185c1.46216,2.77872 0.16834,9.85991 -0.14369,12.94213c-1.08662,10.73342 -2.2725,21.52477 -4.49364,32.07076c-0.89002,4.22579 -2.14193,8.37422 -3.00262,12.59083c-0.10813,0.52975 0.11962,1.45662 -0.40911,1.56957c-1.27351,0.27206 -5.20347,-10.33279 -5.68074,-11.53373c-4.34281,-10.92785 -6.61202,-23.83603 -19.38222,-27.91748z" fill="#feed00" stroke="#000000"/><path d="M339.03124,56.46176c2.35377,-2.56852 6.13401,-3.91654 9.22809,-5.38229c4.21328,-1.99594 8.42159,-3.98755 12.72381,-5.78943c0.83727,-0.35068 1.22773,-0.87581 1.74252,0.35526c0.80335,1.92111 -0.46552,6.52319 -0.85193,8.54102c-1.34562,7.02683 -2.76021,14.08612 -4.84431,20.92275c-0.83511,2.73947 -1.90474,5.40662 -2.71996,8.14173c-0.10242,0.34361 -0.00618,0.96923 -0.36206,1.01293c-0.85719,0.10524 -2.83297,-7.1301 -3.07801,-7.95134c-2.22963,-7.47284 -2.97362,-16.13256 -11.17076,-19.57567z" fill="#ffa700" stroke="none"/></g><path d="M313.40444,51.48885c10.43604,-0.22185 22.91136,-1.49128 30.60792,6.58051c6.65774,6.98233 6.44372,13.38761 8.62678,21.82089c0.67048,2.5901 2.60735,4.47466 2.98459,7.36083c2.28723,17.49911 -5.94878,39.26729 -27.17012,41.99337c-17.77382,2.28321 -38.91439,-0.92217 -49.33876,-16.15874c-6.50922,-9.51408 -2.36026,-22.69776 0.57608,-32.20901c1.13774,-3.68533 -0.07946,-7.93879 1.25991,-11.81732c5.24336,-15.18362 18.35788,-16.99694 32.81286,-17.30422z" fill="#feed00" stroke="#000000" stroke-width="2" stroke-linecap="round"/><path d="M352.19974,91.80744c4.29547,0.29861 15.60534,4.47948 11.33701,10.59285c-1.11057,1.59062 -7.16036,2.52773 -7.50323,3.73704c-0.25714,0.9069 1.10417,1.55237 1.44332,2.43188c0.90751,2.35343 1.53777,5.86432 1.23404,8.38052c-0.83559,6.92254 -10.98179,3.57893 -14.02709,0.70796" fill="#feed00" stroke="#000000" stroke-width="2" stroke-linecap="round"/><path d="M286.36238,121.7105c-2.92054,2.99779 -12.91547,6.76954 -14.04451,-0.11122c-0.41039,-2.50101 0.07012,-6.03551 0.8768,-8.42537c0.30148,-0.89315 1.63412,-1.59588 1.33867,-2.49103c-0.39396,-1.19366 -6.47811,-1.87281 -7.65526,-3.41481c-4.52426,-5.92646 6.59771,-10.58418 10.87661,-11.06505" fill="#feed00" stroke="#000000" stroke-width="2" stroke-linecap="round"/><path d="M240.02186,76.08814c14.3195,-0.08955 25.21264,10.23601 36.94852,16.61525" fill="none" stroke="#000000" stroke-width="2" stroke-linecap="round"/><path d="M245.13671,90.21042c10.73935,-1.53212 21.78526,1.63024 32.2113,3.71566" fill="none" stroke="#000000" stroke-width="2" stroke-linecap="round"/><path d="M249.84723,98.02418c8.65271,-1.81013 17.78014,-3.53983 26.62956,-3.72795" fill="none" stroke="#000000" stroke-width="2" stroke-linecap="round"/><path d="M355.1424,89.63512c8.20097,-8.55722 17.38011,-18.98898 30.01741,-19.27419" fill="none" stroke="#000000" stroke-width="2" stroke-linecap="round"/><path d="M352.52506,90.56983c10.79342,-8.06143 21.07903,-7.89524 33.39036,-4.4311" fill="none" stroke="#000000" stroke-width="2" stroke-linecap="round"/><path d="M356.06963,91.90098c8.5265,-3.62266 19.43104,-0.39917 27.22611,3.75774" fill="none" stroke="#000000" stroke-width="2" stroke-linecap="round"/><path d="M311.08488,101.49023c3.71917,-0.07905 7.62993,-0.40345 11.33199,-0.02153c0.46987,0.04848 1.2697,-0.16964 1.38756,0.2878c0.15437,0.5992 -6.4301,4.51447 -7.19844,4.47372c-1.72778,-0.09162 -4.39942,-3.41311 -5.10317,-4.74886z" fill="#000000" stroke="#000000" stroke-width="2" stroke-linecap="round"/><path d="M311.65217,82.81443c0.15043,7.07653 -5.37737,12.93331 -12.34669,13.08146c-6.96932,0.14815 -12.741,-5.46842 -12.89143,-12.54495c-0.15043,-7.07653 5.37736,-12.9333 12.34667,-13.08145c6.96932,-0.14815 12.74102,5.46841 12.89145,12.54494z" fill="#ffffff" stroke="#000000" stroke-width="2" stroke-linecap="butt"/><path d="M346.70347,81.64671c0.15043,7.07653 -5.37736,12.9333 -12.34667,13.08145c-6.96932,0.14815 -12.741,-5.46841 -12.89143,-12.54494c-0.15043,-7.07653 5.37736,-12.9333 12.34667,-13.08145c6.96932,-0.14815 12.741,5.46841 12.89143,12.54494z" fill="#ffffff" stroke="#000000" stroke-width="2" stroke-linecap="butt"/><path d="M307.6755,82.89896c0.10745,5.05467 -3.74546,9.23604 -8.60571,9.33936c-4.86025,0.10332 -8.88738,-3.91054 -8.99483,-8.96521c-0.10745,-5.05467 3.74546,-9.23604 8.60571,-9.33936c4.86025,-0.10332 8.88738,3.91054 8.99483,8.96521z" fill="#ffffff" stroke="#000000" stroke-width="2" stroke-linecap="butt"/><path d="M342.86762,81.72825c0.10745,5.05467 -3.74546,9.23604 -8.60571,9.33936c-4.86025,0.10332 -8.88738,-3.91054 -8.99483,-8.96521c-0.10745,-5.05467 3.74546,-9.23604 8.60571,-9.33936c4.86025,-0.10332 8.88738,3.91054 8.99483,8.96521z" fill="#ffffff" stroke="#000000" stroke-width="2" stroke-linecap="butt"/><path d="M295.80607,57.92073c0.52206,-3.70853 4.21146,-4.94949 7.81304,-6.29361c0.39889,-0.14886 3.77744,-1.35915 3.68267,-1.85369c-0.17242,-0.89966 -5.43538,-0.13538 -4.78725,-2.12268c0.87051,-2.66914 11.44362,-2.27345 13.71309,-2.32191c0.32687,-0.00698 4.19898,0.0521 4.25023,-0.09488c0.21965,-0.62982 -6.31619,-2.55868 -5.89011,-3.39718c0.23287,-0.45831 5.0027,1.00624 5.47943,1.17605c6.2457,2.22463 7.75869,5.99691 11.47891,10.37951" fill="#feed00" stroke="#000000" stroke-width="2" stroke-linecap="round"/><path d="M282.60956,74.96659c-2.39556,-1.11163 -2.45351,-3.17863 -4.29677,-4.82823c-0.94109,-0.84222 -5.86187,-1.34202 -5.80449,-2.95799c0.07548,-2.12549 6.00885,-3.07231 7.31272,-3.61381c0.91793,-0.38122 -0.63808,-8.60669 7.75715,-3.358" fill="#feed00" stroke="#000000" stroke-width="2" stroke-linecap="round"/><path d="M302.57918,176.28115c1.25073,0.48753 4.68209,0.15848 5.19596,1.68577c1.72351,5.12234 -2.18158,9.83209 -7.05006,8.90428c-3.24188,-0.61781 2.22563,-11.30529 2.22563,-11.30529c0,0 -0.18252,-23.74828 2.08515,-35.30145" fill="#ffaf36" stroke="#000000" stroke-width="2" stroke-linecap="round"/><path d="M329.32425,176.31724c9.35942,-10.90414 8.72511,17.79404 -1.18441,9.94084c-5.36529,-4.25193 1.08801,-8.41901 1.53922,-10.94737c2.12982,-11.93438 -3.13415,-24.55859 0.20432,-36.68366" fill="#ffaf36" stroke="#000000" stroke-width="2" stroke-linecap="round"/><path d="M291.24585,208.16773c3.48066,-2.90796 7.90283,-2.47747 12.09511,-3.2314c13.52153,-2.43169 28.69149,-1.85649 42.26609,0.04962" fill="none" stroke="#000000" stroke-width="2" stroke-linecap="round"/><path d="M348.40699,235.79163c-0.29435,-8.89446 -2.11382,-17.87647 -0.81809,-26.81893" fill="none" stroke="#000000" stroke-width="2" stroke-linecap="round"/><path d="M291.83673,212.4109c0.18099,8.51379 0.81394,16.95425 0.79294,25.45422" fill="none" stroke="#000000" stroke-width="2" stroke-linecap="round"/><path d="M297.75524,135.36005c-2.64007,-0.86219 -4.47345,-3.39767 -6.90723,-4.78846" fill="none" stroke="#fcec41" stroke-width="2" stroke-linecap="round"/><path d="M340.51561,132.11802c1.6061,-1.11901 3.11111,-2.00918 4.9156,-2.77588" fill="none" stroke="#fcec41" stroke-width="2" stroke-linecap="round"/><path d="M312.75572,154.73786l-0.2037,-9.58225" fill="none" stroke="#fcec41" stroke-width="2" stroke-linecap="round"/><path d="M316.12727,148.35308l0.10433,4.90799" fill="none" stroke="#fcec41" stroke-width="2" stroke-linecap="round"/><path d="M319.62801,148.04484l0.78062,3.72451" fill="none" stroke="#fcec41" stroke-width="2" stroke-linecap="round"/><path d="M274.17099,227.40518l12.2191,-37.56003l-6.47458,36.93724z" fill="#fce541" stroke="#fcec41" stroke-width="2" stroke-linecap="round"/><path d="M274.17099,227.40518l12.2191,-37.56003l-6.47458,36.93724z" fill="#fce541" stroke="#fcec41" stroke-width="2" stroke-linecap="round"/><path d="M357.14949,221.12311l-7.89457,-29.86064l13.54626,24.87095z" fill="#fce541" stroke="#fcec41" stroke-width="2" stroke-linecap="round"/><path d="M320.00992,254.88378l0.93362,76.74767" fill="none" stroke="#000000" stroke-width="2" stroke-linecap="round"/><path d="M323.53272,339.95104c0.18427,8.6683 -8.48921,15.88292 -19.37274,16.11428c-10.88354,0.23136 -19.85577,-6.60813 -20.04004,-15.27645c-0.18427,-8.6683 8.48921,-15.88292 19.37274,-16.11428c10.88354,-0.23136 19.85577,6.60813 20.04004,15.27645z" fill="#000000" stroke="#000000" stroke-width="2" stroke-linecap="butt"/><path d="M361.7221,333.87021c0.18427,8.66831 -8.48921,15.88292 -19.37275,16.11428c-10.88353,0.23136 -19.85577,-6.60813 -20.04004,-15.27645c-0.18427,-8.66831 8.48921,-15.88292 19.37274,-16.11428c10.88354,-0.23136 19.85578,6.60813 20.04005,15.27645z" fill="#000000" stroke="#000000" stroke-width="2" stroke-linecap="butt"/><path d="M306.14486,124.16726l4.79684,-6.77961l14.41598,-0.54174l3.67455,6.83481z" fill="none" stroke="#000000" stroke-width="2" stroke-linecap="butt"/><path d="M338.86732,51.58733l-22.92781,28.25086l-26.84459,-34.25132" fill="none" stroke="#000000" stroke-width="2" stroke-linecap="round"/><path d="M189.9173,101.14383c2.72236,0.38891 2.33345,3.11127 2.33345,3.11127l-0.29234,2.04547c-1.38636,9.0312 -1.547,18.29328 -2.73891,27.38047c-0.23975,1.82787 -0.17702,3.72165 -0.71933,5.48361c-0.00303,0.00985 -0.00608,0.0197 -0.00913,0.02954l0.00465,0.00072l-0.57054,3.70851c-0.18331,1.34092 -1.33326,2.37405 -2.72452,2.37405c-1.07112,0 -1.99921,-0.61238 -2.45327,-1.50612l-2.28134,-4.27752l0.11118,-0.0593l-0.27655,-0.31565c-1.31739,-6.49457 -2.24818,-13.14014 -3.82453,-19.57391c-0.7105,-2.89987 -2.21337,-5.88393 -3.3573,-8.86241c-1.90284,13.73958 -1.90799,27.61633 -1.32754,41.54c0,0 0.11448,2.74762 -2.63313,2.8621c-2.74762,0.11448 -2.8621,-2.63313 -2.8621,-2.63313c-0.70987,-17.04561 -0.52393,-34.00038 2.74828,-50.7526l0.04479,-0.0695l-0.02649,-0.00676l0.76421,-2.99616c0.28241,-1.21848 1.37467,-2.1266 2.67904,-2.1266c1.22771,0 2.26752,0.80452 2.62098,1.91512l1.76957,5.14018c4.01895,7.82511 5.75486,17.13497 7.26756,26.05365c0.86156,-8.04198 1.1486,-16.17006 2.35734,-24.13782l0.2847,-1.99376c0,0 0.38891,-2.72236 3.11127,-2.33345z" fill="#ffa600" stroke="#000000" stroke-width="1" stroke-linecap="butt"/><path d="M206.76581,110.52454c-0.12508,0.19418 -0.2393,0.3952 -0.33943,0.6051c-1.49549,3.1349 -1.55639,6.77095 -2.42529,10.13386c-0.39114,1.51386 -1.32858,2.96371 -1.23721,4.52461c0.09137,1.5609 1.25177,2.86955 1.75664,4.34937c0.21657,0.63477 -0.11443,1.54159 0.4,1.97193c1.52554,1.27617 4.79446,0.00611 5.76796,-1.07055c1.0288,-1.13781 1.25286,-2.80096 1.92126,-4.18164c1.12883,-2.33176 1.46443,-5.01089 1.64905,-7.59493c0.06423,-0.89893 0.53846,-1.8253 0.28113,-2.689c-0.43458,-1.4586 -1.51586,-2.63967 -2.26372,-3.96522c-0.27864,-0.49387 -0.3041,-1.24822 -0.81567,-1.49286c-0.82358,-0.39384 -1.82077,-0.1355 -2.73115,-0.20325l-0.44739,0.03198c0,0 -0.785,0 -1.51618,-0.41941zM209.91435,105.53775c1.49663,0.23551 3.11596,0.14296 4.42164,0.88899c1.20715,0.68973 1.86659,2.08011 2.60073,3.26078c1.13283,1.82187 2.39106,3.64276 2.9754,5.707c0.38361,1.35511 -0.08129,2.81599 -0.16474,4.22188c-0.19653,3.31114 -0.70748,6.74758 -2.21829,9.7005c-0.97205,1.89991 -1.4228,4.21727 -2.99809,5.65706c-3.80093,3.47399 -8.89944,4.28228 -13.27416,1.23759c-1.2469,-0.86781 -1.33076,-2.73474 -1.88805,-4.14799c-0.77184,-1.95734 -1.97257,-3.85364 -2.09552,-5.95407c-0.03013,-0.51472 2.47005,-10.59021 2.69845,-11.49914c0.49396,-1.96571 0.63466,-4.06202 1.51037,-5.88989c0.82343,-1.71873 2.3223,-3.02244 3.48345,-4.53366c0,0 1.69901,-2.16238 3.86138,-0.46337c0.74526,0.58556 1.03186,1.22617 1.08742,1.81432z" fill="#ffa600" stroke="#000000" stroke-width="1" stroke-linecap="butt"/><path d="M242.15985,103.13028c-0.41816,2.71802 -3.13618,2.29986 -3.13618,2.29986l-3.63756,-0.56202c-1.38711,-0.09694 -2.77246,-0.14406 -4.15729,-0.1597c0.02054,8.85601 0.51814,17.32453 -0.94225,26.09678l-0.53839,3.23034c0,0 -0.4521,2.71258 -3.16468,2.26049c-2.71258,-0.4521 -2.26049,-3.16468 -2.26049,-3.16468l0.53839,-3.23034c1.40829,-8.43992 0.89299,-16.6071 0.86772,-25.13179c-1.46622,0.03761 -2.93375,0.08326 -4.4041,0.11522c0,0 -2.74935,0.05977 -2.80912,-2.68958c-0.05977,-2.74935 2.68958,-2.80912 2.68958,-2.80912c4.94931,-0.10759 9.85018,-0.32752 14.79061,0.01632l3.86389,0.59205c0,0 2.71802,0.41816 2.29986,3.13618z" fill="#ffa600" stroke="#000000" stroke-width="1" stroke-linecap="butt"/></g></g></svg>