<svg version="1.1" xmlns="http://www.w3.org/2000/svg" xmlns:xlink="http://www.w3.org/1999/xlink" width="180.86374" height="224.22762" viewBox="0,0,180.86374,224.22762"><g transform="translate(-157.59866,-104.19752)"><g stroke-miterlimit="10"><g stroke="none" stroke-width="0.5" stroke-linecap="butt"><path d="M241.14018,208.3412c-5.00976,0.83576 -9.90543,4.08527 -14.5578,6.13126c-1.82797,0.80389 -4.57254,0.94509 -5.93741,2.60398c-6.73757,2.23012 -8.27531,10.35161 -9.0735,18.01138c-0.13417,1.2876 -0.62079,2.4923 -0.80719,3.77069c-0.45552,3.12436 -0.17696,6.6854 -0.26535,9.85639c-0.19489,6.99135 0.3276,13.59957 1.04319,20.49654c0.46551,4.48669 -0.25981,9.65792 -0.38639,14.19869c-0.187,6.70831 -0.14007,13.34707 -0.32697,20.05193c-0.11302,4.05454 -0.65448,8.48845 -0.12086,12.48796c-0.05088,2.04974 -0.03982,3.99418 0.06419,6.02009c0.0248,0.48318 -0.38732,2.82189 0.06397,3.24779c1.00981,0.953 3.00938,0.62613 4.19455,0.65917c4.03574,0.1125 6.28809,-0.3905 7.31516,-5.87702c0.1682,-6.75063 0.42218,-13.42639 -0.35862,-20.02242c-0.24704,-2.08686 -0.28753,-4.41066 -0.0661,-6.52346c0.08011,-0.76432 -0.10715,-1.74151 0.34841,-2.27328c0.67545,-0.78842 3.48857,-0.25486 4.40641,-0.22927c2.25054,0.12478 4.7904,-0.48504 7.14116,-0.65767c6.5108,-0.47809 13.25519,0.36648 19.77314,0.54817c3.26375,0.09098 6.46952,0.46692 9.7282,0.55776c0.86223,0.02404 3.46678,-0.29107 4.0861,0.38639c0.43136,0.47183 0.67861,3.6734 0.69778,4.30295c0.12442,4.0893 -0.229,8.30301 -0.34318,12.39885c-0.11365,4.07688 -0.31442,8.15606 -0.11287,12.2016c0.0305,0.61231 -0.00471,3.05443 0.18933,3.43301c0.19035,0.3714 3.29585,0.1658 3.38173,0.1682c3.37958,0.09421 7.00023,0.69173 10.28868,-0.57262c4.8046,-10.28922 3.34306,-22.63604 3.62004,-33.94735c0.34718,-12.45463 -0.93237,-24.3796 -1.99172,-36.65333c0.09276,-2.14076 -0.66189,-4.10283 -0.75116,-6.31189c-0.37522,-9.28544 -2.42622,-17.62371 -3.65031,-26.61767c-0.46695,-3.83599 -3.27302,-4.78614 -5.88809,-5.83905c-4.96518,-1.99914 -10.72145,-4.52791 -15.98683,-4.71011c-4.28214,-1.90451 -9.86434,-1.11921 -14.42497,-1.24635l-1.15908,-0.03231c0,0 -0.05292,-0.00148 -0.13365,-0.01899zM244.50181,206.00062c4.22089,-0.04785 8.96596,-0.40025 12.7337,1.27547c2.36173,0.04839 4.43944,0.69063 6.60931,1.66672c5.41194,2.43446 15.53679,1.89136 16.80817,10.82721c1.18357,9.08248 3.31214,17.508 3.67384,26.89153c0.087,2.25701 0.78673,4.10984 0.7521,6.33979c1.09359,12.31996 2.3404,24.32082 1.99187,36.82376c-0.04437,1.39544 0.23257,2.77353 0.34069,4.16141c0.356,4.5698 -0.03662,10.39939 -0.89327,14.7275c-0.24631,1.24454 0.02561,2.56074 -0.08411,3.8328c-0.41762,4.84108 -1.47903,9.00821 -3.71817,13.03564c-3.70154,1.85068 -7.67013,1.21947 -11.56564,1.11087c-1.46021,-0.0407 -3.82572,0.35665 -4.93163,-1.20989c-0.36197,-0.51274 -0.47279,-3.86446 -0.51441,-4.61101c-0.22983,-4.1215 -0.00576,-8.28586 0.11,-12.43859c0.09579,-3.43637 0.18928,-6.8728 0.28737,-10.3091c0.01313,-0.45989 0.2187,-4.30232 0.01806,-4.51494c-0.01728,-0.0183 -2.63048,0.19916 -2.86829,0.19253c-3.25941,-0.09086 -6.46442,-0.46678 -9.7282,-0.55776c-6.46711,-0.18028 -13.17654,-1.04346 -19.63512,-0.55037c-2.44878,0.18696 -4.90781,0.67875 -7.27918,0.65987c-0.84998,-0.02369 -1.71415,0.11107 -2.54994,-0.07108c-0.18054,-0.03935 -0.32736,-0.52174 -0.46165,-0.36498c-0.40358,0.47109 0.24766,1.34061 0.22866,2.02218c-0.0446,1.59998 -0.10314,3.07005 0.08621,4.65763c0.81121,6.80143 0.57437,13.73164 0.36236,20.69291c-0.54987,2.84937 -1.87371,6.784 -4.34926,7.77546c-1.54929,0.62048 -3.36796,0.25778 -4.96163,0.21336c-1.67789,-0.04677 -4.17266,0.24405 -5.49371,-1.33042c-1.59492,-1.90089 -0.78386,-8.2785 -0.70397,-10.81635c-0.54365,-4.07467 0.00284,-8.59434 0.11799,-12.72495c0.18689,-6.70455 0.13998,-13.34343 0.32698,-20.05192c0.12282,-4.40597 0.87388,-9.52154 0.3959,-13.86494c-0.76914,-6.98929 -1.25042,-13.73764 -1.0527,-20.83028c0.3065,-10.99536 0.34842,-30.30562 11.1623,-33.68237c1.54351,-1.73864 4.3097,-1.91564 6.27655,-2.78727c5.70226,-2.52699 11.71102,-6.62129 17.90577,-6.44861c0,0 0.33342,0.00929 0.60307,0.25817z" fill="#000000"/><path d="M241.26847,208.31266l1.15998,0.03215c4.56063,0.12713 10.15454,-0.6578 14.43669,1.24671c5.26537,0.18221 11.03396,2.71647 15.99912,4.71561c2.61507,1.05291 5.42606,2.00719 5.89301,5.84317c1.22408,8.99394 3.28572,17.34873 3.66094,26.63417c0.08927,2.20906 0.84585,4.17711 0.75309,6.31787c1.05934,12.27373 2.33674,24.23476 1.98955,36.6894c-0.27697,11.3113 1.17266,23.67577 -3.63193,33.965c-3.28847,1.26434 -6.91459,0.67103 -10.29418,0.57682c-0.08588,-0.00239 -3.19343,0.20443 -3.38378,-0.16696c-0.19405,-0.37857 -0.19038,-2.90811 -0.22088,-3.52042c-0.20154,-4.04555 -0.00451,-8.12226 0.10913,-12.19915c0.11417,-4.09584 0.46204,-8.30452 0.33761,-12.39381c-0.01915,-0.62956 -0.21375,-3.76118 -0.64511,-4.23303c-0.61932,-0.67744 -3.22703,-0.35889 -4.08926,-0.38293c-3.25866,-0.09084 -6.47742,-0.45827 -9.74118,-0.54925c-6.51797,-0.18169 -13.29733,-1.03386 -19.80813,-0.55577c-2.35075,0.17261 -4.89601,0.77624 -7.14654,0.65148c-0.91785,-0.02559 -3.7331,-0.56243 -4.40855,0.22599c-0.45556,0.53177 -0.20638,1.44981 -0.28649,2.21415c-0.22144,2.11279 -0.18389,4.43256 0.06314,6.51942c0.7808,6.59603 0.51949,13.26478 0.35129,20.01542c-1.02709,5.48652 -3.32206,6.07052 -7.3578,5.95802c-1.18517,-0.03304 -3.18673,0.29203 -4.19652,-0.66098c-0.45129,-0.4259 -0.04004,-2.76551 -0.06485,-3.24869c-0.104,-2.0259 -0.11679,-3.97227 -0.06591,-6.02201c-0.53362,-3.99951 0.00398,-8.43866 0.11701,-12.49321c0.1869,-6.70486 0.13391,-13.35754 0.32091,-20.06585c0.12658,-4.54078 0.84988,-9.72612 0.38437,-14.21282c-0.71559,-6.89697 -1.23506,-13.525 -1.04017,-20.51634c0.08839,-3.17099 -0.18711,-6.73929 0.26841,-9.86365c0.18639,-1.27841 0.67448,-2.48576 0.80864,-3.77336c0.79819,-7.65977 2.34578,-15.79298 9.08336,-18.02313c1.36486,-1.65888 4.1137,-1.80318 5.94167,-2.60707c4.65238,-2.04598 9.55981,-5.30015 14.56957,-6.13592c0.08073,0.01751 0.13375,0.01896 0.13375,0.01896z" fill="#ffffff"/></g><path d="M250.39351,229.80691c0.13756,0.70721 0.15321,1.53561 0.1122,2.39822c0.34343,-1.20819 1.59683,-1.82964 2.47664,-2.45528c0,0 1.17434,-0.77088 1.78678,0.47396c0.09639,0.1959 0.1485,0.38008 0.16791,0.55134c0.06972,-0.11402 0.15128,-0.20916 0.23773,-0.28849c-0.42421,-0.94178 -0.36977,-2.15664 0.4361,-3.23007c0.50854,-0.67741 1.52984,-0.28805 2.29664,-0.42818c0.54366,-0.14676 0.99588,-0.18509 1.36564,-0.13861c-0.00557,-0.04995 -0.00881,-0.1009 -0.00962,-0.15274c-0.01248,-0.80531 0.57029,-1.51761 1.30165,-1.59093l0.24216,-0.02428c-0.10194,-0.43978 -0.1138,-0.89465 0.00404,-1.32046c0.19906,-0.71928 1.02717,-0.89096 1.74755,-1.15642c0.49891,-0.53295 1.06137,-0.93048 1.61894,-1.07043c0.79646,-1.10396 2.06746,-2.02867 3.12232,-2.47718c-0.26731,-1.15999 0.53933,-2.23007 1.79667,-3.24233c0.37866,-0.30486 1.03166,-0.47208 1.69215,-0.57446c0.31766,-0.13881 0.65368,-0.18535 0.9883,-0.11639c0.02317,-0.00213 0.04616,-0.00423 0.06893,-0.00628c0.21391,-0.44307 0.66102,-0.79537 1.20804,-1.06636l0.14211,-0.11606c0.61545,-0.33625 1.1977,-1.13157 1.84637,-1.00878c0.39684,0.07512 0.84392,0.2018 1.25063,0.39579c0.09424,-0.00012 0.18214,0.00249 0.26252,0.00773c0,0 1.30994,0.10875 1.11452,1.5689c-0.03335,0.24918 -0.09915,0.45268 -0.18537,0.61882c-0.42385,1.40699 -2.33732,2.9125 -3.68057,2.72704c-0.03378,1.58328 -1.44206,2.6832 -2.88361,2.98923c0.56886,2.42717 -2.29238,5.03394 -4.62728,5.11169c0.05033,0.09711 0.08755,0.20428 0.1089,0.32367c0.41378,2.31457 -3.73547,4.88117 -5.63969,4.06457c-0.12618,0.20676 -0.25108,0.331 -0.25108,0.331l-1.31212,0.983c-0.04653,0.00365 -0.09363,0.00927 -0.1412,0.01646c-0.16724,0.3981 -0.48289,0.71589 -0.86646,0.85499c-0.07698,0.13962 -0.1827,0.28138 -0.32442,0.42235c-0.81156,0.80729 -1.51228,0.30385 -1.76474,0.06445c-0.01815,0.54073 -0.21717,1.11451 -0.65983,1.68073c0.38439,0.21806 0.64544,0.65428 0.6536,1.18126c0.01248,0.80531 -0.57029,1.51762 -1.30165,1.59094l-1.33766,0.13411c-0.99574,0.0964 -1.99516,0.02693 -2.99448,-0.00556c0.08784,1.04945 0.13431,2.1083 0.15485,3.17119c0.96086,0.1578 1.83741,0.43006 2.91017,0.67211c1.21729,0.27467 2.54317,0.59765 3.41599,1.53398c1.91886,2.05849 1.70283,6.76092 0.12344,9.36375c-1.18155,1.94717 -3.76412,3.61649 -5.98955,4.54978c-0.03126,1.38673 -0.12834,2.77428 -0.31538,4.15798l0.02351,1.51602c0.01248,0.80531 -0.57029,1.51761 -1.30165,1.59093c-0.60628,0.0608 -1.12437,-0.33661 -1.29094,-0.93309l-0.50409,-1.66132l0.04371,-0.01929c-0.03158,-0.06179 -0.0619,-0.12452 -0.09085,-0.1883c-0.34209,-0.75398 -0.26838,-1.65696 -0.17623,-2.56102l-0.01327,-0.85581l0.02517,-0.00252c-0.009,-0.01345 -0.01741,-0.02778 -0.02522,-0.04304c-0.01054,-0.02058 -0.02034,-0.04141 -0.02941,-0.06248c-0.91292,0.09681 -1.83301,0.11454 -2.70202,0.08822c-0.05911,-0.00179 -0.11991,-0.00006 -0.18177,0.00378c-0.45907,0.0597 -0.92591,0.11048 -1.40113,0.15466l-0.14291,-0.0987l-0.01698,0.08209l-1.43851,-0.2507c-0.59199,-0.08824 -1.04121,-0.62483 -1.05198,-1.31876c-0.01248,-0.80531 0.57029,-1.5176 1.30165,-1.59093c0.03909,-0.00391 0.07785,-0.00593 0.11615,-0.00612l1.56846,-0.02437l-0.00095,0.01756c0.01972,-0.0058 0.0395,-0.01148 0.05928,-0.01704c0.60422,-0.16994 1.21466,-0.06884 1.8273,0.0183c0.66658,-0.11135 1.3106,-0.24642 1.93643,-0.41801c-0.75403,-0.27014 -0.76947,-1.26711 -0.76947,-1.26711l-0.01038,-0.66952c-0.03455,-2.22814 0.07855,-4.46263 0.24859,-6.70013c-1.43367,0.11697 -2.82585,0.04505 -3.84139,-1.25996c-0.50033,-0.64294 -0.91563,-1.46557 -0.95126,-2.34027c-0.01958,-0.48084 0.17162,-0.94743 0.39563,-1.4025c0.04261,-1.67167 1.10942,-3.4812 2.39152,-4.61583c-0.25019,-0.19395 -0.47488,-0.42891 -0.66235,-0.69534c-0.12171,0.19523 -0.26654,0.3696 -0.44476,0.51378c-1.39675,1.13002 -2.92393,0.25567 -3.77693,-1.11843c-0.83831,-0.53222 -1.57875,-1.29056 -1.66838,-1.8851c-0.05903,-0.39159 -0.08134,-0.73376 -0.07169,-1.03501c-0.2375,0.02793 -0.48114,0.06709 -0.7115,0.082c-0.63114,0.20986 -1.35735,0.03949 -1.98832,-0.10564c-2.13075,-0.4901 -2.6935,-1.99384 -2.24717,-3.74431c-1.05461,1.08983 -2.84196,1.59328 -3.90779,0.79528c-1.06732,-0.79909 -1.37621,-1.84939 -1.20982,-2.87833c-0.20716,0.08171 -0.36647,0.09768 -0.36647,0.09768l-0.10543,-0.02865c-1.13358,0.57967 -3.57961,-0.72224 -4.00763,-1.66007c-0.27404,-0.60046 -0.42465,-1.07936 -0.4759,-1.47967c-0.32338,0.03611 -0.65129,0.04245 -0.97479,0.02c-0.42579,0.02449 -0.84913,-0.04833 -1.24248,-0.23894c-1.83076,-0.60061 -3.04205,-2.2541 -1.5289,-4.73797c0.30001,-0.49246 0.74729,-0.88949 1.23723,-1.17408c0.40622,-0.45702 0.78353,-0.97982 1.31198,-1.15872c0.146,-0.04943 0.30261,-0.09058 0.46613,-0.12226c0.40857,-0.34877 0.79297,-0.6424 1.10336,-0.86276c0,0 1.15524,-0.80821 1.80296,0.4127c0.27199,0.5127 0.22607,0.9526 0.08125,1.29047c0.18696,0.24638 0.321,0.54869 0.38062,0.91411c0.62429,0.5182 0.98488,1.31062 0.80948,2.52279c0.10597,0.08176 0.20999,0.19086 0.30923,0.33354c0.09811,0.14105 0.16679,0.27935 0.21192,0.41332c0.0218,0.00547 0.04377,0.01111 0.0659,0.01692c0.41002,0.10753 0.64229,0.43487 0.78684,0.87069l0.27045,-0.17753l0.30694,0.62392l0.0622,0.04641l-0.02234,0.03461l0.28196,0.57313l-0.0654,0.04291l0.29099,0.1041c-0.12089,0.30878 -0.20628,0.64761 -0.2863,0.99099c0.07279,0.10574 0.13325,0.23405 0.17415,0.38974c1.3417,-1.75511 3.82493,-2.7056 5.20555,-0.69135c0.01729,0.02521 0.03364,0.05153 0.04905,0.07883c0.25845,-0.60831 0.59938,-1.19506 0.96739,-1.73347c0,0 0.86288,-1.17804 1.86765,-0.30854c1.00476,0.86951 0.14187,2.04755 0.14187,2.04755c-0.06125,0.074 -0.12792,0.14416 -0.19595,0.21337c0.58227,-0.09645 1.14841,-0.04707 1.57514,0.28879c0.73436,0.57799 0.7759,1.72022 0.45494,2.80481c0.23168,0.03095 0.47263,0.14338 0.67867,0.40822c0.18165,0.12204 0.34914,0.32318 0.47439,0.64182c0.18118,0.46093 0.14591,0.84199 0.02452,1.14209c0.04008,0.09949 0.06566,0.20158 0.08072,0.30184c0.22659,-0.11089 0.46067,-0.22617 0.69669,-0.35573c0,0 0.99445,-0.46736 1.52145,0.3847c0.71087,0.31086 1.15857,1.05425 1.32956,1.92545l0.37976,0.32865c0.70593,-0.87637 2.26984,-1.67528 3.46979,-1.43391c0.0138,-0.2977 0.0375,-0.51411 0.07559,-0.593c-0.00064,-0.07992 -0.00156,-0.15992 -0.0028,-0.23994l0.02011,-0.04016l0.00142,-0.02619l-0.01848,0.00001l0.09778,-1.47021c0.04258,-0.75595 0.60371,-1.40356 1.29925,-1.4733c0.73135,-0.07332 1.33437,0.52007 1.34684,1.32538c0.00068,0.04307 -0.00035,0.08583 -0.00303,0.12827l-0.09283,1.71937c0.00002,0.00199 0.00003,0.00402 0.00004,0.00601zM250.54909,247.57964c-0.00049,0.02511 -0.00099,0.05021 -0.0015,0.07529c0.18729,1.77791 0.35693,3.5757 0.45461,5.38283c0.77755,-0.51769 1.53806,-1.15335 2.29264,-1.93966c1.24085,-1.29305 2.33195,-2.06272 1.68899,-3.87749c-1.11134,-1.47165 -2.34277,-1.05126 -3.98423,-1.10347c-0.14106,-0.00448 -0.2803,-0.02189 -0.41864,-0.0455c-0.01085,0.50386 -0.02203,1.00674 -0.03188,1.50803zM250.45977,233.37288c-0.00915,-0.05407 -0.01681,-0.10725 -0.02304,-0.15958c-0.00534,0.06233 -0.01083,0.12465 -0.01647,0.18695c0.01244,-0.00887 0.02562,-0.01801 0.0395,-0.02737zM246.95796,240.92441l0.24718,0.09693c0.05973,-0.65444 0.11851,-1.30894 0.17409,-1.96338c-0.96083,0.59192 -1.67823,1.34357 -0.42126,1.86647zM267.46632,222.81402c0.0549,-0.03185 0.10891,-0.06559 0.16186,-0.10143c0.28232,-0.19108 1.05925,-0.86781 0.76202,-0.71041c-0.53208,0.28177 -1.09303,0.48712 -1.65516,0.66279l0.80444,-0.09043c0,0 -0.02029,0.0982 -0.07315,0.23946zM235.78629,229.37644c-0.07704,-0.05125 -0.15286,-0.1067 -0.22725,-0.16524c-0.01476,0.05971 -0.01497,0.10101 0.00322,0.11862c0.05934,0.05746 0.13828,0.06028 0.22404,0.04662z" fill="#ffe04b" stroke="#000000" stroke-width="1.5" stroke-linecap="butt"/><g stroke="none" stroke-width="0.5" stroke-linecap="butt"><path d="M197.16749,161.48325c-0.83239,-2.96296 -0.20607,-6.47315 -0.42582,-9.46914c-0.15927,-2.1713 -0.58644,-4.23106 -0.82593,-6.36783c-0.75537,-6.73935 0.38445,-14.24688 0.57368,-21.03536c0.09737,-3.49283 0.19473,-6.98566 0.2921,-10.47847c0.03097,-1.11091 -0.26427,-3.62167 0.26919,-4.55388c1.36084,-2.37802 6.21985,-2.30632 8.45083,-2.4169c3.14322,-0.15579 7.41812,-2.06692 10.66553,-0.6245c0.94309,0.41891 1.52011,1.40289 2.35455,2.01005c2.24649,3.71031 1.78319,9.06598 1.66358,13.35662c-0.20237,7.25961 -0.06963,14.57857 -0.27322,21.88189c-0.12518,4.49066 -0.5859,8.93741 -0.71171,13.45064c-0.01435,0.51492 -0.51051,3.73429 -0.21798,4.11566c0.42929,0.55963 3.70773,-0.67483 4.29925,-0.77458c3.67841,-0.62032 8.08765,-0.4757 11.80932,-0.39591c3.11333,0.11018 6.2062,-1.19137 9.35037,-1.41731c4.55834,-0.32756 9.21029,0.69333 13.76802,0.38697c0.59086,-0.0397 3.28502,-0.9027 3.34732,-0.91047c2.82084,-0.35159 6.10157,-0.18219 8.95124,-0.10275c0.31205,0.09357 0.62602,0.38044 0.93615,0.28069c0.7687,-0.2472 -0.08545,-1.61469 -0.05807,-2.42169c0.08481,-2.50003 0.79837,-4.47827 0.8713,-7.09472c0.10691,-3.83509 -0.81784,-7.49494 -1.02584,-11.31303c-0.1472,-2.70186 0.3806,-5.59722 -0.08009,-8.26354c-0.40075,-2.31934 -0.90743,-4.5546 -0.84635,-7.03503c0.12194,-4.3745 0.24389,-8.74901 0.36583,-13.12351c0.02021,-0.72484 0.04414,-3.68717 0.36883,-4.09717c1.04491,-1.31952 3.87845,-0.56107 5.24439,-0.64882c4.71763,-0.30301 9.62828,-0.40574 14.31729,0.39803c1.39113,0.04162 1.87429,-0.03432 3.32207,0.49141c4.68961,1.70289 4.01273,6.21206 4.22772,10.27282c0.36285,6.85367 -0.04401,13.74297 -0.23545,20.61061c-0.15899,5.70355 -0.59154,11.54338 -1.15679,17.22783c-0.71234,7.16363 -0.06654,14.57632 -0.26781,21.79682c-0.32205,11.55317 -0.64411,23.10636 -0.96616,34.65954c-0.08029,2.88014 0.53519,5.6149 -2.04604,7.64369c-3.17082,2.4922 -7.44102,1.50628 -10.90699,2.58311c-5.99384,1.86221 -12.45756,2.72722 -18.91381,2.54725c-3.2236,-0.10044 -6.47052,0.21371 -9.55887,0.72212c-2.21046,0.3639 -4.61026,-0.36533 -6.83925,-0.1748c-6.14304,0.52508 -12.45068,-0.00445 -18.63543,-0.17686c-6.19084,-0.17257 -12.31063,-0.00642 -18.51689,-0.17942c-2.64426,-0.07371 -4.69897,-0.27303 -7.23973,-0.89086c-0.55895,-0.13591 -1.21995,0.11521 -1.71687,-0.17459c-2.66264,-1.55294 -2.46928,-6.29576 -2.40815,-8.87256c0.11854,-3.51313 -0.22908,-7.20465 -1.00399,-10.45601c-0.58335,-2.44762 0.3369,-5.47277 0.17644,-7.97052c-0.32131,-5.00168 -0.73994,-9.90789 -0.59932,-14.95268c0.12891,-4.62461 1.24771,-10.37961 0.43745,-14.91474c-0.18625,-1.04247 -0.53258,-2.07465 -0.58591,-3.12812zM199.96738,163.45846c0.06005,0.2542 0.11572,0.50878 0.1578,0.76435c0.78332,4.75822 -0.27212,10.54 -0.40677,15.37027c-0.13844,4.96641 0.29093,9.7914 0.59422,14.71562c0.13534,2.19723 -0.84535,5.39494 -0.25503,7.50851c0.96544,3.45668 1.17306,7.4345 1.08767,11.15508c-0.04149,1.26955 -0.31404,6.08064 1.19835,6.719c2.1626,0.91282 5.41175,0.68212 7.83089,0.74956c6.20653,0.17301 12.32492,0.00681 18.5169,0.17941c6.11052,0.17034 12.32887,0.67157 18.39836,0.18197c2.13668,-0.17237 4.52112,0.57552 6.62077,0.2004c3.22596,-0.57635 6.65459,-0.83695 10.01441,-0.75281c7.35417,0.205 14.05409,-1.55272 21.04801,-2.75571c2.15837,-0.37125 7.29924,-0.49891 8.28747,-3.03107c0.42329,-1.08461 0.02902,-3.47214 0.06191,-4.65177c0.32205,-11.55317 0.64411,-23.10636 0.96616,-34.65954c0.20294,-7.28007 -0.43069,-14.74176 0.27861,-21.96697c0.55285,-5.63157 0.98853,-11.40873 1.146,-17.05768c0.1901,-6.81947 0.5824,-13.65554 0.23594,-20.46119c-0.23614,-4.63881 0.36163,-8.30719 -5.38493,-8.45499c-4.57735,-0.78462 -9.34418,-0.67348 -13.94874,-0.3899c-0.99212,0.0611 -1.99162,0.01089 -2.98068,-0.088c-0.18524,-0.01853 -0.47593,-0.30547 -0.54271,-0.13169c-0.2874,0.74789 0.15993,3.39693 0.13432,4.31535c-0.10631,3.81368 -0.21262,7.62734 -0.31893,11.44102c-0.07292,2.30668 0.43385,4.33853 0.79747,6.48126c0.47433,2.79512 -0.03475,5.7596 0.12388,8.58023c0.26653,4.73915 1.13284,9.16188 0.96397,13.95257c-0.0397,1.12602 -0.51127,2.19501 -0.79725,3.28484c-0.30235,1.15224 0.17302,2.4081 -0.07645,3.57293c-0.15968,0.7456 -0.22607,1.68468 -0.8493,2.12404c-0.66367,0.46787 -1.61924,0.1246 -2.42885,0.1869c-2.73321,-0.07619 -5.8662,-0.25861 -8.56553,0.08247c-1.17735,0.14876 -2.25565,0.83127 -3.43897,0.92093c-4.57465,0.34663 -9.25127,-0.71151 -13.82501,-0.38223c-3.24829,0.23388 -6.35119,1.49309 -9.58743,1.42241c-3.43599,-0.12353 -7.71332,-0.25922 -11.11024,0.31223c-1.35907,0.22863 -5.11661,1.68316 -6.50628,0.27126c-1.22132,-1.24084 -0.65292,-4.44281 -0.60957,-5.9981c0.12578,-4.51225 0.58658,-8.96195 0.71171,-13.45064c0.21632,-7.76005 0.09546,-15.50538 0.31074,-23.2279c0.07956,-2.85411 0.56904,-7.95798 -1.0448,-10.29219c-0.59523,-0.40715 -0.9438,-1.14666 -1.58964,-1.46752c-0.76764,-0.38137 -1.71455,0.04372 -2.57136,0.01984c-2.97601,-0.08296 -5.34614,0.564 -8.34147,0.77367c-0.65706,0.046 -4.81157,0.46897 -5.13569,1.2466c-0.27253,0.65385 0.06816,2.65767 0.04668,3.42819c-0.09737,3.49283 -0.19473,6.98565 -0.2921,10.47846c-0.18547,6.65355 -1.36178,14.09721 -0.58836,20.69485c0.25459,2.17182 0.67971,4.26382 0.83551,6.47128c0.13521,1.91569 -0.2505,4.48065 -0.11011,6.76075c0.17937,0.26129 0.22604,0.53394 0.22604,0.53394l0.30381,1.80958c-0.00382,0.10065 -0.00374,0.20104 -0.00032,0.3012c0.12241,0.30084 0.26958,0.58435 0.4458,0.84665c0,0 0.46836,0.74682 -0.03687,1.36233z" fill="#000000"/><path d="M199.95621,162.09463c-0.17622,-0.26231 -0.32334,-0.54667 -0.44577,-0.84752c-0.00342,-0.10016 -0.00347,-0.20084 0.00036,-0.3015l-0.30368,-1.81141c0,0 -0.04662,-0.27318 -0.22598,-0.53446c-0.14039,-2.2801 0.24649,-4.85166 0.11128,-6.76735c-0.1558,-2.20748 -0.57923,-4.30492 -0.83382,-6.47674c-0.7734,-6.59765 0.41073,-14.05477 0.5962,-20.70832c0.09737,-3.49283 0.19872,-6.98995 0.29609,-10.48277c0.02148,-0.77053 -0.31804,-2.77541 -0.04551,-3.42926c0.3241,-0.77763 4.48117,-1.20268 5.13823,-1.24868c2.99534,-0.20967 5.36979,-0.85964 8.34582,-0.77669c0.85682,0.02388 1.80518,-0.40203 2.57282,-0.02069c0.64584,0.32085 1.04117,1.14437 1.63639,1.55152c1.61384,2.33422 1.1276,7.43615 1.04804,10.29026c-0.21527,7.72252 -0.0813,15.45508 -0.29762,23.21513c-0.12513,4.48869 -0.57845,8.9212 -0.70424,13.43344c-0.04336,1.5553 -0.61064,4.74768 0.61068,5.98852c1.38967,1.41189 5.05108,-0.04463 6.41015,-0.27326c3.39692,-0.57145 7.67439,-0.4385 11.11039,-0.31497c3.23625,0.07069 6.36175,-1.22529 9.61004,-1.45916c4.57373,-0.32928 9.3231,0.7621 13.89775,0.41545c1.18332,-0.08966 2.26144,-0.77324 3.43878,-0.922c2.69933,-0.34108 5.83278,-0.15582 8.56599,-0.07963c0.80962,-0.0623 1.66973,0.2925 2.3334,-0.17537c0.62323,-0.43935 0.69014,-1.37504 0.84983,-2.12065c0.24947,-1.16485 -0.22447,-2.41508 0.07789,-3.56732c0.28598,-1.08982 0.75911,-2.1546 0.79882,-3.28064c0.16888,-4.79068 -0.6881,-9.19921 -0.95463,-13.93835c-0.15863,-2.82064 0.3555,-5.78049 -0.11883,-8.57561c-0.36361,-2.14271 -0.86667,-4.17193 -0.79374,-6.4786c0.10631,-3.81368 0.2168,-7.62492 0.32311,-11.43859c0.0256,-0.9184 -0.42029,-3.56676 -0.13288,-4.31465c0.06678,-0.17377 0.39881,0.02638 0.58404,0.0449c0.98906,0.09889 1.99036,0.15002 2.98248,0.08892c4.60456,-0.28358 9.37845,-0.39012 13.9558,0.3945c5.74655,0.14782 5.15367,3.82062 5.38982,8.45943c0.34645,6.80566 -0.0384,13.65177 -0.2285,20.47125c-0.15747,5.64894 -0.58819,11.43933 -1.14104,17.07092c-0.70931,7.22521 -0.07596,14.70825 -0.27889,21.98835c-0.32205,11.55317 -0.65657,23.12876 -0.97862,34.68194c-0.03288,1.17962 0.35972,3.5688 -0.06358,4.6534c-0.98822,2.53216 -6.13367,2.66354 -8.29203,3.03479c-6.99393,1.20299 -13.70758,2.96754 -21.06175,2.76254c-3.35981,-0.08414 -6.79641,0.17822 -10.02237,0.75458c-2.09965,0.37512 -4.48957,-0.37236 -6.62625,-0.19998c-6.06949,0.48962 -12.3027,-0.01371 -18.41321,-0.18405c-6.19198,-0.17261 -12.32201,-0.01173 -18.52854,-0.18474c-2.41913,-0.06744 -5.67218,0.16052 -7.83478,-0.7523c-1.5124,-0.63836 -1.24264,-5.45182 -1.20115,-6.72136c0.0854,-3.72058 -0.12686,-7.70323 -1.0923,-11.1599c-0.59031,-2.11356 0.38745,-5.31518 0.25211,-7.51241c-0.30329,-4.92421 -0.73821,-9.7603 -0.59976,-14.72671c0.13465,-4.83029 1.18742,-10.62706 0.40413,-15.38528c-0.04207,-0.25557 -0.09774,-0.51096 -0.15779,-0.76516c0.50523,-0.61551 0.03688,-1.36374 0.03688,-1.36374z" fill="#ffffff"/></g><g><path d="M244.47327,178.95664c0.28435,10.96087 -8.16887,20.16475 -18.88081,20.55742c-10.71194,0.39267 -19.62621,-8.17457 -19.91055,-19.13544c-0.11132,-4.29092 -1.03248,-7.61352 2.55184,-9.03047c5.57158,-2.20254 17.13538,-1.42521 17.13538,-1.42521c0,0 11.06804,-1.63159 16.79262,0.30543c3.49704,1.18329 2.20372,4.57166 2.31155,8.72827z" fill="#000000" stroke="none" stroke-width="0" stroke-linecap="butt"/><path d="M235.70528,174.79691l-0.11213,-4.32178l25.90429,-0.94959l0.11213,4.32179z" fill="#000000" stroke="none" stroke-width="0" stroke-linecap="butt"/><path d="M293.56804,177.15696c0.28436,10.96087 -8.16887,20.16474 -18.88081,20.55742c-10.71194,0.39267 -19.6262,-8.17457 -19.91055,-19.13544c-0.11132,-4.29092 -1.03248,-7.61352 2.55184,-9.03047c5.57158,-2.20255 17.13538,-1.4252 17.13538,-1.4252c0,0 11.06803,-1.63159 16.79262,0.30543c3.49703,1.18329 2.20372,4.57166 2.31155,8.72827z" fill="#000000" stroke="none" stroke-width="0" stroke-linecap="butt"/><path d="M214.60984,175.59069l-4.35677,4.20155" fill="none" stroke="#ffffff" stroke-width="1.5" stroke-linecap="round"/><path d="M209.30184,177.20394l1.50541,-1.55915" fill="none" stroke="#ffffff" stroke-width="1.5" stroke-linecap="round"/><path d="M212.39077,181.77318l5.23771,-4.33712" fill="none" stroke="#ffffff" stroke-width="1.5" stroke-linecap="round"/><path d="M215.24103,184.41441l4.96786,-5.14519" fill="none" stroke="#ffffff" stroke-width="1.5" stroke-linecap="round"/><path d="M219.30008,185.64833l3.31191,-3.43012" fill="none" stroke="#ffffff" stroke-width="1.5" stroke-linecap="round"/><path d="M224.71848,185.31906l-2.10313,2.02283" fill="none" stroke="#ffffff" stroke-width="1.5" stroke-linecap="round"/><path d="M225.94402,188.55545l0.9077,-1.09548" fill="none" stroke="#ffffff" stroke-width="1.5" stroke-linecap="round"/><path d="M234.07549,190.54334l-1.66933,2.19503" fill="none" stroke="#ffffff" stroke-width="1.5" stroke-linecap="round"/><path d="M236.3905,191.40844l-2.27594,2.97867" fill="none" stroke="#ffffff" stroke-width="1.5" stroke-linecap="round"/><path d="M257.28339,176.13981l2.70527,-2.64649" fill="none" stroke="#ffffff" stroke-width="1.5" stroke-linecap="round"/><path d="M259.40326,178.76068l3.43567,-2.62612" fill="none" stroke="#ffffff" stroke-width="1.5" stroke-linecap="round"/><path d="M261.83311,180.74976l1.6515,-1.55508" fill="none" stroke="#ffffff" stroke-width="1.5" stroke-linecap="round"/><path d="M265.65352,180.05569l-2.27148,2.81869" fill="none" stroke="#ffffff" stroke-width="1.5" stroke-linecap="round"/><path d="M268.37554,182.05291l-1.51879,2.03911" fill="none" stroke="#ffffff" stroke-width="1.5" stroke-linecap="round"/><path d="M274.15635,184.45561l-3.30299,3.11016" fill="none" stroke="#ffffff" stroke-width="1.5" stroke-linecap="round"/><path d="M267.65741,186.83623l2.86921,-3.28236" fill="none" stroke="#ffffff" stroke-width="1.5" stroke-linecap="round"/><path d="M281.72027,191.07092l1.22663,-2.04725" fill="none" stroke="#ffffff" stroke-width="1.5" stroke-linecap="round"/><path d="M283.72526,192.56783l1.97488,-2.66685" fill="none" stroke="#ffffff" stroke-width="1.5" stroke-linecap="round"/></g><path d="M267.74349,208.9161c-0.01959,0.70272 -0.42337,0.99921 -0.773,1.12415c-1.85727,4.5723 -4.98628,7.8218 -9.71174,9.67649c-3.81946,0.46015 -10.03174,1.56739 -13.4027,-0.97525c-4.3473,-3.27906 -5.24902,-8.97984 -7.9728,-13.31616c0,0 -0.20797,-0.33162 -0.20558,-0.7401c-0.03885,-0.51816 0.31635,-0.93765 0.31635,-0.93765c0.28405,-0.33545 0.56808,-0.67089 0.85213,-1.00634l0.72982,-0.70076c0,0 0.90817,-0.85891 1.76707,0.04926c0.65574,0.69335 0.28151,1.358 0.06778,1.63362c0.23035,0.14357 0.36633,0.31632 0.36633,0.31632c2.5499,3.30039 5.83572,3.20926 9.51466,4.17595c5.35482,1.40705 11.0437,1.70171 15.80464,-1.27896c2.69154,-1.21774 4.5384,-3.85281 6.61797,-5.90879c-0.13181,-0.31972 -0.16052,-0.7534 0.23662,-1.22241c0.80777,-0.95395 1.76171,-0.14618 1.76171,-0.14618c1.0977,0.94826 2.36217,1.46187 3.55664,2.30134l0.27384,0.13565c0,0 1.10202,0.58995 0.51207,1.69198c-0.58995,1.10202 -1.69198,0.51207 -1.69198,0.51207l-0.53812,-0.29902c-0.72587,-0.51786 -1.46315,-0.92024 -2.18592,-1.35963c-1.98709,1.89532 -3.70452,4.18045 -5.9869,5.71125c0.06208,0.15301 0.09736,0.33844 0.09109,0.56317zM243.60934,214.66307c0.73415,0.95135 1.44448,2.13751 2.64303,2.55963c3.15572,1.11144 7.19736,0.41383 10.3987,0.06901c3.52844,-1.41475 5.9227,-3.81464 7.48601,-7.02399c-4.82267,2.09248 -10.3691,1.73145 -15.49421,0.36222c-3.37284,-0.90108 -6.27597,-1.17228 -8.82764,-3.08168c1.12389,2.44311 2.08202,4.89621 3.7941,7.11482z" fill="#000000" stroke="none" stroke-width="0.5" stroke-linecap="butt"/><g stroke="none" stroke-width="0.5" stroke-linecap="butt"><path d="M179.80213,226.14188c3.49256,-2.64806 7.29537,-4.96352 10.74138,-7.02062c3.47614,-2.72245 8.52284,-2.76021 12.73858,-2.76021c1.45823,0 2.91678,-0.24496 4.16222,0.80051c2.86622,2.40603 -0.50505,8.41231 -2.00388,10.66056c-1.21138,2.42877 -3.15435,4.00145 -4.66206,6.1659c-0.9878,1.41807 -1.61127,2.98991 -2.31108,4.4668c-1.42125,2.99939 -4.21141,5.40132 -6.28801,8.0411c1.32586,-0.07523 2.93363,-0.02094 3.44461,0.1313c0.91143,0.27156 1.92015,1.17385 2.30747,2.03264c0.10333,0.22911 -0.26867,0.57957 -0.08338,0.74937c0.16815,0.15409 0.41453,-0.21611 0.64158,-0.23784c0.61163,-0.05854 1.22885,0 1.84328,0c1.32022,0 3.78436,-0.51701 4.97973,-0.16671c0.6133,0.17973 1.26651,0.50416 1.60778,1.04451c0.38824,0.61472 -0.49346,1.66697 0.02064,2.18108c0.1158,0.1158 2.58859,-0.10703 2.87534,-0.10621c0.77666,0.12776 2.68136,0.38158 3.17972,0.81681c1.31297,1.14664 -0.0852,3.08695 0.50093,3.83611c0.48345,0.61792 1.68031,0.57431 1.95632,1.30873c0.94253,2.50792 -1.98156,5.11713 -2.72494,7.28777c-0.2867,0.83717 0.689,2.24955 0.77031,3.15155c0.20859,2.31414 -0.4823,4.41035 -1.65659,6.3781c-0.96977,1.16739 -2.45357,2.77695 -2.80027,4.29493c-0.62169,2.72194 1.2431,5.50798 -2.47469,6.7607c-5.13071,1.72881 -10.13296,-1.42886 -15.08201,-1.41678c-2.99385,0 -6.41144,0.40925 -9.3229,-0.41172c-5.14177,-1.44987 -11.0436,-4.08937 -15.21108,-7.4889c-1.89633,-3.08009 -6.04287,-4.91937 -7.52922,-8.16717c-1.42614,-3.11623 -0.20633,-7.47953 -0.45705,-10.84327c-0.1111,-1.49057 -0.83707,-2.97198 -1.08836,-4.48661c-0.70733,-2.8806 0.05436,-5.41832 0.95845,-8.0976c1.14856,-3.40374 0.58605,-6.74671 0.86632,-10.24204c0.23525,-2.93391 2.16381,-5.02891 2.24582,-8.12285c2.6366,-4.53236 7.89555,-1.7687 12.09118,-2.38747c1.13161,-0.16689 1.14525,-1.08804 2.44513,-1.11064c1.92302,-0.03344 2.3475,1.3697 3.14368,2.69667zM178.21901,227.3844l-0.31311,-0.47129c-0.12937,-0.21562 -0.76983,-1.86423 -1.28019,-1.72719c-0.83473,0.22414 -1.49368,0.96641 -2.34739,1.10129c-2.7326,0.43174 -8.61938,-1.82362 -10.3968,0.93043c0.11942,2.74815 -1.08149,4.3248 -2.05729,6.72609c-0.87372,2.15012 0.19531,5.24365 -0.12793,7.52277c-0.54155,3.81845 -2.85522,7.34469 -1.8546,11.26908c0.49732,2.97133 1.12699,5.43081 1.12699,8.49912c0,1.93593 -0.53235,4.60022 0.27684,6.40076c1.35366,3.01207 5.50861,4.74478 7.217,7.68502c3.98436,3.09383 9.46806,5.49281 14.28136,6.88866c2.67926,0.77698 5.98135,0.32559 8.74123,0.32559c4.68693,0.01005 9.59563,3.10974 14.41043,1.53246c2.27002,-0.74364 0.78424,-3.56478 1.21186,-5.40493c0.40964,-1.76278 1.97015,-3.57227 3.09821,-4.92146c0.94474,-1.56255 1.42887,-3.2227 1.29265,-5.05022c-0.10717,-1.43779 -1.06798,-2.30997 -0.70431,-3.85291c0.33278,-1.41189 1.46943,-2.89535 2.0786,-4.19696c0.21188,-0.45272 0.93993,-1.12321 0.7263,-1.78687c-0.19935,-0.6193 -1.3836,-0.35264 -1.73023,-0.90321c-0.09169,-0.14563 0.03016,-3.37238 -0.23639,-3.537c-0.5679,-0.35074 -1.32335,-0.1777 -1.98146,-0.28916c-1.06315,0.00355 -3.3027,0.35155 -4.12912,-0.47486c-1.23694,-1.23694 -0.22257,-1.5261 -0.34801,-2.61145c-0.04134,-0.35769 -0.7129,0.10429 -1.07147,0.13707c-0.45579,0.04167 -0.91538,0.00283 -1.37307,0.00342c-1.39545,0.00179 -2.85037,0.08735 -4.23954,0c-0.6499,-0.04087 -1.40834,0.13955 -1.93901,-0.23784c-0.74152,-0.52734 -0.18778,-2.09475 -1.46246,-2.37917c-1.14887,-0.25635 -2.70572,-0.11447 -4.16838,0.04834l0.03911,0.09126l-1.2699,0.54424c-0.12667,0.05773 -0.26745,0.08989 -0.41574,0.08989c-0.55429,0 -1.00363,-0.44934 -1.00363,-1.00363c0,-0.3204 0.15014,-0.60574 0.38391,-0.78949l0.80917,-0.64734c1.50818,-2.49983 3.85211,-5.07301 5.64217,-7.45838c0.48811,-0.65044 1.23147,-1.13035 1.56377,-1.87257c0.70978,-1.58538 1.43633,-3.26205 2.48144,-4.74959c1.48002,-2.10657 3.37104,-3.63878 4.55433,-5.99973c1.10147,-1.6522 2.36179,-3.88139 2.63686,-5.88602c0.05837,-0.42539 0.24383,-1.93027 -0.21687,-2.25485c-0.97789,-0.68896 -2.8301,-0.30545 -3.94821,-0.30545c-3.38654,0 -7.74395,0.15024 -10.48671,2.40097c-6.52849,3.93471 -14.6532,8.77885 -18.90797,15.21623c0,0 -0.55671,0.83507 -1.39178,0.27836c-0.83507,-0.55671 -0.27836,-1.39178 -0.27836,-1.39178c1.84922,-2.75338 4.34031,-5.23572 7.1077,-7.4877z" fill="#000000"/><path d="M171.13879,234.90137c0,0 -0.61267,0.77751 0.2224,1.33422c0.83507,0.55671 1.39343,-0.27993 1.39343,-0.27993c4.25478,-6.43739 12.41287,-11.29127 18.94136,-15.22597c2.74277,-2.25073 7.11072,-2.39768 10.49726,-2.39768c1.1181,0 2.97377,-0.38167 3.95165,0.30729c0.4607,0.32458 0.27649,1.83025 0.21813,2.25563c-0.27506,2.00463 -1.53429,4.23456 -2.63576,5.88676c-1.18329,2.36096 -3.11969,3.9594 -4.59971,6.06597c-1.04511,1.48755 -1.7256,3.09846 -2.43537,4.68385c-0.3323,0.74223 -1.12252,1.28733 -1.61063,1.93777c-1.79006,2.38537 -4.13222,4.95974 -5.64041,7.45957l-0.80648,0.6489c-0.23376,0.18375 -0.346,0.39831 -0.346,0.71871c0,0.55429 0.462,1.01439 1.01629,1.01439c0.14829,0 0.29023,-0.03058 0.4169,-0.08831l1.27111,-0.5424l-0.03952,-0.09191c1.46267,-0.16281 3.02386,-0.29562 4.17274,-0.03927c1.27468,0.28442 0.72296,1.86273 1.46448,2.39006c0.53067,0.37739 1.28915,0.19807 1.93905,0.23894c1.38917,0.08735 2.84409,0.00198 4.23954,0.00019c0.45769,-0.00059 0.837,0.03926 1.29279,-0.00241c0.35857,-0.03278 1.11041,-0.496 1.15175,-0.13831c0.12544,1.08535 -0.8892,1.38003 0.34774,2.61697c0.82642,0.82642 2.98624,0.46891 4.04939,0.46536c0.65811,0.11146 1.49327,-0.05202 2.06117,0.29872c0.26655,0.16462 0.1437,3.39665 0.23538,3.54228c0.34663,0.55057 1.53072,0.28451 1.73007,0.90382c0.21363,0.66366 -0.51525,1.33679 -0.72713,1.78951c-0.60917,1.30161 -1.7486,2.79124 -2.08138,4.20313c-0.36366,1.54293 0.59502,2.41852 0.70219,3.85631c0.13622,1.82752 -0.35173,3.49236 -1.29647,5.05491c-1.12806,1.34918 -2.69361,3.16316 -3.10324,4.92594c-0.42762,1.84016 1.05445,4.66378 -1.21558,5.40741c-4.8148,1.57728 -9.73769,-1.51732 -14.42463,-1.52738c-2.75987,0 -6.07317,0.45156 -8.75243,-0.32542c-4.8133,-1.39586 -10.31626,-3.80268 -14.30062,-6.89651c-1.70839,-2.94024 -5.87288,-4.68329 -7.22655,-7.69536c-0.80918,-1.80054 -0.28051,-4.47209 -0.28051,-6.40802c0,-3.06831 -0.63229,-5.54015 -1.12961,-8.51149c-1.00061,-3.92438 1.31585,-7.4675 1.8574,-11.28594c0.32324,-2.27912 -0.74133,-5.38091 0.1324,-7.53103c0.97579,-2.40129 2.18203,-3.98408 2.06261,-6.73223c1.77743,-2.75405 7.674,-0.50548 10.4066,-0.93721c0.85371,-0.13488 1.51607,-0.87864 2.3508,-1.10277c0.51035,-0.13704 1.15165,1.51126 1.28103,1.72688l0.33982,0.547c-2.76739,2.25198 -5.24426,4.7257 -7.09348,7.47908z" fill="#ffffff"/></g><g stroke="none" stroke-width="0.5" stroke-linecap="butt"><path d="M316.43395,220.14095c0.79619,-1.32697 1.22066,-2.73011 3.14368,-2.69667c1.29988,0.0226 1.31353,0.94376 2.44514,1.11065c4.19563,0.61877 9.45458,-2.1449 12.09118,2.38747c0.08201,3.09394 2.01057,5.18894 2.24583,8.12285c0.28027,3.49533 -0.28224,6.8383 0.86632,10.24204c0.9041,2.67928 1.66578,5.21701 0.95845,8.0976c-0.25128,1.51462 -0.97725,2.99603 -1.08836,4.4866c-0.25072,3.36374 0.96908,7.72704 -0.45705,10.84327c-1.48635,3.24779 -5.63289,5.08707 -7.52922,8.16716c-4.16748,3.39953 -10.06931,6.03902 -15.21109,7.4889c-2.91145,0.82097 -6.32904,0.41172 -9.32289,0.41172c-4.94905,-0.01207 -9.95131,3.14559 -15.08202,1.41678c-3.7178,-1.25272 -1.853,-4.03876 -2.47469,-6.7607c-0.3467,-1.51798 -1.83051,-3.12754 -2.80027,-4.29493c-1.17429,-1.96776 -1.86518,-4.06396 -1.65659,-6.3781c0.08131,-0.902 1.05701,-2.31438 0.77031,-3.15155c-0.74338,-2.17064 -3.66746,-4.77985 -2.72493,-7.28777c0.27601,-0.73442 1.47288,-0.6908 1.95632,-1.30873c0.58612,-0.74916 -0.81205,-2.68946 0.50092,-3.8361c0.49837,-0.43523 2.40306,-0.68904 3.17972,-0.81681c0.28674,-0.00082 2.75953,0.22201 2.87534,0.10621c0.5141,-0.51411 -0.36761,-1.56635 0.02064,-2.18107c0.34127,-0.54035 0.99448,-0.86479 1.60778,-1.04451c1.19538,-0.3503 3.65952,0.16671 4.97974,0.16671c0.61442,0 1.23165,-0.05855 1.84328,0c0.22704,0.02173 0.47342,0.39194 0.64157,0.23784c0.18529,-0.1698 -0.18671,-0.52026 -0.08338,-0.74937c0.38732,-0.85879 1.39604,-1.76108 2.30747,-2.03265c0.51098,-0.15225 2.11876,-0.20653 3.44461,-0.1313c-2.07659,-2.63978 -4.86676,-5.04171 -6.288,-8.0411c-0.69981,-1.47688 -1.32328,-3.04872 -2.31108,-4.46679c-1.5077,-2.16445 -3.45068,-3.73713 -4.66206,-6.1659c-1.49883,-2.24824 -4.8701,-8.25453 -2.00388,-10.66056c1.24543,-1.04547 2.70399,-0.80051 4.16222,-0.80051c4.21575,0 9.26245,0.03776 12.73859,2.76021c3.44601,2.0571 7.24881,4.37256 10.74137,7.02061zM324.94974,229.13266c0,0 0.55671,0.83507 -0.27836,1.39178c-0.83506,0.55671 -1.39178,-0.27836 -1.39178,-0.27836c-4.25477,-6.43739 -12.37948,-11.28153 -18.90797,-15.21624c-2.74277,-2.25073 -7.10017,-2.40097 -10.48671,-2.40097c-1.11811,0 -2.97032,-0.3835 -3.94821,0.30545c-0.46069,0.32458 -0.27523,1.82946 -0.21686,2.25485c0.27507,2.00464 1.53539,4.23382 2.63685,5.88602c1.18329,2.36095 3.07431,3.89317 4.55433,5.99974c1.04511,1.48755 1.77167,3.1642 2.48145,4.74959c0.33229,0.74223 1.07565,1.22214 1.56376,1.87258c1.79006,2.38538 4.13398,4.95855 5.64217,7.45838l0.80917,0.64733c0.23376,0.18375 0.3839,0.46909 0.3839,0.78949c0,0.55428 -0.44934,1.00363 -1.00362,1.00363c-0.14829,0 -0.28907,-0.03216 -0.41574,-0.08989l-1.2699,-0.54424l0.03912,-0.09126c-1.46267,-0.16281 -3.01951,-0.30469 -4.16838,-0.04834c-1.27469,0.28442 -0.72094,1.85182 -1.46246,2.37917c-0.53067,0.37739 -1.28911,0.19698 -1.93901,0.23784c-1.38917,0.08736 -2.84409,0.00179 -4.23954,0c-0.45769,-0.00059 -0.91728,0.03824 -1.37307,-0.00342c-0.35857,-0.03278 -1.03014,-0.49475 -1.07148,-0.13706c-0.12544,1.08535 0.88893,1.3745 -0.34801,2.61145c-0.82641,0.82641 -3.06597,0.47842 -4.12912,0.47486c-0.65811,0.11146 -1.41355,-0.06158 -1.98145,0.28916c-0.26654,0.16462 -0.14469,3.39136 -0.23638,3.537c-0.34663,0.55057 -1.53088,0.28391 -1.73023,0.90321c-0.21363,0.66366 0.51441,1.33415 0.72629,1.78687c0.60916,1.3016 1.74582,2.78506 2.0786,4.19695c0.36366,1.54293 -0.59715,2.41512 -0.70432,3.85291c-0.13622,1.82752 0.34792,3.48767 1.29266,5.05022c1.12806,1.34918 2.68858,3.15867 3.09821,4.92145c0.42761,1.84016 -1.05817,4.66129 1.21186,5.40493c4.8148,1.57727 9.72349,-1.5224 14.41043,-1.53246c2.75988,0 6.06197,0.45139 8.74122,-0.3256c4.8133,-1.39585 10.297,-3.79483 14.28136,-6.88866c1.70839,-2.94024 5.86334,-4.67295 7.217,-7.68502c0.80919,-1.80054 0.27684,-4.46483 0.27684,-6.40075c0,-3.0683 0.62967,-5.52778 1.127,-8.49911c1.00061,-3.92439 -1.31305,-7.45064 -1.85461,-11.26908c-0.32324,-2.27912 0.7458,-5.37266 -0.12793,-7.52277c-0.97579,-2.4013 -2.1767,-3.97794 -2.05728,-6.72609c-1.77742,-2.75405 -7.66421,-0.49869 -10.3968,-0.93043c-0.8537,-0.13488 -1.51265,-0.87716 -2.34739,-1.10129c-0.51035,-0.13703 -1.15081,1.51157 -1.28018,1.72719l-0.31311,0.47129c2.76739,2.25198 5.25848,4.73432 7.1077,7.4877z" fill="#000000"/><path d="M317.82879,221.68286l0.33982,-0.547c0.12938,-0.21562 0.77068,-1.86392 1.28103,-1.72689c0.83473,0.22413 1.49709,0.96789 2.35079,1.10277c2.7326,0.43174 8.62918,-1.81683 10.4066,0.93722c-0.11942,2.74815 1.08682,4.33094 2.06261,6.73224c0.87373,2.15011 -0.19084,5.2519 0.1324,7.53103c0.54155,3.81844 2.85801,7.36156 1.8574,11.28594c-0.49733,2.97133 -1.12961,5.44318 -1.12961,8.51149c0,1.93592 0.52868,4.60748 -0.28051,6.40802c-1.35366,3.01207 -5.51815,4.75512 -7.22654,7.69535c-3.98436,3.09383 -9.48732,5.50066 -14.30061,6.89651c-2.67926,0.77698 -5.99256,0.32542 -8.75243,0.32542c-4.68694,0.01005 -9.60983,3.10465 -14.42463,1.52738c-2.27003,-0.74364 -0.78796,-3.56725 -1.21558,-5.40741c-0.40963,-1.76278 -1.97518,-3.57676 -3.10324,-4.92594c-0.94474,-1.56255 -1.43269,-3.22739 -1.29647,-5.05491c0.10717,-1.43779 1.06586,-2.31338 0.7022,-3.85631c-0.33278,-1.41189 -1.47222,-2.90152 -2.08138,-4.20313c-0.21188,-0.45272 -0.94075,-1.12585 -0.72713,-1.7895c0.19935,-0.6193 1.38344,-0.35325 1.73007,-0.90381c0.09169,-0.14564 -0.03116,-3.37766 0.23538,-3.54228c0.5679,-0.35073 1.40306,-0.18725 2.06118,-0.29871c1.06315,0.00356 3.22298,0.36105 4.0494,-0.46536c1.23694,-1.23694 0.22229,-1.53162 0.34773,-2.61697c0.04134,-0.35769 0.79318,0.10553 1.15175,0.13831c0.45579,0.04166 0.8351,0.00182 1.29279,0.00241c1.39545,0.00179 2.85037,0.08716 4.23954,-0.00019c0.6499,-0.04086 1.40837,0.13845 1.93905,-0.23893c0.74152,-0.52734 0.1898,-2.10564 1.46448,-2.39006c1.14887,-0.25635 2.71007,-0.12354 4.17274,0.03927l-0.03953,0.09191l1.27111,0.54241c0.12667,0.05773 0.26861,0.0883 0.4169,0.0883c0.55428,0 1.01629,-0.4601 1.01629,-1.01439c0,-0.3204 -0.11224,-0.53496 -0.346,-0.71871l-0.80648,-0.6489c-1.50819,-2.49983 -3.85035,-5.07419 -5.6404,-7.45956c-0.48811,-0.65044 -1.27833,-1.19554 -1.61063,-1.93777c-0.70978,-1.58539 -1.39026,-3.1963 -2.43537,-4.68385c-1.48002,-2.10656 -3.41642,-3.70502 -4.59971,-6.06597c-1.10147,-1.65221 -2.36069,-3.88212 -2.63576,-5.88676c-0.05837,-0.42539 -0.24257,-1.93106 0.21813,-2.25564c0.97789,-0.68895 2.83355,-0.30729 3.95165,-0.30729c3.38654,0 7.7545,0.14695 10.49726,2.39768c6.52849,3.93471 14.68658,8.78859 18.94136,15.22598c0,0 0.55837,0.83664 1.39344,0.27993c0.83506,-0.55671 0.2224,-1.33422 0.2224,-1.33422c-1.84922,-2.75338 -4.32609,-5.22709 -7.09348,-7.47907z" fill="#ffffff"/></g></g></g></svg>