<svg version="1.1" xmlns="http://www.w3.org/2000/svg" xmlns:xlink="http://www.w3.org/1999/xlink" width="175.2379" height="434.58122" viewBox="0,0,175.2379,434.58122"><defs><linearGradient x1="297.30782" y1="183.10461" x2="297.30782" y2="208.38312" gradientUnits="userSpaceOnUse" id="color-1"><stop offset="0" stop-color="#ffffff"/><stop offset="1" stop-color="#2c2c2c"/></linearGradient><linearGradient x1="319.06868" y1="187.54334" x2="319.06868" y2="215.98135" gradientUnits="userSpaceOnUse" id="color-2"><stop offset="0" stop-color="#ffffff"/><stop offset="1" stop-color="#2c2c2c"/></linearGradient><linearGradient x1="321.2455" y1="215.78041" x2="321.2455" y2="264.06991" gradientUnits="userSpaceOnUse" id="color-3"><stop offset="0" stop-color="#717171"/><stop offset="1" stop-color="#2c2c2c"/></linearGradient><linearGradient x1="339.256" y1="181.66345" x2="339.256" y2="206.94196" gradientUnits="userSpaceOnUse" id="color-4"><stop offset="0" stop-color="#ffffff"/><stop offset="1" stop-color="#2c2c2c"/></linearGradient><linearGradient x1="317.20082" y1="84.11921" x2="317.20082" y2="91.10694" gradientUnits="userSpaceOnUse" id="color-5"><stop offset="0" stop-color="#a2a2a2"/><stop offset="1" stop-color="#7f7f7f"/></linearGradient></defs><g transform="translate(-230.7604,-34.51475)"><g stroke-miterlimit="10"><g fill="#000000" stroke="none" stroke-width="0.5" stroke-linecap="butt"><path d="M265.22848,115.79421c0.57937,-0.94195 1.16757,-1.87621 1.78149,-2.78845c1.02683,-1.52526 1.89464,-3.13708 2.7754,-4.74774c-1.33427,0.55913 -2.23042,1.69319 -2.34621,3.66827c-0.91533,0.75777 -2.00191,2.48992 -2.21068,3.86791zM341.69353,208.56214c-0.05562,-0.24832 -0.07163,-0.52396 -0.06883,-0.80194c-0.1626,-1.30475 -0.54527,-2.57972 -0.77314,-3.85703c0.00002,0.99038 0.00008,1.98077 0.00033,2.97122c0.0009,3.50763 0.45271,7.11068 0.45271,10.59129c0,2.87045 0.6048,6.76433 -0.04045,9.49013l0.03944,0.01028l-0.00136,0.49956c0,0.00003 0,0.00006 0,0.00008c-0.00037,0.13767 -0.11416,0.21988 -0.25448,0.18368c-0.02136,-0.00551 -0.0421,-0.01344 -0.06192,-0.02343c0.70759,3.02973 0.97787,6.23247 1.49943,9.20045c0.63386,3.60705 0.85496,7.15906 1.71286,10.77286c0.40332,1.69895 0.97639,3.51348 1.18782,5.19824c0.06277,0.50015 0.04331,1.04831 0.03691,1.53501c-0.00235,0.17888 0.01677,0.69686 0.09505,0.55486c0.2368,-0.42949 0.26879,-1.01544 0.36069,-1.5794l-0.07789,-0.02592l0.03848,-0.48645c0.0088,-0.12796 0.11912,-0.20246 0.25392,-0.16769c0.10339,0.02667 0.19237,0.11019 0.2322,0.20745l0.21636,0.50224c1.04133,2.42336 0.96868,4.83484 1.7859,7.23971c1.20761,3.57299 1.25265,7.24978 1.75442,10.81815c0.13975,0.99386 1.47623,5.88037 0.65101,6.32933c-0.0065,0.00354 -0.01298,0.00697 -0.01943,0.01031c0.24232,0.76396 0.45735,1.5331 0.61812,2.32653c1.10439,3.58908 2.30884,7.26657 3.04347,10.85735c0.3468,1.75118 1.74366,3.77153 2.31702,5.49887c0.47729,1.43793 0.03612,3.70883 -0.00044,5.10135c-0.23173,2.42074 -1.61509,4.85289 -2.74075,6.80659c-0.38464,0.66758 -0.3874,1.59159 -0.95945,2.05034c-2.04376,2.4428 -3.87282,4.55097 -6.43275,6.4392c-2.31861,1.96246 -4.57439,4.17419 -6.60959,6.43518c-2.01628,2.2307 -5.09177,3.82524 -7.49831,5.53938c-2.19065,1.42091 -5.47781,3.69659 -8.70968,3.05428c-3.50389,-0.78088 -6.86328,-0.47911 -10.5122,-1.42057c-3.50867,-0.90579 -6.97086,-2.25041 -10.58405,-3.17174c-3.56359,-0.90869 -7.06595,-1.37504 -10.6541,-2.30849c-3.21591,-0.83664 -7.70842,-3.27346 -9.60517,-6.35784c-2.17176,-3.71431 -6.51275,-3.32664 -9.48836,-3.06678c-0.79116,0.06883 -2.92452,0.73136 -3.65463,-0.27722c-0.48427,-0.66898 -0.99303,-4.6725 -0.88297,-6.04801c-2.74462,0.91375 -3.44627,3.17845 -5.24408,4.91112l0.02464,0.01944l-0.23965,0.37348c-0.04227,0.06961 -0.12775,0.10262 -0.22632,0.07719c-0.14055,-0.03626 -0.25449,-0.17758 -0.25449,-0.31565c0,-0.0008 0,-0.0016 0.00001,-0.00239l0.00417,-0.49856l0.00063,0.00017l-0.0006,-0.00254c0.05342,-1.90125 0.11478,-4.66728 0.76211,-6.29616c0.72273,-1.78857 1.28779,-3.81548 1.49899,-5.86149c0.123,-1.19159 -0.25797,-2.66434 0.08879,-3.76126c-2.3452,0.59873 -4.35886,3.27603 -6.58107,4.62568l0.02256,0.02456l-0.32748,0.29597c-0.04668,0.04291 -0.11693,0.05976 -0.19548,0.03949c-0.14055,-0.03626 -0.25449,-0.17758 -0.25449,-0.31565c0,-0.00073 0,-0.00146 0.00001,-0.00219l0.00381,-0.49869c0.03235,-2.46629 1.06956,-5.73235 1.96461,-7.82505c0.79219,-1.85221 1.21112,-4.26151 1.18451,-6.46645c-0.00245,-0.20317 0.00917,-2.20622 -0.11357,-2.25624c-0.27846,-0.11347 -0.39442,0.30604 -0.64199,0.37415c-2.79144,0.75646 -4.70553,2.95851 -7.32762,3.98103l-0.00009,0.41036c0,0 0,0 0,0.00001c-0.00003,0.13804 -0.11395,0.22055 -0.25449,0.1843c-0.14054,-0.03626 -0.25447,-0.17757 -0.25449,-0.31563v0l-0.00004,-0.50001l0.00015,0.00004v-0.00007l0.00004,0.00001l-0.00004,-0.00005c0.00061,-1.16965 0.01172,-2.33396 0.0452,-3.49468c0.0903,-3.13066 1.17695,-6.9965 2.14648,-9.75771c0.72524,-2.06546 1.07393,-4.18446 1.36714,-6.44955c0.09146,-0.70651 -0.13136,-1.70653 0.0122,-2.40321c-0.91753,0.7408 -2.47957,1.37849 -3.14526,2.31375c-0.3553,0.49917 -0.47289,1.09221 -0.74223,1.62489l0.08743,0.05535l-0.17945,0.41535c-0.03505,0.08785 -0.12921,0.13293 -0.23986,0.10439c-0.14055,-0.03626 -0.25449,-0.17758 -0.25449,-0.31565c0,-0.00183 0.00002,-0.00364 0.00006,-0.00545l0.00954,-0.49668c0.01696,-0.87386 0.12535,-1.64001 0.34153,-2.43496c0.86955,-3.19745 1.53571,-6.41154 2.63324,-9.4992c0.78325,-2.2035 0.98633,-4.62515 1.60634,-6.88989c0.24076,-0.87945 0.85051,-1.59404 0.84181,-2.5782c-0.00051,-0.65098 0.35746,-3.79003 -0.1469,-4.30128c-0.06876,-0.0697 -0.9756,0.41309 -1.03855,0.4409c-1.01183,0.44703 -1.64335,1.3449 -2.45769,2.01031c-0.29925,0.71442 -0.61991,1.41764 -0.89304,2.1453c-0.05741,0.15295 -0.4377,1.45108 -0.50866,1.45654c-1.81286,0.13945 -0.09269,-3.35029 0.4338,-3.6316c0.14549,-0.0767 0.35153,-0.25616 0.59933,-0.49122c0.24206,-0.61594 0.46697,-1.24138 0.62839,-1.89568c0.79151,-3.20833 2.38202,-5.87795 3.0595,-9.22248c0.83474,-2.0935 1.45281,-4.41421 1.68425,-6.80854c0.04699,-0.48614 -0.09864,-1.13441 -0.05392,-1.65344c-0.77173,0.80724 -2.23787,1.32963 -3.14152,1.98553c-0.86657,1.16942 -1.96754,2.21874 -2.75904,3.43713c-0.56389,0.86801 -0.7738,2.30762 -1.37396,3.23284c-0.05779,0.17459 -0.11611,0.34655 -0.17483,0.5153l-0.1506,0.4328c-0.03062,0.09641 -0.12852,0.14745 -0.24455,0.11751c-0.1403,-0.0362 -0.25409,-0.17709 -0.25448,-0.31493c0,-0.00003 0,-0.00006 0,-0.00009l-0.00146,-0.50028l0.11648,0.02972c-0.01748,-0.98372 0.36834,-1.97355 0.93292,-2.91992c0.18422,-0.68172 0.35218,-1.36557 0.49588,-2.02396c0.71492,-3.24851 1.97034,-6.22765 2.91562,-9.35988c0.61512,-2.03306 1.24689,-4.21327 1.68535,-6.33181c0.10692,-0.5166 0.04172,-1.25938 0.10476,-1.86805c-0.88598,1.36956 -2.30142,2.29854 -3.15028,3.6869c-0.57057,0.9332 -0.94977,2.18926 -1.68613,2.91151c0,0.01083 -0.00001,0.02165 -0.00002,0.03247l-0.00046,0.49985c0,0.00001 0,0.00002 0,0.00003c-0.00012,0.13794 -0.11401,0.22036 -0.25449,0.18412c-0.14054,-0.03626 -0.25446,-0.17755 -0.25449,-0.31561l-0.00008,-0.50002l0.00054,0.00014v-0.00026c0.00139,-1.51325 -0.04505,-3.03687 0.17367,-4.48017c0.50215,-3.31367 0.74443,-6.74568 1.18527,-10.09727c-0.00202,-1.82633 0.0251,-3.64735 -0.0139,-5.48284c-0.00555,-0.26138 0.15267,-1.59743 0.02776,-1.7792c-0.25247,-0.36739 -0.41515,0.56181 -0.65695,0.81001c-0.12969,0.13312 -0.24945,0.21737 -0.37693,0.28287l-0.3563,0.26484c-0.04619,0.0344 -0.11058,0.04654 -0.1818,0.02816c-0.14055,-0.03626 -0.25449,-0.17758 -0.25449,-0.31565v0v-0.5v0v-0.00001c0.00041,-3.59333 0.61926,-6.72905 1.27231,-10.09426c0.41078,-2.09041 0.08687,-4.68952 0.08662,-6.92493c-0.00005,-0.48819 -0.12039,-1.29103 -0.06715,-1.91524c-0.39742,0.38368 -0.79362,0.85896 -1.15823,1.35685c-0.13227,0.56999 -0.25811,1.14001 -0.38011,1.70651c-0.13715,0.63459 -0.52076,3.29127 -1.4864,1.81755c-0.60679,-0.92606 0.37629,-2.63638 1.41267,-3.94402c0.61073,-2.6012 1.36119,-5.19583 2.48599,-7.44662c1.41045,-2.82238 1.90653,-6.15541 3.34082,-9.03023c0.76836,-3.18588 2.07302,-6.17072 2.49532,-9.49177c0.21294,-1.67456 -0.28579,-1.69097 -0.93427,-1.08189c-0.06389,0.17547 -0.12683,0.35066 -0.18859,0.52558c-0.75186,1.32921 -1.2078,2.71481 -1.72898,4.19027l-0.06832,0.45838c-0.01568,0.11925 -0.12275,0.18703 -0.25251,0.15356c-0.13491,-0.0348 -0.2453,-0.16641 -0.25394,-0.29903l-0.03776,-0.50621l0.07714,0.01424c-0.30047,-1.78479 0.69253,-2.95541 1.69072,-4.13789c0.03305,-0.06033 0.06668,-0.12052 0.10092,-0.18057c1.04119,-2.97918 2.43888,-6.00749 3.05202,-9.15444c0.62841,-3.22527 1.39046,-6.28088 1.79994,-9.58997c-2.74845,0.64864 -4.75526,2.80482 -7.27412,3.72338l0.01973,0.0282l-0.38867,0.22009c-0.0444,0.02565 -0.10194,0.0332 -0.16481,0.01698c-0.14055,-0.03626 -0.25449,-0.17758 -0.25449,-0.31565c0,-0.00979 0.00057,-0.01929 0.00169,-0.0285l0.0516,-0.48066l0.00476,0.00171l-0.00202,-0.01999c0.08701,-0.30635 0.17424,-0.61258 0.26173,-0.91868c0.90398,-3.11413 2.16642,-6.03254 3.61095,-8.90589c1.42891,-2.84228 3.09762,-5.51808 4.69364,-8.24008c0.99897,-1.52349 1.93693,-3.09824 2.89016,-4.6595c-0.22193,-0.08749 -0.21062,-0.31334 -0.21062,-0.31334l0.00332,-0.0664c0.07285,-1.40161 1.23678,-3.60694 2.28189,-4.34647c-0.01649,-2.1876 1.38356,-3.60031 3.24998,-4.14455c0.2725,-0.49253 0.54886,-0.98361 0.83401,-1.47072c0,0 0.11381,-0.19425 0.34143,-0.02372c0.22762,0.17052 0.11381,0.36477 0.11381,0.36477c-0.18748,0.31971 -0.37114,0.64118 -0.55237,0.96369c0.93909,-0.15282 1.95653,-0.1056 2.94942,0.15179c0.34739,-0.5119 1.32117,-0.49402 1.89822,-0.90892c1.99219,-1.4324 3.87712,-2.38206 5.8551,-3.79052c2.47023,-1.65733 5.13401,-3.76049 8.12372,-4.55274c2.50395,-1.83032 5.4341,-3.07918 7.96886,-4.85754c0.91997,-0.59435 2.46343,-1.78653 3.61702,-1.94432c1.86742,-0.25542 3.97626,0.4732 5.88399,0.1875c2.37516,0.30641 5.00701,0.15717 7.2847,0.13069c0.94712,-0.01101 2.11194,0.93512 2.75704,0.1992c3.59016,-0.07503 6.36093,-0.87959 9.67576,-1.69151c2.01222,-0.48877 3.53252,-1.55402 5.33015,-2.34711c0.46797,-0.20646 1.20368,-0.41501 1.73123,0.20253c0.51048,0.59755 0.76199,1.93705 0.97515,2.65517c0.77364,3.63487 1.56056,7.20464 2.2674,10.84171c0.26765,1.37724 0.363,2.69276 0.39504,4.00141c0.01444,0.03242 0.02345,0.06655 0.02568,0.10075l0.03789,0.50623c0.01456,0.20228 0.03257,0.40566 0.05358,0.61001c0.02954,0.17242 0.04994,0.35666 0.06304,0.54885c0.33391,2.64503 1.09612,5.431 1.32878,8.07964c0.31557,3.59253 0.31452,7.06588 0.31427,10.58952c-0.00021,2.85743 0.62731,6.82455 -0.1314,9.49091l0.03897,0.01553l-0.07152,0.47287c-0.01588,0.11898 -0.12285,0.18656 -0.25245,0.15312c-0.08652,-0.02232 -0.16295,-0.08445 -0.20893,-0.16113l-0.29419,-0.47984l0.02003,-0.00891l-0.0543,-0.06578c-0.03494,-0.74971 -0.18447,-1.44996 -0.36076,-2.13077c-0.01239,0.75476 -0.10166,1.5065 -0.01075,2.25916c0.24701,2.04493 0.92317,4.12318 1.14544,6.18257c0.38679,3.58375 0.69549,7.15427 1.08563,10.73886c-0.00016,0.62168 0.34745,5.04209 -0.83808,4.25665c-0.13349,-0.08844 -0.14782,-1.05298 -0.16537,-1.23426c-0.03519,-0.3635 -0.16424,-0.78773 -0.32031,-1.23293c0.08067,0.92082 0.15466,1.84125 0.3579,2.79676c0.77042,3.62216 1.44488,7.23234 2.05981,10.84438c0.60864,3.57508 0.30313,7.08608 0.66524,10.64838c0.15442,1.52855 0.05526,3.04253 0.0452,4.53619c-0.00121,0.18016 0.0205,1.15297 -0.13069,1.17923c-0.44278,0.07691 -0.89103,-1.24338 -1.17984,-2.5398c0.11076,2.34375 0.41331,4.70705 0.41786,7.03772c0.00465,3.48989 0.8992,7.19708 0.90086,10.69149c0,2.78792 0.59822,6.62698 -0.00264,9.31996c0.00065,0.06047 0.00128,0.11993 0.00193,0.17832l-0.00121,0.00089l0.00122,0.00031v0.00034l0.0007,0.00018l-0.00001,0.5v0c0,0.13807 -0.11394,0.2206 -0.25449,0.18434c-0.14043,-0.03623 -0.2543,-0.17735 -0.25449,-0.31531c0,-0.00001 0,-0.00003 0,-0.00004l-0.00069,-0.49923c-0.00101,-0.091 -0.00355,-0.18181 -0.00749,-0.27245zM255.1827,157.93647c0.15305,-0.43536 0.30795,-0.86349 0.47428,-1.28481c-0.21471,0.39296 -0.37419,0.74595 -0.43712,0.983c-0.02607,0.09822 -0.0361,0.19943 -0.03716,0.30182zM249.48899,183.17078c-0.10305,0.17294 -0.19893,0.34146 -0.28627,0.50247c-0.2153,0.39693 -0.29322,0.76801 -0.28867,1.25652c0.00179,0.19216 0.09118,0.78505 0.07179,0.58929c-0.07687,-0.77634 0.29876,-1.39727 0.45501,-2.12558c0.01597,-0.07418 0.03202,-0.14842 0.04813,-0.22271zM252.09748,248.45066c-0.59681,0.3494 -0.84163,0.72701 -0.94249,1.55706c-0.03898,0.3208 0.03405,1.3304 0.09802,1.01982c0.18434,-0.89511 0.50583,-1.73737 0.84448,-2.57688zM340.67356,226.40908c-0.09847,-0.48454 -0.28412,-1.03007 -0.48681,-1.58958c0.1223,0.39288 0.24756,0.78221 0.36222,1.16225c0.04281,0.14189 0.08431,0.28435 0.12459,0.42733z"/><path d="M372.27836,120.93184c-0.1158,-1.97508 -1.01194,-3.10914 -2.34621,-3.66827c0.88076,1.61066 1.74857,3.22248 2.7754,4.74774c0.61392,0.91223 1.20212,1.8465 1.78149,2.78845c-0.20877,-1.37799 -1.29536,-3.11015 -2.21068,-3.86792zM298.01652,217.84014l-0.00069,0.49923c0,0.00001 0,0.00003 0,0.00004c-0.00019,0.13797 -0.11405,0.27909 -0.25449,0.31531c-0.14055,0.03626 -0.25449,-0.04628 -0.25449,-0.18435v0l-0.00001,-0.5l0.0007,-0.00018v-0.00034l0.00122,-0.00031l-0.00121,-0.00089c0.00065,-0.05839 0.00128,-0.11786 0.00193,-0.17832c-0.60086,-2.69298 -0.00264,-6.53205 -0.00264,-9.31996c0.00167,-3.49442 0.89621,-7.20161 0.90086,-10.6915c0.00455,-2.33068 0.3071,-4.69397 0.41787,-7.03772c-0.28882,1.29642 -0.73707,2.61671 -1.17985,2.53981c-0.15118,-0.02626 -0.12948,-0.99907 -0.13069,-1.17923c-0.01006,-1.49365 -0.10922,-3.00763 0.0452,-4.53618c0.36212,-3.56231 0.0566,-7.0733 0.66524,-10.64839c0.61493,-3.61204 1.28939,-7.22223 2.05981,-10.84438c0.20324,-0.95551 0.27722,-1.87593 0.3579,-2.79676c-0.15608,0.4452 -0.28512,0.86943 -0.32032,1.23293c-0.01755,0.18128 -0.03188,1.14581 -0.16537,1.23425c-1.18554,0.78543 -0.83793,-3.63497 -0.83808,-4.25665c0.39015,-3.5846 0.69884,-7.15511 1.08563,-10.73886c0.22227,-2.05939 0.89843,-4.13764 1.14544,-6.18257c0.09092,-0.75266 0.00164,-1.5044 -0.01075,-2.25916c-0.1763,0.6808 -0.32582,1.38107 -0.36076,2.13078l-0.0543,0.06578l0.02003,0.00891l-0.2942,0.47984c-0.04598,0.07668 -0.12241,0.1388 -0.20893,0.16112c-0.1296,0.03343 -0.23657,-0.03413 -0.25245,-0.15312l-0.07153,-0.47287l0.03897,-0.01552c-0.75872,-2.66636 -0.13119,-6.63348 -0.1314,-9.49091c-0.00025,-3.52364 -0.0013,-6.99698 0.31427,-10.58952c0.23266,-2.64864 0.99488,-5.43461 1.32878,-8.07964c0.0131,-0.19219 0.0335,-0.37643 0.06304,-0.54885c0.02101,-0.20436 0.03902,-0.40773 0.05357,-0.61001l0.0379,-0.50623c0.00223,-0.0342 0.01123,-0.06833 0.02568,-0.10075c0.03203,-1.30865 0.12739,-2.62417 0.39504,-4.00141c0.70683,-3.63707 1.49375,-7.20684 2.26739,-10.84171c0.21316,-0.71811 0.46467,-2.05761 0.97515,-2.65516c0.52755,-0.61754 1.26326,-0.40899 1.73123,-0.20253c1.79763,0.79309 3.31793,1.85833 5.33016,2.3471c3.31484,0.81193 6.0856,1.61648 9.67576,1.69151c0.6451,0.73592 1.80992,-0.21021 2.75704,-0.19919c2.27769,0.02648 4.90954,0.17572 7.2847,-0.13069c1.90773,0.2857 4.01658,-0.44292 5.88399,-0.1875c1.15359,0.15779 2.69705,1.34996 3.61702,1.94431c2.53477,1.77836 5.46491,3.02723 7.96886,4.85755c2.98971,0.79224 5.6535,2.8954 8.12372,4.55273c1.97798,1.40846 3.86292,2.35812 5.8551,3.79052c0.57705,0.4149 1.55083,0.39703 1.89822,0.90893c0.99289,-0.25739 2.01033,-0.30461 2.94941,-0.1518c-0.18123,-0.32251 -0.36489,-0.64398 -0.55237,-0.96368c0,0 -0.11381,-0.19424 0.11381,-0.36477c0.22762,-0.17052 0.34143,0.02372 0.34143,0.02372c0.28516,0.48711 0.56152,0.97818 0.83401,1.47072c1.86642,0.54424 3.26648,1.95695 3.24998,4.14455c1.04511,0.73953 2.20905,2.94485 2.28189,4.34646l0.00332,0.06639c0,0 0.01131,0.22586 -0.21062,0.31334c0.95323,1.56126 1.89119,3.13602 2.89016,4.6595c1.59602,2.722 3.26473,5.39781 4.69364,8.24008c1.44453,2.87335 2.70697,5.79175 3.61095,8.90589c0.08749,0.30611 0.17472,0.61234 0.26173,0.91868l-0.00203,0.01999l0.00476,-0.0017l0.0516,0.48066c0.00111,0.00921 0.00169,0.01871 0.00169,0.02849c0,0.13807 -0.11394,0.2794 -0.25449,0.31566c-0.06286,0.01621 -0.1204,0.00867 -0.1648,-0.01699l-0.38868,-0.22009l0.01973,-0.0282c-2.51886,-0.91856 -4.52567,-3.07474 -7.27411,-3.72338c0.40948,3.30909 1.17153,6.36469 1.79994,9.58997c0.61315,3.14695 2.01084,6.17527 3.05202,9.15445c0.03423,0.06005 0.06787,0.12024 0.10092,0.18057c0.9982,1.18248 1.99119,2.3531 1.69072,4.13789l0.07714,-0.01424l-0.03776,0.50621c-0.00864,0.13261 -0.11903,0.26422 -0.25394,0.29903c-0.12976,0.03348 -0.23683,-0.0343 -0.25251,-0.15356l-0.06832,-0.45837c-0.52118,-1.47546 -0.97712,-2.86106 -1.72897,-4.19027c-0.06176,-0.17492 -0.12469,-0.35011 -0.18859,-0.52558c-0.64848,-0.60908 -1.14721,-0.59266 -0.93427,1.08189c0.4223,3.32105 1.72696,6.30589 2.49532,9.49177c1.43428,2.87482 1.93036,6.20785 3.34082,9.03023c1.12481,2.2508 1.87526,4.84543 2.486,7.44662c1.03639,1.30764 2.01946,3.01796 1.41267,3.94402c-0.96563,1.47372 -1.34925,-1.18295 -1.48639,-1.81754c-0.122,-0.5665 -0.24784,-1.13653 -0.38011,-1.70651c-0.36461,-0.49788 -0.76082,-0.97317 -1.15823,-1.35685c0.05324,0.62421 -0.0671,1.42705 -0.06715,1.91524c-0.00024,2.23541 -0.32415,4.83452 0.08663,6.92493c0.65305,3.36521 1.2719,6.50092 1.27231,10.09426l-0.00001,0.00001h0.00001v0.5v0c0,0.13807 -0.11394,0.27939 -0.25449,0.31565c-0.07122,0.01837 -0.13561,0.00624 -0.1818,-0.02817l-0.35631,-0.26484c-0.12749,-0.06551 -0.24724,-0.14975 -0.37693,-0.28287c-0.2418,-0.2482 -0.40447,-1.1774 -0.65695,-0.81001c-0.12491,0.18177 0.03331,1.51782 0.02776,1.7792c-0.039,1.83548 -0.01188,3.6565 -0.0139,5.48283c0.44083,3.35159 0.68312,6.7836 1.18527,10.09727c0.21871,1.4433 0.17228,2.96692 0.17367,4.48017v0.00027l0.00054,-0.00014l-0.00008,0.50002c-0.00002,0.13806 -0.11395,0.27936 -0.25449,0.31562c-0.14047,0.03624 -0.25436,-0.04619 -0.25449,-0.18412c0,-0.00001 0,-0.00002 0,-0.00003l-0.00046,-0.49985c-0.00001,-0.01083 -0.00002,-0.02165 -0.00002,-0.03247c-0.73636,-0.72224 -1.11555,-1.9783 -1.68612,-2.91151c-0.84886,-1.38836 -2.2643,-2.31734 -3.15028,-3.6869c0.06304,0.60867 -0.00215,1.35145 0.10476,1.86805c0.43845,2.11854 1.07023,4.29876 1.68535,6.33181c0.94528,3.13223 2.2007,6.11138 2.91562,9.35988c0.1437,0.65838 0.31165,1.34224 0.49588,2.02396c0.56458,0.94638 0.9504,1.9362 0.93292,2.91992l0.11648,-0.02972l-0.00146,0.50028c0,0.00003 0,0.00006 0,0.00009c-0.00039,0.13785 -0.11418,0.27874 -0.25449,0.31494c-0.11604,0.02993 -0.21393,-0.02111 -0.24455,-0.11752l-0.1506,-0.4328c-0.05872,-0.16875 -0.11704,-0.3407 -0.17483,-0.5153c-0.60016,-0.92521 -0.81007,-2.36482 -1.37396,-3.23284c-0.79151,-1.21839 -1.89247,-2.26771 -2.75904,-3.43713c-0.90365,-0.65589 -2.36979,-1.17829 -3.14152,-1.98553c0.04472,0.51902 -0.10091,1.1673 -0.05393,1.65344c0.23143,2.39433 0.8495,4.71505 1.68425,6.80855c0.67748,3.34453 2.26799,6.01415 3.0595,9.22248c0.16142,0.65431 0.38633,1.27975 0.62839,1.89568c0.24781,0.23506 0.45384,0.41452 0.59933,0.49122c0.52649,0.28132 2.24666,3.77105 0.4338,3.6316c-0.07096,-0.00546 -0.45125,-1.30358 -0.50866,-1.45654c-0.27313,-0.72766 -0.59379,-1.43088 -0.89305,-2.1453c-0.81434,-0.66541 -1.44586,-1.56328 -2.45769,-2.01031c-0.06295,-0.02781 -0.96979,-0.51059 -1.03854,-0.4409c-0.50435,0.51125 -0.1464,3.6503 -0.1469,4.30128c-0.0087,0.98416 0.60105,1.69876 0.84182,2.5782c0.62001,2.26474 0.82309,4.68638 1.60634,6.88988c1.09753,3.08766 1.7637,6.30175 2.63324,9.4992c0.21618,0.79494 0.32457,1.5611 0.34153,2.43496l0.00954,0.49668c0.00004,0.0018 0.00006,0.00362 0.00006,0.00545c0,0.13807 -0.11394,0.27939 -0.25449,0.31565c-0.11065,0.02855 -0.20481,-0.01654 -0.23986,-0.10439l-0.17945,-0.41536l0.08743,-0.05535c-0.26934,-0.53269 -0.38693,-1.12572 -0.74223,-1.62489c-0.6657,-0.93525 -2.22773,-1.57295 -3.14527,-2.31375c0.14357,0.69668 -0.07925,1.6967 0.01221,2.40321c0.29321,2.26509 0.6419,4.38409 1.36714,6.44955c0.96953,2.76121 2.05617,6.62705 2.14648,9.75771c0.03348,1.16072 0.04459,2.32503 0.0452,3.49468l-0.00004,0.00005l0.00004,-0.00001v0.00008l0.00015,-0.00004l-0.00005,0.50001v0c-0.00001,0.13806 -0.11394,0.27938 -0.25449,0.31563c-0.14053,0.03625 -0.25445,-0.04626 -0.25449,-0.1843v0l-0.00009,-0.41036c-2.62209,-1.02251 -4.53618,-3.22456 -7.32762,-3.98103c-0.24757,-0.06811 -0.36352,-0.48762 -0.64199,-0.37415c-0.12274,0.05002 -0.11112,2.05307 -0.11358,2.25624c-0.0266,2.20494 0.39232,4.61424 1.18451,6.46645c0.89505,2.0927 1.93226,5.35876 1.96461,7.82505l0.00381,0.49868c0.00001,0.00072 0.00001,0.00146 0.00001,0.00219c0,0.13807 -0.11394,0.27939 -0.25449,0.31565c-0.07856,0.02026 -0.1488,0.00342 -0.19548,-0.03949l-0.32748,-0.29597l0.02256,-0.02456c-2.2222,-1.34965 -4.23587,-4.02695 -6.58106,-4.62568c0.34677,1.09693 -0.03421,2.56967 0.08879,3.76126c0.2112,2.04602 0.77626,4.07292 1.49899,5.86149c0.64732,1.62887 0.70869,4.39491 0.76211,6.29616l-0.0006,0.00254l0.00063,-0.00017l0.00417,0.49856c0.00001,0.00079 0.00001,0.00159 0.00001,0.00239c0,0.13807 -0.11394,0.27939 -0.25449,0.31565c-0.09857,0.02543 -0.18405,-0.00757 -0.22632,-0.07718l-0.23964,-0.37347l0.02463,-0.01945c-1.7978,-1.73267 -2.49945,-3.99737 -5.24407,-4.91111c0.11006,1.3755 -0.3987,5.37903 -0.88297,6.048c-0.73011,1.00858 -2.86346,0.34605 -3.65463,0.27722c-2.97561,-0.25987 -7.3166,-0.64753 -9.48836,3.06678c-1.89675,3.08438 -6.38926,5.5212 -9.60517,6.35784c-3.58815,0.93345 -7.09051,1.39981 -10.6541,2.30849c-3.61319,0.92133 -7.07538,2.26595 -10.58405,3.17174c-3.64892,0.94146 -7.0083,0.6397 -10.5122,1.42057c-3.23187,0.64231 -6.51903,-1.63338 -8.70968,-3.05428c-2.40654,-1.71414 -5.48203,-3.30867 -7.49831,-5.53938c-2.0352,-2.26099 -4.29098,-4.47272 -6.60959,-6.43518c-2.55992,-1.88823 -4.38899,-3.99641 -6.43275,-6.43921c-0.57205,-0.45875 -0.57481,-1.38275 -0.95945,-2.05034c-1.12567,-1.95369 -2.50902,-4.38585 -2.74075,-6.80659c-0.03656,-1.39252 -0.47773,-3.66341 -0.00044,-5.10134c0.57336,-1.72735 1.97022,-3.7477 2.31701,-5.49887c0.73463,-3.59077 1.93908,-7.26827 3.04347,-10.85735c0.16076,-0.79343 0.37579,-1.56257 0.61811,-2.32653c-0.00645,-0.00333 -0.01293,-0.00677 -0.01943,-0.01031c-0.82522,-0.44896 0.51126,-5.33547 0.65101,-6.32933c0.50177,-3.56837 0.54681,-7.24516 1.75442,-10.81815c0.81722,-2.40487 0.74457,-4.81636 1.7859,-7.23971l0.21636,-0.50224c0.03983,-0.09726 0.12882,-0.18078 0.2322,-0.20745c0.1348,-0.03478 0.24512,0.03972 0.25392,0.16769l0.03848,0.48645l-0.07789,0.02592c0.0919,0.56396 0.12389,1.1499 0.36069,1.57939c0.07829,0.14199 0.09741,-0.37599 0.09506,-0.55487c-0.0064,-0.48669 -0.02586,-1.03485 0.03691,-1.535c0.21143,-1.68476 0.7845,-3.49929 1.18782,-5.19824c0.85791,-3.61381 1.079,-7.16581 1.71286,-10.77286c0.52156,-2.96798 0.79183,-6.17072 1.49943,-9.20045c-0.01982,0.00998 -0.04056,0.01792 -0.06192,0.02343c-0.14032,0.0362 -0.25411,-0.04601 -0.25448,-0.18368c0,-0.00003 0,-0.00005 0,-0.00008l-0.00136,-0.49956l0.03945,-0.01028c-0.64525,-2.7258 -0.04045,-6.61968 -0.04045,-9.49013c0,-3.48061 0.4518,-7.08365 0.4527,-10.59128c0.00025,-0.99044 0.00032,-1.98084 0.00033,-2.97122c-0.22787,1.27732 -0.61054,2.55228 -0.77314,3.85703c0.0028,0.27797 -0.0132,0.55361 -0.06883,0.80194c-0.00394,0.09064 -0.00648,0.18146 -0.00749,0.27245zM384.49768,166.6402c-0.06293,-0.23704 -0.22242,-0.59004 -0.43712,-0.983c0.16633,0.42132 0.32123,0.84946 0.47428,1.28482c-0.00105,-0.10238 -0.01108,-0.2036 -0.03715,-0.30182zM390.27668,192.39903c0.15625,0.72831 0.53189,1.34923 0.45501,2.12558c-0.01938,0.19575 0.07,-0.39713 0.07179,-0.58929c0.00455,-0.48852 -0.07337,-0.85959 -0.28867,-1.25652c-0.08734,-0.16101 -0.18321,-0.32953 -0.28627,-0.50248c0.01611,0.0743 0.03216,0.14853 0.04813,0.22271zM388.46453,260.03309c0.06396,0.31058 0.137,-0.69903 0.09802,-1.01982c-0.10086,-0.83006 -0.34568,-1.20766 -0.94249,-1.55707c0.33864,0.83952 0.66013,1.68177 0.84447,2.57689zM299.16855,234.98729c0.11466,-0.38003 0.23992,-0.76936 0.36221,-1.16224c-0.20269,0.55952 -0.38834,1.10504 -0.48681,1.58958c0.04028,-0.14299 0.08179,-0.28545 0.1246,-0.42733z"/></g><path d="M260.40161,461.96928c0,0 5.17521,-49.09666 4.79135,-83.60764c-0.47034,-42.28509 -7.40705,-151.55132 -7.40705,-151.55132c0,0 -4.72006,-15.76506 -0.3204,-27.24252c3.42,-8.92184 15.23813,-14.15451 20.50795,-14.43749c11.96583,-0.64256 40.32827,-1.53133 65.10214,-2.8617c13.40167,-0.71967 29.01156,-1.50626 34.46629,9.01551c5.48193,10.57424 0.77524,32.45893 0.77524,32.45893c0,0 -3.29509,102.38098 -3.24427,144.91623c0.04586,38.38282 3.53583,99.11992 3.53583,99.11992z" fill="#000000" stroke="#000000" stroke-width="2.5" stroke-linecap="butt"/><path d="M288.88865,183.15382c0.92988,0.77816 2.23712,0.6186 3.33051,1.04555c0.88027,0.34373 1.40518,1.40338 2.26129,1.93682c2.63769,1.64361 5.87752,2.10951 8.73844,2.73582c0.75777,0.16589 5.21748,0.30213 5.49797,1.18194c0.13229,0.41498 -2.7472,5.31574 -3.11387,5.89514c-3.52005,5.56224 -7.59715,10.41423 -13.34082,11.60815c-1.01059,0.21006 -5.52697,1.58256 -6.16356,0.2528c-0.45948,-0.95978 0,-4.23283 0,-5.39988c0,-4.03546 -0.07701,-8.59462 0.92111,-12.45008c0.57873,-2.23545 1.38992,-4.41319 1.38992,-6.85547z" fill="url(#color-1)" stroke="#000000" stroke-width="2.5" stroke-linecap="round"/><path d="M308.92178,191.2058c1.43779,-0.02066 2.04919,-1.07965 3.31818,-1.36699c4.65388,-1.05383 10.84381,-3.57642 15.30905,-1.49901c0.67028,0.31185 1.8663,1.09183 2.00585,2.10299c0.4421,3.20332 -3.14009,16.07153 -4.5664,19.21658c-0.83912,1.85029 -1.10837,4.24106 -2.60939,5.55585c-2.4177,2.11772 -5.14683,-0.70049 -6.98172,-1.89365c-1.02929,-0.6693 -2.08896,-0.96969 -2.76014,-2.28368c-1.68797,-3.3046 -4.39895,-16.89505 -4.06384,-20.91202z" fill="url(#color-2)" stroke="#000000" stroke-width="2.5" stroke-linecap="round"/><path d="M319.62676,215.82305c9.3081,3.22317 5.3304,10.32241 6.64336,19.83743c0.67354,4.88106 2.71323,9.36916 2.41796,14.57306c-0.29574,5.21217 -1.25591,12.76357 -6.3964,13.61538c-1.42621,0.23633 -5.11353,0.55773 -6.17561,-0.68461c-1.06857,-1.24992 -1.3436,-4.79126 -1.65268,-6.60921c-1.52692,-8.98112 -0.21715,-16.51099 1.02917,-25.59008c0.56223,-4.09565 -0.26587,-12.92326 3.38077,-15.18461z" fill="url(#color-3)" stroke="#000000" stroke-width="2.5" stroke-linecap="round"/><path d="M348.15419,181.66345c0,2.44229 0.81121,4.62002 1.38992,6.85547c0.99812,3.85546 0.92111,8.4146 0.92111,12.45008c0,1.16706 0.45948,4.44009 0,5.39988c-0.6366,1.32976 -5.15297,-0.04272 -6.16355,-0.25279c-5.74368,-1.19391 -9.82078,-6.04589 -13.34082,-11.60815c-0.36667,-0.5794 -3.24617,-5.48015 -3.11387,-5.89514c0.28049,-0.87981 4.7402,-1.01606 5.49797,-1.18194c2.86093,-0.62631 6.10075,-1.09222 8.73845,-2.73582c0.8561,-0.53346 1.381,-1.59309 2.26128,-1.93682c1.09339,-0.42695 2.40063,-0.26739 3.33051,-1.04555z" fill="url(#color-4)" stroke="#000000" stroke-width="2.5" stroke-linecap="round"/><path d="M371.81961,142.76184c-1.88771,28.74758 -27.16115,53.41057 -56.51455,51.33535c-29.3534,-2.07522 -51.67123,-30.10282 -49.78352,-58.85038c0.47339,-7.2092 5.76672,-10.27067 6.31902,-13.39554c1.58202,-8.95095 0.655,-5.83559 20.02756,-4.01775c0.8332,0.07818 5.74313,-8.23524 6.64999,-8.17114c7.75898,0.54854 5.7078,-1.27049 15.7958,-1.14249c5.96247,0.07565 8.88236,3.30189 15.80618,4.40848c6.54489,1.04604 17.13348,-0.06229 21.56819,1.24652c5.04099,1.48773 8.31835,2.16744 11.62837,5.7346c2.10885,2.27268 1.96653,6.60837 3.42121,9.80432c2.13454,4.68953 5.37801,8.53653 5.08177,13.04803z" fill="#000000" stroke="#000000" stroke-width="2.5" stroke-linecap="butt"/><path d="M404.74829,109.27504c0,11.57764 -38.6687,20.96319 -86.36895,20.96319c-47.70025,0 -86.36894,-9.38554 -86.36894,-20.96319c0,-11.57764 38.6687,-20.96321 86.36895,-20.96321c47.70025,0 86.36895,9.38554 86.36895,20.96321z" fill="#000000" stroke="#000000" stroke-width="2.5" stroke-linecap="butt"/><path d="M272.68026,109.27504c0,0 -13.10045,-39.6542 0,-57.51709c13.10045,-17.86288 30.69715,-15.93221 45.98587,-15.93221c15.04171,0 34.57466,1.22155 45.01754,15.93222c10.44286,14.71068 0,57.51709 0,57.51709z" fill="#000000" stroke="#000000" stroke-width="2.5" stroke-linecap="butt"/><path d="M267.70282,91.10694v-6.98773c0,0 35.06678,2.96189 51.8176,2.96189c16.23148,0 47.17838,-2.96189 47.17838,-2.96189v6.98773c0,0 -31.09755,2.96189 -47.55899,2.96189c-16.53687,0 -51.437,-2.96189 -51.437,-2.96189z" fill="url(#color-5)" stroke="#000000" stroke-width="2.5" stroke-linecap="butt"/><path d="M299.35128,132.54119c-0.57542,-0.17649 -1.16337,-0.30777 -1.76327,-0.39969c0.67275,0.192 1.29411,0.44545 1.86154,0.75132c0.32608,0.07496 0.65019,0.16119 0.97198,0.25968c-0.25407,-0.14568 -0.50921,-0.29436 -0.76228,-0.44857l-0.15221,-0.03674c0,0 -0.13786,-0.042 -0.15578,-0.12601zM280.41841,135.90132c0.31385,-0.34123 0.71776,-0.66939 1.22505,-0.98013c0.32266,-0.19661 0.66525,-0.3804 1.02445,-0.55281c1.37467,-1.37524 3.52794,-2.2452 6.1728,-2.68508c-1.5931,0.11076 -3.15922,0.35083 -4.73678,0.77393c-1.68959,0.77553 -2.96771,2.08219 -3.68551,3.4441zM302.12554,134.88903c-0.12709,-0.16927 -0.2592,-0.33811 -0.39736,-0.50462c-0.16865,-0.08808 -0.34852,-0.16819 -0.53798,-0.2412c0.2436,0.22958 0.46977,0.47205 0.67805,0.72589c0.50155,0.61155 0.80828,1.24125 0.94285,1.87568c-0.08177,-0.555 -0.26836,-1.0999 -0.58478,-1.62178c-0.03109,-0.07946 -0.06471,-0.15745 -0.10079,-0.23397zM292.46214,145.13792c-0.88804,-0.03553 -1.76909,-0.10892 -2.63906,-0.21689c-0.21615,0.01053 -0.43353,0.01849 -0.6523,0.0238c0.10843,0.02552 0.21808,0.05054 0.32902,0.07506c0.53361,0.11863 1.07928,0.21404 1.63128,0.28515c0.42005,-0.0339 0.83358,-0.084 1.23714,-0.15148c0.0312,-0.00519 0.06251,-0.0104 0.09393,-0.01565zM289.41007,145.35687c-0.03289,-0.00708 -0.06574,-0.01425 -0.09854,-0.0215c-0.53908,-0.11971 -1.0505,-0.25087 -1.53843,-0.39318c-0.45819,-0.01277 -0.92372,-0.03736 -1.39817,-0.07459c-3.90137,-0.34023 -6.55678,-1.87996 -6.98973,-4.31628c-0.0596,-0.34172 -0.05622,-0.69759 0.00171,-1.06022c-0.03861,-0.1344 -0.07078,-0.27021 -0.09653,-0.40728c-0.51128,1.97561 0.05602,3.55952 3.04114,4.88685c1.97289,0.80129 4.55896,1.34251 7.07853,1.38619zM284.63459,134.17723c-0.29505,0.14106 -0.58349,0.29694 -0.86505,0.46868c-0.58591,0.35444 -1.1471,0.78478 -1.65165,1.26196c-1.01442,1.46691 -1.19344,3.0807 -0.30921,4.50893c-0.35746,-0.75913 -0.21625,-1.57026 0.22373,-2.34784c0.02587,-0.33321 0.09501,-0.67503 0.21095,-1.02656c0.33556,-0.61809 0.81719,-1.13921 1.40874,-1.588c0.37052,-0.39828 0.85075,-0.77359 1.44047,-1.11322c0.46724,-0.23297 0.97792,-0.47837 1.52031,-0.71973c0.13555,-0.08651 0.27382,-0.17115 0.41485,-0.25383c-0.09693,0.02129 -0.19335,0.04366 -0.28926,0.06712c-0.28177,0.0906 -0.56103,0.18192 -0.83765,0.27327c-0.42645,0.14068 -0.85065,0.29756 -1.26625,0.46923zM284.38685,142.50665c-0.01589,-0.01388 -0.03171,-0.02776 -0.04747,-0.04165c-0.51964,-0.22311 -0.99559,-0.48639 -1.41345,-0.79844c0.08955,0.07385 0.18285,0.14674 0.27993,0.21862c0.31275,0.23526 0.71489,0.44135 1.18099,0.62148zM284.06525,133.78015c1.2921,-0.47924 2.71761,-0.85541 4.15929,-1.17827c0.37794,-0.11019 0.75951,-0.21694 1.14448,-0.31891c0.59357,-0.21081 1.22369,-0.39145 1.89228,-0.53758c-0.38225,0.02641 -0.75964,0.06044 -1.1307,0.10251c-2.48256,0.27921 -4.569,0.90154 -6.06535,1.93224zM301.01099,132.42915c0.41018,0.21218 0.80611,0.45651 1.18721,0.73536c0.42591,0.36297 0.80503,0.71286 1.13979,1.05761c-0.33103,-0.76352 -0.97992,-1.40848 -2.13464,-1.75454c-0.06387,-0.01294 -0.12799,-0.02576 -0.19236,-0.03844zM286.53972,144.54191c-0.46418,-0.16675 -0.90722,-0.34507 -1.33366,-0.53462c-0.37975,-0.10376 -0.75548,-0.2137 -1.12678,-0.3295c-1.95331,-0.71588 -3.31233,-1.71906 -4.08835,-2.89016c0.53938,2.12627 2.95779,3.44322 6.45813,3.74733c0.03026,0.00237 0.06047,0.00469 0.09065,0.00696zM291.83541,133.05056c-0.55021,0.06664 -1.09862,0.14317 -1.64365,0.22468c-0.16512,0.06229 -0.32919,0.12575 -0.49212,0.1903c-1.63281,0.87897 -2.90425,1.99734 -3.61619,3.28187c-0.81169,1.46167 -0.91815,2.97338 -0.01972,4.30912c1.21235,0.67568 2.6278,1.18385 4.12386,1.59901c1.40514,0.07351 2.76161,0.02607 3.78462,-0.14246c2.31681,-0.27192 5.76238,-1.58178 7.72938,-2.83886c0.89146,-1.51882 0.91395,-3.14458 -0.32612,-4.65498c-0.35655,-0.43453 -0.76743,-0.835 -1.23122,-1.19183c-2.0555,-0.4837 -4.72285,-0.46171 -6.64474,-0.65105c-0.56336,-0.05592 -1.11838,-0.09892 -1.66411,-0.12579zM295.23037,144.6098c0.36164,-0.0807 0.72376,-0.16742 1.0818,-0.26099c-0.87817,0.11999 -1.80533,0.1639 -2.73148,0.13408c-0.5593,0.10095 -1.1196,0.18751 -1.68442,0.25781c0.93699,0.02217 1.90254,-0.01645 2.87531,-0.09054c0.1528,-0.01149 0.30579,-0.02496 0.45879,-0.04036zM286.4013,142.14424c-0.31851,-0.28661 -0.58367,-0.58484 -0.7985,-0.89218c-0.4325,-0.24533 -0.83986,-0.51158 -1.21699,-0.80193c-0.7531,-0.5812 -1.25134,-1.22453 -1.49543,-1.88556c-0.09742,0.25152 -0.16715,0.50186 -0.19702,0.74536c0.16202,0.60544 0.47746,1.18195 0.91665,1.73958c0.12441,0.07174 0.26308,0.13912 0.41703,0.20166c0.58076,0.36846 1.4148,0.66619 2.37425,0.89307zM304.5617,137.04381c-0.01502,0.11023 -0.03366,0.22037 -0.0558,0.33038c0.50338,1.4895 0.38992,3.06705 -1.00205,4.35378c-1.4642,1.48363 -4.04712,2.54198 -6.80434,3.0221c0.81826,-0.05371 1.61131,-0.14347 2.36332,-0.29201c0.06403,-0.02623 0.12766,-0.05299 0.19089,-0.0803c3.06344,-1.1672 5.55853,-2.96905 5.58101,-5.28771c0.01026,-0.75672 -0.07647,-1.42486 -0.27301,-2.04623zM285.50181,143.72047c0.34084,0.09233 0.68494,0.17953 1.03201,0.26136c-0.4747,-0.22825 -0.92216,-0.4983 -1.33732,-0.81571c-0.02121,-0.01622 -0.04235,-0.03244 -0.06339,-0.04868c-0.95369,-0.26326 -1.77708,-0.59771 -2.35275,-1.01902c-1.81179,-1.34322 -2.39123,-3.03043 -1.95365,-4.6786c-0.3021,0.45064 -0.54318,0.91398 -0.70481,1.37321c0.15016,0.77645 0.53811,1.5598 1.01953,2.30734c1.40741,1.02072 2.76157,1.90212 4.36039,2.62008zM299.59673,143.14957c0.63308,-0.33609 1.16786,-0.72141 1.55191,-1.16558c-0.78589,0.44948 -1.56334,0.82655 -2.38486,1.12853c-0.51457,0.21696 -1.06079,0.40543 -1.63551,0.56016c-0.18215,0.04889 -0.36365,0.09672 -0.54461,0.14342c0.29699,0.00168 0.58524,-0.00901 0.86448,-0.03222c0.03961,-0.00988 0.07901,-0.01997 0.1182,-0.03026c0.73794,-0.19267 1.41549,-0.3904 2.03038,-0.60406zM301.16283,140.45184c-2.07149,1.11076 -4.96616,2.12401 -7.06451,2.38802c-0.71588,0.11841 -1.55788,0.18038 -2.45553,0.18769c0.66655,0.15776 1.34091,0.30246 2.01305,0.44023c2.94239,-0.0719 5.14644,-0.84198 7.0184,-2.46043c0.17528,-0.1825 0.33842,-0.36782 0.48859,-0.5555zM291.83434,143.43052c-0.59839,-0.13725 -1.19167,-0.28382 -1.77346,-0.44373c-0.68977,-0.04015 -1.38785,-0.10927 -2.06625,-0.20665c0.24221,0.14198 0.50405,0.27336 0.78221,0.39397c1.01252,0.12229 2.04624,0.1948 3.03656,0.25514c0.00698,0.00043 0.01396,0.00085 0.02094,0.00127zM284.30521,136.26288c-0.33098,0.44284 -0.72109,0.97117 -1.03647,1.52266c0.06467,0.85602 0.58152,1.71089 1.54933,2.45647c0.12031,0.09292 0.2439,0.18327 0.37058,0.27116c-0.53092,-1.23379 -0.34905,-2.57326 0.37291,-3.87335c0.44461,-0.79917 1.09556,-1.53793 1.91032,-2.19877c-0.59936,0.28712 -1.17503,0.58258 -1.72215,0.87913c-0.48591,0.26282 -0.98199,0.58318 -1.44453,0.9427zM302.10943,141.9193c0.91863,-0.67371 1.49159,-1.5233 1.69164,-2.67783c-0.20799,0.37706 -0.45121,0.74552 -0.72369,1.10123c-0.19819,0.43062 -0.44552,0.85595 -0.73893,1.27311c-0.07349,0.10448 -0.14984,0.20563 -0.22902,0.30348zM300.42139,141.75785c0.75428,-0.52729 1.38368,-1.12679 1.86403,-1.76166c0.04089,-0.0966 0.08002,-0.19368 0.11725,-0.29115c-0.07267,0.05013 -0.14769,0.10036 -0.22493,0.15061c-0.27539,0.45586 -0.62521,0.90214 -1.04016,1.33333c-0.23309,0.2019 -0.4716,0.39145 -0.71617,0.56887zM286.9815,142.61031c-1.00192,-0.19361 -1.92368,-0.45323 -2.66339,-0.77626c0.1348,0.13276 0.27618,0.26467 0.4237,0.39588c0.84724,0.35424 1.81631,0.59749 2.83568,0.77137c-0.0206,-0.01224 -0.04106,-0.02457 -0.0614,-0.03695c-0.18912,-0.11532 -0.36723,-0.2334 -0.5346,-0.35403zM284.34952,135.46736c-0.08173,0.05585 -0.16154,0.11294 -0.23937,0.17136c-0.17377,0.18879 -0.32082,0.38301 -0.44117,0.58111c0.05342,-0.04391 0.10742,-0.08736 0.16193,-0.1303c0.08646,-0.11669 0.16954,-0.22813 0.24721,-0.33339c0.08853,-0.09719 0.17897,-0.19347 0.27139,-0.28877zM291.71496,143.97719c0.58711,0.08898 1.1914,0.14554 1.79667,0.16887c0.30408,-0.05578 0.60793,-0.11593 0.9122,-0.18009c-0.44394,0.02555 -0.90893,0.03784 -1.39853,0.03666c-0.40315,-0.00098 -0.84404,-0.00891 -1.31035,-0.02544zM304.54594,135.63595c0.21585,0.29037 0.39061,0.60514 0.51433,0.95234c1.26659,1.92625 0.19291,4.56495 -1.58526,6.22059c-1.11006,1.02997 -2.53481,1.61375 -4.13973,1.94224c-2.42861,0.9895 -5.40439,1.24143 -8.22737,0.89228c-3.13084,0.23233 -6.56916,-0.37257 -9.09159,-1.3974c-3.53638,-1.57165 -3.92604,-3.52076 -3.0283,-5.98292c0.07166,-0.19592 0.16179,-0.38894 0.26877,-0.57872c0.2881,-2.01433 1.96998,-4.33362 4.56794,-5.51654c3.18826,-0.87523 6.36854,-1.01092 9.781,-0.8275c0.1364,0.0008 0.27299,0.00239 0.40973,0.00472c0.55339,-0.04702 1.09445,-0.07232 1.62258,-0.07327c0.24831,-0.00889 0.49737,-0.01349 0.74712,-0.01349c4.04019,0 6.82858,0.88552 7.8873,3.42362c0.12961,0.31375 0.21967,0.63253 0.27348,0.95405zM302.59511,139.01554c0.0161,-0.01425 0.03193,-0.02848 0.04747,-0.04266c0.03082,-0.11336 0.0587,-0.22702 0.08341,-0.34085c-0.03749,0.12823 -0.08119,0.2561 -0.13088,0.38351zM280.08984,137.65912c0.32648,-0.55142 0.74546,-1.09031 1.2277,-1.59119c-0.42251,0.33926 -0.79333,0.69851 -1.09609,1.07414c-0.06123,0.17055 -0.10452,0.34307 -0.13161,0.51705zM303.38361,136.18001c0.06808,0.20581 0.123,0.41246 0.16512,0.61966c0.01313,-0.08346 0.025,-0.16765 0.03538,-0.25239c-0.0634,-0.12381 -0.1304,-0.24632 -0.20049,-0.36728zM289.53855,143.84374c-1.10109,-0.09704 -2.2355,-0.24462 -3.28185,-0.45894c1.05728,0.63767 2.28846,1.00786 3.62038,1.19735c0.75381,-0.03939 1.49224,-0.11097 2.22387,-0.21028c-0.89698,-0.10649 -1.76703,-0.28329 -2.5624,-0.52813zM287.42922,133.67621c0.71787,-0.2291 1.4696,-0.4369 2.23413,-0.63775c-0.23474,0.01038 -0.4673,0.02493 -0.69759,0.04399c-0.52891,0.18257 -1.04419,0.38468 -1.53654,0.59376zM300.83262,143.06792c-0.02919,0.01892 -0.05858,0.0376 -0.08816,0.05602c0.09009,-0.04381 0.17897,-0.08845 0.26655,-0.13389c-0.05875,0.02622 -0.11821,0.05216 -0.17839,0.07787zM285.45448,135.03106c0.58738,-0.31643 1.20565,-0.6309 1.84943,-0.93515c-0.4681,0.15693 -0.91909,0.32477 -1.34582,0.50842c-0.1735,0.13911 -0.34131,0.28148 -0.5036,0.42672zM299.4525,133.35243c-0.09305,-0.05682 -0.18783,-0.11207 -0.28431,-0.16567c-1.75633,-0.39273 -3.56839,-0.44226 -5.3809,-0.32264c1.71062,0.15739 3.82234,0.18816 5.6652,0.48831zM286.69655,141.80686c0.18561,0.18033 0.393,0.35617 0.62305,0.52684c0.38023,0.06802 0.77232,0.12627 1.16971,0.17476c-0.62251,-0.2106 -1.2231,-0.4426 -1.79275,-0.7016zM294.27831,145.16064c-0.52928,0.10359 -1.05029,0.19636 -1.55066,0.28086c1.52806,0.06466 3.06228,-0.06003 4.48519,-0.39617c-0.94862,0.0803 -1.93414,0.1083 -2.93453,0.11531zM295.45902,144.09268c-0.02504,0.00583 -0.05009,0.01165 -0.07513,0.01743c0.04656,-0.00368 0.09301,-0.00759 0.13937,-0.0117c-0.02139,-0.00186 -0.04279,-0.00378 -0.06425,-0.00574zM291.84136,132.70674c2.02659,-0.24042 4.07697,-0.34024 6.07513,-0.08532c-1.03033,-0.36888 -2.20729,-0.57416 -3.52416,-0.56915c-0.86343,0.17212 -1.71672,0.39473 -2.55097,0.65447zM283.17094,141.26317c-0.07664,-0.04515 -0.14842,-0.09173 -0.2155,-0.13965c0.10621,0.09921 0.21801,0.1939 0.33503,0.28432c-0.04071,-0.04809 -0.08056,-0.09631 -0.11953,-0.14467zM290.42093,132.68517c0.06945,-0.03047 0.13939,-0.06055 0.20979,-0.09026c-0.12329,0.02908 -0.24636,0.05981 -0.36912,0.09204c0.05302,-0.00078 0.10613,-0.00137 0.15934,-0.00178z" fill="#ffffff" stroke="none" stroke-width="0.5" stroke-linecap="butt"/><path d="M335.38117,142.46686c0.55497,0.1508 1.12201,0.26299 1.70058,0.34152c-0.64883,-0.16407 -1.2481,-0.38064 -1.79535,-0.642c-0.31449,-0.06405 -0.62708,-0.13774 -0.93744,-0.2219c0.24503,0.12449 0.49111,0.25154 0.73516,0.3833l0.1468,0.03139c0,0 0.13296,0.03589 0.15023,0.10768zM353.64086,139.59565c-0.30268,0.29158 -0.69222,0.57199 -1.18149,0.83751c-0.31118,0.16799 -0.64161,0.32505 -0.98803,0.47237c-1.32579,1.17513 -3.4025,1.91851 -5.95332,2.29439c1.53646,-0.09465 3.0469,-0.29978 4.56836,-0.66132c1.62951,-0.66269 2.86219,-1.77921 3.55448,-2.94296zM332.70556,140.46065c0.12257,0.14464 0.24998,0.28891 0.38324,0.43119c0.16265,0.07526 0.33613,0.14371 0.51884,0.20609c-0.23494,-0.19617 -0.45305,-0.40336 -0.65394,-0.62026c-0.48371,-0.52256 -0.77954,-1.06064 -0.90934,-1.60276c0.07886,0.47424 0.25883,0.93986 0.56399,1.3858c0.02998,0.0679 0.0624,0.13454 0.09721,0.19993zM342.02535,131.70303c0.85646,0.03035 1.70619,0.09307 2.54522,0.18533c0.20847,-0.009 0.41812,-0.0158 0.62912,-0.02033c-0.10458,-0.0218 -0.21033,-0.04318 -0.31732,-0.06413c-0.51464,-0.10136 -1.04091,-0.18289 -1.57328,-0.24366c-0.40512,0.02897 -0.80393,0.07177 -1.19315,0.12944c-0.03008,0.00442 -0.06028,0.00888 -0.09058,0.01337zM344.96892,131.51595c0.03172,0.00605 0.0634,0.01217 0.09504,0.01836c0.51991,0.10229 1.01315,0.21437 1.48373,0.33597c0.4419,0.01091 0.89088,0.03193 1.34844,0.06373c3.76266,0.29073 6.32366,1.60642 6.74121,3.68824c0.05749,0.29199 0.05422,0.59608 -0.00166,0.90595c0.03724,0.11485 0.06827,0.23089 0.0931,0.34802c0.4931,-1.68814 -0.05403,-3.04158 -2.93302,-4.17579c-1.90274,-0.6847 -4.39686,-1.14717 -6.82684,-1.18449zM349.5746,141.06887c0.28454,-0.12054 0.56274,-0.25374 0.83429,-0.40049c0.56507,-0.30287 1.10631,-0.67059 1.59291,-1.07833c0.97835,-1.25347 1.151,-2.63244 0.29823,-3.85285c0.34475,0.64867 0.20857,1.34178 -0.21577,2.00621c-0.02495,0.28474 -0.09164,0.57681 -0.20345,0.8772c-0.32362,0.52815 -0.78814,0.97345 -1.35865,1.35694c-0.35735,0.34033 -0.8205,0.66103 -1.38925,0.95124c-0.45062,0.19907 -0.94315,0.40876 -1.46626,0.615c-0.13073,0.07392 -0.26409,0.14625 -0.40011,0.2169c0.09348,-0.01819 0.18648,-0.0373 0.27898,-0.05735c0.27175,-0.07742 0.54108,-0.15545 0.80786,-0.2335c0.41128,-0.12021 0.8204,-0.25427 1.22123,-0.40095zM349.81351,133.95143c0.01532,0.01186 0.03057,0.02372 0.04577,0.03559c0.50117,0.19064 0.9602,0.41562 1.3632,0.68226c-0.08636,-0.0631 -0.17634,-0.12539 -0.26999,-0.18681c-0.30163,-0.20103 -0.68947,-0.37713 -1.13898,-0.53105zM350.12366,141.40817c-1.24617,0.40951 -2.62099,0.73094 -4.01141,1.00682c-0.3645,0.09415 -0.73251,0.18538 -1.10379,0.2725c-0.57247,0.18014 -1.18017,0.33449 -1.825,0.45936c0.36865,-0.02256 0.73263,-0.05163 1.09049,-0.08758c2.39429,-0.23858 4.40655,-0.77036 5.84969,-1.6511zM333.78048,142.5626c-0.39561,-0.18131 -0.77744,-0.39009 -1.14499,-0.62836c-0.41076,-0.31016 -0.77642,-0.60913 -1.09927,-0.90372c0.31926,0.65242 0.94508,1.20353 2.05875,1.49924c0.06159,0.01106 0.12343,0.02201 0.18551,0.03285zM347.7372,132.21231c0.44768,0.1425 0.87496,0.29487 1.28624,0.45683c0.36624,0.08866 0.72861,0.1826 1.08671,0.28156c1.88384,0.61171 3.19456,1.46892 3.94298,2.46963c-0.52019,-1.81689 -2.85263,-2.94221 -6.22851,-3.20207c-0.02918,-0.00203 -0.05832,-0.00401 -0.08743,-0.00595zM342.62981,142.03161c0.53064,-0.05695 1.05955,-0.12235 1.58521,-0.19199c0.15925,-0.05322 0.31748,-0.10746 0.47463,-0.16262c1.57475,-0.75108 2.80098,-1.70671 3.48761,-2.80433c0.78283,-1.24899 0.8855,-2.54073 0.01901,-3.68212c-1.16923,-0.57737 -2.53437,-1.0116 -3.97724,-1.36635c-1.35518,-0.06281 -2.66342,-0.02228 -3.65005,0.12174c-2.23443,0.23235 -5.55749,1.35162 -7.45456,2.42579c-0.85976,1.29782 -0.88144,2.68703 0.31452,3.97765c0.34388,0.3713 0.74014,0.7135 1.18744,1.01841c1.98242,0.41332 4.55493,0.39453 6.40848,0.55632c0.54333,0.04778 1.07862,0.08452 1.60494,0.10748zM339.35556,132.15431c-0.34879,0.06895 -0.69803,0.14306 -1.04334,0.22302c0.84695,-0.10253 1.74113,-0.14005 2.63436,-0.11457c0.53941,-0.08626 1.07979,-0.16023 1.62454,-0.2203c-0.90367,-0.01894 -1.83489,0.01406 -2.77307,0.07737c-0.14736,0.00982 -0.29492,0.02133 -0.44247,0.03449zM347.87069,134.26111c0.30718,0.2449 0.56291,0.49974 0.77011,0.76236c0.41712,0.20963 0.81,0.43714 1.17371,0.68524c0.72633,0.49663 1.20686,1.04636 1.44226,1.6112c0.09396,-0.21492 0.16121,-0.42883 0.19002,-0.63691c-0.15626,-0.51735 -0.46048,-1.00996 -0.88406,-1.48645c-0.11999,-0.0613 -0.25373,-0.11888 -0.4022,-0.17232c-0.5601,-0.31485 -1.36451,-0.56925 -2.28983,-0.76312zM330.356,138.61939c0.01448,-0.09418 0.03247,-0.18831 0.0538,-0.2823c-0.48549,-1.27277 -0.37606,-2.62078 0.96643,-3.72028c1.41214,-1.26775 3.90323,-2.17211 6.56241,-2.58237c-0.78916,0.04589 -1.55403,0.1226 -2.27929,0.24953c-0.06175,0.02241 -0.12312,0.04528 -0.18409,0.06862c-2.95452,0.99737 -5.36089,2.53703 -5.38257,4.51831c-0.00989,0.64661 0.07374,1.21754 0.2633,1.7485zM348.73819,132.91423c-0.32872,-0.0789 -0.66059,-0.15341 -0.99531,-0.22334c0.45784,0.19504 0.88937,0.4258 1.28976,0.69701c0.02046,0.01386 0.04084,0.02773 0.06114,0.0416c0.91977,0.22495 1.71391,0.51074 2.2691,0.87075c1.74737,1.14777 2.30622,2.58949 1.88419,3.99783c0.29136,-0.38507 0.52387,-0.78099 0.67976,-1.1734c-0.14482,-0.66347 -0.51898,-1.33283 -0.98328,-1.97161c-1.35736,-0.87221 -2.66338,-1.62535 -4.20535,-2.23885zM335.14446,133.40207c-0.61059,0.28719 -1.12634,0.61644 -1.49673,0.99598c0.75795,-0.38407 1.50775,-0.70628 2.30006,-0.96433c0.49627,-0.18539 1.02307,-0.34644 1.57735,-0.47865c0.17568,-0.04178 0.35072,-0.08265 0.52524,-0.12255c-0.28641,-0.00143 -0.56442,0.00769 -0.83374,0.02753c-0.0382,0.00844 -0.07621,0.01707 -0.11402,0.02585c-0.71169,0.16464 -1.36516,0.33359 -1.95818,0.51617zM333.63401,135.70725c1.99785,-0.94914 4.78958,-1.81495 6.81333,-2.04055c0.69043,-0.10118 1.50249,-0.15413 2.36822,-0.16037c-0.64286,-0.1348 -1.29323,-0.25846 -1.94147,-0.37617c-2.83776,0.06144 -4.96346,0.71947 -6.76885,2.10243c-0.16906,0.15595 -0.32639,0.31431 -0.47123,0.47467zM342.63084,133.16199c0.57711,0.11728 1.14931,0.24252 1.7104,0.37916c0.66525,0.03431 1.3385,0.09338 1.99279,0.17658c-0.2336,-0.12132 -0.48614,-0.23358 -0.7544,-0.33664c-0.97653,-0.10449 -1.97349,-0.16646 -2.9286,-0.21801c-0.00673,-0.00037 -0.01347,-0.00073 -0.02019,-0.00109zM349.89226,139.2867c0.31921,-0.37841 0.69545,-0.82985 0.99961,-1.3011c-0.06237,-0.73146 -0.56084,-1.46195 -1.49424,-2.09904c-0.11603,-0.0794 -0.23523,-0.1566 -0.3574,-0.2317c0.51204,1.05427 0.33664,2.19883 -0.35965,3.30975c-0.4288,0.68289 -1.05661,1.31415 -1.8424,1.87884c0.57805,-0.24534 1.13326,-0.49782 1.66092,-0.75121c0.46863,-0.22458 0.94707,-0.49833 1.39317,-0.80554zM332.72108,134.45332c-0.88597,0.57569 -1.43856,1.30165 -1.6315,2.28819c0.20059,-0.3222 0.43516,-0.63704 0.69796,-0.94099c0.19114,-0.36797 0.42968,-0.73141 0.71266,-1.08787c0.07087,-0.08927 0.14451,-0.17571 0.22088,-0.25932zM334.3491,134.59128c-0.72746,0.45057 -1.33448,0.96284 -1.79775,1.50533c-0.03944,0.08255 -0.07717,0.1655 -0.11307,0.24878c0.07008,-0.04284 0.14244,-0.08575 0.21694,-0.12869c0.2656,-0.38954 0.60298,-0.77087 1.00317,-1.13932c0.2248,-0.17252 0.45485,-0.33448 0.69071,-0.4861zM347.31114,133.86286c0.96629,0.16544 1.85529,0.38729 2.56869,0.66331c-0.13001,-0.11344 -0.26635,-0.22616 -0.40863,-0.33828c-0.81712,-0.3027 -1.75173,-0.51054 -2.73485,-0.65913c0.01986,0.01046 0.03961,0.02098 0.05921,0.03157c0.1824,0.09854 0.35417,0.19945 0.51558,0.30253zM349.84952,139.96647c0.07882,-0.04772 0.1558,-0.09651 0.23086,-0.14643c0.16759,-0.16132 0.30941,-0.32728 0.42549,-0.49655c-0.05152,0.03752 -0.1036,0.07464 -0.15617,0.11135c-0.0834,0.09971 -0.16352,0.19493 -0.23842,0.28488c-0.08538,0.08305 -0.17261,0.16532 -0.26175,0.24676zM342.74598,132.69487c-0.56623,-0.07603 -1.14904,-0.12437 -1.73279,-0.1443c-0.29326,0.04767 -0.58633,0.09906 -0.87977,0.15389c0.42816,-0.02184 0.8766,-0.03233 1.3488,-0.03133c0.38881,0.00084 0.81405,0.00761 1.26378,0.02174zM330.37121,139.82241c-0.20818,-0.24812 -0.37673,-0.51708 -0.49604,-0.81377c-1.22156,-1.64597 -0.18604,-3.90072 1.5289,-5.31546c1.07058,-0.8801 2.44469,-1.37894 3.99254,-1.65963c2.34226,-0.84551 5.21223,-1.06081 7.93484,-0.76245c3.01952,-0.19853 6.33558,0.31837 8.76832,1.19408c3.41063,1.34297 3.78644,3.00847 2.92063,5.11237c-0.06912,0.16741 -0.15604,0.33234 -0.25921,0.49451c-0.27787,1.72123 -1.89995,3.70304 -4.40553,4.71385c-3.07491,0.74788 -6.14209,0.86383 -9.43323,0.7071c-0.13155,-0.00068 -0.26329,-0.00204 -0.39517,-0.00404c-0.53371,0.04018 -1.05553,0.06179 -1.56489,0.06262c-0.23948,0.0076 -0.47969,0.01151 -0.72055,0.01151c-3.89653,0 -6.58578,-0.75667 -7.60685,-2.92546c-0.125,-0.2681 -0.21186,-0.5405 -0.26376,-0.81523zM332.25269,136.93457c-0.01553,0.01218 -0.03079,0.02433 -0.04578,0.03645c-0.02972,0.09687 -0.05661,0.19399 -0.08045,0.29126c0.03616,-0.10957 0.0783,-0.21884 0.12623,-0.32771zM353.95776,138.09363c-0.31488,0.47118 -0.71896,0.93166 -1.18405,1.35966c0.40749,-0.28989 0.76512,-0.59687 1.05712,-0.91784c0.05905,-0.14573 0.10081,-0.29315 0.12694,-0.44182zM331.49222,139.35752c-0.06565,-0.17586 -0.11863,-0.35245 -0.15924,-0.5295c-0.01267,0.07131 -0.0241,0.14326 -0.03412,0.21566c0.06116,0.10579 0.12577,0.21048 0.19337,0.31383zM344.84502,132.8089c1.06194,0.08292 2.15601,0.20902 3.16516,0.39216c-1.01969,-0.54488 -2.20709,-0.86121 -3.49166,-1.02313c-0.72701,0.03366 -1.43917,0.09482 -2.14479,0.17968c0.86509,0.091 1.70421,0.24207 2.47129,0.45129zM346.87932,141.497c-0.69235,0.19577 -1.41734,0.37333 -2.1547,0.54496c0.22639,-0.00886 0.45068,-0.02131 0.67279,-0.03759c0.5101,-0.156 1.00706,-0.32871 1.48191,-0.50736zM333.9525,133.47182c0.02814,-0.01617 0.05649,-0.03212 0.08503,-0.04786c-0.08689,0.03744 -0.1726,0.07557 -0.25707,0.11441c0.05665,-0.0224 0.114,-0.04458 0.17205,-0.06654zM348.78385,140.33928c-0.56651,0.27039 -1.16278,0.53909 -1.78367,0.79907c0.45146,-0.13409 0.88643,-0.27752 1.29797,-0.43444c0.16733,-0.11887 0.32918,-0.24052 0.4857,-0.36462zM335.28354,141.77366c0.08974,0.04855 0.18115,0.09576 0.27419,0.14156c1.6939,0.33559 3.44152,0.37791 5.18958,0.27569c-1.6498,-0.13449 -3.68643,-0.16078 -5.46377,-0.41725zM347.58597,134.54941c-0.17901,-0.15409 -0.37904,-0.30434 -0.60091,-0.45018c-0.36671,-0.05812 -0.74485,-0.10789 -1.1281,-0.14933c0.60036,0.17996 1.17962,0.37819 1.72901,0.59951zM340.27378,131.68362c0.51046,-0.08852 1.01294,-0.16779 1.49553,-0.23999c-1.47373,-0.05525 -2.9534,0.0513 -4.32572,0.33853c0.91489,-0.06862 1.86537,-0.09254 2.83019,-0.09853zM339.13505,132.59618c0.02417,-0.00499 0.04831,-0.00995 0.07245,-0.0149c-0.04491,0.00315 -0.08971,0.00648 -0.13442,0.00999c0.02063,0.00159 0.04127,0.00322 0.06197,0.00491zM342.62408,142.3254c-1.95452,0.20543 -3.93201,0.29074 -5.85912,0.07291c0.99369,0.3152 2.12881,0.49062 3.39886,0.48634c0.83273,-0.14708 1.65568,-0.33729 2.46026,-0.55925zM350.98621,135.01398c0.07393,0.03858 0.14314,0.07839 0.20784,0.11934c-0.10243,-0.08477 -0.21026,-0.16569 -0.32312,-0.24295c0.03927,0.04109 0.07769,0.0823 0.11528,0.12362zM343.994,142.34383c-0.06699,0.02603 -0.13444,0.05174 -0.20234,0.07713c0.11889,-0.02485 0.23761,-0.05111 0.35601,-0.07865c-0.05113,0.00067 -0.10236,0.00117 -0.15367,0.00152z" fill="#ffffff" stroke="none" stroke-width="0.5" stroke-linecap="butt"/><path d="M307.371,178.93122c0.09894,0.07141 0.18268,0.19229 0.18268,0.39691c0,0.5 -0.5,0.5 -0.5,0.5l-0.60221,-0.40194c-0.26561,-1.35567 -0.56377,-2.84988 -0.56932,-4.23916c0,0 0,-0.5 0.5,-0.5c0.5,0 0.5,0.5 0.5,0.5c-0.00578,1.21197 0.24443,2.54171 0.48885,3.74419z" fill="#ffffff" stroke="none" stroke-width="0.5" stroke-linecap="butt"/><path d="M309.55845,177.8847c0.06665,0.04279 0.12963,0.11005 0.18087,0.21253c0.22361,0.44721 -0.22361,0.67082 -0.22361,0.67082l-0.94745,-0.33529c0,-1.25198 -0.15316,-2.2888 -0.33074,-3.51079c0,0 -0.07071,-0.49497 0.42426,-0.56569c0.49497,-0.07071 0.56569,0.42426 0.56569,0.42426c0.15092,1.07725 0.29308,2.04023 0.33097,3.10415z" fill="#ffffff" stroke="none" stroke-width="0.5" stroke-linecap="butt"/><path d="M311.97826,179.38045c-0.5,0 -0.5,-0.5 -0.5,-0.5c0,-1.82806 0,-4.1038 0,-5.93186c0,0 0,-0.5 0.5,-0.5c0.5,0 0.5,0.5 0.5,0.5c0,1.82806 0,3.65611 0,5.48417v0.44769c0,0 0,0.5 -0.5,0.5z" fill="#ffffff" stroke="none" stroke-width="0.5" stroke-linecap="butt"/><path d="M315.78382,177.87268c-0.44721,-0.22361 -0.22361,-0.67082 -0.22361,-0.67082l0.18443,-0.33896c-0.04325,-2.16173 -0.01338,-4.3264 -0.01338,-6.48851c0,0 0,-0.5 0.5,-0.5c0.5,0 0.5,0.5 0.5,0.5c0,2.23913 0.01996,4.47935 -0.01338,6.71826l-0.26325,0.55642c0,0 -0.22361,0.44721 -0.67082,0.22361z" fill="#ffffff" stroke="none" stroke-width="0.5" stroke-linecap="butt"/><path d="M319.36509,177.70162c-0.5,0 -0.5,-0.5 -0.5,-0.5c0,-1.67883 0,-3.46958 0,-5.1484c0,0 0,-0.5 0.5,-0.5c0.5,0 0.5,0.5 0.5,0.5c0,1.67883 0,3.35765 0,5.03648v0.11192c0,0 0,0.5 -0.5,0.5z" fill="#ffffff" stroke="none" stroke-width="0.5" stroke-linecap="butt"/><path d="M321.87437,177.05564c0.12173,0.03317 0.24764,0.12028 0.31543,0.32364c0.15811,0.47434 -0.31623,0.63246 -0.31623,0.63246l-0.99388,-0.36242c0,-1.05198 -0.00946,-2.07266 -0.41193,-3.06004c0,0 -0.1857,-0.46424 0.27854,-0.64993c0.46424,-0.1857 0.64993,0.27854 0.64993,0.27854c0.36646,0.9306 0.45779,1.86523 0.47813,2.83776z" fill="#ffffff" stroke="none" stroke-width="0.5" stroke-linecap="butt"/><path d="M324.1867,178.32282c0.13045,0.05951 0.26717,0.18425 0.26717,0.4457c0,0.5 -0.5,0.5 -0.5,0.5l-0.55914,-0.27639c-0.51438,-1.0872 -0.38855,-2.49631 -0.38855,-3.69318c0,0 0,-0.5 0.5,-0.5c0.5,0 0.5,0.5 0.5,0.5c0,0.89965 -0.15639,2.15749 0.18052,3.02387z" fill="#ffffff" stroke="none" stroke-width="0.5" stroke-linecap="butt"/><path d="M326.75193,179.71621c-0.5,0 -0.5,-0.5 -0.5,-0.5c0,-1.0073 0,-2.35036 0,-3.35765c0,0 0,-0.5 0.5,-0.5c0.5,0 0.5,0.5 0.5,0.5c0,1.0073 0,2.01459 0,3.02189v0.33577c0,0 0,0.5 -0.5,0.5z" fill="#ffffff" stroke="none" stroke-width="0.5" stroke-linecap="butt"/><path d="M328.54268,180.61159c-0.5,0 -0.5,-0.5 -0.5,-0.5c0,-0.93268 0,-2.20113 0,-3.13381c0,0 0,-0.5 0.5,-0.5c0.5,0 0.5,0.5 0.5,0.5c0,0.93268 0,1.86536 0,2.79805v0.33577c0,0 0,0.5 -0.5,0.5z" fill="#ffffff" stroke="none" stroke-width="0.5" stroke-linecap="butt"/><path d="M314.60477,191.10249c0.07944,0.10246 0.24762,0.38461 -0.03452,0.66676c-0.35355,0.35355 -0.70711,0 -0.70711,0l-0.25837,-0.46548c0,-0.70884 0,-1.41768 0,-2.12651c0,0 0,-0.5 0.5,-0.5c0.5,0 0.5,0.5 0.5,0.5c0,0.64174 0,1.28349 0,1.92523z" fill="#ffffff" stroke="none" stroke-width="0.5" stroke-linecap="butt"/><path d="M317.35024,193.09404c-0.44721,0.22361 -0.67082,-0.22361 -0.67082,-0.22361l-0.23857,-0.47995c-0.23953,-0.73399 -0.2619,-1.22504 -0.2619,-1.98209c0,0 0,-0.5 0.5,-0.5c0.5,0 0.5,0.5 0.5,0.5c0,0.61802 -0.01652,1.0098 0.18578,1.59941l0.20912,0.41542c0,0 0.22361,0.44721 -0.22361,0.67082z" fill="#ffffff" stroke="none" stroke-width="0.5" stroke-linecap="butt"/><path d="M319.27096,193.1123c-0.35355,0.35355 -0.70711,0 -0.70711,0l-0.4725,-0.59126c-0.05807,-0.30419 -0.15138,-0.60618 -0.29269,-0.88175c0,0 -0.22361,-0.44721 0.22361,-0.67082c0.44721,-0.22361 0.67082,0.22361 0.67082,0.22361c0.17528,0.35751 0.29804,0.74296 0.37884,1.13284l0.19903,0.08027c0,0 0.35355,0.35355 0,0.70711z" fill="#ffffff" stroke="none" stroke-width="0.5" stroke-linecap="butt"/><path d="M321.60329,192.64636c-0.44721,0.22361 -0.67082,-0.22361 -0.67082,-0.22361l-0.15791,-0.36525c-0.05281,-0.33582 -0.1338,-0.67576 -0.28978,-0.97781c0,0 -0.22361,-0.44721 0.22361,-0.67082c0.44721,-0.22361 0.67082,0.22361 0.67082,0.22361c0.19254,0.39458 0.30638,0.82809 0.38175,1.26063l0.06594,0.08244c0,0 0.22361,0.44721 -0.22361,0.67082z" fill="#ffffff" stroke="none" stroke-width="0.5" stroke-linecap="butt"/><path d="M323.62747,191.565c-0.48507,0.12127 -0.60634,-0.3638 -0.60634,-0.3638l-0.12685,-0.56896c0,-0.18654 0,-0.37307 0,-0.55961c0,0 0,-0.5 0.5,-0.5c0.5,0 0.5,0.5 0.5,0.5c0,0.18654 0,0.37307 0,0.55961l0.09699,0.32642c0,0 0.12127,0.48507 -0.3638,0.60634z" fill="#ffffff" stroke="none" stroke-width="0.5" stroke-linecap="butt"/></g></g></svg>