<svg version="1.1" xmlns="http://www.w3.org/2000/svg" xmlns:xlink="http://www.w3.org/1999/xlink" width="160.74852" height="324.76488" viewBox="0,0,160.74852,324.76488"><defs><linearGradient x1="336.12086" y1="169.60281" x2="328.46367" y2="348.28337" gradientUnits="userSpaceOnUse" id="color-1"><stop offset="0" stop-color="#2982c1"/><stop offset="1" stop-color="#000000"/></linearGradient><linearGradient x1="414.09008" y1="143.71231" x2="374.65503" y2="142.02236" gradientUnits="userSpaceOnUse" id="color-2"><stop offset="0" stop-color="#a636f3"/><stop offset="1" stop-color="#581b7d"/></linearGradient><linearGradient x1="260.08393" y1="142.6065" x2="299.51897" y2="144.29645" gradientUnits="userSpaceOnUse" id="color-3"><stop offset="0" stop-color="#a636f3"/><stop offset="1" stop-color="#581b7d"/></linearGradient><radialGradient cx="302.39945" cy="95.02238" r="25.84387" gradientUnits="userSpaceOnUse" id="color-4"><stop offset="0" stop-color="#000000" stop-opacity="0.92549"/><stop offset="1" stop-color="#000000" stop-opacity="0"/></radialGradient><linearGradient x1="257.41622" y1="68.79075" x2="322.16023" y2="78.78976" gradientUnits="userSpaceOnUse" id="color-5"><stop offset="0" stop-color="#a636f3"/><stop offset="1" stop-color="#16031b"/></linearGradient><radialGradient cx="374.82212" cy="92.97562" r="25.35587" gradientUnits="userSpaceOnUse" id="color-6"><stop offset="0" stop-color="#000000" stop-opacity="0.92549"/><stop offset="1" stop-color="#000000" stop-opacity="0"/></radialGradient><linearGradient x1="420.81409" y1="73.23178" x2="355.45202" y2="77.65523" gradientUnits="userSpaceOnUse" id="color-7"><stop offset="0" stop-color="#a636f3"/><stop offset="1" stop-color="#16031b"/></linearGradient></defs><g transform="translate(-258.73748,-26.7962)"><g stroke-miterlimit="10"><path d="M285.22007,342.78823l4.35217,-147.22446c0,0 7.17798,-25.4142 16.19364,-25.43343c8.95329,-0.0191 30.15813,0.33247 48.69489,0.2929c20.10528,-0.04291 26.31508,17.40553 26.31508,17.40553l-7.43474,162.37777z" fill="url(#color-1)" stroke="#000000" stroke-width="2.5" stroke-linecap="butt"/><path d="M359.28416,182.38887c-0.61724,8.50058 -10.78303,14.68982 -22.70593,13.82408c-11.92289,-0.86575 -21.08791,-8.45864 -20.47067,-16.95922c0.61724,-8.50058 10.78301,-14.68982 22.70591,-13.82409c11.92289,0.86575 21.08792,8.45865 20.47068,16.95922z" fill="#f2f2f2" stroke="#000000" stroke-width="1.5" stroke-linecap="butt"/><path d="M353.62625,182.4269c-0.46374,6.38664 -8.10149,11.03674 -17.05937,10.38629c-8.95788,-0.65046 -15.84373,-6.35513 -15.37999,-12.74178c0.46374,-6.38664 8.10148,-11.03674 17.05936,-10.38629c8.95788,0.65046 15.84374,6.35514 15.38,12.74178z" fill="#a636f3" stroke="#000000" stroke-width="2.5" stroke-linecap="butt"/><path d="M394.27559,112.77423c4.7687,0.62293 8.15477,-1.59489 12.56497,-2.47458c0.67168,-0.13398 4.41574,-1.6556 4.88894,-1.02723c0.36487,0.48451 -1.28564,3.59941 -1.49245,4.14554c-0.70411,1.85935 -6.32627,11.87463 -6.23744,12.65615c0.32757,2.88208 9.19031,-1.25532 10.51701,0.04968c1.21523,1.19535 -1.73581,5.10491 -2.27601,5.98699c-1.52839,2.49557 -8.81331,15.36128 -8.79888,17.41697c0.02297,3.2718 4.16269,7.11161 2.52518,11.36646c-0.80354,2.0879 -2.48986,-1.1047 -3.45914,-0.76034c-0.98718,0.35073 -0.84109,4.49907 -0.8695,5.37135c-0.1158,3.55518 -0.31214,7.53278 -1.14264,11.0259c-0.08555,0.35982 -0.05056,0.91223 -0.36601,1.0431c-0.78571,0.32597 -9.00879,-8.99521 -10.34665,-10.07369c-6.51271,-5.25009 -12.75242,-13.2634 -14.36479,-22.56485c-2.43589,-14.0521 2.93183,-33.59258 18.46513,-31.56618z" fill="url(#color-2)" stroke="#000000" stroke-width="2.5" stroke-linecap="round"/><path d="M282.81246,114.10363c15.64972,-0.69009 19.32604,19.23796 15.69691,33.03014c-2.40222,9.12941 -9.30459,16.57953 -16.24258,21.2532c-1.42522,0.96009 -10.4156,9.54359 -11.17053,9.1516c-0.3031,-0.15737 -0.22098,-0.70477 -0.27542,-1.07059c-0.5286,-3.55135 -0.38395,-7.53117 -0.19517,-11.08322c0.0463,-0.87152 0.54677,-4.99215 -0.40679,-5.42604c-0.93626,-0.42604 -2.88952,2.6106 -3.51149,0.46161c-1.26751,-4.37932 3.18555,-7.85091 3.48834,-11.10875c0.19025,-2.04693 -5.96728,-15.48869 -7.27657,-18.10587c-0.46277,-0.92506 -3.06852,-5.07275 -1.75548,-6.15976c1.43347,-1.18671 9.90975,3.69373 10.4827,0.85025c0.15536,-0.77106 -4.58935,-11.2306 -5.13182,-13.14337c-0.15933,-0.56181 -1.5373,-3.8065 -1.13233,-4.25801c0.52522,-0.58558 4.12537,1.25076 4.78313,1.44172c4.31876,1.25377 7.50269,3.75314 12.30719,3.54046z" fill="url(#color-3)" stroke="#000000" stroke-width="2.5" stroke-linecap="round"/><path d="M392.55801,132.12274c-3.15897,28.37893 -30.16899,51.68432 -60.23593,48.33744c-30.06694,-3.34687 -51.80506,-32.0786 -48.64609,-60.45753c3.15897,-28.37892 30.09391,-48.67143 60.16085,-45.32454c30.06694,3.34687 51.88016,29.0657 48.72119,57.44463z" fill="#a636f3" stroke="#000000" stroke-width="2.5" stroke-linecap="butt"/><path d="M352.62081,120.49489c-0.10223,2.70692 -6.83278,4.65024 -15.03314,4.34055c-8.20035,-0.30969 -14.76517,-2.75513 -14.66293,-5.46204c0.10223,-2.70692 6.83279,-4.65024 15.03315,-4.34055c8.20035,0.30969 14.76517,2.75513 14.66294,5.46203z" fill-opacity="0.23137" fill="#000000" stroke="none" stroke-width="0" stroke-linecap="butt"/><path d="M306.74802,115.57497c-12.53673,5.93791 -24.64668,1.54984 -27.04833,-9.80105c-2.40164,-11.35088 5.81445,-25.36622 18.35119,-31.30413c12.53673,-5.93791 24.64668,-1.54984 27.04832,9.80105c2.40164,11.35088 -5.81445,25.36621 -18.35118,31.30413z" fill="url(#color-4)" stroke="#000000" stroke-width="0" stroke-linecap="butt"/><path d="M316.29805,93.66545l-14.42526,11.74857l-13.29401,6.86977l-15.80359,-3.43355l-12.77093,-39.69672l3.24655,-38.14196l22.79379,41.36286l36.14034,6.25544z" fill="url(#color-5)" stroke="#000000" stroke-width="2.5" stroke-linecap="round"/><path d="M353.53509,80.56047c3.30041,-10.89414 15.50644,-14.16712 27.26295,-7.31041c11.7565,6.85671 18.61153,21.24661 15.31112,32.14074c-3.30041,10.89414 -15.50645,14.16712 -27.26296,7.31041c-11.7565,-6.85671 -18.61152,-21.24661 -15.31111,-32.14073z" fill="url(#color-6)" stroke="#000000" stroke-width="0" stroke-linecap="butt"/><path d="M355.44108,77.49376l36.543,-3.14067l26.24886,-39.26118l-0.02843,38.27988l-16.1202,38.45863l-16.03938,2.06895l-12.65755,-7.98189l-13.36727,-12.9396z" fill="url(#color-7)" stroke="#000000" stroke-width="2.5" stroke-linecap="round"/><path d="M331.20239,87.29781c0,0 -1.23827,0.79097 -2.65282,1.48504c-1.09658,0.53807 -2.29911,1.01789 -3.1128,1.02583c-0.75771,0.00738 -1.82573,-0.46683 -2.77868,-0.9961c-1.19173,-0.6619 -2.20352,-1.40991 -2.20352,-1.40991" fill="none" stroke-opacity="0.40392" stroke="#000000" stroke-width="2.5" stroke-linecap="round"/><path d="M360.78898,89.50951c0,0 -1.3982,0.45167 -2.94239,0.76494c-1.1971,0.24286 -2.48193,0.40257 -3.27112,0.20421c-0.7349,-0.1847 -1.64802,-0.91388 -2.43591,-1.66721c-0.98528,-0.94208 -1.77471,-1.92191 -1.77471,-1.92191" fill="none" stroke-opacity="0.40392" stroke="#000000" stroke-width="2.5" stroke-linecap="round"/><path d="M345.89619,84.90011c0,0 -1.19426,0.85596 -2.56973,1.62456c-1.0663,0.59585 -2.24148,1.13921 -3.05359,1.19059c-0.75624,0.04783 -1.84805,-0.36868 -2.82791,-0.84631c-1.22536,-0.59731 -2.27565,-1.29024 -2.27565,-1.29024" fill="none" stroke-opacity="0.40392" stroke="#000000" stroke-width="2.5" stroke-linecap="round"/><path d="M389.12696,129.90754c0,0 -0.93442,0.47153 -1.96371,0.80688c-0.79795,0.25996 -1.65292,0.4381 -2.17379,0.25124c-0.48503,-0.17401 -1.0805,-0.88957 -1.59253,-1.63108c-0.6403,-0.9273 -1.15006,-1.89515 -1.15006,-1.89515" fill="none" stroke-opacity="0.40392" stroke="#000000" stroke-width="2.5" stroke-linecap="round"/><path d="M389.2095,138.4212c0,0 -0.93442,0.47153 -1.96371,0.80689c-0.79795,0.25996 -1.65292,0.4381 -2.17379,0.25124c-0.48503,-0.17401 -1.0805,-0.88957 -1.59253,-1.63108c-0.6403,-0.9273 -1.15006,-1.89515 -1.15006,-1.89515" fill="none" stroke-opacity="0.40392" stroke="#000000" stroke-width="2.5" stroke-linecap="round"/><path d="M387.01762,146.83736c0,0 -0.93442,0.47153 -1.96371,0.80689c-0.79795,0.25996 -1.65291,0.4381 -2.17378,0.25124c-0.48504,-0.174 -1.08051,-0.88956 -1.59254,-1.63107c-0.6403,-0.9273 -1.15006,-1.89515 -1.15006,-1.89515" fill="none" stroke-opacity="0.40392" stroke="#000000" stroke-width="2.5" stroke-linecap="round"/><path d="M293.71168,121.83251c0,0 -0.5907,0.9207 -1.30798,1.78981c-0.57358,0.69499 -1.22809,1.35699 -1.72623,1.48885c-0.53495,0.14161 -1.37154,-0.10902 -2.14433,-0.43629c-0.99684,-0.42217 -1.88749,-0.97192 -1.88749,-0.97192" fill="none" stroke-opacity="0.40392" stroke="#000000" stroke-width="2.5" stroke-linecap="round"/><path d="M294.60649,127.75182c0,0 -0.5907,0.9207 -1.30797,1.7898c-0.57358,0.69499 -1.22809,1.35699 -1.72624,1.48885c-0.53495,0.14161 -1.37154,-0.10902 -2.14432,-0.43629c-0.99684,-0.42218 -1.88749,-0.97193 -1.88749,-0.97193" fill="none" stroke-opacity="0.40392" stroke="#000000" stroke-width="2.5" stroke-linecap="round"/><path d="M294.75651,134.69089c0,0 -0.5907,0.9207 -1.30797,1.7898c-0.57358,0.69499 -1.22809,1.35699 -1.72624,1.48885c-0.53495,0.14161 -1.37154,-0.10902 -2.14432,-0.43629c-0.99684,-0.42218 -1.88749,-0.97193 -1.88749,-0.97193" fill="none" stroke-opacity="0.40392" stroke="#000000" stroke-width="2.5" stroke-linecap="round"/><path d="M334.23522,153.39109l-3.29215,-5.30288" fill="none" stroke="#000000" stroke-width="2.5" stroke-linecap="round"/><path d="M339.35745,154.31447l4.93483,-5.65419" fill="none" stroke="#000000" stroke-width="2.5" stroke-linecap="round"/><path d="M374.7407,152.22961l2.85799,0.69601l-23.27078,10.66476l-18.63828,-3.09289l-13.67054,2.28187l-24.92462,-11.39185l4.06007,-0.39954" fill="none" stroke="#000000" stroke-width="2.5" stroke-linecap="round"/><path d="M272.5909,47.91029c0,0 73.60551,-13.28057 95.33083,-12.64238c23.01978,0.67622 39.1293,16.59222 39.1293,16.59222" fill="none" stroke="#000000" stroke-width="2.5" stroke-linecap="round"/><path d="M276.78482,52.75026c0,0 70.87136,-9.73784 91.30269,-9.11279c21.72169,0.66454 35.39352,12.98881 35.39352,12.98881" fill="none" stroke="#000000" stroke-width="2.5" stroke-linecap="round"/><path d="M279.12547,58.54642c0,0 67.95986,-7.9415 87.5936,-7.43396c20.89092,0.54003 34.21463,10.58272 34.21463,10.58272" fill="none" stroke="#000000" stroke-width="2.5" stroke-linecap="round"/><path d="M304.9638,242.94929l24.30437,-11.03737l19.02088,13.2205l15.25483,-5.54896" fill="none" stroke="#ffffff" stroke-width="1.5" stroke-linecap="round"/><path d="M304.44762,249.89049l24.30437,-11.03737l19.02089,13.2205l15.25483,-5.54896" fill="none" stroke="#ffffff" stroke-width="1.5" stroke-linecap="round"/><path d="M303.61955,256.49189l24.30437,-11.03737l19.02089,13.2205l15.25483,-5.54896" fill="none" stroke="#ffffff" stroke-width="1.5" stroke-linecap="round"/><g><path d="M332.4783,242.13615c14.25288,-11.39748 1.63967,-2.96164 18.59017,-8.49735c2.02588,-0.66163 12.25268,-2.27512 12.25268,-2.27512c0,0 -7.64353,11.33046 -12.83149,14.60342c-0.66596,0.42014 -6.11947,4.06882 -6.02227,4.68217c0.11324,0.71439 4.0147,-0.87014 4.53209,-1.03894c1.94713,-0.6352 16.10777,-5.26024 16.10777,-5.26024l1.15519,10.02252c0,0 -9.70669,4.88075 -12.36138,5.85386c-0.36626,0.13425 -4.48132,2.03365 -4.48484,2.09144c-0.01449,0.2381 5.61533,-0.39392 5.61533,-0.39392l11.92601,6.40818l-1.3205,5.51123l-7.66727,4.03092c0,0 -11.27718,4.61117 -17.12794,6.52188c-9.27663,3.0295 -24.72608,8.75883 -32.56173,5.43437c-1.89563,-0.80428 -2.01499,-5.3007 -3.18401,-6.92016c-2.8995,-4.01673 -1.58395,-9.76046 -2.46422,-14.80839c-0.80623,-4.62333 -3.18084,-8.54167 -2.81665,-13.70033c0.18741,-2.6547 0.07133,-9.39172 1.61229,-11.93992c1.12951,-1.86783 5.46674,-4.04851 7.27411,-5.04003c5.34688,-2.93326 19.38865,-12.29187 24.14733,-13.08785c0.97595,-0.16324 6.59855,-1.70781 6.38814,-0.72254c-0.2203,1.03155 -9.88339,13.17289 -11.80023,15.22772c-1.21533,1.30281 -2.25585,2.89191 0.0948,2.60792c3.45675,-0.41764 4.94657,0.68917 4.94657,0.68917z" fill="#a636f3" stroke="#000000" stroke-width="2.5" stroke-linecap="round"/><path d="M338.94576,253.30494c0.09836,0.87568 -3.34009,2.89001 -7.67995,4.49911c-4.33987,1.60911 -7.93773,2.20365 -8.03609,1.32797c-0.09836,-0.87568 3.34007,-2.89001 7.67994,-4.49911c4.33987,-1.60911 7.93774,-2.20366 8.0361,-1.32797z" fill-opacity="0.23137" fill="#000000" stroke="none" stroke-width="0" stroke-linecap="butt"/><path d="M344.24006,264.69239c0.09015,0.80273 -4.08509,3.02859 -9.32571,4.97169c-5.2406,1.94308 -9.56201,2.86751 -9.65215,2.06479c-0.09015,-0.80273 4.08509,-3.02859 9.32571,-4.97168c5.2406,-1.94308 9.56201,-2.8675 9.65215,-2.0648z" fill-opacity="0.23137" fill="#000000" stroke="none" stroke-width="0" stroke-linecap="butt"/><path d="M321.3451,242.35137c0.13931,1.24056 -0.67707,2.59081 -1.82343,3.01584c-1.14637,0.42503 -2.18866,-0.23604 -2.32798,-1.47661c-0.13931,-1.24056 0.67707,-2.59082 1.82343,-3.01584c1.14637,-0.42503 2.18865,0.23605 2.32798,1.47661z" fill-opacity="0.23137" fill="#000000" stroke="none" stroke-width="0" stroke-linecap="butt"/><path d="M318.06509,254.62555c0,0 -0.52291,1.19969 -1.19863,2.40694c-0.54035,0.96539 -1.17838,1.93561 -1.72489,2.30116c-0.58689,0.39252 -1.58196,0.53313 -2.51684,0.56701c-1.20592,0.04368 -2.31165,-0.09026 -2.31165,-0.09026" fill="none" stroke-opacity="0.40392" stroke="#000000" stroke-width="2.5" stroke-linecap="round"/><path d="M324.37071,257.6085c0,0 -0.52292,1.19969 -1.19864,2.40694c-0.54035,0.96539 -1.17836,1.93562 -1.72488,2.30116c-0.58689,0.39252 -1.58198,0.53313 -2.51686,0.56701c-1.20592,0.04368 -2.31163,-0.09026 -2.31163,-0.09026" fill="none" stroke-opacity="0.40392" stroke="#000000" stroke-width="2.5" stroke-linecap="round"/><path d="M330.67631,260.59146c0,0 -0.52292,1.19969 -1.19864,2.40694c-0.54035,0.96539 -1.17837,1.93561 -1.72488,2.30114c-0.58689,0.39252 -1.58198,0.53315 -2.51685,0.56702c-1.20592,0.04368 -2.31163,-0.09027 -2.31163,-0.09027" fill="none" stroke-opacity="0.40392" stroke="#000000" stroke-width="2.5" stroke-linecap="round"/></g><path d="M322.06219,163.17668l12.92685,-2.11019l19.74084,2.78354l23.66411,-9.64254l-42.43786,23.85421l-38.13828,-25.61183z" fill="#ffffff" stroke="#000000" stroke-width="2.5" stroke-linecap="round"/><path d="M320.9641,119.50379c-0.46093,4.14098 -2.90142,-4.14256 -7.44636,-4.64848c-4.54497,-0.50592 -9.47336,6.95735 -9.01243,2.81638c0.46093,-4.141 4.51905,-7.08776 9.064,-6.58184c4.54497,0.50592 7.8557,4.27295 7.39477,8.41395z" fill="#ffffff" stroke="#000000" stroke-width="2.5" stroke-linecap="butt"/><path d="M354.55754,120.74048c-0.10497,-4.16526 3.51588,-7.63524 8.08747,-7.75046c4.57157,-0.11523 8.36271,3.16789 8.46768,7.33315c0.10497,4.16521 -4.16685,-3.69232 -8.73843,-3.57708c-4.57157,0.11523 -7.71178,8.15961 -7.81676,3.99439z" fill="#ffffff" stroke="#000000" stroke-width="2.5" stroke-linecap="butt"/><g><path d="M362.00606,247.58696c0,0 1.57906,-0.9753 4.98739,-0.26346c2.31773,0.48406 1.41697,-1.18824 0.31756,-2.59025c-1.73402,-2.21129 -10.32299,-15.1348 -10.45423,-16.18143c-0.12535,-0.99965 5.3445,1.02026 6.30292,1.2664c4.67313,1.20018 17.86278,11.72575 22.93911,15.1057c1.71592,1.14252 5.85069,3.68625 6.81626,5.64386c1.31731,2.6707 0.62529,9.37308 0.58491,12.03407c-0.07847,5.1709 -2.77959,8.87173 -3.97841,13.40913c-1.30891,4.95411 -0.48956,10.78932 -3.72206,14.54328c-1.30327,1.51352 -1.80686,5.98325 -3.76435,6.62241c-8.09133,2.64194 -22.99401,-4.38809 -31.97744,-8.20012c-5.66584,-2.40424 -16.50718,-7.96328 -16.50718,-7.96328l-7.29431,-4.67209l-0.84416,-5.60399l12.4305,-5.36441c0,0 5.55513,1.11134 5.56105,0.87287c0.00143,-0.05787 -3.93604,-2.30235 -4.28947,-2.46744c-2.5617,-1.19666 -11.81525,-6.88993 -11.81525,-6.88993l2.0084,-9.88696c0,0 13.71305,5.81955 15.5987,6.61899c0.50106,0.21243 4.25265,2.12494 4.42659,1.42284c0.14934,-0.60278 -4.97203,-4.70465 -5.59963,-5.18022c-4.88894,-3.70479 -11.53511,-15.64763 -11.53511,-15.64763c0,0 10.05126,2.48249 12.01311,3.31501c16.41478,6.96555 4.56948,-2.51843 17.79505,10.0566z" fill="#a636f3" stroke="#000000" stroke-width="2.5" stroke-linecap="round"/><path d="M362.49983,260.17211c4.1863,1.97449 7.43979,4.27559 7.26688,5.13965c-0.17291,0.86406 -3.70673,-0.0361 -7.89303,-2.0106c-4.18628,-1.97447 -7.43979,-4.27559 -7.26689,-5.13965c0.1729,-0.86407 3.70674,0.0361 7.89303,2.0106z" fill-opacity="0.23137" fill="#000000" stroke="none" stroke-width="0" stroke-linecap="butt"/><path d="M357.79782,271.93727c5.05516,2.38431 9.02467,4.95922 8.86618,5.75128c-0.1585,0.79207 -4.38498,-0.49869 -9.44014,-2.88298c-5.05516,-2.38431 -9.02467,-4.95922 -8.86618,-5.75128c0.15849,-0.79206 4.38498,0.49869 9.44014,2.88298z" fill-opacity="0.23137" fill="#000000" stroke="none" stroke-width="0" stroke-linecap="butt"/><path d="M375.52579,247.48183c1.1058,0.52154 1.80367,1.93669 1.55874,3.16079c-0.24494,1.22409 -1.33996,1.79358 -2.44576,1.27203c-1.10581,-0.52155 -1.80368,-1.93669 -1.55874,-3.16079c0.24495,-1.22408 1.33996,-1.79358 2.44577,-1.27203z" fill-opacity="0.23137" fill="#000000" stroke="none" stroke-width="0" stroke-linecap="butt"/><path d="M382.57794,267.09267c0,0 -1.11314,0.03884 -2.31091,-0.10784c-0.92855,-0.11373 -1.90794,-0.33895 -2.4591,-0.78025c-0.51323,-0.41095 -1.06592,-1.4322 -1.52171,-2.44028c-0.56995,-1.26063 -0.98831,-2.50066 -0.98831,-2.50066" fill="none" stroke-opacity="0.40392" stroke="#000000" stroke-width="2.5" stroke-linecap="round"/><path d="M376.04025,269.52524c0,0 -1.11312,0.03885 -2.3109,-0.10784c-0.92855,-0.11373 -1.90796,-0.33896 -2.45912,-0.78026c-0.51324,-0.41095 -1.0659,-1.4322 -1.52169,-2.44029c-0.56995,-1.26063 -0.98832,-2.50066 -0.98832,-2.50066" fill="none" stroke-opacity="0.40392" stroke="#000000" stroke-width="2.5" stroke-linecap="round"/><path d="M369.50255,271.9578c0,0 -1.11312,0.03886 -2.31089,-0.10783c-0.92854,-0.11373 -1.90796,-0.33897 -2.4591,-0.78026c-0.51324,-0.41095 -1.06591,-1.43219 -1.52169,-2.44027c-0.56995,-1.26063 -0.98831,-2.50066 -0.98831,-2.50066" fill="none" stroke-opacity="0.40392" stroke="#000000" stroke-width="2.5" stroke-linecap="round"/></g></g></g></svg>