<svg version="1.1" xmlns="http://www.w3.org/2000/svg" xmlns:xlink="http://www.w3.org/1999/xlink" width="395.44208" height="442.40736" viewBox="0,0,395.44208,442.40736"><g transform="translate(-126.86274,74.69201)"><g stroke-miterlimit="10"><path d="M413.89432,305.9599l-22.96979,11.22479l16.67741,30.99104l-33.65488,-22.35272l-20.03967,5.38911l27.0448,29.06801l-53.73739,6.17101l-75.04765,-14.96504l7.94854,-22.11403l-53.67902,5.82656l34.09865,-29.23869l86.67949,-60.49124l86.6795,60.49124z" fill="#b48550" stroke="#000000" stroke-width="2.5"/><path d="M263.15845,292.55203l12.07165,-87.76085l2.72526,-44.20377l-11.31149,-41.70988l11.70874,-39.276l-4.0097,-73.29146h81.34146l5.69376,17.14622l-11.50203,75.50053l5.59458,106.788l13.94008,75.58207z" fill="#b48550" stroke="#000000" stroke-width="2.5"/><path d="M263.41264,310.32522v-25.56846h103.71036v25.56846z" fill="#b48550" stroke="none" stroke-width="0"/><path d="M328.99419,221.14746l-17.79344,23.69759l-17.79345,-23.69756l17.79345,-23.69762z" fill="#a36015" stroke="none" stroke-width="0"/><path d="M328.9942,221.77107l-17.79344,23.69758l-17.79344,-23.69757l17.79344,-23.69761z" fill="#a36015" stroke="none" stroke-width="0"/><path d="M315.26783,276.6497l-17.79344,23.69757l-17.79345,-23.69757l17.79345,-23.69761z" fill="#a36015" stroke="none" stroke-width="0"/><path d="M328.9942,221.77107l-17.79344,23.69758l-17.79344,-23.69757l17.79344,-23.69761z" fill="#a36015" stroke="none" stroke-width="0"/><path d="M328.9942,221.77107l-17.79344,23.69758l-17.79344,-23.69757l17.79344,-23.69761z" fill="#a36015" stroke="none" stroke-width="0"/><path d="M318.31812,224.88918l-17.79344,23.69759l-17.79344,-23.69759l17.79344,-23.69761z" fill="#a36015" stroke="none" stroke-width="0"/><path d="M297.59948,247.04253l-16.13053,-25.4256l21.98094,-17.63391l16.13054,25.4256z" fill="#a36015" stroke="none" stroke-width="0"/><path d="M304.22042,248.09828l-26.21328,2.00734l0.51996,-32.21141l26.2133,-2.00735z" fill="#a36015" stroke="none" stroke-width="0"/><path d="M311.84617,266.18329l-26.21328,2.00734l0.51996,-32.2114l26.21331,-2.00735z" fill="#a36015" stroke="none" stroke-width="0"/><path d="M413.89432,305.9599l-22.96979,11.22479l16.67741,30.99104l-33.65488,-22.35272l-20.03967,5.38911l27.0448,29.06801l-53.73739,6.17101l-75.04765,-14.96504l7.94854,-22.11403l-53.67902,5.82656l34.09865,-29.23869l86.67949,-60.49124l86.6795,60.49124z" fill="#b48550" stroke="#000000" stroke-width="2.5"/><path d="M263.2939,292.89953l12.07164,-87.76085l2.72526,-44.20376l-11.31149,-41.70989l11.70874,-39.27599l-4.0097,-73.29146h81.34147l5.69376,17.14622l13.1436,63.68569c0,0 -4.57234,25.23385 -3.76312,40.67998c1.01054,19.28903 -6.23451,78.98054 -6.23451,78.98054l4.88665,74.5244z" fill="#b48550" stroke="#000000" stroke-width="2.5"/><path d="M265.53321,304.75112v-25.56846h103.71036v25.56846z" fill="#b48550" stroke="none" stroke-width="0"/><path d="M374.33669,281.47427l-7.54451,1.05768l-7.5445,-1.05768l7.5445,-1.05768z" fill="#b48550" stroke="none" stroke-width="0"/><path d="M284.60656,148.45585l3.99014,51.87782l-3.99014,51.87782l-3.99015,-51.87782z" fill="#a36015" stroke="none" stroke-width="0"/><path d="M360.01176,153.09133l1.08152,52.09132l-6.87998,51.42022l-1.08154,-52.09131z" fill="#a36015" stroke="none" stroke-width="0"/><path d="M344.32939,216.14761l15.99442,48.27342l8.35189,51.09114l-15.99444,-48.27342z" fill="#a36015" stroke="none" stroke-width="0"/><path d="M340.60802,266.3807l25.37009,27.34118l20.75366,32.67929l-25.3701,-27.34117z" fill="#a36015" stroke="none" stroke-width="0"/><path d="M282.24543,270.23176l-15.99444,48.27342l8.35189,-51.09114l15.99443,-48.27342z" fill="#a36015" stroke="none" stroke-width="0"/><path d="M266.24518,300.55651l-25.37009,27.34117l20.75366,-32.67929l25.37009,-27.34118z" fill="#a36015" stroke="none" stroke-width="0"/><path d="M328.89929,121.70757l-25.56987,74.36458l-27.80436,-73.55832l25.56987,-74.36458z" fill="#b48550" stroke="none" stroke-width="0"/><path d="M349.23768,57.03755l-22.87729,28.21533l-22.8773,-28.21532l22.8773,-28.21533z" fill="#b48550" stroke="none" stroke-width="0"/><path d="M311.87147,64.40911l18.55602,8.13415l-18.55602,8.13414l-18.55601,-8.13414z" fill="#d9ffac" stroke="#000000" stroke-width="2.5"/><path d="M345.67901,38.98989l8.13414,9.40511l-8.13414,9.40511l-8.13415,-9.40511z" fill="#d9ffac" stroke="#000000" stroke-width="2.5"/><path d="M373.64015,20.68809l22.87728,21.09794l-22.87728,21.09793l-22.8773,-21.09793z" fill="#d9ffac" stroke="#000000" stroke-width="2.5"/><path d="M347.20415,32.38092l20.33535,21.86051l-20.33535,21.86051l-20.33536,-21.86051z" fill="#d9ffac" stroke="#000000" stroke-width="2.5"/><path d="M355.33831,35.93959l25.92759,23.89406l-25.92759,23.89405l-25.92759,-23.89404z" fill="#d9ffac" stroke="#000000" stroke-width="2.5"/><path d="M361.69311,21.19647l12.96379,3.81287l-12.96379,3.81288l-12.9638,-3.81288z" fill="#9be644" stroke="none" stroke-width="0"/><path d="M304.75409,28.82221l28.21533,5.33803l-28.21533,5.33805l-28.21532,-5.33805z" fill="#9be644" stroke="none" stroke-width="0"/><path d="M234.39815,31.87251l17.22981,10.16117l-17.2298,10.16116l-17.22979,-10.16116z" fill="#9be644" stroke="none" stroke-width="0"/><path d="M284.16453,35.17703l-0.76257,3.81288l-0.76258,-3.81288l0.76258,-3.81288z" fill="#9be644" stroke="none" stroke-width="0"/><path d="M266.11689,52.71629l-0.76257,-0.25419l0.76257,-0.25419l0.76258,0.25419z" fill="#9be644" stroke="none" stroke-width="0"/><path d="M327.63138,33.90607l11.94704,6.3548l-11.94704,6.3548l-11.94703,-6.3548z" fill="#9be644" stroke="none" stroke-width="0"/><path d="M342.37451,36.95636l3.3045,2.79612l-3.3045,2.79612l-3.3045,-2.79612z" fill="#9be644" stroke="none" stroke-width="0"/><path d="M369.31886,34.92283l11.94703,8.64253l-11.94703,8.64254l-11.94704,-8.64254z" fill="#9be644" stroke="none" stroke-width="0"/><path d="M335.51132,42.5486l-41.4333,12.7096l-41.43331,-12.7096l41.43331,-12.7096z" fill="#9be644" stroke="none" stroke-width="0"/><path d="M361.43892,59.83365l-41.43331,12.7096l-41.4333,-12.7096l41.4333,-12.70961z" fill="#9be644" stroke="none" stroke-width="0"/><path d="M310.60051,98.47084l-17.79344,19.31858l-17.79344,-19.31858l17.79344,-19.3186z" fill="#a36015" stroke="none" stroke-width="0"/><path d="M327.37718,121.34813l-17.79344,19.31858l-17.79344,-19.31857l17.79344,-19.31861z" fill="#a36015" stroke="none" stroke-width="0"/><path d="M328.89929,121.56802l-25.56987,74.36458l-27.80436,-73.55832l25.56987,-74.36458z" fill="#b48550" stroke="none" stroke-width="0"/><path d="M349.23768,57.03755l-22.87729,28.21533l-22.8773,-28.21532l22.8773,-28.21533z" fill="#b48550" stroke="none" stroke-width="0"/><path d="M311.87147,64.40911l18.55602,8.13415l-18.55602,8.13414l-18.55601,-8.13414z" fill="#d9ffac" stroke="#000000" stroke-width="2.5"/><path d="M345.67901,38.98989l8.13414,9.40511l-8.13414,9.40511l-8.13415,-9.40511z" fill="#d9ffac" stroke="#000000" stroke-width="2.5"/><path d="M373.64015,20.68809l22.87728,21.09794l-22.87728,21.09793l-22.8773,-21.09793z" fill="#d9ffac" stroke="#000000" stroke-width="2.5"/><path d="M347.20415,32.38092l20.33535,21.86051l-20.33535,21.86051l-20.33536,-21.86051z" fill="#d9ffac" stroke="#000000" stroke-width="2.5"/><path d="M355.33831,35.93959l25.92759,23.89406l-25.92759,23.89405l-25.92759,-23.89404z" fill="#d9ffac" stroke="#000000" stroke-width="2.5"/><path d="M361.69311,21.19647l12.96379,3.81287l-12.96379,3.81288l-12.9638,-3.81288z" fill="#9be644" stroke="none" stroke-width="0"/><path d="M304.75409,28.82221l28.21533,5.33803l-28.21533,5.33805l-28.21532,-5.33805z" fill="#9be644" stroke="none" stroke-width="0"/><path d="M234.39815,31.87251l17.22981,10.16117l-17.2298,10.16116l-17.22979,-10.16116z" fill="#9be644" stroke="none" stroke-width="0"/><path d="M284.16453,35.17703l-0.76257,3.81288l-0.76258,-3.81288l0.76258,-3.81288z" fill="#9be644" stroke="none" stroke-width="0"/><path d="M266.11689,52.71629l-0.76257,-0.25419l0.76257,-0.25419l0.76258,0.25419z" fill="#9be644" stroke="none" stroke-width="0"/><path d="M327.63138,33.90607l11.94704,6.3548l-11.94704,6.3548l-11.94703,-6.3548z" fill="#9be644" stroke="none" stroke-width="0"/><path d="M342.37451,36.95636l3.3045,2.79612l-3.3045,2.79612l-3.3045,-2.79612z" fill="#9be644" stroke="none" stroke-width="0"/><path d="M369.31886,34.92283l11.94703,8.64253l-11.94703,8.64254l-11.94704,-8.64254z" fill="#9be644" stroke="none" stroke-width="0"/><path d="M335.51132,42.5486l-41.43331,12.7096l-41.4333,-12.7096l41.4333,-12.70961z" fill="#9be644" stroke="none" stroke-width="0"/><path d="M361.43892,59.83366l-41.43331,12.7096l-41.4333,-12.7096l41.4333,-12.7096z" fill="#9be644" stroke="none" stroke-width="0"/><path d="M323.32284,31.65531l52.69291,35.0785l-52.69291,35.0785l-52.69292,-35.0785z" fill="#d9ffac" stroke="#000000" stroke-width="2.5"/><path d="M243.83691,21.48763l51.79983,15.50572l-51.79982,15.50571l-51.79982,-15.50571z" fill="#d9ffac" stroke="#000000" stroke-width="2.5"/><path d="M231.33352,29.62176l20.2436,21.09794l-20.24359,21.09794l-20.24362,-21.09794z" fill="#d9ffac" stroke="#000000" stroke-width="2.5"/><path d="M412.93057,31.65531l11.01492,-3.55869l11.01492,3.55869l-11.01492,3.55868z" fill="#9be644" stroke="none" stroke-width="0"/><path d="M330.76534,34.19723l-48.52512,12.7096l-48.52511,-12.7096l48.52512,-12.70961z" fill="#9be644" stroke="none" stroke-width="0"/><path d="M417.09837,40.29784l-48.52512,12.7096l-48.52511,-12.7096l48.52512,-12.7096z" fill="#9be644" stroke="none" stroke-width="0"/><path d="M323.32284,31.65531l52.69291,35.0785l-52.69291,35.0785l-52.69292,-35.0785z" fill="#d9ffac" stroke="#000000" stroke-width="2.5"/><path d="M243.83691,21.48763l51.79983,15.50572l-51.79982,15.50571l-51.79982,-15.50571z" fill="#d9ffac" stroke="#000000" stroke-width="2.5"/><path d="M231.33352,29.62176l20.2436,21.09794l-20.24359,21.09794l-20.24362,-21.09794z" fill="#d9ffac" stroke="#000000" stroke-width="2.5"/><path d="M412.93057,31.65531l11.01492,-3.55869l11.01492,3.55869l-11.01492,3.55868z" fill="#9be644" stroke="none" stroke-width="0"/><path d="M330.76536,34.19724l-48.52511,12.7096l-48.52512,-12.7096l48.52512,-12.7096z" fill="#9be644" stroke="none" stroke-width="0"/><path d="M417.09837,40.29784l-48.52512,12.7096l-48.52512,-12.7096l48.52513,-12.70961z" fill="#9be644" stroke="none" stroke-width="0"/><path d="M330.9735,31.78529l-81.42986,65.85353l-81.42987,-65.85353l81.42987,-65.85356z" fill="#d9ffac" stroke="#000000" stroke-width="2.5"/><path d="M303.71066,-11.40238l66.72225,57.58356l-66.72225,57.58357l-66.72226,-57.58357z" fill="#d9ffac" stroke="#000000" stroke-width="2.5"/><path d="M336.71306,-26.71714l90.39789,52.37654l-90.39789,52.37654l-90.39789,-52.37653z" fill="#d9ffac" stroke="#000000" stroke-width="2.5"/><path d="M441.4598,-10.17722l78.20133,41.9625l-78.20133,41.96249l-78.20137,-41.96248z" fill="#d9ffac" stroke="#000000" stroke-width="2.5"/><path d="M167.75509,-6.50166l38.38323,22.05328l-38.38323,22.05328l-38.38322,-22.05327z" fill="#d9ffac" stroke="#000000" stroke-width="2.5"/><path d="M173.49463,-40.19416l10.40293,19.2966l-10.40293,19.29661l-10.40294,-19.29661z" fill="#d9ffac" stroke="#000000" stroke-width="2.5"/><path d="M192.14816,-40.19417l34.79602,29.71067l-34.79602,29.71066l-34.79602,-29.71066z" fill="#d9ffac" stroke="#000000" stroke-width="2.5"/><path d="M267.12103,-46.93267l33.00241,33.69252l-33.00241,33.69252l-33.0024,-33.69251z" fill="#d9ffac" stroke="#000000" stroke-width="2.5"/><path d="M250.2611,-66.5356l52.7321,36.14288l-52.7321,36.14287l-52.7321,-36.14286z" fill="#d9ffac" stroke="#000000" stroke-width="2.5"/><path d="M361.46488,-72.04891l76.40773,38.28695l-76.40775,38.28695l-76.40774,-38.28695z" fill="#d9ffac" stroke="#000000" stroke-width="2.5"/><path d="M373.30265,-73.27409l42.32918,22.66588l-42.32918,22.66588l-42.32917,-22.66587z" fill="#d9ffac" stroke="#000000" stroke-width="2.5"/><path d="M463.70058,-62.24745l27.9803,23.27845l-27.9803,23.27845l-27.9803,-23.27845z" fill="#d9ffac" stroke="#000000" stroke-width="2.5"/><path d="M413.83823,-4.05129l22.59949,17.15255l-22.59949,17.15255l-22.59949,-17.15255z" fill="#d9ffac" stroke="#000000" stroke-width="2.5"/><path d="M373.6614,-12.01498l44.84022,13.477l-44.84022,13.47699l-44.84022,-13.47699z" fill="#d9ffac" stroke="#000000" stroke-width="2.5"/><path d="M406.30509,-23.65421l40.89428,33.69252l-40.89428,33.69252l-40.8943,-33.69251z" fill="#d9ffac" stroke="#000000" stroke-width="2.5"/><path d="M493.83319,25.04679l-166.08819,79.94315l-166.08819,-79.94314l166.08821,-79.94315z" fill="#d9ffac" stroke="none" stroke-width="0"/><path d="M310.16766,25.35308l-58.47165,15.31478l-58.47166,-15.31478l58.47166,-15.31479z" fill="#9be644" stroke="none" stroke-width="0"/><path d="M296.53622,-19.97868l27.26287,5.81962l-27.26287,5.8196l-27.26287,-5.8196z" fill="#9be644" stroke="none" stroke-width="0"/><path d="M310.16766,-13.24017l-58.47165,15.31478l-58.47166,-15.31477l58.47166,-15.31479z" fill="#9be644" stroke="none" stroke-width="0"/><path d="M267.12103,14.93903l-58.47165,15.31478l-58.47166,-15.31477l58.47166,-15.31477z" fill="#9be644" stroke="none" stroke-width="0"/><path d="M447.19934,27.19086l-58.47167,15.31478l-58.47166,-15.31478l58.47166,-15.31479z" fill="#9be644" stroke="none" stroke-width="0"/><path d="M402.00043,19.22718l-58.47165,15.31478l-58.47166,-15.31478l58.47166,-15.31479z" fill="#9be644" stroke="none" stroke-width="0"/><path d="M330.25608,-8.95203l-58.47166,15.31478l-58.47166,-15.31477l58.47167,-15.31479z" fill="#9be644" stroke="none" stroke-width="0"/><path d="M330.25608,-8.95203l-58.47166,15.31478l-58.47166,-15.31477l58.47167,-15.31479z" fill="#9be644" stroke="none" stroke-width="0"/><path d="M330.9735,31.78529l-81.42986,65.85353l-81.42987,-65.85353l81.42987,-65.85356z" fill="#d9ffac" stroke="#000000" stroke-width="2.5"/><path d="M303.71066,-11.40238l66.72225,57.58356l-66.72225,57.58357l-66.72226,-57.58357z" fill="#d9ffac" stroke="#000000" stroke-width="2.5"/><path d="M336.71306,-26.71714l90.39789,52.37654l-90.39789,52.37654l-90.39789,-52.37653z" fill="#d9ffac" stroke="#000000" stroke-width="2.5"/><path d="M441.4598,-10.17722l78.20133,41.9625l-78.20133,41.96249l-78.20137,-41.96248z" fill="#d9ffac" stroke="#000000" stroke-width="2.5"/><path d="M167.75509,-6.50166l38.38323,22.05328l-38.38323,22.05328l-38.38323,-22.05327z" fill="#d9ffac" stroke="#000000" stroke-width="2.5"/><path d="M173.49463,-40.19416l10.40293,19.2966l-10.40293,19.29661l-10.40294,-19.29661z" fill="#d9ffac" stroke="#000000" stroke-width="2.5"/><path d="M192.14816,-40.19417l34.79602,29.71067l-34.79602,29.71066l-34.79602,-29.71066z" fill="#d9ffac" stroke="#000000" stroke-width="2.5"/><path d="M267.12103,-46.93267l33.00241,33.69252l-33.00241,33.69252l-33.0024,-33.69251z" fill="#d9ffac" stroke="#000000" stroke-width="2.5"/><path d="M250.2611,-66.5356l52.7321,36.14288l-52.7321,36.14287l-52.7321,-36.14286z" fill="#d9ffac" stroke="#000000" stroke-width="2.5"/><path d="M361.46488,-72.04891l76.40773,38.28695l-76.40775,38.28695l-76.40774,-38.28695z" fill="#d9ffac" stroke="#000000" stroke-width="2.5"/><path d="M373.30265,-73.27409l42.32918,22.66588l-42.32918,22.66588l-42.32917,-22.66587z" fill="#d9ffac" stroke="#000000" stroke-width="2.5"/><path d="M463.70058,-62.24745l27.9803,23.27845l-27.9803,23.27845l-27.9803,-23.27845z" fill="#d9ffac" stroke="#000000" stroke-width="2.5"/><path d="M413.83823,-4.05129l22.59949,17.15255l-22.59949,17.15255l-22.59949,-17.15255z" fill="#d9ffac" stroke="#000000" stroke-width="2.5"/><path d="M373.6614,-12.01498l44.84022,13.477l-44.84022,13.47699l-44.84022,-13.47699z" fill="#d9ffac" stroke="#000000" stroke-width="2.5"/><path d="M406.30509,-23.65421l40.89428,33.69252l-40.89428,33.69252l-40.8943,-33.69251z" fill="#d9ffac" stroke="#000000" stroke-width="2.5"/><path d="M493.83319,25.04679l-166.08819,79.94315l-166.08819,-79.94314l166.08821,-79.94315z" fill="#d9ffac" stroke="none" stroke-width="0"/><path d="M310.16766,25.35308l-58.47165,15.31478l-58.47166,-15.31478l58.47166,-15.31479z" fill="#9be644" stroke="none" stroke-width="0"/><path d="M296.53622,-19.97864l27.26287,5.81961l-27.26287,5.81962l-27.26287,-5.81962z" fill="#9be644" stroke="none" stroke-width="0"/><path d="M310.16766,-13.24017l-58.47165,15.31478l-58.47166,-15.31477l58.47166,-15.31478z" fill="#9be644" stroke="none" stroke-width="0"/><path d="M267.12103,14.93903l-58.47166,15.31478l-58.47165,-15.31477l58.47165,-15.31479z" fill="#9be644" stroke="none" stroke-width="0"/><path d="M447.19934,27.19086l-58.47165,15.31478l-58.47166,-15.31478l58.47167,-15.31479z" fill="#9be644" stroke="none" stroke-width="0"/><path d="M402.00043,19.22718l-58.47166,15.31478l-58.47167,-15.31478l58.47167,-15.31479z" fill="#9be644" stroke="none" stroke-width="0"/><path d="M330.25608,-8.95203l-58.47166,15.31478l-58.47166,-15.31477l58.47167,-15.31479z" fill="#9be644" stroke="none" stroke-width="0"/><path d="M330.25608,-8.95203l-58.47166,15.31478l-58.47166,-15.31477l58.47167,-15.31479z" fill="#9be644" stroke="none" stroke-width="0"/><path d="M368.2188,84.36352l1.08152,42.46553l-6.87997,41.91845l-1.08153,-42.46553z" fill="#a36015" stroke="none" stroke-width="0"/><path d="M282.56193,130.13555l2.24214,23.7585l-10.11727,-22.8291l-2.24215,-23.7585z" fill="#a36015" stroke="none" stroke-width="0"/><path d="M351.8417,169.13449l-3.12037,52.00901l-4.86132,-51.65018l3.12035,-52.00903z" fill="#a36015" stroke="none" stroke-width="0"/><path d="M300.0136,115.37592l1.08152,52.09132l-6.87998,51.42022l-1.08154,-52.09131z" fill="#a36015" stroke="none" stroke-width="0"/><path d="M355.95921,146.65155c0,2.34945 -1.97051,3.26246 -2.27509,5.5122c-0.55707,4.11469 -0.26823,8.79648 -1.63248,12.5123c-1.80279,4.91029 -10.26298,6.84765 -9.51715,11.67878c1.15728,7.49616 -12.07447,10.90515 -21.3227,10.90515c-7.70516,0 -11.04237,-3.79128 -16.06071,-8.1019c-1.50958,-1.29669 -4.80252,-2.99427 -6.21474,-4.52753c-1.96116,-2.12927 -0.14589,-5.7113 -1.5299,-8.22994c-2.20304,-4.00909 -4.68183,-7.9418 -6.44519,-12.53705c-0.86756,-2.26082 0.24775,-4.82155 0.24775,-7.49111c0,-1.89811 3.9511,-5.39979 4.04447,-7.1542c0.36722,-6.89998 0.24726,-12.99513 1.81157,-17.24616c1.39296,-3.78537 5.16709,-5.96971 8.85962,-7.62051c3.14581,-1.40638 5.84976,-2.54031 11.10574,-2.70685c0.41336,-0.0131 6.97044,-2.11291 7.39099,-2.11291c9.15359,0 16.37872,1.91601 20.96791,7.3886c1.29483,1.54409 1.09544,5.04102 2.23957,6.81789c2.23404,3.46953 3.83828,6.99192 5.45466,11.20258c1.31631,3.42898 2.87568,7.36142 2.87568,11.71066z" fill="#000000" stroke="none" stroke-width="0"/><path d="M309.77641,140.68869c-0.73543,0.14709 -0.88253,-0.58835 -0.88253,-0.58835l-0.15411,-0.84483c0.00292,-1.58978 -0.27618,-3.15481 -0.27909,-4.74463c0,0 0,-0.75 0.75,-0.75c0.75,0 0.75,0.75 0.75,0.75c-0.00324,1.58876 0.27648,3.15422 0.27909,4.74463l0.12498,0.55066c0,0 0.14709,0.73543 -0.58834,0.88252z" fill="#000000" stroke="none" stroke-width="0.5"/><path d="M348.42,159.88632c-0.15811,0.47434 -0.63246,0.31623 -0.63246,0.31623l-0.27621,-0.0921c-1.26352,-0.40875 -2.6756,-0.84508 -4.09808,-1.16829l-0.01473,0.26815c-1.70251,4.22009 -5.66842,5.44735 -9.24155,7.62107c-4.90796,2.9265 -14.73629,2.57997 -19.84557,0.49778c-4.11333,-0.6751 -8.83183,-3.63419 -10.26918,-7.71723c-0.38149,-1.08372 -0.24879,-2.48066 -0.20082,-3.6922c-0.79844,0.25554 -1.57556,0.5296 -2.31685,0.80767c0,0 -0.46816,0.17556 -0.64373,-0.2926c-0.17556,-0.46816 0.2926,-0.64373 0.2926,-0.64373c0.90619,-0.33971 1.8621,-0.67216 2.8442,-0.9736c0.108,-0.14398 0.288,-0.26395 0.58797,-0.26395c0.08202,0 0.15508,0.00897 0.22014,0.02495c2.20446,-0.62674 4.50611,-1.06937 6.64889,-1.06937h0.37502c0,0 0.5,0 0.5,0.5c0,0.5 -0.5,0.5 -0.5,0.5h-0.37502c-1.96737,0 -4.08221,0.39396 -6.12097,0.95847c-0.02492,1.10489 -0.2755,2.60653 0.09442,3.62133c1.33701,3.66785 5.57604,6.17158 9.26752,6.79575c4.7557,1.87354 14.09098,2.42752 18.66964,-0.33951c3.23705,-1.92028 7.10784,-3.0871 8.61654,-6.88172c-0.82106,-0.1352 -1.6302,-0.21656 -2.40039,-0.21656c0,0 -0.5,0 -0.5,-0.5c0,-0.5 0.5,-0.5 0.5,-0.5c0.82775,0 1.69382,0.08827 2.57039,0.23425c0.11111,-0.11242 0.27842,-0.19707 0.53039,-0.19707l-0.00001,0.00001c0.41307,0 0.59864,0.2275 0.682,0.43191c1.53362,0.33547 3.06037,0.80348 4.43329,1.24252l0.28633,0.09541c0,0 0.47434,0.15811 0.31623,0.63246z" fill="#ffffff" stroke="none" stroke-width="0.5"/><path d="M316.72496,136.883c-0.5,0 -0.5,-0.5 -0.5,-0.5v-0.37502c0.00314,-2.23423 1.1051,-9.16221 -2.37536,-9.15782c-3.30587,0.40082 -7.80904,6.53209 -6.41101,9.81593c0,0 0.1857,0.46424 -0.27854,0.64993c-0.46424,0.1857 -0.64993,-0.27854 -0.64993,-0.27854c-1.54002,-4.02465 3.22486,-10.66682 7.27735,-11.18539c4.57925,0.00463 3.43285,7.14634 3.4375,10.15589v0.37502c0,0 0,0.5 -0.5,0.5z" fill="#ffffff" stroke="none" stroke-width="0.5"/><path d="M341.85153,141.38328c-0.5,0 -0.5,-0.5 -0.5,-0.5v-0.28127c0,-3.42039 -0.59234,-6.35572 -1.02689,-9.68424c-0.12829,-0.98265 -0.56257,-3.04237 -1.56785,-3.41938c-4.77366,0.07667 -6.64473,4.3359 -6.06597,8.91635c0,0 0.06202,0.49614 -0.43412,0.55816c-0.49614,0.06202 -0.55816,-0.43412 -0.55816,-0.43412c-0.65001,-5.25244 1.72539,-10.08869 7.24736,-10.02234c1.55568,0.63794 2.15578,2.69355 2.3699,4.2686c0.457,3.36165 1.03574,6.35984 1.03574,9.81698v0.28127c0,0 0,0.5 -0.5,0.5z" fill="#ffffff" stroke="none" stroke-width="0.5"/></g></g></svg>