<svg version="1.1" xmlns="http://www.w3.org/2000/svg" xmlns:xlink="http://www.w3.org/1999/xlink" width="34.17311" height="34.17311" viewBox="0,0,34.17311,34.17311"><g transform="translate(-302.91345,-162.91344)"><g data-paper-data="{&quot;isPaintingLayer&quot;:true}" stroke="none" stroke-miterlimit="10" stroke-dasharray="" stroke-dashoffset="0" style="mix-blend-mode: normal"><path d="M309.98312,162.91345h20.03379c3.9166,0 7.06966,3.15307 7.06966,7.06966v20.03379c0,3.91659 -3.15306,7.06966 -7.06966,7.06966h-20.03379c-3.91659,0 -7.06966,-3.15307 -7.06966,-7.06966v-20.03379c0,-3.91659 3.15307,-7.06966 7.06966,-7.06966z" fill="#babebf" fill-rule="evenodd" stroke-width="4.43922" stroke-linecap="round" stroke-linejoin="round"/><path d="M307.61945,169.02862c0.132,-0.52613 0.72412,-0.52613 0.72412,-0.52613h0.625c3.93989,0.0038 8.01734,-0.33761 11.93788,-0.71349c3.40209,-0.32272 6.86666,-0.3451 10.27253,-0.02874c1.14495,0.10635 2.35836,-0.09255 2.94951,1.26893c0.46556,1.07225 -0.01552,3.63024 -0.03509,4.82251c-0.06248,3.80633 0.03811,7.56335 0.14709,11.36747c0.13892,5.44441 -3.6028,6.7036 -8.31619,7.09428c-5.21809,0.43251 -10.62713,-0.13329 -15.80967,-0.7557c-1.19307,-0.19074 -3.02791,-0.10023 -3.91069,-1.09712c-0.91213,-1.03005 -0.38226,-3.94201 -0.37634,-5.19341c0.02463,-5.20539 0.62037,-10.38358 0.62014,-15.59806c0,0 0,-0.75 0.75,-0.75c0.18054,0 0.31763,0.04346 0.42171,0.10946z" fill="#000000" fill-rule="nonzero" stroke-width="0.5" stroke-linecap="butt" stroke-linejoin="miter"/><path d="M313.40199,175.98265c0,-0.41422 0.33578,-0.75 0.75,-0.75c0.41422,0 0.75,0.33578 0.75,0.75c0,0.41422 -0.33578,0.75 -0.75,0.75c-0.41422,0 -0.75,-0.33578 -0.75,-0.75z" fill="#ffffff" fill-rule="nonzero" stroke-width="0.5" stroke-linecap="butt" stroke-linejoin="miter"/><path d="M325.27698,175.67015c0,-0.41421 0.33579,-0.75 0.75,-0.75c0.41421,0 0.75,0.33579 0.75,0.75c0,0.41421 -0.33579,0.75 -0.75,0.75c-0.41421,0 -0.75,-0.33579 -0.75,-0.75z" fill="#ffffff" fill-rule="nonzero" stroke-width="0.5" stroke-linecap="butt" stroke-linejoin="miter"/><path d="M327.69301,183.69195c0.62404,0.41603 0.20801,1.04006 0.20801,1.04006l-0.26794,0.39035c-4.06902,4.58867 -12.32102,2.70175 -15.44799,-1.72803c0,0 -0.43251,-0.61273 0.18021,-1.04524c0.61273,-0.43251 1.04524,0.18021 1.04524,0.18021c2.54802,3.60977 9.71844,5.52613 13.09367,1.6053l0.14873,-0.23465c0,0 0.41603,-0.62404 1.04006,-0.20801z" fill="#ffffff" fill-rule="nonzero" stroke-width="0.5" stroke-linecap="butt" stroke-linejoin="miter"/></g></g></svg>