<svg version="1.1" xmlns="http://www.w3.org/2000/svg" xmlns:xlink="http://www.w3.org/1999/xlink" width="148.11569" height="317.62068" viewBox="0,0,148.11569,317.62068"><defs><linearGradient x1="389.58244" y1="112.11284" x2="348.36883" y2="113.62292" gradientUnits="userSpaceOnUse" id="color-1"><stop offset="0" stop-color="#ff8600"/><stop offset="1" stop-color="#562e0d"/></linearGradient><linearGradient x1="242.10508" y1="116.07539" x2="283.31869" y2="114.56531" gradientUnits="userSpaceOnUse" id="color-2"><stop offset="0" stop-color="#ff8600"/><stop offset="1" stop-color="#562e0d"/></linearGradient><linearGradient x1="315.17984" y1="155.63354" x2="321.72788" y2="334.34601" gradientUnits="userSpaceOnUse" id="color-3"><stop offset="0" stop-color="#141414"/><stop offset="1" stop-color="#020202"/></linearGradient><linearGradient x1="316.6645" y1="147.3794" x2="317.86878" y2="180.24724" gradientUnits="userSpaceOnUse" id="color-4"><stop offset="0" stop-color="#c46704"/><stop offset="1" stop-color="#ffd300"/></linearGradient><linearGradient x1="313.50885" y1="61.61122" x2="317.40605" y2="167.97545" gradientUnits="userSpaceOnUse" id="color-5"><stop offset="0" stop-color="#9c6400"/><stop offset="1" stop-color="#ffd300"/></linearGradient><linearGradient x1="320.7115" y1="269.09712" x2="321.63563" y2="294.31893" gradientUnits="userSpaceOnUse" id="color-6"><stop offset="0" stop-color="#0cb700"/><stop offset="1" stop-color="#012f00"/></linearGradient><linearGradient x1="253.66116" y1="285.68421" x2="269.69458" y2="285.44157" gradientUnits="userSpaceOnUse" id="color-7"><stop offset="0" stop-color="#ffffff"/><stop offset="1" stop-color="#929292"/></linearGradient><linearGradient x1="390.17516" y1="279.91147" x2="374.16697" y2="280.84285" gradientUnits="userSpaceOnUse" id="color-8"><stop offset="0" stop-color="#ffffff"/><stop offset="1" stop-color="#929292"/></linearGradient><linearGradient x1="292.44621" y1="293.14416" x2="278.28538" y2="283.52819" gradientUnits="userSpaceOnUse" id="color-9"><stop offset="0" stop-color="#ffffff"/><stop offset="1" stop-color="#929292"/></linearGradient><linearGradient x1="327.85028" y1="277.79528" x2="314.35934" y2="286.46275" gradientUnits="userSpaceOnUse" id="color-10"><stop offset="0" stop-color="#ffffff"/><stop offset="1" stop-color="#929292"/></linearGradient><linearGradient x1="366.48637" y1="288.74933" x2="352.49049" y2="283.63547" gradientUnits="userSpaceOnUse" id="color-11"><stop offset="0" stop-color="#ffffff"/><stop offset="1" stop-color="#929292"/></linearGradient><linearGradient x1="307.58793" y1="281.75644" x2="293.97422" y2="287.07305" gradientUnits="userSpaceOnUse" id="color-12"><stop offset="0" stop-color="#ffffff"/><stop offset="1" stop-color="#929292"/></linearGradient><linearGradient x1="331.62262" y1="280.2495" x2="345.5889" y2="284.55561" gradientUnits="userSpaceOnUse" id="color-13"><stop offset="0" stop-color="#ffffff"/><stop offset="1" stop-color="#929292"/></linearGradient><radialGradient cx="279.56174" cy="111.37482" r="42.50334" gradientUnits="userSpaceOnUse" id="color-14"><stop offset="0" stop-color="#603201"/><stop offset="1" stop-color="#321902"/></radialGradient><radialGradient cx="283.95744" cy="112.35939" r="43.17404" gradientUnits="userSpaceOnUse" id="color-15"><stop offset="0" stop-color="#000000"/><stop offset="1" stop-color="#ffffff" stop-opacity="0.01569"/></radialGradient><radialGradient cx="285.4123" cy="107.86381" r="33.73477" gradientUnits="userSpaceOnUse" id="color-16"><stop offset="0" stop-color="#000000" stop-opacity="0.22745"/><stop offset="1" stop-color="#000000"/></radialGradient><radialGradient cx="287.1024" cy="105.80242" r="8.4479" gradientUnits="userSpaceOnUse" id="color-17"><stop offset="0" stop-color="#ffffff"/><stop offset="1" stop-color="#5a5a5a"/></radialGradient><radialGradient cx="287.32075" cy="106.12273" r="2.6136" gradientUnits="userSpaceOnUse" id="color-18"><stop offset="0" stop-color="#ffffff"/><stop offset="1" stop-color="#5a5a5a"/></radialGradient></defs><g transform="translate(-242.05946,-14.88593)"><g stroke-miterlimit="10"><path d="M348.35502,113.24513c-0.67224,-19.15902 10.42071,-34.7549 20.94867,-35.12428c10.52797,-0.3694 19.60751,14.86258 20.27976,34.02156c0.67223,19.159 -7.31744,34.98985 -17.8454,35.35925c-10.52796,0.36938 -22.71078,-15.09759 -23.38301,-34.25659z" fill="url(#color-1)" stroke="#000000" stroke-width="0" stroke-linecap="butt"/><path d="M283.30477,114.1875c0.73165,19.15681 -10.28659,35.47388 -20.81335,35.87594c-10.52675,0.40203 -19.65353,-14.80167 -20.38519,-33.95849c-0.73165,-19.15681 7.20885,-35.01241 17.73562,-35.41446c10.52675,-0.40205 22.73129,14.3402 23.46296,33.49703z" fill="url(#color-2)" stroke="#000000" stroke-width="0" stroke-linecap="butt"/><path d="M272.55574,332.50661l-7.61198,-147.09571c0,0 5.96435,-25.93399 16.17309,-26.71355c10.13812,-0.77415 34.18291,-2.21216 55.17272,-3.81496c22.76591,-1.73843 30.85306,24.86165 30.85306,24.86165l5.84354,152.72386z" fill="url(#color-3)" stroke="#000000" stroke-width="0" stroke-linecap="butt"/><path d="M340.0779,162.97751c0.33256,9.0762 -9.61079,16.80811 -22.2091,17.26971c-12.59831,0.4616 -23.08084,-6.52191 -23.41338,-15.5981c-0.33256,-9.0762 9.61079,-16.80811 22.2091,-17.26971c12.59831,-0.4616 23.08084,6.52191 23.41338,15.5981z" fill="url(#color-4)" stroke="#000000" stroke-width="0" stroke-linecap="butt"/><path d="M370.15268,115.01545c-0.89663,28.54013 -25.97174,53.91573 -56.20946,52.96575c-30.23772,-0.94995 -54.18765,-27.86574 -53.29101,-56.40587c0.89663,-28.54012 26.13602,-50.90638 56.37375,-49.9564c30.23772,0.94995 54.02339,24.8564 53.12675,53.39651z" fill="url(#color-5)" stroke="#000000" stroke-width="0" stroke-linecap="butt"/><path d="M330.26625,105.99806c0.09919,2.70703 -6.46838,5.14508 -14.66907,5.44555c-8.2007,0.30048 -14.92906,-1.65042 -15.02825,-4.35745c-0.09919,-2.70703 6.46838,-5.14508 14.66907,-5.44555c8.2007,-0.30048 14.92906,1.65042 15.02825,4.35745z" fill-opacity="0.18431" fill="#ff0505" stroke="none" stroke-width="0" stroke-linecap="butt"/><path d="M340.25998,200.97102l1.87075,-15.93214l7.43605,16.33475l-16.56147,-11.78664l21.48126,-2.27428z" fill="none" stroke-opacity="0.67059" stroke="#ffffff" stroke-width="2.5" stroke-linecap="round"/><path d="M285.66574,186.03508c10.10418,-6.66463 21.90034,5.19463 11.17376,13.36009c-4.78796,3.64476 -13.94748,1.98079 -16.69575,-3.42041c-2.95977,-5.81684 3.62566,-11.63939 9.08655,-10.48482" fill="none" stroke-opacity="0.67059" stroke="#ffffff" stroke-width="2.5" stroke-linecap="round"/><path d="M298.31535,193.33676c2.37002,-0.08655 8.07388,-1.16142 9.63422,1.33487c2.92393,4.67784 -5.83272,9.28001 -9.11808,9.8003c-6.45496,1.02223 -14.6909,0.85866 -20.64766,-1.74318c-4.83308,-2.11102 -5.21936,-7.47168 0.73799,-7.68996" fill="none" stroke-opacity="0.67059" stroke="#ffffff" stroke-width="2.5" stroke-linecap="round"/><path d="M281.99322,237.8852c0.46997,-9.9194 -1.50035,-22.30784 1.29728,-31.85239" fill="none" stroke-opacity="0.67059" stroke="#ffffff" stroke-width="2.5" stroke-linecap="round"/><path d="M300.123,205.41607c3.07721,10.63711 3.99784,21.51147 6.85208,32.10952" fill="none" stroke-opacity="0.67059" stroke="#ffffff" stroke-width="2.5" stroke-linecap="round"/><path d="M288.91771,210.78399c0.01221,0.33311 0.02441,0.66622 0.03661,0.99933" fill="none" stroke-opacity="0.67059" stroke="#ffffff" stroke-width="2.5" stroke-linecap="round"/><path d="M294.57476,209.58525c0.02442,0.66622 0.04883,1.33244 0.07324,1.99866" fill="none" stroke-opacity="0.67059" stroke="#ffffff" stroke-width="2.5" stroke-linecap="round"/><path d="M297.30546,216.5304c0.02507,1.93269 -0.01575,6.41477 -2.21509,7.41234c-4.25191,1.92858 -8.01293,-2.50001 -8.14653,-6.14609" fill="none" stroke-opacity="0.67059" stroke="#ffffff" stroke-width="2.5" stroke-linecap="round"/><path d="M361.42628,19.60218l12.24571,0.67894l-29.29973,16.62161l17.09076,0.15744l-8.23328,37.96957" fill="none" stroke="#000000" stroke-width="2.5" stroke-linecap="round"/><path d="M364.54163,17.82718c0.51693,2.09887 -0.85604,4.24169 -3.06663,4.78614c-2.21057,0.54444 -4.42168,-0.71566 -4.93861,-2.81452c-0.51693,-2.09887 0.85604,-4.2417 3.06663,-4.78614c2.21057,-0.54444 4.42167,0.71566 4.9386,2.81452z" fill="#a65807" stroke="#000000" stroke-width="0" stroke-linecap="butt"/><path d="M272.70382,77.54124l-9.42312,-37.69192l17.07738,-0.69476l-29.80787,-15.69209l12.2183,-1.06365" fill="none" stroke="#000000" stroke-width="2.5" stroke-linecap="round"/><path d="M264.44656,17.75426c2.22661,0.47467 3.66629,2.57326 3.21559,4.68734c-0.45068,2.11408 -2.62104,3.44307 -4.84766,2.96841c-2.22661,-0.47466 -3.6663,-2.57326 -3.2156,-4.68734c0.45068,-2.11408 2.62105,-3.44308 4.84767,-2.96842z" fill="#a65807" stroke="#000000" stroke-width="0" stroke-linecap="butt"/><path d="M266.80007,296.32812c0,0 -4.12078,-7.96588 -4.27251,-12.10716c-0.15618,-4.26248 3.34839,-13.11465 3.34839,-13.11465c0,0 37.24731,4.37608 55.27413,3.71558c18.51706,-0.67846 54.39698,-7.73394 54.39698,-7.73394c0,0 2.85487,8.24946 3.0084,12.44013c0.15449,4.21647 -2.08428,12.7817 -2.08428,12.7817c0,0 -33.13225,3.86358 -50.68632,4.50675c-18.903,0.69262 -58.98479,-0.4884 -58.98479,-0.4884z" fill="url(#color-6)" stroke="#000000" stroke-width="0" stroke-linecap="butt"/><path d="M336.57622,104.43368l-0.78249,-13.96363c0,0 1.73609,-2.77637 2.74887,-2.76762c1.26595,0.01093 4.25819,2.82818 4.25819,2.82818l0.78249,13.96363c0,0 -2.29958,3.56903 -3.38776,3.55963c-1.23006,-0.01064 -3.61928,-3.62016 -3.61928,-3.62016z" fill="#000000" stroke="#000000" stroke-width="2.5" stroke-linecap="butt"/><path d="M269.8322,294.53606l-16.17105,-8.85186l15.89579,-9.33715z" fill="url(#color-7)" stroke="#000000" stroke-width="0" stroke-linecap="butt"/><path d="M373.63868,271.76266l16.53648,8.14882l-15.47989,10.01155z" fill="url(#color-8)" stroke="#000000" stroke-width="0" stroke-linecap="butt"/><path d="M282.65264,276.19431l9.79358,16.94984l-18.52809,-2.28205z" fill="url(#color-9)" stroke="#000000" stroke-width="0" stroke-linecap="butt"/><path d="M309.44299,278.81038l18.40729,-1.0151l-8.57458,16.31977z" fill="url(#color-10)" stroke="#000000" stroke-width="0" stroke-linecap="butt"/><path d="M356.80238,274.79008l9.68401,13.95926l-18.30774,3.73153z" fill="url(#color-11)" stroke="#000000" stroke-width="0" stroke-linecap="butt"/><path d="M289.01665,278.29575l18.57128,3.46069l-8.65612,14.09396z" fill="url(#color-12)" stroke="#000000" stroke-width="0" stroke-linecap="butt"/><path d="M341.28697,293.67219l-9.66434,-13.42269l18.26822,-4.81049z" fill="url(#color-13)" stroke="#000000" stroke-width="0" stroke-linecap="butt"/><path d="M313.54473,62.41946c0,0 -9.70276,26.07819 -10.18446,34.90107c-0.5417,9.92184 -9.02662,23.75099 -10.24224,30.21846c-2.11411,11.24764 -7.0514,30.84144 -7.0514,30.84144c0,0 -12.89802,-10.00027 -16.61118,-15.80918c-4.60856,-7.20973 -11.83564,-28.76766 -11.83564,-28.76766c0,0 2.77929,-14.46094 8.44577,-24.29442c7.15522,-12.417 22.48975,-24.57459 30.66793,-24.87424c1.66772,-0.0611 2.57971,-1.52038 3.86543,-1.83261c2.8831,-0.70013 5.46726,-0.54792 7.21257,-0.80194c4.31571,-0.62813 5.73321,0.41909 5.73321,0.41909z" fill="url(#color-14)" stroke="#000000" stroke-width="0" stroke-linecap="butt"/><path d="M308.46301,68.93207c0,0 -8.76045,23.54554 -9.19536,31.51157c-0.48909,8.95825 -8.14997,21.44435 -9.24754,27.28371c-1.9088,10.15529 -6.36658,27.84618 -6.36658,27.84618c0,0 -11.64539,-9.02906 -14.99793,-14.27383c-4.16099,-6.50954 -10.68619,-25.97382 -10.68619,-25.97382c0,0 2.50937,-13.05651 7.62553,-21.935c6.46033,-11.21108 20.30561,-22.18796 27.68952,-22.4585c1.50575,-0.05516 2.32918,-1.37273 3.49004,-1.65464c2.60311,-0.63214 4.93628,-0.4947 6.5121,-0.72405c3.89658,-0.56714 5.17642,0.37839 5.17642,0.37839z" fill="url(#color-15)" stroke="#000000" stroke-width="2.5" stroke-linecap="butt"/><path d="M304.56013,73.93114c0,0 -6.84513,18.39771 -7.18495,24.62209c-0.38215,6.99966 -6.36813,16.75591 -7.22572,21.31859c-1.49146,7.93501 -4.97464,21.75808 -4.97464,21.75808c0,0 -9.09933,-7.05501 -11.7189,-11.15309c-3.25127,-5.08633 -8.34984,-20.29508 -8.34984,-20.29508c0,0 1.96075,-10.20193 5.95835,-17.13928c5.04789,-8.75997 15.86612,-17.33694 21.63568,-17.54834c1.17654,-0.04311 1.81994,-1.0726 2.72699,-1.29288c2.034,-0.49393 3.85707,-0.38654 5.08834,-0.56577c3.04466,-0.44314 4.04468,0.29566 4.04468,0.29566z" fill="url(#color-16)" stroke="#000000" stroke-width="2.5" stroke-linecap="butt"/><path d="M301.31447,79.64103c0,0 -4.36241,11.72487 -4.57898,15.69168c-0.24355,4.4609 -4.05841,10.67856 -4.60497,13.58636c-0.95051,5.057 -4.00409,27.07359 -4.00409,27.07359c0,0 -10.81367,-17.48901 -12.48312,-20.10074c-2.07204,-3.24152 0.52705,-13.14837 0.52705,-13.14837c0,0 1.24958,-6.5017 3.79726,-10.92288c3.21703,-5.58273 10.11149,-11.04885 13.78844,-11.18358c0.74982,-0.02748 1.15985,-0.68359 1.73792,-0.82395c1.29627,-0.31478 2.45811,-0.24634 3.2428,-0.36056c1.94036,-0.28241 2.57768,0.18842 2.57768,0.18842z" fill="none" stroke="#000000" stroke-width="2.5" stroke-linecap="butt"/><path d="M348.59704,107.61758l-12.44666,-0.16599" fill="none" stroke="#000000" stroke-width="2.5" stroke-linecap="round"/><path d="M344.1584,88.84368l-7.93731,-0.1757" fill="none" stroke="#000000" stroke-width="2.5" stroke-linecap="round"/><path d="M343.47521,83.62435l-5.85986,2.89544" fill="none" stroke="#000000" stroke-width="2.5" stroke-linecap="round"/><path d="M334.29817,107.83049l6.15172,6.61692" fill="none" stroke="#000000" stroke-width="2.5" stroke-linecap="round"/><path d="M296.11389,97.02224c0.10498,2.86501 -0.18237,6.99039 -0.79834,11.29717c-1.32947,9.29548 -4.1899,19.43605 -7.94111,19.5735c-3.92682,0.14389 -9.50786,-8.39524 -10.90067,-16.47201c-0.55417,-3.21358 1.90192,-6.19351 1.80755,-8.76904c-0.33154,-9.04865 12.8415,-21.54176 18.33074,-21.74288c5.48922,-0.20112 -0.8297,7.06461 -0.49815,16.11325z" fill="#000000" stroke="#000000" stroke-width="2.5" stroke-linecap="butt"/><path d="M294.62088,106.43474c-0.22094,4.66746 -4.268,7.97918 -7.79512,7.8122c-3.52712,-0.16697 -7.42825,-3.41859 -7.20731,-8.08604c0.22094,-4.66746 4.48029,-8.98328 8.00741,-8.81632c3.52712,0.16697 7.21596,4.4227 6.99502,9.09016z" fill="url(#color-17)" stroke="none" stroke-width="0" stroke-linecap="butt"/><path d="M291.31438,105.73697c0.17178,3.36698 -1.51598,6.34816 -3.76975,6.65868c-2.25376,0.31051 -4.22006,-2.16725 -4.39186,-5.53421c-0.17178,-3.36698 1.51598,-6.34817 3.76975,-6.65869c2.25376,-0.31051 4.22006,2.16726 4.39186,5.53422z" fill="#000000" stroke="none" stroke-width="0" stroke-linecap="butt"/><path d="M289.93261,106.02704c0.05285,1.44248 -1.07367,2.65469 -2.51615,2.70754c-1.44248,0.05285 -2.65469,-1.07367 -2.70754,-2.51615c-0.05285,-1.44248 1.07367,-2.65469 2.51615,-2.70754c1.44248,-0.05285 2.65469,1.07367 2.70754,2.51615z" fill="url(#color-18)" stroke="none" stroke-width="0" stroke-linecap="butt"/><path d="M348.57967,104.06117c0.09882,1.40192 -1.10262,2.62874 -2.68351,2.74018c-1.58089,0.11144 -2.94257,-0.9347 -3.04139,-2.33661c-0.09882,-1.40192 1.10262,-2.62874 2.68351,-2.74018c1.58089,-0.11144 2.94257,0.9347 3.04139,2.33661z" fill="#ffffff" stroke="#000000" stroke-width="2.5" stroke-linecap="butt"/><path d="M290.34231,155.82593l6.16225,-10.30165l10.54209,1.75796l8.74135,-2.61026l11.09813,1.9335l11.05749,-3.98304l4.50694,11.66011l-23.5016,5.45574z" fill="#ffffff" stroke="#000000" stroke-width="2.5" stroke-linecap="round"/></g></g></svg>