<svg version="1.1" xmlns="http://www.w3.org/2000/svg" xmlns:xlink="http://www.w3.org/1999/xlink" width="202.53561" height="326.81132" viewBox="0,0,202.53561,326.81132"><g transform="translate(-206.73043,-71.58362)"><g data-paper-data="{&quot;isPaintingLayer&quot;:true}" fill-rule="nonzero" stroke-width="2" stroke-linejoin="miter" stroke-miterlimit="10" stroke-dasharray="" stroke-dashoffset="0" style="mix-blend-mode: normal"><g><path d="M359.7477,250.52022c1.5091,-4.17854 2.61897,-11.37422 5.83751,-13.53809c6.1018,-4.10234 22.36775,2.44403 25.70146,15.47594c0.54608,2.13467 1.43552,6.92056 -0.75022,6.84204c-0.47738,-0.01716 -2.73556,-1.69912 -2.92258,-1.07411c-0.06142,0.20527 1.92087,4.16019 2.09404,4.81588c0.92346,3.49686 1.07701,7.50169 -0.71995,9.34076c-1.76225,1.80359 -5.69027,-3.78917 -6.51443,-3.14497c-1.23766,0.9674 0.37968,9.43696 -6.04321,7.1561c-3.47535,-1.23415 -8.6656,-10.6472 -8.98373,-10.7517c-1.65209,-0.54269 -3.9811,4.98062 -9.40373,-0.37923c-4.98732,-4.92961 -1.91504,-14.11762 1.41819,-14.94621z" fill="#feed00" stroke="#000000" stroke-linecap="round"/><path d="M380.74,250.71021c0.23564,1.98449 -0.26561,3.5501 -1.24361,4.51748c-1.08254,1.07079 -3.31339,-1.33563 -5.21139,-1.97365c-1.9808,-0.66586 -3.23815,0.48783 -4.56141,-1.50243c-1.09019,-1.63971 -1.84221,-3.55069 -2.06646,-5.43934c-0.49645,-4.18109 2.0298,-6.58604 5.64254,-5.37157c3.61274,1.21447 6.94388,5.58842 7.44033,9.76951z" fill="#ffa600" stroke="none" stroke-linecap="butt"/><path d="M363.92579,261.54942c0.4965,2.30644 -0.69082,3.87099 -2.65191,3.49456c-1.96109,-0.37645 -3.95336,-2.55137 -4.44985,-4.85781c-0.4965,-2.30644 0.69082,-3.87099 2.6519,-3.49457c1.96109,0.37645 3.95338,2.55137 4.44986,4.8578z" fill="#ffa600" stroke="none" stroke-linecap="butt"/><path d="M380.02355,271.09867c0.48986,2.27569 -0.68294,3.81915 -2.61953,3.44739c-1.93659,-0.37174 -3.90363,-2.51792 -4.39349,-4.79361c-0.48986,-2.27569 0.68294,-3.81915 2.61952,-3.44739c1.93659,0.37174 3.90363,2.51792 4.39349,4.79361z" fill="#ffa600" stroke="none" stroke-linecap="butt"/><path d="M388.69325,266.30376c0.48324,2.24494 -0.41671,3.81686 -2.01009,3.511c-1.59339,-0.30587 -3.27684,-2.37371 -3.76008,-4.61864c-0.48324,-2.24494 0.41671,-3.81686 2.01009,-3.511c1.59339,0.30587 3.27682,2.37368 3.76008,4.61864z" fill="#ffa600" stroke="none" stroke-linecap="butt"/><path d="M390.37052,252.74653c0.45678,2.12193 -0.04733,3.67422 -1.12594,3.46718c-1.0786,-0.20707 -2.32326,-2.09503 -2.78004,-4.21697c-0.45678,-2.12193 0.04733,-3.67422 1.12594,-3.46718c1.0786,0.20707 2.32326,2.09503 2.78004,4.21697z" fill="#ffa600" stroke="none" stroke-linecap="butt"/></g><path d="M321.59109,296.41519c-6.08787,6.00648 -18.21812,7.67779 -26.54484,8.17121c-25.18655,1.49249 -58.94733,-6.64108 -70.74951,-32.15648c-7.98237,-17.25725 1.06128,-34.59964 11.61167,-48.14944c4.00264,-5.14057 13.0009,-14.71017 19.50086,-8.34834c1.72973,1.69298 2.74109,3.86938 2.53783,6.34751c-0.4391,5.35363 -6.98046,9.2139 -9.65792,13.61137c-8.0903,13.28752 -8.10773,28.80218 4.27567,39.24136c13.11159,11.05302 32.46809,9.27121 46.67785,1.65956c7.34547,-3.93471 13.60312,-10.49697 22.40143,-11.40719c26.08521,-2.69866 14.50937,22.89818 1.19639,30.87962z" fill="#feed00" stroke="#000000" stroke-linecap="round"/><path d="M313.09609,294.62568c5.34136,-2.10525 12.21309,-5.90079 17.31532,-8.73c5.5632,-3.08482 13.87975,-5.16894 19.91998,-7.41839c3.54813,-1.32135 11.29866,-5.13605 14.6425,-4.73755c2.16451,0.25796 2.95787,2.73441 3.86472,3.82262c3.36978,4.04383 4.37116,9.47084 7.77773,13.6051c4.02416,4.88372 4.32878,11.30392 7.28177,16.74929c5.52025,10.17947 10.46292,20.76734 10.2615,33.2249c-0.08807,5.44761 9.77013,8.30135 2.55004,14.30034c-2.55672,2.12429 -7.41176,11.39151 -10.67856,12.60809c-4.73913,1.76491 -12.22806,-0.73166 -18.41368,0.40599c-7.87606,1.44856 -16.10484,9.16562 -22.1576,9.77906c-3.02974,0.30706 -7.7909,-1.38501 -9.90028,-2.65748c-2.64417,-1.5951 -3.27066,-13.08984 -4.22014,-16.2065c-4.66919,-15.32664 -8.52701,-23.29826 -13.20278,-38.63743c-1.53643,-5.04036 -8.06629,-21.05297 -6.37049,-25.61189z" fill="#3c2c1f" stroke="#000000" stroke-linecap="round"/><g><path d="M300.82292,277.44136c3.06324,-1.5535 11.39704,3.38677 10.84906,10.37777c-0.59582,7.60117 -5.97029,4.94671 -6.86498,6.43784c-0.1723,0.28714 2.05887,10.80217 0.23736,14.00893c-3.36638,5.9265 -7.68298,-1.53784 -9.25192,-1.46004c-1.04479,0.05181 -0.35769,6.85151 -2.87043,6.63997c-2.56214,-0.2157 -5.06557,-3.34542 -6.65436,-6.5945c-0.29792,-0.60925 -1.38543,-4.89739 -1.56615,-5.01248c-0.55029,-0.35045 -1.15819,2.39887 -1.50807,2.72412c-1.60195,1.4891 -4.05964,-2.71276 -5.04287,-4.68463c-6.00256,-12.038 2.01911,-27.62929 9.3179,-28.51747c3.84993,-0.46848 9.39613,4.24842 13.27083,6.42198z" fill="#feed00" stroke="#000000" stroke-linecap="round"/><path d="M284.22251,279.40121c1.93832,-3.28173 5.42226,-3.11506 7.78162,0.37227c1.06577,1.57529 1.74689,3.51265 1.99481,5.46602c0.3009,2.371 -1.4048,2.32076 -2.46754,4.12008c-1.01833,1.72411 -1.13173,5.00352 -2.65095,4.90166c-1.37255,-0.09201 -2.77575,-0.94836 -3.89558,-2.60359c-2.35934,-3.48735 -2.70066,-8.9747 -0.76234,-12.25644z" fill="#ffa600" stroke="none" stroke-linecap="butt"/><path d="M304.98158,282.27316c1.23714,-1.56752 3.15861,-1.16068 4.29171,0.9087c1.13311,2.06937 1.04876,5.01763 -0.18838,6.58514c-1.23714,1.56752 -3.15862,1.1607 -4.29173,-0.90866c-1.13311,-2.06937 -1.04876,-5.01763 0.1884,-6.58514z" fill="#ffa600" stroke="none" stroke-linecap="butt"/><path d="M299.05067,300.1113c1.22168,-1.54791 3.11839,-1.14756 4.23637,0.8942c1.11799,2.04176 1.03393,4.95179 -0.18776,6.49969c-1.22168,1.54791 -3.11839,1.14756 -4.23637,-0.8942c-1.11799,-2.04176 -1.03393,-4.95179 0.18776,-6.49969z" fill="#ffa600" stroke="none" stroke-linecap="butt"/><path d="M288.99183,302.70191c1.00519,-1.2736 2.71411,-0.67325 3.81701,1.34093c1.10289,2.01418 1.18209,4.67944 0.1769,5.95306c-1.00519,1.2736 -2.71411,0.67325 -3.81701,-1.34093c-1.10289,-2.01418 -1.18209,-4.67944 -0.1769,-5.95306z" fill="#ffa600" stroke="none" stroke-linecap="butt"/><path d="M278.37674,294.48912c0.68044,-0.86214 2.07711,-0.01769 3.11956,1.88612c1.04246,1.9038 1.33593,4.14605 0.65549,5.00817c-0.68044,0.86214 -2.07711,0.01769 -3.11956,-1.88612c-1.04246,-1.9038 -1.33592,-4.14603 -0.65549,-5.00817z" fill="#ffa600" stroke="none" stroke-linecap="butt"/></g><path d="M295.73695,259.07883c0.66136,6.52813 4.36742,17.49229 2.41423,23.74737c-1.55773,4.98861 -21.53031,5.74415 -25.26845,3.04048c-1.30023,-0.9404 -2.81105,-18.41985 -3.01121,-20.94705c-1.5355,-19.38826 -1.57334,-38.34034 -1.73302,-57.84299c-0.04384,-5.35418 2.82467,-10.08734 2.94694,-15.1796l1.11706,-0.36832c13.13059,-2.0974 26.17472,-0.69799 38.61041,-6.99375c4.97694,-2.51965 8.11523,-5.76065 10.55177,-10.7752c0.55708,-1.14651 2.3199,-4.05948 4.01298,-3.66663c3.81063,0.8842 8.53255,7.95939 11.35727,10.59434c11.64942,10.86673 21.63113,23.82034 30.16275,37.28767c2.49771,3.94268 9.52717,8.81129 10.06799,13.49627c0.63335,5.48678 -5.50153,14.77461 -8.17018,19.4258c-0.74267,1.2944 -2.20215,5.97233 -4.21356,4.67581c-2.80221,-1.80628 -11.53301,-20.14639 -11.53301,-20.14639c0,0 6.28335,14.75382 9.89743,21.87866c1.77256,3.49443 5.81817,8.82886 5.38425,13.00479c-0.33053,3.18074 -8.43612,7.12887 -11.03113,8.43382c-10.49702,5.2786 -22.57489,7.37059 -33.05008,12.68138c-3.40478,1.72616 -11.41179,7.72493 -15.21138,7.19639c-2.02505,-0.28171 -3.0626,-5.75725 -3.67234,-7.3945c-2.68431,-7.20798 -6.88217,-15.07 -8.10015,-22.66066" fill="#fffe8a" stroke="#000000" stroke-linecap="round"/><path d="M274.93657,181.60962c12.31139,-7.22167 24.2228,-14.37532 38.08823,-18.33387c2.95694,-0.84419 13.38521,-3.51117 14.27137,1.19889c1.20436,6.40143 -3.52697,11.72065 -8.4992,15.06557c-8.96375,6.0301 -31.91861,15.45652 -42.69876,13.5958c-7.67221,-1.32425 -8.64482,-8.97221 -1.10259,-11.78102z" fill="#fffe8a" stroke="#000000" stroke-linecap="round"/><g stroke-linecap="round"><path d="M254.59713,112.96684c-9.8672,9.07607 -6.49413,21.74067 -5.8355,33.48139c0.07239,1.29028 0.96964,12.56426 -0.30011,12.85331c-0.52718,0.12001 -0.7106,-0.81665 -1.03159,-1.25171c-2.55509,-3.46298 -5.43638,-6.69945 -8.02189,-10.15842c-6.45254,-8.63227 -12.06919,-17.92274 -17.57139,-27.20246c-1.58003,-2.66476 -5.73338,-8.5441 -5.57621,-11.68011c0.10071,-2.00957 0.92314,-1.4643 2.29015,-1.39503c7.02433,0.35598 14.01245,1.02908 21.00985,1.70578c5.13863,0.49694 11.19041,0.47604 15.84282,2.91589z" fill="#feed00" stroke="#000000"/><path d="M249.63494,117.76722c-5.98731,6.57269 -3.01831,14.7415 -1.89649,22.45877c0.12328,0.84812 1.37544,8.24308 0.55358,8.50832c-0.34123,0.11011 -0.51716,-0.49792 -0.75466,-0.76653c-1.89042,-2.13814 -3.98307,-4.10761 -5.89337,-6.24133c-4.76738,-5.32496 -9.02109,-11.13365 -13.19855,-16.94187c-1.1996,-1.6679 -4.28717,-5.30879 -4.36677,-7.3896c-0.05103,-1.3334 0.52416,-1.02129 1.43127,-1.05549c4.66102,-0.1757 9.31666,-0.13979 13.97863,-0.10207c3.42358,0.02771 7.42011,-0.34009 10.63616,0.99954z" fill="#ffa700" stroke="none"/></g><g stroke-linecap="round"><path d="M287.49968,101.54568c1.64377,-4.98959 6.00482,-9.18549 9.34971,-13.11795c4.55482,-5.35492 9.10546,-10.70081 13.90278,-15.84411c0.93362,-1.00095 1.14491,-1.96485 2.61553,-0.5916c2.29496,2.14298 3.40287,9.25562 4.12224,12.26892c2.50515,10.49338 4.93562,21.07415 6.30776,31.76378c0.54982,4.28336 0.73244,8.61272 1.30689,12.87777c0.07218,0.53583 0.5922,1.33618 0.13005,1.6168c-1.1131,0.67588 -8.31327,-8.04563 -9.15909,-9.0227c-7.69629,-8.89072 -14.08596,-20.33373 -27.48803,-19.98661z" fill="#feed00" stroke="#000000"/><path d="M294.77094,101.4649c1.3777,-3.19991 4.504,-5.71659 6.94361,-8.11868c3.32207,-3.27099 6.64086,-6.53625 10.11076,-9.65324c0.67528,-0.60662 0.87124,-1.23097 1.7624,-0.23781c1.39067,1.54988 1.70652,6.3132 2.00548,8.34582c1.04111,7.07834 2.02777,14.21005 2.30892,21.35177c0.11266,2.86171 -0.01993,5.7323 0.11008,8.58333c0.01632,0.35818 0.31303,0.91731 -0.00865,1.07567c-0.77485,0.38139 -5.02105,-5.80113 -5.52263,-6.49603c-4.56406,-6.32329 -8.11567,-14.25614 -16.98926,-14.81074z" fill="#ffa700" stroke="none"/></g><path d="M268.9347,105.2c9.78208,-3.64294 21.14526,-8.94607 31.06897,-3.85578c8.58428,4.40324 10.48951,10.52235 15.32558,17.76795c1.48529,2.22531 3.93436,3.36775 5.24015,5.96914c7.91709,15.77245 7.30126,39.03845 -11.8418,48.59454c-16.03319,8.00367 -37.05143,11.93195 -51.90828,0.9732c-9.27697,-6.84292 -9.6964,-20.65765 -10.05271,-30.60548c-0.13807,-3.85448 -2.68689,-7.4707 -2.6981,-11.57395c-0.04393,-16.06341 11.74393,-22.09045 25.29312,-27.13629z" fill="#feed00" stroke="#000000" stroke-linecap="round"/><path d="M318.83502,130.51048c4.15458,-1.13121 16.21033,-0.90402 14.19091,6.27329c-0.52544,1.86745 -5.93012,4.74276 -5.85606,5.99756c0.05555,0.94102 1.55342,1.10268 2.16306,1.82165c1.63128,1.92386 3.38151,5.03193 3.92252,7.50798c1.48844,6.81208 -9.19298,6.99269 -13.0133,5.28345" fill="#feed00" stroke="#000000" stroke-linecap="round"/><path d="M266.50087,180.40925c-1.77167,3.79176 -9.96931,10.64186 -13.29925,4.5156c-1.21037,-2.22676 -1.91946,-5.7226 -1.94394,-8.24479c-0.00916,-0.94262 1.0181,-2.04467 0.4446,-2.79277c-0.76472,-0.9976 -6.73363,0.36273 -8.35257,-0.70613c-6.22219,-4.10806 2.74825,-12.1656 6.63072,-14.02744" fill="#feed00" stroke="#000000" stroke-linecap="round"/><path d="M207.73043,152.57264c13.49288,-4.79566 27.1767,1.37125 40.35801,3.53428" fill="none" stroke="#000000" stroke-linecap="round"/><path d="M217.20673,164.22595c9.63743,-4.98006 21.10883,-5.62783 31.64055,-7.08865" fill="none" stroke="#000000" stroke-linecap="round"/><path d="M224.22574,170.05497c7.57549,-4.55609 15.62573,-9.1924 23.92061,-12.2815" fill="none" stroke="#000000" stroke-linecap="round"/><path d="M320.89918,127.49097c4.92911,-10.77895 10.16522,-23.64989 22.00518,-28.07689" fill="none" stroke="#000000" stroke-linecap="round"/><path d="M318.73507,129.23475c7.54035,-11.16369 17.30806,-14.39069 30.0737,-15.1698" fill="none" stroke="#000000" stroke-linecap="round"/><path d="M322.52026,129.32564c6.85999,-6.22619 18.218,-6.76972 26.94674,-5.4088" fill="none" stroke="#000000" stroke-linecap="round"/><path d="M283.19466,153.18097c3.48612,-1.29825 7.07244,-2.89122 10.69407,-3.74854c0.45966,-0.1088 1.14321,-0.57794 1.405,-0.18473c0.34292,0.51505 -4.58687,6.37863 -5.32585,6.59294c-1.66174,0.48191 -5.27742,-1.7757 -6.38145,-2.80555z" fill="#000000" stroke="#000000" stroke-linecap="round"/><path d="M277.58603,135.35816c2.47022,6.63309 -2.32058,7.21733 -8.85318,9.65012c-6.5326,2.43281 -12.33321,5.79291 -14.80344,-0.84019c-2.47022,-6.63309 0.82297,-13.98245 7.35555,-16.41524c6.5326,-2.43281 13.83082,0.97221 16.30106,7.6053z" fill="#ffffff" stroke="#000000" stroke-linecap="butt"/><path d="M310.30186,122.72363c2.47022,6.63309 -2.49077,8.13219 -9.02335,10.565c-6.5326,2.43281 -12.16301,4.87803 -14.63325,-1.75506c-2.47022,-6.63309 0.82297,-13.98245 7.35555,-16.41524c6.5326,-2.43281 13.83082,0.97221 16.30104,7.60531z" fill="#ffffff" stroke="#000000" stroke-linecap="butt"/><path d="M270.24384,138.21273c1.76445,4.73793 -1.48021,6.40293 -6.0359,8.0995c-4.55569,1.69659 -8.69728,2.7823 -10.46172,-1.95563c-1.76445,-4.73793 0.49832,-9.95412 5.05402,-11.65071c4.55569,-1.69659 9.67919,0.76891 11.44363,5.50684z" fill="#ffffff" stroke="#000000" stroke-linecap="butt"/><path d="M304.41528,125.67559c1.76445,4.73793 -1.50085,7.2621 -6.05654,8.95867c-4.55569,1.69659 -8.67666,1.92313 -10.4411,-2.8148c-1.76445,-4.73793 0.49832,-9.95412 5.05402,-11.65071c4.55569,-1.69659 9.67919,0.76891 11.44363,5.50684z" fill="#ffffff" stroke="#000000" stroke-linecap="butt"/><path d="M254.43209,117.06366c-0.7271,-3.67384 2.34863,-6.05952 5.30749,-8.51373c0.32771,-0.27181 3.11999,-2.52626 2.8678,-2.96209c-0.4588,-0.79285 -5.17734,1.66039 -5.21912,-0.4295c-0.05611,-2.80694 10.0586,-5.91181 12.18579,-6.70423c0.30637,-0.11412 3.98236,-1.33225 3.98241,-1.48791c0.00022,-0.66702 -6.80638,-0.33821 -6.67988,-1.27024c0.06912,-0.50942 5.05525,-0.69566 5.5613,-0.69214c6.62991,0.04596 9.29974,3.11047 14.25473,6.02516" fill="#feed00" stroke="#000000" stroke-linecap="round"/><path d="M247.57829,137.50222c-2.62791,-0.2616 -3.3627,-2.19448 -5.64603,-3.14582c-1.16579,-0.48571 -5.97706,0.66123 -6.45452,-0.88365c-0.62801,-2.03201 4.66356,-4.87817 5.71668,-5.81852c0.7414,-0.662 -3.43415,-7.91763 6.22054,-5.72315" fill="#feed00" stroke="#000000" stroke-linecap="round"/><path d="M299.76855,226.60668c1.34151,0.0489 4.47358,-1.39074 5.46132,-0.11753c3.31281,4.27015 1.17462,10.00249 -3.72809,10.72804c-3.26466,0.48315 -1.61768,-11.40815 -1.61768,-11.40815c0,0 -7.98551,-22.36616 -9.64505,-34.02225" fill="#ffaf36" stroke="#000000" stroke-linecap="round"/><path d="M325.0366,217.84167c5.25092,-13.37635 14.09361,13.93291 2.15205,9.77711c-6.46549,-2.25006 -1.7424,-8.30828 -2.14813,-10.84434c-1.91514,-11.97071 -11.03942,-22.16028 -11.87592,-34.70872" fill="#ffaf36" stroke="#000000" stroke-linecap="round"/><path d="M299.55678,260.44679c2.33018,-3.89121 6.6478,-4.93957 10.35866,-7.03078c11.96877,-6.74488 26.48348,-11.1926 39.92949,-13.85862" fill="none" stroke="#000000" stroke-linecap="round"/><path d="M362.62401,267.72695c-3.20423,-8.30247 -7.87748,-16.18585 -9.59593,-25.05677" fill="none" stroke="#000000" stroke-linecap="round"/><path d="M301.51075,264.25935c2.97193,7.98028 6.34655,15.74261 9.12321,23.77631" fill="none" stroke="#000000" stroke-linecap="round"/><path d="M281.75019,189.55069c-2.77676,0.05438 -5.34225,-1.73677 -8.0981,-2.24942" fill="none" stroke="#fcec41" stroke-linecap="round"/><path d="M321.06349,172.42105c1.14855,-1.58512 2.2769,-2.92089 3.72871,-4.23857" fill="none" stroke="#fcec41" stroke-linecap="round"/><path d="M302.29085,202.9146l-3.3449,-8.98179" fill="none" stroke="#fcec41" stroke-linecap="round"/><path d="M305.08739,200.37647l-1.71325,-4.60043" fill="none" stroke="#fcec41" stroke-linecap="round"/><path d="M306.57859,194.33323l1.96252,3.26035" fill="none" stroke="#fcec41" stroke-linecap="round"/><path d="M289.76156,284.2309l-0.81832,-39.48915l6.03816,37.01108z" fill="#fce541" stroke="#fcec41" stroke-linecap="round"/><path d="M289.76156,284.2309l-0.81832,-39.48915l6.03816,37.01108z" fill="#fce541" stroke="#fcec41" stroke-linecap="round"/><path d="M366.0539,250.99875l-17.27919,-25.601l20.97464,19.0297z" fill="#fce541" stroke="#fcec41" stroke-linecap="round"/><path d="M368.2206,367.26683l-26.13152,-72.16799" fill="none" stroke="#000000" stroke-linecap="round"/><path d="M373.40277,374.27145c3.02587,8.12513 -2.79116,17.79166 -12.99269,21.59082c-10.20155,3.79916 -20.92447,0.29227 -23.95034,-7.83287c-3.02587,-8.12513 2.79116,-17.79166 12.99269,-21.59082c10.20155,-3.79916 20.92447,-0.29227 23.95034,7.83287z" fill="#000000" stroke="#000000" stroke-linecap="butt"/><path d="M407.46558,355.96487c3.02588,8.12513 -2.79116,17.79166 -12.99271,21.59081c-10.20154,3.79916 -20.92447,0.29227 -23.95034,-7.83287c-3.02588,-8.12513 2.79116,-17.79166 12.99269,-21.59082c10.20155,-3.79916 20.92448,-0.29228 23.95036,7.83287z" fill="#000000" stroke="#000000" stroke-linecap="butt"/><path d="M287.74401,175.9076l-2.34381,-6.2936l18.17368,-6.76806l2.34381,6.2936c0,0 -7.64279,-3.11421 -10.68836,-1.98002c-3.01197,1.12168 -7.48533,8.74808 -7.48533,8.74808z" fill="none" stroke="#000000" stroke-linecap="butt"/></g></g></svg>