<svg version="1.1" xmlns="http://www.w3.org/2000/svg" xmlns:xlink="http://www.w3.org/1999/xlink" width="232.9462" height="342.91218" viewBox="0,0,232.9462,342.91218"><defs><linearGradient x1="400.22409" y1="91.22079" x2="401.66132" y2="134.33765" gradientUnits="userSpaceOnUse" id="color-1"><stop offset="0" stop-color="#1e006b"/><stop offset="1" stop-color="#0038ff"/></linearGradient><linearGradient x1="238.14519" y1="92.45063" x2="236.70796" y2="135.56749" gradientUnits="userSpaceOnUse" id="color-2"><stop offset="0" stop-color="#210073"/><stop offset="1" stop-color="#0038ff"/></linearGradient><linearGradient x1="322.20474" y1="162.60564" x2="322.20474" y2="255.33234" gradientUnits="userSpaceOnUse" id="color-3"><stop offset="0" stop-color="#2dff00"/><stop offset="1" stop-color="#000000"/></linearGradient><linearGradient x1="321.75414" y1="164.02402" x2="322.92608" y2="342.23434" gradientUnits="userSpaceOnUse" id="color-4"><stop offset="0" stop-color="#dadada"/><stop offset="1" stop-color="#1a1a1a"/></linearGradient><linearGradient x1="257.00748" y1="83.76277" x2="257.00748" y2="127.9618" gradientUnits="userSpaceOnUse" id="color-5"><stop offset="0" stop-color="#ffffff"/><stop offset="1" stop-color="#ffffff" stop-opacity="0"/></linearGradient><linearGradient x1="383.05086" y1="82.90551" x2="383.05086" y2="127.10453" gradientUnits="userSpaceOnUse" id="color-6"><stop offset="0" stop-color="#ffffff"/><stop offset="1" stop-color="#ffffff" stop-opacity="0"/></linearGradient><linearGradient x1="235.58094" y1="326.00149" x2="237.56243" y2="62.40032" gradientUnits="userSpaceOnUse" id="color-7"><stop offset="0" stop-color="#ff0000"/><stop offset="0.333" stop-color="#ffff00"/><stop offset="0.5" stop-color="#00ff00"/><stop offset="0.666" stop-color="#00ffff"/><stop offset="0.833" stop-color="#0000ff"/><stop offset="1" stop-color="#ff00ff"/></linearGradient><linearGradient x1="319.45842" y1="68.88513" x2="319.45842" y2="175.32073" gradientUnits="userSpaceOnUse" id="color-8"><stop offset="0" stop-color="#000000" stop-opacity="0.39608"/><stop offset="1" stop-color="#000000" stop-opacity="0"/></linearGradient><linearGradient x1="319.68761" y1="23.57425" x2="319.68761" y2="83.37697" gradientUnits="userSpaceOnUse" id="color-9"><stop offset="0" stop-color="#5b5b5b"/><stop offset="1" stop-color="#ffffff"/></linearGradient></defs><g transform="translate(-203.52693,-8.89738)"><g stroke-miterlimit="10"><path d="M338.00963,73.39866c0,0 73.57198,26.94873 89.03857,32.61399c5.45003,1.9963 9.42494,8.94198 9.42494,8.94198c0,0 -3.20802,-3.92891 -9.78457,-2.48779c-9.53499,2.0894 -22.72278,5.18288 -30.11235,7.7999c-11.36913,4.02638 -30.35341,15.25219 -30.35341,15.25219z" fill="url(#color-1)" stroke="#000000" stroke-width="0" stroke-linecap="butt"/><path d="M272.14646,136.74877c0,0 -17.53189,-12.05241 -28.78594,-16.03803c-6.86356,-2.43073 -19.09171,-5.01694 -28.77349,-6.86312c-8.03851,-1.53283 -11.0601,0.70606 -11.0601,0.70606c0,0 3.67396,-5.8963 9.94082,-8.277c15.49417,-5.88603 80.70278,-30.65792 80.70278,-30.65792z" fill="url(#color-2)" stroke="#000000" stroke-width="0" stroke-linecap="butt"/><path d="M271.58624,253.44567l-0.6715,-56.4686c0,0 -0.14877,-12.35002 0.76898,-13.27067c2.81496,-2.82384 7.56979,-16.73987 15.60032,-16.89833c10.57502,-0.20866 37.27426,-0.49728 59.16862,-0.92929c23.74701,-0.46857 23.82232,26.84065 23.82232,26.84065l5.82903,62.61291z" fill="url(#color-3)" stroke="#000000" stroke-width="0" stroke-linecap="butt"/><path d="M270.03128,338.60836c0,0 -0.43403,-15.2814 -1.4502,-41.56945c-0.43617,-11.28374 -1.71881,-35.29668 -1.90397,-43.3894c-0.44815,-19.58685 -0.0038,-61.80465 -0.0038,-61.80465c0,0 7.27649,-25.60882 18.29633,-26.01264c3.15578,-0.11564 7.5588,-0.24406 12.77061,-0.38818c0.73994,0.98881 -2.46459,1.86355 -2.82083,3.75917c-0.41372,2.20157 1.95913,5.51384 2.23093,7.7959c0.25626,2.15156 3.02157,4.63352 4.13977,5.20587c2.28598,1.17009 6.14839,5.07147 8.77372,5.54236c2.5231,0.45255 15.96845,0.93312 18.57205,0.30533c4.69743,-1.13267 11.50445,-5.97043 12.5913,-10.7261c0.59601,-2.60793 5.34953,-4.25946 4.78345,-6.58043c-0.54145,-2.21999 -6.43224,-5.13366 -4.70533,-6.58492c1.07511,-0.03773 2.14486,-0.07607 3.20741,-0.115c24.57466,-0.90053 32.40884,25.88433 32.40884,25.88433c0,0 -1.51002,65.67355 -1.28424,92.78605c0.08652,10.38912 1.86864,26.83994 2.4239,38.14932c0.67203,13.68763 0.12863,21.36841 0.12863,21.36841c0,0 -42.65251,10.20851 -62.46954,9.54415c-14.6531,-0.49124 -45.68903,-13.17012 -45.68903,-13.17012z" fill="url(#color-4)" stroke="#000000" stroke-width="0" stroke-linecap="butt"/><path d="M259.7976,123.56711c-0.69033,0.94166 -3.09579,1.40246 -5.01149,1.97611c-0.31388,0.09399 -1.8601,0.60386 -2.62268,0.42726c-1.82889,-0.42355 -1.33578,-1.92723 -3.92527,-2.53979c-2.59512,-0.61391 -5.0499,-0.00979 -7.53088,-0.63079c-2.35931,-0.59054 -1.88226,-1.96368 -4.20585,-2.58426c-2.3314,-0.62266 -5.58,0.15265 -7.17004,-0.69451c-3.69161,-1.96685 -4.17668,-3.87849 1.64138,-3.86767" fill="#211fff" stroke-opacity="0.4902" stroke="#000000" stroke-width="2.5" stroke-linecap="round"/><path d="M409.48313,112.38469c5.78235,-0.7815 5.50907,0.86202 2.0543,2.97692c-1.48803,0.91093 -4.80207,0.70184 -7.05159,1.52577c-2.24198,0.82116 -1.61771,1.8921 -3.89848,2.6932c-2.39839,0.84241 -4.90462,0.66934 -7.41725,1.52105c-2.50718,0.84986 -1.85267,2.02648 -3.62442,2.61921c-0.73876,0.24715 -2.33151,0.03129 -2.6538,-0.00467c-1.96702,-0.21949 -4.40855,-0.28072 -5.19769,-0.96691" fill="#211fff" stroke-opacity="0.4902" stroke="#000000" stroke-width="2.5" stroke-linecap="round"/><path d="M275.03166,127.9618c0,0 -12.67614,-8.71429 -20.81319,-11.59602c-9.08288,-3.2167 -31.15924,-6.80999 -31.15924,-6.80999l67.89656,-25.79301z" fill="url(#color-5)" stroke-opacity="0.50196" stroke="#000000" stroke-width="0" stroke-linecap="butt"/><path d="M348.21996,82.90551l69.66178,25.79301c0,0 -22.65032,3.59329 -31.96934,6.80999c-8.34861,2.88174 -21.35431,11.59602 -21.35431,11.59602z" fill="url(#color-6)" stroke-opacity="0.50196" stroke="#000000" stroke-width="0" stroke-linecap="butt"/><path d="M374.10884,124.32758c-1.94104,28.48816 -27.92848,52.9286 -58.11114,50.8721c-30.18266,-2.05649 -53.13099,-29.83117 -51.18995,-58.31932c1.94104,-28.48815 27.98246,-49.91526 58.16512,-47.85875c30.18266,2.05649 53.07703,26.81782 51.13599,55.30597z" fill="url(#color-7)" stroke="#000000" stroke-width="0" stroke-linecap="butt"/><path d="M374.10884,124.32758c-1.94104,28.48816 -27.92848,52.9286 -58.11114,50.8721c-30.18266,-2.05649 -53.13099,-29.83117 -51.18995,-58.31932c1.94104,-28.48815 27.98246,-49.91526 58.16512,-47.85875c30.18266,2.05649 53.07703,26.81782 51.13599,55.30597z" fill="url(#color-8)" stroke="#000000" stroke-width="0" stroke-linecap="butt"/><g fill-opacity="0.46667" fill="#000000" stroke="none" stroke-width="0.5" stroke-linecap="butt"><path d="M296.21903,202.1032c0.91632,-0.36653 1.28285,0.5498 1.28285,0.5498l0.17186,0.66142c2.51589,0.59146 4.27158,-2.32669 2.72833,-4.43534c-0.77269,-1.05578 -2.32278,-1.23572 -3.05863,-2.24147c-2.23843,-3.05947 2.53573,-4.02128 4.5597,-3.83438c0,0 0.98201,0.09821 0.88381,1.08022c-0.0982,0.98201 -1.08022,0.88381 -1.08022,0.88381c-0.29107,-0.032 -0.58056,-0.10603 -0.87322,-0.09601c-0.32052,0.01098 -0.642,0.06563 -0.949,0.15839c-2.29807,0.6943 -0.14963,0.83337 1.03238,1.79918c0.88202,0.72069 1.51891,1.48788 1.83916,2.61422c1.23919,4.35831 -2.77371,6.99998 -6.45569,5.48905l-0.63112,-1.34604c0,0 -0.36653,-0.91633 0.5498,-1.28286z"/><path d="M313.24743,208.82434c-0.60112,0 -0.8361,-0.36613 -0.92796,-0.65238c-1.9683,-2.31127 -3.94704,-5.49853 -4.23817,-8.56416c-0.16147,0.18405 -0.315,0.37693 -0.45958,0.57954c0,0 -0.03274,0.04503 -0.09337,0.10591c0.14018,2.01917 0.22318,4.04443 0.37867,6.05201l0.09931,0.99248c0,0 0.0982,0.98202 -0.88381,1.08022c-0.98201,0.0982 -1.08022,-0.88381 -1.08022,-0.88381l-0.10144,-1.01497c-0.31595,-4.1337 -0.31355,-8.35709 -1.1864,-12.42676c0,0 -0.20679,-0.96501 0.75822,-1.17179c0.96501,-0.20678 1.1718,0.75822 1.1718,0.75822c0.27802,1.29857 0.46977,2.61106 0.612,3.93073c1.41375,-1.31118 3.13903,-2.21535 4.94789,-3.01984l0.56295,-0.15597c0,0 0.95745,-0.23936 1.19681,0.71809c0.23936,0.95745 -0.71808,1.19681 -0.71808,1.19681l-0.24003,0.04478c-1.14876,0.5102 -2.30214,1.06139 -3.32604,1.77354c0.29872,0.29237 0.29872,0.73728 0.29872,0.73728c-0.02557,2.83919 2.14029,6.09902 3.97146,8.18292l0.24419,0.75026c0,0 0,0.98691 -0.98691,0.98691z"/><path d="M317.46306,208.62359c-0.98692,0 -0.98692,-0.98692 -0.98692,-0.98692l0.0049,-0.20291c-0.33378,-3.33776 -0.83264,-6.76023 -1.49133,-10.0423c0,0 -0.19355,-0.96775 0.7742,-1.1613c0.96775,-0.19355 1.1613,0.7742 1.1613,0.7742c0.66699,3.34577 1.17974,6.83184 1.51986,10.233l0.0049,0.39932c0,0 0,0.98692 -0.98692,0.98692z"/><path d="M324.24379,207.21638c2.62104,-3.1484 -2.39749,-5.47666 -1.71078,-7.76773c0.37377,-1.24702 3.26702,-0.96366 3.17748,-2.65948c-0.1221,-2.31227 -1.99782,-1.72217 -3.55246,-0.83637c0,0 -0.05574,0.03097 -0.14675,0.06298c0.43746,3.7257 0.63682,7.55807 0.65328,11.29466c0.51081,0.28643 0.76655,0.15401 1.57923,-0.09407zM323.73461,193.31202c7.0928,-1.06199 2.5009,6.42431 1.03015,6.76993c0.54399,0.53445 1.46023,1.62017 1.66285,2.21937c0.82907,2.45176 0.63407,4.6264 -1.09082,6.55865c-1.83468,0.63795 -2.543,0.83432 -4.2055,-0.20137l-0.53603,-0.78129c0,0 -0.30204,-0.60408 0.09333,-1.06266c-0.03037,-3.91353 -0.2745,-7.93104 -0.79109,-11.79486c0,0 -0.13044,-0.97825 0.84782,-1.10869c0.33278,-0.04437 0.56744,0.03956 0.73224,0.16962c0.71084,-0.36221 1.47188,-0.65113 2.25705,-0.76869z"/><path d="M330.07155,208.81091c-0.97348,0.16225 -1.13574,-0.81123 -1.13574,-0.81123l-0.11381,-0.76449c0.00166,-4.04647 -0.30111,-8.09076 -0.30111,-12.1451c0,0 0,-0.98691 0.98692,-0.98691c0.98692,0 0.98691,0.98691 0.98691,0.98691c0,4.0548 0.29954,8.09784 0.30112,12.1451l0.08695,0.43999c0,0 0.16224,0.97348 -0.81124,1.13573z"/><path d="M342.0544,210.83179c-0.98692,0 -0.98692,-0.98692 -0.98692,-0.98692l0.00085,-1.14512c0.07722,-0.93388 0.15254,-1.8749 0.21506,-2.81956c-0.38034,2.18601 -1.63095,3.9583 -4.36641,4.24557l-1.0943,-0.103c0,0 -0.97755,-0.10862 -0.87243,-1.08489c-0.14565,0.16196 -0.3723,0.28794 -0.72492,0.28794c-0.98692,0 -0.98692,-0.98691 -0.98692,-0.98691l0.0049,-0.10254c-0.40154,-4.02974 -0.40639,-7.99049 -0.40639,-12.04256c0,0 0,-0.98691 0.98692,-0.98691c0.32684,0 0.54545,0.10825 0.69166,0.25304c0.82831,-0.7121 1.87078,-1.34295 2.95243,-0.89821c1.71855,0.70662 2.42786,3.26604 3.00213,4.801c0.48515,1.29673 0.85409,2.87057 0.93064,4.41441c0.09235,-2.42442 0.04581,-4.85479 -0.32173,-7.23251c0,0 -0.15006,-0.97544 0.82538,-1.12551c0.97544,-0.15007 1.1255,0.82537 1.1255,0.82537c0.63672,4.15721 0.3614,8.46221 0.01062,12.6373l0.00086,1.06309c0,0 0,0.98692 -0.98692,0.98692zM336.04065,208.06102l0.71241,0.09775c4.65535,-0.23597 2.22378,-7.453 1.18572,-9.86157c-0.13275,-0.30803 -0.62924,-1.6817 -1.13443,-1.97652c-0.43529,-0.25402 -1.54811,1.03874 -1.68042,1.1736c0,0 -0.12085,0.12085 -0.31225,0.21168c0.00607,3.42886 0.05176,6.80649 0.39567,10.23402l0.0049,0.29895c0,0 0,0.03943 -0.00788,0.10252c0.32533,-0.3372 0.83629,-0.28042 0.83629,-0.28042z"/><path d="M304.49816,210.74823c0,0.98692 -0.98692,0.98691 -0.98692,0.98691l-0.82766,-0.00291c-1.26241,0.09642 -2.52952,0.12107 -3.79741,0.12222c0.09886,3.99104 0.98953,7.88021 0.99484,11.84185l0.07091,0.16213c0,0 0.23936,0.95745 -0.71809,1.19681c-0.95745,0.23936 -1.1968,-0.71809 -1.1968,-0.71809l-0.12985,-0.64085c0.00583,-3.95629 -0.89623,-7.86015 -0.99498,-11.85229c-0.54417,-0.00439 -1.08811,-0.0085 -1.63152,-0.0085c0,0 -0.98692,0 -0.98692,-0.98691c0,-0.98692 0.98692,-0.98692 0.98692,-0.98692c2.41494,0 4.8434,0.08916 7.25151,-0.09746l0.97905,-0.0029c0,0 0.98692,0 0.98692,0.98692z"/><path d="M308.04384,212.09181c-7.20485,3.54379 1.92416,17.83809 2.81515,5.99835c0.14596,-1.48462 -0.00851,-4.55776 -1.62583,-5.13523l-0.36366,-0.02874c0,0 -0.76484,-0.12747 -0.82565,-0.83438zM308.716,211.01131c0.25223,-0.06973 0.47803,-0.03209 0.47803,-0.03209l0.84081,0.172c2.48062,1.22084 3.00934,4.53391 2.79057,7.11024c-1.50984,16.79751 -16.72691,-2.10895 -5.53984,-7.99447c0,0 0.88273,-0.44136 1.32409,0.44136c0.05376,0.10754 0.08789,0.20852 0.10634,0.30295z"/><path d="M316.26957,226.23855c-0.93627,0.31209 -1.24836,-0.62418 -1.24836,-0.62418l-0.12156,-0.37385c-1.1825,-4.73443 -0.53133,-9.55847 -0.53133,-14.39191c0,0 0,-0.98692 0.98692,-0.98692c0.98692,0 0.98691,0.98692 0.98691,0.98692c0,4.65906 -0.66866,9.35342 0.4724,13.91319l0.0792,0.2284c0,0 0.31209,0.93627 -0.62418,1.24836z"/><path d="M327.80521,223.30755c0.38876,0.90712 -0.51835,1.29588 -0.51835,1.29588l-0.8317,0.34614c-8.14958,2.16278 -6.97579,-8.17402 -6.04856,-13.27378c0,0 0.17654,-0.97099 1.14754,-0.79445c0.971,0.17655 0.79445,1.14754 0.79445,1.14754c-0.63957,3.51766 -2.46407,12.72292 3.58722,11.01641l0.57352,-0.2561c0,0 0.90712,-0.38876 1.29588,0.51836z"/><path d="M336.81821,216.16836c0,0.98692 -0.98692,0.98692 -0.98692,0.98692l-0.59504,-0.01917c-1.72786,-0.3549 -3.57094,-0.20587 -5.34365,-0.18407c0.00844,1.5611 0.37903,2.86689 0.7708,4.38692c0.12256,0.4755 0.25218,1.73781 0.90494,1.93805c0.79315,0.24331 1.69263,-0.21437 2.39083,-0.49703l0.1202,-0.10558c0,0 0.82117,-0.54744 1.36861,0.27373c0.54744,0.82117 -0.27372,1.3686 -0.27372,1.3686l-0.48203,0.29592c-1.1832,0.46845 -2.53747,1.01538 -3.83228,0.5067c-2.5204,-0.99015 -2.93589,-6.03464 -2.94129,-8.24837c-0.00433,-1.77474 -0.34639,-4.33402 1.28068,-5.59404c1.47112,-1.13925 3.76296,-0.57783 5.36572,-0.1813c0,0 0.95745,0.23936 0.71809,1.19681c-0.23936,0.95745 -1.19682,0.71809 -1.19682,0.71809c-0.89905,-0.22742 -2.78339,-0.83597 -3.66781,-0.18131c-0.49804,0.36865 -0.60885,1.26389 -0.60692,2.15029c1.93587,-0.01442 3.91352,-0.1501 5.81175,0.22109l0.20794,-0.01916c0,0 0.98692,0 0.98692,0.98691z"/><path d="M341.965,225.93743c-0.93627,0.31209 -1.24836,-0.62418 -1.24836,-0.62418l-0.10737,-0.32297c-1.20523,-3.92333 -2.04652,-7.90617 -0.1402,-11.7726c0,0 0.44136,-0.88273 1.32408,-0.44137c0.88272,0.44136 0.44137,1.32409 0.44137,1.32409c-1.70358,3.3494 -0.78247,6.92289 0.2613,10.3094l0.09336,0.27927c0,0 0.31209,0.93627 -0.62417,1.24836z"/><path d="M347.64854,213.19637c-0.13957,0.97699 -1.11656,0.83742 -1.11656,0.83742l-0.82272,-0.12523c-2.2185,-0.6144 -4.88147,-0.88855 -7.17892,-0.67189c0,0 -0.98286,0.08935 -1.07221,-0.89351c-0.08935,-0.98286 0.89351,-1.07221 0.89351,-1.07221c2.54424,-0.22385 5.41481,0.07068 7.87698,0.73334l0.5825,0.07551c0,0 0.97699,0.13957 0.83742,1.11657z"/></g><path d="M289.32598,77.17537l30.65622,-53.60112l30.06705,53.93706c0,0 -2.31275,2.60192 -10.11568,4.18506c-6.60967,1.34104 -18.38117,1.70658 -23.32941,1.6792c-4.23775,-0.02344 -14.11399,-1.34219 -19.48716,-2.75733c-6.28566,-1.65547 -7.79102,-3.44285 -7.79102,-3.44285z" fill="url(#color-9)" stroke="#000000" stroke-width="0" stroke-linecap="butt"/><path d="M321.17762,49.10465c-0.14265,3.56285 -3.03548,6.33991 -6.4613,6.20274c-3.42581,-0.13717 -6.08735,-3.13662 -5.94469,-6.69947c0.14265,-3.56285 3.03548,-6.33992 6.4613,-6.20275c3.42582,0.13717 6.08735,3.13662 5.94469,6.69949z" fill="#1dff00" stroke="#000000" stroke-width="0" stroke-linecap="butt"/><path d="M337.987,68.93425c-0.14265,3.56285 -3.03548,6.33993 -6.4613,6.20276c-3.42581,-0.13717 -6.08736,-3.13663 -5.9447,-6.69949c0.14265,-3.56285 3.03548,-6.33991 6.46131,-6.20274c3.42582,0.13717 6.08735,3.13662 5.94469,6.69947z" fill="#fa00ff" stroke="#000000" stroke-width="0" stroke-linecap="butt"/><path d="M310.85893,74.061c-0.14265,3.56285 -3.03548,6.33992 -6.4613,6.20275c-3.42581,-0.13717 -6.08735,-3.13663 -5.94469,-6.69948c0.14265,-3.56285 3.03548,-6.33992 6.4613,-6.20275c3.42582,0.13717 6.08735,3.13662 5.94469,6.69948z" fill="#0007ff" stroke="#000000" stroke-width="0" stroke-linecap="butt"/><path d="M333.8019,25.54528l-30.50286,-2.13441" fill="none" stroke="#000000" stroke-width="2.5" stroke-linecap="round"/><path d="M332.1151,33.46722l-11.99665,-8.24156l-0.30935,-15.07828" fill="none" stroke="#000000" stroke-width="2.5" stroke-linecap="round"/><path d="M319.2068,25.18917l-10.96708,5.95247" fill="none" stroke="#000000" stroke-width="2.5" stroke-linecap="round"/><path d="M341.31209,114.75437c0,2.18036 -2.03266,3.94789 -4.54007,3.94789c-2.50741,0 -4.54007,-1.76753 -4.54007,-3.94789c0,-2.18036 2.03266,-3.94789 4.54007,-3.94789c2.50741,0 4.54007,1.76753 4.54007,3.94789z" fill="#ffffff" stroke="#000000" stroke-width="2.5" stroke-linecap="butt"/><path d="M333.25932,118.8248h22.78517" fill="none" stroke="#000000" stroke-width="2.5" stroke-linecap="round"/><path d="M286.52603,145.02848l1.2859,12.00171l32.14745,-10.28718l26.14659,9.85855l0.64295,-12.64466" fill="none" stroke="#000000" stroke-width="2.5" stroke-linecap="round"/></g></g></svg>