<svg version="1.1" xmlns="http://www.w3.org/2000/svg" xmlns:xlink="http://www.w3.org/1999/xlink" width="178.3229" height="352.62442" viewBox="0,0,178.3229,352.62442"><g transform="translate(-225.88502,-7.59968)"><g data-paper-data="{&quot;isPaintingLayer&quot;:true}" fill-rule="nonzero" stroke-width="2" stroke-linejoin="miter" stroke-miterlimit="10" stroke-dasharray="" stroke-dashoffset="0" style="mix-blend-mode: normal"><path d="M312.95477,235.98692c5.76001,-0.25412 17.30436,-0.58416 23.24033,-1.76934c6.47226,-1.29226 14.80768,-0.31291 21.25173,-0.44908c3.78534,-0.07999 11.68446,-0.75506 11.68446,-0.75506l1.33314,5.97366l13.10855,9.2394l-2.55004,22.25167c0,0 -1.9148,28.1726 -8.69514,42.43968c-2.96499,6.23892 4.09259,13.53237 -5.36531,17.50787c-3.34915,1.40775 -12.48376,10.10886 -15.96895,10.18251c-5.05597,0.10684 -10.24309,-5.8123 -16.22407,-7.0158c-7.61547,-1.5324 -24.44879,2.25879 -24.44879,2.25879l-7.19823,-7.08449l4.92401,-20.38218c0,0 4.93981,-30.30101 9.00783,-49.86936c1.33674,-6.43005 -9.41041,-17.93531 -5.51887,-22.49722z" fill="#3c2c1f" stroke="#000000" stroke-linecap="round"/><path d="M351.47058,238.72263l-15.54615,93.7451" fill="none" stroke="#000000" stroke-linecap="round"/><path d="M336.64736,339.40169c-1.6774,10.58846 -3.75102,19.59242 -14.63458,19.82241c-10.88357,0.22999 -24.7783,-18.98955 -24.7783,-18.98955c0,0 11.86009,-19.35857 22.74365,-19.58855c10.88357,-0.22999 18.34663,8.16722 16.66923,18.7557z" fill="#000000" stroke="#000000" stroke-linecap="butt"/><path d="M376.03641,335.39929c-1.6774,10.58848 -6.17262,20.04879 -17.05619,20.27878c-10.88356,0.22999 -24.0341,-8.85744 -22.3567,-19.44592c1.6774,-10.58848 11.86009,-19.35857 22.74365,-19.58855c10.88357,-0.22999 18.34664,8.16722 16.66924,18.7557z" fill="#000000" stroke="#000000" stroke-linecap="butt"/><path d="M330.75683,228.77815c-7.40353,4.28109 -27.74688,1.22795 -27.74688,1.22795l-75.81407,-50.25724l23.35524,-43.67759l20.97418,-3.17208l0.85874,6.78189l-12.77252,10.74279l-5.7374,39.05441c0,0 29.08994,17.14373 44.75792,13.35308c8.09928,-1.95952 15.80697,-6.73578 24.55119,-5.40253c25.92482,3.9528 23.71392,27.14352 8.82078,31.51776z" fill="#feed00" stroke="#000000" stroke-linecap="round"/><g><path d="M349.69107,215.21643l13.48621,-12.94254l16.55,22.75511l17.41572,6.45469l-2.5582,-1.77503l-2.74296,3.93885l-3.04746,8.85895l-5.51331,-4.68318l-7.64961,5.40495l-2.4312,-11.41746c0,0 -5.10639,3.81844 -9.00564,-2.73355c-3.58622,-6.02606 -14.72977,-14.12994 -14.72977,-14.12994z" fill="#feed00" stroke="#000000" stroke-linecap="round"/><path d="M369.95994,220.68322l-2.34047,4.05911l-4.54697,-3.22163l-4.03651,-2.602l3.79852,-7.09354l6.81275,-3.7787l0.31268,12.63674z" fill="#ffa600" stroke="none" stroke-linecap="butt"/><path d="M370.82275,226.96377c0,0 -1.64275,3.57256 -3.44601,2.71471c-1.80324,-0.85787 -23.04772,-3.48582 -22.9478,-5.84298c0.09992,-2.35716 1.64275,-3.57256 3.446,-2.71471c1.80324,0.85787 22.94781,5.84297 22.94781,5.84297z" fill="#ffa600" stroke="none" stroke-linecap="butt"/><path d="M380.44163,239.00782l-3.40279,2.67721l-3.04573,-5.745l3.40279,-2.67722l3.04573,5.745z" fill="#ffa600" stroke="none" stroke-linecap="butt"/><path d="M390.03899,236.54903l-2.82898,2.89213l-2.47674,-5.41625l6.38661,-1.6431z" fill="#ffa600" stroke="none" stroke-linecap="butt"/><path d="M377.13873,220.29673l-1.96225,3.07225l21.49299,4.80254l-17.90142,-3.09391z" fill="#ffa600" stroke="none" stroke-linecap="butt"/></g><g><path d="M285.88779,226.44211c3.35561,-0.73262 26.48397,4.91856 24.19427,11.54666c-2.48955,7.2066 -7.02304,3.28503 -8.26418,4.503c-0.23901,0.23453 12.83442,1.38039 10.26451,4.02553c-4.7495,4.88857 -8.58673,-3.74138 -8.58673,-3.74138l-4.44906,5.7039l-4.78063,-8.05689l-13.81458,4.34695l1.91372,2.57636l-7.76045,-6.12239l-0.11134,-24.02734c0,0 8.02457,6.47631 11.22757,9.55502z" fill="#feed00" stroke="#000000" stroke-linecap="round"/><path d="M269.32842,224.16123l7.43747,2.31861l20.41869,5.81377l-6.98261,2.11745l-3.79918,4.07676l-3.11497,-3.50015l-13.95939,-10.82646z" fill="#ffa600" stroke="none" stroke-linecap="butt"/><path d="M308.56029,232.18661c1.5918,-1.20573 3.34905,-0.32843 3.92491,1.9595c0.57586,2.28792 -3.80537,3.87103 -5.39718,5.07675c-1.5918,1.20573 -3.34907,0.32845 -3.92492,-1.95948c-0.57586,-2.28792 3.80537,-3.87103 5.39719,-5.07676z" fill="#ffa600" stroke="none" stroke-linecap="butt"/><path d="M298.8323,247.02849c0,0 12.80827,-10.23755 13.37645,-7.98015c0.56818,2.2574 -0.24551,5.05261 -1.81742,6.24326c-1.57192,1.19064 -3.87499,-1.93153 -3.87499,-1.93153z" fill="#ffa600" stroke="none" stroke-linecap="butt"/><path d="M284.38644,246.68487l16.91697,-7.3339l-1.32694,5.80598l-3.3567,-2.25836z" fill="#ffa600" stroke="none" stroke-linecap="butt"/><path d="M276.1798,236.06501l2.5445,2.6105l-0.62595,5.01195l-2.5445,-2.6105z" fill="#ffa600" stroke="none" stroke-linecap="butt"/></g><path d="M290.0162,206.0814c-1.00279,6.48446 11.79435,24.92153 11.79435,24.92153l-45.08404,-3.43808l6.78683,-22.33991l12.87952,-56.4175c0,0 5.27233,-9.05184 6.6722,-13.94944l1.1738,-0.07536c13.23583,1.27455 25.50796,5.9116 39.12782,2.94803c5.45087,-1.18605 9.30378,-3.53297 12.92385,-7.77295c0.82768,-0.96941 3.26684,-3.345 4.80658,-2.53871c3.46547,1.81472 8.32557,13.11153 8.32557,13.11153l19.80816,43.67835l6.34748,15.59561l-17.22552,18.05372l-5.25466,3.46493l-1.66218,-23.70962l-0.3567,24.97451l18.24422,12.71384c0,0 -9.95866,4.77639 -12.79855,5.38629c-11.48758,2.46704 -23.70321,1.45217 -35.17778,3.95586c-3.72961,0.81377 0.5717,-4.98783 -2.97258,-6.45556c-1.88899,-0.78227 -15.07544,3.24957 -15.25352,1.51157c-0.78397,-7.65152 -19.1742,-15.08957 -18.44271,-22.74244" fill="#fffe8a" stroke="#000000" stroke-linecap="round"/><path d="M289.38115,125.87085c13.73255,-3.89097 27.06091,-7.81675 41.47627,-8.15854c3.07423,-0.07289 13.83803,-0.02965 13.51035,4.75182c-0.44538,6.49849 -6.36307,10.45584 -12.01706,12.44179c-10.19279,3.58021 -34.78111,6.92642 -44.74605,2.41267c-7.09203,-3.21241 -6.10864,-10.859 1.89772,-11.67932z" fill="#fffe8a" stroke="#000000" stroke-linecap="round"/><g stroke-linecap="butt"><path d="M283.97612,56.65798l-10.47954,35.90512l1.37158,13.64246l-0.54335,-2.15798l-8.09067,-15.87734l1.32005,-53.64574l1.90297,-18.90115l1.96835,-0.16001l11.46659,17.14304l1.82078,23.71025z" fill="#feed00" stroke="#000000"/><path d="M279.38663,59.1133l-5.51961,25.40154l2.80367,9.04584l-4.36764,0.00578l-3.27026,-11.24945l2.7187,-38.62128l-1.91831,-11.6151l1.26367,-0.31784l10.47836,9.00218l-1.72531,18.03903z" fill="#ffa700" stroke="none"/></g><g stroke-linecap="butt"><path d="M329.22535,42.72034l6.17724,-14.34909c0,0 9.95183,-12.94115 13.11605,-18.43592c0.61579,-1.06936 0.75762,-2.17888 1.71776,-0.39265c1.49831,2.78745 -1.27976,16.32028 -1.27976,16.32028l-5.46983,48.01403l0.81425,15.30252l0.0799,1.91727c0,0 -5.42656,-10.43007 -5.97814,-11.67771c-5.019,-11.35277 -8.46373,-36.61455 -8.46373,-36.61455z" fill="#feed00" stroke="#000000"/><path d="M333.99553,43.46867l4.58213,-8.74645l6.6649,-10.18454l1.15692,-0.07538l1.28768,10.05164l-8.05822,35.30026c0,0 -0.03225,6.74186 0.0435,10.11124c0.00952,0.42329 0.20228,1.11554 -0.00928,1.26454c-0.50957,0.35885 -3.27439,-7.40752 -3.6011,-8.28326c-2.97286,-7.96884 -11.09535,-19.39564 -11.09535,-19.39564z" fill="#ffa700" stroke="none"/></g><path d="M308.37391,42.03936l21.53793,13.99881c0,0 7.50386,12.82349 10.36086,21.05292c0.87746,2.52749 3.56931,7.09576 3.56931,7.09576c0,0 1.18477,38.21192 -19.74708,42.64292c-17.53137,3.71117 -50.48257,-12.12137 -50.48257,-12.12137l-5.9699,-30.74279l0.30143,-11.88047l40.80965,-29.80935z" fill="#feed00" stroke="#000000" stroke-linecap="butt"/><path d="M340.78348,88.87133c4.30555,-0.04927 16.09837,8.23513 16.09837,8.23513l-7.17692,4.33079l1.635,2.30738l1.90682,8.25348c0,0 -10.65689,4.45412 -13.9241,1.83847" fill="#feed00" stroke="#000000" stroke-linecap="round"/><path d="M281.51904,122.5862l-14.00762,1.02339l0.19351,-8.46866l1.13312,-2.59101l-7.90604,-2.78542l9.94747,-11.90731" fill="#feed00" stroke="#000000" stroke-linecap="round"/><path d="M227.70253,82.26286l42.11258,12.16948" fill="none" stroke="#000000" stroke-linecap="round"/><path d="M237.88408,94.5184l32.40616,1.10213" fill="none" stroke="#000000" stroke-linecap="round"/><path d="M269.45176,96.05982l-26.24151,5.86638" fill="none" stroke="#000000" stroke-linecap="round"/><path d="M343.54108,86.46845l28.36278,-21.63544" fill="none" stroke="#000000" stroke-linecap="round"/><path d="M341.00779,87.61149c10.10712,-8.90678 32.92344,-7.11323 32.92344,-7.11323" fill="none" stroke="#000000" stroke-linecap="round"/><path d="M344.64827,88.65203l27.44065,1.54669" fill="none" stroke="#000000" stroke-linecap="round"/><path d="M306.20339,119.97246c3.70064,-0.37916 7.57243,-1.01833 11.29324,-0.93663c0.47224,0.01038 1.25185,-0.27163 1.40627,0.1748c0.20226,0.58478 -6.0445,5.01902 -6.81362,5.04046c-1.72954,0.04821 -4.6607,-3.04666 -5.47001,-4.32122z" fill="#000000" stroke="#000000" stroke-linecap="round"/><path d="M294.30418,86.51353c0.65216,17.20073 2.30847,30.91197 -1.16435,32.36119c-3.47282,1.44921 -11.41182,-27.11314 -11.41182,-27.11314c0,0 1.63442,-32.31948 5.10723,-33.7687c3.47282,-1.44921 6.81678,11.31992 7.46894,28.52065z" fill="#ffffff" stroke="#000000" stroke-linecap="butt"/><path d="M292.50096,81.83306c0.46583,12.28623 3.00569,30.30108 0.58382,31.31171c-2.42187,1.01063 -8.88835,-15.3656 -9.35419,-27.65186c-0.46583,-12.28623 1.11986,-23.0655 3.54172,-24.07613c2.42187,-1.01063 4.76281,8.13001 5.22865,20.41627z" fill="#000000" stroke="#000000" stroke-linecap="butt"/><path d="M329.7359,86.52217c0.65965,17.26114 2.26102,31.02652 -1.28707,32.48217c-3.54809,1.45565 -10.90203,-9.94972 -11.56169,-27.21083c-0.65965,-17.26114 1.68188,-32.43405 5.22997,-33.88971c3.54809,-1.45565 6.95914,11.35726 7.61879,28.61837z" fill="#ffffff" stroke="#000000" stroke-linecap="butt"/><path d="M327.52516,81.11039c0.47118,12.32938 3.40861,31.07154 0.93424,32.08666c-2.47437,1.01512 -9.42353,-16.08116 -9.89472,-28.41056c-0.47118,-12.32938 1.15272,-23.14724 3.62708,-24.16236c2.47437,-1.01512 4.8622,8.15687 5.33338,20.48626z" fill="#000000" stroke="#000000" stroke-linecap="butt"/><path d="M281.83733,59.64966l16.7807,-16.81573l3.52093,-2.14505l-4.94304,-1.72912l13.48078,-3.42179l4.22868,-0.43782l-6.14523,-2.9104l5.55652,0.72969l12.27967,9.41857" fill="#feed00" stroke="#000000" stroke-linecap="butt"/><path d="M270.06054,77.70559l-4.67265,-4.46546l-6.02442,-2.47957l6.99698,-4.19258l7.46063,-3.9735" fill="#feed00" stroke="#000000" stroke-linecap="butt"/><path d="M302.09,175.66892c1.28602,0.38493 4.67959,-0.22016 5.31513,1.26064c2.13156,4.96642 -1.38041,9.97615 -6.30792,9.44455c-3.28119,-0.35398 1.30535,-11.4481 1.30535,-11.4481c0,0 -2.09983,-23.65597 -0.7726,-35.35454" fill="#ffaf36" stroke="#000000" stroke-linecap="round"/><path d="M328.75061,173.54497c8.44823,-11.62439 10.13366,17.03128 -0.37772,10.00402c-5.69115,-3.80474 0.40454,-8.47937 0.65009,-11.03592c1.15904,-12.0674 -5.10726,-24.22526 -2.75891,-36.58034" fill="#ffaf36" stroke="#000000" stroke-linecap="round"/><path d="M293.36885,208.36664c3.23445,-3.17956 7.67694,-3.10761 11.79464,-4.19764c13.28099,-3.51575 28.44784,-4.16755 42.13204,-3.36394" fill="none" stroke="#000000" stroke-linecap="round"/><path d="M349.59285,204.61871c0,0 17.40368,19.1545 18.41538,27.99614" fill="none" stroke="#000000" stroke-linecap="round"/><path d="M294.30047,212.54823c0.86797,8.47136 14.05695,16.91499 14.72247,25.38888" fill="none" stroke="#000000" stroke-linecap="round"/><path d="M293.97703,135.27107c-2.70107,-0.64617 -4.73323,-3.0253 -7.27138,-4.21499" fill="none" stroke="#fcec41" stroke-linecap="round"/><path d="M336.3359,128.58632c1.51048,-1.24506 2.93869,-2.25388 4.67537,-3.16379" fill="none" stroke="#fcec41" stroke-linecap="round"/><path d="M309.51657,143.83965l0.97689,9.5345" fill="none" stroke="#fcec41" stroke-linecap="round"/><path d="M313.33836,146.73795l0.50037,4.88353" fill="none" stroke="#fcec41" stroke-linecap="round"/><path d="M316.80277,146.14797l1.07887,3.6493" fill="none" stroke="#fcec41" stroke-linecap="round"/><path d="M293.33744,230.25109l-6.28821,-39.75504l11.96368,38.67036z" fill="#fce541" stroke="#fcec41" stroke-linecap="round"/><path d="M293.33744,230.25109l-6.28821,-39.75504l11.96368,38.67036z" fill="#fce541" stroke="#fcec41" stroke-linecap="round"/><path d="M355.67388,217.26654l-5.85072,-30.43477l15.51058,23.69572z" fill="#fce541" stroke="#fcec41" stroke-linecap="round"/></g></g></svg>