<svg version="1.1" xmlns="http://www.w3.org/2000/svg" xmlns:xlink="http://www.w3.org/1999/xlink" width="170.53917" height="320.67531" viewBox="0,0,170.53917,320.67531"><defs><linearGradient x1="337.80632" y1="60.33799" x2="399.45656" y2="65.32667" gradientUnits="userSpaceOnUse" id="color-1"><stop offset="0" stop-color="#000000"/><stop offset="1" stop-color="#d31b1b"/></linearGradient><linearGradient x1="232.95297" y1="67.05031" x2="298.25111" y2="72.33419" gradientUnits="userSpaceOnUse" id="color-2"><stop offset="0" stop-color="#d31b1b"/><stop offset="1" stop-color="#16031b"/></linearGradient><linearGradient x1="321.72657" y1="60.34665" x2="317.57797" y2="111.61492" gradientUnits="userSpaceOnUse" id="color-3"><stop offset="0" stop-color="#d31b1b"/><stop offset="1" stop-color="#670000"/></linearGradient><radialGradient cx="322.71538" cy="226.76716" r="33.16925" gradientUnits="userSpaceOnUse" id="color-4"><stop offset="0" stop-color="#ee2828"/><stop offset="1" stop-color="#500000"/></radialGradient><radialGradient cx="324.70788" cy="213.87452" r="28.48101" gradientUnits="userSpaceOnUse" id="color-5"><stop offset="0" stop-color="#ee2828"/><stop offset="1" stop-color="#500000"/></radialGradient></defs><g transform="translate(-234.30745,-19.92121)"><g stroke-miterlimit="10"><path d="M280.52712,338.3147l-6.32148,-147.15305c0,0 5.3186,-25.8673 14.30919,-26.53942c8.92839,-0.66747 30.10303,-1.8525 48.58824,-3.23443c20.04938,-1.49886 27.50651,15.45405 27.50651,15.45405l4.34442,162.48982z" fill="#000000" stroke="#000000" stroke-width="2.5" stroke-linecap="butt"/><path d="M337.14005,173.42037c0,6.40346 -7.28092,11.59448 -16.26239,11.59448c-8.98147,0 -16.26238,-5.19102 -16.26238,-11.59448c0,-6.40346 7.28091,-11.59448 16.26238,-11.59448c8.98147,0 16.26239,5.19103 16.26239,11.59448z" fill="#ee2828" stroke="#000000" stroke-width="2.5" stroke-linecap="butt"/><path d="M371.37671,93.17379c-0.09129,8.33019 -30.05618,16.71024 -66.92845,18.7174c-36.87226,2.00715 -66.68914,-3.11867 -66.59785,-11.44885c0.0913,-8.33018 30.05617,-16.71024 66.92845,-18.71739c36.87226,-2.00715 66.68915,3.11867 66.59786,11.44885z" fill="#580b0b" stroke="#000000" stroke-width="2.5" stroke-linecap="butt"/><path d="M337.12603,68.74504l36.40458,-4.46777l24.80345,-40.18994l1.36395,38.25558l-14.71069,39.01952l-15.95354,2.65099l-1.90956,-12.94258l-11.75213,-14.83658z" fill="url(#color-1)" stroke="#000000" stroke-width="2.5" stroke-linecap="round"/><path d="M280.19683,80.08354l-11.40462,15.10533l-1.60869,12.98341l-16.01075,-2.28002l-15.61229,-38.6676l0.47573,-38.27693l25.7295,39.60348l36.49847,3.62168z" fill="url(#color-2)" stroke="#000000" stroke-width="2.5" stroke-linecap="round"/><path d="M372.32649,120.42881c-1.09543,28.53319 -26.34672,53.73348 -56.57709,52.57289c-30.23037,-1.16059 -53.9922,-28.24257 -52.89677,-56.77575c1.09543,-28.53318 26.49003,-50.72307 56.7204,-49.56246c30.23037,1.16059 53.84891,25.23215 52.75348,53.76533z" fill="#ee2828" stroke="#000000" stroke-width="2.5" stroke-linecap="butt"/><path d="M333.12625,113.92065c-0.10392,2.70685 -6.83569,4.64597 -15.03584,4.33116c-8.20015,-0.31481 -14.76344,-2.76435 -14.65951,-5.4712c0.10392,-2.70685 6.8357,-4.64597 15.03585,-4.33116c8.20015,0.31481 14.76344,2.76435 14.65952,5.4712z" fill-opacity="0.23137" fill="#000000" stroke="none" stroke-width="0" stroke-linecap="butt"/><path d="M296.45021,111.32331c-0.08573,2.23322 -2.14225,3.96732 -4.59334,3.87322c-2.4511,-0.0941 -4.3686,-1.98077 -4.28287,-4.21398c0.08573,-2.23323 2.14225,-3.96732 4.59334,-3.87322c2.4511,0.0941 4.36859,1.98076 4.28286,4.21399z" fill="#ffffff" stroke="#000000" stroke-width="2.5" stroke-linecap="butt"/><path d="M350.61692,113.47971c-0.08573,2.23323 -2.14225,3.96732 -4.59334,3.87322c-2.4511,-0.0941 -4.36859,-1.98077 -4.28286,-4.21398c0.08573,-2.23322 2.14224,-3.96731 4.59334,-3.87321c2.4511,0.0941 4.3686,1.98076 4.28287,4.21398z" fill="#ffffff" stroke="#000000" stroke-width="2.5" stroke-linecap="butt"/><path d="M374.60809,87.70823c-0.28291,4.03545 -1.16183,14.31721 -1.16183,14.31721l-54.72756,2.90378l-54.49956,2.36792c0,0 -0.48332,-10.86493 -0.20761,-14.79769c1.12215,-16.00677 26.78973,-30.05539 57.33012,-31.37845c30.54039,-1.32306 54.38859,10.58045 53.26644,26.58722zM334.45225,77.8465c-15.21132,0.65898 -27.99563,7.65622 -28.55455,15.62874c-0.13732,1.95879 0.10341,7.37031 0.10341,7.37031l27.14472,-1.17939l27.25828,-1.4463c0,0 0.43777,-5.12105 0.57869,-7.13099c0.55891,-7.97253 -11.31921,-13.90134 -26.53054,-13.24236z" fill="url(#color-3)" stroke="#000000" stroke-width="2.5" stroke-linecap="butt"/><path d="M303.47061,103.40217l61.43079,-3.03724" fill="none" stroke="#000000" stroke-width="2.5" stroke-linecap="round"/><path d="M328.89919,62.84827c0,0 3.44377,3.57076 4.27814,5.98685c0.87991,2.54794 0.87198,8.92628 0.87198,8.92628" fill="none" stroke-opacity="0.48235" stroke="#000000" stroke-width="2.5" stroke-linecap="round"/><path d="M280.59372,106.19148c0,0 -0.85324,-22.81301 6.67911,-29.90115c8.05462,-7.57962 40.18696,-14.20108 40.18696,-14.20108c0,0 20.91128,4.66714 28.45934,11.76702c6.0025,5.64609 13.26394,27.47889 13.26394,27.47889" fill="none" stroke-opacity="0.48235" stroke="#000000" stroke-width="2.5" stroke-linecap="round"/><path d="M331.88367,59.84812c-0.07567,1.9708 -2.15508,3.49095 -4.64449,3.39538c-2.48942,-0.09557 -4.44617,-1.77069 -4.3705,-3.74148c0.07567,-1.9708 2.15508,-3.49095 4.6445,-3.39538c2.48942,0.09557 4.44616,1.77069 4.3705,3.74148z" fill="#d31b1b" stroke="#000000" stroke-width="2.5" stroke-linecap="butt"/><path d="M293.32917,163.06778l52.03629,-1.64522" fill="none" stroke="#000000" stroke-width="2.5" stroke-linecap="round"/><path d="M331.65893,111.44146c0,0 0.9731,-3.03286 5.175,-2.92103c7.51263,0.19994 31.41683,0.83615 31.41683,0.83615" fill="none" stroke="#000000" stroke-width="2.5" stroke-linecap="round"/><path d="M347.56302,251.73199l-51.57056,-17.11205l-1.17206,25.31646l33.52086,-39.14674l22.2691,-27.19175" fill="none" stroke="url(#color-4)" stroke-width="2.5" stroke-linecap="round"/><path d="M296.22686,204.61526l56.96203,18.51852" fill="none" stroke="url(#color-5)" stroke-width="2.5" stroke-linecap="round"/><g><path d="M284.54801,255.76966c11.4522,2.33644 28.53527,3.63556 22.89653,20.5562c-1.31496,3.94591 -4.61724,5.47456 -6.61034,8.50353c-2.32851,3.53871 -0.6305,8.98029 -2.43131,12.72169c-0.9953,2.06786 -3.66046,3.08457 -4.32816,5.4446c-0.60821,2.14977 0.26309,4.79703 -0.84213,6.90809c-2.60271,4.97139 -13.69521,6.14175 -18.35259,4.55221c-3.04822,-1.04034 -15.16951,-4.02142 -16.58947,-6.30112c-0.93199,-1.49628 -0.72382,-4.10998 -1.18942,-5.82869c-0.69192,-2.55418 -1.95935,-4.99518 -2.54807,-7.5533c-1.71499,-7.45195 0.89291,-18.48365 3.11529,-25.60437c0.8805,-2.82122 3.17023,-5.18288 4.24159,-7.92708c1.11654,-2.85991 1.704,-6.78113 4.20495,-8.93727c2.45711,-2.11834 15.22904,2.64918 18.35512,3.44562z" fill="#ee2828" stroke="#000000" stroke-width="2.5" stroke-linecap="round"/><path d="M290.64743,274.68166c6.74205,1.37549 12.0268,3.3765 11.80384,4.4694c-0.22297,1.09289 -5.86923,0.86381 -12.61127,-0.51168c-6.74205,-1.37549 -12.02681,-3.37651 -11.80384,-4.4694c0.22297,-1.09289 5.86923,-0.8638 12.61128,0.51169z" fill-opacity="0.23137" fill="#000000" stroke="none" stroke-width="0" stroke-linecap="butt"/><path d="M284.74832,293.44847c5.30632,2.79193 9.09354,6.03287 8.45901,7.23885c-0.63453,1.20598 -5.45053,-0.07969 -10.75685,-2.87162c-5.30632,-2.79193 -9.09354,-6.03288 -8.45901,-7.23886c0.63453,-1.20598 5.45053,0.07969 10.75685,2.87162z" fill-opacity="0.23137" fill="#000000" stroke="none" stroke-width="0" stroke-linecap="butt"/><path d="M268.91646,268.36054c0.90795,0.18524 1.49382,1.07144 1.30858,1.97939c-0.18524,0.90795 -1.07143,1.49382 -1.97938,1.30859c-0.90795,-0.18524 -1.49383,-1.07144 -1.30859,-1.97939c0.18524,-0.90795 1.07144,-1.49382 1.97939,-1.30859z" fill-opacity="0.23137" fill="#000000" stroke="none" stroke-width="0" stroke-linecap="butt"/><path d="M263.96018,288.70419c0.80113,0.16344 1.30041,1.03198 1.11518,1.93993c-0.18524,0.90795 -0.98484,1.51149 -1.78598,1.34805c-0.80113,-0.16344 -1.30042,-1.03198 -1.11518,-1.93993c0.18524,-0.90795 0.98485,-1.51149 1.78598,-1.34804z" fill-opacity="0.23137" fill="#000000" stroke="none" stroke-width="0" stroke-linecap="butt"/></g><g><path d="M373.12495,277.80299c3.12608,-0.79644 15.89801,-5.56396 18.35512,-3.44562c2.50094,2.15613 3.08841,6.07736 4.20495,8.93727c1.07137,2.74421 3.36109,5.10587 4.24159,7.92708c2.22238,7.12072 4.83028,18.15242 3.11529,25.60437c-0.58873,2.55812 -1.85614,4.99912 -2.54807,7.55329c-0.4656,1.71872 -0.25744,4.33242 -1.18943,5.8287c-1.41996,2.2797 -13.54125,5.26077 -16.58947,6.30111c-4.65738,1.58954 -15.74988,0.41918 -18.35259,-4.55221c-1.10522,-2.11106 -0.23392,-4.75833 -0.84214,-6.9081c-0.66769,-2.36003 -3.33286,-3.37674 -4.32816,-5.4446c-1.80081,-3.7414 -0.1028,-9.18299 -2.43131,-12.72169c-1.99309,-3.02897 -5.29538,-4.55761 -6.61034,-8.50353c-5.63875,-16.92064 11.44433,-18.21975 22.89653,-20.55619z" fill="#ee2828" stroke="#000000" stroke-width="2.5" stroke-linecap="round"/><path d="M379.55879,296.22318c0.22296,1.09289 -5.0618,3.09391 -11.80385,4.4694c-6.74205,1.37549 -12.38831,1.60457 -12.61127,0.51168c-0.22296,-1.09289 5.06179,-3.09391 11.80384,-4.4694c6.74205,-1.37549 12.38832,-1.60458 12.61128,-0.51168z" fill-opacity="0.23137" fill="#000000" stroke="none" stroke-width="0" stroke-linecap="butt"/><path d="M383.60347,312.63006c0.63453,1.20598 -3.1527,4.44693 -8.45901,7.23886c-5.30631,2.79193 -10.12232,4.07759 -10.75685,2.87161c-0.63453,-1.20598 3.1527,-4.44693 8.45902,-7.23886c5.30631,-2.79193 10.12232,-4.0776 10.75684,-2.87162z" fill-opacity="0.23137" fill="#000000" stroke="none" stroke-width="0" stroke-linecap="butt"/><path d="M390.65787,291.72233c0.18523,0.90795 -0.40064,1.79415 -1.30859,1.97938c-0.90795,0.18523 -1.79415,-0.40063 -1.97938,-1.30858c-0.18523,-0.90795 0.40063,-1.79415 1.30858,-1.97938c0.90795,-0.18523 1.79415,0.40063 1.97939,1.30858z" fill-opacity="0.23137" fill="#000000" stroke="none" stroke-width="0" stroke-linecap="butt"/><path d="M395.42074,312.10545c0.18523,0.90795 -0.31404,1.77649 -1.11518,1.93993c-0.80113,0.16344 -1.60075,-0.4401 -1.78598,-1.34805c-0.18523,-0.90795 0.31404,-1.77648 1.11518,-1.93992c0.80113,-0.16344 1.60075,0.44009 1.78598,1.34804z" fill-opacity="0.23137" fill="#000000" stroke="none" stroke-width="0" stroke-linecap="butt"/></g></g></g></svg>