<svg version="1.1" xmlns="http://www.w3.org/2000/svg" xmlns:xlink="http://www.w3.org/1999/xlink" width="214.16705" height="225.97388" viewBox="0,0,214.16705,225.97388"><g transform="translate(-133.8912,-113.39996)"><g stroke-miterlimit="10"><g stroke="none" stroke-width="0.5" stroke-linecap="butt"><path d="M236.61324,218.67941c-4.98453,0.97503 -9.78775,4.3597 -14.3813,6.53453c-1.80486,0.85451 -4.54443,1.07214 -5.86254,2.76841c-6.67281,2.417 -7.98365,10.57818 -8.56809,18.25722c-0.09824,1.29084 -0.5511,2.50863 -0.70181,3.79172c-0.36828,3.13584 0.0094,6.68773 0.0094,9.85996c0,6.99407 0.70642,13.58516 1.61392,20.45951c0.59035,4.47198 0.00941,9.66141 0.00941,14.20394c0,6.71092 0.2319,13.34579 0.2319,20.05325c0,4.05612 -0.4177,8.50339 0.22716,12.48648c0.00626,2.05036 0.07149,3.99374 0.23191,6.01596c0.03825,0.4823 -0.30854,2.83159 0.15444,3.24475c1.03597,0.92449 3.02566,0.54203 4.21129,0.54203c4.03731,0 6.27477,-0.56557 7.14856,-6.07858c-0.01997,-6.7527 0.04789,-13.43294 -0.91641,-20.00465c-0.30509,-2.07917 -0.41032,-4.40094 -0.24785,-6.51909c0.05878,-0.76626 -0.15564,-1.73785 0.28493,-2.28211c0.65322,-0.80694 3.48011,-0.35197 4.39831,-0.35197c2.25314,0.06202 4.77502,-0.61834 7.12006,-0.8564c6.49495,-0.65933 13.26025,-0.00302 19.78074,-0.00302c3.26502,0 6.48002,0.28647 9.73996,0.28647c0.86256,0 3.45732,-0.38756 4.09528,0.27238c0.44434,0.45963 0.78071,3.65306 0.81741,4.28184c0.23832,4.08425 0.00245,8.30617 0.00245,12.4036c0,4.07846 -0.08703,8.16165 0.22717,12.20001c0.04755,0.61122 0.0804,3.05338 0.28492,3.4264c0.20063,0.36595 3.29919,0.0739 3.3851,0.0739c3.38089,0 7.01679,0.4964 10.26873,-0.85909c4.51603,-10.41911 2.71101,-22.7204 2.67269,-34.03504c0,-12.45947 -1.61135,-24.34415 -3.01229,-36.5836c0.03307,-2.14251 -0.77596,-4.08279 -0.92675,-6.28851c-0.63381,-9.27138 -2.91636,-17.54926 -4.39059,-26.50562c-0.57366,-3.82149 -3.40511,-4.69308 -6.04851,-5.67271c-5.01896,-1.86001 -10.84346,-4.2274 -16.11187,-4.26281c-4.33355,-1.78445 -9.8917,-0.84391 -14.4541,-0.84391h-1.15953c0,0 -0.05294,0 -0.13413,-0.01526zM239.90834,216.24607c4.21792,-0.16545 8.95133,-0.64993 12.7643,0.92015c2.36216,-0.01744 4.45696,0.56666 6.65319,1.4819c5.47767,2.28271 15.58346,1.45769 17.10334,10.35465c1.43619,9.04597 3.79871,17.40891 4.42175,26.77872c0.14986,2.25371 0.90095,4.08632 0.92847,6.31637c1.43646,12.2847 3.01719,24.24616 3.01719,36.75396c-0.00547,1.39613 0.30976,2.76597 0.45652,4.1503c0.4832,4.55811 0.25317,10.39637 -0.48254,14.74667c-0.21154,1.25092 0.09696,2.55903 0.02272,3.83366c-0.28256,4.85084 -1.22744,9.04593 -3.35349,13.13419c-3.64853,1.9531 -7.63317,1.43272 -11.53019,1.43272c-1.46078,0 -3.8143,0.46312 -4.96343,-1.072c-0.37612,-0.50245 -0.58029,-3.84979 -0.6427,-4.59489c-0.34459,-4.1135 -0.23664,-8.28248 -0.23664,-12.43683c0,-3.4377 -0.0023,-6.87541 0,-10.3131c0.00031,-0.46008 0.09873,-4.30674 -0.10776,-4.51369c-0.01778,-0.01781 -2.62391,0.27238 -2.86181,0.27238c-3.26068,0 -6.47492,-0.28647 -9.73996,-0.28647c-6.46962,0 -13.2005,-0.67589 -19.64283,-0.00302c-2.44262,0.25512 -4.88699,0.81524 -7.25797,0.86245c-0.85031,0 -1.71039,0.15879 -2.55093,0c-0.18157,-0.0343 -0.34177,-0.51242 -0.47164,-0.35197c-0.3903,0.48215 0.28492,1.33319 0.28492,2.01502c0,1.6006 -0.01755,3.07173 0.21596,4.65342c1.00042,6.77618 0.95678,13.7103 0.93883,20.67478c-0.47026,2.86359 -1.68395,6.83358 -4.13091,7.89363c-1.5314,0.66341 -3.35947,0.35153 -4.95376,0.35153c-1.67854,0 -4.16424,0.36023 -5.52865,-1.17682c-1.64727,-1.85571 -1.01424,-8.25344 -1.00509,-10.79253c-0.65698,-4.05794 -0.23664,-8.59108 -0.23664,-12.7233c0,-6.70715 -0.23189,-13.34215 -0.23189,-20.05325c0,-4.40768 0.60822,-9.54219 0.0094,-13.87059c-0.9636,-6.96514 -1.63273,-13.69746 -1.63273,-20.79286c0,-10.99963 -0.49618,-30.30356 10.21941,-33.98033c1.49446,-1.78097 4.25465,-2.03499 6.19645,-2.96108c5.62963,-2.6849 11.52197,-6.94505 17.71913,-6.94505c0,0 0.33355,0 0.61003,0.24127z" fill="#000000"/><path d="M236.74068,218.64731l1.16043,-0.00019c4.5624,0 10.13227,-0.9405 14.46582,0.84395c5.2684,0.03542 11.10537,2.40795 16.12431,4.26796c2.64339,0.97963 5.47988,1.85521 6.05354,5.67669c1.47422,8.95634 3.76787,17.25044 4.40168,26.52182c0.15079,2.20571 0.96192,4.15192 0.92885,6.29443c1.40094,12.23945 3.01113,24.16024 3.01113,36.61971c0.03833,11.31463 1.83193,23.6339 -2.68408,34.05301c-3.25196,1.35548 -6.89321,0.86344 -10.27411,0.86344c-0.08591,0 -3.18649,0.29334 -3.38712,-0.07261c-0.20452,-0.37302 -0.27134,-2.90168 -0.31889,-3.5129c-0.31419,-4.03836 -0.23084,-8.11898 -0.23084,-12.19745c0,-4.09743 0.23046,-8.31417 -0.00787,-12.39841c-0.03669,-0.62878 -0.31847,-3.75376 -0.76281,-4.21341c-0.63796,-0.65992 -3.23578,-0.26883 -4.09834,-0.26883c-3.25993,0 -6.48767,-0.2776 -9.7527,-0.2776c-6.5205,0 -13.32098,-0.66293 -19.81592,-0.0036c-2.34503,0.23805 -4.87248,0.91237 -7.12561,0.85037c-0.91821,0 -3.74732,-0.45819 -4.40054,0.34875c-0.44057,0.54426 -0.1659,1.455 -0.22468,2.22127c-0.16248,2.11814 -0.06031,4.43596 0.24478,6.51513c0.9643,6.57171 0.88891,13.24515 0.90888,19.99786c-0.87381,5.51301 -3.15161,6.16073 -7.18892,6.16073c-1.18563,0 -3.17736,0.38071 -4.21331,-0.54379c-0.46298,-0.41316 -0.11709,-2.76332 -0.15535,-3.24562c-0.16041,-2.02222 -0.22743,-3.96747 -0.23369,-6.01783c-0.64486,-3.98309 -0.23116,-8.43549 -0.23116,-12.49162c0,-6.70746 -0.23835,-13.35608 -0.23835,-20.067c0,-4.54254 0.57853,-9.74603 -0.01182,-14.21801c-0.9075,-6.87435 -1.61145,-13.48533 -1.61145,-20.47939c0,-3.17222 -0.37483,-6.73146 -0.00654,-9.8673c0.15069,-1.28311 0.60495,-2.50359 0.70318,-3.79443c0.58444,-7.67904 1.9048,-15.85221 8.57762,-18.26924c1.31811,-1.69627 4.06186,-1.91711 5.86672,-2.77162c4.59356,-2.17482 9.40841,-5.56448 14.39294,-6.53952c0.08119,0.01525 0.13423,0.01523 0.13423,0.01523z" fill="#ffffff"/></g><path d="M246.46112,239.87894c0.15721,0.7031 0.19594,1.53074 0.17898,2.39416c0.30963,-1.21729 1.54523,-1.87343 2.40726,-2.52334c0,0 1.1524,-0.8033 1.79929,0.42399c0.10181,0.19314 0.15903,0.37579 0.18321,0.54645c0.06652,-0.11592 0.14539,-0.21329 0.2296,-0.295c-0.45029,-0.92959 -0.42972,-2.1455 0.34592,-3.24097c0.48947,-0.69132 1.52122,-0.33057 2.28382,-0.49201c0.53936,-0.16185 0.99034,-0.21277 1.36125,-0.17661c-0.00696,-0.04978 -0.01162,-0.10062 -0.01387,-0.15241c-0.03492,-0.80465 0.52778,-1.53291 1.25681,-1.62658l0.24139,-0.03102c-0.11415,-0.43677 -0.13869,-0.89113 -0.03276,-1.32006c0.17894,-0.72455 1.00194,-0.91924 1.71465,-1.20467c0.48387,-0.54665 1.03503,-0.95969 1.58848,-1.11513c0.76539,-1.12572 2.01013,-2.08549 3.05208,-2.56322c-0.29953,-1.15209 0.47698,-2.24423 1.70562,-3.29114c0.37002,-0.31529 1.0181,-0.50064 1.67549,-0.62139c0.31367,-0.14761 0.64826,-0.20349 0.98467,-0.14388c0.0231,-0.00277 0.04602,-0.00551 0.06873,-0.0082c0.20148,-0.44886 0.6386,-0.81348 1.17786,-1.09961l0.13882,-0.11997c0.60584,-0.35327 1.1657,-1.1645 1.81754,-1.05984c0.39878,0.06403 0.84922,0.17821 1.26117,0.36079c0.0942,-0.00275 0.18214,-0.00259 0.26263,0.00041c0,0 1.31246,0.07221 1.1578,1.53723c-0.02639,0.25001 -0.0865,0.45527 -0.16805,0.62374c-0.38448,1.41825 -2.25526,2.9765 -3.60315,2.82854c0.01035,1.58361 -1.36673,2.72234 -2.7992,3.06842c0.63627,2.41038 -2.15122,5.09586 -4.48305,5.23864c0.05302,0.09567 0.09321,0.20176 0.11788,0.32051c0.47811,2.30214 -3.59801,4.98336 -5.52424,4.22014c-0.12037,0.2102 -0.24176,0.33787 -0.24176,0.33787l-1.28422,1.01918c-0.04641,0.00495 -0.09334,0.01188 -0.14069,0.02039c-0.15608,0.40261 -0.46275,0.72907 -0.8423,0.8788c-0.07306,0.14171 -0.17479,0.28636 -0.31253,0.43123c-0.78875,0.82959 -1.50323,0.34587 -1.76226,0.1136c-0.00308,0.54103 -0.18603,1.12013 -0.61274,1.69846c0.39032,0.20726 0.66342,0.63604 0.68626,1.16259c0.03492,0.80465 -0.52778,1.53292 -1.25681,1.62659l-1.3334,0.17133c-0.99267,0.12411 -1.99363,0.08251 -2.99347,0.07788c0.11705,1.04659 0.19301,2.10374 0.24316,3.16564c0.96488,0.13096 1.84868,0.37869 2.92777,0.59076c1.22447,0.24064 2.55884,0.52655 3.45741,1.4382c1.97547,2.00422 1.89056,6.71085 0.38431,9.35667c-1.12683,1.97934 -3.66188,3.71997 -5.86044,4.71491c0.00739,1.38706 -0.05098,2.77678 -0.1994,4.16515l0.06574,1.51478c0.03492,0.80465 -0.52778,1.53291 -1.25681,1.62658c-0.60435,0.07767 -1.13331,-0.30515 -1.31644,-0.89676l-0.55019,-1.64663l0.04316,-0.0205c-0.03329,-0.06089 -0.06535,-0.12275 -0.09606,-0.1857c-0.36297,-0.74415 -0.31445,-1.64884 -0.24752,-2.55512l-0.03711,-0.85511l0.02509,-0.00322c-0.00937,-0.01319 -0.01818,-0.02728 -0.02641,-0.04232c-0.01111,-0.02028 -0.02149,-0.04083 -0.03114,-0.06164c-0.90987,0.12221 -1.82911,0.16557 -2.69851,0.16348c-0.05914,-0.00014 -0.11987,0.00328 -0.18159,0.00884c-0.45723,0.07247 -0.92247,0.13624 -1.39628,0.19364l-0.1456,-0.09468l-0.01469,0.08253l-1.44494,-0.21052c-0.59422,-0.07171 -1.05822,-0.59557 -1.08832,-1.28893c-0.03492,-0.80465 0.52778,-1.5329 1.25681,-1.62658c0.03897,-0.005 0.07765,-0.0081 0.11593,-0.00935l1.56717,-0.06807l-0.00046,0.01758c0.01955,-0.00635 0.03916,-0.01258 0.05878,-0.01869c0.59925,-0.18671 1.21227,-0.10266 1.8271,-0.03262c0.66322,-0.12988 1.30322,-0.28284 1.92403,-0.47181c-0.76126,-0.24902 -0.80448,-1.24518 -0.80448,-1.24518l-0.02903,-0.66897c-0.09662,-2.22631 -0.04583,-4.46309 0.06179,-6.70446c-1.42985,0.15687 -2.8235,0.12377 -3.87501,-1.15243c-0.51805,-0.62875 -0.95611,-1.43949 -1.0161,-2.31285c-0.03297,-0.48011 0.14515,-0.95184 0.3564,-1.41298c-0.00399,-1.67221 1.01199,-3.51076 2.26197,-4.68068c-0.2555,-0.1869 -0.48665,-0.41551 -0.68147,-0.67661c-0.11622,0.19855 -0.25614,0.37688 -0.43027,0.52597c-1.36472,1.1685 -2.91567,0.33705 -3.80663,-1.01275c-0.85281,-0.50865 -1.6141,-1.24607 -1.72026,-1.83788c-0.06992,-0.38979 -0.10175,-0.73121 -0.1005,-1.03261c-0.23663,0.03454 -0.47908,0.08047 -0.70894,0.10179c-0.62505,0.22737 -1.35572,0.0773 -1.99049,-0.05019c-2.14358,-0.43054 -2.74801,-1.91801 -2.35063,-3.68024c-1.02383,1.11879 -2.79646,1.67185 -3.88411,0.90386c-1.08917,-0.76904 -1.42721,-1.81032 -1.28955,-2.8435c-0.2048,0.08745 -0.36361,0.10785 -0.36361,0.10785l-0.10619,-0.0257c-1.11699,0.61103 -3.59835,-0.62221 -4.05233,-1.54775c-0.29067,-0.59259 -0.45456,-1.06711 -0.51695,-1.46583c-0.32225,0.04511 -0.64985,0.06058 -0.97385,0.04715c-0.42494,0.03635 -0.85015,-0.02465 -1.24866,-0.20423c-1.84679,-0.54936 -3.10368,-2.16846 -1.66033,-4.69353c0.28617,-0.50063 0.72221,-0.90997 1.20403,-1.2081c0.39333,-0.46816 0.75592,-1.00127 1.27918,-1.19483c0.14457,-0.05348 0.29997,-0.09898 0.46254,-0.1352c0.39869,-0.36002 0.77476,-0.66425 1.07889,-0.89317c0,0 1.13227,-0.84009 1.81376,0.3623c0.28617,0.50492 0.25253,0.94593 0.11718,1.2877c0.19375,0.24107 0.33616,0.53953 0.40594,0.90315c0.63849,0.5006 1.02102,1.28267 0.87946,2.49925c0.10821,0.07878 0.21523,0.18493 0.3184,0.32479c0.102,0.13826 0.17451,0.27459 0.22335,0.40725c0.02194,0.00486 0.04406,0.00989 0.06635,0.01508c0.41286,0.09606 0.65416,0.4168 0.8108,0.84843l0.2654,-0.185l0.32421,0.61512l0.06347,0.04466l-0.02137,0.03522l0.29782,0.56505l-0.06418,0.04472l0.29378,0.09595c-0.11224,0.31203 -0.18815,0.65311 -0.25857,0.99858c0.07571,0.10367 0.13972,0.23025 0.18494,0.38474c1.29227,-1.79181 3.74805,-2.81113 5.18426,-0.83613c0.01799,0.02472 0.03506,0.05057 0.05123,0.07743c0.2414,-0.61528 0.56585,-1.2113 0.91871,-1.75975c0,0 0.82972,-1.20163 1.85833,-0.36046c1.0286,0.84117 0.19887,2.0428 0.19887,2.0428c-0.05916,0.07568 -0.12385,0.14767 -0.18993,0.21875c0.57936,-0.11264 1.14665,-0.07905 1.58258,0.24479c0.75018,0.5573 0.82353,1.69793 0.53292,2.79104c0.23245,0.02448 0.47644,0.13015 0.68978,0.38915c0.18498,0.11693 0.35801,0.31333 0.49209,0.62835c0.19395,0.4557 0.16932,0.8376 0.05633,1.14096c0.04284,0.09833 0.07125,0.19967 0.0891,0.29947c0.22341,-0.11716 0.45419,-0.23892 0.68651,-0.37501c0,0 0.98104,-0.49489 1.53158,0.34216c0.71926,0.29093 1.1875,1.02156 1.3827,1.88765l0.38877,0.31794c0.68124,-0.8957 2.22228,-1.73788 3.42849,-1.53004c0.0055,-0.29797 0.02316,-0.51496 0.05904,-0.59488c-0.00287,-0.07987 -0.00602,-0.15981 -0.00948,-0.23977l0.01898,-0.0407l0.00069,-0.02622l-0.01847,0.00052l0.05677,-1.47236c0.0215,-0.75684 0.56437,-1.41984 1.25769,-1.50893c0.72902,-0.09367 1.34834,0.48269 1.38325,1.28734c0.00188,0.04303 0.00204,0.08581 0.00055,0.1283l-0.04488,1.72129c0.00008,0.00199 0.00014,0.00402 0.00021,0.00601zM247.11187,257.64044c0.00021,0.02511 0.00041,0.05022 0.0006,0.0753c0.23676,1.772 0.45643,3.56437 0.60443,5.36807c0.76282,-0.53916 1.50532,-1.19576 2.2377,-2.00279c1.20434,-1.32712 2.27357,-2.1269 1.58029,-3.92305c-1.15192,-1.44011 -2.37115,-0.98557 -4.01343,-0.99202c-0.14113,-0.00055 -0.2808,-0.01407 -0.41975,-0.03382c0.00319,0.50397 0.00603,1.00696 0.01015,1.50833zM246.62672,243.44168c-0.01065,-0.05379 -0.01979,-0.10674 -0.02748,-0.15888c-0.0036,0.06245 -0.00735,0.1249 -0.01125,0.18734c0.01219,-0.00921 0.02511,-0.01872 0.03872,-0.02846zM243.33669,251.08786l0.24978,0.09c0.04147,-0.65585 0.08199,-1.31173 0.11931,-1.96747c-0.94396,0.61846 -1.64014,1.38981 -0.36909,1.87748zM263.33244,232.41304c0.05399,-0.03337 0.10704,-0.0686 0.15897,-0.1059c0.27689,-0.19887 1.03466,-0.89699 0.74193,-0.73137c-0.52402,0.29649 -1.07903,0.51739 -1.63605,0.70865l0.80161,-0.11281c0,0 -0.01755,0.09873 -0.06645,0.24141zM231.84757,239.85567c-0.07844,-0.04908 -0.15577,-0.1024 -0.23177,-0.15884c-0.01309,0.0601 -0.01215,0.10139 0.00652,0.11848c0.06092,0.05578 0.13991,0.0564 0.22525,0.04036z" fill="#ffe04b" stroke="#000000" stroke-width="1.5" stroke-linecap="butt"/><g stroke="none" stroke-width="0.5" stroke-linecap="butt"><path d="M191.35193,173.06496c-0.91463,-2.93861 -0.38636,-6.46489 -0.68951,-9.4536c-0.21971,-2.16602 -0.70411,-4.21308 -1.00305,-6.34234c-0.94287,-6.71568 -0.01269,-14.25206 -0.01269,-21.04318c0,-3.49419 0,-6.98837 0,-10.48254c0,-1.11134 -0.36509,-3.6129 0.14219,-4.55961c1.29405,-2.41502 6.15317,-2.47874 8.3802,-2.65144c3.13766,-0.24332 7.35764,-2.27282 10.64399,-0.92145c0.9544,0.39247 1.55861,1.35999 2.40965,1.94366c2.34901,3.64627 2.03512,9.01277 2.03512,13.30508c0,7.26243 0.33663,14.57485 0.33663,21.88101c0,4.4924 -0.33663,8.95027 -0.33663,13.46525c0,0.51512 -0.40626,3.74707 -0.10321,4.12014c0.44472,0.54745 3.68749,-0.77788 4.276,-0.89408c3.6597,-0.72258 8.07125,-0.70088 11.7937,-0.72482c3.11519,0.02338 6.17059,-1.36384 9.30725,-1.67731c4.54744,-0.45445 9.22603,0.43642 13.77346,0.00317c0.58952,-0.05615 3.25859,-0.99389 3.32065,-1.00339c2.80995,-0.43006 6.09412,-0.35214 8.9449,-0.35214c0.31454,0.08484 0.63638,0.36285 0.94361,0.2545c0.76151,-0.26852 -0.13041,-1.61168 -0.12553,-2.41913c0.01511,-2.50142 0.67327,-4.49878 0.67327,-7.11624c0,-3.83658 -1.02637,-7.46924 -1.34068,-11.28005c-0.22243,-2.69671 0.22449,-5.60565 -0.31032,-8.2581c-0.46522,-2.30727 -1.03399,-4.52755 -1.04205,-7.00871c0,-4.3762 0,-8.75241 0,-13.12861c0,-0.72512 -0.05862,-3.68697 0.25452,-4.10586c1.00774,-1.34812 3.86131,-0.66893 5.22427,-0.7947c4.70735,-0.43435 9.61324,-0.67387 14.32282,-0.00108c1.39175,0.00284 1.87261,-0.08653 3.33447,0.39865c4.73524,1.57155 4.18427,6.09783 4.51233,10.15103c0.55369,6.8409 0.33896,13.73886 0.33896,20.60917c0,5.70577 -0.26965,11.55538 -0.67629,17.25337c-0.51245,7.1807 0.33966,14.57251 0.33966,21.79582c0,11.55766 0,23.11534 0,34.673c0,2.88126 0.69144,5.59781 -1.83225,7.69773c-3.10014,2.57959 -7.39616,1.71304 -10.83078,2.88603c-5.93962,2.02851 -12.37673,3.07329 -18.83549,3.07329c-3.22515,-0.01058 -6.46205,0.39393 -9.53504,0.9882c-2.19946,0.42535 -4.61865,-0.23672 -6.84147,0.01584c-6.12602,0.69605 -12.44597,0.34249 -18.63312,0.34249c-6.19324,0 -12.30603,0.33662 -18.5147,0.33662c-2.64529,0 -4.70475,-0.14199 -7.26174,-0.68878c-0.56252,-0.12028 -1.21627,0.14916 -1.72107,-0.12668c-2.70488,-1.47814 -2.64375,-6.22451 -2.65445,-8.80201c0.0206,-3.51507 -0.42975,-7.19547 -1.29496,-10.42397c-0.65133,-2.43041 0.18427,-5.48003 -0.04573,-7.97234c-0.46056,-4.99078 -1.01574,-9.88342 -1.01574,-14.93017c0,-4.62641 0.958,-10.41035 0.02168,-14.92114c-0.21523,-1.03688 -0.59018,-2.059 -0.67285,-3.11058zM194.20577,174.96138c0.06711,0.25243 0.12985,0.50536 0.17904,0.75966c0.9156,4.73455 0.02168,10.54349 0.02168,15.37564c0,4.96834 0.56365,9.77949 1.00404,14.69335c0.19651,2.19261 -0.69469,5.4164 -0.04571,7.5127c1.06139,3.42844 1.37977,7.39893 1.39808,11.12044c-0.0061,1.27021 -0.14448,6.08703 1.38511,6.683c2.1872,0.8522 5.42866,0.53106 7.84874,0.53106c6.20894,0 12.32032,-0.33663 18.51471,-0.33663c6.11289,0 12.3428,0.32777 18.39629,-0.33077c2.13105,-0.23184 4.5354,0.44932 6.62378,0.01583c3.20865,-0.66602 6.62868,-1.02206 9.98954,-1.03157c7.35703,0 14.00537,-1.94373 20.96305,-3.34114c2.14719,-0.43125 7.2825,-0.70211 8.19979,-3.26082c0.3929,-1.09598 -0.06774,-3.4716 -0.06774,-4.65169c0,-11.55766 0,-23.11534 0,-34.673c0,-7.2829 -0.8413,-14.72403 -0.33361,-21.9662c0.39571,-5.64479 0.67024,-11.43185 0.67024,-17.08299c0,-6.82212 0.20166,-13.66647 -0.3343,-20.45982c-0.36531,-4.63043 0.13001,-8.31404 -5.61844,-8.30166c-4.59744,-0.65677 -9.35932,-0.41284 -13.95419,-0.00107c-0.99003,0.08872 -1.99054,0.06638 -2.98197,-0.00491c-0.18568,-0.01336 -0.48426,-0.29209 -0.54617,-0.11652c-0.26645,0.75561 0.25452,3.39115 0.25452,4.30993c0,3.81516 0,7.6303 0,11.44546c-0.00862,2.30782 0.55457,4.32476 0.97776,6.45652c0.55203,2.78082 0.12575,5.75833 0.36292,8.57345c0.39848,4.72988 1.3877,9.12676 1.35238,13.92029c-0.00831,1.12669 -0.44991,2.2084 -0.70541,3.30578c-0.27013,1.16022 0.24005,2.40234 0.02314,3.57367c-0.13884,0.74976 -0.17904,1.69033 -0.78978,2.14688c-0.65038,0.48618 -1.61514,0.16967 -2.4227,0.25451c-2.73427,0 -5.87113,-0.09505 -8.55991,0.32112c-1.17275,0.18151 -2.23161,0.8938 -3.41197,1.0164c-4.56321,0.47397 -9.2675,-0.45345 -13.83029,0.00315c-3.24051,0.3243 -6.30712,1.66949 -9.54407,1.68901c-3.4381,-0.02774 -7.71755,-0.04419 -11.09723,0.6217c-1.35217,0.26641 -5.06772,1.82508 -6.49619,0.45245c-1.25542,-1.20633 -0.77647,-4.42289 -0.77647,-5.97879c0,-4.514 0.33663,-8.97482 0.33663,-13.46525c0,-7.76306 -0.33663,-15.50202 -0.33663,-23.22754c0,-2.85522 0.34707,-7.97075 -1.33119,-10.25908c-0.60634,-0.39041 -0.97539,-1.11992 -1.62992,-1.42265c-0.77797,-0.35983 -1.71267,0.09148 -2.56981,0.09148c-2.97717,0 -5.32835,0.71275 -8.31667,1.0058c-0.65552,0.06429 -4.79663,0.60286 -5.09896,1.38922c-0.2542,0.66119 0.14219,2.65474 0.14219,3.42556c0,3.49419 0,6.98836 0,10.48253c0,6.65613 -0.96843,14.12968 -0.01147,20.70321c0.31501,2.16388 0.79826,4.24322 1.01551,6.44549c0.18854,1.91118 -0.12555,4.48589 0.07832,6.76119c0.18658,0.25619 0.24083,0.52743 0.24083,0.52743l0.35412,1.80041c-0.00101,0.10072 0.00186,0.20107 0.00807,0.30109c0.13075,0.29731 0.28576,0.57661 0.46922,0.8339c0,0 0.48899,0.73348 0.00111,1.36283z" fill="#000000"/><path d="M194.1566,173.59839c-0.18346,-0.2573 -0.33845,-0.53745 -0.46921,-0.83477c-0.00621,-0.10003 -0.00907,-0.20067 -0.00804,-0.30139l-0.35404,-1.80224c0,0 -0.05421,-0.27177 -0.24079,-0.52796c-0.20387,-2.2753 0.1112,-4.85664 -0.07734,-6.76782c-0.21725,-2.20228 -0.69896,-4.28711 -1.01397,-6.45099c-0.95694,-6.57354 0.01893,-14.06076 0.01893,-20.71689c0,-3.49419 0.00387,-6.99277 0.00387,-10.48695c0,-0.77083 -0.39525,-2.76547 -0.14105,-3.42666c0.30231,-0.78636 4.44592,-1.32708 5.10144,-1.39137c2.98833,-0.29305 5.34375,-1.00894 8.32094,-1.00894c0.85715,0 1.79328,-0.45218 2.57124,-0.09237c0.65453,0.30273 1.07265,1.11491 1.67899,1.50532c1.67826,2.28834 1.33437,7.40184 1.33437,10.25706c0,7.72552 0.34939,15.45134 0.34939,23.21441c0,4.49043 -0.32964,8.93385 -0.32964,13.44785c0,1.5559 -0.47811,4.76285 0.77731,5.96918c1.42847,1.37262 5.04788,-0.18536 6.40005,-0.45177c3.37968,-0.66588 7.65919,-0.65218 11.0973,-0.62444c3.23696,-0.01952 6.32514,-1.40208 9.56565,-1.72638c4.56278,-0.4566 9.34072,0.50202 13.90393,0.02803c1.18036,-0.1226 2.23902,-0.83595 3.41175,-1.01746c2.68878,-0.41616 5.82617,-0.31829 8.56044,-0.31829c0.80757,-0.08484 1.67723,0.24586 2.32761,-0.24032c0.61075,-0.45655 0.65156,-1.39374 0.79041,-2.14351c0.21691,-1.17135 -0.29168,-2.40789 -0.02154,-3.56811c0.2555,-1.09737 0.69878,-2.17492 0.70709,-3.30163c0.03532,-4.79353 -0.94417,-9.17646 -1.34265,-13.90634c-0.23717,-2.81512 0.19429,-5.78815 -0.35774,-8.56897c-0.42318,-2.13175 -0.98258,-4.14616 -0.97396,-6.45397c0,-3.81516 0.00425,-7.628 0.00425,-11.44315c0,-0.91876 -0.51951,-3.55366 -0.25306,-4.30927c0.06191,-0.17556 0.39939,0.01526 0.58506,0.02861c0.99143,0.07129 1.99377,0.0945 2.9838,0.00578c4.59487,-0.41178 9.36394,-0.6513 13.96137,0.00547c5.74844,-0.01237 5.25813,3.67553 5.62345,8.30596c0.53596,6.79336 0.34202,13.64754 0.34202,20.46967c0,5.65113 -0.2692,11.45128 -0.66492,17.09609c-0.5077,7.24217 0.33392,14.70466 0.33392,21.98758c0,11.55766 -0.01183,23.13807 -0.01183,34.69574c0,1.18008 0.45902,3.55739 0.06611,4.65336c-0.91728,2.55871 -6.05707,2.83342 -8.20425,3.26467c-6.95769,1.39741 -13.61957,3.34835 -20.97659,3.34835c-3.36085,0.00951 -6.7888,0.36753 -9.99745,1.03356c-2.08838,0.43348 -4.4982,-0.24711 -6.62925,-0.01526c-6.05349,0.65856 -12.2983,0.32911 -18.41119,0.32911c-6.19439,0 -12.31755,0.33163 -18.52649,0.33163c-2.42007,0 -5.6655,0.31851 -7.8527,-0.53369c-1.5296,-0.59597 -1.39407,-5.41508 -1.38797,-6.68528c-0.01831,-3.72151 -0.34146,-7.6967 -1.40285,-11.12513c-0.64898,-2.09629 0.23919,-5.32391 0.04268,-7.51652c-0.44039,-4.91385 -1.00989,-9.73594 -1.00989,-14.70428c0,-4.83217 0.89084,-10.65602 -0.02474,-15.39057c-0.04918,-0.2543 -0.11194,-0.50804 -0.17905,-0.76047c0.48788,-0.62935 -0.00114,-1.36424 -0.00114,-1.36424z" fill="#ffffff"/></g><g><path d="M239.12623,189.21339c0.58966,10.94869 -7.60381,20.38455 -18.30065,21.07555c-10.69684,0.69101 -19.84637,-7.62451 -20.43603,-18.5732c-0.23084,-4.28615 -1.24423,-7.58179 2.29922,-9.09807c5.50804,-2.35694 17.08901,-1.90213 17.08901,-1.90213c0,0 11.01828,-1.93937 16.79461,-0.16262c3.52865,1.08539 2.33025,4.50848 2.55387,8.66047z" fill="#000000" stroke="none" stroke-width="0" stroke-linecap="butt"/><path d="M230.24574,185.29959l-0.23251,-4.31698l25.86777,-1.67104l0.23251,4.31699z" fill="#000000" stroke="none" stroke-width="0" stroke-linecap="butt"/><path d="M288.15179,186.04638c0.58967,10.94869 -7.60381,20.38454 -18.30065,21.07555c-10.69684,0.69101 -19.84636,-7.62451 -20.43603,-18.5732c-0.23084,-4.28615 -1.24423,-7.58179 2.29922,-9.09807c5.50804,-2.35695 17.08901,-1.90212 17.08901,-1.90212c0,0 11.01827,-1.93937 16.79461,-0.16262c3.52864,1.08539 2.33025,4.50848 2.55387,8.66047z" fill="#000000" stroke="none" stroke-width="0" stroke-linecap="butt"/><path d="M204.9426,191.00221l4.238,-4.32132" fill="none" stroke="#ffffff" stroke-width="1.5" stroke-linecap="round"/><path d="M205.381,186.84093l-1.46138,1.60049" fill="none" stroke="#ffffff" stroke-width="1.5" stroke-linecap="round"/><path d="M207.13467,192.92281l5.11482,-4.48138" fill="none" stroke="#ffffff" stroke-width="1.5" stroke-linecap="round"/><path d="M214.87998,190.20197l-4.82256,5.28162" fill="none" stroke="#ffffff" stroke-width="1.5" stroke-linecap="round"/><path d="M214.14928,196.60393l3.21504,-3.52107" fill="none" stroke="#ffffff" stroke-width="1.5" stroke-linecap="round"/><path d="M219.5564,196.1238l-2.04595,2.08065" fill="none" stroke="#ffffff" stroke-width="1.5" stroke-linecap="round"/><path d="M220.87165,199.32479l0.87682,-1.12035" fill="none" stroke="#ffffff" stroke-width="1.5" stroke-linecap="round"/><path d="M227.44784,203.32602l1.60752,-2.24069" fill="none" stroke="#ffffff" stroke-width="1.5" stroke-linecap="round"/><path d="M229.20151,204.92651l2.19206,-3.04093" fill="none" stroke="#ffffff" stroke-width="1.5" stroke-linecap="round"/><path d="M254.48336,183.31985l-2.63048,2.72084" fill="none" stroke="#ffffff" stroke-width="1.5" stroke-linecap="round"/><path d="M257.40612,185.88064l-3.36116,2.72084" fill="none" stroke="#ffffff" stroke-width="1.5" stroke-linecap="round"/><path d="M256.52929,190.52208l1.60753,-1.6005" fill="none" stroke="#ffffff" stroke-width="1.5" stroke-linecap="round"/><path d="M258.13682,192.60271l2.19206,-2.88089" fill="none" stroke="#ffffff" stroke-width="1.5" stroke-linecap="round"/><path d="M263.1055,191.64242l-1.46138,2.08064" fill="none" stroke="#ffffff" stroke-width="1.5" stroke-linecap="round"/><path d="M268.95102,193.8831l-3.21504,3.20099" fill="none" stroke="#ffffff" stroke-width="1.5" stroke-linecap="round"/><path d="M265.29757,193.08286l-2.77663,3.36104" fill="none" stroke="#ffffff" stroke-width="1.5" stroke-linecap="round"/><path d="M276.69633,200.28508l1.16911,-2.08064" fill="none" stroke="#ffffff" stroke-width="1.5" stroke-linecap="round"/><path d="M280.64206,199.00469l-1.8998,2.72084" fill="none" stroke="#ffffff" stroke-width="1.5" stroke-linecap="round"/></g><path d="M259.72129,221.80779l-0.69098,1.52991c-0.70354,0.34689 -1.38038,0.76217 -1.99068,1.25494c-1.29055,1.29234 -2.78567,2.15243 -4.13725,3.31124c-1.03744,0.88947 -2.58833,3.45853 -3.86749,3.92597c-1.63435,0.59723 -2.32269,-0.43964 -3.66513,-0.78575c-3.97246,-1.02421 -7.3654,-2.44724 -10.84367,-4.68278c-1.81877,-1.16895 -3.37495,-1.7365 -4.14727,-3.5235c-0.22426,-0.14613 -0.49827,-0.40434 -0.55373,-0.81295c-0.14464,0.11571 -0.28928,0.23143 -0.43392,0.34714c0,0 -0.97609,0.78087 -1.75695,-0.19522c-0.78087,-0.97609 0.19522,-1.75695 0.19522,-1.75695c0.68646,-0.54917 1.37292,-1.09834 2.05938,-1.6475l1.0456,-0.55382c0,0 1.11803,-0.55902 1.67705,0.55902c0.55902,1.11803 -0.55902,1.67705 -0.55902,1.67705l-0.10993,0.0493c0.15873,0.0974 0.27577,0.2285 0.3613,0.36018c2.37331,0.59429 4.64344,0.33465 7.11835,0.52175c6.15881,0.46562 11.20223,0.48614 17.22906,-1.09484c1.65338,-1.41318 3.56875,-2.3672 5.46741,-3.38595c-0.16383,-0.24563 -0.25134,-0.58867 -0.09663,-1.05282c0.39528,-1.18585 1.58114,-0.79057 1.58114,-0.79057c0.82375,0.27458 1.6475,0.54917 2.47126,0.82375l0.57561,0.27376c0,0 1.11803,0.55902 0.55902,1.67705c-0.55902,1.11803 -1.67705,0.55902 -1.67705,0.55902l-0.24814,-0.13812c-0.08392,-0.02797 -0.16784,-0.05595 -0.25176,-0.08392c-0.01884,0.01073 -0.02957,0.0161 -0.02957,0.0161l-0.35072,0.17321c-1.70941,0.97414 -3.43848,1.81543 -5.06561,2.86464c0.13511,0.29705 0.13511,0.58069 0.13511,0.58069zM235.87452,224.25616c2.48591,1.59843 5.25905,3.28651 8.13891,4.10274c0.65481,0.18559 1.36406,0.10577 2.02309,0.27576c0.733,0.18907 1.44292,1.23565 2.10113,0.86175c1.02269,-0.58095 2.20623,-2.69241 3.1344,-3.4878c1.1486,-0.98428 2.36733,-1.72887 3.49766,-2.71697c-5.19899,1.12291 -10.02156,1.0191 -15.55376,0.58565c-1.50764,-0.11812 -2.93586,-0.09774 -4.35517,-0.17382c0.36134,0.18199 0.71356,0.35969 1.01373,0.5527z" fill="#000000" stroke="none" stroke-width="0.5" stroke-linecap="butt"/><g stroke="none" stroke-width="0.5" stroke-linecap="butt"><path d="M326.0298,175.53319c0.79618,-1.32697 1.22066,-2.73011 3.14368,-2.69667c1.29988,0.0226 1.31353,0.94376 2.44513,1.11065c4.19563,0.61877 9.45458,-2.14489 12.09118,2.38747c0.08201,3.09394 2.01057,5.18894 2.24582,8.12285c0.28027,3.49533 -0.28223,6.83829 0.86633,10.24203c0.90409,2.67928 1.66578,5.21701 0.95845,8.0976c-0.25128,1.51462 -0.97725,2.99604 -1.08836,4.4866c-0.25072,3.36374 0.96908,7.72705 -0.45705,10.84328c-1.48635,3.24779 -5.63289,5.08707 -7.52922,8.16716c-4.16748,3.39953 -10.06931,6.03903 -15.21109,7.4889c-2.91145,0.82097 -6.32904,0.41172 -9.32289,0.41172c-4.94905,-0.01207 -9.95131,3.14559 -15.08202,1.41678c-3.7178,-1.25272 -1.853,-4.03876 -2.47469,-6.7607c-0.3467,-1.51798 -1.83051,-3.12754 -2.80027,-4.29493c-1.17428,-1.96775 -1.86518,-4.06396 -1.65659,-6.3781c0.0813,-0.902 1.05701,-2.31438 0.77031,-3.15155c-0.74338,-2.17064 -3.66746,-4.77985 -2.72494,-7.28777c0.27601,-0.73442 1.47288,-0.6908 1.95632,-1.30873c0.58612,-0.74916 -0.81205,-2.68946 0.50092,-3.83611c0.49836,-0.43523 2.40306,-0.68904 3.17972,-0.8168c0.28674,-0.00082 2.75953,0.22201 2.87534,0.1062c0.5141,-0.51411 -0.36761,-1.56635 0.02064,-2.18107c0.34127,-0.54035 0.99449,-0.86479 1.60779,-1.04451c1.19538,-0.3503 3.65952,0.16672 4.97974,0.16672c0.61442,0 1.23165,-0.05855 1.84328,0c0.22704,0.02173 0.47342,0.39194 0.64157,0.23784c0.18529,-0.1698 -0.18671,-0.52026 -0.08337,-0.74937c0.38732,-0.85879 1.39604,-1.76108 2.30747,-2.03265c0.51098,-0.15225 2.11876,-0.20653 3.44461,-0.1313c-2.07659,-2.63978 -4.86676,-5.04171 -6.288,-8.0411c-0.69982,-1.47688 -1.32328,-3.04872 -2.31108,-4.46679c-1.5077,-2.16445 -3.45067,-3.73714 -4.66206,-6.1659c-1.49883,-2.24824 -4.8701,-8.25453 -2.00388,-10.66056c1.24543,-1.04547 2.70399,-0.80052 4.16222,-0.80052c4.21575,0 9.26245,0.03776 12.73859,2.76021c3.44601,2.0571 7.24881,4.37256 10.74138,7.02061zM334.5456,184.5249c0,0 0.55671,0.83507 -0.27836,1.39178c-0.83506,0.55671 -1.39178,-0.27836 -1.39178,-0.27836c-4.25477,-6.43739 -12.37947,-11.28153 -18.90797,-15.21623c-2.74277,-2.25073 -7.10017,-2.40097 -10.48672,-2.40097c-1.11811,0 -2.97032,-0.38351 -3.94821,0.30545c-0.46069,0.32458 -0.27524,1.82946 -0.21686,2.25485c0.27506,2.00464 1.53538,4.23382 2.63685,5.88603c1.18329,2.36095 3.07431,3.89317 4.55433,5.99973c1.04511,1.48755 1.77167,3.16421 2.48144,4.74959c0.33229,0.74223 1.07566,1.22213 1.56377,1.87257c1.79006,2.38538 4.13398,4.95855 5.64217,7.45838l0.80917,0.64734c0.23377,0.18375 0.38391,0.46909 0.38391,0.78949c0,0.55428 -0.44934,1.00363 -1.00362,1.00363c-0.14829,0 -0.28907,-0.03216 -0.41574,-0.08989l-1.2699,-0.54424l0.03912,-0.09126c-1.46267,-0.16281 -3.01951,-0.30469 -4.16839,-0.04834c-1.27468,0.28442 -0.72093,1.85182 -1.46246,2.37917c-0.53067,0.37739 -1.28911,0.19698 -1.93901,0.23784c-1.38917,0.08736 -2.84409,0.00179 -4.23954,0c-0.45769,-0.00059 -0.91728,0.03824 -1.37307,-0.00342c-0.35857,-0.03278 -1.03014,-0.49475 -1.07148,-0.13707c-0.12544,1.08535 0.88893,1.3745 -0.34801,2.61145c-0.82641,0.82641 -3.06597,0.47842 -4.12912,0.47486c-0.65811,0.11146 -1.41355,-0.06157 -1.98145,0.28916c-0.26655,0.16462 -0.14469,3.39137 -0.23638,3.537c-0.34663,0.55057 -1.53088,0.28391 -1.73023,0.90321c-0.21363,0.66366 0.51441,1.33415 0.72629,1.78687c0.60917,1.30161 1.74582,2.78506 2.0786,4.19695c0.36367,1.54293 -0.59715,2.41511 -0.70432,3.85291c-0.13622,1.82752 0.34792,3.48767 1.29266,5.05022c1.12806,1.34918 2.68858,3.15867 3.09821,4.92145c0.42762,1.84016 -1.05816,4.6613 1.21186,5.40493c4.8148,1.57727 9.7235,-1.5224 14.41043,-1.53246c2.75988,0 6.06197,0.45139 8.74122,-0.3256c4.8133,-1.39585 10.297,-3.79483 14.28136,-6.88866c1.70839,-2.94024 5.86334,-4.67295 7.217,-7.68502c0.80919,-1.80054 0.27684,-4.46483 0.27684,-6.40075c0,-3.06831 0.62967,-5.52778 1.12699,-8.49911c1.00061,-3.92439 -1.31305,-7.45064 -1.8546,-11.26908c-0.32324,-2.27912 0.74579,-5.37266 -0.12793,-7.52278c-0.97579,-2.4013 -2.1767,-3.97794 -2.05728,-6.72609c-1.77742,-2.75405 -7.66421,-0.49869 -10.39681,-0.93043c-0.8537,-0.13488 -1.51265,-0.87716 -2.34738,-1.10129c-0.51035,-0.13703 -1.15081,1.51157 -1.28019,1.72719l-0.31311,0.47128c2.76739,2.25198 5.25848,4.73432 7.1077,7.4877z" fill="#000000"/><path d="M327.42464,177.07509l0.33982,-0.547c0.12937,-0.21562 0.77068,-1.86392 1.28103,-1.72688c0.83473,0.22413 1.49709,0.96789 2.3508,1.10277c2.7326,0.43174 8.62917,-1.81683 10.4066,0.93722c-0.11942,2.74815 1.08682,4.33094 2.06261,6.73223c0.87372,2.15011 -0.19084,5.2519 0.1324,7.53103c0.54156,3.81844 2.85801,7.36156 1.8574,11.28595c-0.49732,2.97134 -1.12961,5.44318 -1.12961,8.51149c0,1.93593 0.52867,4.60748 -0.28051,6.40802c-1.35366,3.01207 -5.51815,4.75512 -7.22654,7.69535c-3.98436,3.09383 -9.48731,5.50066 -14.30061,6.89651c-2.67926,0.77699 -5.99255,0.32542 -8.75243,0.32542c-4.68694,0.01005 -9.60983,3.10466 -14.42463,1.52738c-2.27002,-0.74364 -0.78796,-3.56725 -1.21558,-5.40742c-0.40963,-1.76278 -1.97518,-3.57676 -3.10324,-4.92594c-0.94474,-1.56255 -1.43269,-3.22739 -1.29647,-5.05491c0.10717,-1.43779 1.06586,-2.31338 0.7022,-3.85631c-0.33278,-1.41189 -1.47222,-2.90152 -2.08138,-4.20313c-0.21188,-0.45272 -0.94076,-1.12584 -0.72713,-1.7895c0.19935,-0.6193 1.38344,-0.35325 1.73007,-0.90382c0.09169,-0.14563 -0.03116,-3.37766 0.23539,-3.54228c0.5679,-0.35073 1.40306,-0.18725 2.06117,-0.29871c1.06315,0.00356 3.22298,0.36105 4.0494,-0.46536c1.23694,-1.23694 0.22229,-1.53162 0.34774,-2.61697c0.04134,-0.35769 0.79318,0.10553 1.15175,0.13831c0.45579,0.04166 0.8351,0.00182 1.29279,0.00241c1.39545,0.00179 2.85037,0.08716 4.23954,-0.00019c0.6499,-0.04086 1.40838,0.13845 1.93905,-0.23893c0.74153,-0.52734 0.1898,-2.10565 1.46448,-2.39007c1.14887,-0.25635 2.71007,-0.12354 4.17274,0.03927l-0.03952,0.09191l1.27111,0.54241c0.12667,0.05773 0.26862,0.08831 0.41691,0.08831c0.55428,0 1.01629,-0.46011 1.01629,-1.01439c0,-0.3204 -0.11224,-0.53496 -0.346,-0.71871l-0.80648,-0.6489c-1.50819,-2.49983 -3.85035,-5.07419 -5.6404,-7.45956c-0.48811,-0.65044 -1.27833,-1.19554 -1.61063,-1.93777c-0.70977,-1.58539 -1.39026,-3.1963 -2.43537,-4.68385c-1.48002,-2.10656 -3.41642,-3.70502 -4.59971,-6.06597c-1.10147,-1.65221 -2.3607,-3.88213 -2.63576,-5.88676c-0.05837,-0.42539 -0.24256,-1.93106 0.21813,-2.25564c0.97789,-0.68895 2.83354,-0.30728 3.95165,-0.30728c3.38655,0 7.7545,0.14694 10.49727,2.39768c6.5285,3.93471 14.68658,8.78859 18.94136,15.22598c0,0 0.55837,0.83664 1.39344,0.27993c0.83506,-0.55671 0.2224,-1.33422 0.2224,-1.33422c-1.84922,-2.75338 -4.32609,-5.2271 -7.09348,-7.47908z" fill="#ffffff"/></g><g stroke="none" stroke-width="0.5" stroke-linecap="butt"><path d="M156.09468,181.24098c3.49257,-2.64805 7.29537,-4.96352 10.74137,-7.02062c3.47614,-2.72245 8.52284,-2.76021 12.73859,-2.76021c1.45822,0 2.91679,-0.24496 4.16222,0.80052c2.86622,2.40603 -0.50505,8.41231 -2.00388,10.66056c-1.21138,2.42876 -3.15435,4.00146 -4.66206,6.1659c-0.9878,1.41807 -1.61127,2.98991 -2.31108,4.46679c-1.42125,2.99939 -4.21141,5.40132 -6.28801,8.0411c1.32585,-0.07523 2.93363,-0.02095 3.44461,0.1313c0.91143,0.27157 1.92015,1.17386 2.30747,2.03264c0.10333,0.22911 -0.26867,0.57957 -0.08338,0.74937c0.16816,0.1541 0.41453,-0.21611 0.64157,-0.23784c0.61163,-0.05854 1.22885,0 1.84328,0c1.32021,0 3.78436,-0.51702 4.97974,-0.16671c0.6133,0.17972 1.26652,0.50416 1.60779,1.04451c0.38824,0.61472 -0.49347,1.66697 0.02064,2.18108c0.11581,0.1158 2.58859,-0.10703 2.87534,-0.1062c0.77666,0.12777 2.68136,0.38157 3.17972,0.8168c1.31297,1.14665 -0.08519,3.08695 0.50092,3.8361c0.48345,0.61793 1.68032,0.57431 1.95632,1.30873c0.94253,2.50792 -1.98156,5.11713 -2.72493,7.28777c-0.2867,0.83717 0.689,2.24955 0.77031,3.15155c0.20859,2.31414 -0.4823,4.41035 -1.65659,6.37811c-0.96976,1.16739 -2.45357,2.77695 -2.80027,4.29493c-0.62169,2.72194 1.24311,5.50798 -2.47469,6.7607c-5.13071,1.72881 -10.13296,-1.42885 -15.08202,-1.41678c-2.99385,0 -6.41144,0.40925 -9.32289,-0.41172c-5.14177,-1.44987 -11.0436,-4.08937 -15.21109,-7.4889c-1.89633,-3.08009 -6.04287,-4.91937 -7.52922,-8.16717c-1.42613,-3.11623 -0.20633,-7.47954 -0.45705,-10.84328c-0.11111,-1.49057 -0.83707,-2.97198 -1.08836,-4.4866c-0.70733,-2.88059 0.05436,-5.41832 0.95845,-8.0976c1.14856,-3.40374 0.58606,-6.74671 0.86633,-10.24203c0.23525,-2.9339 2.16381,-5.02891 2.24582,-8.12285c2.6366,-4.53236 7.89555,-1.76869 12.09118,-2.38747c1.1316,-0.16689 1.14526,-1.08804 2.44513,-1.11064c1.92302,-0.03344 2.3475,1.3697 3.14368,2.69667zM154.51156,182.48349l-0.31311,-0.47129c-0.12937,-0.21562 -0.76984,-1.86423 -1.28019,-1.72719c-0.83473,0.22413 -1.49368,0.96641 -2.34738,1.10129c-2.7326,0.43174 -8.61938,-1.82362 -10.39681,0.93043c0.11942,2.74816 -1.08149,4.3248 -2.05728,6.72609c-0.87372,2.15012 0.19531,5.24365 -0.12793,7.52278c-0.54156,3.81844 -2.85522,7.3447 -1.8546,11.26908c0.49732,2.97134 1.12699,5.43081 1.12699,8.49912c0,1.93592 -0.53235,4.60022 0.27684,6.40075c1.35366,3.01207 5.50861,4.74479 7.217,7.68502c3.98436,3.09383 9.46806,5.49281 14.28136,6.88866c2.67926,0.77699 5.98135,0.3256 8.74122,0.3256c4.68694,0.01006 9.59563,3.10973 14.41043,1.53246c2.27003,-0.74363 0.78425,-3.56477 1.21186,-5.40493c0.40963,-1.76278 1.97015,-3.57227 3.09822,-4.92145c0.94474,-1.56255 1.42888,-3.2227 1.29266,-5.05022c-0.10717,-1.43779 -1.06798,-2.30998 -0.70432,-3.85291c0.33278,-1.41189 1.46943,-2.89535 2.0786,-4.19696c0.21188,-0.45272 0.93993,-1.12321 0.72629,-1.78687c-0.19935,-0.6193 -1.3836,-0.35264 -1.73023,-0.90321c-0.09169,-0.14564 0.03016,-3.37238 -0.23638,-3.537c-0.5679,-0.35073 -1.32335,-0.1777 -1.98146,-0.28916c-1.06316,0.00356 -3.30271,0.35155 -4.12912,-0.47486c-1.23694,-1.23694 -0.22257,-1.52609 -0.34801,-2.61145c-0.04134,-0.35769 -0.71291,0.10429 -1.07148,0.13707c-0.45579,0.04166 -0.91538,0.00283 -1.37307,0.00342c-1.39545,0.00179 -2.85037,0.08736 -4.23954,0c-0.6499,-0.04087 -1.40834,0.13955 -1.93901,-0.23784c-0.74153,-0.52734 -0.18778,-2.09475 -1.46246,-2.37917c-1.14887,-0.25635 -2.70571,-0.11448 -4.16838,0.04833l0.03912,0.09126l-1.26991,0.54424c-0.12667,0.05773 -0.26745,0.08989 -0.41574,0.08989c-0.55428,0 -1.00362,-0.44934 -1.00362,-1.00363c0,-0.32041 0.15014,-0.60574 0.38391,-0.78949l0.80917,-0.64734c1.50818,-2.49983 3.85211,-5.07301 5.64217,-7.45838c0.48811,-0.65044 1.23147,-1.13035 1.56377,-1.87258c0.70977,-1.58538 1.43633,-3.26205 2.48144,-4.74959c1.48002,-2.10656 3.37104,-3.63878 4.55433,-5.99973c1.10147,-1.65221 2.36179,-3.88139 2.63685,-5.88603c0.05837,-0.42539 0.24383,-1.93028 -0.21687,-2.25485c-0.97788,-0.68896 -2.8301,-0.30545 -3.94821,-0.30545c-3.38654,0 -7.74395,0.15023 -10.48672,2.40097c-6.52849,3.93471 -14.65319,8.77884 -18.90797,15.21623c0,0 -0.55671,0.83506 -1.39178,0.27836c-0.83506,-0.55671 -0.27836,-1.39178 -0.27836,-1.39178c1.84922,-2.75338 4.34031,-5.23572 7.1077,-7.4877z" fill="#000000"/><path d="M147.43133,190.00046c0,0 -0.61266,0.77751 0.2224,1.33422c0.83506,0.55671 1.39344,-0.27993 1.39344,-0.27993c4.25477,-6.43739 12.41286,-11.29127 18.94136,-15.22598c2.74277,-2.25074 7.11072,-2.39768 10.49727,-2.39768c1.11811,0 2.97377,-0.38167 3.95165,0.30728c0.4607,0.32458 0.2765,1.83025 0.21813,2.25564c-0.27506,2.00464 -1.53429,4.23456 -2.63576,5.88676c-1.18329,2.36095 -3.11969,3.95941 -4.59971,6.06597c-1.04511,1.48755 -1.7256,3.09847 -2.43537,4.68385c-0.3323,0.74223 -1.12252,1.28733 -1.61063,1.93777c-1.79006,2.38537 -4.13222,4.95973 -5.6404,7.45956l-0.80648,0.6489c-0.23377,0.18375 -0.346,0.3983 -0.346,0.71871c0,0.55428 0.462,1.01439 1.01629,1.01439c0.14829,0 0.29024,-0.03058 0.41691,-0.08831l1.27111,-0.5424l-0.03953,-0.09191c1.46267,-0.16281 3.02387,-0.29562 4.17274,-0.03927c1.27468,0.28442 0.72295,1.86273 1.46448,2.39007c0.53067,0.37739 1.28915,0.19807 1.93905,0.23893c1.38917,0.08736 2.84409,0.00198 4.23954,0.00019c0.45769,-0.00059 0.837,0.03926 1.29279,-0.00241c0.35857,-0.03278 1.11041,-0.496 1.15175,-0.13831c0.12544,1.08535 -0.88921,1.38003 0.34773,2.61697c0.82641,0.82641 2.98624,0.46891 4.0494,0.46536c0.65811,0.11146 1.49327,-0.05202 2.06118,0.29871c0.26654,0.16462 0.14369,3.39665 0.23538,3.54228c0.34663,0.55056 1.53072,0.28451 1.73007,0.90381c0.21363,0.66366 -0.51525,1.33679 -0.72713,1.78951c-0.60917,1.3016 -1.7486,2.79124 -2.08138,4.20313c-0.36366,1.54294 0.59503,2.41852 0.7022,3.85631c0.13622,1.82752 -0.35173,3.49236 -1.29647,5.05491c-1.12807,1.34918 -2.69361,3.16316 -3.10324,4.92594c-0.42762,1.84016 1.05445,4.66378 -1.21558,5.40741c-4.8148,1.57727 -9.73769,-1.51732 -14.42463,-1.52738c-2.75987,0 -6.07317,0.45157 -8.75243,-0.32542c-4.8133,-1.39585 -10.31626,-3.80268 -14.30061,-6.89652c-1.70839,-2.94023 -5.87288,-4.68329 -7.22654,-7.69536c-0.80919,-1.80054 -0.28051,-4.47209 -0.28051,-6.40802c0,-3.0683 -0.63228,-5.54015 -1.12961,-8.51149c-1.00061,-3.92438 1.31584,-7.4675 1.8574,-11.28595c0.32324,-2.27912 -0.74132,-5.38091 0.1324,-7.53102c0.97579,-2.40129 2.18203,-3.98408 2.06261,-6.73223c1.77742,-2.75405 7.674,-0.50548 10.4066,-0.93722c0.8537,-0.13488 1.51607,-0.87863 2.3508,-1.10277c0.51035,-0.13704 1.15166,1.51126 1.28103,1.72688l0.33982,0.547c-2.76739,2.25198 -5.24426,4.7257 -7.09348,7.47908z" fill="#ffffff"/></g></g></g></svg>