<svg version="1.1" xmlns="http://www.w3.org/2000/svg" xmlns:xlink="http://www.w3.org/1999/xlink" width="251.54282" height="321.74566" viewBox="0,0,251.54282,321.74566"><g transform="translate(-223.40521,-34.0353)"><g data-paper-data="{&quot;isPaintingLayer&quot;:true}" fill-rule="nonzero" stroke-linejoin="miter" stroke-miterlimit="10" stroke-dasharray="" stroke-dashoffset="0" style="mix-blend-mode: normal"><path d="M306.10589,248.02195c-7.86755,3.35284 -19.76464,0.45531 -27.69132,-2.14187c-23.97653,-7.85593 -52.39581,-27.8131 -54.00936,-55.87953c-1.09132,-18.98262 13.68636,-31.79534 28.47363,-40.52717c5.61004,-3.31271 17.49264,-8.91178 21.20397,-0.60828c0.98764,2.2097 1.1296,4.6054 0.03098,6.83597c-2.37341,4.81883 -9.87507,6.00881 -13.97967,9.11666c-12.40261,9.39077 -18.11319,23.81624 -10.42554,38.07195c8.13971,15.09398 26.79927,20.54096 42.81103,18.67597c8.27699,-0.96408 16.50645,-4.7716 25.0248,-2.38904c25.25517,7.06378 5.09239,26.62547 -10.22091,29.16361z" fill="#feed00" stroke="#000000" stroke-width="2" stroke-linecap="round"/><path d="M298.86058,243.2394c5.74127,0.00212 13.52649,-1.00637 19.31105,-1.76545c6.30716,-0.82766 14.80823,0.2861 21.2525,0.41061c3.78548,0.07314 12.39519,-0.63064 15.35941,0.96735c1.91876,1.0344 1.74783,3.62921 2.19197,4.97432c1.65039,4.99841 0.58998,10.41421 2.24143,15.51025c1.95082,6.01987 -0.12222,12.10381 0.62605,18.25299c1.39879,11.49515 2.11043,23.15819 -2.64925,34.67237c-2.08137,5.03509 6.0414,11.30793 -2.87661,14.23824c-3.15796,1.03764 -11.07553,7.87614 -14.56085,7.8088c-5.05616,-0.09769 -11.1061,-5.16867 -17.27758,-6.38073c-7.85804,-1.5433 -18.34493,2.61495 -24.20041,0.96403c-2.93098,-0.82638 -6.73882,-4.14786 -8.23394,-6.10572c-1.87418,-2.45426 1.76198,-13.37671 2.02268,-16.62435c1.28203,-15.97072 0.61929,-24.80192 1.89982,-40.78671c0.42078,-5.25251 0.22377,-22.54422 3.47448,-26.16257z" fill="#3c2c1f" stroke="#000000" stroke-width="2" stroke-linecap="round"/><g stroke-width="2"><path d="M358.44439,219.33475c2.93744,-3.33303 6.61088,-9.61916 10.399,-10.4507c7.18163,-1.57648 19.90963,10.48313 18.22756,23.8291c-0.27553,2.18612 -1.20474,6.96445 -3.20911,6.08917c-0.43777,-0.19118 -1.92099,-2.58458 -2.32437,-2.07182c-0.13248,0.1684 0.25989,4.57486 0.18031,5.24836c-0.42444,3.59174 -1.75151,7.37342 -4.09804,8.42461c-2.30123,1.03091 -3.90239,-5.61323 -4.90548,-5.31648c-1.50635,0.44563 -3.11047,8.91769 -8.24795,4.43861c-2.77983,-2.42358 -4.15295,-13.08466 -4.41054,-13.29863c-1.3376,-1.11118 -5.53129,3.17183 -8.60824,-3.80421c-2.82993,-6.41606 3.40024,-13.83521 6.80494,-13.38258z" fill="#feed00" stroke="#000000" stroke-linecap="round"/><path d="M377.90188,227.21632c-0.50917,1.93248 -1.55007,3.20485 -2.81488,3.74574c-1.39999,0.59873 -2.59192,-2.45852 -4.12328,-3.74865c-1.59817,-1.34641 -3.19119,-0.73472 -3.69163,-3.07175c-0.41228,-1.9254 -0.41042,-3.97902 0.07417,-5.81817c1.07279,-4.0715 4.30541,-5.38139 7.22027,-2.92569c2.91486,2.45569 4.40813,7.74702 3.33535,11.81851z" fill="#ffa600" stroke="none" stroke-linecap="butt"/><path d="M358.28282,231.1277c-0.3847,2.3277 -2.06337,3.34729 -3.74945,2.27734c-1.68606,-1.06997 -2.74102,-3.82432 -2.35632,-6.15201c0.3847,-2.3277 2.06337,-3.34729 3.74944,-2.27734c1.68606,1.06997 2.74104,3.82432 2.35633,6.15201z" fill="#ffa600" stroke="none" stroke-linecap="butt"/><path d="M369.75222,245.91889c-0.37957,2.29666 -2.03702,3.30194 -3.702,2.24534c-1.66499,-1.05658 -2.70703,-3.77495 -2.32746,-6.0716c0.37957,-2.29666 2.03702,-3.30194 3.702,-2.24535c1.66499,1.05658 2.70703,3.77495 2.32746,6.0716z" fill="#ffa600" stroke="none" stroke-linecap="butt"/><path d="M379.57674,244.64066c-0.37444,2.26563 -1.78853,3.39754 -3.15846,2.52819c-1.36992,-0.86934 -2.17692,-3.41075 -1.80248,-5.67637c0.37444,-2.26563 1.78853,-3.39754 3.15846,-2.52819c1.36992,0.86934 2.17692,3.41073 1.80248,5.67637z" fill="#ffa600" stroke="none" stroke-linecap="butt"/><path d="M386.11288,232.64522c-0.35391,2.14148 -1.39259,3.40043 -2.31992,2.81196c-0.92734,-0.58849 -1.39217,-2.80154 -1.03825,-4.94303c0.35391,-2.14148 1.39259,-3.40043 2.31992,-2.81196c0.92734,0.58849 1.39217,2.80154 1.03825,4.94303z" fill="#ffa600" stroke="none" stroke-linecap="butt"/></g><g stroke-width="2"><path d="M293.75117,222.74977c3.41964,-0.32078 9.35858,7.33348 6.28293,13.63543c-3.3441,6.85199 -7.36922,2.41019 -8.74875,3.46887c-0.26566,0.20386 -2.04955,10.80394 -4.92092,13.11834c-5.30664,4.27731 -6.58234,-4.2504 -8.07035,-4.75389c-0.99088,-0.33527 -2.84746,6.24206 -5.10717,5.12302c-2.30417,-1.14104 -3.48417,-4.97116 -3.76956,-8.57662c-0.05351,-0.67607 0.50876,-5.06409 0.38289,-5.23748c-0.38326,-0.52796 -1.95782,1.80636 -2.40267,1.98049c-2.03669,0.79722 -2.78064,-4.01345 -2.97151,-6.20858c-1.16531,-13.40098 12.01901,-24.95994 19.13439,-23.10723c3.75318,0.97726 7.18105,7.40059 9.98758,10.84458z" fill="#feed00" stroke="#000000" stroke-linecap="round"/><path d="M277.58999,218.47996c3.00754,-2.34127 6.18716,-0.90751 7.10189,3.20238c0.4132,1.85651 0.33573,3.90865 -0.15062,5.8167c-0.59033,2.31596 -2.15854,1.64318 -3.80753,2.92687c-1.58005,1.23002 -2.88918,4.23893 -4.265,3.58658c-1.24298,-0.58936 -2.23395,-1.90096 -2.6681,-3.85168c-0.91472,-4.10991 0.78183,-9.33958 3.78936,-11.68086z" fill="#ffa600" stroke="none" stroke-linecap="butt"/><path d="M295.84615,228.77069c1.72613,-1.00404 3.36417,0.07964 3.65868,2.42047c0.2945,2.34083 -0.86607,5.05236 -2.59219,6.05641c-1.72613,1.00404 -3.36419,-0.07962 -3.65869,-2.42045c-0.2945,-2.34083 0.86607,-5.05236 2.5922,-6.05641z" fill="#ffa600" stroke="none" stroke-linecap="butt"/><path d="M283.78202,243.18707c1.70456,-0.99148 3.32194,0.07706 3.61251,2.38667c0.29057,2.3096 -0.85569,4.98568 -2.56025,5.97716c-1.70456,0.99148 -3.32194,-0.07706 -3.61251,-2.38667c-0.29057,-2.3096 0.85569,-4.98568 2.56025,-5.97716z" fill="#ffa600" stroke="none" stroke-linecap="butt"/><path d="M273.47436,241.90496c1.40248,-0.81578 2.77179,0.36991 3.05845,2.6483c0.28665,2.2784 -0.61793,4.78673 -2.02041,5.60251c-1.40248,0.81578 -2.77179,-0.36991 -3.05845,-2.6483c-0.28665,-2.2784 0.61793,-4.78673 2.02041,-5.60251z" fill="#ffa600" stroke="none" stroke-linecap="butt"/><path d="M266.61446,230.36928c0.94937,-0.55223 1.93864,0.74591 2.20957,2.89947c0.27095,2.15356 -0.27903,4.34702 -1.22841,4.89924c-0.94937,0.55223 -1.93864,-0.74591 -2.20957,-2.89947c-0.27095,-2.15356 0.27903,-4.347 1.22841,-4.89924z" fill="#ffa600" stroke="none" stroke-linecap="butt"/></g><path d="M295.75976,203.80206c-1.78082,6.31526 -2.35762,17.87445 -6.47029,22.97611c-3.27999,4.06872 -22.13596,-2.55904 -24.62088,-6.44603c-0.86432,-1.352 4.14579,-18.16606 4.88717,-20.59034c5.68775,-18.59871 12.60857,-36.24197 19.61813,-54.44213c1.92437,-4.9966 6.32989,-8.34659 8.31267,-13.03858l1.17429,0.06738c12.98401,2.86833 24.60413,8.95767 38.48267,7.66559c5.5544,-0.5171 9.6632,-2.38006 13.77017,-6.15035c0.93901,-0.86202 3.64795,-2.92469 5.07868,-1.93784c3.22016,2.22111 5.0157,10.53559 6.67618,14.02342c6.84795,14.38402 11.37865,30.09719 14.37189,45.75599c0.8763,4.58425 5.62825,11.69312 4.41177,16.24961c-1.42467,5.33632 -10.54032,11.72424 -14.72985,15.07134c-1.16592,0.93147 -4.24049,4.74725 -5.63566,2.80296c-1.94368,-2.70871 -3.33374,-22.97332 -3.33374,-22.97332c0,0 0.42971,16.03032 1.17652,23.98437c0.36628,3.90113 2.17165,10.34814 0.23531,14.07334c-1.47489,2.83744 -10.46387,3.53501 -13.35673,3.79644c-11.70182,1.05746 -23.70459,-1.42952 -35.39792,-0.33409c-3.80072,0.35604 -13.45065,2.99731 -16.79106,1.1111c-1.78033,-1.00531 -0.73577,-6.47951 -0.70202,-8.22629c0.14858,-7.69014 -0.87069,-16.54422 0.78235,-24.05215" fill="#fffe8a" stroke="#000000" stroke-width="2" stroke-linecap="round"/><path d="M304.84469,124.10514c14.10273,-2.199 27.80846,-4.4815 42.15909,-3.07475c3.06042,0.30001 13.73975,1.64667 12.83532,6.35324c-1.22921,6.3967 -7.58266,9.60814 -13.43557,10.89465c-10.55139,2.31927 -35.36398,2.66265 -44.70884,-3.02485c-6.65072,-4.04777 -4.7484,-11.51894 3.29837,-11.36348z" fill="#fffe8a" stroke="#000000" stroke-width="2" stroke-linecap="round"/><g stroke-width="2" stroke-linecap="round"><path d="M311.11885,52.78784c-12.50976,4.82107 -14.02042,17.83982 -17.71694,29.00287c-0.40623,1.22679 -3.7095,12.04326 -4.99673,11.84611c-0.53444,-0.08185 -0.36126,-1.02047 -0.50017,-1.54298c-1.10575,-4.15909 -2.59806,-8.22721 -3.73358,-12.39374c-2.83389,-10.39809 -4.64865,-21.10166 -6.36089,-31.75321c-0.49171,-3.05871 -2.19727,-10.05213 -0.90008,-12.91159c0.83125,-1.83235 1.39616,-1.02328 2.64234,-0.4571c6.40344,2.90928 12.65679,6.10027 18.91746,9.29801c4.59761,2.3483 10.2347,4.55005 13.6669,8.5272z" fill="#feed00" stroke="#000000"/><path d="M304.74108,55.43191c-7.98182,3.91644 -8.21826,12.60486 -10.00721,20.19527c-0.1966,0.83418 -1.74603,8.17261 -2.60788,8.11769c-0.35784,-0.02281 -0.29832,-0.65297 -0.42065,-0.99002c-0.97372,-2.68276 -2.19746,-5.28284 -3.19129,-7.96879c-2.48023,-6.7031 -4.3051,-13.66764 -6.05921,-20.60376c-0.50372,-1.99178 -2.03946,-6.51181 -1.3498,-8.47661c0.44193,-1.25907 0.86244,-0.75763 1.71877,-0.4565c4.40021,1.5473 8.71774,3.28946 13.04051,5.03566c3.17448,1.28235 7.02706,2.40706 9.52697,4.83358z" fill="#ffa700" stroke="none"/></g><g stroke-width="2" stroke-linecap="round"><path d="M345.917,54.24005c3.36039,-4.03804 8.9571,-6.34046 13.51188,-8.77079c6.20236,-3.30944 12.39751,-6.61199 18.74777,-9.63556c1.23583,-0.58843 1.78615,-1.4075 2.65012,0.40968c1.34824,2.83574 -0.23173,9.85862 -0.66853,12.92565c-1.52109,10.68051 -3.14372,21.41488 -5.79079,31.8621c-1.06069,4.18621 -2.47984,8.28045 -3.51086,12.45868c-0.12952,0.52493 0.06044,1.46027 -0.47244,1.55168c-1.28349,0.22018 -4.78007,-10.53535 -5.20824,-11.75466c-3.89599,-11.09501 -5.63975,-24.08461 -18.23389,-28.68068z" fill="#feed00" stroke="#000000"/><path d="M352.71044,56.83369c2.45602,-2.47093 6.28782,-3.66451 9.43881,-5.00356c4.29077,-1.8234 8.57641,-3.64267 12.94817,-5.26856c0.8508,-0.31643 1.26225,-0.82529 1.72668,0.42564c0.72477,1.95211 -0.72973,6.49894 -1.19767,8.49943c-1.62953,6.96646 -3.32929,13.96257 -5.68899,20.70904c-0.94554,2.70334 -2.12248,5.32491 -3.04796,8.0247c-0.11627,0.33918 -0.04549,0.96818 -0.40285,0.99741c-0.86075,0.07039 -2.54143,-7.23914 -2.75295,-8.06964c-1.92469,-7.55713 -2.31681,-16.23989 -10.36754,-20.01266z" fill="#ffa700" stroke="none"/></g><path d="M327.30644,50.8254c10.43645,0.20164 22.95299,-0.56073 30.31581,7.81661c6.36905,7.24663 5.8954,13.63797 7.73459,22.15285c0.56487,2.61516 2.4237,4.57673 2.68357,7.47583c1.57555,17.57748 -7.53663,38.99368 -28.85108,40.85674c-17.8518,1.5604 -38.84496,-2.49984 -48.64273,-18.1467c-6.11796,-9.77027 -1.43766,-22.77482 1.88206,-32.15914c1.28629,-3.63615 0.24261,-7.93548 1.7382,-11.75649c5.85491,-14.95844 19.03219,-16.23833 33.48775,-15.95904z" fill="#feed00" stroke="#000000" stroke-width="2" stroke-linecap="round"/><path d="M364.43442,92.68442c4.27982,0.47259 15.4108,5.10877 10.89802,11.04398c-1.17417,1.54427 -7.25699,2.23521 -7.64864,3.42962c-0.29372,0.89572 1.0403,1.59588 1.34349,2.48843c0.81131,2.38831 1.29864,5.92187 0.8931,8.42367c-1.1157,6.88295 -11.11792,3.13054 -14.04426,0.13841" fill="#feed00" stroke="#000000" stroke-width="2" stroke-linecap="round"/><path d="M297.43833,119.89239c-3.03973,2.87686 -13.17943,6.2401 -14.02844,-0.68079c-0.3086,-2.5156 0.31488,-6.0277 1.21783,-8.38287c0.33746,-0.88019 1.69751,-1.52828 1.43861,-2.43468c-0.34522,-1.20865 -6.39681,-2.13403 -7.51045,-3.72251c-4.28015,-6.1051 7.0216,-10.30786 11.31648,-10.61477" fill="#feed00" stroke="#000000" stroke-width="2" stroke-linecap="round"/><path d="M252.98646,72.42793c14.31135,0.49134 24.7767,11.25026 36.24417,18.10027" fill="none" stroke="#000000" stroke-width="2" stroke-linecap="round"/><path d="M257.52427,86.74605c10.79266,-1.09525 21.7012,2.51255 32.03407,5.01914" fill="none" stroke="#000000" stroke-width="2" stroke-linecap="round"/><path d="M261.91398,94.74445c8.71901,-1.45767 17.90909,-2.81573 26.75886,-2.64475" fill="none" stroke="#000000" stroke-width="2" stroke-linecap="round"/><path d="M367.46277,90.63324c8.54132,-8.21753 18.13603,-18.26839 30.7745,-18.04077" fill="none" stroke="#000000" stroke-width="2" stroke-linecap="round"/><path d="M364.80967,91.46102c11.11152,-7.617 21.38193,-7.03374 33.54261,-3.07309" fill="none" stroke="#000000" stroke-width="2" stroke-linecap="round"/><path d="M368.29733,92.93484c8.66643,-3.27383 19.43124,0.38931 27.05129,4.85898" fill="none" stroke="#000000" stroke-width="2" stroke-linecap="round"/><path d="M322.96065,100.69155c3.71932,0.07187 7.64001,-0.09364 11.32354,0.43814c0.46751,0.0675 1.27554,-0.118 1.37474,0.34384c0.12994,0.60497 -6.60792,4.24994 -7.37397,4.17806c-1.72264,-0.16163 -4.25736,-3.58875 -4.90635,-4.95195z" fill="#000000" stroke="#000000" stroke-width="2" stroke-linecap="round"/><path d="M324.28499,82.05411c-0.13673,7.07681 -5.89754,12.70455 -12.86713,12.56989c-6.96959,-0.13466 -12.50871,-5.98072 -12.37198,-13.05752c0.13673,-7.07681 5.89753,-12.70454 12.86711,-12.56988c6.96959,0.13466 12.50873,5.98071 12.372,13.05751z" fill="#ffffff" stroke="#000000" stroke-width="2" stroke-linecap="butt"/><path d="M359.35481,82.3091c-0.13673,7.07681 -5.89753,12.70454 -12.86711,12.56988c-6.96959,-0.13466 -12.50871,-5.98071 -12.37198,-13.05751c0.13673,-7.07681 5.89753,-12.70454 12.86711,-12.56988c6.96959,0.13466 12.50871,5.98071 12.37198,13.05751z" fill="#ffffff" stroke="#000000" stroke-width="2" stroke-linecap="butt"/><path d="M323.72566,82.04331c-0.09766,5.05487 -4.11701,9.07652 -8.97745,8.98261c-4.86044,-0.09391 -8.72145,-4.26781 -8.62378,-9.32267c0.09766,-5.05487 4.11701,-9.07652 8.97745,-8.98261c4.86044,0.09391 8.72145,4.26781 8.62378,9.32267z" fill="#ffffff" stroke="#000000" stroke-width="2" stroke-linecap="butt"/><path d="M358.59455,82.29441c-0.09766,5.05487 -4.11701,9.07652 -8.97745,8.98261c-4.86044,-0.09391 -8.72145,-4.26781 -8.62378,-9.32267c0.09766,-5.05487 4.11701,-9.07652 8.97745,-8.98261c4.86044,0.09391 8.72145,4.26781 8.62378,9.32267z" fill="#ffffff" stroke="#000000" stroke-width="2" stroke-linecap="butt"/><path d="M309.46167,56.53817c0.67205,-3.68431 4.40875,-4.7746 8.06189,-5.97152c0.4046,-0.13256 3.82946,-1.20481 3.75482,-1.70279c-0.13579,-0.90591 -5.42542,-0.35574 -4.69722,-2.31511c0.97806,-2.63164 11.52641,-1.8074 13.79598,-1.76377c0.32688,0.00629 4.19341,0.22238 4.25058,0.07759c0.24502,-0.62039 -6.2072,-2.81277 -5.74747,-3.6333c0.25127,-0.44849 4.95776,1.20833 5.42722,1.39734c6.15033,2.47614 7.50906,6.30668 11.04845,10.83657" fill="#feed00" stroke="#000000" stroke-width="2" stroke-linecap="round"/><path d="M295.5846,73.03473c-2.3485,-1.20788 -2.32256,-3.27554 -4.09739,-4.99854c-0.90616,-0.8797 -5.80261,-1.57868 -5.67973,-3.191c0.16164,-2.12068 6.12852,-2.82605 7.45328,-3.31422c0.93263,-0.34368 -0.28846,-8.62549 7.88698,-3.0406" fill="#feed00" stroke="#000000" stroke-width="2" stroke-linecap="round"/><path d="M311.4283,175.07591c1.22993,0.53786 4.6718,0.34826 5.12331,1.89514c1.51433,5.18803 -2.57859,9.73551 -7.40543,8.61099c-3.21416,-0.7488 2.68236,-11.20571 2.68236,-11.20571c0,0 0.7809,-23.73613 3.51532,-35.18782" fill="#ffaf36" stroke="#000000" stroke-width="2" stroke-linecap="round"/><path d="M338.1499,176.1968c9.794,-10.51553 7.99617,18.1333 -1.58666,9.88462c-5.18841,-4.46606 1.4286,-8.36795 1.982,-10.87592c2.61214,-11.83817 -2.13544,-24.6655 1.69211,-36.64518" fill="#ffaf36" stroke="#000000" stroke-width="2" stroke-linecap="round"/><path d="M298.81093,206.47655c3.59575,-2.76439 7.99682,-2.15488 12.21623,-2.73814c13.60904,-1.88124 28.74318,-0.69119 42.2293,1.76397" fill="none" stroke="#000000" stroke-width="2" stroke-linecap="round"/><path d="M354.80455,236.39627c0.06666,-8.89908 -1.38698,-17.9475 0.2704,-26.83004" fill="none" stroke="#000000" stroke-width="2" stroke-linecap="round"/><path d="M299.22921,210.7402c-0.1645,8.51412 0.12558,16.97331 -0.24018,25.46543" fill="none" stroke="#000000" stroke-width="2" stroke-linecap="round"/><path d="M308.26816,133.99282c-2.60293,-0.96857 -4.33195,-3.57633 -6.70732,-5.06469" fill="none" stroke="#fcec41" stroke-width="2" stroke-linecap="round"/><path d="M351.12484,132.4879c1.65017,-1.05294 3.19005,-1.88134 5.02415,-2.57421" fill="none" stroke="#fcec41" stroke-width="2" stroke-linecap="round"/><path d="M322.65544,144.3805l-0.18514,9.58262" fill="none" stroke="#fcec41" stroke-width="2" stroke-linecap="round"/><path d="M326.00322,152.62854l0.09483,-4.90818" fill="none" stroke="#fcec41" stroke-width="2" stroke-linecap="round"/><path d="M329.60842,147.55437l0.62891,3.75311" fill="none" stroke="#fcec41" stroke-width="2" stroke-linecap="round"/><path d="M280.96982,225.00558l13.73254,-37.03349l-7.96749,36.64422z" fill="#fce541" stroke="#fcec41" stroke-width="2" stroke-linecap="round"/><path d="M280.96982,225.00558l13.73254,-37.03349l-7.96749,36.64422z" fill="#fce541" stroke="#fcec41" stroke-width="2" stroke-linecap="round"/><path d="M364.13484,222.09443l-6.67687,-30.15628l12.5263,25.39994z" fill="#fce541" stroke="#fcec41" stroke-width="2" stroke-linecap="round"/><path d="M323.47628,331.04326l2.18016,-76.72238" fill="none" stroke="#000000" stroke-width="2" stroke-linecap="round"/><path d="M325.72588,339.46102c-0.16748,8.66864 -9.12646,15.52551 -20.01042,15.31523c-10.88397,-0.21028 -19.57139,-7.40807 -19.40391,-16.07673c0.16748,-8.66864 9.12646,-15.52551 20.01042,-15.31523c10.88397,0.21028 19.57139,7.40807 19.40391,16.07673z" fill="#000000" stroke="#000000" stroke-width="2" stroke-linecap="butt"/><path d="M364.13047,334.93422c-0.16748,8.66865 -9.12646,15.52551 -20.01043,15.31523c-10.88396,-0.21028 -19.57139,-7.40807 -19.40391,-16.07673c0.16748,-8.66865 9.12646,-15.52551 20.01042,-15.31523c10.88397,0.21028 19.5714,7.40807 19.40392,16.07673z" fill="#000000" stroke="#000000" stroke-width="2" stroke-linecap="butt"/><path d="M319.12799,122.65169l0.17571,-9.09457l18.46024,0.35666l-0.17571,9.09457z" fill="none" stroke="#000000" stroke-width="2" stroke-linecap="butt"/><path d="M417.03315,123.19684c0,2.75 -2.75,2.75 -2.75,2.75h-0.55885c-3.37682,-0.00734 -6.76159,0.32907 -10.09109,0.8924c-1.51319,0.25602 -3.21715,-0.07032 -4.55277,0.68561c-0.75567,0.42769 -1.28182,1.12908 -1.77325,1.87187c0.08708,0.32284 0.10147,0.55299 0.10147,0.55299c0.1653,2.64912 0.33867,5.29495 0.50631,7.94094c0.6769,-0.04164 1.35388,-0.08323 2.0309,-0.12552l3.43379,-0.28629c0,0 2.7405,-0.22837 2.96888,2.51212c0.22838,2.7405 -2.51213,2.96888 -2.51213,2.96888l-3.49061,0.29073c-0.69871,0.0437 -1.39737,0.08658 -2.09597,0.12948c0.09607,1.66193 0.1861,3.32487 0.26668,4.98966l0.60682,4.77594c0,0 0.34546,2.72822 -2.38276,3.07368c-2.72821,0.34546 -3.07367,-2.38276 -3.07367,-2.38276l-0.62942,-4.98705c-0.0839,-1.70712 -0.17703,-3.41233 -0.27603,-5.11651c-1.59181,0.11139 -3.18287,0.23441 -4.77287,0.3791c0,0 -2.73871,0.24897 -2.98768,-2.48973c-0.24897,-2.73871 2.48973,-2.98768 2.48973,-2.98768c1.64422,-0.14934 3.28951,-0.27615 4.93558,-0.39102c-0.15233,-2.40729 -0.30921,-4.81447 -0.46117,-7.2241c-1.56736,-1.73916 0.05988,-3.58335 0.05988,-3.58335c1.44881,-1.56597 2.4898,-3.64709 4.34643,-4.69791c1.85663,-1.05082 4.17171,-0.89663 6.26506,-1.308c3.64085,-0.71547 7.37743,-0.97612 11.0879,-0.98349h0.55885c0,0 2.75,0 2.75,2.75z" fill="#ffa600" stroke="#000000" stroke-width="1" stroke-linecap="butt"/><path d="M437.51605,154.56942c1.22984,2.45967 -1.22984,3.68951 -1.22984,3.68951l-1.76554,0.79694c-1.37943,0.30876 -2.72678,0.85022 -4.1383,0.92627c-6.49675,0.35004 -18.83505,-3.82875 -16.74661,-12.93185c0.24796,-1.08081 0.57653,-1.95613 0.97165,-2.6636c-1.37512,-1.81226 0.32785,-3.51524 0.32785,-3.51524c3.53167,-3.53167 5.61717,-6.95395 10.85423,-7.42233c2.58752,-0.23142 9.91182,-1.69588 9.96925,4.07048c0.0273,2.74116 -1.24197,5.69294 -3.25713,7.5514c-3.89523,3.59235 -7.45152,0.70436 -11.52856,1.67863c-0.83969,0.20066 -1.83474,0.79492 -2.00326,1.64164c-0.62277,3.12891 3.56922,3.98518 5.13418,4.80192c3.29628,1.72029 5.60408,1.35927 9.17998,0.50353l0.54259,-0.35713c0,0 2.45967,-1.22984 3.68951,1.22984zM421.75031,141.55168c2.52919,0.12617 5.18264,0.45218 7.30758,-0.76914c0.80344,-0.46178 0.84595,-1.64914 1.25688,-2.47974c0.58046,-1.17325 -2.58125,0.44152 -3.87957,0.60828c-2.06582,0.26534 -3.40857,1.30266 -4.6849,2.6406z" fill="#ffa600" stroke="#000000" stroke-width="1" stroke-linecap="butt"/><path d="M457.13701,152.04854c0,2.75 -2.75,2.75 -2.75,2.75l-2.01573,-0.06039c-2.25329,-0.48095 -8.04037,-1.63762 -9.10965,-2.4757c-4.67305,-3.66264 -4.54466,-7.60857 0.00102,-11.09507c-1.11686,-2.01036 0.83755,-3.45046 0.83755,-3.45046c1.64993,-1.18834 3.04431,-2.85542 4.9498,-3.56503c4.03853,-1.50396 12.13628,-3.19236 11.51893,5.32034c-0.3737,5.15298 -7.95531,5.24441 -10.84656,5.71228c-1.11953,0.18116 -2.28438,0.16619 -3.36269,0.51747c-1.50526,0.49036 -1.33523,1.52637 0.11058,2.09341c1.38466,0.54306 2.8988,0.66777 4.35083,0.98992c0.89712,0.19904 1.79765,0.38241 2.69647,0.57362l0.86944,-0.06039c0,0 2.75,0 2.75,2.75zM450.72278,139.5156c1.22934,-0.15082 2.28125,-0.27053 2.83817,-0.36768c0.53958,-0.09412 1.19762,-0.0866 1.56855,-0.48961c0.18611,-0.20221 -0.37103,-0.55274 -0.64334,-0.51563c-1.11702,0.15225 -2.2347,0.4897 -3.21755,1.04188c-0.18584,0.10441 -0.36751,0.21517 -0.54583,0.33104z" fill="#ffa600" stroke="#000000" stroke-width="1" stroke-linecap="butt"/><path d="M471.69803,155.95261c-2.75,0 -2.75,-2.75 -2.75,-2.75c0,-7.9823 0,-17.69571 0,-25.67802c0,0 0,-2.75 2.75,-2.75c2.75,0 2.75,2.75 2.75,2.75c0,7.9823 0,15.96461 0,23.94691v1.7311c0,0 0,2.75 -2.75,2.75z" fill="#ffa600" stroke="#000000" stroke-width="1" stroke-linecap="butt"/></g></g></svg>