<svg version="1.1" xmlns="http://www.w3.org/2000/svg" xmlns:xlink="http://www.w3.org/1999/xlink" width="175.24154" height="433.83528" viewBox="0,0,175.24154,433.83528"><defs><linearGradient x1="300.07329" y1="183.28511" x2="300.34054" y2="208.5622" gradientUnits="userSpaceOnUse" id="color-1"><stop offset="0" stop-color="#ffffff"/><stop offset="1" stop-color="#2c2c2c"/></linearGradient><linearGradient x1="321.87985" y1="187.49352" x2="322.18052" y2="215.92994" gradientUnits="userSpaceOnUse" id="color-2"><stop offset="0" stop-color="#ffffff"/><stop offset="1" stop-color="#2c2c2c"/></linearGradient><linearGradient x1="324.3551" y1="215.706" x2="324.86563" y2="263.9928" gradientUnits="userSpaceOnUse" id="color-3"><stop offset="0" stop-color="#717171"/><stop offset="1" stop-color="#2c2c2c"/></linearGradient><linearGradient x1="342.00389" y1="181.40053" x2="342.27115" y2="206.67763" gradientUnits="userSpaceOnUse" id="color-4"><stop offset="0" stop-color="#ffffff"/><stop offset="1" stop-color="#2c2c2c"/></linearGradient><linearGradient x1="318.91866" y1="84.09492" x2="318.99253" y2="91.08226" gradientUnits="userSpaceOnUse" id="color-5"><stop offset="0" stop-color="#a2a2a2"/><stop offset="1" stop-color="#7f7f7f"/></linearGradient></defs><g transform="translate(-232.74895,-34.55159)"><g stroke-miterlimit="10"><g fill="#000000" stroke="none" stroke-width="0.5" stroke-linecap="butt"><path d="M267.2841,116.31763c0.56938,-0.94803 1.14767,-1.88844 1.75191,-2.80713c1.01064,-1.53603 1.86137,-3.15694 2.72505,-4.77682c-1.32828,0.5732 -2.21239,1.71668 -2.3073,3.69287c-0.90727,0.7674 -1.97547,2.51094 -2.16966,3.89107zM344.72567,208.27195c-0.05824,-0.24772 -0.07717,-0.52318 -0.0773,-0.80116c-0.17638,-1.30296 -0.57251,-2.57381 -0.81387,-3.84864c0.01049,0.99032 0.02102,1.98065 0.03174,2.97105c0.03799,3.50743 0.52786,7.1055 0.56466,10.58591c0.03035,2.87029 0.67629,6.75755 0.05989,9.49003l0.03955,0.00986l0.00392,0.49954c0,0.00003 0,0.00006 0,0.00008c0.00109,0.13767 -0.11183,0.22107 -0.25252,0.18636c-0.02141,-0.00528 -0.04224,-0.013 -0.06217,-0.02277c0.73959,3.02208 1.0437,6.22178 1.59662,9.18408c0.67196,3.60014 0.9306,7.14962 1.82666,10.75414c0.42126,1.69459 1.01348,3.50296 1.24272,5.18539c0.06805,0.49946 0.05439,1.04779 0.05314,1.53454c-0.00046,0.1789 0.02413,0.69664 0.10091,0.55383c0.23224,-0.43197 0.25804,-1.01822 0.34397,-1.58313l-0.07816,-0.0251l0.03334,-0.48683c0.00745,-0.12805 0.11697,-0.2037 0.25213,-0.17037c0.10367,0.02557 0.19352,0.10815 0.23438,0.20498l0.22166,0.49992c1.06689,2.41221 1.01974,4.82433 1.86234,7.22042c1.24532,3.56002 1.32923,7.23613 1.86869,10.79899c0.15025,0.99233 1.53831,5.86443 0.71789,6.32209c-0.00646,0.00361 -0.01291,0.00711 -0.01932,0.01051c0.25038,0.76136 0.47353,1.52818 0.64268,2.31986c1.14228,3.57721 2.38554,7.24175 3.15809,10.82457c0.3653,1.74741 1.78344,3.75289 2.37502,5.47407c0.49246,1.4328 0.07533,3.70824 0.05349,5.10107c-0.20613,2.42306 -1.56369,4.86969 -2.66863,6.83518c-0.37756,0.67161 -0.37055,1.5956 -0.93772,2.06037c-2.01782,2.46427 -3.82449,4.59166 -6.36431,6.50685c-2.29773,1.98686 -4.53,4.22232 -6.54119,6.5047c-1.99259,2.25189 -5.05105,3.87886 -7.43933,5.61835c-2.1755,1.44399 -5.43842,3.7543 -8.6769,3.14619c-3.51195,-0.74379 -6.86796,-0.40652 -10.52663,-1.30935c-3.51805,-0.86864 -6.99427,-2.17659 -10.61699,-3.05966c-3.573,-0.87097 -7.0801,-1.30025 -10.67791,-2.19572c-3.22457,-0.8026 -7.7426,-3.19178 -9.67185,-6.25593c-2.2109,-3.69114 -6.54756,-3.2576 -9.52026,-2.96629c-0.79039,0.07719 -2.91662,0.76224 -3.65736,-0.23856c-0.49132,-0.66382 -1.04238,-4.66174 -0.94687,-6.03833c-2.73481,0.94271 -3.41247,3.21471 -5.19187,4.96628l0.02484,0.01918l-0.23569,0.37599c-0.04153,0.07005 -0.12665,0.10396 -0.2255,0.07958c-0.14092,-0.03477 -0.25635,-0.17488 -0.25781,-0.31294c-0.00001,-0.0008 -0.00001,-0.0016 -0.00001,-0.00239l-0.0011,-0.49858l0.00063,0.00017l-0.00062,-0.00254c0.03332,-1.90171 0.06543,-4.66824 0.6955,-6.30386c0.70378,-1.79611 1.24738,-3.82888 1.43694,-5.87701c0.11039,-1.19282 -0.28613,-2.66147 0.04902,-3.76199c-2.33874,0.62349 -4.32398,3.32193 -6.5318,4.695l0.02282,0.02432l-0.32433,0.29941c-0.04622,0.0434 -0.11629,0.06099 -0.19505,0.04156c-0.14092,-0.03477 -0.25635,-0.17488 -0.25781,-0.31294c-0.00001,-0.00073 -0.00001,-0.00146 -0.00002,-0.00219l-0.00147,-0.49871c0.00628,-2.4665 1.00889,-5.74334 1.88177,-7.84538c0.77257,-1.86048 1.166,-4.27408 1.11608,-6.47862c-0.0046,-0.20313 -0.01415,-2.20619 -0.13741,-2.25491c-0.27965,-0.11052 -0.39116,0.31019 -0.638,0.38092c-2.78329,0.78593 -4.67399,3.00809 -7.28512,4.05828l0.00424,0.41034c0,0 0,0 0,0.00001c0.00143,0.13803 -0.11161,0.22174 -0.25253,0.18698c-0.14091,-0.03477 -0.25633,-0.17487 -0.25781,-0.31292v0l-0.00532,-0.49998l0.00015,0.00004v-0.00007l0.00004,0.00001l-0.00004,-0.00005c-0.01176,-1.1696 -0.01296,-2.33396 0.00825,-3.49497c0.0572,-3.13144 1.10292,-7.00855 2.04319,-9.77985c0.70336,-2.07301 1.02963,-4.19558 1.29888,-6.46365c0.08398,-0.70744 -0.14939,-1.70505 -0.01321,-2.4032c-0.90965,0.75046 -2.46485,1.40462 -3.12062,2.34687c-0.35,0.5029 -0.46132,1.09715 -0.72501,1.63265l0.08801,0.05443l-0.17505,0.41723c-0.03412,0.08822 -0.12779,0.13429 -0.23874,0.10692c-0.14092,-0.03477 -0.25635,-0.17488 -0.25781,-0.31294c-0.00002,-0.00183 -0.00002,-0.00364 0,-0.00545l0.00429,-0.49675c0.00772,-0.87399 0.108,-1.64125 0.31577,-2.43843c0.83569,-3.20646 1.46784,-6.42742 2.53267,-9.52651c0.75991,-2.21166 0.93737,-4.63531 1.53341,-6.90649c0.23145,-0.88194 0.83361,-1.60294 0.81451,-2.58696c-0.0074,-0.65094 0.31737,-3.79359 -0.19236,-4.29949c-0.0695,-0.06897 -0.97117,0.42338 -1.03383,0.45185c-1.00705,0.4577 -1.62904,1.3622 -2.4363,2.03618c-0.29168,0.71754 -0.60489,1.42412 -0.87031,2.15463c-0.05579,0.15354 -0.42234,1.45563 -0.49323,1.46184c-1.81129,0.15861 -0.12811,-3.34912 0.39538,-3.63598c0.14467,-0.07824 0.34881,-0.25987 0.59411,-0.49753c0.23554,-0.61846 0.45382,-1.24625 0.60832,-1.90222c0.75755,-3.21652 2.31974,-5.90281 2.96182,-9.25431c0.81256,-2.10221 1.40606,-4.42932 1.61217,-6.82596c0.04185,-0.48661 -0.11063,-1.13331 -0.07139,-1.65278c-0.76315,0.81536 -2.22368,1.35321 -3.12036,2.01864c-0.85416,1.17851 -1.94397,2.23942 -2.72255,3.46611c-0.55468,0.87392 -0.74936,2.31568 -1.3397,3.24718c-0.05594,0.17519 -0.11243,0.34776 -0.16937,0.51712l-0.14602,0.43436c-0.0296,0.09672 -0.12695,0.1488 -0.2433,0.12009c-0.14067,-0.03472 -0.25595,-0.17439 -0.25779,-0.31222c0,-0.00003 0,-0.00006 0,-0.00009l-0.00675,-0.50023l0.11679,0.02849c-0.02787,-0.98348 0.34746,-1.97733 0.902,-2.92962c0.177,-0.68363 0.33773,-1.36922 0.47445,-2.02909c0.68054,-3.25589 1.90439,-6.24813 2.8165,-9.39018c0.59359,-2.03945 1.20228,-4.22622 1.61831,-6.34928c0.10146,-0.5177 0.0284,-1.25975 0.08501,-1.86905c-0.87145,1.37885 -2.27699,2.32274 -3.11112,3.72c-0.56067,0.93918 -0.92657,2.19918 -1.65526,2.92918c0.00011,0.01083 0.00022,0.02165 0.00033,0.03247l0.00482,0.49983c0,0.00001 0,0.00002 0,0.00003c0.00134,0.13793 -0.11168,0.22155 -0.25253,0.1868c-0.14091,-0.03477 -0.25632,-0.17485 -0.25781,-0.3129l-0.00536,-0.49999l0.00054,0.00014l-0.00001,-0.00026c-0.0146,-1.51318 -0.07715,-3.03622 0.12629,-4.48175c0.46709,-3.31879 0.67307,-6.75317 1.07846,-10.10924c-0.02133,-1.82621 -0.01346,-3.64741 -0.07187,-5.48239c-0.00831,-0.26131 0.13577,-1.59895 0.00895,-1.7794c-0.25634,-0.3647 -0.40919,0.56617 -0.64835,0.81691c-0.12827,0.13449 -0.24714,0.21999 -0.37392,0.28684l-0.35348,0.2686c-0.04582,0.03489 -0.11008,0.04771 -0.1815,0.03009c-0.14092,-0.03477 -0.25635,-0.17488 -0.25781,-0.31294v0l-0.00528,-0.49998v0v-0.00001c-0.03758,-3.59314 0.54808,-6.73522 1.16552,-10.10714c0.38866,-2.09463 0.03728,-4.69017 0.0134,-6.92546c-0.00521,-0.48817 -0.13403,-1.28969 -0.08739,-1.91442c-0.39335,0.38786 -0.78449,0.8673 -1.14382,1.36902c-0.12624,0.57136 -0.24605,1.14267 -0.36205,1.71044c-0.13043,0.636 -0.48593,3.29659 -1.4671,1.83316c-0.61655,-0.91959 0.3484,-2.64021 1.3709,-3.95874c0.5832,-2.60751 1.30618,-5.20993 2.40712,-7.47249c1.38053,-2.83714 1.84134,-6.17522 3.24516,-9.06505c0.73463,-3.19383 2.00767,-6.19229 2.39483,-9.51762c0.19522,-1.67671 -0.30365,-1.68785 -0.94566,-1.07195c-0.06203,0.17614 -0.12311,0.35198 -0.18303,0.52755c-0.73776,1.33708 -1.17903,2.72742 -1.68458,4.20831l-0.06347,0.45908c-0.01441,0.11941 -0.12077,0.18831 -0.25087,0.15622c-0.13527,-0.03337 -0.24705,-0.16381 -0.25708,-0.29633l-0.04311,-0.50579l0.07729,0.01343c-0.31932,-1.78151 0.66124,-2.96257 1.64688,-4.15554c0.03241,-0.06067 0.0654,-0.12122 0.099,-0.18163c1.00964,-2.99003 2.37523,-6.03294 2.95506,-9.1862c0.59427,-3.23173 1.32398,-6.29523 1.69845,-9.60846c-2.74143,0.67766 -4.72534,2.85493 -7.23435,3.80007l0.02003,0.02799l-0.38632,0.22419c-0.04413,0.02611 -0.10159,0.03427 -0.16462,0.01872c-0.14092,-0.03477 -0.25635,-0.17488 -0.25781,-0.31294c-0.0001,-0.00979 0.00037,-0.0193 0.00139,-0.02852l0.04652,-0.48117l0.00478,0.00166l-0.00223,-0.01997c0.08376,-0.30725 0.16776,-0.61439 0.252,-0.92139c0.87101,-3.12352 2.10252,-6.0551 3.51659,-8.94357c1.39878,-2.85723 3.0391,-5.55052 4.60626,-8.28924c0.98281,-1.53397 1.90406,-3.11854 2.84073,-4.68979c-0.22284,-0.08514 -0.21392,-0.3111 -0.21392,-0.3111l0.00262,-0.06644c0.05803,-1.4023 1.19857,-3.61981 2.23581,-4.37035c-0.03962,-2.18731 1.34542,-3.61473 3.20598,-4.17868c0.26727,-0.49538 0.53843,-0.98935 0.81842,-1.47946c0,0 0.11175,-0.19544 0.34116,-0.02732c0.22941,0.16811 0.11766,0.36355 0.11766,0.36355c-0.18409,0.32167 -0.36434,0.64507 -0.54215,0.96947c0.93742,-0.16274 1.9553,-0.12628 2.95086,0.1206c0.34196,-0.51554 1.31587,-0.50796 1.88851,-0.92894c1.97693,-1.45338 3.85172,-2.42292 5.81469,-3.85221c2.45257,-1.68335 5.09396,-3.81456 8.07513,-4.63837c2.48445,-1.85669 5.40124,-3.13646 7.91706,-4.94152c0.91364,-0.60405 2.4444,-1.81248 3.59626,-1.98245c1.86461,-0.27515 3.98104,0.43113 5.88565,0.12528c2.37827,0.28128 5.00839,0.10423 7.28568,0.05367c0.94695,-0.02102 2.1217,0.91274 2.75899,0.17004c3.58917,-0.11299 6.35127,-0.94679 9.65733,-1.79371c2.00694,-0.51001 3.51589,-1.59128 5.30503,-2.40333c0.46576,-0.2114 1.19922,-0.42771 1.73328,0.18421c0.51676,0.59212 0.78242,1.92888 1.00317,2.64472c0.81202,3.62649 1.63664,7.18774 2.3819,10.81713c0.28219,1.37433 0.39145,2.68877 0.43732,3.99701c0.01478,0.03226 0.02415,0.0663 0.02674,0.10048l0.04324,0.5058c0.0167,0.20211 0.03686,0.40529 0.06003,0.60941c0.03136,0.1721 0.0537,0.35611 0.06883,0.54815c0.36186,2.64136 1.15348,5.41911 1.41413,8.06514c0.35353,3.58899 0.38921,7.06216 0.42621,10.58561c0.03,2.85727 0.69943,6.81754 -0.03105,9.49177l0.03913,0.01511l-0.06652,0.4736c-0.01462,0.11914 -0.12087,0.18785 -0.25081,0.15578c-0.08675,-0.0214 -0.16383,-0.08272 -0.21062,-0.15891l-0.29924,-0.4767l0.01993,-0.00912l-0.055,-0.0652c-0.04286,-0.7493 -0.19979,-1.44793 -0.38327,-2.12684c-0.00441,0.75485 -0.08573,1.50749 0.01313,2.25914c0.26862,2.0422 0.96671,4.11319 1.21074,6.17011c0.42466,3.57946 0.77109,7.14651 1.19911,10.72678c0.00641,0.62165 0.40074,5.03814 -0.79303,4.26528c-0.13441,-0.08702 -0.15895,-1.05135 -0.17841,-1.23245c-0.03903,-0.3631 -0.17256,-0.78595 -0.33333,-1.22947c0.0904,0.91991 0.17412,1.83951 0.38745,2.79282c0.80867,3.61381 1.52126,7.21666 2.17434,10.822c0.6464,3.56844 0.37803,7.08248 0.77778,10.64075c0.17058,1.52683 0.08743,3.04178 0.09316,4.53546c0.0007,0.18016 0.03269,1.15269 -0.11822,1.18055c-0.44194,0.08159 -0.90412,-1.23389 -1.20663,-2.52718c0.13554,2.34245 0.46305,4.70241 0.49224,7.03291c0.04155,3.48965 0.97524,7.18717 1.01385,10.68137c0.02947,2.78776 0.66825,6.62029 0.09589,9.31947c0.00128,0.06046 0.00255,0.11991 0.00382,0.17829l-0.0012,0.00091l0.00123,0.00029l0.00001,0.00034l0.0007,0.00017l0.00527,0.49998v0c0.00146,0.13806 -0.1116,0.22179 -0.25253,0.18702c-0.1408,-0.03475 -0.25616,-0.17466 -0.25781,-0.3126c0,-0.00001 0,-0.00003 0,-0.00004l-0.00597,-0.49919c-0.00197,-0.09099 -0.00547,-0.18176 -0.01037,-0.27236zM257.68443,158.56374c0.14844,-0.43696 0.2988,-0.86669 0.46067,-1.28975c-0.21054,0.39521 -0.36629,0.74987 -0.42671,0.98756c-0.02503,0.09849 -0.03399,0.1998 -0.03397,0.3022zM252.25783,183.85683c-0.10121,0.17402 -0.1953,0.34354 -0.28094,0.50547c-0.21109,0.39919 -0.28508,0.77107 -0.27537,1.2595c0.00382,0.19213 0.09947,0.78404 0.07802,0.5885c-0.08507,-0.77549 0.28397,-1.40036 0.43251,-2.13027c0.01519,-0.07434 0.03045,-0.14875 0.04577,-0.22321zM255.55635,249.10549c-0.59308,0.35569 -0.83389,0.73587 -0.92597,1.56694c-0.03558,0.32119 0.04811,1.32997 0.1088,1.01873c0.17487,-0.89701 0.48743,-1.74262 0.81719,-2.58567zM343.89443,226.12867c-0.10359,-0.48347 -0.295,-1.02701 -0.50359,-1.58434c0.12644,0.39156 0.25582,0.77955 0.37449,1.15836c0.04431,0.14143 0.08731,0.28344 0.1291,0.42598z"/><path d="M374.38231,120.32319c-0.13667,-1.97375 -1.04476,-3.09826 -2.38486,-3.64326c0.89774,1.60126 1.78254,3.20381 2.82544,4.71813c0.62353,0.90569 1.22157,1.83368 1.81087,2.76945c-0.22333,-1.37571 -1.32817,-3.09628 -2.25145,-3.84433zM301.14918,218.01121l0.00459,0.49921c0,0.00001 0,0.00003 0,0.00004c0.00127,0.13796 -0.11109,0.28028 -0.25114,0.31799c-0.14016,0.03774 -0.25496,-0.04359 -0.25643,-0.18165v0l-0.00529,-0.49998l0.0007,-0.00018l-0.00001,-0.00034l0.00121,-0.00033l-0.00122,-0.00087c0.00003,-0.05839 0.00004,-0.11787 0.00004,-0.17833c-0.6293,-2.68648 -0.0717,-6.53166 -0.10117,-9.31941c-0.03528,-3.49424 0.82002,-7.21068 0.78777,-10.70042c-0.02009,-2.33059 0.25746,-4.69696 0.34344,-7.04174c-0.2751,1.29941 -0.70937,2.62436 -1.15293,2.55215c-0.15145,-0.02466 -0.14004,-0.99765 -0.14315,-1.17778c-0.02585,-1.49346 -0.14101,-3.0063 -0.00276,-4.53641c0.32444,-3.56594 -0.01818,-7.0735 0.55263,-10.65483c0.57671,-3.61834 1.21296,-7.23546 1.94504,-10.86555c0.19313,-0.9576 0.25737,-1.87875 0.32831,-2.80039c-0.15136,0.44683 -0.27591,0.87239 -0.30726,1.23624c-0.01564,0.18145 -0.01976,1.14608 -0.15231,1.23593c-1.17717,0.79792 -0.87631,-3.62591 -0.88304,-4.24755c0.35223,-3.58852 0.62315,-7.1621 0.97203,-10.74974c0.20048,-2.06163 0.85464,-4.1469 1.08001,-6.19433c0.08296,-0.75358 -0.01427,-1.50433 -0.03463,-2.25892c-0.1691,0.68263 -0.3112,1.38444 -0.33821,2.13447l-0.0536,0.06635l0.02013,0.0087l-0.28911,0.48293c-0.04517,0.07717 -0.12094,0.14009 -0.20721,0.16332c-0.12923,0.0348 -0.23692,-0.03163 -0.25405,-0.15044l-0.07653,-0.47209l0.0388,-0.01593c-0.78687,-2.65819 -0.20131,-6.63172 -0.23173,-9.48899c-0.0375,-3.52344 -0.07527,-6.99658 0.2023,-10.59225c0.20465,-2.65095 0.93736,-5.44482 1.24328,-8.09323c0.01106,-0.19232 0.02951,-0.37676 0.05724,-0.54948c0.01885,-0.20457 0.0347,-0.40812 0.04712,-0.61055l0.03254,-0.50661c0.00187,-0.03422 0.0105,-0.06844 0.02462,-0.10102c0.01819,-1.30892 0.09964,-2.62537 0.35271,-4.00536c0.66834,-3.64434 1.41747,-7.22223 2.15264,-10.86507c0.20556,-0.72032 0.44289,-2.06241 0.94703,-2.66532c0.52099,-0.62308 1.25887,-0.42232 1.72899,-0.22082c1.80592,0.77404 3.33739,1.82315 5.35467,2.29062c3.32324,0.77684 6.10235,1.55205 9.6931,1.58912c0.65285,0.72906 1.8076,-0.22934 2.75478,-0.22832c2.27784,0.0024 4.91113,0.1238 7.28291,-0.2077c1.91065,0.26552 4.01167,-0.48536 5.88168,-0.2497c1.15519,0.14559 2.71117,1.32137 3.63737,1.90596c2.55343,1.75146 5.49661,2.96928 8.01977,4.77303c2.99791,0.76059 5.6838,2.83547 8.1714,4.46659c1.99276,1.38746 3.88764,2.31715 5.89485,3.7284c0.5814,0.40877 1.55494,0.38061 1.90772,0.88881c0.99011,-0.26788 2.007,-0.32585 2.94764,-0.18297c-0.18463,-0.32058 -0.37168,-0.64008 -0.56252,-0.95778c0,0 -0.11586,-0.19303 0.10995,-0.36595c0.22581,-0.17291 0.34166,0.02011 0.34166,0.02011c0.29029,0.48406 0.57183,0.97219 0.84951,1.46182c1.87207,0.52448 3.28698,1.92231 3.29362,4.10996c1.05287,0.72844 2.24006,2.92133 2.32771,4.3221l0.00402,0.06635c0,0 0.01369,0.22573 -0.20729,0.31555c0.96968,1.5511 1.92424,3.11585 2.93926,4.62868c1.6247,2.70497 3.32161,5.36299 4.7805,8.18999c1.47483,2.85792 2.76805,5.7628 3.7049,8.86722c0.09072,0.30517 0.18119,0.61046 0.27143,0.91586l-0.00182,0.02001l0.00474,-0.00175l0.05668,0.48009c0.00121,0.00919 0.00189,0.01869 0.00199,0.02847c0.00146,0.13806 -0.11098,0.28059 -0.25113,0.31834c-0.06269,0.01687 -0.1203,0.00995 -0.16497,-0.01525l-0.39098,-0.21597l0.01943,-0.02841c-2.52843,-0.89188 -4.55792,-3.02672 -7.31307,-3.64627c0.44444,3.30458 1.23875,6.35195 1.90123,9.5704c0.64639,3.14029 2.07601,6.15367 3.14863,9.12167c0.03487,0.05968 0.06914,0.11952 0.10282,0.17949c1.01064,1.17186 2.01596,2.33192 1.73437,4.11979l0.07699,-0.01506l-0.0324,0.50658c-0.00724,0.13269 -0.11623,0.26547 -0.25076,0.3017c-0.1294,0.03485 -0.23718,-0.03179 -0.25412,-0.15088l-0.07317,-0.45762c-0.53675,-1.46986 -1.00731,-2.85057 -1.77318,-4.17176c-0.06361,-0.17426 -0.12839,-0.34877 -0.19414,-0.52355c-0.65488,-0.60219 -1.15341,-0.5805 -0.92278,1.0917c0.45739,3.3164 1.79353,6.28728 2.59553,9.46486c1.46459,2.8595 1.99589,6.18709 3.43611,8.9944c1.14855,2.23879 1.92639,4.82534 2.56459,7.41993c1.05016,1.29661 2.05125,2.99644 1.45429,3.92887c-0.94999,1.48384 -1.36168,-1.16862 -1.50553,-1.80172c-0.12798,-0.56518 -0.25984,-1.13384 -0.39813,-1.70239c-0.36985,-0.494 -0.77107,-0.96507 -1.17251,-1.34452c0.05984,0.62361 -0.05201,1.42768 -0.04689,1.91584c0.02339,2.23528 -0.27302,4.83768 0.15984,6.92363c0.68859,3.35812 1.34056,6.48711 1.37896,10.08024l-0.00001,0.00001h0.00001l0.00528,0.49998v0c0.00146,0.13806 -0.11098,0.28058 -0.25113,0.31833c-0.07102,0.01912 -0.13554,0.00767 -0.18209,-0.02624l-0.35909,-0.26106c-0.12817,-0.06416 -0.24881,-0.14712 -0.3799,-0.27887c-0.24441,-0.24563 -0.41689,-1.17306 -0.66548,-0.80302c-0.12298,0.18308 0.04935,1.51738 0.04657,1.77881c-0.01959,1.83579 0.02678,3.65642 0.04406,5.48267c0.47624,3.34675 0.7548,6.776 1.29196,10.08417c0.23396,1.44091 0.20363,2.96493 0.22103,4.47809l0.00001,0.00027l0.00054,-0.00014l0.0052,0.5c0.00144,0.13805 -0.11099,0.28055 -0.25114,0.3183c-0.14008,0.03772 -0.25483,-0.04349 -0.25642,-0.18142c0,-0.00001 0,-0.00002 0,-0.00003l-0.00574,-0.49982c-0.00012,-0.01083 -0.00025,-0.02164 -0.00037,-0.03247c-0.74395,-0.71441 -1.1364,-1.9664 -1.71681,-2.89352c-0.86349,-1.37931 -2.28867,-2.29327 -3.18908,-3.65339c0.06948,0.60797 0.01214,1.3514 0.12451,1.86684c0.46082,2.11379 1.11562,4.2872 1.7522,6.31364c0.97835,3.12206 2.26519,6.08777 3.01441,9.32853c0.15065,0.65682 0.32582,1.33887 0.51725,2.0186c0.57455,0.94036 0.97082,1.92604 0.96374,2.90989l0.11616,-0.03095l0.00383,0.50027c0,0.00003 0,0.00006 0,0.00009c0.00107,0.13785 -0.11123,0.27993 -0.25115,0.31762c-0.11571,0.03116 -0.21414,-0.01885 -0.24578,-0.11493l-0.15517,-0.43119c-0.0605,-0.16812 -0.12064,-0.33945 -0.18027,-0.51342c-0.60991,-0.91881 -0.83503,-2.35613 -1.40806,-3.21814c-0.80435,-1.20996 -1.91634,-2.24758 -2.79523,-3.40777c-0.91053,-0.6463 -2.38211,-1.15317 -3.16233,-1.9522c0.0502,0.51851 -0.08856,1.1683 -0.03644,1.65392c0.25673,2.39175 0.8993,4.7058 1.75614,6.79036c0.7128,3.33718 2.33145,5.98983 3.15684,9.18962c0.16833,0.65256 0.39984,1.2756 0.6484,1.88893c0.25029,0.23243 0.4582,0.4097 0.60449,0.48486c0.52943,0.27573 2.2864,3.74708 0.47217,3.62681c-0.07101,-0.00471 -0.465,-1.29873 -0.52403,-1.45108c-0.2808,-0.72474 -0.60888,-1.42452 -0.91568,-2.13574c-0.82133,-0.65676 -1.4623,-1.54791 -2.4788,-1.98422c-0.06324,-0.02715 -0.97514,-0.50031 -1.04314,-0.4299c-0.49892,0.51655 -0.10779,3.65165 -0.10142,4.30259c0.00171,0.9842 0.61898,1.69231 0.86903,2.56916c0.64392,2.25806 0.87259,4.67742 1.67909,6.87251c1.13012,3.07589 1.83023,6.28275 2.73353,9.47083c0.22457,0.79261 0.34105,1.55758 0.36726,2.43121l0.01479,0.49655c0.00006,0.0018 0.0001,0.00362 0.00012,0.00545c0.00146,0.13806 -0.11098,0.28058 -0.25113,0.31833c-0.11034,0.02972 -0.20498,-0.01437 -0.24095,-0.10185l-0.18383,-0.41344l0.08684,-0.05627c-0.27496,-0.52981 -0.39881,-1.12157 -0.75936,-1.61695c-0.67555,-0.92816 -2.24423,-1.54931 -3.16956,-2.28037c0.15093,0.69513 -0.06131,1.69745 0.03761,2.40295c0.31714,2.26186 0.68821,4.37705 1.43525,6.43474c0.99867,2.7508 2.12612,6.60494 2.24952,9.73447c0.04575,1.1603 0.06917,2.32443 0.08214,3.49401l-0.00004,0.00005l0.00004,-0.00001v0.00008l0.00015,-0.00004l0.00523,0.49999v0c0.00145,0.13805 -0.11098,0.28057 -0.25113,0.31831c-0.14014,0.03773 -0.25492,-0.04356 -0.25643,-0.1816v0l-0.00442,-0.41033c-2.63276,-0.99473 -4.57002,-3.17642 -7.3693,-3.90333c-0.24828,-0.06548 -0.36866,-0.48375 -0.64591,-0.36734c-0.1222,0.05132 -0.0894,2.05413 -0.08972,2.25731c-0.00328,2.20509 0.44108,4.60983 1.25281,6.45356c0.91712,2.08312 1.9888,5.33803 2.04723,7.80384l0.00908,0.49861c0.00002,0.00072 0.00002,0.00146 0.00004,0.00219c0.00146,0.13806 -0.11098,0.28058 -0.25113,0.31833c-0.07834,0.02109 -0.14875,0.00499 -0.19589,-0.03742l-0.33059,-0.29249l0.0223,-0.0248c-2.23634,-1.32608 -4.2782,-3.98194 -6.62959,-4.55584c0.35835,1.09321 -0.00704,2.56988 0.12855,3.76011c0.23282,2.04367 0.81928,4.06449 1.56087,5.84532c0.6645,1.62194 0.75512,4.38717 0.82864,6.28775l-0.00058,0.00254l0.00063,-0.00017l0.00944,0.49849c0.00002,0.00079 0.00002,0.00159 0.00003,0.00239c0.00146,0.13806 -0.11098,0.28058 -0.25113,0.31833c-0.09829,0.02647 -0.18412,-0.00563 -0.22712,-0.07479l-0.24358,-0.37091l0.02442,-0.01971c-1.81602,-1.71357 -2.54157,-3.97072 -5.2957,-4.85539c0.1246,1.37426 -0.34181,5.38294 -0.81898,6.057c-0.7194,1.01624 -2.85965,0.37631 -3.6515,0.31584c-2.97819,-0.22839 -7.32304,-0.57013 -9.4554,3.16693c-1.86404,3.10426 -6.33053,5.58844 -9.53742,6.45903c-3.57809,0.97134 -7.07531,1.4747 -10.6291,2.421c-3.60325,0.95948 -7.05103,2.34062 -10.54993,3.28347c-3.63876,0.97999 -7.00115,0.71376 -10.49659,1.53163c-3.2249,0.67645 -6.53593,-1.56436 -8.74149,-2.96202c-2.42452,-1.6886 -5.5167,-3.25053 -7.55645,-5.45979c-2.05899,-2.23934 -4.33802,-4.42711 -6.67725,-6.36494c-2.57974,-1.86106 -4.431,-3.94979 -6.50047,-6.37084c-0.57687,-0.45268 -0.5894,-1.3766 -0.98107,-2.04008c-1.14626,-1.94168 -2.55525,-4.35907 -2.81256,-6.77723c-0.05128,-1.39206 -0.51643,-3.65815 -0.05437,-5.10105c0.55506,-1.73332 1.93049,-3.76832 2.25874,-5.52306c0.69662,-3.59833 1.86212,-7.28836 2.92851,-10.88892c0.15236,-0.79509 0.35924,-1.56646 0.59347,-2.33294c-0.00649,-0.00326 -0.013,-0.00663 -0.01954,-0.0101c-0.82992,-0.44021 0.45483,-5.34058 0.58406,-6.33586c0.46402,-3.57347 0.47018,-7.25054 1.63994,-10.8361c0.79175,-2.41337 0.69361,-4.82397 1.70926,-7.25818l0.21104,-0.5045c0.0388,-0.09768 0.1269,-0.18214 0.23,-0.20989c0.13442,-0.03621 0.24552,0.03712 0.25568,0.165l0.04362,0.48601l-0.07761,0.02674c0.09786,0.56295 0.13604,1.14852 0.37737,1.57549c0.07979,0.14115 0.09343,-0.377 0.08919,-0.55585c-0.01155,-0.48659 -0.0368,-1.03452 0.02068,-1.53531c0.19361,-1.6869 0.74746,-3.50739 1.1328,-5.21051c0.81965,-3.62268 1.00318,-7.17682 1.59887,-10.79037c0.49015,-2.97332 0.72654,-6.17875 1.40207,-9.21579c-0.01971,0.01019 -0.04037,0.01834 -0.06166,0.02408c-0.13993,0.03769 -0.25459,-0.04332 -0.2564,-0.18098c0,-0.00003 0,-0.00005 0,-0.00008l-0.00664,-0.49952l0.03934,-0.01069c-0.67403,-2.71882 -0.11044,-6.61889 -0.14079,-9.48917c-0.0368,-3.48041 0.37689,-7.08803 0.3407,-10.59547c-0.01022,-0.99039 -0.02062,-1.98073 -0.03109,-2.97106c-0.21435,1.27966 -0.58352,2.55859 -0.73232,3.86499c0.00574,0.27793 -0.00735,0.55372 -0.06035,0.80262c-0.00298,0.09067 -0.00456,0.18152 -0.00461,0.27252zM387.08421,165.8998c-0.06543,-0.23636 -0.22865,-0.58765 -0.44749,-0.97833c0.17077,0.41954 0.33019,0.84602 0.48784,1.27973c-0.00213,-0.10236 -0.01324,-0.20348 -0.04034,-0.30141zM393.13521,191.5961c0.16395,0.72662 0.54612,1.34353 0.47746,2.12065c-0.01731,0.19594 0.06579,-0.39785 0.06556,-0.59001c-0.00062,-0.48855 -0.08245,-0.85876 -0.30194,-1.2534c-0.08904,-0.16007 -0.18668,-0.32757 -0.29157,-0.49943c0.0169,0.07413 0.03373,0.14818 0.05049,0.22219zM392.03822,259.24553c0.06724,0.30989 0.1296,-0.70044 0.08724,-1.02079c-0.10963,-0.82895 -0.35843,-1.20393 -0.9589,-1.54702c0.34749,0.83589 0.67787,1.67469 0.87167,2.56782zM302.48244,235.14521c0.11064,-0.38122 0.23178,-0.77185 0.34991,-1.16601c-0.19677,0.56163 -0.37664,1.10908 -0.46998,1.59464c0.03877,-0.14341 0.07877,-0.2863 0.12007,-0.42862z"/></g><path d="M266.11743,462.52438c0,0 4.65585,-49.14864 3.90714,-83.65362c-0.91737,-42.27775 -9.00891,-151.46454 -9.00891,-151.46454c0,0 -4.88647,-15.71427 -0.6084,-27.23761c3.32549,-8.9575 15.08763,-14.31482 20.35417,-14.65351c11.95837,-0.76904 40.30983,-1.95762 65.06825,-3.54983c13.39331,-0.86132 28.99402,-1.8129 34.55968,8.65061c5.59342,10.51569 1.11837,32.44892 1.11837,32.44892c0,0 -2.21249,102.4101 -1.71197,144.94243c0.45166,38.38019 4.58358,99.07699 4.58358,99.07699z" fill="#000000" stroke="#000000" stroke-width="2.5" stroke-linecap="butt"/><path d="M291.6551,183.42332c0.93806,0.76829 2.24354,0.59492 3.34138,1.01028c0.88386,0.33441 1.41994,1.38845 2.28164,1.91281c2.65492,1.61563 5.89949,2.04726 8.76687,2.64328c0.75948,0.15787 5.22038,0.24695 5.51016,1.12374c0.13667,0.41356 -2.69085,5.34449 -3.05137,5.92773c-3.46104,5.59915 -7.48662,10.49397 -13.21735,11.74855c-1.00831,0.22074 -5.50993,1.6409 -6.16055,0.31795c-0.4696,-0.95486 -0.04475,-4.23259 -0.05709,-5.39958c-0.04267,-4.03524 -0.16787,-8.59332 0.78943,-12.45913c0.55506,-2.24145 1.34319,-4.42764 1.31737,-6.86978z" fill="url(#color-1)" stroke="#000000" stroke-width="2.5" stroke-linecap="round"/><path d="M311.77225,191.26305c1.43749,-0.03586 2.03766,-1.10125 3.30355,-1.402c4.64247,-1.10297 10.80539,-3.69086 15.29234,-1.66078c0.67354,0.30475 1.87774,1.07204 2.02797,2.08167c0.47594,3.19846 -2.97,16.10383 -4.36297,19.26378c-0.81951,1.85906 -1.06347,4.25255 -2.55051,5.58313c-2.39517,2.14316 -5.15395,-0.64604 -7.00135,-1.81973c-1.03631,-0.65838 -2.0991,-0.94755 -2.78413,-2.25437c-1.72281,-3.28657 -4.57733,-16.8476 -4.2847,-20.86788z" fill="url(#color-2)" stroke="#000000" stroke-width="2.5" stroke-linecap="round"/><path d="M322.73689,215.76575c9.34166,3.12458 5.43923,10.26548 6.85272,19.76609c0.7251,4.87366 2.81213,9.33995 2.5719,14.54668c-0.24062,5.21501 -1.1209,12.77613 -6.2521,13.68225c-1.42363,0.2514 -5.10735,0.61176 -6.1825,-0.61928c-1.08172,-1.23855 -1.39418,-4.77679 -1.72247,-6.59137c-1.62179,-8.96448 -0.3917,-16.50777 0.75857,-25.59953c0.5189,-4.10137 -0.40249,-12.91973 3.22004,-15.2195z" fill="url(#color-3)" stroke="#000000" stroke-width="2.5" stroke-linecap="round"/><path d="M350.90158,181.30646c0.02582,2.44215 0.86001,4.61119 1.46232,6.84039c1.03883,3.84469 1.01002,8.40439 1.05269,12.43965c0.01234,1.16699 0.50639,4.43499 0.05709,5.39958c-0.62251,1.33641 -5.15313,0.01176 -6.16588,-0.18761c-5.75598,-1.13312 -9.88415,-5.94172 -13.4628,-11.46645c-0.37278,-0.57549 -3.30393,-5.44552 -3.17602,-5.86189c0.27117,-0.88272 4.72919,-1.06612 5.48517,-1.24c2.85415,-0.65652 6.08886,-1.15666 8.70904,-2.82806c0.85041,-0.54248 1.36408,-1.6076 2.24068,-1.96062c1.08882,-0.43849 2.39767,-0.29276 3.31927,-1.08071z" fill="url(#color-4)" stroke="#000000" stroke-width="2.5" stroke-linecap="round"/><path d="M374.15439,142.15681c-1.58368,28.76593 -26.59495,53.69474 -55.96865,51.92998c-29.3737,-1.76476 -51.9866,-29.55484 -50.40294,-58.32076c0.39714,-7.2138 5.65781,-10.33106 6.17704,-13.4616c1.48729,-8.96718 0.59327,-5.84218 19.98396,-4.22927c0.83398,0.06937 5.65574,-8.2955 6.56323,-8.24099c7.76434,0.46648 5.69404,-1.33077 15.78284,-1.30943c5.96293,0.0126 8.91677,3.2078 15.8519,4.24113c6.55558,0.97678 17.13186,-0.24343 21.58016,1.01842c5.05643,1.43435 8.3408,2.07937 11.68835,5.61134c2.13276,2.25025 2.03629,6.58721 3.52468,9.76761c2.184,4.6667 5.46796,8.4792 5.21944,12.99357z" fill="#000000" stroke="#000000" stroke-width="2.5" stroke-linecap="butt"/><path d="M406.72719,108.32375c0.1224,11.577 -38.44491,21.37084 -86.14249,21.87515c-47.69758,0.50431 -86.46334,-8.47188 -86.58575,-20.04888c-0.1224,-11.577 38.44491,-21.37086 86.14249,-21.87517c47.69758,-0.50431 86.46335,8.47188 86.58576,20.0489z" fill="#000000" stroke="#000000" stroke-width="2.5" stroke-linecap="butt"/><path d="M274.66654,109.72004c0,0 -13.51896,-39.51348 -0.6081,-57.51388c12.91087,-18.00039 30.52699,-16.25586 45.81486,-16.4175c15.04087,-0.15903 34.58565,0.85594 45.18347,15.45539c10.59781,14.59945 0.6081,57.51388 0.6081,57.51388z" fill="#000000" stroke="#000000" stroke-width="2.5" stroke-linecap="butt"/><path d="M269.4973,91.60557l-0.07388,-6.98734c0,0 35.09614,2.59098 51.84602,2.41389c16.23057,-0.17161 47.14443,-3.46052 47.14443,-3.46052l0.07388,6.98734c0,0 -31.0645,3.2905 -47.52502,3.46454c-16.53595,0.17484 -51.46544,-2.41791 -51.46544,-2.41791z" fill="url(#color-5)" stroke="#000000" stroke-width="2.5" stroke-linecap="butt"/><path d="M287.21545,130.01124c-0.01898,0.10088 -0.15737,0.14995 -0.15737,0.14995l-0.15267,0.04259c-0.25502,0.18284 -0.51203,0.35903 -0.76794,0.5316c0.32303,-0.11509 0.64821,-0.2154 0.97523,-0.30214c0.57128,-0.36199 1.19584,-0.66033 1.87099,-0.88421c-0.60104,0.10424 -1.19063,0.25597 -1.76826,0.46221zM306.10447,134.2539c-0.70043,-1.64607 -1.96186,-3.23158 -3.64149,-4.18247c-1.57209,-0.5257 -3.13507,-0.83108 -4.72667,-0.98117c2.63912,0.55717 4.7812,1.62656 6.1383,3.2956c0.35699,0.21123 0.69722,0.43596 1.01736,0.67591c0.50332,0.3792 0.90303,0.77827 1.21252,1.19211zM284.41148,132.80653c-0.03705,0.09169 -0.07166,0.18516 -0.10376,0.28042c-0.32304,0.62451 -0.51655,1.27809 -0.60538,1.94493c0.14263,-0.76184 0.45734,-1.51618 0.96665,-2.24661c0.2115,-0.30319 0.44074,-0.5925 0.68725,-0.86613c-0.19038,0.08584 -0.37126,0.18031 -0.54102,0.2845c-0.14027,0.19886 -0.27452,0.40059 -0.40376,0.60289zM293.94392,145.23881c0.03135,0.00666 0.0626,0.01326 0.09373,0.01983c0.40268,0.08545 0.81556,0.15009 1.23515,0.19532c0.55287,-0.0797 1.09973,-0.18872 1.63482,-0.3258c0.11125,-0.02833 0.22121,-0.05728 0.32996,-0.08683c-0.21869,-0.00869 -0.43596,-0.02058 -0.65196,-0.03553c-0.87129,0.1207 -1.75323,0.19968 -2.64167,0.23304zM296.99309,145.53453c2.51999,-0.02591 5.11279,-0.6497 7.09577,-1.59285c3.00183,-1.56531 3.58925,-3.46488 3.10313,-5.84708c-0.0275,0.16463 -0.0614,0.32767 -0.10171,0.48896c0.05331,0.43688 0.05217,0.86504 -0.01178,1.27553c-0.46392,2.92649 -3.13877,4.75082 -7.04425,5.11889c-0.4749,0.03976 -0.94072,0.06443 -1.39904,0.07495c-0.48971,0.16606 -1.00277,0.31843 -1.54334,0.45676c-0.03289,0.00837 -0.06584,0.01665 -0.09881,0.02482zM301.91052,132.13513c-0.41339,-0.21092 -0.83557,-0.40415 -1.26021,-0.57791c-0.27544,-0.11283 -0.55353,-0.22564 -0.83413,-0.33762c-0.09561,-0.02923 -0.19174,-0.05717 -0.28839,-0.0838c0.13997,0.10096 0.27716,0.20425 0.4116,0.30976c0.53928,0.29611 1.04682,0.59673 1.51107,0.88196c0.58537,0.41484 1.06079,0.87144 1.42623,1.35452c0.58581,0.54618 1.06078,1.17822 1.38846,1.92537c0.11146,0.42414 0.17625,0.8361 0.19788,1.23725c0.43006,0.94014 0.56095,1.91748 0.19385,2.82699c0.90235,-1.70892 0.74387,-3.65232 -0.25184,-5.42784c-0.49846,-0.57941 -1.05414,-1.10308 -1.63551,-1.53569c-0.27936,-0.2096 -0.5658,-0.40019 -0.85904,-0.57301zM302.05226,142.15865c0.46837,-0.21179 0.8731,-0.45548 1.18883,-0.73521c0.09799,-0.08545 0.19222,-0.17216 0.2827,-0.26006c-0.42181,0.371 -0.90108,0.68271 -1.42353,0.94563c-0.01594,0.01654 -0.03194,0.03306 -0.048,0.0496zM302.48483,131.6634c-1.48316,-1.25583 -3.56156,-2.02659 -6.04043,-2.38875c-0.3705,-0.05454 -0.74744,-0.09947 -1.12933,-0.13528c0.6667,0.18287 1.29449,0.40686 1.88534,0.66675c0.38365,0.12674 0.76384,0.25921 1.14036,0.39577c1.43749,0.40366 2.85814,0.87129 4.14407,1.46151zM285.36439,129.90311c-1.15906,0.40412 -1.81612,1.17319 -2.15684,2.08826c0.33912,-0.41122 0.72268,-0.82816 1.15318,-1.26033c0.38463,-0.33145 0.78364,-0.62121 1.1965,-0.87214c-0.06453,0.01458 -0.12881,0.02932 -0.19284,0.04421zM299.87362,144.58443c0.0302,-0.00241 0.06045,-0.00488 0.09073,-0.00741c3.50402,-0.32887 5.93904,-1.88767 6.50544,-4.44003c-0.79086,1.4007 -2.16257,2.59324 -4.12488,3.43384c-0.37275,0.13539 -0.74986,0.26368 -1.13091,0.3845c-0.42882,0.22353 -0.8741,0.43338 -1.34038,0.62908zM294.72441,130.70351c-0.54605,0.02656 -1.10158,0.07242 -1.66562,0.13374c-1.92419,0.20747 -4.59111,0.15282 -6.65265,0.71301c-0.4683,0.42439 -0.88425,0.90184 -1.24631,1.42084c-1.25922,1.80402 -1.25741,3.76016 -0.38532,5.59683c1.9509,1.53315 5.37961,3.14544 7.69284,3.49707c1.0208,0.21357 2.37659,0.28498 3.78259,0.2114c1.50126,-0.48364 2.9231,-1.08004 4.14397,-1.88012c0.91538,-1.59748 0.82815,-3.41731 0.0351,-5.18438c-0.69556,-1.5529 -1.9527,-2.91183 -3.57424,-3.98655c-0.1621,-0.07939 -0.32536,-0.15747 -0.48968,-0.23415c-0.54396,-0.10382 -1.09137,-0.20169 -1.6407,-0.28768zM291.18258,144.57419c0.1528,0.02015 0.30561,0.03797 0.45826,0.05341c0.97178,0.09943 1.93678,0.1561 2.874,0.13933c-0.56389,-0.09054 -1.12306,-0.2006 -1.68104,-0.32797c-0.92647,0.02607 -1.85302,-0.03655 -2.72962,-0.19019c0.35683,0.11636 0.71783,0.22452 1.07842,0.32543zM300.04257,141.7013c0.96229,-0.26281 1.80006,-0.61218 2.38548,-1.04933c0.15474,-0.07361 0.29425,-0.15321 0.41957,-0.2382c0.44625,-0.66623 0.769,-1.35648 0.93872,-2.08315c-0.02677,-0.29326 -0.09331,-0.59517 -0.18753,-0.8988c-0.25249,0.7927 -0.75888,1.5614 -1.51933,2.25266c-0.38081,0.34532 -0.79153,0.66133 -1.22713,0.95191c-0.21873,0.36749 -0.48767,0.72348 -0.80981,1.06492zM281.94799,135.37312c-0.20443,0.74547 -0.29966,1.54837 -0.29902,2.45887c-0.00702,2.78976 2.46501,4.98389 5.51344,6.4205c0.06288,0.03352 0.12617,0.06639 0.18986,0.09862c0.75008,0.18667 1.54195,0.30303 2.35948,0.3763c-2.75095,-0.60677 -5.32027,-1.90734 -6.76551,-3.70774c-1.37553,-1.56274 -1.46892,-3.46186 -0.94662,-5.2485c-0.02074,-0.13257 -0.03798,-0.26528 -0.0516,-0.39805zM300.92192,143.60712c1.60786,-0.84685 2.97315,-1.89292 4.39347,-3.10604c0.4909,-0.89425 0.8888,-1.83258 1.04882,-2.76512c-0.15577,-0.55419 -0.39095,-1.11418 -0.6873,-1.65952c0.41659,1.98748 -0.18428,4.0112 -2.01305,5.60803c-0.58099,0.50077 -1.4086,0.89443 -2.36558,1.20107c-0.02125,0.01932 -0.0426,0.03862 -0.06401,0.0579c-0.41918,0.37748 -0.87004,0.69763 -1.34762,0.96722c0.34808,-0.09478 0.69327,-0.19605 1.03527,-0.30353zM286.83507,142.77126c0.61215,0.26355 1.28714,0.50861 2.02259,0.7482c0.03905,0.01279 0.07831,0.02535 0.1178,0.03766c0.27893,0.03088 0.56702,0.04679 0.86402,0.04791c-0.18035,-0.05809 -0.36123,-0.11755 -0.54275,-0.1783c-0.57273,-0.19223 -1.11652,-0.42475 -1.6283,-0.69121c-0.81763,-0.372 -1.59024,-0.83385 -2.37037,-1.38292c0.37837,0.53842 0.90822,1.00765 1.53699,1.41868zM285.30335,139.50918c0.14778,0.22738 0.30855,0.45206 0.4815,0.67347c1.85127,1.96689 4.0454,2.91665 6.98671,3.03427c0.67386,-0.15865 1.35002,-0.3256 2.01854,-0.50835c-0.8975,-0.01828 -1.73866,-0.10174 -2.453,-0.25176c-2.09487,-0.3398 -4.97649,-1.58942 -7.03374,-2.94765zM294.59341,143.19136c0.00699,-0.00044 0.01397,-0.00086 0.02096,-0.00131c0.99103,-0.06213 2.02562,-0.13843 3.03964,-0.27485c0.27968,-0.14217 0.54318,-0.29746 0.78718,-0.46571c-0.67959,0.10998 -1.37851,0.18576 -2.06876,0.22677c-0.58378,0.18624 -1.1789,0.3563 -1.779,0.51509zM302.21333,134.64777c-0.45795,-0.43742 -0.94992,-0.82808 -1.43246,-1.14941c-0.54331,-0.36256 -1.11519,-0.72409 -1.71087,-1.07586c0.8063,0.80365 1.44782,1.69931 1.88224,2.66547c0.70539,1.57173 0.87021,3.18514 0.32362,4.66386c0.1278,-0.10439 0.25252,-0.21178 0.37401,-0.3223c0.97724,-0.88675 1.50494,-1.90976 1.58049,-2.93893c-0.30836,-0.66682 -0.69172,-1.30656 -1.01705,-1.84283zM284.11299,140.89709c-0.28809,-0.50498 -0.52999,-1.0193 -0.72269,-1.53946c-0.26793,-0.43083 -0.50646,-0.87667 -0.70964,-1.33251c0.18535,1.39109 0.74747,2.41926 1.65748,3.2395c-0.07793,-0.11856 -0.153,-0.24106 -0.22515,-0.36753zM286.02811,141.08822c-0.2423,-0.21603 -0.47838,-0.4466 -0.70889,-0.69196c-0.40944,-0.52314 -0.75356,-1.06375 -1.02314,-1.61509c-0.0766,-0.06126 -0.15097,-0.12249 -0.223,-0.18356c0.03599,0.11766 0.07388,0.23486 0.11354,0.35151c0.47225,0.76888 1.09399,1.49677 1.84152,2.13911zM299.45644,142.25587c-0.1689,0.14337 -0.3485,0.28354 -0.53908,0.42028c-0.0205,0.01469 -0.04112,0.02929 -0.06187,0.04381c1.02153,-0.19841 1.99364,-0.4808 2.84534,-0.89802c0.14918,-0.1563 0.29223,-0.31349 0.42871,-0.47179c-0.74377,0.38081 -1.66878,0.6834 -2.67311,0.90574zM302.17912,133.69025c0.0912,0.11563 0.18041,0.23242 0.2677,0.35028c0.07633,0.12745 0.15799,0.2624 0.24296,0.4037c0.05396,0.05223 0.10741,0.10508 0.16027,0.15847c-0.11782,-0.23961 -0.26239,-0.47481 -0.43375,-0.70378c-0.07709,-0.07111 -0.15617,-0.14063 -0.23718,-0.20869zM294.70586,143.8503c-0.46649,0.01495 -0.90746,0.01983 -1.3106,0.01675c-0.48959,-0.00376 -0.9544,-0.02346 -1.39799,-0.0589c0.30344,0.0804 0.60651,0.15598 0.90986,0.2263c0.60553,-0.02166 1.21051,-0.08331 1.79872,-0.18416zM282.26729,132.53465c1.09095,-3.04232 3.89045,-4.07819 7.93041,-4.03547c0.24974,0.00265 0.49873,0.01081 0.74691,0.02413c0.52809,0.00672 1.0688,0.04289 1.62156,0.1053c0.13676,-0.00135 0.27337,-0.00183 0.40977,-0.00135c3.41461,-0.18459 6.59298,0.01228 9.76993,1.09895c2.58277,1.45061 4.23505,4.25866 4.49751,6.68509c0.10455,0.22944 0.19222,0.46262 0.26139,0.69908c0.86638,2.97165 0.45195,5.31245 -3.10423,7.16586c-2.53533,1.20628 -5.98115,1.89767 -9.10886,1.58505c-2.82726,0.39019 -5.79967,0.05565 -8.21556,-1.16047c-1.60065,-0.41216 -3.0179,-1.12954 -4.1148,-2.38041c-1.75701,-2.01065 -2.79706,-5.19655 -1.50604,-7.50057c0.12812,-0.4164 0.30688,-0.79324 0.52641,-1.1403c0.0579,-0.38624 0.15201,-0.7688 0.2856,-1.14489zM283.88943,137.76606c-0.04806,-0.15382 -0.09013,-0.30811 -0.12599,-0.46278c0.02326,0.13721 0.0497,0.27424 0.07907,0.41095c0.01535,0.01721 0.031,0.03451 0.04692,0.05182zM306.41068,136.37212c-0.02487,-0.20959 -0.06597,-0.4176 -0.12502,-0.62343c-0.29796,-0.45512 -0.66418,-0.89124 -1.08236,-1.30386c0.47584,0.60769 0.88795,1.26044 1.20739,1.92729zM283.13703,134.34635c-0.07163,0.14479 -0.14018,0.29147 -0.20515,0.43975c0.0093,0.10206 0.0201,0.20347 0.03217,0.30402c0.04475,-0.24883 0.10229,-0.49686 0.17299,-0.74375zM296.88385,143.71275c-0.79845,0.28615 -1.67069,0.48965 -2.56898,0.60828c0.73032,0.12722 1.46781,0.22114 2.22107,0.2765c1.33426,-0.21389 2.57008,-0.64623 3.63541,-1.40222c-1.04902,0.24678 -2.18524,0.41234 -3.28751,0.51744zM299.12239,131.50281c-0.48967,-0.25675 -1.00235,-0.50535 -1.52891,-0.73059c-0.23003,-0.02537 -0.46239,-0.04533 -0.69699,-0.0603c0.76193,0.24972 1.51098,0.50767 2.22589,0.79088zM285.60028,142.65999c-0.05985,-0.03156 -0.11898,-0.0634 -0.17739,-0.09557c0.087,0.05559 0.1753,0.11024 0.26483,0.1639c-0.02935,-0.02248 -0.0585,-0.04526 -0.08745,-0.06833zM301.07977,133.15363c-0.16043,-0.17644 -0.32642,-0.34949 -0.49814,-0.51869c-0.42438,-0.22545 -0.8732,-0.43214 -1.33928,-0.62589c0.63988,0.37283 1.2541,0.7577 1.83743,1.1446zM287.1039,130.98616c1.84658,-0.34162 3.95858,-0.3563 5.6711,-0.52757c-1.8109,-0.16307 -3.62349,-0.12264 -5.38471,0.33127c-0.09716,0.06345 -0.19263,0.12893 -0.2864,0.1963zM299.75158,141.29229c-0.57291,0.30557 -1.17642,0.57833 -1.80157,0.82512c0.39797,-0.05414 0.79079,-0.12007 1.17186,-0.19788c0.23221,-0.2029 0.44183,-0.41225 0.62972,-0.62724zM292.12759,145.24696c-1.00024,-0.01901 -1.98536,-0.06311 -2.9329,-0.16975c1.41856,0.41946 2.9511,0.58568 4.4799,0.52405c-0.49927,-0.10695 -1.01907,-0.22407 -1.547,-0.35429zM290.96054,143.94963c-0.02148,0.00214 -0.04291,0.00422 -0.06432,0.00623c0.04631,0.00544 0.09271,0.01062 0.13922,0.01555c-0.02496,-0.00721 -0.04994,-0.01449 -0.0749,-0.02176zM292.18032,129.47546c-1.31673,-0.01994 -2.49624,0.21458 -3.5312,0.64747c2.00129,-0.28556 4.05028,-0.14379 6.0737,0.16688c-0.8309,-0.32132 -1.68131,-0.59815 -2.5425,-0.81435zM303.16256,140.84825c0.11817,-0.10755 0.23116,-0.22029 0.33863,-0.33852c-0.06769,0.05694 -0.14006,0.11222 -0.21727,0.16573c-0.03958,0.05778 -0.08004,0.11536 -0.12136,0.17279zM296.14343,130.27887c0.0532,0.00105 0.1063,0.00232 0.15931,0.00382c-0.12234,-0.04008 -0.24501,-0.07835 -0.36792,-0.11464c0.07002,0.0365 0.13957,0.07343 0.20863,0.11082z" fill="#ffffff" stroke="none" stroke-width="0.5" stroke-linecap="butt"/><path d="M337.70773,141.57161c0.55686,0.17555 1.1253,0.30453 1.70483,0.3929c-0.65088,-0.19053 -1.25287,-0.44474 -1.80341,-0.75339c-0.31529,-0.07373 -0.62879,-0.15908 -0.94021,-0.25705c0.2466,0.14718 0.49429,0.29743 0.73999,0.45337l0.14719,0.03622c0,0 0.13341,0.04177 0.15159,0.12795zM355.92988,137.92428c-0.29895,0.35399 -0.68491,0.69546 -1.17077,1.02007c-0.30902,0.2054 -0.63744,0.39785 -0.98197,0.57874c-1.31077,1.42778 -3.37791,2.34408 -5.9238,2.82326c1.53517,-0.13011 3.04292,-0.39287 4.55969,-0.84391c1.62099,-0.81449 2.8394,-2.17078 3.51685,-3.57817zM335.00674,139.18628c0.12441,0.17272 0.25364,0.34494 0.38871,0.5147c0.1636,0.08883 0.33793,0.16933 0.52143,0.24245c-0.23742,-0.23353 -0.45816,-0.48048 -0.6618,-0.7393c-0.49033,-0.62356 -0.79299,-1.26779 -0.92967,-1.91862c0.08489,0.56971 0.27077,1.12798 0.58158,1.66125c0.03084,0.08137 0.06411,0.1612 0.09975,0.23949zM344.21462,128.5517c0.8568,0.02747 1.70728,0.09394 2.54744,0.19606c0.20834,-0.01303 0.4179,-0.02343 0.62882,-0.03111c-0.10485,-0.02513 -0.21086,-0.04973 -0.31812,-0.0738c-0.5159,-0.11651 -1.04318,-0.20903 -1.5763,-0.27651c-0.40473,0.03913 -0.80297,0.09484 -1.19143,0.16834c-0.03002,0.00564 -0.06017,0.01132 -0.0904,0.01705zM347.15565,128.29552c0.0318,0.00694 0.06355,0.01397 0.09527,0.02108c0.52119,0.11756 1.01582,0.24719 1.48792,0.38852c0.44201,0.00846 0.89124,0.029 1.34917,0.06242c3.76615,0.30999 6.34375,1.86579 6.78775,4.36594c0.0612,0.35067 0.0618,0.71655 0.00986,1.08994c0.0387,0.13778 0.0712,0.27705 0.09752,0.41771c0.4716,-2.03617 -0.09272,-3.65866 -2.98597,-4.99276c-1.91134,-0.80363 -4.41121,-1.33364 -6.84152,-1.35285zM351.88258,139.73966c0.28299,-0.14803 0.55949,-0.31122 0.82915,-0.49063c0.56119,-0.37034 1.09772,-0.81846 1.5791,-1.31415c0.96235,-1.51836 1.11745,-3.17918 0.24921,-4.6384c0.35298,0.77675 0.22563,1.61206 -0.19024,2.4159c-0.02133,0.34283 -0.08429,0.69491 -0.19228,1.05748c-0.31688,0.63882 -0.77572,1.17946 -1.34131,1.64686c-0.353,0.41322 -0.81205,0.80394 -1.37707,1.1591c-0.44806,0.24426 -0.9379,0.50174 -1.45835,0.75539c-0.12979,0.09032 -0.26221,0.17874 -0.39733,0.26518c0.09324,-0.02288 0.186,-0.04685 0.27824,-0.07195c0.27075,-0.09602 0.53907,-0.19274 0.80484,-0.28946c0.40973,-0.14897 0.81712,-0.31457 1.21606,-0.49528zM352.03094,131.17435c0.01547,0.01411 0.03087,0.02822 0.04622,0.04233c0.50357,0.22406 0.96543,0.48987 1.3718,0.80639c-0.08716,-0.075 -0.17793,-0.14899 -0.27235,-0.22189c-0.30417,-0.23867 -0.69423,-0.44643 -1.14567,-0.62685zM352.43592,140.14206c-1.24089,0.50584 -2.61154,0.90709 -3.99838,1.25368c-0.36328,0.11713 -0.73011,0.23077 -1.10026,0.33951c-0.57015,0.22278 -1.17584,0.41489 -1.81905,0.57193c0.36834,-0.03104 0.73193,-0.06986 1.08931,-0.11689c2.39112,-0.31234 4.39651,-0.97339 5.82836,-2.04824zM336.10834,141.70371c-0.3979,-0.21394 -0.78236,-0.46108 -1.15292,-0.74386c-0.41468,-0.36881 -0.78412,-0.72462 -1.1107,-1.07562c0.32754,0.78154 0.96034,1.43794 2.0777,1.78192c0.06173,0.01266 0.1237,0.02517 0.18591,0.03756zM349.93263,129.10401c0.44947,0.16671 0.87866,0.3455 1.29198,0.536c0.36735,0.1028 0.7309,0.21197 1.09023,0.32725c1.89151,0.71601 3.21307,1.73344 3.97417,2.92946c-0.54328,-2.18034 -2.88989,-3.50953 -6.26889,-3.78646c-0.02921,-0.00213 -0.05837,-0.0042 -0.0875,-0.00624zM344.95042,140.97132c0.52988,-0.07412 1.05794,-0.1584 1.58268,-0.24773c0.15856,-0.06571 0.3161,-0.13264 0.47253,-0.20066c1.5651,-0.92024 2.77911,-2.08291 3.45174,-3.41069c0.7669,-1.5109 0.85313,-3.06605 -0.02783,-4.43005c-1.17651,-0.68226 -2.54709,-1.19023 -3.9944,-1.60177c-1.35591,-0.06124 -2.66355,0.00135 -3.6483,0.18505c-2.23135,0.30316 -5.53998,1.68486 -7.42328,2.99721c-0.84321,1.57047 -0.84721,3.24201 0.36509,4.78207c0.34858,0.44307 0.74918,0.85057 1.20033,1.21267c1.98757,0.47629 4.5597,0.42648 6.4152,0.60154c0.54391,0.05175 1.07964,0.09028 1.60622,0.11233zM341.55071,129.12285c-0.34789,0.08665 -0.69618,0.17949 -1.04045,0.27933c0.8456,-0.1323 1.73925,-0.18689 2.63276,-0.16568c0.53828,-0.10947 1.0777,-0.20418 1.62164,-0.28221c-0.90386,-0.01323 -1.83461,0.03632 -2.77193,0.1224c-0.14722,0.01337 -0.29463,0.02878 -0.44201,0.04617zM350.09217,131.56745c0.31028,0.29139 0.56923,0.59527 0.77977,0.90902c0.41976,0.24778 0.81551,0.51735 1.18236,0.81199c0.7326,0.58979 1.2201,1.24609 1.46268,1.92314c0.09122,-0.25956 0.15575,-0.51761 0.18191,-0.76825c-0.16283,-0.62075 -0.4733,-1.21018 -0.90292,-1.77897c-0.12076,-0.07247 -0.25522,-0.14034 -0.40437,-0.20305c-0.56407,-0.37286 -1.37168,-0.67042 -2.29941,-0.89388zM332.6339,136.99595c0.01328,-0.11345 0.03007,-0.22689 0.05021,-0.3402c-0.50165,-1.52611 -0.40937,-3.14901 0.91905,-4.48597c1.39593,-1.54012 3.87538,-2.65447 6.5292,-3.17616c-0.78853,0.06355 -1.55239,0.16392 -2.27599,0.3243c-0.06146,0.02762 -0.12254,0.05578 -0.18321,0.0845c-2.94167,1.23114 -5.32832,3.10891 -5.32479,5.49275c-0.00166,0.77802 0.08922,1.46401 0.28552,2.10079zM350.94249,129.93789c-0.32971,-0.09145 -0.6625,-0.17758 -0.99809,-0.25817c0.4603,0.22981 0.89473,0.50286 1.29856,0.82492c0.02063,0.01646 0.04119,0.03293 0.06167,0.0494c0.92258,0.26091 1.72031,0.59634 2.28005,1.02359c1.76187,1.36238 2.33903,3.09096 1.93493,4.78975c0.28645,-0.46634 0.51391,-0.94513 0.66479,-1.41887c-0.15325,-0.79668 -0.53591,-1.598 -1.0083,-2.36159c-1.36838,-1.03498 -2.6839,-1.92726 -4.23359,-2.64904zM337.35572,130.66851c-0.6069,0.35196 -1.11844,0.75353 -1.48397,1.21406c0.75302,-0.47008 1.49868,-0.86564 2.28767,-1.18447c0.49388,-0.22828 1.0186,-0.42762 1.57117,-0.59252c0.17514,-0.05213 0.34965,-0.10315 0.52365,-0.15298c-0.28641,0.00131 -0.56429,0.01522 -0.83334,0.04193c-0.03809,0.01056 -0.07599,0.02135 -0.11369,0.0323c-0.70956,0.20559 -1.36084,0.41576 -1.95151,0.64169zM335.87468,133.45778c1.98567,-1.16301 4.76623,-2.23416 6.78699,-2.52696c0.68911,-0.12902 1.50045,-0.20131 2.36605,-0.21797c-0.64453,-0.15537 -1.29645,-0.29727 -1.94614,-0.43203c-2.83682,0.10392 -4.95403,0.91804 -6.74173,2.60093c-0.16706,0.18941 -0.32237,0.38159 -0.46517,0.57604zM344.83863,130.30054c0.57857,0.13499 1.15233,0.27962 1.71512,0.43807c0.66565,0.03424 1.33961,0.09819 1.99492,0.19137c-0.23513,-0.14349 -0.48908,-0.27588 -0.75864,-0.39702c-0.97781,-0.11539 -1.97549,-0.1794 -2.93121,-0.23133c-0.00674,-0.00038 -0.01348,-0.00074 -0.0202,-0.0011zM352.17755,137.59222c0.31438,-0.45863 0.68486,-1.00572 0.983,-1.57588c-0.07167,-0.87934 -0.5794,-1.7529 -1.52086,-2.5095c-0.11704,-0.09429 -0.23721,-0.18591 -0.36033,-0.27498c0.52543,1.26295 0.3646,2.6418 -0.31753,3.98567c-0.42009,0.8261 -1.03983,1.59219 -1.8184,2.27985c0.5749,-0.30128 1.12687,-0.6109 1.65127,-0.92132c0.46575,-0.27514 0.94068,-0.60954 1.38284,-0.98385zM334.94585,131.95887c-0.8786,0.70196 -1.42193,1.5812 -1.6023,2.7701c0.19648,-0.38975 0.42703,-0.77101 0.68595,-1.13945c0.18645,-0.44472 0.42035,-0.88449 0.69878,-1.31633c0.06973,-0.10814 0.14227,-0.21292 0.21757,-0.31432zM336.57554,132.10763c-0.72169,0.54976 -1.32216,1.17247 -1.7785,1.83003c-0.03838,0.09973 -0.07506,0.19993 -0.1099,0.3005c0.06953,-0.05228 0.14134,-0.10467 0.2153,-0.15712c0.26063,-0.47145 0.59314,-0.93379 0.98863,-1.38129c0.2226,-0.20993 0.45057,-0.40721 0.68449,-0.59212zM349.52758,131.09424c0.96834,0.18882 1.86011,0.44632 2.57699,0.77085c-0.13144,-0.1351 -0.26921,-0.26927 -0.41291,-0.40266c-0.82093,-0.35553 -1.75813,-0.5957 -2.74308,-0.76406c0.01999,0.01237 0.03987,0.02482 0.05961,0.03735c0.18365,0.11663 0.35669,0.23621 0.5194,0.35852zM352.14347,138.41049c0.07821,-0.05824 0.15457,-0.11775 0.22899,-0.17861c0.16553,-0.19585 0.30523,-0.39701 0.41915,-0.60188c-0.05104,0.04568 -0.10264,0.09089 -0.15475,0.13561c-0.08212,0.12084 -0.16103,0.23625 -0.23478,0.34526c-0.08432,0.10081 -0.17049,0.20071 -0.25859,0.29965zM344.94782,129.73734c-0.56717,-0.08548 -1.15056,-0.13748 -1.73453,-0.15528c-0.29264,0.06044 -0.58503,0.12537 -0.87776,0.19444c0.42786,-0.03081 0.87614,-0.04817 1.34832,-0.05195c0.3888,-0.0031 0.8141,0.00055 1.26399,0.0128zM332.66441,138.44311c-0.21132,-0.29631 -0.38328,-0.6181 -0.50637,-0.97378c-1.24243,-1.96731 -0.23564,-4.69088 1.4612,-6.41103c1.05933,-1.07014 2.42701,-1.68481 3.97121,-2.03886c2.33138,-1.04198 5.19844,-1.33134 7.92469,-1.00117c3.01682,-0.27077 6.33928,0.31604 8.78301,1.34386c3.42752,1.57963 3.8245,3.57937 2.98549,6.11967c-0.06698,0.20214 -0.1518,0.40148 -0.2529,0.59766c-0.25596,2.0737 -1.85274,4.47511 -4.34532,5.71767c-3.06522,0.93226 -6.13075,1.10419 -9.42371,0.95042c-0.13155,0.00057 -0.2633,0.00034 -0.3952,-0.00068c-0.53317,0.05398 -1.05469,0.0855 -1.56401,0.09188c-0.23937,0.01167 -0.47951,0.01893 -0.72036,0.02147c-3.89632,0.04119 -6.59504,-0.8407 -7.64363,-3.43911c-0.12841,-0.32122 -0.21872,-0.64803 -0.27412,-0.97799zM334.50905,134.94894c-0.01537,0.01481 -0.03048,0.02959 -0.04531,0.04433c-0.02849,0.11686 -0.05414,0.23399 -0.07674,0.35126c0.03476,-0.1322 0.07552,-0.26411 0.12205,-0.39559zM356.22765,136.1139c-0.30887,0.57019 -0.70707,1.12845 -1.16669,1.64828c0.40378,-0.35307 0.75748,-0.72616 1.04539,-1.11541c0.05719,-0.17594 0.09708,-0.35375 0.12131,-0.53289zM333.77944,137.87196c-0.06788,-0.21088 -0.12311,-0.42277 -0.16597,-0.63535c-0.01176,0.08593 -0.02227,0.17261 -0.03138,0.25982c0.0625,0.12662 0.12844,0.2519 0.19735,0.37551zM347.04819,129.85232c1.06293,0.08852 2.15855,0.22867 3.16997,0.43833c-1.02656,-0.64475 -2.21793,-1.01276 -3.50448,-1.19398c-0.72654,0.04818 -1.43789,0.12929 -2.14238,0.23884c0.8662,0.10034 1.70719,0.2732 2.4769,0.5168zM349.1929,140.28322c-0.68982,0.24285 -1.41251,0.46413 -2.14765,0.67841c0.22626,-0.01305 0.45039,-0.0304 0.67228,-0.05234c0.50809,-0.19308 1.00282,-0.40611 1.47537,-0.62605zM336.16471,130.76503c0.02794,-0.01975 0.05608,-0.03923 0.08442,-0.05848c-0.08641,0.04597 -0.17162,0.09274 -0.2556,0.14036c0.05636,-0.02755 0.11343,-0.05484 0.1712,-0.08187zM351.08259,138.87027c-0.56304,0.33129 -1.15586,0.66085 -1.77341,0.98019c0.44973,-0.1661 0.88285,-0.34324 1.29237,-0.53639c0.16581,-0.14478 0.3261,-0.29284 0.48104,-0.4438zM337.60128,140.73867c0.09035,0.05746 0.18235,0.11329 0.27597,0.16741c1.69808,0.38583 3.44613,0.41827 5.1928,0.2768c-1.65142,-0.14436 -3.68827,-0.15445 -5.46877,-0.44421zM349.81113,131.91731c-0.18096,-0.18349 -0.38289,-0.36213 -0.60661,-0.53524c-0.36743,-0.06605 -0.74618,-0.12193 -1.12994,-0.16772c0.60262,0.21016 1.18436,0.44251 1.73653,0.70297zM342.4629,128.54687c0.5093,-0.11189 1.01075,-0.21257 1.4924,-0.30454c-1.47436,-0.05089 -2.95258,0.09294 -4.32117,0.45301c0.91396,-0.09223 1.86409,-0.13106 2.82877,-0.14847zM341.33583,129.65678c0.02411,-0.00626 0.04818,-0.01248 0.07226,-0.0187c-0.04487,0.00426 -0.08962,0.00875 -0.13428,0.01344c0.02065,0.00169 0.04131,0.00344 0.06203,0.00525zM344.94843,141.32483c-1.9518,0.26781 -3.92809,0.39135 -5.85787,0.14966c0.99764,0.3687 2.13493,0.56774 3.40486,0.54917c0.83081,-0.18576 1.65129,-0.42329 2.45301,-0.69883zM353.21709,132.44027c0.07442,0.04564 0.14413,0.09279 0.20935,0.14138c-0.1035,-0.1009 -0.21236,-0.19711 -0.32619,-0.28887c0.03979,0.04902 0.07873,0.09819 0.11685,0.1475zM346.31851,141.33253c-0.06665,0.03203 -0.13378,0.06366 -0.20135,0.09493c0.11856,-0.03116 0.23695,-0.064 0.35499,-0.09839c-0.05112,0.00135 -0.10234,0.00249 -0.15365,0.00346z" fill="#ffffff" stroke="none" stroke-width="0.5" stroke-linecap="butt"/><path d="M303.25003,174.93071c-0.49998,0.00528 -0.50526,-0.49468 -0.50526,-0.49468l0.02522,-0.04213c-0.64513,-1.89115 -0.67066,-4.26132 -0.69169,-6.25024c0,0 -0.00528,-0.49998 0.49468,-0.50526c0.49998,-0.00528 0.50526,0.49468 0.50526,0.49468c0.01985,1.87749 0.01464,4.1553 0.63703,5.93459l0.02944,0.35779c0,0 0.00528,0.49998 -0.49468,0.50526z" fill="#ffffff" stroke="none" stroke-width="0.5" stroke-linecap="butt"/><path d="M306.36923,176.43953c0.01769,0.00835 0.0357,0.01787 0.05404,0.0286c0.43145,0.2527 0.17875,0.68414 0.17875,0.68414l-0.29002,0.49517c-0.08478,0.15069 -0.24548,0.25321 -0.43079,0.25518c-0.27613,0.00292 -0.50234,-0.21857 -0.50526,-0.49468l-0.00634,-0.59987c-0.02291,-2.16711 0.36106,-4.25953 0.33226,-6.40294c0,0 -0.00528,-0.49998 0.49468,-0.50526c0.49998,-0.00528 0.50526,0.49468 0.50526,0.49468c0.01627,2.03083 -0.31534,4.00351 -0.33259,6.04497z" fill="#ffffff" stroke="none" stroke-width="0.5" stroke-linecap="butt"/><path d="M310.71952,179.69505c0.04436,0.02379 0.08956,0.05677 0.13485,0.10113c0.35727,0.34979 0.00748,0.70707 0.00748,0.70707l-1.04931,-0.07178c-0.43751,-2.84778 -0.25125,-5.73745 -0.69079,-8.59191c0,0 -0.07594,-0.49419 0.41825,-0.57014c0.49419,-0.07594 0.57014,0.41825 0.57014,0.41825c0.40783,2.65932 0.27565,5.35035 0.60937,8.00736z" fill="#ffffff" stroke="none" stroke-width="0.5" stroke-linecap="butt"/><path d="M315.30908,179.24898c0.13623,0.05461 0.28743,0.17689 0.29032,0.45063c0.00528,0.49998 -0.49468,0.50526 -0.49468,0.50526l-0.53127,-0.23715c-1.18208,-1.98783 -0.92253,-5.00403 -0.9478,-7.2466c0,0 -0.00528,-0.49998 0.49468,-0.50526c0.49998,-0.00528 0.50526,0.49468 0.50526,0.49468c0.01856,1.88921 -0.28131,4.79214 0.68349,6.53842z" fill="#ffffff" stroke="none" stroke-width="0.5" stroke-linecap="butt"/><path d="M319.50518,178.73495c0.09165,-0.06838 0.2219,-0.10946 0.40414,-0.06594c0.48632,0.11614 0.37019,0.60246 0.37019,0.60246l-0.14535,0.52831l-0.3878,0.69561c-0.08324,0.15603 -0.24685,0.26298 -0.43617,0.26499c-0.23344,0.00247 -0.4312,-0.15544 -0.48853,-0.37116l-0.2082,-0.71751l0.01045,-0.00303l-0.01978,-0.03448c-0.27497,-2.11672 -0.21603,-4.39009 -0.6644,-6.46065c0,0 -0.10323,-0.48923 0.38599,-0.59246c0.48923,-0.10323 0.59246,0.38599 0.59246,0.38599c0.38404,1.85992 0.3973,3.8509 0.58699,5.76787z" fill="#ffffff" stroke="none" stroke-width="0.5" stroke-linecap="butt"/><path d="M324.50825,179.00113l-0.87714,0.39932c-0.81573,-1.9987 -1.16443,-5.05368 -1.21149,-7.17225c0,0 -0.00528,-0.49998 0.49468,-0.50526c0.49998,-0.00528 0.50526,0.49468 0.50526,0.49468c-0.00865,1.68304 0.29287,4.27268 0.88138,6.10392c0.00144,0.00034 0.00286,0.00067 0.0043,0.00102c0.48632,0.11614 0.37019,0.60246 0.37019,0.60246l-0.13367,0.06086c0.0046,0.01118 0.00921,0.02231 0.01383,0.03339z" fill="#ffffff" stroke="none" stroke-width="0.5" stroke-linecap="butt"/><path d="M329.81453,176.2521c0.00959,0.00109 0.01935,0.00242 0.02928,0.00396c0.49404,0.07698 0.41706,0.57102 0.41706,0.57102l-0.09237,0.59281c-0.03325,0.24137 -0.23907,0.42846 -0.49002,0.43112c-0.20454,0.00216 -0.38169,-0.11881 -0.46099,-0.29391l-0.21383,-0.44594l0.01779,-0.00853l-0.03741,-0.03836c-0.49588,-1.97453 -0.64445,-3.94729 -1.06643,-5.89603c0,0 -0.10323,-0.48923 0.38599,-0.59246c0.48923,-0.10323 0.59246,0.38599 0.59246,0.38599c0.36209,1.75364 0.52646,3.51849 0.91846,5.29033z" fill="#ffffff" stroke="none" stroke-width="0.5" stroke-linecap="butt"/><path d="M333.38558,173.71385c0.44914,0.02815 0.45406,0.4934 0.45406,0.4934l-0.84659,0.6625c-1.0287,-1.11373 -0.6126,-3.12769 -1.34129,-4.51537c0,0 -0.22832,-0.44482 0.21651,-0.67314c0.44482,-0.22832 0.67314,0.21651 0.67314,0.21651c0.44348,0.88009 0.4197,2.84336 0.84418,3.81612z" fill="#ffffff" stroke="none" stroke-width="0.5" stroke-linecap="butt"/><path d="M337.24505,172.51867c-0.44482,0.22832 -0.67314,-0.21651 -0.67314,-0.21651l-0.14957,-0.33982c-0.20029,-1.14552 -0.52795,-2.30044 -0.54352,-3.47614c0,0 -0.00528,-0.49998 0.49468,-0.50526c0.49998,-0.00528 0.50526,0.49468 0.50526,0.49468c0.00835,1.11097 0.33241,2.22835 0.52816,3.3119l0.05461,0.05799c0,0 0.22832,0.44482 -0.21651,0.67314z" fill="#ffffff" stroke="none" stroke-width="0.5" stroke-linecap="butt"/><path d="M339.19408,169.95109c-0.49998,0.00528 -0.50526,-0.49468 -0.50526,-0.49468c-0.00776,-0.73319 -0.01762,-1.66633 -0.02537,-2.39952c0,0 -0.00528,-0.49998 0.49468,-0.50526c0.49998,-0.00528 0.50526,0.49468 0.50526,0.49468c0.00776,0.73319 0.0155,1.46636 0.02326,2.19956l0.00211,0.19995c0,0 0.00528,0.49998 -0.49468,0.50526z" fill="#ffffff" stroke="none" stroke-width="0.5" stroke-linecap="butt"/><path d="M315.51537,192.4851c-0.47265,0.16312 -0.63576,-0.30953 -0.63576,-0.30953l-0.13048,-0.45672c-0.02264,-2.14123 0.05498,-4.25785 0.03233,-6.39976c0,0 -0.00528,-0.49998 0.49468,-0.50526c0.49998,-0.00528 0.50526,0.49468 0.50526,0.49468c0.02265,2.14204 -0.05497,4.25869 -0.03233,6.39976l0.07583,0.14105c0,0 0.16312,0.47265 -0.30953,0.63576z" fill="#ffffff" stroke="none" stroke-width="0.5" stroke-linecap="butt"/><path d="M320.04113,193.78311l-0.76409,0.24969c-0.24607,-1.82829 -0.01129,-4.2794 -0.73113,-5.96802c0,0 -0.1906,-0.46225 0.27165,-0.65283c0.46225,-0.1906 0.65283,0.27165 0.65283,0.27165c0.64715,1.61054 0.56561,3.67796 0.71863,5.48566c0.24441,0.1812 0.16555,0.51145 0.16555,0.51145l-0.11001,0.03594c0.00738,0.06096 0.01515,0.12152 0.02338,0.18164z" fill="#ffffff" stroke="none" stroke-width="0.5" stroke-linecap="butt"/><path d="M323.96568,191.72632c0.11749,0.02082 0.2422,0.09134 0.33283,0.26789c0.22832,0.44482 -0.21651,0.67314 -0.21651,0.67314l-0.88947,-0.15214c-0.51397,-1.29875 -0.58915,-3.11483 -0.77958,-4.51504c0,0 -0.06727,-0.49546 0.42819,-0.56272c0.49546,-0.06727 0.56272,0.42819 0.56272,0.42819c0.15358,1.13339 0.19784,2.70986 0.56181,3.86065z" fill="#ffffff" stroke="none" stroke-width="0.5" stroke-linecap="butt"/><path d="M328.72305,189.95833c0.10957,0.0677 0.2083,0.18996 0.21063,0.41067c0.00528,0.49998 -0.49468,0.50526 -0.49468,0.50526l-0.70521,-0.49257c-0.01324,-1.58791 -0.30374,-3.154 -0.54486,-4.72308c0,0 -0.07594,-0.49419 0.41825,-0.57014c0.49419,-0.07594 0.57014,0.41825 0.57014,0.41825c0.22765,1.48157 0.48777,2.9565 0.54574,4.4516z" fill="#ffffff" stroke="none" stroke-width="0.5" stroke-linecap="butt"/></g></g></svg>