<svg version="1.1" xmlns="http://www.w3.org/2000/svg" xmlns:xlink="http://www.w3.org/1999/xlink" width="207.43931" height="370.03146" viewBox="0,0,207.43931,370.03146"><defs><radialGradient cx="324.30312" cy="208.36351" r="33.16925" gradientUnits="userSpaceOnUse" id="color-1"><stop offset="0" stop-color="#ee2828"/><stop offset="1" stop-color="#500000"/></radialGradient><radialGradient cx="325.67509" cy="192.65461" r="28.48101" gradientUnits="userSpaceOnUse" id="color-2"><stop offset="0" stop-color="#ee2828"/><stop offset="1" stop-color="#500000"/></radialGradient><linearGradient x1="271.77612" y1="41.72756" x2="323.14879" y2="7.28215" gradientUnits="userSpaceOnUse" id="color-3"><stop offset="0" stop-color="#000000"/><stop offset="1" stop-color="#d31b1b"/></linearGradient><linearGradient x1="193.85632" y1="112.21008" x2="248.26878" y2="75.7265" gradientUnits="userSpaceOnUse" id="color-4"><stop offset="0" stop-color="#d31b1b"/><stop offset="1" stop-color="#16031b"/></linearGradient><linearGradient x1="259.85531" y1="59.22242" x2="326.05716" y2="142.54466" gradientUnits="userSpaceOnUse" id="color-5"><stop offset="0" stop-color="#190307"/><stop offset="1" stop-color="#ee2828"/></linearGradient><linearGradient x1="259.1918" y1="51.73723" x2="287.83657" y2="94.45871" gradientUnits="userSpaceOnUse" id="color-6"><stop offset="0" stop-color="#d31b1b"/><stop offset="1" stop-color="#670000"/></linearGradient><radialGradient cx="265.70992" cy="108.63404" r="10.02727" gradientUnits="userSpaceOnUse" id="color-7"><stop offset="0" stop-color="#ffffff" stop-opacity="0.61176"/><stop offset="1" stop-color="#ffffff" stop-opacity="0"/></radialGradient><radialGradient cx="310.56614" cy="76.59281" r="10.02727" gradientUnits="userSpaceOnUse" id="color-8"><stop offset="0" stop-color="#ffffff" stop-opacity="0.61176"/><stop offset="1" stop-color="#ffffff" stop-opacity="0"/></radialGradient><radialGradient cx="309.77222" cy="76.11213" r="5.70896" gradientUnits="userSpaceOnUse" id="color-9"><stop offset="0" stop-color="#ffffff" stop-opacity="0.61176"/><stop offset="1" stop-color="#ffffff" stop-opacity="0"/></radialGradient><radialGradient cx="266.31373" cy="109.00762" r="5.70896" gradientUnits="userSpaceOnUse" id="color-10"><stop offset="0" stop-color="#ffffff" stop-opacity="0.61176"/><stop offset="1" stop-color="#ffffff" stop-opacity="0"/></radialGradient></defs><g transform="translate(-170.67621,24.30808)"><g stroke-miterlimit="10"><path d="M287.52549,345.72338l-5.42898,-72.20197l-5.78474,-11.72029l3.7181,-15.7647l-11.31399,-20.92649l9.32813,-5.48404l-20.52318,-31.7354l18.21688,1.06314l-20.60194,-23.52404l19.03475,2.6814l-11.7432,-24.56125c0,0 14.24427,10.78123 15.4359,6.64513c2.12987,-7.39275 5.2113,-14.39899 9.32201,-15.01216c8.88143,-1.32478 29.96375,-3.98535 48.35173,-6.72817c19.94392,-2.97492 28.20004,17.09708 28.20004,17.09708l7.33249,-14.10848c0,0 -6.69263,24.47467 -6.42613,28.792c0.19356,3.13587 10.2847,-12.39378 10.2847,-12.39378c0,0 -9.12693,31.15028 -8.87027,35.30839c0.24879,4.03057 12.05773,-0.46954 12.05773,-0.46954c0,0 -10.43641,26.73566 -10.05596,32.89942c0.29573,4.79104 8.38264,3.28164 8.38264,3.28164c0,0 -6.95094,19.91279 -6.69298,24.09173c0.26613,4.31142 4.45898,8.9483 4.45898,8.9483c0,0 -3.14464,12.34465 -2.89215,16.43519c2.35758,38.19418 4.53635,73.49167 4.53635,73.49167z" fill="#000000" stroke="#000000" stroke-width="0" stroke-linecap="butt"/><path d="M336.14987,143.00552c0.30653,7.74487 -6.71366,14.44531 -15.68003,14.96588c-8.96637,0.52057 -16.48353,-5.33586 -16.79006,-13.08073c-0.30653,-7.74487 6.71365,-14.44531 15.68002,-14.96588c8.96637,-0.52057 16.48354,5.33587 16.79007,13.08073z" fill="#ee2828" stroke="#000000" stroke-width="0" stroke-linecap="butt"/><path d="M350.30405,237.11781l-52.303,-17.70764l0.0418,30.68771l31.59057,-49.29012l20.93001,-34.17862" fill="none" stroke="url(#color-1)" stroke-width="2.5" stroke-linecap="round"/><path d="M296.79874,183.1065l57.75274,19.09625" fill="none" stroke="url(#color-2)" stroke-width="2.5" stroke-linecap="round"/><path d="M289.06039,151.67692l51.84339,-4.83182" fill="none" stroke="#000000" stroke-width="0" stroke-linecap="round"/><path d="M316.59532,44.76723c5.11055,6.57895 -13.13753,31.78068 -40.75822,56.28967c-27.62069,24.50897 -54.15461,39.04414 -59.26517,32.4652c-5.11054,-6.57894 13.13752,-31.78067 40.75823,-56.28966c27.62069,-24.50897 54.15462,-39.04416 59.26518,-32.46521z" fill="#580b0b" stroke="#000000" stroke-width="0" stroke-linecap="butt"/><path d="M274.58199,46.94727l25.72382,-26.14459l-3.69001,-45.11076l22.97456,27.31807l12.75544,39.70171l-10.84177,11.99997l-9.54641,-8.94554l-18.43091,-4.3056z" fill="url(#color-3)" stroke="#000000" stroke-width="0" stroke-linecap="round"/><path d="M237.06247,91.23926l0.46741,18.92136l6.81718,11.16614l-13.95403,8.1748l-36.27802,-20.56289l-23.4388,-30.26503l44.78151,15.00194l30.82961,-19.86932z" fill="url(#color-4)" stroke="#000000" stroke-width="0" stroke-linecap="round"/><path d="M334.29375,65.51583c16.89223,23.02163 14.68954,60.24645 -9.70143,78.14344c-24.39098,17.89698 -59.84254,11.47477 -76.73476,-11.54685c-16.89222,-23.02163 -12.70462,-57.97856 11.68638,-75.87555c24.39098,-17.89698 57.85763,-13.74266 74.74986,9.27897z" fill="url(#color-5)" stroke="#000000" stroke-width="0" stroke-linecap="butt"/><path d="M300.74396,84.0193c1.60251,2.18398 -2.46186,7.88992 -9.07805,12.74458c-6.61618,4.85467 -13.27875,7.01967 -14.88124,4.83567c-1.60251,-2.18398 2.46187,-7.88992 9.07806,-12.74458c6.61618,-4.85467 13.27875,-7.01967 14.88126,-4.83569z" fill-opacity="0.23137" fill="#000000" stroke="none" stroke-width="0" stroke-linecap="butt"/><path d="M269.22175,105.58769c1.32212,1.80184 0.7907,4.43888 -1.18694,5.88998c-1.97764,1.4511 -4.65261,1.16676 -5.97472,-0.63507c-1.32212,-1.80185 -0.7907,-4.43888 1.18694,-5.88998c1.97764,-1.4511 4.6526,-1.16676 5.97472,0.63508z" fill="#ffffff" stroke="#000000" stroke-width="2.5" stroke-linecap="butt"/><path d="M312.44632,71.8943c1.32212,1.80185 0.79069,4.43887 -1.18694,5.88998c-1.97764,1.4511 -4.6526,1.16676 -5.97471,-0.63507c-1.32212,-1.80184 -0.7907,-4.43886 1.18694,-5.88997c1.97764,-1.4511 4.65261,-1.16677 5.97472,0.63507z" fill="#ffffff" stroke="#000000" stroke-width="2.5" stroke-linecap="butt"/><path d="M315.72534,38.47778c2.28886,3.33557 7.99678,11.93247 7.99678,11.93247l-41.0428,36.31841l-41.19764,35.75702c0,0 -7.13727,-8.20609 -9.36787,-11.45677c-9.07889,-13.23063 2.2783,-40.19733 25.36699,-60.23177c23.08868,-20.03443 49.16566,-25.55 58.24455,-12.31936zM278.15037,55.73661c-11.49983,9.9786 -17.15652,23.40997 -12.6346,29.99978c1.11101,1.61907 4.66588,5.7063 4.66588,5.7063l20.5194,-17.80958l20.44228,-18.0892c0,0 -2.84295,-4.28187 -3.98295,-5.94322c-4.52194,-6.58982 -17.51016,-3.84267 -29.01,6.13593z" fill="url(#color-6)" stroke="#000000" stroke-width="0" stroke-linecap="butt"/><path d="M308.25919,61.47067l-38.46838,33.5479l46.20809,-40.59283" fill="none" stroke-opacity="0.48235" stroke="#000000" stroke-width="2.5" stroke-linecap="round"/><path d="M264.47248,47.44811c0,0 4.91761,0.65345 7.07388,2.02609c2.27394,1.44755 6.23557,6.44644 6.23557,6.44644" fill="none" stroke-opacity="0.48235" stroke="#000000" stroke-width="0" stroke-linecap="round"/><path d="M253.61442,111.4337c0,0 -14.85954,-17.33076 -13.37144,-27.56618c1.59127,-10.94511 22.63036,-36.11826 22.63036,-36.11826c0,0 19.27591,-9.35432 29.60239,-8.49093c8.212,0.6866 27.47911,13.2635 27.47911,13.2635" fill="none" stroke-opacity="0.48235" stroke="#000000" stroke-width="0" stroke-linecap="round"/><path d="M264.94287,43.24255c1.16675,1.59013 0.48432,4.07389 -1.52422,5.54766c-2.00855,1.47379 -4.58266,1.3795 -5.7494,-0.21061c-1.16675,-1.59013 -0.48433,-4.07389 1.52423,-5.54767c2.00855,-1.47379 4.58264,-1.37949 5.7494,0.21062z" fill="#d31b1b" stroke="#000000" stroke-width="0" stroke-linecap="butt"/><path d="M296.86205,83.77759c0,0 -1.12478,-2.97993 2.23468,-5.50629c6.00642,-4.51691 25.11809,-18.88908 25.11809,-18.88908" fill="none" stroke="#000000" stroke-width="0" stroke-linecap="round"/><path d="M264.47248,47.44811c0,0 4.91761,0.65345 7.07388,2.02609c2.27394,1.44755 6.23557,6.44644 6.23557,6.44644" fill="none" stroke-opacity="0.48235" stroke="#000000" stroke-width="2.5" stroke-linecap="round"/><path d="M253.61442,111.43369c0,0 -14.85955,-17.33076 -13.37145,-27.56617c1.59127,-10.9451 22.63037,-36.11826 22.63037,-36.11826c0,0 19.27591,-9.35432 29.60239,-8.49093c8.212,0.6866 27.47911,13.2635 27.47911,13.2635" fill="none" stroke-opacity="0.48235" stroke="#000000" stroke-width="2.5" stroke-linecap="round"/><path d="M271.68744,102.62743c2.61768,4.88018 3.10806,12.5119 -1.23779,14.84298c-4.34586,2.33108 -11.88227,-1.5212 -14.49995,-6.4014c-2.61768,-4.88018 -1.21671,-10.72607 3.12915,-13.05713c4.34586,-2.33108 9.99092,-0.26462 12.60861,4.61556z" fill="url(#color-7)" stroke="none" stroke-width="0" stroke-linecap="butt"/><path d="M316.54366,70.58618c2.61768,4.88018 1.21672,10.72606 -3.12912,13.05714c-4.34586,2.33108 -9.99092,0.26461 -12.60859,-4.61557c-2.61768,-4.88018 -1.21673,-10.72606 3.12913,-13.05715c4.34586,-2.33108 9.99094,-0.26461 12.60862,4.61557z" fill="url(#color-8)" stroke="none" stroke-width="0" stroke-linecap="butt"/><path d="M312.36096,71.92323c1.49036,2.77849 0.69273,6.10681 -1.78156,7.434c-2.4743,1.32718 -5.68825,0.15066 -7.17862,-2.62784c-1.49036,-2.77849 -0.69274,-6.1068 1.78155,-7.43399c2.4743,-1.32718 5.68827,-0.15065 7.17863,2.62784z" fill="url(#color-9)" stroke="none" stroke-width="0" stroke-linecap="butt"/><path d="M268.90246,104.81872c1.49036,2.77849 2.58409,7.89263 0.10981,9.21981c-2.47429,1.32717 -7.57961,-1.63518 -9.06997,-4.41367c-1.49036,-2.77849 -0.69273,-6.10681 1.78155,-7.43399c2.47429,-1.32717 5.68825,-0.15065 7.17861,2.62784z" fill="url(#color-10)" stroke="none" stroke-width="0" stroke-linecap="butt"/><path d="M302.14425,154.61035l-21.01735,-14.34469l1.08806,-16.7162l11.93124,0.84402l12.55822,-16.30464l20.12802,-3.83718l7.48814,-10.01338l4.79217,1.5385l-0.4209,26.44368l-4.85471,12.87228l-11.15639,12.17396z" fill="#000000" stroke-opacity="0.7098" stroke="#000000" stroke-width="2.5" stroke-linecap="round"/><path d="M283.45853,125.19986l9.28479,0.3316l-1.3264,14.54301l-7.79259,-8.29887z" fill="#ffffff" stroke-opacity="0.50196" stroke="#000000" stroke-width="2.5" stroke-linecap="round"/><path d="M337.03788,101.2744l-7.79259,15.25849l-1.3264,-13.35839l9.28479,-8.62391z" fill="#ffffff" stroke-opacity="0.50196" stroke="#000000" stroke-width="2.5" stroke-linecap="round"/><path d="M296.08532,123.73367l9.28479,-9.95031l-1.3264,16.01186l-7.79259,0.33059z" fill="#ffffff" stroke-opacity="0.50196" stroke="#000000" stroke-width="2.5" stroke-linecap="round"/><path d="M307.38571,109.66669l9.28479,-1.29289l-1.3264,14.77508l-7.79259,-6.93546z" fill="#ffffff" stroke-opacity="0.50196" stroke="#000000" stroke-width="2.5" stroke-linecap="round"/><path d="M325.51647,111.95341l-6.2619,9.88964l-1.06586,-14.27224l7.46099,-2.22699z" fill="#ffffff" stroke-opacity="0.50196" stroke="#000000" stroke-width="2.5" stroke-linecap="round"/><path d="M300.6005,151.32634l-8.22806,-4.31467l7.4858,-12.53879l3.43678,10.85284z" fill="#ffffff" stroke-opacity="0.50196" stroke="#000000" stroke-width="2.5" stroke-linecap="round"/><path d="M306.09787,145.09592l4.15917,-10.59703l6.62523,13.01402l-8.4997,3.75131z" fill="#ffffff" stroke-opacity="0.50196" stroke="#000000" stroke-width="2.5" stroke-linecap="round"/><path d="M316.18931,139.57384l1.33599,-11.30534l9.70882,10.90858l-7.2706,5.78408z" fill="#ffffff" stroke-opacity="0.50196" stroke="#000000" stroke-width="2.5" stroke-linecap="round"/><path d="M325.11635,131.85227l-2.75365,-11.60027l10.43687,8.77573l-3.25082,7.38286z" fill="#ffffff" stroke-opacity="0.50196" stroke="#000000" stroke-width="2.5" stroke-linecap="round"/><path d="M333.18007,119.16909l2.75365,7.47015l-10.43687,-5.65124l3.25083,-4.75429z" fill="#ffffff" stroke-opacity="0.50196" stroke="#000000" stroke-width="2.5" stroke-linecap="round"/></g></g></svg>