<svg version="1.1" xmlns="http://www.w3.org/2000/svg" xmlns:xlink="http://www.w3.org/1999/xlink" width="211.22874" height="347.97994" viewBox="0,0,211.22874,347.97994"><defs><linearGradient x1="316.41874" y1="235.9089" x2="317.64509" y2="308.73659" gradientUnits="userSpaceOnUse" id="color-1"><stop offset="0" stop-color="#545454"/><stop offset="1" stop-color="#2f2f2f"/></linearGradient><linearGradient x1="321.08907" y1="202.76973" x2="322.31542" y2="275.59744" gradientUnits="userSpaceOnUse" id="color-2"><stop offset="0" stop-color="#545454"/><stop offset="1" stop-color="#2f2f2f"/></linearGradient><linearGradient x1="316.71712" y1="172.05923" x2="317.94347" y2="244.88693" gradientUnits="userSpaceOnUse" id="color-3"><stop offset="0" stop-color="#545454"/><stop offset="1" stop-color="#2f2f2f"/></linearGradient><linearGradient x1="316.76644" y1="175.35652" x2="319.77737" y2="354.16355" gradientUnits="userSpaceOnUse" id="color-4"><stop offset="0" stop-color="#4e2710"/><stop offset="1" stop-color="#3a1a09"/></linearGradient><linearGradient x1="318.18597" y1="175.37073" x2="318.6206" y2="201.18113" gradientUnits="userSpaceOnUse" id="color-5"><stop offset="0" stop-color="#e07130"/><stop offset="1" stop-color="#c2551f"/></linearGradient><linearGradient x1="290.18229" y1="205.09152" x2="290.64044" y2="232.29915" gradientUnits="userSpaceOnUse" id="color-6"><stop offset="0" stop-color="#4e2710"/><stop offset="1" stop-color="#3a1a09"/></linearGradient><linearGradient x1="372.40976" y1="152.72275" x2="361.49402" y2="203.14353" gradientUnits="userSpaceOnUse" id="color-7"><stop offset="0" stop-color="#e07130"/><stop offset="1" stop-color="#c2551f"/></linearGradient><linearGradient x1="371.29009" y1="134.47961" x2="372.15868" y2="186.06115" gradientUnits="userSpaceOnUse" id="color-8"><stop offset="0" stop-color="#e07130"/><stop offset="1" stop-color="#c2551f"/></linearGradient><linearGradient x1="261.12579" y1="153.63585" x2="273.73295" y2="203.66052" gradientUnits="userSpaceOnUse" id="color-9"><stop offset="0" stop-color="#e07130"/><stop offset="1" stop-color="#c2551f"/></linearGradient><linearGradient x1="263.38021" y1="132.33485" x2="264.24878" y2="183.91637" gradientUnits="userSpaceOnUse" id="color-10"><stop offset="0" stop-color="#e07130"/><stop offset="1" stop-color="#c2551f"/></linearGradient><linearGradient x1="313.54386" y1="78.854" x2="315.33587" y2="185.27452" gradientUnits="userSpaceOnUse" id="color-11"><stop offset="0" stop-color="#e07130"/><stop offset="1" stop-color="#c2551f"/></linearGradient><linearGradient x1="320.64051" y1="12.3609" x2="312.10685" y2="97.78324" gradientUnits="userSpaceOnUse" id="color-12"><stop offset="0" stop-color="#a1a1a1"/><stop offset="1" stop-color="#767676"/></linearGradient></defs><g transform="translate(-205.32705,-6.63525)"><g stroke-miterlimit="10"><g stroke="#000000" stroke-width="2.5"><path d="M388.92688,298.23648l-72.98948,10.52886l-69.8872,-8.12295c0,0 30.91425,-64.06914 70.36854,-64.73351c39.4543,-0.66437 72.50813,62.32761 72.50813,62.32761z" fill="url(#color-1)" stroke-linecap="butt"/><path d="M256.80804,296.66469l57.87761,-18.16354l62.02225,13.68898" fill="none" stroke-linecap="round"/><path d="M286.63679,300.25501l29.60138,-9.91145l36.19655,6.75717" fill="none" stroke-linecap="round"/></g><g stroke="#000000" stroke-width="2.5"><path d="M393.5972,265.09731l-72.98948,10.52886l-69.8872,-8.12295c0,0 30.91425,-64.06914 70.36854,-64.73351c39.4543,-0.66437 72.50813,62.32761 72.50813,62.32761z" fill="url(#color-2)" stroke-linecap="butt"/><path d="M261.47838,263.52554l57.87761,-18.16354l62.02225,13.68898" fill="none" stroke-linecap="round"/><path d="M291.30712,267.11584l29.60138,-9.91145l36.19655,6.75718" fill="none" stroke-linecap="round"/></g><g stroke="#000000" stroke-width="2.5"><path d="M389.22525,234.38684l-72.98947,10.52886l-69.88721,-8.12295c0,0 30.91425,-64.06914 70.36855,-64.73351c39.4543,-0.66437 72.50812,62.32761 72.50812,62.32761z" fill="url(#color-3)" stroke-linecap="butt"/><path d="M257.10643,232.81503l57.87762,-18.16353l62.02225,13.68898" fill="none" stroke-linecap="round"/><path d="M286.93517,236.40536l29.60138,-9.91144l36.19655,6.75718" fill="none" stroke-linecap="round"/></g><path d="M272.81698,351.31517l-4.60218,-147.21918c0,0 6.17133,-25.80577 15.94199,-26.37559c9.70307,-0.56587 32.70881,-1.50997 52.79789,-2.68155c21.78897,-1.27071 29.03456,25.48945 29.03456,25.48945l2.80983,152.80977z" fill="url(#color-4)" stroke="#000000" stroke-width="2.5" stroke-linecap="butt"/><path d="M337.33091,187.95721c0.12002,7.12735 -8.25687,13.0479 -18.71033,13.22394c-10.45345,0.17602 -19.02493,-5.45914 -19.14495,-12.58649c-0.12002,-7.12735 8.25687,-13.0479 18.71033,-13.22394c10.45345,-0.17602 19.02493,5.45914 19.14495,12.58649z" fill="url(#color-5)" stroke="#000000" stroke-width="2.5" stroke-linecap="butt"/><path d="M304.1002,218.46482c0.12651,7.51318 -5.89963,13.70703 -13.45977,13.83433c-7.56014,0.12731 -13.7914,-5.86013 -13.91791,-13.37331c-0.12651,-7.51318 5.89963,-13.70703 13.45977,-13.83433c7.56014,-0.12731 13.7914,5.86013 13.91791,13.37331z" fill="url(#color-6)" stroke="#ffffff" stroke-width="2.5" stroke-linecap="butt"/><path d="M286.52588,214.53519l-1.03594,1.76116" fill="none" stroke="#ffffff" stroke-width="2.5" stroke-linecap="round"/><path d="M294.59336,216.14303l-0.60879,-1.63658" fill="none" stroke="#ffffff" stroke-width="2.5" stroke-linecap="round"/><path d="M282.4871,225.15025l1.99071,-3.16327l11.23402,0.18917l2.75795,3.04949" fill="none" stroke="#ffffff" stroke-width="2.5" stroke-linecap="round"/><path d="M340.8826,15.28601c0,0 -3.49321,1.5555 -13.34762,2.17505c-3.43583,0.21601 -14.35827,1.04465 -16.94946,1.06451c-4.18849,0.0321 -10.94622,-0.80207 -16.37471,-1.15873c-7.32574,-0.48131 -12.93013,-1.62405 -12.93013,-1.62405" fill="none" stroke="#000000" stroke-width="2.5" stroke-linecap="round"/><path d="M356.84363,149.3528c0,0 12.20918,11.43221 16.57292,20.13455c5.3364,10.64204 13.11865,39.07742 13.11865,39.07742c0,0 -15.42845,-20.82275 -23.58753,-25.7025c-7.1916,-4.3011 -22.83182,-2.05971 -22.83182,-2.05971z" fill="url(#color-7)" stroke="#000000" stroke-width="2.5" stroke-linecap="round"/><path d="M355.3656,134.74776c0,0 14.49428,8.34715 20.72736,15.82526c7.62239,9.1449 21.68337,35.05674 21.68337,35.05674c0,0 -19.76995,-16.75629 -28.82676,-19.64707c-7.98287,-2.54799 -22.70003,3.20059 -22.70003,3.20059z" fill="url(#color-8)" stroke="#000000" stroke-width="2.5" stroke-linecap="round"/><path d="M294.34682,180.61244c0,0 -15.70683,-1.71353 -22.74953,2.82726c-7.99016,5.15168 -22.7088,26.48207 -22.7088,26.48207c0,0 6.82046,-28.68127 11.79554,-39.49694c4.06828,-8.84433 15.88563,-20.68112 15.88563,-20.68112z" fill="url(#color-9)" stroke="#000000" stroke-width="2.5" stroke-linecap="round"/><path d="M289.57498,166.17575c0,0 -14.90236,-5.24982 -22.79492,-2.43449c-8.95435,3.19407 -28.14894,20.60649 -28.14894,20.60649c0,0 13.1806,-26.37057 20.49077,-35.76691c5.97777,-7.68371 20.1828,-16.51413 20.1828,-16.51413z" fill="url(#color-10)" stroke="#000000" stroke-width="2.5" stroke-linecap="round"/><path d="M349.6006,87.19723l8.55645,8.69386l-15.49596,58.13161l-59.00646,-0.22545l-16.34035,-54.58269l8.78708,-10.47958" fill="none" stroke="#000000" stroke-width="2.5" stroke-linecap="round"/><path d="M369.11997,133.36845c-1.46112,28.5168 -27.03339,53.39131 -57.24639,51.84328c-30.213,-1.54802 -53.62572,-28.9324 -52.16459,-57.44919c1.46112,-28.51679 27.13809,-50.37931 57.3511,-48.83127c30.213,1.54802 53.52103,25.92038 52.0599,54.43717z" fill="url(#color-11)" stroke="#000000" stroke-width="2.5" stroke-linecap="butt"/><path d="M275.02697,93.52945l12.28795,-84.49777c0,0 7.16978,-1.3146 16.23772,-1.12835c5.70417,0.11716 13.05162,0.2077 17.33232,0.63533c4.24396,0.42397 11.90318,2.37287 17.50082,3.37691c9.08392,1.62935 15.58032,3.77453 15.58032,3.77453l-4.86119,84.41542c0,0 -5.06025,4.08791 -15.60006,6.32221c-5.76906,1.22296 -16.73486,1.53542 -21.14991,1.1435c-5.43256,-0.48226 -16.20081,-2.68977 -23.39719,-5.68734c-8.97173,-3.73709 -13.93079,-8.35445 -13.93079,-8.35445z" fill="url(#color-12)" stroke="#000000" stroke-width="2.5" stroke-linecap="butt"/><path d="M329.5005,127.507c0.0456,2.70846 -6.56891,5.01609 -14.77393,5.15427c-8.20504,0.13816 -14.89348,-1.94547 -14.9391,-4.65392c-0.0456,-2.70846 6.56891,-5.01609 14.77393,-5.15427c8.20504,-0.13816 14.89348,1.94547 14.9391,4.65392z" fill-opacity="0.18431" fill="#000000" stroke="none" stroke-width="0" stroke-linecap="butt"/><path d="M334.07916,121.18317c4.65119,-1.72413 15.08789,-7.7599 17.04992,0.4949c1.32384,5.56977 -3.15164,13.66623 -9.88597,10.59612c-4.15484,-1.89416 -3.83208,-9.27119 0.96788,-9.89837c4.83419,-0.63166 3.98418,4.3281 -0.49001,4.21543" fill="none" stroke="#000000" stroke-width="2.5" stroke-linecap="round"/><path d="M283.53749,123.92118c2.2922,-5.33172 13.66433,-6.20596 14.62045,0.91609c0.98299,7.32214 -10.64012,13.21029 -15.68706,7.41416c-3.3537,-3.85155 3.97793,-8.69736 7.37089,-6.80152c3.30847,1.84863 -1.45299,3.76791 -3.07569,3.76562" fill="none" stroke="#000000" stroke-width="2.5" stroke-linecap="round"/><path d="M285.07279,166.43138c0.98487,-4.34465 9.75958,-3.76605 13.29669,-3.22021c2.85496,0.44057 5.67602,1.87578 8.63724,2.32948c8.58753,1.31573 17.3955,-0.55429 25.90747,0.68342c4.18569,0.60863 8.6359,-1.83571 12.91762,-0.84813c0.55449,0.12789 2.85156,2.3288 2.63428,2.84167c-0.17865,0.4217 -5.37616,-0.06818 -5.99789,-0.08405c-5.59756,-0.1429 -11.41429,-0.73659 -16.9845,-0.26525c-5.27144,0.44607 -10.66694,0.03327 -15.97354,-0.1022c-7.66706,-0.19573 -16.48085,0.5874 -23.90115,-1.30665z" fill="#ffffff" stroke="#000000" stroke-width="2.5" stroke-linecap="round"/><path d="M281.80542,136.90099c0.04017,2.63547 1.29872,4.70576 1.21849,7.64113c-0.14052,5.14126 -6.18569,11.03261 -10.59785,5.34795c-3.83045,-4.93519 4.91021,-13.7497 9.62563,-13.62932z" fill="#ffffff" stroke="#000000" stroke-width="2.5" stroke-linecap="round"/><path d="M305.4791,106.54681c-1.41054,5.9854 -17.51842,13.1283 -23.4453,12.79026c-3.27294,-0.18668 -8.09843,-0.94415 -9.40234,-4.4617" fill="none" stroke="#000000" stroke-width="2.5" stroke-linecap="round"/><path d="M233.74841,244.65718c1.90119,1.89602 1.96206,4.39828 3.75882,5.77974c0.32684,0.25129 5.67843,2.91677 6.39998,5.05172c1.85746,5.49591 -1.00209,13.69318 -6.60992,14.26468c-1.85456,0.189 -6.91649,-1.55079 -6.91649,-1.55079c0,0 -7.6142,-8.06597 -10.78031,-12.63168l-0.44876,-0.16985c2.35306,3.16307 8.81038,7.87455 8.81038,7.87455c0,0 2.51242,6.08928 1.37233,8.73558c-0.46684,1.08359 0.02362,1.76457 -0.08123,2.81003c-0.19528,1.94722 -4.36607,3.95515 -5.99034,4.02528c-8.66068,0.37395 -21.85929,-17.93984 -14.57029,-22.99444l0.52884,0.29405c0.43361,-2.15225 -1.52823,-3.02656 -1.41215,-4.76939c0.39389,-5.91376 7.14077,-9.23074 9.66648,-13.44124c1.18435,-1.97436 1.06602,-4.77602 2.42415,-6.57768c7.24192,-9.60693 23.59609,-26.2694 38.11073,-16.14077c1.25229,0.87387 3.43128,3.38335 4.84983,6.40671c2.37203,5.05552 3.61436,11.4516 2.13699,13.33496c-0.84422,1.07623 -4.07236,5.02635 -7.603,5.30597c-4.21685,0.33396 -8.81022,-3.12324 -9.53671,-3.20312c-2.41482,-0.2655 9.72352,14.76283 9.25465,16.99097c-0.62548,2.97241 -9.22332,5.71138 -11.96969,1.75095" fill="#ce6026" stroke="#000000" stroke-width="2.5" stroke-linecap="round"/><path d="M376.59522,264.22555c-2.59895,4.05869 -11.29166,1.63758 -12.02597,-1.30983c-0.55044,-2.20939 11.02734,-17.6737 8.62391,-17.31963c-0.72307,0.10652 -5.18627,3.73022 -9.41255,3.55147c-3.53853,-0.14966 -6.90967,-3.97848 -7.79288,-5.02295c-1.5456,-1.82779 -0.5392,-8.2652 1.64542,-13.40448c1.30646,-3.07346 3.39176,-5.66133 4.61108,-6.58064c14.13255,-10.65526 31.08809,5.39486 38.67822,14.72913c1.42344,1.75053 1.40815,4.55463 2.66428,6.48413c2.67876,4.11481 9.543,7.18159 10.15397,13.07687c0.18006,1.73739 -1.74833,2.68321 -1.23591,4.81806l0.51766,-0.31329c7.46985,4.78328 -5.04671,23.5698 -13.71529,23.51443c-1.62574,-0.01038 -5.86752,-1.86366 -6.13424,-3.80237c-0.14319,-1.04091 0.32189,-1.73945 -0.18445,-2.80515c-1.23657,-2.60261 1.05033,-8.78012 1.05033,-8.78012c0,0 6.27979,-4.94563 8.515,-8.19305l-0.44222,0.18623c-2.99616,4.67898 -10.30875,13.01937 -10.30875,13.01937c0,0 -4.99456,1.92468 -6.85482,1.80397c-5.62506,-0.365 -8.78393,-8.45163 -7.12974,-14.0121c0.64259,-2.16002 5.8926,-5.02041 6.20999,-5.28354c1.74477,-1.44655 1.71365,-3.94937 3.54387,-5.91399" fill="#ce6026" stroke="#000000" stroke-width="2.5" stroke-linecap="round"/></g></g></svg>