<svg version="1.1" xmlns="http://www.w3.org/2000/svg" xmlns:xlink="http://www.w3.org/1999/xlink" width="170.67941" height="369.50584" viewBox="0,0,170.67941,369.50584"><defs><radialGradient cx="312.36895" cy="77.46857" r="5.70087" gradientUnits="userSpaceOnUse" id="color-1"><stop offset="0" stop-color="#ffffff"/><stop offset="1" stop-color="#1a1a1a"/></radialGradient><radialGradient cx="345.78786" cy="84.19089" r="6.07229" gradientUnits="userSpaceOnUse" id="color-2"><stop offset="0" stop-color="#ffffff"/><stop offset="1" stop-color="#1a1a1a"/></radialGradient></defs><g transform="translate(-228.47107,-12.82843)"><g data-paper-data="{&quot;isPaintingLayer&quot;:true}" fill-rule="nonzero" stroke-linejoin="miter" stroke-miterlimit="10" stroke-dasharray="" stroke-dashoffset="0" style="mix-blend-mode: normal"><path d="M298.00019,235.26223c5.84331,-0.22445 13.74036,-1.88145 19.60777,-3.12569c6.39751,-1.35664 15.07876,-0.20356 21.64076,-0.29216c3.85462,-0.05202 15.65759,0.68575 15.65759,0.68575l2.36129,6.56623l6.8887,21.04449l1.11565,24.38799c0,0 2.75496,30.8898 -1.78743,46.47809c-1.98634,6.81668 6.44513,14.88483 -2.55447,19.15705c-3.18686,1.51282 -11.0658,10.97254 -14.61478,11.02046c-5.14852,0.0695 -11.43885,-6.47327 -17.75172,-7.85005c-8.03808,-1.75304 -24.60496,2.24739 -24.60496,2.24739l-8.54026,-7.84025l1.62282,-22.31462c0,0 -0.01986,-33.19629 0.86439,-54.62614c0.29059,-7.04171 -4.5641,-30.54979 -1.3505,-35.5179z" fill="#3c2c1f" stroke="#000000" stroke-width="2" stroke-linecap="round"/><path d="M329.55562,352.11139l0.20772,-102.70007" fill="none" stroke="#000000" stroke-width="2" stroke-linecap="round"/><path d="M331.45396,359.7254c0.05679,11.60066 -0.55631,21.45923 -11.63911,21.60887c-11.0828,0.14961 -28.49525,-21.06706 -28.49525,-21.06706c0,0 8.88157,-21.12618 19.96438,-21.27577c11.0828,-0.14961 20.11321,9.13328 20.16999,20.73398z" fill="#000000" stroke="#000000" stroke-width="2" stroke-linecap="butt"/><path d="M371.03389,355.70607c0.05678,11.60069 -2.95447,21.93708 -14.03727,22.08669c-11.08278,0.14961 -26.04032,-9.94421 -26.09712,-21.54489c-0.05678,-11.60069 8.88156,-21.12617 19.96438,-21.27577c11.0828,-0.14961 20.11321,9.13329 20.16999,20.73398z" fill="#000000" stroke="#000000" stroke-width="2" stroke-linecap="butt"/><path d="M312.27415,225.98648c-7.50155,4.70242 -27.77761,1.04251 -27.77761,1.04251l-54.81454,-56.88674l24.35013,-48.59982l21.04837,-3.29912l0.70473,7.59979l-13.01792,11.86943l-6.62545,43.63668c0,0 28.70332,19.53304 44.45903,15.47827c8.14461,-2.09605 15.96164,-7.34898 24.67645,-5.75243c25.83763,4.73344 3.23432,30.39772 -11.75974,35.11486z" fill="#feed00" stroke="#000000" stroke-width="2" stroke-linecap="round"/><path d="M351.38366,211.29774l13.78168,-14.32261l16.0346,25.66275l-2.59438,7.16986l-2.51812,-2.01699l0.69688,5.81544l-3.24908,9.8775l-5.40744,-5.30678l-7.7732,5.95716l-5.70163,-14.24648c0,0 -5.19366,4.21213 -8.94443,-3.16671c-3.44966,-6.78655 5.45502,-15.72701 5.45502,-15.72701z" fill="#feed00" stroke="#000000" stroke-width="2" stroke-linecap="round"/><path d="M371.53037,217.65783l-2.43295,4.51454l-4.47423,-3.65963l-3.97778,-2.96011l3.9601,-7.89288l6.8993,-4.14725l0.02556,14.14534z" fill="#ffa600" stroke="none" stroke-width="2" stroke-linecap="butt"/><path d="M352.38534,224.43495c0,0 -1.72411,3.97835 -3.50805,2.99679c-1.78392,-0.9816 -3.10565,-3.91477 -2.95214,-6.55143c0.15349,-2.63667 1.72411,-3.97835 3.50804,-2.9968c1.78392,0.9816 2.95215,6.55142 2.95215,6.55142z" fill="#ffa600" stroke="none" stroke-width="2" stroke-linecap="butt"/><path d="M365.26112,239.46856l-3.46397,2.95535l-2.91547,-6.46555l3.46396,-2.95535z" fill="#ffa600" stroke="none" stroke-width="2" stroke-linecap="butt"/><path d="M374.91535,236.83169l-2.89499,3.20273l-2.35391,-6.09085l2.89499,-3.20273z" fill="#ffa600" stroke="none" stroke-width="2" stroke-linecap="butt"/><path d="M380.2395,222.68082l-2.03226,3.41465l-1.52086,-5.36968l2.03226,-3.41466z" fill="#ffa600" stroke="none" stroke-width="2" stroke-linecap="butt"/><path d="M287.31882,223.09758c3.3726,-0.77976 10.03929,6.99951 7.59875,14.38956c-2.65357,8.03504 -7.0984,3.59228 -8.36734,4.94047c-0.24436,0.2596 3.0767,12.67663 0.44643,15.60606c-4.86106,5.41396 -8.50258,-4.28957 -8.50258,-4.28957l-4.57912,6.32997l-4.59804,-9.07351l-4.18711,-6.27897l1.85538,2.90604l-7.62212,-6.94426l16.77023,-28.06863c0,0 7.87823,7.34348 11.01159,10.8271z" fill="#feed00" stroke="#000000" stroke-width="2" stroke-linecap="round"/><path d="M270.80961,220.34713l7.38556,2.68363l0.42346,6.48852l-3.50184,3.72645l-3.8922,4.51683l-3.03575,-3.95421l2.62081,-13.46125z" fill="#ffa600" stroke="none" stroke-width="2" stroke-linecap="butt"/><path d="M289.99789,229.53551c1.61936,-1.33029 3.35686,-0.32751 3.8808,2.23977c0.52392,2.56727 -0.36412,5.72685 -1.9835,7.05711c-1.61936,1.33029 -3.35687,0.32752 -3.8808,-2.23975c-0.52392,-2.56727 0.3641,-5.72685 1.9835,-7.05712z" fill="#ffa600" stroke="none" stroke-width="2" stroke-linecap="butt"/><path d="M283.46128,247.46888c0,0 3.31456,-0.32514 3.83148,2.20786c0.51693,2.53302 -0.36036,5.65138 -1.95948,6.96502c-1.59914,1.31364 -3.83149,-2.20786 -3.83149,-2.20786z" fill="#ffa600" stroke="none" stroke-width="2" stroke-linecap="butt"/><path d="M269.02175,246.91167l7.35769,2.9734l-1.45902,6.48153l-3.30573,-2.56742z" fill="#ffa600" stroke="none" stroke-width="2" stroke-linecap="butt"/><path d="M261.05559,234.92902l2.48544,2.95179l-0.73992,5.60133l-2.48543,-2.95178z" fill="#ffa600" stroke="none" stroke-width="2" stroke-linecap="butt"/><path d="M291.91032,200.36153c-1.15024,7.24468 -8.63595,27.76867 -8.63595,27.76867l-25.14529,-4.12474l7.29517,-24.91917l14.16285,-62.98209c0,0 5.47855,-10.06676 6.98986,-15.53085l1.17564,-0.07029c13.20821,1.58455 25.37621,6.92049 39.06479,3.76681c5.47836,-1.26214 9.385,-3.84248 13.10179,-8.54411c0.84979,-1.07496 3.34316,-3.7043 4.86477,-2.78359c3.42459,2.07224 8.02847,14.77244 8.02847,14.77244l18.81764,49.11663l5.99373,17.52869l-17.63752,19.99778l-5.33393,3.81475l-1.12358,-26.55297l-0.92424,27.94437l1.62157,15.62461c0,0 -10.06819,5.22615 -12.92224,5.87474c-11.54482,2.62352 -23.7386,1.34178 -35.27124,4.00646c-3.74848,0.86611 -9.04256,5.40346 -12.55384,3.7186c-1.87139,-0.898 -5.42317,-7.5221 -5.56176,-9.46922c-0.6102,-8.5721 -2.49767,-18.29437 -1.5922,-26.84983" fill="#fffe8a" stroke="#000000" stroke-width="2" stroke-linecap="round"/><path d="M304.67643,166.47168c1.2774,0.44613 4.68507,-0.19046 5.28704,1.47429c2.01891,5.58333 -1.60726,11.14769 -6.52319,10.49388c-3.27348,-0.43536 1.56562,-12.79581 1.56562,-12.79581c0,0 -1.56248,-26.49817 0.0307,-39.57401" fill="#ffaf36" stroke="#000000" stroke-width="2" stroke-linecap="round"/><path d="M331.38801,164.41347c8.71323,-12.90771 9.74767,19.18061 -0.60508,11.19085c-5.60527,-4.32587 0.59724,-9.4843 0.90093,-12.34238c1.43338,-13.49061 -4.55729,-27.1712 -1.92795,-40.96954" fill="#ffaf36" stroke="#000000" stroke-width="2" stroke-linecap="round"/><path d="M295.21138,202.95899c3.30703,-3.51955 7.74834,-3.38592 11.89123,-4.55653c13.36223,-3.77567 28.54542,-4.32382 42.21277,-3.26092" fill="none" stroke="#000000" stroke-width="2" stroke-linecap="round"/><path d="M349.44213,230.72535c-0.81089,-9.90665 2.08412,-31.28853 2.08412,-31.28853" fill="none" stroke="#000000" stroke-width="2" stroke-linecap="round"/><path d="M296.04808,207.64968c0.67555,9.49056 -2.66159,20.27599 -2.18854,29.76696" fill="none" stroke="#000000" stroke-width="2" stroke-linecap="round"/><path d="M274.81748,227.18753l14.47972,-44.30281l-8.77903,43.15682z" fill="#fce541" stroke="#fcec41" stroke-width="2" stroke-linecap="round"/><path d="M272.28795,221.37284l14.47972,-44.30281l-8.77902,43.15682z" fill="#fce541" stroke="#fcec41" stroke-width="2" stroke-linecap="round"/><path d="M358.47501,207.23403l-5.15973,-34.12906l14.97369,26.70295z" fill="#fce541" stroke="#fcec41" stroke-width="2" stroke-linecap="round"/><path d="M296.47897,111.46145c14.18867,-1.55052 27.98459,-3.20267 42.2557,-1.13986c3.04345,0.43992 13.64985,2.27447 12.53073,6.93468c-1.521,6.33366 -8.01492,9.25062 -13.92063,10.2676c-10.64658,1.83339 -35.44884,1.03952 -44.52329,-5.07017c-6.45828,-4.34825 -4.21562,-11.72442 3.81557,-11.2004z" fill="#fffe8a" stroke="#000000" stroke-width="2" stroke-linecap="round"/><path d="M316.52507,50.65876l-20.58453,31.22941l-6.88761,13.62624l0.11596,-2.22232l1.12412,-17.73999l5.05499,-44.20463l3.19999,-17.31899l1.92824,0.42649l10.0947,19.57435l6.75873,16.52008z" fill="#feed00" stroke="#000000" stroke-width="2" stroke-linecap="butt"/><path d="M311.41619,51.65428l-12.75245,22.65126l-4.1659,9.65485l0.0067,-1.46467l0.18612,-11.71367l1.96896,-29.43417l1.58581,-11.66515l1.30125,0.06825l7.36414,11.68782l5.03919,10.05626z" fill="#ffa700" stroke="none" stroke-width="2" stroke-linecap="butt"/><path d="M351.87406,57.33419l10.12744,-11.89494c0,0 9.13782,-9.25375 13.77933,-13.57361c0.90327,-0.84071 1.36544,-1.85933 1.75724,0.1304c0.6114,3.10501 -1.84468,15.03595 -1.84468,15.03595l-7.36311,37.6009l-3.72641,14.86419l-0.48802,1.85584c0,0 -2.11584,-11.56534 -2.27572,-12.92007c-1.45472,-12.32719 -9.30873,-30.80808 -9.30873,-30.80808z" fill="#feed00" stroke="#000000" stroke-width="2" stroke-linecap="butt"/><path d="M356.2126,59.45355l6.95376,-7.01009l9.36759,-7.77135l1.12784,0.26852l-1.72825,9.98532l-6.09428,24.6885c0,0 -2.01541,6.43364 -2.93485,9.67601c-0.11551,0.40732 -0.13505,1.12564 -0.3811,1.20578c-0.59262,0.19294 -0.94879,-8.04319 -1.00323,-8.97629c-0.49537,-8.49088 -4.89429,-21.80237 -4.89429,-21.80237z" fill="#ffa700" stroke="none" stroke-width="2" stroke-linecap="butt"/><path d="M332.14697,50.54537l28.46097,13.04305c0,0 3.39656,14.46419 3.7045,23.17001c0.09457,2.6738 1.3224,7.83206 1.3224,7.83206c0,0 -14.29862,37.05211 -35.60736,35.1251c-17.84704,-1.61393 -44.67767,-26.44474 -44.67767,-26.44474l7.52684,-31.32248l3.78531,-11.26533l35.77823,-9.79992z" fill="#feed00" stroke="#000000" stroke-width="2" stroke-linecap="butt"/><path d="M361.33286,98.16707c4.12928,1.22032 8.77837,12.7936 8.77837,12.7936l-8.13377,2.02625l0.88335,2.68645l-0.60723,8.44908c0,0 -11.49584,1.11972 -13.84832,-2.34179" fill="#feed00" stroke="#000000" stroke-width="2" stroke-linecap="round"/><path d="M290.58721,113.12706l-13.68822,-3.14536l2.67784,-8.03646l1.84562,-2.14265l-6.73579,-4.98928l13.01184,-8.45149" fill="#feed00" stroke="#000000" stroke-width="2" stroke-linecap="round"/><path d="M287.68944,82.77537l-32.48182,-24.21136" fill="none" stroke="#000000" stroke-width="2" stroke-linecap="round"/><path d="M287.79375,84.05078l-30.64588,-10.59263" fill="none" stroke="#000000" stroke-width="2" stroke-linecap="round"/><path d="M286.8631,84.22378l-26.80569,-2.11819" fill="none" stroke="#000000" stroke-width="2" stroke-linecap="round"/><path d="M364.67561,96.68239l33.47486,-12.32774" fill="none" stroke="#000000" stroke-width="2" stroke-linecap="round"/><path d="M361.9181,97.02907c12.28116,-5.53694 33.55858,2.89354 33.55858,2.89354" fill="none" stroke="#000000" stroke-width="2" stroke-linecap="round"/><path d="M390.8605,108.65094l-25.76953,-9.5558" fill="none" stroke="#000000" stroke-width="2" stroke-linecap="round"/><path d="M319.09697,98.73073c3.64827,0.72699 7.53667,1.25585 11.06859,2.42923c0.44826,0.14892 1.27634,0.1089 1.29251,0.58101c0.02115,0.6184 -7.25411,3.01733 -7.99547,2.81141c-1.66708,-0.46305 -3.55734,-4.28362 -3.95562,-5.73994z" fill="#000000" stroke="#000000" stroke-width="2" stroke-linecap="round"/><path d="M323.68902,80.6194c-1.38325,6.94167 -8.04666,11.46461 -14.88315,10.10235c-6.83649,-1.36229 -9.87393,-15.03563 -9.87393,-15.03563c0,0 8.04665,-11.4646 14.88312,-10.10232c6.83649,1.36229 11.25722,8.09395 9.87396,15.03561z" fill="#ffffff" stroke="#000000" stroke-width="2" stroke-linecap="butt"/><path d="M358.16362,87.05826c-1.38325,6.94167 -8.04664,11.46461 -14.88313,10.10234c-6.83649,-1.36229 -11.25718,-8.09396 -9.87394,-15.03561c1.38325,-6.94167 8.04664,-11.46461 14.88312,-10.10234c6.83649,1.36229 11.25718,8.09396 9.87393,15.03562z" fill="#ffffff" stroke="#000000" stroke-width="2" stroke-linecap="butt"/><path d="M317.39402,77.8008c-0.56544,2.83762 -3.79162,6.64759 -6.52009,6.10389c-2.72847,-0.5437 -3.92604,-5.23517 -3.36061,-8.0728c0.56544,-2.83762 3.2357,-4.69721 5.96417,-4.1535c2.72848,0.5437 4.48196,3.28479 3.91653,6.12242z" fill="url(#color-1)" stroke="#000000" stroke-width="2" stroke-linecap="butt"/><path d="M350.82044,84.40334c-0.58371,2.92929 -3.49364,7.14968 -6.31027,6.58843c-2.81663,-0.56125 -4.47339,-5.69164 -3.88966,-8.62095c0.58371,-2.92929 3.34024,-4.84898 6.15688,-4.2877c2.81663,0.56125 4.62677,3.39092 4.04306,6.32023z" fill="url(#color-2)" stroke="#000000" stroke-width="2" stroke-linecap="butt"/><path d="M313.60042,52.88828l8.98903,-4.45536l3.99636,-1.01357l-4.21502,-3.10758l13.89074,0.69814l4.17021,0.82637l-5.01623,-4.5904l5.09551,2.33302l8.96307,12.61599" fill="#feed00" stroke="#000000" stroke-width="2" stroke-linecap="butt"/><path d="M297.03033,66.67746l-3.15112,-5.64307l-5.02758,-4.14309l7.92111,-1.94714l8.29973,-1.60127" fill="#feed00" stroke="#000000" stroke-width="2" stroke-linecap="butt"/><path d="M331.38675,121.04662c-2.55582,-1.08681 -4.16354,-3.77106 -6.46822,-5.36668" fill="none" stroke="#fcec41" stroke-width="2" stroke-linecap="round"/><path d="M314.85608,132.08153l-0.62401,9.56408" fill="none" stroke="#fcec41" stroke-width="2" stroke-linecap="round"/><path d="M316.2057,133.84952l-0.31961,4.89868" fill="none" stroke="#fcec41" stroke-width="2" stroke-linecap="round"/><path d="M322.14724,133.9741l0.45629,3.77798" fill="none" stroke="#fcec41" stroke-width="2" stroke-linecap="round"/><path d="M323.36839,77.73745c0.30822,8.00689 -4.78474,14.70342 -11.37543,14.95713c-6.5907,0.25371 -12.18339,-6.03148 -12.49161,-14.03837c-0.30822,-8.00689 4.78474,-14.70342 11.37543,-14.95713c6.5907,-0.25371 12.18339,6.03148 12.49161,14.03837z" fill="#000000" stroke="none" stroke-width="NaN" stroke-linecap="butt"/><path d="M355.84257,84.88284c0.34806,9.04179 -4.22689,16.55858 -10.21843,16.78922c-5.99155,0.23064 -11.13081,-6.9122 -11.47888,-15.95399c-0.34806,-9.04179 4.22689,-16.55858 10.21843,-16.78922c5.99155,-0.23064 11.13081,6.9122 11.47888,15.95399z" fill="#000000" stroke="none" stroke-width="0" stroke-linecap="butt"/><path d="M305.44742,140.75137l-1.05543,-27.41751l52.07355,-2.00456l1.05543,27.41751z" fill="#000000" stroke="none" stroke-width="0" stroke-linecap="butt"/><path d="M309.55892,129.53082l-0.94153,-24.45878l30.17899,-1.16173l0.94153,24.45878z" fill="#000000" stroke="none" stroke-width="0" stroke-linecap="butt"/><path d="M351.90385,101.87479l-0.04176,-1.08487l1.08487,-0.04176l0.04176,1.08487z" fill="#000000" stroke="none" stroke-width="0" stroke-linecap="butt"/><path d="M328.91928,119.3036l-0.34928,-9.07342l14.00463,-0.5391l0.34928,9.07342z" fill="#000000" stroke="none" stroke-width="0" stroke-linecap="butt"/><path d="M303.40643,133.91601l-0.18223,-4.73396l6.90369,-0.26576l0.18223,4.73396z" fill="#000000" stroke="none" stroke-width="0" stroke-linecap="butt"/><path d="M304.66585,135.84294l-0.00759,-0.19724l7.88994,-0.30372l0.00759,0.19724z" fill="#000000" stroke="none" stroke-width="0" stroke-linecap="butt"/><path d="M334.73094,131.72248l-0.15186,-3.94497l16.7661,-0.64541l0.15186,3.94497z" fill="#000000" stroke="none" stroke-width="0" stroke-linecap="butt"/><path d="M339.15358,123.45307l-0.12908,-3.35322l12.82114,-0.49355l0.12908,3.35322z" fill="#000000" stroke="none" stroke-width="0" stroke-linecap="butt"/><path d="M300.30275,109.73799l-0.17464,-4.53671l11.83489,-0.45558l0.17464,4.53671z" fill="#000000" stroke="none" stroke-width="0" stroke-linecap="butt"/><path d="M298.95998,110.77739l-0.2126,-5.52295l7.88994,-0.30372l0.2126,5.52295z" fill="#000000" stroke="none" stroke-width="0" stroke-linecap="butt"/><path d="M333.58559,137.89033l-0.3265,-8.48168l10.25691,-0.39484l0.3265,8.48168z" fill="#000000" stroke="none" stroke-width="0" stroke-linecap="butt"/><path d="M337.26514,141.10688l-0.03797,-0.98624l6.90369,-0.26576l0.03797,0.98624z" fill="#000000" stroke="none" stroke-width="0" stroke-linecap="butt"/><path d="M306.93394,128.05155l-0.46317,-12.03215l10.45416,-0.40243l0.46317,12.03215z" fill="#000000" stroke="none" stroke-width="0" stroke-linecap="butt"/><path d="M302.55583,106.68816l-0.03797,-0.98624l4.14221,-0.15945l0.03797,0.98624z" fill="#000000" stroke="none" stroke-width="0" stroke-linecap="butt"/><path d="M317.69132,120.1309l-0.31131,-8.08718l3.55047,-0.13667l0.31131,8.08718z" fill="#000000" stroke="none" stroke-width="0" stroke-linecap="butt"/><path d="M319.4976,141.39575l-0.25816,-6.70644l1.97248,-0.07593l0.25816,6.70644z" fill="#000000" stroke="none" stroke-width="0" stroke-linecap="butt"/><path d="M337.18162,138.93714l-0.26576,-6.90369l11.63765,-0.44799l0.26576,6.90369z" fill="#000000" stroke="none" stroke-width="0" stroke-linecap="butt"/><path d="M347.4834,119.1816l-0.25816,-6.70644l6.5092,-0.25057l0.25816,6.70644z" fill="#000000" stroke="none" stroke-width="0" stroke-linecap="butt"/><path d="M307.69965,112.02128l-0.1063,-2.76147l14.99087,-0.57707l0.1063,2.76147z" fill="#000000" stroke="none" stroke-width="0" stroke-linecap="butt"/><path d="M294.7351,134.44736l-0.35687,-9.27067l1.18349,-0.04556l0.35687,9.27067z" fill="#000000" stroke="none" stroke-width="0" stroke-linecap="butt"/><path d="M317.38895,153.32936l-0.12908,-3.35322l14.39913,-0.55429l0.12908,3.35322z" fill="#000000" stroke="none" stroke-width="0" stroke-linecap="butt"/><path d="M354.31219,147.75965l-0.29613,-7.69268l5.32571,-0.20501l0.29613,7.69268z" fill="#000000" stroke="none" stroke-width="0" stroke-linecap="butt"/><path d="M347.93122,125.68321l-0.31891,-8.28442l8.87618,-0.34169l0.31891,8.28442z" fill="#000000" stroke="none" stroke-width="0" stroke-linecap="butt"/><path d="M318.85961,119.69085l-0.2126,-5.52295l11.63765,-0.44799l0.2126,5.52295z" fill="#000000" stroke="none" stroke-width="0" stroke-linecap="butt"/><path d="M312.1768,146.221l-0.33409,-8.67892l1.97248,-0.07593l0.33409,8.67892z" fill="#000000" stroke="none" stroke-width="0" stroke-linecap="butt"/><path d="M329.23162,158.20708l-0.07593,-1.97248l17.75235,-0.68337l0.07593,1.97248z" fill="#000000" stroke="none" stroke-width="0" stroke-linecap="butt"/><path d="M368.65074,150.76343l-0.39484,-10.25691l5.52295,-0.2126l0.39484,10.25691z" fill="#000000" stroke="none" stroke-width="0" stroke-linecap="butt"/><path d="M347.33947,125.70599l-0.36447,-9.46792l17.35785,-0.66819l0.36447,9.46792z" fill="#000000" stroke="none" stroke-width="0" stroke-linecap="butt"/><path d="M312.63879,122.3008l-0.24298,-6.31195l10.84865,-0.41762l0.24298,6.31195z" fill="#000000" stroke="none" stroke-width="0" stroke-linecap="butt"/><path d="M311.26633,143.09539l-0.34928,-9.07342l5.32571,-0.20501l0.34928,9.07342z" fill="#000000" stroke="none" stroke-width="0" stroke-linecap="butt"/><path d="M331.53768,151.40193l-0.03037,-0.789l11.04591,-0.42521l0.03037,0.789z" fill="#000000" stroke="none" stroke-width="0" stroke-linecap="butt"/><path d="M351.86169,145.68105l-0.31891,-8.28442l1.97248,-0.07593l0.31891,8.28442z" fill="#000000" stroke="none" stroke-width="0" stroke-linecap="butt"/></g></g></svg>