<svg version="1.1" xmlns="http://www.w3.org/2000/svg" xmlns:xlink="http://www.w3.org/1999/xlink" width="158.9937" height="308.30546" viewBox="0,0,158.9937,308.30546"><defs><linearGradient x1="345.74849" y1="169.19385" x2="320.19338" y2="348.03841" gradientUnits="userSpaceOnUse" id="color-1"><stop offset="0" stop-color="#353535"/><stop offset="1" stop-color="#565656"/></linearGradient><linearGradient x1="311.78198" y1="160.49032" x2="285.05492" y2="347.53657" gradientUnits="userSpaceOnUse" id="color-2"><stop offset="0" stop-color="#6c8dd1"/><stop offset="1" stop-color="#002994"/></linearGradient><linearGradient x1="381.05821" y1="161.43937" x2="354.33115" y2="348.48563" gradientUnits="userSpaceOnUse" id="color-3"><stop offset="0" stop-color="#6c8dd1"/><stop offset="1" stop-color="#002994"/></linearGradient><linearGradient x1="346.13302" y1="168.7474" x2="342.91725" y2="191.2526" gradientUnits="userSpaceOnUse" id="color-4"><stop offset="0" stop-color="#dadada"/><stop offset="1" stop-color="#bebebe"/></linearGradient><linearGradient x1="345.81823" y1="76.89035" x2="345.81823" y2="183.32596" gradientUnits="userSpaceOnUse" id="color-5"><stop offset="0" stop-color="#dadada"/><stop offset="1" stop-color="#bebebe"/></linearGradient><linearGradient x1="343.37832" y1="76.00996" x2="347.92327" y2="114.39368" gradientUnits="userSpaceOnUse" id="color-6"><stop offset="0" stop-color="#dadada"/><stop offset="1" stop-color="#bebebe"/></linearGradient><linearGradient x1="345.05356" y1="54.07956" x2="345.05356" y2="91.15248" gradientUnits="userSpaceOnUse" id="color-7"><stop offset="0" stop-color="#dadada"/><stop offset="1" stop-color="#bebebe"/></linearGradient></defs><g transform="translate(-263.1587,-44.61687)"><g stroke-miterlimit="10"><g stroke-width="2.5" stroke-linejoin="miter"><path d="M277.27409,344.39978l19.08905,-147.27579c0,0 9.75532,-25.69821 18.81979,-26.10344c9.00176,-0.40242 30.28176,-0.95905 48.91887,-1.79223c20.21414,-0.90368 24.71235,16.2629 24.71235,16.2629l-23.70214,162.54719z" fill="url(#color-1)" stroke="#000000" stroke-linecap="butt"/><path d="M264.4087,343.73108l18.07383,-141.75369c0,0 5.01132,-17.19302 9.46535,-17.61683c4.42322,-0.42087 27.60481,-16.36148 36.76258,-17.23287c9.93268,-0.94512 -11.44051,19.10912 -11.44051,19.10912c0,0 -3.32379,30.56597 -6.13947,59.55455c-1.52595,15.71033 -2.90265,30.95736 -3.52017,40.62468c-1.67341,26.19743 -0.64372,61.12053 -0.64372,61.12053c0,0 -25.77466,2.47305 -33.3367,1.79685c-6.44441,-0.57626 -9.22119,-5.60235 -9.22119,-5.60235z" fill="url(#color-2)" stroke="#000000" stroke-linecap="butt"/><path d="M333.39394,351.63639c0,0 10.74231,-35.78872 16.46356,-62.2838c6.00688,-27.8179 18.76259,-100.84859 18.76259,-100.84859c0,0 -14.81902,-17.39295 -5.59216,-17.85667c8.50702,-0.42754 28.22371,7.891 32.33262,7.68449c4.13753,-0.20794 6.07287,19.77368 6.07287,19.77368l-26.31086,143.52764c0,0 -0.09412,6.13095 -6.33797,7.62773c-7.45116,1.7862 -35.39065,2.37552 -35.39065,2.37552z" fill="url(#color-3)" stroke="#000000" stroke-linecap="butt"/><path d="M357.68202,180c-0.88801,6.21464 -7.49843,11.2526 -14.76477,11.2526c-7.26635,0 -12.43701,-5.03796 -11.54899,-11.2526c0.88801,-6.21464 7.49843,-11.2526 14.76477,-11.2526c7.26635,0 12.43701,5.03796 11.54899,11.2526z" fill="url(#color-4)" stroke="#000000" stroke-linecap="butt"/><path d="M324.85866,231.00686l26.96693,0.26475" fill="none" stroke="#ffffff" stroke-linecap="round"/><path d="M335.75087,245.56825l3.5939,-25.1515" fill="none" stroke="#ffffff" stroke-linecap="round"/><path d="M349.48103,219.88725l-10.59041,9.26634" fill="none" stroke="#ffffff" stroke-linecap="round"/><path d="M344.86613,239.21419l-7.82884,-8.20733l-7.60186,-9.79585" fill="none" stroke="#ffffff" stroke-linecap="round"/><path d="M338.09629,231.00686l-10.40132,9.79585" fill="none" stroke="#ffffff" stroke-linecap="round"/><path d="M362.11733,231.50694l3.66913,-12.70812l14.637,1.32376l-1.55105,10.85486" fill="none" stroke="#000000" stroke-linecap="round"/><path d="M370.66068,236.56666l-21.08941,112.38782" fill="none" stroke="#000000" stroke-linecap="round"/><path d="M300.82276,234.3166l-9.68608,112.2551" fill="none" stroke="#000000" stroke-linecap="round"/><path d="M296.3598,234.05185l0.56764,-9.53109l11.61128,0.26475l-0.26512,11.11961" fill="none" stroke="#000000" stroke-linecap="round"/></g><g stroke-linecap="butt"><path d="M400.46864,132.33281c-1.94104,28.48816 -27.92848,52.9286 -58.11114,50.8721c-30.18266,-2.05649 -53.13099,-29.83117 -51.18995,-58.31932c1.94104,-28.48815 27.98246,-49.91526 58.16512,-47.85875c30.18266,2.05649 53.07703,26.81782 51.13599,55.30597z" fill="url(#color-5)" stroke="#000000" stroke-width="2.5" stroke-linejoin="miter"/><path d="M354.63053,130.38327c0,28.78589 -8.99421,52.31392 -8.99421,52.31392c0,0 -8.57482,-23.52803 -8.57482,-52.31392c0,-8.62488 -5.89369,-24.1785 -5.26862,-31.34372c1.46112,-16.74899 10.65522,-20.77775 14.05314,-20.77775c3.20425,0 12.25457,6.27488 13.78901,21.48043c0.78885,7.81717 -5.00449,20.86704 -5.00449,30.64104z" fill-opacity="0.23529" fill="#000000" stroke="none" stroke-width="0" stroke-linejoin="round"/></g><path d="M360.07021,122.42552c0.01376,2.70881 -6.62742,4.93852 -14.83351,4.98021c-8.20609,0.04169 -14.86959,-2.12043 -14.88334,-4.82924c-0.01376,-2.70881 6.62743,-4.93852 14.83352,-4.98021c8.20609,-0.04169 14.86959,2.12043 14.88335,4.82924z" fill-opacity="0.23137" fill="#000000" stroke="none" stroke-width="0" stroke-linecap="butt" stroke-linejoin="miter"/><path d="M324.89573,120.98137c-0.15191,2.2297 -2.25895,3.90205 -4.70617,3.73531c-2.44723,-0.16674 -4.30794,-2.10944 -4.15603,-4.33913c0.15191,-2.22971 2.25895,-3.90205 4.70617,-3.73531c2.44723,0.16674 4.30793,2.10943 4.15602,4.33914z" fill="#ffffff" stroke="#000000" stroke-width="2.5" stroke-linecap="butt" stroke-linejoin="miter"/><path d="M374.06989,120.99229c-0.15191,2.22971 -2.25895,3.90205 -4.70617,3.73531c-2.44723,-0.16674 -4.30793,-2.10944 -4.15602,-4.33913c0.15191,-2.2297 2.25894,-3.90204 4.70617,-3.7353c2.44723,0.16674 4.30794,2.10943 4.15603,4.33913z" fill="#ffffff" stroke="#000000" stroke-width="2.5" stroke-linecap="butt" stroke-linejoin="miter"/><path d="M382.95658,117.39311l-3.36249,10.45249l-18.59258,0.62715l-1.97793,-11.49774l-27.69107,-0.20905l-1.18676,10.87059l-21.16389,0.4181l-3.16469,-10.0344" fill="none" stroke="#000000" stroke-width="2.5" stroke-linecap="round" stroke-linejoin="miter"/><path d="M312.08867,117.16083c0,0 5.29523,-1.87761 7.84694,-1.98248c2.53506,-0.10418 7.4137,1.35533 7.4137,1.35533" fill="none" stroke="#000000" stroke-width="2.5" stroke-linecap="round" stroke-linejoin="miter"/><path d="M363.51494,116.32463c0,0 4.57648,-1.51578 6.91119,-1.44395c2.18473,0.06722 6.67705,1.86205 6.67705,1.86205" fill="none" stroke="#000000" stroke-width="2.5" stroke-linecap="round" stroke-linejoin="miter"/><g stroke-linecap="butt" stroke-linejoin="miter"><path d="M420.8674,86.29554c1.25505,10.59937 -31.40314,23.17934 -72.94413,28.09814c-41.54099,4.9188 -76.23403,0.31378 -77.48908,-10.28559c-1.25505,-10.59937 31.40314,-23.17933 72.94413,-28.09813c41.54099,-4.9188 76.23403,-0.31379 77.48908,10.28558z" fill="url(#color-6)" stroke="#000000" stroke-width="2.5"/><path d="M406.17777,88.09593c0.76864,6.49146 -27.25597,15.14595 -62.59473,19.33035c-35.33876,4.1844 -64.60959,2.31418 -65.37823,-4.17728c-0.59356,-5.01284 15.98305,-11.31556 39.83877,-15.85362c-11.26738,3.09703 -18.28673,6.62149 -17.93431,9.5978c0.62011,5.23708 23.82935,6.79394 51.83928,3.47733c28.00993,-3.31661 50.21376,-10.25076 49.59364,-15.48784c-0.02564,-0.21654 -0.0899,-0.42677 -0.1915,-0.63064c2.94789,0.9891 4.64935,2.24297 4.82707,3.74389z" fill-opacity="0.21961" fill="#000000" stroke="none" stroke-width="0"/></g><path d="M342.14128,91.15248c0,0 -1.32377,-25.83343 -1.32377,-31.92986c0,-0.72518 -4.51177,-1.31967 -5.9314,-2.65717c-3.37018,-3.1752 -5.55267,-7.70498 -5.55267,-7.70498c0,0 10.71889,6.72279 12.6907,6.64559c1.56655,-0.06133 2.35615,-1.4265 2.76467,-1.4265c0.36363,0 2.11892,1.17142 3.59452,1.23346c2.62613,0.11041 14.95192,-6.97005 14.95192,-6.97005c0,0 -3.22996,4.86048 -7.29147,7.98179c-2.30262,1.76959 -6.48942,2.01261 -6.48942,2.89787c0,6.09642 -1.58852,31.92986 -1.58852,31.92986c0,0 7.45362,5.92074 6.79473,6.47538c-0.67191,0.5656 -9.46143,-4.23471 -9.97176,-4.23471c-0.4386,0 -8.31718,4.13934 -8.84685,3.60811c-0.58464,-0.58637 6.19932,-5.84878 6.19932,-5.84878z" fill="url(#color-7)" stroke="#000000" stroke-width="2.5" stroke-linecap="butt" stroke-linejoin="miter"/><path d="M323.52169,172.8788l4.50071,-3.55319l40.26952,1.1844l0.94752,2.60567z" fill="none" stroke="#000000" stroke-width="2.5" stroke-linecap="round" stroke-linejoin="miter"/></g></g></svg>