<svg version="1.1" xmlns="http://www.w3.org/2000/svg" xmlns:xlink="http://www.w3.org/1999/xlink" width="35.17311" height="35.17311" viewBox="0,0,35.17311,35.17311"><g transform="translate(-222.41348,-162.41348)"><g data-paper-data="{&quot;isPaintingLayer&quot;:true}" stroke-miterlimit="10" stroke-dasharray="" stroke-dashoffset="0" style="mix-blend-mode: normal"><path d="M229.98314,162.91349h20.03379c3.9166,0 7.06966,3.15307 7.06966,7.06966v20.03379c0,3.91659 -3.15306,7.06966 -7.06966,7.06966h-20.03379c-3.91659,0 -7.06966,-3.15307 -7.06966,-7.06966v-20.03379c0,-3.91659 3.15307,-7.06966 7.06966,-7.06966z" fill="#000000" fill-rule="evenodd" stroke="#ffffff" stroke-width="1" stroke-linecap="round" stroke-linejoin="round"/><path d="M229.98315,162.9135h20.03378c3.9166,0 7.06966,3.15307 7.06966,7.06966v20.03379c0,3.91659 -3.15306,7.06966 -7.06966,7.06966h-20.03378c-3.91659,0 -7.06967,-3.15307 -7.06967,-7.06966v-20.03379c0,-3.91659 3.15308,-7.06966 7.06967,-7.06966z" fill="#ffffff" fill-rule="evenodd" stroke="none" stroke-width="4.43922" stroke-linecap="round" stroke-linejoin="round"/><path d="M225.37548,190.14365l-0.02637,-0.01507l-0.01431,-0.05726c-0.1504,-0.28088 -0.23569,-0.60185 -0.23569,-0.94274v-0.75l0.02731,-0.10926l-0.01508,-0.11161l0.24696,-2.22265l0.24427,-2.93122l0.12154,-2.91692v-3.08335l0.02348,-0.09391l-0.01447,-0.09571l0.24828,-2.6069l0.12361,-1.60687l0.07979,-0.23936l-0.02596,-0.09232l0.08699,-0.09078l0.18514,-0.55543l0.63573,-0.30113l0.48672,-0.50788h0.58547l0.11363,-0.05382l0.07937,0.05382h0.25231l0.39138,0.09784l0.02336,-0.00807l0.05294,0.02715l0.03233,0.00808l0.41422,0.22092l0.41772,0.21422l0.02508,0.02194l0.05249,0.028l0.00669,0.02379l1.91574,1.67627l0.06624,0.09539l0.09663,0.06442l3.1985,3.51835l0.61657,-0.96889l1.6082,-2.72157l0.04925,-0.04991l0.02452,-0.06569l1.375,-2l0.07905,-0.06983l0.00729,-0.0465l0.08217,-0.03253l0.60402,-0.53355l0.61452,0.05121l0.57337,-0.22696l0.73264,0.33579l0.08807,0.00734l0.02045,0.0424l0.09588,0.04395l0.49767,0.39814l0.01766,0.00121l0.03247,0.03889l0.07721,0.06176l0.26777,0.35145l0.28316,0.33917l0.04306,0.089l0.0307,0.0403l-0.00274,0.01749l1.76778,3.65342l1.21204,2.05114l0.0569,-0.1345l0.05577,-0.07409l0.0226,-0.08994l2.875,-5.375l0.6921,-0.76387l0.35348,-0.00989l0.23292,-0.22322l0.70074,0.19708l0.72764,-0.02037l0.1715,0.27325l0.34041,0.09574l0.48507,0.90951l0.125,0.5v0.09178l0.03574,0.08454l0.61751,3.95205l-0.00795,0.08814l0.02727,0.08419l0.50118,7.3306l0.73518,4.53363l-0.01369,0.16221l0.03948,0.15793v2.875l-0.25,1l-0.43437,0.24821l-0.22504,0.44681l-0.98548,0.30221l-2.375,0.125l-0.15145,-0.0295l-0.15267,0.02234l-9.94059,-0.99406l-3.06534,-0.12261l-0.00165,-0.00048l-0.00168,0.00035l-3,-0.125l-0.03758,-0.01108l-0.03865,0.00644l-3.04538,-0.24363h-2.04513l-0.16217,-0.04054l-0.16663,0.01333l-0.58673,-0.09779h-0.33447l-1,-0.25l-1,-1.75l0.02508,-0.04388c-0.19986,-0.15506 -0.36953,-0.34718 -0.49871,-0.56605zM231.3836,188.88496l3.08693,0.24695l2.96018,0.12334l3.12334,0.12493l0.05863,0.01717l0.06045,-0.00885l9.84821,0.98482l0.32778,-0.01725v-0.81639l-0.72421,-4.46597l0.00793,-0.09399l-0.02907,-0.08973l-0.38476,-5.62778l-1.27796,3.02064l-0.03901,0.05183l-0.01407,0.06332l-0.25,0.5l-0.67082,0.78262l-0.0775,0.00431l-0.02308,0.0405l-0.95663,0.01393l-0.95526,0.05307l-0.02585,-0.03878l-0.07761,0.00113l-0.72396,-0.73374l-3.25,-5.5l-0.02414,-0.08126l-0.05433,-0.06507l-0.75174,-1.55359l-1.22609,2.07493l-0.02381,0.02413l-0.01072,0.03216l-0.875,1.375l-0.00344,0.00327l-0.00152,0.0045l-1.125,1.75l-0.23857,0.22425l-0.02958,0.10844l-0.12086,0.03296l-0.36205,0.34033l-0.74343,-0.03884l-0.71821,0.19588l-0.42609,-0.25565l-0.1251,-0.00654l-0.05194,-0.09969l-0.28076,-0.16846l-1.25,-1.25l-0.02509,-0.04182l-0.04058,-0.02705l-3.10552,-3.41608l-0.0396,0.41575v3.02998l-0.01036,0.04143l0.00862,0.04183l-0.125,3l-0.01203,0.04082l0.00686,0.04201l-0.25,3l-0.00911,0.02676l0.00379,0.02801l-0.23777,2.13991v0.36164l0.16553,0.02759h1.95947l0.07908,0.01977z" fill="#000000" fill-rule="nonzero" stroke="none" stroke-width="0.5" stroke-linecap="butt" stroke-linejoin="miter"/><path d="M231.26163,188.92616l-0.07924,-0.02001l-1.96176,-0.00381l-0.16572,-0.02796l-0.0006,-0.36281l0.23475,-2.1475l-0.00382,-0.02813l0.00908,-0.02686l0.24789,-3.01345l-0.00686,-0.04221l0.01203,-0.04102l0.12687,-3.0141l-0.00858,-0.042l0.01041,-0.04163l0.00487,-3.04132l0.12509,-0.3639l3.10925,3.40892l0.0406,0.027l0.02516,0.04164l1.25186,1.24472l0.28096,0.16775l0.05213,0.09898l0.12504,0.00675l0.32905,0.23151l0.71929,-0.19976l0.74428,0.0364l0.3647,-0.34616l0.12147,-0.03407l0.03038,-0.10981l0.2412,-0.22815l1.14582,-1.76622l0.00156,-0.00451l0.00349,-0.00329l0.88752,-1.37837l0.01086,-0.03218l0.02406,-0.02416l1.23625,-2.07516l0.75909,1.55472l0.05489,0.06521l0.0245,0.08135l3.28779,5.54767l0.7236,0.74063l0.07762,-0.00123l-0.07339,0.02652l0.95511,-0.05174l0.95656,-0.0132l0.02305,-0.04021l0.07749,-0.00424l0.67068,-0.77752l0.25016,-0.49708l0.0141,-0.06296l0.03903,-0.05154l1.37426,-3.04374l0.38747,5.6548l0.02899,0.09013l-0.00802,0.09444l0.71815,4.4819l-0.00143,0.81866l-0.32821,0.01789l-9.88385,-0.96352l-0.06092,0.0089l-0.05907,-0.01713l-3.14702,-0.12851l-2.97478,-0.13261l-3.0947,-0.25596z" data-paper-data="{&quot;noHover&quot;:false,&quot;origItem&quot;:[&quot;Path&quot;,{&quot;applyMatrix&quot;:true,&quot;segments&quot;:[[231.3836,188.88496],[234.47053,189.13191],[237.43071,189.25525],[240.55405,189.38018],[240.61267,189.39736],[240.67312,189.38851],[250.52133,190.37333],[250.84911,190.35608],[250.84911,189.5397],[250.1249,185.07373],[250.13283,184.97974],[250.10377,184.89],[249.71901,179.26223],[248.44104,182.28287],[248.40203,182.33469],[248.38796,182.39801],[248.13796,182.89801],[247.46714,183.68064],[247.38964,183.68494],[247.36657,183.72544],[246.40994,183.73937],[245.45468,183.79244],[245.42883,183.75366],[245.35122,183.75479],[244.62726,183.02105],[241.37726,177.52105],[241.35312,177.43978],[241.29879,177.37471],[240.54705,175.82112],[239.32096,177.89605],[239.29715,177.92018],[239.28643,177.95234],[238.41143,179.32734],[238.40799,179.3306],[238.40647,179.3351],[237.28147,181.0851],[237.0429,181.30936],[237.01332,181.4178],[236.89247,181.45076],[236.53041,181.79109],[235.78699,181.75226],[235.06878,181.94813],[234.64269,181.69248],[234.51759,181.68594],[234.46566,181.58626],[234.1849,181.4178],[232.9349,180.1678],[232.90981,180.12598],[232.86923,180.09893],[229.7637,176.68286],[229.72411,177.09861],[229.72411,180.12859],[229.71375,180.17002],[229.72238,180.21185],[229.59738,183.21185],[229.58534,183.25267],[229.5922,183.29468],[229.3422,186.29468],[229.33309,186.32144],[229.33688,186.34945],[229.09911,188.48936],[229.09911,188.851],[229.26463,188.87859],[231.22411,188.87859],[231.30319,188.89836]],&quot;closed&quot;:true}]}" fill="#ffeb0a" fill-rule="nonzero" stroke="none" stroke-width="0.5" stroke-linecap="butt" stroke-linejoin="miter"/></g></g></svg>