<svg version="1.1" xmlns="http://www.w3.org/2000/svg" xmlns:xlink="http://www.w3.org/1999/xlink" width="35.17311" height="35.17311" viewBox="0,0,35.17311,35.17311"><g transform="translate(-302.41348,-162.4135)"><g data-paper-data="{&quot;isPaintingLayer&quot;:true}" stroke-miterlimit="10" stroke-dasharray="" stroke-dashoffset="0" style="mix-blend-mode: normal"><path d="M309.98314,162.9135h20.03379c3.9166,0 7.06966,3.15307 7.06966,7.06966v20.03379c0,3.91659 -3.15306,7.06966 -7.06966,7.06966h-20.03379c-3.91659,0 -7.06966,-3.15307 -7.06966,-7.06966v-20.03379c0,-3.91659 3.15307,-7.06966 7.06966,-7.06966z" fill="#000000" fill-rule="evenodd" stroke="#ffffff" stroke-width="1" stroke-linecap="round" stroke-linejoin="round"/><path d="M309.98315,162.91351h20.03378c3.9166,0 7.06966,3.15307 7.06966,7.06966v20.03379c0,3.91659 -3.15306,7.06966 -7.06966,7.06966h-20.03378c-3.91659,0 -7.06967,-3.15307 -7.06967,-7.06966v-20.03379c0,-3.91659 3.15308,-7.06966 7.06967,-7.06966z" fill="#ffeb0f" fill-rule="evenodd" stroke="none" stroke-width="4.43922" stroke-linecap="round" stroke-linejoin="round"/><path d="M316.16795,174.02241c0.68833,0.04551 1.33117,0.15593 1.71938,0.20808c0.12416,0.72195 0.63629,1.48244 0.37249,2.16584c-0.34039,0.88178 -1.91213,1.52237 -3.29406,1.55925c-0.4396,0.11404 -0.89924,0.17056 -1.34051,0.15659c1.07331,0.44636 2.25931,0.64238 3.21862,0.40151c0.93618,-0.23506 1.47723,-2.35663 1.91027,-3.14597c-0.04509,-1.36751 -0.36421,-1.37935 -1.60082,-1.9931l-0.54918,-0.21595c0,0 -0.23349,-0.09339 -0.41945,-0.3036c-0.94305,-0.00562 -2.13543,-0.20033 -3.04437,0.08222c-2.72175,0.84604 -2.86258,2.28088 -1.89223,3.49674c-0.61798,-2.68266 3.44237,-3.59653 4.91987,-2.4116zM317.03821,171.23357c0.18036,0.01678 0.30871,0.06812 0.30871,0.06812l0.70082,0.28405c2.11757,1.06558 2.6864,1.85995 2.64918,4.2569c-0.80788,1.6173 -1.40477,3.95353 -3.33973,4.60403c-2.2476,0.75561 -8.0143,-1.50925 -8.82754,-3.76696c-0.24766,-0.68754 -0.29909,-1.30181 -0.19907,-1.84901c-0.11748,-0.07374 -0.18716,-0.14341 -0.18716,-0.14341l-0.125,-0.125c-0.45469,-0.4553 -2.43037,-2.07687 -2.58378,-2.55566c-0.8609,-2.68685 3.31878,-4.00771 5.13474,-4.81526c0,0 0.91381,-0.40614 1.31995,0.50767c0.40614,0.91381 -0.50767,1.31995 -0.50767,1.31995c-1.14187,0.50721 -2.16278,1.06032 -3.24639,1.6812c-0.29045,0.16642 -1.15217,0.32523 -0.86887,0.50354c0.8274,0.52078 1.38578,1.15794 2.08107,1.85889c1.7259,-1.62398 5.1178,-2.20744 6.87805,-2.20744c0,0 0.52316,0 0.81268,0.3784z" fill="#000000" fill-rule="nonzero" stroke="none" stroke-width="0.5" stroke-linecap="butt" stroke-linejoin="miter"/><path d="M327.56223,177.8325c-0.72968,-0.38021 -1.9679,-0.34811 -2.18903,-1.14064c-0.67297,-2.41188 3.01527,-1.9617 3.97733,-1.9617c0,0 0.21264,0 0.4418,0.09805c-0.09587,-0.30449 -0.24498,-0.58534 -0.45106,-0.82226l-0.19785,-0.19368c0,0 -0.13054,-0.13054 -0.22335,-0.33552c-0.29408,0.25342 -0.69454,0.25342 -0.69454,0.25342c-3.05614,-0.09132 -4.98562,4.26831 -1.13306,4.88186c1.41602,0.22551 2.38377,-0.78411 2.71042,-1.98449c-0.23315,0.10263 -0.45236,0.10263 -0.45236,0.10263c-0.174,0 -0.3321,0.00439 -0.47673,0.00912c-0.02086,0.0254 -0.04294,0.04976 -0.06616,0.07298l-0.75,0.75l-0.17405,-0.17405zM329.17316,172.36915c0.69706,-0.6585 1.38447,0.02891 1.38447,0.02891l0.30215,0.30632c2.45765,2.9016 0.29469,8.36822 -4.0012,7.89393c-2.30646,-0.25465 -4.58994,-2.90148 -3.97456,-5.24981c0.59082,-2.2546 3.26713,-3.57737 5.3415,-3.61833c0,0 0.74186,0 0.94763,0.63898z" fill="#000000" fill-rule="nonzero" stroke="none" stroke-width="0.5" stroke-linecap="butt" stroke-linejoin="miter"/><path d="M310.67205,190.23378c1.8369,-4.30286 9.93667,-6.47657 14.11783,-4.40192c1.93549,0.96037 3.22928,3.0742 2.44975,4.79914c0.032,0.06826 0.05941,0.14513 0.08104,0.23164c0.24254,0.97014 -0.72761,1.21268 -0.72761,1.21268l-0.52561,0.13104c-0.26143,0.05769 -0.5234,0.10922 -0.78586,0.15529c-1.22315,0.44558 -2.97411,0.39573 -4.13951,0.49266c-2.0059,0.00166 -4.00857,0.06418 -6.01467,0.09983c-0.42917,0.0391 -0.85082,0.06363 -1.22599,0.01769c-0.45407,0.00476 -0.90839,0.00724 -1.36303,0.00641l-0.05817,-0.03561l-0.00373,0.02982l-0.98684,-0.12335c-0.50011,-0.05516 -0.88913,-0.47911 -0.88913,-0.99392c0,-0.22887 0.07689,-0.43979 0.20625,-0.60832c-0.3691,-0.42712 -0.13472,-1.01307 -0.13472,-1.01307zM313.55011,190.97665c3.75417,-0.60464 7.76138,0.09509 11.5598,-0.61523c0.21592,-0.10512 0.37339,-0.23482 0.44438,-0.39525c0.56349,-1.27353 -1.62497,-2.46924 -2.52983,-2.63142c-3.06609,-0.54953 -9.13545,0.2651 -10.4491,3.52042h0.27517v0.12637c0.23326,-0.00091 0.46645,-0.00258 0.69958,-0.00489z" fill="#000000" fill-rule="nonzero" stroke="none" stroke-width="0.5" stroke-linecap="butt" stroke-linejoin="miter"/><path d="M315.85053,195.85517c0,-0.09712 0.00943,-0.18481 0.02646,-0.26398c-0.16662,-0.05372 -0.33407,-0.11192 -0.50259,-0.1747c0,0 -0.93633,-0.35112 -0.58521,-1.28745c0.35112,-0.93633 1.28745,-0.58521 1.28745,-0.58521c1.73967,0.65726 3.30645,0.69205 5.12046,0.32317l0.04506,0.01296l-0.00208,-0.01868l1.11056,-0.1234c0.04091,-0.0051 0.08258,-0.00772 0.12487,-0.00772c0.55228,0 1,0.44772 1,1c0,0.44984 -0.29702,0.83031 -0.70565,0.95598l-1.10312,0.36771l-0.06336,-0.19009c-1.35352,0.76658 -2.67977,0.98858 -4.62786,0.99141h-0.125c0,0 -1,0 -1,-1z" fill="#000000" fill-rule="nonzero" stroke="none" stroke-width="0.5" stroke-linecap="butt" stroke-linejoin="miter"/><path d="M333.46103,172.46266c-0.85749,-0.5145 -0.343,-1.37199 -0.343,-1.37199l0.25631,-0.32743c0.1158,-0.44498 0.61992,-1.07701 0.25426,-1.35578c-0.44133,-0.33645 -1.09812,0.19771 -1.65307,0.19771c0,0 -1,0 -1,-1c0,-1 1,-1 1,-1c2.7331,0 3.96059,0.51687 3.35119,3.59193l-0.49369,0.92257c0,0 -0.5145,0.85749 -1.37199,0.343z" fill="#000000" fill-rule="nonzero" stroke="none" stroke-width="0.5" stroke-linecap="butt" stroke-linejoin="miter"/></g></g></svg>