<svg version="1.1" xmlns="http://www.w3.org/2000/svg" xmlns:xlink="http://www.w3.org/1999/xlink" width="37.68851" height="37.6889" viewBox="0,0,37.68851,37.6889"><g transform="translate(-301.15574,-161.15555)"><g data-paper-data="{&quot;isPaintingLayer&quot;:true}" stroke-miterlimit="10" stroke-dasharray="" stroke-dashoffset="0" style="mix-blend-mode: normal"><path d="M333.32487,166.67494l-4.06518,4.0656c-2.45577,-2.45591 -5.78658,-3.83568 -9.25966,-3.83577v-5.74922c4.99779,0.00003 9.79088,1.98541 13.32485,5.51939z" fill="#fc0000" fill-rule="evenodd" stroke="#727272" stroke-width="0" stroke-linecap="round" stroke-linejoin="round"/><path d="M338.84424,180.06195h-5.74879c-0.00008,-3.4731 -1.37985,-6.8039 -3.83577,-9.25967l4.06518,-4.0656c3.53408,3.53408 5.51946,8.32734 5.51939,13.32527z" fill="#fc0000" fill-rule="evenodd" stroke="#727272" stroke-width="0" stroke-linecap="round" stroke-linejoin="round"/><path d="M338.84424,180.00022c-0.00004,4.99779 -1.98541,9.79088 -5.51939,13.32485l-4.06518,-4.06518c2.45591,-2.45577 3.83569,-5.78657 3.83577,-9.25966z" fill="#fc0000" fill-rule="evenodd" stroke="#727272" stroke-width="0" stroke-linecap="round" stroke-linejoin="round"/><path d="M333.32487,193.32506c-3.53397,3.53397 -8.32705,5.51935 -13.32485,5.51939v-5.74922c3.47303,0.00002 6.80383,-1.37958 9.25966,-3.83534z" fill="#fc0000" fill-rule="evenodd" stroke="#727272" stroke-width="0" stroke-linecap="round" stroke-linejoin="round"/><path d="M320.00002,166.90478c-3.47295,0.0002 -6.80356,1.37995 -9.25924,3.83577l-4.0656,-4.0656c3.53397,-3.53397 8.32706,-5.51935 13.32485,-5.51939z" fill="#fc0000" fill-rule="evenodd" stroke="#727272" stroke-width="0" stroke-linecap="round" stroke-linejoin="round"/><path d="M310.74078,170.74054c-2.45591,2.45577 -3.83568,5.78658 -3.83577,9.25967h-5.74922c-0.00008,-4.99794 1.98531,-9.7912 5.51939,-13.32527z" fill="#fc0000" fill-rule="evenodd" stroke="#727272" stroke-width="0" stroke-linecap="round" stroke-linejoin="round"/><path d="M306.90498,180.00022c-0.00002,3.47303 1.37958,6.80383 3.83533,9.25966l-4.06518,4.06518c-3.53397,-3.53397 -5.51935,-8.32705 -5.51939,-13.32485z" fill="#fc0000" fill-rule="evenodd" stroke="#727272" stroke-width="0" stroke-linecap="round" stroke-linejoin="round"/><path d="M320.00002,193.09523v5.74922c-4.99779,-0.00003 -9.79088,-1.98542 -13.32485,-5.51939l4.06518,-4.06518c2.45584,2.45576 5.78664,3.83538 9.25967,3.83534z" fill="#fc0000" fill-rule="evenodd" stroke="#727272" stroke-width="0" stroke-linecap="round" stroke-linejoin="round"/><path d="M333.09524,180c0,7.2323 -5.86294,13.09522 -13.09522,13.09522c-7.2323,0 -13.09522,-5.86293 -13.09522,-13.09522c0,-7.2323 5.86293,-13.09522 13.09522,-13.09522c7.2323,0 13.09522,5.86293 13.09522,13.09522" fill="#fc0000" fill-rule="evenodd" stroke="none" stroke-width="0.07853" stroke-linecap="round" stroke-linejoin="round"/><path d="M315.38673,192.48249c0,-2.20914 1.79086,-4 4,-4c2.20914,0 4,1.79086 4,4c0,2.20914 -1.79086,4 -4,4c-2.20914,0 -4,-1.79086 -4,-4z" fill="#fcfcfc" fill-rule="nonzero" stroke="none" stroke-width="0.5" stroke-linecap="butt" stroke-linejoin="miter"/><path d="M317.08072,168.80366c0.08075,-1.66926 -0.52004,-4.80574 2.30601,-4.80574c2.5786,0 2.26609,2.53927 2.25,4.10185c-0.05206,5.05602 1.18965,11.99129 -0.00716,16.84752c-0.08754,1.10064 -0.96713,1.97817 -2.06867,2.0625c-0.99145,0.37709 -2.00876,0.16404 -2.2468,-1.36626c-0.1142,-0.26953 -0.17737,-0.56594 -0.17737,-0.8771c0,-0.07484 0.00365,-0.14883 0.01079,-0.22179c0.24403,-5.2506 -0.32167,-10.47275 -0.0668,-15.74098z" fill="#fcfcfc" fill-rule="nonzero" stroke="none" stroke-width="0.5" stroke-linecap="butt" stroke-linejoin="miter"/></g></g></svg>