<svg version="1.1" xmlns="http://www.w3.org/2000/svg" xmlns:xlink="http://www.w3.org/1999/xlink" width="183.32723" height="314.46248" viewBox="0,0,183.32723,314.46248"><defs><linearGradient x1="322.08477" y1="47.9985" x2="322.08477" y2="112.42439" gradientUnits="userSpaceOnUse" id="color-1"><stop offset="0" stop-color="#ff8026"/><stop offset="1" stop-color="#b54b00"/></linearGradient><linearGradient x1="366.57094" y1="92.27788" x2="366.57094" y2="156.05065" gradientUnits="userSpaceOnUse" id="color-2"><stop offset="0" stop-color="#cecece"/><stop offset="1" stop-color="#595959"/></linearGradient><linearGradient x1="273.70448" y1="92.27788" x2="273.70448" y2="156.05065" gradientUnits="userSpaceOnUse" id="color-3"><stop offset="0" stop-color="#cecece"/><stop offset="1" stop-color="#595959"/></linearGradient><radialGradient cx="323.68483" cy="237.54555" r="35.63773" gradientUnits="userSpaceOnUse" id="color-4"><stop offset="0" stop-color="#ed8828"/><stop offset="1" stop-color="#4f2200"/></radialGradient></defs><g transform="translate(-234.16857,-26.13373)"><g stroke-miterlimit="10"><path d="M416.21057,130.63855c0.38641,10.22151 -2.4484,18.11184 -6.42168,26.09232c-1.49469,3.00215 -2.88958,6.97732 -5.48106,8.61321c-5.96375,3.76469 -16.21121,2.00607 -21.87173,-2.74304c-2.33925,-1.9626 -5.11882,-2.11071 -6.88694,-5.53644c-1.70385,-3.30122 -0.87719,-11.2249 -0.24669,-14.67348c0.29667,-1.62265 1.48248,-1.35375 2.15227,-2.36971c1.11552,-1.69209 2.36199,-5.60273 2.91902,-7.71363c0.52848,-2.00275 -0.14427,-4.81029 0.06108,-6.94318c0.99336,-10.31766 -2.84805,-22.99843 0.65923,-32.47634c2.01031,-5.43256 4.75268,-10.05858 9.82648,-8.18673c2.38357,0.87936 3.22009,5.82424 3.3211,8.49608c0.30723,8.12668 0.03609,15.80809 -0.29006,23.83691c-0.12273,3.02143 -0.2351,5.82913 -0.11571,8.92309c0.01286,0.33334 -0.20426,0.99732 0.03937,0.99999c0.24363,0.00268 -0.02086,-0.66672 -0.02451,-0.99983c-0.02339,-2.13639 -0.1641,-4.83218 0.04451,-6.95161c0.63009,-6.40176 0.64339,-13.3728 2.6153,-19.20073c0.61571,-1.81971 1.45958,-4.69358 3.13803,-4.98311c2.23235,-0.38508 3.86485,3.34716 4.73548,5.62726c2.46148,6.4463 2.09029,14.69367 1.63434,21.58072c-0.02185,0.33 0.02315,0.66667 0.03257,0.99998c0.00942,0.3333 0.01842,0.66662 0.02396,0.99982c0.03783,2.27983 -0.19377,4.62834 -0.39343,6.89227c-0.0077,0.08726 -0.07146,1.97964 -0.63415,1.63795c-0.17226,-0.1046 -0.13641,-3.60816 -0.15122,-4c-0.13894,-3.67547 -0.79832,-9.67488 1.28294,-12.41313c0.64612,-0.85009 2.74895,-0.32547 3.60127,-0.32393c6.00439,0.01086 5.94158,9.13824 6.17749,15.37835z" fill="#ffa000" stroke="#000000" stroke-width="2.5" stroke-linecap="round"/><path d="M261.82203,112.42439l-0.71029,-20.77283c0,0 5.69165,-22.17104 16.47323,-30.13124c10.78158,-7.9602 42.65202,-13.52182 42.65202,-13.52182c0,0 28.18927,5.27424 42.68473,15.46207c14.49546,10.18783 19.42583,28.191 19.42583,28.191l0.7103,20.77284l-8.5576,-1.37879c0,0 -5.51163,-19.98193 -16.79458,-31.08133c-11.28295,-11.0994 -21.60871,-15.89855 -37.87714,-16.3305c-16.26843,-0.43195 -23.99426,3.71661 -34.0754,14.42006c-10.08114,10.70345 -15.46927,32.57975 -15.46927,32.57975z" fill="url(#color-1)" stroke="#000000" stroke-width="2.5" stroke-linecap="butt"/><g stroke="#000000" stroke-width="2.5" stroke-linecap="butt"><path d="M373.49534,93.01914c11.94237,1.27844 21.62357,16.59084 21.62357,34.20121c0,17.61037 -9.6812,30.85001 -21.62357,29.57157c-11.94237,-1.27844 -21.62357,-16.59084 -21.62357,-34.20121c0,-17.61037 9.6812,-30.85001 21.62357,-29.57157z" fill="#ff8026"/><path d="M366.57094,92.27788c8.59616,0.92023 15.56472,33.5526 15.56472,33.5526c0,0 -6.96856,31.1404 -15.56472,30.22017c-8.59616,-0.92022 -15.56471,-15.94224 -15.56471,-33.5526c0,-17.61037 6.96856,-31.1404 15.56471,-30.22017z" fill="url(#color-2)"/></g><g stroke="#000000" stroke-width="2.5" stroke-linecap="butt"><path d="M288.40367,122.59071c0,17.61037 -9.6812,32.92277 -21.62357,34.20121c-11.94237,1.27844 -21.62357,-11.9612 -21.62357,-29.57157c0,-17.61037 9.6812,-32.92276 21.62357,-34.2012c11.94237,-1.27844 21.62357,11.9612 21.62357,29.57157z" fill="#ff8026"/><path d="M289.26921,122.49805c0,17.61036 -6.96856,32.63238 -15.56472,33.5526c-8.59616,0.92022 -15.56471,-30.22017 -15.56471,-30.22017c0,0 6.96856,-32.63238 15.56471,-33.5526c8.59616,-0.92023 15.56472,12.60981 15.56472,30.22017z" fill="url(#color-3)"/></g><path d="M276.44329,338.31472l-2.92665,-147.15305c0,0 5.91536,-25.8673 14.92146,-26.53942c8.94379,-0.66747 30.14577,-1.8525 48.66286,-3.23443c20.08396,-1.49886 27.14998,15.45405 27.14998,15.45405l0.59577,162.48982z" fill="#000000" stroke="#000000" stroke-width="2.5" stroke-linecap="butt"/><path d="M336.86034,173.42039c-0.14773,6.40346 -7.54841,11.59448 -16.52988,11.59448c-8.98147,0 -16.14262,-5.19102 -15.99489,-11.59448c0.14773,-6.40346 7.5484,-11.59448 16.52987,-11.59448c8.98147,0 16.14263,5.19103 15.9949,11.59448z" fill="#ffa000" stroke="#000000" stroke-width="2.5" stroke-linecap="butt"/><path d="M374.73424,121.99075c0,28.00291 -24.26594,53.64847 -54.51858,53.64847c-30.25264,0 -55.03592,-25.64557 -55.03592,-53.64847c0,-28.0029 24.52462,-50.70374 54.77726,-50.70374c30.25264,0 54.77725,22.70084 54.77725,50.70374z" fill="#ffa000" stroke="#000000" stroke-width="2.5" stroke-linecap="butt"/><path d="M351.1482,115.45519c0,2.23487 -1.98847,4.04658 -4.44137,4.04658c-2.4529,0 -4.44137,-1.81172 -4.44137,-4.04658c0,-2.23486 1.98847,-4.04658 4.44137,-4.04658c2.4529,0 4.44137,1.81172 4.44137,4.04658z" fill="#ffffff" stroke="#000000" stroke-width="2.5" stroke-linecap="butt"/><path d="M298.97094,115.78484c0,2.23486 -1.98847,4.04658 -4.44137,4.04658c-2.4529,0 -4.44137,-1.81172 -4.44137,-4.04658c0,-2.23487 1.98847,-4.04659 4.44137,-4.04659c2.4529,0 4.44137,1.81172 4.44137,4.04659z" fill="#ffffff" stroke="#000000" stroke-width="2.5" stroke-linecap="butt"/><path d="M335.92287,119.81849c0,2.70884 -6.65243,4.90479 -14.85862,4.90479c-8.2062,0 -14.85862,-2.19595 -14.85862,-4.90479c0,-2.70884 6.65243,-4.90479 14.85862,-4.90479c8.2062,0 14.85862,2.19595 14.85862,4.90479z" fill-opacity="0.18431" fill="#ff0505" stroke="none" stroke-width="0" stroke-linecap="butt"/><path d="M279.82867,113.61075c0,0 9.58791,-3.0507 14.59977,-3.0507c1.86694,0 4.4898,0.42332 7.04636,0.95457c4.3066,0.89491 8.42505,2.09613 8.42505,2.09613" fill="none" stroke="#000000" stroke-width="2.5" stroke-linecap="round"/><path d="M332.12636,114.04657c0,0 9.58791,-3.0507 14.59977,-3.0507c1.86694,0 4.4898,0.42332 7.04636,0.95457c4.3066,0.89491 8.42505,2.09613 8.42505,2.09613" fill="none" stroke="#000000" stroke-width="2.5" stroke-linecap="round"/><path d="M333.43379,90.51261c0,0 7.07232,-7.84465 10.67744,-7.84465c1.54478,0 4.60997,-0.05042 6.68537,1.45725c3.10922,2.2587 5.08161,6.3874 5.08161,6.3874" fill="none" stroke="#000000" stroke-width="2.5" stroke-linecap="round"/><path d="M255.64035,44.6701c0,5.40396 -4.5268,9.78474 -10.11089,9.78474c-5.58409,0 -10.11089,-4.38078 -10.11089,-9.78474c0,-5.40396 4.5268,-9.78474 10.11089,-9.78474c5.58409,0 10.11089,4.38078 10.11089,9.78474z" fill="#ff8026" stroke="#000000" stroke-width="2.5" stroke-linecap="butt"/><path d="M413.17459,37.16846c0,5.40396 -4.5268,9.78474 -10.11089,9.78474c-5.58409,0 -10.1109,-4.38078 -10.1109,-9.78474c0,-5.40396 4.52681,-9.78473 10.1109,-9.78473c5.58409,0 10.11089,4.38078 10.11089,9.78473z" fill="#ff8026" stroke="#000000" stroke-width="2.5" stroke-linecap="butt"/><path d="M251.40029,54.12868l24.13569,38.16047" fill="none" stroke="#000000" stroke-width="2.5" stroke-linecap="round"/><path d="M398.49749,47.27936l-30.33268,46.64058" fill="none" stroke="#000000" stroke-width="2.5" stroke-linecap="round"/><path d="M294.47798,271.57556l2.14362,-69.66774l23.04394,41.26474l26.25938,-1.60772l-1.07181,31.61844l-38.0493,-26.79528l46.08789,-27.33119" fill="none" stroke="url(#color-4)" stroke-width="2.5" stroke-linecap="round"/><path d="M290.07715,152.03444l-2.32271,1.50037" fill="none" stroke="#000000" stroke-width="2.5" stroke-linecap="round"/><path d="M351.44054,151.58831l-14.15271,11.72058l-18.50739,-1.64088l-16.1486,2.81294l-13.78981,-11.95499" fill="none" stroke="#000000" stroke-width="2.5" stroke-linecap="round"/></g></g></svg>