<svg version="1.1" xmlns="http://www.w3.org/2000/svg" xmlns:xlink="http://www.w3.org/1999/xlink" width="35.125" height="35.12434" viewBox="0,0,35.125,35.12434"><g transform="translate(-302.43752,-162.43783)"><g data-paper-data="{&quot;isPaintingLayer&quot;:true}" stroke="none" stroke-miterlimit="10" stroke-dasharray="" stroke-dashoffset="0" style="mix-blend-mode: normal"><path d="M337.56251,169.8317v20.49804c0,4.00745 -3.22497,7.23243 -7.23242,7.23243h-20.5c-3.66107,0 -6.66147,-2.69385 -7.1543,-6.21484c0.7952,3.03475 3.54108,5.26367 6.83204,5.26367h20.0332c3.9166,0 7.07032,-3.15372 7.07032,-7.07031v-20.03321c0,-3.2976 -2.23906,-6.0451 -5.28321,-6.83398c3.52994,0.48496 6.23438,3.49081 6.23438,7.15821z" fill-opacity="0.29839" fill="#000000" fill-rule="evenodd" stroke-width="4.54219" stroke-linecap="round" stroke-linejoin="round"/><path d="M309.50719,162.43783h20.03378c3.9166,0 7.06966,3.15307 7.06966,7.06966v20.03379c0,3.91659 -3.15307,7.06966 -7.06966,7.06966h-20.03378c-3.91659,0 -7.06967,-3.15307 -7.06967,-7.06966v-20.03379c0,-3.91659 3.15308,-7.06966 7.06967,-7.06966z" fill="#a5ff00" fill-rule="evenodd" stroke-width="4.43922" stroke-linecap="round" stroke-linejoin="round"/><path d="M335.5472,188.56321c-0.74246,0.10607 -0.84853,-0.63639 -0.84853,-0.63639l-0.11669,-0.81968c-0.17717,-2.30627 0.14047,-4.79 -0.39432,-7.04978c-0.11515,-0.48656 -0.298,-0.96223 -0.34338,-1.46017c-0.02835,-0.31112 0.41852,-0.82001 0.12565,-0.92875c-0.29287,-0.10874 -0.26202,0.59689 -0.51092,0.7857c-0.55737,0.42281 -1.22972,0.66743 -1.84458,1.00115c-0.22864,-0.3577 -2.32301,-4.96424 -2.65821,-4.98531c-1.16575,-0.0733 -2.25137,2.79689 -3.71582,2.59615c-0.97499,-0.13365 -2.10865,-4.82515 -2.39599,-5.64974c-0.1914,-0.5493 -0.32648,-2.29044 -0.35156,-1.70928c-0.09151,2.12044 -2.20133,5.04738 -3.98036,7.15936l0.04405,0.02767l-0.79112,1.25923c-0.13144,0.21695 -0.36974,0.36192 -0.64192,0.36192c-0.32193,0 -0.59649,-0.20283 -0.70285,-0.48768l-0.5506,-1.3765c-0.53587,-1.35456 -1.28489,-2.04469 -1.94986,-3.30811c-0.14598,-0.27735 0.06158,-0.86292 -0.24876,-0.90677c-0.28553,-0.04034 -0.09746,0.56982 -0.1796,0.84624c-0.22091,0.74348 -0.56753,1.44367 -0.85322,2.16475c-0.8304,2.09586 -1.59663,4.42542 -2.80937,6.339c-0.38916,0.61406 -0.53413,1.70971 -1.25752,1.78194c-0.75536,0.07541 -1.51006,-1.23204 -1.97154,-2.33467c-0.12757,3.03169 -0.53645,6.01411 -0.40971,9.05605c0,0 0.03123,0.74935 -0.71812,0.78057c-0.74935,0.03123 -0.78057,-0.71813 -0.78057,-0.71813c-0.14333,-3.43989 0.38696,-6.79978 0.44103,-10.24113l0.01293,-0.82313c0.00552,-0.40946 0.33917,-0.73969 0.74994,-0.73969c0.20711,0 0.39461,0.08394 0.53033,0.21967l1.06066,1.06066l-0.00659,0.00659c0.02441,0.02245 0.04851,0.04528 0.07229,0.0685c0.37338,0.36473 0.58304,0.87409 0.78198,1.35665c0.10431,0.25302 -0.09773,0.9884 0.11256,0.81326c0.45661,-0.38029 0.15166,-1.19942 0.40852,-1.73526c1.07896,-2.25079 2.01794,-4.51914 2.94118,-6.83794c0.30919,-0.77657 0.89714,-2.52707 1.85105,-2.56375c0.47604,-0.0183 2.03564,2.29314 2.36479,2.75648c0.5226,0.73566 0.91235,1.56441 1.25031,2.40113l0.00971,0.02429l0.01391,-0.02215l0.08524,0.05355c0.62196,-2.11826 2.57151,-5.00117 3.73192,-6.50656c0.40485,-0.5252 0.71636,-1.37637 1.3768,-1.436c1.4513,-0.13104 2.40674,4.54901 2.75509,5.48972c0.17293,0.46697 0.4386,0.90508 0.54153,1.39229c0.0378,0.17891 -0.28269,0.63964 -0.13509,0.53169c0.97494,-0.71302 1.89353,-2.88367 3.5569,-2.63113c1.54134,0.23401 2.67705,3.75595 2.79634,5.01468c1.52355,-1.99963 2.39139,-2.49199 3.30932,0.24941c0.93671,2.79749 0.546,5.80019 0.76858,8.68965l0.11058,0.77122c0,0 0.10606,0.74247 -0.6364,0.84853z" fill="#000000" fill-rule="nonzero" stroke-width="0.5" stroke-linecap="butt" stroke-linejoin="miter"/></g></g></svg>