<svg version="1.1" xmlns="http://www.w3.org/2000/svg" xmlns:xlink="http://www.w3.org/1999/xlink" width="160.69021" height="322.9847" viewBox="0,0,160.69021,322.9847"><defs><linearGradient x1="322.09192" y1="172.3975" x2="327.21706" y2="351.16861" gradientUnits="userSpaceOnUse" id="color-1"><stop offset="0" stop-color="#2982c1"/><stop offset="1" stop-color="#000000"/></linearGradient><linearGradient x1="398.01269" y1="141.00396" x2="358.55766" y2="142.13508" gradientUnits="userSpaceOnUse" id="color-2"><stop offset="0" stop-color="#a636f3"/><stop offset="1" stop-color="#581b7d"/></linearGradient><linearGradient x1="244.32093" y1="150.9013" x2="283.77595" y2="149.77017" gradientUnits="userSpaceOnUse" id="color-3"><stop offset="0" stop-color="#a636f3"/><stop offset="1" stop-color="#581b7d"/></linearGradient><radialGradient cx="283.12953" cy="100.41622" r="25.84387" gradientUnits="userSpaceOnUse" id="color-4"><stop offset="0" stop-color="#000000" stop-opacity="0.92549"/><stop offset="1" stop-color="#000000" stop-opacity="0"/></radialGradient><linearGradient x1="236.38754" y1="77.46463" x2="301.68038" y2="82.81358" gradientUnits="userSpaceOnUse" id="color-5"><stop offset="0" stop-color="#a636f3"/><stop offset="1" stop-color="#16031b"/></linearGradient><radialGradient cx="355.22103" cy="93.20169" r="25.35587" gradientUnits="userSpaceOnUse" id="color-6"><stop offset="0" stop-color="#000000" stop-opacity="0.92549"/><stop offset="1" stop-color="#000000" stop-opacity="0"/></radialGradient><linearGradient x1="399.68526" y1="70.22318" x2="334.8061" y2="79.304" gradientUnits="userSpaceOnUse" id="color-7"><stop offset="0" stop-color="#a636f3"/><stop offset="1" stop-color="#16031b"/></linearGradient></defs><g transform="translate(-237.74162,-28.16283)"><g stroke-miterlimit="10"><path d="M283.69142,348.77631l-6.17487,-147.15927c0,0 5.34437,-25.86198 14.33563,-26.52515c8.92905,-0.65857 30.10486,-1.82251 48.59143,-3.18602c20.05086,-1.47888 27.4911,15.48145 27.4911,15.48145l4.18254,162.49407z" fill="url(#color-1)" stroke="#000000" stroke-width="2.5" stroke-linecap="butt"/><path d="M346.10934,183.4964c-0.00849,8.52295 -9.70623,15.42251 -21.66051,15.41061c-11.95427,-0.01191 -21.63823,-6.93077 -21.62974,-15.45374c0.00849,-8.52295 9.70621,-15.42251 21.66049,-15.41061c11.95427,0.01191 21.63824,6.93078 21.62975,15.45373z" fill="#f2f2f2" stroke="#000000" stroke-width="1.5" stroke-linecap="butt"/><path d="M340.4686,183.93846c-0.00638,6.40345 -7.29247,11.58722 -16.27394,11.57828c-8.98147,-0.00895 -16.2572,-5.20722 -16.25082,-11.61068c0.00638,-6.40345 7.29246,-11.58722 16.27393,-11.57828c8.98147,0.00895 16.25721,5.20723 16.25083,11.61068z" fill="#a636f3" stroke="#000000" stroke-width="2.5" stroke-linecap="butt"/><path d="M376.03898,111.56021c4.80102,0.28071 8.02002,-2.17329 12.35612,-3.36575c0.6604,-0.18162 4.2862,-1.96678 4.80307,-1.37382c0.39855,0.45721 -1.02527,3.68204 -1.19253,4.24156c-0.56951,1.90489 -5.46193,12.29617 -5.31751,13.06935c0.5326,2.85133 9.07717,-1.90856 10.49369,-0.70165c1.2975,1.1055 -1.36674,5.21586 -1.84257,6.13427c-1.34623,2.59837 -7.69358,15.95156 -7.53235,18.00097c0.25661,3.26181 4.66003,6.79612 3.33061,11.15706c-0.65235,2.13996 -2.5624,-0.92403 -3.50461,-0.51132c-0.95961,0.42034 -0.51758,4.54765 -0.48362,5.41973c0.13843,3.55437 0.22671,7.53584 -0.35216,11.07935c-0.05962,0.36501 0.01472,0.91351 -0.29056,1.06658c-0.76042,0.38126 -9.62828,-8.32875 -11.03976,-9.30893c-6.87108,-4.77149 -13.66722,-12.31864 -15.93986,-21.48116c-3.43338,-13.84221 0.52489,-33.71619 16.16326,-32.80447z" fill="url(#color-2)" stroke="#000000" stroke-width="2.5" stroke-linecap="round"/><path d="M264.95551,120.84779c15.56045,-1.80615 20.65081,17.80841 18.01609,31.82458c-1.74399,9.27768 -8.09658,17.20179 -14.68302,22.35908c-1.35301,1.05944 -9.70732,10.26318 -10.48832,9.92611c-0.31357,-0.13532 -0.27075,-0.68718 -0.35119,-1.04818c-0.78092,-3.50452 -0.9209,-7.4845 -0.98633,-11.04097c-0.01606,-0.8726 0.18879,-5.01845 -0.79332,-5.38313c-0.9643,-0.35807 -2.69566,2.81032 -3.46955,0.71125c-1.57707,-4.2776 2.61664,-8.05839 2.68595,-11.32954c0.04356,-2.05529 -7.05837,-15.0229 -8.55125,-17.53987c-0.52767,-0.88964 -3.42301,-4.84062 -2.19098,-6.01864c1.34505,-1.28607 10.14827,2.97646 10.51666,0.09932c0.09989,-0.78018 -5.37981,-10.87411 -6.05751,-12.74324c-0.19905,-0.549 -1.80527,-3.68697 -1.43358,-4.16626c0.48205,-0.6216 4.20417,0.9529 4.87389,1.09639c4.39728,0.94209 7.7516,3.20765 12.52864,2.65235z" fill="url(#color-3)" stroke="#000000" stroke-width="2.5" stroke-linecap="round"/><path d="M375.70781,130.98198c-1.12386,28.53208 -26.40024,53.70721 -56.62944,52.51649c-30.2292,-1.1907 -53.96404,-28.29635 -52.84018,-56.82842c1.12386,-28.53207 26.54055,-50.69665 56.76975,-49.50593c30.2292,1.1907 53.82375,25.28578 52.69989,53.81786z" fill="#a636f3" stroke="#000000" stroke-width="2.5" stroke-linecap="butt"/><path d="M335.04206,122.23646c0.09138,2.7073 -6.48318,5.12641 -14.6847,5.40325c-8.20153,0.27683 -14.92425,-1.69344 -15.01562,-4.40075c-0.09138,-2.7073 6.48319,-5.12641 14.68471,-5.40325c8.20153,-0.27683 14.92425,1.69344 15.01563,4.40075z" fill-opacity="0.23137" fill="#000000" stroke="none" stroke-width="0" stroke-linecap="butt"/><path d="M288.93503,120.6057c-12.08057,6.81821 -24.47302,3.30634 -27.67931,-7.84401c-3.20628,-11.15035 3.98775,-25.71675 16.06833,-32.53496c12.08057,-6.81821 24.47302,-3.30634 27.6793,7.84401c3.20628,11.15035 -3.98775,25.71674 -16.06832,32.53496z" fill="url(#color-4)" stroke="#000000" stroke-width="0" stroke-linecap="butt"/><path d="M296.89571,98.07l-13.54924,12.74893l-12.76937,7.80178l-16.00847,-2.29597l-15.57376,-38.68313l0.51387,-38.27644l25.69003,39.6291l36.49485,3.65804z" fill="url(#color-5)" stroke="#000000" stroke-width="2.5" stroke-linecap="round"/><path d="M333.10158,82.33872c2.51383,-11.10205 14.45491,-15.23852 26.67114,-9.23907c12.21623,5.99945 20.08159,19.86296 17.56776,30.96501c-2.51383,11.10205 -14.45492,15.23852 -26.67115,9.23907c-12.21623,-5.99945 -20.08158,-19.86296 -17.56775,-30.965z" fill="url(#color-6)" stroke="#000000" stroke-width="0" stroke-linecap="butt"/><path d="M334.78365,79.14371l36.22534,-5.74284l23.37747,-41.0358l2.70589,38.18413l-13.33201,39.51182l-15.85064,3.20933l-13.19535,-7.0574l-14.25738,-11.95176z" fill="url(#color-7)" stroke="#000000" stroke-width="2.5" stroke-linecap="round"/><path d="M311.30716,90.65404c0,0 -1.17861,0.8774 -2.53997,1.67073c-1.05535,0.61502 -2.22053,1.17951 -3.03158,1.24555c-0.75525,0.06149 -1.85441,-0.33523 -2.84273,-0.79508c-1.23596,-0.57509 -2.29859,-1.24892 -2.29859,-1.24892" fill="none" stroke-opacity="0.40392" stroke="#000000" stroke-width="2.5" stroke-linecap="round"/><path d="M340.97615,90.74679c0,0 -1.36237,0.55039 -2.88024,0.97316c-1.17669,0.32774 -2.44684,0.57882 -3.24818,0.43734c-0.74621,-0.13174 -1.70909,-0.79383 -2.54878,-1.48896c-1.05006,-0.8693 -1.90746,-1.79024 -1.90746,-1.79024" fill="none" stroke-opacity="0.40392" stroke="#000000" stroke-width="2.5" stroke-linecap="round"/><path d="M325.79217,87.21292c0,0 -1.13007,0.93907 -2.44713,1.80397c-1.02102,0.67048 -2.15438,1.2964 -2.96075,1.40565c-0.75088,0.10173 -1.86966,-0.23573 -2.88114,-0.64216c-1.26489,-0.50826 -2.36199,-1.1244 -2.36199,-1.1244" fill="none" stroke-opacity="0.40392" stroke="#000000" stroke-width="2.5" stroke-linecap="round"/><path d="M372.1273,129.01751c0,0 -0.89835,0.53707 -1.90107,0.94508c-0.77734,0.3163 -1.6174,0.55504 -2.15029,0.40587c-0.49622,-0.13892 -1.14128,-0.81012 -1.70496,-1.51316c-0.70489,-0.87919 -1.28249,-1.80816 -1.28249,-1.80816" fill="none" stroke-opacity="0.40392" stroke="#000000" stroke-width="2.5" stroke-linecap="round"/><path d="M372.81774,137.50353c0,0 -0.89835,0.53707 -1.90107,0.94509c-0.77734,0.3163 -1.6174,0.55504 -2.15029,0.40587c-0.49622,-0.13892 -1.14128,-0.81012 -1.70496,-1.51316c-0.70489,-0.87919 -1.28249,-1.80816 -1.28249,-1.80816" fill="none" stroke-opacity="0.40392" stroke="#000000" stroke-width="2.5" stroke-linecap="round"/><path d="M371.2326,146.05476c0,0 -0.89835,0.53707 -1.90107,0.94509c-0.77734,0.3163 -1.61739,0.55504 -2.15028,0.40587c-0.49623,-0.13891 -1.14129,-0.81011 -1.70497,-1.51315c-0.70489,-0.87919 -1.28249,-1.80816 -1.28249,-1.80816" fill="none" stroke-opacity="0.40392" stroke="#000000" stroke-width="2.5" stroke-linecap="round"/><path d="M276.37894,127.77841c0,0 -0.52343,0.96053 -1.1768,1.87866c-0.52248,0.73418 -1.12802,1.44124 -1.61547,1.60836c-0.52347,0.17945 -1.37582,-0.01077 -2.17001,-0.28201c-1.02445,-0.34989 -1.95209,-0.83461 -1.95209,-0.83461" fill="none" stroke-opacity="0.40392" stroke="#000000" stroke-width="2.5" stroke-linecap="round"/><path d="M277.69428,133.61869c0,0 -0.52343,0.96053 -1.1768,1.87865c-0.52248,0.73418 -1.12802,1.44124 -1.61548,1.60836c-0.52347,0.17945 -1.37582,-0.01077 -2.17,-0.28201c-1.02445,-0.3499 -1.95209,-0.83462 -1.95209,-0.83462" fill="none" stroke-opacity="0.40392" stroke="#000000" stroke-width="2.5" stroke-linecap="round"/><path d="M278.33956,140.52932c0,0 -0.52343,0.96053 -1.1768,1.87865c-0.52248,0.73418 -1.12802,1.44124 -1.61548,1.60836c-0.52347,0.17945 -1.37582,-0.01077 -2.17,-0.28201c-1.02445,-0.3499 -1.95209,-0.83462 -1.95209,-0.83462" fill="none" stroke-opacity="0.40392" stroke="#000000" stroke-width="2.5" stroke-linecap="round"/><path d="M315.39063,151.30769l3.66251,5.05418" fill="none" stroke="#000000" stroke-width="2.5" stroke-linecap="round"/><path d="M328.74661,150.9248l-4.51837,5.99223" fill="none" stroke="#000000" stroke-width="2.5" stroke-linecap="round"/><path d="M359.37219,152.31014l2.90041,0.49009l-22.44959,12.2997l-18.81159,-1.7537l-13.47263,3.2525l-25.67465,-9.58245l4.02116,-0.68853" fill="none" stroke="#000000" stroke-width="2.5" stroke-linecap="round"/><path d="M250.032,55.55362c0,0 76.0964,-7.27611 97.81181,-8.19134c23.00928,-0.96976 36.58701,2.5269 36.58701,2.5269" fill="none" stroke="#000000" stroke-width="2.5" stroke-linecap="round"/><path d="M254.56093,60.08166c0,0 63.45821,-8.03231 83.88199,-8.86821c21.71367,-0.88869 42.76747,3.68471 42.76747,3.68471" fill="none" stroke="#000000" stroke-width="2.5" stroke-linecap="round"/><path d="M257.3096,65.69584c0,0 54.12158,-7.19883 73.74143,-8.09499c20.87614,-0.95354 47.98059,2.53521 47.98059,2.53521" fill="none" stroke="#000000" stroke-width="2.5" stroke-linecap="round"/><path d="M296.25343,247.78212l23.45391,-12.74519l19.91661,11.82811l14.81951,-6.6244" fill="none" stroke="#ffffff" stroke-width="1.5" stroke-linecap="round"/><path d="M296.23437,254.74246l23.45391,-12.74519l19.91662,11.82811l14.81951,-6.6244" fill="none" stroke="#ffffff" stroke-width="1.5" stroke-linecap="round"/><path d="M295.87993,261.38614l23.45391,-12.74519l19.91662,11.82811l14.81951,-6.6244" fill="none" stroke="#ffffff" stroke-width="1.5" stroke-linecap="round"/><g><path d="M322.92255,253.9812c13.40238,-12.38642 1.42393,-3.07119 17.93574,-9.8035c1.97345,-0.80464 12.05888,-3.14449 12.05888,-3.14449c0,0 -6.8147,11.84748 -11.75562,15.48265c-0.63426,0.46664 -5.81322,4.49554 -5.67245,5.10037c0.16399,0.70448 3.94229,-1.15468 4.4463,-1.36001c1.89679,-0.77265 15.69091,-6.39735 15.69091,-6.39735l1.86813,9.91441c0,0 -9.33327,5.56161 -11.91167,6.72185c-0.35574,0.16007 -4.32461,2.34854 -4.32399,2.40644c0.00255,0.23852 5.57285,-0.79401 5.57285,-0.79401l12.35326,5.53996l-0.92346,5.59147l-7.35976,4.56827c0,0 -10.91901,5.40489 -16.61835,7.72863c-9.03654,3.68437 -24.0373,10.50259 -32.09039,7.74629c-1.94824,-0.66682 -2.38846,-5.14324 -3.67016,-6.67507c-3.17899,-3.79937 -2.27706,-9.62239 -3.51566,-14.59455c-1.13441,-4.55393 -3.78284,-8.29265 -3.78805,-13.46415c-0.00269,-2.66131 -0.59968,-9.37282 0.75533,-12.02458c0.99321,-1.94373 5.1636,-4.42864 6.89553,-5.54673c5.12371,-3.30769 18.46115,-13.64536 23.15081,-14.77921c0.9618,-0.23254 6.45971,-2.17477 6.32022,-1.17698c-0.14605,1.04465 -8.91723,13.84519 -10.68241,16.03169c-1.11916,1.38629 -2.04352,3.04566 0.28084,2.59449c3.41808,-0.66348 4.98316,0.33409 4.98316,0.33409z" fill="#a636f3" stroke="#000000" stroke-width="2.5" stroke-linecap="round"/><path d="M330.17126,264.65951c0.16065,0.86642 -3.12513,3.12121 -7.33897,5.03618c-4.21385,1.91499 -7.76006,2.765 -7.92071,1.89858c-0.16065,-0.86642 3.12511,-3.1212 7.33896,-5.03618c4.21385,-1.91499 7.76007,-2.76501 7.92072,-1.89858z" fill-opacity="0.23137" fill="#000000" stroke="none" stroke-width="0" stroke-linecap="butt"/><path d="M336.26542,275.63972c0.14726,0.79424 -3.85833,3.31265 -8.94677,5.62511c-5.08842,2.31244 -9.33277,3.54318 -9.48002,2.74895c-0.14726,-0.79424 3.85833,-3.31265 8.94677,-5.6251c5.08842,-2.31244 9.33277,-3.54317 9.48002,-2.74896z" fill-opacity="0.23137" fill="#000000" stroke="none" stroke-width="0" stroke-linecap="butt"/><path d="M311.83316,254.99109c0.22757,1.22744 -0.49028,2.63255 -1.60336,3.13839c-1.11308,0.50584 -2.19993,-0.07911 -2.42751,-1.30655c-0.22757,-1.22744 0.49028,-2.63256 1.60336,-3.13839c1.11308,-0.50584 2.19992,0.07912 2.42751,1.30655z" fill-opacity="0.23137" fill="#000000" stroke="none" stroke-width="0" stroke-linecap="butt"/><path d="M309.43825,267.46821c0,0 -0.43589,1.23398 -1.02364,2.48641c-0.47001,1.00152 -1.03712,2.01484 -1.55611,2.41849c-0.55736,0.43344 -1.53985,0.64476 -2.46991,0.74534c-1.19972,0.1297 -2.3122,0.07509 -2.3122,0.07509" fill="none" stroke-opacity="0.40392" stroke="#000000" stroke-width="2.5" stroke-linecap="round"/><path d="M315.94083,269.99314c0,0 -0.4359,1.23398 -1.02365,2.48641c-0.47001,1.00152 -1.0371,2.01485 -1.5561,2.41849c-0.55736,0.43344 -1.53987,0.64476 -2.46993,0.74534c-1.19972,0.1297 -2.31218,0.07509 -2.31218,0.07509" fill="none" stroke-opacity="0.40392" stroke="#000000" stroke-width="2.5" stroke-linecap="round"/><path d="M322.44339,272.51807c0,0 -0.4359,1.23398 -1.02365,2.48641c-0.47001,1.00152 -1.03711,2.01484 -1.5561,2.41847c-0.55736,0.43344 -1.53985,0.64478 -2.46992,0.74535c-1.19972,0.1297 -2.31218,0.07508 -2.31218,0.07508" fill="none" stroke-opacity="0.40392" stroke="#000000" stroke-width="2.5" stroke-linecap="round"/></g><path d="M307.61016,166.99195l12.74311,-3.02814l19.88923,1.36639l22.91491,-11.30819l-40.62562,26.82452l-39.87026,-22.82228z" fill="#ffffff" stroke="#000000" stroke-width="2.5" stroke-linecap="round"/><path d="M303.39542,123.50906c-0.16397,4.16332 -3.1899,-3.92474 -7.75938,-4.10473c-4.56949,-0.17999 -8.95221,7.61624 -8.78824,3.45293c0.16397,-4.16334 4.00125,-7.39244 8.57072,-7.21245c4.56949,0.17999 8.14084,3.70092 7.97687,7.86426z" fill="#ffffff" stroke="#000000" stroke-width="2.5" stroke-linecap="butt"/><path d="M336.99139,122.34309c-0.40222,-4.14712 2.96154,-7.86687 7.51321,-8.30834c4.55167,-0.44148 8.56763,2.56247 8.96985,6.70959c0.40222,4.14707 -4.41994,-3.38526 -8.97161,-2.94378c-4.55167,0.44148 -7.10926,8.68961 -7.51148,4.54252z" fill="#ffffff" stroke="#000000" stroke-width="2.5" stroke-linecap="butt"/><g><path d="M352.76423,257.30898c0,0 1.50536,-1.08559 4.95584,-0.61902c2.34639,0.31727 1.32848,-1.28642 0.13174,-2.60632c-1.88754,-2.08178 -11.37767,-14.35879 -11.58333,-15.39337c-0.19643,-0.98815 5.40372,0.63591 6.37728,0.81296c4.74692,0.86332 18.65469,10.4199 23.95948,13.42863c1.79314,1.01703 6.09905,3.25894 7.20198,5.14258c1.50471,2.56979 1.2932,9.30447 1.44298,11.96156c0.29107,5.16329 -2.13881,9.04761 -3.01046,13.65905c-0.9517,5.03495 0.28235,10.79673 -2.67376,14.77199c-1.19183,1.60274 -1.37487,6.09702 -3.28171,6.87437c-7.88196,3.21314 -23.24871,-2.73448 -32.48149,-5.89509c-5.8231,-1.99341 -17.03382,-6.76387 -17.03382,-6.76387l-7.60939,-4.13914l-1.24229,-5.52938l12.01558,-6.23859c0,0 5.62032,0.71171 5.60919,0.47343c-0.0027,-0.05783 -4.09043,-2.01533 -4.45476,-2.15476c-2.64064,-1.01062 -12.27721,-6.02839 -12.27721,-6.02839l1.29707,-10.00516c0,0 14.0937,4.82519 16.03164,5.48791c0.51495,0.17611 4.39356,1.81575 4.51691,1.10303c0.1059,-0.61191 -5.29537,-4.33749 -5.95533,-4.76702c-5.14108,-3.34613 -12.62332,-14.78374 -12.62332,-14.78374c0,0 10.20291,1.75821 12.21921,2.44847c16.87038,5.77529 4.37793,-2.83839 18.46793,8.75985z" fill="#a636f3" stroke="#000000" stroke-width="2.5" stroke-linecap="round"/><path d="M354.15567,269.82672c4.31664,1.67043 7.72619,3.73325 7.61543,4.60746c-0.11075,0.8742 -3.69983,0.22875 -8.01648,-1.44168c-4.31662,-1.67041 -7.72619,-3.73325 -7.61544,-4.60746c0.11074,-0.87421 3.69984,-0.22875 8.01648,1.44168z" fill-opacity="0.23137" fill="#000000" stroke="none" stroke-width="0" stroke-linecap="butt"/><path d="M350.30603,281.89768c5.21256,2.01713 9.35584,4.30194 9.25434,5.1033c-0.10152,0.80137 -4.4094,-0.18421 -9.62194,-2.20133c-5.21256,-2.01713 -9.35584,-4.30194 -9.25434,-5.1033c0.10151,-0.80136 4.4094,0.18421 9.62194,2.20133z" fill-opacity="0.23137" fill="#000000" stroke="none" stroke-width="0" stroke-linecap="butt"/><path d="M366.24192,256.23844c1.14023,0.44123 1.9374,1.80291 1.78053,3.04137c-0.15687,1.23846 -1.20843,1.88471 -2.34866,1.44348c-1.14023,-0.44124 -1.93741,-1.80291 -1.78053,-3.04137c0.15689,-1.23845 1.20843,-1.88471 2.34867,-1.44348z" fill-opacity="0.23137" fill="#000000" stroke="none" stroke-width="0" stroke-linecap="butt"/><path d="M374.67682,275.29546c0,0 -1.10753,0.11826 -2.3127,0.0575c-0.93429,-0.04712 -1.92727,-0.20181 -2.50855,-0.60261c-0.54127,-0.37324 -1.1655,-1.35241 -1.69212,-2.32535c-0.65854,-1.2167 -1.1644,-2.42368 -1.1644,-2.42368" fill="none" stroke-opacity="0.40392" stroke="#000000" stroke-width="2.5" stroke-linecap="round"/><path d="M368.32958,278.1888c0,0 -1.10751,0.11826 -2.31269,0.0575c-0.93429,-0.04712 -1.92729,-0.20181 -2.50857,-0.60261c-0.54128,-0.37324 -1.16548,-1.35241 -1.6921,-2.32536c-0.65854,-1.2167 -1.16441,-2.42368 -1.16441,-2.42368" fill="none" stroke-opacity="0.40392" stroke="#000000" stroke-width="2.5" stroke-linecap="round"/><path d="M361.98234,281.08212c0,0 -1.1075,0.11827 -2.31268,0.05751c-0.93428,-0.04712 -1.9273,-0.20182 -2.50856,-0.60262c-0.54128,-0.37324 -1.16549,-1.3524 -1.6921,-2.32534c-0.65854,-1.2167 -1.1644,-2.42368 -1.1644,-2.42368" fill="none" stroke-opacity="0.40392" stroke="#000000" stroke-width="2.5" stroke-linecap="round"/></g></g></g></svg>