<svg version="1.1" xmlns="http://www.w3.org/2000/svg" xmlns:xlink="http://www.w3.org/1999/xlink" width="178.0501" height="344.93802" viewBox="0,0,178.0501,344.93802"><defs><linearGradient x1="331.67844" y1="239.01773" x2="328.61624" y2="311.7773" gradientUnits="userSpaceOnUse" id="color-1"><stop offset="0" stop-color="#545454"/><stop offset="1" stop-color="#2f2f2f"/></linearGradient><linearGradient x1="338.31162" y1="205.75495" x2="335.24941" y2="278.51453" gradientUnits="userSpaceOnUse" id="color-2"><stop offset="0" stop-color="#545454"/><stop offset="1" stop-color="#2f2f2f"/></linearGradient><linearGradient x1="335.73976" y1="175.18718" x2="332.67748" y2="247.94675" gradientUnits="userSpaceOnUse" id="color-3"><stop offset="0" stop-color="#545454"/><stop offset="1" stop-color="#2f2f2f"/></linearGradient><linearGradient x1="335.59485" y1="178.48156" x2="328.07651" y2="357.12135" gradientUnits="userSpaceOnUse" id="color-4"><stop offset="0" stop-color="#41200e"/><stop offset="1" stop-color="#160a03"/></linearGradient><linearGradient x1="337.01669" y1="178.45378" x2="335.9314" y2="204.24004" gradientUnits="userSpaceOnUse" id="color-5"><stop offset="0" stop-color="#542a12"/><stop offset="1" stop-color="#c2551f"/></linearGradient><linearGradient x1="307.20063" y1="208.98976" x2="306.05664" y2="236.17194" gradientUnits="userSpaceOnUse" id="color-6"><stop offset="0" stop-color="#4e2710"/><stop offset="1" stop-color="#3a1a09"/></linearGradient><linearGradient x1="348.97593" y1="257.25126" x2="343.18095" y2="322.70452" gradientUnits="userSpaceOnUse" id="color-7"><stop offset="0" stop-color="#a14f20"/><stop offset="1" stop-color="#5b280f"/></linearGradient><linearGradient x1="326.58969" y1="277.45331" x2="320.78305" y2="343.03833" gradientUnits="userSpaceOnUse" id="color-8"><stop offset="0" stop-color="#a14f20"/><stop offset="1" stop-color="#5b280f"/></linearGradient><linearGradient x1="377.65338" y1="145.20972" x2="377.65338" y2="196.45694" gradientUnits="userSpaceOnUse" id="color-9"><stop offset="0" stop-color="#984c20"/><stop offset="1" stop-color="#c2551f"/></linearGradient><linearGradient x1="384.33121" y1="132.4363" x2="384.33121" y2="175.46576" gradientUnits="userSpaceOnUse" id="color-10"><stop offset="0" stop-color="#984c20"/><stop offset="1" stop-color="#c2551f"/></linearGradient><linearGradient x1="286.9615" y1="157.2868" x2="286.9615" y2="220.37143" gradientUnits="userSpaceOnUse" id="color-11"><stop offset="0" stop-color="#984c20"/><stop offset="1" stop-color="#c2551f"/></linearGradient><linearGradient x1="277.08215" y1="139.40874" x2="277.08215" y2="196.22599" gradientUnits="userSpaceOnUse" id="color-12"><stop offset="0" stop-color="#984c20"/><stop offset="1" stop-color="#c2551f"/></linearGradient><linearGradient x1="315.03732" y1="83.10712" x2="329.68947" y2="188.5294" gradientUnits="userSpaceOnUse" id="color-13"><stop offset="0" stop-color="#653215"/><stop offset="1" stop-color="#c2551f"/></linearGradient><linearGradient x1="262.21508" y1="26.59467" x2="302.89337" y2="102.19281" gradientUnits="userSpaceOnUse" id="color-14"><stop offset="0" stop-color="#3c3c3c"/><stop offset="1" stop-color="#767676"/></linearGradient></defs><g transform="translate(-232.72218,-10.72499)"><g stroke-miterlimit="10"><path d="M326.90312,311.85653l-69.56099,-6.05256c0,0 34.75683,-64.95538 74.33632,-66.78629c16.92477,-0.78292 31.99078,10.10351 43.69292,22.82248c-1.00046,1.75453 -2.18886,3.46013 -2.99868,4.61254c-0.1088,0.51089 -0.76144,1.69638 -0.49619,2.17806c0.47976,0.87118 3.50222,0.88947 4.38687,1.11217c1.32718,0.3341 1.73282,1.51923 2.24288,2.61898c-0.19638,3.72583 0.33254,6.47432 -1.68517,9.87549c-1.01975,0.60482 -1.15151,1.6517 -1.92494,2.39747c-1.99838,1.92692 -3.52703,3.80699 -3.72847,6.58052c-0.14546,2.41682 5.81764,5.24778 7.70007,6.34412c2.03933,1.18773 4.04668,2.65818 5.71543,4.38029z" fill="url(#color-1)" stroke="#000000" stroke-width="0" stroke-linecap="butt"/><path d="M268.35783,301.50989l59.07408,-19.86728l43.89193,8.47688" fill="none" stroke="#000000" stroke-width="0" stroke-linecap="round"/><path d="M371.80743,290.21288l16.97544,3.27848" fill="none" stroke="#000000" stroke-width="0" stroke-linecap="round"/><path d="M298.04005,304.21648l30.24995,-10.78255l35.87734,5.68373" fill="none" stroke="#000000" stroke-width="0" stroke-linecap="round"/><path d="M333.5363,278.59374l-69.56099,-6.05256c0,0 34.75683,-64.95538 74.33632,-66.78629c11.22923,-0.51945 21.64023,4.098 30.7934,10.97935c-2.93713,0.48031 -6.78268,0.80508 -8.69791,2.28595c1.9001,2.22575 5.64998,4.35553 8.12744,6.17557c2.68953,1.97583 5.45474,3.99921 8.35511,5.6709c1.72563,0.99323 3.85344,1.51557 5.58093,2.4611c-2.70372,-0.62951 -6.46765,1.4524 -8.59339,2.82659c-1.02692,0.80911 -3.8771,3.41769 -3.06854,4.95006c0.38165,0.72329 4.04848,0.71182 4.94135,0.98227c2.1884,0.66109 4.17468,1.61573 6.34238,2.29824c0.68837,0.21674 2.38139,0.91698 1.23489,1.55834c-3.1185,1.85524 -6.2178,3.81967 -8.89772,6.37105c-0.38471,0.3673 -2.56201,1.68273 -2.47784,2.24045c0.08559,0.56715 1.75124,0.48541 2.15829,0.49102c2.29365,0.03157 3.28074,-0.32979 3.12794,1.97108c-0.17531,2.70516 -3.26212,7.15447 -4.86528,9.43584c-0.1088,0.51089 -0.76144,1.69638 -0.49619,2.17806c0.47976,0.87118 3.50222,0.88947 4.38687,1.11217c0.76013,0.19135 1.21796,0.66186 1.56625,1.23561z" fill="url(#color-2)" stroke="#000000" stroke-width="0" stroke-linecap="butt"/><path d="M274.99101,268.24711l59.07408,-19.86728l43.1866,8.34066" fill="none" stroke="#000000" stroke-width="0" stroke-linecap="round"/><path d="M395.41607,260.22858l-17.66599,-3.41185" fill="none" stroke="#000000" stroke-width="0" stroke-linecap="round"/><path d="M304.67323,270.95368l30.24995,-10.78255l35.87733,5.68374" fill="none" stroke="#000000" stroke-width="0" stroke-linecap="round"/><path d="M330.96442,248.026l-69.561,-6.05255c0,0 34.75683,-64.95538 74.33633,-66.78629c23.12655,-1.06981 42.78254,19.64866 55.12797,37.0586c-3.16089,0.58025 -6.28442,1.28945 -9.41875,2.10482c-3.44924,0.89977 -6.99847,1.11338 -10.47054,2.00491c-2.90862,0.77042 -8.20867,0.83793 -10.57126,2.6647c1.9001,2.22575 5.64998,4.35553 8.12744,6.17557c2.68953,1.97583 5.45474,3.99921 8.35511,5.6709c1.72563,0.99323 3.85344,1.51557 5.58093,2.4611c-2.70372,-0.62951 -6.46765,1.4524 -8.59339,2.82659c-1.02692,0.80911 -3.8771,3.41769 -3.06854,4.95006c0.01158,0.02193 0.02617,0.04319 0.04361,0.0638z" fill="url(#color-3)" stroke="#000000" stroke-width="0" stroke-linecap="butt"/><path d="M272.41908,237.67933l59.0741,-19.86727l36.60637,7.06982" fill="none" stroke="#000000" stroke-width="0" stroke-linecap="round"/><path d="M392.84414,229.66081l-23.53919,-4.54614" fill="none" stroke="#000000" stroke-width="0" stroke-linecap="round"/><path d="M302.10135,240.38594l30.24995,-10.78254l35.87733,5.68374" fill="none" stroke="#000000" stroke-width="0" stroke-linecap="round"/><path d="M281.18153,355.66301l4.06241,-147.01868c0,0 7.70534,-25.977 17.53089,-26.83552c9.75757,-0.85258 32.86911,-2.47664 53.07104,-4.24182c21.91136,-1.91455 27.59596,24.61963 27.59596,24.61963l-6.18809,152.65982z" fill="url(#color-4)" stroke="#000000" stroke-width="0" stroke-linecap="butt"/><path d="M355.46175,190.46857c-0.29969,7.12069 -9.04371,13.28639 -19.53033,13.77149c-10.48662,0.4851 -18.74476,-4.8941 -18.44507,-12.01479c0.29969,-7.12069 9.04371,-13.28639 19.53033,-13.77149c10.48662,-0.4851 18.74476,4.8941 18.44507,12.01479z" fill="url(#color-5)" stroke="#000000" stroke-width="0" stroke-linecap="butt"/><path d="M320.36094,221.9456c-0.31591,7.50614 -6.72016,13.8755 -14.30428,14.22633c-7.58413,0.35084 -13.47619,-5.4497 -13.16027,-12.95586c0.31591,-7.50614 6.72016,-13.8755 14.30428,-14.22633c7.58413,-0.35084 13.47619,5.4497 13.16027,12.95586z" fill="url(#color-6)" stroke="#ffffff" stroke-width="2.5" stroke-linecap="butt"/><path d="M301.83785,220.32845l1.14198,-1.79102" fill="none" stroke="#ffffff" stroke-width="2.5" stroke-linecap="round"/><path d="M310.45649,218.28812l0.51368,1.61786" fill="none" stroke="#ffffff" stroke-width="2.5" stroke-linecap="round"/><path d="M298.26249,228.73575l2.35812,-3.10302l11.17735,0.52133l2.38947,3.12971" fill="none" stroke="#ffffff" stroke-width="2.5" stroke-linecap="round"/><path d="M334.3013,274.99154c-1.62698,0.75857 -1.08445,-3.85142 -1.42922,-5.35835c-0.90986,-3.97684 0.02518,-10.28658 4.93771,-12.10334c4.96175,-1.83497 15.51263,5.91562 20.0037,8.03923c2.9224,1.38186 5.13368,6.59573 6.91843,9.1188c1.90163,2.68831 5.07267,5.30028 5.63499,8.83352c0.48661,3.05758 0.10828,6.81705 -0.40517,9.77078c-0.72616,4.1774 0.38784,8.79214 -1.01101,12.90797c-2.02522,5.95881 -10.44989,12.50065 -16.32046,14.84686c-7.26206,2.90234 -16.36315,2.41252 -19.63785,-4.86062c-0.90495,-2.00992 0.8183,-4.89547 -0.06427,-6.74137c-1.13818,-2.38055 -5.64385,-2.26058 -5.50615,-7.22739c0.04528,-1.63337 1.98706,-4.25591 1.76134,-5.80435c-0.50154,-3.44051 -6.4463,-5.25357 -7.41363,-8.69237c-1.19116,-4.23448 9.45137,-12.37299 13.1057,-13.46848z" fill="url(#color-7)" stroke="#000000" stroke-width="0" stroke-linecap="round"/><path d="M337.42225,294.41365c3.47796,1.05027 12.79302,9.06228 10.90417,13.31629c-1.53392,3.45465 -7.7831,5.34502 -8.85103,8.79547c-0.48064,1.55292 1.03183,4.15355 0.80852,5.78805c-0.67907,4.97025 -5.16969,4.90731 -6.70061,7.30477c-1.18708,1.85903 0.06337,4.72572 -1.17311,6.74922c-4.47435,7.32227 -13.6655,7.92804 -20.45776,5.11479c-5.4908,-2.2742 -12.8483,-8.716 -13.89557,-14.65533c-0.72336,-4.10237 1.15081,-8.73605 1.11094,-12.90859c-0.02818,-2.95029 0.21141,-6.70889 1.20143,-9.77582c1.14403,-3.54406 4.74797,-6.19898 7.09374,-8.91421c2.20158,-2.54834 5.27271,-7.79569 8.42543,-9.21607c4.84503,-2.1828 16.68168,-10.07528 21.34679,-8.30134c4.61883,1.75634 4.51709,8.06079 2.95219,12.05333c-0.59298,1.51288 -0.8081,6.12077 -2.31201,5.38206z" fill="url(#color-8)" stroke="#000000" stroke-width="0" stroke-linecap="round"/><path d="M365.82569,145.20972c0,0 13.35794,8.29981 18.68911,15.83157c2.77786,3.9245 6.38106,10.93438 9.60195,17.68785c-0.90847,0.1644 -2.35429,-0.27392 -2.59869,0.83097c-0.05932,0.26816 0.31072,1.27488 0.37013,1.56359c1.33077,1.65153 -0.4162,0.88867 -1.91354,1.01413l-0.00686,0.00763l-0.00012,-0.00674l-0.01831,0.00263l-0.00382,-0.03927l-0.49172,0.11105c-0.13532,0.03045 -0.23464,0.16581 -0.22204,0.30291c0.01213,0.13194 0.12351,0.21756 0.25258,0.1978l0.44581,-0.06385c1.22493,1.42611 2.40736,3.37346 4.05883,4.315c0.66527,0.37929 2.08574,0.42319 2.49553,0.88971c0.24803,1.32506 1.74297,2.54593 3.43376,3.56524c1.34644,3.05949 2.18147,5.03699 2.18147,5.03699c0,0 -17.64924,-16.79395 -26.24307,-19.6109c-7.57479,-2.48289 -22.64969,3.58459 -22.64969,3.58459z" fill="url(#color-9)" stroke="#000000" stroke-width="0" stroke-linecap="butt"/><path d="M362.73391,132.4363c0,0 15.32508,5.7442 22.38525,12.06821c3.23734,2.89979 7.65364,7.97797 11.9096,13.19322c-2.80889,0.69551 -5.66971,1.34942 -8.38213,2.28408c-0.65421,0.22679 -1.30029,0.25236 -1.93397,0.54798l-0.46469,0.1515c-0.11696,0.03585 -0.1983,0.15225 -0.18686,0.27667c0.00873,0.095 0.06928,0.16982 0.15099,0.20039l0.44509,0.17659l0.04231,-0.09818c1.45976,0.57708 4.01638,0.8234 6.15695,0.84505c-0.1544,0.13111 -0.25645,0.28176 -0.28042,0.44994c-0.2847,1.99714 2.30605,2.81319 4.06883,3.29266l-0.01404,0.00773c-0.09277,0.04837 -0.15298,0.1505 -0.14304,0.25869c0.01205,0.13104 0.12266,0.22368 0.25145,0.21475l0.4601,-0.02683c0.63488,0.21645 1.01339,0.28008 1.49829,0.14043l0.0101,0.05856l0.48809,-0.11102c0.012,-0.00261 0.02369,-0.00604 0.035,-0.01025c1.52934,0.11855 3.15152,0.04382 4.71014,0.06505c3.97067,5.14004 6.83133,9.04424 6.83133,9.04424c0,0 -21.55207,-13.15796 -30.84712,-14.44302c-8.19285,-1.13268 -22.03502,7.13193 -22.03502,7.13193z" fill="url(#color-10)" stroke="#000000" stroke-width="0" stroke-linecap="butt"/><path d="M307.75104,185.77841c0,0 -15.79876,0.19905 -22.24047,5.55842c-7.30832,6.08038 -19.33861,29.0346 -19.33861,29.0346c0,0 3.30092,-29.29569 6.93113,-40.63376c2.96853,-9.27151 13.26727,-22.45087 13.26727,-22.45087z" fill="url(#color-11)" stroke="#000000" stroke-width="0" stroke-linecap="round"/><path d="M301.26793,172.02497c0,0 -15.42798,-3.40859 -22.92201,0.34079c-8.50223,4.2538 -25.44955,23.86023 -25.44955,23.86023c0,0 9.89387,-27.77133 16.01371,-37.98295c5.0044,-8.35039 18.03694,-18.8343 18.03694,-18.8343z" fill="url(#color-12)" stroke="#000000" stroke-width="0" stroke-linecap="round"/><path d="M331.05855,77.47243l11.71517,3.39865l14.91327,58.28382l-51.57877,28.66086l-40.94692,-39.61851l2.53944,-13.43822" fill="none" stroke="#000000" stroke-width="2.5" stroke-linecap="round"/><path d="M376.79977,130.49844c1.99918,28.48414 -20.37633,56.26937 -50.55474,58.38745c-30.1784,2.11809 -56.73176,-22.23304 -58.73094,-50.71717c-1.99918,-28.48413 20.84461,-53.29215 51.02302,-55.41021c30.1784,-2.11809 56.26349,19.25581 58.26267,47.73994z" fill="url(#color-13)" stroke="#000000" stroke-width="0" stroke-linecap="butt"/><path d="M269.77073,119.39468l-37.04855,-76.9303c0,0 5.2099,-5.09814 12.83266,-10.01299c4.79508,-3.09167 10.9378,-7.12408 14.72618,-9.16256c3.75588,-2.02098 11.19598,-4.6868 16.39854,-6.98358c8.44275,-3.72723 15.02843,-5.58026 15.02843,-5.58026c0,0 -3.40389,6.46919 0.05462,12.29557c0.17917,0.30182 6.83095,-0.6958 7.01183,-0.39107c0.83632,1.4089 -4.99645,4.39827 -4.16798,5.79395c0.62875,1.05922 7.92817,0.5407 8.51514,1.52953c0.94204,1.58701 -0.33095,5.18784 0.99244,7.41729c0.52005,0.8761 -7.57145,3.88217 -7.5781,5.3685c-0.00275,0.61525 0.00554,3.06032 0.24593,3.46529c2.07781,3.5004 4.28289,3.29524 5.05301,5.51845c0.4881,1.40903 6.9546,1.82274 8.45242,4.34602c0.19594,0.33009 10.74197,3.33249 10.47884,3.60936c-4.09126,4.30469 4.35282,7.33299 6.27107,10.56458c4.54139,7.65066 7.83115,13.19277 7.83115,13.19277c0,0 -1.9104,6.21832 -9.4004,13.96297c-4.09972,4.23912 -13.01728,10.62844 -16.8971,12.77163c-4.77399,2.63711 -14.93651,6.82657 -22.57908,8.36417c-9.52801,1.91691 -16.22107,0.86072 -16.22107,0.86072z" fill="url(#color-14)" stroke="#000000" stroke-width="0" stroke-linecap="butt"/><path d="M303.76953,182.82733c0,0 0.81276,-2.67586 3.83568,-3.89407c3.64072,-1.46716 12.03831,-4.85129 12.03831,-4.85129l7.52439,1.03534l6.63055,-2.2072c0,0 9.70263,0.54649 14.15551,0.79729c3.97827,0.22409 5.80703,1.10719 5.80703,1.10719" fill="none" stroke="#000000" stroke-width="2.5" stroke-linecap="round"/><path d="M336.25502,129.04349c0.3729,2.68306 -5.91388,5.77388 -14.04194,6.90356c-8.12807,1.12968 -15.01946,-0.12958 -15.39236,-2.81263c-0.3729,-2.68306 5.91388,-5.77388 14.04194,-6.90356c8.12807,-1.12968 15.01946,0.12958 15.39236,2.81263z" fill-opacity="0.18431" fill="#000000" stroke="none" stroke-width="0" stroke-linecap="butt"/><path d="M299.09962,130.13516c0.30765,2.21359 -1.41249,4.2818 -3.84203,4.61946c-2.42955,0.33767 -4.64849,-1.18306 -4.95614,-3.39665c-0.30765,-2.2136 1.41248,-4.2818 3.84203,-4.61947c2.42955,-0.33767 4.64849,1.18306 4.95614,3.39666z" fill="#ffffff" stroke="#000000" stroke-width="2.5" stroke-linecap="butt"/><path d="M350.73475,122.62582c0.30765,2.2136 -1.41249,4.2818 -3.84203,4.61946c-2.42955,0.33767 -4.64849,-1.18306 -4.95614,-3.39665c-0.30765,-2.21359 1.41249,-4.2818 3.84203,-4.61946c2.42955,-0.33767 4.64849,1.18306 4.95614,3.39665z" fill="#ffffff" stroke="#000000" stroke-width="2.5" stroke-linecap="butt"/><path d="M299.41726,134.58012l-10.47563,1.88546" fill="none" stroke="#000000" stroke-width="2.5" stroke-linecap="round"/><path d="M298.09508,139.48845l2.66817,-5.52493" fill="none" stroke="#000000" stroke-width="2.5" stroke-linecap="round"/><path d="M299.47505,124.5043c0,0 -3.34085,1.57934 -5.06465,1.87465c-2.44633,0.4191 -8.22011,0.40124 -8.22011,0.40124" fill="none" stroke="#000000" stroke-width="2.5" stroke-linecap="round"/><path d="M353.94847,117.98143c0,0 -5.19324,1.2607 -7.28576,1.43061c-2.70401,0.21955 -7.57926,-0.22361 -7.57926,-0.22361" fill="none" stroke="#000000" stroke-width="2.5" stroke-linecap="round"/><path d="M340.27045,128.75896l12.73484,-0.05192" fill="none" stroke="#000000" stroke-width="2.5" stroke-linecap="round"/><path d="M348.31978,132.07847l-6.3091,-2.12969" fill="none" stroke="#000000" stroke-width="2.5" stroke-linecap="round"/><path d="M355.8882,124.72711l-2.01303,1.99782" fill="none" stroke="#000000" stroke-width="2.5" stroke-linecap="round"/><path d="M282.18783,135.25671l2.64533,0.49136" fill="none" stroke="#000000" stroke-width="2.5" stroke-linecap="round"/><path d="M290.09036,133.20836c1.7721,2.14734 0.87128,4.90222 -1.45804,6.8245c-2.32932,1.92227 -5.20508,2.28401 -6.97716,0.13667c-1.7721,-2.14734 -0.81667,-3.72753 1.51264,-5.64981c2.32932,-1.92227 5.15047,-3.45869 6.92256,-1.31135z" fill="#ffffff" stroke="#000000" stroke-width="2.5" stroke-linecap="butt"/><path d="M393.54356,155.49017c0.40105,-0.14096 0.8146,-0.22232 1.24365,-0.21773c0.05844,0.00062 0.11668,0.00288 0.17472,0.00661l-0.00317,-0.03452l1.40521,-0.1292c0.68746,-0.06321 1.29599,0.44284 1.3592,1.1303c0.02745,0.29855 -0.05246,0.58222 -0.20798,0.8128c0.03982,0.10991 0.0682,0.23574 0.08144,0.37975c0.11445,1.24475 -1.1303,1.3592 -1.1303,1.3592c-1.05485,0.09699 -2.20834,0.14826 -3.36787,0.25174c-0.45605,0.28375 -0.93752,0.55376 -1.39549,0.799c1.0951,0.30848 2.04557,0.82969 2.53825,1.51327c0.2405,0.33369 0.79891,2.26798 1.2239,3.41796c0.8237,-0.01139 1.78874,-0.12163 2.70413,-0.14487c0.73801,-0.07035 2.49152,-0.23073 2.59061,-0.23984l1.63942,-0.15073c0.68746,-0.06321 1.29599,0.44284 1.3592,1.1303c0.05829,0.63397 -0.36754,1.2008 -0.9733,1.33476l-1.60001,0.38068l-0.05205,-0.21878l-0.14436,0.01327c-0.2428,0.02232 -0.48412,0.04205 -0.72425,0.06175c-1.12121,0.35827 -2.32282,0.5955 -3.49077,0.62671c-0.52354,0.25852 -1.04658,0.66269 -1.55687,0.46882c-0.46329,-0.17601 -0.80957,-0.46327 -1.08131,-0.81893c-0.59394,-0.19647 -1.14798,-0.48118 -1.6411,-0.86975c-1.27148,-1.00192 -1.56105,-3.04469 -2.69298,-4.20761c-1.12267,0.16737 -2.30449,0.64045 -3.32121,0.39246c-0.05639,-0.01376 -0.11239,-0.02865 -0.16802,-0.04459l-0.00458,0.0243l-1.65533,-0.31255c-0.54752,-0.09051 -0.9868,-0.54053 -1.03999,-1.11898c-0.04242,-0.46136 0.17155,-0.88717 0.52468,-1.13646l0.90593,-0.66345c0.11847,-0.6821 0.61365,-1.27029 1.27288,-1.76509c-0.59771,-0.26969 -1.124,-0.62386 -1.48284,-1.02524c-0.86009,-0.96206 -1.23596,-2.13115 -1.61778,-3.31674c-0.92909,-0.96942 -1.70637,-2.08808 -2.28757,-3.36348l-0.38035,0.18394l-0.86232,-1.78309c-0.0708,-0.13808 -0.1169,-0.29173 -0.13198,-0.45571c-0.06321,-0.68746 0.44284,-1.29599 1.1303,-1.3592c0.29776,-0.02738 0.58072,0.05205 0.81098,0.20675l1.24883,0.82366l-0.02572,0.03899l0.12709,0.03545c1.22929,1.2291 1.73529,1.50898 2.47014,3.068c0.22414,0.47552 0.36986,1.0934 0.51629,1.73185c0.18897,0.19344 0.38102,0.37645 0.57795,0.54348c1.40719,1.19356 3.77626,1.96194 5.97057,2.42148c0.07713,0.00849 0.1524,0.0241 0.22504,0.04618c0.31878,0.06409 0.63299,0.12167 0.93908,0.1731z" fill="#000000" stroke="none" stroke-width="0.5" stroke-linecap="butt"/><path d="M395.91122,186.11191c0.06023,0.13248 0.11724,0.26786 0.17223,0.40525c0.73592,0.98344 1.27666,1.99902 1.31644,2.92552c0.1017,0.13787 0.21225,0.26986 0.33349,0.3946l1.01192,1.01192c0.22621,0.22621 0.36612,0.53871 0.36612,0.88388c0,0.69036 -0.55964,1.25 -1.25,1.25c-0.34518,0 -0.65768,-0.13991 -0.88388,-0.36612v0l-1.17595,-1.17595l0.00772,-0.00772c-0.04718,-0.05271 -0.09313,-0.10558 -0.13793,-0.1586c-0.00702,-0.00556 -0.01402,-0.01115 -0.021,-0.01678c-0.26392,-0.21273 -0.44092,-0.49249 -0.58004,-0.80265c-0.52442,-0.82449 -0.86224,-1.68484 -1.24618,-2.5818c-0.39714,-0.51493 -0.83164,-1.01967 -1.28063,-1.51157c-1.03015,-0.05578 -3.03419,-0.0962 -3.21579,-0.23133c-2.51248,-1.86958 0.14351,-5.41071 1.63786,-6.66269c0,0 0.56557,-0.45246 1.1801,-0.23804c0.18517,-0.22736 0.43718,-0.38813 0.73636,-0.51292l-0.04828,-0.09656l1.38865,-0.69432c0.1737,-0.09145 0.37156,-0.14321 0.58151,-0.14321c0.69036,0 1.25,0.55964 1.25,1.25c0,0.07812 -0.00717,0.15457 -0.02088,0.22873l-0.23132,1.38791l-0.04056,-0.00676l0.01133,0.13808c-0.07474,0.16295 -0.20485,0.38136 -0.37486,0.62543c0.55414,0.52173 1.02802,1.08528 1.34485,2.3601l0.01701,1.14626c0,0 0,0.96532 -0.8483,1.19935zM393.71047,183.18608c-0.14882,0.10768 -0.29855,0.2018 -0.44664,0.27751c0.13698,0.1316 0.27863,0.26839 0.4233,0.40973c0.2037,0.08722 0.40091,0.19359 0.58916,0.31436l0.00024,-0.01038c0.0118,-0.40858 -0.23189,-0.71589 -0.56606,-0.99122z" fill="#000000" stroke="none" stroke-width="0.5" stroke-linecap="butt"/><path d="M357.53344,125.3818c2.64077,1.46531 3.86832,2.8448 2.51748,5.27926c-1.35082,2.43447 -4.24433,2.60318 -6.88511,1.13786c-2.64079,-1.4653 -4.02883,-4.00974 -2.678,-6.44421c1.35083,-2.43447 4.40484,-1.43823 7.04562,0.02707z" fill="#ffffff" stroke="#000000" stroke-width="2.5" stroke-linecap="butt"/><path d="M332.11124,83.0344l-7.34233,-12.05299l-7.61773,-6.57279l0.76981,-2.9281l-17.82909,-7.45223l-7.41045,-9.96868l7.48761,-6.14331l1.30572,-5.57493l-11.36008,-2.0726l1.77352,-6.13745l-4.02653,1.40923l0.17775,-9.36757" fill="none" stroke-opacity="0.3451" stroke="#000000" stroke-width="2.5" stroke-linecap="round"/><path d="M329.30785,84.30713l-7.94365,-11.66546l-7.941,-6.17834l0.62044,-2.96334l-18.1838,-6.53923l-7.90606,-9.58037l7.1667,-6.51483l1.02156,-5.63393l-11.45052,-1.49431l1.46025,-6.21944l-3.94995,1.61145l-0.29715,-9.36455" fill="none" stroke-opacity="0.3451" stroke="#000000" stroke-width="2.5" stroke-linecap="round"/><path d="M327.58994,179.75034l0.95339,6.05738" fill="none" stroke="#000000" stroke-width="2.5" stroke-linecap="round"/><path d="M334.18726,182.51361l0.01361,-4.16401" fill="none" stroke="#000000" stroke-width="2.5" stroke-linecap="round"/><path d="M321.69298,180.29252l0.8088,4.48486" fill="none" stroke="#000000" stroke-width="2.5" stroke-linecap="round"/></g></g></svg>