<svg version="1.1" xmlns="http://www.w3.org/2000/svg" xmlns:xlink="http://www.w3.org/1999/xlink" width="168.73909" height="291.59838" viewBox="0,0,168.73909,291.59838"><defs><linearGradient x1="319.80435" y1="177.30216" x2="319.80435" y2="356.14672" gradientUnits="userSpaceOnUse" id="color-1"><stop offset="0" stop-color="#eca526"/><stop offset="1" stop-color="#a56d11"/></linearGradient><linearGradient x1="318.88397" y1="181.32513" x2="318.88397" y2="342.52368" gradientUnits="userSpaceOnUse" id="color-2"><stop offset="0" stop-color="#ffea00" stop-opacity="0.77647"/><stop offset="1" stop-color="#ffde00" stop-opacity="0.25098"/></linearGradient><linearGradient x1="319.0338" y1="179.10012" x2="319.0338" y2="357.94468" gradientUnits="userSpaceOnUse" id="color-3"><stop offset="0" stop-color="#705200"/><stop offset="1" stop-color="#8e5d0e"/></linearGradient><linearGradient x1="318.32815" y1="178.49528" x2="318.32815" y2="357.33984" gradientUnits="userSpaceOnUse" id="color-4"><stop offset="0" stop-color="#191919"/><stop offset="1" stop-color="#0d0d0d"/></linearGradient><linearGradient x1="276.08758" y1="77.36601" x2="276.08758" y2="108.03059" gradientUnits="userSpaceOnUse" id="color-5"><stop offset="0" stop-color="#ffea00" stop-opacity="0.77647"/><stop offset="1" stop-color="#ffde00" stop-opacity="0.25098"/></linearGradient><linearGradient x1="319.49066" y1="179.42627" x2="319.49066" y2="227.9249" gradientUnits="userSpaceOnUse" id="color-6"><stop offset="0" stop-color="#e19c23"/><stop offset="1" stop-color="#f0910c"/></linearGradient><linearGradient x1="360.04341" y1="76.85231" x2="360.04341" y2="107.51689" gradientUnits="userSpaceOnUse" id="color-7"><stop offset="0" stop-color="#ffea00" stop-opacity="0.77647"/><stop offset="1" stop-color="#ffde00" stop-opacity="0.25098"/></linearGradient><linearGradient x1="318.30999" y1="89.22453" x2="318.30999" y2="182.62453" gradientUnits="userSpaceOnUse" id="color-8"><stop offset="0" stop-color="#ffea00" stop-opacity="0.77647"/><stop offset="1" stop-color="#ffde00" stop-opacity="0.25098"/></linearGradient><linearGradient x1="317.59599" y1="107.20719" x2="317.59599" y2="123.60258" gradientUnits="userSpaceOnUse" id="color-9"><stop offset="0" stop-color="#f5a40a"/><stop offset="1" stop-color="#f5c60a"/></linearGradient><linearGradient x1="318.76977" y1="238.02164" x2="318.76977" y2="247.88439" gradientUnits="userSpaceOnUse" id="color-10"><stop offset="0" stop-color="#c6c6c6"/><stop offset="1" stop-color="#a1a1a1"/></linearGradient><linearGradient x1="319.25748" y1="259.48124" x2="319.25748" y2="271.18647" gradientUnits="userSpaceOnUse" id="color-11"><stop offset="0" stop-color="#c6c6c6"/><stop offset="1" stop-color="#a1a1a1"/></linearGradient><linearGradient x1="319.69101" y1="278.84545" x2="319.69101" y2="292.93509" gradientUnits="userSpaceOnUse" id="color-12"><stop offset="0" stop-color="#c6c6c6"/><stop offset="1" stop-color="#a1a1a1"/></linearGradient><linearGradient x1="388.58248" y1="202.80404" x2="388.58248" y2="269.23121" gradientUnits="userSpaceOnUse" id="color-13"><stop offset="0" stop-color="#f1c012"/><stop offset="1" stop-color="#f29811"/></linearGradient><linearGradient x1="368.69542" y1="241.63282" x2="340.61189" y2="301.83153" gradientUnits="userSpaceOnUse" id="color-14"><stop offset="0" stop-color="#f1c012"/><stop offset="1" stop-color="#f29811"/></linearGradient></defs><g transform="translate(-249.2647,-67.63993)"><g stroke-miterlimit="10"><path d="M271.05958,352.50809l-2.19401,-147.27579c0,0 6.8263,-25.69821 16.93292,-26.10344c10.0367,-0.40242 33.82654,-0.95905 54.60636,-1.79223c22.53816,-0.90368 30.3383,16.2629 30.3383,16.2629l-0.53387,162.54719z" fill="url(#color-1)" stroke="#000000" stroke-width="2.5" stroke-linecap="butt"/><path d="M278.75916,325.54782l-1.80602,-121.2317c0,0 1.56337,-5.8854 4.26173,-11.49646c2.41735,-5.02671 5.7456,-9.83324 9.6768,-9.99087c8.26182,-0.33125 27.84469,-0.78946 44.94982,-1.4753c18.55253,-0.74388 24.9733,13.38699 24.9733,13.38699l-0.43946,133.80251c0,0 -2.61256,7.49214 -12.97132,11.43975c-7.60904,2.89972 -22.31561,2.63876 -28.45605,2.41341c-6.58107,-0.24151 -24.38743,-2.96655 -33.20175,-7.36456c-7.74475,-3.86434 -6.98705,-9.48377 -6.98705,-9.48377z" fill="url(#color-2)" stroke-opacity="0.47451" stroke="#000000" stroke-width="2.5" stroke-linecap="butt"/><path d="M267.09378,354.30605l-2.33783,-147.27579c0,0 7.27377,-25.69821 18.04288,-26.10344c10.69461,-0.40242 36.04389,-0.95905 58.18584,-1.79223c24.01554,-0.90368 32.32699,16.2629 32.32699,16.2629l-0.56886,162.54719z" fill="url(#color-3)" stroke="#000000" stroke-width="2.5" stroke-linecap="butt"/><path d="M268.28214,355.11632l9.57873,-148.8925c0,0 9.26412,-25.4966 16.41308,-25.90182c7.09951,-0.40242 23.92737,-0.95905 38.62607,-1.79223c15.94247,-0.90368 27.91158,24.73068 27.91158,24.73068l11.70785,150.94868z" fill="url(#color-4)" stroke="#000000" stroke-width="2.5" stroke-linecap="butt"/><g stroke-width="2.5" stroke-linecap="butt"><path d="M250.55859,90.59482c-0.74191,-10.88873 8.00877,-20.35299 19.54517,-21.13902c11.5364,-0.78604 21.48994,7.40382 22.23184,18.29255c0.7419,10.88873 -8.02939,21.50475 -19.56579,22.29078c-11.5364,0.78603 -21.46931,-8.55558 -22.21121,-19.4443z" fill="#e39e23" stroke="#000000"/><path d="M260.34254,93.33923c-0.55923,-8.20757 6.03675,-15.34141 14.73251,-15.93389c8.69576,-0.59249 16.19841,5.58075 16.75763,13.78832c0.55923,8.20757 -6.0523,16.20958 -14.74806,16.80206c-8.69576,0.59248 -16.18285,-6.44892 -16.74207,-14.65649z" fill="url(#color-5)" stroke-opacity="0.45098" stroke="#000000"/></g><g stroke-width="2.5" stroke-linecap="round"><path d="M291.57238,185.85489c1.35937,0.59935 -1.57749,-0.89629 -0.36762,-2.85388c1.13016,-1.82862 3.0208,-2.72311 5.452,-3.08111c7.46262,-1.09889 30.82558,-0.14251 38.84148,0.73036c3.13627,0.34152 9.26901,-0.99163 11.95111,0.45c0.27628,0.1485 0.5673,0.36515 0.6151,0.62784c0.19829,1.08976 -2.21044,6.10759 -1.45754,9.31484c0.86057,3.66591 -1.43043,7.29377 -3.20484,10.60815c-4.01756,7.50429 -7.96503,14.41315 -15.58375,20.0019c-3.49888,2.56662 -5.47636,7.24671 -11.62649,6.09189c-2.25946,-0.42426 -6.76058,-8.15013 -7.95098,-9.97125c-0.98966,-1.51404 -0.93538,-3.01715 -1.54471,-4.58337c-3.78478,-9.72839 -5.75286,-19.72821 -15.07504,-27.1515z" fill="url(#color-6)" stroke="#000000"/><path d="M301.06662,199.80736l10.71432,8.03574" fill="none" stroke-opacity="0.38039" stroke="#000000"/><path d="M342.51413,200.51225l-9.72748,7.75378" fill="none" stroke-opacity="0.38039" stroke="#000000"/><path d="M322.21331,192.05358l-0.56391,-3.52445" fill="none" stroke-opacity="0.38039" stroke="#000000"/></g><g stroke-width="2.5" stroke-linecap="butt"><path d="M385.5724,90.08112c-0.7419,10.88873 -10.67481,20.23034 -22.21121,19.44431c-11.5364,-0.78603 -20.3077,-11.40205 -19.56579,-22.29078c0.7419,-10.88873 10.69544,-19.07859 22.23184,-18.29255c11.5364,0.78603 20.28708,10.25029 19.54517,21.13902z" fill="#e39e23" stroke="#000000"/><path d="M375.78844,92.82553c-0.55923,8.20757 -8.04631,15.24897 -16.74207,14.65649c-8.69576,-0.59248 -15.30729,-8.59449 -14.74806,-16.80206c0.55923,-8.20757 8.06187,-14.38081 16.75763,-13.78832c8.69576,0.59248 15.29174,7.72633 14.73251,15.93389z" fill="url(#color-7)" stroke-opacity="0.45098" stroke="#000000"/></g><path d="M373.28663,134.86327c-1.94104,28.48816 -27.92848,52.9286 -58.11114,50.8721c-21.16445,-1.44204 -38.7718,-15.52967 -46.73483,-33.64165c-3.39306,-7.71755 -5.03508,-16.16576 -4.45512,-24.67767c1.94104,-28.48815 27.98246,-49.91526 58.16512,-47.85875c30.18266,2.05649 53.07703,26.81782 51.13599,55.30597z" fill="#e39e23" stroke="#000000" stroke-width="2.5" stroke-linecap="butt"/><path d="M360.57844,130.85616c0,1.10835 4.44037,4.01724 4.9975,7.91847c0.77029,5.39382 -0.02853,12.04202 -0.14637,12.67289c-2.7969,14.97486 -24.61129,31.17702 -46.82005,31.17702c-4.01449,0 -23.17466,-3.84823 -32.72656,-11.49302c-12.14207,-9.71782 -14.61133,-23.83033 -14.61025,-24.97397c0.00178,-1.87795 -0.01785,-6.28796 0.78109,-10.04415c0.7486,-3.51952 4.8567,-6.23801 4.8567,-8.38613c0,-9.32616 3.80936,-22.28531 11.25243,-28.37794c7.3825,-6.04305 20.34961,-10.12479 31.57997,-10.12479c11.69178,0 25.83026,3.41499 33.27445,11.9712c6.91527,7.94828 7.5611,20.71434 7.5611,29.66042z" fill="url(#color-8)" stroke-opacity="0.45098" stroke="#000000" stroke-width="2.5" stroke-linecap="butt"/><path d="M265.23299,122.14627c0,0 -4.87806,-7.07068 -4.87806,-9.29882c0,-1.68018 5.64027,-5.64026 5.64027,-5.64026c0,0 1.19704,2.74391 4.57319,2.74391c9.53302,0 28.72464,-6.73547 48.64253,-6.73547c5.03827,0 10.11894,0.4142 14.99442,1.03716c14.78524,1.88918 27.68352,5.69831 31.79025,5.69831c2.9663,0 4.87807,-2.74391 4.87807,-2.74391c0,0 3.96343,4.87472 3.96343,6.5549c0,2.22814 -3.35368,8.38418 -3.35368,8.38418c0,0 -34.19459,-5.87843 -52.09044,-5.87843c-17.51265,0 -54.15996,5.87843 -54.15996,5.87843z" fill="url(#color-9)" stroke="#000000" stroke-width="2.5" stroke-linecap="butt"/><path d="M266.90707,112.68305c0,0 35.89267,-6.83441 52.78727,-6.73488c17.58028,0.10357 50.71922,7.34464 50.71922,7.34464" fill="none" stroke-opacity="0.32157" stroke="#000000" stroke-width="2.5" stroke-linecap="round"/><path d="M312.94831,83.01492c0.74935,-4.04216 7.87912,-11.0295 12.27021,-9.75415c2.18251,0.63389 4.14565,2.92028 4.47807,5.04184c0.154,0.98291 -0.3893,2.63737 -0.96402,3.8306c-0.16259,0.33757 -0.94264,0.93126 -0.66602,1.01403c0.27662,0.08277 0.63145,-0.61849 0.93918,-0.93229c1.37275,-1.39987 2.31338,-2.35511 4.12476,-3.21044c3.211,-1.51623 7.40211,-2.84173 9.80615,-2.14589c4.31426,1.24874 2.01218,7.63439 -3.10814,11.52558" fill="#e39e23" stroke="#000000" stroke-width="2.5" stroke-linecap="round"/><path d="M369.35713,137.66851c3.96092,1.10077 10.29643,8.81555 8.6411,13.07796c-0.82275,2.11855 -3.27242,3.87373 -5.41496,4.0189c-0.99262,0.06726 -2.5931,-0.61898 -3.73136,-1.29607c-0.32202,-0.19155 -0.84505,-1.02064 -0.95175,-0.75234c-0.1067,0.2683 0.56076,0.68323 0.84638,1.01728c1.27416,1.49017 2.14327,2.5109 2.83654,4.39028c1.22895,3.33154 2.18198,7.62271 1.2781,9.95651c-1.6221,4.18821 -7.78138,1.33526 -11.20878,-4.10641" fill="#e39e23" stroke="#000000" stroke-width="2.5" stroke-linecap="round"/><path d="M274.23549,163.97461c-3.4274,5.44168 -9.58669,8.29462 -11.20878,4.10641c-0.90388,-2.3338 0.04915,-6.62497 1.2781,-9.95651c0.69327,-1.87939 1.56239,-2.90011 2.83654,-4.39028c0.28562,-0.33405 0.95308,-0.74898 0.84638,-1.01728c-0.1067,-0.2683 -0.62973,0.56078 -0.95175,0.75234c-1.13826,0.67709 -2.73873,1.36333 -3.73136,1.29607c-2.14254,-0.14517 -4.5922,-1.90036 -5.41495,-4.0189c-1.65533,-4.26241 4.68017,-11.97718 8.64109,-13.07796" fill="#e39e23" stroke="#000000" stroke-width="2.5" stroke-linecap="round"/><path d="M324.87674,140.76445c0,1.46119 -2.07377,4.37118 -4.77379,4.37118c-2.70002,0 -5.00385,-2.91 -5.00385,-4.37118c0,-0.20917 -2.52868,-1.39306 -2.4439,-1.58823c0.50749,-1.16821 5.0192,-1.05748 7.33271,-1.05748c1.76585,0 6.98951,0.13901 7.84874,0.89836c0.45455,0.40171 -2.95992,1.24179 -2.95992,1.74735z" fill="#000000" stroke="#000000" stroke-width="2.5" stroke-linecap="butt"/><path d="M324.02628,242.95302c0,2.72352 -2.35342,4.93137 -5.25652,4.93137c-2.90309,0 -5.25652,-2.20785 -5.25652,-4.93137c0,-2.72352 2.35342,-4.93137 5.25652,-4.93137c2.90309,0 5.25652,2.20785 5.25652,4.93137z" fill="url(#color-10)" stroke="#000000" stroke-width="2.5" stroke-linecap="butt"/><path d="M324.67657,265.33386c0,3.23231 -2.42621,5.85262 -5.41909,5.85262c-2.99288,0 -5.41909,-2.62031 -5.41909,-5.85262c0,-3.23231 2.42621,-5.85262 5.41909,-5.85262c2.99288,0 5.41909,2.62031 5.41909,5.85262z" fill="url(#color-11)" stroke="#000000" stroke-width="2.5" stroke-linecap="butt"/><path d="M325.54363,285.89027c0,3.89074 -2.62031,7.04482 -5.85262,7.04482c-3.23231,0 -5.85262,-3.15407 -5.85262,-7.04482c0,-3.89074 2.62031,-7.04482 5.85262,-7.04482c3.23231,0 5.85262,3.15407 5.85262,7.04482z" fill="url(#color-12)" stroke="#000000" stroke-width="2.5" stroke-linecap="butt"/><g fill="#000000" stroke="#000000" stroke-width="2.5"><path d="M321.2698,191.5659l18.39062,-6.08533l1.11636,20.32639l-19.92648,-9.00097l-19.41367,9.34149l-0.20467,-19.1702z" stroke-linecap="round"/><path d="M327.91704,194.75353c0.08459,3.1033 -2.91054,5.5955 -6.68981,5.5665c-3.77927,-0.029 -6.91154,-2.56822 -6.99613,-5.67151c-0.08459,-3.1033 2.91054,-5.59549 6.68981,-5.5665c3.77927,0.029 6.91154,2.56821 6.99613,5.6715z" stroke-linecap="butt"/></g><g fill="#ffb701" stroke="#000000" stroke-width="2.5" stroke-linecap="butt"><path d="M388.28767,177.27586l21.58896,-18.63677l-4.98093,27.79596z"/><path d="M409.48876,183.1058c0,0 -3.65807,7.9786 -5.52125,12.04235c-1.90983,4.16552 -5.80124,12.65302 -5.80124,12.65302l-25.09657,-13.84054l15.2851,-22.51002z"/><path d="M343.6545,246.8618l30.67732,-62.17176l31.55525,17.40246c0,0 -12.25582,20.42332 -18.27076,30.44673c-5.868,9.77855 -17.38897,28.97729 -17.38897,28.97729z"/></g><path d="M412.6669,220.25829c0.08024,0.05465 0.15924,0.10131 0.23617,0.13997c1.03386,1.95323 2.93125,3.43482 3.60071,5.97904c1.57797,5.99683 0.49692,9.79986 -0.64218,15.60762c-1.78056,5.22162 -2.93356,10.83359 -4.45105,16.19171c-0.9601,3.39002 -1.74892,7.19324 -4.92381,9.24358c-3.10636,2.00608 -7.45048,1.71659 -10.95208,1.811c-1.99215,-1.09802 -3.82439,-1.16243 -5.97149,-1.68714c-3.75108,-0.9167 -7.28837,-2.48541 -10.97368,-3.53659c-3.35035,-0.95565 -6.76836,-1.49361 -9.22935,-4.21476c-2.30912,-2.55322 -1.4717,-6.80893 -3.26398,-9.69236c-1.71542,-4.29005 -4.79583,-7.50532 -5.64778,-11.96063c-0.16713,-0.87398 -0.94767,-3.50471 -0.36782,-4.45087c0.37594,-0.61342 1.36733,-0.50203 2.08407,-0.5644c1.84744,-0.16078 6.08123,-0.00931 7.43288,-1.45925c1.43131,-1.53539 -0.30662,-4.82829 -0.36041,-6.50275c-0.00871,-0.27117 0.68445,-2.82811 0.6987,-2.88273c2.06466,-2.44004 6.40845,-0.4145 7.88401,-3.49272c0.73461,-1.5325 -2.15137,-5.28158 0.36407,-5.97454c1.97026,-0.54277 5.13556,-1.22855 7.09472,-0.14611c0.52825,0.29185 0.63369,1.17323 1.21157,1.34725c1.11527,0.33585 2.62653,0.83558 3.50257,0.068c1.08997,-0.95501 -0.17208,-3.49752 -0.22954,-4.72399c-0.09118,-1.94607 2.33745,-3.39425 3.38933,-4.76524c2.76038,-0.38534 6.09732,-2.2068 8.94447,-1.69995c5.9318,1.05597 9.40716,5.48558 10.50337,11.24347c0.02573,0.1352 0.05223,0.26371 0.07803,0.38551c-0.84514,0.51665 -0.63878,1.59992 -0.63878,1.59992l0.23171,0.62004c-0.0726,0.50379 -0.08451,0.9694 -0.04962,1.40217c-0.14576,0.24851 -0.68874,1.34257 0.44523,2.11474z" fill="url(#color-13)" stroke="#000000" stroke-width="3" stroke-linecap="butt"/><path d="M350.55217,166.69409c0,0 -1.91294,1.63393 -10.14999,1.72818c-6.29421,0.07201 -18.51019,-1.40027 -23.12128,-1.34751c-4.65465,0.05325 -16.05268,2.10252 -21.71484,2.1673c-6.28862,0.07195 -6.62124,-1.84309 -6.62124,-1.84309" fill="none" stroke="#000000" stroke-width="2.5" stroke-linecap="round"/><path d="M299.84109,123.25868c0.01785,2.2348 -1.95612,4.06232 -4.40893,4.0819c-2.45283,0.01958 -4.45569,-1.77621 -4.47354,-4.011c-0.01785,-2.2348 1.95612,-4.06232 4.40893,-4.0819c2.45283,-0.01958 4.45568,1.77621 4.47352,4.01101z" fill="#ffffff" stroke="#000000" stroke-width="2.5" stroke-linecap="butt"/><path d="M349.50592,122.67691c0.01785,2.2348 -1.95611,4.06232 -4.40893,4.0819c-2.45283,0.01958 -4.45568,-1.77621 -4.47352,-4.011c-0.01785,-2.2348 1.95611,-4.06231 4.40893,-4.08189c2.45283,-0.01958 4.45569,1.7762 4.47353,4.01099z" fill="#ffffff" stroke="#000000" stroke-width="2.5" stroke-linecap="butt"/><path d="M339.49006,247.26825c1.3541,-0.22036 1.32457,-1.44139 1.29754,-1.72822c0.21458,-0.37744 0.40064,-0.80443 0.54783,-1.29168l0.47212,-0.46394c0,0 0.64499,-0.89446 0.09752,-1.71996c0.07487,-0.09947 0.15322,-0.20473 0.2337,-0.31637c3.4277,-4.75456 8.44991,-7.29955 14.27196,-5.74871c2.79447,0.74437 5.04847,3.80581 7.38711,5.32203c0.37364,1.68715 1.9623,4.0263 1.05692,5.75135c-0.57059,1.08718 -2.78921,2.85773 -2.20519,4.18401c0.46939,1.06597 2.05022,1.25202 3.2029,1.41916c0.59727,0.08661 1.06544,-0.66755 1.66755,-0.70871c2.23309,-0.15267 4.81167,1.80701 6.36772,3.13186c1.98662,1.69144 -2.21377,3.86888 -2.19593,5.56826c0.03582,3.41342 4.82866,3.41423 5.66815,6.49837c-0.01018,0.05552 -0.46301,2.66576 -0.58555,2.90782c-0.75666,1.49472 -3.72378,3.74411 -3.0758,5.74066c0.61192,1.88543 4.51277,3.53809 6.11901,4.46484c0.62317,0.35954 1.56869,0.67773 1.65005,1.39257c0.12547,1.10259 -1.69408,3.15666 -2.21503,3.87804c-2.65565,3.67738 -6.80655,5.28887 -10.17484,8.45143c-2.84326,1.85534 -3.88356,6.06606 -7.05559,7.40365c-3.38066,1.42557 -6.70562,0.46805 -10.14585,-0.08234c-3.78417,-0.60543 -7.653,-0.67927 -11.43992,-1.43438c-2.16761,-0.43222 -3.85529,-1.14847 -6.12486,-0.99563c-3.13336,-1.56594 -7.19255,-3.14016 -9.15953,-6.27142c-2.01037,-3.20035 -1.11734,-6.98045 -0.55421,-10.45851c0.89006,-5.49727 2.21775,-11.0705 2.8117,-16.55529c1.42306,-5.74478 2.05119,-9.64826 6.0165,-14.41569c1.68231,-2.02264 4.02817,-2.56314 5.79086,-3.89614c0.08606,-0.00251 0.17738,-0.0114 0.2732,-0.027z" fill="url(#color-14)" stroke="#000000" stroke-width="3" stroke-linecap="butt"/></g></g></svg>