<svg version="1.1" xmlns="http://www.w3.org/2000/svg" xmlns:xlink="http://www.w3.org/1999/xlink" width="199.97678" height="320.89196" viewBox="0,0,199.97678,320.89196"><defs><linearGradient x1="326.31367" y1="164.81984" x2="322.73759" y2="343.26143" gradientUnits="userSpaceOnUse" id="color-1"><stop offset="0" stop-color="#2b2b2b"/><stop offset="1" stop-color="#171717"/></linearGradient><linearGradient x1="295.96394" y1="27.69997" x2="295.96394" y2="111.55357" gradientUnits="userSpaceOnUse" id="color-2"><stop offset="0" stop-color="#ffffff"/><stop offset="1" stop-color="#8c8c8c"/></linearGradient><linearGradient x1="363.56983" y1="29.60562" x2="363.56983" y2="112.76215" gradientUnits="userSpaceOnUse" id="color-3"><stop offset="0" stop-color="#ffffff"/><stop offset="1" stop-color="#8c8c8c"/></linearGradient><linearGradient x1="391.42033" y1="110.03728" x2="392.70984" y2="145.16772" gradientUnits="userSpaceOnUse" id="color-4"><stop offset="0" stop-color="#ffffff"/><stop offset="1" stop-color="#ececec"/></linearGradient><linearGradient x1="386.07765" y1="138.42433" x2="380.65102" y2="173.15706" gradientUnits="userSpaceOnUse" id="color-5"><stop offset="0" stop-color="#ffffff"/><stop offset="1" stop-color="#ececec"/></linearGradient><linearGradient x1="262.91967" y1="106.63328" x2="260.22369" y2="141.68385" gradientUnits="userSpaceOnUse" id="color-6"><stop offset="0" stop-color="#ffffff"/><stop offset="1" stop-color="#ececec"/></linearGradient><linearGradient x1="268.53176" y1="137.21298" x2="274.96629" y2="171.77321" gradientUnits="userSpaceOnUse" id="color-7"><stop offset="0" stop-color="#ffffff"/><stop offset="1" stop-color="#ececec"/></linearGradient><linearGradient x1="329.22171" y1="72.45211" x2="327.08909" y2="178.86638" gradientUnits="userSpaceOnUse" id="color-8"><stop offset="0" stop-color="#ffffff"/><stop offset="1" stop-color="#ececec"/></linearGradient><linearGradient x1="262.91967" y1="106.63328" x2="260.22369" y2="141.68385" gradientUnits="userSpaceOnUse" id="color-9"><stop offset="0" stop-color="#ffffff"/><stop offset="1" stop-color="#ececec"/></linearGradient><linearGradient x1="391.42033" y1="110.03728" x2="392.70984" y2="145.16772" gradientUnits="userSpaceOnUse" id="color-10"><stop offset="0" stop-color="#ffffff"/><stop offset="1" stop-color="#ececec"/></linearGradient><linearGradient x1="386.07765" y1="138.42433" x2="380.65102" y2="173.15706" gradientUnits="userSpaceOnUse" id="color-11"><stop offset="0" stop-color="#ffffff"/><stop offset="1" stop-color="#ececec"/></linearGradient><linearGradient x1="268.53176" y1="137.21298" x2="274.96629" y2="171.77321" gradientUnits="userSpaceOnUse" id="color-12"><stop offset="0" stop-color="#ffffff"/><stop offset="1" stop-color="#ececec"/></linearGradient><linearGradient x1="268.84453" y1="137.21925" x2="275.27907" y2="171.77948" gradientUnits="userSpaceOnUse" id="color-13"><stop offset="0" stop-color="#ffffff"/><stop offset="1" stop-color="#ececec"/></linearGradient></defs><g transform="translate(-231.33067,-24.64943)"><g stroke-miterlimit="10"><path d="M276.29811,339.92514c0,0 0.36116,-62.83165 0.51389,-89.40335c0.12286,-21.37584 -3.03068,-62.83092 -3.03068,-62.83092c0,0 10.4259,-20.67359 20.12825,-21.01023c9.63521,-0.33429 32.46548,-0.72953 52.41409,-1.42166c21.63661,-0.7507 29.99122,19.28732 29.99122,19.28732l-4.98568,159.68894z" fill="url(#color-1)" stroke="#000000" stroke-width="2.5" stroke-linecap="butt"/><path d="M343.71957,175.13937c-0.17092,8.52873 -8.21107,15.28427 -17.95819,15.08893c-9.74711,-0.19534 -17.51015,-7.26758 -17.33923,-15.79631c0.17092,-8.52873 8.21107,-15.28427 17.95819,-15.08893c9.74711,0.19534 17.51015,7.26758 17.33923,15.79631z" fill="#ffffff" stroke="#000000" stroke-width="2.5" stroke-linecap="butt"/><path d="M374.61597,187.19049c-0.17092,8.52873 1.00608,16.33471 -2.68719,16.26069c-3.69327,-0.07402 -10.85826,-8 -10.68734,-16.52873c0.17092,-8.52873 -0.74652,-14.88664 2.94676,-14.81262c3.69327,0.07402 10.59869,6.55193 10.42777,15.08065z" fill="#ffffff" stroke="#000000" stroke-width="2.5" stroke-linecap="butt"/><path d="M287.07901,172.35006c3.69327,0.07402 2.52184,6.39006 2.35092,14.91879c-0.17092,8.52873 -7.6477,16.16128 -11.34098,16.08726c-3.69327,-0.07402 -2.20446,-7.82657 -2.03354,-16.3553c0.17092,-8.52873 7.33033,-14.72477 11.0236,-14.65076z" fill="#ffffff" stroke="#000000" stroke-width="2.5" stroke-linecap="butt"/><path d="M277.81519,111.55357l-15.71794,-83.8536l67.73338,53.53796z" fill="url(#color-2)" stroke="#000000" stroke-width="2.5" stroke-linecap="butt"/><path d="M328.65783,80.38684l69.824,-50.78122l-19.06493,83.15653z" fill="url(#color-3)" stroke="#000000" stroke-width="2.5" stroke-linecap="butt"/><path d="M377.033,110.56539c5.90362,1.24775 7.75386,4.63993 13.14805,7.54034c7.88462,4.23947 11.76845,12.91218 13.51619,22.16713c0.27557,1.45924 -0.08908,7.70893 -0.08908,7.70893c0,0 -4.21456,-1.39308 -6.97088,-1.67951c-6.54767,-0.68044 -8.31923,-2.48558 -14.90872,-2.2437c-1.54517,0.05671 -7.84626,0.83893 -8.98155,0.05145c-1.34339,-0.93181 -1.11364,-6.35109 -1.16952,-7.84121c-0.29152,-7.77285 0.89303,-18.34671 4.82533,-25.25642z" fill="url(#color-4)" stroke="#000000" stroke-width="2.5" stroke-linecap="round"/><path d="M371.85319,136.20191c5.55781,2.34957 12.14821,4.63691 16.89107,8.51181c6.93258,5.66389 8.25909,16.39847 8.21172,25.81687c-0.00747,1.48502 -1.55602,7.55078 -1.55602,7.55078c0,0 -3.03799,-3.65125 -5.68927,-4.45754c-6.29813,-1.91534 -13.11363,-2.6297 -19.62853,-3.64758c-1.52767,-0.23868 -7.8624,-0.67119 -8.82688,-1.66052c-1.14126,-1.17067 0.11667,-6.44693 0.34568,-7.9204c1.19459,-7.68605 4.3718,-17.84058 9.54843,-23.87462z" fill="url(#color-5)" stroke="#000000" stroke-width="2.5" stroke-linecap="round"/><path d="M277.88605,108.2093c3.65231,7.06171 4.41227,17.67453 3.80956,25.42947c-0.11554,1.48668 -0.10311,6.91081 -1.48274,7.78805c-1.16593,0.74136 -7.43064,-0.29267 -8.97229,-0.41126c-6.5745,-0.50568 -6.29341,2.34253 -12.86309,2.76008c-2.76559,0.17578 -10.92931,-0.46747 -10.92931,-0.46747c0,0 -0.11396,-6.25927 0.21985,-7.7063c2.11714,-9.17749 3.1636,-19.53963 11.21175,-23.45981c5.50606,-2.68196 12.44564,-3.39443 18.39452,-4.40466z" fill="url(#color-6)" stroke="#000000" stroke-width="2.5" stroke-linecap="round"/><path d="M283.3983,134.87598c5.34993,5.88094 8.82116,15.93877 10.2388,23.58681c0.27178,1.46619 1.68264,6.70363 0.57591,7.907c-0.9353,1.01697 -7.25476,1.63354 -8.77484,1.91656c-6.48252,1.20694 -13.27438,2.11923 -19.51413,4.21694c-2.62671,0.88306 -3.6017,6.08529 -3.6017,6.08529c0,0 -1.72433,-6.01817 -1.77498,-7.50233c-0.32129,-9.41304 -1.26305,-21.64581 5.50185,-27.50894c4.62815,-4.01122 11.14924,-6.48927 16.63636,-8.99949z" fill="url(#color-7)" stroke="#000000" stroke-width="2.5" stroke-linecap="round"/><path d="M382.75027,128.97847c-2.51146,28.44355 -28.98338,52.35838 -59.11878,49.69754c-30.1354,-2.66084 -52.52261,-30.88975 -50.01115,-59.33329c2.51146,-28.44354 28.97698,-49.34456 59.11237,-46.68371c30.1354,2.66084 52.52904,27.87592 50.01758,56.31946z" fill="url(#color-8)" stroke="#000000" stroke-width="2.5" stroke-linecap="butt"/><path d="M271.24058,141.01556c-6.5745,-0.50568 -6.29341,2.34253 -12.86309,2.76008c-2.76559,0.17578 -10.92931,-0.46747 -10.92931,-0.46747c0,0 -0.11396,-6.25927 0.21985,-7.7063c2.11714,-9.17749 3.1636,-19.53963 11.21175,-23.45981c5.11927,-2.49355 11.47773,-3.2846 17.12699,-4.19537c7.56393,-22.40964 30.78529,-37.57814 56.72595,-35.28766c30.1354,2.66084 52.52904,27.87592 50.01758,56.31946h-0.00002c-2.51146,28.44355 -28.98338,52.35838 -59.11878,49.69754c-22.08513,-1.95003 -40.00879,-17.63238 -47.02035,-37.06762c-2.11643,-0.16594 -4.49875,-0.52577 -5.37057,-0.59283z" fill="url(#color-9)" stroke="#000000" stroke-width="2.5" stroke-linecap="round"/><path d="M390.18106,118.10573c7.88462,4.23947 11.76845,12.91218 13.51619,22.16713c0.27557,1.45924 -0.08908,7.70893 -0.08908,7.70893c0,0 -4.21456,-1.39308 -6.97088,-1.67951c-6.54767,-0.68044 -8.31923,-2.48558 -14.90872,-2.2437c-0.51313,0.01883 -1.55075,0.11767 -2.7495,0.21247c-8.73751,21.14391 -30.8301,36.56976 -55.34757,34.40496c-22.08513,-1.95003 -40.00879,-17.63238 -47.02035,-37.06762c-2.11643,-0.16594 -4.49875,-0.52577 -5.37057,-0.59283c-6.5745,-0.50568 -6.29341,2.34253 -12.86309,2.76008c-2.76559,0.17578 -10.92931,-0.46747 -10.92931,-0.46747c0,0 -0.11396,-6.25927 0.21985,-7.7063c2.11714,-9.17749 3.1636,-19.53963 11.21175,-23.45981c5.11927,-2.49355 11.47773,-3.2846 17.12699,-4.19537c7.56393,-22.40964 30.78529,-37.57814 56.72595,-35.28766c23.70108,2.09271 42.6134,18.13659 48.38721,38.72985c4.8325,0.96319 4.87442,4.4657 9.06114,6.71686z" fill="url(#color-10)" stroke="#000000" stroke-width="2.5" stroke-linecap="round"/><path d="M388.74427,144.71372c6.93258,5.66389 8.25909,16.39847 8.21172,25.81687c-0.00747,1.48502 -1.55602,7.55078 -1.55602,7.55078c0,0 -3.03799,-3.65125 -5.68927,-4.45754c-6.29813,-1.91534 -13.11363,-2.6297 -19.62853,-3.64758c-1.52767,-0.23868 -7.8624,-0.67119 -8.82688,-1.66052c-0.15583,-0.15985 -0.26693,-0.39625 -0.34203,-0.68905c-10.33566,7.87501 -23.4212,12.27317 -37.28175,11.04934c-22.08513,-1.95003 -40.00879,-17.63238 -47.02035,-37.06762c-2.11643,-0.16594 -4.49875,-0.52577 -5.37057,-0.59283c-6.5745,-0.50568 -6.29341,2.34253 -12.86309,2.76008c-2.76559,0.17578 -10.92931,-0.46747 -10.92931,-0.46747c0,0 -0.11396,-6.25927 0.21985,-7.7063c2.11714,-9.17749 3.1636,-19.53963 11.21175,-23.45981c5.11927,-2.49355 11.47773,-3.2846 17.12699,-4.19537c7.56393,-22.40964 30.78529,-37.57814 56.72595,-35.28766c23.70108,2.09271 42.6134,18.13659 48.38721,38.72985c4.8325,0.96319 4.87442,4.4657 9.06114,6.71686c7.88462,4.23947 11.76845,12.91218 13.51619,22.16713c0.27557,1.45924 -0.08908,7.70893 -0.08908,7.70893c0,0 -4.21456,-1.39308 -6.97088,-1.67951c-4.63582,-0.48176 -4.35632,-2.72535 -9.08869,-2.50579c0.4098,0.29578 0.80888,0.60123 1.19566,0.91723z" fill="url(#color-11)" stroke="#000000" stroke-width="2.5" stroke-linecap="round"/><path d="M285.43816,168.28634c-6.48252,1.20694 -13.27438,2.11923 -19.51413,4.21694c-2.62671,0.88306 -3.6017,6.08529 -3.6017,6.08529c0,0 -1.72433,-6.01817 -1.77498,-7.50233c-0.32129,-9.41304 -1.26305,-21.64581 5.50185,-27.50894c1.12843,-0.97802 2.3694,-1.86489 3.68048,-2.6833c-6.10113,-0.50958 -5.28455,2.49602 -11.35221,2.88166c-2.76559,0.17578 -10.92931,-0.46747 -10.92931,-0.46747c0,0 -0.11396,-6.25927 0.21985,-7.7063c2.11714,-9.17749 3.1636,-19.53963 11.21175,-23.45981c5.11927,-2.49355 11.47773,-3.2846 17.12699,-4.19537c7.56393,-22.40964 30.78529,-37.57814 56.72595,-35.28766c23.70108,2.09271 42.6134,18.13659 48.38721,38.72985c4.8325,0.96319 4.87442,4.4657 9.06114,6.71686c7.88462,4.23947 11.76845,12.91218 13.51619,22.16713c0.27557,1.45924 -0.08908,7.70893 -0.08908,7.70893c0,0 -4.21456,-1.39308 -6.97088,-1.67951c-4.63582,-0.48176 -4.35632,-2.72535 -9.08869,-2.50579c0.4098,0.29578 0.80888,0.60123 1.19566,0.91723c6.93258,5.66389 8.25909,16.39847 8.21172,25.81687c-0.00747,1.48502 -1.55602,7.55078 -1.55602,7.55078c0,0 -3.03799,-3.65125 -5.68927,-4.45754c-6.29813,-1.91534 -13.11363,-2.6297 -19.62853,-3.64758c-1.52767,-0.23868 -7.8624,-0.67119 -8.82688,-1.66052c-0.15583,-0.15985 -0.26693,-0.39625 -0.34203,-0.68905c-10.33566,7.87501 -23.4212,12.27317 -37.28175,11.04934c-11.18957,-0.988 -21.3109,-5.50108 -29.48597,-12.24136c-1.13661,0.97839 -7.21985,1.57473 -8.70735,1.85169z" fill="url(#color-12)" stroke="#000000" stroke-width="2.5" stroke-linecap="round"/><path d="M285.75094,168.29261c-6.48252,1.20694 -13.27438,2.11923 -19.51413,4.21694c-2.6267,0.88306 -3.60169,6.08529 -3.60169,6.08529c0,0 -1.72433,-6.01817 -1.77498,-7.50233c-0.32129,-9.41304 -1.26306,-21.64581 5.50185,-27.50894c1.12843,-0.97802 2.3694,-1.86489 3.68047,-2.6833c-6.10113,-0.50958 -5.28455,2.49602 -11.3522,2.88166c-2.76559,0.17578 -10.92931,-0.46747 -10.92931,-0.46747c0,0 -0.11396,-6.25927 0.21985,-7.7063c2.11714,-9.17749 3.1636,-19.53963 11.21175,-23.45981c5.11927,-2.49355 11.47772,-3.2846 17.12698,-4.19538c7.56393,-22.40964 30.78529,-37.57814 56.72595,-35.28766c23.70108,2.09271 42.61341,18.13659 48.38721,38.72985c4.8325,0.96319 4.87442,4.4657 9.06114,6.71686c7.88462,4.23947 11.76845,12.91218 13.51619,22.16713c0.27557,1.45924 -0.08908,7.70893 -0.08908,7.70893c0,0 -4.21456,-1.39308 -6.97088,-1.67951c-4.63582,-0.48176 -4.35632,-2.72535 -9.08868,-2.50579c0.4098,0.29578 0.80888,0.60123 1.19566,0.91723c6.93258,5.66389 8.25909,16.39847 8.21172,25.81687c-0.00747,1.48502 -1.55602,7.55078 -1.55602,7.55078c0,0 -3.03799,-3.65125 -5.68927,-4.45754c-6.29813,-1.91534 -13.11363,-2.6297 -19.62853,-3.64758c-1.52767,-0.23868 -7.8624,-0.67119 -8.82688,-1.66052c-0.15583,-0.15985 -0.26693,-0.39625 -0.34203,-0.68905c-10.33566,7.87501 -23.42121,12.27317 -37.28176,11.04934c-11.18957,-0.988 -21.31089,-5.50108 -29.48597,-12.24136c-1.13661,0.97839 -7.21985,1.57473 -8.70735,1.85169z" fill="url(#color-13)" stroke="#000000" stroke-width="2.5" stroke-linecap="round"/><path d="M380.34019,106.35276c0.11016,-5.49704 9.02329,-9.54635 13.4779,-10.38192c12.08007,-2.2659 27.31569,1.66351 36.23936,10.40895" fill="none" stroke="#000000" stroke-width="2.5" stroke-linecap="round"/><path d="M380.27125,109.79322c10.22706,-6.5259 34.12257,4.073 40.41119,13.00661" fill="none" stroke="#000000" stroke-width="2.5" stroke-linecap="round"/><path d="M232.58067,91.9551c2.92471,-1.82337 6.08665,-4.67955 9.5642,-5.26819c10.28258,-1.74054 21.12193,6.50728 28.86414,12.06513c2.727,1.95761 6.46123,4.29715 8.27523,7.13997" fill="none" stroke="#000000" stroke-width="2.5" stroke-linecap="round"/><path d="M242.98686,109.13496c1.17894,-1.7301 2.64117,-4.21469 4.52897,-5.23759c2.25744,-1.22319 6.49405,-0.45894 8.92735,-0.12903c6.53735,0.88636 13.35279,1.27814 19.69456,2.99929" fill="none" stroke="#000000" stroke-width="2.5" stroke-linecap="round"/><path d="M293.27002,152.59253l-5.70787,1.02309" fill="none" stroke="#000000" stroke-width="2.5" stroke-linecap="round"/><path d="M363.44866,159.70305l-39.21987,10.09391l-33.43987,-15.88087l17.35051,8.31001l16.9053,-3.5286l21.31207,3.61203l18.98837,-5.30682" fill="none" stroke="#000000" stroke-width="2.5" stroke-linecap="round"/><path d="M341.74371,123.04689c-0.05428,2.7083 -6.74937,4.77051 -14.95391,4.60609c-8.20455,-0.16442 -14.81164,-2.49323 -14.75736,-5.20152c0.05428,-2.7083 6.74937,-4.77051 14.95391,-4.60609c8.20455,0.16442 14.81164,2.49323 14.75736,5.20152z" fill-opacity="0.18431" fill="#ff0505" stroke="none" stroke-width="0" stroke-linecap="butt"/><path d="M363.90708,153.88572l4.49338,2.81998" fill="none" stroke="#000000" stroke-width="2.5" stroke-linecap="round"/><path d="M294.80978,120.22153l6.66176,-4.8361l6.45419,5.5219" fill="none" stroke="#000000" stroke-width="2.5" stroke-linecap="round"/><path d="M345.26548,121.73301l6.67024,-5.25888l6.46265,5.09912" fill="none" stroke="#000000" stroke-width="2.5" stroke-linecap="round"/></g></g></svg>