<svg version="1.1" xmlns="http://www.w3.org/2000/svg" xmlns:xlink="http://www.w3.org/1999/xlink" width="160.76746" height="322.78838" viewBox="0,0,160.76746,322.78838"><defs><linearGradient x1="329.77006" y1="174.73221" x2="325.18592" y2="353.51801" gradientUnits="userSpaceOnUse" id="color-1"><stop offset="0" stop-color="#2982c1"/><stop offset="1" stop-color="#000000"/></linearGradient><linearGradient x1="407.28265" y1="147.50508" x2="367.82437" y2="146.49336" gradientUnits="userSpaceOnUse" id="color-2"><stop offset="0" stop-color="#a636f3"/><stop offset="1" stop-color="#581b7d"/></linearGradient><linearGradient x1="253.28025" y1="149.04714" x2="292.73852" y2="150.05886" gradientUnits="userSpaceOnUse" id="color-3"><stop offset="0" stop-color="#a636f3"/><stop offset="1" stop-color="#581b7d"/></linearGradient><radialGradient cx="294.77144" cy="100.74255" r="25.84387" gradientUnits="userSpaceOnUse" id="color-4"><stop offset="0" stop-color="#000000" stop-opacity="0.92549"/><stop offset="1" stop-color="#000000" stop-opacity="0"/></radialGradient><linearGradient x1="249.34389" y1="75.28816" x2="314.25023" y2="84.17259" gradientUnits="userSpaceOnUse" id="color-5"><stop offset="0" stop-color="#a636f3"/><stop offset="1" stop-color="#16031b"/></linearGradient><radialGradient cx="367.14823" cy="97.45099" r="25.35587" gradientUnits="userSpaceOnUse" id="color-6"><stop offset="0" stop-color="#000000" stop-opacity="0.92549"/><stop offset="1" stop-color="#000000" stop-opacity="0"/></radialGradient><linearGradient x1="412.79395" y1="76.91937" x2="347.5176" y2="82.46588" gradientUnits="userSpaceOnUse" id="color-7"><stop offset="0" stop-color="#a636f3"/><stop offset="1" stop-color="#16031b"/></linearGradient></defs><g transform="translate(-250.67367,-33.21487)"><g stroke-miterlimit="10"><path d="M281.85425,348.76714l1.82042,-147.27752c0,0 6.74,-25.53384 15.75399,-25.70808c8.95164,-0.17303 30.1594,-0.18607 48.69273,-0.54432c20.10157,-0.38856 26.61042,16.95055 26.61042,16.95055l-4.64201,162.48159z" fill="url(#color-1)" stroke="#000000" stroke-width="2.5" stroke-linecap="butt"/><path d="M353.14976,187.11816c-0.47101,8.50993 -10.52889,14.87304 -22.4649,14.21241c-11.93601,-0.66064 -21.23022,-8.09484 -20.7592,-16.60478c0.47101,-8.50993 10.52887,-14.87304 22.46488,-14.21241c11.93601,0.66064 21.23023,8.09486 20.75921,16.60479z" fill="#f2f2f2" stroke="#000000" stroke-width="1.5" stroke-linecap="butt"/><path d="M347.49335,187.25345c-0.35388,6.39367 -7.91055,11.17439 -16.87829,10.67804c-8.96775,-0.49636 -15.95066,-6.08181 -15.59677,-12.47549c0.35388,-6.39367 7.91054,-11.17439 16.87828,-10.67804c8.96775,0.49636 15.95067,6.08182 15.59678,12.47549z" fill="#a636f3" stroke="#000000" stroke-width="2.5" stroke-linecap="butt"/><path d="M386.9392,116.91222c4.77871,0.54085 8.12615,-1.73486 12.52057,-2.69023c0.66928,-0.14552 4.38661,-1.73127 4.87055,-1.11113c0.37315,0.47816 -1.22358,3.62098 -1.42095,4.17058c-0.67204,1.87118 -6.12118,11.98164 -6.01893,12.76151c0.37707,2.87603 9.16737,-1.41313 10.5163,-0.13113c1.23559,1.17429 -1.64778,5.134 -2.17276,6.02524c-1.48526,2.52147 -8.54792,15.51053 -8.49815,17.56567c0.07922,3.27093 4.28434,7.03899 2.72023,11.32136c-0.76753,2.10141 -2.50848,-1.06173 -3.4717,-0.70076c-0.98101,0.36765 -0.76362,4.51286 -0.77703,5.38551c-0.05466,3.55665 -0.18259,7.53704 -0.95291,11.04392c-0.07935,0.36123 -0.03487,0.91296 -0.34801,1.04924c-0.77999,0.33943 -9.1621,-8.839 -10.51831,-9.89433c-6.60201,-5.13734 -12.97855,-13.04219 -14.75061,-22.31455c-2.67712,-14.00814 2.35386,-33.63802 17.91971,-31.87897z" fill="url(#color-2)" stroke="#000000" stroke-width="2.5" stroke-linecap="round"/><path d="M275.51541,120.15774c15.63554,-0.95904 19.65393,18.90286 16.26245,32.7554c-2.2449,9.16936 -9.01817,16.73704 -15.87478,21.5293c-1.4085,0.98445 -10.24998,9.72125 -11.01154,9.34229c-0.30576,-0.15214 -0.23306,-0.70087 -0.29379,-1.06569c-0.58958,-3.54174 -0.51337,-7.52345 -0.38569,-11.07823c0.03132,-0.87219 0.46087,-5.00081 -0.50001,-5.41825c-0.94345,-0.40988 -2.84421,2.6599 -3.50304,0.52192c-1.34261,-4.35688 3.0501,-7.90452 3.29683,-11.16708c0.15503,-2.0499 -6.23269,-15.38381 -7.58678,-17.97809c-0.47862,-0.91697 -3.15528,-5.01925 -1.86112,-6.12867c1.41286,-1.21119 9.97179,3.52281 10.49577,0.6699c0.14208,-0.77362 -4.78176,-11.15004 -5.35702,-13.0532c-0.16897,-0.55899 -1.60252,-3.77951 -1.20537,-4.23792c0.51508,-0.59452 4.14627,1.17965 4.80721,1.35927c4.33968,1.17934 7.5661,3.6236 12.36624,3.32835z" fill="url(#color-3)" stroke="#000000" stroke-width="2.5" stroke-linecap="round"/><path d="M385.55452,136.28741c-2.67062,28.42905 -29.27597,52.19535 -59.396,49.36588c-30.12003,-2.82946 -52.3489,-31.18322 -49.67829,-59.61226c2.67061,-28.42904 29.2527,-49.18161 59.37273,-46.35213c30.12003,2.82946 52.37219,28.16948 49.70159,56.59851z" fill="#a636f3" stroke="#000000" stroke-width="2.5" stroke-linecap="butt"/><path d="M345.4233,125.34788c-0.05568,2.70827 -6.75183,4.76702 -14.95629,4.59836c-8.20446,-0.16866 -14.81036,-2.50087 -14.75467,-5.20914c0.05568,-2.70827 6.75184,-4.76702 14.9563,-4.59836c8.20446,0.16866 14.81036,2.50087 14.75468,5.20914z" fill-opacity="0.23137" fill="#000000" stroke="none" stroke-width="0" stroke-linecap="butt"/><path d="M299.47273,121.21735c-12.43279,6.15256 -24.61639,1.97334 -27.21284,-9.33457c-2.59644,-11.30792 5.37749,-25.46244 17.81029,-31.61501c12.43279,-6.15256 24.61639,-1.97334 27.21283,9.33457c2.59644,11.30792 -5.37749,25.46243 -17.81028,31.61501z" fill="url(#color-4)" stroke="#000000" stroke-width="0" stroke-linecap="butt"/><path d="M308.64466,99.14687l-14.22114,11.99483l-13.17395,7.09731l-15.86028,-3.16135l-13.45151,-39.4713l2.59033,-38.19215l23.50154,40.96487l36.24255,5.63319z" fill="url(#color-5)" stroke="#000000" stroke-width="2.5" stroke-linecap="round"/><path d="M345.65089,85.40363c3.11262,-10.94927 15.26059,-14.43161 27.13323,-7.77804c11.87264,6.65358 18.97405,20.9235 15.86143,31.87276c-3.11262,10.94927 -15.2606,14.43161 -27.13324,7.77804c-11.87264,-6.65358 -18.97404,-20.9235 -15.86142,-31.87275z" fill="url(#color-6)" stroke="#000000" stroke-width="0" stroke-linecap="butt"/><path d="M347.50387,82.30462l36.48362,-3.76846l25.56999,-39.70665l0.62969,38.2747l-15.45662,38.73008l-16.00145,2.3444l-12.79291,-7.7631l-13.58776,-12.70788z" fill="url(#color-7)" stroke="#000000" stroke-width="2.5" stroke-linecap="round"/><path d="M323.43732,92.52394c0,0 -1.22449,0.81214 -2.62689,1.53043c-1.08717,0.55683 -2.28127,1.05726 -3.0947,1.07919c-0.75747,0.02041 -1.83348,-0.43537 -2.7954,-0.94819c-1.20292,-0.64132 -2.22743,-1.37182 -2.22743,-1.37182" fill="none" stroke-opacity="0.40392" stroke="#000000" stroke-width="2.5" stroke-linecap="round"/><path d="M353.05756,94.22666c0,0 -1.39022,0.47565 -2.9288,0.81542c-1.19274,0.26341 -2.47464,0.44517 -3.26713,0.26042c-0.73796,-0.17204 -1.66349,-0.88541 -2.46421,-1.62509c-1.00134,-0.925 -1.80749,-1.89112 -1.80749,-1.89112" fill="none" stroke-opacity="0.40392" stroke="#000000" stroke-width="2.5" stroke-linecap="round"/><path d="M338.08773,89.87398c0,0 -1.17937,0.87636 -2.54142,1.66851c-1.05589,0.61409 -2.22156,1.17758 -3.03268,1.2429c-0.7553,0.06083 -1.85412,-0.33685 -2.84204,-0.79757c-1.23544,-0.57616 -2.2975,-1.25093 -2.2975,-1.25093" fill="none" stroke-opacity="0.40392" stroke="#000000" stroke-width="2.5" stroke-linecap="round"/><path d="M382.08589,134.13152c0,0 -0.92617,0.48753 -1.94955,0.84051c-0.79336,0.27365 -1.64513,0.46645 -2.16915,0.28857c-0.48795,-0.16564 -1.09564,-0.87086 -1.62034,-1.60346c-0.65614,-0.91615 -1.18248,-1.8751 -1.18248,-1.8751" fill="none" stroke-opacity="0.40392" stroke="#000000" stroke-width="2.5" stroke-linecap="round"/><path d="M382.31479,142.6425c0,0 -0.92617,0.48753 -1.94955,0.84052c-0.79336,0.27365 -1.64513,0.46645 -2.16915,0.28857c-0.48795,-0.16564 -1.09564,-0.87086 -1.62034,-1.60346c-0.65614,-0.91615 -1.18248,-1.8751 -1.18248,-1.8751" fill="none" stroke-opacity="0.40392" stroke="#000000" stroke-width="2.5" stroke-linecap="round"/><path d="M380.26793,151.09511c0,0 -0.92617,0.48753 -1.94955,0.84052c-0.79336,0.27365 -1.64512,0.46645 -2.16914,0.28857c-0.48796,-0.16563 -1.09565,-0.87085 -1.62035,-1.60345c-0.65614,-0.91615 -1.18248,-1.8751 -1.18248,-1.8751" fill="none" stroke-opacity="0.40392" stroke="#000000" stroke-width="2.5" stroke-linecap="round"/><path d="M286.54588,127.69808c0,0 -0.57478,0.93071 -1.27702,1.81204c-0.56154,0.70475 -1.20458,1.37789 -1.70038,1.51832c-0.53244,0.15078 -1.37321,-0.08541 -2.15151,-0.39936c-1.00395,-0.40497 -1.90391,-0.93932 -1.90391,-0.93932" fill="none" stroke-opacity="0.40392" stroke="#000000" stroke-width="2.5" stroke-linecap="round"/><path d="M287.54233,133.60114c0,0 -0.57478,0.93071 -1.27702,1.81203c-0.56154,0.70475 -1.20458,1.37789 -1.70039,1.51832c-0.53244,0.15078 -1.37321,-0.08541 -2.1515,-0.39936c-1.00395,-0.40498 -1.90391,-0.93933 -1.90391,-0.93933" fill="none" stroke-opacity="0.40392" stroke="#000000" stroke-width="2.5" stroke-linecap="round"/><path d="M287.81164,140.53659c0,0 -0.57478,0.93071 -1.27702,1.81203c-0.56154,0.70475 -1.20458,1.37789 -1.70039,1.51832c-0.53244,0.15078 -1.37321,-0.08541 -2.1515,-0.39936c-1.00395,-0.40498 -1.90391,-0.93933 -1.90391,-0.93933" fill="none" stroke-opacity="0.40392" stroke="#000000" stroke-width="2.5" stroke-linecap="round"/><path d="M324.22317,153.30982l3.38283,5.24549" fill="none" stroke="#000000" stroke-width="2.5" stroke-linecap="round"/><path d="M332.74334,159.39049l4.8369,-5.7382" fill="none" stroke="#000000" stroke-width="2.5" stroke-linecap="round"/><path d="M368.08551,156.69761l2.86953,0.64677l-23.08399,11.06325l-18.68869,-2.772l-13.62928,2.51656l-25.11678,-10.96167l4.0526,-0.46929" fill="none" stroke="#000000" stroke-width="2.5" stroke-linecap="round"/><path d="M398.6655,55.78749c0,0 -52.95501,4.24388 -86.78621,6.07046c-12.39103,0.66901 -22.21667,1.01374 -25.93548,0.70692c-29.65188,-2.44642 -21.78649,-8.41498 -21.78649,-8.41498" fill="none" stroke="#000000" stroke-width="2.5" stroke-linecap="round"/><path d="M395.17798,60.61432c0,0 -36.9615,2.77427 -69.1382,4.92666c-17.88527,1.1964 -34.28929,2.4399 -42.05257,2.33593c-20.43905,-0.27371 -15.55336,-8.95986 -15.55336,-8.95986" fill="none" stroke="#000000" stroke-width="2.5" stroke-linecap="round"/><path d="M392.71816,65.72626c0,0 -81.36607,7.64611 -102.26319,7.46532c-19.63956,-0.16992 -19.58116,-8.51946 -19.58116,-8.51946" fill="none" stroke="#000000" stroke-width="2.5" stroke-linecap="round"/><path d="M299.87861,248.60352l24.11102,-11.45359l19.24535,12.89153l15.15717,-5.8104" fill="none" stroke="#ffffff" stroke-width="1.5" stroke-linecap="round"/><path d="M299.48184,255.55257l24.11102,-11.45359l19.24536,12.89153l15.15717,-5.8104" fill="none" stroke="#ffffff" stroke-width="1.5" stroke-linecap="round"/><path d="M298.76737,262.16722l24.11102,-11.45359l19.24536,12.89153l15.15717,-5.8104" fill="none" stroke="#ffffff" stroke-width="1.5" stroke-linecap="round"/><g><path d="M327.42865,251.8036c14.05483,-11.64083 1.5885,-2.98939 18.44134,-8.8157c2.01421,-0.69636 12.21176,-2.48544 12.21176,-2.48544c0,0 -7.4476,11.4602 -12.57853,14.82187c-0.65865,0.43153 -6.04862,4.17343 -5.94088,4.78501c0.12551,0.71235 3.99915,-0.93903 4.51355,-1.11671c1.93593,-0.66858 16.01496,-5.53639 16.01496,-5.53639l1.32734,10.00118c0,0 -9.62134,5.0469 -12.25891,6.06551c-0.36391,0.14053 -4.44569,2.11039 -4.44822,2.16823c-0.0104,0.23831 5.60774,-0.4904 5.60774,-0.4904l12.03441,6.20219l-1.22554,5.53312l-7.59683,4.16213c0,0 -11.19623,4.80437 -17.01328,6.81538c-9.22316,3.18854 -24.57184,9.18263 -32.46349,5.99336c-1.90918,-0.77157 -2.10582,-5.26528 -3.3025,-6.8644c-2.96813,-3.96629 -1.75151,-9.73178 -2.71845,-14.76383c-0.8856,-4.60878 -3.32723,-8.48572 -3.05177,-13.64988c0.14174,-2.65753 -0.09015,-9.39156 1.40678,-11.96587c1.09722,-1.88696 5.39633,-4.14189 7.18638,-5.16434c5.29566,-3.02476 19.17447,-12.62339 23.91874,-13.50107c0.973,-0.18 6.56821,-1.821 6.37477,-0.83225c-0.20254,1.03519 -9.65546,13.34086 -11.53669,15.42834c-1.19275,1.32352 -2.2058,2.93027 0.13962,2.6059c3.44905,-0.47702 4.95769,0.60402 4.95769,0.60402z" fill="#a636f3" stroke="#000000" stroke-width="2.5" stroke-linecap="round"/><path d="M334.08717,262.85955c0.11339,0.87386 -3.2899,2.94701 -7.60146,4.63048c-4.31157,1.68349 -7.89868,2.3398 -8.01207,1.46594c-0.11339,-0.87386 3.28988,-2.947 7.60145,-4.63048c4.31157,-1.68349 7.89869,-2.3398 8.01208,-1.46594z" fill-opacity="0.23137" fill="#000000" stroke="none" stroke-width="0" stroke-linecap="butt"/><path d="M339.57646,274.15431c0.10394,0.80105 -4.03243,3.09838 -9.23885,5.13129c-5.20642,2.03289 -9.5113,3.03148 -9.61522,2.23043c-0.10394,-0.80105 4.03243,-3.09838 9.23885,-5.13128c5.20642,-2.03289 9.5113,-3.03147 9.61522,-2.23044z" fill-opacity="0.23137" fill="#000000" stroke="none" stroke-width="0" stroke-linecap="butt"/><path d="M316.30078,252.21019c0.16062,1.23799 -0.63243,2.60206 -1.77132,3.04675c-1.13889,0.44468 -2.1924,-0.19838 -2.35303,-1.43637c-0.16062,-1.23799 0.63243,-2.60207 1.77132,-3.04675c1.13889,-0.44468 2.19239,0.19839 2.35303,1.43637z" fill-opacity="0.23137" fill="#000000" stroke="none" stroke-width="0" stroke-linecap="butt"/><path d="M313.23228,264.53895c0,0 -0.50221,1.2085 -1.15706,2.42719c-0.52367,0.97454 -1.14493,1.95559 -1.68507,2.33047c-0.58006,0.40255 -1.57257,0.56024 -2.50672,0.6102c-1.20499,0.0644 -2.31287,-0.0505 -2.31287,-0.0505" fill="none" stroke-opacity="0.40392" stroke="#000000" stroke-width="2.5" stroke-linecap="round"/><path d="M319.58826,267.41305c0,0 -0.50222,1.2085 -1.15707,2.42719c-0.52367,0.97454 -1.14491,1.9556 -1.68506,2.33047c-0.58006,0.40255 -1.57259,0.56024 -2.50674,0.6102c-1.20499,0.0644 -2.31285,-0.0505 -2.31285,-0.0505" fill="none" stroke-opacity="0.40392" stroke="#000000" stroke-width="2.5" stroke-linecap="round"/><path d="M325.94421,270.28716c0,0 -0.50222,1.2085 -1.15707,2.42719c-0.52367,0.97454 -1.14492,1.95559 -1.68506,2.33045c-0.58006,0.40255 -1.57258,0.56026 -2.50673,0.61021c-1.20499,0.0644 -2.31285,-0.05051 -2.31285,-0.05051" fill="none" stroke-opacity="0.40392" stroke="#000000" stroke-width="2.5" stroke-linecap="round"/></g><path d="M315.60299,168.54872l12.88866,-2.33213l19.78577,2.44374l23.49483,-10.04796l-42.02149,24.58028l-38.57296,-24.95237z" fill="#ffffff" stroke="#000000" stroke-width="2.5" stroke-linecap="round"/><path d="M313.75424,124.90118c-0.38967,4.14828 -2.97221,-4.09207 -7.52518,-4.51977c-4.55299,-0.42771 -9.35234,7.11919 -8.96267,2.97092c0.38967,-4.1483 4.39653,-7.1644 8.94951,-6.7367c4.55299,0.42771 7.92799,4.13726 7.53834,8.28556z" fill="#ffffff" stroke="#000000" stroke-width="2.5" stroke-linecap="butt"/><path d="M347.36397,125.56015c-0.17657,-4.16283 3.3841,-7.69456 7.95303,-7.88836c4.56892,-0.19381 8.41595,3.02365 8.59251,7.18649c0.17657,4.16278 -4.22971,-3.62014 -8.79863,-3.42632c-4.56892,0.19381 -7.57036,8.29099 -7.74693,4.12819z" fill="#ffffff" stroke="#000000" stroke-width="2.5" stroke-linecap="butt"/><g><path d="M357.04575,256.74595c0,0 1.56206,-1.0023 4.98213,-0.34917c2.32571,0.44414 1.39634,-1.21243 0.27298,-2.59532c-1.77179,-2.18115 -10.58167,-14.95508 -10.73088,-15.99931c-0.14251,-0.99735 5.36124,0.92822 6.32376,1.15785c4.69308,1.11966 18.06173,11.41692 23.19542,14.7091c1.7353,1.11284 5.91319,3.58512 6.91228,5.52584c1.36304,2.64766 0.78634,9.36094 0.79172,12.02224c0.01043,5.17148 -2.62667,8.9182 -3.74729,13.47555c-1.22355,4.97588 -0.304,10.79615 -3.47148,14.60511c-1.27705,1.5357 -1.70372,6.01342 -3.64994,6.68614c-8.04472,2.78066 -23.06605,-3.99213 -32.1137,-7.64914c-5.70634,-2.30649 -16.64165,-7.67832 -16.64165,-7.67832l-7.37355,-4.54599l-0.94038,-5.58865l12.33643,-5.57733c0,0 5.57341,1.01567 5.57523,0.77714c0.00045,-0.05789 -3.97504,-2.23434 -4.33126,-2.39334c-2.5819,-1.15244 -11.93196,-6.68578 -11.93196,-6.68578l1.83813,-9.92003c0,0 13.81108,5.58293 15.71019,6.34985c0.50463,0.20379 4.28855,2.0515 4.4504,1.34653c0.13895,-0.60526 -5.05218,-4.61847 -5.68786,-5.08318c-4.95191,-3.6202 -11.80242,-15.447 -11.80242,-15.447c0,0 10.09246,2.30932 12.06833,3.10799c16.5321,6.68232 4.52551,-2.59662 17.96532,9.74918z" fill="#a636f3" stroke="#000000" stroke-width="2.5" stroke-linecap="round"/><path d="M357.7558,269.32076c4.21963,1.90223 7.5122,4.14704 7.35417,5.01395c-0.15803,0.86691 -3.7068,0.02763 -7.92642,-1.8746c-4.21961,-1.90221 -7.5122,-4.14704 -7.35418,-5.01395c0.15802,-0.86692 3.70681,-0.02763 7.92642,1.8746z" fill-opacity="0.23137" fill="#000000" stroke="none" stroke-width="0" stroke-linecap="butt"/><path d="M353.25677,281.16501c5.09541,2.29704 9.1086,4.80333 8.96375,5.59799c-0.14486,0.79468 -4.39291,-0.42322 -9.4883,-2.72026c-5.09541,-2.29704 -9.1086,-4.80333 -8.96375,-5.59799c0.14485,-0.79467 4.39291,0.42322 9.4883,2.72026z" fill-opacity="0.23137" fill="#000000" stroke="none" stroke-width="0" stroke-linecap="butt"/><path d="M370.56167,256.40841c1.11461,0.50245 1.83671,1.9054 1.61285,3.13352c-0.22385,1.22813 -1.30893,1.81636 -2.42354,1.3139c-1.11461,-0.50246 -1.83672,-1.9054 -1.61285,-3.13352c0.22387,-1.22812 1.30893,-1.81636 2.42355,-1.3139z" fill-opacity="0.23137" fill="#000000" stroke="none" stroke-width="0" stroke-linecap="butt"/><path d="M377.94994,275.89511c0,0 -1.11231,0.05798 -2.31241,-0.06809c-0.93036,-0.09775 -1.91349,-0.3061 -2.47215,-0.73786c-0.52021,-0.40207 -1.0904,-1.41366 -1.56343,-2.41376c-0.59154,-1.25064 -1.03116,-2.48329 -1.03116,-2.48329" fill="none" stroke-opacity="0.40392" stroke="#000000" stroke-width="2.5" stroke-linecap="round"/><path d="M371.45503,278.43973c0,0 -1.11229,0.05798 -2.3124,-0.06809c-0.93036,-0.09775 -1.91351,-0.3061 -2.47217,-0.73785c-0.52022,-0.40207 -1.09038,-1.41366 -1.56341,-2.41377c-0.59154,-1.25064 -1.03117,-2.48329 -1.03117,-2.48329" fill="none" stroke-opacity="0.40392" stroke="#000000" stroke-width="2.5" stroke-linecap="round"/><path d="M364.96012,280.98432c0,0 -1.11229,0.05799 -2.31239,-0.06808c-0.93035,-0.09775 -1.9135,-0.30611 -2.47216,-0.73786c-0.52022,-0.40207 -1.09039,-1.41365 -1.56341,-2.41375c-0.59154,-1.25064 -1.03116,-2.48329 -1.03116,-2.48329" fill="none" stroke-opacity="0.40392" stroke="#000000" stroke-width="2.5" stroke-linecap="round"/></g></g></g></svg>