<svg version="1.1" xmlns="http://www.w3.org/2000/svg" xmlns:xlink="http://www.w3.org/1999/xlink" width="167.72623" height="306.95675" viewBox="0,0,167.72623,306.95675"><defs><linearGradient x1="320.88854" y1="168.09989" x2="319.77901" y2="346.92882" gradientUnits="userSpaceOnUse" id="color-1"><stop offset="0" stop-color="#676767"/><stop offset="1" stop-color="#313131"/></linearGradient><linearGradient x1="352.31757" y1="169.35607" x2="351.19581" y2="350.15703" gradientUnits="userSpaceOnUse" id="color-2"><stop offset="0" stop-color="#2e2e2e"/><stop offset="1" stop-color="#2b2b2b"/></linearGradient><linearGradient x1="290.52051" y1="167.72398" x2="289.39875" y2="348.52494" gradientUnits="userSpaceOnUse" id="color-3"><stop offset="0" stop-color="#2e2e2e"/><stop offset="1" stop-color="#2b2b2b"/></linearGradient><linearGradient x1="322.25249" y1="167.86558" x2="322.0823" y2="195.29753" gradientUnits="userSpaceOnUse" id="color-4"><stop offset="0" stop-color="#575757"/><stop offset="1" stop-color="#9c9c9c"/></linearGradient><linearGradient x1="322.63527" y1="75.47178" x2="321.97493" y2="181.90535" gradientUnits="userSpaceOnUse" id="color-5"><stop offset="0" stop-color="#1a1a1a"/><stop offset="1" stop-color="#9c9c9c"/></linearGradient><radialGradient cx="355.95867" cy="98.64242" r="23.31484" gradientUnits="userSpaceOnUse" id="color-6"><stop offset="0" stop-color="#000000" stop-opacity="0.92549"/><stop offset="1" stop-color="#000000" stop-opacity="0"/></radialGradient><radialGradient cx="286.40364" cy="102.02087" r="25.35587" gradientUnits="userSpaceOnUse" id="color-7"><stop offset="0" stop-color="#000000" stop-opacity="0.92549"/><stop offset="1" stop-color="#000000" stop-opacity="0"/></radialGradient><linearGradient x1="277.90136" y1="41.65052" x2="280.91135" y2="126.79613" gradientUnits="userSpaceOnUse" id="color-8"><stop offset="0" stop-color="#9c9c9c"/><stop offset="1" stop-color="#2c2c2c"/></linearGradient><linearGradient x1="364.53997" y1="43.35968" x2="363.99239" y2="131.61721" gradientUnits="userSpaceOnUse" id="color-9"><stop offset="0" stop-color="#9c9c9c"/><stop offset="1" stop-color="#2c2c2c"/></linearGradient><linearGradient x1="286.38672" y1="185.31782" x2="286.25774" y2="206.10609" gradientUnits="userSpaceOnUse" id="color-10"><stop offset="0" stop-color="#878787"/><stop offset="1" stop-color="#848484"/></linearGradient><linearGradient x1="127.97861" y1="89.58592" x2="127.97086" y2="90.83589" gradientUnits="userSpaceOnUse" id="color-11"><stop offset="0" stop-color="#878787"/><stop offset="1" stop-color="#848484"/></linearGradient></defs><g transform="translate(-238.08514,-43.0581)"><g stroke-miterlimit="10"><path d="M272.7559,342.99838l-1.21546,-147.28616c0,0 6.78408,-25.65661 16.59463,-26.00098c9.74268,-0.34198 32.83316,-0.75536 53.00425,-1.46341c21.87791,-0.76796 28.52544,26.15216 28.52544,26.15216l-0.71089,152.83394z" fill="url(#color-1)" stroke="#000000" stroke-width="0" stroke-linecap="butt"/><path d="M328.27983,350.01485l10.36913,-98.6465c0,0 -5.96802,-81.04343 4.2191,-80.07653c9.39236,0.89147 14.27613,-2.273 18.81266,-1.84243c4.56814,0.43358 13.36742,29.93829 13.36742,29.93829l-1.90595,147.2668z" fill="url(#color-2)" stroke="#000000" stroke-width="0" stroke-linecap="butt"/><path d="M267.49756,344.75035l-0.07849,-147.27911c0,0 9.1647,-29.39325 13.73786,-29.77012c4.54152,-0.37425 9.38564,2.85057 18.78834,2.07572c10.19833,-0.84042 3.22518,80.12271 3.22518,80.12271l9.14431,98.76758z" fill="url(#color-3)" stroke="#000000" stroke-width="0" stroke-linecap="butt"/><path d="M335.61521,181.66499c-0.047,7.57513 -6.10588,13.67862 -13.5329,13.63255c-7.42702,-0.04608 -13.40971,-6.22429 -13.36271,-13.79941c0.047,-7.57513 6.10588,-13.67862 13.5329,-13.63255c7.42702,0.04608 13.40971,6.22429 13.36271,13.79941z" fill="url(#color-4)" stroke="#000000" stroke-width="0" stroke-linecap="butt"/><path d="M376.94068,131.25224c-2.11775,28.47557 -28.25632,52.7543 -58.42564,50.51059c-30.16932,-2.24371 -52.94489,-30.16023 -50.82714,-58.63579c2.11775,-28.47556 28.29161,-49.74069 58.46092,-47.49696c30.16932,2.24371 52.90962,27.14661 50.79188,55.62216z" fill="url(#color-5)" stroke="#000000" stroke-width="0" stroke-linecap="butt"/><path d="M337.23235,128.48155c-0.0168,2.70879 -6.68273,4.86342 -14.88876,4.81251c-8.20604,-0.05091 -14.84471,-2.2881 -14.82791,-4.99689c0.0168,-2.70879 6.68273,-4.86342 14.88876,-4.81251c8.20604,0.05091 14.84471,2.2881 14.82791,4.99689z" fill-opacity="0.18431" fill="#000000" stroke="none" stroke-width="0" stroke-linecap="butt"/><path d="M277.20595,143.93948c0.51899,-0.08724 2.96819,0.06762 1.69302,1.40656c-0.28088,0.29492 -1.69969,0.15174 -1.95863,-0.08138c-0.39788,-0.35822 0.75831,-1.0912 0.46317,-1.53786c-0.18376,-0.27811 -0.59316,0.69833 -0.86382,0.50379c-0.27066,-0.19456 0.1348,-0.6529 0.2022,-0.97934z" fill="none" stroke="#000000" stroke-width="2.5" stroke-linecap="round"/><path d="M288.06602,145.34535c-2.64847,-0.88047 1.21435,-1.89503 1.43716,-0.7854c0.39746,1.97942 -4.38817,-0.79867 -0.16675,-0.77248" fill="none" stroke="#000000" stroke-width="2.5" stroke-linecap="round"/><path d="M282.75111,149.68789c4.51123,-0.64886 -0.2886,3.30316 -0.96004,1.87509c-0.29121,-0.61937 1.16842,-1.24755 0.86614,-1.86159z" fill="none" stroke="#000000" stroke-width="2.5" stroke-linecap="round"/><path d="M354.49783,146.20702c0.58052,-0.20962 1.91871,-0.5373 1.85005,0.07607c-0.00346,0.03097 -3.78794,0.99145 -1.96733,-1.4049" fill="none" stroke="#000000" stroke-width="2.5" stroke-linecap="round"/><path d="M363.54246,146.56014c0.9832,2.12156 -2.11724,1.01547 -0.01011,-0.0218z" fill="none" stroke="#000000" stroke-width="2.5" stroke-linecap="round"/><path d="M359.45327,152.30283c-0.31795,0.1328 -3.0206,1.11022 -2.21273,-0.60029c0.30347,-0.64255 2.65663,-0.79727 2.34087,0.55527c-0.14144,0.60585 -2.50503,1.33934 -1.12071,-0.48275z" fill="none" stroke="#000000" stroke-width="2.5" stroke-linecap="round"/><path d="M335.98161,83.58522c2.6672,-14.25843 13.77343,-19.07584 24.80645,-10.75997c11.03302,8.31587 17.81486,26.61594 15.14767,40.87438c-2.6672,14.25843 -13.77344,19.07584 -24.80646,10.75997c-11.03302,-8.31587 -17.81486,-26.61594 -15.14765,-40.87436z" fill="url(#color-6)" stroke="#000000" stroke-width="0" stroke-linecap="butt"/><path d="M308.29615,87.02658c2.74084,14.53239 -4.83888,33.02643 -16.92978,41.30757c-12.0909,8.28113 -24.11441,3.21347 -26.85526,-11.31894c-2.74084,-14.53241 4.83889,-33.02644 16.92979,-41.30759c12.0909,-8.28113 24.1144,-3.21346 26.85525,11.31895z" fill="url(#color-7)" stroke="#000000" stroke-width="0" stroke-linecap="butt"/><path d="M271.28121,127.13658l-33.19607,-84.07848l69.5536,38.34522c0,0 -4.6425,18.70877 -10.00036,25.44829c-6.52849,8.21203 -26.35718,20.285 -26.35718,20.285z" fill="url(#color-8)" stroke="#000000" stroke-width="0" stroke-linecap="butt"/><path d="M337.56418,81.09234l68.24719,-37.47659l-31.83688,88.06343c0,0 -19.12307,-16.81853 -25.44673,-25.60436c-5.76049,-8.00337 -10.96358,-24.98247 -10.96358,-24.98247z" fill="url(#color-9)" stroke="#000000" stroke-width="0" stroke-linecap="butt"/><path d="M302.57624,121.61971c0.00399,2.23487 -1.98129,4.05011 -4.43417,4.05447c-2.4529,0.00436 -4.44459,-1.80382 -4.44857,-4.03867c-0.00399,-2.23487 1.98129,-4.05011 4.43417,-4.05447c2.4529,-0.00436 4.44458,1.80382 4.44855,4.03868z" fill="#ffffff" stroke="#000000" stroke-width="2.5" stroke-linecap="butt"/><path d="M357.87114,122.76435c0.00399,2.23487 -1.98128,4.05011 -4.43417,4.05447c-2.4529,0.00436 -4.44458,-1.80382 -4.44855,-4.03867c-0.00399,-2.23487 1.98128,-4.0501 4.43417,-4.05446c2.4529,-0.00436 4.44459,1.80381 4.44856,4.03866z" fill="#ffffff" stroke="#000000" stroke-width="2.5" stroke-linecap="butt"/><path d="M301.40513,125.72751l-6.44396,6.54632" fill="none" stroke="#000000" stroke-width="2.5" stroke-linecap="round"/><path d="M307.63838,221.12916l29.41743,1.91365" fill="none" stroke-opacity="0.45098" stroke="#000000" stroke-width="2.5" stroke-linecap="round"/><path d="M335.54522,233.9973l-29.42817,-0.18258" fill="none" stroke-opacity="0.45098" stroke="#000000" stroke-width="2.5" stroke-linecap="round"/><path d="M338.94651,243.82817l-34.33824,0.65252" fill="none" stroke-opacity="0.45098" stroke="#000000" stroke-width="2.5" stroke-linecap="round"/><path d="M337.71545,256.227l-32.8903,-0.20406" fill="none" stroke-opacity="0.45098" stroke="#000000" stroke-width="2.5" stroke-linecap="round"/><path d="M307.63332,268.44684l28.56443,-0.1113" fill="none" stroke-opacity="0.45098" stroke="#000000" stroke-width="2.5" stroke-linecap="round"/><path d="M334.67286,281.59812l-25.9714,0.70443" fill="none" stroke-opacity="0.45098" stroke="#000000" stroke-width="2.5" stroke-linecap="round"/><path d="M331.13195,294.27114l-19.91087,0.45351" fill="none" stroke-opacity="0.45098" stroke="#000000" stroke-width="2.5" stroke-linecap="round"/><path d="M312.02577,304.5394l18.17801,-0.17574" fill="none" stroke-opacity="0.45098" stroke="#000000" stroke-width="2.5" stroke-linecap="round"/><path d="M312.82148,315.79672l18.1798,-0.46426" fill="none" stroke-opacity="0.45098" stroke="#000000" stroke-width="2.5" stroke-linecap="round"/><path d="M337.70086,212.08296l-29.70595,-1.91543" fill="none" stroke-opacity="0.45098" stroke="#000000" stroke-width="2.5" stroke-linecap="round"/><path d="M308.63278,200.36171l26.53769,1.03022" fill="none" stroke-opacity="0.45098" stroke="#000000" stroke-width="2.5" stroke-linecap="round"/><path d="M342.44226,229.90223l-0.44099,-21.93046l29.71311,0.7614l-1.84741,18.7425" fill="none" stroke-opacity="0.45098" stroke="#000000" stroke-width="2.5" stroke-linecap="round"/><path d="M355.71021,230.56159l-0.91533,54.52509l-1.53532,61.44579" fill="none" stroke-opacity="0.45098" stroke="#000000" stroke-width="2.5" stroke-linecap="round"/><path d="M297.57363,195.78176c-0.03562,5.74053 -5.10191,10.36289 -11.31588,10.32433c-6.21397,-0.03856 -11.22252,-4.72343 -11.1869,-10.46394c0.03562,-5.74053 5.10191,-10.36289 11.31588,-10.32433c6.21397,0.03856 11.22252,4.72343 11.1869,10.46394z" fill="url(#color-10)" stroke="#000000" stroke-width="0" stroke-linecap="butt"/><path d="M252.65916,180.82215z" fill="url(#color-11)" stroke="#000000" stroke-width="2.5" stroke-linecap="butt"/><path d="M302.03444,116.94186l-13.89213,0.60822" fill="none" stroke="#000000" stroke-width="2.5" stroke-linecap="round"/><path d="M344.67438,116.51199l11.51656,1.73805" fill="none" stroke="#000000" stroke-width="2.5" stroke-linecap="round"/><path d="M347.78759,129.58636l-3.87567,-2.10729" fill="none" stroke="#000000" stroke-width="2.5" stroke-linecap="round"/><path d="M345.85018,128.46327l10.27785,-0.07512" fill="none" stroke="#000000" stroke-width="2.5" stroke-linecap="round"/><path d="M289.05587,126.99983l9.16424,0.33462" fill="none" stroke="#000000" stroke-width="2.5" stroke-linecap="round"/><path d="M301.01088,174.78277l6.46799,-1.62642l16.02834,1.97432l13.76277,-2.20613l8.95222,0.88882" fill="none" stroke="#000000" stroke-width="2.5" stroke-linecap="round"/><path d="M279.94728,128.69902l-0.22448,4.05904l-2.34589,0.11684l-1.52017,-2.52574" fill="none" stroke="#000000" stroke-width="2.5" stroke-linecap="round"/><path d="M280.60497,136.05439l-0.8231,2.48636l-1.87462,-0.03151l-1.23662,-0.80209" fill="none" stroke="#000000" stroke-width="2.5" stroke-linecap="round"/></g></g></svg>