<svg version="1.1" xmlns="http://www.w3.org/2000/svg" xmlns:xlink="http://www.w3.org/1999/xlink" width="167.69286" height="314.36542" viewBox="0,0,167.69286,314.36542"><defs><linearGradient x1="404.26991" y1="125.33734" x2="363.05211" y2="123.94622" gradientUnits="userSpaceOnUse" id="color-1"><stop offset="0" stop-color="#ff8600"/><stop offset="1" stop-color="#562e0d"/></linearGradient><linearGradient x1="256.87889" y1="118.92194" x2="298.09668" y2="120.31305" gradientUnits="userSpaceOnUse" id="color-2"><stop offset="0" stop-color="#ff8600"/><stop offset="1" stop-color="#562e0d"/></linearGradient><linearGradient x1="326.99176" y1="163.51961" x2="320.95954" y2="342.25023" gradientUnits="userSpaceOnUse" id="color-3"><stop offset="0" stop-color="#141414"/><stop offset="1" stop-color="#020202"/></linearGradient><linearGradient x1="329.05305" y1="155.39027" x2="327.94364" y2="188.26144" gradientUnits="userSpaceOnUse" id="color-4"><stop offset="0" stop-color="#c46704"/><stop offset="1" stop-color="#ffd300"/></linearGradient><linearGradient x1="331.75752" y1="69.61246" x2="328.16732" y2="175.98749" gradientUnits="userSpaceOnUse" id="color-5"><stop offset="0" stop-color="#9c6400"/><stop offset="1" stop-color="#ffd300"/></linearGradient><linearGradient x1="324.53289" y1="277.09134" x2="323.68156" y2="302.3157" gradientUnits="userSpaceOnUse" id="color-6"><stop offset="0" stop-color="#0cb700"/><stop offset="1" stop-color="#012f00"/></linearGradient><linearGradient x1="256.48233" y1="288.92354" x2="272.49312" y2="289.80869" gradientUnits="userSpaceOnUse" id="color-7"><stop offset="0" stop-color="#ffffff"/><stop offset="1" stop-color="#929292"/></linearGradient><linearGradient x1="393.06439" y1="292.76245" x2="377.03032" y2="292.56609" gradientUnits="userSpaceOnUse" id="color-8"><stop offset="0" stop-color="#ffffff"/><stop offset="1" stop-color="#929292"/></linearGradient><linearGradient x1="294.64694" y1="299.09172" x2="281.19719" y2="288.50399" gradientUnits="userSpaceOnUse" id="color-9"><stop offset="0" stop-color="#ffffff"/><stop offset="1" stop-color="#929292"/></linearGradient><linearGradient x1="331.04249" y1="286.26986" x2="316.97559" y2="293.96741" gradientUnits="userSpaceOnUse" id="color-10"><stop offset="0" stop-color="#ffffff"/><stop offset="1" stop-color="#929292"/></linearGradient><linearGradient x1="368.81289" y1="299.91303" x2="355.21115" y2="293.82786" gradientUnits="userSpaceOnUse" id="color-11"><stop offset="0" stop-color="#ffffff"/><stop offset="1" stop-color="#929292"/></linearGradient><linearGradient x1="310.55179" y1="288.7967" x2="296.59799" y2="293.14306" gradientUnits="userSpaceOnUse" id="color-12"><stop offset="0" stop-color="#ffffff"/><stop offset="1" stop-color="#929292"/></linearGradient><linearGradient x1="334.63296" y1="288.9832" x2="348.26195" y2="294.26054" gradientUnits="userSpaceOnUse" id="color-13"><stop offset="0" stop-color="#ffffff"/><stop offset="1" stop-color="#929292"/></linearGradient><radialGradient cx="294.57333" cy="116.86633" r="42.50334" gradientUnits="userSpaceOnUse" id="color-14"><stop offset="0" stop-color="#603201"/><stop offset="1" stop-color="#321902"/></radialGradient><radialGradient cx="298.88893" cy="118.15749" r="43.17404" gradientUnits="userSpaceOnUse" id="color-15"><stop offset="0" stop-color="#000000"/><stop offset="1" stop-color="#ffffff" stop-opacity="0.01569"/></radialGradient><radialGradient cx="300.65625" cy="113.77532" r="33.73477" gradientUnits="userSpaceOnUse" id="color-16"><stop offset="0" stop-color="#000000" stop-opacity="0.22745"/><stop offset="1" stop-color="#000000"/></radialGradient><radialGradient cx="302.48709" cy="111.83786" r="8.4479" gradientUnits="userSpaceOnUse" id="color-17"><stop offset="0" stop-color="#ffffff"/><stop offset="1" stop-color="#5a5a5a"/></radialGradient><radialGradient cx="303.34255" cy="112.87038" r="2.6136" gradientUnits="userSpaceOnUse" id="color-18"><stop offset="0" stop-color="#ffffff"/><stop offset="1" stop-color="#5a5a5a"/></radialGradient></defs><g transform="translate(-239.55291,-29.61495)"><g stroke-miterlimit="10"><path d="M363.06491,123.5684c0.67637,-19.15887 12.83831,-33.9363 23.36618,-33.56461c10.52788,0.37166 18.51412,16.20427 17.83776,35.36312c-0.67638,19.15885 -9.75923,34.38884 -20.28711,34.01718c-10.52788,-0.37168 -21.59317,-16.65688 -20.9168,-35.81573z" fill="url(#color-1)" stroke="#000000" stroke-width="0" stroke-linecap="butt"/><path d="M298.10935,119.9352c-0.61694,19.16085 -12.75507,34.66292 -23.28405,34.32392c-10.52898,-0.33902 -18.56429,-16.14675 -17.94737,-35.30761c0.61694,-19.16085 9.6525,-34.41898 20.18149,-34.07996c10.52897,0.339 21.66689,15.9028 21.04995,35.06367z" fill="url(#color-2)" stroke="#000000" stroke-width="0" stroke-linecap="butt"/><path d="M272.0384,336.95842l2.74816,-147.26689c0,0 7.77284,-25.45051 18.01113,-25.51043c10.16746,-0.05949 34.25385,0.19648 55.3044,0.07329c22.8318,-0.13362 29.02887,26.9692 29.02887,26.9692l-4.9079,152.75678z" fill="url(#color-3)" stroke="#000000" stroke-width="0" stroke-linecap="butt"/><path d="M351.31191,172.59582c-0.30635,9.07712 -10.76868,16.09086 -23.36826,15.66562c-12.59959,-0.42524 -22.56521,-8.12843 -22.25885,-17.20554c0.30635,-9.07712 10.76868,-16.09086 23.36826,-15.66562c12.59959,0.42524 22.56521,8.12843 22.25885,17.20554z" fill="url(#color-4)" stroke="#000000" stroke-width="0" stroke-linecap="butt"/><path d="M384.5067,126.86678c-2.90087,28.40647 -29.69794,51.95642 -59.79405,48.88299c-30.09612,-3.07342 -52.09452,-31.60636 -49.19364,-60.01282c2.90087,-28.40646 29.65024,-48.94298 59.74636,-45.86953c30.09612,3.07342 52.14223,28.59291 49.24135,56.99938z" fill="url(#color-5)" stroke="#000000" stroke-width="0" stroke-linecap="butt"/><path d="M345.53038,115.06757c-0.09137,2.7073 -6.81409,4.6776 -15.01561,4.4008c-8.20154,-0.2768 -14.77609,-2.6959 -14.68472,-5.4032c0.09137,-2.7073 6.81409,-4.6776 15.01561,-4.4008c8.20154,0.2768 14.77609,2.6959 14.68472,5.4032z" fill-opacity="0.18431" fill="#ff0505" stroke="none" stroke-width="0" stroke-linecap="butt"/><path d="M348.82247,210.50813l2.9862,-15.76121l6.26926,16.81711l-15.69186,-12.92179l21.58799,-0.75846z" fill="none" stroke-opacity="0.67059" stroke="#ffffff" stroke-width="2.5" stroke-linecap="round"/><path d="M295.41337,191.77098c10.54773,-5.93779 21.48096,6.72144 10.20686,14.11258c-5.03236,3.29914 -14.05222,0.99534 -16.41397,-4.58571c-2.5435,-6.01053 4.43496,-11.3557 9.80118,-9.82007" fill="none" stroke-opacity="0.67059" stroke="#ffffff" stroke-width="2.5" stroke-linecap="round"/><path d="M307.51834,199.9439c2.37024,0.08028 8.13555,-0.59092 9.51653,2.00889c2.58783,4.87183 -6.4707,8.84699 -9.78451,9.13502c-6.51085,0.56589 -14.71492,-0.17629 -20.47402,-3.19046c-4.67271,-2.44558 -4.68116,-7.82013 1.27679,-7.61905" fill="none" stroke-opacity="0.67059" stroke="#ffffff" stroke-width="2.5" stroke-linecap="round"/><path d="M288.10471,243.23462c1.16618,-9.86182 0.07167,-22.35812 3.5334,-31.68237" fill="none" stroke-opacity="0.67059" stroke="#ffffff" stroke-width="2.5" stroke-linecap="round"/><path d="M308.47232,212.12041c2.32177,10.82713 2.47561,21.7393 4.57772,32.5118" fill="none" stroke-opacity="0.67059" stroke="#ffffff" stroke-width="2.5" stroke-linecap="round"/><path d="M296.91736,216.68729c-0.01124,0.33314 -0.02248,0.66629 -0.03373,0.99943" fill="none" stroke-opacity="0.67059" stroke="#ffffff" stroke-width="2.5" stroke-linecap="round"/><path d="M302.57724,217.88808c0.02249,-0.66629 0.04497,-1.33257 0.06746,-1.99886" fill="none" stroke-opacity="0.67059" stroke="#ffffff" stroke-width="2.5" stroke-linecap="round"/><path d="M304.88037,223.00916c-0.11087,1.92967 -0.46669,6.39779 -2.73072,7.23827c-4.37698,1.62489 -7.81735,-3.05716 -7.69428,-6.70361" fill="none" stroke-opacity="0.67059" stroke="#ffffff" stroke-width="2.5" stroke-linecap="round"/><path d="M391.21468,34.52976l11.60033,3.98129l-32.71413,8.03351l16.40476,4.79613l-18.24208,34.30309" fill="none" stroke="#000000" stroke-width="2.5" stroke-linecap="round"/><path d="M394.69515,33.66818c-0.07292,2.16035 -1.97655,3.84941 -4.2519,3.77261c-2.27534,-0.0768 -4.06078,-1.89036 -3.98786,-4.05071c0.07292,-2.16035 1.97655,-3.84941 4.2519,-3.77261c2.27534,0.0768 4.06078,1.89036 3.98786,4.05071z" fill="#a65807" stroke="#000000" stroke-width="0" stroke-linecap="butt"/><path d="M296.75445,79.74078l-32.92548,-20.62494l11.82338,-12.34209l-32.35904,9.36188l8.06638,-9.23862" fill="none" stroke="#000000" stroke-width="2.5" stroke-linecap="round"/><path d="M249.34827,42.3868c1.93352,-1.2019 4.42604,-0.68805 5.56721,1.14777c1.14117,1.83581 0.49884,4.29836 -1.43468,5.50026c-1.93352,1.2019 -4.42606,0.68804 -5.56722,-1.14776c-1.14117,-1.83581 -0.49883,-4.29836 1.43469,-5.50026z" fill="#a65807" stroke="#000000" stroke-width="0" stroke-linecap="butt"/><path d="M268.84042,300.46479c0,0 -3.55056,-8.23586 -3.41077,-12.37757c0.14388,-4.26291 4.26211,-12.84679 4.26211,-12.84679c0,0 36.8475,6.98386 54.87615,7.59234c18.51894,0.62502 54.80611,-3.89052 54.80611,-3.89052c0,0 2.26784,8.42976 2.12638,12.62085c-0.14232,4.21689 -2.97772,12.60354 -2.97772,12.60354c0,0 -33.32188,1.52471 -50.87775,0.93219c-18.90492,-0.63804 -58.80451,-4.63401 -58.80451,-4.63401z" fill="url(#color-6)" stroke="#000000" stroke-width="0" stroke-linecap="butt"/><path d="M271.99104,298.89035l-15.50872,-9.96683l16.51289,-8.19652z" fill="url(#color-7)" stroke="#000000" stroke-width="0" stroke-linecap="butt"/><path d="M377.1417,283.47123l15.92268,9.29123l-16.14544,8.8985z" fill="url(#color-8)" stroke="#000000" stroke-width="0" stroke-linecap="butt"/><path d="M286.06924,281.4953l8.57771,17.59642l-18.3218,-3.57898z" fill="url(#color-9)" stroke="#000000" stroke-width="0" stroke-linecap="butt"/><path d="M312.60938,285.98834l18.4331,0.28151l-9.70069,15.67658z" fill="url(#color-10)" stroke="#000000" stroke-width="0" stroke-linecap="butt"/><path d="M360.13422,285.30751l8.67866,14.60553l-18.52478,2.4352z" fill="url(#color-11)" stroke="#000000" stroke-width="0" stroke-linecap="butt"/><path d="M292.26976,284.03895l18.28203,4.75774l-9.62556,13.45052z" fill="url(#color-12)" stroke="#000000" stroke-width="0" stroke-linecap="butt"/><path d="M343.32973,303.05212l-8.69678,-14.06891l18.56122,-3.51427z" fill="url(#color-13)" stroke="#000000" stroke-width="0" stroke-linecap="butt"/><path d="M331.91395,70.42121c0,0 -11.51214,25.33154 -12.61291,34.09871c-1.23789,9.8592 -10.67405,23.05762 -12.34136,29.42362c-2.89962,11.07119 -9.20221,30.26939 -9.20221,30.26939c0,0 -12.16306,-10.8823 -15.45864,-16.93789c-4.09029,-7.51589 -9.7839,-29.52857 -9.7839,-29.52857c0,0 3.78907,-14.22976 10.13286,-23.64055c8.01047,-11.88324 24.16177,-22.93268 32.34078,-22.65664c1.66789,0.05629 2.68022,-1.33526 3.98471,-1.55633c2.92519,-0.49571 5.49225,-0.16219 7.25111,-0.29289c4.3492,-0.32317 5.68956,0.82111 5.68956,0.82111z" fill="url(#color-14)" stroke="#000000" stroke-width="0" stroke-linecap="butt"/><path d="M326.38695,76.56045c0,0 -10.39409,22.87139 -11.38797,30.78713c-1.11767,8.9017 -9.63742,20.81832 -11.14279,26.56607c-2.61803,9.99597 -8.30851,27.3297 -8.30851,27.3297c0,0 -10.98181,-9.82543 -13.95732,-15.29291c-3.69305,-6.78597 -8.8337,-26.66082 -8.8337,-26.66082c0,0 3.42107,-12.84779 9.14876,-21.34462c7.23252,-10.72916 21.81525,-20.70551 29.19992,-20.45627c1.5059,0.05083 2.41992,-1.20558 3.59773,-1.40518c2.64111,-0.44757 4.95885,-0.14644 6.54689,-0.26444c3.9268,-0.29179 5.137,0.74137 5.137,0.74137z" fill="url(#color-15)" stroke="#000000" stroke-width="2.5" stroke-linecap="butt"/><path d="M322.14228,81.27277c0,0 -8.12161,17.87095 -8.89819,24.05604c-0.8733,6.95549 -7.53036,16.26675 -8.70662,20.75785c-2.04562,7.81052 -6.492,21.35452 -6.492,21.35452c0,0 -8.58082,-7.67726 -10.9058,-11.94938c-2.88564,-5.30233 -6.90237,-20.83188 -6.90237,-20.83188c0,0 2.67313,-10.03884 7.14855,-16.67798c5.65125,-8.38342 17.04571,-16.17859 22.81585,-15.98385c1.17666,0.03971 1.89085,-0.942 2.81113,-1.09796c2.06368,-0.34971 3.87469,-0.11442 5.11553,-0.20664c3.06829,-0.228 4.01389,0.57928 4.01389,0.57928z" fill="url(#color-16)" stroke="#000000" stroke-width="2.5" stroke-linecap="butt"/><path d="M318.50323,86.74034c0,0 -5.17591,11.38917 -5.67082,15.33094c-0.55656,4.43274 -4.7991,10.36682 -5.54874,13.229c-1.30369,4.97766 -5.89754,26.7251 -5.89754,26.7251c0,0 -9.55737,-18.20597 -11.03909,-20.9286c-1.83902,-3.37917 1.45012,-13.07878 1.45012,-13.07878c0,0 1.70358,-6.39776 4.55578,-10.6289c3.60155,-5.34275 10.86325,-10.31063 14.54057,-10.18653c0.74989,0.02531 1.20504,-0.60035 1.79154,-0.69974c1.31519,-0.22287 2.46934,-0.07292 3.26013,-0.13169c1.95542,-0.1453 2.55806,0.36917 2.55806,0.36917z" fill="none" stroke="#000000" stroke-width="2.5" stroke-linecap="butt"/><path d="M363.70197,117.97179l-12.4042,-1.04061" fill="none" stroke="#000000" stroke-width="2.5" stroke-linecap="round"/><path d="M351.82127,114.68345l7.90531,0.73328" fill="none" stroke="#000000" stroke-width="2.5" stroke-linecap="round"/><path d="M353.23149,111.45662l5.6418,3.30025" fill="none" stroke="#000000" stroke-width="2.5" stroke-linecap="round"/><path d="M355.09481,124.21195l-5.67131,-7.03303" fill="none" stroke="#000000" stroke-width="2.5" stroke-linecap="round"/><path d="M312.09356,103.71293c-0.09671,2.8653 -0.67336,6.96027 -1.59059,11.21309c-1.97969,9.17902 -5.54595,19.09339 -9.29754,18.96678c-3.92722,-0.13254 -8.89413,-9.04291 -9.71566,-17.19762c-0.32687,-3.24459 2.33264,-6.04448 2.41957,-8.62027c0.30543,-9.04957 14.32419,-20.58566 19.81397,-20.40037c5.48978,0.18529 -1.32431,6.9888 -1.62974,16.03837z" fill="#000000" stroke="#000000" stroke-width="2.5" stroke-linecap="butt"/><path d="M309.94251,112.99719c-0.54853,4.64038 -4.81841,7.65938 -8.32505,7.24485c-3.50666,-0.41452 -7.16953,-3.93236 -6.621,-8.57273c0.54853,-4.64038 5.10076,-8.64608 8.60741,-8.23156c3.50666,0.41452 6.88718,4.91907 6.33864,9.55943z" fill="url(#color-17)" stroke="none" stroke-width="0" stroke-linecap="butt"/><path d="M309.74291,112.12831c-0.09214,4.75273 -2.76154,8.77852 -5.96226,8.99185c-3.20074,0.21333 -5.72075,-3.46659 -5.62861,-8.21932c0.09214,-4.75273 2.76154,-8.77852 5.96226,-8.99185c3.20074,-0.21333 5.72075,3.46659 5.62861,8.21932z" fill="#000000" stroke="none" stroke-width="0" stroke-linecap="butt"/><path d="M305.95467,112.95854c-0.04869,1.44263 -1.25764,2.57264 -2.70027,2.52395c-1.44263,-0.04869 -2.57264,-1.25764 -2.52395,-2.70027c0.04869,-1.44263 1.25764,-2.57263 2.70027,-2.52395c1.44263,0.04869 2.57263,1.25764 2.52395,2.70027z" fill="url(#color-18)" stroke="none" stroke-width="0" stroke-linecap="butt"/><path d="M364.99949,116.55253c0.00002,1.4054 -1.2847,2.54472 -2.86951,2.54475c-1.58481,0.00002 -2.86957,-1.13926 -2.86959,-2.54466c-0.00002,-1.4054 1.2847,-2.54472 2.86951,-2.54474c1.58481,-0.00002 2.86956,1.13926 2.86959,2.54465z" fill="#ffffff" stroke="#000000" stroke-width="2.5" stroke-linecap="butt"/><path d="M304.31937,165.55326l5.44377,-3.80983l8.90603,1.35124l22.81241,-0.59686l10.38278,1.92649l0.42364,3.06189z" fill="#000000" stroke="#000000" stroke-width="2.5" stroke-linecap="round"/></g></g></svg>