<svg version="1.1" xmlns="http://www.w3.org/2000/svg" xmlns:xlink="http://www.w3.org/1999/xlink" width="180.98939" height="320.99424" viewBox="0,0,180.98939,320.99424"><g transform="translate(-219.52518,-36.76214)"><g data-paper-data="{&quot;isPaintingLayer&quot;:true}" fill-rule="nonzero" stroke-linejoin="miter" stroke-miterlimit="10" stroke-dasharray="" stroke-dashoffset="0" style="mix-blend-mode: normal"><path d="M304.6514,250.02204c-7.95138,3.14888 -19.76981,-0.05443 -27.62689,-2.85512c-13.10505,-4.67136 -17.48371,-12.53453 -27.32416,-23.37063c-0.78159,-0.86067 -7.76644,0.83024 -8.53949,-0.10305c-4.23137,-5.10843 -16.67863,-12.80069 -20.08346,-19.95432c-2.34434,-4.9255 3.54323,-9.18754 3.39644,-13.82547c-0.15274,-4.8257 5.36309,-8.70999 6.97685,-12.72844c4.74153,-11.8069 11.3355,-20.82314 22.53222,-27.05113c5.69358,-3.16697 17.7166,-8.45781 21.2126,-0.06138c0.93034,2.23443 1.01048,4.63299 -0.14528,6.8345c-2.49686,4.75604 -10.02672,5.7522 -14.21008,8.75319c-6.22921,4.46859 -14.33959,10.02529 -15.96937,19.07875c-1.15793,6.43235 -10.81818,8.00737 -9.93809,13.43678c0.29738,1.83461 6.06512,3.42401 7.0025,5.27496c0.96765,1.91072 5.84154,0.31259 7.32405,1.9348c10.38774,11.36659 28.4431,19.109 42.49253,17.83875c8.29909,-0.75036 16.62399,-4.34443 25.07808,-1.74304c25.06465,7.71258 4.40422,26.74791 -10.96943,28.89039z" fill="#feed00" stroke="#000000" stroke-width="2" stroke-linecap="round"/><path d="M297.53181,245.05427c5.73931,0.15015 13.54794,-0.65728 19.35014,-1.26697c6.32641,-0.66477 14.79593,0.6678 21.23485,0.95842c3.78234,0.17071 12.40733,-0.31085 15.32936,1.36303c1.89145,1.08352 1.65368,3.67307 2.06299,5.02918c1.52097,5.0393 0.32128,10.42596 1.84079,15.56289c1.79496,6.06816 -0.43425,12.09663 0.15522,18.26306c1.10195,11.52739 1.51265,23.2049 -3.54232,34.59254c-2.2105,4.97976 5.74784,11.45994 -3.24275,14.15934c-3.18367,0.95588 -11.27492,7.58796 -14.75734,7.43078c-5.05196,-0.22802 -10.96914,-5.4533 -17.10732,-6.82407c-7.81564,-1.74539 -18.40625,2.1411 -24.21722,0.33976c-2.9087,-0.90168 -6.62964,-4.32022 -8.07378,-6.31599c-1.81028,-2.50177 2.10629,-13.32683 2.45063,-16.56667c1.69338,-15.93235 1.25855,-24.77771 2.95078,-40.72417c0.55607,-5.23992 0.80494,-22.53096 4.14787,-26.06429z" fill="#3c2c1f" stroke="#000000" stroke-width="2" stroke-linecap="round"/><g stroke-width="2"><path d="M292.95237,224.43972c3.42678,-0.23251 9.16639,7.57233 5.92928,13.79289c-3.51965,6.76349 -7.42891,2.21939 -8.83528,3.24215c-0.27083,0.19694 -2.32743,10.74751 -5.25752,12.9871c-5.41516,4.13907 -6.47057,-4.4187 -7.94509,-4.96039c-0.9819,-0.36071 -3.00745,6.16657 -5.23756,4.98964c-2.27398,-1.20007 -3.35484,-5.05934 -3.54718,-8.67096c-0.03606,-0.67722 0.63915,-5.04929 0.5178,-5.22587c-0.36952,-0.53767 -2.00374,1.75528 -2.45293,1.91788c-2.05657,0.74444 -2.67624,-4.08381 -2.81045,-6.28313c-0.81941,-13.42657 12.65855,-24.64176 19.7238,-22.60622c3.72674,1.0737 6.98786,7.58327 9.70466,11.09849z" fill="#feed00" stroke="#000000" stroke-linecap="round"/><path d="M276.90665,219.75465c3.0669,-2.26295 6.20851,-0.74769 7.01696,3.38443c0.36519,1.86654 0.23484,3.91601 -0.30054,5.81088c-0.64984,2.29997 -2.20019,1.58698 -3.88173,2.82772c-1.61124,1.18887 -2.99751,4.16303 -4.35605,3.47543c-1.22737,-0.62121 -2.18419,-1.95792 -2.5679,-3.91919c-0.80845,-4.13212 1.02237,-9.31632 4.08927,-11.57928z" fill="#ffa600" stroke="none" stroke-linecap="butt"/><path d="M294.89142,230.51265c1.75144,-0.95921 3.361,0.16635 3.59505,2.51399c0.23405,2.34764 -0.99604,5.02835 -2.74748,5.98756c-1.75144,0.95921 -3.36102,-0.16633 -3.59507,-2.51397c-0.23405,-2.34764 0.99604,-5.02835 2.74749,-5.98756z" fill="#ffa600" stroke="none" stroke-linecap="butt"/><path d="M282.45961,244.61319c1.72956,-0.9472 3.31885,0.16269 3.54978,2.47902c0.23093,2.31633 -0.98395,4.96196 -2.7135,5.90916c-1.72956,0.9472 -3.31885,-0.16269 -3.54978,-2.47902c-0.23093,-2.31633 0.98395,-4.96196 2.7135,-5.90916z" fill="#ffa600" stroke="none" stroke-linecap="butt"/><path d="M272.18843,243.06575c1.42305,-0.77935 2.76133,0.44125 2.98916,2.72628c0.22781,2.28504 -0.74114,4.7692 -2.16419,5.54855c-1.42305,0.77935 -2.76133,-0.44125 -2.98916,-2.72628c-0.22781,-2.28504 0.74114,-4.7692 2.16419,-5.54855z" fill="#ffa600" stroke="none" stroke-linecap="butt"/><path d="M265.62823,231.35704c0.9633,-0.52757 1.91877,0.79564 2.13408,2.95548c0.21534,2.15983 -0.39102,4.33838 -1.35431,4.86593c-0.9633,0.52757 -1.91877,-0.79564 -2.13408,-2.95548c-0.21534,-2.15983 0.39102,-4.33836 1.35431,-4.86593z" fill="#ffa600" stroke="none" stroke-linecap="butt"/></g><path d="M295.44882,205.5501c-1.94306,6.26724 -2.81769,17.80773 -7.06053,22.80165c-3.3838,3.9828 -22.06262,-3.12892 -24.4465,-7.07868c-0.82918,-1.37383 4.61279,-18.05313 5.41642,-20.45749c6.16539,-18.44588 13.5388,-35.90484 21.01528,-53.91822c2.05255,-4.94532 6.54299,-8.18062 8.64607,-12.81992l1.17216,0.09763c12.90574,3.20214 24.36499,9.58905 38.27223,8.65523c5.56588,-0.37372 9.72135,-2.13013 13.92417,-5.79327c0.96092,-0.83753 3.72214,-2.82966 5.12696,-1.80625c3.16182,2.30339 4.7424,10.66141 6.31239,14.19089c6.47482,14.5558 10.59888,30.38055 13.18739,46.11132c0.75781,4.60532 -4.58411,15.32196 -5.91765,19.84558c-1.56178,5.29781 -4.34837,-3.48462 -8.6228,-0.24666c-1.18955,0.9011 -4.5091,4.11644 -5.85367,2.13682c-1.87319,-2.75792 0.82557,-11.08614 0.82557,-11.08614c0,0 0.01626,16.03607 0.55774,24.00673c0.26558,3.90928 1.90413,10.40069 -0.12762,14.07473c-1.54755,2.79847 -10.55153,3.26405 -13.45017,3.4508c-11.72519,0.75541 -23.65985,-2.04021 -35.37754,-1.24664c-3.80863,0.25793 -13.52346,2.64952 -16.81412,0.67781c-1.75382,-1.05088 -0.56847,-6.49633 -0.48969,-8.24165c0.3468,-7.68376 -0.44384,-16.56116 1.40222,-24.02398" fill="#fffe8a" stroke="#000000" stroke-width="2" stroke-linecap="round"/><path d="M306.58554,126.11391c14.15474,-1.83466 27.91476,-3.76303 42.22435,-1.98675c3.05166,0.37882 13.69272,2.00037 12.66725,6.68206c-1.39373,6.36288 -7.82787,9.40944 -13.712,10.54462c-10.60768,2.04646 -35.42088,1.74998 -44.61599,-4.17656c-6.54415,-4.2179 -4.44983,-11.63754 3.59026,-11.27466z" fill="#fffe8a" stroke="#000000" stroke-width="2" stroke-linecap="round"/><path d="M311.8528,177.23747c1.21565,0.56939 4.66127,0.4686 5.07274,2.0266c1.38006,5.22535 -2.82874,9.66579 -7.62498,8.41719c-3.19378,-0.83142 2.97038,-11.13282 2.97038,-11.13282c0,0 1.39263,-23.70811 4.4214,-35.08549" fill="#ffaf36" stroke="#000000" stroke-width="2" stroke-linecap="round"/><path d="M338.53661,179.04695c10.06187,-10.25952 7.52599,18.33344 -1.84098,9.84042c-5.07154,-4.59834 1.64387,-8.32833 2.26175,-10.82121c2.9165,-11.76689 -1.49878,-24.71236 2.63636,-36.58937" fill="#ffaf36" stroke="#000000" stroke-width="2" stroke-linecap="round"/><path d="M298.43002,208.30237c3.66583,-2.67076 8.04972,-1.94798 12.28277,-2.42226c13.65302,-1.52973 28.75145,0.05012 42.16978,2.85217" fill="none" stroke="#000000" stroke-width="2" stroke-linecap="round"/><path d="M353.63361,239.65582c0.29609,-8.89441 -0.92378,-17.97729 0.96207,-26.81415" fill="none" stroke="#000000" stroke-width="2" stroke-linecap="round"/><path d="M298.73823,212.57538c-0.38396,8.50705 -0.31208,16.97091 -0.89667,25.45077" fill="none" stroke="#000000" stroke-width="2" stroke-linecap="round"/><path d="M309.75294,136.08656c-2.57709,-1.03536 -4.23831,-3.68683 -6.57451,-5.23594" fill="none" stroke="#fcec41" stroke-width="2" stroke-linecap="round"/><path d="M352.63417,135.68711c1.67677,-1.01004 3.23749,-1.79847 5.08885,-2.44382" fill="none" stroke="#fcec41" stroke-width="2" stroke-linecap="round"/><path d="M323.86761,146.84173l-0.43215,9.57466" fill="none" stroke="#fcec41" stroke-width="2" stroke-linecap="round"/><path d="M327.00163,155.17335l0.22134,-4.90411" fill="none" stroke="#fcec41" stroke-width="2" stroke-linecap="round"/><path d="M330.73645,150.19382l0.53193,3.76808" fill="none" stroke="#fcec41" stroke-width="2" stroke-linecap="round"/><path d="M280.11711,226.36524l14.68281,-36.66712l-8.90963,36.42661z" fill="#fce541" stroke="#fcec41" stroke-width="2" stroke-linecap="round"/><path d="M280.11711,226.36524l14.68281,-36.66712l-8.90963,36.42661z" fill="#fce541" stroke="#fcec41" stroke-width="2" stroke-linecap="round"/><path d="M356.16286,213.81341l-5.89714,-30.31841l11.86725,25.71446z" fill="#fce541" stroke="#fcec41" stroke-width="2" stroke-linecap="round"/><path d="M319.87549,333.4636l4.15756,-76.64067" fill="none" stroke="#000000" stroke-width="2" stroke-linecap="round"/><path d="M321.90731,341.93657c-0.39093,8.66144 -9.52371,15.28505 -20.39863,14.79421c-10.87493,-0.49083 -19.37388,-7.91021 -18.98295,-16.57168c0.39093,-8.66144 9.52371,-15.28505 20.39863,-14.79421c10.87493,0.49083 19.37388,7.91021 18.98295,16.57168z" fill="#000000" stroke="#000000" stroke-width="2" stroke-linecap="butt"/><path d="M360.41585,338.40144c-0.39093,8.66145 -9.52371,15.28505 -20.39864,14.79421c-10.87492,-0.49083 -19.37388,-7.91021 -18.98295,-16.57168c0.39093,-8.66145 9.52371,-15.28505 20.39863,-14.79421c10.87493,0.49083 19.37389,7.91021 18.98296,16.57168z" fill="#000000" stroke="#000000" stroke-width="2" stroke-linecap="butt"/><g stroke-width="2" stroke-linecap="round"><path d="M311.60973,56.00848c-12.4143,5.06182 -13.67319,18.10732 -17.15339,29.33969c-0.38246,1.23441 -3.47617,12.11267 -4.76697,11.94042c-0.53592,-0.07151 -0.3809,-1.0133 -0.52988,-1.53303c-1.18588,-4.13695 -2.7565,-8.17549 -3.97229,-12.31931c-3.03422,-10.34141 -5.0554,-21.00793 -6.97308,-31.62441c-0.5507,-3.04864 -2.39104,-10.00781 -1.14932,-12.89179c0.7957,-1.84807 1.37613,-1.05006 2.63302,-0.50806c6.45844,2.78504 12.77227,5.85464 19.09354,8.93085c4.64211,2.25905 10.32068,4.3515 13.82907,8.26161z" fill="#feed00" stroke="#000000"/><path d="M305.28423,58.77525c-7.90468,4.06989 -7.97324,12.76126 -9.61523,20.38481c-0.18045,0.83782 -1.58783,8.20481 -2.45059,8.16655c-0.35821,-0.01589 -0.31088,-0.64709 -0.4397,-0.98171c-1.02536,-2.66345 -2.2991,-5.23941 -3.34463,-7.90566c-2.60925,-6.65394 -4.56831,-13.58193 -6.45608,-20.48287c-0.5421,-1.98168 -2.16487,-6.4712 -1.51329,-8.44895c0.41753,-1.26737 0.84764,-0.77415 1.70963,-0.48962c4.42928,1.46201 8.77966,3.12045 13.13535,4.78282c3.19866,1.22079 7.07225,2.27087 9.61856,4.64865z" fill="#ffa700" stroke="none"/></g><g stroke-width="2" stroke-linecap="round"><path d="M346.42944,56.78822c3.28176,-4.1022 8.83295,-6.5123 13.33993,-9.03016c6.13727,-3.42863 12.26747,-6.85024 18.55814,-9.99591c1.22423,-0.61219 1.75863,-1.44174 2.65754,0.35841c1.40277,2.80917 -0.04125,9.86126 -0.41872,12.93615c-1.31449,10.7079 -2.72946,21.47161 -5.17423,31.96801c-0.97963,4.20592 -2.31942,8.32681 -3.26954,12.52417c-0.11936,0.52733 0.08864,1.45883 -0.44238,1.56052c-1.279,0.24493 -4.98269,-10.44105 -5.43433,-11.65186c-4.10958,-11.01768 -6.10394,-23.97117 -18.78451,-28.32311z" fill="#feed00" stroke="#000000"/><path d="M353.27171,59.25015c2.40783,-2.51791 6.21586,-3.78529 9.3404,-5.18495c4.25475,-1.90594 8.50444,-3.80766 12.84398,-5.5177c0.84453,-0.33281 1.24607,-0.84952 1.73458,0.39221c0.76234,1.93775 -0.60405,6.51182 -1.03326,8.52098c-1.49466,6.99664 -3.05896,14.02428 -5.28789,20.81507c-0.89314,2.7211 -2.01922,5.36492 -2.89238,8.08208c-0.1097,0.34136 -0.02678,0.96888 -0.38351,1.00501c-0.85923,0.087 -2.68079,-7.1887 -2.90832,-8.01496c-2.07031,-7.51854 -2.63008,-16.19211 -10.75219,-19.80866z" fill="#ffa700" stroke="none"/></g><path d="M327.75639,53.73371c10.4384,0 22.93788,-1.00401 30.46115,7.22954c6.50784,7.12225 6.15774,13.52154 8.16107,21.99931c0.61528,2.60376 2.51166,4.52906 2.82748,7.4226c1.9148,17.54377 -6.78199,39.13199 -28.05647,41.40643c-17.81833,1.90495 -38.886,-1.74901 -48.98419,-17.20369c-6.30555,-9.65027 -1.87733,-22.7428 1.26049,-32.18949c1.21581,-3.66032 0.08928,-7.93869 1.51078,-11.78787c5.56487,-15.06875 18.71497,-16.60294 33.17322,-16.60294z" fill="#feed00" stroke="#000000" stroke-width="2" stroke-linecap="round"/><path d="M365.68603,94.86772c4.28815,0.38983 15.50661,4.81013 11.10932,10.8314c-1.14412,1.56666 -7.21246,2.37498 -7.58096,3.57673c-0.27636,0.90123 1.07093,1.57549 1.39131,2.46201c0.85729,2.37219 1.41279,5.89568 1.05565,8.40485c-0.98253,6.90322 -11.05537,3.34472 -14.03897,0.40968" fill="#feed00" stroke="#000000" stroke-width="2" stroke-linecap="round"/><path d="M299.22801,123.36477c-2.98359,2.93504 -13.05643,6.49352 -14.03897,-0.40968c-0.35714,-2.50917 0.19838,-6.03266 1.05567,-8.40483c0.32039,-0.88654 1.66767,-1.56079 1.39131,-2.46202c-0.3685,-1.20176 -6.43684,-2.01007 -7.58096,-3.57674c-4.39728,-6.02128 6.82117,-10.44157 11.10932,-10.83139" fill="#feed00" stroke="#000000" stroke-width="2" stroke-linecap="round"/><path d="M253.86757,76.76784c14.31817,0.2148 24.9894,10.76955 36.58705,17.39677" fill="none" stroke="#000000" stroke-width="2" stroke-linecap="round"/><path d="M258.68112,90.99563c10.76949,-1.30353 21.74569,2.09288 32.12505,4.39941" fill="none" stroke="#000000" stroke-width="2" stroke-linecap="round"/><path d="M263.22451,98.90774c8.68923,-1.62582 17.85136,-3.16115 26.70278,-3.16115" fill="none" stroke="#000000" stroke-width="2" stroke-linecap="round"/><path d="M368.67419,92.75843c8.38099,-8.38099 17.77976,-18.61531 30.42027,-18.63187" fill="none" stroke="#000000" stroke-width="2" stroke-linecap="round"/><path d="M366.03758,93.6373c10.96231,-7.83022 21.24207,-7.44546 33.47699,-3.72045" fill="none" stroke="#000000" stroke-width="2" stroke-linecap="round"/><path d="M369.55306,95.04348c8.60157,-3.44063 19.43513,0.01389 27.1401,4.33553" fill="none" stroke="#000000" stroke-width="2" stroke-linecap="round"/><path d="M324.37467,103.6745c3.72001,0.00001 7.63678,-0.2412 11.32989,0.21932c0.46873,0.05846 1.27302,-0.14262 1.38113,0.31722c0.1416,0.60235 -6.52459,4.37679 -7.29189,4.31972c-1.72544,-0.12832 -4.32589,-3.50584 -5.00109,-4.85625z" fill="#000000" stroke="#000000" stroke-width="2" stroke-linecap="round"/><path d="M325.33875,85.01494c0,7.07813 -5.65103,12.8161 -12.62192,12.8161c-6.97089,0 -12.6219,-5.73797 -12.6219,-12.8161c0,-7.07813 5.65102,-12.81609 12.6219,-12.81609c6.97089,0 12.62192,5.73796 12.62192,12.81609z" fill="#ffffff" stroke="#000000" stroke-width="2" stroke-linecap="butt"/><path d="M360.40695,84.59244c0,7.07813 -5.65102,12.81609 -12.6219,12.81609c-6.97089,0 -12.6219,-5.73796 -12.6219,-12.81609c0,-7.07813 5.65102,-12.81609 12.6219,-12.81609c6.97089,0 12.6219,5.73796 12.6219,12.81609z" fill="#ffffff" stroke="#000000" stroke-width="2" stroke-linecap="butt"/><path d="M321.36118,85.01494c0,5.05581 -3.94091,9.15435 -8.80226,9.15435c-4.86135,0 -8.80226,-4.09854 -8.80226,-9.15435c0,-5.05581 3.94091,-9.15435 8.80226,-9.15435c4.86135,0 8.80226,4.09854 8.80226,9.15435z" fill="#ffffff" stroke="#000000" stroke-width="2" stroke-linecap="butt"/><path d="M356.57023,84.59244c0,5.05581 -3.94091,9.15435 -8.80226,9.15435c-4.86135,0 -8.80226,-4.09854 -8.80226,-9.15435c0,-5.05581 3.94091,-9.15435 8.80226,-9.15435c4.86135,0 8.80226,4.09854 8.80226,9.15435z" fill="#ffffff" stroke="#000000" stroke-width="2" stroke-linecap="butt"/><path d="M310.0253,59.79012c0.60076,-3.6966 4.3157,-4.85887 7.94503,-6.12614c0.40196,-0.14035 3.80547,-1.27856 3.72123,-1.775c-0.15326,-0.90312 -5.43128,-0.25087 -4.74106,-2.22394c0.92704,-2.65004 11.48935,-2.02972 13.75934,-2.02994c0.32694,-0.00003 4.19692,0.14133 4.25129,-0.00453c0.23299,-0.62501 -6.26038,-2.69234 -5.81658,-3.5216c0.24256,-0.45326 4.98018,1.11234 5.4532,1.29224c6.19701,2.35687 7.62948,6.16045 11.25572,10.62113" fill="#feed00" stroke="#000000" stroke-width="2" stroke-linecap="round"/><path d="M296.46949,76.55164c-2.37139,-1.16229 -2.3854,-3.23006 -4.19318,-4.91846c-0.92298,-0.86203 -5.83202,-1.4663 -5.74031,-3.08069c0.12064,-2.12341 6.07279,-2.94391 7.38787,-3.45758c0.92582,-0.36163 -0.45502,-8.61831 7.82677,-3.19238" fill="#feed00" stroke="#000000" stroke-width="2" stroke-linecap="round"/><path d="M340.64743,111.34656c0.68513,0.88636 1.56885,2.07928 1.67514,2.221c0.36881,0.49175 0.84209,1.03532 1.33364,1.61787c0.3793,0.12835 0.7767,0.24755 1.1048,0.42258c0.1152,-0.12136 0.22667,-0.23834 0.33417,-0.35027c0.20971,-0.21835 -2.14978,-4.2926 -2.47313,-4.38364c-0.66657,-0.18768 -1.31843,0.12918 -1.97463,0.47247zM344.12598,119.17662c-0.1061,0.08991 -0.21331,0.17943 -0.32142,0.26856c-0.01553,0.01569 -0.03122,0.03142 -0.04705,0.04719c0.05366,0.1156 0.11986,0.29208 0.19364,0.50855c0.01192,0.02857 0.0216,0.0574 0.02917,0.08645c0.03835,0.11479 0.07848,0.23914 0.11975,0.37034c0.03529,0.06699 0.0704,0.13407 0.10532,0.20118c0.15444,-0.44113 0.17498,-0.90227 -0.0315,-1.37511c-0.01537,-0.03519 -0.03134,-0.07092 -0.04791,-0.10716zM341.18432,129.01271c0.12624,-0.09701 0.25093,-0.19035 0.37391,-0.27931c0.15165,-0.10971 1.63695,-1.01339 2.60239,-1.75356c-0.02989,-0.22509 -0.08888,-0.47979 -0.16742,-0.75257c-0.02526,0.0309 -0.05144,0.06152 -0.07854,0.09184c-0.50084,0.56031 -1.39276,0.56512 -2.08914,0.84769c-0.11699,0.04081 -0.23521,0.08339 -0.35457,0.1275c-0.23422,0.27659 -0.47149,0.54209 -0.71481,0.78983c-0.03124,0.09262 -0.06352,0.16133 -0.09679,0.20072c-0.07986,0.09455 -0.20583,0.17448 -0.36794,0.24197c-1.20934,1.06946 -2.60094,1.6342 -4.50524,0.95836c-0.28664,0.08292 -0.57105,0.1561 -0.85206,0.21693c-0.02703,0.03201 -0.05548,0.06311 -0.08546,0.09322c-0.1494,0.15005 -0.32842,0.25138 -0.52455,0.32458c0.3827,0.24721 0.73479,0.44925 1.03605,0.59321c0.77376,0.36974 1.67623,-0.38697 2.47837,-0.69028c0.40337,-0.14861 1.90574,-0.5401 3.34578,-1.01011zM327.65446,130.52282c-0.46391,0.00473 -0.93358,0.00524 -1.40318,-0.00164c0.38433,0.25428 0.76546,0.40917 1.1113,0.19279c0.09753,-0.06102 0.19483,-0.1248 0.29188,-0.19115zM314.02844,115.52329c1.14064,-0.31106 2.69755,-0.26668 4.0298,-0.26404c0.65895,-0.70506 1.30093,-1.38063 1.41695,-1.46171c0.06314,-0.36366 0.17152,-0.70099 0.34659,-0.98536c0.15166,-0.24635 0.35722,-0.49964 0.60033,-0.75545c-0.56078,0.18579 -1.11843,0.38836 -1.68552,0.54303c-0.98907,0.26975 -5.15203,0.82738 -5.0833,1.76109c0.12862,0.334 0.25096,0.72938 0.37516,1.16244zM315.08367,125.15784c-0.05135,-0.13588 -0.10082,-0.26507 -0.14909,-0.38499c-0.02261,-0.05617 -0.0642,-0.15887 -0.11963,-0.29609c-0.01108,-0.00394 -0.02225,-0.00791 -0.03352,-0.01192c-0.27944,0.20086 -0.93572,0.34719 -0.7527,0.61496c0.20073,0.29369 0.66521,0.09443 1.05495,0.07804zM337.08278,132.3013c-2.21093,0.40292 -3.51879,-0.4685 -5.11531,-1.84798c-0.33164,-0.00322 -0.68544,-0.00072 -1.05671,0.00495c-0.95283,0.94174 -1.92272,1.73291 -2.85828,2.13293c-0.0744,0.03181 -0.15195,0.05837 -0.23241,0.07994c2.6713,0.83629 5.47153,1.43516 7.48148,0.62889c0.58705,-0.23549 1.18452,-0.58609 1.78124,-0.99873zM322.38923,130.87444c-0.68069,-0.39763 -1.33401,-0.80797 -1.91488,-1.17503c-0.37961,-0.14745 -0.72878,-0.32004 -1.0402,-0.52176c-0.26756,-0.04847 -0.52771,-0.10294 -0.77736,-0.16475c-0.07632,0.4372 -0.04328,0.82647 0.28494,1.05993c0.95598,0.67999 2.29553,0.49075 3.42817,0.79638c0.00643,0.00174 0.01288,0.00348 0.01933,0.00523zM325.60426,110.22064c0.31939,0.14456 0.63407,0.30877 0.94411,0.4884c0.22715,-0.0876 0.45116,-0.1643 0.67124,-0.22855c0.61161,-0.17854 1.30281,-0.22566 2.04204,-0.17957c-0.44424,-0.18269 -0.88506,-0.37124 -1.32026,-0.56882c-0.32679,-0.14836 -0.59224,-0.61885 -0.93908,-0.52663c-0.56868,0.15119 -0.99734,0.55596 -1.39806,1.01517zM313.74089,122.21844c0.03429,-0.06644 0.06861,-0.13323 0.10297,-0.2003c-0.26251,-0.68986 -0.46725,-1.26586 -0.46514,-1.37994c0.00326,-0.17632 0.02222,-0.34031 0.05488,-0.49338c-0.08436,-0.20506 -0.16503,-0.41378 -0.24251,-0.62493c-0.00713,0.04025 -0.01507,0.08024 -0.02403,0.1199c-0.15668,0.69325 -1.04577,1.7562 -0.41866,2.09069c0.32102,0.17123 0.65248,0.33343 0.9925,0.48796zM314.58692,117.51105c0.08672,0.29327 0.17815,0.58805 0.27602,0.87934c0.1995,-0.12313 0.40666,-0.23768 0.61304,-0.34967c0.19188,-0.20923 0.37437,-0.40577 0.53341,-0.57616c-0.17294,0.01282 -0.34495,0.02429 -0.51591,0.03424c-0.21636,0.01259 -0.55917,-0.01175 -0.90656,0.01224zM312.31706,116.71886c-0.22301,-0.7864 -0.43245,-1.53267 -0.65536,-2.17464c0.74459,-3.25903 3.58716,-3.06631 6.54864,-3.87399c0.27796,-0.07581 3.90125,-1.07121 4.07164,-1.08643c0.40188,-0.0359 0.79723,-0.02784 1.18618,0.01785c0.45075,-0.32277 0.86739,-0.62033 1.201,-0.87939c0.66202,-0.51408 1.20344,-1.31965 2.02357,-1.49269c0.32585,-0.06875 3.54062,1.26525 3.8484,1.38836c1.30408,0.52163 3.31176,1.02737 5.12495,1.72774c0.15394,-0.02002 0.3079,-0.04002 0.46186,-0.06004c0.66486,-0.08644 1.67207,-0.32847 2.56624,-0.26219c0.05225,-0.0131 0.10411,-0.02638 0.15554,-0.03985c0.60455,-0.15833 4.07289,-1.11549 4.47336,-0.98263c0.73033,0.2423 0.9873,1.18154 1.44738,1.79833c1.09477,1.46765 3.27228,3.4786 2.04807,5.47337c-0.32162,0.52405 -0.74355,1.04038 -1.23043,1.54714c0.69715,1.24084 1.04022,2.55465 0.47278,3.85856c-0.04284,0.09844 -0.39046,0.53135 -0.81494,1.04188c0.19974,0.3953 0.39347,0.77025 0.58203,1.11161c0.40131,0.72652 1.08994,1.37875 1.1543,2.20624c0.05641,0.72523 -0.32625,1.37419 -0.89641,1.95034c0.00069,0.03881 -0.00178,0.06886 -0.00777,0.08907c-0.3738,1.26163 -2.12548,2.09582 -3.9186,2.70661c-1.87894,1.4647 -4.05874,3.57343 -6.13593,4.38104c-3.71096,1.44283 -8.66715,-0.87885 -12.24377,-1.84397c-1.44023,-0.38863 -5.17033,-0.80599 -6.22651,-1.80885c-0.94298,-0.89538 -0.86854,-2.10033 -0.67031,-3.222c-0.22416,-0.16622 -0.42346,-0.37818 -0.60239,-0.61873c-1.01008,-0.3659 -3.91528,-1.40057 -4.13432,-1.91627c-0.27728,-0.65282 0.36982,-1.31419 0.75988,-1.97317c-0.8052,-0.30298 -1.51374,-0.58867 -1.62956,-0.69752c-1.46971,-1.38122 -0.40201,-4.62139 1.04048,-6.36579zM329.83081,113.14552c0.44854,-0.05431 0.90349,-0.09784 1.35316,-0.13503c-0.04152,-0.01125 -0.08303,-0.02251 -0.12455,-0.03376c-0.42462,0.04739 -0.84956,0.09092 -1.2749,0.12935c0.01544,0.01315 0.03087,0.02629 0.04628,0.03944zM319.91722,119.07072c-0.13805,-0.27625 -0.21541,-0.55819 -0.26308,-0.84758c-0.18027,0.49837 -0.30042,1.08069 -0.39021,1.69228c0.21195,-0.25758 0.42982,-0.54322 0.65328,-0.8447zM320.28008,122.21932c-0.09659,0.20026 -0.18221,0.40782 -0.25938,0.62373c0.20206,0.04872 0.40491,0.09592 0.60827,0.14196c-0.12945,-0.25288 -0.24684,-0.51009 -0.3489,-0.76569zM316.9292,121.04939c-0.01816,-0.16022 -0.03607,-0.3176 -0.05427,-0.47129c-0.14812,0.25163 -0.29167,0.50875 -0.43192,0.76842c0.00541,0.01812 0.01124,0.03633 0.01748,0.05463c0.11682,0.12051 0.23943,0.23075 0.36834,0.32927c0.03116,-0.22641 0.06461,-0.45401 0.10037,-0.68104zM323.16158,112.54368c0.38241,-0.25017 0.76641,-0.49137 1.14878,-0.7173c-0.06181,-0.02093 -0.12371,-0.04075 -0.18568,-0.05942c-0.36259,0.29512 -0.68261,0.54728 -0.9631,0.77672z" fill="#000000" stroke="none" stroke-width="0.5" stroke-linecap="butt"/><path d="M327.58352,71.46911l-1.64654,17.01427l-28.17417,-7.13502l3.65898,-12.44054" fill="#feed00" stroke="#000000" stroke-width="2" stroke-linecap="round"/><path d="M357.64755,68.78524l3.65898,12.44054l-28.17417,7.13502l-1.64654,-17.01427" data-paper-data="{&quot;index&quot;:null}" fill="#feed00" stroke="#000000" stroke-width="2" stroke-linecap="round"/><path d="M319.7167,85.00734v-15.73363h20.8562v15.73363z" fill="#feed00" stroke="none" stroke-width="0" stroke-linecap="butt"/><path d="M355.34445,78.88465l-2.36008,-12.58709l6.11373,-1.14632l2.36008,12.58709z" fill="#feed00" stroke="none" stroke-width="0" stroke-linecap="butt"/><path d="M296.12895,78.63991l3.93404,-11.80213l5.55395,1.85132l-3.93404,11.80213z" fill="#feed00" stroke="none" stroke-width="0" stroke-linecap="butt"/><path d="M365.18698,208.63441c-0.23483,-2.6819 -0.59793,-6.18963 -2.16964,-8.37196c-3.71032,-5.15181 -11.09692,-7.59717 -16.83718,-4.60681c-0.45473,0.36824 -0.95266,0.68876 -1.3642,1.10471c-3.48128,3.51848 4.55802,1.66848 5.40841,3.47193c0.29839,0.63281 -0.42829,1.33782 -0.74044,1.96396c-0.54167,1.08655 -1.36431,2.38847 -2.01051,3.41133c-0.55366,0.87638 -1.8354,1.38257 -1.96405,2.41117c-0.1444,1.15447 1.59273,1.93273 1.61165,3.09604c0.03766,2.31526 -2.82568,4.2144 -2.91812,6.78353c1.9179,2.44158 3.9348,5.46284 6.54935,7.16311c0.80877,0.52595 1.55598,0.35648 2.54654,0.42644c3.29749,0.23291 6.31339,0.1953 9.62216,0.05736c0.91282,-0.03806 1.86891,0.26189 2.7408,-0.01101c2.25776,-0.70668 3.45772,-3.44065 4.87352,-5.05369c1.51961,-2.32994 -0.16339,-4.39216 -1.08492,-6.69926c-0.34831,-0.87202 -0.03281,-2.40887 -0.93871,-2.65604c-0.76965,-0.21 -1.59614,-0.29074 -2.29723,-0.67143l-0.74223,-0.54702c0,0 -0.71604,-0.53703 -0.2852,-1.27238zM367.20103,208.71297l0.00566,0.00435c0.63991,0.3938 1.51052,0.24768 2.17133,0.60531c1.3303,0.71996 1.44497,2.50699 1.93394,3.72761c1.26909,3.16806 2.79693,5.38444 0.82811,8.62387c-1.40487,1.60159 -2.38172,3.701 -4.23403,4.86062c-3.1998,2.00319 -9.08796,1.47778 -12.79617,1.09669c-1.75073,-0.17992 -3.79024,0.12183 -5.35729,-0.83774c-2.95289,-1.80819 -5.52951,-5.43207 -7.45427,-8.285c-0.01988,-0.92525 -0.20003,-2.35305 0.227,-3.29872c0.08876,-0.19656 2.61979,-3.63553 2.60017,-3.9618c-0.02936,-0.48828 -0.84997,-0.58095 -1.04626,-1.029c-0.99948,-2.28135 -0.76032,-2.47564 0.45789,-4.15632c1.06167,-1.46472 1.65339,-2.72807 2.68779,-4.24053c0.08564,-0.12522 0.24078,-0.29813 0.41105,-0.45866c-0.28795,-0.03097 -0.5978,-0.10039 -0.81631,-0.13493c-1.35778,-0.21467 -4.27685,-0.14285 -4.8312,-2.00293c-0.69237,-2.32322 1.65815,-4.067 3.09195,-5.24064c6.64129,-3.46816 15.28216,-1.00334 19.57807,5.13418c1.80928,2.5849 2.26922,6.51906 2.54256,9.59363z" fill="#000000" stroke="none" stroke-width="0.5" stroke-linecap="butt"/><path d="M365.52218,209.90616l0.74216,0.55022c0.70109,0.38068 1.52739,0.46393 2.29704,0.67392c0.9059,0.24717 0.58831,1.79406 0.93663,2.66608c0.92153,2.3071 2.59579,4.3856 1.07618,6.71553c-1.4158,1.61304 -2.63152,4.35994 -4.88928,5.06662c-0.8719,0.2729 -1.8348,-0.0241 -2.74762,0.01395c-3.30877,0.13794 -6.35424,0.17652 -9.65174,-0.0564c-0.99056,-0.06997 -1.74511,0.09686 -2.55388,-0.42909c-2.61455,-1.70027 -4.65392,-4.74165 -6.57182,-7.18323c0.09245,-2.56913 2.9491,-4.48844 2.91144,-6.8037c-0.01892,-1.16331 -1.75566,-1.955 -1.61126,-3.10948c0.12865,-1.02861 1.4139,-1.54665 1.96756,-2.42304c0.6462,-1.02287 1.47875,-2.33956 2.02042,-3.42611c0.31214,-0.62614 1.10472,-1.25634 0.80633,-1.88915c-0.85039,-1.80345 -8.95432,-0.02952 -5.47303,-3.548c0.41155,-0.41594 0.91307,-0.73962 1.36781,-1.10785c5.74026,-2.99036 13.18238,-0.54941 16.8927,4.6024c1.57171,2.18234 1.95955,5.72482 2.19437,8.40672c-0.43084,0.73535 0.28599,1.28059 0.28599,1.28059z" data-paper-data="{&quot;noHover&quot;:false,&quot;origItem&quot;:[&quot;Path&quot;,{&quot;applyMatrix&quot;:true,&quot;segments&quot;:[[[365.18698,208.6344],[-0.43084,0.73535],[-0.23483,-2.6819]],[[363.01734,200.26244],[1.57171,2.18234],[-3.71032,-5.15181]],[[346.18016,195.65563],[5.74026,-2.99036],[-0.45473,0.36824]],[[344.81596,196.76034],[0.41155,-0.41594],[-3.48128,3.51848]],[[350.22437,200.23227],[-0.85039,-1.80345],[0.29839,0.63281]],[[349.48393,202.19623],[0.31214,-0.62614],[-0.54167,1.08655]],[[347.47343,205.60757],[0.6462,-1.02287],[-0.55366,0.87638]],[[345.50937,208.01874],[0.12865,-1.02861],[-0.1444,1.15447]],[[347.12103,211.11478],[-0.01892,-1.16331],[0.03766,2.31526]],[[344.2029,217.89832],[0.09245,-2.56913],[1.9179,2.44158]],[[350.75225,225.06143],[-2.61455,-1.70027],[0.80877,0.52595]],[[353.29879,225.48787],[-0.99056,-0.06997],[3.29749,0.23291]],[[362.92095,225.54523],[-3.30877,0.13794],[0.91282,-0.03806]],[[365.66175,225.53422],[-0.8719,0.2729],[2.25776,-0.70668]],[[370.53527,220.48053],[-1.4158,1.61304],[1.51961,-2.32994]],[[369.45035,213.78127],[0.92153,2.3071],[-0.34831,-0.87202]],[[368.51164,211.12522],[0.9059,0.24717],[-0.76965,-0.21]],[[366.21441,210.4538],[0.70109,0.38068],[0,0]],[365.47218,209.90678]],&quot;closed&quot;:true}]}" fill="#feed00" stroke="none" stroke-width="0.5" stroke-linecap="butt"/></g></g></svg>