<svg version="1.1" xmlns="http://www.w3.org/2000/svg" xmlns:xlink="http://www.w3.org/1999/xlink" width="34.17311" height="34.17311" viewBox="0,0,34.17311,34.17311"><g transform="translate(-302.91346,-162.91346)"><g data-paper-data="{&quot;isPaintingLayer&quot;:true}" stroke="none" stroke-miterlimit="10" stroke-dasharray="" stroke-dashoffset="0" style="mix-blend-mode: normal"><path d="M309.98312,162.91347h20.03379c3.9166,0 7.06966,3.15307 7.06966,7.06966v20.03379c0,3.91659 -3.15306,7.06966 -7.06966,7.06966h-20.03379c-3.91659,0 -7.06966,-3.15307 -7.06966,-7.06966v-20.03379c0,-3.91659 3.15307,-7.06966 7.06966,-7.06966z" fill="#a5ff00" fill-rule="evenodd" stroke-width="4.43922" stroke-linecap="round" stroke-linejoin="round"/><path d="M335.5472,188.56321c-0.74246,0.10607 -0.84853,-0.6364 -0.84853,-0.6364l-0.1167,-0.81968c-0.17717,-2.30627 0.14047,-4.78999 -0.39432,-7.04978c-0.11515,-0.48656 -0.298,-0.96223 -0.34338,-1.46017c-0.02836,-0.31112 0.41852,-0.82002 0.12565,-0.92876c-0.29287,-0.10874 -0.26202,0.5969 -0.51092,0.78571c-0.55736,0.42281 -1.22972,0.66743 -1.84459,1.00115c-0.22864,-0.3577 -2.323,-4.96424 -2.65821,-4.98531c-1.16575,-0.0733 -2.25137,2.79689 -3.71582,2.59614c-0.97499,-0.13365 -2.10866,-4.82515 -2.39599,-5.64974c-0.19141,-0.5493 -0.32649,-2.29043 -0.35157,-1.70929c-0.09151,2.12044 -2.20133,5.04738 -3.98036,7.15936l0.04405,0.02767l-0.79112,1.25923c-0.13144,0.21694 -0.36975,0.36192 -0.64192,0.36192c-0.32193,0 -0.59649,-0.20283 -0.70285,-0.48768l-0.5506,-1.37649c-0.53586,-1.35456 -1.28489,-2.04469 -1.94986,-3.30811c-0.14598,-0.27735 0.06159,-0.86292 -0.24876,-0.90677c-0.28553,-0.04034 -0.09747,0.56982 -0.1796,0.84625c-0.22091,0.74348 -0.56753,1.44367 -0.85322,2.16475c-0.8304,2.09586 -1.59663,4.42542 -2.80936,6.339c-0.38916,0.61406 -0.53413,1.70972 -1.25753,1.78194c-0.75536,0.07542 -1.51006,-1.23205 -1.97154,-2.33467c-0.12757,3.03168 -0.53645,6.01411 -0.4097,9.05605c0,0 0.03122,0.74935 -0.71813,0.78057c-0.74935,0.03122 -0.78057,-0.71813 -0.78057,-0.71813c-0.14333,-3.43989 0.38696,-6.79978 0.44103,-10.24113l0.01293,-0.82313c0.00552,-0.40946 0.33916,-0.73969 0.74993,-0.73969c0.20711,0 0.39461,0.08395 0.53033,0.21967l1.06066,1.06066l-0.00659,0.00659c0.02441,0.02245 0.04851,0.04527 0.07229,0.0685c0.37338,0.36473 0.58304,0.87409 0.78198,1.35665c0.1043,0.25301 -0.09773,0.9884 0.11256,0.81326c0.45661,-0.38029 0.15165,-1.19941 0.40852,-1.73526c1.07896,-2.25079 2.01795,-4.51913 2.94118,-6.83794c0.30919,-0.77656 0.89715,-2.52707 1.85105,-2.56375c0.47604,-0.0183 2.03563,2.29314 2.36479,2.75648c0.5226,0.73565 0.91235,1.56442 1.25031,2.40113l0.00972,0.02429l0.01392,-0.02215l0.08523,0.05355c0.62197,-2.11825 2.57151,-5.00118 3.73192,-6.50657c0.40485,-0.5252 0.71636,-1.37636 1.3768,-1.43599c1.45131,-0.13104 2.40674,4.54901 2.7551,5.48971c0.17293,0.46698 0.43861,0.90508 0.54153,1.3923c0.03779,0.17891 -0.28269,0.63964 -0.13509,0.53169c0.97494,-0.71302 1.89354,-2.88367 3.55691,-2.63113c1.54134,0.23402 2.67706,3.75595 2.79634,5.01469c1.52355,-1.99963 2.39139,-2.49199 3.30932,0.2494c0.93672,2.79749 0.546,5.80019 0.76858,8.68965l0.11058,0.77123c0,0 0.10607,0.74246 -0.6364,0.84853z" fill="#000000" fill-rule="nonzero" stroke-width="0.5" stroke-linecap="butt" stroke-linejoin="miter"/></g></g></svg>