<svg version="1.1" xmlns="http://www.w3.org/2000/svg" xmlns:xlink="http://www.w3.org/1999/xlink" width="201.9221" height="369.67063" viewBox="0,0,201.9221,369.67063"><defs><radialGradient cx="330.41448" cy="214.501" r="33.16925" gradientUnits="userSpaceOnUse" id="color-1"><stop offset="0" stop-color="#ee2828"/><stop offset="1" stop-color="#500000"/></radialGradient><radialGradient cx="332.57802" cy="198.88143" r="28.48101" gradientUnits="userSpaceOnUse" id="color-2"><stop offset="0" stop-color="#ee2828"/><stop offset="1" stop-color="#500000"/></radialGradient><linearGradient x1="286.36991" y1="45.42497" x2="339.41658" y2="13.61792" gradientUnits="userSpaceOnUse" id="color-3"><stop offset="0" stop-color="#000000"/><stop offset="1" stop-color="#d31b1b"/></linearGradient><linearGradient x1="204.99005" y1="111.88247" x2="261.17556" y2="78.19337" gradientUnits="userSpaceOnUse" id="color-4"><stop offset="0" stop-color="#d31b1b"/><stop offset="1" stop-color="#16031b"/></linearGradient><linearGradient x1="273.58079" y1="62.29549" x2="335.49025" y2="148.85471" gradientUnits="userSpaceOnUse" id="color-5"><stop offset="0" stop-color="#190307"/><stop offset="1" stop-color="#ee2828"/></linearGradient><linearGradient x1="273.29614" y1="54.78634" x2="299.74685" y2="98.89992" gradientUnits="userSpaceOnUse" id="color-6"><stop offset="0" stop-color="#d31b1b"/><stop offset="1" stop-color="#670000"/></linearGradient><radialGradient cx="276.93256" cy="111.93972" r="10.02727" gradientUnits="userSpaceOnUse" id="color-7"><stop offset="0" stop-color="#ffffff" stop-opacity="0.61176"/><stop offset="1" stop-color="#ffffff" stop-opacity="0"/></radialGradient><radialGradient cx="323.34968" cy="82.2047" r="10.02727" gradientUnits="userSpaceOnUse" id="color-8"><stop offset="0" stop-color="#ffffff" stop-opacity="0.61176"/><stop offset="1" stop-color="#ffffff" stop-opacity="0"/></radialGradient><radialGradient cx="322.58105" cy="81.68454" r="5.70896" gradientUnits="userSpaceOnUse" id="color-9"><stop offset="0" stop-color="#ffffff" stop-opacity="0.61176"/><stop offset="1" stop-color="#ffffff" stop-opacity="0"/></radialGradient><radialGradient cx="277.51673" cy="112.34332" r="5.70896" gradientUnits="userSpaceOnUse" id="color-10"><stop offset="0" stop-color="#ffffff" stop-opacity="0.61176"/><stop offset="1" stop-color="#ffffff" stop-opacity="0"/></radialGradient></defs><g transform="translate(-183.53317,19.27196)"><g stroke-miterlimit="10"><path d="M286.74686,349.82825l-1.77573,-72.38401l-5.18546,-11.99747l4.5095,-15.55681l-10.24273,-21.47116l9.59318,-5.00596l-18.8943,-32.73136l18.13994,1.98177l-19.38765,-24.53446l18.87505,3.63927l-10.48783,-25.12296c0,0 13.68162,11.48683 15.08061,7.41619c2.5005,-7.27575 5.93182,-14.11744 10.06826,-14.52223c8.937,-0.87456 30.12678,-2.46704 48.62982,-4.27774c20.06871,-1.96392 27.30062,18.49942 27.30062,18.49942l8.03564,-13.72017c0,0 -7.9201,24.10545 -7.87198,28.43073c0.03495,3.14164 10.89748,-11.85857 10.89748,-11.85857c0,0 -10.68843,30.64961 -10.64209,34.81537c0.04492,4.03799 12.06606,0.14 12.06606,0.14c0,0 -11.77329,26.17449 -11.70461,32.3496c0.0534,4.79986 8.20621,3.70079 8.20621,3.70079c0,0 -7.9477,19.53635 -7.90111,23.72298c0.04806,4.31936 4.00139,9.16207 4.00139,9.16207c0,0 -3.76405,12.17009 -3.71847,16.26816c0.4257,38.26451 0.8191,73.62699 0.8191,73.62699z" fill="#000000" stroke="#000000" stroke-width="0" stroke-linecap="butt"/><path d="M345.5468,149.82469c-0.08499,7.75047 -7.43461,14.08783 -16.41583,14.15491c-8.98122,0.06709 -16.19303,-6.1615 -16.10804,-13.91197c0.08499,-7.75047 7.4346,-14.08783 16.41582,-14.15491c8.98122,-0.06709 16.19304,6.16151 16.10805,13.91197z" fill="#ee2828" stroke="#000000" stroke-width="0" stroke-linecap="butt"/><path d="M354.93009,244.5317l-51.34199,-20.32644l-1.50804,30.65066l34.0395,-47.63184l22.62938,-33.078" fill="none" stroke="url(#color-1)" stroke-width="2.5" stroke-linecap="round"/><path d="M304.22072,187.88719l56.71465,21.9885" fill="none" stroke="url(#color-2)" stroke-width="2.5" stroke-linecap="round"/><path d="M298.07949,156.10692l52.02125,-2.20747" fill="none" stroke="#000000" stroke-width="0" stroke-linecap="round"/><path d="M330.97841,50.72421c4.77178,6.82865 -14.72575,31.07666 -43.54894,54.15948c-28.82319,23.0828 -56.05731,36.25942 -60.8291,29.43078c-4.77177,-6.82864 14.72574,-31.07665 43.54895,-54.15947c28.82319,-23.0828 56.05732,-36.25943 60.82911,-29.43079z" fill="#580b0b" stroke="#000000" stroke-width="0" stroke-linecap="butt"/><path d="M288.9086,50.77972l27.01134,-24.81213l-1.40713,-45.23955l21.56563,28.44347l10.73416,40.29522l-11.43396,11.43713l-9.08246,-9.41624l-18.18995,-5.2309z" fill="url(#color-3)" stroke="#000000" stroke-width="0" stroke-linecap="round"/><path d="M249.20013,93.12039l-0.48875,18.92082l6.24457,11.49617l-14.34907,7.45967l-35.19327,-22.36876l-21.88045,-31.41011l43.96674,17.24434l31.79371,-18.28702z" fill="url(#color-4)" stroke="#000000" stroke-width="0" stroke-linecap="round"/><path d="M347.60642,72.34014c15.70804,23.84534 11.62824,60.91142 -13.63543,77.55379c-25.26369,16.64236 -60.34568,8.43797 -76.05371,-15.40736c-15.70803,-23.84534 -9.76039,-58.54618 15.50332,-75.18855c25.26369,-16.64236 58.47783,-10.80321 74.18587,13.04213z" fill="url(#color-5)" stroke="#000000" stroke-width="0" stroke-linecap="butt"/><path d="M313.16498,89.12567c1.49017,2.26212 -2.85717,7.75552 -9.71009,12.26986c-6.85291,4.51435 -13.61631,6.34011 -15.10646,4.07797c-1.49017,-2.26212 2.85718,-7.75552 9.7101,-12.26986c6.85291,-4.51435 13.61631,-6.34011 15.10648,-4.07799z" fill-opacity="0.23137" fill="#000000" stroke="none" stroke-width="0" stroke-linecap="butt"/><path d="M280.59375,109.07461c1.22944,1.86631 0.56552,4.47315 -1.48288,5.82252c-2.0484,1.34937 -4.7056,0.93031 -5.93502,-0.93599c-1.22944,-1.86632 -0.56552,-4.47315 1.48288,-5.82252c2.0484,-1.34937 4.70559,-0.93031 5.93502,0.936z" fill="#ffffff" stroke="#000000" stroke-width="2.5" stroke-linecap="butt"/><path d="M325.46474,77.60713c1.22944,1.86632 0.56551,4.47314 -1.48288,5.82252c-2.0484,1.34937 -4.70559,0.93031 -5.93501,-0.93599c-1.22944,-1.86631 -0.56552,-4.47313 1.48288,-5.82251c2.0484,-1.34937 4.7056,-0.93032 5.93502,0.93599z" fill="#ffffff" stroke="#000000" stroke-width="2.5" stroke-linecap="butt"/><path d="M330.42717,44.39885c2.11749,3.44691 7.38397,12.3211 7.38397,12.3211l-42.82457,34.19933l-42.95086,33.63084c0,0 -6.71374,-8.55606 -8.77733,-11.91524c-8.39913,-13.67225 4.30543,-40.03098 28.37643,-58.87383c24.07099,-18.84285 50.39324,-23.03444 58.79238,-9.36219zM292.02855,59.73806c-11.98909,9.38511 -18.31687,22.51366 -14.13352,29.32343c1.02783,1.67311 4.37175,5.93465 4.37175,5.93465l21.39263,-16.75059l21.32973,-17.03375c0,0 -2.62308,-4.41998 -3.67772,-6.13678c-4.18337,-6.80978 -17.29375,-4.72206 -29.28286,4.66304z" fill="url(#color-6)" stroke="#000000" stroke-width="0" stroke-linecap="butt"/><path d="M321.80937,66.98535l-40.11352,31.56237l48.19914,-38.20744" fill="none" stroke-opacity="0.48235" stroke="#000000" stroke-width="2.5" stroke-linecap="round"/><path d="M278.78669,50.76937c0,0 4.87833,0.90096 6.96253,2.38075c2.19793,1.56054 5.90206,6.75312 5.90206,6.75312" fill="none" stroke-opacity="0.48235" stroke="#000000" stroke-width="0" stroke-linecap="round"/><path d="M264.7111,114.12497c0,0 -13.96534,-18.05908 -11.96224,-28.20629c2.14199,-10.85078 24.42552,-34.9293 24.42552,-34.9293c0,0 19.72372,-8.36892 29.99342,-6.98512c8.16685,1.10044 26.77422,14.63432 26.77422,14.63432" fill="none" stroke-opacity="0.48235" stroke="#000000" stroke-width="0" stroke-linecap="round"/><path d="M279.46887,46.59294c1.08496,1.64702 0.27796,4.09315 -1.80244,5.46361c-2.08042,1.37047 -4.64648,1.14631 -5.73143,-0.5007c-1.08496,-1.64702 -0.27797,-4.09315 1.80245,-5.46361c2.08042,-1.37047 4.64646,-1.1463 5.73143,0.50071z" fill="#d31b1b" stroke="#000000" stroke-width="0" stroke-linecap="butt"/><path d="M309.30023,88.68823c0,0 -0.97285,-3.03293 2.50991,-5.38641c6.22687,-4.20781 26.03997,-17.59647 26.03997,-17.59647" fill="none" stroke="#000000" stroke-width="0" stroke-linecap="round"/><path d="M278.78669,50.76937c0,0 4.87833,0.90096 6.96253,2.38075c2.19793,1.56054 5.90206,6.75312 5.90206,6.75312" fill="none" stroke-opacity="0.48235" stroke="#000000" stroke-width="2.5" stroke-linecap="round"/><path d="M264.71111,114.12496c0,0 -13.96535,-18.05908 -11.96225,-28.20628c2.14199,-10.85077 24.42553,-34.9293 24.42553,-34.9293c0,0 19.72372,-8.36892 29.99342,-6.98512c8.16685,1.10044 26.77422,14.63432 26.77422,14.63432" fill="none" stroke-opacity="0.48235" stroke="#000000" stroke-width="2.5" stroke-linecap="round"/><path d="M283.2058,106.24265c2.36788,5.00615 2.47222,12.6529 -1.98581,14.76153c-4.45804,2.10863 -11.79028,-2.11933 -14.15817,-7.1255c-2.36788,-5.00615 -0.67347,-10.77383 3.78457,-12.88244c4.45804,-2.10863 9.99154,0.24028 12.35943,5.24643z" fill="url(#color-7)" stroke="none" stroke-width="0" stroke-linecap="butt"/><path d="M329.62292,76.50761c2.36788,5.00615 0.67348,10.77382 -3.78454,12.88245c-4.45804,2.10863 -9.99153,-0.24029 -12.35941,-5.24644c-2.36788,-5.00615 -0.67349,-10.77382 3.78455,-12.88246c4.45804,-2.10863 9.99155,0.24029 12.35944,5.24644z" fill="url(#color-8)" stroke="none" stroke-width="0" stroke-linecap="butt"/><path d="M325.37803,77.63172c1.34814,2.85021 0.38344,6.134 -2.15472,7.33454c-2.53817,1.20053 -5.6886,-0.1368 -7.03675,-2.98702c-1.34814,-2.85021 -0.38345,-6.13399 2.15471,-7.33453c2.53817,-1.20053 5.68862,0.13681 7.03676,2.98702z" fill="url(#color-9)" stroke="none" stroke-width="0" stroke-linecap="butt"/><path d="M280.3137,108.2905c1.34814,2.85021 2.1822,8.01306 -0.35595,9.21359c-2.53816,1.20052 -7.48736,-2.01588 -8.8355,-4.86609c-1.34814,-2.85021 -0.38344,-6.134 2.15471,-7.33453c2.53816,-1.20052 5.6886,0.13681 7.03674,2.98702z" fill="url(#color-10)" stroke="none" stroke-width="0" stroke-linecap="butt"/><path d="M310.99851,159.69736l-20.2661,-15.3878l1.93087,-16.63992l11.87339,1.44549l13.36561,-15.64962l20.29612,-2.81578l7.98428,-9.62244l4.70836,1.77855l-1.75582,26.38868l-5.49859,12.61068l-11.75696,11.59501z" fill="#000000" stroke-opacity="0.7098" stroke="#000000" stroke-width="2.5" stroke-linecap="round"/><path d="M293.82192,129.38074l9.2562,0.80008l-2.05916,14.45747l-7.36354,-8.68182z" fill="#ffffff" stroke-opacity="0.50196" stroke="#000000" stroke-width="2.5" stroke-linecap="round"/><path d="M348.54118,108.19166l-8.55323,14.84548l-0.65009,-13.40833l9.70847,-8.14401z" fill="#ffffff" stroke-opacity="0.50196" stroke="#000000" stroke-width="2.5" stroke-linecap="round"/><path d="M306.50664,128.5541l9.77545,-9.46871l-2.13333,15.92444l-7.79934,-0.06337z" fill="#ffffff" stroke-opacity="0.50196" stroke="#000000" stroke-width="2.5" stroke-linecap="round"/><path d="M318.50302,115.07576l9.33824,-0.82234l-2.07088,14.68924l-7.43239,-7.32015z" fill="#ffffff" stroke-opacity="0.50196" stroke="#000000" stroke-width="2.5" stroke-linecap="round"/><path d="M336.49516,118.27519l-6.75335,9.56078l-0.34373,-14.30786l7.56394,-1.84736z" fill="#ffffff" stroke-opacity="0.50196" stroke="#000000" stroke-width="2.5" stroke-linecap="round"/><path d="M309.62258,156.33958l-7.99966,-4.7247l8.10948,-12.14474l2.88431,11.01255z" fill="#ffffff" stroke-opacity="0.50196" stroke="#000000" stroke-width="2.5" stroke-linecap="round"/><path d="M315.42758,150.39474l4.68903,-10.37346l5.95955,13.332l-8.6783,3.31727z" fill="#ffffff" stroke-opacity="0.50196" stroke="#000000" stroke-width="2.5" stroke-linecap="round"/><path d="M325.78502,145.38934l1.90522,-11.22344l9.14553,11.38497l-7.55343,5.40952z" fill="#ffffff" stroke-opacity="0.50196" stroke="#000000" stroke-width="2.5" stroke-linecap="round"/><path d="M335.09062,138.12846l-2.1643,-11.72453l9.98036,9.29161l-3.61952,7.20927z" fill="#ffffff" stroke-opacity="0.50196" stroke="#000000" stroke-width="2.5" stroke-linecap="round"/><path d="M343.78458,125.86869l2.37288,7.59968l-10.13815,-6.17111l3.48678,-4.58405z" fill="#ffffff" stroke-opacity="0.50196" stroke="#000000" stroke-width="2.5" stroke-linecap="round"/></g></g></svg>