<svg version="1.1" xmlns="http://www.w3.org/2000/svg" xmlns:xlink="http://www.w3.org/1999/xlink" width="168.30386" height="313.49026" viewBox="0,0,168.30386,313.49026"><defs><linearGradient x1="409.89837" y1="132.2451" x2="368.75875" y2="129.35132" gradientUnits="userSpaceOnUse" id="color-1"><stop offset="0" stop-color="#ff8600"/><stop offset="1" stop-color="#562e0d"/></linearGradient><linearGradient x1="262.83948" y1="120.45729" x2="303.97909" y2="123.35106" gradientUnits="userSpaceOnUse" id="color-2"><stop offset="0" stop-color="#ff8600"/><stop offset="1" stop-color="#562e0d"/></linearGradient><linearGradient x1="331.27881" y1="167.58292" x2="318.73068" y2="345.97453" gradientUnits="userSpaceOnUse" id="color-3"><stop offset="0" stop-color="#141414"/><stop offset="1" stop-color="#020202"/></linearGradient><linearGradient x1="333.63527" y1="159.53419" x2="331.32749" y2="192.34301" gradientUnits="userSpaceOnUse" id="color-4"><stop offset="0" stop-color="#c46704"/><stop offset="1" stop-color="#ffd300"/></linearGradient><linearGradient x1="339.46704" y1="73.91213" x2="331.99877" y2="180.08539" gradientUnits="userSpaceOnUse" id="color-5"><stop offset="0" stop-color="#9c6400"/><stop offset="1" stop-color="#ffd300"/></linearGradient><linearGradient x1="324.67858" y1="280.98936" x2="322.90766" y2="306.16588" gradientUnits="userSpaceOnUse" id="color-6"><stop offset="0" stop-color="#0cb700"/><stop offset="1" stop-color="#012f00"/></linearGradient><linearGradient x1="256.24169" y1="290.33127" x2="272.20953" y2="291.79989" gradientUnits="userSpaceOnUse" id="color-7"><stop offset="0" stop-color="#ffffff"/><stop offset="1" stop-color="#929292"/></linearGradient><linearGradient x1="392.5928" y1="299.15001" x2="376.57657" y2="298.36887" gradientUnits="userSpaceOnUse" id="color-8"><stop offset="0" stop-color="#ffffff"/><stop offset="1" stop-color="#929292"/></linearGradient><linearGradient x1="294.00997" y1="301.88489" x2="280.9554" y2="290.81357" gradientUnits="userSpaceOnUse" id="color-9"><stop offset="0" stop-color="#ffffff"/><stop offset="1" stop-color="#929292"/></linearGradient><linearGradient x1="330.84903" y1="290.39924" x2="316.51069" y2="297.57852" gradientUnits="userSpaceOnUse" id="color-10"><stop offset="0" stop-color="#ffffff"/><stop offset="1" stop-color="#929292"/></linearGradient><linearGradient x1="368.0966" y1="305.41116" x2="354.72589" y2="298.83386" gradientUnits="userSpaceOnUse" id="color-11"><stop offset="0" stop-color="#ffffff"/><stop offset="1" stop-color="#929292"/></linearGradient><linearGradient x1="310.27979" y1="292.17692" x2="296.17672" y2="296.01136" gradientUnits="userSpaceOnUse" id="color-12"><stop offset="0" stop-color="#ffffff"/><stop offset="1" stop-color="#929292"/></linearGradient><linearGradient x1="334.33813" y1="293.24175" x2="347.76553" y2="299.01275" gradientUnits="userSpaceOnUse" id="color-13"><stop offset="0" stop-color="#ffffff"/><stop offset="1" stop-color="#929292"/></linearGradient><radialGradient cx="300.58382" cy="119.7781" r="42.50334" gradientUnits="userSpaceOnUse" id="color-14"><stop offset="0" stop-color="#603201"/><stop offset="1" stop-color="#321902"/></radialGradient><radialGradient cx="304.84945" cy="121.22583" r="43.17404" gradientUnits="userSpaceOnUse" id="color-15"><stop offset="0" stop-color="#000000"/><stop offset="1" stop-color="#ffffff" stop-opacity="0.01569"/></radialGradient><radialGradient cx="306.77545" cy="116.91105" r="33.73477" gradientUnits="userSpaceOnUse" id="color-16"><stop offset="0" stop-color="#000000" stop-opacity="0.22745"/><stop offset="1" stop-color="#000000"/></radialGradient><radialGradient cx="308.67575" cy="115.04166" r="8.4479" gradientUnits="userSpaceOnUse" id="color-17"><stop offset="0" stop-color="#ffffff"/><stop offset="1" stop-color="#5a5a5a"/></radialGradient></defs><g transform="translate(-247.72847,-36.08331)"><g stroke-miterlimit="10"><path d="M368.78533,128.97422c1.37482,-19.12144 14.06773,-33.44538 24.57503,-32.68989c10.50732,0.75546 17.91068,16.86886 16.53587,35.99029c-1.37483,19.12142 -11.00721,34.00994 -21.51452,33.25448c-10.50731,-0.75548 -20.97117,-17.43349 -19.59635,-36.55492z" fill="url(#color-1)" stroke="#000000" stroke-width="0" stroke-linecap="butt"/><path d="M304.00554,122.97392c-1.3155,19.12559 -14.01105,34.17456 -24.52066,33.45169c-10.5096,-0.72288 -17.96292,-16.81321 -16.64744,-35.93881c1.3155,-19.12559 10.90165,-34.04396 21.41126,-33.32108c10.5096,0.72286 21.07235,16.6826 19.75685,35.80821z" fill="url(#color-2)" stroke="#000000" stroke-width="0" stroke-linecap="butt"/><path d="M270.03514,338.90165l8.11849,-147.06862c0,0 8.69608,-25.15002 18.92974,-24.83642c10.16286,0.31145 34.22388,1.4459 55.26492,2.09069c22.82148,0.69935 28.02574,28.0102 28.02574,28.0102l-10.47706,152.47607z" fill="url(#color-3)" stroke="#000000" stroke-width="0" stroke-linecap="butt"/><path d="M355.25168,177.54027c-0.63727,9.0599 -11.34849,15.68732 -23.92417,14.80274c-12.57569,-0.88458 -22.25367,-8.94618 -21.61639,-18.00607c0.63727,-9.0599 11.34849,-15.68732 23.92417,-14.80274c12.57569,0.88458 22.25367,8.94618 21.61639,18.00607z" fill="url(#color-4)" stroke="#000000" stroke-width="0" stroke-linecap="butt"/><path d="M390.09252,133.05258c-3.93518,28.28174 -31.57349,50.83849 -61.53746,46.66922c-29.96397,-4.16925 -50.90688,-33.48568 -46.97169,-61.76741c3.93518,-28.28173 31.4159,-47.82879 61.37987,-43.65951c29.96397,4.16925 51.06448,30.47598 47.12929,58.75772z" fill="url(#color-5)" stroke="#000000" stroke-width="0" stroke-linecap="butt"/><path d="M351.57257,119.8394c-0.19007,2.70216 -6.98019,4.42592 -15.16615,3.85012c-8.18598,-0.5758 -14.66791,-3.23312 -14.47784,-5.93529c0.19007,-2.70216 6.98019,-4.42592 15.16615,-3.85012c8.18598,0.5758 14.66791,3.23312 14.47784,5.93529z" fill-opacity="0.18431" fill="#ff0505" stroke="none" stroke-width="0" stroke-linecap="butt"/><path d="M351.38089,215.33653l3.55917,-15.64179l5.65162,17.03461l-15.21004,-13.48561l21.60129,0.02955z" fill="none" stroke-opacity="0.67059" stroke="#ffffff" stroke-width="2.5" stroke-linecap="round"/><path d="M298.69085,194.66354c10.75731,-5.54907 21.22147,7.50057 9.68525,14.47552c-5.14936,3.11337 -14.07918,0.48207 -16.23576,-5.18142c-2.32255,-6.09931 4.84625,-11.18636 10.15288,-9.456" fill="none" stroke-opacity="0.67059" stroke="#ffffff" stroke-width="2.5" stroke-linecap="round"/><path d="M310.48962,203.2726c2.36573,0.16669 8.15169,-0.29375 9.43691,2.35471c2.40839,4.96299 -6.78912,8.60506 -10.11123,8.77201c-6.52716,0.328 -14.6987,-0.71296 -20.34401,-3.93521c-4.58039,-2.61441 -4.39277,-7.98569 1.55388,-7.5674" fill="none" stroke-opacity="0.67059" stroke="#ffffff" stroke-width="2.5" stroke-linecap="round"/><path d="M289.50971,245.82631c1.52515,-9.81272 0.88723,-22.34062 4.68679,-31.53239" fill="none" stroke-opacity="0.67059" stroke="#ffffff" stroke-width="2.5" stroke-linecap="round"/><path d="M310.99878,215.4758c1.92526,10.90462 1.68093,21.81514 3.38867,32.65715" fill="none" stroke-opacity="0.67059" stroke="#ffffff" stroke-width="2.5" stroke-linecap="round"/><path d="M299.28492,219.61813c-0.02339,0.33251 -0.04677,0.66503 -0.07017,0.99753" fill="none" stroke-opacity="0.67059" stroke="#ffffff" stroke-width="2.5" stroke-linecap="round"/><path d="M304.89722,221.02459c0.04678,-0.66503 0.09355,-1.33004 0.14033,-1.99507" fill="none" stroke-opacity="0.67059" stroke="#ffffff" stroke-width="2.5" stroke-linecap="round"/><path d="M307.01201,226.22628c-0.18119,1.92434 -0.69976,6.37651 -2.99295,7.13384c-4.43334,1.46414 -7.70062,-3.34029 -7.44462,-6.97983" fill="none" stroke-opacity="0.67059" stroke="#ffffff" stroke-width="2.5" stroke-linecap="round"/><path d="M400.16441,41.02172l11.44738,4.40181l-32.98541,6.83478l16.21888,5.39137l-19.48128,33.6148" fill="none" stroke="#000000" stroke-width="2.5" stroke-linecap="round"/><path d="M403.67399,40.28768c-0.15168,2.15625 -2.11566,3.77475 -4.38669,3.61499c-2.27102,-0.15975 -3.98912,-2.03724 -3.83744,-4.19349c0.15168,-2.15625 2.11566,-3.77475 4.38669,-3.61499c2.27102,0.15975 3.98912,2.03724 3.83744,4.19349z" fill="#a65807" stroke="#000000" stroke-width="0" stroke-linecap="butt"/><path d="M304.11779,82.75683l-32.15119,-21.8123l12.26574,-11.90257l-32.67901,8.17522l8.39803,-8.93822" fill="none" stroke="#000000" stroke-width="2.5" stroke-linecap="round"/><path d="M258.1058,43.69838c1.97608,-1.13057 4.44819,-0.52613 5.52164,1.35009c1.07344,1.87622 0.34171,4.3137 -1.63437,5.44426c-1.97608,1.13057 -4.44821,0.52612 -5.52165,-1.35008c-1.07344,-1.87622 -0.3417,-4.3137 1.63438,-5.44426z" fill="#a65807" stroke="#000000" stroke-width="0" stroke-linecap="butt"/><path d="M268.17054,302.31565c0,0 -3.24776,-8.3599 -2.95698,-12.49375c0.29929,-4.25482 4.72791,-12.68276 4.72791,-12.68276c0,0 36.56821,8.32337 54.56266,9.58912c18.48381,1.30016 54.91155,-1.88866 54.91155,-1.88866c0,0 1.95882,8.50688 1.66457,12.69002c-0.29605,4.20889 -3.4355,12.48653 -3.4355,12.48653c0,0 -33.35532,0.30814 -50.87789,-0.9244c-18.86906,-1.32725 -58.59633,-6.77606 -58.59633,-6.77606z" fill="url(#color-6)" stroke="#000000" stroke-width="0" stroke-linecap="butt"/><path d="M271.3765,300.85719l-15.13482,-10.52594l16.8009,-7.58869z" fill="url(#color-7)" stroke="#000000" stroke-width="0" stroke-linecap="butt"/><path d="M377.01964,289.28413l15.57315,9.86589l-16.4593,8.30361z" fill="url(#color-8)" stroke="#000000" stroke-width="0" stroke-linecap="butt"/><path d="M286.07988,283.98728l7.9301,17.89761l-18.17905,-4.24496z" fill="url(#color-9)" stroke="#000000" stroke-width="0" stroke-linecap="butt"/><path d="M312.43845,289.44548l18.41056,0.95374l-10.2661,15.31227z" fill="url(#color-10)" stroke="#000000" stroke-width="0" stroke-linecap="butt"/><path d="M359.9565,290.49877l8.14009,14.9124l-18.60128,1.75781z" fill="url(#color-11)" stroke="#000000" stroke-width="0" stroke-linecap="butt"/><path d="M292.18348,286.75542l18.0963,5.42148l-10.10982,13.09044z" fill="url(#color-12)" stroke="#000000" stroke-width="0" stroke-linecap="butt"/><path d="M342.51589,307.61856l-8.17777,-14.3768l18.67706,-2.83484z" fill="url(#color-13)" stroke="#000000" stroke-width="0" stroke-linecap="butt"/><path d="M339.59386,74.72604c0,0 -12.42855,24.89473 -13.8484,33.61591c-1.59672,9.80748 -11.50807,22.65289 -13.40649,28.95384c-3.30156,10.95805 -10.30028,29.91356 -10.30028,29.91356c0,0 -11.75799,-11.31875 -14.83047,-17.49053c-3.8134,-7.6601 -8.70021,-29.86582 -8.70021,-29.86582c0,0 4.30564,-14.08207 10.9885,-23.25518c8.43863,-11.58312 24.98225,-22.03602 33.14575,-21.4618c1.66473,0.1171 2.72715,-1.2366 4.03883,-1.40994c2.94133,-0.38867 5.49451,0.03827 7.25697,-0.02818c4.35809,-0.1643 5.65582,1.02811 5.65582,1.02811z" fill="url(#color-14)" stroke="#000000" stroke-width="0" stroke-linecap="butt"/><path d="M333.84659,80.65958c0,0 -11.2215,22.477 -12.50348,30.35122c-1.44165,8.855 -10.39044,20.4529 -12.10448,26.14191c-2.98093,9.89381 -9.29994,27.00842 -9.29994,27.00842c0,0 -10.61608,-10.2195 -13.39016,-15.79188c-3.44305,-6.91617 -7.85526,-26.96532 -7.85526,-26.96532c0,0 3.88747,-12.71444 9.9213,-20.99668c7.6191,-10.45818 22.55605,-19.89593 29.92671,-19.37747c1.50304,0.10573 2.46229,-1.1165 3.6466,-1.273c2.65568,-0.35093 4.96089,0.03455 6.55218,-0.02544c3.93483,-0.14835 5.10654,0.92827 5.10654,0.92827z" fill="url(#color-15)" stroke="#000000" stroke-width="2.5" stroke-linecap="butt"/><path d="M329.43284,85.21392c0,0 -8.76812,17.56279 -9.76981,23.71543c-1.12645,6.919 -8.11874,15.98122 -9.45805,20.42642c-2.32918,7.7307 -7.26667,21.10348 -7.26667,21.10348c0,0 -8.29505,-7.98517 -10.46264,-12.33926c-2.6903,-5.40407 -6.13785,-21.06981 -6.13785,-21.06981c0,0 3.03756,-9.93465 7.75219,-16.40611c5.95331,-8.17169 17.62454,-15.54601 23.38374,-15.14091c1.17443,0.08261 1.92395,-0.8724 2.84931,-0.99468c2.07506,-0.2742 3.87629,0.027 5.11966,-0.01989c3.07457,-0.11592 3.99009,0.72532 3.99009,0.72532z" fill="url(#color-16)" stroke="#000000" stroke-width="2.5" stroke-linecap="butt"/><path d="M325.59676,90.5451c0,0 -5.58793,11.19278 -6.2263,15.11387c-0.71789,4.40949 -5.17408,10.18485 -6.02763,13.01778c-1.4844,4.92679 -6.86852,26.49218 -6.86852,26.49218c0,0 -8.88687,-18.5425 -10.26829,-21.31737c-1.71453,-3.44401 1.92626,-13.01718 1.92626,-13.01718c0,0 1.93583,-6.33136 4.94048,-10.45564c3.79405,-5.20781 11.23214,-9.90749 14.90249,-9.64932c0.74847,0.05265 1.22614,-0.55599 1.81587,-0.63392c1.32244,-0.17474 2.47036,0.01721 3.26276,-0.01268c1.95942,-0.07387 2.54289,0.46224 2.54289,0.46224z" fill="none" stroke="#000000" stroke-width="2.5" stroke-linecap="butt"/><path d="M357.26814,121.91216l12.35798,1.49241" fill="none" stroke="#000000" stroke-width="2.5" stroke-linecap="round"/><path d="M357.87329,119.68502l7.8733,1.02117" fill="none" stroke="#000000" stroke-width="2.5" stroke-linecap="round"/><path d="M359.27471,119.80015l5.7688,-3.07286" fill="none" stroke="#000000" stroke-width="2.5" stroke-linecap="round"/><path d="M355.38608,122.09137l5.41098,7.23523" fill="none" stroke="#000000" stroke-width="2.5" stroke-linecap="round"/><path d="M318.57221,107.27258c-0.20117,2.85987 -0.92682,6.93107 -1.99857,11.1476c-2.31321,9.10069 -6.23877,18.87837 -9.98324,18.61499c-3.91977,-0.27571 -8.55833,-9.36134 -9.08184,-17.54059c-0.20829,-3.25435 2.55158,-5.95536 2.73242,-8.52627c0.63535,-9.0324 15.0656,-20.04943 20.54497,-19.664c5.47937,0.38543 -1.57837,6.93584 -2.21372,15.96824z" fill="#000000" stroke="#000000" stroke-width="2.5" stroke-linecap="butt"/><path d="M316.08391,116.47219c-0.71744,4.61728 -5.09461,7.47851 -8.58379,6.93634c-3.4892,-0.54216 -7.02131,-4.19128 -6.30387,-8.80855c0.71744,-4.61728 5.41277,-8.45425 8.90196,-7.91209c3.4892,0.54216 6.70315,5.16703 5.9857,9.78429z" fill="url(#color-17)" stroke="none" stroke-width="0" stroke-linecap="butt"/><path d="M370.97455,122.03359c-0.05125,1.40447 -1.37667,2.49616 -2.96043,2.43838c-1.58376,-0.05779 -2.8261,-1.24318 -2.77485,-2.64765c0.05125,-1.40447 1.37667,-2.49616 2.96043,-2.43837c1.58376,0.05779 2.82609,1.24318 2.77485,2.64764z" fill="#ffffff" stroke="#000000" stroke-width="2.5" stroke-linecap="butt"/><path d="M307.07793,164.14383l3.10245,-4.34344l14.68495,2.0683l16.33959,-0.62049l11.5825,3.92978l7.23906,-1.44781l2.27513,2.68879z" fill="#000000" stroke="#000000" stroke-width="2.5" stroke-linecap="round"/></g></g></svg>