<svg version="1.1" xmlns="http://www.w3.org/2000/svg" xmlns:xlink="http://www.w3.org/1999/xlink" width="113.20046" height="311.84245" viewBox="0,0,113.20046,311.84245"><defs><linearGradient x1="320.11144" y1="177.46049" x2="320.56146" y2="203.28643" gradientUnits="userSpaceOnUse" id="color-1"><stop offset="0" stop-color="#44bb0a"/><stop offset="1" stop-color="#236a06"/></linearGradient><linearGradient x1="318.26869" y1="38.4543" x2="320.85516" y2="186.88741" gradientUnits="userSpaceOnUse" id="color-2"><stop offset="0" stop-color="#435d00"/><stop offset="1" stop-color="#44d20d"/></linearGradient><linearGradient x1="310.24616" y1="224.97177" x2="311.30803" y2="285.91063" gradientUnits="userSpaceOnUse" id="color-3"><stop offset="0" stop-color="#d6d6d6"/><stop offset="1" stop-color="#4b4b4b"/></linearGradient><linearGradient x1="322.34859" y1="226.65269" x2="323.39975" y2="286.97676" gradientUnits="userSpaceOnUse" id="color-4"><stop offset="0" stop-color="#d6d6d6"/><stop offset="1" stop-color="#4b4b4b"/></linearGradient><linearGradient x1="332.09473" y1="223.43195" x2="333.2223" y2="288.14156" gradientUnits="userSpaceOnUse" id="color-5"><stop offset="0" stop-color="#d6d6d6"/><stop offset="1" stop-color="#4b4b4b"/></linearGradient><linearGradient x1="320.26236" y1="123.68954" x2="321.12632" y2="173.27067" gradientUnits="userSpaceOnUse" id="color-6"><stop offset="0" stop-color="#4a4a4a"/><stop offset="1" stop-color="#bbbbbb"/></linearGradient></defs><g transform="translate(-262.0419,-38.68803)"><g stroke-miterlimit="10"><path d="M272.99403,348.673l-4.82708,-147.21403c0,0 6.58755,-25.8169 16.99649,-26.40357c10.33693,-0.5826 34.84535,-1.56638 56.24677,-2.77261c23.21236,-1.3083 30.91733,25.43988 30.91733,25.43988l2.91482,152.80782z" fill="#000000" stroke="#000000" stroke-width="0" stroke-linecap="butt"/><path d="M339.86731,190.03313c0.12427,7.13164 -8.51926,13.06534 -19.30585,13.2533c-10.78659,0.18796 -19.63161,-5.441 -19.75588,-12.57264c-0.12427,-7.13164 8.51925,-13.06534 19.30585,-13.2533c10.78659,-0.18796 19.63161,5.441 19.75588,12.57264z" fill="url(#color-1)" stroke="#000000" stroke-width="2.5" stroke-linecap="butt"/><path d="M373.02373,129.43613c0.48788,27.99866 -22.70036,56.93778 -52.9484,57.46486c-30.24805,0.52708 -56.10159,-27.55749 -56.58947,-55.55614c-0.48788,-27.99865 23.63751,-51.12332 53.88556,-51.6504c30.24805,-0.52708 55.16444,21.74304 55.65232,49.74169z" fill="#53ff10" stroke="#000000" stroke-width="0" stroke-linecap="butt"/><path d="M264.00278,134.07261l-1.96088,-61.14199l10.65691,4.45884l32.15643,-38.70142l22.55345,24.33056l22.6914,-19.18428l13.41104,32.74682l10.95706,-7.93181l-1.24279,61.94876l-16.41999,-24.22669l-78.66165,2.14479z" fill="#53ff10" stroke="#000000" stroke-width="0" stroke-linecap="round"/><path d="M266.12916,143.30148l-1.78424,-38.37733l107.68007,-1.39827l-1.5696,37.9577z" fill="#53ff10" stroke="none" stroke-width="0" stroke-linecap="butt"/><path d="M264.00278,134.07261l-1.96088,-61.14199l10.65691,4.45884l32.15643,-38.70142l22.55345,24.33056l22.6914,-19.18428l13.41104,32.74682l10.95706,-7.93181l-1.24279,61.94876l-2.18648,-3.22602l-0.58353,14.11152l-104.32623,1.8179l-0.56064,-12.05859z" fill="#53ff10" stroke="#000000" stroke-width="0" stroke-linecap="round"/><path d="M320.07534,186.901c-30.24805,0.52708 -56.10159,-27.55749 -56.58947,-55.55614c-0.03373,-1.93568 0.05017,-3.84805 0.24562,-5.73127l-1.68959,-52.68297l10.65691,4.45884l32.15643,-38.70142l22.55345,24.33056l22.6914,-19.18428l13.41104,32.74682l10.95706,-7.93181l-1.24279,61.94876l-0.19431,-0.28669c-0.01686,27.66423 -23.02313,56.06804 -52.95575,56.58962z" fill="url(#color-2)" stroke="#000000" stroke-width="0" stroke-linecap="butt"/><path d="M350.64623,107.92157c8.23689,-0.14353 14.99,4.08991 15.0835,9.45565c0.0935,5.36575 -6.50802,9.83189 -14.74491,9.97542c-8.23689,0.14353 -14.99,-4.08991 -15.0835,-9.45565c-0.0935,-5.36575 6.50802,-9.83189 14.74491,-9.97542z" fill="#000000" stroke="#000000" stroke-width="2.5" stroke-linecap="butt"/><path d="M334.22306,116.27006c0.15282,2.70453 -6.36513,5.27228 -14.55825,5.73523c-8.19313,0.46296 -14.95883,-1.35419 -15.11166,-4.05872c-0.15282,-2.70453 6.36512,-5.27228 14.55825,-5.73523c8.19313,-0.46296 14.95884,1.3542 15.11167,4.05872z" fill-opacity="0.18431" fill="#000000" stroke="none" stroke-width="0" stroke-linecap="butt"/><path d="M303.95843,117.71533c0.0935,5.36575 -6.50802,9.8319 -14.74491,9.97543c-8.23689,0.14353 -14.99,-4.08992 -15.0835,-9.45566c-0.0935,-5.36575 6.50802,-9.83189 14.74491,-9.97542c8.23689,-0.14353 14.99,4.08991 15.0835,9.45565z" fill="#000000" stroke="#000000" stroke-width="2.5" stroke-linecap="butt"/><path d="M359.21929,117.69588c0.37358,4.14099 -3.49171,7.8077 -8.63336,8.18982c-5.14166,0.38212 -9.61266,-2.66504 -9.98624,-6.80603c-0.37359,-4.141 3.4917,-7.80771 8.63335,-8.18984c5.14166,-0.38212 9.61267,2.66506 9.98625,6.80604z" fill="#ffffff" stroke="#000000" stroke-width="2.5" stroke-linecap="butt"/><path d="M298.58418,118.20644c0.39395,4.14063 -3.73668,7.81197 -9.22601,8.20015c-5.48933,0.38818 -10.25868,-2.65378 -10.65262,-6.79442c-0.39395,-4.14064 3.73668,-7.81198 9.22601,-8.20016c5.48933,-0.38818 10.25868,2.65379 10.65262,6.79443z" fill="#ffffff" stroke="#000000" stroke-width="2.5" stroke-linecap="butt"/><path d="M305.98589,231.80799l4.94626,-6.84818l1.3096,3.50887l2.15898,11.37108l1.2948,6.31937l-1.24142,14.76702l-0.16548,9.70812l-1.40203,3.64977c0,0 -0.47383,8.12158 -3.44099,11.56284c-0.77968,0.90426 -1.20994,-4.67492 -1.20994,-4.67492l-0.73428,-8.98898l1.66524,-6.2661l-3.88497,-34.30626z" fill="url(#color-3)" stroke="#000000" stroke-width="2.5" stroke-linecap="round"/><path d="M320.23056,226.96547l4.55678,11.02005l0.94692,20.04331l0.59073,16.75105c0,0 -1.32555,6.13586 -2.25515,9.27623c-0.0799,0.26991 -1.0864,3.01526 -1.41698,2.93151c-0.11083,-0.02806 -0.04127,-2.36836 -0.04519,-2.59343c-0.05015,-2.87777 -1.05835,-8.93681 -1.05835,-8.93681l-2.33752,-48.75004z" fill="url(#color-4)" stroke="#000000" stroke-width="2.5" stroke-linecap="round"/><path d="M332.4078,224.01673l1.24321,2.97902l0.04841,1.94473l3.14512,9.83046l-1.55904,13.42552l1.82925,19.23114c0,0 -0.19863,9.85383 -3.24682,14.22729c-0.19182,0.27522 -0.66247,2.46522 -0.66502,2.46647c-0.20717,0.10188 -0.47269,-0.16939 -0.58489,-0.35891c-0.60535,-1.02258 -0.39518,-5.14593 -0.39518,-5.14593l-1.72371,-10.79253l-2.5143,-27.00937l0.40981,-12.26647l3.40137,-9.11098z" fill="url(#color-5)" stroke="#000000" stroke-width="2.5" stroke-linecap="round"/><path d="M293.15591,119.26709c0.20373,3.73282 -1.54696,7.00591 -3.91028,7.31062c-2.3633,0.30471 -4.44431,-2.47432 -4.64804,-6.20714c-0.20373,-3.73285 1.54695,-7.00591 3.91028,-7.31063c2.3633,-0.30471 4.44431,2.47433 4.64805,6.20715z" fill="#000000" stroke="#000000" stroke-width="2.5" stroke-linecap="butt"/><path d="M354.68466,119.37559c0.22277,4.01538 -1.70765,7.53709 -4.3117,7.86594c-2.60405,0.32887 -4.89565,-2.65965 -5.11842,-6.67503c-0.22277,-4.01539 1.70765,-7.5371 4.31169,-7.86595c2.60405,-0.32887 4.89566,2.65967 5.11842,6.67504z" fill="#000000" stroke="#000000" stroke-width="2.5" stroke-linecap="butt"/><path d="M268.19518,147.38703l0.02515,-25.67627l7.8561,7.89665l21.74387,9.38738l9.34683,-5.99112l14.14403,7.157l12.64004,-6.83611l16.78814,5.22068l20.81047,-17.05979l-3.31561,26.67873l-6.82553,18.12651l-19.28599,6.06814l-20.68789,6.24189l-16.38672,-5.04988l-23.13015,-3.98477z" fill="url(#color-6)" stroke="#000000" stroke-width="2.5" stroke-linecap="round"/><path d="M367.81474,148.16841l-9.37976,4.10145l-61.40335,1.70005l-28.63425,-7.06202" fill="none" stroke="#000000" stroke-width="2.5" stroke-linecap="round"/><path d="M362.24168,161.37205c-4.20404,5.34764 -8.82538,8.902 -15.04952,10.04731c-4.8813,0.53285 -5.8309,2.74544 -10.83835,2.74345c-0.60212,0.22162 -3.93836,3.07081 -4.63818,2.80007c-0.01942,-0.00752 -2.0382,0.7513 -2.05756,0.74298c-4.39772,-0.0657 -2.53298,1.19498 -6.81422,0.69925c-7.51216,-0.54983 -20.63521,-6.87781 -28.12324,-6.82847c-0.7394,1.4298 -2.08235,4.36851 -4.1094,4.09228c-0.96843,-0.13197 -2.11973,-2.6529 -2.86194,-4.34059c-9.12215,-1.56585 -15.17724,-11.18122 -18.40531,-19.56245l-0.37589,-1.06405c0,0 -0.40766,-1.15547 0.72822,-1.58205c-0.40678,-0.20786 -0.74468,-0.46518 -0.98082,-0.78651c-0.56456,-0.76824 -0.26194,-3.60875 -0.27915,-4.59594c-0.08325,-4.77763 -0.57187,-9.62246 -0.00806,-14.36399c0.16415,-1.38043 0.18699,-4.95761 2.61897,-4.8052c0.81792,0.05126 1.00049,1.3002 1.45029,1.98525c0.84347,1.28462 1.72917,1.9943 3.24622,2.494c0,0 1.182,0.40665 0.77536,1.58865c-0.0203,0.05899 -0.04252,0.11403 -0.06643,0.16534c0.00328,0.03589 0.00364,0.05652 0.00364,0.05652c0.0604,3.74444 0.354,7.75349 0.97343,11.45454c0.22705,1.35662 0.59214,2.70243 0.85364,4.05229c0.03317,0.17122 0.06734,0.42698 0.08537,0.68998c0.91729,-1.35236 3.13646,-3.58563 3.46935,-3.98728c1.80639,-2.62273 4.33137,-9.91854 8.35413,-8.73829c1.86498,0.54717 2.85581,2.84464 3.60655,4.35338c1.35183,2.71671 2.22183,5.56279 3.33809,8.38825c0.36262,0.91785 1.40281,2.42017 1.4954,3.56631c0.53769,-0.96663 2.07614,-1.73013 2.73172,-2.46989c2.81635,-3.17796 5.3289,-6.39403 8.41584,-9.35603c0.84039,-0.80637 2.76632,-3.81012 4.03837,-3.70694c2.05299,0.16654 3.69248,5.62747 4.47496,7.12657c0.84545,2.14035 2.03605,4.00399 3.31519,5.90714c0.51713,0.76941 0.83089,2.70855 1.63602,2.24904c5.19805,-2.96671 10.03843,-8.66036 14.20018,-12.96971c0.60191,-0.44758 1.05637,-1.37552 1.80574,-1.34276c0.85834,0.03752 1.47048,0.91429 2.08677,1.51293c2.24445,2.18021 3.68235,6.3928 5.05865,9.16164c0.4403,0.88578 0.95592,1.7321 1.43516,2.59743c0.25606,0.46235 0.0837,1.96843 0.38908,1.53706c2.255,-3.1854 6.00585,-5.60869 8.40482,-8.94101c2.02798,-2.80447 4.22434,-5.54339 6.12802,-8.41925c1.59789,-2.41391 2.65505,-5.01077 4.5185,-7.26677l0.09582,-0.43997c0,0 0.04695,-0.12359 0.15051,-0.27511c-0.08015,-0.23162 -0.08776,-0.52096 0.05635,-0.87408c0.47231,-1.15733 1.62964,-0.68504 1.62964,-0.68504l0.83871,0.3426c3.59652,1.88673 2.08346,6.55596 1.35313,9.96335c-0.16988,2.65077 0.18636,5.49673 -0.46204,8.09617c-0.62145,2.49139 -3.09578,6.17113 -5.65166,8.27394c0.05138,0.03878 0.10303,0.08291 0.15479,0.13288l-0.00002,0.00003c0.89915,0.86835 0.0308,1.7675 0.0308,1.7675l-0.15473,0.16022c-0.33818,0.34813 -0.67636,0.69626 -1.01454,1.04439c-0.21329,0.3099 -0.43161,0.61825 -0.65431,0.92519c0.22974,2.31902 0.05359,4.83181 -1.40207,6.68346zM271.32566,149.87005l0.35256,1.00066c0.82347,2.15768 1.80076,4.2068 2.96963,6.06494l0.10311,-0.67544c0.44692,-1.92998 0.80976,-3.96233 1.57484,-5.79373c-0.64657,-0.13828 -1.29232,-0.27599 -1.93718,-0.41221c-1.02258,-0.08246 -2.16437,-0.18463 -3.17776,-0.41632c0.0794,0.13179 0.11479,0.2321 0.11479,0.2321zM317.39208,172.70088c1.37117,0.15835 5.4178,0.51718 6.8227,-0.17684c0.23659,-0.11688 2.52658,0.29784 2.76093,0.31564c1.91062,0.1451 -0.83001,-3.25123 1.09948,-3.19c-0.60758,-1.06533 -1.12582,-2.19554 -1.52456,-2.86793c-1.50609,-2.04708 -3.38494,-7.4356 -4.32629,-9.80585c-0.06436,-0.16206 -0.16679,-0.39822 -0.25695,-0.639c-0.10174,0.21 -0.21384,0.41572 -0.28236,0.57014c-0.80746,1.81963 -1.84021,3.41445 -2.78655,5.16942c-0.50922,0.94436 -0.82034,6.5784 -1.48547,8.33931c-0.13103,0.3469 -0.18008,-1.77104 -0.35207,-1.56651c0.13536,0.00914 0.27072,0.01868 0.40607,0.02864zM346.83012,168.94571c1.82787,-0.33868 3.62545,-0.51785 5.35115,-0.86588c-0.66415,-0.83125 -1.38052,-2.05378 -1.59273,-2.41975c-1.40139,-2.4168 -3.07058,-7.79294 -3.9979,-10.42168c-0.13611,-0.38585 -0.33005,-0.75623 -0.48105,-1.11802c-0.69346,1.95152 -2.57889,4.69147 -3.13307,5.77549c-1.55985,3.05117 -2.97971,10.75429 -5.86364,12.43562c3.42768,-0.10746 6.36663,-3.02459 9.71725,-3.38578zM358.24131,165.33594c1.30787,-1.13509 2.71471,-5.57685 2.89399,-7.42575c-1.48549,1.80547 -2.41849,6.44875 -3.90821,8.20641c0.34399,-0.23354 0.68221,-0.49252 1.01421,-0.78066zM358.22094,154.15515c-3.14861,-0.20488 -6.29277,-0.23544 -9.43343,-0.14966c0.90122,2.04208 1.55152,4.23908 2.69874,6.30163c0.40316,0.72483 1.78265,5.79038 2.33203,6.18399c0.3995,0.28622 0.53819,-0.82412 0.84368,-1.20909c0.84526,-1.06514 1.13737,-4.94137 1.9653,-6.03306c1.36272,-1.79687 2.92621,-3.45654 4.34349,-5.21517c-0.70408,0.11767 -2.32495,0.11395 -2.7498,0.12136zM327.27967,155.72617c-0.75186,0.11962 -1.50267,0.21451 -2.25256,0.28752c1.05266,2.04417 2.33222,7.67872 3.60485,9.38313c0.62505,1.04808 1.46281,3.37384 2.42669,4.31441c0.29995,0.00287 0.59994,0.00476 0.89996,0.00565c0.22909,-0.22228 0.45935,-0.52715 0.68686,-0.67692c1.26291,-0.83132 2.62887,-1.28617 3.82009,-2.21736c3.44691,-2.69449 4.49482,-9.07359 6.52624,-12.53999c-5.24418,0.34613 -10.48011,0.91766 -15.71212,1.44356zM297.77785,155.30556c-0.10737,-0.20242 0.06055,0.45977 0.02933,0.68677c-0.05898,0.42888 -0.19518,0.84355 -0.29299,1.26527c-0.21379,0.9218 -0.50128,1.82495 -0.75243,2.73728c-0.57809,2.09999 -0.57456,7.02763 -1.22078,9.09004c4.30381,-0.04767 10.27833,3.50328 14.5937,3.4162c-3.90845,-2.4926 -10.2098,-13.14796 -12.35681,-17.19555zM277.1865,156.82422l-0.1224,0.84957c0,0 -0.15838,1.0643 -1.16872,1.07103c2.47035,3.26324 6.30312,8.61385 10.50163,9.73957c-2.25932,-4.8026 -4.52594,-13.15894 -7.45601,-17.45862c-0.04224,-0.00901 -0.08449,-0.018 -0.12673,-0.02701c-0.88147,1.7575 -1.18567,3.91623 -1.62777,5.82544zM294.48723,153.98257c-1.66354,-0.24747 -3.30934,-0.5622 -4.94583,-0.90923c-2.44492,-0.39145 -4.88807,-0.86077 -7.32413,-1.36046c1.77923,3.41949 2.87951,7.23999 4.58854,10.71277c0.6002,1.2196 1.85207,5.32547 2.49385,6.54415c1.20716,0.06603 2.41517,0.10198 3.62392,0.11599c0.86314,-2.76187 1.10159,-8.37255 1.87377,-11.17343c0.20898,-0.75798 0.38515,-2.75511 0.82816,-3.79328c-0.37997,-0.04428 -0.7594,-0.08977 -1.13828,-0.1365zM291.33302,172.79176c0.1581,-0.32997 0.3906,-0.79909 0.60644,-1.23086c-0.4184,-0.00804 -0.83672,-0.01891 -1.25495,-0.03291c0.19511,0.34315 0.56416,0.88012 0.64852,1.26376zM271.00229,129.02014c-0.00059,-0.0007 -0.00143,-0.00168 -0.0025,-0.00293c-0.11373,1.27477 -0.37624,2.75386 -0.38257,3.08225c-0.07423,3.8502 0.25153,7.73771 0.31873,11.59431c0.00569,0.32657 -0.21257,2.40746 -0.17489,3.06529c0.77688,0.15268 1.55558,0.31066 2.3359,0.47225c0.96165,0.13415 1.92149,0.27326 2.88043,0.42402c-0.15529,-0.84209 -0.24104,-1.64934 -0.32575,-2.06198c-0.98049,-4.77563 -1.59238,-9.6748 -1.6924,-14.56118c-1.09823,-0.47288 -2.20333,-1.11775 -2.95695,-2.01203zM291.56004,139.79513c-0.20858,-0.42347 -1.63991,-3.81909 -2.69983,-3.11522c-2.12126,1.40866 -3.57662,5.78563 -5.02737,7.89453c-1.07251,1.2984 -2.1318,2.76458 -3.42586,3.89468c3.22771,0.67528 6.42542,1.48693 9.66222,2.16751c2.0941,0.33132 4.189,0.60227 6.28085,0.78139c-1.87786,-3.74403 -2.93575,-7.85823 -4.79,-11.62289zM352.39858,150.72881c2.83334,-0.30874 7.11702,-0.01301 9.75039,-1.0264c1.49006,-0.57342 2.77416,-2.24262 3.60747,-3.51725c0.73309,-1.12132 1.80065,-2.18769 2.40453,-3.37767c1.25515,-2.47329 0.57802,-6.18255 0.75813,-8.86202c0.27724,-1.31541 1.56248,-5.61627 0.65779,-6.95324l-0.37936,0.85792c-1.80668,2.17978 -2.81825,4.7251 -4.36795,7.06492c-1.92151,2.9012 -4.13331,5.66351 -6.17893,8.49236c-1.9565,2.69488 -4.28596,5.30211 -6.87655,7.43114c0.20821,-0.03476 0.41636,-0.07132 0.62449,-0.10978zM302.15171,157.03146c2.25268,2.67598 5.03536,7.98626 8.049,9.8151c0.81978,0.29419 2.34168,1.65228 3.06495,1.7137c0.47635,0.04045 1.61965,-1.21564 1.67836,-1.27329c1.89383,-1.8596 2.87609,-7.75467 4.01969,-10.15723c0.10112,-0.21246 0.22623,-0.54717 0.37443,-0.93706c-3.71464,-0.09913 -7.41367,-0.56381 -11.11154,-1.04564c-2.60744,-0.12658 -5.21126,-0.30385 -7.799,-0.53474c0.68239,0.90356 1.30723,1.92394 1.72412,2.41917zM345.56352,150.41327c-1.31093,-2.36167 -2.51521,-4.81222 -3.82904,-7.19293c-0.491,-0.88971 -2.39229,-5.19573 -2.49162,-4.0664c-3.19247,3.3057 -6.57591,6.45018 -9.97611,9.52438c-0.91921,0.83107 -3.20822,3.02097 -4.77729,3.85746c6.72441,-1.56236 13.51681,-0.89812 20.30027,-1.08234c0.24707,-0.34994 0.50421,-0.69698 0.77378,-1.04018zM320.3527,150.79305c-1.68816,-2.33573 -3.2729,-4.83851 -4.33336,-7.52318c-0.69168,-1.32513 -1.24294,-2.67938 -1.93222,-4.00248c-0.11747,-0.22548 -0.32609,-0.59894 -0.47324,-0.93605c-0.27607,0.38618 -0.71742,0.83182 -0.95823,1.09847c-1.3075,1.44786 -2.86094,2.64278 -4.21156,4.04131c-2.64332,2.73709 -4.62294,5.92186 -7.43058,8.30336c2.28062,0.22051 4.56088,0.52626 6.84247,0.83058c4.95938,0.23438 9.93363,0.2889 14.84562,0.25123c-1.11392,-0.20494 -1.70276,-1.16922 -2.34891,-2.06324z" fill="#000000" stroke="none" stroke-width="0.5" stroke-linecap="butt"/><path d="M271.18167,149.59737c1.0134,0.23169 2.19301,0.32521 3.21559,0.40767c0.64485,0.13623 1.31525,0.28586 1.96182,0.42413c-0.76508,1.8314 -1.1464,3.94883 -1.59332,5.87881l-0.10695,0.67647c-1.16887,-1.85814 -2.19045,-3.99332 -3.01391,-6.151l-0.34884,-1.00367c0,0 -0.03499,-0.10061 -0.11439,-0.23238z" fill="#ffffff" stroke="none" stroke-width="0.5" stroke-linecap="butt"/><path d="M295.66592,154.08961c-0.44301,1.03818 -0.61035,3.05607 -0.81931,3.81404c-0.77219,2.80088 -1.03939,8.46587 -1.90253,11.22774c-1.20875,-0.01401 -2.43971,-0.04563 -3.64687,-0.11166c-0.64178,-1.21868 -1.918,-5.33229 -2.5182,-6.55189c-1.70904,-3.47278 -2.8168,-7.37184 -4.59604,-10.79134c2.43607,0.4997 4.9179,0.95557 7.36283,1.34703c1.63649,0.34704 3.31496,0.67799 4.9785,0.92546c0.37887,0.04673 0.76166,0.09634 1.14162,0.14062z" fill="#ffffff" stroke="none" stroke-width="0.5" stroke-linecap="butt"/><path d="M300.38423,154.58738c2.58774,0.23089 5.21833,0.38589 7.82577,0.51247c3.69788,0.48183 7.45966,0.97449 11.1743,1.07362c-0.1482,0.38989 -0.27197,0.72817 -0.3731,0.94062c-1.14359,2.40257 -2.13787,8.34849 -4.0317,10.20809c-0.05871,0.05765 -0.41965,6.40534 -0.89599,6.3649c-0.72327,-0.06142 -3.06801,-6.49659 -3.88779,-6.79079c-3.01364,-1.82883 -5.83786,-7.20709 -8.09055,-9.88307c-0.4169,-0.49523 -1.03854,-1.52228 -1.72092,-2.42585z" fill="#ffffff" stroke="none" stroke-width="0.5" stroke-linecap="butt"/><path d="M343.03252,154.25359c-2.03142,3.4664 -2.91602,12.18043 -6.36294,14.87492c-1.19122,0.9312 -1.9998,3.21814 -3.2627,4.04946c-0.22752,0.14977 -1.23952,-3.6377 -1.46861,-3.41542c-0.30001,-0.00088 -0.60509,-0.00539 -0.90504,-0.00826c-0.96387,-0.94057 -1.82394,-3.29447 -2.44899,-4.34255c-1.27264,-1.70441 -2.54906,-7.37648 -3.60173,-9.42065c0.74988,-0.07301 1.50465,-0.17441 2.25651,-0.29403c5.23202,-0.5259 10.54932,-1.09733 15.7935,-1.44346z" fill="#ffffff" stroke="none" stroke-width="0.5" stroke-linecap="butt"/><path d="M361.01003,154.00286c-1.41728,1.75864 -2.97206,3.46322 -4.33477,5.26009c-0.82793,1.09169 -1.18037,5.00237 -2.02563,6.06751c-0.30549,0.38497 -0.449,1.49383 -0.8485,1.20761c-0.54938,-0.39361 -1.95743,-5.48584 -2.36059,-6.21067c-1.14722,-2.06254 -1.79143,-4.31036 -2.69265,-6.35244c3.14066,-0.08579 6.35331,-0.06553 9.50191,0.13935c0.42486,-0.0074 2.05614,0.00621 2.76022,-0.11147z" fill="#ffffff" stroke="none" stroke-width="0.5" stroke-linecap="butt"/><path d="M351.8043,150.79876c2.59058,-2.12904 4.91158,-4.74145 6.86808,-7.43633c2.04561,-2.82885 4.20027,-5.51084 6.12178,-8.41203c1.5497,-2.33982 2.5665,-4.8806 4.37317,-7.06037l0.43914,-0.93807c0.90469,1.33696 -0.36752,5.65197 -0.64476,6.96739c-0.18011,2.67947 0.49857,6.43831 -0.75658,8.91161c-0.60389,1.18997 -1.68753,2.27427 -2.42062,3.39559c-0.83331,1.27462 -2.13938,2.95208 -3.62944,3.5255c-2.63336,1.0134 -6.95218,0.70874 -9.78552,1.01749c-0.20813,0.03846 -0.35705,-0.00552 -0.56525,0.02923z" fill="#ffffff" stroke="none" stroke-width="0.5" stroke-linecap="butt"/><path d="M344.83292,151.47864c-6.78346,0.18421 -13.66087,-0.47784 -20.38528,1.08454c1.56907,-0.83648 3.85567,-3.03049 4.77488,-3.86156c3.4002,-3.07421 6.85541,-6.28371 10.04788,-9.58942c0.09933,-1.12933 2.02007,3.20132 2.51107,4.09103c1.31383,2.38071 2.51684,4.86862 3.82776,7.23029c-0.26957,0.3432 -0.52924,0.69518 -0.77631,1.04511z" fill="#ffffff" stroke="none" stroke-width="0.5" stroke-linecap="butt"/><path d="M322.74349,152.88361c-4.91199,0.03768 -9.95265,-0.0006 -14.91203,-0.23498c-2.28159,-0.30433 -4.58083,-0.62903 -6.86145,-0.84954c2.80763,-2.3815 4.78937,-5.61894 7.43271,-8.35602c1.35062,-1.39853 2.95265,-2.61489 4.26015,-4.06275c0.24081,-0.26666 0.68725,-0.71127 0.96333,-1.09745c0.14715,0.33711 0.36059,0.71206 0.47806,0.93753c0.68928,1.3231 1.26688,2.69959 1.95856,4.02472c1.06046,2.68467 2.6448,5.23764 4.33296,7.57337c0.64615,0.89402 1.23381,1.86019 2.34774,2.06513z" fill="#ffffff" stroke="none" stroke-width="0.5" stroke-linecap="butt"/><path d="M296.38704,151.45164c-2.09185,-0.17912 -4.21057,-0.43549 -6.30467,-0.76679c-3.2368,-0.68058 -6.49136,-1.51609 -9.71907,-2.19138c1.29407,-1.1301 2.34733,-2.6151 3.41984,-3.91351c1.45075,-2.1089 2.95973,-6.54125 5.08099,-7.94991c1.05993,-0.70386 2.51774,2.70191 2.72632,3.1254c1.85425,3.76466 2.91872,7.95216 4.79659,11.6962z" fill="#ffffff" stroke="none" stroke-width="0.5" stroke-linecap="butt"/><path d="M273.96433,130.98242c0.10001,4.88639 0.72276,9.88269 1.70325,14.65832c0.08472,0.41264 0.16875,1.22043 0.32405,2.06253c-0.95894,-0.15076 -1.93367,-0.28782 -2.89532,-0.42197c-0.78032,-0.1616 -1.57235,-0.32156 -2.34923,-0.47424c-0.03768,-0.65783 0.175,-2.74072 0.16931,-3.06729c-0.0672,-3.85659 -0.3926,-7.83628 -0.31836,-11.68648c0.00633,-0.32839 0.27651,-1.80995 0.39023,-3.08473c0.00107,0.00125 0.00191,0.00222 0.0025,0.00292c0.75362,0.89428 1.87535,1.53806 2.97358,2.01094z" fill="#ffffff" stroke="none" stroke-width="0.5" stroke-linecap="butt"/></g></g></svg>