<svg version="1.1" xmlns="http://www.w3.org/2000/svg" xmlns:xlink="http://www.w3.org/1999/xlink" width="34.17311" height="34.17311" viewBox="0,0,34.17311,34.17311"><g transform="translate(-302.91347,-162.91347)"><g data-paper-data="{&quot;isPaintingLayer&quot;:true}" stroke="none" stroke-miterlimit="10" stroke-dasharray="" stroke-dashoffset="0" style="mix-blend-mode: normal"><path d="M309.98313,162.91348h20.03379c3.9166,0 7.06966,3.15307 7.06966,7.06966v20.03379c0,3.91659 -3.15306,7.06966 -7.06966,7.06966h-20.03379c-3.91659,0 -7.06966,-3.15307 -7.06966,-7.06966v-20.03379c0,-3.91659 3.15307,-7.06966 7.06966,-7.06966z" fill="#804400" fill-rule="evenodd" stroke-width="4.43922" stroke-linecap="round" stroke-linejoin="round"/><path d="M334.01704,191.70021c-0.75,0 -0.75,-0.75 -0.75,-0.75v-0.09259c0,-3.12838 -0.35023,-5.48657 -2.13022,-7.73342l-0.00397,0.04764c-0.48193,1.89523 -1.03981,3.35078 -2.35539,4.81783c-3.03053,2.16783 -10.86692,3.00562 -14.14369,0.82211c-2.29739,-1.53089 -3.80314,-4.32625 -4.6611,-6.88225c-2.67458,0.69177 -2.81547,5.74219 -2.98561,7.96709l0.00221,0.22026c0,0 0,0.75 -0.75,0.75c-0.75,0 -0.75,-0.75 -0.75,-0.75l0.00221,-0.3353c0.24115,-3.11589 0.5557,-7.99697 3.90878,-9.21465c-0.02466,-0.11391 -0.02162,-0.19904 -0.02162,-0.19904c0.0956,-2.67668 0.2611,-5.3514 0.45735,-8.02261c0.03582,-0.48755 0.19986,-3.11578 0.3706,-3.30379c0.22438,-0.24707 2.929,-0.61866 3.4081,-0.69152c3.7729,-0.5738 7.94542,-0.1929 11.73203,0.23157c1.06104,0.11952 5.33179,-0.23181 6.02391,0.51491c0.25063,0.2704 0.53409,2.96036 0.577,3.47705c0.20983,2.52648 0.34648,5.23316 -0.05709,7.73177c-0.06845,0.4238 0.03067,0.92542 -0.02958,1.34986c2.37575,2.67199 2.90609,5.49258 2.90609,9.20249v0.09259c0,0 0,0.75 -0.75,0.75zM330.24597,181.06802c0.14226,-0.14226 0.28452,-0.2082 0.41654,-0.22852c0.10139,-0.49455 -0.1253,-1.10624 -0.077,-1.62986c0.19444,-2.10816 0.04239,-4.40328 -0.13275,-6.512c-0.06863,-0.8264 0.38066,-1.80051 -0.08559,-2.48626c-0.03808,-0.05601 -4.69852,-0.0844 -5.1879,-0.13922c-3.64973,-0.41083 -7.70146,-0.79879 -11.33782,-0.23944c-0.83423,0.12832 -1.95864,-0.41213 -2.52294,0.21554c-0.53641,0.59665 0.07224,1.60676 0.01344,2.40693c-0.1741,2.36901 -0.32386,4.74078 -0.42151,7.11425c3.36861,0.29774 6.75684,0.24897 10.12348,0.64498c2.38021,0.27999 4.76047,0.55752 7.14107,0.83444c0.57038,0.06635 1.30963,0.45815 1.84724,0.40864c0.02486,-0.1243 0.09115,-0.25689 0.22374,-0.38948zM329.65594,182.89321c0.00014,-0.01086 0.00191,-0.08213 0.02384,-0.17671c-0.62723,-0.02408 -1.25033,-0.13011 -1.67419,-0.17724c-2.38403,-0.26506 -4.7647,-0.5549 -7.14691,-0.83511c-3.22766,-0.37968 -6.4746,-0.3521 -9.70632,-0.60966c0.17421,0.15336 0.24286,0.35928 0.24286,0.35928c0.75004,2.26739 2.07249,4.71571 4.07269,6.11132c2.57394,1.79593 9.90553,1.06992 12.30722,-0.69138c1.07674,-1.19062 1.4897,-2.45114 1.88081,-3.9805z" fill="#000000" fill-rule="nonzero" stroke-width="0.5" stroke-linecap="butt" stroke-linejoin="miter"/><path d="M330.06425,181.48461c-0.53761,0.0495 -1.2789,-0.33937 -1.84928,-0.40572c-2.3806,-0.27692 -4.79835,-0.53454 -7.17856,-0.81453c-3.36664,-0.39602 -6.80361,-0.37819 -10.17222,-0.67593c0.09765,-2.37347 0.24607,-4.77958 0.42017,-7.14858c0.0588,-0.80016 -0.54559,-1.81989 -0.00918,-2.41654c0.5643,-0.62767 1.69329,-0.09387 2.52752,-0.22219c3.63636,-0.55935 7.75821,-0.17873 11.40794,0.2321c0.48938,0.05482 5.16219,0.09793 5.20027,0.15394c0.46625,0.68575 0.02122,1.6701 0.08985,2.4965c0.17513,2.10872 0.32594,4.4355 0.1315,6.54367c-0.04829,0.52362 0.17561,1.1414 0.07422,1.63595c-0.13202,0.02033 -0.27517,0.08785 -0.41743,0.23011c-0.13259,0.13259 -0.19995,0.26692 -0.22481,0.39122z" data-paper-data="{&quot;noHover&quot;:false,&quot;origItem&quot;:[&quot;Path&quot;,{&quot;applyMatrix&quot;:true,&quot;segments&quot;:[[[330.24597,181.06802],[-0.13259,0.13259],[0.14226,-0.14226]],[[330.66251,180.8395],[-0.13202,0.02033],[0.10139,-0.49455]],[[330.5855,179.20964],[-0.04829,0.52362],[0.19444,-2.10816]],[[330.45276,172.69764],[0.17513,2.10872],[-0.06863,-0.8264]],[[330.36717,170.21138],[0.46625,0.68575],[-0.03808,-0.05601]],[[325.17927,170.07216],[0.48938,0.05482],[-3.64973,-0.41083]],[[313.84145,169.83272],[3.63636,-0.55935],[-0.83423,0.12832]],[[311.31851,170.04826],[0.5643,-0.62767],[-0.53641,0.59665]],[[311.33195,172.45519],[0.0588,-0.80016],[-0.1741,2.36901]],[[310.91044,179.56944],[0.09765,-2.37347],[3.36861,0.29774]],[[321.03392,180.21442],[-3.36664,-0.39602],[2.38021,0.27999]],[[328.17499,181.04886],[-2.3806,-0.27692],[0.57038,0.06635]],[[330.02223,181.4575],[-0.53761,0.0495],[0.02486,-0.1243]]],&quot;closed&quot;:true}]}" fill="#b2b2b2" fill-rule="nonzero" stroke-width="0.5" stroke-linecap="butt" stroke-linejoin="miter"/></g></g></svg>