<svg version="1.1" xmlns="http://www.w3.org/2000/svg" xmlns:xlink="http://www.w3.org/1999/xlink" width="112.94055" height="313.93902" viewBox="0,0,112.94055,313.93902"><defs><linearGradient x1="320.67243" y1="177.45963" x2="320.29413" y2="203.28672" gradientUnits="userSpaceOnUse" id="color-1"><stop offset="0" stop-color="#44bb0a"/><stop offset="1" stop-color="#236a06"/></linearGradient><linearGradient x1="323.28776" y1="38.46584" x2="321.1135" y2="186.90555" gradientUnits="userSpaceOnUse" id="color-2"><stop offset="0" stop-color="#435d00"/><stop offset="1" stop-color="#44d20d"/></linearGradient><linearGradient x1="309.28881" y1="224.63016" x2="308.39617" y2="285.57173" gradientUnits="userSpaceOnUse" id="color-3"><stop offset="0" stop-color="#d6d6d6"/><stop offset="1" stop-color="#4b4b4b"/></linearGradient><linearGradient x1="321.33112" y1="226.69827" x2="320.44749" y2="287.02503" gradientUnits="userSpaceOnUse" id="color-4"><stop offset="0" stop-color="#d6d6d6"/><stop offset="1" stop-color="#4b4b4b"/></linearGradient><linearGradient x1="331.17551" y1="223.7917" x2="330.22764" y2="288.50419" gradientUnits="userSpaceOnUse" id="color-5"><stop offset="0" stop-color="#d6d6d6"/><stop offset="1" stop-color="#4b4b4b"/></linearGradient><linearGradient x1="322.54739" y1="123.72117" x2="321.82113" y2="173.30451" gradientUnits="userSpaceOnUse" id="color-6"><stop offset="0" stop-color="#4a4a4a"/><stop offset="1" stop-color="#bbbbbb"/></linearGradient></defs><g transform="translate(-265.54964,-38.26936)"><g stroke-miterlimit="10"><path d="M268.08945,347.07332l-0.10429,-147.29312c0,0 7.41197,-25.5924 17.83436,-25.84501c10.35029,-0.25086 34.87766,-0.44829 56.30675,-0.96767c23.24237,-0.56334 30.08572,26.41814 30.08572,26.41814l-1.98635,152.82271z" fill="#000000" stroke="#000000" stroke-width="0" stroke-linecap="butt"/><path d="M340.01501,190.65927c-0.10446,7.13195 -8.93381,12.78546 -19.72088,12.62746c-10.78707,-0.158 -19.44705,-6.06768 -19.34259,-13.19963c0.10446,-7.13195 8.9338,-12.78546 19.72088,-12.62746c10.78707,0.158 19.44705,6.06768 19.34259,13.19963z" fill="url(#color-1)" stroke="#000000" stroke-width="2.5" stroke-linecap="butt"/><path d="M375.09738,131.15656c-0.41013,27.99991 -24.51435,56.18063 -54.76375,55.73756c-30.2494,-0.44307 -55.18913,-29.34218 -54.779,-57.34207c0.41013,-27.9999 25.26459,-50.33912 55.51398,-49.89604c30.2494,0.44307 54.4389,23.50066 54.02878,51.50056z" fill="#53ff10" stroke="#000000" stroke-width="0" stroke-linecap="butt"/><path d="M265.98382,132.29498l0.00061,-61.17342l10.50846,4.79825l33.38083,-37.65045l21.76171,25.04121l23.29486,-18.44684l12.35414,33.15999l11.20575,-7.57641l-3.2285,61.87705l-15.63474,-24.74073l-78.68998,-0.37854z" fill="#53ff10" stroke="#000000" stroke-width="0" stroke-linecap="round"/><path d="M267.81319,141.58729l-0.55278,-38.41481l107.66954,2.05513l-2.78588,37.88785z" fill="#53ff10" stroke="none" stroke-width="0" stroke-linecap="butt"/><path d="M265.98382,132.29498l0.00061,-61.17342l10.50846,4.79825l33.38083,-37.65045l21.76171,25.04121l23.29486,-18.44684l12.35414,33.15999l11.20575,-7.57641l-3.2285,61.87705l-2.08191,-3.29446l-1.03571,14.08555l-104.33088,-1.52818l-0.1737,-12.07037z" fill="#53ff10" stroke="#000000" stroke-width="0" stroke-linecap="round"/><path d="M320.33365,186.89413c-30.2494,-0.44307 -55.18913,-29.34218 -54.779,-57.34207c0.02835,-1.93576 0.17353,-3.84446 0.42927,-5.72045l0.00052,-52.71006l10.50846,4.79825l33.38083,-37.65045l21.76171,25.04121l23.29486,-18.44684l12.35414,33.15999l11.20575,-7.57641l-3.2285,61.87705l-0.18502,-0.29277c-0.90389,27.64947 -24.80907,55.30099 -54.74303,54.86254z" fill="url(#color-2)" stroke="#000000" stroke-width="0" stroke-linecap="butt"/><path d="M353.42123,108.93555c8.23726,0.12065 14.85115,4.56845 14.77256,9.93443c-0.0786,5.36598 -6.81993,9.61816 -15.05718,9.4975c-8.23726,-0.12065 -14.85115,-4.56845 -14.77256,-9.93443c0.0786,-5.36598 6.81993,-9.61816 15.05718,-9.4975z" fill="#000000" stroke="#000000" stroke-width="2.5" stroke-linecap="butt"/><path d="M336.73882,116.75315c0.06603,2.70804 -6.53091,5.06547 -14.73466,5.26548c-8.20376,0.20001 -14.90772,-1.83314 -14.97375,-4.54118c-0.06603,-2.70804 6.5309,-5.06547 14.73466,-5.26548c8.20376,-0.20001 14.90773,1.83315 14.97376,4.54118z" fill-opacity="0.18431" fill="#000000" stroke="none" stroke-width="0" stroke-linecap="butt"/><path d="M306.4434,117.22727c-0.0786,5.36598 -6.81993,9.61817 -15.05718,9.49751c-8.23726,-0.12065 -14.85115,-4.56846 -14.77256,-9.93444c0.0786,-5.36598 6.81993,-9.61816 15.05718,-9.4975c8.23726,0.12065 14.85115,4.56845 14.77256,9.93443z" fill="#000000" stroke="#000000" stroke-width="2.5" stroke-linecap="butt"/><path d="M361.67648,118.97972c0.24061,4.15084 -3.74026,7.69173 -8.89152,7.90878c-5.15127,0.21706 -9.52227,-2.97189 -9.76288,-7.12273c-0.24062,-4.15085 3.74025,-7.69174 8.89151,-7.9088c5.15127,-0.21706 9.52228,2.97191 9.76289,7.12274z" fill="#ffffff" stroke="#000000" stroke-width="2.5" stroke-linecap="butt"/><path d="M301.05617,117.5458c0.26098,4.15114 -3.98525,7.68814 -9.4842,7.9001c-5.49895,0.21197 -10.16832,-2.98135 -10.42929,-7.13249c-0.26098,-4.15115 3.98525,-7.68815 9.4842,-7.90011c5.49895,-0.21197 10.16832,2.98136 10.42929,7.1325z" fill="#ffffff" stroke="#000000" stroke-width="2.5" stroke-linecap="butt"/><path d="M304.81152,231.32626l5.1633,-6.68606l1.19642,3.54905l1.79327,11.43446l1.0915,6.35764l-1.71427,14.71962l-0.47667,9.69782l-1.51834,3.60294c0,0 -0.734,8.10221 -3.80997,11.44656c-0.80828,0.8788 -1.05942,-4.71131 -1.05942,-4.71131l-0.44568,-9.0079l1.8653,-6.20949l-2.78297,-34.41319z" fill="url(#color-3)" stroke="#000000" stroke-width="2.5" stroke-linecap="round"/><path d="M319.20415,226.94297l4.20109,11.1605l0.30376,20.06337l0.05331,16.76138c0,0 -1.52161,6.0902 -2.55142,9.19915c-0.08851,0.26721 -1.18252,2.97887 -1.51025,2.88457c-0.10987,-0.0316 0.03469,-2.36847 0.03799,-2.59354c0.04215,-2.8779 -0.77126,-8.96615 -0.77126,-8.96615l-0.77319,-48.79993z" fill="url(#color-4)" stroke="#000000" stroke-width="2.5" stroke-linecap="round"/><path d="M331.46968,224.38621l1.14705,3.01735l-0.01397,1.94528l2.8283,9.92625l-1.98872,13.36863l1.21168,19.2799c0,0 -0.51449,9.84239 -3.70134,14.11586c-0.20055,0.26893 -0.74117,2.44271 -0.74376,2.44388c-0.21033,0.09519 -0.46702,-0.18446 -0.57308,-0.37748c-0.57225,-1.04146 -0.22997,-5.15595 -0.22997,-5.15595l-1.37677,-10.84225l-1.64697,-27.07611l0.80291,-12.24702l3.69176,-8.99724z" fill="url(#color-5)" stroke="#000000" stroke-width="2.5" stroke-linecap="round"/><path d="M295.14758,117.71203c0.07443,3.31464 -1.57049,6.16619 -3.67404,6.36908c-2.10355,0.20289 -3.86917,-2.31968 -3.9436,-5.63431c-0.07443,-3.31467 1.57048,-6.16619 3.67404,-6.36909c2.10355,-0.20289 3.86917,2.31969 3.94361,5.63432z" fill="#000000" stroke="#000000" stroke-width="2.5" stroke-linecap="butt"/><path d="M356.44969,119.62005c0.08403,3.59766 -1.74355,6.69201 -4.08198,6.91142c-2.33843,0.21942 -4.30226,-2.5192 -4.38628,-6.11686c-0.08403,-3.59767 1.74355,-6.69202 4.08197,-6.91143c2.33843,-0.21942 4.30227,2.51922 4.38628,6.11687z" fill="#000000" stroke="#000000" stroke-width="2.5" stroke-linecap="butt"/><path d="M269.74715,145.73699l0.84843,-25.66226l7.59886,8.14449l21.43169,10.07976l9.53412,-5.68835l13.90727,7.60684l12.85273,-6.4273l16.61211,5.7563l21.34678,-16.38375l-4.16934,26.5587l-7.40323,17.89833l-19.47065,5.44663l-20.87739,5.57534l-16.21637,-5.57271l-22.99048,-4.72437z" fill="url(#color-6)" stroke="#000000" stroke-width="2.5" stroke-linecap="round"/><path d="M369.29043,149.71219l-9.50644,3.79859l-61.42629,-0.26968l-28.39309,-7.97653" fill="none" stroke="#000000" stroke-width="2.5" stroke-linecap="round"/><path d="M363.29687,162.73034c-4.37335,5.21009 -9.10628,8.61444 -15.36395,9.55959c-4.89587,0.37606 -5.91593,2.55706 -10.92074,2.39451c-0.60892,0.2022 -4.03479,2.94295 -4.72558,2.64991c-0.01917,-0.00814 -2.06124,0.68556 -2.08032,0.67662c-4.39335,-0.20668 -2.57,1.11315 -6.83314,0.48039c-7.49067,-0.79042 -20.40407,-7.53592 -27.88983,-7.72671c-0.78487,1.40536 -2.22135,4.2995 -4.2385,3.95841c-0.9637,-0.16295 -2.03358,-2.71951 -2.72129,-4.43012c-9.06725,-1.85754 -14.81092,-11.66212 -17.76859,-20.14255l-0.34157,-1.07556c0,0 -0.3704,-1.16795 0.77857,-1.55788c-0.39991,-0.2208 -0.72938,-0.48881 -0.9551,-0.81756c-0.53964,-0.78595 -0.1461,-3.6153 -0.13164,-4.60253c0.06998,-4.77785 -0.26304,-9.63585 0.45252,-14.35686c0.20833,-1.37446 0.34586,-4.94907 2.7717,-4.71875c0.81585,0.07746 0.95829,1.33161 1.38589,2.03074c0.80185,1.311 1.66433,2.04872 3.16459,2.59681c0,0 1.16836,0.44434 0.72402,1.6127c-0.02218,0.05831 -0.04615,0.11261 -0.0717,0.16313c0.00212,0.03597 0.00182,0.0566 0.00182,0.0566c-0.0597,3.74445 0.10521,7.76085 0.60565,11.47986c0.18343,1.3632 0.50519,2.72003 0.72327,4.07758c0.02766,0.17219 0.05361,0.42892 0.06321,0.69236c0.96018,-1.32225 3.24981,-3.48322 3.59541,-3.87399c1.88956,-2.56346 4.64717,-9.77456 8.63003,-8.46592c1.84647,0.60669 2.76313,2.93474 3.46511,4.46678c1.26402,2.75866 2.04232,5.63118 3.06741,8.49097c0.333,0.92901 1.32449,2.4639 1.38028,3.61242c0.56841,-0.9489 2.13055,-1.66267 2.80951,-2.38103c2.9168,-3.08602 5.53118,-6.21988 8.71151,-9.08137c0.86581,-0.77901 2.88706,-3.71947 4.15515,-3.57555c2.0466,0.23228 3.51014,5.74297 4.24415,7.26639c0.77639,2.16635 1.90662,4.06722 3.12408,6.0104c0.4922,0.78559 0.74361,2.7338 1.56307,2.30034c5.2905,-2.79852 10.31095,-8.33403 14.60874,-12.50772c0.61596,-0.42805 1.09993,-1.34094 1.84787,-1.28417c0.8567,0.06502 1.44041,0.96097 2.03718,1.57907c2.17338,2.25105 3.47547,6.50759 4.76228,9.31913c0.41167,0.89945 0.89989,1.76186 1.35114,2.64211c0.24111,0.47032 0.02054,1.9701 0.33959,1.54875c2.35598,-3.11146 6.1826,-5.41323 8.68719,-8.66692c2.11686,-2.738 4.39991,-5.40509 6.39482,-8.21843c1.67446,-2.36143 2.81435,-4.92306 4.74918,-7.11815l0.10988,-0.43667c0,0 0.05089,-0.12202 0.15925,-0.27015c-0.07268,-0.23407 -0.07101,-0.52351 0.08435,-0.87183c0.50917,-1.1416 1.65077,-0.63243 1.65077,-0.63243l0.82729,0.36932c3.53417,2.00108 1.87217,6.61939 1.03297,10.00161c-0.25479,2.64396 0.01001,5.49988 -0.7214,8.07719c-0.70101,2.47018 -3.29206,6.0687 -5.91406,8.08847c0.05011,0.04041 0.10032,0.08617 0.15045,0.13778l-0.00002,0.00003c0.87084,0.89673 -0.02589,1.76758 -0.02589,1.76758l-0.15979,0.15518c-0.34916,0.33711 -0.69834,0.67421 -1.0475,1.01133c-0.22312,0.3029 -0.45122,0.6041 -0.68364,0.90373c0.15526,2.32519 -0.10137,4.83104 -1.61565,6.63507zM272.7964,148.3191l0.32029,1.01145c0.75386,2.18298 1.66494,4.26238 2.77363,6.15704l0.12471,-0.67179c0.50858,-1.91466 0.93639,-3.93433 1.7598,-5.74025c-0.6418,-0.15894 -1.28281,-0.31728 -1.92296,-0.47411c-1.01941,-0.1152 -2.15733,-0.25393 -3.16277,-0.518c0.07513,0.13426 0.10729,0.23566 0.10729,0.23566zM318.10708,172.61528c1.36538,0.20224 5.39843,0.69063 6.82487,0.04202c0.24022,-0.10923 2.51573,0.3787 2.74939,0.404c1.90498,0.20629 -0.72534,-3.27617 1.2012,-3.15311c-0.57311,-1.08426 -1.05485,-2.23051 -1.43182,-2.91534c-1.43968,-2.09432 -3.14478,-7.54032 -4.00965,-9.93953c-0.05913,-0.16404 -0.15394,-0.40337 -0.23633,-0.64691c-0.10842,0.20663 -0.22706,0.40865 -0.3005,0.56079c-0.86539,1.79281 -1.94875,3.35369 -2.95087,5.07742c-0.53924,0.92754 -1.03085,6.54871 -1.7521,8.28739c-0.14208,0.34252 -0.1232,-1.7759 -0.30166,-1.577c0.135,0.01348 0.26998,0.02735 0.40494,0.04165zM347.65039,169.80595c1.83779,-0.27989 3.64019,-0.40134 5.37616,-0.69386c-0.63716,-0.85212 -1.31396,-2.09699 -1.51432,-2.46957c-1.32318,-2.46049 -2.81913,-7.88738 -3.66168,-10.54451c-0.12367,-0.39001 -0.30563,-0.76643 -0.44496,-1.13287c-0.75568,1.92828 -2.728,4.60637 -3.31665,5.67206c-1.65688,2.99959 -3.323,10.65321 -6.25936,12.24121c3.42936,0.00251 6.46034,-2.8189 9.82081,-3.07247zM359.17145,166.56392c1.3436,-1.09257 2.89213,-5.48694 3.13061,-7.32914c-1.54262,1.75691 -2.62402,6.36788 -4.16933,8.07687c0.3513,-0.22239 0.69765,-0.47039 1.03872,-0.74774zM359.5096,155.38823c-3.14042,-0.30574 -6.28198,-0.43709 -9.42378,-0.45206c0.83528,2.06993 1.4148,4.28665 2.4953,6.38492c0.37971,0.73738 1.59607,5.84456 2.13255,6.25558c0.39011,0.29889 0.56434,-0.80644 0.88202,-1.18142c0.87898,-1.03749 1.29523,-4.90236 2.15773,-5.96694c1.41964,-1.75226 3.03554,-3.36093 4.50847,-5.07321c-0.70749,0.09504 -2.32741,0.03935 -2.75228,0.03312zM328.53387,155.96633c-0.75531,0.09545 -1.50878,0.16622 -2.26062,0.21514c0.98658,2.07687 2.0848,7.74955 3.30214,9.49389c0.59112,1.06758 1.35388,3.41901 2.2871,4.39c0.2997,0.01249 0.59948,0.02399 0.89931,0.0345c0.2361,-0.21482 0.47601,-0.51215 0.70821,-0.65455c1.28891,-0.7904 2.66876,-1.20121 3.88922,-2.09373c3.53153,-2.58258 4.78344,-8.9248 6.92497,-12.32428c-5.25258,0.1778 -10.50415,0.58115 -15.75033,0.93902zM299.06071,154.59999c-0.10083,-0.20576 0.04578,0.46148 0.00729,0.68736c-0.0727,0.42677 -0.22213,0.83686 -0.33341,1.25522c-0.24324,0.91448 -0.55954,1.80794 -0.83982,2.71175c-0.64513,2.08037 -0.7996,7.00559 -1.51162,9.04622c4.30313,0.09035 10.16071,3.83104 14.47666,3.88238c-3.82652,-2.61664 -9.78297,-13.46856 -11.79909,-17.58292zM278.43124,155.45761l-0.14957,0.84521c0,0 -0.19243,1.05868 -1.20246,1.03301c2.36445,3.34077 6.02368,8.81153 10.18394,10.07129c-2.10416,-4.87257 -4.10168,-13.2973 -6.89238,-17.68871c-0.04193,-0.01036 -0.08387,-0.0207 -0.1258,-0.03106c-0.93737,1.72834 -1.31063,3.8762 -1.81372,5.77026zM295.8142,153.17217c-1.65475,-0.30069 -3.28961,-0.66802 -4.91413,-1.06735c-2.43111,-0.46965 -4.85796,-1.01706 -7.27675,-1.5946c1.66867,3.47478 2.64588,7.3286 4.24268,10.85439c0.56079,1.23822 1.68036,5.38212 2.28274,6.62075c1.20443,0.1047 2.41066,0.17937 3.61834,0.23213c0.95126,-2.73277 1.36948,-8.33293 2.23108,-11.10761c0.23317,-0.75089 0.47329,-2.74134 0.94936,-3.76478c-0.37835,-0.05644 -0.75613,-0.11408 -1.13332,-0.17293zM292.05851,171.87055c0.16859,-0.32474 0.41602,-0.78615 0.64559,-1.21078c-0.41793,-0.02145 -0.83568,-0.04572 -1.25325,-0.07313c0.184,0.34923 0.53565,0.89776 0.60766,1.28391zM273.14174,127.46954c-0.00057,-0.00072 -0.00137,-0.00172 -0.00241,-0.00301c-0.15454,1.27047 -0.46434,2.74038 -0.4812,3.0684c-0.19765,3.84584 0.0033,7.7418 -0.0532,11.59856c-0.00478,0.32658 -0.28965,2.39941 -0.27309,3.05811c0.77158,0.17751 1.54482,0.36037 2.31956,0.54691c0.95686,0.16491 1.91174,0.33473 2.86536,0.51616c-0.12821,-0.84664 -0.18803,-1.65622 -0.25947,-2.07136c-0.82686,-4.80462 -1.28135,-9.72088 -1.22464,-14.60796c-1.0825,-0.50785 -2.16636,-1.18783 -2.89092,-2.10581zM293.34342,138.89816c-0.19489,-0.42994 -1.51661,-3.86971 -2.59856,-3.20019c-2.16534,1.33992 -3.7603,5.66798 -5.27792,7.72927c-1.11359,1.26335 -2.21935,2.6948 -3.54898,3.78283c3.2044,0.77842 6.37444,1.69219 9.58775,2.47621c2.0824,0.39829 4.16753,0.73628 6.25256,0.98238c-1.75684,-3.80232 -2.68227,-7.94833 -4.41485,-11.7705zM353.80009,151.77696c2.84178,-0.21773 7.11378,0.2152 9.77828,-0.71324c1.50768,-0.52535 2.84464,-2.15252 3.71839,-3.39977c0.76867,-1.09724 1.86987,-2.12883 2.51159,-3.29883c1.33381,-2.43178 0.77596,-6.16084 1.04189,-8.83316c0.31928,-1.30584 1.74176,-5.56329 0.8804,-6.92857l-0.40667,0.84531c-1.87564,2.12073 -2.96831,4.6323 -4.59224,6.92124c-2.01354,2.83809 -4.31279,5.52807 -6.44805,8.28987c-2.0419,2.63076 -4.45377,5.16195 -7.11129,7.20683c0.20921,-0.02807 0.41843,-0.05794 0.62769,-0.0897zM303.37697,156.46524c2.16572,2.74683 4.77669,8.14361 7.73014,10.06813c0.80993,0.32033 2.2875,1.72652 3.00843,1.8111c0.47481,0.0557 1.65779,-1.16309 1.71832,-1.21882c1.95248,-1.79792 3.12326,-7.65846 4.3433,-10.02312c0.10788,-0.20911 0.24366,-0.53964 0.40428,-0.92457c-3.70955,-0.21818 -7.39178,-0.80123 -11.0723,-1.40138c-2.60204,-0.21012 -5.19884,-0.47079 -7.77784,-0.78454c0.65306,0.92497 1.24487,1.96486 1.64566,2.47321zM346.97867,151.24243c-1.23453,-2.40249 -2.35962,-4.89039 -3.59644,-7.31201c-0.46222,-0.905 -2.22446,-5.26976 -2.35995,-4.1442c-3.29682,3.20164 -6.77935,6.23601 -10.27637,9.19961c-0.94539,0.80117 -3.30344,2.91655 -4.89852,3.70229c6.77105,-1.34595 13.53866,-0.46425 20.32454,-0.43087c0.25816,-0.34184 0.5263,-0.68045 0.80674,-1.01483zM321.76864,150.81364c-1.6124,-2.38866 -3.11607,-4.94097 -4.08991,-7.65826c-0.64884,-1.34663 -1.15639,-2.71786 -1.80289,-4.06238c-0.11018,-0.22913 -0.30672,-0.60909 -0.44298,-0.95074c-0.28831,0.37713 -0.74372,0.80838 -0.99296,1.06718c-1.35326,1.40519 -2.94421,2.54968 -4.33898,3.90419c-2.72973,2.65093 -4.81044,5.77059 -7.693,8.06083c2.27237,0.29352 4.54166,0.67223 6.81232,1.04955c4.94931,0.39328 9.91926,0.60727 14.82993,0.72711c-1.10678,-0.24056 -1.66439,-1.22322 -2.28155,-2.13749z" fill="#000000" stroke="none" stroke-width="0.5" stroke-linecap="butt"/><path d="M272.66122,148.04194c1.00545,0.26406 2.18145,0.39536 3.20087,0.51056c0.64015,0.15683 1.30541,0.32788 1.94721,0.48682c-0.82341,1.80592 -1.27242,3.91004 -1.781,5.8247l-0.12859,0.67269c-1.10869,-1.89466 -2.06128,-4.0615 -2.81514,-6.24448l-0.31648,-1.01434c0,0 -0.03174,-0.10168 -0.10688,-0.23593z" fill="#ffffff" stroke="none" stroke-width="0.5" stroke-linecap="butt"/><path d="M296.98885,153.31695c-0.47607,1.02344 -0.70802,3.03493 -0.94119,3.78581c-0.8616,2.77468 -1.31031,8.42819 -2.26156,11.16096c-1.20768,-0.05276 -2.43699,-0.12383 -3.64141,-0.22854c-0.60237,-1.23864 -1.74604,-5.39105 -2.30683,-6.62927c-1.59681,-3.52579 -2.57898,-7.45837 -4.24766,-10.93316c2.41879,0.57756 4.88474,1.11277 7.31585,1.58242c1.62453,0.39934 3.29151,0.78393 4.94627,1.08462c0.37718,0.05885 0.75818,0.12072 1.13653,0.17715z" fill="#ffffff" stroke="none" stroke-width="0.5" stroke-linecap="butt"/><path d="M301.68877,153.96575c2.579,0.31375 5.20327,0.55302 7.80531,0.76314c3.68053,0.60015 7.42458,1.21318 11.13413,1.43136c-0.16062,0.38494 -0.29518,0.71907 -0.40307,0.92818c-1.22004,2.36467 -2.40446,8.27565 -4.35694,10.07357c-0.06053,0.05574 -0.62481,6.38859 -1.09962,6.33289c-0.72093,-0.08458 -2.85813,-6.59163 -3.66805,-6.91195c-2.95345,-1.92452 -5.60377,-7.39057 -7.76949,-10.13741c-0.40081,-0.50834 -0.98919,-1.55479 -1.64225,-2.47978z" fill="#ffffff" stroke="none" stroke-width="0.5" stroke-linecap="butt"/><path d="M344.32583,154.99962c-2.14153,3.39948 -3.30508,12.08067 -6.83662,14.66324c-1.22046,0.89252 -2.10195,3.15236 -3.39087,3.94276c-0.2322,0.14239 -1.12224,-3.67557 -1.35834,-3.46076c-0.29983,-0.0105 -0.6046,-0.02479 -0.90431,-0.03728c-0.93322,-0.97099 -1.71737,-3.35126 -2.30849,-4.41884c-1.21733,-1.74434 -2.31123,-7.45442 -3.29781,-9.53129c0.75184,-0.04892 1.50947,-0.12608 2.26478,-0.22152c5.24619,-0.35787 10.57908,-0.75851 15.83166,-0.93631z" fill="#ffffff" stroke="none" stroke-width="0.5" stroke-linecap="butt"/><path d="M362.30214,155.32545c-1.47294,1.71229 -3.08158,3.36614 -4.50121,5.1184c-0.8625,1.06458 -1.34016,4.96195 -2.21913,5.99944c-0.31768,0.37498 -0.49667,1.47866 -0.88678,1.17978c-0.53648,-0.41102 -1.78053,-5.54578 -2.16024,-6.28316c-1.0805,-2.09826 -1.6523,-4.36559 -2.48758,-6.43551c3.1418,0.01496 6.35215,0.13822 9.49256,0.44395c0.42487,0.00622 2.05488,0.07213 2.76237,-0.02291z" fill="#ffffff" stroke="none" stroke-width="0.5" stroke-linecap="butt"/><path d="M353.20389,151.82782c2.65751,-2.04488 5.06108,-4.58153 7.10299,-7.21228c2.13527,-2.7618 4.37482,-5.37332 6.38836,-8.21142c1.62393,-2.28893 2.72167,-4.79579 4.59731,-6.91652l0.469,-0.92351c0.86136,1.36528 -0.54856,5.63728 -0.86783,6.94313c-0.26594,2.67232 0.29187,6.45099 -1.04194,8.88277c-0.64173,1.17 -1.75959,2.21899 -2.52825,3.31623c-0.87375,1.24725 -2.23294,2.88197 -3.74061,3.40731c-2.6645,0.92845 -6.97133,0.48546 -9.81311,0.7032c-0.20926,0.03177 -0.35669,-0.01697 -0.56589,0.01109z" fill="#ffffff" stroke="none" stroke-width="0.5" stroke-linecap="butt"/><path d="M346.21429,152.28382c-6.78588,-0.03339 -13.63852,-0.91562 -20.40957,0.43034c1.59509,-0.78574 3.95085,-2.9053 4.89624,-3.70647c3.49702,-2.9636 7.05337,-6.06067 10.35019,-9.26231c0.13549,-1.12557 1.91639,3.26445 2.3786,4.16944c1.23682,2.42161 2.35943,4.94682 3.59396,7.3493c-0.28044,0.33438 -0.55126,0.67785 -0.80942,1.01968z" fill="#ffffff" stroke="none" stroke-width="0.5" stroke-linecap="butt"/><path d="M324.09116,152.97979c-4.91067,-0.11983 -9.94751,-0.31972 -14.89683,-0.713c-2.27066,-0.37733 -4.55831,-0.77558 -6.83068,-1.06911c2.88255,-2.29025 4.96708,-5.46248 7.69681,-8.1134c1.39477,-1.35451 3.03498,-2.51887 4.38823,-3.92406c0.24924,-0.2588 0.70971,-0.68887 0.99802,-1.066c0.13626,0.34165 0.33757,0.72325 0.44775,0.95238c0.6465,1.34452 1.17966,2.73882 1.8285,4.08545c0.97384,2.71729 2.4755,5.31975 4.0879,7.70841c0.61716,0.91428 1.17353,1.89879 2.28031,2.13935z" fill="#ffffff" stroke="none" stroke-width="0.5" stroke-linecap="butt"/><path d="M297.79418,150.70345c-2.08503,-0.2461 -4.19444,-0.57027 -6.27684,-0.96855c-3.21331,-0.78402 -6.43941,-1.72346 -9.64381,-2.50189c1.32964,-1.08802 2.42998,-2.53849 3.54356,-3.80184c1.51762,-2.06129 3.16795,-6.44298 5.33329,-7.7829c1.08195,-0.66952 2.42981,2.78125 2.6247,3.21121c1.73259,3.82218 2.66224,8.04165 4.41909,11.84398z" fill="#ffffff" stroke="none" stroke-width="0.5" stroke-linecap="butt"/><path d="M276.03933,129.52579c-0.05672,4.88708 0.40551,9.90078 1.23237,14.7054c0.07145,0.41514 0.12953,1.22521 0.25775,2.07186c-0.95362,-0.18143 -1.92344,-0.34968 -2.8803,-0.51459c-0.77474,-0.18654 -1.56123,-0.37182 -2.33281,-0.54932c-0.01656,-0.6587 0.26279,-2.7337 0.26757,-3.06028c0.05649,-3.85677 -0.14113,-7.84484 0.05653,-11.69068c0.01686,-0.32802 0.3344,-1.80016 0.48893,-3.07063c0.00103,0.00129 0.00184,0.00228 0.00241,0.003c0.72456,0.91798 1.82507,1.5974 2.90757,2.10525z" fill="#ffffff" stroke="none" stroke-width="0.5" stroke-linecap="butt"/></g></g></svg>