<svg version="1.1" xmlns="http://www.w3.org/2000/svg" xmlns:xlink="http://www.w3.org/1999/xlink" width="185.60034" height="339.61491" viewBox="0,0,185.60034,339.61491"><defs><radialGradient cx="279.69115" cy="95.20639" r="12.80419" gradientUnits="userSpaceOnUse" id="color-1"><stop offset="0" stop-color="#ffffff"/><stop offset="1" stop-color="#1a1a1a"/></radialGradient><radialGradient cx="298.3648" cy="68.58161" r="12.81549" gradientUnits="userSpaceOnUse" id="color-2"><stop offset="0" stop-color="#ffffff"/><stop offset="1" stop-color="#1a1a1a"/></radialGradient></defs><g transform="translate(-215.02812,-14.60433)"><g data-paper-data="{&quot;isPaintingLayer&quot;:true}" fill-rule="nonzero" stroke-width="2" stroke-linejoin="miter" stroke-miterlimit="10" stroke-dasharray="" stroke-dashoffset="0" style="mix-blend-mode: normal"><path d="M316.51129,220.07054c5.75808,-0.29449 13.73354,-1.92951 19.66105,-3.15628c6.46305,-1.3376 14.80513,-0.4167 21.24806,-0.59804c3.78469,-0.10652 15.24518,0.38711 15.24518,0.38711l1.37498,5.96417l3.74125,19.12533l-2.394,22.269c0,0 -1.71726,28.18533 -8.39743,42.49959c-2.92119,6.25955 4.18735,13.50335 -5.24245,17.54505c-3.3392,1.43119 -12.41259,10.19612 -15.89718,10.2942c-5.0551,0.14228 -10.28358,-5.74036 -16.27285,-6.9019c-7.62603,-1.47898 -24.43235,2.43012 -24.43235,2.43012l-7.24771,-7.03386l4.78101,-20.41619c0,0 4.72728,-30.33489 8.65802,-49.93128c1.29163,-6.43926 -0.10416,-27.84695 3.75531,-32.43603z" fill="#3c2c1f" stroke="#000000" stroke-linecap="round"/><path d="M330.72497,326.366l14.88862,-93.85177" fill="none" stroke="#000000" stroke-linecap="round"/><path d="M331.49648,333.29472c-1.60314,10.59996 -3.61359,19.61823 -14.49527,19.92451c-10.88169,0.30627 -24.91081,-18.81539 -24.91081,-18.81539c0,0 11.7241,-19.44123 22.60578,-19.7475c10.88169,-0.30627 18.40343,8.03841 16.8003,18.63839z" fill="#000000" stroke="#000000" stroke-linecap="butt"/><path d="M370.85651,329.0163c-1.60314,10.59998 -6.03193,20.09157 -16.91362,20.39784c-10.88168,0.30627 -24.0956,-8.68875 -22.49247,-19.28873c1.60314,-10.59998 11.7241,-19.44123 22.60578,-19.7475c10.88169,-0.30627 18.40344,8.03841 16.80031,18.63839z" fill="#000000" stroke="#000000" stroke-linecap="butt"/><path d="M330.69608,211.51308c-7.37333,4.33288 -27.73759,1.42242 -27.73759,1.42242l-55.52398,-63.14598l23.04849,-43.84024l20.95142,-3.31903l0.90626,6.7757l-12.6969,10.83206l-9.75074,37.48595c0,0 32.71946,31.85095 48.36049,27.95057c8.08534,-2.01625 12.2493,-21.75797 21.00265,-20.48605c25.95189,3.77097 7.55034,42.00576 -7.31177,46.4843z" fill="#feed00" stroke="#000000" stroke-linecap="round"/><g><path d="M369.39812,197.70137l13.39516,-13.03676l16.7091,22.63854l-2.40279,6.45004l-2.57058,-1.75705l0.85102,5.18205l-2.98528,8.8801l-5.546,-4.64441l-7.61153,5.45844l-6.07747,-12.62421c0,0 -5.0795,3.85415 -9.02458,-2.67035c-3.62838,-6.00077 5.03488,-14.14392 5.03488,-14.14392z" fill="#feed00" stroke="#000000" stroke-linecap="round"/><path d="M389.70482,203.02595l-2.31195,4.07542l-4.56944,-3.18967l-4.05465,-2.57364l3.7487,-7.12l6.78609,-3.82636l0.40126,12.63424z" fill="#ffa600" stroke="none" stroke-linecap="butt"/><path d="M370.7483,209.41788c0,0 -1.61767,3.58399 -3.42689,2.7388c-1.80921,-0.84521 -3.20825,-3.44176 -3.12486,-5.79956c0.0834,-2.3578 1.61767,-3.58399 3.42688,-2.7388c1.80921,0.84521 3.12487,5.79955 3.12487,5.79955z" fill="#ffa600" stroke="none" stroke-linecap="butt"/><path d="M384.01767,222.61828l-3.38394,2.701l-3.08593,-5.7235l3.38394,-2.70101l3.08593,5.7235z" fill="#ffa600" stroke="none" stroke-linecap="butt"/><path d="M393.59755,220.09227l-2.80864,2.91189l-2.51465,-5.39876l2.80864,-2.91189z" fill="#ffa600" stroke="none" stroke-linecap="butt"/><path d="M398.54351,207.35849l-1.94067,3.08593l-1.66279,-4.76935l1.94067,-3.08593z" fill="#ffa600" stroke="none" stroke-linecap="butt"/></g><g><path d="M305.67509,209.37403c3.35039,-0.75612 10.22076,6.07445 7.97758,12.71843c-2.43897,7.22387 -6.99983,3.33418 -8.23241,4.56082c-0.23736,0.2362 3.41203,11.26843 0.86073,13.93153c-4.71511,4.92175 -8.61275,-3.6811 -8.61275,-3.6811l-4.40896,5.73495l-4.83699,-8.02318l-4.35202,-5.53437l1.93173,2.56289l-7.80318,-6.06784l16.01727,-25.36762c0,0 8.06977,6.4199 11.29428,9.47608z" fill="#feed00" stroke="#000000" stroke-linecap="round"/><path d="M289.10015,207.20929l7.45355,2.26641l0.59561,5.78808l-3.4013,3.39042l-3.77051,4.1033l-3.13943,-3.47823l2.2621,-12.06999z" fill="#ffa600" stroke="none" stroke-linecap="butt"/><path d="M308.52398,215.07705c1.58331,-1.21686 3.34666,-0.3519 3.93855,1.93193c0.59188,2.28383 -0.21184,5.12168 -1.79516,6.33853c-1.58331,1.21686 -3.34668,0.35192 -3.93856,-1.93191c-0.59188,-2.28383 0.21184,-5.12168 1.79517,-6.33854z" fill="#ffa600" stroke="none" stroke-linecap="butt"/><path d="M302.46657,231.21083c0,0 3.30445,-0.34904 3.88844,1.90432c0.58399,2.25336 -0.21008,5.05421 -1.77362,6.25585c-1.56353,1.20163 -3.88844,-1.90432 -3.88844,-1.90432z" fill="#ffa600" stroke="none" stroke-linecap="butt"/><path d="M288.01865,230.96848l7.4334,2.52574l-1.28621,5.81514l-3.37245,-2.23477z" fill="#ffa600" stroke="none" stroke-linecap="butt"/><path d="M279.73777,220.40641l2.56274,2.59259l-0.5908,5.01622l-2.56274,-2.59259z" fill="#ffa600" stroke="none" stroke-linecap="butt"/></g><path d="M309.66068,188.98488c-0.95731,6.49133 -7.89458,24.95583 -7.89458,24.95583l-25.2437,-3.23955l6.63006,-22.38694l13.26091,-69.81023c0,0 5.20875,-9.08857 6.57425,-13.99587l1.17324,-0.08358c13.24444,1.18174 25.54877,5.73264 39.14752,2.67367c5.44242,-1.22424 9.27878,-3.5981 12.86904,-7.86335c0.82087,-0.97519 3.24331,-3.36782 4.78866,-2.57235c3.47811,1.79038 8.41728,13.05285 8.41728,13.05285l20.11385,43.53843l5.67946,28.85457l-17.09854,18.17403l-5.23024,3.50168l-5.33841,-38.60894l3.32844,39.88796l2.03586,13.92729c0,0 -9.92494,4.84608 -12.76048,5.47587c-11.47001,2.5475 -23.69245,1.61829 -35.14918,4.20236c-3.72381,0.83989 -8.89502,4.98633 -12.4495,3.54349c-1.89443,-0.76901 -5.62055,-6.62288 -5.81081,-8.35959c-0.83759,-7.64584 -2.98247,-16.29644 -2.30465,-23.95425" fill="#fffe8a" stroke="#000000" stroke-linecap="round"/><path d="M305.27786,114.4912c7.64418,-12.0536 14.96384,-23.86373 25.48263,-33.72653c2.24324,-2.10334 10.29643,-9.2453 13.23904,-5.46233c3.99929,5.14145 2.22529,12.03584 -0.66608,17.28479c-5.21242,9.46264 -21.31263,28.3456 -31.74991,31.62235c-7.42819,2.33207 -11.7916,-4.02386 -6.36965,-9.97173z" fill="#fffe8a" stroke="#000000" stroke-linecap="round"/><g stroke-linecap="butt"><path d="M257.11859,62.81853l16.1187,33.75184l8.11407,12.93352l-1.84338,-1.24662l-14.6127,-10.12126l-35.24842,-27.15054l-13.18044,-11.68178l1.36074,-1.43121l21.97559,1.46016l17.63757,2.74038z" fill="#feed00" stroke="#000000"/><path d="M255.33364,67.7079l12.81556,22.61561l6.11799,8.55226l-1.25093,-0.76191l-9.93584,-6.20675l-24.19176,-16.88209l-9.17168,-7.38044l0.73022,-1.07919l13.81162,-0.27284l11.21405,0.876z" fill="#ffa700" stroke="none"/></g><g stroke-linecap="butt"><path d="M281.08505,35.99093l-4.95872,-14.81437c0,0 0.30242,2.30829 -1.00099,-3.89702c-0.25368,-1.20763 -0.88745,-2.1293 1.01888,-1.43762c2.97485,1.07939 11.92487,9.34238 11.92487,9.34238l24.8911,10.80644l10.80631,10.86526l1.33744,1.37606c0,0 -10.99723,-4.15871 -12.23999,-4.72119c-11.30839,-5.11822 -31.19071,-7.93288 -31.19071,-7.93288z" fill="#feed00" stroke="#000000"/><path d="M285.13997,33.36943l-2.41364,-9.57447l1.69062,2.8768l0.81224,-0.82729l4.14942,-8.27636l17.99768,17.96514c0,0 4.46947,5.04752 6.77167,7.50889c0.28922,0.30923 0.89432,0.6968 0.83592,0.94889c-0.14071,0.60715 -7.37823,-3.33986 -8.20549,-3.77496c-7.52757,-3.95929 -21.19893,-7.0642 -21.19893,-7.0642z" fill="#ffa700" stroke="none"/></g><path d="M265.08654,49.38096l25.86384,-17.64115c0,0 14.14108,4.55846 21.75596,8.78923c2.33874,1.29939 7.3903,2.91087 7.3903,2.91087c0,0 3.94205,14.9087 13.95015,34.66373c4.87176,9.6164 6.24495,0.65746 9.77937,8.85993c2.19497,5.09393 4.24074,27.63573 2.10303,30.55126c-3.84367,5.24224 -13.95955,8.07711 -26.52698,3.98256c-5.85387,-1.90723 -8.24168,-6.6693 -13.27049,-7.75074c-13.93722,-2.99719 -20.04932,2.93306 -20.04932,2.93306l-22.93965,-22.6169l-7.69374,-9.05774l10.07812,-35.70087z" fill="#feed00" stroke="#000000" stroke-linecap="butt"/><path d="M320.93877,48.97072c3.17693,-2.90643 15.48878,-0.91318 15.48878,-0.91318l-2.46384,8.01208l2.75678,0.6304l6.92255,4.88202c0,0 -4.97594,10.42345 -9.15499,10.65113" fill="#feed00" stroke="#000000" stroke-linecap="round"/><path d="M297.22744,117.28269l-9.76052,10.09916l-5.50019,-6.44232l-0.88219,-2.68682l-7.75044,3.19294l-0.52056,-15.50693" fill="#feed00" stroke="#000000" stroke-linecap="round"/><path d="M269.73736,104.09491l-37.50455,15.31889" fill="none" stroke="#000000" stroke-linecap="round"/><path d="M245.99027,125.44143l24.89323,-20.77741" fill="none" stroke="#000000" stroke-linecap="round"/><path d="M270.55121,105.55035l-15.65292,21.86361" fill="none" stroke="#000000" stroke-linecap="round"/><path d="M331.62715,25.21977l-10.23414,20.12165" fill="none" stroke="#000000" stroke-linecap="round"/><path d="M320.2663,47.88202c1.59835,-13.37647 19.80323,-27.2467 19.80323,-27.2467" fill="none" stroke="#000000" stroke-linecap="round"/><path d="M345.16156,29.09488l-21.48777,17.13644" fill="none" stroke="#000000" stroke-linecap="round"/><path d="M299.61661,85.43378c2.50609,-2.74918 4.96648,-5.80626 7.79479,-8.22532c0.35897,-0.30702 0.75221,-1.03687 1.16487,-0.80698c0.54055,0.30114 -1.16092,7.77039 -1.72001,8.29899c-1.25723,1.18869 -5.50516,0.83513 -6.95801,0.42437z" fill="#000000" stroke="#000000" stroke-linecap="round"/><path d="M291.10692,72.5977c5.23091,4.76839 5.66443,12.81017 0.96829,17.96184c-1.22913,1.34836 0.37741,31.38246 -1.63561,31.66648c-5.67809,0.80112 -16.3389,-30.97253 -16.3389,-30.97253c0,0 -5.66443,-12.81016 -0.9683,-17.96182c4.69614,-5.15166 12.7436,-5.46237 17.97452,-0.69398z" fill="url(#color-1)" stroke="#000000" stroke-linecap="butt"/><path d="M309.78871,45.94988c5.23091,4.76839 14.95444,4.46701 10.25831,9.61866c-1.91927,2.10544 -13.06282,13.45964 -15.68059,13.93165c-3.78747,0.68293 -8.49084,-2.07496 -11.58391,-4.89454c-5.23091,-4.76839 -5.66443,-12.81016 -0.9683,-17.96182c4.69614,-5.15166 12.74359,-5.46235 17.9745,-0.69396z" fill="url(#color-2)" stroke="#000000" stroke-linecap="butt"/><path d="M257.51813,66.47433l0.82503,-9.99862l1.19514,-3.94586l-4.8375,2.00554l7.7692,-11.53601l2.86065,-3.14485l-6.52105,1.92617l4.6287,-3.1595l15.43202,-1.16303" fill="#feed00" stroke="#000000" stroke-linecap="butt"/><path d="M260.77305,87.7843l-6.45971,-0.2146l-6.14384,2.16683l2.42181,-7.78911l2.91349,-7.93481" fill="#feed00" stroke="#000000" stroke-linecap="butt"/><path d="M322.29818,145.18467c1.28869,0.3759 4.67793,-0.25296 5.32384,1.22335c2.16632,4.95135 -1.31045,9.98558 -6.24156,9.48854c-3.28359,-0.33097 1.22507,-11.45697 1.22507,-11.45697c0,0 -2.2656,-23.64067 -1.02042,-35.34825" fill="#ffaf36" stroke="#000000" stroke-linecap="round"/><path d="M348.94324,142.87389c8.36653,-11.68333 10.2528,16.95982 -0.30758,10.00642c-5.71768,-3.76475 0.34509,-8.482 0.57271,-11.0402c1.07442,-12.07523 -5.27696,-24.18886 -3.01527,-36.5601" fill="#ffaf36" stroke="#000000" stroke-linecap="round"/><path d="M313.02926,191.24656c3.21208,-3.20216 7.65497,-3.16135 11.76492,-4.28022c13.25602,-3.60876 28.41793,-4.36687 42.10743,-3.6592" fill="none" stroke="#000000" stroke-linecap="round"/><path d="M367.97346,215.08856c-1.07366,-8.83433 1.25216,-27.98395 1.25216,-27.98395" fill="none" stroke="#000000" stroke-linecap="round"/><path d="M313.99018,195.42152c0.92733,8.46507 -2.12186,18.15769 -1.39695,26.6267" fill="none" stroke="#000000" stroke-linecap="round"/><path d="M314.96941,118.43583c-2.44432,1.31858 -5.54499,0.8994 -8.23012,1.7042" fill="none" stroke="#fcec41" stroke-linecap="round"/><path d="M342.09229,85.21973c0.29621,-1.93494 0.68854,-3.63892 1.37676,-5.47478" fill="none" stroke="#fcec41" stroke-linecap="round"/><path d="M330.54514,122.83155l-1.0437,-9.52742" fill="none" stroke="#fcec41" stroke-linecap="round"/><path d="M333.87804,121.05546l-0.53459,-4.8799" fill="none" stroke="#fcec41" stroke-linecap="round"/><path d="M336.80364,115.56132l1.10442,3.64165" fill="none" stroke="#fcec41" stroke-linecap="round"/><path d="M293.28793,213.24829l9.78653,-54.73913l-4.11881,53.61469z" fill="#fce541" stroke="#fcec41" stroke-linecap="round"/><path d="M293.28793,213.24829l9.78653,-54.73913l-4.11881,53.61469z" fill="#fce541" stroke="#fcec41" stroke-linecap="round"/><path d="M375.39515,199.70949l-9.57398,-45.30456l19.18636,38.49797z" fill="#fce541" stroke="#fcec41" stroke-linecap="round"/><path d="M336.29172,85.42302c9.98014,10.69905 13.23437,23.88364 4.53333,32.00001c-8.70104,8.11637 -19.45753,3.2394 -29.43767,-7.45964c-4.47508,-4.79743 -14.39661,-5.26766 -13.9534,-9.3462c0.54524,-5.01727 8.08745,-10.71672 12.88696,-15.19373c3.50878,-3.273 7.21919,-8.01259 10.96825,-9.37925c5.54784,-2.02237 9.04698,2.99425 15.00253,9.37881z" fill="#000000" stroke="#000000" stroke-linecap="butt"/><path d="M308.23269,98.57987c2.00529,2.14973 2.91796,4.55746 2.03853,5.37781c-0.87944,0.82034 -3.21796,-0.25735 -5.22325,-2.40708c-2.00529,-2.14973 -2.91796,-4.55746 -2.03853,-5.37781c0.87944,-0.82034 3.21796,0.25735 5.22325,2.40708z" fill="#ffffff" stroke="#000000" stroke-linecap="butt"/><path d="M312.93145,100.06995c1.93692,2.07645 2.8734,4.35087 2.09167,5.08006c-0.78172,0.72919 -2.98562,-0.36297 -4.92254,-2.43942c-1.93692,-2.07645 -2.8734,-4.35087 -2.09167,-5.08006c0.78172,-0.72919 2.98562,0.36297 4.92254,2.43942z" fill="#ffffff" stroke="#000000" stroke-linecap="butt"/><path d="M316.32177,99.80264c1.54954,1.66116 2.25119,3.52503 1.56719,4.16308c-0.68401,0.63805 -2.49465,-0.19135 -4.04419,-1.85251c-1.54954,-1.66116 -2.25119,-3.52503 -1.56719,-4.16308c0.68401,-0.63805 2.49465,0.19135 4.04419,1.85251z" fill="#ffffff" stroke="#000000" stroke-linecap="butt"/><path d="M320.85025,98.80453c1.57233,1.68559 2.17363,3.6801 1.34305,4.45487c-0.83058,0.77477 -2.77852,0.03641 -4.35084,-1.64918c-1.57233,-1.68559 -2.17363,-3.6801 -1.34305,-4.45487c0.83058,-0.77477 2.77852,-0.03641 4.35084,1.64918z" fill="#ffffff" stroke="#000000" stroke-linecap="butt"/><path d="M325.00143,97.57932c1.34445,1.4413 1.80064,3.20083 1.01891,3.93003c-0.78172,0.72919 -2.50533,0.15192 -3.84978,-1.28938c-1.34445,-1.4413 -1.80064,-3.20084 -1.01891,-3.93003c0.78172,-0.72919 2.50533,-0.15192 3.84978,1.28939z" fill="#ffffff" stroke="#000000" stroke-linecap="butt"/><path d="M327.54942,94.45806c1.36724,1.46572 2.02012,3.07881 1.45826,3.60292c-0.56186,0.52411 -2.12571,-0.23923 -3.49295,-1.70495c-1.36724,-1.46572 -2.02012,-3.07881 -1.45826,-3.60292c0.56186,-0.52411 2.12571,0.23923 3.49295,1.70495z" fill="#ffffff" stroke="#000000" stroke-linecap="butt"/><path d="M328.65855,92.09994c1.50397,1.6123 2.22808,3.38115 1.61736,3.95083c-0.61072,0.56969 -2.32501,-0.27553 -3.82897,-1.88783c-1.50397,-1.6123 -2.22808,-3.38115 -1.61736,-3.95083c0.61072,-0.56969 2.32501,0.27553 3.82897,1.88783z" fill="#ffffff" stroke="#000000" stroke-linecap="butt"/><path d="M329.69704,89.31139c1.54954,1.66116 2.3106,3.46962 1.69988,4.03929c-0.61072,0.56969 -2.36195,-0.31513 -3.91149,-1.97629c-1.54954,-1.66116 -2.3106,-3.46962 -1.69988,-4.03929c0.61072,-0.56969 2.36195,0.31513 3.91149,1.97629z" fill="#ffffff" stroke="#000000" stroke-linecap="butt"/><path d="M328.78443,84.78588c1.84577,1.97873 2.78757,4.10006 2.10357,4.73809c-0.68401,0.63805 -2.7348,-0.44879 -4.58057,-2.42753c-1.84577,-1.97873 -2.78757,-4.10006 -2.10357,-4.73809c0.68401,-0.63805 2.7348,0.44879 4.58057,2.42753z" fill="#ffffff" stroke="#000000" stroke-linecap="butt"/><path d="M326.68681,79.87681c1.50397,1.6123 2.42611,3.19642 2.05968,3.53823c-0.36643,0.34181 -1.88269,-0.68812 -3.38665,-2.30043c-1.50397,-1.6123 -2.42611,-3.19642 -2.05968,-3.53823c0.36643,-0.34181 1.88269,0.68812 3.38665,2.30043z" fill="#ffffff" stroke="#000000" stroke-linecap="butt"/><path d="M328.60709,114.59656c0.05075,1.80327 -0.42245,3.27957 -1.05694,3.29743c-0.63448,0.01786 -1.18998,-1.4295 -1.24073,-3.23276c-0.05075,-1.80327 0.42245,-3.27957 1.05694,-3.29743c0.63448,-0.01786 1.18998,1.4295 1.24073,3.23276z" fill="#ffffff" stroke="#000000" stroke-linecap="butt"/><path d="M331.23171,117.54833c0.03572,1.26897 -0.47675,2.3129 -1.14462,2.3317c-0.66788,0.0188 -1.23824,-0.99467 -1.27396,-2.26362c-0.03572,-1.26897 0.47675,-2.3129 1.14462,-2.3317c0.66788,-0.0188 1.23824,0.99467 1.27396,2.26362z" fill="#ffffff" stroke="#000000" stroke-linecap="butt"/><path d="M334.42012,119.03192c0.04136,1.46933 -0.68311,2.68178 -1.61813,2.7081c-0.93503,0.02632 -1.72653,-1.14348 -1.76789,-2.6128c-0.04136,-1.46933 0.68311,-2.68178 1.61813,-2.7081c0.93503,-0.02632 1.72653,1.14348 1.76789,2.6128z" fill="#ffffff" stroke="#000000" stroke-linecap="butt"/><path d="M337.81126,119.11801c0.04418,1.56951 -0.73214,2.8647 -1.73396,2.8929c-1.00181,0.0282 -1.84975,-1.22128 -1.89393,-2.79079c-0.04418,-1.56951 0.73214,-2.8647 1.73396,-2.8929c1.00181,-0.0282 1.84975,1.22128 1.89393,2.79079z" fill="#ffffff" stroke="#000000" stroke-linecap="butt"/><path d="M339.79559,116.52062c0.04605,1.63629 -0.56631,2.98106 -1.36777,3.00362c-0.80145,0.02256 -1.48849,-1.28564 -1.53455,-2.92193c-0.04605,-1.63629 0.56631,-2.98106 1.36777,-3.00362c0.80145,-0.02256 1.48849,1.28564 1.53455,2.92193z" fill="#ffffff" stroke="#000000" stroke-linecap="butt"/><path d="M342.71672,112.80765c0.05921,2.10381 -0.54249,3.82757 -1.34394,3.85013c-0.80145,0.02256 -1.49916,-1.66463 -1.55837,-3.76844c-0.05921,-2.10381 0.54249,-3.82757 1.34394,-3.85013c0.80145,-0.02256 1.49916,1.66463 1.55837,3.76844z" fill="#ffffff" stroke="#000000" stroke-linecap="butt"/></g></g></svg>