<svg version="1.1" xmlns="http://www.w3.org/2000/svg" xmlns:xlink="http://www.w3.org/1999/xlink" width="34.17311" height="34.17311" viewBox="0,0,34.17311,34.17311"><g transform="translate(-302.91346,-162.91346)"><g data-paper-data="{&quot;isPaintingLayer&quot;:true}" stroke="none" stroke-miterlimit="10" stroke-dasharray="" stroke-dashoffset="0" style="mix-blend-mode: normal"><path d="M309.98312,162.91347h20.03379c3.9166,0 7.06966,3.15307 7.06966,7.06966v20.03379c0,3.91659 -3.15306,7.06966 -7.06966,7.06966h-20.03379c-3.91659,0 -7.06966,-3.15307 -7.06966,-7.06966v-20.03379c0,-3.91659 3.15307,-7.06966 7.06966,-7.06966z" fill="#804400" fill-rule="evenodd" stroke-width="4.43922" stroke-linecap="round" stroke-linejoin="round"/><path d="M317.97875,182.35041c-0.70089,-0.24404 -1.52397,-0.86227 -2.28995,-1.08358c0.28999,4.49085 -1.81777,10.1431 -5.47935,11.14169c0.83466,2.55357 4.90101,0.15971 6.3475,0.15417h0.41111c0,0 0.61667,0 0.61667,0.75c0,0.75 -0.61667,0.75 -0.61667,0.75h-0.41111c-2.51988,-0.01138 -6.47428,2.80089 -7.57062,-1.50657c-0.16025,-0.02531 -0.54883,-0.14807 -0.54883,-0.74343c0,-0.75 0.61667,-0.75 0.61667,-0.75c3.94973,0 5.1427,-5.48862 5.42078,-9.51328c-0.04865,-0.10726 -0.07633,-0.23056 -0.07633,-0.36172c0,-0.16093 0.04168,-0.31002 0.11262,-0.43219c-5.81565,-2.01345 -6.14153,-11.2121 -0.77022,-14.50529c4.30836,-1.97053 11.34343,-1.66584 15.12818,1.98154c2.48927,2.52291 3.44523,9.29026 0.38166,12.06437c-0.75387,0.68264 -3.57763,0.50064 -3.88978,1.13983c0.23727,3.42466 2.30422,7.4976 5.10538,8.64423l0.57076,0.11569c0.29724,0.0537 0.52528,0.36537 0.52528,0.74182c0,0.33738 -0.18316,0.62274 -0.43515,0.71698l-0.60317,0.24453l-0.04195,-0.15304c-1.45724,1.035 -3.75615,2.28316 -4.7342,1.61904c-0.42514,-0.28868 -0.42333,-1.06688 -0.64998,-1.59101c-0.14879,-0.34408 -0.39914,0.6141 -0.64355,0.86465l-0.36105,0.29787c0,0 -0.5131,0.41603 -0.85516,-0.20801c-0.34206,-0.62404 0.17103,-1.04006 0.17103,-1.04006l0.25562,-0.20213c0.41163,-0.41322 1.19063,-1.36253 1.82312,-1.13535c0.50375,0.18094 0.3752,1.26538 0.78891,1.65899c0.48594,0.46232 1.65715,-0.61597 2.63682,-1.16309c-2.54067,-1.76388 -4.48378,-5.44093 -4.70198,-8.92331c-2.04648,1.12712 -4.04032,1.19015 -6.23307,0.42665zM323.9895,180.39186l0.38911,-0.16569c0,0 0.24881,-0.10087 0.47599,0.0263c1.13292,-0.80388 2.44147,-0.12456 3.67511,-1.17322c2.45863,-2.08996 1.40102,-7.81916 -0.44056,-9.68563c-3.37158,-3.3196 -10.00631,-3.5185 -13.85515,-1.76846c-3.29729,1.98328 -4.28852,6.89445 -1.73977,10.31233c0.8043,1.07856 1.74589,1.15639 2.74608,1.75462c3.27273,0.15036 5.32216,2.79628 8.74919,0.69975z" fill="#000000" fill-rule="nonzero" stroke-width="0.5" stroke-linecap="butt" stroke-linejoin="miter"/><path d="M315.20988,179.72573c-1.00019,-0.59823 -1.9493,-0.69042 -2.7536,-1.76898c-2.54874,-3.41788 -1.55141,-8.37995 1.74588,-10.36324c3.84884,-1.75003 10.55238,-1.54133 13.92396,1.77827c1.84158,1.86647 2.89846,7.64108 0.43984,9.73104c-1.23365,1.04866 -2.55224,0.3843 -3.68516,1.18818c-0.22718,-0.12717 -0.47775,-0.02463 -0.47775,-0.02463l-0.39119,0.16745c-3.42703,2.09653 -5.52925,-0.55772 -8.80198,-0.70809z" data-paper-data="{&quot;noHover&quot;:false,&quot;origItem&quot;:[&quot;Path&quot;,{&quot;applyMatrix&quot;:true,&quot;segments&quot;:[[[650.21363,361.92438],[-8.33602,4.19307],[0,0]],[651.16011,361.593],[[652.31793,361.6456],[-0.55261,-0.25434],[2.75576,-1.60775]],[[661.25739,359.29916],[-3.00076,2.09733],[5.98044,-4.17992]],[[660.18575,339.9279],[4.47953,3.73294],[-8.20114,-6.6392]],[[626.48403,336.39098],[9.36205,-3.50007],[-8.02044,3.96657]],[[622.25215,357.01564],[-6.19965,-6.83575],[1.9564,2.15713]],[[628.93181,360.52488],[-2.43289,-1.19646],[7.96069,0.30073]]],&quot;closed&quot;:true}]}" fill="#5eff4a" fill-rule="nonzero" stroke-width="0.5" stroke-linecap="butt" stroke-linejoin="miter"/></g></g></svg>