<svg version="1.1" xmlns="http://www.w3.org/2000/svg" xmlns:xlink="http://www.w3.org/1999/xlink" width="208.17532" height="322.32407" viewBox="0,0,208.17532,322.32407"><g transform="translate(-225.43588,-54.54613)"><g data-paper-data="{&quot;isPaintingLayer&quot;:true}" fill-rule="nonzero" stroke-width="2" stroke-linejoin="miter" stroke-miterlimit="10" stroke-dasharray="" stroke-dashoffset="0" style="mix-blend-mode: normal"><g><path d="M343.40195,256.77849c3.9279,-2.07587 9.59048,-6.65241 13.42746,-6.08767c7.27426,1.07064 14.90302,16.85792 8.60092,28.74185c-1.0323,1.94663 -3.59443,6.08564 -5.15859,4.5569c-0.34161,-0.3339 -0.8805,-3.09758 -1.4394,-2.76103c-0.18355,0.11053 -1.37809,4.3701 -1.69115,4.9717c-1.66965,3.20828 -4.25065,6.27433 -6.81742,6.4258c-2.51722,0.14857 -1.66011,-6.63182 -2.70326,-6.70977c-1.56651,-0.11707 -6.06865,7.23684 -9.2856,1.22792c-1.74065,-3.25135 0.7531,-13.70724 0.58806,-13.99859c-0.85706,-1.51306 -6.29632,1.00599 -6.70163,-6.60772c-0.37275,-7.00253 8.08213,-11.73259 11.10553,-10.10286z" fill="#feed00" stroke="#000000" stroke-linecap="round"/><path d="M358.80402,271.04343c-1.16092,1.62666 -2.58514,2.44762 -3.95954,2.50524c-1.52132,0.06379 -1.55255,-3.21745 -2.52739,-4.9665c-1.01736,-1.82535 -2.72378,-1.81785 -2.3636,-4.18057c0.29674,-1.94656 1.02618,-3.86627 2.13104,-5.41436c2.44592,-3.42716 5.93296,-3.50657 7.78849,-0.17733c1.85554,3.32924 1.37692,8.80636 -1.069,12.23352z" fill="#ffa600" stroke="none" stroke-linecap="butt"/><path d="M339.072,267.74896c-1.18456,2.04035 -3.11561,2.39892 -4.31313,0.80094c-1.19751,-1.59799 -1.208,-4.54745 -0.02344,-6.58779c1.18456,-2.04035 3.11561,-2.39892 4.31313,-0.80095c1.19751,1.59799 1.20802,4.54746 0.02345,6.58779z" fill="#ffa600" stroke="none" stroke-linecap="butt"/><path d="M344.55589,285.64459c-1.16877,2.01313 -3.0749,2.36586 -4.25743,0.78783c-1.18255,-1.57802 -1.19372,-4.48924 -0.02495,-6.50237c1.16877,-2.01313 3.0749,-2.36586 4.25743,-0.78784c1.18255,1.57802 1.19372,4.48924 0.02495,6.50237z" fill="#ffa600" stroke="none" stroke-linecap="butt"/><path d="M354.19585,287.93064c-1.15298,1.98593 -2.8764,2.54331 -3.84938,1.24494c-0.97298,-1.29837 -0.82706,-3.96083 0.32591,-5.94675c1.15298,-1.98593 2.8764,-2.54331 3.84938,-1.24494c0.97298,1.29837 0.82706,3.9608 -0.32591,5.94675z" fill="#ffa600" stroke="none" stroke-linecap="butt"/><path d="M364.55848,279.02966c-1.08979,1.87712 -2.50717,2.68631 -3.16581,1.80742c-0.65862,-0.87891 -0.30911,-3.11306 0.78069,-4.99019c1.08979,-1.87712 2.50717,-2.68631 3.16581,-1.80742c0.65862,0.87891 0.30911,3.11306 -0.78069,4.99019z" fill="#ffa600" stroke="none" stroke-linecap="butt"/></g><path d="M284.2942,265.05799c-8.54513,0.34739 -18.6435,-6.57787 -25.13552,-11.81536c-19.63698,-15.84231 -39.14033,-44.57495 -30.70377,-71.39195c5.70603,-18.13759 24.06504,-24.88242 40.98693,-27.80775c6.41988,-1.10982 19.51549,-2.13496 20.04363,6.94487c0.14054,2.41628 -0.57563,4.70684 -2.39338,6.40338c-3.92696,3.66513 -11.36353,2.11965 -16.30307,3.57136c-14.92547,4.38653 -25.3772,15.85241 -23.23993,31.90722c2.26295,16.99889 17.78158,28.70448 33.41523,32.63431c8.08153,2.03144 17.12621,1.38712 24.24755,6.63357c21.11335,15.55465 -4.67284,26.7023 -19.89187,23.64944z" fill="#feed00" stroke="#000000" stroke-linecap="round"/><path d="M279.21373,258.01838c5.36798,2.03642 13.0054,3.85207 18.68358,5.19201c6.19118,1.46101 13.74597,5.51487 19.72798,7.91484c3.51393,1.40979 11.81437,3.80255 14.01999,6.34722c1.42772,1.64719 0.34839,4.01306 0.28708,5.42827c-0.2279,5.2589 -3.13859,9.94751 -3.40011,15.29807c-0.30891,6.32053 -4.4033,11.2751 -5.88256,17.29042c-2.7653,11.24491 -6.23266,22.40333 -14.76358,31.48379c-3.73051,3.97083 1.6424,12.71497 -7.7353,12.29502c-3.32074,-0.14872 -13.14778,3.44043 -16.38309,2.14242c-4.69346,-1.883 -8.55392,-8.76876 -13.89544,-12.08905c-6.80128,-4.22767 -18.08118,-4.05529 -22.9717,-7.67399c-2.44797,-1.81136 -4.83175,-6.26663 -5.53608,-8.62725c-0.88289,-2.95913 6.38772,-11.88436 7.78231,-14.82889c6.8581,-14.48011 9.36773,-22.97312 16.2294,-37.46694c2.25471,-4.76258 8.19784,-21.00209 12.51979,-23.23374z" fill="#3c2c1f" stroke="#000000" stroke-linecap="round"/><g><path d="M281.6964,237.04774c3.31141,0.9118 6.15268,10.17385 1.04349,14.97703c-5.55513,5.22239 -7.7451,-0.3575 -9.41027,0.14364c-0.32066,0.09649 -5.74496,9.37663 -9.25013,10.52338c-6.47798,2.11934 -4.64909,-6.30707 -5.86212,-7.30516c-0.80778,-0.66464 -4.87457,4.82802 -6.59113,2.98086c-1.75032,-1.88348 -1.49654,-5.88321 -0.48581,-9.35585c0.18953,-0.65117 2.27022,-4.55521 2.21396,-4.76195c-0.17131,-0.62952 -2.47087,0.99539 -2.94855,1.00059c-2.18703,0.02377 -1.17804,-4.73835 -0.57868,-6.85868c3.65897,-12.94435 20.08373,-19.08137 26.0809,-14.82754c3.16336,2.2438 4.09268,9.465 5.49669,13.68003z" fill="#feed00" stroke="#000000" stroke-linecap="round"/><path d="M268.09691,227.32824c3.64202,-1.12362 6.10727,1.34381 5.50629,5.51116c-0.27147,1.88247 -1.0711,3.774 -2.202,5.38589c-1.37269,1.9565 -2.60075,0.77167 -4.5976,1.38774c-1.91339,0.59031 -4.20379,2.94009 -5.25917,1.84254c-0.95349,-0.99157 -1.41538,-2.56921 -1.13012,-4.5472c0.601,-4.16736 4.04059,-8.45651 7.68261,-9.58014z" fill="#ffa600" stroke="none" stroke-linecap="butt"/><path d="M281.52192,243.42035c1.96991,-0.32724 3.11766,1.26657 2.56357,3.55987c-0.55409,2.2933 -2.60018,4.41764 -4.57009,4.74487c-1.96991,0.32724 -3.11768,-1.26656 -2.5636,-3.55985c0.55409,-2.2933 2.60018,-4.41764 4.5701,-4.74486z" fill="#ffa600" stroke="none" stroke-linecap="butt"/><path d="M265.13213,252.62632c1.94528,-0.32313 3.07908,1.24921 2.53238,3.51191c-0.54669,2.2627 -2.56685,4.35895 -4.51214,4.68208c-1.94528,0.32313 -3.07908,-1.24921 -2.53238,-3.51191c0.54669,-2.2627 2.56685,-4.35895 4.51214,-4.68208z" fill="#ffa600" stroke="none" stroke-linecap="butt"/><path d="M255.94763,247.77487c1.60055,-0.26587 2.46086,1.3281 1.92156,3.56023c-0.5393,2.23213 -2.27401,4.25716 -3.87457,4.52304c-1.60055,0.26587 -2.46086,-1.3281 -1.92156,-3.56023c0.5393,-2.23213 2.27401,-4.25716 3.87457,-4.52304z" fill="#ffa600" stroke="none" stroke-linecap="butt"/><path d="M253.62055,234.55689c1.08346,-0.17998 1.54853,1.38447 1.03877,3.49429c-0.50974,2.10982 -1.8013,3.96607 -2.88475,4.14604c-1.08346,0.17998 -1.54853,-1.38447 -1.03877,-3.49429c0.50974,-2.10982 1.80129,-3.96605 2.88475,-4.14604z" fill="#ffa600" stroke="none" stroke-linecap="butt"/></g><path d="M290.28883,220.04127c-3.9031,5.27444 -8.53848,15.87919 -14.19209,19.19247c-4.50891,2.64243 -19.7928,-10.23692 -20.73911,-14.75222c-0.32916,-1.57054 10.31397,-15.51822 11.86628,-17.52249c11.90918,-15.3764 24.63285,-29.42243 37.63683,-43.95775c3.57006,-3.99047 8.8768,-5.56199 12.39352,-9.24692l1.07421,0.47912c11.1251,7.28311 19.83345,17.09495 33.26928,20.8046c5.37721,1.48466 9.87955,1.19854 15.05605,-0.87177c1.18354,-0.47335 4.44761,-1.44225 5.43581,-0.01246c2.22415,3.21805 0.95693,11.62929 1.27374,15.47919c1.3066,15.87726 -0.02469,32.17629 -2.7744,47.87969c-0.805,4.59731 1.11955,12.92875 -1.63258,16.75853c-3.22316,4.48521 -14.01089,7.22849 -19.11462,8.87383c-1.42034,0.45789 -5.64753,2.93659 -6.26321,0.62408c-0.85772,-3.2217 5.02322,-22.66395 5.02322,-22.66395c0,0 -5.27855,15.14241 -7.39874,22.84498c-1.03986,3.77779 -1.63615,10.44619 -4.76688,13.24354c-2.38464,2.13069 -11.03753,-0.40226 -13.83531,-1.18289c-11.31723,-3.15772 -21.6599,-9.73653 -32.98264,-12.85575c-3.68025,-1.01386 -13.63996,-1.96344 -16.09524,-4.91095c-1.30857,-1.57094 1.608,-6.31979 2.25853,-7.94127c2.86396,-7.1385 5.04829,-15.77922 9.25451,-22.21423" fill="#fffe8a" stroke="#000000" stroke-linecap="round"/><path d="M327.02504,148.735c13.96686,2.94103 27.59205,5.66327 40.51302,12.06394c2.75552,1.36501 12.2647,6.40853 9.75117,10.48923c-3.41614,5.54606 -10.4953,6.29775 -16.4243,5.4268c-10.68857,-1.57013 -34.01281,-10.04143 -40.73591,-18.67125c-4.78483,-6.14181 -0.35852,-12.45411 7.11102,-9.45735z" fill="#fffe8a" stroke="#000000" stroke-linecap="round"/><g stroke-linecap="round"><path d="M358.16352,84.26858c-13.40638,0.07538 -19.43223,11.71406 -26.84456,20.84289c-0.8146,1.00324 -7.73636,9.94733 -8.8702,9.30683c-0.47075,-0.26592 0.02378,-1.08227 0.07904,-1.6201c0.43979,-4.28104 0.48586,-8.61399 0.90044,-12.91254c1.03458,-10.72758 3.13041,-21.37968 5.30367,-31.94681c0.62406,-3.03447 1.50729,-10.17848 3.73358,-12.39272c1.42661,-1.4189 1.66817,-0.46215 2.63286,0.50887c4.95702,4.98958 9.67388,10.1894 14.39518,15.39812c3.46715,3.82509 7.95826,7.88149 9.75845,12.81678z" fill="#feed00" stroke="#000000"/><path d="M351.26266,84.48111c-8.8517,0.83393 -12.15155,8.8748 -16.5141,15.33876c-0.47944,0.71038 -4.52871,7.0236 -5.31518,6.66684c-0.32653,-0.14813 -0.04758,-0.71632 -0.04254,-1.07484c0.0401,-2.85372 -0.18288,-5.71873 -0.16046,-8.58256c0.05597,-7.14703 0.81741,-14.30629 1.63495,-21.41391c0.23477,-2.04103 0.40035,-6.81196 1.74149,-8.40488c0.85941,-1.02077 1.07493,-0.40287 1.76901,0.18217c3.5664,3.00612 6.98643,6.16517 10.40994,9.32983c2.51409,2.32402 5.71815,4.74093 7.196,7.89585z" fill="#ffa700" stroke="none"/></g><g stroke-linecap="round"><path d="M390.18909,97.95736c4.57323,-2.58526 10.62265,-2.75507 15.74307,-3.41371c6.9726,-0.89687 13.93603,-1.78987 20.94565,-2.36702c1.36415,-0.11232 2.16901,-0.68324 2.33299,1.32217c0.25591,3.12949 -3.71012,9.1368 -5.20538,11.85003c-5.20705,9.44847 -10.52814,18.91133 -16.70543,27.74265c-2.47525,3.53872 -5.25311,6.86442 -7.69781,10.40618c-0.30713,0.44497 -0.46093,1.38694 -0.99163,1.28359c-1.27822,-0.24892 -0.73668,-11.54556 -0.705,-12.83748c0.28836,-11.75562 3.26062,-24.52026 -6.88766,-33.28087z" fill="#feed00" stroke="#000000"/><path d="M395.62266,102.78997c3.17223,-1.4403 7.17835,-1.19862 10.59937,-1.33421c4.65848,-0.18463 9.31068,-0.36724 13.97491,-0.33848c0.90772,0.00558 1.47278,-0.32446 1.46381,1.00988c-0.01401,2.08227 -2.98529,5.81866 -4.13174,7.52352c-3.99237,5.93699 -8.06093,11.87682 -12.65814,17.34937c-1.84212,2.19286 -3.87165,4.22729 -5.69375,6.42394c-0.22892,0.27596 -0.38562,0.88924 -0.73015,0.78995c-0.82984,-0.2392 0.18869,-7.66997 0.28518,-8.52154c0.87809,-7.74878 3.58816,-16.00708 -2.60329,-22.38785z" fill="#ffa700" stroke="none"/></g><path d="M373.99613,88.16959c9.6878,3.88673 21.66231,7.60909 25.57885,18.05188c3.38791,9.0333 0.68021,14.84207 -0.61721,23.45617c-0.39847,2.64562 0.64466,5.13861 -0.13964,7.94168c-4.7553,16.99522 -20.8651,33.79284 -41.45666,27.98219c-17.24637,-4.86668 -35.43857,-16.10243 -39.05607,-34.20585c-2.25885,-11.30421 6.72593,-21.80644 13.15559,-29.40549c2.4913,-2.94441 3.03883,-7.33459 5.79135,-10.37769c10.77556,-11.91312 23.55132,-8.44056 36.96992,-3.05704z" fill="#feed00" stroke="#000000" stroke-linecap="round"/><path d="M393.88211,140.46883c3.83464,1.95849 12.60051,10.23812 6.27741,14.18909c-1.6452,1.02799 -7.57815,-0.48135 -8.36763,0.49677c-0.59206,0.73353 0.40729,1.86095 0.37454,2.80302c-0.08764,2.52083 -0.88405,5.99778 -2.1498,8.19355c-3.48228,6.04099 -11.50582,-1.01225 -13.18201,-4.84718" fill="#feed00" stroke="#000000" stroke-linecap="round"/><path d="M321.59205,142.17113c-3.86191,1.61306 -14.53544,1.16503 -12.87692,-5.60763c0.60283,-2.46172 2.43038,-5.525 4.10929,-7.40738c0.62746,-0.7035 2.12891,-0.82761 2.20799,-1.76693c0.10548,-1.25255 -5.22553,-4.26229 -5.70404,-6.14231c-1.83906,-7.22563 10.2186,-7.15088 14.34353,-5.91598" fill="#feed00" stroke="#000000" stroke-linecap="round"/><path d="M296.84371,82.03493c13.20861,5.53072 19.18244,19.29993 27.47849,29.76899" fill="none" stroke="#000000" stroke-linecap="round"/><path d="M296.01342,97.03195c10.48045,2.80022 19.40273,10.03938 28.1769,16.04481" fill="none" stroke="#000000" stroke-linecap="round"/><path d="M297.28404,106.06686c8.66978,1.72652 17.74476,3.71311 25.9597,7.00893" fill="none" stroke="#000000" stroke-linecap="round"/><path d="M397.44079,139.62386c10.89899,-4.65768 23.43266,-10.65644 35.1704,-5.96512" fill="none" stroke="#000000" stroke-linecap="round"/><path d="M394.66653,139.4578c13.08962,-3.18537 22.48693,0.9994 32.45505,9.01222" fill="none" stroke="#000000" stroke-linecap="round"/><path d="M397.40562,142.07186c9.26417,0.00957 18.03243,7.24956 23.57419,14.12938" fill="none" stroke="#000000" stroke-linecap="round"/><path d="M352.26215,133.26009c3.45251,1.38515 7.17745,2.6197 10.43353,4.42223c0.41326,0.22879 1.23459,0.34164 1.1637,0.80867c-0.09286,0.61176 -7.68511,1.63264 -8.37599,1.29397c-1.55359,-0.76156 -2.70943,-4.86449 -2.83326,-6.3692z" fill="#000000" stroke="#000000" stroke-linecap="round"/><path d="M360.10478,116.30125c-2.63554,6.56916 -6.57283,3.77794 -13.04246,1.18233c-6.46964,-2.5956 -13.02168,-4.01269 -10.38614,-10.58186c2.63554,-6.56916 10.01674,-9.79037 16.48635,-7.19476c6.46964,2.5956 9.57778,10.02512 6.94224,16.59429z" fill="#ffffff" stroke="#000000" stroke-linecap="butt"/><path d="M392.80863,128.96676c-2.63554,6.56916 -7.31429,4.34024 -13.78391,1.74464c-6.46964,-2.5956 -12.28021,-4.575 -9.64467,-11.14416c2.63554,-6.56916 10.01674,-9.79037 16.48635,-7.19476c6.46964,2.5956 9.57777,10.02512 6.94222,16.59428z" fill="#ffffff" stroke="#000000" stroke-linecap="butt"/><path d="M359.55146,116.52303c-1.88253,4.69226 -5.40317,3.74088 -9.91495,1.93076c-4.51178,-1.81012 -8.3062,-3.79353 -6.42367,-8.48579c1.88253,-4.69226 7.06615,-7.02868 11.57794,-5.21856c4.51178,1.81012 6.64322,7.08134 4.76069,11.77361z" fill="#ffffff" stroke="#000000" stroke-linecap="butt"/><path d="M393.06469,129.53918c-1.88253,4.69226 -5.99652,4.3626 -10.5083,2.55248c-4.51178,-1.81012 -7.71286,-4.41526 -5.83033,-9.10752c1.88253,-4.69226 7.06615,-7.02868 11.57794,-5.21856c4.51178,1.81012 6.64322,7.08134 4.76069,11.77361z" fill="#ffffff" stroke="#000000" stroke-linecap="butt"/><path d="M355.28493,87.18833c1.93399,-3.20709 5.81457,-2.90253 9.65479,-2.7273c0.42532,0.01941 4.0079,0.23034 4.11457,-0.26177c0.19404,-0.89524 -4.94732,-2.25517 -3.57207,-3.82936c1.84711,-2.1143 11.41895,2.39429 13.52579,3.23932c0.30344,0.12171 3.8425,1.69389 3.94727,1.57877c0.44896,-0.49331 -4.80773,-4.82979 -4.08705,-5.43418c0.39389,-0.33036 4.20789,2.88672 4.5799,3.22981c4.87382,4.49485 4.78703,8.5583 6.49157,14.04846" fill="#feed00" stroke="#000000" stroke-linecap="round"/><path d="M336.46273,97.69709c-1.76809,-1.96169 -1.01117,-3.886 -2.06026,-6.12611c-0.53564,-1.14371 -4.86668,-3.53242 -4.18045,-4.99656c0.90261,-1.92581 6.73227,-0.47101 8.14406,-0.45809c0.9939,0.0091 2.78672,-8.16801 8.45265,-0.04853" fill="#feed00" stroke="#000000" stroke-linecap="round"/><path d="M315.11984,198.73128c0.95954,0.93879 4.24525,1.98113 4.11932,3.58763c-0.42233,5.388 -5.86107,8.19007 -9.97623,5.42811c-2.74025,-1.83915 6.47907,-9.52808 6.47907,-9.52808c0,0 9.14117,-21.91922 15.75611,-31.65889" fill="#ffaf36" stroke="#000000" stroke-linecap="round"/><path d="M339.71033,209.24829c12.88469,-6.36268 1.05174,19.79014 -4.98634,8.68099c-3.26919,-6.01479 4.30111,-7.31874 5.7073,-9.46788c6.63753,-10.1444 6.7434,-23.8217 14.56761,-33.66775" fill="#ffaf36" stroke="#000000" stroke-linecap="round"/><path d="M292.19429,223.6234c4.34199,-1.31085 8.24151,0.81864 12.39381,1.76838c13.3926,3.06323 27.12302,9.53888 38.86406,16.61355" fill="none" stroke="#000000" stroke-linecap="round"/><path d="M333.95249,271.44316c3.21575,-8.29802 5.06275,-17.2744 9.76014,-24.99327" fill="none" stroke="#000000" stroke-linecap="round"/><path d="M291.07459,227.7586c-3.17082,7.90336 -5.89709,15.91644 -9.24832,23.72793" fill="none" stroke="#000000" stroke-linecap="round"/><path d="M326.72265,159.19419c-2.09081,-1.82808 -2.78358,-4.87931 -4.47741,-7.1128" fill="none" stroke="#fcec41" stroke-linecap="round"/><path d="M367.33172,172.97328c1.91621,-0.39987 3.64971,-0.62886 5.61033,-0.62685" fill="none" stroke="#fcec41" stroke-linecap="round"/><path d="M332.92671,182.9012l3.56875,-8.89522" fill="none" stroke="#fcec41" stroke-linecap="round"/><path d="M338.53121,178.34904l-1.8279,4.5561" fill="none" stroke="#fcec41" stroke-linecap="round"/><path d="M341.13078,183.17016l0.74183,-3.73243" fill="none" stroke="#fcec41" stroke-linecap="round"/><path d="M268.94505,234.62809l25.96437,-29.76431l-20.43545,31.44316z" fill="#fce541" stroke="#fcec41" stroke-linecap="round"/><path d="M268.94505,234.62809l25.96437,-29.76431l-20.43545,31.44316z" fill="#fce541" stroke="#fcec41" stroke-linecap="round"/><path d="M347.74524,261.37555l4.44232,-30.56546l2.71296,28.19051z" fill="#fce541" stroke="#fcec41" stroke-linecap="round"/><path d="M271.11868,348.84744l29.22544,-70.97147" fill="none" stroke="#000000" stroke-linecap="round"/><path d="M270.23944,357.51615c-3.22837,8.04681 -14.03576,11.28411 -24.13897,7.23073c-10.10322,-4.0534 -15.67638,-13.86254 -12.448,-21.90936c3.22837,-8.04681 14.03576,-11.28411 24.13897,-7.23073c10.10322,4.0534 15.67638,13.86254 12.448,21.90936z" fill="#000000" stroke="#000000" stroke-linecap="butt"/><path d="M307.75613,366.89183c-3.22837,8.04682 -14.03576,11.28411 -24.13898,7.23071c-10.10321,-4.05339 -15.67638,-13.86254 -12.448,-21.90936c3.22837,-8.04682 14.03576,-11.28411 24.13897,-7.23073c10.10322,4.0534 15.67639,13.86254 12.44801,21.90937z" fill="#000000" stroke="#000000" stroke-linecap="butt"/><path d="M340.3364,153.13402l2.50064,-6.23295l17.99852,7.22098l-2.50064,6.23295c0,0 -3.55871,-7.44622 -6.57492,-8.65632c-2.98293,-1.19675 -11.42361,1.43534 -11.42361,1.43534z" fill="none" stroke="#000000" stroke-linecap="butt"/></g></g></svg>