<svg version="1.1" xmlns="http://www.w3.org/2000/svg" xmlns:xlink="http://www.w3.org/1999/xlink" width="175.23138" height="370.86157" viewBox="0,0,175.23138,370.86157"><defs><linearGradient x1="324.86141" y1="129.40455" x2="319.13014" y2="343.08399" gradientUnits="userSpaceOnUse" id="color-1"><stop offset="0" stop-color="#2982c1"/><stop offset="1" stop-color="#000000"/></linearGradient><radialGradient cx="326.39971" cy="143.24079" r="17.40649" gradientUnits="userSpaceOnUse" id="color-2"><stop offset="0" stop-color="#922fd5"/><stop offset="1" stop-color="#7520a6"/></radialGradient><linearGradient x1="395.24733" y1="92.0619" x2="353.19075" y2="96.40561" gradientUnits="userSpaceOnUse" id="color-3"><stop offset="0" stop-color="#a636f3"/><stop offset="1" stop-color="#581b7d"/></linearGradient><linearGradient x1="231.21886" y1="114.03959" x2="273.2754" y2="109.69589" gradientUnits="userSpaceOnUse" id="color-4"><stop offset="0" stop-color="#a636f3"/><stop offset="1" stop-color="#581b7d"/></linearGradient><linearGradient x1="312.0386" y1="27.32068" x2="312.0386" y2="145.26533" gradientUnits="userSpaceOnUse" id="color-5"><stop offset="0" stop-color="#4c166c"/><stop offset="1" stop-color="#a636f3"/></linearGradient><radialGradient cx="269.46608" cy="56.18942" r="27.67334" gradientUnits="userSpaceOnUse" id="color-6"><stop offset="0" stop-color="#000000" stop-opacity="0.92549"/><stop offset="1" stop-color="#000000" stop-opacity="0"/></radialGradient><linearGradient x1="217.80254" y1="34.47575" x2="287.94741" y2="35.27164" gradientUnits="userSpaceOnUse" id="color-7"><stop offset="0" stop-color="#a636f3"/><stop offset="1" stop-color="#16031b"/></linearGradient><radialGradient cx="345.92129" cy="42.56074" r="27.1508" gradientUnits="userSpaceOnUse" id="color-8"><stop offset="0" stop-color="#000000" stop-opacity="0.92549"/><stop offset="1" stop-color="#000000" stop-opacity="0"/></radialGradient><linearGradient x1="391.67381" y1="13.66734" x2="323.0635" y2="28.79422" gradientUnits="userSpaceOnUse" id="color-9"><stop offset="0" stop-color="#a636f3"/><stop offset="1" stop-color="#16031b"/></linearGradient><radialGradient cx="279.56798" cy="79.9205" r="4.14909" gradientUnits="userSpaceOnUse" id="color-10"><stop offset="0" stop-color="#ffffff"/><stop offset="1" stop-color="#ffffff" stop-opacity="0"/></radialGradient><radialGradient cx="278.76381" cy="78.90716" r="2.44577" gradientUnits="userSpaceOnUse" id="color-11"><stop offset="0" stop-color="#ffffff"/><stop offset="1" stop-color="#ffffff" stop-opacity="0"/></radialGradient><radialGradient cx="280.62379" cy="81.01346" r="2.44577" gradientUnits="userSpaceOnUse" id="color-12"><stop offset="0" stop-color="#ffffff"/><stop offset="1" stop-color="#ffffff" stop-opacity="0"/></radialGradient><radialGradient cx="339.70128" cy="69.53627" r="4.14909" gradientUnits="userSpaceOnUse" id="color-13"><stop offset="0" stop-color="#ffffff"/><stop offset="1" stop-color="#ffffff" stop-opacity="0"/></radialGradient><radialGradient cx="340.50547" cy="68.52291" r="2.44577" gradientUnits="userSpaceOnUse" id="color-14"><stop offset="0" stop-color="#ffffff"/><stop offset="1" stop-color="#ffffff" stop-opacity="0"/></radialGradient><radialGradient cx="338.64549" cy="70.62923" r="2.44577" gradientUnits="userSpaceOnUse" id="color-15"><stop offset="0" stop-color="#ffffff"/><stop offset="1" stop-color="#ffffff" stop-opacity="0"/></radialGradient></defs><g transform="translate(-218.25119,27.77758)"><g stroke-miterlimit="10"><path d="M272.73249,338.73664c0,0 0.64271,-43.06643 1.27149,-85.19863c0.10093,-6.76259 -6.14501,-32.12455 -6.14501,-32.12455c0,0 6.60035,1.61241 6.67405,-3.32532c0.05392,-3.61356 -7.49662,-35.44295 -7.49662,-35.44295c0,0 8.01812,0.49796 8.10031,-5.00887c0.06462,-4.33033 -7.48238,-30.44542 -7.48238,-30.44542l7.70417,2.65914c0,0 7.33747,-17.77883 16.99458,-18.26299c9.59031,-0.4808 32.30937,-1.14585 52.16502,-2.14132c21.53577,-1.07969 25.60963,12.75968 25.60963,12.75968l8.66576,-0.89187l-6.69428,36.35392l4.442,6.6077l-5.49605,29.18955l3.93964,9.5739c0,0 -4.845,21.17406 -5.05763,28.39494c-1.32055,44.84805 -2.69864,91.65044 -2.69864,91.65044z" fill="url(#color-1)" stroke="#000000" stroke-width="0" stroke-linecap="butt"/><path d="M349.85029,143.48213c-0.54363,10.17856 -11.34742,18.08658 -24.13095,17.66306c-12.78352,-0.42352 -22.70592,-9.01819 -22.16229,-19.19677c0.54363,-10.17856 11.3474,-18.08658 24.13093,-17.66306c12.78352,0.42352 22.70593,9.0182 22.1623,19.19677z" fill="#f2f2f2" stroke="#000000" stroke-width="0" stroke-linecap="butt"/><path d="M343.79018,143.81697c-0.40844,7.64734 -8.52553,13.58878 -18.13003,13.27058c-9.6045,-0.3182 -17.05936,-6.77553 -16.65093,-14.42288c0.40844,-7.64734 8.52552,-13.58878 18.13002,-13.27058c9.6045,0.3182 17.05937,6.77554 16.65094,14.42288z" fill="url(#color-2)" stroke="#000000" stroke-width="0" stroke-linecap="butt"/><path d="M292.50093,218.55073l25.88171,-14.41838l20.5576,14.80807l16.26392,-7.40404" fill="none" stroke="#ffffff" stroke-width="1.5" stroke-linecap="round"/><path d="M292.04398,226.86272l25.88171,-14.41838l20.55761,14.80807l16.26392,-7.40404" fill="none" stroke="#ffffff" stroke-width="1.5" stroke-linecap="round"/><path d="M291.24825,234.78504l25.88171,-14.41838l20.55761,14.80807l16.26392,-7.40404" fill="none" stroke="#ffffff" stroke-width="1.5" stroke-linecap="round"/><path d="M375.72471,238.15793l2.66009,0.86718l-0.64084,4.70735l-2.66008,-0.86718l0.64084,-4.70735z" fill-opacity="0.23137" fill="#000000" stroke="none" stroke-width="0" stroke-linecap="butt"/><path d="M369.54735,61.22806c5.14927,-0.06598 8.40168,-3.03176 12.94281,-4.69021c0.69162,-0.25259 4.42919,-2.5107 5.02617,-1.89558c0.46031,0.4743 -0.81626,4.15167 -0.95255,4.78344c-0.46404,2.15092 -4.90278,14.02426 -4.68997,14.86784c0.78479,3.111 9.55088,-2.82191 11.15527,-1.59846c1.4696,1.12065 -1.06485,5.87441 -1.50353,6.92721c-1.24115,2.97859 -7.00961,18.24102 -6.68221,20.49445c0.52109,3.58651 5.49207,7.14926 4.40234,12.07544c-0.53473,2.41733 -2.80689,-0.82084 -3.78203,-0.29064c-0.99313,0.54 -0.20845,5.06899 -0.10613,6.0306c0.41702,3.91927 0.81281,8.31473 0.46286,12.27823c-0.03604,0.40827 0.0849,1.00893 -0.22959,1.20211c-0.78334,0.48117 -10.91476,-8.45444 -12.4966,-9.42759c-7.70039,-4.73726 -15.53092,-12.5495 -18.6522,-22.50249c-4.71545,-15.03641 -1.99258,-37.32168 14.77993,-37.53952z" fill="url(#color-3)" stroke="#000000" stroke-width="0" stroke-linecap="round"/><path d="M250.98295,79.19132c16.48347,-3.21692 23.40587,18.07216 21.65312,33.77661c-1.1602,10.39519 -7.34539,19.65501 -13.98987,25.87385c-1.36492,1.2775 -9.59126,12.10915 -10.45098,11.79768c-0.34517,-0.12505 -0.34123,-0.7386 -0.45449,-1.13146c-1.0995,-3.81379 -1.55039,-8.20355 -1.8896,-12.13086c-0.08323,-0.96359 -0.17838,-5.56379 -1.255,-5.89001c-1.05709,-0.32033 -2.66644,3.31875 -3.652,1.05843c-2.00841,-4.60618 2.18461,-9.11543 2.01095,-12.73782c-0.10912,-2.27599 -8.67673,-16.05773 -10.4619,-18.72376c-0.63098,-0.94233 -4.02271,-5.08401 -2.79597,-6.48315c1.33926,-1.52748 11.06485,2.49557 11.24045,-0.71462c0.04761,-0.87049 -6.56967,-11.60194 -7.43508,-13.61555c-0.25418,-0.59144 -2.20742,-3.93522 -1.84672,-4.49431c0.46782,-0.7251 4.56268,0.72407 5.28886,0.83022c4.76812,0.69698 8.52246,2.93908 13.5828,1.95058z" fill="url(#color-4)" stroke="#000000" stroke-width="0" stroke-linecap="round"/><path d="M370.66437,82.72899c0.96024,31.63648 -24.13123,61.45452 -56.50946,62.5077c-32.37823,1.05318 -59.78223,-27.05732 -60.74246,-58.6938c-0.96024,-31.63647 24.50908,-58.1367 56.88731,-59.18986c32.37823,-1.05318 59.4044,23.73949 60.36463,55.37596z" fill="url(#color-5)" stroke="#000000" stroke-width="0" stroke-linecap="butt"/><path d="M326.74944,74.54398c0.30261,2.98634 -6.53653,6.17659 -15.27568,7.12564c-8.73915,0.94905 -16.06895,-0.70251 -16.37156,-3.68885c-0.30261,-2.98634 6.53654,-6.17659 15.27569,-7.12564c8.73915,-0.94905 16.06895,0.70251 16.37158,3.68885z" fill-opacity="0.23137" fill="#000000" stroke="none" stroke-width="0" stroke-linecap="butt"/><path d="M277.19588,78.05814c-12.38704,8.48605 -25.88946,5.57439 -30.1585,-6.50338c-4.26904,-12.07777 2.3119,-28.74803 14.69894,-37.23408c12.38704,-8.48605 25.88946,-5.57439 30.1585,6.50338c4.26904,12.07777 -2.3119,28.74802 -14.69892,37.23408z" fill="url(#color-6)" stroke="#000000" stroke-width="0" stroke-linecap="butt"/><path d="M283.99219,52.51598l-13.50661,15.15886l-13.04826,9.62759l-17.27264,-1.28373l-19.5638,-41.55169l-2.34969,-42.36316l30.44072,41.80461l39.25746,1.18381z" fill="url(#color-7)" stroke="#000000" stroke-width="0" stroke-linecap="round"/><path d="M321.4727,32.28337c1.84431,-12.47278 14.28544,-17.98265 27.78802,-12.30662c13.50258,5.67602 22.95347,20.38854 21.10914,32.86132c-1.84431,12.47278 -14.28545,17.98265 -27.78803,12.30662c-13.50258,-5.67602 -22.95346,-20.38854 -21.10913,-32.86131z" fill="url(#color-8)" stroke="#000000" stroke-width="0" stroke-linecap="butt"/><path d="M323.02738,28.61876l38.25769,-9.18976l21.86216,-47.20658l5.78175,42.00868l-11.24792,44.734l-16.68717,4.79119l-14.6285,-6.76906l-16.13348,-12.09757z" fill="url(#color-9)" stroke="#000000" stroke-width="0" stroke-linecap="round"/><path d="M298.82358,43.18629c0,0 -1.19244,1.06254 -2.58644,2.04647c-1.08065,0.76276 -2.28246,1.47827 -3.14374,1.61487c-0.80203,0.1272 -2.0061,-0.22529 -3.09655,-0.65628c-1.36368,-0.53899 -2.54972,-1.20076 -2.54972,-1.20076" fill="none" stroke-opacity="0.40392" stroke="#000000" stroke-width="2.5" stroke-linecap="round"/><path d="M330.52032,40.96297c0,0 -1.41347,0.71538 -3.00271,1.30182c-1.23202,0.45464 -2.56966,0.83182 -3.43629,0.73821c-0.80702,-0.08717 -1.88561,-0.74376 -2.83512,-1.44656c-1.18741,-0.87888 -2.17294,-1.82996 -2.17294,-1.82996" fill="none" stroke-opacity="0.40392" stroke="#000000" stroke-width="2.5" stroke-linecap="round"/><path d="M314.03454,38.24588c0,0 -1.13592,1.12694 -2.47719,2.18651c-1.03978,0.8214 -2.20294,1.60234 -3.05596,1.78636c-0.79432,0.17135 -2.01485,-0.11407 -3.12599,-0.48419c-1.38953,-0.46283 -2.60801,-1.05811 -2.60801,-1.05811" fill="none" stroke-opacity="0.40392" stroke="#000000" stroke-width="2.5" stroke-linecap="round"/><path d="M366.69123,80.83753c0,0 -0.91887,0.66427 -1.95897,1.19402c-0.80633,0.41067 -1.68553,0.74051 -2.26601,0.61734c-0.54055,-0.11471 -1.28037,-0.80629 -1.93568,-1.53947c-0.81949,-0.91688 -1.50678,-1.89877 -1.50678,-1.89877" fill="none" stroke-opacity="0.40392" stroke="#000000" stroke-width="2.5" stroke-linecap="round"/><path d="M368.07133,90.16653c0,0 -0.91887,0.66427 -1.95897,1.19403c-0.80633,0.41067 -1.68553,0.74051 -2.26601,0.61734c-0.54055,-0.11471 -1.28037,-0.80629 -1.93568,-1.53947c-0.81949,-0.91688 -1.50678,-1.89877 -1.50678,-1.89877" fill="none" stroke-opacity="0.40392" stroke="#000000" stroke-width="2.5" stroke-linecap="round"/><path d="M367.02577,99.74604c0,0 -0.91887,0.66427 -1.95897,1.19403c-0.80633,0.41067 -1.68552,0.74051 -2.266,0.61734c-0.54056,-0.11468 -1.28038,-0.80628 -1.93568,-1.53946c-0.81949,-0.91688 -1.50678,-1.89877 -1.50678,-1.89877" fill="none" stroke-opacity="0.40392" stroke="#000000" stroke-width="2.5" stroke-linecap="round"/><path d="M264.32779,86.97344c0,0 -0.48635,1.10312 -1.11468,2.16952c-0.50247,0.85276 -1.09571,1.68203 -1.6037,1.90503c-0.54553,0.23947 -1.47034,0.09595 -2.33916,-0.14171c-1.12072,-0.30656 -2.14825,-0.76981 -2.14825,-0.76981" fill="none" stroke-opacity="0.40392" stroke="#000000" stroke-width="2.5" stroke-linecap="round"/><path d="M266.17499,93.32802c0,0 -0.48635,1.10312 -1.11468,2.16951c-0.50247,0.85276 -1.09571,1.68203 -1.60371,1.90503c-0.54553,0.23947 -1.47034,0.09595 -2.33915,-0.14171c-1.12072,-0.30658 -2.14825,-0.76983 -2.14825,-0.76983" fill="none" stroke-opacity="0.40392" stroke="#000000" stroke-width="2.5" stroke-linecap="round"/><path d="M267.38754,100.91862c0,0 -0.48635,1.10312 -1.11468,2.16951c-0.50247,0.85276 -1.09571,1.68203 -1.60371,1.90503c-0.54553,0.23947 -1.47034,0.09595 -2.33915,-0.14171c-1.12072,-0.30658 -2.14825,-0.76983 -2.14825,-0.76983" fill="none" stroke-opacity="0.40392" stroke="#000000" stroke-width="2.5" stroke-linecap="round"/><path d="M307.59551,105.20181l4.2947,5.30137" fill="none" stroke="#000000" stroke-width="2.5" stroke-linecap="round"/><path d="M317.45982,110.71133l4.37233,-6.97992" fill="none" stroke="#000000" stroke-width="2.5" stroke-linecap="round"/><path d="M373.8406,-7.62047c0,0 -49.87346,8.17777 -74.37644,11.05383c-23.1251,2.71433 -68.74711,5.74538 -68.74711,5.74538" fill="none" stroke="#000000" stroke-width="2.5" stroke-linecap="round"/><path d="M370.78014,-1.82949c0,0 -48.22125,7.90654 -71.34649,10.59138c-21.75151,2.52535 -63.5363,5.06854 -63.5363,5.06854" fill="none" stroke="#000000" stroke-width="2.5" stroke-linecap="round"/><path d="M368.84961,4.13292c0,0 -46.4488,7.0668 -68.67456,9.75769c-20.88826,2.52895 -60.9167,5.93203 -60.9167,5.93203" fill="none" stroke="#000000" stroke-width="2.5" stroke-linecap="round"/><path d="M289.91283,78.70743c0.30016,1.92654 -4.1836,4.27757 -10.01475,5.2512c-5.83116,0.97362 -10.80157,0.20114 -11.10173,-1.72539c-0.30016,-1.92654 4.1836,-4.27757 10.01475,-5.2512c5.83116,-0.97362 10.80157,-0.20114 11.10173,1.72539z" fill="#000000" stroke="#000000" stroke-width="2.5" stroke-linecap="butt"/><path d="M351.27212,67.66732c0.30016,1.92654 -4.1836,4.27757 -10.01474,5.2512c-5.83116,0.97362 -10.80157,0.20114 -11.10173,-1.72539c-0.30016,-1.92654 4.1836,-4.27757 10.01474,-5.2512c5.83116,-0.97362 10.80157,-0.20114 11.10173,1.72539z" fill="#000000" stroke="#000000" stroke-width="2.5" stroke-linecap="butt"/><g stroke="none" stroke-width="0" stroke-linecap="butt"><path d="M282.06039,80.06222c0,1.29844 -1.07545,2.35104 -2.4021,2.35104c-1.32664,0 -2.4021,-1.0526 -2.4021,-2.35104c0,-1.29844 1.07545,-2.35104 2.4021,-2.35104c1.32664,0 2.4021,1.0526 2.4021,2.35104z" fill="#ffffff"/><g><path d="M283.71707,79.9205c0,2.27229 -1.85761,4.11433 -4.14909,4.11433c-2.29148,0 -4.14909,-1.84205 -4.14909,-4.11433c0,-2.27229 1.85761,-4.11433 4.14909,-4.11433c2.29148,0 4.14909,1.84205 4.14909,4.11433z" fill="url(#color-10)"/><path d="M281.20957,78.90716c0,5.09391 -1.09501,9.22334 -2.44577,9.22334c-1.35077,0 -2.44577,-4.12943 -2.44577,-9.22334c0,-5.09391 1.09501,-9.22334 2.44577,-9.22334c1.35077,0 2.44577,4.12943 2.44577,9.22334z" fill="url(#color-11)"/><path d="M283.06955,81.01346c0,5.0939 -1.09501,9.22334 -2.44577,9.22334c-1.35077,0 -2.44577,-4.12944 -2.44577,-9.22334c0,-5.0939 1.09502,-9.22334 2.44577,-9.22334c1.35077,0 2.44577,4.12943 2.44577,9.22334z" fill="url(#color-12)"/></g></g><g stroke="none" stroke-width="0" stroke-linecap="butt"><path d="M339.61099,67.32694c1.32666,0 2.40211,1.0526 2.40211,2.35104c0,1.29844 -1.07545,2.35104 -2.40211,2.35104c-1.32666,0 -2.40211,-1.0526 -2.40211,-2.35104c0,-1.29844 1.07545,-2.35104 2.40211,-2.35104z" fill="#ffffff"/><g><path d="M339.70128,65.42191c2.29148,0 4.14909,1.84206 4.14909,4.11433c0,2.27229 -1.85761,4.11433 -4.14909,4.11433c-2.29148,0 -4.14909,-1.84206 -4.14909,-4.11433c0,-2.27229 1.8576,-4.11433 4.14909,-4.11433z" fill="url(#color-13)"/><path d="M340.50547,59.29956c1.35077,0 2.44579,4.12944 2.44579,9.22334c0,5.0939 -1.09502,9.22334 -2.44579,9.22334c-1.35077,0 -2.44577,-4.12943 -2.44577,-9.22334c0,-5.0939 1.095,-9.22334 2.44577,-9.22334z" fill="url(#color-14)"/><path d="M338.64549,61.40589c1.35077,0 2.44579,4.12944 2.44579,9.22334c0,5.0939 -1.09502,9.22334 -2.44579,9.22334c-1.35077,0 -2.44577,-4.12943 -2.44577,-9.22334c0,-5.0939 1.09501,-9.22334 2.44577,-9.22334z" fill="url(#color-15)"/></g></g><path d="M343.47318,132.26377c0.04743,0.6383 0.00344,3.52371 -0.50845,3.95809c-1.12992,0.95883 -3.77032,-0.83495 -7.06832,-0.94878c-4.89144,-0.16883 -11.4782,1.04004 -18.74534,1.61873c-8.87375,0.70663 -13.88497,1.53413 -17.76596,1.58729c-2.4111,0.03303 -4.36777,2.95307 -4.48556,1.36779c-0.14735,-1.98309 -2.47995,-6.32605 1.2499,-8.42532c2.47221,-1.39144 7.75977,-1.89238 12.56161,-3.04365c3.06673,-0.73526 5.44424,-2.37129 8.36355,-2.60376c6.70215,-0.5337 11.49763,0.22133 15.8786,1.1444c3.01283,0.6348 4.29599,1.59209 5.78262,2.58017c0.84394,0.56092 2.73716,0.98629 2.59931,1.73059c-0.38159,2.06026 2.12823,0.90252 2.13803,1.03446z" fill="#ffffff" stroke="#000000" stroke-width="2.5" stroke-linecap="butt"/><path d="M338.02458,130.68008l-3.69497,4.1084l-5.47402,-6.94178l-9.99009,9.91684l-8.07419,-10.20017l-8.62159,9.91684l-5.33717,-5.9501" fill="none" stroke="#000000" stroke-width="2.5" stroke-linecap="round"/><path d="M268.52508,85.61623l19.11686,-3.24304" fill="none" stroke="#000000" stroke-width="2.5" stroke-linecap="round"/><path d="M335.43408,74.52161l21.67715,-4.9499" fill="none" stroke="#000000" stroke-width="2.5" stroke-linecap="round"/><path d="M329.63075,72.81476l6.82745,5.46196" fill="none" stroke="#000000" stroke-width="2.5" stroke-linecap="round"/><path d="M289.69016,79.13015l-3.58441,9.38774" fill="none" stroke="#000000" stroke-width="2.5" stroke-linecap="round"/><path d="M289.51971,72.68389c0,0 -7.58669,3.41344 -11.67637,4.27745c-3.98685,0.84229 -12.71126,1.29367 -12.71126,1.29367" fill="none" stroke="#000000" stroke-width="2.5" stroke-linecap="round"/><path d="M352.13964,61.39951c0,0 -8.73577,4.39001 -12.81918,5.33898c-3.99375,0.92813 -11.41827,0.29367 -11.41827,0.29367" fill="none" stroke="#000000" stroke-width="2.5" stroke-linecap="round"/></g></g></svg>