<svg version="1.1" xmlns="http://www.w3.org/2000/svg" xmlns:xlink="http://www.w3.org/1999/xlink" width="175.23791" height="434.58121" viewBox="0,0,175.23791,434.58121"><defs><linearGradient x1="297.30781" y1="182.9544" x2="297.30781" y2="208.23291" gradientUnits="userSpaceOnUse" id="color-1"><stop offset="0" stop-color="#ffffff"/><stop offset="1" stop-color="#2c2c2c"/></linearGradient><linearGradient x1="319.06866" y1="187.39313" x2="319.06866" y2="215.83114" gradientUnits="userSpaceOnUse" id="color-2"><stop offset="0" stop-color="#ffffff"/><stop offset="1" stop-color="#2c2c2c"/></linearGradient><linearGradient x1="321.24547" y1="215.6302" x2="321.24547" y2="263.9197" gradientUnits="userSpaceOnUse" id="color-3"><stop offset="0" stop-color="#717171"/><stop offset="1" stop-color="#2c2c2c"/></linearGradient><linearGradient x1="339.25597" y1="181.51324" x2="339.25597" y2="206.79175" gradientUnits="userSpaceOnUse" id="color-4"><stop offset="0" stop-color="#ffffff"/><stop offset="1" stop-color="#2c2c2c"/></linearGradient><linearGradient x1="317.20079" y1="83.969" x2="317.20079" y2="90.95673" gradientUnits="userSpaceOnUse" id="color-5"><stop offset="0" stop-color="#a2a2a2"/><stop offset="1" stop-color="#7f7f7f"/></linearGradient></defs><g transform="translate(-230.76036,-34.36454)"><g stroke-miterlimit="10"><g fill="#000000" stroke="none" stroke-width="0.5" stroke-linecap="butt"><path d="M265.22846,115.644c0.57937,-0.94195 1.16757,-1.87621 1.78149,-2.78845c1.02683,-1.52526 1.89464,-3.13708 2.7754,-4.74774c-1.33427,0.55913 -2.23042,1.69319 -2.34621,3.66827c-0.91533,0.75777 -2.00191,2.48992 -2.21068,3.86791zM341.6935,208.41193c-0.05562,-0.24832 -0.07163,-0.52396 -0.06883,-0.80194c-0.1626,-1.30475 -0.54527,-2.57972 -0.77314,-3.85703c0.00002,0.99038 0.00008,1.98077 0.00033,2.97122c0.0009,3.50763 0.45271,7.11068 0.45271,10.59129c0,2.87045 0.6048,6.76433 -0.04045,9.49013l0.03944,0.01028l-0.00136,0.49956c0,0.00003 0,0.00006 0,0.00008c-0.00037,0.13767 -0.11416,0.21988 -0.25448,0.18368c-0.02136,-0.00551 -0.0421,-0.01344 -0.06192,-0.02343c0.70759,3.02973 0.97787,6.23247 1.49943,9.20045c0.63386,3.60705 0.85496,7.15906 1.71286,10.77286c0.40332,1.69895 0.97639,3.51348 1.18782,5.19824c0.06277,0.50015 0.04331,1.04831 0.03691,1.53501c-0.00235,0.17888 0.01677,0.69686 0.09505,0.55486c0.2368,-0.42949 0.26879,-1.01544 0.36069,-1.5794l-0.07789,-0.02592l0.03848,-0.48645c0.0088,-0.12796 0.11912,-0.20246 0.25392,-0.16769c0.10339,0.02667 0.19237,0.11019 0.2322,0.20745l0.21636,0.50224c1.04133,2.42336 0.96868,4.83484 1.7859,7.23971c1.20761,3.57299 1.25265,7.24978 1.75442,10.81815c0.13975,0.99386 1.47623,5.88037 0.65101,6.32933c-0.0065,0.00354 -0.01298,0.00697 -0.01943,0.01031c0.24232,0.76396 0.45735,1.5331 0.61812,2.32653c1.10439,3.58908 2.30884,7.26657 3.04347,10.85735c0.3468,1.75118 1.74366,3.77153 2.31702,5.49887c0.47729,1.43793 0.03612,3.70883 -0.00044,5.10135c-0.23173,2.42074 -1.61509,4.85289 -2.74075,6.80659c-0.38464,0.66758 -0.3874,1.59159 -0.95945,2.05034c-2.04376,2.4428 -3.87282,4.55097 -6.43275,6.4392c-2.31861,1.96246 -4.57439,4.17419 -6.60959,6.43518c-2.01628,2.2307 -5.09177,3.82524 -7.49831,5.53938c-2.19065,1.42091 -5.47781,3.69659 -8.70968,3.05428c-3.50389,-0.78088 -6.86328,-0.47911 -10.5122,-1.42057c-3.50867,-0.90579 -6.97086,-2.25041 -10.58405,-3.17174c-3.56359,-0.90869 -7.06595,-1.37504 -10.6541,-2.30849c-3.21591,-0.83664 -7.70842,-3.27346 -9.60517,-6.35784c-2.17176,-3.71431 -6.51275,-3.32664 -9.48836,-3.06678c-0.79116,0.06883 -2.92452,0.73136 -3.65463,-0.27722c-0.48427,-0.66898 -0.99303,-4.6725 -0.88297,-6.04801c-2.74462,0.91375 -3.44627,3.17845 -5.24408,4.91112l0.02464,0.01944l-0.23965,0.37348c-0.04227,0.06961 -0.12775,0.10262 -0.22632,0.07719c-0.14055,-0.03626 -0.25449,-0.17758 -0.25449,-0.31565c0,-0.0008 0,-0.0016 0.00001,-0.00239l0.00417,-0.49856l0.00063,0.00017l-0.0006,-0.00254c0.05342,-1.90125 0.11478,-4.66728 0.76211,-6.29616c0.72273,-1.78857 1.28779,-3.81548 1.49899,-5.86149c0.123,-1.19159 -0.25797,-2.66434 0.08879,-3.76126c-2.3452,0.59873 -4.35886,3.27603 -6.58107,4.62568l0.02256,0.02456l-0.32748,0.29597c-0.04668,0.04291 -0.11693,0.05976 -0.19548,0.03949c-0.14055,-0.03626 -0.25449,-0.17758 -0.25449,-0.31565c0,-0.00073 0,-0.00146 0.00001,-0.00219l0.00381,-0.49869c0.03235,-2.46629 1.06956,-5.73235 1.96461,-7.82505c0.79219,-1.85221 1.21112,-4.26151 1.18451,-6.46645c-0.00245,-0.20317 0.00917,-2.20622 -0.11357,-2.25624c-0.27846,-0.11347 -0.39442,0.30604 -0.64199,0.37415c-2.79144,0.75646 -4.70553,2.95851 -7.32762,3.98103l-0.00009,0.41036c0,0 0,0 0,0.00001c-0.00003,0.13804 -0.11395,0.22055 -0.25449,0.1843c-0.14054,-0.03626 -0.25447,-0.17757 -0.25449,-0.31563l0,0l-0.00004,-0.50001l0.00015,0.00004l0,-0.00007l0.00004,0.00001l-0.00004,-0.00005c0.00061,-1.16965 0.01172,-2.33396 0.0452,-3.49468c0.0903,-3.13066 1.17695,-6.9965 2.14648,-9.75771c0.72524,-2.06546 1.07393,-4.18446 1.36714,-6.44955c0.09146,-0.70651 -0.13136,-1.70653 0.0122,-2.40321c-0.91753,0.7408 -2.47957,1.37849 -3.14526,2.31375c-0.3553,0.49917 -0.47289,1.09221 -0.74223,1.62489l0.08743,0.05535l-0.17945,0.41535c-0.03505,0.08785 -0.12921,0.13293 -0.23986,0.10439c-0.14055,-0.03626 -0.25449,-0.17758 -0.25449,-0.31565c0,-0.00183 0.00002,-0.00364 0.00006,-0.00545l0.00954,-0.49668c0.01696,-0.87386 0.12535,-1.64001 0.34153,-2.43496c0.86955,-3.19745 1.53571,-6.41154 2.63324,-9.4992c0.78325,-2.2035 0.98633,-4.62515 1.60634,-6.88989c0.24076,-0.87945 0.85051,-1.59404 0.84181,-2.5782c-0.00051,-0.65098 0.35746,-3.79003 -0.1469,-4.30128c-0.06876,-0.0697 -0.9756,0.41309 -1.03855,0.4409c-1.01183,0.44703 -1.64335,1.3449 -2.45769,2.01031c-0.29925,0.71442 -0.61991,1.41764 -0.89304,2.1453c-0.05741,0.15295 -0.4377,1.45108 -0.50866,1.45654c-1.81286,0.13945 -0.09269,-3.35029 0.4338,-3.6316c0.14549,-0.0767 0.35153,-0.25616 0.59933,-0.49122c0.24206,-0.61594 0.46697,-1.24138 0.62839,-1.89568c0.79151,-3.20833 2.38202,-5.87795 3.0595,-9.22248c0.83474,-2.0935 1.45281,-4.41421 1.68425,-6.80854c0.04699,-0.48614 -0.09864,-1.13441 -0.05392,-1.65344c-0.77173,0.80724 -2.23787,1.32963 -3.14152,1.98553c-0.86657,1.16942 -1.96754,2.21874 -2.75904,3.43713c-0.56389,0.86801 -0.7738,2.30762 -1.37396,3.23284c-0.05779,0.17459 -0.11611,0.34655 -0.17483,0.5153l-0.1506,0.4328c-0.03062,0.09641 -0.12852,0.14745 -0.24455,0.11751c-0.1403,-0.0362 -0.25409,-0.17709 -0.25448,-0.31493c0,-0.00003 0,-0.00006 0,-0.00009l-0.00146,-0.50028l0.11648,0.02972c-0.01748,-0.98372 0.36834,-1.97355 0.93292,-2.91992c0.18422,-0.68172 0.35218,-1.36557 0.49588,-2.02396c0.71492,-3.24851 1.97034,-6.22765 2.91562,-9.35988c0.61512,-2.03306 1.24689,-4.21327 1.68535,-6.33181c0.10692,-0.5166 0.04172,-1.25938 0.10476,-1.86805c-0.88598,1.36956 -2.30142,2.29854 -3.15028,3.6869c-0.57057,0.9332 -0.94977,2.18926 -1.68613,2.91151c0,0.01083 -0.00001,0.02165 -0.00002,0.03247l-0.00046,0.49985c0,0.00001 0,0.00002 0,0.00003c-0.00012,0.13794 -0.11401,0.22036 -0.25449,0.18412c-0.14054,-0.03626 -0.25446,-0.17755 -0.25449,-0.31561l-0.00008,-0.50002l0.00054,0.00014l0,-0.00026c0.00139,-1.51325 -0.04505,-3.03687 0.17367,-4.48017c0.50215,-3.31367 0.74443,-6.74568 1.18527,-10.09727c-0.00202,-1.82633 0.0251,-3.64735 -0.0139,-5.48284c-0.00555,-0.26138 0.15267,-1.59743 0.02776,-1.7792c-0.25247,-0.36739 -0.41515,0.56181 -0.65695,0.81001c-0.12969,0.13312 -0.24945,0.21737 -0.37693,0.28287l-0.3563,0.26484c-0.04619,0.0344 -0.11058,0.04654 -0.1818,0.02816c-0.14055,-0.03626 -0.25449,-0.17758 -0.25449,-0.31565c0,0 0,0 0,0l0,-0.5l0,0l0,-0.00001c0.00041,-3.59333 0.61926,-6.72905 1.27231,-10.09426c0.41078,-2.09041 0.08687,-4.68952 0.08662,-6.92493c-0.00005,-0.48819 -0.12039,-1.29103 -0.06715,-1.91524c-0.39742,0.38368 -0.79362,0.85896 -1.15823,1.35685c-0.13227,0.56999 -0.25811,1.14001 -0.38011,1.70651c-0.13715,0.63459 -0.52076,3.29127 -1.4864,1.81755c-0.60679,-0.92606 0.37629,-2.63638 1.41267,-3.94402c0.61073,-2.6012 1.36119,-5.19583 2.48599,-7.44662c1.41045,-2.82238 1.90653,-6.15541 3.34082,-9.03023c0.76836,-3.18588 2.07302,-6.17072 2.49532,-9.49177c0.21294,-1.67456 -0.28579,-1.69097 -0.93427,-1.08189c-0.06389,0.17547 -0.12683,0.35066 -0.18859,0.52558c-0.75186,1.32921 -1.2078,2.71481 -1.72898,4.19027l-0.06832,0.45838c-0.01568,0.11925 -0.12275,0.18703 -0.25251,0.15356c-0.13491,-0.0348 -0.2453,-0.16641 -0.25394,-0.29903l-0.03776,-0.50621l0.07714,0.01424c-0.30047,-1.78479 0.69253,-2.95541 1.69072,-4.13789c0.03305,-0.06033 0.06668,-0.12052 0.10092,-0.18057c1.04119,-2.97918 2.43888,-6.00749 3.05202,-9.15444c0.62841,-3.22527 1.39046,-6.28088 1.79994,-9.58997c-2.74845,0.64864 -4.75526,2.80482 -7.27412,3.72338l0.01973,0.0282l-0.38867,0.22009c-0.0444,0.02565 -0.10194,0.0332 -0.16481,0.01698c-0.14055,-0.03626 -0.25449,-0.17758 -0.25449,-0.31565c0,-0.00979 0.00057,-0.01929 0.00169,-0.0285l0.0516,-0.48066l0.00476,0.00171l-0.00202,-0.01999c0.08701,-0.30635 0.17424,-0.61258 0.26173,-0.91868c0.90398,-3.11413 2.16642,-6.03254 3.61095,-8.90589c1.42891,-2.84228 3.09762,-5.51808 4.69364,-8.24008c0.99897,-1.52349 1.93693,-3.09824 2.89016,-4.6595c-0.22193,-0.08749 -0.21062,-0.31334 -0.21062,-0.31334l0.00332,-0.0664c0.07285,-1.40161 1.23678,-3.60694 2.28189,-4.34647c-0.01649,-2.1876 1.38356,-3.60031 3.24998,-4.14455c0.2725,-0.49253 0.54886,-0.98361 0.83401,-1.47072c0,0 0.11381,-0.19425 0.34143,-0.02372c0.22762,0.17052 0.11381,0.36477 0.11381,0.36477c-0.18748,0.31971 -0.37114,0.64118 -0.55237,0.96369c0.93909,-0.15282 1.95653,-0.1056 2.94942,0.15179c0.34739,-0.5119 1.32117,-0.49402 1.89822,-0.90892c1.99219,-1.4324 3.87712,-2.38206 5.8551,-3.79052c2.47023,-1.65733 5.13401,-3.76049 8.12372,-4.55274c2.50395,-1.83032 5.4341,-3.07918 7.96886,-4.85754c0.91997,-0.59435 2.46343,-1.78653 3.61702,-1.94432c1.86742,-0.25542 3.97626,0.4732 5.88399,0.1875c2.37516,0.30641 5.00701,0.15717 7.2847,0.13069c0.94712,-0.01101 2.11194,0.93512 2.75704,0.1992c3.59016,-0.07503 6.36093,-0.87959 9.67576,-1.69151c2.01222,-0.48877 3.53252,-1.55402 5.33015,-2.34711c0.46797,-0.20646 1.20368,-0.41501 1.73123,0.20253c0.51048,0.59755 0.76199,1.93705 0.97515,2.65517c0.77364,3.63487 1.56056,7.20464 2.2674,10.84171c0.26765,1.37724 0.363,2.69276 0.39504,4.00141c0.01444,0.03242 0.02345,0.06655 0.02568,0.10075l0.03789,0.50623c0.01456,0.20228 0.03257,0.40566 0.05358,0.61001c0.02954,0.17242 0.04994,0.35666 0.06304,0.54885c0.33391,2.64503 1.09612,5.431 1.32878,8.07964c0.31557,3.59253 0.31452,7.06588 0.31427,10.58952c-0.00021,2.85743 0.62731,6.82455 -0.1314,9.49091l0.03897,0.01553l-0.07152,0.47287c-0.01588,0.11898 -0.12285,0.18656 -0.25245,0.15312c-0.08652,-0.02232 -0.16295,-0.08445 -0.20893,-0.16113l-0.29419,-0.47984l0.02003,-0.00891l-0.0543,-0.06578c-0.03494,-0.74971 -0.18447,-1.44996 -0.36076,-2.13077c-0.01239,0.75476 -0.10166,1.5065 -0.01075,2.25916c0.24701,2.04493 0.92317,4.12318 1.14544,6.18257c0.38679,3.58375 0.69549,7.15427 1.08563,10.73886c-0.00016,0.62168 0.34745,5.04209 -0.83808,4.25665c-0.13349,-0.08844 -0.14782,-1.05298 -0.16537,-1.23426c-0.03519,-0.3635 -0.16424,-0.78773 -0.32031,-1.23293c0.08067,0.92082 0.15466,1.84125 0.3579,2.79676c0.77042,3.62216 1.44488,7.23234 2.05981,10.84438c0.60864,3.57508 0.30313,7.08608 0.66524,10.64838c0.15442,1.52855 0.05526,3.04253 0.0452,4.53619c-0.00121,0.18016 0.0205,1.15297 -0.13069,1.17923c-0.44278,0.07691 -0.89103,-1.24338 -1.17984,-2.5398c0.11076,2.34375 0.41331,4.70705 0.41786,7.03772c0.00465,3.48989 0.8992,7.19708 0.90086,10.69149c0,2.78792 0.59822,6.62698 -0.00264,9.31996c0.00065,0.06047 0.00128,0.11993 0.00193,0.17832l-0.00121,0.00089l0.00122,0.00031l0,0.00034l0.0007,0.00018l-0.00001,0.5c0,0 0,0 0,0c0,0.13807 -0.11394,0.2206 -0.25449,0.18434c-0.14043,-0.03623 -0.2543,-0.17735 -0.25449,-0.31531c0,-0.00001 0,-0.00003 0,-0.00004l-0.00069,-0.49923c-0.00101,-0.091 -0.00355,-0.18181 -0.00749,-0.27245zM255.18267,157.78626c0.15305,-0.43536 0.30795,-0.86349 0.47428,-1.28481c-0.21471,0.39296 -0.37419,0.74595 -0.43712,0.983c-0.02607,0.09822 -0.0361,0.19943 -0.03716,0.30182zM249.48896,183.02057c-0.10305,0.17294 -0.19893,0.34146 -0.28627,0.50247c-0.2153,0.39693 -0.29322,0.76801 -0.28867,1.25652c0.00179,0.19216 0.09118,0.78505 0.07179,0.58929c-0.07687,-0.77634 0.29876,-1.39727 0.45501,-2.12558c0.01597,-0.07418 0.03202,-0.14842 0.04813,-0.22271zM252.09745,248.30045c-0.59681,0.3494 -0.84163,0.72701 -0.94249,1.55706c-0.03898,0.3208 0.03405,1.3304 0.09802,1.01982c0.18434,-0.89511 0.50583,-1.73737 0.84448,-2.57688zM340.67353,226.25887c-0.09847,-0.48454 -0.28412,-1.03007 -0.48681,-1.58958c0.1223,0.39288 0.24756,0.78221 0.36222,1.16225c0.04281,0.14189 0.08431,0.28435 0.12459,0.42733z"/><path d="M372.27833,120.78163c-0.1158,-1.97508 -1.01194,-3.10914 -2.34621,-3.66827c0.88076,1.61066 1.74857,3.22248 2.7754,4.74774c0.61392,0.91223 1.20212,1.8465 1.78149,2.78845c-0.20877,-1.37799 -1.29536,-3.11015 -2.21068,-3.86792zM298.01649,217.68993l-0.00069,0.49923c0,0.00001 0,0.00003 0,0.00004c-0.00019,0.13797 -0.11405,0.27909 -0.25449,0.31531c-0.14055,0.03626 -0.25449,-0.04628 -0.25449,-0.18435v0l-0.00001,-0.5l0.0007,-0.00018v-0.00034l0.00122,-0.00031l-0.00121,-0.00089c0.00065,-0.05839 0.00128,-0.11786 0.00193,-0.17832c-0.60086,-2.69298 -0.00264,-6.53205 -0.00264,-9.31996c0.00167,-3.49442 0.89621,-7.20161 0.90086,-10.6915c0.00455,-2.33068 0.3071,-4.69397 0.41787,-7.03772c-0.28882,1.29642 -0.73707,2.61671 -1.17985,2.53981c-0.15118,-0.02626 -0.12948,-0.99907 -0.13069,-1.17923c-0.01006,-1.49365 -0.10922,-3.00763 0.0452,-4.53618c0.36212,-3.56231 0.0566,-7.0733 0.66524,-10.64839c0.61493,-3.61204 1.28939,-7.22223 2.05981,-10.84438c0.20324,-0.95551 0.27722,-1.87593 0.3579,-2.79676c-0.15608,0.4452 -0.28512,0.86943 -0.32032,1.23293c-0.01755,0.18128 -0.03188,1.14581 -0.16537,1.23425c-1.18554,0.78543 -0.83793,-3.63497 -0.83808,-4.25665c0.39015,-3.5846 0.69884,-7.15511 1.08563,-10.73886c0.22227,-2.05939 0.89843,-4.13764 1.14544,-6.18257c0.09092,-0.75266 0.00164,-1.5044 -0.01075,-2.25916c-0.1763,0.6808 -0.32582,1.38107 -0.36076,2.13078l-0.0543,0.06578l0.02003,0.00891l-0.2942,0.47984c-0.04598,0.07668 -0.12241,0.1388 -0.20893,0.16112c-0.1296,0.03343 -0.23657,-0.03413 -0.25245,-0.15312l-0.07153,-0.47287l0.03897,-0.01552c-0.75872,-2.66636 -0.13119,-6.63348 -0.1314,-9.49091c-0.00025,-3.52364 -0.0013,-6.99698 0.31427,-10.58952c0.23266,-2.64864 0.99488,-5.43461 1.32878,-8.07964c0.0131,-0.19219 0.0335,-0.37643 0.06304,-0.54885c0.02101,-0.20436 0.03902,-0.40773 0.05357,-0.61001l0.0379,-0.50623c0.00223,-0.0342 0.01123,-0.06833 0.02568,-0.10075c0.03203,-1.30865 0.12739,-2.62417 0.39504,-4.00141c0.70683,-3.63707 1.49375,-7.20684 2.26739,-10.84171c0.21316,-0.71811 0.46467,-2.05761 0.97515,-2.65516c0.52755,-0.61754 1.26326,-0.40899 1.73123,-0.20253c1.79763,0.79309 3.31793,1.85833 5.33016,2.3471c3.31484,0.81193 6.0856,1.61648 9.67576,1.69151c0.6451,0.73592 1.80992,-0.21021 2.75704,-0.19919c2.27769,0.02648 4.90954,0.17572 7.2847,-0.13069c1.90773,0.2857 4.01658,-0.44292 5.88399,-0.1875c1.15359,0.15779 2.69705,1.34996 3.61702,1.94431c2.53477,1.77836 5.46491,3.02723 7.96886,4.85755c2.98971,0.79224 5.6535,2.8954 8.12372,4.55273c1.97798,1.40846 3.86292,2.35812 5.8551,3.79052c0.57705,0.4149 1.55083,0.39703 1.89822,0.90893c0.99289,-0.25739 2.01033,-0.30461 2.94941,-0.1518c-0.18123,-0.32251 -0.36489,-0.64398 -0.55237,-0.96368c0,0 -0.11381,-0.19424 0.11381,-0.36477c0.22762,-0.17052 0.34143,0.02372 0.34143,0.02372c0.28516,0.48711 0.56152,0.97818 0.83401,1.47072c1.86642,0.54424 3.26648,1.95695 3.24998,4.14455c1.04511,0.73953 2.20905,2.94485 2.28189,4.34646l0.00332,0.06639c0,0 0.01131,0.22586 -0.21062,0.31334c0.95323,1.56126 1.89119,3.13602 2.89016,4.6595c1.59602,2.722 3.26473,5.39781 4.69364,8.24008c1.44453,2.87335 2.70697,5.79175 3.61095,8.90589c0.08749,0.30611 0.17472,0.61234 0.26173,0.91868l-0.00203,0.01999l0.00476,-0.0017l0.0516,0.48066c0.00111,0.00921 0.00169,0.01871 0.00169,0.02849c0,0.13807 -0.11394,0.2794 -0.25449,0.31566c-0.06286,0.01621 -0.1204,0.00867 -0.1648,-0.01699l-0.38868,-0.22009l0.01973,-0.0282c-2.51886,-0.91856 -4.52567,-3.07474 -7.27411,-3.72338c0.40948,3.30909 1.17153,6.36469 1.79994,9.58997c0.61315,3.14695 2.01084,6.17527 3.05202,9.15445c0.03423,0.06005 0.06787,0.12024 0.10092,0.18057c0.9982,1.18248 1.99119,2.3531 1.69072,4.13789l0.07714,-0.01424l-0.03776,0.50621c-0.00864,0.13261 -0.11903,0.26422 -0.25394,0.29903c-0.12976,0.03348 -0.23683,-0.0343 -0.25251,-0.15356l-0.06832,-0.45837c-0.52118,-1.47546 -0.97712,-2.86106 -1.72897,-4.19027c-0.06176,-0.17492 -0.12469,-0.35011 -0.18859,-0.52558c-0.64848,-0.60908 -1.14721,-0.59266 -0.93427,1.08189c0.4223,3.32105 1.72696,6.30589 2.49532,9.49177c1.43428,2.87482 1.93036,6.20785 3.34082,9.03023c1.12481,2.2508 1.87526,4.84543 2.486,7.44662c1.03639,1.30764 2.01946,3.01796 1.41267,3.94402c-0.96563,1.47372 -1.34925,-1.18295 -1.48639,-1.81754c-0.122,-0.5665 -0.24784,-1.13653 -0.38011,-1.70651c-0.36461,-0.49788 -0.76082,-0.97317 -1.15823,-1.35685c0.05324,0.62421 -0.0671,1.42705 -0.06715,1.91524c-0.00024,2.23541 -0.32415,4.83452 0.08663,6.92493c0.65305,3.36521 1.2719,6.50092 1.27231,10.09426l-0.00001,0.00001h0.00001v0.5v0c0,0.13807 -0.11394,0.27939 -0.25449,0.31565c-0.07122,0.01837 -0.13561,0.00624 -0.1818,-0.02817l-0.35631,-0.26484c-0.12749,-0.06551 -0.24724,-0.14975 -0.37693,-0.28287c-0.2418,-0.2482 -0.40447,-1.1774 -0.65695,-0.81001c-0.12491,0.18177 0.03331,1.51782 0.02776,1.7792c-0.039,1.83548 -0.01188,3.6565 -0.0139,5.48283c0.44083,3.35159 0.68312,6.7836 1.18527,10.09727c0.21871,1.4433 0.17228,2.96692 0.17367,4.48017v0.00027l0.00054,-0.00014l-0.00008,0.50002c-0.00002,0.13806 -0.11395,0.27936 -0.25449,0.31562c-0.14047,0.03624 -0.25436,-0.04619 -0.25449,-0.18412c0,-0.00001 0,-0.00002 0,-0.00003l-0.00046,-0.49985c-0.00001,-0.01083 -0.00002,-0.02165 -0.00002,-0.03247c-0.73636,-0.72224 -1.11555,-1.9783 -1.68612,-2.91151c-0.84886,-1.38836 -2.2643,-2.31734 -3.15028,-3.6869c0.06304,0.60867 -0.00215,1.35145 0.10476,1.86805c0.43845,2.11854 1.07023,4.29876 1.68535,6.33181c0.94528,3.13223 2.2007,6.11138 2.91562,9.35988c0.1437,0.65838 0.31165,1.34224 0.49588,2.02396c0.56458,0.94638 0.9504,1.9362 0.93292,2.91992l0.11648,-0.02972l-0.00146,0.50028c0,0.00003 0,0.00006 0,0.00009c-0.00039,0.13785 -0.11418,0.27874 -0.25449,0.31494c-0.11604,0.02993 -0.21393,-0.02111 -0.24455,-0.11752l-0.1506,-0.4328c-0.05872,-0.16875 -0.11704,-0.3407 -0.17483,-0.5153c-0.60016,-0.92521 -0.81007,-2.36482 -1.37396,-3.23284c-0.79151,-1.21839 -1.89247,-2.26771 -2.75904,-3.43713c-0.90365,-0.65589 -2.36979,-1.17829 -3.14152,-1.98553c0.04472,0.51902 -0.10091,1.1673 -0.05393,1.65344c0.23143,2.39433 0.8495,4.71505 1.68425,6.80855c0.67748,3.34453 2.26799,6.01415 3.0595,9.22248c0.16142,0.65431 0.38633,1.27975 0.62839,1.89568c0.24781,0.23506 0.45384,0.41452 0.59933,0.49122c0.52649,0.28132 2.24666,3.77105 0.4338,3.6316c-0.07096,-0.00546 -0.45125,-1.30358 -0.50866,-1.45654c-0.27313,-0.72766 -0.59379,-1.43088 -0.89305,-2.1453c-0.81434,-0.66541 -1.44586,-1.56328 -2.45769,-2.01031c-0.06295,-0.02781 -0.96979,-0.51059 -1.03854,-0.4409c-0.50435,0.51125 -0.1464,3.6503 -0.1469,4.30128c-0.0087,0.98416 0.60105,1.69876 0.84182,2.5782c0.62001,2.26474 0.82309,4.68638 1.60634,6.88988c1.09753,3.08766 1.7637,6.30175 2.63324,9.4992c0.21618,0.79494 0.32457,1.5611 0.34153,2.43496l0.00954,0.49668c0.00004,0.0018 0.00006,0.00362 0.00006,0.00545c0,0.13807 -0.11394,0.27939 -0.25449,0.31565c-0.11065,0.02855 -0.20481,-0.01654 -0.23986,-0.10439l-0.17945,-0.41536l0.08743,-0.05535c-0.26934,-0.53269 -0.38693,-1.12572 -0.74223,-1.62489c-0.6657,-0.93525 -2.22773,-1.57295 -3.14527,-2.31375c0.14357,0.69668 -0.07925,1.6967 0.01221,2.40321c0.29321,2.26509 0.6419,4.38409 1.36714,6.44955c0.96953,2.76121 2.05617,6.62705 2.14648,9.75771c0.03348,1.16072 0.04459,2.32503 0.0452,3.49468l-0.00004,0.00005l0.00004,-0.00001v0.00008l0.00015,-0.00004l-0.00005,0.50001v0c-0.00001,0.13806 -0.11394,0.27938 -0.25449,0.31563c-0.14053,0.03625 -0.25445,-0.04626 -0.25449,-0.1843v0l-0.00009,-0.41036c-2.62209,-1.02251 -4.53618,-3.22456 -7.32762,-3.98103c-0.24757,-0.06811 -0.36352,-0.48762 -0.64199,-0.37415c-0.12274,0.05002 -0.11112,2.05307 -0.11358,2.25624c-0.0266,2.20494 0.39232,4.61424 1.18451,6.46645c0.89505,2.0927 1.93226,5.35876 1.96461,7.82505l0.00381,0.49868c0.00001,0.00072 0.00001,0.00146 0.00001,0.00219c0,0.13807 -0.11394,0.27939 -0.25449,0.31565c-0.07856,0.02026 -0.1488,0.00342 -0.19548,-0.03949l-0.32748,-0.29597l0.02256,-0.02456c-2.2222,-1.34965 -4.23587,-4.02695 -6.58106,-4.62568c0.34677,1.09693 -0.03421,2.56967 0.08879,3.76126c0.2112,2.04602 0.77626,4.07292 1.49899,5.86149c0.64732,1.62887 0.70869,4.39491 0.76211,6.29616l-0.0006,0.00254l0.00063,-0.00017l0.00417,0.49856c0.00001,0.00079 0.00001,0.00159 0.00001,0.00239c0,0.13807 -0.11394,0.27939 -0.25449,0.31565c-0.09857,0.02543 -0.18405,-0.00757 -0.22632,-0.07718l-0.23964,-0.37347l0.02463,-0.01945c-1.7978,-1.73267 -2.49945,-3.99737 -5.24407,-4.91111c0.11006,1.3755 -0.3987,5.37903 -0.88297,6.048c-0.73011,1.00858 -2.86346,0.34605 -3.65463,0.27722c-2.97561,-0.25987 -7.3166,-0.64753 -9.48836,3.06678c-1.89675,3.08438 -6.38926,5.5212 -9.60517,6.35784c-3.58815,0.93345 -7.09051,1.39981 -10.6541,2.30849c-3.61319,0.92133 -7.07538,2.26595 -10.58405,3.17174c-3.64892,0.94146 -7.0083,0.6397 -10.5122,1.42057c-3.23187,0.64231 -6.51903,-1.63338 -8.70968,-3.05428c-2.40654,-1.71414 -5.48203,-3.30867 -7.49831,-5.53938c-2.0352,-2.26099 -4.29098,-4.47272 -6.60959,-6.43518c-2.55992,-1.88823 -4.38899,-3.99641 -6.43275,-6.43921c-0.57205,-0.45875 -0.57481,-1.38275 -0.95945,-2.05034c-1.12567,-1.95369 -2.50902,-4.38585 -2.74075,-6.80659c-0.03656,-1.39252 -0.47773,-3.66341 -0.00044,-5.10134c0.57336,-1.72735 1.97022,-3.7477 2.31701,-5.49887c0.73463,-3.59077 1.93908,-7.26827 3.04347,-10.85735c0.16076,-0.79343 0.37579,-1.56257 0.61811,-2.32653c-0.00645,-0.00333 -0.01293,-0.00677 -0.01943,-0.01031c-0.82522,-0.44896 0.51126,-5.33547 0.65101,-6.32933c0.50177,-3.56837 0.54681,-7.24516 1.75442,-10.81815c0.81722,-2.40487 0.74457,-4.81636 1.7859,-7.23971l0.21636,-0.50224c0.03983,-0.09726 0.12882,-0.18078 0.2322,-0.20745c0.1348,-0.03478 0.24512,0.03972 0.25392,0.16769l0.03848,0.48645l-0.07789,0.02592c0.0919,0.56396 0.12389,1.1499 0.36069,1.57939c0.07829,0.14199 0.09741,-0.37599 0.09506,-0.55487c-0.0064,-0.48669 -0.02586,-1.03485 0.03691,-1.535c0.21143,-1.68476 0.7845,-3.49929 1.18782,-5.19824c0.85791,-3.61381 1.079,-7.16581 1.71286,-10.77286c0.52156,-2.96798 0.79183,-6.17072 1.49943,-9.20045c-0.01982,0.00998 -0.04056,0.01792 -0.06192,0.02343c-0.14032,0.0362 -0.25411,-0.04601 -0.25448,-0.18368c0,-0.00003 0,-0.00005 0,-0.00008l-0.00136,-0.49956l0.03945,-0.01028c-0.64525,-2.7258 -0.04045,-6.61968 -0.04045,-9.49013c0,-3.48061 0.4518,-7.08365 0.4527,-10.59128c0.00025,-0.99044 0.00032,-1.98084 0.00033,-2.97122c-0.22787,1.27732 -0.61054,2.55228 -0.77314,3.85703c0.0028,0.27797 -0.0132,0.55361 -0.06883,0.80194c-0.00394,0.09064 -0.00648,0.18146 -0.00749,0.27245zM384.49765,166.48999c-0.06293,-0.23704 -0.22242,-0.59004 -0.43712,-0.983c0.16633,0.42132 0.32123,0.84946 0.47428,1.28482c-0.00105,-0.10238 -0.01108,-0.2036 -0.03715,-0.30182zM390.27665,192.24882c0.15625,0.72831 0.53189,1.34923 0.45501,2.12558c-0.01938,0.19575 0.07,-0.39713 0.07179,-0.58929c0.00455,-0.48852 -0.07337,-0.85959 -0.28867,-1.25652c-0.08734,-0.16101 -0.18321,-0.32953 -0.28627,-0.50248c0.01611,0.0743 0.03216,0.14853 0.04813,0.22271zM388.4645,259.88288c0.06396,0.31058 0.137,-0.69903 0.09802,-1.01982c-0.10086,-0.83006 -0.34568,-1.20766 -0.94249,-1.55707c0.33864,0.83952 0.66013,1.68177 0.84447,2.57689zM299.16854,234.83708c0.11466,-0.38003 0.23992,-0.76936 0.36221,-1.16224c-0.20269,0.55952 -0.38834,1.10504 -0.48681,1.58958c0.04028,-0.14299 0.08179,-0.28545 0.1246,-0.42733z"/></g><path d="M260.40158,461.81907c0,0 5.17521,-49.09666 4.79135,-83.60764c-0.47034,-42.28509 -7.40705,-151.55132 -7.40705,-151.55132c0,0 -4.72006,-15.76506 -0.3204,-27.24252c3.42,-8.92184 15.23813,-14.15451 20.50795,-14.43749c11.96583,-0.64256 40.32827,-1.53133 65.10214,-2.8617c13.40167,-0.71967 29.01156,-1.50626 34.46629,9.01551c5.48193,10.57424 0.77524,32.45893 0.77524,32.45893c0,0 -3.29509,102.38098 -3.24427,144.91623c0.04586,38.38282 3.53583,99.11992 3.53583,99.11992z" fill="#000000" stroke="#000000" stroke-width="2.5" stroke-linecap="butt"/><path d="M288.88862,183.00361c0.92988,0.77816 2.23712,0.6186 3.33051,1.04555c0.88027,0.34373 1.40518,1.40338 2.26129,1.93682c2.63769,1.64361 5.87752,2.10951 8.73844,2.73582c0.75777,0.16589 5.21748,0.30213 5.49797,1.18194c0.13229,0.41498 -2.7472,5.31574 -3.11387,5.89514c-3.52005,5.56224 -7.59715,10.41423 -13.34082,11.60815c-1.01059,0.21006 -5.52697,1.58256 -6.16356,0.2528c-0.45948,-0.95978 0,-4.23283 0,-5.39988c0,-4.03546 -0.07701,-8.59462 0.92111,-12.45008c0.57873,-2.23545 1.38992,-4.41319 1.38992,-6.85547z" fill="url(#color-1)" stroke="#000000" stroke-width="2.5" stroke-linecap="round"/><path d="M308.92175,191.05559c1.43779,-0.02066 2.04919,-1.07965 3.31818,-1.36699c4.65388,-1.05383 10.84381,-3.57642 15.30905,-1.49901c0.67028,0.31185 1.8663,1.09183 2.00585,2.10299c0.4421,3.20332 -3.14009,16.07153 -4.5664,19.21658c-0.83912,1.85029 -1.10837,4.24106 -2.60939,5.55585c-2.4177,2.11772 -5.14683,-0.70049 -6.98172,-1.89365c-1.02929,-0.6693 -2.08896,-0.96969 -2.76014,-2.28368c-1.68797,-3.3046 -4.39895,-16.89505 -4.06384,-20.91202z" fill="url(#color-2)" stroke="#000000" stroke-width="2.5" stroke-linecap="round"/><path d="M319.62674,215.67284c9.3081,3.22317 5.3304,10.32241 6.64336,19.83743c0.67354,4.88106 2.71323,9.36916 2.41796,14.57306c-0.29574,5.21217 -1.25591,12.76357 -6.3964,13.61538c-1.42621,0.23633 -5.11353,0.55773 -6.17561,-0.68461c-1.06857,-1.24992 -1.3436,-4.79126 -1.65268,-6.60921c-1.52692,-8.98112 -0.21715,-16.51099 1.02917,-25.59008c0.56223,-4.09565 -0.26587,-12.92326 3.38077,-15.18461z" fill="url(#color-3)" stroke="#000000" stroke-width="2.5" stroke-linecap="round"/><path d="M348.15416,181.51324c0,2.44229 0.81121,4.62002 1.38992,6.85547c0.99812,3.85546 0.92111,8.4146 0.92111,12.45008c0,1.16706 0.45948,4.44009 0,5.39988c-0.6366,1.32976 -5.15297,-0.04272 -6.16355,-0.25279c-5.74368,-1.19391 -9.82078,-6.04589 -13.34082,-11.60815c-0.36667,-0.5794 -3.24617,-5.48015 -3.11387,-5.89514c0.28049,-0.87981 4.7402,-1.01606 5.49797,-1.18194c2.86093,-0.62631 6.10075,-1.09222 8.73845,-2.73582c0.8561,-0.53346 1.381,-1.59309 2.26128,-1.93682c1.09339,-0.42695 2.40063,-0.26739 3.33051,-1.04555z" fill="url(#color-4)" stroke="#000000" stroke-width="2.5" stroke-linecap="round"/><path d="M371.81958,142.61163c-1.88771,28.74758 -27.16115,53.41057 -56.51455,51.33535c-29.3534,-2.07522 -51.67123,-30.10282 -49.78352,-58.85038c0.47339,-7.2092 5.76672,-10.27067 6.31902,-13.39554c1.58202,-8.95095 0.655,-5.83559 20.02756,-4.01775c0.8332,0.07818 5.74313,-8.23524 6.64999,-8.17114c7.75898,0.54854 5.7078,-1.27049 15.7958,-1.14249c5.96247,0.07565 8.88236,3.30189 15.80618,4.40848c6.54489,1.04604 17.13348,-0.06229 21.56819,1.24652c5.04099,1.48773 8.31835,2.16744 11.62837,5.7346c2.10885,2.27268 1.96653,6.60837 3.42121,9.80432c2.13454,4.68953 5.37801,8.53653 5.08177,13.04803z" fill="#000000" stroke="#000000" stroke-width="2.5" stroke-linecap="butt"/><path d="M404.74826,109.12483c0,11.57764 -38.6687,20.96319 -86.36895,20.96319c-47.70025,0 -86.36894,-9.38554 -86.36894,-20.96319c0,-11.57764 38.6687,-20.96321 86.36895,-20.96321c47.70025,0 86.36895,9.38554 86.36895,20.96321z" fill="#000000" stroke="#000000" stroke-width="2.5" stroke-linecap="butt"/><path d="M272.68025,109.12483c0,0 -13.10045,-39.6542 0,-57.51709c13.10045,-17.86288 30.69715,-15.93221 45.98587,-15.93221c15.04171,0 34.57466,1.22155 45.01754,15.93222c10.44286,14.71068 0,57.51709 0,57.51709z" fill="#000000" stroke="#000000" stroke-width="2.5" stroke-linecap="butt"/><path d="M267.7028,90.95673v-6.98773c0,0 35.06678,2.96189 51.8176,2.96189c16.23148,0 47.17838,-2.96189 47.17838,-2.96189v6.98773c0,0 -31.09755,2.96189 -47.55899,2.96189c-16.53687,0 -51.437,-2.96189 -51.437,-2.96189z" fill="url(#color-5)" stroke="#000000" stroke-width="2.5" stroke-linecap="butt"/><path d="M299.73784,124.36748c-0.52223,-0.26286 -1.05583,-0.4584 -1.60027,-0.5953c0.61056,0.28598 1.17448,0.66347 1.68945,1.11904c0.29594,0.11165 0.59009,0.24008 0.88213,0.38677c-0.23058,-0.21699 -0.46214,-0.43844 -0.69181,-0.66811l-0.13814,-0.05472c0,0 -0.12512,-0.06256 -0.14138,-0.18769zM282.5552,129.37215c0.28484,-0.50824 0.6514,-0.997 1.1118,-1.45983c0.29283,-0.29283 0.60375,-0.56658 0.92975,-0.82337c1.24759,-2.04832 3.2018,-3.34406 5.60215,-3.99924c-1.44583,0.16498 -2.86717,0.52254 -4.29889,1.15272c-1.5334,1.1551 -2.69336,3.10126 -3.3448,5.12973zM302.25562,127.86442c-0.11534,-0.25212 -0.23524,-0.50359 -0.36063,-0.75159c-0.15306,-0.13119 -0.3163,-0.25051 -0.48824,-0.35924c0.22108,0.34194 0.42634,0.70308 0.61537,1.08115c0.45518,0.91085 0.73356,1.84875 0.85569,2.79369c-0.07421,-0.82663 -0.24355,-1.63823 -0.53072,-2.41553c-0.02821,-0.11836 -0.05872,-0.23451 -0.09147,-0.34848zM293.48557,143.12939c-0.80594,-0.05291 -1.60555,-0.16222 -2.39509,-0.32303c-0.19617,0.01568 -0.39345,0.02754 -0.592,0.03545c0.0984,0.038 0.19792,0.07527 0.2986,0.11179c0.48428,0.17668 0.97951,0.31879 1.48048,0.42471c0.38122,-0.05049 0.75652,-0.1251 1.12277,-0.22561c0.02831,-0.00772 0.05673,-0.01548 0.08525,-0.0233zM290.71563,143.4555c-0.02985,-0.01055 -0.05966,-0.02121 -0.08943,-0.03201c-0.48924,-0.1783 -0.95338,-0.37366 -1.39621,-0.58562c-0.41583,-0.01902 -0.83833,-0.05565 -1.26891,-0.1111c-3.54071,-0.50675 -5.95064,-2.80007 -6.34357,-6.42879c-0.05409,-0.50897 -0.05102,-1.039 0.00156,-1.57912c-0.03504,-0.20019 -0.06424,-0.40246 -0.08761,-0.60661c-0.46401,2.94253 0.05085,5.30164 2.76001,7.27861c1.7905,1.19346 4.1375,1.99958 6.42415,2.06463zM286.38162,126.80424c-0.26777,0.2101 -0.52955,0.44228 -0.78508,0.69807c-0.53174,0.52792 -1.04105,1.16888 -1.49896,1.87959c-0.92064,2.18486 -1.08311,4.58848 -0.28063,6.71572c-0.32441,-1.13067 -0.19626,-2.33879 0.20304,-3.49693c0.02348,-0.4963 0.08623,-1.00541 0.19145,-1.52899c0.30454,-0.9206 0.74165,-1.69677 1.27851,-2.36521c0.33627,-0.59322 0.7721,-1.15221 1.3073,-1.65806c0.42404,-0.34699 0.88752,-0.7125 1.37977,-1.07198c0.12302,-0.12885 0.24851,-0.25492 0.3765,-0.37807c-0.08797,0.03171 -0.17548,0.06502 -0.26252,0.09997c-0.25572,0.13494 -0.50916,0.27095 -0.76021,0.40701c-0.38703,0.20954 -0.77201,0.44319 -1.14919,0.69888zM286.1568,139.21031c-0.01442,-0.02067 -0.02878,-0.04135 -0.04308,-0.06204c-0.4716,-0.3323 -0.90356,-0.72444 -1.28279,-1.18922c0.08127,0.10999 0.16595,0.21856 0.25406,0.32562c0.28384,0.35041 0.6488,0.65735 1.07181,0.92564zM285.86493,126.21282c1.17265,-0.71379 2.46638,-1.27407 3.77478,-1.75494c0.343,-0.16411 0.6893,-0.32311 1.03868,-0.47499c0.5387,-0.31399 1.11057,-0.58303 1.71735,-0.80068c-0.34691,0.03933 -0.68942,0.09001 -1.02617,0.15267c-2.25306,0.41586 -4.14662,1.34278 -5.50464,2.87794zM301.2441,124.2006c0.37226,0.31603 0.73158,0.67994 1.07745,1.09527c0.38653,0.54062 0.73061,1.06175 1.03443,1.57523c-0.30043,-1.13721 -0.88933,-2.09782 -1.93731,-2.61325c-0.05796,-0.01927 -0.11615,-0.03836 -0.17457,-0.05726zM288.11064,142.24169c-0.42127,-0.24837 -0.82335,-0.51397 -1.21037,-0.79628c-0.34464,-0.15454 -0.68564,-0.31829 -1.02261,-0.49076c-1.77273,-1.06625 -3.00612,-2.56041 -3.7104,-4.30469c0.48952,3.16693 2.68436,5.12842 5.86111,5.58137c0.02746,0.00353 0.05488,0.00699 0.08227,0.01037zM292.91676,125.12615c-0.49934,0.09926 -0.99705,0.21325 -1.4917,0.33465c-0.14986,0.09277 -0.29876,0.18731 -0.44663,0.28345c-1.48186,1.30917 -2.63577,2.97489 -3.28189,4.8881c-0.73666,2.17705 -0.83327,4.42863 -0.01789,6.41812c1.10027,1.00638 2.38488,1.76327 3.74263,2.38162c1.27524,0.10948 2.50631,0.03883 3.43475,-0.21219c2.10263,-0.405 5.22968,-2.35594 7.01483,-4.22828c0.80905,-2.26217 0.82946,-4.68363 -0.29597,-6.93326c-0.32359,-0.64719 -0.69648,-1.24367 -1.1174,-1.77515c-1.86548,-0.72044 -4.28624,-0.68769 -6.03047,-0.9697c-0.51128,-0.08329 -1.015,-0.14733 -1.51027,-0.18735zM295.99788,142.3428c0.32821,-0.1202 0.65686,-0.24936 0.9818,-0.38873c-0.79699,0.17871 -1.63844,0.24412 -2.47897,0.19971c-0.5076,0.15036 -1.0161,0.27929 -1.5287,0.384c0.85037,0.03302 1.72666,-0.0245 2.6095,-0.13485c0.13867,-0.01712 0.27752,-0.03718 0.41637,-0.06012zM287.98502,138.67053c-0.28906,-0.42688 -0.52971,-0.87108 -0.72468,-1.32883c-0.39252,-0.3654 -0.76222,-0.76196 -1.10448,-1.19441c-0.68348,-0.86565 -1.13566,-1.82385 -1.35719,-2.80841c-0.08842,0.37462 -0.1517,0.74748 -0.17881,1.11016c0.14704,0.90176 0.43332,1.76042 0.83191,2.59097c0.11291,0.10685 0.23876,0.20721 0.37848,0.30036c0.52707,0.5488 1.28401,0.99223 2.15476,1.33016zM304.46658,131.07381c-0.01363,0.16417 -0.03055,0.32823 -0.05064,0.49207c0.45685,2.2185 0.35387,4.56815 -0.90942,6.48464c-1.32884,2.20976 -3.67298,3.7861 -6.17531,4.5012c0.74261,-0.07999 1.46236,-0.21369 2.14484,-0.43494c0.05811,-0.03906 0.11586,-0.07893 0.17324,-0.1196c2.78024,-1.73846 5.04467,-4.42217 5.06507,-7.87565c0.00931,-1.12708 -0.0694,-2.12223 -0.24777,-3.04772zM287.16869,141.0182c0.30933,0.13752 0.62162,0.26741 0.9366,0.38929c-0.43082,-0.33996 -0.83691,-0.74219 -1.21369,-1.21494c-0.01925,-0.02416 -0.03843,-0.04833 -0.05753,-0.07251c-0.86552,-0.39211 -1.6128,-0.89024 -2.13525,-1.51776c-1.6443,-2.00063 -2.17018,-4.5136 -1.77305,-6.96843c-0.27417,0.67119 -0.49297,1.3613 -0.63966,2.04529c0.13628,1.15647 0.48837,2.3232 0.92528,3.43662c1.2773,1.52029 2.50628,2.83307 3.95729,3.90243zM299.96058,140.16789c0.57456,-0.50058 1.0599,-1.07449 1.40844,-1.73604c-0.71324,0.66946 -1.41882,1.23108 -2.16439,1.68087c-0.467,0.32314 -0.96272,0.60387 -1.48431,0.83432c-0.16531,0.07282 -0.33003,0.14405 -0.49426,0.21361c0.26953,0.0025 0.53113,-0.01341 0.78456,-0.04798c0.03595,-0.01472 0.07171,-0.02974 0.10728,-0.04506c0.66972,-0.28697 1.28464,-0.58147 1.84268,-0.89971zM301.38193,136.14982c-1.87999,1.6544 -4.50706,3.16356 -6.41143,3.55679c-0.6497,0.17637 -1.41386,0.26866 -2.22853,0.27955c0.60493,0.23497 1.21695,0.4505 1.82695,0.65569c2.67038,-0.10709 4.67068,-1.25407 6.36958,-3.66464c0.15908,-0.27183 0.30714,-0.54785 0.44343,-0.82738zM292.91579,140.58635c-0.54307,-0.20442 -1.08151,-0.42273 -1.60951,-0.6609c-0.62601,-0.0598 -1.25955,-0.16276 -1.87524,-0.30779c0.21982,0.21146 0.45746,0.40714 0.7099,0.58678c0.91892,0.18214 1.85708,0.29014 2.75585,0.38001c0.00634,0.00064 0.01267,0.00127 0.019,0.0019zM286.0827,129.91066c-0.30038,0.65958 -0.65443,1.44648 -0.94065,2.26789c0.05869,1.27499 0.52776,2.54826 1.4061,3.65874c0.10919,0.1384 0.22135,0.27296 0.33632,0.40386c-0.48184,-1.83765 -0.31678,-3.83268 0.33844,-5.76907c0.40351,-1.19031 0.99428,-2.29064 1.73372,-3.27491c-0.54395,0.42764 -1.06641,0.86772 -1.56295,1.3094c-0.44099,0.39145 -0.89121,0.86861 -1.31099,1.40409zM302.24101,138.3355c0.83371,-1.00345 1.3537,-2.26885 1.53526,-3.98843c-0.18876,0.56161 -0.4095,1.11039 -0.65679,1.6402c-0.17987,0.64138 -0.40433,1.27488 -0.67062,1.89622c-0.06669,0.15561 -0.13599,0.30627 -0.20785,0.45201zM300.70902,138.09503c0.68455,-0.78536 1.25576,-1.67828 1.69171,-2.62387c0.03711,-0.14388 0.07262,-0.28847 0.10641,-0.43364c-0.06595,0.07466 -0.13404,0.14947 -0.20414,0.22432c-0.24993,0.67898 -0.56741,1.34368 -0.944,1.98589c-0.21154,0.30071 -0.42801,0.58303 -0.64997,0.8473zM288.51157,139.36471c-0.9093,-0.28837 -1.74584,-0.67506 -2.41717,-1.15618c0.12234,0.19773 0.25065,0.3942 0.38453,0.58963c0.76892,0.52762 1.6484,0.88991 2.57353,1.14889c-0.01869,-0.01823 -0.03726,-0.03658 -0.05572,-0.05503c-0.17164,-0.17176 -0.33328,-0.34764 -0.48518,-0.52731zM286.12292,128.72579c-0.07417,0.08318 -0.14661,0.16823 -0.21724,0.25524c-0.1577,0.28119 -0.29116,0.57046 -0.40039,0.86551c0.04848,-0.06541 0.09749,-0.13011 0.14696,-0.19408c0.07847,-0.1738 0.15387,-0.33978 0.22436,-0.49656c0.08034,-0.14476 0.16243,-0.28817 0.2463,-0.43011zM292.80744,141.40058c0.53283,0.13252 1.08126,0.21678 1.63058,0.25152c0.27597,-0.08309 0.55174,-0.17266 0.82788,-0.26824c-0.4029,0.03806 -0.8249,0.05636 -1.26924,0.05461c-0.36588,-0.00146 -0.76602,-0.01327 -1.18922,-0.0379zM304.45227,128.9769c0.19589,0.43248 0.3545,0.9013 0.46678,1.41844c1.1495,2.86901 0.17508,6.79916 -1.43871,9.26512c-1.00744,1.53406 -2.30048,2.40357 -3.75703,2.89283c-2.2041,1.47378 -4.90478,1.84903 -7.46679,1.32899c-2.84141,0.34604 -5.96187,-0.55493 -8.25112,-2.08134c-3.20946,-2.34086 -3.56309,-5.24391 -2.74834,-8.91112c0.06504,-0.2918 0.14683,-0.5793 0.24392,-0.86196c0.26147,-3.00019 1.78787,-6.45461 4.14566,-8.21649c2.89352,-1.30359 5.77979,-1.50569 8.87679,-1.2325c0.12379,0.00119 0.24776,0.00355 0.37186,0.00703c0.50223,-0.07003 0.99327,-0.10771 1.47258,-0.10914c0.22536,-0.01324 0.45139,-0.02008 0.67805,-0.02008c3.66669,0 6.19731,1.31891 7.15816,5.09923c0.11763,0.46731 0.19936,0.94211 0.2482,1.42099zM302.68178,134.01055c0.01461,-0.02123 0.02897,-0.04241 0.04308,-0.06353c0.02797,-0.16885 0.05327,-0.33813 0.0757,-0.50768c-0.03403,0.19099 -0.07368,0.38145 -0.11878,0.57121zM282.25701,131.99026c0.2963,-0.8213 0.67654,-1.62393 1.1142,-2.36996c-0.38345,0.5053 -0.71999,1.04037 -0.99476,1.59985c-0.05557,0.25402 -0.09486,0.51097 -0.11944,0.77011zM303.39738,129.78723c0.06178,0.30654 0.11163,0.61434 0.14985,0.92295c0.01192,-0.12431 0.02269,-0.24971 0.03211,-0.37592c-0.05754,-0.1844 -0.11835,-0.36687 -0.18196,-0.54703zM290.83223,141.20181c-0.9993,-0.14453 -2.02884,-0.36434 -2.97846,-0.68356c0.95954,0.94976 2.07691,1.50113 3.2857,1.78337c0.68413,-0.05867 1.35429,-0.16528 2.01828,-0.3132c-0.81406,-0.15862 -1.60368,-0.42194 -2.32552,-0.78662zM288.91792,126.058c0.65151,-0.34123 1.33374,-0.65074 2.02759,-0.94989c-0.21304,0.01545 -0.4241,0.03714 -0.6331,0.06553c-0.48002,0.27192 -0.94766,0.57295 -1.39449,0.88436zM301.08222,140.04629c-0.02649,0.02819 -0.05316,0.056 -0.08001,0.08343c0.08176,-0.06526 0.16242,-0.13174 0.24191,-0.19942c-0.05332,0.03905 -0.10728,0.0777 -0.1619,0.11599zM287.12573,128.07595c0.53308,-0.4713 1.09419,-0.93967 1.67846,-1.39283c-0.42483,0.23373 -0.83413,0.48373 -1.22141,0.75726c-0.15746,0.20719 -0.30976,0.41924 -0.45705,0.63556zM299.8297,125.57576c-0.08445,-0.08463 -0.17046,-0.16691 -0.25802,-0.24674c-1.59397,-0.58495 -3.23851,-0.65871 -4.88346,-0.48055c1.55248,0.23441 3.46898,0.28024 5.14148,0.72729zM288.25296,138.16802c0.16845,0.26859 0.35667,0.53048 0.56545,0.78469c0.34508,0.1013 0.70092,0.18806 1.06157,0.26029c-0.56496,-0.31368 -1.11003,-0.65921 -1.62702,-1.04498zM295.13382,143.16323c-0.48035,0.15429 -0.95319,0.29247 -1.40731,0.41832c1.3868,0.09631 2.77919,-0.08941 4.07056,-0.59007c-0.86092,0.1196 -1.75534,0.16131 -2.66325,0.17174zM296.20538,141.57259c-0.02273,0.00869 -0.04546,0.01735 -0.06819,0.02596c0.04226,-0.00549 0.08442,-0.0113 0.12649,-0.01742c-0.01941,-0.00277 -0.03884,-0.00562 -0.05831,-0.00854zM292.92216,124.61405c1.83924,-0.35808 3.70007,-0.50677 5.51351,-0.12709c-0.93508,-0.54941 -2.00324,-0.85517 -3.19837,-0.84771c-0.78361,0.25637 -1.55802,0.58793 -2.31514,0.9748zM285.05328,137.35824c-0.06956,-0.06725 -0.1347,-0.13663 -0.19558,-0.20801c0.09639,0.14776 0.19786,0.28881 0.30406,0.42348c-0.03695,-0.07163 -0.07311,-0.14345 -0.10848,-0.21547zM291.63304,124.58193c0.06303,-0.04538 0.1265,-0.09019 0.19039,-0.13444c-0.11189,0.04331 -0.22359,0.08908 -0.335,0.13709c0.04812,-0.00116 0.09632,-0.00204 0.14461,-0.00265z" fill="#ffffff" stroke="none" stroke-width="0.5" stroke-linecap="butt"/><path d="M336.56297,143.04012c0.52223,0.26286 1.05583,0.4584 1.60027,0.59529c-0.61056,-0.28598 -1.17448,-0.66347 -1.68945,-1.11904c-0.29594,-0.11165 -0.59009,-0.24009 -0.88214,-0.38678c0.23058,0.21699 0.46214,0.43845 0.6918,0.66811l0.13814,0.05472c0,0 0.12512,0.06256 0.14137,0.18769zM353.7456,138.03545c-0.28483,0.50824 -0.65139,0.997 -1.1118,1.45983c-0.29282,0.29282 -0.60376,0.56658 -0.92975,0.82337c-1.24759,2.04832 -3.2018,3.34406 -5.60215,3.99924c1.44583,-0.16498 2.86717,-0.52254 4.29889,-1.15272c1.53339,-1.1551 2.69336,-3.10126 3.34481,-5.12973zM334.04519,139.54318c0.11534,0.25212 0.23523,0.50359 0.36063,0.75159c0.15306,0.13118 0.3163,0.2505 0.48824,0.35923c-0.22108,-0.34194 -0.42633,-0.70307 -0.61537,-1.08114c-0.45518,-0.91085 -0.73356,-1.84875 -0.8557,-2.79369c0.07421,0.82663 0.24356,1.63822 0.53072,2.41553c0.02821,0.11836 0.05872,0.23451 0.09148,0.34848zM342.81523,124.2782c0.80594,0.05291 1.60555,0.16222 2.39509,0.32304c0.19617,-0.01568 0.39346,-0.02754 0.59201,-0.03544c-0.09841,-0.038 -0.19792,-0.07527 -0.2986,-0.11179c-0.48428,-0.17668 -0.97951,-0.31879 -1.48048,-0.42471c-0.38122,0.05049 -0.75651,0.1251 -1.12277,0.22562c-0.02831,0.00771 -0.05672,0.01548 -0.08524,0.0233zM345.58517,123.9521c0.02985,0.01055 0.05966,0.02122 0.08943,0.03201c0.48924,0.1783 0.95339,0.37366 1.39621,0.58562c0.41583,0.01902 0.83833,0.05565 1.2689,0.11109c3.54071,0.50675 5.95065,2.80008 6.34357,6.4288c0.0541,0.50896 0.05102,1.039 -0.00156,1.57912c0.03504,0.20019 0.06424,0.40246 0.08761,0.60661c0.46401,-2.94252 -0.05084,-5.30164 -2.76001,-7.27862c-1.7905,-1.19347 -4.1375,-1.99958 -6.42415,-2.06463zM349.91918,140.60335c0.26776,-0.2101 0.52955,-0.44228 0.78508,-0.69807c0.53174,-0.52792 1.04105,-1.16888 1.49895,-1.87959c0.92064,-2.18486 1.08311,-4.58848 0.28064,-6.71572c0.32441,1.13067 0.19627,2.33879 -0.20304,3.49693c-0.02348,0.49631 -0.08623,1.00541 -0.19145,1.529c-0.30453,0.9206 -0.74165,1.69677 -1.27851,2.36522c-0.33627,0.59322 -0.7721,1.15221 -1.3073,1.65806c-0.42404,0.34699 -0.88752,0.71249 -1.37977,1.07198c-0.12302,0.12884 -0.24851,0.25492 -0.37651,0.37807c0.08797,-0.03171 0.17548,-0.06502 0.26252,-0.09997c0.25572,-0.13494 0.50916,-0.27095 0.76021,-0.40701c0.38702,-0.20953 0.77201,-0.4432 1.14919,-0.69888zM350.144,128.19728c0.01442,0.02067 0.02877,0.04135 0.04307,0.06204c0.47161,0.33229 0.90356,0.72445 1.28279,1.18922c-0.08127,-0.10999 -0.16594,-0.21856 -0.25406,-0.32562c-0.28384,-0.3504 -0.6488,-0.65735 -1.0718,-0.92564zM350.43587,141.19477c-1.17266,0.71379 -2.46639,1.27407 -3.77479,1.75494c-0.343,0.16411 -0.6893,0.32312 -1.03868,0.47499c-0.5387,0.31399 -1.11056,0.58303 -1.71735,0.80068c0.3469,-0.03933 0.68941,-0.09 1.02617,-0.15266c2.25306,-0.41586 4.14662,-1.34278 5.50464,-2.87795zM335.0567,143.20699c-0.37227,-0.31603 -0.73158,-0.67994 -1.07745,-1.09527c-0.38653,-0.54063 -0.73062,-1.06175 -1.03443,-1.57523c0.30043,1.1372 0.88933,2.09782 1.93731,2.61325c0.05796,0.01927 0.11615,0.03836 0.17457,0.05726zM348.19016,125.1659c0.42127,0.24838 0.82335,0.51397 1.21037,0.79628c0.34464,0.15454 0.68563,0.31829 1.02261,0.49077c1.77272,1.06625 3.00612,2.56041 3.7104,4.30469c-0.48951,-3.16693 -2.68436,-5.12842 -5.86111,-5.58137c-0.02746,-0.00353 -0.05488,-0.00699 -0.08227,-0.01037zM343.38404,142.28145c0.49934,-0.09926 0.99705,-0.21326 1.4917,-0.33465c0.14986,-0.09277 0.29875,-0.18731 0.44663,-0.28345c1.48186,-1.30917 2.63576,-2.97489 3.28189,-4.8881c0.73665,-2.17705 0.83327,-4.42863 0.01789,-6.41812c-1.10026,-1.00638 -2.38488,-1.76327 -3.74264,-2.38162c-1.27524,-0.10948 -2.50631,-0.03883 -3.43475,0.2122c-2.10263,0.405 -5.22967,2.35594 -7.01484,4.22828c-0.80905,2.26217 -0.82945,4.68364 0.29597,6.93326c0.3236,0.64719 0.69648,1.24366 1.1174,1.77515c1.86548,0.72044 4.28625,0.68769 6.03047,0.9697c0.51128,0.08329 1.015,0.14733 1.51027,0.18735zM340.30293,125.0648c-0.32822,0.12019 -0.65686,0.24936 -0.9818,0.38873c0.79699,-0.17872 1.63843,-0.24411 2.47897,-0.1997c0.50759,-0.15035 1.0161,-0.27929 1.52871,-0.384c-0.85037,-0.03302 -1.72666,0.0245 -2.6095,0.13486c-0.13867,0.01712 -0.27752,0.03718 -0.41637,0.06012zM348.31578,128.73706c0.28906,0.42688 0.52971,0.87108 0.72468,1.32883c0.39252,0.3654 0.76222,0.76196 1.10448,1.19441c0.68349,0.86565 1.13567,1.82386 1.35719,2.80841c0.08842,-0.37462 0.1517,-0.74748 0.17881,-1.11016c-0.14704,-0.90176 -0.43332,-1.76042 -0.83191,-2.59096c-0.11291,-0.10685 -0.23876,-0.20721 -0.37848,-0.30036c-0.52706,-0.5488 -1.28402,-0.99223 -2.15476,-1.33016zM331.83422,136.33378c0.01363,-0.16416 0.03055,-0.32824 0.05063,-0.49207c-0.45685,-2.2185 -0.35388,-4.56815 0.90942,-6.48464c1.32884,-2.20976 3.67299,-3.7861 6.17532,-4.5012c-0.74261,0.07998 -1.46236,0.21369 -2.14484,0.43494c-0.05811,0.03906 -0.11586,0.07892 -0.17323,0.1196c-2.78024,1.73846 -5.04467,4.42217 -5.06507,7.87565c-0.00931,1.12708 0.06939,2.12223 0.24777,3.04772zM349.13211,126.38939c-0.30933,-0.13752 -0.62162,-0.26741 -0.9366,-0.38929c0.43083,0.33997 0.83691,0.74219 1.21368,1.21493c0.01925,0.02416 0.03843,0.04833 0.05753,0.07251c0.86552,0.3921 1.61281,0.89024 2.13525,1.51776c1.6443,2.00063 2.17018,4.51361 1.77305,6.96843c0.27417,-0.6712 0.49297,-1.3613 0.63966,-2.04529c-0.13628,-1.15646 -0.48837,-2.32319 -0.92528,-3.43662c-1.27729,-1.5203 -2.50628,-2.83307 -3.95729,-3.90243zM336.34023,127.23971c-0.57457,0.50058 -1.0599,1.07449 -1.40844,1.73604c0.71324,-0.66945 1.41881,-1.23108 2.16439,-1.68087c0.467,-0.32315 0.96272,-0.60387 1.48431,-0.83432c0.16532,-0.07282 0.33003,-0.14406 0.49426,-0.21361c-0.26952,-0.0025 -0.53113,0.01341 -0.78456,0.04799c-0.03595,0.01472 -0.07171,0.02975 -0.10729,0.04506c-0.66971,0.28697 -1.28463,0.58147 -1.84267,0.89971zM334.91888,131.25777c1.88,-1.6544 4.50706,-3.16356 6.41143,-3.55679c0.6497,-0.17637 1.41386,-0.26865 2.22853,-0.27954c-0.60494,-0.23497 -1.21695,-0.45051 -1.82695,-0.65569c-2.67037,0.10709 -4.67068,1.25408 -6.36958,3.66465c-0.15909,0.27183 -0.30714,0.54785 -0.44343,0.82738zM343.38501,126.82124c0.54307,0.20442 1.08152,0.42273 1.60951,0.6609c0.62601,0.0598 1.25955,0.16276 1.87524,0.30779c-0.21982,-0.21147 -0.45746,-0.40714 -0.7099,-0.58678c-0.91893,-0.18214 -1.85708,-0.29014 -2.75585,-0.38001c-0.00633,-0.00064 -0.01268,-0.00127 -0.019,-0.0019zM350.2181,137.49693c0.30038,-0.65958 0.65443,-1.44648 0.94065,-2.26789c-0.05869,-1.27498 -0.52776,-2.54825 -1.4061,-3.65873c-0.10919,-0.1384 -0.22135,-0.27296 -0.33632,-0.40386c0.48184,1.83765 0.31678,3.83267 -0.33844,5.76907c-0.40351,1.19031 -0.99428,2.29064 -1.73372,3.27491c0.54395,-0.42764 1.06641,-0.86772 1.56295,-1.30939c0.44099,-0.39145 0.89121,-0.86861 1.31099,-1.40409zM334.05979,129.07209c-0.83371,1.00345 -1.3537,2.26884 -1.53526,3.98843c0.18876,-0.56161 0.40949,-1.11039 0.65679,-1.6402c0.17987,-0.64139 0.40433,-1.27488 0.67062,-1.89622c0.06669,-0.15561 0.13599,-0.30627 0.20785,-0.45201zM335.59178,129.31257c-0.68455,0.78536 -1.25576,1.67828 -1.69171,2.62387c-0.03711,0.14389 -0.07262,0.28847 -0.1064,0.43364c0.06595,-0.07467 0.13404,-0.14947 0.20414,-0.22432c0.24993,-0.67898 0.56741,-1.34367 0.944,-1.98589c0.21154,-0.30071 0.42802,-0.58302 0.64997,-0.8473zM347.78923,128.04289c0.90929,0.28837 1.74585,0.67506 2.41717,1.15618c-0.12234,-0.19773 -0.25064,-0.39421 -0.38453,-0.58964c-0.76892,-0.52762 -1.6484,-0.8899 -2.57353,-1.14889c0.01869,0.01824 0.03727,0.03657 0.05572,0.05503c0.17164,0.17176 0.33328,0.34765 0.48517,0.52732zM350.17788,138.68181c0.07417,-0.08318 0.14661,-0.16822 0.21724,-0.25524c0.1577,-0.28119 0.29116,-0.57046 0.40039,-0.86551c-0.04848,0.0654 -0.09749,0.13011 -0.14696,0.19409c-0.07848,0.1738 -0.15387,0.33978 -0.22436,0.49656c-0.08034,0.14476 -0.16243,0.28816 -0.24631,0.43011zM343.49336,126.00702c-0.53283,-0.13252 -1.08126,-0.21678 -1.63058,-0.25152c-0.27596,0.08309 -0.55174,0.17266 -0.82788,0.26824c0.4029,-0.03806 0.82489,-0.05635 1.26924,-0.05461c0.36588,0.00146 0.76603,0.01327 1.18923,0.03789zM331.84853,138.4307c-0.1959,-0.43249 -0.35451,-0.9013 -0.46678,-1.41844c-1.1495,-2.86901 -0.17507,-6.79916 1.43872,-9.26512c1.00743,-1.53406 2.30049,-2.40357 3.75703,-2.89283c2.2041,-1.47377 4.90478,-1.84904 7.46679,-1.32899c2.84141,-0.34604 5.96187,0.55494 8.25111,2.08134c3.20945,2.34086 3.56309,5.24392 2.74835,8.91112c-0.06504,0.2918 -0.14684,0.57929 -0.24392,0.86195c-0.26148,3.00019 -1.78788,6.4546 -4.14566,8.21649c-2.89353,1.30359 -5.77979,1.5057 -8.8768,1.23251c-0.12379,-0.00119 -0.24776,-0.00355 -0.37186,-0.00704c-0.50223,0.07004 -0.99327,0.10771 -1.47258,0.10915c-0.22535,0.01324 -0.45139,0.02007 -0.67805,0.02007c-3.66669,0 -6.19731,-1.31891 -7.15815,-5.09923c-0.11763,-0.46732 -0.19936,-0.94212 -0.2482,-1.42099zM333.61903,133.39705c-0.01461,0.02123 -0.02897,0.04241 -0.04308,0.06354c-0.02797,0.16885 -0.05327,0.33813 -0.0757,0.50768c0.03403,-0.19099 0.07368,-0.38145 0.11878,-0.57121zM354.04379,135.41734c-0.29631,0.8213 -0.67655,1.62393 -1.11421,2.36996c0.38345,-0.50529 0.71999,-1.04037 0.99476,-1.59985c0.05557,-0.25402 0.09486,-0.51097 0.11945,-0.77011zM332.90342,137.62037c-0.06178,-0.30654 -0.11163,-0.61434 -0.14985,-0.92295c-0.01192,0.1243 -0.02268,0.24971 -0.03211,0.37591c0.05755,0.1844 0.11835,0.36688 0.18196,0.54703zM345.46858,126.20579c0.9993,0.14453 2.02883,0.36434 2.97846,0.68356c-0.95954,-0.94976 -2.0769,-1.50113 -3.2857,-1.78337c-0.68413,0.05867 -1.35428,0.16528 -2.01828,0.3132c0.81406,0.15861 1.60368,0.42194 2.32552,0.78662zM347.38288,141.34959c-0.65151,0.34123 -1.33374,0.65074 -2.0276,0.94989c0.21304,-0.01544 0.4241,-0.03714 0.6331,-0.06553c0.48001,-0.27192 0.94766,-0.57296 1.3945,-0.88436zM335.21858,127.3613c0.02648,-0.02819 0.05316,-0.05599 0.08001,-0.08343c-0.08176,0.06526 -0.16242,0.13173 -0.24191,0.19942c0.05331,-0.03904 0.10728,-0.07771 0.1619,-0.11599zM349.17507,139.33164c-0.53309,0.4713 -1.09419,0.93967 -1.67846,1.39282c0.42483,-0.23373 0.83414,-0.48373 1.22141,-0.75726c0.15746,-0.2072 0.30976,-0.41924 0.45705,-0.63556zM336.4711,141.83184c0.08445,0.08463 0.17046,0.16691 0.25802,0.24675c1.59398,0.58495 3.23852,0.65871 4.88346,0.48055c-1.55248,-0.23442 -3.46898,-0.28024 -5.14148,-0.72729zM348.04785,129.23958c-0.16845,-0.26859 -0.35668,-0.53048 -0.56546,-0.78469c-0.34508,-0.1013 -0.70091,-0.18806 -1.06156,-0.26029c0.56495,0.31368 1.11004,0.65921 1.62702,1.04498zM341.16698,124.24436c0.48035,-0.15429 0.95319,-0.29247 1.40731,-0.41832c-1.3868,-0.09631 -2.77919,0.08942 -4.07056,0.59007c0.86092,-0.1196 1.75534,-0.16131 2.66325,-0.17175zM340.09542,125.83501c0.02274,-0.00869 0.04546,-0.01735 0.06818,-0.02597c-0.04226,0.00549 -0.08442,0.01129 -0.12649,0.01742c0.01941,0.00277 0.03884,0.00562 0.05831,0.00855zM343.37865,142.79354c-1.83923,0.35808 -3.70007,0.50677 -5.51351,0.12708c0.93508,0.54941 2.00324,0.85518 3.19837,0.84771c0.78361,-0.25637 1.55802,-0.58792 2.31514,-0.9748zM351.24752,130.04936c0.06957,0.06725 0.1347,0.13663 0.19558,0.20801c-0.09639,-0.14776 -0.19786,-0.28881 -0.30406,-0.42348c0.03695,0.07163 0.07311,0.14345 0.10848,0.21547zM344.66776,142.82566c-0.06304,0.04538 -0.12651,0.09019 -0.1904,0.13444c0.11188,-0.04331 0.22359,-0.08908 0.33501,-0.13709c-0.04811,0.00116 -0.09632,0.00204 -0.14461,0.00265z" fill="#ffffff" stroke="none" stroke-width="0.5" stroke-linecap="butt"/></g></g></svg>