<svg version="1.1" xmlns="http://www.w3.org/2000/svg" xmlns:xlink="http://www.w3.org/1999/xlink" width="136.53002" height="336.27135" viewBox="0,0,136.53002,336.27135"><defs><linearGradient x1="328.7901" y1="163.08119" x2="323.63096" y2="341.96946" gradientUnits="userSpaceOnUse" id="color-1"><stop offset="0" stop-color="#f2acec"/><stop offset="1" stop-color="#cea1ff"/></linearGradient><linearGradient x1="285.6147" y1="173.21953" x2="283.5762" y2="288.5403" gradientUnits="userSpaceOnUse" id="color-2"><stop offset="0" stop-color="#9b60f2"/><stop offset="1" stop-color="#8784ca"/></linearGradient><linearGradient x1="371.16358" y1="171.50096" x2="369.12509" y2="286.82173" gradientUnits="userSpaceOnUse" id="color-3"><stop offset="0" stop-color="#9b60f2"/><stop offset="1" stop-color="#8784ca"/></linearGradient></defs><g transform="translate(-258.54832,-13.21002)"><g stroke-miterlimit="10"><path d="M276.30967,338.98089l-0.13399,-144.18378c0,0 9.63797,-28.90844 19.49767,-29.44904c9.79149,-0.53684 32.98866,-1.41197 53.2608,-2.52345c21.98753,-1.20553 30.73744,28.63048 30.73744,28.63048l-6.85419,149.83895z" fill="url(#color-1)" stroke="#000000" stroke-width="2.5" stroke-linecap="butt"/><path d="M352.74064,171.92237c-0.34966,12.12414 -11.45549,22.10132 -24.80554,22.28464c-13.35007,0.18331 -23.88896,-9.49665 -23.5393,-21.62079c0.34966,-12.12414 11.04715,-7.94259 24.39719,-8.1259c13.35007,-0.18331 24.29731,-4.66211 23.94765,7.46205z" fill="#f2caef" stroke-opacity="0.52549" stroke="#000000" stroke-width="1.5" stroke-linecap="butt"/><path d="M344.46821,171.74659c-0.22667,7.85958 -7.74472,14.33176 -16.79206,14.45599c-9.04734,0.12423 -16.19788,-6.14651 -15.97121,-14.00609c0.22667,-7.85958 7.74473,-14.33176 16.79206,-14.45599c9.04734,-0.12423 16.19787,6.14651 15.97121,14.00609z" fill="#f235e2" stroke="#000000" stroke-width="2.5" stroke-linecap="butt"/><path d="M288.55425,203.24241l-2.29828,4.9591" fill="none" stroke-opacity="0.15294" stroke="#000000" stroke-width="2.5" stroke-linecap="round"/><path d="M287.25105,237.75316l-2.28642,-6.12805" fill="none" stroke-opacity="0.15294" stroke="#000000" stroke-width="2.5" stroke-linecap="round"/><path d="M373.28524,201.15499l-2.25385,3.41864" fill="none" stroke-opacity="0.15294" stroke="#000000" stroke-width="2.5" stroke-linecap="round"/><path d="M368.65017,223.08467l0.44721,5.84534" fill="none" stroke-opacity="0.15294" stroke="#000000" stroke-width="2.5" stroke-linecap="round"/><path d="M356.8153,185.05862c0,0 2.12508,-1.80647 2.9383,-2.49777c0.57727,-0.49072 1.48056,-1.25857 1.48056,-1.25857" fill="none" stroke-opacity="0.15294" stroke="#000000" stroke-width="2.5" stroke-linecap="round"/><path d="M297.75624,183.09786l-2.4286,-1.19854" fill="none" stroke-opacity="0.15294" stroke="#000000" stroke-width="2.5" stroke-linecap="round"/><path d="M367.1279,190.46052l-1.8481,0.02538" fill="none" stroke-opacity="0.15294" stroke="#000000" stroke-width="2.5" stroke-linecap="round"/><path d="M354.31257,261.1621l1.48677,1.82742" fill="none" stroke-opacity="0.15294" stroke="#000000" stroke-width="2.5" stroke-linecap="round"/><path d="M299.75229,284.70122l1.31202,-2.78977" fill="none" stroke-opacity="0.15294" stroke="#000000" stroke-width="2.5" stroke-linecap="round"/><path d="M311.18436,175.12931l-5.21709,4.07378" fill="none" stroke-opacity="0.15294" stroke="#000000" stroke-width="2.5" stroke-linecap="round"/><path d="M310.95525,188.09177l2.62276,-8.23089" fill="none" stroke-opacity="0.15294" stroke="#000000" stroke-width="2.5" stroke-linecap="round"/><path d="M318.69591,192.17821l1.82665,-6.31417" fill="none" stroke-opacity="0.15294" stroke="#000000" stroke-width="2.5" stroke-linecap="round"/><path d="M328.3138,187.09109l0.6546,6.08952" fill="none" stroke-opacity="0.15294" stroke="#000000" stroke-width="2.5" stroke-linecap="round"/><path d="M340.26126,190.35744l-2.53705,-7.39771" fill="none" stroke-opacity="0.15294" stroke="#000000" stroke-width="2.5" stroke-linecap="round"/><path d="M347.86336,180.72415l-5.67098,-2.59023" fill="none" stroke-opacity="0.15294" stroke="#000000" stroke-width="2.5" stroke-linecap="round"/><path d="M260.6651,293.25167c0,0 -4.59852,-36.06023 7.3881,-82.14412c11.98662,-46.08389 18.91071,-44.17246 25.41042,-43.95342c7.1677,0.24155 19.41812,5.69098 19.41812,5.69098l-16.56025,159.48777c0,0 -13.38721,15.81675 -19.34116,15.8985c-1.22559,0.01684 -16.31522,-54.97973 -16.31522,-54.97973z" fill="url(#color-2)" stroke="#000000" stroke-width="2.5" stroke-linecap="butt"/><path d="M373.6799,346.35968c-6.02543,0.08274 -19.01716,-15.37178 -19.01716,-15.37178l-11.09343,-159.10803c0,0 12.59732,-5.79063 19.86312,-6.23038c6.58867,-0.39876 13.66725,-2.50249 24.16418,43.27267c10.49693,45.77516 4.55815,81.98008 4.55815,81.98008c0,0 -17.23458,55.44042 -18.47489,55.45744z" fill="url(#color-3)" stroke="#000000" stroke-width="2.5" stroke-linecap="butt"/><path d="M293.42136,243.29529l-24.65137,-3.12076" fill="none" stroke-opacity="0.29804" stroke="#000000" stroke-width="2.5" stroke-linecap="round"/><path d="M293.95057,241.31128l4.09569,-22.04726" fill="none" stroke-opacity="0.29804" stroke="#000000" stroke-width="2.5" stroke-linecap="round"/><path d="M273.16525,215.15806l21.19161,3.16828" fill="none" stroke-opacity="0.29804" stroke="#000000" stroke-width="2.5" stroke-linecap="round"/><path d="M272.33212,220.35841l-3.01108,16.59638" fill="none" stroke-opacity="0.29804" stroke="#000000" stroke-width="2.5" stroke-linecap="round"/><path d="M297.42286,212.60115l5.56097,-21.07903" fill="none" stroke-opacity="0.29804" stroke="#000000" stroke-width="2.5" stroke-linecap="round"/><path d="M273.25261,210.21506l6.32858,-22.57211" fill="none" stroke-opacity="0.29804" stroke="#000000" stroke-width="2.5" stroke-linecap="round"/><path d="M296.611,188.64454l-10.60016,-1.33698" fill="none" stroke-opacity="0.29804" stroke="#000000" stroke-width="2.5" stroke-linecap="round"/><path d="M268.9896,299.59019l25.02278,0.63252" fill="none" stroke-opacity="0.29804" stroke="#000000" stroke-width="2.5" stroke-linecap="round"/><path d="M293.60385,275.96103l0.52053,22.24398" fill="none" stroke-opacity="0.29804" stroke="#000000" stroke-width="2.5" stroke-linecap="round"/><path d="M289.76128,275.40024l-21.61155,-1.02458" fill="none" stroke-opacity="0.29804" stroke="#000000" stroke-width="2.5" stroke-linecap="round"/><path d="M268.867,296.34642l-0.46303,-16.73729" fill="none" stroke-opacity="0.29804" stroke="#000000" stroke-width="2.5" stroke-linecap="round"/><path d="M292.73526,247.99312l-1.12909,21.43117" fill="none" stroke-opacity="0.29804" stroke="#000000" stroke-width="2.5" stroke-linecap="round"/><path d="M268.79003,246.48497l-1.57859,22.98644" fill="none" stroke-opacity="0.29804" stroke="#000000" stroke-width="2.5" stroke-linecap="round"/><path d="M275.07827,245.51162l10.75886,0.26709" fill="none" stroke-opacity="0.29804" stroke="#000000" stroke-width="2.5" stroke-linecap="round"/><path d="M356.96318,240.99806l24.7737,-3.79944" fill="none" stroke-opacity="0.29804" stroke="#000000" stroke-width="2.5" stroke-linecap="round"/><path d="M356.50388,239.02763l-3.31804,-21.94547" fill="none" stroke-opacity="0.29804" stroke="#000000" stroke-width="2.5" stroke-linecap="round"/><path d="M378.22412,212.29073l-21.31393,3.75194" fill="none" stroke-opacity="0.29804" stroke="#000000" stroke-width="2.5" stroke-linecap="round"/><path d="M381.29942,233.99245l-2.42568,-16.52173" fill="none" stroke-opacity="0.29804" stroke="#000000" stroke-width="2.5" stroke-linecap="round"/><path d="M349.22687,189.46243l4.81828,20.93651" fill="none" stroke-opacity="0.29804" stroke="#000000" stroke-width="2.5" stroke-linecap="round"/><path d="M372.77806,184.93849l5.53344,22.40922" fill="none" stroke-opacity="0.29804" stroke="#000000" stroke-width="2.5" stroke-linecap="round"/><path d="M355.70457,186.4084l10.65261,-1.62881" fill="none" stroke-opacity="0.29804" stroke="#000000" stroke-width="2.5" stroke-linecap="round"/><path d="M354.35883,297.96935l25.0573,-1.32019" fill="none" stroke-opacity="0.29804" stroke="#000000" stroke-width="2.5" stroke-linecap="round"/><path d="M355.62549,273.68467l-1.30735,22.26908" fill="none" stroke-opacity="0.29804" stroke="#000000" stroke-width="2.5" stroke-linecap="round"/><path d="M359.48975,273.01806l21.65828,-1.61874" fill="none" stroke-opacity="0.29804" stroke="#000000" stroke-width="2.5" stroke-linecap="round"/><path d="M380.70859,276.64231l-1.05512,16.75814" fill="none" stroke-opacity="0.29804" stroke="#000000" stroke-width="2.5" stroke-linecap="round"/><path d="M357.48348,245.67934l0.37181,21.41055" fill="none" stroke-opacity="0.29804" stroke="#000000" stroke-width="2.5" stroke-linecap="round"/><path d="M381.49369,243.51266l0.7665,22.95425" fill="none" stroke-opacity="0.29804" stroke="#000000" stroke-width="2.5" stroke-linecap="round"/><path d="M375.23682,242.71159l-10.77353,0.56276" fill="none" stroke-opacity="0.29804" stroke="#000000" stroke-width="2.5" stroke-linecap="round"/><path d="M355.49408,173.59644l-5.33868,-0.11729" fill="none" stroke-opacity="0.15294" stroke="#000000" stroke-width="2.5" stroke-linecap="round"/><path d="M311.19264,71.33437c-0.8309,19.73948 -2.79575,38.9925 -7.8949,48.80801c-2.9118,5.60502 -8.09868,6.76948 -11.52202,6.62537c-3.35807,-0.14135 -7.03788,-0.44223 -9.44501,-6.07179c-4.3441,-10.15957 -6.08469,-30.84283 -5.24473,-50.79725c0.46048,-10.93944 -1.16322,-22.34581 0.84343,-30.909c3.68185,-15.71197 12.47754,-24.78096 18.57349,-24.52438c5.35205,0.22527 11.09412,3.87725 13.68604,16.70939c1.96923,9.74927 1.56727,26.77079 1.0037,40.15964z" fill="#f235e2" stroke="#000000" stroke-width="2.5" stroke-linecap="butt"/><path d="M307.49613,68.63448c-0.51388,13.24954 -1.87975,26.1662 -5.6452,32.72879c-2.15021,3.74747 -6.02891,4.50083 -8.59388,4.38528c-2.51606,-0.11337 -5.27397,-0.33562 -7.10794,-4.12883c-3.3097,-6.84554 -4.72714,-20.74289 -4.20767,-34.13669c0.28479,-7.34277 -0.99413,-15.01051 0.46184,-20.74926c2.67143,-10.52959 7.96064,-9.39374 12.52806,-9.18794c4.01007,0.18069 9.58027,-4.51252 11.59224,4.1179c1.52859,6.55699 1.32109,17.98389 0.97255,26.97074z" fill="#ff6fed" stroke="#000000" stroke-width="2.5" stroke-linecap="butt"/><path d="M360.93501,34.06745c4.36681,-12.34152 10.56449,-15.15167 15.8952,-14.62375c6.07164,0.6013 13.50782,10.81472 14.94864,26.88787c0.78526,8.76003 -2.42286,19.82573 -3.50189,30.72157c-1.96826,19.87486 -6.59374,40.10927 -12.32042,49.5588c-3.17323,5.23612 -6.85885,5.01768 -10.20352,4.68646c-3.40969,-0.33767 -8.38187,-2.21838 -10.4784,-8.17652c-3.67145,-10.43388 -2.91539,-29.77213 -0.96833,-49.43292c1.32064,-13.33547 3.31103,-30.24498 6.62874,-39.62152z" fill="#f235e2" stroke="#000000" stroke-width="2.5" stroke-linecap="butt"/><path d="M362.96289,44.57639c3.19637,-8.16851 8.05694,-2.79661 12.05277,-2.41397c4.55121,0.43582 9.94685,0.06183 11.1228,10.74312c0.64089,5.82142 -1.6953,13.14974 -2.43788,20.37813c-1.35451,13.18511 -4.69712,26.59297 -8.92942,32.83299c-2.34519,3.45768 -5.10699,3.29046 -7.61411,3.05038c-2.55585,-0.24474 -6.29129,-1.5235 -7.89745,-5.49234c-2.81271,-6.95023 -2.36288,-19.78635 -1.02296,-32.82943c0.90884,-8.84683 2.29779,-20.06282 4.72625,-26.26888z" fill="#ff6fed" stroke="#000000" stroke-width="2.5" stroke-linecap="butt"/><path d="M387.03066,119.70374c0.38451,28.00028 -23.527,53.97662 -53.77679,54.39201c-30.24979,0.4154 -55.38287,-24.88745 -55.76738,-52.88771c-0.38451,-28.00027 23.8261,-51.0357 54.07588,-51.45111c30.24979,-0.4154 55.0838,21.94655 55.46832,49.9468z" fill="#f235e2" stroke="#000000" stroke-width="2.5" stroke-linecap="butt"/><path d="M354.66752,107.61219c0.0372,2.70858 -6.58445,4.99567 -14.78987,5.10836c-8.20543,0.11269 -14.88737,-1.99172 -14.92457,-4.7003c-0.0372,-2.70858 6.58445,-4.99567 14.78987,-5.10836c8.20543,-0.11269 14.88737,1.99172 14.92457,4.7003z" fill-opacity="0.18431" fill="#ff0505" stroke="none" stroke-width="0" stroke-linecap="butt"/><g fill="#ff6fed" stroke="#000000" stroke-width="2.5"><path d="M335.27358,66.94276l26.56389,-9.34906l2.17975,29.51372l-29.20976,-12.53671l-27.96165,14.10994l-0.82292,-27.8582z" stroke-linecap="round"/><path d="M345.02269,71.39377c0.20802,4.50832 -4.07711,8.21281 -9.57105,8.27425c-5.49395,0.06145 -10.11629,-3.54347 -10.3243,-8.05177c-0.20802,-4.50832 4.0771,-8.2128 9.57103,-8.27424c5.49395,-0.06145 10.1163,3.54344 10.32431,8.05175z" stroke-linecap="butt"/></g><path d="M346.26531,131.70823l-6.77119,3.97123l-4.69776,-3.19322" fill="none" stroke="#000000" stroke-width="2.5" stroke-linecap="round"/><path d="M357.37004,110.64693l7.00273,-5.9407l5.19352,4.17926" fill="none" stroke="#000000" stroke-width="2.5" stroke-linecap="round"/><path d="M309.67317,109.66651l5.0768,-4.3203l7.16321,5.74619" fill="none" stroke="#000000" stroke-width="2.5" stroke-linecap="round"/><path d="M336.97496,150.54964c1.13523,-0.25078 3.81849,0.74437 6.87502,0.3228c2.29656,-0.31676 5.29264,-2.10405 5.29264,-2.10405l-9.9146,13.66943l-8.37785,-13.22763c0,0 3.05883,2.01675 6.12479,1.33944z" fill="none" stroke="#000000" stroke-width="2.5" stroke-linecap="round"/></g></g></svg>