<svg version="1.1" xmlns="http://www.w3.org/2000/svg" xmlns:xlink="http://www.w3.org/1999/xlink" width="172.39051" height="313.3637" viewBox="0,0,172.39051,313.3637"><defs><linearGradient x1="329.73878" y1="166.53214" x2="323.95824" y2="345.27107" gradientUnits="userSpaceOnUse" id="color-1"><stop offset="0" stop-color="#383838"/><stop offset="1" stop-color="#494949"/></linearGradient><linearGradient x1="361.12428" y1="168.60889" x2="355.27999" y2="349.31885" gradientUnits="userSpaceOnUse" id="color-2"><stop offset="0" stop-color="#666666"/><stop offset="1" stop-color="#4b4b4b"/></linearGradient><linearGradient x1="299.39094" y1="165.36308" x2="293.54666" y2="346.07304" gradientUnits="userSpaceOnUse" id="color-3"><stop offset="0" stop-color="#666666"/><stop offset="1" stop-color="#4b4b4b"/></linearGradient><radialGradient cx="366.60866" cy="98.21882" r="23.24454" gradientUnits="userSpaceOnUse" id="color-4"><stop offset="0" stop-color="#000000" stop-opacity="0.92549"/><stop offset="1" stop-color="#000000" stop-opacity="0"/></radialGradient><radialGradient cx="296.99178" cy="99.57485" r="25.35587" gradientUnits="userSpaceOnUse" id="color-5"><stop offset="0" stop-color="#000000" stop-opacity="0.92549"/><stop offset="1" stop-color="#000000" stop-opacity="0"/></radialGradient><linearGradient x1="290.06941" y1="39.00301" x2="290.8542" y2="124.1982" gradientUnits="userSpaceOnUse" id="color-6"><stop offset="0" stop-color="#9c9c9c"/><stop offset="1" stop-color="#2c2c2c"/></linearGradient><linearGradient x1="376.63381" y1="42.97477" x2="373.78094" y2="131.18788" gradientUnits="userSpaceOnUse" id="color-7"><stop offset="0" stop-color="#9c9c9c"/><stop offset="1" stop-color="#2c2c2c"/></linearGradient><linearGradient x1="294.79898" y1="182.84293" x2="294.12701" y2="203.62075" gradientUnits="userSpaceOnUse" id="color-8"><stop offset="0" stop-color="#878787"/><stop offset="1" stop-color="#848484"/></linearGradient><linearGradient x1="138.94564" y1="83.00573" x2="138.90524" y2="84.25508" gradientUnits="userSpaceOnUse" id="color-9"><stop offset="0" stop-color="#878787"/><stop offset="1" stop-color="#848484"/></linearGradient></defs><g transform="translate(-247.86508,-36.53572)"><g stroke-miterlimit="10"><path d="M277.05385,340.11361l2.63239,-147.26766c0,0 7.45197,-25.47064 17.26817,-25.55862c9.74829,-0.08736 32.84169,0.10257 53.02439,-0.07832c21.89051,-0.1962 27.83256,26.88838 27.83256,26.88838l-4.703,152.76322z" fill="url(#color-1)" stroke="#000000" stroke-width="2.5" stroke-linecap="butt"/><path d="M332.37553,348.5781l12.94246,-98.34198c0,0 -3.84896,-81.17167 6.30943,-79.93899c9.36587,1.13651 14.33063,-1.8993 18.85436,-1.35037c4.55525,0.55276 12.58081,30.27726 12.58081,30.27726l-5.75223,147.16676z" fill="url(#color-2)" stroke="#000000" stroke-width="2.5" stroke-linecap="butt"/><path d="M271.75153,341.72763l3.76879,-147.2309c0,0 9.9294,-29.14382 14.51084,-29.4011c4.54975,-0.25549 9.30798,3.09478 18.72771,2.5658c10.2168,-0.57373 1.13109,80.17962 1.13109,80.17962l6.56116,98.97274z" fill="url(#color-3)" stroke="#000000" stroke-width="2.5" stroke-linecap="butt"/><path d="M344.10608,180.47731c-0.24486,7.57132 -6.46111,13.51445 -13.8844,13.27438c-7.42329,-0.24007 -13.24254,-6.57245 -12.99768,-14.14377c0.24486,-7.57132 6.46111,-13.51445 13.8844,-13.27438c7.42329,0.24007 13.24254,6.57245 12.99768,14.14377z" fill="#9c9c9c" stroke="#000000" stroke-width="2.5" stroke-linecap="butt"/><path d="M386.73434,131.16127c-2.86087,28.41053 -29.62474,51.99819 -59.72515,48.96714c-30.10041,-3.03103 -52.13897,-31.53298 -49.2781,-59.9435c2.86087,-28.41052 29.58129,-48.98468 59.6817,-45.95362c30.10041,3.03103 52.18244,28.51946 49.32157,56.92998z" fill="#9c9c9c" stroke="#000000" stroke-width="2.5" stroke-linecap="butt"/><path d="M357.93829,124.95872c-0.08756,2.70742 -6.8075,4.6872 -15.0094,4.42194c-8.20191,-0.26526 -14.77987,-2.67509 -14.69231,-5.38251c0.08756,-2.70742 6.8075,-4.6872 15.0094,-4.42194c8.20191,0.26526 14.77987,2.67509 14.69231,5.38251z" fill-opacity="0.18431" fill="#000000" stroke="none" stroke-width="0" stroke-linecap="butt"/><path d="M352.23368,169.02419l-26.90762,-0.87021" fill="none" stroke="#000000" stroke-width="2.5" stroke-linecap="round"/><path d="M295.00752,139.12791c0.52109,-0.07365 2.96542,0.14513 1.65571,1.45031c-0.28848,0.28749 -1.70308,0.10729 -1.95584,-0.13252c-0.38838,-0.36849 0.78656,-1.07102 0.50318,-1.52524c-0.17643,-0.28281 -0.61119,0.6826 -0.87669,0.48104c-0.26548,-0.20156 0.15181,-0.64915 0.22771,-0.97373z" fill="none" stroke="#000000" stroke-width="2.5" stroke-linecap="round"/><path d="M305.82718,140.81699c-2.62456,-0.94935 1.26344,-1.86266 1.45719,-0.74759c0.34562,1.98912 -4.36581,-0.91303 -0.14651,-0.77657" fill="none" stroke="#000000" stroke-width="2.5" stroke-linecap="round"/><path d="M300.40065,145.01921c4.52664,-0.5308 -0.37479,3.29449 -1.0087,1.84937c-0.27493,-0.62676 1.20061,-1.21661 0.91448,-1.83833z" fill="none" stroke="#000000" stroke-width="2.5" stroke-linecap="round"/><path d="M364.61877,144.63243c0.5858,-0.19439 1.93209,-0.487 1.84744,0.12437c-0.00427,0.03087 -3.81254,0.89216 -1.92996,-1.45581" fill="none" stroke="#000000" stroke-width="2.5" stroke-linecap="round"/><path d="M373.65108,145.2217c0.92744,2.14652 -2.14304,0.95982 -0.00953,-0.02206z" fill="none" stroke="#000000" stroke-width="2.5" stroke-linecap="round"/><path d="M369.41328,150.85562c-0.32131,0.12445 -3.04858,1.03094 -2.19629,-0.65789c0.32015,-0.6344 2.67656,-0.7276 2.32557,0.61623c-0.15722,0.60194 -2.53916,1.27345 -1.10771,-0.51186z" fill="none" stroke="#000000" stroke-width="2.5" stroke-linecap="round"/><path d="M346.98269,82.44635c2.92724,-14.15738 14.08708,-18.57263 24.92619,-9.86173c10.83912,8.7109 17.25298,27.2493 14.32574,41.40669c-2.92724,14.15738 -14.08708,18.57263 -24.92621,9.86173c-10.83912,-8.7109 -17.25297,-27.2493 -14.32572,-41.40667z" fill="url(#color-4)" stroke="#000000" stroke-width="0" stroke-linecap="butt"/><path d="M319.26852,85.15755c2.36029,14.59903 -5.69995,32.88876 -18.00304,40.85123c-12.3031,7.96247 -24.19013,2.58245 -26.55041,-12.0166c-2.36029,-14.59905 5.69996,-32.88877 18.00305,-40.85125c12.3031,-7.96247 24.19011,-2.58244 26.5504,12.01661z" fill="url(#color-5)" stroke="#000000" stroke-width="0" stroke-linecap="butt"/><path d="M281.21845,124.28696l-30.98843,-84.91695l68.5282,40.14902c0,0 -5.12963,18.58111 -10.66171,25.17837c-6.74077,8.03869 -26.87807,19.58958 -26.87807,19.58958z" fill="url(#color-6)" stroke="#000000" stroke-width="2.5" stroke-linecap="butt"/><path d="M348.68157,79.98988l69.20287,-35.68104l-34.12642,87.20173c0,0 -18.67721,-17.31233 -24.76921,-26.26035c-5.54946,-8.15112 -10.30724,-25.26034 -10.30724,-25.26034z" fill="url(#color-7)" stroke="#000000" stroke-width="2.5" stroke-linecap="butt"/><path d="M324.55972,122.1708c-0.0544,2.23421 -2.08641,3.99697 -4.53857,3.93725c-2.45218,-0.05971 -4.39595,-1.91931 -4.34155,-4.15351c0.0544,-2.23421 2.08641,-3.99697 4.53857,-3.93725c2.45218,0.05971 4.39594,1.91931 4.34153,4.15352z" fill="#ffffff" stroke="#000000" stroke-width="2.5" stroke-linecap="butt"/><path d="M369.8319,122.9128c-0.0544,2.23421 -2.0864,3.99697 -4.53857,3.93725c-2.45218,-0.05971 -4.39594,-1.91931 -4.34153,-4.15351c0.0544,-2.23421 2.0864,-3.99696 4.53857,-3.93724c2.45218,0.05971 4.39595,1.9193 4.34154,4.1535z" fill="#ffffff" stroke="#000000" stroke-width="2.5" stroke-linecap="butt"/><path d="M317.68212,130.6421l6.61276,-6.37575" fill="none" stroke="#000000" stroke-width="2.5" stroke-linecap="round"/><path d="M324.6788,118.05524l-24.31361,-0.96935" fill="none" stroke="#000000" stroke-width="2.5" stroke-linecap="round"/><path d="M344.46531,221.87864l-29.3574,-2.68144" fill="none" stroke="#000000" stroke-width="2.5" stroke-linecap="round"/><path d="M342.66908,232.78994l-29.41335,-0.95125" fill="none" stroke="#000000" stroke-width="2.5" stroke-linecap="round"/><path d="M311.46884,242.46161l34.34357,0.24469" fill="none" stroke="#000000" stroke-width="2.5" stroke-linecap="round"/><path d="M344.25791,255.06874l-32.87375,-1.06316" fill="none" stroke="#000000" stroke-width="2.5" stroke-linecap="round"/><path d="M313.86681,266.49859l28.55759,0.6349" fill="none" stroke="#000000" stroke-width="2.5" stroke-linecap="round"/><path d="M314.57263,280.37748l25.98094,-0.02576" fill="none" stroke="#000000" stroke-width="2.5" stroke-linecap="round"/><path d="M316.76691,292.86116l19.91593,0.06676" fill="none" stroke="#000000" stroke-width="2.5" stroke-linecap="round"/><path d="M317.31493,302.69358l18.1764,0.29918" fill="none" stroke="#000000" stroke-width="2.5" stroke-linecap="round"/><path d="M317.81633,313.96783l18.18572,0.0108" fill="none" stroke="#000000" stroke-width="2.5" stroke-linecap="round"/><path d="M345.39644,210.93937l-29.64578,-2.69077" fill="none" stroke="#000000" stroke-width="2.5" stroke-linecap="round"/><path d="M316.64448,198.4628l26.50172,1.72309" fill="none" stroke="#000000" stroke-width="2.5" stroke-linecap="round"/><path d="M349.67074,228.87643l0.13204,-21.93449l29.68308,1.53731l-2.33638,18.68784" fill="none" stroke="#000000" stroke-width="2.5" stroke-linecap="round"/><path d="M362.91694,229.88215l-2.33934,54.48257l-3.1399,61.38471" fill="none" stroke="#000000" stroke-width="2.5" stroke-linecap="round"/><path d="M305.70872,193.59553c-0.18556,5.73764 -5.37087,10.22608 -11.58171,10.02521c-6.21084,-0.20086 -11.0953,-5.01497 -10.90975,-10.7526c0.18556,-5.73764 5.37087,-10.22608 11.58171,-10.02521c6.21084,0.20086 11.0953,5.01497 10.90975,10.7526z" fill="url(#color-8)" stroke="#000000" stroke-width="2.5" stroke-linecap="butt"/><path d="M261.20035,177.46776z" fill="url(#color-9)" stroke="#000000" stroke-width="2.5" stroke-linecap="butt"/></g></g></svg>