<svg version="1.1" xmlns="http://www.w3.org/2000/svg" xmlns:xlink="http://www.w3.org/1999/xlink" width="167.58671" height="309.52893" viewBox="0,0,167.58671,309.52893"><defs><linearGradient x1="311.08205" y1="168.06058" x2="317.88447" y2="346.76353" gradientUnits="userSpaceOnUse" id="color-1"><stop offset="0" stop-color="#676767"/><stop offset="1" stop-color="#313131"/></linearGradient><linearGradient x1="342.53588" y1="167.92521" x2="349.41332" y2="348.59879" gradientUnits="userSpaceOnUse" id="color-2"><stop offset="0" stop-color="#2e2e2e"/><stop offset="1" stop-color="#2b2b2b"/></linearGradient><linearGradient x1="280.72712" y1="169.02843" x2="287.60456" y2="349.70202" gradientUnits="userSpaceOnUse" id="color-3"><stop offset="0" stop-color="#2e2e2e"/><stop offset="1" stop-color="#2b2b2b"/></linearGradient><linearGradient x1="312.4343" y1="167.76616" x2="313.47779" y2="195.17879" gradientUnits="userSpaceOnUse" id="color-4"><stop offset="0" stop-color="#575757"/><stop offset="1" stop-color="#9c9c9c"/></linearGradient><linearGradient x1="308.72949" y1="75.44588" x2="312.7781" y2="181.80447" gradientUnits="userSpaceOnUse" id="color-5"><stop offset="0" stop-color="#1a1a1a"/><stop offset="1" stop-color="#9c9c9c"/></linearGradient><radialGradient cx="344.51138" cy="96.77367" r="25.08096" gradientUnits="userSpaceOnUse" id="color-6"><stop offset="0" stop-color="#000000" stop-opacity="0.92549"/><stop offset="1" stop-color="#000000" stop-opacity="0"/></radialGradient><radialGradient cx="273.70778" cy="103.57176" r="25.35587" gradientUnits="userSpaceOnUse" id="color-7"><stop offset="0" stop-color="#000000" stop-opacity="0.92549"/><stop offset="1" stop-color="#000000" stop-opacity="0"/></radialGradient><linearGradient x1="262.54321" y1="43.63662" x2="269.31684" y2="128.56573" gradientUnits="userSpaceOnUse" id="color-8"><stop offset="0" stop-color="#9c9c9c"/><stop offset="1" stop-color="#2c2c2c"/></linearGradient><linearGradient x1="349.17262" y1="41.51148" x2="352.52983" y2="129.70684" gradientUnits="userSpaceOnUse" id="color-9"><stop offset="0" stop-color="#9c9c9c"/><stop offset="1" stop-color="#2c2c2c"/></linearGradient><linearGradient x1="277.37568" y1="186.78791" x2="278.16644" y2="207.56154" gradientUnits="userSpaceOnUse" id="color-10"><stop offset="0" stop-color="#878787"/><stop offset="1" stop-color="#848484"/></linearGradient><linearGradient x1="114.88775" y1="98.15723" x2="114.9353" y2="99.40633" gradientUnits="userSpaceOnUse" id="color-11"><stop offset="0" stop-color="#878787"/><stop offset="1" stop-color="#848484"/></linearGradient></defs><g transform="translate(-222.82824,-39.94156)"><g stroke-miterlimit="10"><path d="M270.73352,344.9171l-7.72977,-147.08821c0,0 5.64246,-25.9316 15.42818,-26.70963c9.71802,-0.77263 32.7676,-2.20706 52.88762,-3.80673c21.82252,-1.73502 29.65441,24.86468 29.65441,24.86468l6.05072,152.71578z" fill="url(#color-1)" stroke="#000000" stroke-width="0" stroke-linecap="butt"/><path d="M326.51348,349.47049l5.99515,-99.00863c0,0 -9.5473,-80.70009 0.67262,-80.18478c9.4226,0.4751 14.16161,-2.90231 18.71274,-2.67284c4.58285,0.23107 14.67871,29.31764 14.67871,29.31764l4.61056,147.20694z" fill="url(#color-2)" stroke="#000000" stroke-width="0" stroke-linecap="butt"/><path d="M265.55783,346.89997l-6.5936,-147.13147c0,0 7.85546,-29.7699 12.40747,-30.3487c4.52052,-0.57478 9.50256,2.43259 18.86177,1.24254c10.15117,-1.29074 6.76641,79.9016 6.76641,79.9016l13.50454,98.26637z" fill="url(#color-3)" stroke="#000000" stroke-width="0" stroke-linecap="butt"/><path d="M326.39438,180.96094c0.28815,7.56979 -5.4948,13.93533 -12.91659,14.21786c-7.42179,0.28251 -13.67193,-5.62499 -13.96007,-13.19477c-0.28815,-7.56979 5.4948,-13.93533 12.91659,-14.21786c7.42179,-0.28251 13.67193,5.62499 13.96007,13.19477z" fill="url(#color-4)" stroke="#000000" stroke-width="0" stroke-linecap="butt"/><path d="M365.44929,128.76942c-0.856,28.54138 -25.89497,53.95264 -56.13401,53.04572c-30.23904,-0.90691 -54.22726,-27.78859 -53.37125,-56.32995c0.856,-28.54137 26.06353,-50.94353 56.30257,-50.0366c30.23904,0.90691 54.05871,24.77947 53.20271,53.32083z" fill="url(#color-5)" stroke="#000000" stroke-width="0" stroke-linecap="butt"/><path d="M325.65727,127.75803c0.10304,2.70688 -6.46104,5.15428 -14.6613,5.46643c-8.20026,0.31215 -14.93139,-1.62917 -15.03444,-4.33605c-0.10304,-2.70688 6.46104,-5.15428 14.6613,-5.46643c8.20026,-0.31215 14.93139,1.62917 15.03444,4.33605z" fill-opacity="0.18431" fill="#000000" stroke="none" stroke-width="0" stroke-linecap="butt"/><path d="M266.37345,145.85621c0.51462,-0.11011 2.96828,-0.06375 1.75359,1.33029c-0.26755,0.30706 -1.69131,0.22678 -1.96031,0.00534c-0.41333,-0.34027 0.7093,-1.12368 0.39468,-1.55685c-0.19589,-0.26971 -0.56169,0.72389 -0.84069,0.5415c-0.279,-0.18239 0.10579,-0.65822 0.15867,-0.98733z" fill="none" stroke="#000000" stroke-width="2.5" stroke-linecap="round"/><path d="M277.28508,146.78029c-2.68483,-0.76245 1.12933,-1.9469 1.40101,-0.84821c0.48464,1.9599 -4.4192,-0.60377 -0.20076,-0.76435" fill="none" stroke="#000000" stroke-width="2.5" stroke-linecap="round"/><path d="M272.16747,151.3537c4.47811,-0.84779 -0.14219,3.31269 -0.87616,1.91573c-0.31833,-0.60588 1.11209,-1.29802 0.78295,-1.89808z" fill="none" stroke="#000000" stroke-width="2.5" stroke-linecap="round"/><path d="M343.68997,144.70237c0.57068,-0.2351 1.89306,-0.62166 1.85161,-0.00585c-0.00209,0.03109 -3.74037,1.15804 -2.02755,-1.31649" fill="none" stroke="#000000" stroke-width="2.5" stroke-linecap="round"/><path d="M352.74136,144.65504c1.07609,2.07599 -2.07025,1.10814 -0.01106,-0.02133z" fill="none" stroke="#000000" stroke-width="2.5" stroke-linecap="round"/><path d="M348.91022,150.573c-0.31176,0.14673 -2.96853,1.24275 -2.23711,-0.50182c0.27475,-0.65535 2.61876,-0.91401 2.36314,0.45118c-0.1145,0.61151 -2.44333,1.44885 -1.14096,-0.4327z" fill="none" stroke="#000000" stroke-width="2.5" stroke-linecap="round"/><path d="M322.52303,82.95121c2.37493,-14.40736 14.14471,-19.89831 26.28853,-12.26436c12.14382,7.63395 20.06309,25.50194 17.68816,39.90931c-2.37493,14.40736 -14.14472,19.89831 -26.28855,12.26436c-12.14382,-7.63395 -20.06308,-25.50194 -17.68814,-39.90929z" fill="url(#color-6)" stroke="#000000" stroke-width="0" stroke-linecap="butt"/><path d="M294.91555,87.62369c3.38103,14.39692 -3.37315,33.20816 -15.08588,42.01606c-11.71274,8.80789 -23.94865,4.27707 -27.32968,-10.11986c-3.38103,-14.39694 3.37316,-33.20817 15.08589,-42.01608c11.71274,-8.80789 23.94864,-4.27706 27.32967,10.11987z" fill="url(#color-7)" stroke="#000000" stroke-width="0" stroke-linecap="butt"/><path d="M259.71119,129.33185l-36.88295,-82.52768l71.18179,35.23084c0,0 -3.81034,18.89582 -8.86481,25.86576c-6.15882,8.4928 -25.43403,21.43111 -25.43403,21.43111z" fill="url(#color-8)" stroke="#000000" stroke-width="0" stroke-linecap="butt"/><path d="M323.89242,80.40052l66.52253,-40.45896l-27.91005,89.38559c0,0 -19.84835,-15.95612 -26.55448,-24.4536c-6.1089,-7.74071 -12.05799,-24.47302 -12.05799,-24.47302z" fill="url(#color-9)" stroke="#000000" stroke-width="0" stroke-linecap="butt"/><path d="M281.22594,123.47844c0.10285,2.23251 -1.80018,4.13379 -4.25047,4.24666c-2.45031,0.11287 -4.52003,-1.60544 -4.62288,-3.83793c-0.10285,-2.23251 1.80018,-4.13379 4.25047,-4.24666c2.45031,-0.11287 4.52002,1.60544 4.62286,3.83794z" fill="#ffffff" stroke="#000000" stroke-width="2.5" stroke-linecap="butt"/><path d="M337.90153,121.35639c0.10285,2.23251 -1.80017,4.13379 -4.25047,4.24666c-2.45031,0.11287 -4.52002,-1.60544 -4.62286,-3.83793c-0.10285,-2.23251 1.80017,-4.13378 4.25047,-4.24665c2.45031,-0.11287 4.52003,1.60543 4.62287,3.83792z" fill="#ffffff" stroke="#000000" stroke-width="2.5" stroke-linecap="butt"/><path d="M289.74329,126.59158l-6.14806,6.82497" fill="none" stroke="#000000" stroke-width="2.5" stroke-linecap="round"/><path d="M329.664,222.23452l-29.47328,-0.61043" fill="none" stroke-opacity="0.45098" stroke="#000000" stroke-width="2.5" stroke-linecap="round"/><path d="M328.6395,233.24512l-29.40744,1.11941" fill="none" stroke-opacity="0.45098" stroke="#000000" stroke-width="2.5" stroke-linecap="round"/><path d="M298.19658,245.0868l34.27576,-2.1709" fill="none" stroke-opacity="0.45098" stroke="#000000" stroke-width="2.5" stroke-linecap="round"/><path d="M298.92385,256.60816l32.86713,-1.2511" fill="none" stroke-opacity="0.45098" stroke="#000000" stroke-width="2.5" stroke-linecap="round"/><path d="M302.27886,268.89567l28.53155,-1.3748" fill="none" stroke-opacity="0.45098" stroke="#000000" stroke-width="2.5" stroke-linecap="round"/><path d="M303.95888,282.69057l25.91482,-1.85264" fill="none" stroke-opacity="0.45098" stroke="#000000" stroke-width="2.5" stroke-linecap="round"/><path d="M307.02555,294.98904l19.87132,-1.33386" fill="none" stroke-opacity="0.45098" stroke="#000000" stroke-width="2.5" stroke-linecap="round"/><path d="M308.26364,304.75859l18.15244,-0.97971" fill="none" stroke-opacity="0.45098" stroke="#000000" stroke-width="2.5" stroke-linecap="round"/><path d="M327.69802,314.70166l-18.14146,1.26802" fill="none" stroke-opacity="0.45098" stroke="#000000" stroke-width="2.5" stroke-linecap="round"/><path d="M300.062,210.65741l29.7616,0.59946" fill="none" stroke-opacity="0.45098" stroke="#000000" stroke-width="2.5" stroke-linecap="round"/><path d="M326.82274,200.68824l-26.55728,0.14474" fill="none" stroke-opacity="0.45098" stroke="#000000" stroke-width="2.5" stroke-linecap="round"/><path d="M335.34863,228.84895l-1.41069,-21.88948l29.71771,-0.55376l-1.01649,18.80588" fill="none" stroke-opacity="0.45098" stroke="#000000" stroke-width="2.5" stroke-linecap="round"/><path d="M348.63276,228.92073l1.49759,54.5122l1.18436,61.45355" fill="none" stroke-opacity="0.45098" stroke="#000000" stroke-width="2.5" stroke-linecap="round"/><path d="M289.01454,196.74674c0.21836,5.73649 -4.63849,10.57844 -10.84808,10.81481c-6.20959,0.23637 -11.42049,-4.22236 -11.63884,-9.95883c-0.21836,-5.73649 4.63849,-10.57844 10.84808,-10.81481c6.20959,-0.23637 11.42049,4.22236 11.63884,9.95883z" fill="url(#color-10)" stroke="#000000" stroke-width="0" stroke-linecap="butt"/><path d="M243.48226,183.78865z" fill="url(#color-11)" stroke="#000000" stroke-width="2.5" stroke-linecap="butt"/><path d="M289.98334,117.78668l-13.85163,1.22217" fill="none" stroke="#000000" stroke-width="2.5" stroke-linecap="round"/><path d="M344.14469,116.69786l-11.58217,-1.22689" fill="none" stroke="#000000" stroke-width="2.5" stroke-linecap="round"/><path d="M332.28596,126.46104l3.96509,1.93378" fill="none" stroke="#000000" stroke-width="2.5" stroke-linecap="round"/><path d="M344.53033,126.82883l-10.26447,0.52971" fill="none" stroke="#000000" stroke-width="2.5" stroke-linecap="round"/><path d="M277.46241,128.40894l9.17007,-0.0711" fill="none" stroke="#000000" stroke-width="2.5" stroke-linecap="round"/><path d="M289.64535,175.6677l6.38971,-1.91095l16.09998,1.26334l13.6517,-2.81279l8.98277,0.49193" fill="none" stroke="#000000" stroke-width="2.5" stroke-linecap="round"/><path d="M268.43789,130.50941l-0.0447,4.065l-2.33843,0.2205l-1.63041,-2.45602" fill="none" stroke="#000000" stroke-width="2.5" stroke-linecap="round"/><path d="M269.42032,137.82848l-0.7123,2.52034l-1.87417,0.05145l-1.27089,-0.7466" fill="none" stroke="#000000" stroke-width="2.5" stroke-linecap="round"/></g></g></svg>