<svg version="1.1" xmlns="http://www.w3.org/2000/svg" xmlns:xlink="http://www.w3.org/1999/xlink" width="109.53056" height="272.80605" viewBox="0,0,109.53056,272.80605"><defs><linearGradient x1="318.06774" y1="168.51883" x2="318.06774" y2="347.36339" gradientUnits="userSpaceOnUse" id="color-1"><stop offset="0" stop-color="#b3b3b3"/><stop offset="1" stop-color="#000000"/></linearGradient><linearGradient x1="319.80956" y1="73.88935" x2="319.80956" y2="180.32497" gradientUnits="userSpaceOnUse" id="color-2"><stop offset="0" stop-color="#dadada"/><stop offset="1" stop-color="#bebebe"/></linearGradient></defs><g transform="translate(-265.04428,-73.88937)"><g stroke="#000000" stroke-miterlimit="10"><path d="M272.64581,344.37071l-2.04444,-147.24672c0,0 6.36096,-25.78867 15.77862,-26.32783c9.35251,-0.53542 31.52063,-1.40731 50.88392,-2.51586c21.00176,-1.20235 28.27018,15.86086 28.27018,15.86086l-0.49748,162.55426z" fill="url(#color-1)" stroke-width="0"/><path d="M374.45997,129.33182c-1.94104,28.48816 -27.92848,52.9286 -58.11114,50.8721c-30.18266,-2.05649 -53.13099,-29.83117 -51.18995,-58.31932c1.94104,-28.48815 27.98246,-49.91526 58.16512,-47.85875c30.18266,2.05649 53.07703,26.81782 51.13599,55.30597z" fill="url(#color-2)" stroke-width="0"/><path d="M298.88706,117.98038c-0.15191,2.2297 -2.25895,3.90205 -4.70617,3.73531c-2.44723,-0.16674 -4.30794,-2.10944 -4.15603,-4.33913c0.15191,-2.22971 2.25895,-3.90205 4.70617,-3.73531c2.44723,0.16674 4.30793,2.10943 4.15602,4.33914z" fill="#000000" stroke-width="2.5"/><path d="M348.06122,117.9913c-0.15191,2.22971 -2.25895,3.90205 -4.70617,3.73531c-2.44723,-0.16674 -4.30793,-2.10944 -4.15602,-4.33913c0.15191,-2.2297 2.25894,-3.90204 4.70617,-3.7353c2.44723,0.16674 4.30794,2.10943 4.15603,4.33913z" fill="#000000" stroke-width="2.5"/></g></g></svg>