<svg version="1.1" xmlns="http://www.w3.org/2000/svg" xmlns:xlink="http://www.w3.org/1999/xlink" width="173.01633" height="313.45342" viewBox="0,0,173.01633,313.45342"><defs><radialGradient cx="313.63969" cy="233.07123" r="89.41619" gradientUnits="userSpaceOnUse" id="color-1"><stop offset="0" stop-color="#bebebe"/><stop offset="1" stop-color="#dadada"/></radialGradient><linearGradient x1="320.27515" y1="168.96428" x2="319.29067" y2="234.67005" gradientUnits="userSpaceOnUse" id="color-2"><stop offset="0" stop-color="#fff800"/><stop offset="1" stop-color="#d97200"/></linearGradient><linearGradient x1="266.89794" y1="86.63489" x2="265.69111" y2="167.18031" gradientUnits="userSpaceOnUse" id="color-3"><stop offset="0" stop-color="#fff800"/><stop offset="1" stop-color="#d97200"/></linearGradient><linearGradient x1="377.05328" y1="87.44745" x2="375.84645" y2="167.99287" gradientUnits="userSpaceOnUse" id="color-4"><stop offset="0" stop-color="#fff800"/><stop offset="1" stop-color="#d97200"/></linearGradient><linearGradient x1="322.36764" y1="71.98327" x2="320.77307" y2="178.40694" gradientUnits="userSpaceOnUse" id="color-5"><stop offset="0" stop-color="#dadada"/><stop offset="1" stop-color="#bebebe"/></linearGradient><linearGradient x1="320.39" y1="96.99457" x2="319.85534" y2="132.67826" gradientUnits="userSpaceOnUse" id="color-6"><stop offset="0" stop-color="#f1de00"/><stop offset="1" stop-color="#f28f00"/></linearGradient><linearGradient x1="271.13811" y1="45.67974" x2="272.03969" y2="99.0054" gradientUnits="userSpaceOnUse" id="color-7"><stop offset="0" stop-color="#fff800"/><stop offset="1" stop-color="#d97200"/></linearGradient><linearGradient x1="412.81739" y1="68.06747" x2="369.63773" y2="100.262" gradientUnits="userSpaceOnUse" id="color-8"><stop offset="0" stop-color="#fff800"/><stop offset="1" stop-color="#d97200"/></linearGradient><radialGradient cx="271.82247" cy="42.90648" r="7.8102" gradientUnits="userSpaceOnUse" id="color-9"><stop offset="0" stop-color="#ffffff"/><stop offset="1" stop-color="#00b5ff"/></radialGradient><radialGradient cx="414.68666" cy="66.2808" r="7.8102" gradientUnits="userSpaceOnUse" id="color-10"><stop offset="0" stop-color="#ffffff"/><stop offset="1" stop-color="#00b5ff"/></radialGradient><linearGradient x1="350.9412" y1="185.60545" x2="381.24819" y2="184.35943" gradientUnits="userSpaceOnUse" id="color-11"><stop offset="0" stop-color="#fff800"/><stop offset="1" stop-color="#d97200"/></linearGradient><linearGradient x1="289.79388" y1="184.4779" x2="259.5983" y2="182.32535" gradientUnits="userSpaceOnUse" id="color-12"><stop offset="0" stop-color="#fff800"/><stop offset="1" stop-color="#d97200"/></linearGradient></defs><g transform="translate(-250.20023,-34.64036)"><g stroke-miterlimit="10"><path d="M274.75037,341.81061l0.25143,-147.28855c0,0 6.46761,-25.60419 15.47924,-25.87444c8.94929,-0.26838 30.1557,-0.50733 48.68417,-1.06299c20.09629,-0.60268 25.95036,26.36641 25.95036,26.36641l-2.07179,152.82152z" fill="url(#color-1)" stroke="#000000" stroke-width="2.5" stroke-linecap="butt"/><path d="M287.99303,210.49371l0.62935,-42.00369l63.30555,0.94852l-0.62935,42.00369l-31.55787,23.23456z" fill="url(#color-2)" stroke="#000000" stroke-width="2.5" stroke-linecap="butt"/><g stroke="#000000" stroke-width="2.5"><path d="M260.34933,167.10027l-8.68842,-80.69368l21.14435,8.00593l8.24206,65.0436z" fill="url(#color-3)" stroke-linecap="butt"/><path d="M269.99311,99.72865l7.03528,55.52013" fill="none" stroke-linecap="round"/></g><g stroke="#000000" stroke-width="2.5"><path d="M361.82412,159.82851l8.22795,-64.79683l21.14268,-7.37235l-8.6709,80.43358z" fill="url(#color-4)" stroke-linecap="butt"/><path d="M372.86539,100.43211l-7.02324,55.30949" fill="none" stroke-linecap="round"/></g><path d="M376.1813,128.23826c-2.36762,28.45588 -28.71829,52.50425 -58.86676,49.9958c-30.14846,-2.50844 -52.67811,-30.6238 -50.3105,-59.07968c2.36762,-28.45587 28.72712,-49.49044 58.87559,-46.98198c30.14846,2.50844 52.6693,27.60998 50.30169,56.06586z" fill="url(#color-5)" stroke="#000000" stroke-width="2.5" stroke-linecap="butt"/><path d="M263.34493,127.67629l0.41842,-27.92599c0,0 38.06975,-3.03376 56.98698,-2.75032c18.79711,0.28164 56.15833,4.44559 56.15833,4.44559l-0.41842,27.926c0,0 -36.86373,3.60294 -55.46121,3.32429c-19.10401,-0.28624 -57.6841,-5.01957 -57.6841,-5.01957z" fill="url(#color-6)" stroke="#000000" stroke-width="2.5" stroke-linecap="butt"/><path d="M279.3079,127.23508c0,0 -11.2122,-11.57525 -11.1808,-13.67142c0.05899,-3.93736 11.54967,-10.94781 11.54967,-10.94781c0,0 26.41487,-2.684 39.9385,-2.48137c13.99163,0.20964 42.65504,3.71888 42.65504,3.71888c0,0 11.55195,6.57176 11.49708,10.23399c-0.06601,4.40591 -11.86595,14.38523 -11.86595,14.38523c0,0 -28.31541,2.41862 -42.27006,2.20954c-13.56553,-0.20325 -40.32349,-3.44705 -40.32349,-3.44705z" fill="#000000" stroke="none" stroke-width="0" stroke-linecap="butt"/><path d="M268.01327,99.03916l-0.90157,-53.32566l8.05282,-0.06751l0.90158,53.32566z" fill="url(#color-7)" stroke="#000000" stroke-width="2.5" stroke-linecap="butt"/><path d="M367.20523,97.05323l43.17967,-32.19452l4.86501,6.41753l-43.17965,32.19452z" fill="url(#color-8)" stroke="#000000" stroke-width="2.5" stroke-linecap="butt"/><path d="M279.49944,43.02151c-0.05805,3.87437 -3.5422,6.96366 -7.78207,6.90014c-4.23986,-0.06353 -7.6299,-3.25582 -7.57185,-7.13019c0.05805,-3.87437 3.5422,-6.96366 7.78207,-6.90014c4.23986,0.06353 7.6299,3.25582 7.57185,7.13019z" fill="url(#color-9)" stroke="#000000" stroke-width="2.5" stroke-linecap="butt"/><path d="M419.46802,72.28811c-3.03173,2.41303 -7.63011,1.67961 -10.27079,-1.63814c-2.64066,-3.31773 -2.32366,-7.96344 0.70807,-10.37647c3.03173,-2.41303 7.63011,-1.67961 10.2708,1.63813c2.64066,3.31773 2.32366,7.96345 -0.70808,10.37648z" fill="url(#color-10)" stroke="#000000" stroke-width="2.5" stroke-linecap="butt"/><path d="M281.79062,158.36235l-3.61484,-27.53528" fill="none" stroke="#000000" stroke-width="2.5" stroke-linecap="round"/><path d="M359.42513,163.07915l6.15291,-31.17941" fill="none" stroke="#000000" stroke-width="2.5" stroke-linecap="round"/><path d="M302.30765,221.55254l-8.636,-48.82334" fill="none" stroke="#000000" stroke-width="2.5" stroke-linecap="round"/><path d="M346.2459,173.99075l-8.81805,48.47063" fill="none" stroke="#000000" stroke-width="2.5" stroke-linecap="round"/><path d="M368.72177,200.03995l-19.37433,0.79654l3.18753,-30.46209l19.37433,-0.79654l9.36156,14.56501z" fill="url(#color-11)" stroke="#000000" stroke-width="2.5" stroke-linecap="butt"/><path d="M259.58986,182.10833l10.30683,-14.27032l19.3031,1.37605l1.18818,30.52766l-19.3031,-1.37605z" fill="url(#color-12)" stroke="#000000" stroke-width="2.5" stroke-linecap="butt"/><path d="M303.21125,95.72849l3.00592,-20.36133" fill="none" stroke-opacity="0.54902" stroke="#000000" stroke-width="2.5" stroke-linecap="round"/><path d="M339.84091,96.81416l-4.77678,-21.67832" fill="none" stroke-opacity="0.54902" stroke="#000000" stroke-width="2.5" stroke-linecap="round"/><path d="M321.24705,72.82816l-0.2198,23.10392" fill="none" stroke-opacity="0.54902" stroke="#000000" stroke-width="2.5" stroke-linecap="round"/><path d="M293.19537,125.44484l0.05905,-3.94112l16.47828,0.2469l-0.05905,3.94112z" fill="#ffffff" stroke="none" stroke-width="0" stroke-linecap="butt"/><path d="M323.16306,169.70395c-0.04413,2.94552 -1.23651,5.316 -2.66324,5.29462c-1.42673,-0.02138 -2.54755,-2.42652 -2.50342,-5.37204c0.04413,-2.94552 1.23651,-5.316 2.66324,-5.29462c1.42673,0.02138 2.54755,2.42652 2.50342,5.37204z" fill="none" stroke="#000000" stroke-width="2.5" stroke-linecap="butt"/><path d="M332.45675,125.3637l0.05905,-3.94112l16.47828,0.2469l-0.05905,3.94112z" fill="#ffffff" stroke="none" stroke-width="0" stroke-linecap="butt"/></g></g></svg>