<svg version="1.1" xmlns="http://www.w3.org/2000/svg" xmlns:xlink="http://www.w3.org/1999/xlink" width="202.47916" height="395.21517" viewBox="0,0,202.47916,395.21517"><g transform="translate(-231.08605,36.13658)"><g data-paper-data="{&quot;isPaintingLayer&quot;:true}" fill-rule="nonzero" stroke-width="2" stroke-linejoin="miter" stroke-miterlimit="10" stroke-dasharray="" stroke-dashoffset="0" style="mix-blend-mode: normal"><path d="M304.36282,216.58399c5.76409,-0.13237 49.9695,-6.83803 55.92918,-7.89754c6.49812,-1.15523 20.10667,18.09356 26.55215,18.09356c3.78619,0 11.6978,-0.50804 11.6978,-0.50804l-31.45002,12.62008l12.91042,9.51428l-3.01958,22.19283c0,0 -2.50957,28.12586 -9.58982,42.24651c-3.09614,6.17489 3.80578,13.61581 -5.734,17.39061c-3.37814,1.33668 -12.69454,9.84286 -16.18051,9.84286c-5.0571,0 -10.11801,-6.02741 -16.07223,-7.357c-7.5814,-1.69295 -24.49105,1.74176 -24.49105,1.74176l-7.04695,-7.23499l5.35352,-20.2736c0,0 5.57887,-30.18988 10.0594,-49.66792c1.47229,-6.40037 -9.02939,-18.13012 -5.04234,-22.6088z" fill="#3c2c1f" stroke="#000000" stroke-linecap="round"/><path d="M330.58469,331.6221l17.52322,-93.39573" fill="none" stroke="#000000" stroke-linecap="round"/><path d="M331.16096,338.56979c-1.90073,10.55066 -4.16411,19.5088 -15.0501,19.5088c-10.886,0 -24.37158,-19.5088 -24.37158,-19.5088c0,0 12.26643,-19.10368 23.15242,-19.10368c10.886,0 18.16999,8.553 16.26926,19.10368z" fill="#000000" stroke="#000000" stroke-linecap="butt"/><path d="M370.62578,335.40045c-1.90073,10.55068 -6.59481,19.91391 -17.48081,19.91391c-10.88599,0 -23.84161,-9.36323 -21.94088,-19.91391c1.90073,-10.55068 12.26643,-19.10368 23.15242,-19.10368c10.886,0 18.17,8.553 16.26927,19.10368z" fill="#000000" stroke="#000000" stroke-linecap="butt"/><path d="M354.96987,203.13334c-7.49232,4.12372 -27.76663,0.64147 -27.76663,0.64147l-74.73537,-51.84774l-3.9708,-98.3377l21.03651,-2.72825l0.71527,6.79852l-12.99663,10.47055l21.68238,94.08776c0,0 28.72125,17.75448 44.46582,14.2957c8.13887,-1.78797 15.94575,-6.40032 24.65985,-4.88263c25.83552,4.49963 23.13517,27.63846 8.15294,31.69708z" fill="#feed00" stroke="#000000" stroke-linecap="round"/><g><path d="M379.48207,208.06823l13.75664,-12.65473l16.06556,23.09968l17.27547,6.82119l-2.52013,-1.82868l-2.82556,3.88002l-35.8906,15.41218l-5.41314,-4.79861l-7.76209,5.24213l30.46722,-18.08587c0,0 -5.18592,3.70971 -8.94588,-2.9232c-3.45811,-6.10048 -14.42796,-14.43798 -14.42796,-14.43798z" fill="#feed00" stroke="#000000" stroke-linecap="round"/><path d="M399.63092,213.96202l-2.4257,4.00876l-4.47789,-3.31697l-3.98064,-2.6867l3.94754,-7.01171l6.89106,-3.63392l0.04564,12.64053z" fill="#ffa600" stroke="none" stroke-linecap="butt"/><path d="M400.36085,220.25939c0,0 -1.71786,3.53706 -3.50259,2.6413c-1.78471,-0.89578 -22.96893,-3.97197 -22.81923,-6.32649c0.1497,-2.35452 1.71786,-3.53706 3.50258,-2.6413c1.78471,0.89578 22.81924,6.32648 22.81924,6.32648z" fill="#ffa600" stroke="none" stroke-linecap="butt"/><path d="M377.06647,239.12356l-3.45859,2.60472l-2.92368,-5.80806l36.11525,-9.22432l-29.73298,12.42765z" fill="#ffa600" stroke="none" stroke-linecap="butt"/><path d="M420.53898,226.10504l-6.4199,1.5078l-30.2949,12.08696l2.88945,-2.83172z" fill="#ffa600" stroke="none" stroke-linecap="butt"/><path d="M406.81627,213.72728l-2.02672,3.03011l21.38673,5.25555l-17.83206,-3.47142z" fill="#ffa600" stroke="none" stroke-linecap="butt"/></g><g><path d="M310.16019,199.84988c3.37034,-0.66156 -0.98684,30.19014 -3.41606,36.76838c-2.64125,7.15239 -7.09087,3.13592 -8.35747,4.3274c-0.24391,0.22943 12.80239,1.65123 10.17717,4.24149c-4.85172,4.78714 -8.50577,-3.92196 -8.50577,-3.92196l-4.56857,5.60863l-4.60935,-8.15609l-13.90333,4.05412l1.85886,2.61622l-7.62937,-6.28498l27.75729,-48.73748c0,0 7.88595,6.6444 11.0232,9.79009z" fill="#feed00" stroke="#000000" stroke-linecap="round"/><path d="M293.65271,197.21966l7.38683,2.47522l20.29131,6.24386l-7.02579,1.96946l-31.24544,28.70874l24.32065,-28.27833l-13.72754,-11.11896z" fill="#ffa600" stroke="none" stroke-linecap="butt"/><path d="M332.70627,206.07209c1.61692,-1.17183 3.35524,-0.2576 3.88264,2.04198c0.52739,2.29958 -31.24728,28.50292 -32.86421,29.67474c-1.61692,1.17183 -3.35526,0.25762 -3.88265,-2.04196c-0.52739,-2.29958 31.24728,-28.50292 32.86422,-29.67475z" fill="#ffa600" stroke="none" stroke-linecap="butt"/><path d="M295.3059,245.41829c0,0 13.0217,-9.96467 13.54206,-7.69577c0.52036,2.2689 -0.3522,5.0463 -1.94892,6.20347c-1.59672,1.15716 -3.83332,-2.01297 -3.83332,-2.01297z" fill="#ffa600" stroke="none" stroke-linecap="butt"/><path d="M280.87052,244.76955l17.06814,-6.97486l-1.44931,5.77665l-3.30824,-2.32877z" fill="#ffa600" stroke="none" stroke-linecap="butt"/><path d="M272.15838,238.97629l2.48878,2.66367l0.7317,-4.99761l24.8722,-27.37682z" fill="#ffa600" stroke="none" stroke-linecap="butt"/></g><path d="M314.71784,179.58093c-1.13956,6.46183 11.2652,25.16515 11.2652,25.16515l-45.00134,-4.3898l7.25729,-22.19154l-14.17503,-111.29608c0,0 5.46239,-8.93843 6.96542,-13.80536l1.17513,-0.05054c13.20595,1.5539 25.37737,6.44918 39.0568,3.77402c5.47471,-1.07063 9.37634,-3.33562 13.08518,-7.49817c0.84798,-0.95171 3.33678,-3.27524 4.85914,-2.4366c3.42636,1.88753 8.04671,13.2845 8.04671,13.2845l52.42022,117.34393l6.01658,15.72623l-17.60309,17.68577l-5.32669,3.35314l-1.1609,-23.73944l-0.88425,24.9614l-14.68512,19.71604c0,0 -10.05735,4.56493 -12.90949,5.11469c-11.53714,2.22379 -23.7286,0.95107 -35.2535,3.21178c-3.74597,0.73479 0.67695,-4.97464 -2.83553,-6.51692c-1.87204,-0.822 -15.14073,2.93035 -15.28205,1.18897c-0.62214,-7.66638 8.50986,-40.20444 9.40286,-47.84015" fill="#fffe8a" stroke="#000000" stroke-linecap="round"/><path d="M287.53393,44.21158c13.81169,-3.59998 27.22001,-7.24329 41.63938,-7.28045c3.07508,-0.00792 13.83557,0.26271 13.40694,5.03619c-0.58257,6.48763 -6.58255,10.31907 -12.27723,12.18513c-10.26615,3.36407 -34.91968,6.19006 -44.78704,1.46679c-7.02258,-3.36153 -5.87786,-10.98563 2.14404,-11.63662z" fill="#fffe8a" stroke="#000000" stroke-linecap="round"/><g stroke-linecap="butt"><path d="M288.88803,-7.00648l-11.23576,35.67571l1.08305,13.66839l-0.49764,-2.16898l-7.75343,-16.04473l2.45312,-53.60588l25.6911,-0.32187l1.97129,-0.11839l-12.28738,-1.15339l1.31945,23.74343z" fill="#feed00" stroke="#000000"/><path d="M284.24769,-4.64867l-6.05503,25.27926l2.61193,9.10305l-4.36679,-0.0865l-3.03186,-11.31603l3.53404,-38.55522l-1.67249,-11.65304l1.2701,-0.29107l10.28583,9.22155l-2.10603,17.99855z" fill="#ffa700" stroke="none"/></g><g stroke-linecap="butt"><path d="M334.42162,-19.98503l6.47901,-14.21538c0,0 33.61225,5.80685 36.89185,0.38016c0.63824,-1.05611 0.80348,-2.16239 1.72567,-0.35627c1.43909,2.81848 -1.62427,16.2896 -1.62427,16.2896l-29.87223,29.35289l0.49077,15.31631l0.03938,1.91853c0,0 -5.20499,-10.54239 -5.73009,-11.8014c-4.77803,-11.45627 -7.68829,-36.78519 -7.68829,-36.78519z" fill="#feed00" stroke="#000000"/><path d="M339.17493,-19.13609l4.76589,-8.64769l30.26781,8.4934l1.15825,-0.05092l-22.3142,-8.45826l-8.80221,35.12214c0,0 -0.17468,6.73967 -0.17013,10.1099c0.00057,0.4234 0.17867,1.11956 -0.03599,1.26406c-0.51704,0.348 -3.11716,-7.47504 -3.4253,-8.35749c-2.80384,-8.02987 -10.6831,-19.62572 -10.6831,-19.62572z" fill="#ffa700" stroke="none"/></g><path d="M313.58922,-21.10638l21.23737,14.45072c0,0 7.23126,12.97916 9.91376,21.26711c0.82387,2.54546 3.4186,7.16958 3.4186,7.16958c0,0 0.37721,170.17899 -20.64359,174.16678c-17.60586,3.33996 -50.21522,-145.13577 -50.21522,-145.13577l-5.31907,-30.86205l0.55236,-11.87145l41.43032,-28.94052z" fill="#feed00" stroke="#000000" stroke-linecap="butt"/><path d="M345.00215,26.39985c4.30563,0.0417 15.92079,8.5734 15.92079,8.5734l-7.26681,4.1782l1.58589,2.34141l1.73202,8.29192c0,0 -10.74861,4.22798 -13.95983,1.54389" fill="#feed00" stroke="#000000" stroke-linecap="round"/><path d="M279.74297,40.76156l-14.02611,0.72722l5.66806,9.63088l1.18761,-2.56649l-7.84543,-2.95183l10.19681,-11.69449" fill="#feed00" stroke="#000000" stroke-linecap="round"/><path d="M232.08605,17.4038l41.84608,13.05647" fill="none" stroke="#000000" stroke-linecap="round"/><path d="M242.00641,29.87171l32.37564,1.78653" fill="none" stroke="#000000" stroke-linecap="round"/><path d="M247.17489,37.39038l26.35959,-5.31067" fill="none" stroke="#000000" stroke-linecap="round"/><path d="M376.62344,3.02437l-28.81354,21.03139" fill="none" stroke="#000000" stroke-linecap="round"/><path d="M345.25302,25.14503c10.29304,-8.69126 33.06637,-6.41607 33.06637,-6.41607" fill="none" stroke="#000000" stroke-linecap="round"/><path d="M348.87071,26.26225l27.40185,2.12608" fill="none" stroke="#000000" stroke-linecap="round"/><path d="M304.47703,38.66991c3.70782,-0.30089 7.59225,-0.85812 11.31051,-0.69783c0.47192,0.02035 1.25731,-0.24512 1.40226,0.20447c0.18986,0.58892 -6.14919,4.8902 -6.91859,4.89538c-1.73017,0.01166 -4.59529,-3.14445 -5.3775,-4.43582z" fill="#000000" stroke="#000000" stroke-linecap="round"/><path d="M298.58303,23.06061c0.28862,17.21067 -3.6408,12.86028 -7.14346,14.23581c-3.50266,1.37552 -5.54078,-9.25462 -5.54078,-9.25462c0,0 2.31687,-32.27774 5.81952,-33.65326c3.50266,-1.37552 6.5761,11.46141 6.86472,28.67208z" fill="#ffffff" stroke="#000000" stroke-linecap="butt"/><path d="M290.70081,18.7844c0.20616,12.29333 2.36485,30.35782 -0.07783,31.31706c-2.44268,0.95924 -8.56174,-15.54995 -8.7679,-27.84331c-0.20616,-12.29333 1.60691,-23.03669 4.04958,-23.99593c2.44268,-0.95924 4.58999,8.22882 4.79615,20.52218z" fill="#000000" stroke="#000000" stroke-linecap="butt"/><path d="M334.00666,23.81781c0.29483,17.27122 -3.69066,12.9738 -7.26871,14.35417c-3.57805,1.38036 -5.39371,7.91573 -5.68855,-9.35546c-0.29483,-17.27122 2.36674,-32.39128 5.94479,-33.77165c3.57805,-1.38036 6.71764,11.50175 7.01247,28.77294z" fill="#ffffff" stroke="#000000" stroke-linecap="butt"/><path d="M334.55859,19.24314c0.21059,12.33658 2.7514,31.13662 0.25614,32.09924c-2.49526,0.96262 -9.08168,-16.27666 -9.29228,-28.61326c-0.21059,-12.33658 1.64149,-23.11772 4.13675,-24.08034c2.49526,-0.96262 4.68879,8.25777 4.89938,20.59437z" fill="#000000" stroke="#000000" stroke-linecap="butt"/><path d="M286.68652,-4.06065l17.13222,-16.45745l3.56546,-2.07018l-4.90541,-1.83317l13.55006,-3.13622l4.23699,-0.34838l-6.08237,-3.03958l5.53986,0.84692l12.07794,9.6759" fill="#feed00" stroke="#000000" stroke-linecap="butt"/><path d="M274.53089,13.74244l-4.57727,-4.56318l-5.97069,-2.60629l7.08399,-4.04382l7.54291,-3.81499" fill="#feed00" stroke="#000000" stroke-linecap="butt"/><path d="M304.04224,130.89545c1.2776,0.41201 4.6832,-0.12125 5.28731,1.37265c2.02616,5.01034 21.79836,28.47962 16.88318,27.84404c-3.27298,-0.42322 -21.84231,-29.95283 -21.84231,-29.95283c0,0 -6.45395,-60.32347 -4.87987,-71.99139" fill="#ffaf36" stroke="#000000" stroke-linecap="round"/><path d="M330.74177,129.33523c8.69193,-11.44331 33.16081,35.77643 22.80024,28.52867c-5.6095,-3.92413 -22.80564,-27.00379 -22.50613,-29.55458c1.41373,-12.04022 -9.44869,-60.95617 -6.83984,-73.25888" fill="#ffaf36" stroke="#000000" stroke-linecap="round"/><path d="M318.02146,181.93649c3.3009,-3.11052 7.74088,-2.94473 11.88069,-3.94752c13.3523,-3.23438 33.82522,14.52795 47.48939,15.62049" fill="none" stroke="#000000" stroke-linecap="round"/><path d="M379.60777,197.4708c0,0 16.99512,19.51791 17.8198,28.37895" fill="none" stroke="#000000" stroke-linecap="round"/><path d="M318.86453,186.13683c0.6888,8.48781 -13.66453,41.92134 -13.17818,50.4074" fill="none" stroke="#000000" stroke-linecap="round"/><path d="M291.93019,53.7068c-2.68682,-0.70309 -4.66826,-3.12462 -7.18071,-4.36767" fill="none" stroke="#fcec41" stroke-linecap="round"/><path d="M334.42083,47.91845c1.53645,-1.21287 2.98565,-2.19129 4.74117,-3.06431" fill="none" stroke="#fcec41" stroke-linecap="round"/><path d="M307.28523,62.60177l5.62961,46.18143" fill="none" stroke="#fcec41" stroke-linecap="round"/><path d="M311.04494,65.58016l0.39708,4.89301" fill="none" stroke="#fcec41" stroke-linecap="round"/><path d="M314.52104,65.06351l1.00153,3.67128" fill="none" stroke="#fcec41" stroke-linecap="round"/><path d="M317.52771,203.81539l-5.44691,-39.87902l11.14403,38.91448z" fill="#fce541" stroke="#fcec41" stroke-linecap="round"/><path d="M317.52771,203.81539l-5.44691,-39.87902l11.14403,38.91448c0,0 70.4341,0.76978 69.47653,0.9319c-0.94119,0.15935 -75.17365,0.03264 -75.17365,0.03264z" fill="#fce541" stroke="#fcec41" stroke-linecap="round"/><path d="M385.42023,210.24428l-5.20642,-30.55158l15.0065,24.01812z" fill="#fce541" stroke="#fcec41" stroke-linecap="round"/><path d="M333.43639,118.408c3.50441,34.55363 -0.65828,63.76632 -9.29763,65.24837c-8.63935,1.48205 -18.48381,-25.32777 -21.98822,-59.88141c-3.50441,-34.55363 0.65828,-63.76632 9.29763,-65.24837c8.63935,-1.48205 18.48381,25.32777 21.98822,59.88141z" fill="#000000" stroke="#000000" stroke-linecap="butt"/></g></g></svg>