<svg version="1.1" xmlns="http://www.w3.org/2000/svg" xmlns:xlink="http://www.w3.org/1999/xlink" width="115.10533" height="316.3114" viewBox="0,0,115.10533,316.3114"><defs><linearGradient x1="320.11298" y1="37.99929" x2="320.11298" y2="186.45494" gradientUnits="userSpaceOnUse" id="color-1"><stop offset="0" stop-color="#89c100"/><stop offset="1" stop-color="#53ff10"/></linearGradient></defs><g transform="translate(-262.59275,-36.00471)"><g stroke-miterlimit="10"><path d="M269.44038,347.38211l-2.26151,-147.27579c0,0 7.03635,-25.69821 17.45393,-26.10344c10.34551,-0.40242 34.86735,-0.95905 56.28654,-1.79223c23.23163,-0.90368 30.46941,25.97468 30.46941,25.97468l0.25208,152.83541z" fill="#000000" stroke="#000000" stroke-width="2.5" stroke-linecap="butt"/><path d="M339.06742,182.88787c0,11.02276 -8.7456,19.95848 -19.53383,19.95848c-10.78823,0 -19.53383,-8.93571 -19.53383,-19.95848c0,-11.02276 8.74559,-19.95848 19.53383,-19.95848c10.78823,0 19.53383,8.93571 19.53383,19.95848z" fill="#53ff10" stroke="#000000" stroke-width="2.5" stroke-linecap="butt"/><path d="M373.8516,132.80646c0,28.00291 -24.26594,53.64847 -54.51858,53.64847c-30.25264,0 -55.03592,-25.64557 -55.03592,-53.64847c0,-28.0029 24.52462,-50.70374 54.77726,-50.70374c30.25264,0 54.77725,22.70084 54.77725,50.70374z" fill="#53ff10" stroke="#000000" stroke-width="2.5" stroke-linecap="butt"/><path d="M264.76641,135.5428l-0.89533,-61.16687l10.57761,4.64383l32.2488,-41.02047l22.70316,27.60498l22.44516,-21.6712l13.4155,35.86067l11.09359,-7.73971l-2.32191,61.9177l-15.99541,-24.50909l-78.68708,0.77398z" fill="#53ff10" stroke="#000000" stroke-width="2.5" stroke-linecap="round"/><path d="M266.73168,144.80733l-1.11534,-38.40259l107.68809,0.478l-2.23068,37.92459z" fill="#53ff10" stroke="none" stroke-width="0" stroke-linecap="butt"/><path d="M264.76641,135.5428l-0.89533,-61.16687l10.57761,4.64383l32.2488,-41.02047l22.70316,27.60498l22.44516,-21.6712l13.4155,35.86067l11.09359,-7.73971l-2.32191,61.9177l-2.12994,-3.26362l-0.8293,14.09921h-104.34207l-0.35046,-12.06653z" fill="#53ff10" stroke="#000000" stroke-width="2.5" stroke-linecap="round"/><path d="M319.33302,186.45494c-30.25264,0 -55.03592,-25.64557 -55.03592,-53.64847c0,-1.93597 0.11721,-3.84659 0.34544,-5.72612l-0.77146,-52.70441l10.57761,4.64383l32.2488,-41.02047l22.70316,27.60498l22.44516,-21.6712l13.4155,35.86067l11.09359,-7.73971l-2.32191,61.9177l-0.18929,-0.29003c-0.49884,27.65974 -24.57351,52.77324 -54.51068,52.77324z" fill="url(#color-1)" stroke="#000000" stroke-width="2.5" stroke-linecap="butt"/><path d="M335.04023,129.94532c0,2.70884 -6.65243,4.90479 -14.85862,4.90479c-8.2062,0 -14.85862,-2.19595 -14.85862,-4.90479c0,-2.70884 6.65243,-4.90479 14.85862,-4.90479c8.2062,0 14.85862,2.19595 14.85862,4.90479z" fill-opacity="0.18431" fill="#000000" stroke="none" stroke-width="0" stroke-linecap="butt"/><path d="M357.01037,128.50193c0,4.15542 -3.40877,5.50444 -7.9696,5.50444c-4.56083,0 -8.54664,-1.34902 -8.54664,-5.50444c0,-4.15544 3.69729,-7.52407 8.25812,-7.52407c4.56083,0 8.25812,3.36865 8.25812,7.52407z" fill="#ffffff" stroke="#000000" stroke-width="2.5" stroke-linecap="butt"/><path d="M283.1201,162.60476l3.4444,-1.83701l25.94785,4.59254l29.39225,-3.67404l14.23687,2.29627" fill="none" stroke="#000000" stroke-width="2.5" stroke-linecap="round"/><path d="M301.03341,128.18591c0,4.15542 -3.40877,4.63889 -7.9696,4.63889c-4.56083,0 -8.54664,-0.48347 -8.54664,-4.63889c0,-4.15544 3.69729,-7.52407 8.25812,-7.52407c4.56083,0 8.25812,3.36865 8.25812,7.52407z" fill="#ffffff" stroke="#000000" stroke-width="2.5" stroke-linecap="butt"/><path d="M304.46332,231.10964l5.06482,-6.76096l1.24827,3.53115l1.96054,11.40697l1.1845,6.34097l-1.49851,14.74315l-0.33459,9.70376l-1.46541,3.62479c0,0 -0.61526,8.11209 -3.64192,11.50113c-0.79532,0.89054 -1.12831,-4.69529 -1.12831,-4.69529l-0.57756,-9.00041l1.77416,-6.23614l-3.28668,-34.36874z" fill="#d6d6d6" stroke="#000000" stroke-width="2.5" stroke-linecap="round"/><path d="M318.79019,226.51603l4.36409,11.09777l0.59757,20.05677l0.29879,16.7588c0,0 -1.43225,6.11183 -2.41642,9.23553c-0.08459,0.26848 -1.13877,2.99587 -1.46784,2.90638c-0.11032,-0.02999 0,-2.36872 0,-2.59382c0,-2.87821 -0.90249,-8.95389 -0.90249,-8.95389l-1.48782,-48.78337z" fill="#d6d6d6" stroke="#000000" stroke-width="2.5" stroke-linecap="round"/><path d="M330.73522,223.7799l1.19112,3.00023l0.01452,1.94528l2.97337,9.88376l-1.79271,13.39632l1.49392,19.26009c0,0 -0.37028,9.84887 -3.4942,14.16856c-0.19659,0.27184 -0.70532,2.4533 -0.70789,2.45451c-0.20891,0.09826 -0.46967,-0.1776 -0.57855,-0.36905c-0.58744,-1.03297 -0.30546,-5.15203 -0.30546,-5.15203l-1.53542,-10.82092l-2.04335,-27.04908l0.62346,-12.25747l3.55959,-9.05034z" fill="#d6d6d6" stroke="#000000" stroke-width="2.5" stroke-linecap="round"/></g></g></svg>