<svg version="1.1" xmlns="http://www.w3.org/2000/svg" xmlns:xlink="http://www.w3.org/1999/xlink" width="155.88685" height="367.51509" viewBox="0,0,155.88685,367.51509"><defs><radialGradient cx="211.44498" cy="78.07717" r="6.90405" gradientUnits="userSpaceOnUse" id="color-1"><stop offset="0" stop-color="#1a1a1a"/><stop offset="1" stop-color="#ffffff"/></radialGradient><radialGradient cx="246.71435" cy="75.63367" r="8.94704" gradientUnits="userSpaceOnUse" id="color-2"><stop offset="0" stop-color="#1a1a1a"/><stop offset="1" stop-color="#ffffff"/></radialGradient></defs><g transform="translate(-147.89916,-13.53539)"><g stroke-width="2" stroke-miterlimit="10"><path d="M217.67493,234.06253c5.84241,-0.24668 13.73309,-1.93374 19.59573,-3.20031c6.3923,-1.38098 15.07787,-0.26096 21.63949,-0.37452c3.8544,-0.06669 15.66009,0.62614 15.66009,0.62614l2.38626,6.5572l6.96875,21.01812l1.20847,24.38357c0,0 2.87252,30.87909 -1.61051,46.48456c-1.96038,6.82419 6.50174,14.86019 -2.48153,19.16664c-3.18107,1.52494 -11.02396,11.01458 -14.57272,11.07601c-5.14822,0.0891 -11.4634,-6.42968 -17.78148,-7.78243c-8.0447,-1.72243 -24.59623,2.34104 -24.59623,2.34104l-8.57004,-7.80769l1.53787,-22.32063c0,0 -0.14621,-33.19598 0.65645,-54.62903c0.26378,-7.04276 -4.68035,-30.53219 -1.48568,-35.5125z" fill="#3c2c1f" stroke="#000000" stroke-linecap="round"/><path d="M249.67491,350.79073l-0.1832,-102.70011" fill="none" stroke="#000000" stroke-linecap="round"/><path d="M251.60221,358.39747c0.10094,11.60036 -0.47462,21.46119 -11.55678,21.65302c-11.08215,0.19179 -28.57524,-20.95844 -28.57524,-20.95844c0,0 8.80109,-21.15983 19.88324,-21.35161c11.08215,-0.19179 20.14782,9.05666 20.24876,20.65706z" fill="#000000" stroke="#000000" stroke-linecap="butt"/><path d="M291.16656,354.22752c0.10093,11.60039 -2.87095,21.94817 -13.9531,22.13996c-11.08213,0.19179 -26.07798,-9.84502 -26.17893,-21.4454c-0.10093,-11.60039 8.80108,-21.15982 19.88324,-21.35161c11.08215,-0.19179 20.14782,9.05667 20.24876,20.65706z" fill="#000000" stroke="#000000" stroke-linecap="butt"/><path d="M231.91348,224.73252c-7.48359,4.73093 -27.77344,1.14823 -27.77344,1.14823l-55.03067,-56.67769l24.16496,-48.69215l21.03566,-3.37921l0.73365,7.59705l-12.97265,11.91889l-6.4593,43.66158c0,0 28.77746,19.42364 44.51762,15.30894c8.13658,-2.12704 15.93355,-7.40968 24.65437,-5.84631c25.85546,4.63505 3.35,30.38519 -11.62599,35.15937z" fill="#feed00" stroke="#000000" stroke-linecap="round"/><g><path d="M268.48844,208.10267l18.13786,-8.12956l5.27425,29.79711l-5.08741,5.67943l-1.58113,-2.81233l-1.52844,5.65409l-6.70717,7.94578l-3.03056,-6.94392l-9.43697,2.61804l0.03972,-15.34501c0,0 -6.39201,1.96427 -7.11121,-6.28184c-0.66144,-7.58419 10.94055,-12.54593 10.94055,-12.54593z" fill="#feed00" stroke="#000000" stroke-linecap="round"/><path d="M284.79493,221.53543l-3.9447,3.27715l-2.78103,-5.0673l-2.58219,-4.23288l6.62442,-5.83926l7.94962,-1.26626l-5.26614,13.12856z" fill="#ffa600" stroke="none" stroke-linecap="butt"/><path d="M264.50461,220.66128c0,0 -3.08678,3.04494 -4.3742,1.46747c-1.2874,-1.57749 -1.41632,-4.79213 -0.28795,-7.18007c1.12837,-2.38795 3.08678,-3.04494 4.37421,-1.46748c1.2874,1.57749 0.28796,7.18006 0.28796,7.18006z" fill="#ffa600" stroke="none" stroke-linecap="butt"/><path d="M270.82413,239.41918l-4.31784,1.44552l-0.28606,-7.08671l4.31783,-1.44553z" fill="#ffa600" stroke="none" stroke-linecap="butt"/><path d="M280.76398,240.58396l-3.88264,1.88773l0.09464,-6.5292l3.88264,-1.88773z" fill="#ffa600" stroke="none" stroke-linecap="butt"/><path d="M290.99375,229.45087l-3.16176,2.4069l0.59756,-5.54883l3.16177,-2.40691z" fill="#ffa600" stroke="none" stroke-linecap="butt"/></g><g><path d="M204.02433,219.65654c2.41605,-2.47894 12.22973,0.46271 14.17075,7.9994c2.1104,8.19448 -4.03055,6.85904 -4.36946,8.67919c-0.06528,0.3505 9.44031,9.00242 8.81072,12.88874c-1.16356,7.18242 -9.4721,0.98667 -9.4721,0.98667l-0.43124,7.80069l-8.77278,-5.14867l-6.9166,-3.01962l3.13173,1.44214l-10.16621,-1.72272l-1.06168,-32.67968c0,0 10.59746,1.92017 15.11659,3.15749z" fill="#feed00" stroke="#000000" stroke-linecap="round"/><path d="M188.64782,226.26575l7.66429,-1.73406l3.86334,5.23019l-0.93208,5.02798l-0.8333,5.90395l-4.69137,-1.68601l-5.07085,-12.74207z" fill="#ffa600" stroke="none" stroke-linecap="butt"/><path d="M209.75807,223.62501c0.64341,-1.9945 2.64725,-2.08994 4.47568,-0.21317c1.82841,1.87677 2.78903,5.01505 2.14559,7.00954c-0.64341,1.9945 -2.64725,2.08996 -4.47567,0.21319c-1.82841,-1.87677 -2.78905,-5.01504 -2.1456,-7.00954z" fill="#ffa600" stroke="none" stroke-linecap="butt"/><path d="M213.95158,242.24616c0,0 2.61294,-2.06508 4.41694,-0.21336c1.80401,1.85173 2.75141,4.94952 2.11602,6.91907c-0.6354,1.96956 -4.41695,0.21337 -4.41695,0.21337z" fill="#ffa600" stroke="none" stroke-linecap="butt"/><path d="M201.50183,249.58197l7.79746,-1.47521l2.27575,6.24179l-4.16895,-0.37333z" fill="#ffa600" stroke="none" stroke-linecap="butt"/><path d="M188.32291,243.8062l3.68656,1.14008l2.40502,5.11256l-3.68654,-1.14007z" fill="#ffa600" stroke="none" stroke-linecap="butt"/></g><path d="M211.45226,199.18527c-1.12265,7.24901 -8.53019,27.80135 -8.53019,27.80135l-25.16081,-4.029l7.20027,-24.94676l13.92302,-63.03555c0,0 5.4402,-10.08755 6.93069,-15.55735l1.17536,-0.07477c13.21414,1.53427 25.40237,6.82385 39.07884,3.61809c5.47352,-1.28298 9.3703,-3.87818 13.06917,-8.59392c0.84569,-1.07819 3.32904,-3.717 4.85414,-2.80208c3.43245,2.0592 8.08464,14.74178 8.08464,14.74178l19.00446,49.04464l6.06041,17.50574l-17.56128,20.06477l-5.31936,3.83503l-1.22464,-26.5485l-0.81786,27.94769l1.68103,15.61832c0,0 -10.04822,5.26443 -12.89979,5.92388c-11.53474,2.66744 -23.73332,1.43212 -35.25573,4.14068c-3.74516,0.88038 -9.02193,5.43784 -12.53959,3.76636c-1.8748,-0.89087 -5.45176,-7.5014 -5.59777,-9.44798c-0.64282,-8.56972 -2.56729,-18.28473 -1.69438,-26.84357" fill="#fffe8a" stroke="#000000" stroke-linecap="round"/><path d="M224.08928,165.24708c1.27909,0.44127 4.68431,-0.20829 5.29262,1.45415c2.04015,5.57561 -1.56481,11.15372 -6.48319,10.51864c-3.27511,-0.4229 1.51691,-12.80168 1.51691,-12.80168c0,0 -1.66333,-26.49203 -0.11993,-39.57384" fill="#ffaf36" stroke="#000000" stroke-linecap="round"/><path d="M250.79284,163.08721c8.66403,-12.94078 9.82061,19.14336 -0.56248,11.19307c-5.6217,-4.3045 0.56113,-9.48651 0.85395,-12.34572c1.38202,-13.49597 -4.66067,-27.15365 -2.08388,-40.96191" fill="#ffaf36" stroke="#000000" stroke-linecap="round"/><path d="M214.76319,201.77015c3.29361,-3.53211 7.73539,-3.41538 11.87379,-4.60177c13.34776,-3.82651 28.52875,-4.43243 42.20004,-3.42157" fill="none" stroke="#000000" stroke-linecap="round"/><path d="M269.09923,229.32988c-0.8486,-9.90349 1.96501,-31.29625 1.96501,-31.29625" fill="none" stroke="#000000" stroke-linecap="round"/><path d="M215.61773,206.45763c0.71167,9.48792 -2.58439,20.28597 -2.07521,29.77507" fill="none" stroke="#000000" stroke-linecap="round"/><path d="M194.46166,226.07614l14.31099,-44.3576l-8.61469,43.18992z" fill="#fce541" stroke="#fcec41" stroke-linecap="round"/><path d="M191.91001,220.27112l14.31099,-44.3576l-8.61468,43.18992z" fill="#fce541" stroke="#fcec41" stroke-linecap="round"/><path d="M278.04263,205.80436l-5.28959,-34.10918l15.07522,26.64576z" fill="#fce541" stroke="#fcec41" stroke-linecap="round"/><path d="M215.68249,110.26844c14.18267,-1.60451 27.97219,-3.30917 42.25105,-1.3007c3.04511,0.42833 13.65841,2.2225 12.55703,6.88693c-1.49689,6.3394 -7.97965,9.28106 -13.88144,10.32052c-10.63952,1.8739 -35.44462,1.17445 -44.54227,-4.90066c-6.47479,-4.32364 -4.26022,-11.70829 3.77291,-11.21484z" fill="#fffe8a" stroke="#000000" stroke-linecap="round"/><g stroke-linecap="butt"><path d="M213.76232,49.34951l-11.78483,35.49813l-3.11965,14.94594l-0.46412,-2.1764l-3.51326,-17.42492l-6.57751,-44.00385l-1.39922,-17.55647l1.97289,-0.08796l14.82408,16.28818l10.81036,14.20315z" fill="#feed00" stroke="#000000"/><path d="M209.08618,51.63544l-6.44432,25.18283l-1.52053,10.40475l-0.37323,-1.41634l-2.85692,-11.36145l-5.72891,-28.93832l-1.4925,-11.67746l1.27445,-0.27142l10.14235,9.37915l7.47392,8.4061z" fill="#ffa700" stroke="none"/></g><g stroke-linecap="butt"><path d="M249.63336,46.63279l6.69755,-14.11373c0,0 6.42646,-11.30628 9.78941,-16.68174c0.65444,-1.04613 0.83675,-2.14974 1.73097,-0.32961c1.39545,2.84036 2.11633,15.00012 2.11633,15.00012l2.63634,38.22424l0.25441,15.32207l0.00977,1.9189c0,0 -5.04173,-10.62143 -5.54734,-11.8884c-4.60071,-11.52863 -16.97723,-27.34162 -16.97723,-27.34162z" fill="#feed00" stroke="#000000"/><path d="M254.373,47.55497l4.89872,-8.57315l7.03268,-9.93413l1.1589,-0.03304l0.91945,10.09198l0.51436,25.42435c0,0 -0.27864,6.73616 -0.32609,10.10606c-0.00596,0.42334 0.16138,1.12216 -0.05548,1.26335c-0.52234,0.33997 -3.00148,-7.52225 -3.29595,-8.40933c-2.67962,-8.07217 -10.37905,-19.78819 -10.37905,-19.78819z" fill="#ffa700" stroke="none"/></g><path d="M228.82075,45.19016l30.86927,5.21886c0,0 7.03016,13.08917 9.58448,21.41752c0.7845,2.55787 3.30759,7.22148 3.30759,7.22148c0,0 -4.20433,39.49218 -25.28414,43.15518c-17.65529,3.06795 -50.00583,-13.95834 -50.00583,-13.95834l-0.85058,-32.20291l0.73545,-11.86151l32.01451,-18.74009z" fill="#feed00" stroke="#000000" stroke-linecap="butt"/><path d="M269.35438,83.61759c4.30446,0.10811 11.79489,10.08049 11.79489,10.08049l-7.33041,4.06559l1.54959,2.3656l1.60388,8.31764c0,0 -10.81254,4.06164 -13.98196,1.32833" fill="#feed00" stroke="#000000" stroke-linecap="round"/><path d="M204.9056,116.40636l-14.03567,0.51073l0.5029,-8.45593l1.22705,-2.54786l-7.79895,-3.07251l10.37602,-11.53577" fill="#feed00" stroke="#000000" stroke-linecap="round"/><path d="M156.59053,72.88054l37.64794,14.963" fill="none" stroke="#000000" stroke-linecap="round"/><path d="M194.66986,89.0483l-32.34423,-2.2858" fill="none" stroke="#000000" stroke-linecap="round"/><path d="M167.37748,94.36004l26.43839,-4.90338" fill="none" stroke="#000000" stroke-linecap="round"/><path d="M301.33253,60.73271l-29.13457,20.58437" fill="none" stroke="#000000" stroke-linecap="round"/><path d="M269.62458,82.36677c10.4259,-8.53144 33.16142,-5.90517 33.16142,-5.90517" fill="none" stroke="#000000" stroke-linecap="round"/><path d="M273.2246,83.53966l27.36579,2.54857" fill="none" stroke="#000000" stroke-linecap="round"/><path d="M228.70856,95.11128c3.71201,-0.24365 7.60457,-0.7409 11.31993,-0.52326c0.47154,0.02762 1.26095,-0.22571 1.39894,0.22608c0.18074,0.59177 -6.22389,4.79475 -6.9933,4.78805c-1.73012,-0.01504 -4.54621,-3.21497 -5.30842,-4.51824z" fill="#000000" stroke="#000000" stroke-linecap="round"/><path d="M228.44839,76.42868c0.4636,7.06295 -4.79947,13.15869 -11.75538,13.61531c-6.95594,0.45658 -13.43424,-11.96186 -13.43424,-11.96186c0,0 4.79945,-13.15868 11.75535,-13.61528c6.95594,-0.45658 12.97065,4.8989 13.43426,11.96184z" fill="#ffffff" stroke="#000000" stroke-linecap="butt"/><path d="M263.41362,73.71016c0.4636,7.06295 -4.79945,13.15869 -11.75536,13.6153c-6.95594,0.45658 -12.97061,-4.89892 -13.43424,-11.96184c-0.4636,-7.06295 4.79945,-13.15869 11.75535,-13.6153c6.95594,-0.45658 12.97061,4.89892 13.43423,11.96185z" fill="#ffffff" stroke="#000000" stroke-linecap="butt"/><path d="M217.42685,76.88812c0.22952,3.49654 -2.34782,8.96574 -5.70987,9.18643c-3.36205,0.22068 -6.2357,-4.89071 -6.46523,-8.38726c-0.22952,-3.49654 2.30991,-6.50995 5.67197,-6.73062c3.36206,-0.22068 6.27359,2.43491 6.50312,5.93146z" fill="url(#color-1)" stroke="#000000" stroke-linecap="butt"/><path d="M253.9571,74.0137c0.28825,4.39148 -2.24065,11.50881 -6.46322,11.786c-4.22259,0.27719 -8.5399,-6.39076 -8.82814,-10.78228c-0.28825,-4.39148 2.90115,-8.1762 7.12375,-8.45335c4.22259,-0.27719 7.87935,3.05814 8.16761,7.44966z" fill="url(#color-2)" stroke="#000000" stroke-linecap="butt"/><path d="M211.51563,52.261l7.5267,-6.63338l3.59698,-2.01493l-4.87654,-1.90863l13.59683,-2.92679l4.24187,-0.28297l-6.03476,-3.13305l5.52613,0.93229l11.92724,9.86107" fill="#feed00" stroke="#000000" stroke-linecap="butt"/><path d="M199.08677,69.87443l-4.50632,-4.63325l-5.92976,-2.69809l7.14553,-3.93405l7.60086,-3.69817" fill="#feed00" stroke="#000000" stroke-linecap="butt"/><path d="M250.62651,119.72067c-2.55994,-1.07708 -4.17787,-3.75518 -6.48861,-5.34203" fill="none" stroke="#fcec41" stroke-linecap="round"/><path d="M234.13796,130.81843l-0.5876,9.56639" fill="none" stroke="#fcec41" stroke-linecap="round"/><path d="M235.4943,132.58127l-0.30096,4.89986" fill="none" stroke="#fcec41" stroke-linecap="round"/><path d="M241.90694,136.45945l-0.47067,-3.77622" fill="none" stroke="#fcec41" stroke-linecap="round"/></g></g></svg>