<svg version="1.1" xmlns="http://www.w3.org/2000/svg" xmlns:xlink="http://www.w3.org/1999/xlink" width="208.60562" height="284.06982" viewBox="0,0,208.60562,284.06982"><defs><linearGradient x1="318.25748" y1="176.5769" x2="318.25748" y2="355.40927" gradientUnits="userSpaceOnUse" id="color-1"><stop offset="0" stop-color="#fbc74c"/><stop offset="1" stop-color="#fa954b"/></linearGradient><linearGradient x1="317.86386" y1="171.60046" x2="317.86386" y2="204.70894" gradientUnits="userSpaceOnUse" id="color-2"><stop offset="0" stop-color="#fbc74c"/><stop offset="1" stop-color="#fa8c4b"/></linearGradient></defs><g transform="translate(-214.73283,-72.63517)"><g stroke-miterlimit="10"><path d="M268.25496,131.44257c0,0 -15.65702,-6.54739 -21.97581,-11.47826c-6.695,-5.22444 -17.13087,-19.03866 -17.13087,-19.03866c0,0 8.16295,6.44172 14.00824,6.68837c9.40463,0.39684 36.34766,-1.18144 36.34766,-1.18144z" fill="#ffe23b" stroke="#000000" stroke-width="2.5" stroke-linecap="butt"/><path d="M258.72736,144.56724c0,0 -13.87103,-9.77779 -18.97423,-15.95824c-5.40704,-6.54842 -12.60923,-22.29225 -12.60923,-22.29225c0,0 6.57707,8.05429 12.23076,9.55894c9.09637,2.42087 35.74334,6.70539 35.74334,6.70539z" fill="#ffe23b" stroke="#000000" stroke-width="2.5" stroke-linecap="butt"/><path d="M358.56711,108.64639c0,0 26.94303,1.57828 36.34766,1.18144c5.84529,-0.24665 14.00824,-6.68837 14.00824,-6.68837c0,0 -10.43587,13.81422 -17.13087,19.03866c-6.31879,4.93087 -21.97581,11.47826 -21.97581,11.47826z" fill="#ffe23b" stroke="#000000" stroke-width="2.5" stroke-linecap="butt"/><path d="M268.66787,351.77064l-2.24432,-147.27579c0,0 6.98285,-25.69821 17.32124,-26.10344c10.26687,-0.40242 34.6023,-0.95905 55.85867,-1.79223c23.05503,-0.90368 30.23778,25.97468 30.23778,25.97468l0.25017,152.83541z" fill="url(#color-1)" stroke="#000000" stroke-width="2.5" stroke-linecap="butt"/><path d="M360.05796,124.83386c0,0 26.64697,-4.28452 35.74334,-6.70539c5.6537,-1.50465 12.23077,-9.55894 12.23077,-9.55894c0,0 -7.20218,15.74384 -12.60922,22.29225c-5.1032,6.18044 -18.97423,15.95824 -18.97423,15.95824z" fill="#ffe23b" stroke="#000000" stroke-width="2.5" stroke-linecap="butt"/><path d="M366.73322,122.37638c0,0 21.62037,21.77748 29.88612,28.57639c5.13745,4.22576 16.93768,4.96332 16.93768,4.96332c0,0 -19.31844,3.78173 -28.952,3.12697c-9.09222,-0.61798 -27.31928,-6.95155 -27.31928,-6.95155z" fill="#ffe23b" stroke="#000000" stroke-width="2.5" stroke-linecap="butt"/><path d="M280.78554,149.87768c0,0 -18.22707,6.33358 -27.31929,6.95156c-9.63356,0.65476 -28.952,-3.12697 -28.952,-3.12697c0,0 11.80023,-0.73756 16.93768,-4.96331c8.26575,-6.79891 29.88612,-28.57638 29.88612,-28.57638z" fill="#ffe23b" stroke="#000000" stroke-width="2.5" stroke-linecap="butt"/><path d="M366.02889,154.72275c0,0 9.10599,17.01237 11.1382,25.89609c2.15319,9.41264 1.43899,29.08479 1.43899,29.08479c0,0 -2.5738,-11.53972 -7.55095,-15.95314c-8.00785,-7.10085 -32.89838,-25.04968 -32.89838,-25.04968z" fill="#ffe23b" stroke="#000000" stroke-width="2.5" stroke-linecap="butt"/><path d="M291.96611,175.20089c10.67991,-4.13675 23.01202,-3.35725 34.44799,-3.35725c4.64572,0 10.53098,-0.91717 14.861,0.81091c3.36862,1.3444 9.44815,1.3305 11.91784,3.88813c2.581,2.67291 -1.84688,7.63866 -3.69437,9.27671c-6.23883,5.53157 -18.0417,16.90435 -26.2043,18.6903c-9.35857,2.04762 -23.50788,-12.24202 -31.03112,-17.41552c-1.38079,-0.94953 -10.07843,-4.90999 -10.47005,-5.72759c-0.7502,-1.56617 7.81995,-6.00405 9.36548,-6.51923z" fill="url(#color-2)" stroke="#000000" stroke-width="2.5" stroke-linecap="round"/><path d="M299.1766,163.90421c0,0 -24.89052,17.94883 -32.89838,25.04968c-4.97715,4.41342 -7.55095,15.95314 -7.55095,15.95314c0,0 -0.7142,-19.67215 1.43899,-29.0848c2.03221,-8.88372 11.1382,-25.8961 11.1382,-25.8961z" fill="#ffe23b" stroke="#000000" stroke-width="2.5" stroke-linecap="butt"/><path d="M374.73419,133.24772c0,28.00291 -24.26594,53.64847 -54.51858,53.64847c-30.25264,0 -55.03592,-25.64557 -55.03592,-53.64847c0,-28.0029 24.52462,-50.70374 54.77726,-50.70374c30.25264,0 54.77725,22.70084 54.77725,50.70374z" fill="#ffec7f" stroke="#000000" stroke-width="2.5" stroke-linecap="butt"/><path d="M335.92284,131.07548c0,2.70884 -6.65243,4.90479 -14.85862,4.90479c-8.2062,0 -14.85862,-2.19595 -14.85862,-4.90479c0,-2.70884 6.65243,-4.90479 14.85862,-4.90479c8.2062,0 14.85862,2.19595 14.85862,4.90479z" fill-opacity="0.18431" fill="#ff0505" stroke="none" stroke-width="0" stroke-linecap="butt"/><path d="M351.14816,126.7122c0,2.23487 -1.98847,4.04658 -4.44137,4.04658c-2.4529,0 -4.44137,-1.81172 -4.44137,-4.04658c0,-2.23486 1.98847,-4.04658 4.44137,-4.04658c2.4529,0 4.44137,1.81172 4.44137,4.04658z" fill="#ffffff" stroke="#000000" stroke-width="2.5" stroke-linecap="butt"/><path d="M298.97092,127.04185c0,2.23486 -1.98847,4.04658 -4.44137,4.04658c-2.4529,0 -4.44137,-1.81172 -4.44137,-4.04658c0,-2.23487 1.98847,-4.04659 4.44137,-4.04659c2.4529,0 4.44137,1.81172 4.44137,4.04659z" fill="#ffffff" stroke="#000000" stroke-width="2.5" stroke-linecap="butt"/><path d="M313.58072,85.91499c6.11886,0 11.57038,-0.67608 16.55129,-4.52336c2.34819,-1.81374 5.31505,-7.07483 8.37303,-7.50646c2.51793,-0.3554 2.92089,4.34566 5.10347,5.03424c4.05768,1.28017 10.86602,-1.22158 14.76192,-2.37834c1.18057,-0.35053 4.90835,-2.15585 6.04285,-1.54663c1.98744,1.06728 -1.48164,6.86401 -2.24289,8.04219c-2.74322,4.24568 -3.42969,13.13952 -11.26639,18.6809c-4.94166,3.49428 -17.34553,4.41191 -20.33847,5.91117" fill="#ffec7f" stroke="#000000" stroke-width="2.5" stroke-linecap="round"/><path d="M320.82018,186.89631l0.75093,18.02224l-1.50186,119.70457l0.37547,27.78429" fill="none" stroke-opacity="0.61176" stroke="#000000" stroke-width="2.5" stroke-linecap="round"/><path d="M354.67524,131.34856l-10.19932,1.45705" fill="none" stroke="#000000" stroke-width="2.5" stroke-linecap="round"/><path d="M296.65969,132.80561l-10.19932,-1.45705" fill="none" stroke="#000000" stroke-width="2.5" stroke-linecap="round"/><path d="M290.31523,164.63186l5.59361,-2.66362" fill="none" stroke="#000000" stroke-width="2.5" stroke-linecap="round"/><path d="M342.25588,159.83734l7.45815,3.19635" fill="none" stroke="#000000" stroke-width="2.5" stroke-linecap="round"/><path d="M346.25133,161.96823l-3.19635,5.32725l-10.92086,-4.52816l-11.45359,5.32725l-12.78539,-5.32725l-10.6545,6.92542l-3.99543,-5.85997" fill="none" stroke="#000000" stroke-width="2.5" stroke-linecap="round"/><g stroke="#000000" stroke-width="2.5" stroke-linecap="butt"><path d="M332.49572,211.1406c-0.00957,-1.11135 0.05959,-1.53952 0.35439,-2.19459c0.0339,-0.07534 0.06893,-0.14937 0.10507,-0.22207c0.00636,-0.01341 0.01278,-0.02665 0.01926,-0.03973c0.12424,-0.25046 0.26434,-0.48359 0.41798,-0.69936c0.44633,-0.63715 1.00307,-1.13467 1.65994,-1.48123c0.65069,-0.34328 0.98513,-0.50352 2.01674,-0.52164c0.11425,-0.00456 0.22846,-0.00492 0.34236,-0.00107c0.85485,0.00947 1.17595,0.11685 1.6511,0.37357c0.92822,0.41041 1.72358,1.15705 2.1926,2.24194l0.2074,0.47973l0.2074,-0.47973c0.46902,-1.0849 1.26438,-1.83153 2.1926,-2.24194c0.47515,-0.25671 0.79625,-0.3641 1.65111,-0.37357c0.1139,-0.00385 0.22811,-0.00349 0.34236,0.00107c1.03161,0.01812 1.36605,0.17837 2.01674,0.52164c0.65686,0.34655 1.21359,0.84406 1.65991,1.4812c0.15365,0.21579 0.29376,0.44892 0.41801,0.69939c0.00649,0.01307 0.01291,0.02632 0.01927,0.03973c0.03614,0.0727 0.07117,0.14673 0.10507,0.22206c0.2948,0.65507 0.36397,1.08324 0.35439,2.19459c-0.0002,0.02292 -0.00047,0.04578 -0.00082,0.06859c0.01602,0.8654 -0.08361,1.74146 -0.30739,2.38302c-0.61922,1.77515 -1.80148,3.12848 -4.5448,5.2023c-1.79911,1.36007 -3.83023,3.41787 -3.97019,3.70689c-0.07598,0.15689 -0.21132,0.15689 -0.2873,0c-0.13996,-0.28902 -2.17108,-2.34682 -3.97019,-3.70689c-2.74331,-2.07382 -3.92557,-3.42715 -4.5448,-5.2023c-0.22379,-0.64156 -0.32341,-1.51762 -0.30739,-2.38302c-0.00035,-0.0228 -0.00062,-0.04566 -0.00082,-0.06858z" fill="#ffde00"/><path d="M339.45795,215.68118c-0.00957,-1.11135 0.05959,-1.53952 0.35439,-2.19459c0.0339,-0.07534 0.06893,-0.14937 0.10507,-0.22207c0.00636,-0.01341 0.01278,-0.02665 0.01926,-0.03973c0.12424,-0.25046 0.26434,-0.48358 0.41798,-0.69936c0.44633,-0.63715 1.00306,-1.13467 1.65994,-1.48123c0.65069,-0.34328 0.98513,-0.50352 2.01674,-0.52164c0.11425,-0.00456 0.22846,-0.00492 0.34236,-0.00107c0.85485,0.00947 1.17595,0.11685 1.6511,0.37357c0.92822,0.41041 1.72358,1.15705 2.19261,2.24194l0.2074,0.47973l0.2074,-0.47973c0.46902,-1.0849 1.26438,-1.83152 2.1926,-2.24194c0.47515,-0.25672 0.79625,-0.3641 1.65111,-0.37357c0.1139,-0.00385 0.22811,-0.00349 0.34236,0.00107c1.03161,0.01812 1.36605,0.17837 2.01674,0.52164c0.65686,0.34655 1.21359,0.84406 1.65991,1.4812c0.15365,0.21578 0.29376,0.44893 0.41801,0.69939c0.00649,0.01307 0.01291,0.02632 0.01927,0.03974c0.03614,0.0727 0.07117,0.14673 0.10507,0.22206c0.2948,0.65507 0.36397,1.08324 0.35439,2.19459c-0.0002,0.02292 -0.00047,0.04578 -0.00082,0.06858c0.01602,0.8654 -0.08361,1.74146 -0.30739,2.38302c-0.61922,1.77515 -1.80148,3.12848 -4.5448,5.2023c-1.79911,1.36007 -3.83023,3.41787 -3.9702,3.70689c-0.07598,0.15689 -0.21132,0.15689 -0.2873,0c-0.13996,-0.28902 -2.17108,-2.34682 -3.97019,-3.70689c-2.74331,-2.07382 -3.92557,-3.42715 -4.5448,-5.2023c-0.22379,-0.64156 -0.32342,-1.51762 -0.3074,-2.38302c-0.00035,-0.0228 -0.00062,-0.04566 -0.00082,-0.06858z" fill="#ffce4e"/></g></g></g></svg>