<svg version="1.1" xmlns="http://www.w3.org/2000/svg" xmlns:xlink="http://www.w3.org/1999/xlink" width="160.52142" height="297.03724" viewBox="0,0,160.52142,297.03724"><defs><linearGradient x1="369.97513" y1="51.4041" x2="370.69053" y2="91.39507" gradientUnits="userSpaceOnUse" id="color-1"><stop offset="0" stop-color="#5d5d5d"/><stop offset="1" stop-color="#151515"/></linearGradient><linearGradient x1="332.17172" y1="61.97721" x2="332.92534" y2="104.10467" gradientUnits="userSpaceOnUse" id="color-2"><stop offset="0" stop-color="#cfcfcf"/><stop offset="1" stop-color="#868686"/></linearGradient><linearGradient x1="317.85069" y1="168.19133" x2="321.84606" y2="346.98084" gradientUnits="userSpaceOnUse" id="color-3"><stop offset="0" stop-color="#383838"/><stop offset="1" stop-color="#191919"/></linearGradient><linearGradient x1="123.95216" y1="95.43505" x2="123.97452" y2="96.68485" gradientUnits="userSpaceOnUse" id="color-4"><stop offset="0" stop-color="#878787"/><stop offset="1" stop-color="#848484"/></linearGradient><radialGradient cx="386.72917" cy="92.64426" r="13.62022" gradientUnits="userSpaceOnUse" id="color-5"><stop offset="0" stop-color="#ffffff"/><stop offset="1" stop-color="#ffffff" stop-opacity="0"/></radialGradient></defs><g transform="translate(-250.79432,-50.27749)"><g stroke-miterlimit="10"><path d="M330.51173,73.85497c-0.04489,-0.23833 -0.05468,-0.48671 -0.03564,-0.7414c0.01116,-0.31431 0.06968,-0.61623 0.17035,-0.89732c0.50475,-1.73154 1.93846,-3.55017 2.54032,-4.40646c2.77893,-3.95369 5.03324,-9.53512 9.70701,-11.61729c5.51413,-2.45653 12.56863,2.18495 17.9112,4.50066c1.77125,0.76773 4.59254,2.62082 6.37363,2.4734c2.47434,-0.20479 2.96556,-1.88951 4.70725,-3.17823c3.56981,-2.6414 6.49997,-6.72022 10.72897,-8.46084c3.10201,-1.27676 6.02505,0.91842 8.79257,2.46386c6.65257,3.71493 16.73116,10.80187 18.65835,18.09205c1.4808,5.60155 -5.32729,8.12952 -9.33713,8.76595c-1.07902,0.17126 -3.85097,-0.9184 -4.40508,-0.40244c-1.51213,1.40803 -2.60657,2.5382 -3.7503,4.62443c-0.82537,1.50554 -1.14525,4.14249 -2.31682,5.17565c-1.03753,0.91496 -3.17585,1.31668 -4.61104,-0.0234c-1.95581,-1.8262 -0.57458,-4.40601 0.07653,-6.05839c1.25725,-3.19071 3.5871,-7.90516 6.87484,-9.36985c2.8212,-1.25684 6.51541,0.70417 9.01175,-0.70823c0.45879,-0.25958 2.12318,-1.08574 2.10148,-1.6763c-0.10976,-2.98842 -8.06266,-7.98087 -10.41416,-9.7457c-2.04798,-1.53704 -5.36883,-4.75712 -7.83568,-4.99824c-1.46517,-0.14322 -3.83763,2.83006 -4.81138,3.70811c-3.71942,3.35391 -6.87646,7.35657 -12.05063,8.1778c-2.36547,0.37544 -11.98194,-3.25809 -14.31175,-4.70506c-2.3843,-1.48082 -5.75009,-3.42929 -8.38021,-2.65304c-2.44651,0.72205 -6.06483,7.61911 -7.39114,9.6545c-0.16661,0.25568 -1.06207,1.81507 -1.791,2.99836c-0.16251,0.51306 -0.4627,0.96223 -0.87047,1.2985c-0.36909,0.30438 -0.82632,0.51625 -1.34931,0.59926c-1.64429,0.26097 -3.33715,-0.84732 -3.8665,-2.4977c-0.05698,-0.1224 -0.09971,-0.25287 -0.12603,-0.39261z" fill="url(#color-1)" stroke="#000000" stroke-width="2.5" stroke-linecap="butt"/><path d="M294.79722,87.93147l5.66095,-25.33506c0,0 23.99885,-1.02418 35.76127,1.60405c11.51309,2.57253 34.08131,14.0018 34.08131,14.0018l-5.66095,25.33506z" fill="url(#color-2)" stroke="#000000" stroke-width="2.5" stroke-linecap="butt"/><path d="M271.56086,344.24118l-5.56247,-147.19985c0,0 6.49522,-25.81851 16.95262,-26.41088c10.38506,-0.58826 35.0095,-1.58549 56.51057,-2.80344c23.32043,-1.321 31.19267,25.42083 31.19267,25.42083l3.66783,152.79425z" fill="url(#color-3)" stroke="#000000" stroke-width="2.5" stroke-linecap="butt"/><path d="M250.79432,183.64137z" fill="url(#color-4)" stroke="#000000" stroke-width="2.5" stroke-linecap="butt"/><path d="M353.99598,172.01165c0,0 -8.79568,47.38093 -15.03169,64.82639c-4.48338,12.54243 -18.89304,30.07928 -18.89304,30.07928c0,0 -12.26682,-18.05305 -16.61479,-30.23163c-6.2315,-17.45431 -17.20149,-64.4872 -17.20149,-64.4872z" fill="#ffffff" stroke="#000000" stroke-width="2.5" stroke-linecap="round"/><path d="M373.84568,131.09203c-1.43118,28.51832 -26.97732,53.41967 -57.19194,51.90335c-30.21461,-1.51631 -53.65606,-28.87609 -52.22487,-57.3944c1.43119,-28.51831 27.08519,-50.40777 57.2998,-48.89145c30.21461,1.51631 53.54821,25.86418 52.11702,54.38249z" fill="#9c9c9c" stroke="#000000" stroke-width="2.5" stroke-linecap="butt"/><path d="M334.08214,129.27867c0.04845,2.70841 -6.56364,5.02299 -14.76852,5.16977c-8.20489,0.14678 -14.89552,-1.92983 -14.94397,-4.63824c-0.04845,-2.70841 6.56364,-5.02299 14.76852,-5.16977c8.20489,-0.14678 14.89552,1.92983 14.94397,4.63824z" fill-opacity="0.18431" fill="#000000" stroke="none" stroke-width="0" stroke-linecap="butt"/><path d="M290.84072,128.53299c0.05782,2.23412 -1.88315,4.09666 -4.33522,4.16011c-2.45209,0.06345 -4.48675,-1.69623 -4.54457,-3.93034c-0.05782,-2.23412 1.88315,-4.09666 4.33522,-4.16011c2.45209,-0.06345 4.48674,1.69623 4.54455,3.93035z" fill="#ffffff" stroke="#000000" stroke-width="2.5" stroke-linecap="butt"/><path d="M350.56489,123.80946c0.05782,2.23412 -1.88314,4.09666 -4.33522,4.16011c-2.45209,0.06345 -4.48674,-1.69623 -4.54455,-3.93034c-0.05782,-2.23412 1.88314,-4.09665 4.33522,-4.1601c2.45209,-0.06345 4.48675,1.69622 4.54456,3.93033z" fill="#000000" stroke="#000000" stroke-width="2.5" stroke-linecap="butt"/><path d="M307.56882,125.39328c-1.16013,0.4654 -1.62554,-0.69473 -1.62554,-0.69473l-0.06879,-0.192c-1.14359,-2.13295 -2.28628,-4.22377 -3.45781,-6.32943c-1.1256,-2.03199 -2.57293,-4.49432 -5.16872,-4.85579c-3.96572,-0.55225 -8.12771,3.29036 -9.61586,6.44606c-0.49141,1.04207 -1.17023,2.26412 -0.81286,3.35944c0,0 0.33445,1.20442 -0.86997,1.53888c-1.20442,0.33445 -1.53888,-0.86997 -1.53888,-0.86997c-1.58976,-6.40971 6.93452,-13.7424 13.22627,-12.94398c3.38607,0.4297 5.47261,3.41642 6.96691,6.11397c1.17109,2.12239 2.32347,4.21342 3.47421,6.3595l0.18578,0.44254c0,0 0.4654,1.16013 -0.69473,1.62554z" fill="#000000" stroke="none" stroke-width="0.5" stroke-linecap="butt"/><g fill="#000000" stroke="#000000" stroke-width="2.5"><path d="M321.35331,189.7364l19.87191,-6.36966l0.99753,21.90701l-21.37418,-9.89692l-22.83782,9.84977l-0.5747,-20.84061z" stroke-linecap="round"/><path d="M328.48163,193.23718c0.05982,3.34375 -3.1917,5.99816 -7.26247,5.92881c-4.07077,-0.06936 -7.41927,-2.83622 -7.47908,-6.17997c-0.05982,-3.34375 3.1917,-5.99816 7.26247,-5.9288c4.07077,0.06936 7.41927,2.83622 7.47908,6.17997z" stroke-linecap="butt"/></g><path d="M319.05215,215.25136c-3.23456,-0.74744 -5.26113,-5.23544 -0.92393,-6.07137c3.75441,-0.72361 6.38049,4.77366 1.60314,6.05922z" fill="#000000" stroke="none" stroke-width="0.5" stroke-linecap="butt"/><path d="M321.1828,225.83552c2.29896,2.587 1.50291,6.78381 -2.55105,5.41723c-5.69936,-1.92126 0.6844,-8.39035 2.4524,-5.42094z" fill="#000000" stroke="none" stroke-width="0.5" stroke-linecap="butt"/><path d="M322.38487,245.71573c-2.55493,4.66279 -6.18613,0.99774 -5.56167,-0.30912c-0.00334,-0.04589 -0.00543,-0.09214 -0.00626,-0.13871c-0.00459,-0.25654 0.02964,-0.50475 0.09726,-0.73902c0.87162,-4.25841 6.39457,-0.49927 5.47068,1.18684z" fill="#000000" stroke="none" stroke-width="0.5" stroke-linecap="butt"/><path d="M304.10361,255.58285l-19.36587,-61.19832" fill="none" stroke-opacity="0.25882" stroke="#000000" stroke-width="2.5" stroke-linecap="round"/><path d="M337.71144,252.81795l15.58592,-42.59084" fill="none" stroke-opacity="0.25882" stroke="#000000" stroke-width="2.5" stroke-linecap="round"/><path d="M319.76433,270.92929l2.52543,60.53793" fill="none" stroke-opacity="0.25882" stroke="#000000" stroke-width="2.5" stroke-linecap="round"/><path d="M344.46225,253.89924l19.33235,-48.18727" fill="none" stroke-opacity="0.25882" stroke="#000000" stroke-width="2.5" stroke-linecap="round"/><path d="M276.68682,201.26002l18.85082,59.28425" fill="none" stroke-opacity="0.25882" stroke="#000000" stroke-width="2.5" stroke-linecap="round"/><path d="M325.2652,174.21954c0.05782,2.23412 -1.88314,4.09666 -4.33522,4.16011c-2.45209,0.06345 -4.48674,-1.69623 -4.54455,-3.93034c-0.05782,-2.23412 1.88314,-4.09665 4.33522,-4.1601c2.45209,-0.06345 4.48675,1.69622 4.54456,3.93033z" fill="#000000" stroke="#000000" stroke-width="2.5" stroke-linecap="butt"/><path d="M400.34938,92.64426c0,7.41322 -6.09798,13.42282 -13.62022,13.42282c-7.52224,0 -13.62021,-6.0096 -13.62021,-13.42282c0,-7.41322 6.09797,-13.42282 13.62021,-13.42282c7.52224,0 13.62022,6.0096 13.62022,13.42282z" fill="url(#color-5)" stroke="none" stroke-width="0" stroke-linecap="butt"/></g></g></svg>