<svg version="1.1" xmlns="http://www.w3.org/2000/svg" xmlns:xlink="http://www.w3.org/1999/xlink" width="170.82667" height="340.60911" viewBox="0,0,170.82667,340.60911"><defs><linearGradient x1="311.93376" y1="239.98011" x2="315.08062" y2="311.52873" gradientUnits="userSpaceOnUse" id="color-1"><stop offset="0" stop-color="#545454"/><stop offset="1" stop-color="#2f2f2f"/></linearGradient><linearGradient x1="315.83412" y1="207.29178" x2="318.98097" y2="278.84042" gradientUnits="userSpaceOnUse" id="color-2"><stop offset="0" stop-color="#545454"/><stop offset="1" stop-color="#2f2f2f"/></linearGradient><linearGradient x1="310.57571" y1="177.21736" x2="313.72256" y2="248.766" gradientUnits="userSpaceOnUse" id="color-3"><stop offset="0" stop-color="#545454"/><stop offset="1" stop-color="#2f2f2f"/></linearGradient><linearGradient x1="310.71185" y1="180.4569" x2="318.43801" y2="356.12356" gradientUnits="userSpaceOnUse" id="color-4"><stop offset="0" stop-color="#4e2710"/><stop offset="1" stop-color="#3a1a09"/></linearGradient><linearGradient x1="312.15996" y1="180.43525" x2="313.27523" y2="205.79234" gradientUnits="userSpaceOnUse" id="color-5"><stop offset="0" stop-color="#e07130"/><stop offset="1" stop-color="#c2551f"/></linearGradient><linearGradient x1="284.37349" y1="210.34925" x2="285.54912" y2="237.07903" gradientUnits="userSpaceOnUse" id="color-6"><stop offset="0" stop-color="#4e2710"/><stop offset="1" stop-color="#3a1a09"/></linearGradient><linearGradient x1="366.87185" y1="156.81495" x2="357.05189" y2="206.64538" gradientUnits="userSpaceOnUse" id="color-7"><stop offset="0" stop-color="#e07130"/><stop offset="1" stop-color="#c2551f"/></linearGradient><linearGradient x1="365.25495" y1="138.9126" x2="367.48377" y2="189.58821" gradientUnits="userSpaceOnUse" id="color-8"><stop offset="0" stop-color="#e07130"/><stop offset="1" stop-color="#c2551f"/></linearGradient><linearGradient x1="253.39977" y1="160.50461" x2="267.55994" y2="209.35551" gradientUnits="userSpaceOnUse" id="color-9"><stop offset="0" stop-color="#e07130"/><stop offset="1" stop-color="#c2551f"/></linearGradient><linearGradient x1="255.14441" y1="139.51216" x2="257.37322" y2="190.18775" gradientUnits="userSpaceOnUse" id="color-10"><stop offset="0" stop-color="#e07130"/><stop offset="1" stop-color="#c2551f"/></linearGradient><linearGradient x1="305.39602" y1="86.38802" x2="309.9944" y2="190.93949" gradientUnits="userSpaceOnUse" id="color-11"><stop offset="0" stop-color="#e07130"/><stop offset="1" stop-color="#c2551f"/></linearGradient><linearGradient x1="310.41919" y1="20.1579" x2="303.93996" y2="104.33018" gradientUnits="userSpaceOnUse" id="color-12"><stop offset="0" stop-color="#a1a1a1"/><stop offset="1" stop-color="#767676"/></linearGradient></defs><g transform="translate(-227.25068,-15.14823)"><g stroke-miterlimit="10"><g stroke="#000000" stroke-width="2.5"><path d="M387.50582,299.42008l-74.16609,12.17976l-71.48777,-6.23019c0,0 29.86061,-63.74663 70.0818,-65.38955c40.2212,-1.64292 75.57205,59.44 75.57205,59.44z" fill="url(#color-1)" stroke-linecap="butt"/><path d="M252.72008,301.19021l58.55508,-19.30441l63.6114,11.89816" fill="none" stroke-linecap="round"/><path d="M283.23517,303.97056l29.93169,-10.48428l37.09192,5.73315" fill="none" stroke-linecap="round"/></g><g stroke="#000000" stroke-width="2.5"><path d="M391.40617,266.73175l-74.16609,12.17976l-71.48777,-6.23019c0,0 29.86061,-63.74663 70.0818,-65.38955c40.2212,-1.64292 75.57205,59.44 75.57205,59.44z" fill="url(#color-2)" stroke-linecap="butt"/><path d="M256.62044,268.50189l58.55508,-19.30441l63.6114,11.89816" fill="none" stroke-linecap="round"/><path d="M287.13553,271.28222l29.93169,-10.48428l37.09192,5.73316" fill="none" stroke-linecap="round"/></g><g stroke="#000000" stroke-width="2.5"><path d="M386.14775,236.65736l-74.16608,12.17976l-71.48778,-6.23019c0,0 29.86061,-63.74663 70.08181,-65.38955c40.2212,-1.64292 75.57204,59.44 75.57204,59.44z" fill="url(#color-3)" stroke-linecap="butt"/><path d="M251.36202,238.42747l58.55509,-19.3044l63.6114,11.89816" fill="none" stroke-linecap="round"/><path d="M281.87711,241.20784l29.93169,-10.48427l37.09192,5.73316" fill="none" stroke-linecap="round"/></g><path d="M270.47007,354.50227l-8.52663,-144.5803c0,0 5.62211,-25.51829 15.57214,-26.3235c9.8812,-0.79963 33.31961,-2.30478 53.77748,-3.96033c22.18896,-1.79563 30.27529,24.32404 30.27529,24.32404l6.8442,150.12004z" fill="url(#color-4)" stroke="#000000" stroke-width="2.5" stroke-linecap="butt"/><path d="M332.01314,192.32563c0.30797,7.00218 -8.08127,13.03143 -18.73792,13.46673c-10.65664,0.43529 -19.5452,-4.88821 -19.85317,-11.89039c-0.30797,-7.00218 8.08127,-13.03143 18.73792,-13.46673c10.65664,-0.43529 19.5452,4.88821 19.85317,11.89039z" fill="url(#color-5)" stroke="#000000" stroke-width="2.5" stroke-linecap="butt"/><path d="M298.91622,223.14412c0.32464,7.38122 -5.66001,13.62011 -13.36711,13.93492c-7.70709,0.31481 -14.21809,-5.41364 -14.54273,-12.79488c-0.32464,-7.38122 5.66001,-13.62011 13.36711,-13.93492c7.70709,-0.31481 14.21809,5.41364 14.54273,12.79488z" fill="url(#color-6)" stroke="#ffffff" stroke-width="2.5" stroke-linecap="butt"/><path d="M279.8796,221.47975l1.01068,-1.75696" fill="none" stroke="#ffffff" stroke-width="2.5" stroke-linecap="round"/><path d="M288.49647,219.50741l0.6635,1.59325" fill="none" stroke="#ffffff" stroke-width="2.5" stroke-linecap="round"/><path d="M293.26559,226.74718l-2.73337,3.06642l-11.45238,0.4678l-2.11264,-3.0591" fill="none" stroke="#ffffff" stroke-width="2.5" stroke-linecap="round"/><path d="M331.13978,22.52498c0,0 -3.52215,1.61649 -13.55629,2.47267c-3.4985,0.29851 -14.61645,1.387 -17.25863,1.47153c-4.27091,0.13664 -11.18467,-0.51367 -16.73034,-0.72802c-7.48388,-0.28925 -13.22941,-1.27178 -13.22941,-1.27178" fill="none" stroke="#000000" stroke-width="2.5" stroke-linecap="round"/><path d="M350.90859,153.89333c0,0 12.74949,10.92992 17.42654,19.37361c5.71954,10.32574 14.39681,38.07845 14.39681,38.07845c0,0 -16.27724,-20.07872 -24.72554,-24.67011c-7.44652,-4.04693 -23.33925,-1.45154 -23.33925,-1.45154z" fill="url(#color-7)" stroke="#000000" stroke-width="2.5" stroke-linecap="round"/><path d="M349.02093,139.57571c0,0 14.99969,7.84041 21.55136,15.03394c8.01199,8.7969 23.02708,33.9118 23.02708,33.9118c0,0 -20.59916,-15.97303 -29.91125,-18.58702c-8.20788,-2.30402 -23.06789,3.71529 -23.06789,3.71529z" fill="url(#color-8)" stroke="#000000" stroke-width="2.5" stroke-linecap="round"/><path d="M287.98346,186.18526c0,0 -16.06363,-1.29006 -23.12809,3.3496c-8.01485,5.26386 -22.47068,26.59794 -22.47068,26.59794c0,0 6.20928,-28.36079 11.00165,-39.1159c3.91888,-8.79481 15.66292,-20.72522 15.66292,-20.72522z" fill="url(#color-9)" stroke="#000000" stroke-width="2.5" stroke-linecap="round"/><path d="M282.7409,172.11576c0,0 -15.33524,-4.78592 -23.31137,-1.82082c-9.04917,3.364 -28.17192,20.95956 -28.17192,20.95956c0,0 12.756,-26.24928 19.96682,-35.66798c5.89653,-7.70199 20.15399,-16.73748 20.15399,-16.73748z" fill="url(#color-10)" stroke="#000000" stroke-width="2.5" stroke-linecap="round"/><path d="M341.90332,92.98487l8.95287,8.33016l-14.29046,57.52402l-60.18515,1.25893l-18.08623,-53.23713l8.68889,-10.52043" fill="none" stroke="#000000" stroke-width="2.5" stroke-linecap="round"/><path d="M363.4961,138.57362c-0.7477,28.06467 -26.18062,53.15445 -57.03444,52.39102c-30.85382,-0.76342 -55.44486,-27.09097 -54.69715,-55.15563c0.7477,-28.06466 26.36582,-50.1967 57.21965,-49.43327c30.85382,0.76342 55.25967,24.13321 54.51196,52.19787z" fill="url(#color-11)" stroke="#000000" stroke-width="2.5" stroke-linecap="butt"/><path d="M266.01233,101.07967l10.33222,-83.35775c0,0 7.27806,-1.47197 16.53109,-1.51643c5.82059,-0.02797 13.31644,-0.12334 17.69336,0.18956c4.33935,0.31022 12.20155,2.03354 17.93659,2.87992c9.30689,1.3735 15.98827,3.31891 15.98827,3.31891l-2.75999,83.09047c0,0 -5.0544,4.14481 -15.74553,6.60527c-5.85188,1.34675 -17.02751,1.929 -21.54051,1.65457c-5.5531,-0.33768 -16.59285,-2.23718 -24.01031,-5.0028c-9.24735,-3.44792 -14.42519,-7.86171 -14.42519,-7.86171z" fill="url(#color-12)" stroke="#000000" stroke-width="2.5" stroke-linecap="butt"/><path d="M278.51351,178.48361c0,0 5.56572,-1.58506 8.75441,-2.49318c3.84038,-1.09371 12.69846,-3.61641 12.69846,-3.61641l8.54496,2.92522l5.94416,-2.74173l25.70991,3.79548" fill="none" stroke="#000000" stroke-width="2.5" stroke-linecap="round"/><path d="M322.45321,133.10804c0.11703,2.66089 -6.56888,5.09494 -14.93338,5.43661c-8.36452,0.34166 -15.24016,-1.53843 -15.3572,-4.19932c-0.11703,-2.66089 6.56888,-5.09494 14.93338,-5.43661c8.36452,-0.34166 15.24016,1.53843 15.3572,4.19932z" fill-opacity="0.18431" fill="#000000" stroke="none" stroke-width="0" stroke-linecap="butt"/><path d="M336.98744,223.90299c-1.62271,-0.68012 2.0395,-3.52699 2.89025,-4.84757c2.24517,-3.48506 7.38537,-7.23781 11.94571,-4.85007c4.60606,2.41166 6.05339,15.76015 7.51151,20.6128c0.94881,3.15768 -1.31913,8.48748 -1.9425,11.60047c-0.66421,3.31687 -0.43162,7.52804 -2.58956,10.44057c-1.86744,2.52043 -4.81148,4.88993 -7.26795,6.59012c-3.47417,2.40452 -6.04084,6.49207 -9.91715,8.35072c-5.61203,2.69089 -15.88705,1.01309 -21.46223,-1.71675c-6.89664,-3.37688 -12.58337,-10.52039 -9.54576,-18.0972c0.83944,-2.09383 4.04966,-2.84226 4.78646,-4.80367c0.95021,-2.5295 -2.12475,-5.81034 1.52451,-9.21129c1.20009,-1.11843 4.36687,-1.5181 5.32632,-2.77904c2.13185,-2.80171 -0.5131,-8.52111 1.30851,-11.66953c2.24311,-3.87692 15.1332,-1.66887 18.34219,0.28788z" fill="#d7692b" stroke="#000000" stroke-width="2.5" stroke-linecap="round"/><path d="M283.79565,234.43868c3.02566,-2.21143 15.67564,-5.46271 18.25113,-1.78262c2.09154,2.98858 -0.04173,8.90317 2.32847,11.52098c1.06673,1.17818 4.25725,1.31816 5.55124,2.33472c3.9348,3.09118 1.15895,6.61101 2.32785,9.05394c0.90639,1.89429 4.17081,2.37823 5.19108,4.39612c3.69201,7.30193 -1.34708,14.88356 -7.92248,18.81074c-5.31548,3.17469 -15.40634,5.68437 -21.23451,3.46078c-4.0256,-1.53586 -6.94199,-5.39944 -10.61482,-7.51203c-2.59696,-1.49375 -5.7385,-3.61468 -7.82054,-5.97379c-2.40595,-2.7261 -2.54397,-6.94115 -3.49703,-10.19195c-0.89449,-3.05098 -3.62227,-8.17671 -2.95413,-11.40045c1.0268,-4.95415 1.29688,-18.3728 5.67464,-21.15142c4.33433,-2.75105 9.78561,0.56905 12.32874,3.85853c0.96367,1.24648 4.86269,3.78447 3.30553,4.59448z" fill="#d7692b" stroke="#000000" stroke-width="2.5" stroke-linecap="round"/><path d="M290.02605,130.45945l-10.26391,2.86329l-3.78144,-2.08239" fill="none" stroke="#000000" stroke-width="2.5" stroke-linecap="round"/><path d="M340.80536,132.28155l-4.59174,1.0412l-10.53401,-2.86329" fill="none" stroke="#000000" stroke-width="2.5" stroke-linecap="round"/></g></g></svg>