<svg version="1.1" xmlns="http://www.w3.org/2000/svg" xmlns:xlink="http://www.w3.org/1999/xlink" width="677.32598" height="409.96399" viewBox="0,0,677.32598,409.96399"><defs><linearGradient x1="320" y1="-24.98199" x2="320" y2="384.98199" gradientUnits="userSpaceOnUse" id="color-1"><stop offset="0" stop-color="#141414"/><stop offset="1" stop-color="#ffffff"/></linearGradient></defs><g transform="translate(16.7347,24.98199)"><g stroke-miterlimit="10"><path d="M-16.7347,384.98199v-409.96399h673.46939v409.96399z" fill="url(#color-1)" stroke="none" stroke-width="0"/><path d="M19.52722,326.23833c0,0 -2.29135,-9.26839 -0.89019,-21.58111c0.79182,-6.95811 3.16432,-26.82275 5.38011,-39.21692c2.89636,-16.20093 7.84528,-32.70554 9.37758,-42.93235c0.80683,-5.38487 -0.94402,-9.83444 -0.94402,-9.83444l53.93923,0.44564c0,0 -1.96876,3.82126 -0.79992,9.59895c2.31043,11.42066 9.10677,31.13345 13.17772,48.62309c2.50577,10.76532 4.76811,30.07347 5.54159,36.11457c1.62305,12.67659 -3.43617,18.78257 -3.43617,18.78257c0,0 14.75695,-2.4407 18.1938,2.46913c6.28561,8.97955 2.23965,28.01448 -4.52099,28.7888c-3.08486,0.35332 -26.8952,-1.17971 -37.44796,-7.30442c-12.82963,-7.44617 -11.13767,-22.26137 -15.57289,-20.36975c-4.87652,2.07984 -5.10188,16.48226 -14.06095,21.60693c-12.99992,7.43608 -36.64472,8.40356 -39.78951,8.40356c-4.22933,0 -10.61072,-17.17282 -5.85993,-26.81931c3.2133,-6.52463 17.71251,-6.77495 17.71251,-6.77495z" fill="#848484" stroke="#000000" stroke-width="2.5"/><path d="M114.60344,172.02167c0,28.00291 -24.26594,53.64847 -54.51858,53.64847c-30.25264,0 -55.03592,-25.64557 -55.03592,-53.64847c0,-28.0029 24.52462,-50.70374 54.77726,-50.70374c30.25264,0 54.77725,22.70084 54.77725,50.70374z" fill="#848484" stroke="#000000" stroke-width="2.5"/><path d="M76.13731,169.84944c0,2.70884 -6.65243,4.90479 -14.85862,4.90479c-8.2062,0 -14.85862,-2.19595 -14.85862,-4.90479c0,-2.70884 6.65243,-4.90479 14.85862,-4.90479c8.2062,0 14.85862,2.19595 14.85862,4.90479z" fill-opacity="0.18431" fill="#000000" stroke="none" stroke-width="0"/><path d="M39.18539,165.8158c0,2.23486 -1.98847,4.04658 -4.44137,4.04658c-2.4529,0 -4.44137,-1.81172 -4.44137,-4.04658c0,-2.23487 1.98847,-4.04659 4.44137,-4.04659c2.4529,0 4.44137,1.81172 4.44137,4.04659z" fill="#ffffff" stroke="#000000" stroke-width="2.5"/><path d="M91.36265,165.48615c0,2.23487 -1.98847,4.04658 -4.44137,4.04658c-2.4529,0 -4.44137,-1.81172 -4.44137,-4.04658c0,-2.23486 1.98847,-4.04658 4.44137,-4.04658c2.4529,0 4.44137,1.81172 4.44137,4.04658z" fill="#ffffff" stroke="#000000" stroke-width="2.5"/><path d="M139.69977,331.22993c0,0 -1.95089,-7.89125 -0.75792,-18.37448c0.67417,-5.92424 2.69415,-22.83729 4.58071,-33.38987c2.466,-13.79372 6.67959,-27.84599 7.98421,-36.55325c0.68695,-4.58476 -0.80375,-8.37319 -0.80375,-8.37319l45.92467,0.37942c0,0 -1.67623,3.25348 -0.68106,8.17269c1.96713,9.72372 7.75364,26.50749 11.21971,41.39843c2.13345,9.16576 4.05964,25.605 4.71819,30.74849c1.38189,10.79304 -2.92561,15.99176 -2.92561,15.99176c0,0 12.56429,-2.07805 15.49047,2.10225c5.35166,7.64532 1.90687,23.85195 -3.84924,24.51122c-2.6265,0.30082 -22.89898,-1.00442 -31.88376,-6.21909c-10.92334,-6.33978 -9.48278,-18.95366 -13.25899,-17.34311c-4.15194,1.77081 -4.34382,14.03324 -11.9717,18.39646c-11.06833,6.33119 -31.19987,7.15492 -33.87739,7.15492c-3.60092,0 -9.03413,-14.6212 -4.98923,-22.83436c2.73585,-5.55517 15.0807,-5.76829 15.0807,-5.76829z" fill="#848484" stroke="#000000" stroke-width="2.5"/><path d="M220.6491,199.92755c0,23.8421 -20.66039,45.67711 -46.41794,45.67711c-25.75755,0 -46.85841,-21.83502 -46.85841,-45.67711c0,-23.84209 20.88063,-43.16993 46.63818,-43.16993c25.75755,0 46.63817,19.32784 46.63817,43.16993z" fill="#848484" stroke="#000000" stroke-width="2.5"/><path d="M187.89845,198.07808c0,2.30635 -5.66398,4.17601 -12.65085,4.17601c-6.98688,0 -12.65085,-1.86966 -12.65085,-4.17601c0,-2.30635 5.66398,-4.17601 12.65085,-4.17601c6.98688,0 12.65085,1.86966 12.65085,4.17601z" fill-opacity="0.18431" fill="#000000" stroke="none" stroke-width="0"/><path d="M156.43704,194.64378c0,1.90279 -1.69301,3.44532 -3.78145,3.44532c-2.08844,0 -3.78145,-1.54253 -3.78145,-3.44532c0,-1.9028 1.69301,-3.44533 3.78145,-3.44533c2.08844,0 3.78145,1.54253 3.78145,3.44533z" fill="#ffffff" stroke="#000000" stroke-width="2.5"/><path d="M200.86154,194.36311c0,1.9028 -1.69301,3.44532 -3.78145,3.44532c-2.08844,0 -3.78145,-1.54253 -3.78145,-3.44532c0,-1.90279 1.69301,-3.44532 3.78145,-3.44532c2.08844,0 3.78145,1.54253 3.78145,3.44532z" fill="#ffffff" stroke="#000000" stroke-width="2.5"/><path d="M239.60094,337.23074c0,0 -1.5416,-6.23567 -0.59891,-14.51954c0.53273,-4.68134 2.12892,-18.04605 3.61968,-26.38472c1.94864,-10.89981 5.27822,-22.00393 6.30913,-28.88442c0.54283,-3.62288 -0.63513,-6.6165 -0.63513,-6.6165l36.28973,0.29982c0,0 -1.32456,2.5709 -0.53818,6.45807c1.55443,7.6837 6.12694,20.94625 8.86583,32.71308c1.68585,7.24279 3.20793,20.2331 3.72832,24.29749c1.09197,8.52867 -2.31182,12.63671 -2.31182,12.63671c0,0 9.92831,-1.64208 12.24059,1.6612c4.22889,6.04134 1.50681,18.84784 -3.04167,19.36879c-2.07546,0.23771 -18.0948,-0.7937 -25.19458,-4.91433c-8.63163,-5.0097 -7.4933,-14.97721 -10.47727,-13.70455c-3.28087,1.39929 -3.43249,11.08908 -9.46005,14.53691c-8.7462,5.00291 -24.65417,5.65382 -26.76995,5.65382c-2.84545,0 -7.13878,-11.55369 -3.9425,-18.04374c2.16187,-4.3897 11.91678,-4.55811 11.91678,-4.55811z" fill="#848484" stroke="#000000" stroke-width="2.5"/><path d="M303.56718,233.47545c0,18.84005 -16.32586,36.0941 -36.67951,36.0941c-20.35365,0 -37.02757,-17.25406 -37.02757,-36.0941c0,-18.84005 16.4999,-34.11292 36.85354,-34.11292c20.35365,0 36.85354,15.27288 36.85354,34.11292z" fill="#848484" stroke="#000000" stroke-width="2.5"/><path d="M277.68759,232.014c0,1.82248 -4.47568,3.29989 -9.99672,3.29989c-5.52104,0 -9.99672,-1.47741 -9.99672,-3.29989c0,-1.82248 4.47568,-3.29989 9.99672,-3.29989c5.52104,0 9.99672,1.47741 9.99672,3.29989z" fill-opacity="0.18431" fill="#000000" stroke="none" stroke-width="0"/><path d="M252.82674,229.30021c0,1.50359 -1.33782,2.72249 -2.98811,2.72249c-1.65028,0 -2.98811,-1.21891 -2.98811,-2.72249c0,-1.5036 1.33782,-2.7225 2.98811,-2.7225c1.65028,0 2.98811,1.21891 2.98811,2.7225z" fill="#ffffff" stroke="#000000" stroke-width="2.5"/><path d="M287.93103,229.07842c0,1.5036 -1.33782,2.72249 -2.98811,2.72249c-1.65028,0 -2.98811,-1.21891 -2.98811,-2.72249c0,-1.50359 1.33782,-2.72249 2.98811,-2.72249c1.65028,0 2.98811,1.21891 2.98811,2.72249z" fill="#ffffff" stroke="#000000" stroke-width="2.5"/><path d="M320.45172,340.58903c0,0 -1.31254,-5.30914 -0.50992,-12.36215c0.45357,-3.98576 1.81259,-15.36468 3.08185,-22.46434c1.6591,-9.28026 4.49395,-18.73448 5.37169,-24.59263c0.46217,-3.08458 -0.54075,-5.63339 -0.54075,-5.63339l30.89762,0.25527c0,0 -1.12775,2.18891 -0.45821,5.4985c1.32347,6.54201 5.21656,17.83395 7.5485,27.85241c1.43536,6.16662 2.73128,17.22677 3.17435,20.68725c0.92972,7.26144 -1.96832,10.75908 -1.96832,10.75908c0,0 8.45312,-1.39809 10.42182,1.41437c3.60054,5.14369 1.28292,16.04733 -2.58973,16.49088c-1.76708,0.20239 -15.40618,-0.67576 -21.45104,-4.18414c-7.3491,-4.26533 -6.37991,-12.75182 -8.9205,-11.66826c-2.79338,1.19138 -2.92247,9.44141 -8.05443,12.37694c-7.44665,4.25956 -20.99093,4.81375 -22.79233,4.81375c-2.42266,0 -6.07806,-9.83698 -3.3567,-15.36271c1.84065,-3.73746 10.14613,-3.88085 10.14613,-3.88085z" fill="#848484" stroke="#000000" stroke-width="2.5"/><path d="M374.91354,252.25022c0,16.0407 -13.90008,30.73106 -31.22948,30.73106c-17.3294,0 -31.52583,-14.69037 -31.52583,-30.73106c0,-16.0407 14.04826,-29.04425 31.37766,-29.04425c17.3294,0 31.37765,13.00356 31.37765,29.04425z" fill="#848484" stroke="#000000" stroke-width="2.5"/><path d="M352.87927,251.00592c0,1.55168 -3.81066,2.80957 -8.51135,2.80957c-4.7007,0 -8.51136,-1.25789 -8.51136,-2.80957c0,-1.55168 3.81066,-2.80957 8.51136,-2.80957c4.7007,0 8.51135,1.25789 8.51135,2.80957z" fill-opacity="0.18431" fill="#000000" stroke="none" stroke-width="0"/><path d="M331.71237,248.69536c0,1.28018 -1.13904,2.31797 -2.54412,2.31797c-1.40508,0 -2.54412,-1.03779 -2.54412,-2.31797c0,-1.28018 1.13904,-2.31798 2.54412,-2.31798c1.40508,0 2.54412,1.0378 2.54412,2.31798z" fill="#ffffff" stroke="#000000" stroke-width="2.5"/><path d="M361.60069,248.50653c0,1.28018 -1.13904,2.31797 -2.54412,2.31797c-1.40508,0 -2.54412,-1.03779 -2.54412,-2.31797c0,-1.28018 1.13904,-2.31797 2.54412,-2.31797c1.40508,0 2.54412,1.03779 2.54412,2.31797z" fill="#ffffff" stroke="#000000" stroke-width="2.5"/><path d="M389.71991,345.1607c0,0 -1.00072,-4.04786 -0.38878,-9.42529c0.34582,-3.03887 1.38198,-11.71451 2.3497,-17.12751c1.26495,-7.07556 3.42633,-14.28374 4.09554,-18.75018c0.35237,-2.35178 -0.41229,-4.29507 -0.41229,-4.29507l23.5573,0.19463c0,0 -0.85983,1.66889 -0.34936,4.19222c1.00905,4.98783 3.97727,13.59715 5.75521,21.23554c1.09436,4.70162 2.08241,13.13422 2.42022,15.7726c0.70885,5.53635 -1.50071,8.20306 -1.50071,8.20306c0,0 6.44492,-1.06595 7.94592,1.07836c2.74516,3.92171 0.97814,12.23498 -1.97449,12.57316c-1.34727,0.15431 -11.74615,-0.51522 -16.35494,-3.19012c-5.60318,-3.25202 -4.86424,-9.72238 -6.80127,-8.89624c-2.12976,0.90834 -2.22818,7.19842 -6.14095,9.43656c-5.67756,3.24762 -16.00413,3.67015 -17.37758,3.67015c-1.84711,0 -4.6341,-7.50002 -2.55925,-11.713c1.40337,-2.84955 7.73572,-2.95888 7.73572,-2.95888z" fill="#848484" stroke="#000000" stroke-width="2.5"/><path d="M431.24328,277.80847c0,12.22993 -10.59785,23.43031 -23.81032,23.43031c-13.21247,0 -24.03626,-11.20039 -24.03626,-23.43031c0,-12.22992 10.71083,-22.14424 23.9233,-22.14424c13.21247,0 23.92329,9.91431 23.92329,22.14424z" fill="#848484" stroke="#000000" stroke-width="2.5"/><path d="M414.44367,276.85977c0,1.18305 -2.90537,2.14211 -6.48932,2.14211c-3.58396,0 -6.48932,-0.95905 -6.48932,-2.14211c0,-1.18305 2.90537,-2.14211 6.48932,-2.14211c3.58396,0 6.48932,0.95905 6.48932,2.14211z" fill-opacity="0.18431" fill="#000000" stroke="none" stroke-width="0"/><path d="M398.30537,275.09813c0,0.97605 -0.86844,1.76729 -1.93971,1.76729c-1.07127,0 -1.93971,-0.79125 -1.93971,-1.76729c0,-0.97605 0.86844,-1.7673 1.93971,-1.7673c1.07127,0 1.93971,0.79125 1.93971,1.7673z" fill="#ffffff" stroke="#000000" stroke-width="2.5"/><path d="M421.09315,274.95416c0,0.97605 -0.86844,1.76729 -1.93971,1.76729c-1.07127,0 -1.93971,-0.79125 -1.93971,-1.76729c0,-0.97605 0.86844,-1.76729 1.93971,-1.76729c1.07127,0 1.93971,0.79125 1.93971,1.76729z" fill="#ffffff" stroke="#000000" stroke-width="2.5"/><path d="M442.2038,347.34072c0,0 -0.85203,-3.4464 -0.33101,-8.02483c0.29443,-2.58734 1.17664,-9.97391 2.00057,-14.58262c1.077,-6.02424 2.91723,-12.16139 3.48701,-15.96418c0.30001,-2.00234 -0.35103,-3.65689 -0.35103,-3.65689l20.05704,0.16571c0,0 -0.73208,1.42092 -0.29745,3.56932c0.85912,4.24672 3.38631,11.57682 4.90007,18.08026c0.93176,4.00303 1.773,11.18267 2.06061,13.42903c0.60352,4.71373 -1.27772,6.98421 -1.27772,6.98421c0,0 5.4873,-0.90756 6.76528,0.91813c2.33727,3.339 0.8328,10.41704 -1.68111,10.70497c-1.14709,0.13138 -10.00085,-0.43867 -13.92484,-2.71611c-4.77063,-2.76882 -4.14149,-8.27778 -5.7907,-7.57439c-1.81331,0.77338 -1.89711,6.12885 -5.2285,8.03443c-4.83396,2.76507 -13.62616,3.12482 -14.79553,3.12482c-1.57266,0 -3.94555,-6.38563 -2.17899,-9.97263c1.19485,-2.42615 6.58631,-2.51923 6.58631,-2.51923z" fill="#848484" stroke="#000000" stroke-width="2.5"/><path d="M477.55742,289.99602c0,10.41274 -9.02317,19.94892 -20.27246,19.94892c-11.24929,0 -20.46484,-9.53618 -20.46484,-19.94892c0,-10.41274 9.11936,-18.85394 20.36865,-18.85394c11.24929,0 20.36865,8.44119 20.36865,18.85394z" fill="#848484" stroke="#000000" stroke-width="2.5"/><path d="M463.25398,289.18829c0,1.00727 -2.47367,1.82382 -5.5251,1.82382c-3.05143,0 -5.52511,-0.81655 -5.52511,-1.82382c0,-1.00727 2.47367,-1.82382 5.52511,-1.82382c3.05143,0 5.5251,0.81655 5.5251,1.82382z" fill-opacity="0.18431" fill="#000000" stroke="none" stroke-width="0"/><path d="M449.51359,287.6884c0,0.83102 -0.7394,1.5047 -1.6515,1.5047c-0.9121,0 -1.6515,-0.67368 -1.6515,-1.5047c0,-0.83102 0.7394,-1.50471 1.6515,-1.50471c0.9121,0 1.6515,0.67368 1.6515,1.50471z" fill="#ffffff" stroke="#000000" stroke-width="2.5"/><path d="M468.91545,287.56582c0,0.83102 -0.7394,1.5047 -1.6515,1.5047c-0.9121,0 -1.6515,-0.67368 -1.6515,-1.5047c0,-0.83102 0.7394,-1.5047 1.6515,-1.5047c0.9121,0 1.6515,0.67368 1.6515,1.5047z" fill="#ffffff" stroke="#000000" stroke-width="2.5"/><path d="M485.83441,349.9615c0,0 -0.67327,-2.72335 -0.26157,-6.34123c0.23266,-2.04452 0.92978,-7.88139 1.58085,-11.5232c0.85104,-4.76036 2.3052,-9.60995 2.75544,-12.61491c0.23707,-1.58225 -0.27738,-2.88968 -0.27738,-2.88968l15.84909,0.13094c0,0 -0.57849,1.12281 -0.23504,2.82048c0.67888,3.35576 2.67586,9.14802 3.87204,14.28704c0.73628,3.1632 1.40103,8.83656 1.6283,10.61163c0.4769,3.72479 -1.00966,5.51893 -1.00966,5.51893c0,0 4.33607,-0.71716 5.34593,0.72551c1.84692,2.63848 0.65808,8.23156 -1.32841,8.45908c-0.90643,0.10382 -7.90268,-0.34664 -11.00342,-2.14628c-3.76976,-2.18793 -3.27261,-6.54111 -4.57582,-5.98529c-1.43288,0.61112 -1.4991,4.84302 -4.13156,6.34882c-3.8198,2.18496 -10.7674,2.46924 -11.69145,2.46924c-1.24271,0 -3.11777,-5.04593 -1.72184,-7.88038c0.94417,-1.91715 5.20451,-1.9907 5.20451,-1.9907z" fill="#848484" stroke="#000000" stroke-width="2.5"/><path d="M513.77088,304.64765c0,8.22816 -7.13012,15.76366 -16.01932,15.76366c-8.8892,0 -16.17133,-7.5355 -16.17133,-15.76366c0,-8.22816 7.20613,-14.8984 16.09533,-14.8984c8.8892,0 16.09533,6.67024 16.09533,14.8984z" fill="#848484" stroke="#000000" stroke-width="2.5"/><path d="M502.46828,304.00938c0,0.79595 -1.9547,1.44118 -4.36594,1.44118c-2.41125,0 -4.36594,-0.64524 -4.36594,-1.44118c0,-0.79595 1.9547,-1.44119 4.36594,-1.44119c2.41125,0 4.36594,0.64524 4.36594,1.44119z" fill-opacity="0.18431" fill="#000000" stroke="none" stroke-width="0"/><path d="M491.61061,302.82417c0,0.65667 -0.58428,1.18902 -1.30502,1.18902c-0.72074,0 -1.30502,-0.53234 -1.30502,-1.18902c0,-0.65668 0.58428,-1.18902 1.30502,-1.18902c0.72074,0 1.30502,0.53234 1.30502,1.18902z" fill="#ffffff" stroke="#000000" stroke-width="2.5"/><path d="M506.94198,302.72731c0,0.65668 -0.58428,1.18902 -1.30502,1.18902c-0.72074,0 -1.30502,-0.53234 -1.30502,-1.18902c0,-0.65667 0.58428,-1.18902 1.30502,-1.18902c0.72074,0 1.30502,0.53234 1.30502,1.18902z" fill="#ffffff" stroke="#000000" stroke-width="2.5"/><path d="M521.14499,351.4282c0,0 -0.57323,-2.3187 -0.2227,-5.39902c0.19809,-1.74073 0.79163,-6.71034 1.34596,-9.81103c0.72459,-4.05304 1.96268,-8.18205 2.34602,-10.74053c0.20185,-1.34715 -0.23617,-2.46031 -0.23617,-2.46031l13.49415,0.11149c0,0 -0.49253,0.95598 -0.20012,2.4014c0.57801,2.85714 2.27827,7.78876 3.29671,12.1642c0.62688,2.6932 1.19285,7.52358 1.38636,9.0349c0.40604,3.17134 -0.85964,4.6989 -0.85964,4.6989c0,0 3.6918,-0.6106 4.5516,0.61771c1.57249,2.24644 0.5603,7.00847 -1.13103,7.20219c-0.77175,0.08839 -6.72846,-0.29513 -9.36848,-1.82737c-3.20963,-1.86283 -2.78635,-5.5692 -3.89592,-5.09597c-1.21997,0.52032 -1.27635,4.12342 -3.51767,5.40548c-3.25223,1.86031 -9.16753,2.10235 -9.95427,2.10235c-1.05806,0 -2.65452,-4.29618 -1.466,-6.70948c0.80388,-1.63229 4.4312,-1.69491 4.4312,-1.69491z" fill="#848484" stroke="#000000" stroke-width="2.5"/><path d="M544.93053,312.8473c0,7.00558 -6.07069,13.42142 -13.63909,13.42142c-7.5684,0 -13.76852,-6.41584 -13.76852,-13.42142c0,-7.00558 6.1354,-12.68472 13.70381,-12.68472c7.5684,0 13.70381,5.67914 13.70381,12.68472z" fill="#848484" stroke="#000000" stroke-width="2.5"/><path d="M535.30733,312.30387c0,0.67768 -1.66426,1.22705 -3.71723,1.22705c-2.05297,0 -3.71723,-0.54937 -3.71723,-1.22705c0,-0.67768 1.66426,-1.22705 3.71723,-1.22705c2.05297,0 3.71723,0.54937 3.71723,1.22705z" fill-opacity="0.18431" fill="#000000" stroke="none" stroke-width="0"/><path d="M526.06294,311.29476c0,0.5591 -0.49746,1.01234 -1.11111,1.01234c-0.61365,0 -1.11111,-0.45324 -1.11111,-1.01234c0,-0.55911 0.49746,-1.01235 1.11111,-1.01235c0.61365,0 1.11111,0.45324 1.11111,1.01235z" fill="#ffffff" stroke="#000000" stroke-width="2.5"/><path d="M539.1163,311.21229c0,0.55911 -0.49746,1.01235 -1.11111,1.01235c-0.61365,0 -1.11111,-0.45324 -1.11111,-1.01235c0,-0.5591 0.49746,-1.01234 1.11111,-1.01234c0.61365,0 1.11111,0.45324 1.11111,1.01234z" fill="#ffffff" stroke="#000000" stroke-width="2.5"/><path d="M551.28806,353.19184c0,0 -0.45294,-1.83213 -0.17597,-4.26605c0.15652,-1.37545 0.62551,-5.30219 1.06351,-7.75221c0.57254,-3.20252 1.55082,-6.46507 1.85371,-8.48666c0.15949,-1.06445 -0.18661,-1.94402 -0.18661,-1.94402l10.66244,0.08809c0,0 -0.38917,0.75537 -0.15812,1.89747c0.45671,2.25758 1.80018,6.15431 2.60491,9.61157c0.49533,2.12803 0.94253,5.94477 1.09543,7.13895c0.32084,2.50585 -0.67924,3.71285 -0.67924,3.71285c0,0 2.91708,-0.48247 3.59646,0.48808c1.24251,1.77503 0.44272,5.53776 -0.89369,5.69083c-0.6098,0.06984 -5.31651,-0.2332 -7.40253,-1.4439c-2.5361,-1.47192 -2.20164,-4.40052 -3.07837,-4.02659c-0.96397,0.41113 -1.00851,3.25813 -2.7795,4.27115c-2.56976,1.46993 -7.24375,1.66117 -7.86539,1.66117c-0.83603,0 -2.09748,-3.39464 -1.15836,-5.30151c0.63519,-1.28976 3.50132,-1.33924 3.50132,-1.33924z" fill="#848484" stroke="#000000" stroke-width="2.5"/><path d="M570.08226,322.70705c0,5.53548 -4.79677,10.60496 -10.77696,10.60496c-5.98019,0 -10.87923,-5.06949 -10.87923,-10.60496c0,-5.53548 4.84791,-10.02287 10.8281,-10.02287c5.98019,0 10.82809,4.48739 10.82809,10.02287z" fill="#848484" stroke="#000000" stroke-width="2.5"/><path d="M562.47846,322.27766c0,0.53547 -1.31502,0.96955 -2.93718,0.96955c-1.62216,0 -2.93718,-0.43408 -2.93718,-0.96955c0,-0.53547 1.31502,-0.96956 2.93718,-0.96956c1.62216,0 2.93718,0.43408 2.93718,0.96956z" fill-opacity="0.18431" fill="#000000" stroke="none" stroke-width="0"/><path d="M555.17399,321.4803c0,0.44178 -0.39307,0.79991 -0.87795,0.79991c-0.48488,0 -0.87795,-0.35813 -0.87795,-0.79991c0,-0.44178 0.39307,-0.79991 0.87795,-0.79991c0.48488,0 0.87795,0.35813 0.87795,0.79991z" fill="#ffffff" stroke="#000000" stroke-width="2.5"/><path d="M565.48813,321.41514c0,0.44178 -0.39307,0.79991 -0.87795,0.79991c-0.48488,0 -0.87795,-0.35813 -0.87795,-0.79991c0,-0.44178 0.39307,-0.79991 0.87795,-0.79991c0.48488,0 0.87795,0.35813 0.87795,0.79991z" fill="#ffffff" stroke="#000000" stroke-width="2.5"/><path d="M575.04318,354.17855c0,0 -0.38564,-1.5599 -0.14982,-3.63218c0.13327,-1.17107 0.53257,-4.51436 0.90549,-6.60035c0.48747,-2.72667 1.32039,-5.50446 1.57828,-7.22567c0.13579,-0.90629 -0.15888,-1.65517 -0.15888,-1.65517l9.07816,0.075c0,0 -0.33135,0.64313 -0.13463,1.61554c0.38885,1.92214 1.5327,5.23987 2.21786,8.18344c0.42173,1.81184 0.80249,5.06147 0.93267,6.07821c0.27317,2.13352 -0.57832,3.16117 -0.57832,3.16117c0,0 2.48365,-0.41078 3.06208,0.41556c1.05789,1.51129 0.37694,4.71493 -0.7609,4.84526c-0.51919,0.05946 -4.52656,-0.19855 -6.30262,-1.22936c-2.15927,-1.25322 -1.87451,-3.74667 -2.62097,-3.4283c-0.82074,0.35004 -0.85866,2.77402 -2.36651,3.63652c-2.18793,1.25152 -6.16743,1.41435 -6.69671,1.41435c-0.71181,0 -1.78582,-2.89025 -0.98625,-4.51378c0.54081,-1.09812 2.98108,-1.14025 2.98108,-1.14025z" fill="#848484" stroke="#000000" stroke-width="2.5"/><path d="M591.04483,328.22335c0,4.71299 -4.08404,9.02923 -9.17567,9.02923c-5.09163,0 -9.26274,-4.31624 -9.26274,-9.02923c0,-4.71299 4.12758,-8.53362 9.2192,-8.53362c5.09163,0 9.2192,3.82063 9.2192,8.53362z" fill="#848484" stroke="#000000" stroke-width="2.5"/><path d="M584.57085,327.85775c0,0.45591 -1.11963,0.82549 -2.50076,0.82549c-1.38113,0 -2.50076,-0.36958 -2.50076,-0.82549c0,-0.45591 1.11963,-0.82549 2.50076,-0.82549c1.38113,0 2.50076,0.36958 2.50076,0.82549z" fill-opacity="0.18431" fill="#000000" stroke="none" stroke-width="0"/><path d="M578.35171,327.17888c0,0.37613 -0.33467,0.68106 -0.7475,0.68106c-0.41283,0 -0.7475,-0.30492 -0.7475,-0.68106c0,-0.37614 0.33467,-0.68106 0.7475,-0.68106c0.41283,0 0.7475,0.30492 0.7475,0.68106z" fill="#ffffff" stroke="#000000" stroke-width="2.5"/><path d="M587.13333,327.1234c0,0.37614 -0.33467,0.68105 -0.7475,0.68105c-0.41283,0 -0.7475,-0.30492 -0.7475,-0.68105c0,-0.37613 0.33467,-0.68106 0.7475,-0.68106c0.41283,0 0.7475,0.30492 0.7475,0.68106z" fill="#ffffff" stroke="#000000" stroke-width="2.5"/><path d="M594.79114,355.36476c0,0 -0.30473,-1.23264 -0.11839,-2.87015c0.10531,-0.92539 0.42083,-3.56725 0.71552,-5.2156c0.3852,-2.15462 1.04337,-4.34963 1.24716,-5.70973c0.1073,-0.71615 -0.12555,-1.30792 -0.12555,-1.30792l7.17357,0.05927c0,0 -0.26183,0.5082 -0.10638,1.2766c0.30727,1.51887 1.21114,4.14055 1.75255,6.46656c0.33325,1.43172 0.63413,3.99958 0.737,4.80301c0.21586,1.6859 -0.45699,2.49796 -0.45699,2.49796c0,0 1.96258,-0.3246 2.41966,0.32838c0.83595,1.19422 0.29786,3.72575 -0.60126,3.82873c-0.41027,0.04699 -3.57689,-0.15689 -4.98034,-0.97144c-1.70626,-0.99029 -1.48124,-2.96062 -2.0711,-2.70905c-0.64855,0.27661 -0.67852,2.19203 -1.87002,2.87358c-1.72891,0.98895 -4.87351,1.11762 -5.29175,1.11762c-0.56247,0 -1.41116,-2.28388 -0.77933,-3.5668c0.42735,-0.86774 2.35565,-0.90103 2.35565,-0.90103z" fill="#848484" stroke="#000000" stroke-width="2.5"/><path d="M607.43567,334.85493c0,3.72421 -3.22722,7.1349 -7.25062,7.1349c-4.02341,0 -7.31943,-3.4107 -7.31943,-7.1349c0,-3.72421 3.26162,-6.74328 7.28502,-6.74328c4.02341,0 7.28502,3.01907 7.28502,6.74328z" fill="#848484" stroke="#000000" stroke-width="2.5"/><path d="M602.31992,334.56604c0,0.36026 -0.88473,0.65231 -1.9761,0.65231c-1.09137,0 -1.9761,-0.29205 -1.9761,-0.65231c0,-0.36026 0.88473,-0.65231 1.9761,-0.65231c1.09137,0 1.9761,0.29205 1.9761,0.65231z" fill-opacity="0.18431" fill="#000000" stroke="none" stroke-width="0"/><path d="M597.40555,334.02959c0,0.29722 -0.26446,0.53817 -0.59067,0.53817c-0.32622,0 -0.59067,-0.24095 -0.59067,-0.53817c0,-0.29722 0.26446,-0.53817 0.59067,-0.53817c0.32622,0 0.59067,0.24095 0.59067,0.53817z" fill="#ffffff" stroke="#000000" stroke-width="2.5"/><path d="M604.34479,333.98575c0,0.29722 -0.26445,0.53817 -0.59067,0.53817c-0.32622,0 -0.59067,-0.24095 -0.59067,-0.53817c0,-0.29722 0.26446,-0.53817 0.59067,-0.53817c0.32622,0 0.59067,0.24095 0.59067,0.53817z" fill="#ffffff" stroke="#000000" stroke-width="2.5"/><path d="M610.77332,356.02861c0,0 -0.25945,-1.04948 -0.1008,-2.44369c0.08966,-0.78789 0.35831,-3.03722 0.6092,-4.44064c0.32796,-1.83448 0.88834,-3.70334 1.06185,-4.86135c0.09136,-0.60974 -0.10689,-1.11358 -0.10689,-1.11358l6.10769,0.05046c0,0 -0.22293,0.43269 -0.09058,1.08692c0.26162,1.29319 1.03118,3.52533 1.49215,5.50572c0.28373,1.21899 0.5399,3.4053 0.62749,4.08935c0.18378,1.43541 -0.38909,2.1268 -0.38909,2.1268c0,0 1.67097,-0.27637 2.06013,0.27959c0.71174,1.01678 0.2536,3.17216 -0.51192,3.25984c-0.34931,0.04001 -3.04542,-0.13358 -4.24034,-0.8271c-1.45273,-0.84315 -1.26115,-2.52072 -1.76336,-2.30652c-0.55218,0.23551 -0.5777,1.86633 -1.59216,2.44661c-1.47202,0.84201 -4.14938,0.95156 -4.50547,0.95156c-0.4789,0 -1.20148,-1.94453 -0.66354,-3.03682c0.36385,-0.7388 2.00564,-0.76715 2.00564,-0.76715z" fill="#848484" stroke="#000000" stroke-width="2.5"/><path d="M621.53907,338.56623c0,3.17085 -2.7477,6.07476 -6.17329,6.07476c-3.42559,0 -6.23187,-2.90392 -6.23187,-6.07476c0,-3.17085 2.77699,-5.74133 6.20258,-5.74133c3.42559,0 6.20258,2.57048 6.20258,5.74133z" fill="#848484" stroke="#000000" stroke-width="2.5"/><path d="M617.18344,338.32027c0,0.30673 -0.75327,0.55538 -1.68248,0.55538c-0.92921,0 -1.68248,-0.24865 -1.68248,-0.55538c0,-0.30673 0.75327,-0.55538 1.68248,-0.55538c0.92921,0 1.68248,0.24865 1.68248,0.55538z" fill-opacity="0.18431" fill="#000000" stroke="none" stroke-width="0"/><path d="M612.99927,337.86352c0,0.25306 -0.22516,0.4582 -0.50291,0.4582c-0.27775,0 -0.50291,-0.20514 -0.50291,-0.4582c0,-0.25306 0.22516,-0.4582 0.50291,-0.4582c0.27775,0 0.50291,0.20514 0.50291,0.4582z" fill="#ffffff" stroke="#000000" stroke-width="2.5"/><path d="M618.90745,337.8262c0,0.25306 -0.22516,0.45821 -0.50291,0.45821c-0.27775,0 -0.50291,-0.20515 -0.50291,-0.45821c0,-0.25306 0.22516,-0.4582 0.50291,-0.4582c0.27775,0 0.50291,0.20514 0.50291,0.4582z" fill="#ffffff" stroke="#000000" stroke-width="2.5"/><path d="M625.51729,356.65808c0,0 -0.21652,-0.87582 -0.08412,-2.03932c0.07482,-0.65751 0.29902,-2.53463 0.5084,-3.70582c0.27369,-1.53091 0.74134,-3.09053 0.88614,-4.05691c0.07624,-0.50885 -0.08921,-0.92931 -0.08921,-0.92931l5.09701,0.04211c0,0 -0.18604,0.36109 -0.07559,0.90706c0.21833,1.0792 0.86055,2.94197 1.24523,4.59466c0.23678,1.01727 0.45056,2.84181 0.52366,3.41266c0.15337,1.19788 -0.3247,1.77487 -0.3247,1.77487c0,0 1.39446,-0.23063 1.71923,0.23332c0.59396,0.84853 0.21164,2.64724 -0.42721,2.72041c-0.29151,0.03339 -2.54147,-0.11148 -3.53866,-0.69023c-1.21234,-0.70363 -1.05246,-2.1036 -1.47157,-1.92485c-0.46081,0.19654 -0.4821,1.5575 -1.3287,2.04176c-1.22843,0.70267 -3.46276,0.7941 -3.75993,0.7941c-0.39965,0 -1.00267,-1.62275 -0.55374,-2.5343c0.30364,-0.61655 1.67375,-0.6402 1.67375,-0.6402z" fill="#848484" stroke="#000000" stroke-width="2.5"/><path d="M634.50156,342.0853c0,2.64615 -2.29302,5.06954 -5.15176,5.06954c-2.85874,0 -5.20065,-2.42339 -5.20065,-5.06954c0,-2.64615 2.31747,-4.79127 5.1762,-4.79127c2.85874,0 5.1762,2.14513 5.1762,4.79127z" fill="#848484" stroke="#000000" stroke-width="2.5"/><path d="M630.86669,341.88004c0,0.25597 -0.62862,0.46348 -1.40407,0.46348c-0.77545,0 -1.40407,-0.20751 -1.40407,-0.46348c0,-0.25597 0.62862,-0.46348 1.40407,-0.46348c0.77545,0 1.40407,0.20751 1.40407,0.46348z" fill-opacity="0.18431" fill="#000000" stroke="none" stroke-width="0"/><path d="M627.3749,341.49888c0,0.21118 -0.1879,0.38238 -0.41969,0.38238c-0.23179,0 -0.41969,-0.1712 -0.41969,-0.38238c0,-0.21118 0.1879,-0.38238 0.41969,-0.38238c0.23179,0 0.41969,0.1712 0.41969,0.38238z" fill="#ffffff" stroke="#000000" stroke-width="2.5"/><path d="M632.30541,341.46773c0,0.21118 -0.1879,0.38238 -0.41969,0.38238c-0.23179,0 -0.41969,-0.1712 -0.41969,-0.38238c0,-0.21118 0.1879,-0.38238 0.41969,-0.38238c0.23179,0 0.41969,0.1712 0.41969,0.38238z" fill="#ffffff" stroke="#000000" stroke-width="2.5"/><path d="M636.87305,357.12976c0,0 -0.18435,-0.74569 -0.07162,-1.7363c0.06371,-0.55981 0.25458,-2.15802 0.43286,-3.15519c0.23302,-1.30344 0.63119,-2.63132 0.75447,-3.45412c0.06491,-0.43324 -0.07595,-0.79123 -0.07595,-0.79123l4.33967,0.03585c0,0 -0.15839,0.30744 -0.06436,0.77228c0.18589,0.91885 0.73268,2.50484 1.06021,3.91197c0.2016,0.86612 0.38362,2.41956 0.44585,2.90559c0.13058,1.01989 -0.27646,1.51115 -0.27646,1.51115c0,0 1.18727,-0.19637 1.46378,0.19865c0.50571,0.72245 0.18019,2.2539 -0.36374,2.3162c-0.24819,0.02843 -2.16385,-0.09491 -3.01287,-0.58768c-1.03221,-0.59908 -0.89608,-1.79103 -1.25292,-1.63885c-0.39234,0.16733 -0.41047,1.32608 -1.13127,1.73838c-1.04591,0.59827 -2.94825,0.67611 -3.20126,0.67611c-0.34027,0 -0.85368,-1.38164 -0.47146,-2.15774c0.25853,-0.52494 1.42506,-0.54508 1.42506,-0.54508z" fill="#848484" stroke="#000000" stroke-width="2.5"/><path d="M644.52239,344.72228c0,2.25297 -1.95231,4.31628 -4.38628,4.31628c-2.43397,0 -4.42791,-2.06331 -4.42791,-4.31628c0,-2.25297 1.97312,-4.07936 4.4071,-4.07936c2.43397,0 4.40709,1.82639 4.40709,4.07936z" fill="#848484" stroke="#000000" stroke-width="2.5"/><path d="M641.42761,344.54751c0,0.21794 -0.53522,0.39461 -1.19545,0.39461c-0.66023,0 -1.19545,-0.17667 -1.19545,-0.39461c0,-0.21794 0.53522,-0.39461 1.19545,-0.39461c0.66023,0 1.19545,0.17667 1.19545,0.39461z" fill-opacity="0.18431" fill="#000000" stroke="none" stroke-width="0"/><path d="M638.45465,344.22299c0,0.17981 -0.15998,0.32557 -0.35733,0.32557c-0.19735,0 -0.35733,-0.14576 -0.35733,-0.32557c0,-0.17981 0.15998,-0.32557 0.35733,-0.32557c0.19735,0 0.35733,0.14576 0.35733,0.32557z" fill="#ffffff" stroke="#000000" stroke-width="2.5"/><path d="M642.65256,344.19647c0,0.17981 -0.15998,0.32557 -0.35733,0.32557c-0.19735,0 -0.35733,-0.14576 -0.35733,-0.32557c0,-0.17981 0.15998,-0.32557 0.35733,-0.32557c0.19735,0 0.35733,0.14576 0.35733,0.32557z" fill="#ffffff" stroke="#000000" stroke-width="2.5"/><path d="M646.31326,357.69681c0,0 -0.14567,-0.58924 -0.05659,-1.37203c0.05034,-0.44237 0.20117,-1.70527 0.34204,-2.49324c0.18414,-1.02998 0.49877,-2.07927 0.59619,-2.72944c0.05129,-0.34235 -0.06001,-0.62523 -0.06001,-0.62523l3.42921,0.02833c0,0 -0.12517,0.24294 -0.05086,0.61026c0.14689,0.72607 0.57897,1.97932 0.83778,3.09124c0.1593,0.68441 0.30313,1.91194 0.35231,2.296c0.10319,0.80592 -0.21846,1.19411 -0.21846,1.19411c0,0 0.93818,-0.15517 1.15668,0.15697c0.39961,0.57088 0.14238,1.78104 -0.28743,1.83026c-0.19612,0.02246 -1.70988,-0.075 -2.38077,-0.46438c-0.81565,-0.47339 -0.70808,-1.41528 -0.99005,-1.29502c-0.31003,0.13223 -0.32435,1.04787 -0.89393,1.37367c-0.82648,0.47275 -2.32971,0.53426 -2.52964,0.53426c-0.26888,0 -0.67458,-1.09177 -0.37255,-1.70505c0.20429,-0.41481 1.12608,-0.43072 1.12608,-0.43072z" fill="#848484" stroke="#000000" stroke-width="2.5"/><path d="M652.35778,347.89241c0,1.7803 -1.54272,3.41073 -3.46605,3.41073c-1.92333,0 -3.49894,-1.63043 -3.49894,-3.41073c0,-1.7803 1.55916,-3.22352 3.48249,-3.22352c1.92333,0 3.48249,1.44322 3.48249,3.22352z" fill="#848484" stroke="#000000" stroke-width="2.5"/><path d="M649.91227,347.7543c0,0.17222 -0.42293,0.31182 -0.94464,0.31182c-0.52171,0 -0.94464,-0.13961 -0.94464,-0.31182c0,-0.17222 0.42293,-0.31182 0.94464,-0.31182c0.52171,0 0.94464,0.13961 0.94464,0.31182z" fill-opacity="0.18431" fill="#000000" stroke="none" stroke-width="0"/><path d="M647.56304,347.49787c0,0.14208 -0.12642,0.25726 -0.28236,0.25726c-0.15594,0 -0.28236,-0.11518 -0.28236,-0.25726c0,-0.14208 0.12642,-0.25727 0.28236,-0.25727c0.15594,0 0.28236,0.11518 0.28236,0.25727z" fill="#ffffff" stroke="#000000" stroke-width="2.5"/><path d="M650.88023,347.47691c0,0.14208 -0.12642,0.25726 -0.28236,0.25726c-0.15594,0 -0.28236,-0.11518 -0.28236,-0.25726c0,-0.14208 0.12642,-0.25726 0.28236,-0.25726c0.15594,0 0.28236,0.11518 0.28236,0.25726z" fill="#ffffff" stroke="#000000" stroke-width="2.5"/><path d="M653.95329,358.01415c0,0 -0.12403,-0.50169 -0.04819,-1.16817c0.04286,-0.37664 0.17128,-1.4519 0.29122,-2.12278c0.15678,-0.87694 0.42466,-1.77032 0.5076,-2.32389c0.04367,-0.29148 -0.0511,-0.53233 -0.0511,-0.53233l2.91969,0.02412c0,0 -0.10657,0.20684 -0.0433,0.51958c0.12506,0.61819 0.49294,1.68523 0.7133,2.63193c0.13564,0.58272 0.25809,1.62785 0.29996,1.95485c0.08786,0.68617 -0.186,1.01668 -0.186,1.01668c0,0 0.79878,-0.13211 0.98481,0.13365c0.34023,0.48606 0.12123,1.5164 -0.24472,1.55831c-0.16698,0.01912 -1.45581,-0.06385 -2.02703,-0.39538c-0.69446,-0.40305 -0.60287,-1.20499 -0.84295,-1.1026c-0.26396,0.11258 -0.27616,0.89217 -0.76111,1.16956c-0.70368,0.40251 -1.98355,0.45488 -2.15377,0.45488c-0.22893,0 -0.57435,-0.92955 -0.31719,-1.45171c0.17393,-0.35317 0.95876,-0.36672 0.95876,-0.36672z" fill="#848484" stroke="#000000" stroke-width="2.5"/><path d="M659.09968,349.66654c0,1.51577 -1.31349,2.90394 -2.95104,2.90394c-1.63755,0 -2.97905,-1.38817 -2.97905,-2.90394c0,-1.51577 1.32749,-2.74455 2.96504,-2.74455c1.63755,0 2.96505,1.22878 2.96505,2.74455z" fill="#848484" stroke="#000000" stroke-width="2.5"/><path d="M657.01754,349.54896c0,0.14663 -0.36009,0.26549 -0.80429,0.26549c-0.44419,0 -0.80428,-0.11886 -0.80428,-0.26549c0,-0.14663 0.36009,-0.26549 0.80428,-0.26549c0.44419,0 0.80429,0.11886 0.80429,0.26549z" fill-opacity="0.18431" fill="#000000" stroke="none" stroke-width="0"/><path d="M655.01737,349.33062c0,0.12097 -0.10763,0.21904 -0.24041,0.21904c-0.13277,0 -0.24041,-0.09807 -0.24041,-0.21904c0,-0.12097 0.10763,-0.21904 0.24041,-0.21904c0.13277,0 0.24041,0.09807 0.24041,0.21904z" fill="#ffffff" stroke="#000000" stroke-width="2.5"/><path d="M657.84168,349.31277c0,0.12097 -0.10763,0.21904 -0.24041,0.21904c-0.13277,0 -0.24041,-0.09807 -0.24041,-0.21904c0,-0.12097 0.10763,-0.21904 0.24041,-0.21904c0.13277,0 0.24041,0.09807 0.24041,0.21904z" fill="#ffffff" stroke="#000000" stroke-width="2.5"/><text transform="translate(17.26004,40.17309) scale(0.76851,0.76851)" font-size="40" xml:space="preserve" fill="#ffffff" stroke="none" stroke-width="1" font-family="Sans Serif" font-weight="normal" text-anchor="start"><tspan x="0" dy="0">Kino</tspan><tspan x="0" dy="46.150000000000006px"> </tspan></text><text transform="translate(17.80573,60.4104) scale(0.45455,0.45455)" font-size="40" xml:space="preserve" fill="#ffffff" stroke="none" stroke-width="1" font-family="Sans Serif" font-weight="normal" text-anchor="start"><tspan x="0" dy="0">Sprunked</tspan><tspan x="0" dy="46.15px"> </tspan><tspan x="0" dy="46.15px">(it's sprunked but if it appealed to the masses</tspan></text></g></g></svg>