<svg version="1.1" xmlns="http://www.w3.org/2000/svg" xmlns:xlink="http://www.w3.org/1999/xlink" width="35.17311" height="35.17311" viewBox="0,0,35.17311,35.17311"><g transform="translate(-302.41348,-162.4135)"><g stroke-miterlimit="10"><path d="M309.98314,162.9135h20.03379c3.9166,0 7.06966,3.15307 7.06966,7.06966v20.03379c0,3.91659 -3.15306,7.06966 -7.06966,7.06966h-20.03379c-3.91659,0 -7.06966,-3.15307 -7.06966,-7.06966v-20.03379c0,-3.91659 3.15307,-7.06966 7.06966,-7.06966z" fill="#000000" fill-rule="evenodd" stroke="#ffffff" stroke-width="1" stroke-linecap="round" stroke-linejoin="round"/><path d="M309.98314,162.9135h20.03378c3.9166,0 7.06966,3.15307 7.06966,7.06966v20.03379c0,3.91659 -3.15306,7.06966 -7.06966,7.06966h-20.03378c-3.91659,0 -7.06967,-3.15307 -7.06967,-7.06966v-20.03379c0,-3.91659 3.15308,-7.06966 7.06967,-7.06966z" fill="#fff47e" fill-rule="evenodd" stroke="none" stroke-width="4.43922" stroke-linecap="round" stroke-linejoin="round"/><path d="M324.57964,192.62401c0,-0.53764 0.38541,-0.68987 0.60367,-0.73298c1.75775,-1.10178 3.52006,-2.27824 5.17158,-3.51669c0.55018,-0.41258 1.09051,-0.8449 1.68561,-1.18957c0.15488,-0.08971 0.6128,-0.13858 0.47422,-0.25185c-0.74614,-0.6099 -1.65946,-1.28753 -2.52667,-1.71814c-0.7976,-0.39605 -1.55543,-0.9092 -2.44687,-0.87923c0,0 -0.69896,0 -0.74737,-0.67475c-0.75967,-0.0277 -1.52081,-0.04611 -2.28469,-0.04611c-5.47637,0 -11.2785,-0.39487 -16.70697,0.29421c0,0 -0.74421,0.09303 -0.83723,-0.65118c-0.09303,-0.74421 0.65118,-0.83724 0.65118,-0.83724c0.60331,-0.07437 1.2108,-0.13611 1.82161,-0.18709c-1.68572,-0.67611 -3.54932,-1.58036 -3.92949,-2.70183c-0.6833,-2.01564 2.99441,-2.92549 5.12568,-3.38208c-0.11073,-2.85125 -0.29029,-5.61431 -0.6551,-5.75447c-1.06484,-0.4091 -2.84794,-0.30891 -3.11452,-1.41804c1.13659,-3.12251 6.02414,-3.36348 5.07246,0.66961l-0.35921,0.49588c0.47166,1.11369 0.64242,2.97127 0.69781,4.92368c1.62718,-1.04644 4.20726,-1.35146 7.23379,-1.35146c2.19549,0.00376 4.51472,0.33353 6.69303,0.6058c0.8207,0.10258 2.1841,0.0476 2.77796,0.75793c1.02552,1.22665 0.54583,4.83259 0.27198,6.83777c0.01851,-0.00099 0.03752,-0.0015 0.05703,-0.0015c0.38618,0 0.57351,0.19885 0.66439,0.39177c1.24262,0.05876 2.486,0.10823 3.73561,0.10823l0.63033,0.31967c0,0 0.53033,0.53033 0,1.06066c-0.3525,0.3525 -0.705,0.2364 -0.90176,0.11891c-0.90364,-0.00503 -1.80412,-0.03444 -2.70355,-0.073c1.95164,0.9637 3.79235,2.49161 3.00798,4.00682c-0.24216,0.4678 -2.05254,1.40046 -2.47621,1.71826c-1.7378,1.30355 -3.59452,2.53796 -5.44264,3.69402l-0.49365,0.11401c0,0 -0.75,0 -0.75,-0.75zM327.83814,176.05098c-0.15994,-0.21266 -1.60148,-0.21449 -1.82204,-0.24207c-2.11579,-0.2645 -4.37464,-0.59831 -6.50697,-0.59421c-3.11081,0 -5.74407,0.07956 -6.96026,1.32396c0.06745,0.3573 -0.08551,0.57371 -0.25002,0.69965c-0.00324,1.3722 -0.03002,2.67128 -0.01406,3.66534c0.09786,0.29413 0.21215,0.60346 0.34355,0.92874c0.08371,0.04901 0.16444,0.11843 0.22519,0.21676c3.8873,-0.11042 7.84289,0.06555 11.65561,0.06555c1.06847,0 2.13166,0.03602 3.19296,0.0831c0.20661,-1.46286 0.81807,-5.23997 0.13605,-6.14682zM306.91139,178.91167c-0.08581,0.03527 1.87251,1.14955 1.95163,1.19177c0.66096,0.35267 1.29012,0.66327 1.92923,0.95928c-0.00101,-0.0278 -0.00203,-0.05593 -0.00304,-0.08436c-0.35067,-1.27813 -0.43446,-2.3408 -0.29071,-3.22192c-1.22474,0.31833 -2.47524,0.69819 -3.58711,1.15523zM310.45944,169.15546c0.01205,-0.01377 0.01936,-0.02108 0.01936,-0.02108l0.00043,0.02331c0.01083,0.00125 0.02159,0.00256 0.03225,0.00391c0.39823,-1.78188 -1.65592,-1.26796 -2.15749,-0.00919c-0.10498,0.10607 1.25182,-0.09038 2.10545,0.00305z" fill="#000000" fill-rule="nonzero" stroke="none" stroke-width="0.5" stroke-linecap="butt" stroke-linejoin="miter"/></g></g></svg>