<svg version="1.1" xmlns="http://www.w3.org/2000/svg" xmlns:xlink="http://www.w3.org/1999/xlink" width="138.87859" height="290.10114" viewBox="0,0,138.87859,290.10114"><defs><linearGradient x1="239.77935" y1="156.99084" x2="239.77935" y2="209.01412" gradientUnits="userSpaceOnUse" id="color-1"><stop offset="0" stop-color="#515151"/><stop offset="1" stop-color="#8c8c8c"/></linearGradient><linearGradient x1="240.00001" y1="219.47708" x2="240.00001" y2="322.88674" gradientUnits="userSpaceOnUse" id="color-2"><stop offset="0" stop-color="#c18633"/><stop offset="1" stop-color="#76511f"/></linearGradient></defs><g transform="translate(-170.60273,-34.05044)"><g stroke-miterlimit="10"><g stroke-width="2.5"><path d="M172.7008,221.17746l15.88703,-29.56752l101.50044,-0.4413l17.21094,29.12622z" fill="#c18633" stroke="#000000" stroke-linecap="butt"/><path d="M195.96902,215.58949c0,0 -2.87281,-7.62177 -2.87281,-11.21672c0,-3.32841 2.87281,-9.61503 2.87281,-9.61503c0,0 30.0288,-0.78119 44.76664,-0.78119c14.56273,0 43.1413,0.78119 43.1413,0.78119c0,0 2.58553,6.94219 2.58553,10.39622c0,3.48952 -2.58553,10.43552 -2.58553,10.43552c0,0 -27.91775,0.78118 -42.27945,0.78118c-14.91968,0 -45.62849,-0.78118 -45.62849,-0.78118z" fill="#8c8c8c" stroke="#000000" stroke-linecap="butt"/><path d="M223.38132,207.19936c0,0 -1.07528,-17.70592 -1.07528,-26.05728c0,-7.73214 1.07528,-22.33647 1.07528,-22.33647c0,0 11.23966,-1.81477 16.75598,-1.81477c5.45076,0 16.14761,1.81477 16.14761,1.81477c0,0 0.96776,16.12725 0.96776,24.15124c0,8.10641 -0.96776,24.24251 -0.96776,24.24251c0,0 -10.4495,1.81476 -15.82502,1.81476c-5.58437,0 -17.07856,-1.81476 -17.07856,-1.81476z" fill="url(#color-1)" stroke="#000000" stroke-linecap="butt"/><path d="M187.23928,179.33423c0,0 -3.44526,-30.2525 -3.44526,-44.5217c0,-13.21121 3.44526,-38.1643 3.44526,-38.1643c0,0 36.01241,-3.10072 53.68694,-3.10072c17.46452,0 51.73773,3.10072 51.73773,3.10072c0,0 3.10073,27.55517 3.10073,41.26503c0,13.8507 -3.10073,41.42098 -3.10073,41.42098c0,0 -33.4807,3.10073 -50.70415,3.10073c-17.8926,0 -54.72052,-3.10073 -54.72052,-3.10073z" fill="#8c8c8c" stroke="#000000" stroke-linecap="butt"/><path d="M191.72779,175.88754c0,0 -3.10602,-27.2738 -3.10602,-40.13803c0,-11.91041 3.10602,-34.40658 3.10602,-34.40658c0,0 32.46656,-2.79543 48.40084,-2.79543c15.74493,0 46.64355,2.79543 46.64355,2.79543c0,0 2.79543,24.84204 2.79543,37.20201c0,12.48693 -2.79543,37.34261 -2.79543,37.34261c0,0 -30.18414,2.79542 -45.71174,2.79542c-16.13086,0 -49.33265,-2.79542 -49.33265,-2.79542z" fill="#000000" stroke="#000000" stroke-linecap="butt"/><path d="M223.18651,206.94723l-26.87628,6.76154" fill="none" stroke="#000000" stroke-linecap="round"/><path d="M257.35231,206.77073l26.8118,7.28256" fill="none" stroke="#000000" stroke-linecap="round"/><path d="M287.95389,177.18911l2.7562,1.3781" fill="none" stroke="#000000" stroke-linecap="round"/><path d="M287.26484,101.73812l4.47883,-2.7562" fill="none" stroke="#000000" stroke-linecap="round"/><path d="M191.14235,101.04907l-2.41168,-2.06715" fill="none" stroke="#000000" stroke-linecap="round"/><path d="M192.52045,175.81101l-3.78977,3.44526" fill="none" stroke="#000000" stroke-linecap="round"/><path d="M307.2992,219.47708l-17.21094,102.01134l-101.50044,1.39832l-15.88703,-102.59189z" fill="url(#color-2)" stroke="#000000" stroke-linecap="butt"/><path d="M286.19786,222.35856l-5.29568,96.64607" fill="none" stroke="#76511f" stroke-linecap="round"/><path d="M286.63917,228.97815l14.5631,1.32391" fill="none" stroke="#76511f" stroke-linecap="round"/><path d="M284.87394,247.07171h14.1218" fill="none" stroke="#76511f" stroke-linecap="round"/><path d="M282.6674,280.61098l8.82613,0.88262" fill="none" stroke="#76511f" stroke-linecap="round"/><path d="M283.55001,261.19351h10.59136" fill="none" stroke="#76511f" stroke-linecap="round"/><path d="M282.2261,305.32414h3.97176" fill="none" stroke="#76511f" stroke-linecap="round"/><path d="M295.69336,215.9727l-6.98396,-20.95189" fill="none" stroke="#76511f" stroke-linecap="round"/><g stroke="#000000" stroke-linecap="butt"><path d="M214.26446,95.807l25.15446,-58.69373l26.91968,57.81113z" fill="#9800ff"/><path d="M241.63481,62.5754c0,3.56571 -2.7794,6.45628 -6.20797,6.45628c-3.42856,0 -6.20797,-2.89057 -6.20797,-6.45628c0,-3.56571 2.7794,-6.45629 6.20797,-6.45629c3.42856,0 6.20797,2.89057 6.20797,6.45629z" fill="#1dff00"/><path d="M259.22405,81.71663c0,3.56571 -2.7794,6.45629 -6.20797,6.45629c-3.42856,0 -6.20797,-2.89058 -6.20797,-6.45629c0,-3.56571 2.7794,-6.45628 6.20797,-6.45628c3.42856,0 6.20797,2.89057 6.20797,6.45628z" fill="#fa00ff"/><path d="M232.32286,87.9246c0,3.56571 -2.7794,6.45629 -6.20797,6.45629c-3.42856,0 -6.20797,-2.89058 -6.20797,-6.45629c0,-3.56571 2.7794,-6.45628 6.20797,-6.45628c3.42856,0 6.20797,2.89057 6.20797,6.45628z" fill="#0007ff"/></g></g><text transform="translate(229.28696,144.82166) scale(0.5,0.5)" font-size="40" xml:space="preserve" fill="#ffffff" stroke="none" stroke-width="1" stroke-linecap="butt" font-family="Sans Serif" font-weight="normal" text-anchor="start"><tspan x="0" dy="0">so</tspan></text></g></g></svg>