<svg version="1.1" xmlns="http://www.w3.org/2000/svg" xmlns:xlink="http://www.w3.org/1999/xlink" width="206.80451" height="284.32045" viewBox="0,0,206.80451,284.32045"><g transform="translate(-197.52098,-71.41772)"><g data-paper-data="{&quot;isPaintingLayer&quot;:true}" fill-rule="nonzero" stroke-width="2" stroke-linejoin="miter" stroke-miterlimit="10" stroke-dasharray="" stroke-dashoffset="0" style="mix-blend-mode: normal"><g><path d="M358.81452,235.29502c3.42133,-2.96706 7.65115,-8.53141 12.14305,-9.32332c8.51587,-1.50133 23.95029,8.83915 22.25427,20.54927c-0.27781,1.91816 -1.27441,6.11633 -3.68143,5.38409c-0.52571,-0.15994 -2.34705,-2.22979 -2.81561,-1.77414c-0.15388,0.14964 0.41474,3.99997 0.33547,4.59082c-0.4228,3.15102 -1.91611,6.48355 -4.68626,7.44333c-2.71667,0.94127 -4.77625,-4.84724 -5.96394,-4.57054c-1.78356,0.41553 -3.49889,7.85822 -9.71983,4.02458c-3.36608,-2.07434 -5.24653,-11.38272 -5.55819,-11.56565c-1.61842,-0.94999 -6.51388,2.86983 -10.33852,-3.18424c-3.5176,-5.5681 3.73081,-12.16741 7.79566,-11.8288z" fill="#feed00" stroke="#000000" stroke-linecap="round"/><path d="M382.16652,241.86468c-0.56188,1.70011 -1.77214,2.8314 -3.26588,3.32624c-1.65338,0.54774 -3.14312,-2.1081 -4.99639,-3.21145c-1.93414,-1.15148 -3.81709,-0.58913 -4.4668,-2.62626c-0.53526,-1.67833 -0.5803,-3.47588 -0.04553,-5.09388c1.18384,-3.58191 5.00323,-4.78312 8.53084,-2.68295c3.52762,2.10017 5.4276,6.70639 4.24376,10.28829z" fill="#ffa600" stroke="none" stroke-linecap="butt"/><path d="M358.89344,245.62008c-0.40455,2.04394 -2.38013,2.96476 -4.41258,2.05675c-2.03243,-0.90803 -3.35209,-3.30106 -2.94753,-5.34499c0.40455,-2.04394 2.38013,-2.96476 4.41257,-2.05675c2.03243,0.90803 3.35211,3.30106 2.94755,5.34499z" fill="#ffa600" stroke="none" stroke-linecap="butt"/><path d="M372.89192,258.37279c-0.39916,2.01667 -2.34979,2.92462 -4.35682,2.02794c-2.00704,-0.89666 -3.31049,-3.25842 -2.91131,-5.27509c0.39916,-2.01667 2.34979,-2.92462 4.35682,-2.02795c2.00704,0.89666 3.31049,3.25842 2.91131,5.27509z" fill="#ffa600" stroke="none" stroke-linecap="butt"/><path d="M384.56189,257.08782c-0.39378,1.98943 -2.05168,3.0041 -3.70303,2.26633c-1.65135,-0.73777 -2.67083,-2.9486 -2.27705,-4.93802c0.39378,-1.98943 2.05168,-3.0041 3.70303,-2.26633c1.65135,0.73777 2.67083,2.94858 2.27705,4.93802z" fill="#ffa600" stroke="none" stroke-linecap="butt"/><path d="M392.06938,246.47772c-0.37218,1.88042 -1.5801,2.99994 -2.69795,2.50053c-1.11784,-0.49942 -1.72231,-2.42863 -1.35011,-4.30906c0.37218,-1.88042 1.5801,-2.99994 2.69795,-2.50053c1.11784,0.49942 1.72231,2.42863 1.35011,4.30906z" fill="#ffa600" stroke="none" stroke-linecap="butt"/></g><path d="M297.14799,261.28995c-9.29182,3.06778 -23.52597,0.73278 -33.02509,-1.40648c-28.73285,-6.47079 -63.03471,-23.45863 -65.60192,-47.99778c-1.73632,-16.59696 15.56667,-28.06179 32.97498,-35.9548c6.60442,-2.99447 20.62582,-8.09627 25.23644,-0.89101c1.22696,1.91744 1.45113,4.01199 0.19417,5.98298c-2.71547,4.25804 -11.62134,5.42648 -16.43774,8.21619c-14.55342,8.42945 -21.02187,21.15258 -11.53916,33.50053c10.04033,13.07405 32.38613,17.52622 51.41058,15.62302c9.83435,-0.98383 19.54669,-4.4557 29.74545,-2.51432c30.23728,5.7558 6.67678,23.21905 -11.50044,25.69964z" fill="#feed00" stroke="#000000" stroke-linecap="round"/><path d="M288.40998,257.22633c6.83696,-0.09523 16.08468,-1.10962 22.95566,-1.87186c7.49175,-0.83111 17.64075,0 25.31769,0c4.50957,0 14.74613,-0.76161 18.31279,0.58697c2.30872,0.87296 2.16488,3.14708 2.72472,4.31693c2.08035,4.34718 0.94217,9.10554 3.02603,13.53816c2.46161,5.23618 0.13293,10.59648 1.16547,15.96618c1.9302,10.038 3.04599,20.23458 -2.35709,30.3934c-2.36273,4.4424 7.45449,9.79562 -3.09798,12.51132c-3.73674,0.96165 -13.00792,7.08125 -17.15992,7.08125c-6.0233,0 -13.34446,-4.3363 -20.72156,-5.29284c-9.39315,-1.21796 -21.78563,2.59909 -28.79653,1.25307c-3.50933,-0.67376 -8.12026,-3.51664 -9.94575,-5.20507c-2.28831,-2.11651 1.79047,-11.73838 2.02619,-14.58544c1.15924,-14.00079 0.16684,-21.7195 1.32397,-35.73258c0.38023,-4.60462 -0.25222,-19.73666 3.5356,-22.95875z" fill="#3c2c1f" stroke="#000000" stroke-linecap="round"/><g><path d="M281.85409,239.37824c4.06485,-0.33861 11.31325,6.2607 7.79565,11.82879c-3.82463,6.05407 -8.72008,2.23425 -10.33851,3.18424c-0.31166,0.18293 -2.19211,9.49131 -5.55819,11.56565c-6.22093,3.83365 -7.93628,-3.60905 -9.71983,-4.02458c-1.18769,-0.27671 -3.24724,5.51181 -5.96394,4.57053c-2.77014,-0.95978 -4.26345,-4.29232 -4.68625,-7.44333c-0.07928,-0.59086 0.48933,-4.44118 0.33546,-4.59082c-0.46855,-0.45564 -2.28988,1.61421 -2.81561,1.77414c-2.40702,0.73224 -3.40363,-3.46594 -3.68143,-5.38409c-1.69602,-11.71012 13.7384,-22.05059 22.25427,-20.54926c4.49191,0.79192 8.72172,6.35626 12.14307,9.32332z" fill="#feed00" stroke="#000000" stroke-linecap="round"/><path d="M262.51055,235.91419c3.52762,-2.10017 7.34702,-0.89897 8.53086,2.68293c0.53476,1.61801 0.48973,3.41555 -0.04553,5.09388c-0.6497,2.03713 -2.53267,1.47477 -4.4668,2.62626c-1.85329,1.10335 -3.34301,3.75918 -4.99639,3.21145c-1.49374,-0.49484 -2.704,-1.62612 -3.26588,-3.32624c-1.18384,-3.58192 0.71615,-8.18812 4.24376,-10.28829z" fill="#ffa600" stroke="none" stroke-linecap="butt"/><path d="M284.4874,244.6129c2.03243,-0.90803 4.008,0.01282 4.41257,2.05675c0.40455,2.04394 -0.9151,4.43696 -2.94753,5.34499c-2.03243,0.90803 -4.00803,-0.0128 -4.41258,-2.05673c-0.40455,-2.04394 0.9151,-4.43696 2.94755,-5.34499z" fill="#ffa600" stroke="none" stroke-linecap="butt"/><path d="M270.45269,257.43552c2.00704,-0.89666 3.95766,0.01128 4.35682,2.02795c0.39916,2.01667 -0.90427,4.37842 -2.91131,5.27508c-2.00704,0.89666 -3.95766,-0.01128 -4.35682,-2.02795c-0.39916,-2.01667 0.90427,-4.37842 2.91131,-5.27508z" fill="#ffa600" stroke="none" stroke-linecap="butt"/><path d="M258.14847,256.4876c1.65135,-0.73777 3.30926,0.27691 3.70305,2.26633c0.39378,1.98943 -0.62572,4.20025 -2.27708,4.93802c-1.65135,0.73777 -3.30926,-0.27691 -3.70305,-2.26633c-0.39378,-1.98943 0.62572,-4.20025 2.27708,-4.93802z" fill="#ffa600" stroke="none" stroke-linecap="butt"/><path d="M249.71404,246.50648c1.11784,-0.49942 2.32577,0.62011 2.69795,2.50053c0.37221,1.88042 -0.23227,3.80965 -1.35011,4.30906c-1.11784,0.49942 -2.32577,-0.62011 -2.69795,-2.50053c-0.37221,-1.88042 0.23227,-3.80963 1.35011,-4.30906z" fill="#ffa600" stroke="none" stroke-linecap="butt"/></g><path d="M283.81006,222.75942c-1.97537,5.55784 -2.39629,15.68531 -7.17643,20.22032c-3.81231,3.6168 -26.41916,-1.86558 -29.46772,-5.22582c-1.06037,-1.16878 4.519,-15.97079 5.34609,-18.10529c6.34527,-16.37557 14.1809,-31.93568 22.10939,-47.98475c2.17665,-4.40605 7.34583,-7.41279 9.59903,-11.55319l1.39993,0.03912c15.52781,2.29106 29.50556,7.42453 46.00289,6.05887c6.60247,-0.54655 11.45252,-2.24667 16.25651,-5.61625c1.09837,-0.7704 4.27681,-2.62166 6.00329,-1.78207c3.88578,1.88967 6.21527,9.13694 8.27287,12.16174c8.48573,12.47447 14.24256,26.15152 18.16729,39.80699c1.149,3.99776 6.97134,10.13976 5.62756,14.14862c-1.57377,4.69495 -12.28205,10.44043 -17.19408,13.44098c-1.36699,0.83503 -4.94051,4.22696 -6.64665,2.54873c-2.37692,-2.33805 -4.49849,-20.05208 -4.49849,-20.05208c0,0 0.88054,14.02401 1.95286,20.97353c0.52594,3.40845 2.82416,9.02096 0.60401,12.31436c-1.69106,2.50854 -12.37941,3.27114 -15.81832,3.54889c-13.91061,1.12349 -28.26116,-0.85038 -42.16079,0.30619c-4.51784,0.37591 -15.94855,2.851 -19.96982,1.25649c-2.14321,-0.84983 -1.02526,-5.65905 -1.02526,-7.18856c0,-6.73367 -1.41749,-14.46636 0.37827,-21.06598" fill="#fffe8a" stroke="#000000" stroke-linecap="round"/><path d="M292.79509,152.84738c16.74344,-2.16327 33.01219,-4.39292 50.1338,-3.40428c3.65135,0.21085 16.39966,1.20897 15.43093,5.34391c-1.31662,5.61979 -8.80865,8.5382 -15.74889,9.76326c-12.51161,2.20849 -42.05143,2.92865 -53.31047,-1.89156c-8.01304,-3.43052 -5.91958,-10.00219 3.66637,-10.00219z" fill="#fffe8a" stroke="#000000" stroke-linecap="round"/><g stroke-linecap="round"><path d="M298.62575,90.31752c-14.78615,4.43142 -16.28556,15.85222 -20.43068,25.68571c-0.45553,1.08068 -4.14032,10.60415 -5.67774,10.45335c-0.63831,-0.0626 -0.45367,-0.8871 -0.63112,-1.34211c-1.41245,-3.62173 -3.28315,-7.15731 -4.73123,-10.78506c-3.61393,-9.05349 -6.02127,-18.39159 -8.30534,-27.68589c-0.65592,-2.66896 -2.84787,-8.76143 -1.36891,-11.28624c0.94772,-1.61791 1.63905,-0.91928 3.13608,-0.44479c7.69238,2.43819 15.21251,5.1255 22.74151,7.8186c5.52902,1.97771 12.29253,3.80956 16.47122,7.2327z" fill="#feed00" stroke="#000000"/><path d="M291.09171,92.73971c-9.41493,3.56302 -9.49659,11.17197 -11.4523,17.84608c-0.21493,0.73348 -1.8912,7.18298 -2.91879,7.14948c-0.42665,-0.01391 -0.37028,-0.5665 -0.52371,-0.85945c-1.22126,-2.33174 -2.73836,-4.58689 -3.98365,-6.92108c-3.10777,-5.82525 -5.44112,-11.89043 -7.68956,-17.93192c-0.64567,-1.73488 -2.57849,-5.66527 -1.80242,-7.39671c0.4973,-1.10953 1.00959,-0.67774 2.03627,-0.42864c5.27553,1.27993 10.45708,2.73183 15.64496,4.18717c3.80979,1.06875 8.42346,1.98805 11.45626,4.0697z" fill="#ffa700" stroke="none"/></g><g stroke-linecap="round"><path d="M340.09804,91.00015c3.90877,-3.59131 10.52055,-5.70125 15.88863,-7.90554c7.30984,-3.00163 14.61127,-5.99711 22.10382,-8.75101c1.45813,-0.53595 2.09463,-1.26218 3.16528,0.31377c1.67078,2.45931 -0.04913,8.63313 -0.49872,11.32508c-1.56563,9.37433 -3.25094,18.79752 -6.16281,27.9867c-1.1668,3.68211 -2.76256,7.28978 -3.89421,10.9644c-0.14216,0.46166 0.10558,1.27715 -0.5269,1.36617c-1.52336,0.21443 -5.93467,-9.14072 -6.4726,-10.20073c-4.89475,-9.64553 -7.27015,-20.98579 -22.37344,-24.79574z" fill="#feed00" stroke="#000000"/><path d="M348.24758,93.15547c2.86786,-2.20433 7.40345,-3.31387 11.12496,-4.53921c5.06765,-1.66857 10.12928,-3.33345 15.29792,-4.83052c1.00588,-0.29136 1.48414,-0.74372 2.06599,0.34336c0.90799,1.69642 -0.71946,5.70083 -1.23067,7.45977c-1.78023,6.12527 -3.6434,12.27769 -6.29818,18.22275c-1.06378,2.38221 -2.40501,4.69677 -3.44499,7.07553c-0.13066,0.29885 -0.0319,0.84822 -0.45678,0.87985c-1.02339,0.07616 -3.19298,-6.29342 -3.46398,-7.01677c-2.46586,-6.58218 -3.13258,-14.17554 -12.80648,-17.34168z" fill="#ffa700" stroke="none"/></g><path d="M317.85735,88.32605c12.43274,0 27.32034,-0.87897 36.28099,6.32917c7.75121,6.23524 7.33422,11.83756 9.72031,19.2595c0.73283,2.27949 2.99153,3.96501 3.36769,6.49819c2.28064,15.35886 -8.07774,34.25847 -33.41688,36.24965c-21.22266,1.66771 -46.31548,-1.53119 -58.343,-15.06113c-7.51027,-8.44842 -2.23601,-19.9104 1.50132,-28.18059c1.4481,-3.20446 0.10634,-6.95 1.79943,-10.3198c6.62808,-13.19208 22.29061,-14.5352 39.51122,-14.5352z" fill="#feed00" stroke="#000000" stroke-linecap="round"/><path d="M363.03375,124.33721c5.10743,0.34128 18.46927,4.21107 13.23184,9.48245c-1.36271,1.37155 -8.59046,2.0792 -9.02936,3.13128c-0.32916,0.78899 1.27554,1.37928 1.65713,2.15539c1.02108,2.07676 1.68271,5.16143 1.25734,7.35811c-1.17025,6.04349 -13.16759,2.92817 -16.72123,0.35866" fill="#feed00" stroke="#000000" stroke-linecap="round"/><path d="M283.8784,149.28522c-3.55363,2.56951 -15.55096,5.68481 -16.72123,-0.35866c-0.42537,-2.19668 0.23628,-5.28135 1.25736,-7.35809c0.3816,-0.77613 1.98629,-1.36641 1.65713,-2.1554c-0.4389,-1.05209 -7.66665,-1.75973 -9.02936,-3.13129c-5.23741,-5.27139 8.12441,-9.14117 13.23184,-9.48244" fill="#feed00" stroke="#000000" stroke-linecap="round"/><path d="M229.85149,108.4915c17.05377,0.18805 29.76382,9.4283 43.57729,15.23017" fill="none" stroke="#000000" stroke-linecap="round"/><path d="M235.58471,120.94735c12.82709,-1.14119 25.90037,1.83223 38.26279,3.85151" fill="none" stroke="#000000" stroke-linecap="round"/><path d="M240.99615,127.87408c10.34938,-1.42334 21.262,-2.76746 31.80456,-2.76746" fill="none" stroke="#000000" stroke-linecap="round"/><path d="M366.59282,122.49061c9.98224,-7.33722 21.17672,-16.29695 36.2323,-16.31145" fill="none" stroke="#000000" stroke-linecap="round"/><path d="M363.45246,123.26002c13.05675,-6.85504 25.30053,-6.5182 39.87303,-3.2571" fill="none" stroke="#000000" stroke-linecap="round"/><path d="M367.6396,124.49108c10.24497,-3.01213 23.14836,0.01216 32.32543,3.79558" fill="none" stroke="#000000" stroke-linecap="round"/><path d="M313.82953,132.04719c4.43075,0.00001 9.09585,-0.21116 13.49455,0.19201c0.55828,0.05118 1.51624,-0.12486 1.64501,0.27771c0.16865,0.52733 -7.77116,3.8317 -8.68506,3.78174c-2.0551,-0.11234 -5.15239,-3.06922 -5.95659,-4.25145z" fill="#000000" stroke="#000000" stroke-linecap="round"/><path d="M314.9778,115.71151c0,6.19662 -6.7307,11.21998 -15.03344,11.21998c-8.30273,0 -15.03341,-5.02336 -15.03341,-11.21998c0,-6.19662 6.73069,-11.21997 15.03341,-11.21997c8.30273,0 15.03344,5.02335 15.03344,11.21997z" fill="#ffffff" stroke="#000000" stroke-linecap="butt"/><path d="M356.74606,115.34162c0,6.19662 -6.73069,11.21997 -15.03341,11.21997c-8.30273,0 -15.03341,-5.02335 -15.03341,-11.21997c0,-6.19662 6.73069,-11.21997 15.03341,-11.21997c8.30273,0 15.03341,5.02335 15.03341,11.21997z" fill="#ffffff" stroke="#000000" stroke-linecap="butt"/><path d="M310.24029,115.71151c0,4.42616 -4.69385,8.01426 -10.484,8.01426c-5.79015,0 -10.484,-3.58811 -10.484,-8.01426c0,-4.42616 4.69385,-8.01426 10.484,-8.01426c5.79015,0 10.484,3.58811 10.484,8.01426z" fill="#ffffff" stroke="#000000" stroke-linecap="butt"/><path d="M352.1763,115.34162c0,4.42616 -4.69385,8.01426 -10.484,8.01426c-5.79015,0 -10.484,-3.58811 -10.484,-8.01426c0,-4.42616 4.69385,-8.01426 10.484,-8.01426c5.79015,0 10.484,3.58811 10.484,8.01426z" fill="#ffffff" stroke="#000000" stroke-linecap="butt"/><path d="M296.7386,93.62819c0.71554,-3.23622 5.14025,-4.25374 9.46299,-5.36319c0.47876,-0.12287 4.53253,-1.11933 4.4322,-1.55394c-0.18254,-0.79064 -6.46897,-0.21963 -5.64688,-1.94697c1.10416,-2.32 13.68448,-1.77694 16.38817,-1.77713c0.3894,-0.00003 4.99877,0.12373 5.06353,-0.00397c0.2775,-0.54717 -7.45647,-2.35703 -6.92788,-3.08302c0.2889,-0.39681 5.93168,0.97381 6.49508,1.1313c7.381,2.06334 9.08715,5.39322 13.40621,9.29837" fill="#feed00" stroke="#000000" stroke-linecap="round"/><path d="M280.59285,108.30224c-2.82446,-1.01754 -2.84115,-2.82779 -4.99432,-4.30591c-1.09932,-0.75467 -6.94627,-1.28369 -6.83704,-2.69702c0.14369,-1.85896 7.23304,-2.57727 8.79938,-3.02697c1.10271,-0.31659 -0.54196,-7.54498 9.32214,-2.7948" fill="#feed00" stroke="#000000" stroke-linecap="round"/><path d="M301.8078,197.35055c1.47702,0.44999 5.57136,0.22582 6.14462,1.57217c1.92268,4.51545 -2.84669,8.56506 -8.62053,7.6624c-3.84476,-0.60106 2.93643,-9.85367 2.93643,-9.85367c0,0 0.38382,-20.78935 3.37659,-30.85921" fill="#ffaf36" stroke="#000000" stroke-linecap="round"/><path d="M333.65462,197.87977c11.42111,-9.36983 9.93933,15.73679 -1.66203,8.6788c-6.28129,-3.82138 1.5087,-7.34859 2.11001,-9.55317c2.83827,-10.40608 -3.11045,-21.55351 1.17191,-32.104" fill="#ffaf36" stroke="#000000" stroke-linecap="round"/><path d="M287.50503,225.04879c4.21835,-2.48047 9.47332,-2.02139 14.48453,-2.60328c16.16285,-1.87678 34.21251,-1.09108 50.32873,0.82985" fill="none" stroke="#000000" stroke-linecap="round"/><path d="M354.87261,250.29049c-0.12536,-7.79046 -2.06459,-15.68592 -0.29529,-23.48881" fill="none" stroke="#000000" stroke-linecap="round"/><path d="M288.10123,228.77367c0,7.45516 0.54006,14.85455 0.29988,22.29386" fill="none" stroke="#000000" stroke-linecap="round"/><path d="M297.09937,161.44413c-3.12194,-0.80377 -5.24093,-3.05709 -8.10384,-4.31967" fill="none" stroke="#fcec41" stroke-linecap="round"/><path d="M348.1,159.40212c1.94085,-0.94954 3.75554,-1.70068 5.92371,-2.33816" fill="none" stroke="#fcec41" stroke-linecap="round"/><path d="M314.47125,170.29311v8.39076" fill="none" stroke="#fcec41" stroke-linecap="round"/><path d="M318.64768,177.45598v-4.29772" fill="none" stroke="#fcec41" stroke-linecap="round"/><path d="M322.82412,172.9536l0.83528,3.27445" fill="none" stroke="#fcec41" stroke-linecap="round"/><path d="M266.68551,241.56889l15.50115,-32.6475l-8.64488,32.20928z" fill="#fce541" stroke="#fcec41" stroke-linecap="round"/><path d="M266.68551,241.56889l15.50115,-32.6475l-8.64488,32.20928z" fill="#fce541" stroke="#fcec41" stroke-linecap="round"/><path d="M365.6544,237.61435l-8.64488,-26.28276l15.50115,22.02063z" fill="#fce541" stroke="#fcec41" stroke-linecap="round"/><path d="M319.74338,333.66442l0.83102,-67.19167" fill="none" stroke="#000000" stroke-linecap="round"/><path d="M322.61595,340.99441c0,7.59046 -10.51091,13.74376 -23.47675,13.74376c-12.96586,0 -23.47675,-6.15328 -23.47675,-13.74376c0,-7.59046 10.51091,-13.74376 23.47675,-13.74376c12.96586,0 23.47675,6.15328 23.47675,13.74376z" fill="#000000" stroke="#000000" stroke-linecap="butt"/><path d="M368.24536,336.38265c0,7.59047 -10.51091,13.74376 -23.47676,13.74376c-12.96584,0 -23.47675,-6.15328 -23.47675,-13.74376c0,-7.59047 10.51091,-13.74376 23.47675,-13.74376c12.96586,0 23.47676,6.15328 23.47676,13.74376z" fill="#000000" stroke="#000000" stroke-linecap="butt"/><path d="M310.33455,151.60063v-6.04008h21.56874v6.04008z" fill="none" stroke="#000000" stroke-linecap="butt"/><text transform="translate(266.18395,103.99048) scale(0.74029,0.74029)" font-size="40" xml:space="preserve" fill="#ff0000" fill-rule="nonzero" stroke="#000000" stroke-width="2" stroke-linecap="butt" stroke-linejoin="miter" stroke-miterlimit="10" stroke-dasharray="" stroke-dashoffset="0" font-family="Sans Serif" font-weight="normal" text-anchor="start" style="mix-blend-mode: normal"><tspan x="0" dy="0">sprunki</tspan></text></g></g></svg>