<svg version="1.1" xmlns="http://www.w3.org/2000/svg" xmlns:xlink="http://www.w3.org/1999/xlink" width="115.10533" height="316.3114" viewBox="0,0,115.10533,316.3114"><defs><linearGradient x1="319.85644" y1="46.85124" x2="319.85644" y2="195.30688" gradientUnits="userSpaceOnUse" id="color-1"><stop offset="0" stop-color="#89c100"/><stop offset="1" stop-color="#53ff10"/></linearGradient></defs><g transform="translate(-262.3362,-44.85665)"><g stroke-miterlimit="10"><path d="M269.18383,356.23405l-2.26151,-147.27579c0,0 7.03635,-25.69821 17.45393,-26.10344c10.34551,-0.40242 34.86735,-0.95905 56.28654,-1.79223c23.23163,-0.90368 30.46941,25.97468 30.46941,25.97468l0.25208,152.83541z" fill="#000000" stroke="#000000" stroke-width="2.5" stroke-linecap="butt"/><path d="M338.81087,191.7398c0,11.02276 -8.7456,19.95848 -19.53383,19.95848c-10.78823,0 -19.53383,-8.93571 -19.53383,-19.95848c0,-11.02276 8.74559,-19.95848 19.53383,-19.95848c10.78823,0 19.53383,8.93571 19.53383,19.95848z" fill="#53ff10" stroke="#000000" stroke-width="2.5" stroke-linecap="butt"/><path d="M373.59505,141.65841c0,28.00291 -24.26594,53.64847 -54.51858,53.64847c-30.25264,0 -55.03592,-25.64557 -55.03592,-53.64847c0,-28.0029 24.52462,-50.70374 54.77726,-50.70374c30.25264,0 54.77725,22.70084 54.77725,50.70374z" fill="#53ff10" stroke="#000000" stroke-width="2.5" stroke-linecap="butt"/><path d="M264.50986,144.39475l-0.89533,-61.16687l10.57761,4.64383l32.2488,-41.02047l22.70316,27.60498l22.44516,-21.6712l13.4155,35.86067l11.09359,-7.73971l-2.32191,61.9177l-15.99541,-24.50909l-78.68708,0.77398z" fill="#53ff10" stroke="#000000" stroke-width="2.5" stroke-linecap="round"/><path d="M266.47513,153.65927l-1.11534,-38.40259l107.68809,0.478l-2.23068,37.92459z" fill="#53ff10" stroke="none" stroke-width="0" stroke-linecap="butt"/><path d="M264.50986,144.39475l-0.89533,-61.16687l10.57761,4.64383l32.2488,-41.02047l22.70316,27.60498l22.44516,-21.6712l13.4155,35.86067l11.09359,-7.73971l-2.32191,61.9177l-2.12994,-3.26362l-0.8293,14.09921h-104.34207l-0.35046,-12.06653z" fill="#53ff10" stroke="#000000" stroke-width="2.5" stroke-linecap="round"/><path d="M319.07647,195.30688c-30.25264,0 -55.03592,-25.64557 -55.03592,-53.64847c0,-1.93597 0.11721,-3.84659 0.34544,-5.72612l-0.77146,-52.70441l10.57761,4.64383l32.2488,-41.02047l22.70316,27.60498l22.44516,-21.6712l13.4155,35.86067l11.09359,-7.73971l-2.32191,61.9177l-0.18929,-0.29003c-0.49884,27.65974 -24.57351,52.77324 -54.51068,52.77324z" fill="url(#color-1)" stroke="#000000" stroke-width="2.5" stroke-linecap="butt"/><path d="M334.78368,138.79726c0,2.70884 -6.65243,4.90479 -14.85862,4.90479c-8.2062,0 -14.85862,-2.19595 -14.85862,-4.90479c0,-2.70884 6.65243,-4.90479 14.85862,-4.90479c8.2062,0 14.85862,2.19595 14.85862,4.90479z" fill-opacity="0.18431" fill="#000000" stroke="none" stroke-width="0" stroke-linecap="butt"/><path d="M356.75382,137.35387c0,4.15542 -3.69729,5.64877 -8.25812,5.64877c-4.56083,0 -8.25812,-1.49335 -8.25812,-5.64877c0,-4.15544 3.69729,-7.52408 8.25812,-7.52408c4.56083,0 8.25812,3.36865 8.25812,7.52408z" fill="#ffffff" stroke="#000000" stroke-width="2.5" stroke-linecap="butt"/><path d="M283.60606,182.01201l0.70006,-7.84832l3.44441,-3.67846l25.94785,9.19617l29.39226,-7.35694l14.23687,4.59808z" fill="#ffffff" stroke="#000000" stroke-width="2.5" stroke-linecap="round"/><path d="M300.77686,137.03784c0,4.15542 -3.69729,4.71112 -8.25812,4.71112c-4.56083,0 -8.25812,-0.55571 -8.25812,-4.71112c0,-4.15544 3.69729,-7.52408 8.25812,-7.52408c4.56083,0 8.25812,3.36865 8.25812,7.52408z" fill="#ffffff" stroke="#000000" stroke-width="2.5" stroke-linecap="butt"/><path d="M304.20677,239.96158l5.06481,-6.76096l1.24827,3.53114l1.96054,11.40697l1.1845,6.34097l-1.49851,14.74315l-0.3346,9.70376l-1.4654,3.62479c0,0 -0.61526,8.11209 -3.64192,11.50113c-0.79532,0.89054 -1.12831,-4.69529 -1.12831,-4.69529l-0.57756,-9.00041l1.77416,-6.23613l-3.28667,-34.36875z" fill="#d6d6d6" stroke="#000000" stroke-width="2.5" stroke-linecap="round"/><path d="M318.53363,235.36795l4.36409,11.09777l0.59758,20.05677l0.29879,16.7588c0,0 -1.43225,6.11184 -2.41642,9.23554c-0.08459,0.26849 -1.13877,2.99587 -1.46784,2.90638c-0.11032,-0.02999 0,-2.36872 0,-2.59382c0,-2.87821 -0.90249,-8.95389 -0.90249,-8.95389l-1.48782,-48.78337z" fill="#d6d6d6" stroke="#000000" stroke-width="2.5" stroke-linecap="round"/><path d="M330.4787,232.63187l1.19112,3.00023l0.01452,1.94529l2.97337,9.88375l-1.79272,13.39632l1.49393,19.26009c0,0 -0.37028,9.84887 -3.4942,14.16856c-0.19659,0.27184 -0.70532,2.4533 -0.70789,2.45451c-0.20891,0.09826 -0.46967,-0.1776 -0.57855,-0.36905c-0.58745,-1.03298 -0.30547,-5.15204 -0.30547,-5.15204l-1.53542,-10.82092l-2.04336,-27.04909l0.62346,-12.25747l3.55958,-9.05035z" fill="#d6d6d6" stroke="#000000" stroke-width="2.5" stroke-linecap="round"/></g></g></svg>