<svg version="1.1" xmlns="http://www.w3.org/2000/svg" xmlns:xlink="http://www.w3.org/1999/xlink" width="153.41366" height="320.22926" viewBox="0,0,153.41366,320.22926"><defs><linearGradient x1="398.68395" y1="109.62889" x2="357.46682" y2="108.21791" gradientUnits="userSpaceOnUse" id="color-1"><stop offset="0" stop-color="#ff8600"/><stop offset="1" stop-color="#562e0d"/></linearGradient><linearGradient x1="251.67134" y1="103.34642" x2="292.88845" y2="104.75741" gradientUnits="userSpaceOnUse" id="color-2"><stop offset="0" stop-color="#ff8600"/><stop offset="1" stop-color="#562e0d"/></linearGradient><linearGradient x1="321.76271" y1="147.9779" x2="315.64433" y2="326.70558" gradientUnits="userSpaceOnUse" id="color-3"><stop offset="0" stop-color="#292929"/><stop offset="1" stop-color="#171717"/></linearGradient><linearGradient x1="319.24909" y1="261.54841" x2="318.38559" y2="286.77239" gradientUnits="userSpaceOnUse" id="color-4"><stop offset="0" stop-color="#10ff00"/><stop offset="1" stop-color="#025f00"/></linearGradient><linearGradient x1="251.19283" y1="273.34781" x2="267.20321" y2="274.24069" gradientUnits="userSpaceOnUse" id="color-5"><stop offset="0" stop-color="#ffffff"/><stop offset="1" stop-color="#929292"/></linearGradient><linearGradient x1="387.77302" y1="277.25256" x2="371.73905" y2="277.04847" gradientUnits="userSpaceOnUse" id="color-6"><stop offset="0" stop-color="#ffffff"/><stop offset="1" stop-color="#929292"/></linearGradient><linearGradient x1="289.35255" y1="283.53439" x2="275.90789" y2="272.94021" gradientUnits="userSpaceOnUse" id="color-7"><stop offset="0" stop-color="#ffffff"/><stop offset="1" stop-color="#929292"/></linearGradient><linearGradient x1="325.75426" y1="270.73009" x2="311.68365" y2="278.42084" gradientUnits="userSpaceOnUse" id="color-8"><stop offset="0" stop-color="#ffffff"/><stop offset="1" stop-color="#929292"/></linearGradient><linearGradient x1="363.51808" y1="284.39146" x2="349.91928" y2="278.29973" gradientUnits="userSpaceOnUse" id="color-9"><stop offset="0" stop-color="#ffffff"/><stop offset="1" stop-color="#929292"/></linearGradient><linearGradient x1="305.26234" y1="273.24703" x2="291.30645" y2="277.5867" gradientUnits="userSpaceOnUse" id="color-10"><stop offset="0" stop-color="#ffffff"/><stop offset="1" stop-color="#929292"/></linearGradient><linearGradient x1="329.34342" y1="273.44515" x2="342.96986" y2="278.72905" gradientUnits="userSpaceOnUse" id="color-11"><stop offset="0" stop-color="#ffffff"/><stop offset="1" stop-color="#929292"/></linearGradient></defs><g transform="translate(-248.6632,-9.56949)"><g stroke-miterlimit="10"><path d="M357.4798,107.84009c0.6856,-19.15854 12.85466,-33.9301 23.38236,-33.55334c10.5277,0.37673 18.5063,16.2132 17.8207,35.37172c-0.68561,19.15852 -9.7758,34.38413 -20.3035,34.0074c-10.52769,-0.37675 -21.58514,-16.66728 -20.89954,-35.8258z" fill="url(#color-1)" stroke="#000000" stroke-width="2.5" stroke-linecap="butt"/><path d="M292.90132,104.37956c-0.62618,19.16055 -12.77178,34.65677 -23.30059,34.3127c-10.52881,-0.34409 -18.55651,-16.1557 -17.93034,-35.31625c0.62618,-19.16055 9.66908,-34.41432 20.19791,-34.07023c10.52881,0.34407 21.65922,15.91324 21.03305,35.07382z" fill="url(#color-2)" stroke="#000000" stroke-width="2.5" stroke-linecap="butt"/><path d="M266.72575,321.39019l2.81914,-147.26555c0,0 7.78511,-25.44676 18.02342,-25.50174c10.16749,-0.05459 34.25376,0.213 55.30436,0.09995c22.83186,-0.12261 29.01586,26.98319 29.01586,26.98319l-4.98153,152.7544z" fill="url(#color-3)" stroke="#000000" stroke-width="2.5" stroke-linecap="butt"/><path d="M346.07847,157.06582c-0.31073,9.07697 -10.77644,16.08566 -23.37582,15.65435c-12.59938,-0.43131 -22.56129,-8.1393 -22.25056,-17.21628c0.31073,-9.07697 10.77644,-16.08566 23.37582,-15.65435c12.59938,0.43131 22.56129,8.1393 22.25056,17.21628z" fill="#ffd300" stroke="#000000" stroke-width="2.5" stroke-linecap="butt"/><path d="M379.2953,111.35279c-2.91457,28.40507 -29.72297,51.9421 -59.8176,48.85417c-30.09463,-3.08792 -52.07927,-31.63147 -49.16471,-60.03654c2.91457,-28.40506 29.67382,-48.92868 59.76846,-45.84073c30.09463,3.08792 52.12844,28.61804 49.21387,57.0231z" fill="#ffd300" stroke="#000000" stroke-width="2.5" stroke-linecap="butt"/><path d="M340.32468,99.53478c-0.09268,2.70725 -6.81634,4.67432 -15.01773,4.39356c-8.2014,-0.28076 -14.77479,-2.70302 -14.68211,-5.41028c0.09268,-2.70725 6.81634,-4.67432 15.01773,-4.39356c8.2014,0.28076 14.77479,2.70302 14.68211,5.41028z" fill-opacity="0.18431" fill="#ff0505" stroke="none" stroke-width="0" stroke-linecap="butt"/><path d="M343.57076,194.97692l2.9938,-15.75976l6.26116,16.82013l-15.68562,-12.92935l21.58835,-0.74805z" fill="none" stroke-opacity="0.67059" stroke="#ffffff" stroke-width="2.5" stroke-linecap="round"/><path d="M290.17069,176.21405c10.55059,-5.93271 21.47771,6.7318 10.20005,14.11751c-5.03395,3.29671 -14.0527,0.98855 -16.41176,-4.59362c-2.54061,-6.01176 4.44044,-11.35356 9.80591,-9.81535" fill="none" stroke-opacity="0.67059" stroke="#ffffff" stroke-width="2.5" stroke-linecap="round"/><path d="M302.27173,184.39279c2.3702,0.08143 8.13584,-0.587 9.51556,2.01347c2.58548,4.87308 -6.47497,8.84387 -9.78891,9.1303c-6.51113,0.56275 -14.71483,-0.18338 -20.47248,-3.20033c-4.67153,-2.44783 -4.67739,-7.82239 1.28047,-7.61843" fill="none" stroke-opacity="0.67059" stroke="#ffffff" stroke-width="2.5" stroke-linecap="round"/><path d="M282.83724,227.67414c1.17094,-9.86125 0.08245,-22.35809 3.54868,-31.68067" fill="none" stroke-opacity="0.67059" stroke="#ffffff" stroke-width="2.5" stroke-linecap="round"/><path d="M303.21983,196.56975c2.31655,10.82825 2.46514,21.7405 4.56205,32.51401" fill="none" stroke-opacity="0.67059" stroke="#ffffff" stroke-width="2.5" stroke-linecap="round"/><path d="M291.62848,202.13048c0.0114,-0.33313 0.02281,-0.66628 0.03421,-0.99941" fill="none" stroke-opacity="0.67059" stroke="#ffffff" stroke-width="2.5" stroke-linecap="round"/><path d="M297.32199,202.33459c0.02281,-0.66628 0.04562,-1.33255 0.06843,-1.99883" fill="none" stroke-opacity="0.67059" stroke="#ffffff" stroke-width="2.5" stroke-linecap="round"/><path d="M299.62264,207.45678c-0.1118,1.92961 -0.46977,6.39756 -2.73421,7.23695c-4.37776,1.62277 -7.81587,-3.06093 -7.69105,-6.70732" fill="none" stroke-opacity="0.67059" stroke="#ffffff" stroke-width="2.5" stroke-linecap="round"/><path d="M386.04779,19.019l11.59841,3.98689l-32.71799,8.01774l16.40245,4.80404l-18.25862,34.29429" fill="none" stroke="#000000" stroke-width="2.5" stroke-linecap="round"/><path d="M389.52867,18.15911c-0.07395,2.16031 -1.97841,3.84846 -4.25372,3.77057c-2.27531,-0.07789 -4.05987,-1.89232 -3.98591,-4.05263c0.07395,-2.16031 1.97841,-3.84846 4.25372,-3.77057c2.27531,0.07789 4.05987,1.89232 3.98591,4.05263z" fill="#ffd300" stroke="#000000" stroke-width="2.5" stroke-linecap="butt"/><path d="M285.89945,68.24049l-15.87063,-35.46263l16.69258,-3.6711l-32.0931,-10.23641l11.8439,-3.18439" fill="none" stroke="#000000" stroke-width="2.5" stroke-linecap="round"/><path d="M267.312,10.81949c2.27531,0.07789 4.05986,1.89231 3.9859,4.05263c-0.07395,2.16032 -1.97841,3.84846 -4.25371,3.77057c-2.27531,-0.07789 -4.05987,-1.89232 -3.98591,-4.05263c0.07395,-2.16032 1.97842,-3.84846 4.25372,-3.77057z" fill="#ffd300" stroke="#000000" stroke-width="2.5" stroke-linecap="butt"/><path d="M293.42404,89.26232c0,0 4.13235,-5.47451 6.05199,-5.37874c1.9772,0.09863 5.64364,5.96218 5.64364,5.96218" fill="none" stroke="#000000" stroke-width="2.5" stroke-linecap="round"/><path d="M344.92683,89.45455c0,0 4.13235,-5.47451 6.05199,-5.37874c1.9772,0.09863 5.64364,5.96218 5.64364,5.96218" fill="none" stroke="#000000" stroke-width="2.5" stroke-linecap="round"/><path d="M263.54536,284.89504c0,0 -3.54658,-8.23758 -3.4048,-12.37923c0.14593,-4.26284 4.26829,-12.84474 4.26829,-12.84474c0,0 36.84412,7.00162 54.87248,7.61879c18.51863,0.63395 54.80798,-3.8641 54.80798,-3.8641c0,0 2.26377,8.43085 2.1203,12.62187c-0.14435,4.21682 -2.98379,12.6021 -2.98379,12.6021c0,0 -33.32261,1.50865 -50.87819,0.90767c-18.90461,-0.64716 -58.80227,-4.66236 -58.80227,-4.66236z" fill="url(#color-4)" stroke="#000000" stroke-width="2.5" stroke-linecap="butt"/><path d="M266.69674,283.32212l-15.50392,-9.97431l16.51683,-8.18855z" fill="url(#color-5)" stroke="#000000" stroke-width="2.5" stroke-linecap="butt"/><path d="M371.85482,267.95367l15.9182,9.2989l-16.14972,8.89071z" fill="url(#color-6)" stroke="#000000" stroke-width="2.5" stroke-linecap="butt"/><path d="M280.78331,265.93384l8.56923,17.60055l-18.32008,-3.58781z" fill="url(#color-7)" stroke="#000000" stroke-width="2.5" stroke-linecap="butt"/><path d="M307.3213,270.43969l18.43297,0.2904l-9.70824,15.6719z" fill="url(#color-8)" stroke="#000000" stroke-width="2.5" stroke-linecap="butt"/><path d="M354.84645,269.78174l8.67162,14.60971l-18.52596,2.42627z" fill="url(#color-9)" stroke="#000000" stroke-width="2.5" stroke-linecap="butt"/><path d="M286.98261,268.48048l18.27972,4.76655l-9.63204,13.44588z" fill="url(#color-10)" stroke="#000000" stroke-width="2.5" stroke-linecap="butt"/><path d="M338.03341,287.51825l-8.68999,-14.0731l18.5629,-3.50532z" fill="url(#color-11)" stroke="#000000" stroke-width="2.5" stroke-linecap="butt"/><path d="M303.74997,127.08934l19.83189,30.46662l20.27715,-30.50086z" fill="none" stroke="#000000" stroke-width="2.5" stroke-linecap="round"/></g></g></svg>