<svg version="1.1" xmlns="http://www.w3.org/2000/svg" xmlns:xlink="http://www.w3.org/1999/xlink" width="196.88022" height="322.40772" viewBox="0,0,196.88022,322.40772"><g transform="translate(-200.70911,-34.74077)"><g data-paper-data="{&quot;isPaintingLayer&quot;:true}" fill-rule="nonzero" stroke-linejoin="miter" stroke-miterlimit="10" stroke-dasharray="" stroke-dashoffset="0" style="mix-blend-mode: normal"><path d="M302.35161,249.39424c-7.90737,3.25783 -19.76869,0.21722 -27.66352,-2.47525c-23.88017,-8.14415 -52.05701,-28.44218 -53.33238,-56.52601c-0.8626,-18.99439 14.06834,-31.62819 28.95971,-40.18127c5.64953,-3.2449 17.59871,-8.70044 21.20975,-0.35284c0.96095,2.22144 1.07405,4.61867 -0.05136,6.83585c-2.43128,4.7899 -9.94673,5.88943 -14.08847,8.94761c-12.51482,9.2407 -18.39873,23.59635 -10.88335,37.94361c7.95732,15.19093 26.54992,20.86226 42.58297,19.19027c8.288,-0.86432 16.56273,-4.57243 25.05176,-2.08745c25.16826,7.36746 4.77132,26.68487 -10.57144,29.03838z" fill="#feed00" stroke="#000000" stroke-width="2" stroke-linecap="round"/><path d="M295.16444,244.52477c5.74083,0.07128 13.53763,-0.84337 19.33091,-1.53272c6.31668,-0.75163 14.80371,0.46444 21.24602,0.66656c3.78433,0.11873 12.40189,-0.4813 15.34664,1.15228c1.90616,1.05743 1.70399,3.65 2.1319,5.00036c1.59007,5.01793 0.4645,10.42056 2.05445,15.53612c1.87817,6.04293 -0.268,12.10146 0.40615,18.25921c1.26023,11.51116 1.83134,23.18193 -3.06668,34.63795c-2.14187,5.00966 5.90476,11.37988 -3.04789,14.20256c-3.17023,0.99953 -11.16959,7.74216 -14.65385,7.63285c-5.05461,-0.15858 -11.04304,-5.30207 -17.19947,-6.58837c-7.83889,-1.63784 -18.37509,2.3938 -24.21026,0.67247c-2.92082,-0.86162 -6.68837,-4.22872 -8.1598,-6.20446c-1.84448,-2.47666 1.92298,-13.35452 2.22277,-16.59878c1.4743,-15.95411 0.91798,-24.79267 2.39095,-40.76087c0.48402,-5.24706 0.49529,-22.53989 3.78935,-26.11882z" fill="#3c2c1f" stroke="#000000" stroke-width="2" stroke-linecap="round"/><g stroke-width="2"><path d="M355.03185,221.33953c2.97737,-3.29741 6.72626,-9.53884 10.52412,-10.32469c7.2001,-1.48986 19.78192,10.72218 17.93922,24.04691c-0.30184,2.18264 -1.28853,6.94943 -3.28222,6.05007c-0.43543,-0.19644 -1.88972,-2.60753 -2.29925,-2.09966c-0.1345,0.16679 0.20476,4.57766 0.11708,5.25015c-0.46767,3.58637 -1.84019,7.35179 -4.19922,8.37464c-2.31348,1.00312 -3.83449,-5.65983 -4.84109,-5.37518c-1.51161,0.42745 -3.21766,8.87958 -8.30081,4.33895c-2.75044,-2.45689 -3.99505,-13.13374 -4.25004,-13.35079c-1.32411,-1.12721 -5.56909,3.10498 -8.5618,-3.90762c-2.75244,-6.44968 3.56663,-13.79325 6.96564,-13.29964z" fill="#feed00" stroke="#000000" stroke-linecap="round"/><path d="M374.39299,229.45489c-0.53241,1.92621 -1.58856,3.18594 -2.85979,3.71157c-1.4071,0.58182 -2.56212,-2.48956 -4.07783,-3.79804c-1.58184,-1.36556 -3.18211,-0.7731 -3.65437,-3.116c-0.38906,-1.93023 -0.36247,-3.98368 0.14425,-5.81686c1.12175,-4.05828 4.36992,-5.32914 7.25499,-2.83851c2.88507,2.49062 4.3145,7.79955 3.19275,11.85783z" fill="#ffa600" stroke="none" stroke-linecap="butt"/><path d="M354.72825,233.12968c-0.4127,2.3229 -2.10354,3.32219 -3.77661,2.23201c-1.67305,-1.0902 -2.69476,-3.85706 -2.28205,-6.17995c0.4127,-2.3229 2.10354,-3.32219 3.7766,-2.23201c1.67305,1.0902 2.69478,3.85706 2.28206,6.17995z" fill="#ffa600" stroke="none" stroke-linecap="butt"/><path d="M366.01866,248.05794c-0.4072,2.29192 -2.07665,3.27716 -3.72878,2.20058c-1.65214,-1.07656 -2.66137,-3.80728 -2.25416,-6.0992c0.4072,-2.29192 2.07665,-3.27716 3.72878,-2.20059c1.65214,1.07656 2.66137,3.80728 2.25416,6.0992z" fill="#ffa600" stroke="none" stroke-linecap="butt"/><path d="M375.85785,246.89814c-0.40171,2.26096 -1.82933,3.37575 -3.18868,2.48996c-1.35935,-0.88578 -2.13568,-3.43672 -1.73398,-5.69767c0.40171,-2.26096 1.82933,-3.37575 3.18868,-2.48996c1.35935,0.88578 2.13568,3.4367 1.73398,5.69767z" fill="#ffa600" stroke="none" stroke-linecap="butt"/><path d="M382.53801,234.9823c-0.37968,2.13706 -1.43344,3.38341 -2.35362,2.78381c-0.92018,-0.59962 -1.35833,-2.8181 -0.97864,-4.95518c0.37968,-2.13706 1.43344,-3.38341 2.35362,-2.78381c0.92018,0.59962 1.35833,2.8181 0.97864,4.95518z" fill="#ffa600" stroke="none" stroke-linecap="butt"/></g><g stroke-width="2"><path d="M290.30217,223.97508c3.42326,-0.27957 9.26957,7.44567 6.11824,13.71012c-3.42639,6.81121 -7.39772,2.32125 -8.7899,3.36324c-0.26809,0.20064 -2.17953,10.77847 -5.07857,13.05812c-5.35778,4.21308 -6.53067,-4.32938 -8.0125,-4.85075c-0.98677,-0.34718 -2.92244,6.20731 -5.16851,5.06113c-2.29026,-1.16871 -3.42404,-5.01277 -3.66598,-8.6214c-0.04536,-0.67667 0.56972,-5.05759 0.44595,-5.23249c-0.37688,-0.53254 -1.97943,1.78265 -2.42635,1.9514c-2.04614,0.77263 -2.7321,-4.04665 -2.89652,-6.24392c-1.00382,-13.41404 12.31878,-24.81336 19.41132,-22.87509c3.74114,1.0224 7.09139,7.48654 9.85623,10.96409z" fill="#feed00" stroke="#000000" stroke-linecap="round"/><path d="M274.19361,219.51092c3.03552,-2.30488 6.19765,-0.83292 7.0628,3.28769c0.3908,1.86135 0.28863,3.91241 -0.22067,5.81446c-0.61818,2.30868 -2.17818,1.61706 -3.84251,2.88079c-1.59476,1.2109 -2.94003,4.20382 -4.30789,3.53495c-1.23579,-0.60429 -2.21089,-1.92773 -2.62151,-3.88354c-0.86515,-4.12063 0.89426,-9.32949 3.92978,-11.63437z" fill="#ffa600" stroke="none" stroke-linecap="butt"/><path d="M292.32449,230.0208c1.7381,-0.98318 3.36297,0.12016 3.62926,2.46436c0.26628,2.3442 -0.92686,5.04156 -2.66495,6.02475c-1.7381,0.98318 -3.36299,-0.12014 -3.62927,-2.46434c-0.26628,-2.3442 0.92686,-5.04156 2.66496,-6.02474z" fill="#ffa600" stroke="none" stroke-linecap="butt"/><path d="M280.0876,244.29082c1.71638,-0.97088 3.32077,0.11707 3.5835,2.43001c0.26273,2.31294 -0.91568,4.97501 -2.63206,5.94589c-1.71638,0.97088 -3.32077,-0.11707 -3.5835,-2.43001c-0.26273,-2.31294 0.91568,-4.97501 2.63206,-5.94589z" fill="#ffa600" stroke="none" stroke-linecap="butt"/><path d="M269.79613,242.88465c1.4122,-0.79883 2.76714,0.40327 3.02633,2.68495c0.25919,2.28169 -0.67554,4.77894 -2.08774,5.57777c-1.4122,0.79883 -2.76714,-0.40327 -3.02633,-2.68495c-0.25919,-2.28169 0.67554,-4.77894 2.08774,-5.57777z" fill="#ffa600" stroke="none" stroke-linecap="butt"/><path d="M263.07567,231.26719c0.95596,-0.54076 1.92952,0.7692 2.17449,2.92588c0.24499,2.15666 -0.33137,4.34334 -1.28733,4.88408c-0.95596,0.54076 -1.92952,-0.7692 -2.17449,-2.92588c-0.24499,-2.15666 0.33137,-4.34332 1.28733,-4.88408z" fill="#ffa600" stroke="none" stroke-linecap="butt"/></g><path d="M292.53884,205.05294c-1.85676,6.29335 -2.57274,17.84476 -6.74657,22.89651c-3.32876,4.02892 -22.10353,-2.82548 -24.54145,-6.74212c-0.84798,-1.36231 4.3643,-18.1148 5.13483,-20.52998c5.91136,-18.52885 13.04419,-36.08748 20.27245,-54.20188c1.98441,-4.97306 6.42997,-8.26975 8.46911,-12.93751l1.17339,0.08152c12.94852,3.02451 24.49445,9.25337 38.38754,8.12855c5.56022,-0.45016 9.69116,-2.2635 13.84326,-5.98405c0.94932,-0.85065 3.68291,-2.88054 5.10165,-1.87652c3.19317,2.25973 4.88844,10.59524 6.50678,14.10282c6.6742,14.46546 11.01531,30.23206 13.81972,45.92578c0.82102,4.59448 5.487,11.76006 4.21573,16.30157c-1.48884,5.31877 -10.68077,11.59643 -14.91031,14.89283c-1.17706,0.91736 -4.29737,4.69583 -5.66901,2.73488c-1.91091,-2.73193 -3.05679,-23.01181 -3.05679,-23.01181c0,0 0.2366,16.03433 0.88754,23.9968c0.31927,3.90526 2.04685,10.37355 0.06578,14.07515c-1.50896,2.81947 -10.50569,3.40872 -13.40149,3.63528c-11.71371,0.91644 -23.68565,-1.71493 -35.39133,-0.76043c-3.80473,0.31023 -13.48577,2.83509 -16.80322,0.90877c-1.76809,-1.02668 -0.65768,-6.4879 -0.60289,-8.23414c0.24119,-7.6878 -0.67135,-16.5535 1.072,-24.04098" fill="#fffe8a" stroke="#000000" stroke-width="2" stroke-linecap="round"/><path d="M302.58306,125.47123c14.12819,-2.02898 27.86042,-4.14623 42.19307,-2.56673c3.05658,0.33685 13.71891,1.81204 12.75787,6.50738c-1.30617,6.38143 -7.69784,9.51611 -13.56582,10.73203c-10.57856,2.19202 -35.39349,2.2365 -44.66916,-3.56314c-6.60148,-4.12758 -4.60931,-11.5753 3.435,-11.32292z" fill="#fffe8a" stroke="#000000" stroke-width="2" stroke-linecap="round"/><g stroke-width="2" stroke-linecap="round"><path d="M309.71576,54.23468c-12.56692,4.67004 -14.23428,17.66965 -18.06499,28.78736c-0.42098,1.22181 -3.85429,11.99771 -5.13905,11.78507c-0.53341,-0.08828 -0.34894,-1.02475 -0.48155,-1.54889c-1.05557,-4.1721 -2.49878,-8.25791 -3.58403,-12.43781c-2.70844,-10.43147 -4.39415,-21.15613 -5.97797,-31.82752c-0.45483,-3.06441 -2.07604,-10.07787 -0.74449,-12.92149c0.85326,-1.82221 1.40838,-1.00639 2.64766,-0.42524c6.36793,2.98619 12.5824,6.25227 18.8041,9.52519c4.56899,2.40351 10.17915,4.673 13.5632,8.6912z" fill="#feed00" stroke="#000000"/><path d="M303.30662,56.80173c-8.02842,3.82001 -8.36949,12.50496 -10.24973,20.07327c-0.20663,0.83175 -1.84434,8.15098 -2.70547,8.08569c-0.35754,-0.02711 -0.29044,-0.65652 -0.4087,-0.99502c-0.94134,-2.69429 -2.13367,-5.30893 -3.09508,-8.00665c-2.39931,-6.73249 -4.14016,-13.7185 -5.8106,-20.67525c-0.47969,-1.9977 -1.96088,-6.5359 -1.2476,-8.49225c0.45707,-1.25365 0.8715,-0.74719 1.72414,-0.43577c4.38126,1.60018 8.67749,3.39423 12.97891,5.19237c3.15881,1.32049 6.99756,2.49153 9.46806,4.94798z" fill="#ffa700" stroke="none"/></g><g stroke-width="2" stroke-linecap="round"><path d="M344.4939,56.10591c3.40878,-3.99727 9.03282,-6.23211 13.61654,-8.60741c6.24177,-3.23449 12.47625,-6.46219 18.86247,-9.40905c1.24283,-0.5735 1.80298,-1.38588 2.64499,0.44157c1.31399,2.85178 -0.35046,9.85512 -0.82417,12.91666c-1.64962,10.66141 -3.40143,21.37546 -6.17414,31.79003c-1.11104,4.17313 -2.57939,8.24998 -3.66067,12.41548c-0.13584,0.52333 0.04285,1.46089 -0.4911,1.54588c-1.28605,0.2047 -4.65283,-10.59216 -5.06628,-11.81654c-3.76207,-11.14113 -5.34925,-24.15079 -17.88711,-28.89823z" fill="#feed00" stroke="#000000"/><path d="M351.2556,58.78119c2.4856,-2.44117 6.3315,-3.58851 9.4984,-4.8895c4.31242,-1.77158 8.61966,-3.5391 13.01069,-5.11222c0.85455,-0.30616 1.2721,-0.81003 1.72143,0.44641c0.7012,1.9607 -0.80795,6.48968 -1.29995,8.48439c-1.71333,6.94633 -3.49723,13.92146 -5.93801,20.63902c-0.97803,2.69175 -2.18646,5.29896 -3.1444,7.98741c-0.12035,0.33775 -0.05715,0.96756 -0.41484,0.99249c-0.86154,0.06001 -2.45405,-7.26923 -2.65556,-8.10222c-1.83353,-7.57976 -2.12103,-16.26662 -10.12574,-20.13609z" fill="#ffa700" stroke="none"/></g><path d="M325.92161,52.6015c10.43327,0.32733 22.95808,-0.28423 30.21947,8.18119c6.2813,7.32282 5.7307,13.70798 7.4672,22.24441c0.53333,2.62177 2.3684,4.60559 2.59333,7.50761c1.36372,17.59519 -8.00576,38.90008 -29.3411,40.50627c-17.8693,1.34527 -38.81203,-2.96754 -48.42063,-18.73128c-5.99984,-9.84325 -1.16324,-22.79048 2.26927,-32.13413c1.32999,-3.62039 0.33818,-7.93199 1.87968,-11.7347c6.03466,-14.88684 19.2264,-16.00791 33.67754,-15.55453z" fill="#feed00" stroke="#000000" stroke-width="2" stroke-linecap="round"/><path d="M362.54692,94.77053c4.27382,0.52411 15.34815,5.29402 10.76421,11.17444c-1.19268,1.53001 -7.28339,2.14764 -7.68939,3.33725c-0.30448,0.89212 1.021,1.6083 1.31342,2.50443c0.78248,2.39791 1.22722,5.93708 0.79157,8.43382c-1.19852,6.86901 -11.15482,2.9964 -14.04491,-0.03076" fill="#feed00" stroke="#000000" stroke-width="2" stroke-linecap="round"/><path d="M295.22797,121.16958c-3.07416,2.84004 -13.25363,6.0809 -14.01922,-0.84971c-0.27828,-2.51914 0.38745,-6.02347 1.31871,-8.36759c0.34803,-0.87606 1.71579,-1.50773 1.46783,-2.41718c-0.33063,-1.21272 -6.37064,-2.21093 -7.46507,-3.81271c-4.2063,-6.15621 7.14524,-10.22254 11.44351,-10.4777" fill="#feed00" stroke="#000000" stroke-width="2" stroke-linecap="round"/><path d="M251.35103,73.17315c14.30439,0.66368 24.6394,11.54787 36.02353,18.53551" fill="none" stroke="#000000" stroke-width="2" stroke-linecap="round"/><path d="M255.71606,87.54488c10.80507,-0.96518 21.66937,2.77375 31.97129,5.40463" fill="none" stroke="#000000" stroke-width="2" stroke-linecap="round"/><path d="M260.0091,95.59557c8.73594,-1.35254 17.94171,-2.59981 26.78878,-2.32225" fill="none" stroke="#000000" stroke-width="2" stroke-linecap="round"/><path d="M365.59976,92.75598c8.63968,-8.11406 18.35476,-18.04862 30.98957,-17.66879" fill="none" stroke="#000000" stroke-width="2" stroke-linecap="round"/><path d="M362.93688,93.55174c11.20246,-7.48261 21.4651,-6.77569 33.57719,-2.66885" fill="none" stroke="#000000" stroke-width="2" stroke-linecap="round"/><path d="M366.40654,95.06747c8.70523,-3.16921 19.42514,0.62333 26.9908,5.18446" fill="none" stroke="#000000" stroke-width="2" stroke-linecap="round"/><path d="M320.97972,102.27754c3.71818,0.11666 7.64059,-0.00161 11.31744,0.5745c0.46667,0.07313 1.27687,-0.10263 1.3705,0.36037c0.12264,0.60649 -6.65863,4.17004 -7.42376,4.08894c-1.72057,-0.18236 -4.21383,-3.63977 -4.84635,-5.01069z" fill="#000000" stroke="#000000" stroke-width="2" stroke-linecap="round"/><path d="M322.52844,83.65743c-0.22196,7.07465 -6.05014,12.63259 -13.0176,12.414c-6.96746,-0.21859 -12.43576,-6.13095 -12.2138,-13.2056c0.22196,-7.07465 6.05013,-12.63258 13.01758,-12.41399c6.96746,0.21859 12.43578,6.13094 12.21383,13.20559z" fill="#ffffff" stroke="#000000" stroke-width="2" stroke-linecap="butt"/><path d="M357.59265,84.3348c-0.22196,7.07465 -6.05013,12.63258 -13.01758,12.41399c-6.96746,-0.21859 -12.43576,-6.13094 -12.21381,-13.20559c0.22196,-7.07465 6.05013,-12.63258 13.01758,-12.41399c6.96746,0.21859 12.43576,6.13094 12.21381,13.20559z" fill="#ffffff" stroke="#000000" stroke-width="2" stroke-linecap="butt"/><path d="M318.55283,83.5327c-0.15854,5.05332 -4.22603,9.02627 -9.08499,8.87383c-4.85896,-0.15244 -8.66941,-4.37255 -8.51087,-9.42587c0.15854,-5.05332 4.22603,-9.02627 9.08499,-8.87383c4.85896,0.15244 8.66941,4.37255 8.51087,9.42587z" fill="#ffffff" stroke="#000000" stroke-width="2" stroke-linecap="butt"/><path d="M353.75782,84.21448c-0.15854,5.05332 -4.22603,9.02627 -9.08499,8.87383c-4.85896,-0.15244 -8.66941,-4.37255 -8.51087,-9.42587c0.15854,-5.05332 4.22603,-9.02627 9.08499,-8.87383c4.85896,0.15244 8.66941,4.37255 8.51087,9.42587z" fill="#ffffff" stroke="#000000" stroke-width="2" stroke-linecap="butt"/><path d="M308.01353,57.96477c0.71638,-3.67594 4.46594,-4.72115 8.13323,-5.87399c0.40616,-0.12768 3.84369,-1.1586 3.77506,-1.65744c-0.12486,-0.90748 -5.42074,-0.42106 -4.66899,-2.37152c1.00968,-2.61967 11.54735,-1.66844 13.81623,-1.59748c0.32678,0.01022 4.19042,0.27287 4.24934,0.12878c0.25247,-0.6174 -6.17287,-2.88733 -5.70329,-3.70226c0.25665,-0.44543 4.94285,1.26796 5.41,1.46261c6.12006,2.55004 7.43255,6.39667 10.91713,10.96886" fill="#feed00" stroke="#000000" stroke-width="2" stroke-linecap="round"/><path d="M293.93878,74.29299c-2.33378,-1.23608 -2.28294,-3.30327 -4.03688,-5.04753c-0.89549,-0.89055 -5.78317,-1.64846 -5.64088,-3.25918c0.18717,-2.11858 6.16212,-2.75203 7.49266,-3.22421c0.9367,-0.33242 -0.18454,-8.62834 7.92303,-2.94538" fill="#feed00" stroke="#000000" stroke-width="2" stroke-linecap="round"/><path d="M308.55226,176.5176c1.22336,0.55263 4.66727,0.40451 5.10011,1.95671c1.45173,5.20589 -2.69567,9.70374 -7.50861,8.52117c-3.2049,-0.78746 2.81714,-11.17258 2.81714,-11.17258c0,0 1.06674,-23.72501 3.9389,-35.14293" fill="#ffaf36" stroke="#000000" stroke-width="2" stroke-linecap="round"/><path d="M335.25842,177.96026c9.91995,-10.3968 7.77718,18.2283 -1.7056,9.86479c-5.13424,-4.52823 1.52929,-8.35013 2.11285,-10.85126c2.75454,-11.80585 -1.83819,-24.68943 2.13337,-36.62214" fill="#ffaf36" stroke="#000000" stroke-width="2" stroke-linecap="round"/><path d="M295.55758,207.76399c3.62879,-2.72088 8.02219,-2.0584 12.24833,-2.5908c13.63071,-1.71718 28.74942,-0.34493 42.20499,2.27248" fill="none" stroke="#000000" stroke-width="2" stroke-linecap="round"/><path d="M351.18677,238.35597c0.17385,-8.89763 -1.1707,-17.9629 0.59355,-26.82484" fill="none" stroke="#000000" stroke-width="2" stroke-linecap="round"/><path d="M295.92447,212.03236c-0.26704,8.51152 -0.07887,16.97359 -0.54689,25.46069" fill="none" stroke="#000000" stroke-width="2" stroke-linecap="round"/><path d="M305.88719,135.39943c-2.59107,-0.99985 -4.28856,-3.62825 -6.64583,-5.14511" fill="none" stroke="#fcec41" stroke-width="2" stroke-linecap="round"/><path d="M348.75888,134.41081c1.66273,-1.03299 3.21248,-1.84278 5.05479,-2.51351" fill="none" stroke="#fcec41" stroke-width="2" stroke-linecap="round"/><path d="M319.84775,155.53935l0.30055,-9.5797" fill="none" stroke="#fcec41" stroke-width="2" stroke-linecap="round"/><path d="M323.55044,149.34073l-0.15394,4.90669" fill="none" stroke="#fcec41" stroke-width="2" stroke-linecap="round"/><path d="M327.06255,149.21703l0.58366,3.76041" fill="none" stroke="#fcec41" stroke-width="2" stroke-linecap="round"/><path d="M277.49458,226.07678l14.17761,-36.8654l-8.40828,36.5456z" fill="#fce541" stroke="#fcec41" stroke-width="2" stroke-linecap="round"/><path d="M277.49458,226.07678l14.17761,-36.8654l-8.40828,36.5456z" fill="#fce541" stroke="#fcec41" stroke-width="2" stroke-linecap="round"/><path d="M360.68864,224.16755l-6.31316,-30.23452l12.21945,25.54897z" fill="#fce541" stroke="#fcec41" stroke-width="2" stroke-linecap="round"/><path d="M318.72076,332.61875l3.10411,-76.69056" fill="none" stroke="#000000" stroke-width="2" stroke-linecap="round"/><path d="M320.86881,341.06299c-0.27188,8.666 -9.3128,15.41446 -20.19343,15.0731c-10.88065,-0.34136 -19.48074,-7.64327 -19.20886,-16.30928c0.27188,-8.666 9.3128,-15.41446 20.19343,-15.0731c10.88065,0.34136 19.48074,7.64327 19.20886,16.30928z" fill="#000000" stroke="#000000" stroke-width="2" stroke-linecap="butt"/><path d="M359.32514,336.99913c-0.27188,8.66601 -9.3128,15.41446 -20.19344,15.0731c-10.88064,-0.34136 -19.48074,-7.64327 -19.20886,-16.30928c0.27188,-8.66601 9.3128,-15.41446 20.19343,-15.0731c10.88065,0.34136 19.48075,7.64327 19.20887,16.30928z" fill="#000000" stroke="#000000" stroke-width="2" stroke-linecap="butt"/><path d="M311.00658,127.25226l0.48304,-15.39645l30.13773,0.94553l-0.48304,15.39645z" fill="none" stroke="#000000" stroke-width="2" stroke-linecap="butt"/><path d="M203.72467,143.24826c-2.7404,-0.22957 -2.51083,-2.96997 -2.51083,-2.96997l0.28132,-3.32934c-0.00428,-9.60909 -0.4039,-19.32972 0.00314,-28.92946c0.19303,-4.55235 1.1711,-9.21737 1.7477,-13.73407c0,0 0.34824,-2.72786 3.0761,-2.37962c2.72786,0.34824 2.37962,3.0761 2.37962,3.0761c-0.56114,4.39563 -1.53505,8.95669 -1.7145,13.38653c-0.38741,9.56296 0.00723,19.23862 0.00314,28.81029l-0.29572,3.55871c0,0 -0.22957,2.7404 -2.96997,2.51083z" fill="#ffa600" stroke="#000000" stroke-width="1" stroke-linecap="butt"/></g></g></svg>