<svg version="1.1" xmlns="http://www.w3.org/2000/svg" xmlns:xlink="http://www.w3.org/1999/xlink" width="152.76138" height="317.35374" viewBox="0,0,152.76138,317.35374"><defs><linearGradient x1="393.77832" y1="112.70382" x2="352.53705" y2="112.70382" gradientUnits="userSpaceOnUse" id="color-1"><stop offset="0" stop-color="#ff8600"/><stop offset="1" stop-color="#562e0d"/></linearGradient><linearGradient x1="246.63683" y1="111.45476" x2="287.87809" y2="111.45476" gradientUnits="userSpaceOnUse" id="color-2"><stop offset="0" stop-color="#ff8600"/><stop offset="1" stop-color="#562e0d"/></linearGradient><linearGradient x1="318.21414" y1="153.66208" x2="318.21414" y2="332.49445" gradientUnits="userSpaceOnUse" id="color-3"><stop offset="0" stop-color="#292929"/><stop offset="1" stop-color="#171717"/></linearGradient><linearGradient x1="319.58757" y1="267.2521" x2="319.58757" y2="292.49085" gradientUnits="userSpaceOnUse" id="color-4"><stop offset="0" stop-color="#10ff00"/><stop offset="1" stop-color="#025f00"/></linearGradient><linearGradient x1="251.97485" y1="281.37299" x2="268.0064" y2="281.71759" gradientUnits="userSpaceOnUse" id="color-5"><stop offset="0" stop-color="#ffffff"/><stop offset="1" stop-color="#929292"/></linearGradient><linearGradient x1="388.60867" y1="280.60265" x2="372.57711" y2="280.94725" gradientUnits="userSpaceOnUse" id="color-6"><stop offset="0" stop-color="#ffffff"/><stop offset="1" stop-color="#929292"/></linearGradient><linearGradient x1="290.46074" y1="290.24806" x2="276.66149" y2="280.12006" gradientUnits="userSpaceOnUse" id="color-7"><stop offset="0" stop-color="#ffffff"/><stop offset="1" stop-color="#929292"/></linearGradient><linearGradient x1="326.40307" y1="276.20584" x2="312.60382" y2="284.37349" gradientUnits="userSpaceOnUse" id="color-8"><stop offset="0" stop-color="#ffffff"/><stop offset="1" stop-color="#929292"/></linearGradient><linearGradient x1="364.61217" y1="288.5672" x2="350.81292" y2="282.9443" gradientUnits="userSpaceOnUse" id="color-9"><stop offset="0" stop-color="#ffffff"/><stop offset="1" stop-color="#929292"/></linearGradient><linearGradient x1="306.00926" y1="279.4224" x2="292.21001" y2="284.237" gradientUnits="userSpaceOnUse" id="color-10"><stop offset="0" stop-color="#ffffff"/><stop offset="1" stop-color="#929292"/></linearGradient><linearGradient x1="330.08302" y1="278.79652" x2="343.88226" y2="283.61112" gradientUnits="userSpaceOnUse" id="color-11"><stop offset="0" stop-color="#ffffff"/><stop offset="1" stop-color="#929292"/></linearGradient></defs><g transform="translate(-242.26693,-16.43693)"><g stroke-miterlimit="10"><path d="M352.53709,112.32578c0.02973,-19.17078 11.68629,-34.35003 22.22071,-34.33368c10.53443,0.01633 19.05017,15.57055 19.02044,34.74131c-0.02974,19.17076 -8.5937,34.69846 -19.12812,34.68213c-10.53442,-0.01635 -22.14274,-15.91903 -22.11301,-35.08979z" fill="url(#color-1)" stroke="#000000" stroke-width="2.5" stroke-linecap="butt"/><path d="M287.87802,111.07669c0.02973,19.17076 -11.57859,35.07344 -22.11301,35.08979c-10.53442,0.01633 -19.09838,-15.51137 -19.12812,-34.68213c-0.02973,-19.17076 8.48601,-34.72498 19.02044,-34.74131c10.53442,-0.01635 22.19098,15.1629 22.22071,34.33368z" fill="url(#color-2)" stroke="#000000" stroke-width="2.5" stroke-linecap="butt"/><path d="M269.14234,328.85582l-2.22089,-147.27579c0,0 6.90994,-25.69821 17.14038,-26.10344c10.15967,-0.40242 34.24099,-0.95905 55.2754,-1.79223c22.8143,-0.90368 29.92205,25.97468 29.92205,25.97468l0.24756,152.83541z" fill="url(#color-3)" stroke="#000000" stroke-width="2.5" stroke-linecap="butt"/><path d="M342.82659,161.91277c0,9.08229 -10.21979,16.44494 -22.82655,16.44494c-12.60676,0 -22.82655,-7.36265 -22.82655,-16.44494c0,-9.08229 10.21979,-16.44494 22.82655,-16.44494c12.60676,0 22.82655,7.36265 22.82655,16.44494z" fill="#ffd300" stroke="#000000" stroke-width="2.5" stroke-linecap="butt"/><path d="M374.46,115.09005c-1.94104,28.48816 -27.92848,52.9286 -58.11114,50.8721c-30.18266,-2.05649 -53.13099,-29.83117 -51.18995,-58.31932c1.94104,-28.48815 27.98246,-49.91526 58.16512,-47.85875c30.18266,2.05649 53.07703,26.81782 51.13599,55.30597z" fill="#ffd300" stroke="#000000" stroke-width="2.5" stroke-linecap="butt"/><path d="M335.10787,104.61226c0,2.70884 -6.65243,4.90479 -14.85862,4.90479c-8.2062,0 -14.85862,-2.19595 -14.85862,-4.90479c0,-2.70884 6.65243,-4.90479 14.85862,-4.90479c8.2062,0 14.85862,2.19595 14.85862,4.90479z" fill-opacity="0.18431" fill="#ff0505" stroke="none" stroke-width="0" stroke-linecap="butt"/><path d="M341.6174,199.88747l2.45286,-15.85296l6.83296,16.59607l-16.11879,-12.38513l21.55012,-1.48621z" fill="none" stroke-opacity="0.67059" stroke="#ffffff" stroke-width="2.5" stroke-linecap="round"/><path d="M287.60666,182.96255c10.34144,-6.2902 21.69545,5.99304 10.67708,13.76027c-4.91821,3.46701 -14.01065,1.46876 -16.55931,-4.02944c-2.7448,-5.92132 4.0494,-11.49883 9.46436,-10.14509" fill="none" stroke-opacity="0.67059" stroke="#ffffff" stroke-width="2.5" stroke-linecap="round"/><path d="M299.98043,190.72249c2.3716,0.00029 8.11099,-0.86501 9.57888,1.68674c2.75069,4.78177 -6.1686,9.06022 -9.47081,9.45986c-6.48806,0.78519 -14.71249,0.32016 -20.56999,-2.49803c-4.75254,-2.28657 -4.94228,-7.65778 1.01907,-7.65778" fill="none" stroke-opacity="0.67059" stroke="#ffffff" stroke-width="2.5" stroke-linecap="round"/><path d="M282.0381,234.64342c0.83287,-9.89554 -0.68253,-22.34782 2.46271,-31.78353" fill="none" stroke-opacity="0.67059" stroke="#ffffff" stroke-width="2.5" stroke-linecap="round"/><path d="M301.34459,202.85989c2.68566,10.74265 3.2075,21.64343 5.67178,32.33889" fill="none" stroke-opacity="0.67059" stroke="#ffffff" stroke-width="2.5" stroke-linecap="round"/><path d="M289.95027,208.81394c0,-0.33333 0,-0.66667 0,-1" fill="none" stroke-opacity="0.67059" stroke="#ffffff" stroke-width="2.5" stroke-linecap="round"/><path d="M295.64743,208.82313c0,-0.66667 0,-1.33333 0,-2" fill="none" stroke-opacity="0.67059" stroke="#ffffff" stroke-width="2.5" stroke-linecap="round"/><path d="M298.12198,213.86361c-0.04572,1.93231 -0.25062,6.40989 -2.48501,7.32626c-4.31968,1.7716 -7.91602,-2.79173 -7.91602,-6.44026" fill="none" stroke-opacity="0.67059" stroke="#ffffff" stroke-width="2.5" stroke-linecap="round"/><path d="M378.04953,22.5793l11.72802,3.58774l-32.42453,9.13242l16.55721,4.24005l-17.07462,34.89889" fill="none" stroke="#000000" stroke-width="2.5" stroke-linecap="round"/><path d="M381.49895,21.60082c0,2.16158 -1.84558,3.91389 -4.12223,3.91389c-2.27664,0 -4.12223,-1.75231 -4.12223,-3.91389c0,-2.16158 1.84558,-3.91389 4.12223,-3.91389c2.27664,0 4.12223,1.75231 4.12223,3.91389z" fill="#ffd300" stroke="#000000" stroke-width="2.5" stroke-linecap="butt"/><path d="M279.64383,75.19834l-17.07462,-34.89889l16.55721,-4.24005l-32.42453,-9.13242l11.72802,-3.58774" fill="none" stroke="#000000" stroke-width="2.5" stroke-linecap="round"/><path d="M259.10272,18.44688c2.27664,0 4.12222,1.7523 4.12222,3.91389c0,2.16159 -1.84558,3.91389 -4.12222,3.91389c-2.27664,0 -4.12223,-1.75231 -4.12223,-3.91389c0,-2.16159 1.84559,-3.91389 4.12223,-3.91389z" fill="#ffd300" stroke="#000000" stroke-width="2.5" stroke-linecap="butt"/><path d="M280.83734,136.47764l5.15706,-1.64088" fill="none" stroke="#000000" stroke-width="2.5" stroke-linecap="round"/><path d="M289.23467,87.16609c0,0 3.94263,-5.61268 5.86442,-5.58265c1.97942,0.03093 5.84432,5.7656 5.84432,5.7656" fill="none" stroke="#000000" stroke-width="2.5" stroke-linecap="round"/><path d="M339.97195,86.12877c0,0 3.94263,-5.61268 5.86442,-5.58265c1.97942,0.03093 5.84432,5.7656 5.84432,5.7656" fill="none" stroke="#000000" stroke-width="2.5" stroke-linecap="round"/><path d="M264.71521,292.49085c0,0 -3.82634,-8.11142 -3.82634,-12.25549c0,-4.26534 3.82634,-12.98325 3.82634,-12.98325c0,0 37.0621,5.73698 55.10102,5.73698c18.52948,0 54.64369,-5.73698 54.64369,-5.73698c0,0 2.55089,8.34846 2.55089,12.54194c0,4.21929 -2.55089,12.69681 -2.55089,12.69681c0,0 -33.25149,2.64783 -50.81735,2.64783c-18.91568,0 -58.92736,-2.64783 -58.92736,-2.64783z" fill="url(#color-4)" stroke="#000000" stroke-width="2.5" stroke-linecap="butt"/><path d="M282.57024,135.39535l11.82919,10.0981l27.69763,-6.92441l37.2187,4.61628" fill="none" stroke="#000000" stroke-width="2.5" stroke-linecap="round"/><path d="M291.88158,105.44066v-5.96658c0,0 1.88784,-1.19332 2.89806,-1.19332c1.26277,0 4.09138,1.19332 4.09138,1.19332v5.96658c0,0 -2.49451,1.53427 -3.57996,1.53427c-1.22697,0 -3.40948,-1.53427 -3.40948,-1.53427z" fill="#000000" stroke="#000000" stroke-width="2.5" stroke-linecap="butt"/><path d="M341.54574,105.49691v-5.96659c0,0 1.88784,-1.19332 2.89806,-1.19332c1.26277,0 4.09137,1.19332 4.09137,1.19332v5.96659c0,0 -2.49451,1.53426 -3.57995,1.53426c-1.22697,0 -3.40948,-1.53426 -3.40948,-1.53426z" fill="#000000" stroke="#000000" stroke-width="2.5" stroke-linecap="butt"/><path d="M267.81093,290.81103l-15.83609,-9.43804l16.22701,-8.74885z" fill="url(#color-5)" stroke="#000000" stroke-width="2.5" stroke-linecap="butt"/><path d="M372.38165,271.85381l16.22702,8.74885l-15.83609,9.43803z" fill="url(#color-6)" stroke="#000000" stroke-width="2.5" stroke-linecap="butt"/><path d="M281.29435,272.95099l9.16638,17.29707l-18.4321,-2.95893z" fill="url(#color-7)" stroke="#000000" stroke-width="2.5" stroke-linecap="butt"/><path d="M307.97096,276.54626l18.43211,-0.34042l-9.16638,15.99487z" fill="url(#color-8)" stroke="#000000" stroke-width="2.5" stroke-linecap="butt"/><path d="M355.44578,274.26272l9.16638,14.30448l-18.4321,3.05868z" fill="url(#color-9)" stroke="#000000" stroke-width="2.5" stroke-linecap="butt"/><path d="M287.57715,275.28404l18.4321,4.13836l-9.16638,13.76755z" fill="url(#color-10)" stroke="#000000" stroke-width="2.5" stroke-linecap="butt"/><path d="M339.2494,292.56407l-9.16638,-13.76755l18.43211,-4.13836z" fill="url(#color-11)" stroke="#000000" stroke-width="2.5" stroke-linecap="butt"/></g></g></svg>