<svg version="1.1" xmlns="http://www.w3.org/2000/svg" xmlns:xlink="http://www.w3.org/1999/xlink" width="177.99503" height="354.00732" viewBox="0,0,177.99503,354.00732"><g transform="translate(-123.14002,-6.53705)"><g stroke-width="2" stroke-miterlimit="10"><path d="M195.74584,226.39478c5.63637,-0.27491 12.89981,-1.88281 18.29302,-3.08941c5.88047,-1.31561 14.64297,-0.36636 21.01533,-0.5258c3.74323,-0.09366 15.43965,0.43894 15.43965,0.43894l4.01829,5.96881l12.21652,19.13794l7.46418,22.26073c0,0 10.76197,28.17933 10.41076,42.4708c-0.15356,6.24959 10.17362,13.5175 2.51942,17.52712c-2.71044,1.41983 -7.91601,10.15386 -11.36244,10.24009c-4.99973,0.12509 -12.84124,-5.77529 -19.35394,-6.95719c-8.29252,-1.5049 -23.3931,2.34704 -23.3931,2.34704l-10.3736,-7.05846l-4.25305,-20.39982c0,0 -8.69933,-30.31864 -13.44088,-49.90155c-1.55803,-6.43483 -12.4363,-27.84715 -10.60326,-32.42308z" fill="#3c2c1f" stroke="#000000" stroke-linecap="round"/><path d="M230.40279,238.93735l26.651,93.80061" fill="none" stroke="#000000" stroke-linecap="round"/><path d="M260.89484,339.66926c3.08861,10.59445 5.06885,19.60583 -5.69364,19.87511c-10.7625,0.26928 -33.28083,-18.89998 -33.28083,-18.89998c0,0 3.1323,-19.40126 13.8948,-19.67053c10.7625,-0.26928 21.99105,8.10093 25.07967,18.6954z" fill="#000000" stroke="#000000" stroke-linecap="butt"/><path d="M298.41967,335.52469c3.08862,10.59447 2.85648,20.07095 -7.90603,20.34022c-10.76249,0.26928 -27.97982,-8.77062 -31.06845,-19.36509c-3.08862,-10.59447 3.1323,-19.40126 13.8948,-19.67053c10.7625,-0.26928 21.99106,8.10093 25.07968,18.6954z" fill="#000000" stroke="#000000" stroke-linecap="butt"/><path d="M208.26456,217.8856c-7.38802,4.30779 -27.74227,1.32811 -27.74227,1.32811l-56.13139,-50.03327l23.19741,-43.76162l20.96259,-3.24777l0.88322,6.77875l-12.73365,10.78883l-5.59638,39.07487c0,0 29.15164,17.0386 44.80583,13.19142c8.09215,-1.98875 15.78255,-6.7928 24.53153,-5.49112c25.93892,3.85919 3.94814,27.10778 -10.92912,31.53576z" fill="#feed00" stroke="#000000" stroke-linecap="round"/><g><path d="M247.01333,204.20556l13.4394,-12.99114l16.63204,22.69521l-2.42471,6.44183l-2.56459,-1.76578l0.8334,5.18491l-3.01546,8.86989l-5.53018,-4.66324l-7.63005,5.43253l-6.03452,-12.6448c0,0 -5.09257,3.83685 -9.01545,-2.70102c-3.60795,-6.01307 5.08294,-14.12672 5.08294,-14.12672z" fill="#feed00" stroke="#000000" stroke-linecap="round"/><path d="M267.30181,209.59914l-2.3258,4.06754l-4.55857,-3.20519l-4.04588,-2.58741l3.77289,-7.10721l6.79906,-3.80327l0.3583,12.63553z" fill="#ffa600" stroke="none" stroke-linecap="butt"/><path d="M248.32367,215.92659c0,0 -1.62984,3.57847 -3.43618,2.72713c-1.80632,-0.85136 -3.19653,-3.45265 -3.10512,-5.81015c0.09141,-2.3575 1.62984,-3.57847 3.43617,-2.72713c1.80632,0.85136 3.10513,5.81014 3.10513,5.81014z" fill="#ffa600" stroke="none" stroke-linecap="butt"/><path d="M261.54808,229.17202l-3.3931,2.68947l-3.06645,-5.73396l3.3931,-2.68948l3.06645,5.73396z" fill="#ffa600" stroke="none" stroke-linecap="butt"/><path d="M271.1365,226.6786l-2.81852,2.90233l-2.49628,-5.40728l2.81852,-2.90233z" fill="#ffa600" stroke="none" stroke-linecap="butt"/><path d="M276.12572,213.96171l-1.95115,3.07932l-1.64657,-4.77497l1.95115,-3.07932z" fill="#ffa600" stroke="none" stroke-linecap="butt"/></g><g><path d="M183.25099,215.6615c3.35294,-0.74473 10.20005,6.10916 7.93429,12.74548c-2.46352,7.21554 -7.01113,3.31036 -8.24787,4.53281c-0.23816,0.23539 3.3737,11.27997 0.81336,13.93437c-4.73182,4.90569 -8.60018,-3.71036 -8.60018,-3.71036l-4.42844,5.71992l-4.80969,-8.03958l-4.33318,-5.54913l1.92301,2.56944l-7.7825,-6.09434l16.10342,-25.31302c0,0 8.04789,6.4473 11.26199,9.51442z" fill="#feed00" stroke="#000000" stroke-linecap="round"/><path d="M166.6835,213.44041l7.4458,2.29174l0.57593,5.79008l-3.41281,3.37883l-3.78444,4.09045l-3.12759,-3.48888l2.30312,-12.06223z" fill="#ffa600" stroke="none" stroke-linecap="butt"/><path d="M186.08046,221.37416c1.58744,-1.21147 3.34784,-0.34052 3.93196,1.94531c0.58411,2.28583 -0.22925,5.12093 -1.8167,6.33239c-1.58744,1.21147 -3.34786,0.34054 -3.93197,-1.94529c-0.58411,-2.28583 0.22925,-5.12093 1.81671,-6.3324z" fill="#ffa600" stroke="none" stroke-linecap="butt"/><path d="M179.96825,237.48726c0,0 3.30562,-0.3378 3.88194,1.91753c0.57632,2.25533 -0.22727,5.05347 -1.79487,6.24978c-1.56761,1.1963 -3.88194,-1.91753 -3.88194,-1.91753z" fill="#ffa600" stroke="none" stroke-linecap="butt"/><path d="M165.52123,237.19579l7.42477,2.551l-1.30598,5.81073l-3.36483,-2.24622z" fill="#ffa600" stroke="none" stroke-linecap="butt"/><path d="M157.2763,226.60562l2.55391,2.60129l-0.60786,5.01418l-2.55391,-2.60129z" fill="#ffa600" stroke="none" stroke-linecap="butt"/></g><path d="M187.30587,195.28601c-0.97937,6.48804 -7.97938,24.92885 -7.97938,24.92885l-25.23254,-3.32536l6.70614,-22.36427l12.67577,-56.46362c0,0 5.23962,-9.07081 6.6218,-13.97343l1.17352,-0.07959c13.24035,1.22676 25.52913,5.81947 39.1382,2.80676c5.44655,-1.20572 9.29096,-3.56653 12.8957,-7.81955c0.82418,-0.97239 3.25474,-3.35678 4.79738,-2.55605c3.472,1.8022 8.37285,13.08139 8.37285,13.08139l19.96571,43.60656l6.40374,15.57259l-17.16023,18.11579l-5.24212,3.48387l-1.74776,-23.70346l-0.26653,24.97564l1.98849,13.93414c0,0 -9.94135,4.81231 -12.77902,5.43245c-11.4786,2.50849 -23.69781,1.53773 -35.16327,4.08283c-3.72665,0.82723 -8.91192,4.95606 -12.46148,3.50114c-1.8918,-0.77544 -5.598,-6.64195 -5.78235,-8.3793c-0.81159,-7.64864 -2.92704,-16.30649 -2.22319,-23.96195" fill="#fffe8a" stroke="#000000" stroke-linecap="round"/><path d="M186.38126,115.07828c13.71841,-3.94052 27.03251,-7.91439 41.44655,-8.30821c3.07394,-0.08398 13.83783,-0.07961 13.52741,4.70302c-0.42191,6.50006 -6.32528,10.47874 -11.97206,12.48509c-10.1798,3.61698 -34.75588,7.05194 -44.73705,2.57419c-7.10358,-3.18679 -6.1478,-10.83687 1.85554,-11.68609z" fill="#fffe8a" stroke="#000000" stroke-linecap="round"/><g stroke-linecap="butt"><path d="M184.6642,44.46361l-10.34985,35.94272l-2.51698,15.05918l-0.55114,-2.15601l-4.21014,-17.26979l-8.33924,-43.70423l-2.10307,-17.48614l1.96776,-0.16712l15.4662,15.67978l11.37198,13.7576z" fill="#feed00" stroke="#000000"/><path d="M180.08361,46.93548l-5.42787,25.4213l-1.10149,10.45742l-0.4298,-1.40022l-3.31085,-11.23757l-6.88636,-28.68492l-1.96023,-11.6081l1.26251,-0.3224l10.51079,8.9643l7.80544,8.09921z" fill="#ffa700" stroke="none"/></g><g stroke-linecap="butt"><path d="M220.39721,40.30864l6.1254,-14.3713c0,0 5.96726,-11.55523 9.11162,-17.06139c0.61192,-1.07157 0.74975,-2.1816 1.71633,-0.39885c1.50837,2.78202 2.71696,14.90303 2.71696,14.90303l4.16915,38.08754l0.86948,15.29948l0.08682,1.91697c0,0 -5.46417,-10.41041 -6.02026,-11.65605c-5.05995,-11.33458 -18.06147,-26.63783 -18.06147,-26.63783z" fill="#feed00" stroke="#000000"/><path d="M225.17006,41.03975l4.55052,-8.76293l6.62809,-10.20854l1.15664,-0.07955l1.32396,10.04692l1.53488,25.3832c0,0 -0.00791,6.74193 0.08,10.11101c0.01104,0.42326 0.20631,1.1148 -0.00471,1.26456c-0.50827,0.36068 -3.30111,-7.39565 -3.63098,-8.2702c-3.00161,-7.95806 -11.16529,-19.35546 -11.16529,-19.35546z" fill="#ffa700" stroke="none"/></g><path d="M199.54346,39.70294l31.05394,3.97505c0,0 7.5501,12.79632 10.43679,21.01538c0.88658,2.5243 3.5949,7.08282 3.5949,7.08282c0,0 -2.61508,39.62915 -23.53081,44.13569c-17.51786,3.77444 -50.526,-11.93904 -50.526,-11.93904l-2.14305,-32.14279l0.25854,-11.88148l31.23616,-20.01056z" fill="#feed00" stroke="#000000" stroke-linecap="butt"/><path d="M241.58749,76.47168c4.30534,-0.06482 12.19019,9.59872 12.19019,9.59872l-7.16123,4.35667l1.64332,2.30147l1.9366,8.24654c0,0 -10.64074,4.49256 -13.91737,1.88873" fill="#feed00" stroke="#000000" stroke-linecap="round"/><path d="M178.50736,111.82203l-14.00383,1.07395l0.16293,-8.4693l1.12376,-2.59508l-7.91605,-2.75686l9.90442,-11.94314" fill="#feed00" stroke="#000000" stroke-linecap="round"/><path d="M128.48342,70.27147l38.21844,13.43913" fill="none" stroke="#000000" stroke-linecap="round"/><path d="M134.77135,83.91193l32.40993,0.98514" fill="none" stroke="#000000" stroke-linecap="round"/><path d="M140.12423,91.30047l26.22016,-5.96108" fill="none" stroke="#000000" stroke-linecap="round"/><path d="M244.3364,74.05886l28.28449,-21.73769" fill="none" stroke="#000000" stroke-linecap="round"/><path d="M241.80725,75.21103c10.0749,-8.94321 32.89754,-7.23204 32.89754,-7.23204" fill="none" stroke="#000000" stroke-linecap="round"/><path d="M272.89752,77.68605l-27.44606,-1.44762" fill="none" stroke="#000000" stroke-linecap="round"/><path d="M201.436,89.58831c3.69924,-0.39251 7.5687,-1.04566 11.28979,-0.97739c0.47228,0.00867 1.25086,-0.27615 1.40689,0.16972c0.20437,0.58404 -6.02634,5.04081 -6.79538,5.06502c-1.72935,0.05445 -4.67166,-3.02982 -5.48558,-4.30144z" fill="#000000" stroke="#000000" stroke-linecap="round"/><path d="M200.42582,70.93122c0.74686,7.03862 -4.26718,13.34082 -11.19915,14.07637c-6.93198,0.73554 -13.90374,-11.41274 -13.90374,-11.41274c0,0 4.26717,-13.34081 11.19913,-14.07636c6.93198,-0.73554 13.1569,4.37411 13.90376,11.41273z" fill="#ffffff" stroke="#000000" stroke-linecap="butt"/><path d="M235.25367,66.81081c0.74686,7.03862 -4.26717,13.34081 -11.19913,14.07636c-6.93198,0.73554 -13.15688,-4.37412 -13.90374,-11.41273c-0.74686,-7.03862 4.26717,-13.34081 11.19913,-14.07636c6.93198,-0.73554 13.15688,4.37412 13.90374,11.41273z" fill="#ffffff" stroke="#000000" stroke-linecap="butt"/><path d="M193.83928,71.26137c0.53347,5.02758 -2.86532,13.06174 -7.69953,13.57469c-4.83421,0.51295 -9.27324,-6.68954 -9.80672,-11.71714c-0.53347,-5.02758 2.95298,-9.51908 7.78719,-10.03202c4.83421,-0.51295 9.18558,3.14688 9.71906,8.17447z" fill="#000000" stroke="#000000" stroke-linecap="butt"/><path d="M228.50957,67.59741c0.53347,5.02758 -2.04104,13.31403 -6.87525,13.82698c-4.83421,0.51295 -10.09752,-6.94183 -10.631,-11.96942c-0.53347,-5.02758 2.95298,-9.51908 7.78719,-10.03202c4.83421,-0.51295 9.18558,3.14688 9.71906,8.17447z" fill="#000000" stroke="#000000" stroke-linecap="butt"/><path d="M182.53623,47.46299l7.25427,-6.93027l3.51316,-2.15774l-4.94925,-1.71127l13.46834,-3.47043l4.22708,-0.45308l-6.1557,-2.8882l5.55911,0.70963l12.31359,9.37418" fill="#feed00" stroke="#000000" stroke-linecap="butt"/><path d="M170.8247,65.56131l-4.68874,-4.44856l-6.03333,-2.4578l6.98179,-4.21781l7.44623,-4.0004" fill="#feed00" stroke="#000000" stroke-linecap="butt"/><path d="M199.26981,164.83015c1.2874,0.38028 4.67877,-0.23706 5.31965,1.24144c2.14948,4.95869 -1.34439,9.98107 -6.27379,9.46727c-3.28245,-0.34213 1.26401,-11.45274 1.26401,-11.45274c0,0 -2.18521,-23.64823 -0.90023,-35.35152" fill="#ffaf36" stroke="#000000" stroke-linecap="round"/><path d="M225.92257,162.60996c8.40621,-11.65481 10.19508,16.99458 -0.3416,10.00532c-5.70485,-3.78417 0.37392,-8.48077 0.61025,-11.03819c1.11547,-12.07151 -5.19469,-24.20666 -2.89095,-36.57014" fill="#ffaf36" stroke="#000000" stroke-linecap="round"/><path d="M190.66675,197.55913c3.22295,-3.19122 7.66567,-3.13531 11.77941,-4.24019c13.26821,-3.56367 28.43261,-4.27023 42.11963,-3.51602" fill="none" stroke="#000000" stroke-linecap="round"/><path d="M245.52957,221.5878c-1.04361,-8.83793 1.34729,-27.97953 1.34729,-27.97953" fill="none" stroke="#000000" stroke-linecap="round"/><path d="M191.61346,201.73733c0.89854,8.46817 -2.18358,18.15037 -1.48747,26.6218" fill="none" stroke="#000000" stroke-linecap="round"/><path d="M191.01105,124.46185c-2.70339,-0.63641 -4.74412,-3.00819 -7.28655,-4.18871" fill="none" stroke="#fcec41" stroke-linecap="round"/><path d="M233.34551,117.62422c1.50598,-1.2505 2.93053,-2.26447 4.66392,-3.18065" fill="none" stroke="#fcec41" stroke-linecap="round"/><path d="M206.58141,132.97427l1.01131,9.53091" fill="none" stroke="#fcec41" stroke-linecap="round"/><path d="M210.93164,140.74044l-0.51799,-4.88169" fill="none" stroke="#fcec41" stroke-linecap="round"/><path d="M214.96794,138.90167l-1.09204,-3.64538" fill="none" stroke="#fcec41" stroke-linecap="round"/><path d="M170.85073,219.49361l13.43193,-39.78213l-7.76041,38.67697z" fill="#fce541" stroke="#fcec41" stroke-linecap="round"/><path d="M170.85073,219.49361l13.43193,-39.78213l-7.76041,38.67697z" fill="#fce541" stroke="#fcec41" stroke-linecap="round"/><path d="M253.0035,206.23405l-5.96055,-30.41345l15.59602,23.63957z" fill="#fce541" stroke="#fcec41" stroke-linecap="round"/></g></g></svg>